<svg width="200" height="200" fill="none" xmlns="http://www.w3.org/2000/svg"><path d="M166.87 156.66c0 .45-.3.85-.75.94l-22.54 4.52-52.76 10.58c-.81.15-1.64.13-2.44-.04l-41.7-9.47c-12.35-2.8-22.57-4.95-23.8-5.38-1.72-.6-2.29-2.18-2.45-3.23-.89-5.47-3.65-22.3-6.34-39.04-2.85-17.74-5.61-35.36-5.96-39.16-.2-2.13 4-2.61 5.13-2.7h.01l.27-.02h.01l11.64.84 57.72 4.16h.1l.4.04.23.01.42.04 2.12.15.57.04.63.05h.02l.33.02h.06l.53.04.1.01.8.06.53.04.36.02.38.03 1.5.1.07.01.67.05h.04l2.84.2 1.6.12.17.81.67 3.14.2.96.95 4.37.7 3.25.38 1.8.67 3.1v.03l.01.02.01.05.03.14.17.77.23 1.06.67 3.13 6.17 28.68 2.21 12.26.2.95a1.12 1.12 0 0 1-.69.37h-.05l-23.42 3.54 24.26-1.93 56.05 5.66v.3l.06 4.5Z" fill="#899695"/><path d="m148.53 155.85-4.95 6.27-52.76 10.58c-.81.15-1.64.13-2.44-.04l-41.7-9.47 4.35-4.97 97.5-2.37ZM25.19 74.49v.01l-1.22 3.72-4.5 13.75-2.77 8.48-2.6 15.1C11.23 97.8 8.47 80.17 8.12 76.37c-.2-2.13 4-2.61 5.13-2.7h.01c.09-.02.18-.02.27-.02h.03l11.62.83Z" fill="#93A3A2"/><path d="M110.69 144.46v.01c-.01.53-.18.03-.73.1l-.05.02-83.28 8.2c-.11 0-.22 0-.32-.02a1.12 1.12 0 0 1-.9-.92l-8.71-51.4-4.32-25.48c-.1-.61.3-1.17.88-1.29h.01c.09-.02.18-.02.27-.02h.03l11.62.83 57.96 4.1h.1l.4.04h.03l.42.03 2.05.14.57.04.62.05h.02l.33.02.32.02h.06l.32.03h.03l.67.05.7.05.28.02.32.02 1.84.13h.03l.58.05h.04l2.77.2 2.58.18c.29.02.52.23.58.51l.7 3.64.03.15v.01l.77 4.04.74 3.84.6 3.16.29 1.46v.02l.01.06v.03l.25 1.24.83 4.38 5.21 28.8 2.22 12.26.19.95.04.25Z" fill="#E1EAEA"/><path d="m166.4 151.46-55.62-7-84.52 8.31 62.15 13.66c.8.18 1.63.2 2.44.04l75.58-13.92c.54-.1.52-1.03-.02-1.1Z" fill="#D8E0E0"/><path d="m143.56 151.19-33-3.73-65.12 6.79 37.1 6.47c.33.05.65.05.96 0l60.06-9.48c.03 0 .03-.05 0-.06Z" fill="#899695"/><path d="m45.46 152.74-.04 1.42 37.05 6.42c.32.06.64.06.96.02l60.11-8.79c.13-.02.22-.13.23-.27l.02-.93c0-.13-.1-.25-.22-.24l-98.11 2.37Z" fill="#899695"/><path d="m143.65 150.34-33-4.1-65.19 6.5 37.05 6.42c.32.06.64.06.96.02l60.18-8.8c.02 0 .02-.03 0-.04Z" fill="#9DAFAE"/><path d="M106.51 139.56 95.87 83.51c-.1-.5-.52-.88-1.03-.91L18.4 77.87c-.72-.04-1.3.6-1.17 1.32L29.2 147.4c.1.58.63.98 1.22.92l75.1-7.45a1.12 1.12 0 0 0 1-1.32Z" fill="#E3F7FF"/><mask id="a" style="mask-type:alpha" maskUnits="userSpaceOnUse" x="17" y="77" width="90" height="72"><path d="M106.63 139.64 95.99 83.6c-.1-.5-.52-.88-1.03-.91l-76.43-4.72c-.73-.05-1.3.6-1.17 1.3l11.96 68.23c.1.58.63.98 1.22.92l75.1-7.45a1.12 1.12 0 0 0 1-1.32h-.01Z" fill="#E3F7FF"/></mask><g mask="url(#a)"><path d="M83.23 120.78c.87-.48 1.5-1.29 2.16-2.03a18.22 18.22 0 0 1 5.89-4.34 4.79 4.79 0 0 1 2.93-.58c1.36.29 2.32 1.58 2.7 2.92.36 1.34.27 2.76.29 4.16.02 1.39.17 2.85.96 4 .27.4.63.84.49 1.3-.12.38-.53.57-.9.72a21.17 21.17 0 0 1-11.46.98 7.27 7.27 0 0 1-2.66-.96c-1.34-.89-2-2.38-2.4-3.88-.13-.52-.56-1.64-.12-2.01.3-.24 1.6 0 2.12-.28Z" fill="#fff"/><path opacity=".64" d="M98.16 124.91c-.78-1.15-.94-2.61-.96-4-.02-1.4.08-2.81-.29-4.16-.36-1.3-1.26-2.54-2.55-2.88l.09.58c.38 3.55-2.18 6.61-5 8.4a16.52 16.52 0 0 1-7.32 2.46c.38.65.87 1.22 1.52 1.65.79.52 1.72.78 2.65.96 3.81.73 7.83.4 11.47-.99.37-.14.78-.34.9-.71.12-.47-.23-.91-.5-1.3Z" fill="#F3F3F3"/><path d="M11.58 108c2.09-1.33 3.5-3.47 4.99-5.45 1.72-2.3 3.72-4.5 6.33-5.71 2.61-1.2 5.96-1.18 8.12.71 2.65 2.34 2.64 6.37 3.5 9.8.64 2.55 1.94 5.03 4.12 6.5 1.5 1 3.3 1.45 5.06 1.76 2.78.47 5.85.56 8.15-1.06 2.32-1.65 3.25-4.61 4.97-6.87a8.6 8.6 0 0 1 4.7-3.26c1.9-.44 4.05.02 5.4 1.42 2.12 2.2 1.72 5.69 2.24 8.69 1.16 6.72 7.56 11.58 14.23 12.97 1.34.27 2.76.47 3.83 1.32 1.9 1.51 1.9 4.38 1.57 6.8-.22 1.69-.57 3.47-1.75 4.69-1.24 1.28-3.13 1.67-4.9 1.91-10.95 1.53-22.08.37-33.07-.8-9.65-1.03-19.38-2.07-28.62-5.04-1.47-.47-2.97-1.02-4.1-2.08-2.11-2-2.36-5.2-2.86-8.06a33.15 33.15 0 0 0-4.48-11.75c-.52-.83-3.63-4.7-2.87-5.43.36-.36 2.17.05 2.71-.03a6.9 6.9 0 0 0 2.73-1.03Z" fill="#fff"/><path opacity=".64" d="M87.22 128.82c-1.06-.84-2.49-1.03-3.82-1.32-6.67-1.39-13.07-6.25-14.23-12.97-.52-3-.12-6.49-2.24-8.68-.26-.27-.55-.5-.86-.71a18.5 18.5 0 0 1-1.29 2.68 13.25 13.25 0 0 1-2.3 2.87c-.95.9-2.04 1.58-3.09 2.35-.54.4-1.26 1-1.97.66-.48-.23-.78-.75-.99-1.22a9.44 9.44 0 0 1-.68-3.16c-1.13 1.91-2.1 3.97-3.89 5.23-2.3 1.63-5.37 1.54-8.14 1.06-1.78-.3-3.58-.75-5.07-1.76-2.18-1.46-3.48-3.95-4.12-6.5-.86-3.43-.84-7.45-3.5-9.79-2.16-1.9-5.5-1.92-8.12-.72-2.62 1.2-4.62 3.41-6.34 5.7-1.5 1.98-2.9 4.12-5 5.46-.81.53-1.75.89-2.71 1.03-.54.08-2.35-.33-2.72.03-.75.72 2.36 4.6 2.87 5.42a33.15 33.15 0 0 1 4.49 11.76c.5 2.86.75 6.07 2.87 8.06 1.12 1.06 2.62 1.6 4.09 2.08 9.24 2.97 18.97 4.01 28.62 5.04 11 1.17 22.13 2.33 33.07.8 1.77-.25 3.66-.63 4.9-1.91 1.18-1.22 1.53-3.01 1.75-4.7.32-2.41.33-5.27-1.58-6.79Z" fill="#F3F3F3"/><path d="M25.98 111.98c10.61-5.47 11.2-15.2 17.14-16.69 10.6-2.65 9.99 16.16 11.15 20 .65 2.15 1.83 4.25 3.77 5.38 8 4.64 18.31-7.12 19.35-7.8 2.24-1.45 5.4-2.04 7.47-.36 3.75 3.04.78 10.16 4.41 13.35 1.8 1.58 4.55 1.47 6.8.7 24.38-8.29 33.46 17.4 32.14 19.88-1.57 2.94-13.72-.1-16.92.84-14.8 4.35-30.45 4.5-45.88 4.61-8 .06-16.01.12-24.02-.14-7.83-.26-15.9-.78-23.3 1.8-4.37-9.45-6.2-19.83-7.73-30.12-.33-2.17-1.4-10.6 2.32-10.11 2.31.3 4.27.93 6.68.68 2.3-.25 4.56-.95 6.62-2.02Z" fill="#F3F3F3"/><g opacity=".34"><path opacity=".34" d="M77.18 130.12a5 5 0 0 0 .17 2.6c2.49 6.26 15.5-2.84 22.3-6.59.58-.32 1.16-.63 1.76-.91-1.7.26-3.47.7-5.33 1.33-2.27.77-5.02.88-6.81-.7-3.63-3.18-.66-10.31-4.41-13.35a4.31 4.31 0 0 0-1.07-.64c4.66 5.41-5.66 12.13-6.62 18.26ZM106.6 124.95c9.37 4.76-14.2 8.57-27.05 16.36 4.8-.66 27.09 7.33 31.75 5.96 3.2-.94 15.35 2.1 16.92-.83 1.1-2.08-5.13-20.56-21.61-21.49Z" fill="#A4A4A4"/><path opacity=".34" d="M116.84 128.25c.58 1.52.78 3.16.36 4.8-.8 3.04-3.3 5.18-5.76 6.93a36.27 36.27 0 0 1-5.74 3.3 39.01 39.01 0 0 1-8.6 6.98c4.8-.67 9.54-1.62 14.2-3 3.2-.93 15.35 2.11 16.92-.83.84-1.57-2.53-12.54-11.37-18.18Z" fill="#888"/><path opacity=".34" d="M48.6 96.88c4.86 9.25-13.8 12.5-7.83 29.84 2.44 7.09 11.49 16.64 25.07-5.2.13-.22.27-.42.43-.62-2.72 1.04-5.6 1.29-8.22-.24-1.94-1.12-3.14-3.22-3.78-5.37-.96-3.16-.71-16.41-6.47-19.57.3.36.57.74.8 1.16Z" fill="#A4A4A4"/></g><path opacity=".5" d="M44.22 100.74c.18.03.37-.07.41-.25a.44.44 0 0 0 0-.14.47.47 0 0 0-.15-.26c-.26-.23-.66-.3-1-.22-.35.07-.66.25-.94.43.29-.24.62-.47.8-.8.2-.32.2-.77-.14-1.02-.3-.23-.77-.2-1.16-.11a4 4 0 0 0-2.62 1.95c-.16.3.1.64.42.56a10.5 10.5 0 0 1 4.38-.14Z" fill="#D8D8D8"/><path d="M42.04 99.06c.16-.2.23-.46.1-.67a.66.66 0 0 0-.3-.27 1.6 1.6 0 0 0-1.35.05c-.42.2-.77.52-1.11.84.34-.4.7-.8.84-1.3.15-.5.02-1.13-.43-1.4-.4-.23-.92-.11-1.36.06-.89.35-1.7.9-2.35 1.59-.42.44-1.27 1.32-1.29 2l7.26-.9Z" fill="#D8D8D8"/><path d="M39.92 98.53c-.11.25.4.28.53.27.32-.03.63-.19.88-.39.13-.1.25-.23.34-.36a1.67 1.67 0 0 0-1.18.12c-.2.1-.4.21-.56.35v.01Z" fill="#fff"/><path d="M36.45 99.09c.89-.05 1.99-.2 2.61-.89.37-.4.63-1.08.31-1.59-.1-.15-.23-.3-.38-.4-.2.03-.38.1-.56.16-.9.35-1.7.9-2.35 1.59a8.1 8.1 0 0 0-.93 1.1c.43.06.87.06 1.3.03Z" fill="#F3F3F3"/><path d="M120.47 137.94c1.54 1.12 2.8 2.64 4.72 3.2 1.52.44 3.28.22 4.76.75.3.1.62.28.63.56.01.27-.25.49-.5.65-3.2 2.11-7.34 2.76-11.3 2.95-3.57.17-7.2.01-10.57-.87-3.39-.88-6.53-2.52-8.61-4.95-3.24-3.78 11.35-9.28 20.87-2.3Z" fill="#74A352"/><path opacity=".5" d="M120.47 137.94c1.54 1.12 2.8 2.64 4.72 3.2 1.52.44 3.28.22 4.76.75.3.1.62.28.63.56.01.27-.25.49-.5.65-3.2 2.11-7.34 2.76-11.3 2.95-3.57.17-7.2.01-10.57-.87-3.39-.88-6.53-2.52-8.61-4.95-3.24-3.78 11.35-9.28 20.87-2.3Z" fill="#AED888"/><path d="M40.65 129.04c1.94.62 4.04.33 6.04-.03 4.87-.86 9.69-2.06 14.4-3.58 2.66-.85 5.4-1.83 8.18-1.44 2.76.38 5.5 2.66 5.3 5.45-.08 1.15-.62 2.34-.16 3.4.58 1.3 2.32 1.53 3.75 1.46 4.05-.23 8-1.4 12.05-1.53a23.95 23.95 0 0 1 14.04 4.01c1.74 1.16 3.38 2.65 4.06 4.63.2.63.3 1.33 0 1.92-.44.88-1.56 1.14-2.55 1.3a541.2 541.2 0 0 1-64.17 5.89c-.24 0-.5 0-.7-.12-.22-.14-.32-.4-.41-.63a117.88 117.88 0 0 1-5.98-20.25c-.18-.93-.52-6.08 1.77-4.59.67.44 1.06 1.77 1.66 2.4a6.67 6.67 0 0 0 2.72 1.7v.01Z" fill="#74A352"/><path opacity=".5" d="M40.65 129.04c1.94.62 4.04.33 6.04-.03 4.87-.86 9.69-2.06 14.4-3.58 2.66-.85 5.4-1.83 8.18-1.44 2.76.38 5.5 2.66 5.3 5.45-.08 1.15-.62 2.34-.16 3.4.58 1.3 2.32 1.53 3.75 1.46 4.05-.23 8-1.4 12.05-1.53a23.95 23.95 0 0 1 14.04 4.01c1.74 1.16 3.38 2.65 4.06 4.63.2.63.3 1.33 0 1.92-.44.88-1.56 1.14-2.55 1.3a541.2 541.2 0 0 1-64.17 5.89c-.24 0-.5 0-.7-.12-.22-.14-.32-.4-.41-.63a117.88 117.88 0 0 1-5.98-20.25c-.18-.93-.52-6.08 1.77-4.59.67.44 1.06 1.77 1.66 2.4a6.67 6.67 0 0 0 2.72 1.7v.01Z" fill="#AED888"/><path opacity=".5" d="M34.5 129.52a117.96 117.96 0 0 0 5.98 20.25c.1.24.2.5.41.64.2.12.46.12.7.12a541.36 541.36 0 0 0 64.17-5.9c.98-.16 2.11-.4 2.56-1.3.3-.58.2-1.3-.01-1.91-.68-1.98-2.32-3.47-4.06-4.63a23.9 23.9 0 0 0-7.11-3.22c-3.1 2.32-6.95 3.55-13.86 4.64-2.5.4-8.33.84-9.1-2.05-.25-.89-.5-1.75.05-4-.08-.87.27-1.8.34-2.72.15-2.05-1.3-3.82-3.18-4.77-4.26 3.57-11.4 8.53-17.27 5.23a6.1 6.1 0 0 1-2.03-1.98c-1.78.4-3.58.77-5.39 1.1-2 .36-4.1.65-6.05.03a6.66 6.66 0 0 1-2.7-1.71c-.61-.62-1-1.95-1.68-2.39-.24-.16-.5-.24-.75-.27-1.46.01-1.18 4.04-1.02 4.84Z" fill="#74A352"/><path d="M99.27 148.92c-1.06-.5-2.22-.8-3.4-.9-.77-.07-1.57-.05-2.3-.3-1.62-.55-2.43-2.22-3.67-3.35-2.64-2.41-6.85-2.1-10.48-1.57-11.89.8-15.74-.77-18.89-5.15-1.47-2.05-2.87-5.05-5.47-5.32-1.27-.13-3.44.32-5.53.62-2.35.34-3.42-1.2-3.83-2.35-.27-.78.2-2.14.45-3.23 1.44-6.26-7.26-10.02-12.45-10.19-3.01.2-6.03.48-9.03.84-3.52.42-7.22.79-10.8 1.46l4.92 39.47 80.48-10.03Z" fill="#74A352"/></g><path d="M96.83 73.14c-.69.37-.78 1.54-.2 2.63.58 1.08 1.6 1.67 2.29 1.32 1.63-.86-.44-4.81-2.1-3.95Z" fill="#2B2B37"/><path d="M97.26 75.4c.11.33-.04.4-.22.46-.16.06-3.52 2.89-3.62 2.97-1.15.9-.66.97-2.86.64l-.03-.08.07.05c.1.06.16-.1.06-.16l-.24-.1-.38-.93c.72-.1 1.5-.15 2.04-.57.3-.22.5-.57.8-.8.48-.38 1.13-.46 1.72-.63.68-.21 1.33-.55 1.97-.9.14.3.56-.28.69.04Z" fill="#D58500"/><path opacity=".36" d="M97.2 75.4c.11.34-.03.41-.22.47-.15.06-3.52 2.89-3.62 2.97-1.16.9-.62.98-2.96.62-.1-.1-.2-.18-.3-.26h.02l-.36-.91c.8-.14 1.71-.13 2.32-.6.3-.23.5-.58.8-.8.48-.4 1.13-.47 1.72-.64.68-.21 1.33-.55 1.97-.9.14.3.56-.28.63.05Z" fill="#B45F00"/><path d="m91.72 75.84.19.24-.27.06-.43-.23.5-.07Z" fill="#B45F00"/><path d="M90.94 75.24c.21.16.54.25.79.38.27.12.52.27.76.44.4.27.76.6 1.16.88.12.07.26.16.4.2.28.04.55-.1.8-.22.63-.3 1.33-.55 1.8-1.07-.33-.32-.6-.68-.79-1.1-.07-.15-.12-.3-.22-.4-.28.2-.59.39-.9.52-1.39.6-1.57-.61-3.9 0-.2.05-.38.03.1.37Z" fill="#D58500"/><path opacity=".36" d="M90.94 75.24c.21.16.54.25.79.38.27.12.52.27.76.44.4.27.76.6 1.16.88.12.07.26.16.4.2.28.04.55-.1.8-.22.63-.3 1.33-.55 1.8-1.07-.33-.32-.6-.68-.79-1.1-.07-.15-.12-.3-.22-.4-.28.2-.59.39-.9.52-1.39.6-1.57-.61-3.9 0-.2.05-.38.03.1.37Z" fill="#B45F00"/><path d="m46.83 88.03.3.24a5.27 5.27 0 0 0 .82.53c.16.09 1.2-.04 3.05-.36 9.77-1.73 25.34-6.05 35.8-9.23.06-.03.1-.04.16-.05l.15-.06c.05-.03.09-.04.15-.05.05-.03.09-.04.15-.05l-.67-1.5c-.56.2-1.13.36-1.68.53a332.45 332.45 0 0 1-32.01 8.55l-6.37 1.3c0 .02.05.05.15.15Z" fill="#D8D8D8"/><path d="M50.98 88.4c-1.85.33-2.9.45-3.06.36a5.55 5.55 0 0 1-1.11-.76 4.51 4.51 0 0 1-.13-.12c2.27-.45 4.36-.86 6.3-1.28-.4.55-.8 1.12-1.23 1.66l-.78.15ZM64.6 85.37c-1.57.38-3.1.78-4.6 1.12.28-.55.55-1.09.77-1.66 1.62-.37 3.22-.78 4.81-1.18l-.43.71c-.19.35-.38.67-.55 1.01ZM73.45 83.01l-4.76 1.28.34-.58c.2-.35.34-.75.5-1.12 1.65-.44 3.3-.9 4.98-1.39-.3.6-.66 1.16-.99 1.7l-.08.11ZM82.83 80.35c-2.16.65-4.44 1.31-6.79 1.96.2-.35.42-.68.63-1.02.15-.24.25-.52.37-.81 2.19-.64 4.42-1.33 6.73-2.05-.27.55-.5 1.1-.78 1.63-.06.1-.12.2-.16.3ZM87.38 78.98a.41.41 0 0 1-.15.06.41.41 0 0 1-.15.05.41.41 0 0 1-.15.05.41.41 0 0 1-.15.05l-3.43 1.03c.34-.66.6-1.33.95-1.95.26-.1.5-.17.75-.24.56-.16 1.12-.35 1.69-.53l.64 1.48Z" fill="#fff"/><path d="M86.7 77.5a.41.41 0 0 1-.15.05.41.41 0 0 1-.15.05.41.41 0 0 1-.15.05 344.18 344.18 0 0 1-28.09 7.64c-3.37.77-11.27 2.44-11.48 2.5 0 .05 0 .07.02.08.14.1 1.82-.37 3.67-.7 1.83-.3 4.52-.95 7.87-1.71 3.36-.8 7.43-1.8 12.1-3.05a512.46 512.46 0 0 0 16.23-4.69c.05-.03.1-.04.15-.05l-.02-.18Z" fill="#A4A4A4"/><path d="M87.76 80.54a1.02 1.02 0 0 1-.32-.3 3.3 3.3 0 0 1-.34-.51 6.18 6.18 0 0 1-.6-1.65 6.6 6.6 0 0 1-.13-.9 3.4 3.4 0 0 1 .01-.75c.04-.21.1-.39.18-.5l.05-.06c.02 0 .03-.02.05-.03l.06-.03.06-.01-.52.13-.06.01c-.02 0-.03.03-.05.03-.02 0-.04.01-.06.04l-.05.05c-.07.11-.14.29-.17.5-.04.2-.04.47-.02.75a6.52 6.52 0 0 0 1.07 3.07c.11.13.22.23.33.29.11.06.2.08.3.06l.51-.14a.4.4 0 0 1-.3-.05Z" fill="#D8D8D8"/><path d="M87.65 76.56c-.13-.23-.27-.4-.4-.54-.13-.13-.25-.2-.37-.22a.31.31 0 0 0-.31.15c-.08.11-.14.29-.18.5-.03.21-.04.47-.02.75s.07.6.14.9c.07.31.18.63.28.95.13.3.25.57.38.8.13.24.27.41.4.55.13.13.25.2.37.22.12.01.24-.03.31-.15.08-.12.14-.3.18-.5.03-.21.03-.48.01-.76a6.58 6.58 0 0 0-.8-2.65Z" fill="#A4A4A4"/><path opacity=".49" d="M87.29 77.33c.01.16.03.33.06.49.04.25.7.2.76.42l.14-.13a5.1 5.1 0 0 0-.22-.74c-.07-.21-.17-.39-.25-.57-.2.18-.34.31-.49.53Z" fill="#4D4D4D"/><g opacity=".41" fill="#D8D8D8"><path opacity=".41" d="M87.4 80.17c.06.09.11.16.17.2.07.1.17.15.26.2l.56-.57s.02-.02.01-.04c.04-.21.04-.48.02-.76l-.01-.25-1.01 1.22ZM87.34 76.08c-.3.27-.63.52-.96.76v.34c.02.22.05.45.1.69l1.13-1.4-.27-.39Z"/></g><path d="m87.73 79-.53-1.35 8.93-2.44a.37.37 0 0 1 .16-.01c.04 0 .08.02.13.05l.1.1c.03.03.04.09.05.13l.12.74c.01.04 0 .1 0 .14a.5.5 0 0 1-.08.14.32.32 0 0 1-.12.1.38.38 0 0 1-.14.08L87.74 79Z" fill="#3E5C2E"/><path d="m95.68 75.81-.08.23-.01.05v.01l.02-.05.07-.24.07-.24-.07.24Zm-.71.5-.2.61.01.02.2-.6v-.01l-.01-.03Zm-4.24.53-.05-.04-.03.01.01.02.03.03c0 .02.02.03.03.04l.05.09.02.02.03-.09a1.88 1.88 0 0 0-.1-.08Zm-1.18.36h-.01l.05-.1-.12.04a.43.43 0 0 1-.05.07l-.05.03-.06.01-.04.02a.72.72 0 0 1-.11.04h-.01a.57.57 0 0 1-.18.02l-.01.02-.1.13.04.03h.02c.12-.02.25-.02.35 0h.05l.05.02.06.04.02.02v.06l.03-.06.06-.2.05-.17-.02-.01-.02-.01Zm6.13-1.39-.08.23-.01.05v.01l.02-.05.07-.24.07-.24-.07.24Zm-.71.5-.2.61.01.01.2-.6-.01-.03Zm-4.24.53-.05-.04-.03.01.01.02.03.03c0 .02.02.03.03.04l.05.09.02.02.03-.09a1.88 1.88 0 0 0-.1-.08Zm-1.16.37-.02-.01h-.01l.05-.1-.12.04a.43.43 0 0 1-.05.07l-.05.03-.06.01-.04.02a.72.72 0 0 1-.11.04h-.01a.57.57 0 0 1-.18.02l-.01.02-.1.13.04.03h.02a1.34 1.34 0 0 1 .42.01l.03.01.06.04a.1.1 0 0 1 .02.06v.02l.03-.06.06-.2.05-.17-.02-.01Zm7.1-.99-.01-.07v-.03l-.05-.24-.01-.08-.02-.12v-.02l-.03-.18a.36.36 0 0 0-.03-.1l-.02-.03c0-.04-.03-.05-.08-.08v-.01h-.01a.3.3 0 0 0-.08-.03l-.04-.01H96.2l-.07.01-.6.17-.23.06-.37.1-.05.01-.03.01-.15.04-.79.22-1.25.34-.92.25-.24.07h-.02l-.3.09-.09.02-.12.03-.12.04h-.01l-.05.01-.06.02-.12.03h-.03l-.08.03h-.01l-.07.02h-.02l-.12.04h-.01l-.13.04h-.01l-.05.02-.12.03-.13.03h-.02l-.12.04h-.02l-.13.04h-.03l-.01.01-.03.01-.13.04-.21.05-.3.09h-.01l-.07.02-.2.05h-.02l-.39.11-.02.01-.07.02-.05.01-.07.02-.51.14h-.02l-.07.03h-.03l-.1.03.5 1.24.04.1v.02l.06-.02.27-.07.34-.1.58-.15.82-.23h.02l.27-.07.07-.03 1.67-.45 1.63-.44.67-.19.07-.01.76-.21.2-.06h.05l.38-.1.16-.05.06-.02.21-.06.1-.03.18-.05h.02l.04-.02a.4.4 0 0 0 .1-.06.32.32 0 0 0 .11-.1l.03-.03.04-.08.01-.03a.4.4 0 0 0 .01-.14ZM90 77.8l-.14.47v.02l-.02-.02-.02-.02-.13-.14-.29-.31v-.02h.01v-.02l.01-.02.03-.09.02-.06.06-.2.05-.17.02-.07.27.28v.01l.19.2-.05.12v.04Zm-1.85.4-.02-.02.07-.22.14-.48.34.35.13.14-.21.69-.05-.05-.24-.25-.16-.16Zm2.47-.75.03-.07.06-.17.06-.18v-.02l.04-.09.01-.03.16.16.11.12.04.05.14.14-.2.58-.45-.49Zm2.67-1.3.32.34.01.01.11.12-.1.31-.11.36-.45-.49.02-.07.01-.02.05-.14.14-.42Zm1.58 0 .07.09.03.03v.02h-.01v.01l-.2.62v.02l-.22-.24-.05-.05-.19-.2.05-.14v-.02l.17-.51.17.18.18.2Zm-2.81.39.42.43-.13.39-.02.07-.06.2-.06-.07-.02-.02-.33-.35.2-.65Zm3.96-.9.22.24.02.02-.1.36-.1.29-.02.05v.02l-.17-.19-.05-.05-.24-.26v-.01l.02-.06.07-.24.07-.24.04-.12.01-.04.23.23Zm-6.48 1.56h-.01l.05-.09-.12.03v.01a.43.43 0 0 1-.05.06l-.05.03-.06.01a.36.36 0 0 1-.04.02.72.72 0 0 1-.11.04l-.01.01c-.06.01-.12.02-.18.01l-.01.02-.1.14.04.02h.02a1.34 1.34 0 0 1 .42.01l.03.01.06.04.02.02v.06l.03-.06.06-.19.05-.18-.02-.01-.02-.01Zm1.18-.36c-.02 0-.03-.02-.05-.03h-.03l.01.02.03.03c0 .02.02.03.03.04l.05.09.02.02.03-.09a1.88 1.88 0 0 0-.1-.08Zm4.24-.54-.2.62.01.02.2-.6v-.01l-.01-.03Zm.7-.48-.07.23-.01.05.02-.05.07-.24.07-.24-.07.25Z" fill="#74A352"/><path opacity=".37" d="M96.41 75.23c.05.03.08.06.1.1.03.03.04.09.05.13l.12.74c.01.04 0 .1 0 .14a.5.5 0 0 1-.08.14.3.3 0 0 1-.11.1.39.39 0 0 1-.15.08l-.19.06-2.02.56c.1-.23.23-.44.38-.65l.27.3.22-.67-.08-.1.04-.06c.24-.23.53-.47.83-.66l-.2.65.45.5.23-.71-.44-.47c.12-.09.25-.15.38-.2h.06c.06.01.1.02.14.01ZM89.16 77.1l-1.96.55.53 1.36.83-.22v-.18l-.42-.44.21-.7.34.36c0-.02.02-.02.01-.04.12-.3.26-.46.46-.69Z" fill="#568040"/><path d="M96.34 75.08c-.03-.03-.07-.04-.1-.06a.14.14 0 0 0-.1-.02.24.24 0 0 0-.12.01l-8.66 2.36-.08.36 8.92-2.43.12-.01c.04 0 .07 0 .1.02l.1.06.08.08c-.02-.01-.02-.03-.02-.03v-.02l-.04-.04c-.02-.01-.02-.03-.02-.03v-.02l-.03-.03c-.03-.02-.03-.04-.03-.04v-.02c-.03-.01-.01-.02-.03-.03-.03-.02-.03-.04-.03-.04v-.02c-.03-.01-.03-.03-.03-.03-.03-.03-.05-.05-.02-.01h-.01Z" fill="#3E5C2E"/><path opacity=".37" d="M89.45 77.63c.06.25-.47.4-.47.4l-.47-.46s.9-.2.94.06ZM89.89 76.9c.17-.01.5.4.53.5.05.25-.48.4-.48.4l-.47-.46s.17-.46.41-.43ZM90.8 76.45c.17-.02.5.4.53.49.05.25-.48.4-.48.4l-.47-.46s.15-.46.41-.43Z" fill="#568040"/><path opacity=".37" d="m91.06 76.29.7-.2c.02.24-.09.67-.11.74-.1.16-.4.26-.57.3l-.12-.11.02-.65s.01-.03.08-.08Z" fill="#568040"/><path d="M88.86 77.3c-.13-.04-.23-.14-.35-.2-.1-.05-.28-.08-.38 0-.02 0-.02.03-.03.05-.02.03-.01.04 0 .06 0 .14.03.26.03.38.02.1.02.2 0 .3-.02.09-.1.19-.2.2-.15.04-.28-.1-.36-.22-.17-.22-.3-.47-.4-.74a.98.98 0 0 1-.08-.32c.01-.15.07-.24.16-.32.35-.32.8-.44 1.29-.38h.02c.23.02.54.06.71.22.1.08.17.19.22.32.04.11.07.23.03.34-.02.02-.03.06-.04.09-.12.2-.38.3-.62.23Z" fill="#D58500"/><path opacity=".36" d="m89.5 76.69.03.15-.1.08.08.1c0 .05 0 .07-.02.1a.5.5 0 0 1-.1.11l-.45.08-.2-.06-.2-.13c-.12-.06-.28-.09-.39 0-.02 0-.01.02-.03.04a.08.08 0 0 0 0 .07c0 .14.03.25.04.37.02.1.02.2 0 .3-.02.1-.1.19-.2.21-.15.03-.28-.1-.37-.22a2.9 2.9 0 0 1-.44-.82.55.55 0 0 0 .2-.1c.2-.16.23-.43.2-.69.2-.12.6-.23 1-.18h.01c.23.03.54.07.72.23.1.08.17.2.22.36Z" fill="#B45F00"/><path opacity=".36" d="m88.95 77.27-.2-.06-.2-.14c-.11-.05-.26-.08-.37-.02-.17-.14-.55-.38-.55-.38-.05-.03-.02-.1.01-.13.04-.02.1-.02.14 0 .39.07.09.02.51-.18.19-.08.38-.1.57-.06.09.02.13-.09.08-.14.04.01.06.01.08.03l.11.05.14.1c.1.07.17.18.22.31l.03.16-.1.08.08.1c0 .04 0 .06-.02.09-.03.04-.06.1-.1.12l-.43.07ZM87.55 77.4c-.04.08.14.02.18.01.06-.01.1-.02.15.01l.05.05c.08.1.13.23.16.37-.01-.14-.04-.3-.11-.42-.04-.07-.1-.14-.16-.15l-.07.02c-.06.01-.22.04-.2.1Z" fill="#B45F00"/><path d="m89.94 76.87-.26-.06c.19.2.4.42.42.7a.3.3 0 0 1-.02.18c-.16.4-1.26-.21-1.61-.44-.57-.36-.98-.78-.72-1.14.18-.23.38-.4.62-.51.33-.16.73-.2 1.1-.16h.02c.54.06 1.12.32 1.52.68l-.41.33.22.27-.88.16Z" fill="#D58500"/><path opacity=".36" d="m89.94 76.9-.25-.07c.18.2.4.42.41.7a.3.3 0 0 1-.02.18c-.16.4-1.26-.21-1.6-.44-.31-.2-.58-.4-.7-.61.11-.01.22-.05.33-.14.24-.19.28-.54.21-.87l.06-.03c.33-.16.72-.2 1.1-.16h.01c.52.05 1.08.29 1.48.63l-.45.36.24.29-.81.15Z" fill="#B45F00"/><path opacity=".36" d="m89.93 76.85-.25-.06c.19.2.4.42.41.7v.02s-.54-.49-1.05-.86c-.2-.14-.7-.42-.7-.42-.04-.03-.04-.11.01-.14.05-.05.12-.05.18-.04.45.06.1.02.57-.25.2-.1.43-.15.66-.12.1.02.13-.15.02-.19.43.11.86.32 1.18.6l-.4.32.26.31-.89.13Z" fill="#B45F00"/><path opacity=".36" d="m90.02 76.86-.08.01-.24-.07c-.22-.25-.57-.68-.79-.84.45.21.8.54 1.1.9ZM89.14 77.3c.02.1.2-.03.23-.06.04-.03.09-.06.15-.05.04 0 .07.02.1.04.13.09.24.2.33.33a1.3 1.3 0 0 0-.32-.42c-.05-.05-.14-.1-.22-.09-.02 0-.06.01-.07.04-.05.03-.2.14-.2.22Z" fill="#B45F00"/><path d="M91.37 76.28c-.02.02-.03.05-.03.07l-.5.09-.26-.07c.18.2.4.42.41.7a.3.3 0 0 1-.02.19c-.16.4-1.26-.21-1.61-.44-.56-.36-.98-.78-.71-1.14.17-.24.38-.4.61-.52.33-.15.73-.2 1.1-.15h.02c.54.06 1.12.32 1.52.67l-.4.34.1.13h-.02l-.04.02-.1.02c-.05 0-.06.05-.07.1Z" fill="#D58500"/><path opacity=".36" d="M91.37 76.28c-.02.02-.04.05-.03.07l-.5.09-.26-.07c.18.2.39.42.41.7.01.06 0 .12-.02.19-.16.4-1.26-.21-1.61-.44-.3-.2-.57-.4-.7-.62.12 0 .23-.05.34-.13.24-.2.28-.54.21-.87.02 0 .04-.03.06-.04.33-.15.72-.2 1.1-.15h.01c.52.04 1.08.28 1.48.62l-.45.36.14.18h-.02l-.08.02c-.06 0-.07.05-.08.1Z" fill="#B45F00"/><path opacity=".36" d="M91.4 76.2c-.05.02-.1.08-.08.13l-.49.09-.26-.07c.2.2.4.42.42.7v.02s-.55-.48-1.05-.86c-.2-.14-.7-.42-.7-.42-.05-.02-.04-.1.01-.14.05-.05.11-.04.17-.04.46.07.1.02.58-.24.2-.1.43-.16.66-.13.1.02.13-.15.02-.18.42.1.85.32 1.17.6l-.39.32.14.17c-.06.02-.12.03-.17.06-.01 0-.02 0-.02-.02Z" fill="#B45F00"/><path opacity=".36" d="m90.9 76.43-.08.01-.24-.07c-.22-.25-.58-.68-.8-.84.46.2.83.51 1.11.9ZM90.04 76.85c.02.1.19-.04.22-.07a.21.21 0 0 1 .15-.05l.1.04c.13.1.24.21.33.33a1.3 1.3 0 0 0-.31-.41c-.06-.05-.15-.11-.23-.1-.02 0-.06.02-.07.04-.05.05-.2.16-.2.22Z" fill="#B45F00"/><path d="m93.1 75.72-1.31.37c-.11-.04-.24-.07-.39-.1.24.51 0 1.07-.23 1.16-.13.07-.43.06-.83-.93-.44-1.12-.07-1.44.95-1.4.7.03 1.48.4 1.81.9Z" fill="#D58500"/><path opacity=".36" d="m93.09 75.73-1.32.36a2.97 2.97 0 0 0-.38-.1c.23.52-.01 1.08-.24 1.17-.12.06-.43.05-.83-.94-.04-.09-.08-.18-.1-.26.62.15.45-.76.36-1.07.17-.05.41-.06.68-.06h.02c.1 0 .18 0 .26.02.21.03.4.1.6.17l.14.05.16.09.23.15.28.24.14.17Z" fill="#B45F00"/><path opacity=".36" d="M90.69 76.49c-.03.07.16.02.2.03.06 0 .1 0 .15.03l.06.07c.07.13.1.27.1.4.01-.16 0-.3-.03-.45-.02-.08-.06-.15-.12-.18h-.08c-.06.02-.24.03-.28.1Z" fill="#B45F00"/><path d="m95.65 76.93-1.73 1.44c-.65-.02-1.78.07-2.18-.37.27-.24.85-.91 1.13-1.13.48-.4 1.13-.47 1.72-.64.1-.02.17-.04.26-.08.11.14.24.25.35.37.13.16.29.3.45.4Z" fill="#D58500"/><path opacity=".36" d="m95.65 76.93-1.73 1.44c-.65-.02-1.78.07-2.18-.37.27-.24.85-.91 1.13-1.13.48-.4 1.13-.47 1.72-.64.1-.02.17-.04.26-.08.11.14.24.25.35.37.13.16.29.3.45.4Z" fill="#B45F00"/><path d="M92.37 78.79c.05.13.02.28-.06.38-.1.1-.23.13-.37.16-.16.01-.33.05-.48.08l-.53.1a4.61 4.61 0 0 1-1.82-.46l-.03-.07c-.11-.22-.13-.5-.18-.75-.06-.25-.16-.51-.39-.64.07-.16.24-.2.4-.23.1-.02.2-.02.28 0 .15.05.26.19.36.33.11.16.19.32.25.51.03.05.04.11.09.14.05.03.1.04.15.03.2 0 .4 0 .6-.07.2-.06.4-.19.61-.21.35-.06.7.13.93.38.1.08.19.2.2.33v-.01Z" fill="#D58500"/><path opacity=".36" d="M92.38 78.81c.05.13.02.28-.06.38-.1.1-.24.13-.37.16-.16.01-.33.05-.49.09-.17.03-.35.05-.52.09-.27.06-.85-.1-1.27-.23l.05-.07c.22-.4.08-.9-.1-1.3a1.98 1.98 0 0 0-.38-.54c.13.06.22.18.3.3.12.16.2.32.26.51.03.06.04.11.09.14.05.03.11.04.15.03.2 0 .4 0 .59-.06.2-.07.4-.2.62-.22.35-.06.7.13.93.38.1.08.19.2.2.35Z" fill="#B45F00"/><path d="M88.96 78.04c-.04-.02.13-.11.15-.16.02-.06-.04-.17-.08-.24a.4.4 0 0 0-.13-.14c.15.05.28.15.3.3.01.02.02.04 0 .06-.01.03-.03.03-.05.05-.03.05-.15.16-.2.13Z" fill="#B45F00"/><path d="M114.65 67.82c6.23-.42 12.13-.32 8.4 1.51-.56.29-1.64.02-2.08.44-.54.5-1.15.93-1.78 1.3a27.84 27.84 0 0 1-4.73 2.13c-.28.1-16.05 4.46-18.6 4.78-.76-.43-1.04-2.19-1.05-2.97.24-.4 3.09-2.17 5.65-3.69 3.97-2.38 3.3-2.8 14.2-3.5h-.01Z" fill="#464558"/><path opacity=".48" d="M108.33 68.77c-.01.04-.02.08-.06.11-.18.18-.5.05-.72.12a.6.6 0 0 0-.17.07h-.02c.43.14.83.37 1.13.72.05.07.1.13.09.22-.04.1-.2.12-.31.09-.47-.14-.82-.51-1.27-.72a2.04 2.04 0 0 0-.5-.16c-.06-.02-.49-.03-.3-.17.04-.03.1-.04.15-.05.65-.1.92-.36 1.53-.44.14 0 .28-.02.4.06.04.03.1.08.04.15Z" fill="#2B2B37"/><path opacity=".48" d="M123.08 69.27c-.56.28-1.63.01-2.08.43-.54.5-1.16.94-1.78 1.32a27.84 27.84 0 0 1-4.73 2.11c-.28.1-16.05 4.47-18.6 4.78-.77-.42-1.04-2.18-1.05-2.96.14-.26 1.49-1.14 3.13-2.16.03.16.08.29.13.42.41.98 1.53.9 2.37.58a5.24 5.24 0 0 0 2.77-2.69c.27-.54.43-1.2.66-1.8 1.63-.7 3.77-1.04 9.69-1.45l-.15.1c-.5.33-1.2.76-1.37 1.38-.14.58.4.99.9 1.02.82.04 1.64-.56 2.27-1.02.45-.34.88-.71 1.36-1a7.07 7.07 0 0 1 1.73-.72c4.56-.11 7.69.26 4.76 1.66Z" fill="#2B2B37"/><path opacity=".48" d="M122.44 69.45c-.54.05-1.15 0-1.47.3-.54.5-1.16.93-1.78 1.31a27.8 27.8 0 0 1-4.73 2.12c-.28.1-16.05 4.47-18.6 4.78-.77-.42-1.05-2.18-1.05-2.97a12 12 0 0 1 2.06-1.48c-.01.43.1.87.35 1.24.55.87 1.54.94 2.48.84a6.2 6.2 0 0 0 3.36-1.36 5 5 0 0 0 1.14-1.3c.27-.5.39-1.09.62-1.62a2.9 2.9 0 0 1 1.44-1.53c.83-.38 1.62-.2 2.34.25.5.31.97.65 1.52.88.62.25 1.3.39 1.96.46 1.34.18 2.73.1 4.02-.3.83-.26 1.63-.66 2.45-1a8.1 8.1 0 0 1 3.07-.74c.29 0 .56.04.82.12Z" fill="#2B2B37"/><path d="M98.75 77.15c-.94.26-3.54 1.1-3.93.99-.95-.28-.99-2.7-.87-3.07.35-1 2.72-1.9 2.82-1.9-.62.4-.7 1.54-.14 2.6.54 1.01 1.46 1.6 2.12 1.38Z" fill="#575770"/><path opacity=".48" d="M98.74 77.13c-.93.26-3.54 1.1-3.93 1-.3-.08-.51-.42-.66-.83a.66.66 0 0 0 .34-.4c.1-.22.08-.48.13-.72.07-.32.25-.52.63-.34.11.06.2.16.32.2.13.03.17.04.3 0 .2-.07.45-.18.62-.28l.1-.08c0 .03.03.05.04.09.54 1.01 1.46 1.6 2.11 1.36Z" fill="#464558"/><path d="M95.1 77.78c0-.02.1-2.37 1.01-3.56.05-.05.04-.1 0-.14-.06-.05-.12-.03-.15.01-.96 1.24-1.04 3.56-1.04 3.67.01.05.04.09.1.1l.02-.01c.06-.01.09-.06.07-.07Z" fill="#2B2B37"/><path d="M97.22 77.1c.01-.05-.02-.1-.08-.1-1.43-.24-2.76-2.08-2.76-2.1-.05-.05-.1-.08-.15-.03-.05.05-.06.1-.03.15.06.07 1.37 1.93 2.88 2.17l.04-.01c.03-.01.07-.04.1-.08Z" fill="#2B2B37"/><path d="M104.17 69.45c.1.1.31.13.43.2.14.1.26.17.4.2.12.04.24.03.36.03.39-.05.77-.25 1.03-.55a.16.16 0 0 0 .06-.1c.02-.1-.1-.16-.19-.2a4.44 4.44 0 0 0-.92-.26 1.6 1.6 0 0 0-.8.03c-.2.08-.63.46-.37.64Z" fill="#464558"/><path opacity=".48" d="M104.17 69.45c.1.1.31.13.43.2.14.1.26.17.4.2.12.04.24.03.36.03.39-.05.77-.25 1.03-.55a.16.16 0 0 0 .06-.1c.02-.1-.1-.16-.19-.2a4.44 4.44 0 0 0-.92-.26 1.6 1.6 0 0 0-.8.03c-.2.08-.63.46-.37.64Z" fill="#2B2B37"/><path d="M104.69 68.93c.12.01.28.12.29.24 0 .06-.04.11-.07.16a.23.23 0 0 1-.14.09c-.12.02-.23.05-.33-.01-.08-.04-.16-.19-.1-.28.05-.1.22-.21.35-.2ZM93.28 103.29c-3.52.36-4.85.1-5.53-.32-.98-.62-.49-1.05-.31-1.17-.22.03-.55-.57.18-.84.7-.26 1.63.27 3.02-.24.4-.28.77-.63 1.07-1.02.29-.36.54-.78.93-1 .63-.36 1.44-.08 2.07.31.94.57 1.29.98 1.78 1 0 0 2.98-2.45 8.04-4.66 1.97.79 2.61 3.96 2.22 5.97-.9.45-.17.6-13.48 1.96Z" fill="#464558"/><path d="M88.56 103.24a2.16 2.16 0 0 1-.77-.3c-.84-.5-.6-.9-.42-1.08.06 0 .15.03.21.05l-.07.7.88.14c.08.16.12.33.17.48Z" fill="#323147"/><path d="M106.76 101.33c-.9.46-.18.59-13.46 1.95-3.52.36-4.85.1-5.53-.32a1.77 1.77 0 0 1-.5-.43 4.12 4.12 0 0 0 5.1-3.63c.08-.08.17-.14.28-.2.63-.36 1.44-.08 2.07.31.93.57 1.28.98 1.77 1l.31-.24c1.56.74 3.64.59 4.76-.77a6.2 6.2 0 0 0 1.04-2.75c.6-.3 1.25-.6 1.93-.9 1.97.79 2.62 3.96 2.23 5.98Z" fill="#323147"/><path d="M91.84 99.72c.13-.13.28-.08.23.13a.76.76 0 0 1-.33.45c-.03.03-.11.05-.14 0-.03-.04-.03-.06-.02-.1a.8.8 0 0 1 .26-.48ZM101.67 97.71a.7.7 0 0 1-.27.28 1.7 1.7 0 0 1-.38.2c-.13.05-.3.09-.44.04a.5.5 0 0 1-.12-.1c-.05-.08 0-.22.06-.31.1-.17.24-.28.38-.39.17-.14.51-.23.7-.09.1.08.14.23.07.37Z" fill="#575770"/><path d="M121.22 99.76c-2.59.52-6.66 1.97-9.66 1.64a4.36 4.36 0 0 0-1.88.19c-.8.25-1.49.5-2.33.36-.69-.11-1.5-.22-2.17.03-.65-.2-1.2-.53-1.6-.97-1.07-1.16-1.7-5.05-1.7-6.64-.01-.38.03-.76.14-1.1a4.2 4.2 0 0 1 1.2-1.66c1.87-1.78 4.77-1.19 7.1-.75a11.66 11.66 0 0 1-3.08-1.1 4.17 4.17 0 0 1-2.02-2.6c-.85-3.94 3.86-5.3 6.58-4.5 11.15 3.24 16.17 3.02 18.07 6.76 1.58 3.07.61 8.5-8.65 10.34Z" fill="#464558"/><path opacity=".48" d="M121.16 99.73c-1.05.2-2.52.6-4.17 1.03-.94.12-1.88.24-2.85.27-1.1.04-2.24-.1-3.32.23v-.02l-1.44.38-.73.07c-.4.05-.8.16-1.19.2l-.61-.41-1.35.1.08.3c-.16 0-.31.04-.46.1a3.56 3.56 0 0 1-1.56-.96c-1.06-1.16-1.7-5.05-1.7-6.64 0-.39.03-.76.14-1.1a4.2 4.2 0 0 1 1.2-1.66c1.87-1.78 4.77-1.2 7.1-.75l-.85-.22a40 40 0 0 0 1.54.11c.68.04 1.36.03 2.02-.1.22-.04.42-.1.63-.17.38-.14.4-.25.78-.07.29.14.28.22.49.42.81.77 1.85.63 2.87.75.83.09 1.62.32 2.3.86.52.43.96.94 1.53 1.26.97.56 2.23.8 3.3.7 2.29-.19 3.57-1.64 4.74-3.6.16-.29.32-.58.43-.91 1.16 3.14-.05 8.1-8.92 9.83Z" fill="#2B2B37"/><path opacity=".48" d="M103.58 101.03c-1.06-1.16-1.7-5.04-1.7-6.64 0-.38.04-.75.14-1.1a4.2 4.2 0 0 1 1.2-1.65c1.67-1.6 4.14-1.3 6.33-.91a10.73 10.73 0 0 0-1.06 3.42 5.72 5.72 0 0 0-1.48 3.78 5.86 5.86 0 0 0 1.6 3.95c-.4.1-.82.12-1.26.06-.7-.11-1.5-.22-2.17.02-.67-.2-1.2-.5-1.6-.92Z" fill="#2B2B37"/><path d="M105.22 87.16c-.85-3.93 3.86-5.3 6.58-4.5 1.25.36 2.43.67 3.54.95a17.64 17.64 0 0 0-5.21 7.2c-1-.25-2-.52-2.9-1.06a4.16 4.16 0 0 1-2.01-2.6v.01Z" fill="#575771"/><path opacity=".48" d="m130.37 90.75.01.1.03.2v.13c.24 3.12-1.47 7-9.16 8.53-2.6.52-6.66 1.97-9.66 1.65a4.35 4.35 0 0 0-1.88.18c-.8.26-1.49.5-2.33.36-.69-.1-1.5-.22-2.17.03-.65-.2-1.2-.53-1.6-.97-.2-.2-.36-.48-.5-.82a9.05 9.05 0 0 0 4.8 1.18c1.47 0 3-.14 4.45-.43 1.97-.4 3.85-1.22 5.84-1.67 1.42-.33 3.23-.58 4.38-1.58.39-.35.64-.78.64-1.33.01-.25-.1-.5-.1-.75.03-.8.65-.9 1.25-.95.68-.05 1.37.08 2.04-.02a4.7 4.7 0 0 0 1.89-.8c6.97-4.56-6.03-8.15-8.47-5.05-.35.44-.59 1.12-1.15 1.16-.18 0-.33-.05-.5-.1-1.4-.3-2.67.93-3.22 2.3-.27.62-.44 1.33-.78 1.89.45-.02.92-.02 1.4-.05 2.06-.1 4.05-.71 6-1.34l1.17-.37c.37-.12.77-.25 1.12-.42.2-.1.41-.24.65-.27.23-.03.52.07.61.31.13.32-.13.62-.37.8-.27.17-.57.3-.86.34-.37.06-.74.04-1.11.08-.4.06-.77.2-1.14.35-.7.27-1.4.56-2.1.8-.5.14-1.01.3-1.53.32-1.06.1-2.18-.23-3.2.11-.99.36-1.1.83-2.67.54-2.2.2-4.17-1.44-6.19-.88-.5.13-.94.39-1.39.66-.55.34-1.53 1.33-2.46 1.79-.17-.96.3-2.51-.24-2.42 0-.38.04-.75.15-1.1a4.2 4.2 0 0 1 1.2-1.65c1.87-1.78 4.76-1.2 7.1-.75a11.65 11.65 0 0 1-3.09-1.11c-.34-.2-.69-.48-1-.78-.13-.15-.28-.3-.4-.47-.09-.13-.17-.23-.24-.36l-.1-.18a2.82 2.82 0 0 1-.29-.78l-.05-.34a.24.24 0 0 0 0-.11l-.03-.2c-.01-.06 0-.1 0-.14v-.31a37.7 37.7 0 0 1 5.98-3.57l.34.06.04.02.32.09c11.15 3.24 16.18 3.02 18.08 6.75.2.42.37.87.49 1.33Z" fill="#2B2B37"/><path opacity=".48" d="M118.88 84.46a6.5 6.5 0 0 1-.78 3.02 10.94 10.94 0 0 1-3.74 3.74 16.78 16.78 0 0 1-4.7 1.95c-.97.23-1.93.34-2.91.39-.05-.01-.08 0-.14 0-.84.05-1.67.04-2.5.06-.26 0-.27.42 0 .43.58 0 1.14 0 1.72-.03l-3.7.9c0-.36-.05-.6-.27-.57 0-.38.04-.75.15-1.1a4.2 4.2 0 0 1 1.2-1.65c1.88-1.78 4.77-1.2 7.1-.76-1.06-.27-2.13-.54-3.08-1.1-.35-.21-.69-.48-1-.78-.13-.15-.29-.3-.4-.48-.1-.12-.17-.22-.24-.35l-.1-.18a2.88 2.88 0 0 1-.3-.79l-.04-.33-.01-.12c-.02-.07-.01-.14-.02-.2-.02-.05 0-.1-.01-.13v-.17l.01-.14a37.76 37.76 0 0 1 5.97-3.58c.13.04.24.05.34.07.02 0 .03.02.05.01l.32.1c2.65.77 5.02 1.33 7.08 1.8Z" fill="#2B2B37"/><path d="M124.77 91.57c.07.09.12.22.14.38.03.8-1.27.6-1.7.63-3.47.24-4.42 1.72-6.32 1.7-1.18 0-2.32-.22-3.45.03-.31.07-.6.15-.88.27-.28.1-.53.32-.81.42-.2.06-.31.05-.45-.13-.2-.28-.28-.5-.58-.68a1.95 1.95 0 0 0-.84-.24c-.57-.02-1.12.14-1.67.18-.4.02-.81.01-1.19-.15-.24-.1-.6-.3-.65-.6-.07-.58.69-.82 1.17-.85 0-.06.1-.12.15-.05 1.34 1.43 3.6 1.62 5.35 1.47.85-.08 1.71-.2 2.57-.33 6.41-.91 3.22.13 6.65-1.49.68-.32 1.4-.62 2.16-.59l.34.03Z" fill="#2B2B37"/><path d="M55.83 120.06c-3.25 1.38-4.54 1.58-5.28 1.45-1.05-.17-.67-.68-.54-.83-.19.08-.64-.3-.02-.74.6-.41 1.6-.29 2.78-1.13.33-.36.59-.75.8-1.18.18-.38.33-.82.66-1.14.54-.5 1.39-.52 2.08-.4 1.04.15 1.46.38 1.95.24 0 0 2.44-3.08 7.16-6.78 2.25-.03 3.58 2.53 3.58 4.43-.85.7-.07.58-13.17 6.08Z" fill="#464558"/><path d="M51.36 121.54a3 3 0 0 1-.79-.01c-.88-.18-.76-.54-.63-.75.08-.02.14-.03.22-.03l.09.59.83-.16c.1.11.19.22.28.36Z" fill="#323147"/><path d="M69 113.96c-.86.71-.08.58-13.15 6.1-3.26 1.38-4.55 1.57-5.28 1.45-.3-.04-.45-.12-.57-.2 1.39-.04 4.33-1.56 4-4.56.07-.08.15-.18.23-.25.54-.5 1.39-.53 2.07-.41 1.05.15 1.46.39 1.96.24 0 0 .1-.1.25-.3 1.7.12 3.77-.7 4.63-2.25.24-.46.61-1.83.47-2.75.56-.49 1.16-.98 1.8-1.48 2.24-.03 3.59 2.53 3.59 4.41Z" fill="#323147"/><path d="M53.68 117.6c.1-.16.25-.17.23.03a.8.8 0 0 1-.21.5c-.03.04-.09.07-.13.04-.03-.01-.03-.05-.04-.07a.83.83 0 0 1 .16-.5ZM62.97 112.62a.8.8 0 0 1-.2.35c-.1.1-.23.2-.35.3-.13.1-.28.2-.44.2-.06 0-.1 0-.15-.04-.07-.06-.06-.19-.02-.3.08-.18.2-.32.3-.47.14-.19.46-.38.7-.33.12.02.2.16.16.29Z" fill="#575770"/><path d="M104.83 93.91a9.02 9.02 0 0 1-1.98 1.9c-5.5 4.29-26.19 15.56-29.4 16.36-.52.13-.86.39-1.17.8-.49.63-1.04.97-1.8 1.21-.75.25-1.72.34-2.49.7a.38.38 0 0 1-.39-.01 4.57 4.57 0 0 1-1.4-1.34c-.9-1.3-1.45-2.39-1.7-3.28.7-.64.9-1.67 1.72-2.23.45-.33 1.02-.53 1.39-.95.29-.33.44-.85 1.31-1.68 2.3-2.2 11.13-5.97 12.06-6.63 2.09-1.47 2.5-2.61 2.69-2.89.55-.89 1.43-1.52 2.25-2.19a52.22 52.22 0 0 0 3.03-2.71c.4-.37.86-.63 1.29-.99.5-.4 1-.82 1.53-1.2 1.56-1.1 1.53-2.2 3.1-3.34.86-.6 1.66-1.55 2.73-1.74 3.23-.6 5.63 2.92 6.8 4.8.97 1.56 1.74 3.55.43 5.41Z" fill="#464558"/><path opacity=".25" d="M104.82 93.9a9.07 9.07 0 0 1-1.97 1.9c-5.5 4.28-26.2 15.55-29.41 16.35-.52.13-.85.39-1.16.8-.5.63-1.05.97-1.8 1.22-.75.24-1.73.33-2.5.7a.38.38 0 0 1-.38-.02 4.57 4.57 0 0 1-1.4-1.33 11.6 11.6 0 0 1-1.7-3.29c.42-.38.65-.89.95-1.36.35 1.22 1.32 2.9 2.78 2.94 1.56.02 2.88-1.56 2.76-2.87-.13-1.3-1.29-2.85-.22-4.27.83-1.09 2.74-.94 3.64-.4.77.43 2.3 2.08 3.38.66.44-.58.38-1.34.45-1.94.17-1.29 1.15-1.88 2.51-1.84 2.16.08 3.83.95 6.22.15 2.3-.76 4.34-2.52 5.57-4.5 2.03-3.23 2.61-7.62.6-10.21.58-.37 1.17-.74 1.73-1.14.86-.61 1.66-1.56 2.73-1.75 3.23-.6 5.63 2.92 6.8 4.81.97 1.55 1.74 3.54.42 5.39Z" fill="#2B2B37"/><path opacity=".25" d="M104.87 93.95a9 9 0 0 1-1.97 1.9c-5.5 4.28-26.2 15.55-29.41 16.35-.52.13-.85.39-1.16.8-.5.63-1.04.97-1.8 1.22-.75.24-1.72.33-2.5.7a.37.37 0 0 1-.38-.02 4.52 4.52 0 0 1-1.4-1.33 11.58 11.58 0 0 1-1.7-3.3c.13-.1.24-.25.35-.4.48 1.94 1.98 3.54 4.31 3.22 1.99-.27 3.06-1.92 3.27-3.58.1-.89-.1-1.64-.35-2.45-.16-.49-.4-1.09-.17-1.66.27-.77 1.23-1.4 1.99-1.06 1.27.55 1.76 3.02 3.76 2.26 1-.38 1.3-1.31 1.75-2.08.9-1.53 2.22-1.35 3.6-1.02 2.54.62 5.24-.87 7.35-2.74a19.2 19.2 0 0 0 4.58-6.57 28.3 28.3 0 0 0 2.3-7.65c.1-.9.2-1.87.12-2.8l.2-.04c3.22-.6 5.62 2.92 6.8 4.8.95 1.56 1.73 3.55.46 5.44Z" fill="#2B2B37"/><path d="M50.01 120.7c-.1.06-.37-.12-.3-.38.02.04.05.07.08.08.16.1.62 0 .62 0l-.51.44a.39.39 0 0 1 .11-.14Z" fill="#323147"/><path d="M50.92 120.06c.33.2-.21.77-.21.77s-.22.4-.4.45c-.55.2-.86-.48-.03-1.2 0 0 .34-.22.64-.02Z" fill="#464558"/><path d="M115.3 89.73c-.04 1.8-1.33 3.48-6.05 5.5-3.33 1.86-7.73.31-9.2-1.47-7.45-8.96-6.54-20 4.04-17.3 1.24.31 1.73 2.09 2.81 2.88 1.77 1.28 4.37 1.44 5.63 3.23.56.83.74 1.84.78 2.84.34-.74.74-1.43 1.25-1.74 1.1-.69 1.65.24 1.93 1.17.53 1.77.64 3.3-1.2 4.9v-.01Z" fill="#575770"/><path opacity=".25" d="M115.3 89.73c-.04 1.8-1.33 3.48-6.05 5.5-3.33 1.86-7.73.3-9.2-1.47-3.48-4.18-5.13-8.83-4.82-12.32 1.17-1.12 3.3-.87 4.87-1.78 1.24-.71 2.44-2.25 1.45-3.58.55.02 1.17.09 1.8.21.07 0 .1.02.15.03.06 0 .13.03.2.04l.4.1c1.23.31 1.72 2.09 2.8 2.88 1.77 1.28 4.37 1.44 5.63 3.23.56.83.74 1.84.78 2.84.34-.74.74-1.43 1.26-1.74 1.1-.69 1.65.24 1.93 1.17.52 1.77.63 3.3-1.2 4.89Z" fill="#2B2B37"/><path opacity=".25" d="M115.27 89.73c-.03 1.8-1.32 3.48-6.04 5.51a6.6 6.6 0 0 1-2.2.74c-1.66-2.73-2.83-5.85-2.65-9.06.13-2.39 1-6 3.43-7.05 1.65.84 3.67 1.2 4.72 2.7.56.83.74 1.84.78 2.84.34-.74.74-1.43 1.26-1.74 1.1-.69 1.65.24 1.93 1.17.52 1.77.63 3.3-1.23 4.9Z" fill="#2B2B37"/><path opacity=".25" d="M108.15 80.06c1.59.7 3.37 1.11 4.36 2.51.56.83.74 1.84.78 2.84.34-.74.74-1.43 1.26-1.74.14-.1.27-.14.38-.19.2.4.37.85.48 1.31.4 1.5.87 4.28-1.32 4.53-.79.1-1-.47-1.6-.78-.23-.11-.57-.28-.82-.15-.7.4-.02 1.88.04 2.44.08.73-.02 2.39-1.16 1.93-.42-.17-.75-.6-1.02-.93-.53-.64-.99-1.37-1.37-2.1a10.58 10.58 0 0 1-1.14-6c.13-1.27.33-2.67 1.13-3.66Z" fill="#2B2B37"/><path d="M126.75 70.72c.33 4.61-3.08 9.56-7 12.79a30.34 30.34 0 0 1-6.82 4.08l-.03-.15-.74.16.01.04c-.7-.34-1.38-.71-2.02-1.2-1-.78-1.9-1.7-2.88-2.5-1.22-.98-2.26-2.21-2.54-3.8-.15-.84-.24-1.75-.2-2.63 3.23-4.36 7.66-5.64 10.6-7.55 4.43-2.88 7.99-3.43 9.41-3 1.05 1.22 2.12 2.12 2.21 3.76Z" fill="#575770"/><path d="m119.25 69.11-1.33-.72c.35-.18.68-.33 1.01-.47.39 0 .83 0 1.33-.02l.38 1.76c-.58-.08-.87-.28-1.39-.55Z" fill="#464557"/><path opacity=".48" d="M112.14 87.56v.04c-2.56-1.3-6.95-4.88-7.41-7.46-.14-.84-.24-1.75-.2-2.63.44-.62.9-1.2 1.37-1.75.15 3.76-.86 10.2 10.23 9.9l.58-.04a33.7 33.7 0 0 1-3.76 1.95l-.04-.17-.75.16h-.02Z" fill="#2B2B37"/><path opacity=".48" d="M126.78 70.95c.18 4.55-3.16 9.38-7.02 12.54a30.9 30.9 0 0 1-6.85 4.09l-.04-.17-.62.13.02.1c-.74-.35-1.45-.74-2.1-1.24-1-.78-1.91-1.7-2.9-2.5-1.21-.98-2.25-2.21-2.53-3.8-.13-.67-.2-1.4-.22-2.1.4.12.9-.13 1.28.1.21.14-1.9.03-.2-1.22 5.96-4.44 9.64-3.42 11.53-2.17 4.53 3 4.08.57 3.36-.81a8.86 8.86 0 0 1-1.07-3.05c-.09-.7-.16-2.42.57-2.87.47-.26.6.2.8.52.27.48.7.8 1.05 1.2.44.54.65 1.24.8 1.91l.07.35.02-.02c.38-1.15 3.51.07 4.05-.98Z" fill="#2B2B37"/><path opacity=".48" d="M125.15 77.1a22.21 22.21 0 0 1-5.39 6.4 30.81 30.81 0 0 1-6.83 4.1l-.04-.22-.66.14.03.14a9.92 9.92 0 0 1-2.08-1.23c-1-.78-1.9-1.69-2.89-2.49-.22-.2-.47-.38-.67-.6a5.43 5.43 0 0 1 2.67-1.55c1.6-.37 2.5.4 3.86 1 1.85.81-3.12-13.46 6.03-5.93 2.08 1.71 4.6.94 5.97.24Z" fill="#2B2B37"/><path d="M120.2 71.1c.46-.46 1.36.9 1.36.9 2.34 2.04 3.24 4.07 3.32 5.27.08 1.31-.64 2.11-1.44 2.43.48-4.6-3.23-8.6-3.23-8.6ZM119.88 76.59a3.28 3.28 0 0 0 1.63-1.34c.03-.05.02-.13-.03-.16s-.13-.01-.16.04a3.15 3.15 0 0 1-1.5 1.25c-.06.01-.09.08-.08.14.04.05.08.08.14.07.01 0 .01 0 0 0ZM106.14 75.48c-.7 4.4-.02 6.07 1.12 7.56 2.35 3.11 6.1 3.55 8.09 3.3.49-.06-1.9 1.69-4.49 1.5-3.86-.3-9.08-3.4-6.85-10.44a7.32 7.32 0 0 1 1.42-1.6c.06.01.1-.02.13-.05.1-.08.2-.2.25-.31.04-.1.35.02.33.04Z" fill="#2B2B37"/><path opacity=".32" d="M104.06 82.48a6.75 6.75 0 0 1-.43-2.95c.25-.02.6.15.82.06.11-.04.15-.15.24-.2.32-.16.55-.25.9-.24h.16c.1 1.4.48 2.34 1 3.14l-.05.07c-.39.8-1.2.68-1.97.32a1.9 1.9 0 0 0-.67-.2Z" fill="#464558"/><path d="M95.55 94c1.21-.46-1.78-5.98-1.78-5.98l-.54.69-.36 1.05c-.43.73 1.45 4.73 2.68 4.24Z" fill="#464558"/><path d="M26.2 113.75c.12.08.28.19.46.29.2.12.4.22.62.33.23.11.45.2.67.28.24.09 1.7-.29 4.26-1.1 13.59-4.36 34.9-13.53 49.16-20.07l.2-.09.2-.1a3.19 3.19 0 0 1 .4-.2l-1.21-1.99c-.8.38-1.54.74-2.3 1.08-15.29 7.2-28.14 12.7-43.88 18.36-2.72.97-5.63 2-8.8 3.1 0 0 .07.07.22.11Z" fill="#D8D8D8"/><path d="M47.61 107.95a255.1 255.1 0 0 1-15.43 5.62c-2.57.82-4.02 1.2-4.27 1.1a5.53 5.53 0 0 1-.66-.27l-.62-.33-.46-.29-.22-.13c3.2-1.1 6.11-2.13 8.8-3.1 4.43-1.59 8.64-3.16 12.71-4.78.08.72.15 1.43.15 2.18Z" fill="#F3F3F3"/><path d="M32.18 113.57c-2.57.82-4.02 1.2-4.27 1.1a5.53 5.53 0 0 1-.66-.27l-.62-.33c-.19-.12-.35-.2-.46-.29l-.22-.13a706.3 706.3 0 0 0 8.74-3.07 50.5 50.5 0 0 1-1.44 2.62c-.36.12-.71.23-1.07.37ZM50.94 106.62c-2.16.85-4.28 1.7-6.33 2.48.3-.83.59-1.66.79-2.51a381.6 381.6 0 0 0 6.62-2.63c-.16.38-.33.74-.47 1.11l-.61 1.55ZM63.1 101.56c-2.16.93-4.35 1.85-6.52 2.75.12-.3.26-.59.37-.9.2-.54.34-1.12.48-1.7 2.28-.95 4.53-1.94 6.82-2.95-.3.9-.73 1.78-1.07 2.6-.03.06-.06.11-.08.2ZM75.92 95.91c-2.95 1.33-6.06 2.71-9.28 4.1.25-.53.5-1.04.71-1.57.16-.38.26-.8.36-1.23 3-1.34 6.06-2.75 9.2-4.22-.27.83-.52 1.65-.8 2.46a2.9 2.9 0 0 1-.19.46ZM82.12 93.1a3.18 3.18 0 0 1-.4.2l-.2.1-.2.1-4.68 2.12c.35-.99.63-1.98.98-2.94.35-.18.68-.33 1.03-.49l2.29-1.08 1.18 1.99Z" fill="#fff"/><path d="m80.9 91.12-.2.1-.2.1-.2.1-.2.1c-7.94 3.63-15.2 6.8-21.62 9.5a496.92 496.92 0 0 1-16.68 6.69c-4.63 1.75-15.56 5.67-15.84 5.8-.03.04-.02.08.02.09.25.09 2.54-.9 5.09-1.7 2.55-.82 6.22-2.25 10.85-4a485.73 485.73 0 0 0 16.64-6.67c6.4-2.7 13.64-5.87 21.56-9.5l.2-.09c.06-.01.14-.05.21-.08.05-.04.13-.07.2-.1.05-.04.13-.07.2-.11l-.03-.24Z" fill="#A4A4A4"/><path d="M82.98 95.21a1.92 1.92 0 0 1-.52-.35 6.5 6.5 0 0 1-1.15-1.6 8.55 8.55 0 0 1-.58-1.28 7.64 7.64 0 0 1-.38-1.25 5.5 5.5 0 0 1-.1-1.07c0-.3.05-.56.16-.74l.04-.07c.02-.02.01-.04.04-.07l.07-.06c.04 0 .06-.03.08-.03l-.7.3c-.05 0-.06.02-.08.03l-.07.05-.05.07-.04.07c-.1.19-.15.44-.16.75-.02.3.03.68.1 1.06a10.15 10.15 0 0 0 1.55 3.47c.2.26.39.5.56.66.18.17.37.29.53.36.15.06.3.07.43.02l.7-.29c-.1.06-.27.06-.43-.03Z" fill="#D8D8D8"/><path d="M82.08 89.55a4.13 4.13 0 0 0-.68-.68 1.1 1.1 0 0 0-.57-.24.49.49 0 0 0-.41.27c-.1.18-.15.43-.16.74-.02.3.02.68.1 1.07a10.15 10.15 0 0 0 1.66 3.62c.22.3.46.53.67.68.22.16.42.24.58.24.16 0 .3-.08.4-.27.1-.16.16-.43.15-.74 0-.3-.04-.67-.13-1.06-.08-.38-.21-.8-.37-1.23-.17-.43-.35-.87-.58-1.29-.21-.42-.45-.77-.66-1.1v-.01Z" fill="#A4A4A4"/><path opacity=".49" d="M81.69 90.73c.04.23.12.47.18.68.13.38 1.03.16 1.18.48.04-.07.1-.15.17-.22a10.18 10.18 0 0 0-.93-1.78c-.25.31-.41.51-.6.84Z" fill="#4D4D4D"/><g opacity=".41" fill="#D8D8D8"><path opacity=".41" d="M82.39 94.81a1.56 1.56 0 0 0 .7.45l.71-.91v-.08c0-.3-.04-.68-.13-1.07l-.08-.36-1.2 1.98ZM81.51 88.98c-.37.43-.8.86-1.22 1.26.03.16.04.31.08.49.07.3.16.63.27.95l1.34-2.21a4.9 4.9 0 0 0-.47-.49Z"/></g><path d="m82.66 93.08-1.04-1.82 12.23-5.17a.49.49 0 0 1 .23-.05c.09 0 .15 0 .21.03l.17.1c.05.06.08.11.1.19l.3 1.02v.2l-.08.2c-.04.08-.1.13-.14.18-.05.05-.12.09-.2.12l-11.78 5Z" fill="#3E5C2E"/><path d="m83.7 91.13-.27-.23-.18-.15-.02.13-.08.43a1.15 1.15 0 0 1-.13-.13l.1.25v.04-.02h.01l.02-.13.08-.41v-.01l.02-.13.18.14.27.22.04.03.05.04-.08-.07Zm-.27-.23-.18-.15-.02.13-.08.43a1.15 1.15 0 0 1-.13-.13l.1.25v.04-.02h.01l.02-.13.08-.41v-.01l.02-.13.18.14.27.22-.27-.23Zm11.44-3.48v-.04h-.01v-.01l-.3-1.03-.01-.03v-.02a.3.3 0 0 0-.06-.1l-.03-.03-.04-.03a.33.33 0 0 0-.08-.05l-.05-.03-.04-.01-.05-.01h-.01a.68.68 0 0 0-.16 0H94l-.08.01h-.02a.36.36 0 0 0-.05.03l-5.99 2.54-.68.3-.09.03-.28.12h-.01l-1.38.59-.36.15-.76.33-.37.15-.26.11-.45.2-.39.16h-.02l-.01.01-.3.13-.03.02-.55.23-.11.05-.19.07 1.04 1.82.9-.38.23-.1h.02l.4-.18.63-.26 4.54-1.94.05-.02.98-.41.1-.05.04-.01.84-.36 1.32-.56.67-.29.28-.12.21-.1h.04l.02-.02.08-.03.15-.07.28-.12c.07-.03.15-.07.2-.12l.1-.12.04-.05.08-.2v-.15Zm-2.82 1.15-.52-.44.19-1 .57.49.15.13-.11.58-.08.41-.2-.17Zm-2.24.31.22-.97.71.59-.18 1.01-.75-.63Zm3.46-1.69.06-.33.08-.45.01-.07.05.04.23.2.48.39-.19 1.07-.08-.07-.68-.57.04-.2Zm-9.44 5.21-.08-.06-.4-.32-.25-.2-.03-.02v-.01l.06-.32v-.02l.02-.13.08-.41v-.01l.02-.13.18.14.27.22.04.03.05.04.13.1.09.07-.03.17-.15.86Zm1.7-.77-.73-.61.05-.34.07-.52c.06-.24.18-.02.79.48l-.17.99Zm1.7-.75-.73-.6.16-.85.73.58-.16.87Zm1.62-.66-.67-.56.05-.26.1-.56.03-.15.23.2.44.37-.1.55-.08.41Zm-5.14.91-.28-.23-.18-.15-.02.13-.08.43a1.15 1.15 0 0 1-.13-.13l.1.25v.04-.02h.01l.02-.13.08-.41v-.01l.02-.13.18.14.27.22.04.03.05.04-.08-.07Z" fill="#74A352"/><path opacity=".37" d="m94.3 86.05.16.11c.05.05.08.1.1.18l.3 1.03v.2l-.08.2c-.04.07-.1.12-.14.17-.05.05-.13.09-.2.12l-.27.13-2.78 1.18c.07-.32.24-.67.41-1l.45.37.18-.99-.15-.13.06-.09c.3-.39.67-.77 1.06-1.1l-.18.97.77.64.2-1.07-.72-.57c.16-.14.33-.26.51-.35l.1-.02a.4.4 0 0 1 .2.03h.01ZM84.3 90.12l-2.68 1.14 1.04 1.82 1.13-.49-.04-.25-.69-.56.19-1.03.54.45v-.06c.11-.43.3-.73.51-1.02Z" fill="#568040"/><path d="M94.03 85.7a.33.33 0 0 0-.15-.04.35.35 0 0 0-.16 0c-.06-.01-.12 0-.17.03l-11.89 5.04-.04.53 12.24-5.21.18-.04c.06-.02.1 0 .16 0s.1.02.15.05c.05.03.1.06.12.1 0-.03-.02-.02-.02-.04-.02 0-.03-.02-.03-.02 0-.02-.02-.01-.02-.03 0-.02-.03-.02-.03-.03-.02 0-.02-.02-.02-.02 0-.02-.03-.01-.03-.03 0-.02-.02-.02-.03-.04l-.02-.01c0-.02-.02-.02-.03-.04 0-.01-.02-.01-.02-.03-.02 0-.03-.02-.03-.02 0-.02-.02-.01-.02-.03-.03-.05-.08-.08-.13-.11Z" fill="#3E5C2E"/><path opacity=".37" d="m83.56 89.96 3.96-1.7c.18.27.5.48.72.56.44.13.9.09 1.32.22.4.14.68.42.86.76l-6.2 2.64-.66-2.48Z" fill="#568040"/><path d="m94.39 86.12.04.02c-.02-.01-.02-.03-.04-.02ZM94.18 86.02c0 .02.02.01.02.01l-.02-.01ZM93.97 86.04l.07-.01h-.02c0-.02-.02-.01-.06.02ZM93.94 86.03l-.09.04c.04-.01.07-.04.1-.04ZM94.16 86.02h-.06.06ZM94.36 86.08l-.02-.02c0 .02 0 0 0 0 0 .02.02.02.02.02Z" fill="#3E5C2E"/><path d="M85.46 93.24a6.38 6.38 0 0 0-1.84-.67 1 1 0 0 1-.58-.34c-.49-.56-.7-1.28-.55-2.35.05-.41.32-1.04.78-.9.35-.51.77-.36.96-.38.01-.05.05-.07.06-.1.44-.52.7-.3.9-.33.04-.01.07-.06.06-.1.02 0 .14-.23.36-.38.67-.28 1.91-.05 2.35.38-.14.1-.76.33-.86.4.14.45-.04.48.38.72.36.18.8.15 1.14.35.28.15.41.48.69.64.4.24.88.08 1.31 0-.24 1.13.38 2.2.62 3.35l-.43.15c-.66.22-1.34.43-2.03.58-1.91.41-2.15-.4-3.32-1.02Z" fill="#D58500"/><path opacity=".36" d="m91.21 93.4-.01-.06-.04-.16v-.01l-.03-.1-.02-.05V93l-.08-.23-.19-.6a6.58 6.58 0 0 1-.13-.46c0-.04-.02-.07-.03-.11l-.02-.12-.03-.15a3.24 3.24 0 0 1-.04-.21l-.01-.12v-.11l-.01-.12v-.32l.05-.26-.23.05h-.05l-.16.04c-.07 0-.14.02-.2.03h-.34a.7.7 0 0 1-.22-.06h-.02l-.01-.01h-.01a.73.73 0 0 1-.15-.1 2.05 2.05 0 0 1-.18-.17l-.09-.1a.34.34 0 0 0-.04-.05 1 1 0 0 0-.3-.27.7.7 0 0 0-.1-.04.86.86 0 0 0-.17-.07 1.8 1.8 0 0 0-.12-.03l-.18-.04a3.66 3.66 0 0 1-.2-.04l-.1-.03-.1-.03c-.03 0-.05-.02-.08-.03a1.35 1.35 0 0 1-.1-.04l-.13-.08a.56.56 0 0 1-.08-.07l-.02-.02-.02-.03-.02-.03-.01-.02v-.01l-.01-.02v-.01l-.01-.06-.01-.06-.01-.05-.01-.08-.03-.1v-.05l-.01-.02v-.02a.8.8 0 0 1 .08-.04l.06-.03.04-.01.04-.02.06-.02.06-.03.08-.03.13-.06.3-.14v-.01l-.02-.02a.52.52 0 0 0-.07-.06.78.78 0 0 0-.14-.1l-.08-.03-.08-.04h-.01l-.16-.07h-.01l-.12-.04a1.55 1.55 0 0 0-.1-.03l-.09-.02a2.18 2.18 0 0 0-.37-.07l-.11-.01h-.51a2.07 2.07 0 0 0-.24.05c.06.19.08.39.05.6a.7.7 0 0 1-.16.4c-.2.18-.35-.06-.43-.32l-.03-.13v-.01l-.02-.08c0 .04-.03.08-.06.08h-.25l-.05-.01h-.06l-.08.01c.02.24.04.5.03.74 0 .14-.02.45-.21.49-.3.06-.34-.51-.32-.82l-.02.02c-.1 0-.23-.03-.38 0 .02.4.02 1.15-.3 1.14-.18 0-.22-.27-.25-.4s-.05-.22-.05-.34c-.07 0-.13-.02-.18 0 0 .32-.04.67-.3.9a.71.71 0 0 1-.27.13 2.39 2.39 0 0 0-.02.36 2.72 2.72 0 0 0 .06.76c.16-.01.38.16.22.36-.03.05-.07.05-.1.06a2.83 2.83 0 0 0 .06.15c.09.19.21.36.34.51.11.14.28.26.46.31l.12.03c.05 0 .1.01.14.03h.02l.2.05a6.6 6.6 0 0 1 2.03.95l.37.27.13.09.06.04.13.08.13.07.1.05.12.04.11.04a4.62 4.62 0 0 0 .38.08l.14.01a3.95 3.95 0 0 0 1.4-.18l.45-.12a23.82 23.82 0 0 0 1.26-.39l.1-.04.25-.08.08-.03-.03-.13Zm-7.5-2.27c-.06.01-.11 0-.17-.04a.25.25 0 0 1-.11-.16v-.03c0-.03 0-.06.03-.1l.07-.07c.03-.05.06-.07.14-.07.03 0 .06 0 .08.02.07.03.12.1.13.18 0 .07 0 .13-.03.18l-.03.03h-.01a.18.18 0 0 1-.1.06Zm1.07-1.03c.06.01.1.03.14.06.17.1.21.27.14.38a.33.33 0 0 1-.2.14h-.13c-.35-.11-.22-.64.05-.58Zm.87-.3c0-.03.03-.06.04-.06.05-.17.32-.33.5-.17.14.13.03.38-.09.46-.2.13-.45 0-.45-.22Z" fill="#B45F00"/><path opacity=".36" d="m87.2 88.92.03.06-.05.07c-.05.11-.2.45-.38.4-.27-.06-.07-.36.07-.44a.9.9 0 0 1 .33-.09Z" fill="#B45F00"/><path opacity=".48" d="M93.7 93.9c-.81.22-1.67.44-2.63.71a.67.67 0 0 1-.4.04c-.29-.05-.49-.33-.63-.6a4.7 4.7 0 0 1-.26-3.52c.07-.16.13-.34.25-.44.08-.08.2-.13.3-.17.22 1.63 1.75 3.08 3.38 3.98Z" fill="#2B2B37"/><path d="M104.48 83.18c2.08 0 6.43-6.06 13.13-5.71 3.98.2 3.09 4.1.66 6.14a14.2 14.2 0 0 1-3.48 2c-2.7 1.21-5.42 2.33-8.2 3.32-.24.09-.49.16-.7.33-3.36 2.63-5.9 2.94-14.82 5.35-.1.05-.26.08-.4.05-.29-.06-.49-.34-.63-.61a4.71 4.71 0 0 1-.26-3.52c.07-.16.13-.33.25-.44.13-.13.3-.17.48-.22 6.92-2.07 5.04-6.6 13.97-6.69Z" fill="#464558"/><path opacity=".48" d="M104.48 83.18c2.08 0 6.43-6.06 13.13-5.71 3.98.2 3.09 4.1.66 6.14a14.2 14.2 0 0 1-3.48 2c-2.7 1.21-5.42 2.33-8.2 3.32-.24.09-.49.16-.7.33-3.36 2.63-5.9 2.94-14.82 5.35-.1.05-.26.08-.4.05-.29-.06-.49-.34-.63-.61a4.71 4.71 0 0 1-.26-3.52c.07-.16.13-.33.25-.44.13-.13.3-.17.48-.22 6.92-2.07 5.04-6.6 13.97-6.69Z" fill="#2B2B37"/><path opacity=".48" d="M109.92 87.66c-1.1.44-2.22.86-3.33 1.26-.24.1-.49.17-.7.34-1.03.8-2 1.4-3.08 1.9.58-.88.85-1.87 1.13-2.9.17-.56.36-1.16.85-1.51.71-.52 1.68-.28 2.44-.02.72.24 1.42.6 2.16.8.17.07.36.1.53.13ZM118.29 83.6a11.3 11.3 0 0 1-2.37 1.48l.28-.3a11.39 11.39 0 0 0 2.51-3.98c.35-1.02.39-2.06.14-3.1 2.52.9 1.56 4.13-.56 5.9Z" fill="#2B2B37"/><path d="M105.6 82.77c2.22-1.26 5.88-5.13 11.05-5.32-.1.06-.2.15-.32.21-1.08.76-2 1.65-2.85 2.66-1.16 1.38-2.38 2.92-4.06 3.63-.97.41-2.07.53-2.94-.11a3.16 3.16 0 0 1-.88-1.06ZM92.45 89.14c4.2-2 4.13-5.1 9.7-5.8-.2 1.64-.6 3.26-1.7 4.53a7.74 7.74 0 0 1-3.38 2.15c-1.19.4-2.7.64-3.83-.06-.33-.21-.6-.5-.79-.82Z" fill="#464558"/><path d="M89.69 89.9c.23-.13.53-.16.8-.21.92-.22 2.48-1.15 3.28-1.65-.7 1.67.68 5.76 1.78 5.98a14.38 14.38 0 0 1-5.02 1.35c-1.2.06-1.8-4.98-.84-5.47Z" fill="#575771"/><path d="M95.56 94.04a14.38 14.38 0 0 1-5.02 1.35c-.7.04-1.22-1.7-1.31-3.23.44.53 1.06.88 1.75 1 1 .16 2.06-.09 2.98-.53l.34-.17c.37.85.83 1.47 1.26 1.58Z" fill="#464558"/><path d="M94.46 94.04c.01-.07-.03-.14-.09-.14-2.75-.48-4.53-3.55-4.55-3.58-.03-.06-.1-.08-.15-.05-.06.03-.08.1-.05.15.09.14 1.87 3.21 4.72 3.7h.04c.06-.02.1-.04.08-.08Z" fill="#2B2B37"/><path d="M90.91 94.99c-.04-1.8 2.18-5.79 2.22-5.83.04-.06 0-.13-.04-.16-.05-.05-.12-.01-.15.03-.09.18-2.29 4.1-2.23 5.96.02.06.06.1.13.12h.02c.04-.02.09-.07.05-.12Z" fill="#2B2B37"/><path opacity=".36" d="M85.27 88.07c.02.44-.32 1.48-.19 1.84.15.4.63.67.68.42a.15.15 0 0 0-.07-.15c-.12-.07-.16-.07-.23-.2-.04-.08-.12-1.48-.2-1.9l.01-.01ZM84.2 88.64c.02.45-.36 1.48-.24 1.84.15.4.6.67.66.44a.15.15 0 0 0-.07-.15c-.1-.1-.15-.09-.21-.22-.04-.09-.07-1.5-.13-1.9ZM83.2 89.06c-.02.43-.45 1.45-.35 1.82.12.4.58.7.64.46.03-.06 0-.12-.05-.15-.1-.1-.16-.09-.2-.22-.05-.09.01-1.5-.04-1.9ZM87.14 88.39c-.02.02-.03.03-.05.03l.01.08c-.06-.09-.1-.18-.17-.25-.03-.01-.06-.05-.1-.06-.09-.04-.19-.04-.26-.08.03-.07.08-.1.13-.13l.1-.02c.08-.02.15.03.2.1l.1.22c0 .06.01.1.04.11Z" fill="#B45F00"/><path d="M128.47 75.64c-7.47 1.37-10.56-8.89-6.43-8.95 14.63 1.3 10.45 8.2 6.42 8.95Z" fill="#3E5C2E"/><path d="M127.45 75.9c-7.5 1.2-10.33-9.16-6.2-9.1 14.59 1.65 10.24 8.45 6.2 9.1Z" fill="#75A152"/><path d="m119.84 67.43.42.29c.2.12.34.25.5.37-.04.05-.1.07-.2.07-.14-.01-.28-.06-.4-.1-.2-.05-.38-.16-.56-.24.07-.15.16-.3.24-.4Z" fill="#3E5C2E"/><path d="M127.41 75.9a3.68 3.68 0 0 0-1.03-.68c-1.6-.72-3.14-1.16-4.5-2.34a4.76 4.76 0 0 1-1.42-4.64l.35.3-.35-1.6c.22-.1.5-.14.8-.15 14.58 1.65 10.23 8.45 6.15 9.11Z" fill="#568040"/><path d="M125.69 75.78c.2-.15.85-.53 1.25-.46.07.01.12-.02.13-.08 0-.07-.03-.12-.1-.13-.58-.11-1.39.47-1.42.5-.06.03-.06.1-.03.14.03.04.07.05.1.04l.07-.01Z" fill="#568040"/><path d="M127.4 75.42c.01-.06-.02-.11-.08-.12-.52-.09-1.16.23-1.2.24-.06.03-.08.1-.05.15.03.06.1.08.15.05 0 0 .63-.3 1.07-.21h.04c.04-.02.07-.04.08-.1Z" fill="#568040"/><path opacity=".49" d="M124.44 74.76c.15.06.55.32.37.52a.18.18 0 0 1-.2.07.25.25 0 0 0-.1-.04c-.08 0-.15.03-.23.04-.11.03-.25-.02-.38-.06-.26-.08-.38-.2-.3-.51-.01-.02 0-.05.02-.07.01-.02.05-.03.07-.04.25-.05.53 0 .75.09Z" fill="#AED888"/><path d="M121.31 67.35v.28c.01.32 0 .65-.21.88a.4.4 0 0 1-.23.13c-.16.03-.3-.08-.4-.22a.97.97 0 0 1-.1-.46c0-.16.02-.33-.02-.48a.77.77 0 0 0-.16-.39c.26-.18.6-.3 1-.3.03.02.06.05.06.07.1.14.1.35.06.5v-.01ZM82.22 59.41c.62.74 2.16.85 3.39.64 1.22-.2 4.89-1.2 6.22-1.5 1.32-.31 5.48-.45 5.48-.45s3.91.18 1.47-.36c-4.03-.88-6.38-.74-12.66 1.51-3.02 1.1-4.83-1.11-4.55-2.63 0 0 0 2.06.65 2.79Z" fill="#3E5C2E"/><path d="M120.24 67.79c-2.7-2.3-6.62-.23-8.35.63-7.27 3.56-10.39.1-9.85-4.4l.1-.78c.69-8.39-14.33-3.28-16.41-3.09-2.14.2-4.06-.09-5.29-2.77 3.58 2.88 3.82 3.25 8.02 1.84a34.93 34.93 0 0 1 7.3-1.5c.98-.1 2-.15 2.96.02.66.12 1.31.34 1.9.68.53.29 1.05.68 1.41 1.17 1.55 2.09.38 10.02 9 7.85 2.55-.65 7.72-2.5 9.2.35Z" fill="#74A352"/><path d="M85.75 60.14c-2.14.2-4.06-.09-5.3-2.77 3.58 2.88 3.83 3.25 8.03 1.84a34.92 34.92 0 0 1 7.3-1.5c.98-.1 2-.15 2.96.02.65.12 1.3.35 1.9.68.53.29 1.04.69 1.41 1.17.48.64.7 1.83 1.02 3.11-.19.73-.44 1.43-.72 2.02-.1.24-.24.47-.35.7-.04-.46-.02-.93.04-1.4l.1-.77c.66-8.4-14.36-3.3-16.4-3.1Z" fill="#74A352"/><path d="M120.22 67.79c-2.7-2.3-6.62-.23-8.35.64-3.2 1.56-5.6 1.77-7.23 1.12-1.64-1.79-1.98-4.08-1.47-6.4.76 2.77 2.2 5.71 7.86 4.29 2.54-.66 7.72-2.5 9.19.35Z" fill="#568040"/><path d="M115.34 67c-1.38.37-2.65 1.02-3.45 1.42-1.17.58-2.22.97-3.18 1.2l.44-.39a8.45 8.45 0 0 1 2.62-1.65c.48-.19 1-.36 1.53-.5a5.05 5.05 0 0 1 2.04-.08Z" fill="#74A352"/><path d="M103.98 65.32c.91 1.69 2.55 2.9 5.96 2.33-.23.23-.48.45-.77.61a3.26 3.26 0 0 1-3.38 0c-.84-.54-1.3-1.51-1.61-2.43-.06-.15-.11-.32-.2-.5Z" fill="#3E5C2E"/><path d="M76.88 46.97c-.14.96-.51 1.95.24 3.08.54.83 2.67 2.19 2.97 5.44.04.45.04.9.15 1.34.4 1.55 2.04 2.97 4.12 3.08a3.93 3.93 0 0 1-2.56-2.2 2.38 2.38 0 0 1-.13-.75c-.1-1.15 0-2.34-.44-3.42-.43-1.06-1.31-1.85-2.13-2.65-1-.97-.87-3.06-.57-3.75-.37 0-1.63-.16-1.66-.17Z" fill="#568040"/><path opacity=".32" d="M80.25 56.87c-.11-.44-.11-.89-.15-1.34a7.24 7.24 0 0 0-2.14-4.51c4.81 2.84 2.77 3.28 2.36 6.07-.02-.1-.05-.16-.07-.22Z" fill="#3E5C2E"/><path d="M80.45 54.42c.02.48-.16.94-.33 1.4l-.02-.3a6.86 6.86 0 0 0-1.36-3.58c.92.53 1.67 1.4 1.7 2.48Z" fill="#3E5C2E"/><path d="M79.66 51.44c-.11-.06-.2-.12-.32-.17-2.32-1.2-1.12-3.42-.95-3.62-.17.9-.11 2.45.7 3.24l.57.55Z" fill="#74A352"/><path d="M102.14 63.22c.1-4.41-4.43-5.14-8.82-4.58 1.6-.36 4.16-.76 5.75-.43 2.49.49 4.2 3.23 3.07 5.01Z" fill="#568040"/><path d="M120.17 67.74a5.24 5.24 0 0 1-4.23-.4 5.84 5.84 0 0 1-2.69-3.34c-.63-2-.33-3.48-5.11-4.59a13.9 13.9 0 0 1-4.18-1.46c-5.1-3.1.22-8.77-4.77-8.87-.69 0-1.4 1.1-2.07 1.28-1.4.36-2.17-1.45-3.53-2.69-1.33-1.23-3.21-2.15-5.13-.08l-.65-2.73c4.64-1.65 7.06 2.94 7.66 3.56.62.6 1.49 1.07 2.33.86.52-.13.94-.5 1.44-.71 3.61-1.53 6.03 4.51 7 6.12.8 1.3 1.82 2.58 3.21 3.23 7 3.27 4.05 7.28 10.72 9.82Z" fill="#74A352"/><path opacity=".49" d="m88.46 47.57-.65-2.72a5.3 5.3 0 0 1 3.36-.15c-.23.15-.43.32-.62.48a7.6 7.6 0 0 0-1.57 1.9 5.1 5.1 0 0 0-.52.5Z" fill="#AED888"/><path d="M97.59 49.31c-1.46 1.09-1.3.81-4.02-1.67-1.2-1.12-2.83-1.98-4.56-.61.32-.31.73-.56 1.06-.7 1.04-.42 2.47-.53 3.5.06.85.5 1.26 1.46 1.98 2.1l.05.02c.56.53 1.28.9 1.99.8Z" fill="#568040"/><path opacity=".49" d="M97.14 50.34c-.1.02-.19.04-.3.04.42-.33.8-.73 1.15-1.15.45-.16.83-.47 1.27-.66.7-.3 1.37-.3 2-.11a4.4 4.4 0 0 0-1.35.67c-.2-.03-.46-.06-.72-.06-.7-.01-1.42 1.1-2.05 1.27Z" fill="#AED888"/><path d="M120.16 67.7a5.08 5.08 0 0 1-3.19.04 6.31 6.31 0 0 1-.77-.86 9.88 9.88 0 0 1-1.39-3.72l-.1-.48c1.07 1.89 1.86 3.68 5.45 5.02Z" fill="#568040"/><path d="M117.03 65.93c.75.65 1.72 1.24 3.15 1.78a5.2 5.2 0 0 1-1.63.28 10.5 10.5 0 0 1-1.42-1.9l-.1-.16Z" fill="#3E5C2E"/><path d="m106.16 54.55.09.14c.79 1.3 1.81 2.58 3.2 3.23.36.16.7.33 1 .5-9.1-.14-6.13-6.95-7.8-9.15 1.66 1.42 2.84 4.07 3.5 5.22v.06Z" fill="#568040"/><path opacity=".49" d="M111.66 59.52c.52.35.85.95.96 1.57.05.31.07.61.04.92-.49-1.05-1.46-1.89-4.5-2.6l-1.13-.28c1.18-.05 2.36-.25 3.52-.04.38.06.77.18 1.1.43Z" fill="#AED888"/><path d="M104.77 51.96c.64 1.12 1.15 2.15 1.47 2.71.38.6.79 1.2 1.27 1.73-.15-.01-.3-.04-.43-.1-1.04-.31-1.59-1.08-1.87-2.11-.2-.73-.28-1.48-.44-2.23Z" fill="#3E5C2E"/><path d="M132.07 71.57c1.68-.63.75-5.68.29-6.7-.46-1-1.67-.62-1.67-.62l-2.47 1.2s2.17 6.76 3.85 6.12Z" fill="#464557"/><path opacity=".45" d="M132.07 71.57c1.68-.63.75-5.68.29-6.7-.46-1-1.67-.62-1.67-.62l-2.47 1.2s2.17 6.76 3.85 6.12Z" fill="#2B2B37"/><path d="M132.86 70s.3 2.02-.12 3.1c-.47 1.25-2.18 2.04-3.65 2.16l-1.87-.22-.3-2.58 5.94-2.46Z" fill="#464557"/><path opacity=".45" d="M132.86 70s.3 2.02-.12 3.1c-.47 1.25-2.18 2.04-3.65 2.16l-1.87-.22-.3-2.58 5.94-2.46Z" fill="#2B2B37"/><path d="M132.93 70.67c-.09-.38-.13-.68-.3-1.05-.65-1.53.08-5.16-1.9-4.92-2.98.38-4.45 2.7-4.35 5.41.03 1.1.52 2.13 1.12 3.03 1.78 2.7 6.06.59 5.42-2.46Z" fill="#D58500"/><path opacity=".36" d="M132.64 69.62c.16.37.2.65.29 1.05.65 3.03-3.64 5.15-5.41 2.47a6.17 6.17 0 0 1-1.13-2.85c1.8.1 3.8-.23 5.46-1.04.18-.08.39-.15.59-.25.05.23.1.44.2.62Z" fill="#B45F00"/><path d="M132.28 67.5c.06.75.12 1.5.32 2.05-.16.08-.59-.3-.71-.85-.06-.3-.05-.62.07-.9.03-.11.11-.21.2-.27a.13.13 0 0 1 .12-.03ZM130.47 74.27a2.68 2.68 0 0 1-2.99-1.12 6.17 6.17 0 0 1-1.12-3.04c-.1-2.7 1.38-5.02 4.34-5.4.9-.12 1.26.57 1.42 1.5-1.82.46-3.26 2-3.35 4.01-.06 1.14.2 2.46.93 3.37.23.3.5.52.78.68Z" fill="#B45F00"/><path d="M130.32 74.85c1.28.05 2.02-.8 2.72-3.17a4.15 4.15 0 0 0-.62-2.78c-.77 1-5.09 1.8-6.6 1.17-.26 3.43 3.17 4.75 4.5 4.78Z" fill="#2B2B37"/><path d="M128.82 70.19a8.9 8.9 0 0 0 3.28-1c.94 1.92.65 3.01.35 3.75-2.35.53-3.51-1.67-3.63-2.75Z" fill="#464557"/><path d="M129.07 75.27a8.5 8.5 0 0 1-6.89-2.05c-.61-.6-2.27-.98-2.4-3.87-.1-2.86.48-1.47 1.07-3.13.35-.99-.52-1.37 1.27-3.29 4.07-4.4 8.77-1.58 10.18 1.8-.28-.1-.56-.2-.87-.22a3.66 3.66 0 0 0-1.58.3c-4.56 1.76-3.1 7.95-.78 10.45Z" fill="#575771"/><path opacity=".25" d="M131.7 64.51a3.66 3.66 0 0 0-1.8.27l-.34.16c-.06 0-.11.04-.16.07l-.11.07c-.22.1-.43.25-.63.4l-.17.13c-.02 0-.04.01-.05.03-.17.16-.32.3-.47.47a5.01 5.01 0 0 0-.49-2.18c-.53-.95-1.33-1.57-2.46-1.57-.34 0-1.17-.17-1.93-.33 3.6-2.88 7.44-.7 8.97 2.16.01.04.02.08.05.11 0 .04.03.06.04.1.03.03.04.09.07.14.02 0 .02.02.03.04 0 .03.04.09.05.13l-.11-.04-.11-.04-.13-.03c-.02 0-.06 0-.09-.02a.88.88 0 0 1-.15-.03c-.02 0-.06 0-.02-.04Z" fill="#2B2B37"/><path d="M131.61 64.51a3.66 3.66 0 0 0-1.8.27c-4.55 1.77-3.1 7.95-.76 10.47a8.5 8.5 0 0 1-6.9-2.04c-.48-.48-1.7-.82-2.18-2.56l.62-.01.7-.03c1.08-.07.65 1.78 1.73 2.17.4.16.56-.2.5-.55-.08-.49-.3-.93-.27-1.42.09-1.4 1.19-.7 2.41-2.6.2-.3.38-.69.46-1.07.1-.57-.11-1.15.26-1.66.76-.97 2.96-1.95 4.52-2.83.6.6 1.05 1.3 1.37 2.02v.04l-.1-.04c-.04 0-.07-.02-.11-.03l-.13-.04c-.02 0-.06 0-.08-.02l-.13-.03-.1-.04Z" fill="#464557"/><path d="M129.6 66.52c.38-.2 1.04.14 1.3.41.08.08.14.17.18.28.02.1.03.24-.03.33a.48.48 0 0 1-.09.12c-.2.19-.55.16-.8.04-.25-.15-1.05-.93-.56-1.18Z" fill="#B45F00"/><path d="M131.09 68.24c-.02-.06-.07-.1-.13-.1-.75.09-1.05-.2-1.06-.23a.1.1 0 0 0-.14 0c-.05.05-.04.1-.01.14.02.01.37.4 1.24.3.05-.02.08-.06.1-.1ZM130.72 66.83c.02.1.02.2-.03.26-.24.44-1.3-.18-1.3-.58 0-.37 1.19-.24 1.33.31Z" fill="#2B2B37"/><path d="m131.09 68.08.03.12c.01.27-.12.5-.26.52-.14 0-.28-.2-.3-.48v-.08h.16c.14 0 .28-.02.37-.08ZM132.23 67.83v.04c.09.27.03.5-.08.53-.1.02-.2-.06-.27-.3.12-.02.25-.15.35-.27Z" fill="#2B2B37"/><path d="M132.53 67.75c.03-.05.02-.1-.03-.14a.1.1 0 0 0-.13.03.78.78 0 0 1-.41.33c-.06.02-.1.06-.08.12.01.06.06.09.12.08.02 0 .32-.07.53-.42ZM132.36 66c.2-.02.21.24.2.37-.01.14-.04.29-.11.43a.52.52 0 0 1-.34.27.16.16 0 0 1-.1 0 .23.23 0 0 1-.13-.21.8.8 0 0 1 .13-.5c.08-.12.19-.36.35-.36Z" fill="#2B2B37"/><path d="M129.74 69.57c-.13.35-.6.35-.68-.04 0-.12 0-.24.07-.32.4-.4.72.05.6.36ZM131.28 67.19c.06-.11.16-.18.27-.24.07-.04.17-.06.24-.01.05.03.09.1.1.16l.02.18c-.02.2-.26.38-.44.38-.23-.01-.29-.29-.19-.47Z" fill="#EA9313"/><path d="M182.31 36c0 .13 0 .25-.02.38l-1.64 16.7-2.6 26.31-1.78 18.17c-.03.32-.1.62-.2.9l-.05.1-.03.08-.05.1a3.14 3.14 0 0 1-.38.6l-.1.13-.08.08-.05.05-.1.09-.14.12-.06.05-.06.05h-.01a3.27 3.27 0 0 1-.17.11l-.16.1-.17.08-.17.07c-.18.07-.37.11-.56.14l-.1.01c-.26.03-.53.02-.8-.03l-.3-.06-7.52-1.36-17.19-3.13a2.83 2.83 0 0 1-.38-.1l-.06-.01-.1-.04-.04-.01-.12-.06-.15-.07a4.89 4.89 0 0 0-.13-.07l-.25-.16a3.26 3.26 0 0 1-.33-.26l-.02-.02-.11-.11-.04-.05-.05-.05a5.14 5.14 0 0 0-.07-.08l-.08-.09-.06-.07a3.83 3.83 0 0 1-.78-2.7l6.03-61.19c.02-.23.06-.45.13-.66a3.02 3.02 0 0 1 2.11-2.13h.01l.1-.02.09-.02.19-.03h.18c.21-.02.42 0 .64.04l9.8 1.78 15.2 2.76.11.02.1.02h.01l.04.01.04.02.1.02.03.02a4.5 4.5 0 0 0 .3.11l.06.03.06.03a2.84 2.84 0 0 1 .29.17l.1.07.05.04.08.06.12.1.03.02.03.03.14.13.03.03.03.03.05.05a.43.43 0 0 1 .05.06l.08.1.04.04.02.03.1.13.09.13.01.03c.02.01.03.03.03.05l.05.08.05.08.03.05.05.1.06.15.08.17v.03l.05.13.03.07.04.15.05.2.03.18v.04l.03.13v.07l.02.17v.2Z" fill="#E3F7FF"/><path d="m154.35 27.93.2-.04-.04-.01h-.02l-.14.05Z" fill="#738483"/><path d="m153.32 27.9.1-.01.09-.02.18-.03h.1l.09-.01h.24l.24.02a1.2 1.2 0 0 1 .15.03h.05l9.76 1.78 15.2 2.76.1.02a1.13 1.13 0 0 1 .16.04l.04.01.09.03.04.01.15.06.14.06.07.03.06.03.17.1c.08.04.15.09.21.14l.06.03.2.16.03.03.28.27c.7.76 1.08 1.83.97 2.94l-1.64 16.7-.24 2.42-2.35 23.9-.1 1.04-.13 1.24-1.56 15.88-.02.16c-.05.3-.12.58-.23.85l-.04.08-.04.09-.09.17-.01.03-.08.12-.02.04-.16.22-.13.16-.1.1-.11.11a2.58 2.58 0 0 1-.28.23c-.46.22-.9.38-1.24.49h.14c1.87.14 3.44-.1 4.65-.41a4.1 4.1 0 0 0 3.03-3.52l2.03-18.13 4.82-43.03c.19-1.88-1.05-3.65-2.78-3.96l-4.52-.79h-.04l-.1-.02-7.12-1.23h-.02l-.15-.03-.1-.02-.26-.04-.06-.02-13.46-2.32a23.6 23.6 0 0 0-4.39.45l-2.07.57Z" fill="#899695"/><path d="m173.63 100.44.15-.02h.08l-.14-.01h-.02l-.07.03Z" fill="#899695"/><path d="M173.72 100.4c.34-.1.78-.26 1.24-.48l.13-.1.15-.13.1-.1.11-.11.13-.16.16-.22.02-.04a1.24 1.24 0 0 0 .1-.15l.08-.17.04-.1.04-.07c.1-.27.18-.55.23-.85-1.27 1.86-2.53 2.69-2.53 2.69Z" fill="#899695"/><path d="M188.4 35.32c-.36 2.43-1.18 9.12-2.06 16.47l-5.69 1.29-1.13.88-.41.33.09-.9 1.26-12.84.44-4.42a2.04 2.04 0 0 0-.39-1.43l-.05-.07-.05-.06a2.01 2.01 0 0 0-.11-.12l-.1-.1-.03-.02a2.67 2.67 0 0 0-.2-.15l-.03-.01a1.93 1.93 0 0 0-.31-.15 1.5 1.5 0 0 0-.26-.07l-3.67-.67-10.33-1.88-11.01-2a1.6 1.6 0 0 0-1.76.99l-1.4-.35h-.01a3 3 0 0 1 2.13-2.13l2.07-.57c.56-.2 3.95-.53 4.39-.45l13.46 2.32.05.02.27.04.1.02.14.02h.03l7.12 1.24.09.02h.04l4.53.79c1.72.3 2.96 2.08 2.78 3.96ZM173.72 100.4a3.38 3.38 0 0 0 .15.02c1.86.13 3.43-.1 4.64-.42a4.1 4.1 0 0 0 3.03-3.52l2.03-18.13-5.64 2.27-.1 1.06-1.56 15.88-.02.16c-.05.3-.12.58-.23.85l-.04.08-.04.09a4.3 4.3 0 0 1-.18.32l-.02.04-.16.22-.13.16a1.3 1.3 0 0 1-.1.1l-.11.11-.15.13-.13.1c-.46.22-.9.38-1.24.49Z" fill="#93A3A2"/><path d="M179.4 33.95h-.04l-3.66-.67 3.67.67h.04Zm.72.34-.01-.01.03.03-.01-.02Zm-.73-.34h.02-.02Zm-.02 0h.02-.02Zm2.94 2.01a.2.2 0 0 0 0-.05V35.73l-.01-.08v-.02l-.01-.06-.01-.1v-.03l-.01-.02-.02-.13v-.03l-.01-.02v-.03l-.01-.02v-.01l-.02-.06v-.04l-.02-.03v-.02l-.03-.11v-.01l-.02-.04v-.03l-.01-.02v-.02l-.01-.01-.01-.02-.01-.04-.03-.09-.02-.03v-.02l-.05-.1v-.02l-.02-.02a.38.38 0 0 0-.02-.05l-.05-.1v-.02a.15.15 0 0 0-.03-.04v-.02l-.02-.03-.02-.02-.03-.06-.01-.02-.02-.04-.02-.02v-.01l-.01-.02h-.01v-.03l-.03-.03v-.02a.5.5 0 0 0-.07-.08l-.01-.02-.01-.02-.06-.08-.02-.02a.1.1 0 0 0-.02-.03l-.02-.02-.02-.03-.02-.02a1.59 1.59 0 0 0-.1-.12l-.02-.02-.01-.02h-.02v-.01l-.03-.03a.22.22 0 0 0-.03-.04l-.03-.03a.38.38 0 0 0-.03-.02l-.05-.06-.02-.02a.53.53 0 0 0-.07-.06.12.12 0 0 0-.03-.02l-.02-.02a.6.6 0 0 0-.08-.06l-.02-.02-.02-.01-.03-.02a.72.72 0 0 0-.1-.07l-.03-.03-.04-.03h-.01l-.03-.02-.05-.04-.04-.02a.34.34 0 0 1-.04-.03l-.03-.01-.1-.05-.02-.02h-.01l-.02-.01h-.01a.6.6 0 0 0-.07-.04l-.09-.04-.05-.02a2.46 2.46 0 0 0-.18-.06h-.01l-.01-.01a.38.38 0 0 0-.05-.02l-.06-.01-.04-.02H179.7l-.06-.02-.1-.02h-.02l-13.58-2.47-.13-.03-1.48-.27-9.76-1.77h-.05v-.01h-.02l-.05-.01-.08-.01h-.01l-.1-.02h-.38c-.07 0-.16 0-.23.02a2.98 2.98 0 0 0-2.44 2.18c-.06.21-.1.44-.13.67l-.1.93-5.92 60.25c-.05.45-.01.9.1 1.33a3.9 3.9 0 0 0 .5 1.12l.07.11.08.1.02.04.06.07.08.1.07.07.09.1.1.1.03.03a3.13 3.13 0 0 0 .33.26 3.32 3.32 0 0 0 .54.3l.08.04.04.02.04.01.1.04.05.01.18.06h.02l.19.04 17.19 3.13 7.51 1.36.3.06a2.86 2.86 0 0 0 .8.03h.04l.05-.01h.01l.14-.02a3.5 3.5 0 0 0 .6-.2h.03l.03-.02h.03l.08-.05.07-.04h.02l.07-.05h.01V100l.16-.1.07-.04.03-.03.03-.03.06-.04.02-.02.07-.06.04-.04a.5.5 0 0 0 .05-.05l.02-.01a.27.27 0 0 0 .03-.04l.02-.02.02-.01v-.02l.03-.02a.97.97 0 0 0 .08-.1l.03-.03.02-.03.02-.03.02-.02v-.01l.02-.02.01-.01.01-.01v-.01l.03-.04.06-.1h.01v-.01c.02-.02.03-.03.03-.05l.01-.01.03-.06h.01v-.01l.03-.04.01-.04.05-.09.01-.02v-.02l.05-.08.01-.03.02-.04v-.03h.01l.01-.03.03-.06a.6.6 0 0 0 .03-.08 2.51 2.51 0 0 0 .06-.18v-.02l.08-.35v-.03l.01-.07.02-.16 1.67-16.95.12-1.22 2.6-26.31 1.64-16.7V36.18l.01-.09v-.12h-.01Zm-9.34 62.9-2.15-.39-2.7-.49-2.51-.46-13.05-2.37-4.59-.83a1.78 1.78 0 0 1-.47-.16 1.82 1.82 0 0 1-.63-.53l-.05-.07a.45.45 0 0 1-.05-.07.94.94 0 0 1-.06-.1l-.06-.12a1.89 1.89 0 0 1-.2-.68c-.03-.15-.03-.3-.01-.45l.41-4.24 5.23-53.09.01-.1.37-3.75a1.95 1.95 0 0 1 .4-.99l.07-.09.08-.08c.36-.33.84-.5 1.35-.4l10 1.82 1.01.18 10.33 1.88 3.67.67h.05l.07.02.08.03h.03l.03.02c.04 0 .07.02.1.04a.9.9 0 0 0 .05.02l.05.02.11.07c.01 0 .02 0 .03.02l.1.07h.02l.02.02.03.03.02.01.01.01.03.02.02.02.02.02.02.02.02.02.02.02.02.02.03.03.03.04.03.03.03.03.02.03.05.07.1.14.01.04a.43.43 0 0 1 .05.09l.02.02v.02l.01.02.02.04.03.07.03.09.04.12.03.13v.01l.02.05v.02l.02.13v.11c.02.11.01.22 0 .33l-.43 4.42-.33 3.36-.04.43-.9 9.05-.08.9-2.63 26.6-1.14 11.6-.47 4.82c-.1 1.03-.95 1.73-1.9 1.55Zm6.43-64.9v-.01h-.04l-3.66-.67 3.67.67h.04Z" fill="#CDD5D4"/><path d="m165 98.97-17.18-3.13a2.8 2.8 0 0 1-.4-.1c-.01 0-.03 0-.04-.02a1.65 1.65 0 0 1-.1-.03l-.04-.02a2.9 2.9 0 0 1-.27-.12l-.14-.07-.25-.16a3.25 3.25 0 0 1-.32-.26l-.03-.03a4.62 4.62 0 0 1-.1-.1l-.1-.1-.15-.17-.06-.07-.02-.03a3.24 3.24 0 0 1-.38-.62 3.8 3.8 0 0 1-.37-2.05l5.94-60.26a37.51 37.51 0 0 0 1.11 3.1v.09l-5.23 53.08-.42 4.24a2.11 2.11 0 0 0 .38 1.42l.05.07a1.97 1.97 0 0 0 .56.49l.06.04h.01a1.53 1.53 0 0 0 .47.16l4.59.84 13.05 2.37 2.52.45 2.7.5c.54.62 1.11 1.24 1.7 1.85l-7.52-1.36H165ZM165.37 31.4c-.37-.56-.72-1.15-1.06-1.74l15.2 2.76c1.72.31 2.97 2.08 2.78 3.96l-1.88 19.12-.49-.85-.72-1.26 1.26-12.85.44-4.42c.1-1.03-.6-2-1.54-2.18l-3.66-.67-10.33-1.86Z" fill="#D8E0E0"/><mask id="b" style="mask-type:alpha" maskUnits="userSpaceOnUse" x="145" y="27" width="38" height="74"><path d="m182.38 35.83-.01.37-1.65 16.7-2.59 26.32-1.79 18.17c-.03.31-.1.61-.2.89l-.05.11-.03.08-.05.1a3.17 3.17 0 0 1-.38.6l-.1.13a1.24 1.24 0 0 1-.13.13l-.1.08-.14.13-.06.05a1.67 1.67 0 0 0-.07.05l-.16.1a4.68 4.68 0 0 1-.33.18l-.18.08c-.18.06-.37.1-.56.13l-.1.02c-.26.02-.52.01-.8-.04l-.3-.05-7.51-1.37-17.2-3.12a2.84 2.84 0 0 1-.38-.1l-.05-.02-.1-.03-.05-.02-.11-.05h-.02l-.14-.07-.13-.08-.25-.16a3.25 3.25 0 0 1-.32-.26l-.03-.02-.1-.1-.05-.05-.05-.05-.07-.08-.08-.1-.06-.07a3.83 3.83 0 0 1-.78-2.7l6.03-61.18c.02-.23.07-.46.13-.67a3.02 3.02 0 0 1 2.12-2.12l.1-.03.1-.01.18-.03h.1l.09-.01c.2-.01.41 0 .63.04l9.8 1.78 15.2 2.76.11.03.1.02h.05l.04.02.1.03.04.01a4.27 4.27 0 0 0 .28.12c.03 0 .05.02.07.03a.56.56 0 0 1 .07.03 2.97 2.97 0 0 1 .28.17l.1.06.05.04.09.06.11.1.03.03.04.03.14.13.02.03.03.03.05.05a.44.44 0 0 1 .05.05l.08.1.04.05.03.03.09.12.09.13.01.03.04.06.04.07.05.08.03.06.05.1.07.14.07.18v.02l.06.14.02.07.04.15.05.19.03.18.01.05.02.13v.06l.02.17V35.83Z" fill="#E3F7FF"/></mask><g mask="url(#b)"><path d="M165.22 75.5c.79-.28 1.42-.88 2.07-1.41 1.62-1.32 3.5-2.3 5.5-2.87.82-.24 1.72-.4 2.52-.1 1.1.42 1.74 1.63 1.88 2.8.13 1.17-.14 2.34-.3 3.51-.17 1.17-.23 2.42.28 3.48.18.37.42.79.24 1.15-.15.3-.51.42-.84.48-3.22.69-6.63.44-9.72-.67-.76-.27-1.5-.6-2.1-1.15-1-.91-1.37-2.25-1.5-3.56-.04-.45-.26-1.44.16-1.7.28-.16 1.34.2 1.8.04Z" fill="#fff"/><path opacity=".64" d="M177.17 80.91a6.06 6.06 0 0 1-.27-3.47c.16-1.17.43-2.34.3-3.52-.14-1.13-.73-2.29-1.76-2.74v.5c-.15 3.01-2.7 5.24-5.29 6.37a13.99 13.99 0 0 1-6.44 1.1c.23.6.56 1.13 1.05 1.58.6.54 1.34.88 2.1 1.15a17.9 17.9 0 0 0 9.72.67c.33-.07.7-.18.84-.48.17-.37-.07-.79-.25-1.16Z" fill="#F3F3F3"/><path d="M106.93 55.45c1.92-.85 3.37-2.45 4.88-3.91 1.75-1.7 3.7-3.29 6.05-3.95 2.34-.67 5.14-.21 6.7 1.66 1.91 2.3 1.38 5.67 1.65 8.65.2 2.22.97 4.47 2.6 5.98a10.9 10.9 0 0 0 4 2.13c2.26.76 4.83 1.24 6.96.18 2.16-1.07 3.32-3.43 5.06-5.1a7.28 7.28 0 0 1 4.36-2.1 4.87 4.87 0 0 1 4.33 1.88c1.49 2.12.7 4.98.74 7.56.1 5.78 4.81 10.68 10.22 12.72 1.08.4 2.24.75 3.03 1.6 1.4 1.52 1.02 3.92.43 5.9-.41 1.38-.93 2.83-2.08 3.7-1.2.91-2.84.98-4.35.96-9.36-.16-18.53-2.58-27.58-5-7.94-2.12-15.95-4.26-23.29-7.95a8.87 8.87 0 0 1-3.15-2.28c-1.51-1.94-1.3-4.65-1.35-7.12a28.06 28.06 0 0 0-2.22-10.42c-.32-.76-2.41-4.4-1.69-4.92.36-.25 1.81.33 2.28.33a5.8 5.8 0 0 0 2.42-.5Z" fill="#fff"/><path opacity=".64" d="M167.5 82.76c-.77-.85-1.94-1.2-3.02-1.6-5.4-2.04-10.12-6.95-10.22-12.72-.04-2.58.75-5.45-.74-7.56-.18-.26-.4-.5-.62-.7-.43.72-.9 1.43-1.43 2.07-.67.8-1.45 1.51-2.3 2.1-.92.63-1.92 1.06-2.9 1.57-.5.26-1.18.66-1.73.3-.38-.26-.55-.74-.67-1.16a7.94 7.94 0 0 1-.16-2.73c-1.2 1.45-2.27 3.04-3.93 3.87-2.14 1.06-4.7.58-6.96-.18-1.45-.48-2.9-1.1-4-2.13-1.64-1.51-2.4-3.76-2.6-5.98-.28-2.98.26-6.35-1.66-8.65-1.56-1.87-4.36-2.33-6.7-1.66-2.35.65-4.31 2.25-6.05 3.94-1.5 1.46-2.97 3.07-4.89 3.92-.75.33-1.59.5-2.4.5-.47 0-1.93-.58-2.28-.33-.73.5 1.37 4.16 1.69 4.92 1.4 3.29 2.15 6.85 2.22 10.42.04 2.46-.17 5.18 1.34 7.12a8.87 8.87 0 0 0 3.16 2.28c7.34 3.7 15.35 5.83 23.29 7.95 9.05 2.41 18.22 4.85 27.58 5 1.5.02 3.14-.05 4.35-.97 1.14-.86 1.67-2.32 2.07-3.7.59-1.98.97-4.37-.43-5.89Z" fill="#F3F3F3"/><path d="M118.46 60.66c9.6-3.19 11.35-11.26 16.52-11.72 9.22-.84 6.25 14.82 6.72 18.19.26 1.88.98 3.8 2.45 5 6.09 4.92 16.26-3.58 17.21-4.01 2.06-.93 4.78-1 6.3.67 2.74 3.04-.67 8.6 1.95 11.75 1.3 1.56 3.61 1.83 5.6 1.48 21.49-3.75 25.73 18.94 24.3 20.84-1.7 2.25-11.47-1.89-14.27-1.52-12.95 1.71-26.07-.2-39-2.13-6.7-1-13.41-2-20.08-3.25-6.52-1.25-13.2-2.74-19.73-1.55-2.43-8.47-2.6-17.4-2.54-26.2 0-1.87.21-9.06 3.26-8.17 1.9.56 3.45 1.34 5.5 1.44a16 16 0 0 0 5.8-.82Z" fill="#F3F3F3"/><path opacity=".34" d="M158.93 82.53c-.22.7-.36 1.47-.19 2.2 1.26 5.56 13.33-.36 19.52-2.6.52-.2 1.06-.38 1.6-.54-1.46 0-3 .13-4.64.42-2 .35-4.31.08-5.6-1.47-2.63-3.15.79-8.72-1.96-11.76-.24-.26-.5-.48-.8-.66 3.18 5.13-6.33 9.4-7.93 14.4Z" fill="#A4A4A4"/><path d="M194.14 94.73c1.14 1.14 2 2.58 3.53 3.3 1.22.57 2.71.6 3.89 1.24.23.13.48.32.45.56-.02.22-.27.37-.5.47-2.95 1.35-6.5 1.35-9.84 1a30.17 30.17 0 0 1-8.74-2.11c-2.72-1.18-5.13-2.97-6.56-5.27-2.2-3.6 10.72-6.29 17.78.8Z" fill="#BDDA97"/><path opacity=".24" d="M201.55 99.27c-1.17-.64-2.67-.68-3.88-1.25-1.54-.72-2.4-2.15-3.53-3.3a14.78 14.78 0 0 0-5.95-3.6l.04.39c.04.66-.13 1.34-.58 1.89-.23.28-.55.55-.96.62-.85.15-1.64-.47-2.16-.97a9.69 9.69 0 0 1-1.95-2.78c-4.26.05-7.4 1.72-6.2 3.64 1.42 2.3 3.83 4.1 6.55 5.27a30.03 30.03 0 0 0 8.74 2.11c3.34.36 6.89.36 9.83-.99.23-.1.49-.25.51-.48.02-.23-.22-.43-.46-.56Z" fill="#93BC82"/><path d="M128.62 77.99c1.54.77 3.34.8 5.06.76a92.8 92.8 0 0 0 12.51-1.11c2.34-.37 4.77-.83 7.03-.14 2.27.68 4.26 2.95 3.73 5.25-.21.95-.83 1.88-.58 2.83.32 1.17 1.74 1.6 2.95 1.71 3.42.34 6.88-.12 10.28.3a20.3 20.3 0 0 1 11.23 5.19c1.3 1.2 2.49 2.66 2.79 4.4.1.55.09 1.16-.24 1.6-.49.7-1.46.76-2.31.75-18.2-.06-36.4-1.21-54.47-3.44-.2-.03-.42-.06-.57-.2-.17-.14-.22-.36-.27-.58a99.77 99.77 0 0 1-2.36-17.72c-.02-.8.36-5.16 2.08-3.6.51.45.66 1.61 1.09 2.21a5.66 5.66 0 0 0 2.05 1.8v-.01Z" fill="#74A352"/><path opacity=".34" d="M128.62 77.99c1.54.77 3.34.8 5.06.76a92.8 92.8 0 0 0 12.51-1.11c2.34-.37 4.77-.83 7.03-.14 2.27.68 4.26 2.95 3.73 5.25-.21.95-.83 1.88-.58 2.83.32 1.17 1.74 1.6 2.95 1.71 3.42.34 6.88-.12 10.28.3a20.3 20.3 0 0 1 11.23 5.19c1.3 1.2 2.49 2.66 2.79 4.4.1.55.09 1.16-.24 1.6-.49.7-1.46.76-2.31.75-18.2-.06-36.4-1.21-54.47-3.44-.2-.03-.42-.06-.57-.2-.17-.14-.22-.36-.27-.58a99.77 99.77 0 0 1-2.36-17.72c-.02-.8.36-5.16 2.08-3.6.51.45.66 1.61 1.09 2.21a5.66 5.66 0 0 0 2.05 1.8v-.01Z" fill="#93BC82"/><path opacity=".34" d="M128.62 77.99c1.54.77 3.34.8 5.06.76a92.8 92.8 0 0 0 12.51-1.11c2.34-.37 4.77-.83 7.03-.14 2.27.68 4.26 2.95 3.73 5.25-.21.95-.83 1.88-.58 2.83.32 1.17 1.74 1.6 2.95 1.71 3.42.34 6.88-.12 10.28.3a20.3 20.3 0 0 1 11.23 5.19c1.3 1.2 2.49 2.66 2.79 4.4.1.55.09 1.16-.24 1.6-.49.7-1.46.76-2.31.75-18.2-.06-36.4-1.21-54.47-3.44-.2-.03-.42-.06-.57-.2-.17-.14-.22-.36-.27-.58a99.77 99.77 0 0 1-2.36-17.72c-.02-.8.36-5.16 2.08-3.6.51.45.66 1.61 1.09 2.21a5.66 5.66 0 0 0 2.05 1.8v-.01Z" fill="#93BC82"/><path opacity=".5" d="M123.4 77.6a99.93 99.93 0 0 0 2.36 17.72c.05.2.1.44.27.58.15.14.36.17.57.2a458.2 458.2 0 0 0 54.47 3.44c.84 0 1.82-.06 2.31-.75.32-.45.33-1.06.24-1.6-.3-1.75-1.49-3.21-2.79-4.41a20.3 20.3 0 0 0-5.53-3.62c-2.03 2.32-6.3 4.1-14.92 3.5-2.15-.14-5.07-.98-5.34-3.5-.09-.78.52-2.36 1.28-4.17.04-.74.46-1.48.64-2.23.39-1.7-.6-3.37-2.04-4.41-4.04 2.43-10.65 5.65-15.14 2.12a5.18 5.18 0 0 1-1.44-1.92c-1.55.1-3.1.18-4.66.21-1.72.04-3.52.01-5.06-.76a5.64 5.64 0 0 1-2.05-1.79c-.42-.6-.57-1.76-1.08-2.21a1.44 1.44 0 0 0-.6-.33c-1.22-.18-1.51 3.23-1.48 3.92Z" fill="#74A352"/><path d="m165.03 95.57-15.79-.5-11.6-.35-13.92-.43-17.5-.54v-.01l.54-17.27.4-13.02c2.64-.1 5.34.06 7.9.15 2.2.08 4.39.22 6.58.43a9.5 9.5 0 0 1 1.65.28l.05.02.15.04.12.04.17.06.1.04.1.04c.78.33 1.41.85 1.62 1.66.18.72-.02 1.58.45 2.15.4.5 1.13.56 1.7.82 1.6.7 1.99 2.91 1.38 4.56-.21.58-.52 1.18-.41 1.79.16.88 1.12 1.37 2.01 1.48H130.83l.28.02c.51.02 1.03-.02 1.53 0 .32.01.64.05.95.13 1.83.5 2.74 2.5 3.5 4.25.75 1.74 1.94 3.68 3.84 3.79h.27c.22 0 .44-.02.65-.03h.25a2.05 2.05 0 0 1 .7.13c.53.22.86.75 1.24 1.19.3.34.65.63 1.01.88.4.26.85.47 1.3.64 1.58.56 3.43.62 5.14.64 1.22.01 2.51.07 3.72.34l.16.03a9.09 9.09 0 0 1 .91.27l.16.05.2.08c.85.36 1.62.87 2.2 1.63.76 1 1.15 2.36 2.25 2.96a3.22 3.22 0 0 0 .86.31 15.17 15.17 0 0 0 .76.18 6.97 6.97 0 0 1 .5.14l.12.04.2.08.18.07.1.05a7.48 7.48 0 0 1 .3.13l.03.02.17.09a3.91 3.91 0 0 1 .46.27l.1.06.13.09h.02l.02.02ZM165.04 95.57Z" fill="#BDDA97"/><path opacity=".34" d="M165.04 95.55h-.03l-58.79-1.81.52-17.28h.02c.25.23.52.43.82.6a8.41 8.41 0 0 0 3.91 1.07c2.7.08 5.23-1.1 7.54-2.4 1.1-.6 2.16-1.32 3.02-2.24a8.5 8.5 0 0 0 1.9-3.17c.4-1.25.29-2.5.02-3.75a12.17 12.17 0 0 0-.68-2.26c.01 0 .03 0 .05.02.05 0 .1.02.15.04l.12.04.17.06.1.04.1.04c.78.33 1.4.84 1.61 1.66.19.72-.02 1.57.45 2.15.4.5 1.12.55 1.7.82 1.6.7 1.98 2.91 1.38 4.56-.21.58-.53 1.17-.41 1.79.15.88 1.12 1.37 2.02 1.48h.09l.3.02c.5.02 1.02-.02 1.53 0 .31.01.62.05.93.13 1.83.5 2.74 2.5 3.5 4.25.76 1.74 1.95 3.68 3.84 3.79H141.21l.64-.03h.25a2.05 2.05 0 0 1 .33.03c-.51.4-1 .83-1.46 1.28a4.98 4.98 0 0 0-1.54 2.8c-.13 1.02.22 2 1 2.68a5.01 5.01 0 0 0 2.86 1.1c.74.05 1.47-.13 2.1-.54 1.19-.78-.5-3.6-.33-5.16 1.78 1.17 4.22 1.26 6.44 1.29 1.14 0 2.36.06 3.5.29 1.52.3 2.91.9 3.84 2.1.75 1 1.15 2.36 2.24 2.97.38.2.8.3 1.2.39l.22.04a7.06 7.06 0 0 1 2.54 1.11Z" fill="#93BC82"/><path d="M167.08 98.42c-.1.59-.66.98-1.2 1.24-3.76 1.84-8.22 1.13-12.36.46a531.3 531.3 0 0 0-33.7-4.21 24.9 24.9 0 0 1 3.9-1.62c.36-.1.73-.17 1.11-.2.58-.03 1.16.02 1.74.04 1 .03 1.95-.12 2.66-.89.23-.24.4-.5.74-.6.59-.15 1.2 0 1.76.17.6.19 1.17.41 1.75.6l1.97.65c.73.24 1.46.46 2.2.66.57.16 1.15.4 1.75.42 9.28.2 7-6.9 6.96-7.14 1.57.57 3.42.63 5.13.64 1.22.02 2.51.07 3.72.34l.16.03a9.25 9.25 0 0 1 .91.27l.16.05.2.08c.85.36 1.61.88 2.2 1.63.75 1 1.15 2.36 2.24 2.96a3.06 3.06 0 0 0 .86.31l.35.08.2.05a7.05 7.05 0 0 1 .64.17l.07.02.12.05.2.07.19.07.1.05.12.05.17.08.04.02a3.47 3.47 0 0 1 .32.18 6.6 6.6 0 0 1 .41.25l.12.08.04.03c.6.41 1.13.92 1.57 1.5.3.4.56.86.48 1.35v.01Z" fill="#74A352"/></g><path d="M179.4 33.95h-.04l-3.66-.67 3.67.67h.04Zm.82.42.03.03-.01-.01-.02-.02Zm-.83-.42h.02-.02Zm-.02 0h.02-.02Zm2.94 2.01a.2.2 0 0 0 0-.05V35.73l-.01-.08v-.02l-.01-.06v-.04l-.01-.05v-.04l-.01-.02v-.04l-.02-.09v-.03l-.01-.02v-.03l-.03-.07v-.04l-.02-.05v-.03l-.03-.08v-.03l-.02-.04v-.03l-.01-.02v-.01l-.01-.02-.01-.02-.01-.04-.03-.09-.02-.03v-.02l-.05-.1c0-.01 0-.03-.02-.04a.38.38 0 0 0-.02-.05l-.05-.1v-.02a.15.15 0 0 0-.03-.04v-.02l-.02-.03-.02-.02-.01-.03-.02-.03-.01-.02-.02-.04-.02-.02v-.01l-.01-.02h-.01v-.03l-.03-.03v-.01l-.03-.04a2.5 2.5 0 0 0-.04-.05l-.01-.02-.01-.02-.06-.08-.02-.02a.1.1 0 0 0-.02-.03l-.02-.02-.02-.03-.02-.02a1.59 1.59 0 0 0-.12-.14l-.01-.02h-.02v-.01l-.03-.03c0-.02-.02-.03-.03-.04l-.03-.03a.38.38 0 0 0-.03-.02l-.05-.06-.02-.02a.53.53 0 0 0-.07-.06.12.12 0 0 0-.03-.02l-.02-.02a.6.6 0 0 0-.08-.06l-.02-.02-.02-.01-.03-.02a.72.72 0 0 0-.1-.07l-.03-.03-.04-.03h-.01l-.03-.02-.05-.04-.04-.02a.34.34 0 0 1-.04-.03l-.03-.01-.1-.05-.02-.02h-.01l-.02-.01h-.01a.6.6 0 0 0-.07-.04l-.09-.04-.05-.02a2.46 2.46 0 0 0-.18-.06h-.01l-.01-.01a.38.38 0 0 0-.05-.02l-.06-.01-.04-.02H179.7l-.06-.02-.1-.02h-.02l-13.58-2.47-.13-.03-1.48-.27-9.76-1.77h-.05v-.01h-.02l-.05-.01-.08-.01h-.01l-.1-.02h-.38c-.07 0-.16 0-.23.02a2.98 2.98 0 0 0-2.44 2.18c-.06.21-.1.44-.13.67l-.1.93-5.92 60.25c-.05.45-.01.9.1 1.33a3.9 3.9 0 0 0 .5 1.12l.07.11.08.1.02.04.06.07.08.1.07.07.09.1.1.1.03.03a3.13 3.13 0 0 0 .33.26 3.32 3.32 0 0 0 .54.3l.08.04.04.02.04.01.1.04.05.01.18.06h.02l.19.04 17.19 3.13 7.51 1.36.3.06a2.86 2.86 0 0 0 .8.03h.04l.05-.01h.01l.14-.02a3.5 3.5 0 0 0 .6-.2h.03l.03-.02h.03l.08-.05.07-.04h.02l.07-.05h.01V100l.16-.1.07-.04.03-.03.03-.03.06-.04.02-.02.07-.06.04-.04a.5.5 0 0 0 .05-.05l.02-.01a.27.27 0 0 0 .03-.04l.02-.02.02-.01v-.02l.03-.02a.97.97 0 0 0 .08-.1l.03-.03.02-.03.02-.03.02-.02v-.01l.02-.02.01-.01.01-.01v-.01l.03-.04.06-.1h.01v-.01c.02-.02.03-.03.03-.05l.01-.01.03-.06h.01v-.01l.03-.04v-.01l.01-.03.02-.03.03-.06.01-.02v-.02l.03-.03.02-.05.01-.03.02-.04v-.03h.01l.01-.03.03-.06a.6.6 0 0 0 .03-.08 2.51 2.51 0 0 0 .06-.18v-.02l.08-.35v-.03l.01-.07.02-.16 1.67-16.95.12-1.22 2.6-26.31 1.64-16.7v-.2l.01-.09v-.12h-.01Zm-9.34 62.9-2.15-.39-2.7-.49-2.51-.46-13.05-2.37-4.59-.83a1.78 1.78 0 0 1-.47-.16 1.82 1.82 0 0 1-.63-.53l-.05-.07a.45.45 0 0 1-.05-.07.94.94 0 0 1-.06-.1l-.06-.12a1.89 1.89 0 0 1-.2-.68c-.03-.15-.03-.3-.01-.45l.41-4.24 5.23-53.09.01-.1.37-3.75a1.95 1.95 0 0 1 .4-.99l.07-.09.08-.08c.36-.33.84-.5 1.35-.4l10 1.82 1.01.18 10.33 1.88 3.67.67h.05l.07.02.08.03h.03l.03.02c.04 0 .07.02.1.04h.02l.03.02.05.02.11.07c.01 0 .02 0 .03.02l.1.07h.02l.02.02.01.01.04.03.01.01.03.02.02.02.03.03v.01c.01 0 .02 0 .03.02l.02.02.02.02.03.03.03.04.03.03.03.03.02.03.05.07.1.14.01.04a.43.43 0 0 1 .05.09l.02.02v.02l.01.02.02.04.03.07.03.09.04.12.03.13v.01l.02.05v.02l.02.13v.11c.02.11.01.22 0 .33l-.43 4.42-.33 3.36-.04.43-.9 9.05-.08.9-2.63 26.6-1.14 11.6-.47 4.82c-.1 1.03-.95 1.73-1.9 1.55Zm6.43-64.9v-.01h-.04l-3.66-.67 3.67.67h.04Z" fill="#CDD5D4"/><path d="m165 98.97-17.18-3.13a2.8 2.8 0 0 1-.4-.1c-.01 0-.03 0-.04-.02a1.65 1.65 0 0 1-.1-.03l-.04-.02a2.9 2.9 0 0 1-.27-.12l-.14-.07-.25-.16a3.25 3.25 0 0 1-.32-.26l-.03-.03a4.62 4.62 0 0 1-.1-.1l-.1-.1-.15-.17-.06-.07-.02-.03a3.24 3.24 0 0 1-.38-.62 3.8 3.8 0 0 1-.37-2.05l5.94-60.26a37.51 37.51 0 0 0 1.11 3.1v.09l-5.23 53.08-.42 4.24a2.11 2.11 0 0 0 .38 1.42l.05.07a1.97 1.97 0 0 0 .56.49l.06.04h.01a1.53 1.53 0 0 0 .47.16l4.59.84 13.05 2.37 2.52.45 2.7.5c.54.62 1.11 1.24 1.7 1.85l-7.52-1.36H165ZM165.8 29.93c-.57.57-.74.74-1.43 1.29l1 .18 10.33 1.88 3.66.66.03.01a1.13 1.13 0 0 1 .24.07c.03 0 .06.02.1.04.01 0 .03 0 .05.02l.05.02.11.07c.01 0 .02 0 .03.02l.1.07.04.02.06.05c.09.07.17.15.24.24l.05.06.05.07.1.14.07.15.1.24.03.08a2.1 2.1 0 0 1 .08.8l-.43 4.43-.33 3.37-1.03 10.66 1.54-1.55 1.65-16.65.01-.16v-.12a2.83 2.83 0 0 0-.04-.65l-.03-.18c-.03-.16-.07-.3-.12-.46 0-.03-.02-.05-.03-.08 0-.03-.02-.06-.03-.08l-.01-.04-.05-.12a3.83 3.83 0 0 0-.75-1.13l-.03-.02a4 4 0 0 0-.22-.2l-.1-.09a3.13 3.13 0 0 0-.53-.33l-.05-.03a1.76 1.76 0 0 0-.36-.15l-.11-.03-.1-.03a.93.93 0 0 0-.12-.03l-13.83-2.52Z" fill="#D8E0E0"/><path d="M157 46.42a3.86 3.86 0 1 0 7.7 0 3.86 3.86 0 0 0-7.7 0Z" fill="#F7B711"/><path d="M157.94 44.66a3.86 3.86 0 0 0 6.67 2.64 3.86 3.86 0 0 0-6.56-3.53c-.07.3-.1.59-.1.9Z" fill="#FCCE70"/><path d="M157.73 50.6c-.24-.26-.37-.62-.22-.94a.91.91 0 0 1 .42-.41c.57-.33 1.3-.3 1.9-.06.62.24 1.15.65 1.67 1.07a5.12 5.12 0 0 1-1.33-1.76c-.26-.7-.13-1.59.47-2 .55-.39 1.3-.27 1.93-.07a9.3 9.3 0 0 1 3.49 2c.65.6 1.93 1.74 2.03 2.72l-10.36-.54Z" fill="#fff"/><path opacity=".64" d="M157.73 50.6c-.24-.26-.37-.62-.22-.94a.91.91 0 0 1 .42-.41c.57-.33 1.3-.3 1.91-.06.61.24 1.14.65 1.66 1.07a5.12 5.12 0 0 1-1.33-1.76c-.26-.7-.13-1.59.47-2 .55-.39 1.3-.27 1.93-.07a9.3 9.3 0 0 1 3.49 2c.65.6 1.93 1.74 2.03 2.72l-10.36-.54Z" fill="#F3F3F3"/><path d="M160.67 49.64c.2.33-.52.43-.72.43-.46 0-.91-.2-1.28-.45-.2-.14-.38-.3-.52-.49.53-.2 1.15-.15 1.69.06a3.87 3.87 0 0 1 .83.45ZM165.64 50.07c-1.26.02-2.83-.06-3.78-.98-.57-.55-1-1.47-.6-2.22.12-.23.3-.44.5-.61.28.02.55.09.8.17a9.3 9.3 0 0 1 3.5 2c.38.35.98.9 1.43 1.49-.6.12-1.24.16-1.86.16Z" fill="#fff"/><path d="M186.95 47.28c.33-2.18-.27-4.08-1.34-4.24-1.08-.16-2.21 1.48-2.54 3.66-.32 2.18.28 4.08 1.35 4.24 1.07.16 2.2-1.48 2.53-3.66Z" fill="#CDD5D4"/><path d="m185.26 51.14-.83-.15s-.9-1.8-.67-3.33c.21-1.53.77-3.55 1.63-4.15l.3-.4.83.15-1.26 7.88Z" fill="#CDD5D4"/><path d="M187.72 47.54v.01c-.25 1.53-.86 2.78-1.56 3.32-.3.22-.6.33-.9.27a.96.96 0 0 1-.39-.17 1.83 1.83 0 0 1-.56-.77 6.34 6.34 0 0 1-.25-3.35c.3-1.88 1.16-3.34 2.04-3.57a.9.9 0 0 1 .42-.02c.25.05.48.2.66.45.56.72.8 2.2.54 3.82Z" fill="#D8E0E0"/><path d="M181.15 31c.1-.63-1.59-1.4-3.77-1.73-2.17-.34-4.01-.1-4.1.52-.1.62 1.58 1.4 3.76 1.73 2.17.34 4.02.1 4.11-.52Z" fill="#CDD5D4"/><path d="M181.12 31.07s-1.83.36-3.35.12c-1.52-.25-3.8-.6-4.38-1.14l-.1-.35s.08-.67.26-.73c.13-.06.5.28.5.28l6.38.92s.83-.03.83.18c0 .3-.13.71-.13.71Z" fill="#CDD5D4"/><path d="M181.24 30.34a.71.71 0 0 1-.08.11c-.45.47-2.26.58-4.26.23-1.64-.28-2.93-.8-3.36-1.27a.75.75 0 0 1-.1-.13.37.37 0 0 1-.04-.22c0-.03 0-.06.02-.09.23-.56 2.18-.72 4.34-.34 2.16.38 3.72 1.14 3.48 1.7Z" fill="#D8E0E0"/><path d="M185.68 57.4c.33-2.18-.28-4.08-1.35-4.24-1.07-.16-2.2 1.47-2.53 3.66-.33 2.18.27 4.08 1.34 4.24 1.08.16 2.21-1.48 2.54-3.66Z" fill="#CDD5D4"/><path d="m183.98 61.26-.83-.15s-.89-1.8-.67-3.33c.22-1.53.77-3.55 1.64-4.15l.3-.4.82.15-1.26 7.88Z" fill="#CDD5D4"/><path d="M186.52 57.69c.33-2.18-.23-4.07-1.24-4.23-1.02-.15-2.11 1.5-2.44 3.67-.33 2.18.23 4.07 1.24 4.22 1.02.16 2.11-1.48 2.44-3.66Z" fill="#D8E0E0"/></svg>