<svg xmlns="http://www.w3.org/2000/svg" fill="none" viewBox="0 0 56 56"><path fill="#D7283A" d="M43.62 19.65c1.03-7.8-5.75-16.73-15.64-16.73-9.98 0-16.64 9.05-15.64 16.73.32 4.22 6.28 13.94 8.04 16.8 8.74 14.08 6.34 14.34 15.61-.73.68-1.08 7.28-11.7 7.63-16.07Z"/><path fill="#DE5153" d="M15.69 15.96a11.67 11.67 0 0 0 8-3.64c2.3-2.42 3.03-6 2.5-9.32A15.86 15.86 0 0 0 12.55 15.5c1.05.35 2.23.5 3.14.47Z"/><path fill="#982431" d="M39.4 7.8a16 16 0 0 1 .2 1.75c.47 5.42-.41 11.3-3.99 15.57-3.7 4.4-10.53 8.35-16.9 8.53.7 1.16 1.29 2.15 1.7 2.77 8.75 14.08 6.34 14.34 15.61-.73.65-1.05 7.25-11.67 7.6-16.04.53-4.13-1.08-8.56-4.22-11.84Z" opacity=".32"/><path fill="#F3F3F3" d="M27.98 25.07c3.68 0 6.66-2.96 6.66-6.61s-2.98-6.6-6.66-6.6-6.66 2.95-6.66 6.6 2.98 6.6 6.66 6.6Z"/><path fill="#BFBECB" d="M31.24 12.7a6.7 6.7 0 0 1 1.29 3.9c0 3.63-3 6.6-6.66 6.6a6.86 6.86 0 0 1-3.26-.84 6.68 6.68 0 0 0 5.37 2.7 6.65 6.65 0 0 0 6.66-6.6 6.61 6.61 0 0 0-3.4-5.76Z"/><ellipse cx="27.98" cy="54.54" fill="#000" fill-opacity=".1" rx="15.74" ry="1.46"/><path fill="#D7283A" d="M55.96 34.25c.42-3.18-2.35-6.83-6.4-6.83-4.07 0-6.79 3.7-6.38 6.83.13 1.73 2.57 5.7 3.28 6.86 3.58 5.76 2.6 5.86 6.38-.3.28-.44 2.97-4.78 3.12-6.56Z"/><path fill="#DE5153" d="M44.55 32.74a4.77 4.77 0 0 0 3.27-1.48 4.51 4.51 0 0 0 1.02-3.8 6.48 6.48 0 0 0-5.58 5.1c.44.13.92.2 1.29.18Z"/><path fill="#982431" d="M54.23 29.41c.04.23.07.47.09.72.19 2.2-.17 4.61-1.63 6.36-1.51 1.8-4.3 3.41-6.9 3.48.28.48.52.88.69 1.13 3.57 5.75 2.59 5.86 6.37-.3.27-.42 2.96-4.76 3.1-6.55a6.04 6.04 0 0 0-1.72-4.84Z" opacity=".32"/><path fill="#F3F3F3" d="M49.57 36.46c1.5 0 2.72-1.2 2.72-2.7 0-1.48-1.22-2.7-2.72-2.7-1.5 0-2.72 1.22-2.72 2.7a2.7 2.7 0 0 0 2.72 2.7Z"/><path fill="#BFBECB" d="M50.9 31.41c.32.45.53 1 .53 1.6a2.72 2.72 0 0 1-4.05 2.35 2.73 2.73 0 0 0 2.19 1.1 2.7 2.7 0 0 0 1.33-5.05Z"/><ellipse cx="49.48" cy="48.98" fill="#000" fill-opacity=".1" rx="6.34" ry=".63"/><path fill="#D7283A" d="M12.82 34.25c.42-3.18-2.35-6.83-6.4-6.83-4.07 0-6.79 3.7-6.38 6.83.13 1.73 2.56 5.7 3.29 6.86 3.57 5.76 2.58 5.86 6.37-.3.28-.44 2.97-4.78 3.12-6.56Z"/><path fill="#DE5153" d="M1.4 32.74a4.77 4.77 0 0 0 3.28-1.48 4.51 4.51 0 0 0 1.02-3.8 6.48 6.48 0 0 0-5.58 5.1c.44.13.92.2 1.29.18Z"/><path fill="#982431" d="m11.1 29.41.08.72c.19 2.2-.17 4.61-1.63 6.36-1.51 1.8-4.3 3.41-6.9 3.48.28.48.52.88.69 1.13 3.57 5.75 2.59 5.86 6.37-.3.27-.42 2.96-4.76 3.1-6.55a6.05 6.05 0 0 0-1.72-4.84Z" opacity=".32"/><path fill="#F3F3F3" d="M6.43 36.46a2.7 2.7 0 0 0 2.72-2.7 2.7 2.7 0 0 0-2.72-2.7c-1.5 0-2.72 1.22-2.72 2.7a2.7 2.7 0 0 0 2.72 2.7Z"/><path fill="#BFBECB" d="M7.76 31.41c.32.45.53 1 .53 1.6a2.72 2.72 0 0 1-4.05 2.35 2.73 2.73 0 0 0 2.19 1.1 2.7 2.7 0 0 0 1.33-5.05Z"/><ellipse cx="6.34" cy="48.98" fill="#000" fill-opacity=".1" rx="6.34" ry=".63"/></svg>