<svg width="98" height="96" viewBox="0 0 98 96" fill="none" xmlns="http://www.w3.org/2000/svg">
<path d="M75.7946 33.6879C77.5562 20.3168 65.9294 5 48.9674 5C31.8543 5 20.4288 20.5164 22.1401 33.6879C22.6938 40.9222 32.9113 57.5861 35.9313 62.4755C50.9303 86.6233 46.8031 87.0723 62.7082 61.2282C63.8658 59.3822 75.1906 41.1717 75.7946 33.6879Z" fill="#D7283A"/>
<path d="M27.8779 27.3517C32.9615 27.3018 38.1457 24.7573 41.6187 21.1152C45.5446 16.9741 46.8029 10.8374 45.8969 5.14973C33.4145 6.54671 24.5056 16.3255 22.4923 26.5534C24.3043 27.1521 26.3176 27.4016 27.8779 27.3517Z" fill="#DE5153"/>
<path opacity="0.32" d="M68.5466 13.3816C68.6976 14.3296 68.8486 15.3274 68.8989 16.3751C69.7042 25.655 68.1942 35.7332 62.0537 43.0673C55.7118 50.601 43.9843 57.3863 33.0621 57.6857C34.2701 59.6814 35.2768 61.3777 35.9814 62.4254C50.9805 86.5731 46.8532 87.0222 62.7583 61.1781C63.8656 59.382 75.1905 41.1715 75.7945 33.6877C76.7004 26.603 73.9322 19.0194 68.5466 13.3816Z" fill="#982431"/>
<path d="M48.9675 42.9678C55.2776 42.9678 60.393 37.8972 60.393 31.6423C60.393 25.3874 55.2776 20.3168 48.9675 20.3168C42.6574 20.3168 37.542 25.3874 37.542 31.6423C37.542 37.8972 42.6574 42.9678 48.9675 42.9678Z" fill="#F3F3F3"/>
<path d="M54.5544 21.7637C55.9133 23.6596 56.769 25.9546 56.769 28.4492C56.769 34.6857 51.6351 39.7747 45.3435 39.7747C43.3302 39.7747 41.4176 39.2259 39.7566 38.3278C41.8202 41.1218 45.1925 42.9678 48.9674 42.9678C55.259 42.9678 60.3929 37.8788 60.3929 31.6423C60.3929 27.4015 58.0273 23.7095 54.5544 21.7637Z" fill="#BFBECB"/>
<ellipse cx="48.9708" cy="93.5" rx="27" ry="2.5" fill="black" fill-opacity="0.1"/>
<path d="M96.9571 58.7186C97.6767 53.2567 92.9273 47 85.9985 47C79.0081 47 74.3409 53.3382 75.04 58.7186C75.2661 61.6737 79.4399 68.4807 80.6735 70.478C86.8004 80.342 85.1145 80.5254 91.6115 69.9685C92.0843 69.2144 96.7104 61.7756 96.9571 58.7186Z" fill="#D7283A"/>
<path d="M77.3839 56.1302C79.4605 56.1098 81.5782 55.0704 82.9968 53.5826C84.6005 51.8911 85.1145 49.3843 84.7444 47.061C79.6455 47.6316 76.0064 51.6261 75.184 55.8041C75.9241 56.0486 76.7465 56.1505 77.3839 56.1302Z" fill="#DE5153"/>
<path opacity="0.32" d="M93.9965 50.4237C94.0582 50.8109 94.1198 51.2185 94.1404 51.6465C94.4694 55.4372 93.8526 59.554 91.3442 62.5499C88.7536 65.6273 83.9631 68.399 79.5016 68.5213C79.995 69.3365 80.4062 70.0294 80.6941 70.4574C86.821 80.3214 85.1351 80.5049 91.6321 69.9479C92.0844 69.2142 96.7104 61.7755 96.9571 58.7184C97.3272 55.8245 96.1964 52.7267 93.9965 50.4237Z" fill="#982431"/>
<path d="M85.9987 62.5091C88.5763 62.5091 90.6658 60.4379 90.6658 57.8828C90.6658 55.3278 88.5763 53.2565 85.9987 53.2565C83.4211 53.2565 81.3315 55.3278 81.3315 57.8828C81.3315 60.4379 83.4211 62.5091 85.9987 62.5091Z" fill="#F3F3F3"/>
<path d="M88.2808 53.8476C88.8359 54.622 89.1854 55.5595 89.1854 56.5785C89.1854 59.1261 87.0883 61.2048 84.5183 61.2048C83.6959 61.2048 82.9146 60.9807 82.2361 60.6138C83.079 61.7551 84.4566 62.5092 85.9986 62.5092C88.5686 62.5092 90.6657 60.4304 90.6657 57.8829C90.6657 56.1506 89.6994 54.6424 88.2808 53.8476Z" fill="#BFBECB"/>
<ellipse cx="85.8446" cy="83.9709" rx="10.8738" ry="1.08738" fill="black" fill-opacity="0.1"/>
<path d="M22.9571 58.7186C23.6767 53.2567 18.9273 47 11.9985 47C5.0081 47 0.340943 53.3382 1.03999 58.7186C1.26615 61.6737 5.43986 68.4807 6.67347 70.478C12.8004 80.342 11.1145 80.5254 17.6115 69.9685C18.0843 69.2144 22.7104 61.7756 22.9571 58.7186Z" fill="#D7283A"/>
<path d="M3.38389 56.1302C5.46047 56.1098 7.57816 55.0704 8.99681 53.5826C10.6005 51.8911 11.1145 49.3843 10.7444 47.061C5.64551 47.6316 2.00637 51.6261 1.18396 55.8041C1.92412 56.0486 2.74653 56.1505 3.38389 56.1302Z" fill="#DE5153"/>
<path opacity="0.32" d="M19.9965 50.4237C20.0582 50.8109 20.1198 51.2185 20.1404 51.6465C20.4694 55.4372 19.8526 59.554 17.3442 62.5499C14.7536 65.6273 9.96314 68.399 5.50159 68.5213C5.99503 69.3365 6.40623 70.0294 6.69407 70.4574C12.821 80.3214 11.1351 80.5049 17.6321 69.9479C18.0844 69.2142 22.7104 61.7755 22.9571 58.7184C23.3272 55.8245 22.1964 52.7267 19.9965 50.4237Z" fill="#982431"/>
<path d="M11.9987 62.5091C14.5763 62.5091 16.6658 60.4379 16.6658 57.8828C16.6658 55.3278 14.5763 53.2565 11.9987 53.2565C9.4211 53.2565 7.33154 55.3278 7.33154 57.8828C7.33154 60.4379 9.4211 62.5091 11.9987 62.5091Z" fill="#F3F3F3"/>
<path d="M14.2808 53.8476C14.8359 54.622 15.1854 55.5595 15.1854 56.5785C15.1854 59.1261 13.0883 61.2048 10.5183 61.2048C9.69586 61.2048 8.91457 60.9807 8.23608 60.6138C9.07905 61.7551 10.4566 62.5092 11.9986 62.5092C14.5686 62.5092 16.6657 60.4304 16.6657 57.8829C16.6657 56.1506 15.6994 54.6424 14.2808 53.8476Z" fill="#BFBECB"/>
<ellipse cx="11.8446" cy="83.9709" rx="10.8738" ry="1.08738" fill="black" fill-opacity="0.1"/>
</svg>
