<svg xmlns="http://www.w3.org/2000/svg" fill="none" viewBox="0 0 56 56">
  <path fill="#D7283A" d="M43.62 19.651c1.028-7.8-5.75-16.734-15.639-16.734-9.977 0-16.637 9.051-15.64 16.734.323 4.22 6.28 13.941 8.04 16.793 8.744 14.086 6.338 14.348 15.61-.727.675-1.077 7.278-11.7 7.63-16.066Z"/>
  <path fill="#DE5153" d="M15.686 15.955c2.964-.029 5.986-1.513 8.011-3.638 2.289-2.415 3.022-5.995 2.494-9.313-7.277.815-12.47 6.52-13.644 12.486 1.056.349 2.23.494 3.14.465Z"/>
  <path fill="#982431" d="M39.395 7.806c.088.553.176 1.135.206 1.746.47 5.414-.411 11.292-3.991 15.57-3.697 4.395-10.534 8.353-16.901 8.528.704 1.164 1.29 2.154 1.701 2.765 8.745 14.086 6.338 14.348 15.61-.728.646-1.047 7.248-11.67 7.6-16.036.529-4.133-1.085-8.556-4.225-11.845Z" opacity=".32"/>
  <path fill="#F3F3F3" d="M27.98 25.065c3.68 0 6.662-2.958 6.662-6.607s-2.982-6.606-6.661-6.606c-3.679 0-6.66 2.957-6.66 6.606s2.981 6.607 6.66 6.607Z"/>
  <path fill="#BFBECB" d="M31.238 12.695c.792 1.107 1.291 2.445 1.291 3.9 0 3.638-2.993 6.607-6.66 6.607a6.86 6.86 0 0 1-3.258-.844 6.684 6.684 0 0 0 5.37 2.707c3.668 0 6.66-2.969 6.66-6.607 0-2.474-1.378-4.627-3.403-5.762Z"/>
  <ellipse cx="27.983" cy="54.542" fill="#000" fill-opacity=".1" rx="15.74" ry="1.458"/>
  <path fill="#D7283A" d="M55.958 34.253c.42-3.186-2.35-6.836-6.389-6.836-4.075 0-6.796 3.697-6.388 6.836.132 1.723 2.565 5.694 3.284 6.86 3.572 5.753 2.59 5.86 6.377-.298.275-.44 2.972-4.78 3.116-6.562Z"/>
  <path fill="#DE5153" d="M44.547 32.743c1.211-.012 2.446-.619 3.273-1.486.934-.987 1.234-2.45 1.018-3.805-2.972.333-5.094 2.663-5.573 5.1.431.143.91.203 1.282.19Z"/>
  <path fill="#982431" d="M54.232 29.414c.036.226.072.463.084.713.192 2.212-.168 4.613-1.63 6.36-1.51 1.796-4.303 3.413-6.904 3.484.288.475.527.88.695 1.13 3.572 5.753 2.59 5.86 6.377-.298.263-.428 2.96-4.767 3.104-6.55.216-1.689-.443-3.496-1.726-4.84Z" opacity=".32"/>
  <path fill="#F3F3F3" d="M49.57 36.464c1.502 0 2.72-1.209 2.72-2.699 0-1.49-1.218-2.699-2.72-2.699-1.503 0-2.721 1.209-2.721 2.7 0 1.49 1.218 2.698 2.72 2.698Z"/>
  <path fill="#BFBECB" d="M50.9 31.411c.324.452.527.999.527 1.593 0 1.486-1.222 2.699-2.72 2.699-.48 0-.935-.13-1.33-.345a2.73 2.73 0 0 0 2.192 1.106c1.499 0 2.721-1.213 2.721-2.699 0-1.01-.563-1.89-1.39-2.354Z"/>
  <ellipse cx="49.48" cy="48.983" fill="#000" fill-opacity=".1" rx="6.339" ry=".634"/>
  <path fill="#D7283A" d="M12.818 34.253c.42-3.186-2.35-6.836-6.39-6.836-4.074 0-6.795 3.697-6.388 6.836.132 1.723 2.565 5.694 3.285 6.86 3.571 5.753 2.589 5.86 6.376-.298.276-.44 2.973-4.78 3.117-6.562Z"/>
  <path fill="#DE5153" d="M1.407 32.743c1.21-.012 2.445-.619 3.272-1.486.935-.987 1.235-2.45 1.019-3.805-2.973.333-5.094 2.663-5.574 5.1.432.143.911.203 1.283.19Z"/>
  <path fill="#982431" d="M11.092 29.414c.035.226.072.463.083.713.192 2.212-.167 4.613-1.63 6.36-1.51 1.796-4.303 3.413-6.904 3.484.288.475.528.88.696 1.13 3.571 5.753 2.589 5.86 6.376-.298.264-.428 2.96-4.767 3.105-6.55.215-1.689-.444-3.496-1.726-4.84Z" opacity=".32"/>
  <path fill="#F3F3F3" d="M6.429 36.464c1.503 0 2.72-1.209 2.72-2.699 0-1.49-1.217-2.699-2.72-2.699-1.503 0-2.72 1.209-2.72 2.7 0 1.49 1.217 2.698 2.72 2.698Z"/>
  <path fill="#BFBECB" d="M7.76 31.411c.323.452.527.999.527 1.593 0 1.486-1.223 2.699-2.721 2.699-.48 0-.935-.13-1.33-.345a2.73 2.73 0 0 0 2.193 1.106c1.498 0 2.72-1.213 2.72-2.699 0-1.01-.563-1.89-1.39-2.354Z"/>
  <ellipse cx="6.339" cy="48.983" fill="#000" fill-opacity=".1" rx="6.339" ry=".634"/>
</svg>
