<svg id="social_apple" viewBox="0 0 15 15" fill="#cccccc">
    <path id="a" d="M9.71392487,3.4619702 C10.1999732,2.89864476 10.5276008,2.11398907 10.4379414,1.33333333 C9.73751945,1.35999963 8.89013699,1.7806604 8.38790951,2.3433192 C7.93691598,2.84264554 7.54322358,3.64063437 7.64906212,4.40595699 C8.43037976,4.46395618 9.22787654,4.02596231 9.71392487,3.4619702 M11.4659909,8.41656751 C11.4855407,10.4345393 13.3131094,11.1058632 13.3333333,11.1145297 C13.3185025,11.1618624 13.0414347,12.071183 12.3706745,13.0111699 C11.7902478,13.8231585 11.188249,14.6318138 10.2397469,14.6491469 C9.30809811,14.6658134 9.00810988,14.119821 7.94230903,14.119821 C6.87718231,14.119821 6.54416167,14.6318138 5.66239854,14.6658134 C4.74692886,14.6984796 4.04920345,13.787159 3.46473201,12.977837 C2.26882391,11.3225268 1.35537662,8.29990248 2.58229475,6.25993104 C3.19170902,5.24727855 4.28043032,4.60528753 5.46285581,4.58928776 C6.36147222,4.57262132 7.21020294,5.16861298 7.75961957,5.16861298 C8.30903621,5.16861298 9.34045639,4.45195635 10.4244588,4.5572882 C10.8781488,4.57528795 12.1522561,4.73261908 12.9699768,5.87993636 C12.903912,5.91926914 11.4498118,6.72992446 11.4659909,8.41656751" />
</svg>
