<svg xmlns="http://www.w3.org/2000/svg" width="320" height="194" fill="none"><g clip-path="url(#a)"><path fill="#FEFEF6" d="M0 0h320v194H0z"/><path stroke="#E3BD00" stroke-miterlimit="10" stroke-width="2" d="M47.96 46.91S24.93 114.57 20.26 160"/><path fill="#F9D563" d="M53.88 26.72a15.6 15.6 0 0 1-9.47-2.5c-13.93-8.85-17.69-33.83-2.13-42.84C56.92-28.3 77.62-15.83 75.7 1.82c-1 11.22-10.6 24.1-21.82 24.9Z"/><path fill="#C3213C" d="M53.88 26.72C39.91 27.3 31.14 10.49 32.1-1.94a21.93 21.93 0 0 1 23.7-19.94C36.2-6.36 63.64 26.26 75.36 4.28c-1.96 10.34-11.1 21.77-21.48 22.44Z" opacity=".13"/><path fill="#C3213C" d="M71.82 13.58c-4 7-10.68 12.68-17.94 13.14-21.28.12-30.16-35.04-11.6-45.34 0 0-14.51 24.1 11.64 34.24 7.3 2.8 13.73.55 17.9-2.04Z" opacity=".13"/><path fill="#F9D563" d="M-.66 47.71a19.5 19.5 0 0 1-11.85-3.13C-29.95 33.5-34.64 2.25-15.18-9.02c18.33-12.11 44.21 3.5 41.81 25.57-1.25 14.04-13.25 30.17-27.3 31.16Z"/><path fill="#EADF59" d="M8.07 3.03C7.78-.27 9.32-3.11 11.5-3.3c2.18-.19 4.19 2.33 4.48 5.64.28 3.3-1.25 6.13-3.43 6.32-2.19.2-4.19-2.33-4.48-5.63Z" opacity=".45"/><path fill="#C3213C" d="M-.66 47.71c-17.49.73-28.45-20.3-27.25-35.86A27.44 27.44 0 0 1 1.74-13.1c-24.54 19.42 9.8 60.24 24.48 32.73C23.76 32.57 12.33 46.88-.66 47.71Z" opacity=".13"/><path fill="#C3213C" d="M21.78 31.27C16.77 40.04 8.42 47.14-.66 47.7c-26.62.16-37.74-43.84-14.51-56.74 0 0-18.17 30.17 14.56 42.86 9.13 3.5 17.17.67 22.39-2.56Z" opacity=".13"/><path fill="#4398B5" d="M51.19 65.97a3.41 3.41 0 0 1-1.42-4.6c.15-.3.37-.6.63-.9l1.83-1.82c.64.44 1.28.86 1.99 1.23.7.37 1.42.67 2.16.9l-.07.56-.19 1.83a3.44 3.44 0 0 1-4.93 2.8Z"/><path fill="#4F596C" d="M56.35 61.34s-.83-.08-1.5-.49c-.37-.22-.75-.07-1 .08l-1.1 2.13-.3-.15 1.13-2.17c0-.79-.6-.56-1.12-.19l-2.02 2.25-.22-.23 1.75-1.94c.53-1.27-1.57-.19-1.57-.19l1.83-1.83c.64.45 1.28.86 1.99 1.23.7.38 1.42.68 2.16.9l-.03.6Z" opacity=".25"/><path fill="#3C8FC5" d="M86.52 45.86c-4.75 9.23-16.67 16.94-26.84 15.78-23.3-3.63-19.82-45.14 2.87-47.9 4.72-.9 9.73-.26 14.33 2.1a22.29 22.29 0 0 1 9.64 30.02Z"/><path fill="#253A62" d="M59.68 61.67c-23.3-3.62-19.82-45.13 2.87-47.9-15.18 9.54 15.19 16.3 3.63 32.39-2.1 2.58-5.3 4.26-6.92 7.21a8.44 8.44 0 0 0 .42 8.3Z" opacity=".25"/><path fill="#7CD1D1" d="M76.8 35.08c-2.1-.34-3.41-3.12-2.92-6.22.5-3.1 2.6-5.34 4.7-5 2.1.33 3.4 3.11 2.9 6.21-.48 3.1-2.59 5.34-4.69 5ZM77.74 39.62c-.66-.6-.48-1.86.4-2.83.87-.96 2.1-1.26 2.77-.66.65.6.48 1.86-.4 2.83-.87.96-2.11 1.26-2.77.66Z" opacity=".45"/><path fill="#EE7782" d="M36.45 74.01a4.14 4.14 0 0 1-4.13-4.13c0-.41.05-.87.23-1.29l.96-2.93c.92.13 1.89.22 2.85.22.96 0 1.93-.09 2.85-.22l.27.64.83 2.06a4.15 4.15 0 0 1-3.86 5.65Z"/><path fill="#C3213C" d="M36.54 67.26v2.85h-.4v-2.9c-.42-.87-.97-.22-1.34.47l-.96 3.44-.37-.1.82-3.02c-.13-1.66-1.79.64-1.79.64l.97-2.94c.96.14 1.88.23 2.84.23.97 0 1.93-.1 2.85-.23l.28.64s-.92.37-1.89.33c-.5-.1-.82.27-1 .6Z" opacity=".13"/><path fill="#FFCEE8" d="M39.2 65.66c-.96.13-1.88.22-2.84.22s-1.93-.09-2.85-.22a20.08 20.08 0 0 1-6.38-2.12C16.53 58.13 9 44.12 9 32.24c0-8.96 4.27-16.9 10.93-21.86A27.36 27.36 0 0 1 63.58 35.4c-.41 4-1.6 8.08-3.4 11.94-4.26 9.18-11.98 16.94-20.97 18.31Z"/><path fill="#FFFEFE" d="M42.38 24.05c-1.27-3.96-.17-7.85 2.46-8.7 2.63-.84 5.8 1.68 7.07 5.64 1.27 3.96.17 7.86-2.46 8.7-2.63.85-5.8-1.68-7.07-5.64ZM52 32.74c-.86-.44-1-1.86-.33-3.16.67-1.31 1.9-2.02 2.76-1.58.86.44 1.01 1.86.34 3.17-.67 1.3-1.91 2.01-2.77 1.57Z" opacity=".45"/><path fill="#F4546F" d="M39.2 65.66c-.96.13-1.88.22-2.84.22s-1.93-.09-2.85-.22a20.08 20.08 0 0 1-6.38-2.12C16.53 58.13 9 44.12 9 32.24c0-8.96 4.27-16.9 10.93-21.86a27.36 27.36 0 0 1 16.48-5.5S23 16.4 33.24 34.94c4.86 8.82 24.56 18.23 30.39.42-.41 4-1.6 8.08-3.4 11.93-4.31 9.23-12.03 16.99-21.02 18.37Z" opacity=".13"/><path fill="#EA3351" d="M60.19 47.34C55.92 56.52 48.2 64.28 39.2 65.65c-.97.14-1.89.23-2.85.23a20.08 20.08 0 0 1-9.23-2.34C16.53 58.13 9 44.13 9 32.24c0-8.96 4.27-16.9 10.93-21.86 0 0-6.2 31.9 18.17 41.41 9.1 3.58 17.17-.78 22.09-4.45Z" opacity=".13"/><path fill="#E3BD00" d="M39.28 64.3c.88 0 1.75-.12 2.46-.5l-.58-1.12c-1.34.67-3.88.2-4.76-.04l-.33 1.2c.08.05 1.62.47 3.2.47ZM56.63 61.39l.3-1.21c-3.18-.8-4.1-2.63-4.13-2.67l-1.13.54c.04.08 1.2 2.42 4.96 3.34Z"/><path stroke="#E3BD00" stroke-miterlimit="10" stroke-width="2" d="M54.46 59.13s-16.52 82.77-35.83 99.74M39.45 62.89S11.08 140.02 17.3 158.7"/><path fill="#74A352" d="M19.63 73.18a16.1 16.1 0 0 1-12.34 4.5c-4.5-.31-8.8-2.5-11.88-5.8-4.44-4.75-5.53-9.24-20.36-6.04-4.5.96-9.07 1.89-13.63 1.42-18.32-1.9-10.98-24.81-25.04-18.47-1.95.88-2.51 4.93-4.13 6.3-3.41 2.88-7.94-1.16-13.42-2.85-5.34-1.66-11.77-1.75-14.43 6.57l-5.4-6.78c10.8-10.72 23.62-1.1 26.1-.2 2.52.95 5.58 1.1 7.67-.6 1.3-1.06 2-2.66 3.11-3.9 8.07-9.06 22.82 4.62 27.64 7.83 3.96 2.64 8.46 4.83 13.22 4.81C.63 59.91-2.31 75.02 19.63 73.18Z"/><path fill="#3E5C2E" d="M40.1 76.37c-5.33-7.25-16.22-4.34-21.02-3.23C-.98 77.77-6.68 67.39-2.76 56.55c.11-.3.37-1.03.68-1.83 6.49-20.38-33.57-16.36-38.84-17.07-5.38-.72-9.98-2.52-11.48-9.9 7.2 9.18 7.58 10.22 18.77 9.15 6.3-.6 12.66-.34 18.94.46 2.48.32 5 .75 7.31 1.75 1.6.69 3.07 1.64 4.35 2.8a11.23 11.23 0 0 1 2.8 3.71c2.66 6.03-4.8 25 17.78 24.58 6.66-.14 20.52-1.75 22.55 6.17Z"/><path fill="#568040" d="M-2.08 54.7C4.41 34.32-35.65 38.34-40.9 37.62c-5.38-.72-9.98-2.53-11.48-9.9 7.2 9.18 7.58 10.22 18.77 9.15 6.3-.6 12.66-.35 18.94.46 2.48.32 5 .75 7.3 1.75 1.6.69 3.07 1.63 4.36 2.8a11.23 11.23 0 0 1 2.8 3.71c.82 1.85.68 4.93.75 8.28a27.11 27.11 0 0 1-2.92 4.58c-.42.52-.86 1.02-1.28 1.53.18-1.13.48-2.28.9-3.45.12-.3.37-1.03.7-1.83ZM17.54 70.2c6.67-.14 20.53-1.75 22.55 6.17-5.34-7.25-16.22-4.34-21.02-3.23C10.23 75.18 4.19 74.3.52 71.75c-3.07-5.35-2.58-11.2.03-16.66.29 7.3 2.16 15.38 16.99 15.1Z"/><path fill="#74A352" d="M1.36 60.96c1.3 4.7 4.67 8.66 13.42 9.17a10 10 0 0 1-2.3 1.08c-2.87.88-6.25.27-8.37-1.94-1.78-1.85-2.34-4.48-2.61-6.96l-.14-1.35Z"/><path fill="#3E5C2E" d="M-2.04 54.65C.8 43.75-10.05 39.37-21.2 38.24c4.14.03 10.68.54 14.45 2.24 5.86 2.66 8.52 10.43 4.72 14.17Z"/><path fill="#75A152" d="M25.27 73.4a613.92 613.92 0 0 0-6.49-4.7 9.06 9.06 0 0 0-1.74-1.09c-2.5-1.04-5.46.46-7.07 2.63-1.63 2.16-2.26 4.91-3.08 7.49-.83 2.58-2.04 5.24-4.32 6.7 3.03.25 6.12.5 9.03-.42.92-.3 1.82-.7 2.7-1.12 2.3-1.03 4.62-2.16 6.32-4.03 1.59-1.75 2.54-4.28 4.66-5.46Z"/><path fill="#568040" d="M18.78 68.7a9.07 9.07 0 0 0-2.08-1.21c-.09.8-.46 1.54-1 2.17a5.01 5.01 0 0 1-2.8 1.74c-.95.17-1.91.17-2.87.2-.34 0-.62.05-.96.1-1 1.86-1.55 4.03-2.21 6.07-.84 2.58-2.04 5.24-4.33 6.7 3.04.25 6.12.5 9.03-.41.92-.3 1.83-.71 2.7-1.12 2.3-1.04 4.62-2.17 6.32-4.04 1.63-1.83 2.58-4.32 4.7-5.5-2.2-1.58-4.36-3.16-6.53-4.7h.03Z"/><path fill="#AED888" d="M12.09 70.44c1.04-.09 2.2-.58 2.66-1.63.21-.5.25-1.04.17-1.54a7.14 7.14 0 0 0-4.78 2.75c.58.32 1.29.45 1.95.41v.01Z"/><path fill="#3E5C2E" d="M18.78 68.7a9.06 9.06 0 0 0-1.74-1.08c-.09-.05-.18-.09-.3-.09.09 1.25-.58 2.32-1.46 3.12a10 10 0 0 1-1.54 1.12c-.62.37-1.3.75-2 1-1.16.45-2.36.7-3.58.96-.5 1.29-.87 2.66-1.29 4-.83 2.57-2.04 5.23-4.32 6.7 3.03.24 6.12.49 9.02-.42.92-.3 1.83-.71 2.7-1.12 2.3-1.04 4.63-2.17 6.33-4.04 1.63-1.83 2.58-4.32 4.7-5.5-2.2-1.54-4.37-3.11-6.53-4.66Z"/><path fill="#464558" d="M27.66 206.09a61.83 61.83 0 0 1 1.75 8.4c.32 2.68.39 5.39 1.39 7.95 1 2.5 2.78 4.63 3.6 7.16.78 2.46 1.06 5 1.5 7.49a23.04 23.04 0 0 0 2.2 7.02c1.5 2.77 3.56 4.95 3.42 8.2-.14 2.95-2.1 5.66-2.53 8.58-.46 3.17.86 6.3 2.1 9.33 2.14 5.28 4 10.62 5.53 16.04.42 1.53.82 3.2-.04 4.6-1.74 2.88-2.53 5.02-2.03 8.44.6 4.2 4.95 5.49 9.05 6.73.04 0 .4 0 .86.18h.03c1.68-.07 3.35-.07 5.06-.18 1.68-.1 3.39-.14 5.02-.42.97-.15 2.04-.29 3.03-.54.6-.25 3.28-1.14 3.92-2.74 1.32-3.46-2.06-6.27-1.14-9.48.25-.82.79-1.57 1.21-2.32a8.76 8.76 0 0 0 .75-6.8c-.64-2.1-2-4-1.81-6.2.1-1.25.81-2.46.92-3.78.1-1.42 0-2.92-.14-4.38-.6-6.45-2.82-12.83-4.88-19.03-3.74-11.15-1.57-30.46-1.57-42.08 0-10.15.04-10.26-7.02-42.33-6.34-28.9-13.58-29.65-13.58-29.65s-10.47 27.58-16.28 42.59l.71-.08c-.03.08-.07.15-.07.25a71.95 71.95 0 0 0-1.24 9.59c-.08 1.6.1 3.24-.22 4.8-.28 1.5-1 2.9-1.14 4.43-.18 2.81.93 5.63 1.64 8.23Z"/><path fill="#2B2B37" d="M30.83 222.48c1 2.5 2.78 4.63 3.6 7.16 1.5 4.77 1.25 10.05 3.7 14.54 5.42 7.94 3.25 8.62.9 16.78-.47 3.17.85 6.3 2.1 9.34a155 155 0 0 1 5.52 16.03 5.9 5.9 0 0 1-.82 5.91c3.5-2.28 9.05-3.6 10.83-6.62 1.29-2.14-.03-4.96-2.35-6.27-1.5-.82-3.28-1.18-4.7-2.14-6.24-5.88-5.02-17.28-1.92-24.62 2.2-3.78 1-6.1-1.68-9.2-2.92-4.06-3.42-9.08-3.78-13.86-2.74-16.32 11.62-15.21 17.46-25.22 3.89-2.53 3.6 3.84 5.2 5.73.04-7.23.15-9.83-1.63-19.1-.25-.25-32.46.75-34.14 1.9-1.35.88-2.17 10.57-1.46 13.25a61.87 61.87 0 0 1 1.75 8.4c.32 2.71.42 5.46 1.42 7.99Z" opacity=".25"/><path fill="#2B2B37" d="M29.44 214.57c.32 2.67.4 5.38 1.4 7.94.85 2.18 2.3 4.06 3.23 6.2l-.1-.53c-.54-3.5.25-6.77 1.67-10.05 2.5-5.6 6.42-11.72 12.94-14.32 5.23-2.1 12.18-2.43 15.71-6.84a145.9 145.9 0 0 0-1.03-5.92c-.25-.25-32.46.75-34.14 1.89-1.35.85-.03 18.81.32 21.63Z" opacity=".29"/><path fill="#464558" d="M-14.99 295.42c.07 5.27 5.77 9.19 11.12 10.5 5.06 1.25 15.25.79 15.43-5.44 0-.9-.22-1.79-.29-2.68-.32-4.02 2.5-7.52 4.67-10.9 1.1-1.75 2.1-3.53 2.67-5.49.64-2.14.25-4.24.43-6.41.18-2.07 1.2-3.96 1.81-5.92 1.1-3.56 0-6.9-1.53-10.26-.35-.78-.75-1.57-1.1-2.39-.07-1.35-.25-2.67-.18-4.02.04-1.1.21-2.25.78-3.28.54-1 1.36-1.6 2.36-2.2 1-.62 1.67-1.36 1.7-2.5 0-.6-.14-1.25-.1-1.86 0-.57.1-1.1.21-1.67.57-2.42 1.82-4.67 2.46-7.06.64-2.49.82-5.1 1.4-7.62 2.1-9.55 6.69-18.96 5.3-28.83.18-1.85.21-3.67.07-5.48l-5.77-.47 1.5-13.22 3.77.29C25.84 163.54 15.22 136 15.22 136s-7.2.78-13.32 29.72c-6.66 31.46-6.74 32.2-6.7 41.76-.53 3.31-1.5 6.55-2.32 9.87-.5 2-.85 4.02-.92 6.05-.07 2.14.32 4.28.64 6.38.53 3.17.93 6.34 1.18 9.55a60.38 60.38 0 0 1-2.32 10.87c-4.13 12.61-3.03 12.43-2.67 35.84l-.43 1.07c-1.32 2.75-3.39 5.31-3.35 8.3Z"/><path fill="#2B2B37" d="M-14.95 295.42c.07 5.27 5.77 9.19 11.11 10.5 5.06 1.25 15.25.79 15.43-5.44 0-.9-.21-1.79-.28-2.68-.33-4.02 2.49-7.52 4.66-10.9.36-.57.68-1.1 1-1.67a10.48 10.48 0 0 0-7.84 1.88c-1.6 1.18-3.24 2.57-5.3 3.07a5.7 5.7 0 0 1-5.6-1.9c-1.18-1.38-1.6-3.16-1.85-4.84a35.03 35.03 0 0 1-.36-5.45c0-2.24-.07-4.45.07-6.7.21-2.74.64-5.52 1.25-8.23.57-2.5 1.25-4.92 2.35-7.27a22.79 22.79 0 0 1 1.85-3.28c.72-1.06 1.57-2.03 2.21-3.13 1.1-1.92 1.57-4.03 2.39-6.02.93-2.28 2.78-4.17 4.24-6.2 1.6-2.21 2.53-4.53 3-7.1.24-1.31.42-2.63.67-3.95.18-1 .57-2 .96-2.96a17.84 17.84 0 0 1 3.24-5.23 12.46 12.46 0 0 1 11.87-3.64c1.57-5.52 2.78-11.08 1.96-16.82.18-1.85.21-3.67.07-5.48l-5.77-.47 1.5-13.22 3.77.29c-5.88-14.97-16.5-42.5-16.5-42.5s-7.2.77-13.32 29.7c-6.67 31.47-6.74 32.22-6.7 41.77-.54 3.31-1.5 6.55-2.32 9.87-.5 2-.85 4.02-.92 6.06-.07 2.13.32 4.27.64 6.37.53 3.17.92 6.35 1.17 9.55a60.39 60.39 0 0 1-2.31 10.87c-4.14 12.61-3.03 12.43-2.67 35.84l-.43 1.07c-1.25 2.68-3.32 5.24-3.24 8.24Z" opacity=".25"/><path fill="#2B2B37" d="M-11.71 287.18c-1.25 2.71-3.28 5.24-3.24 8.27.07 5.27 5.77 9.2 11.11 10.51 5.06 1.25 15.25.79 15.43-5.45 0-.86-.18-1.71-.25-2.53-3.03.96-6.06 1.96-9.08 2.92-2.32.75-5.67 1.1-6.53-.92-.85-2.14 2.4-3.75 4.96-3.92 2.6-.18 5.84-.25 6.84-2.32-2.57-1.35-5.8.07-8.41 1.35-2.6 1.32-6.1 2.43-8.34.75-2.24-1.67-1.57-4.77-.85-7.27a65.1 65.1 0 0 0 2.6-16.7c.07-3.18-.04-6.53 1.6-9.34.82-1.43 2.07-2.64 2.67-4.14.54-1.31.57-2.74.6-4.16A50.66 50.66 0 0 1 1.2 236.4c.92-2.21 2.06-4.35 2.56-6.66 1.28-5.88-1.57-12.47 1.82-17.68 2.39-3.63 7.34-5.52 12.11-5.88 4.7-.35 9.41.5 14.08 1.1.57-3.23.78-6.51.32-9.83.1-1.17.18-2.35.14-3.52-1.6-.72-3.45-1.18-4.99-1.71-9.48-3.35-19.1-6.67-29.32-7.74h-.07c-2.78 13.69-2.82 15.93-2.78 23.02-.54 3.32-1.5 6.56-2.32 9.87-.5 2-.85 4.03-.92 6.06-.08 2.14.32 4.28.64 6.38.53 3.17.92 6.34 1.17 9.55a60.39 60.39 0 0 1-2.31 10.86c-4.14 12.62-3.03 12.44-2.68 35.85-.07.4-.21.71-.35 1.1Z" opacity=".25"/><path fill="#464558" d="M66.13 189.16c-1.95 1.34-5.07 3.44-9.6 4.1-8.12 1.2-16.98 1.46-25.5 1.26a290.3 290.3 0 0 1-20.23-1.26 38.11 38.11 0 0 1-3.73-3.76c-1.41-1.72-2.33-3.47-3.72-6.64-.84 1.39-8.82 5.9-10 6.3l-.08-.1c2.27-2.63 3.71-6.06 4.73-9.96.55-2.1.95-4.28 1.28-6.42 1.88-12.1 1.9-26.64 8.49-36.52.19-.28 43.7-.28 43.9 0 6.58 9.88 6.61 24.4 8.49 36.52.33 2.13.74 4.32 1.28 6.42 1.02 3.9 1.43 5.7 4.68 10.06Z"/><path fill="#2B2B37" d="M66.13 189.16c-1.95 1.34-5.07 3.44-9.6 4.1-8.12 1.2-16.98 1.46-25.5 1.26a290.3 290.3 0 0 1-20.23-1.26 38.22 38.22 0 0 1-3.73-3.76c-1.41-1.72-2.33-3.47-3.72-6.64-.84 1.39-8.82 5.9-10 6.3l-.08-.1c2.27-2.63 3.71-6.06 4.72-9.96.56-2.1.96-4.28 1.3-6.42.58-3.78.98-7.8 1.46-11.85 1.06-8.89 2.49-17.88 7.02-24.67.19-.27 43.7-.27 43.9 0a33.48 33.48 0 0 1 3 5.84c3.65 9.27 3.95 20.79 5.49 30.68.33 2.13.74 4.32 1.28 6.42 1.02 3.9 1.43 5.7 4.68 10.06Z" opacity=".25"/><path fill="#2B2B37" d="m31.5 193.46-.47 1.06c-7.19-.17-31.46-1.69-32.39-2.82 4.64-5.13 18.96-11.83 25.72-13.64 11.72-3 11.26 7.9 7.15 15.4Z" opacity=".25"/><path fill="#575770" d="M61.06 177.49c-15.68-9.86-18.26-24.1-5.99-34.44 3.86 10.73 3.55 23.33 5.99 34.44Z"/><path fill="#2B2B37" fill-rule="evenodd" d="M10.6 142.63s-.27.59-.38.89c-.24.6-.57 1.5-.92 2.69-.7 2.4-1.48 5.98-1.82 10.73a.27.27 0 0 1-.28.25.27.27 0 0 1-.24-.28c.34-4.8 1.13-8.42 1.84-10.85.35-1.21.69-2.13.93-2.74l.4-.93a.26.26 0 0 1 .35-.11c.13.06.18.22.12.35ZM6.2 168.77c-.3 2.24-.68 11.6-2.24 12.65-.4-.28.62-2.23.65-3.42a97.19 97.19 0 0 0 1.08-9.26c.01-.34.54-.3.51.03Z" clip-rule="evenodd"/><path fill="#2B2B37" d="M54.68 142s-42.69.75-43.87 51.26a38.22 38.22 0 0 1-3.73-3.76c-1.42-1.72-2.34-3.47-3.73-6.64-.84 1.39-8.81 5.9-10 6.3l-.08-.1C-4.46 186.44-3 183-2 179.1c.55-2.1.95-4.28 1.29-6.42.58-3.78.99-7.8 1.47-11.85 1.05-8.89 2.48-17.88 7.01-24.67.2-.27 43.7-.27 43.9 0a28.6 28.6 0 0 1 2.07 3.68c.34.7.64 1.43.93 2.17h.01Z" opacity=".25"/><path fill="#2B2B37" d="M53.74 139.84s-39.27-5.24-52.98 21c1.05-8.9 2.48-17.89 7.01-24.68.2-.27 43.71-.27 43.9 0a28.6 28.6 0 0 1 2.07 3.68Z" opacity=".25"/><path fill="#464558" d="M78.12 106.71c-4.14-.44-10.52-12.6-11.73-17.55-1.98-6.18-9.8-20.23-17.43-15.58-4.32 2.67-1.52 9.84.28 14.54 4.46 12.07-4.6 30.03 4.16 38.32 10.54 10 24.72-19.73 24.72-19.73Z"/><path fill="#2B2B37" d="M66.62 123.86c-4.23 4.24-9.02 6.57-13.23 2.59-3.7-3.51-4.21-8.76-3.91-14.54 2.7-6.34 8.55-19.25 8.22-11.54-.6 14.07 7.57 16.91 7.57 16.91l1.34 6.58h.01Z" opacity=".25"/><path fill="#2B2B37" d="M63.04 105.87s-8.33 5.9-7.35 22.12c0 0 2.6 1.4 5.52-.34 2.92-1.73 1.82-21.78 1.82-21.78Z" opacity=".25"/><path fill="#2B2B37" d="M63.01 107.37s-7.28 1.81-6.72-.72c.56-2.53 6.33-1.46 6.8-2.69.47-1.23-2.15-2.4.82-3.2 2.98-.8 6.75 3.2 6.75 3.2l-7.65 3.41Z" opacity=".25"/><path fill="#575770" d="M55.69 98.77c-.08-1.44.94-21.3-.3-25.2a3.86 3.86 0 0 0-.76-.45c-2.8-1.17-25.85-4.25-25.85-4.25-1.64-.01-15 4.32-18.2 4.6-2.2.31-4.75.8-5 .92.05 2.93-5.38 17.8-2.05 29.9 1.63 6.06-1.38 26.53-1.5 26.87l51 7.5c.06-1.88-.73-13.63.37-21.44 2.28-16.8 2.28-18.45 2.28-18.45h.01Z"/><path fill="#2B2B37" d="M16.87 78.3c3.74 5.05 9.53 2.1 15.36 3.18 12.09 2.32 17.5-1.74 17.56-9.42a630.08 630.08 0 0 1-21-3.15c-1.44 0-11.2 3-15.54 4.15 1.1.57 2.84 4.25 3.62 5.24Z" opacity=".29"/><path fill="#2B2B37" d="M55.66 74.77c-7.81-5.61-33.4 15.17-38.58-2.86 4.7-1.33 10.61-3.08 11.7-3.05.53.23 23.66 2.83 26.61 4.7.13.4.17.5.27 1.21Z" opacity=".25"/><path fill="#2B2B37" d="M55.33 97.25c-5.12-3.56-12.2 3.22-17.93 3.1-16.6-.04-21.2-12.53-25.61-26.94 0 0-7.18.67-7.88 2.2-5.26 12.35-1.24 39.63-5.25 51.02-.24.73.86 2.78 1.69 4.53l52.4 5.66a189.8 189.8 0 0 1 2.27-30.1c.51-3.72 1.4-7.9.31-9.46v-.01Z" opacity=".11"/><path fill="#2B2B37" d="M56.53 97.85c-1.35-2.81-30.58 11-37.75 4.4-5.1-4.7-4.77-21.96-8.2-28.72 0 0-8.19 1.05-8.99 3.42-2.88 8.49-1.1 30.81-3.4 37.65-1.47 4.47 14.08 20.42 14.96 22.22l39.8-1.19c-.38-10.83 1.53-26.76 3.58-37.78Z" opacity=".25"/><path fill="#2B2B37" d="M53.41 117.22c-1.1 7.85-.47 18.67-.6 20.55l-43.35-2.13s2.18-13.5 7.63-15.6c4.82-1.84 13.06-2.96 19.37-5.33 10.24-3.86 19.4-25.3 18.32-41.53 0 0 .43.23.62.39 1.23 3.9 2.92 18.5 2.8 18.05-2.5 7.15-2.46 8.84-4.8 25.6Z" opacity=".25"/><path fill="#D8D8D8" d="M51.67 82.8c.53-2.1-.85-4.47-2.48-2.2-1.28 2.8-3.3 4.9-4.85 7.46-3.84 6.44 5.68 8.6 7.33-5.27ZM25.7 88.94c-.58-1.13-8.49-9.08-9.24-8.93-1.97.66.79 5.4 1.98 6.96 6.06 8.13 8.43 6 7.25 1.96Z" opacity=".1"/><path fill="#2B2B37" d="M39.06 74.63s-.55 7.8-7.3 16.23c-.64.8 4.05 1.1 4.05 1.1l9.17-18.28-5.92.95Z" opacity=".29"/><path fill="#2B2B37" d="M10.28 80.71s3.41 8.13 1.68 16.75c-1.45 4.81-4.67 14.71-.33 17.18l-7.84.87 1.45-30.64 5.04-4.16Z" opacity=".25"/><path fill="#383848" d="M9.23 98.09s-4.34 17.97 1.49 19.04l-7.89.09 1.2-14.62 5.2-4.5v-.01Z"/><path fill="#2B2B37" d="M53.64 115.52c-.88 6.28-.8 15.52-.8 19.95l-42.51-2.36 2.12-6.87c25.32 7.31 41.51-17.82 42.53-19.44-.28 1.53-.7 4.11-1.34 8.73v-.01ZM36.03 89.91c-.4-.54-3.86-5.09-4.35-5.53-.55-.55-1.1-1.14-1.63-1.69a64.59 64.59 0 0 1-3.12-3.41 20.77 20.77 0 0 1-3.72-6.13c-.74.2-1.48.44-2.27.74 8.7 22.85 16.87 18.75 15.08 16.02Z" opacity=".25"/><path fill="#2B2B37" d="M35.19 92.93c.34-.64.7-1.24 1.09-1.83.89-1.43 1.68-2.97 2.47-4.45-10.48-4.8-10.39-8.01-17.85-17.26-.1-.1 1.48 14.69 14.3 23.54h-.01Z"/><path fill="#21212B" d="M29.1 80.22c-2.62-2.72-4.1-5.64-8.26-10.83-.04-.05-.3 4.54 3.72 11.32.49-.34 3.65-.3 4.54-.49Z"/><path fill="#575770" d="M30.24 83.04c-1.98-.4-.2 1.48.4 2.07.45.55.45 1.29.89 1.83 2.03.94 1.78-3.16-1.29-3.9Z" opacity=".3"/><path fill="#21212B" d="M34.99 84.87c-1.33 2.77-2.88 3.48-4.86 3.72 0 0 3.78 3.8 5.06 4.39a93.9 93.9 0 0 0 3.5-6.28c-1.63-.79-2.47-1.19-3.7-1.83Z"/><path fill="#2B2B37" d="M41.4 82.21c.42-1.35.72-2.7 1.2-4.1.35-1.1 2.58-4.82 3.05-5.88-3.78-1.63-30.27 51.23-34.73 59.87l10.2 3.63c1-1.25 15.46-35.87 17.33-39 .1.04 2.59-13.31 2.95-14.52Z" opacity=".25"/><path fill="#2B2B37" d="M33.83 92.92c-3.48 2.8-5.34 9.78-7.31 14.75-3.42 8.82-5.19 18.52-5.86 26.42h1.14v1.54h5.96c.26-4.48.42-9.02 1.1-13.4a68.8 68.8 0 0 1 3.41-12.59c.99-2.74 2.44-5.4 2.6-8.39.05-1.15 1.13-10.08-1.04-8.34Z" opacity=".25"/><path fill="#2B2B37" d="M43.79 70.35c-.21 5.3-20.6 35.01-22.98 63.75h1.04v1.54h6.02c2.85-12.58 7.98-30.81 10.05-35.78C46.58 79.03 45.7 70 43.78 70.35Z"/><path fill="#575770" d="M40.1 86.94c-1.13-.1-1.3 2.94-2.38 2.22 0-.53-.67-.53-.98-.25-3.06 2.36-.1 6.22 2.54 3.19.78-1.5 1.92-3.67.83-5.16Z" opacity=".3"/><path fill="#21212B" d="M43.74 82.94c3-10.7 1.4-12.83 0-12.54-.1 1.83-2.7 7.04-6.07 13.74 1.04 0 4-.14 6.07-1.2ZM36.68 95.76c-1.55.39-3.21.53-4.82.43-5.03 11.2-9.95 24.64-11.05 37.95l7.06 1.55c2.85-12.59 7.98-30.81 10.05-35.78a152 152 0 0 0 2.13-5.4c-1.09.52-2.23 1-3.37 1.25Z"/><path fill="#272734" d="M9.68 137.96c10.34 6.09 34.68 8.46 44.27 2.52.05 0 .05-.04.1-.04-.15-.94-.4-2.23-.64-3.57-.3-1.58-.54-3.17-.74-4.25-1.43.44-2.87.79-4.3 1.14-10.89 2.32-22.22.79-33.3-1.69-.78-.2-4.64-1.03-5.73-1.28-.45 1.53.44 6.92.34 7.17Z"/><path fill="#454357" d="M48.41 133.7c1.43 1.52 2.97 2.73 5 3.12-.3-1.58-.54-3.16-.74-4.25-1.39.45-2.82.84-4.25 1.14Z" opacity=".25"/><path fill="#21212B" d="M7.01 136.82c4.9 3.17 17.22 6.09 24.34 6.78.2-.34-3.05-3.54 4.76-5.39 1.23-.29 3.5-2.18 3.99-3.42-7.9 1-25.9-3.46-32.1-4.9-.5 1.64-.9 6.64-1 6.93h.01Z"/><path fill="#4C4C63" d="M10.92 132.1c-2.23 5.48-16.18 4.19-20.53 2.27-4.35-1.97-5.24-10.61-5-15.68v-.05c-.05-7.15 1.68-16.31 5-22.36 2.37-4.35 1.63-7.46 3.86-12.95 2.22-5.48 7.27-8.8 10.14-9.06 9.15-.72 5.79 19.1 4.85 23.81-.74 3.89-5.69 9.06-3.12 17.86 0 .1.05.16.05.27 6.67 1.13 6.82 10.86 4.75 15.89Z"/><path fill="#575771" d="M9.29 98.08c-.25 1.2-.85 2.49-1.54 3.99-2.87 1.14-4.55-3.68-4.5-7.77.05-4.09-3.02-8.38-.74-12.27 2.22-3.88 7.57-2.48 7.57-2.48 1.43 6.05-.2 15.47-.8 18.53Z"/><path fill="#2B2B37" d="M10.92 132.1c-2.23 5.48-16.18 4.19-20.53 2.27-4.35-1.97-5.24-10.61-5-15.68v-.05c-.05-7.15 1.68-16.31 5-22.36 2.37-4.35 1.63-7.46 3.86-12.95a16.08 16.08 0 0 1 7.32-8.13c-9.55 8.8-3.36 21.33-4.05 26.82-.7 5.53-6.72 13.07.42 11.54 5.59-1.5 15.06 13.51 12.98 18.54Z" opacity=".25"/><path fill="#2B2B37" d="M6.91 135.2c-2.13.67-7.84 1.35-12.59.27-5-11.37 2.85-20.64 2.85-20.64l9.74 20.37Z" opacity=".25"/><path fill="#D8D8D8" d="M8.5 82.04c-2.38-3.05-3.22 3.57-2.28 6.05.89 2.49 5.68-1.7 2.27-6.05Z" opacity=".1"/><path fill="#2B2B37" d="M4.07 111.15s-3.86-1.19-5.5-1.97c-2.02-.93 1.15-1.24 3.57.06 1.63.88-.94-1.76-.3-1.86.7-.1 2.08 1.6 2.08 1.6s.05 1.61.15 2.18Z" opacity=".25"/><path fill="#323147" d="M46.88 57.44c-.45-2.13-.08-6.5.17-9.03l-2.78-2.53c-.55 2.5-1.17 5.28-1.78 7.88-1.32 5.5-2.57 11.13-4.2 16.18v4.31c1.05-.19 2.12-.24 3.1-.62l.02-.01c3.16-1.64 4.46-6.39 5.2-9.75.41-1.98.65-4.91.27-6.43Z"/><path fill="#464558" d="M46.9 57.44c-.42-2.17-.07-6.5.16-9.03l-1.14-1.07c-.04.83 0 1.66.06 2.48 1.42 8-.45 18.88-6.13 23.67l1.23.89c2.84-1.85 4.82-7.3 5.55-10.53.42-1.97.65-4.9.27-6.42Z"/><path fill="#ED8600" d="M33.92 70.3c9.94.43 12.23-12.6 12.11-14.77-.04-.9-.24-1.82-.28-2.73-.07-1.7.4-3.37.4-5.03-.13-12.75-20.27-8.43-23.03 3.37-1.66 7.01 3.13 18.8 10.8 19.15Z"/><path fill="#D58500" d="M40.94 40.98c-3.42-.76-7.44-1.13-10.6.57-7.32 3.96-6.57 11.46-6.6 12.7-.05 1.26 2.8 3.63 3.12 4.86a18.3 18.3 0 0 0 7.72 11.17c10.76-1.04 11.93-13.32 11.25-17.5-.05-.93.3-2.98.03-4.66-.25-1.53-1.99-6.84-4.92-7.14Z"/><path fill="#B45F00" d="M31.5 67.8a16.95 16.95 0 0 1-4.44-7.65c-.36-1.27.51-3.2.51-4.55C27.53 43.29 41.6 37.78 46 49.82c.07-.71.16-1.39.16-2.1-.12-12.76-20.27-8.44-23.03 3.36-1.66 7.01 3.13 18.85 10.8 19.15h.56a23.87 23.87 0 0 1-2.97-2.45l-.01.01Z" opacity=".36"/><path fill="#B45F00" d="M36.53 51.14c-.82-2.57-3.43-4.43-4.69-3.37-.24.94 4.05 2.63 3.7 4.17-.47 1.9-4.94.35-10.68 2.18-.4.12.39.24.07.5-.43.36-.14.77.15 1.07.98.82 2.27.4 3.41.43 1.39-.08 2.78-.28 4.2-.16 3.39.38 5.31-1.52 3.83-4.83v.01Z" opacity=".36"/><path fill="#CC5F00" d="M37.13 40.05c2.74.83 5.5 2.11 7 4.71.55.89 1.23 1.82 1.11 2.94-.17.67 0 1.24.05 1.9-.02.57-.11 1.14-.28 1.7-.28 1.21-.82 1.83-1.62 2.74-1.3 1.77 2.16 5.05 1.66 6.93 1.66-6.31.72-6.75.78-8.35.27-7.36-.16-12.86-8.7-12.56Z" opacity=".36"/><path fill="#B45F00" d="M41.88 53.23a4.17 4.17 0 0 0-4.15 4.88c2.86-.63 5.79-.45 8.35-1.9-.04-.4-.11-1.74-.2-2.13-.67-.37-2.99-.85-4-.85Z" opacity=".36"/><path fill="#B45F00" d="M23.25 51.22a14.58 14.58 0 0 0-.22 4.89h2.44c.28-2.33.72-4.7 1.97-6.7 2.47-3.82 6.51-6.98 11.25-6.86 2.01-.16 3.34.5 5.1 1.3.67.3 1.38.5 1.98.91-3.16-8.79-19.99-4.27-22.52 6.45Z"/><path fill="#B45F00" d="M40.53 48.16c-1.99 1.37-2.16 4.52-.88 6.46.88.11 1.78.11 2.66.11-.62-1.38-1.46-3.3-.79-4.7.74-1.53 2.66-1.66 2.55-2.05 0 0-2.85-.04-3.54.18ZM33.92 51.09c-.47-1.58-3.28-1.43-2.18-1.86.08-.05 1.9-.05 2.18 1.86Z" opacity=".36"/><g fill="#E2A040" opacity=".72"><path d="M43.85 53.15c.24-.12.35-.43.24-.67-.24-.43-.9.08-.94.4-.08.35.47.38.71.27h-.01ZM28.8 52.68c.13.07.25.07.37.07s.24-.04.32-.16c.12-.16 0-.39-.16-.5-.28-.25-.67-.08-.71.07-.08.16.04.4.2.51h-.01ZM43.33 50.38c.05.2.37.2.51.16.16-.04.47-.2.44-.43-.08-.31-1.07-.08-.96.28l.01-.01ZM32.7 50.81c.12.16.35.28.54.32.08 0 .2 0 .25-.13.04-.11 0-.2-.08-.27-.12-.08-.47-.51-.71-.25-.12.08-.08.25 0 .32v.01ZM42.98 45.32c-.24-.16-.55-.2-.83-.2-.6.04-1.23.24-1.39.87-.04.2-.04.39.12.55.2.16.47.16.71.08.32-.08 2.02-.84 1.39-1.3Z" opacity=".36"/></g><path fill="#323147" d="M25.2 55.27s8.13-.87 13-.83c.9 0 2.52-.04 3.04.05 3.49.48 5.32 1.83 5.32 1.83s-2.03 16.42-9.37 17.02c-5.48.45-9.44-.72-11.4-5.32-1.9-4.6-2.69-8.69-.6-12.73v-.02Z"/><path fill="#464558" d="M39.74 55.72c-.11.9-.93 1.16-1.57.49a3.79 3.79 0 0 1-.94-1.77h2.52c.04.41.08.87 0 1.28h-.01Z"/><path fill="#2B2B37" d="M25.2 55.27s5.67-.6 10.38-.8c-.04.01-2.25 3.57-2.2 3.87.03.44.36.82.75 1.04.71.41 2.32.53 2.73 1.76.6 1.65-1.57 3.04-1.57 4.28 3.24 8.6 10.06-5.38 10.76-7.23.33.6-.3 1.95-.49 2.59-1.27 4.24-2.62 12.11-8.32 12.56-5.48.44-9.45-.72-11.4-5.32-1.95-4.61-2.73-8.7-.63-12.75v.01l-.01-.01Z"/><path fill="#464558" d="M43.87 57.89c-1.5-.14-2.49-2.1-2.63-3.4 1.88.26 3.2.74 4.1 1.15-.42 1.05-.8 2.29-1.48 2.25Z"/><path fill="#21212B" d="M43.04 65.95c-.9 4.27-5.45 5.13-8.78 2.97-5.24-2.25-7.33-8.42-7.33-13.81l-2.6.25c-2.1 4.05-.44 7.93 1.5 12.55 1.96 4.6 5.9 5.77 11.4 5.32 7.36-.6 9.3-17.02 9.3-17.02s-.15.04-.3-.08c0 0-1.82 6.66-3.2 9.82h.01Z"/><path fill="#323147" d="M35.38 48.4c-1.78.56-3.08-1.41-6.06-.44-.03 0-.07.02-.14.08-.08.02-.1-.08-.03-.12.03-.01.1-.07.14-.08a9.32 9.32 0 0 1 6.27-.81c.7.24.42 1.15-.18 1.36v.02ZM39.92 47.08c.34-.14 2.75-.53 5.24 1.16.04.02.07.03.1.07.07.07.03.18-.05.16-.03-.02-.06-.07-.1-.08-2.43-1.12-3.74.74-5.18.1-.47-.23-.63-1.16 0-1.41h-.01ZM34.26 52.2s-.09 0-.13-.04a3.87 3.87 0 0 0-3.25-1.14c-.84.05-1.63.08-2.55-.85a.21.21 0 0 1 0-.3c.09-.09.22-.08.3 0 .75.76 1.42.72 2.21.72a4.34 4.34 0 0 1 3.55 1.22c.08.08.08.21.04.3s-.08.09-.17.09ZM40.09 52.31s.08 0 .13-.04c1.22-1.22 2.04-1.14 2.84-1.04.73.05 1.4.13 2.21-.79a.23.23 0 0 0 0-.31c-.08-.1-.17-.1-.26 0-.68.74-1.23.7-1.9.65-.86-.09-1.78-.18-3.1 1.17a.28.28 0 0 0-.04.31c.04 0 .08.05.13.05h-.01Z"/><path fill="#464558" d="M14.9 62.73c.38 1.27 1.62 3.25 2.01 4.81.64 1.64 1.2 4.27 2.86 5.05l.49.3c4.97 3.1 9.56 3.69 15.29 3.07h-.02c.46-.03 1.04.39 1.47.16.47-.32 2.18-.96 3.42-1.62.44-.25.9-.48 1.21-.85.1-.1.15-.2.16-.3-7.88-.3-14.51-6.56-16.27-14.09a17.2 17.2 0 0 1-.45-5.5c.17-8.15 10.98-16.75 18.62-10 1.95 2.07 2.52 5.7 2.63 7.83-.03-.53.28-.57.42-1.08.22-.85.34-2.16.37-3.03.43-4.1-.55-7.55-3.48-10.5-5.28-7.45-15.72-8.01-22.35-1.38-5.03 5.02-3.27 11.08-4.36 17.18-.75 3.32-2.73 6.6-2.02 9.97l-.01-.02Z"/><path fill="#323147" d="M16.56 67.28c.42 1.19 3.5 5.88 3.66 5.97 4.25 2.58 17.45 5.02 21.5.4-.22.25-4.22-.68-5.74-1.33-.66.43-1.37.8-2.1 1.07-5.2 1.95-8.23-1.87-10.05-6.2-1.81-3.75-3-14.44 1.66-15.91 0 0 1.15-4.34 3.68-6.02-3.44 2.28-7.06-5.6-7.92-9.45-4.46 4.71-3.42 11.43-4.42 17.29-.75 3.37-.62 12.81-.26 14.18Z" opacity=".32"/><path fill="#323147" d="M18.24 69.07c2.21 2.02 4.64 3.96 7.48 4.98 3.4 1.23 6.41 1.1 9.97.76 1.62-.16 3.64.07 5.38-.32-1.19.8-3.48 1.62-4.05 1.98-.35.24-1.02-.2-1.47-.16-2.96.28-6.41.32-9.3-.39-2.3-.55-4.9-1.98-6.93-3.2-1.06-.64-1.82-2.9-2.53-4.91.44.39.96.83 1.43 1.27l.01-.01Z"/><path fill="#575770" d="M34.51 71.6c-4.82 1.56-8.11-2.45-9.26-6.6-1.1-2.93-2.16-5.91-.24-8.8a18.86 18.86 0 0 0 9.5 15.4ZM29.24 31.26c.64 4.2 6.44 3.34 9.55 4.4 1.73.63 4.5.71 5.46 2.45-2.8-5.07-8.46-7.88-15-6.85h-.01Z"/><path fill="#323147" d="M16.81 53.1c.71-3.03.32-5.3.77-8.38.8 4.33 3.1 6.82 3 11.35-.36 8.53 3.15 16.46 11.16 20.39a20.63 20.63 0 0 1-12.43-3.8c-2.52-1.72-2.22-4.05-3.08-6.31-3.1-4.93-.72-8.19.6-13.25l-.02.02v-.01Z"/><path fill="#323147" d="M38.55 40.45a15.49 15.49 0 0 0-1.14-2.97 12.36 12.36 0 0 0-1.87-2.61c-.7-.8-1.42-1.58-2.33-2.18-.75-.51-1.7-1.03-2.65-.95-.28.05-.28.44 0 .44.87-.08 1.73.43 2.45.91.87.55 1.55 1.39 2.26 2.1.79.84 1.47 1.7 1.77 2.54.36.94.84 1.9 1.1 2.88.08.25.48.12.4-.16h.01Z" opacity=".32"/><path fill="#A870B2" d="M25.07 76.57c-13.41-11.66-4.43-37.82-4.34-38.08l.84.3c-.09.25-8.87 25.85 4.09 37.12l-.58.67h-.01Z"/><path fill="#75A152" d="M15.85 73.2c.6 1.55 1.57 3.12 2.81 4.22 2.55 1.67 5.75 2.05 8.73 2.44 1.95.16 3.89.16 5.8.48 1.46.25 2.89.69 4.36.6 3.78-.44 9.49-3.1 8.28-7.7-.26-.75-.83-1.03-1.43-.4-5.03 4.71-12.72 6.38-19.04 3.4-1.02-.32-2.1-.44-3.13-.85-2.46-1.09-4.53-3.49-5.56-5.94-.96.88-1.2 2.54-.82 3.74v.01Z"/><path fill="#568040" d="M45.88 73.24c-.11-.36-.39-.77-.79-.77-.24 0-.43.2-.63.36-3.02 2.65-6.79 4.66-10.84 4.85-.99.04-2.03 0-3.01-.08-.75-.04-1.51-.09-2.26-.29-.72-.2-1.4-.48-2.1-.76.55 1.04.75 2.24-.05 3.16l1.2.13c1.94.16 3.89.16 5.79.48 1.47.24 2.9.68 4.36.6a10.7 10.7 0 0 0 2.94-.73 10.23 10.23 0 0 0 4.16-2.52 4.68 4.68 0 0 0 1.23-4.45l.01.01v.01Z" opacity=".37"/><path fill="#568040" d="M45.89 73.24c-.12-.36-.4-.76-.8-.76-3.4 2.53-7 5.09-11.47 5.2-1.75.02-3.54 0-5.27-.37-1.02-.24-1.94-.76-2.93-1.08-1.03-.31-2.1-.43-3.14-.84-2.45-1.09-4.53-3.49-5.56-5.94l-.35.4c.16 1.03.88 2 1.27 2.92.83 2.4 1.95 4.75 4.8 5.05.6.12 1.23.12 1.83.24.6.12 1.15.29 1.74.36 1.27.17 2.54.36 3.81.56 1.29.12 2.48.58 3.73.75 1.2.13 2.46.25 3.65.04.9-.14 1.88-.43 2.82-.6.74-.25 1.27-.35 1.83.36 2.42-1.04 4.9-3.48 4.05-6.34l-.01.04v.01Z"/><path fill="#3E5C2E" d="M19.07 74.24a3.37 3.37 0 0 0 2.74 2.68c2.56.47 5.33 1 7.93.6-1.55-.06-2.9-.77-4.32-1.28-3.03-.6-5.07-1.42-6.99-3.97.24.64.44 1.33.64 1.97ZM32.28 78.53c2.52.9 5.22.12 7.78-.16a6.97 6.97 0 0 0 4.2-1.52c1.17-1.1.89-2.89 1.07-4.29-.33-.14-.61.1-.87.32-3.7 3.35-8.6 5.36-13.62 4.8.43.3.92.62 1.44.85Z"/><path fill="#75A152" d="M45.77 70.64v-.25c-.05.09-.12.13-.2.2-.68.65-1.52 1.17-2.3 1.65-.44.24-.84.52-1.28.76l-.51.29c-1.2.85-2.58 1.36-3.97 1.76-.2.04-.4.12-.6.16-5 1.12-10.35 0-11.15-.16-3.09-.56-5.04-1.68-6.23-3a2.8 2.8 0 0 1-.67-.49 9.28 9.28 0 0 1-.96-1.16c-.35-.48-.6-1.04-.83-1.57-.32-.8-.56-1.69-.84-2.49-.68 2.45.35 9.43 11.4 11.91 8.13 1.8 16.97-.76 18.37-7.58l-.25-.04h.02Z"/><path fill="#AED888" d="M18.98 73.4c-.05.2.2.3.36.32.23.02.26-.34.12-.49-.16-.2-.43-.08-.47.16h-.01Z"/><path fill="#568040" d="M45.73 70.71v-.28l-.16.16c-.68.64-1.52 1.16-2.3 1.64-.44.24-.84.52-1.27.77-.16.08-.32.2-.52.28a12.1 12.1 0 0 1-4.01 1.76l-.55.13c-3.9.88-7.98.4-10 .08 1.02.36 2.1.64 3.13 1.12.88.4 1.83.88 2.47 1.64.2.25.31.48.43.77 6.27-.09 11.9-2.77 13.05-8.06h-.27Z" opacity=".37"/><path fill="#568040" d="M46.06 70.67a4.31 4.31 0 0 1-1.99 2.65c-.11.09-.4.2-.43.33-1.42 3.84-5.6 4.03-9.81 3.61l.03.02c-3.96-.42-2.36.96-4.32.96-.44-.12-.37-.55-.16-.8l.2-.19c-.31.15-.6.35-.95.47-.2.1-.75.1-.68-.27.22-.46.77-.66 1.36-.75l-.75-.09c-3.74-.2-8.18-.96-9.6-4.96 1.8 1.47 3.23 2.8 6.82 3.4.79.16 6.15 1.28 11.14.16 1.82-.43 3.53-1.2 5.09-2.21.35-.2.82-.4 1.06-.68.86-1.21 1.36-2.73 2.3-3.94.34.52.8 1.73.7 2.3h-.01Z"/><path fill="#3E5C2E" d="M45.37 68.38c-1.4 1.23-1.64 3.6-3.18 4.5-1.8 1-3.67 2.03-5.72 2.36-1.63.11-3.51.48-5 .4 3.3.44 7.01.84 9.84-1.24.4-.36.68-.81 1.15-1.12 1.15-.68 2.85-1.27 2.7-2.89.09-.55.44-1.08.44-1.6l-.24-.4h.01Z"/><path fill="#AED888" d="M16.65 73.31c.15.1.08.36.08.52 0 .16.37 1.08.77.48.33-.5-.05-1.32-.4-1.72-.16-.16-.47-.55-.75-.44-.28.05-.32.72.3 1.17Z"/><path fill="#575771" d="M36.98 108.3s-3.7.32-5.1 2.52c-.12.17-.35.17-.41-.06-.56-1.72-2.5-7.28-3.97-8.71l9.48 6.25ZM91.59 98.39s-.3 3.08 1.29 4.69c.11.13.08.32-.11.33-1.5.1-6.36.51-7.76 1.4l6.58-6.42Z"/><path fill="#2B2B37" d="M91.37 98.82s-.43 2.71 1.23 4.17c.12.14.1.33-.07.3-1.16.11-4.62.46-6.62 1.06-.15.05-1.47-1.47-1.33-1.6l6.78-3.93Z"/><path fill="#D58500" d="M85.47 90.76s-7.4 2-7.92 5.17C76.53 102.2 85.32 99 85.32 99l.15-8.24Z"/><path fill="#B45F00" d="M85.46 90.76 85.31 99l-3.7-3.08s-1.48-1.1-.46-2.2c1.01-1.1 2.04.94 2.29-.1.24-1.06-.1-1.74.86-2.5.7-.24 1.16-.36 1.16-.36Z" opacity=".36"/><path fill="#B45F00" d="M83.85 91.25s-.8 1.71-.06 3.5c.97 2.4 1.67-4 1.67-4l-1.6.5Z"/><path fill="#575771" d="M59.31 129s4.26.03 8.39-3.09c5-3.77 13.76-13.11 18.44-24.91 3.1-7.83-11.55-1.01-11.55-1.01-3 1.62-7.48 3.4-9.58 4.2-.83.33-1.52.92-1.98 1.69-1.77 3-5.72 11.3-3.72 23.12Z"/><path fill="#2B2B37" d="M86.04 101.23a58.07 58.07 0 0 1-4.98 9.61c-10.78.14-10.43-8.95-10.43-8.95a61.2 61.2 0 0 0 3.96-1.9l1.17-.5 10.28 1.75Z" opacity=".25"/><path fill="#2B2B37" d="M75.4 102.55s-7.7 11.35-2.43 18.58a46.22 46.22 0 0 1-5.26 4.78c-4.13 3.12-8.39 3.09-8.39 3.09-2-11.83 1.95-20.13 3.73-23.13a3.93 3.93 0 0 1 1.97-1.67c2.1-.81 6.57-2.6 9.58-4.21 0 0 1.06-.5 2.55-1.06l-1.75 3.62Z" opacity=".25"/><path fill="#D58500" d="M74.03 99.56s.31 4.1 5 4.85c4.68.76 8.2 1.52 9.32-1.58 0 0 4.8-1.62 3.25-4.52-1.55-2.9-17.57 1.25-17.57 1.25Z"/><path fill="#B45F00" d="M91.34 99.33s-1.9 1.39-6.66 1.1l-2.52.15s4.94 1.58 8.27-.04c0 0 .96-.4.92-1.2h-.01ZM77 102.75s-.12-.86 2.48-.62c2.59.24 3.22.25 3.22.25s-2.9-.63-2.9-1.64c0-1-5.22.62-5.22.62s1.74 1.07 2.42 1.4Z"/><path fill="#D58500" d="M87.73 91.12s2.86 1.92 4.07 4.43c1.22 2.5 1.47 4.4-.56 5.03-2.03.61-6.84-.16-6.84-.16l3.33-9.3Z"/><path fill="#B45F00" d="M89.9 99.33s2.52-.06 2.47-.6c-.05-.54-1.24-.77-1.24-.77l-1.23 1.37ZM84.6 102.75s-2.26-.12-1.63 1.89c.04.15-2.53 0-3.95-.23a5.61 5.61 0 0 1-5-4.85s4.4-1.15 8.82-1.82l7.05.96s-5.58 2.14-5.3 4.05ZM87.3 93.88s1.74-1.6 1.96-.57c.22 1.02-.63 1.63-.63 1.63s.8-.47 2.25.68c1.45 1.16-.1 2.34-.1 2.34s-4.48-1.74-3.48-4.08Z" opacity=".36"/><path fill="#D58500" d="M22.28 99.6s.07-5.72 3.32-5.75c3.26-.03 12.68 6.7 12.68 6.7l-10.56 2.3-5.44-3.25Z"/><path fill="#575771" d="M-5 122.64s.5-10.63 8.27-13.37c7.78-2.74 18.98-13.73 18.98-13.73s4 8.59 9.59 9.28c0 0-16.08 33.08-32.3 32.53 0 0-5.12-8.41-4.53-14.71Z"/><path fill="#2B2B37" d="M31.84 104.82s-3.44 7.06-8.73 14.6c-11.13-5.97-4.85-20.22-4.85-20.22 2.4-2.1 4-3.66 4-3.66s4 8.59 9.58 9.28Z" opacity=".25"/><path fill="#2B2B37" d="M36.4 108.14s-3.28.1-4.5 2.34c-.12.18-.35.18-.37 0-.48-1.32-1.92-5.28-3.21-7.47-.1-.16 1.27-2.04 1.47-1.89l6.62 7.02Z"/><path fill="#D58500" d="M26.87 101.44s1.2 2.94 3.66 2.94 8.04-.54 9.35-.48c1.32.06 5.76-.93 6.33-2.1.57-1.16-.33-1.47-2.16-1.47-1.82 0-12.86-.92-12.86-.92l-4.33 2.04Z"/><path fill="#D58500" d="M49.5 100.84c-.03.88-1.22 2-2.82 3.12-2.82 2-6.7 3.4-7.9 4-1.76.88-3.18-.3-3.18-.3-2.34.27-2.66-.5-2.66-.5-2.57-.2-2.96-2.78-2.96-2.78-.27-1.6 19.6-5.96 19.53-3.54h-.01Z"/><path fill="#B45F00" d="M46.68 103.97c-2.82 2-6.61 3.3-7.71 3.9-1.97 1.06-3.37-.2-3.37-.2-2.34.26-2.66-.5-2.66-.5s-.06-.93 2.26-.68c2.31.25 6.63-.85 7.43-1.38.8-.51 4.06-1.15 4.06-1.15Z" opacity=".36"/><path fill="#B45F00" d="M49.5 100.84c0 2.12-6.6 5.47-10.55 7.03.26-1.25-2.45-1.39-2.45-1.39 1.02-1.29-2.3-2.45-2.3-2.45-.58-2.8-8.3-3.99-8.18-6.15.98-2 4.84.57 4.84.57s2.45.8 2.97 1.15c3.1.24 9.35.73 10.47.73 0 0 5.2-.75 5.2.5v.01Z" opacity=".36"/><path fill="#B45F00" d="M31.76 98.94s-1.35 1.48-.09 1.31c1.26-.17 1.6-.16 1.86.32.25.48 2.62 1.42 2.47.67-.15-.76 1.74-.86 3.74-.25 1.99.62 6.6 1.85 6.65.26.04-1.58-14.62-2.32-14.62-2.32l-.01.01Z" opacity=".36"/><path fill="#B45F00" d="M46.38 101.26s-1.13 2.82-6.49 2.64c0 0 4.55 1.47 6.96-.06 2.4-1.52 2.65-3 2.65-3l-3.12.41Z" opacity=".36"/><path fill="#B45F00" d="M45.75 103.22s-.39-.77.4-1.13c.79-.35 1.92.22 1.92.22s-1.1-.12-1.73.38c-.46.36-.6.53-.6.53ZM38.21 104.14s-2.5.38-3.82.35a13.9 13.9 0 0 0-3.24.3c-1.43.33-1.63-.93-.25-.87 1.37.07 7.31.22 7.31.22ZM35.06 106.82c-.72-.06-2.03.49-2.03.49-.3-.4.18-1 1.8-.85 1.62.16 3.8-.2 3.8-.2s-1.85.72-3.57.56ZM42.8 102.6s-.38-.77.41-1.13c.79-.35 1.91.22 1.91.22s-1.17-.27-1.8.23c-.45.36-.51.67-.51.67Z"/><path fill="#B45F00" d="M35.19 99.7s-1.4.75-.38.79c1.03.03 2.67-.28 5.53.35 2.87.64 6.23.8 6.23.27 0-.52-11.38-1.4-11.38-1.4ZM41.38 105.62s1.56-.1 1.46.5c0 0 1.41-.6 1.85-.86.97-.56 1.98-1.3 1.98-1.3s-2.42.29-5.3 1.66Z"/><path fill="#2B2B37" d="M20.05 97.6s-2.33 7.2 5.29 7.87l-3.6-9.35-1.69 1.47v.01Z" opacity=".25"/><path fill="#7F8493" d="M92.03 96.72c0 .1-.05 1.19-.16 1.28-1.58-1.39-14.43-2.44-30.06-2.4-15.61.05-28.46 1.18-30.04 2.59a5.7 5.7 0 0 1-.16-1.34c0-1.53 13.52-2.81 30.2-2.87 16.69-.04 30.22 1.2 30.22 2.74Z"/><path fill="#B5BDC6" d="M92.03 98.3c0 1.53-13.52 3.12-30.2 3.17-16.69.05-30.22-1.46-30.22-3 0-1.53 13.52-2.82 30.2-2.87 16.7-.05 30.22 1.16 30.22 2.69Z"/><path fill="#87999B" d="M78.22 98.94c-.1.93-11.16 1.31-23.72.97-16.64-.47-21.33-1.6-21.23-2.54.1-.93 10.76-1.69 23.33-1.39 12.56.3 21.72 2.03 21.62 2.96Z" opacity=".44"/><path fill="#87999B" d="M78.22 98.94c-.1.93-9.94 1.38-21.1 1.1-14.8-.38-18.97-1.49-18.88-2.42.1-.94 9.59-1.75 20.76-1.52 11.17.22 19.3 1.9 19.21 2.84Z" opacity=".44"/><path fill="#687287" d="M78.23 98.63c-.07.78-10.36 1.67-19.75 1.44-12.45-.32-13.94-1.76-13.86-2.55.08-.78 8.06-1.47 17.46-1.27 9.4.19 16.24 1.6 16.15 2.39Z" opacity=".66"/><path fill="#515B6D" d="M78.25 98.38c-.07.65-8.95 1.4-17.06 1.18-10.76-.28-12.05-1.5-11.98-2.16.06-.65 6.96-1.23 15.07-1.06 8.12.17 14.03 1.37 13.96 2.04Z" opacity=".66"/><path fill="#A870B2" d="m53.67 86.19-2.18 11.05c-.49 1.45-2.94 1.81-5.58 1.8-3.47 0-6.2-.79-6.43-1.58l-2.14-11.72c.3.74 3.62.8 3.78.68.02.24 4.13 1.4 4.47.74.36.63 4.42.3 4.47-.66.42.28 3.34.43 3.61-.32Z"/><path fill="#9A67A5" d="m51.71 96.06-.23 1.18c-.5 1.45-2.94 1.81-5.58 1.8-3.47 0-6.2-.79-6.42-1.58l-2.16-11.72c.31.74 3.62.8 3.78.68.01.1.7.35 1.55.57.08.23.15.5.22.77 0 0-.56 7.11 2.95 7.26 0 0 1.61 2.73 5.89 1.04Z"/><path fill="#8A5A96" d="M51.48 97.24c-.49 1.45-2.93 1.81-5.57 1.8-3.47 0-6.2-.79-6.43-1.58l-2.15-11.72c.19.45 1.46.64 2.47.7l.71.44 1.04 6.97s.45 3.55 4.48 2.6c0 0 2.13 2.6 5.44.79h.01Z"/><path fill="#8A5A96" d="m53.67 86.19-2.19 11.05c-.27.8-1.12 1.27-2.29 1.52l.67-11.47a.95.95 0 0 1 .05-.5.85.85 0 0 1 .13-.24l.03-.04c.48.27 3.32.4 3.6-.32Z"/><g opacity=".2"><path fill="#000" d="m45.96 97.45-.58-10.04.7.04-.01 10h-.1Z" opacity=".75"/></g><path fill="#000" d="m41.83 95.9-1.35-9.32.75-.16.7 9.45-.1.02Z" opacity=".2"/><g opacity=".2"><path fill="#000" d="M49.76 92.54h-.18l.38-6.22.51.12-.7 6.1Z" opacity=".75"/></g><path fill="#8DB6E1" d="M53.68 86.4c-.26.52-1.86.92-2.88.83-.44-.04-.77-.17-.83-.42.36 1.38-4.59 1.36-4.4.28-.26 1.53-5.84.26-4.49-.41-1.19.58-2.87.23-3.6-.33-.62-.48-.56-1.12 1.03-1.5-.37-.52.12-1 .98-1.2-.18.65.06 1.15.06 1.15.69 1.42 3.4 1.82 5.78 1.87h.44c2.46.01 5.2-.5 5.56-1.7.07-.2-.03-.49-.29-1.14.9.24 1.48.74 1.21 1.25.84.17 1.46.56 1.5 1a.5.5 0 0 1-.07.32Z"/><path fill="#79A3C9" d="m45.96 86.73-8.47-.38c-.63-.48-.57-1.13 1.04-1.5-.38-.52.12-1 .99-1.2-.18.65.06 1.15.06 1.15.7 1.42 3.44 1.82 5.86 1.88h.44l.09.04-.01.01Z"/><path fill="#FFF3E1" d="M51.96 84.12c-.24 1.27-1.92 2.16-3.96 2.58-4.24.86-10.12-.28-8.46-4.02.24-2.21 2.34-4.67 4.38-4.98 4.7-.9 7.82 1.68 8.04 6.42Z"/><path fill="#F7E7D0" d="M48 86.7c-4.24.86-10.12-.28-8.47-4.02.26-2.21 1.9-4.27 3.85-4.85 0 0-.3 1.06 1.01 1.1 0 0-1.7.92-.22 2.04 0 0-3.52 2.36-.7 3.82 0 0-.27 2.52 4.53 1.9Z"/><path fill="#E2CFB5" d="M43.42 84.93c-.9.02-2.01-.06-3.05-.8-.5-.35-.82-.97-.89-1.44 0 0 .74.7 1.22 1.05 1.93 1.35 4.18.86 4.18.86-.01 0-.65.32-1.45.33h-.01ZM45.78 82.82s3.38-.17 4.58-1.82c.2-.28.4-.8.4-.8.13.37-.06 1.02-.27 1.3-1.2 1.66-4.54 1.32-4.71 1.32ZM41.51 80.17c-.18-.3 0-.8.23-1.1 0 0 .03.64.15.93.63 1.48 3.42.87 3.45.87 0 0-2.75 1.12-3.82-.7ZM48.07 80.3c-.26-.41-.55-.76-.92-.98-1.27-.75-3-.33-3-.33s.46-.27.86-.35c.62-.12 1.67-.07 2.32.5.5.46.74 1.15.74 1.15Z"/><path fill="#8DB6E1" d="m39.91 79.26 2.75-.33.22.88-2.75.33-.22-.88Z"/><path fill="#EDB937" d="m50.5 86.48-1.13-2.35.9-.34 1.13 2.35-.9.34Z"/><path fill="#67B279" d="M50.24 79.03c.03 1.34-1.89 2.13-2.65 1.87l.17-.86-.08.43.08-.43c.58.17 1.67-.46 1.53-1.38l.98.04-.03.33ZM41.88 85.72c-1.26-.66-.94-2.63-.3-3l.72.61-.36-.3.36.3c-.49.34-.49 1.49.45 1.9l-.57.7-.3-.2Z"/><path fill="#F26467" d="m71.07 82.1-3.03 15.43c-.31 1.51-3.97 1.68-7.55 1.68-4.71-.02-8.7-.96-9.01-1.97L48.9 81.53c.42.95 4.9 1.04 5.13.88.03.32 5.6 1.82 6.06.96.5.82 6 .39 6.06-.85.57.36 4.53.55 4.9-.4v-.01Z"/><path fill="#E2565D" d="m64.57 84.14-.78 12.18 4.41-.24 2.9-13.7c-4.37-1.57-6.53 1.75-6.53 1.75v.01Z"/><path fill="#E2565D" d="m68.42 93.46-.37 4.07c-.32 1.51-3.97 1.68-7.56 1.68-4.71-.02-8.69-.95-9-1.97l-2.57-15.7c.31.7 2.9.93 4.28.94l3.34 1.67s-.34 9.1 4.24 9.3c0 0 2.7 3.28 7.65.01Z"/><path fill="#CE4A57" d="m68 93.22.04 4.31c-.31 1.51-3.97 1.68-7.55 1.68-4.71-.02-8.7-.95-9-1.97l-2.58-15.7c.24.52 1.73.78 3.04.89l1.5.54 1.3 10.01s1.45 3.75 5.86 2.31c0 0 4.63 3.92 7.38-2.07Z"/><g opacity=".2"><path fill="#000" d="m60.63 96.73-.9-13.6 1.06.62-.02 12.98h-.14Z" opacity=".75"/></g><path fill="#000" d="M55.01 94.7 53.2 82.64l1.02-.22.94 12.27-.14.03Z" opacity=".2"/><g opacity=".2"><path fill="#000" d="M65.77 90.35h-.25l.53-8.07.68.16-.96 7.91Z" opacity=".75"/></g><path fill="#98CB83" d="M71.09 82.39c-.34.67-2.53 1.2-3.9 1.07-.6-.05-1.05-.22-1.14-.54.5 1.79-6.2 1.76-5.96.37-.35 1.98-7.92.33-6.08-.53-1.62.76-3.9.3-4.89-.44-.83-.62-.75-1.45 1.4-1.92-.5-.68.17-1.3 1.33-1.58-.25.85.08 1.5.08 1.5.93 1.84 4.6 2.36 7.84 2.42h.6c3.32.02 7.04-.65 7.53-2.2.08-.26-.04-.63-.4-1.48 1.21.3 2.01.95 1.64 1.62 1.15.23 1.98.73 2.05 1.3a.64.64 0 0 1-.1.42v-.01Z"/><path fill="#83B269" d="m60.62 82.82-11.5-.5c-.84-.62-.76-1.45 1.42-1.93-.52-.68.16-1.3 1.34-1.58-.26.86.09 1.5.09 1.5.94 1.85 4.66 2.36 7.94 2.44h.6l.1.06Z"/><path fill="#FFF3E1" d="M68.75 79.43c-.33 1.65-2.6 2.8-5.36 3.34-5.75 1.12-13.72-.35-11.48-5.21.34-2.87 3.17-6.06 5.95-6.47 6.38-1.17 10.6 2.2 10.9 8.34Z"/><path fill="#F7E7D0" d="M63.39 82.77c-5.75 1.12-13.72-.35-11.48-5.21a7.72 7.72 0 0 1 5.22-6.3s-.42 1.38 1.37 1.43c0 0-2.31 1.2-.3 2.66 0 0-4.79 3.06-.95 4.94 0 0-.38 3.27 6.14 2.48Z"/><path fill="#E2CFB5" d="M57.17 80.48a6.79 6.79 0 0 1-4.13-1.03 3.03 3.03 0 0 1-1.2-1.88s1 .92 1.64 1.36c2.61 1.76 5.66 1.12 5.66 1.12-.02 0-.87.4-1.97.43ZM60.38 77.75h-.01s4.6-.23 6.22-2.37c.28-.36.55-1.04.55-1.04.17.48-.08 1.32-.37 1.7-1.63 2.15-6.16 1.7-6.4 1.7h.01ZM54.59 74.3c-.25-.39-.01-1.03.31-1.42 0 0 .04.83.2 1.2.84 1.92 4.63 1.14 4.66 1.13 0 0-3.71 1.46-5.17-.9ZM63.48 74.46a3.82 3.82 0 0 0-1.25-1.26c-1.72-.96-4.07-.43-4.07-.43s.63-.35 1.16-.44c.85-.16 2.27-.1 3.15.65.7.59 1 1.49 1 1.49Z"/><path fill="#EDB937" d="m52.41 73.12 3.73-.43.3 1.15-3.73.43-.3-1.15ZM66.77 82.5l-1.53-3.06 1.23-.44 1.52 3.05-1.22.44Z"/><path fill="#8DB6E1" d="M66.43 72.83c.03 1.74-2.57 2.77-3.6 2.42l.24-1.12-.12.56.12-.56c.79.23 2.25-.59 2.07-1.78l1.33.04c0 .16-.02.3-.04.44ZM55.09 81.51c-1.7-.86-1.29-3.41-.4-3.88l.97.78-.48-.39.49.39c-.66.43-.67 1.93.6 2.46l-.78.92a4.46 4.46 0 0 1-.4-.27Z"/><path fill="#67B279" d="m80.93 88.15-2 10.13c-.44 1.32-2.68 1.66-5.1 1.65-3.19 0-5.68-.73-5.89-1.45l-1.97-10.73c.29.67 3.31.74 3.46.62.02.22 3.79 1.28 4.09.67.34.58 4.05.27 4.1-.6.38.25 3.05.39 3.3-.3l.01.01Z"/><path fill="#5CA06A" d="m79.18 97.05-.25 1.23c-.44 1.33-2.68 1.66-5.1 1.66-3.19 0-5.68-.73-5.89-1.45l-1.97-10.74c.29.68 3.31.74 3.46.63.02.1.68.33 1.47.53.06.2.12.43.17.67 0 0-.16 5.83 2.9 6.15 0 0 .77 3.03 5.2 1.32Z"/><path fill="#51935C" d="m79 97.98-.07.3c-.44 1.33-2.68 1.66-5.1 1.66-3.19 0-5.68-.73-5.89-1.45l-1.97-10.74c.2.47 1.73.64 2.69.67l.2.1 1 6.95s.56 2.77 4.02 2.18c0 0 2.07 1.91 5.12.32v.01Z"/><g opacity=".2"><path fill="#000" d="m73.88 98.48-.53-9.2.64.04-.01 9.16h-.1Z" opacity=".75"/></g><path fill="#000" d="m70.09 97.05-1.24-8.53.7-.15.64 8.66-.1.02Z" opacity=".2"/><g opacity=".2"><path fill="#000" d="M77.36 93.98h-.17l.35-5.7.47.11-.65 5.59Z" opacity=".75"/></g><path fill="#E5B460" d="M80.95 88.36c-.23.47-1.7.84-2.64.75-.4-.03-.7-.15-.76-.38.34 1.26-4.2 1.24-4.03.26-.24 1.4-5.35.24-4.1-.38-1.1.54-2.64.22-3.31-.3-.57-.45-.51-1.03.94-1.37-.34-.48.11-.92.9-1.12-.18.6.06 1.06.06 1.06.62 1.3 3.1 1.66 5.29 1.71h.4c2.26.01 4.77-.47 5.1-1.55.06-.2-.03-.45-.27-1.05.82.22 1.36.67 1.1 1.14.78.16 1.35.52 1.4.92 0 .1-.02.2-.08.3Z"/><path fill="#D39C4C" d="m73.88 88.66-7.77-.35c-.57-.44-.51-1.03.96-1.36-.35-.48.11-.92.9-1.1-.17.6.06 1.05.06 1.05.64 1.3 3.15 1.67 5.37 1.72h.4l.08.04Z"/><path fill="#FFF3E1" d="M79.37 86.26c-.23 1.17-1.76 1.99-3.62 2.36-3.89.8-9.27-.25-7.76-3.68.23-2.03 2.14-4.28 4.02-4.56 4.3-.83 7.16 1.54 7.36 5.88Z"/><path fill="#F7E7D0" d="M75.74 88.62c-3.88.8-9.27-.25-7.75-3.68a5.4 5.4 0 0 1 3.52-4.44s-.28.97.92 1c0 0-1.56.86-.2 1.88 0 0-3.22 2.17-.63 3.5 0 0-.26 2.3 4.14 1.74Z"/><path fill="#E2CFB5" d="M71.54 87a4.45 4.45 0 0 1-2.79-.73c-.46-.32-.75-.9-.82-1.32 0 0 .68.65 1.12.96 1.76 1.24 3.82.78 3.82.78-.01 0-.58.29-1.33.31ZM73.71 85.08s3.1-.16 4.2-1.68c.19-.24.37-.73.37-.73.11.35-.06.94-.25 1.2-1.1 1.52-4.16 1.2-4.32 1.2ZM69.8 82.65c-.17-.28 0-.73.21-1 0 0 .03.58.13.84.58 1.36 3.14.8 3.16.8 0 0-2.52 1.03-3.5-.64ZM75.8 82.76c-.24-.38-.5-.7-.83-.9-1.17-.67-2.76-.3-2.76-.3.02 0 .44-.24.8-.3.57-.12 1.53-.08 2.12.45.46.41.68 1.05.68 1.05Z"/><path fill="#E2545B" d="m68.33 81.82 2.52-.31.2.8-2.52.31-.2-.8ZM78.03 88.43 77 86.27l.82-.31 1.04 2.15-.83.32Z"/><path fill="#EDB937" d="M77.8 81.6c.02 1.24-1.74 1.96-2.43 1.71l.16-.79-.07.4.07-.4c.54.16 1.53-.42 1.4-1.26l.9.03c0 .1-.01.21-.03.31ZM70.13 87.73c-1.15-.6-.86-2.41-.26-2.74l.65.55-.33-.28.33.27c-.45.31-.45 1.37.4 1.74l-.51.65c-.1-.06-.2-.12-.28-.2v.01Z"/><path fill="#C4CDD6" d="M92.03 98.3c0 1.53-13.51 3.41-30.2 3.47-16.69.05-30.21-1.76-30.22-3.3 0-.09.05-1.23.16-1.33 1.58 1.43 14.43 2.9 30.06 2.85 15.62-.04 28.62-1.83 30.2-3.27.1.1 0 1.48 0 1.57Z"/><path fill="#EDB937" fill-rule="evenodd" d="M64.02 66.96a4.78 4.78 0 0 0 2.6-2.74 4.79 4.79 0 0 0 2.47 2.95 4.8 4.8 0 0 0-2.6 2.74 4.8 4.8 0 0 0-2.47-2.95ZM68.81 73.62a3.72 3.72 0 0 0 2.02-2.12c.3 1 .99 1.82 1.9 2.28a3.72 3.72 0 0 0-2 2.12 3.7 3.7 0 0 0-1.92-2.28ZM52.06 94.23c.6-.26 1.09-.76 1.32-1.39.19.66.65 1.2 1.25 1.5-.6.26-1.09.76-1.32 1.39a2.44 2.44 0 0 0-1.25-1.5ZM77.55 90.26a3.72 3.72 0 0 0 2.01-2.13 3.7 3.7 0 0 0 1.91 2.29 3.72 3.72 0 0 0-2.01 2.12 3.7 3.7 0 0 0-1.91-2.28ZM81.77 84.35c.6-.26 1.08-.77 1.31-1.4.2.66.65 1.2 1.25 1.5-.6.26-1.09.77-1.32 1.4a2.44 2.44 0 0 0-1.24-1.5Z" clip-rule="evenodd"/><path fill="#575771" d="M24.5 94.05c-2.85.62-2.64 1.24-3.1 2.88a7.57 7.57 0 0 0-.09 1.9 9 9 0 0 0 .67 2.17 13.58 13.58 0 0 0 5.01 5.54c1.94.98 4.4 4.32 4.52 4.41a17.52 17.52 0 0 0-3.35-7.26l-.5-.6a25.56 25.56 0 0 0-3.13-3.08 2.99 2.99 0 0 1-1.18-2.62c.18-2.68 1.14-3.35 1.14-3.35Z"/><path fill="#2B2B37" d="M24.5 94.05c-2.85.62-2.64 1.24-3.1 2.88a7.57 7.57 0 0 0-.09 1.9 9 9 0 0 0 .67 2.17s2.8-.43 5.71 2.04a25.24 25.24 0 0 0-3.13-3.08 2.94 2.94 0 0 1-1.2-2.57c.14-2.63 1.13-3.35 1.13-3.35Z" opacity=".25"/><path fill="#A4A4A4" d="M27.96 105.89c1.05 1 3.01 2.84 3.04 2.94a17.52 17.52 0 0 0-2.8-5.19c-1.52-.9-1.67.96-.24 2.25Z" opacity=".14"/><path fill="#D58500" d="M83.76 94.88c.37-1.27.27-4.03 1.83-4.53s3.34.43 3.49 1.33c.18 1.2-1.1 2.15-1.53 4.3-.64 3.13-3.11 2.27-3.23 2.2-.94-.55-.72-2.74-.56-3.3Z"/><path fill="#B45F00" d="M89.08 91.69c-.94-.34-3.36-1.27-4.5 1.5-.32.79-.66 2.75-.67 3.32-.03 1.74 1.3 1.84 1.3 1.84-.47 0-.85-.14-.89-.16-.94-.56-.72-2.74-.56-3.3.36-1.28.28-4.03 1.83-4.53s3.34.43 3.49 1.33Z" opacity=".36"/><path fill="#B45F00" d="M85.56 94.5s1.26-.02 1.17 1.4a2.8 2.8 0 0 1-.7 1.69s.35-.84.3-1.85c-.04-1.02-.77-1.24-.77-1.24Z" opacity=".36"/><path fill="#E2A040" d="M85.16 95.54c-.73-.2-.59-.6.17-.6.75.01 1.24.98-.17.6Z" opacity=".37"/><path fill="#575771" d="M74.58 101.36c.28 2.66 2.88 5.63 5 6.71 4.6 2.34 8.26-1.02 9.07-2.05 1.05-1.4 4.26-2.56 4.35-2.64a13.47 13.47 0 0 0-6.77.79c-4.6 2.05-11.65-2.8-11.65-2.8v-.01Z"/><path fill="#A4A4A4" d="M88.16 104.99c1-.63 2.82-1.8 2.9-1.8-1.86 0-3.49.37-4.87.92-.94 1.07.7 1.74 1.97.88Z" opacity=".14"/><path fill="#2B2B37" d="M1.78 122.33c-.1-.2.05-.38.26-.48a98.9 98.9 0 0 1 6.68-1.9c2.33-.6 15.28-2.98 15.76-3.09v.73c-.53 0-17.29 3.43-22.06 4.92-.38.06-.64.06-.64-.19v.01Z"/><path fill="#2B2B37" d="M17.76 109.88c.24.04.31.27.27.48a77.86 77.86 0 0 1-2.33 6c-.86 2.06-6.52 12.93-6.72 13.34l-.64-.42c.32-.4 7.33-14.67 8.88-19.05.18-.3.33-.5.55-.35Z"/><path fill="#2B2B37" d="M27.96 111.89c-5.74 9.68-17.05 25.85-28.43 25.46 0 0-5.12-8.41-4.53-14.71 0 0 .5-10.63 8.27-13.37.83-.3 1.69-.67 2.57-1.13 0 0 4.75 12.16 22.11 3.75Z" opacity=".25"/><path fill="#2B2B37" d="M19.98 123.63c-5.8 7.34-13.11 13.97-20.45 13.72 0 0-5.12-8.41-4.53-14.71 0 0 .1-2.28 1-5 0 0 5.72 14.38 23.98 5.99ZM71.2 122.9a41.52 41.52 0 0 1-3.5 3.01c-4.13 3.12-8.38 3.09-8.38 3.09a35.55 35.55 0 0 1 1.97-19.56s-1.23 13.2 9.9 13.47Z" opacity=".25"/><path fill="#D58500" d="M23.9 95.54s1.42-4.56 4.04-5.23c2.63-.66 4.48 2.03 4.88 4.25 0 0 3.09 3.53.4 5.28 0 0-4.3-2.9-9.32-4.3Z"/><path fill="#B45F00" d="M32.82 94.56s-2.42-1.96-2.1-2.13c1.05-.52 2.1 2.13 2.1 2.13ZM30.86 98.46s-3.16-2.5-3.9-2.73c-1.24-.39-2.02 1.9-.95 2.15 1.08.25 4.85.58 4.85.58Z" opacity=".36"/><path fill="#B45F00" d="M29.82 97.9s-3.28-1.52-3.71-.77c-.43.74.5.72 1.94.96s2.81.37 2.81.37l-1.03-.56Z"/><path fill="#E2A040" d="M25.99 93.6a2.8 2.8 0 0 1-1.03-.48c.55-1.05 1.4-2.42 2.98-2.81.37-.1.73-.12 1.08-.1 0 0 .73 4.07-3.04 3.4Z" opacity=".37"/><path fill="#B45F00" d="M30.56 97.08s.11-.86 1.28-.8c1.17.04 1.67 1.06 1.37 2.26 0 0-.05-2.93-2.65-1.46Z" opacity=".36"/><path fill="#E2A040" d="M30.7 97.82c-.13-.25.03-.9.71-.88.69.03-.09 2.03-.7.88Z" opacity=".37"/><path fill="#E9653A" d="M60.23 54.71s-3.13-.75.08-5.84c0-.02.01-.04.03-.05l.03.05c3.02 5.2-.14 5.84-.14 5.84Z"/><path fill="#67B279" d="m61.01 72.5.3-16.88-1.05-1.94-1.11 1.9-.3 16.91H61Z"/><mask id="b" width="4" height="33" x="58" y="53" maskUnits="userSpaceOnUse" style="mask-type:luminance"><path fill="#fff" d="M60.8 85.05 58.62 85l.52-29.41 1.11-1.9 1.05 1.93-.52 29.43Z"/></mask><g fill="#E5B460" mask="url(#b)"><path d="M61.81 59.45a1.5 1.5 0 1 0 0-2.99 1.5 1.5 0 0 0 0 2.99ZM58.51 62.63a1.5 1.5 0 1 0 0-2.99 1.5 1.5 0 0 0 0 3ZM61.7 66.17a1.5 1.5 0 1 0 0-3 1.5 1.5 0 0 0 0 3ZM58.4 69.35a1.5 1.5 0 1 0 0-2.99 1.5 1.5 0 0 0 0 3ZM60.57 72.5h2a1.5 1.5 0 1 0-2.5-1.13c0 .44.19.85.5 1.12Z"/></g><path fill="#A2D0AD" d="M18.91 20a8.78 8.78 0 0 0-1.83-3.55c-1.44-1.54-2.88-1.16-2.88-1.16l1.03-1.4c.41.01.78.07 1.1.18 3.14 1.03 2.58 5.92 2.58 5.92Z"/><path fill="#A2D0AD" d="M18.94 19.56a6.7 6.7 0 0 0-2.24-1.23c-1.95-.63-3.56-.15-3.56-.15l-.46-1.31a5.46 5.46 0 0 1 6.26 2.7Z"/><path fill="#A870B2" d="M35.85 33.55c.15.13.16.35.02.48a28.2 28.2 0 0 1-5.54 4.35c-3.04 1.77-6.5 2.78-10.25 2.1a.33.33 0 0 1-.27-.3L18.53 19.5c-.02-.29.33-.45.55-.26l2.78 2.37 14 11.94Z"/><path fill="#A2D0AD" d="M33.62 31.65a67.02 67.02 0 0 1-10.4 9.03 16 16 0 0 1-3.25-.24 67.84 67.84 0 0 0 12.16-10.06l1.49 1.26v.01ZM29.77 28.37a67.55 67.55 0 0 1-10.16 8.62l-.15-2.41a68.18 68.18 0 0 0 8.81-7.5l1.5 1.29ZM25.75 24.93c-2.05 2-4.24 3.87-6.54 5.6l-.16-2.47a66.87 66.87 0 0 0 5.18-4.43l1.52 1.3Z"/><path fill="#000" d="M30.33 38.38c-3.04 1.76-6.5 2.77-10.25 2.09a.33.33 0 0 1-.27-.3l-1.28-20.65c-.02-.3.33-.47.56-.27l2.77 2.36s-1.38 15.74 8.48 16.77Z" opacity=".1" style="mix-blend-mode:multiply"/><path fill="#67B279" d="M16.7 18.32c-1.95-.62-3.56-.15-3.56-.15l-.46-1.3c.72-.2 1.44-.24 2.14-.16.06.1.64 1.05 1.88 1.61ZM17.08 16.45c-1.44-1.54-2.88-1.16-2.88-1.16l1.03-1.4c.41.01.78.07 1.1.18-.03.06-.47.97.75 2.38Z"/><path fill="#fff" d="M27.56 31.63c1.18-.75 1.33-2.64.32-4.22-1-1.58-2.78-2.24-3.96-1.49-1.18.76-1.33 2.65-.32 4.22 1 1.58 2.78 2.24 3.96 1.49Z" opacity=".23"/><path fill="#A870B2" d="M44.3 37.72c-4-4.85-11.57-3.2-11.65-3.19l-.22-.86c.08-.02 9.15-2.3 12.5 4.81l-.63-.76Z"/><path fill="#FEE2F1" d="M218.95 168.67a7.97 7.97 0 0 0 4.1 4.92 7.98 7.98 0 0 0-4.33 4.56 7.97 7.97 0 0 0-4.1-4.91c2-.86 3.57-2.51 4.33-4.57ZM143.33 185a7.97 7.97 0 0 0 4.1 4.91 7.98 7.98 0 0 0-4.33 4.57 7.97 7.97 0 0 0-4.1-4.91c2-.86 3.58-2.52 4.33-4.57ZM115.33 159a7.97 7.97 0 0 0 4.1 4.91 7.98 7.98 0 0 0-4.33 4.57 7.97 7.97 0 0 0-4.1-4.91c2-.86 3.58-2.52 4.33-4.57ZM300.33 151a7.97 7.97 0 0 0 4.1 4.91 7.98 7.98 0 0 0-4.33 4.57 7.97 7.97 0 0 0-4.1-4.91c2-.86 3.58-2.52 4.33-4.57ZM244.36 177.84a6.17 6.17 0 0 0 3.18 3.8 6.17 6.17 0 0 0-3.35 3.53 6.16 6.16 0 0 0-3.18-3.8 6.17 6.17 0 0 0 3.35-3.53ZM201.19 185.48a4.03 4.03 0 0 0 2.07 2.49 4.03 4.03 0 0 0-2.19 2.3 4.03 4.03 0 0 0-2.07-2.48 4.03 4.03 0 0 0 2.19-2.3ZM187.71 10a8.67 8.67 0 0 0 4.47 5.35 8.68 8.68 0 0 0-4.72 4.96 8.67 8.67 0 0 0-4.46-5.34A8.68 8.68 0 0 0 187.7 10ZM167.08 22a5.67 5.67 0 0 0 2.92 3.5 5.68 5.68 0 0 0-3.08 3.24 5.68 5.68 0 0 0-2.92-3.49 5.68 5.68 0 0 0 3.08-3.25Z"/><path fill="#F4AF14" d="M311.75 49.42a3.37 3.37 0 0 0-2.65-2.38c-3.98-.56-3.84 5.35-1.71 6.6a2.85 2.85 0 0 0-3.04 1.06 2 2 0 0 0-.35.87c-.04.63.6 1.68 2.55 1.4a6.51 6.51 0 0 0 4.49-2.93 6.88 6.88 0 0 0 .7-4.62Z"/><path fill="#FFD474" d="M309.24 49.95c.28-.84-.03-2.07-1.12-1.79-1.32.35-1.29 1.82-1.05 2.24.42.7 1.85.5 2.17-.45Z"/><path fill="#BA720C" d="M309.7 53.58a5 5 0 0 0-1.44 2.3c-.03.22-.07.43.1.57.07.07.21.1.32.1.52 0 1-.27 1.46-.56.39-.27.8-.55 1.15-.87.39-.31.77-.66 1.05-1.12.39-.56.84-1.92-.17-2.06-.94-.15-1.92 1.08-2.48 1.64Z"/><path fill="#F4AF14" d="M315.62 50.88c1.3-.03 2.51.67 2.96 1.75 1.43 3.54-4.5 5.18-6.27 3.6.56.91.42 2.25-.39 3.15-.21.25-.49.46-.8.56-.63.21-1.85-.07-1.96-1.96-.1-1.75.6-3.74 1.95-5.07a8.16 8.16 0 0 1 4.5-2.03h.01Z"/><path fill="#FFD474" d="M315.9 53.63c.28-.84-.04-2.07-1.12-1.79-1.32.35-1.3 1.82-1.05 2.24.42.7 1.85.5 2.16-.45Z"/><path fill="#F4AF14" d="M131.05 8.42a3.37 3.37 0 0 1 2.65-2.38c3.98-.56 3.84 5.35 1.71 6.6 1.08-.3 2.37.12 3.04 1.06a2 2 0 0 1 .35.87c.03.63-.6 1.68-2.55 1.4a6.51 6.51 0 0 1-4.49-2.93 6.88 6.88 0 0 1-.7-4.62Z"/><path fill="#FFD474" d="M133.56 8.95c-.28-.84.03-2.07 1.12-1.79 1.32.35 1.29 1.82 1.05 2.24-.42.7-1.85.5-2.17-.45Z"/><path fill="#BA720C" d="M133.1 12.58a5.01 5.01 0 0 1 1.44 2.3c.03.22.07.43-.1.57a.5.5 0 0 1-.32.1c-.52 0-1-.27-1.46-.56-.39-.27-.8-.55-1.15-.87a4.58 4.58 0 0 1-1.05-1.12c-.39-.56-.84-1.92.17-2.06.94-.15 1.92 1.08 2.48 1.64Z"/><path fill="#F4AF14" d="M127.18 9.88c-1.3-.03-2.51.67-2.96 1.75-1.43 3.54 4.5 5.18 6.28 3.6-.57.91-.43 2.25.38 3.15.21.25.49.46.8.56.63.21 1.85-.07 1.96-1.96.1-1.75-.6-3.74-1.95-5.07a8.16 8.16 0 0 0-4.5-2.03h-.01Z"/><path fill="#FFD474" d="M126.9 12.63c-.28-.84.04-2.07 1.12-1.79 1.32.35 1.3 1.82 1.05 2.24-.42.7-1.85.5-2.16-.45Z"/><path fill="#F9D563" d="M326.66 127.44c2.77.2 5.5-.6 7.86-2.08 11.56-7.34 14.68-28.08 1.76-35.56-12.15-8.03-29.32 2.32-27.73 16.97.83 9.3 8.8 20 18.1 20.67Z"/><path fill="#FFF6D9" d="M320.86 97.8c.2-2.2-.83-4.07-2.27-4.2-1.45-.13-2.78 1.55-2.97 3.74-.2 2.19.82 4.07 2.27 4.2 1.45.12 2.78-1.55 2.97-3.74Z" opacity=".45"/><path fill="#C3213C" d="M326.66 127.44c11.6.48 18.86-13.47 18.07-23.79a18.2 18.2 0 0 0-19.67-16.55c16.28 12.88-6.5 39.96-16.23 21.7 1.62 8.6 9.2 18.08 17.83 18.64Z" opacity=".13"/><path fill="#C3213C" d="M311.77 116.53c3.32 5.81 8.86 10.52 14.89 10.9 17.65.1 25.03-29.08 9.62-37.63 0 0 12.05 20.01-9.66 28.42-6.06 2.33-11.39.45-14.85-1.7Z" opacity=".13"/><path fill="#43A4E4" d="M296.3 141.35c4.39 8.55 15.44 15.69 24.85 14.61 21.57-3.36 18.35-41.79-2.66-44.35a20.64 20.64 0 0 0-22.2 29.74Z"/><path fill="#4269B4" d="M321.15 156c21.57-3.36 18.35-41.8-2.66-44.35 14.05 8.83-14.06 15.1-3.36 29.98 1.94 2.39 4.91 3.95 6.4 6.68a7.82 7.82 0 0 1-.38 7.69Z" opacity=".25"/><path fill="#84CEFF" d="M305.3 131.37c1.95-.3 3.15-2.88 2.7-5.76-.46-2.86-2.4-4.94-4.35-4.63-1.95.3-3.15 2.89-2.7 5.76.46 2.87 2.4 4.94 4.35 4.63ZM304.43 135.58c.6-.56.44-1.73-.37-2.62-.8-.89-1.96-1.17-2.57-.61-.6.55-.44 1.72.37 2.61.8.9 1.96 1.17 2.57.62Z" opacity=".45"/><path fill="#FEE2F1" fill-rule="evenodd" d="M96.68 60.58S86.24 46.44 74.1 54.83l1.46 5.22s9.68-9.27 21.12.53Z" clip-rule="evenodd"/><path fill="#BAFB6F" fill-rule="evenodd" d="M237.97 31.88s3.53-16.77 17.7-14.25l.82 5.22s-12.34-4.3-18.52 9.02Z" clip-rule="evenodd"/><path fill="#FFD474" fill-rule="evenodd" d="M253.66 173.45s19.85-7.62 26.77 8.83l-4.89 4.38s-3.84-15.76-21.89-13.22Z" clip-rule="evenodd"/><path fill="#32B858" d="M195.58 178.31a3.12 3.12 0 1 0 0-6.23 3.12 3.12 0 0 0 0 6.23Z"/><path fill="#BAFB6F" d="M171.12 95.23a3.12 3.12 0 1 0 0-6.23 3.12 3.12 0 0 0 0 6.23Z"/><path fill="#F4AF14" d="M105 177a2 2 0 1 0 0-4 2 2 0 0 0 0 4ZM278 97a2 2 0 1 0 0-4 2 2 0 0 0 0 4Z"/><path fill="#BAFB6F" d="M123.5 36a2.5 2.5 0 1 0 0-5 2.5 2.5 0 0 0 0 5Z"/><path fill="#F17F7F" d="M223.5 116a4.5 4.5 0 1 0 0-9 4.5 4.5 0 0 0 0 9Z"/><path fill="#FEE2F1" d="M128 103a2 2 0 1 0 0-4 2 2 0 0 0 0 4Z"/><path fill="#FEE2F1" fill-rule="evenodd" d="M264.26 59.62a3.39 3.39 0 1 0 0 6.78 3.39 3.39 0 0 0 0-6.78ZM260.31 63a3.96 3.96 0 1 1 7.91 0 3.96 3.96 0 0 1-7.92 0Z" clip-rule="evenodd"/><path fill="#F17F7F" fill-rule="evenodd" d="M298.96 182.57a3.39 3.39 0 1 0 0 6.78 3.39 3.39 0 0 0 0-6.78Zm-3.96 3.39a3.96 3.96 0 1 1 7.92 0 3.96 3.96 0 0 1-7.92 0Z" clip-rule="evenodd"/><path fill="#BAFB6F" fill-rule="evenodd" d="M158.96 167.57a3.39 3.39 0 1 0 0 6.78 3.39 3.39 0 0 0 0-6.78Zm-3.96 3.39a3.96 3.96 0 1 1 7.92 0 3.96 3.96 0 0 1-7.92 0Z" clip-rule="evenodd"/></g><defs><clipPath id="a"><path fill="#fff" d="M0 0h320v194H0z"/></clipPath></defs></svg>