<svg width="320" height="193" viewBox="0 0 320 193" fill="none" xmlns="http://www.w3.org/2000/svg">
<g clip-path="url(#clip0_1532_26726)">
<rect width="320" height="194" fill="#020512"/>
<path d="M-51.5343 52.5726L-46.7322 47.8767L17.3489 42.5131L18.3026 45.3929L-51.5343 52.5726Z" fill="#BF328D"/>
<path d="M-48.3156 143.282L33.6086 134.855L18.3027 45.3935L-51.5343 52.5731L-48.3156 143.282Z" fill="#E04198"/>
<path opacity="0.36" d="M14.8712 136.786L33.6086 134.855L18.3026 45.3933L8.62537 46.3882L14.8712 136.786Z" fill="#B45F00"/>
<path opacity="0.36" d="M13.4604 45.8878L23.2581 126.287L14.8716 136.786L8.62576 46.388L13.4604 45.8878Z" fill="#B45F00"/>
<path opacity="0.36" d="M23.2577 126.287L14.8712 136.786L33.6086 134.855L23.2577 126.287Z" fill="#B45F00"/>
<path opacity="0.36" d="M23.2577 126.287L14.8712 136.786L33.6086 134.855L23.2577 126.287Z" fill="#B45F00"/>
<path d="M17.7368 108.851L-4.33891 133.165L-36.4334 126.2L-46.4521 94.9226L-24.3764 70.609L7.71808 77.5734L17.7368 108.851ZM-4.58298 132.415L16.9598 108.689L7.17959 78.169L-24.1433 71.3754L-45.6861 95.1013L-35.9059 125.621L-4.58298 132.415Z" fill="#BF328D"/>
<path d="M22.6208 69.3547L21.0414 71.2603L-14.3321 65.2052L-20.1653 49.4331L-19.5254 49.1956L-13.8243 64.5944L20.7636 70.5163L22.0925 68.9154L22.6208 69.3547Z" fill="#BF328D"/>
<path d="M30.716 162.117L115.679 101.065L42.271 12.1434L-30.1496 64.179L30.716 162.117Z" fill="#EF8A11"/>
<path opacity="0.36" d="M96.239 115.033L115.679 101.065L42.2705 12.1431L32.2388 19.3459L96.239 115.033Z" fill="#B45F00"/>
<path d="M26.9017 35.767C25.3469 33.6035 22.612 32.9092 20.7931 34.2164C18.9743 35.5235 18.7603 38.337 20.3151 40.5005C21.8699 42.6641 24.6048 43.3583 26.4237 42.0512C28.2425 40.7441 28.4566 37.9306 26.9017 35.767Z" fill="#575770"/>
<path d="M25.8482 36.5241C24.791 35.053 22.9311 34.5812 21.6939 35.4704C20.4567 36.3595 20.3108 38.2728 21.368 39.7438C22.4252 41.2149 24.2852 41.6867 25.5223 40.7976C26.7595 39.9085 26.9054 37.9952 25.8482 36.5241Z" fill="#E2E2E2"/>
<path opacity="0.36" d="M37.2586 15.7473L98.8557 98.1594L96.239 115.033L32.2388 19.3459L37.2586 15.7473Z" fill="#B45F00"/>
<path opacity="0.36" d="M98.8555 98.1596L96.2388 115.034L115.678 101.065L98.8555 98.1596Z" fill="#B45F00"/>
<path opacity="0.36" d="M98.8555 98.1596L96.2388 115.034L115.678 101.065L98.8555 98.1596Z" fill="#B45F00"/>
<path opacity="0.36" d="M48.9118 89.415C46.9046 78.6093 36.5176 71.4766 25.7118 73.4839C14.906 75.4911 7.77336 85.8781 9.7806 96.6839C11.7878 107.49 22.1749 114.622 32.9806 112.615C43.7864 110.608 50.9191 100.221 48.9118 89.415Z" fill="#B45F00"/>
<path d="M18.7986 74.8522C8.78563 80.6906 5.38902 93.5916 11.2341 103.603C17.0724 113.616 29.9734 117.013 39.9864 111.175C49.9982 105.329 53.3948 92.4285 47.5497 82.4167C41.7114 72.4037 28.8104 69.0072 18.7986 74.8522ZM46.1901 83.2137C51.596 92.4765 48.459 104.408 39.1895 109.815C29.9255 115.214 17.994 112.077 12.5881 102.814C7.18906 93.5503 10.3248 81.6121 19.5888 76.213C28.8516 70.8072 40.7898 73.9429 46.1901 83.2137Z" fill="#464558"/>
<path fill-rule="evenodd" clip-rule="evenodd" d="M24.7668 86.3551C28.5947 84.3807 32.5453 82.6907 37.0282 82.8142C39.715 82.8874 41.9127 83.9728 43.3235 86.3071C45.5329 89.9728 44.0079 93.4108 40.3129 95.0115C38.7336 95.6399 37.114 96.1641 35.4676 96.5816C32.5977 97.4009 30.2335 99.0266 28.1126 101.061C27.0938 102.039 26.1865 103.129 25.0364 103.963C22.8763 105.523 20.0067 106.119 17.8481 104.342C15.0949 102.146 14.2781 98.3122 15.9025 95.1837C17.8688 91.2658 21.1734 88.6907 24.771 86.3404L24.7668 86.3551Z" fill="white"/>
<path fill-rule="evenodd" clip-rule="evenodd" d="M38.4051 87.9748C39.2105 89.3048 38.9506 90.9863 37.8471 91.6589C36.8685 92.2525 35.2209 91.6861 34.513 90.5055C33.7353 89.2121 33.9876 87.6018 35.0805 86.9102C36.1722 86.2119 37.6274 86.6814 38.4131 87.9803L38.4051 87.9748Z" fill="#464558"/>
<path fill-rule="evenodd" clip-rule="evenodd" d="M23.7147 96.546C24.5201 97.8761 24.2601 99.5576 23.1567 100.23C22.1781 100.824 20.5304 100.257 19.8225 99.0767C19.0449 97.7834 19.2971 96.1731 20.3901 95.4815C21.4818 94.7832 22.937 95.2527 23.7227 96.5515L23.7147 96.546Z" fill="#464558"/>
<path d="M-22.5158 -12.7438C-18.4965 -6.39919 -16.7447 2.65591 -13.7002 9.12579C-6.44847 23.6293 9.92848 32.0616 24.2342 35.3926L23.8874 41.0407C7.958 36.1826 -8.61554 26.5794 -16.7658 10.6584C-20.4915 3.52641 -21.5082 -7.50786 -27.5872 -13.3303C-29.4726 -14.9134 -32.6482 -14.5748 -33.1502 -11.8293C-34.3912 -3.59324 -24.0826 0.989844 -20.6539 7.80013C-17.817 11.8378 -17.6801 18.436 -17.6095 23.5877C-16.2729 41.9051 -16.3984 50.8483 -11.6866 63.7018L-16.284 65.2537C-20.0081 54.3734 -19.4563 47.1238 -20.6883 32.2629C-21.5461 25.2403 -19.7609 15.5002 -23.8081 9.2306C-27.3844 3.16661 -34.5549 -0.491793 -36.3822 -7.5856C-38.5421 -18.3866 -28.1687 -21.4582 -22.5158 -12.7438Z" fill="white"/>
<g opacity="0.49">
<path d="M52.6703 146.243L52.231 146.771C47.0298 142.405 40.2131 140.614 33.5473 141.852C29.1417 142.671 25.1293 144.742 21.9372 147.848L21.4622 147.357C24.7484 144.157 28.8894 142.026 33.43 141.183C40.3049 139.906 47.32 141.751 52.685 146.247L52.6703 146.243Z" fill="white"/>
<path d="M20.161 126.185C20.9581 130.476 19.3874 134.984 15.9523 138.246L15.4826 137.747C18.7447 134.642 20.2408 130.372 19.4863 126.311C18.1729 119.24 10.5945 114.701 2.5996 116.186C2.43093 116.218 2.27576 116.246 2.11634 116.29L1.93705 115.625C2.10996 115.579 2.29211 115.545 2.47427 115.512C10.847 113.956 18.7787 118.744 20.161 126.185Z" fill="white"/>
<path d="M75.1292 130.192L74.5771 130.601C68.098 121.873 63.1641 109.703 60.6789 96.324C58.4381 84.2608 58.4214 72.1474 60.6239 62.2112L61.2934 62.359C59.1097 72.208 59.1291 84.2232 61.3536 96.1987C63.82 109.476 68.7136 121.542 75.1292 130.192Z" fill="white"/>
<path d="M2.57316 69.0784C5.44061 84.515 1.72232 98.2016 -5.71935 99.584C-6.60993 99.7494 -7.53308 99.7394 -8.44834 99.5465L-8.30851 98.8714C-7.48048 99.0457 -6.64879 99.0517 -5.84593 98.9026C1.22467 97.5892 4.69575 84.2625 1.89723 69.197C0.273017 60.4532 -3.27101 52.5337 -7.58713 48.01L-7.08933 47.5336C-2.68695 52.146 0.923879 60.1997 2.57066 69.0649L2.57316 69.0784Z" fill="white"/>
<path d="M38.0921 28.2743C36.3063 28.8433 34.4533 29.3132 32.5912 29.6591C27.6458 30.5777 22.72 30.6621 17.9536 29.9143L18.0584 29.2388C22.7456 29.9734 27.5947 29.8892 32.4591 28.9856C34.2942 28.6447 36.1148 28.1879 37.8736 27.6239L38.0853 28.2755L38.0921 28.2743Z" fill="white"/>
<path d="M54.3584 52.4586C38.2756 61.8044 23.9602 58.9847 14.7892 54.965C4.86633 50.6174 -1.35074 43.9761 -1.41175 43.9106L-0.904713 43.4465C-0.8437 43.512 5.28711 50.0646 15.087 54.3513C24.111 58.2936 38.1875 61.067 54.0112 51.867L54.3584 52.4586Z" fill="white"/>
</g>
<path d="M-5.59953 20.0094C-4.46785 21.1044 -3.29349 22.1286 -2.08991 23.0846L-2.0874 23.0981C-2.0874 23.0981 1.63888 30.6836 8.73101 34.8592C3.38347 32.0347 -2.57517 28.1372 -7.76532 22.9662L-5.59953 20.0094Z" fill="#E2E2E2"/>
<path d="M22.9655 35.1045C23.7475 35.2942 24.1972 35.3852 24.2334 35.3924L23.8867 41.0405C23.507 40.9505 20.1978 40.0436 15.5409 38.082L15.4024 37.9751C15.4024 37.9751 22.524 39.7162 22.9655 35.1045Z" fill="#E2E2E2"/>
<path d="M306.49 80.1366L326.279 88.3542L327.135 88.7049L327.145 88.705L327.254 88.7564L377.338 109.543L345.534 203.493L262.418 168.994L287.06 119.307L299.493 94.2504L306.49 80.1366Z" fill="#6E8AFF"/>
<g opacity="0.5">
<path d="M306.159 142.727L294.113 166.339L301.73 185.105L301.22 185.109L300.767 185.293L293.014 166.295L304.383 144.015L282.149 147.408L276.489 140.137L277.277 139.527L282.582 146.333L306.159 142.727Z" fill="#4F71DB"/>
<path d="M332.263 183.386L331.564 184.097L314.422 167.342L311.768 189.341L310.769 189.218L313.669 165.213L332.263 183.386Z" fill="#4F71DB"/>
<path d="M325.357 135.776L286.689 120.153L287.061 119.227L323.858 134.088L312.681 93.695L319.625 85.431L320.387 86.0706L313.788 93.9388L325.357 135.776Z" fill="#4F71DB"/>
</g>
<g opacity="0.75">
<path d="M287.06 119.307L298.053 114.304C299.029 113.856 299.907 113.147 300.596 112.446C301.285 111.744 301.966 110.832 302.379 109.858L305.759 101.859C306.861 99.2527 305.558 96.2762 302.839 95.3722L299.493 94.2504L287.06 119.307ZM299.18 100.907C299.326 101.239 299.181 101.617 298.849 101.763C298.528 101.909 298.139 101.764 297.993 101.442C297.847 101.11 297.992 100.732 298.314 100.586C298.646 100.44 299.024 100.575 299.18 100.907Z" fill="#4F71DB"/>
</g>
<path d="M315.09 88.4432C313.483 87.7762 311.535 88.7902 310.739 90.7081C309.943 92.6259 310.6 94.7215 312.207 95.3885C313.814 96.0555 315.762 95.0414 316.558 93.1235C317.354 91.2056 316.697 89.1102 315.09 88.4432Z" fill="#575770"/>
<path d="M314.626 89.5607C313.53 89.1054 312.203 89.7907 311.663 91.0914C311.123 92.3921 311.574 93.8156 312.671 94.2709C313.768 94.7262 315.094 94.0408 315.634 92.7401C316.174 91.4394 315.723 90.0159 314.626 89.5607Z" fill="white"/>
<path opacity="0.75" d="M327.135 88.7051L326.279 88.3543L326.248 88.4739C326.922 94.5628 323.813 99.2444 317.956 100.551C312.731 101.696 306.903 101.504 301.804 99.7898C301.079 99.4607 300.222 100.01 300.171 100.82C300.123 101.489 300.616 102.065 301.265 102.113C304.183 102.34 306.937 102.814 309.797 102.84C315.367 102.889 322.007 102.122 325.481 96.9951C327.082 94.5448 327.469 91.5494 327.254 88.7565L327.135 88.7051Z" fill="#4F71DB"/>
<path d="M357.417 19.7977C358.843 20.9056 360.281 22.7337 361.201 25.1453C361.86 26.8337 362.265 28.8189 362.237 31.0387C362.226 31.9187 362.145 32.8377 361.993 33.7859C360.499 42.898 359.072 48.2806 357.687 53.4937C356.532 57.8396 355.43 61.9962 354.344 68.1232C354.193 68.9713 354.042 69.8495 353.891 70.7777L353.89 70.7877C353.761 71.5361 353.641 72.3147 353.521 73.1232C351.472 86.6787 351.883 107.425 351.89 107.636L347.889 107.726C347.883 107.446 347.842 105.095 347.856 101.585C347.865 96.8645 347.98 90.0254 348.454 83.2508C348.711 79.5337 349.067 75.8479 349.568 72.5239C349.754 71.2661 349.949 70.0784 350.133 68.9606C350.133 68.9606 350.136 68.9573 350.143 68.9507C350.684 65.7072 351.237 63.004 351.798 60.5608C352.455 57.6187 353.126 55.0769 353.819 52.4654C355.141 47.5215 356.485 42.4079 357.89 34.0147L357.89 33.9847C357.89 33.9847 357.91 33.955 357.911 33.905C357.944 33.6854 357.986 33.4659 358.029 33.2364C358.051 33.1266 358.062 33.0068 358.084 32.8771C358.084 32.8471 358.094 32.8272 358.095 32.7972C358.117 32.6274 358.139 32.4677 358.151 32.3078C358.162 32.188 358.174 32.0681 358.186 31.9382L358.221 31.5187L358.222 31.4387C358.424 27.2509 356.671 24.2987 354.958 22.9473C354.046 22.2358 353.08 21.9438 352.497 22.1965C351.893 22.449 351.472 23.3738 351.345 24.7323C351.15 26.7401 351.486 30.2345 351.876 34.2797C352.459 40.4374 353.175 47.967 352.481 54.7288C352.447 55.0084 352.424 55.2882 352.38 55.5677C352.202 57.0655 351.933 58.5323 351.576 59.9279C350.965 62.4005 350.047 64.6592 348.753 66.5732C346.705 69.5979 343.385 72.7467 339.567 75.8193C337.93 77.139 336.193 78.4575 334.427 79.7355C330.582 82.5177 326.589 85.1481 323.11 87.4449C319.803 89.6238 316.072 92.0974 315.392 92.889C315.412 92.8593 315.433 92.8095 315.453 92.7598L311.834 91.0744C312.338 89.9806 313.903 88.78 317.896 86.1097L317.927 86.0801C318.804 85.501 319.792 84.8433 320.912 84.1072C326.811 80.2105 334.948 74.8416 340.573 69.6914C342.586 67.8564 344.279 66.0373 345.44 64.3317C347.407 61.426 348.307 57.3769 348.633 52.9407C349.068 46.9256 348.422 40.2071 347.891 34.66C347.484 30.4146 347.13 26.7399 347.36 24.3426C347.738 20.437 349.746 19.0119 350.913 18.5164C352.883 17.6709 355.307 18.1512 357.417 19.7977Z" fill="white"/>
<path d="M340.573 69.6914C340.376 71.8191 340.046 74.2251 339.566 75.8192C337.93 77.1389 336.193 78.4574 334.427 79.7355C328.343 82.4197 318.328 85.965 317.896 86.1096L317.926 86.08C318.804 85.5009 319.792 84.8432 320.911 84.1071C326.81 80.2104 334.948 74.8416 340.573 69.6914Z" fill="#E2E2E2"/>
<path d="M291.562 90.2714C290.582 90.3191 289.469 90.5253 288.494 90.9631L266.99 100.766C264.485 101.904 263.348 104.87 264.477 107.395L269.935 119.594C271.073 122.128 274.06 123.245 276.574 122.097L298.078 112.304C299.054 111.856 299.933 111.147 300.621 110.446C301.31 109.745 301.992 108.833 302.404 107.858L305.784 99.8596C306.886 97.2531 305.584 94.2766 302.865 93.3726L294.688 90.6404C293.672 90.2977 292.543 90.2136 291.562 90.2714ZM299.205 98.9074C299.351 99.2392 299.206 99.6175 298.875 99.7633C298.553 99.9093 298.165 99.7545 298.018 99.4426C297.873 99.1108 298.017 98.7326 298.339 98.5866C298.671 98.4407 299.049 98.5754 299.205 98.9074Z" fill="#74A352"/>
<path d="M287.318 100.969C287.316 101.139 287.284 101.319 287.222 101.488L283.428 111.411C283.2 112.019 282.616 112.381 282.006 112.374C281.836 112.372 281.656 112.339 281.487 112.277C280.711 111.978 280.331 111.113 280.621 110.336L284.415 100.413C284.643 99.8056 285.227 99.4429 285.837 99.4505C286.007 99.4527 286.187 99.4849 286.356 99.547C286.963 99.7746 287.326 100.359 287.318 100.969Z" fill="#568040"/>
<path d="M291.038 107.466C291.023 108.666 290.329 109.798 289.162 110.313C288.388 110.653 287.537 110.683 286.741 110.383C285.955 110.083 285.332 109.495 284.982 108.721C284.641 107.956 284.612 107.096 284.912 106.3C285.212 105.513 285.81 104.891 286.574 104.54C288.163 103.83 290.034 104.543 290.744 106.132C290.939 106.565 291.023 107.016 291.018 107.456L291.038 107.466Z" fill="#568040"/>
<path d="M283.145 104.447C283.14 104.817 283.066 105.186 282.931 105.535C282.631 106.321 282.044 106.944 281.269 107.294C280.495 107.635 279.644 107.664 278.848 107.364C278.062 107.064 277.439 106.476 277.089 105.702C276.748 104.928 276.719 104.077 277.019 103.281C277.319 102.495 277.917 101.872 278.681 101.521C280.27 100.811 282.141 101.525 282.851 103.114C283.036 103.536 283.131 103.987 283.125 104.437L283.145 104.447Z" fill="#568040"/>
<path d="M286.319 100.957C286.318 101.017 286.317 101.077 286.287 101.126L282.493 111.05C282.42 111.249 282.218 111.376 282.018 111.374C281.958 111.373 281.898 111.372 281.849 111.342C281.59 111.239 281.464 110.957 281.557 110.698L285.351 100.775C285.423 100.576 285.625 100.448 285.825 100.451C285.885 100.451 285.945 100.452 285.995 100.483C286.194 100.555 286.321 100.757 286.319 100.957Z" fill="white"/>
<path d="M290.038 107.454C290.028 108.273 289.548 109.048 288.754 109.408C287.667 109.894 286.383 109.408 285.897 108.312C285.664 107.789 285.641 107.199 285.848 106.661C286.054 106.124 286.46 105.699 286.983 105.465C288.069 104.979 289.353 105.465 289.839 106.561C289.966 106.853 290.032 107.163 290.028 107.463L290.038 107.454ZM286.718 107.412C286.716 107.582 286.754 107.743 286.822 107.903C286.949 108.185 287.176 108.408 287.465 108.512C287.753 108.625 288.074 108.609 288.355 108.483C288.637 108.356 288.86 108.129 288.963 107.84C289.077 107.552 289.061 107.231 288.934 106.95C288.672 106.366 287.985 106.108 287.402 106.361C287.12 106.487 286.897 106.714 286.793 107.003C286.742 107.132 286.72 107.272 286.718 107.402L286.718 107.412Z" fill="white"/>
<path d="M282.135 104.435C282.125 105.255 281.645 106.029 280.851 106.379C279.765 106.865 278.481 106.379 277.994 105.283C277.761 104.76 277.738 104.17 277.945 103.632C278.152 103.095 278.557 102.67 279.08 102.436C280.166 101.95 281.45 102.446 281.936 103.532C282.063 103.824 282.129 104.135 282.125 104.435L282.135 104.435ZM278.815 104.393C278.813 104.563 278.851 104.724 278.919 104.885C279.046 105.166 279.273 105.389 279.562 105.493C279.85 105.606 280.171 105.59 280.452 105.464C280.734 105.337 280.957 105.11 281.06 104.821C281.174 104.533 281.168 104.213 281.031 103.931C280.769 103.348 280.082 103.079 279.499 103.342C279.217 103.468 278.994 103.696 278.89 103.984C278.839 104.114 278.817 104.253 278.815 104.383L278.815 104.393Z" fill="white"/>
<path d="M291.805 91.6845C290.964 91.724 290.082 91.903 289.348 92.2339L267.834 102.026C266.164 102.795 265.399 104.776 266.158 106.466L271.616 118.675C272.365 120.354 274.366 121.109 276.046 120.34L297.55 110.538C298.274 110.207 298.991 109.646 299.589 109.043C300.176 108.43 300.715 107.697 301.025 106.961L304.405 98.9623C305.136 97.2313 304.28 95.3004 302.488 94.698L294.321 91.9659C293.564 91.7164 292.655 91.6351 291.805 91.6845ZM293.615 94.0672L301.792 96.7995C302.339 96.9863 302.602 97.5497 302.365 98.0968L298.985 106.095C298.81 106.503 298.464 107.019 297.998 107.493C297.532 107.977 297.027 108.341 296.625 108.526L275.121 118.318C274.558 118.581 273.891 118.323 273.638 117.77L268.18 105.561C267.927 104.998 268.185 104.301 268.758 104.048L290.262 94.2454C290.665 94.0705 291.267 93.928 291.927 93.8962C292.587 93.8644 293.207 93.9321 293.615 94.0672Z" fill="white"/>
<path d="M301.127 98.7613C301.141 97.6568 300.257 96.7502 299.152 96.7365C298.048 96.7227 297.141 97.6069 297.127 98.7113C297.114 99.8158 297.998 100.722 299.102 100.736C300.207 100.75 301.113 99.8657 301.127 98.7613Z" stroke="white" stroke-width="1.5" stroke-miterlimit="10"/>
<path d="M316.807 86.846C316.807 86.846 311.998 89.9262 312.099 93.8978C312.099 93.8978 310.884 92.6725 311.591 91.2713C312.299 89.87 316.797 86.8458 316.797 86.8458L316.807 86.846Z" fill="#E2E2E2"/>
<path d="M299.472 97.5608C304.641 99.2655 310.549 99.4492 315.854 98.3153C321.79 97.0293 324.948 92.4083 324.263 86.3993C324.305 86.2298 324.387 86.0608 324.38 85.8607C324.203 84.7784 323.243 83.9864 322.452 83.2565C322.235 83.0737 322.209 82.7534 322.391 82.5456C322.574 82.3379 322.884 82.3118 323.092 82.4944C324.14 83.4675 325.99 85.0407 325.15 86.6604L325.254 86.3017C325.529 89.1553 325.18 92.2712 323.478 94.7902C319.965 99.8567 313.225 100.613 307.575 100.562C304.665 100.526 301.881 100.061 298.913 99.844C298.254 99.7958 297.761 99.2196 297.809 98.5601C297.859 97.7607 298.726 97.2215 299.462 97.5407L299.472 97.5608Z" fill="#4068C1"/>
<path d="M173.981 -9.37612C173.108 -8.73685 172.219 -7.86967 171.591 -6.87463L157.838 15.1885C156.237 17.7567 156.993 21.1643 159.567 22.793L171.991 30.6588C174.576 32.2875 177.994 31.4982 179.601 28.9189L193.359 6.86687C193.982 5.86071 194.354 4.67668 194.56 3.61493C194.766 2.55319 194.838 1.30245 194.621 0.157324L192.853 -9.23159C192.281 -12.289 189.273 -14.229 186.233 -13.4007L177.077 -10.9326C175.938 -10.6269 174.854 -10.0209 173.987 -9.37056L173.981 -9.37612ZM186.238 -6.10751C186.572 -5.89071 186.672 -5.45712 186.455 -5.12359C186.249 -4.79562 185.805 -4.69 185.477 -4.89568C185.143 -5.11247 185.043 -5.54606 185.249 -5.87404H185.26C185.466 -6.20757 185.894 -6.31875 186.238 -6.10751Z" fill="#3E875B"/>
<path d="M176.593 3.01994C176.694 3.18115 176.771 3.35903 176.816 3.55359L179.367 14.9604C179.523 15.6552 179.217 16.3445 178.65 16.7059C178.489 16.8059 178.311 16.8837 178.117 16.9282C177.227 17.1283 176.343 16.5669 176.143 15.6775L173.592 4.27069C173.436 3.57583 173.742 2.88653 174.309 2.5252C174.47 2.42514 174.648 2.34732 174.842 2.30285C175.537 2.1472 176.227 2.45294 176.588 3.01994H176.593Z" fill="#3B754B"/>
<path d="M183.948 6.71099C184.66 7.8172 184.715 9.27918 183.965 10.4632C183.47 11.247 182.697 11.7918 181.791 11.9919C180.885 12.1976 179.951 12.0308 179.168 11.5361C178.384 11.0413 177.839 10.2687 177.639 9.35701C177.439 8.45091 177.6 7.51703 178.095 6.73323C179.123 5.1156 181.274 4.63198 182.892 5.66037C183.331 5.93831 183.681 6.29964 183.948 6.70544V6.71099Z" fill="#3B754B"/>
<path d="M174.881 8.74536C175.104 9.08446 175.259 9.46802 175.354 9.87381C175.559 10.7799 175.393 11.7082 174.898 12.492C174.403 13.2758 173.631 13.8206 172.724 14.0207C171.818 14.2264 170.884 14.0596 170.101 13.5649C169.317 13.0702 168.772 12.2975 168.572 11.3858C168.372 10.4797 168.533 9.54584 169.028 8.76204C170.056 7.14441 172.208 6.66079 173.825 7.68918C174.259 7.96156 174.614 8.32289 174.887 8.73981L174.881 8.74536Z" fill="#3B754B"/>
<path d="M175.671 3.62049C175.704 3.67608 175.732 3.73167 175.743 3.79837L178.295 15.2051C178.345 15.4386 178.245 15.6665 178.056 15.7888C178 15.8222 177.945 15.85 177.878 15.8611C177.583 15.9278 177.289 15.7388 177.222 15.4442L174.671 4.0374C174.62 3.80393 174.721 3.57602 174.91 3.45372C174.965 3.42037 175.021 3.39258 175.087 3.38146C175.321 3.33143 175.549 3.43149 175.671 3.62049Z" fill="white"/>
<path d="M183.025 7.31155C183.515 8.06756 183.548 9.06815 183.037 9.87974C182.336 10.986 180.863 11.3139 179.757 10.6135C179.223 10.2744 178.851 9.74633 178.712 9.12374C178.573 8.5067 178.684 7.86744 179.023 7.33378C179.723 6.22757 181.197 5.8996 182.303 6.60002C182.603 6.78902 182.842 7.03361 183.025 7.31711V7.31155ZM179.957 9.29607C180.057 9.45172 180.185 9.57956 180.346 9.67962C180.635 9.86307 180.974 9.92422 181.308 9.84639C181.641 9.77413 181.925 9.57401 182.108 9.28495C182.292 8.99589 182.353 8.6568 182.275 8.32327C182.203 7.98974 182.003 7.70623 181.713 7.52279C181.119 7.14479 180.329 7.32267 179.951 7.91747C179.768 8.20653 179.707 8.54562 179.785 8.87916C179.818 9.02924 179.879 9.16822 179.957 9.29607Z" fill="white"/>
<path d="M173.953 9.3403C174.442 10.0963 174.476 11.0969 173.964 11.9029C173.264 13.0091 171.791 13.3371 170.685 12.6367C170.151 12.2976 169.778 11.7695 169.639 11.1469C169.5 10.5299 169.612 9.89063 169.951 9.35698C170.651 8.25077 172.124 7.9228 173.23 8.62321C173.531 8.81221 173.77 9.0568 173.953 9.3403ZM170.885 11.3248C170.985 11.4805 171.113 11.6083 171.274 11.7084C171.563 11.8918 171.902 11.953 172.235 11.8751C172.569 11.8029 172.852 11.6028 173.036 11.3137C173.219 11.0246 173.28 10.6856 173.203 10.352C173.13 10.0185 172.93 9.73498 172.641 9.55154C172.046 9.17354 171.257 9.35143 170.879 9.94622C170.696 10.2353 170.634 10.5744 170.712 10.9079C170.746 11.058 170.807 11.197 170.885 11.3248Z" fill="white"/>
<path d="M175.065 -8.22558C174.32 -7.68081 173.619 -6.97484 173.147 -6.22995H173.136L159.378 15.8276C158.316 17.5509 158.816 19.83 160.539 20.914L172.969 28.7909C174.676 29.8748 176.971 29.3523 178.044 27.6235L191.797 5.56039C192.258 4.81551 192.575 3.86494 192.759 2.94773C192.925 2.03051 192.975 1.02992 192.809 0.168298L191.046 -9.22062C190.663 -11.2552 188.706 -12.5003 186.694 -11.9667L177.544 -9.50412H177.533C176.699 -9.27065 175.815 -8.79258 175.065 -8.23114V-8.22558ZM178.172 -7.1416L187.328 -9.60974C187.945 -9.77094 188.528 -9.41518 188.645 -8.77035L190.407 0.618564C190.496 1.09663 190.491 1.78036 190.352 2.50302C190.218 3.23123 189.979 3.8705 189.723 4.28741L175.965 26.3394C175.61 26.9231 174.842 27.0899 174.27 26.7396L161.84 18.8683C161.268 18.507 161.079 17.7121 161.451 17.1284L175.204 -4.93474C175.465 -5.34053 175.932 -5.83527 176.516 -6.26886C177.099 -6.69689 177.711 -7.01375 178.167 -7.13604L178.172 -7.1416Z" fill="white"/>
</g>
<defs>
<clipPath id="clip0_1532_26726">
<rect width="320" height="194" fill="white"/>
</clipPath>
</defs>
</svg>
