<svg width="320" height="193" fill="none" xmlns="http://www.w3.org/2000/svg">
  <g clip-path="url(#a)">
    <path fill="#020512" d="M0 0h320v194H0z"/>
    <path d="m-51.534 52.573 4.802-4.696 64.08-5.364.955 2.88-69.837 7.18Z" fill="#BF328D"/>
    <path d="m-48.316 143.282 81.925-8.427-15.306-89.461-69.837 7.18 3.218 90.708Z" fill="#E04198"/>
    <path opacity=".36" d="m14.871 136.786 18.738-1.931-15.306-89.462-9.678.995 6.246 90.398Z" fill="#B45F00"/>
    <path opacity=".36" d="m13.46 45.888 9.798 80.399-8.386 10.499-6.246-90.398 4.834-.5Z" fill="#B45F00"/>
    <path opacity=".36" d="m23.258 126.287-8.387 10.499 18.738-1.931-10.351-8.568Z" fill="#B45F00"/>
    <path opacity=".36" d="m23.258 126.287-8.387 10.499 18.738-1.931-10.351-8.568Z" fill="#B45F00"/>
    <path d="M17.737 108.851-4.34 133.165l-32.094-6.965-10.02-31.277 22.077-24.314 32.094 6.964 10.019 31.278Zm-22.32 23.564 21.543-23.726-9.78-30.52-31.323-6.794-21.543 23.726 9.78 30.52 31.323 6.794ZM22.62 69.355l-1.579 1.905-35.373-6.055-5.833-15.772.64-.237 5.7 15.398 34.589 5.922 1.329-1.6.528.439Z" fill="#BF328D"/>
    <path d="m30.716 162.117 84.963-61.052-73.408-88.922-72.42 52.036 60.865 97.938Z" fill="#EF8A11"/>
    <path opacity=".36" d="m96.239 115.033 19.44-13.968L42.27 12.143 32.24 19.346l64 95.687Z" fill="#B45F00"/>
    <path d="M26.902 35.767c-1.555-2.164-4.29-2.858-6.109-1.55-1.819 1.306-2.033 4.12-.478 6.284 1.555 2.163 4.29 2.857 6.109 1.55 1.819-1.307 2.033-4.12.478-6.284Z" fill="#575770"/>
    <path d="M25.848 36.524c-1.057-1.471-2.917-1.943-4.154-1.054-1.237.89-1.383 2.803-.326 4.274 1.057 1.47 2.917 1.943 4.154 1.054 1.238-.89 1.383-2.803.326-4.274Z" fill="#E2E2E2"/>
    <path opacity=".36" d="M37.259 15.747 98.856 98.16l-2.617 16.874-64-95.687 5.02-3.599ZM98.856 98.16l-2.617 16.874 19.439-13.969-16.822-2.905Z" fill="#B45F00"/>
    <path opacity=".36" d="m98.856 98.16-2.617 16.874 19.439-13.969-16.822-2.905ZM48.912 89.415c-2.007-10.806-12.394-17.938-23.2-15.931C14.906 75.49 7.773 85.878 9.78 96.684c2.007 10.806 12.394 17.938 23.2 15.931 10.805-2.007 17.938-12.394 15.93-23.2Z" fill="#B45F00"/>
    <path d="M18.799 74.852c-10.013 5.839-13.41 18.74-7.565 28.751 5.838 10.013 18.74 13.41 28.752 7.572 10.012-5.846 13.409-18.746 7.564-28.758-5.839-10.013-18.74-13.41-28.751-7.565Zm27.391 8.362c5.406 9.263 2.269 21.194-7 26.601-9.264 5.399-21.196 2.262-26.602-7.001-5.399-9.264-2.263-21.202 7-26.601 9.264-5.406 21.202-2.27 26.602 7Z" fill="#464558"/>
    <path fill-rule="evenodd" clip-rule="evenodd" d="M24.767 86.355c3.828-1.974 7.778-3.664 12.261-3.54 2.687.072 4.885 1.158 6.296 3.492 2.209 3.666.684 7.104-3.011 8.704a39.114 39.114 0 0 1-4.845 1.57c-2.87.82-5.235 2.446-7.355 4.48-1.02.978-1.927 2.068-3.077 2.902-2.16 1.56-5.03 2.156-7.188.379a7.368 7.368 0 0 1-1.945-9.158c1.966-3.918 5.27-6.493 8.868-8.844l-.004.015Z" fill="#fff"/>
    <path fill-rule="evenodd" clip-rule="evenodd" d="M38.405 87.975c.806 1.33.546 3.011-.558 3.684-.979.593-2.626.027-3.334-1.154-.778-1.293-.525-2.903.568-3.595 1.091-.698 2.546-.229 3.332 1.07l-.008-.005ZM23.715 96.546c.805 1.33.545 3.012-.558 3.684-.979.594-2.627.027-3.334-1.153-.778-1.294-.526-2.904.567-3.596 1.092-.698 2.547-.228 3.333 1.07l-.008-.005Z" fill="#464558"/>
    <path d="M-22.516-12.744c4.02 6.345 5.771 15.4 8.816 21.87 7.252 14.503 23.628 22.936 37.934 26.267l-.347 5.648C7.958 36.183-8.616 26.579-16.766 10.658c-3.726-7.132-4.742-18.166-10.821-23.988-1.886-1.583-5.061-1.245-5.563 1.5C-34.391-3.592-24.083.99-20.654 7.8c2.837 4.038 2.974 10.636 3.044 15.788 1.337 18.317 1.212 27.26 5.923 40.114l-4.597 1.552c-3.724-10.88-3.172-18.13-4.404-32.991-.858-7.023.927-16.763-3.12-23.032-3.576-6.064-10.747-9.723-12.574-16.817-2.16-10.8 8.213-13.872 13.866-5.158Z" fill="#fff"/>
    <g opacity=".49" fill="#fff">
      <path d="m52.67 146.243-.439.528a22.568 22.568 0 0 0-18.684-4.919 22.47 22.47 0 0 0-11.61 5.996l-.475-.491c3.286-3.2 7.427-5.331 11.968-6.174a23.262 23.262 0 0 1 19.255 5.064l-.015-.004ZM20.161 126.185c.797 4.291-.774 8.799-4.209 12.061l-.47-.499c3.263-3.105 4.759-7.375 4.004-11.436-1.313-7.071-8.892-11.61-16.886-10.125-.17.032-.324.06-.484.104l-.179-.665a6.87 6.87 0 0 1 .537-.113c8.373-1.556 16.305 3.232 17.687 10.673ZM75.13 130.192l-.553.409c-6.479-8.728-11.413-20.898-13.898-34.277-2.24-12.063-2.258-24.177-.055-34.113l.67.148c-2.184 9.849-2.165 21.864.06 33.84 2.466 13.277 7.36 25.343 13.775 33.993ZM2.573 69.078c2.868 15.437-.85 29.124-8.292 30.506a7.004 7.004 0 0 1-2.73-.038l.14-.675c.829.175 1.66.18 2.463.032 7.07-1.314 10.542-14.64 7.743-29.706C.273 60.453-3.27 52.534-7.587 48.01l.498-.476C-2.687 52.146.924 60.2 2.57 69.064l.002.014ZM38.092 28.274a45.69 45.69 0 0 1-5.5 1.385c-4.946.919-9.872 1.003-14.638.255l.104-.675c4.688.734 9.537.65 14.401-.253a44.263 44.263 0 0 0 5.415-1.362l.211.652.007-.002ZM54.358 52.459c-16.082 9.345-30.398 6.526-39.569 2.506-9.923-4.348-16.14-10.989-16.2-11.054l.506-.465c.061.066 6.192 6.619 15.992 10.905 9.024 3.943 23.1 6.716 38.924-2.484l.347.592Z"/>
    </g>
    <path d="M-5.6 20.01a47.8 47.8 0 0 0 3.51 3.075l.003.013S1.639 30.684 8.73 34.86C3.383 32.035-2.575 28.137-7.765 22.966L-5.6 20.01ZM22.965 35.105c.782.19 1.232.28 1.268.287l-.346 5.648c-.38-.09-3.69-.996-8.346-2.958l-.139-.107s7.122 1.741 7.563-2.87Z" fill="#E2E2E2"/>
    <path d="m306.49 80.137 19.789 8.217.856.35.01.001.109.051 50.084 20.787-31.804 93.95-83.116-34.499 24.642-49.687 12.433-25.057 6.997-14.113Z" fill="#6E8AFF"/>
    <g opacity=".5" fill="#4F71DB">
      <path d="m306.159 142.727-12.046 23.612 7.617 18.766-.51.004-.453.184-7.753-18.998 11.369-22.28-22.234 3.393-5.66-7.271.788-.61 5.305 6.806 23.577-3.606ZM332.263 183.386l-.699.711-17.142-16.755-2.654 21.999-.999-.123 2.9-24.005 18.594 18.173ZM325.357 135.776l-38.668-15.623.372-.926 36.797 14.861-11.177-40.393 6.944-8.264.762.64-6.599 7.868 11.569 41.837Z"/>
    </g>
    <path d="m287.06 119.307 10.993-5.003c.976-.448 1.854-1.157 2.543-1.858.689-.702 1.37-1.614 1.783-2.588l3.38-7.999c1.102-2.606-.201-5.583-2.92-6.487l-3.346-1.122-12.433 25.057Zm12.12-18.4a.644.644 0 0 1-.331.856.651.651 0 0 1-.856-.321.648.648 0 0 1 .321-.856.654.654 0 0 1 .866.321Z" fill="#4F71DB" opacity=".75"/>
    <path d="M315.09 88.443c-1.607-.667-3.555.347-4.351 2.265-.796 1.918-.139 4.014 1.468 4.68 1.607.667 3.555-.347 4.351-2.264.796-1.918.139-4.014-1.468-4.68Z" fill="#575770"/>
    <path d="M314.626 89.56c-1.096-.455-2.423.23-2.963 1.531s-.089 2.725 1.008 3.18c1.097.455 2.423-.23 2.963-1.53.54-1.302.089-2.725-1.008-3.18Z" fill="#fff"/>
    <path opacity=".75" d="m327.135 88.705-.856-.35-.031.119c.674 6.089-2.435 10.77-8.292 12.077-5.225 1.145-11.053.953-16.152-.761-.725-.33-1.582.22-1.633 1.03a1.2 1.2 0 0 0 1.094 1.293c2.918.227 5.672.701 8.532.727 5.57.049 12.21-.718 15.684-5.845 1.601-2.45 1.988-5.446 1.773-8.239l-.119-.05Z" fill="#4F71DB"/>
    <path d="M357.417 19.798c1.426 1.108 2.864 2.936 3.784 5.347.659 1.689 1.064 3.674 1.036 5.894a18.88 18.88 0 0 1-.244 2.747c-1.494 9.112-2.921 14.495-4.306 19.708-1.155 4.346-2.257 8.502-3.343 14.63-.151.847-.302 1.726-.453 2.654l-.001.01c-.129.748-.249 1.527-.369 2.335-2.049 13.556-1.638 34.302-1.631 34.513l-4.001.09c-.006-.28-.047-2.631-.033-6.141.009-4.72.124-11.56.598-18.334.257-3.717.613-7.403 1.114-10.727.186-1.258.381-2.446.565-3.563l.01-.01a139.066 139.066 0 0 1 1.655-8.39c.657-2.942 1.328-5.484 2.021-8.096 1.322-4.944 2.666-10.057 4.071-18.45v-.03s.02-.03.021-.08c.033-.22.075-.44.118-.669.022-.11.033-.23.055-.359 0-.03.01-.05.011-.08.022-.17.044-.33.056-.49l.035-.369.035-.42.001-.08c.202-4.187-1.551-7.14-3.264-8.49-.912-.712-1.878-1.004-2.461-.752-.604.253-1.025 1.178-1.152 2.536-.195 2.008.141 5.503.531 9.548.583 6.157 1.299 13.687.605 20.449-.034.28-.057.56-.101.839a33.71 33.71 0 0 1-.804 4.36c-.611 2.473-1.529 4.731-2.823 6.645-2.048 3.025-5.368 6.174-9.186 9.246a125.012 125.012 0 0 1-5.14 3.916c-3.845 2.783-7.838 5.413-11.317 7.71-3.307 2.179-7.038 4.652-7.718 5.444.02-.03.041-.08.061-.13l-3.619-1.685c.504-1.093 2.069-2.294 6.062-4.964l.031-.03c.877-.579 1.865-1.237 2.985-1.973 5.899-3.897 14.036-9.265 19.661-14.416 2.013-1.835 3.706-3.654 4.867-5.36 1.967-2.905 2.867-6.954 3.193-11.39.435-6.015-.211-12.734-.742-18.281-.407-4.245-.761-7.92-.531-10.317.378-3.906 2.386-5.331 3.553-5.827 1.97-.845 4.394-.365 6.504 1.282Z" fill="#fff"/>
    <path d="M340.573 69.691c-.197 2.128-.527 4.534-1.007 6.128a124.386 124.386 0 0 1-5.139 3.916c-6.084 2.685-16.099 6.23-16.531 6.375l.03-.03c.878-.58 1.866-1.237 2.985-1.973 5.899-3.897 14.037-9.265 19.662-14.416Z" fill="#E2E2E2"/>
    <path d="M291.562 90.271c-.98.048-2.093.254-3.068.692l-21.504 9.803c-2.505 1.138-3.642 4.104-2.513 6.629l5.458 12.199a5.006 5.006 0 0 0 6.639 2.503l21.504-9.793c.976-.448 1.855-1.157 2.543-1.858.689-.701 1.371-1.613 1.783-2.588l3.38-7.998c1.102-2.607-.2-5.583-2.919-6.487l-8.177-2.733c-1.016-.342-2.145-.426-3.126-.369Zm7.643 8.636a.644.644 0 0 1-.33.856.661.661 0 0 1-.857-.32.649.649 0 0 1 .321-.856.654.654 0 0 1 .866.32Z" fill="#74A352"/>
    <path d="M287.318 100.969a1.58 1.58 0 0 1-.096.519l-3.794 9.923c-.228.608-.812.97-1.422.963a1.581 1.581 0 0 1-.519-.097 1.508 1.508 0 0 1-.866-1.941l3.794-9.923c.228-.607.812-.97 1.422-.962a1.493 1.493 0 0 1 1.481 1.518Z" fill="#568040"/>
    <path d="M291.038 107.466a3.145 3.145 0 0 1-1.876 2.847c-.774.34-1.625.37-2.421.07a3.168 3.168 0 0 1-1.829-4.083c.3-.787.898-1.409 1.662-1.76a3.16 3.16 0 0 1 4.17 1.592c.195.433.279.884.274 1.324l.02.01ZM283.145 104.447c-.005.37-.079.739-.214 1.088a3.169 3.169 0 0 1-4.083 1.829 3.169 3.169 0 0 1-1.829-4.083 3.19 3.19 0 0 1 1.662-1.76 3.16 3.16 0 0 1 4.17 1.593c.185.422.28.873.274 1.323l.02.01Z" fill="#568040"/>
    <path d="M286.319 100.957c-.001.06-.002.12-.032.169l-3.794 9.924a.508.508 0 0 1-.475.324.328.328 0 0 1-.169-.032.505.505 0 0 1-.292-.644l3.794-9.923a.505.505 0 0 1 .474-.324c.06 0 .12.001.17.032a.506.506 0 0 1 .324.474ZM290.038 107.454a2.178 2.178 0 0 1-1.284 1.954 2.162 2.162 0 0 1-2.857-1.096 2.148 2.148 0 0 1 1.086-2.847 2.16 2.16 0 0 1 2.856 1.096c.127.292.193.602.189.902l.01-.009Zm-3.32-.042c-.002.17.036.331.104.491.127.282.354.505.643.609.288.113.609.097.89-.029.282-.127.505-.354.608-.643a1.141 1.141 0 0 0-.029-.89 1.17 1.17 0 0 0-1.532-.589 1.127 1.127 0 0 0-.609.642 1.145 1.145 0 0 0-.075.399v.01ZM282.135 104.435c-.01.82-.49 1.594-1.284 1.944-1.086.486-2.37 0-2.857-1.096a2.148 2.148 0 0 1 1.086-2.847 2.17 2.17 0 0 1 3.045 1.999h.01Zm-3.32-.042c-.002.17.036.331.104.492.127.281.354.504.643.608.288.113.609.097.89-.029.282-.127.505-.354.608-.643a1.1 1.1 0 0 0-.029-.89 1.162 1.162 0 0 0-1.532-.589 1.15 1.15 0 0 0-.684 1.041v.01Z" fill="#fff"/>
    <path d="M291.805 91.684c-.841.04-1.723.219-2.457.55l-21.514 9.792c-1.67.769-2.435 2.75-1.676 4.44l5.458 12.209c.749 1.679 2.75 2.434 4.43 1.665l21.504-9.802c.724-.331 1.441-.892 2.039-1.495.587-.613 1.126-1.346 1.436-2.082l3.38-7.999c.731-1.73-.125-3.662-1.917-4.264l-8.167-2.732c-.757-.25-1.666-.33-2.516-.281Zm1.81 2.383 8.177 2.733c.547.186.81.75.573 1.297l-3.38 7.998c-.175.408-.521.924-.987 1.398-.466.484-.971.848-1.373 1.033l-21.504 9.792a1.118 1.118 0 0 1-1.483-.548l-5.458-12.209a1.157 1.157 0 0 1 .578-1.513l21.504-9.803c.403-.175 1.005-.317 1.665-.349.66-.032 1.28.036 1.688.171Z" fill="#fff"/>
    <path d="M301.127 98.761a2 2 0 1 0-3.999-.05 2 2 0 0 0 3.999.05Z" stroke="#fff" stroke-width="1.5" stroke-miterlimit="10"/>
    <path d="M316.807 86.846s-4.809 3.08-4.708 7.052c0 0-1.215-1.225-.508-2.627.708-1.401 5.206-4.425 5.206-4.425h.01Z" fill="#E2E2E2"/>
    <path d="M299.472 97.56c5.169 1.706 11.077 1.89 16.382.755 5.936-1.286 9.094-5.907 8.409-11.916.042-.17.124-.338.117-.538-.177-1.083-1.137-1.875-1.928-2.605a.5.5 0 0 1-.061-.71.494.494 0 0 1 .701-.052c1.048.974 2.898 2.547 2.058 4.166l.104-.358c.275 2.853-.074 5.97-1.776 8.488-3.513 5.067-10.253 5.823-15.903 5.772-2.91-.036-5.694-.501-8.662-.718a1.198 1.198 0 0 1-1.104-1.284c.05-.8.917-1.338 1.653-1.02l.01.02Z" fill="#4068C1"/>
    <path d="M173.981-9.376c-.873.64-1.762 1.506-2.39 2.501L157.838 15.19c-1.601 2.568-.845 5.975 1.729 7.604l12.424 7.866c2.585 1.629 6.003.84 7.61-1.74l13.758-22.052c.623-1.006.995-2.19 1.201-3.252.206-1.062.278-2.313.061-3.458l-1.768-9.389c-.572-3.057-3.58-4.997-6.62-4.169l-9.156 2.468c-1.139.306-2.223.912-3.09 1.562l-.006-.005Zm12.257 3.268c.334.217.434.65.217.984a.717.717 0 0 1-.978.228.714.714 0 0 1-.228-.978h.011a.705.705 0 0 1 .978-.234Z" fill="#3E875B"/>
    <path d="M176.593 3.02c.101.161.178.339.223.534l2.551 11.406a1.641 1.641 0 0 1-1.25 1.968c-.89.2-1.774-.361-1.974-1.25L173.592 4.27a1.641 1.641 0 0 1 1.25-1.968 1.642 1.642 0 0 1 1.746.717h.005Z" fill="#3B754B"/>
    <path d="M183.948 6.711a3.483 3.483 0 0 1 .017 3.752 3.432 3.432 0 0 1-2.174 1.529 3.456 3.456 0 0 1-2.623-.456 3.427 3.427 0 0 1-1.529-2.179c-.2-.906-.039-1.84.456-2.624a3.48 3.48 0 0 1 5.853-.028v.006ZM174.881 8.745c.223.34.378.723.473 1.129a3.446 3.446 0 0 1-.456 2.618 3.43 3.43 0 0 1-2.174 1.529 3.456 3.456 0 0 1-2.623-.456 3.426 3.426 0 0 1-1.529-2.18c-.2-.905-.039-1.84.456-2.623a3.48 3.48 0 0 1 5.859-.022l-.006.005Z" fill="#3B754B"/>
    <path d="M175.671 3.62a.504.504 0 0 1 .072.178l2.552 11.407a.553.553 0 0 1-.239.584.551.551 0 0 1-.834-.345l-2.551-11.407a.551.551 0 0 1 .416-.656c.234-.05.462.05.584.24ZM183.025 7.312c.49.756.523 1.756.012 2.568a2.381 2.381 0 0 1-3.28.733 2.362 2.362 0 0 1-1.045-1.49 2.358 2.358 0 0 1 .311-1.79 2.38 2.38 0 0 1 3.28-.733c.3.189.539.434.722.717v-.005Zm-3.068 1.984c.1.156.228.284.389.384.289.183.628.244.962.166.333-.072.617-.272.8-.561.184-.29.245-.628.167-.962a1.277 1.277 0 0 0-2.49.556c.033.15.094.29.172.417ZM173.953 9.34c.489.756.523 1.757.011 2.563a2.38 2.38 0 0 1-3.279.734 2.363 2.363 0 0 1-1.046-1.49 2.359 2.359 0 0 1 .312-1.79 2.38 2.38 0 0 1 4.002-.017Zm-3.068 1.985c.1.155.228.283.389.383.289.184.628.245.961.167.334-.072.617-.272.801-.561.183-.29.244-.628.167-.962a1.277 1.277 0 1 0-2.318.973Z" fill="#fff"/>
    <path d="M175.065-8.226c-.745.545-1.446 1.251-1.918 1.996h-.011l-13.758 22.058c-1.062 1.723-.562 4.002 1.161 5.086l12.43 7.877c1.707 1.084 4.002.561 5.075-1.168L191.797 5.56c.461-.744.778-1.695.962-2.612.166-.917.216-1.918.05-2.78l-1.763-9.389c-.383-2.034-2.34-3.28-4.352-2.746l-9.15 2.463h-.011c-.834.233-1.718.711-2.468 1.273v.005Zm3.107 1.084 9.156-2.468c.617-.16 1.2.195 1.317.84l1.762 9.389c.089.478.084 1.161-.055 1.884-.134.728-.373 1.367-.629 1.784L175.965 26.34a1.234 1.234 0 0 1-1.695.4l-12.43-7.87a1.274 1.274 0 0 1-.389-1.74l13.753-22.064c.261-.406.728-.9 1.312-1.334.583-.428 1.195-.745 1.651-.867l.005-.006Z" fill="#fff"/>
  </g>
  <defs>
    <clipPath id="a">
      <path fill="#fff" d="M0 0h320v194H0z"/>
    </clipPath>
  </defs>
</svg>
