<svg width="320" height="194" fill="none" xmlns="http://www.w3.org/2000/svg">
  <g clip-path="url(#a)">
    <path fill="#BDE0FD" d="M0 0h320v194H0z"/>
    <path d="M196.19 141.46c2.73-1.07 4.88-3.22 7.09-5.16a53.87 53.87 0 0 1 18.84-10.58c2.85-.91 5.96-1.57 8.8-.6 3.88 1.33 6.23 5.46 6.82 9.53.59 4.08-.2 8.2-.66 12.29-.45 4.1-.53 8.44 1.35 12.09.66 1.26 1.56 2.7.97 3.99-.48 1.07-1.75 1.49-2.89 1.76a62.48 62.48 0 0 1-33.96-1.31c-2.66-.87-5.3-1.96-7.43-3.77-3.6-3.1-5-7.71-5.6-12.26-.2-1.56-1.07-5 .36-5.93.97-.59 4.7.57 6.31-.05Z" fill="#F3F3F3"/>
    <path opacity=".64" d="M237 154.17c-7.68-.3-15.25-3.56-20.38-9.34a26.64 26.64 0 0 1-5.43-9.55c-.4-1.22-.8-2.57-1.09-3.97a52.18 52.18 0 0 0-6.82 5.03c-2.22 1.92-4.36 4.08-7.09 5.15-1.59.63-5.32-.53-6.3.09-1.4.91-.54 4.37-.35 5.93.6 4.55 2 9.16 5.6 12.26 2.12 1.81 4.77 2.9 7.43 3.77a62.48 62.48 0 0 0 33.96 1.31c1.14-.27 2.42-.7 2.89-1.76.59-1.3-.31-2.73-.97-4a15.35 15.35 0 0 1-1.45-4.92Z" fill="#F3F3F3"/>
    <path opacity=".64" d="M238.45 159.04c-1.88-3.66-1.81-8-1.35-12.08.45-4.1 1.26-8.22.66-12.3-.57-3.92-2.77-7.9-6.41-9.37.03.6.03 1.2.03 1.73-.15 10.53-8.8 18.57-17.72 22.79a48.8 48.8 0 0 1-17.42 4.51c-1.66.1-3.3.1-4.92.02.86 2.04 2.09 3.89 3.83 5.4 2.13 1.81 4.77 2.9 7.44 3.76a62.49 62.49 0 0 0 33.96 1.32c1.14-.28 2.42-.71 2.89-1.77.55-1.31-.33-2.75-.99-4Z" fill="#E9E9E9"/>
    <path d="M-9.16 77.84c6.6-3.16 11.5-8.92 16.6-14.17 5.9-6.1 12.57-11.85 20.66-14.43 8.1-2.57 17.9-1.27 23.53 5.07 6.93 7.82 5.42 19.63 6.68 30 .94 7.7 3.86 15.46 9.7 20.54 4.03 3.5 9.13 5.48 14.2 7.02 7.96 2.4 16.95 3.79 24.28-.14 7.4-3.97 11.2-12.3 17.07-18.3 4.03-4.1 9.27-7.2 14.99-7.82 5.7-.62 11.84 1.52 15.3 6.12 5.4 7.2 2.95 17.29 3.38 26.28.95 20.13 17.93 36.7 36.99 43.21 3.8 1.3 7.9 2.4 10.72 5.28 5.04 5.13 3.97 13.53 2.14 20.5-1.28 4.86-2.94 9.96-6.84 13.1-4.12 3.33-9.79 3.76-15.06 3.83-32.67.48-64.87-7-96.67-14.44-27.91-6.53-56.05-13.14-82.05-25.23-4.13-1.91-8.33-4.08-11.23-7.59-5.48-6.62-5.05-16.1-5.46-24.67a97.86 97.86 0 0 0-8.85-36.1c-1.21-2.61-8.9-15.1-6.43-16.97 1.2-.91 6.34.95 7.96.92 2.9-.05 5.8-.76 8.39-2Z" fill="#F3F3F3"/>
    <path opacity=".34" d="M204.95 166.51c-2.81-2.87-6.91-3.96-10.71-5.27-19.05-6.52-36.02-23.1-37-43.21-.42-9 2.03-19.07-3.38-26.28a14.75 14.75 0 0 0-2.26-2.39 54.86 54.86 0 0 1-4.76 7.38 39.15 39.15 0 0 1-7.8 7.6c-3.12 2.28-6.56 3.87-9.91 5.75-1.73.97-4.05 2.44-6 1.21-1.35-.84-2.02-2.49-2.45-3.94-.89-3-1.06-6.31-.85-9.51-4.03 5.19-7.59 10.86-13.31 13.92-7.33 3.92-16.32 2.54-24.27.14-5.1-1.54-10.2-3.53-14.2-7.02-5.85-5.09-8.77-12.85-9.7-20.54-1.26-10.38.24-22.19-6.69-30-5.63-6.35-15.43-7.65-23.52-5.07-8.13 2.54-14.8 8.3-20.7 14.39-5.1 5.25-10 11.01-16.6 14.17a20.59 20.59 0 0 1-8.35 2.03c-1.63.03-6.76-1.82-7.97-.92-2.47 1.85 5.22 14.35 6.43 16.96a97.86 97.86 0 0 1 8.85 36.1c.41 8.58-.02 18.08 5.46 24.68 2.9 3.51 7.1 5.67 11.24 7.6 26 12.08 54.13 18.68 82.04 25.22 31.82 7.43 64.02 14.92 96.67 14.44 5.28-.09 10.95-.5 15.06-3.82 3.9-3.15 5.56-8.27 6.84-13.11 1.82-6.99 2.89-15.37-2.16-20.5Z" fill="#D8D8D8"/>
    <path d="M31.6 94.77C64.7 82.6 69.94 54.3 87.93 52.12c32.05-3.91 23.37 50.99 25.36 62.7 1.12 6.53 3.83 13.12 9.1 17.13 21.75 16.51 56.28-14.2 59.57-15.8 7.08-3.45 16.56-4 22.02 1.67 9.88 10.29-1.42 30.07 8.05 40.76 4.69 5.29 12.8 5.96 19.7 4.53 74.48-15.4 91.7 63.25 86.93 70.02-5.67 8.05-40.19-5.32-49.9-3.73-44.96 7.35-90.92 2.06-136.17-3.25-23.49-2.75-47-5.52-70.36-9.18-22.85-3.63-46.3-8.11-68.95-3.27-9.37-29.26-10.92-60.36-11.68-91.07-.16-6.5-.23-31.58 10.5-28.8 6.68 1.72 12.17 4.3 19.33 4.42a55.7 55.7 0 0 0 20.15-3.48Z" fill="#F3F3F3"/>
    <g opacity=".34">
      <path opacity=".34" d="M175.03 166.63c-.7 2.48-1.08 5.17-.43 7.7 5 19.24 46.45-2.68 67.76-11.17a104.5 104.5 0 0 1 5.5-2.04c-5.05.15-10.41.78-16.12 1.95-6.9 1.44-15.02.76-19.7-4.53-9.47-10.67 1.83-30.47-8.05-40.75-.87-.9-1.84-1.65-2.89-2.25 11.67 17.55-21.03 33.46-26.06 51.1Z" fill="#A4A4A4"/>
      <path opacity=".34" d="M212.04 158.56c-3.37-3.8-4.11-8.75-4.11-14-.57.77-1.18 1.51-1.82 2.22a32.25 32.25 0 0 1-4.96 4.24c-3.63 2.64-7.57 5.08-10.13 8.89-1.99 2.94-3.94 6.57-3.2 10.25.73 3.6 4.12 5.12 7.49 5.33 2.56.15 5.17-.31 7.66-.89a43.88 43.88 0 0 0 6.9-2.2c4.4-1.79 8.36-4.3 12.45-6.67 1.21-.69 2.44-1.38 3.7-2-5.29.1-10.54-1.3-13.98-5.17Z" fill="#888"/>
      <path opacity=".34" d="M263.19 162.24c25.71 17.38-44.77 19.94-85.28 38.08 14.29-.21 76.72 31.38 90.88 29.06 9.7-1.59 44.22 11.78 49.9 3.74 3.99-5.7-7.52-62.15-55.5-70.88Z" fill="#A4A4A4"/>
      <path opacity=".34" d="M292 175.64c1.14 4.67 1.1 9.55-.73 14.18-3.44 8.65-11.53 14-19.4 18.22a106.83 106.83 0 0 1-18.05 7.61 115.13 115.13 0 0 1-27.74 17.3c14.29-.21 28.55-1.27 42.7-3.58 9.72-1.6 44.24 11.77 49.9 3.73 3.03-4.29-2.83-37.7-26.68-57.46Z" fill="#888"/>
      <path opacity=".34" d="M103.4 58.77c10.88 28.9-45 31.58-33.83 84.6 4.56 21.67 27.58 52.97 75.37-6.11.47-.57.97-1.11 1.49-1.63-8.35 2.06-16.87 1.73-24-3.7-5.28-4.01-8.01-10.6-9.12-17.14-1.66-9.6 3.91-48.36-11.82-59.72a19.2 19.2 0 0 1 1.9 3.7Z" fill="#A4A4A4"/>
      <path opacity=".34" d="M121.63 138.54c-.68 1.3-.87 2.78.2 3.92 1.1 1.14 2.72 1.35 4.2 1.1 2.7-.43 5.41-1.98 7.26-3.97.82-.88 1.52-1.85 2.18-2.85a24.04 24.04 0 0 1-9.89-2.77 15.13 15.13 0 0 0-3.95 4.57ZM112.5 83.24a47.83 47.83 0 0 1-4 5.83c-6.85 8.59-15.74 15.2-23.48 22.9-4 3.98-7.78 9.74-5.69 15.6 1.77 4.97 6.93 7.78 11.79 8.94 5.62 1.33 11.3.63 16.82-.81 4.73-1.23 9.38-2.73 14.1-4.05-5.05-4.03-7.67-10.46-8.76-16.84-.87-5.12.3-18.48-.78-31.57Z" fill="#888"/>
    </g>
    <path d="M245.33 143.4c.36 0 .62-.35.52-.7-.23-.69-1.14-.88-1.85-.67-.7.2-1.28.67-1.99.88a2.32 2.32 0 0 0 1.6-2.33c-.11-1.18-1.18-2.13-2.34-2.37a5.8 5.8 0 0 0-3.48.52c-1.17.5-2.24 1.22-3.25 2-.58.47-1.24.99-1.34 1.77-.02.1-.02.24-.02.38.02.29.26.51.53.51h11.62Z" fill="#D8D8D8"/>
    <g opacity=".59">
      <path d="M240.53 45c.77-.77 1.2-1.8.77-2.84a3.14 3.14 0 0 0-1.2-1.38c-1.64-1.12-3.88-1.12-5.78-.52-1.9.6-3.53 1.81-5.16 3.02 1.72-1.47 3.44-3.1 4.3-5.17.86-2.07.7-4.82-1.12-6.2-1.63-1.2-3.87-1.03-5.85-.52a29.18 29.18 0 0 0-10.94 5.52c-2.07 1.72-6.12 4.99-6.55 7.92h31.53V45Z" fill="#F3F3F3"/>
      <path d="M216.67 42.16c3.79.26 8.61.26 11.62-2.41 1.81-1.55 3.28-4.3 2.16-6.63a7.89 7.89 0 0 0-1.47-1.98c-.86 0-1.63.17-2.5.43a29.18 29.18 0 0 0-10.93 5.5c-1.21.95-3.1 2.6-4.57 4.31 1.9.43 3.8.6 5.69.78Z" fill="#fff"/>
    </g>
    <g opacity=".59">
      <path d="M267.16 23.6c1.02-1.02 1.62-2.47 1.08-3.79-.3-.78-.9-1.32-1.62-1.8-2.23-1.45-5.18-1.45-7.7-.67-2.53.85-4.76 2.41-6.93 3.97 2.23-1.98 4.52-4.09 5.72-6.85 1.2-2.77.9-6.44-1.5-8.25-2.17-1.68-5.18-1.32-7.83-.66a36.94 36.94 0 0 0-14.5 7.4c-2.77 2.29-8.18 6.68-8.78 10.6h42.06v.05Z" fill="#F3F3F3"/>
      <path d="M235.32 19.81c5.06.36 11.44.36 15.47-3.19 2.4-2.1 4.33-5.71 2.89-8.9a7.29 7.29 0 0 0-1.93-2.59c-1.08.06-2.22.24-3.3.54a36.95 36.95 0 0 0-14.5 7.4 50.88 50.88 0 0 0-6.15 5.72c2.47.54 5.06.84 7.52 1.02Z" fill="#fff"/>
    </g>
    <path d="m31.73 118.31 3.95-6.5c.19-.31.06-.7-.2-.89L-9.22 83.8a.69.69 0 0 0-.9.19l-3.94 6.5c-.2.31-.06.7.19.89l44.72 27.13c.32.26.7.13.89-.19Z" fill="#D8BA7C"/>
    <path d="m6.83 98.31 2.15-3.54-1.2-.73-2.14 3.54 1.2.73ZM-1.97 92.92l2.15-3.54-1.2-.72-2.14 3.54 1.2.72Z" fill="#E8D4BA"/>
    <path d="m4.78 94.74 1.15 7.9.83 5.8.76 5.1 1.79 12.1c.25 1.84 1.46 3.63 2.73 3.95.83.25 1.4-.2 1.66-1.09.13-.44.2-1.02.06-1.65l-2.29-15.48-.57-3.76-1.72-11.66s-.77-1.78-1.34-1.9c-.13 0-.2.06-.25.25-.07.12-.07.38-.13.57 0 .26-.07.45-.13.57-.06.2-.19.2-.38-.12-.64-.96-.51-3.25-.9-2.62-.31.77-1.27 2.04-1.27 2.04Z" fill="#B5926E"/>
    <path d="m7.65 94.3-.13.57-.12.57s7.58 33.51 4.58 34.08c.83.26 1.4-.19 1.66-1.08.13-.45.19-1.02.06-1.66l-4.52-30.9c0 .01-.77-1.77-1.34-1.9-.06.06-.13.19-.19.32Z" fill="#A37D5A"/>
    <path d="m5.93 102.64.83 5.8.76 5.1s2.04-2.55 3.95-2.17l-.57-3.76-4.97-4.97Z" fill="#A37D5A"/>
    <path d="M4.46 79.65s1.21 4.07 4.08 7.64c2.87 3.57 2.1 9.87-1.6 9.68-3.69-.19-5.98-5.1-4.64-9.93 1.34-4.85 2.16-7.4 2.16-7.4Z" fill="#2B2B37"/>
    <path d="m3 136.34 7.07-2.87c.32-.13.51-.5.38-.83L-9.04 84.11c-.13-.32-.5-.51-.83-.39l-7.07 2.87c-.32.13-.5.5-.38.83l19.5 48.54c.12.31.5.5.82.38Z" fill="#D8BA7C"/>
    <path d="m-4 103.72 4.96-1.97L-4 93.21l-1.46-2.42.38 3.19v.06l1.08 9.68Z" fill="#E8D4BA"/>
    <path d="m-4 103.72 2.6 7.71 1.92 5.6 1.65 4.98 3.95 11.84c.58 1.79 2.23 2.8 3.57 2.3.9-.39 1.47-1.28 1.6-2.42a4.7 4.7 0 0 0-.2-1.85L6 116.78l-1.2-3.7-3.83-11.33s-1.14-1.34-1.78-1.08c-.13.06-.2.25-.25.44v1.47c-.07.25-.13.32-.45.19-.9-.58-1.08-3.19-1.4-2.17-.32 1.02-1.09 3.12-1.09 3.12Z" fill="#682B3C"/>
    <path d="M-1.01 101.11v1.47S12.8 133.34 9.75 136.2c.9-.38 1.47-1.27 1.6-2.42a4.7 4.7 0 0 0-.2-1.85l-10.12-30.2s-1.15-1.33-1.79-1.07c-.19 0-.25.19-.25.44Z" fill="#56172B"/>
    <path d="m-1.46 111.43 1.91 5.6 1.66 4.98s1.72-4.34 3.89-5.3l-1.21-3.68-6.25-1.6Z" fill="#56172B"/>
    <path d="m12.55 96.46 3.32-.63-1.28-9.5-.38-2.73-.38 3.12v.06l-1.28 9.68Z" fill="#D58500"/>
    <path d="M12.55 96.46v19.3l.07 12.42c0 1.92.76 3.32 1.65 3.13.58-.13 1.15-.9 1.4-1.91.13-.58.26-1.15.26-1.85l-.06-15.93v-3.88l-.07-11.98s-.44-1.59-.83-1.53c-.06 0-.19.2-.25.39s-.13.44-.13.63c-.06.26-.12.51-.12.7-.07.2-.13.26-.26.07-.38-.77 0-3.38-.45-2.42-.31 1.02-1.2 2.86-1.2 2.86Z" fill="#323147"/>
    <path d="M13.76 86.72c0 1.27.77-.39.77-.39l-.38-2.73-.39 3.12Z" fill="#2B2B37"/>
    <path d="m14.85 94.68-.13.64-.13.7s2.17 33.25-.19 35.22c.57-.12 1.15-.89 1.4-1.9.13-.58.26-1.16.26-1.86l-.07-31.72s-.44-1.59-.83-1.53a.74.74 0 0 0-.31.45Z" fill="#21212B"/>
    <path d="M12.55 104.55v11.21s1.92-3.69 3.32-4.07v-3.89l-3.32-3.25Z" fill="#21212B"/>
    <path d="M29.3 130.6C26 143.1 6.19 152.52-4 158.63c-2.5-9.36-2.3-19.36-1.73-29.1.51-7.33 5.86-13.32 12.23-16.57 3.19-2.23 15.29-5.16 15.74-4.78 2.93 3.7 8.15 15.93 7.07 22.42Z" fill="#2D8A8C"/>
    <path opacity=".65" d="M17.14 109.14c8.4-3 22.8 18.4 22.1 20.13-7.07 4.65-37 26.81-43.31 29.43-2.49-9.37-2.3-19.37-1.72-29.11-.07-6.95 6.88-14.2 12.23-16.57 0 0-9.94 9.75-2.1 10.07 6.94.06 12.8-13.95 12.8-13.95Z" fill="#366F72"/>
    <path d="M-50 173.28c1.47.96 3.06 1.66 4.78 1.85a9 9 0 0 0 5.92-1.34 41.94 41.94 0 0 0 5.22-3.7c.77-.63 1.4-1.27 1.98-1.78 2.48-2.41 3.63-4 6.05-4.45.06 0 .2-.07.26-.07 1.52-.19 3.95 1.21 6.81 2.87 1.53.9 3.25 1.91 4.97 2.74 3.82 1.85 7.96 3.06 11.85 1.4 9.04-3.7 12.74-22.49 16.3-31.15 2.23-5.48 3.83-10.51 5.42-14.78l9.43-4.52c2.86-7.7-3.63-8.6 3.25-10.06 5.54-1.15 7.07.63 7.07.63l.32-3.63s-8.48-2.87-16.63 5.6a51.46 51.46 0 0 0-3.38 3.77 39.32 39.32 0 0 0-5.98 9.42C7.27 140.73-.31 157.55-7.45 158.06c-3.63.25-7.07-.83-10.38-1.78-2.3-.7-4.46-1.34-6.63-1.47-3.3-.19-6.5.76-9.62 4.59-4.52 5.54-8.28 6.88-11.4 4.9l-4.52 8.98Z" fill="#75A152"/>
    <path d="M23.7 129.78c5.73-1.21 13.25-17.97 13.25-17.97l.32-3.88s-8.8-3.12-17.14 5.92c-1.08 1.21-2.29 2.49-3.5 4.02.2-.2-.06 13.44 7.07 11.9Z" fill="#75A152"/>
    <path opacity=".5" d="M-17.7 156.4s8.15 8.67 15.6 6c11.79-4.21 15.8-35.68 15.8-36.19C7.33 140.86-.25 157.68-7.4 158.19c-3.56.19-7-.83-10.31-1.79Z" fill="#AED888"/>
    <path d="m-45.03 141.24 2.1 4.4c6.25-4.9 12.93-1.78 18.73 2.17.2.12.57.5.96.7a12.9 12.9 0 0 0 7.26 1.65h.38c.38-.06.7-.06 1.08-.13h.07c3.18-.95 6.43-1.9 9.36-3.63 1.27-.76 2.3-1.65 3.44-2.55.13-.12.32-.25.38-.38.13-.12.13-.12.26-.19.06-.06.19-.19.25-.19l.13-.13c.9-.95 1.66-1.9 2.3-3.05.18-.39.37-.64.57-1.02a103.05 103.05 0 0 1 6.24-9.75 24.61 24.61 0 0 1 3.5-3.82c.13-.13.26-.2.32-.32.06-.13.25-.25.38-.32.13-.06.26-.19.38-.32.39-.31.83-.63 1.28-.95.13-.13.32-.2.44-.26.13-.06.26-.12.32-.19.13-.06.2-.13.32-.19.13-.06.2-.13.32-.19.13-.06.2-.13.32-.2.13-.05.38-.18.57-.25.2-.06.38-.06.57-.12.9-.2 1.79-.39 2.68-.45h.2c4.39-.2 9.93.51 14 1.15 2.55.38 4.85 1.08 6.63 1.59 1.72.5 1.46.5 2.8 1.02-.06-.45-.12-1.27-.19-1.66-.06-.38-.06-.44-.06-.63 0-.26-.07-.32.06-.45-1.78-1.08-.89-.96-3.31-2.23-5.03-2.67-12.04-5.29-18.35-5.92a13.2 13.2 0 0 0-4.14.12c-4.26.77-7.07 3.44-9.55 7.14-.38.5-1.02 1.46-1.34 1.9-6.5 8.99-13.95 18.48-25.03 21.03-1.09.25-1.09 0-1.91.06-.45 0-.45-.06-.9-.12-.44-.07-.82-.2-1.33-.39a9.03 9.03 0 0 1-1.53-.82c-.07-.07-.26-.2-.32-.26-6.69-4.4-13.38-5.67-20.64-1.85.06.07.06.07 0 0Z" fill="#75A152"/>
    <path d="M16 122.26c.89-1.15 2.35-.83 3.88-.9 4.33-.18 9.87.45 14.14 1.16 2.68.44 4.33.89 6.75 1.65.77-.25 1.66-.5 2.42-.76-.06-.38-.06-.7-.06-1.08-6.3-4.78-13.82-6.95-21.6-8.22-1.08-.2-2.8-.07-3.94.06 5.67.2-.26 6.75-1.6 8.1Z" fill="#568040"/>
    <path d="M7.78 129.78c2.48-3.06 5.16-6.12 8.79-7.77 7.96-1.66 16.62.19 24.2 2.16 1.34-.76 2.61-1.53 3.95-2.23-6.81-2.93-20.83-6.24-27.52-3.82-6.56 3-6.94 6.43-9.42 11.66Z" fill="#3E5C2E"/>
    <path opacity=".5" d="M-20.44 144.5c5.73.88 9.87 1.2 15.73-2.05 5.86-3.24 10.2-11.9 11.21-19.04-6.37 8.79-13.95 18.47-25.03 20.96-1.08.25-1.02-.32-1.91.12Z" fill="#AED888"/>
    <path d="M75.94 123.34s19.68 16.06 25.1 27.27c5.4 11.14-12.87 30.2-24.91 12.48-12.04-17.7-15.35-40.26-.2-39.75Z" fill="#575770"/>
    <path opacity=".25" d="M76.13 163.1c-.32-.52-.7-1.03-1.02-1.54-11.21-17.45-13.89-38.73.83-38.22 0 0 3.88 3.19 8.66 7.65 5.99 5.6 13.44 13.38 16.43 19.55 5.42 11.21-12.93 30.26-24.9 12.55Z" fill="#2B2B37"/>
    <path opacity=".25" d="m81.03 168.19-9.62-44.15c1.28-.5 2.8-.76 4.59-.7.51.26 11.21 9.81 14.2 13.13 0 .25.07 15.73 9.75 12.03 7.39 9.81-6.56 27.9-18.92 19.69Z" fill="#2B2B37"/>
    <path d="M32.18 119.4S7.02 122.25.08 137.41c-6.95 15.23 1.14 52.74 5.66 62.3 4.59 9.55 71.66 16.43 73.06-4.52 1.28-19.3 29.3-84.02-46.62-75.8Z" fill="#575770"/>
    <path opacity=".25" d="M78.8 195.2c-1.59 21.08-68.47 14.01-73.06 4.52-2.36-4.97-5.6-17.4-7.33-30.38 1.6 11.84 64.02-12.43 58.74-37.2-.64-3.13-1.21-12.68-1.21-12.68 41.97 5.6 26.62 52.04 22.86 75.74Z" fill="#2B2B37"/>
    <path opacity=".25" d="M78.8 195.2c-1.33 20.95-68.47 14.07-73.06 4.52-3.31-6.94-8.54-28.86-8.4-46.06 8.78 14.66 60.95 28.54 69.87-31.02 30.39 13.5 12.55 57.27 11.6 72.56Z" fill="#2B2B37"/>
    <path opacity=".25" d="M28.61 131.75s-2.87 26.95 13.76 36.57c4.14 2.42-17.14-4.27-19.5-2.55l-1.59-40.52 7.33 6.5Z" fill="#2B2B37"/>
    <path opacity=".25" d="M18.35 128.63s11.09 19.05 33.57 17.33c19.43-1.53 20.64-13.25 20.64-13.25l-54.2-4.08Z" fill="#2B2B37"/>
    <path opacity=".25" d="M76.32 129.78s-5.54 22.87-13.44 33.12l-5.67-.96 16.82-34.77 2.29 2.6Z" fill="#2B2B37"/>
    <path d="M79.82 111.62c-3.7 15.35-17 25.67-28.54 22.87-11.53-2.74-17.9-17.45-14.2-32.8 3.7-15.36 15.99-25.61 27.58-22.8 11.53 2.73 18.85 17.38 15.16 32.73Z" fill="#D58500"/>
    <path d="M71.92 103.28c0-.77 1.6-1.78 3.5-2.36 1.91-.57 3.44-.38 3.44.38 0 .77-1.59 1.79-3.5 2.36-1.97.51-3.5.38-3.44-.38ZM56.95 100.98c-2.48-1.08-4.33-2.67-4.14-3.56.26-.83 2.49-.64 4.97.5 2.48 1.09 4.33 2.68 4.14 3.57-.25.83-2.48.64-4.97-.5ZM58.74 96.27c-1.85-.25-3.32-1.27-3.13-2.3.13-1.01 1.79-1.58 3.64-1.33 1.84.25 3.3 1.27 3.12 2.3-.13.95-1.79 1.59-3.63 1.33Z" fill="#323147"/>
    <path opacity=".36" d="M65.8 92.58c-4.2 0-7.9-2.04-8.27-4.65-.32-2.23 7.51-8.16 14.65-.83 2.35 2.42-2.1 5.48-6.37 5.48ZM52.53 102.24c.3-.6-.3-1.5-1.33-2.03-1.04-.52-2.12-.46-2.42.14-.3.6.3 1.5 1.33 2.03 1.04.52 2.12.46 2.42-.14Z" fill="#E2A040"/>
    <path d="M72.88 96.46c.25-.83 1.65-1.08 3.12-.57 1.46.44 2.42 1.53 2.16 2.3-.25.82-1.65 1.08-3.12.57-1.46-.51-2.42-1.53-2.16-2.3Z" fill="#323147"/>
    <path d="M78.23 108.18s2.67-3.95 1.08-11.08h1.47s1.72 10.5-.7 13.25l-1.85-2.17ZM43.83 104.49s2.87-16.7 18.54-19.3l-1.09-2.68s-18.4 5.74-23.37 24.14l5.92-2.16Z" fill="#B45F00"/>
    <path d="M79.12 169.97s4.59-32.3-5.8-43.63c-10.38-11.4 4.59-2.93 4.59-2.93 11.15 2.67 10.7 27 1.21 46.56Z" fill="#2D8A8C"/>
    <path opacity=".65" d="M79.12 169.97s4.4-30.77-5.16-42.8l.76-5.55 3.12 1.79s5.48 29.1 7.52 28.15c-.95 5.23-3.57 11.02-6.24 18.41Z" fill="#366F72"/>
    <path d="M36.44 106.08c15.42-4.58 35.74-1.2 43.83 2.87.19.06-7.4 20.45-11.28 22.87-13.31 8.09-58.28-18.1-32.55-25.74Z" fill="#323147"/>
    <path d="m37.08 129.52 5.41 5.29c2.36 1.4 5.1 2.36 8.29 2.93.89.13 1.72.2 2.54.25 7.52.2 14.53-4.07 19.11-11.02L77.85 115s-13.25 16.5-9.62 7.58c3.95-9.62-7.14-12.61-12.55-7.77-3.57 3.18-10.45-10.45-10.45-10.45-1.53.26-9.17 1.08-11.72 1.98.07-.07 1.34 19.68 3.57 23.18Z" fill="#2B2B37"/>
    <path d="M50.84 137.68c.89.12 1.72.19 2.55.25 4.97-1.15 8.53-5.8 8.53-5.8-22.93-7.58-18.09-27.58-18.09-27.58-2.42.64-7 .2-9.74 1.21-2.3 14.72 4.45 29.94 16.75 31.92Z" fill="#21212B"/>
    <path d="M67.2 105.06c-15.15 14.72-17.95-.76-18.15-1.08 4.46-.38 13.32 0 18.16 1.08Z" fill="#464558"/>
    <path d="M72.56 124.94s-10.45 9.36-17.39 8.91v2.55l15.42-2.67 1.97-8.8Z" fill="#21212B"/>
    <path d="M70.71 130.35c.07.07.07.07 0 0 0 .07.07.07 0 0Z" fill="#464558"/>
    <path d="M80.84 111.75c-.45 1.4-3.31 9.05-5.6 11.91-4.2 5.29-4.53 6.5-4.53 6.75-.25-.25-1.2-1.33-1.2-1.33 18.27-22.36 8.15-38.1 5.34-40.26-17.51-13.5-47.84 12.61-24.59 42.42.77 1.02 3.32 3.5 4.65 3.63-2.42-.19-10-1.65-13.7-2.67-10.76-3-17.64-15.16-17.64-15.16-4.52-2.04-6.56-9.11-6.37-13.13.51-11.46 8.16-18.6 14.53-25.41 7-6.18 14.71-8.73 22.04-8.4 18.28.7 33.7 19.36 27.07 41.65Z" fill="#464558"/>
    <path opacity=".3" d="M70.71 130.35c.07.07.07.07 0 0 0 .07.07.07 0 0Z" fill="#323147"/>
    <path opacity=".3" d="M80.84 111.75c-.06.25-.25.77-.45 1.34-1.01 2.74-3.3 8.22-5.16 10.5-4.2 5.3-4.52 6.5-4.52 6.76-.25-.25-1.2-1.34-1.2-1.34 11.14-13.63 11.71-24.78 9.87-31.91-1.21-4.59-3.44-7.45-4.53-8.28-8.98-6.94-21.34-3.44-28.09 5.67a24.6 24.6 0 0 0-4.71 12.04c-.83 7.26 1.34 15.8 8.21 24.65.77 1.02 3.32 3.5 4.65 3.63a112.67 112.67 0 0 1-13.7-2.74c-10.76-3-17.64-15.16-17.64-15.16-4.52-2.04-6.56-9.1-6.37-13.12.07-1.47.26-2.8.51-4.14a28.53 28.53 0 0 1 4.08-9.56c.7-1.08 1.47-2.16 2.23-3.12 0 0 4.84 10.96 19.43-1.97 14.52-12.93 24.9-10.26 24.9-10.26 10.77 7.07 17.2 21.09 12.49 37.01Z" fill="#323147"/>
    <path opacity=".3" d="M80.4 107.16c-.52 1.53-.07 5.74-.07 6-1.02 2.73-3.31 8.2-5.16 10.5-4.2 5.29-4.52 6.5-4.52 6.75-.26-.25-1.21-1.33-1.21-1.33 11.15-13.64 11.72-24.78 9.87-31.92-1.2-4.58-3.44-7.45-4.52-8.28-8.98-6.94-21.34-3.44-28.1 5.67A24.6 24.6 0 0 0 42 106.6c-.83 7.26 1.33 15.8 8.21 24.65.77 1.02 3.31 3.5 4.65 3.63-.83-.06-2.16-.25-3.82-.57-.13-.26-.26-.57-.38-.9 0 0-10.64-6.49-10.26-14.39.38-7.9-2.61-19.75.7-21.85 3.31-2.1 11.85-13.25 17.26-14.78 5.48-1.52 15.74-1.2 18.54 4.65 2.8 5.86 2.1 9.18 3.31 10.52 1.21 1.27.7 8.02.2 9.61Z" fill="#323147"/>
    <path opacity=".3" d="M54.85 134.8c-2.42-.18-10-1.65-13.7-2.67-10.76-2.99-17.64-15.16-17.64-15.16-4.52-2.03-6.56-9.1-6.37-13.12.06-1.46.25-2.8.5-4.14a28.53 28.53 0 0 1 4.09-9.55s-3 16.88 13.44 15.03c2.48-.26 4.71.25 6.81 1.34-.83 7.26 1.34 15.8 8.22 24.65.83 1.02 3.31 3.5 4.65 3.63Z" fill="#323147"/>
    <path d="M54.85 134.8c-2.42-.18-10-1.65-13.7-2.67-10.76-2.99-17.64-15.16-17.64-15.16-4.52-2.03-6.56-9.1-6.37-13.12.06-1.46.25-2.8.5-4.14-.05.38-.56 8.16 4.72 9.68 5.42 1.53 9.3-1.59 13.63 6.44 4.34 8.02 5.04 11.53 14.21 15.35.83 1.02 3.31 3.5 4.65 3.63Z" fill="#323147"/>
    <path d="M111.92 227.5c-2.16 5.09-4.33 9.8-5.98 13.43-.26.58-.51 1.08-.7 1.6-.07.19-.2.38-.26.57 0 .06-.06.13-.06.19-.13.25-.2.45-.32.7-.13.32-.25.57-.38.83-.26.57-.45 1.08-.58 1.53-.06.19-.12.38-.19.5-.06.2-.12.33-.12.45 0 0-.07 0-.2-.06-.06 0-.12-.06-.12-.06-.45-.2-1.34-.51-2.49-1.02-.06-.07-.13-.07-.19-.13-.57-.26-1.14-.51-1.78-.83-.13-.06-.32-.13-.45-.2-2.8-1.46-5.92-3.37-6.94-5.4l-9.56-2.36-5.1-1.28s-.63-.12-.7-.19v-10.7c0-.76 0-1.53.07-2.3.06-1.9.13-3.88.26-5.92 0-.38.06-.76.06-1.2 0-.45.06-.77.13-1.22.06-.38.06-.76.12-1.14.13-.9.2-1.72.32-2.55.64-4.27 1.79-7.9 3.57-9.87a9.07 9.07 0 0 1 4.46-.64c4.71.32 10.38 2.93 13.31 4.4 1.15.57 1.91 1.01 1.98 1.01 10.44-9.17 16.24-12.1 18.98-11.08 5.29 2.04-1.02 18.73-7.14 32.93Z" fill="#464558"/>
    <path d="M95.1 201.18s-5.79 10-10 10.58c-5.98-5.86-17.38-4.65-25.92 6.94 0 0-7.51-5.73-11.78-6.5-31.66-5.73-23.57 26.89-41.15 9.88C4.4 220.29 3 218.7 3 218.7c-1.72 1.85.38 13.83.83 15.1-8.6-9.11-5.86-23.44-3.06-32.04.5-1.79 2.74-7.2 2.93-7.33 0 0 53.76-3.37 70.9-2.86 7.39-1.15 20.25 8.09 20.5 9.61Z" fill="#575770"/>
    <path opacity=".25" d="M89.89 196.79c-1.92 12.55-33.7 12.3-55.8 3.7-21.6-8.42-32.37-.7-32.81-.39.83-2.3 2.23-5.54 2.3-5.6 0 0 53.75-3.38 70.89-2.87 4.52-.76 10.9 2.3 15.42 5.16Z" fill="#2B2B37"/>
    <path opacity=".25" d="M95.1 201.18s-5.79 10-10 10.58c-5.98-5.86-17.38-4.65-25.92 6.94 0 0-7.51-5.73-11.78-6.5-7.46-1.33-12.68-.57-16.56 1.15C14.27 205.65 11.47 194 11.47 194c15.54-.9 50.07-2.8 63.13-2.42 7.39-1.15 20.25 8.09 20.5 9.61Z" fill="#2B2B37"/>
    <path d="M66 135.25s-19.88 40.33-37.08 56.44l10.39-.38s22.55-22.49 33.95-61.15l-7.26 5.1Z" fill="#2B2B37"/>
    <path opacity=".25" d="M62.56 146.08c-.51 2.04 2.67 1.79 3.18.96.51-.9 3.06-5.22 2.87-7.33-.13-2.03-5.22 3.19-6.05 6.37Z" fill="#464557"/>
    <path d="M59.37 148.95c-.38-.19-.82-.44-1.27-.7-3.95-2.36-8.54-6.88-11.79-10.32-2.48-2.61-4.14-4.65-4.14-4.65l-1.08.7-1.27.77c1.02 2.67 3.12 5.66 5.48 8.66 4.33 5.35 9.8 10.5 12.67 13.19l1.4-7.65Z" fill="#2B2B37"/>
    <path opacity=".25" d="M51.92 148.25c1.34.76 2.04-.57 1.53-1.02-.51-.44-3.19-3.06-4.78-3.12-1.6-.13 1.08 2.36 1.08 2.36s.83 1.08 2.17 1.78Z" fill="#464557"/>
    <path d="M37.9 139.4a42.21 42.21 0 0 0 15.87 3.18c9.8.45 21.47-5.73 22.3-16.3.44-.64.63-1.47.38-2.55-.9 1.02-1.72.95-2.74 1.84-11.98 12.68-28.48 10.07-41.15-.76a108.33 108.33 0 0 1-8.47-7.07c-1.21-.57-1.28-2.04-1.98-.96-4.27 7.77 2.3 16.18 15.8 22.62Z" fill="#75A152"/>
    <path d="M53.7 142.58c10.64.2 18.41-4.52 22.5-14.71 0 0 0-.51-.07-.96-.07-.25-.13-.5-.2-.64l-7.64 8.29c.13-.13 3.19-2.55 1.98-.07-1.21 2.55-2.04 1.53-6.63 5.03-3.05 2.3-7.13 3.32-12.93.32-4.52-2.3-5.48 1.98-9.87-.32-4.33-2.29-11.47-3.95-15.93-10.38-1.97-1.97-.44-4.08.58-1.6 2.74-.37-3.83-8.6-4.33-9.3-.07.14-.39 1.47-.58 2.17-1.78 6.82 11.28 21.79 33.13 22.17Z" fill="#568040"/>
    <path d="M24.09 123.4c.7 2.3 1.46 5.42 3.56 6 4.27 1.33 4.53 2.86 9.05 5.73 4.52 1.78 11.08 3.7 15.86 2.04 2.93.32 6.75.95 9.36-.77 1.02-.64 4.85-1.78 7.4-2.74 3.18-2.6 2.73-3.75 6.75-7.32.44-.58.63-1.6.38-2.55l-.7-.7c-.9 1.02-1.09 1.53-2.04 2.61-10.83 11.02-25.16 11.21-37.58 1.78-4.34-2.86-8.54-5.73-12.1-9.61-1.47-1.6-2.24-1.34-2.68.5-.07.07 1.65 2.43 2.74 5.04Z" fill="#568040"/>
    <path d="M61.92 136.4c1.79.77 2.87-1.02 5.1-1.34 2.3-.31 3.5-3.24 5.6-4.14 1.6-.7 3.32-2.93 3.57-4a3.94 3.94 0 0 0-.2-.65c.01 0-2.86 1.02-3.5 3.19-.63 2.16-4.2 4.78-5.22 4.65-1.02-.07-7.13 1.53-5.35 2.3Z" fill="#3E5C2E"/>
    <path d="M75.68 122.96c1.66.9.13 2.55-1.02 2.74-1.4.2-.7 1.08-3.18 3.25-3.25 2.87-6.88 4.46-8.6 4.2-1.72-.19-4.08 3.19-10.39 2.04-2.16-.38-12.04-3.06-14.14-4.9-2.67-1.98-11.97-7.71-9.8-2.04.57 1.46-4.08-3.89-4.6-4.9-1.08-2.62-2.8-4.97-2.73-5.1.44-1.91 1.4-2.17 2.23-1.34 15.03 14.33 34.4 24.72 50.13 8.66 1.08-.89 1.27-1.59 2.1-2.6Z" fill="#3E5C2E"/>
    <path d="M59.63 140.35c4.08-2.16 6.75-2.42 6.05-3.25-1.6-1.78-1.78.77-3.5 1.02-1.72.26-6.31.77-8.48.13-2.16-.64-5.03.9-2.29 1.08 2.87.2 4.4 3.06 8.22 1.02ZM42.62 138.82s.38-.7-1.34-.95c-1.72-.2-2.93-1.09-2.99-1.09-.06-.06-1.72-.19-.38.7 1.27.96 4.33 1.73 4.71 1.34Z" fill="#AED888"/>
    <path d="M42.37 136.85s.76 1.34 2.42 1.6c1.65.18 6.24-.9 7.39-.96 1.14-.07.63-.32-2.17-.9-2.87-.63-7.64.26-7.64.26Z" fill="#568040"/>
    <path d="M60.46 136.98c-1.47.5-3.44.95-5.48.38-3.95-1.02-4.71 1.2-8.15.38-1.34-.32-2.87-.64-4.4-.96l-.06-.06s-9.24-3.95-7.9-5.8c1.4-1.9 7.13 3.38 10 3.7 2.87.32 3.44-.26 6.18.7 2.74.96 5.8 1.85 7.13.5 1.34-1.26 3.57.4 2.68 1.16Z" fill="#75A152"/>
    <path d="M50.78 137.49s5.35.7 5.35.25c0-.45-3.32-1.66-5.35-.25Z" fill="#568040"/>
    <path d="M108.49 159.46a205.53 205.53 0 0 0-11.15 3.89c-6.11 2.42-9.62 4.52-13.44 7.9-1.4 1.2-1.4 3.05-.06 3.88 2.6 1.6 7 4.01 11.53 5.22 3.95 1.02 8.02 1.15 11.2-1.08 8.8-6.18 10.7-10.13 10.7-10.13-4.45.13-8.78-9.68-8.78-9.68Z" fill="#575770"/>
    <path opacity=".3" d="M108.49 159.46c-.57.2-1.15.38-1.66.57a232.82 232.82 0 0 0-9.49 3.38c10.51-.32-.83 15.41-1.97 17 2.8.7 5.6.96 8.15.33 1.08-.26 2.1-.7 3-1.4 8.79-6.18 10.7-10.13 10.7-10.13-4.4.06-8.73-9.75-8.73-9.75Z" fill="#2B2B37"/>
    <path opacity=".3" d="M108.49 159.46c-.58.2-1.15.38-1.66.57 9.94 8.86-3 20.45-3.31 20.64a7.6 7.6 0 0 0 3-1.4c8.78-6.18 10.7-10.13 10.7-10.13-4.4.13-8.73-9.68-8.73-9.68Z" fill="#2B2B37"/>
    <path d="M1.28 186.72c-.64 1.4 1.85 7.59 1.85 7.59s55.99-1.6 74.4 2.48c0 0 4.01-4.08 1.65-5.67-2.35-1.6-28.6-4.4-38.66-4.46-10.13-.06-39.24.06-39.24.06Z" fill="#2B2B37"/>
    <path d="m118.61 149.01-2.54-.89-22.04 5.54-37.27-4.4-19.1 45.68 1.33 1.28 66.38-31.15L118.6 149Z" fill="#E8D4BA"/>
    <path d="m119.12 148.89-18.53 39.3-23.76 12.04 18.85-44.9 23.44-6.44Z" fill="#5077BC"/>
    <path d="M73.7 200.23 39 196.22l18.66-45.04 35.36 4.08-19.3 44.97Z" fill="#708AD1"/>
    <path d="m95.68 155.32-2.67-.06-19.3 44.97h3.12l18.85-44.9Z" fill="#6181C9"/>
    <path d="M35.8 168.5c-4.58 4.08-23.5 12.62-23.5 12.62s-3.7-.77-8.15-2.61c-7.2-3-16.5-8.86-15.55-18.99 1.4-14.84 11.15-27.45 18.92-32.87.83-.57 1.6-1.01 2.36-1.46 5.16-2.74 8.53 10.32 10.38 20.2 1.02 5.6 1.53 10.19 1.53 10.19s1.72 1.33 4.01 3.05c3.7 2.8 8.92 6.75 10.77 8.1.44.38.13 1.01-.77 1.78Z" fill="#575770"/>
    <path opacity=".25" d="M14.21 180.23c-.06 0-.13.06-.2.06.14 0 .14 0 .2-.06-37-16.05-4.78-54.53-4.4-55.04 8.03-4.33 11.92 30.38 11.92 30.38s1.72 1.34 4.01 3.06c3.7 2.8 8.92 6.75 10.76 8.1 2.55 1.78-16.05 10.63-22.29 13.5Z" fill="#2B2B37"/>
    <path opacity=".25" d="M12.24 181.18s-3.7-.76-8.16-2.6c7.07-15.62 21.21-19.76 21.66-19.88 3.7 2.8 8.92 6.75 10.76 8.09 3 2.1-24.26 14.4-24.26 14.4Z" fill="#2B2B37"/>
    <path opacity=".25" d="M35.8 168.5c-2.99-3.18-11.2-11.01-17.9-9.49-8.34 1.92-5.92-3.88-2.8-7.32 3.06-3.44-5.22-26.5-5.22-26.5 5.16-2.74 8.54 10.32 10.38 20.2 1.02 5.6 1.53 10.19 1.53 10.19s1.72 1.33 4.01 3.05c3.7 2.8 8.92 6.75 10.77 8.1.45.38.13 1.01-.76 1.78Z" fill="#2B2B37"/>
    <path d="M24.4 161.18c-2.8 5.1-5.1.13-5.1.13s5.23-13.89-7.9-36.5c-.25.06-1.27.25-2.16.76 0 0 2.23-4.84 6.88-5.6h.19c.13 0 .2 0 .32-.07.13 0 .2 0 .26-.06h.19c6.37-.38 9.04 15.29 9.3 15.67 1.34 5.03.76 19.68-1.98 25.67Z" fill="#2D8A8C"/>
    <path opacity=".65" d="M24.4 161.18c-2.8 5.1-5.1.13-5.1.13s1.28-3.44.96-9.68c6.7-6.82 3.44-21.79 1.79-25.61-1.66-3.82-4.08-5.42-6.76-4.01-2.74 1.4-2.29 5.86-2.29 5.86-.5-.96-1.08-1.98-1.66-3-.25.07-1.27.26-2.16.77 0 0 2.23-4.84 6.88-5.6h.19c.13 0 .19 0 .32-.07.13 0 .19 0 .25-.07h.19c6.37-.38 9.05 15.3 9.3 15.67 1.4 4.97.83 19.62-1.9 25.61Z" fill="#366F72"/>
    <path d="M16.82 119.9c-.06 0-.19 0-.25.07-.13 0-.2 0-.32.06h-.13c.13 0 .26-.06.45-.06l.25-.07Z" fill="#2D8A8C"/>
    <path d="M36.31 172.58c-1.52 4.78-2.93 9.24-1.78 9.62 1.15.38 4.46-3.5 5.99-8.28 1.53-4.78 1.85-8.98.7-9.3-1.21-.45-3.38 3.12-4.9 7.96Z" fill="#21212B"/>
    <path d="M58.36 182.2a10.78 10.78 0 0 1-8.48 4.08c-4.46.06-10.57-4.53-10.57-4.53s-10.51-.31-15.93-3.82c-.19-.12-.38-.25-.5-.38-3.83-3.88 9.87-14.33 9.87-14.33l6.62 3.76s.51-.38 1.4-.9c2.1-1.2 6.5-3.12 11.53-1.9 3.76.89 6.06 3.3 7.4 5.8a12.6 12.6 0 0 1 1.59 5.66c.06 1.27-.9 4.14-2.93 6.56Z" fill="#D58500"/>
    <path opacity=".56" d="M58.36 182.2a10.78 10.78 0 0 1-8.48 4.08c-4.46.06-10.57-4.53-10.57-4.53s-10.51-.31-15.93-3.82c-.12-.06-.19-.12-.25-.19l-.2-.19h-.05c-3.83-3.88 9.87-14.33 9.87-14.33l6.62 3.76s-2.48 6.37-1.4 11.59c.45.25 21.02 10.9 21.72-8.66a12.6 12.6 0 0 1 1.6 5.67c.06 1.33-.9 4.2-2.93 6.62Z" fill="#B45F00"/>
    <path d="M35.04 182.14c-5.67.57-10.13.89-13.88.95-7.78.2-12.43-.7-17.9-3a3.4 3.4 0 0 1-1.53-5.02c2.3-3.57 6.3-9.11 10.95-13.13 4.08-3.5 8.6-5.86 12.87-4.7 12.1 3.24 15.74 7.38 15.74 7.38-5.04 2.36-6.25 17.52-6.25 17.52Z" fill="#575770"/>
    <path opacity=".3" d="m35.04 182.14-2.1.19c-4.71.44-8.54.7-11.85.76 11.85-5.28-6.56-19.68-8.47-21.15 2.87-2.48 5.92-4.33 8.98-4.84a8.9 8.9 0 0 1 3.89.2c12.1 3.24 15.73 7.38 15.73 7.38-4.97 2.3-6.18 17.46-6.18 17.46Z" fill="#2B2B37"/>
    <path opacity=".3" d="m35.04 182.14-2.1.19c7.84-17-10.9-25.1-11.34-25.23a8.9 8.9 0 0 1 3.89.2c12.1 3.24 15.73 7.38 15.73 7.38-4.97 2.3-6.18 17.46-6.18 17.46Z" fill="#2B2B37"/>
    <path d="M33.2 177.3c.19.06.31-.07.38-.2.06-.19 0-.38-.2-.5-.12-.07-13.37-6.56-13.24-15.61 0-.2-.13-.38-.39-.38-.19 0-.38.19-.38.38-.06 3.95 2.3 8.03 6.82 11.78 3.37 2.8 6.81 4.46 6.88 4.53h.13Z" fill="#2B2B37"/>
    <path d="M13.38 177.3c3.5.5 8.29-1.34 14.27-5.42 4.4-3 7.84-6.18 7.9-6.24.13-.13.2-.38 0-.51a.39.39 0 0 0-.5 0c-.14.13-13.64 12.55-21.54 11.4-.19-.06-.38.13-.44.32 0 .26.12.45.31.45Z" fill="#2B2B37"/>
    <path opacity=".3" d="M79.31 97.1c-1.2-4.59-3.44-7.45-4.52-8.28-8.98-6.94-21.34-3.44-28.1 5.67 7.33-12.1 18.42-12.74 25.17-9.75 7.58 3.25 7.45 11.91 7.45 12.36Z" fill="#323147"/>
    <path d="M53.7 70.03c-.25.38-2.93 4.77-11.59 8.02-9.04 3.44-10.45.39-10.45.39 7.01-6.25 14.72-8.73 22.04-8.41Z" fill="#575770"/>
    <path d="M118.62 161.75c.95 8.92-4.72 11.66-10.52 11.6-4.96-.07-4.7-7.14-1.65-10.07 4.14-4.01 7.26-3.18 7.26-3.18l1.91-3.89c0 .07 2.68 2.36 3 5.54Z" fill="#D58500"/>
    <path opacity=".56" d="M114.67 158.12s1.14 4.02 0 3.57c-1.15-.44-2.49-1.6-2.49-1.6.9-.18 1.47 0 1.47 0l1.02-1.97ZM118.68 164.88c-.57 6.5-5.48 8.6-10.51 8.53a3.5 3.5 0 0 1-3.57-2.67c-.06-.07 12.04 4.07 14.08-5.86Z" fill="#B45F00"/>
  </g>
  <defs>
    <clipPath id="a">
      <path fill="#fff" d="M0 0h320v194H0z"/>
    </clipPath>
  </defs>
</svg>
