<svg xmlns="http://www.w3.org/2000/svg" width="24" height="24" fill="none">
    <path fill="#74A352" fill-rule="evenodd" d="M22 22V2H2v20h20ZM17.57 9.489a.75.75 0 1 0-1.14-.978l-5.475 6.38-3.42-3.487a.75.75 0 0 0-1.07 1.05l4.563 4.655 6.541-7.62Z" clip-rule="evenodd"/>
    <mask id="a" width="20" height="20" x="2" y="2" maskUnits="userSpaceOnUse" style="mask-type:luminance">
        <path fill="#fff" fill-rule="evenodd" d="M22 4a2 2 0 0 0-2-2H4a2 2 0 0 0-2 2v16a2 2 0 0 0 2 2h16a2 2 0 0 0 2-2V4Zm-4.43 5.489a.75.75 0 1 0-1.14-.978l-5.475 6.38-3.42-3.487a.75.75 0 0 0-1.07 1.05l4.563 4.655 6.541-7.62Z" clip-rule="evenodd"/>
    </mask>
</svg>
