<svg width="320" height="600" viewBox="0 0 320 600" fill="none" xmlns="http://www.w3.org/2000/svg">
<rect width="320" height="600" fill="url(#paint0_linear_1517_35305)"/>
<path d="M231.962 189.698C230.219 189.698 228.974 188.037 229.472 186.377C230.551 183.056 234.949 182.142 238.352 183.139C241.671 184.135 244.493 186.377 247.895 187.373C243.248 185.962 239.845 181.063 240.26 176.164C240.758 170.518 245.903 165.951 251.463 164.789C257.023 163.543 262.832 165.038 268.143 167.28C273.786 169.688 278.931 173.175 283.744 176.911C286.566 179.153 289.719 181.644 290.217 185.38C290.3 185.879 290.3 186.543 290.3 187.207C290.217 188.619 289.056 189.698 287.728 189.698H231.962V189.698Z" fill="white"/>
<path d="M40.7404 169.383C37.6054 169.383 35.3661 166.396 36.2618 163.408C38.2026 157.434 46.1147 155.791 52.2354 157.583C58.2068 159.376 63.2826 163.408 69.4033 165.201C61.0433 162.662 54.9226 153.849 55.669 145.036C56.5648 134.879 65.8205 126.664 75.8227 124.573C85.8248 122.332 96.2748 125.021 105.829 129.054C115.981 133.386 125.236 139.659 133.895 146.381C138.971 150.413 144.644 154.895 145.539 161.616C145.689 162.512 145.688 163.707 145.688 164.902C145.539 167.441 143.449 169.383 141.061 169.383H40.7404V169.383Z" fill="white"/>
<defs>
<linearGradient id="paint0_linear_1517_35305" x1="160" y1="-26" x2="160" y2="629" gradientUnits="userSpaceOnUse">
<stop stop-color="#E3F5FF"/>
<stop offset="1" stop-color="white"/>
</linearGradient>
</defs>
</svg>
