<svg fill="none" height="175" width="257" xmlns="http://www.w3.org/2000/svg"><path d="M100.12 63.93c-.06-.5-.15-1.02-.48-1.39-.5-.58-1.34-.6-2.1-.56-7.84.5-16.67.26-23.88 23.08-1.3 4.1-2.56 8.21-3.84 12.33-2.53 8.22-5.02 16.45-7.49 24.68l-1.6 5.26a7.34 7.34 0 0 1-.85 2.04 5.91 5.91 0 0 1-1.99 1.67 25.14 25.14 0 0 1-10.15 3.35c-.57.07-1.17.11-1.6.5-.57.5-2.84-7.01-2.89-6.23-1.58 28.45 17 50.09 29.24 42.94 1.5-.87 2.75-2.14 3.9-3.49 8.42-9.79 12.34-22.9 16.02-35.58 7.17-24.6 9.08-58.77 7.71-68.6z" fill="#464558"/><path d="M58.89 169.8c4.57 3.34 9.44 4.23 13.6 1.8 1.5-.87 2.75-2.14 3.9-3.49 6.58-7.66 10.43-17.36 13.55-27.28-6.82 13.81-19.03 32.16-31.05 28.97z" fill="#2b2b37" opacity=".29"/><path d="M100.12 63.93c-.06-.5-.15-1.02-.48-1.39-.5-.58-1.34-.6-2.1-.56-7.84.5-16.67.26-23.88 23.08-1.3 4.1-2.56 8.21-3.84 12.33-2.53 8.22-5.02 16.45-7.49 24.68l-1.6 5.26c-.22.72-.43 1.43-.85 2.04a5.91 5.91 0 0 1-1.99 1.67 25.14 25.14 0 0 1-10.15 3.35c-.57.07-1.17.11-1.6.5-.57.5-2.84-7.01-2.89-6.23-.2 3.6-.08 7.08.3 10.43 1.76.4 3.47.98 5.16 1.63 2.3.9 4.53 1.95 6.63 3.25 3.96 2.42 7.49 5.7 9.63 9.85a21.78 21.78 0 0 1 2.21 6.86 19.9 19.9 0 0 1-.47 8 30.43 30.43 0 0 1-1.41 4.09c2.49.48 4.91.13 7.14-1.17 1.5-.87 2.75-2.14 3.9-3.49 8.43-9.79 12.35-22.9 16.03-35.58 7.21-24.6 9.11-58.77 7.75-68.6z" fill="#2b2b37" opacity=".29"/><path d="M97.76 98.42c-2.56 4.31-5.2 8.75-8.86 12.2-3.79 3.57-8.77 5.97-14.03 6.17a26.2 26.2 0 0 1-10.37-1.86l-.72 2.4c.07-.2 5.07 1.97 5.57 2.14 1.95.74 3.57 1.22 4.83 3.06 1.1 1.62 1.6 3.6 2.01 5.5.1.54.24 1.08.58 1.51s.87.68 1.33.98c2.1 1.4 2.72 4.18 3.07 6.69.67 5.02 1.73 10 1.86 15.07.05 2.04.03 4.1-.1 6.13 4.26-7.99 6.95-17.06 9.52-25.92 3.27-11.24 5.44-24.47 6.72-36.45-.5.83-.96 1.6-1.41 2.38z" fill="#2b2b37" opacity=".29"/><path d="M83.2 124.45c.42-.71.48-1.68-.25-2.23-.57-.4-1.17-.32-1.78-.58-.65-.26-1.21-.65-1.84-.93a6.75 6.75 0 0 0-4.42-.46 7.14 7.14 0 0 0-2.66 1.54c1.77-.06 3.55.3 5.24.95a25.9 25.9 0 0 1 3.66 1.78c.7.43 1.52.9 2.06-.06z" fill="#2b2b37" opacity=".29"/><path d="M77.42 126.08c.59.45 1.2.82 1.65 1.4.37.44.67.92.95 1.41.52.91 1.28 2.62 2.54 2.65 1.21.02 1.84-2.06 1.34-3-.45-.82-1.43-1.18-2.2-1.6-.88-.45-1.83-.95-2.11-1.97-.2-.67-.24-1.34-.76-1.86a5.67 5.67 0 0 0-1.56-1.1c-1.43-.65-2.99-.76-4.52-.98.71.48 1.3 1.04 1.86 1.74.87 1.12 1.67 2.4 2.81 3.31z" fill="#2b2b37" opacity=".29"/><path d="M73.16 121.36c-.76-.72-1.45-.8-2.36-1.28-1.04-.56-2.19-.93-3.3-1.36-1.23-.5-2.46-1-3.74-1.37l.71-2.4c1.67.63 3.38 1.12 5.14 1.45-.5-.46-1-.89-1.52-1.32-.89-.74-2.19-1.45-3.12-.76-.43.33-.63.87-.8 1.39-.65 2.1-1.21 4.22-1.84 6.32l-1.6 5.26c-.22.72-.44 1.43-.85 2.04a5.9 5.9 0 0 1-1.99 1.66 25.14 25.14 0 0 1-10.16 3.36c-.56.07-1.17.11-1.6.5-.56.5-2.84-7.02-2.88-6.24-.2 3.25-.1 6.4.2 9.42 1.19.11 2.4.11 3.6.05 2.46-.11 4.84-.55 7.27-.85 2.25-.28 3.83-.97 5.89-1.93a13.71 13.71 0 0 1 7.77-1.17c2.21.33 3.45-.34 4.75-2.31.84-1.3 1.38-2.77 1.9-4.23.4-1.1.82-1.47.76-2.62a9.17 9.17 0 0 0-2.23-3.61zM99.17 79.8c-.67.59-1.37 1.13-2.06 1.65-.43.32-.93.62-1.39 1-.15.64-.34 1.27-.56 1.9l-.26.65c.22.32.46.63.7.93.08.1-.07.26-.16.15l-.65-.84a18.78 18.78 0 0 1-1.75 3.07c-1.7 2.43-3.75 4.6-5.18 7.2a10.79 10.79 0 0 0-1.43 3.85c-.21 1.56.2 3.12.74 4.57.52 1.42 1.15 2.81 1.5 4.28.34 1.45.58 2.95.69 4.44.1 1.48.13 3-.24 4.42-.4 1.47-1.04 2.88-1.32 4.38-.63 3.33.56 6.75.82 10.06.26 3.43-.24 6.9-.74 10.27-.45 3.16-.8 6.32-1.62 9.42l-.06.24c2.49-6.09 4.4-12.54 6.23-18.89 4.98-17.13 7.43-38.91 7.97-53.88-.41.42-.84.78-1.23 1.13z" fill="#2b2b37" opacity=".29"/><path d="M100.12 63.93c-.07-.5-.15-1.02-.48-1.39-.5-.58-1.34-.6-2.1-.56-.9.06-1.86.13-2.83.24.45 1.36.43 2.92.4 4.3-.01.98-.04 1.98-.2 2.93-.23 1.12-.62 2.2-.94 3.31a7.93 7.93 0 0 0-.26 3.84c.22 1.01.32 2.03.28 3.1-.04 1.12-.28 2.29.02 3.4.15.6.44 1.14.76 1.66a13.2 13.2 0 0 0 .65-2.04c-.24.24-.41.52-.52.85-.04.13-.26.09-.22-.07.16-.47.46-.84.83-1.14.26-1.02.47-2.06.73-3.08.05-.13.24-.09.22.07-.24.93-.43 1.86-.65 2.79.22-.17.46-.33.67-.48a48.9 48.9 0 0 0 2.1-1.6c.65-.54 1.3-1.1 1.87-1.75.19-6.37.08-11.46-.33-14.38z" fill="#2b2b37" opacity=".29"/><path d="M71.32 99.4c2.51-.43 4.94-1.5 6.4-3.68 1.61-2.38 1.91-5.42 1.8-8.21a37.34 37.34 0 0 0-.43-4.11 17.07 17.07 0 0 0-1.15-3.7c-.3-.79-.67-1.59-1.01-2.41a43.9 43.9 0 0 0-3.23 7.8c-1.3 4.09-2.56 8.2-3.83 12.32l-.7 2.25c.72-.07 1.43-.15 2.15-.26zM89.5 63.1c-2.78.9-5.6 2.62-8.3 6.11 3.3 1.93 8.18.24 10.76-2.2a8.36 8.36 0 0 0 2.42-4.75c-1.6.17-3.27.43-4.87.84z" fill="#464558"/><path d="M51.22 83.18c-.3.17-.43.52-.58.82-.05.41-.03.82-.13 1.2-.22.82-.5 1.62-.91 2.35a16.81 16.81 0 0 1-3.51 4.23 23.2 23.2 0 0 1-4.61 3.29 5.9 5.9 0 0 1-2.24.73c-.52.05-1.01-.23-1.53-.28a315.9 315.9 0 0 0 4.65 40.35c11.74 4.85 30.23-12.04 30.82-15.64.56-3.29-16.65-31.77-21.96-37.05z" fill="#575771"/><path d="M51.22 83.18c-.3.17-.43.52-.58.82-.05.41-.03.82-.13 1.2-.22.82-.5 1.62-.91 2.35a16.81 16.81 0 0 1-3.51 4.23 23.2 23.2 0 0 1-4.61 3.29 5.9 5.9 0 0 1-2.24.73c-.52.05-1.01-.23-1.53-.28.04.91.1 1.82.17 2.73 3.36.11 6.65 1.5 8.6 4.38 2.53 3.74 2.1 8.62.28 12.58-1.6 3.44-3.96 6.4-6.2 9.44.5 3.49 1.11 7.21 1.82 11.22 11.74 4.85 30.24-12.04 30.82-15.64.54-3.29-16.67-31.77-21.98-37.05z" fill="#2b2b37" opacity=".25"/><path d="M40.93 95.76c2.36.52 4.75 1.4 6.76 2.75 1.5.98 2.73 2.3 4.14 3.4 1.32 1.04 3.31 2.62 5.13 2.15 1.02-.26 1.67-1.13 2.1-2.04.58-1.23.82-2.6.82-3.96 0-1.13-.1-2.23-.3-3.34-3.4-5.26-6.58-9.74-8.38-11.54-.3.17-.43.52-.59.82-.04.41-.02.82-.13 1.2-.21.82-.5 1.62-.9 2.35a16.8 16.8 0 0 1-3.51 4.23 23.2 23.2 0 0 1-4.62 3.29c-.4.21-.84.4-1.3.56.29.02.55.09.78.13z" fill="#2b2b37" opacity=".25"/><path d="M50.25 83.37s.75-.5 1.04-.1c.08.1.02 1 .02 1L38.2 96.14s-.61-.26-.5-.9c.2-1.13 12.54-11.88 12.54-11.88zM69.37 114.8c-14.45-1.6-27.25-11.07-29-12.13-.22-.13-.52-.07-.6.17-.22.52 1.66 1.67 2.31 2.1 1.2.83 5.68 3.23 8.14 4.55 4.36 2.3 11.18 5.22 19.08 6.1.13.03.26-.04.35-.12.04-.07.09-.13.1-.22-.01-.24-.17-.43-.38-.45z" fill="#2b2b37"/><path d="M47.32 127.53c-.1.13-.3.17-.47.09a.43.43 0 0 1-.2-.55c.09-.17 8.88-21.02 9.57-32.15a.4.4 0 0 1 .44-.37.4.4 0 0 1 .36.43c-.71 11.28-9.57 32.29-9.65 32.46 0 .03-.03.05-.05.09z" fill="#2b2b37"/><path d="M51.3 84.26c-1.14-1.82-2.96-7.27-5.04-10.96-2.14-3.8-6.47-5.56-10.57-6.4-1-.2-2.01-.37-2.92-.87-.95-.5-1.71-1.32-2.64-1.89-.2-.1-.44-.21-.63-.13-.2.09-.3.3-.37.52-.58 1.74.22 3.75 1.52 4.98 1.45 1.37 3.4 1.95 5.24 2.47.39.11.73.4.9.8.35.78-.3 1.22-.66 1.6a6.46 6.46 0 0 1-3.3 1.87c-9.57 2.16-13.42.1-16.09-.74-1.8-.56-3.61-1-5.43-1.4-1.24-.29-2.54-.55-3.77-.22-1.23.32-2.38 1.4-2.43 2.75 0 .2.03.43.18.56.13.11.3.11.45.11 2.77.09 4.18 1 6.82 1.93-.54-.13-6.84-1.37-8.79-.74-1.34.43-2.55 1.69-2.51 3.18 0 .22.04.48.22.61.15.1.32.1.5.1 2.42-.03 4.76.79 7.1 1.57l-1.8-.33c-1.39-.23-2.84-.43-4.18 0s-2.55 1.7-2.53 3.2c0 .25.04.49.21.62.16.1.33.1.5.1 3.3-.06 6.41 1.48 9.6 2.3.69.2 1.4.32 2.12.48-1.1-.11-2.19-.18-3.3-.24-1.27-.07-2.6-.11-3.76.4-1.17.53-2.15 1.78-2 3.13.03.2.1.43.27.52.13.08.3.06.45.04 2.95-.39 5.9.67 8.84 1.13 4.83.71 15.65 1.62 23.75-.09.74-.15.87.67.96.95.04.24 13.81-.95 13.1-11.9z" fill="#d58500"/><path d="M51.29 84.26c-1.15-1.82-2.97-7.27-5.05-10.96a10.98 10.98 0 0 0-3.94-3.96 10.9 10.9 0 0 1-7.1 1.54 11.48 11.48 0 0 1-5.42-2.32c.24.35.52.7.8.98 1.45 1.36 3.4 1.94 5.24 2.46.4.11.74.4.91.8.35.79-.3 1.22-.67 1.6a6.46 6.46 0 0 1-3.29 1.87c-4.03.91-7.04 1.08-9.38.89a4.1 4.1 0 0 1-3.29.78c-.76-.2-3.3-1.02-2.68-2.17l-.74-.24-.28-.08a12.95 12.95 0 0 1-5.03 1.7 14.9 14.9 0 0 1-6.32-.49v.02c0 .2.02.44.17.57.13.1.3.1.46.1 2.77.09 4.18 1 6.82 1.93a17.7 17.7 0 0 0-1.62-.3c0 .67-1.17 1.15-1.65 1.38-.89.44-1.8.83-2.77 1.02-1.67.33-3.53.4-5.26.02 0 .11-.03.2-.03.3 0 .22.05.48.22.61.15.11.32.11.5.11 2.42-.04 4.76.78 7.1 1.56a6.8 6.8 0 0 0-.65-.1c.54.8-2.3 1.68-2.7 1.81-.96.33-1.91.63-2.86.91-.72.2-1.48.43-2.26.56.05.11.1.22.18.3.15.12.32.12.5.12 3.29-.07 6.4 1.47 9.59 2.3.7.19 1.4.32 2.12.47l-2.08-.18c.18.42-.3 1.02-.56 1.28-.6.6-1.4 1-2.21 1.28-1.1.41-2.27.74-3.42.97l-.72.13c.05.13.11.26.22.33.13.09.3.06.46.04 2.94-.39 5.89.67 8.83 1.13 4.83.71 15.66 1.62 23.76-.09.73-.15.89.67.97.95.09.22 13.84-.97 13.13-11.93zM17.52 81.6c-.5 0-1.01-.09-1.4-.4-.18-.12-.33-.27-.48-.43-.13-.15-.24-.47-.43-.56-.13-.06-.03-.24.1-.2 0 0 .03 0 .03.03a4.96 4.96 0 0 1 2.03.02c.52.09 1.21.1 1.65.46.02 0 .02.02.02.02l.02.02c.5.63-1.19 1.04-1.54 1.04z" fill="#b45f00" opacity=".13"/><path d="M7.82 75.47a3.73 3.73 0 0 0 1.95-1.62c-.76-.11-1.51-.11-2.27.08-.85.22-1.65.8-2.08 1.56.82.15 1.73.15 2.4-.02zM3.69 79.78c.32-.22 1.25-.87 1.27-1.4-.47.01-.88.06-1.19.16-.86.29-1.69.91-2.14 1.74.71 0 1.43-.11 2.06-.5zM.68 85.95c.58-.09 1.14-.3 1.62-.54.76-.39 1.62-1.06 1.67-1.97-.3.04-.59.1-.9.2a3.67 3.67 0 0 0-2.4 2.31zM30.52 64.42l-.41-.26c-.2-.1-.44-.21-.63-.13-.2.1-.3.3-.37.52-.07.2-.1.4-.15.61a2.62 2.62 0 0 0 1.56-.74z" fill="#e2a040" opacity=".5"/><path d="M33.55 85.02c-.5.58-1.65 2.34-.04 2.17A4.4 4.4 0 0 0 36 85.95c.45-.41 1-.93 1.14-1.54.3-1.25-1.53-1.7-3.6.61zM27.33 78.98c.05.37.46.26.63.06.15-.17.28-.39.33-.6.2-.96-1.13-1.24-.96.54zM27.44 82.3c.02.1.07.25.15.34.09.08.16-.05.2-.11.21-.35.3-.72.06-1.06-.47-.7-.62 0-.4.82zM37.86 78.5c.09.41.37 1.32.9 1.34.31.03.53-.28.66-.54.24-.45.39-.93.28-1.45-.52-2.3-2.19-.95-1.84.65z" fill="#e2a040" opacity=".4"/><path d="M5.94 90.48c-.72.32-1.34.9-1.71 1.62 1.34-.17 2.77-.74 3.05-2-.45.07-.9.18-1.34.38z" fill="#e2a040" opacity=".5"/><g fill="#b45f00" opacity=".36"><path d="M11.5 84.2c-.8.02-1.6-.07-2.38-.22 0 .02 0 .04-.02.04.45.11.93.2 1.4.3.33-.06.68-.1 1-.12zM26.84 83.74c-.29-.43-.85-.5-1.32-.47-1.24.06-2.28.82-3.47 1.06-1.5.28-2.86-.13-4.3-.41-.92-.18-1.85-.3-2.76-.26-.87.04-1.69.3-2.53.45l-.72.09h.2c.78-.02 1.56-.05 2.34.04.93.1 1.8.48 2.6.95 1.62.13-.03-.5 3.78-.39 1.22.05 2.36.13 3.47.5 2.08-.2 3.27-.7 2.7-1.56zM20.53 81c.87-.25 1.76-.38 2.65-.4.78-.02 1.58-.04 2.36 0 .28.02.56.05.82.09l.24-.1c.5-.5-.13-.98-.63-1-1.15-.05-2.14.62-3.3.58-1.3-.04-2.55-.5-3.85-.48-1.27.05-2.53.18-3.8.24-.22 0-1.1-.22-1.3-.24.47.13.92.26 1.36.4.82-.05 1.66.08 2.44.19.98.13 1.91.37 2.82.71zM24.45 89.87a1.45 1.45 0 0 0-.21-.67c-.18-.24-.5-.37-.8-.41-.3-.04-.61 0-.91.06l-1.26.2c-2 .3-3.94.39-5.95.39-1.43 0-2.82.32-4.23.39-.08 0-.2 0-.3.02l.06.02c.61.15 2.02.46 2.02.46.02.02.1.06.2.08 1.88-.39 3.91-.37 5.5.44.66.02.28-.2 1.47-.37.67-.11 1.32-.11 1.99-.13.54-.02 1.19-.15 1.69.08.21.11.5.2.65.03.1-.11.1-.29.1-.46 0-.04 0-.09-.02-.13z" opacity=".36"/></g><path d="M36.78 77.66c.17-.4.6-1.17.34-1.58-.52-.8-1.69-.59-2.44-.33a5.9 5.9 0 0 0-2.45 1.47c-.41.46-.48.9-.35 1.52.13.63.33 1.26.26 1.9-.13 1.07-1.21 1.8-2 2.39-1.05.8-2.1 1.75-2.55 3.03s-.04 2.34.96 3.1a12.55 12.55 0 0 1 4.02-4.88 15.21 15.21 0 0 1 5.4-2.77c-.9-.5-1.67-1.56-1.6-2.6 0-.4.23-.86.4-1.25zM51.3 84.26c-1.14-1.82-2.96-7.27-5.04-10.96A10.71 10.71 0 0 0 43.27 70a18.48 18.48 0 0 1 3.75 5.59 17.03 17.03 0 0 1 1.32 8.3 12.69 12.69 0 0 1-3.5 7.03 14.9 14.9 0 0 1-6.85 4.24c-.09.03-.2.05-.28.1.34.19.43.68.5.9.04.26 13.81-.93 13.1-11.89z" fill="#b45f00" opacity=".36"/><path d="M41.78 94.74c.1-.1.28-.28.26-.45-.04-.33-.5-.2-.7-.15-.34.1-.67.26-1.01.4-.83.35-1.71.5-2.58.74.24.18.35.5.41.72.5-.07 1-.17 1.47-.3.74-.2 1.6-.44 2.15-.96zM29.95 64.62s-.1 1.71 2.82 2.04c0 0-1.04-.44-1.65-.87-.78-.56-1.17-1.17-1.17-1.17z" fill="#b45f00" opacity=".36"/><path d="M4.81 93.53s1.06-1.13 3.25 0c0 0-.54-.84-1.75-.9-1.22-.07-1.5.9-1.5.9zM1.24 86.77s2.2-1.6 3.6 0c-.03 0-1.57-.86-3.6 0zM2 81.7s2.01-1.34 3.1 0c0 0-.31-.56-3.1 0zM6.07 76.5c.97-.32 1.9.18 2.6.55-1.2-1.47-2.6-.54-2.6-.54z" fill="#b45f00"/><path d="M156.88 63.93c.07-.5-1.97-2.02-1.67-2.39.5-.58 3.47.42 4.22.46 5.57.35 11.53 1.15 15.68 5.09 3.4 3.2 6.48 12.54 6.54 12.75 4.47 14.04 8.73 28.13 12.98 42.23l1.6 5.26c.22.72.43 1.43.84 2.04.5.74 1.26 1.23 2 1.67a25.14 25.14 0 0 0 10.15 3.35c.57.07 1.17.11 1.6.5.57.5 2.84-7.01 2.89-6.23 1.62 28.47-16.98 50.1-29.22 42.96a15.68 15.68 0 0 1-3.9-3.49c-8.42-9.78-12.34-22.9-16.02-35.58-7.13-24.62-9.03-58.8-7.69-68.62z" fill="#464558"/><path d="M160.47 63.62c3.19.55 6.4 1.41 9.19 3.06 1.64.95 3.16 2.16 4.28 3.7a12.44 12.44 0 0 1 2.28 5.8c.9 6.46-1.08 13.06.5 19.45.4 1.67 1.1 3.25 1.45 4.94.32 1.54.5 3.12.56 4.7.13 3.25-.13 6.52.02 9.79.07 1.47.28 2.92.48 4.4.1.82.2 1.66-.1 2.44-.96 2.45-3.58 3.64-5.45 5.26a7.36 7.36 0 0 0-2.4 3.58c-.15.65-.04 1.25.35 1.77.2.26.32.5.43.8.22.76.17 1.56.24 2.32.02.3.02.74.22 1.02.23.32.69.04.95-.13 2.27-1.52 3.98-4 5.35-6.3 1.43-2.4 2.6-4.96 3.72-7.52.54-1.23 1.04-2.49 1.67-3.68.67-1.3 1.45-2.55 2.25-3.77 1.47-2.27 3.01-4.57 3.96-7.12a2115.4 2115.4 0 0 0-8.74-28.26c-.1-.24-3-9.38-6.54-12.76-4.16-3.94-10.12-4.74-15.68-5.09-.74-.04-3.73-1.04-4.23-.45-.2.24.59.95 1.15 1.58 1.37.08 2.73.24 4.1.47zM213.73 128.66c-.05-.78-2.32 6.73-2.88 6.23-.44-.36-1.04-.43-1.6-.5a25.16 25.16 0 0 1-10.16-3.35 5.93 5.93 0 0 1-2-1.67c-.4-.6-.62-1.32-.84-2.03l-1.6-5.27-1.97-6.5c-.7 1.8-1.43 3.58-2.26 5.31-.02.05-.08.07-.13.05-.69-.2-1.4-.35-2.12-.4-.71-.04-1.62-.06-2.25.37-1.1.76-.15 1.9.41 2.69.89 1.23 1.89 2.38 2.86 3.53.67.78 1.45 1.56 2 2.47a28.58 28.58 0 0 1 3.4 8.14c.62 2.6 1.08 5.48.58 8.14-.87 4.64-4.38 8.47-8.6 10.38-2.1.95-4.42 1.51-6.74 1.4-2.44-.1-4.8-.9-6.86-2.23-.22-.13-.41-.28-.63-.4 2.21 4.73 4.85 9.2 8.23 13.11a15.63 15.63 0 0 0 3.9 3.5c12.28 7.12 30.88-14.52 29.26-42.97z" fill="#2b2b37" opacity=".25"/><path d="M213.73 128.66c-.05-.78-2.32 6.73-2.88 6.23-.44-.36-1.04-.43-1.6-.5-1.15-.1-2.28-.32-3.4-.58l.04.43c.21 3.14-.3 6.22-1.1 9.25-.77 2.95-1.57 5.91-2.41 8.84a34.8 34.8 0 0 1-2.34 6.34 12.36 12.36 0 0 1-3.9 4.68c-1.99 1.36-4.29 1.82-6.67 2.06a29.4 29.4 0 0 1-11.95-1.28 45.7 45.7 0 0 0 3.07 4 15.66 15.66 0 0 0 3.9 3.5c12.26 7.12 30.86-14.52 29.24-42.97z" fill="#2b2b37" opacity=".25"/><path d="M168.88 141.02c-.07-3.14.54-6.26 1.38-9.27.44-1.56.91-3.07 1.35-4.63.45-1.58 1.06-3.27 1.1-4.92.07-3.18-1.4-6.17-2.3-9.16-.95-3.27-.64-6.6-.19-9.94.46-3.42.87-6.86.65-10.33-.1-1.7-.37-3.4-.93-5.04a55.76 55.76 0 0 0-1.89-4.55c-1.2-2.73-2.57-5.61-2.85-8.62a19.36 19.36 0 0 1 2.57-11.37 41.61 41.61 0 0 0-8.33-1.2c-.74-.03-3.73-1.03-4.23-.45-.3.37 1.74 1.91 1.67 2.39-1.36 9.83.54 44 7.7 68.6 1.44 4.92 2.91 9.9 4.67 14.75-.22-2.1-.33-4.18-.37-6.26zM189.17 130.24c3.44 4.15 7.84 7.36 11.67 11.13 3.55 3.46 6.85 7.32 9.12 11.76a58.02 58.02 0 0 0 3.77-24.47c-.05-.78-2.32 6.73-2.88 6.23-.44-.36-1.04-.43-1.6-.5a25.15 25.15 0 0 1-10.16-3.35 5.91 5.91 0 0 1-2-1.67 7.38 7.38 0 0 1-.84-2.03l-1.6-5.27c-1.15-3.8-2.3-7.62-3.47-11.43-.95 1.95-1.7 4-2.57 6a55.38 55.38 0 0 1-3.38 6.64c.82 2.52 2.2 4.86 3.94 6.96z" fill="#2b2b37" opacity=".18"/><path d="M188.04 126.8c2.08 2.38 4.88 4.02 7.52 5.69 5.02 3.16 10.87 5.26 15.11 9.57.65.67 1.3 1.4 1.93 2.19 1-4.83 1.45-10.07 1.15-15.6-.05-.77-2.32 6.74-2.88 6.24-.44-.36-1.04-.43-1.6-.5a25.15 25.15 0 0 1-10.16-3.35 5.91 5.91 0 0 1-2-1.67c-.4-.6-.62-1.32-.84-2.03l-1.6-5.27-3.46-11.43c-.96 1.95-1.72 4-2.58 6-.91 2.1-1.9 4.18-3.1 6.17.71 1.36 1.5 2.8 2.51 3.98zM190.45 168.53c-4.83-.61-9.12-3.25-12.54-6.61a42.05 42.05 0 0 1-5.13-6.13 54.7 54.7 0 0 0 7.84 12.3 15.68 15.68 0 0 0 3.9 3.49c5.54 3.25 12.38.56 18.05-5.96-3.63 2.2-7.88 3.43-12.12 2.9zM179.92 91.34a18.9 18.9 0 0 0-.15 4.42c.13 1.3.43 2.6.84 3.83.91 2.8 2.2 5.5 2.75 8.4.24 1.28.11 2.48.18 3.75.09 1.5.24 2.97-.4 4.38-.77 1.75-2.52 2.99-3.04 4.83-.33 1.12-.13 2.36-.48 3.46-.3.96-1 1.73-1.69 2.47-1.08 1.15-2.25 2.27-3.72 2.82-.65.23-1.37.34-1.95.69-.59.35-1.09 1.06-.87 1.71.26.84 1.43 1.06 2.2.65.79-.41 1.26-1.2 1.78-1.9.52-.72 1.2-1.41 2.08-1.5.33.65 0 1.45-.5 1.95s-1.16.82-1.75 1.23a6.17 6.17 0 0 0-2.58 4.27c-.06.45.05 1.08.5 1.19.3.07.6-.15.85-.37 1.56-1.43.43-.43 11.15-16 2.51-3.64 3.36-4.98 4.96-9.1.3-.78.67-1.53 1.04-2.27a2453.9 2453.9 0 0 0-9.38-30.34c-.04.93-.13 1.88-.26 2.81-.45 2.9-1.21 5.74-1.56 8.62z" fill="#2b2b37" opacity=".18"/><path d="M218.23 95.65a1.73 1.73 0 0 1-.5-1.5c.07-.53.55-1.38 1.15-1.7a21.08 21.08 0 0 0-4-4.72c-1.89-1.67-4.2-3.25-6.65-3.95-3.36-.95-3.23-.1-4.31 1.67-7.2 11.83-19.86 33.8-19.4 36.62.58 3.58 18.83 18.02 30.57 13.17 3.01-16.94 4-30.12 4.14-39.57-.37.1-.74.24-1-.02z" fill="#575771"/><path d="M218.23 95.65a1.73 1.73 0 0 1-.5-1.5c.07-.53.55-1.38 1.15-1.7a21.08 21.08 0 0 0-4-4.72c-1.89-1.67-4.2-3.25-6.65-3.95-3.36-.95-3.23-.1-4.31 1.67-7.2 11.83-19.86 33.8-19.4 36.62.58 3.58 18.83 18.02 30.57 13.17 3.01-16.94 4-30.12 4.14-39.57-.37.1-.74.24-1-.02z" fill="#2b2b37" opacity=".25"/><path d="M190.03 113.06a33.94 33.94 0 0 0 7.3-3.55 33.62 33.62 0 0 0 11-12.8c1.43-2.79 2.47-5.8 2.34-8.98-.04-1.06-.2-2.13-.4-3.17-.68-.32-1.35-.58-2.04-.78-3.36-.95-3.23-.1-4.31 1.67-4.77 7.84-11.94 20.14-16.11 28.35.75-.22 1.49-.46 2.23-.74z" fill="#575771"/><path d="M218 99.16a28.49 28.49 0 0 1-3 7.78 27.11 27.11 0 0 1-4.52 5.76 31.92 31.92 0 0 1-25.92 8.64c-.07.32-.1.58-.07.75.59 3.58 18.84 18.02 30.58 13.17 3-16.93 4-30.12 4.14-39.56-.2.04-.4.1-.57.1a35.4 35.4 0 0 1-.65 3.36z" fill="#2b2b37" opacity=".25"/><path d="M188.43 115.23c14.38-2.02 26.92-11.85 28.65-12.95.22-.13.52-.07.63.15.24.52-1.62 1.71-2.25 2.17-1.17.84-5.59 3.4-8.01 4.76-4.3 2.43-11.03 5.55-18.89 6.65a.36.36 0 0 1-.34-.13.4.4 0 0 1-.11-.22c-.05-.2.1-.39.32-.43z" fill="#2b2b37"/><path d="M210.82 127.33c.13.13.33.18.48.1.2-.12.28-.36.17-.55-.08-.17-9.46-20.77-10.48-31.88a.4.4 0 0 0-.43-.37.4.4 0 0 0-.37.44c1.04 11.26 10.48 32 10.57 32.18l.07.08zM206.36 83.29s-.9.1-1.17.32c-.28.22 0 1.71 0 1.71l6.83 8.04 6.77 2.79s.57 0 .4-.82c-.16-.67-12.83-12.04-12.83-12.04z" fill="#2b2b37"/><path d="M205.2 85.32c1.14-1.82 3.48-8.34 5.56-12.02 2.14-3.8 6.48-5.56 10.57-6.4 1-.2 2.01-.37 2.92-.87.95-.5 1.71-1.32 2.64-1.89.2-.1.44-.21.63-.13s.3.3.37.52c.58 1.74-.22 3.75-1.52 4.98-1.45 1.37-3.4 1.95-5.24 2.47-.39.11-.73.4-.9.8-.35.78.3 1.22.66 1.6a6.46 6.46 0 0 0 3.3 1.87c9.57 2.16 13.42.1 16.09-.74 1.8-.56 3.61-1 5.43-1.4 1.24-.29 2.54-.55 3.77-.22 1.24.32 2.38 1.4 2.43 2.75 0 .2-.03.43-.18.56-.13.11-.3.11-.45.11-2.77.09-5.35 1.43-8.01 2.36 1.92-.48 3.87-.84 5.82-1.17 1.39-.24 2.82-.43 4.16 0 1.34.43 2.55 1.69 2.51 3.18 0 .22-.04.48-.22.61-.15.1-.32.1-.5.1-2.42-.03-4.76.79-7.1 1.57l1.8-.33c1.39-.23 2.84-.43 4.18 0 1.34.44 2.56 1.7 2.53 3.2 0 .25-.04.48-.21.61-.15.11-.33.11-.5.11-3.3-.06-6.41 1.48-9.6 2.3-.69.2-1.4.32-2.12.47 1.1-.1 2.2-.17 3.3-.23 1.27-.07 2.6-.11 3.76.4 1.17.53 2.15 1.78 2 3.13-.03.2-.09.43-.26.52-.13.08-.3.06-.46.04-2.94-.39-5.89.67-8.83 1.13-4.83.71-15.66 1.62-23.76-.1-.74-.14-.89.68-.98.96-1.34.2-12.82-2.14-13.6-10.85z" fill="#d58500"/><path d="M214.25 76.92c-2-.63-2.06 1.65-1.15 2.9.26.37.67.8 1.15.76.62-.04 1.04-.72 1.2-1.26.31-1.01-.14-2.08-1.2-2.4zM218.7 84.98c-.8-.48-2.05-.55-2.42.3-.39.89.52 1.9 1.13 2.45.6.54 2.18 1.62 2.55.23.3-1.25-.26-2.2-1.25-2.98z" fill="#e2a040" opacity=".4"/><path d="M229.69 94.48c.52-1.12.97-2.4.9-3.68a7.15 7.15 0 0 0-.17-1.17c-.02-.13.13-.28.18-.39.24-.5.43-1.02.45-1.56 0-.56-.08-1.1-.28-1.62-.1-.3-.33-.7-.24-1.04.09-.37.33-.67.46-1.02.15-.41.26-.82.28-1.25.04-.94-.22-1.85-1.06-2.36-.05-.03-.07-.11-.05-.16.55-.73.91-1.64.78-2.57-.02-.13-.04-.3-.08-.46a36.66 36.66 0 0 1-6.67-.93 6.45 6.45 0 0 1-3.3-1.86c-.36-.4-1-.82-.67-1.6.18-.4.52-.68.91-.8 1.84-.53 3.8-1.11 5.24-2.47 1.24-1.17 2.02-3.06 1.58-4.73-.15 1-.64 1.98-1.27 2.75-1.76 2.15-4.62 3.14-7.04 4.3-.65.3-1.3.62-1.95.99-.5.28-1.1.58-1.4 1.08-.85 1.45.8 2.17 1.66 2.95.82.73 1.32 1.97.95 3.05s-1.17 1.93-1.95 2.73c1.52.22 3.08.22 4.36 1.19a4.67 4.67 0 0 1 1.8 4.33c-.63 4.44-5.23 6.76-9.43 6.82 2.43.96 4.55 1.28 5.07 1.2.09-.29.24-1.13.98-.96 2.75.59 5.8.87 8.83.95a7.1 7.1 0 0 0 1.13-1.7z" fill="#b45f00" opacity=".18"/><path d="M211.71 72.13a9.23 9.23 0 0 1 3.12-1.82c1.3-.45 2.66-.67 4-1.01 2.8-.7 5.33-2.13 7.28-4.25.26-.28.5-.56.7-.86-.9.54-1.65 1.34-2.58 1.84-.91.47-1.93.65-2.92.86-3.88.78-7.93 2.39-10.18 5.76l.58-.52zM247.23 74.97c.97-.09 2.06-.3 2.88-.84-.2-.09-.41-.18-.6-.24-1.24-.33-2.54-.07-3.78.21-.58.13-1.19.26-1.77.42.9.58 2.31.54 3.27.45zM247.31 90.07l-.5.02c.6 1.75 3.1 1.53 4.77.65-.17-.11-.32-.2-.5-.29-1.19-.5-2.5-.45-3.76-.38zM250.39 83.55c.7.62 1.56 1.1 2.51 1.04a3.43 3.43 0 0 0 1.76-.63 5.17 5.17 0 0 0-.72-.33 7.56 7.56 0 0 0-3.55-.08zM249.11 78.52l-1.5.26c1.26 1.89 3.58.98 5.07-.4-1.19-.23-2.4-.05-3.57.14zM243.44 74.65c-1.06.26-2.12.54-3.16.86-.63.2-1.32.46-2.15.72 1.56 1.36 3.97-.13 5.3-1.58z" fill="#e2a040" opacity=".4"/><g fill="#b45f00"><path d="M207.01 87.53c-.6-.8-1.19-1.69-1.6-2.62-.09.15-.15.28-.24.41.78 8.7 12.26 11.07 13.6 10.83.07-.22.18-.78.59-.93-4.36-1.28-8.12-2.06-12.35-7.69zM224.25 66.3c1.2.4 2.4-.34 3.16-1.79 0 0 .09 1.5-1.01 1.95a2.62 2.62 0 0 1-2.15-.15zM224.19 76.25a6.45 6.45 0 0 1-3.3-1.86c-.36-.4-1-.83-.67-1.6.18-.4.52-.68.91-.8.05-.03.11-.03.15-.05-2.7-.17-2.64 2.36-.84 4.63 1.95 2.47.8 3.06-1.13 5.24 0 .03 2.43-.13 4.92 1.87 4.33 3.44 5.28 8.9 5.28 8.9-.06-.37.13-1.04.13-1.48-.02-.65.03-1.12.16-1.77.28-1.52.45-3.1.04-4.61-.09-.29-.17-.57-.17-.87 0-.52.28-.97.4-1.5.2-.84-.12-1.7-.36-2.53-.22-.78-.04-1.32 0-2.08.02-.32.3-.32.04-.6-.1-.11-.8-.07-.95-.09-1.56-.2-3.1-.45-4.61-.8z" opacity=".36"/><path d="M243.29 79.7c2.64-.92 5.22-2.26 8-2.37.16 0 .33-.02.46-.1.16-.14.2-.35.18-.57-.02-1.06-.76-1.97-1.65-2.45a.3.3 0 0 1 .05.13c.26.7-.07 1.5-.63 1.95-.57.46-1.32.63-2.06.65-.35 0-.71-.02-1.06.07-.24.06-.48.21-.7.34a8.43 8.43 0 0 1-4.17 1.45c-.65.03-1.32-.08-1.97-.13-.63-.02-1.15.16-1.74.22-.47.04-.97-.04-1.45-.04-1.19.04-2.36.21-3.5.54-.53.13-1.09.3-1.57.06-.2-.1-.39-.26-.6-.32-.28-.07-.56.06-.78.24-.2.17-.37.39-.37.65s.17.52.43.54c.18 0 .33-.09.46-.18.7-.36 1.5-.38 2.27-.38.65 0 1.32 0 1.97.02.93.02 1.9.04 2.77.39.13.04.26.1.4.1.1 0 .21-.06.32-.1 1.23-.59 3.68-.3 4.94-.76.02.04 0 .04 0 .04zM247.99 83.94h-.05c2.34-.78 4.68-1.6 7.1-1.56.18 0 .37 0 .5-.11.18-.13.22-.4.22-.6a3.15 3.15 0 0 0-1.08-2.35c.04.4.17.78.1 1.17-.08.59-.58 1.02-1.08 1.3-1.01.54-2.2.63-3.37.6-1.17-.01-2.32-.08-3.45.2-.5.13-.97.3-1.47.44-.74.17-1.45.08-2.19.2-.52.06-1.02.32-1.56.38-1.86.26-3.79-.52-5.59.04-.32.11-.64.26-.97.37-.52.18-1.04.24-1.58.3-.39.05-.8.1-1.2-.02-.2-.06-.45-.19-.68-.13-.37.11-.42.68-.13.94.28.26.71.26 1.06.15.34-.11.67-.33 1.04-.46.62-.24 1.3-.2 1.95-.15 1.47.09 2.96.15 4.43.24.26.02.55.02.8 0 .35-.04.7-.15 1.02-.22.63-.15 1.26-.24 1.89-.32 1.54-.15 2.9-.13 4.29-.41zM256.48 86.82c.02-.98-.5-1.87-1.22-2.47l.02 1.25c0 .18 0 .33-.06.48s-.22.26-.35.35c-.43.28-.93.47-1.45.54-1.58.22-3.25-.6-4.74-.07-.41.16-.78.42-1.2.63a8.65 8.65 0 0 1-3.7.82c-1.62.07-3.3-.06-4.87.46-.34.1-.58.24-.95.26-.43.02-.84.02-1.28.06-.8.07-1.62.2-2.38.48-.3.1-.6.24-.93.3-.65.11-1.4-.1-1.95.29-.13.1-.26.23-.28.4-.02.35.39.6.73.53.35-.05.63-.29.94-.46a3.1 3.1 0 0 1 1.75-.41c.71.04 1.4.35 2.12.3.41-.02.8-.15 1.21-.23 2.2-.5 3.9.15 6.13-.1l.26-.03c.33-.1.91-.26 1.06-.29.61-.17 1.22-.3 1.82-.43l.3-.06c2.76-.85 5.46-2 8.3-1.93.17 0 .37 0 .5-.11.17-.06.21-.32.21-.56zM252.01 91.1c.1.46-.1.96-.45 1.28a3.4 3.4 0 0 1-1.76.72c-4.05.73-8.27.17-12.3 1.12-1.25.3-2.49.74-3.76.96-4.64.8-9.3-1.35-14-1.28-.4 0-.84.02-1.2-.13-.5-.22-.8-.67-1.24-1a2.4 2.4 0 0 0-1.4-.47c-.25 0-.5.04-.66.23-.2.24-.1.61.07.87.75 1.26 2.53 1.28 3.8 2.01a.65.65 0 0 1 .66-.2c8.1 1.74 18.9.81 23.75.1 2.95-.44 5.87-1.5 8.84-1.13.15.02.33.04.46-.04.17-.11.23-.33.26-.52A3 3 0 0 0 252 91.1z" opacity=".36"/><path d="M251.93 87.42a3.15 3.15 0 0 1 3.74-.17c-1.04-1.6-3.66-1.17-3.74.17zM248.48 93.7a3.15 3.15 0 0 1 3.75.07c-.93-1.67-3.57-1.4-3.75-.07zM251.56 82.46c.95-1 2.45-1.27 3.68-.67-1.23-1.45-3.77-.67-3.68.67zM248.25 77.35c.82-.8 2.08-.97 3.1-.43-1-1.28-3.13-.71-3.1.43zM217.93 92.7c-2.12-4.26-4.23-2.63-4.72-1.66-.09.17-.16.35-.18.54-.4 3.38 5.85 3.77 6.07 3.81.1-.15.28-.24.52-.24a8.5 8.5 0 0 1-1.7-2.44z" opacity=".36"/></g><path d="M182.91 130.89c-.1-.2-.3-.33-.58-.4-1.02-.23-2.21 1.16-2.54 1.96-.2.45-.32 1.01-.08 1.45.28.47.93.63 1.45.47.52-.17.93-.56 1.27-1.01.37-.52.9-1.8.48-2.47zM171.65 71.57c.13-.17.17-.41.1-.7-.19-1.01-1.94-1.55-2.8-1.53-.5.02-1.07.1-1.37.52-.33.43-.2 1.1.17 1.52.37.4.91.62 1.43.73.67.18 2.04.13 2.47-.54z" fill="#d8d8d8" opacity=".02"/><path d="M168.4 166.75c-.28-6.5-2.01-12.82-2.3-19.3-.36-8.03.66-16.13-.51-24.14-.78-5.33-2.4-10.79-1.95-16.22.17-1.97.4-3.94.63-5.91 1.45-13.71.84-15.97-1.2-19.37-.45-2.81-1.9-8.48-6.02-20.2-.15-.41-2.16-.5-2.36-.89-.21-.39-.63-.73-1.06-.65-.3.07-.54.33-.8.5-.26.2-.65.28-.87.06-.06-.06-.08-.13-.13-.19-.3-.43-.95-.56-1.45-.37s-.84.67-1.04 1.17c-.06.17-.1.33-.13.5-6.26.5-14.77 2.53-16.82 2.38l-13.71 4.68c-1.89.13-3.96-2.66-5.16-3.8-1.73-1.61-3.85-3.8-6.34-3.93a9.92 9.92 0 0 0-1.5-1.06c-.84-.48-1.97-.83-2.77-.26-.54.37-.86 1.12-1.51 1.17-.54.04-1-.46-1.54-.55-.5-.06-.95.22-1.36.5-.35.22-3.36.8-3.38 1.2-.02.23-.7 15.4-.9 22.17-.81 3.07-1.55 6.2-2.2 9.31l-.13 1.41c-.3 3.53-.74 7.06-.78 10.61v2.8c.48 3.59.93 7.16 1.02 10.8.1 4.16.02 8.32-.15 12.47-.18 4.18-.41 8.34-.63 12.52-.22 3.94-.8 7.84-1.47 11.74-.67 4.03-1.39 8.08-1.54 12.17-.09 2.32.02 4.6.32 6.86h78.85c.78-2.64 1-5.43.9-8.18zm-7.25-88.14.02.06-.02-.02v-.04z" fill="#575770"/><path d="M107.46 65.6c.76 2.48 1.34 5.06 2.54 7.38.62 1.23 1.42 2.4 2.49 3.29a7.9 7.9 0 0 0 3.9 1.69c2.63.41 5.36-.04 7.94.7 1.34.36 2.6 1.03 3.86 1.64 1.25.63 2.49 1.28 3.76 1.84 2.73 1.23 5.57 2 8.58 1.88 5.93-.21 11.93-2.5 16.93-5.67 1.54-.98 2.8-2.17 3.88-3.53-.93-3.2-2.3-7.5-4.3-13.21-.16-.41-2.17-.5-2.37-.89-.22-.39-.63-.73-1.06-.65-.3.07-.54.33-.8.5-.26.2-.65.28-.87.06-.06-.06-.08-.13-.13-.19-.3-.43-.95-.56-1.45-.37s-.84.67-1.04 1.17c-.06.17-.1.33-.13.5-6.26.5-14.77 2.53-16.83 2.38l-13.7 4.68c-1.89.13-3.97-2.66-5.16-3.8-1.73-1.61-3.85-3.8-6.34-3.93-.3-.26-.63-.52-.98-.74.3 1.8.76 3.53 1.28 5.26z" fill="#2b2b37" opacity=".11"/><path d="M107.11 64.01c.13.02.1.24-.06.22l.39 1.36c.76 2.5 1.34 5.07 2.53 7.39.63 1.23 1.43 2.4 2.5 3.29a7.9 7.9 0 0 0 3.9 1.69l.47.06c.8-.1 1.58-.32 2.38-.47a6.1 6.1 0 0 1 3.47.24c3.14 1.08 6.47.93 9.72 1.47 1.69.28 3.38.74 5.09.8 1.51.07 3-.15 4.48-.52 1.45-.37 2.88-.87 4.33-1.28 1.32-.37 2.62-.71 3.84-1.36a12.52 12.52 0 0 0 5.37-5.18c.6-1.19 1.04-2.49 1.17-3.8.17-1.59-.1-3.1-.52-4.64-.22-.72-.46-1.45-.65-2.2-.44-.1-.8-.2-.9-.36-.2-.39-.62-.73-1.05-.65-.3.07-.55.33-.8.5-.27.2-.66.28-.87.06-.07-.06-.09-.13-.13-.19-.3-.43-.95-.56-1.45-.37s-.85.67-1.04 1.17c-.07.17-.11.33-.13.5-6.26.5-14.77 2.53-16.83 2.38l-13.7 4.68c-1.9.13-3.97-2.66-5.16-3.8-1.73-1.61-3.85-3.8-6.35-3.93-.3-.26-.62-.52-.97-.74.22 1.24.5 2.45.82 3.66l.15.02z" fill="#2b2b37" opacity=".11"/><path d="M148.24 62.41c.1.46.22.91.37 1.34.21.7.52 1.63 1.12 2.1.57-.17 1-.84 1.32-1.25.46-.57.93-1.1 1.24-1.76.32-.65.52-1.47.52-2.3l-.02.03c-.26.2-.65.28-.87.06-.06-.06-.09-.13-.13-.19-.3-.43-.95-.56-1.45-.37s-.84.67-1.04 1.17c-.06.17-.1.33-.13.5-.35.02-.71.06-1.08.1.06.22.13.44.15.57zM154 60.7c.2.95-.33 1.9-.09 2.82.44 1.55 1.76.15 2.15-.74l-.52-1.71c-.44-.11-.8-.22-.89-.37-.17-.35-.52-.65-.89-.65.11.2.2.43.24.65zM100.57 62.87c-.04.36-.3 1.2.03 1.51.62.54.9-.5.93-.9.02-.64-.26-1.63-.35-2.54-.48-.07-.89-.46-1.36-.54h-.11c.67.6.97 1.58.86 2.47zM104.56 62.48c.28.58.78 1.1 1.47 1.12.2 0 .41-.04.59-.1a34.26 34.26 0 0 1-.7-3.3l-.28-.17c-.54-.3-1.19-.56-1.8-.54.37.9.4 2.31.72 2.99z" fill="#2b2b37" opacity=".11"/><path d="m161.15 78.6.02.07-.02-.02v-.04z" fill="#575770"/><path d="M168.4 166.75c-.28-6.5-2.01-12.82-2.3-19.3-.36-8.03.66-16.13-.51-24.14-.78-5.33-2.4-10.79-1.95-16.22.17-1.97.4-3.94.62-5.91 1.45-13.71.85-15.97-1.19-19.37-.45-2.81-1.9-8.48-6.02-20.2-.04-.13-.24-.22-.5-.28a69.69 69.69 0 0 1-4.98 15.5 42.72 42.72 0 0 1-7.9 11.74 46.3 46.3 0 0 1-10.72 8.14c-8.16 4.53-17.48 6.93-26.77 7.48-5 .3-10.07.08-15.03-.74-.04.71-.06 1.45-.06 2.17v2.79c.48 3.6.93 7.17 1.02 10.8.1 4.16.02 8.32-.15 12.48-.18 4.18-.42 8.34-.63 12.52-.22 3.94-.8 7.84-1.48 11.73-.67 4.03-1.38 8.08-1.53 12.17-.09 2.32.02 4.6.32 6.87h78.85c.8-2.69 1.02-5.48.91-8.23z" fill="#2b2b37" opacity=".11"/><path d="M168.4 166.75c-.28-6.5-2.01-12.82-2.3-19.3-.36-8.03.66-16.13-.51-24.14-.78-5.33-2.4-10.79-1.95-16.22.17-1.97.4-3.94.63-5.91 1.27-12.22.93-15.36-.59-18.28-.22 1.1-.52 2.2-.95 3.29a35.44 35.44 0 0 1-4.33 7.43c-1.7 2.34-3.47 4.61-4.92 7.08a21.46 21.46 0 0 0-2.81 8.14c-.33 2.5-.35 5.03-.42 7.54-.04 2.2-.1 4.46-.6 6.62a14.02 14.02 0 0 1-2.86 5.87 22.58 22.58 0 0 1-7.2 5.4c-3.05 1.51-6.4 2.18-9.6 3.24-3.04 1-6.05 2.3-7.98 4.94-1.6 2.19-2.7 4.68-4.63 6.63-1.21 1.23-2.3 2.58-3.49 3.83A193.35 193.35 0 0 1 94 171.62a44.2 44.2 0 0 1-4.72 3.34h78.24c.78-2.67 1-5.46.9-8.21z" fill="#2b2b37" opacity=".11"/><path d="M168.4 166.75c-.28-6.5-2.01-12.82-2.3-19.3-.36-8.03.66-16.13-.51-24.14-.78-5.33-2.4-10.79-1.95-16.22.08-1.02.2-2.06.3-3.08-.1.28-.24.57-.35.83-.86 2.07-1.8 4.1-2.7 6.17-.48 1.06-.98 2.12-1.3 3.25a19.3 19.3 0 0 0-.74 3.98c-.43 5.44.87 10.83.63 16.24-.11 2.4-.52 4.87-1.67 7.02-1.08 2-2.77 3.53-4.7 4.72-4.07 2.53-9.03 3.75-12.62 7a69.2 69.2 0 0 0-5.46 5.52c-1.69 1.88-3.32 3.8-5.07 5.65a37.08 37.08 0 0 1-5.54 4.87 27.9 27.9 0 0 1-7.06 3.4c-3.86 1.3-7.9 1.9-11.96 2.27h62.11c.78-2.64 1-5.43.9-8.18zM91.48 141.32c1.86-4.26 4.27-8.42 5.17-12.86.3-1.5.44-3.03.55-4.57.13-1.7.2-3.42.1-5.13-.15-2.75-.8-5.42-1.84-7.95a21.94 21.94 0 0 0-3.57-6.06c-.24-.28-.5-.54-.76-.8-.02.54-.04 1.1-.04 1.64v2.8c.48 3.6.93 7.16 1.02 10.8.1 4.16.02 8.32-.15 12.48-.13 3.22-.3 6.45-.48 9.66z" fill="#2b2b37" opacity=".11"/><path d="M168.4 166.75c-.28-6.5-2.01-12.82-2.3-19.3-.36-8.03.66-16.13-.51-24.14-.78-5.33-2.4-10.79-1.95-16.22.08-1.02.2-2.06.3-3.08-.1.28-.24.57-.35.83a98 98 0 0 1-1.36 3.11c-.11.85-.2 1.7-.24 2.54a43.2 43.2 0 0 0 .3 9.9c.41 2.42 1.3 4.74 1.8 7.14.6 2.86 1.08 5.96.15 8.8-.43 1.31-1.04 2.6-1.5 3.91a21.94 21.94 0 0 0-1.14 4.7c-.17 1.58-.2 3.16-.22 4.77 0 1.4.07 2.83-.08 4.24a15.24 15.24 0 0 1-2.23 6.67c-1.54 2.4-3.6 4.48-5.63 6.48a54.33 54.33 0 0 1-9.9 7.86h23.9a24 24 0 0 0 .96-8.21z" fill="#2b2b37" opacity=".11"/><path d="m161.15 78.6.02.07-.02-.02v-.04z" fill="#575770"/><path d="M129.27 89.78c-.67-.82-1.6-1.47-2.4-2.16-.96-.82-1.93-1.63-2.9-2.43a93.29 93.29 0 0 1-5.6-4.98c-2.68-2.62-5.17-5.56-6.8-8.94-1.2.3-2.48.71-3.8 1.19 2.03 4.07 4.35 8.06 6.84 11.87a65.16 65.16 0 0 0 3.8 5.35 20.58 20.58 0 0 0 4.62 4.48c.74.47 1.56.82 2.4 1l.16-.7c.04-.17.28-.08.26.07-.05.21-.11.43-.15.65.97.13 1.97 0 2.92-.52 1.95-1.02 1.9-3.32.65-4.88z" fill="#2b2b37" opacity=".11"/><path d="M98.88 174.96c5.66-16.16 17.24-39.16 27.16-55.94 15.14-25.58 27.7-48.25 21.46-50.65-.8 1.58-3.14 7.64-4.13 9.13-1.22 1.87-2.6 3.56-3.88 5.38-1.13 1.58-2.2 3.18-3.42 4.72a23.4 23.4 0 0 1-4.18 4.35 9.8 9.8 0 0 1-1.52.93c-.32 1.4-1.66 2.3-3.1 2.56-.56.1-1.1.1-1.62.04-1.7 7.15-5.41 13.69-9.44 19.84-3.79 5.78-7.95 11.34-11.82 17.15-3.9 5.87-7.22 17.54-9.34 24.4-1.19 3.82-2.03 7.74-2.88 11.66-.47 2.14-.9 4.28-1.36 6.45h8.07z" fill="#2b2b37" opacity=".25"/><path d="M97.67 174.96c3.6-9.73 5.26-25.58 8.95-35.13 2.44-6.3 5.76-12.15 9.29-17.78 2.4-3.83 5.54-7.32 6.73-11.74.46-1.7 4.92-14.72.93-12.75-6.36 3.14-11.52 13.01-16.17 19.92-11.61 17.28-18.39 43.5-20.47 56.2v1.28zM108.48 70.64s4.05 9.1 8.12 14.12c4.1 5.05 9.03 9.7 9.03 9.7l6.28-2.53s-7.34-2.56-12.43-7.34c-5.09-4.77-11-13.95-11-13.95z" fill="#2b2b37" opacity=".25"/><path d="M124.44 102.67c.76-.8 1.56-1.56 2.34-2.34 1.86-1.84 7.66-4.33 5.43-5.74-16.09-10.16-20.44-23.3-26.35-32.85-.11-.17-.11 24.23 18.58 40.93z" fill="#2b2b37"/><path d="M132.21 94.61a55.7 55.7 0 0 1-10.54-8.55c-.91 1.21-2.15 2.03-3.69 1.8-.36-.07-.9-.29-1.27-.18-.33.11-.54.35-.74.61-.3.45-.54 1-.97 1.36-.26.24-.57.37-.85.44a53.3 53.3 0 0 0 10.31 12.6c.76-.8 1.56-1.56 2.34-2.34 1.84-1.86 7.64-4.33 5.41-5.74z" fill="#21212b" opacity=".44"/><path d="M109.7 76.92a12.1 12.1 0 0 0 3.93 2.17c.85.28 1.74.52 2.65.56h.12c-4.5-6.32-7.27-12.65-10.52-17.89-.06-.08-.09 5.59 2.04 13.36.54.67 1.17 1.28 1.77 1.8zM125.63 89.78c-.84-.6-.76 2.36-1.23 3.25-1.1 2-2.52 3.9-4.2 5.46 1.3 1.43 2.7 2.82 4.24 4.18.76-.8 1.56-1.56 2.34-2.34 1.86-1.84 7.66-4.33 5.43-5.74-2.5-1.56-4.44-3.25-6.58-4.8z" fill="#21212b"/><path d="M96.48 174.96c6.76-16.38 25.62-57.65 31.4-65.84 20.19-28.63 21.57-42.38 18.39-42.38-2.23 8.75-53.32 60.7-59.12 108.24h9.33z" fill="#2b2b37"/><path d="M105.7 151.13c-.88-.02-1.77.05-2.66.07-.45.02-.97.02-1.4-.17-.44-.22-.74-.61-.96-1.04-.4-.78-.7-1.65-.97-2.47-1.13.41-2.02 1.19-3 1.86-.47.33-1.1.78-1.7.67-.41-.06-.74-.37-.95-.71-3.4 8.5-5.9 17.15-6.91 25.66h9.33c2.34-5.7 6.17-14.4 10.4-23.7a3.48 3.48 0 0 0-1.17-.17z" fill="#21212b" opacity=".44"/><path d="M139.84 83.94c.9.4 1.75.86 2.42 1.6 6.22-12.65 6.13-18.82 4-18.82-.6 2.4-4.93 8.1-10.97 16.05 1.56.04 3.16.54 4.55 1.17z" fill="#21212b"/><path d="M120.54 102.82a79.62 79.62 0 0 0-13.08 20.3c-.26.56-.5 1.14-.48 1.75.03.6.44 1.25 1.02 1.32.4.04.78-.15 1.1-.4 2.6-1.7 4.23-4.6 5.53-7.49.87-1.88 1.65-3.8 2.7-5.58 1.05-1.78 2.54-3.06 3.73-4.68a6.55 6.55 0 0 0 1.2-3.34c.16-1.34.08-3.92-1.72-1.88z" fill="#2b2b37"/><path d="M103.1 132.45c-.32.73-.45 1.88.31 2.08.43.1.82-.24 1.15-.55.7-.65 1.36-1.32 2.06-1.97l-.3 2.34c.54.18 1.08-.26 1.49-.67 5.3-5.35 8.36-12.54 12.93-18.45 1.23-1.6 2.62-3.18 3.12-5.15.19-.78.19-1.71-.42-2.21-.88-.74-2.16.06-2.98.89a15.3 15.3 0 0 0-2.8 3.55c-.41.8-.6 2.12-1.84 1.62.17-2.1-3.16 1.58-3.46 2.02-.98 1.34-1.78 2.79-2.69 4.2-2.51 3.87-4.7 7.99-6.56 12.3zM111.86 82.88c.82 1.77 1.75-.05 1.47-1.22-.22-1-.71-2.12-1.39-2.9-.47-.56-.95-.9-1.32-.09-.56 1.24.74 3.14 1.24 4.2zM136.54 85.47c1.15-1.4-.73-1.47-1.6-.78a6.33 6.33 0 0 0-1.86 2.34c-.28.63-.37 1.2.45 1.17 1.26-.02 2.34-1.88 3.01-2.73zM128.36 91.95c-2.28 2.81-3.8 5.33-6.24 8.53.18.41.59.85 1.45.74 2.82-.35 4.79-4.83 6.11-6.93 1.15-1.78-.28-2.23-1.32-2.34z" fill="#464557" opacity=".25"/><path d="M97.33 66.37c.58.44 1.53.37 1.86-.28.5-1.02-.09-5-1.37-4.78-1.6.28-1.4 4.4-.5 5.06zM101.35 60.94h-.06c.26.52.58.9.89 1.02.67.26 1.58-.07 1.73-.78a3.96 3.96 0 0 0-.3-1.7c-.24.05-.48.14-.7.29-.56.39-.9 1.12-1.56 1.17zM146.25 83.85c-.2-.13-1.45.7-.8 1.2.36.3 1.01 0 1.01-.68.03-.2-.04-.43-.21-.52z" fill="#d8d8d8" opacity=".14"/><path d="M109.1 51.1s-2.31 2.13-2.79 4.14c-.45 2.02 2.13 5.16 2.13 5.16l3.5-2.06z" fill="#75a152"/><path d="M149.88 51.78s2.32 3.42 1.48 7.82c-.85 4.4-4.57 5.45-4.57 5.45l-1.26-1.86z" fill="#568040"/><path d="M141.31 63.69c.04 3.94-5.3 7.19-11.93 7.27-6.63.1-12.04-3.03-12.06-6.97-.05-3.94 5.3-7.19 11.93-7.27 6.62-.1 12.04 3.03 12.06 6.97z" fill="#21212b"/><path d="M109.06 34.82a62.9 62.9 0 0 0-.15 8.86c.6 6.84 3.92 13.06 8.04 18.17A72.53 72.53 0 0 1 115.06 50a34.4 34.4 0 0 1 .09-7.17c.48-3.48 1.8-6.77 2.38-10.24.3-1.8.41-3.62.52-5.44.1-1.86.22-3.72.35-5.58.13-2.23-.98-4.16-2.73-2.19a24.52 24.52 0 0 0-3.2 4.6 28.53 28.53 0 0 0-3.4 10.84zM147.85 34.34c.15 1.15.22 2.3.28 3.47a50 50 0 0 1 .05 5.4c-.48 6.86-3.66 13.16-7.67 18.36.87-3.9 1.43-7.89 1.65-11.91.13-2.39.15-4.81-.22-7.17-.54-3.47-1.93-6.72-2.58-10.18-.35-1.78-.5-3.6-.63-5.41l-.45-5.6c-.18-2.22.89-4.17 2.68-2.24a24.29 24.29 0 0 1 3.3 4.5 28.98 28.98 0 0 1 3.59 10.78z" fill="#2b2b37"/><path d="M150.12 31.98c-.15-.82-.54-1.62-1.17-2.03-.9-.6-1.68-.59-2.33-.13-1.8-11.7-9.19-20.42-17.96-20.32-8.77.11-15.98 9.04-17.54 20.77-.67-.43-1.45-.43-2.34.2-.63.43-1 1.25-1.14 2.08-.13.82-.05 1.66.04 2.49.37 3 .95 6 1.77 8.9.16.54.3 1.06.59 1.54a2.6 2.6 0 0 0 2.45 1.25l.26-.04c3.03 8.47 9.26 14.23 16.39 14.14 7.12-.09 13.25-6.02 16.11-14.55.09.02.17.04.26.04.93.09 1.9-.43 2.43-1.32a5.7 5.7 0 0 0 .56-1.54c.76-2.92 1.3-5.91 1.6-8.94.11-.87.18-1.71.02-2.54z" fill="#d58500"/><path d="M139.88 19.1c1.28.41 2.56.87 3.81 1.36-3.33-6.69-8.83-11.02-15.03-10.95-8.77.1-15.98 9.03-17.54 20.76-.67-.43-1.45-.43-2.34.2-.63.43-1 1.26-1.14 2.08-.13.82-.05 1.67.04 2.49.21 1.84.52 3.66.9 5.46a19.2 19.2 0 0 1 3.44-1.56c.81-15.92 10.21-25.67 27.86-19.84zM127.93 35.43s8.25-.8 14.42.84a201.2 201.2 0 0 1 6.84 1.89l-1.4 4.35z" fill="#b45f00"/><path d="M150.12 31.98c-.15-.82-.54-1.62-1.17-2.03-.9-.6-1.69-.59-2.34-.13a32.7 32.7 0 0 0-1.68-6.56c-.05-.09-.07-.18-.11-.26-.22-.59-.46-1.15-.72-1.71l-.13-.3a2.52 2.52 0 0 0-.21-.42c-.07-.1-.11-.21-.18-.32l-.21-.4c-.07-.1-.11-.2-.18-.32l-.21-.39-.2-.32c-.06-.13-.15-.24-.22-.37l-.19-.33-.22-.34-.21-.33-.22-.32c-.09-.1-.15-.22-.24-.33l-.21-.3a586.37 586.37 0 0 1-.48-.6c-.15-.2-.33-.4-.48-.57l-.13-.15-.39-.41a358.23 358.23 0 0 1-.52-.54c-.06-.07-.15-.13-.21-.22-.11-.1-.22-.22-.33-.3l-.21-.2c-.11-.1-.22-.2-.33-.28-.09-.06-.15-.13-.24-.2l-.34-.28c-.07-.06-.16-.1-.22-.17l-.37-.26-.22-.15-.39-.26-.19-.13c-.15-.09-.3-.2-.48-.28-.04-.02-.08-.07-.13-.09a17.5 17.5 0 0 0-1.25-.65c-.02-.02-.07-.02-.09-.04-.17-.09-.37-.15-.54-.22l-.17-.06c-.16-.07-.33-.11-.48-.18a271.86 271.86 0 0 1-.67-.2c-.07-.01-.15-.03-.22-.06l-.45-.1c-.05 0-.09-.03-.11-.03h.02c-.95-.2-1.9-.3-2.9-.3-8.77.1-15.98 9.03-17.54 20.77-.67-.43-1.45-.43-2.34.2-.63.43-1 1.25-1.15 2.07-.13.83-.04 1.67.04 2.5.22 1.83.52 3.65.91 5.45a22.04 22.04 0 0 1 4.53-1.9c.74-.22 1.5-.44 2.25-.59v-.2c-1.1-34.84 48.97-14.98 20.55 9.88-1.95 1.71-4.37 2.7-6.69 3.66-2.8 1.17-5.82 2.23-8.83 2.34a17.1 17.1 0 0 1-4.31-.5c3.33 4.79 7.99 7.73 13.1 7.67 7.12-.09 13.25-6.02 16.11-14.56.09.03.17.05.26.05.93.08 1.9-.44 2.43-1.32a5.7 5.7 0 0 0 .56-1.54c.76-2.92 1.3-5.91 1.6-8.94-.02-.96.04-1.8-.1-2.63z" fill="#b45f00" opacity=".36"/><path d="M150.12 31.98c-.15-.82-.54-1.62-1.17-2.03-.9-.6-.32-1.89-1-1.45-.38-2.47-1.79-4.57-3.5-6.33l-2.32-.5c5.03 6.18 5.9 16 1.52 22.2-1.5 2.1-1.89 1.09-4.12 1.97-.8.33-1.64.52-2.49.72-.37.39-.73.73-1.15 1.08-1.97 1.67-4.37 2.7-6.69 3.66-2.79 1.17-5.82 2.23-8.83 2.34a17.1 17.1 0 0 1-4.31-.5c3.33 4.79 7.99 7.73 13.1 7.67 7.12-.09 13.25-6.02 16.11-14.55a2.61 2.61 0 0 0 2.69-1.28c.28-.48.43-1.02.56-1.54.76-2.92 1.3-5.91 1.6-8.94.09-.85.15-1.7 0-2.52z" fill="#b45f00"/><g fill="#e2a040" opacity=".36"><path d="M124.18 21.9c0 .2.06.43.17.62.28.54.78.91 1.3 1.15.13.06.28.1.43.09 1.37-.18-.32-2.04-.8-2.28-.43-.22-1.08-.35-1.1.41zM118.18 30.01c.15-.3.74-.32.97-.26.29.07.63.1.7.48.04.39-.3.6-.6.6-.25 0-.88-.1-1-.36-.11-.2-.13-.35-.07-.46zM136.54 30.51c0-.32.5-.67.76-.76.28-.08.59-.26.8.05.22.32 0 .69-.26.84-.2.13-.8.37-1.04.22-.2-.09-.26-.22-.26-.35zM117.08 34.9c.26.03.52-.14.67-.36.06-.1.13-.22.13-.35a.42.42 0 0 0-.05-.17c-.17-.45-.84-.54-1.17-.26-.47.37-.08 1.13.42 1.15zM142.26 34.26c.26.02.52-.15.67-.37.07-.1.13-.22.13-.35a.4.4 0 0 0-.04-.17c-.17-.45-.85-.54-1.17-.26-.46.37-.07 1.13.41 1.15z" opacity=".36"/></g><path d="M127.56 30.1c-.67-2.2-3.06-3.31-5.7-3.83-.6.17-1.23.36-1.82.5-1.04.23-2.08.43-3.07.84-.74.3-1.43.67-2.1 1.08.02.2.04.3.08.3 7.39-.97 10.72 1.04 10.74 3.84 0 3.4-2.75.58-16.89 5.95l2.15 7.22c2.3-.91 4.57-1.87 6.82-2.89 8.3-3.74 12.26-4.95 9.79-13.01z" fill="#b45f00" opacity=".36"/><path d="M124.66 25.6c-.63-.13-5.22-.2-9.64 3.07l-.11.07c-.02.02-.04.02-.04.04l-.05.02c-.08.07 0 .26.11.2l.17-.13c4.4-2.39 7.04.3 9.68-1.04.91-.46 1.11-1.95-.13-2.23z" fill="#323147"/><path d="M143.87 28.97c-1.07-.82-2.9-1-4.08-1.69-.69-.4-1-.17-1.73-.47-.78-.3-1.56-.59-2.36-.82-.2-.07-1.1-.63-1.3-.59-.24.07-.52.63-.78 1.39l-.41-.15c-2.36 4.98-2.43 7.77-2.43 12.25 0 .35 1.59.41 1.71.74.11.3.29.56.46.8.5.63 1.2 1.15 1.93 1.2.76.03 1.56-.46 1.77-1.29.07-.3.07-.6.05-.9a14.19 14.19 0 0 0-1.37-4.03c-.21-.16-4.44-5.46 5.13-6.78a6.05 6.05 0 0 1 3.47.52c0-.07-.02-.15-.07-.18z" fill="#b45f00" opacity=".36"/><path d="M133.99 27.67c2.6 1.43 5.28-1.19 9.6 1.35l.17.15c.15.13.26-.13-.07-.33-4.33-3.44-8.9-3.5-9.53-3.4-1.21.24-1.04 1.76-.17 2.23zM119.09 31.33c-.02.16-.04.3-.04.48 0 .95.43 1.73.95 1.73s.95-.78.95-1.73c0-.17-.02-.32-.04-.48z" fill="#323147"/><path d="M123.86 33.46a.31.31 0 0 1-.22-.09 6 6 0 0 0-4.98-1.6c-1.28.06-2.47.15-3.86-1.17a.34.34 0 0 1-.02-.46.34.34 0 0 1 .46-.02c1.19 1.13 2.14 1.06 3.37 1a6.67 6.67 0 0 1 5.44 1.75c.13.11.15.33.04.46-.04.08-.15.13-.23.13zM138.69 31.33c.02.16.04.3.04.48 0 .95-.43 1.73-.95 1.73s-.95-.78-.95-1.73c0-.17.02-.32.04-.48z" fill="#323147"/><path d="M133.93 33.46c-.1 0-.2-.05-.24-.11-.11-.13-.11-.35.04-.46 2.32-1.95 3.98-1.84 5.44-1.75 1.23.06 2.18.13 3.37-1 .13-.13.35-.1.46.03.13.12.1.34-.02.45-1.39 1.32-2.6 1.26-3.86 1.17a6 6 0 0 0-4.98 1.6c-.06.02-.13.07-.21.07z" fill="#323147"/><path d="M124.1 32.61c-.8-2.53-5.33-2.19-3.56-2.92.2-.07 3.05-.15 3.55 2.92z" fill="#b45f00" opacity=".36"/><path d="M116.43 56.24c-.16-.11-2.8-.8-2.8-.63 0 .17 2.08 5.98 2.23 6.22.16.23 4.05 3.3 4.05 3.3s2.5-2.22 2.5-2.4c0-.17-.31-1.99-.31-1.99z" fill="#21212b"/><path d="M147.57 52.5c1.28-3.26 2.16-13.48 2.16-13.48-21.05-5.33-20.66-5.33-41.58.52 0 0 .33 2.97.83 6.2.4.8.9 1.6 1.27 2.36.72 1.43 1.46 2.81 2.15 4.24.6 1.26 1.23 2.5 1.95 3.68l.21.26c2.08 2.54 5.1 4.12 7.84 5.52.96.48 1.91.85 2.86 1.09 3 .04 6.11-.02 9.08-.15 3.1-.57 6.19-1.37 9.03-2.9 1.14-.63 2.14 1.12 1.27 1.9 1.46-.26 2.69-.54 3.58-.89l-.05-3.55c-.9-1.21-1.47-2.58-.6-4.8z" fill="#464558"/><path d="M147.57 52.5c1.28-3.26 2.16-13.48 2.16-13.48-9.85-2.49-15-3.83-19.83-3.94-.2.76-.44 1.52-.7 2.25a11.89 11.89 0 0 1-3.1 4.88 9.41 9.41 0 0 1-6.2 2.31c-3.3-.04-4.7-3.27-4.75-6.93l-7.02 1.95s.33 2.97.83 6.2c.4.8.9 1.6 1.27 2.36.72 1.43 1.45 2.81 2.15 4.24.6 1.26 1.23 2.5 1.95 3.68l.21.26c2.08 2.54 5.1 4.12 7.84 5.52.96.48 1.9.85 2.86 1.09 2.99.04 6.1-.02 9.08-.15 3.1-.57 6.19-1.37 9.03-2.9 1.14-.63 2.14 1.12 1.27 1.9 1.45-.26 2.69-.54 3.58-.89l-.05-3.55c-.89-1.21-1.45-2.58-.58-4.8z" fill="#323147"/><path d="M110.28 48.1c.71 1.43 1.45 2.81 2.14 4.24.6 1.26 1.24 2.5 1.95 3.68l.22.26c2.07 2.54 5.08 4.12 7.84 5.52a14 14 0 0 0 2.85 1.09c1.3.02 2.6.02 3.92 0-.1-.05 3.25-1.89 3.14-1.93-2.81-1.17-12.54 1.93-18.01-14.01a42.02 42.02 0 0 1-1.89-8l-.06-.58c-1.6.46-3.4.96-4.23 1.17 0 0 .33 2.97.83 6.2.43.82.9 1.6 1.3 2.36z" fill="#2b2b37"/><path d="M130 62.87a8 8 0 0 0 1.4-3.27 9.89 9.89 0 0 0-.16-3.75c-.24-1.13-.6-2.23-.7-3.38-.08-1.02.18-2 .57-2.94.39-.94.89-1.8 1.15-2.78.2-.75.3-1.56.23-2.34a3.42 3.42 0 0 0-.84-2.25c-.5-.52-1.58-.97-2.25-.5-.57.4-.63 1.28-.7 1.93a7.25 7.25 0 0 1-.6 2.43c-.41.9-1.02 1.7-1.56 2.53a9.12 9.12 0 0 0-1.4 3.1c-.5 2.2.12 4.3 1.25 6.2.86 1.42 1.86 2.87 2.27 4.52l.11.5c.43.02.84.02 1.23 0z" fill="#2b2b37"/><path d="M147.57 52.5c1.28-3.26 2.16-13.48 2.16-13.48.03-.28-9.11-2.27-10.11-2.49-2.34-.52-4.92-1.21-7.32-1.3.02 2.04-.58 4.94 1.36 6.4.4.27.85.47 1.24.73 2.25 1.5 1.95 4.83.24 5.9-.7.44-1.82.68-1.04 1.83.4.58 1.04 1.02 1.56 1.47.43.37.95.8 1.1 1.39.11.45.02.9-.2 1.3 1.48 3.53-6.86 8.53-18.75 4.9 1.5 1 3.1 1.85 4.62 2.63.95.48 1.9.85 2.85 1.09 3 .04 6.11-.03 9.08-.16 3.1-.56 6.2-1.36 9.03-2.9 1.15-.63 2.14 1.13 1.28 1.9 1.45-.25 2.68-.53 3.57-.88l-.04-3.55c-.93-1.2-1.5-2.56-.63-4.79z" fill="#2b2b37"/><path d="M147.57 52.5c1.28-3.26 2.16-13.48 2.16-13.48.03-.34-4.2-1.17-4.54-1.23-.59-.13-1.17-.28-1.78-.41-.22-.05-.6-.22-.82-.2-.3.04-.33.3-.48.56-.65 1.17-1.19 2.04-1.13 3.47v.15c.1 1.32.55 2.58.85 3.86.2.8.35 1.62.26 2.42-.28 2.6-2.7 4.35-3.7 6.76-.3.73-.46 1.54-.87 2.23-.78 1.3-2.3 1.93-3.3 3.05-.49.57-.86 1.26-1.47 1.7-.69.49-1.58.58-2.42.53-.67-.02-1.43-.24-2.08-.13-.24.05-4.2 1.02-9.12-1.75 2.93 5.78 11.1 3.36 14.01 2.88 3.51-.59 7.04-1.37 10.25-3.12 1.21-.67 2.27 1.39 1.06 2.06-.02.02-.07.02-.09.04 1.58-.35 2.9-.71 3.88-1.06l-.04-3.55c-.94-1.2-1.5-2.56-.63-4.79z" fill="#21212b"/><path d="M143.24 5.98c-10.36-8.3-18.26-7.5-27.53-.44-4 3.06-7.5 6.93-9.77 11.44-1.84 3.63-2.55 7.68-2.66 11.73-.04 2.08.09 4.14.22 6.2.04.8-.05 1.51.08 2.3.3 1.7.59 3.41.59 5.15 0 2.05-.26 3.98-.07 6.06.1.91.18 1.82.26 2.73.07.65.13 1.3.35 1.88.37.98 1.13 1.76 1.6 2.67.55 1.06.72 2.27 1.26 3.33.45.91.87 2.23 1.56 2.97a27.36 27.36 0 0 0 1.69 3.62c.5.9.97 1.84 1.5 2.72.01.05.06.11.08.16 4.4 1.04 11.09 3.68 14.66 3.74 1.73.02 2.23-.37 1.65-2.62l-.91.02-.03-1.43-.26-.26a7.33 7.33 0 0 0-2.16-1.58C118.9 63.23 113.07 56 110.88 49.5c-2.96-8.81-.21-21.24 4.07-26.3a18.28 18.28 0 0 1 27.85-.31c5.07 5.76 7.2 15.48.05 28.9l-.7 1.94a33.96 33.96 0 0 1-2.73 5.97 25.42 25.42 0 0 1-3.74 4.79c-.67.67-1.43 1.21-2.02 2-.3.38-.58.8-.88 1.14l.02 1.3c4.37-.09 8.75-.41 13.1-.98.58-1.12 1.23-2.23 1.73-3.4.54-1.25 1.06-2.6 1.39-3.94l.06-.23c-2.4-7.5 12.67-39.55-5.84-54.4z" fill="#464558"/><path d="M111.7 17.73a8.35 8.35 0 0 0 6.68-4.09c1.75-3.14.47-6.24-1.6-8.88l-1.07.78a34.94 34.94 0 0 0-8.9 9.83c1.4 1.28 2.84 2.47 4.9 2.36z" fill="#575770"/><path d="M109.6 57.75a9.18 9.18 0 0 1-.21 3.25c-.09.28-.22.57-.35.83.48 1.34 1.1 2.6 1.76 3.83.5.9.97 1.84 1.49 2.73l.09.15c4.4 1.04 11.09 3.68 14.66 3.75 1.28.02 1.88-.2 1.88-1.24-11.45-6.39-17.17-5-19.31-13.3z" fill="#323147"/><path d="M146.96 65.31a49.1 49.1 0 0 0 1.52-3.44c.21-.54.34-1.13.52-1.69-1.71-6.7 8.46-30.32.56-46.34a20.5 20.5 0 0 1-.8 8.18 26.48 26.48 0 0 1-2.82 5.98c2.39 5.78 2.23 13.77-3.11 23.84l-.7 1.93a33.96 33.96 0 0 1-2.73 5.98 25.39 25.39 0 0 1-3.74 4.78c-.67.67-1.43 1.22-2.02 2-.47.65-.93 1.32-1.58 1.77v.67c4.55-.06 9.1-.37 13.6-.97.46-.89.87-1.78 1.3-2.69zM141.48 18.77a6.26 6.26 0 0 0-2.3-4.11 5.98 5.98 0 0 0-3.5-1.21c-2.58-.13-5.09.71-7.65.9-1.45.11-2.85-.21-4.3-.34a5.38 5.38 0 0 0-4.58 1.54c-1.23 1.23-2.14 2.81-3.2 4.22-1.04 1.36-2.3 2.47-3.44 3.7a17.16 17.16 0 0 0-2.82 3.84 12.1 12.1 0 0 0-.89 2.34c-.23.93-.36 1.9-.58 2.83-.46 1.95-1.13 3.84-1.4 5.8-.14.96-.14 1.89-.14 2.84.78 4.92 1.82 9.44 2.43 13.06.3.56.63 1.1.95 1.65.89 1.47 1.86 2.92 2.38 4.61a8.2 8.2 0 0 1 .07 4.9 7.29 7.29 0 0 1-.98 1.96h.54l.03 1.17c4.13.94 9.44 3.73 13.31 3.77 1.22.02 2.5-.17 3.2-1.08.18-.22.25-.82.12-1.4l-1.02.01-.02-1.53c-.07-.07-.13-.16-.22-.22a7.33 7.33 0 0 0-2.16-1.58c-6.46-3.14-12.28-10.37-14.47-16.87-2.97-8.82-.22-21.25 4.07-26.31 6.76-8 18.47-8.8 26.14-2a4.7 4.7 0 0 0 .43-2.49z" fill="#323147" opacity=".32"/><path d="M110.78 30.3c-.26.9-.24 1.84-.29 2.77l-.02.5a31.5 31.5 0 0 1 2.25-6.78c-.73 1.12-1.55 2.18-1.94 3.5z" fill="#464558"/><path d="M147.48 65.38c.54-1.39 1.15-2.75 1.58-4.18l.13-.41-.1-.29c-1.26-3.66 1.86-13.42 3.07-24.19-.93 4.94-5.22 18.98-5.3 19.17-4.36 10.92-9.4 12.06-14 12.06-.3.35-.6.67-1.01.9-.33.19-3.08 2.57-3.4 2.76 5.21 0 12.4-2.18 17.97-3.25.39-.82.74-1.7 1.06-2.57z" fill="#323147"/><path d="M114.95 23.21a18.31 18.31 0 0 1 21.66-4.93c-.59-.4-1.17-.78-1.69-1.26-.37-.35-.63-.41-1.1-.5a1.86 1.86 0 0 1-.59-.2c-.65-.32-1.28-.69-1.97-.9-.3-.09-.6-.18-.93-.24-.04 0-.09 0-.13-.02-.91-.09-1.82-.24-2.73-.26-.93-.05-1.84.21-2.77.24-1.02.04-1.89.04-2.75.69-.7.52-1.32 1.08-2.04 1.54-1.5.95-3.03 1.8-4.2 3.29-.54.7-1 1.5-1.32 2.34-.09.2-.8 1.95-1.34 2.57-7.5 8.45-4.79 28.52 3.38 38.9 3.42 4.37 7.2 6.23 12.58 6.08.15-1.06-1.13-2.2-1.4-2.53a8.4 8.4 0 0 0-2.4-1.73c-6.4-3.16-12.16-10.35-14.35-16.8-2.58-7.63-.84-17.98 2.45-23.92.5-.67 1.3-1.95 1.64-2.36z" fill="#323147"/><path d="M128.62 14.44a.37.37 0 0 1-.35-.24c-.52-1.32-.32-2.75-.15-4.11.13-.95.24-1.93.13-2.84-.04-.32-.1-.67-.2-1.02a9.07 9.07 0 0 1-.17-.82c-.26-1.5-.06-3.05.11-4.44.02-.24.22-.39.41-.34.2.02.35.23.33.47-.18 1.39-.35 2.8-.11 4.16.04.26.1.5.15.76.09.34.17.71.22 1.1.13 1.02 0 2.06-.13 3.08-.18 1.32-.33 2.55.1 3.68.1.22 0 .45-.19.54a.42.42 0 0 1-.15.02z" fill="#2b2b37" opacity=".06"/><path d="M142.5 22.28a14.71 14.71 0 0 0-2.45-1.93c.98.74 1.9 1.6 2.75 2.58 5.07 5.76 7.17 15.46.05 28.9-.24.64-.48 1.29-.7 1.94a33.96 33.96 0 0 1-2.73 5.98c-.43.73-.9 1.43-1.42 2.1 4.5-4.23 8.31-9.3 10.2-15.64 2.83-9.44.04-18.34-5.7-23.93zM144.93 57.45c-.5.17-.8.67-1.04 1.13a4.2 4.2 0 0 0-.67 1.95c0 .62.86.32 1.56-.78.34-.57.69-1.06.77-1.74.07-.52-.23-.69-.62-.56z" fill="#575770"/><path d="M151.18 46.38c-.17-1.4-.13-2.81.03-4.22h-.07l-.86 4.6a85.48 85.48 0 0 0-2.56 9c-.2.85-.37 1.7-.65 2.51-.93 2.84-2.82 5.11-4.68 7.32.3.37.85.29 1.28.13a11.48 11.48 0 0 0 4.46-2.81c.43-.43.87-.93 1.08-1.54.5-1.32.05-2.86.37-4.24.24-1.04.89-1.89 1.34-2.84.59-1.2.87-2.56.83-3.92-.05-1.36-.41-2.66-.57-3.99z" fill="#323147"/><path d="M115.2 63.06a65.35 65.35 0 0 1-2.46-4.74c-.21-.41-.43-.85-.69-1.26l-.32-.45a7.64 7.64 0 0 1-1.3-1.35c-1.3-1.77-2.45-3.8-2.73-6.02-.17-1.25-.15-2.55-.26-3.8-.1-1.33-.15-2.65 0-3.97.2-1.69.34-3.4.41-5.11-.04-.28-.13-.56-.22-.85-.08-.26-.43-2.27-.52-2.27h-1.27c.17 1.52.43 3.03.56 4.48.22 2.54.28 5.11-.1 7.65-.23 1.34-.55 2.75-.1 4 .18.5.46.91.72 1.37a13.08 13.08 0 0 1 1.67 7.19c-.05.76-.4 1.82-.22 2.55.6 2.78 6.9 5.4 8.51 5.29-.6-.85-1.17-1.78-1.69-2.7z" fill="#464558"/><path d="M112.75 58.34c-.24-.43-.44-.87-.7-1.28-.3-.5-.7-.89-1.1-1.32-.05-.04-.09-.1-.13-.15l.02.13c.54 2.92 1.2 6.26 2.53 9.03a8.5 8.5 0 0 0 3.53 1.04 50.89 50.89 0 0 1-4.15-7.45z" fill="#323147" opacity=".32"/><path d="M118.27 67.48a45.5 45.5 0 0 1-8.93-10.4c-2.33-3.94-3.85-8.44-3.79-13.03l3.1 7.27c1.56 3.7 3.2 7.5 6.07 10.31.84.85 1.8 1.58 2.53 2.51.74.96 1.23 2.17 1.02 3.34zM132.84 70.08c3.62-2.82 7-5.98 9.62-9.75 2.62-3.77 5.26-8.83 5.52-13.43-1.62 4.66-4.05 11.48-11.2 17.59-.9.78-1.9 1.45-2.7 2.34-.78.89-1.39 2.06-1.24 3.25z" fill="#323147"/><path d="M105.86 67.18a13.53 13.53 0 0 0 1.86 3.48c.78 1.15 1.56 2.34 2.64 3.19 1.09.86 2.4 1.34 3.73 1.75a41.4 41.4 0 0 0 9.6 1.78c2.94.19 5.88.06 8.8.5 2.21.32 4.44.95 6.68.73a15.1 15.1 0 0 0 4.4-1.3c2.29-1.02 4.56-2.3 6.18-4.29 1.6-1.99 2.45-4.8 1.6-7.25-.19-.59-.62-1.24-1.23-1.2-.37.03-.67.33-.95.6-4.44 4.4-10.05 7.83-16.18 8.37a36.1 36.1 0 0 1-4.59.02c-1.15-.04-2.3-.08-3.42-.34-1.56-.37-2.99-1.15-4.5-1.63-1.56-.47-3.23-.62-4.77-1.2-2.94-1.14-5.09-3.76-7.1-6.25-.8-1-1.02-2.08-1.58-3.1-1.43 1.5-1.76 4.19-1.17 6.14z" fill="#75a152"/><path d="M151.34 65.75c-.2-.59-.63-1.24-1.24-1.2-.37.03-.67.33-.95.59-4.44 4.42-10.05 7.84-16.18 8.38a36.1 36.1 0 0 1-4.59.02c-1.15-.04-2.3-.08-3.42-.34-1.1-.26-2.14-.74-3.2-1.15.88 1.64 1.2 3.61.1 5.13.6.07 1.2.13 1.8.15 2.94.2 5.89.07 8.81.5 2.21.32 4.44.95 6.67.74 1.52-.16 3-.7 4.4-1.3 2.3-1.02 4.57-2.3 6.2-4.3 1.6-1.94 2.44-4.78 1.6-7.22z" fill="#568040" opacity=".37"/><path d="M151.34 65.75c-.2-.59-.63-1.24-1.24-1.2-.37.03-.67.33-.95.59-4.44 4.42-10.05 7.84-16.18 8.38-1.54.13-3.07.09-4.59.02-1.15-.04-2.3-.08-3.42-.34-1.56-.37-2.99-1.15-4.5-1.63-1.57-.48-3.23-.63-4.77-1.21-2.94-1.13-5.09-3.75-7.1-6.24-.8-1-1.02-2.08-1.58-3.1-.2.22-.37.44-.55.7.26 1.69 1.39 3.2 2.08 4.7.85 1.88 1.37 3.92 2.75 5.48a7.7 7.7 0 0 0 4.72 2.46c.91.13 1.84.16 2.75.29.9.13 1.76.36 2.65.52.97.15 1.95.17 2.92.32.98.13 1.93.3 2.9.41.91.11 1.8.22 2.69.44 1.02.23 2.01.52 3.05.6 1.8.15 3.75.24 5.52-.1.98-.2 1.93-.55 2.9-.79.44-.1.9-.17 1.33-.3.37-.1.71-.28 1.08-.35.7-.1 1.28.26 1.73.85a13.4 13.4 0 0 0 4.16-3.3c1.65-1.92 2.49-4.76 1.65-7.2z" fill="#568040"/><path d="M110.82 68.7c.32.94.67 1.94 1.34 2.7a5.83 5.83 0 0 0 2.9 1.54c2.12.54 4.4.58 6.54.82 1.89.2 3.68.1 5.48-.24-.71-.04-1.43-.13-2.12-.28-1.56-.37-2.99-1.15-4.5-1.62-1.56-.48-3.23-.63-4.77-1.22-2.4-.9-4.27-2.83-5.98-4.87.46 1.02.76 2.1 1.1 3.16zM131.02 74.95c1.28.52 2.64.58 4 .5 1.37-.09 2.78-.18 4.12-.44 1.24-.23 2.43-.54 3.66-.71 1.26-.2 2.5-.35 3.64-.9a9.03 9.03 0 0 0 2.67-1.76c.84-.9 1.1-2.1 1.27-3.3.18-1.2-.04-2.5.11-3.7a.63.63 0 0 0-.39-.06c-.37.02-.67.32-.95.58-4.44 4.42-10.05 7.84-16.18 8.38-1.4.13-2.81.09-4.24.05.73.5 1.47 1.03 2.3 1.36z" fill="#3e5c2e"/><path d="M151.49 57c-.87-.02-.87-.93-1.09-.07-4.24 17.48-27.3 13.06-29.45 12.71-6.95-1.12-10.09-4.4-11.58-7.55a2.1 2.1 0 0 1-.48-.5 5.78 5.78 0 0 1-.76-1.82c-.34-.54-.52-1.17-.8-1.78-.34-.71-.78-1.5-1.08-2.27-1.04 3.75.52 15.48 17.63 18.97 13.94 2.86 29.1-3.34 27.6-17.7z" fill="#75a152"/><path d="M151.49 57c-.87-.02-.87-.93-1.09-.07-4.24 17.48-27.3 13.06-29.45 12.71-6.2-1-9.35-3.7-11.04-6.51a2.91 2.91 0 0 1-.85-.78c-.56-.87-1-1.8-1.32-2.78a18.7 18.7 0 0 1-.56-1.86c-.35-.63-.67-1.36-.93-2.06-.98 3.88.7 15.57 17.63 19.04 13.94 2.86 29.1-3.34 27.6-17.7z" fill="#75a152"/><path d="M107.98 62.26a11 11 0 0 1-.56-2.21c-.13-.52-.3-1.2-.7-1.6a.47.47 0 0 0-.17-.11c-.1-.02-.22.04-.28.15s-.07.22-.07.35c.03.63.44 1.17.65 1.75.18.48.24 1 .35 1.52.11.5.24 1.02.56 1.43.1.1.22.21.35.2.15-.03.24-.18.26-.33 0-.15-.04-.3-.1-.46-.12-.21-.2-.45-.29-.7zM110.67 67.33c0 .06 0 .13.02.17.04.13.2.2.32.24.09.02.18.06.24.06.09 0 .17-.02.22-.1.04-.05.04-.11.04-.18a.83.83 0 0 0-.1-.45c-.29-.35-.7-.15-.74.26z" fill="#aed888"/><path d="M131.72 71.57c-.33 0-.68.02-1 .11-1.5.35-3.47.7-4.16 1.67-.28.39-.39 1.08.28 1.28.7.19 1.41-.29 1.89-.85.5-.58.54-1.15 4.63-.9z" fill="#568040"/><path d="M151.49 57c-.87-.02-.87-.93-1.09-.07-3.7 15.23-21.65 13.84-27.65 13 1.6.54 3.23.93 4.79 1.62 1.36.63 2.81 1.34 3.79 2.56.3.36.52.77.67 1.2 11.06-.47 20.68-6.75 19.49-18.31z" fill="#568040" opacity=".37"/><path d="M114.72 69.7c3.14 1.96 6.95 2.09 10.5 2.35 8.1.63 19.9 3.46 22.67-5.57.18-.6 4.44-1.43 3.62-9.5-.87-.03-.87-.94-1.08-.07-4.25 17.48-27.31 13.06-29.46 12.71-6-.97-9.16-3.53-10.87-6.26.8 2.62 2.45 4.98 4.62 6.35z" fill="#568040"/><path d="M119.26 69.75c1.54.28 3.1.3 4.64.33-1.5-.18-2.56-.37-2.95-.44-3.7-.6-6.3-1.8-8.18-3.27a12.27 12.27 0 0 0 6.5 3.38zM131.17 70.53c3.73.37 7.52.46 11.03-1.15a8.6 8.6 0 0 0 2.34-1.49c.6-.58 1-1.34 1.66-1.88 1.24-1 2.75-1.39 3.62-2.84.97-1.65.1-3.51-.35-5.4-.58 8.2-12.25 12.55-19.79 12.63l1.5.13z" fill="#3e5c2e"/><path d="M106.68 66.37c.1.16.26.26.35.42.08.17.08.39.1.6.03.22.07.44.24.54.11.07.24.09.37.09.04 0 .09 0 .13-.02a.26.26 0 0 0 .11-.11c.32-.6-.1-1.56-.5-2.01-.15-.2-.56-.65-.82-.5-.3.15-.15.78.02 1z" fill="#aed888"/><path d="M128.14 71.94c-.65 0-1.27.09-1.9.24-.65.15-1.32.4-1.71.97a.8.8 0 0 0-.11.24c-.05.24.15.48.37.54.21.07.45 0 .67-.08.82-.33 1.5-1 2.36-1.1.34-.05.71.01 1.06.03.34.03.73.03 1.04-.15.17-.08.5-.34.5-.56-.03-.24-.35-.13-.48-.13-.6.04-1.21 0-1.8 0z" fill="#568040"/></svg>