<svg width="120" height="120" viewBox="0 0 120 120" fill="none" xmlns="http://www.w3.org/2000/svg">
    <rect y="24.043" width="104.865" height="76.5394" rx="3.35043" fill="#FFCC47"/>
    <ellipse cx="57.4862" cy="110.097" rx="57.4862" ry="1.90291" fill="#D8D8D8"/>
    <path fill-rule="evenodd" clip-rule="evenodd" d="M14.3002 73.8185C35.3603 73.8185 52.4329 56.676 52.4329 35.5296C52.4329 31.5276 51.8214 27.6691 50.6872 24.043H101.515C103.365 24.043 104.865 25.543 104.865 27.3934V97.2704C104.865 99.1208 103.365 100.621 101.515 100.621H3.35042C1.50003 100.621 0 99.1208 0 97.2704V71.0351C4.41603 72.8301 9.24315 73.8185 14.3002 73.8185Z" fill="#F7B711"/>
    <path fill-rule="evenodd" clip-rule="evenodd" d="M36.916 100.621C63.7125 91.235 82.9383 65.637 82.9383 35.5302C82.9383 31.6165 82.6134 27.779 81.9893 24.0435H101.514C103.365 24.0435 104.865 25.5435 104.865 27.3939V97.2709C104.865 99.1213 103.365 100.621 101.514 100.621H36.916Z" fill="#E5A500"/>
    <path opacity="0.21" fill-rule="evenodd" clip-rule="evenodd" d="M0.584925 25.5014C0.215901 26.0398 0 26.6914 0 27.3934V97.2319C0 99.0823 1.50003 100.582 3.35042 100.582H101.515C103.365 100.582 104.865 99.0823 104.865 97.2319V27.3934C104.865 26.8802 104.75 26.394 104.543 25.9592L54.9298 65.1148C53.7127 66.0753 51.9956 66.0753 50.7785 65.1148L0.584925 25.5014ZM3.31829 24.0431L101.548 24.0431C101.537 24.043 101.526 24.043 101.515 24.043H3.35043C3.3397 24.043 3.32899 24.043 3.31829 24.0431Z" fill="url(#paint0_linear_5009_31913)"/>
    <path d="M114.972 30.386C114.972 39.9613 107.242 47.7236 97.7054 47.7236C88.1691 47.7236 80.4385 39.9613 80.4385 30.386C80.4385 20.8107 88.1691 13.0483 97.7054 13.0483C107.242 13.0483 114.972 20.8107 114.972 30.386Z" fill="#D7283A"/>
    <path d="M101.565 30.2136C101.565 32.4442 99.7639 34.2525 97.5424 34.2525C95.3209 34.2525 93.52 32.4442 93.52 30.2136C93.52 27.9831 95.3209 26.1748 97.5424 26.1748C99.7639 26.1748 101.565 27.9831 101.565 30.2136Z" fill="#F3F3F3"/>
    <path fill-rule="evenodd" clip-rule="evenodd" d="M120 30.3862C120 42.7498 110.018 52.7724 97.705 52.7724C85.3919 52.7724 75.4102 42.7498 75.4102 30.3862C75.4102 18.0226 85.3919 8 97.705 8C110.018 8 120 18.0226 120 30.3862ZM97.705 47.7238C107.241 47.7238 114.972 39.9615 114.972 30.3862C114.972 20.8109 107.241 13.0485 97.705 13.0485C88.1688 13.0485 80.4381 20.8109 80.4381 30.3862C80.4381 39.9615 88.1688 47.7238 97.705 47.7238Z" fill="white"/>
    <defs>
        <linearGradient id="paint0_linear_5009_31913" x1="52.643" y1="23.8425" x2="52.643" y2="100.582" gradientUnits="userSpaceOnUse">
            <stop stop-color="#2B1F00"/>
            <stop offset="1" stop-color="#2B1F00" stop-opacity="0"/>
        </linearGradient>
    </defs>
</svg>
