<svg fill="none" height="175" viewBox="0 0 257 175" width="257" xmlns="http://www.w3.org/2000/svg"><path d="m100.121 63.9267c-.065-.4981-.1517-1.0179-.4765-1.386-.4981-.5847-1.3427-.6064-2.1007-.5631-7.8394.4981-16.675.2599-23.8865 23.0853-1.2993 4.0929-2.5554 8.2076-3.8331 12.3222-2.5337 8.2289-5.0242 16.4589-7.4929 24.6879-.5414 1.754-1.0612 3.508-1.6026 5.262-.2165.715-.4331 1.43-.8446 2.036-.4981.736-1.256 1.234-1.9923 1.667-3.1185 1.841-6.6051 2.989-10.1567 3.357-.563.065-1.1694.108-1.6025.498-.5631.498-2.8369-7.016-2.8803-6.237-1.5808 28.456 17 50.091 29.2356 42.944 1.4943-.866 2.7503-2.144 3.8981-3.487 8.4241-9.788 12.3439-22.912 16.0254-35.58 7.1681-24.601 9.0736-58.7745 7.7096-68.6063z" fill="#464558"/><path d="m58.8872 169.803c4.5694 3.335 9.442 4.223 13.6 1.797 1.4942-.866 2.7503-2.144 3.898-3.486 6.5834-7.667 10.4382-17.368 13.5567-27.287-6.8217 13.817-19.0356 32.159-31.0547 28.976z" fill="#2b2b37" opacity=".29"/><path d="m100.121 63.9267c-.065-.4981-.1516-1.0179-.4764-1.386-.4981-.5847-1.3427-.6064-2.1007-.5631-7.8394.4981-16.6751.2599-23.8865 23.0853-1.2994 4.0929-2.5554 8.2076-3.8331 12.3222-2.5338 8.2289-5.0242 16.4589-7.493 24.6879-.5414 1.754-1.0611 3.508-1.6025 5.262-.2166.715-.4331 1.43-.8446 2.036-.4981.736-1.256 1.234-1.9924 1.667-3.1184 1.841-6.605 2.989-10.1566 3.357-.563.065-1.1694.108-1.6025.498-.5631.498-2.837-7.016-2.8803-6.237-.1949 3.595-.0866 7.082.3032 10.438 1.7541.39 3.465.975 5.1541 1.625 2.2956.909 4.5261 1.949 6.6267 3.248 3.9631 2.426 7.493 5.696 9.6369 9.854 1.1045 2.143 1.8625 4.461 2.209 6.864.3898 2.686.2165 5.371-.4765 7.992-.3681 1.386-.8446 2.772-1.4076 4.093 2.4904.476 4.9159.129 7.1465-1.17 1.4942-.866 2.7503-2.144 3.898-3.487 8.4242-9.788 12.3439-22.912 16.0254-35.58 7.2115-24.601 9.1169-58.7745 7.7529-68.6063z" fill="#2b2b37" opacity=".29"/><path d="m97.7595 98.4246c-2.5554 4.3094-5.1975 8.7494-8.8573 12.1924-3.7898 3.573-8.7707 5.977-14.0331 6.172-3.5516.13-7.0598-.585-10.3732-1.863-.2382.802-.4764 1.603-.7147 2.404.065-.195 5.0675 1.971 5.5656 2.144 1.9491.737 3.5733 1.213 4.8293 3.054 1.1045 1.624 1.6026 3.595 2.014 5.5.1083.542.2382 1.083.5847 1.516s.8663.672 1.321.975c2.1007 1.407 2.7287 4.179 3.0752 6.691.6713 5.025 1.7325 10.006 1.8624 15.073.0433 2.036.0217 4.093-.1083 6.129 4.2663-7.991 6.9516-17.065 9.5287-25.923 3.27-11.239 5.4356-24.471 6.7133-36.4465-.4981.8229-.9529 1.6025-1.4076 2.3821z" fill="#2b2b37" opacity=".29"/><path d="m83.2069 124.455c.4115-.715.4765-1.689-.2598-2.231-.5631-.411-1.1694-.325-1.7758-.584-.6497-.26-1.2127-.65-1.8408-.932-1.321-.606-2.9885-.844-4.4178-.454-1.0395.259-1.8407.887-2.6637 1.537 1.7758-.065 3.5516.303 5.2408.953 1.256.498 2.4904 1.083 3.6598 1.776.693.433 1.5159.909 2.0573-.065z" fill="#2b2b37" opacity=".29"/><path d="m77.4248 126.08c.5847.454 1.191.822 1.6458 1.407.3682.433.6713.91.9529 1.408.5197.909 1.2777 2.62 2.5337 2.642 1.2128.021 1.8408-2.057 1.3427-2.989-.4548-.823-1.4293-1.191-2.2089-1.602-.8663-.455-1.8191-.953-2.1007-1.971-.1949-.671-.2382-1.343-.7579-1.862-.4548-.455-.9745-.823-1.5592-1.105-1.4293-.649-2.9886-.758-4.5261-.974.7146.476 1.2993 1.039 1.8624 1.732.8662 1.126 1.6675 2.404 2.8153 3.314z" fill="#2b2b37" opacity=".29"/><path d="m73.1584 121.358c-.7579-.715-1.4509-.801-2.3605-1.278-1.0395-.563-2.1872-.931-3.2917-1.364-1.2344-.498-2.4688-.996-3.7465-1.364.2382-.802.4765-1.603.7147-2.404 1.6675.628 3.3783 1.126 5.1324 1.451-.498-.455-.9961-.888-1.5159-1.321-.8879-.737-2.1872-1.451-3.1184-.758-.4332.325-.6281.866-.8013 1.386-.6497 2.1-1.2127 4.223-1.8408 6.323-.5414 1.754-1.0611 3.508-1.6025 5.263-.2166.714-.4331 1.429-.8446 2.035-.4981.737-1.256 1.235-1.9923 1.668-3.1185 1.841-6.6051 2.988-10.1567 3.356-.563.065-1.1694.109-1.6025.499-.5631.498-2.837-7.017-2.8803-6.237-.1949 3.248-.1082 6.388.1949 9.42 1.1911.108 2.4038.108 3.5949.043 2.4688-.108 4.851-.541 7.2764-.844 2.2523-.282 3.8331-.975 5.8904-1.928 2.4472-1.126 5.0892-1.559 7.7745-1.169 2.209.325 3.4433-.347 4.7427-2.317.8446-1.3 1.386-2.772 1.9057-4.223.3898-1.105.8229-1.473.758-2.621-.5198-1.559-1.4726-2.923-2.2306-3.616z" fill="#2b2b37" opacity=".29"/><path d="m99.1672 79.8009c-.6713.5847-1.3643 1.1261-2.0573 1.6459-.4331.3248-.9312.628-1.386.9961-.1516.6497-.3465 1.2777-.563 1.9058-.0866.2165-.1733.4331-.2599.6496.2166.3249.4548.6281.693.9313.0866.1082-.065.2598-.1516.1515-.2165-.2815-.4331-.563-.6497-.8445-.4764 1.0828-1.0828 2.1006-1.7541 3.0751-1.6892 2.4255-3.7465 4.5911-5.1758 7.1898-.6713 1.1911-1.256 2.4904-1.4293 3.8548-.2165 1.5587.1949 3.1187.7363 4.5697.5198 1.429 1.1478 2.815 1.4943 4.288.3465 1.45.5847 2.945.693 4.439.1083 1.473.1299 2.989-.2382 4.418-.3898 1.472-1.0395 2.88-1.321 4.374-.6281 3.335.563 6.757.8229 10.07.2599 3.422-.2382 6.887-.7363 10.265-.4548 3.162-.8013 6.324-1.6242 9.421-.0217.086-.0433.151-.065.238 2.4904-6.085 4.3962-12.539 6.2369-18.884 4.9809-17.13 7.428-38.9159 7.9698-53.8802-.4118.4115-.845.7796-1.2348 1.1261z" fill="#2b2b37" opacity=".29"/><path d="m100.12 63.9267c-.065-.4981-.1515-1.0179-.4763-1.386-.4981-.5847-1.3427-.6064-2.1006-.5631-.9096.065-1.8625.1299-2.837.2382.4548 1.3644.4331 2.9236.4115 4.3096-.0217.9745-.0433 1.9707-.2166 2.9235-.2165 1.1261-.6063 2.2089-.9312 3.3134-.3465 1.2777-.5414 2.5121-.2599 3.8331.2166 1.0178.3249 2.0357.2816 3.0968-.0433 1.1261-.2816 2.2955.0216 3.4.1516.6063.4331 1.1477.758 1.6675.1083-.2815.2165-.5631.3032-.8446.1299-.3898.2382-.7796.3465-1.1911-.2383.2382-.4115.5198-.5198.8446-.0433.1299-.2599.0866-.2165-.065.1516-.4764.4547-.8445.8229-1.1477.2599-1.0179.4764-2.0573.7363-3.0752.0433-.1299.2382-.0866.2166.065-.2383.9312-.4332 1.8624-.6497 2.7936.2165-.1732.4547-.3248.6713-.4764.7147-.5198 1.4076-1.0395 2.1006-1.6026.6497-.5414 1.2994-1.1044 1.8625-1.7541.195-6.3668.087-11.456-.325-14.3795z" fill="#2b2b37" opacity=".29"/><path d="m71.3178 99.3993c2.5121-.4331 4.9375-1.4942 6.4101-3.6815 1.6026-2.3822 1.9058-5.414 1.7975-8.2076-.065-1.386-.2166-2.7503-.4331-4.1146-.2166-1.2777-.6497-2.5121-1.1478-3.7032-.3032-.7796-.6713-1.5809-1.0178-2.4038-1.3211 2.3821-2.4472 5.3057-3.2268 7.7961-1.2993 4.093-2.5554 8.2076-3.8331 12.3223-.2382.7579-.4548 1.4942-.693 2.2522.7147-.065 1.4293-.1516 2.144-.2599z" fill="#464558"/><path d="m89.5088 63.1039c-2.7937.8879-5.6089 2.6203-8.3159 6.1069 3.3133 1.9274 8.1859.2383 10.763-2.2089 1.3427-1.2777 2.1223-2.9452 2.4255-4.7426-1.6026.1732-3.2701.4331-4.8726.8446z" fill="#464558"/><path d="m51.2204 83.1787c-.3032.1733-.4332.5198-.5848.8229-.0433.4115-.0216.823-.1299 1.1911-.2166.8229-.4981 1.6242-.9095 2.3605-.8879 1.6026-2.144 2.9885-3.5083 4.2229-1.386 1.2561-2.9452 2.4038-4.6127 3.2917-.693.3682-1.451.6714-2.2306.7363-.5197.0434-1.0178-.2382-1.5376-.2815.6281 10.8934 1.5376 22.8254 4.6561 40.3454 11.7375 4.851 30.2317-12.041 30.8164-15.636.5631-3.292-16.6534-31.7692-21.9591-37.0533z" fill="#575771"/><path d="m51.2204 83.1787c-.3032.1733-.4332.5198-.5848.8229-.0433.4115-.0216.823-.1299 1.1911-.2166.8229-.4981 1.6242-.9095 2.3605-.8879 1.6026-2.144 2.9885-3.5083 4.2229-1.386 1.2561-2.9452 2.4038-4.6127 3.2917-.693.3682-1.451.6714-2.2306.7363-.5197.0434-1.0178-.2382-1.5376-.2815.0433.9096.1083 1.8191.1733 2.7287 3.3567.1082 6.6484 1.4942 8.5974 4.3747 2.5337 3.746 2.1006 8.619.2815 12.582-1.6025 3.443-3.963 6.41-6.1936 9.442.4981 3.486 1.1045 7.211 1.8191 11.218 11.7376 4.851 30.2317-12.041 30.8165-15.636.5414-3.292-16.6751-31.7692-21.9808-37.0533z" fill="#2b2b37" opacity=".25"/><path d="m40.9339 95.7608c2.3605.5198 4.7427 1.4077 6.7567 2.7503 1.4942.9746 2.7286 2.2959 4.1363 3.3999 1.321 1.04 3.3133 2.62 5.1324 2.144 1.0179-.26 1.6675-1.126 2.1007-2.036.5847-1.234.8229-2.5983.8229-3.9626 0-1.1262-.1083-2.2306-.3032-3.3351-3.4-5.2624-6.5834-9.7451-8.3809-11.5426-.3031.1733-.4331.5198-.5847.8229-.0433.4115-.0216.823-.1299 1.1911-.2166.8229-.4981 1.6242-.9096 2.3605-.8878 1.6026-2.1439 2.9885-3.5082 4.2229-1.386 1.2561-2.9452 2.4038-4.6127 3.2917-.4115.2166-.8446.4115-1.2994.5631.2815.0216.5414.0866.7796.1299z" fill="#2b2b37" opacity=".25"/><path d="m50.2461 83.374s.758-.4981 1.0395-.1083c.0866.1083.0216.9962.0216.9962l-13.1018 11.8891s-.6064-.2598-.4981-.9095c.1949-1.1261 12.5388-11.8675 12.5388-11.8675z" fill="#2b2b37"/><path d="m69.368 114.797c-14.4445-1.603-27.2432-11.067-28.9973-12.128-.2166-.13-.5198-.065-.6064.174-.2166.519 1.6675 1.667 2.3172 2.1 1.1911.823 5.6739 3.227 8.1426 4.548 4.3529 2.295 11.1745 5.219 19.0789 6.107.13.022.2599-.043.3465-.13.0433-.065.0867-.13.1083-.217-.0216-.238-.1732-.433-.3898-.454z" fill="#2b2b37"/><path d="m47.3226 127.53c-.1083.13-.3032.173-.4764.087-.1949-.108-.2816-.347-.1949-.542.0866-.173 8.8789-21.027 9.5719-32.1586.0216-.2166.2165-.3898.4331-.3682.2166.0217.3898.2166.3682.4331-.7147 11.2827-9.572 32.2887-9.6586 32.4627 0 .021-.0217.043-.0433.086z" fill="#2b2b37"/><path d="m51.3071 84.2617c-1.1478-1.8191-2.9669-7.2764-5.0458-10.9579-2.144-3.8114-6.4752-5.5656-10.5681-6.4101-.9962-.195-2.014-.3682-2.9236-.8663-.9529-.4981-1.7108-1.321-2.642-1.8841-.1949-.1082-.4331-.2165-.6281-.1299-.1949.0866-.3031.3032-.3681.5198-.5847 1.7324.2166 3.7464 1.5159 4.9808 1.451 1.3644 3.4 1.9491 5.2408 2.4688.3898.1083.7363.3898.9095.8013.3465.7796-.3032 1.2127-.6713 1.6025-.8879.9529-2.0573 1.5809-3.2917 1.8624-9.572 2.1656-13.4267.1083-16.0904-.7363-1.7975-.563-3.6166-.9961-5.4357-1.4076-1.2344-.2815-2.53371-.5414-3.7681-.2166-1.23439.3249-2.38216 1.4077-2.42547 2.7503 0 .1949.02166.4332.17325.5631.12994.1083.30318.1083.45478.1083 2.77196.0866 4.1796.9961 6.82164 1.9274-.5414-.13-6.8433-1.3644-8.79234-.7364-1.34267.4332-2.5554 1.6892-2.51209 3.1835 0 .2165.04331.4764.21656.6063.15159.1083.32484.1083.49809.1083 2.42547-.0433 4.76431.7796 7.10315 1.5593-.60636-.1083-1.21273-.2166-1.79744-.3249-1.38598-.2382-2.83693-.4331-4.1796 0s-2.555406 1.6892-2.53375 3.2051c0 .2382.043312.4764.21656.6064.151592.1082.32484.1082.49809.1082 3.2917-.0649 6.41016 1.4726 9.59357 2.2956.693.1949 1.4077.3248 2.1223.4764-1.1044-.1083-2.1872-.1732-3.2917-.2382-1.27771-.065-2.59872-.1083-3.76814.4115-1.16942.5197-2.14394 1.7757-1.99235 3.1184.02166.1949.08662.4331.25987.5198.12994.0866.30319.0649.45478.0433 2.94521-.3898 5.89044.6713 8.83564 1.1261 4.8293.7146 15.6573 1.6242 23.7566-.0866.7363-.1516.8662.6713.9528.9528.0434.2382 13.8166-.9528 13.1019-11.9108z" fill="#d58500"/><path d="m51.2855 84.2616c-1.1478-1.8191-2.9669-7.2764-5.0458-10.9579-.9529-1.6892-2.3389-2.9885-3.9414-3.963-2.0573 1.3426-4.786 1.8407-7.1032 1.5375-2.0356-.2815-3.8547-1.1261-5.414-2.3172.2382.3465.5198.693.8013.9746 1.451 1.3643 3.4 1.949 5.2407 2.4687.3899.1083.7363.3898.9096.8013.3465.7796-.3032 1.2127-.6713 1.6025-.8879.9529-2.0574 1.5809-3.2917 1.8625-4.0281.9095-7.0382 1.0828-9.3771.8878-.9312.7147-2.2522 1.0395-3.2917.7797-.7579-.1949-3.2917-1.0179-2.6853-2.1656-.2599-.0867-.4981-.1733-.7363-.2382-.0866-.0217-.1949-.065-.2816-.0867-1.5159.9312-3.27 1.4726-5.0241 1.7108-2.07901.2599-4.28792.1516-6.32358-.498v.0216c0 .1949.02166.4331.17325.5631.12994.1083.30318.1083.45477.1083 2.77197.0866 4.17961.9961 6.82166 1.9273-.1516-.0433-.758-.1732-1.6242-.3031 0 .6713-1.16945 1.1477-1.64588 1.3859-.88789.4332-1.79744.823-2.77196 1.0179-1.66751.3248-3.52992.3898-5.2624.0216 0 .1083-.02166.1949-.02166.3032 0 .2166.04332.4764.21656.6064.1516.1083.32484.1083.49809.1083 2.42547-.0434 4.76431.7796 7.10316 1.5592-.21656-.0433-.43312-.0866-.64968-.1083.5414.8013-2.29553 1.6892-2.707 1.8191-.95286.3248-1.90572.628-2.85858.9095-.71465.195-1.47261.4332-2.252224.5631.043312.1083.086623.2166.173247.3032.151592.1083.324837.1083.498087.1083 3.29171-.065 6.41017 1.4726 9.59364 2.2955.6929.1949 1.4076.3248 2.1222.4764-.693-.0649-1.3859-.1082-2.0789-.1732.1732.4114-.3032 1.0178-.5631 1.2777-.60636.6064-1.40763.9962-2.2089 1.2777-1.10445.4115-2.27388.7363-3.42164.9745-.23822.0433-.47643.0866-.71465.1299.04331.13.10828.2599.21656.3249.12994.0866.30318.065.45478.0433 2.94521-.3898 5.89045.6713 8.83565 1.1261 4.8293.7147 15.6572 1.6242 23.7566-.0866.7363-.1516.8879.6713.9745.9528.0866.2166 13.8382-.9745 13.1235-11.9324zm-33.7616-2.6637c-.4981 0-1.0179-.0866-1.4077-.3898-.1732-.1299-.3248-.2815-.4764-.4331-.1299-.1516-.2382-.4764-.4331-.5631-.13-.0649-.0217-.2382.1082-.1949 0 0 .0217 0 .0217.0217.6497-.1733 1.386-.0866 2.0357.0217.5197.0866 1.2127.1082 1.6458.4547.0217 0 .0217.0217.0217.0217l.0216.0216c.4981.6281-1.191 1.0395-1.5375 1.0395z" fill="#b45f00" opacity=".1296"/><path d="m7.82227 75.4694c.58471-.1516 1.55923-.8662 1.94904-1.6242-.75796-.1083-1.51592-.1083-2.27388.0866-.84458.2166-1.64585.8013-2.07897 1.5593.82292.1515 1.73247.1515 2.40381-.0217z" fill="#e2a040" opacity=".5"/><path d="m3.68574 79.7787c.32483-.2165 1.25604-.8662 1.2777-1.4076-.47644.0216-.8879.065-1.19108.1732-.86624.2816-1.68917.9096-2.14394 1.7325.71464 0 1.42929-.1083 2.05732-.4981z" fill="#e2a040" opacity=".5"/><path d="m.675293 85.9511c.584707-.0867 1.147767-.3032 1.624197-.5414.75796-.3898 1.6242-1.0612 1.66751-1.9707-.30318.0433-.58471.1082-.8879.1949-1.08279.3465-2.07897 1.2127-2.403807 2.3172z" fill="#e2a040" opacity=".5"/><path d="m30.5172 64.4247c-.1299-.0866-.2598-.1732-.4114-.2599-.1949-.1083-.4331-.2165-.6281-.1299-.1949.0866-.3031.3032-.3681.5197-.065.1949-.1083.3898-.1516.6064.5631-.0433 1.1261-.3248 1.5592-.7363z" fill="#e2a040" opacity=".5"/><path d="m33.5494 85.0197c-.4981.5847-1.6458 2.3389-.0433 2.1656.9529-.1083 1.7975-.5847 2.4905-1.2344.4547-.4114.9961-.9312 1.1477-1.5375.3032-1.2561-1.5376-1.7109-3.5949.6063z" fill="#e2a040" opacity=".4"/><path d="m27.3341 78.9774c.0433.3682.4547.2599.628.065.1516-.1732.2815-.3898.3248-.6064.1949-.9528-1.1261-1.2344-.9528.5414z" fill="#e2a040" opacity=".4"/><path d="m27.4419 82.2914c.0216.1082.065.2598.1516.3465.0866.0866.1516-.0433.1949-.1083.2165-.3465.3032-.7147.0649-1.0612-.4764-.6929-.628 0-.4114.823z" fill="#e2a040" opacity=".4"/><path d="m37.859 78.501c.0866.4115.3681 1.321.9095 1.3427.3032.0216.5198-.2816.6497-.5414.2382-.4548.3898-.9312.2815-1.451-.5197-2.2955-2.1872-.9528-1.8407.6497z" fill="#e2a040" opacity=".4"/><path d="m5.93787 90.477c-.71465.3249-1.34267.9096-1.71082 1.6242 1.34267-.1732 2.77196-.7363 3.05349-1.9923-.45477.065-.90955.1732-1.34267.3681z" fill="#e2a040" opacity=".5"/><g fill="#b45f00" opacity=".36"><path d="m11.5039 84.1975c-.8013.0217-1.60253-.065-2.38215-.2165 0 .0216 0 .0433-.02165.0433.45477.1083.9312.1949 1.4076.3032.3249-.065.6714-.1083.9962-.13z" opacity=".36"/><path d="m26.8364 83.7423c-.2815-.4331-.8446-.4981-1.321-.4765-1.2344.065-2.2739.823-3.465 1.0612-1.4942.2815-2.8586-.13-4.3095-.4115-.9096-.1732-1.8408-.3032-2.7503-.2599-.8663.0434-1.6892.3032-2.5338.4548-.2382.0433-.4764.065-.7146.0866h.1949c.7796-.0216 1.5592-.0433 2.3388.0434.9312.1082 1.7975.4764 2.5988.9528 1.6241.13-.0217-.4981 3.7897-.3898 1.2128.0433 2.3605.1299 3.465.4981 2.079-.1949 3.27-.693 2.707-1.5592z" opacity=".36"/><path d="m20.5345 80.9922c.8663-.2382 1.7542-.3682 2.642-.3898.7797-.0217 1.5809-.0433 2.3605 0 .2816.0216.5631.0433.823.0866.1083-.0433.1949-.0866.2382-.1083.4981-.4981-.1299-.9745-.628-.9962-1.1478-.0433-2.144.6281-3.2917.5847-1.2994-.0433-2.5554-.498-3.8548-.4764-1.2777.0433-2.5337.1733-3.8115.2382-.2165 0-1.0827-.2165-1.2993-.2382.4764.1299.9312.2599 1.3643.3898.8229-.0433 1.6675.0866 2.4471.1949.9746.13 1.9058.3682 2.8153.7147z" opacity=".36"/><path d="m24.454 89.8712c-.0217-.2382-.0866-.4764-.2166-.6713-.1732-.2382-.4981-.3682-.8013-.4115-.3031-.0433-.6063 0-.9095.065-.4115.065-.8446.1299-1.2561.1949-1.9923.3032-3.9413.3898-5.9553.3898-1.4293 0-2.8153.3248-4.223.3898-.0866 0-.1949 0-.3031.0217.0216 0 .0433.0216.0649.0216.6064.1516 2.014.4548 2.014.4548.0217.0217.1083.065.1949.0866 1.8841-.3898 3.9198-.3681 5.5007.4331.6713.0217.2815-.1949 1.4726-.3681.6713-.1083 1.321-.1083 1.9923-.1299.5414-.0217 1.1911-.1516 1.6892.0866.2165.1083.4981.1949.6497.0216.1082-.1082.1082-.2815.1082-.4547 0-.0433 0-.0867-.0216-.13z" opacity=".36"/></g><path d="m36.7758 77.6564c.1733-.3898.6064-1.1694.3465-1.5808-.5197-.8013-1.6891-.5848-2.4471-.3249-.8879.3032-1.8191.7796-2.4471 1.4726-.4115.4548-.4765.8879-.3465 1.5159.1299.6281.3248 1.2561.2598 1.9058-.1299 1.0611-1.2127 1.7974-1.9923 2.3821-1.0611.8013-2.1006 1.7542-2.5554 3.0319s-.0433 2.3388.9529 3.0968c.8229-1.9707 2.3605-3.5733 4.028-4.8726 1.5809-1.2344 3.4216-2.2522 5.3923-2.772-.8879-.4981-1.6675-1.5592-1.6025-2.5987 0-.4115.2382-.8662.4114-1.2561z" fill="#b45f00" opacity=".36"/><path d="m51.3075 84.2615c-1.1478-1.8191-2.9669-7.2764-5.0459-10.9579-.7579-1.3427-1.7974-2.4255-2.9885-3.3134 1.5592 1.6242 2.8586 3.4866 3.7465 5.5873 1.0611 2.5337 1.6458 5.5439 1.321 8.2942-.3248 2.6637-1.6892 5.1108-3.5083 7.0382-1.884 2.014-4.1796 3.4866-6.8433 4.2446-.0866.0216-.1949.0433-.2815.0866.3465.1949.4331.693.4981.9095.0433.2599 13.8165-.9312 13.1019-11.8891z" fill="#b45f00" opacity=".36"/><path d="m41.7785 94.743c.1083-.1083.2815-.2816.2599-.4548-.0433-.3248-.4981-.1949-.693-.1516-.3465.1083-.6714.2599-1.0179.4115-.8229.3465-1.7108.498-2.577.7363.2382.1732.3465.498.4115.7146.498-.065.9961-.1732 1.4726-.3032.7363-.1949 1.6025-.4331 2.1439-.9528z" fill="#b45f00" opacity=".36"/><path d="m29.9541 64.6196s-.1083 1.7108 2.8153 2.0357c0 0-1.0395-.4331-1.6459-.8663-.7796-.563-1.1694-1.1694-1.1694-1.1694z" fill="#b45f00" opacity=".36"/><path d="m4.81201 93.5308s1.06114-1.1261 3.2484 0c0 0-.5414-.8446-1.75414-.9095-1.21273-.065-1.49426.9095-1.49426.9095z" fill="#b45f00"/><path d="m1.23877 86.7738s2.20891-1.6026 3.59489 0c-.02166 0-1.55923-.8663-3.59489 0z" fill="#b45f00"/><path d="m1.99658 81.7061s2.01401-1.3427 3.09681 0c0 0-.30319-.563-3.09681 0z" fill="#b45f00"/><path d="m6.06787 76.5087c.97452-.3249 1.90573.1732 2.59872.5414-1.19108-1.4726-2.59872-.5414-2.59872-.5414z" fill="#b45f00"/><path d="m156.88 63.9264c.065-.498-1.971-2.014-1.668-2.3821.499-.5847 3.465.4114 4.223.4548 5.566.3465 11.521 1.1477 15.679 5.0891 3.4 3.2051 6.475 12.5388 6.54 12.7554 4.462 14.033 8.728 28.1314 12.972 42.2294.542 1.754 1.061 3.508 1.603 5.262.216.715.433 1.429.844 2.036.499.736 1.256 1.234 1.993 1.667 3.118 1.841 6.605 2.989 10.156 3.357.563.065 1.17.108 1.603.498.563.498 2.837-7.016 2.88-6.237 1.624 28.478-16.978 50.112-29.214 42.966-1.494-.867-2.75-2.144-3.898-3.487-8.424-9.789-12.344-22.912-16.025-35.581-7.125-24.623-9.031-58.7957-7.688-68.6276z" fill="#464558"/><path d="m160.475 63.6241c3.183.5414 6.388 1.4076 9.182 3.0535 1.646.9528 3.162 2.1656 4.288 3.7031 1.278 1.7108 1.971 3.6815 2.274 5.8038.909 6.4535-1.083 13.0586.498 19.4471.411 1.6675 1.104 3.2484 1.451 4.9374.325 1.538.498 3.119.563 4.699.13 3.249-.13 6.519.022 9.789.065 1.473.281 2.924.476 4.396.108.823.195 1.668-.108 2.447-.953 2.447-3.574 3.638-5.436 5.263-1.061.931-2.057 2.165-2.404 3.573-.151.65-.043 1.256.347 1.776.195.26.325.498.433.801.216.758.173 1.559.238 2.317.022.303.022.736.217 1.018.238.325.693.043.952-.13 2.274-1.516 3.985-4.006 5.35-6.302 1.429-2.404 2.598-4.959 3.724-7.514.542-1.235 1.04-2.491 1.668-3.682.671-1.299 1.451-2.555 2.252-3.768 1.473-2.274 3.01-4.57 3.963-7.125-2.858-9.4419-5.76-18.8623-8.749-28.261-.087-.2382-2.988-9.377-6.54-12.7553-4.158-3.9414-10.113-4.7427-15.679-5.0892-.736-.0433-3.725-1.0395-4.223-.4548-.195.2383.585.9529 1.148 1.5809 1.364.0867 2.729.2382 4.093.4765z" fill="#2b2b37" opacity=".25"/><path d="m213.727 128.656c-.043-.779-2.317 6.735-2.88 6.237-.434-.368-1.04-.433-1.603-.498-3.552-.368-7.038-1.516-10.157-3.356-.736-.434-1.494-.932-1.992-1.668-.411-.606-.628-1.321-.845-2.036-.541-1.754-1.061-3.508-1.602-5.262-.65-2.166-1.321-4.331-1.971-6.497-.693 1.798-1.429 3.573-2.252 5.306-.022.043-.087.065-.13.043-.693-.195-1.408-.346-2.122-.39-.715-.043-1.624-.065-2.252.369-1.105.757-.152 1.905.411 2.685.888 1.234 1.884 2.382 2.859 3.53.671.779 1.451 1.559 1.992 2.469 1.538 2.533 2.707 5.262 3.4 8.142.628 2.599 1.083 5.479.585 8.143-.867 4.634-4.375 8.467-8.598 10.373-2.1.953-4.418 1.516-6.735 1.408-2.447-.109-4.807-.91-6.865-2.231-.216-.13-.411-.281-.628-.411 2.209 4.742 4.851 9.203 8.23 13.123 1.147 1.343 2.403 2.621 3.898 3.487 12.279 7.125 30.881-14.51 29.257-42.966z" fill="#2b2b37" opacity=".25"/><path d="m213.727 128.656c-.043-.779-2.317 6.735-2.88 6.237-.434-.368-1.04-.433-1.603-.498-1.148-.108-2.274-.325-3.4-.584.022.151.022.281.043.433.217 3.14-.303 6.215-1.104 9.247-.758 2.945-1.559 5.912-2.404 8.835-.628 2.166-1.299 4.332-2.339 6.346-.931 1.819-2.187 3.508-3.898 4.677-1.992 1.365-4.288 1.819-6.67 2.058-4.028.389-8.121-.022-11.954-1.278.953 1.386 1.971 2.729 3.075 4.006 1.148 1.343 2.404 2.621 3.898 3.487 12.258 7.125 30.86-14.51 29.236-42.966z" fill="#2b2b37" opacity=".25"/><path d="m168.877 141.022c-.065-3.14.542-6.259 1.386-9.269.433-1.559.91-3.075 1.343-4.634.455-1.581 1.061-3.271 1.104-4.916.065-3.184-1.407-6.172-2.295-9.161-.953-3.27-.65-6.605-.195-9.94.455-3.4216.866-6.8649.65-10.3298-.109-1.7108-.368-3.4-.931-5.0459-.542-1.5592-1.213-3.0534-1.885-4.5477-1.212-2.7287-2.577-5.6089-2.858-8.6191-.26-2.8153.173-5.7388 1.148-8.3808.389-1.0395.866-2.0357 1.429-2.9886-2.685-.7363-5.566-1.0178-8.338-1.191-.736-.0434-3.724-1.0395-4.223-.4548-.303.3681 1.733 1.9057 1.668 2.3821-1.364 9.8318.541 44.0046 7.709 68.6066 1.43 4.915 2.902 9.896 4.657 14.747-.217-2.1-.325-4.179-.369-6.258z" fill="#2b2b37" opacity=".18"/><path d="m189.169 130.237c3.443 4.158 7.839 7.363 11.672 11.131 3.552 3.465 6.844 7.32 9.118 11.759 2.75-6.973 4.288-15.376 3.768-24.471-.044-.78-2.317 6.735-2.88 6.237-.434-.368-1.04-.433-1.603-.498-3.552-.368-7.038-1.516-10.157-3.357-.736-.433-1.494-.931-1.992-1.667-.411-.607-.628-1.321-.845-2.036-.541-1.754-1.061-3.508-1.602-5.262-1.148-3.812-2.296-7.623-3.465-11.435-.953 1.949-1.711 4.007-2.577 5.999-.953 2.187-1.992 4.353-3.227 6.41-.043.087-.086.152-.151.238.822 2.512 2.208 4.851 3.941 6.952z" fill="#2b2b37" opacity=".18"/><path d="m188.043 126.794c2.079 2.382 4.872 4.028 7.514 5.695 5.025 3.162 10.872 5.262 15.116 9.572.65.671 1.3 1.408 1.928 2.187.996-4.829 1.451-10.07 1.147-15.592-.043-.78-2.317 6.735-2.88 6.237-.433-.368-1.039-.433-1.602-.498-3.552-.368-7.038-1.516-10.157-3.357-.736-.433-1.494-.931-1.992-1.667-.412-.607-.628-1.321-.845-2.036-.541-1.754-1.061-3.508-1.602-5.262-1.148-3.812-2.296-7.623-3.465-11.435-.953 1.949-1.711 4.007-2.577 5.999-.91 2.101-1.906 4.179-3.097 6.172.714 1.364 1.494 2.793 2.512 3.985z" fill="#2b2b37" opacity=".18"/><path d="m190.447 168.525c-4.83-.606-9.118-3.248-12.539-6.605-1.906-1.862-3.617-3.941-5.133-6.128 2.123 4.439 4.656 8.619 7.84 12.3 1.148 1.343 2.404 2.62 3.898 3.487 5.544 3.248 12.387.563 18.061-5.956-3.638 2.188-7.883 3.422-12.127 2.902z" fill="#2b2b37" opacity=".18"/><path d="m179.922 91.343c-.173 1.4726-.325 2.9453-.152 4.4179.13 1.2993.434 2.5987.845 3.8331.91 2.794 2.187 5.501 2.75 8.402.239 1.278.109 2.469.174 3.747.086 1.494.238 2.967-.39 4.374-.78 1.755-2.534 2.989-3.054 4.83-.325 1.126-.13 2.36-.476 3.465-.303.953-.996 1.732-1.689 2.468-1.083 1.148-2.253 2.274-3.725 2.816-.65.238-1.365.346-1.949.693-.585.346-1.083 1.061-.866 1.711.259.844 1.429 1.061 2.208.649.78-.411 1.256-1.191 1.776-1.905.52-.715 1.191-1.408 2.079-1.495.325.65 0 1.451-.498 1.949s-1.169.823-1.754 1.235c-1.408.974-2.361 2.555-2.577 4.266-.065.455.043 1.083.498 1.191.303.065.606-.152.845-.368 1.559-1.429.433-.433 11.152-16.004 2.513-3.638 3.357-4.981 4.96-9.095.303-.78.671-1.538 1.039-2.274-3.075-10.135-6.172-20.2486-9.377-30.3403-.043.9312-.13 1.8841-.26 2.8153-.455 2.9019-1.213 5.7388-1.559 8.619z" fill="#2b2b37" opacity=".18"/><path d="m218.231 95.6524c-.411-.3898-.563-.9312-.498-1.4943.065-.5414.542-1.3859 1.148-1.7108-1.105-1.7758-2.469-3.3783-4.006-4.721-1.885-1.6675-4.202-3.2484-6.649-3.9414-3.357-.9528-3.227-.1082-4.309 1.6676-7.19 11.8241-19.859 33.8045-19.404 36.6205.585 3.573 18.841 18.017 30.578 13.167 3.01-16.935 4.006-30.124 4.136-39.5659-.368.0866-.736.2382-.996-.0217z" fill="#575771"/><path d="m218.231 95.6524c-.411-.3898-.563-.9312-.498-1.4943.065-.5414.542-1.3859 1.148-1.7108-1.105-1.7758-2.469-3.3783-4.006-4.721-1.885-1.6675-4.202-3.2484-6.649-3.9414-3.357-.9528-3.227-.1082-4.309 1.6676-7.19 11.8241-19.859 33.8045-19.404 36.6205.585 3.573 18.841 18.017 30.578 13.167 3.01-16.935 4.006-30.124 4.136-39.5659-.368.0866-.736.2382-.996-.0217z" fill="#2b2b37" opacity=".25"/><path d="m190.035 113.064c2.534-.931 5.046-2.036 7.298-3.552 4.721-3.183 8.446-7.731 11.002-12.7985 1.429-2.7936 2.468-5.8037 2.338-8.9872-.043-1.0611-.195-2.1223-.411-3.1617-.671-.3249-1.343-.5848-2.036-.7797-3.356-.9528-3.226-.1082-4.309 1.6676-4.765 7.8394-11.933 20.1395-16.112 28.3475.758-.216 1.494-.455 2.23-.736z" fill="#575771"/><path d="m217.993 99.1603c-.65 2.7067-1.581 5.3707-2.989 7.7747-1.234 2.122-2.772 4.049-4.526 5.76-6.756 6.54-16.588 9.875-25.922 8.641-.065.325-.087.585-.065.758.585 3.573 18.841 18.018 30.578 13.167 3.01-16.935 4.007-30.124 4.137-39.5657-.195.0433-.39.1083-.564.1083-.173 1.1261-.368 2.2522-.649 3.3567z" fill="#2b2b37" opacity=".25"/><path d="m188.432 115.229c14.38-2.014 26.919-11.845 28.651-12.95.217-.13.52-.065.628.152.238.519-1.624 1.71-2.252 2.165-1.169.845-5.587 3.4-8.013 4.765-4.288 2.425-11.023 5.544-18.884 6.648-.13.022-.26-.022-.346-.13-.065-.065-.087-.13-.108-.217-.044-.194.108-.389.324-.433z" fill="#2b2b37"/><path d="m210.825 127.335c.13.13.325.173.476.087.195-.109.282-.347.174-.542-.087-.173-9.464-20.768-10.482-31.8772-.022-.2166-.217-.3898-.433-.3682-.217.0217-.39.2166-.368.4332 1.039 11.2612 10.481 32.0072 10.568 32.1812.022.021.043.043.065.086z" fill="#2b2b37"/><path d="m206.364 83.2866s-.91.1083-1.17.3249c-.281.2165 0 1.7108 0 1.7108l6.822 8.0343 6.778 2.7937s.563 0 .39-.823c-.151-.6713-12.82-12.0407-12.82-12.0407z" fill="#2b2b37"/><path d="m205.195 85.3224c1.148-1.8191 3.486-8.3376 5.565-12.0191 2.144-3.8114 6.476-5.5656 10.569-6.4101.996-.1949 2.014-.3682 2.923-.8663.953-.4981 1.711-1.321 2.642-1.884.195-.1083.433-.2166.628-.13s.303.3032.368.5198c.585 1.7324-.216 3.7464-1.516 4.9808-1.451 1.3644-3.4 1.9491-5.24 2.4688-.39.1083-.737.3898-.91.8013-.346.7796.303 1.2127.671 1.6025.888.9529 2.058 1.5809 3.292 1.8624 9.572 2.1656 13.427.1083 16.091-.7363 1.797-.563 3.616-.9961 5.435-1.4076 1.235-.2815 2.534-.5414 3.768-.2166 1.235.3249 2.382 1.4077 2.426 2.7503 0 .195-.022.4332-.174.5631-.129.1083-.303.1083-.454.1083-2.772.0866-5.349 1.4293-8.013 2.3605 1.927-.4764 3.876-.8446 5.825-1.1694 1.386-.2383 2.816-.4332 4.158 0 1.343.4331 2.556 1.6891 2.513 3.1834 0 .2166-.044.4764-.217.6064-.152.1082-.325.1082-.498.1082-2.426-.0433-4.764.7797-7.103 1.5593.606-.1083 1.212-.2166 1.797-.3249 1.386-.2382 2.837-.4331 4.18 0 1.342.4331 2.555 1.6892 2.533 3.2051 0 .2382-.043.4764-.216.6064-.152.1083-.325.1083-.498.1083-3.292-.065-6.41 1.4726-9.594 2.2955-.693.1949-1.407.3248-2.122.4764 1.104-.1083 2.187-.1732 3.292-.2382 1.277-.065 2.598-.1083 3.768.4115 1.169.5197 2.144 1.7758 1.992 3.1184-.021.1949-.086.4331-.26.5198-.13.0866-.303.0649-.454.0433-2.946-.3898-5.891.6713-8.836 1.1261-4.829.7146-15.657 1.6242-23.757-.0866-.736-.1516-.888.6713-.974.9528-1.343.1949-12.821-2.1439-13.6-10.8496z" fill="#d58500"/><path d="m214.246 76.9196c-1.992-.6281-2.057 1.6458-1.147 2.9019.26.3681.671.8012 1.147.7579.628-.0433 1.04-.7146 1.213-1.256.303-1.0179-.151-2.079-1.213-2.4038z" fill="#e2a040" opacity=".4"/><path d="m218.707 84.9763c-.801-.4765-2.057-.5414-2.425.3032-.39.8879.519 1.9057 1.126 2.4471.606.5414 2.187 1.6242 2.555.2382.303-1.256-.26-2.2089-1.256-2.9885z" fill="#e2a040" opacity=".4"/><path d="m229.687 94.4831c.52-1.1261.974-2.4038.909-3.6815-.021-.3898-.086-.7796-.173-1.1694-.021-.1299.13-.2815.173-.3898.239-.4981.434-1.0178.455-1.5592 0-.5631-.086-1.1045-.281-1.6242-.109-.3032-.325-.693-.239-1.0395.087-.3682.325-.6714.455-1.0179.152-.4114.26-.8229.282-1.256.043-.9312-.217-1.8408-1.061-2.3605-.044-.0217-.065-.1083-.044-.1516.542-.7363.91-1.6458.78-2.5771-.022-.1299-.043-.3031-.087-.4547-1.862-.065-4.049-.3465-6.67-.9312-1.234-.2816-2.404-.9096-3.291-1.8625-.369-.3898-.997-.8229-.672-1.6025.173-.3898.52-.6713.91-.8013 1.841-.5197 3.79-1.1044 5.24-2.4687 1.235-1.1695 2.015-3.0535 1.581-4.721-.151.9961-.649 1.9706-1.277 2.7503-1.754 2.1439-4.613 3.1401-7.039 4.2878-.649.3032-1.299.6281-1.949.9962-.498.2815-1.104.5847-1.407 1.0828-.845 1.451.801 2.1656 1.667 2.9452.823.7363 1.321 1.9707.953 3.0535s-1.169 1.9274-1.949 2.7287c1.516.2165 3.075.2165 4.353 1.1911 1.321 1.0178 2.036 2.6853 1.797 4.3311-.628 4.4395-5.219 6.7567-9.42 6.8217 2.426.9528 4.548 1.2777 5.068 1.1911.086-.2816.238-1.1262.974-.9529 2.75.5847 5.804.8662 8.836.9529.476-.5414.844-1.1045 1.126-1.7109z" fill="#b45f00" opacity=".18"/><path d="m211.713 72.1338c.931-.8013 1.949-1.4293 3.118-1.8191 1.299-.4548 2.664-.6714 4.006-1.0179 2.794-.6929 5.328-2.1222 7.277-4.2445.26-.2816.498-.5631.693-.8663-.888.5414-1.646 1.3427-2.577 1.8408-.91.4764-1.928.6497-2.924.8662-3.876.7796-7.926 2.3822-10.178 5.7605.195-.1732.39-.3465.585-.5197z" fill="#e2a040" opacity=".4"/><path d="m247.228 74.9709c.975-.0866 2.058-.3032 2.881-.8446-.195-.0866-.412-.1732-.607-.2382-1.234-.3248-2.534-.065-3.768.2166-.585.1299-1.191.2598-1.776.4114.91.5847 2.317.5414 3.27.4548z" fill="#e2a040" opacity=".4"/><path d="m247.315 90.0651c-.173 0-.325.0216-.498.0216.584 1.7542 3.096 1.5376 4.764.6497-.173-.1083-.325-.1949-.498-.2815-1.191-.4981-2.512-.4548-3.768-.3898z" fill="#e2a040" opacity=".4"/><path d="m250.39 83.5467c.693.6281 1.559 1.1045 2.512 1.0395.671-.0433 1.256-.2815 1.754-.628-.238-.1299-.476-.2382-.715-.3248-1.147-.3682-2.36-.2816-3.551-.0867z" fill="#e2a040" opacity=".4"/><path d="m249.112 78.5224c-.498.0866-.996.1732-1.494.2598 1.256 1.8841 3.573.9746 5.067-.4114-1.191-.2166-2.403-.0433-3.573.1516z" fill="#e2a040" opacity=".4"/><path d="m243.439 74.646c-1.062.2599-2.123.5414-3.162.8662-.628.1949-1.321.4548-2.144.7147 1.559 1.3643 3.963-.13 5.306-1.5809z" fill="#e2a040" opacity=".4"/><g fill="#b45f00"><path d="m207.013 87.5315c-.606-.8013-1.191-1.6892-1.602-2.6204-.087.1516-.152.2816-.239.4115.78 8.7057 12.258 11.0662 13.6 10.828.065-.2166.174-.7796.585-.9312-4.353-1.2777-8.121-2.0573-12.344-7.6879z" opacity=".36"/><path d="m224.251 66.3087c1.191.3898 2.404-.3465 3.162-1.7975 0 0 .086 1.4943-1.018 1.9491-1.105.4547-2.144-.1516-2.144-.1516z" opacity=".36"/><path d="m224.186 76.2486c-1.234-.2815-2.404-.9095-3.291-1.8624-.369-.3898-.997-.8229-.672-1.6025.173-.3898.52-.6714.91-.8013.043-.0217.108-.0217.151-.0433-2.707-.1733-2.642 2.3605-.844 4.6344 1.949 2.4687.801 3.0534-1.126 5.2407 0 .0216 2.425-.1299 4.916 1.8624 4.331 3.4433 5.284 8.9006 5.284 8.9006-.065-.3681.13-1.0395.13-1.4726-.022-.6497.021-1.1261.151-1.7758.282-1.5159.455-3.0968.043-4.6127-.086-.2815-.173-.5631-.173-.8662 0-.5198.282-.9746.412-1.4943.195-.8446-.13-1.7108-.368-2.5338-.217-.7796-.044-1.321 0-2.0789.021-.3249.303-.3249.043-.6064-.108-.1083-.801-.065-.953-.0866-1.559-.1949-3.097-.4548-4.613-.8013z" opacity=".36"/><path d="m243.287 79.6918c2.642-.9095 5.219-2.2522 8.012-2.3605.152 0 .325-.0216.455-.1082.152-.13.195-.3465.173-.5631-.021-1.0611-.758-1.9707-1.646-2.4471.022.0433.044.0866.044.1299.26.693-.065 1.4943-.628 1.9491-.563.4547-1.321.628-2.058.6496-.346 0-.714-.0216-1.061.065-.238.065-.476.2166-.693.3465-1.277.7796-2.685 1.4293-4.179 1.451-.65.0216-1.321-.0867-1.971-.13-.628-.0216-1.148.1516-1.732.2166-.477.0433-.975-.0433-1.451-.0433-1.191.0433-2.361.2165-3.509.5414-.519.1299-1.082.3031-1.559.0649-.195-.1083-.39-.2598-.606-.3248-.282-.065-.563.065-.78.2382-.195.1733-.368.3898-.368.6497s.173.5197.433.5414c.173 0 .325-.0866.455-.1733.693-.3681 1.494-.3898 2.274-.3898.649 0 1.321 0 1.97.0217.932.0216 1.906.0433 2.772.3898.13.0433.26.1083.39.1083.109 0 .217-.065.325-.1083 1.234-.5847 3.682-.3032 4.938-.758.021.0433 0 .0433 0 .0433z" opacity=".36"/><path d="m247.986 83.9365c-.021 0-.021 0-.043 0 2.339-.7797 4.678-1.6026 7.103-1.5593.173 0 .368 0 .498-.1083.173-.1299.217-.3898.217-.6063.021-.9096-.433-1.7325-1.083-2.3389.043.3898.173.7797.108 1.1695-.086.5847-.585 1.0178-1.083 1.2993-1.017.5414-2.209.628-3.378.6064-1.169-.0217-2.317-.0866-3.443.1949-.498.1299-.975.3032-1.473.4331-.736.1732-1.451.0866-2.187.1949-.52.065-1.018.3248-1.559.3898-1.863.2599-3.79-.5197-5.588.0433-.324.1083-.649.2599-.974.3682-.52.1732-1.04.2382-1.581.3032-.39.0433-.801.0866-1.191-.0217-.217-.065-.455-.1949-.693-.1299-.368.1083-.412.6713-.13.9312.282.2598.715.2598 1.061.1516.347-.1083.671-.3249 1.04-.4548.628-.2382 1.299-.1949 1.949-.1516 1.472.0866 2.967.1516 4.439.2382.26.0217.542.0217.801 0 .347-.0433.693-.1516 1.018-.2165.628-.1516 1.256-.2383 1.884-.3249 1.538-.1516 2.902-.1299 4.288-.4114z" opacity=".36"/><path d="m256.475 86.8169c.022-.9745-.498-1.8624-1.212-2.4688 0 .4115.021.8446.021 1.2561 0 .1732 0 .3248-.065.4764s-.216.2599-.346.3465c-.433.2815-.931.4764-1.451.5414-1.581.2166-3.249-.6064-4.743-.065-.411.1516-.78.4115-1.191.6281-1.126.5847-2.425.7796-3.703.8229-1.624.065-3.313-.065-4.873.4548-.346.1083-.584.2382-.953.2598-.433.0217-.844.0217-1.277.065-.802.065-1.624.1949-2.382.4764-.304.1083-.607.2383-.932.3032-.649.1083-1.407-.1083-1.949.2816-.13.1082-.26.2382-.281.4114-.022.3465.39.5847.736.5198.347-.0434.628-.2816.931-.4548.52-.3032 1.148-.4548 1.754-.4115.715.0433 1.408.3465 2.123.3032.411-.0216.801-.1516 1.212-.2382 2.188-.4981 3.899.1516 6.129-.0866.087-.0217.173-.0433.26-.0433.325-.0867.909-.2599 1.061-.2816.606-.1732 1.213-.3032 1.819-.4331.108-.0216.195-.0433.303-.065 2.751-.8445 5.458-1.9923 8.295-1.9273.173 0 .368 0 .498-.1083.173-.065.216-.3249.216-.5631z" opacity=".36"/><path d="m252.014 91.1045c.087.4548-.108.9529-.455 1.2777-.476.4331-1.126.6064-1.754.7146-4.05.7363-8.273.1733-12.301 1.1261-1.256.3032-2.49.7364-3.768.9529-4.634.8013-9.29-1.3427-13.989-1.2777-.412 0-.845.0217-1.213-.1299-.498-.2166-.801-.6714-1.235-.9962-.411-.3032-.909-.4764-1.407-.4764-.238 0-.498.0433-.65.2382-.195.2382-.108.6063.065.8662.758 1.2561 2.534 1.2777 3.812 2.014.151-.1516.346-.2598.649-.1949 8.1 1.7325 18.906.8013 23.757.0866 2.945-.4331 5.869-1.4942 8.835-1.1261.152.0217.325.0434.455-.0433.173-.1083.238-.3248.26-.5197.108-.9745-.368-1.8841-1.061-2.5121z" opacity=".36"/><path d="m251.927 87.4233c1.062-.8662 2.599-.9528 3.747-.1732-1.04-1.6026-3.66-1.1694-3.747.1732z" opacity=".36"/><path d="m248.484 93.7035c1.126-.8013 2.642-.7796 3.747.0649-.932-1.6675-3.574-1.4076-3.747-.0649z" opacity=".36"/><path d="m251.559 82.4638c.953-.9962 2.447-1.2777 3.682-.6713-1.235-1.451-3.769-.6713-3.682.6713z" opacity=".36"/><path d="m248.246 77.3531c.823-.8012 2.079-.9745 3.097-.4331-.996-1.2777-3.119-.7146-3.097.4331z" opacity=".36"/><path d="m217.928 92.7073c-2.122-4.2663-4.223-2.6421-4.721-1.6675-.087.1732-.152.3465-.173.5414-.412 3.3783 5.847 3.7681 6.063 3.8114.109-.1516.282-.2382.52-.2382-.715-.6713-1.234-1.5376-1.689-2.4471z" opacity=".36"/></g><path d="m182.91 130.887c-.108-.195-.303-.325-.584-.39-1.018-.238-2.209 1.148-2.534 1.949-.195.455-.325 1.018-.087 1.451.282.476.932.628 1.451.476.52-.173.932-.563 1.278-1.018.368-.519.888-1.797.476-2.468z" fill="#d8d8d8" opacity=".0196"/><path d="m171.65 71.571c.13-.1732.173-.4114.108-.693-.195-1.0178-1.949-1.5592-2.815-1.5375-.498.0216-1.061.1082-1.365.5197-.324.4331-.194 1.1045.174 1.5159.368.4115.909.6281 1.429.7363.671.1733 2.036.13 2.469-.5414z" fill="#d8d8d8" opacity=".0196"/><path d="m168.401 166.749c-.281-6.497-2.014-12.82-2.296-19.295-.368-8.035.65-16.134-.519-24.147-.78-5.327-2.404-10.784-1.949-16.22.173-1.971.411-3.941.628-5.912 1.451-13.7084.844-15.9606-1.191-19.3606-.455-2.8153-1.906-8.4891-6.021-20.205-.151-.4115-2.165-.4981-2.36-.8879-.217-.3898-.628-.7363-1.061-.6497-.304.065-.542.3249-.802.4981-.259.1949-.649.2816-.866.065-.065-.065-.086-.1299-.13-.1949-.303-.4331-.953-.5631-1.451-.3682s-.844.6714-1.039 1.1695c-.065.1732-.109.3248-.13.498-6.259.4981-14.77 2.5338-16.827 2.3822l-13.708 4.6777c-1.884.1299-3.963-2.6637-5.154-3.7898-1.733-1.6242-3.855-3.8115-6.345-3.9414-.477-.4115-.975-.7579-1.495-1.0611-.844-.4765-1.97-.823-2.772-.2599-.541.3681-.866 1.1261-1.516 1.1694-.541.0433-.996-.4548-1.5371-.5414-.4981-.065-.9529.2166-1.3643.4981-.3465.2166-3.3567.8013-3.3784 1.1911-.0216.2382-.6929 15.3974-.8878 22.1757-.823 3.0751-1.5593 6.1936-2.209 9.3121-.0433.4764-.0866.9312-.1299 1.4076-.3032 3.5299-.7363 7.0594-.7796 10.6114v2.794c.4764 3.595.9312 7.168 1.0178 10.806.1083 4.158.0217 8.316-.1516 12.474-.1732 4.179-.4114 8.337-.628 12.517-.2165 3.941-.8013 7.839-1.4726 11.737-.6713 4.028-1.386 8.078-1.5376 12.171-.0866 2.317.0217 4.591.3249 6.865h78.8492c.78-2.642.996-5.436.888-8.186zm-7.255-88.1397c0 .0217.022.0434.022.065l-.022-.0216s0-.0217 0-.0434z" fill="#575770"/><path d="m107.461 65.594c.758 2.4904 1.342 5.0675 2.534 7.3847.628 1.2343 1.429 2.4038 2.49 3.2917 1.126.9312 2.469 1.4726 3.898 1.6891 2.642.4115 5.371-.0433 7.948.693 1.342.3682 2.599 1.0395 3.855 1.6459 1.256.628 2.49 1.2777 3.768 1.8407 2.728 1.2344 5.565 1.9924 8.575 1.8841 5.934-.2166 11.933-2.5121 16.935-5.6739 1.538-.9745 2.794-2.1656 3.877-3.5299-.931-3.2051-2.296-7.493-4.31-13.2101-.151-.4115-2.165-.4981-2.36-.8879-.217-.3898-.628-.7363-1.061-.6497-.304.065-.542.3248-.802.4981-.259.1949-.649.2815-.866.065-.065-.065-.086-.13-.13-.1949-.303-.4332-.953-.5631-1.451-.3682s-.844.6713-1.039 1.1694c-.065.1733-.108.3249-.13.4981-6.259.4981-14.77 2.5338-16.827 2.3822l-13.708 4.6777c-1.884.1299-3.963-2.6637-5.154-3.7898-1.733-1.6242-3.855-3.8115-6.345-3.9414-.304-.2599-.628-.5198-.975-.7363.303 1.7974.758 3.5299 1.278 5.2624z" fill="#2b2b37" opacity=".11"/><path d="m107.114 64.0131c.13.0216.087.2382-.065.2165.13.4548.26.9096.39 1.3644.758 2.4904 1.343 5.0675 2.534 7.3847.628 1.2343 1.429 2.4038 2.49 3.2917 1.126.9312 2.469 1.4726 3.898 1.6891.152.0217.325.0433.477.065.801-.1083 1.581-.3248 2.382-.4764 1.213-.2599 2.295-.1733 3.465.2382 3.14 1.0828 6.475.9312 9.723 1.4726 1.689.2815 3.379.7363 5.089.8013 1.516.0649 3.011-.1516 4.483-.5198 1.451-.3681 2.881-.8662 4.331-1.2777 1.321-.3681 2.621-.7146 3.834-1.3643 2.23-1.1694 4.201-2.9236 5.37-5.1758.607-1.1911 1.04-2.4904 1.17-3.8114.173-1.5809-.087-3.0968-.52-4.6344-.217-.7147-.455-1.451-.65-2.1873-.433-.1082-.801-.2165-.888-.3681-.216-.3898-.628-.7363-1.061-.6497-.303.065-.541.3248-.801.4981-.26.1949-.65.2815-.866.065-.065-.065-.087-.13-.13-.1949-.303-.4332-.953-.5631-1.451-.3682s-.845.6713-1.04 1.1694c-.065.1733-.108.3249-.13.4981-6.258.4981-14.769 2.5338-16.826 2.3822l-13.709 4.6777c-1.884.1299-3.963-2.6637-5.154-3.7898-1.732-1.6242-3.854-3.8115-6.345-3.9414-.303-.2599-.628-.5198-.974-.7363.216 1.2344.498 2.4471.823 3.6598.086.0217.108.0217.151.0217z" fill="#2b2b37" opacity=".11"/><path d="m148.239 62.4105c.108.4548.217.9096.368 1.3427.217.693.52 1.6242 1.126 2.1006.563-.1732.996-.8445 1.321-1.256.455-.5631.931-1.1045 1.235-1.7541.325-.6497.519-1.4726.519-2.2956 0 0 0 0-.021.0217-.26.1949-.65.2815-.866.065-.065-.065-.087-.13-.13-.1949-.304-.4332-.953-.5631-1.451-.3682s-.845.6713-1.04 1.1694c-.065.1733-.108.3249-.13.4981-.346.0217-.714.065-1.083.1083.065.2165.13.4331.152.563z" fill="#2b2b37" opacity=".11"/><path d="m154 60.7c.195.9528-.325 1.9057-.087 2.8152.433 1.5593 1.754.1516 2.144-.7363-.173-.563-.346-1.1477-.519-1.7108-.434-.1083-.802-.2165-.888-.3681-.174-.3465-.52-.6497-.888-.6497.108.1949.195.4331.238.6497z" fill="#2b2b37" opacity=".11"/><path d="m100.574 62.8653c-.043.3681-.303 1.2127.022 1.5159.628.5414.909-.4981.931-.9096.022-.628-.26-1.6242-.346-2.5337-.477-.065-.888-.4548-1.3647-.5414-.0433 0-.0866 0-.1083 0 .671.6064.975 1.5809.866 2.4688z" fill="#2b2b37" opacity=".11"/><path d="m104.559 62.4756c.281.5847.78 1.1045 1.472 1.1261.195 0 .412-.0433.585-.1082-.281-1.0828-.52-2.1873-.693-3.2918-.086-.0649-.173-.1082-.281-.1732-.542-.3032-1.191-.5631-1.798-.5414.368.9096.39 2.3172.715 2.9885z" fill="#2b2b37" opacity=".11"/><path d="m161.146 78.6094c0 .0217.022.0435.022.0653l-.022-.0218s0-.0218 0-.0435z" fill="#575770"/><path d="m168.401 166.749c-.282-6.496-2.014-12.82-2.296-19.295-.368-8.034.65-16.134-.52-24.147-.779-5.327-2.403-10.784-1.949-16.22.174-1.971.412-3.941.628-5.912 1.451-13.7081.845-15.9604-1.191-19.3603-.454-2.8153-1.905-8.4892-6.02-20.2051-.043-.1299-.238-.2165-.498-.2815-.043.2382-.087.4548-.152.693-1.082 5.0892-2.642 10.0917-4.829 14.8127-2.014 4.3095-4.591 8.3159-7.904 11.7375-3.141 3.2268-6.779 5.9554-10.72 8.1427-8.164 4.526-17.476 6.93-26.767 7.471-5.002.303-10.0699.087-15.0291-.736-.0433.715-.065 1.451-.065 2.166v2.793c.4765 3.595.9312 7.168 1.0179 10.807.1082 4.157.0216 8.315-.1516 12.473-.1733 4.18-.4115 8.338-.6281 12.518-.2165 3.941-.8012 7.839-1.4726 11.737-.6713 4.028-1.3859 8.078-1.5375 12.171-.0867 2.317.0216 4.591.3248 6.865h78.8492c.801-2.686 1.018-5.479.91-8.23z" fill="#2b2b37" opacity=".11"/><path d="m168.401 166.749c-.282-6.496-2.014-12.82-2.296-19.295-.368-8.034.65-16.134-.519-24.147-.78-5.327-2.404-10.784-1.949-16.22.173-1.971.411-3.941.628-5.912 1.277-12.2139.931-15.354-.585-18.2775-.217 1.1044-.52 2.2089-.953 3.2917-1.083 2.6853-2.642 5.0891-4.331 7.428-1.689 2.3388-3.465 4.6127-4.916 7.0818-1.494 2.555-2.426 5.219-2.815 8.142-.325 2.491-.347 5.024-.412 7.537-.043 2.208-.108 4.461-.606 6.626-.498 2.144-1.429 4.158-2.859 5.869-1.927 2.274-4.526 4.071-7.19 5.392-3.053 1.516-6.41 2.188-9.615 3.249-3.032.996-6.042 2.295-7.969 4.937-1.603 2.188-2.707 4.678-4.635 6.627-1.212 1.234-2.295 2.577-3.486 3.833-1.235 1.321-2.491 2.642-3.747 3.92-5.11 5.197-10.4811 10.2-16.155 14.791-1.5159 1.213-3.0751 2.339-4.721 3.335h78.243c.78-2.664.996-5.457.888-8.208z" fill="#2b2b37" opacity=".11"/><path d="m168.401 166.749c-.282-6.497-2.014-12.82-2.296-19.295-.368-8.035.65-16.134-.52-24.147-.779-5.327-2.404-10.784-1.949-16.22.087-1.018.195-2.057.303-3.075-.108.281-.238.563-.346.823-.866 2.079-1.798 4.114-2.707 6.172-.477 1.061-.975 2.122-1.299 3.248-.39 1.299-.628 2.642-.737 3.985-.433 5.435.866 10.828.628 16.242-.108 2.403-.519 4.872-1.667 7.016-1.083 1.993-2.772 3.53-4.7 4.721-4.071 2.534-9.03 3.747-12.625 6.995-1.927 1.733-3.725 3.573-5.457 5.522-1.689 1.884-3.314 3.812-5.068 5.653-1.711 1.775-3.508 3.465-5.544 4.872-2.209 1.516-4.547 2.556-7.06 3.4-3.854 1.299-7.904 1.906-11.954 2.274h62.11c.779-2.642.996-5.436.888-8.186z" fill="#2b2b37" opacity=".11"/><path d="m91.4792 141.325c1.8624-4.266 4.2662-8.424 5.1757-12.864.3032-1.494.4332-3.032.5414-4.569.13-1.711.1949-3.422.1083-5.133-.1516-2.75-.8013-5.414-1.8407-7.947-.8879-2.166-2.0357-4.288-3.5733-6.064-.2382-.281-.4981-.541-.7579-.801-.0217.541-.0433 1.104-.0433 1.646v2.793c.4764 3.595.9312 7.168 1.0178 10.807.1083 4.158.0216 8.315-.1516 12.473-.1299 3.227-.3032 6.454-.4764 9.659z" fill="#2b2b37" opacity=".11"/><path d="m168.401 166.749c-.282-6.497-2.014-12.82-2.296-19.295-.368-8.035.65-16.134-.52-24.147-.779-5.327-2.403-10.784-1.949-16.22.087-1.018.195-2.057.303-3.075-.108.281-.238.563-.346.823-.433 1.039-.888 2.079-1.364 3.118-.109.845-.195 1.689-.239 2.534-.216 3.27-.238 6.67.304 9.897.411 2.425 1.299 4.742 1.797 7.146.606 2.859 1.083 5.955.152 8.792-.433 1.321-1.04 2.599-1.495 3.92-.541 1.538-.952 3.075-1.147 4.699-.174 1.581-.195 3.162-.217 4.765 0 1.407.065 2.837-.087 4.244-.238 2.383-.952 4.635-2.23 6.67-1.538 2.404-3.595 4.483-5.631 6.476-2.988 2.923-6.28 5.695-9.896 7.861h23.908c.844-2.664 1.061-5.458.953-8.208z" fill="#2b2b37" opacity=".11"/><path d="m161.146 78.6094c0 .0217.022.0435.022.0653l-.022-.0218s0-.0218 0-.0435z" fill="#575770"/><path d="m129.269 89.7839c-.672-.8229-1.603-1.4726-2.404-2.1656-.953-.8229-1.928-1.6242-2.902-2.4254-1.906-1.6026-3.812-3.2268-5.587-4.9809-2.686-2.6204-5.176-5.5656-6.8-8.9439-1.213.3031-2.491.7146-3.812 1.191 2.036 4.0714 4.353 8.0561 6.843 11.8675 1.192 1.8191 2.426 3.6382 3.812 5.349 1.343 1.6675 2.815 3.3134 4.613 4.4828.736.4765 1.559.823 2.403.9962.044-.2382.109-.4548.152-.693.043-.1732.282-.0866.26.065-.043.2165-.108.4331-.152.6497.975.1299 1.971-.0001 2.924-.5198 1.949-1.0178 1.906-3.3134.65-4.8726z" fill="#2b2b37" opacity=".11"/><path d="m98.8848 174.957c5.6522-16.155 17.2382-39.154 27.1562-55.937 15.138-25.5762 27.698-48.25 21.461-50.6538-.801 1.5809-3.14 7.6446-4.136 9.1388-1.213 1.8624-2.599 3.5516-3.876 5.3707-1.126 1.5809-2.209 3.1834-3.422 4.721-1.234 1.5809-2.577 3.1401-4.18 4.3529-.476.3464-.974.6713-1.515.9312-.325 1.4076-1.668 2.2955-3.097 2.5554-.563.1082-1.105.1082-1.624.0433-1.711 7.1465-5.414 13.6865-9.442 19.8365-3.79 5.782-7.948 11.348-11.825 17.152-3.898 5.869-7.211 17.541-9.3333 24.406-1.1911 3.812-2.0357 7.731-2.8802 11.651-.4765 2.144-.9096 4.288-1.3644 6.454h8.0777z" fill="#2b2b37" opacity=".25"/><path d="m97.6725 174.957c3.5945-9.724 5.2625-25.576 8.9435-35.126 2.448-6.302 5.761-12.149 9.291-17.78 2.404-3.833 5.544-7.319 6.735-11.737.455-1.711 4.916-14.7262.931-12.7555-6.367 3.1405-11.521 13.0155-16.177 19.9235-11.6076 17.281-18.3859 43.507-20.4648 56.197v1.278z" fill="#2b2b37" opacity=".25"/><path d="m108.479 70.6396s4.049 9.0955 8.121 14.1197c4.092 5.0459 9.03 9.7019 9.03 9.7019l6.28-2.5337s-7.341-2.5554-12.43-7.3414c-5.089-4.7643-11.001-13.9465-11.001-13.9465z" fill="#2b2b37" opacity=".25"/><path d="m124.439 102.669c.758-.801 1.559-1.559 2.339-2.339 1.862-1.8406 7.666-4.3311 5.435-5.7387-16.09-10.1567-20.443-23.3018-26.355-32.8521-.108-.1732-.108 24.233 18.581 40.9298z" fill="#2b2b37"/><path d="m132.213 94.6132c-4.266-2.6853-7.687-5.5873-10.546-8.5541-.91 1.2127-2.144 2.0356-3.682 1.7974-.368-.0649-.909-.2815-1.277-.1732-.325.1083-.542.3465-.737.6064-.303.4547-.541.9961-.974 1.3643-.26.2382-.563.3681-.845.4331 2.577 4.3528 5.934 8.684 10.309 12.6039.758-.801 1.559-1.559 2.338-2.339 1.841-1.8624 7.645-4.3312 5.414-5.7388z" fill="#21212b" opacity=".44"/><path d="m109.692 76.9209c1.169.9745 2.512 1.6892 3.941 2.1656.845.2815 1.733.5197 2.642.563h.13c-4.504-6.3235-7.276-12.647-10.524-17.8878-.065-.0866-.087 5.5873 2.035 13.3617.542.6714 1.17 1.2778 1.776 1.7975z" fill="#21212b"/><path d="m125.63 89.7837c-.844-.6064-.757 2.3605-1.234 3.2484-1.104 1.9923-2.512 3.898-4.201 5.4573 1.299 1.4293 2.707 2.8156 4.244 4.1796.758-.801 1.56-1.559 2.339-2.339 1.863-1.8406 7.666-4.3311 5.436-5.7387-2.512-1.5592-4.44-3.2484-6.584-4.8076z" fill="#21212b"/><path d="m96.4812 174.957c6.7568-16.372 25.6188-57.648 31.4008-65.834 20.184-28.6293 21.57-42.3808 18.386-42.3808-2.23 8.749-53.3167 60.7018-59.1205 108.2368h9.3337z" fill="#2b2b37"/><path d="m105.707 151.135c-.888-.022-1.776.043-2.664.065-.455.022-.975.022-1.408-.173-.433-.217-.736-.607-.953-1.04-.411-.779-.6926-1.646-.9741-2.468-1.1261.411-2.014 1.191-2.9885 1.862-.4764.325-1.1045.78-1.7108.671-.4115-.065-.7363-.368-.9529-.714-3.4 8.51-5.8904 17.151-6.9082 25.662h9.3337c2.3388-5.696 6.1718-14.401 10.3948-23.692-.368-.13-.758-.173-1.169-.173z" fill="#21212b" opacity=".44"/><path d="m139.836 83.9367c.91.4115 1.754.8662 2.426 1.6025 6.215-12.647 6.128-18.819 4.006-18.819-.606 2.4038-4.937 8.0993-10.979 16.0471 1.559.0433 3.161.5414 4.547 1.1694z" fill="#21212b"/><path d="m120.541 102.821c-5.306 5.977-9.745 12.842-13.08 20.291-.26.564-.498 1.148-.477 1.755.022.606.433 1.256 1.018 1.321.39.043.78-.152 1.105-.39 2.598-1.711 4.222-4.613 5.522-7.493.866-1.884 1.646-3.812 2.707-5.587 1.039-1.776 2.534-3.054 3.725-4.678.779-1.083 1.017-2.014 1.191-3.335.173-1.343.086-3.92-1.711-1.884z" fill="#2b2b37"/><path d="m103.108 132.446c-.325.737-.455 1.884.303 2.079.433.109.823-.238 1.148-.541.693-.65 1.364-1.321 2.057-1.971-.108.78-.194 1.559-.303 2.339.542.173 1.083-.26 1.495-.671 5.305-5.349 8.359-12.539 12.928-18.451 1.235-1.603 2.621-3.184 3.119-5.154.194-.78.194-1.711-.412-2.209-.888-.736-2.165.065-2.988.888-1.018 1.039-2.123 2.23-2.794 3.551-.411.802-.606 2.123-1.841 1.624.173-2.1-3.162 1.581-3.465 2.015-.974 1.342-1.776 2.793-2.685 4.201-2.512 3.876-4.699 7.991-6.562 12.3z" fill="#464557" opacity=".25"/><path d="m111.857 82.876c.823 1.7758 1.754-.0433 1.473-1.2127-.217-.9962-.715-2.1223-1.386-2.9019-.477-.5631-.953-.9096-1.321-.0867-.563 1.2344.736 3.1402 1.234 4.2013z" fill="#464557" opacity=".25"/><path d="m136.545 85.4746c1.148-1.4076-.736-1.4726-1.602-.7796-.737.5847-1.495 1.451-1.863 2.3389-.281.628-.368 1.191.455 1.1694 1.256-.0217 2.339-1.8841 3.01-2.7287z" fill="#464557" opacity=".25"/><path d="m128.359 91.9492c-2.274 2.8153-3.79 5.3274-6.237 8.5328.173.411.585.844 1.451.736 2.815-.347 4.786-4.8293 6.107-6.9299 1.148-1.7758-.282-2.2306-1.321-2.3389z" fill="#464557" opacity=".25"/><path d="m97.3258 66.3738c.5848.4332 1.5376.3682 1.8625-.2815.498-1.0178-.0867-5.0025-1.3644-4.7859-1.6025.2815-1.4076 4.3961-.4981 5.0674z" fill="#d8d8d8" opacity=".14"/><path d="m101.354 60.9383c-.022 0-.044 0-.065 0 .259.5197.584.9095.887 1.0178.672.2599 1.581-.065 1.733-.7796.065-.3682-.065-1.0179-.303-1.6892-.238.0433-.477.1299-.693.2815-.563.3898-.91 1.1261-1.559 1.1695z" fill="#d8d8d8" opacity=".14"/><path d="m146.246 83.8502c-.195-.13-1.451.6929-.801 1.191.368.3032 1.018 0 1.018-.6713.022-.1949-.043-.4331-.217-.5197z" fill="#d8d8d8" opacity=".14"/><path d="m109.107 51.1064s-2.317 2.1223-2.793 4.1363c-.455 2.014 2.122 5.1542 2.122 5.1542l3.508-2.0574z" fill="#75a152"/><path d="m149.885 51.7778s2.317 3.4217 1.473 7.8178c-.845 4.3962-4.57 5.4573-4.57 5.4573l-1.256-1.8624z" fill="#568040"/><path d="m141.31 63.6884c.043 3.9414-5.306 7.1897-11.933 7.2764-6.627.0866-12.041-3.0319-12.062-6.9733-.044-3.9413 5.305-7.1897 11.932-7.2764 6.627-.0866 12.041 3.0319 12.063 6.9733z" fill="#21212b"/><path d="m109.064 34.821c-.108 1.1477-.173 2.3171-.217 3.4649-.065 1.7975-.086 3.5949.065 5.3923.607 6.8433 3.92 13.0586 8.035 18.1694-.953-3.8764-1.581-7.8395-1.884-11.8458-.174-2.3822-.239-4.8076.086-7.1681.477-3.4866 1.798-6.7784 2.382-10.2433.304-1.7975.412-3.6166.52-5.4357.108-1.8624.217-3.7248.347-5.5872.13-2.2306-.975-4.1579-2.729-2.1872-1.234 1.3643-2.296 2.9452-3.205 4.591-1.819 3.2917-3.01 7.0166-3.4 10.8497z" fill="#2b2b37"/><path d="m147.85 34.3447c.152 1.1478.217 2.2956.282 3.465.086 1.7974.151 3.5949.043 5.3923-.476 6.865-3.66 13.1668-7.666 18.3643.866-3.8981 1.429-7.8828 1.646-11.9108.13-2.3822.151-4.8076-.217-7.1681-.541-3.465-1.927-6.7134-2.577-10.1783-.347-1.7758-.498-3.5949-.628-5.414-.152-1.8624-.303-3.7249-.455-5.5873-.173-2.2305.888-4.1796 2.686-2.2522 1.256 1.3427 2.36 2.8803 3.291 4.5045 1.863 3.2483 3.119 6.9515 3.595 10.7846z" fill="#2b2b37"/><path d="m150.124 31.9838c-.152-.8229-.542-1.6242-1.17-2.0357-.909-.6063-1.689-.5847-2.339-.1299-1.797-11.6942-9.182-20.42158-17.952-20.3133-8.771.10828-15.983 9.0305-17.542 20.7681-.671-.4331-1.451-.4331-2.339.1949-.628.4331-.996 1.256-1.147 2.0789-.13.823-.044 1.6676.043 2.4905.368 3.0102.953 5.9987 1.776 8.9006.151.5414.303 1.0611.584 1.5376.542.8662 1.516 1.3643 2.448 1.256.086-.0217.173-.0216.259-.0433 3.032 8.4675 9.269 14.228 16.394 14.1413 7.125-.0866 13.253-6.0203 16.112-14.5528.087.0217.173.0433.26.0433.931.0867 1.906-.4331 2.425-1.321.282-.4764.433-1.0178.563-1.5375.758-2.9236 1.3-5.9121 1.603-8.944.108-.8662.173-1.7108.022-2.5337z" fill="#d58500"/><path d="m139.88 19.0997c1.278.4114 2.556.8662 3.812 1.3643-3.335-6.6917-8.836-11.02288-15.029-10.95791-8.771.10828-15.983 9.03051-17.542 20.76811-.671-.4332-1.451-.4332-2.339.1949-.628.4331-.996 1.256-1.147 2.0789-.13.823-.044 1.6675.043 2.4905.216 1.8407.52 3.6598.909 5.4573.412-.2599.845-.4765 1.257-.6714.714-.3465 1.429-.628 2.187-.8879.801-15.9171 10.2-25.6623 27.849-19.8368z" fill="#b45f00"/><path d="m127.926 35.4269s8.251-.8012 14.423.8446c6.15 1.6459 6.843 1.8841 6.843 1.8841l-1.408 4.3528z" fill="#b45f00"/><path d="m150.123 31.9847c-.151-.8229-.541-1.6242-1.169-2.0356-.91-.6064-1.689-.5847-2.339-.13-.346-2.3172-.931-4.5261-1.689-6.5617-.043-.0867-.065-.1733-.108-.2599-.217-.5847-.455-1.1478-.715-1.7108-.043-.1083-.087-.1949-.13-.3032-.065-.1516-.13-.2815-.216-.4115-.065-.1082-.109-.2165-.174-.3248-.065-.1299-.13-.2599-.216-.3898-.065-.1083-.109-.2166-.173-.3249-.065-.1299-.152-.2598-.217-.3898-.065-.1082-.13-.2165-.195-.3248-.065-.1299-.152-.2382-.217-.3682-.064-.1082-.129-.2165-.194-.3248s-.152-.2382-.217-.3465-.152-.2165-.217-.3248-.151-.2166-.216-.3249c-.087-.1082-.152-.2165-.238-.3248-.065-.1083-.152-.1949-.217-.3032-.087-.1299-.173-.2382-.281-.3465-.065-.0866-.13-.1732-.195-.2599-.152-.1949-.325-.3898-.477-.563-.043-.0433-.086-.1083-.13-.1516-.13-.1516-.26-.2815-.389-.4115-.065-.0649-.13-.1299-.195-.1949-.109-.1083-.217-.2165-.325-.3465-.065-.0649-.152-.1299-.217-.2165-.108-.1083-.216-.2166-.325-.3032-.065-.065-.151-.1299-.216-.1949-.108-.1083-.217-.1949-.325-.2815-.087-.065-.152-.13-.238-.1949-.109-.0867-.238-.1949-.347-.2816-.065-.0649-.151-.1083-.216-.1732-.13-.0866-.239-.1733-.368-.2599-.065-.0433-.152-.1083-.217-.1516-.13-.0866-.26-.1732-.39-.2599-.065-.0433-.13-.0866-.195-.1299-.151-.0866-.303-.1949-.476-.2815-.043-.0217-.087-.065-.13-.0866-.412-.2383-.845-.4548-1.256-.6497-.022-.0217-.065-.0217-.087-.0433-.173-.0867-.368-.1516-.541-.2166-.065-.0216-.108-.0433-.173-.065-.152-.0649-.325-.1082-.477-.1732-.065-.0217-.13-.0433-.216-.065-.152-.0433-.304-.0866-.455-.1299-.065-.0217-.152-.0433-.217-.065-.151-.04329-.303-.06495-.455-.10826-.043 0-.086-.02166-.108-.02166h.022c-.953-.1949-1.906-.30318-2.902-.30318-8.771.10828-15.982 9.0305-17.541 20.7681-.672-.4331-1.451-.4331-2.339.1949-.628.4331-.996 1.256-1.148 2.0789-.13.823-.043 1.6676.043 2.4905.217 1.8407.52 3.6598.91 5.4573.411-.2599.844-.4764 1.256-.6713 1.061-.4981 2.144-.9096 3.27-1.2344.736-.2166 1.494-.4332 2.252-.5848v-.1949c-1.104-34.8444 48.964-14.9859 20.552 9.8752-1.949 1.7108-4.375 2.707-6.692 3.6598-2.794 1.1694-5.825 2.2306-8.836 2.3389-1.451.0433-2.88-.1733-4.309-.4981 3.335 4.7859 7.991 7.7312 13.102 7.6662 7.125-.0866 13.253-6.0204 16.112-14.5528.086.0216.173.0433.26.0433.931.0866 1.905-.4331 2.425-1.321.282-.4764.433-1.0178.563-1.5376.758-2.9235 1.3-5.9121 1.603-8.9439-.022-.9529.043-1.7975-.109-2.6204z" fill="#b45f00" opacity=".36"/><path d="m150.123 31.984c-.151-.8229-.541-1.6242-1.169-2.0356-.91-.6064-.325-1.8841-.996-1.451-.39-2.4688-1.798-4.5694-3.508-6.3235l-2.318-.4981c5.025 6.1719 5.891 16.0037 1.516 22.1973-1.494 2.1007-1.884 1.0828-4.114 1.9707-.802.3249-1.646.5198-2.491.7147-.368.3898-.736.7363-1.148 1.0828-1.97 1.6675-4.374 2.707-6.691 3.6598-2.794 1.1695-5.826 2.2306-8.836 2.3389-1.451.0433-2.88-.1733-4.309-.4981 3.335 4.786 7.991 7.7312 13.101 7.6662 7.125-.0866 13.254-6.0203 16.112-14.5528.087.0217.174.0433.26.0433.932.0866 1.906-.4331 2.426-1.321.281-.4764.433-1.0178.563-1.5376.758-2.9235 1.299-5.9121 1.602-8.9439.087-.8446.152-1.6892 0-2.5121z" fill="#b45f00"/><g fill="#e2a040" opacity=".36"><path d="m124.179 21.8926c0 .2166.065.4331.173.628.281.5414.78.9096 1.299 1.1478.13.065.282.1083.433.0866 1.365-.1732-.324-2.0356-.801-2.2739-.433-.2165-1.083-.3464-1.104.4115z" opacity=".36"/><path d="m118.18 30.0139c.152-.3032.736-.3248.975-.2599.281.065.628.0867.693.4765.043.3898-.304.6063-.607.6063-.238 0-.866-.1082-.996-.3681-.108-.1949-.13-.3465-.065-.4548z" opacity=".36"/><path d="m136.544 30.5117c0-.3248.499-.6713.758-.7579.282-.0866.585-.2599.802.0433.216.3248 0 .693-.26.8446-.195.1299-.801.3681-1.04.2165-.195-.0866-.26-.2165-.26-.3465z" opacity=".36"/><path d="m117.076 34.9079c.26.0216.52-.1516.671-.3682.065-.1083.13-.2165.13-.3465 0-.065-.022-.1299-.043-.1732-.173-.4548-.845-.5414-1.17-.2599-.476.3681-.086 1.1261.412 1.1478z" opacity=".36"/><path d="m142.261 34.258c.26.0216.52-.1516.672-.3682.065-.1083.13-.2166.13-.3465 0-.065-.022-.1299-.044-.1732-.173-.4548-.844-.5414-1.169-.2599-.455.3681-.065 1.1261.411 1.1478z" opacity=".36"/></g><path d="m127.557 30.0997c-.671-2.2089-3.053-3.3134-5.695-3.8331-.607.1732-1.235.3682-1.819.4981-1.04.2382-2.079.4331-3.075.8446-.737.3032-1.43.6713-2.101 1.0828.022.1949.043.3032.087.3032 7.384-.9746 10.719 1.0394 10.741 3.8331 0 3.3999-2.75.5847-16.892 5.9553l2.144 7.2115c2.296-.9096 4.57-1.8624 6.822-2.8803 8.294-3.7464 12.257-4.9592 9.788-13.0152z" fill="#b45f00" opacity=".36"/><path d="m124.655 25.5956c-.628-.13-5.219-.1949-9.637 3.0751-.043.0217-.065.0433-.108.065-.022.0216-.043.0216-.043.0433 0 0-.022.0216-.044.0216-.086.065 0 .2599.109.1949.065-.0433.13-.0866.173-.1299 4.396-2.3821 7.038.3032 9.68-1.0395.91-.4547 1.105-1.949-.13-2.2305z" fill="#323147"/><path d="m143.865 28.974c-1.061-.8229-2.902-.9961-4.071-1.6891-.693-.4115-.997-.1733-1.733-.4765-.78-.3031-1.559-.5847-2.36-.8229-.195-.0649-1.105-.628-1.3-.5847-.238.065-.52.628-.779 1.386l-.412-.1516c-2.36 4.9809-2.425 7.7745-2.425 12.2573 0 .3465 1.581.4114 1.71.7363.109.3032.282.563.455.8013.498.628 1.191 1.1477 1.928 1.191.758.0433 1.559-.4548 1.775-1.2777.065-.3032.065-.6063.044-.9095-.13-1.321-1.213-3.9198-1.365-4.028-.216-.1516-4.439-5.4573 5.133-6.7784 1.083-.1515 2.425-.0216 3.465.5198 0-.065-.022-.1516-.065-.1733z" fill="#b45f00" opacity=".36"/><path d="m133.99 27.6746c2.599 1.4292 5.284-1.1911 9.593 1.3426.065.0433.109.0866.174.1516.151.1299.26-.1299-.065-.3248-4.331-3.4433-8.901-3.5083-9.529-3.4-1.213.2382-1.039 1.7541-.173 2.2306z" fill="#323147"/><path d="m119.09 31.3345c-.021.1516-.043.3032-.043.4764 0 .9529.433 1.7325.953 1.7325.519 0 .953-.7796.953-1.7325 0-.1732-.022-.3248-.044-.4764z" fill="#323147"/><path d="m123.855 33.4567c-.065 0-.152-.0217-.217-.0866-2.122-1.7758-3.573-1.6892-4.981-1.6026-1.277.065-2.469.1516-3.855-1.1694-.129-.1299-.129-.3249-.021-.4548.13-.1299.325-.1299.455-.0216 1.191 1.1261 2.144 1.0611 3.378.9961 1.473-.0866 3.118-.1732 5.436 1.7542.13.1082.151.3248.043.4547-.043.0867-.152.13-.238.13z" fill="#323147"/><path d="m138.689 31.3345c.021.1516.043.3032.043.4764 0 .9529-.433 1.7325-.953 1.7325s-.953-.7796-.953-1.7325c0-.1732.022-.3248.043-.4764z" fill="#323147"/><path d="m133.925 33.4568c-.087 0-.195-.0433-.239-.1083-.108-.1299-.108-.3465.044-.4547 2.317-1.9491 3.984-1.8408 5.435-1.7542 1.235.065 2.188.13 3.379-.9962.13-.1299.346-.1082.454.0217.13.1299.109.3465-.021.4548-1.386 1.321-2.599 1.256-3.855 1.1694-1.408-.0866-2.859-.1732-4.981 1.6025-.065.0217-.13.065-.216.065z" fill="#323147"/><path d="m124.093 32.612c-.801-2.5338-5.327-2.1873-3.552-2.9236.195-.065 3.054-.1516 3.552 2.9236z" fill="#b45f00" opacity=".36"/><path d="m116.426 56.2387c-.151-.1083-2.793-.8013-2.793-.628 0 .1732 2.079 5.977 2.23 6.2152.152.2382 4.05 3.3134 4.05 3.3134s2.49-2.2306 2.49-2.4038c0-.1733-.303-1.9924-.303-1.9924z" fill="#21212b"/><path d="m147.569 52.4922c1.277-3.2484 2.165-13.47 2.165-13.47-21.049-5.3274-20.66-5.3274-41.579.5197 0 0 .325 2.9669.823 6.1936.411.8013.909 1.6026 1.277 2.3605.715 1.4293 1.451 2.8153 2.144 4.2446.607 1.256 1.235 2.4904 1.949 3.6815.065.0866.152.1733.217.2599 2.079 2.5337 5.089 4.1146 7.839 5.5223.953.4764 1.906.8445 2.859 1.0828 2.989.0433 6.107-.0217 9.074-.1516 3.097-.5631 6.193-1.3644 9.03-2.9019 1.148-.6281 2.144 1.1261 1.278 1.9057 1.451-.2599 2.685-.5414 3.573-.8879l-.043-3.5516c-.91-1.2127-1.473-2.577-.606-4.8076z" fill="#464558"/><path d="m147.568 52.492c1.278-3.2484 2.166-13.47 2.166-13.47-9.854-2.4905-15.008-3.8332-19.837-3.9414-.195.7579-.433 1.5159-.693 2.2522-.671 1.8191-1.646 3.5949-3.097 4.8726-1.667 1.4942-4.006 2.3388-6.215 2.3172-3.292-.0433-4.699-3.2701-4.743-6.9299-1.234.3465-5.587 1.5592-7.016 1.949 0 0 .325 2.9669.823 6.1936.411.8013.909 1.6025 1.277 2.3605.715 1.4293 1.451 2.8153 2.144 4.2446.607 1.256 1.235 2.4904 1.949 3.6815.065.0866.152.1732.217.2599 2.079 2.5337 5.089 4.1146 7.839 5.5222.953.4765 1.906.8446 2.859 1.0828 2.989.0433 6.107-.0216 9.074-.1516 3.097-.563 6.193-1.3643 9.03-2.9019 1.148-.628 2.144 1.1261 1.278 1.9058 1.451-.2599 2.685-.5414 3.573-.8879l-.043-3.5516c-.888-1.2127-1.451-2.5771-.585-4.8076z" fill="#323147"/><path d="m110.277 48.0961c.714 1.4293 1.451 2.8153 2.144 4.2446.606 1.256 1.234 2.4904 1.949 3.6815.065.0866.151.1732.216.2598 2.079 2.5338 5.089 4.1147 7.84 5.5223.952.4764 1.905.8446 2.858 1.0828 1.3.0217 2.599.0217 3.92 0-.108-.0433 3.248-1.8841 3.14-1.9274-2.815-1.1694-12.539 1.9274-18.018-14.0114-.888-2.5987-1.516-5.2624-1.884-7.991-.021-.1949-.043-.3898-.065-.5847-1.602.4547-3.4.9528-4.223 1.1694 0 0 .325 2.9669.823 6.1936.433.8229.91 1.6025 1.3 2.3605z" fill="#2b2b37"/><path d="m130.005 62.8653c.043-.0433.086-.1082.108-.1732.628-.9312 1.105-1.9707 1.299-3.0968.217-1.2561.087-2.5338-.173-3.7465-.238-1.1261-.606-2.2306-.693-3.3783-.086-1.0179.173-1.9924.563-2.9452.39-.9312.888-1.7975 1.148-2.772.195-.758.303-1.5592.238-2.3388-.043-.8013-.26-1.6675-.844-2.2523-.498-.5197-1.581-.9745-2.253-.4981-.563.3899-.628 1.2778-.693 1.9274-.086.8446-.238 1.6459-.606 2.4255-.411.9096-1.018 1.7108-1.559 2.5338-.628.9528-1.17 1.9706-1.408 3.0968-.498 2.2089.13 4.3095 1.256 6.1936.867 1.4293 1.863 2.8802 2.274 4.5261.043.1732.065.3248.108.498.434.0217.845.0217 1.235 0z" fill="#2b2b37"/><path d="m147.568 52.4922c1.278-3.2484 2.165-13.47 2.165-13.47.022-.2815-9.117-2.2739-10.113-2.4904-2.339-.5198-4.916-1.2128-7.32-1.2994.022 2.0357-.584 4.9376 1.365 6.3885.389.2816.844.4765 1.234.7363 2.252 1.4943 1.949 4.8293.238 5.9121-.693.4331-1.819.6713-1.039 1.8191.411.5847 1.039 1.0178 1.559 1.4726.433.3682.953.8013 1.104 1.386.109.4548.022.9096-.194 1.2994 1.472 3.5299-6.865 8.5324-18.755 4.8942 1.495 1.0178 3.097 1.8624 4.613 2.642.953.4765 1.906.8446 2.859 1.0828 2.988.0433 6.107-.0216 9.074-.1516 3.096-.563 6.193-1.3643 9.03-2.9019 1.148-.628 2.144 1.1262 1.278 1.9058 1.451-.2599 2.685-.5414 3.573-.8879l-.043-3.5516c-.931-1.1911-1.494-2.5554-.628-4.786z" fill="#2b2b37"/><path d="m147.568 52.4923c1.278-3.2484 2.166-13.47 2.166-13.47.021-.3465-4.202-1.1694-4.548-1.2344-.585-.1299-1.17-.2815-1.776-.4114-.216-.0434-.606-.2166-.823-.1949-.303.0433-.325.3031-.476.563-.65 1.1694-1.191 2.0357-1.126 3.465v.1516c.086 1.321.541 2.577.844 3.8547.195.8013.347 1.6242.26 2.4255-.281 2.5987-2.707 4.3528-3.703 6.7566-.303.7364-.455 1.5376-.866 2.2306-.78 1.2994-2.296 1.9274-3.292 3.0535-.498.5631-.866 1.256-1.473 1.6892-.693.4981-1.581.5847-2.425.5414-.671-.0217-1.429-.2383-2.079-.13-.238.0433-4.201 1.0179-9.117-1.7541 2.923 5.7821 11.088 3.3567 14.011 2.8802 3.508-.5847 7.038-1.3643 10.243-3.1184 1.213-.6714 2.274 1.386 1.062 2.0573-.022.0217-.065.0217-.087.0433 1.581-.3465 2.902-.7146 3.876-1.0611l-.043-3.5516c-.931-1.1911-1.494-2.5554-.628-4.786z" fill="#21212b"/><path d="m143.237 5.97517c-10.352-8.29424-18.256-7.49297-27.525-.43312-4.006 3.05349-7.493 6.92995-9.767 11.43435-1.841 3.6382-2.555 7.6879-2.664 11.7375-.043 2.079.087 4.1363.217 6.1936.043.8013-.043 1.516.087 2.2956.303 1.7108.584 3.4216.584 5.1541 0 2.0573-.26 3.9847-.065 6.0637.087.9095.174 1.8191.26 2.7286.065.6497.13 1.2994.347 1.8841.368.9745 1.126 1.7541 1.602 2.6637.542 1.0611.715 2.2738 1.256 3.335.455.9095.867 2.2305 1.56 2.9668.454 1.2561 1.061 2.4472 1.689 3.6166.498.9095.974 1.8408 1.494 2.7286.022.0434.065.1083.087.1516 4.396 1.0395 11.087 3.6816 14.661 3.7465 1.732.0217 2.23-.3681 1.646-2.6203l-.91.0216-.022-1.4293c-.086-.0866-.173-.1732-.26-.2599-.628-.6713-1.364-1.191-2.165-1.5808-6.454-3.1402-12.279-10.3733-14.466-16.87-2.967-8.814-.217-21.2445 4.071-26.312 7.298-8.5975 20.313-8.879 27.85-.3032 5.067 5.7605 7.189 15.484.043 28.9107-.238.6497-.455 1.2777-.693 1.9274-.758 2.0789-1.603 4.1146-2.729 5.977-1.061 1.7542-2.339 3.3783-3.746 4.786-.672.6713-1.43 1.2127-2.014 1.9923-.303.3898-.585.8013-.888 1.1478l.022 1.2994c4.374-.0867 8.749-.4115 13.101-.9746.585-1.1261 1.235-2.2305 1.733-3.3999.541-1.2561 1.061-2.5988 1.386-3.9414.022-.0867.043-.1516.065-.2382-2.404-7.493 12.669-39.5438-5.847-54.39983z" fill="#464558"/><path d="m111.706 17.7341c2.663-.1299 5.37-1.7541 6.67-4.0929 1.754-3.1402.476-6.23697-1.603-8.87899-.346.25987-.693.51974-1.061.77961-3.573 2.72865-6.67 6.06368-8.9 9.83178 1.407 1.2777 2.836 2.4688 4.894 2.3605z" fill="#575770"/><path d="m109.605 57.7544c.087 1.3427.043 2.4471-.217 3.2484-.086.2815-.216.563-.346.8229.476 1.3427 1.104 2.5987 1.754 3.8331.498.9096.975 1.8408 1.494 2.7287.022.0433.065.1082.087.1516 4.396 1.0394 11.088 3.6815 14.661 3.7464 1.278.0217 1.884-.1949 1.884-1.2343-11.456-6.3886-17.173-5.0026-19.317-13.2968z" fill="#323147"/><path d="m146.962 65.3127c.541-1.1262 1.061-2.2739 1.516-3.4433.216-.5414.346-1.1262.519-1.6892-1.71-6.6917 8.468-30.3184.564-46.3438.259 2.772.043 5.544-.802 8.186-.671 2.1223-1.667 4.1363-2.815 5.977 2.382 5.7822 2.231 13.7732-3.118 23.8432-.239.6497-.455 1.2777-.693 1.9274-.758 2.079-1.603 4.1147-2.729 5.9771-1.061 1.7541-2.339 3.3783-3.747 4.7859-.671.6714-1.429 1.2128-2.014 1.9924-.476.6497-.931 1.321-1.581 1.7758v.6713c4.548-.065 9.096-.3681 13.6-.9745.455-.8879.867-1.7758 1.3-2.6853z" fill="#323147" opacity=".32"/><path d="m141.483 18.774c-.152-1.6242-1.126-3.1834-2.296-4.1146-1.018-.823-2.274-1.1478-3.508-1.2128-2.577-.1299-5.089.7147-7.645.9096-1.451.1083-2.858-.2166-4.309-.3465-1.711-.1733-3.249.2382-4.57 1.5376-1.234 1.2343-2.143 2.8152-3.205 4.2229-1.039 1.3643-2.295 2.4687-3.443 3.7031-1.061 1.1478-2.079 2.3822-2.815 3.8331-.368.7363-.672 1.516-.888 2.3389-.238.9312-.368 1.9057-.585 2.8369-.455 1.9491-1.126 3.8331-1.407 5.8038-.13.9529-.13 1.8841-.13 2.8369.779 4.916 1.819 9.442 2.425 13.0586.303.5631.628 1.1044.953 1.6458.888 1.4726 1.862 2.9236 2.382 4.6128.498 1.5592.563 3.335.065 4.8942-.238.7363-.563 1.386-.974 1.9707h.541l.022 1.1694c4.136.9312 9.442 3.7249 13.318 3.7682 1.213.0216 2.49-.1733 3.205-1.0828.173-.2166.238-.823.108-1.4077l-1.017.0217-.022-1.5376c-.065-.065-.13-.1516-.217-.2165-.628-.6714-1.364-1.1911-2.165-1.5809-6.454-3.1401-12.279-10.3732-14.466-16.87-2.967-8.814-.217-21.2445 4.071-26.312 6.757-7.9911 18.472-8.7923 26.139-1.9924.368-.7796.519-1.6242.433-2.4904z" fill="#323147" opacity=".32"/><path d="m110.775 30.2949c-.26.9095-.238 1.8407-.282 2.772 0 .1515-.021.3248-.021.498.541-2.4904 1.321-4.8292 2.252-6.7783-.736 1.1261-1.559 2.1873-1.949 3.5083z" fill="#464558"/><path d="m147.481 65.3772c.542-1.3859 1.148-2.7503 1.581-4.1796.044-.1299.087-.2598.13-.4114-.043-.0866-.065-.1949-.108-.2815-1.256-3.6599 1.862-13.4267 3.075-24.1898-.931 4.9376-5.219 18.9707-5.306 19.1656-4.352 10.9146-9.398 12.0623-13.989 12.0623-.304.3465-.607.6714-1.018.8879-.325.1949-3.075 2.5771-3.4 2.772 5.219 0 12.409-2.1873 17.974-3.2484.39-.8229.737-1.7108 1.061-2.5771z" fill="#323147"/><path d="m114.954 23.2133c5.544-6.5401 14.423-8.2726 21.656-4.9375-.585-.3898-1.169-.7796-1.689-1.2561-.368-.3465-.628-.4114-1.105-.4981-.216-.0433-.389-.0866-.584-.1949-.65-.3248-1.278-.693-1.971-.9095-.303-.0866-.606-.1733-.931-.2382-.044 0-.087 0-.13-.0217-.91-.0866-1.819-.2382-2.729-.2599-.931-.0433-1.841.2166-2.772.2383-1.018.0433-1.884.0433-2.75.6929-.693.5198-1.321 1.0828-2.036 1.5376-1.494.9529-3.032 1.7975-4.201 3.2917-.541.693-.996 1.4943-1.321 2.3389-.087.1949-.801 1.949-1.343 2.577-7.493 8.4459-4.786 28.5209 3.379 38.8941 3.421 4.3745 7.211 6.237 12.582 6.0854.151-1.0612-1.126-2.2089-1.408-2.5338-.693-.7363-1.516-1.2993-2.382-1.7325-6.41-3.1617-12.171-10.3515-14.358-16.805-2.577-7.6229-.845-17.9744 2.447-23.9082.498-.6713 1.3-1.949 1.646-2.3605z" fill="#323147"/><path d="m128.619 14.4425c-.152 0-.282-.0866-.347-.2382-.519-1.321-.325-2.7503-.151-4.1146.13-.95288.238-1.9274.13-2.83695-.044-.32484-.109-.67133-.195-1.01783-.065-.25987-.13-.5414-.173-.82292-.26-1.49427-.065-3.0535.108-4.439478.021-.238216.216-.389807.411-.346495.195.021656.347.238215.325.476433-.173 1.38598-.346 2.79362-.108 4.15794.043.25988.108.49809.151.75796.087.3465.174.71465.217 1.10446.13 1.01783 0 2.05731-.13 3.07518-.173 1.321-.325 2.5554.108 3.6815.087.2165 0 .4548-.195.5414-.065.0216-.108.0216-.151.0216z" fill="#2b2b37" opacity=".0625"/><path d="m142.501 22.2819c-.758-.7363-1.581-1.386-2.448-1.9274.975.7363 1.906 1.6025 2.751 2.5771 5.067 5.7604 7.168 15.4623.043 28.889-.238.6497-.476 1.2994-.693 1.949-.758 2.079-1.603 4.1147-2.729 5.9771-.433.7363-.909 1.4293-1.429 2.1006 4.505-4.2229 8.316-9.2904 10.2-15.6356 2.837-9.442.043-18.3426-5.695-23.9298z" fill="#575770"/><path d="m144.926 57.451c-.498.1733-.801.6714-1.039 1.1261-.325.5847-.672 1.2561-.672 1.9491 0 .628.867.3248 1.56-.7797.346-.563.693-1.0611.779-1.7324.065-.5198-.238-.693-.628-.5631z" fill="#575770"/><path d="m151.184 46.385c-.173-1.4076-.13-2.8153.022-4.2229h-.065l-.866 4.5911c-1.018 2.9452-1.863 5.9554-2.556 9.0089-.194.8445-.368 1.6891-.649 2.512-.931 2.837-2.815 5.1109-4.678 7.3198.303.3681.845.2815 1.278.1299 1.646-.5631 3.183-1.5159 4.461-2.8153.433-.4331.866-.9312 1.083-1.5376.498-1.321.043-2.8585.368-4.2445.238-1.0395.888-1.8841 1.343-2.837.584-1.191.866-2.5554.822-3.9197-.043-1.3643-.411-2.6637-.563-3.9847z" fill="#323147"/><path d="m115.192 63.0605c-.888-1.5376-1.689-3.1401-2.447-4.7427-.217-.4114-.433-.8445-.693-1.256-.109-.1516-.217-.3032-.325-.4548-.477-.3898-.931-.8446-1.3-1.3426-1.299-1.7758-2.447-3.8115-2.728-6.0204-.173-1.2561-.152-2.5554-.26-3.8115-.108-1.321-.152-2.642 0-3.963.195-1.6892.346-3.4.411-5.1108-.043-.2815-.13-.5631-.216-.8446-.087-.2599-.433-2.2739-.52-2.2739h-1.278c.174 1.516.434 3.0319.563 4.4828.217 2.5338.282 5.1108-.108 7.6446-.216 1.3426-.541 2.7503-.086 4.0063.173.4981.454.9096.714 1.3644 1.213 2.1222 1.819 4.6776 1.668 7.1897-.044.758-.39 1.8191-.217 2.5554.607 2.772 6.908 5.3924 8.511 5.2841-.606-.8446-1.169-1.7758-1.689-2.707z" fill="#464558"/><path d="m112.745 58.3392c-.238-.4331-.433-.8663-.693-1.2777-.303-.4981-.693-.8879-1.104-1.321-.044-.0434-.087-.1083-.13-.1516 0 .0433.022.0866.022.1299.541 2.9236 1.191 6.2586 2.533 9.0305 1.473.758 2.881 1.0612 3.53 1.0395-1.321-1.8407-2.837-4.6344-4.158-7.4496z" fill="#323147" opacity=".32"/><path d="m118.267 67.4781c-3.421-3.0534-6.561-6.4534-8.922-10.3948-2.339-3.9414-3.855-8.4458-3.79-13.0369 1.04 2.4255 2.058 4.8509 3.097 7.2764 1.559 3.7032 3.205 7.493 6.064 10.3082.844.8446 1.797 1.5809 2.533 2.5121.737.9529 1.235 2.1656 1.018 3.335z" fill="#323147"/><path d="m132.842 70.0767c3.617-2.8153 6.995-5.9771 9.615-9.7452 2.621-3.7682 5.263-8.8357 5.523-13.4267-1.624 4.656-4.05 11.4776-11.196 17.5846-.91.7796-1.906 1.451-2.707 2.3389-.78.8879-1.386 2.0573-1.235 3.2484z" fill="#323147"/><path d="m105.859 67.1755c.39 1.2777 1.126 2.3822 1.862 3.4866.78 1.1478 1.559 2.3389 2.642 3.1835 1.083.8662 2.404 1.3426 3.725 1.7541 3.118.9745 6.345 1.5592 9.594 1.7758 2.945.1949 5.89.0649 8.814.4981 2.209.3248 4.439.9528 6.67.7363 1.516-.1516 2.988-.693 4.396-1.2994 2.295-1.0178 4.569-2.2955 6.193-4.2879 1.603-1.9923 2.448-4.8076 1.603-7.2547-.195-.5847-.628-1.2344-1.234-1.1911-.369.0217-.672.3248-.953.5847-4.44 4.4178-10.049 7.8395-16.177 8.3809-1.538.1299-3.075.0866-4.591.0216-1.148-.0433-2.296-.0866-3.422-.3465-1.559-.3681-2.989-1.1477-4.504-1.6242-1.56-.4764-3.227-.628-4.765-1.2127-2.945-1.1261-5.089-3.7465-7.103-6.2369-.801-.9962-1.018-2.079-1.581-3.0968-1.429 1.4942-1.754 4.1796-1.169 6.1286z" fill="#75a152"/><path d="m151.335 65.7459c-.194-.5847-.628-1.2344-1.234-1.1911-.368.0216-.671.3248-.953.5847-4.439 4.4178-10.048 7.8395-16.177 8.3809-1.537.1299-3.075.0866-4.591.0216-1.148-.0433-2.295-.0866-3.422-.3465-1.104-.2599-2.143-.7363-3.205-1.1477.888 1.6458 1.213 3.6165.109 5.1324.606.065 1.191.13 1.797.1516 2.945.1949 5.891.065 8.814.4981 2.209.3248 4.44.9529 6.67.7363 1.516-.1516 2.989-.693 4.396-1.2994 2.296-1.0178 4.57-2.2955 6.194-4.2878 1.602-1.9491 2.447-4.786 1.602-7.2331z" fill="#568040" opacity=".37"/><path d="m151.336 65.7459c-.195-.5847-.629-1.2344-1.235-1.1911-.368.0217-.671.3249-.953.5847-4.439 4.4179-10.048 7.8395-16.177 8.3809-1.537.1299-3.075.0866-4.591.0217-1.148-.0434-2.295-.0867-3.421-.3465-1.56-.3682-2.989-1.1478-4.505-1.6242-1.559-.4765-3.227-.6281-4.764-1.2128-2.945-1.1261-5.089-3.7465-7.103-6.2369-.802-.9962-1.018-2.079-1.581-3.0968-.195.2166-.368.4331-.542.693.26 1.6892 1.386 3.2051 2.079 4.6993.845 1.8841 1.365 3.9198 2.751 5.479 1.277 1.4293 2.902 2.1872 4.721 2.4688.909.1299 1.84.1516 2.75.2815.888.1299 1.754.3682 2.642.5198.974.1515 1.949.1732 2.924.3248.974.1299 1.927.3032 2.901.4115.91.1082 1.798.2165 2.686.4331 1.018.2382 2.014.5197 3.053.6063 1.798.1516 3.747.2383 5.523-.1082.974-.1949 1.927-.5414 2.901-.7797.434-.1082.888-.1732 1.321-.3031.369-.1083.715-.2816 1.083-.3465.693-.1083 1.278.2598 1.733.8445 1.581-.8445 3.032-1.9057 4.158-3.2917 1.646-1.9273 2.49-4.7643 1.646-7.2114z" fill="#568040"/><path d="m110.817 68.6916c.325.9528.672 1.949 1.343 2.707.758.8229 1.862 1.2776 2.902 1.5375 2.122.5414 4.396.5847 6.54.823 1.884.1949 3.682.1082 5.479-.2383-.715-.0433-1.429-.1299-2.122-.2815-1.56-.3681-2.989-1.1478-4.505-1.6242-1.559-.4764-3.226-.628-4.764-1.2127-2.404-.9096-4.266-2.837-5.977-4.8726.455 1.0178.758 2.1006 1.104 3.1618z" fill="#3e5c2e"/><path d="m131.022 74.9497c1.278.5197 2.642.5847 4.006.4981 1.365-.0867 2.772-.1733 4.115-.4331 1.234-.2383 2.426-.5414 3.66-.7147 1.256-.1949 2.49-.3465 3.638-.9095.931-.4548 1.928-.9746 2.664-1.7542.844-.8879 1.104-2.1006 1.278-3.2917.173-1.2127-.044-2.5121.108-3.7032-.13-.0649-.26-.0866-.39-.0649-.368.0216-.671.3248-.953.5847-4.439 4.4178-10.048 7.8394-16.177 8.3808-1.408.13-2.815.0867-4.244.0434.736.498 1.472 1.0394 2.295 1.3643z" fill="#3e5c2e"/><path d="m151.488 56.9969c-.867-.0216-.867-.9312-1.083-.0649-4.245 17.4763-27.308 13.0585-29.452 12.712-6.952-1.1261-10.092-4.3961-11.586-7.5579-.173-.1299-.347-.3032-.477-.4981-.346-.4981-.584-1.1478-.758-1.8191-.346-.5414-.519-1.1694-.801-1.7758-.346-.7146-.779-1.4942-1.083-2.2739-1.039 3.7465.52 15.4841 17.628 18.9707 13.947 2.8586 29.106-3.3351 27.612-17.693z" fill="#75a152"/><path d="m151.487 56.997c-.866-.0217-.866-.9312-1.082-.065-4.245 17.4764-27.309 13.0585-29.452 12.7121-6.194-.9962-9.356-3.7032-11.045-6.5185-.325-.2166-.628-.4548-.845-.7796-.563-.8662-.996-1.7975-1.321-2.772-.216-.6063-.411-1.2344-.563-1.8624-.346-.628-.671-1.3643-.931-2.0573-.974 3.8764.693 15.5706 17.628 19.0356 13.947 2.8586 29.106-3.335 27.611-17.6929z" fill="#75a152"/><path d="m107.981 62.2593c-.26-.7146-.455-1.4509-.563-2.2089-.13-.5197-.303-1.1911-.693-1.6025-.043-.0433-.108-.0866-.173-.1083-.109-.0217-.217.0433-.282.1516s-.065.2166-.065.3465c.022.628.433 1.1694.65 1.7541.173.4764.238.9962.346 1.5159.109.4981.238 1.0179.563 1.4293.087.1083.217.2166.347.1949.151-.0216.238-.1732.26-.3248 0-.1516-.044-.3032-.109-.4548-.108-.2165-.195-.4548-.281-.693z" fill="#aed888"/><path d="m110.666 67.3269c0 .065 0 .13.022.1733.043.1299.195.1949.325.2382.086.0216.173.065.238.065.086 0 .173-.0217.216-.1083.044-.0433.044-.1083.044-.1733 0-.1516-.022-.3248-.109-.4547-.281-.3465-.693-.1516-.736.2598z" fill="#aed888"/><path d="m131.715 71.5718c-.324 0-.671.0216-.996.1083-1.494.3465-3.465.693-4.158 1.6675-.281.3898-.389 1.0828.282 1.2777.693.1949 1.408-.2816 1.884-.8446.498-.5847.541-1.1478 4.634-.9096z" fill="#568040"/><path d="m151.487 56.9969c-.866-.0216-.866-.9312-1.082-.065-3.704 15.2242-21.656 13.8382-27.655 12.9936 1.603.5414 3.227.9312 4.786 1.6242 1.364.628 2.815 1.3427 3.79 2.5554.303.3682.52.7796.671 1.2128 11.066-.4765 20.682-6.7567 19.49-18.321z" fill="#568040" opacity=".37"/><path d="m114.716 69.7091c3.14 1.9491 6.951 2.079 10.503 2.3389 8.099.628 19.902 3.4649 22.674-5.5656.173-.6064 4.439-1.4293 3.616-9.507-.866-.0216-.866-.9312-1.083-.0649-4.244 17.4763-27.308 13.0585-29.452 12.712-5.998-.9745-9.16-3.5299-10.871-6.2586.801 2.6204 2.447 4.9809 4.613 6.3452z" fill="#568040"/><path d="m119.263 69.7519c1.538.2815 3.097.3032 4.635.3248-1.494-.1732-2.556-.3681-2.945-.4331-3.704-.6064-6.302-1.7975-8.186-3.2701 1.732 1.7975 4.158 2.9452 6.496 3.3784z" fill="#3e5c2e"/><path d="m131.174 70.5317c3.725.3682 7.515.4548 11.023-1.1477.823-.3682 1.667-.8663 2.339-1.4943.606-.5847.996-1.3427 1.667-1.8841 1.235-.9961 2.75-1.3859 3.617-2.8369.974-1.6458.108-3.5083-.347-5.3923-.584 8.1859-12.257 12.5388-19.793 12.6254.519.0433.996.0866 1.494.1299z" fill="#3e5c2e"/><path d="m106.681 66.3742c.108.1516.26.2599.346.4115.087.1732.087.3898.109.6064.021.2165.065.4331.238.5414.108.0649.238.0866.368.0866.043 0 .087 0 .13-.0217.043-.0216.087-.0649.108-.1083.325-.6063-.108-1.5592-.498-2.014-.151-.1949-.563-.6496-.823-.4981-.303.1516-.151.7797.022.9962z" fill="#aed888"/><path d="m128.143 71.9396c-.65 0-1.278.0866-1.906.2382-.65.1516-1.321.4115-1.711.9745-.043.065-.087.1516-.108.2382-.044.2383.151.4765.368.5414.216.065.455 0 .671-.0866.823-.3248 1.494-.9962 2.361-1.1044.346-.0434.714.0216 1.061.0433.346.0216.736.0216 1.039-.1516.174-.0866.498-.3465.498-.5631-.021-.2382-.346-.1299-.476-.1299-.606.0433-1.213 0-1.797 0z" fill="#568040"/></svg>