<?xml version="1.0" encoding="UTF-8"?>
<svg width="288px" height="224px" viewBox="0 0 288 224" version="1.1" xmlns="http://www.w3.org/2000/svg" xmlns:xlink="http://www.w3.org/1999/xlink">
    <title>0061f741-8274-451e-822a-bd15cc93b3d0@1.00x</title>
    <defs>
        <path d="M1.12225736,19.140672 C0.248934662,15.0598363 0.0113789086,10.8675817 0.418070353,6.71356279 C1.17142745,0.476510565 1.40655259,1.13804776 1.40655259,1.13804776 C2.76432895,0.844320777 4.14387367,0.663368449 5.5312102,0.59702405 C6.83601405,0.481130884 8.1305173,0.911838181 9.10843088,1.78723741 C9.53112114,1.82258574 9.87686867,2.13990546 9.94996734,2.55958165 C10.4948046,5.69079103 12.6865206,18.1185344 13.2822586,18.8822092 C13.9642522,19.7564151 1.12225736,19.140672 1.12225736,19.140672 Z" id="path-1"></path>
        <path d="M1.12225736,19.140672 C0.248934662,15.0598363 0.0113789086,10.8675817 0.418070353,6.71356279 C1.17142745,0.476510565 1.40655259,1.13804776 1.40655259,1.13804776 C2.76432895,0.844320777 4.14387367,0.663368449 5.5312102,0.59702405 C6.83601405,0.481130884 8.1305173,0.911838181 9.10843088,1.78723741 C9.53112114,1.82258574 9.87686867,2.13990546 9.94996734,2.55958165 C10.4948046,5.69079103 12.6865206,18.1185344 13.2822586,18.8822092 C13.9642522,19.7564151 1.12225736,19.140672 1.12225736,19.140672 Z" id="path-3"></path>
        <path d="M18.5870232,29.4790126 C18.5847306,29.8336099 18.5103988,30.1840048 18.3685803,30.5087378 C17.918919,31.3719465 16.7425952,31.454455 15.7732239,31.4230601 L9.06642347,31.2058553 C8.92632579,31.2147772 8.78669761,31.1822501 8.66481078,31.1122975 C8.57431802,31.0349484 8.50479097,30.935848 8.46270834,30.8242305 C6.74108667,27.1710671 6.12776778,23.0832031 4.54931872,19.3653699 C3.67213024,17.2993094 2.50093135,15.3575673 1.7920353,13.2273293 C1.05622504,10.6359496 0.670091328,7.95707305 0.643980519,5.26247944 C1.90017563,5.26011044 3.15512234,5.18281534 4.40219468,5.03100222 C7.97253007,4.6681636 11.6664889,4.26642462 14.7687651,2.45455178 C16.03771,1.71343078 17.3698778,0.506296443 18.8860546,0.358767583 C19.1961233,1.05865303 19.0286627,2.30045746 19.0576672,3.08366456 C19.0933637,4.04631511 19.1232768,5.00916212 19.1474063,5.97220561 C19.1945412,7.8534485 19.2195893,9.73507437 19.2225504,11.6170832 C19.2285666,15.4255471 19.144205,19.2327278 18.9694655,23.0386252 C18.8708084,25.1870076 18.7433277,27.3338035 18.5870232,29.4790126 Z" id="path-5"></path>
        <path d="M1.0581717,29.5716166 C1.06211865,29.9262012 1.13808043,30.2762449 1.2814054,30.6003122 C1.7350849,31.4613648 2.91178758,31.5383672 3.88099543,31.5024213 L10.5867114,31.2537023 C10.72685,31.2619666 10.8663261,31.2287831 10.9878859,31.1582569 C11.0780152,31.0804841 11.1470794,30.9810606 11.188644,30.8692498 C12.8932567,27.2080288 13.4874943,23.1173298 15.0486224,19.3921179 C15.9161551,17.3219539 17.0783073,15.3747281 17.7772802,13.2411851 C18.5010127,10.6463746 18.8746632,7.96571119 18.8882197,5.27102315 C17.6320266,5.27456228 16.3767326,5.20316906 15.1289657,5.05722045 C11.5569814,4.71116105 7.86119547,4.32681309 4.7505113,2.52951855 C3.4781275,1.79436614 2.14033707,0.593498838 0.623506606,0.453102455 C0.316698607,1.1544129 0.4899749,2.39544142 0.464557973,3.17877535 C0.433362447,4.14158506 0.407938093,5.1045614 0.388284912,6.06770436 C0.349904511,7.9491462 0.333620942,9.83087155 0.339434204,11.7128804 C0.351154808,15.5213443 0.453248357,19.3280848 0.64571485,23.1331018 C0.754408976,25.2809968 0.891894592,27.4271684 1.0581717,29.5716166 Z" id="path-7"></path>
    </defs>
    <g id="Illustrations" stroke="none" stroke-width="1" fill="none" fill-rule="evenodd">
        <g id="Group-21">
            <rect id="Rectangle" x="0" y="0" width="288" height="224"></rect>
            <g id="Group-20" transform="translate(65.000000, 18.000000)">
                <g id="Group" transform="translate(0.000000, 179.518814)" fill="#B9C5C9" fill-rule="nonzero">
                    <ellipse id="Oval" cx="79.3080295" cy="14.1763789" rx="78.6441664" ry="4.13065884"></ellipse>
                    <path d="M127.491332,3.36010518 C125.866562,5.28442844 125.139502,7.81529181 125.493845,10.31327 C125.586629,8.69946616 126.294583,7.18354284 127.470728,6.08021981 C126.975819,7.2837903 126.896039,8.61908689 127.244092,9.87347372 C127.672586,8.57104981 128.549308,7.46473898 129.716813,6.75321671 C128.880987,7.84594217 129.043447,9.40475841 130.086451,10.2999152 C130.196086,8.31763655 130.629516,6.36696121 131.369389,4.52597411 C131.866754,6.25472222 132.124836,8.04401464 132.136368,9.84346659 C132.671501,8.30938638 133.616687,6.95285968 134.868361,5.92252195 C134.197334,7.51809201 133.827623,9.22511606 133.778092,10.9564985 C134.790266,9.05921404 136.350299,7.51398137 138.253112,6.52393296 C136.83962,8.44910501 135.95006,10.7110873 135.672143,13.0868483 L128.309256,13.2065337 C127.10112,13.2261778 122.619081,13.9699101 121.958419,12.8691884 C121.035247,11.3310281 125.76567,3.36010518 127.491332,3.36010518 Z" id="Path"></path>
                    <path d="M140.602633,9.30022704 C140.951572,10.1337963 141.387032,10.9280885 141.901793,11.6699327 C142.102334,10.6081232 142.221617,9.53244488 142.258596,8.45233525 C142.756039,9.06038187 143.088705,9.7871753 143.224365,10.5623023 C143.444127,8.2593589 143.378829,5.93793199 143.029965,3.65112663 C143.156528,4.61609489 143.415239,5.55886639 143.798756,6.45269027 C144.345849,8.055607 144.634773,9.73595305 144.654628,11.4303381 C145.057817,10.1833492 145.793627,9.07125143 146.782058,8.21495658 C146.974376,9.32592022 146.940698,10.4645001 146.683057,11.5620353 C147.123417,10.2710563 147.999972,9.17575185 149.160524,8.46630177 C148.494172,9.57352815 148.117139,10.8319258 148.064432,12.1246579 C148.604587,11.1249179 149.536492,10.3977553 150.634446,10.119283 C149.643828,11.2010121 148.980507,12.5438325 148.722145,13.9905242 C146.552014,13.4539993 144.27555,13.8434429 142.174204,13.4025276 C140.13502,12.9746536 141.331064,11.0408199 140.602633,9.30022704 Z" id="Path"></path>
                    <path d="M111.929971,13.0810588 C112.957938,11.5311179 113.383816,9.22630593 114.871902,7.84979766 C113.787932,8.71814683 112.425037,9.65364274 111.778695,10.9148526 C111.780053,9.0257143 111.919253,7.13921645 112.195178,5.2705196 C111.044181,5.4849863 110.485224,8.02196192 110.261894,9.04612137 C109.726326,6.96318458 110.198374,4.56031594 110.059465,2.41064275 C108.9857,4.23566889 108.96321,6.50774314 108.398675,8.41762038 C107.516762,7.87417939 107.545997,5.96986041 106.568225,5.25252427 C106.497441,6.4743339 106.891322,7.6928608 106.808735,8.94783346 C105.903493,8.15714324 106.042707,6.74459209 104.592598,6.26211288 C104.47788,7.28144523 105.10416,8.2628919 104.966476,9.33980631 C104.34108,8.55112303 103.78008,7.34204144 102.594019,7.55253902 C102.704124,8.72917382 104.089488,9.51964022 104.300942,10.7821035 C106.126846,10.7227803 107.938511,11.1232884 109.570906,11.9471443 C110.090133,12.2476036 110.569163,12.6529834 111.078898,12.9777573 C111.343674,13.1048733 111.642672,13.1411652 111.929971,13.0810588 Z" id="Path"></path>
                    <path d="M79.1919747,1.01813117 C77.5671994,2.94245457 76.8401367,5.47332165 77.1944806,7.97130343 C77.2872649,6.35749961 77.9952184,4.84157629 79.1713634,3.73825326 C78.6764541,4.94182375 78.5966741,6.27712034 78.9447279,7.53150717 C79.3732189,6.229082 80.2499414,5.12277044 81.4174487,4.41125017 C80.5816219,5.50397562 80.7440819,7.06279187 81.7870859,7.95794869 C81.896721,5.97566748 82.3301504,4.02498955 83.0700242,2.1840001 C83.5673889,3.91275088 83.8254711,5.70204568 83.8370034,7.50150004 C84.3721344,5.96741876 85.3173206,4.61089154 86.5689961,3.5805554 C85.8979693,5.17612546 85.5282586,6.88314952 85.4787274,8.61453194 C86.4909018,6.71724749 88.0509347,5.17201483 89.9537479,4.18196641 C88.5402546,6.10713779 87.6506945,8.36912038 87.3727786,10.7448818 L80.0098917,10.8645671 C78.8017558,10.8842038 74.3197163,11.6279436 73.6590545,10.5272144 C72.7358823,8.98906156 77.466305,1.01813117 79.1919747,1.01813117 Z" id="Path"></path>
                    <path d="M87.9939929,7.17468937 C88.3429391,8.00825664 88.7784016,8.80254837 89.2931603,9.54439498 C89.4937019,8.48258339 89.6129825,7.4069023 89.6499554,6.32679012 C90.1474011,6.93483613 90.4800698,7.66162954 90.6157318,8.4367572 C90.8354944,6.13381377 90.7701964,3.81238689 90.4213317,1.5255815 C90.5478964,2.49055198 90.8066071,3.43332582 91.1901231,4.3271526 C91.7372185,5.93006886 92.0261422,7.6104152 92.0459947,9.30480048 C92.4491799,8.05780736 93.1849909,6.94570606 94.1734256,6.08941145 C94.3657427,7.20037509 94.3320654,8.33895498 94.0744243,9.43649017 C94.5147844,8.14551113 95.3913394,7.05020672 96.5518913,6.34075664 C95.8855391,7.44798302 95.5085064,8.70638069 95.4557994,9.99911274 C95.9959525,8.99937258 96.9278583,8.27221169 98.0258131,7.99374536 C97.0351949,9.07547443 96.3718737,10.4182949 96.1135125,11.8649865 C93.9433808,11.3284542 91.666917,11.7178978 89.5655715,11.2769824 C87.5263868,10.8491085 88.7224307,8.91528221 87.9939929,7.17468937 Z" id="Path"></path>
                    <path d="M72.6339918,1.45899431 C72.8136547,3.53715756 72.7030018,5.63035004 72.3052504,7.67771548 C72.3595498,6.54365161 72.1475026,5.41266035 71.686242,4.37612496 C72.0474526,6.01640576 71.8772512,7.72971747 71.2004831,9.26595982 C70.9119323,8.27816364 70.4838322,7.33704305 69.929258,6.47134214 C69.6763531,7.09593391 69.5994235,7.77838468 69.7068933,8.44396429 C69.8100607,9.11896964 69.565766,9.8005158 69.0579075,10.254539 C69.0675633,8.03007921 67.3413662,6.23374711 65.7343956,4.7031296 C66.4904269,5.77195497 66.764354,7.11077783 66.4892456,8.39247019 C66.2597951,7.75841094 65.9436656,7.04053763 65.2953928,6.86412075 C64.7316237,6.76178491 64.1610924,7.00489151 63.8425355,7.48319136 C63.5389489,7.95649866 63.3321018,8.48572541 63.2340296,9.04007817 C62.9939861,6.70191926 63.2584687,4.3392579 64.0094612,2.11303345 C62.0915331,5.28796711 61.4605274,9.08144149 62.2467283,12.7102148 C64.0465728,12.0644415 65.9873091,11.9221854 67.8614179,12.2986575 C69.8720439,12.5717955 73.5364709,13.8446292 74.2027405,11.0484895 C74.9543521,7.89425627 72.897126,4.49465388 72.6339918,1.45899431 Z" id="Path"></path>
                    <path d="M59.6977939,2.67307461 L59.9676723,8.77560206 L58.6898813,5.72603565 L57.482555,8.36914043 C56.8609414,6.85368454 56.5856378,5.21747663 56.6769157,3.58099559 C55.9089381,6.03173169 55.7238308,8.62922174 56.1364606,11.1648474 C55.1541141,8.8942744 54.5972333,6.4611393 54.4937785,3.98760643 C54.1820602,5.67299964 54.0411637,7.38578321 54.0732479,9.09971194 L52.9638608,7.42299803 L52.3481651,8.9545929 C51.6998678,6.17471305 51.4376657,3.3180899 51.5690197,0.46600587 C51.1143523,3.64479992 50.6586674,6.86136028 50.9776045,10.0567396 C50.5398793,9.0619307 50.2854278,7.9925591 49.8315403,7.00509907 C49.4317517,5.98099101 48.6512067,5.15314807 47.6548799,4.69654176 C48.8730991,5.89586912 49.5184369,7.56388221 49.4261544,9.27477842 C48.4533922,8.6681654 47.3607082,8.28177641 46.2241565,8.14250525 C47.0372682,8.9333936 47.4422402,10.0564959 47.3219419,11.186976 C46.6674526,10.0275786 45.6032635,9.15743548 44.3402364,8.74895972 C45.2986001,10.8047543 47.9028843,11.3612367 50.147499,11.624907 C53.2071636,11.9843212 57.3459632,12.6239014 60.2421187,11.1954663 C62.8116125,9.92812371 60.2568029,4.85967105 59.6977939,2.67307461 Z" id="Path"></path>
                    <path d="M40.2170197,4.35451117 C40.2881892,6.09171532 40.2585106,7.83160936 40.1281347,9.56534477 C39.9173824,7.55329095 39.0364799,5.67165199 37.6281476,4.22528353 C38.0383583,5.55135521 38.0930855,6.96265358 37.7868065,8.31675851 C36.7920816,6.28588966 36.3079488,4.04111514 36.3767613,1.77881426 C35.4715812,4.92814615 35.6520794,8.29227893 36.8889844,11.3256489 C35.4884254,9.91632771 34.661561,8.0329337 34.5700724,6.04373675 L33.8175621,8.5430878 C33.626483,7.91596036 33.5377449,7.2618948 33.5547917,6.60627725 L33.0270897,6.59452657 C32.6470019,7.41105773 32.3735232,8.27349064 32.2134435,9.16041259 L31.51889,6.05516662 C30.7460904,7.40713365 30.4854023,8.99397397 30.7847999,10.5236631 C30.112195,7.99987083 28.8173336,5.68700331 27.019797,3.79865549 C28.7725176,5.63203767 29.0249414,8.40214679 29.1258366,10.94195 C29.1123663,11.1136955 29.1620466,11.2844423 29.2654738,11.4218702 C29.4257292,11.5401947 29.6271211,11.587692 29.8230566,11.5533734 C33.0911594,11.4491989 36.1760181,13.0847668 39.4335069,13.3690736 C44.1020808,13.7765722 41.001706,6.64867669 40.2170197,4.35451117 Z" id="Path"></path>
                    <path d="M8.32823246,5.20746134 C8.23393621,7.02966644 8.29953667,8.85667273 8.52427406,10.6673198 C8.54459572,9.40607269 8.59646942,8.0488803 9.35876181,7.04645401 C9.03939021,8.43121406 9.12363269,9.87905206 9.60142587,11.2170129 C9.74589582,10.1236225 10.3060087,9.12881324 11.1644183,8.44100237 C10.9332916,9.5854946 11.2304528,10.7735619 11.9726647,11.6724171 C12.3118031,9.43178336 12.392365,7.15931987 12.2127514,4.90013069 C13.1684312,7.06300623 13.5205959,9.44621137 13.2315527,11.7946689 C14.1051777,10.8777924 14.8820445,9.87260634 15.5497516,8.79515668 C15.2530269,9.75797307 15.1682198,10.7740744 15.301205,11.7730775 C15.8852867,9.67200517 16.1811069,7.50067912 16.1804732,5.31923083 C17.2363988,7.0605936 17.7138664,9.09405845 17.5438959,11.12585 C18.1925983,10.2917429 18.5439141,9.26311959 18.5415957,8.20466821 L19.5266539,11.9621702 C20.0257925,10.9929734 20.4035089,9.96541207 20.6511783,8.90294959 C20.9605698,9.69359705 21.1273717,10.5332541 21.143778,11.3826267 C21.5447697,9.77833617 21.6256273,8.11018036 21.3816884,6.47434882 C22.3131716,8.19982449 22.7612147,10.1468007 22.6780853,12.1078563 C23.2308602,10.3102633 23.6944678,8.48820404 24.0689082,6.64167851 C23.9144118,8.70215585 24.089795,10.7741884 24.5883805,12.778891 C20.8134173,13.6153081 16.9107307,14.4546947 13.1147626,13.7204376 C11.6400981,13.4351907 10.152584,12.9129756 8.67280933,13.1729976 C8.48438945,13.2173156 8.31645637,13.3244032 8.19635709,13.4768217 C7.06901763,10.5952117 8.18050679,8.05910153 8.32823246,5.20746134 Z" id="Path"></path>
                </g>
                <path d="M120.027593,41.5033017 C119.908749,38.645677 120.195372,36.6610381 120.887462,35.5493851 C121.925598,33.8819056 124.509086,32.5135577 125.007391,32.3291729 C125.505696,32.1447882 127.710422,31.0187369 128.014942,31.0187369 C128.319462,31.0187369 129.686549,31.5410208 129.398493,32.3291729 C129.110437,33.117325 128.590425,33.4001839 128.392865,33.621302 C128.261158,33.7687141 128.135184,33.8819056 128.014942,33.9608763 C129.207784,33.989912 130.124873,33.8767206 130.76621,33.621302 C131.728215,33.2381742 134.617167,31.4705454 135.136235,31.4705454 C135.655302,31.4705454 136.236658,31.5557381 136.236658,31.8479299 C136.236658,32.1401217 137.322191,31.6767069 137.737445,31.6767069 C138.152699,31.6767069 138.782606,31.9600444 138.782606,32.3291729 C138.782606,32.6983014 138.782606,33.0109538 138.782606,33.2083807 C138.782606,33.4058076 139.284686,33.8559409 139.284686,34.2113093 C139.284686,34.5666778 139.130958,34.7691301 138.782606,35.0139394 C138.550371,35.1771457 138.38039,35.2560366 138.272661,35.2506124 C138.54754,36.0139964 138.61626,36.4720268 138.47882,36.6247036 C138.272661,36.8537188 136.225228,38.4867384 134.86223,39.3159314 C133.953565,39.8687267 132.823955,40.3527616 131.4734,40.7680361 C129.62559,41.2582132 128.312576,41.5033017 127.534359,41.5033017 C126.756142,41.5033017 126.368746,41.7815739 126.372172,42.3381184 L126.642087,43.9333277 C125.421701,44.382424 124.535162,44.6069722 123.982468,44.6069722 C123.153428,44.6069722 120.336936,43.919807 120.027593,43.5991378 C119.821364,43.3853584 119.821364,42.6867464 120.027593,41.5033017 Z" id="Path-3" fill="#000000" transform="translate(129.578804, 37.812855) rotate(-8.000000) translate(-129.578804, -37.812855) "></path>
                <g id="Group" transform="translate(122.043911, 52.544144) scale(-1, 1) translate(-122.043911, -52.544144) translate(114.543911, 42.044144)">
                    <g id="Path-+-Path-+-Path-+-Path-+-Path-+-Path-+-Path-+-Path-+-Path-+-Path-+-Path-+-Path-Mask" transform="translate(0.020212, 0.423196)">
                        <mask id="mask-2" fill="white">
                            <use xlink:href="#path-1"></use>
                        </mask>
                        <use id="Mask" fill="#575770" fill-rule="nonzero" xlink:href="#path-1"></use>
                    </g>
                </g>
                <g id="Group" transform="translate(116.029412, 75.227418) scale(-1, 1) translate(-116.029412, -75.227418) translate(101.029412, 54.727418)" fill="#000000" fill-rule="nonzero">
                    <path d="M4.61496215,5.58133442 C7.01885968,3.82288801 12.9214394,2.90999071 15.7350902,6.9320658 C16.1538144,7.55766831 16.518592,8.21804302 16.8254481,8.90599358 C18.2175485,6.45436893 18.1119739,0.935577978 18.1119739,0.935577978 L29.9728249,25.4527794 C29.9728249,25.4527794 22.4841012,36.8175375 18.3616124,39.6184222 C14.4201022,42.2963836 9.39227472,39.7600049 7.49553474,37.3605906 C5.6596706,35.4166102 3.40482827,31.7921036 2.13436076,25.1728819 C1.10795367,19.824957 0.724077871,14.7275194 0.840867978,13.6927134 C1.1100408,11.3069597 2.21106461,7.33978829 4.61496215,5.58133442 Z" id="Path"></path>
                </g>
                <g id="Group-19" transform="translate(30.441176, 63.758923) scale(-1, 1) translate(-30.441176, -63.758923) translate(10.441176, 30.258923)">
                    <path d="M19.0570046,12.4257413 C18.9381609,9.56811655 19.224784,7.58347768 19.9168742,6.47182465 C20.9550093,4.8043451 23.5384979,3.43599722 24.0368028,3.25161246 C24.5351076,3.0672277 26.7398341,1.94117647 27.0443538,1.94117647 C27.3488734,1.94117647 28.7159612,2.46346036 28.4279049,3.25161246 C28.1398486,4.03976457 27.6198372,4.32262347 27.4222769,4.5437416 C27.2905701,4.69115368 27.1645957,4.8043451 27.0443538,4.88331586 C28.2371956,4.91235157 29.1542849,4.79916015 29.7956217,4.5437416 C30.757627,4.16061376 33.646579,2.39298494 34.1656466,2.39298494 C34.6847141,2.39298494 35.2660698,2.47817763 35.2660698,2.77036944 C35.2660698,3.06256125 36.3516027,2.59914648 36.7668568,2.59914648 C37.1821109,2.59914648 37.8120177,2.88248399 37.8120177,3.25161246 C37.8120177,3.62074093 37.8120177,3.93339335 37.8120177,4.13082025 C37.8120177,4.32824715 38.3140977,4.77838047 38.3140977,5.13374889 C38.3140977,5.48911731 38.1603698,5.69156962 37.8120177,5.93637897 C37.579783,6.0995852 37.4098015,6.17847619 37.3020731,6.17305194 C37.5769518,6.93643595 37.6456714,7.39446635 37.5082321,7.54714315 C37.3020731,7.77615835 35.2546399,9.40917793 33.8916418,10.2383709 C32.9829764,10.7911662 31.8533665,11.2752011 30.502812,11.6904756 C28.6550013,12.1806527 27.3419875,12.4257413 26.5637706,12.4257413 C25.7855537,12.4257413 25.398158,12.7040135 25.4015835,13.2605579 L25.6714987,14.8557673 C24.4511131,15.3048636 23.5645736,15.5294118 23.0118802,15.5294118 C22.1828401,15.5294118 19.3663479,14.8422465 19.0570046,14.5215774 C18.8507757,14.3077979 18.8507757,13.6091859 19.0570046,12.4257413 Z" id="Path-3" fill="#000000" transform="translate(28.608215, 8.735294) rotate(-8.000000) translate(-28.608215, -8.735294) "></path>
                    <g id="Group" transform="translate(21.073322, 23.466584) scale(-1, 1) translate(-21.073322, -23.466584) translate(13.573322, 12.966584)">
                        <g id="Path-+-Path-+-Path-+-Path-+-Path-+-Path-+-Path-+-Path-+-Path-+-Path-+-Path-+-Path-Mask" transform="translate(0.020212, 0.423196)">
                            <mask id="mask-4" fill="white">
                                <use xlink:href="#path-3"></use>
                            </mask>
                            <use id="Mask" fill="#464558" fill-rule="nonzero" xlink:href="#path-3"></use>
                        </g>
                    </g>
                    <g id="Group" transform="translate(15.058824, 46.149858) scale(-1, 1) translate(-15.058824, -46.149858) translate(0.058824, 25.649858)" fill="#000000" fill-rule="nonzero">
                        <path d="M4.61496215,5.58133442 C7.01885968,3.82288801 12.9214394,2.90999071 15.7350902,6.9320658 C16.1538144,7.55766831 16.518592,8.21804302 16.8254481,8.90599358 C18.2175485,6.45436893 18.1119739,0.935577978 18.1119739,0.935577978 L29.9728249,25.4527794 C29.9728249,25.4527794 22.4841012,36.8175375 18.3616124,39.6184222 C14.4201022,42.2963836 9.39227472,39.7600049 7.49553474,37.3605906 C5.6596706,35.4166102 3.40482827,31.7921036 2.13436076,25.1728819 C1.10795367,19.824957 0.724077871,14.7275194 0.840867978,13.6927134 C1.1100408,11.3069597 2.21106461,7.33978829 4.61496215,5.58133442 Z" id="Path"></path>
                    </g>
                </g>
                <path d="M98.2170565,183.999144 L100.351284,192.574245 C100.430543,192.893782 100.714276,193.119499 101.042086,193.123797 C104.452552,193.168166 122.435161,193.401478 123.46188,193.401478 C124.596476,193.401478 124.310562,191.214196 122.894582,190.552285 C119.383979,188.911226 110.632512,186.141237 108.738632,184.23888 C106.618881,182.109597 98.2170565,183.999144 98.2170565,183.999144 Z" id="Path" fill="#575770" fill-rule="nonzero"></path>
                <g id="Group" transform="translate(89.872825, 153.406191)">
                    <g id="Path-+-Path-+-Path-+-Path-+-Path-+-Path-+-Path-+-Path-+-Path-+-Path-+-Path-+-Path-Mask" transform="translate(0.168915, 0.331419)">
                        <mask id="mask-6" fill="white">
                            <use xlink:href="#path-5"></use>
                        </mask>
                        <use id="Mask" fill="#575770" fill-rule="nonzero" xlink:href="#path-5"></use>
                    </g>
                </g>
                <path d="M55.7684351,184.720277 L53.6342081,193.295387 C53.5549515,193.61492 53.2712197,193.840636 52.9434128,193.84493 C49.5329397,193.889299 31.5503306,194.122612 30.5236116,194.122612 C29.3890155,194.122612 29.6749299,191.935329 31.0909171,191.273419 C34.6015205,189.63236 43.3529871,186.86237 45.2468601,184.960013 C47.3666926,182.83073 55.7684351,184.720277 55.7684351,184.720277 Z" id="Path" fill="#464558" fill-rule="nonzero"></path>
                <g id="Group" transform="translate(95.072080, 34.034201)" fill-rule="nonzero">
                    <polygon id="Rectangle" fill="#000000" transform="translate(6.190150, 11.908722) rotate(-63.433260) translate(-6.190150, -11.908722) " points="-3.61828967 9.97366704 16.0055752 9.9386587 15.99859 13.8437761 -3.62527497 13.8787844"></polygon>
                    <polygon id="Path" fill="#4D4D4D" points="8.83650414 2.32924597 12.2345882 4.03551936 10.168256 4.03551936"></polygon>
                    <polygon id="Path" fill="#4D4D4D" points="8.0053662 3.99970777 10.1630568 4.04596441 11.4027075 5.70598116 9.33637531 5.70598116"></polygon>
                    <polygon id="Path" fill="#4D4D4D" points="7.17942751 5.65823236 9.33711806 5.70448901 10.5767688 7.36450576 8.51043662 7.36450576"></polygon>
                    <polygon id="Path" fill="#4D4D4D" points="6.34754681 7.32869416 8.50523737 7.37495081 9.74488815 9.03496755 7.67855592 9.03496755"></polygon>
                    <polygon id="Path" fill="#4D4D4D" points="5.49189809 9.04690475 7.64958865 9.0931614 8.88923944 10.7531781 6.82290721 10.7531781"></polygon>
                    <polygon id="Path" fill="#4D4D4D" points="4.6600174 10.7173665 6.81770795 10.7628771 8.05735874 12.4236399 5.99102651 12.4236399"></polygon>
                    <polygon id="Path" fill="#4D4D4D" points="3.83407871 12.3758911 5.99176926 12.4214017 7.23142005 14.0821645 5.16583057 14.0821645"></polygon>
                    <polygon id="Path" fill="#4D4D4D" points="3.00219801 14.0456069 5.15988857 14.0918635 6.39953935 15.7526263 4.33394988 15.7526263"></polygon>
                    <polygon id="Path" fill="#4D4D4D" points="2.18517233 15.6862257 4.34360563 15.7324823 5.58251367 17.3924991 3.51692419 17.3924991"></polygon>
                    <polygon id="Path" fill="#4D4D4D" points="1.35329163 17.3566875 3.51172494 17.4029441 4.75137572 19.0629609 2.6850435 19.0629609"></polygon>
                    <polygon id="Path" fill="#4D4D4D" points="0.528095692 19.0152121 2.68578625 19.0614687 3.92543703 20.7214855 1.85910481 20.7214855"></polygon>
                    <path d="M8.64508864,1.73730949 L12.707222,1.74457701 C13.2127232,1.74548139 13.6222869,2.15504709 13.6231889,2.66054825 L13.6240593,3.14835141 C13.6249635,3.65513261 13.2148692,4.06669299 12.708088,4.06759724 C12.7069951,4.06759919 12.7059021,4.06759919 12.7048091,4.06759723 L8.64267566,4.06032972 C8.13717451,4.05942534 7.72761077,3.64985964 7.72670881,3.14435848 L7.72583842,2.65655532 C7.72493417,2.14977411 8.13502847,1.73821374 8.64180967,1.73730949 C8.64290266,1.73730754 8.64399565,1.73730754 8.64508864,1.73730949 Z" id="Rectangle" fill="#4D4D4D" transform="translate(10.674949, 2.902453) rotate(26.573890) translate(-10.674949, -2.902453) "></path>
                </g>
                <g id="Group" transform="translate(42.336785, 34.034201)" fill-rule="nonzero">
                    <polygon id="Rectangle" fill="#000000" transform="translate(7.697927, 11.908718) rotate(-26.566740) translate(-7.697927, -11.908718) " points="5.76287257 2.10027863 9.66798993 2.09329334 9.63298159 21.7171583 5.72786424 21.7241435"></polygon>
                    <polygon id="Path" fill="#4D4D4D" points="5.05144698 2.32924597 1.65410563 4.03551936 3.71969511 4.03551936"></polygon>
                    <polygon id="Path" fill="#4D4D4D" points="5.88332767 3.99970777 3.72489437 4.04596441 2.48598633 5.70598116 4.55157581 5.70598116"></polygon>
                    <polygon id="Path" fill="#4D4D4D" points="6.70926636 5.65823236 4.55083306 5.70448901 3.31118227 7.36450576 5.3775145 7.36450576"></polygon>
                    <polygon id="Path" fill="#4D4D4D" points="7.54040431 7.32869416 5.38271375 7.37495081 4.14306297 9.03496755 6.20939519 9.03496755"></polygon>
                    <polygon id="Path" fill="#4D4D4D" points="8.39605302 9.04690475 6.23836247 9.0931614 4.99871168 10.7531781 7.06504391 10.7531781"></polygon>
                    <polygon id="Path" fill="#4D4D4D" points="9.22793372 10.7173665 7.07024316 10.7628771 5.83059238 12.4236399 7.89692461 12.4236399"></polygon>
                    <polygon id="Path" fill="#4D4D4D" points="10.0538724 12.3758911 7.89618186 12.4214017 6.65653107 14.0821645 8.7228633 14.0821645"></polygon>
                    <polygon id="Path" fill="#4D4D4D" points="10.8857531 14.0456069 8.72806255 14.0918635 7.48841176 15.7526263 9.55474399 15.7526263"></polygon>
                    <polygon id="Path" fill="#4D4D4D" points="11.7027788 15.6862257 9.54508824 15.7324823 8.30543745 17.3924991 10.3710269 17.3924991"></polygon>
                    <polygon id="Path" fill="#4D4D4D" points="12.5346595 17.3566875 10.3762262 17.4029441 9.13731814 19.0629609 11.2029076 19.0629609"></polygon>
                    <polygon id="Path" fill="#4D4D4D" points="13.3605982 19.0152121 11.2021649 19.0614687 9.96251408 20.7214855 12.0288463 20.7214855"></polygon>
                    <path d="M1.18085762,1.74457404 L5.24299103,1.73730653 C5.74977223,1.73639985 6.16133457,2.14649218 6.16224124,2.65327338 C6.1622432,2.65436637 6.1622432,2.65545936 6.16224125,2.65655235 L6.16137086,3.14435552 C6.16046889,3.64985668 5.75090516,4.05942237 5.245404,4.06032676 L1.1832706,4.06759427 C0.676489401,4.06850095 0.264927062,3.65840862 0.264020386,3.15162742 C0.26401843,3.15053443 0.264018428,3.14944144 0.264020378,3.14834845 L0.264890766,2.66054528 C0.265792733,2.15504412 0.675356469,1.74547843 1.18085762,1.74457404 Z" id="Rectangle" fill="#4D4D4D" transform="translate(3.213131, 2.902450) rotate(153.426110) translate(-3.213131, -2.902450) "></path>
                </g>
                <g id="Group" transform="translate(81.702568, 119.086744)" fill-rule="nonzero">
                    <path d="M29.0578007,22.1976544 C29.9202827,25.299364 30.7854386,28.489849 30.6480298,31.7067451 C30.5121064,34.8899783 29.0217104,37.8536044 27.1018263,40.4030916 C25.958096,42.0039061 24.400674,43.260407 22.5977866,44.036872 C20.7501516,44.7103457 18.7612917,44.8959252 16.8217715,44.5758291 C12.769443,44.0119979 8.67743667,42.7851075 6.22612937,39.4269645 C4.7054366,37.3437144 4.02234371,34.8337317 3.51524558,32.3619705 C1.73762794,23.6972277 1.47229514,14.7475067 0.719079159,5.98231986 C0.656790063,5.53186898 0.617827384,5.07847321 0.602348471,4.62396359 L8.50923336,2.39670607 C10.832412,1.69623068 13.1952013,1.1358839 15.584958,0.718664149 C16.7941313,0.523088372 18.0160653,0.417742896 19.240732,0.40349225 C20.2337896,0.397598258 21.7024973,0.303861403 22.6235452,0.734048214 C23.399883,1.09664064 23.4658986,2.08763706 23.6622745,2.79387906 C24.0048459,4.02586764 24.3474198,5.25785373 24.6899962,6.48983734 L26.7454397,13.8817464 L29.0578007,22.1976544 Z" id="Path" fill="#000000"></path>
                    <path d="M20.2978518,2.08187736 L20.297785,2.08187736 C20.7958386,2.06182375 21.2943619,2.1073836 21.7806346,2.21739441 C21.8304583,2.35923072 21.8841963,2.59640049 21.9193433,2.75151693 C21.9585308,2.92438249 21.997399,3.09234634 22.0408424,3.24877588 L22.8844363,6.28240612 L23.0685791,6.94474907 L24.1163774,10.7129647 L25.1239854,14.3366507 L26.2526915,18.3955371 L27.4364058,22.6525438 C28.2138354,25.4483701 29.0949679,28.6172189 28.9660858,31.6342639 C28.8612614,34.0894175 27.7822379,36.696457 25.7591857,39.3829983 C24.8036531,40.739838 23.4947416,41.8063047 21.975874,42.4655412 C20.9560414,42.8529461 19.8723668,43.0427451 18.7821875,43.024896 C18.2035677,43.0232878 17.6257378,42.9818482 17.0527595,42.9008685 C12.342146,42.2454491 9.33327061,40.8238779 7.5837141,38.4271196 C6.23252445,36.5760107 5.62223597,34.2541061 5.16400341,32.0207009 C3.84676489,25.5998681 3.36341992,18.8725775 2.89602181,12.366804 C2.74297062,10.2363571 2.58466818,8.03376482 2.39945588,5.87398232 L5.01035058,5.1385464 L8.96378932,4.02491764 C11.222012,3.34103446 13.5193413,2.79495289 15.8431976,2.38966312 C16.9701409,2.20638975 18.1091133,2.10771925 19.2506552,2.09447111 L19.6925472,2.08862934 C19.8854544,2.08539138 20.0892652,2.08191467 20.2978518,2.08191467 M20.297785,0.390928348 C19.9193387,0.390928348 19.5559628,0.401656906 19.2406875,0.403529554 C18.0160231,0.417778383 16.7940915,0.523123871 15.5849209,0.718701453 C13.1951692,1.1359254 10.832385,1.69627465 8.50921108,2.39675083 C5.87360507,3.13916006 3.23797924,3.88157426 0.602333616,4.62399344 C0.617824541,5.07850424 0.656782186,5.53190161 0.719049449,5.98235716 C1.47229514,14.747544 1.73762051,23.697265 3.51521587,32.3620153 C4.02233628,34.8337616 4.7054366,37.3437442 6.2260848,39.4270018 C8.67741439,42.7851448 12.7694281,44.0120427 16.8217789,44.5758664 C17.4712842,44.6675889 18.1262965,44.7143735 18.7821875,44.7158898 C20.0853176,44.7334959 21.379984,44.5031118 22.5977866,44.0369093 C24.400672,43.260441 25.9580933,42.0039408 27.1018263,40.403129 C29.0217179,37.8536417 30.5120693,34.8900156 30.648052,31.7067824 C30.7854609,28.4898863 29.9203124,25.2994013 29.057823,22.1976768 C28.287036,19.4257199 27.5162267,16.6537605 26.7453952,13.8817987 C26.0602374,11.4178165 25.375102,8.95384434 24.6899888,6.4898821 L23.6622522,2.79391637 C23.4658838,2.08768183 23.3998533,1.0966854 22.62356,0.734078057 C21.8792251,0.463498146 21.0881352,0.346779459 20.2977776,0.390928348 L20.297785,0.390928348 Z" id="Shape" fill="#4D4D4D"></path>
                </g>
                <g id="Group" transform="translate(43.822287, 154.898341)">
                    <g id="Path-+-Path-+-Path-+-Path-+-Path-+-Path-+-Path-+-Path-+-Path-+-Path-+-Path-+-Path-Mask" transform="translate(0.180877, 0.064845)">
                        <mask id="mask-8" fill="white">
                            <use xlink:href="#path-7"></use>
                        </mask>
                        <use id="Mask" fill="#464558" fill-rule="nonzero" xlink:href="#path-7"></use>
                    </g>
                </g>
                <g id="Group" transform="translate(42.336785, 119.086744)" fill-rule="nonzero">
                    <path d="M1.85299197,22.3512936 C1.08709724,25.4456842 0.319954685,28.6287234 0.495303252,31.8417474 C0.668787514,35.0211383 2.11181828,37.9860923 3.95251029,40.5390116 C5.02597,42.1211125 6.50678382,43.3809022 8.23704497,44.1840428 C9.96498666,44.861378 11.8436294,45.0545847 13.6723678,44.743032 C17.4721388,44.1945326 21.2996739,42.9840185 23.5548653,39.6392527 C24.9538881,37.5642989 25.5597201,35.0601879 26.0007431,32.5936044 C27.5466523,23.9470286 27.6674161,15.0104235 28.2492795,6.2598672 C28.2573383,6.13865986 28.3827369,4.91684277 28.3394494,4.90377154 L20.8775538,2.65112508 C18.6907147,1.94484888 16.4620324,1.37667516 14.2045634,0.94993246 C13.0682657,0.750537214 11.9181574,0.640906513 10.7648036,0.622047444 C9.83156715,0.612594674 8.45011041,0.513702441 7.59080737,0.939994741 C6.86650667,1.29931189 6.81871067,2.28871172 6.64432768,2.99329743 C6.34012178,4.22237135 6.03591093,5.45145023 5.73169513,6.68053409 L3.90643747,14.0550074 L1.85299197,22.3512936 Z" id="Path" fill="#000000"></path>
                    <path d="M9.70659193,2.29653058 C9.92175936,2.29653058 10.1322697,2.30120101 10.3304356,2.30548348 L10.7477426,2.31294423 C11.8131557,2.33041354 12.8755398,2.43222247 13.9250218,2.61742488 C16.1135412,3.03094177 18.2738331,3.5830799 20.3929611,4.27053297 L24.1239311,5.39685247 L26.5703437,6.13539205 L26.5695415,6.14714273 C26.4253885,8.31449044 26.3076774,10.5260804 26.1938137,12.6648534 C25.8479147,19.16292 25.490258,25.8822276 24.3437482,32.2947193 C23.9446311,34.5274307 23.4038938,36.8476193 22.1610566,38.6909989 C20.5501345,41.0801248 17.8583023,42.4304235 13.432905,43.0692427 C12.9173164,43.1447987 12.3970328,43.1834433 11.8759882,43.1848843 C10.8547581,43.2016841 9.84059692,43.0119775 8.89384449,42.6270515 C7.4440208,41.9471767 6.20679558,40.882148 5.31593304,39.5471124 C3.36747534,36.8447544 2.31117254,34.2211371 2.17625932,31.7491371 C2.0110493,28.7215277 2.79505229,25.5539248 3.48671652,22.7592399 L4.47698879,18.7583981 L5.54013232,14.4629388 L6.14856392,12.004786 L7.36542712,7.08842819 L7.83136201,5.20584982 L8.27803738,3.40120645 C8.31643758,3.24609747 8.35031444,3.07946163 8.38445869,2.90799869 C8.41349281,2.76214849 8.45686944,2.54424985 8.49965188,2.39870555 C8.89647683,2.31640345 9.30167992,2.28208881 9.70662164,2.29649328 M9.70662164,0.605506963 C8.98566771,0.563827962 8.26419551,0.677870995 7.59082965,0.939949977 C6.86654381,1.29926713 6.81871809,2.28867441 6.6443351,2.99325267 C6.34015892,4.22233156 6.0359555,5.45141293 5.73172484,6.68049679 C5.12329324,9.13863964 4.51486164,11.5967999 3.90643005,14.0549776 C3.22193583,16.8203939 2.5374639,19.5858201 1.85301425,22.3512563 C1.08714923,25.4456469 0.320014105,28.6286861 0.495325534,31.8417101 C0.668839507,35.021101 2.1118257,37.986055 3.95253258,40.5389817 C5.02598624,42.1210835 6.50679867,43.3808716 8.23705983,44.1840055 C9.39164709,44.657194 10.629136,44.8924693 11.8760179,44.8758557 C12.4772009,44.874497 13.0775227,44.830095 13.6724197,44.7429872 C17.4721388,44.1944953 21.2997259,42.9839812 23.5549173,39.6392154 C24.9539327,37.5642616 25.5597721,35.0601431 26.0007357,32.5935596 C27.5466894,23.9469912 27.6673938,15.0103862 28.2492498,6.25982243 C28.2573606,6.1386151 28.3827072,4.91681293 28.3394643,4.90373423 C25.852136,4.15285457 23.3648251,3.40197242 20.8775316,2.65108778 C18.6907102,1.944802 16.4620422,1.37662811 14.2045857,0.949895156 C13.068272,0.750507264 11.9181495,0.640876626 10.7647813,0.62201014 C10.4505978,0.6188244 10.0854022,0.605506963 9.70662164,0.605506963 L9.70662164,0.605506963 Z" id="Shape" fill="#4D4D4D"></path>
                </g>
                <g id="Group" transform="translate(35.137531, 36.241025)">
                    <path d="M2.50071048,20.1119255 C2.33740964,19.9679069 2.25130128,19.7549563 2.26837499,19.5373475 C2.28544869,19.3197386 2.40370411,19.1229664 2.58744889,19.0064215 C6.5927539,16.4812711 23.7532643,6.14720059 36.3413201,6.14720059 C50.5120512,6.14720059 71.0425103,9.76249324 78.2058498,17.9961241 C78.363226,18.1792232 78.4124133,18.4322943 78.3351553,18.6614066 C77.2765871,21.8668728 69.6501722,45.0567323 68.7301048,50.6017105 C68.0416536,55.37146 67.711065,60.1864386 67.7411323,65.005963 C67.7411323,66.3183088 73.8776934,78.0324315 75.3419297,80.8088076 C75.5163082,81.1394422 75.3970836,81.5494279 75.0729425,81.7337914 C71.8560005,83.5733734 55.90168,92.3243774 43.5113592,92.3243774 C31.0190737,92.3243774 10.4758839,83.4287468 6.57935468,81.6897879 C6.40872903,81.6135805 6.27625246,81.4710062 6.21231806,81.2947746 C6.14838366,81.118543 6.15847938,80.9237813 6.24028902,80.7551723 L13.7729167,65.1495675 C13.8186271,65.0549076 13.8422509,64.9510255 13.8419925,64.845818 C13.8391701,63.6220686 13.8032878,55.6741099 13.3477514,51.09838 C12.8776794,46.3765388 7.49189809,24.5970594 2.50071048,20.1119255 Z" id="Path" fill="#575770" fill-rule="nonzero"></path>
                    <path d="M2.09649246,19.6352051 C1.93350251,19.492098 1.8475581,19.280498 1.86459856,19.064269 C1.88163902,18.84804 1.99966796,18.6525145 2.18306246,18.5367051 C6.18080246,16.0275551 27.1033767,5.75897511 39.6676467,5.75897511 C38.9388471,19.5055774 41.2418762,73.6214495 40.6725955,91.3900751 C28.2039055,91.3900751 10.0565925,82.5508151 6.16742246,80.8228751 C5.99712279,80.7471447 5.86490064,80.6054719 5.80108858,80.4303574 C5.73727653,80.2552429 5.74735158,80.0617168 5.82900246,79.8941751 L13.3473925,64.3874951 C13.3930431,64.2934439 13.4166415,64.1902196 13.4163925,64.0856751 C13.4135725,62.8696751 13.3777625,54.9720851 12.9230825,50.4253451 C12.4538325,45.7333851 7.07821246,24.0919151 2.09649246,19.6352051 Z" id="Path" fill="#464558" fill-rule="nonzero"></path>
                    <g id="Group-8" transform="translate(0.862469, 0.758975)">
                        <path d="M50.0934558,6.16565 C50.0515158,6.21395 50.0073158,6.26225 49.9653658,6.31271 C48.6484458,7.85012 55.7559658,10.47971 54.2626558,11.84287 C49.9095858,15.81627 45.7444558,20.06787 41.0919458,23.69521 C36.6265539,27.2413994 31.6675735,30.1169861 26.3717458,32.23108 C20.8080958,34.39173 14.7189758,34.86789 9.26074578,37.29896 C7.14153578,29.81548 4.12127578,21.45822 1.23330578,18.8769 C1.07078505,18.7331576 0.985179716,18.5214516 1.00211161,18.3051459 C1.01904351,18.0888401 1.13654801,17.893033 1.31945578,17.77633 C5.31845578,15.26853 23.4297714,6.06916807 35.9939614,6.06916807 C41.0431599,6.08972483 45.1010575,5.41014468 50.0934558,6.16565 Z" id="Path" fill="#000000" fill-rule="nonzero" opacity="0.1"></path>
                        <g id="Group-2" transform="translate(14.000000, 0.000000)">
                            <path d="M31.8594949,0.638472559 L38.8594949,0.638472559 C40.6037989,6.16239084 41.7666682,12.2144491 42.3481029,18.7946474 C42.9295375,25.3748458 42.9295375,32.4831841 42.3481029,40.1196624 C42.052519,41.6420549 40.8896497,42.9325341 38.8594949,43.9910999 C36.8293401,45.0496657 34.4960067,45.5821809 31.8594949,45.5886454 C32.8638942,38.0969499 33.3660939,30.6052544 33.3660939,23.113559 C33.3660939,15.6218635 32.8638942,8.13016803 31.8594949,0.638472559 Z" id="Rectangle-Copy" fill="#000000"></path>
                            <path d="M5.62300241,3.6606504 C-1.23494817,6.80896594 -1.81980618,11.9460197 3.86842836,19.0718116 C12.4007802,29.7604994 37.2949717,29.3767495 44.8475993,17.7790229 C49.8826844,10.0472052 47.4852705,4.12086422 37.6553577,-3.55271368e-14 L5.62300241,3.6606504 Z" id="Path-4" fill="#464558"></path>
                            <path d="M36.8594949,5.63847256 L43.8594949,5.63847256 C45.6037989,11.1623908 46.7666682,17.2144491 47.3481029,23.7946474 C47.9295375,30.3748458 47.9295375,37.4831841 47.3481029,45.1196624 C47.052519,46.6420549 45.8896497,47.9325341 43.8594949,48.9910999 C41.8293401,50.0496657 39.4960067,50.5821809 36.8594949,50.5886454 C37.8638942,43.0969499 38.3660939,35.6052544 38.3660939,28.113559 C38.3660939,20.6218635 37.8638942,13.130168 36.8594949,5.63847256 Z" id="Rectangle" fill="#464558"></path>
                        </g>
                        <path d="M50.0934558,6.16565 C50.0515158,6.21395 50.0073158,6.26225 49.9653658,6.31271 C48.6484458,7.85012 55.7559658,10.47971 54.2626558,11.84287 C49.9095858,15.81627 45.7444558,20.06787 41.0919458,23.69521 C36.6265539,27.2413994 31.6675735,30.1169861 26.3717458,32.23108 C20.8080958,34.39173 14.7189758,34.86789 9.26074578,37.29896 C7.14153578,29.81548 4.12127578,21.45822 1.23330578,18.8769 C1.07078505,18.7331576 0.985179716,18.5214516 1.00211161,18.3051459 C1.01904351,18.0888401 0.817092228,18.1363021 1,18.019599 C2.90728193,16.8235296 8.05341569,14.279924 14.0347125,11.6138172 C13.3367854,1.88704498 29.7958849,0.293131326 35.0109158,5 C40.0601143,5.02055676 45.1010575,5.41014468 50.0934558,6.16565 Z" id="Path" fill="#000000" fill-rule="nonzero" opacity="0.300000012"></path>
                    </g>
                </g>
                <g id="Group" transform="translate(37.137531, 48.955699)"></g>
                <g id="Group" transform="translate(55.706297, 47.463549)"></g>
                <g id="Group" transform="translate(48.278790, 89.989821)" fill="#000000" fill-rule="nonzero">
                    <path d="M0.502738186,0.900698974 C0.502738186,0.900698974 30.7439114,18.4585133 55.0044938,0.689328482 L54.5836365,11.2579948 C54.5836365,11.2579948 33.0606249,26.4887268 0.713174292,11.2579948 L0.502738186,0.900698974 Z" id="Path"></path>
                </g>
                <path d="M97.113901,23.3604495 C96.9116776,23.3572059 96.7114326,23.4008399 96.5287249,23.4879612 C94.5582075,10.0975797 85.7691651,2.98429977e-05 75.2233987,2.98429977e-05 C64.6920713,2.98429977e-05 55.9122391,10.0699003 53.9258714,23.4330277 C53.7818288,23.3821171 53.6298694,23.357546 53.477198,23.3604794 C51.96293,23.3982606 50.8044247,26.2227586 50.8895217,29.6692368 C50.9721527,33.0123539 52.767886,36.6376663 54.2575615,36.8176196 C56.7570139,49.2266066 65.1959162,58.3564302 75.2233987,58.3564302 C85.249314,58.3564302 93.6869165,49.2296954 96.1879286,36.8238643 L96.1962549,36.8247446 C97.7105229,36.8624886 99.6163467,33.1156778 99.7015773,29.6692368 C99.786652,26.2227287 98.6281393,23.3982307 97.113901,23.3604495 Z" id="Path" fill="#575770"></path>
                <path d="M75.3051533,0.00244712581 C75.2777606,0.00232029307 75.2507616,0 75.223369,0 C64.6920416,0 55.9122094,10.0698705 53.9258417,23.4329978 C53.7817991,23.3820873 53.6298397,23.3575162 53.4771683,23.3604495 C51.9629003,23.3982307 50.804395,26.2227287 50.889492,29.669207 C50.972123,33.0123241 52.7678563,36.6376365 54.2575318,36.8175898 C56.7569842,49.2265768 65.1958865,58.3564003 75.223369,58.3564003 C75.2507616,58.3564003 75.2777606,58.3542143 75.3051533,58.35408 L75.3051533,0.00244712581 Z" id="Path" fill="#464558"></path>
                <path d="M91.7779211,24.4681917 C89.8567521,22.2039662 86.4002284,22.0584891 83.6671957,21.9295449 L66.893755,21.9295449 C64.1607892,22.0584891 60.7042655,22.2039662 58.7830222,24.4681917 C57.18645,26.3498301 56.9304907,30.0561886 57.2495616,32.3984088 C57.5645324,34.7103011 58.9951964,37.7279579 61.5145545,38.1486397 C62.0332599,38.2187889 62.5587724,38.2219405 63.0782748,38.1580179 C64.7385263,38.0528174 66.3771984,37.7241697 67.9503698,37.1808835 C69.4136999,36.6172388 70.7666796,35.7917815 72.2629953,35.3096679 C72.8247829,35.1288464 73.40557,35.014148 73.9936933,34.967876 C74.5868763,34.9212016 75.1844563,34.9417634 75.7788499,34.9442926 L75.8878411,34.9447551 C76.468966,34.9424485 77.0486595,35.0027908 77.6169646,35.1247457 C77.8466874,35.1757772 78.0737215,35.237418 78.2980669,35.3096679 C79.7942489,35.7917815 81.1472954,36.6172388 82.6105587,37.1808835 C84.1837529,37.7241706 85.8224472,38.0528182 87.4827205,38.1580179 C88.0022204,38.2219405 88.5277304,38.2187889 89.0464334,38.1486397 C91.565799,37.7279579 92.9963812,34.7103011 93.3114338,32.3984088 C93.6305194,30.0561886 93.3745676,26.3498301 91.7779211,24.4681917 Z" id="Path" fill="#EEBDAA"></path>
                <path d="M75.3010087,21.9299627 L75.3010087,34.9397415 C74.8639148,34.9370631 74.4268878,34.9343847 73.9925272,34.9665032 C73.4048242,35.0136386 72.8244804,35.1286026 72.2629656,35.3091232 C70.7652164,35.7909757 69.4140638,36.6155004 67.9509937,37.1802792 C66.3770156,37.723301 64.7376676,38.0519194 63.0767521,38.1573538 C62.5579957,38.2216067 62.0331855,38.2189063 61.5151115,38.1493186 C58.9940599,37.7263464 57.5656094,34.7094729 57.248492,32.396663 C56.9313375,30.0543756 57.1872002,26.3495242 58.7835199,24.4676546 C60.7049489,22.2030112 64.1614132,22.0584443 66.8930048,21.9299627 L75.3010087,21.9299627 Z" id="Path" fill="#D19F93"></path>
                <path d="M81.7980935,25.6260926 C82.0883678,25.5992853 82.3732623,25.5304851 82.6439453,25.4218247 C82.9250467,25.3265286 83.2045809,25.2267411 83.4862617,25.1330937 C84.0477812,24.9463959 84.6141656,24.7484175 85.1883936,24.6047384 L84.9478315,23.9487296 C84.6520311,24.0259185 84.3591868,24.1101653 84.0614478,24.1811021 C83.7730507,24.2437752 83.4894407,24.3269099 83.2127512,24.4298808 C82.6110935,24.705439 82.0323285,25.028868 81.4819863,25.3970774 L81.9386739,25.8920982 C82.7108093,24.9026285 83.8002204,24.2122489 85.0217575,23.938292 C85.204432,23.8695486 85.2980022,23.6659335 85.2315845,23.4816942 C85.1605094,23.300684 84.9602704,23.2078397 84.7770211,23.270928 C83.4493087,23.6135812 82.2690716,24.3818377 81.4153318,25.4591658 C81.3091512,25.5908354 81.3156533,25.7809292 81.4305805,25.9049679 C81.546289,26.0269015 81.7324979,26.0476724 81.8720195,25.9542089 L82.710169,25.4887999 C82.966977,25.33271 83.2346495,25.1954123 83.5111067,25.0779737 C84.0545699,24.8714079 84.6524619,24.8268971 85.1883713,24.6047085 C85.6018754,24.433268 85.3643363,23.7803927 84.9478092,23.9486998 C84.3979955,24.1708585 83.8349905,24.3613911 83.2840998,24.5818339 C83.0085393,24.6920963 82.7322361,24.8020155 82.4600774,24.9204549 C82.1844706,25.0227722 81.9269731,25.1688036 81.697384,25.3529919 C81.6439479,25.3933742 81.6232468,25.4642065 81.6464725,25.5271945 C81.6696983,25.5901825 81.7313396,25.6303802 81.7980712,25.6260553 L81.7980935,25.6260926 Z" id="Path" fill="#4D4D4D" fill-rule="nonzero"></path>
                <path d="M69.1619669,25.6955074 C68.8884554,25.7967663 68.6018123,25.8577942 68.3109232,25.8766992 C68.0163557,25.9121676 67.7212758,25.9429059 67.4268866,25.9801126 C66.8400096,26.0542799 66.2439448,26.1203747 65.6640571,26.2388439 L65.6001805,25.5426889 C65.9002518,25.484495 66.2007018,25.4340007 66.4998521,25.3693533 C66.787033,25.3012802 67.0786575,25.2537454 67.3725321,25.2271066 C68.0336854,25.2158138 68.6946796,25.2576252 69.3491994,25.3521413 L69.1490059,25.996377 C68.0281458,25.4369131 66.7490032,25.2845661 65.528973,25.5652278 C65.3346395,25.582117 65.1629666,25.4387697 65.1439905,25.2437665 C65.1306124,25.0496633 65.2715828,24.8793184 65.4640121,24.8570609 C66.8093173,24.592523 68.2038112,24.7759226 69.4359676,25.3794402 C69.5882199,25.4524041 69.6637795,25.6268127 69.6131656,25.7884534 C69.5609425,25.9485293 69.401746,26.0477521 69.2357666,26.0236759 L68.2798094,25.9658104 C67.981126,25.9359017 67.680685,25.9276537 67.3808212,25.9411302 C66.8017579,25.9895579 66.2429792,26.2077848 65.6640422,26.2388141 C65.2173297,26.2627706 65.1520865,25.5707562 65.6001657,25.542659 C66.1916403,25.5055716 66.7814883,25.4342245 67.3731931,25.3951227 C67.6691644,25.3755606 67.9656481,25.3553718 68.2620873,25.3446433 C68.5547082,25.3178889 68.8497067,25.3384176 69.1358592,25.4054484 C69.201408,25.4187954 69.2504516,25.473795 69.2564677,25.5407041 C69.2624839,25.6076131 69.2240445,25.6705494 69.1619371,25.6954776 L69.1619669,25.6955074 Z" id="Path" fill="#4D4D4D" fill-rule="nonzero"></path>
                <g id="Group" transform="translate(64.619304, 26.573451)" fill-rule="nonzero">
                    <path d="M2.72471381,0.711628662 C1.74730243,0.619176145 0.81386682,1.13981959 0.375284086,2.02207275 C-0.0632986476,2.90432591 0.0832183524,3.96664819 0.744063024,4.69590638 C1.4049077,5.42516457 2.44409851,5.67129974 3.35967544,5.3154213 C4.27525237,4.95954285 4.87881781,4.07487964 4.87883173,3.08875026 C4.91952905,2.48345639 4.71271061,1.88767039 4.30615429,1.439027 C3.89959797,0.990383605 3.32847182,0.727691486 2.72471381,0.711636123 L2.72471381,0.711628662 Z" id="Path" fill="#4D4D4D"></path>
                    <ellipse id="Oval" fill="#FFFFFF" cx="2.72470638" cy="3.08872788" rx="1.40515791" ry="1.8417233"></ellipse>
                </g>
                <g id="Group" transform="translate(80.959818, 27.319526)" fill-rule="nonzero">
                    <path d="M2.99869223,0.0237102617 C2.02128085,-0.0687422561 1.08784524,0.451901186 0.649262508,1.33415435 C0.210679774,2.21640751 0.357196774,3.27872979 1.01804145,4.00798798 C1.67888612,4.73724617 2.71807693,4.98338134 3.63365386,4.62750289 C4.54923079,4.27162445 5.15279623,3.38696124 5.15281015,2.40083186 C5.19350959,1.79553675 4.98669209,1.19974878 4.58013554,0.751103724 C4.17357899,0.30245867 3.60245162,0.0397655243 2.99869223,0.0237102617 L2.99869223,0.0237102617 Z" id="Path" fill="#4D4D4D"></path>
                    <ellipse id="Oval" fill="#FFFFFF" cx="2.9986848" cy="2.40080948" rx="1.40515791" ry="1.8417233"></ellipse>
                </g>
            </g>
        </g>
    </g>
</svg>