<svg width="200" height="200" fill="none" xmlns="http://www.w3.org/2000/svg"><path d="M155.989 115.268c0 .846-.015 1.693-.051 2.541-.01.219-.019.444-.031.663-.005.055-.005.111-.01.166-.01.198-.024.393-.036.589 0 .043-.005.091-.01.135 0 .026 0 .053-.005.077-.014.226-.033.453-.053.677v.019c-.004.051-.007.099-.014.147-.017.2-.036.403-.056.603 0 .027-.004.053-.007.077-.021.21-.043.415-.067.624l-.012.102c-.027.246-.058.491-.089.735l-.005.041c-.029.222-.061.443-.092.668a2.65 2.65 0 0 0-.014.094v.014c-.008.053-.015.111-.024.164 0 .024-.005.046-.01.07-.027.181-.053.359-.082.54l-.065.403c-.017.101-.034.207-.053.308-.044.251-.089.501-.135.752v.012c-.022.111-.044.224-.063.335-.022.104-.041.21-.063.314a24.57 24.57 0 0 1-.074.373c-.017.082-.034.167-.053.249-.024.11-.046.224-.073.335-.043.2-.086.4-.132.6-.007.038-.017.077-.027.118a61.056 61.056 0 0 1-.552 2.206c-.005.024-.014.046-.019.07l-.017.065c0 .005 0 .007-.005.012v.009c-.031.111-.062.222-.091.335a6.053 6.053 0 0 0-.063.22c-.007.022-.014.043-.019.065-.058.202-.118.405-.179.607-.043.152-.089.299-.135.449 0 .005 0 .007-.004.012-.046.152-.092.306-.143.458-.005.017-.012.034-.014.048l-.113.357-.017.053c-.02.062-.041.123-.061.188-.021.063-.041.123-.062.181l-.171.513a.77.77 0 0 1-.027.077c-.036.111-.075.224-.113.335-.058.169-.118.335-.176.502-.007.017-.015.033-.019.053-.068.188-.135.373-.205.559l-.119.316v.005c-.11.298-.229.597-.344.892-.111.277-.22.554-.335.829a51.132 51.132 0 0 1-.42.998c-.014.031-.026.062-.041.091-.046.111-.094.222-.144.335-.046.106-.092.213-.143.316l-.072.162a73.96 73.96 0 0 1-.323.708c-.024.049-.046.099-.07.15-.026.055-.053.113-.082.171-.055.123-.113.241-.171.362a4.162 4.162 0 0 1-.137.282l-.4.812-.184.359c-.091.179-.18.357-.274.533 0 .005-.005.01-.008.014-.149.285-.299.567-.453.849-.149.277-.301.552-.456.827 0 .005-.004.009-.007.014-.091.164-.185.33-.279.494l-.109.186-.185.318-.015.024-2.039.601-.222.065.034.18v.005l.385 2.109s-.004.01-.009.015c-.068.101-.133.202-.203.304a30.771 30.771 0 0 1-.426.624c-.198.284-.396.566-.596.844l-.161.229c-.077.108-.157.214-.234.32l-.015.022a2.656 2.656 0 0 0-.096.133 1.784 1.784 0 0 0-.048.062c-.024.036-.053.073-.08.111a72.054 72.054 0 0 1-.684.907c-.193.25-.386.499-.584.744l-.128.162a31.334 31.334 0 0 1-.682.834 19.61 19.61 0 0 1-.429.509l-.123.144a4.82 4.82 0 0 1-.118.138c-.181.209-.364.421-.549.629-.029.034-.061.07-.092.103l-.094.107c-.106.118-.212.236-.318.351a51.722 51.722 0 0 1-1.459 1.546l-.195.2c-.041.041-.079.082-.12.12-.114.114-.225.227-.338.338-.111.108-.219.217-.333.323-.074.074-.151.152-.229.224-.077.072-.154.149-.231.222-.005.005-.007.005-.012.007a2.645 2.645 0 0 1-.097.092 1.625 1.625 0 0 1-.096.091c-.096.089-.19.181-.287.268l-.034.031c-.06.055-.12.111-.18.169l-.123-.015-4.289-.537-.735 4.652-.019.113c-.027.025-.056.044-.082.063a3.274 3.274 0 0 1-.123.092c-.166.123-.335.243-.502.366-.101.072-.204.145-.306.22l-.142.101-.043.031c-.005.005-.008.005-.012.007-.123.09-.249.176-.374.266-.128.086-.255.175-.383.262-.239.167-.48.328-.721.492l-.176.118-.325.215c-.128.084-.256.168-.384.25-.041.025-.082.053-.12.078-.082.053-.162.103-.239.154l-.178.113c-.087.056-.176.111-.265.169a.863.863 0 0 0-.075.048c-.072.043-.147.092-.219.137l-.034.022a73.297 73.297 0 0 1-1.543.938c-.092.053-.188.111-.282.164-.029.019-.058.034-.087.05a20.96 20.96 0 0 1-.501.29c-.051.031-.101.06-.155.089l-.255.144-.34.189-.029.016a3.156 3.156 0 0 1-.161.09l-.213.118c-.286.159-.573.313-.862.465-.184.099-.367.195-.553.289l-.132.07c-.118.063-.236.123-.354.181-.053.029-.109.055-.162.082a2.17 2.17 0 0 1-.084.043c-.07.036-.14.073-.21.106-.133.065-.265.133-.398.2-.205.102-.41.2-.617.302l-.145.07c-.014.004-.028.014-.043.021-.063.029-.125.061-.188.09-.186.089-.371.176-.559.262-.167.077-.333.155-.502.229-.004.005-.009.005-.014.008-.063.028-.123.057-.188.084-.029.014-.06.026-.089.041-.188.084-.376.169-.564.251l-.133.057c-.094.044-.188.082-.28.123l-.371.162c-.243.104-.484.207-.725.306l-.338.14c-.144.06-.287.118-.434.176-.248.099-.492.197-.74.291-.041.017-.082.034-.123.049-.183.072-.369.142-.552.209-.034.015-.072.027-.108.041l-.316.121c-.13.048-.258.096-.388.142-.041.015-.08.031-.121.044-.164.06-.328.12-.491.176l-.135.048-.48.166a5.84 5.84 0 0 1-.273.092c-.18.062-.356.12-.535.18a42.651 42.651 0 0 1-.817.268c-.063.019-.123.039-.181.058l-.511.159c-.053.017-.101.034-.154.048l-.058.017-.058.017-.619.186c-.034.009-.063.019-.094.026l-.073.022c-.168.05-.335.099-.506.144a5.914 5.914 0 0 1-.308.087c-.176.051-.35.099-.526.145a1.198 1.198 0 0 1-.111.031l-.544.145c-.051.014-.102.026-.152.041-.039.009-.08.019-.121.031-.19.048-.378.097-.569.142a1.378 1.378 0 0 1-.082.022c-.046.012-.091.024-.142.034-.082.021-.166.041-.248.06-.191.048-.384.092-.576.137-.119.029-.239.056-.355.082-.181.044-.366.082-.549.123-.005 0-.015.005-.022.005l-.316.07h-.005l-.147.029-.127.029-.07.014a.233.233 0 0 1-.044.01l-.161.034c-.027.005-.053.012-.082.014-.087.02-.174.036-.261.053-.016.005-.033.008-.053.012-.033.005-.065.015-.098.02-.078.014-.157.033-.237.048-.147.029-.296.058-.443.084l-.27.051a23.49 23.49 0 0 1-.825.149l-.062.012c-.306.053-.617.106-.924.157l-.691.108c-.22.034-.44.066-.658.097-.09.014-.179.026-.268.038-.231.034-.463.063-.697.094-.54.07-1.082.135-1.624.193-.27.032-.543.058-.813.085-.236.024-.472.043-.709.065l-.308.026c-.747.063-1.497.114-2.247.155-.205.012-.41.021-.612.031-.41.019-.82.034-1.23.046-.204.005-.41.012-.614.014-.738.015-1.475.022-2.215.015h-.116c-.21-.005-.417-.005-.627-.01-.217-.005-.434-.007-.65-.014h-.025a93.605 93.605 0 0 1-1.297-.046c-.22-.01-.439-.02-.658-.032-.424-.021-.848-.048-1.27-.074l-.063-.005c-.186-.015-.369-.027-.554-.041-.058-.005-.114-.007-.171-.015l-.57-.045a62.52 62.52 0 0 1-.961-.092 76.733 76.733 0 0 1-4.995-.66l-.603-.104a67.971 67.971 0 0 1-1.39-.258 44.731 44.731 0 0 1-.567-.111c-.217-.043-.434-.089-.65-.133a80.248 80.248 0 0 1-1.3-.286c-.198-.044-.395-.092-.59-.138a77.555 77.555 0 0 1-2-.506c-.211-.055-.423-.113-.638-.171-.217-.06-.434-.123-.65-.183a88.887 88.887 0 0 1-1.534-.454c-.171-.053-.34-.103-.51-.159a43.925 43.925 0 0 1-.999-.323c-.026-.007-.053-.017-.082-.026-.239-.08-.477-.159-.716-.241a43.632 43.632 0 0 1-.559-.193l-.516-.183a8.113 8.113 0 0 1-.246-.09 23.29 23.29 0 0 1-.639-.236 77.172 77.172 0 0 1-2.3-.899 77.943 77.943 0 0 1-18.787-11.021c-.34-.393-.68-.791-1.015-1.188a71.447 71.447 0 0 1-1.765-2.168c-.277-.356-.54-.701-.783-1.034a21.398 21.398 0 0 1-1.119-1.67c-.733-1.242-1.986-1.905-3.464-2.478a7.25 7.25 0 0 1-2.847-1.999l-.014-.014c-.152-.171-.297-.345-.444-.516-3.042-3.568-5.677-7.133-7.945-10.679a7.57 7.57 0 0 1-.345-.595 7.793 7.793 0 0 1-.699-1.895c0-.007-.005-.014-.005-.019-.014-.065-.028-.133-.043-.196-.812-3.599-.872-5.202-2.034-6.371a3.973 3.973 0 0 0-.473-.407c-2.268-1.69-3.512-3.859-3.613-5.569v-.007c-.02-.316 0-.612.062-.889.111-.514.012-1.107-.212-1.729-.262-.725-.696-1.485-1.169-2.201a25.047 25.047 0 0 0-.49-.711 5.33 5.33 0 0 1-.836-1.817l-.014-.051a23.03 23.03 0 0 1-.658-4.245v-.01c-.005-.096-.012-.19-.015-.286v-.008l-.014-.352v-.004c-.024-.76-.015-1.517.036-2.278.01-.147.02-.292.026-.437.054-.863.082-1.697.054-2.446-.044-1.107-.213-2.028-.632-2.604a2.216 2.216 0 0 1-.133-.202 4.16 4.16 0 0 1-.405-.931 6.55 6.55 0 0 1-.286-1.88c-.07-6.817.901-13.326 2.564-19.398 5.704-20.823 19.557-36.51 27.606-41.87h.005l.007-.004a70 70 0 0 1 1.447-.94C51.295 31.525 63.06 27.96 74.7 27.986h.005c2.129.649 4.944.622 7.664.54h.004c17.882 2.478 35.284 13.44 50.895 32.181.104.126.21.251.311.376 1 1.21 1.972 2.428 2.917 3.652a127.05 127.05 0 0 1 2.22 2.977c.34.466.675.933 1 1.403l.492.704a117.877 117.877 0 0 1 2.806 4.257l.443.716a99.554 99.554 0 0 1 1.71 2.876c.132.23.26.456.385.685.092.154.179.31.263.47.094.164.186.33.275.496.106.19.212.386.313.579.123.222.239.444.357.668 0 0 .005.004.005.01.113.209.224.424.335.633a89.23 89.23 0 0 1 1.063 2.114c.005.01.01.017.014.027a84.682 84.682 0 0 1 2.107 4.664c.246.584.482 1.17.709 1.755l.219.564c.118.306.234.62.347.928.068.181.133.364.201.545.084.234.166.465.248.7.05.141.101.284.149.426.075.22.152.441.224.663l.232.709.005.016c.072.23.147.46.219.692l.039.123c.079.253.156.509.231.762.065.222.133.444.195.668.017.058.034.118.053.178.063.23.128.456.191.685.046.164.091.33.132.496.044.162.087.318.128.48.065.25.133.504.193.757.041.161.079.318.118.48.084.35.169.699.246 1.048.12.533.236 1.068.342 1.606.046.221.092.443.133.667.031.157.06.314.089.473l.08.439c.108.6.204 1.198.294 1.798.031.207.062.414.091.624.005.024.007.051.01.077.031.217.06.434.087.651.033.236.062.47.086.706.015.123.032.244.044.367.024.219.05.441.072.663.022.2.041.4.058.6.014.125.024.248.034.376.014.181.031.357.043.538.007.055.012.111.015.166.014.181.026.362.038.54.01.099.015.198.019.296a53.734 53.734 0 0 1 .08 1.553c.01.212.014.424.022.636a57.34 57.34 0 0 1 .026 1.818l-.038-.015Z" fill="#8B7E74"/><path d="M155.989 115.268c0 .847-.015 1.693-.051 2.541-.01.22-.019.444-.031.663-.005.056-.005.111-.01.166-.01.198-.024.393-.036.589 0 .043-.005.091-.01.135 0 .026 0 .053-.005.077-.014.226-.033.453-.053.677v.019c-.005.051-.007.099-.014.147-.017.2-.036.403-.056.603 0 .027-.004.053-.007.077-.022.21-.043.415-.067.625-.005.033-.008.065-.012.101-.027.246-.058.492-.09.735l-.004.041c-.029.222-.061.444-.092.668a2.65 2.65 0 0 0-.014.094v.014c-.008.053-.015.111-.025.164a.336.336 0 0 1-.009.07c-.027.181-.053.359-.082.54a42.54 42.54 0 0 0-.065.403c-.017.101-.034.207-.053.308-.044.251-.089.502-.135.752v.012c-.022.111-.044.224-.063.335-.022.104-.041.21-.063.314a24.57 24.57 0 0 1-.074.373c-.017.082-.034.167-.053.249-.024.111-.046.224-.073.335a42.94 42.94 0 0 1-.159.718 69.628 69.628 0 0 1-.552 2.206c-.005.024-.014.046-.019.07l-.017.065c0 .005 0 .007-.005.012v.009a14.88 14.88 0 0 0-.091.336c-.012.038-.025.079-.034.118-.01.033-.019.067-.027.101-.007.022-.014.043-.019.065-.058.202-.118.405-.178.607-.044.152-.09.299-.135.449 0 .005 0 .007-.005.012-.046.152-.092.306-.142.458-.005.017-.012.034-.015.048l-.113.357-.017.053c-.019.063-.041.123-.06.188-.022.063-.041.123-.063.181a34.248 34.248 0 0 1-.198.59c-.036.111-.074.224-.113.335-.058.169-.118.335-.176.502-.007.017-.014.033-.019.053-.068.188-.135.373-.205.559l-.118.316v.005c-.111.299-.229.597-.345.892-.111.277-.219.554-.335.829-.017.046-.036.091-.055.137a51.177 51.177 0 0 1-.364.861l-.041.091c-.046.111-.094.222-.145.335-.046.106-.092.213-.142.316-.024.053-.048.109-.073.162a73.96 73.96 0 0 1-.323.708c-.024.049-.045.099-.069.15l-.082.171c-.056.123-.114.241-.172.362a4.162 4.162 0 0 1-.137.282l-.4.812c-.06.121-.123.239-.183.359-.092.179-.181.357-.275.533 0 .005-.005.01-.007.014-.15.285-.299.567-.454.849-.149.277-.301.552-.455.827 0 .005-.005.009-.007.014l-.28.494-.109.186-.086.152c-.034.055-.065.111-.099.166a.252.252 0 0 0-.015.024l-2.039.601-.222.065.034.18v.005l.386 2.11s-.005.009-.01.014c-.067.101-.133.202-.202.304-.131.195-.261.388-.393.578l-.034.046c-.198.284-.395.567-.596.844l-.161.229c-.077.108-.157.214-.234.32l-.014.022a2.67 2.67 0 0 0-.097.133l-.048.062c-.024.036-.053.073-.079.111-.215.289-.434.579-.651.863l-.034.044c-.193.25-.386.499-.583.744-.044.053-.085.107-.128.162a19.932 19.932 0 0 1-.499.612c-.06.075-.123.15-.183.222-.017.024-.034.043-.053.065-.123.15-.249.297-.376.444l-.123.144a45.72 45.72 0 0 1-.76.87c-.031.034-.062.073-.094.107l-.318.352c-.096.108-.195.214-.296.323-.381.414-.769.822-1.162 1.222-.065.067-.131.132-.196.2-.041.041-.079.082-.12.12-.113.114-.224.227-.338.338-.111.108-.219.217-.332.323-.075.075-.152.152-.229.224-.077.072-.155.149-.232.222-.005.005-.007.005-.012.007a3.838 3.838 0 0 1-.096.092c-.034.033-.063.062-.097.091-.096.089-.19.181-.286.268-.013.012-.025.021-.034.031-.06.056-.121.111-.181.169l-.123-.015-4.288-.537-.736 4.652-.019.114c-.026.024-.055.043-.082.062a3.274 3.274 0 0 1-.123.092c-.166.123-.335.243-.501.366-.101.073-.205.145-.306.22l-.143.101c-.014.009-.028.022-.043.031-.005.005-.007.005-.012.007-.123.09-.248.176-.374.266-.127.086-.255.176-.383.262-.239.167-.48.328-.721.492l-.176.118-.325.215-.383.25c-.041.025-.082.053-.121.078l-.239.154-.178.113c-.087.056-.176.111-.265.169a1.046 1.046 0 0 0-.075.048c-.072.043-.147.092-.219.138l-.034.021a73.297 73.297 0 0 1-1.543.938c-.091.053-.188.111-.282.164-.029.019-.058.034-.087.05a19.16 19.16 0 0 1-.501.29 3.86 3.86 0 0 1-.229.13l-.181.104-.34.188-.029.016a3.156 3.156 0 0 1-.161.09l-.212.118c-.287.159-.574.313-.863.465-.183.099-.367.195-.552.289l-.133.07c-.118.063-.236.123-.354.181-.053.029-.109.055-.162.082a2.17 2.17 0 0 1-.084.043c-.07.036-.14.073-.21.106-.132.065-.265.133-.397.2-.205.102-.41.201-.618.302l-.144.07c-.015.005-.029.014-.044.021-.062.029-.125.061-.188.09-.185.089-.371.176-.559.262-.166.077-.333.155-.501.229-.005.005-.01.005-.015.008a4.634 4.634 0 0 1-.188.084c-.029.014-.06.026-.089.041-.188.084-.376.169-.564.251l-.133.057c-.094.044-.188.082-.279.123l-.371.162c-.244.104-.485.207-.726.306-.113.048-.227.094-.338.14-.144.06-.286.118-.433.176-.249.099-.492.198-.74.292l-.123.048a26.87 26.87 0 0 1-.552.209c-.034.015-.073.027-.109.041-.236.09-.47.176-.706.261a26.248 26.248 0 0 1-.748.267l-.479.167a7.275 7.275 0 0 1-.273.091c-.18.063-.356.121-.535.181-.144.048-.287.097-.431.142-.13.044-.258.085-.386.126a4.858 4.858 0 0 0-.181.058c-.111.033-.222.069-.335.101a5.937 5.937 0 0 1-.176.055c-.053.017-.101.034-.154.048l-.058.017-.058.017c-.207.063-.414.126-.619.186-.034.009-.063.019-.094.026l-.073.022c-.168.051-.335.099-.506.145-.101.031-.207.06-.308.086-.176.051-.35.099-.526.145a1.198 1.198 0 0 1-.111.031l-.545.145-.151.041c-.039.01-.08.019-.121.031a36.387 36.387 0 0 1-.651.164c-.046.012-.091.024-.142.034-.082.022-.166.041-.248.06-.191.048-.384.092-.576.138-.119.029-.239.055-.355.082-.181.043-.366.082-.549.123-.005 0-.015.004-.022.004l-.316.07h-.005l-.275.058-.069.015a.343.343 0 0 1-.044.009l-.161.034c-.027.005-.053.012-.082.014-.087.02-.174.037-.261.053l-.053.013c-.033.004-.065.014-.099.019-.077.014-.156.034-.236.048-.147.029-.296.058-.443.084l-.27.051a6.842 6.842 0 0 1-.306.058 15.66 15.66 0 0 1-.519.091l-.062.013c-.306.053-.618.106-.924.156l-.692.109c-.219.033-.438.065-.658.096-.089.015-.178.027-.267.039-.232.033-.463.062-.697.094-.54.072-1.082.137-1.625.193-.27.031-.542.057-.812.084-.236.024-.472.043-.709.065-.1.01-.207.017-.308.027a73.124 73.124 0 0 1-4.088.231c-.205.005-.41.012-.615.014-.738.015-1.475.022-2.215.015h-.116c-.21-.005-.417-.005-.627-.01-.217-.005-.434-.007-.65-.014h-.025a80.233 80.233 0 0 1-1.297-.046c-.22-.01-.439-.019-.658-.031-.424-.022-.849-.049-1.27-.075l-.063-.005c-.186-.014-.369-.026-.554-.041-.058-.005-.114-.007-.172-.014-.19-.015-.38-.032-.569-.046-.32-.029-.64-.058-.961-.092a76.733 76.733 0 0 1-2.98-.354l-.655-.094a70.977 70.977 0 0 1-1.36-.212l-.603-.104a67.971 67.971 0 0 1-1.39-.258 44.731 44.731 0 0 1-.567-.111c-.217-.043-.434-.089-.65-.132a63.423 63.423 0 0 1-1.3-.287c-.198-.044-.395-.092-.59-.138a77.555 77.555 0 0 1-2-.506c-.211-.055-.423-.113-.638-.171-.217-.06-.434-.123-.65-.183a75.873 75.873 0 0 1-1.534-.453c-.171-.053-.34-.104-.511-.159a56.888 56.888 0 0 1-1.08-.35c-.239-.08-.477-.159-.716-.241-.188-.063-.373-.128-.56-.193l-.515-.183a27.18 27.18 0 0 1-.885-.326 72.872 72.872 0 0 1-2.3-.899c-4.59-6.969-7.745-13.875-9.743-20.61-11.424-38.492 14.92-71.498 27.37-79.785 19.926-13.268 40.584-15.187 60.144-6.736.306.133.612.268.921.405a127.535 127.535 0 0 1 1.815 2.447c.34.465.675.933 1 1.403l.492.704a106.33 106.33 0 0 1 3.249 4.973 109.51 109.51 0 0 1 1.709 2.876c.133.229.261.455.386.684.092.155.179.311.263.47.094.164.186.33.275.497.106.19.212.386.313.579.123.221.239.443.357.667 0 0 .005.005.005.01.113.21.224.424.335.634a89.23 89.23 0 0 1 1.063 2.114l.014.026.273.565a84.686 84.686 0 0 1 1.834 4.1c.246.583.482 1.17.709 1.755l.219.564c.118.306.234.62.347.928.068.18.133.364.2.545.085.234.167.465.249.699.05.142.101.284.149.427.075.219.152.44.224.662l.232.71.005.016c.072.23.147.46.219.692.014.04.026.082.039.123.079.253.156.508.231.762.065.221.132.443.195.667l.053.179.191.684c.045.164.091.33.132.497.044.161.087.318.128.48.065.25.133.503.193.757.041.161.079.318.118.48.084.349.169.698.246 1.048.12.533.236 1.068.342 1.605.046.222.092.444.133.668.031.157.06.313.089.472l.079.439c.109.6.205 1.198.295 1.798.031.208.062.415.091.625.005.024.007.05.01.077.031.217.06.434.087.651.033.236.062.47.086.706.015.123.032.244.044.367.024.219.05.441.072.662.022.201.041.401.058.601.014.125.024.248.034.376.014.181.031.356.043.537.007.056.012.111.015.167.014.18.026.361.038.54.01.098.015.197.019.296a54.18 54.18 0 0 1 .08 1.552c.01.213.014.425.022.637a57.265 57.265 0 0 1 .026 1.817l-.038-.012Z" fill="#949984" style="mix-blend-mode:multiply" opacity=".33"/><path d="M157.211 108.863c0-.101-.003-.204-.005-.303a.31.31 0 0 0 0-.061c0-.135-.007-.27-.01-.407 0-.029 0-.058-.002-.084-.005-.251-.015-.502-.024-.755a45.89 45.89 0 0 0-.039-.836 23.86 23.86 0 0 0-.034-.654 37.99 37.99 0 0 0-.06-.952c-.017-.243-.034-.489-.053-.733-.007-.062-.009-.125-.017-.188-.021-.274-.048-.552-.072-.824-.027-.292-.058-.586-.087-.875a47.72 47.72 0 0 0-.075-.673c-.021-.188-.041-.378-.067-.566a25.679 25.679 0 0 0-.063-.504l-.089-.69c-.034-.228-.065-.46-.099-.689a54.587 54.587 0 0 0-.103-.69l-.024-.156c-.032-.198-.063-.4-.097-.6-.002-.02-.007-.039-.01-.058-.041-.248-.082-.501-.127-.75l-.135-.752a82.71 82.71 0 0 0-.388-1.943c-.051-.24-.104-.477-.155-.718a70.86 70.86 0 0 0-.506-2.145l-.159-.625-.041-.159-.149-.56a11.195 11.195 0 0 0-.051-.194l-.169-.608a77.51 77.51 0 0 0-1.167-3.811 78.435 78.435 0 0 0-.482-1.396c-.038-.118-.082-.238-.125-.356-.099-.275-.198-.55-.301-.825a82.318 82.318 0 0 0-2.886-6.839 79.806 79.806 0 0 0-1.367-2.74 82.262 82.262 0 0 0-2.649-4.723 87.304 87.304 0 0 0-6.624-9.49c-.14-.174-.277-.347-.419-.519-.283-.344-.565-.689-.851-1.031l-.434-.511a87.03 87.03 0 0 0-5.769-6.157l-.135-.133a55.048 55.048 0 0 0-.771-.732 84.344 84.344 0 0 0-2.941-2.652c-.14-.12-.28-.239-.42-.354a39.572 39.572 0 0 0-.957-.803 3.57 3.57 0 0 0-.166-.137c-.236-.193-.472-.386-.711-.577a6.722 6.722 0 0 0-.215-.17c-.238-.194-.479-.382-.72-.57a81.701 81.701 0 0 0-4.605-3.348 82.912 82.912 0 0 0-9.598-5.607 4.519 4.519 0 0 0-.287-.133 5.053 5.053 0 0 0-1.312-.39 7.489 7.489 0 0 0-.229-.031 3.863 3.863 0 0 0-.289-.027h-.01a4.283 4.283 0 0 0-.306-.01h-.012a1.59 1.59 0 0 1-.272-.026 2.436 2.436 0 0 1-.309-.077 5.635 5.635 0 0 1-.872-.386 9.315 9.315 0 0 1-1.343-.9 8.396 8.396 0 0 0-1.328-.87 7.012 7.012 0 0 0-.868-.393 74.514 74.514 0 0 0-1.675-.61c-1.24-.435-2.565-.527-3.87-.358-.074.01-.151.017-.226.024-2.514.197-3.657-1.936-7.55-2.765a17.122 17.122 0 0 0-.533-.094c-.007-.003-.012-.003-.021-.003-1.695-.248-3.978-.137-6.333-.067h-.007c-2.72.084-5.535.108-7.663-.538h-.005l-.012-.004a6.661 6.661 0 0 0-.292-.082 7.855 7.855 0 0 0-1.485-.258c-.005 0-.014-.003-.022 0a6.298 6.298 0 0 0-.853-.012h-.031c-.024.002-.044.002-.068.005l-.082.004c-.13.01-.26.017-.388.027a31.49 31.49 0 0 0-.663.05c-.19.015-.378.032-.566.049-.193.014-.384.033-.574.05l-.42.044c-.233.024-.465.048-.699.077-.161.017-.32.036-.482.058-.588.07-1.176.15-1.762.238a40.869 40.869 0 0 0-1.111.176 49.877 49.877 0 0 0-1.27.224c-.362.068-.721.138-1.08.213-.326.065-.654.135-.979.207l-.19.043a78.219 78.219 0 0 0-2.107.511 61.408 61.408 0 0 0-4.211 1.256l-.085.03a61.893 61.893 0 0 0-4.652 1.786 60.915 60.915 0 0 0-7.04 3.6l-.047.03c-.319.19-.635.383-.95.58l-.022.013-.716.455a58.21 58.21 0 0 0-3.531 2.46l-.008.006h-.005a60.956 60.956 0 0 0-3.596 2.924c-.347.307-.692.615-1.03.93-.156.143-.313.29-.47.44-.098.091-.197.188-.296.284-.15.14-.299.285-.446.434a18.159 18.159 0 0 0-.547.547c-.198.198-.39.395-.581.596-.034.033-.063.065-.092.096-.19.198-.376.398-.561.595-.502.545-.991 1.097-1.466 1.659-.159.18-.31.364-.46.547-.104.123-.205.246-.302.369-.127.152-.248.304-.369.456a8.883 8.883 0 0 0-.24.308c-.116.14-.225.282-.333.424-.109.14-.215.28-.32.422a29.375 29.375 0 0 0-.526.714c-.174.233-.34.467-.504.704-.263.366-.516.737-.762 1.108a42.388 42.388 0 0 0-.59.902 43.307 43.307 0 0 0-.574.919 49.389 49.389 0 0 0-.9 1.52c-.13.225-.255.451-.38.68-.128.227-.25.456-.374.685-.132.25-.265.504-.395.76-.133.255-.263.51-.388.768-.036.073-.073.142-.106.215-.082.169-.164.335-.244.506-.058.118-.113.234-.166.352-.077.161-.152.323-.224.487a53.869 53.869 0 0 0-1.608 3.898 44.619 44.619 0 0 0-.482 1.355 57.475 57.475 0 0 0-2.36 9.493 58.824 58.824 0 0 0-.593 5.139 72.525 72.525 0 0 0-.114 8.297 76.528 76.528 0 0 0 1.217 10.749c.042.229.088.458.131.692.224 1.159.477 2.319.757 3.478a82.344 82.344 0 0 0 5.631 15.944 86.622 86.622 0 0 0 10.992 17.464 87.934 87.934 0 0 0 7.656 8.324 86.613 86.613 0 0 0 6.188 5.378c.048.039.099.077.147.118a82.714 82.714 0 0 0 2.743 2.066c.232.169.466.333.697.497.215.154.43.303.644.453.034.021.07.048.103.072l.622.424c.552.374 1.11.745 1.67 1.102.37.239.74.475 1.115.704.243.157.491.306.74.458l.443.265c.297.181.596.357.892.528l.4.229.25.147c.41.231.82.46 1.23.685a87.575 87.575 0 0 0 4.363 2.225l.675.315c.104.049.21.097.314.143a76.034 76.034 0 0 0 2.589 1.125h.002l.292.123c.096.039.193.08.291.118a89.037 89.037 0 0 0 2.348.907c.786.291 1.575.566 2.363.829.125.043.25.084.374.125.238.077.474.155.71.227.181.055.36.113.536.169.383.12.766.233 1.147.344.154.046.309.09.463.135a74.792 74.792 0 0 0 5.344 1.319c.217.046.432.092.649.135.024 0 .048.01.072.012l.412.082c1.965.378 3.932.677 5.897.894.245.027.489.053.732.075.22.022.439.046.658.063a82.999 82.999 0 0 0 2.097.159c.121.009.242.017.365.021a41.855 41.855 0 0 0 .832.044c.238.012.477.022.713.029.178.005.359.012.54.014.058.003.113.005.168.005.107.005.21.005.316.007.171.005.343.008.519.008.04.002.084.002.127.002.244 0 .487.005.73.005 6.042 0 12.008-.788 17.74-2.384.439-.123.878-.251 1.316-.381.439-.135.875-.273 1.312-.412a60.57 60.57 0 0 0 16.78-8.534c.132-.094.265-.193.398-.289a60.836 60.836 0 0 0 3.336-2.644c.234-.201.467-.401.696-.603.292-.256.579-.514.863-.776a48.545 48.545 0 0 0 2.315-2.257c.055-.055.108-.111.161-.166.072-.075.147-.152.219-.229a9.25 9.25 0 0 0 .215-.229c.096-.101.19-.2.28-.301.139-.15.277-.297.409-.446.398-.444.789-.89 1.172-1.343a35.424 35.424 0 0 0 .537-.648h.003c.195-.241.39-.485.586-.731.086-.108.173-.219.258-.332l-.032-.172v-.007l.094-.029.128-.036.005-.005c.029-.038.06-.082.091-.12.179-.237.357-.47.531-.709.038-.053.077-.106.113-.159h.002c.032-.043.063-.082.092-.125.034-.041.063-.082.092-.126l.202-.282c.263-.364.518-.733.769-1.104.251-.371.499-.745.743-1.123.156-.248.315-.497.47-.747.226-.364.448-.731.665-1.102.217-.369.429-.74.636-1.114.012-.017.022-.036.032-.053.026-.046.05-.091.074-.137.126-.224.249-.449.372-.678.12-.226.241-.453.359-.684.412-.798.803-1.603 1.179-2.42.13-.285.255-.572.383-.856a56.999 56.999 0 0 0 1.613-4.117l.002-.008.002-.014c.104-.294.205-.588.302-.885.096-.296.193-.595.284-.892l.053-.173a35.938 35.938 0 0 0 .246-.82c.068-.229.133-.456.195-.687.027-.092.053-.188.077-.282.075-.268.148-.538.215-.808.075-.289.147-.58.217-.875l.029-.12c.063-.256.12-.511.178-.769l.036-.169c.051-.224.099-.451.145-.68l.058-.267c.034-.171.07-.34.101-.514.022-.108.044-.217.063-.327.022-.114.041-.229.063-.343l.028-.164c.041-.226.08-.45.119-.677.036-.224.074-.451.108-.677.002-.008.005-.015.005-.025.031-.216.065-.436.096-.655.032-.229.063-.453.092-.682l.012-.085c.024-.2.051-.4.072-.6.068-.547.126-1.099.174-1.651l.022-.261c.024-.279.048-.556.067-.838.072-1.027.123-2.059.152-3.093.031-1.085.036-2.175.017-3.267Z" fill="#D2B297"/><path opacity=".35" d="M157.194 112.13a72.181 72.181 0 0 1-.152 3.093c-.019.282-.043.559-.067.838a45.007 45.007 0 0 1-.196 1.912c-.021.2-.048.4-.072.6l-.012.085c-.029.229-.06.453-.092.682-.031.219-.065.439-.096.656a.064.064 0 0 1-.005.024c-.034.226-.072.453-.108.677-.039.227-.077.451-.118.677l-.029.164c-.022.114-.041.229-.063.343-.019.111-.041.219-.063.327-.031.174-.067.343-.101.514l-.058.267a32.54 32.54 0 0 1-.181.849c-.057.258-.115.513-.178.769l-.029.121a46.582 46.582 0 0 1-.431 1.682 30.213 30.213 0 0 1-.273.969c-.009.032-.019.06-.026.092-.07.243-.145.487-.22.728-.016.058-.036.118-.053.173-.091.297-.188.596-.284.892-.097.297-.198.591-.301.885 0 .005 0 .007-.003.012l-.002.01a56.999 56.999 0 0 1-1.613 4.117c-.128.284-.253.571-.383.856a59.378 59.378 0 0 1-1.179 2.42c-.118.231-.239.458-.359.684a47.924 47.924 0 0 1-.475.868c-.207.374-.422.745-.639 1.114-.217.371-.439.738-.665 1.102-.154.25-.314.499-.47.747a62.308 62.308 0 0 1-1.509 2.227c-.07.094-.138.188-.205.282a1.398 1.398 0 0 1-.092.126c-.026.043-.058.084-.089.125h-.002a3.996 3.996 0 0 1-.116.159c-.174.239-.352.473-.53.709-.032.038-.063.082-.092.12l-.005.005-.128.036-.096.029v.007l.034.172v.004a93.556 93.556 0 0 1-.844 1.059h-.002a.28.28 0 0 1-.039.045c-.164.203-.33.403-.499.603-.383.453-.774.899-1.171 1.343-.133.149-.27.296-.41.446-.089.101-.183.2-.28.301-.07.077-.142.154-.214.229l-.217.229c-.053.056-.109.111-.164.166-.21.222-.427.442-.644.659-.272.272-.547.54-.824.807a56.997 56.997 0 0 1-2.406 2.17 59.788 59.788 0 0 1-3.336 2.644c-.133.096-.266.195-.398.289a58.732 58.732 0 0 1-4.18 2.77 60.507 60.507 0 0 1-11.301 5.323c-.431.151-.865.298-1.299.441-.436.14-.873.277-1.311.412-.439.13-.878.258-1.317.381-5.732 1.596-11.698 2.384-17.74 2.384-.243 0-.486-.003-.73-.005-.043 0-.086 0-.127-.002-.176 0-.347-.003-.519-.008-.106-.002-.21-.002-.315-.007-.056 0-.111-.002-.17-.005-.18-.002-.36-.009-.539-.014a34.71 34.71 0 0 1-.714-.029 41.9 41.9 0 0 1-.696-.036c-.044 0-.09 0-.135-.007a8.622 8.622 0 0 1-.364-.022 82.724 82.724 0 0 1-2.097-.159c-.22-.017-.44-.041-.659-.063a74.039 74.039 0 0 1-6.63-.969c-.136-.026-.273-.055-.41-.082-.025-.002-.049-.01-.073-.012-.217-.043-.432-.089-.649-.135a75.612 75.612 0 0 1-1.557-.342c-.258-.058-.518-.121-.776-.183a74.672 74.672 0 0 1-3.01-.794c-.155-.045-.31-.089-.464-.135-.38-.11-.764-.224-1.147-.344-.176-.056-.355-.114-.535-.169a37.48 37.48 0 0 1-.711-.227c-.123-.041-.249-.082-.374-.125a74.205 74.205 0 0 1-3.31-1.186c-.318-.12-.634-.243-.947-.369l-.453-.181c-.1-.038-.195-.079-.292-.118-.096-.041-.193-.082-.292-.12h-.002a76.027 76.027 0 0 1-1.837-.788c-.25-.111-.501-.225-.752-.338-.104-.046-.21-.094-.313-.142-.227-.106-.451-.21-.675-.316a86.092 86.092 0 0 1-4.364-2.225c-.41-.224-.82-.453-1.229-.685l-.25-.144-.4-.232a46.17 46.17 0 0 1-.893-.527c-.15-.09-.296-.179-.443-.266-.248-.152-.497-.301-.74-.458a52.779 52.779 0 0 1-1.114-.704 68.507 68.507 0 0 1-1.67-1.101l-.622-.424a50.5 50.5 0 0 1-.747-.526c-.232-.164-.466-.328-.697-.497a87.168 87.168 0 0 1-2.743-2.065c-1.387-9.11 1.26-15.293 6.968-18.639a18.283 18.283 0 0 1 2.683-1.282c1.76-.675 3.727-1.15 5.885-1.423 3.121-.395 6.64-.371 10.505.068 3.553.402 7.398 1.157 11.486 2.259 5.248 1.412 10.896 3.394 16.855 5.942 3.146 1.342 6.051 2.355 8.726 3.068 24.342 6.497 29.677-11.583 23.041-27.514a38.4 38.4 0 0 0-3.088-5.906c-.658-1.027-1.133-2.242-1.408-3.575a12.67 12.67 0 0 1-.162-.983 14.89 14.89 0 0 1 .104-4.299c.178-1.103.482-2.227.911-3.338.234-.605.507-1.21.817-1.806l.116-.217a18.2 18.2 0 0 1 2.502-3.54c2.237-2.486 5.352-4.617 9.459-5.97a29.1 29.1 0 0 1 4.144-1.029 35.142 35.142 0 0 1 3.438-.422c.224-.016.436-.113.658-.163.104.274.202.55.301.824.044.118.087.239.126.357a97.466 97.466 0 0 1 .482 1.396l.18.556c.051.152.099.302.147.454a77.752 77.752 0 0 1 .839 2.801l.169.607.051.195.149.56c.015.05.027.103.041.159l.159.624c.061.236.118.475.176.714.114.477.224.954.33 1.431.051.242.104.478.155.719.07.323.137.646.2.971a66.476 66.476 0 0 1 .323 1.724c.046.248.087.501.128.75l.009.057c.034.2.065.403.097.6l.024.157c.036.232.07.458.103.69.034.229.066.46.099.69.032.228.063.46.092.689.019.166.041.335.06.503.027.188.046.379.068.567a69.035 69.035 0 0 1 .161 1.547c.024.273.051.55.072.825.008.063.01.125.017.188.02.243.037.489.053.733.024.318.044.634.061.952.014.217.024.436.033.653a45.583 45.583 0 0 1 .063 1.591c.002.027.002.056.002.085.003.137.008.272.01.407a.201.201 0 0 1 0 .06 71.072 71.072 0 0 1-.012 3.57v-.002Z" fill="#C29770"/><path opacity=".35" d="M77.64 96.367s-26.323 4.178-11.846 23.093c11.248 14.695 20.242-1.203 28.867-3.832 8.625-2.63 26.497 8.198 26.372 1.617s13.299-24.364 2.948-28.683c-10.351-4.318-28.392-14.052-29.32 1.795-.928 15.848-15.051 6.3-15.051 6.3l-1.972-.292.002.002Z" fill="#C29770"/><path d="M115.399 85.765c.164.335.323.67.473 1.008.072-.092.147-.183.219-.272.2-.244.415-.511.636-.8l-1.328.064Zm19.861 10.92a50.973 50.973 0 0 0-.393-2.394 53.205 53.205 0 0 0-.767-3.492 50.115 50.115 0 0 0-.496-1.825 56.237 56.237 0 0 0-1.336-4.05 55.99 55.99 0 0 0-1.012-2.538l-.007-.015-.003-.002a41.865 41.865 0 0 0-.45-1.037 59.432 59.432 0 0 0-3.785-7.09 61.986 61.986 0 0 0-10.305-12.506l-.256-.238c-.267-.246-.535-.49-.807-.726a46.47 46.47 0 0 0-1.112-.964 55.448 55.448 0 0 0-2.548-2.037c-.265-.202-.53-.398-.797-.593a56.515 56.515 0 0 0-3.944-2.642C88.909 43.315 66.317 43.47 50.87 56.66c-.163.14-.323.28-.486.422-7.726 6.805-12.297 16.486-13.025 26.772a52.154 52.154 0 0 0 .128 8.755c.875 8.946 4.02 18.005 9.457 26.2a61.729 61.729 0 0 0 4.384 5.827 61.115 61.115 0 0 0 6.91 6.935c15.781 13.487 36.705 17.243 53.456 9.915a41.968 41.968 0 0 0 10.942-6.972c6.144-5.409 10.293-12.638 12.098-20.543.466-2.039.777-4.122.926-6.231a52.73 52.73 0 0 0-.4-11.055Zm-24.241 22.826c-.096.087-.195.174-.294.26-6.872 5.952-16.086 7.57-24.89 5.26a32.718 32.718 0 0 1-4.524-1.552c-4.917-2.097-9.54-5.463-13.354-10.019h-.003a37.235 37.235 0 0 1-5.407-8.608c-2.143-4.756-3.172-9.78-3.1-14.642a29.03 29.03 0 0 1 .2-3.054c.063-.518.143-1.032.237-1.543a24.555 24.555 0 0 1 3.1-8.212 23.172 23.172 0 0 1 4.401-5.318c.097-.087.195-.171.294-.258a25.23 25.23 0 0 1 1.3-1.051 24.341 24.341 0 0 1 2.405-1.613c3.06-1.813 6.425-2.929 9.913-3.377 1.7-.22 3.428-.28 5.166-.186 2.957.16 5.942.772 8.849 1.818a33.746 33.746 0 0 1 6.2 2.982c.87.53 1.726 1.104 2.562 1.723.261.19.519.389.777.589a37.058 37.058 0 0 1 5.597 5.424l.034.04c.026.032.055.065.082.1a35.545 35.545 0 0 1 1.723 2.247 35.844 35.844 0 0 1 2.047 3.22c.176.305.344.614.506.925.195.364.383.73.559 1.1a35.199 35.199 0 0 1 2.237 5.836c.299 1.038.547 2.084.743 3.13.002.013.005.025.005.034.525 2.8.691 5.607.501 8.348a25.126 25.126 0 0 1-1.654 7.393 23.59 23.59 0 0 1-4.913 7.746c-.414.434-.848.855-1.299 1.258Z" fill="#74A352"/><path d="M102.71 97.58c-.191 2.618-1.381 5.079-3.397 6.812a2.992 2.992 0 0 1-.127.106c-5.183 4.317-13.454 3.143-18.47-2.62-2.688-3.088-3.896-6.868-3.643-10.375.188-2.618 1.382-5.08 3.397-6.813.04-.036.084-.072.128-.106 5.182-4.317 13.45-3.146 18.47 2.62 2.687 3.088 3.895 6.868 3.642 10.376Z" fill="#D7283A"/><path d="m15.606 91.09 13.502-.658-13.338-3.635-5.11 3.51 4.946.783Z" fill="#8B7E74"/><path d="m15.606 91.09 13.502-.658-13.338-3.635-5.11 3.51 4.946.783Z" fill="#949984" style="mix-blend-mode:multiply" opacity=".33"/><path d="m15.664 89.328 13.444 1.104-13.338-3.635-5.11 3.51 5.004-.979Z" fill="#949984" style="mix-blend-mode:multiply" opacity=".33"/><path d="m15.664 89.328 13.444 1.104-13.338-3.635-5.11 3.51 5.004-.979Z" fill="#949984" style="mix-blend-mode:multiply" opacity=".33"/><path d="m136.345 159.093-.858-.109-3.431-.429v.019l-.732 4.634-1.276-2.667-4.821-10.992 8.471 7.338 2.64 2.201.007.005ZM147.6 145.229v.003h-.003l-1.981.581-.058.019-.106.029-.118.036.002.007.031.172v.004l.386 2.11-1.229-1.051h-.003l-2.839-2.724-1.471-1.413 1.784.538v.002l4.305 1.295v.002h.003l1.297.39Z" fill="#8B7E74"/><path d="m136.345 159.093-.858-.109-3.431-.429v.019l-.732 4.634-1.276-2.667-4.821-10.992 8.471 7.338 2.64 2.201.007.005ZM145.367 146.08l.386 2.11-1.229-1.051h-.003l-2.839-2.724-1.471-1.413 1.784.54 4.303 1.297h.005l1.294.393-1.981.581-.058.019-.106.029-.118.036.002.007.031.172v.004Z" fill="#949984" style="mix-blend-mode:multiply" opacity=".33"/><path d="m136.345 159.093-.858-.109-3.431-.429v.019l-.732 4.634-1.276-2.667-4.821-10.992 8.471 7.338 2.64 2.201.007.005Z" fill="#949984" style="mix-blend-mode:multiply" opacity=".33"/><path d="m136.338 159.088-.851-.104-3.431-.41H132.035l-6.808-9.025 8.471 7.338 2.64 2.201Z" fill="#949984" style="mix-blend-mode:multiply" opacity=".65"/><path d="m145.367 146.08.386 2.11-1.229-1.051h-.003l-2.839-2.724-1.471-1.413 1.784.54 4.303 1.297h.005l1.294.393-1.981.581-.058.019-.106.029-.118.036.002.007.031.172v.004Z" fill="#949984" style="mix-blend-mode:multiply" opacity=".33"/><path d="M147.6 145.229v.003h-.003l-1.981.581-.114.029-.002.002-.048.017-.116.043-.01.005-3.468-1.969-1.647-.938 1.784.538v.002l4.305 1.295v.002h.003l1.297.39Z" fill="#949984" style="mix-blend-mode:multiply" opacity=".65"/><path d="m77.042 85.425 7.468 4.769s-2.76-3.108-7.468-4.769ZM89.816 101.229l8.087 6.745s-2.787-4.079-8.087-6.745Z" fill="#949984" style="mix-blend-mode:multiply" opacity=".63"/><path d="m93.858 97.731.598 10.515s1.078-4.821-.598-10.515ZM92.644 85.674l-7.818-10.46s5.52 4.383 7.818 10.46Z" fill="#949984" style="mix-blend-mode:multiply" opacity=".63"/><path d="M138.281 58.413c-.28-.345-.564-.69-.851-1.032-.145-.169-.289-.34-.434-.511a87.366 87.366 0 0 0-5.769-6.157l-.135-.133a53.908 53.908 0 0 0-.771-.732 83.545 83.545 0 0 0-2.941-2.652c-.14-.12-.28-.239-.419-.354a43.02 43.02 0 0 0-1.124-.94 74.38 74.38 0 0 0-.925-.748c-.239-.193-.48-.38-.721-.569-.046-.038-.094-.074-.142-.11-.241-.189-.485-.374-.728-.56a82.177 82.177 0 0 0-3.734-2.678 82.98 82.98 0 0 0-9.599-5.607 5.602 5.602 0 0 0-1.49-.504c-.036-.005-.072-.012-.108-.019a7.944 7.944 0 0 0-.229-.031 4 4 0 0 0-.29-.027h-.009a4.371 4.371 0 0 0-.307-.01h-.012c-.084 0-.176-.01-.272-.026a2.42 2.42 0 0 1-.309-.077 4.972 4.972 0 0 1-.872-.386 9.314 9.314 0 0 1-1.343-.899 8.344 8.344 0 0 0-1.328-.87 8.497 8.497 0 0 0-.571-.275c-.099-.041-.198-.082-.297-.118a73.542 73.542 0 0 0-1.675-.61c-1.24-.436-2.565-.528-3.87-.36-.074.01-.151.018-.226.025-2.514.198-3.657-1.936-7.55-2.765a17.064 17.064 0 0 0-.533-.094c-.007-.003-.011-.003-.021-.003-1.695-.248-3.978-.137-6.333-.067h-.007c-2.72.084-5.535.108-7.663-.537h-.005l-.012-.005a8.204 8.204 0 0 0-2.922-.337l-.299.02a30.11 30.11 0 0 0-.663.051c-.19.015-.378.032-.566.049-.193.014-.383.034-.574.05l-.42.044c-.233.024-.464.048-.698.077-.162.017-.32.036-.482.058a54.2 54.2 0 0 0-1.763.238 40.866 40.866 0 0 0-1.111.176 50.047 50.047 0 0 0-1.116.195l-.154.03c-.362.067-.72.137-1.08.212-.325.065-.653.135-.979.207l-.19.043a76.623 76.623 0 0 0-2.107.511 60.878 60.878 0 0 0-3.141.906l-.09.03c-.327.103-.655.212-.98.32l-.085.03a61.85 61.85 0 0 0-4.652 1.786 60.868 60.868 0 0 0-8.037 4.21c-.007.006-.014.008-.022.013l-.716.455c-.238.152-.474.309-.708.463a61.057 61.057 0 0 0-2.823 1.996l-.007.007h-.005a61.032 61.032 0 0 0-3.597 2.925c-.347.306-.692.614-1.03.93-.156.142-.313.29-.47.439-.098.091-.197.188-.296.284-.15.14-.299.285-.446.434a17.974 17.974 0 0 0-.547.547 33.772 33.772 0 0 0-.672.692c-.19.198-.376.398-.562.595-.502.545-.99 1.097-1.466 1.659-.159.18-.31.364-.46.547-.104.123-.205.246-.301.369-.128.152-.249.304-.37.456a8.885 8.885 0 0 0-.24.308c-.116.14-.225.282-.333.424-.108.14-.214.28-.32.422a29.734 29.734 0 0 0-.526.714c-.174.234-.34.467-.504.704-.263.366-.516.737-.762 1.108a42.884 42.884 0 0 0-.59.902 42.754 42.754 0 0 0-.574.919 50.195 50.195 0 0 0-.9 1.52c-.13.225-.255.451-.38.68a37.806 37.806 0 0 0-.769 1.444c-.133.256-.263.511-.388.77-.036.072-.072.142-.106.214-.082.169-.164.335-.244.506-.057.118-.113.234-.166.352-.077.161-.152.323-.224.487a53.845 53.845 0 0 0-1.834 4.52c-.087.243-.174.49-.256.733a47.62 47.62 0 0 0-.328.988c.111.25 7.887 17.588 18.882 25.205 3.22 2.23 6.718 3.628 10.38 3.515a13.126 13.126 0 0 0 2.664-.35 14.09 14.09 0 0 0 1.596-.475c2.058-.742 3.852-1.846 5.433-3.22.665-.576 1.294-1.2 1.887-1.869a26.163 26.163 0 0 0 2.105-2.714c.318-.47.627-.954.926-1.449a41.474 41.474 0 0 0 1.923-3.582c.977-2.025 1.844-4.16 2.652-6.32.67-1.789 1.302-3.594 1.926-5.371l.313-.902c3.132-8.936 6.135-16.956 12.748-18.086 7.357-1.256 17.105.559 25.202 2.75 3.115.844 5.986 1.743 8.382 2.546l.496.164c.321.11.632.217.933.318a189.379 189.379 0 0 1 4.653 1.675c.277.104.494.186.65.241.331.12.863.292 1.543.483 2.283.631 6.217 1.453 9.65 1.11 2.051-.202 3.922-.821 5.151-2.142-.14-.174-.277-.347-.419-.518Z" fill="#D2B297" style="mix-blend-mode:screen" opacity=".2"/><path fill-rule="evenodd" clip-rule="evenodd" d="m132.912 103.254-64.79 29.971-.177.084a2.109 2.109 0 0 1-1.628.06 2.115 2.115 0 0 1-.996-.778 2.336 2.336 0 0 1-.151-.253L42.576 85.047a1.113 1.113 0 0 1 .667-1.545l66.752-20.623.467.733.186.287 23.168 36.236s.007.012.012.017c.69 1.096.26 2.56-.916 3.104v-.002Z" fill="#949984" style="mix-blend-mode:multiply" opacity=".63"/><path fill-rule="evenodd" clip-rule="evenodd" d="M135.718 96.459 69.967 129.11l-.431.212-.157.082a2.155 2.155 0 0 1-1.364.212c-.054-.009-.109-.022-.162-.034a2.351 2.351 0 0 1-.54-.209l-.094-.051c-.041-.026-.082-.051-.12-.082a1.93 1.93 0 0 1-.398-.359 1.232 1.232 0 0 1-.097-.118 3.416 3.416 0 0 1-.15-.229c0-.003-.002-.003-.002-.005-.002-.005-.01-.014-.012-.022L41.356 80.573c-.005-.015-.015-.027-.017-.041a.951.951 0 0 1-.065-.646c.002-.015.01-.029.014-.046a.945.945 0 0 1 .615-.641l19.449-6.624 49.26-16.78.511.735.2.287L136.55 93.22l.012.017a2.206 2.206 0 0 1-.846 3.213l.002.008Z" fill="#F9C273"/><path fill-rule="evenodd" clip-rule="evenodd" d="m135.718 96.459-65.75 32.651-.432.212-.157.082a2.155 2.155 0 0 1-1.364.212c-.053-.009-.109-.022-.162-.034a2.351 2.351 0 0 1-.54-.209l-.094-.051c-.04-.026-.082-.051-.12-.082a1.89 1.89 0 0 1-.398-.359 1.217 1.217 0 0 1-.097-.118 3.378 3.378 0 0 1-.15-.229l-.001-.005c-.003-.005-.01-.014-.013-.022l-2.535-4.843-22.55-43.091a.958.958 0 0 1-.081-.687c.002-.015.01-.034.014-.048l4.896 2.919a8.09 8.09 0 0 0 3.076 1.068l43.388 7.282a4.496 4.496 0 0 0 4.92-2.762l12.96-32.34.084-.21.511.735.2.287 2.466 3.563 22.758 32.844.012.016a2.204 2.204 0 0 1-.846 3.214l.005.005Z" fill="#F2A951"/><path opacity=".35" d="M135.718 96.459 69.967 129.11l-.431.212-.157.082a2.155 2.155 0 0 1-1.364.212c-.054-.009-.109-.022-.162-.034a1.36 1.36 0 0 1-.16-.045c-.035-.012-.072-.024-.108-.039a1.706 1.706 0 0 1-.272-.125l-.094-.051c-.041-.026-.082-.051-.12-.082a1.492 1.492 0 0 1-.215-.171 1.637 1.637 0 0 1-.183-.188 1.217 1.217 0 0 1-.097-.118 3.145 3.145 0 0 1-.15-.229c0-.003-.002-.003-.002-.005-.002-.005-.01-.014-.012-.022l-2.536-4.843-.354-2.535c1.468-6.618 16.407-22.942 30.993-23.933 14.581-.988 21.531-20.133 18.807-33.063-.402-1.914-.197-3.11.441-3.753l22.759 32.844.012.016a2.206 2.206 0 0 1-.846 3.214l.002.005Z" fill="#DD8E37"/><path fill-rule="evenodd" clip-rule="evenodd" d="M61.354 72.577c-1.866 6.971-9.84 17.935-12.525 19.86l-7.492-11.903a.952.952 0 0 1-.065-.646c.002-.014.01-.029.014-.046a.946.946 0 0 1 .615-.64l19.448-6.625h.005Z" fill="#F9C273" style="mix-blend-mode:screen" opacity=".2"/><path d="m111.357 56.737-.029.084-13.302 34.291-1.2 2.7-48.094-8.61a6.475 6.475 0 0 1-2.885-1.216l-3.486-2.61-1.101-1.398a.505.505 0 0 1 .016-.087c.003-.015.01-.03.015-.046l4.896 2.917a8.088 8.088 0 0 0 3.076 1.068l43.388 7.282a4.497 4.497 0 0 0 4.92-2.763l12.959-32.34.593.526.231.205.003-.003Z" fill="#DD8E37"/><path fill-rule="evenodd" clip-rule="evenodd" d="m69.96 129.115-.427.209-.157.082c-.016.005-.026.012-.026.012a2.155 2.155 0 0 1-1.157.222c-.06-.002-.12-.012-.18-.021a2.14 2.14 0 0 1-.574-.179c-.042-.022-.087-.041-.13-.065-.03-.014-.063-.034-.095-.051-.04-.026-.082-.05-.12-.081a1.904 1.904 0 0 1-.215-.172 1.727 1.727 0 0 1-.183-.188 1.107 1.107 0 0 1-.096-.118 2.942 2.942 0 0 1-.15-.229c0-.002-.002-.002-.002-.005-.003-.004-.01-.014-.012-.021L41.35 80.575a.958.958 0 0 1-.082-.687l1.84 1.321s9.381 18.427 16.502 32.406c7.336 14.403 8.888 15.948 10.344 15.497l.005.003Z" fill="#DD8E37"/><path d="m156.191 97.623-2.738-.427-16.513-2.58-1.506-.235-.567-.09-2.842-.443-2.473-.386-1.782-.28-4.606-.718-.051-.007-1.516-.239-1.145-.178-2.816-.439-5.879-.918-1.302-.205-3.057-.477-7.043-1.1-1.389-.216-1.441-.227-2.577-.4-.101-.017-.3-.046c-.173-.026-.344-.05-.513-.077a5.818 5.818 0 0 1-.089-.015l-.087-.012c-.026-.033-.055-.067-.084-.1a30.501 30.501 0 0 0-.767-.904h.024l2.25-.117.643-.03.142-.008.796-.039 1.4-.07.26-.012 1.273-.065 10.183-.508 2.779-.14 2.642-.133 1.328-.065.56-.029 5.057-.25 1.569-.08.432-.022 3.563-.178h.031l2.907-.145 1.422-.072 4.723-.236 6.995-.35 4.53-.226 4.136-.208a77.888 77.888 0 0 1 .482 1.396l.181.557c.051.152.099.301.147.453a77.752 77.752 0 0 1 .839 2.801l.169.608.051.195.149.56.041.158.159.625c.06.236.118.474.176.713.113.477.224.955.33 1.432.051.241.104.477.155.718a82.71 82.71 0 0 1 .388 1.943l.135.752c.045.249.086.502.127.75.003.02.008.039.01.058Z" fill="#949984" style="mix-blend-mode:multiply" opacity=".63"/><path d="M146.252 37.954c-.161.417-.47 1.012-.976 1.697-.065.087-.133.178-.205.265-.629.798-1.521 1.688-2.753 2.529-.357.246-.742.487-1.159.718-.661 1.198-2.076 2.997-4.749 4.494-.656 1.186-2.047 2.955-4.662 4.44-.673 1.19-2.071 2.933-4.657 4.394-.68 1.208-2.105 2.999-4.783 4.481-.692 1.27-2.242 3.25-5.286 4.814 0 0-1.734-1.8-2.324-2.422a138.638 138.638 0 0 1-1.078-1.152c-.617-.658-1.224-1.314-1.224-1.314 1.73-2.953 3.794-4.395 5.1-5.012.2-.318.403-.62.61-.899a12.825 12.825 0 0 1 2.237-2.394h.005a9.655 9.655 0 0 1 1.89-1.234c.166-.263.337-.51.511-.747v-.005c.865-1.193 1.767-2.063 2.589-2.688 0 0 .002-.002.005-.002a9.486 9.486 0 0 1 1.54-.97c.232-.358.465-.694.704-1.002a12.692 12.692 0 0 1 2.375-2.401 9.42 9.42 0 0 1 1.612-1.003c.171-.267.34-.52.516-.761v-.005a13.212 13.212 0 0 1 2.346-2.51c.25-.205.496-.385.732-.547a9.373 9.373 0 0 1 1.153-.67c.205-.32.409-.622.619-.904a13.082 13.082 0 0 1 1.625-1.832c.364-.342.718-.632 1.058-.88.894-.653 1.675-1.012 2.182-1.181l-.022 3.175-.007 1.296 1.497.073 2.974.147.005.012Z" fill="#323147"/><path d="M145.071 39.919c-.629.797-1.521 1.687-2.753 2.528a13.94 13.94 0 0 1-1.159.719c-.661 1.198-2.076 2.996-4.749 4.493-.656 1.186-2.047 2.955-4.662 4.44-.673 1.191-2.071 2.934-4.657 4.395-.68 1.207-2.105 2.998-4.783 4.48-.692 1.271-2.242 3.25-5.286 4.815 0 0-1.734-1.8-2.324-2.423a185.745 185.745 0 0 1-1.078-1.152l.097-.02s6.836-1.096 10.356-5.45c3.522-4.35 3.934-4.406 7.101-6.214 1.343-.767 2.372-3.336 4.65-4.513 3.944-2.034 6.504-5.298 6.704-6.207.21-.955 1.704-.68 2.541.104l.002.005Z" fill="#2B2B37"/><path d="M145.275 39.65c-.636.861-1.583 1.857-2.957 2.795-3.014-1.258-3.732-7-3.749-7.126.364-.342.719-.631 1.058-.88l2.16 1.994 1.488 1.371 1.998 1.844.002.003ZM136.41 47.659s-1.427-.868-1.953-4.51c-.202-1.413.239-3.308.719-4.421a9.282 9.282 0 0 1 1.152-.67s-1.982 5.165.082 9.6ZM131.74 52.097s-1.427-.868-1.952-4.51c-.203-1.413.238-3.308.718-4.422a9.368 9.368 0 0 1 1.152-.67s-1.981 5.166.082 9.602ZM127.047 56.568s-1.427-.867-1.953-4.51c-.202-1.413.239-3.307.719-4.42a9.295 9.295 0 0 1 1.152-.671s-1.982 5.166.082 9.601ZM122.308 60.958s-1.427-.868-1.953-4.51c-.202-1.413.239-3.307.719-4.421a9.284 9.284 0 0 1 1.152-.67s-1.982 5.166.082 9.601ZM117.619 65.47s-1.427-.867-1.952-4.51c-.203-1.412.238-3.307.718-4.42a9.358 9.358 0 0 1 1.152-.67s-1.981 5.165.082 9.6Z" fill="#21212B"/><path d="M147.944 28.41s-3.772.753-3.218 4.091c.497 2.982 2.881 3.611 4.913 3.377 1.755-.202-.979 5.183-3.83 2.965-2.852-2.217-5.793-4.744-5.012-7.292.781-2.545 5.482-6.01 7.145-3.14h.002Z" fill="#878787"/><path d="M155.916 30.61a9.16 9.16 0 0 0-.593-1.695c-.026-.056-.05-.111-.079-.167h-.003v-.01a9.013 9.013 0 0 0-.868-1.417 8.138 8.138 0 0 0-.602-.735l-.116-.125a3.626 3.626 0 0 0-.193-.196 1.186 1.186 0 0 0-.074-.074c-.08-.078-.16-.15-.239-.222l-.039-.036a9.055 9.055 0 0 0-1.658-1.189l-.029-.017a9.616 9.616 0 0 0-1.172-.544c-.017-.008-.036-.012-.053-.02a8.628 8.628 0 0 0-.274-.096c-.066-.024-.133-.046-.198-.068h-.003a13.273 13.273 0 0 0-.515-.142.613.613 0 0 0-.09-.022 2.756 2.756 0 0 0-.205-.045 3.59 3.59 0 0 0-.221-.044 8.09 8.09 0 0 0-1.35-.152c-.094-.002-.186-.005-.28-.005a6.027 6.027 0 0 0-.467.013c-.058.002-.119.004-.176.01a8.146 8.146 0 0 0-1.186.166 3.247 3.247 0 0 0-.229.05c-.09.02-.176.044-.263.068l-.07.017-.183.055c-.037.012-.075.022-.111.036h-.003a5.04 5.04 0 0 0-.376.13 4.544 4.544 0 0 0-.258.102 6.894 6.894 0 0 0-.462.204c-.08.039-.16.078-.237.119a8.44 8.44 0 0 0-1.928 1.371c-.357.34-.68.704-.969 1.09a8.429 8.429 0 0 0-1.48 3.187 8.697 8.697 0 0 0-.229 2.094c.002.316.021.63.06.94v.01l.029.22a9.258 9.258 0 0 0 .364 1.566 9 9 0 0 0 .962 2.03 9.164 9.164 0 0 0 1.33 1.646c.42.418.871.784 1.345 1.1.003 0 .003.002.005 0a9.026 9.026 0 0 0 1.642.875l.075.029.091.036h.003c.043.017.086.034.13.048a8.56 8.56 0 0 0 1.019.309c.082.019.162.038.242.053.113.024.226.046.342.065h.002a10.378 10.378 0 0 0 .666.084c.05.007.101.01.154.015.089.007.181.012.272.017a11.18 11.18 0 0 0 .957-.01 7.674 7.674 0 0 0 .762-.08c.022-.005.046-.007.072-.012l.179-.031h.004l.116-.022a7.364 7.364 0 0 0 .911-.231c.053-.015.106-.034.159-.05.189-.064.377-.133.562-.21a8.223 8.223 0 0 0 1.859-1.061c.089-.065.178-.133.265-.208.137-.108.272-.226.402-.35a.896.896 0 0 0 .075-.067l.032-.029a8.543 8.543 0 0 0 2.588-5.248 8.944 8.944 0 0 0-.195-3.126Zm-6.024-1.73s.024.02.039.03c.046.033.091.067.135.106l.026.022c.147.118.29.25.422.392l.005.005c.043.044.084.09.123.135.079.092.154.186.226.28a2.78 2.78 0 0 1 .109.154 4.05 4.05 0 0 1 .229.374 4.994 4.994 0 0 1 .236.49c.024.054.046.11.065.168.017.046.034.091.048.137.025.068.044.135.063.205a3.898 3.898 0 0 1 .089.38l.015.083c.009.06.019.12.026.18 0 .025.008.049.01.075l.022.24v.018a4.434 4.434 0 0 1-.094 1.188v.008c-.008.027-.012.053-.02.08-.029.12-.06.236-.098.352-.015.048-.034.096-.051.144-.072.2-.159.393-.263.579-.043.087-.094.169-.144.25h-.003a2.284 2.284 0 0 1-.12.181c-.027.039-.053.077-.085.113-.009.015-.019.027-.029.04-.033.045-.072.09-.108.134-.012.014-.022.029-.036.041a3.25 3.25 0 0 1-.297.313 3.8 3.8 0 0 1-.246.217c-.021.02-.046.037-.07.056-.002 0-.004.002-.007.005-.063.048-.125.096-.19.14a4.264 4.264 0 0 1-1.08.54 4.626 4.626 0 0 1-.246.077c-.003-.003-.003 0-.005 0l-.01.002h-.002c-.034.01-.068.02-.104.026l-.062.015c-.049.01-.097.022-.143.029a4.483 4.483 0 0 1-.547.07c-.017.002-.034.002-.05.002a3.833 3.833 0 0 1-.234.007l-.154-.002-.119-.007a4.15 4.15 0 0 1-.243-.022c-.068-.007-.133-.017-.2-.026a3.53 3.53 0 0 1-.316-.063c-.007 0-.014-.003-.022-.005a3.81 3.81 0 0 1-.149-.038h-.01l-.156-.046a1.93 1.93 0 0 1-.155-.053 1.666 1.666 0 0 1-.156-.058l-.157-.065a4.387 4.387 0 0 1-.574-.302 4.837 4.837 0 0 1-.417-.291c-.055-.041-.108-.087-.161-.133a4.678 4.678 0 0 1-.605-.624c-.027-.034-.053-.065-.078-.099a3.554 3.554 0 0 1-.106-.147 4.482 4.482 0 0 1-.629-1.275c-.019-.053-.033-.106-.048-.162-.002-.002-.002-.005-.002-.007-.015-.046-.024-.094-.037-.142-.014-.046-.021-.097-.031-.145a2.665 2.665 0 0 1-.041-.231 3.428 3.428 0 0 1-.029-.225c-.007-.074-.012-.149-.017-.224a4.654 4.654 0 0 1-.002-.354v-.02a3.686 3.686 0 0 1 .026-.36 4.685 4.685 0 0 1 .07-.437c.003-.024.01-.048.015-.072.009-.041.019-.082.031-.123.007-.032.017-.06.027-.092.007-.027.014-.055.024-.082a4.26 4.26 0 0 1 .332-.793c.034-.068.073-.13.111-.193.024-.04.051-.082.077-.12.025-.037.049-.07.073-.107.062-.089.128-.178.2-.262a3.921 3.921 0 0 1 .364-.39c.229-.218.472-.403.73-.558l.005-.005c.07-.04.14-.081.212-.118l.07-.036.06-.031h.003c.077-.039.152-.072.229-.106a4.377 4.377 0 0 1 2.174-.301c.142.012.285.033.424.065.015 0 .029.002.041.007l.097.02c.031.006.062.016.094.023a4.618 4.618 0 0 1 1.581.757v-.002Z" fill="#D8D8D8"/><path d="M151.693 24.884c-.52 1.154-1.899 2.377-3.382 3.24-1.434-.374-2.273-.591-3.404.477 0 0 0 .005-.002.005-1.302-1.794-1.736-3.426-1.861-4.048 2.693-1.403 5.986-1.275 8.652.326h-.003ZM155.241 28.745v.005s-1.502-1.649-4.715.68a.012.012 0 0 1-.01.005s-.004 0-.004-.003a4.297 4.297 0 0 0-.586-.52c-.012-.01-.024-.02-.039-.03l3.257-2.911c.174.154.342.32.506.494.261.275.502.562.721.86.337.451.624.926.865 1.418v.005l.005-.003ZM150.89 40.697a8.746 8.746 0 0 1-4.814.53 9.017 9.017 0 0 1-3.544-1.412c2.614 1.21 5.914.56 5.914.56l.132-3.559h.01c2.885-.446 3.015 1.012 2.307 3.881h-.005Z" fill="#A4A4A4"/><path d="M149.919 36.194a1.322 1.322 0 0 1-.547.923c-2.585 1.842-6.755-.173-7.442-3.037-1.147-4.787 3.023-6.366 3.023-6.366s.202.22.528.595a3.978 3.978 0 0 0-.574.292l-.002.002a4.336 4.336 0 0 0-.733.56c-1.772 1.677-1.81 4.52-.082 6.347 1.569 1.658 4.057 1.911 5.829.684ZM151.531 35.264c-.552.942-1 1.072-1.345.728a4.16 4.16 0 0 0 .579-.569c1.285-1.519 1.359-3.746.212-5.42a4.593 4.593 0 0 0-.885-.967.524.524 0 0 1 .369-.17s3.387 2.432 1.07 6.398Z" fill="#A4A4A4"/><path d="m117.074 65.782-.207 1.174-1.437 8.152-.002.015-.063.35-.318.185-18.98 11.074-2.033 1.186-.106.063c-.01-.015-.024-.032-.036-.046l-.034-.044c-.231-.284-.518-.629-.85-1.005a25.527 25.527 0 0 0-1.466-1.52 15.858 15.858 0 0 0-1.416-1.201 9.047 9.047 0 0 0-1.383-.86l1.692-2.59.427-.656.007-.014.012-.014.75-1.148 2.685-4.115.292-.446.014-.021 3.857-5.909 2.295-3.517h.002l1.606-2.456a.896.896 0 0 1 .243-.25.897.897 0 0 1 .413-.162l9.201-1.15.14-.015.033.037.429.472.786.865.302.33.053.056.033.036.627.69.034.036.458.458.048.05.039.041.371.372 1.47 1.485.012.012Z" fill="#D8D8D8"/><path opacity=".2" d="M115.592 64.285c-1.796 1.918-5.318 5.375-6.846 4.722 0 0-4.467-5.964-6.121-6.839.147-.227.145-.125.415-.161l9.201-1.15.137-.017 2.295 2.519h.005l.914.923v.003Z" fill="#A4A4A4"/><path d="m117.205 65.692-1.186 9.544c-.037.468-.338.83-.577.966-1.865 1.08-10.445 5.914-18.58 10.491-.779.437-1.553.87-2.314 1.302-.14.077-.28.157-.42.236-.058-.074-.125-.159-.2-.25-.01-.015-.024-.032-.036-.046l.053-.032 1.979-1.164 18.995-11.175a.924.924 0 0 0 .439-.63l1.663-9.143.041-.022.143-.077Z" fill="#878787"/><path d="m117.074 65.782-.207 1.166v.008l-1.437 8.152-.002.015a.82.82 0 0 1-.381.535L96.066 86.732l-2.032 1.186-.106.063c-.01-.015-.025-.032-.037-.046-.012-.015-.021-.03-.033-.044-.232-.284-.519-.629-.851-1.005a25.53 25.53 0 0 0-1.466-1.52l17.202-16.359 5.932-5.643.022.022.485.486.038.041.369.374 1.473 1.483.012.012Z" fill="#A4A4A4"/><path d="m117.074 65.782-.207 1.169v.005l-1.437 8.152a.758.758 0 0 1-.123.301c-2.536-2.683-6.564-6.402-6.564-6.402l5.933-5.643.007.007 2.389 2.41h.002Z" fill="#D8D8D8" style="mix-blend-mode:screen" opacity=".1"/><path d="m114.676 63.364-5.933 5.643-17.202 16.358a15.83 15.83 0 0 0-1.415-1.2c6.986-8.493 15.334-18.59 15.712-18.803h.003c.668-.376 7.781-3.146 7.781-3.146l.154.167.866.945.034.036Z" fill="#D8D8D8" style="mix-blend-mode:screen" opacity=".2"/><path d="M192.369 113.771c.108 1.63.12 3.32.036 5.077a455.849 455.849 0 0 1-3.772 1.955c-1.56.808-3.291 1.692-4.99 2.565-2.756 1.417-5.431 2.791-7.189 3.715-.887-20.7-5.52-28.734-11.443-36.386-1.665-2.155-3.435-4.28-5.252-6.648 0 0-.005-.002-.005-.007a89.125 89.125 0 0 1-3.457-4.807 78.529 78.529 0 0 1-4.081-6.81 57.183 57.183 0 0 1-2.201-4.614 46.37 46.37 0 0 1-1.789-4.982c-1.019-3.5-1.523-7.049-1.207-10.474.014-.145.026-.29.038-.43.485-5.213.827-7.552 1.975-10.437.012-.032.021-.063.036-.094.337-.841.745-1.733 1.241-2.758 1.333-2.18 4.578-1.967 4.26-.646a8.4 8.4 0 0 0-1.131 1.21c-.711.921-1.258 2-1.663 3.187-.81 2.389-1.032 5.21-.791 8.03.147 1.713.463 3.43.919 5.047.192.683.407 1.343.646 1.982.4 1.068.863 2.068 1.378 2.965l.01.017c.383.67.851 1.383 1.391 2.138.352.494.738 1.005 1.15 1.528a57.93 57.93 0 0 0 1.42 1.743c3.473 4.122 8.27 8.912 13.019 13.43a499.25 499.25 0 0 0 3.471 3.27l2.143 1.992c9.158 8.47 15.05 17.223 15.836 29.238l.002.004Z" fill="#74A352"/><path opacity=".5" d="M170.917 79.271c-2.533 1.027-6.826 3.898-5.905 11.426-1.666-2.155-3.435-4.28-5.253-6.648 0 0-.005-.002-.005-.007a89.085 89.085 0 0 1-3.457-4.807c-.159-.239-.315-.477-.475-.72a76.178 76.178 0 0 1-3.606-6.092 61.511 61.511 0 0 1-1.581-3.201c-.212-.468-.42-.94-.62-1.413a47.92 47.92 0 0 1-1.094-2.828c-.017-.043-.029-.084-.043-.125-.012-.036-.027-.072-.037-.11l-.033-.1c-.01-.026-.017-.053-.027-.077-.014-.038-.024-.072-.034-.101a46.127 46.127 0 0 1-.518-1.644c.104-.224.232-.417.391-.586 1.453-1.547 2.743-3.273 3.931-4.797.4 1.068.863 2.068 1.379 2.965l.01.017c.383.67.851 1.384 1.391 2.138.352.494.737 1.005 1.15 1.528.441.564.916 1.148 1.419 1.743 2.43 2.883 5.506 6.092 8.763 9.308a298.128 298.128 0 0 0 4.257 4.124l-.003.007Z" fill="#568040"/><path d="M156.478 64.099c-2.905 1.712-4.139 5.091-4.264 8.326a61.524 61.524 0 0 1-1.582-3.201c-.212-.468-.419-.94-.619-1.413l-.036-.084a46.848 46.848 0 0 1-1.235-3.254c-1.359-4.026-2.089-8.158-1.725-12.118.014-.145.026-.29.038-.43 1.193-.498 2.526-.98 3.927-1.506.159 2.006.458 3.626.918 5.048.511 1.817 1.201 3.512 2.025 4.949l.01.017c.383.67.851 1.383 1.391 2.138.352.494.737 1.005 1.15 1.528h.002Z" fill="#568040"/><path d="M165.016 73.51c-1.412 1.974-5.175 3.809-9.919 3.878-1.247-1.904-1.75-2.82-2.881-4.96a61.511 61.511 0 0 1-1.581-3.202c-.212-.467-.42-.94-.62-1.412l-.036-.085a46.354 46.354 0 0 1-1.234-3.254c2.654-.378 4.814-2.437 5.192-4.04.384.67.851 1.384 1.391 2.138.352.494.738 1.005 1.15 1.528a57.93 57.93 0 0 0 1.42 1.743c2.43 2.883 3.862 4.453 7.118 7.668v-.002ZM153.465 39.154a.355.355 0 0 0-.027.048c-.711.921-1.258 2.001-1.663 3.187-1.128.405-2.435.157-3.054-.007.099-.308.202-.607.311-.894.012-.032.022-.063.036-.094.313-.83.673-1.594 1.061-2.423.055-.118.118-.229.181-.337 1.181-.408 2.651-.321 3.155.516v.004Z" fill="#3F5D2F"/><path d="M176.455 127.085c-1.295-30.183-10.549-33.437-20.158-47.847 22.944 23.676 29.159 25.993 32.336 41.565-4.093 2.112-9.336 4.79-12.176 6.28l-.002.002Z" fill="#568040"/><path d="M176.454 127.085c-1.137-26.526-8.422-32.253-16.695-43.034 18.716 19.758 19.436 26.093 21.519 40.534-1.323.622-3.066 1.577-4.824 2.5Z" fill="#3F5D2F"/><path d="M192.369 113.771c-2.895-16.82-18.084-31.246-17.98-31.226.725.675 1.444 1.342 2.143 1.99 9.157 8.472 15.049 17.224 15.835 29.239l.002-.003Z" fill="#ACD686"/><path d="M170.285 60.99a21.358 21.358 0 0 1-.581 2.726c-.007.029-.016.057-.024.084-.566 1.962-1.432 3.833-2.644 5.47-.123.166-.248.328-.376.487-.012.014-.024.03-.039.045-1.087 1.343-2.391 2.483-3.83 3.44a22.19 22.19 0 0 1-3.546 1.904c-.07.032-.142.06-.215.087-.949.398-1.923.736-2.907 1.015a29.101 29.101 0 0 1-3.731.784c-1.693.253-3.399.4-5.099.559a71.825 71.825 0 0 0-3.673.417c-.082.012-.164.024-.246.039a33.236 33.236 0 0 0-1.319.222c-.173.033-.342.07-.513.103l-.244.053c-.089.02-.178.039-.265.056-.104.021-.207.045-.311.07-.137.028-.272.06-.407.093-.203.046-.405.097-.608.147-.14.034-.279.073-.417.109-.135.036-.27.072-.405.11-.135.037-.267.075-.4.116l-.407.121c-8.018 2.45-13.234 7.328-16.18 16.638a29.26 29.26 0 0 0-10.276-2.085l-.396-.007h-.393c-.434 0-.87.014-1.304.036 2.49-12.808 15.599-20.12 28.177-23.501 8.233-2.228 18.603-3.218 22.535-13.053l.135-.35c.043-.113.084-.226.125-.345.856-2.41 1.34-5.32 1.347-8.866 0-.735-.019-1.5-.057-2.29-.029-.6-.075-1.217-.131-1.849a63.116 63.116 0 0 0-.728-5.402v-.017c-.094-.525-.195-1.06-.301-1.605a24.026 24.026 0 0 0-.619-2.473 17.488 17.488 0 0 0-.909-2.324 14.017 14.017 0 0 0-.996-1.745c-.055-.082-.108-.164-.169-.244a3.362 3.362 0 0 0-.137-.19 10.404 10.404 0 0 0-1.446-1.649l-.01-.01a8.14 8.14 0 0 0-.169-.145c-.59-.508-1.253-.923-1.986-1.164a.47.47 0 0 0-.063-.02c-.07-.023-.14-.043-.209-.062a4.454 4.454 0 0 0-.258-.063 5.056 5.056 0 0 1-.779-.221c-.742-.285-1.111-.682-1.278-1.075 0 0-.002-.003-.002-.008a1.456 1.456 0 0 1-.111-.527 1.49 1.49 0 0 1 .036-.372c.171-.188.514-.156.776-.08.111.032.222.066.333.102.128.041.256.082.381.128.077.029.152.053.227.082.221.082.438.17.658.265.058.024.115.05.176.077a13.995 13.995 0 0 1 .86.427c.085.045.169.094.251.14.082.048.166.096.248.147.082.048.162.096.244.149.091.06.178.116.267.176l.174.12c.087.06.171.121.255.181 3.057 2.259 4.875 5.31 6.567 8.577.026.05.05.101.079.152.012.024.022.048.037.07l.089.178.253.495.431.846c.044.086.087.176.133.262l.13.26.227.452a280.429 280.429 0 0 1 3.025 6.183l.113.24a51.588 51.588 0 0 1 .523 1.139l.109.236.026.06c.063.14.126.28.188.422.425.957.76 1.767.955 2.34.313.921.569 1.878.769 2.86.072.354.14.71.198 1.067.487 2.977.487 6.104.062 8.982l-.005-.005Z" fill="#74A352"/><path d="M170.505 58.367c-.169 3.746-1.159 7.504-3.288 10.626-.178.262-.364.515-.559.764-.012.014-.024.031-.039.045-1.075 1.355-2.384 2.495-3.83 3.44a22.229 22.229 0 0 1-3.546 1.904c-.07.032-.142.06-.215.087-.949.398-1.923.736-2.907 1.015a29.084 29.084 0 0 1-3.731.784c-1.693.253-3.399.4-5.099.559-.737.046-1.47.106-2.196.2-.499.065-1.003.135-1.504.212l-.306.05-.26.044c-.577.097-1.155.203-1.729.323-.19.041-.383.082-.576.126-.137.028-.272.06-.407.094-.203.045-.405.096-.608.147-.14.033-.279.072-.417.108-.135.036-.27.072-.405.111a8.707 8.707 0 0 0-.4.116c-.137.038-.272.08-.407.12-2.194.666-4.315 1.555-6.253 2.753a8.297 8.297 0 0 0-.316.203 19.713 19.713 0 0 0-3.17 2.51c-2.524 2.45-4.37 5.52-5.665 8.814a38.865 38.865 0 0 0-.839 2.375c-.301-.133-.586-.2-.885-.33l.005-.041c.222-1.924.748-3.819 1.329-5.627 1.771-5.67 4.194-11.423 9.89-14.003 8.866-3.994 20.153-.81 28.161-6.593a17.36 17.36 0 0 0 7.178-16.17c-.465-3.809-1.709-7.195-2.671-9.338-.713-1.589-1.959-5.234-3.912-5.644a86.89 86.89 0 0 0-.299-1.605 24.026 24.026 0 0 0-.619-2.473 17.488 17.488 0 0 0-.909-2.324c-.058-.123-.116-.246-.176-.364a.091.091 0 0 0-.01-.02c-.629-1.25-1.473-2.492-2.558-3.444l-.009-.01c-.056-.048-.111-.096-.169-.144a6.982 6.982 0 0 0-.535-.4c-.699-.48-1.842-.707-2.763-1.129-.552-.253-1.026-.58-1.277-1.075 0 0-.003-.002-.003-.007a1.757 1.757 0 0 1-.149-.448.778.778 0 0 1-.017-.198.367.367 0 0 1 .097-.253c.171-.188.513-.157.776-.08.111.032.221.066.332.102.128.04.256.082.381.127.077.03.152.053.227.082.222.082.439.172.658.265l.176.078a14.416 14.416 0 0 1 .86.427c.085.045.169.093.251.14.082.047.166.096.248.146.082.048.162.097.244.15.092.06.178.115.268.176.057.038.115.08.173.12l.256.18c3.056 2.26 4.874 5.311 6.566 8.578.027.05.051.101.08.152.012.024.021.048.036.07l.089.178.253.494.432.846c.043.087.086.176.132.263l.13.26.227.451a202.903 202.903 0 0 1 3.025 6.183c.039.08.075.162.113.241a51.588 51.588 0 0 1 .524 1.138l.108.236.027.06.188.422a25.457 25.457 0 0 1 1.66 5.215c.497 2.422.659 4.907.545 7.412l-.012-.002Z" fill="#568040"/><path opacity=".5" d="M125.941 79.512c3.21-4.12 7.918-6.602 12.334-9.321-.19.045-.383.089-.573.135-6.111 1.665-12.347 4.237-17.412 7.916-.161 2.902-2.625 6.34-4.197 8.256-1.386 1.704-2.83 3.592-4.888 4.443-.343.113-.711.267-1.018.407-.282.808-.46 1.625-.665 2.48 3.724-.197 7.463.374 10.978 1.572-.762-5.546 2.08-11.534 5.441-15.89v.002ZM151.505 66.285c3.789-.212 9.97-1.29 11.284-5.604 1.188-3.847.207-7.897-.665-11.766l-.314-1.34c.051 11.001-4.486 15.936-10.303 18.713l-.002-.003Z" fill="#AED888"/><path opacity=".62" d="M132.273 79.949c-1.665 1.366-2.962 3.018-3.96 4.802 3.478-3.41 8.034-5.386 13.699-6.51.487-.079 1.037-.175 1.666-.22-3.975-.722-8.006-.82-11.405 1.928Z" fill="#275C26"/><path d="M159.631 32.884a10.122 10.122 0 0 0-.721-1.518c-.629-1.251-1.473-2.493-2.557-3.445l-.01-.01c-.056-.048-.111-.096-.169-.144a7.01 7.01 0 0 0-.535-.4c-.699-.48-1.842-.707-2.763-1.129-.552-.253-1.026-.58-1.277-1.075 0 0-.003-.002-.003-.007a1.757 1.757 0 0 1-.149-.448.778.778 0 0 1-.017-.198c.007-.053.019-.104.031-.152.075-.328.181-.561.234-.602.789.17 1.946.573 3.24 1.501 1.213.873 2.548 2.21 3.809 4.265.598.974.836 2.164.894 3.362h-.007Z" fill="#3F5D2F"/><path d="M153.758 39.477v.024a.357.357 0 0 1-.029.174c-.069.193-.241.46-.491.726-.581.61-1.603 1.198-2.811.788-.422-.142-.716-.45-.909-.853-.202-.413-.301-.921-.332-1.447-.085-1.27.214-2.625.354-2.883a.56.56 0 0 1 .101-.13c.13-.125.33-.222.552-.318l.077-.034c.065-.029.13-.056.198-.084.019-.01.034-.015.053-.024l.017-.008c.063-.026.171.03.318.145.839.68 2.82 3.44 2.905 3.922l-.003.002Z" fill="#74A352"/><path d="M153.758 39.477v.025a.37.37 0 0 1-.029.173c-.899.09-1.911-.137-2.745-1.03-.789-.843-1.032-2.072-.791-3.085l.077-.034c.065-.029.13-.055.198-.084.019-.01.034-.014.053-.024l.017-.007c.062-.027.171.029.318.144.839.68 2.82 3.44 2.905 3.922h-.003Z" fill="#3F5D2F"/><path d="M155.668 37.882c.005.484-.142.985-.665 1.299-.299.176-.719.29-1.302.301-3.035.058-3.278-3.146-3.269-3.678.01-.456.154-1.119.574-1.15a.487.487 0 0 1 .229.036s2.738 2.478 4.117 1.883c0 0 .309.634.314 1.309h.002Z" fill="#74A352"/><path d="M155.002 39.18c-.298.177-.718.29-1.301.302-3.035.058-3.279-3.146-3.269-3.678.01-.456.154-1.119.574-1.15.217.672 1.665 4.908 3.996 4.527Z" fill="#568040"/><path d="M148.935 24.045c.012.385-.041.909-.135 1.463-.072.427-.164.868-.267 1.28-.044.171-.089.338-.135.492-.155.525-.318.947-.453 1.13-.545.728-2.343.66-2.609.174a9.302 9.302 0 0 1-.315-.694c-.022-.056-.046-.114-.068-.176-.446-1.184-.964-3.134-.388-4.281a1.6 1.6 0 0 1 .2-.314c.099-.12.203-.22.316-.299a1.7 1.7 0 0 1 .829-.306c.581-.065 1.213.104 1.743.326a5.97 5.97 0 0 1 1.118.617c.106.08.155.291.167.59l-.003-.002Z" fill="#74A352"/><path opacity=".98" d="M148.533 26.79c-.188.745-.412 1.387-.588 1.623-.545.728-2.343.66-2.609.173a9.627 9.627 0 0 1-.383-.87c-.446-1.184-.964-3.134-.388-4.281.224 1.17 1.121 4.464 3.968 3.358v-.002Z" fill="#568040"/><path d="M153.414 26.952c-.164.4-.947.935-1.82 1.39a13.04 13.04 0 0 1-1.128.524c-.704.282-1.321.453-1.562.386a1.053 1.053 0 0 1-.502-.319 1.26 1.26 0 0 1-.315-.766 1.511 1.511 0 0 1 .004-.25c.017-.174.063-.476.15-.835.108-.463.284-1.03.554-1.572.005-.012.008-.024.015-.036.014-.026.029-.058.048-.091.227-.432.516-.842.88-1.162.212-.19.453-.35.721-.465a.513.513 0 0 1 .079-.03c.135-.052.27-.081.403-.093.026-.005.053-.005.079-.005a1.39 1.39 0 0 1 .331.029c.197.038.388.116.566.221 1.085.64 1.806 2.33 1.499 3.074h-.002Z" fill="#74A352"/><path d="M150.461 28.866c-.325.13-.634.239-.892.309-.304.082-.54.113-.67.077a1.046 1.046 0 0 1-.501-.319 1.261 1.261 0 0 1-.316-.766 1.413 1.413 0 0 1 .005-.25c.017-.174.062-.476.149-.835.01-.04.019-.082.032-.128v-.007c.11-.436.277-.945.52-1.436.005-.012.007-.025.015-.037.014-.026.029-.058.048-.091.226-.432.516-.841.88-1.162.212-.19.453-.35.721-.465a.524.524 0 0 1 .079-.03c-.034.07-2.623 3.764-.072 5.14h.002Z" fill="#568040"/><path d="M94.943 89.39 87.47 82.4s3.782 1.521 7.473 6.99Z" fill="#949984" style="mix-blend-mode:multiply" opacity=".63"/></svg>