<svg width="200" height="200" fill="none" xmlns="http://www.w3.org/2000/svg"><path d="M155.99 115.27c0 .84-.02 1.7-.05 2.54l-.03.66-.01.17-.04.59v.13l-.01.08-.06.68v.01l-.01.15-.06.6v.08l-.07.63-.01.1-.1.73v.04l-.09.67a2.65 2.65 0 0 0-.01.1v.01l-.03.16v.07l-.09.54-.06.4-.06.32-.13.75-.06.34-.07.32a24.57 24.57 0 0 1-.07.37l-.05.25-.08.33-.13.6-.03.12a61.06 61.06 0 0 1-.55 2.2l-.02.08-.01.06-.01.02-.1.34a6.05 6.05 0 0 0-.05.22l-.02.06-.18.61-.14.45v.01l-.14.46-.02.05-.11.36-.02.05-.06.19-.06.18-.17.51a.77.77 0 0 1-.03.08l-.11.33-.18.5-.02.06-.2.56-.12.31-.34.9-.34.83a51.13 51.13 0 0 1-.42 1l-.04.09-.14.33-.15.32-.07.16a73.96 73.96 0 0 1-.32.7l-.07.16-.08.17-.18.36a4.16 4.16 0 0 1-.13.28l-.4.82-.19.36-.27.53v.01a53 53 0 0 1-.92 1.68v.01l-.28.5-.11.18-.19.32-.01.02-2.04.6-.22.07.03.18.39 2.11-.01.02-.2.3a30.77 30.77 0 0 1-.43.63l-.6.84-.16.23-.23.32-.02.02a2.66 2.66 0 0 0-.1.14 1.78 1.78 0 0 0-.04.06l-.08.1a72.05 72.05 0 0 1-.69.92l-.58.74-.13.16a31.33 31.33 0 0 1-.68.84 19.61 19.61 0 0 1-.43.5l-.12.15a4.82 4.82 0 0 1-.12.14l-.55.63-.1.1-.09.1-.31.36a51.72 51.72 0 0 1-1.46 1.54l-.2.2-.12.12-.34.34c-.1.1-.21.22-.33.32l-.23.23-.23.22h-.01a2.65 2.65 0 0 1-.1.1 1.63 1.63 0 0 1-.1.09l-.28.27-.03.03a9.3 9.3 0 0 0-.18.17l-.13-.02-4.29-.53-.73 4.65-.02.11-.08.06a3.27 3.27 0 0 1-.13.1l-.5.36-.3.22-.15.1-.04.03-.01.01-.37.27-.39.26-.72.49-.17.12-.33.21-.38.25-.12.08c-.09.05-.17.1-.24.16l-.18.1-.27.18a.86.86 0 0 0-.07.05l-.22.13-.03.02a73.3 73.3 0 0 1-1.55.94l-.28.17-.09.05a20.96 20.96 0 0 1-.5.29l-.15.09-.26.14-.34.19-.03.01a3.16 3.16 0 0 1-.16.1l-.21.11a42.16 42.16 0 0 1-1.41.76l-.14.07-.35.18-.16.08a2.17 2.17 0 0 1-.09.04l-.2.1-.4.2-.62.31-.15.07-.04.02-.19.1-.56.25-.5.23-.01.01-.2.08-.08.05-.56.25-.14.05-.28.13-.37.16-.72.3-.34.14-.43.18-.74.3c-.05 0-.09.02-.13.04l-.55.2-.1.05-.32.12-.4.14-.11.05-.5.17-.13.05-.48.17a5.84 5.84 0 0 1-.27.09l-.54.18a42.65 42.65 0 0 1-.81.27l-.18.06-.52.15-.15.05-.06.02-.06.02-.61.18-.1.03-.07.02-.5.14a5.91 5.91 0 0 1-.32.1l-.52.14a1.2 1.2 0 0 1-.11.03l-.55.14-.15.04-.12.03-.57.15a1.38 1.38 0 0 1-.08.02l-.14.03-.25.06-.58.14-.35.08c-.18.05-.37.08-.55.12h-.02l-.32.08-.15.03-.13.03-.07.01a.23.23 0 0 1-.04.01l-.16.03-.08.02-.27.05-.05.01-.1.02-.23.05a23 23 0 0 1-.45.09l-.27.05a23.49 23.49 0 0 1-.82.15h-.06l-.93.16-.69.11-.66.1-.26.04-.7.1-1.63.19-.8.08-.72.07-.3.02c-.75.06-1.5.12-2.25.16l-.61.03-1.23.04-.62.02c-.74.01-1.47.02-2.21.01h-.75l-.65-.02h-.02a93.6 93.6 0 0 1-1.3-.05 70.7 70.7 0 0 1-.66-.03l-1.27-.07h-.06l-.55-.05-.17-.01-.57-.05a62.52 62.52 0 0 1-.97-.1 76.73 76.73 0 0 1-5-.65l-.6-.1a67.97 67.97 0 0 1-1.38-.26 44.73 44.73 0 0 1-.57-.11l-.65-.14a80.25 80.25 0 0 1-1.3-.28l-.6-.14a77.56 77.56 0 0 1-2-.5l-.63-.18-.65-.18a88.89 88.89 0 0 1-1.53-.46l-.51-.15a43.92 43.92 0 0 1-1-.33l-.08-.02-.72-.24a43.63 43.63 0 0 1-.56-.2l-.51-.18a8.11 8.11 0 0 1-.25-.1 23.29 23.29 0 0 1-.64-.23 77.17 77.17 0 0 1-2.3-.9 77.94 77.94 0 0 1-18.79-11.02l-1.01-1.18a71.45 71.45 0 0 1-1.77-2.17c-.27-.36-.54-.7-.78-1.04a21.4 21.4 0 0 1-1.12-1.67c-.73-1.24-1.98-1.9-3.46-2.47a7.25 7.25 0 0 1-2.85-2l-.01-.02-.45-.51a97.2 97.2 0 0 1-7.94-10.68 7.57 7.57 0 0 1-.35-.6 7.8 7.8 0 0 1-.7-1.9v-.01l-.04-.2c-.82-3.6-.88-5.2-2.04-6.37a3.97 3.97 0 0 0-.47-.4c-2.27-1.7-3.51-3.87-3.61-5.58-.02-.32 0-.61.06-.9.1-.5 0-1.1-.21-1.72a10.9 10.9 0 0 0-1.17-2.2 25.05 25.05 0 0 0-.5-.71 5.33 5.33 0 0 1-.83-1.82l-.01-.05a23.03 23.03 0 0 1-.66-4.24v-.01l-.02-.3-.01-.35a23.1 23.1 0 0 1 .04-2.28l.02-.44c.06-.86.08-1.7.06-2.45a4.91 4.91 0 0 0-.64-2.6 2.22 2.22 0 0 1-.13-.2 4.16 4.16 0 0 1-.4-.93 6.55 6.55 0 0 1-.3-1.88 70.6 70.6 0 0 1 2.57-19.4c5.7-20.82 19.56-36.51 27.6-41.87h.02a70 70 0 0 1 1.45-.94c11.54-7.36 23.3-10.92 34.94-10.9 2.13.66 4.95.63 7.67.55 17.89 2.47 35.29 13.44 50.9 32.18l.3.37c1 1.21 1.98 2.43 2.93 3.65a127.05 127.05 0 0 1 2.22 2.98l1 1.4.49.7a117.88 117.88 0 0 1 2.8 4.27l.45.71a99.55 99.55 0 0 1 1.7 2.88 36.67 36.67 0 0 1 .93 1.65l.31.58c.13.22.24.44.36.67l.34.64a89.23 89.23 0 0 1 1.06 2.11l.02.03a84.68 84.68 0 0 1 2.1 4.66c.25.59.49 1.17.71 1.76l.22.56.35.93.2.55.25.7.15.42.22.66.23.71v.02l.23.7.04.11.23.77.2.66c0 .06.03.12.04.18l.2.69.13.5.13.47.19.76.12.48.24 1.05a61 61 0 0 1 .57 2.75l.08.43.3 1.8.08.63.01.07a36.27 36.27 0 0 1 .18 1.36l.04.37.07.66a24.34 24.34 0 0 1 .1.98c0 .18.02.35.04.53l.01.17.04.54.02.3a53.73 53.73 0 0 1 .08 1.55l.02.63a57.34 57.34 0 0 1 .03 1.82l-.04-.01Z" fill="#8B7E74"/><path d="M155.99 115.27c0 .85-.02 1.7-.05 2.54l-.03.66-.01.17-.04.59v.13l-.01.08-.06.68v.01l-.01.15-.06.6v.08l-.07.63-.01.1-.1.73v.04l-.09.67a2.65 2.65 0 0 0-.01.1v.01l-.03.16a.34.34 0 0 1 0 .07l-.09.54a42.54 42.54 0 0 0-.06.4l-.06.32-.13.75-.06.34-.07.32a24.57 24.57 0 0 1-.07.37l-.05.25-.08.33a42.94 42.94 0 0 1-.16.72 69.63 69.63 0 0 1-.55 2.2l-.02.08-.01.06-.01.02a14.88 14.88 0 0 0-.1.34l-.02.12-.03.1-.02.06-.18.61-.13.45v.01l-.15.46-.02.05-.1.36-.03.05-.06.19-.06.18a34.25 34.25 0 0 1-.2.59l-.11.33-.18.5-.01.06-.21.56-.12.31c-.1.3-.23.6-.34.9l-.34.83-.05.14a51.18 51.18 0 0 1-.37.86l-.04.09-.14.33-.14.32-.08.16a73.96 73.96 0 0 1-.32.7l-.07.16-.08.17-.17.36a4.16 4.16 0 0 1-.14.28l-.4.82-.18.36-.28.53v.01a53.05 53.05 0 0 1-.91 1.68l-.01.01-.28.5-.11.18-.09.15-.1.17a.25.25 0 0 0-.01.02l-2.04.6-.22.07.03.18.39 2.11-.01.02-.2.3c-.13.2-.26.4-.4.58l-.03.05-.6.84-.16.23-.23.32-.02.02a2.67 2.67 0 0 0-.1.14l-.04.06-.08.1c-.21.3-.43.59-.65.87l-.04.05-.58.74-.13.16a19.93 19.93 0 0 1-.5.61l-.18.23-.05.06-.38.44-.12.15a45.72 45.72 0 0 1-.76.87l-.1.1-.31.36-.3.32-1.16 1.22-.2.2-.12.12c-.1.12-.22.23-.33.34l-.34.32-.22.23-.24.22a3.84 3.84 0 0 1-.1.1l-.1.09-.29.27-.03.03-.18.17-.13-.02-4.28-.53-.74 4.65-.02.11c-.02.03-.05.04-.08.06a3.27 3.27 0 0 1-.12.1l-.5.36-.31.22-.14.1-.05.03v.01l-.38.27-.39.26c-.23.17-.48.33-.72.49l-.17.12-.33.21-.38.25-.12.08-.24.16-.18.1-.26.18a1.05 1.05 0 0 0-.08.05l-.22.13-.03.02a73.3 73.3 0 0 1-1.54.94l-.29.17-.08.05a19.16 19.16 0 0 1-.5.29 3.86 3.86 0 0 1-.23.13l-.18.1-.34.19-.03.01a3.16 3.16 0 0 1-.16.1l-.22.11a45.05 45.05 0 0 1-1.41.76l-.13.07-.36.18-.16.08a2.17 2.17 0 0 1-.08.04c-.07.04-.14.08-.21.1l-.4.2-.62.31-.14.07-.05.02-.19.1-.55.25-.5.23-.02.01a4.63 4.63 0 0 1-.19.08l-.09.05-.56.25-.13.05-.28.13-.37.16-.73.3-.34.14-.43.18-.74.3-.12.04a26.87 26.87 0 0 1-.56.2l-.1.05-.71.26a26.25 26.25 0 0 1-.75.27l-.48.17a7.28 7.28 0 0 1-.27.09l-.54.18-.43.14-.38.13a4.86 4.86 0 0 0-.18.05l-.34.1a5.94 5.94 0 0 1-.18.06l-.15.05-.06.01-.06.02-.61.19-.1.02-.07.03a16.4 16.4 0 0 1-.82.23l-.52.14a1.2 1.2 0 0 1-.11.03l-.55.15-.15.04-.12.03a36.39 36.39 0 0 1-.65.16l-.14.04-.25.06-.58.14-.35.08-.55.12h-.02l-.32.07-.28.06-.07.02a.34.34 0 0 1-.04 0l-.16.04-.08.01-.27.06-.05.01-.1.02-.23.05a23 23 0 0 1-.45.08l-.27.05a6.84 6.84 0 0 1-.3.06 15.66 15.66 0 0 1-.52.1h-.06l-.93.16-.69.1a69.41 69.41 0 0 1-.92.14l-.7.1-1.63.2-.8.08-.72.06-.3.03a73.12 73.12 0 0 1-4.1.23l-.6.01c-.75.02-1.48.02-2.22.02h-.12l-.63-.01-.65-.02h-.02a80.23 80.23 0 0 1-1.3-.04l-.66-.03-1.27-.08h-.06l-.55-.04-.18-.02-.56-.04-.97-.1a76.73 76.73 0 0 1-2.98-.35l-.65-.1a70.98 70.98 0 0 1-1.36-.2l-.6-.11a67.97 67.97 0 0 1-1.4-.26 44.73 44.73 0 0 1-.56-.11l-.65-.13a63.42 63.42 0 0 1-1.3-.29l-.6-.14a77.56 77.56 0 0 1-2-.5l-.63-.17-.65-.19a75.87 75.87 0 0 1-1.53-.45l-.51-.16a56.89 56.89 0 0 1-1.08-.35l-.72-.24-.56-.2-.51-.18a27.18 27.18 0 0 1-.89-.32 72.87 72.87 0 0 1-2.3-.9 77.5 77.5 0 0 1-9.74-20.61c-11.43-38.5 14.92-71.5 27.37-79.79 19.92-13.26 40.58-15.18 60.14-6.73l.92.4a127.53 127.53 0 0 1 1.82 2.45l1 1.4.49.7a106.33 106.33 0 0 1 3.25 4.98 109.51 109.51 0 0 1 1.7 2.88 29.51 29.51 0 0 1 .66 1.15 18.46 18.46 0 0 1 .58 1.08l.36.66v.01l.34.64a89.23 89.23 0 0 1 1.06 2.11l.02.03.27.56a84.69 84.69 0 0 1 1.84 4.1c.24.59.48 1.17.7 1.76l.22.56.35.93.2.54.25.7.15.43.22.66.23.71v.02l.23.69.04.12.23.77.2.66.05.18.19.69.13.5.13.47.19.76.12.48.24 1.05.35 1.6.13.67.09.47.08.44.3 1.8.08.62.01.08a36.27 36.27 0 0 1 .18 1.36l.04.37.07.66a24.9 24.9 0 0 1 .1.97c0 .19.02.36.04.54l.01.17.04.54.02.3a54.18 54.18 0 0 1 .08 1.55l.02.63a57.27 57.27 0 0 1 .03 1.82l-.04-.01Z" fill="#949984" style="mix-blend-mode:multiply" opacity=".33"/><path d="M157.21 108.86v-.3a.31.31 0 0 0 0-.06l-.01-.4v-.1l-.03-.75a45.89 45.89 0 0 0-.04-.83 23.86 23.86 0 0 0-.03-.66 37.99 37.99 0 0 0-.06-.95l-.06-.73-.01-.19-.07-.82-.1-.88a47.72 47.72 0 0 0-.07-.67l-.06-.57a25.68 25.68 0 0 0-.07-.5l-.09-.7-.1-.68a54.59 54.59 0 0 0-.1-.7l-.02-.15-.1-.6v-.05l-.14-.75-.13-.76a82.71 82.71 0 0 0-.39-1.94l-.15-.72a70.86 70.86 0 0 0-.51-2.14l-.16-.63-.04-.16-.15-.56a11.2 11.2 0 0 0-.05-.2l-.17-.6a77.51 77.51 0 0 0-1.17-3.81 78.44 78.44 0 0 0-.48-1.4l-.12-.35-.3-.83a82.32 82.32 0 0 0-2.89-6.84 79.8 79.8 0 0 0-1.37-2.74 82.26 82.26 0 0 0-2.65-4.72 87.3 87.3 0 0 0-6.62-9.49l-.42-.52-.85-1.03-.43-.51a87.03 87.03 0 0 0-5.77-6.16l-.14-.13a55.05 55.05 0 0 0-.77-.73 84.34 84.34 0 0 0-2.94-2.65 26.3 26.3 0 0 0-.42-.36 39.57 39.57 0 0 0-.96-.8 3.57 3.57 0 0 0-.16-.14l-.71-.58a6.72 6.72 0 0 0-.22-.17l-.72-.57a81.7 81.7 0 0 0-4.6-3.34 82.91 82.91 0 0 0-9.6-5.61 4.52 4.52 0 0 0-.29-.13 5.05 5.05 0 0 0-1.31-.4 7.49 7.49 0 0 0-.23-.02 3.86 3.86 0 0 0-.29-.03 4.28 4.28 0 0 0-.31-.01h-.02a1.59 1.59 0 0 1-.27-.03 2.44 2.44 0 0 1-.3-.07 5.63 5.63 0 0 1-.88-.39 9.31 9.31 0 0 1-1.34-.9 8.4 8.4 0 0 0-1.33-.87 7.01 7.01 0 0 0-.87-.4 74.51 74.51 0 0 0-1.67-.6 8.4 8.4 0 0 0-3.87-.36l-.23.02c-2.51.2-3.66-1.93-7.55-2.76a17.12 17.12 0 0 0-.53-.1h-.02c-1.7-.25-3.98-.14-6.34-.07-2.72.09-5.54.11-7.67-.53h-.01a6.66 6.66 0 0 0-.3-.09 7.86 7.86 0 0 0-1.48-.26h-.02a6.3 6.3 0 0 0-.86-.01h-.18l-.38.04a31.49 31.49 0 0 0-.67.05l-.56.04-.58.05-.42.05a33.92 33.92 0 0 0-1.18.13c-.59.07-1.17.15-1.76.24a40.87 40.87 0 0 0-1.11.18 49.88 49.88 0 0 0-1.27.22 54.23 54.23 0 0 0-2.06.42l-.2.04a78.22 78.22 0 0 0-2.1.52 61.4 61.4 0 0 0-4.2 1.25l-.1.03a61.9 61.9 0 0 0-4.65 1.79 60.91 60.91 0 0 0-7.04 3.6l-.04.03-.95.58-.02.01-.72.46a58.21 58.21 0 0 0-3.53 2.46h-.01a60.96 60.96 0 0 0-3.6 2.93 53.63 53.63 0 0 0-1.5 1.37l-.3.28-.44.43a18.16 18.16 0 0 0-.55.55l-.58.6-.1.1-.55.59a51.89 51.89 0 0 0-2.6 3.03 8.88 8.88 0 0 0-.24.3 12.87 12.87 0 0 0-.65.85 29.38 29.38 0 0 0-.53.72l-.5.7-.77 1.1a42.39 42.39 0 0 0-.59.91 43.3 43.3 0 0 0-.57.92 49.39 49.39 0 0 0-.9 1.52l-.38.68-.37.68a53.84 53.84 0 0 0-.79 1.53l-.1.22-.25.5a11.16 11.16 0 0 0-.39.84 53.87 53.87 0 0 0-1.6 3.9 44.62 44.62 0 0 0-.49 1.36 57.48 57.48 0 0 0-2.36 9.49 58.82 58.82 0 0 0-.59 5.14 72.53 72.53 0 0 0-.11 8.3 76.53 76.53 0 0 0 1.21 10.74c.05.23.1.46.13.7.23 1.15.48 2.31.76 3.47a82.34 82.34 0 0 0 5.63 15.95 86.62 86.62 0 0 0 11 17.46 87.93 87.93 0 0 0 7.65 8.33 86.61 86.61 0 0 0 6.19 5.37l.15.12a82.71 82.71 0 0 0 2.74 2.07l.7.5.64.45.1.07.62.42a71.77 71.77 0 0 0 2.79 1.81l.74.46.44.26.9.53.4.23.24.15 1.23.68a87.58 87.58 0 0 0 4.37 2.23l.67.31.32.14a76.03 76.03 0 0 0 2.59 1.13l.29.12.29.12a89.04 89.04 0 0 0 2.35.9c.78.3 1.57.57 2.36.84l.38.12.7.23.54.17 1.15.34.46.14a74.8 74.8 0 0 0 5.35 1.32l.64.13.08.01.4.08a74.52 74.52 0 0 0 6.64.97l.66.07a83 83 0 0 0 2.1.16l.36.02a41.85 41.85 0 0 0 .83.04l.71.03.54.01h.17l.32.02a17.7 17.7 0 0 0 .64 0l.73.01a66.1 66.1 0 0 0 20.37-3.18 60.57 60.57 0 0 0 16.78-8.53l.4-.29a60.84 60.84 0 0 0 3.33-2.64l.7-.6.86-.78a48.55 48.55 0 0 0 2.32-2.26l.16-.17.22-.22a9.25 9.25 0 0 0 .21-.23l.28-.3.41-.45c.4-.44.8-.89 1.17-1.34a35.42 35.42 0 0 0 .54-.65 124.66 124.66 0 0 0 .85-1.06l-.03-.18.09-.03.13-.04c.03-.04.06-.09.1-.12l.53-.71.1-.16h.01l.1-.13.08-.12.2-.28a43.58 43.58 0 0 0 1.52-2.23l.47-.75a48.77 48.77 0 0 0 1.3-2.21l.03-.06.08-.13.37-.68.36-.69c.4-.8.8-1.6 1.18-2.42l.38-.85a57 57 0 0 0 1.61-4.12v-.02c.1-.3.21-.59.3-.89l.3-.89.04-.17a35.94 35.94 0 0 0 .25-.82 26.9 26.9 0 0 0 .49-1.78l.21-.87.03-.12.18-.77.04-.17.14-.68.06-.27.1-.51.06-.33.07-.34.03-.17.11-.67.11-.68v-.03l.1-.65.1-.68v-.09l.08-.6a45 45 0 0 0 .17-1.65l.03-.26.06-.84a73.85 73.85 0 0 0 .17-6.36Z" fill="#D2B297"/><path opacity=".35" d="M157.2 112.13a72.18 72.18 0 0 1-.16 3.1l-.06.83a45 45 0 0 1-.2 1.91l-.07.6-.02.09c-.02.23-.06.45-.09.68l-.1.66a.06.06 0 0 1 0 .02l-.1.68c-.05.22-.08.45-.12.67l-.03.17-.07.34-.06.33-.1.51-.06.27a32.54 32.54 0 0 1-.18.85l-.18.77-.03.12a46.58 46.58 0 0 1-.43 1.68 30.21 30.21 0 0 1-.27.97l-.03.1-.22.72-.05.17-.28.9-.3.88v.02a57 57 0 0 1-1.62 4.12l-.38.85a59.38 59.38 0 0 1-1.18 2.42l-.36.69a47.92 47.92 0 0 1-.48.87 49.26 49.26 0 0 1-1.3 2.21l-.47.75a62.3 62.3 0 0 1-1.51 2.23l-.2.28a1.4 1.4 0 0 1-.1.12c-.02.05-.06.09-.09.13a4 4 0 0 1-.12.16l-.53.7-.09.13-.13.04-.1.03.04.18a93.56 93.56 0 0 1-.85 1.06.28.28 0 0 1-.04.04 35.42 35.42 0 0 1-1.67 1.95 27.33 27.33 0 0 1-.9.98l-.22.22-.16.17a33.3 33.3 0 0 1-1.47 1.47 57 57 0 0 1-2.4 2.17 59.79 59.79 0 0 1-3.34 2.64l-.4.29a58.73 58.73 0 0 1-4.18 2.77 60.5 60.5 0 0 1-11.3 5.32 73.46 73.46 0 0 1-3.93 1.24 66.1 66.1 0 0 1-17.74 2.38h-.86l-.51-.01-.32-.01h-.17l-.54-.02a34.71 34.71 0 0 1-.71-.03 41.9 41.9 0 0 1-.7-.04h-.13a8.62 8.62 0 0 1-.37-.02 82.72 82.72 0 0 1-2.1-.16l-.65-.07a74.04 74.04 0 0 1-6.63-.97l-.41-.08h-.08l-.65-.14a75.61 75.61 0 0 1-1.55-.35l-.78-.18a74.67 74.67 0 0 1-3-.8l-.47-.13c-.38-.1-.77-.22-1.15-.34l-.53-.17a37.48 37.48 0 0 1-.72-.23l-.37-.12a74.2 74.2 0 0 1-3.3-1.19 46.5 46.5 0 0 1-.96-.37l-.45-.18-.3-.12-.28-.12a76.03 76.03 0 0 1-1.84-.79l-.75-.33-.32-.15-.67-.31a86.1 86.1 0 0 1-4.37-2.23l-1.23-.68-.25-.15-.4-.23a46.17 46.17 0 0 1-.89-.52l-.44-.27-.74-.46a52.78 52.78 0 0 1-1.12-.7 68.5 68.5 0 0 1-1.67-1.1l-.62-.43a50.5 50.5 0 0 1-.74-.52l-.7-.5a87.17 87.17 0 0 1-2.74-2.07c-1.4-9.1 1.26-15.29 6.96-18.63a18.28 18.28 0 0 1 2.69-1.29 25.29 25.29 0 0 1 5.88-1.42 44.4 44.4 0 0 1 10.5.07c3.56.4 7.4 1.16 11.5 2.26 5.24 1.41 10.89 3.4 16.85 5.94a65.13 65.13 0 0 0 8.72 3.07c24.35 6.5 29.68-11.59 23.04-27.52a38.4 38.4 0 0 0-3.08-5.9 10.58 10.58 0 0 1-1.41-3.58 12.67 12.67 0 0 1-.16-.98 14.89 14.89 0 0 1 .1-4.3 16.67 16.67 0 0 1 1.73-5.14l.11-.22a18.2 18.2 0 0 1 2.5-3.54 21.6 21.6 0 0 1 9.47-5.97 29.1 29.1 0 0 1 4.14-1.03 35.14 35.14 0 0 1 3.44-.42c.22-.02.43-.11.66-.16l.3.82.12.36a97.47 97.47 0 0 1 .48 1.4l.18.55.15.45a77.75 77.75 0 0 1 .84 2.8l.17.61.05.2.15.56.04.15.16.63.18.71.33 1.43.15.72.2.97a66.48 66.48 0 0 1 .32 1.73c.05.25.1.5.13.75l.01.05.1.6.02.16.1.7.1.68.1.7.06.5.06.56a69.03 69.03 0 0 1 .16 1.55l.08.82.01.2a44.33 44.33 0 0 1 .15 2.33 45.58 45.58 0 0 1 .06 1.59v.08l.02.41a.2.2 0 0 1 0 .06 71.07 71.07 0 0 1-.02 3.57Z" fill="#C29770"/><path opacity=".35" d="M77.64 96.37s-26.32 4.17-11.85 23.09c11.25 14.7 20.25-1.2 28.87-3.83 8.63-2.63 26.5 8.2 26.37 1.62s13.3-24.37 2.95-28.69c-10.35-4.32-28.4-14.05-29.32 1.8-.93 15.85-15.05 6.3-15.05 6.3l-1.97-.3Z" fill="#C29770"/><path d="m115.4 85.77.47 1 .22-.27.64-.8-1.33.06Zm19.86 10.92a50.97 50.97 0 0 0-.4-2.4 53.2 53.2 0 0 0-.76-3.5 50.12 50.12 0 0 0-.5-1.82 56.24 56.24 0 0 0-1.33-4.05 55.99 55.99 0 0 0-1.01-2.53l-.01-.02a41.87 41.87 0 0 0-.45-1.04 59.43 59.43 0 0 0-3.79-7.09 61.99 61.99 0 0 0-10.3-12.5l-.26-.24-.8-.73a46.47 46.47 0 0 0-1.12-.96 55.45 55.45 0 0 0-2.55-2.04l-.8-.6a56.52 56.52 0 0 0-3.94-2.63C88.91 43.3 66.32 43.47 50.87 56.66l-.49.42a39.27 39.27 0 0 0-13.02 26.77 52.15 52.15 0 0 0 .13 8.76c.87 8.94 4.02 18 9.45 26.2a61.73 61.73 0 0 0 4.39 5.83 61.12 61.12 0 0 0 6.9 6.93c15.79 13.49 36.71 17.24 53.46 9.92a41.97 41.97 0 0 0 10.95-6.98 38.79 38.79 0 0 0 12.1-20.54c.46-2.04.77-4.12.92-6.23a52.73 52.73 0 0 0-.4-11.06Zm-24.24 22.82-.3.26c-6.87 5.95-16.08 7.57-24.89 5.26a32.72 32.72 0 0 1-4.52-1.55 35.8 35.8 0 0 1-13.35-10.02 37.23 37.23 0 0 1-5.41-8.6 34.51 34.51 0 0 1-3.1-14.65 29.03 29.03 0 0 1 .2-3.05c.06-.52.14-1.04.23-1.55a24.55 24.55 0 0 1 3.1-8.2 23.17 23.17 0 0 1 4.4-5.33l.3-.26a25.23 25.23 0 0 1 1.3-1.05 24.34 24.34 0 0 1 2.4-1.6 25.83 25.83 0 0 1 9.92-3.39c1.7-.22 3.42-.28 5.16-.18 2.96.16 5.95.77 8.85 1.82a33.75 33.75 0 0 1 6.2 2.98 34.25 34.25 0 0 1 3.34 2.31 37.06 37.06 0 0 1 5.6 5.42l.03.04.08.1a35.55 35.55 0 0 1 1.73 2.25 35.84 35.84 0 0 1 2.04 3.22 24.44 24.44 0 0 1 1.07 2.03 35.2 35.2 0 0 1 2.24 5.83c.3 1.04.54 2.09.74 3.13v.04c.53 2.8.7 5.6.5 8.34a25.13 25.13 0 0 1-1.65 7.4 23.59 23.59 0 0 1-4.91 7.74c-.42.44-.85.86-1.3 1.26Z" fill="#74A352"/><path d="M102.71 97.58a9.9 9.9 0 0 1-3.4 6.81 3 3 0 0 1-.12.1c-5.19 4.32-13.46 3.15-18.47-2.61a14.36 14.36 0 0 1-3.65-10.38 9.9 9.9 0 0 1 3.53-6.92c5.18-4.31 13.45-3.14 18.47 2.62a14.36 14.36 0 0 1 3.64 10.38Z" fill="#D7283A"/><path d="m15.6 91.09 13.5-.66-13.33-3.63-5.11 3.5 4.95.79Z" fill="#8B7E74"/><path d="m15.6 91.09 13.5-.66-13.33-3.63-5.11 3.5 4.95.79Z" fill="#949984" style="mix-blend-mode:multiply" opacity=".33"/><path d="m15.66 89.33 13.45 1.1-13.34-3.63-5.11 3.5 5-.97Z" fill="#949984" style="mix-blend-mode:multiply" opacity=".33"/><path d="m15.66 89.33 13.45 1.1-13.34-3.63-5.11 3.5 5-.97Z" fill="#949984" style="mix-blend-mode:multiply" opacity=".33"/><path d="m136.34 159.1-.85-.12-3.43-.43v.02l-.74 4.64-1.27-2.67-4.82-11 8.47 7.35 2.64 2.2Zm11.26-13.87-1.98.58-.06.02-.1.03-.13.04.04.18.38 2.11-1.23-1.05-2.84-2.72-1.47-1.42 1.79.54 4.3 1.3 1.3.39Z" fill="#8B7E74"/><path d="m136.34 159.1-.85-.12-3.43-.43v.02l-.74 4.64-1.27-2.67-4.82-11 8.47 7.35 2.64 2.2Zm9.03-13.02.38 2.11-1.23-1.05-2.84-2.72-1.47-1.42 1.78.54 4.3 1.3h.01l1.3.4-1.98.57-.06.02-.1.03-.13.04.04.18Z" fill="#949984" style="mix-blend-mode:multiply" opacity=".33"/><path d="m136.34 159.1-.85-.12-3.43-.43v.02l-.74 4.64-1.27-2.67-4.82-11 8.47 7.35 2.64 2.2Z" fill="#949984" style="mix-blend-mode:multiply" opacity=".33"/><path d="m136.34 159.09-.85-.1-3.43-.42h-.03l-6.8-9.02 8.47 7.34 2.64 2.2Z" fill="#949984" style="mix-blend-mode:multiply" opacity=".65"/><path d="m145.37 146.08.38 2.11-1.23-1.05-2.84-2.72-1.47-1.42 1.78.54 4.3 1.3h.01l1.3.4-1.98.57-.06.02-.1.03-.13.04.04.18Z" fill="#949984" style="mix-blend-mode:multiply" opacity=".33"/><path d="m147.6 145.23-1.98.58-.12.03-.05.02-.11.04h-.01l-3.47-1.96-1.65-.94 1.79.54 4.3 1.3 1.3.39Z" fill="#949984" style="mix-blend-mode:multiply" opacity=".65"/><path d="m77.04 85.42 7.47 4.77s-2.76-3.1-7.47-4.76Zm12.78 15.8 8.08 6.75s-2.78-4.07-8.08-6.74Z" fill="#949984" style="mix-blend-mode:multiply" opacity=".63"/><path d="m93.86 97.73.6 10.52s1.07-4.83-.6-10.52Zm-1.22-12.06-7.81-10.46s5.52 4.39 7.81 10.46Z" fill="#949984" style="mix-blend-mode:multiply" opacity=".63"/><path d="M138.28 58.41a81.6 81.6 0 0 0-.85-1.03l-.43-.51a87.37 87.37 0 0 0-5.77-6.16l-.14-.13a53.9 53.9 0 0 0-.77-.73 83.55 83.55 0 0 0-2.94-2.65 31.6 31.6 0 0 0-.42-.36 43.02 43.02 0 0 0-1.12-.94 74.38 74.38 0 0 0-.93-.75l-.72-.57-.14-.1-.73-.57a82.18 82.18 0 0 0-3.73-2.67 82.98 82.98 0 0 0-9.6-5.61 5.6 5.6 0 0 0-1.5-.5l-.1-.02a7.94 7.94 0 0 0-.23-.03 4 4 0 0 0-.29-.03 4.37 4.37 0 0 0-.31-.01h-.02l-.27-.03a2.42 2.42 0 0 1-.3-.07 4.97 4.97 0 0 1-.88-.39 9.31 9.31 0 0 1-1.34-.9 8.34 8.34 0 0 0-1.33-.87 8.5 8.5 0 0 0-.57-.27l-.3-.12a73.54 73.54 0 0 0-1.67-.61 8.4 8.4 0 0 0-4.1-.34c-2.51.2-3.66-1.93-7.55-2.76a17.06 17.06 0 0 0-.53-.1h-.02c-1.7-.25-3.98-.14-6.34-.07-2.72.09-5.54.11-7.67-.53h-.01a8.2 8.2 0 0 0-2.93-.35l-.3.02a30.11 30.11 0 0 0-.66.06l-.56.04-.58.05-.42.05a33.82 33.82 0 0 0-1.18.13 54.2 54.2 0 0 0-1.76.24 40.87 40.87 0 0 0-1.11.18 50.05 50.05 0 0 0-1.12.2l-.15.02a49.03 49.03 0 0 0-2.06.42l-.2.04a76.62 76.62 0 0 0-2.1.52 60.88 60.88 0 0 0-3.14.9l-.09.03-.98.32-.08.03a61.85 61.85 0 0 0-4.66 1.79 60.87 60.87 0 0 0-8.03 4.2l-.02.02-.72.46-.7.46a61.06 61.06 0 0 0-2.83 2h-.01a61.03 61.03 0 0 0-3.6 2.93 47.72 47.72 0 0 0-1.5 1.37l-.3.28-.44.43a17.97 17.97 0 0 0-.55.55 33.77 33.77 0 0 0-.67.7l-.56.59a53.15 53.15 0 0 0-2.6 3.03 8.88 8.88 0 0 0-.24.3 12.87 12.87 0 0 0-.65.85 29.73 29.73 0 0 0-.53.72l-.5.7-.77 1.1a42.88 42.88 0 0 0-.59.91 42.75 42.75 0 0 0-.57.92 50.2 50.2 0 0 0-.9 1.52l-.38.68a37.8 37.8 0 0 0-.77 1.44l-.39.77-.1.22-.25.5a13.96 13.96 0 0 0-.39.84 53.84 53.84 0 0 0-1.83 4.52l-.26.74a47.62 47.62 0 0 0-.32.98c.1.25 7.88 17.6 18.88 25.2 3.22 2.24 6.72 3.64 10.38 3.52a13.13 13.13 0 0 0 2.66-.35 14.09 14.09 0 0 0 1.6-.47 17.04 17.04 0 0 0 5.43-3.22c.67-.58 1.3-1.2 1.89-1.87a26.16 26.16 0 0 0 2.1-2.71c.32-.47.63-.96.93-1.45a41.47 41.47 0 0 0 1.92-3.58 75.3 75.3 0 0 0 2.65-6.32c.67-1.8 1.3-3.6 1.93-5.38l.31-.9c3.13-8.93 6.14-16.95 12.75-18.08 7.36-1.26 17.1.56 25.2 2.75 3.12.84 5.99 1.74 8.38 2.54l.5.17.93.31a189.38 189.38 0 0 1 4.66 1.68l.65.24c.33.12.86.3 1.54.48 2.28.63 6.22 1.46 9.65 1.11 2.05-.2 3.92-.82 5.15-2.14l-.42-.52Z" fill="#D2B297" style="mix-blend-mode:screen" opacity=".2"/><path fill-rule="evenodd" clip-rule="evenodd" d="m132.91 103.25-64.79 29.98-.18.08a2.1 2.1 0 0 1-1.62.06 2.12 2.12 0 0 1-1-.78 2.34 2.34 0 0 1-.15-.25l-22.6-47.3a1.11 1.11 0 0 1 .67-1.54L110 62.88l.47.73.19.29 23.17 36.23v.02c.7 1.1.27 2.56-.9 3.1Z" fill="#949984" style="mix-blend-mode:multiply" opacity=".63"/><path fill-rule="evenodd" clip-rule="evenodd" d="M135.72 96.46 69.97 129.1l-.43.21-.16.08a2.15 2.15 0 0 1-1.36.22l-.17-.04a2.35 2.35 0 0 1-.54-.2l-.1-.06-.11-.08a1.93 1.93 0 0 1-.4-.36 1.23 1.23 0 0 1-.1-.12 3.42 3.42 0 0 1-.15-.23l-.01-.02-25.08-47.94-.02-.04a.95.95 0 0 1-.07-.64l.02-.05a.94.94 0 0 1 .61-.64l19.45-6.63 49.26-16.78.51.74.2.29 25.23 36.4.01.02a2.2 2.2 0 0 1-.84 3.21Z" fill="#F9C273"/><path fill-rule="evenodd" clip-rule="evenodd" d="M135.72 96.46 69.97 129.1l-.43.21-.16.08a2.15 2.15 0 0 1-1.37.22l-.16-.04a2.35 2.35 0 0 1-.54-.2l-.1-.06-.11-.08a1.89 1.89 0 0 1-.4-.36 1.22 1.22 0 0 1-.1-.12 3.38 3.38 0 0 1-.15-.23l-.01-.02-2.54-4.85-22.55-43.09a.96.96 0 0 1-.08-.68l.02-.05 4.9 2.92a8.09 8.09 0 0 0 3.07 1.06l43.39 7.29a4.5 4.5 0 0 0 4.92-2.77L110.53 56l.08-.2.51.73.2.29 2.47 3.56 22.76 32.84v.02a2.2 2.2 0 0 1-.84 3.21Z" fill="#F2A951"/><path opacity=".35" d="M135.72 96.46 69.97 129.1l-.43.21-.16.08a2.15 2.15 0 0 1-1.36.22l-.17-.04a1.36 1.36 0 0 1-.16-.04l-.1-.04a1.7 1.7 0 0 1-.28-.13l-.1-.05-.11-.08a1.5 1.5 0 0 1-.22-.17 1.64 1.64 0 0 1-.18-.19 1.22 1.22 0 0 1-.1-.12 3.15 3.15 0 0 1-.15-.23l-.01-.02-2.54-4.85-.35-2.53c1.47-6.62 16.4-22.94 31-23.93 14.57-1 21.52-20.14 18.8-33.07-.4-1.91-.2-3.1.44-3.75l22.76 32.84.01.02a2.2 2.2 0 0 1-.84 3.21Z" fill="#DD8E37"/><path fill-rule="evenodd" clip-rule="evenodd" d="M61.35 72.58c-1.86 6.97-9.84 17.93-12.52 19.86l-7.5-11.9a.95.95 0 0 1-.06-.65l.02-.05a.95.95 0 0 1 .61-.64l19.45-6.62Z" fill="#F9C273" style="mix-blend-mode:screen" opacity=".2"/><path d="m111.36 56.74-.03.08-13.3 34.3-1.2 2.7-48.1-8.62A6.47 6.47 0 0 1 45.85 84l-3.49-2.61-1.1-1.4a.5.5 0 0 1 .02-.09l.01-.04 4.9 2.91a8.09 8.09 0 0 0 3.07 1.07l43.4 7.28a4.5 4.5 0 0 0 4.91-2.76L110.53 56l.6.52.22.21Z" fill="#DD8E37"/><path fill-rule="evenodd" clip-rule="evenodd" d="m69.96 129.12-.43.2-.15.09h-.03a2.15 2.15 0 0 1-1.16.23l-.18-.02a2.14 2.14 0 0 1-.57-.18l-.13-.06-.1-.06-.12-.08a1.9 1.9 0 0 1-.21-.17 1.73 1.73 0 0 1-.18-.19 1.1 1.1 0 0 1-.1-.11 2.94 2.94 0 0 1-.15-.23l-.01-.03-25.09-47.93a.96.96 0 0 1-.08-.7l1.84 1.33 16.5 32.4c7.34 14.4 8.89 15.95 10.34 15.5Z" fill="#DD8E37"/><path d="m156.2 97.62-2.75-.42-16.51-2.58-1.5-.24-.57-.09-2.85-.44-2.47-.39-1.78-.28-4.6-.72h-.06l-1.51-.24-1.15-.18-2.81-.44-5.88-.92-1.3-.2-3.06-.48-7.05-1.1-1.38-.22-1.45-.22-2.57-.4-.1-.02-.3-.05-.52-.07a5.82 5.82 0 0 1-.09-.02h-.08a2.48 2.48 0 0 0-.09-.1 30.5 30.5 0 0 0-.76-.91h.02l2.25-.12.64-.03h.15l.8-.05 1.4-.07h.25l1.27-.07 10.19-.51 2.78-.14 2.64-.13 1.33-.07.56-.03 5.05-.25 1.57-.08.43-.02 3.57-.18h.03l2.9-.14 1.43-.08 4.72-.23 7-.35 4.53-.23 4.13-.2a77.89 77.89 0 0 1 .48 1.39l.18.56.15.45a77.75 77.75 0 0 1 .84 2.8l.17.6.05.2.15.56.04.16.16.63a67.57 67.57 0 0 1 .5 2.14l.16.72a82.71 82.71 0 0 1 .39 1.94l.13.76.13.75.01.05Z" fill="#949984" style="mix-blend-mode:multiply" opacity=".63"/><path d="M146.25 37.95a7.57 7.57 0 0 1-1.18 1.97 13.97 13.97 0 0 1-3.91 3.25c-.66 1.2-2.08 2.99-4.75 4.49a11.97 11.97 0 0 1-4.66 4.44 12.05 12.05 0 0 1-4.66 4.4c-.68 1.2-2.1 2.99-4.78 4.47-.7 1.27-2.24 3.25-5.29 4.82l-2.32-2.43a138.64 138.64 0 0 1-1.08-1.15l-1.22-1.31c1.73-2.95 3.79-4.4 5.1-5.01.2-.32.4-.62.6-.9a12.82 12.82 0 0 1 2.24-2.4 9.65 9.65 0 0 1 1.9-1.23 12.76 12.76 0 0 1 3.1-3.44 9.49 9.49 0 0 1 1.54-.97c.23-.36.47-.7.7-1a12.7 12.7 0 0 1 2.38-2.4 9.42 9.42 0 0 1 1.61-1c.17-.28.34-.53.52-.77a13.21 13.21 0 0 1 2.35-2.52c.25-.2.5-.38.73-.54a9.37 9.37 0 0 1 1.15-.67c.2-.32.41-.62.62-.9a13.08 13.08 0 0 1 1.62-1.84c.37-.34.72-.63 1.06-.88a8.3 8.3 0 0 1 2.18-1.18l-.02 3.18v1.3l1.5.06 2.97.15v.01Z" fill="#323147"/><path d="M145.07 39.92c-.63.8-1.52 1.69-2.75 2.53a13.94 13.94 0 0 1-1.16.72c-.66 1.2-2.08 3-4.75 4.49a11.97 11.97 0 0 1-4.66 4.44 12.05 12.05 0 0 1-4.66 4.4c-.68 1.2-2.1 3-4.78 4.47-.7 1.28-2.24 3.25-5.29 4.82l-2.32-2.42a185.75 185.75 0 0 1-1.08-1.16l.1-.02s6.83-1.1 10.35-5.45c3.52-4.35 3.94-4.4 7.1-6.21 1.35-.77 2.38-3.34 4.65-4.51 3.95-2.04 6.5-5.3 6.7-6.21.22-.96 1.71-.68 2.55.1Z" fill="#2B2B37"/><path d="M145.28 39.65c-.64.86-1.59 1.86-2.96 2.8-3.02-1.26-3.73-7-3.75-7.13.36-.34.72-.63 1.06-.88l2.16 2 1.49 1.36 2 1.85Zm-8.87 8s-1.43-.86-1.95-4.5a9.4 9.4 0 0 1 .72-4.42 9.28 9.28 0 0 1 1.15-.67s-1.98 5.16.08 9.6Zm-4.67 4.45s-1.43-.87-1.95-4.51a9.4 9.4 0 0 1 .72-4.42 9.37 9.37 0 0 1 1.15-.67s-1.98 5.16.08 9.6Zm-4.7 4.47s-1.42-.87-1.95-4.51a9.4 9.4 0 0 1 .72-4.42 9.3 9.3 0 0 1 1.15-.67s-1.98 5.16.09 9.6Zm-4.73 4.39s-1.43-.87-1.95-4.51a9.4 9.4 0 0 1 .71-4.42 9.28 9.28 0 0 1 1.16-.67s-1.99 5.16.08 9.6Zm-4.7 4.51s-1.42-.87-1.94-4.51c-.2-1.41.23-3.3.71-4.42a9.36 9.36 0 0 1 1.16-.67s-1.98 5.17.08 9.6Z" fill="#21212B"/><path d="M147.94 28.41s-3.77.75-3.21 4.1c.5 2.97 2.88 3.6 4.9 3.37 1.76-.2-.97 5.18-3.82 2.96-2.85-2.21-5.8-4.74-5.01-7.29.78-2.54 5.48-6 7.14-3.14Z" fill="#878787"/><path d="M155.92 30.61a9.16 9.16 0 0 0-.6-1.7l-.08-.16v-.01a9.01 9.01 0 0 0-.87-1.42 8.14 8.14 0 0 0-.6-.73l-.11-.13a3.63 3.63 0 0 0-.2-.2 1.19 1.19 0 0 0-.07-.07l-.24-.22-.04-.04a9.05 9.05 0 0 0-1.66-1.19l-.03-.01a9.62 9.62 0 0 0-1.17-.55c-.02 0-.03 0-.05-.02a8.63 8.63 0 0 0-.28-.1l-.2-.06a13.27 13.27 0 0 0-.51-.14.61.61 0 0 0-.1-.03 2.76 2.76 0 0 0-.2-.04 3.59 3.59 0 0 0-.22-.04 8.09 8.09 0 0 0-1.35-.16h-.28a6.03 6.03 0 0 0-.46.01l-.18.01a8.15 8.15 0 0 0-1.19.17 3.25 3.25 0 0 0-.23.05l-.26.07-.07.01-.18.06-.11.03a5.04 5.04 0 0 0-.38.13 4.54 4.54 0 0 0-.26.1 6.9 6.9 0 0 0-.46.21l-.24.12a8.44 8.44 0 0 0-1.93 1.37c-.35.34-.68.7-.97 1.09a8.43 8.43 0 0 0-1.48 3.19 8.7 8.7 0 0 0-.22 2.1c0 .3.02.62.06.93v.01l.02.22a9.26 9.26 0 0 0 .37 1.57 9 9 0 0 0 .96 2.03 9.16 9.16 0 0 0 1.33 1.64c.42.42.87.79 1.35 1.1a9.03 9.03 0 0 0 1.64.88l.08.03.09.03.13.05a8.56 8.56 0 0 0 1.02.31l.24.05.34.07a10.38 10.38 0 0 0 .67.08l.16.02.27.01a11.18 11.18 0 0 0 .96 0 7.67 7.67 0 0 0 .76-.09h.07l.18-.04.12-.02a7.36 7.36 0 0 0 .9-.23l.17-.05.56-.21a8.22 8.22 0 0 0 1.86-1.06l.26-.21c.14-.1.28-.23.4-.35a.9.9 0 0 0 .08-.07l.03-.03a8.54 8.54 0 0 0 2.6-5.24 8.94 8.94 0 0 0-.2-3.13Zm-6.03-1.73.04.03.14.1.02.03c.15.12.3.25.42.39a3.06 3.06 0 0 1 .36.42 2.78 2.78 0 0 1 .1.15 4.05 4.05 0 0 1 .24.38 5 5 0 0 1 .23.49l.07.17.04.13.07.2a3.9 3.9 0 0 1 .09.39l.01.08.03.18v.08l.03.24v.01a4.43 4.43 0 0 1-.1 1.2l-.01.08-.1.35-.05.15c-.08.2-.16.39-.27.57-.04.1-.09.17-.14.25a2.28 2.28 0 0 1-.12.19l-.09.1c0 .02-.02.04-.03.05l-.1.13-.04.04a3.25 3.25 0 0 1-.3.32 3.8 3.8 0 0 1-.24.21l-.07.06h-.01l-.2.14a4.26 4.26 0 0 1-1.07.54 4.63 4.63 0 0 1-.25.08h-.01l-.1.03-.07.01-.14.03a4.48 4.48 0 0 1-.55.07h-.05a3.83 3.83 0 0 1-.23.01h-.28a4.15 4.15 0 0 1-.24-.03l-.2-.02a3.53 3.53 0 0 1-.32-.07h-.02a3.81 3.81 0 0 1-.15-.04l-.16-.05a1.93 1.93 0 0 1-.16-.05 1.67 1.67 0 0 1-.15-.06l-.16-.06a4.39 4.39 0 0 1-.58-.3 4.84 4.84 0 0 1-.41-.3l-.16-.13a4.68 4.68 0 0 1-.6-.62l-.09-.1a3.55 3.55 0 0 1-.1-.15 4.48 4.48 0 0 1-.63-1.27l-.05-.16v-.01l-.04-.14-.03-.15a2.67 2.67 0 0 1-.04-.23 3.43 3.43 0 0 1-.03-.23l-.02-.22a4.65 4.65 0 0 1 0-.35v-.02a3.69 3.69 0 0 1 .03-.36 4.68 4.68 0 0 1 .07-.44l.01-.07.03-.12.03-.1.02-.08a4.26 4.26 0 0 1 .34-.8l.1-.18.08-.12.08-.11c.06-.1.13-.18.2-.26a3.92 3.92 0 0 1 .36-.4c.23-.21.47-.4.73-.55l.22-.12.07-.04.06-.03.23-.1a4.38 4.38 0 0 1 2.17-.3 3.04 3.04 0 0 1 .47.06l.1.02.1.03a4.62 4.62 0 0 1 1.57.75Z" fill="#D8D8D8"/><path d="M151.7 24.88c-.53 1.16-1.9 2.38-3.39 3.24-1.43-.37-2.27-.59-3.4.48a10.75 10.75 0 0 1-1.87-4.04 8.88 8.88 0 0 1 8.66.32Zm3.54 3.87s-1.5-1.65-4.71.68a.01.01 0 0 1-.01 0 4.3 4.3 0 0 0-.6-.52l-.03-.03 3.25-2.9a7.83 7.83 0 0 1 1.23 1.34c.34.46.63.93.87 1.42ZM150.9 40.7a8.75 8.75 0 0 1-4.81.53 9.02 9.02 0 0 1-3.55-1.41c2.62 1.2 5.92.56 5.92.56l.13-3.56c2.9-.45 3.02 1 2.31 3.88Z" fill="#A4A4A4"/><path d="M149.92 36.2a1.32 1.32 0 0 1-.55.92c-2.58 1.84-6.75-.18-7.44-3.04-1.15-4.79 3.02-6.37 3.02-6.37l.53.6a3.98 3.98 0 0 0-.57.3 4.34 4.34 0 0 0-.74.55 4.5 4.5 0 0 0-.08 6.35 4.52 4.52 0 0 0 5.83.68Zm1.61-.94c-.55.95-1 1.08-1.34.73a4.16 4.16 0 0 0 .58-.57 4.48 4.48 0 0 0 .2-5.42 4.6 4.6 0 0 0-.88-.96.52.52 0 0 1 .37-.17s3.39 2.43 1.07 6.4Z" fill="#A4A4A4"/><path d="m117.07 65.78-.2 1.18-1.44 8.15v.01l-.06.35-.32.19-18.98 11.07-2.04 1.19-.1.06a.52.52 0 0 0-.04-.04l-.03-.05c-.23-.28-.52-.63-.85-1a25.53 25.53 0 0 0-1.47-1.52 15.86 15.86 0 0 0-1.41-1.2 9.05 9.05 0 0 0-1.39-.86l1.7-2.6.42-.65v-.01l.02-.02.75-1.15 2.69-4.11.29-.45.01-.02 3.86-5.9 2.3-3.52 1.6-2.46a.9.9 0 0 1 .25-.25.9.9 0 0 1 .4-.16l9.2-1.15.15-.02.03.04.43.47.79.87.3.33.05.05.04.04.62.69.04.03.45.46.05.05.04.04.37.38 1.47 1.48.01.01Z" fill="#D8D8D8"/><path opacity=".2" d="M115.6 64.28c-1.8 1.92-5.33 5.38-6.85 4.73 0 0-4.47-5.97-6.13-6.84.15-.23.15-.13.42-.16l9.2-1.15.14-.02 2.3 2.52.91.92Z" fill="#A4A4A4"/><path d="m117.2 65.7-1.18 9.54c-.04.46-.34.83-.58.96a3769.6 3769.6 0 0 1-18.58 10.5c-.78.43-1.55.86-2.31 1.3l-.42.23a12.83 12.83 0 0 0-.24-.3l.05-.03 1.98-1.16 19-11.18a.92.92 0 0 0 .44-.63l1.66-9.14.04-.02.14-.08Z" fill="#878787"/><path d="m117.07 65.78-.2 1.17-1.44 8.16v.01a.82.82 0 0 1-.38.54L96.07 86.73l-2.04 1.19-.1.06-.04-.04-.03-.05c-.23-.28-.52-.63-.85-1a25.53 25.53 0 0 0-1.47-1.52L108.74 69l5.94-5.65.02.03.48.48.04.04.37.38 1.47 1.48.01.01Z" fill="#A4A4A4"/><path d="m117.07 65.78-.2 1.17-1.44 8.16a.76.76 0 0 1-.12.3 169.8 169.8 0 0 0-6.57-6.4l5.94-5.65v.01l2.4 2.41Z" fill="#D8D8D8" style="mix-blend-mode:screen" opacity=".1"/><path d="m114.68 63.36-5.94 5.65-17.2 16.35a15.83 15.83 0 0 0-1.41-1.2c6.98-8.49 15.33-18.59 15.7-18.8h.01c.67-.37 7.78-3.14 7.78-3.14l.16.16.86.95.04.03Z" fill="#D8D8D8" style="mix-blend-mode:screen" opacity=".2"/><path d="M192.37 113.77c.1 1.63.12 3.32.03 5.08a455.85 455.85 0 0 1-3.77 1.95l-4.99 2.57c-2.75 1.41-5.43 2.79-7.19 3.71-.88-20.7-5.52-28.73-11.44-36.38-1.66-2.16-3.43-4.28-5.25-6.65a89.13 89.13 0 0 1-3.46-4.81 78.53 78.53 0 0 1-4.08-6.81 57.18 57.18 0 0 1-2.2-4.62 46.37 46.37 0 0 1-1.8-4.98 28.36 28.36 0 0 1-1.2-10.48l.04-.43c.48-5.2.82-7.55 1.97-10.43l.04-.1c.34-.84.74-1.73 1.24-2.75 1.33-2.18 4.58-1.97 4.26-.65a8.4 8.4 0 0 0-1.13 1.21 11 11 0 0 0-1.66 3.19 20.13 20.13 0 0 0-.8 8.03 27.37 27.37 0 0 0 1.57 7.03c.4 1.06.86 2.06 1.38 2.96v.02c.39.67.86 1.38 1.4 2.14.35.49.74 1 1.15 1.52a57.93 57.93 0 0 0 1.42 1.75c3.47 4.12 8.27 8.9 13.02 13.43a499.25 499.25 0 0 0 3.47 3.27l2.14 1.99c9.16 8.47 15.05 17.22 15.84 29.24Z" fill="#74A352"/><path opacity=".5" d="M170.92 79.27c-2.54 1.03-6.83 3.9-5.9 11.43-1.67-2.16-3.44-4.28-5.26-6.65a89.08 89.08 0 0 1-3.46-4.81l-.48-.72a76.18 76.18 0 0 1-3.6-6.1 61.51 61.51 0 0 1-1.58-3.2c-.22-.47-.42-.94-.62-1.41a47.92 47.92 0 0 1-1.1-2.83l-.04-.12-.04-.11-.03-.1-.03-.08-.03-.1a46.13 46.13 0 0 1-.52-1.65c.1-.22.23-.41.39-.58 1.45-1.55 2.74-3.27 3.93-4.8.4 1.07.86 2.07 1.38 2.97l.01.01a38.93 38.93 0 0 0 2.54 3.67c.44.56.92 1.15 1.42 1.74 2.43 2.89 5.5 6.1 8.76 9.31a298.13 298.13 0 0 0 4.26 4.12v.01Z" fill="#568040"/><path d="M156.48 64.1c-2.9 1.71-4.14 5.09-4.27 8.33a61.52 61.52 0 0 1-1.58-3.2l-.62-1.42-.03-.08a46.85 46.85 0 0 1-1.24-3.26c-1.36-4.02-2.09-8.15-1.72-12.11l.03-.43c1.2-.5 2.53-.98 3.93-1.51.16 2 .46 3.63.92 5.05.51 1.81 1.2 3.5 2.02 4.95l.02.01c.38.67.85 1.39 1.39 2.14.35.5.73 1 1.15 1.53Z" fill="#568040"/><path d="M165.02 73.51c-1.42 1.97-5.18 3.8-9.92 3.88a50.14 50.14 0 0 1-2.88-4.96 61.51 61.51 0 0 1-1.59-3.2 61 61 0 0 1-.62-1.42l-.03-.08a46.35 46.35 0 0 1-1.24-3.25c2.66-.38 4.82-2.44 5.2-4.04.38.67.85 1.38 1.39 2.13.35.5.74 1 1.15 1.53a57.93 57.93 0 0 0 1.42 1.74 95.9 95.9 0 0 0 7.12 7.67Zm-11.56-34.36a.35.35 0 0 0-.02.05 11 11 0 0 0-1.66 3.19c-1.13.4-2.44.16-3.06 0l.31-.9.04-.1c.31-.83.67-1.59 1.06-2.42.05-.12.12-.23.18-.34 1.18-.4 2.65-.32 3.16.52Z" fill="#3F5D2F"/><path d="M176.46 127.08c-1.3-30.18-10.55-33.43-20.16-47.84 22.94 23.67 29.16 26 32.33 41.56-4.09 2.12-9.33 4.8-12.17 6.28Z" fill="#568040"/><path d="M176.45 127.08c-1.13-26.52-8.42-32.25-16.7-43.03 18.73 19.76 19.45 26.1 21.53 40.53-1.32.63-3.07 1.58-4.83 2.5Z" fill="#3F5D2F"/><path d="M192.37 113.77c-2.9-16.82-18.09-31.24-17.98-31.22l2.14 1.99c9.16 8.47 15.05 17.22 15.84 29.23Z" fill="#ACD686"/><path d="M170.28 60.99a21.36 21.36 0 0 1-.58 2.73l-.02.08a17.15 17.15 0 0 1-3.02 5.96l-.04.04a17 17 0 0 1-3.83 3.44 22.19 22.19 0 0 1-3.54 1.9l-.22.1c-.95.4-1.92.73-2.9 1a29.1 29.1 0 0 1-3.74.8c-1.7.25-3.4.4-5.1.55a71.83 71.83 0 0 0-3.67.42l-.25.04a33.24 33.24 0 0 0-1.32.22l-.5.1-.25.05a9.7 9.7 0 0 1-.58.13l-.4.1-.61.14-.42.11-.4.11c-.14.04-.27.07-.4.12l-.41.12c-8.02 2.45-13.24 7.32-16.18 16.63a29.26 29.26 0 0 0-10.28-2.08h-.79c-.43 0-.87 0-1.3.03 2.49-12.8 15.6-20.12 28.18-23.5 8.23-2.23 18.6-3.22 22.53-13.06l.14-.35.12-.34a26.55 26.55 0 0 0 1.35-8.87 47.76 47.76 0 0 0-.19-4.14 63.12 63.12 0 0 0-.73-5.4v-.01l-.3-1.6a24.03 24.03 0 0 0-.62-2.48 17.49 17.49 0 0 0-.9-2.33 14.02 14.02 0 0 0-1-1.74l-.17-.25a3.36 3.36 0 0 0-.14-.19 10.4 10.4 0 0 0-1.45-1.64v-.01a8.14 8.14 0 0 0-.17-.15 5.9 5.9 0 0 0-1.99-1.16.47.47 0 0 0-.06-.02 4.46 4.46 0 0 0-.21-.07 4.45 4.45 0 0 0-.26-.06 5.06 5.06 0 0 1-.78-.22c-.74-.28-1.11-.68-1.28-1.07v-.01a1.46 1.46 0 0 1-.11-.53 1.49 1.49 0 0 1 .04-.37c.17-.19.51-.16.77-.08l.33.1.39.13.22.08.66.27.18.07a14 14 0 0 1 .86.43l.25.14.25.15.24.15.27.17.17.12.26.18c3.05 2.26 4.87 5.31 6.56 8.58l.08.15.04.07.09.18.25.5.43.84.13.26.13.26.23.45a280.43 280.43 0 0 1 3.03 6.19l.11.24a51.59 51.59 0 0 1 .52 1.14l.11.23.03.06a41.19 41.19 0 0 1 1.14 2.76 23.42 23.42 0 0 1 .97 3.93c.49 2.98.49 6.1.06 8.98Z" fill="#74A352"/><path d="M170.5 58.37a20.44 20.44 0 0 1-3.28 10.62c-.18.27-.37.52-.56.77l-.04.04a16.08 16.08 0 0 1-3.83 3.44 22.23 22.23 0 0 1-3.55 1.9l-.21.1c-.95.4-1.93.73-2.9 1a29.08 29.08 0 0 1-3.74.8c-1.7.24-3.4.4-5.1.55a33.22 33.22 0 0 0-3.7.41l-.3.05-.26.05c-.58.1-1.16.2-1.73.32l-.58.13c-.14.02-.27.06-.4.09-.21.04-.41.1-.62.15l-.41.1-.4.12a8.7 8.7 0 0 0-.4.11l-.41.12c-2.2.67-4.32 1.56-6.26 2.76a8.3 8.3 0 0 0-.31.2 19.71 19.71 0 0 0-3.17 2.5 24.83 24.83 0 0 0-5.67 8.82 38.87 38.87 0 0 0-.84 2.38c-.3-.14-.58-.2-.88-.33v-.04a29.7 29.7 0 0 1 1.33-5.63c1.77-5.67 4.2-11.42 9.9-14 8.86-4 20.14-.81 28.15-6.6a17.36 17.36 0 0 0 7.18-16.17c-.46-3.8-1.7-7.2-2.67-9.33-.71-1.6-1.96-5.24-3.91-5.65a86.89 86.89 0 0 0-.3-1.6 24.03 24.03 0 0 0-.62-2.48 17.49 17.49 0 0 0-.9-2.32l-.19-.36a.1.1 0 0 0 0-.02 11.38 11.38 0 0 0-2.56-3.45h-.01l-.17-.15a6.98 6.98 0 0 0-.54-.4c-.7-.48-1.84-.71-2.76-1.13a2.52 2.52 0 0 1-1.28-1.08 1.76 1.76 0 0 1-.15-.45.78.78 0 0 1-.01-.2.37.37 0 0 1 .1-.25c.16-.2.5-.16.77-.08a10.52 10.52 0 0 1 .71.23l.23.08.66.26.17.08a14.42 14.42 0 0 1 .86.43 8.58 8.58 0 0 1 .75.43l.26.18.18.12.25.18c3.06 2.26 4.88 5.31 6.57 8.58l.08.15.03.07.1.18.25.5.43.84.13.26.13.26.23.45a202.9 202.9 0 0 1 3.02 6.19l.12.24a51.59 51.59 0 0 1 .52 1.13l.1.24.03.06.2.42a25.46 25.46 0 0 1 1.65 5.22c.5 2.42.66 4.9.55 7.4h-.02Z" fill="#568040"/><path opacity=".5" d="M125.94 79.51c3.21-4.12 7.92-6.6 12.34-9.32l-.58.14c-6.1 1.66-12.34 4.23-17.41 7.91-.16 2.9-2.63 6.34-4.2 8.26-1.38 1.7-2.83 3.59-4.89 4.44-.34.11-.7.27-1.01.4-.29.82-.46 1.63-.67 2.49 3.73-.2 7.46.37 10.98 1.57-.76-5.55 2.08-11.53 5.44-15.89Zm25.56-13.23c3.8-.2 9.97-1.29 11.29-5.6 1.19-3.85.2-7.9-.67-11.77l-.31-1.33c.05 11-4.49 15.93-10.3 18.7Z" fill="#AED888"/><path opacity=".62" d="M132.27 79.95a16.69 16.69 0 0 0-3.96 4.8c3.48-3.4 8.04-5.38 13.7-6.5.49-.09 1.04-.18 1.67-.23-3.98-.72-8-.82-11.4 1.93Z" fill="#275C26"/><path d="M159.63 32.88a10.12 10.12 0 0 0-.72-1.51 11.39 11.39 0 0 0-2.56-3.45l-.18-.15a7.01 7.01 0 0 0-.53-.4c-.7-.48-1.84-.71-2.76-1.13a2.52 2.52 0 0 1-1.28-1.08 1.76 1.76 0 0 1-.15-.45.78.78 0 0 1-.02-.2l.03-.15c.08-.33.18-.56.24-.6a8.8 8.8 0 0 1 3.24 1.5c1.2.87 2.54 2.2 3.8 4.26.6.98.84 2.17.9 3.36Z" fill="#3F5D2F"/><path d="M153.76 39.48v.02a.36.36 0 0 1-.03.17c-.07.2-.24.46-.5.73-.57.61-1.6 1.2-2.8.79a1.56 1.56 0 0 1-.91-.85c-.2-.42-.3-.93-.33-1.45a7.67 7.67 0 0 1 .35-2.88.56.56 0 0 1 .1-.13c.13-.13.33-.23.55-.32l.08-.04.2-.08.05-.02.02-.01c.06-.03.17.03.32.14.84.68 2.82 3.44 2.9 3.92Z" fill="#74A352"/><path d="M153.76 39.48v.02a.37.37 0 0 1-.03.17 3.2 3.2 0 0 1-2.75-1.03 3.44 3.44 0 0 1-.79-3.08l.08-.03.2-.09.05-.02h.02c.06-.04.17.02.32.13.84.68 2.82 3.44 2.9 3.93Z" fill="#3F5D2F"/><path d="M155.67 37.88c0 .49-.14.99-.67 1.3-.3.18-.72.3-1.3.3-3.03.06-3.28-3.14-3.27-3.68.01-.45.16-1.11.58-1.15a.49.49 0 0 1 .23.04s2.73 2.48 4.11 1.88c0 0 .31.64.32 1.31Z" fill="#74A352"/><path d="M155 39.18c-.3.18-.72.29-1.3.3-3.03.06-3.28-3.14-3.27-3.68.01-.45.16-1.11.58-1.15.21.68 1.66 4.91 4 4.53Z" fill="#568040"/><path d="M148.94 24.05c0 .38-.05.9-.14 1.46a17.06 17.06 0 0 1-.4 1.77c-.16.53-.32.95-.45 1.13-.55.73-2.35.66-2.61.17a9.3 9.3 0 0 1-.32-.69l-.07-.18c-.44-1.18-.96-3.13-.38-4.28a1.6 1.6 0 0 1 .2-.31c.1-.12.2-.22.31-.3a1.7 1.7 0 0 1 .83-.3c.58-.07 1.21.1 1.74.32a5.97 5.97 0 0 1 1.12.62c.1.08.16.29.17.59Z" fill="#74A352"/><path opacity=".98" d="M148.53 26.79a5.9 5.9 0 0 1-.59 1.62c-.54.73-2.34.66-2.6.18a9.63 9.63 0 0 1-.39-.87c-.44-1.19-.96-3.14-.39-4.29.23 1.17 1.13 4.47 3.97 3.36Z" fill="#568040"/><path d="M153.41 26.95c-.16.4-.94.94-1.82 1.4a13.04 13.04 0 0 1-1.12.52c-.7.28-1.32.45-1.57.38a1.05 1.05 0 0 1-.5-.32 1.26 1.26 0 0 1-.31-.76 1.51 1.51 0 0 1 0-.25 7.32 7.32 0 0 1 .7-2.4l.02-.05.05-.09c.22-.43.51-.84.88-1.16.21-.19.45-.35.72-.46a.51.51 0 0 1 .08-.03c.13-.06.27-.09.4-.1h.08a1.39 1.39 0 0 1 .33.03c.2.03.39.11.57.22 1.08.64 1.8 2.33 1.5 3.07Z" fill="#74A352"/><path d="M150.46 28.87c-.32.13-.63.23-.9.3-.3.09-.53.12-.66.08a1.05 1.05 0 0 1-.5-.32 1.26 1.26 0 0 1-.32-.76 1.41 1.41 0 0 1 0-.25c.02-.18.07-.48.16-.84l.03-.13c.1-.44.28-.95.52-1.44l.01-.04.05-.09c.23-.43.52-.84.88-1.16.21-.19.45-.35.72-.46a.52.52 0 0 1 .08-.03c-.03.07-2.62 3.76-.07 5.14Z" fill="#568040"/><path d="m94.94 89.39-7.47-6.99s3.78 1.52 7.47 6.99Z" fill="#949984" style="mix-blend-mode:multiply" opacity=".63"/></svg>