<svg xmlns="http://www.w3.org/2000/svg" fill="none" viewBox="0 0 56 56">
  <ellipse cx="28.146" cy="49.959" fill="#D8D8D8" rx="26.98" ry=".875"/>
  <path fill="#464558" d="M11.238 23.238c.028.393-.086.824-.344 1.292-.248.458-.702 1.097-1.361 1.917 1.214 1.244 1.845 2.206 1.894 2.885.03.439-.064.823-.286 1.153-.213.321-.573.5-1.078.535-.353.026-.807-.104-1.362-.388a13.705 13.705 0 0 1-1.81-1.139c-1.271 1.277-2.24 1.94-2.909 1.987-.479.034-.855-.088-1.129-.365-.274-.286-.428-.657-.46-1.113-.05-.689.443-1.74 1.477-3.152-.731-.712-1.243-1.278-1.536-1.698-.294-.428-.455-.844-.484-1.246-.038-.537.108-.965.44-1.286a1.92 1.92 0 0 1 1.24-.546c.317-.023.595.002.837.075.24.073.514.22.82.44.316.22.754.576 1.315 1.067.488-.547.881-.953 1.18-1.217.307-.273.58-.464.817-.57a2.16 2.16 0 0 1 .803-.206c.316-.022.614.024.895.139a1.619 1.619 0 0 1 1.042 1.436Z"/>
  <path fill="#93B977" fill-rule="evenodd" d="M35.92 37.303c2.008 1.417 4.267 2.062 6.777 1.936 2.51-.126 4.69-1.044 6.542-2.753 1.85-1.743 3.227-3.973 4.132-6.691a22.4 22.4 0 0 0 1.179-8.473c-.162-3.226-.843-6.128-2.042-8.707-1.171-2.581-2.76-4.58-4.77-5.997-2.008-1.417-4.267-2.062-6.777-1.936-2.51.126-4.69 1.044-6.542 2.754-1.851 1.71-3.23 3.924-4.134 6.642-.906 2.685-1.284 5.525-1.134 8.52.16 3.192.826 6.079 1.997 8.66 1.2 2.579 2.79 4.594 4.771 6.045Zm9.709-9.644c-.706 1.488-1.838 2.27-3.396 2.349-1.067.053-1.981-.297-2.742-1.05-.732-.755-1.285-1.701-1.66-2.837a12.978 12.978 0 0 1-.65-3.432c-.106-2.106.18-3.886.86-5.339.706-1.487 1.852-2.27 3.438-2.35 1.587-.08 2.791.586 3.614 1.996.85 1.376 1.328 3.117 1.434 5.224.107 2.139-.192 3.952-.898 5.44Z" clip-rule="evenodd"/>
  <path fill="#93B977" d="M30.605 33.204c-1.144-.705-2.741-1.11-4.79-1.214l-.956-19.024c-.123-2.454-.892-4.303-2.305-5.549-1.381-1.281-3.16-1.868-5.337-1.758-2.108.106-4.094.57-5.959 1.39-1.831.785-3.287 1.794-4.369 3.026-1.047 1.23-1.537 2.502-1.471 3.816.083 1.658.8 2.835 2.152 3.53 1.386.692 3.03.99 4.93.895a12.338 12.338 0 0 0 2.014-.257l.343 5.803c.226 3.106.402 5.938.53 8.496-2.69.239-4.742.758-6.157 1.556-1.417.764-2.078 2.08-1.984 3.945.066 1.313.496 2.297 1.291 2.95.793.618 1.8 1 3.02 1.147 1.252.11 2.864.116 4.833.017l7.361-.37c1.97-.099 3.555-.265 4.756-.498 1.234-.27 2.214-.753 2.941-1.447.726-.73 1.056-1.751.99-3.064-.08-1.59-.691-2.72-1.833-3.39Z"/>
  <path fill="#74A352" fill-rule="evenodd" d="M25.214 20.027a22.175 22.175 0 0 1-9.977 9.569c.056.953.107 1.874.151 2.762-2.69.239-4.743.758-6.158 1.556-1.416.764-2.078 2.08-1.984 3.945.066 1.313.496 2.297 1.291 2.95.793.618 1.8 1 3.02 1.147 1.253.11 2.864.116 4.834.017l7.36-.37c1.97-.099 3.555-.265 4.756-.498 1.234-.27 2.214-.753 2.942-1.447.725-.73 1.055-1.751.989-3.064-.08-1.59-.69-2.72-1.833-3.39-1.144-.705-2.74-1.11-4.79-1.214l-.601-11.963Zm17.483 19.212c-2.51.126-4.769-.519-6.777-1.936-1.982-1.451-3.572-3.466-4.772-6.046-1.17-2.58-1.836-5.467-1.997-8.66-.15-2.994.228-5.834 1.134-8.52.905-2.717 2.283-4.931 4.134-6.641 1.852-1.71 4.033-2.628 6.542-2.754 2.51-.126 4.769.52 6.778 1.936 2.009 1.417 3.598 3.416 4.769 5.997 1.2 2.58 1.88 5.481 2.042 8.707a22.4 22.4 0 0 1-1.18 8.473c-.904 2.718-2.28 4.948-4.13 6.69-1.853 1.71-4.033 2.628-6.543 2.754Zm-.464-9.231c1.558-.079 2.69-.861 3.396-2.349.706-1.487 1.006-3.3.898-5.44-.106-2.106-.584-3.847-1.434-5.223-.822-1.41-2.027-2.076-3.613-1.996-1.587.08-2.733.863-3.44 2.35-.678 1.453-.965 3.233-.859 5.34.058 1.151.274 2.295.65 3.431.375 1.136.928 2.082 1.66 2.837.761.753 1.675 1.103 2.742 1.05Z" clip-rule="evenodd"/>
  <path fill="#568040" fill-rule="evenodd" d="M46.055 19.213a41.912 41.912 0 0 0 1.163-9.836c0-1.069-.04-2.129-.119-3.178.216.131.429.271.64.42 2.008 1.416 3.598 3.415 4.769 5.996 1.199 2.58 1.88 5.481 2.042 8.707a22.4 22.4 0 0 1-1.18 8.473c-.904 2.718-2.281 4.948-4.131 6.69-1.852 1.71-4.033 2.628-6.542 2.754-2.355.119-4.49-.442-6.403-1.682a41.935 41.935 0 0 0 5.489-7.551c.147.009.297.01.45.002 1.558-.078 2.69-.861 3.396-2.348.706-1.488 1.005-3.301.898-5.44-.056-1.103-.213-2.105-.472-3.007Z" clip-rule="evenodd"/>
</svg>
