<svg xmlns="http://www.w3.org/2000/svg" fill="none" viewBox="0 0 56 56"><ellipse cx="28.15" cy="49.96" fill="#D8D8D8" rx="26.98" ry=".88"/><path fill="#464558" d="M11.24 23.24c.03.4-.09.82-.35 1.29-.24.46-.7 1.1-1.36 1.92 1.22 1.24 1.85 2.2 1.9 2.88.03.44-.07.83-.29 1.16-.21.32-.57.5-1.08.53-.35.03-.8-.1-1.36-.39a13.7 13.7 0 0 1-1.8-1.14c-1.28 1.28-2.25 1.94-2.92 1.99-.48.03-.85-.09-1.13-.37a1.73 1.73 0 0 1-.46-1.1c-.05-.7.45-1.75 1.48-3.16a13.2 13.2 0 0 1-1.54-1.7c-.29-.43-.45-.84-.48-1.24-.04-.54.1-.97.44-1.29a1.92 1.92 0 0 1 1.24-.55c.32-.02.6 0 .84.08.24.07.51.22.82.44.31.22.75.57 1.31 1.07.49-.55.88-.96 1.18-1.22.3-.27.58-.47.82-.57a2.16 2.16 0 0 1 .8-.2c.32-.03.62.02.9.13a1.62 1.62 0 0 1 1.04 1.44Z"/><path fill="#93B977" fill-rule="evenodd" d="M35.92 37.3c2 1.42 4.27 2.06 6.78 1.94a10.12 10.12 0 0 0 6.54-2.75 15.9 15.9 0 0 0 4.13-6.7 22.4 22.4 0 0 0 1.18-8.47 23.23 23.23 0 0 0-2.04-8.7 14.41 14.41 0 0 0-4.77-6c-2.01-1.42-4.27-2.06-6.78-1.94a10.11 10.11 0 0 0-6.54 2.76 15.5 15.5 0 0 0-4.14 6.64 22.84 22.84 0 0 0-1.13 8.52c.16 3.19.83 6.08 2 8.66a15.3 15.3 0 0 0 4.77 6.04Zm9.7-9.64A3.77 3.77 0 0 1 42.24 30a3.5 3.5 0 0 1-2.74-1.05 7.28 7.28 0 0 1-1.66-2.84 12.98 12.98 0 0 1-.65-3.43c-.1-2.1.18-3.89.86-5.34A3.8 3.8 0 0 1 41.48 15a3.7 3.7 0 0 1 3.61 2 10.86 10.86 0 0 1 1.44 5.22c.1 2.14-.2 3.95-.9 5.44Z" clip-rule="evenodd"/><path fill="#93B977" d="M30.6 33.2c-1.14-.7-2.74-1.1-4.79-1.21l-.95-19.02c-.12-2.46-.9-4.3-2.3-5.55a6.99 6.99 0 0 0-5.34-1.76c-2.11.1-4.1.57-5.96 1.39-1.83.78-3.29 1.8-4.37 3.03a5.4 5.4 0 0 0-1.47 3.81c.08 1.66.8 2.84 2.15 3.53a9.8 9.8 0 0 0 4.93.9 12.34 12.34 0 0 0 2.01-.26l.35 5.8c.22 3.1.4 5.94.53 8.5-2.7.24-4.74.76-6.16 1.55-1.42.77-2.08 2.08-1.98 3.95.06 1.31.5 2.3 1.29 2.95.79.62 1.8 1 3.02 1.15 1.25.1 2.86.11 4.83.01l7.36-.37c1.97-.1 3.56-.26 4.76-.5a6.02 6.02 0 0 0 2.94-1.44c.72-.73 1.05-1.75.99-3.07-.08-1.59-.7-2.72-1.83-3.39Z"/><path fill="#74A352" fill-rule="evenodd" d="M25.21 20.03a22.18 22.18 0 0 1-9.97 9.57l.15 2.76c-2.7.24-4.75.76-6.16 1.55-1.42.77-2.08 2.08-1.98 3.95.06 1.31.5 2.3 1.29 2.95.79.62 1.8 1 3.02 1.15 1.25.1 2.86.11 4.83.01l7.36-.37c1.97-.1 3.56-.26 4.76-.5a6.03 6.03 0 0 0 2.94-1.44c.72-.73 1.05-1.75.99-3.07-.08-1.59-.7-2.72-1.84-3.39-1.14-.7-2.74-1.1-4.79-1.21l-.6-11.96Zm17.49 19.2c-2.51.14-4.77-.51-6.78-1.93a15.28 15.28 0 0 1-4.77-6.04 23.67 23.67 0 0 1-2-8.66c-.15-3 .23-5.84 1.14-8.52a15.5 15.5 0 0 1 4.13-6.64 10.11 10.11 0 0 1 6.54-2.76c2.51-.12 4.77.52 6.78 1.94 2 1.42 3.6 3.41 4.77 6a23.21 23.21 0 0 1 2.04 8.7 22.4 22.4 0 0 1-1.18 8.48 15.87 15.87 0 0 1-4.13 6.69 10.12 10.12 0 0 1-6.54 2.75Zm-.47-9.22a3.77 3.77 0 0 0 3.4-2.35c.7-1.49 1-3.3.9-5.44-.1-2.1-.59-3.85-1.44-5.22a3.7 3.7 0 0 0-3.61-2 3.8 3.8 0 0 0-3.44 2.35 11.22 11.22 0 0 0-.86 5.34c.06 1.15.28 2.3.65 3.43a7.28 7.28 0 0 0 1.66 2.84A3.5 3.5 0 0 0 42.23 30Z" clip-rule="evenodd"/><path fill="#568040" fill-rule="evenodd" d="M46.05 19.21a41.91 41.91 0 0 0 1.17-9.83c0-1.07-.04-2.13-.12-3.18a14.41 14.41 0 0 1 5.4 6.42 23.23 23.23 0 0 1 2.05 8.7 22.4 22.4 0 0 1-1.18 8.48 15.87 15.87 0 0 1-4.13 6.69 10.11 10.11 0 0 1-6.54 2.75 10.5 10.5 0 0 1-6.4-1.68A41.94 41.94 0 0 0 41.77 30h.45a3.76 3.76 0 0 0 3.4-2.35c.7-1.49 1-3.3.9-5.44-.06-1.1-.22-2.1-.48-3Z" clip-rule="evenodd"/></svg>