<svg width="56" height="56" viewBox="0 0 56 56" fill="none" xmlns="http://www.w3.org/2000/svg">
    <path d="M19.3508 26.7105C19.4074 27.5074 19.1754 28.3793 18.6546 29.3265C18.1509 30.2542 17.232 31.5481 15.8982 33.2083C18.3564 35.7273 19.6345 37.6749 19.7324 39.0512C19.7956 39.9386 19.6028 40.7168 19.1541 41.3857C18.7225 42.0353 17.9946 42.3965 16.9705 42.4693C16.2573 42.5201 15.3381 42.2578 14.2128 41.6827C13.0875 41.1075 11.8657 40.3389 10.5475 39.377C7.97446 41.9626 6.01135 43.3036 4.65811 43.3999C3.6889 43.4688 2.92702 43.2227 2.37246 42.6615C1.81663 42.0822 1.50585 41.3307 1.44015 40.4071C1.34095 39.0127 2.3383 36.885 4.43222 34.024C2.95119 32.5823 1.91394 31.4366 1.32049 30.5869C0.725752 29.7192 0.399395 28.8778 0.34142 28.0629C0.26412 26.9763 0.560809 26.1088 1.23149 25.4605C1.91916 24.7927 2.75675 24.4237 3.74425 24.3534C4.3843 24.3079 4.94849 24.3588 5.43684 24.506C5.92518 24.6533 6.47934 24.9506 7.09931 25.398C7.73756 25.844 8.62502 26.5635 9.76168 27.5565C10.7489 26.4488 11.5451 25.6277 12.1504 25.0932C12.7726 24.5393 13.3242 24.1543 13.8051 23.938C14.2847 23.7037 14.8262 23.5651 15.4296 23.5221C16.0697 23.4766 16.6737 23.5701 17.2416 23.8028C17.8278 24.0341 18.3134 24.4 18.6982 24.9004C19.083 25.4009 19.3005 26.0043 19.3508 26.7105Z" fill="#464558"/>
    <ellipse cx="27.9913" cy="54.4809" rx="27.9913" ry="1.16667" fill="#D8D8D8"/>
    <path d="M35.988 48.6476C34.1211 48.6476 32.277 48.3267 30.4557 47.685C28.6343 47.0432 27.1317 46.1722 25.9479 45.072C24.8095 43.926 24.2403 42.6424 24.2403 41.2214C24.2403 39.9837 24.6729 38.9064 25.538 37.9896C26.4032 37.0728 27.6554 36.6144 29.2946 36.6144C30.0231 36.6144 30.615 36.706 31.0704 36.8894C31.5257 37.0269 32.0038 37.2791 32.5047 37.6458C33.0966 38.0125 33.6203 38.2876 34.0756 38.4709C34.5765 38.6543 35.2367 38.746 36.0563 38.746C37.8321 38.746 39.2209 38.2646 40.2226 37.302C41.2699 36.3393 41.7935 35.2621 41.7935 34.0702C41.7935 32.2824 41.2244 30.8842 40.086 29.8757C38.9932 28.8672 37.3995 28.363 35.305 28.363C34.5309 28.363 33.8252 28.5005 33.1877 28.7756C32.5502 29.0048 31.8444 29.3715 31.0704 29.8757C30.2963 30.38 29.5905 30.7696 28.9531 31.0447C28.3156 31.3197 27.5871 31.4573 26.7675 31.4573C24.6274 31.4573 23.2386 30.7696 22.6011 29.3944C21.9637 28.0192 21.6449 25.8876 21.6449 22.9996V19.6991C21.6449 13.3272 21.6222 9.47652 21.5766 8.14713C21.5766 6.03845 22.3507 4.34233 23.8988 3.05879C25.447 1.77524 27.4732 1.01886 29.9776 0.78966C32.2087 0.652137 35.7831 0.583374 40.7007 0.583374C43.797 0.583374 46.3469 0.697976 48.3504 0.927181C50.3538 1.15639 52.0386 1.70648 53.4046 2.57746C54.8161 3.44844 55.5219 4.80074 55.5219 6.63438C55.5219 8.65138 54.6795 10.0954 52.9948 10.9664C51.3556 11.8373 49.17 12.3645 46.438 12.5479C43.7515 12.7312 39.5852 12.8229 33.939 12.8229V18.5989C36.0791 18.0946 38.1053 17.8425 40.0177 17.8425C43.114 17.8425 45.8688 18.4843 48.2821 19.7678C50.6953 21.0055 52.585 22.7933 53.951 25.1312C55.317 27.4233 56 30.0591 56 33.0388C56 36.9811 54.8617 40.1212 52.585 42.4591C50.3083 44.797 47.6446 46.4243 44.5938 47.3411C41.5431 48.2121 38.6745 48.6476 35.988 48.6476Z" fill="#568040"/>
    <path fill-rule="evenodd" clip-rule="evenodd" d="M40.6079 30.4126C40.4498 30.2228 40.2758 30.0439 40.086 29.8757C38.9932 28.8672 37.3995 28.363 35.305 28.363C34.5309 28.363 33.8252 28.5005 33.1877 28.7756C32.5502 29.0048 31.8444 29.3715 31.0704 29.8757C30.2963 30.38 29.5905 30.7696 28.9531 31.0447C28.3156 31.3197 27.5871 31.4573 26.7675 31.4573C24.6274 31.4573 23.2386 30.7696 22.6011 29.3944C21.9637 28.0192 21.6449 25.8876 21.6449 22.9996V19.6991C21.6449 13.3272 21.6222 9.47652 21.5766 8.14713C21.5766 6.03845 22.3507 4.34233 23.8988 3.05879C25.447 1.77524 27.4732 1.01886 29.9776 0.78966C32.2087 0.652137 35.7831 0.583374 40.7007 0.583374C43.797 0.583374 46.3469 0.697976 48.3504 0.927181C50.3538 1.15639 52.0386 1.70648 53.4046 2.57746C54.7869 3.4304 55.4924 4.74497 55.521 6.52111C55.3874 7.34022 55.2265 8.15019 55.0395 8.95007C54.625 9.80384 53.9434 10.4759 52.9948 10.9664C51.3556 11.8373 49.17 12.3645 46.438 12.5479C43.7515 12.7312 39.5852 12.8229 33.939 12.8229V18.5989C36.0791 18.0946 38.1053 17.8425 40.0177 17.8425C43.114 17.8425 45.8688 18.4843 48.2821 19.7678C48.8651 20.0669 49.4176 20.398 49.9396 20.7613C47.448 24.5239 44.2796 27.799 40.6079 30.4126Z" fill="#74A352"/>
    <path fill-rule="evenodd" clip-rule="evenodd" d="M38.0709 0.590652C38.0673 10.1371 30.894 18.0068 21.6449 19.1043C21.6435 13.087 21.6207 9.43463 21.5766 8.14713C21.5766 6.03844 22.3507 4.34233 23.8988 3.05878C25.447 1.77523 27.4732 1.01886 29.9776 0.789655C31.7895 0.677972 34.4873 0.611638 38.0709 0.590652Z" fill="#93B977"/>
</svg>

