<svg xmlns="http://www.w3.org/2000/svg" xmlns:xlink="http://www.w3.org/1999/xlink" width="154" height="197" viewBox="0 0 154 197">
  <defs>
    <linearGradient id="c" x1="53.526%" x2="42.344%" y1="77.939%" y2="3.844%">
      <stop offset="0%" stop-color="#191849"/>
      <stop offset="100%" stop-color="#01002B"/>
    </linearGradient>
    <linearGradient id="f" x1="45.105%" x2="56.645%" y1="93.516%" y2="1.322%">
      <stop offset="0%" stop-color="#191849"/>
      <stop offset="100%" stop-color="#01002B"/>
    </linearGradient>
    <linearGradient id="i" x1="53.171%" x2="31.82%" y1="60.314%" y2=".681%">
      <stop offset="0%" stop-color="#191849"/>
      <stop offset="100%" stop-color="#01002B"/>
    </linearGradient>
    <linearGradient id="l" x1="45.367%" x2="53.916%" y1="86.902%" y2="10.119%">
      <stop offset="0%" stop-color="#191849"/>
      <stop offset="100%" stop-color="#01002B"/>
    </linearGradient>
    <linearGradient id="m" x1="55.935%" x2="20.448%" y1="54.902%" y2="-29.04%">
      <stop offset="0%" stop-color="#EEBDAA"/>
      <stop offset="100%" stop-color="#B56C8F"/>
    </linearGradient>
    <linearGradient id="n" x1="55.401%" x2="40.646%" y1="79.554%" y2="-29.735%">
      <stop offset="0%" stop-color="#191849"/>
      <stop offset="100%" stop-color="#01002B"/>
    </linearGradient>
    <linearGradient id="o" x1="82.206%" x2="-144.767%" y1="68.282%" y2="-51.255%">
      <stop offset="0%" stop-color="#191849"/>
      <stop offset="97.258%" stop-color="#01002B"/>
    </linearGradient>
    <linearGradient id="p" x1="82.716%" x2="-63.683%" y1="3.72%" y2="220.424%">
      <stop offset="0%" stop-color="#191849"/>
      <stop offset="100%" stop-color="#01002B"/>
    </linearGradient>
    <linearGradient id="r" x1="47.848%" x2="58.158%" y1="64.644%" y2="-21.299%">
      <stop offset="0%" stop-color="#EEBDAA"/>
      <stop offset="100%" stop-color="#B56C8F"/>
    </linearGradient>
    <linearGradient id="s" x1="83.36%" x2="-54.995%" y1="41.726%" y2="75.921%">
      <stop offset="0%" stop-color="#191849"/>
      <stop offset="100%" stop-color="#01002B"/>
    </linearGradient>
    <linearGradient id="t" x1="32.457%" x2="59.554%" y1="59.921%" y2="49.217%">
      <stop offset="0%" stop-color="#191849"/>
      <stop offset="100%" stop-color="#01002B"/>
    </linearGradient>
    <linearGradient id="u" x1="-26.146%" x2="163.153%" y1="67.494%" y2="29.017%">
      <stop offset="0%" stop-color="#EEBDAA"/>
      <stop offset="100%" stop-color="#B56C8F"/>
    </linearGradient>
    <path id="a" d="M18.517 29.775a2.59 2.59 0 01-.218 1.023c-.449.858-1.623.94-2.59.909l-6.694-.216a.717.717 0 01-.401-.093.702.702 0 01-.202-.287c-1.718-3.63-2.33-7.692-3.906-11.386-.875-2.053-2.044-3.982-2.752-6.099A29.917 29.917 0 01.608 5.712a31.672 31.672 0 003.751-.23c3.564-.36 7.25-.76 10.347-2.56 1.267-.737 2.596-1.936 4.11-2.083.199.888.257 1.802.171 2.708a238.075 238.075 0 01-.47 26.228z"/>
    <path id="d" d="M1.539 29.867c.004.352.08.7.223 1.022.453.856 1.627.932 2.594.896l6.693-.247c.14.009.28-.024.4-.095a.703.703 0 00.201-.287c1.702-3.638 2.295-7.703 3.853-11.404.866-2.057 2.026-3.992 2.723-6.112a29.917 29.917 0 001.11-7.92 31.671 31.671 0 01-3.753-.212c-3.565-.344-7.254-.726-10.359-2.512-1.27-.73-2.605-1.924-4.119-2.063A8.655 8.655 0 00.946 3.64a238.095 238.095 0 00.593 26.226z"/>
    <path id="g" d="M11.896.036a40.088 40.088 0 013.085 11.977c.464 6.226.107 5.626.107 5.626l-7.667.859a.931.931 0 01-.973-.59C5.311 14.96.77 3.27.04 2.642-.797 1.922 11.896.036 11.896.036z"/>
    <path id="j" d="M.859.996a40.088 40.088 0 00-.512 12.357c.847 6.186 1.072 5.525 1.072 5.525l7.676-.764a.931.931 0 00.828-.78c.496-3.12 2.492-15.5 3.075-16.269C13.666.186.858.995.858.995z"/>
    <radialGradient id="q" cx="51.213%" cy="58.061%" r="200.321%" fx="51.213%" fy="58.061%" gradientTransform="matrix(.38372 -.14055 .05447 .99007 .284 .078)">
      <stop offset="0%" stop-color="#191849"/>
      <stop offset="100%" stop-color="#01002B"/>
    </radialGradient>
  </defs>
  <g fill="none" fill-rule="evenodd">
    <g fill="#B9C5C9" fill-rule="nonzero" transform="translate(0 178)">
      <ellipse cx="77.001" cy="14.14" rx="76.253" ry="3.987"/>
      <path d="M123.72 3.7a8.519 8.519 0 00-1.938 6.711 6.07 6.07 0 011.917-4.086 5.631 5.631 0 00-.22 3.662 5.566 5.566 0 012.398-3.012 2.5 2.5 0 00.358 3.423 17.479 17.479 0 011.244-5.573c.483 1.668.733 3.396.744 5.133a8.548 8.548 0 012.649-3.785 13.482 13.482 0 00-1.057 4.859 10.295 10.295 0 014.339-4.279 13.285 13.285 0 00-2.503 6.335l-7.139.116c-1.171.019-5.517.737-6.157-.326-.896-1.485 3.691-9.179 5.364-9.179zm12.712 5.733c.338.805.76 1.572 1.26 2.288.194-1.025.31-2.064.345-3.106a4.41 4.41 0 01.937 2.036 27.02 27.02 0 00-.189-6.67c.123.93.374 1.84.746 2.704.53 1.547.81 3.169.83 4.804a6.922 6.922 0 012.062-3.103 8.06 8.06 0 01-.096 3.23 5.637 5.637 0 012.403-2.988 7.412 7.412 0 00-1.063 3.532 3.93 3.93 0 012.492-1.936 7.467 7.467 0 00-1.855 3.737c-2.104-.518-4.31-.142-6.348-.568-1.978-.413-.818-2.28-1.524-3.96zm-27.801 3.65c.997-1.496 1.41-3.721 2.852-5.05a10.523 10.523 0 00-2.999 2.959c.002-1.824.137-3.645.404-5.449-1.116.207-1.658 2.656-1.874 3.645-.52-2.01-.062-4.33-.197-6.405-1.04 1.762-1.063 3.955-1.61 5.798-.855-.524-.827-2.363-1.775-3.055-.068 1.18.314 2.356.234 3.567-.878-.763-.743-2.127-2.15-2.592-.11.984.497 1.93.363 2.97-.606-.76-1.15-1.928-2.3-1.725.107 1.136 1.45 1.899 1.655 3.118 1.77-.058 3.527.329 5.11 1.124.503.29.968.682 1.462.995a1.3 1.3 0 00.825.1zM76.888 1.439a8.519 8.519 0 00-1.936 6.711 6.07 6.07 0 011.916-4.086 5.631 5.631 0 00-.22 3.662 5.566 5.566 0 012.398-3.012 2.5 2.5 0 00.359 3.424 17.479 17.479 0 011.243-5.574c.483 1.669.733 3.396.744 5.133a8.548 8.548 0 012.65-3.785 13.483 13.483 0 00-1.058 4.86 10.295 10.295 0 014.339-4.28 13.285 13.285 0 00-2.503 6.336l-7.139.115c-1.17.02-5.517.737-6.157-.325-.895-1.485 3.691-9.18 5.364-9.18z"/>
      <path d="M85.423 7.381c.338.805.76 1.572 1.26 2.288a20.43 20.43 0 00.345-3.106 4.41 4.41 0 01.937 2.037c.213-2.223.15-4.464-.189-6.671.123.931.374 1.841.746 2.704.53 1.547.81 3.17.83 4.805a6.922 6.922 0 012.062-3.104 8.06 8.06 0 01-.096 3.23 5.637 5.637 0 012.402-2.987 7.412 7.412 0 00-1.062 3.53 3.93 3.93 0 012.492-1.935 7.467 7.467 0 00-1.855 3.737c-2.104-.518-4.311-.142-6.348-.568-1.978-.413-.818-2.28-1.524-3.96zM70.53 1.864a21.589 21.589 0 01-.319 6.003 6.987 6.987 0 00-.6-3.187 7.605 7.605 0 01-.471 4.72 10.392 10.392 0 00-1.233-2.697 3.547 3.547 0 00-.215 1.904c.1.651-.137 1.31-.63 1.747.01-2.147-1.664-3.88-3.222-5.358a4.508 4.508 0 01.732 3.561c-.223-.612-.53-1.305-1.158-1.475a1.396 1.396 0 00-1.408.597 4.099 4.099 0 00-.59 1.503 15.789 15.789 0 01.751-6.686 13.986 13.986 0 00-1.709 10.229 10.224 10.224 0 015.444-.397c1.95.263 5.503 1.492 6.149-1.207.729-3.045-1.266-6.327-1.521-9.257zM57.987 3.036l.262 5.89-1.24-2.943-1.17 2.551a10.579 10.579 0 01-.781-4.621 15.86 15.86 0 00-.524 7.32 19.428 19.428 0 01-1.593-6.928 24.495 24.495 0 00-.408 4.935l-1.075-1.62-.598 1.48a29.872 29.872 0 01-.756-8.194 38.396 38.396 0 00-.573 9.257c-.425-.96-.671-1.992-1.111-2.945a4.09 4.09 0 00-2.11-2.229 5.752 5.752 0 011.717 4.42 7.64 7.64 0 00-3.105-1.093 3.564 3.564 0 011.064 2.938 5.131 5.131 0 00-2.89-2.353c.929 1.984 3.454 2.522 5.63 2.776 2.967.347 6.98.964 9.788-.414 2.491-1.224.014-6.116-.528-8.227zM39.098 4.66c.07 1.677.04 3.357-.086 5.03a8.67 8.67 0 00-2.424-5.155 7.62 7.62 0 01.154 3.95 13.37 13.37 0 01-1.367-6.311 14.04 14.04 0 00.497 9.215 7.721 7.721 0 01-2.249-5.098l-.73 2.412a5.865 5.865 0 01-.254-1.87l-.512-.01c-.368.788-.634 1.62-.789 2.476l-.673-2.997a6.244 6.244 0 00-.712 4.313 15.01 15.01 0 00-3.65-6.491c1.699 1.77 1.944 4.443 2.041 6.895a.68.68 0 00.136.463c.155.114.35.16.54.127 3.17-.1 6.16 1.478 9.319 1.753 4.526.393 1.52-6.487.76-8.702zM8.18 5.483a30.008 30.008 0 00.19 5.27 5.806 5.806 0 01.81-3.495 7.146 7.146 0 00.235 4.025 4.121 4.121 0 011.515-2.68 3.726 3.726 0 00.784 3.12c.329-2.163.407-4.356.233-6.537a12.596 12.596 0 01.987 6.655c.848-.885 1.6-1.855 2.248-2.895-.288.93-.37 1.91-.24 2.874.565-2.028.852-4.124.852-6.23a9.28 9.28 0 011.322 5.605c.629-.805.97-1.798.967-2.82l.955 3.628c.484-.936.85-1.928 1.09-2.953.3.763.462 1.573.478 2.393.389-1.548.467-3.158.23-4.738a10.473 10.473 0 011.258 5.438 55.173 55.173 0 001.348-5.276 18.66 18.66 0 00.504 5.924c-3.66.807-7.444 1.618-11.125.909a12.097 12.097 0 00-4.307-.528.83.83 0 00-.462.293c-1.093-2.782-.015-5.23.128-7.982z"/>
    </g>
    <path fill="#01002B" fill-rule="nonzero" d="M99.271 183.206l2.13 8.52a.72.72 0 00.69.547c3.404.044 21.353.276 22.378.276 1.132 0 .847-2.174-.567-2.832-3.504-1.63-12.239-4.383-14.129-6.273-2.116-2.116-10.502-.238-10.502-.238z"/>
    <g transform="translate(91.146 152.653)">
      <mask id="b" fill="#fff">
        <use xlink:href="#a"/>
      </mask>
      <use fill="#01002B" fill-rule="nonzero" xlink:href="#a"/>
      <path fill="#191849" fill-rule="nonzero" d="M20.343 24.852c-.288.319-.593.621-.915.905-.3.326-.623.635-.91.972-.59.69-1.206 1.357-1.831 2.015a37.549 37.549 0 01-3.993 3.643 49.529 49.529 0 01-2.402 1.775.553.553 0 00-.194.737c.153.254.48.34.737.193 3.104-2 5.855-4.502 8.14-7.402.317-.406.61-.83.879-1.27.143-.225.272-.459.386-.7.1-.249.218-.49.356-.72.107-.159-.144-.299-.253-.148zm.35-6.543a35 35 0 01-1.46 1.72c-.485.539-.944 1.098-1.413 1.651-.963 1.132-1.924 2.268-2.918 3.372a79.555 79.555 0 01-6.354 6.271 82.43 82.43 0 01-3.852 3.204c-.485.38.167 1.238.665.862a66.12 66.12 0 006.85-5.942 59.124 59.124 0 005.927-6.72c.5-.68 1.013-1.36 1.449-2.085.437-.726.862-1.458 1.297-2.185.07-.115-.104-.26-.192-.148zm-.596-4.3a79.248 79.248 0 01-3.257 3.727c-1.134 1.232-2.195 2.531-3.323 3.77-2.248 2.47-4.61 4.84-7.094 7.072A93.416 93.416 0 014.335 30.4c-.365.309-.73.616-1.096.922-.38.287-.731.61-1.049.965a.546.546 0 00.659.854c.382-.21.74-.463 1.066-.753.333-.273.666-.547.994-.827a92.628 92.628 0 005.517-5.117 80.996 80.996 0 006.687-7.61c.572-.74 1.076-1.539 1.587-2.321.52-.794 1.017-1.605 1.52-2.41.046-.074-.066-.165-.123-.095zm-.402-5.79c-1.073 1.46-2.255 2.843-3.446 4.207a227.637 227.637 0 01-3.6 4.057c-2.464 2.689-5.04 5.287-7.635 7.849a62.294 62.294 0 01-2.29 2.162c-.781.697-1.586 1.361-2.354 2.072a.521.521 0 00.629.815 24.627 24.627 0 004.347-3.62c1.333-1.293 2.629-2.625 3.922-3.958a176.177 176.177 0 003.807-4.025 51.47 51.47 0 003.554-4.23c.598-.819 1.198-1.646 1.728-2.512a63.427 63.427 0 001.549-2.693.123.123 0 00-.211-.124zm.322-6.521a33.233 33.233 0 01-1.685 2.279c-.587.73-1.15 1.478-1.733 2.21a89.45 89.45 0 01-3.615 4.284 100.851 100.851 0 01-8.086 7.916C3.295 19.8 1.624 21.132.013 22.534a.613.613 0 00.741.962c1.54-1.167 3.005-2.44 4.462-3.707a119.827 119.827 0 004.237-3.869 64.341 64.341 0 007.593-8.54 29.705 29.705 0 001.766-2.64c.535-.937 1.044-1.889 1.552-2.84a.2.2 0 00-.347-.202zM15.194.822c-.955 1.202-2.088 2.245-3.105 3.394a96.802 96.802 0 01-3.093 3.32c-2.14 2.202-4.39 4.298-6.68 6.342-1.297 1.157-2.61 2.295-3.923 3.434a.628.628 0 000 .88.634.634 0 00.88 0c4.655-4.02 9.43-8.03 13.297-12.843a22.755 22.755 0 001.523-2.137c.459-.729.876-1.482 1.324-2.218.081-.134-.121-.301-.223-.172zM5.43 3.809a38.649 38.649 0 01-3.952 3.003C.1 7.73-1.274 8.66-2.689 9.521a.564.564 0 00.568.972 24.787 24.787 0 004.233-2.86 40.934 40.934 0 003.623-3.52.216.216 0 00-.305-.304z" mask="url(#b)"/>
      <path fill="#191849" fill-rule="nonzero" d="M20.948 13.705c-.621-.678-1.2-1.393-1.846-2.052-.644-.657-1.304-1.299-1.945-1.96a63.192 63.192 0 01-3.7-4.164c-.658-.81-1.296-1.628-1.985-2.412-.316-.359-.891.103-.654.504a30.078 30.078 0 003.44 4.472 38.6 38.6 0 003.956 3.985c.409.345.824.671 1.262.979.43.301.875.566 1.318.848.126.08.25-.097.154-.2zm-.586 5.427c-.94-.954-1.858-1.927-2.82-2.86a107.66 107.66 0 01-2.815-2.816 73.358 73.358 0 01-5.176-6.055c-.912-1.186-1.783-2.406-2.673-3.61a.47.47 0 00-.623-.163.461.461 0 00-.163.623 47.985 47.985 0 004.888 6.553 58.9 58.9 0 005.625 5.758 31.087 31.087 0 003.638 2.724c.095.061.196-.076.119-.154zm-2.143 3.784a43.747 43.747 0 01-4.684-3.597 49.815 49.815 0 01-4.186-4.114 60.539 60.539 0 01-7.181-9.848C.962 3.342-.11 1.253-1.296-.772a.46.46 0 00-.795.465A46.323 46.323 0 00.869 5.29a63.823 63.823 0 003.516 5.259 48.339 48.339 0 008.228 8.746 36.433 36.433 0 005.567 3.689.04.04 0 00.04-.068zm-.242 3.953a117.81 117.81 0 01-4.226-3.17c-1.36-1.08-2.76-2.107-4.11-3.202a89.088 89.088 0 01-7.848-6.958C.427 12.136-.862 10.656-2.114 9.15c-.365-.439-1.146.152-.8.617a51.147 51.147 0 007.293 7.69 87.808 87.808 0 008.39 6.47c.815.561 1.672 1.06 2.5 1.604.84.552 1.684 1.1 2.53 1.642.194.124.358-.174.178-.305zm.864 3.143a1.826 1.826 0 01-.477-.241 3.874 3.874 0 00-.344-.248c-.304-.19-.617-.362-.939-.519a75.31 75.31 0 01-1.757-.867c-1.198-.608-2.41-1.187-3.605-1.801a50.58 50.58 0 01-6.573-3.867c-.546-.391-1.07-.811-1.57-1.258a8.675 8.675 0 00-1.562-1.359.386.386 0 00-.56.431c.252.594.65 1.115 1.154 1.517.471.438.965.852 1.48 1.24.986.737 2.02 1.41 3.092 2.016a67.944 67.944 0 007.237 3.663c.696.299 1.41.558 2.12.819.365.141.74.258 1.12.35.388.055.772.141 1.147.256.082.032.118-.1.037-.132z" mask="url(#b)"/>
    </g>
    <path fill="#01002B" fill-rule="nonzero" d="M55.817 183.922l-2.13 8.521a.72.72 0 01-.69.546c-3.404.044-21.353.276-22.377.276-1.133 0-.848-2.173.566-2.831 3.504-1.63 12.239-4.383 14.129-6.273 2.116-2.116 10.502-.239 10.502-.239z"/>
    <g fill-rule="nonzero">
      <path fill="url(#c)" d="M28.812 23.032a32.343 32.343 0 011.546 9.729 16.649 16.649 0 01-3.58 8.92 10.954 10.954 0 01-4.515 3.74 11.18 11.18 0 01-5.771.577c-4.045-.56-8.127-1.797-10.56-5.225a18.332 18.332 0 01-2.676-7.221C1.519 24.689 1.293 15.527.58 6.556.52 6.094.482 5.63.469 5.166L8.376 2.85A59.679 59.679 0 0115.45 1.1a24.133 24.133 0 013.653-.338 8.576 8.576 0 013.377.323c.774.368.835 1.382 1.029 2.104l1.01 3.78 2.02 7.559 2.273 8.504z" transform="translate(82 117)"/>
      <path fill="#01002B" d="M102.241 119.45c.458-.019.916.023 1.363.123.05.149.103.391.138.55.038.177.076.348.118.507l.834 3.121.176.658 2.02 7.56 1.666 6.23.607 2.273a31.228 31.228 0 011.49 9.21 14.875 14.875 0 01-3.25 7.986 9.176 9.176 0 01-3.791 3.176 8.407 8.407 0 01-3.219.583 12.233 12.233 0 01-1.668-.119c-4.683-.648-7.671-2.085-9.402-4.522a16.826 16.826 0 01-2.393-6.562 159.92 159.92 0 01-2.18-20.123c-.144-2.192-.293-4.459-.47-6.682v-.006l6.575-1.926a57.327 57.327 0 016.872-1.703 22.298 22.298 0 013.394-.316l.442-.008c.215-.005.444-.01.678-.01m0-1.706c-.408 0-.8.014-1.138.018-1.224.02-2.446.133-3.653.338a59.68 59.68 0 00-7.074 1.75l-7.907 2.315c.013.465.05.93.11 1.39.714 8.972.94 18.134 2.677 26.997a18.332 18.332 0 002.676 7.221c2.433 3.428 6.515 4.666 10.56 5.225.63.088 1.265.133 1.901.135a10.123 10.123 0 003.87-.712 10.955 10.955 0 004.515-3.74 16.65 16.65 0 003.58-8.92 32.342 32.342 0 00-1.546-9.73l-2.273-8.503-2.02-7.56-1.01-3.779c-.194-.722-.255-1.736-1.029-2.104a5.525 5.525 0 00-2.24-.341z"/>
    </g>
    <g transform="translate(43.59 153.871)">
      <mask id="e" fill="#fff">
        <use xlink:href="#d"/>
      </mask>
      <use fill="#01002B" fill-rule="nonzero" xlink:href="#d"/>
      <path fill="#191849" fill-rule="nonzero" d="M-.563 25.102c.258.378.39.834.631 1.227.239.404.5.795.78 1.172a29.35 29.35 0 001.764 2.082 37.515 37.515 0 004.042 3.719c.83.66 1.695 1.275 2.59 1.845a.539.539 0 00.543-.93 43.354 43.354 0 01-8.027-7.125c-.324-.368-.662-.718-.998-1.075a12.791 12.791 0 01-1.071-1.064c-.11-.15-.362-.01-.254.149zm-.319-6.542c.393.647.777 1.298 1.167 1.946.39.649.829 1.26 1.276 1.872a48.912 48.912 0 002.837 3.487 68.643 68.643 0 006.313 6.312 69.502 69.502 0 004.008 3.24c.494.37 1.157-.478.665-.86a85.026 85.026 0 01-6.756-5.835c-2.152-2.067-4.113-4.292-6.071-6.54-.536-.615-1.045-1.255-1.596-1.857a37.058 37.058 0 01-1.65-1.913c-.088-.11-.263.031-.193.148zm.645-4.357c.89 1.41 1.787 2.816 2.739 4.186a45.427 45.427 0 003.192 3.93 87.968 87.968 0 007.098 7.199c.696.63 1.4 1.25 2.115 1.86.351.3.706.595 1.065.886.382.344.8.644 1.249.894a.546.546 0 00.658-.853 13.444 13.444 0 00-1.869-1.64 93.235 93.235 0 01-5.588-5.044 112.355 112.355 0 01-6.83-7.32c-.595-.698-1.241-1.356-1.85-2.042a71.537 71.537 0 01-1.856-2.151c-.057-.069-.17.02-.123.095zM.05 8.441a45.119 45.119 0 002.886 4.62 49.635 49.635 0 003.509 4.258c2.48 2.737 5.08 5.383 7.722 7.964a26.893 26.893 0 004.886 4.107c.5.295 1.071-.41.63-.815-1.367-1.253-2.804-2.42-4.142-3.706-1.327-1.276-2.617-2.59-3.916-3.895A177.71 177.71 0 017.83 17.07c-1.239-1.322-2.422-2.688-3.634-4.033C2.828 11.517 1.479 9.96.26 8.317a.123.123 0 00-.211.124zm-.489-6.44c.456.843.913 1.686 1.387 2.52.472.812.985 1.6 1.538 2.36a54.1 54.1 0 003.607 4.485 88.432 88.432 0 008.152 7.977c1.636 1.426 3.289 2.856 5.025 4.16a.613.613 0 00.742-.961c-1.436-1.237-2.925-2.412-4.359-3.65a119.58 119.58 0 01-4.185-3.792 97.205 97.205 0 01-3.997-4.032c-1.275-1.37-2.48-2.797-3.67-4.24-.673-.817-1.3-1.667-1.972-2.483A34.738 34.738 0 01-.09 1.798a.2.2 0 00-.348.203zm4.943-.93c.76 1.352 1.6 2.656 2.517 3.906a51.253 51.253 0 003.052 3.494c2.123 2.222 4.392 4.293 6.705 6.315a378.782 378.782 0 003.949 3.406.638.638 0 00.88 0 .627.627 0 000-.88A150.003 150.003 0 018.22 4.692c-.58-.638-1.17-1.262-1.765-1.885-.596-.623-1.188-1.235-1.728-1.908-.101-.127-.306.037-.223.172zM14.2 4.145a40.912 40.912 0 003.639 3.502 24.784 24.784 0 004.245 2.84.564.564 0 00.569-.972c-1.42-.854-2.798-1.778-4.18-2.69a38.649 38.649 0 01-3.968-2.985.216.216 0 00-.305.305z" mask="url(#e)"/>
      <path fill="#191849" fill-rule="nonzero" d="M-.813 14.008a21.68 21.68 0 002.284-1.595 31.155 31.155 0 002.05-1.92A53.418 53.418 0 007.259 6.3a21.81 21.81 0 001.857-2.622c.232-.397-.336-.869-.654-.504C7.255 4.56 6.165 6.04 4.955 7.424c-1.225 1.403-2.536 2.71-3.823 4.052-.358.373-.71.745-1.053 1.13-.355.399-.687.807-1.045 1.201-.093.103.027.282.154.2zm.576 5.378A29.188 29.188 0 003.01 16.98a51.108 51.108 0 002.951-2.808 65.644 65.644 0 005.296-6.117 40.63 40.63 0 002.587-3.768c.306-.514-.448-.922-.787-.46-1.57 2.146-3.118 4.306-4.821 6.35-1.712 2.055-3.559 3.98-5.457 5.861-1.06 1.051-2.09 2.126-3.134 3.195-.076.077.023.216.118.153zm2.082 3.688a35.61 35.61 0 004.953-3.235 42.008 42.008 0 004.414-4.014 58.408 58.408 0 007.442-9.83A48.602 48.602 0 0022.005-.31a.476.476 0 00-.165-.63.466.466 0 00-.63.165c-1.041 1.797-1.987 3.648-3.026 5.447a74.667 74.667 0 01-3.327 5.262 52.367 52.367 0 01-7.815 8.947 43.545 43.545 0 01-5.237 4.125.04.04 0 00.04.067zm.4 4.189l4.444-2.887c1.482-.96 2.907-2.023 4.319-3.08a69.198 69.198 0 007.942-6.983 43.201 43.201 0 003.925-4.55c.34-.462-.432-1.064-.8-.618a71.137 71.137 0 01-7.163 7.571c-2.593 2.345-5.341 4.538-8.124 6.653-.783.595-1.531 1.234-2.32 1.821-.797.594-1.598 1.183-2.401 1.769-.18.13-.016.43.177.304zm-.992 2.975a2.01 2.01 0 01.53-.157c.143-.012.285-.033.425-.061.35-.077.695-.176 1.032-.297.643-.236 1.283-.481 1.92-.734 1.255-.498 2.48-1.092 3.683-1.705a48.33 48.33 0 006.734-3.947c.569-.415 1.115-.86 1.636-1.334a4.34 4.34 0 001.345-1.706.386.386 0 00-.561-.43 7.533 7.533 0 00-1.424 1.243c-.425.396-.87.77-1.334 1.12a33.397 33.397 0 01-3.081 2.035c-2.273 1.348-4.62 2.569-6.994 3.727-.675.33-1.34.682-2.015 1.011-.324.152-.64.32-.947.506a6.19 6.19 0 01-.985.596c-.081.033-.046.165.036.133z" mask="url(#e)"/>
    </g>
    <g fill-rule="nonzero">
      <path fill="url(#f)" d="M2.26 21.914a32.138 32.138 0 00-1.355 9.43c.302 3.152 1.499 6.15 3.45 8.643a10.511 10.511 0 004.277 3.622c1.725.673 3.6.865 5.425.555 3.792-.545 7.613-1.748 9.864-5.071a17.966 17.966 0 002.44-7.001c1.544-8.592 1.664-17.472 2.245-26.167.008-.12.133-1.335.09-1.348L21.248 2.34a54.977 54.977 0 00-6.66-1.69 22.035 22.035 0 00-3.433-.326A7.793 7.793 0 007.987.64c-.723.357-.77 1.34-.945 2.04l-.91 3.664-1.823 7.328-2.05 8.243z" transform="translate(42 119)"/>
      <path fill="#01002B" d="M52.099 120.987c.214 0 .425.004.622.009l.417.007c1.063.017 2.124.119 3.171.303 2.185.41 4.34.96 6.456 1.642l6.166 1.853-.001.012c-.144 2.154-.262 4.352-.375 6.477a159.429 159.429 0 01-1.847 19.505 16.495 16.495 0 01-2.178 6.356c-1.608 2.374-4.295 3.715-8.712 4.35-.515.075-1.034.113-1.554.115a7.6 7.6 0 01-2.976-.554 8.76 8.76 0 01-3.572-3.06 14.833 14.833 0 01-3.133-7.75 31.037 31.037 0 011.308-8.932l.77-3.097 1.28-5.147 1.82-7.328.456-1.832.456-1.831c.038-.155.072-.32.106-.491.029-.145.072-.361.115-.506.396-.082.8-.116 1.205-.101m0-1.68a5.043 5.043 0 00-2.112.332c-.723.357-.77 1.34-.945 2.04a46639.493 46639.493 0 00-2.733 10.992l-2.05 8.243a32.135 32.135 0 00-1.354 9.43c.302 3.152 1.499 6.15 3.45 8.643a10.511 10.511 0 004.277 3.622 9.288 9.288 0 003.632.687c.6-.001 1.2-.045 1.793-.132 3.792-.545 7.613-1.748 9.864-5.071a17.968 17.968 0 002.441-7.001c1.543-8.592 1.663-17.472 2.244-26.167.008-.12.133-1.335.09-1.348l-7.447-2.238a54.976 54.976 0 00-6.66-1.69 22.035 22.035 0 00-3.434-.326c-.314-.003-.678-.017-1.056-.017z"/>
    </g>
    <g fill-rule="nonzero" transform="translate(89 33)">
      <path fill="#1C1C56" d="M.9463 20.521L7.135 2.0113 10.828 3.246 4.6394 21.7558z"/>
      <path fill="#01002B" d="M7.165 2.088L10.76 3.29l-2.041.29zM6.576 3.848l2.139-.257 1.457 1.459-2.042.29z"/>
      <path fill="#01002B" d="M5.992 5.596l2.138-.257 1.457 1.459-2.041.29zM5.403 7.356l2.139-.257 1.457 1.459-2.042.29zM4.797 9.166l2.139-.257 1.457 1.459-2.042.29zM4.209 10.926l2.139-.257 1.456 1.459-2.041.29z"/>
      <path fill="#01002B" d="M3.624 12.674l2.139-.258 1.457 1.46-2.042.29zM3.036 14.434l2.138-.258 1.457 1.46-2.041.29z"/>
      <path fill="#01002B" d="M2.457 16.162l2.139-.257 1.457 1.459-2.042.29zM1.869 17.922l2.139-.257 1.456 1.459-2.041.29z"/>
      <path fill="#01002B" d="M1.284 19.67l2.139-.258 1.457 1.46-2.042.29z"/>
      <rect width="5.881" height="2.31" x="6.121" y="1.239" fill="#01002B" rx=".68" transform="rotate(18.494 9.061 2.394)"/>
    </g>
    <g fill-rule="nonzero" transform="translate(35 41)">
      <path fill="#1C1C56" d="M2.1147 4.1493L5.318 1.9355l11.0958 16.056-3.2035 2.2138z"/>
      <path fill="#01002B" d="M5.311 2.017L2.192 4.173l2.041-.29zM6.366 3.544l-2.126.348L3.247 5.7l2.042-.29z"/>
      <path fill="#01002B" d="M7.414 5.06l-2.126.348-.993 1.807 2.041-.29zM8.469 6.586l-2.126.349-.993 1.807 2.042-.29zM9.555 8.157l-2.126.348-.993 1.807 2.041-.29zM10.61 9.683l-2.126.349-.993 1.807 2.041-.29z"/>
      <path fill="#01002B" d="M11.658 11.199l-2.126.348-.993 1.808 2.041-.29zM12.713 12.726l-2.126.348-.993 1.807 2.041-.29z"/>
      <path fill="#01002B" d="M13.749 14.225l-2.126.348-.993 1.808 2.042-.29zM14.804 15.752l-2.126.348-.993 1.807 2.042-.29z"/>
      <path fill="#01002B" d="M15.852 17.267l-2.126.349-.993 1.807 2.042-.29z"/>
      <rect width="5.881" height="2.31" x=".634" y="1.684" fill="#01002B" rx=".68" transform="rotate(145.346 3.574 2.84)"/>
    </g>
    <g transform="translate(105.99 86.645)">
      <mask id="h" fill="#fff">
        <use xlink:href="#g"/>
      </mask>
      <use fill="#01002B" fill-rule="nonzero" xlink:href="#g"/>
      <path fill="#191849" fill-rule="nonzero" d="M6.234 17.973c.397-.32.803-.63 1.196-.955.388-.335.756-.692 1.103-1.069a54.332 54.332 0 005.783-7.247 67.705 67.705 0 001.857-2.926.575.575 0 00-.111-.782.562.562 0 00-.782.111A85.7 85.7 0 018.22 15.13c-.351.437-.714.864-1.049 1.313-.353.473-.673.969-1.027 1.442a.064.064 0 00.09.088zm8.237-15.6a4.15 4.15 0 00-1.08 1.126c-.314.428-.62.86-.919 1.3-.582.859-1.158 1.722-1.76 2.566a23.438 23.438 0 01-1.88 2.336c-.654.703-1.36 1.355-2.074 1.995-.834.747-1.68 1.479-2.506 2.235a.587.587 0 00-.094.805.578.578 0 00.805.094c1.467-1.387 3.04-2.656 4.443-4.11a33.22 33.22 0 003.71-4.924c.34-.517.676-1.033.997-1.562a4.746 4.746 0 00.745-1.643c.039-.226-.223-.322-.387-.218zm1.126 7.766a8.264 8.264 0 00-1.772 2.09 59.471 59.471 0 01-1.665 2.217 41.651 41.651 0 01-2.737 3.128 6.043 6.043 0 00-.934 1.014.546.546 0 00.008.64.527.527 0 00.62.156c.427-.274.811-.61 1.14-.998a41.652 41.652 0 002.837-3.182 32.137 32.137 0 001.67-2.269c.268-.4.524-.801.757-1.222a3.69 3.69 0 00.471-1.351.248.248 0 00-.395-.223zm.079 4.025c-.629.694-1.27 1.37-1.854 2.104-.58.729-1.17 1.451-1.766 2.167-.38.457.354 1.004.735.553a69.113 69.113 0 001.762-2.171 22.395 22.395 0 001.538-2.342.26.26 0 00-.415-.311zM13.156.854a5.45 5.45 0 00-.932 1.102c-.287.39-.567.784-.868 1.164a34.778 34.778 0 01-1.911 2.194 49.228 49.228 0 01-4.27 3.952c-.84.706-1.704 1.382-2.565 2.06a.515.515 0 00.638.807C6.32 9.639 9.51 7.153 11.941 4c.34-.442.669-.894.977-1.358.34-.452.585-.968.72-1.517a.302.302 0 00-.482-.272zM10.423-.92c-.263.359-.539.702-.831 1.037-.282.321-.527.677-.798 1.008A69.457 69.457 0 017.09 3.118a46.816 46.816 0 01-3.68 3.653c-.365.331-.733.66-1.103.985-.43.3-.805.674-1.107 1.103-.193.366.254.679.577.565a3.95 3.95 0 001.08-.83c.338-.294.675-.589 1.01-.885a66.062 66.062 0 001.948-1.786 25.662 25.662 0 003.55-3.98c.294-.416.566-.847.815-1.29.234-.435.421-.907.614-1.36a.216.216 0 00-.372-.212zM.85 6.491c.217-.025.425-.102.606-.224.166-.126.34-.247.498-.383.292-.252.564-.535.84-.804A21.724 21.724 0 004.46 3.197 22.955 22.955 0 007.276-.759a.168.168 0 00-.257-.194A23.25 23.25 0 005.379.789a61.89 61.89 0 01-1.617 1.762c-.548.576-1.122 1.135-1.65 1.73-.257.29-.52.575-.775.866-.128.145-.241.3-.358.454-.074.085-.141.176-.2.272a1.886 1.886 0 00-.1.397c-.029.104.038.253.171.22z" mask="url(#h)"/>
      <path fill="#191849" fill-rule="nonzero" d="M.174 3.032a6.743 6.743 0 002.054 3.163c.505.47 1.054.892 1.639 1.26.62.37 1.26.709 1.907 1.028 2.604 1.284 5.36 2.24 7.997 3.453.725.333 1.442.682 2.147 1.054.726.384 1.427.853 2.175 1.19.515.231.874-.49.47-.828a10.821 10.821 0 00-1.82-1.122 38.153 38.153 0 00-1.878-.95 62.286 62.286 0 00-3.824-1.65A52.587 52.587 0 013.259 6.2 7.01 7.01 0 01.352 2.981c-.039-.094-.207-.052-.178.05zm1.996 7.002a24.797 24.797 0 002.54 1.526c.879.447 1.773.86 2.684 1.24 1.812.735 3.67 1.352 5.561 1.847.542.147 1.086.285 1.633.412.267.061.534.12.802.172.297.083.605.115.913.094a.548.548 0 00.129-1.042 2.578 2.578 0 00-.76-.176c-.24-.037-.479-.076-.718-.116a38.656 38.656 0 01-1.429-.262 26.954 26.954 0 01-2.74-.698 41.325 41.325 0 01-5.372-2.111 88.323 88.323 0 01-2.928-1.442c-.325-.17-.62.354-.316.557zm1.42 3.69c.339.244.645.529.987.772.325.233.657.456.996.67.713.44 1.458.825 2.228 1.154a35.527 35.527 0 004.658 1.647c.916.26 1.827.582 2.759.78a.509.509 0 00.565-.437.517.517 0 00-.436-.564c-.776-.197-1.573-.303-2.346-.513a42.693 42.693 0 01-2.331-.699 31.39 31.39 0 01-4.42-1.842c-.395-.203-.795-.394-1.185-.607a11.42 11.42 0 01-1.216-.705c-.224-.163-.484.181-.258.344zM5.844 3.597c.356.332.689.686 1.044 1.015.34.344.699.668 1.075.97.789.582 1.602 1.112 2.437 1.626.81.535 1.678.98 2.585 1.326.435.15.88.264 1.321.392.472.136.932.36 1.41.463.609.129.894-.736.439-1.08a4.047 4.047 0 00-1.333-.525c-.442-.126-.889-.236-1.325-.381a16.81 16.81 0 01-2.51-1.23c-.833-.44-1.672-.87-2.503-1.316-.884-.4-1.748-.843-2.587-1.33a.044.044 0 00-.053.07zM8.75.897c.058.27.16.529.302.766.18.226.382.432.606.614.483.417 1 .791 1.547 1.12.57.343 1.148.67 1.737.982.581.35 1.208.622 1.862.805.479.105.72-.592.35-.86a11.37 11.37 0 00-1.636-.853 33.01 33.01 0 01-1.609-.855c-.532-.304-1.07-.595-1.609-.888a6.052 6.052 0 01-.656-.387 1.796 1.796 0 01-.625-.56.147.147 0 00-.27.116z" mask="url(#h)"/>
    </g>
    <g fill-rule="nonzero">
      <path fill="url(#i)" d="M14.836.288s10.597 24.564 10.95 27.198c.353 2.634.223 7.183-1.938 9.692-2.16 2.508-8.39 5.008-12.572 1.407C7.095 34.985.302 21.562.302 21.562L14.836.288z" transform="translate(93 51)"/>
      <path fill="#01002B" d="M107.499 54.76c4.7 10.98 9.398 22.441 9.621 23.95.368 2.74.04 6.53-1.545 8.371a9.026 9.026 0 01-6.276 2.625 5.838 5.838 0 01-3.927-1.394c-2.99-2.575-7.944-11.448-10.118-15.628l12.245-17.924m.337-3.472L93.302 72.562s6.792 13.422 10.974 17.023a7.527 7.527 0 005.023 1.801 10.736 10.736 0 007.549-3.208c2.16-2.51 2.29-7.058 1.938-9.692-.353-2.634-10.95-27.198-10.95-27.198z"/>
    </g>
    <g transform="translate(33.165 98.83)">
      <mask id="k" fill="#fff">
        <use xlink:href="#j"/>
      </mask>
      <use fill="#01002B" fill-rule="nonzero" xlink:href="#j"/>
      <path fill="#191849" fill-rule="nonzero" d="M10.212 17.245c-.773-.675-1.51-1.377-2.31-2.021a99.433 99.433 0 01-2.366-1.95 88.648 88.648 0 01-4.464-4.067 67.71 67.71 0 01-2.39-2.471.572.572 0 00-.785-.091.563.563 0 00-.091.784 57.296 57.296 0 009.363 8.22c.469.322.937.638 1.431.92.502.285 1.035.525 1.55.785.068.035.114-.065.062-.11zM-1.497 4.13c.225.487.54.925.93 1.293.365.385.735.764 1.112 1.135.75.738 1.492 1.483 2.267 2.194a27.102 27.102 0 004.878 3.507c.984.567 1.982 1.108 2.952 1.699a.59.59 0 00.802-.114.577.577 0 00-.114-.802c-1.711-1.006-3.486-1.91-5.134-3.02A35.208 35.208 0 011.595 6.07c-.432-.415-.863-.83-1.31-1.227a4.738 4.738 0 00-1.471-1.03.243.243 0 00-.31.317zm.516 7.836a6.306 6.306 0 001.764 2.27 32.313 32.313 0 002.075 1.841 41.66 41.66 0 003.349 2.464 5.33 5.33 0 001.32.766c.222.082.47.013.618-.17a.528.528 0 00-.008-.64 6.032 6.032 0 00-1.148-.843 41.506 41.506 0 01-3.373-2.509 59.369 59.369 0 01-2.092-1.818c-.342-.31-.676-.625-1.023-.928a4.322 4.322 0 00-1.165-.757.248.248 0 00-.317.324zm.724 3.993a22.77 22.77 0 002.021 1.997c.725.608 1.46 1.202 2.208 1.781.47.364 1.018-.37.553-.736-.733-.576-1.46-1.16-2.18-1.75-.721-.592-1.486-1.117-2.243-1.66-.23-.166-.567.144-.36.368zM-.608 2.446c.216.45.517.853.888 1.187a24.772 24.772 0 003.426 2.82 50.342 50.342 0 005.167 3.029c1 .52 2.002 1.038 3.005 1.55a.519.519 0 00.67-.28.524.524 0 00-.28-.671 53.133 53.133 0 01-9.99-5.982c-.412-.33-.813-.673-1.203-1.03A5.946 5.946 0 00-.221 2.05c-.245-.12-.477.169-.387.396zM1.789.05c.255.362.515.723.784 1.075.28.34.583.66.908.959.632.62 1.308 1.192 2.024 1.713A47.87 47.87 0 0010 6.64c.453.257.907.511 1.363.763.209.115.417.23.627.343.23.152.487.26.757.32a.44.44 0 00.397-.703 4.044 4.044 0 00-1.17-.75c-.367-.205-.733-.412-1.097-.621A66.677 66.677 0 018.61 4.634a51.577 51.577 0 01-4.237-3.023c-.384-.3-.748-.62-1.125-.928-.387-.315-.786-.606-1.16-.938-.191-.17-.433.115-.299.306zm11.358 4.722a1.41 1.41 0 00-.36-.541c-.148-.126-.292-.259-.444-.38-.315-.252-.656-.476-.98-.717-.638-.472-1.313-.9-1.97-1.346A62.71 62.71 0 017.446.41 24.155 24.155 0 005.448-.975c-.153-.09-.358.079-.23.237C5.733-.125 6.3.442 6.914.957A64.889 64.889 0 008.78 2.524c.622.52 1.274 1.005 1.952 1.45.33.208.66.418.996.616.173.1.357.182.539.267.098.055.2.1.308.134.134.016.269.018.403.007a.164.164 0 00.17-.225z" mask="url(#k)"/>
      <path fill="#191849" fill-rule="nonzero" d="M12.763 1.47a6.965 6.965 0 01-1.795 3.37c-.473.486-.98.936-1.518 1.348-.536.443-1.093.859-1.66 1.26-2.34 1.66-4.796 3.147-7.093 4.868a42.59 42.59 0 00-1.82 1.439 11.853 11.853 0 00-1.775 1.683c-.342.439.25.982.682.664.592-.434 1.12-.975 1.68-1.45.54-.458 1.093-.902 1.658-1.331 1.141-.872 2.322-1.69 3.503-2.507 1.213-.838 2.45-1.65 3.62-2.55A29.715 29.715 0 009.9 6.904a12.276 12.276 0 001.435-1.558 6.951 6.951 0 001.613-3.853.093.093 0 00-.185-.024zm-.747 6.804c-.743.617-1.513 1.202-2.273 1.799a39.045 39.045 0 01-2.348 1.704 33.483 33.483 0 01-4.975 2.819c-.49.219-.986.428-1.485.626-.257.103-.515.202-.773.302a2.89 2.89 0 00-.792.375.548.548 0 00.414.964c.503-.097.986-.28 1.428-.54.447-.206.89-.42 1.328-.642a63.59 63.59 0 002.596-1.403 37.907 37.907 0 004.905-3.31 25.75 25.75 0 002.434-2.246c.258-.265-.18-.678-.459-.447zm-.508 4.1c-.291.296-.599.575-.922.835-.293.256-.592.503-.899.743-.638.5-1.27 1.004-1.932 1.474a34.77 34.77 0 01-4.092 2.467c-.819.426-1.683.748-2.509 1.156a.505.505 0 00.402.925c.76-.338 1.471-.783 2.207-1.168a45.116 45.116 0 002.18-1.219 25.14 25.14 0 004.038-2.903c.33-.3.641-.629.946-.956.327-.352.606-.74.926-1.095.186-.206-.16-.463-.345-.259zM7.454 3.157a28.59 28.59 0 01-2.275 1.86c-.723.61-1.456 1.208-2.181 1.816-.663.624-1.38 1.19-2.14 1.691-.398.23-.813.43-1.217.647-.46.204-.882.488-1.243.84-.402.463.194 1.15.722.914.234-.127.461-.267.68-.42.163-.098.332-.187.5-.277.426-.227.855-.447 1.268-.697a13.262 13.262 0 002.245-1.825 35.767 35.767 0 002.041-2.098c.303-.37.585-.756.843-1.158.286-.406.543-.831.827-1.24a.044.044 0 00-.07-.053zM3.836 1.096a1.67 1.67 0 01-.437.632 4.28 4.28 0 01-.552.525c-.478.4-.951.808-1.416 1.224-.458.41-.927.807-1.408 1.191-.524.37-1.017.781-1.474 1.23-.33.364.16.916.575.728a7.59 7.59 0 001.64-1.178 32.91 32.91 0 001.49-1.324c.465-.439.894-.916 1.28-1.426.18-.223.333-.467.455-.726.084-.26.128-.53.129-.802.01-.155-.235-.243-.282-.074z" mask="url(#k)"/>
    </g>
    <g fill-rule="nonzero">
      <path fill="url(#l)" d="M4.436.577S.523 27.04.861 29.677c.337 2.637 1.634 6.998 4.368 8.866 2.734 1.868 9.398 2.678 12.51-1.878 3.113-4.556 6.22-19.276 6.22-19.276L4.435.577z" transform="translate(29 63)"/>
      <path fill="#01002B" d="M34.656 66.845L51.104 81.01c-1.023 4.599-3.525 14.447-5.752 17.707a6.652 6.652 0 01-5.623 2.633 8.561 8.561 0 01-4.552-1.194c-2.007-1.371-3.299-4.949-3.65-7.69-.173-1.517 1.415-13.802 3.129-25.621m-1.22-3.268s-3.913 26.464-3.575 29.1c.337 2.637 1.634 6.998 4.368 8.866a10.266 10.266 0 005.5 1.487 8.189 8.189 0 007.01-3.365c3.113-4.556 6.22-19.276 6.22-19.276L33.435 63.577z"/>
    </g>
    <g fill-rule="nonzero">
      <path fill="url(#m)" d="M1.978 8.148a6.625 6.625 0 004.19 3.68c.34.091.692.135 1.044.13a4.672 4.672 0 002.324-.863 3.8 3.8 0 001.199-1.09 2.29 2.29 0 00.224-1.969 1.562 1.562 0 01-.124-.434 1.68 1.68 0 01.181-.638 2.909 2.909 0 00-.827-2.818c-.691-.763-1.578-1.33-2.263-2.099a1.164 1.164 0 00-.259-.241.77.77 0 00-.278-.091 4.686 4.686 0 00-1.834.38c-1.236.321-2.534-.004-3.774.279-.268.061-.537.091-.633.356-.067.35-.082.709-.045 1.063-.006.7.051 1.399.17 2.088a9.05 9.05 0 00.705 2.267z" transform="translate(34 115)"/>
      <path fill="#01002B" d="M41.152 116.697c.08 0 .159.006.237.018a.77.77 0 01.278.09c.098.068.185.15.259.242.685.77 1.572 1.336 2.263 2.099a2.908 2.908 0 01.827 2.818 1.68 1.68 0 00-.181.638c.02.15.062.296.124.434a2.29 2.29 0 01-.224 1.97 3.8 3.8 0 01-1.2 1.09 4.671 4.671 0 01-2.323.861l-.088.002a3.885 3.885 0 01-.956-.132 6.626 6.626 0 01-4.19-3.679 9.051 9.051 0 01-.705-2.267c-.119-.69-.176-1.388-.17-2.088a3.63 3.63 0 01.045-1.062c.096-.265.365-.296.633-.357.48-.097.97-.14 1.46-.128.247 0 .494.005.74.005a6.2 6.2 0 001.574-.156 6.663 6.663 0 011.597-.398m0-.84c-.465.02-.923.116-1.357.285-.15.05-.3.1-.452.14a5.49 5.49 0 01-1.362.129l-.362-.003-.377-.002a7.298 7.298 0 00-1.648.149l-.073.016c-.519.055-.966.392-1.163.875-.105.363-.14.743-.102 1.118.004.081.007.158.007.226-.006.75.056 1.499.183 2.238.147.856.407 1.689.771 2.477a7.458 7.458 0 004.744 4.136c.38.102.77.155 1.163.158l.113-.002a5.533 5.533 0 002.753-.995 4.577 4.577 0 001.453-1.344 3.116 3.116 0 00.308-2.703l-.038-.102c-.01-.029-.023-.057-.033-.086.016-.047.035-.093.056-.138.024-.059.048-.117.069-.176a3.664 3.664 0 00-.993-3.671 12.154 12.154 0 00-1.197-1.11 10.416 10.416 0 01-1.062-.984 1.882 1.882 0 00-.456-.404 1.585 1.585 0 00-.58-.2 2.391 2.391 0 00-.365-.027z"/>
      <path fill="#01002B" d="M43.002 120.592c.061.275.173.537.33.771.177.24.375.464.592.668.214.206.438.401.672.584.127.103.254.206.385.305.15.114.3.278.503.197a.222.222 0 00.142-.17c.019-.22-.13-.303-.286-.42l-.372-.282c-.232-.176-.46-.358-.69-.537a5.993 5.993 0 01-.612-.54c-.198-.203-.414-.393-.595-.613a.04.04 0 00-.069.037z"/>
    </g>
    <g fill-rule="nonzero">
      <path fill="url(#n)" d="M.468 20.05a.688.688 0 01-.069-1.099c3.605-3.046 19.12-15.62 31.56-17.386C45.962-.423 66.756.254 74.984 7.349c.181.158.265.4.221.636-.598 3.302-4.896 27.186-5.03 32.77a95.58 95.58 0 001.034 14.31c.183 1.291 7.883 11.955 9.718 14.48.218.302.158.722-.137.948-2.922 2.262-17.466 13.109-29.71 14.847-12.345 1.753-33.888-4.117-37.982-5.281a.687.687 0 01-.465-.872l5.264-16.41c.032-.099.04-.204.026-.308-.174-1.203-1.32-9.018-2.408-13.455C14.39 44.434 6.026 23.764.468 20.05z" transform="translate(33 44)"/>
      <path fill="#01002B" d="M79.206 46.276c12.524 0 22.391 2.175 27.242 5.984-1.014 5.62-4.823 27.035-4.954 32.455a93.42 93.42 0 001.051 14.586c.074.523.247 1.734 9.453 14.447-4.026 3.032-17.156 12.367-28.154 13.929-1.628.216-3.27.319-4.912.307-11.32 0-26.543-3.93-31.385-5.264l4.95-15.43c.11-.342.14-.705.089-1.061-.215-1.49-1.344-9.151-2.44-13.616-1.08-4.403-8.706-23.617-14.733-29.152 4.497-3.694 18.623-14.648 29.782-16.232 4.642-.64 9.324-.959 14.01-.953h.001m-.002-1.68c-4.765-.005-9.525.318-14.245.969-12.44 1.766-27.955 14.34-31.56 17.386a.688.688 0 00.069 1.1c5.558 3.712 13.923 24.383 15.047 28.963 1.089 4.437 2.234 12.252 2.408 13.455a.687.687 0 01-.026.309l-5.264 16.41a.687.687 0 00.466.871c3.568 1.015 20.396 5.605 32.833 5.605a36.996 36.996 0 005.148-.324c12.244-1.738 26.788-12.585 29.71-14.846a.687.687 0 00.137-.948c-1.835-2.526-9.535-13.19-9.718-14.48a95.593 95.593 0 01-1.035-14.31c.135-5.585 4.432-29.469 5.03-32.77a.679.679 0 00-.22-.637c-5.705-4.92-17.446-6.753-28.78-6.753z"/>
    </g>
    <g fill-rule="nonzero">
      <path fill="url(#o)" d="M9.893.796s36.553 25.1 49.873 38.164l2.929 3.074-12.708 5.293S10.64 10.544.38 8.511L9.893.796z" transform="translate(33 55)"/>
      <path fill="#01002B" d="M42.974 57.894c6.029 4.179 36.765 25.652 48.595 37.246l1.223 1.283-9.454 3.937c-2.567-2.377-10.998-10.123-20.219-17.959-4.878-4.146-18.468-15.696-26.383-19.447l6.238-5.06m-.08-2.098l-9.513 7.715c10.26 2.033 49.606 38.816 49.606 38.816l12.708-5.293-2.929-3.074c-13.32-13.064-49.873-38.164-49.873-38.164z"/>
    </g>
    <g fill-rule="nonzero">
      <path fill="url(#p)" d="M40.23.544S11.724 34.999 2.566 51.254L.607 55.023l13.68 1.548S44.233 6.818 51.037 5.428c0 0-3.446-2.263-4.87-2.916C44.83 1.9 40.232.544 40.232.544z" transform="translate(57 46)"/>
      <path fill="#01002B" d="M97.818 48.475c1.557.474 3.859 1.203 4.65 1.565.538.247 1.476.797 2.392 1.361-3.074 2.586-8.492 9.068-19.152 25.192-6.964 10.536-13.406 21.066-15.302 24.186l-10.18-1.152.817-1.573c8.194-14.528 32.326-44.156 36.775-49.58m-.587-1.93S68.723 81 59.565 97.254l-1.958 3.768 13.68 1.548s29.946-49.752 36.75-51.142c0 0-3.446-2.263-4.87-2.916-1.336-.612-5.936-1.968-5.936-1.968z"/>
    </g>
    <g fill-rule="nonzero">
      <path fill="url(#q)" d="M.303 8.466S32.64 21.496 54.133.612l1.06 10.456S36.05 29.072 1.958 18.626L.303 8.466z" transform="translate(49 88)"/>
      <path fill="#01002B" d="M101.795 92.074l.637 6.29a39.43 39.43 0 01-7.494 4.669 53.213 53.213 0 01-23.296 5.172 68.564 68.564 0 01-19.195-2.887l-1.032-6.338a69.615 69.615 0 0020.397 3.182c11.864 0 21.932-3.39 29.983-10.088m1.337-3.462c-9.561 9.291-21.268 11.87-31.32 11.87a66.698 66.698 0 01-22.509-4.016l1.655 10.16a70.4 70.4 0 0020.684 3.26c21.048 0 32.55-10.818 32.55-10.818l-1.06-10.456z"/>
    </g>
    <path fill="#000" fill-rule="nonzero" d="M79.989 44.565c-.035.053-.072.107-.106.163-1.088 1.708 6.318 3.312 5.032 4.872-3.752 4.545-7.278 9.34-11.374 13.585a58.612 58.612 0 01-13.375 10.52C54.961 76.627 49 77.954 43.937 81.128c-3.15-7.111-7.315-14.961-10.537-17.11a.691.691 0 01-.069-1.103c3.607-3.045 19.122-15.619 31.561-17.385a103.622 103.622 0 0115.097-.965z" opacity=".2"/>
    <g fill-rule="nonzero">
      <path fill="url(#r)" d="M10.945 6.97a6.625 6.625 0 01-3.101 4.635c-.305.176-.634.31-.976.395a4.672 4.672 0 01-2.467-.235 3.8 3.8 0 01-1.44-.744 2.29 2.29 0 01-.723-1.845c.025-.15.027-.302.008-.452a1.68 1.68 0 00-.34-.57 2.909 2.909 0 01.074-2.936c.471-.915 1.182-1.691 1.646-2.61.047-.11.11-.21.188-.3a.77.77 0 01.246-.16 4.686 4.686 0 011.87-.105c1.277-.008 2.446-.656 3.718-.702.275-.01.543-.05.703.181.155.321.262.663.318 1.016.185.674.31 1.364.373 2.061a9.05 9.05 0 01-.097 2.372z" transform="translate(110 103)"/>
      <path fill="#01002B" d="M119.896 104.332a.497.497 0 01.455.19c.155.321.262.663.318 1.016.185.674.31 1.364.373 2.061.072.791.04 1.589-.097 2.372a6.625 6.625 0 01-3.101 4.634c-.306.176-.634.31-.976.395-.242.055-.49.083-.738.082a5.74 5.74 0 01-1.729-.317 3.8 3.8 0 01-1.44-.744 2.29 2.29 0 01-.723-1.845c.024-.15.027-.302.008-.452a1.678 1.678 0 00-.34-.57 2.908 2.908 0 01.074-2.936c.471-.915 1.182-1.691 1.646-2.61.047-.11.11-.21.188-.3a.773.773 0 01.245-.16c.265-.106.55-.156.835-.147.334 0 .678.042 1.012.042h.023c1.278-.008 2.447-.656 3.719-.702.084-.003.168-.01.248-.01m0-.84c-.066 0-.135.004-.204.007l-.075.003a8.53 8.53 0 00-1.994.38c-.55.18-1.121.289-1.699.322h-.001c-.168 0-.32-.01-.471-.02a9.13 9.13 0 00-.558-.022c-.402-.01-.8.065-1.172.218-.19.08-.363.195-.509.341a1.814 1.814 0 00-.324.485c-.232.434-.495.85-.785 1.248-.321.44-.612.902-.871 1.38a3.664 3.664 0 00-.014 3.804c.036.051.074.101.112.152.03.04.064.077.09.119-.002.03-.007.06-.01.091l-.01.11a3.116 3.116 0 00.993 2.531 4.578 4.578 0 001.75.925c.64.223 1.31.343 1.986.357.313 0 .625-.034.93-.104.419-.103.82-.265 1.194-.48a7.458 7.458 0 003.518-5.219c.15-.855.185-1.727.107-2.592a12.59 12.59 0 00-.4-2.21c-.017-.065-.034-.14-.051-.22a2.943 2.943 0 00-.387-1.053 1.307 1.307 0 00-1.145-.552z"/>
      <path fill="#01002B" d="M111.903 111.89c.205-.043.393-.146.54-.295.137-.112.276-.227.404-.349.267-.256.517-.528.75-.816a4.93 4.93 0 00.764-1.36c.077-.16.127-.33.148-.506a.101.101 0 00-.194-.05c-.07.148-.089.321-.154.474-.07.155-.154.304-.252.443a5.826 5.826 0 01-.642.747c-.231.238-.483.455-.728.68-.131.12-.253.252-.382.375-.15.118-.286.25-.409.394a.167.167 0 00.155.262z"/>
    </g>
    <path fill="url(#s)" d="M42.1 18.125c-.185.035-.36.113-.51.227C37.268 6.558 27.343-.953 17.718 1.043 8.106 3.037 1.991 13.85 2.697 26.367a1.191 1.191 0 00-.424.02c-1.375.32-1.9 3.106-1.172 6.221.705 3.022 3.027 5.976 4.42 5.858 4.62 10.802 14.044 17.5 23.196 15.602 9.15-1.898 15.131-11.789 15.076-23.534l.008-.001c1.389-.253 2.422-4.018 1.85-7.165-.571-3.148-2.161-5.495-3.55-5.243z" transform="translate(45 8)"/>
    <path fill="url(#t)" d="M17.793 1.03l-.075.013C8.106 3.037 1.991 13.85 2.697 26.367a1.191 1.191 0 00-.424.02c-1.375.32-1.9 3.106-1.172 6.221.705 3.022 3.027 5.976 4.42 5.858 4.62 10.802 14.044 17.5 23.196 15.602l.074-.018L17.793 1.03z" transform="translate(45 8)"/>
    <path fill="#EEBDAA" d="M82.887 30.688c-2.18-1.693-5.362-1.171-7.88-.77l-15.31 3.175c-2.47.634-5.597 1.42-6.924 3.842-1.103 2.012-.638 5.428.095 7.496.723 2.04 2.598 4.512 4.976 4.417a5.716 5.716 0 001.43-.287 17.322 17.322 0 004.262-1.81c1.23-.79 2.309-1.796 3.583-2.517.48-.271.988-.485 1.516-.639.532-.154 1.082-.249 1.624-.359l.1-.02a7.571 7.571 0 011.612-.164 7.1 7.1 0 01.657.04c1.456.154 2.847.648 4.288.883 1.539.196 3.096.184 4.631-.035.487-.04.966-.142 1.426-.304 2.22-.86 2.957-3.872 2.809-6.032-.15-2.189-1.083-5.508-2.895-6.916z"/>
    <path fill="url(#u)" d="M15.37 2.501l2.453 11.821c-.4.08-.8.161-1.19.272a7.158 7.158 0 00-1.514.64c-1.276.72-2.354 1.725-3.583 2.516a17.357 17.357 0 01-4.264 1.81 5.71 5.71 0 01-1.427.289c-2.38.093-4.253-2.378-4.978-4.42C.136 13.361-.33 9.946.773 7.934 2.1 5.513 5.228 4.727 7.697 4.093l7.674-1.592z" transform="translate(52 29)"/>
    <path fill="#01002B" fill-rule="nonzero" d="M74.171 33.352c.241.125.5.215.766.267.268.068.537.13.805.2.534.137 1.077.269 1.6.446l.14-.633c-.27-.089-.542-.171-.81-.266a5.82 5.82 0 00-.791-.234 11.567 11.567 0 00-1.842-.118l.109.616a5.05 5.05 0 013.398.031.332.332 0 00.394-.25.338.338 0 00-.25-.394 5.873 5.873 0 00-3.735.011.316.316 0 00.11.617l.89.06c.28.008.559.035.834.083.53.113 1.021.38 1.553.477.41.075.552-.554.14-.633-.542-.104-1.079-.24-1.621-.345-.272-.053-.544-.107-.816-.152a2.563 2.563 0 00-.815-.047.141.141 0 00-.059.264zm-11.938 2.373a2.82 2.82 0 01-.623.52c-.227.158-.456.312-.683.471-.45.317-.913.631-1.339.982l-.355-.543c.222-.179.447-.351.665-.535.207-.181.427-.348.657-.498.54-.298 1.102-.552 1.683-.76l.115.615a5.05 5.05 0 00-3.169 1.227.332.332 0 01-.457-.095.338.338 0 01.096-.457 5.873 5.873 0 013.498-1.306.316.316 0 01.115.616l-.812.37c-.26.106-.51.23-.752.372-.455.293-.82.716-1.284.994-.357.215-.712-.324-.355-.543.47-.289.926-.605 1.396-.895.235-.145.47-.291.71-.43.23-.15.481-.261.746-.331a.141.141 0 01.148.226z"/>
    <g fill="#01002B" fill-rule="nonzero" transform="translate(59 37)">
      <ellipse cx="2.675" cy="3.422" rx="2.755" ry="1" transform="rotate(-56.718 2.675 3.422)"/>
      <ellipse cx="2.675" cy="3.421" rx="1" ry="2.755" transform="rotate(-56.718 2.675 3.421)"/>
    </g>
    <g fill="#01002B" fill-rule="nonzero" transform="rotate(-56.718 70.9827 -47.168)">
      <ellipse cx="2.988" cy="3.453" rx="2.755" ry="1"/>
      <ellipse cx="2.988" cy="3.453" rx="1" ry="2.755"/>
    </g>
    <path fill="#B9C5C9" fill-rule="nonzero" d="M46.08 17.657a18.536 18.536 0 00-6.653 4.727c-1.221 1.413-2.935 3.88-2.01 5.833.943 1.989 4.26 2.21 6.13 2.222a32.134 32.134 0 009.648-1.926c6.822-2.124 13.738-3.941 20.217-7.022 4.805-2.286 11.265-5.471 13.382-10.752.731-1.823.81-4.151-.99-5.375-2.145-1.46-5.71-.68-7.98.068-.32.106-.291.667.085.626 2.369-.256 7.952-1.622 7.404 2.61-.322 2.482-2.507 4.412-4.37 5.825-5.255 3.986-11.575 6.648-17.753 8.823-2.971 1.046-5.998 1.919-8.982 2.925a56.527 56.527 0 01-8.49 2.56c-1.47.248-4.587.731-5.892-.198a2.884 2.884 0 01-1.032-3.467 9.44 9.44 0 011.291-2.093c1.684-2.093 3.987-3.625 6.074-5.283.063-.05-.018-.13-.079-.103z"/>
    <path fill="#B9C5C9" fill-rule="nonzero" d="M50.158 10.753a21.479 21.479 0 00-7.878 1.412c-1.51.626-3.767 1.802-4.211 3.558-.551 2.179 2.23 3.872 3.817 4.726a26.845 26.845 0 008.499 2.468c7.009 1.136 14.005 2.544 21.118 2.825 5.473.217 13.12.486 17.623-3.262 1.503-1.252 2.607-3.095 1.552-4.987-1.219-2.187-4.452-2.89-6.686-3.347a.149.149 0 00-.079.287c2.7.835 8.638 2.492 5.538 6.434-1.594 2.027-4.41 2.768-6.808 3.217-7.19 1.346-14.794.638-21.972-.412-3.01-.44-6.003-.983-9.016-1.407a34.47 34.47 0 01-8.219-1.835c-1.29-.522-3.162-1.31-3.98-2.463-1.923-2.712.628-4.316 2.694-5.278a28.01 28.01 0 018.016-1.876c.034-.005.026-.06-.008-.06z"/>
    <g fill-rule="nonzero">
      <path fill="#FCC000" d="M86.549 6.278l.453 3.034 2.757 1.346-2.745 1.369-.429 3.038-2.151-2.188-3.021.531 1.416-2.721-1.439-2.71 3.026.506z"/>
      <path fill="#01002B" d="M86.549 6.278l.453 3.034 2.758 1.346-2.745 1.37-.429 3.037-2.15-2.188-3.022.531 1.416-2.721-1.439-2.71 3.026.506 2.133-2.205m0-.606a.606.606 0 00-.436.185l-1.91 1.976-2.714-.453a.606.606 0 00-.635.881l1.29 2.429-1.27 2.439a.606.606 0 00.643.876l2.708-.476 1.927 1.96a.606.606 0 001.032-.34l.384-2.722 2.46-1.227a.606.606 0 00-.004-1.086l-2.47-1.207-.407-2.72a.606.606 0 00-.6-.515z"/>
    </g>
    <g fill-rule="nonzero">
      <path fill="#FCC000" d="M72.833.961l1.246.518 1.133-.733-.108 1.346 1.047.851-1.312.313-.487 1.259-.703-1.151-1.348-.074.878-1.025z"/>
      <path fill="#01002B" d="M75.212.746l-.108 1.346 1.047.851-1.312.313-.487 1.26-.703-1.152-1.348-.074.878-1.025-.346-1.304 1.246.518 1.133-.733m0-.266a.266.266 0 00-.144.043l-1.016.656-1.117-.464a.266.266 0 00-.36.314l.31 1.17-.786.918a.266.266 0 00.188.44l1.208.065.63 1.032c.048.08.135.128.227.128l.024-.001a.266.266 0 00.225-.17l.436-1.128 1.176-.28a.266.266 0 00.107-.466l-.939-.764.097-1.205a.266.266 0 00-.266-.288z"/>
    </g>
    <g fill-rule="nonzero">
      <path fill="#FCC000" d="M46.375 9.962l.794.331.723-.467-.069.857.667.543-.837.199-.309.803-.449-.734-.859-.047.56-.653z"/>
      <path fill="#01002B" d="M47.892 9.826l-.07.857.668.543-.837.2-.31.802-.448-.734-.859-.047.56-.653-.221-.832.794.33.723-.466m0-.17a.17.17 0 00-.093.027l-.647.419-.712-.296a.17.17 0 00-.23.2l.199.745-.502.586a.17.17 0 00.12.28l.77.042.402.657a.17.17 0 00.145.082l.015-.001a.17.17 0 00.143-.108l.278-.719.75-.179a.17.17 0 00.067-.297L48 10.608l.062-.769a.17.17 0 00-.17-.183z"/>
    </g>
    <g fill-rule="nonzero">
      <path fill="#FCC000" d="M59.076 19.455l2.042 2.277 3.033-.391-1.535 2.645 1.309 2.764-2.99-.642-2.224 2.099-.313-3.042-2.684-1.467 2.797-1.238z"/>
      <path fill="#01002B" d="M59.076 19.455l2.042 2.277 3.033-.39-1.535 2.644 1.309 2.764-2.99-.642-2.224 2.099-.313-3.042-2.684-1.467 2.797-1.238.565-3.005m0-.604c-.29 0-.54.207-.593.492l-.507 2.694-2.506 1.109a.604.604 0 00-.045 1.082l2.405 1.314.28 2.727a.604.604 0 001.015.377l1.995-1.881 2.68.575a.604.604 0 00.672-.848l-1.174-2.477 1.375-2.37a.604.604 0 00-.6-.903l-2.718.35-1.83-2.04a.604.604 0 00-.449-.2z"/>
    </g>
    <g fill-rule="nonzero">
      <path fill="#FCC000" d="M39.67 27.145l.698 1.155 1.347.079-.883 1.021.341 1.306-1.244-.524-1.137.728.114-1.345-1.043-.857 1.315-.307z"/>
      <path fill="#01002B" d="M39.67 27.145l.698 1.155 1.347.08-.883 1.02.34 1.306-1.243-.524-1.137.728.114-1.345-1.043-.857 1.315-.307.492-1.256m0-.267l-.023.002a.266.266 0 00-.226.169l-.44 1.126-1.178.275a.266.266 0 00-.109.465l.935.768-.102 1.205a.266.266 0 00.409.247l1.019-.652 1.114.47a.266.266 0 00.362-.313l-.306-1.17.792-.915a.266.266 0 00-.186-.44l-1.208-.072-.625-1.035a.266.266 0 00-.228-.13z"/>
    </g>
    <path fill="#B9C5C9" fill-rule="nonzero" d="M94.154 2.94a1.499 1.499 0 110-2.997 1.499 1.499 0 010 2.997zm0-2.524a1.025 1.025 0 100 2.05 1.025 1.025 0 000-2.05zM32.299 21.788a2.623 2.623 0 11.002-5.245 2.623 2.623 0 01-.002 5.245zm.007-4.41zm59.286 7.771a.733.733 0 11.005-1.465.733.733 0 01-.005 1.465zm.002-1.236z"/>
    <path d="M-65-14h288v224H-65z"/>
  </g>
</svg>
