<svg width="320" height="260" viewBox="0 0 320 260" fill="none" xmlns="http://www.w3.org/2000/svg">
    <ellipse cx="159.909" cy="234.409" rx="133.5" ry="8" fill="#131313" fill-opacity="0.2"/>
    <path d="M179.51 221C127.305 221 84.9851 178.467 84.9851 126C84.9852 73.5329 127.305 31.0001 179.51 31C231.715 30.9999 274.035 73.5327 274.035 126C274.032 178.466 231.714 220.997 179.51 221Z" fill="#575770"/>
    <path d="M178.583 211.64C132.008 211.64 94.2522 173.507 94.2523 126.468C94.2523 79.4285 132.009 41.2956 178.583 41.2955C225.158 41.2955 262.914 79.4283 262.915 126.468C262.912 173.506 225.157 211.638 178.583 211.64Z" fill="white"/>
    <path fill-rule="evenodd" clip-rule="evenodd" d="M238.885 125.523H179.035V65.3718C212.089 65.3718 238.885 92.3021 238.885 125.522C238.885 125.522 238.885 125.523 238.885 125.523Z" fill="#EB9300" fill-opacity="0.201643"/>
    <ellipse cx="179.51" cy="53.4631" rx="5.56029" ry="5.61576" fill="#EB9300"/>
    <ellipse cx="249.94" cy="125.532" rx="5.56029" ry="5.61576" fill="#EB9300"/>
    <ellipse cx="107.226" cy="125.532" rx="5.56029" ry="5.61576" fill="#575770"/>
    <ellipse cx="179.51" cy="197.601" rx="5.56029" ry="5.61576" fill="#575770"/>
    <g opacity="0.498753">
        <ellipse cx="201.729" cy="58.1075" rx="2.79021" ry="2.77459" transform="rotate(120 201.729 58.1075)" fill="#EB9300"/>
        <ellipse cx="220.803" cy="68.3514" rx="2.78132" ry="2.7835" transform="rotate(137 220.803 68.3514)" fill="#EB9300"/>
        <ellipse cx="236.321" cy="82.9133" rx="2.77278" ry="2.79201" transform="rotate(154 236.321 82.9133)" fill="#EB9300"/>
        <ellipse cx="245.956" cy="101.454" rx="2.76736" ry="2.79738" transform="rotate(172 245.956 101.454)" fill="#EB9300"/>
    </g>
    <g opacity="0.498753">
        <ellipse rx="2.80097" ry="2.78711" transform="matrix(-0.5 -0.866025 -0.866025 0.5 200.825 191.985)" fill="#575770"/>
        <ellipse rx="2.79308" ry="2.79502" transform="matrix(-0.731354 -0.681998 -0.681998 0.731354 219.991 182.663)" fill="#575770"/>
        <ellipse rx="2.7855" ry="2.80257" transform="matrix(-0.898794 -0.438371 -0.438371 0.898794 235.585 168.05)" fill="#575770"/>
        <ellipse rx="2.78069" ry="2.80735" transform="matrix(-0.990268 -0.139173 -0.139173 0.990268 246.221 149.443)" fill="#575770"/>
    </g>
    <g opacity="0.498753">
        <ellipse cx="156.342" cy="191.985" rx="2.80097" ry="2.78711" transform="rotate(-60 156.342 191.985)" fill="#575770"/>
        <ellipse cx="137.176" cy="182.663" rx="2.79308" ry="2.79502" transform="rotate(-43 137.176 182.663)" fill="#575770"/>
        <ellipse cx="121.582" cy="168.05" rx="2.7855" ry="2.80257" transform="rotate(-26 121.582 168.05)" fill="#575770"/>
        <ellipse cx="110.946" cy="149.443" rx="2.78069" ry="2.80735" transform="rotate(-8 110.946 149.443)" fill="#575770"/>
    </g>
    <g opacity="0.498753">
        <ellipse rx="2.80097" ry="2.78711" transform="matrix(0.5 0.866025 0.866025 -0.5 156.342 58.1429)" fill="#575770"/>
        <ellipse rx="2.79308" ry="2.79502" transform="matrix(0.731354 0.681998 0.681998 -0.731354 137.176 67.4649)" fill="#575770"/>
        <ellipse rx="2.7855" ry="2.80257" transform="matrix(0.898794 0.438371 0.438371 -0.898794 121.582 82.0782)" fill="#575770"/>
        <ellipse rx="2.78069" ry="2.80735" transform="matrix(0.990268 0.139173 0.139173 -0.990268 110.946 100.685)" fill="#575770"/>
    </g>
    <path opacity="0.345512" fill-rule="evenodd" clip-rule="evenodd" d="M229.578 194.266C177.373 194.266 135.053 151.733 135.053 99.2663C135.053 73.248 145.46 49.6727 162.319 32.5156C118.182 40.5263 84.7027 79.3337 84.7027 126C84.7027 178.467 127.023 221 179.228 221C205.544 221 229.349 210.192 246.487 192.751C241 193.746 235.349 194.266 229.578 194.266Z" fill="black" fill-opacity="0.239862"/>
    <path fill-rule="evenodd" clip-rule="evenodd" d="M236.496 123.136C238.078 123.136 239.36 124.418 239.36 126C239.36 127.582 238.078 128.864 236.496 128.864H188.074C186.493 128.864 185.21 127.582 185.21 126C185.21 124.418 186.493 123.136 188.074 123.136L236.496 123.136Z" fill="#575770"/>
    <ellipse cx="179.985" cy="126.477" rx="9.5" ry="9.54774" fill="#575770"/>
    <ellipse cx="179.985" cy="126.477" rx="4.75" ry="4.77387" fill="white"/>
    <path fill-rule="evenodd" clip-rule="evenodd" d="M275.633 33.2413L290.882 39.4021C291.536 39.6663 291.854 40.4043 291.593 41.0505C291.5 41.2795 291.342 41.4761 291.137 41.6157L276.556 51.5524C275.978 51.9463 275.835 52.7328 276.237 53.3092C276.365 53.4928 276.54 53.6401 276.743 53.7361L282.285 56.3561C282.922 56.6575 283.197 57.4123 282.898 58.042C282.779 58.2936 282.579 58.4982 282.329 58.6241L253.176 73.3111C252.55 73.6262 251.781 73.3768 251.458 72.7539C251.211 72.2762 251.292 71.6982 251.661 71.3108L261.379 61.1196C261.86 60.6144 261.835 59.8143 261.321 59.3325C261.205 59.2236 261.07 59.137 260.922 59.0772L255.323 56.8153C254.669 56.5511 254.351 55.8131 254.612 55.1669C254.668 55.0294 254.747 54.9029 254.847 54.7932L274.212 33.5593C274.569 33.1676 275.136 33.0406 275.633 33.2413Z" fill="#EB9300"/>
    <path fill-rule="evenodd" clip-rule="evenodd" d="M243.518 13.0516H251.741C252.094 13.0516 252.379 13.3341 252.379 13.6826C252.379 13.8061 252.343 13.9269 252.274 14.0301L247.375 21.3677C247.181 21.6585 247.262 22.0499 247.557 22.2418C247.651 22.3029 247.759 22.3385 247.871 22.345L250.931 22.5216C251.283 22.5419 251.552 22.8404 251.531 23.1883C251.523 23.3272 251.469 23.4596 251.376 23.5648L240.612 35.834C240.381 36.0973 239.978 36.1257 239.711 35.8974C239.507 35.7224 239.437 35.4391 239.535 35.1904L242.131 28.6457C242.26 28.3213 242.098 27.9552 241.77 27.828C241.696 27.7992 241.617 27.7845 241.537 27.7845H238.518C238.165 27.7845 237.879 27.502 237.879 27.1535C237.879 27.0794 237.893 27.0058 237.918 26.9362L242.918 13.4653C243.011 13.2168 243.25 13.0516 243.518 13.0516Z" fill="#EB9300"/>
    <path d="M108.664 223.956L110.794 232.477C110.873 232.794 111.156 233.018 111.484 233.023C114.888 233.067 132.836 233.299 133.861 233.299C134.994 233.299 134.708 231.125 133.295 230.467C129.791 228.837 121.056 226.084 119.166 224.194C117.05 222.078 108.664 223.956 108.664 223.956Z" fill="#575770"/>
    <path d="M119.056 223.178C119.054 223.531 118.98 223.879 118.838 224.201C118.389 225.059 117.215 225.141 116.248 225.11L109.554 224.894C109.414 224.903 109.274 224.871 109.153 224.801C109.062 224.724 108.993 224.626 108.951 224.515C107.233 220.885 106.62 216.823 105.045 213.129C104.169 211.076 103 209.146 102.293 207.03C101.558 204.455 101.173 201.793 101.147 199.115C102.401 199.113 103.653 199.036 104.898 198.885C108.462 198.525 112.149 198.125 115.245 196.325C116.512 195.589 117.841 194.389 119.355 194.243C119.554 195.13 119.611 196.044 119.526 196.95C119.562 197.907 119.591 198.863 119.615 199.82C119.663 201.69 119.688 203.559 119.69 205.43C119.696 209.214 119.612 212.997 119.438 216.779C119.339 218.913 119.212 221.047 119.056 223.178Z" fill="#575770"/>
    <path d="M66.2956 224.672L64.1654 233.193C64.0863 233.511 63.8031 233.735 63.4759 233.739C60.0719 233.783 42.1232 234.015 41.0985 234.015C39.966 234.015 40.2514 231.842 41.6647 231.184C45.1687 229.553 53.9036 226.801 55.7939 224.911C57.9097 222.795 66.2956 224.672 66.2956 224.672Z" fill="#464558"/>
    <rect x="105.598" y="94.6317" width="19.5169" height="3.89425" transform="rotate(-63.4333 105.598 94.6317)" fill="black"/>
    <path d="M114.345 77.256L117.736 78.951H115.674L114.345 77.256Z" fill="#4D4D4D"/>
    <path d="M113.515 78.915L115.669 78.961L116.906 80.611H114.844L113.515 78.915Z" fill="#4D4D4D"/>
    <path d="M112.691 80.563L114.844 80.609L116.082 82.259H114.019L112.691 80.563Z" fill="#4D4D4D"/>
    <path d="M111.86 82.223L114.014 82.269L115.251 83.919H113.189L111.86 82.223Z" fill="#4D4D4D"/>
    <path d="M111.006 83.931L113.16 83.976L114.397 85.626H112.335L111.006 83.931Z" fill="#4D4D4D"/>
    <path d="M110.176 85.59L112.33 85.636L113.567 87.286H111.505L110.176 85.59Z" fill="#4D4D4D"/>
    <path d="M109.352 87.238L111.506 87.284L112.743 88.934H110.681L109.352 87.238Z" fill="#4D4D4D"/>
    <path d="M108.522 88.8979L110.675 88.9439L111.913 90.5939H109.85L108.522 88.8979Z" fill="#4D4D4D"/>
    <path d="M107.706 90.528L109.86 90.574L111.097 92.224H109.035L107.706 90.528Z" fill="#4D4D4D"/>
    <path d="M106.876 92.188L109.03 92.234L110.267 93.884H108.205L106.876 92.188Z" fill="#4D4D4D"/>
    <path d="M106.052 93.8359L108.206 93.8819L109.443 95.5319H107.381L106.052 93.8359Z" fill="#4D4D4D"/>
    <rect x="114.067" y="75.4767" width="5.88095" height="2.31037" rx="0.68027" transform="rotate(26.5739 114.067 75.4767)" fill="#4D4D4D"/>
    <rect x="54.4668" y="78.9172" width="3.89425" height="19.5169" transform="rotate(-26.5667 54.4668 78.9172)" fill="black"/>
    <path d="M57.931 77.256L54.54 78.951H56.602L57.931 77.256Z" fill="#4D4D4D"/>
    <path d="M58.761 78.9149L56.607 78.9609L55.37 80.6109H57.432L58.761 78.9149Z" fill="#4D4D4D"/>
    <path d="M59.586 80.563L57.432 80.609L56.195 82.259H58.257L59.586 80.563Z" fill="#4D4D4D"/>
    <path d="M60.416 82.223L58.262 82.269L57.025 83.919H59.087L60.416 82.223Z" fill="#4D4D4D"/>
    <path d="M61.27 83.931L59.116 83.976L57.879 85.626H59.941L61.27 83.931Z" fill="#4D4D4D"/>
    <path d="M62.1 85.59L59.946 85.636L58.709 87.286H60.771L62.1 85.59Z" fill="#4D4D4D"/>
    <path d="M62.924 87.2379L60.771 87.2839L59.533 88.9339H61.595L62.924 87.2379Z" fill="#4D4D4D"/>
    <path d="M63.755 88.8979L61.601 88.9439L60.364 90.5939H62.426L63.755 88.8979Z" fill="#4D4D4D"/>
    <path d="M64.57 90.528L62.416 90.574L61.179 92.224H63.241L64.57 90.528Z" fill="#4D4D4D"/>
    <path d="M65.4 92.188L63.246 92.234L62.009 93.884H64.071L65.4 92.188Z" fill="#4D4D4D"/>
    <path d="M66.224 93.8359L64.071 93.8819L62.833 95.5319H64.896L66.224 93.8359Z" fill="#4D4D4D"/>
    <rect x="59.243" y="77.543" width="5.88095" height="2.31037" rx="0.68027" transform="rotate(153.426 59.243 77.543)" fill="#4D4D4D"/>
    <path d="M128.599 131.388C129.689 135.39 130.152 139.537 129.97 143.681C129.555 149.91 129.285 149.266 129.285 149.266L121.574 149.038C121.15 149.026 120.789 148.73 120.693 148.317C119.982 145.24 117.129 133.028 116.494 132.302C115.767 131.472 128.599 131.388 128.599 131.388Z" fill="#575770"/>
    <path d="M123.623 94.9348C123.623 94.9348 130.662 120.744 130.642 123.402C130.621 126.06 129.853 130.545 127.361 132.725C124.869 134.905 118.35 136.504 114.716 132.351C111.082 128.199 106.244 113.955 106.244 113.955L123.623 94.9348Z" fill="black"/>
    <path d="M121.184 181.512C122.204 184.559 122.74 187.747 122.771 190.961C122.491 194.132 121.257 197.145 119.231 199.602C118.09 201.192 116.535 202.441 114.736 203.213C112.892 203.882 110.907 204.066 108.971 203.748C104.926 203.188 100.842 201.969 98.3951 198.632C96.9985 196.514 96.0755 194.119 95.6893 191.612C93.9151 183.002 93.6502 174.109 92.8984 165.399C92.8363 164.952 92.7974 164.501 92.7819 164.049L100.674 161.836C102.993 161.14 105.351 160.583 107.736 160.169C108.943 159.975 110.163 159.87 111.385 159.856C112.521 159.746 113.668 159.858 114.762 160.184C115.536 160.544 115.602 161.529 115.798 162.231C116.14 163.455 116.482 164.679 116.824 165.903L118.876 173.249L121.184 181.512Z" fill="black"/>
    <path d="M55.6087 224.488C55.6127 224.84 55.6885 225.188 55.8315 225.51C56.2844 226.366 57.4588 226.442 58.4262 226.407L65.1192 226.16C65.2591 226.168 65.3983 226.135 65.5196 226.065C65.6096 225.987 65.6785 225.889 65.72 225.778C67.4214 222.14 68.0145 218.075 69.5727 214.373C70.4386 212.316 71.5986 210.381 72.2962 208.261C73.0186 205.683 73.3915 203.019 73.405 200.341C72.1512 200.345 70.8983 200.274 69.6529 200.129C66.0877 199.785 62.3989 199.403 59.2941 197.617C58.0241 196.887 56.6888 195.694 55.1749 195.554C54.9799 196.443 54.9264 197.357 55.0162 198.262C54.9851 199.219 54.9597 200.176 54.9401 201.133C54.9018 203.003 54.8855 204.872 54.8913 206.742C54.903 210.527 55.0049 214.309 55.197 218.09C55.3055 220.225 55.4428 222.357 55.6087 224.488Z" fill="#464558"/>
    <path d="M54.7388 181.664C53.8211 184.723 53.3644 187.901 53.3837 191.095C53.6855 194.246 54.8829 197.245 56.8344 199.737C57.9058 201.309 59.3838 202.561 61.1108 203.359C62.8355 204.032 64.7106 204.224 66.5358 203.914C70.3284 203.369 74.1487 202.166 76.3996 198.843C77.6913 196.704 78.5228 194.32 78.8409 191.842C80.3839 183.25 80.5044 174.37 81.0852 165.675C81.0932 165.555 81.2184 164.341 81.1752 164.328L73.7274 162.089C71.5447 161.387 69.3202 160.823 67.067 160.399C65.9328 160.201 64.7849 160.092 63.6337 160.073C62.5672 159.959 61.4887 160.067 60.4657 160.389C59.7428 160.746 59.6951 161.729 59.521 162.429C59.2174 163.65 58.9138 164.872 58.6101 166.093L56.7883 173.421L54.7388 181.664Z" fill="black"/>
    <path d="M43.7217 132.616C42.349 136.53 41.592 140.633 41.4777 144.779C41.4474 151.022 41.7626 150.399 41.7626 150.399L49.4702 150.722C49.8932 150.74 50.275 150.47 50.3996 150.066C51.3289 147.047 55.046 135.069 55.731 134.391C56.5151 133.614 43.7217 132.616 43.7217 132.616Z" fill="#464558"/>
    <path d="M48.2348 96.6445C48.2348 96.6445 40.6413 122.296 40.6048 124.954C40.5684 127.612 41.2398 132.112 43.6838 134.345C46.1279 136.579 52.6118 138.318 56.3341 134.244C60.0564 130.171 65.2003 116.034 65.2003 116.034L48.2348 96.6445Z" fill="black"/>
    <path d="M42.3784 155.982C42.9075 157.858 44.2359 159.406 46.0099 160.213C46.334 160.352 46.6758 160.445 47.0255 160.489C47.8654 160.535 48.7021 160.353 49.4472 159.962C49.9543 159.759 50.4115 159.448 50.7876 159.052C51.2361 158.521 51.4195 157.815 51.2861 157.134C51.244 156.988 51.2231 156.837 51.2244 156.686C51.2729 156.468 51.3644 156.262 51.4934 156.08C51.8879 155.106 51.7263 153.995 51.0708 153.174C50.4938 152.321 49.6951 151.635 49.1248 150.778C49.0653 150.675 48.9904 150.582 48.9027 150.502C48.8242 150.443 48.735 150.399 48.64 150.373C48.0154 150.286 47.3797 150.327 46.771 150.492C45.502 150.636 44.2632 150.132 42.9952 150.237C42.7212 150.26 42.4504 150.253 42.3186 150.502C42.203 150.839 42.1375 151.191 42.1243 151.547C42.0204 152.239 41.9787 152.939 41.9997 153.639C42.0225 154.433 42.1498 155.221 42.3784 155.982Z" fill="black"/>
    <path d="M48.1997 97.1185C48.0367 96.9754 47.9507 96.7638 47.9678 96.5476C47.9848 96.3314 48.1028 96.1358 48.2862 96.02C52.284 93.5109 69.4121 83.2423 81.9763 83.2423C96.1203 83.2423 116.612 86.8347 123.762 95.0161C123.919 95.1981 123.968 95.4496 123.891 95.6772C122.834 98.8624 115.222 121.905 114.304 127.415C113.617 132.155 113.287 136.939 113.317 141.728C113.317 143.032 119.442 154.672 120.903 157.431C121.077 157.759 120.958 158.167 120.635 158.35C117.424 160.178 101.5 168.873 89.1328 168.873C76.6641 168.873 56.1598 160.034 52.2706 158.306C52.1003 158.23 51.9681 158.089 51.9043 157.914C51.8404 157.739 51.8505 157.545 51.9322 157.378L59.4506 141.871C59.4962 141.777 59.5198 141.674 59.5196 141.569C59.5167 140.353 59.4809 132.455 59.0263 127.909C58.557 123.217 53.1814 101.575 48.1997 97.1185Z" fill="#575770"/>
    <path d="M48.1997 97.1185C48.0367 96.9754 47.9507 96.7638 47.9678 96.5476C47.9848 96.3314 48.1028 96.1358 48.2862 96.02C52.284 93.5109 73.2065 83.2423 85.7708 83.2423C85.042 96.9889 87.345 151.105 86.7758 168.873C74.3071 168.873 56.1598 160.034 52.2706 158.306C52.1003 158.23 51.9681 158.089 51.9043 157.914C51.8404 157.739 51.8505 157.545 51.9322 157.378L59.4506 141.871C59.4962 141.777 59.5198 141.674 59.5196 141.569C59.5167 140.353 59.4809 132.455 59.0263 127.909C58.557 123.217 53.1814 101.575 48.1997 97.1185Z" fill="#464558"/>
    <path opacity="0.1" d="M97.0935 85.1657C97.0515 85.214 97.0073 85.2623 96.9654 85.3127C95.6484 86.8501 102.756 89.4797 101.263 90.8429C96.9096 94.8163 92.7445 99.0679 88.0919 102.695C83.6266 106.241 78.6676 109.117 73.3717 111.231C67.8081 113.392 61.719 113.868 56.2607 116.299C54.1415 108.815 51.1213 100.458 48.2333 97.8769C48.0708 97.7332 47.9852 97.5215 48.0021 97.3051C48.019 97.0888 48.1365 96.893 48.3195 96.7763C52.3185 94.2685 69.4467 84 82.0109 84C87.0601 84.0206 92.1011 84.4101 97.0935 85.1657Z" fill="black"/>
    <path fill-rule="evenodd" clip-rule="evenodd" d="M92.8595 79.6384H99.8595C99.8595 79.6384 102.476 87.9243 103.348 97.7946C104.22 107.665 103.348 119.12 103.348 119.12C103.348 119.12 102.905 121.403 99.8595 122.991C96.8143 124.579 92.8595 124.589 92.8595 124.589C92.8595 124.589 94.3661 113.351 94.3661 102.114C94.3661 90.876 92.8595 79.6384 92.8595 79.6384Z" fill="#2B2A37"/>
    <path fill-rule="evenodd" clip-rule="evenodd" d="M66.623 82.6607C66.623 82.6607 56.3361 87.3831 64.8684 98.0718C73.4008 108.76 98.295 108.377 105.848 96.779C113.4 85.1813 98.6554 79 98.6554 79L66.623 82.6607Z" fill="#464558"/>
    <path fill-rule="evenodd" clip-rule="evenodd" d="M97.8595 84.6384H104.859C104.859 84.6384 107.476 92.9243 108.348 102.795C109.22 112.665 108.348 124.12 108.348 124.12C108.348 124.12 107.905 126.403 104.859 127.991C101.814 129.579 97.8595 129.589 97.8595 129.589C97.8595 129.589 99.3661 118.351 99.3661 107.114C99.3661 95.876 97.8595 84.6384 97.8595 84.6384Z" fill="#464558"/>
    <path opacity="0.3" d="M97.0935 85.1656C97.0515 85.2139 97.0073 85.2622 96.9654 85.3127C95.6484 86.8501 102.756 89.4797 101.263 90.8428C96.9096 94.8162 92.7445 99.0678 88.0919 102.695C83.6266 106.241 78.6676 109.117 73.3717 111.231C67.8081 113.392 61.719 113.868 56.2607 116.299C54.1415 108.815 51.1213 100.458 48.2333 97.8768C48.0708 97.7331 47.9852 97.5214 48.0021 97.3051C48.019 97.0888 48.0504 96.4532 48.2333 96.3365C50.1406 95.1404 55.0187 91.9501 61 89.2839C61.7379 80.8922 76.7959 79.2931 82.0109 83.9999C87.0601 84.0205 92.1011 84.4101 97.0935 85.1656Z" fill="black"/>
    <path d="M59.3219 131.437C59.3219 131.437 89.5059 148.884 113.721 131.227L113.301 141.729C113.301 141.729 91.8183 156.863 59.5319 141.729L59.3219 131.437Z" fill="black"/>
    <path fill-rule="evenodd" clip-rule="evenodd" d="M107.563 64.3351C107.361 64.3319 107.161 64.3752 106.979 64.4618C105.012 51.1563 96.2396 41.1227 85.7137 41.1227C75.2023 41.1227 66.4391 51.1287 64.4565 64.4072C64.3127 64.3566 64.161 64.3322 64.0086 64.3351C62.4972 64.3726 61.3409 67.1792 61.4258 70.6039C61.5083 73.9258 63.3007 77.5281 64.7875 77.707C67.2823 90.0373 75.7052 99.1093 85.7137 99.1093C95.7207 99.1093 104.142 90.0404 106.639 77.7132L106.647 77.714C108.158 77.7515 110.061 74.0285 110.146 70.6039C110.231 67.1793 109.074 64.3726 107.563 64.3351Z" fill="#575770"/>
    <path fill-rule="evenodd" clip-rule="evenodd" d="M85.7954 41.1251C85.768 41.125 85.7411 41.1227 85.7137 41.1227C75.2023 41.1227 66.4391 51.1287 64.4565 64.4072C64.3127 64.3566 64.161 64.3322 64.0086 64.3351C62.4972 64.3726 61.3409 67.1792 61.4258 70.6039C61.5083 73.9258 63.3007 77.5281 64.7875 77.707C67.2823 90.0373 75.7052 99.1093 85.7137 99.1093C85.7411 99.1093 85.768 99.1071 85.7954 99.107V41.1251Z" fill="#464558"/>
    <path fill-rule="evenodd" clip-rule="evenodd" d="M102.237 65.4359C100.319 63.186 96.8694 63.0415 94.1416 62.9133H77.3999C74.6721 63.0415 71.2221 63.186 69.3045 65.4359C67.7109 67.3056 67.4555 70.9885 67.7739 73.3159C68.0883 75.6131 69.5162 78.6117 72.0308 79.0297C72.5486 79.0994 73.0731 79.1025 73.5916 79.039C75.2487 78.9345 76.8843 78.6079 78.4545 78.068C79.915 77.5079 81.2655 76.6877 82.759 76.2086C83.3197 76.029 83.8994 75.915 84.4864 75.869C85.0785 75.8226 85.6749 75.843 86.2682 75.8456L86.377 75.8461C86.957 75.8438 87.5356 75.9037 88.1028 76.0249C88.3321 76.0756 88.5587 76.1368 88.7827 76.2086C90.276 76.6877 91.6265 77.5079 93.087 78.068C94.6572 78.6079 96.2928 78.9345 97.95 79.039C98.4685 79.1025 98.993 79.0994 99.5108 79.0297C102.025 78.6117 103.453 75.6131 103.768 73.3159C104.086 70.9885 103.831 67.3056 102.237 65.4359Z" fill="#EEBDAA"/>
    <path fill-rule="evenodd" clip-rule="evenodd" d="M85.7913 62.9137V75.841C85.355 75.8384 84.9188 75.8357 84.4853 75.8676C83.8987 75.9145 83.3194 76.0287 82.759 76.2081C81.2641 76.6869 79.9155 77.5061 78.4552 78.0674C76.8842 78.607 75.2479 78.9335 73.5902 79.0383C73.0724 79.1021 72.5486 79.0994 72.0315 79.0303C69.5152 78.61 68.0895 75.6123 67.7729 73.3141C67.4564 70.9866 67.7117 67.3053 69.305 65.4353C71.2228 63.185 74.6728 63.0414 77.3992 62.9137L85.7913 62.9137Z" fill="#D19F93"/>
    <path d="M128.354 154.878C127.785 156.742 126.423 158.261 124.632 159.03C124.305 159.162 123.962 159.247 123.611 159.284C122.77 159.311 121.938 159.111 121.201 158.705C120.699 158.49 120.248 158.17 119.881 157.766C119.444 157.225 119.276 156.516 119.424 155.837C119.469 155.693 119.493 155.542 119.495 155.391C119.451 155.172 119.364 154.964 119.239 154.779C118.866 153.797 119.051 152.69 119.724 151.883C120.32 151.043 121.133 150.374 121.721 149.529C121.783 149.428 121.86 149.337 121.949 149.259C122.029 149.201 122.119 149.159 122.215 149.135C122.841 149.062 123.476 149.116 124.081 149.294C125.347 149.466 126.596 148.988 127.861 149.121C128.135 149.15 128.406 149.148 128.532 149.4C128.64 149.739 128.698 150.093 128.704 150.45C128.793 151.144 128.819 151.844 128.783 152.543C128.743 153.337 128.599 154.122 128.354 154.878Z" fill="black"/>
    <ellipse cx="94.299" cy="70.9586" rx="1.53275" ry="2" fill="white" stroke="#01002B" stroke-width="0.7"/>
    <path d="M95.5025 67.3645C95.7501 67.4335 95.964 67.5001 95.9981 67.1095C96.0224 66.8316 95.5872 66.7622 95.6943 66.7756C95.8663 66.7972 95.9746 66.6742 95.9981 66.5025C96.0166 66.3313 95.8972 66.1759 95.727 66.1496C94.5413 65.8699 93.2967 65.9845 92.1819 66.476C92.0442 66.5353 91.9712 66.6869 92.0107 66.8316C92.0516 66.9749 92.1896 67.068 92.3378 67.0524L93.1888 67.0339C93.455 67.0176 93.7221 67.0206 93.988 67.0427C94.5006 67.1053 94.8466 67.1816 95.5025 67.3645Z" fill="#01002B"/>
    <ellipse rx="1.53275" ry="2" transform="matrix(-1 0 0 1 77.701 70.9586)" fill="white" stroke="#01002B" stroke-width="0.7"/>
    <path d="M76.4975 67.3645C76.2499 67.4335 76.036 67.5001 76.0019 67.1095C75.9776 66.8316 76.4128 66.7622 76.3057 66.7756C76.1337 66.7972 76.0254 66.6742 76.0019 66.5025C75.9834 66.3313 76.1028 66.1759 76.273 66.1496C77.4587 65.8699 78.7033 65.9845 79.8181 66.476C79.9558 66.5353 80.0288 66.6869 79.9893 66.8316C79.9484 66.9749 79.8104 67.068 79.6622 67.0524L78.8112 67.0339C78.545 67.0176 78.2779 67.0206 78.012 67.0427C77.4994 67.1053 77.1534 67.1816 76.4975 67.3645Z" fill="#01002B"/>
</svg>
