<svg width="320" height="194" viewBox="0 0 320 194" fill="none" xmlns="http://www.w3.org/2000/svg">
<g clip-path="url(#clip0_2763_50564)">
<rect width="320" height="194" fill="#0A071B"/>
<path d="M55.8225 78.3634L-10.966 198.394C-11.0447 198.533 -11.161 198.659 -11.3119 198.734L-15.8127 201.138C-16.3579 201.433 -17.0334 201.06 -17.0708 200.439L-17.3392 196.051C-17.3766 195.429 -18.0425 195.057 -18.5974 195.351L-22.4731 197.428C-23.0183 197.723 -23.6843 197.351 -23.7313 196.729L-24.0092 192.34C-24.0466 191.719 -24.7126 191.347 -25.2674 191.641L-29.143 193.718C-29.6883 194.012 -30.3543 193.641 -30.4013 193.018L-30.6792 188.629C-30.7166 188.008 -31.3825 187.636 -31.9373 187.93L-35.813 190.007C-36.3583 190.302 -37.0242 189.93 -37.0712 189.308L-37.3492 184.919C-37.3866 184.297 -38.0525 183.925 -38.6074 184.219L-42.4831 186.297C-43.0283 186.591 -43.6942 186.219 -43.7412 185.597L-44.0191 181.208C-44.0565 180.587 -44.7225 180.215 -45.2774 180.509L-49.153 182.586C-49.6982 182.881 -50.3642 182.509 -50.4112 181.887L-50.6891 177.498C-50.7265 176.876 -51.3925 176.504 -51.9473 176.798L-55.823 178.875C-56.3683 179.17 -57.0438 178.797 -57.0812 178.176L-57.3503 173.797C-57.3877 173.176 -58.0537 172.804 -58.6085 173.098L-62.4842 175.175C-63.0294 175.47 -63.6954 175.098 -63.7424 174.476L-64.0203 170.087C-64.0577 169.465 -64.7237 169.093 -65.2785 169.387L-69.1542 171.465C-69.6994 171.759 -70.375 171.387 -70.4124 170.765L-70.6533 166.881C-70.6595 166.717 -70.6273 166.555 -70.5486 166.416L-2.89376 44.8506C-2.47652 44.1013 -1.34786 44.3652 -1.29927 45.2096L-1.16167 47.4814C-1.12427 48.1027 -0.458264 48.4747 0.0965599 48.1808L3.97222 46.1035C4.51744 45.8088 5.18339 46.1808 5.23039 46.8028L5.50835 51.192C5.54575 51.8133 6.21169 52.1853 6.76652 51.8914L10.6422 49.8141C11.1874 49.5194 11.8534 49.8914 11.9004 50.5134L12.1784 54.9026C12.2158 55.5239 12.8817 55.8959 13.4365 55.602L17.3122 53.5247C17.8575 53.23 18.5234 53.6019 18.5704 54.224L18.8483 58.6132C18.8857 59.2345 19.5517 59.6065 20.1065 59.3126L23.9822 57.2353C24.5274 56.9406 25.1934 57.3126 25.2404 57.9346L25.5183 62.3238C25.5557 62.9451 26.2217 63.3171 26.7765 63.0232L30.6522 60.9459C31.1974 60.6512 31.8634 61.0231 31.9104 61.6452L32.1883 66.0344C32.2257 66.6557 32.8917 67.0277 33.4465 66.7337L37.3222 64.6565C37.8674 64.3618 38.543 64.7345 38.5804 65.3558L38.8495 69.7346C38.8869 70.3559 39.5529 70.7279 40.1077 70.434L43.9833 68.3567C44.5286 68.062 45.1945 68.434 45.2415 69.0561L45.5195 73.4452C45.5569 74.0665 46.2228 74.4385 46.7776 74.1446L50.6534 72.0673C51.1986 71.7726 51.8645 72.1446 51.9115 72.7667L52.1895 77.1558C52.2269 77.7771 52.8928 78.1491 53.4477 77.8552L54.669 77.199C55.4162 76.7948 56.2294 77.6229 55.8225 78.3634Z" fill="url(#paint0_linear_2763_50564)"/>
<path d="M84.6924 167.02L-44.0755 214.864C-44.2249 214.92 -44.3999 214.935 -44.5513 214.894L-49.5363 213.801C-50.1439 213.665 -50.4056 212.949 -50.0378 212.456L-47.4005 208.947C-47.0224 208.446 -47.2937 207.729 -47.902 207.603L-52.1939 206.661C-52.8015 206.526 -53.0631 205.81 -52.6954 205.317L-50.0573 201.798C-49.6792 201.297 -49.9513 200.589 -50.5588 200.454L-54.8507 199.513C-55.4582 199.377 -55.7199 198.661 -55.3521 198.168L-52.7141 194.649C-52.3359 194.148 -52.608 193.44 -53.2155 193.305L-57.5075 192.364C-58.115 192.228 -58.3767 191.512 -58.0089 191.019L-55.3709 187.501C-54.9927 186.999 -55.2648 186.292 -55.8723 186.156L-60.1642 185.215C-60.7718 185.08 -61.0334 184.363 -60.6657 183.871L-58.0276 180.352C-57.6495 179.85 -57.9215 179.143 -58.5291 179.007L-62.821 178.066C-63.4286 177.931 -63.6902 177.214 -63.3225 176.722L-60.6844 173.203C-60.3063 172.702 -60.5783 171.994 -61.1859 171.859L-65.4778 170.917C-66.0853 170.782 -66.347 170.065 -65.9792 169.573L-63.3419 166.064C-62.9638 165.562 -63.2351 164.845 -63.8434 164.719L-68.1353 163.778C-68.7429 163.643 -69.0046 162.926 -68.6368 162.434L-65.9987 158.915C-65.6206 158.414 -65.8927 157.706 -66.5002 157.57L-70.7921 156.629C-71.3997 156.494 -71.6614 155.777 -71.2936 155.285L-68.9484 152.168C-68.8513 152.04 -68.7173 151.935 -68.5583 151.88L61.8614 103.433C62.6577 103.14 63.3569 104.065 62.8386 104.748L61.4662 106.571C61.0881 107.072 61.3594 107.789 61.9677 107.915L66.2596 108.857C66.8671 108.992 67.1288 109.708 66.7611 110.201L64.123 113.72C63.7449 114.221 64.0169 114.929 64.6245 115.064L68.9164 116.005C69.5239 116.141 69.7856 116.857 69.4178 117.35L66.7798 120.869C66.4016 121.37 66.6737 122.078 67.2812 122.213L71.5732 123.154C72.1807 123.29 72.4424 124.006 72.0746 124.499L69.4366 128.017C69.0584 128.519 69.3305 129.226 69.938 129.362L74.23 130.303C74.8375 130.439 75.0991 131.155 74.7314 131.647L72.0933 135.166C71.7152 135.668 71.9872 136.375 72.5948 136.511L76.8867 137.452C77.4942 137.587 77.7559 138.304 77.3882 138.796L74.7501 142.315C74.372 142.816 74.644 143.524 75.2516 143.659L79.5435 144.601C80.1511 144.736 80.4127 145.453 80.045 145.945L77.4077 149.454C77.0296 149.956 77.3008 150.673 77.9091 150.799L82.201 151.74C82.8086 151.875 83.0703 152.592 82.7025 153.084L80.0644 156.603C79.6863 157.104 79.9584 157.812 80.5659 157.948L84.8578 158.889C85.4654 159.024 85.727 159.741 85.3593 160.233L82.7212 163.752C82.3431 164.253 82.6144 164.971 83.2227 165.096L84.5714 165.388C85.407 165.57 85.4887 166.726 84.6828 167.02L84.6924 167.02Z" fill="url(#paint1_linear_2763_50564)"/>
<path d="M87.1184 147.263L-35.2296 209.705C-35.3709 209.781 -35.5371 209.806 -35.7003 209.793L-40.7801 209.282C-41.4034 209.222 -41.7449 208.538 -41.4317 208.003L-39.2161 204.209C-38.9029 203.673 -39.2541 202.988 -39.8677 202.93L-44.2386 202.494C-44.8619 202.435 -45.2034 201.751 -44.8902 201.215L-42.6739 197.411C-42.3606 196.876 -42.7118 196.191 -43.3255 196.132L-47.706 195.696C-48.3292 195.637 -48.6708 194.953 -48.3575 194.417L-46.1412 190.613C-45.828 190.078 -46.1791 189.393 -46.7928 189.334L-51.1733 188.898C-51.7965 188.839 -52.1381 188.154 -51.8249 187.619L-49.6085 183.815C-49.2953 183.28 -49.6465 182.595 -50.2601 182.536L-54.6406 182.1C-55.2639 182.041 -55.6054 181.356 -55.2922 180.821L-53.0759 177.017C-52.7627 176.482 -53.1138 175.797 -53.7274 175.738L-58.1079 175.302C-58.7312 175.243 -59.0728 174.558 -58.7596 174.023L-56.5432 170.219C-56.23 169.684 -56.5811 168.999 -57.1948 168.94L-61.5657 168.505C-62.189 168.445 -62.5305 167.761 -62.2173 167.226L-60.0017 163.432C-59.6885 162.896 -60.0397 162.211 -60.6533 162.153L-65.0242 161.717C-65.6475 161.658 -65.989 160.973 -65.6758 160.438L-63.4594 156.634C-63.1462 156.099 -63.4974 155.414 -64.1111 155.355L-68.4915 154.919C-69.1148 154.86 -69.4564 154.175 -69.1431 153.64L-67.1843 150.279C-67.1057 150.141 -66.9805 150.025 -66.8392 149.949L57.0887 86.7153C57.8439 86.3311 58.6467 87.168 58.2111 87.9062L57.0591 89.8722C56.7459 90.4076 57.0875 91.0918 57.7107 91.1512L62.0816 91.5868C62.7049 91.6461 63.0464 92.3304 62.7332 92.8657L60.5168 96.6695C60.2036 97.2049 60.5548 97.8899 61.1685 97.9485L65.5489 98.3848C66.1722 98.4442 66.5138 99.1284 66.2005 99.6638L63.9842 103.468C63.671 104.003 64.0221 104.688 64.6358 104.747L69.0163 105.183C69.6395 105.242 69.9811 105.926 69.6679 106.462L67.4515 110.266C67.1383 110.801 67.4895 111.486 68.1031 111.545L72.4836 111.981C73.1069 112.04 73.4484 112.724 73.1352 113.26L70.9189 117.064C70.6056 117.599 70.9568 118.284 71.5704 118.343L75.9509 118.779C76.5742 118.838 76.9158 119.523 76.6026 120.058L74.3862 123.862C74.073 124.397 74.4241 125.082 75.0378 125.141L79.4087 125.576C80.0319 125.636 80.3735 126.32 80.0603 126.855L77.8447 130.649C77.5315 131.185 77.8826 131.87 78.4963 131.928L82.8672 132.364C83.4905 132.423 83.832 133.107 83.5188 133.643L81.3024 137.447C80.9892 137.982 81.3403 138.667 81.954 138.726L86.3345 139.162C86.9578 139.221 87.2993 139.906 86.9861 140.441L84.7706 144.235C84.4573 144.77 84.8085 145.455 85.4221 145.514L86.7927 145.652C87.636 145.739 87.8544 146.877 87.0991 147.261L87.1184 147.263Z" fill="url(#paint2_linear_2763_50564)"/>
<path d="M84.2625 125.046L-25.7965 207.24C-25.9298 207.336 -26.0894 207.4 -26.2446 207.407L-31.3357 207.765C-31.9578 207.812 -32.4111 207.196 -32.1908 206.614L-30.6458 202.506C-30.4255 201.924 -30.8884 201.308 -31.5008 201.356L-35.8827 201.663C-36.5048 201.71 -36.9581 201.094 -36.7378 200.513L-35.2016 196.394C-34.9814 195.812 -35.4442 195.196 -36.0567 195.244L-40.4482 195.55C-41.0703 195.597 -41.5235 194.982 -41.3032 194.4L-39.7671 190.281C-39.5468 189.7 -40.0096 189.083 -40.6221 189.131L-45.0136 189.438C-45.6357 189.485 -46.089 188.869 -45.8687 188.287L-44.3325 184.169C-44.1122 183.587 -44.5751 182.97 -45.1875 183.018L-49.579 183.325C-50.2011 183.372 -50.6544 182.756 -50.4341 182.175L-48.8979 178.056C-48.6776 177.474 -49.1405 176.858 -49.753 176.906L-54.1444 177.212C-54.7665 177.259 -55.2198 176.643 -54.9996 176.062L-53.4634 171.943C-53.2431 171.362 -53.706 170.745 -54.3184 170.793L-58.7003 171.1C-59.3224 171.147 -59.7757 170.531 -59.5554 169.95L-58.0103 165.842C-57.7901 165.26 -58.253 164.643 -58.8655 164.691L-63.2473 164.999C-63.8694 165.046 -64.3227 164.43 -64.1024 163.848L-62.5662 159.73C-62.3459 159.148 -62.8088 158.532 -63.4213 158.579L-67.8031 158.887C-68.4252 158.934 -68.8785 158.318 -68.6582 157.737L-67.2947 154.087C-67.2345 153.937 -67.1366 153.8 -67.0033 153.704L44.4724 70.4633C45.16 69.9577 46.0806 70.6495 45.7851 71.4471L44.9873 73.5767C44.7671 74.1581 45.2299 74.7747 45.8424 74.727L50.2243 74.4195C50.8464 74.3725 51.2996 74.9883 51.0793 75.5697L49.5432 79.6886C49.3229 80.2701 49.7858 80.8867 50.3983 80.8389L54.7897 80.5322C55.4118 80.4852 55.8651 81.101 55.6448 81.6824L54.1086 85.8013C53.8883 86.3828 54.3512 86.9994 54.9637 86.9516L59.3552 86.6449C59.9773 86.5979 60.4305 87.2137 60.2102 87.7952L58.674 91.914C58.4538 92.4955 58.9166 93.1121 59.5291 93.0643L63.9206 92.7576C64.5427 92.7106 64.9959 93.3264 64.7757 93.9079L63.2395 98.0267C63.0192 98.6082 63.4821 99.2248 64.0945 99.177L68.486 98.8703C69.1081 98.8233 69.5614 99.4391 69.3411 100.021L67.8049 104.139C67.5846 104.721 68.0475 105.337 68.66 105.29L73.0419 104.982C73.664 104.935 74.1172 105.551 73.8969 106.132L72.3519 110.241C72.1316 110.822 72.5945 111.439 73.207 111.391L77.5888 111.084C78.2109 111.037 78.6642 111.653 78.444 112.234L76.9078 116.353C76.6875 116.934 77.1504 117.551 77.7628 117.503L82.1543 117.196C82.7764 117.149 83.2297 117.765 83.0094 118.347L81.4732 122.466C81.2529 123.047 81.7158 123.664 82.3283 123.616L83.7076 123.523C84.5624 123.466 84.959 124.55 84.2809 125.057L84.2625 125.046Z" fill="url(#paint3_linear_2763_50564)"/>
<path d="M78.1014 98.2362L46.4329 129.709L-19.3278 195.061C-19.4434 195.177 -19.5943 195.252 -19.7613 195.287L-24.7451 196.358C-25.3541 196.484 -25.8903 195.939 -25.7645 195.33L-24.8048 191.049C-24.679 190.441 -25.2151 189.896 -25.8242 190.021L-30.1198 190.944C-30.7288 191.07 -31.2658 190.534 -31.14 189.926L-30.1883 185.625C-30.0625 185.017 -30.5995 184.481 -31.2085 184.607L-35.5042 185.53C-36.1132 185.655 -36.6502 185.119 -36.5244 184.511L-35.5727 180.21C-35.4469 179.602 -35.9839 179.066 -36.5929 179.192L-40.8886 180.115C-41.4976 180.24 -42.0346 179.705 -41.9088 179.096L-40.9571 174.796C-40.8313 174.187 -41.3682 173.652 -41.9772 173.777L-46.273 174.7C-46.882 174.825 -47.4189 174.29 -47.2931 173.682L-46.3414 169.381C-46.2156 168.772 -46.7526 168.237 -47.3616 168.362L-51.6573 169.285C-52.2663 169.411 -52.8033 168.875 -52.6775 168.267L-51.7258 163.966C-51.6 163.358 -52.137 162.822 -52.746 162.947L-57.0417 163.871C-57.6507 163.996 -58.1869 163.451 -58.0611 162.842L-57.1013 158.562C-56.9755 157.953 -57.5117 157.408 -58.1207 157.533L-62.4164 158.457C-63.0254 158.582 -63.5624 158.046 -63.4366 157.438L-62.4849 153.137C-62.3591 152.529 -62.8961 151.993 -63.5051 152.119L-67.8008 153.042C-68.4098 153.167 -68.9467 152.632 -68.8202 152.014L-67.9763 148.216C-67.9345 148.055 -67.8638 147.897 -67.7394 147.791L2.9523 77.5476L30.9475 49.7331C31.5556 49.1343 32.5741 49.6889 32.382 50.5238L31.8867 52.7354C31.7609 53.3437 32.2971 53.8889 32.9061 53.7636L37.2018 52.8405C37.8108 52.7152 38.3478 53.2507 38.222 53.859L37.2703 58.1598C37.1445 58.7681 37.6815 59.3037 38.2905 59.1783L42.5862 58.2553C43.1952 58.1299 43.7321 58.6655 43.6063 59.2738L42.6547 63.5746C42.5289 64.1829 43.0658 64.7184 43.6748 64.5931L47.9705 63.67C48.5795 63.5447 49.1165 64.0803 48.9907 64.6886L48.039 68.9893C47.9132 69.5976 48.4502 70.1332 49.0592 70.0079L53.3549 69.0848C53.9639 68.9595 54.5009 69.495 54.3751 70.1033L53.4234 74.4041C53.2976 75.0124 53.8346 75.548 54.4436 75.4226L58.7393 74.4996C59.3483 74.3742 59.8853 74.9098 59.7595 75.5181L58.8078 79.8189C58.682 80.4272 59.2189 80.9627 59.8279 80.8374L64.1236 79.9143C64.7326 79.789 65.2688 80.3342 65.143 80.9425L64.1832 85.2232C64.0574 85.8315 64.5937 86.3767 65.2027 86.2514L69.4984 85.3283C70.1074 85.203 70.6444 85.7385 70.5186 86.3468L69.5669 90.6476C69.4411 91.2559 69.978 91.7915 70.5871 91.6661L74.8827 90.7431C75.4917 90.6177 76.0287 91.1533 75.9029 91.7616L74.952 96.0528C74.8158 96.6699 75.3624 97.2062 75.9714 97.0809L77.3188 96.7826C78.154 96.6076 78.7103 97.6278 78.1022 98.2266L78.1014 98.2362Z" fill="url(#paint4_linear_2763_50564)"/>
<path opacity="0.21" d="M78.1014 98.2362L46.4329 129.709L-19.3278 195.061C-19.4434 195.177 -19.5943 195.252 -19.7613 195.287L-24.7451 196.358C-25.3541 196.484 -25.8903 195.939 -25.7645 195.33L-24.8048 191.049C-24.679 190.441 -25.2151 189.896 -25.8242 190.021L-30.1198 190.944C-30.7288 191.07 -31.2658 190.534 -31.14 189.926L-30.1883 185.625C-30.0625 185.017 -30.5995 184.481 -31.2085 184.607L-35.5042 185.53C-36.1132 185.655 -36.6502 185.119 -36.5244 184.511L-35.5727 180.21C-35.4469 179.602 -35.9839 179.066 -36.5929 179.192L-40.8886 180.115C-41.4976 180.24 -42.0346 179.705 -41.9088 179.096L-40.9571 174.796C-40.8313 174.187 -41.3682 173.652 -41.9772 173.777L-46.273 174.7C-46.882 174.825 -47.4189 174.29 -47.2931 173.682L-46.3414 169.381C-46.2156 168.772 -46.7526 168.237 -47.3616 168.362L-51.6573 169.285C-52.2663 169.411 -52.8033 168.875 -52.6775 168.267L-51.7258 163.966C-51.6 163.358 -52.137 162.822 -52.746 162.947L-57.0417 163.871C-57.6507 163.996 -58.1869 163.451 -58.0611 162.842L-57.1013 158.562C-56.9755 157.953 -57.5117 157.408 -58.1207 157.533L-62.4164 158.457C-63.0254 158.582 -63.5624 158.046 -63.4366 157.438L-62.4849 153.137C-62.3591 152.529 -62.8961 151.993 -63.5051 152.119L-67.8008 153.042C-68.4098 153.167 -68.9467 152.632 -68.8202 152.014L-67.9763 148.216C-67.9345 148.055 -67.8638 147.897 -67.7394 147.791L2.9523 77.5476L30.9475 49.7331C31.5556 49.1343 32.5741 49.6889 32.382 50.5238L31.8867 52.7354C31.7609 53.3437 32.2971 53.8889 32.9061 53.7636L37.2018 52.8405C37.8108 52.7152 38.3478 53.2507 38.222 53.859L37.2703 58.1598C37.1445 58.7681 37.6815 59.3037 38.2905 59.1783L42.5862 58.2553C43.1952 58.1299 43.7321 58.6655 43.6063 59.2738L42.6547 63.5746C42.5289 64.1829 43.0658 64.7184 43.6748 64.5931L47.9705 63.67C48.5795 63.5447 49.1165 64.0803 48.9907 64.6886L48.039 68.9893C47.9132 69.5976 48.4502 70.1332 49.0592 70.0079L53.3549 69.0848C53.9639 68.9595 54.5009 69.495 54.3751 70.1033L53.4234 74.4041C53.2976 75.0124 53.8346 75.548 54.4436 75.4226L58.7393 74.4996C59.3483 74.3742 59.8853 74.9098 59.7595 75.5181L58.8078 79.8189C58.682 80.4272 59.2189 80.9627 59.8279 80.8374L64.1236 79.9143C64.7326 79.789 65.2688 80.3342 65.143 80.9425L64.1832 85.2232C64.0574 85.8315 64.5937 86.3767 65.2027 86.2514L69.4984 85.3283C70.1074 85.203 70.6444 85.7385 70.5186 86.3468L69.5669 90.6476C69.4411 91.2559 69.978 91.7915 70.5871 91.6661L74.8827 90.7431C75.4917 90.6177 76.0287 91.1533 75.9029 91.7616L74.952 96.0528C74.8158 96.6699 75.3624 97.2062 75.9714 97.0809L77.3188 96.7826C78.154 96.6076 78.7103 97.6278 78.1022 98.2266L78.1014 98.2362Z" fill="#E6B730"/>
<g opacity="0.45">
<path fill-rule="evenodd" clip-rule="evenodd" d="M78.1015 98.2362L46.433 129.709L10.2941 165.628C-10.2838 159.436 -28.672 132.695 -24.1579 104.563L2.99803 77.5802L30.9932 49.7657C31.6014 49.1669 32.6199 49.7216 32.4277 50.5565L31.9325 52.7681C31.8066 53.3764 32.3429 53.9215 32.9519 53.7962L37.2476 52.8732C37.8566 52.7478 38.3936 53.2834 38.2678 53.8917L37.3161 58.1924C37.1903 58.8007 37.7272 59.3363 38.3363 59.211L42.6319 58.2879C43.2409 58.1626 43.7779 58.6981 43.6521 59.3064L42.7004 63.6072C42.5746 64.2155 43.1116 64.7511 43.7206 64.6257L48.0163 63.7027C48.6253 63.5773 49.1623 64.1129 49.0364 64.7212L48.0848 69.022C47.959 69.6303 48.4959 70.1658 49.105 70.0405L53.4006 69.1174C54.0096 68.9921 54.5466 69.5277 54.4208 70.136L53.4691 74.4367C53.3433 75.045 53.8803 75.5806 54.4893 75.4553L58.785 74.5322C59.394 74.4069 59.931 74.9424 59.8052 75.5507L58.8535 79.8515C58.7277 80.4598 59.2647 80.9954 59.8737 80.87L64.1694 79.947C64.7784 79.8216 65.3146 80.3668 65.1888 80.9751L64.229 85.2559C64.1032 85.8642 64.6394 86.4093 65.2484 86.284L69.5441 85.3609C70.1531 85.2356 70.6901 85.7712 70.5643 86.3795L69.6126 90.6802C69.4868 91.2885 70.0238 91.8241 70.6328 91.6988L74.9285 90.7757C75.5375 90.6504 76.0745 91.1859 75.9487 91.7942L74.9977 96.0854C74.8616 96.7025 75.4082 97.2389 76.0172 97.1135L77.3646 96.8152C78.1998 96.6403 78.756 97.6605 78.1479 98.2593L78.1015 98.2362Z" fill="#F0BF35"/>
</g>
<g opacity="0.35">
<path fill-rule="evenodd" clip-rule="evenodd" d="M78.1014 98.2362L46.4329 129.709C30.1996 123.313 8.78076 101.258 10.8779 69.7548L30.9932 49.7657C31.6013 49.1669 32.6198 49.7216 32.4276 50.5564L31.9324 52.7681C31.8066 53.3764 32.3428 53.9215 32.9518 53.7962L37.2475 52.8731C37.8565 52.7478 38.3935 53.2834 38.2677 53.8917L37.316 58.1924C37.1902 58.8007 37.7272 59.3363 38.3362 59.2109L42.6319 58.2879C43.2409 58.1626 43.7779 58.6981 43.6521 59.3064L42.7004 63.6072C42.5746 64.2155 43.1116 64.751 43.7206 64.6257L48.0162 63.7027C48.6253 63.5773 49.1622 64.1129 49.0364 64.7212L48.0847 69.0219C47.9589 69.6302 48.4959 70.1658 49.1049 70.0405L53.4006 69.1174C54.0096 68.9921 54.5466 69.5277 54.4208 70.136L53.4691 74.4367C53.3433 75.045 53.8803 75.5806 54.4893 75.4552L58.7849 74.5322C59.394 74.4069 59.9309 74.9424 59.8051 75.5507L58.8534 79.8515C58.7276 80.4598 59.2646 80.9953 59.8736 80.87L64.1693 79.9469C64.7783 79.8216 65.3145 80.3668 65.1887 80.9751L64.229 85.2559C64.1032 85.8642 64.6393 86.4093 65.2483 86.284L69.544 85.3609C70.153 85.2356 70.69 85.7712 70.5642 86.3795L69.6125 90.6802C69.4867 91.2885 70.0237 91.8241 70.6327 91.6987L74.9284 90.7757C75.5374 90.6504 76.0744 91.1859 75.9486 91.7942L74.9977 96.0854C74.8615 96.7025 75.4081 97.2388 76.0171 97.1135L77.3645 96.8152C78.1997 96.6403 78.756 97.6604 78.1479 98.2593L78.1014 98.2362Z" fill="#FFCA3A"/>
</g>
<path d="M-26.765 180.497L-52.7504 154.281L-51.9407 153.457C-48.4383 149.881 -48.45 144.093 -51.9634 140.537L-52.6433 139.855L-51.961 139.175L22.4923 65.377L23.1638 66.1648C23.2168 66.227 23.2706 66.2796 23.3339 66.333C26.9095 69.8354 32.6969 69.8333 36.2532 66.3103L36.9354 65.6304L62.8758 91.8047L62.0876 92.6017C58.5852 96.1773 58.597 101.965 62.1104 105.521L62.7902 106.203L62.108 106.883L-12.3877 180.726L-13.056 179.9C-13.056 179.9 -13.1275 179.827 -13.1636 179.795C-16.7392 176.292 -22.5273 176.304 -26.0828 179.817L-26.765 180.497ZM-50.0623 154.254L-26.7242 177.805C-22.5742 174.349 -16.4236 174.395 -12.3207 177.949L60.1075 106.163C56.6784 102.035 56.7016 95.9305 60.1974 91.8326L36.9034 68.3331C32.7335 71.7975 26.5548 71.7395 22.455 68.1469L-49.9414 139.897C-46.5035 144.035 -46.5377 150.158 -50.0535 154.264L-50.0623 154.254Z" fill="#FFD14A"/>
<path opacity="0.6" d="M46.5977 63.5605C38.0074 52.6729 22.0797 50.562 10.8714 58.9334C-0.481325 67.419 -2.65594 83.4188 6.13597 94.5641C14.9279 105.709 31.1946 107.567 42.336 98.8232C53.3331 90.1934 55.1783 74.4474 46.5977 63.5605Z" fill="url(#paint5_radial_2763_50564)"/>
<path d="M33.7638 84.4395C31.539 86.5325 31.4305 90.4368 33.5171 93.1055C31.4305 90.4368 27.9032 89.9623 25.6784 92.0553C27.9032 89.9623 28.0117 86.058 25.9251 83.3893C28.0117 86.058 31.539 86.5325 33.7638 84.4395Z" fill="#FFE46E"/>
<path d="M38.9042 72.077C36.0735 74.74 36.0879 79.8908 38.9281 83.5278C36.0879 79.8908 31.4558 79.0962 28.6251 81.7592C31.4558 79.0962 31.4414 73.9455 28.6012 70.3085C31.4414 73.9455 36.0735 74.74 38.9042 72.077Z" fill="#FFE46E"/>
<path opacity="0.6" d="M1.07619 153.888C-6.38204 144.434 -20.2341 142.585 -29.9643 149.866C-39.8277 157.244 -41.7186 171.141 -34.086 180.831C-26.4438 190.523 -12.3022 192.134 -2.62435 184.539C7.05353 176.944 8.53364 163.352 1.07542 153.898L1.07619 153.888Z" fill="url(#paint6_radial_2763_50564)"/>
<path d="M17.2077 135.635C23.5694 129.044 23.3838 118.544 16.7932 112.182C10.2027 105.821 -0.297202 106.006 -6.65887 112.597C-13.0205 119.188 -12.835 129.687 -6.2444 136.049C0.34617 142.411 10.846 142.225 17.2077 135.635Z" stroke="#FFD14A" stroke-width="3" stroke-miterlimit="10"/>
<path fill-rule="evenodd" clip-rule="evenodd" d="M0.340658 119.682C2.92391 117.271 5.65925 115.055 9.22916 114.155C11.3686 113.616 13.3383 113.984 14.9756 115.515C17.5386 117.916 17.0972 120.971 14.5391 123.054C13.433 123.897 12.2701 124.673 11.0623 125.37C8.97943 126.658 7.47554 128.468 6.26125 130.545C5.67811 131.54 5.20163 132.614 4.48075 133.525C3.12369 135.233 0.994293 136.342 -1.10278 135.426C-3.76079 134.308 -5.26029 131.461 -4.67847 128.639C-3.99768 125.109 -1.96581 122.336 0.353259 119.694L0.340658 119.682Z" fill="#FFEAB0"/>
<path fill-rule="evenodd" clip-rule="evenodd" d="M11.4633 117.919C12.3953 118.794 12.5684 120.178 11.8451 120.953C11.207 121.639 9.77495 121.559 8.9561 120.781C8.05556 119.936 7.90202 118.607 8.60032 117.821C9.30471 117.028 10.5627 117.074 11.4633 117.919Z" fill="#F0BF35"/>
<path fill-rule="evenodd" clip-rule="evenodd" d="M1.775 127.955C2.70704 128.831 2.88014 130.215 2.15685 130.989C1.51871 131.676 0.0866911 131.596 -0.732164 130.818C-1.63271 129.973 -1.78625 128.644 -1.08794 127.857C-0.383552 127.065 0.874453 127.11 1.775 127.955Z" fill="#F0BF35"/>
<path d="M17.7112 19.7415C15.0143 19.7583 12.7035 21.7188 12.269 24.3797C12.2522 21.6828 10.2917 19.3719 7.63079 18.9375C10.3277 18.9207 12.6386 16.9602 13.073 14.2993C13.0898 16.9962 15.0503 19.307 17.7112 19.7415Z" fill="#FFCE00"/>
<path d="M11.9964 27.7975C11.8812 27.7883 11.7928 27.6846 11.802 27.5694L12.3288 20.9643C12.338 20.8491 12.4416 20.7608 12.5569 20.77C12.6721 20.7791 12.7604 20.8828 12.7512 20.998L12.2244 27.6031C12.2152 27.7183 12.1116 27.8067 11.9964 27.7975Z" fill="#FFCE00"/>
<path d="M11.0036 19.4094L4.39847 18.8826C4.28326 18.8734 4.19494 18.7697 4.20413 18.6545C4.21332 18.5393 4.31695 18.451 4.43216 18.4601L11.0373 18.9869C11.1525 18.9961 11.2408 19.0998 11.2316 19.215C11.2225 19.3302 11.1188 19.4185 11.0036 19.4094Z" fill="#FFCE00"/>
<path d="M12.7866 17.8898C12.6714 17.8806 12.583 17.777 12.5922 17.6617L13.119 11.0567C13.1281 10.9415 13.2318 10.8531 13.347 10.8623C13.4622 10.8715 13.5506 10.9752 13.5414 11.0904L13.0146 17.6954C13.0054 17.8106 12.9018 17.899 12.7866 17.8898Z" fill="#FFCE00"/>
<path d="M20.9113 20.1995L14.3062 19.6727C14.191 19.6635 14.1027 19.5599 14.1118 19.4447C14.121 19.3295 14.2247 19.2411 14.3399 19.2503L20.945 19.7771C21.0602 19.7863 21.1486 19.8899 21.1394 20.0052C21.1302 20.1204 21.0265 20.2087 20.9113 20.1995Z" fill="#FFCE00"/>
<path d="M73.9468 69.3239C71.9593 69.3362 70.2563 70.7811 69.9361 72.7421C69.9238 70.7546 68.4789 69.0515 66.5179 68.7314C68.5054 68.719 70.2085 67.2742 70.5286 65.3132C70.541 67.3007 71.9858 69.0037 73.9468 69.3239Z" fill="#FFCE00"/>
<path d="M69.7352 75.2608C69.6503 75.254 69.5852 75.1776 69.5919 75.0927L69.9802 70.2251C69.9869 70.1401 70.0634 70.075 70.1483 70.0818C70.2332 70.0886 70.2982 70.165 70.2915 70.2499L69.9033 75.1176C69.8965 75.2025 69.8201 75.2676 69.7352 75.2608Z" fill="#FFCE00"/>
<path d="M69.0035 69.0791L64.1358 68.6909C64.0509 68.6841 63.9858 68.6077 63.9926 68.5228C63.9994 68.4379 64.0758 68.3728 64.1607 68.3796L69.0284 68.7678C69.1133 68.7746 69.1784 68.851 69.1716 68.9359C69.1649 69.0208 69.0884 69.0859 69.0035 69.0791Z" fill="#FFCE00"/>
<path d="M70.3175 67.9593C70.2326 67.9525 70.1675 67.8761 70.1743 67.7912L70.5625 62.9235C70.5693 62.8386 70.6457 62.7735 70.7306 62.7803C70.8155 62.787 70.8806 62.8634 70.8738 62.9483L70.4856 67.816C70.4788 67.9009 70.4024 67.966 70.3175 67.9593Z" fill="#FFCE00"/>
<path d="M76.3051 69.6614L71.4374 69.2732C71.3525 69.2664 71.2874 69.19 71.2942 69.1051C71.301 69.0202 71.3773 68.9551 71.4622 68.9619L76.3299 69.3501C76.4148 69.3569 76.48 69.4333 76.4732 69.5182C76.4664 69.6031 76.39 69.6682 76.3051 69.6614Z" fill="#FFCE00"/>
<path d="M308.733 98C306.214 98.2086 304.209 100.214 304 102.733C303.791 100.214 301.786 98.2086 299.267 98C301.786 97.7915 303.791 95.7861 304 93.2674C304.209 95.7861 306.214 97.7915 308.733 98Z" fill="#0255D9"/>
<path d="M304 107C303.928 107 303.864 106.936 303.864 106.864V99.7727C303.864 99.7006 303.928 99.6364 304 99.6364C304.072 99.6364 304.136 99.7006 304.136 99.7727V106.864C304.136 106.936 304.072 107 304 107Z" fill="#0255D9"/>
<path d="M302.227 98.1363H295.136C295.064 98.1363 295 98.0722 295 98C295 97.9278 295.064 97.8636 295.136 97.8636H302.227C302.299 97.8636 302.364 97.9278 302.364 98C302.364 98.0722 302.299 98.1363 302.227 98.1363Z" fill="#0255D9"/>
<path d="M304 96.3636C303.928 96.3636 303.864 96.2995 303.864 96.2273V89.1364C303.864 89.0642 303.928 89 304 89C304.072 89 304.136 89.0642 304.136 89.1364V96.2273C304.136 96.2995 304.072 96.3636 304 96.3636Z" fill="#0255D9"/>
<path d="M312.864 98.1363H305.773C305.701 98.1363 305.636 98.0722 305.636 98C305.636 97.9278 305.701 97.8636 305.773 97.8636H312.864C312.936 97.8636 313 97.9278 313 98C313 98.0722 312.936 98.1363 312.864 98.1363Z" fill="#0255D9"/>
<path d="M246.733 7.00001C244.214 7.20857 242.209 9.21392 242 11.7326C241.791 9.21392 239.786 7.20857 237.267 7.00001C239.786 6.79146 241.791 4.78611 242 2.2674C242.209 4.78611 244.214 6.79146 246.733 7.00001Z" fill="#FFCE00"/>
<path d="M242 16C241.928 16 241.864 15.9358 241.864 15.8636V8.77271C241.864 8.70052 241.928 8.63635 242 8.63635C242.072 8.63635 242.136 8.70052 242.136 8.77271V15.8636C242.136 15.9358 242.072 16 242 16Z" fill="#FFCE00"/>
<path d="M240.227 7.13637H233.136C233.064 7.13637 233 7.0722 233 7.00001C233 6.92782 233.064 6.86365 233.136 6.86365H240.227C240.299 6.86365 240.364 6.92782 240.364 7.00001C240.364 7.0722 240.299 7.13637 240.227 7.13637Z" fill="#FFCE00"/>
<path d="M242 5.36364C241.928 5.36364 241.864 5.29947 241.864 5.22728V-1.86364C241.864 -1.93583 241.928 -2 242 -2C242.072 -2 242.136 -1.93583 242.136 -1.86364V5.22728C242.136 5.29947 242.072 5.36364 242 5.36364Z" fill="#FFCE00"/>
<path d="M250.864 7.13637H243.773C243.701 7.13637 243.636 7.0722 243.636 7.00001C243.636 6.92782 243.701 6.86365 243.773 6.86365H250.864C250.936 6.86365 251 6.92782 251 7.00001C251 7.0722 250.936 7.13637 250.864 7.13637Z" fill="#FFCE00"/>
<path d="M298.475 183.829C296.001 184.042 294.024 186.01 293.82 188.484C293.607 186.01 291.639 184.033 289.165 183.829C291.639 183.616 293.616 181.648 293.82 179.174C294.033 181.648 296.001 183.625 298.475 183.829Z" fill="#FFCE00"/>
<path d="M293.82 191.64C293.714 191.64 293.625 191.551 293.625 191.445V185.345C293.625 185.239 293.714 185.15 293.82 185.15C293.926 185.15 294.015 185.239 294.015 185.345V191.445C294.015 191.551 293.926 191.64 293.82 191.64Z" fill="#FFCE00"/>
<path d="M292.295 184.015H286.195C286.089 184.015 286 183.926 286 183.82C286 183.714 286.089 183.625 286.195 183.625H292.295C292.401 183.625 292.49 183.714 292.49 183.82C292.49 183.926 292.401 184.015 292.295 184.015Z" fill="#FFCE00"/>
<path d="M293.82 182.49C293.714 182.49 293.625 182.401 293.625 182.295V176.195C293.625 176.089 293.714 176 293.82 176C293.926 176 294.015 176.089 294.015 176.195V182.295C294.015 182.401 293.926 182.49 293.82 182.49Z" fill="#FFCE00"/>
<path d="M301.445 184.015H295.345C295.239 184.015 295.15 183.926 295.15 183.82C295.15 183.714 295.239 183.625 295.345 183.625H301.445C301.551 183.625 301.64 183.714 301.64 183.82C301.64 183.926 301.551 184.015 301.445 184.015Z" fill="#FFCE00"/>
<path d="M146.143 185.654C142.347 185.98 139.313 189.001 139 192.797C138.673 189.001 135.653 185.967 131.857 185.654C135.653 185.327 138.687 182.307 139 178.511C139.326 182.307 142.347 185.341 146.143 185.654Z" fill="#407F3C"/>
<path d="M139 197.64C138.837 197.64 138.701 197.504 138.701 197.341V187.98C138.701 187.817 138.837 187.681 139 187.681C139.163 187.681 139.299 187.817 139.299 187.98V197.341C139.299 197.504 139.163 197.64 139 197.64Z" fill="#407F3C"/>
<path d="M136.66 185.939H127.299C127.136 185.939 127 185.803 127 185.64C127 185.477 127.136 185.341 127.299 185.341H136.66C136.823 185.341 136.959 185.477 136.959 185.64C136.959 185.803 136.823 185.939 136.66 185.939Z" fill="#407F3C"/>
<path d="M139 183.599C138.837 183.599 138.701 183.463 138.701 183.3V173.939C138.701 173.776 138.837 173.64 139 173.64C139.163 173.64 139.299 173.776 139.299 173.939V183.3C139.299 183.463 139.163 183.599 139 183.599Z" fill="#407F3C"/>
<path d="M150.701 185.939H141.34C141.177 185.939 141.041 185.803 141.041 185.64C141.041 185.477 141.177 185.341 141.34 185.341H150.701C150.864 185.341 151 185.477 151 185.64C151 185.803 150.864 185.939 150.701 185.939Z" fill="#407F3C"/>
<path d="M137.562 13.9962C134.605 14.2458 132.246 16.6054 131.996 19.57C131.747 16.6054 129.387 14.2458 126.43 13.9962C129.387 13.7466 131.747 11.3871 131.996 8.42249C132.246 11.3871 134.605 13.7466 137.562 13.9962Z" fill="#E97AF3"/>
<path d="M131.989 25C131.837 25 131.716 24.879 131.716 24.7277V16.144C131.716 15.9928 131.837 15.8718 131.989 15.8718C132.14 15.8718 132.261 15.9928 132.261 16.144V24.7277C132.261 24.879 132.14 25 131.989 25Z" fill="#E97AF3"/>
<path d="M129.848 14.276H121.272C121.121 14.276 121 14.155 121 14.0038C121 13.8525 121.121 13.7315 121.272 13.7315H129.848C130 13.7315 130.121 13.8525 130.121 14.0038C130.121 14.155 130 14.276 129.848 14.276Z" fill="#E97AF3"/>
<path d="M131.989 12.1282C131.837 12.1282 131.716 12.0072 131.716 11.856V3.27226C131.716 3.121 131.837 3 131.989 3C132.14 3 132.261 3.121 132.261 3.27226V11.856C132.261 12.0072 132.14 12.1282 131.989 12.1282Z" fill="#E97AF3"/>
<path d="M142.713 14.2684H134.129C133.978 14.2684 133.857 14.1474 133.857 13.9962C133.857 13.8449 133.978 13.7239 134.129 13.7239H142.713C142.864 13.7239 142.985 13.8449 142.985 13.9962C142.985 14.1474 142.864 14.2684 142.713 14.2684Z" fill="#E97AF3"/>
</g>
<defs>
<linearGradient id="paint0_linear_2763_50564" x1="-22.2037" y1="146.08" x2="40.931" y2="45.0899" gradientUnits="userSpaceOnUse">
<stop offset="0.1" stop-color="#99601A"/>
<stop offset="0.45" stop-color="#D58C27"/>
<stop offset="0.67" stop-color="#F7B60F"/>
<stop offset="0.89" stop-color="#E49826"/>
<stop offset="0.92" stop-color="#D78D27"/>
<stop offset="0.96" stop-color="#C78028"/>
<stop offset="1" stop-color="#C17B28"/>
</linearGradient>
<linearGradient id="paint1_linear_2763_50564" x1="-6.11792" y1="166.56" x2="134.207" y2="96.0445" gradientUnits="userSpaceOnUse">
<stop offset="0.04" stop-color="#704613"/>
<stop offset="0.55" stop-color="#AD6F1A"/>
<stop offset="0.7" stop-color="#F7B60F"/>
<stop offset="0.89" stop-color="#E49826"/>
<stop offset="0.92" stop-color="#D78D27"/>
<stop offset="0.96" stop-color="#C78028"/>
<stop offset="1" stop-color="#C17B28"/>
</linearGradient>
<linearGradient id="paint2_linear_2763_50564" x1="10.7944" y1="148.209" x2="144.089" y2="67.597" gradientUnits="userSpaceOnUse">
<stop stop-color="#8C5818"/>
<stop offset="0.45" stop-color="#D58C27"/>
<stop offset="0.67" stop-color="#F7B60F"/>
<stop offset="0.89" stop-color="#E49826"/>
<stop offset="0.92" stop-color="#D78D27"/>
<stop offset="0.96" stop-color="#C78028"/>
<stop offset="1" stop-color="#C17B28"/>
</linearGradient>
<linearGradient id="paint3_linear_2763_50564" x1="-11.4488" y1="159.749" x2="93.8901" y2="52.6663" gradientUnits="userSpaceOnUse">
<stop offset="0.1" stop-color="#99601A"/>
<stop offset="0.42" stop-color="#D58C27"/>
<stop offset="0.57" stop-color="#F7B60F"/>
<stop offset="0.66" stop-color="#D78D27"/>
<stop offset="0.96" stop-color="#C78028"/>
<stop offset="1" stop-color="#C17B28"/>
</linearGradient>
<linearGradient id="paint4_linear_2763_50564" x1="-46.3989" y1="175.647" x2="56.2873" y2="71.0432" gradientUnits="userSpaceOnUse">
<stop stop-color="#99601A"/>
<stop offset="0.21" stop-color="#D58C27"/>
<stop offset="0.41" stop-color="#F7B60F"/>
<stop offset="0.89" stop-color="#E49826"/>
<stop offset="0.92" stop-color="#D78D27"/>
<stop offset="0.96" stop-color="#C78028"/>
<stop offset="1" stop-color="#C17B28"/>
</linearGradient>
<radialGradient id="paint5_radial_2763_50564" cx="0" cy="0" r="1" gradientUnits="userSpaceOnUse" gradientTransform="translate(398.531 1025.37) rotate(-111.75) scale(25.6471 24.92)">
<stop stop-color="#E8B923"/>
<stop offset="0.77" stop-color="#E8B923" stop-opacity="0"/>
</radialGradient>
<radialGradient id="paint6_radial_2763_50564" cx="0" cy="0" r="1" gradientUnits="userSpaceOnUse" gradientTransform="translate(355.845 1114.75) rotate(-111.75) scale(22.5695 21.9296)">
<stop stop-color="#E8B923"/>
<stop offset="0.77" stop-color="#E8B923" stop-opacity="0"/>
</radialGradient>
<clipPath id="clip0_2763_50564">
<rect width="320" height="194" fill="white"/>
</clipPath>
</defs>
</svg>
