<svg width="320" height="194" fill="none" xmlns="http://www.w3.org/2000/svg">
  <g clip-path="url(#a)">
    <path fill="#05144A" d="M0 0h320v194H0z"/>
    <path opacity=".57" d="M337-1H-13v299h350V-1Z" fill="url(#b)"/>
    <g style="mix-blend-mode:screen">
      <path d="m290.66 20.93 2.16-.86-2.16-.86-.86-2.15-.86 2.15-2.15.86 2.15.86.86 2.16.86-2.16ZM231.5 59.5l2.31-.96-2.31-.98-.93-2.43-.92 2.43-2.32.98 2.32.97.92 2.43.93-2.43ZM79.66 46.81l1.83-.73-1.83-.72-.72-1.83-.73 1.83-1.83.72 1.83.73.73 1.83.72-1.83ZM119.4 18.37l1.82-.73-1.83-.72-.73-1.83-.72 1.83-1.83.72 1.83.73.72 1.83.73-1.83Z" fill="#E19119"/>
      <path d="m29.72 29.45 1.83-.73-1.83-.73-.73-1.83-.73 1.83-1.82.73 1.82.73.73 1.82.73-1.82ZM176.52 21.3l2.98-1.19-2.98-1.19-1.19-2.98-1.19 2.98-2.98 1.2 2.98 1.18 1.2 3 1.18-3ZM64.8 65.64a1.27 1.27 0 1 0-.01-2.55 1.27 1.27 0 0 0 0 2.55ZM117.39 76.3a1.27 1.27 0 1 0 0-2.55 1.27 1.27 0 0 0 0 2.55ZM297.6 33.27a1.27 1.27 0 1 0 0-2.54 1.27 1.27 0 0 0 0 2.54ZM173.65 58.54a1.02 1.02 0 1 0 0-2.05 1.02 1.02 0 0 0 0 2.05ZM11.8 13.55a1.27 1.27 0 1 0 0-2.55 1.27 1.27 0 0 0 0 2.55ZM100.74 56.79a.85.85 0 1 0 0-1.7.85.85 0 0 0 0 1.7ZM50.8 36.73a.85.85 0 1 0 0-1.71.85.85 0 0 0 0 1.7ZM152.95 55.94a1.27 1.27 0 1 0 0-2.54 1.27 1.27 0 0 0 0 2.54ZM90.86 37.7a.85.85 0 1 0 0-1.7.85.85 0 0 0 0 1.7ZM40.92 17.64a.85.85 0 1 0 0-1.7.85.85 0 0 0 0 1.7ZM108.14 32.08a.85.85 0 1 0 0-1.71.85.85 0 0 0 0 1.7ZM98.26 13a.85.85 0 1 0 0-1.71.85.85 0 0 0 0 1.7ZM198.53 48.31a1.02 1.02 0 1 0 0-2.04 1.02 1.02 0 0 0 0 2.04ZM203.3 24.23a1.27 1.27 0 1 0 0-2.54 1.27 1.27 0 0 0 0 2.54Z" fill="#E0E0D3"/>
      <path d="M228.61 35.24a1.27 1.27 0 1 0 0-2.55 1.27 1.27 0 0 0 0 2.55ZM273.71 46.86a1.27 1.27 0 1 0 0-2.55 1.27 1.27 0 0 0 0 2.55Z" fill="#E19119"/>
      <path d="M40.62 63.7c.35 0 .64-.29.64-.63a.64.64 0 0 0-.64-.63.64.64 0 0 0-.65.63c0 .35.29.63.65.63ZM136.49 68.05c.35 0 .63-.28.63-.63a.64.64 0 0 0-.63-.63.64.64 0 0 0-.65.63c0 .35.29.63.65.63ZM134.53 47.05c.36 0 .64-.29.64-.63a.64.64 0 0 0-.64-.63.64.64 0 0 0-.64.63c0 .34.28.63.64.63ZM145.97 16.57c.35 0 .64-.29.64-.63a.64.64 0 0 0-.64-.63.64.64 0 0 0-.64.63c0 .35.28.63.64.63ZM260.16 32.98a1.27 1.27 0 1 0 0-2.54 1.27 1.27 0 0 0 0 2.54ZM243.7 45.1c.36 0 .64-.3.64-.63a.64.64 0 0 0-.64-.63.64.64 0 0 0-.64.63c0 .34.28.63.64.63ZM241.74 24.09c.36 0 .64-.29.64-.63a.64.64 0 0 0-.64-.63.64.64 0 0 0-.64.63c0 .34.28.63.64.63ZM302.43 25.03c.36 0 .64-.29.64-.63a.64.64 0 0 0-.64-.63.64.64 0 0 0-.64.63c0 .35.29.63.64.63ZM177.23 52.06c.28 0 .51-.23.51-.5a.51.51 0 1 0-.5.5ZM259 64.8a1.02 1.02 0 1 0 0-2.05 1.02 1.02 0 0 0 0 2.04ZM283.88 54.57a1.02 1.02 0 1 0 0-2.05 1.02 1.02 0 0 0 0 2.05ZM262.57 58.32c.29 0 .52-.24.52-.52a.51.51 0 1 0-.52.52Z" fill="#E0E0D3"/>
    </g>
    <g style="mix-blend-mode:screen" opacity=".5">
      <path d="m314.66 94.93 2.16-.86-2.16-.86-.86-2.15-.86 2.15-2.15.86 2.15.86.86 2.16.86-2.16ZM255.5 133.5l2.31-.97-2.31-.97-.93-2.43-.92 2.44-2.32.97 2.32.97.92 2.43.93-2.43ZM103.66 120.81l1.83-.73-1.83-.72-.72-1.83-.73 1.83-1.83.72 1.83.73.73 1.83.72-1.83ZM143.4 92.37l1.82-.73-1.83-.72-.73-1.83-.72 1.83-1.83.72 1.82.73.73 1.83.73-1.83Z" fill="#E19119"/>
      <path d="m53.72 103.44 1.83-.72-1.83-.73-.73-1.83-.73 1.83-1.82.73 1.82.72.73 1.83.73-1.83ZM200.52 95.3l2.98-1.19-2.98-1.19-1.19-2.98-1.19 2.98-2.98 1.2 2.98 1.18 1.2 3 1.18-3ZM88.8 139.64a1.27 1.27 0 1 0-.01-2.55 1.27 1.27 0 0 0 0 2.55ZM141.39 150.3a1.27 1.27 0 1 0 0-2.55 1.27 1.27 0 0 0 0 2.55ZM197.65 132.53a1.02 1.02 0 1 0 0-2.04 1.02 1.02 0 0 0 0 2.04ZM35.8 87.55a1.27 1.27 0 1 0 0-2.55 1.27 1.27 0 0 0 0 2.55ZM124.74 130.79a.85.85 0 1 0 0-1.7.85.85 0 0 0 0 1.7ZM74.8 110.73a.85.85 0 1 0 0-1.71.85.85 0 0 0 0 1.7ZM176.95 129.94a1.27 1.27 0 1 0 0-2.54 1.27 1.27 0 0 0 0 2.54ZM114.86 111.7a.85.85 0 1 0 0-1.7.85.85 0 0 0 0 1.7ZM64.92 91.64a.85.85 0 1 0 0-1.7.85.85 0 0 0 0 1.7ZM132.14 106.08a.85.85 0 1 0 0-1.71.85.85 0 0 0 0 1.7ZM122.26 87a.85.85 0 1 0 0-1.71.85.85 0 0 0 0 1.7ZM222.53 122.31a1.02 1.02 0 1 0 0-2.04 1.02 1.02 0 0 0 0 2.04ZM227.3 98.23a1.27 1.27 0 1 0 0-2.54 1.27 1.27 0 0 0 0 2.54Z" fill="#E0E0D3"/>
      <path d="M252.61 109.24a1.27 1.27 0 1 0 0-2.55 1.27 1.27 0 0 0 0 2.55ZM297.71 120.86a1.27 1.27 0 1 0 0-2.55 1.27 1.27 0 0 0 0 2.55Z" fill="#E19119"/>
      <path d="M21.64 100.8c.36 0 .64-.3.64-.64a.64.64 0 0 0-.64-.63.64.64 0 0 0-.64.63c0 .35.28.63.64.63ZM64.62 137.7c.35 0 .64-.29.64-.63a.64.64 0 0 0-.64-.63.64.64 0 0 0-.65.63c0 .35.29.63.65.63ZM160.49 142.06c.35 0 .63-.3.63-.64a.64.64 0 0 0-.63-.63.64.64 0 0 0-.65.63c0 .35.29.64.65.64ZM158.53 121.05c.36 0 .64-.29.64-.63a.64.64 0 0 0-.64-.63.64.64 0 0 0-.64.63c0 .34.28.63.64.63ZM169.97 90.57c.35 0 .64-.29.64-.63a.64.64 0 0 0-.64-.63.64.64 0 0 0-.64.63c0 .35.28.63.64.63ZM284.16 106.98a1.27 1.27 0 1 0 0-2.54 1.27 1.27 0 0 0 0 2.55ZM267.7 119.1c.36 0 .64-.3.64-.63a.64.64 0 0 0-.64-.64.64.64 0 0 0-.64.64c0 .34.28.63.64.63ZM265.74 98.09c.36 0 .64-.29.64-.63a.64.64 0 0 0-.64-.63.64.64 0 0 0-.64.63c0 .34.28.63.64.63ZM201.23 126.06c.28 0 .51-.23.51-.5a.51.51 0 1 0-.5.5ZM283 138.8a1.02 1.02 0 1 0 0-2.05 1.02 1.02 0 0 0 0 2.04ZM307.88 128.57a1.02 1.02 0 1 0 0-2.05 1.02 1.02 0 0 0 0 2.05ZM286.57 132.32c.29 0 .52-.24.52-.52a.51.51 0 1 0-.52.52Z" fill="#E0E0D3"/>
    </g>
    <path d="M248.24 142.85s-.42 8.02-.22 9.56c.27 1.52-1.06 3.92-1.06 3.92 2.58 1.5 5.2.98 6.46-2.04-2.55-2.38-1.8-8.6-1.3-11.81-1.73-1.26-3.88.37-3.88.37Z" fill="#3A3D3F"/>
    <path opacity=".13" d="M250.75 153.96c.06.92.25 2.03.5 2.84a4.4 4.4 0 0 0 2.17-2.51c-1.08-.98-1.54-2.67-1.74-4.5-.42 1.31-.94 3.16-.93 4.17ZM248.8 142.51c.2 1.18.47 2.7.41 4.02 0 1.22-.64 3.53-1.23 5.39.05.2.01.36.04.5.27 1.52-1.06 3.91-1.06 3.91.66.36 1.22.59 1.83.74a45.7 45.7 0 0 0 1.2-6.11c.17-1.84.48-6.52.51-8.9-.22-.03-.35 0-.56.05-.42.02-.82.19-1.13.4Z" fill="#3B2345"/>
    <path d="M291.38 192.26c-2.21 9.83-9.1 11.3-9.1 11.3s-5.24 4.71-13.58.98c-1.48 1.1-2.9 2-4.31 2.76-6.65 3.56-12.87 3.53-22.5 1.74-6.26 2.74-12.9.1-16.15-6.19-1.32-2.49-3.05-7.77-4.02-13.62-.78-4.74-1.05-9.85-.18-14.13a18.27 18.27 0 0 1 1.36-4.18c.35-.7.74-1.35 1.2-1.94a9.07 9.07 0 0 1 2.66-2.37 46.42 46.42 0 0 1 4.51-4.5c3.1-2.59 5.81-3.52 9.13-2.5 0 0 3.64-2.99 8.36-4.58a16.17 16.17 0 0 1 6.48-.94c1.52.13 3.03.53 4.48 1.34 4.2-2.93 9-1.09 12.03.58.99.54 1.79 1.06 2.32 1.4l.6-.1c5.04-.54 8.54 5.2 10.65 8.87a61.86 61.86 0 0 1 3.55 7.5 53.94 53.94 0 0 1 1.9 5.84c1.06 4.16 1.55 8.67.6 12.74Z" fill="#365363"/>
    <path opacity=".13" d="M255.24 154.09c.1.04 3.54.96 5.88 4.84 0 0 .42-2.11-1.4-3.5-1.45-.8-2.97-1.21-4.48-1.34ZM271.76 156c1.71 1.35 3.2 4.52 3.2 4.52.6-1.24-.25-3.12-.3-3.2-.19.01-.4.05-.6.09-.52-.34-1.32-.86-2.3-1.4ZM231.28 162.1c5.83-.87 7.4 5.34 7.4 5.34 1.43-7.77 9.82-12.28 10.08-12.41-4.72 1.6-8.36 4.59-8.36 4.59-3.32-1.03-6.04-.1-9.12 2.48Z" fill="#2A4563"/>
    <g opacity=".25" fill="#1A2A38">
      <path d="M241.2 169.02c.09-.01.09-.01.07-.1.22-2.52.47-5.42 1.87-7.95l-.03-.18-.18.03c-1.39 2.63-1.64 5.52-1.86 8.04.03.09.04.18.13.16ZM234.86 175.41c.1-.01.07-.1.07-.1a5.86 5.86 0 0 1 .21-2.62l.15-.76a34.85 34.85 0 0 1 1.49-6.96c-.02-.09-.02-.09-.12-.16-.1.01-.1.01-.17.12a34.85 34.85 0 0 0-1.49 6.96c-.04.28-.08.56-.14.76-.05.83-.28 1.6-.12 2.6.02.09.12.16.12.16ZM232.8 175.67c.1-.02.1-.02.08-.1.17-2.8.27-6.03 1.47-8.72l-.03-.17c-.1 0-.1 0-.18.03-1.19 2.77-1.37 6.02-1.46 8.8-.07.1.04.17.12.16-.08 0-.08 0 0 0ZM236.78 178.13c-.1.02-.1.02-.17.12-.91 3.83-.15 7.84.67 11.66l.1.63c.02.09.1.07.1.07.1-.02.08-.1.08-.1l-.1-.63c-.83-3.82-1.57-7.74-.65-11.57.07-.1.05-.2-.03-.18ZM253.38 176.65c-.14.06-.14.06-.24.23-.56 5.24 1.64 9.9 3.89 14.29l.32.73c.04.1.18.05.18.05.14-.06.1-.17.1-.17l-.32-.73c-2.25-4.39-4.4-8.95-3.84-14.18.1-.17.05-.28-.1-.22ZM265.6 177.28c.02.09.02.09 0 0l.18-.03c.35-.6-.13-2.37-.78-4.1-.15-.34-.2-.7-.24-.88-1.45-5.46-3.22-11.7-6.56-16.93-.02-.1-.1-.08-.2-.06-.08.01-.07.1-.05.2 3.34 5.23 5.2 11.45 6.55 16.84.03.17.18.52.24.88.37 1.13 1.1 3.3.73 3.83.03.18.04.27.13.25ZM256.4 158.3c0-.09 0-.09-.11-.16-.1.01-.1.01-.17.12 0 .46 0 1.02-.07 1.76-.19 3.25-.5 8.54.58 10.02l.1.07.1-.01c.08-.02.06-.1.05-.2-.95-1.31-.66-6.7-.45-9.86-.11-.62-.04-1.28-.02-1.74ZM264.55 159.98c.15.34.3.78.44 1.03.01.1.1.07.1.07.1-.01.08-.1.07-.2-.14-.25-.3-.68-.45-1.02-.61-1.47-1.3-3.37-2.79-4.14l-.18.04.03.17c1.5.77 2.26 2.57 2.78 4.05ZM270.88 160.12c.22.24.35.5.59.82l.1.07h.1c.08-.02.07-.11.05-.2-.22-.24-.35-.5-.59-.82-.83-1.15-1.66-2.3-2.98-3.1l-.18.04.03.18c1.23.8 2.04 1.86 2.88 3.01ZM277.15 183.74c.23.72.3 1.4.51 2.35l.13.25.16.02c.16.02.2-.2.23-.43-.24-.72-.31-1.41-.51-2.35-.72-3.3-1.43-6.6-3.2-9.36l-.33-.04-.06.45c1.61 2.73 2.35 5.8 3.07 9.1ZM288.92 179c.09 0 .07-.1.07-.1-.85-4.55-2.85-11.02-7.87-15.98-.01-.1-.1-.07-.18.03-.09.02-.07.1.03.18 4.94 4.97 7.01 11.34 7.77 15.9l.18-.02ZM284.3 174.35c.06.36.22.79.28 1.15.02.09.1.07.1.07.1-.01.08-.1.07-.2-.15-.34-.21-.7-.29-1.14a3.3 3.3 0 0 0-.25-.97 30.5 30.5 0 0 0-3.27-6.45c-.01-.09-.1-.07-.19-.06-.09.02-.07.1-.06.2a29.15 29.15 0 0 1 3.27 6.44c.22.24.28.6.34.96ZM278.89 172.28c.06.36.22.79.28 1.15.01.09.1.07.1.07.1-.01.08-.1.06-.2-.15-.34-.2-.7-.28-1.14a3.33 3.33 0 0 0-.25-.97 30.56 30.56 0 0 0-3.27-6.45c-.02-.09-.1-.07-.2-.06-.08.02-.07.1-.05.2a29.07 29.07 0 0 1 3.26 6.44c.23.24.29.6.35.96Z"/>
    </g>
    <path opacity=".13" d="M290.07 177.07c.5 3.42.63 6.86.13 10.03-1.75 11.81-8.64 13.27-8.64 13.27s-5.08 5.46-13.69.52a31.3 31.3 0 0 1-4.22 3.14c-6.55 4-12.84 3.66-22.66 1.03-6.2 3.02-13.05-.52-16.62-8.28a51.56 51.56 0 0 1-2.65-7.57c-.97-5.88-1.15-12.35.65-17.08 1.65 5.5 4.9 11.2 11.1 14.96 7.28 4.4 26.66-3.6 30.23-19.45 0 0 13.6 14.57 15.03 2.64 0 0 7.26 4.28 8.45-.55a61.89 61.89 0 0 1 2.89 7.34Z" fill="#152635"/>
    <path opacity=".13" d="M291.38 192.26c-2.21 9.83-9.1 11.3-9.1 11.3s-5.24 4.71-13.58.98c-1.48 1.1-2.9 2-4.31 2.76-6.65 3.56-12.87 3.53-22.5 1.74-6.26 2.74-12.9.1-16.15-6.19-1.32-2.49-3.05-7.77-4.02-13.62-.78-4.74-1.05-9.85-.18-14.13 1 6.03 4.12 14.87 13.6 19.39 7.04 3.35 26.57-4.02 30.73-17.26 0 0 12.9 11.5 14.79 1.6 0 0 10.82 5 8.21-5.14a53.83 53.83 0 0 1 1.9 5.84c1.06 4.15 1.55 8.66.6 12.73Z" fill="#152635"/>
    <path d="M157.46 153.14c.66.45 1.94 1.55 3.16 2.16.57.28 1.12.47 1.59.42 1.45-.13 5.02-1.96 4.67-3.7a2.86 2.86 0 0 0-1.1-1.53 8.68 8.68 0 0 0-1.64-1.02c-.54-.26-.94-.4-.94-.4l.2-.02.17-.01c.38-.02 1-.03 1.48.1a6.3 6.3 0 0 1 .62.41c.27.2.52.4.75.63l.14.13.16.17.14.16.17.18.19.24.27.36a10.4 10.4 0 0 1 .8 1.39l.08.17.05.1.01.04.1.24c.11.25.2.48.28.72l.06.18.1.33.11.4a6.6 6.6 0 0 1 .16.72c.15.7.23 1.33.27 1.86.16 1.26-1.69 3.31-3.3 4.84-1.22 1.15-2.3 2-2.3 2l23.67-1.46s-.77-.47-1.84-1.2a49.58 49.58 0 0 1-4.03-2.96 13.92 13.92 0 0 1-2.1-2.1l-.83-1.06c-1.86-2.35-3.8-4.45-4.97-5.95-1.35-1.73-4.57-3.95-4.57-3.95s-1.29-1-2.43-1.61c-.3-.16-.57-.28-.82-.36a3.25 3.25 0 0 0-1.42.1c-.3.07-.6.16-.93.25l-.34.11a23.62 23.62 0 0 0-1.95.75l-.2.1-.25.1-.22.1c-.5.25-.95.5-1.3.73l-.08.06c-.07.04-.13.08-.18.13-.26.2-.43.38-.49.53-.39 1.04-2.14 5.75-1.17 6.42Z" fill="#3A3D3F"/>
    <path opacity=".13" d="M166.2 162.4h18.96s.32-.26.57-.66a49.5 49.5 0 0 1-4.02-2.97 13.91 13.91 0 0 1-2.1-2.09l-.84-1.07c-3.43 1.65-7.07-1.48-9.15-3.75-2.26-2.5-4.28-2.82-4.56-2.85h-.03l.03.02a6.45 6.45 0 0 1 .6.51 7.28 7.28 0 0 1 .88.76l.17.17.14.16.16.19a6.48 6.48 0 0 1 .47.6 10.4 10.4 0 0 1 .88 1.55l.05.1.01.04.1.24a10.08 10.08 0 0 1 .44 1.24l.11.4a6.95 6.95 0 0 1 .17.7c.14.7.22 1.34.26 1.87.17 1.26-1.68 3.31-3.3 4.84Z" fill="#3B2345"/>
    <path opacity=".28" d="M166.2 162.4h6.66c2.46-.89 3.8-1.84 2.14-2.68a15.42 15.42 0 0 1-6.59-6.65c.73 1.64 1 3.33 1.1 4.49.16 1.26-1.69 3.31-3.3 4.84Z" fill="#3B2345"/>
    <path d="M134.32 211.6c3.35 7.57 11.77 11.46 20.5 9.16 12.53 3.29 20.78 4.14 30.16.94 1.98-.68 4-1.53 6.14-2.58 10.51 5.34 18.19.66 18.19.66s9.38-.79 13.8-11.69c4.54-10.92-1.74-25.88-4.08-30.5-2.25-4.44-6.02-11.45-12.81-11.48-.27 0-.53 0-.8.02-.66-.45-1.64-1.14-2.87-1.89-3.78-2.3-9.88-5.02-15.9-2.23a16.12 16.12 0 0 0-5.76-2.1 25.3 25.3 0 0 0-8.74.21c-6.51 1.2-11.8 4.14-11.8 4.14-4.27-1.6-8.02-.9-12.51 1.65a62.23 62.23 0 0 0-6.69 4.54c-14.52 5.5-10.32 33.6-6.83 41.15Z" fill="#024"/>
    <path opacity=".13" d="M157.46 153.14c.66.45 1.94 1.55 3.16 2.16.57.28 1.12.47 1.59.42 1.45-.13 5.02-1.96 4.67-3.7a2.86 2.86 0 0 0-1.1-1.53s-.47.5-1.22.92c-1.22.69-3.18 1.18-5.1-.99-3-3.4 4.68-6.4 5.1-6.56-.3.06-.6.15-.92.24l-.34.11c-.41.14-.84.29-1.25.46l-.37.15a8.52 8.52 0 0 0-.54.23l-.24.11-.22.1c-.5.25-.96.5-1.3.73l-.09.06-.18.13c-.26.2-.43.38-.48.53-.39 1.05-2.14 5.76-1.17 6.43Z" fill="#3B2345"/>
    <path opacity=".28" d="M160.05 150.36c.06.5.46.98.46.98-.22-1.98 3.63-1.87 3.63-1.87-.54-.26-.94-.4-.94-.4l.2-.03-2.9.27s-.52.56-.45 1.05ZM162.48 147.51c.29 1.14 2.55 1.5 2.55 1.5a3.57 3.57 0 0 1 1.78-4.9c-.3-.16-.58-.28-.83-.36a3.23 3.23 0 0 0-1.41.1h-.01l-.86.24c-.4.64-1.46 2.5-1.22 3.42Z" fill="#3B2345"/>
    <path opacity=".28" d="M160.61 155.3c.57.28 1.13.46 1.6.42 1.45-.14 5.02-1.97 4.66-3.71a2.86 2.86 0 0 0-1.1-1.53 8.72 8.72 0 0 0-1.64-1.01c-.54-.26-.93-.4-.93-.4l.2-.03h.16c-.73-.13-1.6-.1-2.56.27 0 0 2.8.64 3.55 2.1.13.24.2.5.19.8-.08 2.01-1.77 3.55-4.13 3.08Z" fill="#3B2345"/>
    <path opacity=".28" d="M165.03 149.01c-.98-.03-1.97-.04-2.96 0-.49.03-.98.05-1.48.17-.13.03-.3.1-.37.21-.5.82-.11 2.12.5 2.84.24.26.7.48 1.11.33.57-.15 1.34-.57 1.1-1.17a1.04 1.04 0 0 0-.46-.5c.35.27.56.74.2 1.06-.3.26-.78.47-1.21.44-.97-.27-1.28-1.86-1.14-2.62.05-.18.11-.34.34-.4 1.41-.3 2.92-.28 4.37-.36Z" fill="#3B2345"/>
    <path d="M134.32 211.6c3.35 7.57 11.77 11.46 20.5 9.16 12.53 3.29 20.79 4.14 30.16.94-1.33-.97-2.85-2-4.56-3.1-38.93-24.97-20.06-54.34-20.06-54.34-6.2-2.33-11.32.23-19.19 6.19-14.53 5.5-10.34 33.6-6.85 41.15Z" fill="#2A4563" style="mix-blend-mode:multiply" opacity=".25"/>
    <path opacity=".25" d="M180.9 159.9c.13.06 4.56 1.56 7.1 6.29 0 0 .87-2.36-1.34-4.18a16.04 16.04 0 0 0-5.75-2.1ZM202.56 164.24c2.07 1.75 3.56 5.55 3.56 5.55.99-1.33.14-3.58.1-3.69-.26 0-.53 0-.8.03-.66-.45-1.64-1.15-2.86-1.9ZM147.85 165.9c7.89-.23 9.02 7.06 9.02 7.06 3.08-8.68 14.92-12.71 15.29-12.84-6.5 1.2-11.8 4.14-11.8 4.14-4.26-1.6-8.01-.9-12.5 1.65Z" fill="#2A4563"/>
    <g opacity=".25" fill="#2A4563">
      <path d="M159.98 175.09c.12 0 .12 0 .12-.11.67-2.85 1.44-6.1 3.7-8.81l-.02-.2h-.24c-2.24 2.81-3.01 6.07-3.69 8.91 0 .1.01.21.13.2ZM150.6 181.54c.12 0 .11-.11.11-.11-.06-1.15.24-2 .67-2.95.1-.31.2-.53.31-.84a36.08 36.08 0 0 1 3.03-7.73c0-.12 0-.12-.13-.21-.12 0-.12 0-.23.11a36.23 36.23 0 0 0-3.04 7.74c-.1.31-.2.63-.31.85-.19.94-.61 1.8-.55 2.94.01.1.14.2.14.2ZM147.82 181.56c.12 0 .12 0 .12-.12.65-3.15 1.28-6.82 3.28-9.72l-.01-.2h-.25c-1.99 3-2.73 6.68-3.27 9.83-.11.11.01.21.13.2-.12.01-.12.01 0 0ZM152.73 184.88c-.12 0-.12 0-.24.12-1.8 4.24-1.4 8.9-.89 13.37l.05.72c0 .1.12.1.12.1.12 0 .12-.11.12-.11l-.04-.73c-.51-4.45-.9-9.02.9-13.27.1-.1.1-.2-.02-.2ZM154.6 188.6c0-.11 0-.11-.13-.1-.11 0-.11 0-.1.1-.06 1.05-.24 2.2-.41 3.36-.53 3.35-1.04 6.91.71 9.86 0 .1.13.1.13.1h.12c.11-.01.1-.12.1-.22-1.62-2.84-1.1-6.4-.58-9.76-.07-1.25.1-2.3.16-3.34ZM164.94 194.52c.12 0 .11-.11.1-.21a14.64 14.64 0 0 1-.76-4.66c0-.1-.12-.1-.12-.1-.12.01-.12.12-.12.12.11 1.76.33 3.42.77 4.75.01.1.13.1.13.1ZM179.14 194.66c2.32-1.46 3.36-4.22 3.61-6.2 0-.11 0-.11-.13-.2-.12 0-.12 0-.24.1-.23 2.1-1.4 4.76-3.5 6-.12 0-.12.1 0 .2.02.1.13.1.26.1-.13 0-.13 0 0 0ZM183.02 192.92c.11 0 .24 0 .23-.11 1.17-2.76 1.63-5.08 1.25-7.35 0-.1-.13-.1-.13-.1-.11.01-.1.11-.1.11.24 2.18-.1 4.49-1.26 7.25-.12.1-.12.1 0 .2ZM191.15 187.67c0 .1 0 .1 0 0l.24-.01c.56-.65.2-2.72-.4-4.77-.15-.41-.18-.83-.2-1.04-1.1-6.4-2.5-13.74-6.15-20.14 0-.1-.13-.1-.24-.09-.12 0-.12.11-.11.21 3.64 6.4 5.16 13.73 6.14 20.04.01.2.16.62.19 1.03.32 1.34.95 3.92.39 4.47.01.2.02.3.14.3ZM181.82 164.86c0-.11 0-.11-.14-.2-.11 0-.11 0-.23.1-.09.53-.18 1.16-.37 2-.74 3.68-1.95 9.67-.75 11.5l.12.09h.12c.12-.01.12-.12.1-.22-1.05-1.62.15-7.71.9-11.28-.04-.73.16-1.47.25-2ZM192.37 167.83c.14.4.3.92.44 1.23 0 .1.12.1.12.1.12-.01.12-.12.11-.22-.14-.3-.3-.82-.44-1.23-.58-1.74-1.2-4-3.07-5.07l-.25.01.01.2c1.88 1.07 2.61 3.23 3.08 4.98ZM201.17 187.29c.13 0 .13 0 0 0h.25l-.01-.22a8 8 0 0 1-2.18-2.09c-.4-.5-.79-1-1.3-1.4 0-.1-.12-.1-.24.01-.11 0-.1.11.02.2.5.4.9.9 1.29 1.4.52.72 1.18 1.62 2.17 2.1ZM206.25 189.46c.12 0 .12-.1.12-.1 0-.11 0-.11-.13-.1-2.18-.12-4.73-.42-6.4-1.91 0-.1-.12-.1-.23 0-.12.01-.12.12 0 .21 1.79 1.49 4.34 1.8 6.64 1.9ZM200.76 168.81c.26.3.4.6.67 1.01l.12.1h.12c.12-.01.11-.12.1-.22-.25-.3-.4-.6-.66-1-.93-1.42-1.86-2.84-3.49-3.91h-.24l.01.21a13.26 13.26 0 0 1 3.37 3.81ZM221.85 192.67c.12 0 .12-.11.12-.11-.44-5.3-2.1-12.93-8.03-19.23 0-.1-.13-.1-.25.01-.11 0-.1.11.02.2 5.8 6.31 7.58 13.84 7.9 19.13h.24ZM217.3 203.39c.13 0 .13 0 .24-.12.52-3.46.8-6.9-.12-10.1 0-.1-.13-.1-.24-.09-.12 0-.12.11-.11.21.92 3.19.63 6.54.12 10-.01 0 0 .1.12.1ZM216.43 186.76c.03.42.18.93.2 1.35 0 .1.13.1.13.1.12-.01.11-.12.1-.22-.14-.4-.16-.82-.2-1.34a3.44 3.44 0 0 0-.18-1.14 31.78 31.78 0 0 0-3.36-7.76c0-.11-.13-.1-.25-.1s-.11.11-.1.21a30.33 30.33 0 0 1 3.35 7.77c.27.3.29.72.31 1.13Z"/>
    </g>
    <path d="M116.3 100.7s-5.1 8.37-5.68 10.14c-.5 1.78-3.64 3.6-3.64 3.6 2.63 3.06 6.45 3.97 9.86 1.44-2.1-3.98 2.42-10.23 4.91-13.4-1.62-2.32-5.45-1.77-5.45-1.77Z" fill="#3A3D3F"/>
    <path opacity=".13" d="M113.42 114.03a13.04 13.04 0 0 0-.92 3.32 6.6 6.6 0 0 0 4.34-1.47c-.91-1.66-.57-3.73.2-5.8-1.32 1.17-3.06 2.86-3.62 3.95ZM117.26 100.66c-.4 1.38-.89 3.16-1.72 4.54-.7 1.3-2.86 3.42-4.7 5.1-.05.24-.2.38-.23.55-.5 1.78-3.63 3.6-3.63 3.6.69.75 1.3 1.31 2.04 1.82a50.2 50.2 0 0 0 5.09-5.88c1.25-1.87 4.3-6.72 5.7-9.26-.28-.15-.48-.2-.79-.26a3.96 3.96 0 0 0-1.76-.2Z" fill="#3B2345"/>
    <path d="M146.64 177.92c-8.53 9.3-18.66 7-18.66 7s-9.73 2.12-18.88-6.58c-2.61.34-5.05.52-7.37.54-10.99.09-19.36-3.44-31.35-10.77-10-.58-17.47-7.16-18.3-15.7-.4-3.42.25-10.06 2.26-16.88 1.62-5.52 4.15-11.15 7.73-15.25a21.4 21.4 0 0 1 4.2-3.71 15.27 15.27 0 0 1 7.64-2.46 71.8 71.8 0 0 1 8.63-2.29c5.63-1.03 9.82-.51 13.73 2.46 0 0 6.6-1.17 13.87-.23 3.13.4 6.38 1.2 9.27 2.64 1.98.99 3.8 2.28 5.3 3.95 7.32-.79 12.76 3.9 15.91 7.38 1.02 1.14 1.8 2.14 2.34 2.8.3.07.58.15.85.24 7.14 2.25 8.6 10.38 9.4 15.49a61.93 61.93 0 0 1 .55 10.03 52.4 52.4 0 0 1-.75 7.33c-.91 5.06-2.8 10.18-6.37 14Z" fill="#365363"/>
    <path opacity=".13" d="M119.4 116.7c.12.09 4.24 3.01 5.22 8.5 0 0 1.76-2.04.08-4.56a17.41 17.41 0 0 0-5.3-3.95ZM140.63 128.03c1.55 2.4 1.77 6.63 1.77 6.63 1.5-.98 1.42-3.49 1.41-3.6l-.86-.23c-.52-.67-1.3-1.67-2.32-2.8ZM82.54 111.82c8.37 2.35 6.97 9.89 6.97 9.89 6.32-7.54 20.19-7.66 20.62-7.66-7.26-.94-13.87.23-13.87.23-3.9-2.97-8.1-3.5-13.72-2.46Z" fill="#2A4563"/>
    <g opacity=".25" fill="#1A2A38">
      <path d="M92.02 124.82c.13.03.13.03.16-.07 1.72-2.58 3.69-5.54 7.02-7.47l.06-.2-.25-.08c-3.36 2.04-5.33 5-7.05 7.58-.03.1-.06.2.06.24ZM79.87 128.1c.13.04.16-.06.16-.06a6.1 6.1 0 0 1 1.75-2.68c.22-.28.41-.46.63-.73.21-.29.44-.56.69-.95a39.05 39.05 0 0 1 5.25-5.69c.03-.1.03-.1-.07-.24-.12-.03-.12-.03-.28.04a38.58 38.58 0 0 0-5.25 5.68c-.22.29-.44.56-.7.95-.21.28-.44.55-.62.73-.54.87-1.29 1.57-1.63 2.71-.03.11.07.25.07.25ZM76.95 127.22c.13.04.13.04.16-.06 1.81-2.9 3.77-6.31 6.9-8.52l.06-.2-.25-.07c-3.17 2.3-5.25 5.69-6.93 8.61-.17.07-.07.21.06.24-.13-.03-.13-.03 0 0ZM80.92 132.1c-.13-.03-.13-.03-.29.04-3.4 3.6-4.64 8.32-5.69 12.87l-.2.73c-.04.11.09.14.09.14.13.04.16-.07.16-.07l.21-.73c1.05-4.55 2.26-9.18 5.66-12.77.15-.07.19-.18.06-.21ZM104.16 139.84c-.23-.01-.23-.01-.45.11-3.7 5.3-3.37 11.54-2.82 17.5l.02.98c0 .13.23.15.23.15.22.01.22-.13.22-.13l-.02-.96c-.56-5.98-.9-12.07 2.82-17.37.22-.13.22-.27 0-.28ZM81.57 136.37c.03-.1.03-.1-.1-.14-.12-.03-.12-.03-.16.07-.43 1-1.02 2.09-1.61 3.17-1.75 3.13-3.55 6.47-2.76 9.94-.03.11.1.14.1.14l.12.03c.13.04.16-.07.19-.17-.69-3.33 1.11-6.67 2.86-9.81.36-1.25.92-2.22 1.36-3.23ZM71.29 144.27c-.13-.04-.16.06-.16.06-1.63 4.63-1.67 14.74 1.88 19.16l.13.03.12.04.07-.21c-3.42-4.4-3.58-14.32-1.82-18.92-.13-.03-.1-.13-.22-.16ZM81.87 167.3c.22.17.58.38.8.55.36.21.59.38.78.66l.2.28c.64.62 1.36 1.48 1.97 1.76.13.03.13.03.16-.07s.03-.1-.07-.25c-.48-.24-1.2-1.1-1.84-1.72l-.2-.28c-.19-.28-.55-.48-.9-.69-.23-.17-.58-.38-.81-.55-1.62-1.56-2.64-3.29-3.58-5.78.03-.1-.1-.14-.25-.07-.16.07-.16.07-.06.2a15.5 15.5 0 0 0 3.8 5.96ZM104.17 164.01c.1.23.33.54.44.77.22.31.33.54.36.85l.03.31c.26.78.45 1.78.87 2.25.1.07.1.07.19 0 .08-.08.08-.08.06-.24-.31-.38-.5-1.39-.76-2.16l-.03-.31a2.13 2.13 0 0 0-.47-.93c-.11-.23-.33-.54-.44-.78-.66-1.93-.65-3.79-.14-6.26.08-.08-.02-.16-.2-.16-.2 0-.2 0-.18.16-.48 2.63-.39 4.57.27 6.5ZM110.05 157.24c.05.25.17.58.21.82.12.34.17.59.1.89l-.06.3c.02.78-.1 1.77.17 2.3.08.1.08.1.19.04.1-.05.1-.05.14-.2-.2-.44-.08-1.42-.1-2.21l.06-.3c.07-.3-.05-.64-.17-.98-.05-.24-.17-.58-.21-.82-.06-1.97.51-3.72 1.77-5.96.1-.06.03-.15-.16-.19-.18-.04-.18-.04-.21.11-1.29 2.38-1.78 4.23-1.73 6.2ZM95.55 167.34s1.21 2.45 1.77 3.4c.1.13.1.13.07.24l.1.13s.12.04.16-.06c.03-.11.03-.11-.14-.49l-.13-.03c-.46-.8-1.31-2.6-1.68-3.26-1.42-3.18-1.85-6.45-2.29-9.7-.06-.25-.04-.35-.1-.6-.1-.59-.2-1.18-.16-1.84.03-.1-.1-.14-.22-.17-.13-.03-.16.07-.2.17-.04.66.06 1.25.17 1.84.06.25.03.35.1.6.56 3.28 1.12 6.58 2.55 9.77ZM90.33 145.57c.13.04.16-.06.19-.17 0-1.46.24-3.2.85-4.83.03-.1-.1-.14-.1-.14-.12-.03-.15.07-.15.07a18.86 18.86 0 0 0-.89 4.94c-.03.1.1.13.1.13ZM120.3 147.38c-.03.1-.03.1 0 0l.26.07c.82-.46 1.17-2.61 1.27-4.84 0-.45.11-.86.18-1.08 1.11-6.67 2.24-14.35.69-21.84.03-.1-.1-.14-.23-.17-.13-.04-.16.06-.19.17 1.55 7.5.55 15.2-.66 21.74-.06.2-.05.66-.18 1.08-.14 1.42-.38 4.17-1.18 4.52-.06.2-.09.31.04.35ZM118.6 121.86c.03-.1.03-.1-.06-.24-.13-.03-.13-.03-.29.04-.28.48-.59 1.08-1.09 1.84-2.1 3.38-5.5 8.88-4.89 11.07l.1.14.13.03c.13.03.16-.07.2-.18-.55-1.94 2.88-7.55 4.94-10.82.22-.72.68-1.39.97-1.88ZM128.64 128.24c0 .45-.02 1 .02 1.35-.03.11.1.14.1.14.13.03.16-.07.19-.17-.04-.35-.02-.9-.02-1.36 0-1.9.16-4.34-1.44-6l-.25-.07-.06.2c1.6 1.67 1.6 4.03 1.46 5.9ZM137.1 131.94c.17.39.21.73.34 1.22l.1.14.13.03c.12.03.16-.07.18-.18-.16-.38-.2-.73-.33-1.21-.47-1.7-.95-3.4-2.28-4.99l-.26-.07-.06.2c1.21 1.57 1.71 3.17 2.19 4.86ZM132.25 160.79c-.1.9-.4 1.69-.65 2.81l.04.34.2.1c.2.12.38-.1.55-.32.09-.9.39-1.7.64-2.82.9-3.94 1.8-7.88.97-11.83l-.41-.22-.34.44c.63 3.84-.1 7.56-1 11.5ZM150.8 162.32c.12.04.15-.06.15-.06 1.43-5.36 2.4-13.42-1.6-21.56.03-.1-.1-.14-.26-.07-.13-.03-.16.07-.06.2 3.86 8.11 3.06 16.1 1.5 21.42l.26.07ZM146.63 175c1.96-1.18 2.92-4.43 3.58-6.73.07-.43.25-.73.3-1.05.02-.1.02-.1-.1-.13-.14-.03-.14-.03-.15.08-.06.32-.26.72-.31 1.04-.65 2.2-1.5 5.58-3.42 6.66-.16.08-.16.08-.04.21.02-.1.02-.1.14-.08ZM142.2 171.4c.13.03.13.03.3-.04 1.77-3.24 3.28-6.55 3.46-9.98.03-.1-.1-.14-.23-.17s-.16.07-.2.17c-.16 3.44-1.65 6.64-3.42 9.88 0 0-.03.1.1.14ZM132.14 173.67c1.96-1.5 2.7-3.55 3.4-5.5.22-.73.53-1.32.87-2.02.03-.1.03-.1-.1-.14-.12-.03-.12-.03-.16.07-.34.7-.55 1.43-.86 2.02-.74 2.05-1.44 4-3.37 5.4l-.07.2.13.03c.13.05.16-.06.16-.06ZM119.9 173.85a26.63 26.63 0 0 0 6.21-8.02c.03-.1.03-.1-.06-.24-.13-.03-.13-.03-.29.03a23.6 23.6 0 0 1-6.05 7.95c-.02.11-.02.11.07.25l.13.03c-.03.1-.03.1 0 0ZM115.97 173.14c.12.04.12.04.16-.06 1.16-1.6 1.7-3.49 2.25-5.37l.46-1.56c.03-.1-.1-.14-.1-.14-.13-.03-.16.07-.16.07l-.46 1.56c-.54 1.89-1.1 3.76-2.25 5.37-.13-.04 0 0 .1.13ZM118.3 162.32c.13.04.13.04.16-.06 1.16-1.6 1.7-3.48 2.25-5.36l.46-1.57c.03-.1-.1-.14-.1-.14-.13-.03-.15.07-.15.07l-.46 1.57c-.55 1.88-1.1 3.75-2.26 5.36-.13-.04 0 0 .1.13ZM147.2 154.74c-.13.42-.15.97-.27 1.39-.03.1.1.14.1.14.12.03.16-.07.19-.18 0-.45.11-.86.26-1.39.12-.42.24-.83.2-1.18.22-2.64-.11-5.76-.77-8.75.03-.1-.1-.13-.22-.17-.13-.03-.16.07-.2.18.66 2.98 1.02 6 .78 8.74.17.38.05.8-.07 1.22ZM141.06 149.47c-.12.43-.15.98-.27 1.4-.03.1.1.14.1.14.13.03.16-.07.19-.18 0-.45.11-.87.26-1.4.12-.41.24-.83.2-1.17a30.9 30.9 0 0 0-.76-8.75c.03-.1-.1-.13-.23-.17-.13-.03-.16.07-.2.18.66 2.98 1.02 6 .78 8.74.17.38.05.8-.07 1.22Z"/>
    </g>
    <path d="m94.9 154.02.17.67a6.77 6.77 0 0 0-.16-.67Z" fill="#C05401"/>
    <path opacity=".13" d="M153.45 160.9a33.93 33.93 0 0 1-5.48 10.83c-9.03 11.67-19.16 9.37-19.16 9.37s-9.93 3-18.77-7.12c-2.65.53-5.12.86-7.47 1-11.1.6-19.39-3.29-31.17-11.63-10.07-.24-17.31-7.87-17.76-18.21-.13-2.23.1-5.63.7-9.6 2.01-6.86 5.41-13.88 10.52-17.94a28.02 28.02 0 0 0 6.55 22.27c7.32 8.8 38 11.11 51.77-3.88 0 0 10.14 23.26 18.79 11.28 0 0 7.38 8.66 11.72 4.15.08 1.55.13 3.3.07 5.18a52.96 52.96 0 0 1-.3 4.3Z" fill="#152635"/>
    <path opacity=".13" d="M146.64 177.92c-8.53 9.3-18.66 7-18.66 7s-9.73 2.12-18.88-6.58c-2.61.34-5.05.52-7.37.54-10.99.09-19.36-3.44-31.35-10.77-10-.58-17.47-7.16-18.3-15.7-.4-3.42.25-10.06 2.27-16.88 1.61-5.52 4.14-11.15 7.72-15.25-2.05 7.03-2.83 18.26 7.43 28.44 7.6 7.53 38.11 10.6 51.2-1.26 0 0 10.94 19.59 19.06 10.02 0 0 11.8 11.45 14-.9a52.68 52.68 0 0 1-.75 7.33c-.91 5.06-2.8 10.18-6.37 14Z" fill="#152635"/>
    <path d="M131.48 142.72c0-.01 0-.01 0 0-.2.27-.44.52-.7.74-.28.24-.56.45-.85.63-.3.19-.53.37-.74.57l-.01.01c-.35.34-.67.76-1.27 1.41a34.3 34.3 0 0 0-2.1 3.14c-1.53 2.62-2.67 5.75-.93 7.8a7.41 7.41 0 0 1-7.48.85c-.2-.08-.38-.17-.57-.26h-.01a9.57 9.57 0 0 1-1.63-1.03s2.8-1.65 3.05-3.1c0-.04.02-.07.03-.1l.12-.35c.4-1.04 1.4-3 2.3-4.73.4-.73.75-1.41 1.06-1.96l.7-1.28s1.92-2.88 3.7-2.65c.13.02.27.02.39 0 1.2-.09 1.99-1.4 1.68-2.2a.92.92 0 0 0-.53-.51l2.29-1.44s.35-.01.8.52c.33.39.71 1.05 1.06 2.17.2.64.02 1.23-.36 1.77Z" fill="#54514E"/>
    <path opacity=".13" d="M121.36 155.8a8.4 8.4 0 0 0-.48 2.7 6.82 6.82 0 0 0 4-1.47c-1.09-1.25-1.02-2.92-.55-4.61-1.12 1.02-2.58 2.48-2.97 3.38ZM129.19 144.67c-.35.34-.68.76-1.28 1.41-.62.85-1.4 1.94-2.1 3.14-1.86 1.45-3.76 2.85-4.25 3.66a38.19 38.19 0 0 1-4.15 4.99h-.01c-.2-.08-.38-.17-.56-.26h-.02a13.1 13.1 0 0 1-1.62-1.03s2.8-1.65 3.05-3.1c0-.04.01-.07.03-.1.03-.1.1-.2.11-.35 1.57-1.46 6.1-4.7 6.94-5.65.8-.92 2.32-1.9 3.86-2.7ZM129.52 141.4c-.26 1.07-2.97 1.01-2.97 1.01 1.2-.1 1.98-1.4 1.67-2.2.61.14 1.46.48 1.3 1.19ZM130.8 138.78c-.06.12-.17.23-.37.36-1.14.72-2.73.56-2.73.56l2.29-1.44c-.01 0 .34-.02.8.52ZM131.47 142.72c-.18.27-.43.52-.7.74-4.65.91-10.07 4.85-10.07 4.85.38-.73.74-1.41 1.05-1.96.76-.54 1.83-1.09 3.3-1.5a53.3 53.3 0 0 0 6.42-2.13Z" fill="#3B2345"/>
    <path d="M75.39 196.94a20.08 20.08 0 0 0 4.22 6.3c2.1 2.1 4.32 3.28 6.05 3.95 1.82.7 3.1.81 3.1.81-.01 0 7.38 4.46 17.2-.47a50.1 50.1 0 0 0 5.87 2.47 35.36 35.36 0 0 0 13.46 1.94c4.46-.2 9.29-1.12 15.07-2.58 8.33 2.23 16.2-1.35 19.18-8.42 3.1-7.05 6.35-33.36-7.56-38.64a61.87 61.87 0 0 0-6.44-4.31c-4.32-2.42-7.9-3.11-11.88-1.65 0 0-5.09-2.8-11.27-3.97-.87-.17-1.74-.3-2.62-.4-1.88-.18-3.8-.18-5.67.12-1.88.3-3.7.91-5.39 1.93-5.77-2.67-11.48-.15-14.99 1.96-1.14.7-2.05 1.34-2.66 1.75a7.6 7.6 0 0 0-.76-.02c-6.43-.03-9.82 6.52-11.84 10.66a52.65 52.65 0 0 0-4.02 11.98c-1.1 5.33-1.35 11.42.95 16.59Z" fill="#9B9A8E"/>
    <path opacity=".25" d="M114.1 152.09c-.12.05-4.27 1.43-6.55 5.84 0 0-.9-2.22 1.15-3.91a14.85 14.85 0 0 1 5.4-1.93ZM93.7 155.98c-1.9 1.62-3.23 5.18-3.23 5.18-.96-1.25-.21-3.37-.18-3.46.25 0 .5 0 .76.03.61-.42 1.52-1.07 2.66-1.75ZM145.54 157.98c-7.47-.28-8.35 6.55-8.35 6.55-3.15-8.16-14.45-12.04-14.8-12.16 6.19 1.18 11.27 3.97 11.27 3.97 3.99-1.46 7.56-.77 11.88 1.64Z" fill="#2A4563"/>
    <g opacity=".25" fill="#2A4563">
      <path d="M134.41 166.3c-.7-2.66-1.52-5.73-3.72-8.38h-.23v.18c2.2 2.56 3.01 5.62 3.72 8.3 0 .1 0 .1.12.1.1 0 .11-.1.11-.2ZM115.8 191.16c.05-.13.05-.13-.1-.18-.16-.05-.26-.01-.2.08-.26 2.25-.75 3.84-1.8 5.31-.16.17-.42.37-.58.55-.26.2-.52.4-.63.66l-.1.26c-.42.59-.85 1.4-1.21 1.64-.05.13-.05.13 0 .22.04.1.04.1.15.05.46-.28.89-1.09 1.3-1.67l.12-.26c.1-.26.26-.42.52-.63.16-.16.41-.37.57-.54a11.34 11.34 0 0 0 1.95-5.49ZM111.29 178.96c-.02-.14-.02-.14-.18-.11-.15.03-.23.1-.15.16.8 2.13 1.07 3.77.8 5.56l-.27.74c-.14.3-.28.6-.26.87l.02.28c-.11.72-.12 1.63-.33 2.01 0 .14 0 .14.09.2.08.06.08.06.16-.02.29-.47.3-1.38.4-2.1l-.01-.27c-.02-.28.04-.5.18-.8l.27-.74c.29-1.8.08-3.51-.72-5.78ZM124.7 194.18c.12-.2.13-.29.25-.48.24-.47.49-.95.62-1.52 0-.1 0-.2-.1-.2-.12 0-.24-.01-.24.08a6.2 6.2 0 0 1-.62 1.53c-.12.2-.12.28-.24.47-1.23 2.67-2.46 5.34-4.48 7.67-.48.46-1.66 1.77-2.25 2.32h-.11c-.24.27-.24.27-.24.37 0 .1.11.1.11.1l.12-.09c0-.1 0-.1.12-.19.7-.64 2.36-2.4 2.36-2.4 2.02-2.34 3.36-5 4.7-7.66ZM130.22 184.59c.39-1.25.55-2.8.6-4.46 0 0 0-.1-.1-.1 0 0-.12-.01-.13.09.07 1.56-.22 3.1-.6 4.35 0 .1 0 .2.1.2 0 0 .13.02.13-.08ZM123.58 183.37c.46-2.86.7-6.39.86-10.15 0 0 0-.22-.11-.23 0 0-.11 0-.13.2a67.95 67.95 0 0 1-.84 9.94c0 .22-.01.44.1.45 0 0 .12.02.12-.2ZM105.25 177.75c-.56-.51-.02-2.92.25-4.17.01-.4.14-.78.14-.98.77-5.9 2.02-12.76 5.3-18.73 0-.1 0-.2-.1-.2-.12 0-.23-.02-.23.08-3.28 5.98-4.43 12.84-5.3 18.84-.01.2-.02.58-.15.97-.52 1.92-.81 3.86-.26 4.48l.23.01c0 .1 0 .1 0 0 .1 0 .11-.1.12-.3ZM113.64 158.6c.8 3.35 2.1 9.07 1.14 10.58 0 .1 0 .2.1.2h.12l.11-.09c1.09-1.7-.21-7.32-1.01-10.78-.2-.79-.3-1.38-.4-1.87-.11-.1-.11-.1-.22-.11-.12.09-.12.09-.12.19.1.5.3 1.2.28 1.87ZM106.22 154.8v-.2H106c-1.75.97-2.27 3.1-2.79 4.72-.12.39-.25.87-.38 1.15 0 .1 0 .2.1.2 0 0 .12 0 .12-.1.13-.28.26-.76.39-1.14.4-1.64 1.04-3.66 2.78-4.63ZM98.62 156.74v-.2h-.23c-1.51.99-2.36 2.3-3.2 3.63-.23.38-.36.67-.6.94 0 .1 0 .2.1.2h.12l.12-.08c.24-.38.36-.67.6-.95a11.78 11.78 0 0 1 3.09-3.54ZM76.4 182.5c.17-4.97 1.66-12.01 7-17.88.11-.1.11-.2 0-.2-.11-.1-.23-.1-.23 0-5.45 5.86-6.83 13-7.1 17.95 0 0 0 .1.1.11l.24.01ZM76.27 194.55c.12-.08.12-.08.02-.19-1.29-1.44-1.07-4.56-1-6.61.03-.3-.02-.69.02-.98.01-.1.01-.1-.1-.11-.11-.01-.11-.01-.12.08-.04.29.03.6-.03.97-.08 2.16-.17 5.19 1.1 6.73.13.01.13.01.1.11ZM80.88 192.48c-.58-3.25-.93-6.39-.15-9.37 0-.1 0-.19-.1-.2-.12 0-.24 0-.24.1-.78 2.98-.43 6.2.15 9.46.11.1.11.1.22.1.12 0 .12-.09.12-.09ZM88.5 197.37h.1l.01-.19c-1.2-1.72-1.25-3.58-1.3-5.53-.1-.59-.08-1.28-.17-1.96 0-.1 0-.1-.11-.1-.11-.01-.11-.01-.12.09.1.68.18 1.28.16 1.95.06 1.86.11 3.81 1.3 5.63.01 0 0 .1.12.1ZM98.33 200.75h.11c.12-.09.12-.09.12-.18a21.74 21.74 0 0 1-2.81-8.44c-.11-.1-.11-.1-.23-.11-.12.1-.12.1-.12.19a24.57 24.57 0 0 0 2.93 8.54c0 .1 0 .1 0 0ZM94.43 183.34c-.51-1.69-.46-3.44-.4-5.19l.05-1.46s0-.1-.11-.1c0 0-.12-.01-.12.09l-.05 1.46c-.06 1.75-.11 3.5.4 5.19 0 .1 0 .1.11.1.12-.1.24-.09.12-.1ZM91.79 173.63c-.17-2.34.62-4.45 1.4-6.56l.66-1.75s.04-.12-.14-.2c0 0-.19-.07-.23.05l-.65 1.76c-.79 2.1-1.57 4.21-1.4 6.56-.05.12-.05.12.13.2.23-.06.4.02.23-.06ZM81.42 175.93a27.3 27.3 0 0 1 2.98-7.25c0-.1 0-.2-.1-.2-.12 0-.24-.01-.24.09a28.73 28.73 0 0 0-2.98 7.25c-.12.28-.14.67-.15 1.06-.01.5-.03.88-.16 1.26 0 .1 0 .2.1.2 0 0 .12 0 .12-.1.02-.38.15-.86.16-1.25.02-.4.04-.78.27-1.06Z"/>
    </g>
    <path d="m124.1 190.64-.31.53.06-.1c.1-.2.18-.34.25-.43Z" fill="#C05401"/>
    <path opacity=".25" d="M75.39 196.94a20.08 20.08 0 0 0 4.22 6.3l6.05 3.95c1.82.7 3.09.81 3.09.81s7.4 4.46 17.2-.47a50.16 50.16 0 0 0 5.88 2.47 35.08 35.08 0 0 0 12.4 1.97l.98-.02.08-.01c4.47-.2 9.3-1.12 15.08-2.58 8.33 2.23 16.2-1.35 19.18-8.42 3.1-7.05 6.35-33.36-7.56-38.64-7.6-5.66-12.53-8.1-18.32-5.95 0 0 7.48 11.12 3.74 25.14 0 0-23.5 20.59-31.75-8.88 0 0-13.97 30.27-29.58 9.78-.56-.74-1.11-1.42-1.63-2.03-1.11 5.32-1.36 11.41.94 16.58Z" fill="#2A4563"/>
    <g style="mix-blend-mode:overlay" filter="url(#c)">
      <path d="M13.35 119.84c1.5-4.5-.19-11.08-6-9.58C.2 112.14.4 120.03 1.7 122.28c2.25 3.76 9.95 2.63 11.64-2.44Z" fill="url(#d)"/>
    </g>
    <path d="M8 113.88a2.08 2.08 0 0 0-1.65-1.48c-2.48-.35-2.39 3.32-1.06 4.1-.67-.2-1.48.07-1.9.65-.1.16-.19.35-.2.55-.03.39.36 1.04 1.58.87a4.07 4.07 0 0 0 2.8-1.83c.43-.71.66-2.06.43-2.86Z" fill="#9CC66B"/>
    <path d="M6.43 114.2c.17-.52-.02-1.28-.7-1.1-.81.21-.8 1.13-.64 1.38.26.44 1.15.3 1.34-.28Z" fill="#E8D567"/>
    <path d="M6.72 116.46c-.42.41-.76.89-.9 1.43-.01.13-.04.26.07.35.04.04.13.06.2.06.32 0 .63-.17.9-.34.24-.18.5-.35.72-.55.24-.2.48-.4.65-.7.24-.34.52-1.18-.1-1.27-.6-.09-1.2.67-1.54 1.02Z" fill="#658C19"/>
    <path d="M10.4 114.79c.8-.02 1.56.4 1.85 1.08.89 2.2-2.8 3.22-3.9 2.24.34.56.25 1.39-.25 1.95-.13.16-.3.29-.5.35-.39.13-1.14-.04-1.2-1.22a4.19 4.19 0 0 1 1.2-3.14 5.04 5.04 0 0 1 2.8-1.26Z" fill="#85AA49"/>
    <path d="M10.42 116.35c.5-.32 1.3-.36 1.28.33-.04.82-.95 1.08-1.25 1.02-.5-.14-.59-1-.03-1.35Z" fill="#E8D567"/>
    <g style="mix-blend-mode:overlay" filter="url(#e)">
      <path d="M20.37 44.81c-1.42-4.26.17-10.47 5.68-9.05 6.74 1.77 6.56 9.23 5.32 11.36-2.13 3.55-9.41 2.48-11-2.3Z" fill="url(#f)"/>
    </g>
    <path d="M25.43 39.17a2 2 0 0 1 1.56-1.4c2.34-.32 2.25 3.14 1 3.88.64-.18 1.4.06 1.79.62.1.14.19.33.2.51.03.37-.34.99-1.5.83a3.86 3.86 0 0 1-2.64-1.73 4.03 4.03 0 0 1-.41-2.7Z" fill="#9CC66B"/>
    <path d="M26.9 39.48c-.16-.5.02-1.21.66-1.04.78.2.76 1.06.61 1.3-.24.42-1.08.3-1.27-.26Z" fill="#E8D567"/>
    <path d="M26.64 41.61a3 3 0 0 1 .84 1.36c.02.12.04.24-.06.32-.04.04-.12.06-.18.06-.31 0-.6-.16-.87-.32-.22-.17-.47-.33-.67-.52a2.73 2.73 0 0 1-.62-.65c-.22-.33-.5-1.13.1-1.22.56-.08 1.13.65 1.46.97Z" fill="#658C19"/>
    <path d="M23.15 40.03c-.76-.02-1.48.4-1.74 1.03-.85 2.07 2.64 3.04 3.69 2.11a1.6 1.6 0 0 0 .22 1.85c.13.14.3.27.47.33.37.12 1.1-.04 1.15-1.15a3.97 3.97 0 0 0-1.15-2.98 4.78 4.78 0 0 0-2.64-1.19Z" fill="#85AA49"/>
    <path d="M23.13 41.51c-.47-.3-1.23-.35-1.21.31.04.78.9 1.02 1.19.96.47-.12.55-.94.02-1.27Z" fill="#E8D567"/>
    <g style="mix-blend-mode:overlay" filter="url(#g)">
      <path d="M282.56 80.55c-1.62-4.85.2-11.93 6.47-10.31 7.69 2.02 7.49 10.52 6.07 12.95-2.43 4.04-10.73 2.83-12.54-2.64Z" fill="url(#h)"/>
    </g>
    <path d="M288.33 74.13c.23-.8.93-1.48 1.78-1.6 2.66-.37 2.57 3.58 1.14 4.42.73-.2 1.6.07 2.04.7.11.17.2.38.23.59.02.42-.4 1.12-1.7.93a4.4 4.4 0 0 1-3.02-1.96 4.59 4.59 0 0 1-.47-3.08Z" fill="#9CC66B"/>
    <path d="M290.01 74.48c-.18-.56.03-1.38.75-1.2.89.24.87 1.22.7 1.5-.28.47-1.24.33-1.45-.3Z" fill="#E8D567"/>
    <path d="M289.7 76.91c.45.44.83.96.97 1.54.02.14.04.28-.07.38-.05.04-.15.07-.22.07-.35 0-.68-.19-.98-.38-.25-.18-.53-.37-.77-.58a3.12 3.12 0 0 1-.7-.75c-.26-.37-.56-1.28.12-1.38.63-.1 1.28.73 1.66 1.1Z" fill="#658C19"/>
    <path d="M285.73 75.11c-.86-.02-1.68.44-1.98 1.17-.96 2.36 3.01 3.46 4.2 2.4-.37.62-.27 1.5.26 2.12.14.16.33.3.54.37.42.14 1.24-.05 1.3-1.31.08-1.17-.4-2.5-1.3-3.4a5.43 5.43 0 0 0-3.02-1.35Z" fill="#85AA49"/>
    <path d="M285.71 76.8c-.54-.36-1.4-.4-1.38.34.05.9 1.03 1.17 1.36 1.1.54-.14.63-1.07.02-1.45Z" fill="#E8D567"/>
    <g style="mix-blend-mode:overlay" filter="url(#i)">
      <path d="M314.35 107.42c1.14-3.42-.14-8.39-4.55-7.26-5.4 1.43-5.25 7.4-4.26 9.1 1.7 2.85 7.53 2 8.8-1.84Z" fill="url(#j)"/>
    </g>
    <path d="M310.3 102.9a1.58 1.58 0 0 0-1.25-1.12c-1.88-.26-1.81 2.52-.81 3.1a1.34 1.34 0 0 0-1.43.5.87.87 0 0 0-.16.41c-.02.3.28.8 1.2.66a3.08 3.08 0 0 0 2.12-1.38c.32-.54.5-1.56.32-2.17Z" fill="#9CC66B"/>
    <path d="M309.11 103.15c.13-.4-.02-.97-.53-.84-.62.16-.6.85-.5 1.05.21.33.88.23 1.03-.21Z" fill="#E8D567"/>
    <path d="M309.32 104.85c-.3.32-.57.68-.67 1.09-.02.1-.03.2.05.26.03.04.1.05.15.05.24 0 .47-.14.69-.26.18-.14.38-.27.54-.41.18-.16.36-.32.5-.53.17-.27.39-.9-.09-.97-.44-.06-.9.51-1.17.77Z" fill="#658C19"/>
    <path d="M312.12 103.59c.6-.02 1.18.31 1.4.82.67 1.66-2.13 2.43-2.96 1.69.26.43.2 1.05-.18 1.48a.87.87 0 0 1-.38.26c-.3.1-.87-.03-.92-.92-.05-.82.28-1.76.92-2.38.5-.48 1.48-.94 2.12-.95Z" fill="#85AA49"/>
    <path d="M312.13 104.77c.38-.24 1-.28.98.25-.04.62-.73.82-.96.77-.38-.1-.44-.76-.01-1.02Z" fill="#E8D567"/>
    <path d="M324.77 119.98c-.6.59-1.72 1.99-2.84 2.82-.53.4-1.05.66-1.52.66-1.45 0-5.2-1.71-5.06-3.76.04-.68.41-1.32.89-1.88a10.11 10.11 0 0 1 2.36-1.91h-.2l-.16.01c-.37.02-.98.08-1.44.27a8.34 8.34 0 0 0-1.22 1.35l-.12.16-.14.21a2.99 2.99 0 0 0-.25.43l-.16.3-.22.44a12.2 12.2 0 0 0-.6 1.64l-.01.04c-.03.06-.04.13-.06.2l-.04.13v.04l-.08.3c-.07.28-.13.57-.18.86l-.03.21a6.52 6.52 0 0 0-.13.87l-.06.64-.01.2c-.06.8-.06 1.55-.03 2.16 0 1.47 2.08 3.63 3.87 5.2a39.14 39.14 0 0 0 2.52 2.06l-23.52.87s.7-.63 1.67-1.57a50.59 50.59 0 0 0 3.59-3.85c.76-.93 1.41-1.84 1.81-2.64l.68-1.31c1.54-2.9 3.2-5.52 4.16-7.38 1.1-2.12 4-5.03 4-5.03s1.15-1.3 2.2-2.11c.26-.21.52-.4.76-.5.26-.14.77-.14 1.4-.04h.02c.29.05.6.1.93.19l.36.09c.41.1.85.24 1.28.38l.39.14.34.13.22.08a6.17 6.17 0 0 1 .48.2c.52.22 1 .46 1.37.69l.09.05.2.13c.28.2.47.4.54.56.5 1.17 2.82 6.4 1.95 7.27Z" fill="#5E5417"/>
    <path opacity=".13" d="m317.31 131.57-6.56.72-12.11 1.33s-.36-.27-.65-.7a50.59 50.59 0 0 0 3.59-3.84c.76-.93 1.41-1.84 1.81-2.64l.68-1.31c3.59 1.52 6.79-2.47 8.54-5.3 1.93-3.11 3.87-3.7 4.14-3.77h.03l-.02.02c-.08.08-.28.31-.53.65-.24.26-.46.53-.66.8l-.12.17-.13.22-.13.2-.13.23-.16.29-.22.44a12.2 12.2 0 0 0-.6 1.64l-.01.04-.06.2c0 .05-.02.09-.04.14v.03l-.08.3c-.07.29-.13.57-.17.86l-.04.22a6.65 6.65 0 0 0-.12.87l-.06.63-.02.2a18.5 18.5 0 0 0-.03 2.16c0 1.46 2.07 3.63 3.86 5.2Z" fill="#000"/>
    <path opacity=".13" d="m317.31 131.57-6.56.72c-2.54-.76-3.97-1.71-2.45-2.85 3.75-2.79 5.28-7.08 5.66-8.35a18.23 18.23 0 0 0-.51 5.27c0 1.47 2.07 3.64 3.86 5.21Z" fill="#000"/>
    <path d="M354.92 184.69c-2.35 9.06-10.17 14.44-19.06 12.73-11.94 5.13-19.97 7-29.6 4.33a47.02 47.02 0 0 1-6.38-2.3c-9.69 7.27-17.84 2.72-17.84 2.72s-9.35.1-15.07-11.95c-5.85-12.06-1.54-29.94.18-35.5 1.66-5.34 4.5-13.8 11.2-14.58.25-.03.52-.05.8-.06.58-.58 1.46-1.49 2.57-2.48 3.44-3.05 9.11-6.83 15.4-4.28a14.6 14.6 0 0 1 5.4-3.04c2.82-.88 5.83-.97 8.64-.69a39.4 39.4 0 0 1 12.16 3.5c4-2.3 7.78-1.9 12.53.54 2.15 1.1 4.5 2.62 7.15 4.5 15.01 4.76 14.4 37.5 11.92 46.56Z" fill="#4C1F00"/>
    <path d="M304.5 156.65c-.6 2.32 1.06 5.84 4.51 7.5 3.45 1.66 7.77-1.32 9.69-5.04 1.93-3.72 3.92-12.48-3.25-14.08-7.1-1.59-9.9 6.78-10.95 11.62Z" fill="#8E2500"/>
    <path d="M318.7 159.1c1.6-3.11 3.25-9.48-.2-12.6a10.7 10.7 0 0 0-5.31 3.18 15.07 15.07 0 0 0-2.85 4.58c-1.8 4.12-1.2 7.7-.14 10.3 3.19.59 6.78-2.13 8.5-5.45Z" fill="#F76400"/>
    <path d="M285.92 157.34c1.6-5.3-3.38-10.35-6.77-10.09-5.58.67-4.25 9.43-1.53 12.88 2.66 3.45 6.7 2.59 8.3-2.79Z" fill="#8E2500"/>
    <path d="M285.86 157.34c1.12-3.58-.87-7.1-3.32-8.9a7.84 7.84 0 0 0-3.32 6.3 9.8 9.8 0 0 0 2.66 7.38c1.65-.33 3.18-1.93 3.98-4.78Z" fill="#F76400"/>
    <path d="M293.95 165.39c-7.17 2.85-4.72 7.97-4.72 7.97.87 1.12 2.53 1.46 3.92-.4 4.32 3.18 5.18-1.6.8-7.57Z" fill="#8E2500"/>
    <path d="M294.61 166.25a15 15 0 0 0-1.52 1.46c-1.33 1.53-2.46 3.79-1.53 6.5a3.8 3.8 0 0 0 1.6-1.25c4.11 2.98 5.1-1.13 1.45-6.7Z" fill="#F76400"/>
    <path opacity=".13" d="M324.77 119.98c-.6.59-1.72 1.99-2.84 2.82-.53.4-1.05.66-1.52.66-1.45 0-5.2-1.71-5.06-3.76.04-.68.41-1.32.89-1.88 0 0 .52.53 1.32.93 1.28.66 3.27 1.01 4.9-1.68 2.53-4.24-5.42-6.86-5.85-7 .29.05.6.1.94.19l.35.09a19.26 19.26 0 0 1 1.67.52l.34.13.22.08.25.1.23.1c.53.22 1 .46 1.38.69l.08.05.2.13c.28.2.47.4.54.56.5 1.17 2.83 6.4 1.96 7.27Z" fill="#000"/>
    <path opacity=".13" d="M321.86 117.08c0 .58-.32 1.17-.32 1.17-.04-2.3-3.82-1.77-3.82-1.77.5-.36.87-.56.87-.56h-.2 2.89s.58.57.58 1.16ZM319.1 114.06c-.13 1.34-2.32 2-2.32 2 1.02-4.22-2.36-5.45-2.36-5.45.26-.21.53-.4.77-.5.26-.14.77-.14 1.4-.04h.01c.27.04.57.1.88.17.46.7 1.74 2.72 1.63 3.82Z" fill="#000"/>
    <path opacity=".13" d="M321.92 122.8c-.52.4-1.05.66-1.51.66-1.45 0-5.2-1.71-5.06-3.76.04-.68.4-1.32.88-1.88a8.56 8.56 0 0 1 2.37-1.9h-.36c.7-.22 1.56-.28 2.55.04 0 0-2.67 1.04-3.23 2.79-.1.3-.13.6-.09.94.33 2.32 2.2 3.9 4.45 3.11Z" fill="#000"/>
    <path d="M316.78 116.06c.97-.15 1.94-.27 2.92-.32.49-.02.97-.05 1.48.03.13.02.3.1.38.2.6.9.39 2.43-.13 3.32-.2.33-.64.63-1.05.5-.58-.12-1.4-.51-1.24-1.23.06-.25.22-.46.4-.62-.32.34-.46.91-.07 1.24.33.26.83.45 1.26.37.92-.41 1.03-2.27.79-3.13-.08-.2-.15-.38-.39-.42-1.42-.2-2.9 0-4.35.06Z" fill="#17151C"/>
    <path opacity=".4" d="M354.92 184.69c-2.35 9.06-10.17 14.44-19.06 12.73-11.94 5.13-19.97 7-29.6 4.33 1.19-1.25 2.55-2.6 4.1-4.04 35.23-32.9 12.95-64.63 12.95-64.63 5.8-3.35 11.18-.96 19.68 5.04 15.02 4.77 14.41 37.51 11.93 46.57ZM302.5 130.28c-.11.09-4.29 2.29-6.19 8 0 0-1.16-2.62.8-4.96a14.53 14.53 0 0 1 5.4-3.04ZM281.7 137.6c-1.81 2.23-2.81 6.77-2.81 6.77-1.14-1.42-.59-4.11-.56-4.23.26-.03.53-.06.8-.06.6-.59 1.47-1.5 2.58-2.48Z" fill="#190A00"/>
    <path opacity=".4" d="M335.83 133.62c-7.8.59-8 9.09-8 9.09-4.13-9.65-16.3-13-16.68-13.11 6.57.68 12.15 3.48 12.15 3.48 4-2.3 7.79-1.89 12.53.54Z" fill="#190A00"/>
    <path d="M308.39 178.1c.04-.16.04-.16-.13-.2-.16-.05-.26.01-.2.12-.03 2.8-.38 4.81-1.31 6.75-.15.23-.4.51-.54.74-.25.28-.5.57-.59.9l-.08.32c-.38.78-.74 1.82-1.09 2.17-.04.16-.04.16.02.27.06.1.06.1.16.05.45-.4.81-1.45 1.19-2.23l.08-.33c.09-.33.23-.55.48-.84.15-.22.4-.5.54-.73.95-1.95 1.4-4.02 1.47-6.99ZM317.97 180.7c.1-.24.1-.36.2-.6.2-.62.41-1.24.49-1.96 0-.12-.01-.24-.14-.24-.12.01-.23.02-.23.14a8.98 8.98 0 0 1-.48 1.95c-.11.25-.1.37-.2.62-1 3.42-2 6.86-3.86 9.98-.44.63-1.54 2.37-2.1 3.13h-.11c-.22.38-.22.38-.22.5.01.12.13.11.13.11l.12-.12c-.01-.12-.01-.12.1-.25.67-.88 2.2-3.26 2.2-3.26 1.86-3.12 2.98-6.56 4.1-10ZM308.61 170.04c.12 0 .24-.01.24-.13.11-.13.1-.25-.02-.25-2.22-1.2-3.7-4.12-4.2-6.5-.13-.11-.13-.11-.25-.1-.1.12-.1.12-.1.25.49 2.25 1.86 5.3 4.33 6.73.13 0 .13 0 0 0ZM304.56 168.23a18.65 18.65 0 0 1-2.15-8.2s0-.1-.12-.1c0 0-.12 0-.12.12-.08 2.66.66 5.26 2.16 8.31 0 .12.13.12.24.1.12-.12.12-.12 0-.23ZM296 162.94c-.63-.57-.33-3.6-.18-5.17-.03-.49.06-.97.05-1.21.17-7.36.75-15.95 3.54-23.7 0-.11-.01-.24-.14-.23-.12 0-.23.01-.23.14-2.78 7.75-3.25 16.33-3.53 23.81.01.24.04.72-.05 1.21-.34 2.43-.44 4.84.2 5.53l.24-.01c0 .12 0 .12 0 0 .12-.01.11-.13.1-.37ZM302.72 138.34c1.19 4.03 3.14 10.9 2.3 12.88 0 .11.01.24.13.23l.12-.01.12-.13c.95-2.22-1-8.97-2.2-13.12-.29-.95-.45-1.66-.6-2.26-.13-.11-.13-.11-.25-.1-.11.12-.11.12-.1.25.15.59.43 1.42.48 2.26ZM294.6 134.59l-.01-.24h-.24c-1.71 1.43-2.03 4.1-2.4 6.17-.08.49-.17 1.1-.27 1.46.01.12.02.24.14.24 0 0 .12-.01.11-.13.1-.37.19-.98.28-1.46.23-2.06.68-4.62 2.4-6.04ZM287.85 161.3a8.4 8.4 0 0 1 1.1-1.74c.11-.13.1-.25-.01-.24-.13-.12-.25-.1-.24 0-.45.52-.77 1.14-1.1 1.76-.54 1-1.08 2-1.88 2.64l.01.24.24-.02c-.12.01-.12.01 0 0 .92-.65 1.45-1.76 1.88-2.63ZM287.53 164.1c.12-.13.1-.25-.01-.24-.13-.12-.25-.1-.24.01-1.44 1.9-3.92 2.52-6.05 2.88-.12 0-.12 0-.12.13 0 0 .01.11.13.11 2.25-.37 4.72-1 6.3-2.89ZM286.9 137.92l-.02-.24-.23.01c-1.48 1.41-2.21 3.14-2.95 4.87-.22.5-.31.86-.53 1.24 0 .12.01.24.13.23h.12l.12-.13c.2-.5.3-.87.52-1.24.74-1.73 1.48-3.34 2.84-4.74ZM266.5 172.34c-.35-6.12.45-14.96 5.39-22.83.11-.13.1-.25-.01-.24-.13-.12-.25-.1-.24.01-5.05 7.88-5.73 16.83-5.5 22.96 0 0 0 .12.13.12l.23-.02ZM267.63 187.18c.12-.11.12-.11 0-.24-1.5-1.62-1.6-5.47-1.74-8 .01-.36-.1-.85-.08-1.21 0-.12 0-.12-.11-.12-.12 0-.12 0-.13.11 0 .36.1.73.08 1.2.14 2.66.37 6.4 1.86 8.14.12 0 .12 0 .12.12ZM272.2 184.06c-.94-3.92-1.64-7.73-1.14-11.5 0-.11-.01-.24-.13-.23-.12.01-.24.01-.24.14-.5 3.76.2 7.7 1.15 11.62.13.11.13.11.24.1.13 0 .12-.13.12-.13ZM280.63 189.12h.12l-.01-.25c-1.43-1.97-1.69-4.24-1.94-6.63-.16-.72-.21-1.56-.38-2.39 0-.12 0-.12-.12-.11-.12 0-.12 0-.12.12.17.84.33 1.55.38 2.4.25 2.27.5 4.66 1.94 6.75 0 0 .01.12.13.11ZM291.23 192.06h.12c.1-.13.1-.13.1-.26a29.23 29.23 0 0 1-3.8-10.02c-.13-.11-.13-.11-.25-.1-.12.12-.12.12-.1.25.8 3.69 2.07 7.1 3.93 10.13 0 .12 0 .12 0 0ZM294.94 192.09c-.72-2.01-.84-4.17-.97-6.33l-.1-1.8s0-.12-.13-.12c0 0-.11.01-.11.13l.1 1.8c.13 2.16.25 4.32.97 6.33 0 .12 0 .12.12.12.12-.13.24-.14.12-.13ZM271.03 163.65c.3-3.03 1.2-6.21 2.34-9.29-.01-.12-.02-.24-.14-.23-.12 0-.24.01-.23.13a40.44 40.44 0 0 0-2.34 9.3c-.1.36-.07.84-.05 1.32.04.6.07 1.08-.02 1.57 0 .12 0 .24.13.23 0 0 .12 0 .11-.13-.02-.48.06-1.08.03-1.56s-.05-.96.17-1.34Z" fill="#722F01"/>
    <path d="M318.09 173.12c-.03.1-.46 1.54-1.13 3.31l-.26.7-.22.55a19.45 19.45 0 0 1-2.56 4.72l-.47-2.6-4.65 1.45.58 2.9s-2.08 1.31-4.81 2.33a16.74 16.74 0 0 1-5.64 1.16c-4.15 0-10.16-1.46-13-2.94l-.23-.13a4.84 4.84 0 0 1-1.01-.72l.88-2.3-4.06-2.62-.3.53-.86 1.5s-2.9-5.51-3.78-7.55c.06.05.7.64 1.8 1.47a31.11 31.11 0 0 0 11.56 5.5c7.83 1.74 23.5-1.75 28.16-7.26Z" fill="#F76400"/>
    <path d="m281.2 179.46-.86 1.5s-2.9-5.52-3.77-7.55a24 24 0 0 0 1.79 1.47s1.67 3.07 2.84 4.58ZM286.44 182.12l-.51 2.57a5.21 5.21 0 0 1-1.25-.85l.89-2.3.87.58Z" fill="#8E2500"/>
    <path d="M304.56 186.47a16.74 16.74 0 0 1-5.63 1.16c-4.15 0-10.16-1.45-13-2.94l-.23-.12.2-.72s11.81 3.2 18.66 2.62ZM316.47 177.68a19.45 19.45 0 0 1-2.55 4.71l-.48-2.6.58.3s1.41-.08 2.45-2.41Z" fill="#8E2500"/>
    <path d="m316.96 176.43-.26.7a7.38 7.38 0 0 1 .26-.69Z" fill="#C05401"/>
    <path d="M94.58 195.05a21.73 21.73 0 0 1-6.27 2.58c-2.66.64-5.38.67-8.08.21a21.8 21.8 0 0 1-7.78 3.6c-3.07.73-6.2.68-9.32-.04a21.92 21.92 0 0 1-8.79 4.38 20.88 20.88 0 0 1-9.32-.03 21.96 21.96 0 0 1-8.8 4.38c-2.63.63-5.32.68-7.99.23a21.82 21.82 0 0 1-7.68 3.54c-16.52 3.96-34.92-15.08-40.33-34.77-3.9-14.2-4.16-32.98 6.8-43.1 3.57-3.3 8.1-5.4 13.44-6.21 2.03-.3 4.07-.44 6.04-.39 2.27-1.35 4.9-2.4 7.65-3l.12-.03c2.66-16.68 16.04-23.84 25.63-26.87 0 0 .06-.01.14-.05l.1-.03c2.83-.88 5.32-1.4 7.08-1.69l.47-.08c.92-.15 1.8-.1 2.54.16.74.25 1.26.67 1.5 1.22.24.52.15 1.16-.28 1.74a4.1 4.1 0 0 1-1.66 1.28l-.33.14a35.75 35.75 0 0 0-7.72 3.9c-2.21 1.56-3.62 3.22-4.2 4.94v.03a5.87 5.87 0 0 0-.12 3.26 10.01 10.01 0 0 0 2.3 4.08l.33.38c.57.63 1.19 1.2 1.82 1.73.16.14.32.28.48.4a25.3 25.3 0 0 1 5.95-2.68 27.7 27.7 0 0 1 4.06-.92c2.05-.3 4.1-.44 6.07-.39h.07a26.17 26.17 0 0 1 9.7-3.42 37.8 37.8 0 0 1 3.25-.34c16.06-.94 33 9.26 37 35.14 3.36 21.68-2.25 39.66-13.87 46.72Z" fill="#4C1F00"/>
    <path opacity=".4" d="M94.58 195.05a20.47 20.47 0 0 1-14.34 2.79 20.79 20.79 0 0 1-17.09 3.56c-4.96 4.12-11.79 5.92-18.11 4.35-4.6 3.8-10.85 5.7-16.78 4.61-42.31 25.36-77.35-81.38-21.75-80.91a25.77 25.77 0 0 1 7.78-3.03c.52-3.27 1.5-6.45 3-9.39 6.18-12.85 17.95-14.67 28.92-20.6 1.15-2.2-1.98-5.16-4.25-5.26-1.4-.02-3.1 1.2-4.07-.46l-.1-.14c-.78-1.16-1.13-3.24-1.19-4.32 5.7-4.08 16.9-1.59 17.41 6.05 1.27 5.37-1.82 9.75-7.33 11.11-6.72 2.44.68 11.1-6.87 15.32-55.11 30.75-12.98 87.74 54.77 76.32Z" fill="#190A00"/>
    <path opacity=".4" d="m51.34 205.85-.8.45c-1.82.06-3.67-.13-5.5-.55a21.95 21.95 0 0 1-8.8 4.38c-2.63.64-5.31.68-7.98.23a21.84 21.84 0 0 1-7.68 3.54c-16.53 3.96-34.92-15.08-40.33-34.76-3.9-14.2-4.17-32.98 6.78-43.1 3.58-3.3 8.1-5.39 13.45-6.2 2.04-.3 4.07-.43 6.04-.38a25.3 25.3 0 0 1 7.65-3l.12-.03s-29.92 54.53 37.05 79.42Z" fill="#190A00"/>
    <g opacity=".4" fill="#190A00">
      <path opacity=".8" d="M58.51 116.98c-14.6 2.38-13.11 13.47-13.11 13.47-6.56-6.72-19.71-2.76-19.71-2.76 3.34-4.67 8.83-7.34 14.36-8.86.58.63 1.2 1.2 1.83 1.73.16.14.32.28.48.4 2.9-1.81 6.4-3.07 10-3.6a34.23 34.23 0 0 1 6.15-.38ZM73.49 122.77c-6.62-8.63-14.98-5.78-14.98-5.78a26.19 26.19 0 0 1 9.7-3.42c1.09-.16 2.17-.28 3.26-.34 2.58 1.8 2.02 9.54 2.02 9.54Z"/>
    </g>
    <path d="M54 92.28c1.27 5.37-1.82 9.75-7.32 11.13-6.44 2.34-13.05 9.05-6.95 15.05 1.8-.97 8.56-.29 8.6-.18-.14.2-3.3 4.83-5.03 4.03-.62-.47-8.16-1.1-6.95.94 1.72 1.5-.86 2.37-.86 2.37-1.58-1.93-8.7-3-9.8 3-.15.72-.12 1.97.05 2.6 0 0-4-1.2-4.55-3.44-1.8-6.38-6.81 3.08-14.67 1.66a25.77 25.77 0 0 1 7.77-3.04c.52-3.27 1.51-6.44 3-9.38 4.27-8.5 12.76-14.21 21.56-17.13 2.5-.9 5.36-1.63 7.38-3.48 1.14-2.2-1.99-5.15-4.26-5.26-1.54 0-3.13 1.27-4.17-.6-.78-1.16-1.12-3.24-1.19-4.32 5.68-4.06 16.88-1.57 17.4 6.05Z" fill="#141A28"/>
    <path opacity=".28" d="m40.41 91.44-.31.1c-.24.08-.46.1-.66.1-2.16-.06-2.7-3.87-2.82-5.05l-.02-.34s3.07-.91 3.81 5.19ZM49.42 93.16c.37 2.75-1.08 4.37-6 5.02.19-.08.36-.16.53-.26l.26-.13c.08-.04.17-.1.25-.13a11.62 11.62 0 0 0 .9-.53l.22-.14.18-.14.32-.28.12-.14.02-.02a1.27 1.27 0 0 0 .23-.4c.44-1.34-1.73-4.72-4.5-4.85 0 0 7.11-.75 7.47 2ZM39.73 118.47s-17.95 5.02-19.04-6.5v-.15c3.68-4.56 8.41-7.69 12.98-9.84 0 0-15.54 15.87 6.06 16.5Z" fill="#3B2345"/>
    <path opacity=".28" d="M47.16 103.19a32.39 32.39 0 0 0-5.4 2.95c-2.22 1.56-3.62 3.22-4.2 4.93l-.01.04a5.87 5.87 0 0 0 .2 4.25c-.17-.2-4.17-5.25-1.54-9.8 2.67-4.66 10.95-2.37 10.95-2.37ZM48.32 118.3c-.14.2-3.3 4.83-5.04 4.03-.9-.42-3.15-.56-4.9-.4-1.67.17-2.89.6-2.05 1.33 1.72 1.52-.86 2.37-.86 2.37s-3.55-3.04-7.18-.81c-3.64 2.22-2.57 6.42-2.57 6.42s-4-1.2-4.55-3.44c-.55-2.23-2.08-3.48-5.44-.7-3.37 2.78-9.22 2.35-9.22 2.35a25.6 25.6 0 0 1 7.65-3l.12-.03a31.23 31.23 0 0 1 3.62-10.53s-1.25 7.82 4.38 7.99c5.63.18 17.43-5.41 17.43-5.41l2.6-.5c2.77-.17 6.01.32 6.01.32Z" fill="#3B2345"/>
    <path opacity=".1" d="m40.41 91.44-.31.1c-.24.08-.46.1-.66.1-.56-4.44-2.63-5.05-2.82-5.05l-.02-.34s3.07-.91 3.81 5.19Z" fill="#3B2345"/>
    <path opacity=".13" d="M48.76 95.12c-.68 6.48-7.02 3.28-16.1 8.7-3.76 2.24-14.86 14.43-6.43 23.18-1.06 2.05-.5 4.23-.5 4.23s-4-1.2-4.55-3.43c-.55-2.23-2.08-3.49-5.45-.7-3.36 2.78-9.22 2.35-9.22 2.35a25.57 25.57 0 0 1 7.78-3.03 31.22 31.22 0 0 1 3.61-10.53 28.8 28.8 0 0 1 2.78-4.08c3.69-4.56 8.42-7.69 12.99-9.84a48.33 48.33 0 0 1 6.25-2.43l.14-.04c.03-.02.06-.03.1-.03l.11-.04.15-.05c.26-.1.59-.2.97-.36l.4-.16.32-.12c.22-.1.44-.18.67-.27.12-.05.25-.1.38-.17l.26-.12c.19-.08.36-.16.53-.26l.26-.13c.08-.04.17-.1.25-.13a11.58 11.58 0 0 0 .9-.53l.22-.14.18-.14.32-.28.12-.14.02-.02a1.27 1.27 0 0 0 .23-.4c.44-1.34-1.73-4.72-4.5-4.85a3.59 3.59 0 0 0-1.7.33c-3.31 1.18-3.67-5.24-3.67-5.24s.35-.26 1.08-.6c3.55.94 11.61 4.57 11.1 9.47Z" fill="#3B2345"/>
    <path d="M5.15 145.68c.15-.02.15-.02.12-.18.35-4.44.75-9.53 3.18-14l-.05-.31-.32.05c-2.4 4.63-2.8 9.73-3.14 14.16.02.15.05.3.2.28ZM-2.6 150.42c.16-.03.12-.2.12-.2a10.3 10.3 0 0 1 .2-4.6c.06-.5.16-.84.22-1.34.06-.5.12-1 .15-1.66.42-3.5.97-7.2 2.04-10.67-.04-.16-.04-.16-.22-.27-.16.03-.16.03-.28.21a59.7 59.7 0 0 0-2.04 10.67c-.06.5-.12 1-.15 1.66-.06.5-.12 1-.21 1.34-.02 1.47-.4 2.85-.04 4.57.01.16.2.29.2.29ZM2.47 159.53c-.16.04-.16.04-.26.23-.8 6.89 1.34 13.73 3.56 20.23l.3 1.07c.05.16.2.11.2.11.16-.04.12-.2.12-.2l-.31-1.07c-2.22-6.5-4.33-13.2-3.52-20.07.1-.2.05-.34-.1-.3ZM6.15 165.22c-.05-.15-.05-.15-.2-.1-.15.05-.15.05-.1.2.32 1.56.54 3.34.76 5.1.61 5.16 1.31 10.62 4.65 14.43.05.15.2.1.2.1l.15-.04c.16-.05.1-.2.06-.35-3.14-3.7-3.85-9.17-4.45-14.32-.59-1.82-.76-3.45-1.07-5.02ZM48.64 191.83c.26.24.68.52.94.76.41.28.67.51.9.91l.21.4c.75.86 1.56 2.09 2.29 2.45.15.05.15.05.19-.11.04-.16.04-.15-.07-.35-.57-.32-1.38-1.55-2.13-2.41l-.22-.4a3.1 3.1 0 0 0-1.05-.96c-.26-.23-.68-.52-.94-.75-1.86-2.18-2.98-4.64-3.96-8.23.04-.15-.11-.2-.31-.09-.2.12-.2.12-.09.31 1.1 3.79 2.38 6.3 4.24 8.47ZM38.14 196.24s2.78 2.53 3.93 3.44c.18.12.18.12.21.27l.19.13s.16-.03.12-.2c-.03-.15-.03-.15-.43-.56l-.16.04c-.97-.78-2.96-2.66-3.74-3.31-3.42-3.38-5.86-7.44-8.3-11.5-.22-.28-.26-.44-.47-.71-.47-.72-.94-1.44-1.28-2.35-.04-.16-.19-.13-.35-.1-.16.04-.12.2-.09.35.35.9.81 1.62 1.28 2.34.22.28.25.44.46.72 2.6 4.04 5.2 8.07 8.63 11.44ZM19.43 170.53c.16-.04.12-.2.09-.35a25.61 25.61 0 0 1-2.04-6.9c-.04-.16-.19-.13-.19-.13-.15.03-.12.19-.12.19.53 2.66 1.2 5.12 2.08 7.07.02.15.18.12.18.12ZM39.74 167.72c2.7-2.66 3.43-7.04 3.29-10.1-.04-.16-.04-.16-.22-.28-.16.03-.16.03-.28.22.16 3.21-.74 7.47-3.2 9.75-.16.04-.13.2.06.31.04.17.2.14.35.1-.15.04-.15.04 0 0ZM44.4 164.34c.15-.03.3-.06.27-.21.89-4.41.97-8-.04-11.39-.03-.16-.18-.13-.18-.13-.16.04-.13.2-.13.2.82 3.26.9 6.82 0 11.23-.11.18-.11.18.07.3ZM54.26 154.74c.03.14.03.14 0 0l.3-.06c.6-.95-.25-3.56-1.39-6.1a4.95 4.95 0 0 1-.42-1.32c-2.58-8.09-5.72-17.31-11.52-24.9-.02-.13-.17-.1-.33-.06-.15.03-.12.16-.1.3 5.8 7.58 9.09 16.78 11.49 24.77.05.27.3.77.42 1.31.65 1.68 1.94 4.9 1.31 5.7.07.26.1.4.24.36ZM18.45 128.47c0-.16 0-.16-.17-.3-.16 0-.16 0-.3.17-.14.8-.25 1.76-.53 3.05-1.04 5.62-2.75 14.8-1.2 17.6l.16.16h.16c.16 0 .15-.16.14-.32-1.36-2.5.33-11.82 1.4-17.3-.06-1.12.21-2.26.34-3.06ZM52.8 128.4c.29.6.6 1.35.85 1.78.04.16.19.13.19.13.16-.03.12-.19.1-.34-.26-.44-.57-1.18-.86-1.78-1.16-2.53-2.47-5.85-5.15-7.1l-.31.07.06.3c2.69 1.26 4.12 4.38 5.13 6.94ZM64.24 154.47c.15-.03.15-.03 0 0l.3-.06-.06-.31c-1.24-.56-2.27-1.66-3.3-2.75a11.5 11.5 0 0 0-2-1.88c-.03-.16-.18-.13-.3.07-.17.03-.13.19.06.3.75.5 1.37 1.2 1.99 1.88.85.98 1.9 2.22 3.3 2.75ZM71.33 156.78c.16-.03.12-.2.12-.2-.03-.15-.03-.15-.18-.12-2.86.25-6.25.28-8.74-1.65-.04-.16-.19-.13-.31.07-.16.03-.13.2.06.3 2.65 1.92 6.04 1.9 9.05 1.6ZM66.4 122.33c.41.4.66.84 1.1 1.4l.18.14.16-.04c.16-.03.13-.2.1-.34-.41-.4-.66-.84-1.1-1.4-1.53-1.98-3.06-3.95-5.43-5.25l-.3.06.06.31c2.21 1.34 3.7 3.15 5.24 5.12ZM99.74 151.1c.16-.04.12-.2.12-.2-1.77-7.95-5.66-19.2-14.8-27.6-.03-.16-.18-.13-.3.06-.17.04-.13.2.06.31 8.99 8.44 13 19.5 14.61 27.47l.3-.05ZM99.63 179.23c1.32-2.73.35-7.6-.36-11.06-.18-.6-.17-1.11-.3-1.57-.05-.16-.05-.16-.2-.11-.16.04-.16.04-.1.19.13.46.16 1.11.3 1.57.66 3.3 1.83 8.28.46 10.87-.1.2-.1.2.1.3-.06-.15-.06-.15.1-.2ZM92.08 175.32c.16-.03.16-.03.28-.21-.12-5.35-.54-10.64-2.45-15.3-.03-.15-.18-.12-.34-.09-.16.04-.13.2-.1.35 1.92 4.66 2.31 9.78 2.42 15.14 0-.02.03.15.19.11ZM80.35 186.09c1.14-3.16.66-6.32.22-9.33-.22-1.09-.26-2.06-.33-3.18-.03-.16-.03-.16-.18-.13s-.16.03-.12.2c.06 1.12.28 2.22.32 3.18.47 3.16.92 6.16-.25 9.16l.07.3.16-.03c.14-.02.1-.17.1-.17ZM86.49 138.52c.17.6.54 1.33.71 1.95.05.16.2.11.2.11.16-.04.11-.2.07-.35a8.36 8.36 0 0 1-.71-1.96 5.91 5.91 0 0 0-.63-1.64A53.44 53.44 0 0 0 79.17 126c-.05-.16-.2-.11-.35-.08-.15.05-.1.2-.06.36a51.03 51.03 0 0 1 6.96 10.63c.43.38.6 1 .77 1.6Z" fill="#722F01"/>
    <path d="M68.98 183.95 80.1 164.5l4.32 1.1 4.6-18.64-4.42 5.1-1.65-1.33-8.18 11.98-5.35-1.29-10.2 9.94-15.45-.48-4.48 4.3-16.72-5-2.23 3.04-6.74-1.08s19.7 10.7 25.8 11.14a20.3 20.3 0 0 0 4.3-3.79l25.27 4.46Z" fill="#F76400"/>
    <g filter="url(#k)">
      <path d="M68.98 183.95 80.1 164.5l4.32 1.1 4.6-18.64-4.42 5.1-1.65-1.33-8.18 11.98-5.35-1.29-10.2 9.94-15.45-.48-4.48 4.3-16.72-5-2.23 3.04-6.74-1.08s19.7 10.7 25.8 11.14a20.3 20.3 0 0 0 4.3-3.79l25.27 4.46Z" fill="#FFB72C"/>
    </g>
    <path d="M68.98 183.95 80.1 164.5s-2.12 1.07-3.09 1.66c-2.88 3.07-11.27 17.23-11.27 17.23l3.23.56ZM39.43 183.28a20.3 20.3 0 0 0 4.3-3.79l-3.58-.65-4 3.7c1.22.33 2.45.64 3.28.74ZM21.55 171.6c4.2 1.78 11.53 4.97 13.72 5.34 3.35-.76 4.15-1.95 4.15-1.95l-16.71-5-1.16 1.61ZM43.78 170.88l-1.41 1.36a23.2 23.2 0 0 0 10.67 2.43c2.06-.72 6.24-3.43 6.24-3.43l-15.5-.36ZM83.08 150.54l-2.08 3c.97.54 2.03.92 2.62.75.64-1.16.95-2.38.95-2.38l-1.5-1.37ZM84.46 165.6l4.59-18.64c-1.99 2.17-5.94 14.3-7.02 18l2.43.63ZM69.39 161.26l-3.97 4.08 5.8.8s2-1.4 3.54-3.45l-5.37-1.43ZM33.68 136.83c-3.84-1.06-6.71-.92-8.8-.36-2.1.57-3.1 1.66-3.27 2.85-.02 2.28 7.27 3.53 10.4 3.18 3.21-.57 5.55-3.82 1.67-5.67ZM27.25 161.65c5.68 2.5 11.24.34 13.72-5.87 1.74-4.22-.76-8.09-.76-8.09-3.43-2.48-6.95-4.1-10.88-3.2a14.42 14.42 0 0 0-3.98 1.91c-5.51 4.12-3.81 12.75 1.9 15.25ZM55.7 162.46c1.5-.4 6.19.25 6.17-2.19-.01-2.44-6.64-5.97-10.21-5.49 0 0-2.2 9.05-.94 10.16 1.26.98 3.34-2.02 4.98-2.48ZM61.29 133.32c3.3-2.05 7-7.44 4.2-9.44-.36-.07-.84-.1-1.45.07-2.1.56-5.45 3.12-6.72 6.72-1.62 4.67.64 4.7 3.97 2.65ZM59.86 146.4c2.12 5.41 7.32 7.89 13.35 3.98 6-4.08 6.17-8.68 3.63-13.32-2.22-3.94-7.18-4.39-10.78-3.4a7.5 7.5 0 0 0-1.9.69c-3.75 2.3-6.43 6.6-4.3 12.05Z" fill="#8E2500"/>
    <path d="M21.7 139.13c-.05 2.12 6.09 3.37 9.6 3.22.31-1.23.4-3.86-3.71-6.47-.94.1-1.9.2-2.64.4-2.03.72-3.18 1.85-3.24 2.85Z" fill="#F76400"/>
    <g filter="url(#l)">
      <path d="M21.7 139.13c-.05 2.12 6.09 3.37 9.6 3.22.31-1.23.4-3.86-3.71-6.47-.94.1-1.9.2-2.64.4-2.03.72-3.18 1.85-3.24 2.85Z" fill="#FFB72C"/>
    </g>
    <path d="M27.22 161.65c3.14 1.42 6.04 1.44 8.57.08.77-2.48 1.7-6.15 1.21-7.97-.82-3.02-2.96-5.54-7.8-6.64a10 10 0 0 0-4.95.23c-4.14 4.23-2.32 12.02 2.97 14.3Z" fill="#F76400"/>
    <g filter="url(#m)">
      <path d="M27.22 161.65c3.14 1.42 6.04 1.44 8.57.08.77-2.48 1.7-6.15 1.21-7.97-.82-3.02-2.96-5.54-7.8-6.64a10.02 10.02 0 0 0-4.95.23c-4.14 4.23-2.32 12.02 2.97 14.3Z" fill="#FFB72C"/>
    </g>
    <path d="M60 134c1.22-2.13 2.84-5 3.16-6.7a3.6 3.6 0 0 0-.6-2.77 11.48 11.48 0 0 0-4.73 5.04l-1.05 3.22c-.08 2.12 1.24 2.25 3.23 1.2Z" fill="#F76400"/>
    <g filter="url(#n)">
      <path d="M60 134c1.22-2.13 2.84-5 3.16-6.7a3.6 3.6 0 0 0-.6-2.77 11.48 11.48 0 0 0-4.73 5.04l-1.05 3.22c-.08 2.12 1.24 2.25 3.23 1.2Z" fill="#FFB72C"/>
    </g>
    <path d="M55.7 162.46c.74-.2 2.38-.17 3.77-.38-1.44-2.85-5.38-4.87-8.09-5.92-.57 2.6-1.6 7.75-.56 8.61 1.16 1.15 3.24-1.85 4.88-2.3Z" fill="#F76400"/>
    <g filter="url(#o)">
      <path d="M55.7 162.46c.74-.2 2.38-.17 3.77-.38-1.44-2.85-5.38-4.87-8.09-5.92-.57 2.6-1.6 7.75-.56 8.61 1.16 1.15 3.24-1.85 4.88-2.3Z" fill="#FFB72C"/>
    </g>
    <path d="M59.86 146.4c1.86 5 6.41 7.5 11.68 4.93 2.34-3.24 4.78-9.1.66-13.5-2.49-2.56-5.58-2.7-8.29-1.97-.9.24-1.8.5-2.66.89a9.42 9.42 0 0 0-1.4 9.65Z" fill="#F76400"/>
    <g filter="url(#p)">
      <path d="M59.86 146.4c1.86 5 6.41 7.5 11.68 4.93 2.34-3.24 4.78-9.1.66-13.5-2.49-2.56-5.58-2.7-8.29-1.97-.9.24-1.8.5-2.66.89a9.42 9.42 0 0 0-1.4 9.65Z" fill="#FFB72C"/>
    </g>
  </g>
  <defs>
    <filter id="c" x="-8" y="101.05" width="30.87" height="32.46" filterUnits="userSpaceOnUse" color-interpolation-filters="sRGB">
      <feFlood flood-opacity="0" result="BackgroundImageFix"/>
      <feBlend in="SourceGraphic" in2="BackgroundImageFix" result="shape"/>
      <feGaussianBlur stdDeviation="4.5" result="effect1_foregroundBlur_2630_26075"/>
    </filter>
    <filter id="e" x="10.88" y="26.55" width="30.16" height="31.67" filterUnits="userSpaceOnUse" color-interpolation-filters="sRGB">
      <feFlood flood-opacity="0" result="BackgroundImageFix"/>
      <feBlend in="SourceGraphic" in2="BackgroundImageFix" result="shape"/>
      <feGaussianBlur stdDeviation="4.5" result="effect1_foregroundBlur_2630_26075"/>
    </filter>
    <filter id="g" x="273" y="61" width="31.87" height="33.58" filterUnits="userSpaceOnUse" color-interpolation-filters="sRGB">
      <feFlood flood-opacity="0" result="BackgroundImageFix"/>
      <feBlend in="SourceGraphic" in2="BackgroundImageFix" result="shape"/>
      <feGaussianBlur stdDeviation="4.5" result="effect1_foregroundBlur_2630_26075"/>
    </filter>
    <filter id="i" x="296" y="91" width="27.74" height="28.95" filterUnits="userSpaceOnUse" color-interpolation-filters="sRGB">
      <feFlood flood-opacity="0" result="BackgroundImageFix"/>
      <feBlend in="SourceGraphic" in2="BackgroundImageFix" result="shape"/>
      <feGaussianBlur stdDeviation="4.5" result="effect1_foregroundBlur_2630_26075"/>
    </filter>
    <filter id="k" x="4.61" y="137.96" width="93.42" height="54.99" filterUnits="userSpaceOnUse" color-interpolation-filters="sRGB">
      <feFlood flood-opacity="0" result="BackgroundImageFix"/>
      <feBlend in="SourceGraphic" in2="BackgroundImageFix" result="shape"/>
      <feGaussianBlur stdDeviation="4.5" result="effect1_foregroundBlur_2630_26075"/>
    </filter>
    <filter id="l" x="12.71" y="126.88" width="27.72" height="24.48" filterUnits="userSpaceOnUse" color-interpolation-filters="sRGB">
      <feFlood flood-opacity="0" result="BackgroundImageFix"/>
      <feBlend in="SourceGraphic" in2="BackgroundImageFix" result="shape"/>
      <feGaussianBlur stdDeviation="4.5" result="effect1_foregroundBlur_2630_26075"/>
    </filter>
    <filter id="m" x="12.98" y="137.91" width="33.17" height="33.83" filterUnits="userSpaceOnUse" color-interpolation-filters="sRGB">
      <feFlood flood-opacity="0" result="BackgroundImageFix"/>
      <feBlend in="SourceGraphic" in2="BackgroundImageFix" result="shape"/>
      <feGaussianBlur stdDeviation="4.5" result="effect1_foregroundBlur_2630_26075"/>
    </filter>
    <filter id="n" x="47.78" y="115.53" width="24.45" height="28.1" filterUnits="userSpaceOnUse" color-interpolation-filters="sRGB">
      <feFlood flood-opacity="0" result="BackgroundImageFix"/>
      <feBlend in="SourceGraphic" in2="BackgroundImageFix" result="shape"/>
      <feGaussianBlur stdDeviation="4.5" result="effect1_foregroundBlur_2630_26075"/>
    </filter>
    <filter id="o" x="41.38" y="147.16" width="27.09" height="26.87" filterUnits="userSpaceOnUse" color-interpolation-filters="sRGB">
      <feFlood flood-opacity="0" result="BackgroundImageFix"/>
      <feBlend in="SourceGraphic" in2="BackgroundImageFix" result="shape"/>
      <feGaussianBlur stdDeviation="4.5" result="effect1_foregroundBlur_2630_26075"/>
    </filter>
    <filter id="p" x="50.11" y="126.48" width="33.31" height="34.87" filterUnits="userSpaceOnUse" color-interpolation-filters="sRGB">
      <feFlood flood-opacity="0" result="BackgroundImageFix"/>
      <feBlend in="SourceGraphic" in2="BackgroundImageFix" result="shape"/>
      <feGaussianBlur stdDeviation="4.5" result="effect1_foregroundBlur_2630_26075"/>
    </filter>
    <radialGradient id="d" cx="0" cy="0" r="1" gradientUnits="userSpaceOnUse" gradientTransform="translate(7.43 117.28) scale(6.8435)">
      <stop stop-color="#CED56F"/>
      <stop offset=".07" stop-color="#D5DB84" stop-opacity=".93"/>
      <stop offset=".2" stop-color="#E2E6AA" stop-opacity=".8"/>
      <stop offset=".34" stop-color="#EDEFC9" stop-opacity=".66"/>
      <stop offset=".48" stop-color="#F5F6E1" stop-opacity=".52"/>
      <stop offset=".63" stop-color="#FAFBF2" stop-opacity=".37"/>
      <stop offset=".8" stop-color="#FEFEFC" stop-opacity=".2"/>
      <stop offset="1" stop-color="#fff" stop-opacity="0"/>
    </radialGradient>
    <radialGradient id="f" cx="0" cy="0" r="1" gradientUnits="userSpaceOnUse" gradientTransform="rotate(180 12.98 21.2) scale(6.47039)">
      <stop stop-color="#CED56F"/>
      <stop offset=".07" stop-color="#D5DB84" stop-opacity=".93"/>
      <stop offset=".2" stop-color="#E2E6AA" stop-opacity=".8"/>
      <stop offset=".34" stop-color="#EDEFC9" stop-opacity=".66"/>
      <stop offset=".48" stop-color="#F5F6E1" stop-opacity=".52"/>
      <stop offset=".63" stop-color="#FAFBF2" stop-opacity=".37"/>
      <stop offset=".8" stop-color="#FEFEFC" stop-opacity=".2"/>
      <stop offset="1" stop-color="#fff" stop-opacity="0"/>
    </radialGradient>
    <radialGradient id="h" cx="0" cy="0" r="1" gradientUnits="userSpaceOnUse" gradientTransform="matrix(-7.37494 0 0 -7.37495 288.93 77.79)">
      <stop stop-color="#CED56F"/>
      <stop offset=".07" stop-color="#D5DB84" stop-opacity=".93"/>
      <stop offset=".2" stop-color="#E2E6AA" stop-opacity=".8"/>
      <stop offset=".34" stop-color="#EDEFC9" stop-opacity=".66"/>
      <stop offset=".48" stop-color="#F5F6E1" stop-opacity=".52"/>
      <stop offset=".63" stop-color="#FAFBF2" stop-opacity=".37"/>
      <stop offset=".8" stop-color="#FEFEFC" stop-opacity=".2"/>
      <stop offset="1" stop-color="#fff" stop-opacity="0"/>
    </radialGradient>
    <radialGradient id="j" cx="0" cy="0" r="1" gradientUnits="userSpaceOnUse" gradientTransform="translate(309.87 105.47) scale(5.18151)">
      <stop stop-color="#CED56F"/>
      <stop offset=".07" stop-color="#D5DB84" stop-opacity=".93"/>
      <stop offset=".2" stop-color="#E2E6AA" stop-opacity=".8"/>
      <stop offset=".34" stop-color="#EDEFC9" stop-opacity=".66"/>
      <stop offset=".48" stop-color="#F5F6E1" stop-opacity=".52"/>
      <stop offset=".63" stop-color="#FAFBF2" stop-opacity=".37"/>
      <stop offset=".8" stop-color="#FEFEFC" stop-opacity=".2"/>
      <stop offset="1" stop-color="#fff" stop-opacity="0"/>
    </radialGradient>
    <linearGradient id="b" x1="162" y1="298" x2="162" y2="-1" gradientUnits="userSpaceOnUse">
      <stop offset=".31" stop-color="#CCE0F4"/>
      <stop offset=".37" stop-color="#B7CBE1"/>
      <stop offset=".91" stop-color="#001641"/>
    </linearGradient>
    <clipPath id="a">
      <path fill="#fff" d="M0 0h320v194H0z"/>
    </clipPath>
  </defs>
</svg>
