<svg width="320" height="178" viewBox="0 0 320 178" fill="none" xmlns="http://www.w3.org/2000/svg">
    <g clip-path="url(#clip0_5856_51065)">
        <path d="M0 26.9589H320V178H0V26.9589Z" fill="url(#paint0_linear_5856_51065)"/>
        <g filter="url(#filter0_f_5856_51065)">
            <circle cx="105" cy="43" r="4" fill="#FDFEE2" fill-opacity="0.6"/>
        </g>
        <path d="M106.713 43.5152C106.845 43.375 107.243 43.0946 106.978 43.0946C105.122 43.0946 105.652 41.9732 104.724 40.5714C104.724 40.7116 104.591 40.8518 104.591 40.8518C104.193 42.6741 103.265 42.8143 103 43.5152C103 43.6553 103.133 43.5152 103.265 43.6553C103.53 43.9357 103.796 44.216 103.928 44.4964C104.193 44.7768 104.591 45.758 104.856 46.0384C104.856 46.0384 104.724 45.1973 105.387 44.6366C105.917 44.3562 106.315 43.9357 106.713 43.5152Z" fill="#FDFEE2"/>
        <g filter="url(#filter1_f_5856_51065)">
            <circle cx="305" cy="165" r="3" fill="#FDFEE2" fill-opacity="0.6"/>
        </g>
        <path d="M306.785 165.208C306.884 165.103 307.182 164.892 306.984 164.892C305.591 164.892 305.989 164.051 305.293 163C305.293 163.105 305.193 163.21 305.193 163.21C304.895 164.577 304.199 164.682 304 165.208C304 165.313 304.099 165.208 304.199 165.313C304.398 165.523 304.597 165.733 304.696 165.944C304.895 166.154 305.193 166.89 305.392 167.1C305.392 167.1 305.293 166.469 305.79 166.049C306.188 165.839 306.486 165.523 306.785 165.208Z" fill="#FDFEE2"/>
        <g filter="url(#filter2_f_5856_51065)">
            <circle cx="157.5" cy="154.5" r="3.5" fill="#FDFEE2" fill-opacity="0.6"/>
        </g>
        <path d="M159.249 154.576C159.365 154.453 159.713 154.208 159.481 154.208C157.856 154.208 158.321 153.227 157.508 152C157.508 152.123 157.392 152.245 157.392 152.245C157.044 153.84 156.232 153.962 156 154.576C156 154.698 156.116 154.576 156.232 154.698C156.464 154.944 156.696 155.189 156.812 155.434C157.044 155.68 157.392 156.538 157.624 156.784C157.624 156.784 157.508 156.048 158.088 155.557C158.553 155.312 158.901 154.944 159.249 154.576Z" fill="#FDFEE2"/>
    </g>
    <path d="M31.3055 66.0716L31.076 71.3617C30.3498 72.3108 29.5826 73.5374 28.2513 73.8858C26.5254 74.3393 24.255 73.7587 24.121 73.7616C24.1159 73.677 24.116 73.5938 24.1227 73.5067L24.3425 68.4805C24.3425 68.4805 26.058 67.1748 27.815 66.7296C29.1839 66.3859 30.554 67.0527 31.3055 66.0716Z" fill="#F4DDDC"/>
    <path d="M31.5074 61.5679L31.5022 61.5665L31.4994 61.5769C30.7428 62.5566 29.2605 64.38 27.8916 64.7238C26.1346 65.169 24.534 63.974 24.534 63.974L24.7673 58.6905C24.7673 58.6905 26.2885 57.5714 27.935 57.0411C28.0711 56.9888 28.2031 56.952 28.3403 56.9166C29.6834 56.5658 31.0013 57.241 31.7355 56.283L31.572 60.1252L31.5074 61.5679Z" fill="#F4DDDC"/>
    <path d="M31.9297 51.7883C31.2316 52.6949 29.8965 54.5078 28.6249 54.861C28.2224 54.9752 27.8199 55.0061 27.4431 54.9829C26.0667 54.9194 24.963 54.1907 24.963 54.1907L25.191 48.9057C25.191 48.9057 26.3171 47.9973 27.6829 47.4583C27.9486 47.3574 28.2233 47.2645 28.5015 47.2002C29.8193 46.8816 31.1719 47.4273 31.9776 46.6994C32.0399 46.6328 32.1059 46.5728 32.1578 46.5034L31.9297 51.7883Z" fill="#F4DDDC"/>
    <path d="M32.3972 39.7672C31.5628 41.1202 30.4554 43.3882 29.419 44.1486C28.8803 44.5428 28.3564 44.7577 27.8641 44.8756C26.6627 45.1532 25.6839 44.8077 25.3677 44.8895L25.5535 40.6536C25.8708 40.4222 26.3013 39.1885 27.1222 37.5543C27.2434 37.3092 27.3726 37.0552 27.5148 36.7935C28.1137 35.6772 29.294 34.8775 29.7452 33.0277L29.7504 33.0291C29.7504 33.0291 29.7542 33.0357 29.7632 33.0436C31.3415 34.9432 32.2644 37.3 32.3972 39.7672Z" fill="#F4DDDC"/>
    <path d="M16.3438 39.4516C15.9921 39.1686 15.2833 38.9343 14.5709 38.7545C13.5633 38.4956 12.5445 38.3614 12.5445 38.3614C12.5445 38.3614 10.8294 37.0136 10.011 36.7943L9.97995 36.786C10.579 34.9646 11.6238 33.3238 13.026 32.0063L13.0364 32.0091C13.5935 32.2916 16.6243 33.3702 16.6243 33.3702C16.6243 33.3702 16.7359 33.6166 16.8975 33.9874C17.2295 34.737 17.7731 35.9819 18.0759 36.6959C17.1877 37.3794 16.5703 38.3576 16.3438 39.4516Z" fill="#F4DDDC"/>
    <path d="M31.0791 71.3514L30.9743 73.7937C30.9321 74.6761 30.5525 75.5126 29.9114 76.1236C29.2703 76.7346 28.4139 77.0713 27.5321 77.0682C26.6451 77.0637 25.7951 76.7138 25.1603 76.0996C24.5268 75.4802 24.152 74.6414 24.1227 73.7565C24.3583 73.7474 29.4061 73.5345 31.0791 71.3514Z" fill="#439A72"/>
    <path d="M31.1559 66.2369C29.431 68.1785 24.9675 68.4481 24.4052 68.475L24.3492 68.4767L24.3441 68.4753L24.5342 63.9741C24.5342 63.9741 29.7816 63.8035 31.4996 61.577L31.3056 66.0716C31.2565 66.1306 31.2074 66.1896 31.1559 66.2369Z" fill="#439A72"/>
    <path d="M31.7358 56.2831C31.0283 57.2038 29.7272 57.7712 28.4335 58.124C26.587 58.6341 24.7676 58.6906 24.7676 58.6906L24.963 54.1908C24.963 54.1908 26.0159 54.1565 27.3336 53.9211C28.9567 53.6232 30.9829 53.0225 31.9298 51.7885L31.7358 56.2831Z" fill="#439A72"/>
    <path d="M24.791 34.487C24.4617 35.1982 23.8724 35.7398 23.4204 36.4736C22.5634 35.922 21.5479 35.6721 20.5333 35.7499C20.6077 34.8095 19.7549 34.1591 19.2843 33.1392C19.2492 33.0632 19.2192 32.9885 19.1892 32.9139C18.5677 31.2762 18.367 29.2905 18.3613 29.1669L18.3561 29.1655C19.3563 28.9339 20.3854 28.8432 21.4071 28.8838C22.4326 28.931 23.4455 29.108 24.4223 29.4197C24.4223 29.4197 24.4209 29.4249 24.4299 29.4328C24.4881 29.6094 25.2236 31.8161 25.0411 33.6159C25.0096 33.9405 24.9164 34.2264 24.791 34.487Z" fill="#F4DDDC"/>
    <path d="M15.0545 44.3246C14.3836 44.922 13.5107 45.2377 12.6151 45.2031C11.7157 45.162 10.8703 44.7745 10.2583 44.1164C10.2072 44.0583 10.1562 44.0002 10.1065 43.9369C9.87058 43.6572 9.68996 43.3368 9.55911 42.9964L9.55394 42.995C9.39831 42.5814 9.32111 42.1443 9.33511 41.6984L9.40982 39.8865C9.45597 38.8441 9.64235 37.817 9.96856 36.8275C9.97134 36.8171 9.98207 36.7978 9.97967 36.786L10.0107 36.7944C11.1379 37.0631 12.9904 37.5872 14.5991 38.3791C15.2429 38.6904 15.8455 39.0517 16.3435 39.4516L16.3487 39.453C16.3004 39.6954 16.269 39.9368 16.2584 40.1838L16.1836 41.9957C16.127 42.891 15.7201 43.7257 15.0545 44.3246Z" fill="#439A72"/>
    <path d="M20.5346 35.7447C19.6385 35.8155 18.7836 36.1471 18.0758 36.6958C17.698 35.8063 17.0817 35.0194 16.3944 34.3522C15.1299 33.1252 13.6373 32.3144 13.0349 32.0142C14.5285 30.6047 16.3635 29.6197 18.3574 29.1602L18.3626 29.1616C18.437 29.2982 19.4907 31.146 20.1022 33.0697C20.4065 34.0061 20.5998 34.9628 20.5346 35.7447Z" fill="#439A72"/>
    <path d="M27.4334 38.5702C26.5957 39.8113 25.8451 40.4374 25.554 40.6536L25.5565 40.5821C25.5909 39.7697 25.4133 38.9616 25.0339 38.2437C24.661 37.522 24.1029 36.9117 23.4208 36.4736C23.8448 35.7822 24.1111 34.9542 24.2748 34.1154C24.7283 31.8221 24.4199 29.4301 24.4199 29.4301L24.4303 29.4328C26.512 30.0961 28.3588 31.3459 29.7523 33.0239L29.7495 33.0343C29.133 35.5837 28.2445 37.3664 27.4334 38.5702Z" fill="#439A72"/>
    <path d="M31.9774 46.6995C30.973 47.796 29.1009 48.3603 27.568 48.6323C26.2437 48.8715 25.1908 48.9058 25.1908 48.9058L25.3677 44.8896C25.6852 44.8026 26.6824 44.5202 27.8925 43.8784C29.3531 43.1096 31.1294 41.8257 32.3971 39.7672C32.4171 40.1278 32.4173 40.4998 32.4006 40.8729L32.1576 46.5035C32.0992 46.5767 32.0435 46.6395 31.9774 46.6995Z" fill="#439A72"/>
    <g style="mix-blend-mode:multiply" opacity="0.2">
        <path d="M31.7729 68.7615L31.1906 68.7387L24.4052 68.4749L24.3493 68.4766L24.3441 68.4752L24.5343 63.974L24.7675 58.6905L24.9629 54.1907L25.191 48.9057L25.3678 44.8895L25.5535 40.6535L25.556 40.582C25.5905 39.7697 25.4129 38.9615 25.0335 38.2436C24.6606 37.522 24.1024 36.9116 23.4204 36.4735C22.5634 35.9219 21.5478 35.672 20.5333 35.7499C19.6386 35.8155 18.7836 36.1471 18.0759 36.6958C17.1877 37.3793 16.5703 38.3575 16.3438 39.4515L16.349 39.4529C16.3007 39.6953 16.2693 39.9367 16.2586 40.1837L16.1839 41.9957C16.1272 42.8909 15.7204 43.7256 15.0547 44.3245C14.3839 44.9219 13.511 45.2376 12.6154 45.203C11.716 45.1619 10.8706 44.7744 10.2586 44.1163C10.2075 44.0582 10.1565 44.0001 10.1068 43.9369L9.5594 42.9963L9.55424 42.9949C9.55424 42.9949 14.0589 44.6017 14.5709 38.7544C14.5821 38.6297 14.5919 38.5102 14.5994 38.379C14.708 36.4818 15.4049 35.1863 16.3945 34.3522C16.5528 34.217 16.724 34.0963 16.8975 33.9874C17.6103 33.5233 18.4368 33.2562 19.2843 33.1391C19.5555 33.1008 19.8277 33.0793 20.1023 33.0697C21.7317 33.0177 23.3318 33.4687 24.2743 34.1154C24.4479 34.2341 24.6202 34.3579 24.791 34.487C25.7159 35.1789 26.5483 36.0293 27.1223 37.5543C27.2394 37.8632 27.3443 38.1967 27.433 38.5702C27.7661 39.8752 27.9416 41.5821 27.8926 43.8784C27.8898 44.1996 27.879 44.5298 27.8641 44.8755C27.8286 45.671 27.7713 46.5272 27.6828 47.4583C27.6478 47.8375 27.61 48.2271 27.5681 48.6323C27.5451 48.8426 27.5206 49.0581 27.4962 49.2736C27.2791 51.1196 27.2469 52.6487 27.3335 53.921C27.361 54.2947 27.3992 54.6492 27.4431 54.9829C27.5557 55.7847 27.7276 56.4692 27.9352 57.0411C28.0857 57.4534 28.25 57.8138 28.4334 58.1239C29.6988 60.3005 31.5722 60.1252 31.5722 60.1252L31.7729 68.7615Z" fill="#4C8089"/>
    </g>
    <path d="M79.4827 179.228C58.4789 194.984 34.3496 188.075 34.3496 188.075L21.3438 190.847L23.3631 185.631L20.4489 185.277L20.2659 185.256L16.9691 190.019L9.08879 187.418L8.46229 183.603L-0.479133 180.447L-3.5783 183.125L-10.9645 180.152L-10.9176 174.425L-13.2459 172.879L-16.5441 177.647L-22.7559 174.911C-22.7559 174.911 -22.9755 171.96 -22.9426 167.3C-38.417 159.312 -47.3271 149.658 -52.0512 140.292C-56.7401 131.003 -57.3014 121.992 -56.0656 115.184C-53.5699 101.519 -39.852 76.9049 -22.4059 71.2151C-4.95319 65.5214 22.7904 70.8347 41.6158 78.0218C41.6158 78.0218 54.5914 82.5312 67.7941 90.1713C67.8365 90.1993 67.8855 90.2236 67.928 90.2516C74.8325 94.2556 81.7903 99.1177 86.9718 104.642C107.2 132.262 100.269 163.58 79.4827 179.228Z" fill="#F79D31"/>
    <path opacity="0.25" d="M79.4824 179.228C58.4785 194.984 34.3492 188.075 34.3492 188.075L21.3435 190.847L23.3628 185.631L20.4486 185.277L20.2656 185.256L16.9687 190.018L9.08847 187.418L8.46197 183.603L-0.479453 180.447L-3.57861 183.125L-10.9648 180.152L-10.9179 174.425L-13.2462 172.879L-16.5444 177.647L-22.7562 174.911C-22.7562 174.911 -22.9758 171.96 -22.9429 167.3C-38.4173 159.312 -47.3274 149.658 -52.0515 140.292C-47.3408 143.264 -23.3746 157.391 -9.8686 146.765C-9.8686 146.765 26.0217 138.373 29.8788 103.012C31.5209 87.9742 48.6485 86.6846 67.7937 90.1713C67.8362 90.1993 67.8852 90.2235 67.9277 90.2516C74.8322 94.2556 81.7899 99.1177 86.9714 104.642C107.2 132.262 100.268 163.58 79.4824 179.228Z" fill="#B65514"/>
    <path d="M10.3542 147.288C12.0276 150.573 16.4333 149.483 16.4333 149.483C16.4333 149.483 20.0626 152.865 22.961 150.521C25.7248 148.142 24.3044 141.799 19.2353 139.025C12.2986 140.57 8.5513 143.968 10.3542 147.288Z" fill="#9C501D"/>
    <path d="M17.1859 146.137C19.6707 148.507 22.3018 148.218 24.2541 146.754C24.1361 144.024 22.2919 140.838 19.0664 139.119C15.4653 139.858 12.85 141.145 11.2979 142.711C12.2926 144.82 13.8142 147.077 17.1873 146.132L17.1859 146.137Z" fill="#FFD62C"/>
    <path opacity="0.35" d="M79.4825 179.228C58.4787 194.984 34.3494 188.075 34.3494 188.075L21.3437 190.847L23.363 185.631L20.4488 185.277C58.748 133.047 56.6055 110.173 56.6055 110.173L67.9278 90.2516C74.8324 94.2556 81.7901 99.1177 86.9716 104.642C107.2 132.262 100.269 163.58 79.4825 179.228Z" fill="#B65514"/>
    <path d="M82.7712 100.741C82.3481 101.304 81.8573 101.872 81.2967 102.411C81.0097 102.695 80.6981 102.966 80.3697 103.239C77.0977 106.831 72.7025 109.851 67.4427 111.994C67.3778 111.988 67.3143 111.976 67.2507 111.965C65.6818 111.75 64.002 111.472 62.1945 111.132C60.9019 110.88 59.542 110.61 58.1217 110.296C54.7675 109.575 51.0627 108.671 46.9577 107.582C45.6355 107.233 44.2785 106.87 42.8776 106.483C34.8062 104.265 26.0652 100.713 17.8726 96.73C15.8869 95.7705 13.9317 94.7802 12.0352 93.778C12.03 93.7766 12.0314 93.7714 12.0314 93.7714C11.4176 93.4515 10.8104 93.1278 10.2084 92.8055C3.68983 89.288 -2.15338 85.6738 -6.59542 82.5073C-7.17826 79.7308 -7.11829 77.2487 -6.72391 75.3004C-6.63323 74.8584 -6.52738 74.4426 -6.40636 74.0531C-6.22364 73.4748 -6.01159 72.932 -5.7768 72.4287C-5.07066 70.8914 -4.15561 69.6932 -3.18915 68.8419C-1.70266 67.5415 -0.113844 67.0401 0.990418 67.3526C3.06945 67.943 3.57874 65.5036 2.60126 62.2939C1.60686 59.0852 4.10535 57.5508 7.88725 57.5871C8.09576 50.7592 11.3951 48.2457 17.6528 48.6346C21.5025 48.8944 23.118 52.6859 23.9915 56.4285C24.5712 58.9265 24.8156 61.4124 25.1821 62.8208C26.118 66.1859 28.9707 66.4784 32.072 64.6003C32.2601 64.4786 32.4505 64.3686 32.6341 64.2846C34.9234 63.1992 37.0682 64.5178 38.6183 66.0879C38.9291 66.3988 39.2203 66.7211 39.4752 67.0336C40.5803 68.3789 41.2098 67.9148 42.0997 67.5148C42.5428 67.3115 43.0518 67.1315 43.7218 67.2C45.1071 67.3547 46.0616 68.4542 46.6028 70.2258C46.7483 70.6978 46.8696 71.2189 46.9563 71.7861C47.0111 72.1617 47.0538 72.5617 47.0872 72.9759C47.1624 73.9176 47.2601 74.5267 47.4362 74.8847C47.889 75.8055 48.8584 75.0882 51.2259 74.146C51.9959 73.8415 52.8256 73.542 53.6804 73.2936L53.6856 73.295C56.492 72.476 59.5953 72.1861 62.124 73.9573C65.4775 76.1105 68.0624 78.5629 68.1603 81.8645C68.2634 85.1674 67.3773 85.2631 69.9392 85.2945C72.5153 85.3352 72.4978 87.2236 72.1176 89.1813C71.736 91.1442 72.8331 93.3478 74.6792 92.3214C80.8869 90.1209 82.6608 90.2965 84.1037 91.5824C84.1717 91.6395 84.2383 91.7018 84.3035 91.7692C84.3507 91.8207 84.407 91.8802 84.4515 91.9421C84.4973 91.9988 84.5456 92.0672 84.5821 92.1381C84.6176 92.192 84.6532 92.246 84.6845 92.3154C85.4822 93.917 85.2317 97.4417 82.7778 100.737L82.7712 100.741Z" fill="#D156B7"/>
    <path d="M46.0958 102.677C46.5356 104.288 46.1255 106.171 46.9562 107.587C45.634 107.239 44.277 106.875 42.8761 106.489C34.8047 104.27 26.0638 100.718 17.866 96.7338C17.9689 96.7225 18.0732 96.706 18.1752 96.6778C21.0913 95.9881 22.3243 93.5205 24.7926 92.0779C26.5319 91.0562 28.8897 90.5444 32.887 91.5377C37.2403 92.632 42.1382 95.299 44.6639 99.3399C45.3062 100.361 45.8012 101.477 46.0906 102.676L46.0958 102.677Z" fill="#BA47A4"/>
    <path d="M34.5229 79.2357C35.9309 79.1189 37.0213 77.7013 36.9739 76.656C36.6935 73.9939 33.051 73.4786 31.8277 75.3714C30.311 77.6963 32.5863 79.3774 34.5229 79.2357Z" fill="#E867D6"/>
    <path d="M35.4344 72.7904C36.0708 71.7618 36.0234 70.7165 33.9262 70.8152C31.605 71.7088 34.7979 73.819 35.4344 72.7904Z" fill="#E867D6"/>
    <path d="M44.1092 87.3834C44.3521 84.695 41.384 80.5855 37.2219 82.5069C32.3328 84.5722 34.1214 89.2094 37.9719 90.813C41.8223 92.4165 43.9106 89.9061 44.1054 87.3769L44.1092 87.3834Z" fill="#E867D6"/>
    <path opacity="0.77" d="M39.4212 84.3454C40.5882 83.8643 40.3103 83.2236 38.702 82.9481C37.7785 82.7895 36.1375 83.9208 36.1478 84.8562C36.039 85.6764 38.139 84.9456 39.4212 84.3454Z" fill="white"/>
    <path d="M44.8964 90.7031C44.9394 90.5425 44.9824 90.3819 44.8271 90.3403C44.6717 90.2987 44.5059 90.2543 44.4643 90.4096C42.6264 92.6485 40.9417 92.5135 38.5949 91.6793C38.5949 91.6793 38.4343 91.6362 38.3927 91.7916C38.351 91.947 38.3066 92.1128 38.462 92.1544L39.4161 92.4267C41.4899 93.0157 43.1015 92.7814 44.8964 90.7031Z" fill="#E867D6"/>
    <path d="M33.4367 86.0891C33.3411 85.203 33.7271 84.446 34.4315 83.7854C34.4746 83.6248 34.5176 83.4642 34.3622 83.4226C34.2068 83.3809 34.0411 83.3365 33.9994 83.4919C33.252 84.3131 32.8191 85.2241 32.8718 86.2708C32.9192 87.3161 33.5631 88.7044 34.6559 89.7022L34.8164 89.7453L35.0186 89.6329C35.0617 89.4723 35.1047 89.3118 34.9493 89.2701C33.8566 88.2723 33.3302 87.0876 33.4367 86.0891Z" fill="#E867D6"/>
    <path d="M49.8383 55.3324C50.5209 55.3543 51.3376 54.8959 51.4025 54.0528C51.4674 53.2097 51.009 52.393 50.3265 52.3711C49.644 52.3492 48.8272 52.8076 48.7623 53.6507C48.6974 54.4938 49.1558 55.3105 49.8383 55.3324Z" fill="#D156B7"/>
    <path d="M51.1784 68.2322C51.7335 68.17 52.468 67.5008 52.626 66.4551C52.7855 65.4042 52.5179 64.4553 51.9576 64.5161C51.3972 64.577 50.6679 65.2476 50.5099 66.2933C50.3504 67.3442 50.618 68.293 51.1784 68.2322Z" fill="#D156B7"/>
    <path d="M83.1628 83.0144C80.1884 85.6204 77.4651 89.1542 76.1913 88.7907C76.01 88.7421 75.8336 88.6338 75.6777 88.4699C74.7511 87.4943 74.4623 84.6357 76.7151 80.8481C78.6396 78.6381 80.6209 76.693 82.6358 76.8388C83.0164 76.8686 83.4035 76.9778 83.7867 77.1638C86.0371 78.3164 86.0928 80.5741 83.168 83.0157L83.1628 83.0144Z" fill="#BA47A4"/>
    <path d="M82.0955 82.7285C79.4935 85.0013 77.0927 87.9942 75.6722 88.4685C74.7456 87.493 74.4568 84.6343 76.7096 80.8468C78.6341 78.6367 80.6153 76.6916 82.6303 76.8374C82.6548 76.8495 82.6845 76.863 82.7142 76.8765C84.9646 78.0291 85.0202 80.2868 82.0955 82.7285Z" fill="#D156B7"/>
    <path d="M69.8054 66.3174C67.8695 65.2546 67.174 68.3269 68.3566 69.0102C69.5391 69.6935 71.0142 67.524 69.8054 66.3174Z" fill="#D156B7"/>
    <path d="M85.4293 88.9955C85.2905 88.975 85.161 88.9403 85.0333 88.8783C84.105 88.4686 83.5681 87.1367 83.9445 86.3327C84.4204 85.2611 85.2801 84.6421 86.5803 85.529C86.671 85.6254 86.742 85.7333 86.7961 85.8421C87.4785 87.1075 86.6009 89.3261 85.4241 88.9941L85.4293 88.9955Z" fill="#BA47A4"/>
    <path d="M85.0333 88.8783C84.105 88.4686 83.5681 87.1367 83.9445 86.3327C84.4204 85.2611 85.2801 84.6421 86.5803 85.529C86.671 85.6254 86.742 85.7333 86.7961 85.8421C86.8765 87.0961 85.9326 88.6918 85.0281 88.8769L85.0333 88.8783Z" fill="#D156B7"/>
    <path d="M1.67107 51.5304C0.508242 51.3743 0.811281 52.1494 0.174833 53.178C-0.460228 54.2014 -1.0529 53.8649 -2.07933 52.0188C-2.0969 51.9808 -2.12104 51.9466 -2.13861 51.9086C-3.10567 50.0895 -3.13276 47.9116 -2.20284 46.9894C-0.788416 45.8751 1.98326 45.8072 3.21728 47.3759C3.52941 47.7648 3.74091 48.2601 3.81272 48.8622C4.15728 51.8857 2.63548 51.8055 1.67625 51.5318L1.67107 51.5304Z" fill="#BA47A4"/>
    <path d="M1.28033 50.854C0.11751 50.6979 0.42055 51.473 -0.215898 52.5016C-0.781393 53.4104 -1.30934 53.2467 -2.14398 51.9072C-3.11104 50.0881 -3.13814 47.9103 -2.20821 46.9881C-0.793788 45.8737 1.97791 45.8059 3.21192 47.3745C3.31318 47.6182 3.38021 47.8859 3.41542 48.1896C3.75998 51.2131 2.23818 51.1329 1.27894 50.8592L1.28033 50.854Z" fill="#D156B7"/>
    <path d="M-0.64302 60.3533C-0.77239 61.0847 -1.81934 61.3871 -2.63132 61.0196L-2.6365 61.0182C-3.4692 60.6452 -4.05099 59.5844 -3.1367 57.5811C-2.75497 57.5446 -2.42995 57.554 -2.14193 57.5978L-2.13674 57.5992C-0.703193 57.8223 -0.409262 58.9836 -0.64302 60.3533Z" fill="#BA47A4"/>
    <path d="M70.7877 77.4446C69.8972 78.0332 68.9332 77.4251 68.3925 76.7085C68.1597 76.3963 68.0105 76.0621 67.9825 75.7937C67.9299 74.747 70.1787 72.2796 71.6183 72.6876C71.8899 72.8547 72.1066 73.0405 72.2739 73.2241C73.6648 74.7459 71.9216 76.6937 70.7877 77.4446Z" fill="#BA47A4"/>
    <path d="M70.337 76.9297C69.6632 77.3932 68.9478 77.1626 68.3988 76.7046C68.166 76.3924 68.0169 76.0582 67.9889 75.7898C67.9362 74.7431 70.1851 72.2758 71.6246 72.6837C71.8963 72.8509 72.113 73.0366 72.2803 73.2202C72.796 74.6519 71.3343 76.2532 70.337 76.9297Z" fill="#D156B7"/>
    <path d="M44.3189 58.4445C43.9034 59.8709 42.327 60.0981 41.109 59.8161C40.5817 59.6915 40.1236 59.4744 39.8497 59.2122C38.8531 58.1458 39.0224 53.4946 40.919 52.6316C41.3571 52.5714 41.7578 52.5677 42.1018 52.6099C44.952 52.9739 44.8516 56.6221 44.3241 58.4459L44.3189 58.4445Z" fill="#BA47A4"/>
    <path d="M43.3678 58.3063C43.0722 59.4095 42.0938 59.808 41.1039 59.8147C40.5766 59.6901 40.1185 59.473 39.8445 59.2108C38.8479 58.1444 39.0172 53.4933 40.9139 52.6303C41.3519 52.57 41.7526 52.5663 42.0966 52.6085C43.9388 53.6684 43.8229 56.6906 43.3744 58.3025L43.3678 58.3063Z" fill="#D156B7"/>
    <path opacity="0.5" d="M32.6269 64.2883C31.1252 68.1939 28.1154 70.6627 25.4894 69.9591C22.5526 69.1722 21.1863 64.7202 22.4465 60.0172C22.8045 58.6809 23.3362 57.4632 23.983 56.4374C24.5627 58.9355 24.8071 61.4214 25.1736 62.8297C26.1094 66.1948 28.9622 66.4873 32.0635 64.6092C32.2516 64.4875 32.442 64.3776 32.6255 64.2935L32.6269 64.2883Z" fill="#BA47A4"/>
    <path opacity="0.5" d="M42.0317 67.8299C41.6764 69.1558 40.5566 69.9994 39.5259 69.7232C38.4951 69.447 37.9485 68.1514 38.3024 66.8306C38.3732 66.5664 38.4751 66.3106 38.6114 66.0918C38.9223 66.4027 39.2134 66.725 39.4683 67.0375C40.5734 68.3829 41.2029 67.9187 42.0929 67.5187C42.0755 67.6251 42.0543 67.7249 42.0265 67.8285L42.0317 67.8299Z" fill="#BA47A4"/>
    <path d="M75.374 97.3709C76.0187 98.0933 77.2463 98.1113 77.7978 97.6484C79.1429 96.399 77.9197 94.1893 76.3804 94.2987C74.4805 94.428 74.4999 96.3651 75.3754 97.3658L75.374 97.3709Z" fill="#E867D6"/>
    <path d="M80.7108 93.8433C81.5354 93.77 82.0869 93.3071 81.1729 92.2018C79.7273 91.2982 79.8862 93.9166 80.7108 93.8433Z" fill="#E867D6"/>
    <path d="M86.2792 104.035C85.186 102.914 84.0142 101.818 82.7848 100.75C82.7796 100.749 82.7758 100.742 82.7706 100.741C82.5964 100.583 82.4194 100.436 82.2386 100.282C82.0743 100.46 81.9048 100.636 81.725 100.81C81.438 101.094 81.1264 101.366 80.7979 101.639C80.2944 102.192 79.7611 102.732 79.1995 103.253C79.1465 103.928 78.8242 104.53 78.2407 104.967C77.7342 105.303 77.0835 105.556 76.264 105.714C75.3218 105.895 74.1567 105.955 72.744 105.882C72.5375 105.865 72.3296 105.854 72.1113 105.84C69.639 105.66 66.4639 105.12 62.4627 104.204C57.7501 103.124 51.8862 101.514 44.6634 99.3399C44.2933 99.2296 43.9193 99.1128 43.5388 98.9997C37.5522 97.1847 31.0676 94.7421 24.7908 92.0832C20.5288 90.275 16.3647 88.3709 12.5238 86.5035C9.91504 85.2383 7.46202 83.9925 5.21997 82.8089L5.21478 82.8075C4.03526 82.175 2.9203 81.5709 1.87405 80.9797C1.70905 80.8911 1.55062 80.7986 1.39079 80.7114C0.664195 80.2947 -0.0327214 79.8914 -0.689582 79.5045C-0.848016 79.412 -1.00127 79.321 -1.15314 79.2248C-3.7015 77.6926 -5.58521 76.394 -6.55715 75.4841C-6.61856 75.4232 -6.68654 75.3661 -6.73621 75.3029C-7.01117 75.0238 -5.4393 72.5138 -4.48214 71.0549C-4.02571 70.3667 -3.13185 69.2683 -2.70179 68.6785C-5.24297 68.6526 -9.2207 68.8914 -11.615 69.1048C-13.8319 70.2928 -15.4649 71.8704 -15.1867 74.1266C-14.9815 75.7638 -11.7396 78.8308 -6.60771 82.5097C-2.16705 85.6815 3.67614 89.2956 10.1961 92.808C10.7967 93.1355 11.4039 93.4592 12.0191 93.7739C12.0191 93.7739 12.0177 93.7791 12.0229 93.7804C13.926 94.7789 15.8746 95.7729 17.8603 96.7324C26.0529 100.715 34.7939 104.268 42.8653 106.486C44.2662 106.872 45.6232 107.236 46.9454 107.585C51.0452 108.672 54.7501 109.576 58.1094 110.298C59.5297 110.612 60.8896 110.882 62.1822 111.134C63.9845 111.473 65.6695 111.752 67.2384 111.967C67.302 111.979 67.3655 111.99 67.4304 111.997C76.6857 113.277 81.9584 112.453 84.6261 109.748C86.0389 108.267 86.4581 106.081 86.2778 104.04L86.2792 104.035Z" fill="#F9B35F"/>
    <path d="M2.01652 136.782C3.93089 134.403 9.31003 109.003 -2.14133 102.803C-6.87474 100.952 -17.1471 103.612 -21.0176 113.561C-24.7304 123.564 -23.7298 133.442 -15.2604 135.894C-6.84579 138.51 0.100767 139.166 2.01514 136.787L2.01652 136.782Z" fill="#9C501D"/>
    <path opacity="0.5" d="M34.1327 188.178C34.1327 188.178 58.2634 195.082 79.2658 179.331C84.5833 175.46 88.9033 170.339 92.106 164.83C85.9728 169.487 76.327 175.963 66.7102 177.771C51.2318 180.924 35.3761 181.611 33.3046 168.665C25.1675 177.465 7.85269 175.663 -0.79181 171.17C-9.4363 166.678 -11.4254 155.02 -11.4254 155.02C-11.4254 155.02 -21.4562 165.128 -38.9816 148.158C-49.1864 137.907 -53.0743 121.982 -54.744 110.437C-55.3641 112.192 -55.7691 113.848 -55.9031 115.239C-58.395 128.911 -53.6048 151.434 -22.7801 167.355C-22.8078 172.016 -22.5934 174.966 -22.5934 174.966L-16.3764 177.703L-13.0796 172.941L-10.7499 174.481L-10.7982 180.214L-3.4106 183.181L-0.311436 180.503L8.62996 183.66L9.25648 187.475L17.1354 190.08L20.4322 185.318L23.5294 185.692L21.5101 190.908L34.1417 188.186L34.1327 188.178Z" fill="#B65514"/>
    <path d="M49.5977 158.619C53.2204 159.54 58.4625 156.903 61.8726 151.821C65.0664 146.842 70.1256 130.489 60.4148 125.439C56.3697 124.188 48.0117 124.469 42.9583 131.664C37.905 138.859 32.5856 145.783 33.4388 148.96C34.5083 152.033 45.9699 157.697 49.5977 158.619Z" fill="#9C501D"/>
    <path d="M4.11956 129.801C5.71841 121.203 5.96823 107.28 -1.98413 102.857C-2.62288 102.63 -3.26162 102.403 -3.95513 102.34C-6.11348 103.371 -10.0677 105.926 -13.0124 111.715C-17.2899 120.262 -19.2596 125.852 -12.6891 129.611C-6.7574 133.143 -0.849512 135.231 4.11956 129.801Z" fill="#FFD62C"/>
    <path d="M57.5011 147.935C59.5392 144.701 63.3465 132.397 59.5662 125.311C55.2448 124.325 47.7916 125.104 43.1213 131.719C40.6506 135.159 38.2346 138.437 36.4677 141.405C37.3209 144.582 39.2263 148.845 43.261 150.631C50.2745 153.649 55.1882 151.429 57.496 147.934L57.5011 147.935Z" fill="#FFD62C"/>
    <path d="M6.24206 110.074C6.39986 110.127 6.61621 110.024 6.67477 109.868C7.11779 109.126 7.39783 108.329 7.84085 107.588C9.78477 103.606 11.5723 99.5663 15.4235 96.7956C15.6399 96.6925 15.5369 96.4762 15.4338 96.2598C15.3308 96.0435 15.1145 96.1465 14.8981 96.2495C10.8305 99.1233 8.98962 103.321 7.04431 107.308C6.76426 108.104 6.32125 108.846 5.87823 109.588C5.98125 109.804 6.08426 110.02 6.24723 110.075L6.24206 110.074Z" fill="#B65514"/>
    <path d="M10.6163 110.902C10.7741 110.955 10.9904 110.852 11.049 110.696C11.5454 109.796 11.8854 108.838 12.2254 107.88C13.4566 104.901 14.7463 101.766 17.1364 99.5584C17.3528 99.4554 17.2498 99.239 17.1468 99.0227C17.0437 98.8063 16.8274 98.9094 16.611 99.0124C14.1609 101.381 12.8712 104.517 11.4237 107.598C11.0837 108.556 10.5873 109.456 10.2473 110.414C10.3503 110.63 10.4533 110.847 10.6163 110.902Z" fill="#B65514"/>
    <path d="M14.6745 117.718C14.8323 117.771 15.0487 117.668 15.1072 117.512C15.5606 116.235 16.1703 115.016 16.7814 113.791C17.3912 112.573 18.0023 111.348 18.509 109.913C18.5624 109.755 18.4594 109.539 18.303 109.48C18.1466 109.422 17.9288 109.53 17.8702 109.687C17.4169 110.964 16.8072 112.183 16.196 113.407C15.5863 114.626 14.9752 115.85 14.5219 117.128C14.2507 117.394 14.3551 117.605 14.6745 117.718C14.5167 117.665 14.6745 117.718 14.6745 117.718Z" fill="#B65514"/>
    <path d="M34.9595 123.808C35.1173 123.862 35.3337 123.759 35.3922 123.602C36.4553 121.106 36.9241 118.756 37.0187 116.455C37.0721 116.297 36.8127 116.022 36.5963 116.125C36.4385 116.072 36.1636 116.331 36.2666 116.548C36.2254 118.691 35.758 121.036 34.7535 123.376C34.7535 123.376 34.8565 123.592 34.9595 123.808Z" fill="#B65514"/>
    <path d="M43.6884 120.962C43.8461 121.016 44.0625 120.913 44.1211 120.756C45.1256 118.416 45.1172 115.899 45.1088 113.382C45.0264 112.094 44.9974 110.649 45.2344 109.474C45.2878 109.317 45.1847 109.1 44.8654 108.987C44.7076 108.934 44.4912 109.037 44.3779 109.356C44.2439 110.747 44.3315 112.036 44.3553 113.48C44.4223 115.841 44.4855 118.195 43.481 120.535C43.4276 120.693 43.5306 120.909 43.687 120.968L43.6884 120.962Z" fill="#B65514"/>
    <path d="M47.0586 124.13C47.0052 124.288 47.1083 124.505 47.2647 124.563C47.4211 124.622 47.6388 124.513 47.7521 124.194C47.8158 123.501 48.1024 122.7 48.2209 121.844C49.04 118 50.0361 113.143 48.3368 109.312C48.2337 109.096 48.0759 109.042 47.8596 109.145C47.6432 109.248 47.5885 109.411 47.6929 109.622C49.2293 113.398 48.2917 118.099 47.5274 121.78C47.2473 122.577 47.1771 123.274 47.0586 124.13Z" fill="#B65514"/>
    <path d="M-1.2404 157.182C-1.08261 157.236 -0.866251 157.133 -0.807689 156.976C0.373842 153.623 1.88131 150.38 3.38221 147.14C4.05189 145.76 4.71641 144.378 5.22312 142.943C5.2765 142.785 5.17347 142.569 5.01707 142.51C4.86067 142.451 4.64294 142.56 4.58437 142.716C3.91469 144.097 3.40797 145.532 2.74347 146.914C1.24256 150.153 -0.264904 153.397 -1.50639 156.911C-1.66418 156.858 -1.55976 157.069 -1.24557 157.181L-1.2404 157.182Z" fill="#B65514"/>
    <path d="M22.8734 165.165C23.0312 165.218 23.2475 165.115 23.4639 165.012C26.4413 160.136 27.4478 154.743 28.2378 149.454C28.2912 149.296 28.1882 149.079 27.8688 148.966C27.711 148.913 27.4947 149.016 27.3813 149.335C26.4297 154.565 25.4233 159.958 22.6622 164.73C22.6088 164.888 22.7118 165.105 22.8682 165.163L22.8734 165.165Z" fill="#B65514"/>
    <path d="M12.4901 179.82C13.7934 178.664 15.0535 177.131 16.2693 175.225C16.3227 175.068 16.3826 174.906 16.1166 174.635C15.9588 174.581 15.7972 174.522 15.5261 174.788C14.3156 176.695 13.1102 178.065 11.8069 179.22C11.5906 179.323 11.6936 179.54 11.7966 179.756L11.9544 179.809C12.2152 180.079 12.4316 179.976 12.4901 179.82Z" fill="#B65514"/>
    <path d="M-1.47813 176.676C-1.26177 176.573 -1.20701 176.41 -1.14844 176.254C-1.44719 175.069 -1.20507 173.357 -0.742814 171.549C-0.689431 171.392 -0.792461 171.175 -0.948863 171.117C-1.10527 171.058 -1.32301 171.166 -1.38157 171.323C-1.67193 172.655 -2.03256 174.685 -1.68418 176.244C-1.73756 176.401 -1.58115 176.46 -1.42336 176.513C-1.5676 176.582 -1.58538 176.635 -1.47674 176.671L-1.47813 176.676Z" fill="#B65514"/>
    <path d="M22.0513 184.269C22.7552 183.797 23.6412 182.313 24.6836 180.888C25.0133 180.466 25.3978 179.881 25.6675 179.62C31.9811 170.892 36.4543 163.313 39.6397 155.817C39.6931 155.66 39.5901 155.443 39.4337 155.385C39.2773 155.326 39.0595 155.434 39.001 155.591C35.8155 163.087 31.6173 170.405 25.0873 179.237C24.7577 179.659 24.428 180.082 24.1035 180.505C23.3307 181.67 22.2335 183.257 21.7461 183.626C21.5297 183.729 21.6327 183.946 21.7358 184.162L21.8935 184.216C21.8402 184.373 21.8935 184.216 22.0513 184.269Z" fill="#B65514"/>
    <path d="M36.5893 173.603C40.7909 169.338 43.5023 164.191 45.4579 159.669C45.5113 159.511 45.4083 159.295 45.2519 159.237C45.0955 159.178 44.8777 159.286 44.8192 159.443C42.9183 163.802 40.3633 169.007 36.2217 173.11C36.0053 173.213 36.1083 173.43 36.2114 173.646L36.3692 173.699C36.3158 173.857 36.527 173.753 36.5855 173.596L36.5893 173.603Z" fill="#B65514"/>
    <path d="M47.46 182.467C48.9796 181.209 50.2398 179.675 51.4986 178.147C52.0994 177.459 52.6988 176.776 53.3582 175.931C53.4116 175.773 53.4715 175.612 53.3685 175.395C53.2107 175.342 53.0491 175.282 52.8328 175.385C52.232 176.073 51.5726 176.918 50.9732 177.601C49.713 179.135 48.6706 180.56 47.151 181.818C46.9346 181.921 47.0376 182.137 47.1406 182.354L47.2984 182.407C47.2628 182.512 47.3154 182.53 47.4562 182.46L47.46 182.467Z" fill="#B65514"/>
    <path d="M69.9647 169.583C68.5275 172.129 67.0903 174.675 65.284 176.734C65.0129 177 64.4669 177.525 63.8675 178.209C61.2455 181.053 59.0117 183.319 58.7748 184.494C58.7214 184.652 58.8244 184.868 58.9808 184.927C59.1372 184.985 59.355 184.877 59.4683 184.558C59.5919 183.702 62.5384 180.434 64.2313 178.695C64.8321 178.006 65.3782 177.481 65.6479 177.22C67.4541 175.161 68.9447 172.458 70.3819 169.912C70.7664 169.326 70.9383 168.85 71.3213 168.27C81.1004 151.25 82.5749 128.778 74.7088 113.425C74.6058 113.209 74.448 113.155 74.2317 113.258C74.0153 113.361 73.9605 113.524 74.065 113.735C81.6664 128.812 80.3052 150.964 70.5795 167.827C70.5159 168.521 70.1262 169.105 69.9595 169.582L69.9647 169.583Z" fill="#B65514"/>
    <path d="M67.7881 183.362C68.1075 183.475 68.4816 183.425 68.8595 183.382C72.4204 181.944 77.428 168.269 77.5961 167.787C77.6495 167.629 77.5465 167.412 77.3901 167.354C77.2337 167.295 77.016 167.404 76.9574 167.56C75.6026 171.394 71.2459 181.707 68.5453 182.732C68.329 182.835 68.1126 182.938 67.8518 182.668C67.694 182.615 67.4776 182.718 67.4191 182.874C67.3605 183.031 67.4687 183.248 67.7881 183.362C67.7881 183.362 67.6303 183.308 67.7881 183.362Z" fill="#B65514"/>
    <path d="M80.9383 154.776C81.0961 154.829 81.3124 154.726 81.371 154.57C83.6446 150.166 85.5505 145.27 85.235 139.051C85.2884 138.893 85.029 138.618 84.8126 138.721C84.6548 138.668 84.3799 138.927 84.4829 139.143C84.8584 145.201 82.7895 150.042 80.7322 154.343C80.6788 154.501 80.7819 154.717 80.9383 154.776Z" fill="#B65514"/>
    <path d="M86.1305 130.924C86.0771 131.082 86.1801 131.299 86.3366 131.357C86.493 131.416 86.7107 131.308 86.824 130.988C87.5593 125.861 85.8768 120.953 84.3611 116.105C84.2084 115.515 83.8993 114.866 83.7533 114.272C83.6502 114.055 83.4924 114.002 83.2761 114.105C83.0597 114.208 83.005 114.371 83.1094 114.582C83.2621 115.173 83.5711 115.822 83.7172 116.416C85.2929 121.102 86.8138 125.95 86.1371 130.921L86.1305 130.924Z" fill="#B65514"/>
    <path d="M91.4839 121.861C91.4306 122.019 91.5336 122.235 91.69 122.294C91.8464 122.353 92.0641 122.244 92.1774 121.925C92.6121 118.666 91.0068 115.583 89.5632 112.559C89.3571 112.126 89.1511 111.693 88.8851 111.422C88.7821 111.206 88.6243 111.153 88.4079 111.256C88.1916 111.359 88.1368 111.522 88.2412 111.733L88.8593 113.031C90.3616 115.898 91.9682 118.977 91.4839 121.861Z" fill="#B65514"/>
    <path d="M-2.05032 68.6088C-2.05032 68.6088 -7.53571 71.9465 -6.21177 75.4378C-4.88783 78.9291 -3.02078 79.4405 -1.05907 81.6704C1.28691 84.3309 1.0407 87.4459 0.28254 89.4466C-0.475622 91.4474 -3.69497 95.5478 -1.05905 97.5198C1.57686 99.4918 1.87784 89.8741 5.47513 87.7403C6.93485 86.8712 7.6948 87.7022 7.38229 88.4956C7.06977 89.2889 4.78911 91.7922 5.42208 93.6772C6.2127 96.0097 9.78404 94.4907 9.65265 88.5377C9.52127 82.5846 22.3246 90.2233 22.3246 90.2233L18.7953 81.9719L-2.05171 68.614L-2.05032 68.6088Z" fill="#BA47A4"/>
    <path d="M9.74193 86.7571C9.74193 86.7571 10.3987 86.378 10.9079 86.5699C12.3749 87.124 16.4603 88.9903 16.8173 91.4287C17.2473 94.4029 21.4328 96.5792 24.3643 96.9095C27.2958 97.2397 26.7427 94.7044 29.9609 95.6222C33.1842 96.5414 35.916 100.082 34.935 103.267C33.954 106.452 32.5533 107.37 32.5423 108.799C32.5235 111.77 36.9292 112.378 37.2521 109.04C37.5749 105.701 37.6056 100.241 39.9742 100.476C42.3427 100.711 42.5865 101.914 45.4541 102.566C49.5979 103.51 51.9211 103.272 52.9298 101.766C54.7621 99.009 37.4749 93.0835 37.4749 93.0835C37.4749 93.0835 6.93894 82.9639 9.74572 86.7637L9.74193 86.7571Z" fill="#BA47A4"/>
    <path d="M-1.48398 68.4219C-3.50675 69.5897 -9.54469 70.8253 -12.6525 71.7745C-14.2358 72.2552 -18.1379 71.4039 -18.229 73.65C-18.3201 75.8962 -15.4372 75.786 -12.6727 73.9841C-9.90831 72.1823 -9.31551 72.1246 -7.84474 72.9962C-6.37397 73.8677 -10.1383 75.5681 -10.7238 77.3598C-11.3094 79.1514 -7.66633 77.4685 -4.87091 78.9281C-0.365721 81.2788 -1.48537 68.427 -1.48537 68.427L-1.48398 68.4219Z" fill="#BA47A4"/>
    <path d="M-2.31578 68.1712C-2.31578 68.1712 -8.05333 71.8077 -6.72939 75.299C-5.40545 78.7903 -3.5384 79.3017 -1.5767 81.5316C0.769281 84.1921 0.523077 87.3071 -0.235085 89.3078C-0.993247 91.3086 -4.21259 95.409 -1.57668 97.381C1.05924 99.353 1.36022 89.7353 4.9575 87.6015C6.41723 86.7324 7.17718 87.5634 6.86466 88.3568C6.55215 89.1502 4.27149 91.6534 4.90445 93.5384C5.69508 95.8709 9.26641 94.3519 9.13503 88.3989C9.00364 82.4458 21.807 90.0845 21.807 90.0845L24.3335 83.5557L-2.31717 68.1764L-2.31578 68.1712Z" fill="#D156B7"/>
    <path d="M10.0732 80.4009C14.7142 81.2503 17.9873 79.2905 17.8194 76.3532C17.5118 73.3785 13.2992 71.034 9.0078 70.9722C6.91902 70.7289 4.87175 71.8847 3.70623 73.9761C2.54072 76.0676 5.17078 79.4703 10.0746 80.3957L10.0732 80.4009Z" fill="#E867D6"/>
    <path opacity="0.77" d="M8.04208 73.2504C9.07033 73.2872 13.5094 73.9993 12.2299 72.3518C11.4291 71.3212 8.67314 71.2267 7.32342 71.6645C5.97371 72.1022 4.94811 73.6094 5.38354 74.0148C5.81896 74.4201 7.02418 73.2164 8.04346 73.2453L8.04208 73.2504Z" fill="white"/>
    <path d="M9.05813 82.5325C10.2608 82.8715 11.6689 82.9823 13.0558 82.6544C13.1956 82.6919 13.2304 82.5624 13.2664 82.4277C13.3025 82.2931 13.1679 82.257 13.0397 82.2171C10.1261 82.8354 7.7113 81.7164 5.39676 80.2025C5.26727 80.1678 5.12742 80.1303 5.09272 80.2598C5.05802 80.3893 5.02056 80.5291 5.15523 80.5652C6.37395 81.3414 7.59787 82.1191 9.05813 82.5325Z" fill="#E867D6"/>
    <path d="M19.0711 76.7385C19.0652 79.3294 17.2795 81.5601 14.9379 82.1983L14.8657 82.4677C14.8244 82.601 14.9643 82.6384 14.9643 82.6384L15.0938 82.6731C17.6034 81.9466 19.4266 79.5761 19.4775 76.8585C19.5136 76.7238 19.3789 76.6877 19.2508 76.6479C19.1109 76.6104 19.0763 76.7399 19.0763 76.7399L19.0711 76.7385Z" fill="#E867D6"/>
    <path d="M2.82267 72.5291C2.85876 72.3945 2.89483 72.2598 2.76016 72.2237C2.63068 72.189 2.49083 72.1516 2.45614 72.2811C1.19028 74.2291 1.55663 77.5026 2.39398 78.6041L2.53384 78.6416L2.69802 78.5468C2.87257 78.4548 2.90865 78.3201 2.77019 78.2775C1.92766 77.1746 1.61862 74.205 2.81749 72.5278L2.82267 72.5291Z" fill="#E867D6"/>
    <path d="M9.88071 86.2392C9.88071 86.2392 15.753 87.1965 17.3353 91.5676C18.6157 95.0971 21.0536 95.9225 23.9851 96.2528C26.9166 96.583 26.3635 94.0477 29.5817 94.9655C32.805 95.8848 35.5368 99.4258 34.5558 102.61C33.5748 105.795 32.1741 106.713 32.1631 108.142C32.1443 111.113 36.5501 111.722 36.8729 108.383C37.1957 105.044 37.2264 99.5843 39.595 99.8192C41.9636 100.054 42.2074 101.258 45.0749 101.909C49.2187 102.853 51.5419 102.615 52.5506 101.109C54.3829 98.3523 37.0958 92.4268 37.0958 92.4268C37.0958 92.4268 7.07772 82.446 9.8845 86.2458L9.88071 86.2392Z" fill="#D156B7"/>
    <path d="M82.9584 101.657C81.0618 104.219 76.2409 108.184 73.6726 108.839C73.2912 108.937 72.963 108.96 72.6961 108.9C70.5831 108.394 63.0099 103.467 62.9196 109.067C62.8406 113.609 67.6438 115.49 66.099 118.479C64.3159 121.943 59.2482 120.635 61.2084 115.453C62.5847 111.808 58.8328 107.517 58.6989 105.654C58.5651 103.792 56.6848 103.91 56.1796 104.407C55.6743 104.905 56.5912 108.237 55.034 108.331C53.3413 108.432 53.0515 107.566 54.0616 105.206C55.0609 102.864 51.4019 102.866 51.4019 102.866C48.2605 97.8499 69.0948 99.0523 74.8227 99.4713C75.7269 99.5359 76.2529 99.5825 76.2529 99.5825C76.2529 99.5825 81.5814 98.9229 83.0647 99.9754C82.8317 100.451 82.7212 100.988 82.9584 101.657Z" fill="#BA47A4"/>
    <path d="M51.0229 102.21C51.0229 102.21 54.6818 102.207 53.6825 104.549C52.6832 106.89 53.312 108.791 54.6597 108.008C56.0074 107.226 55.2953 104.248 55.8005 103.751C56.3058 103.253 58.1874 103.13 58.3199 104.998C58.4523 106.865 62.2057 111.152 60.8293 114.797C58.8691 119.978 63.9369 121.286 65.7265 117.819C67.2661 114.828 62.4667 112.954 62.5419 108.405C62.6374 102.807 70.2106 107.734 72.3184 108.238C74.4262 108.741 80.7696 103.652 82.7724 100.735C84.7751 97.819 75.8752 98.9206 75.8752 98.9206C75.8752 98.9206 47.3888 96.4006 51.0243 102.204L51.0229 102.21Z" fill="#D156B7"/>
    <path d="M-1.34483 67.9039C-3.36759 69.0718 -9.40553 70.3073 -12.5133 71.2566C-14.0966 71.7372 -17.9987 70.886 -18.0899 73.1321C-18.181 75.3782 -15.298 75.268 -12.5336 73.4662C-9.76915 71.6644 -9.17635 71.6067 -7.70558 72.4782C-6.23482 73.3497 -9.9991 75.0502 -10.5846 76.8418C-11.1702 78.6335 -7.62249 77.5134 -4.82707 78.973C-4.06763 79.3708 -1.57236 81.9713 -1.09978 81.6372C1.22372 79.9892 -1.34621 67.9091 -1.34621 67.9091L-1.34483 67.9039Z" fill="#D156B7"/>
    <path d="M87.0638 110.99C86.0211 112.975 83.5833 111.445 82.0915 108.497C80.7065 105.772 79.3754 105.954 79.0685 106.416C79.0418 106.453 79.0256 106.493 79.0145 106.535C78.6384 107.938 79.1672 108.513 78.9243 109.73L78.9201 109.746C78.8802 109.957 78.8125 110.189 78.7158 110.446C78.1212 112.002 73.9838 109.75 71.6302 108.547C71.18 108.321 70.9417 108.03 70.872 107.689C70.2229 104.601 83.7108 97.5228 83.7108 97.5228C83.9118 97.8709 83.9715 98.1866 83.938 98.4774C83.7215 98.9746 83.3196 99.4387 83.0647 99.9755C82.957 100.191 82.879 100.42 82.8463 100.666C82.5844 101.312 82.5741 102.076 83.3511 103.133C84.2425 104.344 87.4616 108.221 87.2324 110.402C87.2132 110.619 87.1552 110.814 87.0638 110.99Z" fill="#BA47A4"/>
    <path d="M87.2324 110.402C87.2324 110.402 87.2147 110.447 87.2026 110.472C86.1598 112.457 83.722 110.927 82.2302 107.979C80.7319 105.035 79.2961 105.483 79.1532 106.017C79.1157 106.156 79.0848 106.293 79.0684 106.416C78.8503 107.706 79.4144 108.274 78.9242 109.73L78.9201 109.746L78.8545 109.928C78.3947 111.126 75.9248 109.881 73.6726 108.839C72.9963 108.525 72.3417 108.233 71.7689 108.03C71.4495 107.916 71.1523 107.803 70.8719 107.689C63.2426 104.629 68.7902 101.536 74.8226 99.4714C79.2067 97.9647 83.8495 97.0049 83.8495 97.0049C84.1756 97.5697 84.1288 98.0345 83.9379 98.4775C83.7214 98.9746 83.3195 99.4387 83.0646 99.9755C82.957 100.191 82.879 100.42 82.8462 100.666C82.8047 100.966 82.8278 101.294 82.9583 101.657C83.064 101.946 83.2343 102.264 83.4898 102.615C84.4588 103.93 88.1626 108.381 87.2324 110.402Z" fill="#D156B7"/>
    <path d="M47.3029 96.0168L45.1857 98.1586C45.1473 98.1982 45.1169 98.229 45.0799 98.2635C45.0799 98.2635 45.0785 98.2686 45.0733 98.2672C45.0237 98.204 43.845 97.444 43.3418 96.5042C42.9534 95.7784 43.1768 94.9445 43.2993 94.239L44.6107 92.9083L45.5237 91.9871C45.4008 92.7147 46.2512 93.0425 46.6576 93.7843C46.9288 94.2844 47.0932 94.8725 47.1898 95.3203C47.2643 95.6844 47.2937 95.9477 47.2991 96.0102L47.3043 96.0116L47.3029 96.0168Z" fill="#F4DDDC"/>
    <path d="M51.4218 91.8521L49.1974 94.1039C49.1974 94.1039 48.0226 93.8891 47.5001 92.9385C47.0975 92.2034 47.2926 90.8123 47.4116 90.0781L47.4144 90.0677L48.076 89.4012L49.6426 87.8224C49.5202 88.5279 50.354 88.8346 50.7462 89.567C50.8609 89.781 50.956 90.0063 51.0328 90.2378C51.3075 90.9943 51.4068 91.7426 51.4181 91.8455L51.4218 91.8521Z" fill="#F4DDDC"/>
    <path d="M55.5344 87.6914L53.3114 89.9381C53.3114 89.9381 52.6391 89.7746 52.0673 89.2772C51.8648 89.1008 51.6733 88.8829 51.531 88.6061C51.1695 87.9041 51.4181 86.5828 51.5322 85.9084L53.7566 83.6565C53.7506 83.6994 53.7433 83.7474 53.7426 83.7916C53.7366 84.4562 54.5406 84.8326 54.9384 85.5443C55.0659 85.7727 55.1672 86.0164 55.2463 86.2596C55.4728 86.9476 55.5307 87.6016 55.5306 87.6848L55.5358 87.6862L55.5344 87.6914Z" fill="#F4DDDC"/>
    <path d="M59.9091 81.7465C59.8367 81.9547 59.7684 82.1474 59.6963 82.3335C59.3263 83.3002 58.9849 83.9526 59.0137 84.1768L57.2274 85.9743C57.1478 85.8364 56.7574 85.6152 56.415 85.1737C56.1808 84.8667 55.9678 84.4599 55.9056 83.9047C55.8181 83.154 56.3392 81.7892 56.6004 80.8766L56.6171 80.8144C57.7529 79.8697 59.1618 79.3146 60.6368 79.238C60.6368 79.238 60.6407 79.2371 60.6486 79.2355L60.6538 79.2369C60.0212 80.1888 60.1514 81.0287 59.9091 81.7465Z" fill="#F4DDDC"/>
    <path d="M67.0363 89.4353C67.0363 89.4353 66.9938 89.4073 66.9745 89.3965C66.5054 89.1376 65.3015 88.9482 65.3015 88.9482C65.3015 88.9482 64.9975 88.6947 64.6041 88.4227C64.1696 88.1175 63.6225 87.7767 63.2799 87.7293C63.6715 87.1791 63.8492 86.5162 63.7837 85.8491C64.4368 85.6077 65.8353 85.1331 65.8353 85.1331C65.8353 85.1331 65.8791 85.1559 65.9578 85.1937C66.3576 85.4007 67.5954 86.0433 67.8875 86.1549L67.8927 86.1563C67.8851 87.3034 67.5943 88.4301 67.0363 89.4353Z" fill="#F4DDDC"/>
    <path d="M45.0793 98.2634C44.6807 98.6118 44.1613 98.789 43.6297 98.7632C43.0982 98.7373 42.6052 98.5053 42.2423 98.1194C41.8794 97.7335 41.6838 97.2203 41.6861 96.6936C41.6951 96.163 41.9025 95.6579 42.2757 95.2805L43.3039 94.2403C43.0256 95.8589 44.9848 98.1603 45.078 98.2686L45.0793 98.2634Z" fill="#439A72"/>
    <path d="M49.1973 94.104L47.6068 95.7096L47.3025 96.0167L47.2973 96.0153C47.2297 95.9361 46.6354 95.2328 46.1508 94.348C45.7393 93.6048 45.3977 92.725 45.5232 91.987L47.4115 90.0781C47.1301 91.7292 49.1921 94.1026 49.1921 94.1026L49.1973 94.104Z" fill="#439A72"/>
    <path d="M53.3115 89.938L51.4219 91.8521C51.3594 91.7743 50.8441 91.1699 50.3802 90.3738C49.9186 89.5895 49.5122 88.6201 49.6478 87.8238L51.5374 85.9097C51.3799 86.8501 51.9753 88.0255 52.5194 88.8541C52.9352 89.4985 53.3167 89.9394 53.3167 89.9394L53.3115 89.938Z" fill="#439A72"/>
    <path d="M66.975 82.6625C66.975 82.6625 66.9698 82.6611 66.9619 82.6701C66.863 82.7491 66.0754 83.3264 65.2208 83.7191C65.1447 83.7543 65.0687 83.7894 64.9941 83.8194C64.3077 84.1018 63.6081 83.9365 63.2052 84.3837C62.823 83.9038 62.3032 83.5647 61.7114 83.4117C61.8786 82.8291 61.8426 82.2588 62.1462 81.7683C62.1891 81.691 62.2437 81.6113 62.3074 81.5395C63.0275 80.7166 64.3132 80.1451 64.3878 80.1151L64.393 80.1165L64.3958 80.1061C64.9304 80.4104 65.4198 80.7802 65.8549 81.2077C66.2937 81.6417 66.6679 82.1306 66.975 82.6625Z" fill="#F4DDDC"/>
    <path d="M67.0361 89.4353C67.0361 89.4353 67.0268 89.4494 67.0254 89.4546C66.7235 90.001 66.3457 90.4993 65.9103 90.9434L65.1429 91.7148C64.7608 92.0843 64.2435 92.2954 63.7115 92.2917C63.173 92.2917 62.659 92.0762 62.2764 91.7017C61.8951 91.322 61.6774 90.8084 61.6708 90.2737C61.659 89.7376 61.8641 89.2208 62.2297 88.8302L62.9971 88.0588C63.0964 87.9577 63.1932 87.8449 63.2759 87.7227C63.756 87.7958 64.2759 87.9684 64.7797 88.1811C65.6345 88.5545 66.4507 89.0508 66.9691 89.3951C66.9885 89.4058 67.0116 89.4231 67.0309 89.4339L67.0361 89.4353Z" fill="#439A72"/>
    <path d="M67.8885 86.1496C67.5705 86.0311 66.8372 85.7847 65.9831 85.6779C65.2758 85.5828 64.4848 85.5929 63.7833 85.849C63.7376 85.315 63.5355 84.8056 63.2044 84.3838C63.5835 83.9635 64.2333 83.6103 64.8844 83.3351C65.8537 82.9286 66.8384 82.6928 66.9611 82.6702C66.969 82.6612 66.9742 82.6626 66.9742 82.6626C67.5847 83.72 67.9 84.9258 67.8885 86.1496Z" fill="#439A72"/>
    <path d="M64.3943 80.1115L64.3891 80.1101C64.2982 80.1801 63.3316 80.887 62.5594 81.8626C62.19 82.3298 61.865 82.859 61.7113 83.4118C61.24 83.2855 60.7429 83.2967 60.2764 83.4215C59.8086 83.5515 59.3803 83.8031 59.0442 84.1461L59.0137 84.1768C58.9922 83.9878 58.9651 83.5087 59.0979 82.8059C59.261 81.9281 59.6718 80.7058 60.6486 79.2355L60.6538 79.2369C61.9558 79.1638 63.2514 79.4666 64.3891 80.1101L64.3943 80.1115Z" fill="#439A72"/>
    <path d="M57.2312 85.9807L55.5349 87.6913L55.5298 87.6899C55.4801 87.6266 55.151 87.2387 54.7869 86.6915C54.2594 85.8839 53.6504 84.7382 53.7431 83.7915C53.7439 83.7473 53.7511 83.6993 53.7571 83.6564L56.1309 81.2614C56.2844 81.1027 56.447 80.952 56.6171 80.8143L56.6004 80.8765C56.1785 82.4511 56.4469 83.8942 56.7611 84.8555C56.9466 85.4271 57.1492 85.8311 57.2274 85.9742C57.2326 85.9756 57.2312 85.9807 57.2312 85.9807Z" fill="#439A72"/>
    <g style="mix-blend-mode:multiply" opacity="0.2">
        <path d="M63.7119 92.2917C63.1734 92.2918 62.6594 92.0763 62.2767 91.7017C61.8955 91.322 61.6778 90.8085 61.6712 90.2738C61.6594 89.7377 61.8645 89.2208 62.2301 88.8303L62.9975 88.0588C63.0967 87.9578 63.1936 87.8449 63.2763 87.7227C63.6666 87.1778 63.8442 86.5148 63.7787 85.8477C63.7331 85.3137 63.5309 84.8043 63.1998 84.3825C62.8177 83.9026 62.2979 83.5635 61.706 83.4104C61.2347 83.2841 60.7376 83.2953 60.2711 83.4201C59.8033 83.5501 59.375 83.8018 59.0389 84.1447L59.0084 84.1754L57.2222 85.9729L57.226 85.9794L55.5297 87.69L53.3067 89.9367L51.4171 91.8508L49.1927 94.1026L47.6022 95.7083L47.1847 95.3188L46.1462 94.3466L44.6056 92.9068L45.5186 91.9857L47.4069 90.0767L47.4096 90.0664L48.0712 89.3998C48.4302 89.6348 49.5191 90.3152 50.3702 90.3711C50.6157 90.387 50.8465 90.3544 51.028 90.2365C51.0608 90.2175 51.095 90.1934 51.1255 90.1627C51.2721 90.0299 51.6079 89.7091 52.0626 89.2758C52.2027 89.1467 52.352 89.0036 52.5094 88.8514C53.1453 88.2391 53.9424 87.4812 54.7817 86.6901C54.9363 86.5484 55.087 86.4 55.2416 86.2582C55.6327 85.8967 56.0252 85.53 56.4097 85.1723C56.5273 85.065 56.6435 84.9629 56.7559 84.8542C57.6145 84.0739 58.4305 83.3488 59.0926 82.8046C59.3129 82.6249 59.5107 82.4669 59.6911 82.3321C60.0324 82.0738 60.3006 81.9014 60.4654 81.8456C60.9233 81.6907 61.5067 81.6472 62.1408 81.7671C62.2782 81.7928 62.4143 81.8238 62.5541 81.8612C63.3217 82.0836 64.1412 82.5474 64.8798 83.3337C64.9974 83.4541 65.1071 83.5834 65.2154 83.7179C65.274 83.7891 65.3275 83.859 65.3847 83.9354C65.7117 84.3727 65.888 84.7919 65.9528 85.1923C65.9813 85.3554 65.9877 85.5181 65.9785 85.6766C65.9284 86.5681 65.3709 87.3847 64.78 88.1812C64.7202 88.2595 64.6589 88.343 64.5991 88.4214C64.3648 88.7361 64.1306 89.0508 63.9289 89.3687C62.8599 91.0586 63.7067 92.2903 63.7067 92.2903L63.7119 92.2917Z" fill="#4C8089"/>
    </g>
    <path d="M45.7693 88.4389C45.7693 88.4389 45.4194 95.0901 52.7259 96.8481C60.031 98.6112 43.2711 100.393 43.2711 100.393L33.2238 95.0866C33.2238 95.0866 44.8199 96.706 45.7655 88.4323L45.7693 88.4389Z" fill="#D156B7"/>
    <path d="M-1.72061 95.1609C-0.916513 95.7649 -0.0425259 95.6938 0.0400623 93.6452C-0.521646 91.3907 -2.5247 94.5568 -1.72061 95.1609Z" fill="#E867D6"/>
    <path d="M33.047 108.363C33.8511 108.967 34.7251 108.896 34.8076 106.847C34.2459 104.593 32.2429 107.759 33.047 108.363Z" fill="#E867D6"/>
    <path d="M61.9764 117.869C62.9203 118.283 63.7387 117.88 63.2142 115.425C62.0082 112.964 61.0326 117.455 61.9764 117.869Z" fill="#E867D6"/>
    <path d="M85.1937 109.889C86.1834 109.594 86.546 108.758 84.5634 107.228C82.0546 106.128 84.2041 110.185 85.1937 109.889Z" fill="#E867D6"/>
    <path d="M5.90676 91.1645C6.3975 91.5292 6.93018 91.4887 6.98106 90.2422C6.63868 88.868 5.41602 90.7999 5.90676 91.1645Z" fill="#E867D6"/>
    <g filter="url(#filter3_f_5856_51065)">
        <circle cx="185.5" cy="56" r="3" fill="#FDFEE2" fill-opacity="0.6"/>
    </g>
    <path d="M187.098 56.0885C187.209 55.989 187.541 55.7901 187.32 55.7901C185.771 55.7901 186.213 54.9945 185.439 54C185.439 54.0995 185.328 54.1989 185.328 54.1989C184.996 55.4918 184.221 55.5912 184 56.0885C184 56.1879 184.111 56.0885 184.221 56.1879C184.443 56.3868 184.664 56.5857 184.775 56.7846C184.996 56.9835 185.328 57.6797 185.549 57.8786C185.549 57.8786 185.439 57.2819 185.992 56.8841C186.434 56.6852 186.766 56.3868 187.098 56.0885Z" fill="#FDFEE2"/>
    <g filter="url(#filter4_f_5856_51065)">
        <circle cx="257.5" cy="86.5" r="3.5" fill="#FDFEE2" fill-opacity="0.6"/>
    </g>
    <path d="M259.615 86.4365C259.744 86.3205 260.131 86.0885 259.873 86.0885C258.066 86.0885 258.582 85.1603 257.678 84C257.678 84.116 257.549 84.2321 257.549 84.2321C257.162 85.7404 256.258 85.8564 256 86.4365C256 86.5526 256.129 86.4365 256.258 86.5526C256.516 86.7846 256.775 87.0167 256.904 87.2487C257.162 87.4808 257.549 88.293 257.807 88.525C257.807 88.525 257.678 87.8289 258.324 87.3647C258.84 87.1327 259.227 86.7846 259.615 86.4365Z" fill="#FDFEE2"/>
    <g filter="url(#filter5_d_5856_51065)">
        <path d="M89.043 80.8008V84.0938C89.2773 84.1719 89.543 84.2305 89.8398 84.2695C90.1445 84.3086 90.5625 84.3281 91.0938 84.3281C92.4766 84.3281 93.5977 83.9453 94.457 83.1797C95.3242 82.4141 96.168 81.0977 96.9883 79.2305L102.355 66.9375H98.6875L95.7812 74.0625C95.5938 74.5156 95.4648 74.8594 95.3945 75.0938C95.332 75.3281 95.25 75.5898 95.1484 75.8789H95.0898C94.9648 75.5898 94.8789 75.3281 94.832 75.0938C94.7852 74.8516 94.6562 74.5 94.4453 74.0391L91.293 66.9375H87.1914L93.168 79.4648L93.25 79.1836C92.8906 79.8867 92.5 80.3711 92.0781 80.6367C91.6641 80.8945 91.1367 81.0195 90.4961 81.0117C90.2539 81.0117 90 80.9922 89.7344 80.9531C89.4766 80.9141 89.2461 80.8633 89.043 80.8008ZM113.84 84V72H110.043V84H113.84ZM117.719 84H122.02L117.016 76.2539L114.414 78.6445L117.719 84ZM111.918 76.4766V79.3125H116.793L121.422 72H117.391L114.742 76.4766H111.918ZM106.164 84L109.457 78.6445L106.996 76.2656L102.004 84H106.164ZM111.918 76.4766H109.141L106.492 72H102.332L106.949 79.3125H111.918V76.4766ZM122.441 80.4844C122.441 81.7344 122.832 82.668 123.613 83.2852C124.402 83.9023 125.398 84.2109 126.602 84.2109C127.609 84.2109 128.449 84.0352 129.121 83.6836C129.801 83.3242 130.258 82.9219 130.492 82.4766C130.523 82.75 130.574 83.0273 130.645 83.3086C130.715 83.5898 130.797 83.8203 130.891 84H134.652V83.8242C134.496 83.5117 134.371 83.1367 134.277 82.6992C134.191 82.2617 134.148 81.7969 134.148 81.3047V75.8438C134.148 74.4062 133.68 73.3516 132.742 72.6797C131.812 72 130.492 71.6602 128.781 71.6602C127.094 71.6602 125.723 72.0156 124.668 72.7266C123.621 73.4297 123.098 74.3359 123.098 75.4453V75.6562L126.789 75.668V75.457C126.789 75.0664 126.926 74.7422 127.199 74.4844C127.48 74.2266 127.945 74.0977 128.594 74.0977C129.234 74.0977 129.684 74.2539 129.941 74.5664C130.207 74.8711 130.34 75.2773 130.34 75.7852V76.4531H127.891C126.312 76.4609 125.008 76.8047 123.977 77.4844C122.953 78.1562 122.441 79.1562 122.441 80.4844ZM126.25 80.1562C126.25 79.6406 126.441 79.2539 126.824 78.9961C127.215 78.7305 127.816 78.5977 128.629 78.5977H130.34V79.6289C130.34 80.2227 130.117 80.7344 129.672 81.1641C129.234 81.5859 128.684 81.7969 128.02 81.7969C127.41 81.7969 126.961 81.6484 126.672 81.3516C126.391 81.0469 126.25 80.6484 126.25 80.1562ZM136.316 78.1758C136.316 80.082 136.895 81.5859 138.051 82.6875C139.207 83.7891 140.73 84.3398 142.621 84.3398C144.449 84.3398 145.863 83.8984 146.863 83.0156C147.863 82.125 148.367 81.0391 148.375 79.7578V79.5703H144.672V79.7109C144.664 80.2188 144.504 80.6602 144.191 81.0352C143.887 81.4023 143.363 81.5859 142.621 81.5859C141.809 81.5859 141.203 81.3008 140.805 80.7305C140.414 80.1523 140.219 79.3672 140.219 78.375V77.6016C140.219 76.6016 140.422 75.8203 140.828 75.2578C141.234 74.6953 141.832 74.4141 142.621 74.4141C143.301 74.4141 143.812 74.5898 144.156 74.9414C144.5 75.2852 144.672 75.7305 144.672 76.2773V76.4414H148.387L148.363 76.1953C148.293 74.8906 147.773 73.8086 146.805 72.9492C145.836 72.082 144.438 71.6484 142.609 71.6484C140.711 71.6484 139.188 72.1992 138.039 73.3008C136.891 74.3945 136.316 75.8945 136.316 77.8008V78.1758ZM150.227 72V84H154.047V79.2891H157.891V84H161.711V72H157.891V76.4766H154.047V72H150.227ZM163.809 78.1758C163.809 80.0664 164.398 81.5664 165.578 82.6758C166.766 83.7852 168.316 84.3398 170.23 84.3398C172.137 84.3398 173.68 83.7852 174.859 82.6758C176.047 81.5664 176.641 80.0664 176.641 78.1758V77.8008C176.641 75.918 176.047 74.4219 174.859 73.3125C173.68 72.2031 172.137 71.6484 170.23 71.6484C168.324 71.6484 166.777 72.2031 165.59 73.3125C164.402 74.4219 163.809 75.918 163.809 77.8008V78.1758ZM167.711 77.6016C167.711 76.5703 167.934 75.793 168.379 75.2695C168.824 74.7383 169.441 74.4727 170.23 74.4727C171.012 74.4727 171.625 74.7383 172.07 75.2695C172.516 75.793 172.738 76.5703 172.738 77.6016V78.375C172.738 79.4141 172.52 80.1992 172.082 80.7305C171.645 81.2617 171.027 81.5273 170.23 81.5273C169.426 81.5273 168.805 81.2617 168.367 80.7305C167.93 80.1992 167.711 79.4141 167.711 78.375V77.6016ZM184.609 84H191.582C193.082 84 194.203 83.707 194.945 83.1211C195.688 82.5273 196.059 81.707 196.059 80.6602C196.059 79.8555 195.812 79.2148 195.32 78.7383C194.828 78.2539 194.133 77.9453 193.234 77.8125V77.7773C193.992 77.6211 194.582 77.3125 195.004 76.8516C195.434 76.3906 195.648 75.7734 195.648 75C195.648 74.0156 195.281 73.2695 194.547 72.7617C193.82 72.2539 192.68 72 191.125 72H184.609V84ZM188.359 76.7812V74.2266H190.258C190.805 74.2266 191.203 74.332 191.453 74.543C191.703 74.7539 191.828 75.0547 191.828 75.4453C191.828 75.8828 191.703 76.2148 191.453 76.4414C191.203 76.668 190.805 76.7812 190.258 76.7812H188.359ZM188.359 81.7617V78.9609H190.562C191.148 78.9609 191.574 79.0859 191.84 79.3359C192.113 79.5781 192.25 79.9141 192.25 80.3438C192.25 80.7891 192.113 81.1367 191.84 81.3867C191.566 81.6367 191.141 81.7617 190.562 81.7617H188.359ZM202.07 72H198.25V84H204.742C206.297 84 207.473 83.6523 208.27 82.957C209.066 82.2539 209.465 81.2383 209.465 79.9102C209.465 78.6133 209.066 77.5977 208.27 76.8633C207.473 76.1211 206.297 75.75 204.742 75.75H202.07V72ZM203.922 78.2578C204.539 78.2578 204.98 78.4023 205.246 78.6914C205.512 78.9727 205.645 79.3594 205.645 79.8516C205.645 80.3828 205.508 80.7891 205.234 81.0703C204.969 81.3516 204.531 81.4922 203.922 81.4922H202.07V78.2578H203.922ZM210.613 84H214.457V72H210.613V84ZM217.188 72V84H221.008V74.8359H225.988V72H217.188ZM227.113 78.1758C227.113 80.0664 227.703 81.5664 228.883 82.6758C230.07 83.7852 231.621 84.3398 233.535 84.3398C235.441 84.3398 236.984 83.7852 238.164 82.6758C239.352 81.5664 239.945 80.0664 239.945 78.1758V77.8008C239.945 75.918 239.352 74.4219 238.164 73.3125C236.984 72.2031 235.441 71.6484 233.535 71.6484C231.629 71.6484 230.082 72.2031 228.895 73.3125C227.707 74.4219 227.113 75.918 227.113 77.8008V78.1758ZM231.016 77.6016C231.016 76.5703 231.238 75.793 231.684 75.2695C232.129 74.7383 232.746 74.4727 233.535 74.4727C234.316 74.4727 234.93 74.7383 235.375 75.2695C235.82 75.793 236.043 76.5703 236.043 77.6016V78.375C236.043 79.4141 235.824 80.1992 235.387 80.7305C234.949 81.2617 234.332 81.5273 233.535 81.5273C232.73 81.5273 232.109 81.2617 231.672 80.7305C231.234 80.1992 231.016 79.4141 231.016 78.375V77.6016ZM251.512 87.1641H255.098V81.1641H240.801V87.1641H244.387V84H251.512V87.1641ZM246.379 74.8359H249.531V84H253.352V72H243.121L242.945 76.3828C242.891 77.6406 242.781 78.668 242.617 79.4648C242.453 80.2539 242.23 80.8867 241.949 81.3633H245.582C245.777 80.9102 245.93 80.3516 246.039 79.6875C246.156 79.0234 246.234 78.2266 246.273 77.2969L246.379 74.8359ZM256.633 72V84H260.453V79.2891H264.297V84H268.117V72H264.297V76.4766H260.453V72H256.633ZM270.215 78.1758C270.215 80.0664 270.805 81.5664 271.984 82.6758C273.172 83.7852 274.723 84.3398 276.637 84.3398C278.543 84.3398 280.086 83.7852 281.266 82.6758C282.453 81.5664 283.047 80.0664 283.047 78.1758V77.8008C283.047 75.918 282.453 74.4219 281.266 73.3125C280.086 72.2031 278.543 71.6484 276.637 71.6484C274.73 71.6484 273.184 72.2031 271.996 73.3125C270.809 74.4219 270.215 75.918 270.215 77.8008V78.1758ZM274.117 77.6016C274.117 76.5703 274.34 75.793 274.785 75.2695C275.23 74.7383 275.848 74.4727 276.637 74.4727C277.418 74.4727 278.031 74.7383 278.477 75.2695C278.922 75.793 279.145 76.5703 279.145 77.6016V78.375C279.145 79.4141 278.926 80.1992 278.488 80.7305C278.051 81.2617 277.434 81.5273 276.637 81.5273C275.832 81.5273 275.211 81.2617 274.773 80.7305C274.336 80.1992 274.117 79.4141 274.117 78.375V77.6016Z" fill="white"/>
        <g filter="url(#filter6_d_5856_51065)">
            <rect x="108" y="105" width="155" height="40" rx="20" fill="white" shape-rendering="crispEdges"/>
            <path d="M140.844 124.68C140.844 126.477 141.289 127.852 142.18 128.805C143.076 129.753 144.242 130.227 145.68 130.227C147.055 130.227 148.122 129.859 148.883 129.125C149.643 128.385 150.052 127.453 150.109 126.328L150.117 126.133H148.016V126.32C147.969 126.987 147.758 127.531 147.383 127.953C147.008 128.375 146.443 128.586 145.688 128.586C144.859 128.586 144.201 128.273 143.711 127.648C143.227 127.018 142.984 126.107 142.984 124.914V123.711C142.984 122.435 143.229 121.505 143.719 120.922C144.208 120.333 144.857 120.039 145.664 120.039C146.466 120.039 147.057 120.242 147.438 120.648C147.823 121.055 148.016 121.602 148.016 122.289V122.5H150.117V122.32C150.117 121.18 149.721 120.242 148.93 119.508C148.138 118.768 147.055 118.398 145.68 118.398C144.253 118.398 143.089 118.872 142.188 119.82C141.292 120.763 140.844 122.138 140.844 123.945V124.68ZM156.891 130H159.234L155.414 124.945L154.117 126.32L156.891 130ZM152.664 125.047V126.594H155.289L158.891 121.812H156.695L154.266 125.047H152.664ZM153.664 121.812H151.641V130H153.664V121.812ZM160.109 130H162.141L164.727 125.516C164.836 125.318 164.932 125.138 165.016 124.977C165.099 124.815 165.172 124.661 165.234 124.516H165.328C165.323 124.682 165.315 124.875 165.305 125.094C165.299 125.312 165.297 125.503 165.297 125.664V130H167.305V121.812H165.266L162.68 126.281C162.57 126.479 162.471 126.661 162.383 126.828C162.294 126.995 162.216 127.146 162.148 127.281H162.07C162.086 127.125 162.096 126.935 162.102 126.711C162.107 126.487 162.109 126.294 162.109 126.133V121.812H160.109V130ZM175.547 132.109H177.438V128.461H168.414V132.109H170.297V130H175.547V132.109ZM171.75 123.352H174.234V130H176.258V121.812H170L169.859 125.305C169.823 126.211 169.745 126.919 169.625 127.43C169.51 127.94 169.359 128.341 169.172 128.633H171.172C171.312 128.305 171.419 127.919 171.492 127.477C171.57 127.034 171.622 126.448 171.648 125.719L171.75 123.352ZM183.859 130H186.203L182.383 124.945L181.086 126.32L183.859 130ZM179.633 125.047V126.594H182.258L185.859 121.812H183.664L181.234 125.047H179.633ZM180.633 121.812H178.609V130H180.633V121.812ZM186.656 127.594C186.656 128.443 186.919 129.081 187.445 129.508C187.977 129.935 188.633 130.148 189.414 130.148C190.07 130.148 190.612 130.026 191.039 129.781C191.471 129.536 191.771 129.258 191.938 128.945C191.953 129.138 191.987 129.333 192.039 129.531C192.091 129.724 192.148 129.88 192.211 130H194.195V129.875C194.096 129.661 194.018 129.406 193.961 129.109C193.904 128.807 193.875 128.49 193.875 128.156V124.406C193.875 123.443 193.583 122.732 193 122.273C192.417 121.815 191.604 121.586 190.562 121.586C189.526 121.586 188.688 121.826 188.047 122.305C187.411 122.784 187.094 123.378 187.094 124.086V124.18H189.086V124.086C189.086 123.789 189.193 123.536 189.406 123.328C189.625 123.115 189.984 123.008 190.484 123.008C190.99 123.008 191.344 123.135 191.547 123.391C191.75 123.641 191.852 123.971 191.852 124.383V124.898H190.219C189.182 124.898 188.328 125.128 187.656 125.586C186.99 126.044 186.656 126.714 186.656 127.594ZM188.68 127.445C188.68 127.029 188.831 126.711 189.133 126.492C189.435 126.268 189.891 126.156 190.5 126.156H191.852V127.094C191.852 127.531 191.672 127.914 191.312 128.242C190.958 128.565 190.536 128.727 190.047 128.727C189.578 128.727 189.232 128.615 189.008 128.391C188.789 128.161 188.68 127.846 188.68 127.445ZM200.695 130H202.883L207 119.953V118.625H199.273V120.352H204.836L200.695 130ZM208.227 127.008C208.227 127.945 208.555 128.716 209.211 129.32C209.872 129.924 210.823 130.227 212.062 130.227C213.26 130.227 214.206 129.872 214.898 129.164C215.591 128.451 215.938 127.487 215.938 126.273C215.938 125.091 215.607 124.172 214.945 123.516C214.284 122.859 213.453 122.531 212.453 122.531C212.052 122.531 211.695 122.583 211.383 122.688C211.076 122.792 210.812 122.919 210.594 123.07L210.883 120.32L215.344 120.328V118.625H209.211L208.633 124.312L210.25 125.039C210.479 124.758 210.74 124.536 211.031 124.375C211.323 124.214 211.667 124.133 212.062 124.133C212.604 124.133 213.034 124.32 213.352 124.695C213.674 125.065 213.836 125.617 213.836 126.352C213.836 127.086 213.677 127.648 213.359 128.039C213.047 128.43 212.612 128.625 212.055 128.625C211.513 128.625 211.086 128.484 210.773 128.203C210.461 127.917 210.305 127.516 210.305 127V126.859H208.227V127.008ZM217.031 122.211C217.031 122.997 217.263 123.62 217.727 124.078C218.19 124.536 218.833 124.766 219.656 124.766C220.484 124.766 221.128 124.536 221.586 124.078C222.049 123.62 222.281 122.997 222.281 122.211V120.938C222.281 120.156 222.049 119.536 221.586 119.078C221.128 118.62 220.484 118.391 219.656 118.391C218.833 118.391 218.19 118.62 217.727 119.078C217.263 119.536 217.031 120.156 217.031 120.938V122.211ZM218.688 122.234V120.93C218.688 120.576 218.76 120.289 218.906 120.07C219.052 119.852 219.302 119.742 219.656 119.742C220.01 119.742 220.26 119.852 220.406 120.07C220.557 120.289 220.633 120.576 220.633 120.93V122.234C220.633 122.589 220.557 122.875 220.406 123.094C220.26 123.312 220.01 123.422 219.656 123.422C219.302 123.422 219.052 123.312 218.906 123.094C218.76 122.875 218.688 122.589 218.688 122.234ZM227.734 118.977L226.508 118.234L219.797 129.562L221.008 130.32L227.734 118.977ZM225.203 127.648C225.203 128.435 225.435 129.057 225.898 129.516C226.362 129.974 227.005 130.203 227.828 130.203C228.656 130.203 229.299 129.974 229.758 129.516C230.221 129.057 230.453 128.435 230.453 127.648V126.375C230.453 125.594 230.221 124.974 229.758 124.516C229.299 124.057 228.656 123.828 227.828 123.828C227.005 123.828 226.362 124.057 225.898 124.516C225.435 124.974 225.203 125.594 225.203 126.375V127.648ZM226.859 127.672V126.367C226.859 126.013 226.932 125.727 227.078 125.508C227.224 125.289 227.474 125.18 227.828 125.18C228.182 125.18 228.432 125.289 228.578 125.508C228.729 125.727 228.805 126.013 228.805 126.367V127.672C228.805 128.026 228.729 128.312 228.578 128.531C228.432 128.75 228.182 128.859 227.828 128.859C227.474 128.859 227.224 128.75 227.078 128.531C226.932 128.312 226.859 128.026 226.859 127.672Z" fill="#22040A"/>
        </g>
    </g>
    <defs>
        <filter id="filter0_f_5856_51065" x="97" y="35" width="16" height="16" filterUnits="userSpaceOnUse" color-interpolation-filters="sRGB">
            <feFlood flood-opacity="0" result="BackgroundImageFix"/>
            <feBlend mode="normal" in="SourceGraphic" in2="BackgroundImageFix" result="shape"/>
            <feGaussianBlur stdDeviation="2" result="effect1_foregroundBlur_5856_51065"/>
        </filter>
        <filter id="filter1_f_5856_51065" x="298" y="158" width="14" height="14" filterUnits="userSpaceOnUse" color-interpolation-filters="sRGB">
            <feFlood flood-opacity="0" result="BackgroundImageFix"/>
            <feBlend mode="normal" in="SourceGraphic" in2="BackgroundImageFix" result="shape"/>
            <feGaussianBlur stdDeviation="2" result="effect1_foregroundBlur_5856_51065"/>
        </filter>
        <filter id="filter2_f_5856_51065" x="150" y="147" width="15" height="15" filterUnits="userSpaceOnUse" color-interpolation-filters="sRGB">
            <feFlood flood-opacity="0" result="BackgroundImageFix"/>
            <feBlend mode="normal" in="SourceGraphic" in2="BackgroundImageFix" result="shape"/>
            <feGaussianBlur stdDeviation="2" result="effect1_foregroundBlur_5856_51065"/>
        </filter>
        <filter id="filter3_f_5856_51065" x="178.5" y="49" width="14" height="14" filterUnits="userSpaceOnUse" color-interpolation-filters="sRGB">
            <feFlood flood-opacity="0" result="BackgroundImageFix"/>
            <feBlend mode="normal" in="SourceGraphic" in2="BackgroundImageFix" result="shape"/>
            <feGaussianBlur stdDeviation="2" result="effect1_foregroundBlur_5856_51065"/>
        </filter>
        <filter id="filter4_f_5856_51065" x="250" y="79" width="15" height="15" filterUnits="userSpaceOnUse" color-interpolation-filters="sRGB">
            <feFlood flood-opacity="0" result="BackgroundImageFix"/>
            <feBlend mode="normal" in="SourceGraphic" in2="BackgroundImageFix" result="shape"/>
            <feGaussianBlur stdDeviation="2" result="effect1_foregroundBlur_5856_51065"/>
        </filter>
        <linearGradient id="paint0_linear_5856_51065" x1="160" y1="26.9589" x2="160" y2="178" gradientUnits="userSpaceOnUse">
            <stop stop-color="#710044"/>
            <stop offset="1" stop-color="#162128"/>
        </linearGradient>
        <clipPath id="clip0_5856_51065">
            <rect width="320" height="148" fill="white" transform="translate(0 30)"/>
        </clipPath>
    </defs>
</svg>
