<svg width="20" height="20" viewBox="0 0 20 20" xmlns="http://www.w3.org/2000/svg"><g fill="none" fill-rule="evenodd"><circle stroke="#888" stroke-width="1.5" cx="10" cy="10" r="9.25"/><path d="M9.011 11.915c0-.627.076-1.126.227-1.498.15-.372.427-.738.829-1.1.401-.36.669-.653.802-.88.133-.226.2-.464.2-.715 0-.757-.346-1.136-1.039-1.136-.329 0-.592.102-.79.306-.197.204-.3.485-.309.843H7c.009-.856.283-1.525.822-2.01C8.362 5.243 9.098 5 10.03 5c.941 0 1.671.23 2.19.689.52.46.78 1.108.78 1.945 0 .381-.084.74-.253 1.079-.169.338-.464.714-.886 1.126l-.54.517a1.85 1.85 0 0 0-.578 1.15l-.027.41H9.01zm-.193 2.063c0-.3.101-.547.303-.742.202-.195.46-.292.776-.292.315 0 .574.097.776.292a.988.988 0 0 1 .303.742.98.98 0 0 1-.297.733c-.197.193-.458.289-.782.289s-.585-.096-.783-.289a.98.98 0 0 1-.296-.733z" fill="#888"/></g></svg>