<svg version="1.1" id="Layer_1" xmlns="http://www.w3.org/2000/svg" xmlns:xlink="http://www.w3.org/1999/xlink" x="0px" y="0px"
     viewBox="0 0 24 24" style="enable-background:new 0 0 24 24;" xml:space="preserve">
<style type="text/css">
	.st0{fill:#A4A4A4;}
</style>
    <g>
	<path class="st0" d="M12,0C5.4,0,0,5.4,0,12s5.4,12,12,12c6.6,0,12-5.4,12-12S18.6,0,12,0z M12,21.8c-5.4,0-9.7-4.3-9.7-9.8
		c0-5.4,4.4-9.8,9.8-9.7c5.4,0,9.7,4.4,9.7,9.8C21.7,17.5,17.3,21.8,12,21.8z"/>
        <path class="st0" d="M19.1,7.8c-0.2,0-0.4,0.1-0.5,0.1c-0.8,0.2-1.5,0.4-2.3,0.5c0,0-0.1,0-0.1,0c0,0,0,0.1,0,0.1
		c0,0.4,0.1,0.7,0.1,1.1c0,0.3,0,0.6,0,0.9c0,0.2,0,0.4,0,0.7c1.3,0,2.6,0,4,0C20.1,10,19.7,8.8,19.1,7.8z"/>
        <path class="st0" d="M14,5c-0.1-0.3-0.1-0.7-0.2-1c0,0,0-0.1-0.1-0.1c-0.3,0-0.5-0.1-0.8-0.1c-0.4-0.1-0.8-0.1-1.2-0.1
		c-0.5,0-1,0.1-1.5,0.2c0,0-0.1,0-0.1,0.1C10.1,4.4,10,4.7,9.9,5.1C9.9,5.5,9.8,5.9,9.7,6.4c0,0.2-0.1,0.5-0.1,0.7
		c1.6,0.2,3.2,0.2,4.8,0c0-0.3-0.1-0.6-0.1-0.9C14.2,5.8,14.1,5.4,14,5z"/>
        <path class="st0" d="M12,8.8c-0.9,0-1.7,0-2.6-0.1c-0.1,0.9-0.1,1.7-0.2,2.6c1.8,0,3.6,0,5.5,0c0-0.9-0.1-1.7-0.2-2.6
		C13.7,8.7,12.9,8.8,12,8.8z"/>
        <path class="st0" d="M7.9,8.4c-0.1,0-0.1,0-0.2,0C7.1,8.3,6.5,8.1,5.9,8c-0.3-0.1-0.6-0.2-1-0.2C4.6,8.4,4.3,9,4.1,9.7
		c-0.2,0.5-0.3,1-0.3,1.6c1.3,0,2.6,0,4,0c0-0.3,0-0.5,0-0.8c0-0.5,0.1-1,0.1-1.5C7.9,8.8,7.9,8.6,7.9,8.4C7.9,8.5,7.9,8.4,7.9,8.4z
		"/>
        <path class="st0" d="M7.8,13c0-0.1,0-0.2,0-0.3c-1.3,0-2.6,0-4,0c0.1,1.2,0.5,2.4,1.1,3.5c0.3-0.1,0.7-0.2,1-0.3
		c0.6-0.1,1.3-0.3,1.9-0.4c0.1,0,0.1,0,0.1-0.1c0-0.4-0.1-0.7-0.1-1.1C7.8,13.9,7.8,13.5,7.8,13z"/>
        <path class="st0" d="M5.9,17.5c0.4,0.6,2.2,1.8,2.6,1.9c-0.1-0.8-0.3-1.6-0.4-2.4C7.4,17.2,6.6,17.4,5.9,17.5z"/>
        <path class="st0" d="M5.9,6.5c0.7,0.2,1.5,0.3,2.2,0.5c0.1-0.8,0.3-1.6,0.4-2.4C7.5,5,6.6,5.6,5.9,6.5z"/>
        <path class="st0" d="M9.6,16.9c0,0.3,0.1,0.5,0.1,0.8c0.1,0.5,0.2,1,0.3,1.4c0.1,0.3,0.1,0.6,0.2,0.9c0,0,0,0.1,0.1,0.1
		c0.3,0.1,0.7,0.1,1,0.2c0.4,0,0.8,0,1.2,0c0.4,0,0.8-0.1,1.3-0.2c0,0,0.1,0,0.1-0.1c0.1-0.5,0.2-1,0.3-1.5c0.1-0.4,0.1-0.7,0.2-1.1
		c0-0.2,0-0.3,0.1-0.5C12.8,16.7,11.2,16.7,9.6,16.9z"/>
        <path class="st0" d="M9.4,15.4c1.7-0.2,3.4-0.2,5.2,0c0.1-0.9,0.1-1.7,0.2-2.6c-1.8,0-3.6,0-5.5,0C9.3,13.6,9.3,14.5,9.4,15.4z"/>
        <path class="st0" d="M15.5,4.5c0.1,0.8,0.3,1.6,0.4,2.4c0.7-0.1,1.5-0.3,2.2-0.5C17.4,5.6,16.5,5,15.5,4.5z"/>
        <path class="st0" d="M15.5,19.5c1-0.5,1.8-1.1,2.6-1.9c-0.7-0.2-1.5-0.3-2.2-0.5C15.8,17.9,15.6,18.7,15.5,19.5z"/>
        <path class="st0" d="M9.6,16.9c0,0.3,0.1,0.5,0.1,0.8c0.1,0.5,0.2,1,0.3,1.4c0.1,0.3,0.1,0.6,0.2,0.9c0,0,0,0.1,0.1,0.1
		c0.3,0.1,0.7,0.1,1,0.2c0.4,0,0.8,0,1.2,0c0.4,0,0.8-0.1,1.3-0.2c0,0,0.1,0,0.1-0.1c0.1-0.5,0.2-1,0.3-1.5c0.1-0.4,0.1-0.7,0.2-1.1
		c0-0.2,0-0.3,0.1-0.5C12.8,16.7,11.2,16.7,9.6,16.9z"/>
        <path class="st0" d="M14,5c-0.1-0.3-0.1-0.7-0.2-1c0,0,0-0.1-0.1-0.1c-0.3,0-0.5-0.1-0.8-0.1c-0.4-0.1-0.8-0.1-1.2-0.1
		c-0.5,0-1,0.1-1.5,0.2c0,0-0.1,0-0.1,0.1C10.1,4.4,10,4.7,9.9,5.1C9.9,5.5,9.8,5.9,9.7,6.4c0,0.2-0.1,0.5-0.1,0.7
		c1.6,0.2,3.2,0.2,4.8,0c0-0.3-0.1-0.6-0.1-0.9C14.2,5.8,14.1,5.4,14,5z"/>
        <path class="st0" d="M12,8.8c-0.9,0-1.7,0-2.6-0.1c-0.1,0.9-0.1,1.7-0.2,2.6c1.8,0,3.6,0,5.5,0c0-0.9-0.1-1.7-0.2-2.6
		C13.7,8.7,12.9,8.8,12,8.8z"/>
        <path class="st0" d="M9.4,15.4c1.7-0.2,3.4-0.2,5.2,0c0.1-0.9,0.1-1.7,0.2-2.6c-1.8,0-3.6,0-5.5,0C9.3,13.6,9.3,14.5,9.4,15.4z"/>
        <path class="st0" d="M16.3,12.8c-0.1,0.9-0.1,1.9-0.2,2.8c1,0.2,2,0.4,3,0.7c0.6-1.1,1-2.2,1.1-3.5C18.9,12.8,17.6,12.8,16.3,12.8z
		"/>
        <path class="st0" d="M7.8,13c0-0.1,0-0.2,0-0.3c-1.3,0-2.6,0-4,0c0.1,1.2,0.5,2.4,1.1,3.5c0.3-0.1,0.7-0.2,1-0.3
		c0.6-0.1,1.3-0.3,1.9-0.4c0.1,0,0.1,0,0.1-0.1c0-0.4-0.1-0.7-0.1-1.1C7.8,13.9,7.8,13.5,7.8,13z"/>
        <path class="st0" d="M7.9,8.4c-0.1,0-0.1,0-0.2,0C7.1,8.3,6.5,8.1,5.9,8c-0.3-0.1-0.6-0.2-1-0.2C4.6,8.4,4.3,9,4.1,9.7
		c-0.2,0.5-0.3,1-0.3,1.6c1.3,0,2.6,0,4,0c0-0.3,0-0.5,0-0.8c0-0.5,0.1-1,0.1-1.5C7.9,8.8,7.9,8.6,7.9,8.4C7.9,8.5,7.9,8.4,7.9,8.4z
		"/>
        <path class="st0" d="M19.1,7.8c-0.2,0-0.4,0.1-0.5,0.1c-0.8,0.2-1.5,0.4-2.3,0.5c0,0-0.1,0-0.1,0c0,0,0,0.1,0,0.1
		c0,0.4,0.1,0.7,0.1,1.1c0,0.3,0,0.6,0,0.9c0,0.2,0,0.4,0,0.7c1.3,0,2.6,0,4,0C20.1,10,19.7,8.8,19.1,7.8z"/>
        <path class="st0" d="M15.5,4.5c0.1,0.8,0.3,1.6,0.4,2.4c0.7-0.1,1.5-0.3,2.2-0.5C17.4,5.6,16.5,5,15.5,4.5z"/>
        <path class="st0" d="M5.9,17.5c0.4,0.6,2.2,1.8,2.6,1.9c-0.1-0.8-0.3-1.6-0.4-2.4C7.4,17.2,6.6,17.4,5.9,17.5z"/>
        <path class="st0" d="M5.9,6.5c0.7,0.2,1.5,0.3,2.2,0.5c0.1-0.8,0.3-1.6,0.4-2.4C7.5,5,6.6,5.6,5.9,6.5z"/>
        <path class="st0" d="M15.5,19.5c1-0.5,1.8-1.1,2.6-1.9c-0.7-0.2-1.5-0.3-2.2-0.5C15.8,17.9,15.6,18.7,15.5,19.5z"/>
</g>
</svg>
