<svg xmlns:xlink="http://www.w3.org/1999/xlink" viewBox="0 0 24 24">
  <defs>
    <path id="a" d="M7.252 8.545c.014-1.857.127-2.83.55-3.842.662-1.584 2-2.453 4.063-2.453 3.647 0 4.805 2.14 4.88 6.294 1.127.258 2.236.61 3.255 1.063C20 11.993 20 22 12 22S4 11.993 4 9.607a17.819 17.819 0 013.252-1.062zm1.506-.288A21.383 21.383 0 0112 8c1.018 0 2.121.083 3.239.256-.1-3.187-.906-4.506-3.374-4.506-2.397 0-3.034 1.147-3.107 4.507zm-2.661 6.911C7.004 18.618 8.817 20.5 12 20.5c2.855 0 4.585-1.5 5.587-4.306.62-1.737.851-3.47.902-5.58-1.976-.72-4.332-1.114-6.49-1.114-2.157 0-4.512.395-6.488 1.114.039 1.668.191 3.055.586 4.554zM11.25 14a.75.75 0 111.5 0v2a.75.75 0 11-1.5 0v-2z"/>
  </defs>
  <g fill="none" fill-rule="evenodd">
    <path fill="#878787" fill-opacity=".01" d="M0 0h24v24H0z" style="mix-blend-mode:screen"/>
    <use fill="#EB9300" xlink:href="#a"/>
  </g>
</svg>
