<svg fill="none" height="24" viewBox="0 0 125 24" width="125" xmlns="http://www.w3.org/2000/svg"><ellipse cx="8.94003" cy="8.87081" fill="#000" rx="8.84958" ry="8.87081"/><g clip-rule="evenodd" fill-rule="evenodd"><path d="m8.65939 5.32715c1.88071.09762 3.74651.32988 5.41191 1.36831.9976.62198 1.5897 1.51717 1.6073 2.71403.0277 1.87721-1.3068 2.84101-3.0551 2.63041-.7352-.1114-1.4625-.2704-2.1772-.476-1.26505-.3232-2.5156-.2298-3.76573.0728-.59968.1452-1.18486.3585-1.80255.4195-1.16016.1147-2.37494-.2958-2.79828-1.4425-.55722-1.43954-.01989-3.07312 1.28224-3.89817 1.60546-1.04799 3.42284-1.29522 5.29741-1.38838z" fill="#fff"/><path d="m13.4561 8.95369c.0096.68153-.457 1.26201-1.0221 1.27141-.5016.0084-.9983-.57124-1.0063-1.17419-.0087-.66084.4415-1.21434 1.0063-1.23717.5652-.02284 1.0126.4762 1.0221 1.13995z" fill="#000"/><path d="m6.01606 8.95369c.00967.68153-.45697 1.26201-1.02207 1.27141-.50157.0084-.99827-.57124-1.00625-1.17419-.00876-.66084.44143-1.21434 1.00625-1.23717.56521-.02284 1.01265.4762 1.02207 1.13995z" fill="#000"/><path d="m8.47873 23.8435c-2.91875-1.7604-4.83442-3.7819-6.09173-5.7993-.40583-.6511.36246-1.3831 1.00206-.9607 3.31484 2.1831 7.60834 2.1768 10.91684-.0158.6387-.4245 1.4096.3063 1.0045.9584-1.2572 2.0234-3.1757 4.0517-6.10324 5.8174-.22436.1342-.50407.1342-.72843 0z" fill="#74a352"/><path d="m24.6575 17.3417 3.9717-9.51795h1.88l3.9717 9.51795h-2.1315l-.8473-2.1196h-3.9187l-.8473 2.1196zm3.654-3.9557h2.4624l-1.2312-3.0646zm7.2334 3.9557v-9.45045h3.6142c1.4475 0 2.6302.44777 3.5481 1.34331s1.3768 2.02284 1.3768 3.38194c0 1.35-.4611 2.4751-1.3834 3.3751-.9224.9001-2.1028 1.3501-3.5415 1.3501zm2.0388-1.8766h1.5754c.8385 0 1.5137-.2633 2.0256-.7898s.7678-1.2128.7678-2.0588c0-.8371-.2581-1.5211-.7744-2.0521-.5164-.5311-1.1893-.79656-2.019-.79656h-1.5754zm12.4098 2.0386c-1.4386 0-2.6103-.459-3.515-1.3771-.9046-.918-1.357-2.0881-1.357-3.5101 0-1.3591.4634-2.5134 1.3901-3.46294.9268-.94955 2.083-1.42431 3.4687-1.42431.8031 0 1.4827.10575 2.0388.31726.556.21151 1.09.53777 1.6019.9788l-1.2842 1.57959c-.3883-.333-.7634-.576-1.1253-.72906-.3619-.153-.7944-.22951-1.2974-.22951-.7414 0-1.3703.29026-1.8866.87077-.5163.5806-.7745 1.2803-.7745 2.0994 0 .864.2626 1.5795.7877 2.1466.5252.567 1.1982.8505 2.019.8505.759 0 1.3989-.189 1.9196-.567v-1.3501h-2.052v-1.7956h4.0247v4.1042c-1.1563.9991-2.4757 1.4986-3.9585 1.4986zm9.7836-.0135c-1.2621 0-2.2462-.3578-2.9523-1.0733s-1.0591-1.7573-1.0591-3.1254v-5.40025h2.0388v5.34625c0 .756.1743 1.3343.5229 1.7348.3487.4005.8407.6008 1.4762.6008s1.1275-.1935 1.4761-.5805c.3487-.387.523-.9496.523-1.6876v-5.41375h2.0388v5.33275c0 1.4041-.3597 2.4661-1.079 3.1861-.7193.7201-1.7144 1.0801-2.9854 1.0801zm4.617-.1485 3.9717-9.51795h1.8799l3.9717 9.51795h-2.1315l-.8473-2.1196h-3.9187l-.8473 2.1196zm3.6539-3.9557h2.4625l-1.2313-3.0646zm7.2334 3.9557v-9.45045h4.2365c1.1738 0 2.0741.31952 2.7007.95855.5296.54002.7944 1.269.7944 2.1871 0 1.4491-.662 2.4256-1.9859 2.9296l2.2639 3.3752h-2.383l-2.0124-3.0242h-1.5754v3.0242zm2.0388-4.8602h2.0653c.4942 0 .8782-.1238 1.1518-.3713s.4104-.5783.4104-.9923c0-.441-.1412-.7763-.4237-1.0058-.2824-.22951-.6752-.34426-1.1782-.34426h-2.0256zm7.1672 4.8602v-9.45045h3.6142c1.4475 0 2.6302.44777 3.5481 1.34331s1.3768 2.02284 1.3768 3.38194c0 1.35-.4611 2.4751-1.3834 3.3751-.9224.9001-2.1028 1.3501-3.5415 1.3501zm2.0388-1.8766h1.5754c.8385 0 1.5137-.2633 2.0256-.7898s.7678-1.2128.7678-2.0588c0-.8371-.2581-1.5211-.7744-2.0521-.5164-.5311-1.1893-.79656-2.019-.79656h-1.5754z" fill="#131313"/><path d="m101.661 17.2071 3.839-9.06428h-1.084l-3.188 7.75288-3.176-7.75288h-1.1224l3.8394 9.06428zm6.607-.0643v-3.1757h2.168c1.003 0 1.839-.2571 2.506-.7714.668-.5143 1.001-1.2386 1.001-2.1729 0-.8914-.302-1.59426-.905-2.10855-.604-.51428-1.416-.77143-2.436-.77143h-3.342v8.99998zm2.206-4.1014h-2.206v-3.96001h2.257c.74 0 1.325.16929 1.754.50786s.644.82075.644 1.44645c0 .6086-.223 1.095-.67 1.4593-.446.3643-1.039.5464-1.779.5464zm6.288 4.1014v-7.37998l5.765 7.37998h.803v-8.99998h-.982v7.21288l-5.624-7.21288h-.944v8.99998z" fill="#131313"/></g></svg>