<svg xmlns="http://www.w3.org/2000/svg" width="125" height="24" fill="none"><ellipse cx="8.94" cy="8.87" fill="#000" rx="8.85" ry="8.87"/><g fill-rule="evenodd" clip-rule="evenodd"><path fill="#fff" d="M8.66 5.33c1.88.1 3.75.33 5.41 1.37 1 .62 1.6 1.51 1.6 2.7.04 1.89-1.3 2.85-3.05 2.64a17.2 17.2 0 0 1-2.17-.48 7.67 7.67 0 0 0-3.77.08c-.6.14-1.18.36-1.8.42-1.16.11-2.38-.3-2.8-1.45a3.23 3.23 0 0 1 1.28-3.9c1.6-1.04 3.42-1.29 5.3-1.38z"/><path fill="#000" d="M13.46 8.95c0 .69-.46 1.27-1.03 1.28-.5 0-1-.58-1-1.18-.01-.66.44-1.21 1-1.24.57-.02 1.02.48 1.03 1.14zM6.02 8.95c0 .69-.46 1.27-1.03 1.28-.5 0-1-.58-1-1.18-.01-.66.44-1.21 1-1.24.57-.02 1.02.48 1.03 1.14z"/><path fill="#74a352" d="M8.48 23.84a17.81 17.81 0 0 1-6.1-5.8c-.4-.65.37-1.38 1-.96a9.9 9.9 0 0 0 10.93-.01c.63-.43 1.4.3 1 .96a17.8 17.8 0 0 1-6.1 5.81.7.7 0 0 1-.73 0z"/><path fill="#131313" d="m24.66 17.34 3.97-9.52h1.88l3.97 9.52h-2.13l-.85-2.12h-3.92l-.84 2.12zm3.65-3.95h2.46l-1.23-3.07zm7.23 3.95V7.9h3.62c1.45 0 2.63.45 3.55 1.34s1.37 2.03 1.37 3.39c0 1.35-.46 2.47-1.38 3.37-.92.9-2.1 1.35-3.54 1.35zm2.04-1.87h1.58c.84 0 1.51-.27 2.02-.8s.77-1.2.77-2.05c0-.84-.26-1.52-.77-2.06a2.69 2.69 0 0 0-2.02-.8h-1.58zM50 17.5a4.72 4.72 0 0 1-3.51-1.37 4.8 4.8 0 0 1-1.36-3.51 4.77 4.77 0 0 1 4.86-4.9c.8 0 1.48.12 2.04.33a5.4 5.4 0 0 1 1.6.98l-1.28 1.57a3.32 3.32 0 0 0-2.42-.96c-.75 0-1.38.3-1.9.88a3.05 3.05 0 0 0-.77 2.1c0 .86.27 1.58.8 2.14.52.57 1.19.85 2.01.85.76 0 1.4-.19 1.92-.56V13.7h-2.05v-1.8h4.02V16A5.88 5.88 0 0 1 50 17.5zm9.79-.01c-1.27 0-2.25-.36-2.96-1.07s-1.05-1.76-1.05-3.13V7.9h2.03v5.35c0 .75.18 1.33.53 1.73.35.4.84.6 1.47.6s1.13-.19 1.48-.58c.35-.38.52-.95.52-1.69V7.9h2.04v5.32c0 1.4-.36 2.47-1.08 3.19a4.03 4.03 0 0 1-2.98 1.08zm4.61-.15 3.98-9.52h1.88l3.97 9.52h-2.13l-.85-2.12h-3.92l-.85 2.12zm3.66-3.95h2.46l-1.23-3.07zm7.23 3.95V7.9h4.24c1.17 0 2.07.32 2.7.96.53.54.8 1.27.8 2.19 0 1.45-.67 2.42-2 2.93l2.27 3.37h-2.38l-2.01-3.02h-1.58v3.02zm2.04-4.86h2.07c.49 0 .87-.12 1.15-.37s.4-.58.4-1c0-.43-.13-.77-.42-1a1.82 1.82 0 0 0-1.17-.34h-2.03zm7.17 4.86V7.9h3.61c1.45 0 2.63.45 3.55 1.34s1.38 2.03 1.38 3.39c0 1.35-.46 2.47-1.39 3.37-.92.9-2.1 1.35-3.54 1.35zm2.04-1.87h1.57c.84 0 1.52-.27 2.03-.8s.76-1.2.76-2.05c0-.84-.25-1.52-.77-2.06a2.69 2.69 0 0 0-2.02-.8h-1.57zM101.66 17.2l3.84-9.06h-1.08l-3.2 7.76-3.17-7.76h-1.12l3.84 9.07zm6.6-.06v-3.17h2.18c1 0 1.84-.26 2.5-.77.67-.52 1-1.24 1-2.18 0-.89-.3-1.6-.9-2.1a3.63 3.63 0 0 0-2.44-.78h-3.34v9zm2.21-4.1h-2.2V9.08h2.26c.74 0 1.32.17 1.75.5s.64.83.64 1.46c0 .6-.22 1.1-.67 1.46-.44.36-1.04.54-1.78.54zm6.3 4.1V9.76l5.76 7.38h.8v-9h-.98v7.22l-5.63-7.22h-.94v9z"/></g></svg>