<svg width="117" height="34" viewBox="0 0 117 34" xmlns="http://www.w3.org/2000/svg">
  <defs>
    <linearGradient x1="50.0000003%" y1="122.470134%" x2="50.0000003%" y2="-65.7580643%" id="linearGradient-1">
      <stop stop-color="#76A834" offset="0%"/>
      <stop stop-color="#59AEBB" offset="100%"/>
    </linearGradient>
  </defs>
  <g id="logo_vpn" stroke="none" stroke-width="1" fill="none" fill-rule="evenodd">
    <g id="Group-9" transform="translate(1 1)">
      <g id="Group-6">
        <path d="M36.4530726 29.4848l2.7073185-6.3168h-.7645252l-2.2486033 5.40288-2.239609-5.40288h-.7915083l2.7073184 6.3168h.6296089zm4.6591062-.0448v-2.21312h1.5290503c.7075605 0 1.2966945-.1792 1.7674022-.5376.4707076-.3584.7060614-.8631467.7060614-1.51424 0-.6212267-.2128677-1.11104-.6386033-1.46944-.4257356-.3584-.9983799-.5376-1.717933-.5376h-2.3565363v6.272h.7105587zm1.5560335-2.85824h-1.5560335v-2.75968h1.5920111c.521676 0 .93392.1179733 1.2367319.35392.3028119.2359467.4542179.5719467.4542179 1.008 0 .4241067-.1574023.7630933-.4722067 1.01696-.3148045.2538667-.7330447.3808-1.2547207.3808zM47.1024581 29.44v-5.14304L51.167933 29.44h.566648v-6.272h-.6925698v5.02656L47.0754749 23.168h-.6655866v6.272h.6925698z" id="VPN" fill="#4D4D4D" fill-rule="nonzero"/>
        <g id="Group-3" transform="translate(32.444134 5.76)" fill="#242424">
          <path d="M55.8467525.32l4.865538 11.52h-3.1443953l-.9102197-2.26169492h-4.5345491L51.2625551 11.84h-3.0781976L53.0995439.32h2.7472086zm-1.4232527 3.07525424l-1.4894504 3.9538983h2.945802l-1.4563516-3.9538983z" id="Combined-Shape"/>
          <path d="M47.8631285 7.50217331c0 .69487739-.1175711 1.3273149-.3527169 1.8973315-.2351458.57001661-.5714539 1.05859499-1.0089344 1.46574969-.4374805.4071547-.9651835.7247306-1.5831247.9527372-.6179413.2280067-1.3042285.3420083-2.0588824.3420083-.765591 0-1.4546124-.1140016-2.0670852-.3420083-.6124727-.2280066-1.131973-.5455825-1.5585165-.9527372-.4265435-.4071547-.754649-.89573308-.9843263-1.46574969-.2296773-.5700166-.3445142-1.20245411-.3445142-1.8973315V.32h2.7889244v6.95416781c0 .31486632.0410132.61344197.1230408.8957359.0820276.28229394.2078013.53472608.3773251.75730399.1695237.22257792.3937291.39900898.6726229.52929849.2788938.13028951.6152019.19543329 1.0089344.19543329.3937325 0 .7300406-.06514378 1.0089344-.19543329.2788938-.13028951.5058334-.30672057.6808257-.52929849.1749922-.22257791.3007659-.47501005.377325-.75730399.0765591-.28229393.1148381-.58086958.1148381-.8957359V.32h2.8053298v7.18217331zM35.9776536 11.164349c-.5551176.2938001-1.2036347.5331892-1.9455708.7181745-.741936.1849853-1.5505808.2774765-2.4259586.2774765-.9074039 0-1.7427366-.1468979-2.5060234-.440698-.7632867-.2938001-1.4198102-.7072904-1.9695902-1.2404832-.5497799-.53319283-.9794559-1.17247055-1.2890407-1.91785236-.3095848-.7453818-.4643749-1.57508268-.4643749-2.48912751 0-.92492633.1574589-1.7627882.4723814-2.51361074.3149225-.75082255.749936-1.39010027 1.3050536-1.91785235.5551177-.52775208 1.2063036-.93308136 1.9535773-1.216S30.661357 0 31.5260595 0c.8967285 0 1.7293924.13873687 2.4980169.41621476.7686244.2774779 1.3931223.65016321 1.8735126 1.11806712l-1.7293963 2.00762416c-.2668835-.3155631-.6191644-.57399452-1.0568533-.77530201-.4376889-.2013075-.9340847-.30195973-1.4892023-.30195973-.4803903 0-.9234102.08977091-1.3290731.26931543-.4056629.17954452-.7579438.42981495-1.0568533.75081879-.2989095.32100385-.5310946.70185015-.6965624 1.14255034-.1654677.44070019-.2482003.92219873-.2482003 1.44451007 0 .53319282.0747262 1.02285235.224181 1.46899328.1494547.44614094.3709647.82970757.6645365 1.15071141.2935718.32100385.6565279.57127427 1.0888791.7508188.4323513.17954452.9260783.26931543 1.4811959.26931543.3202602 0 .6245028-.02448297.9127369-.07344966.2882342-.04896669.5551137-.12785628.8006465-.23667114V7.296h-2.1617454V5.04354362h4.6757751V11.164349z" id="Path"/>
          <path d="M76.0608186.32c.8018617 0 1.5930201.0949143 2.3734988.28474576.7804787.18983146 1.4754151.50440459 2.08483.94372882.6094149.43932423 1.101216 1.02779292 1.4754181 1.76542373.3742022.7376308.5613004 1.64880813.5613004 2.73355932 0 1.0088186-.1844254 1.87931837-.5532818 2.61152542-.3688564.73220705-.8553118 1.33423493-1.459381 1.80610165-.6040691.4718668-1.2856413.818982-2.0447371 1.041356-.7590957.222374-1.5288714.3335593-2.3093501.3335593h-4.2338086V.32h4.1055113zM75.99667 2.69559322h-1.3631581v6.73627119h1.2990095c.4918085 0 .9648998-.05694859 1.4192881-.17084746.4543883-.11389888.8553131-.30101565 1.2027865-.56135593.3474735-.26034029.625448-.60745546.833932-1.04135594.2084841-.43390047.3127245-.97084425.3127245-1.61084745 0-.65085071-.1042404-1.19050634-.3127245-1.61898305-.208484-.42847672-.4864585-.77016822-.833932-1.02508475-.3474734-.25491653-.7430525-.43660963-1.1867493-.54508475-.4436968-.10847511-.9007512-.16271186-1.3711767-.16271186zM17.5971315.32c.8018617 0 1.59302.0949143 2.3734987.28474576.7804788.18983146 1.4754151.50440459 2.08483.94372882.6094149.43932423 1.1012161 1.02779292 1.4754182 1.76542373.3742021.7376308.5613004 1.64880813.5613004 2.73355932 0 1.0088186-.1844255 1.87931837-.5532818 2.61152542-.3688564.73220705-.8553119 1.33423493-1.459381 1.80610165-.6040692.4718668-1.2856414.818982-2.0447371 1.041356-.7590958.222374-1.5288715.3335593-2.3093502.3335593h-4.2338086V.32h4.1055114zm-.0641486 2.37559322h-1.3631581v6.73627119h1.2990095c.4918085 0 .9648998-.05694859 1.4192881-.17084746.4543883-.11389888.8553131-.30101565 1.2027865-.56135593.3474734-.26034029.625448-.60745546.833932-1.04135594.208484-.43390047.3127245-.97084425.3127245-1.61084745 0-.65085071-.1042405-1.19050634-.3127245-1.61898305-.208484-.42847672-.4864586-.77016822-.833932-1.02508475-.3474734-.25491653-.7430526-.43660963-1.1867494-.54508475-.4436968-.10847511-.9007511-.16271186-1.3711766-.16271186zM7.66239493.32L12.527933 11.84H9.38353763l-.9102197-2.26169492H3.93876888L3.07819753 11.84H0L4.91518638.32h2.74720855zM6.23914231 3.39525424l-1.48945042 3.9538983h2.94580194l-1.45635152-3.9538983zM65.6988306.32c.5470353 0 1.0806548.05694858 1.6008746.17084746.5202199.11389887.9868018.30643932 1.3997598.57762712.412958.27118779.7427831.62915031.9894853 1.0738983.2467022.44474799.3700514.99796279.3700514 1.65966102 0 .78102085-.2091574 1.43728548-.6274785 1.96881356-.4183211.53152808-.9975262.9111853-1.7376328 1.13898305L70.6703911 11.84h-3.2178385l-2.4616465-4.57220339h-.9331732V11.84h-2.7029843V.32h4.344082zm-.1930703 2.24542373h-1.4641165v2.68474576h1.3032245c.2252499 0 .4558593-.01898286.6918353-.05694915.235976-.03796629.4504964-.10576222.6435677-.20338983.1930713-.09762761.3512801-.23864315.4746312-.42305085.1233511-.1844077.1850257-.42304938.1850257-.7159322 0-.2711878-.0563116-.49084662-.1689365-.65898305-.1126249-.16813644-.2574262-.29830463-.4344082-.39050848-.176982-.09220385-.3754134-.15457611-.5953001-.18711864-.2198868-.03254254-.4317257-.04881356-.6355231-.04881356z" id="Combined-Shape"/>
        </g>
        <g id="Group" fill-rule="nonzero">
          <ellipse id="Oval-5" fill="#01002B" cx="11.9945486" cy="11.8277512" rx="11.873179" ry="11.8277512"/>
          <g id="Group-12-5" transform="translate(2.442806 7.057034)">
            <path d="M9.17522872.04569916c2.52325908.1301597 5.02654458.43984791 7.26099798 1.82441369 1.3383745.82930494 2.1328143 2.02290129 2.1564765 3.61870723.0371099 2.50295726-1.753306 3.78802251-4.0989486 3.50720486-.9864389-.14853948-1.9621943-.36051582-2.9211495-.63460015-1.69722285-.43101566-3.3750376-.30642859-5.05229417.09705247-.80457373.19354768-1.58969662.47789993-2.41842604.55931985C2.5453396 9.17074008.91551501 8.62340624.34752342 7.09450099c-.74760135-1.919453-.02667769-4.09755646 1.72034645-5.19762738C4.22186089.49955163 6.66017992.16990905 9.17522872.04569916z" id="Path-13" fill="#FEFEFE"/>
            <g id="Group-11-5" transform="translate(2.809227 3.285171)" fill="#01002B">
              <path d="M12.8015346 1.59607118c.0129786.90870266-.6131004 1.68269627-1.3712767 1.69523833-.6729358.01113308-1.3393493-.76167301-1.3500573-1.56560913-.0117438-.8811267.5922584-1.61912335 1.3500573-1.64955741.7583289-.03046084 1.3586376.6349238 1.3712767 1.51992821z" id="Path-14"/>
              <path d="M2.81951532 1.59607118c.01297985.90870266-.61309924 1.68269627-1.37127674 1.69523833C.7753028 3.30244259.10888932 2.5296365.09818128 1.72570038.08643748.84457368.6904397.10657703 1.44823858.07614297c.75832896-.03046084 1.35863765.6349238 1.37127674 1.51992821z" id="Path-15"/>
            </g>
          </g>
          <path d="M11.3756428 31.7914902c-3.91599462-2.347211-6.48618245-5.0425296-8.17306856-7.7323304-.54449057-.8682098.4862907-1.8442074 1.34442663-1.2809843 4.44740194 2.9107397 10.20786733 2.9024415 14.64680013-.0210993.8569267-.5659668 1.8912036.4084465 1.3476511 1.2778367-1.6867298 2.6978555-4.2606685 5.4023093-8.1885047 7.7565676-.3010131.1789135-.6762879.1789172-.9773046.0000097z" id="Path-Copy-5" fill="url(#linearGradient-1)"/>
        </g>
      </g>
    </g>
  </g>
</svg>
