<svg fill="none" height="28" viewBox="0 0 145 28" width="145" xmlns="http://www.w3.org/2000/svg"><g clip-rule="evenodd" fill-rule="evenodd"><g fill="#f3f3f3"><path d="m10.3485 20.7468c5.7154 0 10.3486-4.6444 10.3486-10.3734 0-5.72908-4.6332-10.3734-10.3486-10.3734-5.7153 0-10.3485 4.64432-10.3485 10.3734 0 5.729 4.6332 10.3734 10.3485 10.3734zm6.0005-12.91736c-1.9476-1.21432-4.1294-1.48592-6.3286-1.60008-2.19213.10894-4.31734.39805-6.19474 1.62355-1.52269.9648-2.15104 2.87509-1.49944 4.55849.49506 1.3409 1.9156 1.821 3.27227 1.6868.49904-.0493.97995-.1836 1.46084-.3179.21514-.0601.43028-.1202.64703-.1726 1.46188-.3539 2.92424-.4632 4.40354-.0851.8358.2403 1.6863.4263 2.546.5565 2.0445.2463 3.605-.8807 3.5726-3.0759-.0206-1.3996-.713-2.44643-1.8795-3.17376z"/><path d="m15.6294 10.4703c.0113.797-.5344 1.4758-1.1952 1.4868-.5866.0098-1.1674-.668-1.1767-1.3731-.0103-.77276.5162-1.42001 1.1767-1.4467.6609-.02672 1.1841.55685 1.1952 1.333z"/><path d="m6.92916 10.4703c.01132.797-.53437 1.4758-1.19519 1.4868-.58652.0098-1.16736-.668-1.17669-1.3731-.01024-.77276.5162-1.42001 1.17669-1.4467.66095-.02672 1.18418.55685 1.19519 1.333z"/></g><path d="m9.80909 27.8823c-3.41314-2.0586-5.65329-4.4225-7.12356-6.7815-.47458-.7615.42384-1.6175 1.17178-1.1235 3.87631 2.5528 8.89709 2.5455 12.76599-.0185.7469-.4964 1.6484.3582 1.1746 1.1207-1.4701 2.3661-3.7135 4.738-7.137 6.8028-.2624.1569-.5894.1569-.85181 0z" fill="#74a352"/><path d="m28.7285 20.2791 4.6445-11.13008h2.1983l4.6445 11.13008h-2.4926l-.9908-2.4786h-4.5825l-.9908 2.4786zm4.2729-4.6257h2.8796l-1.4398-3.5837zm8.4586 4.6257v-11.05114h4.2264c1.6927 0 3.0757.52361 4.1491 1.57084 1.0733 1.0472 1.61 2.3655 1.61 3.9547 0 1.5788-.5392 2.8944-1.6178 3.9469-1.0785 1.0525-2.459 1.5787-4.1413 1.5787zm2.3841-2.1944h1.8423c.9805 0 1.7701-.3079 2.3687-.9236s.8979-1.4182.8979-2.4076c0-.9788-.3019-1.7787-.9057-2.3996-.6037-.621-1.3907-.9315-2.3609-.9315h-1.8423zm14.5119 2.3839c-1.6824 0-3.0525-.5368-4.1104-1.6103-1.0579-1.0736-1.5868-2.4418-1.5868-4.1048 0-1.5892.5418-2.939 1.6255-4.0494s2.4358-1.66559 4.0562-1.66559c.9392 0 1.7339.12367 2.3841.37101.6503.24733 1.2747.62888 1.8733 1.14458l-1.5017 1.8471c-.4541-.3894-.8928-.6736-1.3159-.8525-.4232-.1789-.9289-.2684-1.5172-.2684-.867 0-1.6024.3394-2.2061 1.0183-.6038.6789-.9057 1.4972-.9057 2.4549 0 1.0104.307 1.8472.9212 2.5102.6141.6631 1.401.9946 2.3609.9946.8876 0 1.6358-.221 2.2448-.663v-1.5788h-2.3996v-2.0997h4.7063v4.7994c-1.352 1.1682-2.895 1.7524-4.6289 1.7524zm11.4408-.0158c-1.4759 0-2.6267-.4184-3.4524-1.2551s-1.2385-2.055-1.2385-3.6548v-6.31494h2.3841v6.25184c0 .8841.2039 1.5603.6115 2.0286.4077.4684.9831.7026 1.7262.7026s1.3185-.2263 1.7262-.6789.6115-1.1104.6115-1.9734v-6.33074h2.3842v6.23604c0 1.6419-.4206 2.8838-1.2618 3.7258-.8411.842-2.0048 1.263-3.491 1.263zm5.3989-.1737 4.6445-11.13008h2.1983l4.6445 11.13008h-2.4925l-.9909-2.4786h-4.5825l-.9908 2.4786zm4.2729-4.6257h2.8796l-1.4398-3.5837zm8.4586 4.6257v-11.05114h4.954c1.3727 0 2.4255.37363 3.1583 1.12094.6192.6315.9289 1.484.9289 2.5575 0 1.6945-.7741 2.8365-2.3223 3.4259l2.6474 3.9468h-2.7867l-2.3532-3.5363h-1.8423v3.5363zm2.3841-5.6834h2.4151c.578 0 1.027-.1447 1.3469-.4342.32-.2894.48-.6762.48-1.1604 0-.5157-.1652-.9077-.4954-1.1761-.3303-.2684-.7896-.4026-1.3779-.4026h-2.3687zm8.3812 5.6834v-11.05114h4.2265c1.693 0 3.076.52361 4.149 1.57084 1.073 1.0472 1.61 2.3655 1.61 3.9547 0 1.5788-.539 2.8944-1.618 3.9469-1.078 1.0525-2.459 1.5787-4.141 1.5787zm2.3845-2.1944h1.842c.98 0 1.77-.3079 2.369-.9236.598-.6157.898-1.4182.898-2.4076 0-.9788-.302-1.7787-.906-2.3996-.604-.621-1.391-.9315-2.361-.9315h-1.842z" fill="#f3f3f3"/><path d="m118.775 20.1217 4.49-10.59961h-1.268l-3.729 9.06611-3.713-9.06611h-1.313l4.489 10.59961zm7.726-.0752v-3.7136h2.535c1.174 0 2.15-.3007 2.931-.9021.78-.6014 1.171-1.4483 1.171-2.5409 0-1.0424-.353-1.8643-1.059-2.4657-.706-.60141-1.656-.90211-2.849-.90211h-3.907v10.52441zm2.58-4.7961h-2.58v-4.6308h2.64c.865 0 1.548.198 2.05.5939.503.3959.754.9598.754 1.6915 0 .7116-.261 1.2804-.783 1.7064s-1.216.639-2.081.639zm7.353 4.7961v-8.63l6.741 8.63h.94v-10.52441h-1.149v8.43461l-6.577-8.43461h-1.104v10.52441z" fill="#f3f3f3"/></g></svg>