<svg fill="none" height="28" viewBox="0 0 146 28" width="146" xmlns="http://www.w3.org/2000/svg" xmlns:xlink="http://www.w3.org/1999/xlink"><linearGradient id="a" gradientUnits="userSpaceOnUse" x1="24.8202" x2="24.8202" y1="29.7707" y2="14.3932"><stop offset="0" stop-color="#81a747"/><stop offset="1" stop-color="#6eacb9"/></linearGradient><path clip-rule="evenodd" d="m58.7979 20.421c-1.692 0-3.07-.5355-4.134-1.6065-1.064-1.0711-1.5959-2.4361-1.5959-4.0952 0-1.5856.5449-2.9323 1.6349-4.0401 1.0899-1.10779 2.4497-1.66168 4.0794-1.66168.9447 0 1.7439.12338 2.3979.37014s1.282.62744 1.884 1.14194l-1.5103 1.8428c-.4567-.3885-.8979-.672-1.3235-.8505s-.9342-.2678-1.5259-.2678c-.872 0-1.6116.3387-2.2188 1.0159-.6073.6773-.9109 1.4937-.9109 2.4493 0 1.008.3088 1.8428.9265 2.5043.6176.6616 1.4091.9923 2.3745.9923.8927 0 1.6452-.2205 2.2577-.6615v-1.5751h-2.4134v-2.0948h4.7334v4.7882c-1.3598 1.1656-2.9117 1.7483-4.6556 1.7483zm-25.1267-11.29323-4.6712 11.10423h2.4446l.9965-2.4728h4.6089l.9965 2.4728h2.5068l-4.6711-11.10423zm1.0743 2.91393 1.4481 3.5754h-2.8961zm7.0592 8.1903v-11.02547h4.2508c1.7024 0 3.0933.52239 4.1729 1.56717 1.0795 1.0448 1.6193 2.36 1.6193 3.9456 0 1.575-.5424 2.8876-1.6271 3.9376-1.0848 1.0501-2.4731 1.5751-4.1651 1.5751zm4.2508-2.1893h-1.8529v-6.6468h1.8529c.9757 0 1.7672.3097 2.3745.9293.6072.6195.9109 1.4175.9109 2.3941 0 .987-.3011 1.7877-.9031 2.402-.6021.6142-1.3962.9214-2.3823.9214zm20.7768 1.1104c.8304.8348 1.9878 1.2522 3.4722 1.2522 1.4948 0 2.6652-.42 3.5112-1.2601.846-.84 1.269-2.0791 1.269-3.7171v-6.22157h-2.3979v6.31607c0 .861-.205 1.5173-.615 1.9688s-.9887.6773-1.7361.6773-1.3261-.2337-1.7361-.7009c-.4101-.4673-.6151-1.142-.6151-2.024v-6.23727h-2.3978v6.30027c0 1.5961.4152 2.8115 1.2456 3.6463zm8.9023 1.0789 4.6711-11.10423h2.211l4.6712 11.10423h-2.5069l-.9965-2.4728h-4.6089l-.9965 2.4728zm5.7455-8.1903 1.4481 3.5754h-2.8962zm7.0592-2.83517h4.9826c1.3806 0 2.4393.37276 3.1763 1.11827.6229.6301.9343 1.4806.9343 2.5516 0 1.6906-.7785 2.8299-2.3356 3.4179l2.6626 3.9377h-2.8027l-2.3668-3.5281h-1.8529v3.5281h-2.3978zm4.8268 5.35527h-2.429v-3.1659h2.3823c.5917 0 1.0536.1339 1.3858.4016.3322.2678.4983.6589.4983 1.1734 0 .4831-.1609.869-.4827 1.1577-.3218.2888-.7734.4332-1.3547.4332zm6.0004-5.35527h4.2505c1.703 0 3.094.52239 4.173 1.56717 1.08 1.0448 1.62 2.36 1.62 3.9456 0 1.575-.543 2.8876-1.628 3.9376-1.084 1.0501-2.473 1.5751-4.165 1.5751h-4.2505zm4.2505 8.83617h-1.853v-6.6468h1.853c.976 0 1.768.3097 2.375.9293.607.6195.911 1.4175.911 2.3941 0 .987-.301 1.7877-.903 2.402-.602.6142-1.397.9214-2.383.9214z" fill="#242424" fill-rule="evenodd"/><path clip-rule="evenodd" d="m124.08 9.5-4.515 10.575h-1.05l-4.515-10.575h1.32l3.735 9.045 3.75-9.045zm3.255 6.795v3.705h-1.185v-10.5h3.93c1.2 0 2.155.3 2.865.9s1.065 1.42 1.065 2.46c0 1.09-.392 1.935-1.177 2.535-.786.6-1.768.9-2.948.9zm2.595-1.08h-2.595v-4.62h2.655c.87 0 1.558.1975 2.062.5925.506.395.758.9575.758 1.6875 0 .71-.262 1.2775-.788 1.7025-.525.425-1.222.6375-2.092.6375zm7.395-3.825v8.61h-1.155v-10.5h1.11l6.615 8.415v-8.415h1.155v10.5h-.945z" fill="#242424" fill-rule="evenodd"/><circle cx="10.455" cy="10.3493" fill="#010029" r="10.3493"/><path d="m10.1268 6.2149c2.1994.11389 4.3814.38487 6.329 1.59637 1.1666.72564 1.8591 1.77004 1.8797 3.16633.0324 2.1901-1.5282 3.3146-3.5728 3.0688-.8599-.1299-1.7104-.3154-2.5463-.5552-1.4793-.3772-2.94181-.2682-4.4038.0849-.70131.1693-1.38566.4181-2.10802.4894-1.35677.1338-2.77741-.3451-3.2725-1.6829-.65165-1.6795-.02326-3.58536 1.49954-4.54792 1.87753-1.22265 4.0029-1.51109 6.19518-1.61978z" fill="#fefefe"/><path d="m15.7365 10.446c.0113.7951-.5344 1.4723-1.1953 1.4833-.5866.0098-1.1675-.6664-1.1768-1.3699-.0102-.77097.5162-1.41672 1.1768-1.44335.661-.02665 1.1842.55556 1.1953 1.32995z" fill="#010029"/><path d="m7.03553 10.446c.01132.7951-.53441 1.4723-1.19527 1.4833-.58657.0098-1.16745-.6664-1.17678-1.3699-.01024-.77097.51624-1.41672 1.17678-1.44335.661-.02665 1.18426.55556 1.19527 1.32995z" fill="#010029"/><path d="m9.91557 27.8175c-3.41339-2.0538-5.6537-4.4122-7.12408-6.7658-.4746-.7596.42388-1.6136 1.17187-1.1208 3.87659 2.5469 8.89774 2.5396 12.76694-.0185.7469-.4952 1.6485.3574 1.1747 1.1181-1.4703 2.3607-3.7139 4.7271-7.1376 6.787-.2623.1566-.5895.1566-.85183 0z" fill="url(#a)"/></svg>