<svg xmlns="http://www.w3.org/2000/svg" width="145" height="28" fill="none"><g fill-rule="evenodd" clip-rule="evenodd"><g fill="#f3f3f3"><path d="M10.35 20.75c5.71 0 10.35-4.65 10.35-10.38a10.36 10.36 0 1 0-10.35 10.38zm6-12.92c-1.95-1.21-4.13-1.49-6.33-1.6-2.2.1-4.32.4-6.2 1.62a3.78 3.78 0 0 0-1.5 4.56c.5 1.34 1.92 1.82 3.28 1.69.5-.05.98-.19 1.46-.32l.65-.17a8.97 8.97 0 0 1 4.4-.09c.84.24 1.69.43 2.55.56 2.04.25 3.6-.88 3.57-3.08a3.66 3.66 0 0 0-1.88-3.17z"/><path d="M15.63 10.47c.01.8-.54 1.48-1.2 1.49-.58 0-1.16-.67-1.17-1.38-.01-.77.51-1.42 1.17-1.44.67-.03 1.19.55 1.2 1.33zM6.93 10.47c.01.8-.54 1.48-1.2 1.49-.58 0-1.16-.67-1.17-1.38-.01-.77.51-1.42 1.17-1.44.66-.03 1.19.55 1.2 1.33z"/></g><path fill="#74a352" d="M9.8 27.88A20.83 20.83 0 0 1 2.7 21.1c-.48-.76.42-1.62 1.17-1.12a11.58 11.58 0 0 0 12.76-.02c.75-.5 1.65.36 1.18 1.12a20.82 20.82 0 0 1-7.14 6.8.83.83 0 0 1-.85 0z"/><path fill="#f3f3f3" d="m28.73 20.28 4.64-11.13h2.2l4.65 11.13h-2.5l-.99-2.48h-4.58l-1 2.48zM33 15.65h2.88l-1.44-3.58zm8.46 4.63V9.23h4.23c1.69 0 3.07.52 4.15 1.57a5.3 5.3 0 0 1 1.6 3.95c0 1.58-.53 2.9-1.61 3.95a5.68 5.68 0 0 1-4.14 1.58zm2.38-2.2h1.85c.98 0 1.77-.3 2.37-.92s.9-1.42.9-2.4a3.15 3.15 0 0 0-3.27-3.33h-1.85zm14.52 2.39a5.52 5.52 0 0 1-4.11-1.61 5.6 5.6 0 0 1-1.6-4.1c0-1.6.55-2.95 1.63-4.06s2.44-1.66 4.06-1.66c.94 0 1.73.12 2.38.37.65.25 1.28.63 1.88 1.14l-1.5 1.85a3.88 3.88 0 0 0-2.83-1.12c-.87 0-1.6.34-2.21 1.02-.6.68-.9 1.5-.9 2.45 0 1.01.3 1.85.91 2.51.62.67 1.4 1 2.36 1 .9 0 1.64-.22 2.25-.66v-1.58h-2.4v-2.1h4.7v4.8a6.88 6.88 0 0 1-4.62 1.75zm11.44-.02c-1.48 0-2.63-.42-3.46-1.25s-1.23-2.06-1.23-3.66V9.23h2.38v6.25c0 .88.2 1.56.61 2.03.4.47.98.7 1.73.7s1.32-.23 1.72-.68.62-1.1.62-1.97V9.23h2.38v6.23c0 1.65-.42 2.89-1.26 3.73-.84.84-2 1.26-3.5 1.26zm5.4-.17 4.64-11.13h2.2l4.64 11.13H84.2l-.99-2.48h-4.58l-1 2.48zm4.27-4.63h2.88l-1.44-3.58zm8.46 4.63V9.23h4.95c1.37 0 2.43.37 3.16 1.12.62.63.93 1.48.93 2.56 0 1.7-.78 2.83-2.32 3.42l2.64 3.95h-2.78l-2.36-3.54h-1.84v3.54zm2.38-5.68h2.42c.57 0 1.02-.15 1.34-.44.32-.29.48-.67.48-1.16 0-.51-.16-.9-.5-1.17-.32-.27-.78-.4-1.37-.4h-2.37zm8.38 5.68V9.23h4.23c1.7 0 3.08.52 4.15 1.57a5.3 5.3 0 0 1 1.6 3.95c0 1.58-.53 2.9-1.61 3.95a5.68 5.68 0 0 1-4.14 1.58zm2.39-2.2h1.84c.98 0 1.77-.3 2.37-.92.6-.61.9-1.42.9-2.4a3.15 3.15 0 0 0-3.27-3.33h-1.84zM118.78 20.12l4.49-10.6H122l-3.73 9.07-3.71-9.07h-1.32l4.5 10.6zm7.72-.07v-3.72h2.54c1.17 0 2.15-.3 2.93-.9a3.02 3.02 0 0 0 1.17-2.54c0-1.04-.35-1.86-1.06-2.47-.7-.6-1.66-.9-2.85-.9h-3.9v10.53zm2.58-4.8h-2.58v-4.63h2.64c.87 0 1.55.2 2.05.6.5.39.76.95.76 1.69 0 .7-.27 1.28-.79 1.7s-1.21.64-2.08.64zm7.35 4.8v-8.63l6.75 8.63h.94V9.52h-1.15v8.44l-6.58-8.44h-1.1v10.53z"/></g></svg>