<svg width="320" height="260" viewBox="0 0 320 260" fill="none" xmlns="http://www.w3.org/2000/svg">
    <mask id="mask0_1531_22584" style="mask-type:alpha" maskUnits="userSpaceOnUse" x="0" y="0" width="320" height="260">
    <rect width="320" height="260" fill="#C4C4C4"/>
    </mask>
    <g mask="url(#mask0_1531_22584)">
    <rect x="80.2792" y="116.616" width="154.037" height="111.97" rx="7.15626" fill="#FFCC47"/>
    <ellipse cx="164.721" cy="242.505" rx="84.4418" ry="2.78379" fill="#131313" fill-opacity="0.2"/>
    <path fill-rule="evenodd" clip-rule="evenodd" d="M101.285 189.433C132.22 189.433 157.298 164.355 157.298 133.419C157.298 127.565 156.4 121.92 154.734 116.616H227.16C231.112 116.616 234.316 119.82 234.316 123.772V221.486C234.316 225.438 231.112 228.642 227.16 228.642H87.4355C83.4832 228.642 80.2792 225.438 80.2792 221.486V185.361C86.7659 187.987 93.8564 189.433 101.285 189.433Z" fill="#F7B711"/>
    <path fill-rule="evenodd" clip-rule="evenodd" d="M134.505 228.642C173.866 214.911 202.107 177.463 202.107 133.42C202.107 127.694 201.63 122.08 200.713 116.615H227.159C231.111 116.615 234.315 119.819 234.315 123.772V221.486C234.315 225.438 231.111 228.642 227.159 228.642H134.505Z" fill="#E5A500"/>
    <path opacity="0.21" fill-rule="evenodd" clip-rule="evenodd" d="M81.8444 119.305C80.8649 120.529 80.2792 122.082 80.2792 123.772V221.43C80.2792 225.382 83.4832 228.586 87.4355 228.586H227.16C231.112 228.586 234.316 225.382 234.316 221.43V123.772C234.316 122.357 233.905 121.037 233.196 119.927L162.339 175.621C159.743 177.661 156.089 177.661 153.494 175.621L81.8444 119.305ZM87.3578 116.616L227.238 116.616C227.212 116.615 227.186 116.615 227.16 116.615H87.4355C87.4096 116.615 87.3837 116.615 87.3578 116.616Z" fill="url(#paint0_linear_1531_22584)"/>
    <path d="M249.163 125.895C249.163 139.902 237.807 151.258 223.799 151.258C209.791 151.258 198.436 139.902 198.436 125.895C198.436 111.887 209.791 100.531 223.799 100.531C237.807 100.531 249.163 111.887 249.163 125.895Z" fill="#D7283A"/>
    <path d="M229.468 125.642C229.468 128.906 226.823 131.551 223.559 131.551C220.296 131.551 217.651 128.906 217.651 125.642C217.651 122.379 220.296 119.734 223.559 119.734C226.823 119.734 229.468 122.379 229.468 125.642Z" fill="#F3F3F3"/>
    <path fill-rule="evenodd" clip-rule="evenodd" d="M256.548 125.895C256.548 143.982 241.886 158.644 223.799 158.644C205.712 158.644 191.05 143.982 191.05 125.895C191.05 107.808 205.712 93.1459 223.799 93.1459C241.886 93.1459 256.548 107.808 256.548 125.895ZM223.799 151.258C237.807 151.258 249.162 139.903 249.162 125.895C249.162 111.887 237.807 100.531 223.799 100.531C209.791 100.531 198.436 111.887 198.436 125.895C198.436 139.903 209.791 151.258 223.799 151.258Z" fill="white"/>
    <rect x="201.302" y="15.0005" width="65.6981" height="47.7564" rx="3.05221" fill="#FFCC47"/>
    <path fill-rule="evenodd" clip-rule="evenodd" d="M210.261 46.0573C223.455 46.0573 234.151 35.3613 234.151 22.1671C234.151 19.6702 233.768 17.2629 233.058 15.0005H263.948C265.633 15.0005 267 16.367 267 18.0527V59.7287C267 61.4144 265.633 62.7809 263.948 62.7809H204.354C202.668 62.7809 201.302 61.4144 201.302 59.7287V44.3206C204.069 45.4406 207.093 46.0573 210.261 46.0573Z" fill="#F7B711"/>
    <path fill-rule="evenodd" clip-rule="evenodd" d="M224.43 62.7806C241.218 56.924 253.263 40.9523 253.263 22.1675C253.263 19.7255 253.059 17.3311 252.668 15.0002H263.948C265.633 15.0002 267 16.3668 267 18.0525V59.7284C267 61.4141 265.633 62.7806 263.948 62.7806H224.43Z" fill="#E5A500"/>
    <path opacity="0.21" fill-rule="evenodd" clip-rule="evenodd" d="M201.969 16.1471C201.552 16.6692 201.302 17.3316 201.302 18.0522V59.7042C201.302 61.3899 202.668 62.7564 204.354 62.7564H263.948C265.633 62.7564 267 61.3899 267 59.7042V18.0522C267 17.4488 266.825 16.8862 266.523 16.4126L236.301 40.1666C235.194 41.0366 233.636 41.0366 232.529 40.1666L201.969 16.1471ZM204.302 15.0004L264 15.0004C263.983 15.0001 263.965 15 263.948 15H204.354C204.337 15 204.319 15.0001 204.302 15.0004Z" fill="url(#paint1_linear_1531_22584)"/>
    <rect x="54" y="56.4937" width="36.6526" height="26.6431" rx="1.70281" fill="#FFCC47"/>
    <path fill-rule="evenodd" clip-rule="evenodd" d="M58.9982 73.8204C66.3592 73.8204 72.3264 67.8532 72.3264 60.4922C72.3264 59.0991 72.1127 57.7559 71.7162 56.4937H88.9498C89.8902 56.4937 90.6526 57.256 90.6526 58.1965V81.4473C90.6526 82.3877 89.8902 83.1501 88.9498 83.1501H55.7028C54.7624 83.1501 54 82.3877 54 81.4473V72.8516C55.5435 73.4764 57.2307 73.8204 58.9982 73.8204Z" fill="#F7B711"/>
    <path fill-rule="evenodd" clip-rule="evenodd" d="M66.9027 83.1502C76.2687 79.8829 82.9885 70.9723 82.9885 60.4923C82.9885 59.1299 82.8749 57.7941 82.6568 56.4938H88.9496C89.89 56.4938 90.6524 57.2561 90.6524 58.1966V81.4474C90.6524 82.3878 89.89 83.1502 88.9496 83.1502H66.9027Z" fill="#E5A500"/>
    <path opacity="0.21" fill-rule="evenodd" clip-rule="evenodd" d="M71.4213 70.5339C72.0388 71.0192 72.9083 71.0192 73.5258 70.5339L90.3861 57.2818C90.5548 57.546 90.6526 57.86 90.6526 58.1967V81.4342C90.6526 82.3746 89.8902 83.137 88.9498 83.137H55.7028C54.7624 83.137 54 82.3746 54 81.4342V58.1967C54 57.7946 54.1394 57.425 54.3725 57.1337L71.4213 70.5339Z" fill="url(#paint2_linear_1531_22584)"/>
    </g>
    <defs>
    <linearGradient id="paint0_linear_1531_22584" x1="157.607" y1="116.322" x2="157.607" y2="228.586" gradientUnits="userSpaceOnUse">
    <stop stop-color="#2B1F00"/>
    <stop offset="1" stop-color="#2B1F00" stop-opacity="0"/>
    </linearGradient>
    <linearGradient id="paint1_linear_1531_22584" x1="234.283" y1="14.8749" x2="234.283" y2="62.7564" gradientUnits="userSpaceOnUse">
    <stop stop-color="#2B1F00"/>
    <stop offset="1" stop-color="#2B1F00" stop-opacity="0"/>
    </linearGradient>
    <linearGradient id="paint2_linear_1531_22584" x1="72.3999" y1="57.0655" x2="72.3999" y2="83.137" gradientUnits="userSpaceOnUse">
    <stop stop-color="#2B1F00"/>
    <stop offset="1" stop-color="#2B1F00" stop-opacity="0"/>
    </linearGradient>
    </defs>
</svg>
