<svg xmlns="http://www.w3.org/2000/svg" width="320" height="239" fill="none" viewBox="0 0 320 239"><path fill="#383847" d="M62.158 130.443c14.785 23.318 23.069 45.741 40.979 53.403 8.004 3.523 14.865-3.596 19.538-10.628 2.889-4.22-59.743-43.854-60.517-42.775"/><path fill="#31313f" d="M100.594 171.45c-1.113 1.511-8.307 9.387-27.263-27.428-2.1-3.237-.472 2.825-1.356 3.904 14.785 23.318 18.69 31.259 35.031 37.755 12.846 5.585-5.572-15.369-6.405-14.231z"/><path fill="#575770" d="M80.112 154.025c-1.578-.726-12.205-9.013-15.117-12.969l-2.049 2.54 12.581 19.971c-.84-3.061 1.445-6.797 4.592-9.534z"/><path fill="#575771" d="M66.639 142.935c-1.666-2.848-9.073-8.198-11.387-9.798-.302-.198-.236-.543.037-.661 3.5-1.174 4.93-6.642 4.93-6.642l6.42 17.109z"/><path fill="#2b2b37" d="M65.998 140.946c.154.367-.303.558-.509.323-2.779-2.914-8.034-6.811-9.788-8.11-.258-.103-.199-.455.081-.573 3.53-.866 4.526-5.827 4.526-5.827l5.69 14.18z"/><path fill="#74a352" d="M237.785 175.626c5.925-.954 10.967-3.068 16.737-4.309-1.746-2.216-2.564-4.455-2.771-7.229-22.627 10.151-47.693.22-39.925-27.766 2.875-13.049-2.83-23.883-10.053-34.371-11.114-17.218-17.703-17.607-32.304-28.455-.272.624-.339 1.827-.449 2.59 8.055 16.052 31.449 23.862 39.394 39.355 3.427 10.599-2.594 21.439-2.027 32.082.752 18.796 11.955 31.237 31.398 28.11z"/><path fill="#568040" d="M206.586 150.378c1.585-3.846 3.191-7.648 4.592-11.546.155-.902.42-1.629.619-2.539 2.874-13.065-2.838-23.89-10.068-34.386-9.677-14.437-18.094-13.908-29.054-23.26-.383-.322-.353-.41-.67-.704-.015-.014-.015-.022-.03-.036l-.037-.037c-1.002-1.424-1.149-3.149-2.417-4.419-.007-.007-.03 0-.044.045a8 8 0 0 0-.207.946c-.022.132-.022.316-.059.404s-.014.117-.014.161c0 .177-.059.411-.067.55-.007.14-.044.243-.059.339-.007.095-.037.095-.007.154 5.793 11.295 23.961 23.743 33.83 32.147 2.366 2.011 4.09 4.507 5.527 7.244 1.607 5.63 1.202 10.885.015 16.551-1.319 5.13-2.137 10.312-2.056 15.567.015 1.108.162 1.784.206 2.826zM213.617 163.112c-.921-2.576-1.135-5.637-1.886-8.265 3.353 7.355 8.461 10.929 16.34 12.536 8.07 4.044 16.487 4.434 25.088 2.063.361.668.789 1.27 1.268 1.857-15.412 4.367-33.859 11.912-40.817-8.191z"/><path fill="#aed888" d="M240.364 169.989c-2.322-.162-7.112-1.248-9.596-2.231 7.989.55 14.291-1.035 20.954-3.633.095 1.504.375 2.884.958 4.301-4.341 1.101-7.511 1.901-12.316 1.563" opacity=".49"/><path fill="#3e5c2e" d="M202.872 108.285c-5.049-5.534-10.326-10.158-15.891-15.465-4.503-4.293-9.942-9.629-14.283-14.07-.671-.69-.266-.293-.737-.785-.037-.036 0 0-.022-.03-.023-.029-.037-.028-.037-.043-.524-1.718-1.069-3.185-2.418-4.419-.007-.007-.029 0-.044.044a8 8 0 0 0-.206.947c-.023.132-.022.316-.059.397-.037.088-.015.117-.015.161 0 .176-.059.411-.066.55s-.045.243-.059.338c-.008.096-.037.088-.008.162 5.764 11.361 23.902 23.853 33.845 32.206z"/><path fill="#74a352" d="M244.499 132.718c8.793-4.242 14.888-3.978 23.113 1.307 2.005-3.171 4.378-5.725 7.407-7.963-9.257-7.391-21.477-5.358-31.67-1.079-17.939 8.668-25.803 5.284-34.508-13.065-3.935-8.294-7.488-17.769-14.747-26.055-6.648-7.582-12.95-11.406-23.607-12.412-.627.529-.966 1.307-1.563 1.901 4.805.367 8.763 3.575 12.596 6.444 8.225 5.718 17.829 14.731 21.602 23.7 3.612 8.58 4.29 17.652 8.8 24.764 9.906 15.633 19.989 10.165 32.592 2.444z"/><path fill="#568040" d="M243.268 133.35c8.196-4.588 16.524-4.72 24.374.646.147-.235.302-.47.449-.705-19.406-17.02-21.919 1.343-40.846 2.928-11.992 1.006-17.571-10.833-17.21-21.732-.457-.888-8.763-20.28-16.524-29.138-6.743-7.707-12.61-10.599-23.083-11.905-.59.631-.959 1.321-1.548 1.952 4.407.837 8.962 3.795 12.795 6.547 23.54 16.955 18.779 26.496 30.173 48.559 9.081 13.938 19.37 11.046 31.413 2.848z"/><path fill="#aed888" d="M256.218 125.056c-4.651-1.16-8.808-.279-13.414.066 5.409-2.158 10.753-3.611 16.575-4.022 3.87 3.097 8.955 4.602 13.864 3.611.634.404 1.201.888 1.784 1.358-2.646 1.96-4.791 4.22-6.7 6.877-2.978-4.139-7.252-6.679-12.109-7.89M231.306 129.702c-1.783 1.101-7.193 4.279-10.281 1.842-2.764-2.172-4.319-5.152-5.793-8.345-.126-.279-.362-.756-.502-1.057 4.762 5.586 9.972 8.463 17.49 7.024-1.069.653.87-.572-.914.529z" opacity=".49"/><path fill="#3e5c2e" d="M252.076 128.645c1.85-.066 4.938 1.042 6.662 1.6-8.21-1.798-17.04 4.184-17.416 4.396 2.558-2.576 6.987-5.857 10.754-5.989z"/><path fill="#74a352" d="M205.274 111.86c.339-1.85.612-3.744 1.04-5.571-4.924-11.575-13.061-24.206-23.342-29.902-3.191-1.769-7.459-2.136-10.975-2.796 12.316 11.472 29.15 20.77 33.27 38.276z"/><path fill="#aed888" d="M199.695 93.393c-4.4-6.723-9.294-12.463-16.17-16.712-.096.03 8.365 11.817 16.17 16.712" opacity=".49"/><path fill="#568040" d="M204.795 111.419c1.386-11.662-22.221-30.54-27.41-36.793-1.643-.272-3.648-.756-5.439-1.035 10.849 10.15 24.801 18.085 31.154 32.089.722 1.636 1.26 3.354 1.769 4.946.118.375.789 1.211-.066.793z"/><path fill="#565673" d="M205.878 226.805c-16.111 2.958-34.508 4.726-54.179 4.726-19.244 0-37.308-1.607-53.162-4.477 3.818-16.463 5.005-21.108 9.751-34.283 1.445.088 72.914-3.802 79.356-6.503 4.577 13.762 7.628 22.878 15.684 35.465 1.186 1.688 2.034 3.464 2.543 5.064z"/><path fill="#2b2b37" d="M205.878 226.805c-31.611 6.106-75.317 6.312-107.34.256 3.817-16.462 5.004-21.189 9.75-34.283 1.445.089 72.914-3.802 79.356-6.502 4.577 13.761 7.628 22.877 15.684 35.464 1.186 1.688 2.034 3.465 2.543 5.065z" opacity=".25"/><path fill="#2b2b37" d="M205.878 226.805c-11.704 2.194-24.757 3.713-38.576 4.308-11.527-11.479-30.52-12.154-41.797-.675-6.36-.507-12.551-1.182-18.485-2.107-.213-7.581-.545-14.525-3.139-22.378 1.444-4.896 2.631-8.272 4.326-13.087 0 0 73.003-4.051 79.444-6.752 4.577 13.762 7.629 22.877 15.684 35.465 1.106 1.937 1.953 3.464 2.543 5.233z" opacity=".25"/><path fill="#272734" d="M205.878 226.805c-9.154 1.688-19.074 2.957-29.503 3.801-1.526-13.005-6.103-25.079-12.552-36.308a169.6 169.6 0 0 0 23.828-8.103c4.371 15.376 10.473 26.422 18.227 40.61" opacity=".25"/><path fill="#2b2b37" d="M205.79 226.805c-1.275.257-2.462.425-3.73.675-25.914-38.1-76.444-1.468-85.038-11.23-.088-.088-2.882-8.448-9.92-16.125-1.445-1.607 2.542-10.385 2.542-10.385 13.65 2.114 71.558-.844 77.919-3.545 4.444 15.589 10.481 26.378 18.227 40.61" opacity=".25"/><path fill="#272734" d="M108.119 194.466c3.479 2.026 6.441 6.166 8.815 8.529 15.824 13.512 34.972-4.073 51.039-9.96-6.272 1.776-59.692.595-59.862 1.439z" opacity=".25"/><path fill="#272734" d="M192.737 201.05c-28.604-9.71-64.822 8.074-85.717-4.984.428-.932.848-2.451 1.106-3.376-.428 1.439 62.913.088 79.356-6.503 1.783 5.065 3.56 10.555 5.255 14.863" opacity=".25"/><path fill="#464558" d="M73.413 124.689c7.09-.756 10.885-9.461 12.964-17.908 3.39-10.555 16.789-34.533 29.872-26.599 7.407 4.558 2.601 16.8-.472 24.822-7.643 20.603-15.603 33.014-30.424 47.37-4.526 4.396-9.604 5.02-14.653 3.743l2.712-31.435z"/><path fill="#4c4c63" d="M82.987 114.803c2.682 1.945 6.228-4.984 7.878-7.516 4.415-6.921 11.977-5.49 12.139-25.755-10.797 7.179-14.976 21.527-20.017 33.263z"/><path fill="#272734" d="M45.39 136.755c-.073-.088-.39-.168-.39-.168 0-.088.236.08.236.168s.08 0 .155 0q-.075 0 0 0" opacity=".25"/><path fill="#575770" d="M104.714 123.177c-.207.778-1.607-36.36.501-43.017.405-.28.811-.558 1.312-.764 4.798-2.003 44.303-7.266 44.303-7.266 2.8-.014 25.715 7.391 31.183 7.883 3.774.514 8.159 1.336 8.601 1.556-.095 4.998 9.206 30.371 3.501 51.047-2.808 10.334 2.366 45.285 2.573 45.857l-85.289 14.18c-.126-3.207.98-24.962-.914-38.298-3.914-28.683-5.167-14.047-5.778-31.185z"/><path fill="#2b2b37" d="M171.253 88.233c-6.405 8.624-16.333 3.597-26.327 5.432-20.725 3.963-30.019-2.966-30.108-16.074 14.151-1.93 24.75-3.464 36.012-5.38 2.461.007 19.192 5.101 26.628 7.075-1.894.97-4.879 7.252-6.213 8.947z" opacity=".29"/><path fill="#2b2b37" d="M104.758 82.222c13.392-9.585 57.26 25.909 66.126-4.873-8.048-2.268-18.182-5.255-20.054-5.219-.907.397-40.552 4.83-45.615 8.03-.206.69-.28.866-.457 2.062" opacity=".25"/><path fill="#2b2b37" d="M105.606 123.794c8.778-6.07 20.629 2.304 30.468 2.084 28.457-.066 36.328-21.388 43.898-45.997 0 0 12.308 1.152 13.502 3.78 9.021 21.079 2.123 67.634 8.999 87.069.42 1.241-1.474 4.749-2.896 7.721l-88.105 8.668c-.147-17.842.752-34.819-5.004-52.727-1.297-2.965-2.727-7.949-.862-10.606z" opacity=".11"/><path fill="#2b2b37" d="M106.917 133.438c2.322-4.8 11.822.169 16.016.653 15.161 3.163 35.716 6.129 48.01-5.138 8.741-8.015 5.211-37.314 11.085-48.86 0 0 14.048 1.799 15.418 5.858 4.938 14.488 1.909 52.588 5.816 64.265 2.535 7.618-24.131 34.863-25.627 37.924l-66.156-1.013c.664-18.489-1.039-34.878-4.562-53.682z" opacity=".25"/><path fill="#2b2b37" d="M110.573 154.268c1.894 13.416.693 29.651.907 32.851l49.167-3.126c-11.328-4.345-24.138-11.098-25.936-24.434-2.403-17.277-30.27-52.36-28.427-80.06 0 0-.737.39-1.062.66-2.115 6.65-.707 43.789-.501 43.018.612 17.138 1.865 2.503 5.852 31.098z" opacity=".25"/><path fill="#d8d8d8" d="M111.605 95.91c-.914-3.581 1.459-7.625 4.26-3.743 2.181 4.764 5.645 8.353 8.306 12.749 6.582 10.995-9.743 14.679-12.566-8.998zM156.129 106.391c.98-1.923 14.534-15.493 15.824-15.237 3.39 1.138-1.349 9.226-3.383 11.898-10.392 13.872-14.453 10.246-12.441 3.347z" opacity=".1"/><path fill="#2b2b37" d="M133.207 81.987s.951 13.307 12.515 27.7c1.105 1.365-6.928 1.886-6.928 1.886l-15.721-31.215z" opacity=".29"/><path fill="#2b2b37" d="M182.566 92.358s-5.859 13.872-2.882 28.581c2.492 8.212 8.012 25.116.553 29.321l13.436 1.497-2.484-52.294-8.63-7.105z" opacity=".25"/><path fill="#383848" d="M188.514 130.018s3.272 22.672-6.722 24.507l13.517.139-2.064-24.955-4.739.309z"/><path fill="#2b2b37" d="M139.597 106.193c-.442-.932-4.333-8.734-4.938-9.534-.648-.961-1.289-1.996-1.938-2.958-1.29-1.996-2.521-3.904-3.663-5.96-1.71-3.082-3.221-6.524-3.892-10.326a34 34 0 0 0-3.397.697c7.237 37.439 19.752 32.683 17.836 28.081z" opacity=".25"/><path fill="#2b2b37" d="M137.725 110.737a34 34 0 0 1 1.961-2.635c1.585-2.063 3.059-4.294 4.511-6.452-13.82-9.615-12.957-14.613-21.492-30.57-.118-.175-1.194 23.238 15.02 39.657"/><path fill="#21212b" d="M131.94 89.657c-3.11-4.778-4.57-9.637-9.302-18.584-.059-.088-1.444 7.046 2.727 18.437.782-.44 5.27.28 6.575.154z"/><path fill="#575770" d="M132.92 94.289c-2.72-1.02-.612 2.275.096 3.324.508.94.346 2.1.855 3.039 2.668 1.879 3.242-4.58-.951-6.364" opacity=".3"/><path fill="#21212b" d="M139.251 98.105c-2.521 4.052-4.879 4.844-7.746 4.83 0 0 4.518 6.701 6.206 7.875 2.225-2.995 4.363-5.916 6.397-9.094-2.145-1.563-3.25-2.356-4.857-3.61"/><path fill="#2b2b37" d="m168.356 78.12 4.592.433c-29.393 25.167-49.241 75.553-55.137 111.319-.899-4.154-7.157-2.701-7.481-6.995-2.255-30.055 15.772-66.885 33.52-84.765 4.208-4.36 7.488-9.754 12.168-13.013 3.921-2.157 7.746-7.09 12.331-6.98z"/><path fill="#21212b" d="m164.642 75.162 8.306 3.383c-7.68 3.37-20.57 23.582-20.57 23.582 3.051-8.52-4.356-8.837-4.356-8.837 2.417-2.135 12.352-18.312 16.62-18.128"/><path fill="#575770" d="M150.483 98.215c.229-5.453-2.381-.367-3.199 1.321-.766 1.277-1.945 1.365-2.712 2.643-1.076 5.651 5.358 4.506 5.911-3.964" opacity=".3"/><path fill="#272734" d="M183.584 190.077c-17.719 10.386-59.434 14.437-75.885 4.309-.088 0-.088-.088-.169-.088.604-3.516 1.827-9.968 2.373-13.344 24.174 7.67 49.705 2.613 74.27-3.126.767 2.62-.766 11.816-.597 12.242z"/><path fill="#21212b" d="M188.161 188.132c-8.395 5.402-29.504 10.386-41.716 11.568-.339-.595-2.882-2.701-3.73-3.039-4.156-2.026-2.631-5.233-4.746-8.022-1.614-1.439-5.683-1.857-6.53-3.971 13.546 1.703 44.384-5.916 55.026-8.36.848 2.789 1.526 11.311 1.696 11.817z"/><path fill="#4c4c63" d="M181.46 180.066c3.818 9.365 27.727 7.156 35.186 3.89 7.459-3.354 8.985-18.114 8.565-26.775v-.088c.088-12.191-2.882-27.831-8.565-38.173-4.068-7.42-2.801-12.727-6.611-22.092-3.818-9.365-12.463-15.024-17.379-15.464-15.684-1.24-9.921 32.602-8.306 40.646 1.275 6.628 9.75 15.465 5.343 30.481 0 .177-.088.265-.088.441-11.446 1.945-11.704 18.554-8.137 27.127z"/><path fill="#575771" d="M184.261 122.018c.428 2.033 1.445 4.242 2.631 6.803 4.916 1.945 7.798-6.275 7.717-13.255-.088-6.98 5.174-14.312 1.275-20.94-3.817-6.627-12.971-4.242-12.971-4.242-2.462 10.341.339 26.422 1.356 31.634z"/><path fill="#2b2b37" d="M181.46 180.066c3.818 9.365 27.727 7.156 35.186 3.89 7.459-3.354 8.985-18.114 8.565-26.775v-.088c.088-12.191-2.882-27.831-8.565-38.173-4.068-7.42-2.8-12.727-6.611-22.092-2.712-6.716-7.967-11.574-12.552-13.872 16.362 15.024 5.764 36.405 6.951 45.77 1.186 9.453 14.836 22.973 5.004 20.323-9.581-2.561-18.824.881-19.244 1.057-.169.793-.678 2.65-.678 2.826-11.357 1.945-11.615 18.554-8.056 27.127z" opacity=".25"/><path fill="#2b2b37" d="M220.545 152.499c2.293 8.484 4.238 14.76 4.157 15.816.597-3.978.678-8.044.509-11.222v-.088c.088-8.132-1.275-17.85-3.818-26.422 1.356 7.156-2.97 14.4-.848 21.916M188.33 185.373c3.648 1.145 8.225 1.504 12.721 1.416 5.852-6.363 2.712-18.554 2.712-18.554L188.33 185.38zM189.936 151.442s4.327-.617 8.225 2.473c5.852 4.595 4.496 13.696 4.496 13.696-1.864-.441-13.06-14.577-13.06-14.577z" opacity=".25"/><path fill="#d8d8d8" d="M185.617 94.626c4.069-5.211 5.513 6.099 3.899 10.342-1.526 4.242-9.751-2.914-3.899-10.342" opacity=".1"/><path fill="#575771" d="M190.74 147.552s6.611-2.033 9.412-3.354c3.478-1.593-1.953-2.122-6.103.088-2.801 1.504 1.614-3.002.509-3.178-1.187-.176-3.56 2.737-3.56 2.737s-.089 2.738-.258 3.714z"/><path fill="#2b2b37" d="M209.777 96.388c.251 3.002.427 6.099.597 8.837.427 8.396 6.781 14.576 6.781 14.576a8 8 0 0 0-.509-.881c-4.068-7.42-2.801-12.727-6.611-22.092-.17-.176-.17-.264-.251-.44z" opacity=".25"/><path fill="#d58500" d="M61.355 127.838s-1.15 2.363-1.143 4.044 2.196 3.347 2.668 4.616c.472 1.278 3.059 6.283 7.665 9.762 4.607 3.479 6.995 1.292 6.294-4.044-.7-5.336 5.152-26.239-15.484-14.386z"/><path fill="#b45f00" d="M65.158 140.176c1.135 1.893 2.874 4.191 5.395 6.084.103.074.206.147.302.228 1.65-.367 3.331-.933 3.766-1.733 1.467-2.7-1.953-20.602-1.953-20.602l-8.933 3.399s9.589 4.168 1.423 12.624" opacity=".36"/><path fill="#b45f00" d="M61.354 127.838s1.754 7.06 3.818 5.013c1.857-1.835 3.715-4.822 4.113-3.905.833 1.908-1.474 6.914 3.383 6.892l.648-12.536-11.962 4.528z" opacity=".36"/><path fill="#575771" d="M74.054 144.66c-5.145-.36-6.14-7.626-18.957-11.809.081.183 2.631 3.824 4.503 6.921 1.099 1.813 2.661 5.659 5.97 7.802 4.917 2.95 10.334 1.849 14.085-3.765 0 0-1.481 1.137-5.609.858z"/><path fill="#2b2b37" d="M74.054 144.66c-2.639-.213-5.992-3.949-8.623-6.275 3.729 3.31.147 9.189.147 9.189 1.894 2.348 5.122 10.275 7.739 9.431 2.675-.866 4.444-10.356 6.346-13.196 0 0-1.57 1.181-5.61.858z" opacity=".25"/><path fill="#2b2b37" d="M72.05 146.744c.508 1.182-.583 2.408-.583 2.408 2.69-.294 5.896-1.659 8.203-5.351 0 0-3.67 3.296-7.614 2.943z" opacity=".25"/><path fill="#a4a4a4" d="M64.664 137.768c-1.946-1.563-3.855-2.503-6.589-3.816.133.051 1.968 3.046 2.985 4.653 1.26 2.158 4.238 1.372 3.604-.844z" opacity=".14"/><path fill="#272734" d="M92.465 177.086s6.39.734 12.249-.697c0 0 51.607 12.015 57.341 11.508 5.734-.506 6.832-7.603 6.832-7.603s10.547 16.506 22.384 16.815c0 0-6.295-18.878-6.877-20.786s-19.096-23.92-19.096-23.92l-78.67 17.88 5.837 6.811z" opacity=".4"/><path fill="#f9c273" d="m164.03 112.109-86.453-10.113c-2.395-.288-4.561 1.43-4.88 3.83l-7.7 59.318a4.42 4.42 0 0 0 3.77 4.959l86.719 11.817c2.524.348 4.789-1.393 5.101-3.876l7.442-60.961c.289-2.453-1.498-4.694-4.006-4.974z"/><path fill="#dd8e37" fill-rule="evenodd" d="m68.767 170.08 86.719 11.817c2.524.348 4.812-1.401 5.101-3.876l7.442-60.954c.136-1.029-.129-2.028-.669-2.899-69.282 37.487-36.61 43.558-93.69-10.628-.502.628-.875 1.431-.958 2.248l-7.7 59.319c-.312 2.437 1.36 4.67 3.754 4.981z" clip-rule="evenodd" opacity=".35"/><path fill="#dd8e37" fill-rule="evenodd" d="m68.767 170.103 27.913 3.808 58.806 8.016c2.524.348 4.789-1.393 5.101-3.876l7.442-60.961c.281-2.452-1.498-4.693-4.006-4.973l-6.994-.818-44.644-5.223c-.031.371-.068.749-.114 1.12-2.585 22.317-22.06 37.351-44.348 35.36l-2.934 22.596a4.42 4.42 0 0 0 3.77 4.958z" clip-rule="evenodd" opacity=".35"/><path fill="#dd8e37" fill-rule="evenodd" d="m160.587 178.036 7.442-60.961c.281-2.453-1.498-4.693-4.006-4.973l-6.994-.818a74 74 0 0 1-.767 5.382c-5.139 28.509-31.836 49.5-59.582 57.229l58.806 8.017c2.524.348 4.789-1.393 5.101-3.876" clip-rule="evenodd" opacity=".35"/><path fill="#dd8e37" d="m72.955 104.85 38.404 39.242a4.896 4.896 0 0 0 5.929.825l50.741-29.038a4.6 4.6 0 0 0-.646-1.703l-49.289 29.341a4.5 4.5 0 0 1-5.481-.704l-38.92-39.265c-.32.401-.57.832-.738 1.309z"/><path fill="#dd8e37" d="M113.043 130.741a2.36 2.36 0 0 1 3.628-.159 2.37 2.37 0 0 0 2.669.587 2.36 2.36 0 0 1 3.22 1.669 2.36 2.36 0 0 0 2.017 1.839c1.461.181 2.406 1.649 1.953 3.049a2.345 2.345 0 0 0 .821 2.595 2.345 2.345 0 0 1 .162 3.616 2.34 2.34 0 0 0-.588 2.657 2.347 2.347 0 0 1-1.674 3.208 2.36 2.36 0 0 0-1.845 2.009c-.181 1.462-1.656 2.395-3.059 1.944a2.365 2.365 0 0 0-2.606.819 2.36 2.36 0 0 1-3.628.159 2.37 2.37 0 0 0-2.669-.587 2.36 2.36 0 0 1-3.221-1.669 2.36 2.36 0 0 0-2.016-1.839c-1.461-.18-2.406-1.649-1.953-3.049a2.35 2.35 0 0 0-.822-2.595 2.345 2.345 0 0 1-.161-3.616 2.34 2.34 0 0 0 .587-2.657 2.348 2.348 0 0 1 1.674-3.208 2.355 2.355 0 0 0 1.845-2.009 2.355 2.355 0 0 1 3.059-1.944 2.365 2.365 0 0 0 2.607-.819"/><path fill="#75a152" d="M112.009 128.893a2.36 2.36 0 0 1 3.628-.159 2.37 2.37 0 0 0 2.669.587 2.36 2.36 0 0 1 3.221 1.668 2.36 2.36 0 0 0 2.016 1.839c1.461.181 2.406 1.649 1.953 3.05a2.34 2.34 0 0 0 .822 2.594 2.346 2.346 0 0 1 .161 3.617 2.34 2.34 0 0 0-.587 2.656 2.35 2.35 0 0 1-1.674 3.209 2.355 2.355 0 0 0-1.845 2.008 2.356 2.356 0 0 1-3.059 1.945 2.365 2.365 0 0 0-2.607.818 2.36 2.36 0 0 1-3.628.16 2.37 2.37 0 0 0-2.669-.588 2.358 2.358 0 0 1-3.22-1.668 2.36 2.36 0 0 0-2.017-1.839c-1.461-.181-2.406-1.649-1.953-3.049a2.345 2.345 0 0 0-.822-2.595 2.346 2.346 0 0 1-.161-3.616c.743-.67.979-1.737.588-2.657a2.348 2.348 0 0 1 1.673-3.209 2.35 2.35 0 0 0 1.845-2.008 2.356 2.356 0 0 1 3.06-1.944 2.37 2.37 0 0 0 2.606-.819"/><path fill="#fff" d="m112.809 145.478 9.565-8.438c-.47-.533-1.026-.327-1.337-.141l-.009.001-7.607 5.156-1.839-3.224c-.887-1.486-2.634-.81-3.045-.619z"/><path fill="#575771" d="M168.659 165.842c.678 2.701 3.22 8.36 6.191 11.141 8.476 8.698 20.519 15.876 27.049 3.039 6.441-17.138-4.238-29.549-21.278-25.835 11.276 6.077-9.582 21.446-12.294 9.622-.089.088-.089.675.339 2.026z"/><path fill="#2b2b37" d="M168.659 165.842c.678 2.701 3.221 8.36 6.191 11.141 8.476 8.698 20.519 15.876 27.049 3.039-19.671.426-18.905-22.371-33.233-14.187z" opacity=".25"/><path fill="#2b2b37" d="M168.231 163.904c1.445 11.479 20.519 30.056 30.779 20.096 5.085-4.984 5.682-15.538 3.559-20.265 2.713 11.311-17.806 27.186-24.336 4.815l-1.865-.932c-3.479 1.27-7.628.169-8.137-3.714" opacity=".25"/><path fill="#2b2b37" d="M169.764 168.969s1.784 4.646 5.086 7.934c10.09 1.607 14.247-7.934 10.849-17.307-1.356-3.714.088-6.077.088-6.077-1.614-.257-3.39.169-5.085.675 3.648.763 4.496 7.009.25 10.892-1.017.932-2.203 1.688-3.729 2.283-8.225 2.957-8.815-3.465-8.815-3.465s-.169 1.439 1.356 5.065" opacity=".25"/><path fill="#2b2b37" d="M180.532 154.194c1.865.338 2.97 2.114 3.14 4.308 1.356-1.35 3.56-3.038 6.53-3.295 5.005-.426 9.581 3.633 9.751 3.714-1.275-1.52-3.051-2.532-5.004-3.633-2.204-1.27-6.192-1.857-9.412-1.777-2.632.169-4.577.676-5.005.676zM169.757 168.969c1.275 1.776 1.953.932 4.068.844 2.123-.088 1.953 2.451 5.086 1.35 3.14-1.101 3.309-5.908 3.309-5.908l-1.444-.257c-1.018.932-2.204 1.688-3.73 2.282-8.225 2.958-8.815-3.464-8.815-3.464s0 1.519 1.526 5.153" opacity=".25"/><path fill="#a4a4a4" d="M197.911 167.2c1.187 2.194.339 4.983-1.864 6.165s-3.14-.506-4.327-2.701c-1.186-2.194-2.204-4.139 0-5.321s5.005-.338 6.191 1.857" opacity=".14"/><path fill="#2b2b37" d="M185.53 165.336c0 .168.169.257.339.257 1.783-.257 3.39-.507 4.916-.845q2.542-.506 4.577-1.012c.25-.088.508-.088.678-.169 1.275-.338 2.373-.675 3.309-.932 1.356-.426 2.204-.764 2.543-.844-.089-.169-.17-.338-.251-.507-.339.169-1.187.426-2.462.844-.936.338-2.203.675-3.729 1.013-.258.088-.509.088-.678.169-2.373.594-5.344 1.182-8.903 1.688-.258.088-.428.169-.339.338"/><path fill="#2b2b37" d="M184.431 156.983c.081.088 5.174 2.87 10.26 6.334.169.169.427.257.597.426a81 81 0 0 1 4.835 3.633c1.525 1.27 2.8 2.532 3.648 3.714v-.844a24 24 0 0 0-3.648-3.545 117 117 0 0 0-4.069-3.039c-.169-.169-.427-.257-.597-.425-.339-.257-.678-.507-1.017-.764-4.835-3.295-9.581-5.908-9.662-5.908-.17-.088-.339 0-.339.088-.258.088-.17.257 0 .338z"/><path fill="#575771" d="M179.088 146.598s2.97 3.802 6.102 3.545c.258 0 .428.257.258.506-1.275 2.026-5.255 8.698-5.594 11.479l-.766-15.538z"/><path fill="#2b2b37" d="M179.338 147.354s2.462 3.545 5.514 3.038c.257 0 .427.257.257.426-.936 1.607-3.729 6.415-4.916 9.622-.088.257-.508.257-.508-.088l-.339-13.006z"/><path fill="#e0923d" d="M161.288 165.262s-6.471-1.358-7.37-4.059.627-2.194.627-2.194-3.133.169-4.482-2.283c-1.341-2.451.266-3.376.266-3.376s-1.43.426-1.703-1.607c-.265-2.026 1.165-2.026 1.165-2.026s-1.202-.609-.641-2.848c-.089-1.607 14.601 5.485 14.601 5.485l-1.725 13.172z"/><path fill="#d58500" d="M149.245 147.691c.339 1.27 2.035 1.608 3.14 1.608h1.017l5.683-.507 4.238 6.334 1.275 1.857 2.542 3.714.17 1.857 3.987 4.727 3.56.763c5.594-1.182 6.95-8.529 6.53-9.542-.088-.168-.169-.337-.169-.506-.081-.338-.081-.506 0-.932 0-.257.088-.595.169-1.182 0-.337 0-.594-.088-.844q0-.088-.089-.169c0-.088-.081-.168-.169-.256 0-.081-.089-.081-.089-.169v-.088c-.339-.426-.766-.676-.339-1.182.678-.763.339-2.87-.169-4.14-.258-.594-.509-.675-.678-.932s-.339-.675-.258-2.113c.088-2.87-1.017-4.309-2.292-4.815a22 22 0 0 0-2.801-.844c-3.309-.844-7.717-1.439-8.815-1.52-1.275-.088-2.882-.425-4.577.088-1.695.595-8.225 3.883-9.581 5.065-1.695 1.776-2.631 2.282-2.204 3.714z"/><path fill="#b45f00" d="M154.161 160.528c0 .081.089.169.089.25.258.506.847.932 1.526 1.181 3.22 1.101 8.136.595 11.446.764.339 0 .766 0 1.105.088l1.526 3.038c.427.676 1.186 1.351 1.614 2.026 4.577-.257 11.446-.338 9.662-9.791-.258-1.182.509-2.62-.339-3.714.936 4.309-2.97 9.711-8.055 8.867-2.632-.426-4.577-2.452-7.209-2.621-3.817-.081-7.967 2.958-11.357-.08zM152.208 149.13s4.746-3.376 6.869-5.153c1.695-1.35 3.479-1.607 4.916-1.181 1.445.425 7.208 1.269 8.645.763 1.445-.506 1.784.844.17 1.101-1.614.25-4.407-.594-5.085-.594-.597 0-15.515 5.064-15.515 5.064M150.602 147.691c1.953.507 3.39-1.519 3.559-1.857-.081 1.52-1.783 2.532-3.559 1.857" opacity=".36"/><path fill="#e2a040" d="M152.356 145.636c-.354-.492-.391-1.071-.089-1.284s.841.007 1.194.506c.354.492.391 1.072.089 1.285s-.84-.008-1.194-.507" opacity=".37"/><path fill="#b45f00" d="M166.964 162.554a.63.63 0 0 0 .339.088 91 91 0 0 1 2.631 3.207s.508.764.848 1.013c.427.257 1.614.257 1.105-.425-.427-.676-.766-.764 1.106-.338 1.356.257 2.373-.675 1.864-1.351-.169-.257-.597-.506-1.275-.594-2.8-.338-5.004-1.27-5.174-1.439-.508 0-1.017-.088-1.444-.168z" opacity=".72"/><path fill="#b45f00" d="M149.327 148.029c.508 1.013 2.034 1.27 3.051 1.35l17.379-4.139-3.648-1.857s-3.391-1.101-1.356-4.22c-1.106-.088-2.462-.338-3.899.169-.428.168-1.106.425-1.953.844.597.763 1.186 2.113-.428 3.801-2.543 2.701-6.442 4.896-8.903 4.221-.089-.088-.17-.169-.258-.169z" opacity=".36"/><path fill="#d58500" d="M173.405 145.247s-7.717-1.945-10.259-2.025c-2.632-.089-7.12 3.126-8.307 4.051-1.186 1.013-4.496 1.776-5.255 2.363-.766.595-.678 2.87 1.357 3.714 2.034.844 12.802-3.039 12.802-3.039l10.429 1.013c.088 0 5.085-3.882-.767-6.077"/><path fill="#b45f00" d="M151.022 153.35c2.034.844 12.802-3.038 12.802-3.038l8.225.844-1.784-.844s-6.191-.169-6.699-3.634c-.17-1.607-.17-2.7 0-3.464h-.428c-1.525-.088-3.817 1.101-5.594 2.195.509-.169 1.106-.25 1.445.169.766.932.847 2.789-1.695 4.557-4.327 3.039-7.378 2.87-8.056.933.088.844.597 1.776 1.784 2.282" opacity=".36"/><path fill="#b45f00" d="M151.788 153.012s4.577-1.857 7.459-3.038c2.123-.844 4.157-1.688 6.021-1.351 4.069.676 5.594 1.182 8.395.595 1.526-.338 1.784.844.17 1.101-1.526.169-4.747-.088-5.425-.088-.508 0-16.62 2.789-16.62 2.789z" opacity=".36"/><path fill="#b45f00" d="M149.924 151.405c1.695 1.351 4.156 0 4.576-.257-.936 1.519-3.139 1.688-4.576.257" opacity=".36"/><path fill="#e2a040" d="M152.651 150.312c-.096-.602.125-1.131.494-1.189.368-.059.751.374.847.976s-.125 1.13-.494 1.189c-.368.058-.751-.375-.847-.976" opacity=".37"/><path fill="#d58500" d="M174.422 150.73s-7.038-1.182-8.137-1.519c-1.186-.25-4.157.337-6.102.932-1.865.594-8.307 2.958-9.751 3.376-1.445.426-.339 4.139 2.123 4.308 2.461.169 9.92-2.532 10.937-2.532 1.017.088 9.323 2.452 10.51 2.114s7.378-4.22.428-6.672z"/><path fill="#b45f00" d="M152.039 157.658c.169.088.339.088.508.088 2.462.169 9.663-2.62 10.768-2.532.089 0 1.275 2.114 1.526 2.195 2.292.506 9.662-.088 10.429-.675-1.526.337-10.09-.933-9.921-7.516-1.356 0-3.559.506-5.004.932.509.257 1.106.763 1.445 2.026.427 2.363-9.751 5.49-9.751 5.49z" opacity=".36"/><path fill="#b45f00" d="M151.191 156.22c1.865.763 3.56-1.013 3.818-1.351-.339 1.52-2.204 2.283-3.818 1.351" opacity=".36"/><path fill="#e2a040" d="M153.255 154.407c-.273-.543-.221-1.116.11-1.284.332-.169.826.132 1.098.675s.222 1.115-.11 1.284-.826-.132-1.098-.675" opacity=".37"/><path fill="#d58500" d="M154.161 160.528c.17.844.597 1.182 1.614 1.439 3.73.844 7.629.763 11.446.763 2.123.169 4.408.595 6.531.932 1.614.426 2.122.088 3.22-.425 1.784-.933 2.462-2.621 1.954-4.309-.428-1.438-1.954-2.282-3.56-2.194-4.238-.257-7.968.08-12.124.506-2.204.169-5.934.507-7.717.763-1.614.169-1.695 1.27-1.356 2.533z"/><path fill="#b45f00" d="M155.518 161.879c3.817.932 7.797.844 11.696.844 2.123.169 4.408.594 6.53.932-2.034-.932-7.119-3.127-6.53-6.841-1.783.169-3.56.338-5.424.507 2.97 3.633-3.479 5.152-6.272 4.558" opacity=".36"/><path fill="#b45f00" d="m163.234 155.207 1.275 1.857c3.14-.25 6.272-.426 6.611-.426.678 0 2.123.426 3.648.169 1.526-.169 1.276-1.607-.169-1.101-1.445.507-4.746-.169-6.191-.594-1.017-.257-3.221-.169-5.174.088zM154.581 160.103c1.356 1.438 3.648.506 3.987.256-.936 1.27-2.881 1.27-3.987-.256" opacity=".36"/><path fill="#e2a040" d="M157.131 159.31c-.029-.602.243-1.116.619-1.13.376-.022.701.455.737 1.064.03.602-.243 1.115-.619 1.13-.376.022-.7-.455-.737-1.064" opacity=".37"/><path fill="#b45f00" d="M169.934 165.842c.25.338 1.525 2.114 2.122 2.195 3.31.506 6.869-1.27 8.226-2.701 2.034-2.452 1.444-5.74 1.105-6.753-.258-.506-.258-.844-.169-1.35.088-.595.339-1.945-.258-2.532-.339-.507-.848-.764-.428-1.27.767-.932.251-4.14-.847-4.984 0 .081.847 4.477-.848 5.74 1.275 5.571-1.356 11.817-8.903 11.655" opacity=".36"/><path fill="#575771" d="M170.104 167.112c3.051 2.114 6.021 2.114 8.225 1.438a10.8 10.8 0 0 0 2.203-1.181c.678-.595 1.357-1.27 1.865-2.026 1.865-2.789 2.373-6.334 2.034-8.103-.508-2.363 1.187-6.752 1.187-6.921a19 19 0 0 0-1.865 1.857c-1.695 1.945-2.801 3.971-3.479 5.908-.081.257-.169.595-.25.844a23 23 0 0 0-.848 4.815c-.088 1.35-.847 2.532-1.953 3.127-3.14 1.607-7.119.256-7.119.256z"/><path fill="#2b2b37" d="M170.104 167.112c3.051 2.114 6.021 2.114 8.225 1.438a10.8 10.8 0 0 0 2.204-1.181c.678-.595 1.356-1.27 1.864-2.026 0 0-2.801-2.195-2.461-6.415a23 23 0 0 0-.848 4.815c-.088 1.35-.848 2.532-1.953 3.127-3.052 1.607-7.039.256-7.039.256z" opacity=".25"/><path fill="#2b2b37" d="M170.104 167.112c3.051 2.114 6.021 2.114 8.225 1.438 0 0-1.275-.594-1.275-1.688-2.971 1.608-6.95.25-6.95.25" opacity=".25"/><path fill="#a4a4a4" d="M182.906 156.814c.258-1.607.678-4.557.766-4.646-1.695 1.945-2.8 3.971-3.478 5.909.25 1.945 2.461.844 2.712-1.27z" opacity=".14"/><path fill="#323147" d="M119.808 52.636c.767-3.647.155-11.097-.28-15.413 1.489-1.35 3.273-2.965 4.761-4.323.937 4.28 2.02 9.02 3.045 13.44 2.255 9.386 4.414 19.001 7.186 27.633v7.361c-1.777-.316-3.612-.418-5.3-1.071-.015 0-.029 0-.029-.015-5.417-2.797-7.651-10.907-8.918-16.646-.708-3.37-1.12-8.382-.472-10.966z"/><path fill="#464558" d="M119.786 52.63c.723-3.693.118-11.091-.28-15.414.354-.33 1.636-1.52 1.968-1.82a32.5 32.5 0 0 1-.111 4.242c-2.432 13.659.789 32.228 10.511 40.39l-2.101 1.526c-4.857-3.156-8.269-12.47-9.515-17.96-.708-3.368-1.12-8.381-.472-10.965"/><path fill="#ed8600" d="M142.037 74.575c-17.033.74-20.954-21.49-20.762-25.197.073-1.564.42-3.105.479-4.668.14-2.907-.671-5.747-.671-8.58.206-21.762 34.743-14.4 39.483 5.747 2.844 11.963-5.366 32.088-18.529 32.69z"/><path fill="#d58500" d="M130.001 24.533c19.893-6.004 31.243 10.694 29.489 22.636.073 2.165-4.828 6.216-5.359 8.308-1.732 7.831-6.589 14.62-13.237 19.068-18.433-1.776-20.437-22.738-19.265-29.857-.701-5.813.117-17.608 8.372-20.147z"/><path fill="#b45f00" d="M146.179 70.317c3.744-3.515 6.169-8.168 7.599-13.042.619-2.165-.877-5.475-.877-7.78.073-21.006-24.027-30.415-31.553-9.872-.14-1.218-.272-2.363-.272-3.589.206-21.762 34.743-14.4 39.482 5.747 2.845 11.964-5.365 32.162-18.528 32.69h-.951c1.828-1.218 3.464-2.693 5.085-4.183l.022.022z" opacity=".36"/><path fill="#b45f00" d="M137.563 41.877c1.401-4.382 5.882-7.553 8.027-5.755.412 1.615-6.943 4.492-6.339 7.12.804 3.244 8.476.602 18.315 3.728.671.206.118 2.173-.39 2.694-3.907 2.143-8.734-.228-13.031.462-5.815.646-9.124-2.605-6.582-8.235h-.014z" opacity=".36"/><path fill="#cc5f00" d="M136.539 22.948c-4.71 1.416-9.442 3.604-12.006 8.037-.944 1.519-2.101 3.104-1.917 5.013.302 1.13.118 5.189.413 6.143.472 2.07 1.4 3.134 2.779 4.675 2.233 3.017-3.7 8.617-2.86 11.824-2.83-10.774-1.01-11.523-1.327-14.239-1.444-12.205.288-21.967 14.933-21.439h-.015z" opacity=".36"/><path fill="#b45f00" d="M128.402 45.458c4.422 0 7.842 3.883 7.12 8.22 0 .038-.015.067-.015.104-4.894-1.057-9.928-.756-14.313-3.245.074-.667.199-2.972.332-3.647 1.157-.624 5.129-1.432 6.876-1.432" opacity=".36"/><path fill="#b45f00" d="M160.323 42.009c.597 2.51.707 5.38.39 8.352h-4.194c-.633-17.16-19.737-29.637-34.795-19.369 5.425-15.002 34.265-7.296 38.606 11.017z"/><path fill="#b45f00" d="M130.701 36.805c3.406 2.334 3.7 7.7 1.504 11.017-1.496.205-3.051.205-4.547.205 1.068-2.356 2.513-5.63 1.348-8.037-1.267-2.613-4.555-2.84-4.363-3.493 0 0 4.872-.066 6.066.3zM142.037 41.789c.803-2.694 5.638-2.437 3.744-3.178-.14-.074-3.258-.074-3.744 3.178" opacity=".36"/><g fill="#e2a040" opacity=".72"><path d="M125.011 45.312c-.412-.206-.604-.742-.412-1.145.412-.742 1.547.139 1.621.667.14.602-.803.668-1.223.477h.022zM150.8 44.504c-.207.14-.413.14-.619.14s-.42-.074-.553-.272c-.206-.271 0-.668.273-.873.479-.419 1.15-.14 1.223.14.14.27-.074.667-.346.873h.022zM125.896 40.592c-.074.345-.619.345-.877.272-.273-.074-.804-.345-.745-.742.14-.528 1.828-.14 1.636.477l-.022-.021zM144.137 41.326c-.206.272-.604.477-.95.529-.141 0-.347 0-.413-.206-.074-.205 0-.345.14-.477.206-.14.803-.873 1.223-.418.207.14.14.418 0 .55zM126.493 31.946c2.395-1.695 5.984 2.488 2.373 2.231-.553-.14-3.464-1.423-2.373-2.23" opacity=".36"/></g><path fill="#323147" d="M156.984 48.93s-13.945-1.483-22.303-1.41c-1.533 0-4.311-.065-5.211.067-5.97.83-9.124 3.134-9.124 3.134s3.479 28.022 16.06 29.05c9.389.763 16.192-1.219 19.538-9.086 3.28-7.869 4.614-14.841 1.032-21.748v-.014z"/><path fill="#464558" d="M132.05 49.693c.199 1.527 1.599 1.982 2.69.83.833-.83 1.29-1.857 1.599-3.01h-4.311c-.067.698-.133 1.483 0 2.18h.022"/><path fill="#2b2b37" d="M156.983 48.93s-9.714-1.028-17.792-1.35c.067 0 3.855 6.077 3.781 6.583-.066.763-.633 1.41-1.289 1.784-1.224.697-3.98.895-4.688 3.009-1.032 2.81 2.69 5.189 2.69 7.295-5.557 14.694-17.254-9.189-18.448-12.345-.574 1.028.524 3.332.833 4.419 2.189 7.236 4.504 20.675 14.269 21.438 9.39.764 16.193-1.218 19.539-9.086s4.687-14.84 1.091-21.762v.015z"/><path fill="#464558" d="M124.982 53.4c2.565-.235 4.26-3.59 4.496-5.813-3.221.455-5.484 1.277-7.017 1.974.7 1.784 1.356 3.905 2.521 3.839"/><path fill="#21212b" d="M126.39 67.154c1.547 7.288 9.338 8.764 15.05 5.072 8.991-3.839 12.566-14.378 12.559-23.575 1.555.132 4.459.433 4.459.433 3.604 6.914.759 13.534-2.58 21.417-3.346 7.868-10.09 9.85-19.538 9.086-12.604-1.027-15.935-29.05-15.935-29.05s.258.066.509-.132c0 0 3.132 11.355 5.476 16.757z"/><path fill="#323147" d="M139.516 37.216c3.044.94 5.284-2.422 10.385-.77.066.021.132.036.25.139.133.036.185-.132.059-.198-.066-.022-.184-.125-.25-.14-5.255-2.627-10.112-1.614-10.754-1.387-1.186.426-.707 1.974.31 2.341v.022zM131.748 34.948c-.582-.25-4.71-.903-8.977 1.967-.059.037-.111.052-.177.132-.111.11-.044.301.081.257.066-.022.111-.11.177-.132 4.164-1.901 6.412 1.27 8.896.184.796-.404 1.076-1.99 0-2.415zM141.971 43.704s.14 0 .206-.073c2.241-1.96 3.796-1.886 5.292-1.82 1.363.073 2.653.139 4.142-1.358a.323.323 0 0 0 0-.477c-.14-.133-.346-.14-.479 0-1.223 1.218-2.307 1.145-3.604 1.145-1.548-.074-3.324-.14-5.771 1.96a.42.42 0 0 0-.074.476c.074.14.14.14.273.14h.022zM131.711 43.888s-.147 0-.228-.081c-2.167-2.077-3.59-1.93-5.019-1.776-1.275.08-2.469.227-3.892-1.343a.37.37 0 0 1 0-.529c.148-.154.302-.147.457 0 1.194 1.27 2.167 1.19 3.361 1.116 1.504-.147 3.14-.301 5.454 2.003.147.147.147.375.081.529-.081 0-.147.08-.228.08h.022z"/><path fill="#464558" d="M174.65 61.664c-.663 2.173-2.786 5.564-3.471 8.22-1.091 2.79-2.049 7.289-4.894 8.617-.273.169-.553.338-.847.492-8.528 5.3-16.385 6.305-26.209 5.248l.029-.015c-.788-.051-1.776.675-2.52.279-.804-.543-3.744-1.644-5.867-2.767-.744-.426-1.526-.822-2.071-1.446-.147-.169-.258-.345-.273-.521 13.51-.507 24.882-11.2 27.882-24.037.752-3.083 1.039-6.246.767-9.395-.303-13.901-18.817-28.595-31.899-17.08-3.346 3.546-4.327 9.748-4.518 13.374.044-.91-.487-.984-.722-1.85-.391-1.446-.59-3.677-.642-5.167-.737-6.995.951-12.874 5.97-17.909 9.044-12.72 26.946-13.68 38.318-2.363 8.609 8.565 5.602 18.907 7.459 29.322 1.297 5.68 4.688 11.273 3.472 17.02l.029-.03z"/><path fill="#323147" d="M171.783 69.422c-.714 2.033-5.969 10.04-6.272 10.21-7.274 4.396-29.908 8.572-36.829.69.361.41 7.23-1.168 9.832-2.29 1.135.74 2.336 1.372 3.611 1.827 8.896 3.325 14.085-3.193 17.203-10.562 3.11-6.422 5.159-24.653-2.838-27.178 0 0-1.968-7.406-6.309-10.268 5.896 3.875 12.11-9.556 13.569-16.14 7.658 8.044 5.874 19.516 7.584 29.52 1.275 5.761 1.069 21.872.442 24.198z" opacity=".32"/><path fill="#323147" d="M168.909 72.483c-3.796 3.45-7.945 6.76-12.817 8.514-5.845 2.091-10.997 1.886-17.092 1.291-2.771-.271-6.242.14-9.22-.528 2.034 1.358 5.963 2.76 6.928 3.383.605.412 1.754-.344 2.521-.271 5.085.477 10.996.55 15.942-.668 3.928-.947 8.409-3.383 11.873-5.475 1.828-1.08 3.118-4.925 4.341-8.375-.744.668-1.643 1.424-2.447 2.165l-.022-.022v-.014z"/><path fill="#575770" d="M141.02 76.806c8.262 2.664 13.907-4.177 15.868-11.274 1.865-4.976 3.707-10.084.42-15.002-.472 10.327-6.515 20.94-16.288 26.276M150.056 7.946c-1.091 7.185-11.048 5.71-16.362 7.5-2.978 1.08-6.169 3.04-9.36 4.184 6.626-8.602 14.504-13.438 25.714-11.684z"/><path fill="#323147" d="M171.356 45.246c-1.223-5.197-.553-9.043-1.305-14.313-1.378 7.377-5.299 11.626-5.151 19.377.619 14.554-5.395 28.088-19.134 34.79 7.658.315 15.058-2.24 21.308-6.489 4.311-2.936 3.81-6.914 5.284-10.774 5.322-8.404 1.231-13.975-1.017-22.606l.022.022z"/><path fill="#323147" d="M134.092 23.638a26.6 26.6 0 0 1 1.968-5.065c.877-1.688 1.968-3.104 3.191-4.462 1.224-1.358 2.447-2.694 3.995-3.729 1.297-.873 2.919-1.746 4.547-1.614.48.073.48.741 0 .741-1.496-.14-2.977.741-4.201 1.563-1.496.947-2.653 2.364-3.862 3.59-1.363 1.423-2.52 2.906-3.051 4.322-.604 1.615-1.43 3.244-1.894 4.925-.14.419-.803.206-.671-.271z" opacity=".32"/><path fill="#75a152" d="M122.196 81.65c1.202 2.554 3.022 5.13 5.263 6.855 4.51 2.54 9.979 2.811 15.079 3.141 3.317.052 6.619-.176 9.884.14 2.521.242 4.982.822 7.466.514 6.353-1.197 15.728-6.386 13.149-14.085-.524-1.24-1.534-1.666-2.477-.529-7.982 8.632-20.828 12.368-31.884 8.023-1.776-.419-3.618-.5-5.409-1.072-4.29-1.563-8.086-5.41-10.105-9.46-1.519 1.629-1.74 4.476-.966 6.48z"/><path fill="#568040" d="M173.125 78.208c-.243-.595-.752-1.255-1.437-1.211-.413.029-.708.396-1.032.682-4.798 4.866-10.96 8.72-17.807 9.527-1.673.183-3.434.235-5.122.213-1.29.022-2.572.036-3.862-.22-1.238-.265-2.417-.654-3.663-1.057 1.061 1.703 1.54 3.728.302 5.402l2.034.066c3.317.051 6.619-.177 9.884.14 2.521.241 4.982.821 7.466.513 1.666-.257 3.324-.837 4.887-1.578 2.565-1.138 5.026-2.613 6.766-4.793 1.746-2.106 2.55-5.182 1.562-7.728l.022.036z" opacity=".37"/><path fill="#568040" d="M173.125 78.208c-.243-.595-.752-1.255-1.437-1.211-5.484 4.719-11.277 9.497-18.839 10.209-2.97.235-6.007.425-8.977 0-1.769-.294-3.39-1.072-5.1-1.497-1.776-.419-3.619-.5-5.41-1.072-4.289-1.563-8.085-5.41-10.104-9.46-.192.22-.376.513-.553.719.398 1.754 1.717 3.317 2.491 4.829 1.688 3.985 3.855 7.853 8.726 8.044 1.025.14 2.101.066 3.118.206 1.024.14 1.983.352 3 .403 2.181.14 4.355.323 6.522.507 2.197.051 4.261.69 6.413.844 2.034.066 4.201.132 6.191-.36 1.518-.36 3.132-.969 4.717-1.35 1.23-.521 2.107-.756 3.132.396 3.987-2.055 7.901-6.51 6.132-11.266l-.015.073z"/><path fill="#3e5c2e" d="M127.768 83.044c.767 2.415 2.395 3.868 4.96 4.243 4.408.499 9.162 1.079 13.517.095-2.645.088-5.019-.976-7.48-1.68-5.196-.661-8.749-1.82-12.309-5.946.479 1.072.899 2.217 1.305 3.288zM150.675 88.799c4.371 1.225 8.859-.412 13.171-1.19 2.587-.344 5.085-1.225 6.95-3.075 1.843-2.004 1.157-5.02 1.312-7.428-.59-.212-1.032.243-1.452.64-5.882 6.135-13.952 10.128-22.524 9.783.774.433 1.636.94 2.543 1.27"/><path fill="#75a152" d="m172.616 73.782-.029-.419c-9.08 10.217-24.455 12.03-33.358 10.269-9.736-1.3-14.409-5.66-17.18-13.696-4.297 20.543 47.214 28.624 50.965 3.89l-.412-.044z"/><path fill="#aed888" d="M127.532 81.613c-.051.367.361.477.656.514.398 0 .406-.602.148-.844-.295-.33-.745-.088-.782.33h-.022"/><path fill="#568040" d="m172.557 73.921-.037-.484c-7.606 8.668-21.83 11.97-31.323 10.407 3.633 1.087 8.608 1.615 10.628 5.3 10.62-.874 19.855-6.114 21.189-15.252l-.464.03z" opacity=".37"/><path fill="#568040" d="M173.117 73.811c-.375 2.451-1.989 3.949-3.751 5.35-1.953 6.694-9.006 7.524-16.207 7.296l.059.037c-6.751-.257-3.877 1.908-7.223 2.136-.958-.235-.597-1.292-.037-1.688-2.808 2.282-4.12.029-.538-.918-6.722-.044-15.028-.22-18.138-7.398 3.383 2.635 7.399 4.227 11.947 4.998 5.284.895 11.35.639 18.934-1.027 3.685-1.145 7.149-3.215 10.09-5.645 1.319-2.157 1.968-4.807 3.435-6.965.626.844 1.562 2.848 1.429 3.824"/><path fill="#3e5c2e" d="M171.688 69.987c-2.241 2.246-2.366 6.305-4.879 8.022-2.926 1.923-5.543 3.31-9.154 4.478-2.654.858-6.169 1.438-8.69 1.475 5.631.367 11.977.609 16.532-3.266.626-.654 1.054-1.454 1.82-2.04 1.858-1.285 4.68-2.496 4.245-5.227.074-.961.612-1.886.546-2.774-.148-.198-.31-.47-.457-.646l.029-.022z"/><path fill="#aed888" d="M123.56 81.745c.265.162.176.595.199.874.022.278.759 1.783 1.356.726.508-.91-.222-2.253-.87-2.884-.295-.257-.87-.896-1.334-.66-.472.102-.464 1.247.649 1.944"/><path fill="#e0923d" d="m78.719 105.724-3.243-1.527-16.104 26.474s9.176-8.595 14.07-6.804 6.788-2.76 6.788-2.76l-5.38-2.524s3.169.785 5.35.69c2.182-.096 2.322-3.186 2.322-3.186l-7.584-5.864s2.771.528 4.356-.382-.568-4.125-.568-4.125h-.014z"/><path fill="#d58500" d="M70.029 103.243c-2.189-.477-2.86 1.226-3.066 1.468-.752 1.68-3.965 4.227-3.95 5.827 1.164.441 6.972 1.116 8.18.815 1.07-.961 1.755-2.994 1.755-2.994 2.063.095 7.893 2.047 7.635-1.043-.265-3.112-10.554-4.073-10.554-4.073"/><path fill="#b45f00" d="M71.702 110.927c1.069-.961 1.666-2.466 1.666-2.466 2.064.096 7.48 1.945 7.215-1.145-3.87 2.349-10.148-.367-10.148-.367-3.192 1.747-4.143-1.181-4.143-1.181-1.201 1.57-3.294 3.479-3.28 4.763 1.165.44 7.481.697 8.69.396" opacity=".36"/><path fill="#b45f00" d="M63.388 110.355s3.796-4.228 10.149-1.886l-1.194 2.26z" opacity=".36"/><path fill="#d58500" d="M72.609 108.968c-2.418-1.402-5.992-.301-10.695 2.106-.84.426-1.068 5.145-.353 4.896.973-.338 6.021-.999 6.832-.954 3.847 0 7.304 2.818 11.144 2.649 1.179-.059 2.469-.506 2.985-1.563 1.09-3.002-8.778-6.4-9.913-7.134"/><path fill="#b45f00" d="M79.544 117.672c1.18-.058 2.47-.506 2.985-1.563.037-.11.066-.227.081-.338-4.813 2.011-11.77-4.212-11.77-4.212s-3.509 1.027-4.813-.133c-1.909-1.688 2.314-2.84 2.351-2.884-1.835.374-3.987 1.277-6.449 2.532-.84.426-1.069 5.145-.354 4.896.973-.338 6.022-.999 6.833-.955 3.84 0 7.304 2.819 11.143 2.65z" opacity=".36"/><path fill="#b45f00" d="M79.537 117.65c.213 0 .435-.029.64-.066-.684-.176-1.348-.425-2.004-.668-.737-.278-1.467-.543-2.196-.844a18 18 0 0 1-2.491-1.233c-.782-.462-1.4-.778-2.123-1.306-.287-.206-6.132-.029-6.818.301 0 0 11.16 3.993 14.999 3.824z" opacity=".36"/><path fill="#d58500" d="M67.353 120.682c2.307-.309 4.85.205 7.01.785 6.67 1.798 7.016-2.275 6.227-2.796v-.015c-2.881-1.358-12.595-4.727-14.372-4.91-2.424-.287-2.962-.712-6.95 4.448-2.343 2.745-1.555 4.844-.118 7.251-.036.536 6.42-4.367 8.203-4.756z"/><path fill="#b45f00" d="M67.265 120.704c-.066-.353-.427-.573-1.194-.61-5.299-.271-3.935-5.181-3.906-5.284-.737.697-1.644 1.762-2.896 3.376a6.6 6.6 0 0 0-.76 1.189c-.648 1.057-1.046 2.4-.7 3.428.39 1.152 1.379 2.099 1.342 2.627-.037.521 6.213-4.205 8.114-4.734z" opacity=".36"/><path fill="#b45f00" d="M59.327 123.449c-.199.337-.538 2.671 1.49 1.328 1.377-.807 2.866-2.664 4.31-3.332.716-.33 1.453-.646 2.227-.756 1.127-.154 2.27.125 3.33.521.885.323 1.74.712 2.632 1.006a35 35 0 0 0-.862-.624c-1.504-1.05-3.11-1.784-4.924-2.077-1.54-.243-3.596.095-5.41 1.49-.957.741-2.203 1.431-2.8 2.436z" opacity=".36"/><path fill="#d58500" d="M62.806 121.056c-1.452.741-2.808 3.295-3.648 4.389-1.017 2.173-.199 4.147.214 5.24 1.872-1.533 4.96-3.376 6.161-4.124 1.106-.683 3.641-.932 4.916-1.175 1.364-.264 5.056-1.049 2.993-3.78-1.578-2.084-10.636-.55-10.636-.55"/><path fill="#b45f00" d="M59.372 130.678c1.872-1.534 4.96-3.376 6.161-4.125 1.106-.675 3.641-.932 4.916-1.167 1.371-.264 5.056-1.049 2.993-3.78 0 0 0 2.775-3.464 3.127-3.472.352-7.32-.983-6.965-2.415.302-1.255 2.145-1.563 2.601-1.622-1.606.154-2.808.36-2.808.36-1.452.741-2.808 3.295-3.648 4.389-1.017 2.172-.199 4.147.214 5.24z" opacity=".36"/><path fill="#c16e00" d="M59.372 130.678s.575 2.173 2.587 4.397l3.722-7.81c-1.231-1.079-6.302 3.406-6.302 3.406z"/><path fill="#b45f00" d="M75.587 117.46s-.716 3.42 3.721 2.752c0 0-3.117-.558-3.721-2.752M77.297 113.401s-.693 3.42 3.626 2.759c0 0-2.948.081-3.627-2.759M75.697 105.9s.516 3.229 4.039 1.291c0 0-2.52.999-4.039-1.291M68.585 122.663s1.813 2.716 4.157-.411c0 0-1.843 1.887-4.157.411" opacity=".36"/><path fill="#e2a040" d="M68.813 122.201c-.354-.426-.398-.94-.096-1.145s.833-.029 1.194.396c.354.426.398.94.096 1.145s-.833.03-1.194-.396M76.176 117.929c-.103-.44.096-.77.45-.741.353.029.722.418.825.859.103.44-.096.77-.45.741-.353-.029-.722-.418-.825-.859M78.129 113.21c-.155-.646.147-1.138.663-1.086s1.062.616 1.21 1.262c.154.646-.148 1.138-.664 1.086s-1.062-.616-1.209-1.262M76.065 105.511c-.118-.514.118-.903.524-.866.412.036.84.484.965 1.005.118.514-.118.903-.523.866-.413-.036-.848-.484-.966-1.005" opacity=".37"/></svg>
