<svg width="320" height="260" viewBox="0 0 320 260" fill="none" xmlns="http://www.w3.org/2000/svg">
    <ellipse cx="160.022" cy="233.213" rx="133.022" ry="11.7868" fill="#D0D0D0"/>
    <path fill-rule="evenodd" clip-rule="evenodd" d="M178.544 230.688H146.552V229.003C146.552 228.077 147.437 227.32 148.519 227.32H176.577C177.659 227.32 178.544 228.077 178.544 229.003V230.688Z" fill="#CCC5B9"/>
    <path fill-rule="evenodd" clip-rule="evenodd" d="M165.074 229.846H160.022V174.749C160.022 173.564 161.158 172.596 162.548 172.596C163.937 172.596 165.074 173.564 165.074 174.749V229.846Z" fill="#CCC5B9"/>
    <path fill-rule="evenodd" clip-rule="evenodd" d="M134.826 174.279H190.27C192.156 174.279 193.699 175.795 193.699 177.647C193.699 179.498 192.156 181.015 190.27 181.015H134.826C132.941 181.015 131.397 179.498 131.397 177.647C131.397 175.795 132.941 174.279 134.826 174.279Z" fill="#CCC5B9"/>
    <path fill-rule="evenodd" clip-rule="evenodd" d="M130.62 170.912H194.477C196.365 170.912 197.908 172.428 197.908 174.279C197.908 176.131 196.365 177.647 194.477 177.647H130.62C128.732 177.647 127.188 176.131 127.188 174.279C127.188 172.428 128.732 170.912 130.62 170.912Z" fill="#F3F3F3"/>
    <path d="M204.245 131.718C202.13 131.772 200.074 131.011 198.5 129.592C194.155 125.64 187.38 111.921 185.96 108.986L202.177 84.6477C207.093 96.9745 214.822 114.945 215.06 117.142C215.364 119.949 215.194 125.459 212.627 128.306C210.372 130.481 207.371 131.702 204.245 131.718Z" fill="black"/>
    <path d="M181.663 82.4836L192.464 60.7947L196.773 62.9586L185.973 84.6476L181.663 82.4836Z" fill="black"/>
    <path d="M192.486 60.8944L196.683 63.0015H194.131L192.486 60.8944Z" fill="#01002B"/>
    <path d="M191.459 62.9559L194.125 63.0138L195.655 65.063H193.104L191.459 62.9559Z" fill="#4D4D4D"/>
    <path d="M190.44 65.0039L193.105 65.0606L194.635 67.111H192.084L190.44 65.0039Z" fill="#4D4D4D"/>
    <path d="M189.412 67.0667L192.078 67.1233L193.608 69.1737H191.057L189.412 67.0667Z" fill="#4D4D4D"/>
    <path d="M188.356 69.187L191.021 69.2449L192.551 71.2941H190L188.356 69.187Z" fill="#4D4D4D"/>
    <path d="M187.329 71.2499L189.993 71.3066L191.524 73.3569H188.973L187.329 71.2499Z" fill="#4D4D4D"/>
    <path d="M186.308 73.298L188.973 73.3547L190.505 75.405L187.952 75.4038L186.308 73.298Z" fill="#01002B"/>
    <path d="M185.281 75.3591L187.946 75.417L189.478 77.4662H186.925L185.281 75.3591Z" fill="#01002B"/>
    <path d="M184.272 77.3849L186.937 77.4416L188.468 79.492H185.916L184.272 77.3849Z" fill="#01002B"/>
    <path d="M183.245 79.4479L185.91 79.5046L187.441 81.5537H184.889L183.245 79.4479Z" fill="#01002B"/>
    <path d="M182.225 81.4944L184.891 81.5523L186.421 83.6014H183.87L182.225 81.4944Z" fill="#01002B"/>
    <path d="M191.835 59.2999C192.005 58.96 192.418 58.8223 192.757 58.9927L198.039 61.6458C198.377 61.8154 198.514 62.2263 198.345 62.5646L197.678 63.9039C197.509 64.2438 197.096 64.3815 196.756 64.211L191.474 61.558C191.137 61.3884 191 60.9775 191.168 60.6392L191.835 59.2999Z" fill="#4D4D4D"/>
    <path d="M118.397 62.9588L122.707 60.7948L133.508 82.4837L129.198 84.6477L118.397 62.9588Z" fill="black"/>
    <path d="M122.683 60.8937L118.488 63.0007H121.039L122.683 60.8937Z" fill="#01002B"/>
    <path d="M123.711 62.9559L121.046 63.0138L119.516 65.063H122.067L123.711 62.9559Z" fill="#4D4D4D"/>
    <path d="M124.731 65.0039L122.066 65.0606L120.535 67.111H123.087L124.731 65.0039Z" fill="#4D4D4D"/>
    <path d="M125.758 67.0667L123.094 67.1233L121.562 69.1737H124.114L125.758 67.0667Z" fill="#4D4D4D"/>
    <path d="M126.814 69.1873L124.15 69.2452L122.619 71.2943H125.171L126.814 69.1873Z" fill="#4D4D4D"/>
    <path d="M127.843 71.2499L125.177 71.3066L123.646 73.3569H126.198L127.843 71.2499Z" fill="#4D4D4D"/>
    <path d="M128.863 73.298L126.197 73.3547L124.667 75.405L127.218 75.4038L128.863 73.298Z" fill="#01002B"/>
    <path d="M129.89 75.3591L127.224 75.417L125.694 77.4662H128.245L129.89 75.3591Z" fill="#01002B"/>
    <path d="M130.898 77.3849L128.233 77.4416L126.703 79.492H129.254L130.898 77.3849Z" fill="#01002B"/>
    <path d="M131.925 79.4479L129.26 79.5046L127.73 81.5537H130.281L131.925 79.4479Z" fill="#01002B"/>
    <path d="M132.945 81.4944L130.281 81.5523L128.75 83.6014H131.301L132.945 81.4944Z" fill="#01002B"/>
    <path d="M124.002 60.6394C124.171 60.9777 124.034 61.3885 123.696 61.5582L118.414 64.2112C118.075 64.3816 117.662 64.2439 117.492 63.9041L116.825 62.5647C116.657 62.2264 116.794 61.8155 117.131 61.6459L122.413 58.9929C122.753 58.8224 123.166 58.9601 123.335 59.3L124.002 60.6394Z" fill="#4D4D4D"/>
    <path d="M107.621 132.249C103.971 132.163 100.527 130.599 98.1323 127.941C95.7135 124.815 96.0837 119.223 96.6833 116.412C97.1523 114.212 106.044 97.1009 112.45 85.103L128.142 110.971C126.354 113.803 117.851 127.029 112.881 130.607C111.363 131.698 109.515 132.275 107.622 132.249L107.621 132.249Z" fill="black"/>
    <path d="M161.291 173.684C146.281 173.684 121.568 163.073 116.281 160.723L125.501 141.632C125.625 141.373 125.689 141.089 125.689 140.802C125.685 138.935 125.635 129.354 125.073 123.726C124.515 118.129 117.965 91.1369 111.513 84.9602C116.147 82.0578 137.267 69.3766 152.436 69.3766C177.604 69.3766 197.02 76.4966 203.276 83.5595C201.409 89.2151 192.534 116.272 191.41 123.044C190.533 128.988 190.12 134.992 190.176 141C190.176 142.308 193.346 148.981 199.596 160.835C195.456 163.189 176.16 173.684 161.291 173.684Z" fill="#575770"/>
    <path d="M111.434 86.6748C111.234 86.5018 111.129 86.246 111.149 85.9847C111.17 85.7233 111.209 85.2432 111.434 85.1032C116.34 82.0704 141.134 67.4377 156.552 67.4377C155.657 84.0537 159.469 151.93 158.771 173.407C143.47 173.407 121.202 162.723 116.429 160.634C116.22 160.543 116.058 160.371 115.98 160.16C115.902 159.948 115.914 159.714 116.014 159.512L125.24 140.768C125.296 140.655 125.325 140.53 125.325 140.403C125.321 138.934 125.277 129.388 124.719 123.892C124.144 118.22 117.547 92.0617 111.434 86.6748Z" fill="#464558"/>
    <path opacity="0.1" d="M171.389 71.3383C171.338 71.3978 171.284 71.4573 171.232 71.5195C169.616 73.4139 178.338 76.6541 176.505 78.3338C171.164 83.2298 166.053 88.4686 160.344 92.9382C154.864 97.3079 148.779 100.851 142.281 103.456C135.453 106.119 127.981 106.705 121.284 109.701C118.683 100.48 114.977 90.1818 111.433 87.0011C111.234 86.824 111.129 86.5631 111.149 86.2966C111.17 86.0301 111.314 85.7888 111.539 85.645C116.446 82.5549 137.464 69.902 152.882 69.902C159.078 69.9273 165.263 70.4074 171.389 71.3383Z" fill="black"/>
    <path fill-rule="evenodd" clip-rule="evenodd" d="M166.194 64.5278H174.784C174.784 64.5278 177.994 74.7377 179.064 86.8999C180.135 99.0621 179.064 113.177 179.064 113.177C179.064 113.177 178.52 115.99 174.784 117.947C171.047 119.904 166.194 119.916 166.194 119.916C166.194 119.916 168.043 106.069 168.043 92.2217C168.043 78.3748 166.194 64.5278 166.194 64.5278Z" fill="black"/>
    <path fill-rule="evenodd" clip-rule="evenodd" d="M133.999 68.2516C133.999 68.2516 121.376 74.0707 131.846 87.2413C142.316 100.412 172.864 99.939 182.132 85.6483C191.399 71.3576 173.306 63.741 173.306 63.741L133.999 68.2516Z" fill="#464558"/>
    <path fill-rule="evenodd" clip-rule="evenodd" d="M172.329 70.6888H180.919C180.919 70.6888 184.13 80.8987 185.2 93.0609C186.27 105.223 185.2 119.338 185.2 119.338C185.2 119.338 184.656 122.151 180.919 124.108C177.182 126.065 172.329 126.077 172.329 126.077C172.329 126.077 174.178 112.23 174.178 98.3827C174.178 84.5358 172.329 70.6888 172.329 70.6888Z" fill="#464558"/>
    <path opacity="0.3" d="M171.389 71.3374C171.338 71.3969 171.284 71.4564 171.232 71.5186C169.616 73.413 178.338 76.6532 176.505 78.3329C171.164 83.2289 166.053 88.4677 160.344 92.9373C154.864 97.307 148.779 100.85 142.281 103.455C135.453 106.118 127.981 106.704 121.284 109.7C118.683 100.479 114.977 90.1809 111.433 87.0002C111.234 86.8231 111.129 86.5622 111.149 86.2957C111.17 86.0292 111.209 85.246 111.433 85.1022C113.774 83.6284 119.759 79.6972 127.099 76.412C128.005 66.0717 146.482 64.1013 152.882 69.9011C159.078 69.9264 165.263 70.4065 171.389 71.3374Z" fill="black"/>
    <path d="M159.669 148.314C147.9 148.16 136.306 145.435 125.691 140.329L125.481 129.979C130.112 132.366 144.153 138.815 160.709 138.815C171.326 138.972 181.742 135.905 190.592 130.014L190.177 140.423C187.927 141.847 176.763 148.314 159.669 148.314Z" fill="black"/>
    <path fill-rule="evenodd" clip-rule="evenodd" d="M184.095 44.8409C183.845 44.8369 183.598 44.8908 183.372 44.9983C180.939 28.4665 170.084 16 157.06 16C144.054 16 133.211 28.4323 130.758 44.9305C130.58 44.8676 130.392 44.8373 130.204 44.8409C128.334 44.8875 126.903 48.3747 127.008 52.6296C127.11 56.7571 129.328 61.2329 131.168 61.4551C134.255 76.7752 144.677 88.0469 157.06 88.0469C169.442 88.0469 179.863 76.779 182.951 61.4628L182.962 61.4639C184.832 61.5105 187.186 56.8846 187.291 52.6296C187.396 48.3747 185.965 44.8875 184.095 44.8409Z" fill="#575770"/>
    <path fill-rule="evenodd" clip-rule="evenodd" d="M157.161 16.003C157.128 16.0029 157.094 16 157.06 16C144.054 16 133.211 28.4323 130.758 44.9305C130.58 44.8676 130.392 44.8373 130.204 44.8409C128.334 44.8875 126.903 48.3747 127.008 52.6296C127.11 56.7571 129.328 61.2329 131.168 61.4551C134.255 76.7752 144.677 88.0469 157.06 88.0469C157.094 88.0469 157.128 88.0442 157.161 88.0441V16.003Z" fill="#464558"/>
    <path fill-rule="evenodd" clip-rule="evenodd" d="M177.764 46.2084C175.391 43.413 171.122 43.2334 167.747 43.0742H147.032C143.657 43.2334 139.388 43.4131 137.015 46.2084C135.043 48.5315 134.727 53.1074 135.121 55.9991C135.51 58.8534 137.277 62.579 140.389 63.0984C141.029 63.185 141.678 63.1889 142.32 63.11C144.37 62.9801 146.394 62.5743 148.337 61.9036C150.144 61.2077 151.815 60.1886 153.663 59.5934C154.357 59.3701 155.074 59.2285 155.8 59.1714C156.533 59.1138 157.271 59.1391 158.005 59.1423L158.139 59.1428C158.857 59.14 159.573 59.2145 160.275 59.3651C160.559 59.4281 160.839 59.5042 161.116 59.5934C162.964 60.1886 164.635 61.2077 166.442 61.9036C168.385 62.5743 170.409 62.9801 172.459 63.11C173.101 63.1889 173.75 63.185 174.39 63.0984C177.502 62.579 179.268 58.8534 179.658 55.9991C180.052 53.1074 179.736 48.5315 177.764 46.2084Z" fill="#EEBDAA"/>
    <path fill-rule="evenodd" clip-rule="evenodd" d="M157.415 43.0747V59.1366C156.875 59.1333 156.335 59.13 155.799 59.1696C155.073 59.2278 154.356 59.3698 153.663 59.5926C151.813 60.1875 150.144 61.2055 148.338 61.9028C146.394 62.5732 144.369 62.9789 142.318 63.1091C141.677 63.1885 141.029 63.1852 140.389 63.0993C137.276 62.5771 135.512 58.8524 135.12 55.997C134.728 53.1052 135.044 48.5312 137.016 46.2078C139.389 43.4119 143.657 43.2334 147.031 43.0748L157.415 43.0747Z" fill="#D19F93"/>
    <path d="M165.524 49.6692C165.868 49.7777 166.225 49.8357 166.585 49.8416C166.951 49.8677 167.316 49.8879 167.682 49.9161C168.41 49.9723 169.149 50.018 169.872 50.1293L169.909 49.267C169.535 49.2133 169.162 49.1691 168.789 49.1073C168.43 49.0406 168.068 48.9995 167.704 48.9843C166.887 49.01 166.075 49.1012 165.273 49.2571L165.558 50.0395C166.907 49.2823 168.476 49.0177 169.998 49.2906C170.239 49.2997 170.442 49.1127 170.454 48.8711C170.458 48.6309 170.274 48.4293 170.036 48.4134C168.36 48.1679 166.651 48.4778 165.167 49.2959C164.984 49.395 164.901 49.6146 164.973 49.8109C165.047 50.0052 165.25 50.118 165.453 50.0783L166.629 49.9496C166.995 49.8948 167.366 49.8666 167.736 49.8652C168.453 49.8902 169.156 50.1258 169.872 50.1293C170.424 50.132 170.463 49.2748 169.909 49.267C169.177 49.2568 168.445 49.2042 167.713 49.1915C167.347 49.1851 166.98 49.178 166.613 49.1826C166.251 49.1672 165.888 49.2102 165.539 49.31C165.459 49.3304 165.402 49.4012 165.398 49.484C165.395 49.5669 165.446 49.6422 165.524 49.6692L165.524 49.6692Z" fill="#01002B"/>
    <path d="M148.745 49.5825C148.403 49.697 148.047 49.7614 147.687 49.7736C147.322 49.8061 146.957 49.8328 146.592 49.8674C145.865 49.9365 145.126 49.9953 144.406 50.1193L144.354 49.2578C144.726 49.1975 145.099 49.1467 145.471 49.0783C145.828 49.0053 146.19 48.9578 146.554 48.9361C147.37 48.9475 148.184 49.0243 148.989 49.166L148.717 49.9533C147.355 49.2201 145.782 48.9832 144.265 49.2829C144.024 49.2963 143.818 49.1129 143.802 48.8715C143.793 48.6315 143.973 48.4266 144.212 48.4065C145.883 48.1315 147.597 48.4111 149.095 49.203C149.28 49.2988 149.367 49.5169 149.298 49.7145C149.227 49.91 149.027 50.0264 148.823 49.9903L147.645 49.8823C147.278 49.834 146.907 49.8124 146.536 49.8175C145.82 49.8551 145.122 50.1031 144.406 50.1193C143.854 50.1318 143.799 49.2753 144.354 49.2578C145.085 49.2346 145.816 49.1691 146.548 49.1435C146.914 49.1307 147.281 49.1171 147.647 49.1152C148.009 49.0933 148.373 49.1299 148.723 49.2236C148.804 49.2426 148.862 49.3123 148.867 49.3951C148.872 49.4779 148.822 49.5541 148.745 49.5825L148.745 49.5825Z" fill="#01002B"/>
    <ellipse cx="166.963" cy="55.2869" rx="2.07197" ry="2.58997" fill="white" stroke="#01002B" stroke-width="0.7"/>
    <ellipse rx="2.07197" ry="2.58997" transform="matrix(-1 0 0 1 146.947 55.2869)" fill="white" stroke="#01002B" stroke-width="0.7"/>
    <path fill-rule="evenodd" clip-rule="evenodd" d="M117.04 232.056C117.04 232.056 124.12 232.056 127.109 232.056C130.099 232.056 131.2 231.169 133.009 229.522C134.819 227.875 137.061 225.677 137.454 225.213C137.847 224.748 137.906 223.733 137.906 223.164C137.906 222.594 137.434 221.98 137.434 221.98C137.434 221.98 137.434 218.896 137.434 217.945C137.434 216.995 137.041 216.172 136.706 215.983C136.706 215.983 135.624 216.572 133.893 216.066C132.163 215.558 132.477 214.376 130.785 214.376C129.095 214.376 129.055 214.376 127.836 214.376C126.616 214.376 125.475 215.177 125.043 216.488C124.611 217.797 124.452 219.15 123.233 220.627C122.014 222.106 117.57 226.796 117.018 227.43C116.468 228.064 116.017 228.614 116.017 229.415C116.017 230.218 116.017 230.451 116.017 230.916C116.017 231.38 116.301 232.055 117.04 232.056Z" fill="#464558"/>
    <path fill-rule="evenodd" clip-rule="evenodd" d="M207.603 232.056C207.603 232.056 200.523 232.056 197.534 232.056C194.544 232.056 193.443 231.169 191.634 229.521C189.824 227.874 187.582 225.678 187.189 225.212C186.796 224.747 186.737 223.734 186.737 223.163C186.737 222.593 187.209 221.981 187.209 221.981C187.209 221.981 187.209 218.896 187.209 217.945C187.209 216.995 187.603 216.171 187.938 215.98C187.938 215.98 189.019 216.572 190.75 216.065C192.481 215.558 192.166 214.376 193.857 214.376C195.549 214.376 195.587 214.376 196.807 214.376C198.027 214.376 199.167 215.177 199.6 216.487C200.033 217.797 200.19 219.149 201.409 220.627C202.628 222.107 207.073 226.796 207.623 227.429C208.175 228.065 208.627 228.612 208.627 229.415C208.627 230.219 208.627 230.45 208.627 230.915C208.627 231.38 208.342 232.054 207.603 232.056Z" fill="#575770"/>
    <path fill-rule="evenodd" clip-rule="evenodd" d="M200.493 141.531C194.3 142.244 187.9 143.611 183.116 151.294C183.116 151.294 173.707 154.807 159.239 154.718C144.772 154.807 135.364 151.294 135.364 151.294C130.578 143.611 124.178 142.244 117.986 141.531C126.445 145.434 126.76 156.266 126.76 156.266L128.85 175.207H189.63L191.718 156.266C191.718 156.266 192.032 145.434 200.493 141.531Z" fill="black"/>
    <path d="M110.303 182.607C109.9 181.815 109.539 180.998 109.222 180.158C107.59 175.496 106.769 170.523 106.804 165.513L106.783 164.402C106.715 160.286 106.807 155.708 107.91 151.545L108.067 150.98C108.996 147.45 111.095 144.462 113.928 142.637C115.855 141.537 117.992 140.991 120.149 141.043L120.53 141.058C128.388 141.336 133.005 147.193 135.495 152.057C138.27 157.808 139.853 164.195 140.124 170.733C140.161 171.507 140.184 172.283 140.193 173.061C140.247 178.045 139.123 181.949 136.756 184.993C135.776 186.251 134.613 187.311 133.318 188.128C129.795 190.155 125.836 191.018 121.896 190.616C119.133 190.472 116.461 189.447 114.189 187.662C112.597 186.3 111.273 184.578 110.303 182.607Z" fill="black"/>
    <path d="M208.632 181.278C207.914 182.723 206.989 184.021 205.894 185.12C203.823 187.063 201.308 188.3 198.639 188.689C194.849 189.433 190.947 188.949 187.382 187.291C186.065 186.612 184.859 185.684 183.815 184.548C181.295 181.797 179.917 178.098 179.602 173.24C179.569 172.736 179.543 172.232 179.523 171.727L179.497 170.969C179.193 163.775 180.601 156.626 183.572 150.27C186.509 144.495 190.675 141.166 195.958 140.373L196.304 140.324C198.511 139.992 200.757 140.317 202.822 141.267C205.603 142.737 207.802 145.324 208.996 148.519L209.12 148.863C210.785 153.3 211.179 158.433 211.418 162.897C211.823 167.771 211.395 172.686 210.156 177.371C209.815 178.559 209.381 179.709 208.861 180.809L208.632 181.278Z" fill="black"/>
    <path d="M200.154 217.246C200.066 217.65 199.895 218.031 199.653 218.367C198.926 219.24 197.55 219.046 196.441 218.773L188.764 216.882C188.6 216.858 188.447 216.787 188.324 216.677C188.238 216.567 188.182 216.437 188.161 216.299C187.062 211.714 187.345 206.905 186.427 202.281C185.916 199.711 185.037 197.211 184.736 194.61C184.516 191.476 184.72 188.328 185.342 185.251C186.791 185.556 188.256 185.775 189.73 185.907C193.932 186.369 198.287 186.816 202.301 185.51C203.943 184.977 205.771 183.927 207.554 184.13C207.567 185.198 207.411 186.26 207.091 187.278C206.899 188.384 206.7 189.489 206.495 190.592C206.093 192.748 205.666 194.899 205.214 197.044C204.298 201.386 203.279 205.705 202.155 210C201.521 212.424 200.854 214.84 200.154 217.246Z" fill="#575770"/>
    <path d="M125.1 218.751C125.239 219.14 125.456 219.497 125.739 219.799C126.572 220.573 127.914 220.206 128.982 219.794L136.37 216.944C136.529 216.899 136.672 216.809 136.781 216.685C136.852 216.564 136.891 216.428 136.895 216.289C137.408 211.599 136.518 206.862 136.846 202.156C137.029 199.541 137.586 196.948 137.557 194.328C137.379 191.19 136.779 188.092 135.771 185.117C134.371 185.603 132.943 186.007 131.496 186.325C127.379 187.316 123.109 188.312 118.957 187.527C117.258 187.205 115.31 186.396 113.564 186.824C113.685 187.884 113.975 188.919 114.421 189.889C114.752 190.962 115.089 192.033 115.432 193.102C116.103 195.191 116.799 197.271 117.52 199.343C118.979 203.536 120.537 207.693 122.196 211.813C123.133 214.138 124.1 216.451 125.1 218.751Z" fill="#464558"/>
    <path fill-rule="evenodd" clip-rule="evenodd" d="M113.301 236.581C111.594 226.911 108.422 208.964 105.277 191.214C101.244 168.47 97.2562 146.078 96.4349 141.839C95.6514 137.794 94.4808 135.176 92.873 133.609C91.3765 132.149 89.3918 131.586 86.8912 131.586H76.5559C74.0461 131.586 72.0695 132.083 70.5864 133.503C68.9928 135.027 67.8253 137.645 67.0132 141.839C66.2216 145.921 62.2327 168.314 58.1938 191.096C55.0415 208.883 51.8596 226.892 50.1486 236.581H47.2057C48.8962 227.008 52.1282 208.712 55.3326 190.642C59.3531 167.962 63.3349 145.613 64.1623 141.342C65.0887 136.558 66.5188 133.479 68.5301 131.554C70.6507 129.525 73.2892 128.816 76.5559 128.816H86.8912C90.1681 128.816 92.8301 129.615 94.9527 131.682C96.964 133.644 98.391 136.722 99.2859 141.342C100.144 145.771 104.125 168.118 108.138 190.758C111.334 208.79 114.557 227.026 116.242 236.581H113.301Z" fill="#CCC5B9"/>
    <path fill-rule="evenodd" clip-rule="evenodd" d="M274.947 236.581C273.239 226.911 270.068 208.964 266.923 191.214C262.891 168.47 258.902 146.078 258.081 141.839C257.298 137.794 256.127 135.176 254.52 133.609C253.023 132.149 251.038 131.586 248.538 131.586H238.203C235.693 131.586 233.717 132.083 232.232 133.503C230.639 135.027 229.472 137.645 228.66 141.839C227.868 145.921 223.88 168.314 219.842 191.096C216.688 208.883 213.506 226.892 211.796 236.581H208.853C210.543 227.008 213.775 208.712 216.978 190.642C221 167.962 224.982 145.613 225.809 141.342C226.735 136.558 228.166 133.479 230.177 131.554C232.297 129.525 234.936 128.816 238.203 128.816H248.538C251.814 128.816 254.476 129.615 256.598 131.682C258.611 133.644 260.037 136.722 260.933 141.342C261.79 145.771 265.771 168.118 269.785 190.758C272.981 208.79 276.203 227.026 277.889 236.581H274.947Z" fill="#CCC5B9"/>
    <path fill-rule="evenodd" clip-rule="evenodd" d="M56.7976 127.132H268.298C269.869 127.132 271.154 128.269 271.154 129.659C271.154 131.047 269.869 132.184 268.298 132.184H56.7976C55.2261 132.184 53.941 131.047 53.941 129.659C53.941 128.269 55.2261 127.132 56.7976 127.132Z" fill="#9C7A6D"/>
    <path fill-rule="evenodd" clip-rule="evenodd" d="M49.2113 123.765H275.884C277.451 123.765 278.731 124.901 278.731 126.29C278.731 127.679 277.451 128.816 275.884 128.816H49.2113C47.6452 128.816 46.3638 127.679 46.3638 126.29C46.3638 124.901 47.6452 123.765 49.2113 123.765Z" fill="#C08552"/>
    <path fill-rule="evenodd" clip-rule="evenodd" d="M49.2113 123.765H275.884C277.451 123.765 278.731 124.901 278.731 126.29C278.731 127.679 277.451 128.816 275.884 128.816H49.2113C47.6452 128.816 46.3638 127.679 46.3638 126.29C46.3638 124.901 47.6452 123.765 49.2113 123.765Z" fill="#B49082"/>
    <rect x="96.8784" y="111.978" width="39.5698" height="11.7868" rx="5.89338" fill="black"/>
    <rect x="174.335" y="111.978" width="39.5698" height="11.7868" rx="5.89338" fill="black"/>
    <path fill-rule="evenodd" clip-rule="evenodd" d="M239.402 103.559H261.893L258.52 123.765H242.776L242.101 119.72C241.577 119.649 233.838 118.524 233.305 113.998C232.817 109.848 238.822 108.558 240.197 108.318L239.402 103.559ZM240.611 110.799L241.629 116.892L241.577 116.601C241.577 116.601 236.614 115.56 236.614 113.998C236.614 112.437 239.923 110.876 240.474 110.876C240.531 110.876 240.576 110.848 240.611 110.799Z" fill="#5C7AFF"/>
    <path fill-rule="evenodd" clip-rule="evenodd" d="M239.402 103.559H261.893L258.52 123.765H242.776L242.101 119.72C241.577 119.649 233.838 118.524 233.305 113.998C232.817 109.848 238.822 108.558 240.197 108.318L239.402 103.559ZM240.611 110.799L241.629 116.892L241.577 116.601C241.577 116.601 236.614 115.56 236.614 113.998C236.614 112.437 239.923 110.876 240.474 110.876C240.531 110.876 240.576 110.848 240.611 110.799Z" fill="#769FB6"/>
    <path fill-rule="evenodd" clip-rule="evenodd" d="M239.402 103.559H261.893L258.52 123.765H242.776L242.101 119.72C241.577 119.649 233.838 118.524 233.305 113.998C232.817 109.848 238.822 108.558 240.197 108.318L239.402 103.559ZM240.611 110.799L241.629 116.892L241.577 116.601C241.577 116.601 236.614 115.56 236.614 113.998C236.614 112.437 239.923 110.876 240.474 110.876C240.531 110.876 240.576 110.848 240.611 110.799Z" fill="#89A6FB"/>
    <path opacity="0.161482" fill-rule="evenodd" clip-rule="evenodd" d="M251.581 96.7145C251.581 96.7145 253.217 100.996 248.853 98.3201C244.49 95.6441 243.399 89.2217 243.399 89.2217C243.399 89.2217 242.853 84.4049 253.217 77.4473C253.217 77.4473 248.308 75.8417 247.217 72.6305C246.126 69.4193 247.762 65.6729 251.581 65.6729C255.399 65.6729 259.763 65.6729 263.036 75.3065C266.309 84.9401 253.763 84.9401 251.581 86.5457C249.399 88.1513 248.59 88.7698 248.853 91.3625C249.117 93.9551 251.581 96.7145 251.581 96.7145Z" fill="#CCC5B9"/>
    <path fill-rule="evenodd" clip-rule="evenodd" d="M115.962 75.7131C115.962 74.0563 117.305 72.7131 118.962 72.7131H196.311C197.968 72.7131 199.311 74.0563 199.311 75.7131V116.86C199.311 118.517 197.968 119.86 196.311 119.86H118.962C117.305 119.86 115.962 118.517 115.962 116.86V75.7131Z" fill="#F1F1F1"/>
    <path fill-rule="evenodd" clip-rule="evenodd" d="M116.243 121.66C116.243 122.822 117.185 123.765 118.347 123.765H197.487C198.65 123.765 199.592 122.822 199.592 121.66C199.592 120.497 198.65 119.555 197.487 119.555H118.347C117.185 119.555 116.243 120.497 116.243 121.66Z" fill="#E5E2E2"/>
    <path d="M254.316 103.559V111.978" stroke="#5B647D" stroke-width="1.5"/>
    <rect x="251.79" y="110.294" width="5.05147" height="5.89338" rx="1" fill="#5B647D"/>
    <g filter="url(#filter0_i)">
        <path fill-rule="evenodd" clip-rule="evenodd" d="M164.7 95.9701C164.7 92.338 161.755 89.3937 158.123 89.3937C154.491 89.3937 151.547 92.338 151.547 95.9701C151.547 99.6021 154.491 102.546 158.123 102.546C161.755 102.546 164.7 99.6021 164.7 95.9701ZM158.322 107.07C160.497 105.761 161.923 104.258 162.857 102.757C163.158 102.274 162.585 101.732 162.111 102.047C159.652 103.673 156.461 103.677 153.998 102.059C153.523 101.746 152.952 102.288 153.253 102.771C154.188 104.267 155.611 105.765 157.78 107.07C157.947 107.17 158.155 107.17 158.322 107.07Z" fill="#DBDBDB"/>
    </g>
    <path d="M157.915 93.3428C159.313 93.4151 160.699 93.5873 161.937 94.3572C162.678 94.8183 163.118 95.4819 163.131 96.3692C163.152 97.7609 162.16 98.4754 160.861 98.3193C160.314 98.2367 159.774 98.1188 159.243 97.9664C158.303 97.7268 157.373 97.796 156.444 98.0204C155.999 98.128 155.564 98.2861 155.105 98.3314C154.243 98.4164 153.34 98.1121 153.025 97.262C152.611 96.1948 153.011 94.9837 153.978 94.372C155.171 93.5951 156.522 93.4118 157.915 93.3428Z" fill="#F1F1F1"/>
    <path d="M161.479 96.0312C161.486 96.5362 161.139 96.9664 160.72 96.9734C160.347 96.9796 159.978 96.5501 159.972 96.1032C159.966 95.6135 160.3 95.2033 160.72 95.1863C161.139 95.1694 161.472 95.5393 161.479 96.0312Z" fill="#DBDBDB"/>
    <path d="M155.95 96.0312C155.957 96.5362 155.61 96.9664 155.191 96.9734C154.818 96.9796 154.449 96.5501 154.443 96.1032C154.437 95.6135 154.771 95.2033 155.191 95.1863C155.611 95.1694 155.943 95.5393 155.95 96.0312Z" fill="#DBDBDB"/>
    <rect width="35.5848" height="20.0164" transform="matrix(-0.936212 -0.351436 -0.351436 0.936212 104.822 71.4746)" fill="url(#paint0_linear)"/>
    <rect width="29.3098" height="20.0164" transform="matrix(-0.936212 -0.351436 -0.351436 0.936212 88.1633 65.2213)" fill="#DE9434"/>
    <path d="M71.8587 67.5002L81.1296 83.9612L53.6895 73.6606L71.8587 67.5002Z" fill="#F2B554"/>
    <path d="M69.0771 71.3251L60.7231 54.9208L88.1633 65.2213L70.7274 71.9568C70.0967 72.2005 69.3839 71.9276 69.0771 71.3251Z" fill="#C67530"/>
    <path d="M69.4573 70.4289L60.7231 54.9208L88.1633 65.2213L71.0298 71.0306C70.4292 71.2343 69.7686 70.9815 69.4573 70.4289Z" fill="#F2B554"/>
    <rect x="203.812" y="65.0409" width="45.6591" height="25.6832" transform="rotate(-20.5752 203.812 65.0409)" fill="url(#paint1_linear)"/>
    <rect x="225.187" y="57.0171" width="37.6076" height="25.6832" transform="rotate(-20.5752 225.187 57.0171)" fill="#DE9434"/>
    <path d="M246.108 59.941L234.212 81.0622L269.421 67.8456L246.108 59.941Z" fill="#F2B554"/>
    <path d="M249.677 64.8489L260.396 43.8004L225.187 57.0171L247.559 65.6595C248.368 65.9721 249.283 65.622 249.677 64.8489Z" fill="#C67530"/>
    <path d="M249.189 63.6989L260.396 43.8004L225.187 57.0171L247.171 64.471C247.942 64.7324 248.789 64.408 249.189 63.6989Z" fill="#F2B554"/>
    <g opacity="0.8">
        <rect x="219.539" y="33.5342" width="19.347" height="10.8827" transform="rotate(-31.0524 219.539 33.5342)" fill="url(#paint2_linear)"/>
        <rect x="227.827" y="28.5439" width="15.9353" height="10.8827" transform="rotate(-31.0524 227.827 28.5439)" fill="#DE9434"/>
        <path d="M236.769 28.1501L233.44 37.8671L247.092 29.6473L236.769 28.1501Z" fill="#F2B554"/>
        <path d="M238.634 29.9202L241.479 20.3242L227.827 28.5439L237.815 30.4211C238.176 30.489 238.53 30.2726 238.634 29.9202Z" fill="#C67530"/>
        <path d="M238.343 29.4786L241.479 20.3242L227.827 28.5439L237.561 29.9558C237.903 30.0053 238.231 29.8048 238.343 29.4786Z" fill="#F2B554"/>
    </g>
    <g opacity="0.8">
        <rect width="19.347" height="10.8827" transform="matrix(-0.83808 -0.545547 -0.545547 0.83808 110.202 54.7083)" fill="url(#paint3_linear)"/>
        <rect width="15.9353" height="10.8827" transform="matrix(-0.83808 -0.545547 -0.545547 0.83808 102.094 49.4304)" fill="#DE9434"/>
        <path d="M93.1708 48.7232L96.157 58.551L82.8019 49.8575L93.1708 48.7232Z" fill="#F2B554"/>
        <path d="M91.2446 50.4268L88.7385 40.7369L102.094 49.4304L92.0464 50.9562C91.683 51.0114 91.3367 50.7827 91.2446 50.4268Z" fill="#C67530"/>
        <path d="M91.5518 49.9958L88.7385 40.7369L102.094 49.4304L92.3158 50.5C91.973 50.5375 91.6521 50.3257 91.5518 49.9958Z" fill="#F2B554"/>
    </g>
    <defs>
        <filter id="filter0_i" x="151.547" y="89.3937" width="13.1528" height="18.7512" filterUnits="userSpaceOnUse" color-interpolation-filters="sRGB">
            <feFlood flood-opacity="0" result="BackgroundImageFix"/>
            <feBlend mode="normal" in="SourceGraphic" in2="BackgroundImageFix" result="shape"/>
            <feColorMatrix in="SourceAlpha" type="matrix" values="0 0 0 0 0 0 0 0 0 0 0 0 0 0 0 0 0 0 127 0" result="hardAlpha"/>
            <feOffset dy="1"/>
            <feGaussianBlur stdDeviation="1.5"/>
            <feComposite in2="hardAlpha" operator="arithmetic" k2="-1" k3="1"/>
            <feColorMatrix type="matrix" values="0 0 0 0 0 0 0 0 0 0 0 0 0 0 0 0 0 0 0.0650131 0"/>
            <feBlend mode="normal" in2="shape" result="effect1_innerShadow"/>
        </filter>
        <linearGradient id="paint0_linear" x1="50.9413" y1="9.32114" x2="0.829503" y2="10.5669" gradientUnits="userSpaceOnUse">
            <stop stop-color="#DE9434"/>
            <stop offset="1" stop-color="#DE9434" stop-opacity="0"/>
        </linearGradient>
        <linearGradient id="paint1_linear" x1="269.175" y1="77.0009" x2="204.876" y2="78.5994" gradientUnits="userSpaceOnUse">
            <stop stop-color="#DE9434"/>
            <stop offset="1" stop-color="#DE9434" stop-opacity="0"/>
        </linearGradient>
        <linearGradient id="paint2_linear" x1="247.235" y1="38.602" x2="219.99" y2="39.2793" gradientUnits="userSpaceOnUse">
            <stop stop-color="#DE9434"/>
            <stop offset="1" stop-color="#DE9434" stop-opacity="0"/>
        </linearGradient>
        <linearGradient id="paint3_linear" x1="27.6961" y1="5.06778" x2="0.45099" y2="5.7451" gradientUnits="userSpaceOnUse">
            <stop stop-color="#DE9434"/>
            <stop offset="1" stop-color="#DE9434" stop-opacity="0"/>
        </linearGradient>
    </defs>
</svg>
