<svg xmlns="http://www.w3.org/2000/svg" width="150" height="153" fill="none"><path fill="#74A352" d="M73.51 54.25 79.38 50c.5-.36 1-.72 1.58-.96 2.25-.94 4.92.4 6.37 2.37 1.45 1.97 2.02 4.43 2.78 6.75.75 2.32 1.84 4.72 3.9 6.04-2.72.23-5.52.46-8.13-.36-.84-.26-1.64-.63-2.44-1-2.06-.94-4.18-1.93-5.7-3.62-1.46-1.64-2.32-3.92-4.24-4.97h.01Z"/><path fill="#568040" d="M79.38 50a8.01 8.01 0 0 1 1.9-1.08c.06.7.41 1.39.88 1.94.64.75 1.54 1.4 2.52 1.57.85.15 1.72.15 2.58.2l.87.06c.9 1.7 1.38 3.63 1.98 5.47.76 2.32 1.85 4.72 3.9 6.04-2.71.23-5.52.46-8.13-.36-.84-.26-1.64-.63-2.44-1-2.06-.94-4.18-1.93-5.69-3.62-1.46-1.64-2.31-3.9-4.24-4.96L79.37 50Z"/><path fill="#AED888" d="M85.4 51.58c-.95-.07-1.99-.54-2.4-1.44-.2-.45-.22-.93-.13-1.4a6.44 6.44 0 0 1 4.3 2.49c-.52.29-1.17.4-1.78.36Z"/><path fill="#3E5C2E" d="M79.38 50c.5-.36 1-.73 1.58-.97l.24-.09v.02c-.07 1.12.54 2.07 1.33 2.8a11.48 11.48 0 0 0 3.17 1.92c1.05.4 2.15.64 3.24.88.44 1.18.78 2.4 1.17 3.6.75 2.33 1.84 4.72 3.9 6.04-2.72.23-5.52.46-8.13-.36-.84-.26-1.64-.63-2.44-1-2.06-.94-4.18-1.92-5.69-3.62-1.46-1.64-2.31-3.9-4.24-4.96L79.38 50Z"/><path fill="#74A352" d="M94.28 100.88v.35c0 .07 0 .13.02.19v.02l.01.17.01.13V101.8l.02.17v.03l.01.14v.06h.01V102.33a.3.3 0 0 0 .02.06v.14l.03.2.06.48v.04l.01.04a.3.3 0 0 0 .01.06v.02l.06.35.04.28.01.03v.04l.01.03v.04l.02.12v.01l.05.24.07.35.02.1.04.2a3.72 3.72 0 0 0 .07.31l.02.09v.02a.45.45 0 0 0 .03.1l.07.28.03.13.03.12a.12.12 0 0 1 .01.03l.01.04v.01a.64.64 0 0 1 .03.09v.03a.03.03 0 0 1 .01.02l.03.09.07.25.04.16.02.06.1.32.16.5.05.17.07.22.07.19.13.38.05.14.07.2.13.34a.03.03 0 0 0 .01.02 19.33 19.33 0 0 0 .6 1.48h.01a4.03 4.03 0 0 0 .14.34l.3.66.15.3a53.68 53.68 0 0 0 2.24 4.24 58.36 58.36 0 0 0 .76 1.26l.64 1.02a54.59 54.59 0 0 0 1.2 1.82 27.61 27.61 0 0 0 1.41 1.9l.25.32a24.05 24.05 0 0 0 3.75 3.77c4.4 3.49 10.03 4.93 15.14 7.27a38.75 38.75 0 0 1 1.01.5 15.9 15.9 0 0 1 .97.5.38.38 0 0 1 .1.06 26.6 26.6 0 0 1 1.9 1.14 22.93 22.93 0 0 1 2.47 1.9l.14.11.09.08a15 15 0 0 1 .26.25l.03.02.07.08a6.6 6.6 0 0 1 .66.67l.23.25.1.1.16.2.08.1a7 7 0 0 1 .26.3l.08.1a.74.74 0 0 1 .06.1l.03.03a.1.1 0 0 1 .03.04 25.57 25.57 0 0 0 4.58-3.35.7.7 0 0 0-.08-.12l-.15-.25a17.77 17.77 0 0 0-.34-.5l-.08-.1a2.17 2.17 0 0 0-.07-.1l-.17-.23-.16-.21a2 2 0 0 0-.16-.2l-.02-.03a.03.03 0 0 0-.01-.01l-.26-.3-.25-.3-.02-.01-.17-.18-.03-.04a13.3 13.3 0 0 0-.33-.34l-.1-.1a8.23 8.23 0 0 0-.44-.4 1.33 1.33 0 0 0-.1-.1l-.12-.09-.18-.15a3.89 3.89 0 0 0-.2-.17l-.36-.27-.08-.05a12.74 12.74 0 0 0-.78-.54l-.42-.26a12.69 12.69 0 0 0-.64-.36l-.22-.11a2.27 2.27 0 0 0-.22-.12l-.22-.1c-.22-.12-.44-.22-.67-.32l-.46-.19-1.2-.45c-4.74-1.65-10.35-2.18-16.2-4.88a26.8 26.8 0 0 1-6.65-4.1.39.39 0 0 1-.08-.07 8.64 8.64 0 0 1-.54-.51.14.14 0 0 1-.04-.05 4.76 4.76 0 0 1-.28-.29.77.77 0 0 1-.08-.08 3.17 3.17 0 0 1-.2-.22l-.02-.02a3.59 3.59 0 0 1-.16-.18.47.47 0 0 1-.07-.1 8.24 8.24 0 0 1-.35-.4 14.4 14.4 0 0 1-.42-.59l-.2-.3a13.94 13.94 0 0 1-.69-1.14 9.8 9.8 0 0 1-.36-.72l-.15-.33a17.98 17.98 0 0 1-1.4-5.55c-.03-.18-.04-.37-.06-.55l-.04-.54-.02-.55a12.66 12.66 0 0 1-.01-.55v-.4c0-.52.01-1.06.05-1.58l.02-.31v-.12l.04-.4.02-.2.01-.1a1.8 1.8 0 0 1 .03-.23l.01-.14.05-.42.06-.45c0-.03 0-.07.02-.1l.05-.35.03-.19c0-.07.02-.13.03-.2a.68.68 0 0 1 .02-.13l.05-.3.05-.28v-.01l.01-.05.02-.1v-.03l.04-.17.1-.54.08-.38v-.04l.1-.48.13-.56a73.8 73.8 0 0 1 .24-1.01l.21-.87.25-.97 1.02-3.87.25-.98.06-.2.18-.77a80.98 80.98 0 0 0 .55-2.41v-.03l.09-.4.1-.49.07-.4.01-.1.05-.23a41.52 41.52 0 0 0 .43-3.07l.02-.08.01-.15.08-.93v-.01a12.3 12.3 0 0 0 .04-1.06.94.94 0 0 0 0-.18c.02-.44.01-.87 0-1.3l-.02-.33a4.47 4.47 0 0 0-.03-.33 6.46 6.46 0 0 0-.03-.4l-.05-.42a10.74 10.74 0 0 0-.21-1.22 10.63 10.63 0 0 0-.57-1.78l-.05-.12a3.44 3.44 0 0 0-.1-.21 6.89 6.89 0 0 0-.34-.64H94.3a12.61 12.61 0 0 1 .54.58l.19.2.06.07.22.27.22.28a10 10 0 0 1 .66.95l.15.25c.16.27.3.55.43.84a9.56 9.56 0 0 1 .72 2.4l.05.34.02.17a9.43 9.43 0 0 1 .07.76l.01.2v.29c.02.27 0 .54 0 .82v.27l-.03.27a.98.98 0 0 1 0 .1v.02l-.02.18-.05.46v.04l-.03.25-.07.5a1.33 1.33 0 0 1-.04.19v.06l-.05.28-.01.05-.01.04v.03l-.08.39-.02.11-.04.17a1.26 1.26 0 0 1-.04.17.1.1 0 0 1-.01.05s0 0 0 .01a1.15 1.15 0 0 1-.04.16 4.88 4.88 0 0 1-.06.23l-.1.45-.11.4-.57 1.92-.16.52v.01l-.01.03v.01a21.06 21.06 0 0 1-.19.57l-.04.14c-.04.12-.07.25-.12.37v.01a.3.3 0 0 1-.02.06l-.17.57v.01l-.18.57a2.07 2.07 0 0 1-.04.15l-.03.08-.1.35c-.04.2-.1.39-.15.58a30.43 30.43 0 0 0-.15.59c-.05.2-.1.38-.13.58a23.95 23.95 0 0 0-.24 1.19l-.07.47-.02.1v.02a7.95 7.95 0 0 0-.05.42l-.08.82v.1l-.04.71a16.23 16.23 0 0 0 0 1.25Z"/><path fill="#568040" d="M100.33 100.34c-.33 1.44-.61 2.9-.8 4.36a28.18 28.18 0 0 0-.23 3.9 8.2 8.2 0 0 0-1.6 2.08c-.22.4-.4.82-.52 1.26-2.11-4.57-3.42-9.44-2.74-14.37.44-3.19 1.7-6.2 2.5-9.3.82-3.11 1.17-6.53-.15-9.45a11.69 11.69 0 0 0-2.47-3.44h8.27c2.32 3.85 1.28 10.16.41 14.27-.76 3.6-1.87 7.11-2.67 10.68Z"/><path fill="#568040" d="m122.54 133.76.18.08a26.06 26.06 0 0 1 1.02.5 27.05 27.05 0 0 1 3.71 2.22 20.62 20.62 0 0 1 1.73 1.37 3.9 3.9 0 0 1 .22.2 15 15 0 0 1 .29.27l.07.08a6.6 6.6 0 0 1 .66.67l.23.25.1.1.16.2.09.1a7 7 0 0 1 .25.3l.08.1a.74.74 0 0 1 .07.1l.02.03.03.04a25.57 25.57 0 0 0 4.58-3.35l-.07-.12-.16-.24a17.77 17.77 0 0 0-.34-.5l-.08-.11a2.17 2.17 0 0 0-.07-.1l-.17-.23a1.81 1.81 0 0 0-.1-.14l-.06-.07a2 2 0 0 0-.16-.2l-.02-.02a.03.03 0 0 0-.01-.02 8.4 8.4 0 0 0-.16-.2 1.14 1.14 0 0 0-.1-.1c-.07-.1-.16-.2-.25-.29l-.02-.02-.16-.18-.04-.04a13.3 13.3 0 0 0-.33-.33.61.61 0 0 0-.05-.05l-.05-.05-.27-.26-.16-.14a2.96 2.96 0 0 0-.12-.1 2.79 2.79 0 0 0-.1-.1l-.18-.15a3.89 3.89 0 0 0-.22-.16l-.35-.28a.4.4 0 0 0-.07-.05 12.74 12.74 0 0 0-.38-.27 14.45 14.45 0 0 0-.83-.52 12.69 12.69 0 0 0-.64-.37l-.22-.11-.22-.11-.22-.11c-.22-.11-.44-.22-.67-.31l-.46-.2a22.54 22.54 0 0 0-1.2-.45 9.37 9.37 0 0 1-1.89 1.84 10.71 10.71 0 0 1-2.9 1.6Z" opacity=".52"/><path fill="#568040" d="m128.78 137.59.1.09.1.08a4.02 4.02 0 0 1 .33.29l.09.08a15 15 0 0 1 .29.27l.07.08a6.6 6.6 0 0 1 .66.67l.23.25.1.1.16.2.09.1a7 7 0 0 1 .25.3l.08.1a.74.74 0 0 1 .07.1l.02.03a.1.1 0 0 1 .03.04 25.57 25.57 0 0 0 4.58-3.35.7.7 0 0 0-.07-.12l-.16-.25a17.77 17.77 0 0 0-.34-.5l-.08-.1a2.17 2.17 0 0 0-.07-.1l-.17-.23a1.81 1.81 0 0 0-.1-.14l-.06-.07a2 2 0 0 0-.16-.2l-.02-.03a.03.03 0 0 0-.01-.01 8.4 8.4 0 0 0-.25-.3l-.26-.3-.02-.01-.16-.18-.04-.04a13.3 13.3 0 0 0-.33-.34l-.05-.05a.44.44 0 0 0-.05-.04 8.23 8.23 0 0 0-.27-.26l-.16-.15a7.65 7.65 0 0 1-1.22 1.7 10.22 10.22 0 0 1-2.24 1.83 6.36 6.36 0 0 1-.96.46ZM94.44 97.58c.44-3.19 1.68-6.2 2.5-9.3.82-3.11 1.16-6.53-.16-9.46a11.69 11.69 0 0 0-2.47-3.44h8.27c2.33 3.86 1.28 10.17.42 14.28-.76 3.59-1.87 7.1-2.68 10.68-.32 1.44-.6 2.9-.79 4.36-.65 5.1-.05 10.66 3.13 14.71.6.77 1.28 1.47 2.02 2.1-.17.2-.32.41-.46.63a4.75 4.75 0 0 0-.38.66 47.5 47.5 0 0 1-3.5-5.06c-3.74-6.1-6.88-13.08-5.9-20.16Z" opacity=".52"/><path fill="#568040" d="M100.33 100.34c-.33 1.44-.61 2.9-.8 4.36a29.07 29.07 0 0 0-.23 3.5c-.52.3-.93.86-1.2 1.33-.22.37-.42.78-.52 1.2a7.9 7.9 0 0 0-.17 1.69c-2.25-4.7-3.67-9.75-2.97-14.84.44-3.2 1.69-6.2 2.5-9.3.82-3.12 1.17-6.53-.15-9.46a11.69 11.69 0 0 0-2.47-3.44h8.26c2.33 3.86 1.28 10.17.42 14.28-.76 3.6-1.87 7.1-2.68 10.68Z"/><path fill="#3E5C2E" d="M100.33 100.34c-.33 1.44-.61 2.9-.8 4.36l-.04.42c-1.1-.1-2.2.16-3.22.56a6.28 6.28 0 0 0-1.17.6 22.07 22.07 0 0 1-.66-8.7c.44-3.19 1.7-6.2 2.5-9.3.82-3.11 1.17-6.53-.15-9.46a11.69 11.69 0 0 0-2.47-3.44h8.27c2.32 3.86 1.28 10.17.41 14.28-.76 3.59-1.87 7.1-2.67 10.68Z"/><path fill="#AED888" d="M105.16 123.06c-.22-.16-.38-.34-.57-.53-.08-.09-.13-.23-.05-.32.08-.07.2-.05.29-.02.45.13 1.39.5 1.33 1.1a.66.66 0 0 1-.53.03 2.17 2.17 0 0 1-.47-.26Zm19.17 7.45h-.75c.16.2.25.45.23.7-.61.18-1.27-.06-1.83-.35a1.33 1.33 0 0 1-.41-.29c-.11-.13-.17-.3-.12-.46.09-.24.39-.32.64-.37.77-.13 1.61-.25 2.3.12.1.06.2.14.26.25.05.1.05.25-.05.33-.06.07-.17.07-.27.07Z"/><path fill="#74A352" d="M89.42 105.05a17.99 17.99 0 0 0 .05 1.3l.05.66a10.1 10.1 0 0 0 .11.98l.04.31c.02.12.03.24.06.35a1 1 0 0 0 .02.15l.04.26a21.68 21.68 0 0 0 .87 3.44c1.24 3.64 3.39 6.8 5.93 9.7l.46.51.93 1.02a94.6 94.6 0 0 0 4.02 4l1.4 1.33 1.03.98c.84.8 1.69 1.62 2.52 2.45l.02.02 1.34 1.4a.23.23 0 0 1 .04.04l.1.11a.4.4 0 0 1 .05.04l.02.03.4.43.02.03.03.03.02.02.13.14.17.2.1.11.03.03.05.06.15.17.2.23.06.08.32.38.14.16a54.82 54.82 0 0 1 .74.9l.04.06.12.15.39.51.03.05c.04.05.08.1.1.15.06.06.12.13.16.2l.18.25.02.03.02.02.04.06.03.04v.01l.28.39.19.28a13.33 13.33 0 0 1 .2.3l.01.03.08.11.29.45c0 .02.02.04.03.05l.28.47.02.03a.14.14 0 0 0 .03.06l.34.6a2.85 2.85 0 0 1 .1.16v.02l.12.2.12.22v.01l.05.11.16.3a3.94 3.94 0 0 1 .1.2l.29.63.14.32.1.21c0 .04.02.08.04.11l.16.4.1.24.01.05.21.6v.01a17.08 17.08 0 0 1 .36 1.13l.03.13a78.44 78.44 0 0 0 1.62-.46 83.15 83.15 0 0 0 5.57-1.83l.46-.16a34 34 0 0 0-.58-1.04 22.4 22.4 0 0 0-2.1-2.92 18.76 18.76 0 0 0-.58-.67 5.35 5.35 0 0 0-.3-.32 7.2 7.2 0 0 0-.34-.36 14.44 14.44 0 0 0-.44-.46 38.44 38.44 0 0 0-2.93-2.66 67.2 67.2 0 0 0-.61-.5 71.2 71.2 0 0 0-1.64-1.27 138.88 138.88 0 0 0-2.5-1.84c-.54-.38-1.08-.76-1.6-1.15l-.93-.66a76.94 76.94 0 0 1-4.54-3.5l-.4-.33-.32-.28a36.55 36.55 0 0 1-1.56-1.43l-.35-.35-.34-.34a13.47 13.47 0 0 1-.34-.34 20.17 20.17 0 0 1-.64-.7l-.23-.26-.37-.44a24.58 24.58 0 0 1-1.62-2.18l-.02-.03c-.14-.21-.28-.43-.4-.65-1.77-2.9-2.84-6.21-3.34-10.4a18.04 18.04 0 0 1-.07-.66 31.1 31.1 0 0 1-.06-.63l-.04-.44-.04-.55-.04-.78-.03-.61-.02-.73a10.1 10.1 0 0 1-.01-.35v-.21a.42.42 0 0 1 0-.1l-.01-.14V102.13a4.82 4.82 0 0 1 0-.34V101.44l.03-.85a29.88 29.88 0 0 1 .25-3v-.07a.3.3 0 0 1 .02-.06 1.27 1.27 0 0 1 .02-.17 13.69 13.69 0 0 1 .22-1.25l.02-.11.13-.56.04-.15.13-.46.07-.25.14-.46.13-.33.12-.32a12.23 12.23 0 0 1 .9-1.85l-.04-.04a2.8 2.8 0 0 0-.2-.18 2.08 2.08 0 0 0-.18-.15s-.04-.03-.05-.04h-.01v-.01a7.78 7.78 0 0 0-1.6-1 7.2 7.2 0 0 0-.7-.3l-.22-.08a9.55 9.55 0 0 0-.95-.26h-.01l-.63-.1a83.69 83.69 0 0 0-.49 1.79 87.98 87.98 0 0 0-.26.98l-.1.42-.08.3c-.1.42-.21.85-.3 1.28a15.51 15.51 0 0 0-.14.59 18.3 18.3 0 0 0-.3 1.43 46.38 46.38 0 0 0-.67 4.18v.02l-.12 1.2-.03.45a.68.68 0 0 0 0 .16l-.01.05a29.84 29.84 0 0 0-.07 2.81Z"/><path fill="#568040" d="M96.74 121.85c.26-.84.17-1.95 1-2.49l.22-.12c2.38 3.95 6 7.18 11.2 10.9 2.44 1.77 4.95 3.5 7.28 5.43l-.09.04a3.96 3.96 0 0 0-1.81 1.95c-.24.54-.34 1.1-.37 1.68a10.53 10.53 0 0 0 .12 2.04c.06.4.14.78.23 1.17-2.33-4.7-6.22-8.75-10.09-12.43-2.65-2.52-5.42-5.06-7.84-7.82l.14-.35Z" opacity=".52"/><path fill="#AED888" d="M119.36 138.23c1.59 1.9 2.9 3.89 3.88 5.93l.46-.16-.28-.52-.3-.52a22.4 22.4 0 0 0-2.1-2.92 18.76 18.76 0 0 0-.58-.67 5.35 5.35 0 0 0-.3-.32 7.2 7.2 0 0 0-.33-.36 14.44 14.44 0 0 0-.45-.46Z"/><path fill="#568040" d="M94.36 102.43a57.4 57.4 0 0 0 .36 6.75 5.04 5.04 0 0 0-1.55-.23 11.88 11.88 0 0 0-3.28.63c-1.3-6.6.24-13.62 2.1-20.19a8.16 8.16 0 0 1 4.59 2.15c-1.9 3.19-2.21 7.06-2.23 10.77v.11Z"/><path fill="#3E5C2E" d="M94.38 104.52a9.27 9.27 0 0 0-.48-.14 12.38 12.38 0 0 0-1.98-.27 42.12 42.12 0 0 0-2.01-.08h-.5c.07-4.9 1.24-9.9 2.58-14.65a8.15 8.15 0 0 1 4.6 2.16c-1.9 3.18-2.21 7.05-2.23 10.76-.01.76 0 1.5.02 2.21Z"/><path fill="#568040" d="m102 127.73 1.41 1.33a227.7 227.7 0 0 1 2.05 1.95l.02.01a76.91 76.91 0 0 1 1.24 1.24l.23.23.02.02.34.35c.12.1.23.22.34.34l.37.39.08.08a8.61 8.61 0 0 1 .4.43l.03.03.39.43.02.03.04.03.01.02.13.14.17.2.1.11.03.03.4.46.07.08.32.38.14.16.03.04.32.38a7.11 7.11 0 0 1 .38.48l.04.06.12.15.4.51.03.05.1.15.35.48.1.12v.01a22.85 22.85 0 0 1 .29.41l.28.42.07.12a7.38 7.38 0 0 1 .11.16l.29.45.06.1c.1.14.18.28.26.42l.02.03.02.05a1.39 1.39 0 0 1 .4.71l.04.06v.02c.05.06.08.13.12.2l.12.22v.01a8.63 8.63 0 0 1 .31.61 30.09 30.09 0 0 1 .43.95l.1.21.04.1.01.03.01.02.14.37.1.22v.01l.02.05a11.93 11.93 0 0 1 .42 1.25l.14.49.04.13a78.44 78.44 0 0 0 1.62-.46 83.15 83.15 0 0 0 3.08-.96 32.85 32.85 0 0 0-6.3-7.29c-3.08-2.77-6.53-5.28-9.55-7.67a155.07 155.07 0 0 1-2.85-2.29l-.06-.05Z"/><path fill="#3E5C2E" d="m104.98 130.55.18.17.3.29.02.01a76.91 76.91 0 0 1 1.24 1.24l.24.23.02.02.14.15a3 3 0 0 1 .2.2l.33.34.37.39.08.08a8.61 8.61 0 0 1 .36.39.4.4 0 0 1 .04.04l.03.03.39.43.02.03.04.03.01.02.13.14.17.2.1.11a2.09 2.09 0 0 0 .12.13l.31.36.07.08.32.38.14.16.03.04.32.38a7.11 7.11 0 0 1 .38.48l.04.06.12.15.09.11.3.4.04.05.1.15.16.2.18.25.01.03.02.02a.84.84 0 0 1 .07.1l.01.01a22.85 22.85 0 0 1 .29.41l.28.42.07.12c.02 0 .02.02.02.02l.1.14.28.45.06.1c.1.14.18.28.26.42l.02.03.02.05a3.03 3.03 0 0 1 .35.6l.09.17v.02c.05.06.09.13.12.2l.12.22v.01l.22.43a12.72 12.72 0 0 1 .38.81 5.07 5.07 0 0 1 .28.63v.01l.01.02.01.02.14.37.1.22v.01l.02.05a11.93 11.93 0 0 1 .42 1.25l.14.49.04.13a78.44 78.44 0 0 0 1.62-.46 27.35 27.35 0 0 0-.9-2.26 22.82 22.82 0 0 0-2.6-4.55l-.09-.12a27.66 27.66 0 0 0-3.49-3.59c-.64-.55-1.3-1.1-1.92-1.66-.48-.44-.92-.9-1.39-1.35a17.86 17.86 0 0 0-2.3-1.91Z"/><path fill="#AED888" d="M93.66 113.27c-.13-.27-.22-.62-.06-.88.18-.3.64-.33.94-.14.3.19.46.53.57.87.07.25.13.52.15.79.03.25-.01.55-.24.65-.21.09-.44-.06-.6-.22a3.75 3.75 0 0 1-.76-1.06Z"/><path fill="#D8D8D8" d="m38.38 52.32.1.18.08.17.27.57v.01l.06.11.09.18v.02l.02.03.02.04.03.06.06.13.54 1.12.01.02.06.1.2.42.31.65v.01l.04.07.2.42.52 1.06.88 1.82.5 1.01v.02l.37.75.2.42.15.27V62a750.91 750.91 0 0 0 2.02 4.12l.26.51.56 1.15a80.7 80.7 0 0 0 .43.86l2.1 4.26.02.04.88 1.75a1352.78 1352.78 0 0 0 2.7 5.4l.52 1.07.29.56.06.13.44.88.07.12.08.18.46.9a951.51 951.51 0 0 0 2.27 4.5l.4.79 2.33 4.58.2.39a55.46 55.46 0 0 1 .73 1.43l.68 1.33v.01l4.11 7.98a2453.08 2453.08 0 0 0 3.72 7.13 1635.6 1635.6 0 0 0 8.01 15.15l2.1 3.9v.02l.02.02.69 1.28.96 1.76.8 1.5.27.47.23.44.23.4v.01l.47.86.23.43.23.43.65 1.17.01.03a9.06 9.06 0 0 0 .12.2l.06.13 1.6 2.91a202.7 202.7 0 0 1 .52.92l.16.3.96 1.73.42.75.45.82.33.58 1.28 2.28.14.26 1.33-.1a311.96 311.96 0 0 0 2.17-.2c.92-.09 1.83-.18 2.73-.29l-2.69-4.77-1.22-2.18a805.36 805.36 0 0 1-1.94-3.49l-1.33-2.41-.33-.61-.53-.95-.34-.63-.89-1.61-.24-.44-.3-.58-.06-.08v-.01l-.77-1.4v-.02l-1.58-2.93-1.43-2.64-2-3.76c-1.42-2.66-2.82-5.34-4.22-8.01l-2.12-4.09-.01-.02-2.34-4.54-1.26-2.46-.02-.05a825.73 825.73 0 0 1-2.53-4.99l-.62-1.22v-.01l-.5-.98-.72-1.44-.96-1.92v-.01l-.9-1.78c-.17-.37-.35-.74-.54-1.1l-.22-.44v-.01l-1.33-2.7-1.35-2.73-.47-.97a48.97 48.97 0 0 1-.32-.65l-1.64-3.36-.77-1.6-.11-.22a442.41 442.41 0 0 1-1.37-2.8l-.92-1.93-1.2-2.48-.02-.05a2807.12 2807.12 0 0 1-3.2-6.7 13.49 13.49 0 0 1-.11-.23l-.03-.06a4.79 4.79 0 0 1-.12-.24l-.49-1.03-.11-.23-.1-.21a.08.08 0 0 1-.02-.03l-.05-.12-.8-1.67-.08-.19-.44-.93v-.02h-.01v-.02h-.01v-.01h-.01a.58.58 0 0 0-.04-.11 50.34 50.34 0 0 0-.32-.67l-.02-.05-.4-.84-.82-1.76-.1-.2-.58-1.23-.43-.93-.3-.62v-.01l-.11-.23-.08-.18-.13-.28-.16-.34-.2-.4-.07-.16-.36.12-.38.13-5.01 2.62v-.01Z"/><path fill="#D8D8D8" d="m85.78 144.4 1.37 2.48.46.82.33.58 1.28 2.28.14.26 1.33-.1a311.96 311.96 0 0 0 2.17-.2c.92-.09 1.83-.18 2.73-.29l-2.69-4.76a942.5 942.5 0 0 1-3.01-5.41l-.14.14-.44.45-1.66 1.7a52.98 52.98 0 0 0-1.87 2.06Z"/><path fill="#A4A4A4" d="m81 135.7.27.47a43.71 43.71 0 0 0 .46.85l.47.86c.16.29.3.57.47.86l.64 1.17.01.03.12.2.06.13 1.6 2.91a202.7 202.7 0 0 1 .51.92l.17.3.96 1.73.41.75c.7 1.23 1.38 2.46 2.06 3.68l.15.26 1.33-.1a62.93 62.93 0 0 1 1.32-3.3c.29-.66.58-1.3.89-1.95v-.01l-1.22-2.18-1.94-3.5-1.33-2.4a11880967609918.37 11880967609918.37 0 0 0-.85-1.56l-.35-.64-.87-1.6a12.2 12.2 0 0 1-.24-.45 20.15 20.15 0 0 1-.32-.57.76.76 0 0 1-.06-.12l-.76-1.4-1.59-2.93c-.32 1.09-.64 2.16-.99 3.2l-.06.18-.37 1.14-.01.04a138 138 0 0 0-.93 3.03Zm-16.94-32.9c.71-2.4 1.34-5.02 2.28-7.47 3.1 6.19 6.22 12.3 9.4 18.37-.7 1.48-1.45 2.94-1.95 4.48-.28.86-.53 1.73-.79 2.59a1957.47 1957.47 0 0 1-9.1-17.4l.16-.57ZM46.81 67.3c.8-2.25 1.78-4.43 2.62-6.65 4.13 8.7 8.19 17.1 12.23 25.28-.53 1.1-1.06 2.17-1.4 3.26a79.29 79.29 0 0 0-1.28 4.6c-4.42-8.65-8.66-17.12-12.62-25.15l.46-1.33Zm-7.97-14.05-.28-.57-.18-.36 5-2.62.76-.26a2336.68 2336.68 0 0 0 4.32 9.18c-.92 2.7-2.12 5.3-3.1 8.02a1635.95 1635.95 0 0 1-6.25-12.83c-.1-.18-.18-.37-.27-.56Z"/><path fill="#A4A4A4" d="m44.08 49.47-.69.23-5 2.62.17.36.28.57.28.57 2.76 5.69c1.05-2.7 2.2-5.34 3.14-8.07l-.94-1.98Z" opacity=".33"/><path fill="#A4A4A4" d="M43.74 49.97c.1.19.18.39.28.57l.03.08.17.34.05.11.02.05.03.06.02.04.23.47.1.2.1.23.07.14.01.01.28.59.75 1.55 2.07 4.25.29.6.79 1.6.17.37.6 1.21.07.15a1767.99 1767.99 0 0 0 3.29 6.69l1.26 2.54.76 1.54.04.08 1.53 3.08.93 1.85 1.63 3.27.34.67.28.55a610.71 610.71 0 0 0 1.64 3.25 476.62 476.62 0 0 0 1.45 2.87l.06.1c.2.41.4.82.62 1.22a563.04 563.04 0 0 0 1.84 3.62l.76 1.5.47.9v.01l.63 1.22v.01a932.5 932.5 0 0 0 2.57 4.98l.03.05.77 1.49.07.13a1891.98 1891.98 0 0 0 3.4 6.53 1798.79 1798.79 0 0 0 7.7 14.52 1358.19 1358.19 0 0 0 3.79 7l.15.28.31.56.25.48.84 1.52.42.78.74 1.34 1.3 2.38c2.06 3.73 4.04 7.27 5.93 10.62l.68-.08c-2.1-3.72-4.3-7.67-6.6-11.86l-2.01-3.66c-.2-.34-.38-.69-.57-1.03l-.33-.62-.28-.51a254.24 254.24 0 0 1-.82-1.5l-.83-1.54-3.04-5.64a1630.99 1630.99 0 0 1-9.87-18.7l-.02-.02a1682 1682 0 0 1-3.84-7.43v-.01l-.08-.15a177.26 177.26 0 0 0-.62-1.22s0-.01 0-.01l-1.3-2.52-.03-.06a925.09 925.09 0 0 1-2.05-4.03l-.28-.54-.13-.25-1.1-2.18-1.07-2.1-1.25-2.49-.3-.59L58.2 78l-.87-1.74-1.23-2.48-.03-.05-1.08-2.18-1.2-2.43-.02-.04-2.18-4.42-.2-.42c-.3-.58-.58-1.17-.87-1.76l-.26-.54a80.92 80.92 0 0 1-.51-1.04l-1.1-2.24v-.01l-.04-.1-.1-.18-.3-.61v-.02l-1.25-2.58-.66-1.36-.03-.05-.57-1.2-.34-.7-.12-.24-.16-.32-.13-.27-.11-.24-.03-.06a1.9 1.9 0 0 0-.07-.13 5.19 5.19 0 0 0-.12-.26l-.09-.19a77.33 77.33 0 0 0-.28-.57l-.02.03-.06.04-.25.2-.16.13h-.01Z"/><path fill="#A4A4A4" d="M43.74 49.97c.1.19.18.39.28.57l.03.08.17.34.05.11.02.05.03.06.02.04.23.47.1.2.1.23.07.14.01.01.28.59.75 1.55 2.07 4.25.29.6.79 1.6.17.37.6 1.21.07.15a1767.99 1767.99 0 0 0 3.29 6.69l1.26 2.54.76 1.54.04.08 1.53 3.08.93 1.85 1.63 3.27.34.67.28.55a610.71 610.71 0 0 0 1.64 3.25 476.62 476.62 0 0 0 1.45 2.87l.06.1c.2.41.4.82.62 1.22a563.04 563.04 0 0 0 1.84 3.62l.76 1.5.47.9v.01l.63 1.22v.01a932.5 932.5 0 0 0 2.57 4.98l.03.05.77 1.49.07.13a1891.98 1891.98 0 0 0 3.4 6.53 1798.79 1798.79 0 0 0 7.7 14.52 1358.19 1358.19 0 0 0 3.79 7l.15.28.31.56.25.48.84 1.52.42.78.74 1.34 1.3 2.38c2.06 3.73 4.04 7.27 5.93 10.62l.68-.08c-2.1-3.72-4.3-7.67-6.6-11.86l-2.01-3.66c-.2-.34-.38-.69-.57-1.03l-.33-.62-.28-.51a254.24 254.24 0 0 1-.82-1.5l-.83-1.54-3.04-5.64a1630.99 1630.99 0 0 1-9.87-18.7l-.02-.02a1682 1682 0 0 1-3.84-7.43v-.01l-.08-.15a177.26 177.26 0 0 0-.62-1.22s0-.01 0-.01l-1.3-2.52-.03-.06a925.09 925.09 0 0 1-2.05-4.03l-.28-.54-.13-.25-1.1-2.18-1.07-2.1-1.25-2.49-.3-.59L58.2 78l-.87-1.74-1.23-2.48-.03-.05-1.08-2.18-1.2-2.43-.02-.04-2.18-4.42-.2-.42c-.3-.58-.58-1.17-.87-1.76l-.26-.54a80.92 80.92 0 0 1-.51-1.04l-1.1-2.24v-.01l-.04-.1-.1-.18-.3-.61v-.02l-1.25-2.58-.66-1.36-.03-.05-.57-1.2-.34-.7-.12-.24-.16-.32-.13-.27-.11-.24-.03-.06a1.9 1.9 0 0 0-.07-.13 5.19 5.19 0 0 0-.12-.26l-.09-.19a77.33 77.33 0 0 0-.28-.57l-.02.03-.06.04-.25.2-.16.13h-.01Z" opacity=".33"/><path fill="#D8D8D8" d="m38.08 51.86 1.5 3.06 3.49.66 1.7-3.9-1.39-2.94-5.3 3.13Z"/><path fill="#A4A4A4" d="m43.18 55.32 1.58-3.65-1.38-2.93-5.3 3.13.83 1.69a4 4 0 0 1 4.27 1.77Z"/><path fill="#A4A4A4" d="m44.52 51.14-1.14-2.4-5.3 3.12.75 1.53c1.25-.62 2.86-1.7 5.69-2.24Z" opacity=".33"/><path fill="#A4A4A4" d="m49.63 44.9 1.03 2.06h-.02c-.25.32-4.18 2.45-9.04 4.9-4.88 2.46-8.92 4.34-9.32 4.36l-.02.02-1.03-2.06 18.4-9.27Z"/><path fill="#D8D8D8" d="M40.58 49.84c-5.08 2.56-9.27 4.5-9.35 4.34-.08-.16 3.97-2.36 9.05-4.92s9.27-4.5 9.35-4.35c.08.16-3.97 2.37-9.05 4.93Z"/><path fill="#21212B" d="M37.7 50.95 23.44 22.4a1.83 1.83 0 0 1-.17-.58 1.81 1.81 0 0 1 .02-.58c.04-.18.11-.35.2-.5.1-.15.21-.27.37-.37l2.28-1.49a1.08 1.08 0 0 1 .96-.1 1.45 1.45 0 0 1 .8.73L42.4 48.6l-4.7 2.36Z"/><path fill="#323147" d="M23.3 21.24a1.45 1.45 0 0 1 .35-.7.96.96 0 0 1 .09-.1l.1-.07 2.29-1.5.23-.11a.48.48 0 0 1 .08-.02l.1-.02.07-.02h.13a1.03 1.03 0 0 1 .2.02l.06.02c.02 0 .04 0 .05.02h.04l.07.04c.02 0 .04 0 .06.02l.03.02c.01 0 .03 0 .03.02a.08.08 0 0 1 .04.02h.02v.01l.02.01.05.03.03.03.08.06.02.02.04.04.02.02.02.02.05.06.12.15a2.17 2.17 0 0 1 .1.17L39.6 42.98l2.64 5.3.15.28v.02h.01l-4.7 2.37-.02-.02-.13-.28-1.03-2.05-.97-1.94-7.28-14.58.01-.03-.01.02-1.09-2.18-3.4-6.82-.02-.03-.12-.25-.01-.01a.17.17 0 0 1-.02-.04l-.01-.01a1.36 1.36 0 0 0-.08-.16l-.02-.05-.01-.02v-.01a.2.2 0 0 0-.02-.03l-.01-.03-.01-.01v-.01l-.01-.01a1.83 1.83 0 0 1-.17-.58 1.81 1.81 0 0 1 .02-.58Zm8.68 12.3-1.25 2.14 2.19.04 1.26-2.15-2.2-.04Zm.26-4.23-2.35-.03-1.3 2.24 2.45.02 1.2-2.23Zm1.62 8.39-1.12 1.92 2.38.04 1.12-1.9-2.38-.06Zm5.37 10.5 1.35-2.27-1.76-.05-.7-.01-1.34 2.27h.24l2.2.07Zm-2.05-4.32c1.63-2.76 1.99-2.15-1.13-2.22l-1.27 2.16 2.4.06Zm-9.15-16.59.92.01 1.28-2.21-1.9-.02h-.49l-1.27 2.2 1.46.02Zm-1.12-4.2 1.23-2.13.11-.2-2.46-.05-1.37 2.36 2.5.03Z"/><path fill="#21212B" d="M27.54 19.04c.06.05.1.12.16.18.16.5.3 1 .4 1.53l-2.32-.05-1.36 2.37 2.49.02 1.23-2.14c.23 1.29.29 2.62.22 3.85l-.02.27h-.5l-1.28 2.21 1.47.02c-.19.9-.46 1.83-.85 2.6l-3.41-6.83-.33-.66a1.83 1.83 0 0 1-.17-.59 1.81 1.81 0 0 1 .02-.57c.04-.19.11-.36.2-.5.1-.15.21-.28.37-.37l2.28-1.5a1.08 1.08 0 0 1 .96-.1c.16.06.32.15.44.27v-.01Zm10.16 31.9-1.18-2.34c.18-.14.34-.3.5-.45l2.22.05 1.35-2.27-1.77-.05.08-.15c.53-1.02.66-1.87.7-2.81l2.8 5.66-4.7 2.36Z" opacity=".37"/><path fill="#464557" d="M42.4 48.58 27.88 19.5c-.26-.53-.79-.88-1.34-.78 1.32-.23 1.71-.39 2.26.2.1.11.18.24.25.38l14.4 28.75-1.05.53Z"/><path fill="#D8D8D8" d="m44.72 50.6-.38.3-5.41 2.68-.05-.1a5.9 5.9 0 0 0-1.46.9c.04.08 2.01-.84 4.42-2.05 2.4-1.21 4.31-2.25 4.28-2.33a9.2 9.2 0 0 0-1.4.6Z"/><path fill="#464557" d="M37.42 54.38c.04.08 2.01-.84 4.42-2.05 2.4-1.2 4.31-2.25 4.28-2.33l3.63 7.63c-.12.15-1.98 1.16-4.28 2.32a44.6 44.6 0 0 1-4.4 2.05h-.01l-3.64-7.62Z"/><path fill="#A4A4A4" d="M41.83 52.34c2.4-1.21 4.32-2.26 4.29-2.33-.02-.04-.64.23-1.4.59l-.38.3-5.41 2.68 1.15-.38 1.76-.86Z" opacity=".37"/><path fill="#A4A4A4" d="m37.42 54.38.04.1.04.07.78 1.65.76 1.6.62 1.3.55 1.16.33.68.05.1.47.97.5 1.03.79 1.6v.02l.45.9a1765.61 1765.61 0 0 0 7.62 15.37l.98 1.96 1.16 2.3.4.77v.01l.23.47.11.22.58 1.14.77 1.53L57.03 94l.31.6L58.56 97a1901.33 1901.33 0 0 0 17.2 32.73L77 132a1521.48 1521.48 0 0 1 1.34 2.47l.6 1.11.78 1.42.1.18a1.94 1.94 0 0 0 .05.1 931.98 931.98 0 0 1 2.07 3.76l1.5 2.72.61 1.1 1.55 2.78.16.27.8 1.45.9 1.6 1.9-.14 1.33-.1a311.96 311.96 0 0 0 2.17-.2 113.48 113.48 0 0 0 2.8-.3l.68-.08 1.02-.12a1113.42 1113.42 0 0 1-7.62-13.63l-1.38-2.5v-.01l-.17-.32-.43-.8-.24-.44a631.78 631.78 0 0 1-1.78-3.27l-.96-1.77-3.68-6.88-3.26-6.21v-.01a1323.16 1323.16 0 0 1-8.48-16.48l-.16-.33a4.4 4.4 0 0 1-.1-.2l-.22-.43-.32-.64-1.24-2.47-1.79-3.57-.47-.96a1389.92 1389.92 0 0 1-3.71-7.5l-.2-.4-1.93-3.97-.73-1.49-.99-2.03-.01-.03-1.16-2.4-.15-.32-.35-.72-.01-.02-.72-1.5-.02-.04L54 66.43l-1.96-4.1-.62-1.3-.75-1.58v-.01l-1.03-2.18-1.03-2.17a39.57 39.57 0 0 0-.58-1.2l-.13-.27a87.22 87.22 0 0 0-.67-1.3l-.03-.04-.03-.07-.19-.39-.07-.15-.5-1.04v-.01l-.28-.56-.02-.04-.01.02-.05.03a1.61 1.61 0 0 1-.13.09l-.03.02a.7.7 0 0 0-.07.04l-.04.02-.02.02-.11.06a1.2 1.2 0 0 0-.1.06l-.21.12-.12.06-.12.07-.13.07-.08.05a.24.24 0 0 0-.05.03.07.07 0 0 1-.02 0l-.04.03-.06.03-.02.01-.04.02a.09.09 0 0 1-.02.01l-.04.02-.03.02-.02.01-.01.01h-.01l-.03.01-.04.02a.03.03 0 0 1-.02.01s-.03.02-.04.02a1.3 1.3 0 0 1-.13.07l-.01.01-.03.02-.15.07-.06.04a.1.1 0 0 0-.04.02.24.24 0 0 0-.06.03l-.04.02-.18.1-.49.25h-.02v.01h-.02l-.01.01h-.01l-.01.01-.36.18-.08.05-.76.38-.36.19h-.02l-.04.02-.31.16-.19.1H41a.06.06 0 0 0-.02.02l-.04.02-.02.01-.08.04a.12.12 0 0 0-.04.01v.01l-.06.02-.02.01-.17.09a.44.44 0 0 0-.05.02l-.07.04-.18.09-.04.02a.8.8 0 0 0-.09.04l-.04.02h-.02v.01h-.02v.01h-.02l-.06.04a3.2 3.2 0 0 1-.17.08l-.06.03h-.02l-.03.02h-.01l-.09.05h-.01a.16.16 0 0 1-.04.02l-.03.02h-.01l-.03.02-.16.07-.06.03h-.02v.01l-.04.02-.11.05h-.01l-.05.03H39l-.1.05h-.02l-.02.02-.15.07a4.9 4.9 0 0 1-.27.12.28.28 0 0 0-.04.02h-.02l-.02.01h-.01l-.03.02h-.01a2.6 2.6 0 0 0-.1.06h-.02l-.1.04-.02.02a.28.28 0 0 1-.04.01.14.14 0 0 1-.04.02h-.01l-.06.03-.05.02-.04.02a.51.51 0 0 1-.09.03s0 0-.01.01l-.07.02-.06.03-.04.01h-.01l-.08.03h-.04l-.01.01Z"/><path fill="#21212B" d="m37.42 54.38.04.1.04.07.78 1.65.76 1.6.62 1.3.55 1.16.33.68.05.1.47.97.5 1.03.79 1.6v.02l.45.9a1765.61 1765.61 0 0 0 7.62 15.37l.98 1.96 1.16 2.3.4.77v.01l.23.47.11.22.58 1.14.77 1.53L57.03 94l.31.6L58.56 97a1901.33 1901.33 0 0 0 17.2 32.73L77 132a1521.48 1521.48 0 0 1 1.34 2.47l.6 1.11.78 1.42.1.18a1.94 1.94 0 0 0 .05.1 931.98 931.98 0 0 1 2.07 3.76l1.5 2.72.61 1.1 1.55 2.78.16.27.8 1.45.9 1.6 1.9-.14 1.33-.1a311.96 311.96 0 0 0 2.17-.2 113.48 113.48 0 0 0 2.8-.3l.68-.08 1.02-.12a1113.42 1113.42 0 0 1-7.62-13.63l-1.38-2.5v-.01l-.17-.32-.43-.8-.24-.44a631.78 631.78 0 0 1-1.78-3.27l-.96-1.77-3.68-6.88-3.26-6.21v-.01a1323.16 1323.16 0 0 1-8.48-16.48l-.16-.33a4.4 4.4 0 0 1-.1-.2l-.22-.43-.32-.64-1.24-2.47-1.79-3.57-.47-.96a1389.92 1389.92 0 0 1-3.71-7.5l-.2-.4-1.93-3.97-.73-1.49-.99-2.03-.01-.03-1.16-2.4-.15-.32-.35-.72-.01-.02-.72-1.5-.02-.04L54 66.43l-1.96-4.1-.62-1.3-.75-1.58v-.01l-1.03-2.18-1.03-2.17a39.57 39.57 0 0 0-.58-1.2l-.13-.27a87.22 87.22 0 0 0-.67-1.3l-.03-.04-.03-.07-.19-.39-.07-.15-.5-1.04v-.01l-.28-.56-.02-.04-.01.02-.05.03a1.61 1.61 0 0 1-.13.09l-.03.02a.7.7 0 0 0-.07.04l-.04.02-.02.02-.11.06a1.2 1.2 0 0 0-.1.06l-.21.12-.12.06-.12.07-.13.07-.08.05a.24.24 0 0 0-.05.03.07.07 0 0 1-.02 0l-.04.03-.06.03-.02.01-.04.02a.09.09 0 0 1-.02.01l-.04.02-.03.02-.02.01-.01.01h-.01l-.03.01-.04.02a.03.03 0 0 1-.02.01s-.03.02-.04.02a1.3 1.3 0 0 1-.13.07l-.01.01-.03.02-.15.07-.06.04a.1.1 0 0 0-.04.02.24.24 0 0 0-.06.03l-.04.02-.18.1-.49.25h-.02v.01h-.02l-.01.01h-.01l-.01.01-.36.18-.08.05-.76.38-.36.19h-.02l-.04.02-.31.16-.19.1H41a.06.06 0 0 0-.02.02l-.04.02-.02.01-.08.04a.12.12 0 0 0-.04.01v.01l-.06.02-.02.01-.17.09a.44.44 0 0 0-.05.02l-.07.04-.18.09-.04.02a.8.8 0 0 0-.09.04l-.04.02h-.02v.01h-.02v.01h-.02l-.06.04a3.2 3.2 0 0 1-.17.08l-.06.03h-.02l-.03.02h-.01l-.09.05h-.01a.16.16 0 0 1-.04.02l-.03.02h-.01l-.03.02-.16.07-.06.03h-.02v.01l-.04.02-.11.05h-.01l-.05.03H39l-.1.05h-.02l-.02.02-.15.07a4.9 4.9 0 0 1-.27.12.28.28 0 0 0-.04.02h-.02l-.02.01h-.01l-.03.02h-.01a2.6 2.6 0 0 0-.1.06h-.02l-.1.04-.02.02a.28.28 0 0 1-.04.01.14.14 0 0 1-.04.02h-.01l-.06.03-.05.02-.04.02a.51.51 0 0 1-.09.03s0 0-.01.01l-.07.02-.06.03-.04.01h-.01l-.08.03h-.04l-.01.01Z"/><path fill="#A4A4A4" d="M37.42 54.38c.08.18 7.75-3.67 8.63-4.31.05-.03.07-.06.07-.07l.02.05.85 1.76c-1.07.72-7.82 4.11-8.71 4.38l-.82-1.71-.05-.1Z"/><path fill="#464558" d="M24.87 98.8v.48l.02.42a13.17 13.17 0 0 0 .03.58l.03.22v.1l.03.24.02.14.15 1.06v.02a30.58 30.58 0 0 0 .25 1.28l.1.47.06.29.04.15.05.22.07.29.02.06v.03l.03.1a9 9 0 0 0 .17.64l.36 1.38a66.83 66.83 0 0 0 .36 1.29l.09.34.25.93a23.08 23.08 0 0 1 .34 1.39 76.52 76.52 0 0 0 .34 1.34l.06.26.04.2.05.2.09.4.18.9.06.32.07.4.07.53v.08l.02.08v.12l.04.35v.08a.48.48 0 0 1 0 .07l.01.05v.1l.01.16v.07l.01.16v.14a11.1 11.1 0 0 1-.01.62v.06l-.03.27-.03.28v.05l-.01.05-.05.28c0 .07-.02.14-.04.22l-.04.2-.06.26-.08.27v.02l-.17.54-.03.09-.05.13-.05.13-.14.36a5.17 5.17 0 0 1-.09.22l-.05.13a6.4 6.4 0 0 1-.15.35l-.15.36-.14.35c-.04.08-.08.17-.1.25l-.02.05c-.02.01-.02.03-.03.05l-.14.36-.05.14a.99.99 0 0 0-.04.12l-.02.03-.02.06-.06.16a16.6 16.6 0 0 0-.14.43v.05h-.01v.02l-.01.03a.06.06 0 0 0-.01.03v.01l-.01.03-.04.14v.02a2.6 2.6 0 0 0-.05.17l-.03.13-.02.06v.02a2.06 2.06 0 0 0-.04.17 13.05 13.05 0 0 0-.2 1.52c-.05.82-.06 1.71-.04 2.63.04 1.5.17 3.1.32 4.65l.13 1.4c.11 1.14.21 2.21.27 3.16l.3 3.97c0 .07 0 .15.02.23l.13 1.55.1 1.04h.01c1 .34 2.02.67 3.08.98l.25.07a104.08 104.08 0 0 0 6.27 1.64 124.46 124.46 0 0 0 6.08 1.23s0 0 .01 0a120.8 120.8 0 0 0 1.7-5.82c.3-1.17.6-2.35.87-3.53l.03-.12.15-.65a141.21 141.21 0 0 0 .64-3 129.16 129.16 0 0 0 1.68-10.53l.2-1.94a114.64 114.64 0 0 0 .46-5.83 127.13 127.13 0 0 0-.05-14.56c-.22-3.64-.6-7.27-1.14-10.88a22.1 22.1 0 0 0-.1-.72l-.13-.82a57.82 57.82 0 0 0-.14-.81 56.2 56.2 0 0 0-.14-.8 233.4 233.4 0 0 0-1.86-9.22l-.68-3.14c-.7-3.2-1.35-6.4-1.87-9.63a13.36 13.36 0 0 1-.11-.95 25.62 25.62 0 0 1-.06-1.16c-.03-1 0-2.1.01-3.2l.01-.92a39.88 39.88 0 0 0-.04-2.2 15.65 15.65 0 0 0-.4-2.98 6.88 6.88 0 0 0-.22-.77 6 6 0 0 0-.33-.8 2.85 2.85 0 0 0-.11-.22 4.32 4.32 0 0 0-.48-.72.17.17 0 0 0-.05-.07l-.02-.02a7.03 7.03 0 0 0-.36.16 6.91 6.91 0 0 0-.35.17l-.63.34a.9.9 0 0 0-.09.04l-.27.16-.06.03c-.21.11-.42.23-.62.36h-.01l-.03.02h-.01l-.8.5a19.04 19.04 0 0 0-8.03 10.58l-.03.1-.15.5-.07.26-.17.66a21.12 21.12 0 0 0-.18.76l-.01.03-.14.73-.02.09c-.1.52-.18 1.06-.26 1.61a32.63 32.63 0 0 0-.2 1.95 4.23 4.23 0 0 0-.02.23 4.23 4.23 0 0 0-.01.23l-.02.24c-.17 2.81-.15 5.65-.22 8.47l-.02.66v.1a78.21 78.21 0 0 1-.12 2.19l-.06.85v.03l-.02.2-.03.33-.12 1.1-.08.55c-.05.37-.1.73-.17 1.1a5.04 5.04 0 0 1-.06.33l-.02.11a32.82 32.82 0 0 1-.25 1.19l-.13.54-.1.35-.17.6-.04.15-.68 2.25a.04.04 0 0 1-.02.03l-.13.46-.11.38-.03.1-.14.5-.03.09-.1.36c0 .07-.03.15-.04.22l-.1.42-.08.38-.02.05-.08.45a8.24 8.24 0 0 0-.1.84 8.16 8.16 0 0 0-.02.31v.06l-.02.27v.17a.77.77 0 0 1 0 .1h-.01Z"/><path fill="#2B2B37" d="M24.87 98.8v.48l.02.42a13.17 13.17 0 0 0 .03.58l.03.22v.1l.03.24.02.14.15 1.06v.02a30.58 30.58 0 0 0 .25 1.28l.1.47.06.29.04.15.05.22.07.29.02.06v.03l.03.1a9 9 0 0 0 .17.64l.36 1.38a66.83 66.83 0 0 0 .36 1.29l.09.34.25.93a23.08 23.08 0 0 1 .34 1.39 76.52 76.52 0 0 0 .34 1.34l.06.26.04.2.05.2.09.4.18.9.06.32.07.4.07.53v.08l.02.08v.12l.04.35v.08a.48.48 0 0 1 0 .07l.01.05v.1l.01.16v.07l.01.16v.14a11.1 11.1 0 0 1-.01.62v.06l-.03.27-.03.28v.05l-.01.05-.05.28c0 .07-.02.14-.04.22l-.04.2-.06.26-.08.27v.02l-.17.54-.03.09-.05.13-.05.13-.14.36a5.17 5.17 0 0 1-.09.22l-.05.13a6.4 6.4 0 0 1-.15.35l-.15.36-.14.35c-.04.08-.08.17-.1.25l-.02.05c-.02.01-.02.03-.03.05l-.14.36-.05.14a.99.99 0 0 0-.04.12l-.02.03-.02.06-.06.16a16.6 16.6 0 0 0-.14.43v.05h-.01v.02l-.01.03a.06.06 0 0 0-.01.03v.01l-.01.03-.04.14v.02a2.6 2.6 0 0 0-.05.17l-.03.13-.02.06v.02a2.06 2.06 0 0 0-.04.17 13.05 13.05 0 0 0-.2 1.52c-.05.82-.06 1.71-.04 2.63.04 1.5.17 3.1.32 4.65l.13 1.4c.11 1.14.21 2.21.27 3.16l.3 3.97c0 .07 0 .15.02.23l.13 1.55.1 1.04h.01c1 .34 2.02.67 3.08.98l.25.07a104.08 104.08 0 0 0 6.27 1.64 124.46 124.46 0 0 0 6.08 1.23s0 0 .01 0a120.8 120.8 0 0 0 1.7-5.82c.3-1.17.6-2.35.87-3.53l.03-.12.15-.65a141.21 141.21 0 0 0 .64-3 129.16 129.16 0 0 0 1.68-10.53l.2-1.94a114.64 114.64 0 0 0 .46-5.83 127.13 127.13 0 0 0-.05-14.56c-.22-3.64-.6-7.27-1.14-10.88a22.1 22.1 0 0 0-.1-.72l-.13-.82a57.82 57.82 0 0 0-.14-.81 56.2 56.2 0 0 0-.14-.8 233.4 233.4 0 0 0-1.86-9.22l-.68-3.14c-.7-3.2-1.35-6.4-1.87-9.63a13.36 13.36 0 0 1-.11-.95 25.62 25.62 0 0 1-.06-1.16c-.03-1 0-2.1.01-3.2l.01-.92a39.88 39.88 0 0 0-.04-2.2 15.65 15.65 0 0 0-.4-2.98 6.88 6.88 0 0 0-.22-.77 6 6 0 0 0-.33-.8 2.85 2.85 0 0 0-.11-.22 4.32 4.32 0 0 0-.48-.72.17.17 0 0 0-.05-.07l-.02-.02a7.03 7.03 0 0 0-.36.16 6.91 6.91 0 0 0-.35.17l-.63.34a.9.9 0 0 0-.09.04l-.27.16-.06.03c-.21.11-.42.23-.62.36h-.01l-.03.02h-.01l-.8.5a19.04 19.04 0 0 0-8.03 10.58l-.03.1-.15.5-.07.26-.17.66a21.12 21.12 0 0 0-.18.76l-.01.03-.14.73-.02.09c-.1.52-.18 1.06-.26 1.61a32.63 32.63 0 0 0-.2 1.95 4.23 4.23 0 0 0-.02.23 4.23 4.23 0 0 0-.01.23l-.02.24c-.17 2.81-.15 5.65-.22 8.47l-.02.66v.1a78.21 78.21 0 0 1-.12 2.19l-.06.85v.03l-.02.2-.03.33-.12 1.1-.08.55c-.05.37-.1.73-.17 1.1a5.04 5.04 0 0 1-.06.33l-.02.11a32.82 32.82 0 0 1-.25 1.19l-.13.54-.1.35-.17.6-.04.15-.68 2.25a.04.04 0 0 1-.02.03l-.13.46-.11.38-.03.1-.14.5-.03.09-.1.36c0 .07-.03.15-.04.22l-.1.42-.08.38-.02.05-.08.45a8.24 8.24 0 0 0-.1.84 8.16 8.16 0 0 0-.02.31v.06l-.02.27v.17a.77.77 0 0 1 0 .1h-.01Z" opacity=".25"/><path fill="#2B2B37" d="M24.87 98.8V99.27l.02.43c.01.27.03.53.06.8l.03.34.02.14a23.3 23.3 0 0 0 .18 1.15 33.44 33.44 0 0 0 .39 1.97l.18.74.02.1a9 9 0 0 0 .17.65 110.06 110.06 0 0 0 .78 2.9l.1.35a1.21 1.21 0 0 0 .05.2v.01l.04.13.09.34.25 1 .1.4.1.4.09.4a14.87 14.87 0 0 1 .14.54l.06.26.04.2.05.2.09.4.18.9.06.32.07.4.07.53v.08l.02.08v.12l.04.35v.08a.48.48 0 0 1 0 .07l.01.05v.1l.01.16v.07l.01.16v.14a11.1 11.1 0 0 1-.01.62v.06l-.03.27-.03.28v.05l-.01.05-.05.28c0 .04 0 .08-.02.12 0 .03 0 .06-.02.1a3.54 3.54 0 0 1-.04.2l-.06.27-.02.07a.79.79 0 0 1-.03.1l-.03.1-.03.12-.01.02v.02l-.04.12-.02.06-.07.2-.03.1-.05.13-.05.13-.14.36a5.17 5.17 0 0 1-.09.22l-.05.13a6.4 6.4 0 0 1-.15.35l-.15.36-.14.35a.61.61 0 0 1-.04.09 2.57 2.57 0 0 0-.06.16l-.02.05c-.02.01-.02.03-.03.05l-.14.36-.05.14a.99.99 0 0 0-.04.12l-.02.03-.02.06-.06.16a16.6 16.6 0 0 0-.14.43v.05h-.01v.02l-.01.03a.06.06 0 0 0-.01.03v.01l-.01.03-.04.14v.02a2.6 2.6 0 0 0-.05.17l-.03.13-.02.06-.03.18c-.55 2.85-.1 7.06.25 10.6.1.99.18 1.93.24 2.77a191.29 191.29 0 0 0 .54 6.8c1 .33 2.02.66 3.08.97l.25.07a104.08 104.08 0 0 0 6.27 1.64 124.46 124.46 0 0 0 6.08 1.23s0 0 .01 0h.01l.3-.93.36-1.2.63-2.22a56.29 56.29 0 0 0 .4-1.46v-.01l.3-1.16.3-1.22c.1-.38.2-.76.28-1.15l.03-.12a83.96 83.96 0 0 0 .53-2.41 134.77 134.77 0 0 0 .7-3.57h.01a126.6 126.6 0 0 0 1.88-15.96 126.29 126.29 0 0 0-.04-14.56c-.22-3.64-.6-7.27-1.14-10.88l-.11-.74a72.25 72.25 0 0 0-.26-1.62h-.02a37.6 37.6 0 0 1-2.22-.87 30.05 30.05 0 0 1-3.56-1.77 23.49 23.49 0 0 1-3.87-2.83 21.12 21.12 0 0 1-3.4-4.03 27.79 27.79 0 0 1-3.32-7.28 29.45 29.45 0 0 1-1.23-7.65l-.03.1-.15.5-.07.25a15.89 15.89 0 0 0-.36 1.42v.04l-.15.72-.01.1a28.27 28.27 0 0 0-.44 3.32l-.02.23a4.23 4.23 0 0 0-.02.23 4.23 4.23 0 0 0-.02.24 4.22 4.22 0 0 0-.01.23c-.17 2.81-.14 5.65-.23 8.47v.23a4.5 4.5 0 0 1-.01.44v.1l-.01.3-.09 1.62-.02.26c-.01.29-.04.57-.06.85v.03l-.02.2-.03.33-.02.26-.06.52a8.52 8.52 0 0 0-.04.32l-.04.33a3.77 3.77 0 0 1-.04.22l-.05.37-.08.53-.03.19-.02.1-.05.25-.02.1-.01.1-.06.27a29.7 29.7 0 0 1-.3 1.36c-.1.36-.2.73-.32 1.1-.16.6-.35 1.18-.53 1.77l-.41 1.35-.03.1-.17.6-.14.58-.1.42-.08.37-.02.06-.08.44a10.35 10.35 0 0 0-.12 1.16v.05l-.02.27v.17a.77.77 0 0 1 0 .1h-.01Z" opacity=".25"/><path fill="#2B2B37" d="M24.87 98.8v.48l.02.42a13.17 13.17 0 0 0 .03.58l.03.22v.1l.03.24.02.14.15 1.06v.02a30.58 30.58 0 0 0 .25 1.28l.08.38.02.1.07.28.09.37.06.29.02.06v.02l.03.1a9 9 0 0 0 .17.65 110.06 110.06 0 0 0 .78 2.9l.1.35c0 .06.02.12.04.17a.14.14 0 0 1 .01.04l.04.13.09.34c.1.34.18.67.25 1l.3 1.19c-.01 0 0 0 0 0l.1.4.09.4.05.21.05.2a28.22 28.22 0 0 1 .47 2.63l.01.08a.61.61 0 0 1 .01.12 5 5 0 0 1 .03.33v.02a.7.7 0 0 0 0 .05v.03a.24.24 0 0 1 .01.07.23.23 0 0 1 0 .05l.01.1V116.62c.02.09.02.17.02.25v.1c0 .16 0 .31-.02.46V117.61l-.02.27-.04.28v.1l-.05.28-.02.12-.02.1-.01.07-.03.12-.07.28-.02.07a.79.79 0 0 1-.03.1 2.17 2.17 0 0 1-.06.22v.02l-.01.02-.04.12c0 .02 0 .04-.02.06l-.06.2a.62.62 0 0 1-.04.1l-.04.13-.05.13-.14.36a1.4 1.4 0 0 1-.08.18.2.2 0 0 1-.01.04l-.06.14-.14.35-.14.35-.15.35a1.11 1.11 0 0 1-.04.1l-.07.15-.02.05-.02.05-.14.36-.08.22-.02.04-.01.03-.03.07a7.59 7.59 0 0 0-.12.36l-.08.27-.02.06v.03l-.02.04-.03.14-.01.02a2.6 2.6 0 0 0-.04.16l-.03.13-.02.07-.03.18c-.55 2.84-.1 7.05.25 10.6.1.98.18 1.92.23 2.76a191.29 191.29 0 0 0 .55 6.8 73.62 73.62 0 0 0 3.33 1.05 104.08 104.08 0 0 0 6.27 1.63 124.45 124.45 0 0 0 6.08 1.24s0 0 .01 0l.3-.93.36-1.2c.22-.75.44-1.49.64-2.23a56.29 56.29 0 0 0 .4-1.46l.3-1.17.3-1.22.27-1.14v-.01a.63.63 0 0 0 .03-.11l.15-.65a141.21 141.21 0 0 0 .65-3s0 0-.01 0a65.06 65.06 0 0 1-2.41-2.94 75.85 75.85 0 0 1-5.62-8.3l-.31-.52a80.94 80.94 0 0 1-2.27-4.24 114.8 114.8 0 0 1-5.45-13.04 193.47 193.47 0 0 1-2.19-6.55 135.34 135.34 0 0 1-2-6.94l-.16.48a.04.04 0 0 1-.01.03l-.14.46-.1.38-.04.1-.14.5-.02.1-.1.35-.05.23-.1.42-.08.37-.01.06a14.33 14.33 0 0 0-.15.95l-.04.34-.02.3v.06l-.02.27v.27h-.01Z" opacity=".25"/><path fill="#464558" d="M29.86 142.21c0-.3-.02-.59-.03-.88a92 92 0 0 1 .35 2.72c-.13-.61-.31-1.23-.32-1.84Z"/><path fill="#2B2B37" d="M25.17 102.1a34.45 34.45 0 0 0 .4 2l.18.74.19.75a110.06 110.06 0 0 0 .59 2.2l.2.7.09.35c.02.12.06.23.09.34l.09.34.25 1c.6 2.51 1.39 5.1 1.07 7.64v.1l-.07.4-.02.1a8.22 8.22 0 0 1-.22.88l-.06.2-.07.2-.13.36-.14.36-.15.35a6.4 6.4 0 0 1-.14.35l-.15.36-.15.35-.05.15-.09.2-.14.36a7.79 7.79 0 0 0-.08.22.88.88 0 0 0-.05.13 7.59 7.59 0 0 0-.12.36c-.12.36-.21.73-.29 1.1-.54 2.84-.1 7.06.25 10.6.1.99.18 1.93.24 2.77a191.67 191.67 0 0 0 .54 6.8c1 .33 2.02.66 3.08.97a72.07 72.07 0 0 1-.2-2.17l-.07-.84c-.24-3.73-.15-7.56.82-10.02.42-1.03 1.02-1.98 1.5-3 .62-1.29.8-2.6.76-4.03-.05-1.49-.3-2.96-.27-4.45.02-1.46.1-2.92.11-4.38.01-1.43-.3-2.87-.69-4.24-.57-2.06-1.4-4.04-2.02-6.08a21.9 21.9 0 0 1-.5-1.96c-.55-2.74-.49-5.56-.35-8.33.12-2.81.33-5.63.06-8.44-.22-2.38-.9-4.7-1.48-7.03 0 .2 0 .39-.02.58a55.17 55.17 0 0 1-.18 3.34v.03l-.02.2-.03.33-.03.25-.05.52a8.73 8.73 0 0 0-.04.32v.01l-.04.32-.03.23-.06.36-.08.54-.03.19-.07.34c0 .04 0 .08-.02.11l-.01.1a29.7 29.7 0 0 1-.23 1.08l-.13.54c-.25.97-.55 1.92-.85 2.88-.14.45-.28.9-.4 1.35l-.04.1-.3 1.17c-.04.14-.08.28-.1.42l-.09.38-.01.05a14.33 14.33 0 0 0-.15.95c-.17 1.42-.05 2.97.23 4.55h-.03Z" opacity=".25"/><path fill="#2B2B37" d="m26.95 142.03.02.23.14 1.55.1 1.04h.01c1 .35 2.02.67 3.08.99l.24.07-.26-.25a38.37 38.37 0 0 1-2.38-2.52l-.93-1.08c0-.02-.01-.02-.02-.03Zm-1.8-39.99a23 23 0 0 0 2.15 5.32c.7 1.25 1.48 2.44 2.24 3.65.6.97 1.21 1.96 1.62 3.03.4 1.08.6 2.2.58 3.35-.03 1.26-.39 2.5-.13 3.76.22 1.07.71 2.07.98 3.13.14.54.22 1.1.16 1.67-.07.65-.3 1.25-.6 1.84-.95 1.9-2.36 3.52-3.75 5.13-.66.77-1.36 1.56-1.98 2.4-.34-3.55-.8-7.77-.24-10.62.38-1.99 1.56-3.76 2-5.74.62-2.79-.27-5.66-.94-8.44-.6-2.52-1.6-5.55-2.1-8.47h.01Z" opacity=".25"/><path fill="#21212B" d="m34.03 80.06.03.62.36 3.46V84.21c.36 3.82.6 7.84.35 12.16a68.27 68.27 0 0 0 .17 9.95c.3 3.35.62 6.68.68 10.04a894.1 894.1 0 0 0 .18 7.56c.04 1.34-.4 2.68-.38 4.04a14.42 14.42 0 0 0 .7 4.3c.53 1.6 1.33 3.12 1.5 4.8.24 2.19-.64 4.34-.72 6.54-.05 1.32.18 2.68-.08 3.94a124.45 124.45 0 0 0 6.08 1.24c.62-1.93 1.18-3.87 1.7-5.82v-.01c.3-1.17.6-2.35.87-3.52v-.01l.03-.11a126.55 126.55 0 0 0 3.13-21.97 127.06 127.06 0 0 0-.05-14.55 124.12 124.12 0 0 0-1.24-11.6 55.7 55.7 0 0 0-.27-1.63 235.12 235.12 0 0 0-2-10.02l-.68-3.13c-.7-3.2-1.35-6.4-1.87-9.63a11.3 11.3 0 0 1-.1-.96 21.3 21.3 0 0 1-.07-1.17c-.03-1 0-2.09.01-3.19V60.52a38.4 38.4 0 0 0-.03-2.16 15.54 15.54 0 0 0-.4-3 6.88 6.88 0 0 0-.22-.76 5.85 5.85 0 0 0-.33-.82l-.1-.2a4.24 4.24 0 0 0-.49-.72.16.16 0 0 0-.04-.06l-.02-.03h-.01c-.24.1-.47.21-.7.33l-.01.14-.03.2c-.06.51-.14 1.02-.24 1.52a.93.93 0 0 1-.02.1v.02l-.05.25-.06.3a28.8 28.8 0 0 1-.56 2.17v.01a60.54 60.54 0 0 1-.94 2.92c-.69 2-1.45 3.98-2.15 5.99-1.6 4.6-2.2 8.43-1.92 13.34h-.01Z" opacity=".37"/><path fill="#D8D8D8" d="M33.29 86.71c.17.62.18 1.28-.05 1.9-.14.4-.46.78-.88.82-.52.05-.93-.43-1.18-.9-.44-.81-1.08-2.05-.95-3 .07-.5.41-1 .91-1.06.45-.06.87.24 1.18.57a4.12 4.12 0 0 1 .96 1.67Z" opacity=".08"/><path fill="#575770" d="M37.87 147.78a124.45 124.45 0 0 0 5.04 1c2.78.5 5.68.93 8.68 1.3a189.27 189.27 0 0 0 30.34 1.17 174.24 174.24 0 0 0 5.54-.3c.63-.03 1.27-.08 1.89-.13l1.33-.1a311.96 311.96 0 0 0 2.17-.2 50.87 50.87 0 0 0-.84-3.1l-.06-.2-.07-.2-.22-.66-.37-1.06-.3-.8a42.85 42.85 0 0 0-1.66-3.78l-.03-.06a24.9 24.9 0 0 0-.24-.47l-.32-.6a44.41 44.41 0 0 0-.67-1.18l-.1-.16a8.73 8.73 0 0 0-.26-.41 13.51 13.51 0 0 0-.36-.57 18.9 18.9 0 0 0-.36-.55c-.4 0-1.1 1.32-1.5 1.4l-.99.22-1.84.4-1.78.38-1.89.41-.59.13-1.23.26c-2.13.46-4.26.93-6.42 1.2a42.82 42.82 0 0 1-6.12.29c-5.3-.1-10.63-1-15.9-1.76a48.29 48.29 0 0 0-1.72-.23 23.13 23.13 0 0 0-1.28-.1h-.24a11.1 11.1 0 0 0-.52-.02h-.03c-1.13 0-2.24.14-3.3.53-.66.24-.61-1.17-1.19-.77-.19.46-.42 1.1-.67 1.84a81.2 81.2 0 0 0-1.92 6.88Z"/><path fill="#2B2B37" d="M37.87 147.78a124.45 124.45 0 0 0 5.04 1c2.78.5 5.68.93 8.68 1.3a189.27 189.27 0 0 0 30.34 1.17 174.24 174.24 0 0 0 5.54-.3c.63-.03 1.27-.08 1.89-.13l1.33-.1a311.96 311.96 0 0 0 2.17-.2 50.87 50.87 0 0 0-.84-3.1l-.06-.2-.07-.2-.22-.66-.37-1.06-.3-.8a42.85 42.85 0 0 0-1.66-3.78l-.03-.06a24.9 24.9 0 0 0-.24-.47l-.32-.6a44.41 44.41 0 0 0-.67-1.18l-.1-.16a8.73 8.73 0 0 0-.26-.41 13.51 13.51 0 0 0-.36-.57 18.9 18.9 0 0 0-.36-.55c-.4 0-1.1 1.32-1.5 1.4l-.99.22-1.84.4-1.78.38-1.89.41-.59.13-1.23.26c-2.13.46-4.26.93-6.42 1.2a42.82 42.82 0 0 1-6.12.29c-5.3-.1-10.63-1-15.9-1.76a48.29 48.29 0 0 0-1.72-.23 23.13 23.13 0 0 0-1.28-.1h-.24a11.1 11.1 0 0 0-.52-.02h-.03c-1.13 0-2.24.14-3.3.53-.66.24-.61-1.17-1.19-.77-.19.46-.42 1.1-.67 1.84a81.2 81.2 0 0 0-1.92 6.88Z" opacity=".25"/><path fill="#575770" d="M81.93 151.25a174.24 174.24 0 0 0 5.54-.3c.63-.03 1.27-.08 1.89-.13l1.33-.1a311.96 311.96 0 0 0 2.17-.2 50.75 50.75 0 0 0-.9-3.3l-.07-.2-.22-.67-.37-1.06-.3-.79a32.73 32.73 0 0 0-3.84 2.38 31.47 31.47 0 0 0-1.04.76 11.64 11.64 0 0 0-.42.32 48.3 48.3 0 0 0-3.77 3.29Z"/><path fill="#2B2B37" d="M37.87 147.78a124.45 124.45 0 0 0 5.04 1c2.78.5 5.68.93 8.68 1.3 1.85-.59 3.76-1 5.68-1.3 5.31-.84 10.72-.92 16.05-1.58 2.11-.26 4.22-.55 6.3-1 1.5-.34 3-.75 4.44-1.34l.23-.1a15.92 15.92 0 0 0 1.1-.54l.23-.12c.3-.17.62-.35.91-.55a10.2 10.2 0 0 0 1.73-1.45c.4-.42.76-.88 1.08-1.38l-.04-.07a24.9 24.9 0 0 0-.23-.46l-.33-.6-.33-.6-.34-.59a5.96 5.96 0 0 0-.1-.16c-.08-.14-.16-.28-.25-.4a13.51 13.51 0 0 0-.36-.57 18.9 18.9 0 0 0-.37-.55c-.4 0-1.1 1.31-1.49 1.4l-1 .22-1.84.4-1.78.38-1.88.4-.6.14-1.22.26c-2.13.46-4.26.92-6.43 1.19a42.82 42.82 0 0 1-6.11.3c-5.31-.1-10.63-1-15.9-1.76a48.29 48.29 0 0 0-1.72-.23 23.13 23.13 0 0 0-1.29-.1h-.01l-.2-.01h-.02a11.1 11.1 0 0 0-.52-.01h-.03c-1.13 0-2.25.14-3.3.52-.67.25-.61-1.16-1.19-.76-.2.46-.42 1.09-.67 1.84a81.2 81.2 0 0 0-1.92 6.88Z" opacity=".25"/><path fill="#575770" d="M38.01 101.22c-2.97-20.66-1.59-27.8.28-36.05.93-4.1 1.96-8.22 2.44-12.41 4.45-2.28 9.67-3.53 13.32-1.67 4.95 2.52 3.06 4.86 8.6 5.23 2.12.14 4.3.12 6.32-.56 2.02-.67 3.88-2.08 4.7-4.04a44.86 44.86 0 0 1 25.37 8.34c.4.28.82.61.95 1.08.19.68-.27 1.35-.71 1.9-.98 1.16-2.04 2.25-2.9 3.5-1.87 2.76-2.63 6.1-3.3 9.38a248.58 248.58 0 0 0-2.7 16.2c-4.72 35.43 5.16 34.8-3.74 43.65-2.1 2.08-.96.87-3.9 1.16a131.07 131.07 0 0 1-34.5-.91c-2.68-.46-1.32 4.67-3.55 3.12-10.82-7.53-5.23-27.8-6.68-37.91v-.01Z"/><path fill="#575770" d="m78.15 52 .31.04c-.1.18-.22.35-.34.52l.03-.55Z"/><path fill="#575770" d="M38.01 101.22c-2.97-20.66-1.59-27.8.28-36.05.93-4.1 1.96-8.22 2.44-12.41 4.45-2.28 9.67-3.53 13.32-1.67 4.95 2.52 3.06 4.86 8.6 5.23 2.12.14 4.3.12 6.32-.56 2.02-.67 3.88-2.08 4.7-4.04 1.48.02 2.96.11 4.44.28 0 .2-.02.42-.04.62l-.17.22c-.7.87-1.54 1.62-2.38 2.37-2.2 1.96-4.34 4-6.7 5.8a54.54 54.54 0 0 1-4.17 2.82 68.24 68.24 0 0 1-4.31 2.53 29.89 29.89 0 0 1-8.05 3.06c-.15-.26-.31-.52-.49-.77-.02-.02-.06 0-.04.03.17.24.33.5.48.75-.4.09-.81.15-1.22.2-.02.01-.02.06.02.05l.44-.06.79-.14c.44.74.84 1.51 1.32 2.23.5.77 1.12 1.54 1.99 1.91.41.18.87.25 1.32.2a6.4 6.4 0 0 0 1.75-.53 19.62 19.62 0 0 0 3.71-2.15c1.21-.86 2.36-1.8 3.48-2.77 1.92-1.65 3.81-3.33 5.63-5.09a29.8 29.8 0 0 0 4.92-5.9 11.84 11.84 0 0 0 1.71-4.74c.14-.18.28-.38.41-.6 7.37.92 14.5 3.69 20.53 8.01.4.29.82.62.96 1.09.18.68-.27 1.35-.72 1.89-.97 1.16-2.03 2.26-2.89 3.51-1.87 2.76-2.64 6.1-3.3 9.38a238.25 238.25 0 0 0-.73 3.74c-1.3 1.26-2.62 2.48-3.83 3.8-2.24 2.45-4.16 5.34-4.2 8.77-.02.95.08 1.92.35 2.83.3 1 .78 1.93 1.33 2.8 1.02 1.62 2.3 3.06 3.31 4.67-1.7 24.99 5.26 25.35-2.67 33.24-2.1 2.08-.96.87-3.9 1.16a131.07 131.07 0 0 1-34.5-.92c-2.68-.45-1.31 4.68-3.55 3.12-10.82-7.53-5.24-27.79-6.68-37.9v-.01Z"/><path fill="#2B2B37" d="M76.48 60.05a25.76 25.76 0 0 1 3.42-5.6c.5-.66 1.04-1.34 1.68-1.9a44.9 44.9 0 0 1 17.46 7.5c.4.29.82.62.95 1.09.19.68-.27 1.35-.71 1.89-.98 1.16-2.04 2.26-2.89 3.51-1.87 2.76-2.64 6.1-3.3 9.38-.25 1.24-.5 2.5-.73 3.74-1.3 1.26.9 4.6-.32 5.92-1.08 1.17-5.58.33-6.34 1.72l.6 1.4c-.76.72-1.85.96-2.89 1.14-4.04.7-8.44.9-11.99-1.15a14.37 14.37 0 0 1-4.28-4.05c-1.33-1.83-7.98-9.81-8.7-11.96C69.97 79 73.97 66.4 76.47 60.05Z" opacity=".25"/><path fill="#2B2B37" d="M71.15 81.77c5.4-5.5 3.24-23.03 10.43-29.23a44.9 44.9 0 0 1 17.45 7.51c.4.29.82.62.96 1.09.19.68-.27 1.35-.72 1.89-.97 1.16-2.03 2.26-2.88 3.51-1.88 2.76-2.64 6.1-3.3 9.38-.25 1.24-.5 2.5-.73 3.74-1.3 1.26.9 4.6-.32 5.92-1.08 1.17-5.59.33-6.34 1.72l.6 1.4c-.77.72-1.85.96-2.9 1.14-4.03.7-8.44.9-11.98-1.15a13.25 13.25 0 0 1-3.5-3.04c1.36-1.03 2.04-2.67 3.23-3.88Z" opacity=".25"/><path fill="#2B2B37" d="M76.52 89.76a16.65 16.65 0 0 0 2.32-5.77 22.3 22.3 0 0 0-.02-7.6c-.2-1.36-.46-2.71-.66-4.07a31.36 31.36 0 0 1-.34-3.97c-.05-2.56.15-5.15.68-7.66a28.2 28.2 0 0 1 3.2-8.13 44.84 44.84 0 0 1 17.33 7.49c.4.29.82.61.96 1.09.19.67-.27 1.34-.72 1.88-.97 1.17-2.03 2.26-2.88 3.52-1.88 2.76-2.64 6.1-3.3 9.37-.25 1.25-.5 2.5-.73 3.75-1.3 1.25 1.34 4.28.12 5.6-1.08 1.18-6.03.65-6.8 2.04l.62 1.4c-.78.72-1.86.96-2.9 1.14-2.35.4-4.83.64-7.2.36.12-.14.22-.3.32-.44Zm-7.74-24.03c-1 .9-2.02 1.8-3.04 2.67a46.1 46.1 0 0 1-3.55 2.81 18.8 18.8 0 0 1-3.79 2.14 4.8 4.8 0 0 1-1.74.45 2.67 2.67 0 0 1-1.34-.34 5.96 5.96 0 0 1-1.96-2.18c-.36-.59-.69-1.2-1.04-1.8 2.94-.6 5.72-1.8 8.35-3.23a77.13 77.13 0 0 0 8.41-5.38c2.3-1.79 4.42-3.79 6.59-5.72a18 18 0 0 0 2.38-2.43c-.05.43-.13.86-.24 1.28-.64 2.45-2.14 4.6-3.77 6.5a61.12 61.12 0 0 1-5.26 5.22Zm-18.36 38.12c-8.14-3.97-6.26-10.97-2.52-13a7.93 7.93 0 0 1 1.62-.62 29.93 29.93 0 0 1 5.6-.94c2.57-.18 11.85-.34 14.41 0 5.5.71 10.75 2.63 15.83 4.79l3.45 1.5 1.09.46c-.55 4.96-.8 9.14-.86 12.68-12.02-6.26-33.1-2.16-38.62-4.86Z" opacity=".25"/><path fill="#2B2B37" d="M38.01 101.22c-2.97-20.66-1.59-27.8.28-36.05.93-4.1 1.96-8.22 2.44-12.41a26.25 26.25 0 0 1 4.77-1.9 55.8 55.8 0 0 0 9.27 18.48A53.74 53.74 0 0 0 66.6 80.76a45.38 45.38 0 0 0 14.84 6.73c1.4.35 2.8.64 4.23.86 1.57.25 3.15.44 4.75.43h.43a320.7 320.7 0 0 0-.47 3.35c-4.72 35.4 5.16 34.8-3.75 43.65-2.09 2.08-.96.87-3.9 1.16a131.07 131.07 0 0 1-34.49-.91c-2.69-.45-1.32 4.67-3.55 3.12-10.82-7.54-5.23-27.8-6.68-37.92l.01-.01Z" opacity=".11"/><path fill="#2B2B37" d="M38.01 101.22c-2.97-20.66-1.59-27.8.28-36.05.93-4.1 1.96-8.22 2.44-12.41.27-.14.55-.28.82-.4-.8 2.86-.65 5.98-.24 8.98.59 4.28 1.71 8.55 1.43 12.9-.17 2.62-.54 5.26-.37 7.9.14 2.09.8 4 1.93 5.75 1.08 1.69 2.43 3.17 3.72 4.69a22.1 22.1 0 0 1 3.56 5.36c1.87 4.26 2.62 8.9 4.4 13.2a24 24 0 0 0 3.33 5.7 38.05 38.05 0 0 0 4.91 5.12c3.56 3.1 7.5 5.65 11.68 7.83 2.14 1.12 4.29 2.28 6.6 3.02 1.1.36 2.23.64 3.4.73.9.08 1.83.05 2.75-.02a22.31 22.31 0 0 1-2.01 2.24c-2.1 2.08-.96.87-3.9 1.16a131.07 131.07 0 0 1-34.5-.92c-2.68-.45-1.31 4.68-3.54 3.12-10.82-7.52-5.24-27.79-6.69-37.9Z" opacity=".25"/><path fill="#575770" d="m40.7 52.89.02-.13.05-.02-.06.15Z"/><path fill="#2B2B37" d="M43.43 57.08c.32-2.1.97-4.6 2.4-6.32a17.82 17.82 0 0 1 2.94-.52c-2.7 8.5 2.03 13.46 8.92 19.63a24.7 24.7 0 0 0 4.82 7.8 33.68 33.68 0 0 0 6.65 5.29c1.16.75 2.35 1.46 3.54 2.16 7.48 9.93 13.62 24.28 13 47.9v.1c-2.82 1.64-5.63 4.73-8.45 4.28-.41-43.89-38.18-52.35-33.83-80.3v-.02Z" opacity=".25"/><path fill="#2B2B37" d="M38.01 101.22c-2.97-20.66-1.59-27.8.28-36.05l.15-.64a52.57 52.57 0 0 0-.23 2.76c-.26 4.86-.09 9.75 1.23 14.47.66 2.37 1.66 4.6 2.51 6.9.78 2.14 1.31 4.32 1.4 6.6.09 2.71.05 5.42.33 8.12.23 2.26.53 4.54 1.16 6.73a19.44 19.44 0 0 0 5.05 8.61c2.47 2.42 5.47 4.23 8.5 5.86 3.89 2.1 7.83 4.16 12 5.64 4.5 1.6 9.33 2.7 14.14 2.44 1.75-.1 3.47-.37 5.18-.78a15.7 15.7 0 0 1-3.07 3.9c-2.09 2.08-.96.86-3.9 1.16a131.07 131.07 0 0 1-34.49-.92c-2.69-.45-1.32 4.68-3.55 3.12-10.82-7.54-5.23-27.8-6.68-37.92Z" opacity=".25"/><path fill="#2B2B37" d="M38.01 101.22c-.6-4.19-1.02-7.82-1.3-11.02.3.38.57.8.79 1.22a15.47 15.47 0 0 1 1.78 5.46c.47 3.64.54 7.3.92 10.96.18 1.76.42 3.53.82 5.26.42 1.76.94 3.58 1.76 5.2a23.44 23.44 0 0 0 5.97 7.5 22 22 0 0 0 4.06 2.72 28.1 28.1 0 0 0 4.88 1.84c1.69.48 3.4.9 5.09 1.4 1.66.5 3.36 1.1 4.86 2 1.76 1.06 3.2 2.5 4.76 3.82-8.09.23-16.19-.24-24.16-1.57-2.7-.45-1.32 4.67-3.56 3.12-10.8-7.53-5.22-27.8-6.67-37.91Zm39.26-47.28a12.14 12.14 0 0 1-1.4 5.04 4.93 4.93 0 0 1-1.52 1.7 9.7 9.7 0 0 1-2.73 1.22c-2.03.58-4.16.72-6.25.76-2.36.04-4.7-.05-7.06-.2-2.49-.17-5.01-.34-7.5-.02a17.75 17.75 0 0 0-6.41 2.14 23.42 23.42 0 0 0-7.28 6.33c.34-1.98.74-3.83 1.17-5.73.93-4.11 1.96-8.22 2.44-12.42 4.45-2.28 9.67-3.53 13.32-1.66 4.95 2.51 3.06 4.85 8.6 5.22 2.12.15 4.3.12 6.32-.55 2.02-.68 3.88-2.08 4.7-4.05 1.19.02 2.38.09 3.57.2a10.1 10.1 0 0 1 .04 2.03v-.01Z" opacity=".25"/><path fill="#2B2B37" d="M76.68 57.1a8.48 8.48 0 0 1-3 2.24c-1 .43-2.06.69-3.12.9-1.13.21-2.27.42-3.42.5-1.18.09-2.38.09-3.57.13-.6.02-1.19.04-1.78.1a30.06 30.06 0 0 1-8.85.18c-1.2-.11-2.38-.22-3.58-.27a7.9 7.9 0 0 1-2.43-.38 5.83 5.83 0 0 1-2.99-2.55 15.3 15.3 0 0 1-1.54-3.9l-.5-1.87c4.18-1.9 8.81-2.8 12.14-1.1 4.95 2.52 3.06 4.86 8.6 5.23 2.12.15 4.3.12 6.32-.55 2.02-.68 3.88-2.08 4.7-4.05 1.19.02 2.38.09 3.57.2.09.67.09 1.35.04 2.03a13.4 13.4 0 0 1-.59 3.15Z" opacity=".25"/><path fill="#2B2B37" d="M78.8 141.84c1.6-11.43-5.8-40.54-13.39-49.02a219.13 219.13 0 0 0-4.81-5.2c-2.36-2.46-25.07-23.23-12.3-36.54-3.22 11.88 12.96 23.86 24.66 38.24 11.97 14.71 13.36 46.98 11.13 50.1-1.16 1.62-3.32 2.08-5.28 2.42Z"/><path fill="#21212B" d="M50.31 62.46a5.07 5.07 0 0 0-2.32.4 6.9 6.9 0 0 0-2.9 2.41c-1.33-4.93-.87-9.94 3.2-14.18-1 3.76-.09 7.52 2.02 11.37Zm28.84 41.92a48.97 48.97 0 0 0-3.7-.7 17.2 17.2 0 0 0-4.08-.16 56.78 56.78 0 0 0-3.2-6.73c2.54-.25 5.12-.31 7.65 0 .64.07 1.26.18 1.9.3 1.13 2.41 2.1 5 2.94 7.65-.5-.15-1-.25-1.5-.36Zm-.73 25.92a16.58 16.58 0 0 0 6.55 1.43c.05 4.02-.29 6.87-.88 7.7-1.16 1.62-3.33 2.07-5.29 2.41.41-2.91.24-6.97-.38-11.54Z"/><path fill="#2B2B37" d="M56.3 79.33a53.89 53.89 0 0 0-4.28-6.4c.05-.01 24.28-10.51 26.22-21.84 2.4 10.57-19.6 26.77-21.94 28.24Z"/><path fill="#21212B" d="M76.3 59.02c-.36.03-.73.07-1.1.13-.7.12-1.4.31-2.09.48l-.18.04c2.75-2.69 4.8-5.6 5.31-8.58.55 2.42-.18 5.15-1.66 7.91l-.28.02Z"/><path fill="#2B2B37" d="M39.35 131.64c16.88 4.35 32.44 5.1 50.4.65v9.15c-13.6 6.4-37 6.26-50.05-.58l-.36-9.22Z"/><path fill="#21212B" d="M58.74 135a2.53 2.53 0 0 0-.18 1.77c.24.75.87 1.25 1.53 1.63.79.45 1.64.77 2.45 1.18.76.38 1.55.85 1.98 1.6.32.55.34 1.16.44 1.76.05.3.11.62.27.88.12.22.28.42.46.6.79.74 1.87 1.13 2.87 1.5l.33.11c-10.59.5-21.62-1.21-29.18-5.17l-.36-9.22c6.59 1.7 12.97 2.85 19.39 3.35Z" opacity=".46"/><path fill="#464557" d="M76.59 134.98a8.13 8.13 0 0 1-4.25 2.81c-1.64.44-3.4.37-5.04-.02a15.5 15.5 0 0 1-5.5-2.59c4.95.23 9.92.07 15.04-.52l-.25.32Zm10.85.8c.31.1.62.27.8.56.18.27.23.62.2.94-.1.68-.62 1.2-1.16 1.57-.68.47-1.46.79-2.25 1.03-2.67.85-6.47 1.06-6.8-.66-.1-.48.24-.93.56-1.24 1.16-1.16 6.71-2.86 8.65-2.2Z" opacity=".25"/><path fill="#21212B" d="m47.5 133.47.07.6c.09.79.25 1.57.34 2.35.03.29.08.62 0 .9a7.83 7.83 0 0 1-.64 1.6c-.5.98-1.02 1.98-.99 3.12.01.28.05.53.13.8a5.8 5.8 0 0 0 .33.8 39.36 39.36 0 0 1-7.04-2.78l-.36-9.23c2.76.71 5.47 1.33 8.17 1.84Z"/><path fill="#2B2B37" d="M84.29 144.76a.21.21 0 0 0 .06.2c.66.72.99 1.74 1.26 2.68l.05.2.04.12c.23.82.47 1.66.6 2.5l.07.57.49-.03a14.36 14.36 0 0 0-.29-1.64 25.18 25.18 0 0 0-.45-1.71l-.09-.29c-.29-.96-.65-2-1.34-2.75l-.02-.02c-.15-.14-.36 0-.38.17Z"/><path fill="#464557" d="M77.96 107.68c.48-.06.85.41 1.1.83a25.22 25.22 0 0 1 3.4 12.37c0 .2-.02.43-.2.52-.22.12-.47-.14-.6-.36l-.74-1.16a15 15 0 0 1 1.02 5.56c0 .22-.02.47-.18.62-.4.35-.94-.23-1.1-.74-.48-1.46-.55-3.01-.9-4.51-.29-1.28-.77-2.51-1.16-3.76a29.82 29.82 0 0 1-1.38-7.87c-.02-.61.12-1.42.74-1.5ZM62.77 70.23c-.08-.4.28-.74.63-.94.34-.2.76-.37.93-.74-.23.25-.7-.02-.73-.36-.02-.35.24-.64.5-.87.25-.22.52-.42.8-.61a18.09 18.09 0 0 1 5.3-2.47c.1.58-.33 1.11-.8 1.48-.46.36-1 .68-1.24 1.2.2.02.41.03.62.03a7.32 7.32 0 0 1-2.33 2.1l-1.87 1.26c-.3.2-.6.4-.97.44-.35.03-.76-.17-.84-.52Zm-13.4-5.96c.16.04.29.14.41.25a4.67 4.67 0 0 1 1.5 3.4c0 .12 0 .23-.06.32-.1.17-.33.2-.52.17a2.17 2.17 0 0 1-1.46-.96 4.47 4.47 0 0 1-.64-1.66 1.88 1.88 0 0 1-.01-1.01c.11-.32.45-.59.78-.5Z" opacity=".25"/><path fill="#D8D8D8" d="M94.1 60c.15.17.29.36.36.58.18.57-.21 1.21-.75 1.5-.53.28-1.17.28-1.77.22a6.67 6.67 0 0 1-3.32-1.2c-1.66-1.26-2.3-4.36.67-4.2 1.74.09 3.77 1.78 4.81 3.1ZM56.4 65.2c.04.17.05.35.02.52a.7.7 0 0 1-.18.34c-.3.33-.85.23-1.23 0-2.15-1.27.78-3.58 1.4-.86ZM45.9 77.74c.13.41.2.82.19 1.06-.03.36-.25.74-.6.8-.98.2-1.82-2.35-1.3-2.98.72-.9 1.4.14 1.7 1.12Z" opacity=".14"/><path fill="#323147" d="M45.58 34.5c.66-2.7 0-10.23 0-10.23l3.18-2.84s5.77 28.96 7.48 30.17c1.13.8 2.43 1.64 2.75 3-1.02.18-2.01-.38-3-.7-1.37-.44-2.87-.45-4.23-.92-4.77-1.66-7.3-13.92-6.18-18.48Z"/><path fill="#464558" d="M53.62 51.46a5.1 5.1 0 0 1-3.02-1 5.55 5.55 0 0 1-1.6-2.74c-.17-.55-.25-1.13-.4-1.68a12.26 12.26 0 0 0-.67-1.86c-.27-.61-.55-1.22-.8-1.84a9.96 9.96 0 0 1-.55-1.96 14.1 14.1 0 0 1 .01-4.48c.17-1.09.41-2.16.66-3.24.19-.1.39-.19.55-.3.16-.1.32-.24.47-.37l.56-.44c.39-.3.79-.58 1.23-.78.2-.1.4-.17.6-.21 1.74 8.16 4.24 19.1 5.4 20.84h-.04c-.8.11-1.6.12-2.4.06Z" opacity=".41"/><path fill="#D58500" d="M60.02 49.32c-11.28.3-13.61-14.47-13.44-16.95.08-1.03.32-2.05.38-3.08.1-1.91-.4-3.8-.36-5.7.4-14.44 23.11-9.18 26.05 4.25 1.74 7.96-3.92 21.26-12.63 21.48Z"/><path fill="#D58500" d="M47.51 24.2c.61-1.36 1.34-2.78 2.62-3.64a6.14 6.14 0 0 1 2.15-.84c.82-.18 1.66-.3 2.5-.35 3.12-.19 6.55.33 9.12 2.25a12.47 12.47 0 0 1 4.38 6.8 15.91 15.91 0 0 1-.02 8.38 20.37 20.37 0 0 1-4.77 9 29.3 29.3 0 0 1-1.82 1.71 20.56 20.56 0 0 1-2.03 1.6l-.32.22C48.64 49 46.4 34.8 46.58 32.38c.07-1.04.31-2.06.37-3.09.06-1.08-.08-2.16-.2-3.23.23-.62.49-1.24.75-1.85h.01Z"/><path fill="#B45F00" d="M62.81 46.54A19.34 19.34 0 0 0 67.98 38c.44-1.42-.5-3.66-.47-5.15.29-13.95-15.55-20.46-20.77-6.9-.08-.78-.16-1.57-.14-2.36.4-14.44 23.12-9.18 26.05 4.25 1.74 7.97-3.92 21.26-12.63 21.49h-.61a27.98 27.98 0 0 0 3.4-2.78Z" opacity=".36"/><path fill="#B45F00" d="M57.44 27.57c.96-2.87 3.62-3.77 5.09-3.17.13.05.29.13.32.28.27 1.1-4.67 2.09-4.26 3.83.5 2.17 5.58.51 12.07 2.68.46.15-.46.27-.1.6.16.13.29.3.26.51-.02.3-.25.53-.47.7-.53.42-1.17.57-1.84.56a10.31 10.31 0 0 1-.94-.06l-1.05-.07c-1.57-.14-3.15-.36-4.73-.26-1.18.07-2.41.05-3.44-.59-2.24-1.39-1.57-3-.91-5ZM57 15.02c-.7.16-1.36.42-2.02.7-.57.25-1.15.46-1.7.72-.66.31-1.3.67-1.86 1.1-.96.74-1.76 1.7-2.44 2.69a10.48 10.48 0 0 0-.95 1.64c-.23.5-.41 1.07-.35 1.63.04.36.12.71.08 1.08-.04.36-.13.72-.16 1.09-.02.33.03.65.09.98.06.31.12.63.2.94.16.61.36 1.24.7 1.77.3.5.74.89 1.08 1.35.17.23.3.48.38.75.1.34.1.68.09 1.03a8.3 8.3 0 0 1-.35 2.06 12.45 12.45 0 0 1-2.14 3.94 20.43 20.43 0 0 1-1.07-6.12c.08-1.03.32-2.05.38-3.09.1-1.9-.4-3.8-.36-5.7.18-6.56 4.96-9.05 10.4-8.56Z" opacity=".36"/><path fill="#E2A040" d="M49.26 29.38a.57.57 0 0 1-.25-.76c.27-.5 1.04.1 1.09.46.06.44-.57.45-.84.3Zm16.9.08a.55.55 0 0 1-.4.07c-.13-.03-.28-.07-.35-.19-.12-.2.01-.44.17-.57.34-.28.78-.09.82.09a.55.55 0 0 1-.24.6Zm-14.5-2.57c-.07.23-.4.2-.59.15-.2-.05-.55-.23-.5-.48.1-.37 1.2-.06 1.08.33Zm13.15.1c-.27.07-.61.06-.85-.08-.12-.07-.22-.18-.2-.32.02-.16.14-.25.3-.26.19-.02.96-.21 1.03.29.03.19-.11.32-.28.37Zm-5.47-3.75c-.14-.29-.1-.67-.02-.98.16-.65.56-1.31 1.3-1.3.2 0 .44.07.56.26.13.25.04.56-.07.8-.15.3-1.37 2.04-1.77 1.23Z" opacity=".36"/><path fill="#B45F00" d="M49.3 29.98a14.57 14.57 0 0 1 1.86-.08c.62 0 1.26.03 1.88.1.86.12 1.75.3 2.55.67.25.38.38.84.45 1.28a10.78 10.78 0 0 1 0 3.23 7.28 7.28 0 0 1-.06.25c-1.65-.38-3.3-.82-4.9-1.38a26.58 26.58 0 0 1-4.47-1.99c.04-.45.11-.9.18-1.35a8.56 8.56 0 0 1 2.5-.73Z" opacity=".36"/><path fill="#B45F00" d="M46.58 32.37c0-.09.02-.18.03-.26a29.57 29.57 0 0 0 6.3 2.57 77.4 77.4 0 0 0 7.8 1.76 53.32 53.32 0 0 0 7.37.84c.33.01.67 0 1 .02a2.9 2.9 0 0 1 .62.08.28.28 0 0 1-.07.03c-.03.02 0 .05.02.05a.9.9 0 0 0 .11-.06l.06.05c.02.03.07 0 .05-.02a.17.17 0 0 0-.06-.05l.19-.13v.07c0 .03.04.03.04 0l.01-.1.01-.01a26.17 26.17 0 0 0-.66-7.83 12.44 12.44 0 0 0-.62-1.98 14.32 14.32 0 0 0-.87-1.74 18.5 18.5 0 0 0-2.4-3.1 33.1 33.1 0 0 0-1.4-1.38c-.49-.45-.99-.88-1.53-1.25a12.34 12.34 0 0 0-3.46-1.66 15.55 15.55 0 0 0-3.81-.62 8.2 8.2 0 0 0-3.99.62c-.61.25-1.2.55-1.8.8-.42.17-.83.31-1.24.49a7.71 7.71 0 0 0-1.02.51c3.76-9.9 22.74-4.45 25.4 7.74 1.74 7.97-3.92 21.27-12.62 21.5-11.3.3-13.63-14.47-13.46-16.95Z" opacity=".36"/><path fill="#B45F00" d="M49 24.56c.46-.22.97-.28 1.46-.34l1.37-.17c.38-.05.79-.09 1.15.07.28.13.5.36.68.61a5.92 5.92 0 0 1 .16 6.73 21.1 21.1 0 0 1-3.01.07 10.37 10.37 0 0 0 1.13-4c.03-.44.03-.9-.17-1.3a2 2 0 0 0-1.07-.86c-.43-.18-.9-.27-1.34-.42-.18-.06-.4-.2-.36-.38Z" opacity=".36"/><path fill="#323147" d="M71.86 31.33s-9.7-1.17-15.55-1.27c-1.08-.02-3.01-.08-3.66 0-4.17.5-6.39 2.08-6.39 2.08s2.08 19.7 10.85 20.55c6.55.64 11.3-.66 13.73-6.14 2.42-5.47 3.44-10.33 1.02-15.23Z"/><path fill="#464558" d="M57.4 33.3a7.7 7.7 0 0 1-1.1-3.24c3.26.05 7.72.44 11.03.77.17 6.32-6.65 7.82-9.93 2.47Z"/><path fill="#323147" d="M67.06 35.05c-.18.3-.32.6-.47.92-.28.64-.51 1.3-.81 1.93a11.14 11.14 0 0 1-1.06 1.8 29.87 29.87 0 0 1-1.32 1.69c-.44.53-.85 1.07-1.27 1.62-.32.41-.65.82-1 1.21-.39.43-.81.85-1.3 1.17-.4.28-.93.55-1.43.45-.57-.11-1.03-.54-1.44-.92-.2-.18-.41-.38-.63-.55a5.4 5.4 0 0 0-.64-.43c-.46-.28-.95-.53-1.36-.9-.43-.4-.7-.89-.71-1.47-.03-.71.22-1.41.25-2.13.02-.32 0-.64-.12-.94a1.7 1.7 0 0 0-.39-.54c-.18-.18-.38-.35-.53-.56a1.86 1.86 0 0 1-.36-1.02c-.01-.54.17-1.07.39-1.56.35-.75.78-1.46 1.14-2.22.34-.7.78-1.68.84-2.57.5 0 1 .02 1.4.03a7.48 7.48 0 0 0 .87 2.84 7.72 7.72 0 0 0 2.1 2.5c.8.6 1.7 1.06 2.71 1.17a6.95 6.95 0 0 0 5.3-1.82l.14-.13a4.87 4.87 0 0 0-.3.44Z"/><path fill="#2B2B37" d="M52.65 30.06c.4-.05 1.28-.05 2.15-.03-.04.54-.21 1.09-.4 1.57-.34.86-.78 1.67-1.22 2.48-.16.3-.32.61-.45.92-.21.54-.4 1.14-.27 1.71.07.3.22.59.41.83.16.18.35.34.52.52.5.53.32 1.1.51 1.73.1.32.58.53.73.24a.43.43 0 0 0 .03-.26c-.04-.48-.17-.96-.15-1.44.03-.49.26-1.01.73-1.17.1-.03.23-.04.31.03.08.07.09.2.07.3-.04.74-.28 1.47-.16 2.2.12.8.64 1.47 1.23 2.02.34.33.73.65.85 1.1.05.22.04.44.03.66-.02.62 0 1.28.34 1.79 1.21 1.8 3.39-1.1 4.09-2.01.4-.51.77-1.03 1.18-1.53.44-.54.88-1.07 1.3-1.62.42-.56.81-1.14 1.12-1.76.31-.62.57-1.26.83-1.9.27-.65.56-1.3 1-1.86l.15-.2a6.55 6.55 0 0 0 1.03-1.4c.39-.59.73-1.24.89-1.93l2.35.27c2.43 4.9 1.41 9.76-1.01 15.23-2.42 5.47-7.17 6.77-13.73 6.14-8.77-.85-10.85-20.55-10.85-20.55s2.22-1.6 6.4-2.08Z"/><path fill="#323147" d="M68.81 32.6c.23-.5.37-1.02.43-1.57l.22.03a5.6 5.6 0 0 1-.64 1.54Z"/><path fill="#21212B" d="M46.58 31.94c.07.56.17 1.12.28 1.68.3 1.36.72 2.68 1.2 3.98l.1.24c.16.87.44 1.73.76 2.54.44 1.16 1.02 2.27 1.4 3.45.2.58.38 1.17.6 1.73.2.5.44 1 .8 1.4.76.8 1.83 1.3 2.88 1.59.54.15 1.09.26 1.64.31.58.05 1.14.05 1.7-.1a9.73 9.73 0 0 0 1.84-.76l.94-.45c.3-.13.59-.23.87-.37a11.41 11.41 0 0 0 3-2.14c.93-.89 1.75-1.9 2.44-2.98a15.56 15.56 0 0 0 .92-1.64 28.77 28.77 0 0 0 1.85-5.92c.2-1.11.32-2.24.29-3.38l1.76.2c2.42 4.9 1.4 9.76-1.02 15.24-2.43 5.47-7.17 6.77-13.73 6.14-8.77-.85-10.85-20.56-10.85-20.56l.32-.2h.01Z"/><path fill="#464558" d="M58.06 56.13c-.46-.05-1.26.42-1.65.15-.83-.6-5.2-2.15-5.35-3.25 16.4-.64 24.8-20.95 15.53-31.2-3.47-3.83-12.55-8.35-17.86-1.48a12 12 0 0 0-2.32 7.89c-.73-1.42-.78-3.09-.81-4.69-.05-2.4-.09-4.88.84-7.1.73-1.78 2.03-3.25 3.31-4.69a30.2 30.2 0 0 1 3.49-3.48 15.97 15.97 0 0 1 18.18-.98 17.18 17.18 0 0 1 7.38 11.44c.66 3.79.14 7.71.93 11.47.8 3.8 2.94 7.55 2.09 11.34-.2.87-1.16 2.34-1.66 3.58-1.03 2.51-2.03 6.32-3.6 7.23-2.32 1.35-5.3 2.92-7.92 3.51-3.33.75-7.2.65-10.58.27Z"/><path fill="#575770" d="M78.99 40.93c-.53-.05-1-.37-1.32-.77a3.1 3.1 0 0 1-.66-1.53c-.06-.49.02-.99.18-1.45.32-.92.96-1.68 1.63-2.36.56-.56 1.16-1.08 1.73-1.64.65 2.06 1.37 4.1 1.45 6.16-.46.43-.93.86-1.48 1.18-.46.28-.98.46-1.53.41Z"/><path fill="#323147" d="M48.14 20.8a9 9 0 0 1 .96-3.55 5.43 5.43 0 0 1 4.16-2.81c2.46-.3 4.78.81 7.2 1a4.3 4.3 0 0 1 2.41.84c.71.56 1.23 1.3 1.82 1.98 1.58 1.77 3.45 3.24 5.15 4.9 1.66 1.64 3.27 3.52 4 5.78.17.56.31 1.15.32 1.74a6.36 6.36 0 0 1-.23 1.72c-.3 1.1-.74 2.14-1 3.25a14.48 14.48 0 0 0-.36 3.52c.02 1.17.15 2.33.27 3.5.06.52.16 1.05.14 1.58a3.7 3.7 0 0 1-.24 1.15 7.48 7.48 0 0 1-1.25 2c-.9 1.13-1.98 2.34-1.96 3.87.02 1.56 4.35.48 5.74 1.07-1.19.52-5.52 3.26-6.65 3.51-3.32.74-7.18.65-10.56.27-.47-.05-1.27.42-1.65.14-.84-.58-5.2-2.14-5.35-3.24 16.4-.64 24.8-20.95 15.53-31.2-3.47-3.83-12.55-8.35-17.86-1.48-.23.28-.43.58-.62.9l.04-.44Z" opacity=".32"/><path fill="#323147" d="M66.6 21.84c-2.4-2.65-7.47-5.62-12.12-4.96a5.44 5.44 0 0 1 2-.41c.82-.02 1.62.12 2.4.34.86.25 1.73.41 2.6.64a7.66 7.66 0 0 1 2.85 1.25 23.14 23.14 0 0 1 2.56 2.07 18.09 18.09 0 0 1 3.81 4.7 10.04 10.04 0 0 1 1.24 5.71c-.21 2.06-1.2 3.94-1.42 6-.1 1.05.08 2.09.14 3.14.03.54.04 1.08-.05 1.61a4.77 4.77 0 0 1-.52 1.48 14.49 14.49 0 0 1-1.74 2.55 12.8 12.8 0 0 1-2.18 2.08c-.98.73-2.08 1.28-3.12 1.92-.59.36-1.18.74-1.72 1.18-.4.33-.84.71-1.07 1.2-.3.64.05 1.3.65 1.62.8.42 1.8.45 2.69.45 2.29-.02 4.58-.45 6.81-.95l2.47-.61c1.53-.38 3.06-.79 4.54-1.33-.27.38-.55.67-.86.85-2.34 1.35-5.3 2.92-7.94 3.51-3.31.74-7.18.65-10.56.27-.46-.05-1.27.41-1.65.14-.83-.59-5.2-2.15-5.35-3.25 16.4-.64 24.8-20.95 15.53-31.2Z"/><path fill="#323147" d="M46.44 16.44c.66-1.59 1.77-2.94 2.92-4.22a22.05 22.05 0 0 0-.92 3.5 25.83 25.83 0 0 0-.48 3.99c-.02.58-.01 1.17.02 1.75a12.3 12.3 0 0 0-1.56 6.78c-.74-1.42-.79-3.09-.82-4.69-.05-2.4-.09-4.88.84-7.1Z" opacity=".32"/><path fill="#575770" d="M74.38 17.8a12.75 12.75 0 0 1-4.68 1.6 4.8 4.8 0 0 1-3.87-1.13 6.24 6.24 0 0 1-1.66-4.74 7.4 7.4 0 0 1 2.41-4.55c1.02-1 2.21-1.8 3.47-2.46.47.23.92.49 1.36.77a16.82 16.82 0 0 1 6.47 8.15 20.92 20.92 0 0 1-3.5 2.37Z"/><path fill="#323147" d="M59.35 24.5c.37-.24 3.38-1.48 7.13-.47h.1l.03.03h.03c.08.03.07.18-.02.16l-.16-.04c-3.5-.43-4.55 2.03-6.63 1.83-.7-.07-1.21-1-.48-1.5Zm-6.32 1.24c-1.76.38-2.8-1.98-5.75-1.24l-.13.05c-.07.03-.1-.12-.03-.15l.03-.01c0-.02.01-.03.03-.03a.24.24 0 0 0 .07-.02c3.13-1.34 5.77-.36 6.1-.14.65.43.27 1.41-.32 1.54Z"/><path fill="#2B2B37" d="M55.36 15.44a18.56 18.56 0 0 1 1.36-3.36c.59-1.1 1.34-2.03 2.17-2.94.81-.9 1.66-1.76 2.67-2.43.87-.57 1.97-1.15 3.04-1.04.31.03.31.52 0 .49-.99-.1-1.98.45-2.79.97-.98.63-1.76 1.53-2.58 2.35a9.28 9.28 0 0 0-2.08 2.84c-.43 1.09-.98 2.12-1.32 3.24-.1.3-.57.18-.47-.12Z" opacity=".25"/><path fill="#323147" d="M64.1 27.52c.03.1.03.22.03.34 0 .68-.3 1.23-.67 1.23-.36 0-.66-.55-.66-1.23 0-.12 0-.23.02-.34h1.29Z"/><path fill="#323147" d="M60.34 28.86c.05 0 .1-.02.14-.06A4.25 4.25 0 0 1 64 27.66c.9.06 1.75.1 2.74-.82a.23.23 0 0 0 0-.33.23.23 0 0 0-.32 0c-.84.79-1.52.75-2.4.7a4.67 4.67 0 0 0-3.84 1.25.23.23 0 0 0-.03.32.26.26 0 0 0 .19.08Zm-9.52-1.34c-.02.1-.03.22-.03.34 0 .68.3 1.23.67 1.23.37 0 .67-.55.67-1.23 0-.12-.01-.23-.03-.34h-1.29Z"/><path fill="#323147" d="M53.56 28.86a.21.21 0 0 1-.12-.06c-1.28-1.25-2.15-1.2-3-1.14-.75.06-1.47.1-2.3-.82a.26.26 0 0 1-.02-.33.17.17 0 0 1 .28 0c.71.79 1.3.75 2.03.7.88-.07 1.87-.13 3.26 1.25a.26.26 0 0 1 .02.32.2.2 0 0 1-.15.08Z"/><path fill="#75A152" d="M80.45 52.84c-.27.89-.82 1.66-1.35 2.43-.57.8-1.15 1.63-1.94 2.23-.8.6-1.79.95-2.76 1.24-2.32.7-4.73 1.14-7.15 1.32-2.19.16-4.4.11-6.57.43-1.66.25-3.3.7-4.97.58a11.54 11.54 0 0 1-3.28-.86c-1.73-.68-3.44-1.54-4.66-2.9-1.22-1.36-1.87-3.3-1.26-5 .14-.41.46-.85.9-.83.28.02.51.21.71.4 3.36 3 7.58 5.32 12.16 5.62 1.14.08 2.28.03 3.43-.02.85-.04 1.71-.07 2.54-.27 1.15-.27 2.21-.82 3.35-1.16 1.16-.35 2.4-.46 3.54-.89 2.19-.8 3.76-2.62 5.24-4.38.58-.69.73-1.45 1.16-2.15 1.08 1.01 1.34 2.87.92 4.22Z"/><path fill="#568040" d="M46.5 52.3c.15-.4.46-.85.91-.82.28.01.5.2.71.39 3.36 3 7.58 5.33 12.15 5.63 1.14.08 2.29.02 3.44-.02.85-.04 1.71-.08 2.54-.27.82-.19 1.59-.53 2.37-.83-.64 1.16-.87 2.5-.03 3.55-.45.05-.89.1-1.34.13-2.19.16-4.4.11-6.57.43-1.66.25-3.3.7-4.97.58a11.54 11.54 0 0 1-3.29-.86c-1.72-.68-3.43-1.54-4.65-2.9-1.21-1.36-1.87-3.3-1.26-5Z" opacity=".37"/><path fill="#568040" d="M46.5 52.3c.15-.4.46-.85.91-.82.28.01.5.2.71.39 3.36 3 7.58 5.33 12.15 5.63 1.14.08 2.29.02 3.43-.02.86-.04 1.72-.08 2.54-.27 1.16-.27 2.22-.83 3.35-1.17 1.17-.34 2.4-.46 3.55-.88 2.19-.8 3.76-2.63 5.24-4.38.58-.7.73-1.45 1.16-2.15.15.14.28.3.4.47-.18 1.17-1 2.23-1.5 3.27-.62 1.3-.98 2.72-2 3.81a5.85 5.85 0 0 1-3.52 1.76c-.68.1-1.37.12-2.05.22-.66.1-1.3.28-1.96.39-.72.11-1.45.14-2.17.25-.73.1-1.44.23-2.17.32-.67.08-1.33.17-2 .32-.75.18-1.5.39-2.27.46-1.34.11-2.8.2-4.13-.02-.74-.12-1.45-.36-2.17-.5-.33-.08-.67-.12-1-.2-.26-.07-.53-.19-.81-.23-.51-.07-.96.2-1.28.6a10.04 10.04 0 0 1-3.14-2.24C46.56 55.94 45.9 54 46.5 52.3Z"/><path fill="#3E5C2E" d="M76.77 53.94a4.92 4.92 0 0 1-.98 1.89c-.55.57-1.37.9-2.15 1.09-1.57.38-3.27.45-4.88.63-1.4.15-2.74.11-4.09-.12a9.9 9.9 0 0 0 1.58-.22c1.15-.27 2.21-.82 3.35-1.16 1.16-.35 2.4-.46 3.54-.89 1.78-.66 3.17-2 4.42-3.42-.32.72-.53 1.47-.78 2.2Zm-15.02 4.52a7.3 7.3 0 0 1-2.98.38c-1.03-.04-2.07-.1-3.08-.26-.91-.14-1.82-.34-2.74-.46-.93-.12-1.85-.2-2.73-.59a7.09 7.09 0 0 1-2-1.18c-.64-.6-.84-1.44-.98-2.26-.14-.84 0-1.74-.12-2.56a.63.63 0 0 1 .3-.05c.27.01.5.2.7.39 3.36 3 7.58 5.33 12.15 5.63 1.05.07 2.1.04 3.16 0-.54.36-1.07.73-1.68.97v-.01Z"/><path fill="#75A152" d="M46.68 49.27v-.14a14.04 14.04 0 0 0 2.78 2.1c.47.29.94.6 1.41.88l.57.33a14.5 14.5 0 0 0 5.13 2.2c5.63 1.35 11.7.2 12.63.05 3.51-.57 5.7-1.81 7.1-3.23.28-.14.55-.32.79-.53.42-.37.79-.83 1.11-1.28a8.68 8.68 0 0 0 .96-1.75c.39-.91.66-1.86.99-2.78.71 2.73-.6 10.54-13.09 13.08-9.25 1.88-19.28-1.2-20.65-8.94h.28v.01Z"/><path fill="#75A152" d="M46.68 49.38v-.25a14.04 14.04 0 0 0 2.78 2.1c.47.29.94.6 1.41.88l.57.33a14.5 14.5 0 0 0 5.13 2.2c5.63 1.35 11.7.2 12.63.05 3.51-.57 5.7-1.81 7.1-3.23.28-.14.55-.32.79-.53.42-.37.79-.83 1.11-1.28a8.68 8.68 0 0 0 .96-1.75c.39-.91.66-1.86.99-2.78.71 2.73-.6 10.54-13.09 13.08-9.2 1.87-19.19-1.18-20.63-8.83h.26v.01Z"/><path fill="#AED888" d="M76.87 53v.13c-.04.1-.15.14-.25.18-.06.02-.12.04-.18.04s-.13-.02-.17-.07a.24.24 0 0 1-.04-.12.43.43 0 0 1 .09-.31c.2-.25.5-.12.55.16Z"/><path fill="#568040" d="M61.2 56.13c.25 0 .5.01.74.06 1.12.23 2.6.45 3.11 1.12.21.27.3.75-.2.89-.52.14-1.05-.19-1.41-.57-.39-.39-.42-.78-3.47-.58l1.23-.92Z"/><path fill="#568040" d="M46.71 49.47v-.31l.18.18c.75.75 1.67 1.32 2.57 1.89.48.29.94.6 1.42.88l.56.33a14.34 14.34 0 0 0 5.13 2.2c4.36 1.05 9 .6 11.3.26-1.19.4-2.41.68-3.56 1.18a7.5 7.5 0 0 0-2.8 1.8 2.58 2.58 0 0 0-.48.85c-7.09-.2-13.4-3.34-14.58-9.27h.27v.01Z" opacity=".37"/><path fill="#568040" d="m47.17 46.88.02.03c.49.75.98 1.51 1.37 2.32.35.71.63 1.47 1.14 2.08.27.34.8.57 1.18.8l.57.33a14.51 14.51 0 0 0 5.12 2.2c5.63 1.35 11.7.2 12.63.05 3.51-.57 5.7-1.8 7.1-3.23.24-.12.46-.26.67-.43a7.83 7.83 0 0 1-3.1 3.65c-2.33 1.38-5.18 1.5-7.83 1.72-6.04.52-14.82 2.6-16.96-3.62-.05-.16-.34-.27-.47-.35-.34-.2-.66-.44-.94-.72a5.03 5.03 0 0 1-1.26-2.25c-.17-.7.37-2 .76-2.59Z"/><path fill="#3E5C2E" d="M70.47 54.75c-1.14.2-2.3.24-3.46.27 1.12-.14 1.9-.28 2.19-.33 2.76-.45 4.7-1.3 6.07-2.34a9.24 9.24 0 0 1-4.8 2.4Zm-23.3-7.87c1.02 1 1.57 2.38 2.2 3.67a3.18 3.18 0 0 0 1.3 1.4c.73.46 1.47.88 2.25 1.26.7.33 1.4.66 2.1.95a8.87 8.87 0 0 0 2.04.57c.48.08.98.11 1.46.12 1.46.3 2.9.44 4.17.43l-1.1.12c-2.78.3-5.61.38-8.24-.69a6.34 6.34 0 0 1-1.75-1.01c-.46-.4-.76-.92-1.26-1.28-.74-.53-1.62-.78-2.24-1.43a2.2 2.2 0 0 1-.69-1.15c-.04-.23 0-.48-.03-.71-.05-.62-.47-1.2-.47-1.8.07-.15.16-.3.26-.45Z"/><path fill="#AED888" d="M79.88 52.53c-.1.14-.27.24-.36.4-.1.17-.08.38-.1.57-.01.2-.06.41-.24.52a.64.64 0 0 1-.38.08.3.3 0 0 1-.13-.02.27.27 0 0 1-.11-.12c-.34-.56.09-1.48.5-1.94.16-.18.56-.63.84-.48.3.17.15.78-.02.98Z"/><path fill="#568040" d="M63.88 56.36c.48 0 .96.04 1.43.14.48.1 1 .26 1.28.65.04.05.07.11.09.17.03.16-.11.32-.28.37a.89.89 0 0 1-.5-.05c-.62-.22-1.14-.68-1.78-.75-.26-.03-.53.02-.8.04s-.54.02-.78-.09c-.12-.06-.38-.23-.37-.39 0-.16.25-.1.36-.09.45.04.9 0 1.35 0Z"/><path fill="#B45F00" d="M60.42 28.1c.57-1.79 3.77-1.55 2.51-2.06a2.3 2.3 0 0 0-2.51 2.06Z" opacity=".36"/><path fill="#464558" d="M82.84 71.78a24.1 24.1 0 0 1-.82-7.29c.03-2.77.35-5.6 1.19-8.23.35-1.12.82-2.24 1.44-3.23 14-3.7 21.34 13.1 31.4 20.32 2.5 1.8 5.13 3.37 7.63 5.14 3 2.13 3.6 2.9 6.18 5.56 3.2 4.53 1.22 14.47-1.08 17.6-2.54 3.46-8.26 3.53-14-1.53-2.6-2.28 1.26-6.66-1.1-9.21-2.57-2.79-5.39-5.6-8.94-6.56-2.29-.61-16.86 4-21.9-12.58Z"/><path fill="#2B2B37" d="M82.84 71.78a24.1 24.1 0 0 1-.83-7.29c.04-2.77.35-5.6 1.2-8.23.35-1.12.81-2.24 1.44-3.23 14-3.7 21.34 13.1 31.4 20.32 2.5 1.8 5.12 3.37 7.63 5.14 2.99 2.13 2.93 2.21 5.5 4.88 3.93 4.08 2.3 14.28 0 17.42-2.53 3.45-8.25 3.52-14-1.53-2.6-2.29.85-5.79-1.5-8.35-2.57-2.78-5.39-5.6-8.94-6.55-2.29-.62-16.86 4-21.9-12.59Z" opacity=".25"/><path fill="#2B2B37" d="M82.01 64.5c.04-2.78.35-5.6 1.19-8.24.36-1.12.82-2.24 1.44-3.23.5-.13.99-.24 1.47-.32-.36 1.37-.38 2.9-.24 4.28a22.93 22.93 0 0 0 1.34 5.65 15.89 15.89 0 0 0 3.78 5.84c1.73 1.7 3.78 3 5.95 3.98 2.39 1.1 4.93 1.76 7.39 2.67 2.63.97 5.17 2.27 7.14 4.4 1.69 1.83 2.9 4.08 3.4 6.6.27 1.37.39 2.82.28 4.22-.04.64-.14 1.27-.27 1.9l-1.21-1.33c-2.57-2.78-5.39-5.6-8.94-6.55-2.29-.62-16.86 4-21.89-12.59-.7-2.34-.86-4.85-.82-7.29Z" opacity=".25"/><path fill="#464558" d="M94.9 82.57c-.02.42-.06.85-.14 1.27l-.63-.15c.24-.57.52-1.13.8-1.69l-.02.57Z"/><path fill="#D8D8D8" d="M106.73 66.65a5.22 5.22 0 0 1-1.48.69 4.84 4.84 0 0 1-1.57.14 7.9 7.9 0 0 1-3.15-1.03 17.23 17.23 0 0 1-2.85-1.99c-.64-.54-1.25-1.11-1.87-1.68-.54-.49-1.08-.98-1.61-1.49a32.76 32.76 0 0 1-3.56-3.91 11.4 11.4 0 0 1-2.28-4.48 4.05 4.05 0 0 1-.06-.39c8.05-.14 13.83 6.66 19.63 13.07a5.29 5.29 0 0 1-1.2 1.08Z" opacity=".08"/><path fill="#2B2B37" d="M116.38 78.8c.56.68-1.8 1.06-1.84 1.97a6.38 6.38 0 0 1-.7 2.49c-.4.8-.86 1.56-1.32 2.32-.4.68-.84 1.34-1.34 1.94l-.4.46c-1.8-1.63-3.77-3-6.05-3.62-.03 0-5.57.88-11.57-.95 1.5-.77 17.66-11.39 23.22-4.61Z" opacity=".29"/><path fill="#2B2B37" d="M82.01 64.5c.04-2.78.35-5.6 1.2-8.24.35-1.12.81-2.24 1.44-3.23a15.9 15.9 0 0 1 2.55-.46c-1.72 2.89-2.07 6.47-1.84 9.82.24 3.49 1.09 6.94 2.3 10.19a22.67 22.67 0 0 0 3 5.66 19.9 19.9 0 0 0 3.61 3.59c1 .8 2.03 1.56 2.95 2.47-11.9-1.64-12.6-6.64-14.38-12.52-.7-2.34-.86-4.86-.82-7.3v.01Z" opacity=".29"/><path fill="#2B2B37" d="M103.93 79.76c2.03-.52 4.05-1.16 6.1-1.54 1-.18 2.01-.28 3.03-.28.71 0 1.44.06 2.13.3.69.25 1.35.67 1.74 1.34.42.74.4 1.6.03 2.36a5.67 5.67 0 0 1-1.54 1.87 7.8 7.8 0 0 1-2.25 1.27c-1.76.64-3.65.66-5.48.47a2.87 2.87 0 0 1-.18-.02 11.4 11.4 0 0 0-2.77-1.17c-.03 0-5.3 1.4-11.4-.72-.54-.19-2.18-.93-2.72-1.16.04-.01 6.6-1.02 13.32-2.72h-.01Z" opacity=".29"/><path fill="#464558" d="M130.28 86.04a20.15 20.15 0 0 0-17.63-6.78c-1.2.16-2.39.44-3.6.4-.82-.01-1.65-.17-2.47-.17a6.44 6.44 0 0 0-5.6 3.75c3.74 5.54 5 12.88 3.34 19.47 6.06 2.23 8.62 2.12 14.98 3.13 1.79.28 3.7.5 5.34-.32a8.7 8.7 0 0 0 2.33-1.94c3.31-2.53 6.31-14.1 3.31-17.54Z"/><path fill="#2B2B37" d="M130.28 86.04a20.15 20.15 0 0 0-17.63-6.78c-1.2.16-2.39.44-3.6.4-.82-.01-1.65-.17-2.47-.17a6.44 6.44 0 0 0-5.6 3.75 24.7 24.7 0 0 1 3.34 19.47c6.06 2.23 8.62 2.12 14.98 3.13 1.79.28 3.7.5 5.34-.32a8.7 8.7 0 0 0 2.33-1.94c1.31-1.4 1.55-3.44 2.67-5.02 1.94-2.74 2.88-9.94.64-12.52Z" opacity=".25"/><path fill="#2B2B37" d="M103.1 80.68c.97.1 1.9.42 2.77.89.94.5 1.82 1.13 2.59 1.9.72.71 1.37 1.51 2 2.32.67.87 1.33 1.75 2.06 2.57.35.39.7.77 1.11 1.1.41.3.85.58 1.3.8.93.47 1.9.8 2.84 1.24.47.22.94.46 1.38.76.46.3.9.67 1.35 1 1.74 1.23-.08.53 1.93 1.16 2.03.63 4.15.85 6.25.68 1.24-.1 1.28-.22 2.46-.68-.37 4.32-1.14 5.92-4.16 9.17a8.66 8.66 0 0 1-2.33 1.93c-1.64.83-3.55.61-5.35.33-6.34-1.01-8.92-.9-14.98-3.13 1.66-6.59.4-13.93-3.34-19.47a6.58 6.58 0 0 1 2.12-2.57Z" opacity=".48"/><path fill="#2B2B37" d="M102.54 81.14a18.5 18.5 0 0 1 3.87 3.2c.9.95 1.8 1.94 2.57 3 .81 1.1 1.55 2.3 1.96 3.64.38 1.25.57 2.56 1.1 3.76.38.86.96 1.6 1.62 2.23a20.17 20.17 0 0 0 4.92 3.31c1.74.89-.14-.1 1.69.58.8.3 1.6.62 2.43.8.86.21 1.74.31 2.62.3a10.94 10.94 0 0 0 3.7-.74 44.7 44.7 0 0 1-2.06 2.36 8.66 8.66 0 0 1-2.32 1.94c-1.64.82-3.56.6-5.35.32-6.35-1-8.92-.9-14.98-3.13 1.66-6.59.4-13.93-3.35-19.47a6.7 6.7 0 0 1 1.58-2.11Z" opacity=".48"/><path fill="#D58500" d="m51.1 87.94-.02-.02c-1.72-2.36.62-5.53.69-5.58-.19-1.58.55-3.75 2.18-4.52 2.88-1.35 5.07-2.32 5.11-2.34-.59-.94-1.66-1.97-2.1-2.96-.4-.94-.73-1.9-.98-2.9a8.86 8.86 0 0 1-.36-2.83c.06-.83.53-1.89 1.24-2.3.64-.37 1.1.27 1.34.82.39.88.25 1.61.64 2.5.4.9 1.2 1.77 1.8 2.62.8 1.13 1.76 2.55 2.77 3.59.57.6 1.2.92 1.8 1.46 1.9 1.7 3.9 3.48 5.71 5.24.51.5 1.14.82 1.83 1.03l-.52 2.7 5.7 1.23c.24 3.32.24 8.69-1.7 10.76.04.16-.01.35-.21.4-.1.03-.2.04-.3.05a.26.26 0 0 1-.3-.01c-.48-.05-.97-.26-1.4-.4-.9-.29-1.83-.45-2.75-.6-1.65-.27-13.49 2.5-17.19.19-.05.2-.32.37-.54.2-.5-.37-1.06-.65-1.45-1.14a2.5 2.5 0 0 1-.45-1.79c.02-.33.08-.77.2-1.2a3.7 3.7 0 0 1-.88-1.57c-.15-.63-.05-2.01.14-2.61v-.02Z"/><path fill="#E2A040" d="M62.38 73.56a1.99 1.99 0 0 1-1.2-.47 2.76 2.76 0 0 1-.75-1.32 2.71 2.71 0 0 1 .05-1.55l.15.2c.7.97 1.49 2.15 2.34 3.13a2.93 2.93 0 0 1-.59.01Zm-4.08-6.7a3.39 3.39 0 0 1-.48-.94 2.9 2.9 0 0 1-.19-.92 1.88 1.88 0 0 1 .04-.46c.23.18.4.48.53.76.3.66.29 1.24.43 1.86a.99.99 0 0 1-.33-.3Z" opacity=".37"/><path fill="#B45F00" d="m51.1 87.94-.02-.02c-1.72-2.36.62-5.53.69-5.58-.19-1.58.55-3.75 2.18-4.52l1.21-.56c-.37.41-.68.9-.86 1.42-.24.66-.22 1.38.3 1.88-.47.24-.82.65-1.01 1.15-.2.53-.32 1.8-.2 2.35a4.09 4.09 0 0 0 .52 1.2c.07.09.07.2.07.3-.02.5-1.79.88-.9 2.94.11.27.33.52.35.81.03.43-1.36 2.98 1.74 4.22a7.7 7.7 0 0 0 1.76.45c.63.09 1.26.12 1.9.17.6.05 1.23.14 1.82-.08.55-.2 1.01-.6 1.39-1.06a9.93 9.93 0 0 0 1.05-1.53c.33-.6.6-1.23.95-1.81.35-.62.7-1.23 1.06-1.83.36-.61.7-1.23 1.02-1.86.14-.32.3-.63.4-.96.12-.34.22-.68.31-1.03.2-.7.45-1.37.76-2.01.31-.65.63-1.3.9-1.96.17-.38.32-.76.47-1.14.66.61 1.32 1.22 1.95 1.84.52.5 1.15.8 1.83 1.03l-.52 2.7 5.71 1.23c.23 3.32.24 8.68-1.71 10.76.05.16 0 .34-.2.4-.1.02-.2.04-.3.04a.27.27 0 0 1-.31 0c-.48-.06-.96-.26-1.4-.4-.89-.3-1.83-.45-2.74-.6-1.66-.28-13.5 2.5-17.19.18-.06.2-.32.37-.54.2-.5-.36-1.07-.64-1.46-1.14a2.5 2.5 0 0 1-.45-1.78c.02-.34.09-.78.2-1.2a3.7 3.7 0 0 1-.88-1.58c-.15-.63-.05-2 .15-2.61v-.01Z" opacity=".36"/><path fill="#B45F00" d="M60.51 94.18c.33-.92.6-1.89.75-2.87.16-1.02.22-2.04.07-3.06A11 11 0 0 0 58 82.04a16.83 16.83 0 0 1 1.08-.34c1.78-.48 3.61-.76 5.34-1.43a8.38 8.38 0 0 0 2.34-1.3 5.73 5.73 0 0 0 1.07-1.14c1.05.95 2.1 1.92 3.1 2.88.51.5 1.14.81 1.82 1.03l-.52 2.7 5.71 1.23c.23 3.32.24 8.69-1.71 10.77.05.15 0 .34-.2.4a1.24 1.24 0 0 1-.3.04.26.26 0 0 1-.31 0c-.48-.06-.96-.26-1.4-.4-.89-.3-1.83-.46-2.74-.6-1.16-.2-7.28 1.1-12.12 1.1.55-.86 1-1.82 1.35-2.8Z" opacity=".36"/><path fill="#B45F00" d="m51.1 87.94-.02-.02c-1.72-2.36.62-5.53.69-5.58-.18-1.5.48-3.55 1.96-4.4a1.44 1.44 0 0 0-.15.2 2.2 2.2 0 0 0-.38 1.1c-.04.44-.04.88.12 1.3.07.16.16.29.27.42-.3.23-.53.57-.67.94-.18.43-.24.88-.2 1.36a3.63 3.63 0 0 0 .44 1.48c.15.26.33.5.53.72a5.97 5.97 0 0 0-.53.36 2.37 2.37 0 0 0-.84 1.17 2.2 2.2 0 0 0-.08.97c.03.3.1.62.2.9.1.22.22.4.37.56l.02.05a2.13 2.13 0 0 0-.22.6 2.85 2.85 0 0 0 .17 1.73c.24.54.64 1 1.08 1.38.4.35.84.64 1.32.82.2.06.4.11.6.14.12.06.26.1.39.15a12.81 12.81 0 0 0 4.16.6 15.12 15.12 0 0 0 2.36-.27 31.04 31.04 0 0 0 2.4-.53c.73-.2 1.49-.67 2.25-.45.7.2 1.33.64 1.9 1.08.5.38.98.8 1.48 1.16-2.86.13-13.22 2.34-16.64.2a.28.28 0 0 1-.08.14l-.03.03-.04.03-.03.02h-.01a.2.2 0 0 1-.03.02h-.04l-.01.01h-.05l-.02.01h-.08l-.03-.02h-.02l-.03-.02h-.01l-.05-.03-.09-.07-.19-.13-.19-.13a2.04 2.04 0 0 1-.19-.13 1.6 1.6 0 0 1-.19-.13l-.18-.14-.09-.08a2.42 2.42 0 0 1-.25-.25l-.07-.09a2.07 2.07 0 0 1-.42-.95 2.58 2.58 0 0 1-.04-.35 4.81 4.81 0 0 1 0-.48c.03-.34.09-.77.2-1.2l-.14-.17c-.04-.05-.08-.09-.1-.14l-.1-.13a3.36 3.36 0 0 1-.53-1.13l-.01-.04a6.88 6.88 0 0 1 .15-2.57l.01-.02Zm5.62-22.97c-.36.42-.5.96-.52 1.51a10.94 10.94 0 0 0 1.54 5.3 6.9 6.9 0 0 0 4.13 2.92c-.98.06-1.62.32-2.82.78-.59-.93-1.66-1.97-2.09-2.96-.4-.93-.74-1.9-1-2.89a8.86 8.86 0 0 1-.35-2.83c.06-.83.53-1.9 1.25-2.3.2-.12.4-.14.56-.08a2.6 2.6 0 0 0-.7.56Z" opacity=".36"/><path fill="#B45F00" d="M57.2 64.8c0 .4.15 2.55 1.54 3.03-1.33-.26-2.02-1.78-1.53-3.03Zm-4.42 16.13.38-.44.1-.11a.97.97 0 0 0 .05.15c.06.16.16.3.27.42-.23.18-.42.42-.56.69l-1.26.7a2.87 2.87 0 0 1-.01-.2l1.03-1.2Zm-2.07 6.35c.76-1.03 1.78-2.24 2.49-2.47.14.23.3.45.48.63a5.97 5.97 0 0 0-.53.36 2.37 2.37 0 0 0-.84 1.18 1.27 1.27 0 0 0-.06.26c-.61.42-1.16.7-1.16.7v-.02a3.56 3.56 0 0 1-.38-.64Zm1 3.37c.17-.24.35-.48.57-.67.13-.1.27-.2.42-.25a2.9 2.9 0 0 0-.05 1.71 3.9 3.9 0 0 0-.73.56l-.11.13a4.73 4.73 0 0 1-.51-.7c.1-.28.25-.55.41-.77Z" opacity=".36"/><path fill="#E2A040" d="M52.94 87.5c-.02-1 1.06-1.4.98-.03 0 .26-.08.66-.3.8-.18.11-.37.1-.5-.08a1.2 1.2 0 0 1-.18-.68Zm.45 4c-.06-.27-.05-.56.07-.7a.38.38 0 0 1 .26-.15c.3-.05.68.24.68.63 0 .22-.14.76-.3.88-.32.24-.62-.2-.71-.66Zm1.1-9.65c.21.38.25.84.2 1.29a1.31 1.31 0 0 1-.13.5c-.36.67-.95.19-1.07-.34-.32-1.53.73-1.9 1-1.44Zm.97-2.23a1.4 1.4 0 0 1-.19.49c-.44.6-.97.05-1.02-.5-.16-1.95 1.72-2.17 1.21.01Z" opacity=".37"/><path fill="#575771" d="M59.38 82.43c1.33-.56 8.74-3.65 9.55-4.81.43.05.8.4 1.13.72 2.58 2.42 5.82 3.88 8.8 5.72.38.23.76.48 1.1.78 5.01-.8 21.44-3.94 21.96-3.72 1.24.54 9.02 9.85 2.24 22.55L78.4 97.8l.01-.02c-2.49-.27-5-.08-7.5-.07-2.73.02-5.51-.18-8-1.34a.77.77 0 0 1-.37-.28c-.1-.16-.08-.37-.05-.56.39-3.2 2.14-9.2-3.1-13.1l-.01.01Z"/><path fill="#2B2B37" d="M62.9 88.1a7.25 7.25 0 0 0 1.08 1c1.05.8 2.25 1.32 3.48 1.76 1.28.45 2.63 1 4 1 1.31-.01 2.54-.54 3.85-.67.64-.06 1.28-.03 1.9-.23.77-.23 1.6-.47 2.33-.02.44.26.76.63 1.1 1 .26.3.54.6.9.74.52.2 1.09.14 1.62.04.72-.13 1.4-.37 2.1-.59a6.85 6.85 0 0 1 2.18-.4c.66.01 1.32.14 1.94.36 1.18.4 2.25 1.1 3.24 1.89 1 .8 1.95 1.68 2.95 2.5a19.63 19.63 0 0 0 2.7 1.85c1.84 1.04 3.89 1.9 5.99 2 .48.03.95 0 1.42-.07a25.47 25.47 0 0 1-1.52 3.43L78.4 97.81l.01-.02c-2.49-.27-5-.08-7.5-.07-2.73.02-5.51-.18-8-1.34a.77.77 0 0 1-.37-.28c-.1-.16-.08-.37-.05-.56.22-1.86.9-4.66.42-7.44Z" opacity=".25"/><path fill="#A4A4A4" d="M103.5 89.12c-.72-.6-1.45-1.25-2.03-2.01-.63-.82-1.33-1.66-1.66-2.67a2.31 2.31 0 0 1-.08-1.43c.18-.54.61-.97 1.07-1.23.5-.3 1.06-.38 1.6-.3 1.26 1.16 3.95 4.9 4.44 10.25-1.06-.93-2.24-1.71-3.33-2.6v-.01ZM73.7 82.2a4.6 4.6 0 0 1-2.11.54 3.79 3.79 0 0 1-2.03-.42c-.7-.4-1.1-1.26-1.32-2.05a7.75 7.75 0 0 1-.27-1.9c.48-.29.82-.55.96-.76.43.06.8.41 1.13.72a24.6 24.6 0 0 0 4.43 3.18 2.48 2.48 0 0 1-.78.68Z" opacity=".14"/><path fill="#2B2B37" d="M69.55 97.02a13.43 13.43 0 0 0 1.55-.7c.48-.24.96-.52 1.38-.87a4.63 4.63 0 0 0 1.62-2.72c.12-.63.15-1.33.56-1.84.3-.37.68-.65 1.04-.95.36-.29.69-.63.87-1.08.21-.52.25-1.1.21-1.66a12.01 12.01 0 0 0-.96-3.49 27.3 27.3 0 0 0-.85-1.91c1.3.75 2.61 1.47 3.89 2.26.38.24.76.48 1.1.78 2.1-.34 6.18-1.08 10.26-1.8l-1.68.64c-1.38.5-2.77.98-4.13 1.55-.47.2-.96.4-1.4.7-.36.23-.69.53-.85.96a2.3 2.3 0 0 0 .05 1.57c.08.22.18.45.2.7.03.3-.07.6-.17.9-.18.58-.45 1.13-.64 1.7a5.3 5.3 0 0 0-.26 1.93 8.54 8.54 0 0 0 2.54 5.36L78.4 97.8l.01-.02c-2.49-.27-5-.08-7.5-.07a30.94 30.94 0 0 1-3.28-.13c.65-.14 1.3-.34 1.93-.57h-.01Z" opacity=".25"/><path fill="#2B2B37" d="M70.92 96.72c1.52-.66 2.96-1.46 4.5-2.04 1.48-.57 3.01-1 4.58-1.1a12.56 12.56 0 0 1 4.67.58c2.8.9 5.29 2.58 7.73 4.23 1.22.82 2.45 1.65 3.72 2.38a25.58 25.58 0 0 0 5.07 2.24L78.4 97.8v-.03c-2.48-.26-5-.08-7.5-.06-.86 0-1.73-.01-2.6-.08.9-.25 1.76-.56 2.62-.92Z" opacity=".25"/><path fill="#2B2B37" d="M83.77 97.5c2.57-.01 5.03-.94 7.25-2.28-2.44-2.73-5.22-8.55-5.25-8.6a4.7 4.7 0 0 1-.63-1.83c-.01-.31.45-.31.46 0 .04.61.37 1.18.64 1.71.02.05 2.51 5.54 5.19 8.46 3.17-2 8.46-6.75 9.44-10.44.06-.24.53-.26.5.05 0 .03-.08.25-.25.64-.74 2.08-3.96 6.65-9.35 10.1l.07.07c1.64 1.56 8.2 6.24 10.49 6.07.3-.03.3.47 0 .49-2.42.18-8.93-4.48-10.7-6.1a5.84 5.84 0 0 1-.27-.27c-.33.2-.65.39-.99.57a14.19 14.19 0 0 1-6.6 1.85c-.3.01-.3-.48 0-.48Z"/><path fill="#D8D8D8" d="M122.24 81.1c1.3-.1 2.63.06 3.82.6a5.96 5.96 0 0 1 2.88 2.67c.23.45.4.95.36 1.45-.03.5-.3 1.01-.74 1.2a1.2 1.2 0 0 1-.63.07c-1.55-.2-2.19-2.44-3.69-2.87-.3-.08-.61-.1-.92-.13a4.36 4.36 0 0 1-1.12-.3 2.25 2.25 0 0 1-1.12-.85c-.25-.42-.28-1 .02-1.38.27-.34.72-.41 1.13-.45h.01Z" opacity=".08"/></svg>