<svg fill="none" height="126" viewBox="0 0 97 126" width="97" xmlns="http://www.w3.org/2000/svg"><path d="m42.3314 40.8876c1.6122-1.1681 3.2244-2.3363 4.8367-3.5044.412-.3001.8321-.6001 1.3041-.8001 1.8603-.7761 4.0606.336 5.2567 1.9602 1.1962 1.6243 1.6683 3.6485 2.2924 5.5648.624 1.9162 1.5202 3.8925 3.2204 4.9767-2.2443.192-4.5566.38-6.7089-.2921-.6921-.216-1.3522-.52-2.0123-.8201-1.7002-.7801-3.4485-1.5922-4.6926-2.9884-1.2042-1.3562-1.9123-3.2284-3.4965-4.0966z" fill="#74a352"/><path d="m47.168 37.3832c.412-.3.8321-.6001 1.3041-.8001.0881-.036.1761-.068.2641-.096.056.5801.344 1.1481.7321 1.6042.524.6201 1.2641 1.1522 2.0763 1.2962.7001.124 1.4202.12 2.1323.16.236.012.472.028.712.048.7401 1.4042 1.1402 2.9924 1.6363 4.5126.6241 1.9163 1.5202 3.8925 3.2204 4.9767-2.2443.192-4.5566.38-6.7089-.2921-.6921-.216-1.3522-.52-2.0123-.8201-1.7002-.7801-3.4484-1.5922-4.6926-2.9884-1.2042-1.3522-1.9083-3.2244-3.4965-4.0925 1.6082-1.1722 3.2204-2.3403 4.8327-3.5085z" fill="#568040"/><path d="m52.1284 38.6874c-.7801-.06-1.6322-.4441-1.9683-1.1922-.168-.372-.184-.7641-.112-1.1481 1.3482.108 2.6804.9441 3.5525 2.0442-.4361.2401-.9681.3361-1.4722.2961z" fill="#aed888"/><path d="m47.1681 37.3832c.412-.3001.8321-.6001 1.3041-.8001.068-.028.1361-.052.2041-.0761v.0201c-.06.9161.44 1.7042 1.0921 2.3043.3481.32.7321.596 1.1322.8401.476.288.9641.544 1.4842.7441.8641.332 1.7722.524 2.6763.7201.3601.9721.6401 1.9882.9602 2.9764.624 1.9162 1.5202 3.8925 3.2204 4.9766-2.2443.1921-4.5566.3801-6.7089-.292-.6921-.216-1.3522-.5201-2.0123-.8201-1.7002-.7801-3.4484-1.5922-4.6926-2.9884-1.2042-1.3522-1.9083-3.2244-3.4965-4.0926 1.6122-1.1761 3.2244-2.3443 4.8367-3.5124z" fill="#3e5c2e"/><path d="m61.6538 68.9514c.6721-2.5643.9601-5.3807-.128-7.797-.4881-1.0842-1.2042-2.0003-2.0403-2.8364h6.8209c1.9163 3.1804 1.0562 8.3851.3401 11.7736-.6241 2.9604-1.5362 5.8608-2.2043 8.8092-.2681 1.1881-.5001 2.3883-.6521 3.5965-.5361 4.2125-.044 8.7891 2.5763 12.1336 1.7803 2.2723 4.3646 3.7605 6.985 4.9727 10.3094 4.7604 19.7466 1.3124 23.1071 16.3424h-4.4886c-.8601-4.409-4.9407-7.529-9.0532-9.413-4.2126-1.933-8.8532-3.121-12.4857-5.997-2.4764-1.9606-4.3286-4.5929-5.9808-7.2853-3.0804-5.0207-5.6648-10.7894-4.8567-16.6222.3601-2.6324 1.3922-5.1127 2.0603-7.6771z" fill="#74a352"/><path d="m64.4458 78.8968c-.268 1.1882-.5 2.3884-.652 3.5965-.1361 1.0602-.2041 2.1403-.1921 3.2205-.528.484-.9801 1.0881-1.3241 1.7162-.1801.328-.3281.6721-.4241 1.0361-1.7442-3.7645-2.8204-7.785-2.2603-11.8456.364-2.6283 1.3922-5.1087 2.0643-7.673.6721-2.5644.9601-5.3807-.1281-7.7971-.488-1.0841-1.2041-2.0002-2.0402-2.8364h6.8209c1.9163 3.1805 1.0561 8.3852.34 11.7736-.624 2.9644-1.5402 5.8648-2.2043 8.8092z" fill="#568040"/><path d="m85.153 105.144c.572-.44 1.1281-.936 1.5602-1.52 4.4486 1.556 7.9571 4.321 9.7453 12.318h-4.4886c-.8601-4.409-4.9407-7.529-9.0532-9.413-.052-.024-.1-.044-.1521-.068.8602-.309 1.6683-.765 2.3884-1.317z" fill="#568040" opacity=".52"/><path d="m88.7014 109.241c.6841-.404 1.3082-.92 1.8483-1.5.368-.396.7401-.88 1.0081-1.404 2.1403 1.9 3.8286 4.812 4.9007 9.605h-4.4886c-.4921-2.528-2.0483-4.633-4.0566-6.321.2721-.104.5361-.228.7881-.38z" fill="#568040" opacity=".52"/><path d="m59.5895 76.6246c.3641-2.6284 1.3922-5.1087 2.0643-7.6731.6721-2.5643.9601-5.3807-.128-7.797-.4881-1.0842-1.2042-2.0003-2.0403-2.8364h6.8209c1.9163 3.1804 1.0562 8.3851.3401 11.7736-.6241 2.9604-1.5362 5.8608-2.2043 8.8092-.2681 1.1881-.5001 2.3883-.6521 3.5965-.5361 4.2125-.044 8.7891 2.5763 12.1336.4961.6361 1.0602 1.2122 1.6683 1.7362-.1401.1641-.2681.3361-.3841.5121-.12.176-.224.3561-.312.5481-1.0642-1.3122-2.0043-2.7364-2.8884-4.1766-3.0804-5.0247-5.6648-10.7894-4.8607-16.6262z" fill="#568040" opacity=".52"/><path d="m64.4458 78.8968c-.268 1.1882-.5 2.3884-.652 3.5965-.1201.9481-.1881 1.9203-.1921 2.8884-.428.248-.7681.7121-.9921 1.0962-.18.308-.344.644-.4241.9961-.108.456-.136.9201-.144 1.3842-1.8522-3.8765-3.0284-8.0371-2.4483-12.2377.364-2.6283 1.3922-5.1087 2.0643-7.673.6721-2.5644.9601-5.3807-.128-7.7971-.4881-1.0841-1.2042-2.0002-2.0403-2.8364h6.8209c1.9163 3.1805 1.0561 8.3852.34 11.7736-.624 2.9644-1.5402 5.8648-2.2043 8.8092z" fill="#568040"/><path d="m64.4458 78.8969c-.268 1.1881-.5 2.3883-.652 3.5964-.016.1161-.028.2321-.0401.3481-.9041-.076-1.8082.136-2.6563.4641-.3361.128-.6641.292-.9641.488-.6241-2.3443-.8722-4.7526-.5401-7.1689.364-2.6284 1.3922-5.1087 2.0643-7.6731.6721-2.5643.9601-5.3807-.1281-7.797-.488-1.0842-1.2041-2.0003-2.0402-2.8364h6.8209c1.9163 3.1804 1.0561 8.3851.34 11.7736-.624 2.9604-1.5402 5.8608-2.2043 8.8052z" fill="#3e5c2e"/><path d="m68.4348 97.6354c-.18-.124-.32-.2761-.472-.4321-.0681-.072-.1081-.192-.04-.264.06-.06.156-.044.236-.02.372.108 1.1441.416 1.1001.9121-.132.072-.292.068-.436.02-.14-.048-.2681-.132-.3881-.216z" fill="#aed888"/><path d="m84.2407 103.78c-.204 0-.4081 0-.6121 0 .132.164.2.376.184.584-.504.144-1.0441-.056-1.5122-.296-.124-.064-.244-.132-.336-.236s-.14-.252-.096-.38c.068-.2.316-.268.524-.304.6361-.108 1.3282-.212 1.8923.1.088.048.176.112.22.2s.04.212-.04.276c-.056.056-.144.056-.224.056z" fill="#aed888"/><path d="m57.5692 69.8717c1.4082.168 2.7564.8001 3.7886 1.7762-1.5683 2.6243-1.8203 5.8168-1.8363 8.8772-.06 11.9616 3.3085 16.5502 12.2057 22.9629 3.6845 2.657 7.537 5.225 10.3214 8.813 3.8485 4.957 4.1045 10.494 2.3803 13.598h-8.0971c1.4722-1.984 1.8282-4.74 1.4522-7.233-.9281-6.125-5.4568-11.013-9.9494-15.274-4.4926-4.2604-9.3612-8.593-11.3575-14.4578-2.0803-6.1248-.6641-12.8417 1.0921-19.0625z" fill="#74a352"/><path d="m61.4857 96.6432c.2161-.6921.1441-1.6083.8282-2.0523.06-.04.12-.072.184-.104 1.9562 3.2604 4.9526 5.9211 9.2292 9.0011 2.0203 1.456 4.0886 2.884 6.0048 4.469-.024.012-.048.02-.068.032-.6681.332-1.1961.928-1.4962 1.608-.196.444-.276.904-.3 1.384-.028.564.012 1.128.096 1.684.048.324.116.644.192.964-1.9242-3.876-5.1287-7.217-8.3211-10.245-2.1923-2.08-4.4726-4.1765-6.4649-6.4568.044-.092.084-.184.116-.284z" fill="#568040" opacity=".52"/><path d="m80.1282 110.129c.6801.684 1.3282 1.404 1.9203 2.172 3.4364 4.425 4.0085 9.313 2.8643 12.518.8322-5.101-1.0241-10.197-4.7846-14.69z" fill="#aed888"/><path d="m59.5213 80.621c-.004 1.5322.044 3.0644.188 4.5886.032.328.068.6561.108.9841-.408-.132-.8401-.192-1.2722-.192-.488 0-.9681.076-1.4442.176-.428.0881-.8521.2001-1.2641.3481-1.0722-5.4488.2-11.2375 1.7282-16.6543 1.4082.1681 2.7564.8001 3.7885 1.7763-1.5682 2.6243-1.8202 5.8168-1.8362 8.8772.004.032.004.064.004.096z" fill="#568040"/><path d="m59.5411 82.3452c-.128-.04-.2601-.076-.3921-.108-.5401-.1241-1.0881-.1881-1.6402-.2241s-1.1042-.06-1.6562-.068c-.136 0-.2681 0-.4041 0 .048-4.0405 1.0162-8.1571 2.1243-12.0776 1.4082.168 2.7564.8001 3.7885 1.7762-1.5682 2.6244-1.8202 5.8168-1.8362 8.8772-.008.6281 0 1.2362.016 1.8243z" fill="#3e5c2e"/><path d="m68.2266 103.424c7.181 5.685 17.3503 12.198 14.586 22.471h-6.4809c1.4722-1.984 1.8282-4.741 1.4522-7.233-.9281-6.125-5.4568-11.013-9.9494-15.274-.6641-.632-1.3401-1.264-2.0082-1.9.7921.656 1.5962 1.3 2.4003 1.936z" fill="#568040"/><path d="m68.2866 103.816c.172.108.336.22.4961.34.5.376.9601.796 1.4082 1.232.384.372.7521.756 1.1481 1.116.5161.469 1.0561.913 1.5802 1.373 1.0282.912 2.0323 1.872 2.8804 2.96.9161 1.176 1.6082 2.496 2.2163 3.853.6201 1.384 1.1162 2.824 1.4042 4.316.248 1.304.34 2.624.224 3.949-.084.988-.232 1.98-.492 2.936h-2.8204c1.4722-1.984 1.8282-4.741 1.4522-7.233-.8961-5.917-5.1567-10.681-9.4973-14.842z" fill="#3e5c2e"/><path d="m58.9535 89.5662c-.1081-.2281-.1841-.5121-.052-.7241.152-.2481.528-.2721.7761-.116.244.156.384.436.468.7121.064.212.108.432.128.652.02.2041-.012.4601-.204.5401-.172.068-.36-.056-.4921-.188-.256-.252-.468-.5521-.624-.8761z" fill="#aed888"/><path d="m17.4877 37.1351.616-.2121c.8322 1.7763 1.6523 3.5205 2.4604 5.2327 14.3699 30.4482 27.3277 55.9476 43.3138 83.7353h-5.4407c-15.2901-26.7515-32.4524-60.4601-44.478-85.3635-.076-.156-.152-.312-.228-.468-.0761-.1561-.1521-.3161-.2281-.4721-.048-.1-.096-.196-.144-.296z" fill="#d8d8d8"/><path d="m58.4372 125.895c-1.9683-3.444-3.9686-7.009-5.9888-10.649 1.0641-1.253 2.2363-2.413 3.3884-3.589 2.6044 4.705 5.2768 9.437 8.0411 14.242h-5.4407z" fill="#d8d8d8"/><path d="m49.6479 104.44c.2841-.86.5521-1.744.8161-2.636 2.5604 4.752 5.1727 9.509 7.8651 14.31-.8761 1.816-1.6122 3.68-2.2763 5.572-2.4843-4.404-5.0087-8.969-7.541-13.625.36-1.213.7361-2.421 1.1361-3.621z" fill="#a4a4a4"/><path d="m34.5339 80.925c.588-1.9723 1.1081-4.1326 1.8762-6.1568 2.5644 5.1047 5.1367 10.1453 7.7491 15.146-.5761 1.2202-1.1922 2.4323-1.6042 3.7005-.2321.7081-.4401 1.4202-.6481 2.1323-2.5284-4.7686-5.0407-9.5733-7.509-14.3459.044-.1601.088-.3161.136-.4761z" fill="#a4a4a4"/><path d="m20.3082 51.657c.66-1.8642 1.4642-3.6605 2.1602-5.4887 3.4085 7.177 6.753 14.1019 10.0814 20.8508-.4321.9001-.8681 1.7883-1.1521 2.6844-.3961 1.2521-.7321 2.5243-1.0522 3.8005-3.6445-7.141-7.145-14.1259-10.4134-20.7468.124-.3641.248-.7321.3761-1.1002z" fill="#a4a4a4"/><path d="m13.7313 40.0635c-.076-.156-.152-.3161-.228-.4721-.048-.1-.0961-.196-.1441-.296l4.1286-2.1603.6161-.2121c.8321 1.7763 1.6522 3.5205 2.4603 5.2328.3721.7881.7361 1.5522 1.1082 2.3363-.7601 2.2323-1.7563 4.3766-2.5564 6.6129-1.8002-3.6565-3.5325-7.201-5.1607-10.5775-.076-.152-.148-.308-.224-.464z" fill="#a4a4a4"/><path d="m18.0516 36.943-.5641.192-4.1285 2.1603c.048.1.096.1961.144.2961.076.156.152.316.228.472.076.1561.152.3121.2281.4681.7401 1.5282 1.5002 3.0964 2.2763 4.6926.8721-2.2243 1.8242-4.4046 2.5883-6.6529-.26-.544-.516-1.0841-.7721-1.6282z" fill="#a4a4a4" opacity=".33"/><path d="m18.1836 37.0311c.0761.156.1521.316.2281.4721.076.156.152.316.228.472s.152.3161.228.4721.152.312.2281.4681c8.7091 18.0344 16.8902 34.2086 24.3072 48.3425 7.429 14.1661 14.0739 26.2631 19.6987 36.1211.4361.764.9201 1.608 1.4442 2.512h-.6161c-.444-.78-.8961-1.568-1.3522-2.376-5.6087-9.834-12.2376-21.903-19.6466-36.0371-7.393-14.1019-15.5581-30.2401-24.2433-48.2345-.076-.156-.152-.312-.228-.4681-.076-.156-.152-.312-.2281-.472-.076-.156-.152-.3161-.228-.4721s-.152-.316-.228-.4721z" fill="#a4a4a4"/><path d="m18.1836 37.0311c.0761.156.1521.316.2281.4721.076.156.152.316.228.472s.152.3161.228.4721.152.312.2281.4681c8.7091 18.0344 16.8902 34.2086 24.3072 48.3425 7.429 14.1661 14.0739 26.2631 19.6987 36.1211.4361.764.9201 1.608 1.4442 2.512h-.6161c-.444-.78-.8961-1.568-1.3522-2.376-5.6087-9.834-12.2376-21.903-19.6466-36.0371-7.393-14.1019-15.5581-30.2401-24.2433-48.2345-.076-.156-.152-.312-.228-.4681-.076-.156-.152-.312-.2281-.472-.076-.156-.152-.3161-.228-.4721s-.152-.316-.228-.4721z" fill="#a4a4a4" opacity=".33"/><path d="m13.1114 38.9194 1.2401 2.5244 2.8684.54 1.4002-3.2244-1.1401-2.4163z" fill="#d8d8d8"/><path d="m17.3119 41.7718 1.3082-3.0124-1.1401-2.4163-4.3686 2.5763.6841 1.3922c1.3641-.344 2.7803.3161 3.5164 1.4602z" fill="#a4a4a4"/><path d="m18.416 38.3272-.9361-1.9843-4.3686 2.5764.6161 1.2562c1.0281-.5081 2.3603-1.4002 4.6886-1.8483z" fill="#a4a4a4" opacity=".33"/><path d="m22.6323 33.1826.8521 1.6922-.02.008c-.2041.26-3.4405 2.0123-7.4571 4.0365-4.0165 2.0243-7.34896 3.5805-7.681 3.5925l-.02.012-.85212-1.6922z" fill="#a4a4a4"/><path d="m15.1679 37.2473c-4.1912 2.1109-7.64276 3.7149-7.70934 3.5827-.06659-.1322 3.27704-1.9506 7.46824-4.0614 4.1912-2.1109 7.6428-3.7149 7.7094-3.5827s-3.2771 1.9506-7.4683 4.0614z" fill="#d8d8d8"/><path d="m12.7914 38.1633-11.75763-23.5431c-.076006-.1561-.120012-.3201-.140015-.4841-.020002-.164-.011996-.3241.016008-.4721.032005-.152.088006-.292.164017-.412.07601-.124.17602-.2281.30004-.3081l1.88025-1.2321c.12402-.0801.25604-.1241.39206-.1401.13601-.016.27204.004.40405.052.13202.0481.25604.1241.36805.2241.11202.104.20803.232.28404.384l11.96963 23.9833z" fill="#21212b"/><path d="m12.7914 38.1633-7.77309-15.5581.008-.028-.012.02-3.7085-7.429c.004 0-.27204-.548-.27204-.548-.076006-.1561-.120012-.3201-.140015-.4841-.020002-.164-.011996-.3241.016008-.4721.032005-.152.088006-.292.164017-.412.07601-.124.17602-.2281.30004-.3081l1.88025-1.2321c.12402-.0801.25604-.1281.39206-.1401.13601-.016.27204.004.40405.052.13202.0481.25604.1241.36805.2241.11202.104.20803.232.28404.384l11.96963 23.9833zm-.7601-2.3163 2.0242.056 1.1162-1.8762-2.0283-.052zm.336-3.5165c1.3442-2.2763 1.6362-1.7682-.9321-1.8282l-1.0522 1.7802zm-3.51647-6.7289 1.04014-1.7722-1.81225-.028-1.03613 1.7722zm-.15203 3.2205 1.9643.036.9241-1.5682-1.96027-.052zm-1.39618-6.6609.99213-1.8403-1.94026-.024-1.06814 1.8403zm-.6681-5.3247-1.96826-.0201-1.05214 1.8243 1.96427.02zm-3.66448-3.6125-1.12815 1.9522 2.05627.016 1.10415-1.9242z" fill="#323147"/><path d="m4.40998 11.8478c.04801.044.09202.096.13202.148.14002.408.25203.8321.33605 1.2642l-1.91226-.0401-1.12815 1.9523 2.05627.016 1.01214-1.7642c.19202 1.0601.24003 2.1603.18002 3.1724-.004.072-.008.148-.016.224l-.40805-.004-1.05214 1.8243 1.20816.012c-.15202.7481-.38006 1.5122-.7041 2.1483l-2.81237-5.6328c.004 0-.27204-.5481-.27204-.5481-.076006-.156-.120012-.32-.140015-.484-.020003-.1641-.012005-.3241.015998-.4721.032005-.152.088016-.292.164027-.412.07601-.1241.17602-.2281.30004-.3081l1.88025-1.2322c.12402-.08.25604-.124.39205-.14.13602-.016.27203.004.40405.052.12802.048.25604.124.36405.2241z" fill="#21212b" opacity=".37"/><path d="m12.7913 38.1633-.9681-1.9362c.14-.1201.276-.2441.4121-.3721l1.8242.048 1.1162-1.8762-1.4602-.04c.024-.04.048-.084.072-.1241.436-.8361.5441-1.5442.5761-2.3203l2.3083 4.6687z" fill="#21212b" opacity=".37"/><path d="m16.6675 36.211-11.96959-23.9833c-.21603-.436-.65209-.7281-1.10815-.6481 1.08815-.184 1.41219-.316 1.86025.1721.08401.088.15603.192.21203.312l11.87356 23.7112z" fill="#464557"/><path d="m18.5878 37.8712.004.008-.324.244-4.4606 2.2123-.04-.088c-.8482.4521-1.2242.7161-1.2082.7521.032.064 1.6642-.6961 3.6445-1.6962 1.9803-.9962 3.5605-1.8563 3.5325-1.9203-.016-.028-.5241.196-1.1482.4881z" fill="#d8d8d8"/><path d="m12.559 40.9957c.032.068 1.6643-.6921 3.6445-1.6882 1.9803-.9962 3.5605-1.8563 3.5325-1.9203l2.9964 6.2888-.008.004c-.096.1241-1.6282.9522-3.5245 1.9083-1.9002.9561-3.4764 1.6922-3.6325 1.6962l-.008.004z" fill="#464557"/><path d="m16.2035 39.3073c1.9803-.9961 3.5605-1.8562 3.5325-1.9202-.016-.032-.5201.192-1.1482.484l.004.0081-.324.244-4.4607 2.2123.9522-.3121c.444-.216.9321-.46 1.4442-.7161z" fill="#a4a4a4" opacity=".37"/><path d="m19.6801 37.4392c.04-.028.056-.0481.056-.0521l.016.0361.8841 1.8322c.6641 1.2682.9121 1.7962 1.1602 2.3243 15.5261 32.9005 28.6359 58.2639 43.6499 84.3153h-8.6212c-14.2259-24.827-29.94-55.3114-41.9617-80.0547l-2.2683-4.7647-.036-.08c.072.1441 6.3969-3.0284 7.121-3.5564z" fill="#a4a4a4"/><path d="m19.6801 37.4392c.04-.028.056-.0481.056-.0521l.016.0361.8841 1.8322c.6641 1.2682.9121 1.7962 1.1602 2.3243 15.5261 32.9005 28.6359 58.2639 43.6499 84.3153h-8.6212c-14.2259-24.827-29.94-55.3114-41.9617-80.0547l-2.2683-4.7647-.036-.08c.072.1441 6.3969-3.0284 7.121-3.5564z" fill="#21212b"/><path d="m12.559 40.9956c.068.1441 6.3969-3.0284 7.121-3.5564.04-.028.056-.0481.056-.0521l.016.0361.7041 1.4562c-.8842.592-6.4449 3.3884-7.185 3.6124l-.6761-1.4162z" fill="#a4a4a4"/><path d="m5.00217 55.1816c.60408-7.233 3.51247-12.3417 10.28543-15.5261 2.1682 2.5884.9561 8.2251 1.4882 11.5616.9681 6.0888 2.5723 12.0576 3.6404 18.1304 3.2005 18.2305 1.4162 37.3095-5.1006 54.6315-.2081.548-.4401 1.128-.9082 1.48-.312.236-.6961.344-1.0801.436h-8.0331c-.016-.092-.028-.184-.04-.272-.64009-5.185-1.23216-10.397-1.56421-15.61-.20402-3.172-.97613-8.021-.40005-11.0215.31604-1.6442 1.29217-3.1004 1.65622-4.7366.51207-2.3003-.22803-4.6686-.7761-6.961-.79611-3.3164-2.42433-7.725-1.84025-11.1055.32805-1.9082 1.06014-3.7245 1.54021-5.6007 1.21216-4.7527.7801-9.7453 1.07614-14.638.02-.26.03601-.5161.05601-.7681z" fill="#464558"/><path d="m5.00217 55.1816c.60408-7.233 3.51247-12.3417 10.28543-15.5261 2.1682 2.5884.9561 8.2251 1.4882 11.5616.9681 6.0888 2.5723 12.0576 3.6404 18.1304 3.2005 18.2305 1.4162 37.3095-5.1006 54.6315-.2081.548-.4401 1.128-.9082 1.48-.312.236-.6961.344-1.0801.436h-8.0331c-.016-.092-.028-.184-.04-.272-.64009-5.185-1.23216-10.397-1.56421-15.61-.20402-3.172-.97613-8.021-.40005-11.0215.31604-1.6442 1.29217-3.1004 1.65622-4.7366.51207-2.3003-.22803-4.6686-.7761-6.961-.79611-3.3164-2.42433-7.725-1.84025-11.1055.32805-1.9082 1.06014-3.7245 1.54021-5.6007 1.21216-4.7527.7801-9.7453 1.07614-14.638.02-.26.03601-.5161.05601-.7681z" fill="#2b2b37" opacity=".25"/><path d="m4.95024 94.2508c.51206-2.3003-.22804-4.6686-.77611-6.9609-.79611-3.3164-2.42433-7.725-1.84025-11.1055.32804-1.9082 1.06014-3.7245 1.54021-5.6007 1.21216-4.7527.78011-9.7454 1.07615-14.638.016-.2561.032-.5121.056-.7641.16002-1.9243.48406-3.6965 1.00013-5.3248.06001 2.1323.39206 4.2526 1.01214 6.3089 1.05614 3.5045 2.82838 6.8409 5.54879 9.3333 2.2843 2.0882 5.0686 3.4884 7.969 4.5126 3.0404 18.0264 1.2242 36.8534-5.2127 53.9634-.208.548-.44 1.128-.9081 1.48-.312.236-.6961.344-1.0801.436h-8.03311c-.01601-.092-.02801-.184-.04001-.272-.64009-5.185-1.23217-10.397-1.56421-15.61-.20403-3.172-.97614-8.021-.40006-11.0215.31204-1.6442 1.28818-3.1004 1.65223-4.7367z" fill="#2b2b37" opacity=".25"/><path d="m2.3337 76.1884c.18802-1.1001.51207-2.1683.84412-3.2364.50006 1.9283 1.06014 3.8405 1.66022 5.7288 2.1923 6.9209 4.73665 13.8058 8.42116 20.0867 1.9242 3.2805 4.1325 6.4045 6.6329 9.2655-1.0962 5.424-2.6204 10.761-4.5686 15.942-.2081.548-.4401 1.128-.9082 1.48-.312.236-.6961.344-1.0801.436h-8.03309c-.016-.092-.02801-.184-.04001-.272-.64008-5.185-1.23217-10.397-1.56421-15.61-.20403-3.172-.97614-8.021-.40006-11.0215.31605-1.6442 1.29217-3.1004 1.65622-4.7366.51207-2.3003-.22802-4.6687-.7761-6.961-.80411-3.3164-2.42833-7.721-1.84425-11.1015z" fill="#2b2b37" opacity=".25"/><path d="m6.32671 113.433c-.004-.244-.016-.488-.024-.728.10801.748.20401 1.497.29202 2.245-.10801-.5-.25602-1.008-.26802-1.517z" fill="#464558"/><path d="m4.95013 94.2509c.51207-2.3003-.22804-4.6686-.77611-6.9609-.79611-3.3165-2.42434-7.7251-1.84026-11.1055.32805-1.9083 1.06015-3.7245 1.54021-5.6008.64409-2.5323.82412-5.1327.89613-7.749.46807 1.9202 1.03214 3.8365 1.22017 5.8008.22403 2.3203.052 4.6446-.05601 6.9609-.11202 2.2883-.16402 4.6126.29604 6.8729.46007 2.2763 1.4562 4.3966 2.07628 6.6249.31605 1.1322.58008 2.3203.57208 3.5005-.008 1.2042-.076 2.4043-.09601 3.6085-.02 1.2321.18003 2.4483.22003 3.6765.03601 1.1763-.11201 2.2603-.62008 3.3283-.39606.832-.89613 1.616-1.23618 2.472-1.94826 4.901.39206 16.479.56808 17.287.13602.628.29205 1.256.46807 1.876.10001.348.19203.696.28804 1.048h-3.16444c-.016-.092-.028-.184-.04-.272-.64009-5.185-1.23217-10.397-1.56421-15.61-.20403-3.172-.97613-8.021-.40006-11.0214.30805-1.6443 1.28418-3.1005 1.64823-4.7367z" fill="#2b2b37" opacity=".25"/><path d="m4.71014 114.198c1.10415 1.272 2.28831 2.464 3.60048 3.52 1.68823 1.36 3.53648 2.544 5.52478 3.416.7201.317 1.4642.593 2.2203.809-.2401.68-.4841 1.36-.7401 2.036-.2081.548-.4401 1.128-.9082 1.48-.312.236-.6961.344-1.0801.436h-8.03309c-.016-.092-.028-.184-.04001-.272-.50806-4.1-.98012-8.217-1.32417-12.338.26004.308.51607.613.78011.913z" fill="#2b2b37" opacity=".25"/><path d="m2.4458 80.305c.40406 1.5282.99614 2.9964 1.77224 4.3846.57208 1.0281 1.22417 2.0122 1.84825 3.0084.50007.8001 1.00015 1.6202 1.33619 2.5043.33605.8841.49607 1.8163.47606 2.7604-.02 1.0401-.31604 2.0563-.10401 3.0964.18002.8881.58808 1.7042.81211 2.5804.11201.448.18002.9161.12801 1.3805-.056.54-.24802 1.032-.49206 1.516-.7841 1.572-1.94826 2.904-3.09242 4.228-.55207.641-1.12015 1.289-1.63222 1.977-.28404-2.925-.6561-6.405-.20404-8.7495.31605-1.6442 1.29219-3.1004 1.65624-4.7366.51207-2.3003-.22804-4.6687-.77612-6.961-.50006-2.0763-1.32417-4.5766-1.72823-6.9889z" fill="#2b2b37" opacity=".25"/><path d="m10.879 120.138c.3481-.552.7681-1.072 1.0082-1.68.48-1.212.196-2.572.244-3.876.068-1.817.7921-3.593.6041-5.397-.144-1.38-.8081-2.645-1.2402-3.965-.372-1.144-.5681-2.344-.5801-3.544-.012-1.12.3441-2.2245.3121-3.3286-.06-2.0683-.116-4.1526-.152-6.2369-.044-2.7724-.3161-5.5167-.5561-8.2811-.24-2.7444-.296-5.4567-.14-8.2051.2-3.5645.012-6.8769-.2841-10.0254 0-.004 0-.008 0-.008-.004-.016-.004-.036-.008-.052-.09198-.9641-.19199-1.9122-.29201-2.8524-.29204-4.3005.18403-7.561 1.56021-11.5215.5761-1.6522 1.2042-3.2845 1.7722-4.9367.5041-1.4602.9802-2.9364 1.2882-4.4526.124-.6081.2281-1.2242.2921-1.8402.188-.0961.38-.1881.576-.2801 2.1683 2.5884.9562 8.2251 1.4882 11.5616.9682 6.0888 2.5724 12.0576 3.6405 18.1304 3.2005 18.2305 1.4162 37.3086-5.1007 54.6316-.208.548-.44 1.128-.9081 1.48-.312.236-.6961.344-1.0801.436h-2.9444c.132-.436-.44008-.576-.5881-.844-.15602-.284-.21603-.556-.22003-.856 0-.096.004-.196.016-.3.13602-1.328.58003-2.629 1.29213-3.757z" fill="#21212b" opacity=".37"/><path d="m9.15493 67.6593c.14402.5081.15202 1.0521-.04001 1.5682-.12001.3281-.37604.6441-.72409.6761-.43206.04-.76811-.36-.97614-.7441-.36005-.6681-.88412-1.6922-.7801-2.4723.056-.4121.34405-.8242.7561-.8762.36805-.048.7161.1961.96813.4681.36805.3921.65209.8721.79611 1.3802z" fill="#d8d8d8" opacity=".08"/><path d="m15.0752 110.833c.4721-.328.4321.832.9762.632 1.8522-.68 3.9005-.428 5.8527-.144 6.0209.872 12.1177 1.956 18.1545 1.204 1.7842-.22 3.5405-.6 5.2967-.98 2.2883-.496 4.5766-.988 6.8689-1.484.3241-.072.8962-1.156 1.2282-1.16 3.2925 4.8 5.2687 11.317 5.7688 16.994h-47.3584c-.168-4.392 2.1883-12.594 3.2124-15.062z" fill="#575770"/><path d="m15.0752 110.833c.4721-.328.4321.832.9762.632 1.8522-.68 3.9005-.428 5.8527-.144 6.0209.872 12.1177 1.956 18.1545 1.204 1.7842-.22 3.5405-.6 5.2967-.98 2.2883-.496 4.5766-.988 6.8689-1.484.3241-.072.8962-1.156 1.2282-1.16 3.2925 4.8 5.2687 11.317 5.7688 16.994h-47.3584c-.168-4.392 2.1883-12.594 3.2124-15.062z" fill="#2b2b37" opacity=".25"/><path d="m45.9875 124.667c1.1601-1.66 2.5643-3.136 4.0525-4.501 1.5722-1.44 3.2565-2.776 5.0687-3.9.5361-.332 1.0842-.648 1.6483-.944 1.3281 3.46 2.1602 7.169 2.4603 10.573h-14.0219c.248-.42.512-.828.7921-1.228z" fill="#575770"/><path d="m15.0753 110.833c.4721-.328.4321.832.9761.632 1.8523-.68 3.9006-.428 5.8528-.144 6.0209.872 12.1177 1.956 18.1545 1.204 1.7842-.22 3.5405-.6 5.2967-.98 2.2883-.496 4.5766-.988 6.8689-1.484.3241-.072.8962-1.156 1.2282-1.16.7041 1.028 1.3482 2.136 1.9323 3.296-.7801 1.26-1.9483 2.213-3.2525 2.897-1.4922.784-3.1244 1.268-4.7646 1.628-1.7123.372-3.4525.612-5.1927.828-4.4006.544-8.8572.612-13.2418 1.3-4.3606.684-8.6812 2.08-12.0256 5.073-.6681.596-1.2562 1.26-1.7603 1.976h-3.2844c-.168-4.396 2.1883-12.598 3.2124-15.066z" fill="#2b2b37" opacity=".25"/><path d="m13.0509 79.6249c-2.4483-17.0383-1.3122-22.9271.232-29.7321.7681-3.3884 1.6123-6.7809 2.0083-10.2373 3.6765-1.8803 7.9731-2.9124 10.9895-1.3762 4.0766 2.0763 2.5203 4.0045 7.085 4.3126 1.7522.12 3.5484.096 5.2167-.4601 1.6682-.5561 3.2004-1.7122 3.8725-3.3365 7.457.0961 14.866 2.5324 20.9268 6.877.3281.236.6761.508.7881.8961.1561.5561-.22 1.1121-.592 1.5562-.8002.9601-1.6763 1.8643-2.3804 2.9004-1.5482 2.2723-2.1763 5.0327-2.7203 7.729-.8922 4.4246-1.6363 8.8812-2.2323 13.3579-3.8926 29.2241 4.2605 28.7041-3.0885 36.0051-1.7242 1.716-.7921.716-3.2124.956-9.4693.936-19.0666.816-28.4518-.756-2.2163-.372-1.0882 3.856-2.9284 2.572-8.92525-6.209-4.3166-22.923-5.5128-31.2641z" fill="#575770"/><path d="m46.1555 39.0354c.088.012.172.02.26.032-.088.148-.188.288-.288.4241.012-.1521.02-.3041.028-.4561z" fill="#575770"/><path d="m13.0509 79.6249c-2.4483-17.0383-1.3122-22.9271.232-29.7321.7681-3.3884 1.6123-6.7809 2.0083-10.2373 3.6765-1.8803 7.9731-2.9124 10.9895-1.3762 4.0766 2.0763 2.5203 4.0045 7.085 4.3126 1.7522.12 3.5484.096 5.2167-.4601 1.6682-.5561 3.2004-1.7122 3.8725-3.3365 1.2242.016 2.4483.0961 3.6645.2361-.004.172-.016.344-.032.512-.048.0601-.096.1201-.14.1801-.5801.7201-1.2682 1.3442-1.9563 1.9562-1.8202 1.6203-3.5845 3.3005-5.5247 4.7807-1.1042.8441-2.2644 1.5922-3.4405 2.3323-1.1642.7281-2.3403 1.4402-3.5565 2.0843-2.0923 1.1161-4.3086 2.0563-6.6369 2.5283-.128-.216-.26-.428-.404-.6361-.0161-.02-.0481 0-.0361.02.1401.2041.2721.4121.3961.6241-.332.068-.6681.124-1.0041.168-.024.004-.016.0441.012.0401.12-.0161.24-.0321.36-.0521.22-.036.4361-.076.6521-.12.3641.6121.6921 1.2522 1.0882 1.8443.42.6321.9281 1.2681 1.6442 1.5762.34.148.7201.2 1.0881.16.5001-.052.9802-.248 1.4402-.44 1.0882-.4601 2.1043-1.0842 3.0644-1.7683.9962-.7121 1.9403-1.4882 2.8684-2.2883 1.5802-1.3602 3.1444-2.7444 4.6406-4.1966 1.5123-1.4682 2.9724-3.0444 4.0606-4.8606.7201-1.2002 1.2642-2.5324 1.4122-3.9126.116-.152.232-.316.336-.492 6.0729.7561 11.9537 3.0364 16.9303 6.6009.3281.236.6761.508.7881.8961.1561.5561-.22 1.1121-.592 1.5562-.8002.9601-1.6763 1.8643-2.3804 2.9004-1.5482 2.2723-2.1763 5.0327-2.7203 7.729-.2081 1.0282-.4081 2.0603-.6001 3.0925-1.0682 1.0321-2.1603 2.0442-3.1644 3.1364-1.8483 2.0123-3.4325 4.4006-3.4685 7.229-.012.7801.068 1.5802.296 2.3283.2481.8241.6361 1.5922 1.0962 2.3163.8401 1.3282 1.8922 2.5163 2.7283 3.8485-1.4082 20.607 4.3366 20.907-2.2043 27.412-1.7242 1.716-.7921.716-3.2124.956-9.4693.936-19.0666.816-28.4519-.756-2.2163-.372-1.0881 3.856-2.9283 2.572-8.92925-6.209-4.3206-22.923-5.5168-31.2641z" fill="#575770"/><path d="m44.7752 45.6683c.6361-1.6122 1.7843-3.2365 2.8244-4.6206.4041-.5401.8601-1.1002 1.3882-1.5683 5.1647 1.0122 10.1173 3.1285 14.3939 6.1929.3281.236.6761.5081.7881.8961.1561.5561-.22 1.1122-.592 1.5562-.8002.9601-1.6763 1.8643-2.3804 2.9004-1.5482 2.2723-2.1763 5.0327-2.7203 7.7291-.2081 1.0281-.4081 2.0602-.6001 3.0924-1.0682 1.0321.7361 3.7885-.2681 4.8806-.8881.9642-4.6046.2721-5.2287 1.4162l.5001 1.1642c-.6361.5881-1.5322.7841-2.3883.9321-3.3325.5761-6.965.7441-9.8893-.9481-1.4122-.8161-2.5644-2.0243-3.5285-3.3405-1.1002-1.5082-6.5849-8.0931-7.185-9.8613 9.5253 5.2127 12.8257-5.1887 14.886-10.4214z" fill="#2b2b37" opacity=".25"/><path d="m40.3826 63.5867c4.4606-4.5326 2.6764-18.9946 8.6052-24.1073 5.1647 1.0122 10.1174 3.1285 14.3939 6.1929.3281.236.6761.5081.7881.8961.1561.5561-.22 1.1122-.592 1.5562-.8002.9601-1.6763 1.8643-2.3804 2.9004-1.5482 2.2723-2.1763 5.0327-2.7203 7.7291-.2081 1.0281-.4081 2.0602-.6001 3.0924-1.0682 1.0321.7361 3.7885-.2681 4.8806-.8881.9642-4.6046.2721-5.2287 1.4162l.5001 1.1642c-.6361.5881-1.5322.7841-2.3883.9321-3.3325.5761-6.9649.7441-9.8893-.9481-1.1082-.6401-2.0563-1.5202-2.8764-2.5044 1.1121-.8481 1.6722-2.2003 2.6563-3.2004z" fill="#2b2b37" opacity=".25"/><path d="m44.8073 70.1756c.9281-1.4522 1.5882-3.0644 1.9163-4.7606.4-2.0803.296-4.1766-.02-6.2609-.1681-1.1241-.3801-2.2403-.5441-3.3644-.16-1.0882-.26-2.1723-.28-3.2725-.04-2.1123.124-4.2445.56-6.3168.3561-1.6802.9322-3.2805 1.6443-4.8407.292-.6401.608-1.2722.9921-1.8642 5.1327 1.0201 10.0493 3.1284 14.3019 6.1768.3281.236.6761.5081.7881.8961.156.5561-.22 1.1122-.5921 1.5562-.8001.9602-1.6762 1.8643-2.3803 2.9004-1.5482 2.2723-2.1763 5.0327-2.7203 7.7291-.2081 1.0281-.4081 2.0602-.6001 3.0924-1.0682 1.0321 1.1041 3.5325.096 4.6246-.8881.9641-4.9727.5281-5.5968 1.6722l.5001 1.1642c-.6361.5881-1.5322.7841-2.3883.9321-1.9403.3361-3.9846.5321-5.9328.3041.092-.1161.176-.2441.256-.3681z" fill="#2b2b37" opacity=".25"/><path d="m38.4263 50.3529c-.8202.7481-1.6643 1.4802-2.5084 2.2043-.9441.8121-1.9042 1.6043-2.9244 2.3204-.9801.688-2.0123 1.3161-3.1244 1.7602-.4561.184-.9361.368-1.4362.372-.388.004-.7721-.092-1.1081-.284-.7081-.404-1.1962-1.1121-1.6163-1.7922-.3-.4881-.568-.9962-.8601-1.4882 2.4243-.4921 4.7207-1.4882 6.889-2.6644 1.2081-.6561 2.3803-1.3682 3.5404-2.1003 1.1642-.7361 2.3123-1.4882 3.4005-2.3363 1.8962-1.4722 3.6405-3.1204 5.4287-4.7166.6961-.6241 1.3962-1.2602 1.9643-2.0043-.04.356-.104.7081-.196 1.0561-.5281 2.0243-1.7643 3.8045-3.1125 5.3688-1.3281 1.5442-2.8283 2.9284-4.3365 4.3045z" fill="#2b2b37" opacity=".25"/><path d="m23.2842 81.7972c-6.7089-3.2804-5.1607-9.0452-2.0802-10.7294.424-.2321.8761-.3721 1.3361-.5041.4841-.136.9722-.256 1.4642-.356 1.0402-.2081 2.0923-.3481 3.1485-.4201 2.1282-.148 9.7813-.28 11.8976-.004 4.5366.5881 8.8652 2.1683 13.0577 3.9525.9482.4041 1.8923.8282 2.8404 1.2322.3001.128.6001.256.9001.3841-.456 4.0925-.6601 7.537-.7081 10.4574-9.9173-5.1647-27.2997-1.7843-31.8563-4.0126z" fill="#2b2b37" opacity=".25"/><path d="m13.051 79.6249c-2.4483-17.0383-1.3122-22.9271.232-29.732.7681-3.3885 1.6123-6.7809 2.0083-10.2374 1.2642-.6481 2.6044-1.1922 3.9365-1.5682.3161 1.1201.6841 2.2283 1.0962 3.3164 1.6002 4.2566 3.7725 8.3172 6.5529 11.9216 2.7684 3.5885 6.0168 6.837 9.7493 9.4213 3.7085 2.5684 7.8611 4.4606 12.2377 5.5528 1.1521.288 2.3163.524 3.4884.7081 1.3002.204 2.6044.36 3.9206.356.12 0 .236-.004.356-.004-.136.9201-.264 1.8403-.388 2.7604-3.8926 29.2041 4.2565 28.7081-3.0885 36.0051-1.7242 1.716-.7921.716-3.2124.956-9.4693.936-19.0666.816-28.4519-.756-2.2163-.372-1.0881 3.856-2.9283 2.572-8.92125-6.217-4.3126-22.931-5.5088-31.2721z" fill="#2b2b37" opacity=".11"/><path d="m13.0509 79.6249c-2.4484-17.0383-1.3122-22.9271.232-29.732.7681-3.3885 1.6122-6.7809 2.0083-10.2374.224-.116.452-.228.68-.336-.656 2.3643-.54 4.9406-.2 7.409.4841 3.5284 1.4122 7.0569 1.1802 10.6414-.14 2.1643-.4481 4.3406-.3041 6.5129.1121 1.7242.6561 3.2964 1.5882 4.7486.8922 1.3882 2.0043 2.6084 3.0685 3.8645 1.1641 1.3722 2.2043 2.7724 2.9324 4.4246 1.5442 3.5125 2.1643 7.341 3.6245 10.8815.7041 1.7042 1.6122 3.2645 2.7523 4.7127 1.2082 1.5362 2.5844 2.9323 4.0526 4.2165 2.9364 2.5644 6.1848 4.6608 9.6333 6.4608 1.7642.92 3.5365 1.876 5.4367 2.492.9081.296 1.8483.525 2.8044.605.7561.064 1.5162.036 2.2723-.02-.4361.568-.9801 1.176-1.6562 1.848-1.7243 1.716-.7921.716-3.2125.956-9.4692.936-19.0665.816-28.4518-.756-2.2163-.372-1.0881 3.856-2.9284 2.572-8.92521-6.209-4.3166-22.923-5.5127-31.2641z" fill="#2b2b37" opacity=".25"/><path d="m15.2752 39.7635c.004-.036.008-.072.012-.108.012-.004.024-.012.036-.016-.016.04-.032.084-.048.124z" fill="#575770"/><path d="m17.5194 43.224c.2681-1.7283.8041-3.7966 1.9763-5.2127.8201-.2161 1.6322-.3681 2.4283-.4361-2.2283 7.0129 1.6723 11.1055 7.357 16.1942.14.352.2881.7001.4481 1.0441.8961 1.9603 2.0603 3.8085 3.5285 5.3928 1.5882 1.7162 3.5244 3.1004 5.4847 4.3566.9601.616 1.9403 1.2041 2.9204 1.7842 6.1728 8.1891 11.2295 20.0267 10.7255 39.5089v.068c-2.3284 1.361-4.6487 3.909-6.973 3.533-.34-36.193-31.4883-43.1699-27.8958-66.233z" fill="#2b2b37" opacity=".25"/><path d="m13.0508 79.6249c-2.4483-17.0383-1.3122-22.9271.232-29.732.0401-.176.0801-.3521.1201-.5281-.08.7561-.1441 1.5122-.1841 2.2723-.216 4.0086-.076 8.0451 1.0082 11.9336.544 1.9603 1.3762 3.7966 2.0763 5.7008.644 1.7563 1.0801 3.5565 1.1481 5.4327.08 2.2404.044 4.4687.272 6.701.1921 1.8602.4401 3.7485.9562 5.5527.7721 2.6924 2.1643 5.1367 4.1685 7.101 2.0403 2.0002 4.5086 3.4884 7.009 4.8366 3.2044 1.7245 6.4569 3.4285 9.8933 4.6525 3.7165 1.324 7.6971 2.22 11.6616 2.004 1.4442-.076 2.8684-.304 4.2726-.64-.4881.968-1.2882 1.981-2.5284 3.213-1.7242 1.716-.7921.716-3.2124.956-9.4693.936-19.0666.816-28.4518-.756-2.2163-.372-1.0882 3.856-2.9284 2.572-8.92524-6.217-4.3166-22.931-5.5128-31.2721z" fill="#2b2b37" opacity=".25"/><path d="m13.0507 79.6249c-.496-3.4525-.8441-6.4489-1.0721-9.0892.252.316.464.6681.6481 1.0081.7681 1.4042 1.2681 2.9204 1.4722 4.5046.388 3.0004.448 6.0288.7561 9.0372.148 1.4562.352 2.9124.6841 4.3406.34 1.4522.7721 2.9484 1.4442 4.2886 1.1921 2.3723 2.8803 4.4886 4.9246 6.1848 1.0362.8564 2.1523 1.6444 3.3525 2.2484 1.2841.644 2.6443 1.116 4.0245 1.512 1.3922.4 2.8044.74 4.1926 1.16 1.3762.416 2.7724.896 4.0085 1.641 1.4522.876 2.6484 2.072 3.9286 3.16-6.6689.188-13.3498-.2-19.9307-1.3-2.2163-.372-1.0882 3.856-2.9284 2.572-8.91724-6.213-4.3086-22.927-5.5048-31.2681z" fill="#2b2b37" opacity=".25"/><path d="m45.4311 40.6316c-.104 1.4242-.4521 2.9044-1.1602 4.1566-.32.5641-.7081 1.0441-1.2481 1.4082-.6881.4601-1.4642.7801-2.2563 1.0041-1.6723.4721-3.4245.5921-5.1527.6241-1.9443.036-3.8806-.044-5.8208-.172-2.0563-.136-4.1326-.276-6.1849-.008-1.8722.24-3.6404.8401-5.2887 1.7602-2.3203 1.2922-4.4006 3.0884-6.0048 5.2207.2761-1.6282.6121-3.1524.9682-4.7286.7681-3.3885 1.6122-6.7809 2.0082-10.2374 3.6765-1.8802 7.9731-2.9124 10.9895-1.3762 4.0766 2.0763 2.5203 4.0046 7.085 4.3126 1.7522.12 3.5484.096 5.2167-.4601 1.6682-.556 3.2004-1.7122 3.8725-3.3364.9841.012 1.9683.068 2.9484.16.068.5521.072 1.1162.028 1.6722z" fill="#2b2b37" opacity=".25"/><path d="m44.9433 43.236c-.6801.7881-1.5242 1.4282-2.4803 1.8482-.8201.3561-1.6882.5721-2.5644.7401-.9361.1801-1.8722.3521-2.8203.4201-.9802.072-1.9643.072-2.9484.104-.4881.016-.9802.036-1.4682.08-.4721.044-.9362.116-1.4042.1881-1.9563.292-3.9326.14-5.8928-.0361-.9842-.088-1.9643-.18-2.9484-.22-.6841-.028-1.3562-.08-2.0083-.316-1.0601-.3801-1.8882-1.1482-2.4643-2.1003-.6001-.9881-.9602-2.1043-1.2682-3.2124-.144-.5121-.272-1.0322-.4081-1.5483 3.4405-1.5682 7.261-2.3043 10.0094-.9001 4.0766 2.0763 2.5203 4.0046 7.085 4.3126 1.7522.12 3.5484.096 5.2167-.4601 1.6682-.556 3.2004-1.7122 3.8725-3.3364.9841.012 1.9683.068 2.9484.16.068.5561.072 1.1162.032 1.6722-.06.8682-.216 1.7603-.4881 2.6044z" fill="#2b2b37" opacity=".25"/><path d="m46.6992 113.129c1.3202-9.429-4.7847-33.4401-11.0495-40.425-1.3002-1.4522-2.6244-2.8804-3.9725-4.2886-1.9403-2.0283-20.6708-19.1626-10.1414-30.1361-2.6564 9.7934 10.6894 19.6747 20.3427 31.5363 9.8694 12.1336 11.0135 38.7494 9.1733 41.3214-.9521 1.34-2.7364 1.716-4.3526 1.992z" fill="#2b2b37"/><path d="m23.1963 47.6566c-.6521-.044-1.3042.072-1.9163.332-.9561.4121-1.7802 1.1202-2.3843 1.9883-1.1041-4.0645-.7241-8.1971 2.6364-11.6976-.8321 3.1004-.072 6.2049 1.6642 9.3773z" fill="#21212b"/><path d="m46.9834 82.2372c-1.0122-.224-2.0283-.432-3.0524-.576-1.1082-.1561-2.2443-.2521-3.3645-.1401-.8401-2.0722-1.7282-3.9525-2.6404-5.5447 2.0963-.212 4.2206-.26 6.3129-.004.5201.064 1.0401.148 1.5562.252.9361 1.9883 1.7402 4.1166 2.4323 6.3049-.412-.12-.8321-.2041-1.2441-.2921z" fill="#21212b"/><path d="m46.3832 103.608c.3801.176.7722.328 1.1642.46.8881.3 1.8122.512 2.7444.624.492.06.9921.096 1.4922.096.036 3.321-.2401 5.673-.7281 6.353-.9521 1.336-2.7404 1.712-4.3566 1.988.336-2.4.192-5.748-.3161-9.521z" fill="#21212b"/><path d="m28.1331 61.5704c-.8562-1.5762-2.4164-3.8645-3.5245-5.2727.04-.012 20.0227-8.6732 21.6229-18.0144 1.9803 8.7132-16.1582 22.079-18.0984 23.2871z" fill="#2b2b37"/><path d="m44.6352 44.8242c-.304.02-.608.056-.9081.104-.5841.1-1.1521.2561-1.7242.3961-.048.012-.1.024-.148.036 2.2643-2.2163 3.9565-4.6246 4.3766-7.081.456 2.0003-.1481 4.2446-1.3722 6.5289-.076.004-.152.012-.2241.016z" fill="#21212b"/><path d="m14.1551 104.712c13.9219 3.593 26.7596 4.205 41.5656.54v7.545c-11.2095 5.285-30.5161 5.161-41.2736-.476z" fill="#2b2b37"/><path d="m30.1453 107.481c-.196.468-.308.964-.144 1.464.196.616.7201 1.032 1.2642 1.344.6481.372 1.3522.636 2.0203.972.624.312 1.2761.704 1.6362 1.324.26.452.28.956.36 1.457.04.248.092.504.2201.724.1.18.232.34.38.484.6521.616 1.5402.936 2.3683 1.24.092.032.18.064.2721.096-8.7332.416-17.8344-1-24.0673-4.265l-.296-7.609c5.4287 1.404 10.6974 2.353 15.9861 2.769z" fill="#21212b" opacity=".46"/><path d="m44.8673 107.469c-.9002 1.12-2.1083 1.948-3.5005 2.32-1.3602.364-2.8004.308-4.1606-.02-1.4602-.348-2.8484-.992-4.0965-1.824-.1481-.1-.2961-.204-.4401-.308 4.0806.188 8.1851.056 12.4017-.436-.068.092-.136.18-.204.268z" fill="#464557" opacity=".25"/><path d="m53.8166 108.125c.256.088.512.228.664.464.1481.224.1881.512.1561.776-.072.564-.5001.996-.9482 1.3-.564.388-1.2121.648-1.8602.852-2.2043.696-5.3327.868-5.6128-.548-.08-.396.2001-.764.4641-1.024.9561-.952 5.5407-2.356 7.137-1.82z" fill="#464557" opacity=".25"/><path d="m20.8842 106.224c.012.168.028.337.048.501.072.648.204 1.288.28 1.936.028.236.068.504.008.736-.12.464-.316.896-.532 1.32-.4121.816-.8402 1.636-.8161 2.576.008.228.036.44.104.657.06.184.132.368.216.544.02.04.04.08.06.12-2.1123-.624-4.0686-1.389-5.8048-2.297l-.296-7.609c2.2723.588 4.5086 1.096 6.7329 1.516z" fill="#21212b"/><path d="m51.5524 115.41c.5681.624.8641 1.476 1.1042 2.272.228.752.444 1.536.58 2.312.108.62.1601 1.257.2281 1.881.036.312.072.624.116.936.016.108.032.22.056.328.008.036.016.072.028.112 0 .004.004.008.004.012.124.156-.06.42-.256.3-.1401-.088-.1561-.292-.1841-.436-.052-.3-.088-.604-.124-.904-.08-.66-.136-1.325-.232-1.985-.108-.728-.3201-1.46-.5201-2.168-.232-.816-.5041-1.736-1.0841-2.376-.1721-.192.112-.476.284-.284z" fill="#2b2b37"/><path d="m45.9953 84.9576c.4001-.056.7041.3361.9081.6841 1.7963 3.0804 2.7764 6.6329 2.8124 10.2014 0 .16-.016.3521-.16.4241-.192.1-.3921-.112-.5081-.2921-.2-.32-.404-.6401-.6041-.9601.5681 1.4562.8562 3.0204.8442 4.5846 0 .1841-.016.3881-.1521.5124-.324.292-.7761-.1883-.9121-.6044-.388-1.2041-.452-2.4883-.7361-3.7245-.24-1.0561-.6361-2.0683-.9641-3.1004-.6641-2.0963-1.0482-4.2846-1.1322-6.4849-.02-.5081.1001-1.1722.6041-1.2402z" fill="#464557" opacity=".25"/><path d="m33.4734 54.0695c-.068-.3281.2281-.6121.5161-.7801.288-.1681.6321-.3081.7681-.6121-.188.212-.5761-.016-.5961-.2961-.02-.284.1921-.528.4041-.7121.212-.184.4361-.352.6681-.508 1.3322-.9082 2.8084-1.6003 4.3606-2.0363.096.4761-.2681.9161-.6481 1.2162-.3841.296-.8321.56-1.0321 1.0001.172.008.344.016.516.02-.456.7441-1.2001 1.2522-1.9242 1.7362-.5121.3441-1.0242.6881-1.5403 1.0322-.248.164-.504.336-.8001.364-.292.028-.628-.136-.6921-.424z" fill="#464557" opacity=".25"/><path d="m22.4163 49.1528c.132.032.24.116.34.208.7801.7081 1.2442 1.7563 1.2442 2.8084 0 .088-.004.184-.052.2601-.088.136-.2761.156-.4321.136-.492-.06-.9201-.3841-1.2041-.7881-.2801-.4041-.4321-.8882-.5321-1.3722-.06-.2761-.1-.5681-.008-.8321.092-.2641.372-.4841.6441-.4201z" fill="#464557" opacity=".25"/><path d="m59.3169 45.6243c.1161.148.2321.3001.2881.4801.148.4761-.172 1.0041-.6121 1.2362-.4401.232-.9681.236-1.4642.184-.9761-.104-1.9523-.4041-2.7364-.9962-1.3722-1.0321-1.9002-3.5844.5521-3.4564 1.4362.072 3.1124 1.4722 3.9725 2.5523z" fill="#d8d8d8" opacity=".14"/><path d="m28.2209 49.9289c.032.136.04.2881.012.4241-.024.108-.068.204-.144.284-.2521.268-.7041.192-1.0202.004-1.7762-1.0561.6441-2.9564 1.1522-.7121z" fill="#d8d8d8" opacity=".14"/><path d="m19.5479 60.2583c.1121.3441.1681.6761.1561.8761-.02.2961-.2001.6121-.4921.6681-.8121.156-1.5042-1.9442-1.0801-2.4683.604-.7361 1.1561.12 1.4161.9241z" fill="#d8d8d8" opacity=".14"/><path d="m19.2925 24.6015c.5401-2.2243 0-8.4412 0-8.4412l2.6244-2.3403s4.7606 23.8832 6.1688 24.8834c.9321.66 2.0043 1.3521 2.2683 2.4643-.8441.156-1.6602-.304-2.4763-.5681-1.1322-.368-2.3643-.372-3.4885-.7641-3.9325-1.3682-6.0128-11.4735-5.0967-15.234z" fill="#323147"/><path d="m25.9212 38.5873c-.8881-.068-1.7962-.232-2.4923-.8241-.6801-.5801-1.0802-1.4122-1.3242-2.2563-.132-.4601-.196-.9321-.316-1.3922-.1401-.5281-.3361-1.0321-.5561-1.5322-.22-.5041-.4601-1.0041-.6641-1.5162-.208-.5281-.36-1.0642-.4561-1.6202-.204-1.2242-.176-2.4644.012-3.6885.1361-.9002.3401-1.7883.5441-2.6764.152-.084.3201-.156.4481-.24.136-.092.264-.2081.392-.3121.1521-.124.3041-.248.4601-.364.32-.2401.6521-.4761 1.0121-.6441.1601-.076.3281-.136.4961-.176 1.4402 6.7289 3.5005 15.7501 4.4606 17.1943-.012 0-.024.004-.036.004-.6521.084-1.3202.092-1.9803.044z" fill="#464558" opacity=".41"/><path d="m31.2058 36.8231c-9.3093.244-11.2296-11.9376-11.0855-13.9819.06-.8521.26-1.6922.308-2.5443.088-1.5722-.332-3.1324-.292-4.7047.324-11.90557 19.0625-7.56898 21.4829 3.5085 1.4362 6.5649-3.2285 17.5344-10.4134 17.7224z" fill="#d58500"/><path d="m20.8886 16.1083c.5001-1.1321 1.1042-2.2963 2.1603-3.0084.5401-.364 1.1442-.5561 1.7763-.6961.6761-.148 1.3642-.24 2.0563-.284 2.5803-.156 5.4047.268 7.521 1.8522 1.8282 1.3682 3.0284 3.4245 3.6165 5.6048.3 1.1121.456 2.2643.456 3.4164.004 1.1882-.168 2.3564-.468 3.5045-.7121 2.7204-1.9683 5.3808-3.9366 7.425-.476.4921-.9881.9562-1.5002 1.4042-.532.4681-1.0841.9161-1.6722 1.3162-.088.06-.18.12-.268.18-8.8132-.26-10.6535-11.9816-10.5095-13.9819.0601-.8521.2601-1.6922.3081-2.5443.052-.8921-.064-1.7803-.164-2.6684.192-.5121.404-1.0201.624-1.5202z" fill="#d58500"/><path d="m33.5062 34.5308c2.0563-1.8803 3.4405-4.4166 4.2646-7.057.3641-1.1721-.4161-3.0164-.392-4.2486.236-11.5015-12.8258-16.87424-17.1264-5.6847-.072-.6481-.136-1.3002-.116-1.9523.324-11.9056 19.0626-7.56901 21.4829 3.5085 1.4362 6.5729-3.2324 17.5384-10.4134 17.7264-.172.004-.34.004-.5081 0 1.0122-.6681 1.9123-1.4762 2.8084-2.2923z" fill="#b45f00" opacity=".36"/><path d="m29.0773 18.8846c.7841-2.3643 2.9804-3.1084 4.1926-2.6163.104.04.236.108.264.228.22.9041-3.8485 1.7242-3.5125 3.1604.4161 1.7883 4.6046.4241 9.9574 2.2123.376.1241-.3801.2201-.076.4881.124.108.232.252.212.4281-.024.236-.212.432-.3881.572-.44.3481-.9681.4721-1.5202.4681-.26-.004-.516-.024-.7721-.048-.288-.024-.5801-.04-.8681-.064-1.2962-.112-2.6003-.2961-3.9045-.212-.9681.06-1.9883.04-2.8364-.4881-1.8442-1.1442-1.2962-2.4803-.7481-4.1286z" fill="#b45f00" opacity=".36"/><path d="m28.7093 8.53125c-.5721.12802-1.1202.34805-1.6602.58008-.4721.20002-.9522.37205-1.4122.59208-.5361.25603-1.0602.55209-1.5322.91209-.7921.6041-1.4442 1.3962-2.0083 2.2123-.296.4281-.5721.8761-.7841 1.3522-.188.4201-.34.8801-.292 1.3442.032.3.104.5921.072.8921-.032.3001-.112.5961-.132.9001-.02.2721.024.5401.068.8081.048.2601.1.5241.168.7801.132.5041.296 1.0202.5721 1.4602.256.4041.616.7281.8961 1.1122.136.188.248.392.312.6161.076.28.084.5641.072.8521-.024.5761-.124 1.1482-.292 1.6962-.3641 1.1962-1.0041 2.2603-1.7602 3.2485-.7201-2.2923-.9322-4.3206-.8802-5.0487.06-.8521.2601-1.6922.3081-2.5444.088-1.5722-.3321-3.1324-.2921-4.7046.1481-5.4087 4.0926-7.46501 8.5852-7.06095 0-.004-.004-.004-.008 0z" fill="#b45f00" opacity=".36"/><g fill="#e2a040" opacity=".36"><path d="m22.3248 20.3768c-.22-.116-.324-.4-.204-.6241.224-.412.8561.0721.8961.3721.048.368-.4641.372-.6921.252z" opacity=".36"/><path d="m36.2708 20.4408c-.1001.064-.2161.08-.3361.056-.104-.02-.224-.06-.284-.156-.1-.16.008-.36.14-.468.28-.2321.6401-.076.6801.072.052.18-.04.396-.2.496z" opacity=".36"/><path d="m24.305 18.3206c-.056.192-.3321.16-.4801.124-.164-.044-.456-.188-.408-.4001.072-.3.9801-.044.8881.2761z" opacity=".36"/><path d="m35.1544 18.4006c-.22.06-.5041.052-.7041-.064-.096-.056-.18-.144-.164-.2641.016-.132.116-.204.248-.216.156-.012.7961-.176.8521.24.02.1561-.096.2681-.232.3041z" opacity=".36"/><path d="m30.6418 15.3162c-.116-.2401-.08-.5561-.016-.8081.136-.5401.4641-1.0842 1.0642-1.0802.176 0 .372.06.464.22.1121.2041.04.4561-.056.6521-.124.2561-1.1321 1.6883-1.4562 1.0162z" opacity=".36"/></g><path d="m22.3566 20.8689c.5081-.064 1.0281-.072 1.5402-.068.5161.004 1.0361.028 1.5482.092.7161.088 1.4442.248 2.1043.5441.208.312.3121.6921.3681 1.0601.068.4481.088.9041.088 1.3562 0 .4361-.016.8721-.092 1.3042-.012.068-.028.14-.044.212-1.3642-.316-2.7204-.6801-4.0406-1.1402-1.2682-.44-2.5204-.9721-3.6885-1.6402.036-.372.096-.7441.152-1.1161.6561-.3001 1.3362-.5121 2.0643-.6041z" fill="#b45f00" opacity=".36"/><path d="m20.1206 22.8412c.004-.072.012-.144.02-.216 1.6282.9281 3.4045 1.5922 5.1967 2.1203 2.1123.62 4.2686 1.0481 6.4329 1.4482 1.3242.244 2.6604.444 4.0045.568.6881.064 1.3802.108 2.0723.1321.2761.008.5561.0039.8321.016.1281.004.2561.012.3801.036.036.008.084.016.128.028-.02.012-.04.02-.06.028-.024.012-.004.044.02.036.032-.012.06-.028.088-.044.02.012.04.024.052.04.016.02.052 0 .036-.02-.012-.016-.028-.032-.048-.044.052-.032.104-.068.156-.1041 0 .02-.004.0441-.004.0641-.004.024.036.024.04 0 .004-.0321.004-.0601.008-.0921.004 0 .004-.004.008-.004.016-.012.008-.032-.004-.036.1561-2.1483-.056-4.3285-.544-6.4248-.128-.5561-.2841-1.1002-.5041-1.6323-.204-.492-.4481-.9681-.7201-1.4281-.5561-.9242-1.2362-1.7683-1.9763-2.5524-.376-.396-.7641-.7761-1.1641-1.1481-.3961-.3681-.8081-.7201-1.2562-1.0282-.8721-.6041-1.8402-1.0601-2.8564-1.3642-1.0201-.304-2.0803-.468-3.1404-.512-.5481-.024-1.1082-.036-1.6522.04-.5641.08-1.1082.252-1.6363.468-.504.2081-.9881.4521-1.4922.6601-.336.14-.68.2601-1.0121.4041-.288.124-.5801.256-.8481.424 3.1004-8.17307 18.7545-3.67246 20.9548 6.3849 1.4362 6.5729-3.2324 17.5384-10.4134 17.7264-9.3212.252-11.2415-11.9296-11.0975-13.9739z" fill="#b45f00" opacity=".36"/><path d="m22.1205 16.4043c.372-.184.7921-.2361 1.2001-.2881.3761-.044.7481-.092 1.1242-.136.316-.04.6521-.076.9481.056.236.104.4161.3001.5681.5041 1.1921 1.5762 1.2482 3.9165.132 5.5487-.8281.0801-1.6602.0961-2.4883.0561.528-1.0242.8481-2.1523.9321-3.3005.028-.36.028-.7401-.14-1.0641-.1761-.3441-.5201-.5721-.8762-.7161-.356-.144-.7401-.2201-1.1041-.3441-.152-.048-.328-.16-.296-.316z" fill="#b45f00" opacity=".36"/><path d="m40.9671 21.9811s-8.0051-.9681-12.8258-1.0482c-.8921-.016-2.4803-.064-3.0164 0-3.4405.4081-5.2727 1.7203-5.2727 1.7203s1.7162 16.2502 8.9492 16.9503c5.4047.524 9.3213-.5481 11.3215-5.0647 2.0003-4.5126 2.8404-8.5252.8442-12.5577z" fill="#323147"/><path d="m29.0457 23.6133c-.5-.8161-.8161-1.7362-.9081-2.6803 2.6884.044 6.3649.364 9.0932.64.14 5.2088-5.4807 6.4489-8.1851 2.0403z" fill="#464558"/><path d="m37.0149 25.0535c-.1481.244-.2721.4961-.3881.7561-.232.5281-.4241 1.0721-.6721 1.5922-.244.5241-.5361 1.0202-.8721 1.4882-.3441.4801-.7161.9321-1.0922 1.3882-.36.4401-.7.8881-1.0441 1.3362-.264.344-.5321.6801-.8241 1.0001-.32.3521-.6681.7001-1.0641.9682-.3361.228-.7682.456-1.1882.372-.4681-.096-.8441-.4441-1.1882-.7601-.168-.156-.336-.316-.516-.4601-.1641-.132-.3441-.244-.5281-.352-.3841-.228-.7881-.4401-1.1202-.7441-.352-.3201-.576-.7281-.592-1.2082-.02-.5921.184-1.1641.212-1.7562.012-.264 0-.5281-.1-.7761-.072-.172-.192-.3201-.3241-.4481-.152-.148-.312-.288-.436-.464-.176-.2481-.2881-.5321-.2961-.8362-.012-.444.1361-.8881.3201-1.2881.288-.6241.6441-1.2122.9401-1.8323.28-.5801.6481-1.3882.6921-2.1243.4201.008.8321.016 1.1602.024.076.8162.32 1.6163.7121 2.3444.424.7961 1.0121 1.5042 1.7282 2.0562.6601.5081 1.4002.8762 2.2363.9722 1.5762.184 3.2004-.4601 4.3686-1.5042.04-.036.076-.068.116-.104-.088.12-.168.236-.24.36z" fill="#323147"/><path d="m25.1251 20.9329c.328-.04 1.0561-.036 1.7722-.024-.028.4481-.176.9002-.332 1.3002-.2761.7081-.6441 1.3722-1.0002 2.0443-.132.248-.264.5001-.372.7601-.176.4401-.3281.9361-.22 1.4082.056.248.176.48.336.6801.128.156.284.288.4241.432.42.4401.264.9002.424 1.4282.08.2601.4761.4361.5961.1961.032-.0641.032-.1401.024-.2121-.028-.4-.14-.7921-.12-1.1921.02-.4001.216-.8321.5961-.9602.088-.028.192-.036.26.024.064.06.068.1601.06.2481-.036.6081-.232 1.2121-.136 1.8162.1.6561.5321 1.2122 1.0121 1.6642.2841.2681.6041.5361.7001.9122.044.176.036.36.028.54-.016.5081 0 1.0522.2841 1.4722.9961 1.4842 2.7923-.9121 3.3684-1.6562.3281-.42.6401-.8481.9761-1.2642.3601-.444.7281-.8801 1.0722-1.3361.344-.4561.6681-.9322.9241-1.4442.256-.5121.4681-1.0402.6841-1.5722.22-.5361.4641-1.0682.8201-1.5323.044-.056.084-.108.128-.164.3321-.348.6241-.7361.8481-1.1521.3201-.4881.6001-1.0282.7321-1.5922 1.1842.128 1.9403.22 1.9403.22 2.0083 4.0365 1.1682 8.0491-.8321 12.5617s-5.9168 5.5847-11.3215 5.0647c-7.233-.7001-8.9492-16.9503-8.9492-16.9503s1.8322-1.3122 5.2727-1.7203z" fill="#2b2b37"/><path d="m38.4547 23.0332c.184-.4121.308-.8481.352-1.2962.064.008.124.012.184.02-.104.4521-.3.8761-.536 1.2762z" fill="#323147"/><path d="m20.1202 22.4852c.056.468.136.9281.2321 1.3842.24 1.1201.588 2.2123.9921 3.2844.024.064.052.132.076.196.136.7201.3681 1.4282.6241 2.0963.368.9561.8401 1.8723 1.1641 2.8484.1601.4801.3041.9641.4961 1.4322.164.404.3561.8201.6561 1.1441.6201.6681 1.5042 1.0722 2.3683 1.3162.4441.124.9001.2161 1.3602.2561.4721.044.9401.04 1.4002-.084.5321-.1401 1.0281-.3841 1.5202-.6281.256-.1281.5121-.2521.7761-.3681.24-.104.4801-.192.7161-.304.9161-.4401 1.7442-1.0602 2.4723-1.7643.7681-.7361 1.4442-1.5682 2.0163-2.4643.276-.4321.5321-.8841.7561-1.3482.22-.464.4001-.9401.5681-1.4202.396-1.1321.7361-2.2843.9561-3.4644.172-.9162.2721-1.8523.2401-2.7884.9041.1 1.4562.168 1.4562.168 1.9962 4.0366 1.1561 8.0491-.8442 12.5617-2.0002 4.5126-5.9168 5.5848-11.3215 5.0647-7.233-.7001-8.9492-16.9503-8.9492-16.9503s.088-.064.268-.168z" fill="#21212b"/><path d="m29.5856 42.4398c-.3841-.044-1.0442.3441-1.3602.1201-.6881-.4841-4.2846-1.7723-4.4126-2.6804 13.5338-.5241 20.4588-17.2743 12.8097-25.7275-2.8644-3.1644-10.3494-6.88892-14.73-1.2282-1.4121 1.8243-2.0242 4.2006-1.9122 6.5049-.6081-1.1721-.6481-2.5443-.6721-3.8645-.04-1.9803-.068-4.0285.6921-5.86079.6081-1.4642 1.6802-2.67636 2.7363-3.86052.9042-1.01214 1.8163-2.02428 2.8724-2.87639 4.1606-3.360455 10.4975-3.704502 14.9941-.80811 3.2404 2.08428 5.4287 5.64476 6.0888 9.44131.5401 3.1204.112 6.3568.7641 9.4572.6641 3.1365 2.4283 6.2249 1.7242 9.3533-.16.7161-.9561 1.9283-1.3722 2.9484-.8481 2.0763-1.6722 5.2167-2.9604 5.9648-1.9242 1.1122-4.3725 2.4123-6.5408 2.8964-2.7444.6121-5.9328.5361-8.7212.22z" fill="#464558"/><path d="m46.8482 29.9021c-.4401-.04-.8201-.304-1.0882-.6401-.288-.36-.488-.8041-.544-1.2601-.048-.4001.02-.8162.152-1.1962.264-.7561.7881-1.3802 1.3442-1.9403.46-.464.9561-.8921 1.4242-1.3522.54 1.6923 1.1321 3.3805 1.1961 5.0727-.38.3601-.7641.7121-1.2201.9802-.3841.228-.8082.38-1.2642.336z" fill="#575770"/><path d="m21.4083 13.2999c.084-1.0082.304-2.0323.7921-2.9284.7041-1.2842 1.9642-2.15232 3.4284-2.32034 2.0243-.23604 3.9446.67209 5.9368.83211.7161.05601 1.4202.23203 1.9923.68809.5841.46404 1.0081 1.07614 1.5002 1.62824 1.3042 1.4642 2.8484 2.6803 4.2446 4.0525 1.3682 1.3442 2.7004 2.9004 3.2924 4.7607.1481.464.2641.9481.2681 1.4362.004.48-.064.9521-.1881 1.4162-.24.9041-.608 1.7682-.8201 2.6843-.22.9522-.312 1.9283-.296 2.9044.016.9641.124 1.9243.224 2.8844.044.4281.124.8721.108 1.3042-.012.328-.08.6481-.196.9521-.232.6081-.6241 1.1402-1.0281 1.6442-.7401.9322-1.6362 1.9283-1.6202 3.1965.016 1.2881 3.5924.392 4.7326.8801-.9761.432-4.5486 2.6884-5.4847 2.8964-2.7364.6081-5.9249.5361-8.7132.22-.3841-.044-1.0442.3441-1.3602.12-.6881-.484-4.2846-1.7722-4.4126-2.6803 13.5338-.5241 20.4588-17.2744 12.8097-25.7275-2.8644-3.1644-10.3494-6.88895-14.73-1.2282-.184.236-.352.4841-.512.7401.012-.112.02-.232.032-.356z" fill="#323147" opacity=".32"/><path d="m36.6224 14.152c-1.9763-2.1843-6.1529-4.63663-9.9934-4.0846.5161-.21199 1.0682-.336 1.6522-.344.6721-.01201 1.3362.10001 1.9803.284.7081.2001 1.4282.3401 2.1403.5281.4081.104.8121.224 1.2042.3881.408.172.7841.392 1.1481.644.7441.5161 1.4482 1.0922 2.1123 1.7043 1.2242 1.1281 2.3603 2.4003 3.1444 3.8805.7641 1.4402 1.1922 3.0684 1.0242 4.7046-.1761 1.6963-.9962 3.2485-1.1682 4.9447-.088.8681.06 1.7242.112 2.5884.028.444.032.8921-.04 1.3321-.072.4361-.22.8321-.428 1.2202-.3961.7481-.8882 1.4522-1.4362 2.1003-.5361.6321-1.1282 1.2282-1.7963 1.7202-.8121.5961-1.7162 1.0522-2.5723 1.5802-.4881.3001-.9722.6121-1.4202.9762-.3321.268-.6961.584-.8801.9801-.2481.5361.04 1.0801.536 1.3402.6641.348 1.4882.376 2.2163.372 1.8883-.012 3.7805-.368 5.6168-.7841.6801-.156 1.3562-.332 2.0323-.5 1.2641-.3121 2.5283-.6481 3.7525-1.0962-.2241.312-.4601.5521-.7161.7001-1.9243 1.1122-4.3726 2.4123-6.5409 2.8964-2.7364.6081-5.9248.5361-8.7132.22-.384-.044-1.0441.3441-1.3602.12-.6881-.484-4.2845-1.7722-4.4126-2.6803 13.5299-.5321 20.4548-17.2824 12.8058-25.7355z" fill="#323147"/><path d="m20.0004 9.70741c.544-1.31218 1.4602-2.42433 2.4083-3.48848-.3361.93613-.5801 1.90826-.7601 2.88439-.204 1.09218-.3641 2.18428-.3961 3.29648-.016.48-.008.9641.024 1.4482-.9721 1.6682-1.3881 3.6485-1.2921 5.5847-.6081-1.1721-.6481-2.5443-.6721-3.8645-.044-1.9803-.072-4.0285.6881-5.86079z" fill="#323147" opacity=".32"/><path d="m43.0436 10.8316c-1.1921.6401-2.5003 1.1761-3.8565 1.3121-1.1441.1121-2.3363-.112-3.1924-.9321-.4801-.46-.8161-1.0481-1.0442-1.67221-.264-.7161-.392-1.4802-.324-2.2403.132-1.4642.9521-2.74837 1.9883-3.75251.8401-.81611 1.8242-1.4802 2.8643-2.02427.3841.19202.7602.40405 1.1202.63608 2.4483 1.57622 4.2966 3.99654 5.3367 6.72091-.8961.7441-1.8682 1.4042-2.8924 1.9523z" fill="#575770"/><path d="m30.6497 16.3563c.308-.208 2.7924-1.2321 5.8848-.396.024.004.048.004.072.008.016 0 .024.008.032.02.008.004.016.004.024.008.068.02.056.144-.016.128-.044-.012-.084-.024-.128-.036-2.8924-.356-3.7525 1.6762-5.4688 1.5122-.58-.06-1.0041-.8321-.4-1.2442z" fill="#323147"/><path d="m25.4412 17.3765c-1.4522.312-2.3043-1.6363-4.7447-1.0282-.036.016-.072.032-.108.044-.056.024-.076-.1-.02-.124.008-.004.012-.004.02-.008.004-.012.012-.02.028-.024.02-.004.04-.008.06-.016 2.5844-1.1042 4.7567-.3 5.0327-.116.5361.356.2201 1.1641-.268 1.2722z" fill="#323147"/><path d="m27.3573 8.87927c.292-.95613.6561-1.88826 1.1281-2.77238.4801-.90012 1.1002-1.67222 1.7843-2.42433.672-.7361 1.3681-1.45619 2.2083-2.00427.7121-.46406 1.6242-.944125 2.5043-.856113.256.024003.256.424053 0 .400053-.8161-.08001-1.6362.37605-2.3003.80411-.8121.52007-1.4562 1.25617-2.1283 1.94026-.7561.77211-1.4082 1.55221-1.7202 2.34032-.3561.89612-.8041 1.75224-1.0882 2.67636-.076.24803-.464.14402-.388-.10401z" fill="#2b2b37" opacity=".25"/><path d="m34.5742 18.8406c.016.088.02.184.02.28 0 .5601-.248 1.0122-.552 1.0122-.3041 0-.5521-.4521-.5521-1.0122 0-.096.008-.192.02-.28z" fill="#323147"/><path d="m31.4659 19.9448c.044 0 .088-.016.12-.044 1.2362-1.0361 2.0843-.9881 2.9044-.9401.7401.044 1.4402.084 2.2523-.6841.0761-.072.0801-.192.008-.268-.072-.0761-.192-.0801-.268-.008-.6921.656-1.2562.62-1.9723.58-.8521-.052-1.8202-.108-3.1724 1.0282-.08.068-.092.188-.024.268.044.044.096.068.152.068z" fill="#323147"/><path d="m23.6131 18.8406c-.016.088-.02.184-.02.28 0 .5601.2481 1.0122.5521 1.0122s.5521-.4521.5521-1.0122c0-.096-.008-.192-.02-.28z" fill="#323147"/><path d="m25.8775 19.9448c-.036 0-.072-.016-.1041-.044-1.0481-1.0361-1.7682-.9881-2.4643-.9401-.6281.044-1.2202.084-1.9083-.6841-.064-.072-.068-.192-.0079-.268.06-.0761.164-.0801.228-.008.5881.656 1.0641.62 1.6722.58.7241-.052 1.5442-.108 2.6884 1.0282.068.068.076.188.02.268-.032.044-.08.068-.124.068z" fill="#323147"/><path d="m48.0562 39.7276c-.228.7281-.676 1.3682-1.1161 2.0003-.4681.6641-.9481 1.3442-1.6042 1.8363-.6641.5-1.4722.7881-2.2763 1.0281-1.9123.5761-3.8966.9401-5.8928 1.0882-1.8043.132-3.6285.088-5.4208.352-1.3641.2-2.7203.5801-4.0965.4761-.9361-.072-1.8403-.3681-2.7084-.7081-1.4242-.5561-2.8324-1.2682-3.8405-2.3883-1.0081-1.1202-1.5482-2.7244-1.0441-4.1286.12-.3361.38-.7041.7481-.6841.228.012.416.176.584.324 2.7684 2.4764 6.2489 4.3926 10.0214 4.6447.9401.064 1.8883.02 2.8324-.02.7041-.032 1.4122-.06 2.0963-.2201.9521-.22 1.8242-.6801 2.7603-.9601.9642-.288 1.9843-.38 2.9244-.7281 1.8043-.6641 3.1045-2.1683 4.3206-3.6125.4801-.5721.6041-1.1961.9521-1.7762.8922.8321 1.1042 2.3683.7601 3.4764z" fill="#75a152"/><path d="m20.0564 39.2834c.12-.336.38-.7041.7481-.6841.228.012.416.176.584.3241 2.7684 2.4763 6.2489 4.3926 10.0214 4.6446.9401.064 1.8883.02 2.8324-.02.7041-.032 1.4122-.06 2.0963-.22.6761-.1561 1.3121-.4361 1.9602-.6841-.532.9521-.7201 2.0682-.028 2.9284-.368.044-.7361.08-1.1081.108-1.8043.132-3.6285.088-5.4208.352-1.3641.2001-2.7203.5801-4.0965.4761-.9361-.072-1.8403-.3681-2.7084-.7081-1.4242-.5561-2.8324-1.2682-3.8405-2.3883-1.0001-1.1242-1.5402-2.7284-1.0401-4.1286z" fill="#568040" opacity=".37"/><path d="m20.0566 39.2835c.12-.3361.38-.7041.7481-.6841.228.012.416.176.5841.324 2.7683 2.4763 6.2488 4.3926 10.0213 4.6446.9402.064 1.8883.02 2.8324-.02.7041-.032 1.4122-.06 2.0963-.22.9521-.22 1.8242-.6801 2.7604-.9601.9641-.2881 1.9842-.3801 2.9244-.7281 1.8042-.6641 3.1044-2.1683 4.3206-3.6125.48-.5721.604-1.1962.9521-1.7763.124.1161.236.2481.336.3921-.148.9601-.8321 1.8362-1.2401 2.6924-.5121 1.0801-.8122 2.2483-1.6563 3.1484-.7721.8241-1.7642 1.2722-2.8924 1.4442-.56.084-1.1321.1-1.6922.188-.5441.084-1.0761.228-1.6202.316-.5921.0961-1.1962.1161-1.7923.2041-.596.088-1.1881.192-1.7842.264-.5561.068-1.1001.144-1.6482.272-.6201.1441-1.2362.3161-1.8763.3721-1.1041.096-2.3083.168-3.4044-.012-.6081-.1-1.1922-.296-1.7923-.4201-.272-.056-.5481-.092-.8161-.16-.224-.056-.444-.152-.6761-.184-.42-.056-.7921.16-1.0561.4961-.9722-.4721-1.8803-1.0602-2.5884-1.8483-1.0001-1.1281-1.5402-2.7324-1.0401-4.1325z" fill="#568040"/><path d="m45.0195 40.6356c-.188.5481-.3921 1.1202-.8081 1.5522-.4561.4761-1.1362.7401-1.7763.8962-1.2961.32-2.6963.372-4.0245.52-1.1562.128-2.2603.096-3.3725-.096.4401-.032.8762-.08 1.3002-.18.9521-.22 1.8243-.6801 2.7604-.9601.9641-.2881 1.9843-.3801 2.9244-.7281 1.4722-.5441 2.6123-1.6483 3.6405-2.8204-.2601.5881-.4361 1.2081-.6441 1.8162z" fill="#3e5c2e"/><path d="m32.6339 44.3601c-.7801.3041-1.6282.3521-2.4603.3161-.8442-.0321-1.7043-.0841-2.5364-.2161-.7561-.12-1.5002-.288-2.2603-.384-.7721-.096-1.5322-.1721-2.2483-.4841-.5801-.256-1.1881-.5441-1.6482-.9761-.5281-.4961-.6961-1.1842-.8121-1.8643-.116-.6921.004-1.4322-.1-2.1123.072-.032.152-.048.24-.044.228.012.4161.1761.5841.3241 2.7684 2.4763 6.2488 4.3926 10.0213 4.6446.8681.056 1.7363.028 2.6044-.008-.4441.3-.8842.6081-1.3842.8041z" fill="#3e5c2e"/><path d="m20.2044 36.7831v-.12c.052.06.108.12.164.176.6161.6161 1.3762 1.0922 2.1243 1.5562.3881.2401.7721.4921 1.1642.7282.156.092.312.184.472.272 1.1122.7761 2.3724 1.3162 3.6765 1.6762.1801.056.3641.1.5521.14 4.6406 1.1122 9.6533.1641 10.4134.04 2.8964-.472 4.7047-1.4922 5.8528-2.6643.236-.112.4561-.2561.6521-.4321.348-.308.6481-.6841.9201-1.0601.3241-.4481.5801-.9362.7921-1.4442.3161-.7481.5401-1.5282.8121-2.2923.5881 2.2563-.488 8.7011-10.7934 10.7934-7.6291 1.5482-15.9022-.9961-17.0343-7.373h.232z" fill="#75a152"/><path d="m20.2044 36.8711v-.208c.052.06.108.12.164.176.6161.6161 1.3762 1.0922 2.1243 1.5563.3881.24.7721.492 1.1642.7281.156.092.312.184.472.272 1.1122.7761 2.3724 1.3162 3.6765 1.6762.1801.056.3641.1.5521.14 4.6406 1.1122 9.6533.1641 10.4134.04 2.8964-.472 4.7047-1.4922 5.8528-2.6643.236-.112.4561-.2561.6521-.4321.348-.308.6481-.6841.9201-1.0601.3241-.4481.5801-.9362.7921-1.4442.3161-.7481.5401-1.5282.8121-2.2923.5881 2.2563-.488 8.7011-10.7934 10.7934-7.593 1.5402-15.8262-.9721-17.0183-7.285h.216z" fill="#75a152"/><path d="m45.1039 39.8596c.004.036.008.072-.004.104-.028.08-.12.116-.2.144-.048.016-.1.036-.152.036s-.1081-.016-.1401-.06c-.02-.028-.028-.064-.032-.1-.008-.092.012-.1841.068-.2561.1681-.208.4201-.1.4601.1321z" fill="#aed888"/><path d="m32.1784 42.4399c.208-.004.4121.008.6081.048.9241.184 2.1443.3721 2.5683.9241.1761.2241.2521.6161-.164.7321-.4281.12-.8641-.156-1.1682-.468-.316-.3241-.348-.6441-2.8563-.4801z" fill="#568040"/><path d="m20.2285 36.9472v-.2601c.048.052.0961.1.1441.152.616.6161 1.3761 1.0922 2.1242 1.5563.3881.24.7722.492 1.1642.7281.152.092.308.18.4641.268 1.1161.7841 2.3883 1.3242 3.7005 1.6842.172.052.348.096.528.136 3.6005.8642 7.425.4881 9.3173.2161-.9761.324-1.9843.556-2.9284.9681-.8361.364-1.7202.7921-2.3083 1.4882-.18.212-.316.4481-.4001.7001-5.8408-.168-11.0535-2.7524-12.0256-7.641h.22z" fill="#568040" opacity=".37"/><path d="m20.6043 34.8069c.008.008.012.02.02.028.4.6241.8041 1.2481 1.1281 1.9122.2881.5881.5201 1.2162.9362 1.7203.228.276.6681.472.9721.6561.156.092.312.184.4721.272 1.1121.7761 2.3723 1.3162 3.6765 1.6762.18.056.364.104.552.144 4.6407 1.1082 9.6533.1641 10.4134.04 2.8964-.472 4.7047-1.4922 5.8488-2.6643.2-.096.3881-.2161.5601-.3561-.5321 1.2362-1.4242 2.3323-2.5644 3.0084-1.9162 1.1402-4.2685 1.2362-6.4488 1.4242-4.9847.4241-12.2257 2.1363-13.9899-2.9924-.044-.128-.28-.22-.3881-.284-.28-.172-.544-.3641-.7761-.5961-.46-.4601-.8641-1.1521-1.0361-1.8562-.14-.5721.3-1.6443.6241-2.1323z" fill="#568040"/><path d="m39.8232 41.2997c-.9402.172-1.8963.2-2.8524.22.9201-.112 1.5682-.228 1.8042-.268 2.2723-.3681 3.8725-1.0762 5.0087-1.9283-1.0401 1.0441-2.5283 1.7162-3.9605 1.9763z" fill="#3e5c2e"/><path d="m20.6044 34.8068c.8441.8281 1.2962 1.9683 1.8163 3.0324.08.1641.16.3041.252.4281.212.296.4601.5121.8161.7281.6041.372 1.2202.7201 1.8643 1.0321.568.2761 1.1481.5441 1.7362.7841.5361.2201 1.1002.3841 1.6762.4721.4001.064.8041.092 1.2082.1 1.2042.24 2.3883.3601 3.4365.3561-.3041.032-.6041.064-.9082.096-2.2963.24-4.6286.316-6.7969-.5681-.5121-.208-1.0321-.4761-1.4482-.8361-.38-.3321-.6281-.7601-1.0401-1.0602-.6041-.436-1.3282-.636-1.8483-1.1761-.26-.2681-.508-.5761-.564-.9441-.032-.1961-.004-.3961-.024-.5921-.0481-.5121-.3921-.9882-.3921-1.4842.064-.12.136-.2481.216-.3681z" fill="#3e5c2e"/><path d="m47.5881 39.4675c-.092.1161-.224.2001-.296.3281-.08.144-.072.316-.084.476-.012.1641-.056.3401-.196.4321-.0921.06-.2081.068-.3161.064-.036 0-.072-.004-.108-.02-.04-.02-.068-.056-.088-.092-.28-.4681.072-1.2282.408-1.6002.1321-.148.4681-.5201.6921-.4001.2561.14.1281.6441-.012.8121z" fill="#aed888"/><path d="m34.3823 42.6239c.3961 0 .7921.036 1.1802.116.4.08.8201.22 1.0601.5401.032.04.06.088.068.136.028.136-.088.268-.228.308-.136.04-.284.004-.4201-.04-.504-.18-.9321-.56-1.4642-.6161-.216-.024-.436.012-.6561.0321-.22.016-.448.016-.644-.0761-.1001-.048-.3121-.192-.3081-.32.004-.132.208-.08.3001-.072.372.028.7441-.008 1.1121-.008z" fill="#568040"/><path d="m31.534 19.3207c.468-1.4762 3.1084-1.2802 2.0722-1.7002-.116-.044-1.7842-.092-2.0722 1.7002z" fill="#b45f00" opacity=".36"/><path d="m50.0263 55.3411c-.5832-1.9216-.7099-3.9965-.6846-6.0063.029-2.2858.2898-4.6178.9816-6.7924.2934-.9167.6773-1.841 1.1917-2.6618 11.5436-3.0453 17.5997 10.8005 25.898 16.7607 2.0573 1.4804 4.2269 2.7768 6.2915 4.2419 2.4667 1.7528 2.9745 2.3849 5.0934 4.5864 2.6479 3.7383 1.011 11.9318-.8906 14.5207-2.0899 2.8459-6.8095 2.9072-11.5472-1.2618-2.1407-1.8871 1.0384-5.4915-.9067-7.6009-2.1153-2.2974-4.4407-4.614-7.3746-5.408-1.8835-.5062-13.898 3.2985-18.0525-10.3785z" fill="#464558"/><path d="m50.0261 55.3411c-.5832-1.9216-.71-3.9965-.6846-6.0063.029-2.2858.2898-4.6178.9816-6.7924.2934-.9167.6773-1.841 1.1916-2.6618 11.5437-3.0453 17.5998 10.8005 25.898 16.7607 2.0574 1.4804 4.227 2.7768 6.2916 4.2419 2.4667 1.7528 2.4223 1.8241 4.5413 4.0257 3.2382 3.3644 1.9016 11.7757 0 14.3646-2.09 2.8459-6.8096 2.9072-11.5473-1.2618-2.1406-1.8871.7-4.7747-1.2451-6.8841-2.1153-2.2974-4.4407-4.614-7.3746-5.408-1.8835-.5062-13.898 3.2985-18.0525-10.3785z" fill="#2b2b37" opacity=".25"/><path d="m49.3418 49.3349c.029-2.2859.2897-4.6179.9816-6.7925.2934-.9167.6773-1.841 1.1916-2.6618.4093-.1074.8114-.1956 1.2098-.2608-.297 1.1315-.3151 2.3856-.1992 3.5286.163 1.5917.5469 3.1718 1.1011 4.66.6846 1.8371 1.7459 3.4748 3.1186 4.8172 1.4308 1.3961 3.1223 2.47 4.9044 3.287 1.974.9051 4.0676 1.4497 6.096 2.2015 2.166.8016 4.2668 1.8678 5.8895 3.6244 1.3945 1.5073 2.3978 3.3637 2.8035 5.4386.2209 1.1314.3187 2.3319.2354 3.4864-.0362.5293-.1159 1.047-.2245 1.561-.3333-.3644-.6665-.7287-.9997-1.0893-2.1153-2.2974-4.4407-4.6139-7.3746-5.4079-1.8835-.5101-13.9016 3.2985-18.0526-10.3824-.5795-1.9253-.7063-4.0003-.6809-6.01z" fill="#2b2b37" opacity=".25"/><path d="m59.976 64.2469c-.0181.3452-.0507.7019-.1195 1.047-.1702-.0383-.3441-.0805-.5179-.1265.1992-.4718.4274-.932.6555-1.3884-.0036.1572-.0108.3106-.0181.4679z" fill="#464558"/><path d="m69.727 51.1145c-.3767.2455-.786.4488-1.217.5638-.4238.1112-.8621.1458-1.2967.1151-.9128-.0691-1.793-.4066-2.6007-.8476-.8367-.4565-1.6155-1.0241-2.3508-1.6416-.5288-.4449-1.0322-.9166-1.543-1.3807-.4455-.4066-.891-.8131-1.3257-1.2312-1.0467-1.0049-2.0573-2.0596-2.9375-3.2294-.8186-1.0816-1.6009-2.3166-1.8762-3.6935-.0218-.1035-.0399-.2109-.0543-.3183 6.6393-.1189 11.4059 5.4923 16.1907 10.7736-.2861.349-.623.652-.9888.8898z" fill="#d8d8d8" opacity=".08"/><path d="m77.6917 61.1325c.46.56-1.4959.8822-1.5249 1.6301-.029.721-.2717 1.4114-.5759 2.0481-.3188.6673-.7027 1.2925-1.083 1.9177-.3405.5561-.6918 1.1007-1.1048 1.5993-.1086.1304-.2209.257-.3332.3836-1.4814-1.3501-3.1114-2.4815-4.9876-2.9878-.0218-.0038-4.5965.7211-9.5479-.7824 1.2352-.6329 14.5645-9.3967 19.1573-3.8086z" fill="#2b2b37" opacity=".29"/><path d="m49.3417 49.3348c.0289-2.2859.2897-4.6178.9815-6.7925.2934-.9166.6774-1.8409 1.1917-2.6617.7208-.1918 1.4235-.3145 2.1045-.3797-1.4163 2.3856-1.7061 5.3388-1.5177 8.1003.1992 2.8804.8983 5.7224 1.898 8.4034.623 1.6607 1.4271 3.2639 2.4811 4.6676.8584 1.1468 1.8762 2.0865 2.9737 2.961.8223.6558 1.6771 1.2887 2.4268 2.0366-9.805-1.3463-10.3845-5.477-11.8551-10.3249-.5831-1.9254-.7099-4.0003-.6845-6.0101z" fill="#2b2b37" opacity=".29"/><path d="m67.4158 61.9265c1.6771-.4257 3.3396-.955 5.0384-1.2695.8258-.1496 1.6553-.2301 2.492-.234.5904-.0038 1.1953.0576 1.7603.257.5687.1995 1.112.5446 1.4308 1.1008.3477.6098.3259 1.3117.0253 1.9407-.297.6136-.7643 1.1276-1.275 1.5456-.5578.4564-1.188.8093-1.8545 1.0509-1.4524.5255-3.0063.537-4.5167.3874-.0508-.0038-.1015-.0115-.1522-.0153-.7208-.4143-1.4778-.7479-2.2819-.9627-.0217-.0039-4.3791 1.1506-9.4102-.6022-.4419-.1534-1.793-.7632-2.2385-.955.0363-.0077 5.4404-.8399 10.9822-2.2437z" fill="#2b2b37" opacity=".29"/><path d="m89.1486 67.1042c-3.633-4.1652-9.2255-6.3169-14.5355-5.592-.9888.1342-1.9741.3644-2.9701.3414-.681-.0154-1.3583-.1496-2.0393-.1458-1.9197.0192-3.7815 1.2657-4.6254 3.0913 3.086 4.5718 4.1256 10.6279 2.7564 16.055 5.0021 1.8371 7.1174 1.7498 12.355 2.582 1.4778.234 3.0606.4143 4.4117-.2684.7353-.3721 1.3438-.9742 1.9197-1.5917 2.7274-2.0877 5.2013-11.6355 2.7275-14.4718z" fill="#464558"/><path d="m89.1485 67.1042c-3.633-4.1652-9.2255-6.3169-14.5355-5.592-.9888.1343-1.974.3644-2.9701.3414-.681-.0154-1.3583-.1496-2.0392-.1458-1.9198.0192-3.7815 1.2657-4.6255 3.0914 3.0861 4.5717 4.1256 10.6278 2.7565 16.0549 5.0021 1.8371 7.1173 1.7498 12.3549 2.582 1.4778.234 3.0607.4143 4.4117-.2684.7353-.3721 1.3438-.9742 1.9197-1.5917 1.083-1.1621 1.2732-2.8398 2.2004-4.1438 1.6035-2.2566 2.3773-8.2013.5271-10.328z" fill="#2b2b37" opacity=".25"/><path d="m66.7349 62.6859c.7969.0768 1.572.3491 2.2856.7326.7751.4142 1.4995.9358 2.1334 1.5648.5976.5907 1.1301 1.2504 1.648 1.9177.5542.7173 1.0975 1.4498 1.6988 2.1248.2862.3184.5795.6329.9164.8975.3369.2608.6991.4833 1.0758.6712.7606.3836 1.5647.6597 2.3362 1.0164.3912.1803.7788.3797 1.1373.6252.384.2569.739.5561 1.1157.8246 1.4307 1.0202-.0653.4381 1.5936.9558 1.6698.5216 3.4229.7057 5.1579.5677 1.0178-.0806 1.0562-.1803 2.0233-.5677-.3025 3.5624-.9326 4.885-3.4323 7.5673-.5723.6136-1.1808 1.2196-1.9197 1.5916-1.351.6827-2.9303.5025-4.4117.2685-5.2339-.8323-7.3528-.7449-12.3549-2.582 1.3691-5.4309.3296-11.4832-2.7565-16.055.3948-.8591 1.0106-1.5878 1.7531-2.121z" fill="#2b2b37" opacity=".48"/><path d="m66.2711 63.0618c1.1917.7057 2.2819 1.6799 3.1947 2.6426.7461.7862 1.4778 1.5955 2.1225 2.4776.6665.909 1.275 1.8986 1.6119 2.9993.3151 1.0279.4708 2.1133.9019 3.099.3151.7172.7968 1.3155 1.3438 1.8448 1.1844 1.143 2.6151 1.9944 4.0531 2.727 1.4416.7326-.1123-.0835 1.3945.4764.6628.2455 1.3257.5101 2.0102.6712.7063.1688 1.4308.2493 2.1552.234 1.0395-.023 2.0754-.2263 3.0534-.606-.5433.6712-1.1084 1.3232-1.6951 1.9522-.5723.6137-1.1808 1.2197-1.9197 1.5917-1.3511.6827-2.9303.5024-4.4118.2685-5.2339-.8323-7.3528-.7449-12.3549-2.5821 1.3691-5.4309.3296-11.4832-2.7564-16.0549.3151-.6712.7606-1.2619 1.2967-1.7413z" fill="#2b2b37" opacity=".48"/><path d="m23.8421 68.669c-.0036-.0038-.0072-.0076-.0108-.0115-1.4235-1.9483.507-4.5603.565-4.5986-.1521-1.3079.4564-3.099 1.7966-3.728 2.3797-1.1161 4.1835-1.9139 4.2197-1.933-.489-.771-1.3764-1.6262-1.7277-2.4432-.3297-.7709-.6086-1.5687-.8186-2.3856-.1956-.7556-.355-1.5572-.297-2.3396.0507-.6827.4418-1.5572 1.0286-1.8947.5289-.3068.8983.2186 1.0975.6712.3224.7249.2065 1.3309.5288 2.0596.3297.7479.9925 1.469 1.4887 2.1632.6629.932 1.4525 2.1018 2.2819 2.9609.4745.4909.9853.7556 1.4887 1.2082 1.5648 1.4037 3.2092 2.865 4.7088 4.3186.4237.4104.9453.6712 1.5068.8515l-.4275 2.2245 4.7088 1.0164c.1919 2.7384.1956 7.1645-1.4127 8.8789.0399.1304-.0036.2838-.1666.326-.0797.023-.163.0345-.2463.0384-.0905.0575-.1847.0422-.2535-.0077-.3912-.0422-.7933-.2109-1.1482-.326-.7353-.2416-1.5104-.372-2.2675-.4986-1.3655-.2263-11.127 2.0673-14.1768.1534-.0471.1688-.2644.3068-.4492.1688-.4056-.303-.8765-.5332-1.1989-.9435-.3332-.4219-.4093-.9397-.3731-1.4728.0181-.2762.0689-.6367.1667-.9857-.3333-.3759-.6049-.7978-.7245-1.3041-.1231-.5177-.0434-1.6569.1196-2.1555-.0109-.0038-.0073-.0076-.0073-.0115z" fill="#d58500"/><path d="m33.1546 56.8139c-.355-.0269-.7099-.1419-.9852-.3912-.3079-.28-.518-.6789-.6266-1.0893-.1015-.3797-.1051-.8783.0434-1.281.0435.0575.0833.1112.1232.1688.5723.7977 1.2315 1.7757 1.9342 2.5812-.163.0192-.326.023-.489.0115z" fill="#e2a040" opacity=".37"/><path d="m29.786 51.291c-.1739-.2301-.3007-.5024-.3948-.7786-.087-.2455-.1522-.4986-.1558-.7632-.0036-.1304.0072-.257.0326-.3759.1847.1496.3296.395.431.6252.2427.5484.2391 1.0278.3586 1.5418-.105-.0575-.1992-.1496-.2716-.2493z" fill="#e2a040" opacity=".37"/><g fill="#b45f00"><path d="m23.8422 68.6691c-.0036-.0038-.0072-.0077-.0108-.0115-1.4235-1.9484.507-4.5603.565-4.5986-.1521-1.3079.4564-3.099 1.7966-3.728.3477-.165.6809-.3184.9997-.468-.3043.3414-.5615.7403-.7136 1.1737-.192.5408-.1775 1.1429.2427 1.5533-.3803.1956-.6701.5331-.8295.9473-.1666.4373-.2644 1.4767-.163 1.9369.058.2608.163.5063.2789.7402.0471.0883.0906.1726.1522.2532.0543.069.0579.1572.0543.2454-.0145.4143-1.4706.7288-.7425 2.4278.0941.2187.2752.4296.2897.6674.0218.3567-1.1192 2.4547 1.4344 3.4787.4672.1879.9562.2992 1.4525.372.5215.0729 1.0431.1036 1.5683.1419.4999.0384 1.0142.1113 1.4996-.069.4527-.1649.833-.4986 1.1482-.8706.326-.3874.6157-.8208.8693-1.2657.2753-.4871.4998-1.0087.7787-1.492.2898-.5062.5832-1.0087.8766-1.5111s.5831-1.0087.8367-1.5342c.1231-.2569.2463-.5139.3368-.7862.0978-.28.1739-.5677.2536-.8553.1594-.5792.3731-1.1238.6266-1.6607.2536-.5332.518-1.0624.7462-1.6109.1304-.3145.2571-.629.3839-.9473.5469.5062 1.0866 1.0125 1.6082 1.5188.4238.4104.9454.6712 1.5068.8514l-.4274 2.2246 4.7087 1.0163c.192 2.7385.1956 7.1645-1.4126 8.879.0398.1304-.0036.2838-.1666.326-.0797.023-.163.0345-.2463.0383-.0906.0576-.1847.0422-.2536-.0076-.3911-.0422-.7932-.211-1.1482-.3261-.7353-.2416-1.5104-.372-2.2674-.4986-1.3655-.2262-11.1271 2.0673-14.1769.1535-.0471.1687-.2644.3068-.4491.1687-.4057-.303-.8766-.5331-1.199-.9435-.3332-.4219-.4092-.9397-.373-1.4728.0181-.2761.0688-.6367.1666-.9857-.3332-.3758-.6049-.7977-.7244-1.304-.1232-.5178-.0435-1.6569.1195-2.1555 0-.0038.0036-.0077.0036-.0115z" opacity=".36"/><path d="m31.6079 73.82c.2753-.7632.489-1.5572.6157-2.3664.1341-.84.1775-1.6838.0544-2.5276-.2934-1.9944-1.3547-3.7778-2.7492-5.124.2934-.1036.5904-.1918.891-.2723 1.467-.3989 2.981-.6329 4.4081-1.1813.6846-.2647 1.3547-.5984 1.9306-1.0701.3369-.2723.6339-.5907.8838-.9474.8693.7863 1.7314 1.5841 2.55 2.378.4237.4104.9453.6712 1.5067.8514l-.4274 2.2246 4.7088 1.0163c.1919 2.7385.1956 7.1646-1.4127 8.879.0399.1304-.0036.2838-.1666.326-.0797.023-.163.0345-.2463.0383-.0905.0576-.1847.0422-.2535-.0076-.3912-.0422-.7933-.211-1.1482-.326-.7353-.2417-1.5104-.3721-2.2675-.4986-.9526-.1573-5.9982.9128-9.9933.9204.4564-.7172.8258-1.5073 1.1156-2.3127z" opacity=".36"/><path d="m23.8421 68.6692c-.0036-.0039-.0073-.0077-.0109-.0116-1.4235-1.9483.5071-4.5602.5651-4.5986-.1449-1.2465.3984-2.9302 1.6154-3.6321-.0507.0537-.0942.1112-.1268.1572-.1919.2608-.2789.5869-.3115.9129-.0362.3605-.0326.7287.0978 1.0662.0544.1342.1341.2455.2246.349-.2499.1918-.4383.4756-.5578.7748-.1485.3605-.192.7287-.1594 1.1199.0363.4334.1522.8553.3622 1.2273.1232.2148.2717.4104.4347.5868-.1521.0883-.3006.1918-.4419.2954-.326.2416-.5542.5714-.6882.9665-.0869.2608-.1014.5254-.0688.7978.029.2493.0797.5177.1702.7479.0725.1802.1775.3298.3043.4564.0036.0153.0108.0307.0145.0422-.0906.1534-.1449.3413-.1775.5024-.0978.4756-.0543.9742.1412 1.4191.1993.4487.5289.8284.8838 1.1429.326.2877.6919.5293 1.0939.6712.163.0576.326.0959.489.1228.105.0422.2137.0843.3224.1227.5215.1803 1.0649.2992 1.6082.3759.6049.0843 1.217.1304 1.8255.1112.652-.0192 1.304-.0997 1.9451-.2225.6628-.1227 1.3293-.2608 1.9813-.4372.5976-.1611 1.2206-.5523 1.8545-.372.5759.1611 1.0938.5293 1.5683.8975.4093.3145.8041.652 1.2207.9511-2.3653.1113-10.9098 1.9331-13.7241.165-.0109.046-.0363.0882-.0725.1227-.0072.0077-.0145.0153-.0217.023 0 0 0 0-.0036 0-.0073.0077-.0145.0115-.0254.0192 0 0-.0036 0-.0036.0038-.0073.0038-.0145.0115-.0254.0154-.0036 0-.0036.0038-.0072.0038-.0073.0038-.0145.0077-.0217.0115-.0037 0-.0073.0038-.0109.0038-.0073.0039-.0145.0039-.0217.0077-.0037 0-.0073.0038-.0109.0038-.0073 0-.0145.0039-.0217.0039-.0037 0-.0109 0-.0145 0-.0073 0-.0109 0-.0181.0038-.0073 0-.0109 0-.0181 0-.0073 0-.0109 0-.0182 0-.0072 0-.0144 0-.0181-.0038-.0036 0-.0108 0-.0145-.0039-.0072 0-.0144-.0038-.0217-.0076-.0036 0-.0109-.0039-.0145-.0039-.0072-.0038-.0145-.0076-.0253-.0115-.0037 0-.0073-.0038-.0109-.0038-.0109-.0077-.0217-.0154-.0362-.023-.0254-.0192-.0507-.0384-.0761-.0576-.0507-.0383-.105-.0728-.1557-.1073-.0544-.0346-.1051-.0691-.1594-.1074-.0543-.0346-.1051-.0691-.1594-.1074-.0543-.0345-.105-.0729-.1557-.1113-.0507-.0383-.1015-.0767-.1522-.115-.0253-.0192-.0507-.0422-.0724-.0614-.0724-.0613-.1413-.1304-.2028-.2033-.0218-.023-.0435-.0498-.0616-.0767-.1884-.2378-.2934-.5024-.3441-.7862-.0181-.0959-.029-.1918-.0326-.2877-.0073-.1304-.0036-.2608.0036-.395.0181-.2762.0688-.6367.1666-.9857-.0434-.046-.0833-.0959-.1231-.1419-.029-.0384-.0616-.0767-.0906-.1151-.029-.0345-.0543-.0729-.0797-.1074-.1956-.28-.3513-.5906-.4346-.9358-.0036-.0115-.0036-.023-.0073-.0307-.1122-.5063-.0326-1.6339.1232-2.121.0109-.0115.0145-.0153.0145-.0191z" opacity=".36"/><path d="m28.4786 49.7299c-.297.3452-.402.7901-.4238 1.2465-.0362.7978.1268 1.5994.3695 2.355.2246.7019.5143 1.3999.9019 2.0174.7824 1.2427 2.0465 2.0443 3.4048 2.4048-.8078.046-1.3366.2646-2.3218.6367-.489-.7671-1.3728-1.6224-1.7241-2.4355-.3296-.7709-.6085-1.5687-.8186-2.3856-.1956-.7556-.355-1.5572-.297-2.3396.0507-.6827.4419-1.5572 1.0286-1.8947.1739-.0997.3297-.1112.4673-.0652-.2137.1227-.4238.2685-.5868.4602z" opacity=".36"/><path d="m28.884 49.5918c-.0144.3183.116 2.0979 1.2605 2.4968-1.0938-.2186-1.6661-1.4689-1.2605-2.4968z" opacity=".36"/><path d="m25.2331 62.8929c.1051-.1227.2065-.2416.3115-.3643.029-.0307.0544-.0652.0834-.0959.0108.0422.0253.0844.0434.1265.0543.1343.134.2455.2246.3491-.192.1457-.3441.3452-.46.5638-.3477.1917-.6955.3874-1.0396.5791-.0072-.0537-.0108-.1035-.0144-.1572.2825-.3337.5686-.6674.8511-1.0011z" opacity=".36"/><path d="m23.5234 68.1244c.6303-.8476 1.467-1.841 2.0538-2.0366.1159.1918.2499.3682.3984.5255-.1521.0882-.3006.1918-.4419.2953-.326.2416-.5542.5715-.6882.9665-.0254.0729-.0435.1458-.0543.2186-.5035.3452-.9526.583-.9526.583 0-.0038.0036-.0077.0036-.0153-.0036-.0039-.0073-.0077-.0109-.0115-.105-.1381-.2101-.3184-.3079-.5255z" opacity=".36"/><path d="m24.3527 70.9089c.1413-.1994.2862-.395.4673-.5523.105-.0882.2209-.161.3441-.2109-.0326.0959-.058.1918-.0761.28-.0761.3758-.0652.7632.0398 1.1314-.2173.1227-.4165.2877-.6012.4602 0 0-.0399.0461-.0942.1074-.1557-.1764-.3006-.3682-.4202-.5714.0834-.234.2065-.4564.3405-.6444z" opacity=".36"/></g><path d="m25.3597 68.3162c-.0145-.8285.8766-1.166.815-.0307-.0109.2109-.0688.5446-.2572.6597-.1449.0882-.297.0767-.4056-.0652-.1015-.1304-.1485-.349-.1522-.5638z" fill="#e2a040" opacity=".37"/><path d="m25.733 71.6146c-.047-.2263-.0362-.4602.0616-.5868.0544-.069.1304-.1035.2101-.115.2427-.0384.5578.1994.565.5177.0037.1803-.1231.6252-.2499.7249-.2644.1995-.5071-.1572-.5868-.5408z" fill="#e2a040" opacity=".37"/><path d="m26.6382 63.6524c.1775.3106.2101.6942.1738 1.0586-.0144.1457-.0398.2914-.1086.418-.297.5485-.7896.1534-.8838-.2876-.2681-1.2619.6013-1.5687.8186-1.189z" fill="#e2a040" opacity=".37"/><path d="m27.4458 61.8113c-.0326.1419-.0761.2838-.1594.4027-.3622.5025-.8005.0422-.8403-.4104-.134-1.6108 1.4162-1.7949.9997.0077z" fill="#e2a040" opacity=".37"/><path d="m30.6768 64.1318c1.0939-.4641 7.208-3.0108 7.8744-3.9735.355.046.6629.3375.9381.5945 2.1262 1.9982 4.7957 3.1987 7.2515 4.7175.3151.1956.6302.3989.9055.6482 4.1364-.6674 17.6831-3.2447 18.1105-3.0645 1.0287.4411 7.4434 8.1234 1.8545 18.5978l-21.2472-4.8517c.0036-.0039.0036-.0077.0072-.0154-2.0537-.2186-4.1292-.0652-6.1938-.0537-2.242.0115-4.5384-.1534-6.5922-1.1084-.1159-.0537-.2354-.1151-.3042-.2301-.0797-.1343-.0652-.303-.0471-.4603.3187-2.6387 1.7676-7.5979-2.5572-10.8004z" fill="#575771"/><path d="m33.5853 68.8072c.268.303.5578.583.8802.8284.8693.6559 1.8617 1.0854 2.8723 1.4421 1.0577.3721 2.1696.8323 3.2961.8246 1.0866-.0076 2.1008-.4449 3.1766-.5484.5288-.0499 1.0576-.0307 1.572-.188.6338-.1956 1.3112-.3912 1.9233-.0191.355.2147.623.5177.8983.8284.2173.2455.4528.4909.757.6098.4274.1688.8911.1151 1.3293.0346.5904-.1074 1.1555-.3069 1.7241-.4871.5868-.1841 1.1881-.3491 1.8038-.3376.5434.0116 1.0903.1228 1.6046.2992.9744.3375 1.8546.909 2.6695 1.5572.8331.6597 1.6119 1.3884 2.4341 2.0596.7027.5753 1.4488 1.0854 2.2312 1.5303 1.5104.8591 3.2019 1.5725 4.9369 1.653.3912.0192.786.0039 1.1736-.0575-.326.9167-.7389 1.8602-1.2533 2.8267l-21.2472-4.8518c.0036-.0038.0036-.0076.0072-.0153-2.0537-.2186-4.1292-.0652-6.1937-.0537-2.2421.0115-4.5385-.1534-6.5923-1.1084-.1159-.0537-.2354-.1151-.3042-.2302-.0797-.1342-.0652-.3029-.0471-.4602.1811-1.5342.7461-3.8431.3477-6.1366z" fill="#2b2b37" opacity=".25"/><path d="m67.0716 69.6472c-.6013-.4948-1.199-1.0317-1.6807-1.6607-.518-.6712-1.0939-1.3693-1.3728-2.2015-.1267-.3759-.1883-.794-.0615-1.1813.1448-.4411.4998-.794.8801-1.0164.4093-.2378.8766-.3107 1.3257-.2378 1.0359.955 3.249 4.0271 3.6511 8.4494-.8729-.771-1.8473-1.4115-2.7419-2.1517z" fill="#a4a4a4" opacity=".14"/><path d="m42.4925 63.9362c-.5325.2991-1.1519.4372-1.7495.4525-.5614.0154-1.1699-.0575-1.6698-.349-.5795-.3375-.9128-1.0355-1.0939-1.6876-.1412-.5062-.2064-1.0355-.2209-1.5648.3948-.2455.6773-.4602.7932-.629.355.046.6629.3375.9382.5945 1.1047 1.0394 2.3579 1.8601 3.6474 2.6234-.1702.234-.3984.4219-.6447.56z" fill="#a4a4a4" opacity=".14"/><path d="m39.0623 76.1597c.4383-.1611.8657-.349 1.2822-.5676.3948-.2071.786-.4334 1.1338-.7211.6809-.5599 1.1735-1.3462 1.3401-2.2475.0942-.5178.1196-1.0931.4564-1.515.2499-.3107.5651-.5331.8657-.7824.2934-.2416.565-.5216.7136-.8898.1738-.4296.2064-.909.1738-1.3693-.0724-1.001-.4238-1.9637-.7896-2.8803-.2137-.5332-.4528-1.0625-.7063-1.5764 1.0685.6213 2.1588 1.212 3.2092 1.864.3151.1956.6302.3989.9055.6482 1.7277-.28 5.0927-.8898 8.4612-1.4958-.46.1879-.92.3605-1.3836.5331-1.141.4181-2.2892.8054-3.4084 1.281-.3912.1649-.7933.3337-1.1555.5715-.297.1918-.5686.4449-.7027.7939-.1593.4258-.1014.8783.0435 1.2964.0652.1841.1449.372.163.5715.0217.2608-.058.5024-.134.7479-.1521.4794-.3767.932-.5361 1.4076-.1702.5101-.2354 1.047-.2101 1.5878.0833 1.7029.9635 3.2256 2.0936 4.4184-2.6405-.6022-4.5168-1.0317-4.5168-1.0317.0037-.0039.0037-.0077.0073-.0154-2.0537-.2186-4.1292-.0652-6.1938-.0537-.8983.0039-1.8038-.0192-2.7021-.1112.5397-.1151 1.0685-.2723 1.5901-.4641z" fill="#2b2b37" opacity=".25"/><path d="m40.1957 75.9103c1.246-.537 2.4413-1.1967 3.709-1.6838 1.217-.4679 2.4848-.8169 3.7815-.9013 1.3003-.0844 2.6007.0806 3.8467.4794 2.3072.7403 4.361 2.1249 6.3785 3.4826 1.0069.6789 2.0175 1.3616 3.0643 1.9676 1.0866.629 2.2131 1.1467 3.383 1.5725.2644.0958.5324.1879.8005.2723-6.4437-1.4728-18.7951-4.2918-18.7951-4.2918.0036-.0039.0036-.0077.0073-.0154-2.0538-.2186-4.1292-.0652-6.1938-.0537-.71.0039-1.4271-.0115-2.1407-.0613.7317-.2071 1.4525-.4641 2.1588-.7671z" fill="#2b2b37" opacity=".25"/><path d="m50.7904 76.5661c2.1226-.0153 4.1509-.7824 5.9801-1.8831-2.0139-2.2552-4.3067-7.0533-4.3284-7.0994-.2391-.4679-.4854-.9626-.518-1.5034-.0145-.2608.3658-.2608.3803 0 .029.5024.3007.9742.5216 1.4076.0218.0421 2.0755 4.5718 4.2813 6.9804 2.6188-1.6607 6.9762-5.569 7.7876-8.6182.0507-.1917.431-.2147.4093.0461 0 .0191-.0652.2071-.2065.5254-.6049 1.7183-3.2671 5.4846-7.7078 8.3382.0181.0191.0362.0345.0543.0537 1.3583 1.2887 6.7733 5.1471 8.6532 5.0052.2463-.0192.2427.3873 0 .4027-1.9922.1496-7.3601-3.6935-8.8198-5.0282-.0797-.0729-.1558-.1458-.2282-.2225-.268.1611-.5361.3184-.8114.4679-1.6879.9129-3.5424 1.5112-5.4476 1.5227-.2463.0115-.2463-.3951 0-.3951z" fill="#2b2b37"/><path d="m82.5198 63.0386c1.0685-.092 2.166.0422 3.1549.4871.9888.4411 1.8617 1.2082 2.3724 2.2054.1884.3682.3297.7786.3007 1.1928s-.2499.8361-.6158.9934c-.163.069-.3441.0805-.5179.0575-1.275-.1688-1.8002-2.0136-3.039-2.3703-.2463-.069-.5071-.0767-.7642-.1074-.3152-.0383-.6267-.1189-.9237-.2416-.3586-.1458-.7099-.3644-.9164-.7057-.2064-.3414-.2354-.8323.0181-1.1391.2174-.2762.5905-.3414.9309-.3721z" fill="#d8d8d8" opacity=".08"/></svg>