<?xml version="1.0" encoding="UTF-8"?>
<svg width="288px" height="224px" viewBox="0 0 288 224" version="1.1" xmlns="http://www.w3.org/2000/svg" xmlns:xlink="http://www.w3.org/1999/xlink">
    <defs>
        <path d="M11.4999856,0.845140689 C13.6939421,4.40566244 15.3220589,8.28509484 16.3262156,12.3449507 C17.6984956,18.4885907 17.2540856,17.9428407 17.2540856,17.9428407 L9.7304556,19.9183607 C9.31764161,20.027061 8.88346099,19.8435831 8.6736956,19.4717907 C7.1091156,16.6977207 0.871525601,5.69728069 0.0508556007,5.17629069 C-0.888634399,4.57987069 11.4999856,0.845140689 11.4999856,0.845140689 Z" id="path-1"></path>
        <path d="M5.50058526,0.881316758 C3.39846115,4.49681342 1.87015206,8.41663644 0.970215255,12.5008568 C-0.244404745,18.6776068 0.185895255,18.1206568 0.185895255,18.1206568 L7.75761526,19.9030068 C8.17308139,20.0011175 8.60243499,19.8065854 8.80261526,19.4295368 C10.2957053,16.6163368 16.2497453,5.45987676 17.0568253,4.91805676 C17.9807253,4.29775676 5.50058526,0.881316758 5.50058526,0.881316758 Z" id="path-3"></path>
        <path d="M11.4999856,0.845140689 C13.6939421,4.40566244 15.3220589,8.28509484 16.3262156,12.3449507 C17.6984956,18.4885907 17.2540856,17.9428407 17.2540856,17.9428407 L9.7304556,19.9183607 C9.31764161,20.027061 8.88346099,19.8435831 8.6736956,19.4717907 C7.1091156,16.6977207 0.871525601,5.69728069 0.0508556007,5.17629069 C-0.888634399,4.57987069 11.4999856,0.845140689 11.4999856,0.845140689 Z" id="path-5"></path>
        <path d="M5.50058526,0.881316758 C3.39846115,4.49681342 1.87015206,8.41663644 0.970215255,12.5008568 C-0.244404745,18.6776068 0.185895255,18.1206568 0.185895255,18.1206568 L7.75761526,19.9030068 C8.17308139,20.0011175 8.60243499,19.8065854 8.80261526,19.4295368 C10.2957053,16.6163368 16.2497453,5.45987676 17.0568253,4.91805676 C17.9807253,4.29775676 5.50058526,0.881316758 5.50058526,0.881316758 Z" id="path-7"></path>
        <path d="M31.75833,24.0024448 C32.1448135,24.0625789 32.5395047,24.0431829 32.91823,23.9454448 C33.93783,23.6061748 34.23645,22.3342748 34.37429,21.2685848 L35.32801,13.8953648 C35.3625795,13.743723 35.3519409,13.5852741 35.29741,13.4396148 C35.2292547,13.3269806 35.1336968,13.2334317 35.01964,13.1676848 C31.3477,10.6394448 27.0058,9.24649478 23.23805,6.86338478 C21.14424,5.53905478 19.23798,3.91512478 17.04444,2.76349478 C14.3535971,1.50095676 11.5054349,0.605384458 8.57627,0.100774777 C8.35077307,1.47418925 8.04391629,2.83300093 7.65732,4.17003478 C6.62867,8.01060478 5.53573,11.9794948 3.01249,15.0521748 C1.98039,16.3090048 0.42968,17.5526748 0,19.1847548 C0.937515034,19.560767 1.92846445,19.7865742 2.93633,19.8538548 C3.97811,20.0629548 5.02111,20.2657714 6.06533,20.4623048 C8.10519667,20.8462248 10.14941,21.2060481 12.19797,21.5417748 C16.3434567,22.2212014 20.5035733,22.8015581 24.67832,23.2828448 C27.03496,23.5545114 29.3949633,23.7943781 31.75833,24.0024448 Z" id="path-9"></path>
        <path d="M4.69749364,26.3996067 C4.31738936,26.4918276 3.92245995,26.5054831 3.53689364,26.4397367 C2.49250364,26.1868467 2.08866364,24.9443367 1.86226364,23.8938967 L0.295823643,16.6261467 C0.248697067,16.4779227 0.246058251,16.3191348 0.288233643,16.1694267 C0.346740562,16.0514939 0.434148788,15.9502905 0.542313643,15.8752467 C3.99017364,13.0490467 8.20050364,11.2981767 11.7559736,8.60860671 C13.7318036,7.11395671 15.4957136,5.33643671 17.5853636,4.00554671 C20.1613079,2.52260447 22.9246788,1.39219497 25.8014336,0.644606715 C26.1408995,1.99437492 26.5602209,3.32279314 27.0571836,4.62284671 C28.4031236,8.36404671 29.8238436,12.2277467 32.5950036,15.0788467 C33.7285036,16.2450567 35.3777036,17.3548467 35.9422536,18.9452767 C35.0394308,19.3983103 34.0708085,19.7061249 33.0720836,19.8573767 C32.051417,20.1527967 31.0290003,20.4420534 30.0048336,20.7251467 C28.004167,21.2781534 25.997167,21.8075167 23.9838336,22.3132367 C19.909607,23.3366567 15.8125303,24.2625734 11.6926036,25.0909867 C9.36691698,25.5585734 7.03521364,25.99478 4.69749364,26.3996067 Z" id="path-11"></path>
        <path d="M31.75833,24.0024448 C32.1448135,24.0625789 32.5395047,24.0431829 32.91823,23.9454448 C33.93783,23.6061748 34.23645,22.3342748 34.37429,21.2685848 L35.32801,13.8953648 C35.3625795,13.743723 35.3519409,13.5852741 35.29741,13.4396148 C35.2292547,13.3269806 35.1336968,13.2334317 35.01964,13.1676848 C31.3477,10.6394448 27.0058,9.24649478 23.23805,6.86338478 C21.14424,5.53905478 19.23798,3.91512478 17.04444,2.76349478 C14.3535971,1.50095676 11.5054349,0.605384458 8.57627,0.100774777 C8.35077307,1.47418925 8.04391629,2.83300093 7.65732,4.17003478 C6.62867,8.01060478 5.53573,11.9794948 3.01249,15.0521748 C1.98039,16.3090048 0.42968,17.5526748 0,19.1847548 C0.937515034,19.560767 1.92846445,19.7865742 2.93633,19.8538548 C3.97811,20.0629548 5.02111,20.2657714 6.06533,20.4623048 C8.10519667,20.8462248 10.14941,21.2060481 12.19797,21.5417748 C16.3434567,22.2212014 20.5035733,22.8015581 24.67832,23.2828448 C27.03496,23.5545114 29.3949633,23.7943781 31.75833,24.0024448 Z" id="path-13"></path>
        <path d="M4.69749364,26.3996067 C4.31738936,26.4918276 3.92245995,26.5054831 3.53689364,26.4397367 C2.49250364,26.1868467 2.08866364,24.9443367 1.86226364,23.8938967 L0.295823643,16.6261467 C0.248697067,16.4779227 0.246058251,16.3191348 0.288233643,16.1694267 C0.346740562,16.0514939 0.434148788,15.9502905 0.542313643,15.8752467 C3.99017364,13.0490467 8.20050364,11.2981767 11.7559736,8.60860671 C13.7318036,7.11395671 15.4957136,5.33643671 17.5853636,4.00554671 C20.1613079,2.52260447 22.9246788,1.39219497 25.8014336,0.644606715 C26.1408995,1.99437492 26.5602209,3.32279314 27.0571836,4.62284671 C28.4031236,8.36404671 29.8238436,12.2277467 32.5950036,15.0788467 C33.7285036,16.2450567 35.3777036,17.3548467 35.9422536,18.9452767 C35.0394308,19.3983103 34.0708085,19.7061249 33.0720836,19.8573767 C32.051417,20.1527967 31.0290003,20.4420534 30.0048336,20.7251467 C28.004167,21.2781534 25.997167,21.8075167 23.9838336,22.3132367 C19.909607,23.3366567 15.8125303,24.2625734 11.6926036,25.0909867 C9.36691698,25.5585734 7.03521364,25.99478 4.69749364,26.3996067 Z" id="path-15"></path>
    </defs>
    <g id="Atoms/Illustrations/VPN/Meditation" stroke="none" stroke-width="1" fill="none" fill-rule="evenodd">
        <g id="server_not_found" transform="translate(0.000000, -1.000000)">
            <rect id="Rectangle" x="0.00173" y="0.57988" width="288" height="224"></rect>
            <g id="Group" transform="translate(65.000000, 60.000000)">
                <g transform="translate(0.000000, 126.000000)" fill="#B9C5C9" fill-rule="nonzero">
                    <ellipse id="Oval" cx="76.66067" cy="17.29895" rx="76.25302" ry="7.37785"></ellipse>
                    <path d="M123.379,3.46764 C121.80362,5.32513683 121.098663,7.76812131 121.44224,10.17936 C121.532198,8.62159476 122.218625,7.15830993 123.35901,6.0933 C122.879156,7.25508088 122.801804,8.54400929 123.13927,9.75484 C123.554731,8.49763896 124.404798,7.42974203 125.53681,6.74293 C124.726391,7.79770947 124.883912,9.30240053 125.89521,10.16647 C126.001504,8.25302524 126.421755,6.37008617 127.13914,4.59303 C127.621382,6.26174665 127.871618,7.98890491 127.8828,9.72587 C128.401664,8.24506326 129.318108,6.93564283 130.53172,5.94108 C129.881105,7.48124634 129.522636,9.12899158 129.4746,10.80025 C130.456011,8.96884453 131.968627,7.47727114 133.8136,6.52161 C132.443088,8.37992459 131.580576,10.5633535 131.31111,12.85661 L124.17211,12.97214 C123.00071,12.99109 118.65494,13.709 118.01436,12.6465 C117.11918,11.16178 121.70578,3.46764 123.379,3.46764 Z" id="Path"></path>
                    <path d="M136.09162,10.2015 C136.429957,11.0061196 136.852181,11.772827 137.35129,12.48891 C137.545733,11.4639707 137.661388,10.425644 137.69724,9.38304 C138.179559,9.96997328 138.502112,10.6715289 138.63365,11.41974 C138.846726,9.19676782 138.783414,6.95595469 138.44516,4.74856 C138.567869,5.68002167 138.818715,6.59005671 139.19058,7.45284 C139.721033,9.00009712 140.001169,10.6220929 140.02042,12.25764 C140.411351,11.0539515 141.124791,9.98047033 142.08317,9.15391 C142.269638,10.2262955 142.236982,11.325338 141.98717,12.38476 C142.414138,11.1386071 143.264042,10.0813343 144.38931,9.39652 C143.743216,10.465301 143.377645,11.6800043 143.32654,12.92785 C143.850275,11.9628253 144.753847,11.2609131 145.81842,10.99211 C144.857922,12.0362758 144.214768,13.3324656 143.96426,14.72892 C141.86011,14.21103 139.65286,14.58692 137.61541,14.16134 C135.63823,13.74832 136.79791,11.88165 136.09162,10.2015 Z" id="Path"></path>
                    <path d="M108.29075,12.851 C109.28746,11.35488 109.70039,9.1301 111.14323,7.80139 C109.954293,8.57534271 108.934131,9.58171533 108.14407,10.76001 C108.145386,8.93647282 108.280358,7.11548453 108.5479,5.31168 C107.4319,5.51868 106.8899,7.96757 106.67339,8.95617 C106.15411,6.94556 106.6118,4.62617 106.47712,2.55111 C105.436,4.31276 105.41419,6.50594 104.86686,8.34949 C104.01176,7.82493 104.04014,5.98674 103.09206,5.29431 C103.02343,6.47369 103.40535,7.64991 103.32526,8.86131 C102.44754,8.09808 102.58253,6.73458 101.17651,6.26886 C101.06527,7.25279 101.67251,8.20016 101.53901,9.23967 C100.93264,8.47838 100.38869,7.31128 99.23869,7.51447 C99.34545,8.65025 100.68869,9.41326 100.89369,10.63189 C102.66408,10.5746322 104.420662,10.9612306 106.00343,11.75647 C106.50687,12.04647 106.97136,12.4378 107.46557,12.7513 C107.722292,12.8739937 108.012193,12.9090202 108.29075,12.851 Z" id="Path"></path>
                    <path d="M76.54814,1.207 C74.9727632,3.0644987 74.2678066,5.50748159 74.61138,7.91872 C74.7013436,6.3609541 75.3877735,4.89767015 76.52816,3.83266 C76.0483029,4.99443625 75.9709469,6.28336154 76.30841,7.49419 C76.7238776,6.2369952 77.5739433,5.16910357 78.70595,4.48229 C77.8955413,5.53707243 78.053062,7.04175547 79.06435,7.90583 C79.1706491,5.99238268 79.5909001,4.10944111 80.30828,2.33238 C80.7905217,4.00110017 81.0407571,5.72826166 81.05194,7.46523 C81.5707988,5.98441806 82.4872482,4.67499553 83.70087,3.68044 C83.0502437,5.22060274 82.6917737,6.86835014 82.64375,8.53961 C83.6251491,6.70821004 85.1377457,5.21663447 86.9827,4.26096 C85.6121948,6.11927864 84.7496843,8.3027055 84.48021,10.59596 L77.34121,10.71149 C76.16981,10.73049 71.82404,11.44836 71.18347,10.38586 C70.28834,8.90113 74.87494,1.207 76.54814,1.207 Z" id="Path"></path>
                    <path d="M85.08254,7.14976 C85.4208711,7.95438571 85.843095,8.72109714 86.34221,9.43718 C86.5366495,8.41224048 86.6523011,7.37391377 86.68815,6.33131 C87.1704727,6.91824086 87.4930262,7.61979753 87.62456,8.36801 C87.8376464,6.14503816 87.7743336,3.90422379 87.43607,1.69683 C87.5587888,2.62828971 87.8096346,3.53832344 88.18149,4.40111 C88.711951,5.94836538 88.9920904,7.57036193 89.01134,9.20591 C89.4022637,8.0022204 90.1157003,6.92873818 91.07408,6.10218 C91.2605482,7.17456546 91.2278917,8.27360796 90.97808,9.33303 C91.405048,8.08687708 92.254952,7.02960434 93.38022,6.34479 C92.7341262,7.41356753 92.3685556,8.62826753 92.31745,9.87611 C92.8411789,8.91108644 93.7447493,8.20917652 94.80932,7.94038 C93.8488245,8.98454632 93.2056741,10.2807364 92.95517,11.67719 C90.85102,11.15929 88.64377,11.53519 86.60631,11.10961 C84.62915,10.69659 85.78883,8.82992 85.08254,7.14976 Z" id="Path"></path>
                    <path d="M70.18955,1.63255 C70.3637532,3.63854671 70.2564668,5.6590512 69.87081,7.63532 C69.9234552,6.54063739 69.7178545,5.44892127 69.27062,4.44838 C69.6208387,6.03169182 69.4558087,7.68549569 68.79962,9.16838 C68.5198406,8.21488787 68.1047582,7.30644965 67.56705,6.47081 C67.321829,7.07371742 67.2472396,7.73247751 67.35145,8.37495 C67.4514778,9.02651607 67.2146085,9.68439442 66.72219,10.12265 C66.73153,7.97544 65.05784,6.24148 63.49973,4.76402 C64.2327806,5.79573599 64.4983796,7.08807735 64.23163,8.32527 C64.00916,7.71322 63.70263,7.02027 63.07407,6.84999 C62.5274438,6.75120637 61.9742601,6.98587001 61.66539,7.44756 C61.3710345,7.90443377 61.170478,8.41528529 61.07539,8.95039 C60.8426536,6.69341884 61.0991067,4.41279802 61.82728,2.26388 C59.9676653,5.32856596 59.3558443,8.99031365 60.11814,12.49308 C61.8632673,11.8697244 63.745005,11.7324066 65.56214,12.09581 C67.51164,12.35946 71.06464,13.5881 71.71066,10.88906 C72.43936,7.84434 70.44468,4.56279 70.18955,1.63255 Z" id="Path"></path>
                    <path d="M57.64668,2.80447 L57.90835,8.69509 L56.66941,5.75141 L55.49879,8.30274 C54.8960768,6.83991056 54.6291451,5.26052187 54.71765,3.68087 C53.9730258,6.0465147 53.7935544,8.55381681 54.19365,11.0014 C53.2411782,8.80967474 52.7012317,6.46103477 52.60092,4.0734 C52.2986761,5.70026823 52.1620649,7.35357666 52.19318,9.00799 L51.11752,7.38951 L50.52052,8.86792 C49.8919343,6.18457176 49.6377064,3.4271449 49.76507,0.6741 C49.2005168,3.72548513 49.0079654,6.83405875 49.19163,9.93179 C48.76722,8.97152 48.5205,7.93929 48.0804,6.98611 C47.6927827,5.99755843 46.9359847,5.19844954 45.96996,4.75768 C47.1511405,5.91536127 47.7768572,7.52545369 47.68738,9.17694 C46.7441987,8.59137604 45.684738,8.21838898 44.58274,8.08394 C45.3711166,8.84737101 45.7637646,9.93147116 45.64712,11.02269 C45.0125417,9.90356327 43.9807271,9.06363906 42.75612,8.66934 C43.68534,10.65375 46.21044,11.1909 48.38681,11.44542 C51.35345,11.79235 55.36641,12.40973 58.17451,11.03089 C60.66582,9.80758 58.18869,4.91514 57.64668,2.80447 Z" id="Path"></path>
                    <path d="M38.75821,4.42752 C38.8272127,6.10440061 38.7984372,7.78387746 38.67203,9.45741 C38.4676809,7.51522041 37.613553,5.6989196 36.24803,4.30278 C36.6457691,5.58280096 36.6988307,6.94508988 36.40186,8.25217 C35.4373844,6.29181969 34.967976,4.12499323 35.0347,1.94125 C34.1570335,4.98122282 34.3320406,8.2285407 35.53134,11.15658 C34.1733619,9.79619899 33.3716395,7.97820326 33.28294,6.05808 L32.5533,8.47067 C32.368033,7.86531746 32.2819966,7.23396242 32.29853,6.60111 L31.78687,6.58977 C31.4183338,7.37794695 31.1531691,8.21043385 30.99796,9.06656 L30.32453,6.06914 C29.5752215,7.3741587 29.3224593,8.90589878 29.61276,10.38247 C28.9606083,7.94631557 27.705116,5.71376219 25.96223,3.89099 C27.66166,5.66071 27.90641,8.33462 28.00423,10.78623 C27.9911628,10.952012 28.0393287,11.1168321 28.13961,11.24949 C28.27361,11.38543 28.50979,11.68286 28.70061,11.6768 C31.86934,11.57625 34.84008,12.85464 37.9985,13.12907 C42.52514,13.5224 39.519,6.642 38.75821,4.42752 Z" id="Path"></path>
                    <path d="M7.839,5.25085 C7.74757232,7.00978071 7.81117788,8.77334572 8.02908,10.52112 C7.92306427,9.29987121 8.20629582,8.07640137 8.8382,7.02598 C8.52853049,8.36266778 8.61020958,9.76024541 9.07348,11.05176 C9.21355694,9.99633559 9.75663963,9.03606898 10.58895,8.37214 C10.3648547,9.47689286 10.6529835,10.6237057 11.37263,11.49135 C11.7014549,9.32852161 11.7795651,7.13496898 11.60541,4.95423 C12.5320349,7.04199715 12.8734938,9.34244393 12.59324,11.60935 C13.4403027,10.7243147 14.1935476,9.75403493 14.84095,8.714 C14.5532458,9.64338139 14.4710138,10.6241973 14.59995,11.58851 C15.1662764,9.56039693 15.4531042,7.46446891 15.45249,5.35877 C16.4763224,7.03966568 16.9392838,9.00252393 16.77449,10.96377 C17.4034731,10.1586269 17.7441092,9.16571961 17.74186,8.14402 L18.69696,11.77102 C19.1809239,10.8354758 19.5471548,9.84359259 19.78729,8.81802 C20.0872745,9.58121204 20.2490041,10.3917121 20.26491,11.21159 C20.6537161,9.66300879 20.7321164,8.05277793 20.49559,6.47375 C21.3987606,8.13930443 21.833188,10.0186713 21.75259,11.91163 C22.28859,10.17647 22.7381033,8.41768333 23.10113,6.63527 C22.9513237,8.62420477 23.1213752,10.6242946 23.60481,12.55939 C19.94462,13.36676 16.1606,16.177 12.48004,15.46822 C11.0879956,15.0339234 9.62889552,14.8549005 8.17315,14.93979 C7.99044503,14.982562 7.82760429,15.0859342 7.71115,15.23307 C6.61806,12.45151 7.69575,8.00344 7.839,5.25085 Z" id="Path"></path>
                </g>
                <g>
                    <rect id="Rectangle" fill="#4D4D4D" fill-rule="nonzero" x="56.83376" y="123.81405" width="50.13576" height="10.53272"></rect>
                    <g transform="translate(114.000000, 87.000000)" id="Path-+-Path-+-Path-+-Path-+-Path-+-Path-+-Path-+-Path-+-Path-+-Path-+-Path-+-Path-Mask">
                        <g transform="translate(0.462424, 0.863809)">
                            <mask id="mask-2" fill="white">
                                <use xlink:href="#path-1"></use>
                            </mask>
                            <use id="Mask" fill="#575770" fill-rule="nonzero" xlink:href="#path-1"></use>
                        </g>
                    </g>
                    <g transform="translate(102.000000, 55.000000)" fill="#000000" fill-rule="nonzero" id="Path">
                        <path d="M15.86814,39.167 C14.1445135,39.2106365 12.4694914,38.5932458 11.1865,37.44141 C7.6455,34.23441 2.12498,23.10059 0.96775,20.71876 L14.1835401,0.966968331 C18.1894001,10.9708783 24.48825,25.55464 24.68161,27.33785 C24.92961,29.61617 24.79098,34.08785 22.69919,36.39839 C20.8614785,38.163131 18.4159495,39.1542987 15.86814,39.167 Z"></path>
                    </g>
                    <g transform="translate(99.000000, 34.000000)" fill-rule="nonzero">
                        <rect id="Rectangle" fill="#000000" transform="translate(6.622667, 12.287996) rotate(-63.433260) translate(-6.622667, -12.287996) " x="-3.21715809" y="10.3246307" width="19.67965" height="3.92673"></rect>
                        <polygon id="Path" fill="#4D4D4D" points="9.286 2.69 12.706 4.4 10.626 4.4"></polygon>
                        <polygon id="Path" fill="#4D4D4D" points="8.449 4.363 10.621 4.41 11.868 6.073 9.789 6.073"></polygon>
                        <polygon id="Path" fill="#4D4D4D" points="7.618 6.025 9.79 6.071 11.037 7.735 8.958 7.735"></polygon>
                        <polygon id="Path" fill="#4D4D4D" points="6.781 7.699 8.953 7.745 10.2 9.409 8.121 9.409"></polygon>
                        <polygon id="Path" fill="#4D4D4D" points="5.92 9.42 8.092 9.467 9.339 11.13 7.26 11.13"></polygon>
                        <polygon id="Path" fill="#4D4D4D" points="5.083 11.094 7.254 11.14 8.502 12.804 6.423 12.804"></polygon>
                        <polygon id="Path" fill="#4D4D4D" points="4.251 12.756 6.423 12.802 7.671 14.466 5.591 14.465"></polygon>
                        <polygon id="Path" fill="#4D4D4D" points="3.414 14.429 5.586 14.476 6.834 16.139 4.754 16.139"></polygon>
                        <polygon id="Path" fill="#4D4D4D" points="2.592 16.073 4.764 16.119 6.011 17.783 3.932 17.783"></polygon>
                        <polygon id="Path" fill="#4D4D4D" points="1.755 17.747 3.927 17.793 5.174 19.456 3.095 19.456"></polygon>
                        <polygon id="Path" fill="#4D4D4D" points="0.924 19.408 3.096 19.455 4.343 21.118 2.264 21.118"></polygon>
                        <rect id="Rectangle" fill="#4D4D4D" transform="translate(11.136301, 3.264170) rotate(26.573890) translate(-11.136301, -3.264170) " x="8.17130617" y="2.09934994" width="5.92999" height="2.32964" rx="0.68594"></rect>
                    </g>
                    <g transform="translate(46.000000, 34.000000)" fill-rule="nonzero">
                        <rect id="Rectangle" fill="#000000" transform="translate(8.065572, 12.287976) rotate(-26.566740) translate(-8.065572, -12.287976) " x="6.10220734" y="2.44815086" width="3.92673" height="19.67965"></rect>
                        <polygon id="Path" fill="#4D4D4D" points="5.402 2.69 1.983 4.4 4.062 4.4"></polygon>
                        <polygon id="Path" fill="#4D4D4D" points="6.239 4.363 4.067 4.41 2.82 6.073 4.899 6.073"></polygon>
                        <polygon id="Path" fill="#4D4D4D" points="7.07 6.025 4.898 6.071 3.651 7.735 5.73 7.735"></polygon>
                        <polygon id="Path" fill="#4D4D4D" points="7.907 7.699 5.736 7.745 4.488 9.409 6.567 9.409"></polygon>
                        <polygon id="Path" fill="#4D4D4D" points="8.768 9.42 6.597 9.467 5.349 11.13 7.429 11.13"></polygon>
                        <polygon id="Path" fill="#4D4D4D" points="9.606 11.094 7.434 11.14 6.186 12.804 8.266 12.804"></polygon>
                        <polygon id="Path" fill="#4D4D4D" points="10.437 12.756 8.265 12.802 7.018 14.466 9.097 14.465"></polygon>
                        <polygon id="Path" fill="#4D4D4D" points="11.274 14.429 9.102 14.476 7.855 16.139 9.934 16.139"></polygon>
                        <polygon id="Path" fill="#4D4D4D" points="12.096 16.073 9.924 16.119 8.677 17.783 10.756 17.783"></polygon>
                        <polygon id="Path" fill="#4D4D4D" points="12.933 17.747 10.761 17.793 9.514 19.456 11.593 19.456"></polygon>
                        <polygon id="Path" fill="#4D4D4D" points="13.764 19.408 11.593 19.455 10.345 21.118 12.424 21.118"></polygon>
                        <rect id="Rectangle" fill="#4D4D4D" transform="translate(3.551930, 3.264165) rotate(153.426110) translate(-3.551930, -3.264165) " x="0.586935046" y="2.09934467" width="5.92999" height="2.32964" rx="0.68594"></rect>
                    </g>
                    <g transform="translate(25.000000, 89.000000)" id="Path-+-Path-+-Path-+-Path-+-Path-+-Path-+-Path-+-Path-+-Path-+-Path-+-Path-+-Path-Mask">
                        <g transform="translate(0.495635, 0.815683)">
                            <mask id="mask-4" fill="white">
                                <use xlink:href="#path-3"></use>
                            </mask>
                            <use id="Mask" fill="#464558" fill-rule="nonzero" xlink:href="#path-3"></use>
                        </g>
                    </g>
                    <g transform="translate(29.000000, 56.000000)" fill="#000000" fill-rule="nonzero" id="Path">
                        <path d="M10.1265978,39.3358668 C7.15220732,39.2644778 4.34573009,37.9710318 2.39401311,35.772082 C0.422902583,33.186496 0.724554597,28.5605564 1.21320653,26.2349699 C1.59544718,24.4151497 8.84145334,10.2611617 14.0615935,0.336536447 L26.8500522,21.7344205 C25.3923795,24.0772333 18.4635337,35.017431 14.4128386,37.9773022 C13.1761199,38.8797217 11.6698217,39.3572654 10.1276345,39.3358461 L10.1265978,39.3358668 Z"></path>
                    </g>
                    <g>
                        <path d="M82.86424,128.22457 C70.63182,128.22457 50.49217,119.61324 46.18357,117.70601 L53.69724,102.21285 C53.7982681,102.002592 53.8506733,101.77229 53.85057,101.53902 C53.84764,100.02437 53.80657,92.24902 53.34857,87.6816 C52.89447,83.1386 47.55657,61.23336 42.29877,56.22066 C46.07513,53.86519 63.28607,43.57366 75.6474,43.57366 C96.15814,43.57366 111.9804,49.35198 117.07904,55.08391 C115.55756,59.67375 108.32513,81.63176 107.40912,87.12791 C106.694091,91.9516407 106.357777,96.8239445 106.40326,101.70017 C106.40326,102.7617 108.98626,108.17673 114.08002,117.79685 C110.706,119.708 94.98142,128.22457 82.86424,128.22457 Z" id="Path" fill="#575770" fill-rule="nonzero"></path>
                        <path d="M42.2340235,57.6119158 C42.0710336,57.4715346 41.9850892,57.2639651 42.0021296,57.0518548 C42.0191701,56.8397445 42.050629,56.4501399 42.2340235,56.3365364 C46.2317635,53.8751807 66.43746,42 79.00173,42 C78.2729304,55.4847572 81.3794073,110.569831 80.8101266,128 C68.3414366,128 50.1941235,119.32911 46.3049535,117.634084 C46.1346539,117.559796 46.0024317,117.420822 45.9386197,117.249043 C45.8748076,117.077264 45.8848826,116.887424 45.9665335,116.723074 L53.4849235,101.511765 C53.5305741,101.419505 53.5541726,101.318247 53.5539235,101.215694 C53.5511035,100.022856 53.5152935,92.2756994 53.0606135,87.8155656 C52.5913635,83.212978 47.2157435,61.9837344 42.2340235,57.6119158 Z" id="Path" fill="#464558" fill-rule="nonzero"></path>
                        <g>
                            <g transform="translate(0.000000, 126.000000)" fill="#B9C5C9" fill-rule="nonzero">
                                <ellipse id="Oval" cx="76.66067" cy="17.29895" rx="76.25302" ry="7.37785"></ellipse>
                                <path d="M123.379,3.46764 C121.80362,5.32513683 121.098663,7.76812131 121.44224,10.17936 C121.532198,8.62159476 122.218625,7.15830993 123.35901,6.0933 C122.879156,7.25508088 122.801804,8.54400929 123.13927,9.75484 C123.554731,8.49763896 124.404798,7.42974203 125.53681,6.74293 C124.726391,7.79770947 124.883912,9.30240053 125.89521,10.16647 C126.001504,8.25302524 126.421755,6.37008617 127.13914,4.59303 C127.621382,6.26174665 127.871618,7.98890491 127.8828,9.72587 C128.401664,8.24506326 129.318108,6.93564283 130.53172,5.94108 C129.881105,7.48124634 129.522636,9.12899158 129.4746,10.80025 C130.456011,8.96884453 131.968627,7.47727114 133.8136,6.52161 C132.443088,8.37992459 131.580576,10.5633535 131.31111,12.85661 L124.17211,12.97214 C123.00071,12.99109 118.65494,13.709 118.01436,12.6465 C117.11918,11.16178 121.70578,3.46764 123.379,3.46764 Z" id="Path"></path>
                                <path d="M136.09162,10.2015 C136.429957,11.0061196 136.852181,11.772827 137.35129,12.48891 C137.545733,11.4639707 137.661388,10.425644 137.69724,9.38304 C138.179559,9.96997328 138.502112,10.6715289 138.63365,11.41974 C138.846726,9.19676782 138.783414,6.95595469 138.44516,4.74856 C138.567869,5.68002167 138.818715,6.59005671 139.19058,7.45284 C139.721033,9.00009712 140.001169,10.6220929 140.02042,12.25764 C140.411351,11.0539515 141.124791,9.98047033 142.08317,9.15391 C142.269638,10.2262955 142.236982,11.325338 141.98717,12.38476 C142.414138,11.1386071 143.264042,10.0813343 144.38931,9.39652 C143.743216,10.465301 143.377645,11.6800043 143.32654,12.92785 C143.850275,11.9628253 144.753847,11.2609131 145.81842,10.99211 C144.857922,12.0362758 144.214768,13.3324656 143.96426,14.72892 C141.86011,14.21103 139.65286,14.58692 137.61541,14.16134 C135.63823,13.74832 136.79791,11.88165 136.09162,10.2015 Z" id="Path"></path>
                                <path d="M108.29075,12.851 C109.28746,11.35488 109.70039,9.1301 111.14323,7.80139 C109.954293,8.57534271 108.934131,9.58171533 108.14407,10.76001 C108.145386,8.93647282 108.280358,7.11548453 108.5479,5.31168 C107.4319,5.51868 106.8899,7.96757 106.67339,8.95617 C106.15411,6.94556 106.6118,4.62617 106.47712,2.55111 C105.436,4.31276 105.41419,6.50594 104.86686,8.34949 C104.01176,7.82493 104.04014,5.98674 103.09206,5.29431 C103.02343,6.47369 103.40535,7.64991 103.32526,8.86131 C102.44754,8.09808 102.58253,6.73458 101.17651,6.26886 C101.06527,7.25279 101.67251,8.20016 101.53901,9.23967 C100.93264,8.47838 100.38869,7.31128 99.23869,7.51447 C99.34545,8.65025 100.68869,9.41326 100.89369,10.63189 C102.66408,10.5746322 104.420662,10.9612306 106.00343,11.75647 C106.50687,12.04647 106.97136,12.4378 107.46557,12.7513 C107.722292,12.8739937 108.012193,12.9090202 108.29075,12.851 Z" id="Path"></path>
                                <path d="M76.54814,1.207 C74.9727632,3.0644987 74.2678066,5.50748159 74.61138,7.91872 C74.7013436,6.3609541 75.3877735,4.89767015 76.52816,3.83266 C76.0483029,4.99443625 75.9709469,6.28336154 76.30841,7.49419 C76.7238776,6.2369952 77.5739433,5.16910357 78.70595,4.48229 C77.8955413,5.53707243 78.053062,7.04175547 79.06435,7.90583 C79.1706491,5.99238268 79.5909001,4.10944111 80.30828,2.33238 C80.7905217,4.00110017 81.0407571,5.72826166 81.05194,7.46523 C81.5707988,5.98441806 82.4872482,4.67499553 83.70087,3.68044 C83.0502437,5.22060274 82.6917737,6.86835014 82.64375,8.53961 C83.6251491,6.70821004 85.1377457,5.21663447 86.9827,4.26096 C85.6121948,6.11927864 84.7496843,8.3027055 84.48021,10.59596 L77.34121,10.71149 C76.16981,10.73049 71.82404,11.44836 71.18347,10.38586 C70.28834,8.90113 74.87494,1.207 76.54814,1.207 Z" id="Path"></path>
                                <path d="M85.08254,7.14976 C85.4208711,7.95438571 85.843095,8.72109714 86.34221,9.43718 C86.5366495,8.41224048 86.6523011,7.37391377 86.68815,6.33131 C87.1704727,6.91824086 87.4930262,7.61979753 87.62456,8.36801 C87.8376464,6.14503816 87.7743336,3.90422379 87.43607,1.69683 C87.5587888,2.62828971 87.8096346,3.53832344 88.18149,4.40111 C88.711951,5.94836538 88.9920904,7.57036193 89.01134,9.20591 C89.4022637,8.0022204 90.1157003,6.92873818 91.07408,6.10218 C91.2605482,7.17456546 91.2278917,8.27360796 90.97808,9.33303 C91.405048,8.08687708 92.254952,7.02960434 93.38022,6.34479 C92.7341262,7.41356753 92.3685556,8.62826753 92.31745,9.87611 C92.8411789,8.91108644 93.7447493,8.20917652 94.80932,7.94038 C93.8488245,8.98454632 93.2056741,10.2807364 92.95517,11.67719 C90.85102,11.15929 88.64377,11.53519 86.60631,11.10961 C84.62915,10.69659 85.78883,8.82992 85.08254,7.14976 Z" id="Path"></path>
                                <path d="M70.18955,1.63255 C70.3637532,3.63854671 70.2564668,5.6590512 69.87081,7.63532 C69.9234552,6.54063739 69.7178545,5.44892127 69.27062,4.44838 C69.6208387,6.03169182 69.4558087,7.68549569 68.79962,9.16838 C68.5198406,8.21488787 68.1047582,7.30644965 67.56705,6.47081 C67.321829,7.07371742 67.2472396,7.73247751 67.35145,8.37495 C67.4514778,9.02651607 67.2146085,9.68439442 66.72219,10.12265 C66.73153,7.97544 65.05784,6.24148 63.49973,4.76402 C64.2327806,5.79573599 64.4983796,7.08807735 64.23163,8.32527 C64.00916,7.71322 63.70263,7.02027 63.07407,6.84999 C62.5274438,6.75120637 61.9742601,6.98587001 61.66539,7.44756 C61.3710345,7.90443377 61.170478,8.41528529 61.07539,8.95039 C60.8426536,6.69341884 61.0991067,4.41279802 61.82728,2.26388 C59.9676653,5.32856596 59.3558443,8.99031365 60.11814,12.49308 C61.8632673,11.8697244 63.745005,11.7324066 65.56214,12.09581 C67.51164,12.35946 71.06464,13.5881 71.71066,10.88906 C72.43936,7.84434 70.44468,4.56279 70.18955,1.63255 Z" id="Path"></path>
                                <path d="M57.64668,2.80447 L57.90835,8.69509 L56.66941,5.75141 L55.49879,8.30274 C54.8960768,6.83991056 54.6291451,5.26052187 54.71765,3.68087 C53.9730258,6.0465147 53.7935544,8.55381681 54.19365,11.0014 C53.2411782,8.80967474 52.7012317,6.46103477 52.60092,4.0734 C52.2986761,5.70026823 52.1620649,7.35357666 52.19318,9.00799 L51.11752,7.38951 L50.52052,8.86792 C49.8919343,6.18457176 49.6377064,3.4271449 49.76507,0.6741 C49.2005168,3.72548513 49.0079654,6.83405875 49.19163,9.93179 C48.76722,8.97152 48.5205,7.93929 48.0804,6.98611 C47.6927827,5.99755843 46.9359847,5.19844954 45.96996,4.75768 C47.1511405,5.91536127 47.7768572,7.52545369 47.68738,9.17694 C46.7441987,8.59137604 45.684738,8.21838898 44.58274,8.08394 C45.3711166,8.84737101 45.7637646,9.93147116 45.64712,11.02269 C45.0125417,9.90356327 43.9807271,9.06363906 42.75612,8.66934 C43.68534,10.65375 46.21044,11.1909 48.38681,11.44542 C51.35345,11.79235 55.36641,12.40973 58.17451,11.03089 C60.66582,9.80758 58.18869,4.91514 57.64668,2.80447 Z" id="Path"></path>
                                <path d="M38.75821,4.42752 C38.8272127,6.10440061 38.7984372,7.78387746 38.67203,9.45741 C38.4676809,7.51522041 37.613553,5.6989196 36.24803,4.30278 C36.6457691,5.58280096 36.6988307,6.94508988 36.40186,8.25217 C35.4373844,6.29181969 34.967976,4.12499323 35.0347,1.94125 C34.1570335,4.98122282 34.3320406,8.2285407 35.53134,11.15658 C34.1733619,9.79619899 33.3716395,7.97820326 33.28294,6.05808 L32.5533,8.47067 C32.368033,7.86531746 32.2819966,7.23396242 32.29853,6.60111 L31.78687,6.58977 C31.4183338,7.37794695 31.1531691,8.21043385 30.99796,9.06656 L30.32453,6.06914 C29.5752215,7.3741587 29.3224593,8.90589878 29.61276,10.38247 C28.9606083,7.94631557 27.705116,5.71376219 25.96223,3.89099 C27.66166,5.66071 27.90641,8.33462 28.00423,10.78623 C27.9911628,10.952012 28.0393287,11.1168321 28.13961,11.24949 C28.27361,11.38543 28.50979,11.68286 28.70061,11.6768 C31.86934,11.57625 34.84008,12.85464 37.9985,13.12907 C42.52514,13.5224 39.519,6.642 38.75821,4.42752 Z" id="Path"></path>
                                <path d="M7.839,5.25085 C7.74757232,7.00978071 7.81117788,8.77334572 8.02908,10.52112 C7.92306427,9.29987121 8.20629582,8.07640137 8.8382,7.02598 C8.52853049,8.36266778 8.61020958,9.76024541 9.07348,11.05176 C9.21355694,9.99633559 9.75663963,9.03606898 10.58895,8.37214 C10.3648547,9.47689286 10.6529835,10.6237057 11.37263,11.49135 C11.7014549,9.32852161 11.7795651,7.13496898 11.60541,4.95423 C12.5320349,7.04199715 12.8734938,9.34244393 12.59324,11.60935 C13.4403027,10.7243147 14.1935476,9.75403493 14.84095,8.714 C14.5532458,9.64338139 14.4710138,10.6241973 14.59995,11.58851 C15.1662764,9.56039693 15.4531042,7.46446891 15.45249,5.35877 C16.4763224,7.03966568 16.9392838,9.00252393 16.77449,10.96377 C17.4034731,10.1586269 17.7441092,9.16571961 17.74186,8.14402 L18.69696,11.77102 C19.1809239,10.8354758 19.5471548,9.84359259 19.78729,8.81802 C20.0872745,9.58121204 20.2490041,10.3917121 20.26491,11.21159 C20.6537161,9.66300879 20.7321164,8.05277793 20.49559,6.47375 C21.3987606,8.13930443 21.833188,10.0186713 21.75259,11.91163 C22.28859,10.17647 22.7381033,8.41768333 23.10113,6.63527 C22.9513237,8.62420477 23.1213752,10.6242946 23.60481,12.55939 C19.94462,13.36676 16.1606,16.177 12.48004,15.46822 C11.0879956,15.0339234 9.62889552,14.8549005 8.17315,14.93979 C7.99044503,14.982562 7.82760429,15.0859342 7.71115,15.23307 C6.61806,12.45151 7.69575,8.00344 7.839,5.25085 Z" id="Path"></path>
                            </g>
                            <g transform="translate(22.000000, 0.000000)">
                                <rect id="Rectangle" fill="#4D4D4D" fill-rule="nonzero" x="34.83376" y="123.81405" width="50.13576" height="10.53272"></rect>
                                <g transform="translate(92.000000, 87.000000)" id="Path-+-Path-+-Path-+-Path-+-Path-+-Path-+-Path-+-Path-+-Path-+-Path-+-Path-+-Path-Mask">
                                    <g transform="translate(0.462424, 0.863809)">
                                        <mask id="mask-6" fill="white">
                                            <use xlink:href="#path-5"></use>
                                        </mask>
                                        <use id="Mask" fill="#575770" fill-rule="nonzero" xlink:href="#path-5"></use>
                                    </g>
                                </g>
                                <g transform="translate(80.000000, 55.000000)" fill="#000000" fill-rule="nonzero" id="Path">
                                    <path d="M15.86814,39.167 C14.1445135,39.2106365 12.4694914,38.5932458 11.1865,37.44141 C7.6455,34.23441 2.12498,23.10059 0.96775,20.71876 L14.1835401,0.966968331 C18.1894001,10.9708783 24.48825,25.55464 24.68161,27.33785 C24.92961,29.61617 24.79098,34.08785 22.69919,36.39839 C20.8614785,38.163131 18.4159495,39.1542987 15.86814,39.167 Z"></path>
                                </g>
                                <g transform="translate(77.000000, 34.000000)" fill-rule="nonzero">
                                    <rect id="Rectangle" fill="#000000" transform="translate(6.622667, 12.287996) rotate(-63.433260) translate(-6.622667, -12.287996) " x="-3.21715809" y="10.3246307" width="19.67965" height="3.92673"></rect>
                                    <polygon id="Path" fill="#4D4D4D" points="9.286 2.69 12.706 4.4 10.626 4.4"></polygon>
                                    <polygon id="Path" fill="#4D4D4D" points="8.449 4.363 10.621 4.41 11.868 6.073 9.789 6.073"></polygon>
                                    <polygon id="Path" fill="#4D4D4D" points="7.618 6.025 9.79 6.071 11.037 7.735 8.958 7.735"></polygon>
                                    <polygon id="Path" fill="#4D4D4D" points="6.781 7.699 8.953 7.745 10.2 9.409 8.121 9.409"></polygon>
                                    <polygon id="Path" fill="#4D4D4D" points="5.92 9.42 8.092 9.467 9.339 11.13 7.26 11.13"></polygon>
                                    <polygon id="Path" fill="#4D4D4D" points="5.083 11.094 7.254 11.14 8.502 12.804 6.423 12.804"></polygon>
                                    <polygon id="Path" fill="#4D4D4D" points="4.251 12.756 6.423 12.802 7.671 14.466 5.591 14.465"></polygon>
                                    <polygon id="Path" fill="#4D4D4D" points="3.414 14.429 5.586 14.476 6.834 16.139 4.754 16.139"></polygon>
                                    <polygon id="Path" fill="#4D4D4D" points="2.592 16.073 4.764 16.119 6.011 17.783 3.932 17.783"></polygon>
                                    <polygon id="Path" fill="#4D4D4D" points="1.755 17.747 3.927 17.793 5.174 19.456 3.095 19.456"></polygon>
                                    <polygon id="Path" fill="#4D4D4D" points="0.924 19.408 3.096 19.455 4.343 21.118 2.264 21.118"></polygon>
                                    <rect id="Rectangle" fill="#4D4D4D" transform="translate(11.136301, 3.264170) rotate(26.573890) translate(-11.136301, -3.264170) " x="8.17130617" y="2.09934994" width="5.92999" height="2.32964" rx="0.68594"></rect>
                                </g>
                                <g transform="translate(24.000000, 34.000000)" fill-rule="nonzero">
                                    <rect id="Rectangle" fill="#000000" transform="translate(8.065572, 12.287976) rotate(-26.566740) translate(-8.065572, -12.287976) " x="6.10220734" y="2.44815086" width="3.92673" height="19.67965"></rect>
                                    <polygon id="Path" fill="#4D4D4D" points="5.402 2.69 1.983 4.4 4.062 4.4"></polygon>
                                    <polygon id="Path" fill="#4D4D4D" points="6.239 4.363 4.067 4.41 2.82 6.073 4.899 6.073"></polygon>
                                    <polygon id="Path" fill="#4D4D4D" points="7.07 6.025 4.898 6.071 3.651 7.735 5.73 7.735"></polygon>
                                    <polygon id="Path" fill="#4D4D4D" points="7.907 7.699 5.736 7.745 4.488 9.409 6.567 9.409"></polygon>
                                    <polygon id="Path" fill="#4D4D4D" points="8.768 9.42 6.597 9.467 5.349 11.13 7.429 11.13"></polygon>
                                    <polygon id="Path" fill="#4D4D4D" points="9.606 11.094 7.434 11.14 6.186 12.804 8.266 12.804"></polygon>
                                    <polygon id="Path" fill="#4D4D4D" points="10.437 12.756 8.265 12.802 7.018 14.466 9.097 14.465"></polygon>
                                    <polygon id="Path" fill="#4D4D4D" points="11.274 14.429 9.102 14.476 7.855 16.139 9.934 16.139"></polygon>
                                    <polygon id="Path" fill="#4D4D4D" points="12.096 16.073 9.924 16.119 8.677 17.783 10.756 17.783"></polygon>
                                    <polygon id="Path" fill="#4D4D4D" points="12.933 17.747 10.761 17.793 9.514 19.456 11.593 19.456"></polygon>
                                    <polygon id="Path" fill="#4D4D4D" points="13.764 19.408 11.593 19.455 10.345 21.118 12.424 21.118"></polygon>
                                    <rect id="Rectangle" fill="#4D4D4D" transform="translate(3.551930, 3.264165) rotate(153.426110) translate(-3.551930, -3.264165) " x="0.586935046" y="2.09934467" width="5.92999" height="2.32964" rx="0.68594"></rect>
                                </g>
                                <g transform="translate(3.000000, 89.000000)" id="Path-+-Path-+-Path-+-Path-+-Path-+-Path-+-Path-+-Path-+-Path-+-Path-+-Path-+-Path-Mask">
                                    <g transform="translate(0.495635, 0.815683)">
                                        <mask id="mask-8" fill="white">
                                            <use xlink:href="#path-7"></use>
                                        </mask>
                                        <use id="Mask" fill="#464558" fill-rule="nonzero" xlink:href="#path-7"></use>
                                    </g>
                                </g>
                                <g transform="translate(7.000000, 56.000000)" fill="#000000" fill-rule="nonzero" id="Path">
                                    <path d="M10.1265978,39.3358668 C7.15220732,39.2644778 4.34573009,37.9710318 2.39401311,35.772082 C0.422902583,33.186496 0.724554597,28.5605564 1.21320653,26.2349699 C1.59544718,24.4151497 8.84145334,10.2611617 14.0615935,0.336536447 L26.8500522,21.7344205 C25.3923795,24.0772333 18.4635337,35.017431 14.4128386,37.9773022 C13.1761199,38.8797217 11.6698217,39.3572654 10.1276345,39.3358461 L10.1265978,39.3358668 Z"></path>
                                </g>
                                <g transform="translate(20.000000, 39.000000)">
                                    <path d="M40.86424,89.22457 C28.63182,89.22457 8.49217,80.61324 4.18357,78.70601 L11.69724,63.21285 C11.7982681,63.0025922 11.8506733,62.7722903 11.85057,62.53902 C11.84764,61.02437 11.80657,53.24902 11.34857,48.6816 C10.89447,44.1386 5.55657,22.23336 0.29877,17.22066 C4.07513,14.86519 21.28607,4.57366 33.6474,4.57366 C54.15814,4.57366 69.9804,10.35198 75.07904,16.08391 C73.55756,20.67375 66.32513,42.63176 65.40912,48.12791 C64.6940913,52.9516407 64.3577772,57.8239445 64.40326,62.70017 C64.40326,63.7617 66.98626,69.17673 72.08002,78.79685 C68.706,80.708 52.98142,89.22457 40.86424,89.22457 Z" id="Path" fill="#575770" fill-rule="nonzero"></path>
                                    <path d="M0.234023531,18.6119158 C0.0710335773,18.4715346 -0.0149108277,18.2639651 0.00212963172,18.0518548 C0.0191700911,17.8397445 0.0506290277,17.4501399 0.234023531,17.3365364 C4.23176353,14.8751807 24.43746,3 37.00173,3 C36.2729304,16.4847572 39.3794073,71.5698309 38.8101266,89 C26.3414366,89 8.19412353,80.3291101 4.30495353,78.6340839 C4.13465386,78.559796 4.0024317,78.4208218 3.93861965,78.2490429 C3.8748076,78.0772639 3.88488265,77.8874241 3.96653353,77.7230737 L11.4849235,62.5117648 C11.5305741,62.419505 11.5541726,62.318247 11.5539235,62.2156938 C11.5511035,61.0228562 11.5152935,53.2756994 11.0606135,48.8155656 C10.5913635,44.212978 5.21574353,22.9837344 0.234023531,18.6119158 Z" id="Path" fill="#464558" fill-rule="nonzero"></path>
                                    <g id="Group-2" transform="translate(13.000000, 0.000000)">
                                        <path d="M31.8594949,0.638472559 L38.8594949,0.638472559 C40.6037989,6.16239084 41.7666682,12.2144491 42.3481029,18.7946474 C42.9295375,25.3748458 42.9295375,32.4831841 42.3481029,40.1196624 C42.052519,41.6420549 40.8896497,42.9325341 38.8594949,43.9910999 C36.8293401,45.0496657 34.4960067,45.5821809 31.8594949,45.5886454 C32.8638942,38.0969499 33.3660939,30.6052544 33.3660939,23.113559 C33.3660939,15.6218635 32.8638942,8.13016803 31.8594949,0.638472559 Z" id="Rectangle-Copy" fill="#000000"></path>
                                        <path d="M5.62300241,3.6606504 C-1.23494817,6.80896594 -1.81980618,11.9460197 3.86842836,19.0718116 C12.4007802,29.7604994 37.2949717,29.3767495 44.8475993,17.7790229 C49.8826844,10.0472052 47.4852705,4.12086422 37.6553577,-3.55271368e-14 L5.62300241,3.6606504 Z" id="Path-4" fill="#464558"></path>
                                        <path d="M36.8594949,5.63847256 L43.8594949,5.63847256 C45.6037989,11.1623908 46.7666682,17.2144491 47.3481029,23.7946474 C47.9295375,30.3748458 47.9295375,37.4831841 47.3481029,45.1196624 C47.052519,46.6420549 45.8896497,47.9325341 43.8594949,48.9910999 C41.8293401,50.0496657 39.4960067,50.5821809 36.8594949,50.5886454 C37.8638942,43.0969499 38.3660939,35.6052544 38.3660939,28.113559 C38.3660939,20.6218635 37.8638942,13.130168 36.8594949,5.63847256 Z" id="Rectangle" fill="#464558"></path>
                                    </g>
                                    <path d="M49.0934558,6.16565 C49.0515158,6.21395 49.0073158,6.26225 48.9653658,6.31271 C47.6484458,7.85012 54.7559658,10.47971 53.2626558,11.84287 C48.9095858,15.81627 44.7444558,20.06787 40.0919458,23.69521 C35.6265539,27.2413994 30.6675735,30.1169861 25.3717458,32.23108 C19.8080958,34.39173 13.7189758,34.86789 8.26074578,37.29896 C6.14153578,29.81548 3.12127578,21.45822 0.233305778,18.8769 C0.070785052,18.7331576 -0.0148202844,18.5214516 0.00211161236,18.3051459 C0.0190435091,18.0888401 0.136548006,17.893033 0.319455778,17.77633 C4.31845578,15.26853 21.4467258,5 34.0109158,5 C39.0601143,5.02055676 44.1010575,5.41014468 49.0934558,6.16565 Z" id="Path" fill="#000000" fill-rule="nonzero" opacity="0.300000012"></path>
                                </g>
                                <g transform="translate(31.000000, 92.000000)" fill="#000000" fill-rule="nonzero" id="Path">
                                    <path d="M28.542,15.6357 C18.951204,15.5110511 9.50254795,13.299677 0.85255,9.15523 L0.68165,0.75582 C4.45509,2.69332 15.89747,7.92671 29.38965,7.92671 C38.0414919,8.05454542 46.5300241,5.56486936 53.74219,0.78414 L53.4043,9.2314 C51.57029,10.38765 42.47264,15.6357 28.542,15.6357 Z"></path>
                                </g>
                                <path d="M79.44761,23.66151 C79.2440866,23.6582559 79.0425533,23.7019715 78.85867,23.78926 C76.87551,10.37278 68.02989,0.25552 57.41628,0.25552 C46.8172,0.25552 37.98089,10.34502 35.98174,23.73419 C35.8367701,23.6831837 35.6838331,23.658568 35.53018,23.66151 C34.00618,23.69936 32.84018,26.52936 32.92586,29.98251 C33.00902,33.33215 34.8163,36.96451 36.31556,37.14483 C38.8311,49.57801 47.32429,58.72562 57.41628,58.72562 C67.50669,58.72562 75.99858,49.58109 78.51568,37.15109 L78.52406,37.15197 C80.04806,37.18979 81.96616,33.43567 82.05194,29.98251 C82.13772,26.52935 80.97163,23.69936 79.44761,23.66151 Z" id="Path" fill="#575770"></path>
                                <path d="M57.49859,0.258 C57.47102,0.25787 57.44385,0.25554 57.41628,0.25554 C46.8172,0.25554 37.98089,10.34504 35.98174,23.73421 C35.8367701,23.6832037 35.6838331,23.658588 35.53018,23.66153 C34.00618,23.69938 32.84018,26.52938 32.92586,29.98253 C33.00902,33.33217 34.8163,36.96453 36.31556,37.14485 C38.8311,49.57803 47.32429,58.72564 57.41628,58.72564 C57.44385,58.72564 57.47102,58.72345 57.49859,58.72332 L57.49859,0.258 Z" id="Path" fill="#464558"></path>
                                <path d="M74.288,24.7714 C72.35447,22.50277 68.87571,22.35701 66.1251,22.22781 L49.24373,22.22781 C46.49318,22.35701 43.01442,22.50281 41.08082,24.7714 C39.47398,26.65671 39.21637,30.37029 39.53749,32.71708 C39.85449,35.03348 41.29436,38.05702 43.82993,38.47852 C44.3519725,38.5488029 44.8808652,38.5519619 45.40371,38.48792 C47.0746432,38.3825099 48.7238577,38.0532179 50.30715,37.50887 C51.77989,36.94413 53.14157,36.11707 54.64751,35.63401 C55.2129137,35.4528343 55.7974402,35.3379149 56.38935,35.29156 C56.98635,35.24479 57.58777,35.26536 58.18599,35.26792 L58.29568,35.26839 C58.8805409,35.2660791 59.4639612,35.3265386 60.03592,35.44873 C60.2671333,35.4998633 60.4956367,35.5616233 60.72143,35.63401 C62.22724,36.11707 63.58899,36.94413 65.06167,37.50887 C66.6449858,38.05322 68.2942237,38.3825119 69.96518,38.48792 C70.4880248,38.5519618 71.0169175,38.5488028 71.53896,38.47852 C74.07452,38.05702 75.51433,35.03352 75.83139,32.71708 C76.15251,30.37029 75.89491,26.65671 74.288,24.7714 Z" id="Path" fill="#EEBDAA"></path>
                                <path d="M57.70507,22.22825 L57.70507,35.26336 C57.26517,35.26068 56.82533,35.25799 56.38818,35.29018 C55.7966962,35.3374067 55.2126186,35.4525922 54.64749,35.63346 C53.1401,36.11626 51.78025,36.94237 50.30777,37.50829 C48.7236664,38.0523765 47.0737719,38.3816424 45.40217,38.48729 C44.8800805,38.5516815 44.3518969,38.548993 43.83049,38.47929 C41.29322,38.05549 39.85557,35.03274 39.53642,32.71542 C39.21726,30.36857 39.47473,26.6565 41.08132,24.77096 C43.01511,22.5019 46.49381,22.35706 49.24298,22.22825 L57.70507,22.22825 Z" id="Path" fill="#D19F93"></path>
                                <path d="M64.51724,25.93023 C64.7925129,26.0316823 65.0809996,26.0928306 65.37376,26.11178 C65.67023,26.14731 65.9672,26.17811 66.26349,26.21539 C66.85414,26.2897 67.45404,26.35591 68.03766,26.47462 L68.10193,25.77711 C67.79993,25.71883 67.49755,25.66822 67.19647,25.60344 C66.9074392,25.535237 66.6139368,25.487611 66.31817,25.46092 C65.6527645,25.4496039 64.9875191,25.4914973 64.32879,25.5862 L64.53028,26.23169 C65.658347,25.6711371 66.9457134,25.5184896 68.17359,25.79969 C68.369176,25.8166217 68.5419608,25.6729963 68.56106,25.47761 C68.5745227,25.2831254 68.4326406,25.1124476 68.23897,25.09015 C66.8850134,24.8250988 65.4815524,25.008853 64.24147,25.61354 C64.088234,25.6866473 64.0121871,25.8614009 64.06313,26.02336 C64.1156876,26.1837456 64.275905,26.2831613 64.44295,26.25904 L65.40506,26.20104 C65.7056675,26.1710695 66.0080442,26.1628048 66.30984,26.17631 C66.89262,26.22483 67.455,26.44349 68.03766,26.4746 C68.48724,26.4986 68.55291,25.80524 68.10193,25.77709 C67.50665,25.73993 66.91301,25.66845 66.31749,25.62927 C66.01962,25.60967 65.72123,25.58944 65.42288,25.57869 C65.1283773,25.551886 64.831482,25.5724569 64.54349,25.63962 C64.4775232,25.6529955 64.4281678,25.7081 64.4221122,25.7751361 C64.4160566,25.8421723 64.4547381,25.9052295 64.51724,25.93021 L64.51724,25.93023 Z" id="Path" fill="#4D4D4D" fill-rule="nonzero"></path>
                                <path d="M50.56833,26.00111 C50.2930604,26.1025737 50.004572,26.1637224 49.71181,26.18266 C49.41535,26.2182 49.11837,26.249 48.82209,26.28627 C48.23144,26.36058 47.63154,26.42679 47.04791,26.54551 L46.98364,25.848 C47.28564,25.78972 47.58803,25.7391 47.88911,25.67432 C48.1781372,25.6061163 48.4716364,25.5584902 48.7674,25.5318 C49.4328055,25.5204839 50.0980509,25.5623773 50.75678,25.65708 L50.5553,26.30257 C49.4272309,25.7420124 48.1398596,25.5893647 46.91198,25.87057 C46.7163942,25.8874957 46.5436141,25.7438661 46.52452,25.54848 C46.5110517,25.3539972 46.6529307,25.1833176 46.8466,25.16102 C48.2005608,24.8959675 49.6040265,25.0797253 50.84411,25.68442 C50.9973411,25.7575267 51.0733872,25.9322739 51.02245,26.09423 C50.9698884,26.2546171 50.8096675,26.3540323 50.64262,26.32991 L49.68051,26.27191 C49.3799055,26.2419444 49.0775325,26.2336797 48.77574,26.24718 C48.19295,26.2957 47.63058,26.51436 47.04791,26.54548 C46.59833,26.56948 46.53267,25.87612 46.98364,25.84797 C47.57893,25.81081 48.17256,25.73932 48.76808,25.70014 C49.06595,25.68055 49.36435,25.66031 49.66269,25.64957 C49.9571921,25.6227572 50.2540883,25.6433247 50.54208,25.71049 C50.6080468,25.7238655 50.6574022,25.77897 50.6634578,25.8460061 C50.6695134,25.9130423 50.6308319,25.9760995 50.56833,26.00108 L50.56833,26.00111 Z" id="Path" fill="#4D4D4D" fill-rule="nonzero"></path>
                                <g transform="translate(28.000000, 122.000000)" id="Path-+-Path-+-Path-+-Path-+-Path-+-Path-+-Path-+-Path-+-Path-+-Path-+-Path-+-Path-Mask">
                                    <g transform="translate(0.680930, 0.695775)">
                                        <mask id="mask-10" fill="white">
                                            <use xlink:href="#path-9"></use>
                                        </mask>
                                        <use id="Mask" fill="#575770" fill-rule="nonzero" xlink:href="#path-9"></use>
                                    </g>
                                </g>
                                <g transform="translate(0.000000, 110.000000)" fill="#000000" fill-rule="nonzero" id="Path">
                                    <path d="M26.1406,32.98531 C25.4097414,32.9835032 24.6796283,32.9385014 23.95408,32.85054 C19.9840439,32.2590096 16.16531,30.9075161 12.707,28.87007 C9.48923,27.11519 5.83493,24.99607 3.20016,22.05074 C1.17176166,19.9060303 0.0476831262,17.0622567 0.0613643004,14.11031 C0.175658234,12.0434909 0.825885435,10.0419896 1.94821,8.30269 C5.68942,2.25484 11.83591,0.98531 16.33298,0.98531 C21.5746519,1.11728722 26.7178052,2.43864095 31.37398,4.84957 C31.9276933,5.13082333 32.4761967,5.42411667 33.01949,5.72945 C36.49996,7.68645 38.69918,10.13277 39.74117,13.20894 C40.1708369,14.4819045 40.3808618,15.8186764 40.36226,17.16207 C40.1773703,20.735768 38.9875553,24.1847136 36.92965,27.11226 C35.5814502,29.219911 33.664554,30.903204 31.40035,31.96773 C29.7369236,32.6689454 27.9455316,33.0155179 26.1406,32.98531 Z"></path>
                                </g>
                                <path d="M64.47369,143.72776 L58.24451,135.92076 C58.0126784,135.629705 57.613775,135.531514 57.27333,135.6817 C53.73153,137.24439 35.05672,145.48476 33.99674,145.96894 C32.82538,146.50399 34.14743,148.61725 35.92005,148.62982 C40.31483,148.66098 50.65029,147.381 53.49865,148.44314 C56.68677,149.63192 64.47369,143.72776 64.47369,143.72776 Z" id="Path" fill="#464558" fill-rule="nonzero"></path>
                                <g transform="translate(49.000000, 122.000000)" id="Path-+-Path-+-Path-+-Path-+-Path-+-Path-+-Path-+-Path-+-Path-+-Path-+-Path-+-Path-Mask">
                                    <g transform="translate(0.980046, 0.087633)">
                                        <mask id="mask-12" fill="white">
                                            <use xlink:href="#path-11"></use>
                                        </mask>
                                        <use id="Mask" fill="#464558" fill-rule="nonzero" xlink:href="#path-11"></use>
                                    </g>
                                </g>
                                <g transform="translate(73.000000, 109.000000)" fill="#000000" fill-rule="nonzero" id="Path">
                                    <path d="M14.22557,32.9775 C12.8645376,32.9908223 11.5107709,32.7776254 10.21971,32.34664 C7.87425801,31.4755011 5.82322722,29.9583762 4.30371,27.97064 C2.00854021,25.2255458 0.535022613,21.8882312 0.05271,18.34271 C-0.0778924424,17.0052658 0.0195217125,15.655355 0.3408,14.35052 C1.12205,11.19818 3.10935,8.57611 6.41502,6.3349 C6.92968667,5.98623333 7.45149667,5.64834333 7.98045,5.32123 C12.9520188,2.13375325 18.6889116,0.341079355 24.5908,0.1308 C30.1826,0.1308 34.55662,2.20794 37.5908,6.30462 C38.8552193,7.9434589 39.6707511,9.88350443 39.95701,11.93353 C40.2174062,14.8740651 39.3346305,17.8018508 37.49217,20.10834 C35.11424,23.26263 31.64939,25.67962 28.58787,27.69818 C25.3123494,30.0183578 21.6198271,31.6845698 17.71287,32.60541 C16.5662266,32.8463418 15.3982043,32.9709961 14.22654,32.97748 L14.22557,32.9775 Z"></path>
                                </g>
                                <g transform="translate(100.000000, 105.000000)" fill="#000000" fill-rule="nonzero" id="Path">
                                    <g>
                                        <path d="M5.73338,12.76851 C5.32538671,12.7645079 4.91841416,12.7269479 4.51658,12.65621 C3.90852724,12.5831636 3.32368162,12.3785511 2.80271,12.0566 C2.11623776,11.5866419 1.68295814,10.8280395 1.62693,9.998 L1.62205,9.89742 C1.62317285,9.81972545 1.61397925,9.7422255 1.59471,9.66695 C1.54024284,9.57059677 1.46877631,9.48490402 1.38377,9.41402 L1.2617,9.29097 C0.498339688,8.33900646 0.32572089,7.04228977 0.81346,5.92378 C0.995340848,5.42607887 1.21067559,4.94124913 1.45799,4.47261 C1.69531768,4.02368223 1.90089777,3.55867685 2.07322,3.08101 C2.11747881,2.92417719 2.18601871,2.77524049 2.27635,2.63961 C2.36857502,2.51712393 2.48364656,2.41365598 2.61521,2.33492 C3.07982521,2.08614719 3.59796991,1.95409625 4.12498,1.95015 C4.29392,1.9355 4.46287,1.92183 4.62791,1.89644 C5.23633448,1.77443352 5.8260414,1.57283015 6.38182,1.29683 C6.96793663,1.0110192 7.5858494,0.795651681 8.22264,0.65523 C8.37720181,0.619196068 8.53478082,0.597619761 8.69334,0.59078 C8.93703758,0.583868249 9.17177434,0.682891379 9.33689,0.86226 C9.53986939,1.11657211 9.69324795,1.4067651 9.78904,1.71773 C9.82127,1.80073 9.85057,1.87984 9.88084,1.9482 C10.1740644,2.61756078 10.4070819,3.31171048 10.57713,4.02242 C10.7729339,4.83780556 10.8609246,5.67535468 10.83885,6.51363 C10.8152246,8.60599369 9.86970295,10.5813582 8.25485,11.91207 C7.94507338,12.1573441 7.60216001,12.3575674 7.2363,12.50679 C6.75649692,12.6886955 6.24642917,12.7775192 5.73338,12.76851 Z"></path>
                                    </g>
                                </g>
                                <g transform="translate(3.000000, 106.000000)" fill="#000000" fill-rule="nonzero" id="Path">
                                    <g>
                                        <path d="M5.35838,12.707 C4.97278117,12.7102128 4.58890435,12.6552307 4.21971,12.54391 C3.84327328,12.4230768 3.48587238,12.2494754 3.15818,12.02829 C1.4480659,10.8229002 0.357057446,8.92426208 0.17674,6.83981 C0.0898142231,6.005657 0.114113538,5.16365175 0.249,4.3359 C0.364714406,3.61423067 0.544796349,2.904368 0.78709,2.21481 C0.8115,2.14645 0.83494,2.0654 0.85935,1.98141 C0.932270222,1.66260327 1.06409009,1.36021932 1.24803,1.08981 C1.42178047,0.875287802 1.6870924,0.756041439 1.96287,0.76852 C2.06482761,0.770613071 2.16657053,0.778767464 2.26756,0.79294 C2.93880335,0.882324319 3.59665241,1.05317702 4.22656,1.30172 C4.80189623,1.53509085 5.4053447,1.69202807 6.02148,1.76852 C6.18748,1.78024 6.35648,1.78122 6.52539,1.78317 C7.05103269,1.74804195 7.57737667,1.84051187 8.05957,2.0527 C8.19647555,2.12099912 8.31884807,2.21518199 8.41992,2.33004 C8.51391457,2.44776951 8.58872922,2.57960301 8.6416,2.72067 C8.85290927,3.19593311 9.0980036,3.65544321 9.375,4.09567 C9.65694064,4.54480564 9.90848033,5.0123221 10.12793,5.49508 C10.6990733,6.57363631 10.6245939,7.88003444 9.93457,8.88669 L9.82226,9.01852 C9.74329312,9.09560602 9.67879796,9.18623523 9.63184,9.2861 C9.61851826,9.36117234 9.61490531,9.43764609 9.62109,9.51364 L9.62402,9.62204 C9.63011332,10.4531171 9.25514887,11.241188 8.60644,11.76071 C8.11131728,12.1208142 7.54387102,12.3690523 6.94336,12.48825 C6.42578403,12.6248312 5.89358266,12.6982817 5.35836,12.707 L5.35838,12.707 Z"></path>
                                    </g>
                                </g>
                                <path d="M66.33414,30.81328 C65.5272955,30.7911817 64.7465534,30.5226114 64.09686,30.04367 C63.8741539,29.8770485 63.8286885,29.5614361 63.99531,29.33873 C64.1619315,29.1160239 64.4775439,29.0705585 64.70025,29.23718 C65.0536749,29.6591127 65.5729012,29.9067837 66.1232217,29.9159373 C66.6735421,29.925091 67.2007182,29.6948253 67.56798,29.28488 C67.7646915,29.0887078 68.0831196,29.0889263 68.2795616,29.2853684 C68.4760037,29.4818104 68.4762222,29.8002385 68.28005,29.99695 C67.7707878,30.5243706 67.0672715,30.8195032 66.33414,30.81328 Z" id="Path" fill="#4D4D4D" fill-rule="nonzero"></path>
                                <path d="M49.44681,31.0929 C48.6264868,31.0704294 47.832702,30.7973754 47.17215,30.31044 C46.9457133,30.1410322 46.8994822,29.8201367 47.06889,29.5937 C47.2382978,29.3672633 47.5591933,29.3210322 47.78563,29.49044 C48.144972,29.9193973 48.672866,30.1711883 49.2323697,30.1804953 C49.7918734,30.1898024 50.3278498,29.9557083 50.70126,29.53894 C50.9011871,29.3390129 51.2253329,29.3390129 51.42526,29.53894 C51.6251871,29.7388671 51.6251871,30.0630129 51.42526,30.26294 C50.9074813,30.7991771 50.192199,31.0992381 49.44681,31.0929 L49.44681,31.0929 Z" id="Path" fill="#4D4D4D" fill-rule="nonzero"></path>
                            </g>
                        </g>
                        <g id="Group-8" transform="translate(42.000000, 39.000000)">
                            <path d="M49.0934558,6.16565 C49.0515158,6.21395 49.0073158,6.26225 48.9653658,6.31271 C47.6484458,7.85012 54.7559658,10.47971 53.2626558,11.84287 C48.9095858,15.81627 44.7444558,20.06787 40.0919458,23.69521 C35.6265539,27.2413994 30.6675735,30.1169861 25.3717458,32.23108 C19.8080958,34.39173 13.7189758,34.86789 8.26074578,37.29896 C6.14153578,29.81548 3.12127578,21.45822 0.233305778,18.8769 C0.070785052,18.7331576 -0.0148202844,18.5214516 0.00211161236,18.3051459 C0.0190435091,18.0888401 0.136548006,17.893033 0.319455778,17.77633 C4.31845578,15.26853 21.4467258,5 34.0109158,5 C39.0601143,5.02055676 44.1010575,5.41014468 49.0934558,6.16565 Z" id="Path" fill="#000000" fill-rule="nonzero" opacity="0.1"></path>
                            <g id="Group-2" transform="translate(13.000000, 0.000000)">
                                <path d="M31.8594949,0.638472559 L38.8594949,0.638472559 C40.6037989,6.16239084 41.7666682,12.2144491 42.3481029,18.7946474 C42.9295375,25.3748458 42.9295375,32.4831841 42.3481029,40.1196624 C42.052519,41.6420549 40.8896497,42.9325341 38.8594949,43.9910999 C36.8293401,45.0496657 34.4960067,45.5821809 31.8594949,45.5886454 C32.8638942,38.0969499 33.3660939,30.6052544 33.3660939,23.113559 C33.3660939,15.6218635 32.8638942,8.13016803 31.8594949,0.638472559 Z" id="Rectangle-Copy" fill="#000000"></path>
                                <path d="M5.62300241,3.6606504 C-1.23494817,6.80896594 -1.81980618,11.9460197 3.86842836,19.0718116 C12.4007802,29.7604994 37.2949717,29.3767495 44.8475993,17.7790229 C49.8826844,10.0472052 47.4852705,4.12086422 37.6553577,-3.55271368e-14 L5.62300241,3.6606504 Z" id="Path-4" fill="#464558"></path>
                                <path d="M36.8594949,5.63847256 L43.8594949,5.63847256 C45.6037989,11.1623908 46.7666682,17.2144491 47.3481029,23.7946474 C47.9295375,30.3748458 47.9295375,37.4831841 47.3481029,45.1196624 C47.052519,46.6420549 45.8896497,47.9325341 43.8594949,48.9910999 C41.8293401,50.0496657 39.4960067,50.5821809 36.8594949,50.5886454 C37.8638942,43.0969499 38.3660939,35.6052544 38.3660939,28.113559 C38.3660939,20.6218635 37.8638942,13.130168 36.8594949,5.63847256 Z" id="Rectangle" fill="#464558"></path>
                            </g>
                            <path d="M49.0934558,6.16565 C49.0515158,6.21395 49.0073158,6.26225 48.9653658,6.31271 C47.6484458,7.85012 54.7559658,10.47971 53.2626558,11.84287 C48.9095858,15.81627 44.7444558,20.06787 40.0919458,23.69521 C35.6265539,27.2413994 30.6675735,30.1169861 25.3717458,32.23108 C19.8080958,34.39173 13.7189758,34.86789 8.26074578,37.29896 C6.14153578,29.81548 3.12127578,21.45822 0.233305778,18.8769 C0.070785052,18.7331576 -0.0148202844,18.5214516 0.00211161236,18.3051459 C0.0190435091,18.0888401 0.0503980058,17.4532395 0.233305778,17.3365364 C2.1405877,16.140467 7.01870319,12.9501068 13,10.284 C13.7379327,1.8922838 28.7958849,0.293131326 34.0109158,5 C39.0601143,5.02055676 44.1010575,5.41014468 49.0934558,6.16565 Z" id="Path" fill="#000000" fill-rule="nonzero" opacity="0.300000012"></path>
                        </g>
                    </g>
                    <g transform="translate(53.000000, 92.000000)" fill="#000000" fill-rule="nonzero" id="Path">
                        <path d="M28.542,15.6357 C18.951204,15.5110511 9.50254795,13.299677 0.85255,9.15523 L0.68165,0.75582 C4.45509,2.69332 15.89747,7.92671 29.38965,7.92671 C38.0414919,8.05454542 46.5300241,5.56486936 53.74219,0.78414 L53.4043,9.2314 C51.57029,10.38765 42.47264,15.6357 28.542,15.6357 Z"></path>
                    </g>
                    <path d="M101.44761,23.66151 C101.244087,23.6582559 101.042553,23.7019715 100.85867,23.78926 C98.87551,10.37278 90.02989,0.25552 79.41628,0.25552 C68.8172,0.25552 59.98089,10.34502 57.98174,23.73419 C57.8367701,23.6831837 57.6838331,23.658568 57.53018,23.66151 C56.00618,23.69936 54.84018,26.52936 54.92586,29.98251 C55.00902,33.33215 56.8163,36.96451 58.31556,37.14483 C60.8311,49.57801 69.32429,58.72562 79.41628,58.72562 C89.50669,58.72562 97.99858,49.58109 100.51568,37.15109 L100.52406,37.15197 C102.04806,37.18979 103.96616,33.43567 104.05194,29.98251 C104.13772,26.52935 102.97163,23.69936 101.44761,23.66151 Z" id="Path" fill="#575770"></path>
                    <path d="M79.49859,0.258 C79.47102,0.25787 79.44385,0.25554 79.41628,0.25554 C68.8172,0.25554 59.98089,10.34504 57.98174,23.73421 C57.8367701,23.6832037 57.6838331,23.658588 57.53018,23.66153 C56.00618,23.69938 54.84018,26.52938 54.92586,29.98253 C55.00902,33.33217 56.8163,36.96453 58.31556,37.14485 C60.8311,49.57803 69.32429,58.72564 79.41628,58.72564 C79.44385,58.72564 79.47102,58.72345 79.49859,58.72332 L79.49859,0.258 Z" id="Path" fill="#464558"></path>
                    <path d="M96.288,24.7714 C94.35447,22.50277 90.87571,22.35701 88.1251,22.22781 L71.24373,22.22781 C68.49318,22.35701 65.01442,22.50281 63.08082,24.7714 C61.47398,26.65671 61.21637,30.37029 61.53749,32.71708 C61.85449,35.03348 63.29436,38.05702 65.82993,38.47852 C66.3519725,38.5488029 66.8808652,38.5519619 67.40371,38.48792 C69.0746432,38.3825099 70.7238577,38.0532179 72.30715,37.50887 C73.77989,36.94413 75.14157,36.11707 76.64751,35.63401 C77.2129137,35.4528343 77.7974402,35.3379149 78.38935,35.29156 C78.98635,35.24479 79.58777,35.26536 80.18599,35.26792 L80.29568,35.26839 C80.8805409,35.2660791 81.4639612,35.3265386 82.03592,35.44873 C82.2671333,35.4998633 82.4956367,35.5616233 82.72143,35.63401 C84.22724,36.11707 85.58899,36.94413 87.06167,37.50887 C88.6449858,38.05322 90.2942237,38.3825119 91.96518,38.48792 C92.4880248,38.5519618 93.0169175,38.5488028 93.53896,38.47852 C96.07452,38.05702 97.51433,35.03352 97.83139,32.71708 C98.15251,30.37029 97.89491,26.65671 96.288,24.7714 Z" id="Path" fill="#EEBDAA"></path>
                    <path d="M79.70507,22.22825 L79.70507,35.26336 C79.26517,35.26068 78.82533,35.25799 78.38818,35.29018 C77.7966962,35.3374067 77.2126186,35.4525922 76.64749,35.63346 C75.1401,36.11626 73.78025,36.94237 72.30777,37.50829 C70.7236664,38.0523765 69.0737719,38.3816424 67.40217,38.48729 C66.8800805,38.5516815 66.3518969,38.548993 65.83049,38.47929 C63.29322,38.05549 61.85557,35.03274 61.53642,32.71542 C61.21726,30.36857 61.47473,26.6565 63.08132,24.77096 C65.01511,22.5019 68.49381,22.35706 71.24298,22.22825 L79.70507,22.22825 Z" id="Path" fill="#D19F93"></path>
                    <path d="M86.51724,25.93023 C86.7925129,26.0316823 87.0809996,26.0928306 87.37376,26.11178 C87.67023,26.14731 87.9672,26.17811 88.26349,26.21539 C88.85414,26.2897 89.45404,26.35591 90.03766,26.47462 L90.10193,25.77711 C89.79993,25.71883 89.49755,25.66822 89.19647,25.60344 C88.9074392,25.535237 88.6139368,25.487611 88.31817,25.46092 C87.6527645,25.4496039 86.9875191,25.4914973 86.32879,25.5862 L86.53028,26.23169 C87.658347,25.6711371 88.9457134,25.5184896 90.17359,25.79969 C90.369176,25.8166217 90.5419608,25.6729963 90.56106,25.47761 C90.5745227,25.2831254 90.4326406,25.1124476 90.23897,25.09015 C88.8850134,24.8250988 87.4815524,25.008853 86.24147,25.61354 C86.088234,25.6866473 86.0121871,25.8614009 86.06313,26.02336 C86.1156876,26.1837456 86.275905,26.2831613 86.44295,26.25904 L87.40506,26.20104 C87.7056675,26.1710695 88.0080442,26.1628048 88.30984,26.17631 C88.89262,26.22483 89.455,26.44349 90.03766,26.4746 C90.48724,26.4986 90.55291,25.80524 90.10193,25.77709 C89.50665,25.73993 88.91301,25.66845 88.31749,25.62927 C88.01962,25.60967 87.72123,25.58944 87.42288,25.57869 C87.1283773,25.551886 86.831482,25.5724569 86.54349,25.63962 C86.4775232,25.6529955 86.4281678,25.7081 86.4221122,25.7751361 C86.4160566,25.8421723 86.4547381,25.9052295 86.51724,25.93021 L86.51724,25.93023 Z" id="Path" fill="#4D4D4D" fill-rule="nonzero"></path>
                    <path d="M72.56833,26.00111 C72.2930604,26.1025737 72.004572,26.1637224 71.71181,26.18266 C71.41535,26.2182 71.11837,26.249 70.82209,26.28627 C70.23144,26.36058 69.63154,26.42679 69.04791,26.54551 L68.98364,25.848 C69.28564,25.78972 69.58803,25.7391 69.88911,25.67432 C70.1781372,25.6061163 70.4716364,25.5584902 70.7674,25.5318 C71.4328055,25.5204839 72.0980509,25.5623773 72.75678,25.65708 L72.5553,26.30257 C71.4272309,25.7420124 70.1398596,25.5893647 68.91198,25.87057 C68.7163942,25.8874957 68.5436141,25.7438661 68.52452,25.54848 C68.5110517,25.3539972 68.6529307,25.1833176 68.8466,25.16102 C70.2005608,24.8959675 71.6040265,25.0797253 72.84411,25.68442 C72.9973411,25.7575267 73.0733872,25.9322739 73.02245,26.09423 C72.9698884,26.2546171 72.8096675,26.3540323 72.64262,26.32991 L71.68051,26.27191 C71.3799055,26.2419444 71.0775325,26.2336797 70.77574,26.24718 C70.19295,26.2957 69.63058,26.51436 69.04791,26.54548 C68.59833,26.56948 68.53267,25.87612 68.98364,25.84797 C69.57893,25.81081 70.17256,25.73932 70.76808,25.70014 C71.06595,25.68055 71.36435,25.66031 71.66269,25.64957 C71.9571921,25.6227572 72.2540883,25.6433247 72.54208,25.71049 C72.6080468,25.7238655 72.6574022,25.77897 72.6634578,25.8460061 C72.6695134,25.9130423 72.6308319,25.9760995 72.56833,26.00108 L72.56833,26.00111 Z" id="Path" fill="#4D4D4D" fill-rule="nonzero"></path>
                    <g transform="translate(50.000000, 122.000000)" id="Path-+-Path-+-Path-+-Path-+-Path-+-Path-+-Path-+-Path-+-Path-+-Path-+-Path-+-Path-Mask">
                        <g transform="translate(0.680930, 0.695775)">
                            <mask id="mask-14" fill="white">
                                <use xlink:href="#path-13"></use>
                            </mask>
                            <use id="Mask" fill="#575770" fill-rule="nonzero" xlink:href="#path-13"></use>
                        </g>
                    </g>
                    <g transform="translate(22.000000, 110.000000)" fill="#000000" fill-rule="nonzero" id="Path">
                        <path d="M26.1406,32.98531 C25.4097414,32.9835032 24.6796283,32.9385014 23.95408,32.85054 C19.9840439,32.2590096 16.16531,30.9075161 12.707,28.87007 C9.48923,27.11519 5.83493,24.99607 3.20016,22.05074 C1.17176166,19.9060303 0.0476831262,17.0622567 0.0613643004,14.11031 C0.175658234,12.0434909 0.825885435,10.0419896 1.94821,8.30269 C5.68942,2.25484 11.83591,0.98531 16.33298,0.98531 C21.5746519,1.11728722 26.7178052,2.43864095 31.37398,4.84957 C31.9276933,5.13082333 32.4761967,5.42411667 33.01949,5.72945 C36.49996,7.68645 38.69918,10.13277 39.74117,13.20894 C40.1708369,14.4819045 40.3808618,15.8186764 40.36226,17.16207 C40.1773703,20.735768 38.9875553,24.1847136 36.92965,27.11226 C35.5814502,29.219911 33.664554,30.903204 31.40035,31.96773 C29.7369236,32.6689454 27.9455316,33.0155179 26.1406,32.98531 Z"></path>
                    </g>
                    <path d="M86.47369,143.72776 L80.24451,135.92076 C80.0126784,135.629705 79.613775,135.531514 79.27333,135.6817 C75.73153,137.24439 57.05672,145.48476 55.99674,145.96894 C54.82538,146.50399 56.14743,148.61725 57.92005,148.62982 C62.31483,148.66098 72.65029,147.381 75.49865,148.44314 C78.68677,149.63192 86.47369,143.72776 86.47369,143.72776 Z" id="Path" fill="#464558" fill-rule="nonzero"></path>
                    <g transform="translate(71.000000, 122.000000)" id="Path-+-Path-+-Path-+-Path-+-Path-+-Path-+-Path-+-Path-+-Path-+-Path-+-Path-+-Path-Mask">
                        <g transform="translate(0.980046, 0.087633)">
                            <mask id="mask-16" fill="white">
                                <use xlink:href="#path-15"></use>
                            </mask>
                            <use id="Mask" fill="#464558" fill-rule="nonzero" xlink:href="#path-15"></use>
                        </g>
                    </g>
                    <g transform="translate(95.000000, 109.000000)" fill="#000000" fill-rule="nonzero" id="Path">
                        <path d="M14.22557,32.9775 C12.8645376,32.9908223 11.5107709,32.7776254 10.21971,32.34664 C7.87425801,31.4755011 5.82322722,29.9583762 4.30371,27.97064 C2.00854021,25.2255458 0.535022613,21.8882312 0.05271,18.34271 C-0.0778924424,17.0052658 0.0195217125,15.655355 0.3408,14.35052 C1.12205,11.19818 3.10935,8.57611 6.41502,6.3349 C6.92968667,5.98623333 7.45149667,5.64834333 7.98045,5.32123 C12.9520188,2.13375325 18.6889116,0.341079355 24.5908,0.1308 C30.1826,0.1308 34.55662,2.20794 37.5908,6.30462 C38.8552193,7.9434589 39.6707511,9.88350443 39.95701,11.93353 C40.2174062,14.8740651 39.3346305,17.8018508 37.49217,20.10834 C35.11424,23.26263 31.64939,25.67962 28.58787,27.69818 C25.3123494,30.0183578 21.6198271,31.6845698 17.71287,32.60541 C16.5662266,32.8463418 15.3982043,32.9709961 14.22654,32.97748 L14.22557,32.9775 Z"></path>
                    </g>
                    <g transform="translate(122.000000, 105.000000)" fill="#000000" fill-rule="nonzero" id="Path">
                        <g>
                            <path d="M5.73338,12.76851 C5.32538671,12.7645079 4.91841416,12.7269479 4.51658,12.65621 C3.90852724,12.5831636 3.32368162,12.3785511 2.80271,12.0566 C2.11623776,11.5866419 1.68295814,10.8280395 1.62693,9.998 L1.62205,9.89742 C1.62317285,9.81972545 1.61397925,9.7422255 1.59471,9.66695 C1.54024284,9.57059677 1.46877631,9.48490402 1.38377,9.41402 L1.2617,9.29097 C0.498339688,8.33900646 0.32572089,7.04228977 0.81346,5.92378 C0.995340848,5.42607887 1.21067559,4.94124913 1.45799,4.47261 C1.69531768,4.02368223 1.90089777,3.55867685 2.07322,3.08101 C2.11747881,2.92417719 2.18601871,2.77524049 2.27635,2.63961 C2.36857502,2.51712393 2.48364656,2.41365598 2.61521,2.33492 C3.07982521,2.08614719 3.59796991,1.95409625 4.12498,1.95015 C4.29392,1.9355 4.46287,1.92183 4.62791,1.89644 C5.23633448,1.77443352 5.8260414,1.57283015 6.38182,1.29683 C6.96793663,1.0110192 7.5858494,0.795651681 8.22264,0.65523 C8.37720181,0.619196068 8.53478082,0.597619761 8.69334,0.59078 C8.93703758,0.583868249 9.17177434,0.682891379 9.33689,0.86226 C9.53986939,1.11657211 9.69324795,1.4067651 9.78904,1.71773 C9.82127,1.80073 9.85057,1.87984 9.88084,1.9482 C10.1740644,2.61756078 10.4070819,3.31171048 10.57713,4.02242 C10.7729339,4.83780556 10.8609246,5.67535468 10.83885,6.51363 C10.8152246,8.60599369 9.86970295,10.5813582 8.25485,11.91207 C7.94507338,12.1573441 7.60216001,12.3575674 7.2363,12.50679 C6.75649692,12.6886955 6.24642917,12.7775192 5.73338,12.76851 Z"></path>
                        </g>
                    </g>
                    <g transform="translate(25.000000, 106.000000)" fill="#000000" fill-rule="nonzero" id="Path">
                        <g>
                            <path d="M5.35838,12.707 C4.97278117,12.7102128 4.58890435,12.6552307 4.21971,12.54391 C3.84327328,12.4230768 3.48587238,12.2494754 3.15818,12.02829 C1.4480659,10.8229002 0.357057446,8.92426208 0.17674,6.83981 C0.0898142231,6.005657 0.114113538,5.16365175 0.249,4.3359 C0.364714406,3.61423067 0.544796349,2.904368 0.78709,2.21481 C0.8115,2.14645 0.83494,2.0654 0.85935,1.98141 C0.932270222,1.66260327 1.06409009,1.36021932 1.24803,1.08981 C1.42178047,0.875287802 1.6870924,0.756041439 1.96287,0.76852 C2.06482761,0.770613071 2.16657053,0.778767464 2.26756,0.79294 C2.93880335,0.882324319 3.59665241,1.05317702 4.22656,1.30172 C4.80189623,1.53509085 5.4053447,1.69202807 6.02148,1.76852 C6.18748,1.78024 6.35648,1.78122 6.52539,1.78317 C7.05103269,1.74804195 7.57737667,1.84051187 8.05957,2.0527 C8.19647555,2.12099912 8.31884807,2.21518199 8.41992,2.33004 C8.51391457,2.44776951 8.58872922,2.57960301 8.6416,2.72067 C8.85290927,3.19593311 9.0980036,3.65544321 9.375,4.09567 C9.65694064,4.54480564 9.90848033,5.0123221 10.12793,5.49508 C10.6990733,6.57363631 10.6245939,7.88003444 9.93457,8.88669 L9.82226,9.01852 C9.74329312,9.09560602 9.67879796,9.18623523 9.63184,9.2861 C9.61851826,9.36117234 9.61490531,9.43764609 9.62109,9.51364 L9.62402,9.62204 C9.63011332,10.4531171 9.25514887,11.241188 8.60644,11.76071 C8.11131728,12.1208142 7.54387102,12.3690523 6.94336,12.48825 C6.42578403,12.6248312 5.89358266,12.6982817 5.35836,12.707 L5.35838,12.707 Z"></path>
                        </g>
                    </g>
                    <path d="M88.33414,30.81328 C87.5272955,30.7911817 86.7465534,30.5226114 86.09686,30.04367 C85.8741539,29.8770485 85.8286885,29.5614361 85.99531,29.33873 C86.1619315,29.1160239 86.4775439,29.0705585 86.70025,29.23718 C87.0536749,29.6591127 87.5729012,29.9067837 88.1232217,29.9159373 C88.6735421,29.925091 89.2007182,29.6948253 89.56798,29.28488 C89.7646915,29.0887078 90.0831196,29.0889263 90.2795616,29.2853684 C90.4760037,29.4818104 90.4762222,29.8002385 90.28005,29.99695 C89.7707878,30.5243706 89.0672715,30.8195032 88.33414,30.81328 Z" id="Path" fill="#4D4D4D" fill-rule="nonzero"></path>
                    <path d="M71.44681,31.0929 C70.6264868,31.0704294 69.832702,30.7973754 69.17215,30.31044 C68.9457133,30.1410322 68.8994822,29.8201367 69.06889,29.5937 C69.2382978,29.3672633 69.5591933,29.3210322 69.78563,29.49044 C70.144972,29.9193973 70.672866,30.1711883 71.2323697,30.1804953 C71.7918734,30.1898024 72.3278498,29.9557083 72.70126,29.53894 C72.9011871,29.3390129 73.2253329,29.3390129 73.42526,29.53894 C73.6251871,29.7388671 73.6251871,30.0630129 73.42526,30.26294 C72.9074813,30.7991771 72.192199,31.0992381 71.44681,31.0929 L71.44681,31.0929 Z" id="Path" fill="#4D4D4D" fill-rule="nonzero"></path>
                </g>
            </g>
        </g>
    </g>
</svg>