<svg fill="none" height="187" width="227" xmlns="http://www.w3.org/2000/svg"><path d="M155.08 45.06c4.31.63 8.68-.76 12.62-2.63 4.8-2.28 19.97-12.76 26.1-3.48.85 1.28 1.28 2.82 2.32 3.95 1.66 1.82 4.46 2.09 6.87 1.58 2.36-.51 15.26-7.56 23.65 3.59l-5.78 5.43c-1.3-7.9-7.17-8.66-12.24-7.87-5.18.82-9.83 3.9-12.54.82-1.28-1.45-1.27-5.19-2.92-6.24-11.93-7.6-8.27 14.15-25.13 13.48-4.21-.18-8.25-1.62-12.19-3.08-13.03-4.86-14.6-.92-19.27 2.8-3.23 2.6-7.42 4.02-11.55 3.7a14.67 14.67 0 0 1-10.6-5.7c19.65 4.55 19-9.54 40.66-6.35z" fill="#74a352"/><path d="M220.39 51.5a21.5 21.5 0 0 0-1.47-9.05c2.7.82 5.4 2.5 7.72 5.6l-5.78 5.44c-.12-.72-.28-1.38-.47-2z" fill="#3e5c2e"/><path d="M202.52 44.56c.04 0 .1 0 .13-.02 2.7-.35 5.2-2 7.96-1.85 3.32.17 6.52 2.69 8.33 5.35a9.85 9.85 0 0 1 1.4 3.32c-1.95-5.89-7.16-6.44-11.72-5.71-10.3 1.61-10.38 2.51-12.13-2.37 1.58 1.36 3.92 1.63 6.03 1.28zM193.16 40.21a16.4 16.4 0 0 0-1.79-.98 11.8 11.8 0 0 0-2.13-3.68 7.96 7.96 0 0 1 4.56 3.39c.74 1.13 1.17 2.46 1.97 3.53.18 1.54.45 3.08.91 4.53a3.42 3.42 0 0 1-.6-.56c-1.28-1.44-1.27-5.18-2.92-6.23zM135.23 48.12c-.35.32-.69.65-1.02.98-2.75 2.67-5.5 5.22-9.13 6.6-1.05.4-2.12.65-3.2.83a14.4 14.4 0 0 1-7.43-5.11c10.6 2.46 15.3-.54 20.78-3.3z" fill="#568040"/><path d="M124.13 52.38a33.37 33.37 0 0 1-6.29 2.25 13.86 13.86 0 0 1-3.42-3.21c4.21.96 7.48 1.08 10.25.7-.17.09-.35.18-.54.26z" fill="#3e5c2e"/><path d="M168.23 42.16c3.33-1.7 10.28-6.1 16.44-6.87-7.37 2.61-11.04 23.32-32.75 9.4 1 .08 2.04.19 3.16.37 4.31.63 8.68-.76 12.62-2.63.14-.06.29-.13.43-.21l.1-.06z" fill="#aed888" opacity=".49"/><path d="M150.65 46.12c3.08 1.3 5.58 3.61 8.3 5.6l-3.1-1.12c-8.3-3.08-11.95-2.61-14.7-.9.41-.77.92-1.49 1.53-2.12a6.84 6.84 0 0 1 4.74-2.19c1.12-.01 2.21.3 3.23.73z" fill="#3e5c2e"/><path d="M170.93 42.93c-2.29 2.02-4.77 2.93-7.77 2.07-.4-.12-.77-.27-1.13-.44a32.73 32.73 0 0 0 5.67-2.13c1.63-.78 4.47-2.5 7.74-4.07-1.54 1.5-2.9 3.16-4.51 4.57z" fill="#aed888" opacity=".49"/><path d="M207.25 25.48c1.04 3.75-2.97 9.7-10.81 7.66-16.29-4.2-22.26-4.05-32.15-.9-6.01 1.9 3.76.56 3.76.56s10.44-.6 13.87-.14c3.42.44 12.85 2.12 15.98 2.36 3.14.25 6.96-.41 8.38-2.39 1.41-1.96.97-7.15.97-7.15z" fill="#74a352"/><path d="M135.74 59.39c22.15 3.48 17.39-16.2 20.8-21.77.82-1.33 1.98-2.4 3.27-3.28 1.42-.97 3-1.7 4.65-2.15 2.4-.68 4.94-.76 7.44-.73 6.28.05 12.57.67 18.68 2.12 10.86 2.57 11.37 1.6 19.7-6.45-2.5 7.03-7.25 8.19-12.64 8.18-5.28-.02-44.14-9.4-40.52 11.52.2.82.35 1.6.42 1.9 2.39 11.18-4.64 20.62-23.72 13.35-4.58-1.74-14.88-6.1-21.13.32 3.1-7.5 16.51-4.03 23.05-3.01z" fill="#3e5c2e"/><path d="M157.13 46.83c.2.82.35 1.6.42 1.9.26 1.2.4 2.36.43 3.5-.35-.55-.71-1.1-1.05-1.68-.82-1.4-1.65-3.1-2.26-4.89.53-3.3.8-6.33 1.86-8.04.82-1.33 1.98-2.4 3.27-3.28 1.42-.97 3-1.7 4.65-2.15 2.4-.68 4.93-.76 7.44-.73 6.28.05 12.57.67 18.67 2.12 10.87 2.57 11.38 1.6 19.7-6.45-2.48 7.03-7.24 8.19-12.64 8.18-5.24-.03-44.1-9.4-40.49 11.52zM135.74 59.39c14.55 2.29 17.48-5.4 18.76-12.55 1.83 5.72 1.52 11.54-2.23 16.4-3.96 2-10.02 2.05-18.44-1.16-4.57-1.74-14.87-6.1-21.13.32 3.1-7.5 16.5-4.03 23.04-3.01z" fill="#568040"/><path d="M129.97 59.07c1.33.23 2.68.52 3.97.88 2.55.74 4.83 2 6.95 3.57.34.25.77.52 1.2.83-2.45-.36-5.2-1.1-8.26-2.26-2.11-.8-5.43-2.15-9.01-2.75 1.75-.42 3.38-.6 5.15-.27z" fill="#3e5c2e"/><path d="M152.59 53.82c-.6 2.4-1.52 4.91-3.53 6.5-2.39 1.9-5.78 2.01-8.5.76a9.81 9.81 0 0 1-2.1-1.37c8.68.67 12.51-2.75 14.44-7.2-.1.47-.2.9-.31 1.31z" fill="#74a352"/><path d="M212.7 1c.9 1.7 1.7 6.87-.57 9.55-1.87 2.2-3.9 4.4-4.73 7.15-.85 2.79-.35 5.77-.34 8.68 0 .64-.01 1.29-.16 1.9-.47 1.97-2.93 5.25-5.92 6.18 5.2-.78 9.03-4.73 9.63-8.7.18-1.12.07-2.26.07-3.39 0-8.2 5.03-12.12 6.23-14.36 1.6-3.03.44-5.43-.11-7.79-.02.02-3.15.7-4.1.78z" fill="#568040"/><path d="M210.5 26.38c-1.66-6.94-6.9-7.59 4.54-15.83-1.89 2.43-4.36 6.06-4.36 11.82 0 1.13.1 2.27-.07 3.39l-.12.62z" fill="#3e5c2e" opacity=".32"/><path d="M213.28 13.08a17.34 17.34 0 0 0-2.59 10.07c-.53-1.12-1.09-2.23-1.14-3.47-.15-2.72 1.52-5.06 3.73-6.6z" fill="#3e5c2e"/><path d="M212.12 10.55c1.85-2.2 1.67-6.05 1.03-8.31.51.47 4 5.77-1.53 9.32l-.78.5 1.28-1.51z" fill="#74a352"/><path d="M163.68 33.48c3.93-1.17 10.45-.78 14.51-.25-11.13-.4-22.39 2.45-21.07 13.55-3.24-4.21.43-11.47 6.56-13.3z" fill="#3e5c2e"/><path d="M36.3 128.53c.46-.07.49-2.53.06-5.5-.44-2.97-1.16-5.32-1.63-5.26-.46.07-.48 2.53-.05 5.5s1.16 5.32 1.62 5.26z" fill="#21212b"/><path d="M87.45 55.2c-1.13.37-2.3.65-3.47.84-2.84.46-5.77.49-8.48 1.41-6.53 2.24-10.33 9.23-11.4 16.03a178.48 178.48 0 0 0-1.8 22.71c0 1.47-.09 2.95-.53 4.35a12.06 12.06 0 0 1-2.6 4.29c-5.24 5.89-11.75 6-18.06 10.74a14.9 14.9 0 0 1 1.2 12.87c9.8.38 19.67-1.42 28.7-5.23 4.45-1.87 7.08-2.22 10.28-5.82 4.37-4.92 7.9-13.7 8.5-20.25.58-6.57.03-13.17.24-19.76.03-.86.07-1.73.16-2.6zM104.73 53.6l.1.7.11-.44-.21-.25z" fill="#464558"/><path d="M41.84 117.95c-.88-1.28-1.43-1.61-2.84-1.03-1.7.7-3.36 1.7-5 2.54-.96.48-1.95.98-3.03 1.06-3.7.3-6.33-4.22-10.06-4.38-2.32-.11-4.5 1.54-6.81 1.23-.42.54-.07 1.39.52 1.74.6.33 1.32.32 2 .28l3.45-.16c.67-.03 1.35-.06 1.99.17s1.2.78 1.22 1.44c.1 1.95-6.72 4.41-11.19 4.2-3.5-.18-6.14-1.23-7.93-1.06-2.11.18-1.04 1.8.9 2.32.43.12 4.18 1.1 8.1 1.58-5.17.32-8.76-1.71-11.07-1.65-2.13.06-1.15 1.73.75 2.38.4.14 3.87 1.28 7.61 2-3.1-.1-5.53-.85-7.17-.61-2.1.31-.92 1.84 1.03 2.29.45.1 4.66.95 8.82 1.17-3.28.04-5.8-.82-7.45-.58-1.93.28-.85 1.7.93 2.08 17.61 3.92 18.69-2.94 26.72-5.98 2.78-1.05 5.8-1.23 8.75-1.5.3-.04.62-.08.85-.28.16-.16.24-.37.3-.6.87-2.88.3-6.17-1.4-8.65z" fill="#d58500"/><g fill="#b45f00"><path d="M26.01 120.41c-.65-.68-1.28-1.38-2.07-1.9a4.9 4.9 0 0 0-1.06-.55c-.43-.16-.9-.16-1.33-.03-1.5.44-3 .76-4.58.81-.83.03-1.81 0-2.56-.39-.17-.08-.34-.2-.5-.35.02.44.3.88.71 1.1.6.34 1.32.33 2 .29l3.45-.16a5.2 5.2 0 0 1 1.99.17c.63.23 1.2.78 1.22 1.44.01.32-.15.65-.47.98.34.99.15 2.5 2.2 4.54.74-3.8 6.78-4.82 6.78-4.82-2.86.32-4.25.51-5.78-1.13z" opacity=".36"/><path d="M25.4 123.44c.1.01.2-.03.25-.14.13-.32-.7-.21-1.9-1.07-.3-.22-.74-.49-.6-.89-.06.12-.14.26-.25.38a3.74 3.74 0 0 0 2.5 1.72zM17 136.1h.24l1.45-.14c-.6-1 .27-2.15-.32-3.1-.23-.39-.67-.59-.93-.94-.5-.71-.17-1.78-.68-2.5-.19-.25-.49-.44-.65-.72-.21-.37-.14-.82-.12-1.25.04-.61.02-1.27-.32-1.78-.12-.19-.28-.55-.43-.69-.2-.17-.4-.09-.66-.06-.15.01-1.9.16-1.9.12 0 3.22-7.85 1.05-9.36-.85-.83.51.2 1.65 1.75 2.1.42.12 3.93 1.02 7.7 1.52.37.06.7.08.96.05.2 1.8-10.7 1.4-12.68-1.33-.5.52.4 1.59 1.8 2.07a67.4 67.4 0 0 0 7.1 1.9c0-.03.42.1.46.12.22.01 2.66-.07 2.79-.07-.07 3.51-9.89.44-10.92-.1-.4.6.61 1.5 2.05 1.82.46.1 4.59.93 8.69 1.17.46-.08.94-.01 1.39-.15 1.46-.44.5 2.16-3.72 1.87a21.3 21.3 0 0 1-3.44-.5 10.5 10.5 0 0 1-2.55-.94c.17.48.94 1.01 1.92 1.23 3.16.7 5.78 1.05 8 1.14.75.05 1.57.05 2.38.01z" opacity=".36"/><path d="M14.31 127.66c.27-.24.4-.82.08-1.08-.5-.39-1.15.52-1.54.76-.31.19-.64.3-.99.37l.9.13c.34.05.65.06.9.05.23-.04.48-.07.65-.23zM15.55 129.8c.16-.27.01-.73-.37-.54-.17.08-.3.23-.45.34a4.97 4.97 0 0 1-2.49.8c-.47 0-.94-.05-1.4.04l-.6.15.16.04c.16.02 1.7-.04 2.42-.07.01-.02.03-.04.07-.04.52 0 1.02-.1 1.53-.2.36-.06.9-.15 1.13-.52zM16.4 132.96c.16-.24-.1-.46-.31-.49-.2-.02-.4.03-.57.08-.32.1-.62.25-.93.35-1.05.38-2.2.4-3.3.43.56.06 1.12.1 1.7.14.46-.08.94-.01 1.39-.15.28-.08.47-.05.56.04.16-.03.33-.04.5-.05.27-.04.8-.08.97-.35zM40.37 120.86a6.2 6.2 0 0 0-3.47-2.95l-2.12 1.14c.17.23.3.49.41.76.61 1.48.62 3.18.11 4.69a7.83 7.83 0 0 1-2.86 3.75c-1.08.77-2.33 1.28-3.38 2.07-1 .77-1.81 1.76-2.69 2.7 2.15-1.4 4.12-2.95 6.97-4.03 2.5-.94 5.19-1.18 7.87-1.42a9.85 9.85 0 0 0-.83-6.71zM20.6 125.43c.27 1 .56 2.01.72 3.05.14.97.2 2 .74 2.81.21.32.53.62.92.62.43 0 .8-.4.88-.82s-.03-.86-.19-1.27c-.48-1.25-1.34-2.38-1.6-3.7-.1-.6-.1-1.22-.16-1.82a5.86 5.86 0 0 0-.36-1.5s0-.02-.02-.02c-.45.25-.98.51-1.54.75.25.6.44 1.25.61 1.9zM20.34 131.68c.3-.03.47-.33.52-.62.17-.82-.13-1.64-.28-2.46-.11-.59-.14-1.18-.2-1.79a10.84 10.84 0 0 0-.88-3.09c-.25.1-.5.19-.78.27l.14.28c.44 1 .67 2.09.63 3.19-.04.9-.24 1.79-.18 2.69.04.54.2 1.11.65 1.42.12.06.24.11.38.11zM14.51 118.17s.77.1 1.32-.02c.43-.1.8-.87.8-.87.09.78-.95 1.57-2.12.89z" opacity=".36"/></g><path d="M88.4 62.08c-1.6 1-3.26 1.96-4.9 2.92-2.1 1.22-4.3 2.4-6.2 3.91a20.54 20.54 0 0 0-4.64 4.95 9.77 9.77 0 0 0-1.43 3.25 9.7 9.7 0 0 0-.02 3.53c.37 2.28 1.31 4.4 1.93 6.63.54 1.92-.89 5.97-1.23 7.96-.2 1.04-.6 2.01-.9 3.03a13.54 13.54 0 0 0-.57 3.45 24 24 0 0 0 .16 3.25c.1.92.28 1.87.12 2.79-.2 1.17-1.09 1.56-2.14 1.82-1.72.46-3.33 1.1-4.47 2.55-1.1 1.38.21 1.08-.33 2.72-.6 1.82-1.49 3.45-2.71 4.91a24.71 24.71 0 0 1-4.39 4 45.22 45.22 0 0 1-8.1 4.64 67.68 67.68 0 0 0 22.45-5.18c4.44-1.87 7.07-2.22 10.27-5.82 4.37-4.92 7.91-13.7 8.5-20.25.58-6.57.03-13.17.25-19.76.02-.86.06-1.73.16-2.6zM104.73 53.6l.1.7.11-.44-.21-.25z" fill="#2b2b37" opacity=".29"/><path d="M65.05 104.57c-.23-.48-.64-.85-1-1.22-.62-.62-1.28-1.2-1.84-1.86-.08-.1-.3-.41-.5-.72-.1.33-.24.66-.4.96.55 1.03.97 2.12 1.38 3.18.15.39.29.82.5 1.18.16.27.5.47.77.6.45.2.84.07 1.06-.4.24-.52.28-1.18.03-1.72zM67.56 103.59c.27-.54-.12-1.43-.42-1.88-.94-1.47-3.16-1.76-5.1-2.22-.05.17-.07.35-.13.52 1.42 1.45 4.95 5.02 5.65 3.58zM104.73 53.6l.1.7.11-.44-.21-.25z" fill="#2b2b37" opacity=".48"/><path d="M87.45 55.2c-1.13.37-2.3.65-3.47.84-1.8.3-3.63.42-5.43.7-.31 1.61-.45 3.25-.4 4.9.08 3.22.76 6.4 1.6 9.49.88 3.2 1.94 6.33 2.82 9.53a40.65 40.65 0 0 1 1.65 9.4c.16 5.44-2.93 13.18-6.22 17.58a17.24 17.24 0 0 1-6.08 5.14c-2.53 1.26-5.49 1.99-8.31 1.56-3.66-.56-4.74-5.05-7.09-7.8-4.83 3.36-10.65 5.48-15.4 9.05a14.9 14.9 0 0 1 1.2 12.86c9.8.38 19.67-1.42 28.71-5.23 4.44-1.87 7.07-2.22 10.27-5.82 4.37-4.92 7.91-13.69 8.5-20.25.58-6.56.03-13.17.25-19.75.02-.87.06-1.74.16-2.61z" fill="#2b2b37" opacity=".48"/><path d="m50.8 109.05-16.06 8.73c.47-.07 1.2 2.28 1.62 5.25s.4 5.44-.05 5.5c10.49-.12 17.37.31 20.1-.12 2.81-.47-.13-21.34-5.6-19.36z" fill="#464558"/><path d="M51.96 123.42c-2.31.5-4.68.84-7.04.84-2.97.01-6.14-.54-8.69-2.07.04.27.1.55.13.83.43 2.97.4 5.43-.05 5.5 10.49-.12 17.37.31 20.1-.12 1.03-.16 1.3-3.07.95-6.59-1.77.7-3.57 1.23-5.4 1.62z" fill="#2b2b37" opacity=".25"/><path d="M36.8 117.04c.73.13 1.49.14 2.23.13 1.33-.04 2.67-.15 4-.24 2.06-.15 4.1-.47 6.06-1.09a23.58 23.58 0 0 0 6.14-2.97c-1.13-2.7-2.65-4.47-4.42-3.82l-14.5 7.87.48.12z" fill="#575771"/><path d="M38.82 127.73a.28.28 0 0 1-.24-.15.29.29 0 0 1 .11-.39c.1-.05 9.41-5.51 10.73-15.09.03-.15.16-.27.32-.24.15.03.27.16.25.32-1.36 9.86-10.91 15.45-11.02 15.5a.36.36 0 0 1-.15.05z" fill="#2b2b37"/><path d="M54.26 128.47a.26.26 0 0 1-.23-.12c-3.96-5.85-16.05-10.88-16.17-10.92-.15-.06-.22-.23-.15-.37.05-.14.23-.21.36-.14.5.2 12.37 5.13 16.43 11.13.1.14.06.31-.08.39a.65.65 0 0 1-.16.03z" fill="#2b2b37"/><path d="M82 116.55c.15-1.49.04-3.05-.39-4.45a5.42 5.42 0 0 0-3.4-3.52 7.66 7.66 0 0 0-4.81.17c-1.93.65-3.57 1.89-5.13 3.16-1.9 1.56-1.99 1.21-3.84 2.81a90.28 90.28 0 0 1-5.95 4.66 49.59 49.59 0 0 1-6.32 4.06 24.44 24.44 0 0 1-6.93 2.4c-1.24.23-2.5.25-3.76.34-.67.06-1.35.1-2.01.24-.4.08-.88.27-.94.74-.04.4.17.8.39 1.1.05.09.1.17.17.23 8.93-.02 14.85.3 17.32-.1.44-.07.67-.62.8-1.05a68 68 0 0 0 13.84-4.14c4.44-1.87 7.08-2.22 10.28-5.83.21-.25.46-.53.68-.82z" fill="#2b2b37" opacity=".29"/><path d="M69.32 121.69c-1.25-.62-1.14-2.45-2.4-2.02-1.47.5-2.83 1.3-4.15 2.11-1.22.76-2.42 1.56-3.75 2.14-1.68.73-3.53 1-5.35 1.16-3.02.27-6.1.35-8.91 1.67-.74.35-1.8.92-2.14 1.77 6.95.04 11.62.23 13.75-.1.45-.07.68-.62.81-1.05a68.06 68.06 0 0 0 15.9-5.06c-.34-1.16-2.78-.12-3.76-.62z" fill="#2b2b37" opacity=".29"/><path d="M63.37 99.78s-1.13-.16-1.32-.3c-.19-.13-1.3-.1-.57-2.34.73-2.25.84-3.5.86-4.37.03-.88.93-1.38.93-1.38l1.91 5.53zM61.93 100.01s-.18-.02-.23.16c-.06.2 0 .61 0 .61s.46.69.62.86c.1.12.3-.67.3-.69l-.7-.94zM61.3 101.73s-.43 0-.61.3-.3 1.41-1.05 2.23c-.75.84-1.56 2.17-1.56 2.17s2.29-.92 2.34-.86c.04.06.84-1.37.85-1.44l.04-2.4z" fill="#464558"/><path d="M177.07 120.74c.06-3.26-.3-5.91-.82-5.92-.51-.01-.98 2.62-1.03 5.88s.3 5.91.82 5.92.98-2.62 1.03-5.88z" fill="#21212b"/><path d="M168.2 115.5c.87-1.29 1.43-1.62 2.85-1.03 1.7.7 3.35 1.7 5 2.55.96.49 1.95.99 3.01 1.08 3.72.3 6.35-4.2 10.08-4.36 2.32-.1 4.5 1.56 6.82 1.27.41.53.06 1.38-.54 1.73a3.6 3.6 0 0 1-2 .28l-3.45-.16c-.67-.03-1.36-.07-1.99.16-.63.23-1.2.77-1.24 1.44-.1 1.95 6.71 4.43 11.18 4.23 3.5-.17 6.14-1.22 7.93-1.04 2.11.2 1.02 1.8-.9 2.33-.43.12-4.2 1.07-8.1 1.54 5.17.34 8.76-1.68 11.07-1.61 2.13.07 1.13 1.73-.75 2.38-.4.13-3.87 1.26-7.61 1.98 3.1-.1 5.53-.85 7.17-.61 2.1.31.92 1.86-1.03 2.27-.45.1-4.66.94-8.82 1.16 3.28.05 5.8-.8 7.45-.57 1.93.29.85 1.7-.94 2.09-17.61 3.86-18.68-3-26.7-6.05-2.77-1.06-5.8-1.24-8.74-1.53-.3-.03-.62-.07-.85-.29a1.43 1.43 0 0 1-.31-.6 10.38 10.38 0 0 1 1.41-8.65z" fill="#d58500"/><path d="M184.03 118c.64-.68 1.29-1.37 2.07-1.89.33-.23.7-.4 1.06-.54.43-.16.9-.16 1.33-.02 1.5.44 3 .78 4.57.83.84.03 1.82 0 2.57-.4.16-.07.34-.2.5-.34-.03.43-.32.87-.71 1.1a3.6 3.6 0 0 1-2 .28l-3.45-.16c-.67-.02-1.36-.06-1.99.16-.63.23-1.2.77-1.24 1.44-.01.33.15.66.46.99-.35.96-.15 2.5-2.2 4.53-.74-3.8-6.78-4.83-6.78-4.85 2.88.32 4.26.5 5.8-1.12z" fill="#b45f00" opacity=".36"/><path d="M184.65 121.03c-.11.01-.22-.03-.26-.13-.13-.33.7-.22 1.9-1.08.3-.21.74-.48.59-.87.07.12.15.25.25.37a3.84 3.84 0 0 1-2.48 1.71zM193 133.72h-.24l-1.46-.14c.6-1-.25-2.17.33-3.1.22-.38.67-.59.92-.94.53-.7.18-1.78.7-2.5.19-.25.49-.44.65-.72.21-.37.15-.82.12-1.25-.04-.61-.01-1.27.34-1.77.12-.18.28-.55.44-.68.2-.18.39-.1.66-.07.15.01 1.9.18 1.9.12 0 3.23 7.85 1.08 9.37-.82.82.51-.2 1.66-1.76 2.1-.42.1-3.93 1-7.7 1.5h-.01c-.36.06-.69.06-.95.05-.2 1.8 10.69 1.42 12.69-1.3.51.53-.4 1.6-1.8 2.08-.4.13-3.57 1.15-7.1 1.88.01-.03-.42.1-.46.12-.22.01-2.66-.08-2.78-.08.05 3.5 9.88.47 10.92-.07.37.6-.64 1.5-2.06 1.8-.46.1-4.59.92-8.7 1.15-.46-.08-.94-.02-1.39-.15-1.46-.45-.5 2.15 3.71 1.88a22.8 22.8 0 0 0 3.45-.5 9.48 9.48 0 0 0 2.55-.92c-.17.47-.94 1-1.92 1.22a47.54 47.54 0 0 1-8 1.13c-.81.03-1.62.03-2.42-.02z" fill="#b45f00" opacity=".36"/><path d="M195.71 125.28c-.27-.26-.4-.82-.08-1.08.5-.38 1.16.52 1.55.76.3.19.63.3.98.37l-.89.13h-.01c-.34.05-.65.06-.9.05-.24-.04-.49-.07-.65-.23zM194.46 127.42c-.16-.27-.01-.73.37-.54.17.08.3.23.45.34.35.24.77.41 1.17.55.43.13.86.25 1.32.25.47 0 .94-.05 1.4.04.2.04.4.1.6.16a.66.66 0 0 1-.16.05l-2.42-.07c-.01-.03-.03-.04-.07-.04-.52 0-1.02-.1-1.53-.2-.36-.08-.9-.18-1.13-.54zM193.59 130.56c-.15-.24.1-.45.33-.48.2-.03.4.03.57.08.32.1.62.24.93.35 1.05.38 2.2.42 3.3.44-.56.06-1.12.1-1.7.13-.46-.08-.94-.02-1.39-.15-.28-.08-.47-.06-.56.04a5.8 5.8 0 0 0-.5-.06c-.28-.02-.82-.08-.98-.35zM169.67 118.4a6.19 6.19 0 0 1 3.48-2.92c.71.37 1.42.76 2.12 1.14-.17.23-.3.49-.41.75a6.71 6.71 0 0 0-.13 4.7 7.7 7.7 0 0 0 2.86 3.76c1.07.77 2.32 1.28 3.37 2.07 1.01.77 1.82 1.78 2.7 2.7-2.15-1.4-4.12-2.97-6.96-4.04-2.5-.96-5.2-1.2-7.85-1.45a7.4 7.4 0 0 1-.27-2.44 9.37 9.37 0 0 1 1.09-4.26zM189.42 123.02c-.28 1.01-.55 2.02-.71 3.05-.15.97-.2 2-.74 2.81-.22.33-.54.62-.93.62-.43 0-.78-.4-.87-.82-.1-.43.04-.86.18-1.26.5-1.25 1.36-2.38 1.6-3.7.11-.6.1-1.21.16-1.81.06-.52.2-1.03.37-1.51l.01-.01c.46.25.97.5 1.55.75-.26.6-.45 1.25-.62 1.88zM189.68 129.27c-.3-.02-.48-.33-.53-.61-.17-.82.14-1.64.28-2.46.11-.6.14-1.19.2-1.8.14-1.06.45-2.1.88-3.07l.78.28-.14.28c-.45 1-.67 2.09-.64 3.18.03.9.23 1.78.17 2.69-.04.53-.2 1.11-.64 1.4a.6.6 0 0 1-.36.11zM195.53 115.79s-.77.1-1.32-.03c-.43-.1-.81-.87-.81-.87-.08.78.95 1.57 2.13.9z" fill="#b45f00" opacity=".36"/><path d="M113.77 54.97c1.27.24 2.57.37 3.86.41 3.12.11 6.28-.27 9.33.35 7.34 1.5 12.4 8.51 14.48 15.7 2.08 7.2 1.91 14.83 2.97 22.25.23 1.57.51 3.16 1.17 4.61.77 1.66 2 3.07 3.38 4.26 6.45 5.63 12.66 6.55 20.1 10.78a16.14 16.14 0 0 0 .48 14.02c-10.5 1.75-18.46 1.48-28.72-1.37-5.04-1.4-10.03-3.4-13.97-6.84-5.4-4.71-8.31-11.68-9.84-18.67-1.54-7-1.85-14.19-2.98-21.25-.14-.92-.32-1.85-.52-2.78z" fill="#464558"/><path d="M113.77 54.97c1.27.24 2.57.37 3.86.41 3.12.11 6.28-.27 9.33.35 7.34 1.5 12.4 8.51 14.48 15.7 2.08 7.2 1.91 14.83 2.97 22.25.23 1.57.51 3.16 1.17 4.61.77 1.66 2 3.07 3.38 4.26 6.45 5.63 12.66 6.55 20.1 10.78a16.14 16.14 0 0 0 .48 14.02c-10.5 1.75-18.46 1.48-28.72-1.37-5.04-1.4-10.03-3.4-13.97-6.84-5.4-4.71-8.31-11.68-9.84-18.67-1.54-7-1.85-14.19-2.98-21.25-.14-.92-.32-1.85-.52-2.78z" fill="#2b2b37" opacity=".29"/><path d="m94.93 55.62-.02.77a4.9 4.9 0 0 1-.18-.47l.2-.3z" fill="#464558"/><path d="M113.67 62.5c1.88.87 3.78 1.68 5.69 2.48 2.43 1.03 4.95 2 7.22 3.35a22.5 22.5 0 0 1 5.69 4.7c.83.99 1.56 2.08 1.99 3.3.42 1.23.55 2.52.51 3.8-.1 2.51-.8 4.93-1.18 7.4-.32 2.14-.32 4.32.33 6.4.35 1.12.92 2.1 1.39 3.15.52 1.16.89 2.37 1.07 3.63.2 1.17.25 2.36.27 3.53.03 1-.04 2.05.26 3.02.37 1.24 1.38 1.53 2.55 1.68 1.91.26 3.76.73 5.18 2.13 1.37 1.34 2.02 3.18 2.83 4.88.9 1.87 2.07 3.5 3.6 4.92 1.59 1.47.46 2.35 2.34 3.39a48.65 48.65 0 0 0 9.39 3.89c-8.37.6-13.9.06-21.98-2.18-5.04-1.4-10.03-3.4-13.97-6.85-5.4-4.7-8.31-11.67-9.84-18.66-1.54-7-1.85-14.19-2.98-21.25-.14-.93-.32-1.86-.52-2.78zM94.93 55.62l-.02.78c-.06-.14-.13-.3-.18-.47l.2-.3z" fill="#2b2b37" opacity=".29"/><path d="m94.93 55.62-.02.77a4.9 4.9 0 0 1-.18-.47l.2-.3zM113.77 54.97c1.27.24 2.57.37 3.86.41 1.97.07 3.96-.05 5.94 0 .55 1.7.93 3.46 1.1 5.25.35 3.48.06 6.98-.43 10.43-.5 3.57-1.2 7.1-1.7 10.67-.49 3.41-.84 6.9-.49 10.35.58 5.88 2.88 11.8 7.03 16.08a18.8 18.8 0 0 0 7.26 4.7c2.9 1 6.19 1.38 9.17.53 3.88-1.1 6.5-4.09 8.66-7.37 5.67 2.95 9.3 4.13 14.9 7.32-1.99 4.42-1.8 9.75.49 14.02-10.5 1.75-18.46 1.48-28.72-1.37-5.05-1.4-10.04-3.4-13.98-6.84-5.39-4.7-8.3-11.67-9.84-18.67-1.53-6.99-1.84-14.18-2.97-21.24-.15-.93-.32-1.86-.53-2.79z" fill="#2b2b37" opacity=".48"/><path d="m157.74 107.62 18.51 7.18c-.5 0-.96 2.63-1.02 5.9-.05 3.25.31 5.9.82 5.91-11.3 1.3-18.66 2.73-21.66 2.64-3.13-.11-2.82-23.01 3.35-21.63z" fill="#464558"/><path d="M158.46 123.26c2.56.22 5.17.26 7.72-.06 3.22-.4 6.54-1.43 9.08-3.43-.01.3-.03.6-.03.91-.05 3.26.31 5.9.82 5.92-11.3 1.3-18.66 2.73-21.66 2.63-1.14-.04-1.83-3.13-1.94-6.96 1.98.5 4 .82 6.01 1z" fill="#2b2b37" opacity=".25"/><path d="m173.19 126.1-.12-.03c-.1-.05-2.83-1.18-5.93-3.63-2.87-2.26-6.6-6.09-8.07-11.55-.04-.16.05-.33.21-.37.17-.05.34.05.38.21 2.74 10.15 13.53 14.74 13.64 14.78.16.07.23.24.16.4a.27.27 0 0 1-.27.2z" fill="#2b2b37"/><path d="M156.65 129.02a.5.5 0 0 1-.14-.03.31.31 0 0 1-.13-.41c3.55-7.02 15.67-13.96 16.18-14.26.15-.08.33-.03.41.12s.03.34-.12.42c-.12.07-12.46 7.15-15.93 14a.32.32 0 0 1-.27.16z" fill="#2b2b37"/><path d="M126 118.31a12.87 12.87 0 0 1-.2-4.85 5.88 5.88 0 0 1 3.19-4.26 8.27 8.27 0 0 1 5.22-.47c2.16.43 4.1 1.53 5.94 2.69 2.26 1.4 4.41 3 6.63 4.49 2.27 1.5 1.72 2.57 4.11 3.88a55.96 55.96 0 0 0 7.37 3.51c2.5.95 5.14 1.5 7.82 1.63 1.35.07 2.72-.08 4.08-.15.74-.04 1.48-.06 2.22-.01.45.03.98.17 1.1.67.11.42-.08.88-.26 1.25l-.17.28c-9.62 1.2-15.94 2.37-18.66 2.28-.48-.02-.82-.58-1-1.03-5.24-.29-7.5-.84-12.56-2.24-5.04-1.4-10.03-3.4-13.97-6.85-.3-.26-.57-.53-.86-.82z" fill="#2b2b37" opacity=".29"/><path d="M140.37 122.1c1.25-.84 2.98-.79 4.4-.5 1.66.33 3.22 1.02 4.75 1.7 1.41.65-.1 1.04 1.4 1.48 1.91.55 3.94.58 5.92.5 3.3-.13 6.63-.47 9.83.56.83.27 2.07.76 2.54 1.62-7.48 1-12.5 1.86-14.83 1.77-.49-.01-.82-.57-1.01-1.02-5.23-.3-7.5-.84-12.55-2.24-.78-.22-1.57-.46-2.34-.7.23-1.28.9-2.5 1.89-3.16z" fill="#2b2b37" opacity=".29"/><path d="M143.75 97.67s1.2-.32 1.39-.5c.19-.17 1.38-.29.28-2.62s-1.38-3.64-1.52-4.6c-.15-.94-1.18-1.34-1.18-1.34l-1.3 6.21zM145.34 97.73s.19-.06.27.13c.08.19.08.65.08.65s-.4.8-.55 1c-.1.15-.43-.67-.43-.7l.63-1.08zM146.25 99.5s.49-.05.72.23c.23.3.5 1.48 1.44 2.26.92.8 1.97 2.11 1.97 2.11s-2.6-.67-2.63-.6c-.04.06-1.1-1.36-1.12-1.44-.03-.07-.37-2.56-.37-2.56z" fill="#464558"/><g fill="#2b2b37" opacity=".29"><path d="M143.75 97.67s1.2-.32 1.39-.5c.19-.17 1.38-.29.28-2.62s-1.38-3.64-1.52-4.6c-.15-.94-1.18-1.34-1.18-1.34l-1.3 6.21zM145.34 97.73s.19-.06.27.13c.08.19.08.65.08.65s-.4.8-.55 1c-.1.15-.43-.67-.43-.7l.63-1.08zM146.25 99.5s.49-.05.72.23c.23.3.5 1.48 1.44 2.26.92.8 1.97 2.11 1.97 2.11s-2.6-.67-2.63-.6c-.04.06-1.1-1.36-1.12-1.44-.03-.07-.37-2.56-.37-2.56z" opacity=".29"/></g><path d="m154.97 106.43-.19-.1-.28-.14c-.11-.06-.23-.11-.34-.18a26.74 26.74 0 0 1-5.1-3.39 9.4 9.4 0 0 0-.67-.63c-.93-.8-1.2-1.98-1.44-2.26-.23-.3-.7-.23-.7-.23-.21-.32-.4-.64-.57-1 0 0 0-.45-.08-.64s-.27-.13-.27-.13l-.2-.55c.18-.18 1.38-.3.28-2.63a19 19 0 0 1-1.21-3.13c-2.67-.23-6.77 2.06-5.2 9.8.81 3.97 2.43 7.76 4.73 11.1.2.28.44.59.78.64.8.12 6.03-3.23 6.7-3.67 1.35-.86 2.63-1.8 3.76-2.86z" fill="#21212b" opacity=".34"/><path d="M95.45 57.02v-.76l-.2.3.2.46z" fill="#2b2b37"/><path d="M90.5 130.82c.08-.46.2-.95.57-1.24.3-.22.7-.27 1.07-.3 12.85-.81 30.7-2.9 40.12-3.33 36.33-1.68 41.82.57 41.82.57l-17.23 21.97h4.37a31.6 31.6 0 0 1-3.76 2.5c-4.5 2.58-9.5 4.2-14.5 5.57a166.67 166.67 0 0 1-33.44 5.53c-7.3.44-15.13.28-21.25-3.74-.2-9.2.54-18.45 2.23-27.53z" fill="#464558"/><path d="M90.5 130.82c.08-.45.2-.95.57-1.23.3-.23.7-.27 1.07-.3 12.85-.82 30.7-2.9 40.12-3.34 5.17-.24 9.73-.4 13.73-.5a8.67 8.67 0 0 0 2.08 2.26c3.36 2.63 7.81 3.65 12 3.92 2.43.16 4.86.01 7.3-.23 1-.1 2.08-.1 3.12-.28l-13.63 17.38h4.37c-1.2.93-2.46 1.77-3.76 2.5-4.5 2.59-9.5 4.2-14.5 5.57a166.68 166.68 0 0 1-33.44 5.53c-7.3.44-15.13.28-21.25-3.74a133.3 133.3 0 0 1 2.22-27.54z" fill="#2b2b37" opacity=".48"/><path d="M90.7 147.35c2.94-1.45 4.68-4.1 6.58-6.68 1-1.38 2.1-2.7 3.47-3.73 1.6-1.2 3.39-2.18 5.24-2.92a34.34 34.34 0 0 1 11.52-2.19c4.07-.16 8.13.15 12.11 1.03a57.2 57.2 0 0 1 11.51 4c3.75 1.73 7.37 3.72 11.24 5.16 2.6.97 5.26 1.62 7.98 2.03l-3.49 4.45h4.37c-1.2.93-2.46 1.77-3.76 2.5-4.5 2.59-9.5 4.2-14.5 5.57a166.73 166.73 0 0 1-33.44 5.53c-7.3.44-15.13.28-21.25-3.74-.08-3.37-.02-6.76.17-10.14a13.8 13.8 0 0 0 2.24-.87z" fill="#2b2b37" opacity=".48"/><path d="M86.62 143.6c2.62-3.92 5.6-7.6 8.97-10.9a48.2 48.2 0 0 1 8.21-6.53c-8.21-.77-16.15-1.53-21.43-1.78-36.34-1.68-41.82.57-41.82.57l17.22 21.97H53.4c1.2.93 2.46 1.76 3.77 2.5 4.5 2.58 9.5 4.2 14.5 5.57 2.79.77 5.6 1.45 8.44 2.06 1.38-4.8 3.7-9.3 6.5-13.46z" fill="#464558"/><path d="M57.14 149.45a53.49 53.49 0 0 0 11.26 4.64l1.9-1.48c2-1.6 4.05-3.15 6.06-4.76 2.1-1.7 4.14-3.46 6.2-5.2 4.12-3.48 8.43-6.9 13.38-9.1a28.8 28.8 0 0 1 7.22-2.14c2.56-.4 5.17-.45 7.78-.33 3.03.14 6.07.28 9.1.44 1.5.08 3 .19 4.51.34l-.46-2.59c-.08-.45-.2-.95-.56-1.23-.3-.23-.7-.27-1.08-.3-12.84-.82-30.7-2.9-40.11-3.33-5.18-.25-9.74-.4-13.73-.5a8.67 8.67 0 0 1-2.08 2.26c-3.37 2.62-7.82 3.64-12 3.91-2.43.16-4.87.01-7.3-.23-1-.1-2.08-.1-3.12-.28l13.62 17.39h-4.37c1.21.9 2.48 1.73 3.78 2.49z" fill="#2b2b37" opacity=".48"/><path d="M123.92 145.78c-2.95-1.46-4.7-4.1-6.59-6.69-1-1.37-2.1-2.7-3.47-3.72a22.98 22.98 0 0 0-5.24-2.92 34.35 34.35 0 0 0-11.51-2.2 47 47 0 0 0-12.12 1.04 57.22 57.22 0 0 0-11.51 4c-3.75 1.73-7.37 3.72-11.24 5.16-2.6.97-5.26 1.61-7.98 2.03l3.49 4.45h-4.38c1.2.93 2.47 1.76 3.77 2.5 4.5 2.58 9.5 4.2 14.5 5.57a166.74 166.74 0 0 0 33.44 5.53c7.3.44 15.13.28 21.25-3.74.08-3.38.02-6.77-.17-10.14-.76-.22-1.51-.51-2.24-.88z" fill="#2b2b37" opacity=".48"/><path d="M149.03 125.44c2.85.43 6.85 1.97 14.65 3.03 0 0-3.44 8.19-7.34 8.52-3.9.34-7.75-2.74-7.75-2.74z" fill="#2b2b37" opacity=".29"/><path d="M151.97 125.8c-11.34-2.32-55.78-2.83-61.45-2.88-5.72-.06-27.26 3.75-28.5 4.38l19.49 15.9c3.05 1.71 6.13 3.45 9.49 4.43 3.28.96 6.72 1.16 10.14 1.21 14.93.2 30.32-2.7 42.61-11.17a16.3 16.3 0 0 0 3.2-2.72c2.13-2.49 9.4-4.65 12.39-7.5a130.2 130.2 0 0 0-7.37-1.66z" fill="#575770"/><path d="M83.3 124.2c-1.46.65-5.03 1.31-4.6 3.53.3 1.62 2.36 1.67 3.67 1.5 1.58-.18 2.9-.18 3.95 1.17.42.54.71 1.16 1.18 1.64.76.8 1.59.86 2.61.54 1.04-.33 1.98-.83 3.07-1.02 1.13-.19 2.27-.21 3.41-.07 1.97.27 3.53 1.1 5.1 2.26 1.44 1.08 2.82 2.26 4.45 3.04 1.4.67 3.47.97 4.65-.3.86-.94.15-2.5-.21-3.52-.43-1.2-1.02-2.58-.74-3.9.34-1.56 1.7-2.07 3.16-1.93a17 17 0 0 1 5 1.33c1.92.83 3.38 2.28 5.14 3.33 2.35 1.4 6.25 1.54 6.65-1.93.26-2.13-.7-4.24-1.78-6.01 0-.02-.02-.02-.02-.03-16.03-.69-34-.89-37.47-.92-1.3 0-3.37.18-5.84.47-.42.34-.9.6-1.39.81z" fill="#2b2b37" opacity=".25"/><path d="M72.8 131.35c1.07-.08 2.12-.22 3.15-.46 1.01-.23 2.13-.55 2.92-1.24.73-.62.85-1.52.4-2.34-.5-.86-1.49-1.18-2.42-1.29-2.19-.24-4.46.35-6.54.92-1.15.3-2.28.6-3.43.86a22.36 22.36 0 0 1-3.62.5c1 .83 2.11 1.71 3.25 2.66 2.09.04 4.23.53 6.3.39zM83.56 124.25c.69.68 1.44 1.33 2.26 1.85a26.87 26.87 0 0 0 7.33 3.1c2.56.72 5.17 1.22 7.79 1.67 3.06.54 6.12.93 9.24 1.03 6.07.18 12.14-.47 18.23-.49 5.03-.01 10.4.5 14.64 3.47.74.53 1.46 1.12 2.1 1.78.66-.51 1.28-1.08 1.82-1.71 2.12-2.49 9.4-4.65 12.38-7.5-2.43-.64-4.9-1.15-7.35-1.65-11.34-2.3-55.78-2.82-61.46-2.87-1.57-.02-4.34.25-7.57.68.19.22.4.42.6.64z" fill="#2b2b37" opacity=".25"/><path d="M151.97 125.8c-11.34-2.32-55.78-2.83-61.45-2.89-.54 0-1.21.03-2 .09a9.6 9.6 0 0 1-1.8 3.79c-1.99 2.56-4.92 4-7.94 4.99a23.42 23.42 0 0 1-10.06 1c6.24 5.07 12.79 10.43 12.79 10.43 3.05 1.72 6.13 3.45 9.49 4.43 3.28.96 6.72 1.16 10.14 1.21 14.93.2 30.32-2.7 42.61-11.17a16.3 16.3 0 0 0 3.2-2.72c2.13-2.48 9.4-4.65 12.39-7.5-2.45-.66-4.91-1.17-7.37-1.67z" fill="#2b2b37" opacity=".25"/><path d="M151.97 125.8c-3.98-.81-12.04-1.4-21.06-1.84a31.3 31.3 0 0 1-3.55 5.36c-3.12 3.88-7.15 7.1-11.37 9.7a51.16 51.16 0 0 1-7.3 3.74c-2.67 1.1-5.45 1.89-8.21 2.72-2.82.85-5.66 1.67-8.51 2.4 2.98.73 6.09.9 9.18.95 14.93.2 30.33-2.7 42.62-11.18a16.3 16.3 0 0 0 3.2-2.71c2.12-2.5 9.4-4.66 12.38-7.5-2.46-.64-4.92-1.15-7.38-1.65z" fill="#2b2b37" opacity=".25"/><path d="m110.26 184.84 1.9.06c2.3.07 4.56-.45 6.64-1.46a56.97 56.97 0 0 1 9.31-3.62 55.6 55.6 0 0 1 12.89-1.88c4.4-.22 8.6-.83 12.83-2.06 2.08-.6 4.14-1.29 6.18-2 1.75-.6 3.52-1.17 5.23-1.91a35.2 35.2 0 0 0 7.98-4.9c4.74-3.8 9.32-9.18 12.02-15.16 2.8-8 1.48-15.83-3.82-21.42-9.02-9.51-22.23-1.32-31.72 5.23-7.78 5.36-16.76 8.64-25.63 11.87-14.26 5.19-7.22 2.43-19.22 12.02-3.24 2.6-4.87 2.68-4.54 6.8.12 1.6.64 3.11.92 4.67.43 2.31.34 4.7.78 7.02.43 2.31 1.54 4.68 3.6 5.81 1.4.77 3.05.87 4.65.93z" fill="#464558"/><path d="M168.07 135.04a1.16 1.16 0 0 0-1.3-.25c-.44.2-.7.63-.91 1.05s-.44.86-.83 1.11c-.4.26-1.03.22-1.23-.21-.2-.42.11-.9.4-1.27l1.35-1.64c.31-.37.65-.88.43-1.33-.27-.55-1.1-.44-1.63-.13a4.45 4.45 0 0 0-1.87 2.14c-.17.43-.28.88-.53 1.26-.58.87-1.74 1.1-2.77 1.28-2.2.39-3.8 2.23-5.66 3.4a66.86 66.86 0 0 1-6.71 3.72 56.87 56.87 0 0 1-14.51 4.76c-5.09.9-10.57 1.13-14.78 4.12-2.53 1.79-4.32 4.4-6 7-1.08 1.63-6.55 1.51-8.16 2.67-.98.7-.16 1.93.3 3.2h.84c2.45 0 4.87.05 7.32 0 1.58-.04 3.21-.18 4.62-.98 1.21-.69 2.22-1.67 3.4-2.41 2.07-1.3 4.6-1.25 7.01-1.13 6.23-1.52 12.75-2.72 17.5-6.9 1.94-1.7 4.6-3.44 6.54-5.14a42.99 42.99 0 0 1 9.3-6.25c1.2-.6 2.66-1.33 3.65-2.23.94-.85.8-2.42 1.87-3.19.78-.56 2.03-.48 2.5-1.32.25-.41.18-.98-.14-1.33z" fill="#2b2b37"/><path d="m110.26 184.84 1.9.06c2.3.07 4.57-.45 6.64-1.46a56.91 56.91 0 0 1 9.31-3.62 55.6 55.6 0 0 1 12.89-1.88c4.4-.21 8.6-.83 12.83-2.06 2.08-.6 4.14-1.29 6.18-2 1.75-.6 3.52-1.17 5.23-1.91a35.2 35.2 0 0 0 7.98-4.9 43.6 43.6 0 0 0 11.63-14.32c3.23-8.32 2-16.54-3.43-22.26-3.75-3.96-8.22-4.85-12.84-4.08a10.44 10.44 0 0 1 4.63 8.47c.1 3.46-1.11 6.78-3.15 9.54-2.1 2.85-4.93 5.12-7.9 7a52.51 52.51 0 0 1-9.64 4.72c-3.72 1.41-7.57 2.65-10.93 4.84a20.8 20.8 0 0 0-2.46 1.87c-.78.7-1.47 1.48-2.18 2.25-1.09 1.15-2.2 2.49-3.74 3.04-1.55.56-2.98 1.32-4.5 1.95-.88.36-1.77.68-2.7.86-.9.16-1.82.17-2.74.21a63 63 0 0 0-8.25.89c-.55.1-1.12.2-1.68.12s-1.12-.36-1.38-.87c-.33-.7.03-1.58.62-2.09.6-.5 1.36-.75 2.07-1.07a10.99 10.99 0 0 0 2.96-1.93c.38-.35.74-.72.92-1.22.16-.48.08-1.09-.34-1.4a1.63 1.63 0 0 0-.87-.27 6 6 0 0 0-3.65.89c-1.42.9-2.46 2.42-4.06 2.96-2.08.68-4.68-.47-6.4.89a4.63 4.63 0 0 0-1.37 2.36c-.75 2.5-.32 5.14.15 7.64.43 2.31 1.53 4.68 3.6 5.81 1.41.8 3.07.91 4.67.97z" fill="#2b2b37" opacity=".08"/><path d="m110.26 184.84 1.9.06c2.3.07 4.57-.45 6.64-1.46a57 57 0 0 1 9.31-3.62 55.65 55.65 0 0 1 12.89-1.88c4.4-.22 8.6-.83 12.83-2.06 2.08-.6 4.14-1.29 6.18-2 1.75-.6 3.52-1.17 5.23-1.91a35.2 35.2 0 0 0 7.98-4.9 43.63 43.63 0 0 0 11.63-14.32c3.23-8.32 2-16.54-3.43-22.27a13.23 13.23 0 0 0-7.42-4.11 26 26 0 0 1 2.17 2.06 17.61 17.61 0 0 1 4.55 8.83c.34 1.87.3 3.85-.47 5.6-.8 1.84-2.33 3.34-3.74 4.72-1.45 1.42-2.97 2.82-4.07 4.55-.57.9-.94 1.87-1.36 2.83a28.6 28.6 0 0 1-1.4 2.8 23.45 23.45 0 0 1-3.5 4.69 38.85 38.85 0 0 1-4.87 4.18c-3.46 2.6-7.38 4.7-11.75 5.14-2.6.27-5.26.02-7.84.6a22.9 22.9 0 0 0-6.8 2.96c-2.02 1.22-3.97 2.53-6.13 3.48-2.1.92-4.33 1.54-6.63 1.59-1.27.03-2.54-.07-3.8-.1-1.2 0-2.42.07-3.6-.02-3.37-.26-4.63-3.94-5.19-6.75-.36-1.83-.87-3.82-2.4-4.9a3.91 3.91 0 0 0-3.26-.56 3.89 3.89 0 0 0-2.48 2.2 6.3 6.3 0 0 0-.37 2.45c-.03 3.67.91 9.23 4.52 11.19 1.42.77 3.08.87 4.68.93z" fill="#2b2b37" opacity=".08"/><path d="M110.9 180.94c-.13-1.37-.54-2.72-.9-4.04a64.7 64.7 0 0 0-1.4-4.51 25.54 25.54 0 0 0-1.65-3.92 3.88 3.88 0 0 0-3.01-.4 3.89 3.89 0 0 0-2.48 2.2 6.3 6.3 0 0 0-.37 2.45c-.03 3.67.91 9.23 4.51 11.19 1.27.69 2.73.83 4.17.9 1.05-1.02 1.28-2.46 1.13-3.87z" fill="#2b2b37" opacity=".08"/><path d="M57.13 176.2c.2-.91 1.03-2.1 2.04-2.21-1.05.1-1.99.17-2.77-.7a2.52 2.52 0 0 1-.6-1.98c.1-.78.59-1.48 1.23-1.94 1.91-1.35 3.74-.2 5.79-.53.88-.15 1.72-.52 2.56-.78 3.04-1 6.15-.6 9.27-.56 2.82.03 5.66.25 8.46.65 2.55.36 5.12.89 7.69.69 4.72-.37 7.4-3.07 11.05-5.44 1.23.7 3.36 4.54 5.15 9.4.88 2.4 1.52 4.64 1.91 6.48-4.07 1.3-7.94 4.42-12.1 5.97-4.07 1.52-8.53 1.52-12.87 1.5-3.83-.03-7.7.1-11.52-.07-1.56-.07-3.22.1-4.75-.3-1.45-.36-2.96-1.04-4.37-1.6a2.9 2.9 0 0 1-1.04-.57c-.25-.27-.4-.62-.57-.96a5.5 5.5 0 0 0-1.46-1.75c-.32-.25-.68-.48-.94-.82-.2-.27-.32-.59-.5-.86-.28-.37-.65-.66-.96-1-.64-.7-.9-1.7-.7-2.61z" fill="#575770"/><path d="M106.99 172.8c-.34-.91-.69-1.79-1.04-2.62l-.17-.4c-.3-.68-.6-1.32-.88-1.91-.12-.24-.22-.47-.35-.69l-.5-.95-.34-.57-.32-.5a10.19 10.19 0 0 0-1.04-1.35 2.43 2.43 0 0 0-.5-.4c-.19.11-.37.24-.55.36l-.05.04c-3.36 2.27-6 4.69-10.46 5.04-2.57.2-5.14-.32-7.7-.69-2.8-.4-5.62-.61-8.45-.64-3.12-.03-6.23-.45-9.27.55-.85.28-1.68.64-2.57.78-2.04.33-3.87-.84-5.78.54-.58.4-1.02 1-1.18 1.7-.02.07-.04.15-.04.23l-.03.27a2.5 2.5 0 0 0 .63 1.71l.15.15c.05.05.1.1.15.13a1.93 1.93 0 0 0 .8.4l.35.05c.42.04.85 0 1.32-.04-.25.02-.5.12-.71.25a3.32 3.32 0 0 0-1.3 1.78l-.03.17a3.06 3.06 0 0 0 .86 2.8l.05.05.12.12c.07.07.14.12.2.2h.03l.18.18c.08.1.16.17.22.28.2.27.31.6.52.86.25.34.61.57.94.82.6.47 1.1 1.08 1.45 1.75.17.34.32.69.58.96.28.28.66.44 1.03.57 1.41.56 2.92 1.23 4.37 1.6 1.54.4 3.18.23 4.75.3 3.83.16 7.7.04 11.52.07 4.35.02 8.81.02 12.87-1.5 4.15-1.55 8.03-4.67 12.1-5.97a51.78 51.78 0 0 0-1.93-6.48zm-14.27 4.65c-.52 1.5-1.99 1.89-3.36 2.25-1.5.4-3.03.58-4.57.58-1.24 0-2.46-.12-3.69-.32-1.27-.23-2.55-.53-3.84-.64-3.5-.3-5.4 1.03-8.9.74-12-.95 7.74-5.47 12.66-4.26 3.12.77 6.36-.54 9.56-.42.47.02.97.07 1.4.29.43.21.8.6.85 1.07.03.24-.03.49-.1.71z" fill="#2b2b37" opacity=".25"/><path d="M106.99 172.8a43.28 43.28 0 0 0-3.28-7.12s0-.02-.02-.02l-.16-.27c-.33-.55-.67-1-.96-1.34l-.06-.06-.19-.2a2.03 2.03 0 0 0-.5-.4l-.39.26-.21.14-.5.35-.04.03c-3.12 2.15-5.7 4.34-9.9 4.67-2.58.2-5.15-.33-7.7-.69-2.8-.4-5.62-.62-8.46-.65-3.12-.02-6.22-.44-9.26.56-.85.28-1.68.64-2.57.78-2.05.33-3.87-.84-5.78.53-.35.25-.65.57-.87.93.26.22.57.4.9.5 2.17.75 4.62-.42 6.84-.46 1.99-.04 3.98.35 5.9.85 2.08.54 4.14.9 6.3.94 2.12.04 4.24 0 6.37.08 2.07.07 4.14.05 6.2-.12 5.93-.48 15.84-5.66 12.29 4.33a6.34 6.34 0 0 1-1.32 2.22 9.22 9.22 0 0 1-2.4 1.7 21.78 21.78 0 0 1-5.94 2.22c-4.44.97-8.97.57-13.47.48-2.45-.06-4.91-.04-7.34-.22a12.07 12.07 0 0 1-5.65-1.64c-.86-.55-1.52-1.3-2.31-1.92-.9-.69-2.05-.85-3-1.43a9.16 9.16 0 0 1-2.28-2.06l-.12.4c-.2.92.07 1.93.69 2.63.3.35.7.62.95 1 .2.28.31.6.51.87.26.33.62.56.95.82.6.47 1.1 1.07 1.45 1.75.17.33.32.68.58.95.28.28.66.45 1.03.58 1.41.55 2.92 1.22 4.37 1.6 1.54.4 3.18.23 4.75.3 3.83.16 7.7.04 11.52.06 4.35.03 8.81.03 12.87-1.49 4.14-1.56 8.03-4.68 12.1-5.97a45.45 45.45 0 0 0-1.9-6.47z" fill="#2b2b37" opacity=".25"/><path d="M67.24 169.72c1.83.58 3.66.78 5.57.82 2.1.06 4.23 0 6.3-.37 2.06-.38 4.04-1.13 6.07-1.62.15-.04.3-.02.4 0l.03-.01-2.52-.38c-2.8-.4-5.62-.62-8.46-.64-3.11-.03-6.22-.45-9.26.55l-1.33.46a26 26 0 0 0 3.2 1.2zM97.89 166.12c1.3.2 2.62.25 3.94.3.78.02 1.54.04 2.32 0l-.43-.74-.01-.02-.16-.27c-.34-.55-.68-1-.97-1.34l-.05-.06-.2-.2a2.03 2.03 0 0 0-.5-.4l-.38.26-.22.14-.5.35c0 .02-.02.03-.03.03-.97.67-1.89 1.34-2.81 1.95z" fill="#2b2b37" opacity=".74"/><path d="M98.34 184.16a24.7 24.7 0 0 0 4-6.97c1.05-2.72 1.83-5.61 1.64-8.54a13.63 13.63 0 0 0-.77-3.73l-.01-.02a38.12 38.12 0 0 1 3.77 7.92c.88 2.39 1.53 4.63 1.92 6.48-3.76 1.18-7.35 3.94-11.14 5.58l.6-.72z" fill="#2b2b37" opacity=".06"/><path d="M34.47 158.2c3.28 2.22 7.52 2.72 11.33 3.44 4.02.77 7.91 1.84 11.72 3.35 3.7 1.47 7.33 3.3 11.24 4.12 4.07.84 8.28.2 12.28-.73 2-.47 3.99-1.05 6-1.5 2.08-.48 4.2-.75 6.33-.92 4.35-.36 8.74-.31 13.07-.93 2.4-.34 5.24-.94 7.8-2.03a4.35 4.35 0 0 0 2.63-4.25v-.03c-.15-2.35-.8-4.65-.95-7-.11-1.59.02-3.19-.24-4.75a12.9 12.9 0 0 0-.56-2.38h-2.93l-.1-2.34c-.4-.17-.78-.3-1.32-.55-13.96-6.37-7.65-5.65-22.74-7.2-9.4-.98-18.9-1.97-27.76-5.28-10.8-4.03-25.61-8.77-32.04 2.66-5.35 9.51-2.62 17.8 4.13 24.6.67.64 1.37 1.22 2.1 1.72z" fill="#464558"/><path d="M34.47 158.2c3.28 2.22 7.52 2.72 11.33 3.44 4.02.77 7.91 1.85 11.72 3.35 3.7 1.47 7.33 3.3 11.24 4.11 4.07.85 8.28.2 12.28-.72 2-.47 3.99-1.05 6-1.5a45.9 45.9 0 0 1 6.33-.92c4.35-.36 8.74-.31 13.07-.93 2.4-.33 5.24-.94 7.8-2.03a4.35 4.35 0 0 0 2.63-4.25v-.03c-.15-2.35-.8-4.65-.95-7-.11-1.59.02-3.19-.24-4.75-.4-2.4-1-3.32-2.17-4.02v.7h-1.41v-1.4c-.6-.25-1.3-.54-2.14-.91-9.26-4.22-9.45-5.11-12.7-5.76l-3 1.48c-2.32 1.12-4.7 2.27-7.24 2.78-2.45.5-4.94.38-7.4.18-1.27-.1-2.54-.23-3.82-.28-1.3-.07-2.6-.03-3.9.05-2.28.15-4.6.03-6.84-.4a20.32 20.32 0 0 1-6.53-2.38 13.98 13.98 0 0 1-2.76-2.02c-5.95-5.93-6.46-9.33-15.99-10.18a14.78 14.78 0 0 1 1.24 5.94c0 1.66-.2 3.35-.8 4.9a9.7 9.7 0 0 1-5.25 5.46 11.05 11.05 0 0 1-9.51-.46c-.4 5.93 2.34 11.24 6.95 15.87.65.62 1.33 1.18 2.06 1.68z" fill="#2b2b37" opacity=".29"/><path d="M34.47 158.2c3.28 2.22 7.52 2.72 11.33 3.44 4.02.77 7.91 1.84 11.72 3.35 3.7 1.47 7.33 3.3 11.24 4.12 4.07.84 8.28.2 12.28-.73 2-.47 3.99-1.05 6-1.5a45.6 45.6 0 0 1 6.33-.92c4.35-.36 8.74-.31 13.07-.93 2.4-.33 5.24-.94 7.8-2.03a4.35 4.35 0 0 0 2.63-4.25v-.03c-.15-2.35-.8-4.65-.95-7-.04-.53-.04-1.04-.06-1.56-3.88-.66-7.92-.5-11.8-.04-2.34.27-4.67.63-6.95 1.14-2.41.55-4.78 1.25-7.15 1.98-4.73 1.46-9.5 3.1-14.44 3.78-4.61.63-9.22-.03-13.63-1.37a91.25 91.25 0 0 1-6.65-2.38c-2.1-.84-4.22-1.62-6.25-2.6-3.84-1.86-7.52-4.29-11.7-5.31-3.28-.8-7.31-.4-9.46 2.53-.3.4-.54.83-.73 1.27a26.3 26.3 0 0 0 5.31 7.36c.65.62 1.33 1.18 2.06 1.68zM107.9 144.08c-.8-.43-1.85-.51-2.6.03-.18.13-.35.33-.4.56-.12.49.3.9.7 1.18.43.31.92.58 1.46.6.43.01.84-.14 1.26-.22.52-.1 1.5.1 1.3-.66-.17-.55-1.25-1.23-1.72-1.5z" fill="#2b2b37" opacity=".29"/><path d="M157.04 133.08c-.6-.71-1.91-1.39-2.84-1 .98-.41 1.84-.77 2.13-1.92.17-.68.02-1.45-.4-2.03a2.92 2.92 0 0 0-1.98-1.14c-2.33-.32-3.4 1.57-5.38 2.22-.85.28-1.75.35-2.64.5-3.14.52-5.71 2.33-8.46 3.81a65 65 0 0 0-7.18 4.5c-2.08 1.51-4.11 3.17-6.5 4.2-4.34 1.86-7.97.72-12.31.33-.77 1.18-.86 5.58-.17 10.71.33 2.53.8 4.82 1.33 6.62 4.2-.75 9.09.2 13.48-.35 4.32-.54 8.26-2.62 12.1-4.67 3.38-1.8 6.85-3.5 10.17-5.42 1.36-.79 2.88-1.4 4.06-2.47 1.12-1 2.13-2.3 3.12-3.44.27-.3.53-.62.65-1 .1-.36.07-.74.07-1.11 0-.77.16-1.54.47-2.24.17-.37.37-.75.44-1.15.05-.32.01-.67.05-1 .06-.45.27-.88.38-1.33.24-.9 0-1.9-.6-2.62z" fill="#464558"/><path d="M157.04 133.08c-.6-.71-1.91-1.39-2.84-1 .98-.41 1.84-.77 2.13-1.92.17-.68.02-1.45-.4-2.03a2.92 2.92 0 0 0-1.98-1.14c-2.33-.32-3.4 1.57-5.38 2.22-.85.28-1.75.35-2.64.5-3.14.52-5.71 2.33-8.46 3.81a65 65 0 0 0-7.18 4.5c-2.08 1.51-4.11 3.17-6.5 4.2-4.34 1.86-7.97.72-12.31.33-.77 1.18-.86 5.58-.17 10.71.33 2.53.8 4.82 1.33 6.62 4.2-.75 9.09.2 13.48-.35 4.32-.54 8.26-2.62 12.1-4.67 3.38-1.8 6.85-3.5 10.17-5.42 1.36-.79 2.88-1.4 4.06-2.47 1.12-1 2.13-2.3 3.12-3.44.27-.3.53-.62.65-1 .1-.36.07-.74.07-1.11 0-.77.16-1.54.47-2.24.17-.37.37-.75.44-1.15.05-.32.01-.67.05-1 .06-.45.27-.88.38-1.33.24-.9 0-1.9-.6-2.62z" fill="#575770"/><path d="M139.97 133.94c1.2-.71 2.3-1.56 3.45-2.34.97-.66 1.92-1.33 2.9-1.95-.13.01-.25.04-.39.07-3.14.52-5.71 2.34-8.46 3.82-.48.25-.96.52-1.45.8.04 1.52 3.42-.08 3.95-.4z" fill="#a4a4a4" opacity=".04"/><path d="M157.04 133.08c-.6-.71-1.91-1.39-2.84-1 .98-.41 1.84-.77 2.13-1.92.17-.68.02-1.45-.4-2.03-.06-.1-.13-.17-.2-.25-.1.43-.38.82-.72 1.15-1.08 1.05-3 1.46-3.44 3.04-.33 1.16.12 2.42.4 3.54a6.1 6.1 0 0 1 .1 3.3c-.59 1.85-2.67 2.94-4.34 3.65-2.32 1-4.9 1.25-7.06 2.64-1.09.7-2.08 1.56-3.1 2.35a22.2 22.2 0 0 1-3.1 2 17.54 17.54 0 0 1-6.72 2c-2.42.18-4.81-.2-7.1-.97-2.08-.7-4.06-1.74-5.43-3.5-.96-1.22-2.23-2.74-2.34-4.38-.46-.06-.92-.11-1.39-.15-.76 1.18-.86 5.58-.17 10.71.33 2.53.8 4.82 1.33 6.62 4.2-.75 9.09.2 13.49-.35 4.31-.54 8.25-2.62 12.09-4.67 3.39-1.8 6.86-3.5 10.18-5.41 1.35-.8 2.87-1.42 4.06-2.48 1.11-1 2.12-2.3 3.12-3.44.27-.3.52-.62.64-1 .11-.36.07-.74.07-1.11 0-.77.16-1.54.47-2.23.18-.38.38-.76.44-1.16.06-.32.02-.67.06-1 .05-.45.27-.88.37-1.33.23-.9 0-1.9-.6-2.62z" fill="#2b2b37" opacity=".06"/><path d="M124.25 159.32a24.8 24.8 0 0 1-6.79-4.32c-2.17-1.92-4.2-4.13-5.41-6.8-.53-1.16-.88-2.4-1.07-3.66v-.03c-.24 2.03-.13 5.22.34 8.77.34 2.53.8 4.81 1.33 6.61 3.87-.7 8.34.07 12.45-.24-.3-.1-.56-.23-.84-.33z" fill="#2b2b37" opacity=".06"/><path d="M133.14 67.91a9 9 0 0 0-.74-1.57c-1.9-3.33-1.48-9.18-1.48-9.18s-.61-.42-4.2-1.42c-3.2-.9-16.3-5.1-18.12-5.21 0 0-1.28 4.4-4.92 5.48l-.7.4c-3.66-1.08-4.13-5.88-4.13-5.88-1.81.12-14.9 4.33-18.12 5.21-2.85.8-3.82 1.23-4.1 1.36.5 2.83.25 5.72-.27 8.56-.5 2.73-1.28 5.39-1.78 8.12-.64 3.59-.19 5.56.24 7.2.46 1.74 1.54 5.4 1.59 5.56 1.98 7 2.46 14.36 2.68 21.6.1 3.53.14 7.06.27 10.58.06 1.93.2 3.87.3 5.8 1.34.17 3.49.17 3.73.45.75.85 4.76 4.39 19.04 4.59.44 0 .87-.02 1.3-.03.43.01.86.03 1.3.03 14.29-.22 18.3-3.75 19.05-4.59.36-.4 4.68-.23 4.83-.8.19-.65.35-1.3.52-1.92-.13-1.76-.2-3.52-.21-5.3-.02-7.86.7-15.67 1.07-23.51.2-3.82.34-7.7 1.58-11.35a47.9 47.9 0 0 1 2.08-5.02l.07-.35c.59-3.36.2-6.28-.88-8.8z" fill="#575770"/><path d="M76 81.43a19.09 19.09 0 0 1-1.55-2.04c.1.57.23 1.08.35 1.56.45 1.74 1.53 5.4 1.58 5.56 1.07 3.8 1.7 7.68 2.09 11.6 1.34-2.61 2.78-5.28 2.89-8.2.16-3.7-3.15-5.98-5.35-8.48zM133.14 67.91a9 9 0 0 0-.74-1.57c-1.9-3.33-1.48-9.18-1.48-9.18s-.48-.33-3.06-1.1c.83 24.19-15.06 56.94-48.65 57.78l.13 4.87c.07 1.93.2 3.87.3 5.8 1.34.16 3.5.16 3.74.45.75.85 4.76 4.38 19.04 4.58l.68-.01.62-.01h.23l1.3.02c14.1-.24 18.06-3.75 18.82-4.58.13-.15.83-.22 1.65-.29a90.52 90.52 0 0 0 3.62-2.3l.05-.05c.01-.03.01-.07.03-.1-.14-1.75-.2-3.52-.22-5.29-.01-7.87.7-15.68 1.08-23.52.19-3.82.34-7.7 1.57-11.35a47.9 47.9 0 0 1 2.09-5.01l.06-.35c.6-3.34.22-6.26-.86-8.79z" fill="#2b2b37" opacity=".25"/><path d="M133.14 67.91a9 9 0 0 0-.74-1.57c-1.9-3.33-1.48-9.18-1.48-9.18s-.33-.23-1.96-.74c3.2 24.92-3.82 60.93-49.73 59.22l.1 3.06c.07 1.94.2 3.88.3 5.81 1.34.16 3.49.16 3.73.45.76.85 4.76 4.38 19.04 4.58l.69-.01.62-.01h.23l1.3.02c14.1-.24 18.06-3.75 18.81-4.58.14-.15.84-.22 1.66-.29a90.56 90.56 0 0 0 3.61-2.3l.06-.05.02-.1c-.13-1.75-.2-3.52-.21-5.29-.01-7.87.7-15.68 1.08-23.52.18-3.82.33-7.7 1.57-11.35a48.12 48.12 0 0 1 2.08-5.01l.07-.35a15 15 0 0 0-.85-8.79z" fill="#2b2b37" opacity=".25"/><path d="m130.41 90.98-1.06 1.76c-1.7 2.84-3.41 5.85-3.55 9.25-.12 3.13.83 6.24.04 9.33-1.24 4.75-5.5 7.92-9.41 10.45-2.02 1.3-4.1 2.52-6.1 3.83a67.87 67.87 0 0 1-6.69 3.92h.31l1.3.02c14.1-.24 18.06-3.75 18.82-4.58.13-.15.83-.22 1.65-.28a92.08 92.08 0 0 0 3.62-2.32l.05-.04c.02-.03.02-.07.03-.1-.14-1.75-.2-3.52-.22-5.29-.01-7.87.7-15.68 1.08-23.52.05-.8.1-1.61.13-2.43z" fill="#2b2b37" opacity=".25"/><path d="M105.87 67.08c-.43-.52-1.03-.95-1.56-1.4l-1.9-1.57a63.83 63.83 0 0 1-3.65-3.23 21.44 21.44 0 0 1-4.5-5.82c-.79.2-1.62.47-2.48.78a76.37 76.37 0 0 0 4.55 7.72c.79 1.18 1.6 2.35 2.5 3.45a13.6 13.6 0 0 0 3 2.88c.5.31 1.03.54 1.57.63l.1-.44c.03-.1.2-.07.17.04l-.1.42c.64.08 1.3 0 1.9-.33 1.25-.65 1.22-2.13.4-3.13z" fill="#575770"/><path d="M117.9 53.15c-.54 1.04-2.12 5-2.78 5.97-.8 1.21-1.72 2.31-2.56 3.48-.74 1.03-1.46 2.06-2.25 3.06a14.95 14.95 0 0 1-2.73 2.8c-.3.22-.65.42-1 .58-.2.92-1.08 1.47-2.01 1.63-.36.07-.71.07-1.06.03-1.1 4.56-3.5 8.7-6.08 12.57-2.4 3.62-5.06 7.09-7.5 10.7a43.95 43.95 0 0 0-5.77 11.62 79.05 79.05 0 0 0-1.71 7.05c-.54 2.53-1.02 5.06-1.5 7.58-.3 1.46-.55 2.9-.7 4.36 1.3.1 2.87.15 3.09.38.2.23.63.64 1.4 1.13.03-1.52.2-3.03.52-4.52 5.36-25.46 39.79-65.64 32.63-68.42z" fill="#2b2b37" opacity=".25"/><path d="M126.72 55.75c-2.5-.7-10.9-3.37-15.42-4.6-2.16 3.17-5.44 4.37-7.63 4.85-3.84-.85-6.43-1.45-6.43-1.45-1.84.13-4.13.72-6.58 1.72 1.42 2.2 4 3.72 6.34 4.72 1.76.74 3.6 1.3 5.48 1.65 1.67.31 3.35.64 5.05.81 1.65.16 3.28.05 4.93-.1 4.7-.46 18.8-.17 18.84-.24-.59-2.93-.36-5.95-.36-5.95s-.65-.42-4.22-1.41zM129.2 116.94v-.04c-10.75 2.53-33.3 4.36-49.91.62l.04 1.17c.07 1.94.2 3.88.3 5.81 1.34.16 3.49.16 3.73.45.76.84 4.76 4.38 19.04 4.58l.69-.01.62-.02h.23c.43.02.86.03 1.3.03 14.1-.24 18.06-3.75 18.81-4.59.14-.14.84-.21 1.66-.28a89.8 89.8 0 0 0 3.61-2.31l.06-.04.02-.1a76.1 76.1 0 0 1-.2-5.27z" fill="#2b2b37" opacity=".25"/><path d="M102.17 72.04c-14.33 6.97-21.3 32.98-22.92 43.7a218.42 218.42 0 0 0 .25 6.2c.42.75 1.03 1.3 1.86 1.31 1.17.01 2-1.1 2.57-2.14 3.83-6.98 4.62-15.2 7.53-22.59a63.4 63.4 0 0 1 5.85-11c1.53-2.4 3.55-4.58 4.3-7.37.27-1.09 3.15-9.36.56-8.1zM94.27 57.25s.64 3.34 3.33 6.6a76.26 76.26 0 0 0 5.9 6.23l4.08-1.61s-3.88-2.26-7.22-5.36c-3.32-3.09-6.1-5.86-6.1-5.86z" fill="#2b2b37" opacity=".25"/><path d="M102.74 75.31c.48-.51 1-1 1.5-1.48 1.22-1.18 2.4-2.4 3.54-3.67-10.47-6.5-11.47-9.28-17.88-19.5-.08-.12.63 13.95 12.84 24.65z" fill="#2b2b37"/><path d="M103.53 67.36a14.54 14.54 0 0 1-3.54 5.28c.85.9 1.77 1.81 2.76 2.67.49-.51 1.01-1 1.5-1.48a82.6 82.6 0 0 0 3.55-3.67 74.3 74.3 0 0 1-4.27-2.8z" fill="#21212b"/><path d="M117.09 52.07c-1.54 5.79-35.25 36.04-37.79 65.34l.04 1.28c.07 2.03.22 4.08.31 6.12h3.8c-.03-2.3.37-4.61 1.19-6.76 3.4-8.88 16.42-33.22 20.34-38.66 13.21-18.32 14.2-27.32 12.1-27.32z" fill="#2b2b37"/><path d="M84.8 117.58c-.46.06-.91.09-1.36.06a16.9 16.9 0 0 1-4.09-.86l-.06.69.04 1.22c.07 2.03.21 4.08.3 6.12h3.81c-.04-2.3.37-4.61 1.19-6.76l.17-.47z" fill="#21212b"/><path d="M129.22 117.95c-16.97 4.52-31.74 4.91-49.9.19v.56c.09 2.14.24 4.28.33 6.43 12.41 7.3 38.6 7.05 49.94-.91a69.74 69.74 0 0 1-.37-6.27z" fill="#2b2b37"/><path d="M129.22 117.95a99.27 99.27 0 0 1-22.94 3.54l.14.2c.57.63 1.47.86 2 1.53.48.6.2 1.23-.44 1.55-.47.23-1.86.71-1.22 1.43.35.39.83.65.85 1.23.02.85-.78 1.4-1.44 1.75-.9.48-1.92.9-2.9 1.21 10.1.1 20.31-1.95 26.32-6.17a69.74 69.74 0 0 1-.37-6.27z" fill="#21212b" opacity=".46"/><path d="M119.95 120.44a2 2 0 0 1-.13 1.79c-.15.28-.38.52-.51.82-.3.62.04 1 .4 1.5.4.57.6 1.1.3 1.78-.15.35-.43.62-.65.91-.36.49-.4.93-.47 1.47 4.18-1.02 7.9-2.52 10.7-4.5a74.47 74.47 0 0 1-.37-6.26 114.6 114.6 0 0 1-9.5 2.13c.08.1.17.22.23.36z" fill="#21212b"/><path d="M100.21 75.4a49.9 49.9 0 0 0-8.35 12.77c-.16.35-.3.7-.3 1.09.02.37.29.78.66.82.26.02.5-.1.72-.25 1.66-1.06 2.67-2.87 3.5-4.66.56-1.19 1.06-2.38 1.73-3.5.67-1.12 1.63-1.92 2.4-2.96.5-.68.64-1.27.74-2.1.13-.86.06-2.5-1.1-1.2z" fill="#2b2b37"/><path d="M89.14 93.96c-.2.46-.26 1.17.22 1.28.27.05.52-.15.73-.34l1.29-1.22-.18 1.44c.35.1.7-.16.96-.42 3.36-3.3 5.3-7.77 8.21-11.48.8-1.01 1.68-2 2-3.24.13-.49.13-1.08-.26-1.4-.57-.46-1.4.04-1.93.56a9.67 9.67 0 0 0-1.8 2.25c-.25.51-.39 1.34-1.18 1.02.1-1.32-2.03 1-2.23 1.26-.62.85-1.13 1.75-1.71 2.63-1.57 2.43-2.96 5-4.12 7.66zM95.5 64.45c.97 1.38 1.48-.29 1.08-1.26a6 6 0 0 0-1.63-2.28c-.5-.42-.96-.63-1.15.12-.3 1.14 1.1 2.58 1.7 3.42zM111.59 62.28c.75-.91-.47-.95-1.04-.5-.48.38-.98.94-1.22 1.52-.19.42-.24.77.3.76.8-.02 1.51-1.23 1.96-1.78zM105.74 66.83c-1.5 1.81-3.05 3.75-4.64 5.8.12.26.4.4.97.33 1.83-.23 3.1-3.1 3.96-4.44.74-1.14.38-1.64-.3-1.7zM90.35 123.55c-.37-.5-.98-.77-1.58-.9-.6-.14-1.24-.14-1.86-.23a7.74 7.74 0 0 1-2.57-1.04c-.52-.27-1.72-1.18-2.28-.7-.16.15-.27.35-.38.54-.05.1-.12.24-.08.36.03.14.16.23.28.3.81.47 1.04.6 1.52 1.42.51.9 1.55 1.34 2.52 1.64.76.25 1.54.45 2.32.62.74.16 1.63.27 2.14-.3.4-.45.34-1.22-.03-1.71zM104.58 121.52a87.5 87.5 0 0 1-11.15-.65c.46.19.8.43 1.34.98.96.97 2.43 1.2 3.79 1.28 1.06.07 2.14.07 3.21.03 1.01-.03 2.2-.2 2.65-1.1.1-.18.15-.36.16-.54z" fill="#464557" opacity=".25"/><path d="M116.39 52.63c-.18.56-.36 1.06-.62 1.12l-4.41 1.32c-3.8 1.15-7.75 2.3-11.7 1.91A24.04 24.04 0 0 1 92 54.63c-.7-.32-2.14-1.39-2.96-1.22-1.21.24.21 1.73.53 2.2.4.58.54 1.28.82 1.91.25.52.4 1.12 1.13 1 .13-.02.23-.06.35-.09.22-.02.42.02.64.06 3.57.76 2.3.47 3.21 1.2.24.21.39-.02.71 0 .6.05 1.2.08 1.8.06.81-.02 1.65-.12 2.46-.02 1.26.16 2.4.78 3.6 1.11 1.22.34 2.48.38 3.73.3.65-.04 1.28-.12 1.91-.22.27-.04.58-.02.82-.12.26-.08.45-.28.66-.42.49-.3 1.06-.4 1.64-.48.63-.1 1.27-.17 1.91-.24.35-.04.76-.07 1.02.17.07.06.11.14.2.2.38.27 1.1-.02 1.5-.1.62-.14 1.26-.22 1.9-.26.47-.03.95-.03 1.42-.13.47-.11.93-.33 1.21-.7.3-.4.38-.96.24-1.44a2.66 2.66 0 0 0-.8-1.25c-.29-.24-.6-.45-.82-.75a1 1 0 0 1-.2-.77c0-.07.34-.62.36-.62l-4.6-1.38z" fill="#21212b" opacity=".34"/><path d="M90.9 43.28s-1.51 1.32-1.8 2.57c-.3 1.25 1.36 3.19 1.36 3.19l2.26-1.28z" fill="#75a152"/><path d="M117.25 43.7s1.5 2.12.95 4.85c-.55 2.73-2.95 3.39-2.95 3.39l-.83-1.16z" fill="#568040"/><path d="M104 55.6c4.63-.06 8.36-2.08 8.34-4.52-.03-2.45-3.81-4.39-8.44-4.33-4.64.05-8.37 2.07-8.35 4.52.03 2.44 3.81 4.38 8.45 4.32z" fill="#21212b"/><path d="M89.79 33.15a28.9 28.9 0 0 0-.15 2.16c-.04 1.11-.05 2.23.06 3.34.43 4.25 2.74 8.11 5.6 11.29A39.07 39.07 0 0 1 94 42.58c-.13-1.48-.18-2.98.05-4.45.34-2.17 1.25-4.2 1.67-6.36.21-1.12.3-2.25.36-3.38l.24-3.47c.1-1.38-.67-2.58-1.9-1.35a16.57 16.57 0 0 0-4.61 9.59zM116.9 32.86c.1.71.15 1.42.19 2.15.06 1.12.1 2.23.02 3.35-.32 4.26-2.55 8.17-5.35 11.4.62-2.42 1-4.9 1.16-7.4.1-1.47.1-2.98-.16-4.45-.4-2.15-1.35-4.16-1.8-6.32-.25-1.1-.34-2.23-.45-3.36-.1-1.15-.21-2.31-.3-3.47-.13-1.38.61-2.6 1.87-1.4a16.29 16.29 0 0 1 4.81 9.5z" fill="#2b2b37"/><path d="M118.5 31.4c-.1-.5-.38-1-.82-1.26-.63-.37-1.18-.36-1.64-.08-1.25-7.26-6.43-12.68-12.55-12.61-6.11.07-11.17 5.6-12.26 12.9-.47-.27-1-.27-1.64.12-.44.26-.7.78-.8 1.29a4.6 4.6 0 0 0 .05 1.54c.25 1.87.67 3.73 1.23 5.53.11.34.22.66.42.95a1.9 1.9 0 0 0 1.7.78c.08 0 .13 0 .2-.02 2.12 5.26 6.46 8.83 11.45 8.78 5-.06 9.25-3.74 11.26-9.04a1.88 1.88 0 0 0 1.88-.8c.19-.29.3-.62.4-.95.52-1.81.9-3.67 1.1-5.55.07-.55.13-1.08.02-1.57z" fill="#d58500"/><path d="M111.33 23.4c.89.25 1.8.53 2.66.84-2.32-4.16-6.18-6.85-10.51-6.8-6.12.06-11.18 5.6-12.26 12.89-.48-.27-1.01-.27-1.65.12-.44.27-.7.78-.79 1.3a4.6 4.6 0 0 0 .04 1.54c.15 1.14.36 2.27.65 3.39a15.82 15.82 0 0 1 2.4-.97c.56-9.88 7.13-15.94 19.46-12.32zM102.98 33.53s5.77-.5 10.07.53 4.78 1.17 4.78 1.17l-1 2.7z" fill="#b45f00"/><path d="M118.5 31.4c-.1-.5-.38-1-.82-1.26-.63-.37-1.18-.36-1.64-.08a18.08 18.08 0 0 0-1.18-4.07c-.03-.06-.06-.11-.07-.16-.16-.37-.32-.72-.5-1.07l-.1-.19c-.03-.09-.09-.17-.14-.25l-.12-.2-.15-.24-.12-.2-.15-.25c-.04-.07-.1-.13-.13-.2-.06-.08-.11-.15-.15-.23l-.15-.2-.16-.22-.15-.2-.16-.2-.16-.2-.16-.19c-.07-.08-.12-.15-.2-.21l-.14-.17c-.1-.12-.23-.24-.33-.34l-.1-.1-.27-.25-.13-.13-.23-.21a.7.7 0 0 1-.15-.14l-.23-.18-.16-.12a2.58 2.58 0 0 0-.23-.18l-.16-.12-.24-.17c-.05-.05-.1-.07-.16-.11l-.26-.16-.15-.1-.28-.16-.13-.08-.32-.17-.1-.06c-.3-.15-.58-.28-.89-.4l-.06-.03c-.12-.05-.26-.1-.38-.13l-.12-.04-.34-.11-.15-.04-.32-.08-.15-.04-.3-.07-.09-.01h.02c-.66-.12-1.33-.2-2.03-.2-6.12.08-11.18 5.62-12.27 12.9-.47-.26-1-.26-1.64.13-.44.26-.7.78-.8 1.29a4.6 4.6 0 0 0 .05 1.54c.15 1.15.36 2.27.64 3.4.29-.17.58-.3.88-.43a22.14 22.14 0 0 1 3.86-1.13v-.12c-.77-21.63 34.23-9.3 14.36 6.14-1.37 1.06-3.07 1.68-4.67 2.27a19.98 19.98 0 0 1-6.17 1.45c-1.02.03-2.02-.1-3.01-.3 2.34 2.96 5.58 4.8 9.16 4.75 4.99-.05 9.25-3.74 11.25-9.04a1.88 1.88 0 0 0 1.88-.8c.2-.28.3-.62.4-.94.52-1.82.9-3.67 1.11-5.56.01-.6.07-1.13-.04-1.62z" fill="#b45f00" opacity=".36"/><path d="M118.5 31.4c-.1-.5-.38-1-.82-1.26-.63-.37-.23-1.17-.69-.9-.26-1.53-1.26-2.84-2.44-3.93l-1.62-.3c3.51 3.83 4.12 9.93 1.05 13.78-1.03 1.3-1.32.67-2.88 1.22-.56.2-1.15.33-1.73.45-.26.24-.52.45-.8.67a18.3 18.3 0 0 1-4.66 2.27 19.98 19.98 0 0 1-6.17 1.45c-1.02.03-2.02-.1-3.01-.3 2.33 2.97 5.58 4.8 9.15 4.75 5-.05 9.25-3.73 11.26-9.03l.19.02c.65.06 1.33-.26 1.69-.82.19-.3.3-.63.39-.95.53-1.82.9-3.67 1.12-5.55.02-.54.08-1.07-.03-1.56z" fill="#b45f00"/><path d="M108.16 33.54c-.15-.09-.31-.14-.43-.26a.62.62 0 0 1-.15-.4c.03-.37.24-.32.24-1.06 0-1.02-.56-2.24-.16-3.39h-.97c-.02.06-.14.02-.18.08-.33.7-1.53 1.27-1.55 7.2 0 .21 1.1.25 1.18.46.08.18.19.35.32.5.35.38.82.7 1.36.73.53.03 1.1-.28 1.24-.79.05-.19.04-.38.03-.56a7.68 7.68 0 0 0-.93-2.5zM98.2 32.2l-.29-.01c-.15-.02-.32-.02-.46-.06l-.2-.05c-.58-.1-1.15-.23-1.72-.34a.31.31 0 0 1-.13-.07c0 .02 0 .03-.02.05-.01 1.31 3.15 2.55 4.68.34-.62.17-1.23.2-1.87.14z" fill="#b45f00" opacity=".36"/><path d="M107.35 31.8c.6.1.93.25 1.55.3.19 0 .56.02.75 0 .15-.04.32-.04.46-.08l1.03-.33c.2-.07.4-.49.42-.16.03 1.33-2.67 2.71-4.2.28z" fill="#b45f00" opacity=".36"/><path d="M98.2 32.54c-2.25-.11-3.2-.84-3.22-.84-.1-.08-.12-.21-.04-.3.08-.1.22-.13.31-.05.01 0 .89.65 2.94.74.3 0 1.12-.04 1.97-.33.12-.04.24.02.28.13a.22.22 0 0 1-.13.28c-.65.23-1.42.37-2.12.37zM109.46 32.41c-.63 0-1.27-.1-1.95-.32-.12-.04-.19-.16-.14-.28a.22.22 0 0 1 .28-.15c.64.2 1.26.31 1.87.3a3.77 3.77 0 0 0 2.24-.66c.1-.08.24-.07.33.04.08.1.06.24-.05.32-.09.08-.96.74-2.52.77-.02-.02-.03-.02-.06-.02z" fill="#323147"/><path d="M89.6 35.63a53.04 53.04 0 0 1 8.72-2.2c1.29-.2 2.47.22 3.02-1.31.1-.26.12-.54.24-.8.11-.25.35-.48.62-.47.3.02.51.3.62.58.1.27.15.55.19.85.07.5.12 1.02.04 1.52-.26 1.45-1.5 1.98-2.66 2.55a101.49 101.49 0 0 1-9.28 3.77z" fill="#b45f00" opacity=".36"/><g fill="#e2a040" opacity=".36"><path d="M100.36 25.13c0 .13.05.27.12.39.2.33.55.56.9.7.1.05.2.08.3.06.95-.1-.22-1.26-.55-1.4-.3-.14-.74-.22-.77.25zM96.27 31.03c.15-.13.55-.03.7.07.18.1.4.19.36.43-.04.24-.3.28-.52.21-.15-.05-.55-.25-.6-.43-.02-.13 0-.23.06-.28zM108.8 31.34c.09-.19.49-.27.66-.26.2.02.45 0 .51.23s-.16.4-.37.43c-.16.03-.6 0-.73-.13-.08-.11-.1-.2-.07-.27zM95.38 33.22c.2.02.37-.1.47-.23.06-.06.1-.13.1-.21a.25.25 0 0 0-.03-.11c-.12-.28-.58-.34-.82-.16-.32.21-.05.7.28.71z" opacity=".36"/></g><path d="M94.94 46.45c-.1-.06-1.95-.5-1.95-.39s1.45 3.71 1.56 3.86 2.84 2.06 2.84 2.06 1.73-1.39 1.73-1.5-.21-1.23-.21-1.23z" fill="#21212b"/><path d="M116.71 44.13c.9-2.02 1.52-8.37 1.52-8.37-14.71-3.3-14.43-3.3-29.06.33 0 0 .23 1.84.58 3.84.3.5.63 1 .9 1.47.5.88 1.01 1.75 1.5 2.63.44.78.88 1.55 1.37 2.29l.14.16c1.46 1.57 3.57 2.56 5.49 3.43.66.3 1.33.52 1.99.67 2.1.03 4.26-.01 6.33-.1 2.17-.34 4.33-.84 6.31-1.8.8-.38 1.5.7.89 1.19 1.02-.16 1.87-.34 2.5-.55l-.03-2.2c-.64-.76-1.05-1.6-.43-3z" fill="#464558"/><path d="M116.71 44.13c.9-2.02 1.52-8.37 1.52-8.37-6.88-1.54-10.49-2.38-13.86-2.44-.14.47-.3.94-.49 1.4a7.29 7.29 0 0 1-2.16 3.02 7.09 7.09 0 0 1-4.34 1.44c-2.3-.03-3.3-2.03-3.31-4.3l-4.9 1.2s.23 1.85.58 3.85c.3.5.63 1 .9 1.47.5.88 1.01 1.75 1.5 2.63.44.78.88 1.55 1.37 2.29l.14.16c1.46 1.57 3.57 2.56 5.49 3.43.66.3 1.33.52 1.99.67 2.1.03 4.28-.01 6.33-.1 2.17-.34 4.33-.84 6.31-1.8.8-.38 1.5.7.89 1.19 1.02-.16 1.87-.34 2.5-.55l-.03-2.2c-.64-.76-1.05-1.6-.43-3z" fill="#323147"/><path d="m90.64 41.41 1.5 2.64c.43.78.88 1.54 1.36 2.28l.15.16c1.45 1.58 3.56 2.56 5.49 3.43.65.3 1.33.53 2 .67.9.02 1.81.02 2.73 0-.08-.02 2.27-1.17 2.2-1.2-1.97-.72-8.78 1.2-12.6-8.7a23.7 23.7 0 0 1-1.31-4.95l-.06-.37-2.94.73s.23 1.84.58 3.84c.3.5.64.99.9 1.47z" fill="#2b2b37"/><path d="M104.43 50.57a4.8 4.8 0 0 0 1-2.03c.16-.78.07-1.58-.12-2.33-.16-.7-.42-1.38-.49-2.1-.05-.63.13-1.23.4-1.83.26-.57.61-1.11.79-1.72.15-.47.2-.96.17-1.45a2.1 2.1 0 0 0-.58-1.4c-.35-.32-1.1-.6-1.57-.3-.39.24-.44.8-.48 1.19a4.26 4.26 0 0 1-.42 1.5c-.3.57-.71 1.07-1.09 1.58-.43.6-.8 1.22-.98 1.92-.35 1.37.1 2.68.87 3.85.6.89 1.3 1.79 1.59 2.8l.07.32h.84z" fill="#2b2b37"/><path d="M116.71 44.13c.9-2.02 1.52-8.37 1.52-8.37.01-.17-6.37-1.4-7.07-1.54-1.63-.33-3.44-.76-5.11-.81.01 1.26-.4 3.07.95 3.97.27.17.6.3.86.45 1.59.93 1.37 3 .16 3.67-.48.27-1.27.42-.72 1.13.28.37.72.64 1.1.92.3.23.66.5.77.86a1 1 0 0 1-.14.8c1.04 2.2-4.78 5.3-13.1 3.05 1.03.63 2.16 1.15 3.22 1.64.66.3 1.33.52 1.99.67 2.1.03 4.28-.02 6.33-.1 2.17-.35 4.33-.84 6.3-1.8.8-.39 1.52.7.9 1.19 1.02-.17 1.87-.34 2.5-.56l-.03-2.2c-.64-.74-1.05-1.59-.43-2.97z" fill="#2b2b37"/><path d="M116.71 44.13c.9-2.02 1.52-8.37 1.52-8.37.03-.21-2.94-.72-3.17-.76l-1.24-.26c-.15-.03-.42-.13-.56-.12-.22.03-.23.19-.34.35-.46.73-.83 1.26-.8 2.15v.1c.07.82.38 1.6.6 2.39.13.5.24 1 .17 1.5-.19 1.62-1.9 2.7-2.58 4.2-.21.46-.32.96-.6 1.39-.54.8-1.6 1.2-2.3 1.9-.35.34-.61.77-1.04 1.04-.48.31-1.1.36-1.7.34-.46-.02-.99-.15-1.46-.08-.17.02-2.93.63-6.37-1.1 2.04 3.6 7.76 2.1 9.79 1.8 2.44-.37 4.92-.85 7.15-1.94.85-.42 1.6.86.74 1.28l-.07.02c1.12-.21 2.03-.44 2.7-.66l-.02-2.2c-.63-.74-1.04-1.59-.42-2.97z" fill="#21212b"/><path d="M112.92 44.92a20.2 20.2 0 0 1-1.91 3.71 15.77 15.77 0 0 1-2.62 2.97c-.47.42-1 .76-1.42 1.24-.2.24-.4.5-.61.71l.01.81c3.07-.05 6.12-.26 9.16-.6.4-.7.86-1.39 1.2-2.12.38-.78.75-1.61.98-2.44l.04-.15c-1.66-4.68 8.87-24.58-4.06-33.8-7.24-5.16-12.77-4.66-19.25-.28-13.86 9.39-2.74 29.76-4.43 34.44-.07.18-.15.35-.25.51.33.84.77 1.62 1.23 2.38.33.57.68 1.15 1.05 1.7l.06.1c3.08.64 7.75 2.28 10.26 2.32 1.21.01 1.56-.23 1.16-1.63l-.65.01v-.88l-.18-.16a5.18 5.18 0 0 0-1.52-.99c-4.52-1.95-8.58-6.44-10.12-10.47-2.07-5.47-.16-13.2 2.85-16.34 5.1-5.34 14.2-5.51 19.46-.19 3.54 3.58 5.02 9.62.03 17.95l-.47 1.2z" fill="#464558"/><path d="M90.17 47.4a5.1 5.1 0 0 1-.15 2.01c-.07.18-.15.35-.24.51.32.84.76 1.62 1.22 2.38.34.57.69 1.15 1.05 1.7.03.02.04.06.07.1 3.08.64 7.74 2.28 10.26 2.32.9.01 1.31-.12 1.31-.77-8.02-3.97-12.02-3.1-13.52-8.26z" fill="#323147"/><path d="M116.28 52.09c.38-.7.74-1.41 1.05-2.14.15-.34.24-.7.38-1.05-1.2-4.15 5.91-18.83.4-28.78.19 1.72.03 3.45-.55 5.09a15.55 15.55 0 0 1-1.96 3.7c1.66 3.6 1.56 8.56-2.18 14.81l-.49 1.2a20.2 20.2 0 0 1-1.9 3.71 15.76 15.76 0 0 1-2.63 2.97c-.47.42-1 .76-1.41 1.24-.34.4-.66.82-1.1 1.1v.42c3.17-.04 6.36-.23 9.5-.6l.9-1.67zM112.46 23.19c-.1-1-.8-1.98-1.61-2.55a4.52 4.52 0 0 0-2.45-.76c-1.8-.08-3.55.45-5.34.57-1.02.06-2-.14-3.01-.22-1.2-.1-2.27.15-3.19.96-.86.76-1.49 1.74-2.24 2.62-.73.85-1.6 1.53-2.41 2.3-.74.71-1.45 1.48-1.98 2.38a6.3 6.3 0 0 0-.62 1.45c-.17.58-.25 1.18-.4 1.76-.32 1.21-.78 2.38-.98 3.6-.1.6-.1 1.18-.1 1.77.56 3.05 1.28 5.86 1.7 8.1.22.36.44.7.67 1.03.62.91 1.3 1.81 1.67 2.86.35.97.39 2.07.05 3.04-.16.46-.39.86-.68 1.23h.37l.02.72c2.89.58 6.6 2.31 9.3 2.34.85.01 1.75-.1 2.25-.67.12-.14.16-.51.08-.88l-.71.02-.02-.96-.14-.13a5.18 5.18 0 0 0-1.52-.98c-4.52-1.95-8.58-6.44-10.12-10.48-2.07-5.47-.16-13.19 2.85-16.34 4.74-4.96 12.91-5.46 18.28-1.23.23-.49.34-1.01.28-1.55z" fill="#323147" opacity=".32"/><path d="M91 30.36c-.17.56-.16 1.14-.2 1.72l-.03.3c.38-1.54.92-3 1.57-4.2-.5.68-1.08 1.34-1.34 2.18z" fill="#464558"/><path d="M116.66 52.13c.37-.86.8-1.71 1.11-2.6l.08-.25-.08-.18c-.87-2.27 1.3-8.33 2.16-15.02-.66 3.07-3.65 11.78-3.7 11.9-.29.62-.6 1.25-1.04 1.78-.37.48-.9.76-1.41 1.09-.32.2-.65.43-.85.76-.13.23-.2.49-.25.74-.12.51-.25 1.03-.6 1.43-.32.38-.77.6-1.23.8-.63.29-1.28.54-1.95.7-.8.17-1.63.18-2.43.18-.2.21-.44.42-.7.55-.23.12-2.16 1.6-2.38 1.72 3.64 0 8.67-1.36 12.56-2.02.24-.5.47-1.04.7-1.58z" fill="#323147"/><path d="M93.92 25.96c3.87-4.06 10.07-5.14 15.14-3.07-.4-.24-.8-.48-1.17-.78-.26-.21-.44-.25-.77-.3a1.5 1.5 0 0 1-.41-.13c-.46-.2-.9-.43-1.37-.56l-.65-.15-.1-.01c-.63-.06-1.27-.15-1.9-.16-.66-.03-1.28.13-1.94.14-.7.03-1.32.03-1.92.43-.49.33-.92.68-1.43.96-1.05.6-2.12 1.12-2.93 2.04-.38.43-.69.93-.93 1.46a7.32 7.32 0 0 1-.94 1.6c-7.45 7.45-1.55 28.27 11.15 27.93.1-.66-.78-1.38-1-1.58a5.73 5.73 0 0 0-1.66-1.07c-4.48-1.97-8.52-6.43-10.04-10.44-1.8-4.73-.59-11.16 1.71-14.84.34-.43.92-1.23 1.16-1.47z" fill="#323147"/><path d="M88.1 28.35a21.64 21.64 0 0 0 4.85-3.83 18.09 18.09 0 0 0 3.48-5.71c.55-1.47.89-3 .92-4.58 0-.32 0-.63-.03-.95a27.2 27.2 0 0 0-2.86 1.7c-5.2 3.53-6.89 8.6-7.05 13.79l.69-.42z" fill="#575770"/><path d="M103.47 20.5c-.1 0-.2-.05-.25-.15-.36-.82-.23-1.7-.1-2.55.08-.6.17-1.2.09-1.76-.03-.2-.08-.42-.13-.64l-.13-.5c-.17-.93-.04-1.9.07-2.76.02-.15.15-.25.3-.22.15.01.24.15.21.3a7.96 7.96 0 0 0-.08 2.58l.11.47c.05.21.12.44.15.69.1.63 0 1.27-.1 1.9-.12.82-.23 1.6.07 2.3.05.13 0 .27-.13.33l-.08.01z" fill="#2b2b37" opacity=".06"/><path d="M113.16 25.37a9.99 9.99 0 0 0-1.7-1.2 12 12 0 0 1 1.92 1.6c3.53 3.58 5.01 9.6.02 17.94l-.5 1.21a20.2 20.2 0 0 1-1.9 3.71c-.31.46-.64.89-1 1.3 3.15-2.62 5.81-5.76 7.14-9.7 2-5.87.04-11.4-3.98-14.86z" fill="#575770"/><path d="M88.8 53.25c.24.79.72 1.47 1.2 2.16.49.71 1 1.45 1.7 1.98.7.54 1.56.83 2.4 1.09 2.02.6 4.1.96 6.2 1.1 1.9.12 3.81.04 5.7.3 1.43.21 2.86.6 4.3.47.98-.1 1.92-.43 2.83-.81 1.5-.63 2.96-1.43 4-2.66 1.03-1.24 1.59-2.99 1.03-4.5-.13-.37-.4-.78-.79-.75-.24.02-.43.2-.6.36-2.88 2.75-6.5 4.87-10.47 5.2-.98.09-1.97.06-2.97.02-.74-.02-1.48-.05-2.2-.21-1.01-.23-1.93-.72-2.9-1.01-1.02-.3-2.1-.4-3.09-.75-1.9-.7-3.3-2.33-4.58-3.88-.51-.62-.65-1.29-1.03-1.92-.91.93-1.11 2.6-.74 3.8z" fill="#75a152"/><path d="M118.18 52.36c-.14-.37-.4-.77-.8-.74-.24.01-.43.2-.6.36-2.88 2.74-6.5 4.87-10.46 5.2-.98.08-1.98.06-2.97.02-.74-.03-1.48-.06-2.21-.22-.71-.16-1.39-.45-2.07-.71.56 1.02.78 2.25.07 3.19.39.04.78.08 1.15.1 1.9.11 3.8.03 5.69.3 1.44.2 2.86.6 4.3.46.99-.1 1.93-.43 2.84-.81 1.5-.63 2.96-1.42 4-2.66 1.07-1.21 1.6-2.96 1.06-4.5z" fill="#568040" opacity=".37"/><path d="M118.18 52.36c-.14-.37-.4-.77-.8-.74-.24.01-.43.2-.6.36-2.88 2.74-6.5 4.87-10.46 5.2-.98.09-1.98.06-2.97.02-.74-.03-1.48-.06-2.21-.22-1-.23-1.92-.71-2.9-1-1.01-.3-2.09-.4-3.08-.76-1.9-.7-3.3-2.33-4.59-3.87-.51-.62-.65-1.3-1.02-1.92-.14.13-.24.26-.35.43.16 1.04.9 1.99 1.34 2.91.55 1.17.89 2.44 1.8 3.4a5.01 5.01 0 0 0 3.04 1.54c.6.08 1.19.1 1.78.17.58.08 1.13.23 1.7.33.63.09 1.27.1 1.89.2.63.08 1.25.19 1.88.25.6.07 1.16.14 1.74.27.66.15 1.3.33 1.97.38 1.16.1 2.42.15 3.58-.07.63-.12 1.25-.33 1.88-.48.28-.07.58-.11.86-.2.25-.06.46-.17.72-.2.44-.07.83.16 1.11.52 1.01-.53 1.97-1.18 2.7-2.05 1-1.2 1.54-2.94.99-4.47z" fill="#568040"/><path d="M92 54.19c.2.59.43 1.2.87 1.68.48.5 1.2.79 1.87.95 1.37.34 2.84.36 4.23.51 1.23.12 2.38.07 3.54-.15a9.58 9.58 0 0 1-1.37-.17c-1-.23-1.92-.71-2.9-1-1.01-.3-2.09-.4-3.08-.76-1.56-.57-2.77-1.76-3.86-3.03.28.63.47 1.3.7 1.97zM105.05 58.07a6 6 0 0 0 2.58.31c.9-.05 1.8-.1 2.67-.27.79-.15 1.57-.33 2.36-.44.81-.12 1.62-.22 2.36-.57.6-.28 1.23-.6 1.72-1.09.55-.55.71-1.3.82-2.04.1-.75-.03-1.56.08-2.3a.41.41 0 0 0-.26-.04c-.24.01-.43.2-.6.36-2.88 2.75-6.5 4.87-10.46 5.2-.92.09-1.83.06-2.75.03.49.31.95.65 1.48.85z" fill="#3e5c2e"/><path d="M98.56 54.78c1.38.21 16.3 2.96 19.04-7.9.13-.53.13.03.7.04.95 8.92-8.84 12.77-17.83 10.99-14.74-2.9-11.72-14.78-10.52-12.09.47 1.1-.2 7.59 8.6 8.96z" fill="#75a152"/><path d="M98.56 54.78c1.38.21 16.3 2.96 19.04-7.9.13-.53.13.03.7.04.95 8.92-8.84 12.77-17.83 10.99-14.74-2.9-11.72-14.78-10.52-12.09.47 1.1-.2 7.59 8.6 8.96z" fill="#75a152"/><path d="M118.28 46.92c-.56 0-.55-.57-.7-.04-2.39 9.46-14 8.6-17.87 8.07 1.04.34 2.1.58 3.1 1.01.88.39 1.81.83 2.44 1.59.2.23.34.48.43.75 7.16-.3 13.38-4.18 12.6-11.38z" fill="#568040" opacity=".37"/><path d="M90.15 49.65a8.38 8.38 0 0 1-.16-1.64c-.04-.39-.1-.9-.33-1.22a.21.21 0 0 0-.13-.1c-.08-.02-.17.02-.22.07a.36.36 0 0 0-.08.23c-.06.46.17.89.26 1.33.09.37.06.76.07 1.13.02.38.06.77.26 1.1.05.09.13.17.24.18.1 0 .2-.1.23-.2s0-.23-.03-.34a6.33 6.33 0 0 0-.1-.54zM91.89 53.35l.01.11c.03.08.12.12.22.15.05.01.1.04.16.04s.1-.02.15-.07c.02-.03.02-.07.02-.1 0-.1-.01-.2-.08-.29-.17-.21-.44-.1-.48.16z" fill="#aed888"/><path d="M105.5 55.97c-.22 0-.43.02-.64.07-.96.22-2.24.43-2.69 1.04-.17.24-.25.67.18.79.44.12.9-.18 1.22-.52.33-.37.35-.72 2.99-.57z" fill="#568040"/><path d="M103.18 56.2c-.41 0-.83.06-1.23.15-.42.1-.86.26-1.1.6-.03.05-.07.1-.07.15-.03.15.09.3.24.34.15.04.3 0 .44-.05.53-.2.97-.62 1.54-.69.22-.03.45.01.68.03.23.01.47.01.67-.1.11-.05.33-.21.33-.35-.02-.14-.22-.08-.31-.08-.4.03-.8 0-1.19 0z" fill="#568040"/><path d="M94.52 54.82c2.03 1.2 4.5 1.29 6.8 1.45 5.24.39 12.86 2.15 14.64-3.46.12-.37 2.86-.88 2.33-5.9-.57-.01-.56-.58-.7-.04-2.75 10.85-17.65 8.1-19.05 7.9-3.88-.61-5.91-2.2-7.03-3.9a7.24 7.24 0 0 0 3.01 3.95z" fill="#568040"/><path d="M97.45 54.84c1 .18 2 .2 3 .2-.96-.1-1.65-.22-1.9-.26a11.54 11.54 0 0 1-5.28-2.03 7.95 7.95 0 0 0 4.18 2.1zM105.16 55.33c2.4.23 4.87.28 7.13-.71a5.41 5.41 0 0 0 1.5-.93c.4-.37.65-.84 1.08-1.17.8-.62 1.77-.86 2.34-1.76.63-1.03.56-2.28.27-3.45-1.91 6.54-8.4 7.88-13.27 7.94l.95.08z" fill="#3e5c2e"/><path d="M89.28 52.95c.1.12.24.21.32.35.08.16.08.33.1.52 0 .18.06.38.21.47.1.07.22.07.34.07.04 0 .08 0 .1-.03.05-.02.07-.06.1-.1.28-.51-.1-1.35-.44-1.74-.15-.16-.5-.56-.74-.43-.29.16-.14.71 0 .89z" fill="#aed888"/><path d="M87.22 55.37c.43-.53.74-1.17.84-1.84-3.14.95-6.06 1.85-7.36 2.22l-.23.06c.26.85.6 1.67 1.04 2.45.06.12.16.26.3.3.32.08 2.56-1.1 2.86-1.24a8.5 8.5 0 0 0 2.55-1.95z" fill="#21212b" opacity=".34"/><path d="m96 30.09.15.07c.83.4 1.68.78 2.64.5 1.09-.32 2.2-1.69 1.81-1.96-.12-.08-.85.07-1 .06-.57-.04-1.16-.06-1.74-.04-.57.01-1.13.01-1.68.1-.93.15-1.87.3-2.77.56-.11.02-.23.06-.3.14l-.04.08c-.01.1.1.15.2.17.58.09 1.17-.08 1.75 0 .34.04.67.17.98.32z" fill="#b45f00" opacity=".36"/><path d="M100.2 28.22c-.4-.14-3.55-.55-6.98 1.12-.03 0-.05 0-.08.02a.03.03 0 0 0-.03.03l-.03.01c-.08.04-.02.16.04.12l.14-.06c3.3-1.12 4.77.76 6.75.14.67-.2 1-1.11.19-1.38z" fill="#323147"/><path d="m111.13 30.09-.15.07c-.83.4-1.68.78-2.63.5-1.1-.32-2.2-1.69-1.82-1.96.12-.08.85.07 1 .06.58-.04 1.17-.06 1.75-.04.56.01 1.12.01 1.68.1.92.15 1.87.3 2.77.56.1.02.22.06.3.14 0 .03.03.06.03.08.02.1-.1.15-.2.17-.58.09-1.17-.08-1.75 0-.33.04-.66.17-.98.32z" fill="#b45f00" opacity=".36"/><path d="M107.11 29.62c1.98.62 3.44-1.27 6.75-.15l.14.07c.08.04.12-.1.04-.12-.02 0-.02-.02-.03-.02a.03.03 0 0 0-.03-.02c-.02-.02-.05-.02-.08-.03a11.45 11.45 0 0 0-6.98-1.12c-.79.26-.47 1.17.2 1.39z" fill="#323147"/><path d="M78.66 100.24c-2.25-.83-5.8.72-7.52 1.71-.27-1.03-.94-2.2-2.22-2.04-.34.04-.66.18-1 .24-1.22.21-.94-1.19-1.88-1.25-.5-.04-1.53.55-1.84.94-.48.62-.1 1.52-.6 2.07-.56.63-1.13.4-1.34 1.44-.17.89-.39 2.27-.14 3.15.3 1.02 1.46 1.68 1.97 2.59.51.9.54 2 .62 3.03.08.9.42 3.06 1.47 3.39.55.17 1.48-.44 1.95-.65a72.47 72.47 0 0 0 4.66-2.4c2.15-1.22 4.28-2.59 5.81-4.36l.42-.53a121 121 0 0 0-.36-7.33z" fill="#21212b" opacity=".34"/></svg>