<svg xmlns="http://www.w3.org/2000/svg" xmlns:xlink="http://www.w3.org/1999/xlink" width="153" height="151" viewBox="0 0 153 151">
  <defs>
    <linearGradient id="server_not_found-c" x1="64.72%" x2="24.367%" y1="94.738%" y2="-26.901%">
      <stop offset="0%" stop-color="#191849"/>
      <stop offset="100%" stop-color="#01002B"/>
    </linearGradient>
    <linearGradient id="server_not_found-f" x1="42.044%" x2="67.668%" y1="91.479%" y2="-4.883%">
      <stop offset="0%" stop-color="#191849"/>
      <stop offset="100%" stop-color="#01002B"/>
    </linearGradient>
    <linearGradient id="server_not_found-g" x1="50%" x2="50%" y1="94.003%" y2="-45.38%">
      <stop offset="0%" stop-color="#191849"/>
      <stop offset="100%" stop-color="#01002B"/>
    </linearGradient>
    <linearGradient id="server_not_found-h" x1="81.625%" x2="-63.854%" y1="79.904%" y2="-46.643%">
      <stop offset="0%" stop-color="#191849"/>
      <stop offset="100%" stop-color="#01002B"/>
    </linearGradient>
    <linearGradient id="server_not_found-i" x1="87.632%" x2="-62.144%" y1="17.06%" y2="156.043%">
      <stop offset="0%" stop-color="#191849"/>
      <stop offset="100%" stop-color="#01002B"/>
    </linearGradient>
    <linearGradient id="server_not_found-k" x1="80.355%" x2="-19.792%" y1="50%" y2="50%">
      <stop offset="0%" stop-color="#191849"/>
      <stop offset="100%" stop-color="#01002B"/>
    </linearGradient>
    <linearGradient id="server_not_found-l" x1="-3.191%" x2="120.352%" y1="50%" y2="50%">
      <stop offset="0%" stop-color="#191849"/>
      <stop offset="100%" stop-color="#01002B"/>
    </linearGradient>
    <linearGradient id="server_not_found-m" x1="0%" x2="202.089%" y1="50.001%" y2="50.001%">
      <stop offset="0%" stop-color="#EEBDAA"/>
      <stop offset="100%" stop-color="#B56C8F"/>
    </linearGradient>
    <linearGradient id="server_not_found-p" x1="59.031%" x2="10.57%" y1="28.876%" y2="133.063%">
      <stop offset="0%" stop-color="#191849"/>
      <stop offset="100%" stop-color="#01002B"/>
    </linearGradient>
    <linearGradient id="server_not_found-s" x1="40.687%" x2="104.186%" y1="33.24%" y2="133.917%">
      <stop offset="0%" stop-color="#191849"/>
      <stop offset="100%" stop-color="#01002B"/>
    </linearGradient>
    <linearGradient id="server_not_found-t" x1="50.22%" x2="49.449%" y1="66.177%" y2="-16.705%">
      <stop offset="0%" stop-color="#EEBDAA"/>
      <stop offset="100%" stop-color="#B56C8F"/>
    </linearGradient>
    <linearGradient id="server_not_found-u" x1="50.526%" x2="44.792%" y1="57.552%" y2="-27.212%">
      <stop offset="0%" stop-color="#EEBDAA"/>
      <stop offset="100%" stop-color="#B56C8F"/>
    </linearGradient>
    <path id="server_not_found-a" d="M11.5.8451a40.4223 40.4223 0 014.8262 11.4999c1.3723 6.1436.9279 5.5978.9279 5.5978l-7.5236 1.9756a.9389.9389 0 01-1.0568-.4466C7.1091 16.6978.8715 5.6973.0509 5.1763-.8886 4.5799 11.4999.845 11.4999.845z"/>
    <path id="server_not_found-d" d="M5.5006.8813A40.4223 40.4223 0 00.9702 12.501C-.2444 18.6776.186 18.1207.186 18.1207l7.5717 1.7823a.9389.9389 0 001.045-.4735c1.4931-2.8132 7.4471-13.9696 8.2542-14.5114C17.9808 4.2978 5.5006.8813 5.5006.8813z"/>
    <path id="server_not_found-n" d="M31.7583 24.0024a2.8737 2.8737 0 001.16-.057c1.0195-.3392 1.3181-1.6111 1.456-2.6768l.9537-7.3732a.7955.7955 0 00-.0306-.4558.78.78 0 00-.2778-.272c-3.6719-2.5282-8.0138-3.9211-11.7815-6.3042-2.0939-1.3243-4.0001-2.9483-6.1937-4.1A33.209 33.209 0 008.5763.1009a35.156 35.156 0 01-.919 4.0692c-1.0286 3.8406-2.1216 7.8095-4.6448 10.8822C1.9804 16.309.4297 17.5527 0 19.1848a9.607 9.607 0 002.9363.669 264.5813 264.5813 0 009.2617 1.688 264.3153 264.3153 0 0019.5603 2.4606z"/>
    <path id="server_not_found-q" d="M4.6975 26.3996a2.8737 2.8737 0 01-1.1606.0401c-1.0444-.2529-1.4482-1.4954-1.6746-2.5458L.2958 16.6261a.7955.7955 0 01-.0076-.4567.7799.7799 0 01.2541-.2942c3.4479-2.8262 7.6582-4.577 11.2137-7.2666 1.9758-1.4946 3.7397-3.2722 5.8294-4.603a33.2094 33.2094 0 018.216-3.361 35.1558 35.1558 0 001.2558 3.9782c1.346 3.7412 2.7666 7.605 5.5378 10.456 1.1335 1.1663 2.7827 2.276 3.3473 3.8665a9.607 9.607 0 01-2.8702.912 264.3243 264.3243 0 01-9.0883 2.456 264.313 264.313 0 01-19.2863 4.0863z"/>
    <radialGradient id="server_not_found-j" r="276.584%" fx="50%" fy="50%" gradientTransform="matrix(.28043 0 0 1 .36 0)">
      <stop offset="0%" stop-color="#191849"/>
      <stop offset="100%" stop-color="#01002B"/>
    </radialGradient>
  </defs>
  <g fill="none" fill-rule="evenodd">
    <g fill="#B9C5C9" fill-rule="nonzero" transform="translate(0 126)">
      <ellipse cx="76.661" cy="17.299" rx="76.253" ry="7.378"/>
      <path d="M123.379 3.4676a8.5187 8.5187 0 00-1.9368 6.7118 6.0697 6.0697 0 011.9168-4.0861 5.6312 5.6312 0 00-.2197 3.6615 5.5655 5.5655 0 012.3975-3.0119c-.8104 1.0548-.6529 2.5595.3584 3.4236a17.4784 17.4784 0 011.244-5.5735 18.927 18.927 0 01.7436 5.1329 8.5479 8.5479 0 012.649-3.7848 13.4825 13.4825 0 00-1.0572 4.8592 10.2947 10.2947 0 014.339-4.2787 13.2853 13.2853 0 00-2.5025 6.335l-7.139.1155c-1.1714.019-5.5172.7369-6.1577-.3256-.8952-1.4847 3.6914-9.1789 5.3646-9.1789zm12.7126 6.7339a12.4188 12.4188 0 001.2597 2.2874 20.4306 20.4306 0 00.346-3.1059 4.4109 4.4109 0 01.9363 2.0367 27.0216 27.0216 0 00-.1884-6.6711c.1227.9314.3735 1.8415.7454 2.7042a15.3736 15.3736 0 01.8298 4.8048 6.9223 6.9223 0 012.0628-3.1037 8.0607 8.0607 0 01-.096 3.2309 5.637 5.637 0 012.4021-2.9883 7.4123 7.4123 0 00-1.0628 3.5313 3.9299 3.9299 0 012.492-1.9357 7.4671 7.4671 0 00-1.8542 3.7368c-2.1042-.5179-4.3114-.142-6.3489-.5676-1.9772-.413-.8175-2.2797-1.5238-3.9598zm-27.8008 2.6495c.9967-1.4961 1.4096-3.7209 2.8524-5.0496a10.5227 10.5227 0 00-2.9991 2.9586 37.3188 37.3188 0 01.4038-5.4483c-1.116.207-1.658 2.6559-1.8745 3.6445-.5193-2.0106-.0616-4.33-.1963-6.405-1.0411 1.7616-1.063 3.9547-1.6102 5.7983-.8551-.5246-.8268-2.3628-1.7748-3.0552-.0687 1.1794.3132 2.3556.2332 3.567-.8778-.7632-.7428-2.1267-2.1488-2.5924-.1112.9839.496 1.9313.3625 2.9708-.6064-.7613-1.1503-1.9284-2.3003-1.7252.1068 1.1357 1.45 1.8988 1.655 3.1174a10.617 10.617 0 015.1097 1.1246c.5035.29.968.6813 1.4622.9948.2567.1227.5466.1577.8252.0997zM76.548 1.207a8.5187 8.5187 0 00-1.9367 6.7117 6.0697 6.0697 0 011.9168-4.086 5.6312 5.6312 0 00-.2198 3.6615 5.5656 5.5656 0 012.3975-3.012c-.8104 1.0549-.6528 2.5596.3585 3.4236a17.4788 17.4788 0 011.2439-5.5734 18.9271 18.9271 0 01.7436 5.1328 8.5477 8.5477 0 012.649-3.7848 13.482 13.482 0 00-1.0572 4.8592 10.2948 10.2948 0 014.339-4.2786 13.2855 13.2855 0 00-2.5025 6.335l-7.139.1155c-1.1714.019-5.5172.7369-6.1577-.3256-.8952-1.4848 3.6914-9.1789 5.3646-9.1789z"/>
      <path d="M85.0825 7.1498a12.418 12.418 0 001.2597 2.2874c.1944-1.025.3101-2.0633.346-3.1059a4.4108 4.4108 0 01.9364 2.0367 27.0206 27.0206 0 00-.1885-6.6712 10.198 10.198 0 00.7454 2.7043 15.3733 15.3733 0 01.8298 4.8048 6.9221 6.9221 0 012.0628-3.1037 8.0607 8.0607 0 01-.096 3.2308 5.637 5.637 0 012.4021-2.9882 7.4123 7.4123 0 00-1.0628 3.5313 3.9298 3.9298 0 012.492-1.9357 7.4671 7.4671 0 00-1.8542 3.7368c-2.1042-.518-4.3114-.142-6.3489-.5676-1.9772-.413-.8175-2.2797-1.5238-3.9598zm-14.893-5.5172a21.589 21.589 0 01-.3187 6.0027 6.9871 6.9871 0 00-.6002-3.187 7.6051 7.6051 0 01-.471 4.72 10.3926 10.3926 0 00-1.2326-2.6975 3.5468 3.5468 0 00-.2155 1.9042 1.9446 1.9446 0 01-.6293 1.7477c.0093-2.1473-1.6644-3.8812-3.2225-5.3587a4.5081 4.5081 0 01.732 3.5613c-.2225-.612-.529-1.305-1.1576-1.4753a1.3961 1.3961 0 00-1.4087.5976 4.0989 4.0989 0 00-.59 1.5028 15.7885 15.7885 0 01.7519-6.6865A13.9857 13.9857 0 0060.118 12.493a10.2237 10.2237 0 015.444-.3973c1.9495.2637 5.5025 1.4923 6.1486-1.2067.7287-3.0448-1.266-6.3263-1.5212-9.2565zM57.6467 2.8045l.2616 5.8906-1.2389-2.9437-1.1706 2.5513a10.579 10.579 0 01-.7812-4.6218 15.8601 15.8601 0 00-.524 7.3205 19.4284 19.4284 0 01-1.5927-6.928 24.494 24.494 0 00-.4077 4.9346l-1.0757-1.6185-.597 1.4784a29.8725 29.8725 0 01-.7554-8.1938 38.3955 38.3955 0 00-.5735 9.2577c-.4244-.9603-.6711-1.9925-1.1112-2.9457A4.091 4.091 0 0045.97 4.7577a5.7522 5.7522 0 011.7174 4.4192 7.6403 7.6403 0 00-3.1047-1.093 3.5636 3.5636 0 011.0644 2.9388 5.1313 5.1313 0 00-2.891-2.3534c.9292 1.9845 3.4543 2.5216 5.6307 2.7761 2.9667.347 6.9796.9643 9.7877-.4145 2.4913-1.2233.0142-6.1158-.5278-8.2264zm-18.8885 1.623a43.1998 43.1998 0 01-.0862 5.03 8.6693 8.6693 0 00-2.424-5.1547 7.62 7.62 0 01.1539 3.9494 13.3707 13.3707 0 01-1.3672-6.311 14.039 14.039 0 00.4966 9.2154A7.721 7.721 0 0133.283 6.058l-.7296 2.4126a5.865 5.865 0 01-.2548-1.8696l-.5116-.0113a10.1019 10.1019 0 00-.789 2.4768l-.6734-2.9975a6.2436 6.2436 0 00-.7117 4.3134 15.0092 15.0092 0 00-3.6506-6.4915c1.6995 1.7697 1.9442 4.4436 2.042 6.8952a.6797.6797 0 00.1354.4633c.134.136.3702.4334.561.4273 3.1687-.1006 6.1395 1.1778 9.2979 1.4523 4.5266.3933 1.5205-6.4871.7597-8.7016zM7.839 5.2508a30.0086 30.0086 0 00.19 5.2703 5.8062 5.8062 0 01.8092-3.4951 7.1464 7.1464 0 00.2353 4.0258A4.1213 4.1213 0 0110.589 8.372a3.7257 3.7257 0 00.7836 3.1193 28.4328 28.4328 0 00.2328-6.5372 12.5956 12.5956 0 01.9878 6.6551A17.7652 17.7652 0 0014.841 8.714a6.7123 6.7123 0 00-.241 2.8745 23.1382 23.1382 0 00.8526-6.2297 9.2809 9.2809 0 011.322 5.605 4.564 4.564 0 00.9674-2.8198l.955 3.627a12.7566 12.7566 0 001.0904-2.953c.3.7632.4617 1.5737.4776 2.3936a12.097 12.097 0 00.2307-4.7379 10.473 10.473 0 011.257 5.438 55.1751 55.1751 0 001.3485-5.2764 18.6597 18.6597 0 00.5037 5.924c-3.6602.8075-7.4442 3.6177-11.1248 2.909a12.0966 12.0966 0 00-4.3069-.5285.8307.8307 0 00-.462.2933c-1.093-2.7816-.0153-7.2297.1279-9.9823z"/>
    </g>
    <path fill="#01002B" fill-rule="nonzero" d="M56.834 123.814h50.136v10.533H56.834z"/>
    <g transform="translate(114.462 87.864)">
      <mask id="server_not_found-b" fill="#fff">
        <use xlink:href="#server_not_found-a"/>
      </mask>
      <use fill="#01002B" fill-rule="nonzero" xlink:href="#server_not_found-a"/>
      <path fill="#191849" fill-rule="nonzero" d="M8.4683 19.5693a23.8851 23.8851 0 001.998-2.3514c.6053-.8502 1.1758-1.724 1.7292-2.6088a54.8015 54.8015 0 002.9904-5.4855 69.0431 69.0431 0 001.4672-3.2951.5662.5662 0 00-.3931-.6924.5769.5769 0 00-.6924.3931A85.4025 85.4025 0 0110.025 16.459c-.2843.4834-.5802.9585-.8469 1.4518-.2815.5208-.5277 1.0599-.8105 1.5807-.0337.0621.0497.133.1008.0778zm5.9469-16.7734a4.1448 4.1448 0 00-.9113 1.2732 43.744 43.744 0 00-.7258 1.4302c-.4551.9417-.9037 1.8873-1.3823 2.8174a26.7356 26.7356 0 01-3.308 4.9005c-.7228.867-1.4612 1.7207-2.1742 2.5958a.5947.5947 0 000 .817.5816.5816 0 00.8169 0c1.2606-1.5976 2.6487-3.0915 3.8365-4.747a33.5024 33.5024 0 002.982-5.4545c.264-.5653.5248-1.13.7682-1.7045a4.805 4.805 0 00.511-1.757.2449.2449 0 00-.413-.171zm2.2573 7.5836a4.453 4.453 0 00-.828 1.1153c-.2296.4139-.4352.8393-.653 1.2595-.4283.8269-.8725 1.648-1.339 2.454a42.0454 42.0454 0 01-2.2927 3.5383 6.1843 6.1843 0 00-.7962 1.2189.5329.5329 0 00.776.5966 5.1409 5.1409 0 00.9854-1.142 41.9946 41.9946 0 002.3745-3.5996c.4817-.8187.9294-1.652 1.3376-2.5098.2116-.4446.416-.89.5885-1.3513a3.7122 3.7122 0 00.2683-1.4053.2499.2499 0 00-.4215-.1745h.0001zm.665 4.0029c-.5253.7823-1.0659 1.5494-1.54 2.3645-.4725.8123-.9543 1.619-1.4457 2.4205-.3123.5116.4865.975.8015.4685a70.0994 70.0994 0 001.4637-2.4644 22.958 22.958 0 001.1987-2.5875c.119-.2874-.3227-.4333-.4782-.2016zM12.882 1.471a5.446 5.446 0 00-.759 1.2112c-.2349.4384-.4584.8811-.708 1.3118-.4912.8474-1.0304 1.6697-1.591 2.4727a49.6502 49.6502 0 01-3.6615 4.5478c-.7383.8298-1.5051 1.634-2.2686 2.4406-.4592.4851.2812 1.2247.7332.7331 2.7062-2.9436 5.5379-5.8977 7.505-9.4087.2653-.4734.515-.955.7493-1.445a4.2669 4.2669 0 00.5147-1.6505.3043.3043 0 00-.514-.213zM9.8944.1026c-.2066.3885-.4248.7673-.666 1.1354-.2405.367-.4355.7662-.662 1.1424-.448.744-.9125 1.4766-1.3872 2.2038a47.0366 47.0366 0 01-3.1434 4.2c-.3228.3913-.6484.78-.9768 1.1666-.3825.3589-.7001.7811-.9389 1.248-.1348.383.3294.6626.6455.4963a3.8816 3.8816 0 00.9417-.9662c.291-.337.5803-.6755.868-1.0153.5849-.6922 1.1602-1.3926 1.7164-2.108a25.6608 25.6608 0 002.969-4.5025c.214-.4436.4258-.8936.6037-1.3531.1697-.485.3123-.9792.4271-1.48a.2182.2182 0 00-.397-.1674h-.0001zM1.419 8.8991c.21-.0551.404-.1593.5658-.304.147-.149.3022-.2948.4393-.453.2625-.3031.4986-.635.7424-.9531.497-.6697.9542-1.368 1.3694-2.0912a64.3615 64.3615 0 001.212-2.132A14.0673 14.0673 0 006.7733.7308c.051-.1531-.1741-.2946-.2805-.1633-.493.633-.9531 1.291-1.3787 1.9711a62.0378 62.0378 0 01-1.3835 2.0317c-.4733.6666-.9718 1.3215-1.4178 2.0064-.2134.3276-.4432.6464-.6499.978-.1028.165-.1897.342-.2841.512a1.5006 1.5006 0 00-.166.6754.1635.1635 0 00.2062.157z" mask="url(#server_not_found-b)"/>
      <path fill="#191849" fill-rule="nonzero" d="M.2916 5.543C1.4726 8 4.1377 9.1475 6.5936 9.9196c2.8155.8852 5.7269 1.4328 8.5592 2.2623.781.2287 1.557.475 2.3241.7464.7819.2766 1.5428.6078 2.3222.8888.2593.0934.43-.317.1874-.4446a23.1579 23.1579 0 00-3.975-1.4928c-1.367-.42-2.7518-.7802-4.1423-1.1134-1.4234-.3411-2.8527-.6589-4.2657-1.0417A23.961 23.961 0 013.6058 8.357 7.114 7.114 0 01.373 5.4955C.3432 5.4418.2656 5.489.2916 5.543zm2.9553 6.6934a24.943 24.943 0 002.7203 1.1401 39.3409 39.3409 0 002.8763.8531 47.0242 47.0242 0 005.89 1.0429c.5383.0664 1.0779.1218 1.6187.166.2783.0227.5566.0427.8355.056.3106.0405.626.028.9325-.0368a.5529.5529 0 000-1.0569 5.465 5.465 0 00-1.5224-.0792 38.9383 38.9383 0 01-1.4234-.051 27.2323 27.2323 0 01-2.8518-.2924A41.666 41.666 0 016.626 12.651c-1.0458-.3233-2.0947-.6487-3.128-1.01-.345-.1207-.5855.4361-.251.5955h-.0001zm1.9592 3.4755c.3615.1883.6966.42 1.0607.608.374.1933.7535.3752 1.1386.5459.7658.33 1.5548.6034 2.3606.8182 1.6226.438 3.2736.763 4.9412.9725.9396.1253 1.8834.3115 2.8297.3717a.5134.5134 0 00.5085-.5086.52.52 0 00-.5085-.5085c-.7996-.0821-1.6065-.0729-2.4056-.1666-.8105-.0951-1.6185-.2114-2.422-.3542a31.7554 31.7554 0 01-4.6616-1.1847c-.4289-.1458-.861-.2804-1.2861-.4373a11.5934 11.5934 0 01-1.3362-.5315c-.2476-.1291-.4676.2457-.2193.3751zm.7736-10.4306c.4075.2824.7954.5908 1.2027.871.3665.2775.748.5344 1.143.7697.8543.457 1.7244.8638 2.614 1.2468a14.143 14.143 0 002.7946.978c.4904.0973.9882.1492 1.4832.2166.4825.0657.9645.225 1.4478.2558a.6118.6118 0 00.3065-1.1317 4.5223 4.5223 0 00-1.5588-.3548c-.4333-.0571-.8686-.1-1.2986-.18a18.091 18.091 0 01-2.7115-.8828c-.8794-.3128-1.7638-.6123-2.6413-.9304-.4278-.155-.872-.2471-1.3034-.392a12.176 12.176 0 01-1.4334-.543.0445.0445 0 00-.0448.0768zM8.4842 2.161c.0931.2344.215.4564.363.6608.1887.2046.4065.3804.6462.522a10.6577 10.6577 0 001.712.9133c.6238.2644 1.2537.5136 1.8917.7416a7.886 7.886 0 002.0472.5588.4873.4873 0 00.2442-.9016c-.587-.2601-1.194-.4726-1.8151-.6355a33.0877 33.0877 0 01-1.7812-.642 58.6905 58.6905 0 00-1.7074-.6382 4.921 4.921 0 01-.6702-.2783 1.743 1.743 0 01-.6746-.4505.1482.1482 0 00-.2558.1496z" mask="url(#server_not_found-b)"/>
    </g>
    <g fill-rule="nonzero">
      <path fill="url(#server_not_found-c)" d="M16.8681 40.167a6.7521 6.7521 0 01-4.6816-1.7256c-3.541-3.207-9.0615-14.3408-10.2188-16.7226l13.9893-19.42c4.0059 10.0039 9.5313 24.2558 9.7246 26.039.248 2.2784.1094 6.75-1.9824 9.0606a9.9338 9.9338 0 01-6.831 2.7686z" transform="translate(101 54)"/>
      <path fill="#01002B" d="M116.7433 58.0452c4.4621 11.1865 8.9094 22.8578 9.0963 24.3836.3012 2.7725-.1237 6.5838-1.7686 8.4002a9.1526 9.1526 0 01-6.2035 2.4905 5.9251 5.9251 0 01-4.1118-1.5065c-2.949-2.6705-7.7202-11.739-9.8065-16.008l12.794-17.7598m.427-3.4912L101.985 75.6329s6.509 13.701 10.6333 17.436a7.6359 7.6359 0 005.2491 1.945 10.8232 10.8232 0 007.4594-3.0475c2.2408-2.4746 2.4866-7.0563 2.197-9.7206-.2896-2.6643-10.3538-27.6918-10.3538-27.6918z"/>
    </g>
    <g fill-rule="nonzero" transform="translate(99 34)">
      <path fill="#1C1C56" d="M.4664 20.211L9.2682 2.609l3.5123 1.7564-8.8018 17.602z"/>
      <path fill="#01002B" d="M9.286 2.69l3.42 1.71h-2.08zM8.449 4.363l2.172.047 1.247 1.663H9.789z"/>
      <path fill="#01002B" d="M7.618 6.025l2.172.046 1.247 1.664H8.958zM6.781 7.699l2.172.046L10.2 9.409H8.121zM5.92 9.42l2.172.047 1.247 1.663H7.26zM5.083 11.094l2.171.046 1.248 1.664H6.423z"/>
      <path fill="#01002B" d="M4.251 12.756l2.172.046 1.248 1.664-2.08-.001zM3.414 14.429l2.172.047 1.248 1.663h-2.08z"/>
      <path fill="#01002B" d="M2.592 16.073l2.172.046 1.247 1.664H3.932zM1.755 17.747l2.172.046 1.247 1.663H3.095z"/>
      <path fill="#01002B" d="M.924 19.408l2.172.047 1.247 1.663H2.264z"/>
      <rect width="5.93" height="2.33" x="8.171" y="2.099" fill="#01002B" rx=".686" transform="rotate(26.574 11.136 3.264)"/>
    </g>
    <g fill-rule="nonzero" transform="translate(46 34)">
      <path fill="#1C1C56" d="M1.9085 4.3654L5.4208 2.609l8.8018 17.602-3.5123 1.7564z"/>
      <path fill="#01002B" d="M5.402 2.69L1.983 4.4h2.079zM6.239 4.363l-2.172.047L2.82 6.073h2.079z"/>
      <path fill="#01002B" d="M7.07 6.025l-2.172.046-1.247 1.664H5.73zM7.907 7.699l-2.171.046-1.248 1.664h2.079zM8.768 9.42l-2.171.047-1.248 1.663h2.08zM9.606 11.094l-2.172.046-1.248 1.664h2.08z"/>
      <path fill="#01002B" d="M10.437 12.756l-2.172.046-1.247 1.664 2.079-.001zM11.274 14.429l-2.172.047-1.247 1.663h2.079z"/>
      <path fill="#01002B" d="M12.096 16.073l-2.172.046-1.247 1.664h2.079zM12.933 17.747l-2.172.046-1.247 1.663h2.079z"/>
      <path fill="#01002B" d="M13.764 19.408l-2.171.047-1.248 1.663h2.079z"/>
      <rect width="5.93" height="2.33" x=".587" y="2.099" fill="#01002B" rx=".686" transform="rotate(153.426 3.552 3.264)"/>
    </g>
    <g transform="translate(25.496 89.816)">
      <mask id="server_not_found-e" fill="#fff">
        <use xlink:href="#server_not_found-d"/>
      </mask>
      <use fill="#01002B" fill-rule="nonzero" xlink:href="#server_not_found-d"/>
      <path fill="#191849" fill-rule="nonzero" d="M9.11 19.4427c-.5166-.896-.9894-1.8053-1.5415-2.681-.5518-.8752-1.1003-1.7527-1.6245-2.6447-1.0409-1.771-2.0412-3.5723-2.9606-5.4094a68.37 68.37 0 01-1.482-3.1603.5667.5667 0 00-.77-.202.5766.5766 0 00-.202.7701 57.1751 57.1751 0 006.1711 10.767c.3407.4593.679.9204 1.0574 1.3494.395.4476.8346.8611 1.2513 1.2888a.0645.0645 0 00.1008-.0778zM2.2277 3.0814a4.2418 4.2418 0 00.463 1.5488c.2294.5051.4644 1.0052.712 1.5017.4672.9367.9263 1.8779 1.4271 2.7972a27.949 27.949 0 003.5715 5.0131c.7532.8624 1.5284 1.7058 2.2605 2.5864a.582.582 0 00.817 0 .5894.5894 0 000-.817c-1.281-1.4925-2.663-2.9086-3.8483-4.481a35.6664 35.6664 0 01-3.0677-5.2375c-.277-.5375-.553-1.074-.8495-1.601a4.877 4.877 0 00-1.0726-1.4818c-.1493-.1215-.4241-.057-.413.1711zM.157 10.724c-.0048.245.0157.4898.0613.7306a4.414 4.414 0 00.2214.6167c.1802.4582.3928.8984.615 1.3374.4362.8616.912 1.6972 1.4227 2.5168a42.0507 42.0507 0 002.4542 3.5228c.2825.4278.627.8113 1.0222 1.1379a.532.532 0 00.6402-.0826.553.553 0 00.0826-.6402 6.2667 6.2667 0 00-.8272-1.1474 41.8605 41.8605 0 01-2.3497-3.443c-.478-.781-.935-1.577-1.3768-2.3789a8.5008 8.5008 0 00-1.5445-2.3447.2499.2499 0 00-.4215.1746zm-.594 4.1094a22.6034 22.6034 0 001.2583 2.53c.4856.805.9862 1.6003 1.502 2.3858.3266.4963 1.1274.036.8015-.4685a145.9985 145.9985 0 01-1.5072-2.3827C1.1217 16.0935.561 15.3394.015 14.569a.2619.2619 0 00-.452.2642zM3.6265 1.7607a4.1172 4.1172 0 00.4653 1.4648c.1987.4342.4422.854.68 1.2675A24.9463 24.9463 0 006.4 6.9714a50.6754 50.6754 0 003.948 4.6058c.782.8222 1.5671 1.6415 2.3553 2.4577.4645.4801 1.2049-.2595.7331-.7331a53.7397 53.7397 0 01-7.5584-8.9352 25.3913 25.3913 0 01-.8227-1.392 6.1576 6.1576 0 00-.9147-1.4269.3044.3044 0 00-.5141.213zM6.6924.27c.1216.4195.253.8368.3871 1.2525.152.42.3346.8284.5464 1.2217a17.711 17.711 0 001.38 2.3119 49.0749 49.0749 0 003.3901 4.2284c.3253.3686.6532.7347.9839 1.0985.175.1931.3497.3867.5274.5774.1637.2135.3645.3958.5927.5382.308.1522.794-.1078.6455-.4962a3.9028 3.9028 0 00-.8417-1.0882 145.09 145.09 0 01-.8863-1.0003c-.5774-.6591-1.1463-1.3258-1.6982-2.0064A50.0103 50.0103 0 018.6774 2.658c-.274-.4212-.5235-.8558-.789-1.282-.2657-.4264-.551-.8347-.7988-1.2734a.2182.2182 0 00-.397.1674h-.0001zm9.2883 8.2031a2.7703 2.7703 0 00-.0346-.3646 1.3765 1.3765 0 00-.162-.3002c-.0986-.1672-.191-.34-.3-.5006-.2284-.3368-.4682-.667-.701-1.0009-.4586-.6576-.9632-1.287-1.4434-1.9294a63.3838 63.3838 0 01-1.4069-1.9583A23.4644 23.4644 0 0010.5022.4785a.169.169 0 00-.2806.1633 23.1557 23.1557 0 002.3432 4.302 21.6442 21.6442 0 001.4122 2.0467c.254.316.5016.6443.7743.9444.1306.1437.2774.2746.4171.4093.0646.0734.1377.1387.2177.1948.1277.0552.2595.1002.3942.1345.1305.0485.2158-.0912.2004-.2004z" mask="url(#server_not_found-e)"/>
      <path fill="#191849" fill-rule="nonzero" d="M16.7032 5.2207c-1.3429 2.4027-4.1417 3.3239-6.6227 4.0583-2.7553.8158-5.566 1.4251-8.3032 2.3044-.7588.2438-1.5122.5047-2.2565.7898-.8003.2653-1.571.613-2.2995 1.0374-.4416.288-.1732 1.055.3728.8844.7048-.2202 1.3845-.563 2.0729-.8325.6804-.2664 1.3687-.5121 2.062-.7426 1.4044-.4667 2.8295-.8696 4.2541-1.2694 1.4199-.3985 2.8521-.7684 4.249-1.2433.6913-.235 1.3763-.489 2.0488-.7737a11.9876 11.9876 0 001.8348-1.005 6.9964 6.9964 0 002.759-3.1355c.0412-.0991-.1206-.1633-.1715-.0723zm-2.919 6.2456c-.9044.3427-1.8232.6469-2.7363.965a39.3037 39.3037 0 01-2.7832.855 33.7977 33.7977 0 01-5.6824 1.076 39.0224 39.0224 0 01-1.6427.1133c-.2582.0123-.5167.0222-.775.0326a3.1503 3.1503 0 00-.9217.0898.553.553 0 000 1.057 4.489 4.489 0 001.5515-.0384c.4992-.0508.997-.1124 1.4941-.1805.975-.1336 1.9477-.3016 2.9154-.4805a37.5067 37.5067 0 005.7153-1.5331 26.117 26.117 0 003.1161-1.3606c.324-.1647.0973-.7276-.251-.5956zm-1.8354 3.7435a10.7849 10.7849 0 01-1.137.4925c-.3721.1526-.749.2927-1.1286.4253-.7645.267-1.5256.5368-2.3027.7661A35.7343 35.7343 0 012.65 17.917c-.9073.1385-1.8233.1622-2.7321.279a.525.525 0 00-.5085.5086c.002.28.2285.5064.5085.5085.839-.075 1.664-.2655 2.496-.391.8383-.1265 1.6737-.2734 2.5032-.4487a26.3922 26.3922 0 004.75-1.4307c.43-.1799.8468-.3948 1.2574-.6147.428-.2293.8214-.509 1.2434-.7428.2447-.1356.0258-.511-.2192-.3752zm-.862-10.1113a12.191 12.191 0 01-1.4138.5783c-.4259.1554-.866.2584-1.288.4238-.883.3461-1.7736.6738-2.659 1.0143a17.6998 17.6998 0 01-2.6414.934c-.4506.0956-.9078.154-1.3626.2247a4.312 4.312 0 00-1.4822.3796c-.4926.2858-.3138 1.1874.3065 1.1316.505-.0454 1.0063-.2183 1.5097-.2996.4864-.0786.976-.1425 1.4565-.2542a14.1858 14.1858 0 002.678-1.0143c.866-.3992 1.7134-.8183 2.5439-1.2874.42-.26.825-.5439 1.213-.85.4015-.2915.7827-.6103 1.1842-.904a.0445.0445 0 00-.0448-.0768zM8.2913 1.9734a1.7312 1.7312 0 01-.6591.4671 4.9005 4.9005 0 01-.6564.2955 60.9327 60.9327 0 00-1.752.7076 30.3676 30.3676 0 01-1.7014.6612 12.0013 12.0013 0 00-1.801.6792c-.3999.221-.2445.9488.2442.9016a7.5581 7.5581 0 001.9381-.5715 35.161 35.161 0 001.9217-.802c.587-.2641 1.1496-.579 1.6816-.9412a3.8544 3.8544 0 00.6457-.5192 2.5247 2.5247 0 00.3944-.7288.1482.1482 0 00-.2558-.1495z" mask="url(#server_not_found-e)"/>
    </g>
    <g fill-rule="nonzero">
      <path fill="url(#server_not_found-f)" d="M9.6191 40.3359a10.0093 10.0093 0 01-7.3095-3.4404c-1.8633-2.4961-1.5782-6.962-1.1163-9.207.3614-1.7569 7.211-15.421 12.1456-25.002l12.0888 20.6572C24.0497 25.6054 17.5 36.1669 13.671 39.0243A6.622 6.622 0 019.62 40.336h-.001z" transform="translate(29 55)"/>
      <path fill="#01002B" d="M42.3862 59.446L53.442 78.337c-2.481 4.0523-8.0893 12.6286-11.2776 15.008a5.794 5.794 0 01-3.5458 1.1438 9.0773 9.0773 0 01-6.6301-3.0996c-1.4656-1.964-1.5278-5.7984-.9658-8.5284.3306-1.5027 5.8626-12.7008 11.3636-23.4148m-.0946-3.516S29.904 79.8926 29.3634 82.5176c-.5405 2.625-.7295 7.2093 1.267 9.8849a10.799 10.799 0 007.988 3.7806 7.4828 7.4828 0 004.5592-1.4803c4.4592-3.3277 12.2358-16.3513 12.2358-16.3513L42.2916 55.93z"/>
    </g>
    <g fill-rule="nonzero">
      <path fill="url(#server_not_found-g)" d="M41.8642 86.2246c-12.2324 0-32.372-8.6114-36.6806-10.5186l7.5136-15.4931a1.5543 1.5543 0 00.1534-.6739c-.003-1.5146-.044-9.29-.502-13.8574-.4541-4.543-5.792-26.4482-11.0498-31.461C5.075 11.8653 22.286 1.5737 34.6474 1.5737c20.5107 0 36.333 5.7784 41.4316 11.5103-1.5214 4.5898-8.7539 26.5479-9.6699 32.044a93.438 93.438 0 00-1.0058 14.5723c0 1.0615 2.583 6.4765 7.6767 16.0967-3.374 1.9111-19.0986 10.4277-31.2158 10.4277z" transform="translate(41 42)"/>
      <path fill="#01002B" d="M75.6477 44.4207c14.7323 0 33.6976 3.8056 40.4707 10.8697-1.8088 5.4662-8.6464 26.3074-9.5448 31.6986a94.1672 94.1672 0 00-1.0185 14.7108c0 .5322.0003 1.7645 7.3895 15.7619-4.4489 2.457-18.8798 9.9155-30.0807 9.9155-11.4312 0-29.9745-7.6742-35.5334-10.0926l7.1281-14.7016a2.4027 2.4027 0 00.2394-1.0476c-.0037-1.5192-.045-9.331-.5059-13.9388-.455-4.5492-5.345-24.8107-10.5769-31.1917 5.0122-3.05 20.6676-11.9842 32.0325-11.9842m0-1.6943c-12.669 0-29.94 10.3542-33.971 12.8843a.6936.6936 0 00-.0874 1.1077c5.0233 4.4938 10.4438 26.3158 10.9169 31.0468.4585 4.5847.4945 12.5481.4974 13.7743a.6934.6934 0 01-.0695.3043l-7.581 15.636a.6926.6926 0 00.341.9365c3.9217 1.7423 24.597 10.6553 37.1698 10.6553 12.47 0 28.527-8.768 31.7646-10.6112a.6924.6924 0 00.2706-.9268c-1.4736-2.7819-7.6496-14.5188-7.6496-15.8337a96.3743 96.3743 0 01.9953-14.4323c.926-5.5558 8.6015-28.7909 9.667-32.0026a.6845.6845 0 00-.1302-.6665c-7.2095-8.2497-27.872-11.872-42.134-11.872z"/>
    </g>
    <g fill-rule="nonzero">
      <path fill="url(#server_not_found-h)" d="M44.917 51.9912C41.292 47.5127 13.3594 13.25 2.378 7.0762l8.6826-5.21c4.0498 3.7402 33.2841 30.8925 43.8173 44.6308l1.755 2.457-11.7159 3.0372z" transform="translate(41 49)"/>
      <path fill="#01002B" d="M51.952 51.9193c5.4268 5.026 33.0681 30.8192 43.2358 44.0705l1.0385 1.4539-9.9956 2.5914c-2.2265-2.7369-9.5458-11.665-17.64-20.795-4.2829-4.8307-16.2132-18.2872-23.583-23.1542l6.9443-4.1666m.217-2.106l-10.5893 6.3535c9.9534 3.4837 44.0214 45.7819 44.0214 45.7819l13.4368-3.4837-2.4882-3.4837c-11.4463-14.93-44.3808-45.168-44.3808-45.168z"/>
    </g>
    <g fill-rule="nonzero">
      <path fill="url(#server_not_found-i)" d="M1.8555 48.538l1.7714-2.4805C14.1933 32.2763 44.0117 4.8285 47.8838 1.2817c1.1836.5478 4.0947 1.9125 5.0332 2.515a40.2446 40.2446 0 013.1963 2.5304c-2.5127 1.251-8.3956 5.8183-23.5137 22.8779-8.92 10.0654-17.2549 20.206-19.0264 22.371L1.8554 48.538z" transform="translate(60 48)"/>
      <path fill="#01002B" d="M108.0399 50.2882c1.4864.694 3.6819 1.7477 4.4195 2.2214.5032.3231 1.3608 1.0055 2.196 1.6984-3.4354 2.1455-9.7636 7.8488-22.6902 22.4355-8.4463 9.5311-16.3699 19.1305-18.7041 21.9767l-10.0006-2.5928 1.0387-1.4543c10.2376-13.3418 38.5295-39.5008 43.7407-44.2849m-.3128-2.0108s-33.3436 30.3577-44.79 45.2877l-2.4882 3.4836 13.437 3.4837s36.9476-45.4245 43.9365-45.848c0 0-3.1187-2.7472-4.4474-3.6004-1.248-.8014-5.6478-2.8066-5.6478-2.8066z"/>
    </g>
    <g fill-rule="nonzero">
      <path fill="url(#server_not_found-j)" d="M29.542 16.6357a66.0696 66.0696 0 01-27.6895-6.4805l-.1708-8.3994c3.7734 1.9375 15.2158 7.171 28.708 7.171A42.9285 42.9285 0 0054.7421 1.784l-.3379 8.4473c-1.834 1.1563-10.9317 6.4043-24.8623 6.4043z" transform="translate(52 91)"/>
      <path fill="#01002B" d="M54.5564 94.1355c4.747 2.2808 15.438 6.6383 27.8327 6.6383a43.9506 43.9506 0 0023.4413-6.3974l-.2547 6.3691c-2.4171 1.4492-11.1028 6.0433-24.0342 6.0433a64.9982 64.9982 0 01-26.8532-6.1829l-.132-6.4704m53.1004-3.024a42.0287 42.0287 0 01-25.2676 7.968c-16.1657 0-29.5848-7.7563-29.5848-7.7563l.2118 10.3775a66.8405 66.8405 0 0028.5254 6.7824c16.0625 0 25.6916-6.7824 25.6916-6.7824l.4236-10.5893z"/>
    </g>
    <path fill="#000" fill-rule="nonzero" d="M90.7943 43.8578c-.0422.0488-.0868.0975-.1291.1483-1.328 1.5503 5.8389 4.2018 4.3331 5.5763-4.3894 4.0065-8.5892 8.2936-13.2805 11.9512a59.1008 59.1008 0 01-14.843 8.607c-5.61 2.1787-11.75 2.6588-17.2537 5.1101-2.1368-7.5459-5.1823-15.9728-8.0943-18.5756a.697.697 0 01.0868-1.1098c4.0324-2.5287 21.3035-12.8829 33.9724-12.8829a104.4847 104.4847 0 0115.2083 1.1754z" opacity=".2"/>
    <path fill="url(#server_not_found-k)" d="M80.4476 23.6615a1.324 1.324 0 00-.589.1278C77.8757 10.3728 69.03.2555 58.4164.2555c-10.5991 0-19.4354 10.0895-21.4346 23.4787a1.2863 1.2863 0 00-.4515-.0727c-1.524.0379-2.69 2.8679-2.6043 6.321.0831 3.3496 1.8904 6.982 3.3897 7.1623C39.831 49.578 48.3243 58.7256 58.4163 58.7256c10.0904 0 18.5823-9.1445 21.0994-21.5745l.0084.0009c1.524.0378 3.442-3.7163 3.5278-7.1695.0858-3.4532-1.0803-6.2831-2.6043-6.321z" transform="translate(21)"/>
    <path fill="url(#server_not_found-l)" d="M58.4986.258c-.0276-.0001-.0548-.0025-.0823-.0025-10.5991 0-19.4354 10.0895-21.4346 23.4787a1.2863 1.2863 0 00-.4515-.0727c-1.524.0379-2.69 2.8679-2.6043 6.321.0831 3.3497 1.8904 6.982 3.3897 7.1623C39.831 49.578 48.3243 58.7257 58.4163 58.7257c.0275 0 .0547-.0022.0823-.0023V.258z" transform="translate(21)"/>
    <path fill="#EEBDAA" d="M96.288 24.7714c-1.9335-2.2686-5.4123-2.4144-8.1629-2.5436H71.2437c-2.7505.1292-6.2293.275-8.1629 2.5436-1.6068 1.8853-1.8644 5.5989-1.5433 7.9457.317 2.3164 1.7569 5.34 4.2924 5.7614a6.1716 6.1716 0 001.5738.0094 18.7034 18.7034 0 004.9034-.979c1.4728-.5648 2.8345-1.3918 4.3404-1.8749a7.6707 7.6707 0 011.7418-.3424c.597-.0468 1.1985-.0262 1.7967-.0237l.1097.0005a8.175 8.175 0 011.7402.1803c.2312.0512.4597.113.6855.1853 1.5058.483 2.8676 1.3101 4.3403 1.8749a18.7037 18.7037 0 004.9035.979 6.1716 6.1716 0 001.5738-.0094c2.5355-.4215 3.9753-3.445 4.2924-5.7614.3211-2.3468.0635-6.0604-1.5434-7.9457z"/>
    <path fill="url(#server_not_found-m)" d="M58.705 22.2282v13.0352c-.4398-.0027-.8797-.0054-1.3168.0268a7.7287 7.7287 0 00-1.7407.3433c-1.5074.4828-2.8672 1.3089-4.3397 1.8748a18.7405 18.7405 0 01-4.9056.979 6.1656 6.1656 0 01-1.5717-.008c-2.5373-.4238-3.975-3.4466-4.294-5.7639-.3192-2.3468-.0618-6.0589 1.5448-7.9444 1.9338-2.2691 5.4125-2.414 8.1617-2.5428h8.462z" transform="translate(21)"/>
    <path fill="#01002B" fill-rule="nonzero" d="M86.5172 25.9302c.2753.1015.5638.1626.8566.1816.2964.0355.5934.0663.8897.1036.5906.0743 1.1905.1405 1.7742.2592l.0642-.6975c-.302-.0583-.6043-.1089-.9054-.1737a6.2832 6.2832 0 00-.8783-.1425 12.4877 12.4877 0 00-1.9894.1253l.2015.6455a5.4521 5.4521 0 013.6433-.432.3583.3583 0 00.3875-.322.3647.3647 0 00-.3221-.3875 6.3412 6.3412 0 00-3.9975.5233.3408.3408 0 00-.1784.4099.3474.3474 0 00.3798.2356l.9622-.058a6.287 6.287 0 01.9047-.0247c.5828.0485 1.1452.2672 1.7279.2983.4495.024.5152-.6694.0642-.6975-.5953-.0372-1.1889-.1087-1.7844-.1478-.2979-.0196-.5963-.0399-.8946-.0506a2.7675 2.7675 0 00-.8794.061.1522.1522 0 00-.0263.2905zm-13.9489.071a3.0449 3.0449 0 01-.8565.1815c-.2965.0355-.5934.0663-.8897.1036-.5907.0743-1.1906.1405-1.7742.2592l-.0643-.6975c.302-.0583.6044-.1089.9055-.1737a6.2828 6.2828 0 01.8783-.1425 12.4877 12.4877 0 011.9894.1253l-.2015.6455a5.4521 5.4521 0 00-3.6433-.432.3583.3583 0 01-.3875-.3221.3647.3647 0 01.3221-.3875 6.3412 6.3412 0 013.9975.5234.3408.3408 0 01.1784.4098.3474.3474 0 01-.3799.2357l-.962-.058a6.2883 6.2883 0 00-.9049-.0247c-.5827.0485-1.1451.2672-1.7278.2983-.4496.024-.5152-.6694-.0643-.6975.5953-.0372 1.189-.1087 1.7845-.1479.2979-.0195.5963-.0398.8946-.0505a2.7672 2.7672 0 01.8794.0609.1522.1522 0 01.0262.2906z"/>
    <g transform="translate(50.68 122.696)">
      <mask id="server_not_found-o" fill="#fff">
        <use xlink:href="#server_not_found-n"/>
      </mask>
      <use fill="#01002B" fill-rule="nonzero" xlink:href="#server_not_found-n"/>
      <path fill="#191849" fill-rule="nonzero" d="M26.1732 25.4074c.4682-.2168.999-.2989 1.4791-.501.462-.1945.9322-.3826 1.3728-.6224.8884-.4836 1.7578-.9976 2.5982-1.5606a42.6651 42.6651 0 004.8205-3.7553 33.4176 33.4176 0 002.4293-2.4341c.466-.5163-.2801-1.2751-.768-.768a48.7236 48.7236 0 01-4.3781 4.0587 46.7705 46.7705 0 01-4.8823 3.4331c-.4759.2944-.9377.6062-1.406.9127-.453.353-.9255.6805-1.415.9811-.1719.0863-.0213.3349.1495.2558zm-7.2527-.8312c.764-.3102 1.5307-.6133 2.2947-.9238.7746-.3147 1.5214-.6753 2.2675-1.0523 1.4783-.747 2.9038-1.5765 4.3087-2.4535a77.7616 77.7616 0 008.144-5.816 76.8184 76.8184 0 004.2348-3.7423c.5167-.4935-.2603-1.264-.782-.782a91.6726 91.6726 0 01-7.5496 6.2724c-2.6495 1.967-5.433 3.7048-8.2477 5.421-.7778.4742-1.5758.9159-2.344 1.4047-.7945.5056-1.5959.993-2.4214 1.4462-.1193.0656-.0369.2792.0951.2256zm-4.628-1.5077c1.725-.7358 3.4432-1.4846 5.1334-2.2977a52.2242 52.2242 0 004.8571-2.78 99.7844 99.7844 0 009.1916-6.4846c.8122-.642 1.6147-1.296 2.4075-1.962a14.6395 14.6395 0 002.3581-2.2187c.3426-.4532-.3098-1.0144-.7498-.7498a16.8956 16.8956 0 00-2.1916 1.7885 110.5084 110.5084 0 01-2.1238 1.7843 100.863 100.863 0 01-4.3403 3.3556c-3.0007 2.1924-6.1116 4.2395-9.2996 6.1488-.8873.5313-1.743 1.1182-2.623 1.6623-.8931.5522-1.7847 1.0988-2.6994 1.6169-.091.0516-.011.1751.0797.1364zm-6.2807-1.3628a51.6103 51.6103 0 005.6266-2.3723 56.0389 56.0389 0 005.3097-3.0887c3.4334-2.2157 6.794-4.5658 10.0896-6.9812.9443-.692 1.8776-1.4 2.7868-2.1378a19.207 19.207 0 002.5431-2.3852.5237.5237 0 00-.74-.7401c-1.5798 1.26-3.096 2.59-4.7194 3.7967-1.6231 1.2065-3.2816 2.3662-4.9303 3.5373-1.661 1.1798-3.3305 2.348-5.0272 3.476-1.6819 1.1179-3.3992 2.1705-5.1065 3.2475-1.9265 1.2153-3.8926 2.3976-5.9275 3.4222-.1234.0621-.0374.2732.095.2256zM.8612 21.057c.9907-.3445 1.9816-.6931 2.9638-1.0611.9984-.374 1.9608-.8154 2.9186-1.2831a60.0917 60.0917 0 005.5164-3.1028A99.3651 99.3651 0 0022.5436 8.101c1.8354-1.5079 3.6922-3.0268 5.405-4.674a.6172.6172 0 00-.8728-.8728c-1.6244 1.3398-3.1811 2.7618-4.802 4.1071-1.5913 1.3208-3.2097 2.6092-4.866 3.8476-1.6832 1.2587-3.3992 2.4785-5.1537 3.636-1.7374 1.1461-3.525 2.208-5.331 3.2415-1.0068.5762-2.0398 1.1034-3.0492 1.674-1.036.5854-2.085 1.135-3.1686 1.627-.2077.0942-.0603.4451.156.37v-.0002zM.7551 15.479a43.7576 43.7576 0 004.6868-2.0523c1.4985-.8365 2.9515-1.738 4.3708-2.7026 2.8542-1.9398 5.5667-4.071 8.2338-6.2585A440.3394 440.3394 0 0022.5279.7399a.632.632 0 000-.8868.6407.6407 0 00-.8868 0c-2.5905 2.1617-5.1833 4.3223-7.8598 6.3776-2.6876 2.064-5.4398 4.0441-8.2933 5.8734-1.613 1.034-3.166 2.1865-4.8433 3.1132-.138.0763-.0424.3248.1104.2617zM5.883 5.428a46.6795 46.6795 0 004.4896-3.3716 27.8155 27.8155 0 003.8472-4.0918.5863.5863 0 000-.803.5726.5726 0 00-.803 0C12.2134-1.4237 10.938-.069 9.6666 1.2841a43.4982 43.4982 0 01-4.0469 3.8026c-.1898.1563.0584.477.2633.3412z" mask="url(#server_not_found-o)" opacity=".4"/>
      <path fill="#191849" fill-rule="nonzero" d="M13.9435 23.6616a25.6943 25.6943 0 00-1.377-2.809c-.527-.8792-1.1123-1.718-1.7126-2.5485a60.995 60.995 0 00-3.9047-4.8569 25.0797 25.0797 0 00-2.4761-2.471.42.42 0 00-.5935.5934c1.3176 1.5726 2.742 3.0501 4.0438 4.6378 1.2854 1.5677 2.4567 3.2075 3.6585 4.8378.6903.9365 1.4327 1.8257 2.1398 2.746a.1285.1285 0 00.2217-.1297zm5.9988.3565a34.3398 34.3398 0 00-2.0992-4.0244c-.7827-1.2576-1.6203-2.475-2.497-3.6688a73.156 73.156 0 00-5.6826-6.8711 47.0253 47.0253 0 00-3.6595-3.539c-.4441-.3795-1.0696.2223-.6493.6494 2.0778 2.1114 4.163 4.2127 6.0985 6.458 1.9301 2.2394 3.6938 4.6016 5.3941 7.0183.4808.6835.9532 1.3713 1.4411 2.0497.4889.6799.9959 1.3464 1.4834 2.0275a.0988.0988 0 00.1705-.0996zm4.4325-1.588a39.9397 39.9397 0 00-2.6808-6.051 46.7988 46.7988 0 00-3.643-5.5991A65.181 65.181 0 008.6248.8616 56.6429 56.6429 0 002.37-3.9335c-.4354-.2796-.9752.3919-.5624.729C3.5847-1.7538 5.426-.384 7.196 1.0764c1.7705 1.461 3.4916 2.9885 5.1343 4.5921A57.9848 57.9848 0 0120.771 15.964a48.0105 48.0105 0 013.5316 6.4966c.0179.0407.0872.0117.0723-.0305zm4.6321.3034a2908.0184 2908.0184 0 00-2.3688-5.3903c-.7866-1.7926-1.6868-3.5448-2.589-5.2816a76.7338 76.7338 0 00-6.1753-9.9247 48.7535 48.7535 0 00-4.2231-5.1005c-.4636-.4801-1.1575.2328-.7262.7261a76.6277 76.6277 0 016.9499 9.201c2.0924 3.278 3.9866 6.6964 5.7907 10.1401.5037.9615 1.057 1.8966 1.5507 2.8635.5.9792.9948 1.9612 1.4842 2.9458.1036.208.3968.0257.307-.1794zm3.0962 1.639A2.4507 2.4507 0 0132.03 23.7a3.7742 3.7742 0 00-.0119-.4926 9.8138 9.8138 0 00-.1575-1.175 90.4352 90.4352 0 00-.4505-2.1798c-.3244-1.4775-.7586-2.9366-1.2162-4.3775a55.2367 55.2367 0 00-3.0691-8.0213 20.3505 20.3505 0 00-1.1288-1.9785 5.1945 5.1945 0 00-1.586-1.8047c-.2689-.1533-.6921.107-.5657.4349A9.3591 9.3591 0 0024.9218 5.84c.3682.5576.708 1.1333 1.0183 1.725a34.876 34.876 0 011.6445 3.673c1.0641 2.7436 1.98 5.5478 2.808 8.3712.2367.8077.4993 1.6077.7347 2.416.1137.3906.2272.7736.3767 1.1522.0677.1713.1273.3468.2114.5109.118.2272.2036.4698.2543.7207.0187.087.152.0502.1333-.0367z" mask="url(#server_not_found-o)" opacity=".4"/>
    </g>
    <g fill-rule="nonzero">
      <path fill="url(#server_not_found-p)" d="M27.1406 32.9853a18.5485 18.5485 0 01-2.1865-.1348 31.2219 31.2219 0 01-11.2471-3.9804c-3.2178-1.755-6.872-3.874-9.5068-6.8194a11.4785 11.4785 0 01-3.1388-7.9404 11.9258 11.9258 0 011.8868-5.8076C6.6894 2.2548 12.836.9853 17.333.9853a34.6058 34.6058 0 0115.041 3.8643 44.3914 44.3914 0 011.6455.8799c3.4805 1.957 5.6797 4.4033 6.7217 7.4794a11.848 11.848 0 01.621 3.9532 19.0103 19.0103 0 01-3.4325 9.9502 13.2622 13.2622 0 01-5.5293 4.8554 12.9813 12.9813 0 01-5.2598 1.0176z" transform="translate(21 110)"/>
      <path fill="#01002B" d="M38.3345 110.2422v1.4864a33.8483 33.8483 0 0114.7028 3.783 43.213 43.213 0 011.6166.8648c3.3154 1.8646 5.4036 4.1776 6.3837 7.0713a11.1333 11.1333 0 01.5813 3.7068 18.264 18.264 0 01-3.3054 9.5438 12.532 12.532 0 01-5.2127 4.5893 12.2405 12.2405 0 01-4.9591.9538 17.787 17.787 0 01-2.0989-.1288 30.485 30.485 0 01-10.9795-3.8955c-3.1642-1.7254-6.754-3.8053-9.3093-6.662a10.7415 10.7415 0 01-2.95-7.421 11.1706 11.1706 0 011.7768-5.44c3.5604-5.7567 9.444-6.9653 13.7525-6.9655l.0011-1.4863m-.0012 0c-5.9342 0-11.5549 2.073-15.0166 7.67a12.6525 12.6525 0 00-1.9985 6.1743 12.1967 12.1967 0 003.3281 8.4595c2.6482 2.9605 6.249 5.0911 9.7056 6.9759a32.3633 32.3633 0 0011.5148 4.0664c.755.0914 1.5146.138 2.2751.1393a13.7446 13.7446 0 005.5587-1.08 14.0578 14.0578 0 005.8468-5.1205 19.7205 19.7205 0 003.5579-10.3561 12.5764 12.5764 0 00-.6598-4.2003 14.4959 14.4959 0 00-7.0628-7.89 44.929 44.929 0 00-1.6724-.8946 35.2435 35.2435 0 00-15.3769-3.944z"/>
    </g>
    <path fill="#01002B" fill-rule="nonzero" d="M86.4737 143.7278l-6.2292-7.807a.819.819 0 00-.9712-.2391c-3.5418 1.5627-22.2166 9.803-23.2766 10.2872-1.1713.535.1507 2.6484 1.9233 2.661 4.3948.031 14.7303-1.2489 17.5786-.1868 3.1882 1.1888 10.975-4.7153 10.975-4.7153z"/>
    <g transform="translate(71.98 122.088)">
      <mask id="server_not_found-r" fill="#fff">
        <use xlink:href="#server_not_found-q"/>
      </mask>
      <use fill="#01002B" fill-rule="nonzero" xlink:href="#server_not_found-q"/>
      <path fill="#191849" fill-rule="nonzero" d="M10.4837 27.0565a14.1951 14.1951 0 01-1.3288-.7758c-.439-.2357-.8676-.4905-1.3134-.713-.8814-.44-1.7477-.913-2.6047-1.3986a41.0235 41.0235 0 01-4.9202-3.2696 55.169 55.169 0 01-2.5984-2.1465c-.521-.458-1.2823.2862-.768.768a37.4525 37.4525 0 0010.1506 6.7746 16.5366 16.5366 0 001.6385.6236c.5455.1793 1.1327.2284 1.6657.4229.1812.0661.2522-.216.0788-.2857zm7.1397-1.3857c-.7512-.3337-1.4858-.694-2.2154-1.0726-.7178-.3726-1.4471-.717-2.1733-1.073-1.4839-.7277-2.9691-1.4588-4.4295-2.2327A87.7226 87.7226 0 01.4013 16.184a85.8822 85.8822 0 01-4.459-3.262.5711.5711 0 00-.782 0 .557.557 0 000 .782 74.0538 74.0538 0 008.2058 5.7547 66.9228 66.9228 0 008.88 4.6115c.8452.3505 1.6933.7123 2.566.9882.9034.2855 1.8115.5565 2.7163.8381.1307.0407.2247-.168.095-.2256zm4.4748-1.8007c-1.6821-.7745-3.3264-1.623-4.9572-2.5005-1.623-.8732-3.293-1.661-4.9177-2.5337a110.1102 110.1102 0 01-9.5272-5.7392A103.7065 103.7065 0 01.1707 11.336c-.4226-.3042-.8448-.609-1.2665-.9147a9.2973 9.2973 0 00-1.3343-.887.5506.5506 0 00-.6641.8606 7.366 7.366 0 001.1273.9568c.3667.2741.7337.5483 1.1065.814a103.745 103.745 0 007.0128 4.5808 90.8033 90.8033 0 009.967 5.1571c.9527.4193 1.9483.7566 2.929 1.1048.9891.3513 1.9918.6766 2.989 1.0062.0836.0276.1428-.1066.0608-.1444zm6.1265-1.9837c-1.8747-.7543-3.696-1.647-5.4977-2.5604-1.8136-.9194-3.6209-1.8438-5.4078-2.8145-3.5677-1.938-7.0714-4.016-10.5354-6.1332C5.8214 9.79 4.8683 9.186 3.9362 8.5507 2.9806 7.8993 2.0515 7.2142 1.09 6.5714c-.4995-.3338-1.0518.41-.6342.822a28.2724 28.2724 0 005.0219 3.664c1.7329 1.0796 3.4988 2.1068 5.2638 3.1327 1.7772 1.033 3.5617 2.0539 5.37 3.0314A59.6021 59.6021 0 0021.63 19.932c1.0585.4375 2.126.8724 3.2165 1.2245 1.093.3529 2.2031.6713 3.3126.9679.1574.042.2094-.1802.0657-.238zm7.1069-1.3975c-.9959-.3552-1.9678-.7557-2.931-1.1917-.9385-.4248-1.8877-.8242-2.826-1.2496-1.899-.8608-3.7797-1.7684-5.6182-2.752a111.953 111.953 0 01-10.7116-6.5924c-1.9454-1.3418-3.8186-2.7845-5.7601-4.1297-.5695-.3946-1.2938.526-.748.9692 1.6559 1.3446 3.4202 2.5709 5.1677 3.7928 1.7344 1.2128 3.4946 2.3891 5.288 3.513a72.5119 72.5119 0 0011.2384 5.89 34.6526 34.6526 0 003.3441 1.2158c1.143.33 2.2966.6295 3.449.925a.2026.2026 0 00.1077-.3904zm-.3527-5.4378c-1.5456-.6917-2.9751-1.6036-4.4783-2.3796-1.5095-.7792-2.9973-1.6092-4.4654-2.4638-2.9369-1.7096-5.7921-3.5638-8.6016-5.4743-1.5976-1.0864-3.1787-2.197-4.7603-3.3065a.6325.6325 0 00-.8579.225.6402.6402 0 00.225.8578C14.8347 4.4788 17.629 6.451 20.493 8.318a72.1057 72.1057 0 008.9336 5.0604 26.6603 26.6603 0 002.681 1.0725c.9131.31 1.842.5696 2.7609.862.1516.0483.2601-.1946.1103-.2617zm-5.8453-9.7067a42.9442 42.9442 0 01-4.3222-3.431c-1.3666-1.2323-2.7385-2.4636-4.0442-3.761-.5208-.5175-1.2984.2675-.803.803a28.4465 28.4465 0 004.2085 3.7857 45.359 45.359 0 004.7416 2.9786.2174.2174 0 00.2193-.3752z" mask="url(#server_not_found-r)"/>
      <path fill="#191849" fill-rule="nonzero" d="M22.6483 24.6915c.5586-.8668 1.165-1.6997 1.7018-2.5828.5355-.881 1.0533-1.7727 1.598-2.6482 1.0804-1.7367 2.236-3.4308 3.4653-5.0656.6944-.9232 1.403-1.8285 2.0684-2.773.2787-.3958-.3297-.8395-.6592-.5086a34.9116 34.9116 0 00-3.8785 4.9108 44.1652 44.1652 0 00-3.2322 5.326 27.3887 27.3887 0 00-1.2983 3.2425c-.0495.1424.1588.2167.2347.099zm-6.0003.8288c.764-1.2805 1.5553-2.5417 2.2998-3.8338.7295-1.266 1.4767-2.5248 2.2542-3.7619a80.7893 80.7893 0 015.1125-7.1895c1.0445-1.3174 2.1363-2.5984 3.2113-3.8906.3717-.4468-.2261-1.077-.6493-.6494a54.796 54.796 0 00-5.7409 7.0338 66.2732 66.2732 0 00-4.7018 7.617 36.2276 36.2276 0 00-1.9663 4.5983c-.0382.1075.1244.17.1805.076zm-4.6472-1.2866a48.1487 48.1487 0 012.6388-6.1122 54.9007 54.9007 0 013.363-5.7017A67.4211 67.4211 0 0126.648 2.1064c1.8208-1.8117 3.7502-3.5077 5.596-5.2926.3677-.3555-.136-1.0564-.5624-.7289A54.2098 54.2098 0 0026.4883.7284c-1.6396 1.633-3.2073 3.3331-4.6815 5.1171a54.1534 54.1534 0 00-7.3463 11.3159 40.7654 40.7654 0 00-2.5359 7.0513.0395.0395 0 00.0762.021zm-4.3357.7953c.7188-1.8073 1.4531-3.6042 2.2483-5.3794.797-1.7794 1.5373-3.5824 2.3594-5.3513a97.5775 97.5775 0 015.372-10.3051c1.1439-1.8493 2.39-3.6373 3.6795-5.3877.3427-.4653-.438-1.0741-.8065-.6222a57.4319 57.4319 0 00-6.3017 9.8914 98.7298 98.7298 0 00-4.7308 10.7832c-.3898 1.0358-.7078 2.0971-1.076 3.1406a333.2408 333.2408 0 00-1.087 3.136c-.0751.22.2601.3024.3428.0945zM4.522 26.8098a7.0726 7.0726 0 01.3288-1.1453c.1077-.3579.194-.7122.2673-1.0787.146-.729.301-1.4562.4651-2.1814.3253-1.4377.6167-2.8828.9539-4.318a55.8813 55.8813 0 012.409-8.1355 20.5875 20.5875 0 01.9058-1.9603 11.3545 11.3545 0 001.0623-2.0483.3891.3891 0 00-.5658-.4349 4.6813 4.6813 0 00-1.3142 1.686 19.9983 19.9983 0 00-.8863 1.8198 33.5599 33.5599 0 00-1.3663 3.9365 74.7307 74.7307 0 00-2.0118 8.8098c-.1326.8223-.2229 1.6537-.3151 2.4813a10.2862 10.2862 0 00-.0846 1.258 4.7229 4.7229 0 00.0215.5502 2.832 2.832 0 01-.0079.7608c-.0112.088.127.0872.1383 0z" mask="url(#server_not_found-r)"/>
    </g>
    <g fill-rule="nonzero">
      <path fill="url(#server_not_found-s)" d="M15.2256 33.9775a12.2716 12.2716 0 01-4.0059-.6309 13.2562 13.2562 0 01-5.916-4.376 19.0034 19.0034 0 01-4.251-9.6279 11.872 11.872 0 01.2881-3.9922c.7813-3.1523 2.7686-5.7744 6.0742-8.0156a44.8427 44.8427 0 011.5654-1.0137 32.9487 32.9487 0 0116.6104-5.1904c5.5918 0 9.9658 2.0771 13 6.1738a11.9115 11.9115 0 012.3662 5.629 11.476 11.476 0 01-2.4648 8.1747c-2.378 3.1543-5.8428 5.5713-8.9043 7.5899a31.195 31.195 0 01-10.875 4.9072 17.4234 17.4234 0 01-3.4864.372l-.001.0001z" transform="translate(94 108)"/>
      <path fill="#01002B" d="M119.5907 109.8743c5.3436 0 9.5167 1.9758 12.4033 5.8726a11.1684 11.1684 0 012.2249 5.2725 10.7408 10.7408 0 01-2.3196 7.6415c-2.3077 3.0601-5.7112 5.4328-8.7202 7.4165a30.4816 30.4816 0 01-10.6155 4.7992 16.6813 16.6813 0 01-3.3388.3576 11.5484 11.5484 0 01-3.7634-.59 12.5329 12.5329 0 01-5.578-4.1377 18.2642 18.2642 0 01-4.0912-9.2342 11.1322 11.1322 0 01.2697-3.7425c.7347-2.9655 2.6223-5.4448 5.7702-7.5798a43.319 43.319 0 011.5389-.9969 32.1967 32.1967 0 0116.2197-5.0788m0-1.4864c-5.9137 0-12.1675 2.315-17.0009 5.3007-.538.3323-1.0686.676-1.5919 1.0312a14.4956 14.4956 0 00-6.3788 8.4525 12.5777 12.5777 0 00-.3065 4.2407 19.721 19.721 0 004.4106 10.0226 14.0577 14.0577 0 006.2543 4.614 13.0189 13.0189 0 004.2473.6709 18.154 18.154 0 003.6377-.3879 32.3617 32.3617 0 0011.1347-5.0143c3.287-2.167 6.6972-4.591 9.0888-7.7625a12.1945 12.1945 0 002.6093-8.7079 12.6474 12.6474 0 00-2.507-5.9857c-3.4722-4.6874-8.404-6.4743-13.5977-6.4743z"/>
    </g>
    <g fill-rule="nonzero">
      <path fill="url(#server_not_found-t)" d="M5.7334 12.7685a7.4393 7.4393 0 01-1.2168-.1123 4.217 4.217 0 01-1.7139-.5996A2.7165 2.7165 0 011.627 9.998l-.0049-.1006a.8782.8782 0 00-.0273-.2304.9167.9167 0 00-.211-.253l-.122-.123a3.2841 3.2841 0 01-.4482-3.3672c.1818-.4977.3972-.9826.6445-1.4512.2373-.449.4429-.914.6152-1.3916a1.5612 1.5612 0 01.2031-.4414 1.1875 1.1875 0 01.339-.3047 3.25 3.25 0 011.5097-.3848c.169-.0146.3379-.0283.503-.0537a7.0676 7.0676 0 001.7538-.5996A8.2563 8.2563 0 018.2226.6552a2.5588 2.5588 0 01.4707-.0644.8423.8423 0 01.6436.2715 2.597 2.597 0 01.4521.8554c.0323.083.0616.1621.0918.2305.2933.6694.5263 1.3635.6963 2.0742a9.5881 9.5881 0 01.2618 2.4912 7.099 7.099 0 01-2.584 5.3985 4.19 4.19 0 01-1.0186.5947 4.0395 4.0395 0 01-1.503.2617z" transform="translate(122 105)"/>
      <path fill="#01002B" d="M130.6925 106.0145a.4283.4283 0 01.334.1359c.2016.2976.3584.6233.4652.9665.2837.646.509 1.316.6732 2.0023a9.1288 9.1288 0 01.2498 2.3804 6.6802 6.6802 0 01-2.4178 5.0764 3.8129 3.8129 0 01-.9155.5363 3.6534 3.6534 0 01-1.349.2326 7.019 7.019 0 01-1.1469-.1063 3.8315 3.8315 0 01-1.5446-.5325 2.3093 2.3093 0 01-.9914-1.7352 1.5756 1.5756 0 00-.058-.452 1.6938 1.6938 0 00-.4218-.5188 2.933 2.933 0 01-.3556-2.94c.3365-.9822.9328-1.8602 1.2616-2.845a1.1755 1.1755 0 01.1434-.3268.7778.7778 0 01.2217-.1948 4.725 4.725 0 011.8502-.378c1.2732-.194 2.3456-1.012 3.6074-1.2436a2.3033 2.3033 0 01.394-.0574m0-.847a2.4122 2.4122 0 00-.473.057l-.074.0142a8.6002 8.6002 0 00-1.9342.6701 6.75 6.75 0 01-1.648.5692c-.1554.0237-.3149.0365-.4743.0499a3.5973 3.5973 0 00-1.6973.4473 1.6 1.6 0 00-.4576.4148 1.832 1.832 0 00-.2535.5315 10.4907 10.4907 0 01-.6007 1.359c-.2559.4862-.4787.989-.6672 1.5051a3.6948 3.6948 0 00.5412 3.7962 5.075 5.075 0 00.1343.1353c.0349.0342.0795.0779.1064.108.0027.0297.0026.06.004.09l.0056.1108a3.1414 3.1414 0 001.3606 2.381 4.6167 4.6167 0 001.8816.6674c.4247.0747.8549.114 1.286.1178a4.4493 4.4493 0 001.66-.2918 4.6135 4.6135 0 001.121-.6526 7.52 7.52 0 002.748-5.7204 9.98 9.98 0 00-.2718-2.6017 12.7115 12.7115 0 00-.721-2.1464c-.0274-.0631-.0547-.136-.0838-.2126a2.9702 2.9702 0 00-.5392-.9946 1.2686 1.2686 0 00-.9531-.4046z"/>
      <path fill="#01002B" d="M123.6737 114.734a1.0743 1.0743 0 00.4961-.3725c.1197-.1323.2414-.2665.3514-.407a8.7562 8.7562 0 00.629-.9241 4.9709 4.9709 0 00.4312-.9632 4.4696 4.4696 0 00.1331-.5051 1.6163 1.6163 0 00.0733-.5261.1023.1023 0 00-.2006-.0227c-.0477.1589-.0416.334-.0847.4963a2.6734 2.6734 0 01-.1866.4787 5.8738 5.8738 0 01-.531.8388c-.1966.2717-.4163.5246-.6275.7847-.1135.1396-.2155.2887-.3268.4302a2.9173 2.9173 0 00-.3498.4529.1683.1683 0 00.193.239v.0001z"/>
    </g>
    <g fill-rule="nonzero">
      <path fill="url(#server_not_found-u)" d="M6.3584 12.707a3.8337 3.8337 0 01-1.1387-.163 4.182 4.182 0 01-1.0615-.5157 7.096 7.096 0 01-2.9815-5.1885A9.4673 9.4673 0 011.249 4.336a12.2475 12.2475 0 01.538-2.121c.0245-.0684.048-.1495.0724-.2335a2.6265 2.6265 0 01.3886-.8916.8693.8693 0 01.7149-.3213c.102.0021.2037.0103.3047.0244a8.335 8.335 0 011.959.5088 7.1036 7.1036 0 001.7949.4668c.166.0117.335.0127.5039.0147a3.268 3.268 0 011.5342.2695c.1369.0683.2592.1625.3603.2773a1.431 1.431 0 01.2217.3907c.2113.4752.4564.9347.7334 1.375.282.4491.5335.9166.753 1.3994a3.2821 3.2821 0 01-.1934 3.3916l-.1123.1318a.9225.9225 0 00-.1905.2676.8894.8894 0 00-.0107.2275l.003.1084a2.7145 2.7145 0 01-1.0177 2.1387 4.2265 4.2265 0 01-1.663.7276 6.6355 6.6355 0 01-1.585.2187z" transform="translate(24 106)"/>
      <path fill="#01002B" d="M26.9632 107.1924c.1122.0042.224.0141.3352.0297 1.2758.1358 2.4068.8706 3.691.9681a4.7243 4.7243 0 011.8734.2375.7754.7754 0 01.2357.1775 1.172 1.172 0 01.1677.315c.402.9574 1.0629 1.7879 1.4724 2.742a2.9328 2.9328 0 01-.1328 2.9583 1.695 1.695 0 00-.3816.5492c-.0299.1497-.0379.303-.0237.455a2.31 2.31 0 01-.8577 1.805 3.832 3.832 0 01-1.5002.6475 6.2912 6.2912 0 01-1.484.206 3.413 3.413 0 01-1.0143-.1439 3.813 3.813 0 01-.9533-.4657 6.6803 6.6803 0 01-2.7935-4.8796 9.1212 9.1212 0 01.0696-2.3926c.1119-.6966.286-1.3818.5203-2.0473a3.6711 3.6711 0 01.3908-.9988.4534.4534 0 01.385-.1629m.0002-.8471a1.286 1.286 0 00-1.046.4799 2.9692 2.9692 0 00-.4626 1.0325c-.0233.0785-.045.1532-.0676.2181a12.6886 12.6886 0 00-.557 2.1947 9.9679 9.9679 0 00-.0748 2.6149 7.5198 7.5198 0 003.1715 5.497 4.6137 4.6137 0 001.1668.5662 4.2786 4.2786 0 001.265.1818 7.0965 7.0965 0 001.6857-.2304 4.6172 4.6172 0 001.826-.8074 3.1422 3.1422 0 001.1772-2.4774l-.0026-.109c-.001-.0305-.0035-.061-.0031-.0913.0246-.032.0659-.079.098-.1157a4.803 4.803 0 00.1238-.145 3.6943 3.6943 0 00.2534-3.8263 12.251 12.251 0 00-.7787-1.4506 10.482 10.482 0 01-.691-1.285 1.9036 1.9036 0 00-.3034-.5357 1.595 1.595 0 00-.4876-.3791 3.5967 3.5967 0 00-1.726-.3181c-.16-.0013-.32-.002-.477-.014a6.7501 6.7501 0 01-1.686-.4433 8.6018 8.6018 0 00-1.9793-.5224l-.0748-.0085a3.0384 3.0384 0 00-.3499-.026z"/>
      <path fill="#01002B" d="M33.1335 112.6534a2.2979 2.2979 0 00.0621.8433 5.088 5.088 0 00.3464.831c.1368.2664.2871.5256.4502.7768.0876.1396.1753.2793.267.4164.1056.1578.1962.3637.416.3529a.2236.2236 0 00.1906-.116c.0898-.2036-.0252-.3314-.1349-.495-.0873-.1303-.176-.2595-.2632-.3898-.1636-.2443-.322-.492-.4826-.7384a6.0448 6.0448 0 01-.4065-.7145c-.1224-.259-.2669-.5108-.3674-.7793a.04.04 0 00-.0777.0125z"/>
    </g>
    <path fill="#01002B" fill-rule="nonzero" d="M88.3341 30.8133a3.9528 3.9528 0 01-2.2372-.7696.5036.5036 0 11.6033-.8065 1.8974 1.8974 0 002.8678.0477.5035.5035 0 01.712.712 2.6734 2.6734 0 01-1.9459.8164zm-16.8873.2796a4.019 4.019 0 01-2.2746-.7825.512.512 0 01.6134-.82 1.9291 1.9291 0 002.9157.0485.512.512 0 11.724.724 2.718 2.718 0 01-1.9785.83z"/>
    <path d="M-64.998-59.42h288v224h-288z"/>
  </g>
</svg>
