<svg fill="none" height="187" viewBox="0 0 227 187" width="227" xmlns="http://www.w3.org/2000/svg"><path d="m155.076 45.0551c4.317.632 8.687-.7531 12.627-2.6222 4.801-2.286 19.969-12.7614 26.101-3.4828.847 1.2774 1.277 2.8239 2.313 3.9534 1.667 1.8154 4.464 2.0843 6.871 1.5733 2.367-.511 15.263-7.5573 23.654 3.5904l-5.782 5.4327c-1.305-7.8935-7.168-8.66-12.237-7.8666-5.178.8203-9.83 3.8997-12.547.8203-1.277-1.4523-1.264-5.1906-2.918-6.2395-11.927-7.5977-8.27 14.1464-25.132 13.474-4.209-.1748-8.243-1.6136-12.183-3.0794-13.031-4.8544-14.604-.9144-19.27 2.8105-3.228 2.5818-7.423 4.0072-11.551 3.698-4.129-.3093-8.136-2.3802-10.597-5.7016 19.647 4.5451 18.988-9.5475 40.651-6.3605z" fill="#74a352"/><path d="m220.389 51.4962c.148-2.3129-.134-4.7199-.74-6.9387-.188-.6858-.43-1.3985-.726-2.1112 2.703.8203 5.393 2.5012 7.719 5.6075l-5.782 5.4326c-.121-.7127-.283-1.3716-.471-1.9902z" fill="#3e5c2e"/><path d="m202.517 44.5572c.041 0 .095 0 .135-.0134 2.689-.3497 5.191-2.0037 7.961-1.8558 3.321.1749 6.522 2.6895 8.323 5.352.579.8472 1.13 2.0709 1.399 3.3215-1.95-5.8899-7.154-6.4412-11.713-5.7151-10.3 1.6137-10.381 2.5146-12.129-2.3667 1.573 1.3582 3.913 1.6271 6.024 1.2775z" fill="#568040"/><path d="m193.158 40.214c-.645-.4034-1.237-.7261-1.788-.9816-.484-1.3313-1.17-2.5684-2.125-3.6845 1.775.5109 3.348 1.5598 4.559 3.3886.739 1.1296 1.17 2.4609 1.963 3.5366.188 1.533.457 3.0794.914 4.5317-.215-.1613-.416-.3362-.605-.5648-1.277-1.4388-1.264-5.1771-2.918-6.226z" fill="#568040"/><path d="m135.228 48.1211c-.35.3227-.686.6455-1.022.9816-2.743 2.6626-5.5 5.2175-9.131 6.5891-1.048.4035-2.111.659-3.187.8338-2.931-.8741-5.607-2.6491-7.436-5.11 10.597 2.4609 15.29-.5378 20.776-3.2945z" fill="#568040"/><path d="m124.134 52.3837c-1.882.8606-4.061 1.7347-6.293 2.2457-1.305-.8741-2.474-1.9498-3.416-3.2139 4.209.9682 7.477 1.0892 10.247.7127-.175.0807-.35.1748-.538.2555z" fill="#3e5c2e"/><path d="m168.227 42.164c3.335-1.7078 10.287-6.105 16.446-6.8715-7.369 2.6087-11.04 23.3174-32.757 9.3995.995.0807 2.044.1883 3.16.3631 4.317.632 8.687-.753 12.627-2.6222.134-.0672.282-.1345.43-.2151.027-.0135.068-.0404.094-.0538z" fill="#aed888" opacity=".49"/><path d="m150.652 46.1172c3.08 1.3044 5.581 3.6173 8.297 5.594-1.035-.3631-2.071-.7396-3.106-1.1161-8.284-3.0794-11.941-2.6088-14.698-.901.417-.7665.928-1.4791 1.533-2.1112 1.251-1.2909 2.958-2.1784 4.747-2.1919 1.116-.0134 2.205.2959 3.227.7262z" fill="#3e5c2e"/><path d="m170.93 42.9304c-2.286 2.0171-4.773 2.9315-7.772 2.0709-.404-.121-.767-.2689-1.13-.4438 1.95-.511 3.86-1.264 5.675-2.1246 1.627-.7799 4.464-2.5012 7.732-4.0745-1.533 1.5061-2.904 3.1601-4.505 4.572z" fill="#aed888" opacity=".49"/><path d="m207.251 25.4761c1.035 3.7517-2.972 9.6954-10.812 7.6649-16.284-4.209-22.255-4.0476-32.152-.901-6.011 1.9095 3.765.5648 3.765.5648s10.435-.6051 13.864-.1479c3.429.4437 12.856 2.1246 15.989 2.3667 3.133.242 6.952-.4169 8.377-2.3936 1.412-1.9633.969-7.1539.969-7.1539z" fill="#74a352"/><path d="m135.739 59.3896c22.147 3.4828 17.387-16.1904 20.803-21.7709.82-1.3313 1.976-2.4071 3.267-3.2811 1.426-.9682 2.999-1.6944 4.653-2.1516 2.407-.6723 4.935-.753 7.436-.7261 6.28.0538 12.573.6723 18.678 2.1246 10.866 2.5684 11.377 1.6002 19.7-6.4546-2.487 7.0328-7.248 8.1893-12.64 8.1759-5.271-.0135-44.133-9.3996-40.516 11.5242.202.8202.349 1.6002.417 1.896 2.393 11.1881-4.64 20.628-23.721 13.353-4.572-1.7346-14.873-6.0915-21.126.3228 3.107-7.5035 16.514-4.0342 23.049-3.0122z" fill="#3e5c2e"/><path d="m157.133 46.83c.202.8202.35 1.6002.417 1.896.256 1.1968.403 2.3667.43 3.5097-.349-.5513-.712-1.1026-1.049-1.6809-.82-1.3985-1.654-3.1063-2.259-4.8947.525-3.2946.807-6.3336 1.856-8.0414.82-1.3313 1.977-2.4071 3.268-3.2811 1.425-.9682 2.998-1.6944 4.652-2.1516 2.407-.6723 4.936-.753 7.437-.7261 6.28.0538 12.573.6723 18.678 2.1246 10.865 2.5684 11.376 1.6002 19.7-6.4546-2.488 7.0328-7.248 8.1893-12.64 8.1759-5.245-.0269-44.107-9.3996-40.49 11.5242z" fill="#568040"/><path d="m135.739 59.3899c14.55 2.2861 17.481-5.4057 18.759-12.5461 1.829 5.715 1.519 11.5376-2.232 16.392-3.954 2.0037-10.018 2.0574-18.436-1.1564-4.572-1.7347-14.873-6.0916-21.126.3227 3.093-7.5035 16.5-4.0341 23.035-3.0122z" fill="#568040"/><path d="m129.97 59.0669c1.331.2286 2.676.5245 3.967.8876 2.555.7395 4.828 2.0036 6.952 3.5635.336.2554.767.5244 1.197.8337-2.447-.3631-5.204-1.1027-8.257-2.2592-2.111-.8068-5.432-2.1515-9.009-2.7566 1.748-.4169 3.375-.5917 5.15-.269z" fill="#3e5c2e"/><path d="m152.588 53.8224c-.605 2.3936-1.519 4.9083-3.523 6.495-2.394 1.8961-5.782 2.0171-8.499.7665-.766-.3496-1.452-.8337-2.111-1.3716 8.687.6724 12.519-2.7567 14.442-7.1942-.094.4572-.201.9009-.309 1.3043z" fill="#74a352"/><path d="m212.697 1.0021c.901 1.69435 1.708 6.8715-.565 9.5475-1.869 2.2053-3.9 4.3972-4.733 7.1539-.848 2.7835-.35 5.7688-.337 8.6734 0 .6455-.013 1.2909-.161 1.9095-.471 1.9633-2.931 5.2444-5.917 6.1722 5.191-.7799 9.023-4.7334 9.629-8.7003.174-1.1161.067-2.2591.067-3.3887 0-8.2027 5.029-12.1159 6.226-14.36153 1.613-3.02561.444-5.43265-.108-7.785902-.013.013447-3.146.699253-4.101.779932z" fill="#568040"/><path d="m210.492 26.3766c-1.654-6.9387-6.899-7.5842 4.545-15.8273-1.883 2.434-4.357 6.0647-4.357 11.8201 0 1.1295.107 2.2725-.067 3.3886-.041.2152-.081.4169-.121.6186z" fill="#3e5c2e" opacity=".32"/><path d="m213.275 13.0776c-1.385 2.2726-2.595 5.2579-2.595 9.3055 0 .2555 0 .511.013.7665-.538-1.1162-1.089-2.2323-1.143-3.4694-.148-2.7163 1.52-5.0561 3.725-6.6026z" fill="#3e5c2e"/><path d="m212.119 10.5496c1.855-2.19188 1.667-6.05122 1.035-8.31034.511.47065 3.994 5.76883-1.533 9.31884-.255.1614-.511.3362-.78.4976.431-.511.861-1.0086 1.278-1.5061z" fill="#74a352"/><path d="m163.682 33.477c3.926-1.1699 10.448-.7799 14.509-.2421-11.134-.4034-22.389 2.4474-21.071 13.5413-3.241-4.2089.43-11.4704 6.562-13.2992z" fill="#3e5c2e"/><path d="m36.3007 128.525c.4629-.067.4873-2.529.0543-5.497-.4329-2.969-1.1592-5.321-1.6222-5.254-.463.068-.4873 2.529-.0543 5.498.4329 2.969 1.1592 5.321 1.6222 5.253z" fill="#21212b"/><path d="m87.4502 55.2075c-1.1295.3631-2.2994.6455-3.4693.8337-2.8374.4572-5.7689.4841-8.4852 1.412-6.5219 2.2322-10.3274 9.2247-11.3897 16.029-1.0624 6.8177-1.7078 15.8273-1.802 22.7123-.0134 1.4657-.0941 2.9449-.5378 4.3435-.511 1.6-1.4658 3.025-2.5953 4.29-5.2444 5.889-11.7529 6.01-18.0596 10.744 2.3264 3.805 2.7836 8.7 1.1968 12.869 9.803.376 19.6732-1.426 28.7097-5.231 4.4376-1.869 7.0732-2.219 10.2736-5.823 4.3704-4.921 7.907-13.689 8.4986-20.2512.5783-6.5623.0269-13.1648.2421-19.7539.0269-.8606.0672-1.7347.1614-2.6088z" fill="#464558"/><path d="m104.729 53.6069.095.6993c.04-.1479.08-.2958.121-.4438-.081-.0941-.148-.1748-.216-.2555z" fill="#464558"/><path d="m41.8373 117.952c-.874-1.278-1.4254-1.614-2.8373-1.036-1.7078.7-3.3618 1.708-5.0023 2.542-.9548.484-1.9499.981-3.0257 1.062-3.7114.296-6.3336-4.222-10.0584-4.384-2.3264-.107-4.5048 1.547-6.8177 1.238-.4169.537-.0673 1.385.5244 1.734.5917.336 1.3178.323 2.0036.283 1.143-.054 2.2995-.108 3.4425-.162.6724-.027 1.3582-.054 1.9902.175s1.1968.78 1.2237 1.439c.1075 1.95-6.7236 4.411-11.1881 4.195-3.49623-.174-6.14532-1.223-7.93379-1.062-2.11121.188-1.03544 1.802.90096 2.326.4303.121 4.18206 1.09 8.10863 1.574-5.17715.322-8.76754-1.708-11.08046-1.641-2.1246461.054-1.143005 1.721.75304 2.38.40342.135 3.87279 1.278 7.61112 2.004-3.10632-.108-5.52681-.861-7.16736-.619-2.09776.31-.92785 1.843 1.02199 2.286.4572.108 4.66616.955 8.82137 1.17-3.28115.041-5.79576-.82-7.44976-.578-1.92295.282-.84718 1.694.92785 2.084 17.61581 3.914 18.69151-2.945 26.71951-5.984 2.7836-1.048 5.7957-1.223 8.7541-1.506.2958-.027.6186-.067.8472-.269.1613-.161.242-.376.3092-.605.8607-2.877.2959-6.172-1.3985-8.646z" fill="#d58500"/><g fill="#b45f00"><path d="m26.0102 120.412c-.6455-.685-1.2775-1.385-2.0709-1.909-.3362-.229-.6993-.404-1.0623-.538-.4303-.161-.901-.161-1.3313-.04-1.4926.443-2.9987.766-4.572.82-.8338.027-1.8154 0-2.5684-.39-.1614-.081-.3362-.202-.4976-.35.0269.431.3093.874.7127 1.103.5917.336 1.3178.323 2.0036.282 1.143-.053 2.2995-.107 3.4425-.161.6724-.027 1.3582-.054 1.9902.175.632.228 1.1968.78 1.2237 1.439.0134.322-.1479.645-.4707.981.3362.982.148 2.501 2.1919 4.532.7531-3.792 6.7908-4.814 6.7908-4.814-2.8642.323-4.2493.511-5.7822-1.13z" opacity=".36"/><path d="m25.3915 123.438c.1076.014.2152-.027.2555-.134.1345-.323-.6992-.216-1.896-1.076-.3093-.215-.7396-.484-.5917-.888-.0672.121-.1479.256-.2555.377.6589 1.022 1.6271 1.587 2.4877 1.721z" opacity=".36"/><path d="m17.0006 136.105c.0807 0 .1614-.013.2421-.013.5109-.027.9816-.081 1.4522-.135-.6051-.995.269-2.151-.3227-3.106-.2286-.377-.6723-.578-.9278-.928-.511-.713-.1749-1.788-.6858-2.501-.1883-.256-.4841-.444-.6455-.726-.2152-.363-.1479-.821-.121-1.251.0403-.605.0134-1.264-.3228-1.775-.121-.188-.2824-.551-.4303-.686-.2017-.175-.3899-.094-.6589-.067-.1479.014-1.9095.161-1.9095.121 0 3.227-7.83967 1.049-9.34576-.847-.83372.511.18826 1.654 1.74813 2.098.41687.121 3.92658 1.022 7.69173 1.519h.0135c.3631.067.6858.081.9547.054.2017 1.802-10.70389 1.398-12.68062-1.331-.510997.524.38996 1.586 1.80191 2.071.38997.134 3.5635 1.169 7.1001 1.896-.01345-.027.41691.107.45721.121.2152.013 2.6625-.068 2.7836-.068-.0673 3.51-9.8837.444-10.91913-.094-.38997.592.61856 1.493 2.05741 1.816.4572.094 4.58548.928 8.68682 1.17.4572-.081.9413-.014 1.3851-.148 1.4657-.444.4975 2.151-3.7114 1.869-1.15647-.081-2.31292-.242-3.44249-.511-.73959-.175-1.50608-.39-2.19188-.726-.10758-.054-.22861-.121-.36308-.202.17482.471.9413 1.008 1.92295 1.224 3.16008.699 5.7823 1.049 8.0011 1.143.753.053 1.5733.053 2.3801.013z" opacity=".36"/><path d="m14.3112 127.66c.2689-.242.4034-.82.0806-1.076-.4975-.39-1.1564.511-1.5464.753-.3093.189-.632.296-.9816.377.2958.04.5916.081.8875.121h.0134c.3362.054.6455.067.901.054.2286-.041.4706-.067.6455-.229z" opacity=".36"/><path d="m15.548 129.798c.1613-.269.0134-.726-.3631-.537-.1748.08-.3093.228-.4572.336-.3496.242-.7665.417-1.1699.551-.4303.135-.8741.242-1.3178.256-.4707 0-.9413-.054-1.3985.04-.2018.04-.4035.094-.6052.148.0807.027.1345.04.1614.04.1614.014 1.7078-.04 2.4205-.067.0134-.027.0269-.04.0672-.04.5245 0 1.022-.108 1.533-.202.3631-.067.901-.148 1.1296-.525z" opacity=".36"/><path d="m16.4085 132.959c.1479-.243-.1076-.458-.3227-.485-.1883-.026-.39.027-.5648.081-.3227.094-.6186.242-.9278.35-1.0489.376-2.2054.403-3.308.43.5647.054 1.1295.094 1.7077.135.4572-.081.9413-.014 1.3851-.148.2824-.081.4707-.054.5648.04.1613-.027.3227-.04.4975-.054.269-.04.8069-.081.9682-.349z" opacity=".36"/><path d="m40.3715 120.856c-.7127-1.291-1.8557-2.38-3.2542-2.878-.0672-.027-.1479-.053-.2151-.067-.7127.377-1.4254.767-2.1247 1.143.1748.229.3093.484.4169.753.6051 1.479.6186 3.187.1076 4.693-.5245 1.506-1.5599 2.824-2.8643 3.752-1.0758.766-2.3263 1.277-3.3752 2.071-1.0086.766-1.8154 1.761-2.6895 2.689 2.1516-1.385 4.1149-2.945 6.9657-4.02 2.5011-.942 5.1906-1.184 7.8666-1.426.242-.78.2958-1.613.2689-2.434-.0672-1.479-.39-2.972-1.1027-4.276z" opacity=".36"/><path d="m20.6044 125.428c.269 1.008.5513 2.017.7127 3.052.1479.969.2017 2.004.7396 2.811.2152.323.5379.618.9279.618.4303 0 .7933-.403.874-.82s-.0269-.86-.1882-1.264c-.4841-1.25-1.3448-2.38-1.6003-3.711-.1075-.592-.0941-1.211-.1613-1.816-.0538-.511-.1748-1.022-.3631-1.506 0 0 0-.013-.0134-.013-.4572.255-.9817.511-1.5465.753.2555.605.4438 1.25.6186 1.896z" opacity=".36"/><path d="m20.3353 131.681c.2959-.027.4707-.336.5245-.619.1748-.82-.1345-1.64-.2824-2.46-.1076-.592-.1345-1.184-.2017-1.789-.1345-1.062-.4303-2.111-.8741-3.093-.2555.094-.511.188-.7799.269.0538.094.0941.188.1345.283.4437.995.6723 2.084.632 3.187-.0404.9-.2421 1.788-.1748 2.689.0403.538.2017 1.116.6454 1.425.121.054.2421.108.3765.108z" opacity=".36"/><path d="m14.5127 118.166s.7665.108 1.3178-.013c.4303-.094.8068-.874.8068-.874.0807.78-.9547 1.573-2.1246.887z" opacity=".36"/></g><path d="m88.4047 62.0786c-1.6137 1.0086-3.2677 1.9633-4.9082 2.918-2.0978 1.2237-4.2897 2.4071-6.1992 3.9132-1.775 1.3985-3.4155 3.039-4.6392 4.9485-.6455 1.0086-1.1834 2.0843-1.4254 3.2542-.2421 1.1565-.2152 2.3533-.0269 3.5232.3765 2.286 1.3178 4.4107 1.9364 6.6294.5379 1.923-.8875 5.9706-1.2372 7.9608-.1882 1.0488-.5916 2.017-.9009 3.039-.3362 1.1161-.5245 2.2721-.5648 3.4421-.0403 1.09.0538 2.165.1614 3.255.0941.914.2824 1.869.121 2.783-.2017 1.17-1.0892 1.56-2.1381 1.829-1.7212.457-3.3349 1.103-4.4779 2.541-1.0892 1.386.2151 1.09-.3228 2.73-.6051 1.816-1.4926 3.443-2.7163 4.908-1.2774 1.52-2.7835 2.824-4.3837 3.994-2.5147 1.829-5.2579 3.362-8.1087 4.64 7.7052-.431 15.3432-2.179 22.4568-5.178 4.4375-1.869 7.0732-2.218 10.2736-5.822 4.3703-4.922 7.9069-13.689 8.4986-20.2516.5782-6.5623.0269-13.1648.2421-19.7539.0268-.8606.0672-1.7347.1613-2.6088z" fill="#2b2b37" opacity=".29"/><path d="m104.729 53.6069.095.6993c.04-.1479.08-.2958.121-.4438-.081-.0941-.148-.1748-.216-.2555z" fill="#2b2b37" opacity=".29"/><path d="m65.0469 104.572c-.2286-.484-.632-.848-.9951-1.224-.6186-.619-1.2775-1.197-1.8422-1.856-.0807-.094-.2959-.417-.4976-.726-.1076.336-.242.659-.4034.968.5513 1.022.9682 2.112 1.385 3.174.148.39.2824.82.4976 1.183.1614.269.4975.471.7665.592.4572.215.8472.081 1.0623-.39.2421-.525.2824-1.183.0269-1.721z" fill="#2b2b37" opacity=".48"/><path d="m67.5619 103.59c.2689-.538-.1211-1.425-.4169-1.882-.9413-1.466-3.1601-1.762-5.1099-2.2192-.0404.1748-.0672.3496-.121.5242 1.4119 1.452 4.9485 5.016 5.6478 3.577z" fill="#2b2b37" opacity=".48"/><path d="m104.729 53.6069.095.6993c.04-.1479.08-.2958.121-.4438-.081-.0941-.148-.1748-.216-.2555z" fill="#2b2b37" opacity=".48"/><path d="m87.45 55.2075c-1.1296.3631-2.2995.6455-3.4694.8337-1.8019.2959-3.6307.4169-5.4326.6993-.3093 1.6136-.4438 3.2542-.4035 4.9082.0807 3.2139.7665 6.3874 1.6137 9.4803.8741 3.2004 1.9364 6.3336 2.8104 9.534.8338 3.0659 1.5599 6.2126 1.654 9.3995.1614 5.4327-2.9314 13.1785-6.226 17.5755-1.6136 2.152-3.6711 3.94-6.0781 5.137-2.5281 1.264-5.4864 1.99-8.3103 1.56-3.6577-.552-4.7334-5.043-7.0867-7.786-4.8275 3.348-10.6501 5.473-15.397 9.036 2.3264 3.806 2.7836 8.701 1.1968 12.869 9.803.377 19.6732-1.425 28.7097-5.231 4.4376-1.869 7.0732-2.219 10.2736-5.822 4.3703-4.922 7.9069-13.69 8.4986-20.2518.5782-6.5622.0269-13.1648.2421-19.7539.0269-.8606.0672-1.7347.1613-2.6087z" fill="#2b2b37" opacity=".48"/><path d="m50.8067 109.05-16.0694 8.727c.4707-.067 1.1968 2.286 1.6271 5.258s.4034 5.433-.0538 5.5c10.4888-.121 17.3738.309 20.0901-.121 2.8239-.471-.1211-21.341-5.594-19.364z" fill="#464558"/><path d="m51.9632 123.425c-2.313.497-4.6797.833-7.0464.833-2.9718.014-6.1319-.537-8.6868-2.07.0403.269.0941.551.1345.833.4303 2.972.4034 5.433-.0538 5.5 10.4887-.121 17.3737.309 20.09-.121 1.0354-.161 1.3044-3.066.9548-6.589-1.7616.699-3.5635 1.224-5.3923 1.614z" fill="#2b2b37" opacity=".25"/><path d="m36.7946 117.037c.7396.135 1.4927.148 2.2323.135 1.3312-.041 2.676-.148 4.0072-.242 2.0574-.148 4.088-.471 6.0512-1.09 1.8558-.591 3.6846-1.398 5.3386-2.434.2689-.174.5379-.349.8068-.537-1.1296-2.703-2.6491-4.465-4.4241-3.819l-14.4961 7.866c.1614.054.3228.094.4841.121z" fill="#575771"/><path d="m38.8249 127.728c-.0942 0-.1883-.054-.2421-.148-.0807-.135-.0269-.309.1076-.39.0941-.054 9.413-5.513 10.7308-15.088.0269-.148.1614-.269.3228-.242.1479.027.2689.162.242.323-1.3581 9.857-10.9056 15.451-11.0132 15.505-.0538.026-.1076.04-.1479.04z" fill="#2b2b37"/><path d="m54.2627 128.467c-.0942 0-.1748-.04-.2286-.121-3.9669-5.849-16.0559-10.878-16.177-10.919-.1479-.054-.2151-.228-.1479-.363.0538-.148.2286-.215.3631-.148.4975.202 12.3714 5.137 16.4324 11.135.0942.134.0538.309-.0807.389-.0537.014-.1075.027-.1613.027z" fill="#2b2b37"/><path d="m82.0038 116.553c.1479-1.493.0403-3.053-.39-4.451-.4976-1.627-1.7885-2.985-3.4021-3.523-1.5599-.525-3.2812-.337-4.8141.174-1.923.646-3.5635 1.883-5.1234 3.161-1.9095 1.559-1.9902 1.21-3.8459 2.81-1.896 1.641-3.9131 3.174-5.9436 4.653-2.0171 1.479-4.1014 2.904-6.3202 4.061-2.1784 1.143-4.5182 1.963-6.9387 2.407-1.2372.228-2.5012.242-3.7518.336-.6723.054-1.3581.108-2.017.242-.4035.081-.8741.269-.9413.74-.0404.39.1748.793.3899 1.102.0538.081.1076.162.1748.229 8.9289-.027 14.8457.296 17.32-.108.4437-.067.6723-.618.8068-1.049 4.7468-.887 9.3861-2.272 13.8371-4.141 4.4376-1.869 7.0732-2.219 10.2737-5.823.2151-.255.4572-.538.6858-.82z" fill="#2b2b37" opacity=".29"/><path d="m69.3232 121.69c-1.2505-.619-1.143-2.448-2.407-2.017-1.4657.497-2.8239 1.304-4.1417 2.111-1.2237.753-2.4205 1.56-3.7518 2.138-1.6809.726-3.5366.995-5.3519 1.157-3.0257.268-6.1051.349-8.9155 1.667-.7396.35-1.8019.928-2.1381 1.775 6.9522.04 11.6183.229 13.7564-.108.4438-.067.6724-.618.8069-1.048 4.7468-.888 9.3861-2.273 13.8371-4.142.6858-.296 1.3716-.592 2.0574-.915-.3362-1.156-2.7701-.121-3.7518-.618z" fill="#2b2b37" opacity=".29"/><path d="m63.3661 99.7846s-1.1295-.1614-1.3178-.2959c-.1883-.1344-1.2909-.1075-.5648-2.3532.7262-2.2457.8338-3.4963.8606-4.3703.0269-.8741.9279-1.3716.9279-1.3716l1.9095 5.5267z" fill="#464558"/><path d="m61.9273 100.013s-.1748-.0268-.2286.161c-.0538.189 0 .606 0 .606s.4572.685.6186.86c.1076.121.3093-.672.3093-.686 0-.013-.6993-.941-.6993-.941z" fill="#464558"/><path d="m61.3089 101.734s-.4438 0-.6186.296-.2958 1.412-1.0489 2.232c-.753.834-1.5599 2.165-1.5599 2.165s2.2861-.914 2.3398-.86c.0404.067.8338-1.372.8472-1.439.0135-.067.0404-2.394.0404-2.394z" fill="#464558"/><path d="m177.072 120.736c.057-3.259-.311-5.909-.824-5.918-.512-.009-.974 2.626-1.031 5.886s.312 5.909.824 5.918.974-2.626 1.031-5.886z" fill="#21212b"/><path d="m168.2 115.491c.874-1.278 1.426-1.614 2.851-1.022 1.708.699 3.348 1.708 5.002 2.555.955.484 1.95.981 3.012 1.076 3.712.309 6.348-4.196 10.072-4.357 2.327-.094 4.505 1.56 6.818 1.264.417.538.067 1.385-.538 1.734-.591.337-1.318.323-2.003.283-1.143-.054-2.3-.108-3.443-.162-.672-.027-1.358-.067-1.99.162-.632.228-1.197.766-1.237 1.439-.108 1.949 6.71 4.424 11.174 4.222 3.497-.161 6.146-1.21 7.934-1.035 2.111.201 1.022 1.801-.901 2.326-.43.121-4.195 1.076-8.108 1.546 5.177.337 8.767-1.681 11.08-1.613 2.125.067 1.13 1.734-.753 2.38-.403.134-3.873 1.264-7.611 1.977 3.106-.095 5.527-.848 7.167-.606 2.098.31.928 1.856-1.022 2.273-.457.094-4.666.941-8.821 1.156 3.281.054 5.796-.806 7.45-.564 1.923.282.847 1.694-.942 2.084-17.615 3.859-18.678-2.999-26.706-6.051-2.77-1.063-5.795-1.237-8.74-1.533-.296-.027-.619-.067-.847-.283-.162-.161-.243-.39-.31-.605-.86-2.877-.282-6.172 1.412-8.646z" fill="#d58500"/><path d="m184.027 118.006c.646-.686 1.291-1.372 2.071-1.896.336-.229.7-.404 1.063-.538.43-.161.901-.161 1.331-.027 1.493.444 2.999.78 4.572.834.834.027 1.815 0 2.568-.39.162-.081.337-.202.498-.35-.027.43-.323.874-.713 1.103-.591.336-1.318.323-2.003.282-1.143-.054-2.3-.107-3.443-.161-.672-.027-1.358-.067-1.99.161-.632.229-1.197.767-1.237 1.439-.014.323.148.659.457.982-.35.968-.148 2.501-2.205 4.531-.74-3.792-6.778-4.827-6.778-4.841 2.878.31 4.263.498 5.809-1.129z" fill="#b45f00" opacity=".36"/><path d="m184.646 121.032c-.107.013-.215-.027-.255-.135-.135-.323.699-.215 1.896-1.076.309-.215.739-.484.591-.874.068.121.148.256.256.377-.672 1.008-1.641 1.573-2.488 1.708z" fill="#b45f00" opacity=".36"/><path d="m192.997 133.725c-.081 0-.162-.013-.242-.013-.511-.027-.982-.081-1.453-.135.605-.995-.255-2.165.323-3.106.229-.376.672-.578.928-.928.524-.712.175-1.788.699-2.501.188-.255.484-.444.646-.726.215-.363.147-.82.121-1.251-.041-.605-.014-1.264.336-1.761.121-.188.282-.551.444-.686.201-.175.389-.094.658-.067.148.013 1.91.175 1.91.121 0 3.227 7.84 1.076 9.359-.82.82.511-.188 1.654-1.761 2.097-.417.108-3.927 1.009-7.692 1.493h-.014c-.363.067-.685.067-.954.054-.202 1.802 10.69 1.425 12.694-1.291.511.524-.39 1.587-1.802 2.071-.39.134-3.564 1.156-7.1 1.882.013-.027-.417.108-.458.121-.215.014-2.662-.08-2.783-.08.054 3.509 9.884.47 10.919-.068.377.592-.632 1.493-2.057 1.802-.458.094-4.586.915-8.701 1.143-.457-.08-.941-.013-1.385-.148-1.466-.443-.497 2.152 3.712 1.883 1.156-.081 2.313-.242 3.442-.498.753-.174 1.506-.376 2.192-.726.108-.053.229-.121.363-.201-.175.47-.941.995-1.923 1.223-3.16.686-5.782 1.036-8.001 1.13-.807.027-1.614.027-2.42-.014z" fill="#b45f00" opacity=".36"/><path d="m195.713 125.28c-.269-.255-.403-.82-.081-1.076.498-.389 1.157.511 1.547.754.309.188.632.295.982.376-.296.04-.592.081-.888.121h-.013c-.337.054-.646.067-.901.054-.242-.04-.484-.067-.646-.229z" fill="#b45f00" opacity=".36"/><path d="m194.463 127.419c-.162-.269-.014-.727.363-.538.174.08.309.228.457.336.35.242.766.417 1.17.551.43.135.86.256 1.318.256.47 0 .941-.054 1.398.04.202.04.404.094.605.161-.08.027-.134.041-.161.041-.162.013-1.708-.041-2.421-.068-.013-.026-.027-.04-.067-.04-.524 0-1.022-.107-1.533-.202-.363-.08-.901-.174-1.129-.537z" fill="#b45f00" opacity=".36"/><path d="m193.589 130.565c-.148-.242.107-.457.336-.484.188-.027.39.027.565.081.322.094.618.242.928.35 1.048.376 2.205.417 3.308.443-.565.054-1.13.095-1.708.121-.457-.08-.942-.013-1.385-.147-.283-.081-.471-.054-.565.04-.161-.027-.323-.04-.498-.054-.282-.027-.82-.081-.981-.35z" fill="#b45f00" opacity=".36"/><path d="m169.666 118.409c.726-1.291 1.869-2.38 3.267-2.864.068-.027.148-.054.216-.067.712.376 1.425.766 2.124 1.143-.175.228-.309.484-.417.753-.618 1.479-.632 3.173-.121 4.693.511 1.519 1.547 2.837 2.851 3.765 1.076.766 2.327 1.277 3.375 2.071 1.009.766 1.816 1.775 2.69 2.689-2.138-1.398-4.115-2.958-6.952-4.034-2.501-.955-5.191-1.197-7.853-1.452-.242-.78-.296-1.614-.269-2.434.053-1.479.363-2.972 1.089-4.263z" fill="#b45f00" opacity=".36"/><path d="m189.42 123.021c-.283 1.009-.552 2.017-.713 3.053-.148.968-.202 1.99-.74 2.81-.215.323-.537.619-.927.619-.431 0-.78-.403-.874-.82-.095-.431.04-.861.188-1.264.497-1.251 1.358-2.381 1.6-3.698.108-.592.094-1.211.161-1.816.054-.511.189-1.022.363-1.506 0 0 0-.013.014-.013.457.255.968.511 1.546.753-.255.605-.443 1.25-.618 1.882z" fill="#b45f00" opacity=".36"/><path d="m189.675 129.274c-.296-.026-.471-.336-.524-.618-.175-.82.134-1.641.282-2.461.108-.592.135-1.183.202-1.788.134-1.063.444-2.098.874-3.08.255.094.511.188.78.283-.054.094-.094.188-.135.282-.457.995-.672 2.084-.645 3.173.027.901.228 1.789.175 2.69-.041.538-.202 1.116-.646 1.412-.107.067-.242.121-.363.107z" fill="#b45f00" opacity=".36"/><path d="m195.525 115.787s-.767.108-1.318-.027c-.431-.094-.807-.874-.807-.874-.081.78.955 1.574 2.125.901z" fill="#b45f00" opacity=".36"/><path d="m113.766 54.9653c1.278.2421 2.569.3766 3.86.4169 3.119.1076 6.279-.2689 9.332.3496 7.342 1.5061 12.398 8.5121 14.482 15.7063 2.085 7.1942 1.91 14.8188 2.972 22.2416.229 1.5733.511 3.1601 1.17 4.6124.767 1.654 2.004 3.0659 3.375 4.2629 6.455 5.621 12.668 6.549 20.104 10.771-1.99 4.424-1.802 9.749.484 14.025-10.502 1.749-18.463 1.48-28.723-1.371-5.043-1.399-10.032-3.402-13.972-6.845-5.392-4.706-8.31-11.672-9.843-18.664-1.533-6.993-1.842-14.1872-2.972-21.247-.148-.9278-.323-1.8557-.524-2.7836z" fill="#464558"/><path d="m113.766 54.9653c1.278.2421 2.569.3766 3.86.4169 3.119.1076 6.279-.2689 9.332.3496 7.342 1.5061 12.398 8.5121 14.482 15.7063 2.085 7.1942 1.91 14.8188 2.972 22.2416.229 1.5733.511 3.1601 1.17 4.6124.767 1.654 2.004 3.0659 3.375 4.2629 6.455 5.621 12.668 6.549 20.104 10.771-1.99 4.424-1.802 9.749.484 14.025-10.502 1.749-18.463 1.48-28.723-1.371-5.043-1.399-10.032-3.402-13.972-6.845-5.392-4.706-8.31-11.672-9.843-18.664-1.533-6.993-1.842-14.1872-2.972-21.247-.148-.9278-.323-1.8557-.524-2.7836z" fill="#2b2b37" opacity=".29"/><path d="m94.9268 55.6245-.0134.7665c-.0673-.1479-.1345-.3093-.1883-.4706.0672-.0942.1479-.2018.2017-.2959z" fill="#464558"/><path d="m113.672 62.5093c1.883.8606 3.779 1.6674 5.688 2.4742 2.434 1.022 4.949 2.0037 7.221 3.3484 2.112 1.264 4.102 2.8105 5.689 4.6931.833.995 1.559 2.0843 1.99 3.308.417 1.2236.551 2.5146.511 3.7921-.094 2.5146-.807 4.9351-1.184 7.4093-.322 2.1381-.322 4.3166.337 6.4009.349 1.1161.914 2.0977 1.385 3.1466.524 1.1565.887 2.3667 1.075 3.6311.189 1.17.242 2.353.269 3.523.027.995-.04 2.057.256 3.025.376 1.238 1.385 1.533 2.555 1.681 1.909.256 3.752.726 5.177 2.125 1.372 1.345 2.017 3.187 2.824 4.881.901 1.869 2.071 3.51 3.604 4.922 1.586 1.466.457 2.353 2.339 3.389 2.959 1.627 6.132 2.904 9.387 3.886-8.365.605-13.891.067-21.973-2.179-5.043-1.398-10.032-3.402-13.972-6.844-5.392-4.707-8.31-11.672-9.843-18.665-1.533-6.9924-1.842-14.1866-2.972-21.2464-.148-.9278-.323-1.8557-.524-2.7835z" fill="#2b2b37" opacity=".29"/><path d="m94.9268 55.6245-.0134.7799c-.0673-.1479-.1345-.3092-.1883-.4706.0672-.1076.1345-.2152.2017-.3093z" fill="#2b2b37" opacity=".29"/><path d="m94.9268 55.6245-.0134.7665c-.0673-.1479-.1345-.3093-.1883-.4706.0672-.0942.1479-.2018.2017-.2959z" fill="#2b2b37" opacity=".48"/><path d="m113.766 54.9653c1.278.2421 2.569.3766 3.86.4169 1.977.0672 3.967-.0538 5.943 0 .552 1.6943.928 3.4559 1.103 5.2444.35 3.4828.054 6.9791-.43 10.435-.498 3.5635-1.21 7.1001-1.708 10.6636-.484 3.4156-.834 6.9118-.484 10.3543.578 5.8764 2.878 11.8065 7.033 16.0825 2.03 2.085 4.505 3.739 7.261 4.693 2.905 1.009 6.186 1.385 9.171.538 3.873-1.102 6.495-4.088 8.66-7.369 5.661 2.945 9.292 4.128 14.9 7.315-1.991 4.425-1.802 9.75.484 14.026-10.503 1.748-18.463 1.479-28.723-1.372-5.043-1.398-10.032-3.402-13.972-6.844-5.392-4.707-8.31-11.673-9.843-18.665-1.533-6.9926-1.843-14.1868-2.972-21.2466-.148-.9278-.323-1.8557-.525-2.7835z" fill="#2b2b37" opacity=".48"/><path d="m157.738 107.624 18.517 7.181c-.511-.013-.968 2.622-1.022 5.89-.054 3.254.309 5.903.82 5.917-11.309 1.304-18.664 2.73-21.663 2.635-3.133-.107-2.824-23.008 3.348-21.623z" fill="#464558"/><path d="m158.464 123.263c2.555.216 5.164.256 7.719-.067 3.214-.403 6.535-1.425 9.077-3.429-.013.296-.027.605-.027.915-.054 3.254.309 5.903.82 5.916-11.309 1.305-18.664 2.73-21.663 2.636-1.143-.04-1.829-3.133-1.936-6.966 1.976.511 3.993.821 6.01.995z" fill="#2b2b37" opacity=".25"/><path d="m173.189 126.101c-.04 0-.08-.014-.121-.027-.107-.054-2.824-1.183-5.93-3.631-2.864-2.259-6.602-6.091-8.068-11.551-.04-.161.054-.336.215-.376.161-.041.336.053.377.215 2.743 10.152 13.527 14.738 13.635 14.778.161.067.229.242.161.404-.04.121-.148.188-.269.188z" fill="#2b2b37"/><path d="m156.649 129.019c-.04 0-.094-.014-.134-.027-.148-.081-.215-.255-.135-.417 3.55-7.019 15.666-13.958 16.177-14.254.148-.081.336-.027.417.121s.027.336-.121.417c-.121.067-12.466 7.154-15.935 13.999-.054.094-.161.161-.269.161z" fill="#2b2b37"/><path d="m126.003 118.315c-.363-1.587-.457-3.281-.202-4.855.31-1.828 1.52-3.455 3.187-4.262 1.614-.78 3.483-.821 5.218-.471 2.165.43 4.101 1.533 5.944 2.689 2.259 1.412 4.41 3.013 6.629 4.492 2.273 1.506 1.721 2.568 4.115 3.886 2.38 1.318 4.827 2.555 7.369 3.51 2.501.941 5.137 1.492 7.813 1.627 1.358.067 2.729-.081 4.088-.148.739-.04 1.479-.067 2.218-.013.444.026.982.174 1.103.672.108.417-.081.874-.269 1.25-.054.095-.107.189-.161.283-9.628 1.197-15.949 2.367-18.665 2.272-.484-.013-.82-.578-1.008-1.022-5.231-.295-7.49-.847-12.547-2.245-5.042-1.399-10.031-3.402-13.971-6.845-.296-.269-.578-.538-.861-.82z" fill="#2b2b37" opacity=".29"/><path d="m140.365 122.107c1.25-.847 2.985-.794 4.41-.511 1.654.336 3.214 1.022 4.747 1.708 1.412.645-.108 1.035 1.399 1.479 1.909.551 3.94.578 5.916.497 3.295-.134 6.63-.47 9.83.565.834.269 2.071.753 2.542 1.614-7.477.995-12.493 1.856-14.833 1.775-.484-.014-.82-.578-1.008-1.022-5.231-.296-7.49-.847-12.546-2.246-.78-.215-1.574-.457-2.34-.699.229-1.278.901-2.501 1.883-3.16z" fill="#2b2b37" opacity=".29"/><path d="m143.754 97.6737s1.196-.3227 1.385-.4975c.188-.1748 1.385-.2958.282-2.6222s-1.385-3.6442-1.519-4.5989c-.148-.9413-1.184-1.3447-1.184-1.3447l-1.291 6.2125z" fill="#464558"/><path d="m145.341 97.7273s.188-.0538.268.1345c.081.1883.081.6455.081.6455s-.403.7934-.551 1.0085c-.108.1479-.431-.6724-.431-.6992.014-.0269.633-1.0893.633-1.0893z" fill="#464558"/><path d="m146.255 99.5026s.484-.0538.713.2286c.228.2958.511 1.4788 1.438 2.2588.928.794 1.977 2.112 1.977 2.112s-2.595-.673-2.635-.606c-.041.068-1.09-1.358-1.117-1.438-.027-.068-.376-2.5554-.376-2.5554z" fill="#464558"/><g fill="#2b2b37" opacity=".29"><path d="m143.754 97.6737s1.196-.3227 1.385-.4975c.188-.1748 1.385-.2958.282-2.6222s-1.385-3.6442-1.519-4.5989c-.148-.9413-1.184-1.3447-1.184-1.3447l-1.291 6.2125z" opacity=".29"/><path d="m145.341 97.7273s.188-.0538.268.1345c.081.1883.081.6455.081.6455s-.403.7934-.551 1.0085c-.108.1479-.431-.6724-.431-.6992.014-.0269.633-1.0893.633-1.0893z" opacity=".29"/><path d="m146.255 99.5026s.484-.0538.713.2286c.228.2958.511 1.4788 1.438 2.2588.928.794 1.977 2.112 1.977 2.112s-2.595-.673-2.635-.606c-.041.068-1.09-1.358-1.117-1.438-.027-.068-.376-2.5554-.376-2.5554z" opacity=".29"/></g><path d="m154.969 106.427c-.068-.027-.121-.067-.189-.094-.094-.04-.188-.094-.282-.148-.108-.054-.229-.107-.336-.175-1.816-.941-3.537-2.044-5.11-3.388-.215-.229-.444-.444-.659-.632-.928-.794-1.197-1.977-1.439-2.2596-.229-.2958-.713-.2286-.713-.2286-.201-.3227-.39-.6454-.564-.995 0 0 0-.4573-.081-.6455-.081-.1883-.269-.1345-.269-.1345-.067-.1748-.134-.3631-.202-.5513.189-.1748 1.385-.2959.283-2.6222-.632-1.3313-.995-2.3398-1.211-3.1332-2.662-.2286-6.763 2.0574-5.19 9.8029.807 3.967 2.42 7.759 4.72 11.094.201.282.444.592.78.645.807.121 6.037-3.227 6.71-3.671 1.345-.86 2.622-1.802 3.752-2.864z" fill="#21212b" opacity=".34"/><path d="m95.4512 57.0228v-.7665c-.0672.0942-.1345.2018-.2017.3093.0672.1479.1345.3093.2017.4572z" fill="#2b2b37"/><path d="m90.5024 130.821c.0807-.457.2017-.954.5648-1.237.2958-.228.6993-.269 1.0758-.296 12.842-.82 30.7-2.904 40.113-3.335 36.334-1.68 41.821.565 41.821.565l-17.226 21.973h4.37c-1.197.928-2.461 1.761-3.765 2.501-4.505 2.582-9.494 4.196-14.496 5.567-10.919 2.972-22.148 4.828-33.443 5.527-7.302.444-15.1284.282-21.2468-3.738-.2017-9.198.5379-18.45 2.2322-27.527z" fill="#464558"/><path d="m90.5027 130.822c.0807-.457.2017-.955.5648-1.237.2958-.229.6992-.269 1.0758-.296 12.8417-.82 30.6997-2.905 40.1127-3.335 5.177-.242 9.736-.403 13.73-.497.013.013.027.04.027.053.537.874 1.264 1.574 2.057 2.206 3.362 2.622 7.813 3.644 11.995 3.913 2.434.161 4.868.013 7.302-.229.995-.107 2.084-.094 3.119-.282l-13.622 17.387h4.371c-1.197.928-2.461 1.762-3.765 2.501-4.505 2.582-9.494 4.196-14.496 5.567-10.92 2.972-22.148 4.828-33.444 5.527-7.301.444-15.1276.282-21.2461-3.738-.2151-9.212.5245-18.463 2.2188-27.54z" fill="#2b2b37" opacity=".48"/><path d="m90.6909 147.348c2.9449-1.452 4.6931-4.101 6.5891-6.683 1.0086-1.372 2.0978-2.703 3.469-3.725 1.601-1.197 3.389-2.178 5.245-2.918 3.657-1.466 7.597-2.044 11.511-2.192 4.074-.161 8.135.148 12.115 1.035 3.981.888 7.813 2.286 11.511 3.994 3.752 1.735 7.369 3.725 11.242 5.164 2.595.968 5.258 1.614 7.974 2.03l-3.483 4.452h4.371c-1.197.927-2.461 1.761-3.766 2.501-4.504 2.582-9.493 4.195-14.496 5.567-10.919 2.972-22.147 4.827-33.443 5.527-7.301.443-15.1277.282-21.2461-3.739-.0807-3.375-.0269-6.764.1613-10.139.7665-.228 1.5196-.511 2.2457-.874z" fill="#2b2b37" opacity=".48"/><path d="m86.6163 143.596c2.6222-3.913 5.6075-7.598 8.9693-10.892 2.5012-2.448 5.2314-4.68 8.2164-6.536-8.2164-.766-16.1502-1.533-21.435-1.775-36.3342-1.681-41.8206.565-41.8206.565l17.2258 21.973h-4.3703c1.1968.928 2.4608 1.761 3.7652 2.501 4.5048 2.582 9.4937 4.195 14.496 5.567 2.797.767 5.6075 1.452 8.4448 2.058 1.3851-4.801 3.7114-9.292 6.5084-13.461z" fill="#464558"/><path d="m57.1402 149.446c3.5231 2.03 7.3556 3.456 11.2552 4.639.6455-.484 1.2641-.982 1.8961-1.479 2.0171-1.6 4.061-3.147 6.0646-4.76 2.1112-1.695 4.1418-3.456 6.2126-5.204 4.1149-3.47 8.418-6.899 13.3665-9.091 2.2995-1.022 4.7338-1.748 7.2208-2.138 2.569-.403 5.177-.457 7.786-.336 3.026.148 6.065.282 9.091.444 1.506.08 3.012.188 4.518.336-.148-.861-.296-1.721-.457-2.582-.081-.457-.202-.955-.565-1.237-.296-.229-.699-.269-1.076-.296-12.842-.82-30.6999-2.904-40.1129-3.335-5.1771-.242-9.7357-.403-13.7295-.497-.0135.013-.0269.04-.0269.053-.5379.875-1.264 1.574-2.0574 2.206-3.3618 2.622-7.8128 3.644-11.9949 3.913-2.4339.161-4.8679.013-7.3018-.229-.9951-.107-2.0843-.094-3.1197-.282l13.6219 17.387h-4.3703c1.2102.901 2.4743 1.735 3.7787 2.488z" fill="#2b2b37" opacity=".48"/><path d="m123.919 145.775c-2.945-1.452-4.693-4.102-6.589-6.683-1.009-1.372-2.098-2.703-3.47-3.725-1.6-1.197-3.388-2.179-5.244-2.918-3.658-1.466-7.598-2.044-11.5108-2.192-4.0745-.162-8.1356.148-12.1159 1.035-3.9804.888-7.8128 2.286-11.5108 3.994-3.7518 1.735-7.369 3.725-11.2418 5.164-2.5953.968-5.2579 1.613-7.9742 2.03l3.4828 4.451h-4.3703c1.1968.928 2.4608 1.762 3.7652 2.501 4.5048 2.582 9.4937 4.196 14.496 5.568 10.9191 2.971 22.1475 4.827 33.4428 5.526 7.302.444 15.128.283 21.247-3.738.081-3.375.027-6.764-.162-10.139-.766-.215-1.519-.511-2.245-.874z" fill="#2b2b37" opacity=".48"/><path d="m149.025 125.442c2.85.431 6.858 1.964 14.657 3.026 0 0-3.443 8.189-7.342 8.525-3.9.337-7.746-2.743-7.746-2.743z" fill="#2b2b37" opacity=".29"/><path d="m151.97 125.792c-11.336-2.313-55.7793-2.824-61.454-2.877-5.715-.054-27.2574 3.751-28.4945 4.383 6.8715 5.608 19.4849 15.895 19.4849 15.895 3.0525 1.721 6.1319 3.456 9.4937 4.437 3.2811.955 6.7236 1.157 10.1389 1.211 14.927.201 30.324-2.703 42.614-11.175 1.157-.793 2.286-1.654 3.201-2.716 2.124-2.488 9.399-4.653 12.385-7.504-2.448-.645-4.909-1.156-7.369-1.654z" fill="#575770"/><path d="m83.2948 124.192c-1.4523.659-5.0293 1.318-4.599 3.536.3093 1.627 2.3667 1.668 3.6711 1.506 1.5868-.188 2.9046-.188 3.9535 1.17.4168.538.7127 1.157 1.1833 1.641.7531.793 1.5868.86 2.6088.538 1.0354-.336 1.9767-.834 3.0659-1.022 1.1296-.188 2.2726-.215 3.4156-.067 1.9633.268 3.523 1.089 5.096 2.259 1.439 1.075 2.824 2.259 4.451 3.039 1.399.672 3.47.968 4.653-.31.861-.927.148-2.501-.215-3.509-.43-1.211-1.022-2.582-.74-3.9.337-1.56 1.695-2.071 3.161-1.936 1.654.161 3.482.659 5.002 1.331 1.923.834 3.375 2.286 5.137 3.335 2.353 1.398 6.253 1.533 6.656-1.937.256-2.124-.699-4.235-1.788-6.01 0-.014-.014-.014-.014-.027-16.029-.686-33.9943-.888-37.4771-.915-1.2909-.013-3.3618.175-5.8361.471-.4169.336-.9009.592-1.385.807z" fill="#2b2b37" opacity=".25"/><path d="m72.8063 131.346c1.0623-.081 2.1112-.216 3.1466-.458 1.0085-.228 2.1247-.551 2.918-1.237.7262-.618.8472-1.519.39-2.34-.4841-.86-1.4792-1.183-2.407-1.29-2.1919-.243-4.4645.349-6.5488.914-1.143.309-2.2726.605-3.429.861-.9817.215-1.9902.39-2.9987.47-.2018.014-.4035.027-.6186.027 1.0085.834 2.1112 1.721 3.2542 2.663 2.0843.04 4.2224.538 6.2933.39z" fill="#2b2b37" opacity=".25"/><path d="m83.5638 124.246c.6859.685 1.4389 1.331 2.2592 1.855 2.2456 1.439 4.7737 2.38 7.3287 3.093 2.5549.726 5.1637 1.224 7.7863 1.681 3.066.538 6.118.928 9.238 1.022 6.078.188 12.143-.471 18.234-.484 5.029-.014 10.408.497 14.644 3.469.74.525 1.452 1.116 2.098 1.775.659-.511 1.277-1.075 1.815-1.708 2.125-2.487 9.4-4.652 12.385-7.503-2.434-.632-4.895-1.143-7.356-1.641-11.336-2.312-55.7784-2.823-61.4531-2.877-1.5733-.014-4.3434.255-7.5707.686.1882.215.3899.416.5916.632z" fill="#2b2b37" opacity=".25"/><path d="m151.97 125.792c-11.336-2.313-55.7792-2.824-61.4539-2.878-.5379 0-1.2102.027-2.0036.081-.2959 1.385-.9413 2.662-1.8019 3.792-1.9768 2.568-4.9083 4.007-7.9339 4.989-3.2407 1.035-6.6832 1.425-10.0584.995 6.2394 5.083 12.7882 10.435 12.7882 10.435 3.0525 1.721 6.1319 3.456 9.4937 4.437 3.2811.955 6.7236 1.157 10.1388 1.211 14.927.201 30.324-2.703 42.614-11.175 1.157-.793 2.286-1.654 3.201-2.716 2.124-2.488 9.399-4.653 12.385-7.504-2.448-.659-4.909-1.17-7.369-1.667z" fill="#2b2b37" opacity=".25"/><path d="m151.969 125.792c-3.98-.807-12.035-1.398-21.058-1.829-.995 1.964-2.286 3.779-3.55 5.352-3.12 3.887-7.154 7.1-11.376 9.709-2.326 1.439-4.774 2.69-7.302 3.739-2.662 1.102-5.446 1.882-8.203 2.716-2.8236.847-5.6609 1.667-8.5117 2.393 2.9852.74 6.0915.915 9.1847.955 14.926.202 30.323-2.703 42.614-11.174 1.156-.794 2.286-1.654 3.2-2.717 2.125-2.487 9.4-4.652 12.385-7.503-2.461-.632-4.922-1.143-7.383-1.641z" fill="#2b2b37" opacity=".25"/><path d="m110.256 184.838c.632.027 1.264.04 1.896.067 2.3.067 4.572-.457 6.643-1.466 2.972-1.452 6.078-2.689 9.319-3.617 4.196-1.21 8.539-1.681 12.882-1.882 4.398-.216 8.607-.834 12.829-2.058 2.084-.605 4.142-1.291 6.186-2.003 1.748-.606 3.523-1.17 5.231-1.91 2.864-1.237 5.54-2.945 7.974-4.895 4.747-3.805 9.319-9.184 12.022-15.168 2.797-7.988 1.479-15.827-3.819-21.421-9.023-9.508-22.229-1.318-31.722 5.23-7.773 5.366-16.755 8.647-25.63 11.874-14.254 5.191-7.222 2.434-19.216 12.022-3.241 2.595-4.8683 2.676-4.546 6.804.121 1.587.646 3.107.928 4.667.431 2.312.336 4.706.78 7.019.43 2.313 1.533 4.68 3.604 5.809 1.385.767 3.039.874 4.639.928z" fill="#464558"/><path d="m168.066 135.043c-.323-.35-.874-.457-1.305-.256-.43.202-.686.632-.901 1.049s-.443.861-.833 1.116c-.39.256-1.022.216-1.224-.215-.202-.417.107-.901.403-1.264.444-.551.901-1.089 1.345-1.64.309-.377.645-.888.43-1.332-.269-.551-1.102-.443-1.627-.134-.833.484-1.506 1.25-1.869 2.138-.175.43-.282.888-.538 1.264-.578.874-1.734 1.103-2.77 1.278-2.192.389-3.792 2.232-5.661 3.402-2.165 1.371-4.397 2.608-6.71 3.725-4.599 2.205-9.481 3.859-14.51 4.76-5.083.901-10.569 1.129-14.778 4.115-2.528 1.788-4.317 4.41-5.998 6.992-1.075 1.641-6.548 1.52-8.162 2.676-.982.699-.161 1.937.309 3.201h.834c2.447 0 4.868.053 7.315 0 1.587-.041 3.214-.175 4.626-.982 1.21-.686 2.219-1.668 3.389-2.407 2.084-1.304 4.612-1.251 7.019-1.13 6.226-1.519 12.748-2.716 17.508-6.898 1.937-1.708 4.586-3.443 6.536-5.137 3.012-2.622 5.728-4.437 9.292-6.253 1.196-.605 2.662-1.331 3.657-2.232.942-.847.794-2.421 1.869-3.187.78-.565 2.031-.484 2.502-1.318.242-.417.174-.981-.148-1.331z" fill="#2b2b37"/><path d="m110.257 184.838c.632.027 1.264.04 1.896.067 2.299.068 4.572-.457 6.642-1.465 2.972-1.453 6.079-2.69 9.319-3.618 4.196-1.21 8.539-1.681 12.883-1.882 4.397-.215 8.606-.834 12.828-2.058 2.085-.605 4.142-1.291 6.186-2.003 1.748-.605 3.523-1.17 5.231-1.91 2.864-1.237 5.54-2.945 7.974-4.895 4.518-3.63 8.875-8.686 11.632-14.321 3.227-8.324 2.004-16.54-3.429-22.268-3.752-3.954-8.216-4.841-12.842-4.075.403.269.78.565 1.143.874 2.205 1.937 3.389 4.68 3.483 7.598.107 3.456-1.103 6.777-3.147 9.534-2.098 2.851-4.922 5.123-7.893 7.006-3.04 1.923-6.28 3.456-9.642 4.72-3.725 1.412-7.571 2.649-10.933 4.841-.86.565-1.694 1.183-2.46 1.869-.78.699-1.466 1.479-2.179 2.246-1.089 1.156-2.205 2.487-3.738 3.039-1.547.565-2.985 1.318-4.505 1.95-.874.363-1.762.685-2.689.86-.901.162-1.829.175-2.744.215-2.77.108-5.526.417-8.256.888-.552.094-1.116.202-1.681.121s-1.116-.363-1.372-.874c-.336-.699.027-1.574.619-2.085.592-.51 1.358-.753 2.071-1.075 1.076-.471 2.084-1.13 2.958-1.923.377-.35.74-.726.915-1.224.161-.484.08-1.089-.337-1.398-.242-.189-.564-.242-.874-.269-1.264-.108-2.568.215-3.644.887-1.425.901-2.461 2.421-4.061 2.959-2.084.685-4.68-.471-6.401.887-.726.578-1.102 1.479-1.371 2.367-.753 2.501-.323 5.137.148 7.638.43 2.313 1.532 4.679 3.603 5.809 1.412.807 3.066.914 4.667.968z" fill="#2b2b37" opacity=".0841"/><path d="m110.257 184.838c.632.027 1.264.04 1.896.067 2.299.067 4.572-.457 6.642-1.466 2.972-1.452 6.079-2.689 9.319-3.617 4.196-1.21 8.539-1.681 12.883-1.883 4.397-.215 8.606-.833 12.828-2.057 2.085-.605 4.142-1.291 6.186-2.004 1.748-.605 3.523-1.169 5.231-1.909 2.864-1.237 5.54-2.945 7.974-4.895 4.518-3.631 8.875-8.687 11.632-14.321 3.227-8.324 2.004-16.54-3.429-22.269-2.259-2.38-4.774-3.644-7.423-4.114.767.645 1.493 1.331 2.178 2.057 2.3 2.421 3.941 5.54 4.546 8.835.336 1.869.309 3.846-.471 5.607-.807 1.829-2.326 3.335-3.738 4.707-1.453 1.425-2.972 2.824-4.075 4.558-.565.901-.941 1.87-1.358 2.824-.417.955-.874 1.883-1.398 2.797-.969 1.708-2.139 3.281-3.497 4.693-1.479 1.547-3.16 2.905-4.868 4.182-3.469 2.596-7.382 4.693-11.752 5.137-2.609.269-5.258.027-7.84.605-2.448.552-4.68 1.668-6.804 2.959-2.017 1.223-3.967 2.528-6.132 3.483-2.098.914-4.33 1.533-6.63 1.586-1.264.027-2.541-.067-3.805-.094-1.184-.013-2.407.067-3.591-.027-3.375-.255-4.626-3.94-5.19-6.75-.363-1.829-.874-3.819-2.394-4.895-.928-.659-2.165-.874-3.268-.565-1.102.31-2.03 1.157-2.474 2.206-.323.766-.376 1.627-.376 2.447-.027 3.671.914 9.225 4.518 11.188 1.425.767 3.079.874 4.68.928z" fill="#2b2b37" opacity=".0841"/><path d="m110.902 180.938c-.135-1.372-.538-2.716-.901-4.034-.417-1.52-.874-3.039-1.399-4.518-.47-1.332-.968-2.676-1.654-3.913-.887-.538-2.017-.686-3.012-.404-1.102.309-2.03 1.157-2.474 2.205-.323.767-.376 1.628-.376 2.448-.027 3.671.914 9.225 4.518 11.188 1.264.686 2.73.834 4.168.901 1.049-1.022 1.278-2.461 1.13-3.873z" fill="#2b2b37" opacity=".0841"/><path d="m57.127 176.205c.2017-.915 1.0354-2.112 2.044-2.219-1.0489.107-1.9902.175-2.7701-.7-.4707-.524-.6993-1.277-.6051-1.976.1075-.78.5916-1.479 1.2371-1.937 1.9095-1.358 3.7383-.201 5.7823-.538.8875-.147 1.7212-.511 2.5684-.779 3.039-.996 6.1453-.592 9.2651-.552 2.8239.027 5.6612.242 8.4582.646 2.555.363 5.1234.887 7.6918.685 4.72-.363 7.3959-3.065 11.0533-5.432 1.224.699 3.362 4.532 5.151 9.399.874 2.394 1.519 4.64 1.909 6.482-4.074 1.291-7.947 4.411-12.1024 5.97-4.0745 1.52-8.5255 1.52-12.8689 1.493-3.8325-.027-7.7053.094-11.5243-.067-1.5598-.067-3.2138.094-4.7468-.296-1.4523-.363-2.9584-1.049-4.3703-1.6-.3766-.148-.7531-.296-1.0355-.578-.2555-.269-.4034-.619-.5782-.955-.3496-.673-.8606-1.278-1.4523-1.748-.3227-.256-.6858-.484-.9413-.821-.2017-.269-.3227-.591-.511-.86-.2689-.377-.6454-.659-.9547-1.009-.632-.686-.901-1.694-.6993-2.608z" fill="#575770"/><path d="m106.989 172.802c-.336-.914-.686-1.788-1.036-2.622-.053-.134-.121-.269-.174-.403-.296-.673-.592-1.318-.874-1.91-.121-.242-.229-.47-.35-.686-.175-.336-.35-.645-.511-.954-.108-.202-.229-.39-.336-.565-.108-.175-.215-.35-.323-.511-.215-.323-.417-.619-.619-.861-.147-.188-.282-.349-.416-.484-.175-.175-.35-.322-.498-.403-.188.121-.376.242-.551.363-.014.013-.041.027-.054.04-3.3619 2.273-5.9975 4.693-10.462 5.043-2.5684.202-5.1368-.323-7.6917-.686-2.7971-.403-5.621-.618-8.4583-.645-3.1198-.027-6.226-.444-9.2651.551-.8472.282-1.6809.645-2.5684.78-2.044.336-3.8728-.834-5.7823.538-.5782.403-1.022 1.008-1.1833 1.694-.0135.081-.0404.162-.0404.242-.0134.094-.0134.175-.0269.269-.0134.619.2152 1.251.632 1.708.0538.054.0942.108.148.148.0537.054.1075.094.1479.134.1479.121.3093.215.4706.283.1076.04.2152.08.3362.107.1076.027.2286.041.3496.054.4169.04.8472 0 1.3179-.04-.2555.027-.4976.121-.7127.255-.6186.39-1.1027 1.13-1.291 1.775-.0134.054-.0269.121-.0403.175-.0672.35-.0807.699-.0269 1.049.0807.578.3362 1.13.7261 1.573.0538.054.1076.108.1614.175.0135.014.0269.027.0538.054.0403.04.0807.081.121.121.0673.067.1345.121.2017.188.0135 0 .0135.014.0269.014.0538.053.121.121.1748.174.0807.095.1614.175.2286.283.1883.269.3093.591.511.86.2555.337.6186.565.9413.821.6052.47 1.1027 1.075 1.4523 1.748.1748.336.3228.686.5783.955.2823.282.6589.443 1.0354.578 1.4119.551 2.918 1.224 4.3703 1.6 1.533.39 3.1735.229 4.7469.296 3.8324.161 7.6917.04 11.5242.067 4.3434.027 8.8079.027 12.8689-1.493 4.1422-1.559 8.0282-4.679 12.1022-5.97-.403-1.842-1.062-4.088-1.936-6.482zm-14.2676 4.653c-.5244 1.493-1.9902 1.883-3.3618 2.246-1.4926.39-3.0256.578-4.572.578-1.2371 0-2.4608-.121-3.6845-.323-1.2775-.228-2.555-.524-3.8459-.632-3.4963-.309-5.4058 1.022-8.902.74-11.9949-.955 7.7455-5.473 12.6672-4.263 3.1197.767 6.3605-.538 9.5609-.417.4707.014.9682.067 1.3985.283.4303.215.7934.605.8472 1.075.0269.242-.0269.485-.1076.713z" fill="#2b2b37" opacity=".25"/><path d="m106.989 172.803c-1.063-2.878-2.233-5.406-3.281-7.127 0 0 0-.014-.014-.014-.054-.094-.107-.175-.161-.269-.336-.551-.673-.995-.968-1.344-.014-.014-.027-.041-.054-.054-.067-.067-.121-.135-.188-.202-.175-.188-.35-.323-.498-.403-.134.08-.255.174-.39.255-.067.054-.148.094-.215.148-.175.121-.336.229-.498.35-.013.013-.027.027-.04.027-3.1197 2.151-5.7016 4.343-9.9105 4.666-2.5685.201-5.1369-.323-7.6918-.686-2.797-.403-5.6209-.619-8.4583-.646-3.1197-.026-6.226-.443-9.2651.552-.8471.282-1.6809.645-2.5684.78-2.0439.336-3.8728-.834-5.7823.538-.3496.242-.6454.564-.8606.927.2555.216.5648.39.8875.498 2.1785.753 4.6259-.417 6.8446-.457 1.9902-.041 3.9804.349 5.9033.847 2.0844.538 4.1418.901 6.2933.941 2.1247.041 4.2493 0 6.374.081 2.0708.067 4.1417.054 6.1991-.121 5.9302-.484 15.8412-5.661 12.2912 4.33-.283.82-.727 1.573-1.3183 2.219-.6724.726-1.5464 1.237-2.4071 1.708-1.8557 1.035-3.8593 1.761-5.9302 2.218-4.4375.968-8.9692.565-13.474.471-2.4474-.054-4.9082-.04-7.3422-.215-1.9632-.135-3.9669-.578-5.6478-1.641-.8606-.551-1.5195-1.304-2.3129-1.923-.9009-.686-2.0439-.847-2.9987-1.425-.7396-.457-1.3985-1.049-1.9767-1.694-.1076-.121-.2017-.242-.2959-.364-.0537.135-.0941.283-.121.404-.2017.914.0672 1.923.6858 2.622.3093.35.6993.619.9548 1.009.1882.269.3093.591.511.86.2555.336.6185.565.9413.821.6051.47 1.1026 1.075 1.4523 1.748.1748.336.3227.685.5782.954.2824.283.6589.444 1.0354.579 1.412.551 2.918 1.223 4.3703 1.6 1.533.39 3.1736.228 4.7469.296 3.8324.161 7.6918.04 11.5242.067 4.3434.027 8.8079.027 12.8689-1.493 4.1417-1.56 8.0277-4.679 12.1027-5.97-.363-1.829-1.022-4.075-1.896-6.468z" fill="#2b2b37" opacity=".25"/><path d="m67.239 169.723c1.8288.579 3.6576.78 5.5671.821 2.1112.053 4.2359 0 6.3067-.377 2.0574-.376 4.0342-1.129 6.0647-1.614.1479-.04.2958-.026.4034 0 .0135 0 .0135-.013.0269-.013-.8472-.121-1.6809-.256-2.5146-.377-2.797-.403-5.6209-.618-8.4583-.645-3.1197-.027-6.226-.444-9.2651.551-.4437.148-.8875.31-1.3312.458 1.0489.497 2.1919.874 3.2004 1.196z" fill="#2b2b37" opacity=".74"/><path d="m97.8853 166.119c1.3043.202 2.6217.256 3.9397.296.78.027 1.547.041 2.327.014-.148-.269-.296-.511-.431-.753 0 0 0-.014-.013-.014-.054-.094-.108-.175-.161-.269-.337-.551-.673-.995-.969-1.344-.013-.014-.027-.041-.053-.054-.068-.067-.122-.135-.189-.202-.175-.188-.349-.323-.497-.403-.135.08-.256.174-.39.255-.067.054-.148.094-.215.148-.175.121-.337.229-.498.35-.013.013-.027.027-.04.027-.9685.672-1.8829 1.344-2.8107 1.949z" fill="#2b2b37" opacity=".74"/><path d="m98.3422 184.165c1.7348-2.111 3.0388-4.437 4.0068-6.979 1.036-2.716 1.816-5.607 1.628-8.539-.081-1.264-.337-2.528-.767-3.725 0-.013-.013-.026-.013-.026 1.156 1.68 2.555 4.558 3.778 7.92.874 2.393 1.52 4.639 1.91 6.481-3.752 1.184-7.342 3.94-11.1345 5.581.2017-.242.4034-.471.5917-.713z" fill="#2b2b37" opacity=".0625"/><path d="m34.4682 158.199c3.2811 2.219 7.5169 2.717 11.3359 3.443 4.0207.766 7.907 1.842 11.7125 3.348 3.698 1.466 7.3287 3.295 11.2418 4.115 4.0745.847 8.2835.202 12.2773-.726 2.0036-.471 3.9938-1.049 5.9974-1.506 2.0843-.471 4.209-.74 6.3336-.915 4.3569-.363 8.7403-.309 13.0703-.927 2.394-.337 5.245-.942 7.8-2.031 1.681-.713 2.743-2.42 2.635-4.249 0-.014 0-.014 0-.027-.148-2.353-.806-4.653-.954-7.006-.108-1.587.026-3.187-.242-4.747-.175-1.062-.337-1.815-.552-2.38h-2.931l-.094-2.34c-.417-.175-.794-.309-1.332-.551-13.9578-6.374-7.651-5.648-22.7388-7.208-9.3996-.968-18.9067-1.963-27.7549-5.271-10.8115-4.034-25.6169-8.768-32.0446 2.662-5.352 9.507-2.6222 17.791 4.1283 24.595.6723.646 1.3716 1.224 2.1112 1.721z" fill="#464558"/><path d="m34.4682 158.2c3.2811 2.219 7.5169 2.716 11.3359 3.442 4.0207.767 7.9069 1.843 11.7125 3.349 3.698 1.465 7.3287 3.294 11.2418 4.114 4.0745.848 8.2835.202 12.2773-.726 2.0036-.47 3.9938-1.049 5.9974-1.506 2.0843-.47 4.2089-.739 6.3336-.914 4.3569-.363 8.7403-.309 13.0703-.928 2.394-.336 5.245-.941 7.8-2.031 1.681-.712 2.743-2.42 2.635-4.249 0-.013 0-.013 0-.027-.148-2.353-.807-4.652-.954-7.006-.108-1.586.026-3.187-.242-4.747-.404-2.393-.996-3.321-2.165-4.02v.699h-1.412v-1.398c-.606-.256-1.305-.538-2.139-.915-9.265-4.222-9.453-5.11-12.6936-5.755-1.0086.484-2.0171.995-3.0122 1.479-2.3129 1.116-4.693 2.272-7.2346 2.783-2.4473.498-4.9351.377-7.3959.175-1.2775-.107-2.5415-.228-3.819-.282-1.3044-.067-2.5953-.027-3.8997.054-2.286.148-4.5989.027-6.8446-.404-2.286-.43-4.5182-1.197-6.5353-2.38-.9682-.565-1.9498-1.224-2.7566-2.017-5.9437-5.93-6.4547-9.332-15.9887-10.179.121.268.242.551.3362.833.6051 1.641.9009 3.376.9009 5.11 0 1.654-.2017 3.349-.7934 4.895-.9413 2.461-2.8373 4.424-5.2578 5.459-2.3398.996-5.0158 1.13-7.4363.404-.7261-.215-1.4119-.511-2.0708-.861-.4034 5.931 2.3398 11.242 6.9521 15.868.6455.619 1.3313 1.183 2.0575 1.681z" fill="#2b2b37" opacity=".29"/><path d="m34.4682 158.2c3.2811 2.218 7.5169 2.716 11.3359 3.442 4.0207.767 7.9069 1.842 11.7125 3.348 3.698 1.466 7.3287 3.295 11.2418 4.115 4.0745.847 8.2835.202 12.2773-.726 2.0036-.47 3.9938-1.049 5.9974-1.506 2.0843-.471 4.209-.74 6.3336-.914 4.3569-.363 8.7403-.31 13.0703-.928 2.394-.336 5.245-.941 7.8-2.031 1.681-.712 2.743-2.42 2.635-4.249 0-.013 0-.013 0-.027-.148-2.353-.806-4.653-.954-7.006-.041-.524-.041-1.035-.054-1.56-3.886-.659-7.921-.497-11.807-.04-2.34.269-4.666.632-6.952 1.143-2.407.551-4.7737 1.251-7.1404 1.977-4.7334 1.465-9.5072 3.106-14.4423 3.778-4.6123.632-9.2247-.027-13.6354-1.371-2.2457-.686-4.451-1.52-6.6429-2.38-2.0977-.834-4.2224-1.614-6.2529-2.596-3.8459-1.855-7.517-4.289-11.699-5.311-3.2811-.807-7.3153-.404-9.4668 2.528-.2959.403-.5379.833-.7262 1.277 1.2103 2.609 3.0391 5.07 5.3116 7.356.6455.618 1.3313 1.183 2.0575 1.681z" fill="#2b2b37" opacity=".29"/><path d="m107.903 144.079c-.807-.43-1.856-.511-2.595.027-.189.135-.363.336-.417.565-.108.484.309.901.712 1.183.431.31.915.579 1.453.592.43.014.847-.134 1.264-.215.524-.108 1.492.108 1.291-.659-.162-.551-1.237-1.237-1.708-1.493z" fill="#2b2b37" opacity=".29"/><path d="m157.039 133.08c-.592-.713-1.91-1.385-2.837-1.009.981-.403 1.842-.766 2.124-1.909.175-.686.027-1.452-.39-2.031-.457-.645-1.21-1.035-1.99-1.143-2.326-.322-3.402 1.574-5.379 2.219-.847.283-1.748.35-2.635.498-3.147.524-5.715 2.339-8.459 3.819-2.487 1.344-4.894 2.85-7.181 4.504-2.084 1.507-4.114 3.161-6.494 4.183-4.344 1.869-7.975.726-12.318.336-.767 1.183-.861 5.58-.175 10.717.336 2.528.807 4.814 1.331 6.616 4.209-.753 9.091.202 13.488-.35 4.316-.537 8.256-2.622 12.089-4.666 3.389-1.802 6.858-3.496 10.179-5.419 1.359-.793 2.878-1.412 4.061-2.474 1.117-.995 2.125-2.3 3.12-3.443.269-.296.525-.618.646-.995.107-.363.067-.739.067-1.116 0-.766.161-1.533.471-2.232.174-.377.376-.753.443-1.157.054-.322.014-.672.054-.995.054-.457.269-.887.377-1.331.242-.901 0-1.909-.592-2.622z" fill="#464558"/><path d="m157.039 133.08c-.592-.713-1.91-1.385-2.837-1.009.981-.403 1.842-.766 2.124-1.909.175-.686.027-1.452-.39-2.031-.457-.645-1.21-1.035-1.99-1.143-2.326-.322-3.402 1.574-5.379 2.219-.847.283-1.748.35-2.635.498-3.147.524-5.715 2.339-8.459 3.819-2.487 1.344-4.894 2.85-7.181 4.504-2.084 1.507-4.114 3.161-6.494 4.183-4.344 1.869-7.975.726-12.318.336-.767 1.183-.861 5.58-.175 10.717.336 2.528.807 4.814 1.331 6.616 4.209-.753 9.091.202 13.488-.35 4.316-.537 8.256-2.622 12.089-4.666 3.389-1.802 6.858-3.496 10.179-5.419 1.359-.793 2.878-1.412 4.061-2.474 1.117-.995 2.125-2.3 3.12-3.443.269-.296.525-.618.646-.995.107-.363.067-.739.067-1.116 0-.766.161-1.533.471-2.232.174-.377.376-.753.443-1.157.054-.322.014-.672.054-.995.054-.457.269-.887.377-1.331.242-.901 0-1.909-.592-2.622z" fill="#575770"/><path d="m139.974 133.941c1.197-.713 2.3-1.56 3.443-2.34.968-.659 1.923-1.332 2.905-1.95-.135.013-.256.04-.39.067-3.147.525-5.716 2.34-8.459 3.819-.484.256-.968.525-1.452.807.04 1.519 3.416-.081 3.953-.403z" fill="#a4a4a4" opacity=".0441"/><path d="m157.039 133.08c-.592-.713-1.909-1.385-2.837-1.009.981-.403 1.842-.766 2.124-1.909.175-.686.027-1.452-.39-2.031-.067-.094-.134-.174-.201-.255-.108.43-.39.82-.726 1.156-1.076 1.049-2.999 1.453-3.443 3.039-.323 1.157.121 2.421.404 3.537.268 1.076.43 2.205.094 3.295-.579 1.855-2.663 2.945-4.33 3.657-2.327.995-4.909 1.251-7.06 2.636-1.089.699-2.084 1.56-3.106 2.353-.982.753-2.017 1.426-3.107 2.004-2.084 1.089-4.357 1.802-6.71 1.99-2.42.188-4.814-.202-7.1-.968-2.084-.699-4.061-1.735-5.433-3.496-.954-1.224-2.232-2.744-2.339-4.384-.458-.054-.915-.108-1.385-.148-.767 1.183-.861 5.58-.175 10.717.336 2.528.807 4.814 1.331 6.616 4.209-.753 9.09.202 13.488-.349 4.316-.538 8.256-2.623 12.089-4.667 3.388-1.802 6.858-3.496 10.179-5.419 1.358-.793 2.878-1.412 4.061-2.474 1.116-.995 2.125-2.3 3.12-3.443.269-.295.524-.618.645-.995.108-.363.068-.739.068-1.116 0-.766.161-1.533.47-2.232.175-.376.377-.753.444-1.156.054-.323.013-.673.054-.996.054-.457.269-.887.376-1.331.229-.901-.013-1.909-.605-2.622z" fill="#2b2b37" opacity=".0625"/><path d="m124.255 159.316c-2.515-1.063-4.747-2.515-6.791-4.317-2.178-1.923-4.209-4.128-5.419-6.804-.525-1.157-.874-2.394-1.062-3.658 0-.013 0-.027 0-.027-.242 2.031-.135 5.218.336 8.768.336 2.528.807 4.814 1.331 6.616 3.873-.699 8.337.067 12.452-.242-.296-.108-.565-.229-.847-.336z" fill="#2b2b37" opacity=".0625"/><path d="m133.144 67.9145c-.162-.4706-.404-.9951-.74-1.5733-1.909-3.3349-1.479-9.1844-1.479-9.1844s-.619-.4169-4.196-1.412c-3.213-.9009-16.311-5.0964-18.126-5.2175 0 0-1.278 4.3973-4.922 5.4865l-.699.4034c-3.6579-1.0892-4.1285-5.8899-4.1285-5.8899-1.8154.1211-14.9129 4.33-18.1268 5.2175-2.8508.7934-3.819 1.2237-4.1014 1.3582.4975 2.8239.2555 5.715-.2689 8.5524-.4976 2.7298-1.2775 5.3923-1.7751 8.1221-.6454 3.5904-.1882 5.5671.2421 7.1942.4572 1.7481 1.533 5.4058 1.5868 5.5671 1.9767 7.006 2.4608 14.3612 2.6759 21.6092.1076 3.524.148 7.047.269 10.57.0672 1.936.2017 3.873.2958 5.809 1.3447.161 3.4963.161 3.7383.444.7531.847 4.7603 4.384 19.0408 4.585.444 0 .874-.013 1.305-.027.43.014.86.027 1.304.027 14.281-.215 18.288-3.751 19.041-4.585.363-.404 4.68-.229 4.828-.794.188-.658.349-1.304.524-1.923-.134-1.761-.201-3.523-.215-5.298-.013-7.866.699-15.679 1.076-23.5188.188-3.819.336-7.7052 1.573-11.3494.578-1.7212 1.318-3.3752 2.085-5.0158.026-.121.04-.2286.067-.3496.591-3.3618.201-6.2798-.874-8.8079z" fill="#575770"/><path d="m76.0066 81.4297c-.5647-.6455-1.0892-1.3313-1.5598-2.044.1076.5783.2286 1.0893.3496 1.5599.4572 1.7481 1.533 5.4058 1.5868 5.5671 1.0623 3.7921 1.6943 7.6784 2.0843 11.6049 1.3447-2.6222 2.7835-5.2847 2.8911-8.2162.1614-3.6979-3.1466-5.9705-5.352-8.4717z" fill="#2b2b37" opacity=".25"/><path d="m133.144 67.9148c-.162-.4706-.404-.9951-.74-1.5733-1.91-3.3349-1.479-9.1844-1.479-9.1844s-.484-.3227-3.066-1.0892c.834 24.178-15.061 56.9351-48.652 57.7691.0404 1.627.0807 3.241.1345 4.868.0672 1.936.2017 3.873.2958 5.809 1.3448.161 3.4963.161 3.7383.444.7531.847 4.7603 4.383 19.0414 4.585.228 0 .457-.013.686-.013.201 0 .416-.014.618-.014h.229c.43.014.86.027 1.304.027 14.093-.242 18.06-3.752 18.813-4.585.134-.148.833-.215 1.654-.283 1.223-.739 2.434-1.519 3.617-2.313.013-.013.04-.027.054-.04.013-.027.013-.067.027-.094-.135-1.762-.202-3.523-.215-5.298-.014-7.867.699-15.68 1.075-23.5194.189-3.819.337-7.7052 1.574-11.3494.578-1.7212 1.317-3.3752 2.084-5.0158.027-.121.04-.2286.067-.3496.605-3.3349.215-6.2529-.86-8.781z" fill="#2b2b37" opacity=".25"/><path d="m133.144 67.9148c-.162-.4706-.404-.9951-.74-1.5733-1.91-3.3349-1.479-9.1844-1.479-9.1844s-.336-.2286-1.964-.7396c3.201 24.9176-3.819 60.9295-49.7271 59.2215.0269 1.022.0538 2.044.0941 3.066.0673 1.936.2017 3.873.2959 5.809 1.3447.161 3.4962.161 3.7383.444.753.847 4.7603 4.383 19.0408 4.585.229 0 .458-.013.686-.013.202 0 .417-.014.619-.014h.228c.431.014.861.027 1.305.027 14.092-.242 18.059-3.752 18.812-4.585.135-.148.834-.216 1.654-.283 1.224-.739 2.434-1.519 3.618-2.313.013-.013.04-.027.053-.04.014-.027.014-.067.027-.094-.134-1.762-.201-3.523-.215-5.298-.013-7.867.699-15.68 1.076-23.5194.188-3.819.336-7.7052 1.573-11.3494.578-1.7212 1.318-3.3752 2.084-5.0158.027-.121.041-.2286.068-.3496.618-3.3349.228-6.2529-.847-8.781z" fill="#2b2b37" opacity=".25"/><path d="m130.414 90.9771c-.35.5916-.713 1.1699-1.062 1.7615-1.708 2.8374-3.416 5.8495-3.55 9.2514-.121 3.133.833 6.24.04 9.333-1.237 4.746-5.5 7.92-9.413 10.448-2.017 1.304-4.102 2.515-6.105 3.832-2.165 1.412-4.37 2.757-6.683 3.914h.08.229c.43.013.861.026 1.304.026 14.093-.242 18.06-3.751 18.813-4.585.134-.148.834-.215 1.654-.282 1.224-.74 2.434-1.52 3.617-2.313.014-.014.04-.027.054-.041.013-.027.013-.067.027-.094-.135-1.761-.202-3.523-.215-5.298-.014-7.867.699-15.679 1.075-23.519.054-.8068.095-1.6137.135-2.4339z" fill="#2b2b37" opacity=".25"/><path d="m105.873 67.0808c-.43-.5244-1.036-.9547-1.56-1.3985-.632-.5244-1.264-1.0488-1.896-1.5733-1.251-1.0354-2.4877-2.0977-3.6576-3.2273-1.7616-1.7078-3.4156-3.6173-4.4914-5.8226-.7934.2017-1.6271.4706-2.4877.7799 1.3581 2.6626 2.8911 5.2444 4.5451 7.7187.7934 1.1833 1.6002 2.3532 2.5012 3.4559.8741 1.0623 1.8424 2.1247 3.0124 2.8777.484.3093 1.022.5379 1.56.632.04-.1479.067-.2958.107-.4437.027-.1076.188-.0673.162.0403-.027.1345-.068.2824-.095.4169.632.0806 1.291 0 1.896-.3228 1.251-.6589 1.224-2.1381.404-3.1332z" fill="#575770"/><path d="m117.895 53.1499c-.538 1.0354-2.111 5.0023-2.77 5.9705-.807 1.2103-1.722 2.313-2.569 3.4829-.739 1.0219-1.452 2.0574-2.245 3.0525-.807 1.0219-1.681 2.017-2.73 2.797-.31.2286-.646.4303-.995.5916-.215.9145-1.09 1.4658-2.017 1.6272-.363.0672-.713.0672-1.063.0268-1.102 4.5586-3.496 8.7004-6.0779 12.5731-2.407 3.6173-5.0561 7.0867-7.49 10.6905-2.4474 3.6173-4.4914 7.45-5.7823 11.632-.7127 2.313-1.2102 4.679-1.7078 7.046-.5379 2.528-1.022 5.056-1.5061 7.584-.2824 1.453-.5379 2.891-.6992 4.357 1.3043.108 2.8777.148 3.0928.377.2017.228.632.645 1.412 1.129.0269-1.519.2017-3.025.511-4.518 5.3654-25.4554 39.7905-65.6355 32.6365-68.4191z" fill="#2b2b37" opacity=".25"/><path d="m126.716 55.7454c-2.488-.6992-10.892-3.3618-15.411-4.5989-2.165 3.1735-5.446 4.3703-7.638 4.8544-3.832-.8472-6.4273-1.4523-6.4273-1.4523-1.8422.1345-4.1283.7262-6.5756 1.7212 1.4119 2.1919 3.9938 3.7249 6.3336 4.72 1.7615.7396 3.6043 1.3044 5.4863 1.654 1.668.3093 3.348.632 5.043.8068 1.654.1614 3.281.0538 4.935-.1075 4.706-.4572 18.799-.1614 18.839-.2286-.591-2.9315-.363-5.9571-.363-5.9571s-.645-.4169-4.222-1.412z" fill="#2b2b37" opacity=".25"/><path d="m129.203 116.944c0-.014 0-.027 0-.041-10.757 2.528-33.2947 4.357-49.9154.619.0134.39.0269.78.0403 1.17.0673 1.936.2017 3.873.2959 5.809 1.3447.161 3.4962.161 3.7383.444.753.847 4.7603 4.383 19.0409 4.585.229 0 .457-.013.686-.013.202 0 .417-.014.619-.014h.228c.431.014.861.027 1.305.027 14.092-.242 18.059-3.752 18.812-4.585.135-.148.834-.215 1.654-.283 1.224-.739 2.434-1.519 3.617-2.313.014-.013.041-.026.054-.04.014-.027.014-.067.027-.094-.121-1.735-.202-3.51-.202-5.271z" fill="#2b2b37" opacity=".25"/><path d="m102.175 72.0434c-14.3347 6.9657-21.3003 32.9726-22.9274 43.6896.0269.995.0537 1.977.0941 2.972.0403 1.076.0941 2.165.1614 3.241.4168.739 1.0219 1.291 1.8557 1.304 1.1699.014 2.0036-1.102 2.5684-2.138 3.8324-6.979 4.6258-15.195 7.5304-22.5911 1.5195-3.8728 3.6038-7.5035 5.8495-10.9998 1.533-2.3936 3.5499-4.5855 4.3029-7.369.269-1.0892 3.147-9.3592.565-8.1087z" fill="#2b2b37" opacity=".25"/><path d="m94.2681 57.2515s.6454 3.3349 3.3349 6.5891c2.689 3.2542 5.89 6.2395 5.89 6.2395l4.088-1.6137s-3.886-2.2591-7.221-5.352c-3.3218-3.0928-6.0919-5.8629-6.0919-5.8629z" fill="#2b2b37" opacity=".25"/><path d="m102.74 75.311c.484-.511 1.008-.9951 1.506-1.4791 1.21-1.1834 2.393-2.4071 3.536-3.6711-10.4748-6.5085-11.4699-9.2786-17.8842-19.4984-.0807-.121.632 13.9447 12.8422 24.6486z" fill="#2b2b37"/><path d="m103.533 67.3638c-.215.632-.511 1.2371-.82 1.7884-.726 1.2775-1.627 2.4878-2.7164 3.4963.8474.901 1.7614 1.8019 2.7564 2.6625.484-.5109 1.009-.995 1.506-1.4791 1.211-1.1834 2.394-2.4071 3.537-3.6711-1.641-1.0086-3.039-1.923-4.263-2.797z" fill="#21212b"/><path d="m117.088 52.0742c-1.533 5.7823-35.2452 36.0384-37.7867 65.3398.0134.43.0269.847.0403 1.277.0672 2.031.2152 4.075.3093 6.119h3.8055c-.0403-2.3.3631-4.612 1.1834-6.764 3.4021-8.875 16.4192-33.2145 20.3452-38.6606 13.205-18.315 14.201-27.3112 12.103-27.3112z" fill="#2b2b37"/><path d="m84.8009 117.575c-.4572.067-.9144.094-1.3581.067-1.412-.067-2.7567-.457-4.088-.86-.0269.228-.0403.457-.0672.686.0134.403.0269.82.0403 1.223.0673 2.031.2152 4.075.3093 6.119h3.8056c-.0404-2.3.363-4.613 1.1833-6.764.0538-.148.121-.31.1748-.471z" fill="#21212b"/><path d="m129.217 117.952c-16.97 4.518-31.735 4.908-49.9021.188 0 .188.0135.376.0135.565.0807 2.138.2286 4.276.3227 6.427 12.4117 7.289 38.5929 7.047 49.9429-.914-.215-2.084-.35-4.169-.377-6.266z" fill="#2b2b37"/><path d="m129.217 117.952c-7.934 2.111-15.397 3.321-22.941 3.536.04.068.081.135.148.202.565.632 1.466.861 2.004 1.533.47.592.188 1.224-.444 1.546-.471.229-1.869.713-1.224 1.426.35.39.834.659.847 1.237.027.847-.78 1.398-1.439 1.748-.9.484-1.922.901-2.891 1.21 10.099.094 20.306-1.95 26.316-6.172-.215-2.084-.349-4.169-.376-6.266z" fill="#21212b" opacity=".46"/><path d="m119.952 120.439c.269.579.161 1.238-.134 1.789-.148.282-.377.524-.511.82-.296.619.04.995.403 1.506.403.565.592 1.103.296 1.775-.148.35-.431.619-.646.915-.363.484-.403.927-.47 1.465 4.182-1.022 7.893-2.514 10.704-4.491-.216-2.084-.337-4.169-.377-6.266-3.227.86-6.387 1.573-9.494 2.124.081.108.162.229.229.363z" fill="#21212b"/><path d="m100.212 75.4048c-3.4158 3.7921-6.2397 8.1086-8.3509 12.7613-.1613.3497-.3092.7127-.2958 1.0892.0135.3766.2824.78.6589.8203.2555.0269.4976-.0941.7127-.242 1.6675-1.0623 2.676-2.8777 3.5097-4.6662.5514-1.1833 1.0489-2.3801 1.7213-3.4962.6723-1.1162 1.6271-1.923 2.3931-2.9584.511-.6858.646-1.2775.753-2.1112.122-.8472.054-2.4878-1.102-1.1968z" fill="#2b2b37"/><path d="m89.1444 93.9619c-.2017.4572-.269 1.1699.2151 1.2774.269.0538.5245-.1479.7262-.3361.4303-.4034.8606-.8203 1.2909-1.2237-.0538.4841-.121.9547-.1748 1.4388.3496.1076.6992-.1613.9547-.4168 3.3618-3.308 5.2982-7.7725 8.2165-11.4839.793-1.0085 1.681-2.0036 2.003-3.2408.121-.4841.121-1.0757-.269-1.3985-.564-.4572-1.398.0404-1.923.5648-.6584.6589-1.3711 1.412-1.8014 2.2457-.2555.511-.39 1.3447-1.1834 1.022.0941-1.3179-2.0305.995-2.2322 1.264-.6186.8472-1.1296 1.7481-1.7078 2.6222-1.5733 2.4339-2.9584 5.0023-4.1148 7.6649z" fill="#464557" opacity=".25"/><path d="m95.4918 64.4453c.9816 1.385 1.4926-.2824 1.0892-1.2506-.3362-.8203-.9279-1.7212-1.6271-2.286-.4976-.4169-.9682-.632-1.1565.121-.2958 1.143 1.1027 2.5819 1.6944 3.4156z" fill="#464557" opacity=".25"/><path d="m111.588 62.2803c.753-.9144-.471-.9547-1.035-.4975-.484.3765-.982.9413-1.224 1.5195-.188.4169-.242.7665.296.7531.807-.0135 1.519-1.2237 1.963-1.7751z" fill="#464557" opacity=".25"/><path d="m105.738 66.8257c-1.492 1.8153-3.052 3.7517-4.639 5.7957.121.269.404.4034.968.3362 1.829-.2286 3.107-3.0929 3.967-4.4376.74-1.143.377-1.6405-.296-1.6943z" fill="#464557" opacity=".25"/><path d="m90.3548 123.546c-.3765-.498-.9817-.767-1.5868-.901-.6051-.135-1.2371-.135-1.8557-.229-.9278-.134-1.7616-.591-2.5684-1.035-.5244-.269-1.7212-1.184-2.286-.699-.1614.147-.269.349-.3765.537-.0538.108-.1211.242-.0807.363.0269.135.1614.229.2824.296.8068.471 1.0354.605 1.5195 1.426.511.887 1.5464 1.331 2.5146 1.64.7665.242 1.5464.444 2.3264.619.7396.161 1.6271.269 2.1381-.296.4034-.457.3362-1.224-.0269-1.721z" fill="#464557" opacity=".25"/><path d="m104.582 121.515c-3.658.027-7.3558-.188-11.1479-.645.4572.188.7934.43 1.3313.981.9681.968 2.4339 1.197 3.7921 1.278 1.0623.067 2.1385.067 3.2135.027 1.009-.027 2.192-.202 2.649-1.103.095-.175.148-.35.162-.538z" fill="#464557" opacity=".25"/><path d="m116.388 52.6255c-.175.5648-.363 1.0623-.618 1.1295-1.466.4438-2.932.8741-4.411 1.3179-3.806 1.143-7.746 2.2994-11.699 1.9095-2.6894-.269-5.231-1.2237-7.6649-2.3533-.6858-.3227-2.1381-1.385-2.9584-1.2237-1.2102.2421.2152 1.7347.5379 2.2054.39.5782.5379 1.2774.8203 1.9094.242.5245.4034 1.1162 1.1296.9951.121-.0134.2286-.0537.3496-.0806.2151-.0269.4168.0134.632.0537 3.5769.7665 2.2995.4707 3.2139 1.2103.242.2017.3899-.0269.7127 0 .5916.0403 1.1968.0672 1.7884.0538.8203-.0269 1.654-.121 2.4739-.0269 1.251.1614 2.394.7799 3.604 1.1161 1.211.3362 2.475.3765 3.725.2958.646-.0403 1.278-.121 1.91-.2151.269-.0404.578-.0269.82-.121.255-.0807.444-.2824.659-.4169.484-.3093 1.062-.4034 1.64-.4841.632-.0941 1.264-.1748 1.91-.2421.349-.0403.753-.0672 1.022.1749.067.0537.107.1344.188.1882.39.2824 1.103-.0134 1.506-.0941.619-.1345 1.264-.2152 1.896-.2555.471-.0269.955-.0269 1.426-.1345.47-.1076.927-.3227 1.21-.6992.296-.4034.376-.9548.242-1.4389-.135-.4841-.43-.9144-.807-1.2506-.282-.242-.592-.4437-.82-.753-.162-.2152-.256-.511-.202-.7665.014-.0672.35-.6186.363-.6186-1.466-.4437-3.066-.9278-4.599-1.385z" fill="#21212b" opacity=".34"/><path d="m90.8928 43.2798s-1.5061 1.3178-1.802 2.5684c-.2958 1.2506 1.3717 3.187 1.3717 3.187l2.2591-1.2775z" fill="#75a152"/><path d="m117.249 43.6968s1.493 2.1246.955 4.8544c-.551 2.7298-2.958 3.3887-2.958 3.3887l-.821-1.1565z" fill="#568040"/><path d="m103.995 55.5943c4.634-.0523 8.368-2.0753 8.34-4.5184-.027-2.4432-3.806-4.3813-8.44-4.3289-4.6337.0524-8.3677 2.0753-8.3401 4.5185.0276 2.4431 3.8064 4.3812 8.4401 4.3288z" fill="#21212b"/><path d="m89.7899 33.1543c-.0807.7127-.1211 1.4389-.148 2.1516-.0403 1.1161-.0537 2.2322.0538 3.3483.4303 4.2493 2.7433 8.1086 5.6075 11.2822-.6724-2.4071-1.1161-4.8679-1.3178-7.3556-.121-1.4792-.1748-2.9853.0538-4.451.3361-2.165 1.2505-4.209 1.6674-6.3605.2152-1.1162.2958-2.2457.3631-3.3753.0807-1.1564.1613-2.3129.242-3.4693.0942-1.3851-.6723-2.5819-1.9095-1.3582-.8606.8472-1.6002 1.8288-2.2456 2.8508-1.2641 2.044-2.0843 4.3569-2.3667 6.737z" fill="#2b2b37"/><path d="m116.899 32.8586c.095.7127.148 1.4254.189 2.1515.067 1.1161.107 2.2322.027 3.3484-.323 4.2627-2.555 8.1758-5.352 11.4031.618-2.4204.995-4.8947 1.156-7.3959.094-1.4792.108-2.9853-.161-4.451-.39-2.1515-1.345-4.1686-1.802-6.3202-.242-1.1026-.336-2.2322-.444-3.3618-.107-1.1564-.215-2.3129-.309-3.4693-.121-1.3851.618-2.5953 1.882-1.3985.874.8337 1.641 1.7885 2.3 2.797 1.318 2.0171 2.192 4.3165 2.514 6.6967z" fill="#2b2b37"/><path d="m118.501 31.407c-.108-.511-.377-1.0085-.821-1.264-.632-.3765-1.183-.3631-1.64-.0807-1.251-7.2615-6.428-12.6807-12.546-12.6134-6.1187.0672-11.1749 5.6074-12.2641 12.8958-.4706-.269-1.0085-.269-1.6405.121-.4438.269-.6993.7799-.7934 1.2909-.0942.511-.0404 1.0355.0403 1.5465.2555 1.8691.6724 3.7248 1.2371 5.5267.1076.3362.2152.659.4169.9548.3765.5379 1.0623.8472 1.7078.7799.0672-.0134.121-.0134.1883-.0269 2.1246 5.2579 6.468 8.8348 11.4566 8.781 4.989-.0538 9.252-3.7383 11.256-9.0365.067.0135.121.0269.188.0269.659.0538 1.331-.2689 1.694-.8202.188-.2959.296-.6321.39-.9548.525-1.8154.901-3.6711 1.116-5.5537.068-.5513.121-1.0757.014-1.5733z" fill="#d58500"/><path d="m111.332 23.3916c.888.2555 1.789.5379 2.663.8472-2.327-4.1552-6.186-6.8446-10.516-6.8043-6.1184.0673-11.1745 5.6075-12.2637 12.8959-.4707-.269-1.0086-.269-1.6406.121-.4437.2689-.6992.7799-.7934 1.2909-.0941.511-.0403 1.0354.0404 1.5464.1479 1.143.363 2.2726.6454 3.3887.2824-.1614.5783-.2958.8741-.4169.4975-.2151 1.0085-.3899 1.5195-.5513.5648-9.8836 7.1405-15.9349 19.4713-12.3176z" fill="#b45f00"/><path d="m102.981 33.5308s5.769-.4976 10.072.5244 4.774 1.1699 4.774 1.1699l-.995 2.7029z" fill="#b45f00"/><path d="m118.5 31.4061c-.108-.511-.377-1.0085-.82-1.264-.632-.3766-1.184-.3631-1.641-.0807-.242-1.4389-.645-2.8105-1.183-4.0745-.027-.0538-.054-.1076-.067-.1614-.162-.3631-.323-.7127-.498-1.0623-.027-.0672-.067-.121-.094-.1883-.04-.0941-.094-.1748-.148-.2555-.04-.0672-.081-.1344-.121-.2017-.054-.0807-.094-.1613-.148-.242-.04-.0673-.081-.1345-.121-.2017-.054-.0807-.094-.1614-.148-.2421-.04-.0672-.094-.1344-.134-.2017-.054-.0807-.108-.1479-.148-.2286-.054-.0672-.094-.1345-.148-.2017s-.108-.1479-.162-.2151c-.053-.0673-.107-.1345-.147-.2018-.054-.0672-.108-.1344-.162-.2017-.054-.0672-.107-.1344-.161-.2017-.054-.0672-.108-.121-.162-.1882-.067-.0807-.121-.1479-.188-.2152-.054-.0538-.094-.1076-.148-.1613-.107-.1211-.228-.2421-.336-.3497-.027-.0269-.067-.0672-.094-.0941-.094-.0941-.175-.1748-.269-.2555-.04-.0403-.094-.0807-.135-.121-.08-.0673-.147-.1345-.228-.2152-.054-.0403-.108-.0807-.148-.1345-.081-.0672-.148-.1344-.229-.1882-.053-.0404-.107-.0807-.161-.121-.081-.0673-.148-.1211-.229-.1749-.053-.0403-.107-.0806-.161-.121-.081-.0538-.161-.121-.242-.1748-.054-.0403-.108-.0672-.161-.1076-.081-.0538-.175-.1075-.256-.1613-.054-.0269-.107-.0673-.148-.0942-.094-.0537-.188-.1075-.282-.1613-.041-.0269-.094-.0538-.135-.0807-.107-.0538-.215-.121-.322-.1748-.027-.0135-.068-.0404-.095-.0538-.295-.1479-.578-.2824-.887-.4034-.027-.0135-.04-.0135-.067-.0269-.121-.0538-.256-.0941-.377-.1345-.04-.0134-.08-.0269-.121-.0403-.107-.0404-.215-.0673-.336-.1076-.054-.0135-.094-.0269-.148-.0404-.107-.0268-.215-.0537-.323-.0806-.053-.0135-.107-.0269-.148-.0404-.107-.0269-.215-.0403-.309-.0672-.027 0-.054-.0135-.081-.0135h.014c-.659-.121-1.331-.1882-2.031-.1882-6.1181.0672-11.1742 5.6074-12.2634 12.8958-.4707-.2689-1.0085-.2689-1.6406.121-.4437.269-.6992.78-.7933 1.291-.0942.5109-.0404 1.0354.0403 1.5464.1479 1.143.3631 2.2725.6455 3.3887.2824-.1614.5782-.2959.874-.4169.7396-.3093 1.5061-.5648 2.286-.7665.5245-.1345 1.0489-.2689 1.5734-.3631v-.121c-.7665-21.6365 34.2361-9.3054 14.3611 6.1319-1.371 1.0623-3.066 1.6809-4.666 2.2726-1.95.7261-4.0742 1.385-6.172 1.4523-1.022.0269-2.0171-.1076-3.0121-.3093 2.3398 2.9718 5.5801 4.8006 9.1571 4.7603 4.989-.0538 9.252-3.7383 11.256-9.0365.067.0134.121.0269.188.0269.659.0538 1.331-.2689 1.694-.8203.189-.2958.296-.632.39-.9547.525-1.8154.901-3.6711 1.116-5.5537.014-.6051.068-1.1296-.04-1.6271z" fill="#b45f00" opacity=".36"/><path d="m118.5 31.4062c-.108-.511-.377-1.0085-.821-1.264-.632-.3765-.228-1.1699-.685-.901-.269-1.533-1.264-2.8373-2.448-3.9265l-1.613-.3093c3.509 3.8324 4.114 9.9374 1.048 13.7833-1.035 1.3044-1.317.6724-2.877 1.2237-.565.2017-1.157.3227-1.735.4438-.255.242-.524.4572-.793.6723-1.385 1.0354-3.066 1.6809-4.666 2.2726-1.95.7261-4.075 1.385-6.1727 1.4523-1.022.0269-2.0171-.1076-3.0122-.3093 2.3398 2.9718 5.5809 4.8006 9.1579 4.7603 4.989-.0538 9.251-3.7383 11.255-9.0365.067.0134.121.0269.188.0269.659.0538 1.331-.269 1.694-.8203.189-.2958.296-.632.39-.9547.525-1.8154.901-3.6711 1.117-5.5537.026-.5379.08-1.0623-.027-1.5599z" fill="#b45f00"/><path d="m108.159 33.544c-.148-.0941-.309-.1479-.43-.2689-.095-.1076-.148-.2555-.148-.4035.027-.363.242-.3092.242-1.0488 0-1.022-.565-2.2457-.162-3.3887h-.968c-.027.0538-.148.0134-.188.0807-.323.6858-1.52 1.264-1.547 7.1942 0 .2151 1.103.2555 1.184.4572.081.1883.188.3496.323.4975.349.39.82.7127 1.358.7396.524.0269 1.089-.2824 1.237-.7933.054-.1883.04-.3766.027-.5648-.067-.8203-.821-2.434-.928-2.5012z" fill="#b45f00" opacity=".36"/><path d="m98.1943 32.1992c-.1076 0-.2152 0-.2824-.0134-.1479-.0134-.3227-.0135-.4572-.0538-.0538-.0134-.121-.0403-.2017-.0538-.5782-.0941-1.1565-.2286-1.7212-.3362-.0538-.0134-.1076-.0403-.1345-.0672 0 .0135 0 .0269-.0135.0403-.0134 1.3179 3.1467 2.555 4.6792.3497-.6181.1613-1.2367.1882-1.8687.1344z" fill="#b45f00" opacity=".36"/><path d="m107.352 31.8093c.605.0941.928.242 1.546.2824.189.0134.565.0269.754 0 .147-.0269.322-.0269.457-.0673.296-.0941.739-.242 1.035-.3362.188-.0672.404-.4841.417-.1613.027 1.3312-2.676 2.7163-4.209.2824z" fill="#b45f00" opacity=".36"/><path d="m98.1946 32.5358c-2.2457-.1076-3.2005-.8337-3.2139-.8337-.0941-.0807-.121-.2152-.0403-.3093.0806-.0941.2151-.121.3092-.0403.0135 0 .8876.6454 2.945.7396.2958 0 1.1161-.0404 1.9634-.3362.121-.0404.242.0269.282.1344.041.1211-.027.2421-.134.2824-.6457.2286-1.4122.3631-2.1114.3631z" fill="#323147"/><path d="m109.463 32.4146c-.632 0-1.277-.1076-1.949-.3228-.121-.0403-.189-.1613-.148-.2824.04-.121.161-.1882.282-.1479.646.2017 1.264.3093 1.869.2959 1.426-.0135 2.219-.6321 2.246-.6589.094-.0807.242-.0673.323.0403.08.0941.067.242-.041.3227-.094.0807-.968.7396-2.528.7665-.013-.0134-.027-.0134-.054-.0134z" fill="#323147"/><path d="m89.6016 35.6283c2.8373-.9547 5.7688-1.7481 8.7137-2.2053 1.291-.2017 2.4747.2286 3.0257-1.3044.094-.2555.121-.5379.242-.7934.108-.2555.35-.4841.619-.4706.295.0134.511.2958.618.5782.108.2689.148.5513.188.8472.068.4975.121 1.022.041 1.5195-.256 1.4523-1.493 1.9767-2.663 2.555-1.479.7261-2.9985 1.3581-4.5181 1.9767-1.5733.632-3.16 1.2371-4.7603 1.7885z" fill="#b45f00" opacity=".36"/><g fill="#e2a040" opacity=".36"><path d="m100.359 25.1262c0 .1345.054.269.121.39.202.3362.552.5648.901.7127.094.0403.202.0672.296.0538.955-.1076-.215-1.2641-.551-1.412-.296-.1345-.74-.2151-.767.2555z" opacity=".36"/><path d="m96.2714 31.0296c.1479-.1345.5513-.0269.6992.0672.1748.1076.4034.1883.3631.4303-.0403.2421-.3093.2824-.5244.2152-.148-.0538-.5514-.2555-.5917-.4303-.0269-.1345 0-.2286.0538-.2824z" opacity=".36"/><path d="m108.804 31.339c.081-.1883.484-.269.659-.2555.202.0134.444 0 .511.2286s-.161.4034-.377.4303c-.161.0269-.605 0-.726-.1345-.08-.1076-.094-.2017-.067-.2689z" opacity=".36"/><path d="m95.3837 33.2217c.1883.0134.3631-.0942.4706-.2286.0538-.0673.0942-.1345.0942-.2152 0-.0403-.0135-.0807-.0269-.1076-.121-.2824-.5782-.3362-.8203-.1613-.3227.2151-.0538.6992.2824.7127z" opacity=".36"/></g><path d="m94.9401 46.453c-.1076-.0672-1.9499-.4975-1.9499-.3899s1.4523 3.7114 1.5599 3.8593 2.8374 2.0574 2.8374 2.0574 1.7346-1.385 1.7346-1.4926-.2151-1.2371-.2151-1.2371z" fill="#21212b"/><path d="m116.712 44.127c.901-2.0171 1.52-8.3641 1.52-8.3641-14.712-3.308-14.429-3.308-29.0596.3227 0 0 .2286 1.8423.5782 3.8459.2958.4975.632.9951.901 1.4657.4975.8875 1.0085 1.7482 1.506 2.6357.4303.7799.8741 1.5464 1.3582 2.286.0538.0538.1076.1076.1479.1614 1.4523 1.5733 3.5635 2.5549 5.4864 3.429.659.2958 1.3309.5244 1.9899.6723 2.098.0269 4.263-.0134 6.334-.0941 2.165-.3496 4.33-.8472 6.307-1.8019.793-.39 1.506.6992.887 1.1833 1.022-.1613 1.869-.3361 2.501-.5513l-.027-2.2053c-.645-.7531-1.048-1.6002-.43-2.9853z" fill="#464558"/><path d="m116.712 44.1269c.901-2.017 1.52-8.3641 1.52-8.3641-6.885-1.5464-10.489-2.3801-13.864-2.4474-.135.4707-.296.9413-.484 1.3985-.471 1.1296-1.143 2.2323-2.165 3.0256-1.17.9279-2.7974 1.4523-4.3439 1.4389-2.2994-.0269-3.2945-2.0305-3.308-4.3031-.8606.2152-3.9131.9682-4.8947 1.2102 0 0 .2286 1.8423.5782 3.8459.2958.4976.632.9951.901 1.4658.4975.8875 1.0085 1.7481 1.506 2.6356.4303.7799.8741 1.5464 1.3582 2.286.0538.0538.1076.1076.1479.1614 1.4523 1.5733 3.5635 2.555 5.4864 3.429.659.2959 1.3309.5245 1.9899.6724 2.098.0269 4.277-.0135 6.334-.0942 2.165-.3496 4.33-.8471 6.307-1.8019.793-.3899 1.506.6993.887 1.1834 1.022-.1614 1.869-.3362 2.501-.5514l-.027-2.2053c-.645-.753-1.048-1.6002-.43-2.9853z" fill="#323147"/><path d="m90.6369 41.4103c.4975.8875 1.0085 1.7482 1.5061 2.6357.4303.7799.874 1.5464 1.3581 2.286.0538.0538.1076.1076.148.1614 1.4523 1.5733 3.5635 2.5549 5.4864 3.429.6589.2958 1.3315.5244 2.0035.6723.901.0135 1.816.0135 2.73 0-.081-.0269 2.272-1.1699 2.192-1.1968-1.963-.7261-8.7678 1.1968-12.5867-8.7003-.6186-1.6136-1.0624-3.2676-1.3179-4.962-.0134-.121-.0403-.242-.0538-.363-1.1295.2823-2.3801.5916-2.9449.7261 0 0 .2286 1.8423.5782 3.8459.2959.4975.6455.9816.901 1.4657z" fill="#2b2b37"/><path d="m104.434 50.5682c.027-.0269.054-.0672.08-.1075.444-.5783.767-1.2237.915-1.923.161-.7799.067-1.5733-.121-2.3263-.162-.6993-.417-1.3851-.484-2.0978-.054-.632.121-1.2371.39-1.8288.269-.5782.618-1.1161.793-1.7212.148-.4707.202-.9682.175-1.4523-.04-.4976-.188-1.0355-.578-1.3985-.35-.3228-1.103-.6052-1.574-.3093-.39.242-.443.8068-.484 1.1968-.067.5244-.161 1.022-.417 1.5061-.295.5647-.712 1.0623-1.089 1.5733-.43.5916-.807 1.2237-.982 1.9229-.349 1.3716.095 2.676.875 3.8459.605.8875 1.304 1.7885 1.586 2.8105.027.1075.054.2017.068.3092.282.0135.564.0135.847 0z" fill="#2b2b37"/><path d="m116.711 44.1271c.901-2.0171 1.519-8.3642 1.519-8.3642.014-.1748-6.374-1.4119-7.073-1.5464-1.627-.3227-3.442-.753-5.11-.8068.014 1.264-.403 3.0659.955 3.9669.269.1748.592.2958.86.4572 1.587.9278 1.372 2.9987.162 3.6711-.484.2689-1.278.4168-.726 1.1295.282.3631.726.632 1.102.9144.296.2286.659.4976.767.8606.081.2824.013.5648-.135.8069 1.036 2.1919-4.787 5.2982-13.1106 3.039 1.0354.6321 2.165 1.1565 3.2273 1.6406.6589.2958 1.3313.5244 1.9903.6723 2.098.0269 4.276-.0134 6.333-.0941 2.165-.3496 4.33-.8472 6.307-1.8019.794-.39 1.506.6992.888 1.1833 1.022-.1613 1.869-.3361 2.501-.5513l-.027-2.2053c-.645-.7396-1.049-1.5868-.43-2.9718z" fill="#2b2b37"/><path d="m116.711 44.127c.901-2.0171 1.519-8.3642 1.519-8.3642.027-.2151-2.945-.7261-3.173-.7665-.417-.0806-.82-.1748-1.237-.2555-.148-.0269-.417-.1344-.565-.121-.215.0269-.229.1883-.336.3496-.457.7262-.834 1.2641-.794 2.1516v.0941c.068.8203.377 1.6002.592 2.3936.134.4976.242 1.0085.175 1.5061-.188 1.6136-1.896 2.7029-2.582 4.1955-.215.4572-.323.9548-.605 1.3851-.538.8068-1.6 1.1968-2.3 1.896-.349.3496-.605.7799-1.035 1.0489-.484.3093-1.103.3631-1.694.3362-.471-.0135-.995-.148-1.466-.0807-.175.0269-2.932.632-6.3741-1.0892 2.044 3.5904 7.7591 2.0843 9.7891 1.7884 2.448-.363 4.922-.8471 7.154-1.9364.848-.4168 1.601.8607.74 1.2775-.027.0135-.04.0135-.067.0269 1.116-.2151 2.03-.4437 2.703-.6589l-.027-2.2053c-.632-.7396-1.036-1.5868-.417-2.9718z" fill="#21212b"/><path d="m112.919 44.9203c-.524 1.291-1.13 2.555-1.909 3.7115-.74 1.0892-1.628 2.0977-2.623 2.9718-.47.4168-.995.753-1.412 1.2371-.201.2421-.403.4976-.618.7127l.013.8069c3.066-.0538 6.119-.2555 9.158-.6052.403-.6992.86-1.385 1.21-2.1112.377-.7799.74-1.6136.968-2.4474.014-.0537.027-.0941.041-.1479-1.654-4.6796 8.875-24.5814-4.061-33.8061-7.235-5.1503-12.762-4.6527-19.2434-.269-13.864 9.3861-2.7432 29.7586-4.4375 34.4382-.0672.1748-.1479.3496-.2421.511.3228.8337.7665 1.6137 1.2237 2.3801.3362.5648.6858 1.1431 1.0489 1.6944.0269.0269.0404.0672.0672.0941 3.0794.6455 7.7456 2.286 10.2602 2.3264 1.21.0134 1.56-.2286 1.156-1.6271l-.645.0134-.013-.8875c-.054-.0538-.121-.1076-.175-.1614-.444-.4168-.955-.7396-1.52-.9816-4.518-1.9498-8.5791-6.4412-10.112-10.4753-2.0709-5.473-.1614-13.1917 2.8508-16.3383 5.0964-5.3386 14.2002-5.5134 19.4582-.1883 3.536 3.5769 5.016 9.6147.027 17.952-.148.4034-.31.8068-.471 1.1967z" fill="#464558"/><path d="m90.1663 47.3945c.0673.8338.0269 1.5196-.1479 2.0171-.0672.1748-.1479.3496-.242.511.3227.8337.7665 1.6137 1.2237 2.3801.3361.5648.6858 1.1431 1.0488 1.6944.0269.0269.0404.0672.0673.0941 3.0794.6455 7.7455 2.286 10.2598 2.3264.901.0134 1.318-.121 1.318-.7665-8.0278-3.9669-12.0216-3.1063-13.5277-8.2566z" fill="#323147"/><path d="m116.281 52.0874c.376-.6992.739-1.4119 1.049-2.1381.148-.3361.242-.6992.376-1.0488-1.197-4.1552 5.917-18.8261.404-28.777.188 1.7213.027 3.4425-.552 5.0831-.47 1.3178-1.156 2.5684-1.963 3.7114 1.668 3.5904 1.56 8.5524-2.178 14.8053-.162.4034-.323.7934-.484 1.1968-.525 1.2909-1.13 2.555-1.91 3.7114-.74 1.0892-1.627 2.0978-2.622 2.9718-.471.4169-.995.7531-1.412 1.2372-.336.4034-.659.8202-1.103 1.1026v.4169c3.174-.0403 6.361-.2286 9.507-.6051.296-.5379.592-1.1027.888-1.6675z" fill="#323147" opacity=".32"/><path d="m112.462 23.1899c-.108-1.0085-.794-1.9767-1.614-2.5549-.713-.511-1.587-.7127-2.447-.7531-1.802-.0807-3.55.4438-5.339.5648-1.022.0672-2.004-.1345-3.012-.2151-1.1969-.1076-2.2727.1479-3.1871.9547-.8606.7665-1.4926 1.7481-2.2456 2.6222-.7262.8472-1.6002 1.533-2.4071 2.2995-.7396.7127-1.4523 1.4792-1.9767 2.3801-.2689.4572-.4707.9413-.6186 1.4523-.1748.5782-.2555 1.1834-.4034 1.7616-.3227 1.2102-.7799 2.3801-.9816 3.6038-.0942.5917-.0942 1.1699-.0942 1.7616.5514 3.0525 1.2775 5.863 1.6944 8.1086.2151.3497.4437.6858.6723 1.022.6186.9144 1.291 1.8154 1.6675 2.8643.3496.9682.39 2.0708.0538 3.039-.1614.4572-.39.8606-.6858 1.2237h.3765l.0134.7262c2.8912.5782 6.6026 2.3129 9.3052 2.3398.847.0134 1.748-.1076 2.246-.6724.121-.1345.161-.511.081-.8741l-.713.0135-.014-.9548c-.053-.0403-.094-.0941-.147-.1344-.444-.4169-.955-.7396-1.52-.9817-4.5182-1.9498-8.5792-6.4412-10.1122-10.4753-2.0709-5.473-.1614-13.1917 2.8508-16.3383 4.7334-4.962 12.9094-5.4596 18.2744-1.2371.229-.4841.336-1.0086.283-1.5465z" fill="#323147" opacity=".32"/><path d="m91.0001 30.3572c-.1748.5647-.1614 1.143-.2017 1.7212 0 .0941-.0135.2017-.0269.3093.3765-1.5464.9144-2.9987 1.5733-4.209-.511.6858-1.0892 1.3447-1.3447 2.1785z" fill="#464558"/><path d="m116.658 52.1281c.376-.8606.793-1.7078 1.116-2.5953.027-.0807.053-.1614.08-.2555-.027-.0538-.053-.121-.08-.1748-.874-2.2726 1.304-8.3372 2.151-15.0205-.659 3.066-3.644 11.7797-3.698 11.9008-.282.6185-.605 1.2506-1.035 1.775-.377.4841-.901.7665-1.412 1.0892-.323.2017-.646.4303-.847.7665-.135.2286-.202.4841-.256.7396-.121.511-.242 1.022-.591 1.4254-.323.3765-.78.6051-1.238.8068-.632.2824-1.277.5379-1.949.6858-.807.1748-1.628.1883-2.434.1883-.202.2151-.431.4168-.7.5513-.228.121-2.151 1.6002-2.38 1.7213 3.644 0 8.674-1.3582 12.56-2.0171.242-.4976.471-1.0489.713-1.5868z" fill="#323147"/><path d="m93.9182 25.9597c3.8728-4.061 10.0718-5.1368 15.1418-3.066-.404-.242-.807-.4841-1.17-.7799-.256-.2151-.444-.2555-.767-.3093-.148-.0269-.282-.0538-.417-.121-.457-.2017-.887-.4303-1.371-.5648-.215-.0538-.43-.1076-.646-.1479-.027 0-.053 0-.094-.0134-.632-.0538-1.277-.148-1.909-.1614-.659-.0269-1.278.1345-1.937.1479-.699.0269-1.3174.0269-1.9226.4303-.4841.3227-.9144.6724-1.4254.9548-1.0488.5916-2.1246 1.1161-2.9314 2.0439-.3766.4303-.6859.9279-.9279 1.4523-.0538.121-.5513 1.2103-.9413 1.6002-7.4497 7.4498-1.5464 28.2794 11.1476 27.9298.094-.6589-.78-1.3716-.995-1.5733-.484-.4572-1.049-.8069-1.667-1.0758-4.4784-1.9633-8.5125-6.4277-10.032-10.435-1.8019-4.7334-.5917-11.1611 1.7078-14.8457.3361-.4303.9144-1.2237 1.1564-1.4657z" fill="#323147"/><path d="m88.0955 28.3536c1.7616-1.0758 3.4693-2.2995 4.8544-3.8325 1.5061-1.654 2.6894-3.6307 3.4828-5.715.5513-1.4658.8875-2.9987.9144-4.5721 0-.3227 0-.632-.0269-.9547-.9413.4841-1.896 1.0489-2.8642 1.7078-5.2041 3.5231-6.885 8.5927-7.0463 13.7833.2286-.1345.4572-.2824.6858-.4168z" fill="#575770"/><path d="m103.466 20.5004c-.094 0-.202-.0538-.242-.1479-.363-.8203-.229-1.7078-.108-2.555.081-.5917.175-1.1968.094-1.7616-.026-.2017-.08-.4168-.134-.632-.04-.1614-.081-.3362-.121-.511-.175-.9278-.04-1.896.067-2.7567.014-.1479.148-.242.296-.2151.148.0134.242.1479.215.2958-.121.8606-.242 1.7347-.081 2.5819.027.1613.068.3093.108.4706.054.2152.121.4438.148.6858.094.632 0 1.2775-.094 1.9095-.121.8203-.229 1.5868.067 2.286.054.1345 0 .2824-.134.3362-.014.0135-.054.0135-.081.0135z" fill="#2b2b37" opacity=".0625"/><path d="m113.161 25.3682c-.524-.4572-1.103-.8606-1.708-1.1968.686.4572 1.332.9951 1.923 1.6002 3.537 3.5769 5.016 9.6013.027 17.9385-.161.4034-.323.8068-.497 1.2102-.525 1.291-1.13 2.555-1.91 3.7115-.309.4572-.632.8875-.995 1.3043 3.147-2.6222 5.809-5.7688 7.14-9.7088 1.991-5.863.041-11.3898-3.98-14.8591z" fill="#575770"/><path d="m88.7947 53.2455c.2421.7934.7262 1.4792 1.1968 2.165.4976.7127 1.0086 1.4523 1.7078 1.9767.6993.5379 1.5599.8337 2.407 1.0892 2.0171.6052 4.1014.9682 6.1987 1.1027 1.897.121 3.806.0403 5.689.3093 1.438.2017 2.864.5917 4.303.4572.981-.0941 1.923-.4303 2.837-.8068 1.493-.6321 2.958-1.4254 3.994-2.6626 1.035-1.2371 1.587-2.9853 1.035-4.5048-.134-.3631-.403-.7665-.793-.7396-.242.0135-.43.2017-.605.3631-2.878 2.7432-6.495 4.8679-10.462 5.2041-.982.0806-1.977.0537-2.972.0134-.739-.0269-1.479-.0538-2.205-.2152-1.009-.2286-1.9232-.7127-2.9048-1.0085-1.0086-.2958-2.0843-.39-3.0794-.753-1.8961-.6993-3.2946-2.3264-4.5855-3.8728-.511-.6186-.6455-1.2909-1.022-1.923-.9144.9279-1.1161 2.5953-.7396 3.8056z" fill="#75a152"/><path d="m118.177 52.3566c-.135-.3631-.404-.7665-.794-.7396-.242.0134-.43.2017-.605.3631-2.877 2.7432-6.495 4.8678-10.462 5.204-.981.0807-1.976.0538-2.971.0135-.74-.0269-1.48-.0538-2.206-.2152-.712-.1614-1.3848-.4572-2.0706-.7127.5647 1.022.7799 2.2457.0672 3.187.39.0403.7799.0807 1.1564.0941 1.896.121 3.806.0404 5.688.3093 1.439.2017 2.864.5917 4.303.4572.982-.0941 1.923-.4303 2.838-.8068 1.492-.632 2.958-1.4254 3.993-2.6626 1.076-1.2102 1.614-2.9583 1.063-4.4913z" fill="#568040" opacity=".37"/><path d="m118.177 52.3568c-.135-.3631-.404-.7665-.794-.7396-.242.0134-.43.2017-.605.3631-2.877 2.7432-6.495 4.8678-10.462 5.204-.981.0807-1.976.0538-2.971.0135-.74-.0269-1.48-.0538-2.206-.2152-1.008-.2286-1.9226-.7127-2.9043-1.0085-1.0085-.2959-2.0843-.39-3.0794-.7531-1.896-.6992-3.2945-2.3263-4.5854-3.8728-.511-.6185-.6455-1.2909-1.022-1.9229-.1345.1345-.2421.2689-.3497.4303.1614 1.0489.901 1.9902 1.3448 2.918.5513 1.1699.8875 2.434 1.7884 3.4022.8203.8875 1.8692 1.3581 3.0525 1.5329.5917.0807 1.1834.0942 1.7751.1749.5782.0806 1.1295.2286 1.7078.3227.6185.0941 1.2642.1076 1.8822.2017.632.0807 1.251.1883 1.883.2555.592.0672 1.156.1345 1.735.2689.659.1479 1.304.3228 1.976.3766 1.157.0941 2.421.1479 3.577-.0673.632-.121 1.251-.3362 1.883-.4841.282-.0672.578-.1076.861-.1882.242-.0673.457-.1749.712-.2152.444-.0672.834.1614 1.116.5244 1.009-.5244 1.964-1.1833 2.69-2.0439 1.008-1.1968 1.546-2.9449.995-4.4779z" fill="#568040"/><path d="m91.9952 54.1854c.2017.5917.4303 1.2103.874 1.6809.4841.511 1.1968.7934 1.8692.9548 1.3716.3362 2.8373.3631 4.2358.511 1.2238.121 2.3798.0672 3.5368-.1479-.457-.0269-.915-.0807-1.372-.1748-1.008-.2286-1.9227-.7127-2.9044-1.0086-1.0085-.2958-2.0843-.3899-3.0794-.753-1.5598-.5648-2.7701-1.7616-3.8593-3.0256.2824.632.4707 1.3043.6993 1.9632z" fill="#3e5c2e"/><path d="m105.052 58.0717c.821.3228 1.708.3631 2.582.3093.888-.0538 1.789-.1076 2.663-.2689.793-.148 1.573-.3362 2.367-.4438.806-.121 1.613-.2151 2.353-.5648.605-.2824 1.237-.6051 1.721-1.0892.551-.5513.713-1.3044.82-2.044.108-.753-.027-1.5598.081-2.2994-.081-.0404-.161-.0538-.256-.0404-.242.0135-.43.2017-.605.3631-2.877 2.7432-6.495 4.8679-10.462 5.2041-.914.0806-1.828.0537-2.743.0269.484.3092.942.6454 1.479.8471z" fill="#3e5c2e"/><path d="m98.5576 54.7771c1.385.2152 16.2984 2.9584 19.0414-7.8934.134-.5379.134.0268.699.0403.955 8.9155-8.835 12.7613-17.831 10.9863-14.738-2.8911-11.7124-14.7784-10.5156-12.089.4706 1.0892-.2017 7.5842 8.6062 8.9558z" fill="#75a152"/><path d="m98.5576 54.7771c1.385.2152 16.2984 2.9584 19.0414-7.8934.134-.5379.134.0268.699.0403.955 8.9155-8.835 12.7613-17.831 10.9863-14.738-2.8911-11.7124-14.7784-10.5156-12.089.4706 1.0892-.2017 7.5842 8.6062 8.9558z" fill="#75a152"/><path d="m118.284 46.924c-.564-.0134-.551-.5782-.699-.0403-2.393 9.4533-13.998 8.5927-17.8711 8.0683 1.0351.3362 2.0981.5782 3.0931 1.0085.887.39 1.815.8337 2.447 1.5868.188.2286.336.4841.43.753 7.154-.2958 13.38-4.182 12.6-11.3763z" fill="#568040" opacity=".37"/><path d="m90.1532 49.6539c-.1075-.5378-.1613-1.0892-.1613-1.6405-.0404-.39-.0942-.901-.3362-1.2237-.0269-.0403-.0673-.0807-.121-.0941-.0807-.0269-.1748.0134-.2286.0672-.0538.0672-.0807.1479-.0807.2286-.0538.4572.1748.8875.2689 1.3313.0807.3631.0538.753.0673 1.1295.0134.3766.0537.7665.2555 1.0893.0537.0941.1344.1748.242.1882.1076 0 .2017-.0941.2286-.2017s0-.2286-.0269-.3362c-.0269-.1882-.0672-.363-.1076-.5379z" fill="#aed888"/><path d="m91.8877 53.352c0 .0404 0 .0807.0134.1076.0269.0807.1211.121.2152.1479.0538.0135.1076.0404.1614.0404s.1075-.0135.1479-.0673c.0269-.0269.0269-.0672.0269-.1075 0-.0942-.0135-.2018-.0807-.2824-.1748-.2152-.4438-.0942-.4841.1613z" fill="#aed888"/><path d="m105.496 55.9736c-.215 0-.43.0135-.632.0673-.968.2151-2.246.4303-2.689 1.0354-.175.2421-.256.6724.174.7934.444.121.901-.1748 1.224-.5245.323-.363.35-.7127 2.985-.5647z" fill="#568040"/><path d="m103.183 56.2027c-.417 0-.833.0538-1.237.148-.417.0941-.86.2555-1.103.6051-.026.0403-.067.0941-.067.1479-.027.1479.094.2958.242.3362.148.0403.296 0 .444-.0538.524-.2017.968-.6186 1.533-.6858.229-.0269.457.0134.686.0269.228.0134.47.0134.672-.0941.108-.0538.323-.2152.323-.3497-.014-.1479-.215-.0807-.309-.0807-.404.0269-.794 0-1.184 0z" fill="#568040"/><path d="m94.5234 54.8178c2.0305 1.2102 4.5048 1.2909 6.7906 1.4523 5.245.3899 12.869 2.1515 14.644-3.456.121-.3765 2.864-.8875 2.327-5.9033-.565-.0134-.552-.5782-.7-.0403-2.743 10.8519-17.6424 8.1086-19.0409 7.8935-3.8862-.6051-5.9168-2.1919-7.0329-3.8862.5379 1.6271 1.6002 3.0928 3.0122 3.94z" fill="#568040"/><path d="m97.455 54.8443c.9951.1749 1.9902.1883 2.999.2018-.9685-.1076-1.6543-.2287-1.8963-.269-2.3936-.3765-4.0745-1.1161-5.2848-2.0305 1.1027 1.1161 2.676 1.8288 4.1821 2.0977z" fill="#3e5c2e"/><path d="m105.16 55.3285c2.407.2286 4.868.2824 7.127-.7127.538-.2286 1.076-.5379 1.506-.9279.39-.3631.646-.8337 1.076-1.1699.794-.6186 1.775-.8606 2.34-1.7616.632-1.022.565-2.2725.269-3.4424-1.91 6.5353-8.405 7.88-13.272 7.9338.309.0269.632.0538.954.0807z" fill="#3e5c2e"/><path d="m89.2789 52.9487c.0942.121.2421.2151.3227.3496.0807.1614.0807.3362.0942.5244.0134.1749.0672.3766.2151.4707.0942.0672.2152.0672.3362.0672.0404 0 .0807 0 .1076-.0269.0403-.0269.0672-.0672.0941-.1075.2824-.511-.0941-1.3448-.4437-1.7347-.148-.1614-.4976-.5648-.7396-.4303-.2824.1613-.1345.7127.0134.8875z" fill="#aed888"/><path d="m87.2217 55.3686c.4303-.5244.7396-1.1699.8337-1.8422-3.1332.9547-6.0512 1.8557-7.3556 2.2187-.0807.0269-.1614.0404-.2286.0673.2555.8472.6051 1.6674 1.0354 2.4474.0673.121.1614.2555.2959.2958.3227.0807 2.5684-1.0892 2.8642-1.2371.9413-.5245 1.8826-1.1162 2.555-1.9499z" fill="#21212b" opacity=".34"/><path d="m96.0023 30.0885c.0538.0269.0942.0403.1479.0672.8338.4034 1.6809.7799 2.6357.511 1.0892-.3227 2.2051-1.6943 1.8151-1.9633-.121-.0807-.8469.0673-.9948.0538-.5783-.0403-1.1699-.0538-1.7482-.0403-.5647.0134-1.1295.0134-1.6809.1075-.9278.148-1.8691.2959-2.7701.5514-.1075.0269-.2286.0672-.2958.1479-.0135.0269-.0403.0538-.0403.0807-.0135.0941.1075.1479.2017.1613.5782.0942 1.1699-.0806 1.7481 0 .3362.0404.6723.1749.9816.3228z" fill="#b45f00" opacity=".36"/><path d="m100.198 28.2191c-.4034-.1345-3.5501-.5514-6.9791 1.1161-.0269.0134-.0538.0134-.0807.0269-.0134 0-.0269.0134-.0269.0269-.0134 0-.0134.0134-.0269.0134-.0806.0404-.0268.1614.0404.121.0403-.0269.0941-.0403.1345-.0672 3.308-1.1161 4.7737.7665 6.7507.1479.672-.2017.995-1.1161.188-1.385z" fill="#323147"/><path d="m111.131 30.0885c-.054.0269-.095.0403-.148.0672-.834.4034-1.681.7799-2.636.511-1.089-.3227-2.205-1.6943-1.815-1.9633.121-.0807.847.0673.995.0538.578-.0403 1.17-.0538 1.748-.0403.565.0134 1.129.0134 1.681.1075.928.148 1.869.2959 2.77.5514.107.0269.228.0672.296.1479.013.0269.04.0538.04.0807.013.0941-.108.1479-.202.1613-.578.0942-1.17-.0806-1.748 0-.336.0404-.659.1749-.981.3228z" fill="#b45f00" opacity=".36"/><path d="m107.112 29.6176c1.976.6186 3.442-1.264 6.75-.1479.04.0269.094.0403.135.0672.08.0404.121-.0941.04-.121-.014 0-.014-.0134-.027-.0134 0-.0135-.013-.0269-.027-.0269-.027-.0135-.054-.0135-.081-.0269-3.429-1.6809-6.575-1.2506-6.979-1.1162-.793.2555-.47 1.17.189 1.3851z" fill="#323147"/><path d="m78.6556 100.242c-2.2457-.8335-5.7958.713-7.517 1.708-.269-1.035-.9413-2.2054-2.2188-2.044-.3362.0403-.6589.188-1.0085.242-1.2103.215-.9279-1.1833-1.8692-1.2505-.4975-.0404-1.533.5513-1.8422.9413-.4841.6182-.1076 1.5192-.5917 2.0712-.5648.632-1.143.403-1.3447 1.438-.1749.888-.39 2.273-.148 3.147.2959 1.022 1.4658 1.681 1.9768 2.595.511.901.5379 1.991.6185 3.026.0807.901.4169 3.066 1.4658 3.389.5513.175 1.4792-.431 1.9498-.646 1.5868-.739 3.1467-1.56 4.6662-2.407 2.1515-1.21 4.2762-2.582 5.8092-4.357.1479-.174.2824-.349.4168-.524-.0538-2.447-.1613-4.895-.363-7.329z" fill="#21212b" opacity=".34"/></svg>