<svg width="320" height="260" viewBox="0 0 320 260" fill="none" xmlns="http://www.w3.org/2000/svg">
    <path opacity="0.617277" fill-rule="evenodd" clip-rule="evenodd" d="M243.721 71.1006H238.271H233.125H232.67V71.069C231.13 70.8523 229.946 69.5495 229.946 67.9747C229.946 66.2806 231.316 64.9012 233.027 64.8503C233.393 62.1986 235.602 60.16 238.271 60.16C241.198 60.16 243.57 62.6092 243.57 65.6303C243.57 65.8957 243.551 66.1566 243.516 66.4118H243.721H243.872V66.4169C245.056 66.4974 245.992 67.514 245.992 68.7562C245.992 69.9985 245.056 71.0151 243.872 71.0955V71.1006H243.721Z" fill="#D8D8D8"/>
    <path d="M146.34 217.639C91.4861 217.639 47.0188 173.279 47.0188 118.559C47.0189 63.8382 91.4863 19.4784 146.34 19.4784C201.193 19.4783 245.661 63.838 245.661 118.559C245.658 173.278 201.192 217.637 146.34 217.639Z" fill="#575770"/>
    <path fill-rule="evenodd" clip-rule="evenodd" d="M136.77 38.4387C138.804 39.076 140.662 40.8206 140.839 42.8771C141.015 44.9336 139.591 46.85 137.927 48.0974C137.373 48.5132 136.786 48.8833 136.19 49.2402L134.993 49.946C134.196 50.4176 133.411 50.9042 132.692 51.4827C132.259 51.8304 131.845 52.2141 131.439 52.6116L130.714 53.3369L130.233 53.8225C128.946 55.11 127.618 56.3077 125.865 56.6804C125.114 56.8395 124.341 56.8272 123.567 56.7919L122.792 56.7544C121.89 56.7146 120.995 56.7108 120.141 56.9787C118.73 57.4206 117.695 58.5062 116.7 59.6598L115.956 60.5288C114.96 61.6803 113.921 62.7559 112.505 63.1798C110.468 63.7232 108.329 62.7626 107.382 60.8792C107.068 60.2201 106.933 59.5029 106.83 58.7757L106.711 57.9013C106.61 57.1738 106.48 56.4555 106.175 55.7945C105.837 55.0587 105.308 54.4429 104.745 53.85L104.177 53.2611C103.513 52.5746 102.873 51.875 102.504 51.0081C101.469 48.5855 103.046 45.6477 105.375 44.4229C107.219 43.4621 109.157 43.4444 111.097 43.5956L112.066 43.6816C113.479 43.8172 114.477 43.2837 115.507 42.604L116.346 42.0391L116.786 41.7518C117.012 41.6093 117.246 41.4692 117.492 41.3359C120.949 39.4586 124.9 38.8063 128.833 38.3688L130.836 38.1599L131.632 38.0878C133.362 37.9462 135.117 37.921 136.77 38.4387ZM245.707 118.613C245.707 92.5562 235.601 68.9636 219.208 51.2255L218.903 51.3905C218.714 51.4984 218.703 51.5068 218.624 51.5693C218.588 51.5979 218.538 51.638 218.449 51.7042C218.158 51.9211 217.875 52.1522 217.594 52.3868L217.032 52.8577C216.188 53.5618 215.327 54.2349 214.298 54.5923C213.176 54.9804 211.991 54.9463 210.795 54.8433L209.358 54.709C208.999 54.6785 208.641 54.6545 208.285 54.6465C205.121 54.5706 202.177 55.7459 199.31 57.1587L198.492 57.5679C198.356 57.6369 198.221 57.7062 198.085 57.7758L196.867 58.4041L195.653 59.0261C195.547 59.0799 195.44 59.1334 195.333 59.1867L194.685 59.5023C190.877 61.319 186.608 62.6571 182.723 61.2001C181.197 60.622 179.873 59.6549 178.547 58.686L178.502 58.6537L177.696 58.0694C177.29 57.7807 176.881 57.4994 176.461 57.2363C172.204 54.6063 167.039 53.8832 162.224 55.2431C159.511 56.0341 156.88 57.5798 155.401 59.9934C153.923 62.4069 153.824 65.7831 155.65 67.9526C156.112 68.4979 156.689 68.9868 157.279 69.4647L157.851 69.9269L158.204 70.2172L158.546 70.5108C159.551 71.3986 160.34 72.3607 160.275 73.6746C160.163 75.8113 157.949 76.7183 155.69 77.2244L155.252 77.3176L154.817 77.4021L154.387 77.4792L153.415 77.6429C147.892 78.6355 142.617 82.1911 140.717 87.4598C139.898 89.7196 139.812 92.4722 141.304 94.3614C142.796 96.2507 145.559 96.784 147.878 96.1422C150.198 95.5004 152.119 93.8823 153.706 92.0744L154.533 91.1352L154.878 90.7557C154.936 90.6928 154.995 90.63 155.054 90.5676L155.412 90.198C156.801 88.8022 158.383 87.6881 160.198 88.1197C161.195 88.3575 161.966 89.0173 162.709 89.7446L163.154 90.1861L163.601 90.6269C163.978 90.9891 164.368 91.3327 164.796 91.6134C167.139 93.1473 170.059 92.5544 172.816 91.6169L173.384 91.4186L173.946 91.214L175.046 90.7999L175.517 90.6264L176 90.4606L176.492 90.3042C179.553 89.3727 183.054 89.0875 185.038 91.4326C186.706 93.4032 186.394 96.5444 184.793 98.5874C183.193 100.63 180.679 101.715 178.147 102.203C175.335 102.765 172.434 102.713 169.643 102.049C168.65 101.81 167.678 101.497 166.711 101.164L164.782 100.49C163.816 100.157 162.845 99.8433 161.853 99.6043C158.073 98.7003 154.117 98.8902 150.256 99.3331C145.912 99.8303 141.472 100.689 137.787 103.039C131.136 107.306 128.225 116.305 130.454 123.884C132.683 131.464 139.523 137.285 147.232 139.021C147.932 139.179 148.654 139.315 149.385 139.446L151.523 139.824C151.634 139.844 151.746 139.865 151.857 139.886L152.522 140.015C152.633 140.037 152.743 140.06 152.853 140.083L153.51 140.227C156.338 140.877 158.924 141.9 160.479 144.264C161.758 146.21 161.925 148.497 161.892 150.866L161.874 151.705L161.835 152.971L161.814 153.816C161.782 155.645 161.853 157.459 162.436 159.143C162.798 160.188 163.348 161.15 163.931 162.096L164.519 163.041C165.204 164.143 165.864 165.256 166.252 166.487C166.662 167.792 166.743 169.158 166.778 170.53L166.808 171.903C166.821 172.36 166.838 172.815 166.872 173.267C167.233 178.216 169.788 183.21 174.164 185.543C178.541 187.875 184.708 186.935 187.484 182.831C188.953 180.647 189.322 178.052 189.558 175.39L189.706 173.609L189.785 172.718C189.898 171.532 190.049 170.355 190.323 169.217C190.753 167.434 191.486 165.752 192.272 164.087L193.291 161.95C194.075 160.285 194.803 158.603 195.224 156.82C195.493 155.676 195.634 154.504 195.748 153.328L195.912 151.564C196.082 149.804 196.309 148.063 196.942 146.424C197.686 144.474 198.97 142.739 200.35 141.062L200.992 140.292L201.757 139.385L202.439 138.568L202.883 138.021C204.783 135.648 206.328 133.199 206.233 130.221C206.21 129.403 206.057 128.589 205.886 127.779L205.645 126.639C205.423 125.538 205.268 124.44 205.469 123.342C205.74 121.863 206.596 120.643 207.512 119.439L208.201 118.536C208.733 117.83 209.241 117.108 209.619 116.323C209.936 115.665 210.161 114.965 210.364 114.256L210.718 112.978C211.036 111.846 211.4 110.741 212.088 109.796C214.457 106.556 219.611 106.813 222.97 109.019C225.307 110.553 227.064 112.742 228.798 114.957L229.449 115.788C229.992 116.479 230.539 117.166 231.108 117.828C233.726 120.874 237.361 123.622 241.358 123.206C242.994 123.026 244.195 122.454 245.661 121.662C245.691 120.649 245.707 119.633 245.707 118.613ZM49.7782 115.414C49.6245 114.687 49.091 113.9 48.3269 113.85C47.8677 113.821 47.4543 114.054 47.0848 114.355C47.0284 115.729 47 117.111 47 118.5C47 121.604 47.1421 124.675 47.4225 127.705C53.4254 130.657 57.717 136.976 58.0293 143.681C58.078 144.704 58.0441 145.741 57.9966 146.779L57.9167 148.507C57.8276 150.74 57.8538 152.942 58.6894 154.98C59.4535 156.856 60.8279 158.402 62.1752 159.911L67.0219 165.335L67.2688 165.592C67.9128 166.29 68.4403 167.088 68.8304 167.956C69.1632 169.032 69.2875 170.161 69.1966 171.283V180.896C73.5312 186.27 78.3688 191.118 83.7149 195.484C83.8096 195.346 83.8774 195.227 83.9439 195.11L83.944 195.109C84.0247 194.968 84.1036 194.829 84.2266 194.663L84.6812 194.06L85.3742 193.156L85.8332 192.551C87.1975 190.731 88.4161 188.855 88.6195 186.672C88.6725 186.095 88.6536 185.503 88.6162 184.91L88.5327 183.725C88.4499 182.447 88.448 181.199 89.0716 180.105C89.6864 179.011 90.8122 178.32 91.9109 177.71C92.3331 177.475 92.7585 177.246 93.1853 177.018L95.109 175.998C96.8164 175.085 98.502 174.135 100.049 172.964C102.563 171.061 104.67 168.444 105.194 165.344C105.318 164.608 105.351 163.857 105.362 163.104L105.374 161.749C105.392 160.548 105.463 159.362 105.877 158.243C106.218 157.322 106.779 156.47 107.385 155.642L108.483 154.166C109.493 152.776 110.323 151.37 110.104 149.715C109.774 147.378 107.409 145.877 105.149 145.195C104.75 145.074 104.344 144.968 103.936 144.868L102.299 144.476C100.94 144.141 99.6109 143.742 98.462 142.958C97.4717 142.288 96.6801 141.381 95.9272 140.433L94.8066 139.003C93.9579 137.944 93.0566 136.955 91.8747 136.314C91.088 135.89 90.225 135.648 89.3475 135.443L88.028 135.145C87.0053 134.906 86.0048 134.619 85.1246 134.054C83.9562 133.319 83.1523 132.194 82.3694 131.036L81.8995 130.34C81.3477 129.53 80.7726 128.739 80.0564 128.088C77.7099 125.959 74.1382 125.665 71.0864 126.528C68.7527 127.188 66.6411 128.414 64.6019 129.763L63.6654 130.393L62.7358 131.03L62.3832 131.261C62.3232 131.3 62.2627 131.338 62.2017 131.376L61.8294 131.6C60.3176 132.479 58.5513 133.111 57.107 132.25C55.9141 131.528 55.6018 130.245 55.4721 128.812L55.4364 128.356L55.3558 126.993C55.2926 126.034 55.1854 125.083 54.8464 124.25C54.4395 123.268 53.7049 122.47 52.925 121.705L51.9855 120.794C51.0604 119.879 50.2328 118.926 49.9907 117.674C49.9169 117.303 49.9018 116.925 49.8867 116.548C49.8712 116.164 49.8559 115.782 49.7782 115.414ZM203.787 156.792C204.173 157.114 204.241 158.138 204.234 159.124L204.227 159.574L204.197 160.568L204.195 160.872C204.195 160.917 204.196 160.958 204.198 160.996C204.282 161.867 204.233 162.747 204.054 163.604C203.681 165.027 202.639 166.134 201.517 167.123L201.065 167.512L197.064 170.894C196.686 171.296 196.182 171.557 195.635 171.631C195.044 171.603 194.523 171.234 194.301 170.686C194.092 170.146 194.048 169.556 194.175 168.991C194.45 167.487 195.307 166.244 196.275 165.039L196.695 164.524L197.181 163.937C197.909 163.053 198.618 162.153 199.121 161.15C199.244 160.906 199.354 160.657 199.46 160.405L199.772 159.645C200.032 159.014 200.312 158.394 200.726 157.855C201.255 157.163 202.883 156.038 203.787 156.792ZM82.3531 58.9674C83.705 58.2216 84.8036 56.8702 84.8533 55.3516C84.9031 53.833 83.6417 52.233 82.0999 52.2917C81.2551 52.3215 80.5434 52.7797 79.818 53.2467L79.7891 53.2653L79.3447 53.5463C79.1203 53.6834 78.8917 53.8131 78.6548 53.9233C77.5375 54.447 76.2913 54.5138 75.0411 54.5139L73.6816 54.5064C72.4817 54.5099 71.2852 54.5928 70.099 54.7535C59.43 67.5265 51.9043 83.0159 48.7135 100.032C51.3143 100.001 53.86 100.894 55.8818 102.578C56.6306 103.305 57.4282 103.98 58.2689 104.599C59.1461 105.159 60.2854 105.462 61.2393 105.051C62.3277 104.571 62.7721 103.438 63.046 102.228L63.1364 101.799C63.1505 101.727 63.1643 101.656 63.1777 101.584L63.3688 100.531C64.0568 97.2919 65.864 94.3988 68.4732 92.3592C71.0817 90.341 74.184 89.0596 77.4567 88.6485L77.7873 88.6049C77.898 88.591 78.0089 88.5776 78.1202 88.5647L79.8038 88.3846L80.4778 88.3063C82.2702 88.0818 84.0099 87.7089 85.3959 86.601C85.8269 86.256 86.2052 85.8512 86.5699 85.4323L87.1116 84.7988C87.6531 84.166 88.208 83.5525 88.9088 83.1118C89.4928 82.7446 90.1396 82.5186 90.7906 82.3116L91.5701 82.0644C92.2152 81.853 92.8411 81.6116 93.3893 81.218C94.8451 80.174 95.4464 78.3163 95.7538 76.5537C95.9255 75.8848 95.913 75.1821 95.7177 74.5198C95.3657 73.8046 94.8126 73.2077 94.1262 72.8023C91.9606 71.2565 89.5734 69.8283 86.924 69.5887C84.5656 69.3848 82.2247 70.1409 80.4316 71.6859C80.1357 71.9423 79.8563 72.2195 79.5809 72.5013L79.032 73.066C78.4812 73.6271 77.9138 74.1627 77.2307 74.5424C76.0015 75.1338 74.63 75.3657 73.2747 75.2113C70.8649 75.0847 68.3963 74.3073 66.719 72.5808C65.0416 70.8543 64.3815 68.0294 65.5887 65.9458C66.2204 64.9882 67.0384 64.1674 67.9939 63.5323C69.6216 62.312 71.3532 61.164 73.3153 60.6261C74.307 60.3549 75.3308 60.2444 76.3572 60.1674L77.8953 60.0611C79.4279 59.9482 81.0013 59.7131 82.3531 58.9674ZM101.279 45.1144C101.925 44.4681 102.183 43.3653 101.649 42.6195C101.116 41.8737 99.8997 41.7155 98.9096 41.8331C97.8208 41.9444 96.7465 42.1685 95.7041 42.502C94.6918 42.8914 93.6482 43.1938 92.5845 43.4059C91.7851 43.5189 90.9801 43.4676 90.1737 43.3923L89.2056 43.2996C88.5602 43.2422 87.915 43.2054 87.2721 43.2613C87.1038 43.2761 86.9122 43.3051 86.7044 43.3476L86.3814 43.4214C84.5477 43.8821 81.8492 45.2389 82.2356 47.1166C82.5868 48.8237 85.3244 49.1214 87.2792 48.9415L87.6587 48.8995C88.0872 48.8436 88.4616 48.7652 88.7415 48.6759C89.51 48.4312 90.2091 48.0217 90.9084 47.6121C91.6039 47.2048 92.2995 46.7973 93.0637 46.5517C93.968 46.2556 94.9231 46.207 95.8912 46.2048L97.14 46.2116C97.6956 46.2119 98.2502 46.1991 98.7966 46.1358L99.0459 46.1139C99.8725 46.0156 100.652 45.6679 101.279 45.1144Z" fill="#74A352"/>
    <path opacity="0.500646" fill-rule="evenodd" clip-rule="evenodd" d="M199.203 190C144.25 190 99.7028 145.452 99.7028 90.5001C99.7028 63.2493 110.658 38.5573 128.404 20.5875C81.9446 28.9776 46.7028 69.6233 46.7028 118.5C46.7028 173.452 91.2505 218 146.203 218C173.904 218 198.962 206.68 217.002 188.413C211.227 189.456 205.278 190 199.203 190Z" fill="black" fill-opacity="0.239862"/>
    <path fill-rule="evenodd" clip-rule="evenodd" d="M138 72.7777C138 68.7083 141.582 65.4093 146 65.4093C150.418 65.4093 154 68.7083 154 72.7777C154 78.1905 146 85.4093 146 85.4093C146 85.4093 138 78.1905 138 72.7777Z" fill="#C23814"/>
    <circle cx="146" cy="73.4093" r="3" fill="white"/>
    <path fill-rule="evenodd" clip-rule="evenodd" d="M233 86.7777C233 82.7083 236.582 79.4093 241 79.4093C245.418 79.4093 249 82.7083 249 86.7777C249 92.1905 241 99.4093 241 99.4093C241 99.4093 233 92.1905 233 86.7777Z" fill="#C23814"/>
    <circle cx="241" cy="87.4093" r="3" fill="white"/>
    <path fill-rule="evenodd" clip-rule="evenodd" d="M47 82.7777C47 78.7083 50.5817 75.4093 55 75.4093C59.4183 75.4093 63 78.7083 63 82.7777C63 88.1905 55 95.4093 55 95.4093C55 95.4093 47 88.1905 47 82.7777Z" fill="#C23814"/>
    <circle cx="55" cy="83.4093" r="3" fill="white"/>
    <path fill-rule="evenodd" clip-rule="evenodd" d="M170 73.5672C170 70.7186 172.507 68.4093 175.6 68.4093C178.693 68.4093 181.2 70.7186 181.2 73.5672C181.2 77.3562 175.6 82.4093 175.6 82.4093C175.6 82.4093 170 77.3562 170 73.5672Z" fill="#C23814"/>
    <circle cx="175.6" cy="74.0093" r="2.1" fill="white"/>
    <path fill-rule="evenodd" clip-rule="evenodd" d="M198 96.5672C198 93.7186 200.507 91.4093 203.6 91.4093C206.693 91.4093 209.2 93.7186 209.2 96.5672C209.2 100.356 203.6 105.409 203.6 105.409C203.6 105.409 198 100.356 198 96.5672Z" fill="#C23814"/>
    <circle cx="203.6" cy="97.0093" r="2.1" fill="white"/>
    <path fill-rule="evenodd" clip-rule="evenodd" d="M68 74.5672C68 71.7186 70.5072 69.4093 73.6 69.4093C76.6928 69.4093 79.2 71.7186 79.2 74.5672C79.2 78.3562 73.6 83.4093 73.6 83.4093C73.6 83.4093 68 78.3562 68 74.5672Z" fill="#C23814"/>
    <circle cx="73.6" cy="75.0093" r="2.1" fill="white"/>
    <path fill-rule="evenodd" clip-rule="evenodd" d="M189 76.7251C189 74.8938 190.612 73.4093 192.6 73.4093C194.588 73.4093 196.2 74.8938 196.2 76.7251C196.2 79.1609 192.6 82.4093 192.6 82.4093C192.6 82.4093 189 79.1609 189 76.7251Z" fill="#C23814"/>
    <circle cx="192.6" cy="77.0093" r="1.35" fill="white"/>
    <path fill-rule="evenodd" clip-rule="evenodd" d="M181 96.7251C181 94.8938 182.612 93.4093 184.6 93.4093C186.588 93.4093 188.2 94.8938 188.2 96.7251C188.2 99.1609 184.6 102.409 184.6 102.409C184.6 102.409 181 99.1609 181 96.7251Z" fill="#C23814"/>
    <circle cx="184.6" cy="97.0093" r="1.35" fill="white"/>
    <path fill-rule="evenodd" clip-rule="evenodd" d="M47 119.725C47 117.894 48.6118 116.409 50.6 116.409C52.5882 116.409 54.2 117.894 54.2 119.725C54.2 122.161 50.6 125.409 50.6 125.409C50.6 125.409 47 122.161 47 119.725Z" fill="#C23814"/>
    <circle cx="50.6" cy="120.009" r="1.35" fill="white"/>
    <path opacity="0.391426" fill-rule="evenodd" clip-rule="evenodd" d="M49 31.95V32H42.5H36.5H36V31.9595C34.3039 31.6822 33 30.0151 33 28C33 25.9181 34.3917 24.2077 36.1698 24.0176C36.8406 21.142 39.4201 19 42.5 19C46.0899 19 49 21.9101 49 25.5C49 26.0163 48.9398 26.5185 48.8261 27H49V27.05C49.1616 27.0172 49.3288 27 49.5 27C50.8807 27 52 28.1193 52 29.5C52 30.8807 50.8807 32 49.5 32C49.3288 32 49.1616 31.9828 49 31.95Z" fill="#D8D8D8"/>
    <path opacity="0.685152" fill-rule="evenodd" clip-rule="evenodd" d="M47.7987 184.289L52.0976 184.289L56.0143 184.289H56.3964V184.261C57.5868 184.086 58.4981 183.107 58.4981 181.926C58.4981 180.665 57.4596 179.634 56.1518 179.566C55.8339 177.635 54.1398 176.16 52.0976 176.16C49.8289 176.16 47.9898 177.98 47.9898 180.224C47.9898 180.45 48.0083 180.671 48.044 180.886H47.7987C46.8491 180.886 46.0792 181.648 46.0792 182.587C46.0792 183.527 46.8491 184.289 47.7987 184.289Z" fill="#D8D8D8"/>
    <path fill-rule="evenodd" clip-rule="evenodd" d="M214.548 55.5231L222.814 55.5231H231.233L231.692 55.5231V55.5013C234.098 55.272 235.979 53.2603 235.979 50.8125C235.979 48.211 233.854 46.102 231.233 46.102C231.152 46.102 231.071 46.104 230.991 46.108C230.402 42.1498 226.965 39.1122 222.814 39.1122C218.249 39.1122 214.548 42.7859 214.548 47.3176C214.548 47.8368 214.596 48.3447 214.689 48.8372H214.548C212.688 48.8372 211.18 50.3338 211.18 52.1801C211.18 54.0264 212.688 55.5231 214.548 55.5231Z" fill="#D8D8D8"/>
    <path fill-rule="evenodd" clip-rule="evenodd" d="M90.8637 200.922H80.0541H70.158H69.0923V200.836C66.1525 200.353 63.9158 197.907 63.9158 194.961C63.9158 191.78 66.525 189.181 69.8111 189.009C70.5435 183.989 74.8505 180.135 80.0541 180.135C85.7718 180.135 90.4069 184.789 90.4069 190.529C90.4069 191.048 90.369 191.558 90.2958 192.057H90.8637H91.0159V192.06C93.3839 192.14 95.2789 194.093 95.2789 196.49C95.2789 198.887 93.3839 200.839 91.0159 200.92V200.922H90.8637Z" fill="#D8D8D8"/>
    <path fill-rule="evenodd" clip-rule="evenodd" d="M92.5 60H76.5H59.5H59V59.9871C53.9857 59.7271 50 55.579 50 50.5C50 45.2533 54.2533 41 59.5 41C59.7302 41 59.9584 41.0082 60.1845 41.0243C61.3789 33.086 68.2287 27 76.5 27C85.6127 27 93 34.3873 93 43.5C93 44.701 92.8717 45.8719 92.628 47H93V47.0189C96.3562 47.2743 99 50.0784 99 53.5C99 56.9216 96.3562 59.7257 93 59.9811V60H92.5Z" fill="#D8D8D8"/>
    <ellipse cx="168.909" cy="231.409" rx="118.5" ry="8" fill="#131313" fill-opacity="0.200296"/>
    <rect x="207.327" y="212.375" width="45.0885" height="9.47238" fill="black"/>
    <path d="M269.496 180.804C271.47 184.006 272.934 187.495 273.837 191.146C275.071 196.671 274.671 196.181 274.671 196.181L267.905 197.957C267.534 198.055 267.143 197.89 266.955 197.556C265.548 195.061 259.938 185.168 259.2 184.699C258.355 184.163 269.496 180.804 269.496 180.804Z" fill="#575770"/>
    <path d="M262.217 185.713C260.667 185.752 259.16 185.197 258.007 184.161C254.822 181.277 249.857 171.264 248.817 169.122L260.702 151.358C264.305 160.355 269.969 173.471 270.143 175.074C270.366 177.123 270.242 181.145 268.36 183.223C266.708 184.81 264.508 185.701 262.217 185.713Z" fill="black"/>
    <path d="M245.667 149.779L253.583 133.949L256.741 135.529L248.826 151.358L245.667 149.779Z" fill="black"/>
    <path d="M253.599 134.022L256.675 135.56H254.805L253.599 134.022Z" fill="#4D4D4D"/>
    <path d="M252.847 135.527L254.8 135.569L255.922 137.064H254.052L252.847 135.527Z" fill="#4D4D4D"/>
    <path d="M252.099 137.021L254.053 137.063L255.174 138.559H253.304L252.099 137.021Z" fill="#4D4D4D"/>
    <path d="M251.347 138.527L253.3 138.568L254.421 140.065H252.552L251.347 138.527Z" fill="#4D4D4D"/>
    <path d="M250.572 140.075L252.526 140.117L253.647 141.612H251.777L250.572 140.075Z" fill="#4D4D4D"/>
    <path d="M249.82 141.58L251.772 141.621L252.894 143.118H251.025L249.82 141.58Z" fill="#4D4D4D"/>
    <path d="M249.071 143.075L251.025 143.116L252.147 144.613L250.276 144.612L249.071 143.075Z" fill="#4D4D4D"/>
    <path d="M248.319 144.579L250.272 144.622L251.394 146.117H249.524L248.319 144.579Z" fill="#4D4D4D"/>
    <path d="M247.579 146.058L249.533 146.099L250.654 147.596H248.784L247.579 146.058Z" fill="#4D4D4D"/>
    <path d="M246.827 147.563L248.78 147.605L249.901 149.1H248.032L246.827 147.563Z" fill="#4D4D4D"/>
    <path d="M246.079 149.057L248.033 149.099L249.154 150.595H247.284L246.079 149.057Z" fill="#4D4D4D"/>
    <path d="M253.04 133.022C253.21 132.683 253.622 132.546 253.961 132.716L257.503 134.488C257.842 134.657 257.98 135.069 257.81 135.408L257.487 136.055C257.317 136.394 256.905 136.531 256.566 136.361L253.024 134.589C252.685 134.42 252.547 134.008 252.717 133.669L253.04 133.022Z" fill="#4D4D4D"/>
    <path d="M199.3 135.529L202.459 133.949L210.374 149.779L207.216 151.358L199.3 135.529Z" fill="black"/>
    <path d="M202.442 134.022L199.367 135.56H201.237L202.442 134.022Z" fill="#4D4D4D"/>
    <path d="M203.195 135.527L201.241 135.569L200.12 137.064H201.99L203.195 135.527Z" fill="#4D4D4D"/>
    <path d="M203.942 137.021L201.989 137.063L200.867 138.559H202.737L203.942 137.021Z" fill="#4D4D4D"/>
    <path d="M204.695 138.527L202.742 138.568L201.62 140.065H203.49L204.695 138.527Z" fill="#4D4D4D"/>
    <path d="M205.469 140.075L203.517 140.117L202.394 141.612H204.265L205.469 140.075Z" fill="#4D4D4D"/>
    <path d="M206.223 141.58L204.269 141.621L203.147 143.118H205.018L206.223 141.58Z" fill="#4D4D4D"/>
    <path d="M206.97 143.075L205.017 143.116L203.895 144.613L205.765 144.612L206.97 143.075Z" fill="#4D4D4D"/>
    <path d="M207.723 144.579L205.77 144.622L204.648 146.117H206.518L207.723 144.579Z" fill="#4D4D4D"/>
    <path d="M208.462 146.058L206.509 146.099L205.387 147.596H207.257L208.462 146.058Z" fill="#4D4D4D"/>
    <path d="M209.215 147.563L207.262 147.605L206.14 149.1H208.01L209.215 147.563Z" fill="#4D4D4D"/>
    <path d="M209.962 149.057L208.01 149.099L206.887 150.595H208.757L209.962 149.057Z" fill="#4D4D4D"/>
    <path d="M203.325 133.669C203.494 134.008 203.357 134.42 203.018 134.589L199.476 136.361C199.137 136.531 198.725 136.394 198.555 136.055L198.232 135.408C198.062 135.069 198.199 134.657 198.538 134.488L202.081 132.716C202.42 132.546 202.832 132.683 203.001 133.022L203.325 133.669Z" fill="#4D4D4D"/>
    <path d="M184.091 182.592C182.2 185.844 180.826 189.369 180.016 193.042C178.924 198.597 179.311 198.096 179.311 198.096L186.12 199.699C186.494 199.787 186.88 199.612 187.06 199.273C188.403 196.743 193.758 186.71 194.483 186.223C195.314 185.665 184.091 182.592 184.091 182.592Z" fill="#464558"/>
    <path d="M191.402 186.764C188.727 186.7 186.204 185.537 184.448 183.559C182.676 181.234 182.947 177.073 183.386 174.982C183.73 173.345 190.247 160.616 194.941 151.691L206.442 170.935C205.131 173.041 198.9 182.88 195.257 185.542C194.145 186.354 192.79 186.783 191.403 186.764L191.402 186.764Z" fill="black"/>
    <path d="M230.737 216.342C219.736 216.342 201.624 208.597 197.749 206.882L204.506 192.949C204.597 192.76 204.644 192.552 204.644 192.343C204.642 190.981 204.605 183.988 204.193 179.88C203.784 175.795 198.984 156.095 194.255 151.587C197.651 149.468 213.13 140.213 224.247 140.213C242.693 140.213 256.922 145.409 261.507 150.564C260.139 154.692 253.635 174.44 252.811 179.382C252.168 183.72 251.865 188.102 251.906 192.488C251.906 193.442 254.229 198.312 258.81 206.964C255.776 208.683 241.634 216.342 230.737 216.342Z" fill="#575770"/>
    <path d="M194.197 152.838C194.05 152.711 193.973 152.525 193.989 152.334C194.004 152.143 194.032 151.793 194.197 151.691C197.792 149.477 215.964 138.797 227.263 138.797C226.608 150.925 229.402 200.464 228.89 216.14C217.676 216.14 201.356 208.342 197.858 206.817C197.705 206.751 197.586 206.626 197.529 206.471C197.471 206.317 197.48 206.146 197.554 205.998L204.315 192.318C204.356 192.235 204.378 192.144 204.377 192.052C204.375 190.979 204.343 184.012 203.934 180.001C203.512 175.862 198.677 156.769 194.197 152.838Z" fill="#464558"/>
    <path opacity="0.1" d="M238.138 141.644C238.1 141.688 238.06 141.731 238.023 141.777C236.838 143.159 243.23 145.524 241.887 146.75C237.972 150.324 234.227 154.147 230.042 157.409C226.027 160.599 221.567 163.185 216.804 165.086C211.801 167.029 206.324 167.457 201.416 169.644C199.51 162.913 196.794 155.398 194.196 153.076C194.05 152.947 193.973 152.756 193.988 152.562C194.004 152.367 194.109 152.191 194.274 152.086C197.87 149.831 213.274 140.596 224.574 140.596C229.114 140.615 233.648 140.965 238.138 141.644Z" fill="black"/>
    <path fill-rule="evenodd" clip-rule="evenodd" d="M234.33 136.674H240.625C240.625 136.674 242.978 144.125 243.763 153.002C244.547 161.879 243.763 172.18 243.763 172.18C243.763 172.18 243.364 174.234 240.625 175.662C237.887 177.09 234.33 177.099 234.33 177.099C234.33 177.099 235.685 166.992 235.685 156.886C235.685 146.78 234.33 136.674 234.33 136.674Z" fill="#2B2A37"/>
    <path fill-rule="evenodd" clip-rule="evenodd" d="M210.735 139.392C210.735 139.392 201.483 143.639 209.157 153.251C216.83 162.864 239.218 162.519 246.011 152.089C252.803 141.659 239.542 136.099 239.542 136.099L210.735 139.392Z" fill="#464558"/>
    <path fill-rule="evenodd" clip-rule="evenodd" d="M238.827 141.17H245.122C245.122 141.17 247.475 148.622 248.259 157.499C249.044 166.375 248.259 176.677 248.259 176.677C248.259 176.677 247.861 178.731 245.122 180.159C242.383 181.587 238.827 181.595 238.827 181.595C238.827 181.595 240.182 171.489 240.182 161.383C240.182 151.277 238.827 141.17 238.827 141.17Z" fill="#464558"/>
    <path opacity="0.3" d="M238.138 141.644C238.1 141.688 238.06 141.731 238.023 141.777C236.838 143.159 243.171 144.377 242.074 145.702C238.023 150.595 234.227 154.147 230.042 157.409C226.027 160.599 221.567 163.185 216.804 165.086C211.801 167.029 206.324 167.457 201.416 169.644C199.51 162.913 196.794 155.398 194.196 153.076C194.05 152.947 193.973 152.756 193.988 152.562C194.004 152.367 194.032 151.796 194.196 151.691C195.912 150.615 200.299 147.746 205.678 145.348C206.342 137.801 219.884 136.363 224.574 140.596C229.114 140.615 233.648 140.965 238.138 141.644Z" fill="black"/>
    <path d="M229.574 197.826C220.958 197.713 212.148 195.779 204.377 192.052L204.21 184.469C207.6 186.212 218.215 190.893 230.335 190.893C238.107 191.008 245.732 188.769 252.211 184.469L251.908 192.066C250.26 193.106 242.088 197.826 229.574 197.826Z" fill="black"/>
    <path fill-rule="evenodd" clip-rule="evenodd" d="M247.45 122.305C247.266 122.302 247.085 122.342 246.92 122.42C245.136 110.354 237.181 101.255 227.636 101.255C218.104 101.255 210.157 110.329 208.359 122.371C208.229 122.325 208.091 122.303 207.953 122.305C206.583 122.339 205.534 124.884 205.611 127.99C205.686 131.002 207.311 134.269 208.66 134.431C210.922 145.613 218.56 153.839 227.636 153.839C236.711 153.839 244.348 145.615 246.611 134.437L246.619 134.438C247.99 134.472 249.715 131.095 249.792 127.99C249.869 124.884 248.82 122.339 247.45 122.305Z" fill="#575770"/>
    <path fill-rule="evenodd" clip-rule="evenodd" d="M227.71 101.258C227.685 101.258 227.661 101.255 227.636 101.255C218.104 101.255 210.157 110.329 208.359 122.371C208.229 122.325 208.091 122.303 207.953 122.305C206.583 122.339 205.534 124.884 205.611 127.99C205.686 131.002 207.311 134.269 208.66 134.431C210.922 145.613 218.56 153.839 227.636 153.839C227.661 153.839 227.685 153.837 227.71 153.837V101.258Z" fill="#464558"/>
    <path fill-rule="evenodd" clip-rule="evenodd" d="M242.809 123.303C241.07 121.263 237.942 121.132 235.468 121.016H220.286C217.813 121.132 214.684 121.263 212.945 123.303C211.5 124.999 211.268 128.339 211.557 130.449C211.842 132.532 213.137 135.252 215.418 135.631C215.887 135.694 216.363 135.697 216.833 135.639C218.336 135.544 219.819 135.248 221.243 134.759C222.567 134.251 223.792 133.507 225.146 133.072C225.655 132.91 226.18 132.806 226.713 132.764C227.249 132.722 227.79 132.741 228.328 132.743L228.427 132.744C228.953 132.742 229.478 132.796 229.992 132.906C230.2 132.952 230.405 133.007 230.609 133.072C231.963 133.507 233.187 134.251 234.512 134.759C235.936 135.248 237.419 135.544 238.922 135.639C239.392 135.697 239.868 135.694 240.337 135.631C242.617 135.252 243.912 132.532 244.197 130.449C244.486 128.339 244.254 124.999 242.809 123.303Z" fill="#EEBDAA"/>
    <path fill-rule="evenodd" clip-rule="evenodd" d="M227.896 121.016V132.739C227.5 132.737 227.105 132.734 226.712 132.763C226.18 132.806 225.654 132.909 225.146 133.072C223.79 133.506 222.567 134.249 221.243 134.758C219.819 135.247 218.335 135.543 216.831 135.638C216.362 135.696 215.887 135.694 215.418 135.631C213.136 135.25 211.843 132.532 211.556 130.448C211.269 128.337 211.501 124.999 212.946 123.303C214.685 121.262 217.813 121.132 220.286 121.016L227.896 121.016Z" fill="#D19F93"/>
    <path d="M230.355 232.956C230.702 233.01 231.057 232.992 231.398 232.904C232.315 232.599 232.583 231.455 232.707 230.497L233.565 223.866C233.596 223.73 233.587 223.587 233.538 223.456C233.476 223.355 233.39 223.271 233.288 223.212C229.985 220.938 226.081 219.685 222.692 217.542C220.809 216.351 219.095 214.891 217.122 213.855C214.702 212.719 212.141 211.914 209.506 211.46C209.304 212.695 209.028 213.917 208.68 215.12C207.755 218.574 206.772 222.143 204.503 224.906C203.575 226.037 202.18 227.155 201.794 228.623C202.637 228.961 203.528 229.164 204.434 229.225C205.371 229.413 206.309 229.595 207.248 229.772C209.083 230.117 210.921 230.441 212.764 230.743C216.492 231.354 220.233 231.876 223.988 232.309C226.107 232.553 228.229 232.769 230.355 232.956Z" fill="#575770"/>
    <path d="M199.509 229.617C198.852 229.615 198.195 229.574 197.543 229.495C193.972 228.963 190.538 227.748 187.428 225.916C184.534 224.337 181.248 222.432 178.878 219.783C177.054 217.854 176.043 215.296 176.055 212.642C176.158 210.783 176.743 208.983 177.752 207.419C181.117 201.98 186.644 200.838 190.689 200.838C195.403 200.957 200.028 202.145 204.216 204.313C204.714 204.566 205.207 204.83 205.695 205.105C208.825 206.865 210.803 209.065 211.74 211.831C212.127 212.976 212.316 214.178 212.299 215.386C212.133 218.6 211.063 221.702 209.212 224.335C207.999 226.23 206.276 227.744 204.239 228.701C202.743 229.332 201.132 229.644 199.509 229.617Z" fill="black"/>
    <path d="M233.983 230.284L228.381 223.263C228.172 223.001 227.814 222.913 227.508 223.048C224.322 224.454 207.528 231.864 206.574 232.3C205.521 232.781 206.71 234.681 208.304 234.693C212.256 234.721 221.551 233.57 224.113 234.525C226.98 235.594 233.983 230.284 233.983 230.284Z" fill="#464558"/>
    <path d="M225.173 234.565C224.831 234.647 224.476 234.66 224.129 234.601C223.19 234.373 222.827 233.256 222.623 232.311L221.215 225.775C221.172 225.642 221.17 225.499 221.208 225.364C221.26 225.258 221.339 225.167 221.436 225.1C224.537 222.558 228.323 220.983 231.521 218.565C233.298 217.22 234.884 215.622 236.764 214.425C239.08 213.091 241.565 212.075 244.152 211.402C244.458 212.616 244.835 213.811 245.282 214.98C246.492 218.345 247.77 221.819 250.262 224.383C251.282 225.432 252.765 226.43 253.272 227.861C252.46 228.268 251.589 228.545 250.691 228.681C249.773 228.947 248.854 229.207 247.933 229.461C246.133 229.959 244.328 230.435 242.518 230.89C238.854 231.81 235.169 232.643 231.464 233.388C229.372 233.808 227.275 234.2 225.173 234.565Z" fill="#464558"/>
    <path d="M254.444 228.71C253.22 228.722 252.003 228.53 250.842 228.143C248.733 227.359 246.888 225.995 245.521 224.207C243.457 221.739 242.132 218.737 241.698 215.549C241.581 214.346 241.669 213.132 241.958 211.958C242.66 209.123 244.447 206.765 247.42 204.75C247.883 204.436 248.352 204.132 248.828 203.838C253.299 200.971 258.459 199.359 263.766 199.17C268.795 199.17 272.729 201.038 275.458 204.722C276.595 206.196 277.328 207.941 277.586 209.785C277.82 212.429 277.026 215.062 275.369 217.137C273.23 219.973 270.114 222.147 267.361 223.962C264.415 226.049 261.094 227.547 257.581 228.376C256.55 228.592 255.499 228.704 254.445 228.71L254.444 228.71Z" fill="black"/>
    <path d="M271.089 206.938C270.722 206.935 270.356 206.901 269.995 206.837C269.448 206.772 268.922 206.588 268.453 206.298C267.836 205.875 267.446 205.193 267.396 204.447L267.392 204.356C267.393 204.286 267.384 204.217 267.367 204.149C267.318 204.062 267.254 203.985 267.177 203.922L267.068 203.811C266.381 202.955 266.226 201.789 266.664 200.783C266.828 200.335 267.022 199.899 267.244 199.478C267.458 199.074 267.642 198.656 267.797 198.226C267.837 198.085 267.899 197.951 267.98 197.829C268.063 197.719 268.166 197.626 268.285 197.555C268.703 197.331 269.169 197.213 269.643 197.209C269.795 197.196 269.946 197.184 270.095 197.161C270.642 197.051 271.172 196.87 271.672 196.621C272.199 196.364 272.755 196.171 273.328 196.044C273.467 196.012 273.608 195.993 273.751 195.987C273.97 195.98 274.181 196.069 274.33 196.231C274.512 196.459 274.65 196.72 274.736 197C274.765 197.075 274.792 197.146 274.819 197.207C275.083 197.809 275.292 198.434 275.445 199.073C275.621 199.806 275.7 200.559 275.681 201.313C275.659 203.195 274.809 204.971 273.357 206.168C273.078 206.389 272.77 206.569 272.441 206.703C272.009 206.867 271.55 206.946 271.089 206.938Z" fill="black"/>
    <path d="M183.517 207.782C183.17 207.785 182.825 207.736 182.493 207.636C182.154 207.527 181.833 207.371 181.538 207.172C180 206.088 179.019 204.38 178.857 202.506C178.779 201.756 178.801 200.998 178.922 200.254C179.026 199.605 179.188 198.967 179.406 198.346C179.428 198.285 179.449 198.212 179.471 198.137C179.536 197.85 179.655 197.578 179.82 197.335C179.977 197.142 180.215 197.035 180.463 197.046C180.555 197.048 180.646 197.055 180.737 197.068C181.341 197.148 181.933 197.302 182.499 197.525C183.016 197.735 183.559 197.876 184.113 197.945C184.263 197.956 184.415 197.956 184.566 197.958C185.039 197.927 185.513 198.01 185.946 198.201C186.069 198.262 186.179 198.347 186.27 198.45C186.355 198.556 186.422 198.674 186.47 198.801C186.66 199.229 186.88 199.642 187.129 200.038C187.383 200.442 187.609 200.862 187.806 201.296C188.32 202.266 188.253 203.441 187.632 204.347L187.531 204.465C187.46 204.535 187.402 204.616 187.36 204.706C187.348 204.773 187.345 204.842 187.351 204.91L187.353 205.008C187.359 205.755 187.021 206.464 186.438 206.931C185.993 207.255 185.482 207.478 184.942 207.586C184.477 207.708 183.998 207.775 183.517 207.782H183.517Z" fill="black"/>
    <path d="M235.883 129.927C235.082 129.903 234.308 129.615 233.663 129.101C233.442 128.923 233.397 128.584 233.562 128.345C233.727 128.106 234.041 128.057 234.262 128.236C234.612 128.689 235.127 128.955 235.673 128.964C236.219 128.974 236.742 128.727 237.107 128.287C237.302 128.077 237.618 128.077 237.813 128.288C238.008 128.499 238.008 128.84 237.813 129.051C237.308 129.617 236.61 129.934 235.883 129.927Z" fill="#01002B"/>
    <path d="M237.494 125.043C237.773 125.12 238.013 125.195 238.052 124.756C238.079 124.444 237.59 124.366 237.71 124.381C237.903 124.405 238.025 124.267 238.052 124.074C238.072 123.881 237.938 123.707 237.747 123.677C236.414 123.363 235.015 123.491 233.762 124.044C233.607 124.111 233.525 124.281 233.569 124.444C233.615 124.605 233.77 124.71 233.937 124.692L234.893 124.671C235.193 124.653 235.493 124.656 235.792 124.681C236.368 124.751 236.757 124.837 237.494 125.043Z" fill="#01002B"/>
    <path d="M220.345 129.927C221.146 129.903 221.92 129.615 222.565 129.101C222.786 128.923 222.831 128.584 222.665 128.345C222.5 128.106 222.187 128.057 221.966 128.236C221.615 128.689 221.1 128.955 220.554 128.964C220.008 128.974 219.485 128.727 219.121 128.287C218.926 128.077 218.61 128.077 218.415 128.288C218.22 128.499 218.22 128.84 218.414 129.051C218.92 129.617 219.618 129.934 220.345 129.927Z" fill="#01002B"/>
    <path d="M218.733 125.043C218.455 125.12 218.214 125.195 218.176 124.756C218.149 124.444 218.638 124.366 218.518 124.381C218.324 124.405 218.202 124.267 218.176 124.074C218.155 123.881 218.29 123.707 218.481 123.677C219.814 123.363 221.213 123.491 222.466 124.044C222.621 124.111 222.703 124.281 222.659 124.444C222.613 124.605 222.457 124.71 222.291 124.692L221.334 124.671C221.035 124.653 220.735 124.656 220.436 124.681C219.86 124.751 219.471 124.837 218.733 125.043Z" fill="#01002B"/>
</svg>
