<svg width="320" height="260" fill="none" xmlns="http://www.w3.org/2000/svg"><path d="M147.83 142.2V33.09L290.61 10v158.03L147.83 142.2Zm2.16-107.28V140.4l138.46 25.04V12.54L149.99 34.92Z" fill="#9CDEFF"/><path d="M153.4 37.89v98.78l128.7 22.07V19.24L153.4 37.88Z" fill="#9CDEFF"/><path d="M258.72 51.2v34.37l-31-.44V53.6l31-2.4ZM268.7 102.13a1.08 1.08 0 0 0 .05-2.16l-31.61-1.6c-.6-.04-1.1.42-1.13 1.02-.03.6.42 1.1 1.02 1.13l31.6 1.61h.06ZM268.7 110.48a1.08 1.08 0 0 0 .05-2.17l-44.37-2.43a1.08 1.08 0 1 0-.12 2.16l44.37 2.43h.06ZM268.38 118.82a1.08 1.08 0 0 0 .1-2.16L217 112.18a1.09 1.09 0 0 0-.19 2.16l51.48 4.48h.1Z" fill="#fff"/><path d="m177.03 86.98.32 22.8 22.54 2.36v-25.1l-22.85-.06Zm22.4 24.65-21.63-2.26-.3-21.92 21.92.06v24.12Z" fill="#929292" stroke="#929292" stroke-miterlimit="10"/><path d="m176.57 86.52.32 23.7 23.46 2.44V86.58l-23.78-.06Z" fill="#fff"/><path d="m176.57 86.52.32 23.7 23.46 2.44V86.58l-23.78-.06Zm22.86 25.11-21.62-2.26-.3-21.92 21.92.06v24.12Z" fill="#929292"/><path d="M241.93 75.56c-.47 0-.93-.2-1.23-.59l-7.48-9.53a1.55 1.55 0 0 1 2.43-1.9l7.48 9.52a1.55 1.55 0 0 1-1.2 2.5Z" fill="#75A152"/><path d="M241.92 75.56a1.55 1.55 0 0 1-1.28-2.42l9.8-14.28a1.55 1.55 0 0 1 2.54 1.74L243.2 74.9c-.3.43-.78.66-1.26.67Z" fill="#75A152"/><path d="m160.81 54.85.1-.01 53.28-5.22a1.08 1.08 0 0 0-.2-2.15l-53.28 5.22a1.08 1.08 0 0 0 .1 2.16ZM160.5 67.52h.06l53.59-3.06a1.08 1.08 0 0 0-.12-2.16l-53.59 3.06a1.08 1.08 0 0 0 .06 2.16ZM160.81 74h.04l53.27-1.81a1.08 1.08 0 0 0-.07-2.16l-53.28 1.81a1.08 1.08 0 0 0 .04 2.17ZM160.66 46.2c.06 0 .12 0 .18-.02l98.86-11.55a1.55 1.55 0 0 0-.36-3.07l-98.86 11.55a1.55 1.55 0 0 0 .17 3.09ZM184.75 59.55h.08l29.42-2.24a1.08 1.08 0 0 0-.16-2.15l-29.42 2.23a1.08 1.08 0 0 0 .08 2.16ZM160.58 61.22h.08l15.37-1.12a1.08 1.08 0 0 0-.15-2.16l-15.38 1.12a1.08 1.08 0 0 0 .07 2.16ZM184.6 80.19h.02l29.48-.28a1.08 1.08 0 0 0-.01-2.16h-.01l-29.48.27a1.08 1.08 0 0 0 0 2.17Z" fill="#fff"/><path d="M168.57 119.63c.99.97 2.32 1.88 3.59 2.3 2.93.98 5.85-2.6 7.16-4.22 1.3-1.63 2.92-2.93 4.16-3.98.89-.77 2.06-1.58 2.14-2.21.03-.24-.1-.46-.45-.64-1.3-.65-3.9.33-6.5 1.95-2.6 1.63-4.23.65-4.23.65l-1.16.4c-1.76.61-4.98 1.8-5.96 2.5l-.04.03c-.74.56-.01 1.94 1.29 3.22Z" fill="#D58500"/><path d="m159.48 113.48.01.02c.3.4 4.6 5.94 7.48 6.72.22.06.43.09.64.09 2.66 0 6.94-3.77 7.69-6.41.07-.26.11-.51.11-.75v-.05c0-1.24-.07-2.55-.28-3.86a17.59 17.59 0 0 0-1.17-4.22c-.1-.23-.25-.46-.46-.68a3.59 3.59 0 0 0-.26-.26l-.02-.02-.05-.04a1.6 1.6 0 0 0-.13-.11l-.27-.2-.19-.13-.16-.1a7.8 7.8 0 0 0-.82-.44l-.21-.09a3.75 3.75 0 0 0-.21-.09l-.25-.1-.23-.08a8.73 8.73 0 0 0-1.27-.36l-.3-.06-.11-.02c-.3-.06-.58-.1-.87-.14l-.28-.03a8.88 8.88 0 0 0-1.52-.03h-.1l-.26.03c-.1 0-.2.02-.29.03l-.27.04a5.64 5.64 0 0 0-1.1.28 4.83 4.83 0 0 0-1.57.93l-.16.16-.2.21-.16.26-.05.1c-.08.13-.16.3-.23.48l-.06.14a18.54 18.54 0 0 0-.55 1.53l-.19.6-.1.35-.16.55-.18.66-.03.11-.08.29c0 .05-.02.1-.04.14l-.07.29a15.42 15.42 0 0 0-.2.76l-.22.91-.14.58c-.07.3-.13.59-.2.83l-.05.27-.18.77v.05l-.02.09h-.01Z" fill="#D58500"/><path opacity=".36" d="M159.48 113.48a2.71 2.71 0 0 0 .02.02c.32.35 4.33 4.67 7.47 6.72 1 .64 1.9 1.07 2.59 1.07.3 0 .62-.05.95-.14.54.33 1.1.6 1.65.79 2.93.97 5.85-2.6 7.16-4.23 1.3-1.63 2.92-2.93 4.16-3.98.89-.77 2.06-1.58 2.14-2.21-.04-.05-.35-.39-1.34-.35-1.06.04-3.66 1.66-3.99 2.96-.32 1.3-4.22 1.74-4.88.98-.29-.34-.13-.84-.11-1.2.01-.3.05-.56.11-.81 0-1.24-.07-2.55-.28-3.86 0 0 .48-.63 1.07-1.45-.56-.73-1.3-1.4-1.92-1.96-.8-.72-1.4-1.24-1.15-1.46-.04-.29.16-.22.1-.3h-.01l-.05-.05a1.32 1.32 0 0 0-.13-.11h-.01l-.26-.2-.2-.13-.15-.1a9.01 9.01 0 0 0-2.65-1.08c-.53-.13-1.08-.24-1.63-.3l-.27-.03a8.93 8.93 0 0 0-1.53-.03h-.1l-.26.03c-.1 0-.2.02-.29.03l-1.45 1.43s-.62-.22-1.05-.53a3.74 3.74 0 0 0-.44.35l-.16.16-.19.21c-.06.07-.11.16-.17.26l-.05.1c-.08.13-.16.3-.23.48l-.06.14c-.15.35-.3.75-.45 1.2l-.1.33-.19.6-.1.35-.16.55-.18.66-.03.11-.08.29c0 .05-.02.1-.03.14l-.08.29-.11.43-.09.33-.22.91-.14.58-.2.83-.05.27-.18.77v.05l-.02.09Z" fill="#B45F00"/><path d="M167.38 105.12c-.03.41.21.82.64 1.12.82.58 2.28.77 3.66-.14l.5-.38c.35-.3.68-.63 1-.99l.32-.39c1.22-1.5 2.05-3.18 2.05-3.18s-.14-.07-.38-.16l-.22-.08c-.9-.3-2.66-.76-4.1-.12a5.8 5.8 0 0 0-.48.24l-.01.01a6.32 6.32 0 0 0-2.17 2.08c-.22.34-.4.68-.54 1-.16.37-.25.7-.28.99h.01Z" fill="#D58500"/><path opacity=".36" d="M167.38 105.12c-.1 1.2 2.2 2.37 4.3.98.17-.12.34-.24.5-.38 1.88-1.57 3.38-4.56 3.38-4.56s-.14-.07-.39-.16c0 0-6.7 4.45-6.97 2.12a4.64 4.64 0 0 0-.82 2Z" fill="#B45F00"/><path d="M172.16 106c0 1.62 1.07 4.85 2.97 3.24 0 0 .48-.63 1.07-1.46.93-1.3 2.14-3.13 2.14-3.73l.93-.78c1.09-.91 2.76-2.37 2.97-2.8l.43-.2c.81-.43 2.5-1.42 2.5-2.4 0-1.3-4.51 0-5.35.32a25.8 25.8 0 0 0-3.39 1.8 8.3 8.3 0 0 0-1.19.92.74.74 0 0 0-.07.09.52.52 0 0 0-.08.12c-.39.76-1.34 1.76-2.05 2.78-.43.61-.77 1.23-.86 1.81l-.02.28Z" fill="#D58500"/><path opacity=".36" d="M172.16 106c0 1.62 1.07 4.85 2.97 3.24 0 0 .48-.63 1.07-1.46.93-1.3 2.14-3.13 2.14-3.73l.93-.78c1.09-.91 2.76-2.37 2.97-2.8l.43-.21c-.99.2-2.29.57-3.68 1.18-2.92 1.3-3.26-.97-3.26-.97l-.28.23a2.33 2.33 0 0 0-.28.3.52.52 0 0 0-.08.12c-.39.77-1.34 1.76-2.05 2.78-.43.61-.77 1.23-.86 1.81l-.02.29Z" fill="#B45F00"/><path d="M163.48 105.44c-.1 1.2 2.2 2.38 4.3.98l.24-.17c.93-.7 1.78-1.78 2.42-2.73.19-.27.35-.52.49-.76.45-.74.72-1.27.72-1.27s-.52-.25-1.28-.45l-.14-.03a5.25 5.25 0 0 0-3.27.11c-.57.25-1.09.61-1.54 1.01v.01a6.98 6.98 0 0 0-1.17 1.38l-.03.04a4.5 4.5 0 0 0-.75 1.88Z" fill="#D58500"/><path opacity=".36" d="M163.48 105.44c-.1 1.2 2.2 2.38 4.3.98l.24-.17c.9-.68 1.75-1.73 2.38-2.67-1.71.58-4.33.75-6.16-.05-.45.7-.72 1.4-.76 1.91Z" fill="#B45F00"/><path opacity=".72" d="m160.07 110.9 5.8-3.2-.48-1.38s-2.93 1.93-4.79 2.47l-.11.42c-.16.59-.3 1.16-.42 1.68Z" fill="#B45F00"/><path d="M97.42 229.76s5.47 6.3 15.3 8.06a136.74 136.74 0 0 0 22.42 2.17c23.76.32 37.74-6.03 37.74-6.03s-1.91-10.68-3.14-16.58v-.01c-.38-1.8-.69-3.16-.86-3.63a50.4 50.4 0 0 0-3.89-7.96 38.5 38.5 0 0 0-1.3-1.96c-.28 0-.66.48-1.03.92-.28.34-.56.66-.77.7l-.22.05c-1.78.37-3.56.75-5.35 1.11-6.45 1.35-12.93 2.9-19.59 2.65-6.4-.11-12.8-1.15-19.16-2.03-2.82-.4-5.81-.76-8.55.2-.8.28-.74-1.35-1.43-.9-1.24 3.08-9.17 19.28-10.17 23.24Z" fill="#575770"/><path opacity=".25" d="M97.42 229.76s5.47 6.3 15.3 8.06c8.2 1.45 15.7 2.08 22.43 2.17 10.34-20.96 34.59-22.61 34.59-22.61-.38-1.81-.69-3.17-.86-3.63a45.45 45.45 0 0 0-4.53-8.96l-1.69-.05c-.28.34-.56.66-.77.7-1.86.4-3.71.78-5.57 1.16-6.45 1.35-12.94 2.9-19.59 2.65-6.4-.11-12.81-1.15-19.16-2.03-2.82-.4-5.82-.76-8.55.2-.8.28-.74-1.35-1.43-.9-1.25 3.08-9.17 19.28-10.17 23.24Z" fill="#2B2B37"/><path opacity=".25" d="M97.42 229.76s5.47 6.3 15.3 8.06c1.87.32 3.69.61 5.47.86 3.52-3.84 14.32-14.91 24.3-17.65 11.7-3.2 23.59-11.13 24.46-11.71-.6-1.2-1.25-2.39-1.96-3.53l-3.32-.3-5.35 1.11c-6.45 1.36-12.94 2.9-19.59 2.65-6.4-.11-12.81-1.15-19.16-2.03-2.82-.4-5.82-.76-8.55.2-.8.28-.74-1.35-1.43-.89-1.25 3.07-9.17 19.27-10.17 23.24Z" fill="#2B2B37"/><path d="M90.59 153.79a14.43 14.43 0 0 0 3.31 7.17 9.58 9.58 0 0 0 5.08 2.93c7.84 1.75 18.33-3.34 25.08-4.37.8-.13 1.55-.2 2.24-.18.85.01 1.3-1 1.45-2.79 1-11.72-11.2-56.4-11.2-56.4s-12.7.97-25.7 45.53a18.4 18.4 0 0 0-.26 8.11Z" fill="#464558"/><path opacity=".25" d="M90.59 153.79a14.43 14.43 0 0 0 3.31 7.17 9.58 9.58 0 0 0 5.08 2.93c7.84 1.75 18.33-3.34 25.08-4.37.8-.13 1.55-.2 2.24-.18.85.01 1.3-1 1.45-2.79 1-11.72-11.2-56.4-11.2-56.4s-12.7.97-25.7 45.53a18.4 18.4 0 0 0-.26 8.11Z" fill="#2B2B37"/><path opacity=".25" d="M90.59 153.79c.83 4.56 3.36 8.99 8.39 10.1 7.84 1.75 18.33-3.34 25.08-4.37a10.57 10.57 0 0 0-.04-8.96c-6.18-13.34-18.54-14.64-18.54-14.64s-10.92 21.75-14.9 17.87Z" fill="#2B2B37"/><path opacity=".25" d="M93.9 160.96a9.58 9.58 0 0 0 5.08 2.93c7.85 1.75 18.34-3.34 25.08-4.37.8-.13 1.55-.2 2.24-.18.85.01 1.3-1 1.46-2.79a10.54 10.54 0 0 0-1.56-3.76c-8.02-12.32-20.44-11.83-20.44-11.83s-7.33 21.97-11.86 20Z" fill="#2B2B37"/><path d="M143.44 140.5c1.25 6.85 7.38 10.74 12.56 13.1a12.4 12.4 0 0 1 2.18 1.88c.12.17.59.55.76.77.18.22.45.27.58.69.52-2.12-.28 1.36.54-2.14.82-3.5 3.28-15.64 4.3-19.3 1.03-3.66.61-1.6 1.4-4.07-.06.2-.01.03-.04.08a18.35 18.35 0 0 1 3.87-4.2c.04-.03.16-.15.24-.2l.27-.23.22-.18c.32-.28.63-.53.93-.84a11.37 11.37 0 0 0 2.5-3.64c.07-.14.2-.77-.17-.97-1.5-1.35-2.58-3.77-3.37-5.61-1.38-3.19-2.78-5.75-3.94-8.92-1.06.68-2.35 1.58-3.37 2.17-1.31.76-2.27.98-3.66.85-.2.36-.17.8-.17 1.23.02 1.62-.11 3.13-.44 4.71-.34 1.58-.77 3.19-1.08 4.8l-.08.43c-.05.3-.07.62-.08.92l-2.23 1.84-.21.2c-.05.04-.08.12-.1.19-.13.36-.6 1.92-.7 2.04a171.32 171.32 0 0 0-10.44 13.49c-.38.54-.17.09-.26.47-.08.38-.1-.09 0 .45Z" fill="#575771"/><path opacity=".25" d="M154.85 124.05c1.05-.6 2.03-.88 3.17-.6.92.73.8 1.72 1.83 2.46 2.56 1.87 3.8 5.55 4.68 8.95.37-1.13.78-2.24 1.2-3.34a18.5 18.5 0 0 1 3.85-4.2l.24-.21.27-.22.22-.2c.32-.26.64-.53.94-.83.38-.39.79-.8 1.1-1.25-.54 0-1.96-.05-2.34 0-2.69.35-3.79-.74-5.79-2.52-2.98-.41-4.35-3.42-5.6-6.41-.34 1.6-.75 3.18-1.08 4.8l-.08.44c-.05.3-.07.61-.08.92-.75.6-1.48 1.22-2.23 1.84l-.2.19c-.06.05-.07.11-.1.18Z" fill="#2B2B37"/><path opacity=".25" d="M143.44 140.47c.66 2.43.76 3.15 2.56 5.63a24.57 24.57 0 0 0 9.88 7.41c-.94-2.8-.96-5.87-.72-8.87.02-.26.15-.7.14-.88-.12-3.94 2.86-12.21 5.17-13.32 3.67-1.76 7.14-5.66 5.24-9.28a26.45 26.45 0 0 1-2.83-12.26c-1.23.7-2.3 1-3.64.83-.2.37-.18.81-.17 1.24a18.47 18.47 0 0 1-.45 4.71c-.34 1.6-.76 3.19-1.07 4.8l-.08.44a7 7 0 0 0-.09.92l-2.15 1.77-.08.07c-.04.04-.16.13-.21.19-.05.06-.05.08-.1.19-.14.34-.4 1.08-.47 1.37-.05.23 0-.06-.01.07s-.2.62-.24.66a158.3 158.3 0 0 0-10.41 13.42c-.38.54-.19.12-.26.47-.08.35-.13 0-.01.42Z" fill="#2B2B37"/><path opacity=".25" d="M143.44 140.48a11.86 11.86 0 0 0 2.45 5.35c-.2-5.7 4.85-13.73 8.07-15.55 3.22-1.82 3.58-2.28 3.6-4.78.03-2.5.92-.84 2.87-2.1 1.95-1.27 1.66-2.2 1.7-5.45.02-1.98-1.54-3.87-3.12-4.82-.08.85-.2 1.69-.39 2.56-.34 1.58-.76 3.19-1.07 4.8l-.08.43a7 7 0 0 0-.09.92l-2.22 1.84-.22.2c-.05.04-.07.12-.1.19-.12.36-.6 1.92-.7 2.04a174.49 174.49 0 0 0-10.43 13.48c-.39.54-.17.15-.27.46-.1.31-.05.1 0 .43Z" fill="#2B2B37"/><path d="M145.3 141.68c1.73-4.15 5.25-8.17 8.28-11.17.04-.04.04-.05.08-.05-.24 4.62.17 9.9 1.47 14.03.32 1.01.44 1 .62 1.4.18.4.29.55.3.56.28.15.37-.3.24-.54-.42-.82-.75-1.09-1.02-2.21-1.03-4.26-1.63-9-1.12-13.56.7-1.42 6.78-2.54 6.92-2.55 1.44-.17 1.07-.16 1.65.05.3.11.54-.33.26-.46-.58-.28-.25-.3-1.7-.15-.15.02-6.35 1.14-7.09 2.48-.06-2.01.54-3.97 1.04-5.9-.03.04-.03.02-.08.07-.04.05-.15.13-.2.2-.06.06-.05.06-.1.18-.16.4-.4.98-.48 1.4-.06.31.06-.36-.03.15-.08.5-.38 1.97-.49 2.74l-.14 1.46c-.14.14-.15.1-.31.27-3.06 3.1-6.64 7.17-8.4 11.4-.22.53.07.74.3.2Z" fill="#2B2B37"/><path d="M100.25 130.6c.51 10.7 2.9 21.44 4.39 32.14h-.01c1.69 11.67-6.37 32.27 8.1 43.93.9.73 1.28.4 1.55-.3.48-1.27.61-3.7 2.69-3.36 3.33.53 6.67.95 10.03 1.25a167 167 0 0 0 25.13.3c2.15-.12 4.3-.29 6.43-.5 3.53-.33 7.8.76 8.12-2.64 2.63-33.98 3.05-49.92.44-74.93-1.23-6.3-12.47-21.14-19.5-21.04-1.26 3.72-17.26-9.27-28.11-6.95-13.4 3.12-20.03 21.91-19.25 32.1Z" fill="#575770"/><path opacity=".25" d="M100.25 130.6c.51 10.7 2.9 21.44 4.39 32.14h-.01c1.73 11.56-6.27 31.51 7.55 43.46 110.74 6.26-30.56-38.34 56.48-47.25-.04-2.89-.1-5.63-.13-8.5-3.6-5.94-7.19-13.85-4.78-18.87 4.09-7.82 2.33-9.44-2.61-16-3.23-3.6-8.34-10.24-13.53-10.13-1.25 3.72-17.26-9.27-28.1-6.95-13.4 3.12-20.03 21.92-19.26 32.1Z" fill="#2B2B37"/><path opacity=".25" d="M101.64 143.63c.8 5.35 1.86 11.58 3 19.1l-.01.02c1.69 11.66-6.38 32.26 8.1 43.92.9.73 1.28.4 1.55-.3.48-1.27.61-3.7 2.69-3.36a160.3 160.3 0 0 0 29.26 1.82c-5.78-27.76-27.32-30.59-4.43-62.03 9.9 1.37 14.7-15.75 20.47-25.75a46.77 46.77 0 0 0-9.33-9.56c-5.33-.38-11.7.28-16.08 1.43-1.51 3.4-13.16-6.63-24.45-7.14-12.4 12.88-13.86 23.34-10.77 41.86Z" fill="#2B2B37"/><path opacity=".25" d="M101.64 143.63c2.77-4.98 11.69-17.76 13.8-5.64 1.72 9.89 10.73 21.88 16.9 23.17 2.47.52 4.49-.66 5.41-4.35 3.23-12.96 13.4-9.07 13.4-9.07s.26-4.52.23-9.92c-.05-7.19-.63-15.93-3.02-17.62-4.18-2.96 1.9-8.3 1.9-8.3s-3.36-1.7-8.44-3.94c-6.47-2.87-15.75-6.64-24.43-8.95-1.73.55-3.4 1.44-4.98 2.77-.48.4-.95.84-1.41 1.33l-.04.03-.26.3c-.18.19-.36.39-.52.6-.13.14-.25.3-.37.45l-.66.84c-9.9 12.97-10.12 20.95-7.52 38.3Z" fill="#2B2B37"/><path opacity=".25" d="M112.18 206.2c.18.17.36.32.55.47.9.73 1.28.4 1.55-.3.48-1.27.61-3.7 2.69-3.36 4.49.72 9.02 1.22 13.56 1.53.08-.23.12-.47.11-.72-.06-8.55-16.23-17.41-20.5-24.97-4.27-7.56-2.67-32.4 0-24.42 5.72 17.12 5.9-4.36 5.31-16.63-.58-12.26 20.11-24.96 20.11-24.96 2.84-9.37-16.34-9.59-24.56-9.74-.4.43-.8.89-1.19 1.39-13.73 17.52-10.07 25.7-5.18 58.25 1.73 11.56-6.28 31.5 7.55 43.46Z" fill="#2B2B37"/><path d="m149.57 108.18-.04.6c.13-.19.26-.36.38-.56l-.35-.04Z" fill="#575770"/><path d="M150.07 59.06c1.44 2.8 3.6 9.67 4.98 12.03.58 1 1.37-.81 1.37-.81s1.16-1.81.94-2.8c-.21-.99-1.63-2.75-1.65-5.64a3.9 3.9 0 0 0-.9-2.16l-1.77-2.95c-1.76-2.35-3.23-2.91-3.23-2.91s-.24 2.22-.76 2.72c-.13.13.3 1.12 1.02 2.52Z" fill="#464558"/><path opacity=".32" d="m154.8 59.68-1.76-2.95 1.77 2.95Z" fill="#323147"/><path d="M152.73 59.6s1.91.2 2.1 1.5c.18 1.31 1.33 5.61 1.61 5.96.29.35.09 2.26-.23 2.23-.32-.04-3.51-9.37-3.44-10.01.06-.64-.04.32-.04.32Z" fill="#323147"/><path d="M126.21 79.29c-1.24 11.68 11.83 22.47 17.8 23.1 13.04 1.39 12.96-9.96 14.2-21.64.13-1.25-1.47-4.33-1.98-5.67-1.03-2.76.13-4.19 0-6.11-.16-2.67-.73-4.7-1.73-6.46a12.1 12.1 0 0 0-3.4-3.81c-.83-.61-1.72-1.1-2.62-1.48-14.15-6-21.03 10.39-22.27 22.07Z" fill="#D58500"/><path opacity=".36" d="M142.65 91c.75 2 12.23-3 8.88-4.85-3.36-1.84-5.25-5.06-5.09-6.65.2-1.93.83-2.6 2.35-3.93 1.52-1.32 1.72-1.1 3.6-.58 2.26.63 2.2-2.66 2.2-2.66s-5.9-1.9-5.98-4.17c-.3-8.21 7.42-5.86 4.7-7.86-1.47-.34-5.43-2.16-7.51-2.27-8.03-.39-3.9 30.96-3.15 32.97Z" fill="#B45F00"/><path opacity=".36" d="M153.03 61.08s-5.12 1.54-6.9 6.17c-1.78 4.64-2.88 13.8-.65 18.26 2.24 4.45-8.73 3.57-8.36.08.37-3.5 5.49-24.5 9.79-25.65 4.3-1.15 6.12 1.14 6.12 1.14Z" fill="#B45F00"/><path d="m145.45 101.64.2.22a19.92 19.92 0 0 0 .84.85l.22.2a7.13 7.13 0 0 0 3.65 1.96 2.86 2.86 0 0 0 .46.02h.04l.1-.01h.01l.22-.02.3-.06.24-.06.25-.1.26-.1c.23-.12.45-.26.66-.42l.13-.1c.07-.06.15-.12.22-.2l.05-.04.16-.16.29-.3.1-.12.11-.14.1-.14c.05-.04.09-.1.12-.14l.1-.15.1-.15.11-.16c2.94-4.52 4.08-13.69 5.07-16.71l.18-.4a4.99 4.99 0 0 0-.51-4.4l-.14-.2a4.76 4.76 0 0 0-1.12-1.17c.09.06.1 1.3-1.4 2.28-1.25.73-7.79 2.12-12.72 3.12-.06 0-.11.02-.17.03l-.53.1a6642.8 6642.8 0 0 0-3.15.62c-1.61 2.24 1.1 11.11 5.45 16.05Z" fill="#323147"/><path d="m142.94 88.73.08.72c.22 1.96.92 7.54 2.37 12l.06.19.2.22a10.36 10.36 0 0 0 .67.69l.17.15.22.2a8.83 8.83 0 0 0 3.35 1.92c1.83.34 3.27-.71 4.43-2.5 2.94-4.52 4.08-13.7 5.07-16.72l.18-.39c-.4.18-1.09.57-1.8 1.1-2.12 1.56-.45 5.35-2.38 4.84-1.92-.52-.91-6.86-1.93-6.29-1.01.58-.24 10.4-3.59 9.65a8.93 8.93 0 0 1-3.57-2.03 25.84 25.84 0 0 1-3.5-3.7l-.03-.05ZM141.13 85.44c.68 1 1.67 1.63 2.34.82 1.48-1.77 6.7-2.5 8.64-2.62 1.94-.12 4.9-.77 4.87-1.36-.04-.56 1.59-1.34 2.1-1.68a4.77 4.77 0 0 0-1.11-1.16c.08.06.1 1.3-1.41 2.28-1.24.73-7.78 2.12-12.71 3.12-.06 0-.11.02-.17.03l-.53.1a76.51 76.51 0 0 1-2.03.46v.01Z" fill="#2B2B37"/><path d="M159.98 84.38a5 5 0 0 0-.75-3.57s-2.93 4.06.75 3.57Z" fill="#464558"/><path d="m143.07 88.9-.05.55c-.37 4.02-.28 9.44 2.37 12 .07.08.15.14.22.2a25.12 25.12 0 0 0 3.83 2.98c.2.08.41.15.62.2a3.6 3.6 0 0 0 .76.06H150.97l.22-.03.3-.05.24-.07a4 4 0 0 0 .25-.09l.26-.11c.23-.12.45-.26.66-.42l.13-.1.22-.19.05-.05.16-.15.29-.31.1-.12a6.46 6.46 0 0 0 .33-.42l.1-.14.1-.16.11-.15c-1.14.06-4.14-.28-6.14-5.04-.67-1.59-1.3-3.24-1.88-4.8a173.57 173.57 0 0 1-2.62-7.65l-.17.03c-.13.65-.42 2.16-.61 4.03Z" fill="#21212B"/><path opacity=".57" d="m145.45 101.64.2.22a19.92 19.92 0 0 0 .84.85l.22.2a7.13 7.13 0 0 0 3.65 1.96 2.86 2.86 0 0 0 .46.02h.04l.1-.01h.01l.22-.02.3-.06.24-.06.25-.1.26-.1c.23-.12.45-.26.66-.42l.13-.1c.07-.06.15-.12.22-.2l.05-.04.16-.16.29-.3.1-.12.11-.14.1-.14c.05-.04.09-.1.12-.14l.1-.15.1-.15.11-.16c2.94-4.52 4.08-13.69 5.07-16.71l.18-.4a4.99 4.99 0 0 0-.51-4.4l-.14-.2a4.76 4.76 0 0 0-1.12-1.17c.09.06.1 1.3-1.4 2.28-1.25.73-7.79 2.12-12.72 3.12-.06 0-.11.02-.17.03l-.53.1a6642.8 6642.8 0 0 0-3.15.62c-1.61 2.24 1.1 11.11 5.45 16.05Z" fill="url(#a)"/><path d="M109.65 68.91c-.67 5.52.58 17.58 3.23 20.86a92.46 92.46 0 0 1 .87 1.1l.02.01a23.24 23.24 0 0 1 1.87 2.78l.09.17c1.2 2.27 1.33 4.1 1.98 8.02.37 1.19 1.43 1.32 3.74 2.42l.07.03h.02c4.7 2.2 12.29 4.1 18.59 5.4l.97.2c4.64.93 8.43 1.5 9.54 1.56H150.93a1.9 1.9 0 0 0 1.6-.78c.02 0 .02-.01.03-.02l.06-.1a4.24 4.24 0 0 0 .39-1.5v-.03a7.68 7.68 0 0 0-.03-.99l-.02-.2a9.56 9.56 0 0 0-.31-1.53l-.03-.11a17.28 17.28 0 0 1-2.45-2.58 23.52 23.52 0 0 1-2.9-4.98v-.01a57.18 57.18 0 0 1-1.82-4.85v-.03l-.14-.4a36.25 36.25 0 0 1-1.17-5.22 56.32 56.32 0 0 1-.55-12.68c.2-2.78.68-5.44 1.48-7.68a13.06 13.06 0 0 1 2.13-3.93 6.74 6.74 0 0 1 2.71-2.08 7.4 7.4 0 0 1 4.25-.41 19.04 19.04 0 0 0-.59-3.14c-.15-.51-.32-1-.53-1.48a10.28 10.28 0 0 0-2.12-3.18c-2.5-2.54-6.56-3.97-12.73-3.88h-.23a45.61 45.61 0 0 0-3.8.24c-2.32.23-11.54 2.63-14.32 4.59-4.22 2.97-6.81 6.67-9.65 12.15-.18.37-.33.9-.45 1.58 0 .08-.02.15-.03.22 0 .08-.02.15-.03.23-.02.07-.02.15-.03.23Z" fill="#464558"/><path d="M154.24 73.7c.61-.15 1.03-1.29.36-1.8-.35-.27-3.09-1.42-6.38.1l-.08.02-.03.03c0 .02-.02.02-.02.02-.08.04-.05.22.02.18.04-.03 4.28 1.88 6.13 1.46Z" fill="#323147"/><path opacity=".32" d="M109.65 68.91c-.43 3.56-.06 9.84.96 14.73.57 2.7 1.33 4.96 2.27 6.13a58.2 58.2 0 0 1 .87 1.1h.01l.32.42.15.2a21.28 21.28 0 0 1 1.4 2.17l.1.17c1.2 2.27 1.33 4.1 1.98 8.02.3.34.7.69 1.2 1.03l.14.1a13.3 13.3 0 0 0 1.3.75l.65.32.52.25h.01l.53.24.73.3.43.17.61.24.64.23.24.1a27.64 27.64 0 0 0 1.08.37l.6.2.6.2a97.48 97.48 0 0 0 1.64.5l.89.26 1.3.37c3.1.84 6.34 1.6 9.3 2.23l.97.2c3.54.72 6.6 1.23 8.37 1.45.5.06.9.1 1.17.1l.14.01h.15a1.98 1.98 0 0 0 1.57-.73l.04-.05.02-.03a1.02 1.02 0 0 0 .1-.16 3.75 3.75 0 0 0 .36-1.44v-.55l-.02-.27-.02-.2-.02-.2-.02-.18a9.37 9.37 0 0 0-.3-1.36c0-.06-.02-.1-.02-.1a5.6 5.6 0 0 1-.69-.53 12.78 12.78 0 0 1-1.76-2.04 35.95 35.95 0 0 1-2.89-4.98v-.01c-.7-1.49-1.3-3.12-1.82-4.85-8.63-1.28-9.71-15.02-19.24-14.5-10.02.54-6.13-18.01-.34-17.43 4.8.48 8.31-8.87 9.36-12.05l-1.08.1c-2.32.24-11.54 2.64-14.32 4.6-4.22 2.96-6.81 6.66-9.64 12.15-.19.36-.34.9-.45 1.58l-.04.22-.03.22-.03.24Z" fill="#323147"/><path opacity=".32" d="M110.65 83.58c.56 2.7 1.32 4.97 2.26 6.14a48.84 48.84 0 0 1 .86 1.1l.01.01.32.42.15.2a21.01 21.01 0 0 1 1.4 2.16l.08.18c1.2 2.27 1.32 4.1 1.96 8.02.3.35.7.7 1.2 1.04l.14.1.4.24.31.2.6.32.63.32.53.24h.01l.53.24.73.3.43.18a19.9 19.9 0 0 0 1.24.47l.25.09.5.18a44.03 44.03 0 0 0 1.78.6l1.24.39.4.11a126.32 126.32 0 0 0 11.48 2.9l.97.2c3.54.74 6.59 1.26 8.36 1.48 2.3-1.59 3.53-3.58 2.48-5.68a6.3 6.3 0 0 0-1.75-2.05s-.72 5.35-10.14 3.09-25.6-13.55-29.36-23.19Z" fill="#323147"/><path opacity=".32" d="M109.65 68.91c-.67 5.52.58 17.58 3.23 20.86a94.6 94.6 0 0 1 .87 1.1l.02.01.31.42c.06.06.1.13.15.2a21.28 21.28 0 0 1 1.4 2.16l.1.17c1.2 2.27 1.33 4.1 1.98 8.02.3.35.7.69 1.2 1.03l.15.1a14.79 14.79 0 0 0 1.94 1.08l.52.24h.02l.52.24.73.3.43.18c.2.07.4.16.62.23l.63.24.24.08a38.6 38.6 0 0 0 1.08.38l.6.2.6.2 1.25.38.4.12.88.26 1.31.37c3.17-3.16.91-14.1-6.03-14.86-8.26-.9-12.95-12.2-14.22-17.75a67.6 67.6 0 0 1-.84-6.62l-.03.21-.04.22-.03.24Z" fill="#323147"/><path opacity=".72" d="M152.58 75.28c-1.51-1.26-3.88.67-3.2-.44.08-.13 1.63-1.27 3.2.44Z" fill="#B45F00"/><path d="M150.78 75.72c-.03.16-.05.34-.06.52-.06 1.04.2 1.9.58 1.93.38.02.74-.8.8-1.85.02-.18.03-.35.02-.52l-1.34-.08Z" fill="#323147"/><path d="M147.34 76.58c-.08 0-1.05.28 0-.66 1.83-1.28 3.3-.58 4.38-.63.51-.02 1.6.15 1.5.28-1.1 1.36-.65.56-1.57.42-1.02-.15-4.31.59-4.31.59Z" fill="#323147"/><path d="M151.77 76.86c.01-.2-.05-.35-.15-.36-.1 0-.18.15-.19.33-.01.2.06.35.15.36.1 0 .18-.15.2-.33Z" fill="#fff"/><path opacity=".32" d="M144.28 92.98c.3.33.65.44 1.03.37a36.25 36.25 0 0 1-1.17-5.22 56.26 56.26 0 0 1-.56-12.68c.21-2.78.68-5.44 1.49-7.68a13.06 13.06 0 0 1 2.13-3.93 6.75 6.75 0 0 1 2.71-2.08 7.4 7.4 0 0 1 4.24-.4 19.04 19.04 0 0 0-.58-3.15c-.15-.51-.33-1-.54-1.48-.16-.06-6.25-2.26-7.24 1.3-1 3.62-2.93 10.24-5.85 11.82-2.93 1.58.22 18.7 4.34 23.13Z" fill="#323147"/><path d="M147.2 63.84a6.75 6.75 0 0 1 2.71-2.08 7.4 7.4 0 0 1 4.24-.4c-.04-.44-.1-.87-.16-1.29l-.02-.02s-4.34-.18-6.76 3.76l-.01.03Z" fill="#323147"/><path d="M145 96.07c1.13 2.48 5 7.39 5.16 7.55a23.48 23.48 0 0 1-2.89-4.98 56.5 56.5 0 0 1-1.82-4.85l-.01-.03a34.8 34.8 0 0 1-1.3-5.63 56.25 56.25 0 0 1-.56-12.68c.21-2.78.68-5.44 1.49-7.68-4.85 5.9-2.56 22.8-.06 28.3ZM136.92 54.06c.72 2.33 14-.5 14-.5-2.5-2.54-6.57-3.97-12.73-3.89-.77 1.14-1.71 2.94-1.27 4.4Z" fill="#575770"/><path d="m106.24 197.94.43 10.68c15.28 7.68 42.36 8.06 58.91 1.28.49-.2.96-.4 1.42-.61v-10.6a133.7 133.7 0 0 1-10.67 2.1c-17.31 2.64-33.15 1.35-50.09-2.85Z" fill="#2B2B37"/><path opacity=".46" d="m106.24 197.94.43 10.68c6.56 3.3 15.28 5.25 24.42 5.86 6.5.45 13.22.21 19.51-.7a64.2 64.2 0 0 0 14.98-3.88c-.25-.73-.48-1.54-.74-2.4-1.92-2.75-9.02-2.08-7.47-6.69l-1.04-.02a118.42 118.42 0 0 1-26.46 1.05c-7.81-.57-15.6-1.9-23.63-3.9Z" fill="#21212B"/><path opacity=".46" d="m106.25 197.94.42 10.68c6.56 3.3 15.29 5.24 24.42 5.86 6.51.45 13.23.21 19.52-.7-.17-1.64-.57-3.36-1.53-4.4-2.07-2.25-3.95-3.75-3.1-7.47-5.45.36-10.79.32-16.11-.07-7.81-.57-15.6-1.91-23.63-3.9Z" fill="#21212B"/><path d="m106.24 197.94.43 10.67v.01c6.56 3.3 15.28 5.25 24.42 5.86-1.52-2.24-3.16-5.2-3.16-8.76 0-2.03 1.46-3.47 1.94-3.88-7.81-.57-15.6-1.9-23.63-3.9Z" fill="#21212B"/><path d="M116.29 108.68c3.95 4.24 10.15 5.7 15.77 4.74 8.33-.47 20.09 2.39 24.8-6.5.65-1.49-1.2-3.16-2.26-4.17-.58.65.43 1.27-.33 1.95-3 3.18-6.6 4.48-10.95 4.72a26.67 26.67 0 0 1-23.7-4.42c-1.11-.7-1.46-2.42-2.67-2.9-2.55.65-2.08 5-.66 6.58Z" fill="#75A152"/><path opacity=".37" d="M115.73 103.07c-1.8 4.28 2.6 7.95 6.24 9.34 3.14 1.6 6.67 1.4 10.09 1.02 3.23-.2 6.5.2 9.74.07-.95-1.19-.57-2.62.3-3.8-8.57 2.43-18.55-.67-24.77-6.6-.6-.75-1.27-1.14-1.6-.27v.24Z" fill="#568040"/><path d="M116.29 108.68c1.1 1.3 2.67 2.4 4.16 3.17.4-.39.71-.93 1.33-.8 1.59.47 3.2.9 4.8 1.33 3.42.79 6.92.12 10.35-.1 4.2-.57 11.6.41 14.76-2.12 1.9-1.76 2.6-4.1 4.26-6.04-.42-.5-.9-.96-1.35-1.37a.82.82 0 0 0-.1.16c.78 1.48-.61 2.08-1.55 2.96-2.57 2.52-6.13 3.26-9.63 3.55a26.65 26.65 0 0 1-23.7-4.43c-1.28-.64-1.7-6.55-2.91-4.35 0 0-1.2-.24-1.46.48-.98 2.69-.19 6.01 1.04 7.56Z" fill="#568040"/><path d="M152.27 107.79c.37-.78.68-1.57 1.13-2.3-2.65 2.7-6.36 3.69-10.08 3.93-2.04.44-4.01 1.18-6.14 1.07 3.56.75 7.42.52 11.03.21 1.85-.15 3.45-1.18 4.06-2.92ZM133.52 111.35c.77-.2 1.44-.56 2.13-.9-6.83.14-13.58-2.92-18.33-7.36-.3-.29-.75-.6-1.2-.45-.76 5.13 1.93 6.85 6.65 7.58 3.5.68 7.19 1.87 10.76 1.12Z" fill="#3E5C2E"/><path d="M156.24 107.33c.39-.3.5-.87.18-1.25-.74-.88-2.4.67-1.73 1.88.3.4 1.04.1 1.03-.4 0-.17.36-.1.52-.23Z" fill="#AED888"/><path opacity=".25" d="M155.65 114.03Z" fill="#2B2B37"/><path opacity=".36" d="M182.66 112.59c.21-.25 1.52-1.53 2.61-1.1-.93-.53-2.2.05-2.6 1.1ZM184.47 97.64c-.1.14-.78.81-1.9.23 1.02.63 1.91.48 1.9-.23Z" fill="#B45F00"/><path d="M170.53 105.02c0 .65.66 0 1.12-.72.48-.73 3.44-3.18 3.44-3.18l.08-.12.07-.1a.81.81 0 0 0-.07.1l-.21-.08s-2.8 2.48-3.3 2.88c-.51.4-1.13.57-1.13 1.22ZM167.42 104.14c0-.02.02-.03.03-.05.13-.25.41-.6.75-.96a22.6 22.6 0 0 1 2.16-2.08h.01l-.14-.04-1.36 1.2-1 .89c-.32.28-.71.72-1.02 1.04l-.22.23c-.32.32.3.64.79-.23ZM163.7 104.37c0-.11.23-.45.52-.82l.02-.02v-.01c.49-.6 1.11-1.31 1.17-1.38h.01l-.3.05a16.53 16.53 0 0 1-1 1.32c-.33.4-.62.74-.74.86-.33.32.32.32.32 0Z" fill="#B45F00"/><path d="M213.93 139.68s-.72.92-2.9-.54c-2.17-1.47-11.18-6.65-10.74-8.6.45-1.96 12.79 7.45 13.64 9.14Z" fill="#2B2B37"/><path d="M212.97 85.91a1.88 1.88 0 0 1 .05.37l.02.27.02.27.01.14.02.35.04.7.03.6v.1l.03.5v.06l.04 1.03.03.56v.06l.02.35.02.37.01.38.03.58.03.7.09 1.64.02.36c.06 1.06.12 1.96.18 2.51.27 2.44 1.77 6.17 3.67 6.43 1.9.27 2.27-11.49 1.26-12.6 0 0-.44-2.02-1-4.07a34.5 34.5 0 0 0-.38-1.3 11.78 11.78 0 0 0-1.04-2.61c-1.44-2.11-2.91-3.07-3.83-2.61-.81.4.45 4.29.63 4.87Z" fill="#D58500"/><path opacity=".36" d="M212.97 85.91a1.88 1.88 0 0 1 .05.37l.02.27.02.27.01.14.02.35.04.7.03.6v.1l.03.5v.06l.04 1.03.03.56v.06l.02.35.02.37.01.38.03.58.03.7.09 1.64.02.36c.1.04.2.08.29.1l.36.04c2.29.18 2.59-2.3 2.57-3.76-.01-.6-.07-1.04-.07-1.04s-.24-.18-.53-.56l-.18-.25a6.04 6.04 0 0 1-.9-3.87c.24-3.25-2.68-4.91-2.68-4.91-.81.41.46 4.3.63 4.88v-.02Z" fill="#B45F00"/><path d="M228.53 107.81s1.82-1.14 3.72-3.76a21.26 21.26 0 0 0 3.14-6.4c.69-2.3 1.04-4.1 1.15-5.56a7.46 7.46 0 0 0-.6-3.97c-.45-.89-1.1-1.5-1.83-2.02l-.14-.1-.13-.1-.21-.13-1.46-.92c-.33-.23-.73-.46-1.18-.69-.47-.24-.99-.48-1.54-.73-3.39-1.47-7.92-2.71-8.59-1.8-.59.78-2.59 4.56-4.85 8.63-1.09 1.95-1.52 4.12-2.05 5.78-.07.22-.12.46-.16.72-.72 5.41 6.51 17.84 14.74 11.05Z" fill="#D58500"/><path d="M234.94 93.92c.3-.02.67-.17 1.09-.48l.5-1.34c.84-2.23 2.46-6.42 2.78-6.4.43.03 3.76-3.53 4.26-4.45.14-.24.22-.56.25-.9.06-.92-.26-1.97-.9-2.01-.87-.07-3.7 2.58-5.06 3.44-.85.52-2.06 1.55-3.01 2.82a9.2 9.2 0 0 0-.88 1.4l-.06.13c-.16.33-.3.67-.38 1.02l-.01.03c-.53 2.01-.54 6.88 1.41 6.74Z" fill="#D58500"/><path d="M232.25 104.05a21.25 21.25 0 0 0 3.14-6.4c.69-2.3 1.04-4.1 1.14-5.56.84-2.23 2.46-6.41 2.78-6.39.44.03 3.76-3.53 4.27-4.45.1-.2.18-.52.24-.9.06-.92-.26-1.97-.9-2.02-.87-.06-3.69 2.6-5.06 3.45-.85.52-2.06 1.55-3.01 2.82-.33.44-.64.91-.88 1.4l-.06.12c-.13.74 1.56 3.26 1.5 3.72-.1.69-.2 2.27-.47 4.08-.46 3.07-1.4 6.82-3.66 8.15-1.76 1.03-.64 1.63.97 1.98Z" fill="url(#b)"/><path opacity=".36" d="M233.84 93.65v-.07.07Z" fill="#B45F00"/><path d="M219.51 83.89c-.17 2.47 2.37 1.86 4 .95.76-.41 1.31-.9 1.33-1.16l.19-1.82v-.1c.02-.07.03-.15.03-.22l.08-.71.04-.37.04-.31.02-.14.09-.73.08-.65.15-1.12.06-.5c.1-.67.19-1.16.24-1.29.22-.52 1.92-2.98 2.52-5.17.25-.94-.14-2.09-.85-2.3h-.01a.54.54 0 0 0-.17-.04c-.28-.02-.6.1-.96.4a18.86 18.86 0 0 0-1.34 1.4c-1.34 1.5-2.98 3.58-3.36 4.5-.16.4-.42 1.43-.72 2.66-.3 1.23-.6 2.67-.87 3.88l-.03.11a283.35 283.35 0 0 0-.56 2.73Z" fill="#D58500"/><path d="M132.31 127.74v.07a13.18 13.18 0 0 0 .2 3.1 11.23 11.23 0 0 0 .44 1.58l.1.26c.16.43.36.86.57 1.3l.13.2c.03.08.07.15.12.22l.11.2c.12.18.23.37.36.55l.1.16a15.94 15.94 0 0 0 2.07 2.4c1.2 1.2 2.7 2.47 4.35 3.72 8.04 6.1 20.17 12.34 24.61 13.67l.74.22.85.25.57.15.69.2.6.16a96.18 96.18 0 0 0 4.32 1.05c19.59 4.24 23.25-2.6 26.76-5.72a94.85 94.85 0 0 0 7.01-7.44l.03-.04c.93-.96 2.06-2.35 3.17-3.93l.17-.24.35-.5.34-.52.36-.55a41.05 41.05 0 0 0 1.65-2.82 25.3 25.3 0 0 0 1.27-2.8l.04-.11-.15-.1c-6.17-3.55-11.05-8.36-13.37-14.33-.68.48-2.6 1.47-5.03 2.84l-.07.04-.69.4c-.92.53-1.9 1.12-2.9 1.75-3.26 2.07-6.73 4.62-9.06 7.43l-.22-.14a66.1 66.1 0 0 1-1.18-.74l-.3-.2-.2-.13-.22-.15-.25-.16-.09-.07a4.2 4.2 0 0 0-.18-.12l-.15-.1-.4-.27-.11-.08-.54-.36-.13-.1-4.99-3.33c-5.92-3.9-13.56-8.74-16.6-9.64a32.94 32.94 0 0 0-4.26-.95l-.56-.09h-.01a11.15 11.15 0 0 0-1.2-.13l-.5-.05-.4-.02-.15-.01-.22-.01-.3-.02h-.02l-.6-.01-1.3.01-.23.01h-.06c-.66.03-1.31.1-1.97.2l-.5.08-.28.05-.33.06a12.07 12.07 0 0 0-1.48.38l-.27.09-.25.08a5.69 5.69 0 0 0-.46.17l-.3.12-.13.05-.39.17a12.9 12.9 0 0 0-1.36.72 16.09 16.09 0 0 0-4.21 3.63 15.27 15.27 0 0 0-1.34 1.87l-.24.4a30.5 30.5 0 0 0-.47.89l-.15.3-.2.44-.17.41a13.69 13.69 0 0 0-.66 2.15l-.07.34-.05.22-.06.38a7.62 7.62 0 0 0-.1.83v.01Z" fill="#575770"/><path opacity=".25" d="M132.3 127.8a13.18 13.18 0 0 0 .21 3.1 11.23 11.23 0 0 0 .44 1.6l.1.25c.16.43.36.86.57 1.3l.13.2c.03.08.07.15.12.22l.11.2c.12.18.23.37.36.55l.1.16a15.94 15.94 0 0 0 2.07 2.4c1.2 1.2 2.7 2.47 4.35 3.72 8.04 6.1 20.17 12.34 24.61 13.67l.74.22.85.25.57.15.69.2.6.16a96.18 96.18 0 0 0 4.32 1.05c19.59 4.24 23.25-2.6 26.76-5.72a94.85 94.85 0 0 0 7.01-7.44l.03-.04c.93-.96 2.06-2.35 3.17-3.93l.17-.24.35-.5.34-.52.36-.55a41.05 41.05 0 0 0 1.65-2.82 25.3 25.3 0 0 0 1.27-2.8l.04-.11-.15-.1c-6.17-3.55-11.05-8.36-13.37-14.33-.68.48-2.6 1.47-5.03 2.84l-.07.04-.69.4c-.92.53-1.9 1.12-2.9 1.75-3.26 2.07-6.73 4.62-9.06 7.43l-.22-.14a66.1 66.1 0 0 1-1.18-.74l-.3-.2-.2-.13-.22-.15-.1-.06-.15-.1-.09-.07a4.2 4.2 0 0 0-.18-.12l-.15-.1-.4-.27-.11-.08-.54-.36-.13-.1-4.99-3.33c-5.92-3.9-13.56-8.74-16.6-9.64a32.94 32.94 0 0 0-4.26-.95l-.56-.09h-.01a11.15 11.15 0 0 0-1.2-.13l-.5-.05-.4-.02-.15-.01-.22-.01-.3-.02h-.02l-.6-.01-1.3.01-.23.01h-.06c-.66.03-1.31.1-1.97.2l-.5.08-.28.05-.33.06a12.07 12.07 0 0 0-1.48.38l-.27.09-.25.08a5.69 5.69 0 0 0-.46.17l-.3.12-.13.05-.39.17a12.9 12.9 0 0 0-1.36.72 16.09 16.09 0 0 0-4.21 3.63 14.12 14.12 0 0 0-1.34 1.87l-.24.4a30.5 30.5 0 0 0-.47.89l-.15.3-.2.44-.17.41a13.69 13.69 0 0 0-.66 2.15l-.07.34-.05.22-.06.38-.08.58-.03.31v.02Z" fill="#2B2B37"/><path opacity=".25" d="M177.95 137.59c2.7 2.2 4.28 2.97 6.56-1.42 2.29-4.4 14.36-4.47 22.4 1.35 1.1.8 2.06 1.54 2.9 2.22l.4.34h.01a35.92 35.92 0 0 0 3.79-6.6l-.17-.3c-6-3.75-10.72-8.8-12.98-15.03-.65.5-2.5 1.52-4.84 2.94l-.26.16-.7.42c-.9.57-1.87 1.04-2.86 1.47h-.01l-.34.22-.9.58-.61.41a77.5 77.5 0 0 0-2.44 1.76l-.5.4-.52.4-.26.23a29.11 29.11 0 0 0-3.17 3.05l-.32.38-.23-.14-.33-.2-.85-.55-.16-.1-.14-.09a2.12 2.12 0 0 1-.09-.06l-.1-.07-.23-.15-.1-.07-.14-.1-.1-.06-.18-.12a9.89 9.89 0 0 0-.54-.37l-.12-.08-.53-.36c-1.16 2.42-3.42 7.84-1.34 9.54Z" fill="#2B2B37"/><path opacity=".25" d="M132.31 127.74c-.24 2.6.67 5.14 2.33 7.56l.13.18.2.29c2.2 3.02 5.56 5.86 9.27 8.39l.55.37a107.14 107.14 0 0 0 14.03 7.71c2.88 1.34 5.27 2.35 6.66 2.93 25.15 8.09 31.49.75 41.53-11.13a41.19 41.19 0 0 0 5.54-7.63l.24-.41a30.2 30.2 0 0 0 1.56-3.37l.14-.37a39.75 39.75 0 0 1-3.03-1.85 32.28 32.28 0 0 1-7.02-6.31 22.8 22.8 0 0 1-3.57-6.01c-.68.47-2.63 1.44-5.09 2.8l.06.05-1.7 1-.85.5-.57.37c-.6.36-1.18.73-1.76 1.12l-.62.42a73.16 73.16 0 0 0-2.44 1.75l-.5.4a26.64 26.64 0 0 0-1.36 1.12l-.56.5-.53.5-.52.51a28.54 28.54 0 0 0-1.3 1.43l-.23-.14-.33-.2c-.65-.4-1.22-.78-1.85-1.2l-.06-.05-1.37-.93-.8-.5-.8-.53-.32-.2c-7.2-4.74-15.25-10.75-21.99-12.42l-.42-.1-.2-.04a10.5 10.5 0 0 0-.36-.07l-.29-.05a5.4 5.4 0 0 0-.34-.05l-.47-.06c-2.35-.5-4.77-.56-7.09-.2l-.8.15a18.47 18.47 0 0 0-3.16.92 16.2 16.2 0 0 0-7.79 6.24 14.34 14.34 0 0 0-2.15 6.6v.01Z" fill="#2B2B37"/><path opacity=".72" d="M215.6 91.2c.43-1.26 2-3.64 2-3.64l-.38-1.29a13.54 13.54 0 0 1-1.91 4.6c-.35.29-.14 1.67.3.34Z" fill="#B45F00"/><path opacity=".25" d="m134.64 135.3.13.18.2.29c2.18 2.93 5.48 5.78 9.27 8.39l.55.38 1 .65a99 99 0 0 0 13.03 7.06c6.16 2.79 11.71 4.62 14.42 4.95 13.46-16.72 19.44-22.3 37.14-17.37a47.4 47.4 0 0 0 2.17-3.41l.23-.42a25.6 25.6 0 0 0 1.57-3.36l-2.89-2.23c-2.55-1.98-5.03-4-7.02-6.3a18.05 18.05 0 0 1-3.57-6.02c-.68.47-2.64 1.45-5.09 2.81l.06.05c-.56.31-1.12.65-1.7.99l-.85.51-.58.36c-.58.36-1.17.74-1.76 1.13l-.62.41a69.28 69.28 0 0 0-2.44 1.76l-.5.39a27.98 27.98 0 0 0-1.35 1.13c-.2.16-.38.33-.56.5l-.54.5-.52.51-.34.36-.33.35c-.22.23-.42.47-.63.72a6.1 6.1 0 0 0-.22-.14l-.33-.2c-.65-.41-1.22-.79-1.85-1.21l-.06-.04-1.38-.93-.78-.51-.8-.52-.33-.21s-1.56 1.44-4.03 2.44a11.49 11.49 0 0 1-10.9-1.02c-7.94-5.08-10.23-13.41-7.1-13.83h.04a8.63 8.63 0 0 0-.99-.21l-.28-.05a6.37 6.37 0 0 0-.35-.06l-.46-.05a19.15 19.15 0 0 0-7.1-.2l-.8.14-.78.18c-.81.2-1.6.45-2.38.76a16.34 16.34 0 0 0-7.78 6.22 14.06 14.06 0 0 0-2.15 6.61c-.32 2.51.58 5.06 2.33 7.56Z" fill="#2B2B37"/><path opacity=".72" d="M223 83.93c.53-.67 1.48-2.06 2.18-3.47.12-1 .25-2.08.37-2.95 0 0-2 5.6-2.85 6.08-1.02.57-.42 1.27.3.34Z" fill="#B45F00"/><path opacity=".36" d="M213.8 96.76c4.06 4.16 14.93 5.12 14.93 5.12s4.2.05 5.1-8.23l.02-.07.01-.12c.43-3.66 4.06-5.83 4.31-7.4.26-1.59 2.15-2.46 2.15-2.46 4.46-2.92 2.6-5.26 2.6-5.26-.86-.07-3.68 2.59-5.06 3.44-.84.52-2.05 1.56-3 2.82-.34.45-.64.92-.88 1.4-.1.2-.45.77-.74 1.24a8.99 8.99 0 0 0-2.25-3.07 17.46 17.46 0 0 0-1.54-.73 34.7 34.7 0 0 0-4.42-1.57l.01-.11.03-.22.08-.71.04-.37.04-.3c0-.05 0-.1.02-.15l-.68 1.5-.2.43.01-.37v-.08l.04-.9c.05-1.66.15-4.34.22-4.97.1-.93.03-.7 2.19-3.46 2.08-2.67.8-3.82.7-3.91a.55.55 0 0 0-.16-.03c-.29-.03-.61.09-.97.4a18.86 18.86 0 0 0-1.34 1.4c-1.34 1.5-2.98 3.57-3.35 4.5-.17.4-.43 1.42-.73 2.65-.3 1.24-.6 2.67-.87 3.88l-.03.12a311.12 311.12 0 0 0-.56 2.72c-.9 1.6-2.1 3.84-3.4 6.19l-.1.19c-.4.7-.7 1.42-.96 2.15-.37 1.05-.64 2.1-.91 3.02l-.18.6c-.05.14-.09.3-.12.46l-.04.27h-.01Z" fill="#B45F00"/><path d="M223.52 84.84a2 2 0 0 0 .03.44c.51 2.3 3.53 2.01 5.95.16l.68-1.68.82-2.02 1.3-3.14.56-1.32a24.82 24.82 0 0 1 .9-1.94c.5-.65 4-3.73 4.57-4.81.53-1.02.2-3.02-.68-3.4a.96.96 0 0 0-.24-.06h-.03c-1.08-.04-4.46 3.26-6.13 4.34-1.45.94-4.15 4.52-5.57 7.18a15.86 15.86 0 0 0-.54 1.1c-.2.46-.47 1.1-.74 1.8l-.03.08a11.73 11.73 0 0 0-.85 3.27Z" fill="#D58500"/><path opacity=".36" d="M223.52 84.84a2 2 0 0 0 .03.44c.51 2.3 3.53 2.01 5.95.16l.68-1.68.82-2.02 1.3-3.14.56-1.32a24.82 24.82 0 0 1 .9-1.94c.1-.22 1.58-2.95 3.28-4.7 1.77-1.83.61-3.5.61-3.5a.96.96 0 0 0-.24-.06h-.03c-1.08-.05-4.46 3.25-6.13 4.33-1.45.94-4.15 4.52-5.57 7.18a15.86 15.86 0 0 0-.54 1.1c-.2.46-.47 1.1-.74 1.8l-.03.08a11.73 11.73 0 0 0-.85 3.27Z" fill="#B45F00"/><path opacity=".48" d="M180.51 135.19c.3.37.65.51 1 .28 1.4-.94.4-2.73 2.38-4.78.3-.3.66-.62 1.1-.94 3.45-2.43 16.09 3 20.56 4.23 4.47 1.23 5.88 4.29 5.88 4.29a41.52 41.52 0 0 0 1.65-2.82c-3.55-3.1-12.5-10.84-17.06-14.36l-.17-.14-.07.04-.7.4c-.91.53-1.9 1.12-2.9 1.75-3.26 2.07-6.72 4.62-9.06 7.43l-.22-.14c-.46-.28-.85-.53-1.18-.75l-.3-.19-.19-.13-.22-.15-.1-.07-.15-.1-.1-.06c-1.7 1.04-1.18 4.95-.15 6.2Z" fill="#2B2B37"/><path opacity=".72" d="M227.38 85.38c.48-.7 1.38-1.78 1.99-3.23.32-.57 1.7-2.07 2.93-3.55a45.91 45.91 0 0 1 1.45-3.26 35 35 0 0 0-3.7 4.53c-.84 1.22-1.41 3.31-2.33 4.2-.99.98-1 2.27-.34 1.3Z" fill="#B45F00"/><path d="M229.45 83.43c-.24 2.88 1.1 5.9 3.27 4.7.16-.1.33-.2.5-.35l.61-1.88a171.17 171.17 0 0 1 .7-2.03l.01-.06.04-.1.05-.17.02-.02c.77-2.23 1.62-4.51 1.86-4.5.48.01 3.97-4.1 4.48-5.15.52-1.04.13-3.18-.82-3.21H240.06l-.01.01a.2.2 0 0 0-.08.02.3.3 0 0 0-.07.02 21.9 21.9 0 0 0-2.87 2.14c-.64.56-1.27 1.11-1.8 1.52l-.15.12-.08.07-.21.15a6.38 6.38 0 0 0-1.18 1.1l-.26.31-.16.21a20.61 20.61 0 0 0-.97 1.33 29.64 29.64 0 0 0-.86 1.31l-1.09 1.76a6.13 6.13 0 0 0-.81 2.7h-.01Z" fill="#D58500"/><path opacity=".36" d="M229.45 83.43c-.24 2.88 1.1 5.9 3.27 4.7.16-.1.33-.2.5-.35l.61-1.88.6-1.73.1-.3.01-.06.02-.19c.08-1.36.26-3.49.53-4.33.42-1.27-.32-.02 3.17-3.02 3.48-3 1.91-5.61 1.91-5.61h-.11v.01c-.03 0-.06 0-.09.02a.34.34 0 0 0-.07.02 2.55 2.55 0 0 0-.47.24l-.13.08a21.8 21.8 0 0 0-2.27 1.82c-.64.56-1.27 1.11-1.79 1.52l-.16.12-.08.07-.2.15c-.38.25-.76.61-1.14 1.05l-.05.05-.25.31-.17.21a20.61 20.61 0 0 0-.97 1.33 29.64 29.64 0 0 0-.85 1.31l-1.1 1.76a6.12 6.12 0 0 0-.81 2.7h-.01ZM242.92 79.07c.02.63-.63 1.35-.76 1.48-.55.52-.96-.23-1.37-.6.49.87 1.06 1.2 1.32.97.42-.36 1.06-1.46.81-1.85Z" fill="#B45F00"/><path opacity=".36" d="M240.34 71.82c-.07.68-.88 1.36-1.04 1.48-.67.48-1-.4-1.38-.86.39 1.02.95 1.46 1.27 1.26.51-.34 1.36-1.43 1.15-1.88ZM237.68 68.03c-.08.8-1.03 1.6-1.21 1.73-.78.56-1.16-.46-1.62-1 .46 1.19 1.12 1.7 1.5 1.46.58-.39 1.58-1.66 1.33-2.2ZM225.05 70.01c.66.94 1.34 1.24 1.61.94.44-.5 1.04-1.9.7-2.33.1.76-.56 1.7-.7 1.87-.53.67-1.09-.08-1.6-.5l-.01.02ZM212.62 81.6c.21.35 1.21 2.37.37 3.44.9-.84.67-2.53-.37-3.43Z" fill="#B45F00"/><path d="M225.68 78.6c-.04 3.02 1.2 6.78 1.24 6.92.02-.3.27-.92.8-1.44.91-.9 1.5-2.98 2.32-4.2a34.25 34.25 0 0 1 3.7-4.51l.01-.03h.01c.5-.65 4-3.73 4.57-4.81.53-1.02.2-3.02-.67-3.4a.48.48 0 0 0-.13-.03l-.12-.02h-.03c-1.08-.05-4.46 3.25-6.12 4.33-1.46.94-4.16 4.52-5.58 7.18Z" fill="url(#c)"/><path opacity=".72" d="M232.72 88.12c.07.2.31.14.5-.34.07-.18.18-.4.31-.63.17-.33.38-.7.58-1.05a9.9 9.9 0 0 0 .74-1.5 8.8 8.8 0 0 0-.88 1.4l-.14-.1.8-2.36-1 2.22-.79 1.7c-.14.3-.17.54-.12.66ZM213.37 92.27l.13 2.7c.1.05.2.08.3.1.12.02.24.04.36.04l-.18.6c-.05.15-.09.3-.12.46l6.08-.62 1-5.9-.57-1.02s-1.71 1.63-3.65 2.72c-.54.3-1.1.57-1.65.74-.6.2-1.18.27-1.7.19Z" fill="#B45F00"/><path d="M195.07 121.67c.11 2.01 2.93 9.55 14.56 14.43.6.25 1.7 1.2 2.7 2.13l.92.84.68.61.53-1.25 8.5-19.8 1.7-3.41h-.03c1.32-1.91 3.04-3.48 4.6-5.17l.27-.3c.1-.1.2-.21.28-.32l.23-.26a18.43 18.43 0 0 0 1.98-2.81c.47-.87.83-1.8 1.05-2.8.03-.15.28-.59-.45-.94-2.18-.64-4.11-2.57-5.7-4.74-2.73-3.77-5.57-8.85-5.57-8.85-1.5 1.03-2.7 1.96-3.8 2.67-1.39.9-2.64 1.45-4.22 1.39-.22.34-.15.86-.09 1.33.24 1.8.17 3.53 0 5.24-.16 1.74-.43 3.45-.56 5.2l-.03.44c-.01.3-.01.6.02.92a206.68 206.68 0 0 1-2.78 1.98c-.03.01-.06.07-.1.16-.22.47-.67 1.82-.8 1.92a187.1 187.1 0 0 0-13.55 10.67c-.2.19-.3.31-.32.35a1.2 1.2 0 0 0-.02.37Z" fill="#575771"/><path opacity=".25" d="M209.75 108.36c1.26-.55 2.53-.92 3.86-.6 1.13.48 1.35 1.93 2.51 2.37 2.94 1 5.87 5.26 6.84 8.5l1.7-3.41h-.03c1.32-1.91 3.04-3.48 4.6-5.17l.27-.3c.1-.1.2-.21.28-.32l.23-.25a19.01 19.01 0 0 0 1.98-2.82c-.86.3-2.53.67-2.98.86-3.12 1.53-5.14.26-7.86-1.27-3.3.5-6.15-3.27-7.94-6.3-.16 1.75-.43 3.46-.56 5.21l-.03.44c-.01.3-.01.6.02.92-.63.46-1.5 1.08-2.53 1.8l-.25.18c-.03.01-.06.07-.1.16Z" fill="#2B2B37"/><path opacity=".25" d="M195.07 121.67c.05.94.68 3.05 2.5 5.53 2.1 2.89 5.81 6.28 12.06 8.9-1.03-2.4-.89-5.6-.08-8.8.06-.28.14-.56.22-.83 1.7-6 5.54-11.78 8.09-12.1 4.03-.51 8.68-8 4.99-9.72-3.7-1.73-5.32-12.95-5.32-12.95-1.4.9-2.65 1.45-4.23 1.39-.22.34-.15.86-.09 1.33.1.79.15 1.57.15 2.33 0 .98-.06 1.95-.15 2.9-.16 1.75-.43 3.46-.56 5.2l-.03.45c-.02.3-.02.6.01.91-.6.45-1.45 1.05-2.43 1.75l-.1.06c-.07.06-.16.12-.25.17l-.1.16c-.13.28-.34.87-.51 1.32a2.6 2.6 0 0 1-.28.6 187.06 187.06 0 0 0-13.55 10.68c-.2.18-.3.3-.32.35a1.2 1.2 0 0 0-.02.37Z" fill="#2B2B37"/><path opacity=".25" d="M195.07 121.67c.05.94.68 3.05 2.5 5.53.47-6.32 7.8-12.62 11.78-13.47 3.98-.84 4.77-2.74 3.95-4.1-.82-1.37-.68-.38 3.02-1.89 3.7-1.5 1.16-2.37 1.43-5.94.16-2.18-2.38-3.98-4.39-5.05 0 .98-.06 1.95-.15 2.9-.16 1.75-.43 3.46-.56 5.2l-.03.45c-.01.3-.01.6.02.91-.63.46-1.5 1.09-2.53 1.8-.08.07-.17.13-.25.18-.03.02-.06.08-.1.16-.22.48-.67 1.83-.8 1.92a187.38 187.38 0 0 0-13.55 10.68c-.2.18-.3.3-.32.35a1.2 1.2 0 0 0-.02.37Z" fill="#2B2B37"/><path d="M197.22 123.12c1.3-2.6 8.93-7.84 11.14-9 .03 0 .06-.03.1-.04-.62 5.97.17 10.7 1.09 13.22.22.6.45 1.09.67 1.42.18.36.3.54.32.55.22.17.49-.36.35-.52a7.04 7.04 0 0 1-1.12-2.28c-1.12-3.52-1.2-9.16-.84-12.61 3.88-1.71 9.58-2.1 9.63-2.12.57-.07 1.2-.19 1.69.04.24.11.53-.4.29-.51-.53-.24-1.16-.17-1.77-.09-.06 0-6.19.6-9.78 2.12.23-1.77.61-3.57 1.21-5.33l-.09.06-.25.17c-.03.02-.06.08-.1.16-.13.28-.34.87-.52 1.32a26.73 26.73 0 0 0-.71 3.84l-.38.19c-2.33 1.26-9.91 6.46-11.29 9.2-.17.34.2.55.37.2h-.01Z" fill="#2B2B37"/><path opacity=".25" d="M134.87 135.96c.46.59 1.01 1.2 1.64 1.82 1.2 1.21 2.7 2.47 4.35 3.72 8.04 6.11 20.17 12.34 24.61 13.67l.74.22c1.92.57 3.72 1.05 5.4 1.44 1.3-3.75 6.12-18.35.54-12.46-6.37 6.73-18.86-5.05-25.39-12.84-6.52-7.8 7.84-17.28 7.84-17.28a29.58 29.58 0 0 0-3.97-.51c-3.58-.23-7.41.21-10.6 2.07-6.96 4.08-10.52 13.28-5.16 20.15Z" fill="#2B2B37"/><path opacity=".48" d="M181.55 132.18c.3-.83.98-1.46 1.35-1.75l-1.18-.75c-1.88 1.6-.56 3.62-.17 2.5Z" fill="#2B2B37"/><path opacity=".25" d="M134.87 135.96c.46.59 1.01 1.2 1.64 1.82 1.2 1.21 2.7 2.47 4.35 3.72 8.04 6.11 20.17 12.34 24.61 13.67l.74.22c-1.36-3.13-4.26-7.24-10.2-7.5-9.64-.44-18.88-14.86-18.84-22.96.03-7.98 13.06-11.1 13.46-11.2-3.59-.22-7.41.22-10.6 2.08-6.96 4.08-10.52 13.28-5.16 20.15Z" fill="#2B2B37"/><path d="m234.56 83.62.02.08.05-.16.01-.02c.78-2.23 1.63-4.51 1.87-4.5.47.01 3.96-4.1 4.48-5.15.52-1.04.12-3.18-.82-3.21H240.05v.01c-.03 0-.06 0-.08.02a.34.34 0 0 0-.08.02 21.8 21.8 0 0 0-2.87 2.14c-.64.56-1.26 1.11-1.78 1.52l-.16.12-.09.07c.12.64.05 1.53-.56 2.66-1.04 1.91-.26 5.13.13 6.4Z" fill="url(#d)"/><path d="M220.1 81.05s-.38 2.66.28 3.02c.79.42 3.14-1.66 3.15-1.68l.39-.8.02-.04c.8-1.77 1.62-4.04 1.62-4.04l.06-.5c.1-.67.19-1.16.24-1.29.23-.52 1.93-2.98 2.52-5.17.25-.94-.14-2.09-.85-2.3a.54.54 0 0 0-.16-.03c-.3-.03-.62.08-.97.4a18.68 18.68 0 0 0-1.35 1.4c-1.33 1.5-2.97 3.57-3.35 4.5-.16.4-.43 1.42-.72 2.65-.3 1.23-.61 2.67-.88 3.88Z" fill="url(#e)"/><path d="M212.97 85.91a1.88 1.88 0 0 1 .05.37l.02.27.02.27.01.14.02.35.04.7.03.6v.1l.03.5v.06l.04 1.03.03.56v.06c.82.34 1.72.1 2.66-1.1l.04-.04a13.4 13.4 0 0 0 1.26-3.5 11.79 11.79 0 0 0-1.04-2.63c-1.44-2.1-2.92-3.06-3.84-2.6-.81.4.46 4.29.63 4.87Z" fill="url(#f)"/><path d="M166.93 198.2s1.65 1.47 1.65 2.45c0 .97-.68 3.62-.83 4.73-.14 1.12.44 2.69.18 3.07-.65.98-.65.65-1.18.95-.5.28-.13-10.52-.13-10.61.01-.1.28-.12.3-.6Z" fill="#2B2B37"/><path d="M106.25 197.94s-1.09 1.4-1.09 2.38 1.19 3.9 1.08 4.55c-.1.65-.65 3.25.44 3.74 1.08.5-.43-10.67-.43-10.67Z" fill="#21212B"/><path d="M162.4 214.77c.05-.42.4-.76.68-.42l.04.06c1.22 1.86 1.85 4.4 2.37 6.79l.15.7c.3 1.4.59 2.81.81 4.23a47.21 47.21 0 0 1 .5 4.03l-.86.08-.14-1.4c-.2-2.06-.64-4.15-1.05-6.17l-.06-.32-.1-.48c-.48-2.31-1.06-4.84-2.23-6.63a.67.67 0 0 1-.11-.48v.01Z" fill="#2B2B37"/><path opacity=".57" d="M179.82 98.2c-.53.2-2.18 1.02-3.39 1.79.11-.04 2.8-.98 2.84 3.28 1.08-.91 2.75-2.36 2.97-2.8 0 0 2.93-1.3 2.93-2.6s-4.51 0-5.35.32Z" fill="url(#g)"/><path opacity=".57" d="m163.19 103 .2.12.2.12h.02c.17.1.34.2.51.27l.1.04a7 7 0 0 0 3.43.58c.97-.07 1.92-.3 2.79-.61.4-.15.79-.3 1.15-.48 2-.93 3.36-2.12 3.36-2.12-.9-.3-2.66-.76-4.1-.12a5.8 5.8 0 0 0-.48.24l-.14-.03a5.25 5.25 0 0 0-3.28.11c-.57.25-1.08.61-1.53 1.01a7.18 7.18 0 0 0-1.1.29c-.41.14-.8.33-1.13.57Z" fill="url(#h)"/><path opacity=".57" d="M164.32 102.42c.09.13.23.27.44.4l.04.03.07.05c1.22.73 2.43.42 3.38-.15l.62-.55 1.35-1.19a5.26 5.26 0 0 0-3.26.1c-.57.26-1.09.62-1.54 1.02a7.23 7.23 0 0 0-1.1.28Z" fill="url(#i)"/><path d="M54.1 172.35c2.32-.2 6.5-3.58 7.85-6.28 1.34-2.7 4.6-11.28 5.93-14.32 1.3-3.05 6.94-11.34 6.94-11.34s5.92-7.39 1.4-3.38c-7.47 6.6-10.54 11.43-15.1 26.9-2.19 7.46-10.3 6.9-12.88 4.2 0 0 3.54 4.42 5.85 4.22Z" fill="#74A352"/><path d="m49.36 172.36.13.03.21.04c4.43.81 7.35-.32 9.56-2.42l.27-.27.51-.54a19.44 19.44 0 0 0 1.75-2.35l.24-.4.3-.47c.2-.35.46-.9.78-1.63l.2-.45a13.53 13.53 0 0 0 .21-.5l.15-.35.22-.54c1.6-3.8 4.06-9.77 7.2-15.15l.82-1.34c.5-.81 1.02-1.6 1.55-2.36l.33-.45c.21-.3.43-.6.65-.88l.4-.5.5-.61c.1-.14.22-.27.33-.4l.34-.38.38-.41c.1-.12.22-.23.33-.34l.05-.05.38-.38.04-.05.34-.32.3-.27.27-.23a19.34 19.34 0 0 1 1.56-1.2c3.62-2.4 7.68-2.66 12.05 1.08l.05.04c.58.57 1.15 1.07 1.36 1.28a20.31 20.31 0 0 0 2.53 2l.13.08c.81.52 1.64.96 2.48 1.3 1.03.42 2.07.7 3.1.82 2.17.26 4.31-.16 6.28-1.4l.07-.04.48-.33.24-.17a11.1 11.1 0 0 0 .7-.59l.24-.21c.57-.53 1.12-1.15 1.64-1.84l.12-.17a17.28 17.28 0 0 0 1.35-2.15l.05-.08a20.64 20.64 0 0 0 .48-.96l.19-.39.12-.28.18-.42.17-.43a18.76 18.76 0 0 0 .4-1.02l.33-.98.19-.6.2-.67.17-.65.02-.1.17-.64a45.94 45.94 0 0 0 .64-3.04c.14-.84.31-1.87.54-3.01a41.14 41.14 0 0 1 1.19-4.57 23.77 23.77 0 0 1 1.56-3.62c.22-.4.46-.8.7-1.18h.01a12.25 12.25 0 0 1 1.58-1.96l.51-.5h.01a9.64 9.64 0 0 1 .55-.46c.47-.37.97-.7 1.51-1l.42-.2a10.02 10.02 0 0 1 2.05-.72l.03-.01a6.2 6.2 0 0 0-2.64.16 6.99 6.99 0 0 0-2.23 1.12l-.23.17h-.01l-.4.32-.31.3a12.44 12.44 0 0 0-1.72 1.94l-.43.6a28.07 28.07 0 0 0-1.78 3.04l-.3.6-.11.24-.23.47-.29.63-.26.6-.64 1.52-.4 1.01c-.09.2-.17.4-.24.61l-.08.2-.2.5-.55 1.47-.77 1.99a33.78 33.78 0 0 1-1.85 3.83l-.16.28-.15.26-.16.25-.16.25a2.17 2.17 0 0 1-.16.25l-.1.14-.1.15a16 16 0 0 1-.44.6s0 .03-.02.03l-.16.21v.01a6.46 6.46 0 0 1-.56.67 10.91 10.91 0 0 1-.58.62 13.36 13.36 0 0 1-1.36 1.2 10.24 10.24 0 0 1-4.02 1.88h-.01a10.02 10.02 0 0 1-2.79.23l-.36-.02a4.14 4.14 0 0 1-.56-.05h-.04l-.3-.03h-.01l-.11-.02c-.33-.04-.66-.1-1-.16l-.08-.02-.09-.02-.05-.01-.05-.01a17.95 17.95 0 0 1-1.4-.35 32 32 0 0 1-3.76-1.32c-2.98-1.2-5.64-2.47-7.57-2.45-1.5.02-2.96.44-4.31 1.07a14.94 14.94 0 0 0-3.93 2.65l-.13.12-.47.47-.46.49-.46.53-.03.04-.44.55-.42.57-.08.11a23.55 23.55 0 0 0-.96 1.45c-.17.25-.32.51-.48.77l-.46.77a95.7 95.7 0 0 0-3.21 5.97 71.38 71.38 0 0 0-2.62 5.93l-.35.89-.21.57-.07.19c-.1.24-.18.49-.27.73l-.36 1.07-.36 1.09a148.32 148.32 0 0 1-.93 2.8l-.17.48a27.8 27.8 0 0 1-1.03 2.5l-.12.27-.22.4c-.04.1-.09.17-.14.26a9.8 9.8 0 0 1-1.85 2.35l-.05.04-.18.15-.2.15-.19.15c-1.39.99-3.21 1.63-5.88 2.39-1.17.33-2.5.68-4.03 1.09h-.02l-.02.01Z" fill="#3E5C2E"/><path d="M64.83 167.8c-.16 5.17-8.13 7.15-15.46 4.55 10.73-2.88 11.78-2.82 15.01-13.03a80.44 80.44 0 0 1 7.45-16.42 25.53 25.53 0 0 1 4.26-5.77 15.1 15.1 0 0 1 4.06-2.77c1.36-.63 2.81-1.05 4.31-1.07 1.93-.03 4.57 1.24 7.54 2.43a26.05 26.05 0 0 1 2.91 4.27c.31.56.59 1.13.87 1.69a18.22 18.22 0 0 1-2.68-2.08c-.2-.2-.78-.71-1.35-1.28-15.44-13.28-26.6 19.06-26.92 29.47ZM93.06 136.16c.97 1.1 2.01 2.09 3.13 2.94.84.65 1.71 1.21 2.64 1.69.9.47 1.86.85 2.84 1.14.03 0 .06.01.08.03h.02a15 15 0 0 0 5.87.43 7.54 7.54 0 0 0 1.02-.73c.16-.12.32-.25.47-.4l.24-.2c.57-.53 1.11-1.15 1.64-1.85l.11-.16a17.28 17.28 0 0 0 1.36-2.16l.04-.08a20.64 20.64 0 0 0 .49-.96l.18-.38.13-.28.17-.42.18-.43.25-.66.14-.37.33-.97.2-.6.19-.68.17-.65.03-.09.16-.65.17-.72.13-.57.34-1.73c.14-.84.31-1.88.55-3.02.21-1.1.5-2.29.85-3.5v-.01c.1-.36.22-.7.34-1.06a23 23 0 0 1 1.56-3.62 12.71 12.71 0 0 1 1.58-2.35v-.01a14.01 14.01 0 0 1 1.22-1.27v-.01a18.97 18.97 0 0 1 .56-.46c.47-.36.97-.7 1.52-.99.13-.07.57-.2.41-.2-.23-.01-.25-.24-.04-.7.08-.15-.34.08-.5.13a7.23 7.23 0 0 0-2.25 1.1l-.24.18a8.43 8.43 0 0 0-1.03.91 12.56 12.56 0 0 0-1.4 1.65l-.43.6a28.89 28.89 0 0 0-1.78 3.04l-.3.6-.12.24-.22.47-.29.63-.26.6-.64 1.52-.41 1.01-.23.6-.08.2-.2.5-.55 1.47-.77 2c-.35.86-.71 1.65-1.08 2.4l-.2.37-.18.36a19.08 19.08 0 0 1-.87 1.5l-.16.24a2.2 2.2 0 0 1-.16.25l-.09.14-.1.15-.44.6c-.06.09-.12.17-.19.24v.01l-.27.33-.29.34a19.85 19.85 0 0 1-.57.62 13.15 13.15 0 0 1-1.36 1.2 10.27 10.27 0 0 1-4.03 1.88 10.03 10.03 0 0 1-2.8.23l-.35-.02a13.65 13.65 0 0 1-.57-.05h-.03l-.3-.03h-.02l-.1-.02c-.34-.04-.67-.1-1-.16l-.08-.02-.1-.02h-.02l-.03-.01-.05-.01a17.96 17.96 0 0 1-1.4-.35c-.92-.26-1.84-.57-2.73-.91Z" fill="#568040"/><path d="M98.52 137.64c4.6.6 9.3-.86 13.03-8.35.12.8.18 1.61.1 2.42-.32 2.85-2.09 5.58-4.83 6.61-2.29.87-4.8.39-7.08-.3-.38-.1-.8-.24-1.22-.39Z" fill="#74A352"/><path d="M24 164.48c1.67 1.62 3.07 3.76 6.36 3.93 2.44.12 8.13-2.1 14.88 1.94.93.56 1.82 1.21 2.82 1.62 3.57 1.45 8.71.24 11.9-3.65-2.23 2-5.97 2.66-7.82 2.08-.58-.19-1.29-.74-1.82-1.05-2.38-1.44-4.6-3.32-7.3-4-2.68-.67-5.49-.08-8.22.38-3.32.55-7.19-2.66-8.14-4.24-.54.74-2.64 2.98-2.66 2.99Z" fill="#568040"/><path opacity=".32" d="M48.07 171.97c-1-.41-1.9-1.06-2.82-1.62-4.74-2.83-8.95-2.58-11.88-2.23 12.42-5.36 10.37-.73 15.27 4.05l-.57-.2Z" fill="#3E5C2E"/><path d="M43.59 168.1c.99.65 1.64 1.66 2.29 2.65l-.62-.4c-3.34-1.98-6.39-2.46-8.94-2.44 2.36-1.05 5.1-1.27 7.27.19Z" fill="#3E5C2E"/><path d="M36.67 165.4c-.26.15-.53.27-.79.4-5.65 2.8-8.3-2.67-8.43-3.32 1.55 1.63 4.64 3.69 7.36 3.24l1.86-.31Z" fill="#74A352"/><path d="M91.71 138.29c-8.48-6.55-16.37 1.3-21.52 10.67 1.55-3.6 4.45-9.17 7.34-11.82 4.53-4.15 12.31-3.6 14.18 1.15Z" fill="#3E5C2E"/><path d="M124.37 110.74c0 .65-.06 1.3-.16 1.95l-.01.07a14.31 14.31 0 0 1-1.34 4.2 15.82 15.82 0 0 1-6.53 6.67 16.44 16.44 0 0 1-2.94 1.28c-1.89.64-3.6 1.05-5.11 1.97-.07.03-.14.07-.2.12l-.2.13-.2.13-.18.15c-.2.15-.4.31-.58.5-.06.04-.1.1-.16.15a9.4 9.4 0 0 0-.54.57l-.17.22-.25.33c-1.23 1.7-2.29 4.26-3.16 8.34l-.23 1.13-.09.47a108.99 108.99 0 0 1-.96 4.68 28.19 28.19 0 0 1-2.5 6.87c-7.36 13.5-22.25 1.8-23.4 12.2v.02a11.97 11.97 0 0 0-.03 2.13c0 .05.01.1.03.14l.03.13.05.13a2.48 2.48 0 0 0 .26.52l.23.35.26.35c.56.69 1.27 1.37 1.85 2.05a4.66 4.66 0 0 1 1 1.7l.05.19c.73 3.36-3.4 5.59-6.49 9l-.47.53c-2.81 3.4-4.92 7.92-1.12 12.4l.02.02.14.16a13.78 13.78 0 0 0 1.17 1.16l.25.21-7.32 2.09v-.01a14.37 14.37 0 0 1-.82-9.1c1.7-6.84 8.36-10.9 9.5-12.13l.23-.25c.02 0 .03-.03.05-.05a8.16 8.16 0 0 0 1.97-4.16l.03-.27v-.07l.01-.27v-.17a4.74 4.74 0 0 0-.37-1.69l-.1-.22a2.4 2.4 0 0 0-.1-.22l-.24-.42-.24-.4-.17-.27c-.38-.6-.78-1.19-1.09-1.82a8.44 8.44 0 0 1-.82-3.43 6.66 6.66 0 0 1 .04-.76l.03-.25a8.42 8.42 0 0 1 .2-1 10.94 10.94 0 0 1 2.4-4.32l.33-.39a18.77 18.77 0 0 1 .83-.88l.53-.51a19.16 19.16 0 0 1 1.5-1.3c.1-.1.22-.2.33-.28l.47-.37.11-.08.45-.34a16.33 16.33 0 0 1 .87-.63l.53-.36.35-.24.4-.28h.02l.28-.18.44-.3.56-.34.2-.13.12-.08.07-.04 1.33-.8.63-.38.49-.28a59.85 59.85 0 0 0 1.7-1l.53-.32.36-.22a12.2 12.2 0 0 1 .26-.16l.04-.03.14-.09.6-.41.32-.22.27-.2.03-.02.56-.41.29-.22.29-.23.23-.2.41-.32.44-.37.04-.04a8.11 8.11 0 0 0 .76-.7.17.17 0 0 0 .04-.04l.02-.01.08-.08.1-.1.06-.06c.12-.1.24-.22.34-.34h.01l.42-.45.06-.06a19.56 19.56 0 0 0 .97-1.16l.1-.12.15-.21a5.93 5.93 0 0 0 .42-.6 7.95 7.95 0 0 0 .53-.85 9.06 9.06 0 0 0 .44-.82c.15-.28.27-.57.4-.87.4-.98.83-1.9 1.25-2.76 3.21-6.45 6.83-9.33 10.37-11.63 2.6-1.7 5.15-3.07 7.48-5.3a21.24 21.24 0 0 0 3.7-4.86l.01-.02.16-.29.07-.13c.28-.51.54-1.06.8-1.63l.2-.44.54-1.34c.24-.64 1.16-.59 1.32.08a13.5 13.5 0 0 1 .3 2.02v.01a5.36 5.36 0 0 1 .04.68v.61Z" fill="#74A352"/><path d="m72.68 194.06-7.32 2.08a14.34 14.34 0 0 1-.82-9.11 20.58 20.58 0 0 0 6.73 5.66c.42.46.88.92 1.4 1.37Z" fill="#3E5C2E"/><path d="M76.27 168.97c3.16 3.84 2.38 3.47-4.02 11.15-2.84 3.4-4.95 7.95-1.07 12.46a9.44 9.44 0 0 1-2.04-2.79c-1.3-2.8-1.8-6.67-.3-9.49 1.24-2.35 3.83-3.6 5.44-5.64a.43.43 0 0 0 .08-.1c1.33-1.57 2.26-3.63 1.91-5.59ZM79.08 170.19c.1.26.14.52.17.77a24.48 24.48 0 0 0-3.28-2.98c-.5-1.18-1.38-2.2-1.95-3.36-.9-1.9-1-3.7-.54-5.42a11.32 11.32 0 0 0 1.98 3.56c-.06.59-.08 1.23-.07 1.96.05 1.88 3.14 3.71 3.7 5.47h-.01Z" fill="#568040"/><path opacity=".49" d="m89.36 145.1.4-.24c3.47-2.33 6.77-5.24 8.37-9.1.4-1 .83-1.92 1.26-2.78.76 24.73-18.1 17.55-23.87 22.33 3.66-4.7 10.7-8.25 13.75-10.15l.1-.05Z" fill="#AED888"/><path d="M102.18 129.62a6.57 6.57 0 0 1 4.14-2.83 9.45 9.45 0 0 1 2.49-.22c-2.76 1.43-4.95 4.2-6.5 12.55l-.6 3.1c-.3-3.2-.97-6.4-.53-9.58.15-1.06.43-2.1 1-3.02Z" fill="#3E5C2E"/><path opacity=".49" d="M82.6 149.22c2.9-1.92 5.71-3.4 7.15-4.36a31.26 31.26 0 0 0 4.55-3.63c-.04.39-.1.76-.2 1.15-.76 2.9-2.74 4.49-5.53 5.38-1.95.62-3.98.93-5.98 1.45Z" fill="#AED888"/><path d="M120.42 109.7s.21 1.73-.37 1.94c-.58.21 1.37.86 1.37.86l.98-2.6-1.98-.2Z" fill="#3E5C2E"/><path opacity=".37" d="M109.75 121.36c1.58.57 3.37.36 5.12-.23a16.78 16.78 0 0 0 2.31-1c3.35-1.74 6.08-4.3 6.24-4.44a14.17 14.17 0 0 0 .95-5.54c-.1-.26-.02-.44-.02-.44l-.53-.13h-.01l-1.84-.45c-.33.74-.67 1.42-1.02 2.05l-.32.29a14.58 14.58 0 0 0-1.72 1.95l-.43.6c-.43.64-.85 1.32-1.24 2.03-2.33 2.24-4.89 3.62-7.49 5.3Z" fill="#568040"/><path d="M124.37 110.74c0 .65-.06 1.3-.16 1.95l-.01.07c-.08.06-3.33 2.51-4.41 1.5-.17-.16-.29-.4-.33-.75a3.4 3.4 0 0 1 0-.8 12.27 12.27 0 0 1 1.49-1.53l.15-.29.08-.13c.27-.51.53-1.06.8-1.63l.19-.44.54-1.34 1.56 1.44.06.66v.01l.02.25.02.43v.61Z" fill="#568040"/><path d="M154.94 104.54s.34-.86.06-1.4c-.28-.56-.72-.5-.72-.5s-.76 1.07-1.38 1.48c-.62.41-.62 1.39-.62 1.39l2.66-.97Z" fill="#75A152"/><path d="M140.05 111.52c-2.49.26-5 .28-7.43.04-.13 0-.27-.02-.4-.04l-.4-.05c-.14 0-.27-.03-.4-.04l-.45-.06c-.52-.08-1.03-.16-1.53-.26l-.78-.16c-.38-.08-.76-.17-1.13-.27l-.37-.1-.37-.1-.37-.1a35.26 35.26 0 0 1-2.1-.74l-.37-.15-.63-.27a18.75 18.75 0 0 1-1.86-.97l-.3-.17-.27-.17a13.81 13.81 0 0 1-2.54-2.03l-.21-.21-.02-.02a12.49 12.49 0 0 1-.96-1.17 9.02 9.02 0 0 1-1.26-2.36 6.85 6.85 0 0 1-.37-1.3l-.1-.55.32.02.02-.26.03.04.2.2c.19.2.4.39.6.56.74.62 1.58 1.16 2.41 1.7l.24.14.18.12c.02 0 .03.02.05.03l.37.24.41.27.22.14h.02l.01.01.03.02.14.1.67.39a16.86 16.86 0 0 0 4.27 2.2c.35.14.7.25 1.04.36l.06.02h.01a3.32 3.32 0 0 0 .23.08l.05.02h.04c.03.02.06.03.1.03l.02.01.1.03.2.05.13.04 1.18.3h.03c.38.1.76.18 1.14.26h.04l.53.1.29.05.7.11a41.74 41.74 0 0 0 2.57.3l.79.07h.01c2.28.15 4.32.12 5.8.06l.17-.01.32-.02h.15l.65-.04h.03l.88-.07h.06l.4-.04a21.24 21.24 0 0 0 2.5-.33 18.05 18.05 0 0 0 2.51-.65l.3-.11.22-.08.24-.1c.13-.04.25-.1.38-.15l.03-.02a13.08 13.08 0 0 0 .7-.33l.32-.18h.01c.15-.1.74-.7.85-.76 0 0 .75-.08 1.58-.36.86-.29 1.79-.8 2.02-1.7.43 2.45-1.82 7-14.95 8.4v-.01Z" fill="#75A152"/><path d="M153.2 106.56c-.14-.4-.77-.53-1.13-.1a.53.53 0 0 0-.11.48c.02.06.05.12.1.16.08.07.22.09.34.07.13-.02.25-.07.36-.11.2-.08.4-.17.46-.32.02-.06 0-.13-.02-.19Z" fill="#AED888"/><path d="M131.45 109.67c3.75.05 3.76.47 4.2.92.43.44 1.05.84 1.7.73.62-.1.55-.62.3-.93-.58-.76-2.37-1.13-3.72-1.47a4.81 4.81 0 0 0-.9-.13l-1.58.88Z" fill="#568040"/><path opacity=".37" d="m115.79 100.4-.33-.03c1 6.46 8.5 10.37 17.16 11.2.15-.32.37-.62.66-.87.94-.84 2.3-1.31 3.57-1.7 1.44-.44 2.96-.63 4.44-.95-2.84.16-8.56.25-13.82-1.25l-.78-.23a18.92 18.92 0 0 1-5.34-2.58l-.67-.4-1.66-1.07a17.32 17.32 0 0 1-3.02-2.24l-.2-.21-.02.33Z" fill="#568040"/><path d="M152.98 104.83c-1.03 1.97-3.06 2.94-4.33 3.48-2.95 1.3-6.45 1.17-9.7 1.19h-1.03l-1.67.05c-.36.01-.73.03-1.1.03l-.64.02c-1 .03-2.01.06-3.03.06-5.84 0-11.55-.75-13.05-5.51-.05-.17-.4-.32-.55-.4a5.39 5.39 0 0 1-2.34-2.9v-.03c-.06-.16-.1-.31-.13-.46-.12-.6.32-1.56.77-2.24l.06-.09.03-.03.26-.34.42-.2c.53.86.7 1.94 1.11 2.84.37.79.67 1.63 1.24 2.33.05.07.11.13.18.19l.02.01c.28.25.65.45.98.64h.02l.01.01.03.02.14.09.67.4c.96.68 2 1.25 3.1 1.73l.33.14a28.29 28.29 0 0 0 1.69.63l.04.01.15.05.06.02h.01a3.32 3.32 0 0 0 .22.08c.02 0 .04 0 .06.02h.03l.1.03.03.01.3.09a31.67 31.67 0 0 0 4.3.9c.13 0 .25.03.37.04l.7.09a13.94 13.94 0 0 0 .9.1h.13l.21.02.13.01.34.03.3.02h.04l.66.05.33.01 1.25.05h.6c.88.02 1.69 0 2.4-.02h.21l.14-.01.32-.02h.22l.25-.02 1.07-.07.22-.02h.13l.2-.02h.04l.25-.03.16-.01a21.24 21.24 0 0 0 2.5-.33c.65-.13 1.26-.27 1.82-.44l.24-.07a3.59 3.59 0 0 0 .45-.15l.3-.1.22-.08.24-.1.38-.15.03-.02a10.38 10.38 0 0 0 .7-.33l.32-.18h.01c.15-.1.74-.7.85-.77 0 0 .75-.07 1.58-.35Z" fill="#568040"/><path d="M144.49 108.1c2.15-.19 4.42-.9 6.06-2.16-1.76 1-4.2 1.75-7.61 2-.36.02-1.33.1-2.7.15 1.42.08 2.84.14 4.25.01ZM134.92 108.01h-.07l-1.29.03c-3.43.08-6.9-.07-10.04-1.45a8.1 8.1 0 0 1-2.08-1.23c-.53-.47-.86-1.05-1.44-1.49-.86-.63-1.92-.97-2.64-1.72-.36-.38-.7-.8-.75-1.29-.03-.26.03-.51.02-.77-.02-.67-.5-1.33-.45-1.97l.06-.09.03-.03.26-.34.42-.2c.53.86.7 1.94 1.11 2.84.37.79.67 1.63 1.24 2.33.05.07.11.13.18.19.28.25.67.45 1 .65l.03.01.17.1.67.4a18.87 18.87 0 0 0 5.12 2.5l.04.02.22.08.31.1a29.8 29.8 0 0 0 7.88 1.33Z" fill="#3E5C2E"/><path d="M136.3 109.26c-.55-.04-1.1-.03-1.66-.1-.13-.02-.43-.11-.45.06-.02.17.28.37.42.45.28.14.62.16.95.16.33 0 .66-.02.98.03.79.13 1.39.67 2.12.95.2.07.41.13.62.1.2-.04.39-.2.36-.38a.4.4 0 0 0-.09-.18c-.32-.44-.94-.67-1.52-.81a9.94 9.94 0 0 0-1.74-.28ZM151.4 105.19l-.22-.33s1.12-.42 1.72-.74c.6-.32.13.74-.12 1.06-.26.33-1.38 0-1.38 0Z" fill="#568040"/><defs><linearGradient id="a" x1="159.14" y1="92.72" x2="139.21" y2="90.6" gradientUnits="userSpaceOnUse"><stop stop-color="#F7FFDA" stop-opacity=".7"/><stop offset=".11" stop-color="#DBEDE1" stop-opacity=".55"/><stop offset=".25" stop-color="#BAD9EA" stop-opacity=".39"/><stop offset=".4" stop-color="#A0C8F1" stop-opacity=".25"/><stop offset=".55" stop-color="#8BBBF7" stop-opacity=".14"/><stop offset=".7" stop-color="#7CB2FB" stop-opacity=".06"/><stop offset=".85" stop-color="#73ACFE" stop-opacity=".02"/><stop offset="1" stop-color="#71ABFF" stop-opacity="0"/></linearGradient><linearGradient id="b" x1="242.97" y1="91.59" x2="231.3" y2="90.71" gradientUnits="userSpaceOnUse"><stop stop-color="#F7FFAA" stop-opacity=".7"/><stop offset=".11" stop-color="#DBEDBB" stop-opacity=".55"/><stop offset=".25" stop-color="#BAD9D0" stop-opacity=".39"/><stop offset=".4" stop-color="#A0C8E1" stop-opacity=".25"/><stop offset=".55" stop-color="#8BBBEE" stop-opacity=".14"/><stop offset=".7" stop-color="#7CB2F7" stop-opacity=".06"/><stop offset=".85" stop-color="#73ACFD" stop-opacity=".02"/><stop offset="1" stop-color="#71ABFF" stop-opacity="0"/></linearGradient><linearGradient id="c" x1="238.03" y1="76.73" x2="225.88" y2="75.82" gradientUnits="userSpaceOnUse"><stop stop-color="#F7FFAA" stop-opacity=".7"/><stop offset=".11" stop-color="#DBEDBB" stop-opacity=".55"/><stop offset=".25" stop-color="#BAD9D0" stop-opacity=".39"/><stop offset=".4" stop-color="#A0C8E1" stop-opacity=".25"/><stop offset=".55" stop-color="#8BBBEE" stop-opacity=".14"/><stop offset=".7" stop-color="#7CB2F7" stop-opacity=".06"/><stop offset=".85" stop-color="#73ACFD" stop-opacity=".02"/><stop offset="1" stop-color="#71ABFF" stop-opacity="0"/></linearGradient><linearGradient id="d" x1="240.87" y1="77.43" x2="234.09" y2="76.92" gradientUnits="userSpaceOnUse"><stop stop-color="#F7FFAA" stop-opacity=".7"/><stop offset=".11" stop-color="#DBEDBB" stop-opacity=".55"/><stop offset=".25" stop-color="#BAD9D0" stop-opacity=".39"/><stop offset=".4" stop-color="#A0C8E1" stop-opacity=".25"/><stop offset=".55" stop-color="#8BBBEE" stop-opacity=".14"/><stop offset=".7" stop-color="#7CB2F7" stop-opacity=".06"/><stop offset=".85" stop-color="#73ACFD" stop-opacity=".02"/><stop offset="1" stop-color="#71ABFF" stop-opacity="0"/></linearGradient><linearGradient id="e" x1="227.97" y1="76.45" x2="220.46" y2="75.89" gradientUnits="userSpaceOnUse"><stop stop-color="#F7FFAA" stop-opacity=".7"/><stop offset=".11" stop-color="#DBEDBB" stop-opacity=".55"/><stop offset=".25" stop-color="#BAD9D0" stop-opacity=".39"/><stop offset=".4" stop-color="#A0C8E1" stop-opacity=".25"/><stop offset=".55" stop-color="#8BBBEE" stop-opacity=".14"/><stop offset=".7" stop-color="#7CB2F7" stop-opacity=".06"/><stop offset=".85" stop-color="#73ACFD" stop-opacity=".02"/><stop offset="1" stop-color="#71ABFF" stop-opacity="0"/></linearGradient><linearGradient id="f" x1="216.42" y1="84.59" x2="211.47" y2="86.9" gradientUnits="userSpaceOnUse"><stop stop-color="#F7FFAA" stop-opacity=".5"/><stop offset=".04" stop-color="#E8F5B3" stop-opacity=".45"/><stop offset=".17" stop-color="#C3DECA" stop-opacity=".31"/><stop offset=".3" stop-color="#A5CCDD" stop-opacity=".2"/><stop offset=".44" stop-color="#8EBDEC" stop-opacity=".11"/><stop offset=".59" stop-color="#7DB3F6" stop-opacity=".05"/><stop offset=".76" stop-color="#74ACFD" stop-opacity=".01"/><stop offset="1" stop-color="#71ABFF" stop-opacity="0"/></linearGradient><linearGradient id="g" x1="184.79" y1="97.71" x2="177.57" y2="101.77" gradientUnits="userSpaceOnUse"><stop stop-color="#F7FFDA" stop-opacity=".7"/><stop offset=".11" stop-color="#DBEDE1" stop-opacity=".55"/><stop offset=".25" stop-color="#BAD9EA" stop-opacity=".39"/><stop offset=".4" stop-color="#A0C8F1" stop-opacity=".25"/><stop offset=".55" stop-color="#8BBBF7" stop-opacity=".14"/><stop offset=".7" stop-color="#7CB2FB" stop-opacity=".06"/><stop offset=".85" stop-color="#73ACFE" stop-opacity=".02"/><stop offset="1" stop-color="#71ABFF" stop-opacity="0"/></linearGradient><linearGradient id="h" x1="173.69" y1="99.49" x2="164.34" y2="104.74" gradientUnits="userSpaceOnUse"><stop stop-color="#F7FFDA" stop-opacity=".7"/><stop offset=".11" stop-color="#DBEDE1" stop-opacity=".55"/><stop offset=".25" stop-color="#BAD9EA" stop-opacity=".39"/><stop offset=".4" stop-color="#A0C8F1" stop-opacity=".25"/><stop offset=".55" stop-color="#8BBBF7" stop-opacity=".14"/><stop offset=".7" stop-color="#7CB2FB" stop-opacity=".06"/><stop offset=".85" stop-color="#73ACFE" stop-opacity=".02"/><stop offset="1" stop-color="#71ABFF" stop-opacity="0"/></linearGradient><linearGradient id="i" x1="169.78" y1="100.63" x2="164.93" y2="103.35" gradientUnits="userSpaceOnUse"><stop stop-color="#F7FFDA" stop-opacity=".7"/><stop offset=".11" stop-color="#DBEDE1" stop-opacity=".55"/><stop offset=".25" stop-color="#BAD9EA" stop-opacity=".39"/><stop offset=".4" stop-color="#A0C8F1" stop-opacity=".25"/><stop offset=".55" stop-color="#8BBBF7" stop-opacity=".14"/><stop offset=".7" stop-color="#7CB2FB" stop-opacity=".06"/><stop offset=".85" stop-color="#73ACFE" stop-opacity=".02"/><stop offset="1" stop-color="#71ABFF" stop-opacity="0"/></linearGradient></defs></svg>