<svg width="320" height="260" fill="none" xmlns="http://www.w3.org/2000/svg"><path d="M179.74 90.38c-3.35 7.89-14.44 11.01-24.8 8.97-6.09-1.2-10.08-3.45-12.63-5.98-1.9-1.87-3-3.9-3.58-5.73a10.74 10.74 0 0 1-.5-4.24c.19-1.87.99-2.72 1.53-1.5.25.58.28 2.23.85 4.17.29.99.72 2.05 1.4 3.09 1.6 2.46 4.54 4.78 10.17 5.66 2 .31 23.51 4.27 27.47-11.39.2-.77.2.04 1.01.06.28 2.6-.07 4.9-.92 6.89Z" fill="#75A152"/><path opacity=".37" d="M180.65 83.49c-.82-.02-.8-.83-1.01-.06-3.46 13.64-20.2 12.4-25.8 11.65 1.5.48 3.03.83 4.47 1.45 1.28.56 2.62 1.2 3.53 2.29.27.33.49.7.62 1.09 10.33-.43 19.31-6.04 18.19-16.42Z" fill="#568040"/><path d="M162.2 96.55c-.32 0-.63.02-.92.1-1.4.3-3.24.62-3.88 1.5-.25.34-.37.96.25 1.14.64.17 1.3-.25 1.77-.76.46-.52.5-1.03 4.3-.81l-1.53-1.17Z" fill="#568040"/><path d="M158.85 96.88c-.6 0-1.2.08-1.78.21-.6.14-1.25.37-1.6.88-.03.05-.1.13-.1.21-.03.21.15.43.36.49.21.05.42 0 .64-.08.75-.3 1.4-.9 2.21-1 .33-.03.66.03.99.05.33.02.68.02.97-.14.16-.08.47-.31.47-.5-.02-.22-.31-.12-.45-.12-.58.04-1.14 0-1.7 0Z" fill="#568040"/><path d="M146.36 94.88c2.93 1.75 6.5 1.87 9.8 2.1 7.56.56 18.57 3.1 21.13-4.99.17-.54 4.13-1.28 3.36-8.52-.82-.02-.8-.83-1.01-.06-3.96 15.66-25.46 11.7-27.48 11.4-5.6-.88-8.54-3.17-10.15-5.61.78 2.35 2.31 4.46 4.35 5.68Z" fill="#568040"/><path d="M161.7 95.62c3.48.33 7.03.4 10.3-1.03a7.84 7.84 0 0 0 2.16-1.34c.57-.52.94-1.2 1.56-1.7 1.14-.88 2.56-1.23 3.37-2.53.92-1.48.82-3.28.4-4.97-2.76 9.43-12.14 11.37-19.16 11.45l1.38.12Z" fill="#3E5C2E"/><path d="M143.04 99.09a6.02 6.02 0 0 1-.76-.5c-1-.76-1.75-1.82-2.47-2.85-.67-1-1.37-1.98-1.72-3.13a6.09 6.09 0 0 1 .64-4.97 10.74 10.74 0 0 1-.5-4.24c.77.38 1.66 1.5 2.38 2.67.78 1.27 1.37 2.6 1.4 3.09v.04s-.13 1.08-.06 2.24c.03.69.13 1.4.36 1.94.1.24.23.44.4.59 0 0-1.28 3.16.32 5.12Z" fill="#568040"/><path d="m193.86 95.14-.1.22-.1.2-.32.66v.01l-.07.13-.1.21-.01.01v.01l-.02.04-.02.05-.04.07-.07.14-.63 1.31-.01.04c-.03.03-.05.07-.06.11l-.23.48-.38.77v.01l-.04.08-.24.5-.6 1.23-1.03 2.13-.58 1.18v.01h-.01v.02l-.43.87-.24.5c-.06.1-.1.2-.17.3v.03l-1.49 3.04-.87 1.77-.3.6-.66 1.34-.01.04-.49.97c-.8 1.65-1.63 3.3-2.46 4.98l-.02.05-1.02 2.05-3.16 6.32c-.2.41-.4.83-.62 1.25l-.33.65-.07.15-.52 1.03-.07.14-.1.21-.54 1.06-2.64 5.24v.01c-.17.3-.32.62-.48.93a1611 1611 0 0 1-2.72 5.35l-.23.46-.42.8-.45.88-.79 1.55v.01l-4.8 9.33a2682.2 2682.2 0 0 1-13.72 26.05l-2.45 4.56-.01.02-.01.02-.81 1.5-1.12 2.06-.95 1.75-.3.56-.28.51-.26.48-.55 1-.27.5-.28.5-.75 1.38-.02.03-.12.24-.09.15-1.87 3.41-.04.07c-.2.34-.37.67-.55 1l-.2.35-1.12 2.03-.49.87-.53.96-.38.68-1.5 2.66c-.05.1-.1.21-.16.3h-.01l-1.55-.11-2.54-.24a135 135 0 0 1-3.19-.33l3.14-5.57 1.43-2.55a796.2 796.2 0 0 0 3.82-6.9l.4-.72a80.79 80.79 0 0 0 1-1.84h.01a392 392 0 0 0 1.03-1.89l.28-.51.37-.68.06-.1v-.01l.9-1.64h-.01v-.02l1.86-3.42 1.66-3.1a1523.33 1523.33 0 0 0 7.28-13.76l2.48-4.77v-.02l2.75-5.32 1.46-2.87.03-.06a987.99 987.99 0 0 0 2.96-5.83l.72-1.43v-.02l.58-1.14.84-1.68 1.13-2.25a201.58 201.58 0 0 1 1.68-3.37l.26-.52v-.01l1.56-3.16 1.58-3.2.55-1.13.37-.76 1.92-3.92.9-1.87.12-.26a508.91 508.91 0 0 0 1.6-3.28l1.08-2.25 1.4-2.9.03-.06 3.7-7.76.04-.07.13-.27.03-.07.11-.23c0-.02.02-.04.03-.05l.57-1.2.13-.28.11-.24.02-.03.06-.15.93-1.95.1-.22.51-1.09.01-.03h.02v-.02s.01 0 0 0l.01-.01a.7.7 0 0 1 .05-.12l.37-.78.02-.06.47-.99.97-2.05v-.01l.1-.22.69-1.45.5-1.08.35-.73v-.01l.13-.27.1-.2.15-.33.18-.4.23-.48.09-.19.42.15.45.16 5.85 3.05v-.01h.02Z" fill="#D8D8D8"/><path d="m193.33 96.23.32-.67c.07-.14.14-.27.2-.42l-5.84-3.06-.88-.3a2950.15 2950.15 0 0 1-5.06 10.73c1.08 3.17 2.49 6.2 3.63 9.37 2.55-5.18 5-10.2 7.31-15l.32-.65Z" fill="#A4A4A4"/><path opacity=".33" d="m187.2 91.81.8.27 5.85 3.06-.2.42-.33.67-.32.67a4528.2 4528.2 0 0 1-3.22 6.65c-1.24-3.15-2.6-6.24-3.68-9.43l1.1-2.32v.01Z" fill="#A4A4A4"/><path d="m194.21 94.61-1.76 3.58-4.07.77-1.98-4.57 1.62-3.43 6.19 3.66Z" fill="#D8D8D8"/><path d="m188.25 98.66-1.85-4.27 1.62-3.43 6.19 3.66-.97 1.97a4.67 4.67 0 0 0-4.99 2.07Z" fill="#A4A4A4"/><path opacity=".33" d="m186.69 93.77 1.33-2.81 6.19 3.65-.88 1.78c-1.45-.72-3.34-1.98-6.64-2.61Z" fill="#A4A4A4"/><path d="m180.71 86.48-1.2 2.4-.47.9c.29.37 5.37 1.96 11.06 4.83 5.7 2.87 10.42 5.08 10.89 5.1l.03.01 1.2-2.4-21.52-10.84h.01Z" fill="#A4A4A4"/><path d="M191.3 92.24c5.94 3 10.83 5.27 10.93 5.08.09-.19-4.65-2.76-10.6-5.76-5.93-3-10.83-5.27-10.92-5.08-.1.19 4.64 2.77 10.59 5.76Z" fill="#D8D8D8"/><path d="m194.66 93.54 16.67-33.37a2.16 2.16 0 0 0 .17-1.36 1.74 1.74 0 0 0-.23-.59 1.3 1.3 0 0 0-.43-.43l-2.66-1.75a1.28 1.28 0 0 0-1.13-.12 1.7 1.7 0 0 0-.93.86l-16.97 34 5.5 2.76h.01Z" fill="#21212B"/><path d="m191.79 88.52.4.67-.4-.67Zm0 0 .4.67-.4-.67Zm-.37-.63.37.63-.37-.63Zm.37.63.4.67-.4-.67Zm-.38-.63.38.63-.37-.63Zm20.12-28.88-.02-.18v-.01a.88.88 0 0 0-.04-.13v-.03l-.01-.02-.01-.03-.01-.02v-.02a.6.6 0 0 0-.03-.06l-.03-.06v-.03l-.01-.02-.01-.01v-.02l-.01-.01-.03-.04v-.03h-.01l-.02-.03-.01-.03a.94.94 0 0 0-.2-.24c-.02-.05-.06-.08-.1-.11l-.13-.1-2.66-1.74a1.8 1.8 0 0 0-.28-.14l-.08-.02-.13-.02-.08-.02h-.25l-.07.01h-.01l-.02.01h-.02l-.02.01h-.02l-.02.01h-.02v.01h-.04l-.01.01h-.01l-.04.01-.01.01a.5.5 0 0 0-.07.03l-.04.01a.9.9 0 0 0-.15.09h-.02l-.11.08-.02.02a.46.46 0 0 0-.08.07c-.01 0-.02 0-.02.02h-.02v.01l-.03.03-.01.01-.01.01h-.01v.01l-.03.03-.02.02-.01.01-.01.02-.05.05a.25.25 0 0 0-.04.05v.01l-.01.01c-.02.01-.02.02-.02.03l-.01.02-.04.05-.04.07-.01.01-.05.1-5.87 11.76-1.84 3.69s-.01 0 0 0v.01l-.89 1.76-.7 1.4v.02l-.05.1-.02.03-.19.38-.03.07-.1.21v.01l-.33.65-3.67 7.35-2.2 4.4-.57 1.15-.05.11-.05.1-.22.44-.03.04-.14.29-.01.03.49.24h.02v.01l.02.01.04.02.16.08.04.02.01.01 4.71 2.37h.02v-.01l.12-.25.04-.08.31-.61.09-.16.3-.63.4-.79.1-.2.83-1.66.12-.24.03-.06.04-.08.05-.1.07-.14 2.63-5.26v-.02l.81-1.62.11-.22.08-.15.06-.12.05-.09.31-.62v-.03l.28-.54v-.02l.4-.78.01-.03.65-1.28.04-.08v-.02h.01v-.02l.02-.03 2.35-4.7.7-1.41v-.04l.01.02 1.27-2.55 3.99-7.98.01-.03v-.02c.02-.01.03-.03.04-.06v-.01l.02-.02c0-.03.02-.06.04-.08l.04-.1h.01v-.02h.01l.02-.04.01-.01v-.03l.08-.14.01-.02.03-.04v-.02l.01-.01v-.01l.01-.01.02-.04.02-.04v-.01h.01v-.02l.04-.1h.01v-.02l.02-.03v-.01l.03-.05v-.04l.01-.03.03-.06v-.06h.01v-.01l.04-.2.01-.07v-.06c.02-.14.02-.28 0-.41l-.02-.01Zm-15.79 31.25h-.3l-2.1.06h-.13l-.34.02-.69-1.15-.39-.67-.37-.63-.13-.22h.39l1.36-.04.31-.01.82-.02.74 1.25.48.82.35.6Zm1.1-5.02h-.03l-1.04.02-.51.01c-1.9-3.23-2.32-2.5 1.32-2.59l.65 1.1.05.07.44.75.35.6-1.23.04Zm2.98-4.93h-.46l-1.42.04h-.26l-1.31-2.22 1.7-.05h.23l.85-.03.85 1.47h.01l.45.78-.65.01Zm.47-4.58h-.04l-.61-1.03-.87-1.48h.19l2.38-.04.41.7 1.07 1.81-2.53.04Zm2.16-4.87-1.4-2.62 2.74-.03 1.52 2.6-2.86.05Zm2.44-4.96-1.5-2.6 2.22-.02h.57v.01l.46.79 1.03 1.79-1.7.02-1.08.01Zm3.9-4.94-1.52.01-1.43-2.49-.13-.23 2.88-.06 1.59 2.76h-1.4v.01Zm-17.37 26.93.37.63-.37-.63Zm.37.63.4.67-.4-.67Zm-.37-.63.37.63-.37-.63Zm.37.63.4.67-.4-.67Zm0 0 .4.67-.4-.67Zm0 0 .4.67-.4-.67Z" fill="#323147"/><path opacity=".37" d="M206.54 56.23c-.07.06-.13.14-.19.21-.2.58-.35 1.18-.47 1.8l2.7-.06 1.6 2.77-2.9.02-1.44-2.5a19.37 19.37 0 0 0-.23 4.82h.57l1.5 2.58-1.71.02c.21 1.06.53 2.14 1 3.04l3.98-7.98.38-.78a2.16 2.16 0 0 0 .17-1.36 1.74 1.74 0 0 0-.23-.58 1.3 1.3 0 0 0-.43-.44l-2.66-1.74a1.28 1.28 0 0 0-1.13-.12c-.19.06-.37.17-.52.31l.01-.01ZM194.66 93.54l1.37-2.74-.58-.53-2.59.06-1.58-2.66 2.07-.05-.1-.18a7.27 7.27 0 0 1-.82-3.29l-3.27 6.62 5.5 2.77Z" fill="#21212B"/><path d="m189.17 90.77 16.97-34c.3-.62.92-1.03 1.57-.91-1.55-.27-2-.45-2.64.24-.12.12-.22.27-.3.44l-16.83 33.62 1.23.61Z" fill="#464557"/><path d="m127.47 94.28 5.85-3.06.45-.16.43-.14.08.18.23.48.19.4.15.33.1.2.12.27.35.74.5 1.08.7 1.45c.02.08.06.15.1.22v.01c.31.69.64 1.37.96 2.06l.47.98.02.06.37.78a.7.7 0 0 1 .05.12v.01h.01v.01l.01.02.02.03.51 1.09.1.21.93 1.95.06.15c0 .01 0 .02.02.03l.12.25.12.27a210.96 210.96 0 0 1 .6 1.25l.11.24c0 .02.02.04.04.06l.12.28.03.07 3.71 7.75.03.06 1.4 2.9 1.08 2.25.03.06 1.57 3.23.12.25.9 1.87 1.92 3.92.38.77.55 1.13 1.57 3.2 1.56 3.15v.01l.26.52.64 1.28a224.11 224.11 0 0 1 1.04 2.1l1.13 2.25.84 1.67.58 1.15v.01l.73 1.43v.02l2.95 5.81.03.06 1.47 2.88c.9 1.78 1.82 3.54 2.73 5.31l.01.02 2.48 4.78a1523.33 1523.33 0 0 0 7.28 13.76l1.67 3.1c.6 1.14 1.23 2.27 1.85 3.41v.03l.9 1.63v.02l.06.1.36.67.28.51 1.03 1.88.4.74.62 1.11.4.72 1.55 2.82c.75 1.35 1.5 2.72 2.27 4.08l1.42 2.55 3.14 5.58c-1.05.12-2.1.23-3.18.33l-2.55.23-1.54.12h-.01l-.17-.3-1.5-2.67-.38-.68-.53-.96-.48-.87-1.13-2.02-.2-.35-.54-1a.72.72 0 0 1-.05-.08l-1.87-3.4-.08-.15-.13-.24-.02-.04-.75-1.37c-.09-.16-.19-.33-.27-.5-.1-.17-.19-.33-.27-.5l-.55-1v-.01c-.1-.16-.18-.31-.26-.47-.1-.18-.2-.34-.28-.52l-.3-.56-.96-1.75-1.12-2.05-.8-1.5c0-.02-.02-.03-.02-.03v-.02l-2.45-4.55a1942.36 1942.36 0 0 1-13.72-26.06c-1.61-3.12-3.22-6.23-4.8-9.33l-.01-.01-.8-1.55-.44-.88-.41-.8-.23-.46-2.73-5.35-.47-.93c-.9-1.76-1.78-3.51-2.65-5.25l-.53-1.06a3.58 3.58 0 0 1-.18-.35l-.52-1.03-.07-.15c-.1-.22-.22-.44-.33-.65l-.62-1.25a1541.04 1541.04 0 0 1-4.17-8.37l-.03-.04a1132.8 1132.8 0 0 1-3.61-7.33l-.3-.6-.88-1.78-1.5-3.04v-.02l-.16-.31-.24-.5-.43-.87v-.02l-.58-1.19-1.04-2.13-.6-1.23a22.4 22.4 0 0 0-.24-.5l-.04-.07v-.02l-.38-.76-.22-.49-.06-.11-.02-.03c-.2-.44-.42-.87-.63-1.31l-.07-.15-.03-.07-.03-.05-.01-.03v-.01l-.02-.02-.1-.2-.06-.13v-.02l-.32-.66-.1-.2-.1-.22v.02Z" fill="#D8D8D8"/><path d="M128 95.35a1996.27 1996.27 0 0 0 7.63 15.65c1.13-3.16 2.54-6.2 3.62-9.37a907.15 907.15 0 0 1-5.06-10.73l-.88.3-5.85 3.06.21.43.32.67Z" fill="#A4A4A4"/><path opacity=".33" d="m134.12 90.93 1.1 2.3c-1.09 3.2-2.44 6.29-3.67 9.44l-3.23-6.65-.32-.66-.33-.67-.2-.43 5.85-3.06.8-.27Z" fill="#A4A4A4"/><path d="m127.11 93.74 6.2-3.65 1.61 3.42-1.98 4.57-4.07-.77-1.76-3.58Z" fill="#D8D8D8"/><path d="M133.07 97.78a4.67 4.67 0 0 0-4.99-2.07l-.97-1.97 6.2-3.65 1.61 3.42-1.85 4.27Z" fill="#A4A4A4"/><path opacity=".33" d="M134.63 92.9c-3.3.63-5.18 1.9-6.64 2.62l-.88-1.79 6.2-3.65 1.32 2.81Z" fill="#A4A4A4"/><path d="M140.62 85.6 119.1 96.45l1.2 2.4.03-.02c.47-.02 5.2-2.22 10.89-5.1 5.7-2.87 10.28-5.35 10.57-5.72h.03l-1.21-2.4v-.01Z" fill="#A4A4A4"/><path d="M140.62 85.6c-.1-.18-5 2.09-10.94 5.08-5.94 3-10.68 5.57-10.58 5.76.09.19 4.99-2.08 10.93-5.08 5.94-2.99 10.68-5.57 10.59-5.76Z" fill="#D8D8D8"/><path d="m126.66 92.67 5.5-2.76-16.96-34a1.66 1.66 0 0 0-.93-.86 1.25 1.25 0 0 0-1.13.12l-2.66 1.75a1.3 1.3 0 0 0-.43.43 1.85 1.85 0 0 0-.26 1.26c.03.23.1.47.2.69l16.67 33.37Z" fill="#21212B"/><path d="m132.15 89.87-.17-.34-.12-.22-.16-.32-.54-1.08-1.9-3.83-.36-.72h-.01v-.02l-3.31-6.62-.2-.4-.02-.05-.2-.37-2.33-4.66v-.01l-.2-.41-.18-.36-.09-.2-.02-.02-.01-.03v-.02h-.01l-1.77-3.55-3.03-6.06-2.34-4.7a.38.38 0 0 0-.04-.07l-.05-.07s0-.02-.02-.03l-.11-.16a.75.75 0 0 0-.06-.07.07.07 0 0 0-.03-.03v-.01l-.02-.02h-.01l-.06-.07h-.01l-.02-.02-.01-.01-.08-.06-.05-.04-.12-.08h-.02v-.01a.38.38 0 0 0-.12-.06h-.03l-.02-.02h-.02v-.01l-.06-.02h-.02l-.01-.01-.04-.01h-.01s0-.01 0 0l-.01-.01a.21.21 0 0 0-.09-.02h-.02a.28.28 0 0 0-.08-.02h-.29l-.05.01-.12.03a.42.42 0 0 0-.08.02l-.1.05-.1.05-.08.04-2.67 1.74-.12.1a1.43 1.43 0 0 0-.3.37l-.04.07-.02.03v.01l-.06.12v.02l-.02.04h-.01v.02l-.01.02-.01.01v.03l-.02.03v.03h-.01l-.03.12v.01c-.04.17-.05.35-.04.54l.01.13.02.1v.04l.01.02.01.06.02.04v.05h.01v.03l.01.02v.01l.02.03v.03l.03.09.06.14.01.02v.01h.01l.02.02c0 .01 0 .03.02.04v.01l.01.02v.02h.01v.01c.02.01.02.03.02.04l.01.02.01.01.08.16.01.02.01.01.01.04.01.01v.01h.01l.05.1.08.17.02.03.02.03 3.98 7.97 1.28 2.56v.01l2.58 5.17v.01l2.37 4.74.1.19.1.2v.01h.01v.01l2.19 4.4.29.57.11.24.08.16.01.01v.02l.21.4.45.9 1.14 2.28.14.28v.02l.07.12.04.1.12.24.07.13.3.61.04.06.4.79v.02l.01.03.1.2.07.13v.02h.02l1.58-.8h.01l.01-.01 2.78-1.4h.02l.6-.31.48-.25v-.02.01Zm-6.09-5.48-2.81-.07 1.49-2.51c3.64.08 3.23-.64 1.32 2.59Zm-7.55-9.58 1.47-2.51h.1l1.81.03h.66l-.65 1.12v.01l-.83 1.4h-.25l-2.07-.04h-.24Zm-6.57-14.73h-.27l-.3-.01h-.23l1.6-2.77 2.88.06-.14.23v.01l-1.43 2.5-1.88-.02h-.24Zm3.42 4.92-1.7-.02v-.03l.14-.22 1.34-2.33h.58l2.21.03-1.5 2.58h-1.07Zm.66 4.94 1.52-2.61 2.75.03-1.41 2.61-2.86-.03Zm4.84 9.47 1.31-2.24 2.78.08-1.3 2.21-2.79-.05Zm4.72 9.97 1.22-2.06.36-.6.81.02 2.07.06-1.1 1.84-.48.81-2.59-.06-.29-.01Z" fill="#323147"/><path opacity=".37" d="M114.8 55.37a1.57 1.57 0 0 0-.52-.32c-.2-.07-.39-.1-.58-.07-.2.02-.38.08-.56.2l-2.66 1.74a1.3 1.3 0 0 0-.43.44c-.1.16-.19.36-.23.58a2.13 2.13 0 0 0 .17 1.36l.39.77 3.98 7.99c.46-.9.78-1.98 1-3.05l-1.71-.01 1.49-2.59h.58l.02-.31c.09-1.44.02-3-.26-4.5l-1.43 2.5-2.91-.03 1.6-2.76 2.7.05c-.11-.6-.27-1.21-.47-1.79a1.26 1.26 0 0 0-.19-.21l.01.01ZM126.67 92.66l5.5-2.77-3.28-6.62c-.04 1.1-.2 2.1-.82 3.29l-.1.18 2.07.05-1.58 2.66-2.58-.06-.59.53 1.37 2.74Z" fill="#21212B"/><path d="m133.38 89.28-16.83-33.62a1.61 1.61 0 0 0-.3-.44c-.63-.7-1.09-.5-2.63-.25.64-.11 1.26.3 1.57.92l16.97 34 1.23-.62Z" fill="#464557"/><path opacity=".33" d="M197.52 158.82c-.38 6.1-.78 12.18-.98 18.28l-.02.1-.02.11a132.53 132.53 0 0 1-2.43 9.28l-.05.18-.46 1.55c-.4-.36-.8-.74-1.18-1.12l-.16-.14v-.01a60.3 60.3 0 0 1-3-3.2c-.31-.34-.62-.7-.9-1.06-1.55-1.94-2.85-4.12-3.1-6.57-.17-1.56.1-3.11.08-4.66-.03-1.56-.42-3.22-1.59-4.25-1.77-1.56-4.55-1-6.6.14-1.1.6-2.2 1.37-3.44 1.3h-.03a3.3 3.3 0 0 1-1.3-.39c-.98-.5-1.84-1.37-2.84-1.88-1.78-.88-3.94-.58-5.87-.98a5.17 5.17 0 0 1-1.63-.58 7 7 0 0 1-2.15-2.04l-.34-.46c-1.09-1.5-2.11-3.19-2.22-5.05-.01-.28-.5-.91-1.26-1.73-1.34-1.45-3.5-3.5-5.25-5.22l-.71-.72c-1.15-1.17-2-2.1-2.06-2.46-.1-.59.56-.52 1.47-.17a8.48 8.48 0 0 1-.83-.69 4.4 4.4 0 0 1-.56-.67 9.4 9.4 0 0 1-1.58-3.95c-.3-1.77-.05-3.55 1.25-4.49.25-.17.51-.3.8-.38.46-.15.96-.2 1.48-.21 1.05-.03 2.15.09 3.06-.13.44-.1.88-.23 1.31-.39l.21-.07 1.06-.44c1.11-.5 2.2-1.08 3.3-1.56l.22-.1a24.2 24.2 0 0 1 8.62-1.9 27.63 27.63 0 0 1 17.19 5.34l.2.15a28.7 28.7 0 0 1 6.04 6.13 33.48 33.48 0 0 1 4.25 7.75c.9 2.31 1.57 4.72 1.98 7.17l.01.09.02.1Z" fill="#677BB2"/><path opacity=".34" d="M183.8 155.8a6.15 6.15 0 0 0-.86-2.64c-2.25-3.61-6.36-1.59-9.19.02-2.78 1.58-5.86 3.11-8.91 1.23-2.64-1.64-4.6-5.72-8.3-4.86-1.44.33-2.52 1.41-4 1.69 1.14.58 2.36 1.06 3.59 1.53 1.6.6 3.19 1.25 4.58 2.27 1.25.9 2.33 1.95 3.5 2.95 1.96 1.66 4.16 3.02 6.85 2.74 3.22-.3 5.83-2.38 8.63-3.77a10.82 10.82 0 0 1 4.11-1.17ZM201.26 101.83c-.03-.08-.09-.17-.11-.25-.5.22-.92.58-1.28 1.06-1.22 1.72-1.42 4.19-1.47 6.24a27.47 27.47 0 0 0 .58 6.66c.39-3.08.39-6.24.94-9.32.34-1.5.73-3 1.34-4.39Z" fill="#568040"/><path d="M155.43 144.85c-.78-.13-1.5.7-1.41 1.48.08.77.74 1.41 1.5 1.66.74.25 1.55.14 2.32-.03.78-.16 1.53-.39 2.31-.44 1.25-.09 2.5.3 3.72.58 2.89.72 5.86.97 8.83 1.22 1.75.14 3.5.3 5.24.09 1.59-.2 3.14-.72 4.53-1.56 1.2-.7 2.38-1.78 2.41-3.2 0-.27-.02-.57.03-.85.14-.61.72-1.06 1.3-1.25.59-.2 1.26-.25 1.84-.47 1.8-.61 2.86-2.42 3.77-4.08.53-.97 1.09-2 1.09-3.14 0-.6-.17-1.25-.03-1.86.25-.94 1.28-1.86.8-2.72-.22-.39-.72-.58-1.19-.56a3.3 3.3 0 0 0-1.3.45c-.9.45-1.78.89-2.64 1.36-.78.42-1.58.86-2.25 1.47-.83.75-1.47 1.7-2.1 2.61a17.08 17.08 0 0 1-3.7 4.17 19.18 19.18 0 0 1-4.53 2.3c-2.38.97-4.8 1.94-7.35 2.33-3.8.58-7.66-.22-11.52-.22-.58 0-1.2.03-1.72.22-.53.22-1.03.67-1.11 1.25l1.16-.8ZM200.6 122.48c-.34.64-1.12.9-1.84.86a.72.72 0 0 1-.47-.14c-.78-.52.14-2.69.8-3 1.22-.55 1.95 1.42 1.5 2.28Z" fill="#93BC82"/><path opacity=".34" d="M161.98 96.06c.08 1.47-1.16 2.86-2.47 3.41-.89.4-1.94.47-2.64 1.11-.66.59-.89 1.56-1.52 2.17-.97.94-2.56.8-3.8.3-.45-.19-.92-.47-1.06-.94-.17-.7.5-1.3 1.16-1.55 2.4 0 2.5-2.14 2.5-3.84 0-.27 0-.55.11-.77.14-.3.45-.47.75-.61.34-.17.67-.34 1-.53 1.03-.52 2.14-1 3.3-.97 1.17.03 2.37.78 2.62 1.89.05.1.05.22.05.33Z" fill="#568040"/><path d="M197.5 101.01c1.93.33 3.87.76 5.73 1.28a32 32 0 0 1 10.04 5.14c.48.37 1.1.76 1.72 1.2a58.04 58.04 0 0 1-11.91-3.25c-3.05-1.17-7.84-3.1-13-3.98 2.52-.6 4.87-.86 7.43-.39Z" fill="#3E5C2E"/><path d="m251.1 122.58-.02.64a7.43 7.43 0 0 1-.59 2.56l-.1.26c-.2.43-.41.86-.66 1.3l-.08.13-.08.13c-.42.68-.91 1.36-1.47 2.02-.1.13-.22.25-.33.37l-.48.52a18.94 18.94 0 0 1-2.1 1.88l-.3.23a14.34 14.34 0 0 1-1.29.88l-.33.2c-.11.08-.23.14-.34.2a14.87 14.87 0 0 1-1.82.93 24.09 24.09 0 0 1-1.85.7l-.39.12-.37.1c-.28.08-.57.14-.85.2l-.35.07-.43.08-.41.06-.33.04-.3.03-.55.04-.34.02a11.62 11.62 0 0 1-1.7-.03c-.9-.06-1.81-.21-2.73-.45-2.73-.7-4.45-1.7-6.29-2.73-1.4-.8-2.89-1.61-4.95-2.37-1.08-.4-2.16-.7-3.23-.95h-.02c-.36-.1-.72-.17-1.08-.23l-.05-.02a49.57 49.57 0 0 0-3.67-.54h-.03l-1.12-.12-1.24-.12h-.02l-.34-.04-1-.1c-.7-.06-1.38-.13-2.07-.21l-.48-.06-.51-.07-.38-.05h-.02a18.25 18.25 0 0 0-2.78-.19h-.17a54.7 54.7 0 0 0-2.42.03h-.03l-1.42.05h-.11l-1.59.07c-1.45.05-2.95.1-4.5.06H190.8l-.16-.01h-.1a34.09 34.09 0 0 1-2.66-.17l-.75-.08-.39-.05-.07-.01-.53-.08c-.07 0-.14-.02-.2-.03l-.19-.02-.66-.12-.33-.07-.33-.07-.26-.05-.14-.04-.18-.03a.78.78 0 0 0-.1-.03.35.35 0 0 0-.06 0l-.02-.02-.09-.02h-.03l-.05-.02-.07-.01-.09-.03-.07-.01-.18-.05-.17-.05-.17-.04-.33-.1c-.05 0-.09-.02-.13-.03l-.2-.07-.1-.03a8.14 8.14 0 0 1-.24-.07l-.09-.03-.2-.07-.09-.03c-.5-.17-1-.35-1.49-.55l-.16-.07-.03-.02c-.03 0-.05-.02-.08-.03l-.23-.1-.34-.15H179v-.01a2.56 2.56 0 0 1-.32-.14l-.41-.2a2.68 2.68 0 0 1-.11-.05l-.26-.13-.25-.13-.34-.18a14.83 14.83 0 0 1-.39-.22l-.28-.17-.34-.19-.69-.43-.11-.08-.15-.1-.08-.05-.34-.22v-.01l-.26-.17a20.15 20.15 0 0 1-.51-.38l-.25-.19-.28-.2-.16-.13-.18-.14-.4-.32-.34-.29-.07-.06-.08-.07-.47-.42-.05-.04-.26-.24-.75-.7-.02-.01c0-.02-.02-.03-.03-.04a28.73 28.73 0 0 1-4.49-5.79 52.09 52.09 0 0 1-3.6-6.93 35.43 35.43 0 0 1-2.03-6.46l-.04-.17c-.29-1.5-.45-3.08-.36-4.6v-.03l.02-.02c4.85-4.12 10.29-5.25 16.01-4.79 1.23.1 2.47.27 3.72.5l.03.01a44.4 44.4 0 0 1 2.43.52h.02v.01c3.46.83 6.97 2.03 10.5 3.32l.2.08c1.68.62 3.37 1.26 5.05 1.9a227.7 227.7 0 0 0 4.77 1.73l.1.04.49.16c.54.2 1.08.38 1.63.55l.9.3h.04a73.17 73.17 0 0 0 4.07 1.15l.08.02a39.94 39.94 0 0 0 3.42.7c2.27.37 4.53.65 6.8.92l.24.03.28.04c.99.11 1.96.23 2.94.36l.26.04a110 110 0 0 1 2.61.38c.08 0 .15.02.22.03l.52.08.37.07a54.12 54.12 0 0 1 2.28.42 35.13 35.13 0 0 1 3.62.97c1.25.4 2.62.88 4.52 1.53l.06.02.25.13h.02c1.68.83 3.29 1.27 4.75 1.69l.77.22c1.58.45 2.97.96 4.08 2 .3.27.57.58.82.94a9.08 9.08 0 0 1 1.41 3.55 14.7 14.7 0 0 1 .33 2.16c.14 1.34.2 2.9.17 4.75h-.02Z" fill="#464558"/><path opacity=".29" d="M251.1 122.58a12.3 12.3 0 0 1-3.81 7.98 19.64 19.64 0 0 1-2.1 1.83l-.31.23c-1.03.73-2 1.33-2.95 1.82-3.25 1.7-6.07 2.12-8.7 1.82-3.13-.35-6-1.72-9.02-3.18-2.54-1.22-5.18-2.51-8.18-3.32h-.02a22.73 22.73 0 0 0-4.8-.78h-.02c-.23-.02-.45-.05-.68-.06a97.4 97.4 0 0 1-2.05-.22l-4.06-.44-.98-.09h-.03l-.77-.06-1.4-.1H201.05l-1.84.03-.74.02-1.29.04h-.11c-2.32.09-4.66.18-6.98.09a38.64 38.64 0 0 1-1.9-.1 27.95 27.95 0 0 1-4.36-.69l-.09-.02a.42.42 0 0 0-.08-.02l-.1-.03h-.02l-.13-.04-.09-.02-.06-.02a2.08 2.08 0 0 0-.18-.05l-.18-.04-.5-.14a1.85 1.85 0 0 0-.13-.04l-.2-.06-.62-.2a24.22 24.22 0 0 1-1.75-.66h-.03l-.07-.04-.24-.1-.34-.15H179l-.01-.01a5.56 5.56 0 0 0-.32-.15l-.41-.19a3.49 3.49 0 0 0-.1-.05l-.26-.13a36.1 36.1 0 0 1-.99-.53 31.16 31.16 0 0 1-2.76-1.79l-.25-.2a9.93 9.93 0 0 1-.28-.2l-.16-.13-.18-.14-.4-.32-.34-.28-.07-.07-.07-.06-.48-.42-.05-.04-.26-.24-.75-.71h-.01a46.27 46.27 0 0 1-5.47-7.32 39.2 39.2 0 0 1-2.5-4.9 34.32 34.32 0 0 1-2.2-7.4 26.53 26.53 0 0 1-.38-4.37v-.04l.01-.01a23.97 23.97 0 0 1 8.02-3.98c2.63-.73 5.3-.95 7.99-.8 1.14.05 2.28.17 3.43.35a193.1 193.1 0 0 1 13.87 4.04c1.6.6 3.2 1.23 4.8 1.86 1.38.53 2.76 1.06 4.14 1.57l.57.21c1 .37 2.02.73 3.02 1.07a79 79 0 0 0 5.25 1.56c3.08.78 6.15 1.28 9.2 1.3h.5l2.93.36a91 91 0 0 1 3.09.45l.9.16 1.74.33a53.04 53.04 0 0 1 4.15 1.06c1.41.41 2.9.92 4.52 1.53l.06.03.25.12h.02c1.85.88 3.77 1.34 5.52 1.9 1.58.5 3.01 1.09 4.14 2.12.28.25.53.53.76.83a8.3 8.3 0 0 1 1.51 4.01l.1.65.05.3c.29 1.98.4 3.8.25 5.5v-.02Z" fill="#2B2B37"/><path opacity=".25" d="M237.34 131.36c-.25-.08-2.28-.4-5.04-.75-2.6-.34-5.85-.72-8.84-1-4.12-.37-7.74-.54-8.48-.11-.02 0-.03.02-.04.03l-.06-.01c-1.46-.2-2.91-.42-4.37-.6l-.45-.07c-2-.26-4.02-.49-6.04-.64H204l-.58-.04h-.03l-.78-.04c-1.13-.07-2.26-.1-3.4-.09H198.63l-.16.02c-2.61.2-5.18.27-7.67.16h-.28l-.43-.03a31.9 31.9 0 0 1-11.94-2.83 25.05 25.05 0 0 1-7.3-5.26l-.04-.04a38.88 38.88 0 0 1-5.43-7.28 42.43 42.43 0 0 1-4.72-12.06l.01-.24c.23-1.28 2.85-1.75 3.88-.28 1.31 1.88 18.46.15 26.16-.66h.01l.38-.04 1.22-.14 1.06-.1.55-.06c1.2-.11 3 .95 5.04 2.52l.91.72a110.3 110.3 0 0 1 3.98 3.45l1 .9c2.95 2.68 5.72 5.17 7.37 5.77a21.93 21.93 0 0 1 3.08 1.4 20.04 20.04 0 0 1 5.72 4.66 23.38 23.38 0 0 1 3.25 5c.16.33 2.27 1.52 4.75 2.87 3.67 2 8.15 4.37 8.3 4.88h.01Z" fill="#2B2B37"/><path d="m146.94 96.04-.02 1.11c-.1-.21-.2-.44-.27-.68l.29-.43Z" fill="#464558"/><path opacity=".29" d="m146.94 96.04-.02 1.13c-.1-.21-.2-.45-.27-.68l.29-.44Z" fill="#2B2B37"/><path opacity=".48" d="m146.94 96.04-.02 1.11c-.1-.21-.2-.44-.27-.68l.29-.43Z" fill="#2B2B37"/><path d="M147.7 98.06v-1.1l-.3.44.3.66Z" fill="#2B2B37"/><path d="M157.9 96.95c-.06.54-.15 1.07-.25 1.6l-.03.17-.09.43a40.47 40.47 0 0 1-4.01 10.53c-1.6 3.05-3.5 6.07-5.94 8.53l-.03.03-.67.65-.34.31c-.2.2-.4.36-.6.53l-.07.07-.33.29a9.33 9.33 0 0 1-.63.52 10.08 10.08 0 0 1-.88.67l-.26.2-.25.17-.35.24-.22.15-.11.08-.7.44-.32.2-.67.38-.34.19a31.54 31.54 0 0 1-1 .5l-.01.01-.32.14v.01h-.01l-.35.16a3.3 3.3 0 0 1-.33.15l-.33.14c-.12.04-.23.1-.35.13l-.67.26-.28.1-.1.03a3.9 3.9 0 0 1-.28.1l-.24.07-.1.04-.2.06-.13.03-.34.1-.33.1-.24.06a.37.37 0 0 1-.1.02l-.06.02-.17.04-.02.01-.07.02a.66.66 0 0 0-.1.02l-.17.04a3.83 3.83 0 0 1-.4.09 7.53 7.53 0 0 1-.66.13c-.2.05-.42.08-.64.12h-.01l-.18.03-.2.03a55.19 55.19 0 0 1-.6.1c-.13 0-.25.02-.38.03l-.75.09-.32.03a34.08 34.08 0 0 1-2.41.14l-.37.02c-1.53.03-3.02-.01-4.45-.06-1.07-.05-2.1-.1-3.1-.13s-1.98-.04-2.91-.02c-.85.02-1.66.08-2.44.19l-.9.12-.47.06-2.05.22-1.33.14h-.02a78 78 0 0 0-4.69.56l-1.38.24c-1.42.29-2.85.67-4.29 1.21-4.68 1.75-6.34 3.9-11.14 5.18a14.93 14.93 0 0 1-4.73.47 6.47 6.47 0 0 1-.84-.07l-.33-.05a8.19 8.19 0 0 1-.83-.13l-.35-.07a14.5 14.5 0 0 1-.84-.21l-.37-.1-.39-.13a15.72 15.72 0 0 1-1.83-.7 19.26 19.26 0 0 1-3.74-2.25l-.3-.24-.3-.23a19.61 19.61 0 0 1-2.59-2.58 16.75 16.75 0 0 1-1.45-2.05c-.05-.1-.11-.18-.17-.27-.25-.45-.46-.89-.64-1.32l-.11-.27c-.11-.27-.2-.54-.29-.8l-.12-.48a9.95 9.95 0 0 1-.1-.57l-.04-.25a43.46 43.46 0 0 1 .11-5.96c.07-.6.14-1.17.23-1.68v-.05l.1-.46.1-.44c1.1-4.66 3.66-5.45 6.92-6.39 1.53-.44 3.22-.92 4.98-1.84 3.73-1.3 5.4-1.97 8.13-2.56.77-.17 1.62-.33 2.63-.5l.73-.12 2.58-.38c1.06-.14 2.12-.28 3.17-.4l.53-.07c2.24-.28 4.49-.56 6.73-.94a43.07 43.07 0 0 0 4.9-1.11 75.06 75.06 0 0 0 5.16-1.65l.58-.2a233.6 233.6 0 0 0 4.73-1.78l.3-.11c1.58-.6 3.14-1.22 4.71-1.81a132.8 132.8 0 0 1 6.1-2.16l.5-.09h.08l.02-.01h.02l1.61-.25 3.95-.55.19-.02 1.51-.2c.09 0 .18-.02.26-.03l.14-.02h.07v-.01h.02l.13-.01c.15-.03.28-.05.43-.06h.06l.25-.04h.04l.97-.13.18-.02h.05l.28-.04.2-.02h.02l.77-.1.19-.02 1.05-.13 1.53-.17.6-.07.57-.07.94-.1a19.35 19.35 0 0 1 9.9 4.7c.07 1.02.02 2.07-.1 3.11Z" fill="#464558"/><path opacity=".29" d="m157.66 98.54-.04.18-.1.43a40.39 40.39 0 0 1-4 10.54c-1.6 3.04-3.5 6.06-5.94 8.52l-.03.04-.68.64-.33.31c-.2.2-.4.36-.6.53l-.07.07-.34.29a11.43 11.43 0 0 1-.62.52 13.58 13.58 0 0 1-.89.67l-.5.37h-.01l-.34.24-.22.15-.12.07c-.23.16-.46.3-.69.44l-.32.2-.68.4-.33.17-.68.36-.34.16c-.1.06-.2.1-.31.15l-.02.01-.34.15-.18.08-.16.07-.32.14h-.01l-.34.14a91.9 91.9 0 0 1-.96.35l-.1.04-.2.06a.82.82 0 0 1-.08.03l-.23.08a.56.56 0 0 1-.1.03l-.21.06-.13.04a5.76 5.76 0 0 1-.67.19 2.08 2.08 0 0 1-.33.09l-.23.06h-.03a.44.44 0 0 1-.07.02 12.63 12.63 0 0 1-1 .22l-.32.07-.64.12h-.01l-.18.03c-.07 0-.14.02-.2.03l-.53.08h-.07v.01l-.38.04-.75.09c-.11 0-.22.02-.32.03l-.17.01-.23.02a36.38 36.38 0 0 1-2.3.12h-.08c-1.53.04-3.02 0-4.45-.06l-3.1-.12a31.48 31.48 0 0 0-5.35.17l-.9.12-.48.06-2.04.22-1.34.13h-.02c-1.56.15-3.12.31-4.68.56l-1.38.25c-1.42.28-2.85.66-4.3 1.2-4.68 1.76-6.34 3.9-11.13 5.18a14.93 14.93 0 0 1-4.4.5l-.33-.02a15.8 15.8 0 0 1-2-.26l-.35-.07a14.6 14.6 0 0 1-1.6-.43 15.25 15.25 0 0 1-1.83-.7 18.8 18.8 0 0 1-1.8-.95l-.34-.2-.34-.2a22.38 22.38 0 0 1-1.27-.9l-.3-.24-.3-.23a19.63 19.63 0 0 1-2.59-2.58 16.88 16.88 0 0 1-1.45-2.05l-.16-.27c-.25-.45-.47-.89-.65-1.32l-.11-.27a8.62 8.62 0 0 1-.51-1.84l-.03-.26a43.45 43.45 0 0 1 .11-5.96c.06-.6.14-1.16.23-1.67v-.05l.1-.47.1-.44c1.1-4.65 3.66-5.45 6.92-6.39 1.53-.44 3.21-.91 4.97-1.83 3.73-1.31 5.4-1.97 8.13-2.56.77-.17 1.63-.33 2.64-.5.23-.05.47-.08.72-.12a206.47 206.47 0 0 1 5.76-.79l.53-.07c2.24-.28 4.49-.56 6.73-.93a43.16 43.16 0 0 0 4.9-1.12 74.33 74.33 0 0 0 5.16-1.65l.58-.2c1.57-.56 3.15-1.16 4.73-1.77 1.67-.64 3.34-1.3 5-1.93 3.56-1.34 8.69-2.12 12.18-2.98l2.08-.23c7.91-1.94 11.87-2.1 18.38 3.59.1 1.55-.06 3.16-.35 4.7Z" fill="#2B2B37"/><path opacity=".25" d="M147.55 118.25v-.01c-11.9 11.94-24.62 7.06-32.86 8.24-3.68.53-7.24.63-10.84 1.34-1.55-1.15-21.4 1.57-22.2 1.87.25-.86 12.56-7.04 12.94-7.87.82-1.8 1.96-3.54 3.22-5.08a20.5 20.5 0 0 1 8.72-6.16c3.91-1.46 14.2-13.95 18.15-13.57 3.7.35 27.56 3.3 29.12 1.01 1.12-1.64 4.14-.9 3.84.7-.75 3.79-9.68 19.12-10.1 19.53Z" fill="#2B2B37"/><path d="M200.25 134.23c-1.8 5.26-2 10.87-2.27 16.39-.43 8.83-1.16 17.64-1.44 26.48-.09 3-.16 6-.1 9.01-.02 3.01.7 5.99-.46 8.86-.22.82-6.44.56-6.97 1.15-1.54 1.51-2.91 2.29-5.97 3.48-12.9 4.34-38.62 4.94-50.8-1.9a11.23 11.23 0 0 1-2.03-1.65c-1.66-.5-3.6-.32-5.32-.57-1.27-18.27.31-37-4.67-54.82-6.24-17.75-1.12-18.55.51-35.2.1-1.56.18-3.14.19-4.7v-.05c0-2.17-.04-4.35-.4-6.48 2.19-.94 5.22-1.86 7.74-2.37 3.8-.72 7.69-1.24 11.57-1.74l2.6-.32c2.57-.32 5.15-.6 7.7-.88h.04c.94-.09 1.67-.18 2.43-.23-.01.03.2 1.23.34 1.73.46 1.7 1.24 3.49 2.52 4.83.17.19.37.38.57.55l.07.05c.7.6 1.56 1.07 2.46 1.34l.53-.3s0-.01 0 0c.25-.15.52-.27.79-.38.63-.27 1.3-.5 1.82-.9a12.32 12.32 0 0 0 4-4.64h.02c.59-1.16.85-1.96.95-2.28.4.03 1.19.15 2.24.34l1.6.31.16.03.3.06c2.39.49 4.74-.64 7.15-.11l.2.14.5.32c1.95.43 4.13 1.02 6.22 1.56.98.26 1.94.5 2.86.72l.18.04a22.25 22.25 0 0 0 3.08 1.8l.2.09a7.18 7.18 0 0 0 .87.3h.02l.3.1a709.14 709.14 0 0 0 1.5.42l.09.02.66.2.84.25c1.2.37 2.34.77 3.25 1.22a41.6 41.6 0 0 0 .3 8.89v.01c1.14 7.04 4.32 8.1 4.55 16.67.4 4.38-2.18 8.13-3.5 12.16Z" fill="#575770"/><path opacity=".25" d="M119.64 133.28a27.57 27.57 0 0 1-2.25-2.94c.15.83.32 1.57.5 2.25.66 2.52 2.21 7.8 2.29 8.03a97.87 97.87 0 0 1 3 16.74c1.95-3.78 4.02-7.62 4.18-11.85.23-5.34-4.54-8.62-7.72-12.23ZM203.73 121.41v.1c.04 1.58-.08 3.22-.4 4.94l-.1.51a70.72 70.72 0 0 0-3 7.24c-1.79 5.26-2 10.87-2.28 16.38-.54 11.3-1.57 22.58-1.55 33.93.02 2.57.12 5.11.31 7.65l-.04.14-.07.06c-1.71 1.14-3.46 2.27-5.22 3.34h-.02l-.53.04-.32.03-.17.02a25.55 25.55 0 0 0-.96.14l-.28.1a.3.3 0 0 0-.1.07c-.42.46-1.51 1.48-3.82 2.58a28.24 28.24 0 0 1-4.68 1.73l-.46.13-.35.1-.74.18-.38.1a56 56 0 0 1-3.14.63l-.15.03-.34.06-1.1.17-1.26.18-1.5.18-.5.05-1.26.13-1.34.1-.64.05-1.75.1-1.83.07-1.27.04-.65.01c-.64 0-1.26-.02-1.88-.04h-.35l-.9.02-.53.01-.43.01c-1.06-.01-2.08-.04-3.06-.08l-.97-.04-.75-.04-1.47-.1h-.02c-.54-.03-1.06-.08-1.58-.12h-.02c-1.03-.1-2.01-.2-2.94-.31h-.02a59.83 59.83 0 0 1-2.9-.43l-.67-.12-.65-.12-.63-.13-.6-.13a68.85 68.85 0 0 1-2.09-.5l-.54-.15-.09-.03-.62-.18a23.66 23.66 0 0 1-6-2.62l-.54-.36-.43-.33a1.91 1.91 0 0 0-.1-.08l-.23-.2a6.36 6.36 0 0 1-.36-.33l-.17-.18-.03-.03-.02-.02a5.7 5.7 0 0 1-.87-.25l-.95-.1-.23-.01a47.85 47.85 0 0 0-1.74-.12l-.76-.06-.47-.04-.34-.04h-.02c-.14-2.8-.33-5.6-.43-8.38l-.12-4.43-.07-2.6h.02c42.78-1.08 65.67-40.1 69.61-73.22.49-4.08.69-8.08.6-11.9.62.18 1.16.35 1.62.5 1.97.64 2.6.97 2.75 1.05l-.02 1.36v1.28a50.49 50.49 0 0 0 .02 1.06c.1 3.08.44 7.1 1.53 9.95l.07.18.07.17c.11.27.24.54.36.78l.07.13.07.12.17.3.16.31a11.75 11.75 0 0 1 .53 1.14l.1.26.1.26.2.47.1.3c.2.49.36 1 .52 1.5l.01.07.03.07.1.38.04.16.05.22.06.23v.03l.07.3.05.22a25.07 25.07 0 0 1 .35 2.49c0 .04 0 .09.02.14l.03.5v.05l.01.33.01.18v-.02Z" fill="#2B2B37"/><path opacity=".25" d="M203.73 121.41v.2c.03 1.55-.1 3.16-.42 4.84l-.1.5a69.71 69.71 0 0 0-3 7.25c-1.8 5.26-2 10.87-2.28 16.38-.54 11.3-1.57 22.58-1.55 33.93.02 2.57.12 5.11.31 7.65l-.04.14c-.02.02-.06.03-.08.06-1.7 1.14-3.45 2.27-5.22 3.34l-.52.04-.32.03-.17.02a9.7 9.7 0 0 0-.96.14l-.09.02a.72.72 0 0 0-.2.07.34.34 0 0 0-.12.08c-.4.44-1.42 1.4-3.54 2.45-.47.23-.99.47-1.57.7l-.48.2a32.31 32.31 0 0 1-3.34 1.08 45.86 45.86 0 0 1-4.61 1.02l-.15.02-.34.06-1.1.18-1.26.17c-.49.07-.99.13-1.5.18l-.5.06-1.26.12-1.34.1-.65.05c-.56.04-1.14.08-1.74.1l-1.83.08a101.16 101.16 0 0 1-1.94.05c-.64 0-1.25-.02-1.86-.04h-.35l-.9.02h-.54c-.15.02-.3.02-.44.02a95.73 95.73 0 0 1-3.04-.08l-.97-.04-.76-.04-1.46-.1h-.02l-1.58-.12h-.02c-1.03-.1-2.02-.2-2.95-.32h-.02a60.2 60.2 0 0 1-2.03-.28l-.86-.15-.68-.12-.65-.12-.62-.13c-.21-.03-.41-.08-.61-.12l-1.16-.27-.04-.01-.88-.23-.54-.15a27.74 27.74 0 0 1-5.4-2.05l-.3-.16c-.2-.1-.38-.21-.56-.32l-.25-.15a9.27 9.27 0 0 1-2.19-1.72l-.04-.02c-.11-.06-.28-.1-.5-.14l-.23-.03c-.27-.04-.6-.07-.95-.1l-.23-.03a56.23 56.23 0 0 0-1.74-.11l-.76-.06-.47-.05c-.12 0-.23-.02-.34-.03h-.04c-.13-2.8-.33-5.6-.43-8.39-.05-1.47-.1-2.95-.13-4.43h.05c59.24 2.19 73.58-40.94 72.62-75.79-.1-3.94-.4-7.77-.86-11.42 1.97.63 2.6.96 2.75 1.04l.02.01-.04 1.35v1.51l.01.64.02.68v.18c.1 2.58.4 5.74 1.17 8.3l.07.2.24.71c.06.14.1.28.17.4a6.95 6.95 0 0 0 .38.8c.01.05.04.1.06.13l.06.12c.07.1.12.21.18.31l.16.3a11.2 11.2 0 0 1 .53 1.14l.1.27.1.26.2.46.1.3c.2.5.36 1 .52 1.51l.02.07c0 .02 0 .04.02.06v.02l.1.36.04.16.06.23.05.22.07.33.05.23a28.88 28.88 0 0 1 .35 2.48c0 .05 0 .1.02.14l.03.51v.25l.02.3h.01Z" fill="#2B2B37"/><path opacity=".25" d="M198.15 147.06c-.5.86-1.03 1.7-1.53 2.54-2.47 4.1-4.93 8.45-5.13 13.36-.17 4.52 1.2 9 .06 13.47-1.78 6.84-7.93 11.42-13.58 15.07-2.91 1.88-5.92 3.63-8.81 5.53a98.1 98.1 0 0 1-9.65 5.65h.45c.62.02 1.24.04 1.88.04 20.34-.35 26.06-5.42 27.15-6.62.2-.21 1.2-.31 2.39-.4a130.9 130.9 0 0 0 5.22-3.35l.07-.05c.03-.04.03-.1.04-.14-.2-2.54-.29-5.08-.3-7.65-.03-11.35 1-22.62 1.55-33.94l.2-3.5Z" fill="#2B2B37"/><path d="M162.73 112.58c-.62-.76-1.5-1.38-2.25-2.02l-2.73-2.27c-1.8-1.5-3.6-3.03-5.28-4.66-2.54-2.46-4.93-5.22-6.48-8.4-1.15.3-2.35.68-3.59 1.13 1.96 3.84 4.17 7.56 6.56 11.13 1.14 1.71 2.3 3.4 3.6 5a19.67 19.67 0 0 0 4.35 4.15c.7.44 1.48.77 2.25.9l.16-.63c.04-.16.27-.1.23.05l-.14.6c.92.12 1.87 0 2.74-.46 1.8-.95 1.76-3.08.58-4.52Z" fill="#575770"/><path opacity=".25" d="M180.08 92.48c-.77 1.49-3.04 7.21-4 8.61-1.16 1.75-2.48 3.34-3.7 5.03-1.07 1.47-2.1 2.97-3.24 4.4a21.6 21.6 0 0 1-3.94 4.04c-.44.33-.93.62-1.43.85-.31 1.32-1.58 2.12-2.92 2.35-.52.1-1.03.1-1.53.04-1.59 6.58-5.04 12.55-8.77 18.14-3.47 5.22-7.3 10.23-10.8 15.43-3.54 5.22-6.49 10.75-8.35 16.78a113.2 113.2 0 0 0-2.46 10.17c-.78 3.65-1.48 7.3-2.18 10.95-.4 2.1-.78 4.17-1 6.28 1.88.16 4.14.22 4.46.55.29.33.9.93 2.03 1.63.04-2.2.3-4.37.74-6.52 7.74-36.74 57.42-94.72 47.1-98.74Z" fill="#2B2B37"/><path opacity=".25" d="M199.43 106.85c-18.49-1.62-40.19 5.19-55-6.46a29.5 29.5 0 0 1-3.64-3.41c1.2-.5 2.53-.98 3.9-1.38 1.89-.57 3.84-.99 5.59-1.1.17-.04 3.17.75 5.82 1.35 1.63.37 3.13.67 3.78.66 3.6-.95 7.78-3.72 10.63-7.17l.16.03.3.06c2.39.49 4.88 1.03 7.28 1.56l-.13-1.67.21.05a1 1 0 0 1 0 .1l.48.31c1.96.43 4.14 1.02 6.23 1.56.98.26 1.94.5 2.86.72.47.31 1.5.96 2.53 1.49l.25.13.48.23.2.08a7.14 7.14 0 0 0 .87.3h.02l.3.1.93.26.56.16.1.02.66.2.84.25c1.13.35 2.22.74 3.25 1.22-.1 2.69-.07 6.03.3 8.89v.01c.07.5.15.99.24 1.45ZM196.4 184.53v-.06c-15.52 3.65-48.05 6.3-72.03.9l.06 1.68c.1 2.8.29 5.6.42 8.39 1.94.23 5.05.23 5.4.64 1.09 1.22 6.87 6.32 27.47 6.61l1-.01.89-.03h.33c.62.03 1.24.04 1.88.04 20.34-.34 26.06-5.41 27.15-6.61.2-.22 1.2-.31 2.38-.41 1.77-1.07 3.52-2.2 5.22-3.34l.08-.06c.02-.04.02-.1.04-.13-.18-2.5-.3-5.07-.3-7.61h.01Z" fill="#2B2B37"/><path opacity=".25" d="M157.4 119.74c-20.69 10.05-30.74 47.58-33.09 63.05.04 1.43.08 2.85.14 4.28.06 1.56.14 3.13.23 4.68.6 1.07 1.48 1.86 2.68 1.88 1.69.02 2.9-1.59 3.7-3.08 5.53-10.07 6.68-21.93 10.87-32.6 2.2-5.6 5.2-10.83 8.44-15.88 2.22-3.45 5.13-6.62 6.21-10.63.4-1.57 4.55-13.5.82-11.7ZM145.99 98.4s.93 4.8 4.81 9.5c3.88 4.7 8.5 9 8.5 9l5.9-2.32s-5.6-3.26-10.42-7.73c-4.8-4.46-8.8-8.46-8.8-8.46Z" fill="#2B2B37"/><path d="M158.21 124.45c.7-.73 1.46-1.43 2.18-2.13 1.74-1.7 3.45-3.47 5.1-5.3-15.12-9.4-16.55-13.39-25.8-28.14-.12-.17.9 20.13 18.53 35.57Z" fill="#2B2B37"/><path d="M159.36 112.99a15.8 15.8 0 0 1-1.19 2.58 21.11 21.11 0 0 1-3.91 5.04c1.22 1.3 2.54 2.6 3.97 3.85.7-.74 1.46-1.44 2.18-2.14 1.74-1.7 3.45-3.47 5.1-5.3a107.91 107.91 0 0 1-6.15-4.03Z" fill="#21212B"/><path d="M178.92 90.92c-2.21 8.35-50.86 52-54.53 94.3l.06 1.83c.1 2.94.3 5.88.44 8.83h5.5c-.06-3.31.52-6.65 1.7-9.76 4.91-12.8 23.7-47.93 29.36-55.79 19.06-26.43 20.5-39.41 17.47-39.41Z" fill="#2B2B37"/><path d="M132.32 185.44c-.65.1-1.31.14-1.95.1-2.04-.1-3.98-.66-5.9-1.24l-.1.99.06 1.76c.1 2.93.3 5.88.44 8.83h5.5a26.2 26.2 0 0 1 1.7-9.76c.08-.21.18-.44.25-.68Z" fill="#21212B"/><path d="M196.42 185.99c-24.49 6.52-45.8 7.08-72.01.27l.02.81c.12 3.09.33 6.17.46 9.28 17.92 10.52 55.7 10.17 72.07-1.32-.3-3.01-.5-6.02-.54-9.04Z" fill="#2B2B37"/><path opacity=".46" d="M196.42 185.99c-11.45 3.04-22.22 4.79-33.1 5.1.05.1.11.2.2.3.82.9 2.12 1.24 2.9 2.2.68.86.27 1.77-.64 2.24-.68.32-2.7 1.03-1.77 2.05.5.57 1.2.96 1.23 1.79.03 1.22-1.13 2.02-2.08 2.52-1.3.7-2.78 1.3-4.17 1.75 14.57.14 29.3-2.81 37.97-8.9-.3-3.02-.5-6.02-.54-9.05Z" fill="#21212B"/><path d="M183.05 189.58c.4.83.23 1.79-.2 2.58-.2.4-.53.76-.73 1.18-.43.9.06 1.44.58 2.18.58.81.86 1.6.43 2.56-.21.5-.62.9-.93 1.32-.53.7-.58 1.34-.68 2.11 6.03-1.47 11.39-3.63 15.44-6.48-.3-3-.48-6.01-.54-9.04a165.44 165.44 0 0 1-13.7 3.06c.12.16.23.33.33.53Z" fill="#21212B"/><path d="M154.56 124.59A72 72 0 0 0 142.51 143c-.23.51-.44 1.03-.42 1.58.02.54.4 1.12.95 1.18.37.04.72-.14 1.03-.35 2.4-1.53 3.86-4.15 5.06-6.73.8-1.71 1.52-3.44 2.49-5.05.97-1.61 2.35-2.77 3.45-4.27.74-.99.94-1.84 1.09-3.05.17-1.22.08-3.59-1.6-1.72Z" fill="#2B2B37"/><path opacity=".25" d="M138.6 151.37c-.3.66-.4 1.69.3 1.84.4.08.76-.21 1.05-.48l1.86-1.77c-.07.7-.17 1.38-.25 2.08.5.15 1.01-.23 1.38-.6 4.85-4.78 7.65-11.22 11.86-16.58 1.14-1.45 2.42-2.89 2.89-4.68.17-.7.17-1.55-.39-2.01-.81-.66-2.02.06-2.77.81-.96.96-1.98 2.04-2.6 3.24-.37.74-.57 1.94-1.71 1.48.13-1.9-2.93 1.43-3.23 1.82-.89 1.23-1.63 2.52-2.46 3.78a76.82 76.82 0 0 0-5.94 11.07ZM147.75 108.77c1.42 2 2.16-.4 1.58-1.8a8.66 8.66 0 0 0-2.35-3.3c-.72-.6-1.4-.91-1.67.17-.43 1.65 1.59 3.73 2.44 4.93ZM170.98 105.65c1.09-1.32-.68-1.38-1.5-.72a5.9 5.9 0 0 0-1.76 2.2c-.27.6-.35 1.1.43 1.08 1.16-.02 2.19-1.77 2.83-2.56ZM162.54 112.2c-2.15 2.63-4.4 5.42-6.7 8.37.18.4.59.59 1.4.49 2.64-.33 4.49-4.47 5.73-6.4 1.06-1.65.54-2.37-.43-2.45ZM140.34 194.06a3.85 3.85 0 0 0-2.29-1.3c-.87-.2-1.78-.2-2.68-.33-1.34-.2-2.54-.86-3.7-1.5-.76-.38-2.49-1.7-3.3-1-.23.21-.39.5-.54.77-.08.16-.18.35-.12.53.04.2.23.33.4.42 1.17.68 1.5.88 2.2 2.06.74 1.28 2.23 1.92 3.63 2.37 1.1.35 2.23.64 3.36.89 1.06.23 2.35.39 3.08-.43.59-.66.49-1.76-.04-2.48ZM160.87 191.13a126 126 0 0 1-16.09-.93c.66.27 1.15.62 1.92 1.42 1.4 1.4 3.51 1.72 5.48 1.84 1.53.1 3.08.1 4.63.04 1.46-.04 3.17-.3 3.83-1.6.13-.25.21-.5.23-.77Z" fill="#464557"/><path opacity=".34" d="M186.31 100.68c-1.61 1.8-4.43.9-6.54 1.57-2.68.98-1.84-.67-3.92-.38-2.13.24-4.33.3-6.07 1.65-3.04.5-6.29.87-9.32.06-1.74-.49-3.4-1.38-5.2-1.62-2.35-.16-4.9.2-7.18-.03-1.23-1 .29-.7-3.65-1.54l-.53-.11a3.29 3.29 0 0 0-1.87-.06c-1.93.15-1.8-3.05-2.82-4.2-.46-.67-2.52-2.83-.77-3.18 1.18-.23 3.28 1.3 4.27 1.77.65.36 1.31.69 1.98.99 8.27 3.7 17.46 2.7 25.96-.35l6.36-1.9c.25-.07.46-1.2.64-2.2 1.38.27.63-.04.43-.2l.17.04.08-1.53.48.32c1.96.43 4.14 1.02 6.23 1.56-.24 1.53-1.37 3.4-.73 4.38 1.38 1.23 3.38 3 2 4.96Z" fill="#21212B"/><path d="M141.12 78.23s-2.18 1.9-2.6 3.7c-.43 1.81 1.97 4.6 1.97 4.6l3.26-1.84-2.64-6.46Z" fill="#75A152"/><path d="M179.15 78.83s2.16 3.07 1.38 7c-.8 3.95-4.27 4.9-4.27 4.9l-1.18-1.67 4.07-10.23Z" fill="#568040"/><path opacity=".25" d="m141.23 89.95-.44 7.03s-22.08 13.55-23.4 33.3c0-.09-.02-.17-.03-.26l-.08-.54-.04-.29-.06-.58-.01-.18-.02-.23a14.86 14.86 0 0 1-.03-.9v-1.02a26.28 26.28 0 0 1 .4-3.75l.06-.29.01-.1.02-.08c0-.06.02-.11.03-.17l.03-.18.03-.16.01-.04.11-.54.08-.37.28-1.3c.32-1.47.68-2.93 1.02-4.4l.3-1.24a141 141 0 0 0 .64-3.14l.04-.24a37.1 37.1 0 0 0 .47-3.81l.03-.33.03-.4.02-.27.03-.54.06-.89.03-.63v-.03l.02-.7.02-.36.01-.68v-.18l.01-.53v-.37a40.26 40.26 0 0 0 0-1.59v-.06l-.02-.72v-.07l-.03-.42c-.02-.52-.05-1.02-.1-1.5l-.02-.36-.04-.32V95.38l-.01-.03-.02-.12a5.28 5.28 0 0 0-.07-.53l-.03-.24-.04-.23a1.87 1.87 0 0 1 .27-.12c.34-.15.92-.39 1.91-.72l.39-.12.54-.18.77-.23.62-.19 1.42-.4.14-.04.13-.04c.4-.1.89-.2 1.44-.32l.1-.01h.03c.38-.09.79-.16 1.22-.24l1.66-.28.31-.05.5-.08h.08l.02-.01h.02l1.61-.25 3.95-.55.19-.02 1.51-.2c.09 0 .18-.02.26-.03l.14-.02h.07v-.01h.02l.13-.01c.15-.03.28-.05.43-.06h.06l.25-.04h.04c.16-.03.31-.05.47-.06Z" fill="#2B2B37"/><path d="M171.23 92.17c.04 3.84-5.18 7.01-11.65 7.1-6.46.08-11.75-2.96-11.77-6.8-.02-3.85 5.18-7.02 11.65-7.1 6.44-.09 11.73 2.95 11.77 6.8Z" fill="#21212B"/><path d="M139.74 63.99a60.89 60.89 0 0 0-.15 8.64c.6 6.68 3.83 12.75 7.84 17.74a70.67 70.67 0 0 1-1.84-11.56c-.16-2.33-.23-4.7.09-7 .47-3.4 1.76-6.62 2.32-10 .3-1.75.4-3.53.51-5.3.1-1.82.22-3.64.34-5.46.13-2.18-.95-4.05-2.66-2.13a24.01 24.01 0 0 0-3.13 4.48 27.86 27.86 0 0 0-3.32 10.59ZM177.6 63.52c.14 1.12.2 2.25.27 3.39.08 1.75.15 3.5.04 5.26-.47 6.7-3.57 12.85-7.48 17.92.84-3.8 1.4-7.7 1.6-11.63.13-2.32.15-4.69-.21-7-.53-3.38-1.88-6.55-2.52-9.93a43.4 43.4 0 0 1-.6-5.28l-.45-5.46c-.17-2.18.86-4.08 2.62-2.2a23.7 23.7 0 0 1 3.21 4.4 28.24 28.24 0 0 1 3.51 10.53Z" fill="#2B2B37"/><path d="M179.84 61.22c-.16-.8-.53-1.58-1.15-1.98-.88-.6-1.65-.57-2.28-.13-1.75-11.41-8.96-19.93-17.52-19.82-8.56.1-15.6 8.8-17.12 20.27-.65-.43-1.42-.43-2.28.19-.61.42-.97 1.22-1.12 2.02-.12.8-.04 1.63.04 2.44.36 2.93.93 5.85 1.73 8.68a6 6 0 0 0 .58 1.5 2.55 2.55 0 0 0 2.38 1.23c.09-.02.17-.02.26-.05 2.96 8.27 9.04 13.9 16 13.8 6.95-.08 12.94-5.87 15.72-14.2.09.02.17.05.26.05.9.08 1.86-.43 2.37-1.3.27-.46.42-.99.54-1.5a57.49 57.49 0 0 0 1.57-8.72c.09-.85.15-1.67.02-2.48h-.01Z" fill="#D58500"/><path d="M169.82 48.65c1.24.4 2.49.84 3.71 1.33-3.25-6.54-8.62-10.76-14.66-10.7-8.57.1-15.6 8.81-17.13 20.27-.65-.42-1.41-.42-2.28.2-.6.41-.97 1.22-1.12 2.02-.13.8-.04 1.63.05 2.43.21 1.8.5 3.57.88 5.33a19.27 19.27 0 0 1 3.36-1.52c.78-15.54 9.98-25.05 27.18-19.37ZM158.15 64.58s8.05-.78 14.07.83c6 1.6 6.68 1.83 6.68 1.83l-1.37 4.25-19.38-6.9Z" fill="#B45F00"/><path opacity=".36" d="M179.84 61.22c-.16-.8-.53-1.58-1.15-1.98-.88-.6-1.65-.57-2.28-.13a32.01 32.01 0 0 0-1.65-6.4l-.1-.26c-.22-.57-.45-1.12-.7-1.67l-.13-.3a2.32 2.32 0 0 0-.21-.4l-.17-.31a3.17 3.17 0 0 0-.21-.38c-.07-.1-.11-.22-.17-.32-.07-.12-.16-.25-.22-.38l-.19-.31c-.06-.13-.15-.23-.21-.36l-.2-.32-.2-.34c-.07-.1-.16-.2-.22-.31-.06-.1-.15-.21-.21-.32l-.24-.31-.21-.3a2.17 2.17 0 0 0-.28-.34l-.19-.25a13.7 13.7 0 0 0-.46-.55l-.13-.14a8.07 8.07 0 0 0-.38-.4l-.2-.2-.31-.34c-.07-.06-.15-.12-.21-.21l-.32-.3c-.06-.06-.15-.12-.21-.19-.1-.1-.22-.19-.32-.27-.09-.06-.15-.13-.23-.2l-.34-.27c-.06-.06-.15-.1-.22-.17-.13-.08-.23-.17-.35-.25l-.22-.15-.38-.25-.19-.13c-.15-.08-.3-.19-.46-.27-.05-.02-.09-.06-.13-.09-.4-.23-.82-.44-1.23-.63l-.08-.04c-.17-.09-.36-.15-.53-.22l-.17-.06c-.15-.06-.32-.1-.47-.17l-.2-.06-.45-.13-.21-.06c-.16-.05-.3-.07-.45-.1-.04 0-.09-.03-.1-.03h.01c-.92-.19-1.85-.3-2.83-.3-8.56.11-15.6 8.82-17.12 20.27-.66-.42-1.41-.42-2.28.2-.61.41-.97 1.22-1.12 2.02-.13.8-.04 1.63.04 2.43.22 1.8.5 3.58.89 5.33.4-.25.82-.47 1.22-.66a25.9 25.9 0 0 1 5.39-1.78v-.18c-1.07-34.01 45.98-12.36 18.25 11.9-1.9 1.67-2.46.38-4.72 1.3-2.73 1.15-5.69 2.19-8.62 2.29-1.42.04-2.81-.17-4.21-.49 3.26 4.67 7.8 7.55 12.79 7.48 6.95-.08 12.93-5.87 15.72-14.2.09.02.17.04.25.04.91.09 1.86-.42 2.37-1.29.28-.46.42-1 .55-1.5a58.1 58.1 0 0 0 1.56-8.73c-.04-.93.03-1.75-.1-2.55l.03-.01h.02Z" fill="#B45F00"/><path d="M179.84 61.22c-.16-.8-.53-1.58-1.15-1.98-.88-.6-.31-1.84-.97-1.42-.38-2.4-1.75-4.46-3.42-6.17l-2.26-.49c4.9 6.03 5.75 15.63 1.48 21.67-1.46 2.05-1.84 1.05-4.02 1.92-.78.31-1.6.5-2.43.7-.36.38-.72.71-1.13 1.05-1.92 1.63-4.26 2.64-6.53 3.58-2.72 1.14-5.68 2.17-8.62 2.28a16.7 16.7 0 0 1-4.2-.49c3.25 4.68 7.8 7.55 12.78 7.48 6.95-.08 12.94-5.87 15.72-14.2.09.02.17.05.26.05.9.08 1.86-.43 2.36-1.3.28-.46.43-.99.55-1.5a57.99 57.99 0 0 0 1.57-8.73c.06-.82.13-1.65 0-2.45Z" fill="#B45F00"/><path opacity=".36" d="M165.38 64.6c-1.02-.72 4.95-8.58-.68-8.03l-.75.36c-.35-.13-.72.1-.88.44-2.02 4.49-2.13 6.44-2.13 10.63 0 .34 1.54.4 1.67.72.1.3.27.55.44.78.5.61 1.16 1.12 1.88 1.16.74.05 1.53-.44 1.74-1.24.06-.3.06-.6.04-.9a13.82 13.82 0 0 0-1.34-3.92Z" fill="#B45F00"/><g opacity=".36" fill="#E2A040"><path opacity=".36" d="M154.5 51.37c0 .22.06.42.16.61.28.53.76.9 1.27 1.12.13.07.28.11.42.09 1.34-.17-.31-1.99-.78-2.22-.42-.21-1.06-.34-1.08.4ZM148.63 59.3c.16-.3.72-.32.96-.25.27.06.6.08.67.46.04.38-.3.6-.6.6-.22 0-.83-.11-.96-.37-.1-.19-.13-.34-.06-.44ZM171.55 63.67c.25.03.5-.15.66-.35.06-.11.12-.22.12-.34a.45.45 0 0 0-.04-.17c-.16-.45-.82-.53-1.14-.26-.44.34-.06 1.1.4 1.13Z"/></g><path opacity=".36" d="M157.79 59.38c-1.25-4.03-8.22-4.27-11.98-4.05-.17 0-.34.02-.47.12-.04.03-.06.07-.08.11-.05.15-.34 5.82-.23 5.88 7.67 3.34 9.64-1 9.64 0 0 1.61-1.43 1.18-15.23 6.42l2.1 7.04c2.23-.89 4.45-1.82 6.65-2.81 8.14-3.66 12-4.84 9.6-12.7Z" fill="#B45F00"/><path opacity=".36" d="M154.4 61.84c-.78-2.48-5.2-2.14-3.46-2.86a3.19 3.19 0 0 1 3.47 2.86Z" fill="#B45F00"/><path d="M146.93 84.9c-.15-.11-2.73-.79-2.73-.62 0 .17 2.03 5.84 2.18 6.07.15.23 3.95 3.23 3.95 3.23s2.43-2.18 2.43-2.34c0-.17-.3-1.95-.3-1.95l-5.53-4.4Z" fill="#21212B"/><path d="M177.32 81.24c1.25-3.17 2.11-13.15 2.11-13.15-20.54-5.2-20.16-5.2-40.58.51 0 0 .32 2.9.8 6.05.4.78.9 1.56 1.25 2.3.7 1.4 1.42 2.75 2.1 4.15a43.1 43.1 0 0 0 1.9 3.59l.2.25c2.04 2.47 4.97 4.01 7.66 5.39.93.46 1.85.82 2.79 1.06 2.91.04 5.96-.03 8.85-.15a29.21 29.21 0 0 0 8.81-2.83c1.12-.62 2.1 1.1 1.25 1.86 1.42-.26 2.62-.53 3.49-.87l-.04-3.47c-.89-1.18-1.44-2.51-.6-4.69h.01Z" fill="#464558"/><path d="M177.32 81.24c1.25-3.17 2.11-13.15 2.11-13.15-9.61-2.43-14.64-3.74-19.36-3.85a44 44 0 0 0-14.39 2.45c-1.2.34-5.46 1.53-6.85 1.9 0 0 .32 2.9.8 6.05.4.78.9 1.56 1.25 2.3.7 1.4 1.42 2.75 2.1 4.15a43.1 43.1 0 0 0 1.9 3.6l.2.24c2.04 2.48 4.97 4.02 7.66 5.4.93.46 1.86.82 2.79 1.05 2.92.05 5.96-.02 8.85-.15a29.2 29.2 0 0 0 8.82-2.83c1.12-.61 2.1 1.1 1.25 1.86 1.41-.26 2.62-.53 3.48-.87l-.04-3.47c-.86-1.18-1.42-2.51-.57-4.69Z" fill="#323147"/><path d="M140.92 76.95c.7 1.4 1.42 2.75 2.1 4.14a43.1 43.1 0 0 0 1.9 3.6c.06.08.15.16.21.25 2.03 2.47 4.97 4.01 7.65 5.39.94.46 1.86.82 2.8 1.05 1.26.02 2.53.02 3.82 0-.1-.04 3.17-1.83 3.07-1.88-2.75-1.14-12.24 1.88-17.59-13.67a40.85 40.85 0 0 1-1.9-8.37c-1.56.44-3.32.93-4.12 1.14 0 0 .31 2.9.8 6.04.42.8.91 1.56 1.27 2.3Z" fill="#2B2B37"/><path d="M160.18 91.36a7.82 7.82 0 0 0 1.38-3.2 9.63 9.63 0 0 0-.18-3.65c-.23-1.1-.59-2.18-.68-3.3-.08-.99.17-1.94.56-2.87.38-.9.86-1.75 1.11-2.7.2-.74.3-1.52.23-2.28a3.31 3.31 0 0 0-.82-2.2c-.49-.5-1.54-.95-2.2-.48-.55.38-.61 1.26-.67 1.88-.09.82-.24 1.6-.6 2.36-.4.9-.99 1.67-1.52 2.48a9 9 0 0 0-1.37 3.02c-.49 2.16.13 4.2 1.23 6.05.84 1.39 1.81 2.8 2.21 4.41.05.17.07.32.11.49.42.02.82.02 1.2 0v-.01Z" fill="#2B2B37"/><path d="M177.32 81.24c1.25-3.17 2.11-13.15 2.11-13.15.03-.28-8.9-2.22-9.87-2.43-2.28-.5-4.8-1.19-7.14-1.27.02 1.99-.58 4.82 1.33 6.24.38.27.82.46 1.2.72 2.2 1.46 1.9 4.71.24 5.77-.68.42-1.78.65-1.02 1.77.4.58 1.02 1 1.53 1.44.42.36.92.78 1.07 1.35.1.45.03.9-.19 1.27 1.44 3.44-6.7 8.33-18.3 4.78a41.8 41.8 0 0 0 4.5 2.57c.93.47 1.86.83 2.8 1.06 2.9.04 5.95-.02 8.84-.15a29.22 29.22 0 0 0 8.82-2.83c1.12-.62 2.1 1.1 1.25 1.86a19.7 19.7 0 0 0 3.48-.87l-.04-3.47c-.9-1.16-1.46-2.5-.6-4.67h-.01Z" fill="#2B2B37"/><path d="M177.32 81.24c1.25-3.17 2.11-13.15 2.11-13.15.03-.34-4.1-1.14-4.44-1.2-.57-.13-1.14-.28-1.73-.4-.22-.05-.6-.22-.8-.2-.3.05-.32.3-.47.55-.64 1.14-1.16 1.99-1.1 3.39v.14c.09 1.3.53 2.52.83 3.77.19.78.34 1.58.25 2.36-.28 2.54-2.65 4.25-3.62 6.6-.3.72-.44 1.5-.84 2.18-.76 1.27-2.24 1.88-3.21 2.98-.49.55-.85 1.22-1.44 1.65-.68.48-1.54.57-2.37.53-.65-.02-1.4-.23-2.03-.13-.23.04-4.1 1-8.9-1.71 2.86 5.64 10.81 4.05 13.67 3.59 3.42-.58 6.88-2.11 10-3.83 1.19-.65 2.22 1.36 1.04 2.01-.02.02-.07.02-.09.05a33.1 33.1 0 0 0 3.79-1.04l-.04-3.46c-.9-1.17-1.46-2.5-.61-4.68Z" fill="#21212B"/><path d="M172.03 82.48a32.8 32.8 0 0 1-2.66 5.84 24.76 24.76 0 0 1-3.66 4.67c-.65.66-1.4 1.18-1.96 1.94-.3.38-.57.79-.87 1.12l.03 1.27c4.27-.08 8.54-.4 12.78-.95.57-1.1 1.2-2.18 1.7-3.32a24.82 24.82 0 0 0 1.35-3.85l.06-.23c-2.32-7.36 12.4-38.64-5.67-53.14-10.1-8.1-17.82-7.31-26.86-.42-19.36 14.75-3.83 46.77-6.2 54.13-.08.27-.2.55-.33.8a28.54 28.54 0 0 0 1.71 3.74c.49.9.95 1.8 1.46 2.67l.09.15c4.3 1.01 10.82 3.59 14.3 3.65 1.7.02 2.18-.36 1.61-2.56l-.88.03-.03-1.4-.25-.25a7.13 7.13 0 0 0-2.11-1.54c-6.3-3.07-9.45-10.83-11.58-17.17-2.9-8.6-2.75-20.04 1.43-24.98a17.83 17.83 0 0 1 27.18-.3c4.95 5.63 7.02 15.12.05 28.22l-.68 1.88Z" fill="#464558"/><path d="M140.27 86.38a9.08 9.08 0 0 1-.2 3.17c-.1.27-.22.54-.35.8a28.54 28.54 0 0 0 1.72 3.74c.48.89.95 1.8 1.46 2.66l.08.16c4.3 1 10.82 3.59 14.31 3.65 1.25.02 1.84-.19 1.84-1.2-11.18-6.24-16.76-4.88-18.85-12.98h-.01Z" fill="#323147"/><path opacity=".32" d="M176.73 93.75c.53-1.1 1.03-2.22 1.48-3.36.21-.53.34-1.1.5-1.65-1.66-6.53 8.27-29.59.56-45.23.25 2.7.04 5.4-.78 7.99a25.97 25.97 0 0 1-2.75 5.83c2.32 5.64 2.17 13.44-3.05 23.27l-.67 1.88a33.01 33.01 0 0 1-2.66 5.83 24.8 24.8 0 0 1-3.66 4.67c-.66.66-1.4 1.19-1.96 1.95-.47.63-.92 1.3-1.55 1.73v.66c4.44-.07 8.88-.36 13.28-.95.44-.87.84-1.73 1.27-2.62h-.01ZM171.38 48.33a6.13 6.13 0 0 0-2.24-4.02 5.83 5.83 0 0 0-3.42-1.18c-2.52-.13-4.97.7-7.46.88-1.42.11-2.8-.2-4.2-.33a5.25 5.25 0 0 0-4.47 1.5c-1.2 1.2-2.1 2.74-3.13 4.12-1.01 1.33-2.24 2.4-3.36 3.61a16.8 16.8 0 0 0-2.75 3.74c-.35.72-.65 1.48-.86 2.28-.23.91-.36 1.86-.57 2.77-.45 1.9-1.1 3.75-1.38 5.67-.12.93-.12 1.84-.12 2.77.75 4.8 1.77 9.21 2.36 12.74.3.55.62 1.08.93 1.6.86 1.44 1.82 2.86 2.32 4.51.49 1.52.55 3.26.07 4.78a7.06 7.06 0 0 1-.95 1.92h.53l.02 1.14c4.04.9 9.21 3.63 13 3.68 1.18.02 2.43-.17 3.13-1.06.17-.21.23-.8.1-1.37l-.99.02-.02-1.5c-.06-.06-.13-.15-.21-.21a7.12 7.12 0 0 0-2.12-1.55c-6.3-3.06-11.98-10.12-14.12-16.46-2.89-8.6-.2-20.74 3.98-25.68a17.8 17.8 0 0 1 25.5-1.95c.37-.76.52-1.58.43-2.43Z" fill="#323147"/><path d="M141.43 59.57c-.25.9-.23 1.8-.28 2.7l-.02.5c.53-2.44 1.3-4.72 2.2-6.62-.74 1.1-1.54 2.13-1.9 3.42Z" fill="#464558"/><path d="M177.26 93.81c.53-1.35 1.12-2.68 1.54-4.08l.13-.4-.1-.27c-1.23-3.57 1.81-13.1 3-23.61-.92 4.82-5.1 18.51-5.19 18.7-.38.98-.84 1.97-1.43 2.8-.53.76-1.25 1.2-1.97 1.7-.47.32-.9.68-1.18 1.21-.2.36-.28.76-.36 1.16-.17.8-.34 1.61-.83 2.25-.47.59-1.1.95-1.73 1.26-.89.44-1.78.84-2.73 1.08-1.14.27-2.26.3-3.4.3-.3.33-.6.65-1 .86-.31.2-3 2.52-3.3 2.7 5.09 0 12.1-2.13 17.53-3.16.34-.78.68-1.65 1.02-2.5Z" fill="#323147"/><path d="M145.49 52.66a17.87 17.87 0 0 1 21.13-4.82 13.3 13.3 0 0 1-1.64-1.22c-.36-.34-.62-.4-1.08-.49a1.83 1.83 0 0 1-.57-.19c-.64-.31-1.25-.67-1.93-.88-.3-.09-.59-.17-.9-.24-.05 0-.1 0-.13-.02-.9-.08-1.78-.23-2.67-.25-.9-.04-1.8.21-2.7.23-1 .05-1.84.05-2.69.68-.68.5-1.3 1.05-1.99 1.5-1.45.93-2.95 1.75-4.1 3.2a9.1 9.1 0 0 0-1.3 2.29c-.08.2-.77 1.9-1.3 2.52-10.4 11.7-2.16 44.45 15.58 43.9.15-1.04-1.1-2.16-1.38-2.48a8.18 8.18 0 0 0-2.32-1.69c-6.26-3.08-9.5-10.63-11.63-16.93-2.51-7.44-3.2-17.02 0-22.8.5-.67 1.3-1.91 1.61-2.31Z" fill="#323147"/><path d="M137.37 56.44a31.53 31.53 0 0 0 6.79-6.02c2.09-2.6 3.76-5.7 4.86-8.98.78-2.3 1.24-4.71 1.27-7.19 0-.5 0-1-.05-1.5a38.5 38.5 0 0 0-4 2.69c-7.24 5.54-9.61 13.5-9.84 21.66l.97-.66Z" fill="#575770"/><path opacity=".25" d="M158.83 44.1a.36.36 0 0 1-.34-.23c-.51-1.29-.32-2.68-.15-4.02.12-.93.23-1.88.12-2.77-.03-.31-.1-.65-.19-1a7.23 7.23 0 0 1-.17-.8c-.25-1.46-.06-2.97.11-4.33.03-.23.22-.38.4-.34.2.02.34.24.32.47a13.79 13.79 0 0 0-.1 4.06c.03.25.1.48.14.73.09.34.17.7.21 1.08.13 1 0 2.01-.12 3-.17 1.3-.32 2.5.1 3.6.09.2 0 .44-.19.52-.04.02-.1.02-.14.02v.01Z" fill="#2B2B37"/><path d="M172.38 51.75a14.5 14.5 0 0 0-2.4-1.88c.96.72 1.87 1.56 2.7 2.52 4.94 5.62 6.99 15.09.03 28.2l-.7 1.9a33.08 33.08 0 0 1-2.66 5.83c-.42.71-.88 1.39-1.4 2.05 4.4-4.13 8.13-9.07 9.96-15.26 2.8-9.22.06-17.9-5.54-23.36Z" fill="#575770"/><path d="M180.85 75.28c-.17-1.38-.13-2.75.02-4.12h-.06l-.85 4.48c-1 2.87-1.82 5.81-2.5 8.79-.18.82-.35 1.65-.63 2.45-.9 2.77-2.75 4.99-4.56 7.14.3.36.82.28 1.24.13a11.2 11.2 0 0 0 4.36-2.75c.42-.42.85-.9 1.05-1.5.5-1.29.04-2.79.36-4.14.23-1.02.87-1.84 1.31-2.77a8.1 8.1 0 0 0 .8-3.83c-.03-1.33-.38-2.6-.54-3.88Z" fill="#323147"/><path d="M140.29 78.47c-.34-2.96-.8-5.91-1.27-8.86-.21-1.43-.45-2.87-.66-4.28-.15-.96-.3-1.9-.53-2.84h-1.24c.16 1.48.42 2.96.55 4.38.21 2.47.27 4.99-.1 7.46-.22 1.3-.54 2.68-.1 3.9.17.5.45.9.7 1.34a12.75 12.75 0 0 1 1.63 7.02c-.04.73-.15 1.5.02 2.22.6 2.7 5.63 7.4 7.19 7.29-2.81-4.02-5.81-14.37-6.2-17.63Z" fill="#464558"/><path d="M139.3 86.02c0 .19 0 .36-.03.55-.04.73-.15 1.5.02 2.21.6 2.7 5.63 7.4 7.19 7.3-.66-.93 4.33.7 3.44-.74-3.34-2.03-6.19-1.73-10.63-9.32Z" fill="#323147"/><path d="M140.71 82.21c-.15-1.24-.28-2.5-.42-3.74-.34-2.96-.8-5.91-1.27-8.86-.21-1.43-.45-2.87-.66-4.28-.15-.96-.3-1.9-.53-2.84h-1.24c.16 1.48.42 2.96.55 4.38.21 2.47.27 4.99-.1 7.46-.22 1.3-.54 2.68-.1 3.9.17.5.45.9.7 1.34.36.61.66 1.27.9 1.94.69-.57 1.83-.46 2.17.7Z" fill="#464558"/><path d="M149.7 98.08c1.5.28 3.02.3 4.52.32-1.47-.17-2.5-.36-2.88-.42-3.61-.6-6.15-1.76-7.99-3.2a12.06 12.06 0 0 0 6.35 3.3Z" fill="#3E5C2E"/><path d="M164.8 51.5s-1.6 0-1.8 1.4c-.26 1.84 2.1 2.91 2.1 2.91s-4.36-3.2-5.91-2.5c-1.81.8-1.71 2.48.34 4.45 0 0-2.42 0-2.55 1.77-.14 1.76-2.97 7.07-2.97 7.07l6.27-4.26 16.27 2.18-11.74-13.02Z" fill="#7C517C" style="mix-blend-mode:multiply" opacity=".36"/><path d="M155.24 49s1.6 0 1.81 1.41c.26 1.84-2.1 2.92-2.1 2.92s4.36-3.2 5.92-2.51c1.8.8 1.7 2.48-.35 4.45 0 0 2.42 0 2.55 1.77.14 1.76-1.4 3.01-1.4 3.01l-2.03-.04-16.14 2.02 11.74-13.02Z" fill="#7C517C" style="mix-blend-mode:multiply" opacity=".36"/><path d="M178.97 97.85c-1.49 1.79-3.6 2.93-5.76 3.84a14.41 14.41 0 0 1-4.1 1.17c-2.07.2-4.13-.37-6.2-.66-2.72-.39-5.47-.27-8.21-.45-3.03-.19-6.03-.71-8.95-1.59-.93-.28-1.87-.6-2.71-1.07a6 6 0 0 1-.76-.5c-1-.76-1.75-1.82-2.47-2.85-.67-1-1.37-1.98-1.72-3.13a6.09 6.09 0 0 1 .64-4.97c.13-.19.27-.36.42-.52.55.91.74 1.89 1.48 2.78.43.51.87 1.03 1.32 1.53 1.5 1.7 3.19 3.28 5.3 4.05 1.43.53 2.99.66 4.44 1.09 1.42.43 2.74 1.13 4.2 1.45 1.04.24 2.1.28 3.18.32 1.43.05 2.87.1 4.28-.03 5.73-.48 10.95-3.55 15.1-7.5.25-.24.53-.5.88-.53.15 0 .28.03.41.1.34.17.59.59.73.97.8 2.2 0 4.71-1.5 6.5Z" fill="#75A152"/><path opacity=".37" d="M180.49 91.33c-.2-.52-.58-1.1-1.15-1.06-.35.01-.62.29-.87.52-4.15 3.96-9.37 7.02-15.1 7.51-1.41.12-2.85.08-4.28.02a17.69 17.69 0 0 1-3.19-.3c-1.03-.24-2-.67-2.99-1.04.82 1.48 1.13 3.24.1 4.6.56.06 1.13.12 1.67.14 2.74.17 5.5.06 8.21.45 2.08.29 4.13.85 6.21.66 1.42-.14 2.78-.63 4.1-1.17 2.15-.9 4.26-2.05 5.76-3.84 1.55-1.75 2.33-4.27 1.53-6.48Z" fill="#568040"/><path d="M180.49 91.33c-.2-.52-.58-1.1-1.15-1.06-.35.01-.62.29-.87.52-4.15 3.96-9.38 7.02-15.1 7.51-1.41.12-2.85.08-4.29.02-1.06-.04-2.13-.08-3.18-.3-1.46-.34-2.78-1.04-4.2-1.46-1.45-.43-3-.57-4.44-1.1-2.73-1-4.75-3.35-6.61-5.58-.74-.9-.94-1.86-1.48-2.78-.2.2-.35.4-.5.63.23 1.5 1.3 2.87 1.94 4.2.8 1.7 1.27 3.52 2.58 4.91a7.23 7.23 0 0 0 4.4 2.22c.86.11 1.7.14 2.56.25.84.12 1.63.33 2.47.46.89.14 1.82.16 2.71.3.91.11 1.8.27 2.72.37.85.1 1.67.19 2.5.38.95.22 1.88.47 2.85.55 1.67.13 3.5.21 5.17-.1.9-.17 1.8-.49 2.71-.7.41-.1.84-.15 1.25-.27.34-.1.66-.25 1.03-.3.63-.1 1.2.22 1.6.75 1.46-.76 2.84-1.71 3.89-2.95 1.45-1.73 2.23-4.25 1.43-6.46Z" fill="#568040"/><path d="M142.7 93.97c.3.85.63 1.75 1.27 2.42.7.74 1.73 1.15 2.7 1.38 1.98.49 4.1.53 6.1.74 1.77.18 3.44.1 5.11-.21-.66-.04-1.32-.12-1.98-.26-1.45-.33-2.77-1.02-4.2-1.45-1.45-.43-3-.56-4.43-1.09-2.26-.81-4-2.54-5.57-4.36.4.9.68 1.88 1 2.83ZM161.55 99.58c1.18.46 2.46.52 3.73.45 1.28-.08 2.58-.16 3.84-.4 1.15-.2 2.27-.48 3.41-.63 1.17-.18 2.34-.31 3.4-.82.88-.4 1.79-.87 2.48-1.57.8-.8 1.03-1.88 1.19-2.95.15-1.09-.04-2.25.12-3.32-.12-.06-.24-.07-.37-.06-.35.03-.63.3-.88.53-4.15 3.96-9.37 7.02-15.1 7.5-1.31.13-2.64.09-3.95.05.7.44 1.36.93 2.13 1.22Z" fill="#3E5C2E"/><path d="M152.18 94.82c2 .31 23.52 4.27 27.47-11.39.2-.77.2.04 1.01.06 1.38 12.87-12.75 18.42-25.73 15.85-21.27-4.17-16.9-21.32-15.17-17.44.68 1.57-.3 10.94 12.42 12.92Z" fill="#75A152"/><path d="M238.57 184.12c-2.77 4.92-6.2 9.4-9.26 14.17a11.36 11.36 0 0 0-5.85-4.83c16.23-17.58 15.28-42.87-10.9-45.8-.83-.09-1.69-.16-2.57-.2-12.4-.95-21.9-9.84-28.47-19.78-9.63-12.71 1.69-26.2-8.26-35.12l.03-.01c.14-.03.53.08.98.22l.41.13.15.05.55.19.32.11.16.05c11.77 13.58 3.67 32.92 15.8 44.46 4.24 3.38 10.07 4.68 15.43 5.24a52.13 52.13 0 0 1 15.22 2.96c17.46 6.37 25.27 21.9 16.26 38.16Z" fill="#74A352"/><path d="M224.74 147c-3.88.23-8.04.64-12.18.66-.83-.1-1.69-.17-2.57-.21-12.4-.94-21.89-9.83-28.47-19.77-7.95-10.5-1.62-21.53-4.77-30.08a12.1 12.1 0 0 0-.4-.95l-.03-.06a12.68 12.68 0 0 0-3.06-4.04l.03-.01c.28.03.63.12.98.22l.41.13.15.05.55.2.32.1.16.06c9.5 10.95 6.06 25.68 10.76 37v.01a21.3 21.3 0 0 0 5.04 7.44c4.24 3.39 10.07 4.68 15.43 5.24a52.16 52.16 0 0 1 15.23 2.96l2.42 1.06ZM233.8 158.02a98.4 98.4 0 0 0-6.49-4.78c5.47 4.49 8.18 11.5 6.8 19.48.01.04-.03.05-.02.1.8 3.15.4 7.14.05 9.47-.83 5.56-3.16 9.86-6.12 14.2.5.54.95 1.13 1.35 1.78 1.88-2.81 3.81-5.62 5.68-8.48a61.98 61.98 0 0 0 3.58-5.7 30.47 30.47 0 0 0 3.6-14.81c-1.59-4.59-4.48-8.19-8.42-11.28v.02Z" fill="#568040"/><path opacity=".49" d="M232.46 184.88c.48-1.96 1.2-5.82 1.02-9.2-1.77 6.6-5.44 12.62-9.96 17.8 1.37.51 2.63 1.26 3.7 2.23 2.32-3.34 4.3-6.73 5.24-10.84v.01Z" fill="#AED888"/><path d="M186.62 130.31c-1.13-1.61-3.33-8.04-4.55-15.64-.98-6.17-4.16-14.25-5.32-17.06l-.37-.9a.23.23 0 0 0-.03-.05c-.01-.05-.03-.07-.03-.07a12.68 12.68 0 0 0-3.06-4.04h.03c.28.02.63.11.98.22l.41.12.15.05.55.2.32.11.16.05c9.5 10.96 6.06 25.68 10.76 37.01Z" fill="#3E5C2E"/><path d="M179.74 90.38c-3.35 7.89-14.44 11.01-24.8 8.97-6.09-1.2-10.08-3.45-12.63-5.98-1.9-1.87-3-3.9-3.58-5.73a10.74 10.74 0 0 1-.5-4.24c.19-1.87.99-2.72 1.53-1.5.25.58.28 2.23.85 4.17.29.99.72 2.05 1.4 3.09 1.6 2.46 4.54 4.78 10.17 5.66 2 .31 23.51 4.27 27.47-11.39.2-.77.2.04 1.01.06.28 2.6-.07 4.9-.92 6.89Z" fill="#75A152"/><path d="M150.59 94.92a27 27 0 0 0 4.32.29c-1.4-.15-2.38-.33-2.73-.39-3.46-.54-5.88-1.6-7.63-2.93a11.47 11.47 0 0 0 6.03 3.03Z" fill="#3E5C2E"/><path d="M180.4 83.37s-1.2 3.83-3.74 6.01c-2.54 2.18 2.66-6.9 3.14-7.1.47-.19.6 1.1.6 1.1Z" fill="#323147"/><path d="M138.53 81.51s2.63 6.74 3.48 7.68c.85.95-2.43-8.85-2.43-8.85l-1.05 1.17Z" fill="#464558"/><path d="m157.43 64.26-2 1.57s5.3-.66 4.14 1.23c-2.55 4.18-13.55 15.47-13.55 15.47s-2.89 1.23-2.83 4.16c0 0-.86.63-.94 2.53 0 0-2.28-4.02-2.34-5.02-.07-1 7.33-17.89 10.35-19.48 3.03-1.6 3.82-.44 3.82-.44l3.35-.02Z" fill="#21212B"/><path d="M160.67 67.94s-2.54-1.13-2.26-.41c.8 2.06 9.93 11.1 10.53 11.31.3.1 2.5 2.61 4.67 5.15 2.27 2.65 3.35 5.8 3.35 5.8l3.24-6.03s-4.65-11.04-9.26-13.9c-4.61-2.87-9.28-6.27-9.28-6.27s-1.25 1.33-1.16 1.62c.7 2.2 9.12 7.53 9.12 7.53l-8.95-4.8Z" fill="#21212B"/><path d="M152.63 71.86c-.04.38-.16.8-.32 1.22a13.08 13.08 0 0 1-1.33 2.3 22.98 22.98 0 0 1-4.35 4.45l-.4.28-.18.11c-.1.06-.19.14-.29.23l-.19.17c-.84.83-2 2.4-4.57 3.8a21.04 21.04 0 0 1-5.87 2.04c-6.3 1.3-8.97-7.76-8.75-13.77.06-1.6.32-3 .78-3.91.2-.4.5-.83.86-1.26 1.5-1.8 4.26-3.79 6.9-5.5l1.75-1.1 1.18-.71.02-.01 1.5-.9c.68-.4 2.02-1.66 2.12-1.3.22.77 2.14.05 3.67.99l.18.11a16.75 16.75 0 0 1 1.77 1.3c.98.83 1.83 1.73 2.26 2.5.08.16.15.3.2.44.45 1.24 1.37 2.64 2.08 4.15a7.48 7.48 0 0 1 .22.49l.06.14a7.6 7.6 0 0 1 .7 3.73Z" fill="#D58500"/><path opacity=".72" d="m146.63 79.83-.4.28-.18.11c-.1.06-.19.14-.3.23a312.2 312.2 0 0 1-12.8-9.18L143.78 66c1.38.25 2.41.32 2.41.32-.9 3.56-.01 10.56.43 13.5Z" fill="#B45F00"/><path d="M156.11 51.19c-.98.97-8.53 8.42-11.55 10.53-1.16.44-5.04 2-5.58.54-.5-2.64 2.75-4.76 5.59-7.05 3-2.08 6.75-4.95 9.61-6.42 1.45-.61 2.96 1.17 1.93 2.4Z" fill="#D58500"/><path d="M161.14 53.15c-1.05 1.14-10.46 10.5-11.68 11.09-.2.09-.47.14-.78.14-.17 0-.35 0-.54-.03-1.66-.23-3.8-1.55-2.31-4.27 0 0 3.37-2.57 6.76-5.05 2.91-2.13 5.83-4.18 6.63-4.48.05-.02.1-.04.14-.04 1.67-.5 2.8 1.53 1.78 2.64Z" fill="#D58500"/><path d="m162.02 57.98-.41.43-.43.43c-.08.1-.17.18-.25.26l-.28.28-.47.47-.68.68-.56.55a288.14 288.14 0 0 1-4.95 4.8 89.56 89.56 0 0 1-2.7 2.47l-.22.18c-.34.28-.6.47-.74.54l-.04.02a2.3 2.3 0 0 1-.74.13c-1.67.01-4.5-1.28-2.85-4.3 0 0 1.09-.84 2.66-2 3.54-2.67 8.82-6.37 9.9-7.08.6-.4 1.12-.55 1.25-.56 1.52-.21 2.47 1.66 1.5 2.7Z" fill="#D58500"/><path opacity=".36" d="m162.02 57.98-.41.43-.43.43-.25.26a73.98 73.98 0 0 0-1.43 1.42l-.55.56a288.66 288.66 0 0 1-4.96 4.8 101.65 101.65 0 0 1-2.7 2.46l-.22.18-.28.23c.74-.9 1.49-2.22 2.64-3.91 1.23-1.82-.01-2.54-1.34-2.83.98-.9 2.13-2 3.28-3.12.02.5.18 2.86 2.48 1.56 2.53-1.43 3.92-2.84 3.82-4.02-.03-.3-.07-.82-.29-1.04.97.42 1.4 1.76.64 2.59Z" fill="#B45F00"/><path opacity=".36" d="M161.14 53.15c-1.05 1.14-10.46 10.5-11.68 11.09-.2.09-2.34 1.63-2.65 1.64-.26 0-.5-.02-.75-.07.14-.04.95-.55 2.08-1.46.94-.76 2.1-1.78 3.28-3.03 2.61-2.75-2.4-3.48-2.4-3.48.85-.98 2.24-1.74 3.3-2.58.58.77 2.51 2.87 4.8.74 2.75-2.57 3.66-2.68 3.5-4.34-.05-.52-.17-.9-.33-1.18 1.1.3 1.67 1.79.85 2.67Z" fill="#B45F00"/><path opacity=".36" d="M156.42 50.03c0 .45-.09.88-.3 1.16l-.06.05c-.75.79-5.87 5.7-9.06 8.52a18.89 18.89 0 0 1-2.44 1.96 1.1 1.1 0 0 1-.3.1c-.52.07-1.1-.12-1.7-.5 1.78.2 2-.43 3.94-2.13 2.3-2.42-1.03-3.8-1.81-4.08.15-.1.3-.2.45-.32l1.82-1.29c.4.72 1.69 2.52 4.02.9 2.26-1.59 4.35-2.95 4.93-5.3.27.25.45.58.51.93Z" fill="#B45F00"/><path d="M162.02 64.13c-.85.91-7.08 7.13-10.14 9.85-.37.33-.7.6-.96.82-.26.21-.47.35-.58.41-.09.04-.18.08-.29.1-1.42.37-4.53-.55-2.7-3.9l2.74-2.1c.55-.4 1.15-.86 1.77-1.34l.91-.68c3.01-2.25 6.4-4.75 7.76-5.54.16-.1.32-.16.46-.2 1.32-.3 1.97 1.56 1.03 2.58Z" fill="#D58500"/><path opacity=".36" d="M162.02 64.13c-.98 1.42-8.62 7.83-11.04 11.26a23.42 23.42 0 0 1-5.4 5.23c-.85.83-2 2.4-4.59 3.8l1.64-8.73s3.05.7 6.16-.36c1.57-.38 3.64-2.22 5.6-5.26 1.6-2.45-.2-3.1-.95-3.27 1.27-.96 2.6-1.96 3.81-2.84-.03.1-1.02 2.9 1.38 2.12 2.44-.8 3.1-2.5 3.07-3.26a2.3 2.3 0 0 0-.6-1.28c1.24-.19 1.84 1.6.92 2.6v-.01Z" fill="#B45F00"/><path opacity=".72" d="M156.06 51.24c-1.03 1.08-10.29 9.92-11.5 10.48-.08.04-.18.07-.29.1-.22-.72.38-.37 1.25-1.2.86-.83 1.75-1.87 2.6-2.49.84-.61 2.59-2.49 3.89-3.73 1.26-1.21 1.73-1.25 3.5-3.24 1.76-2-1.07-2.45-1.07-2.45 1.57-.34 2.6 1.51 1.63 2.53ZM161.14 53.15c-1.05 1.14-11.24 11.09-12.47 11.68-.19.09-1.44.87-1.75.88.99-1 4.15-3.5 5.1-4.25.98-.73 2.92-2.7 4.4-4.19 1.46-1.44 2-1.48 4.02-3.87 1.77-2.08-.5-2.76-1.09-2.9 1.68-.5 2.81 1.54 1.79 2.65Z" fill="#B45F00"/><path opacity=".72" d="M155.79 49.47s.18.64-.64 1.45c-.48.48-1.14.67-1.14.67 1.54-.02 2.14-1.52 1.78-2.12ZM160.62 51.66s.18.65-.64 1.46c-.48.48-1.14.66-1.14.66 1.54-.01 2.14-1.52 1.78-2.12ZM161.5 56.5s.18.64-.64 1.45c-.48.48-1.14.66-1.14.66 1.54 0 2.14-1.52 1.78-2.12ZM161.62 62.58s.15.53-.52 1.2c-.4.39-.94.54-.94.54 1.27 0 1.77-1.25 1.46-1.74Z" fill="#B45F00"/><path opacity=".72" d="m162.02 57.98-.41.43-.43.43c-.08.1-.17.18-.25.26l-.28.28-.47.47-.68.68-.56.55a288.14 288.14 0 0 1-4.95 4.8c-.81.77-1.56 1.47-2.17 2l.04.1.9-.68a5.72 5.72 0 0 1-.84.82c-.46.37-1.12.85-1.5 1.1-.05.04-.18.08-.33.1-.21.03-.45.02-.55-.1a.2.2 0 0 1-.03-.12.4.4 0 0 1 .05-.2c.12-.2.43-.26.62-.32a2.7 2.7 0 0 0 .99-.6l.02-.02.45-.46c.73-.78 1.48-1.63 2.18-2.17.86-.65 2.9-2.35 4.23-3.67 1.27-1.28 1.6-2 3.35-3.41 1.63-1.32-.11-2.73-.9-2.97 1.52-.21 2.47 1.66 1.5 2.7h.02ZM162.02 64.13c-.85.91-7.08 7.13-10.14 9.85-.25.47-.56.95-.9 1.41-.06-.19-.1-.38-.06-.6.04-.21.17-.44.42-.69.32-.32.64-.67.97-1.02.56-.6 1.12-1.2 1.66-1.61.86-.65 2.64-2.64 3.95-3.96 1.28-1.28 1.83-1.02 3.63-3.12 1.17-1.39.23-2.42-.55-2.83 1.3-.31 1.96 1.55 1.02 2.57Z" fill="#B45F00"/><path opacity=".37" d="M154.34 51.01c.13-.28-.12-.67-.54-.86-.43-.2-.88-.12-1 .16-.13.29.1.67.53.87.43.19.88.11 1-.17ZM159.16 52.82c.13-.28-.12-.67-.54-.86-.43-.2-.88-.12-1 .17-.13.28.1.66.53.86.43.19.88.11 1-.17ZM159.9 57.98c.17-.2.06-.58-.25-.83-.31-.26-.7-.3-.87-.09-.17.2-.06.58.25.84.32.25.7.29.88.08ZM160.3 63.73c.14-.18.04-.5-.22-.72-.27-.22-.6-.25-.74-.07-.15.18-.05.5.21.71.27.22.6.25.75.08Z" fill="#E2A040"/><path d="m132.71 69.96-.07.08c-2.03 2.23-4.66 3.09-5 1.4a1.97 1.97 0 0 1-.05-.46c.02-1.6.22-3.42.53-5.16l.06-.31.02-.14.1-.48a25.1 25.1 0 0 1 .4-1.71c.33-1.33.72-2.47 1.1-3.23.27-.51.48-1.16.64-1.88v-.02l.14-.75a18.66 18.66 0 0 0 .22-3.81 7.51 7.51 0 0 0-.24-1.76c-.17-.56-.17-.99-.05-1.28a.86.86 0 0 1 .05-.11l.11-.16a.9.9 0 0 1 .23-.18c.7-.35 1.95.16 2.66 1.32 1.1 1.78 1.18 4.93 1.32 8.7l.06 1.43.03.64.1 1.57a8.7 8.7 0 0 1-2.35 6.3Z" fill="#D58500"/><path opacity=".36" d="M133.83 56.8c.39-4.98-2.01-6.42-2.93-6.8.69-.35 1.95.16 2.66 1.32 1.09 1.78 1.17 4.93 1.32 8.7 0 .7.02 1.41.06 2.08l-3.98 1.42a13.5 13.5 0 0 0 2.87-6.72Z" fill="#B45F00"/><path opacity=".37" d="M130.82 62.13a7.53 7.53 0 0 1-2.26 1.58l.13-.53c.34-1.33.73-2.47 1.11-3.22.26-.52.48-1.17.63-1.89v-.01c.06-.25.11-.5.15-.76.17.5 1.18 3.65.24 4.83ZM131.3 53.37c-.07.25-.3.57-.48.82 0-.24 0-.48-.02-.7a7.57 7.57 0 0 0-.25-1.76c-.17-.56-.17-.98-.04-1.28a.74.74 0 0 1 .04-.1c.56.79 1.06 2.07.75 3.02Z" fill="#E2A040"/><path opacity=".72" d="M130.93 50.28c.17.28 1.23 2.47.44 3.43.84-.77.44-2.73-.44-3.43Z" fill="#B45F00"/><path opacity=".37" d="M180.65 83.49c-.82-.02-.8-.83-1.01-.06-3.46 13.64-20.2 12.4-25.8 11.65 1.5.48 3.03.83 4.47 1.45 1.28.56 2.62 1.2 3.53 2.29.27.33.49.7.62 1.09 10.33-.43 19.31-6.04 18.19-16.42Z" fill="#568040"/><path d="M162.2 96.55c-.32 0-.63.02-.92.1-1.4.3-3.24.62-3.88 1.5-.25.34-.37.96.25 1.14.64.17 1.3-.25 1.77-.76.46-.52.5-1.03 4.3-.81l-1.53-1.17Z" fill="#568040"/><path d="M158.85 96.88c-.6 0-1.2.08-1.78.21-.6.14-1.25.37-1.6.88-.03.05-.1.13-.1.21-.03.21.15.43.36.49.21.05.42 0 .64-.08.75-.3 1.4-.9 2.21-1 .33-.03.66.03.99.05.33.02.68.02.97-.14.16-.08.47-.31.47-.5-.02-.22-.31-.12-.45-.12-.58.04-1.14 0-1.7 0Z" fill="#568040"/><path d="M146.36 94.88c2.93 1.75 6.5 1.87 9.8 2.1 7.56.56 18.57 3.1 21.13-4.99.17-.54 4.13-1.28 3.36-8.52-.82-.02-.8-.83-1.01-.06-3.96 15.66-25.46 11.7-27.48 11.4-5.6-.88-8.54-3.17-10.15-5.61.78 2.35 2.31 4.46 4.35 5.68Z" fill="#568040"/><path d="M161.7 95.62c3.48.33 7.03.4 10.3-1.03a7.84 7.84 0 0 0 2.16-1.34c.57-.52.94-1.2 1.56-1.7 1.14-.88 2.56-1.23 3.37-2.53.92-1.48.82-3.28.4-4.97-2.76 9.43-12.14 11.37-19.16 11.45l1.38.12Z" fill="#3E5C2E"/><path d="M143.04 99.09a6.01 6.01 0 0 1-.76-.5c-1-.76-1.75-1.82-2.47-2.85-.67-1-1.37-1.98-1.72-3.13a6.09 6.09 0 0 1 .64-4.97 10.74 10.74 0 0 1-.5-4.24c.77.38 1.66 1.5 2.38 2.67.78 1.27 1.37 2.6 1.4 3.09v.04s-.13 1.08-.06 2.24c.03.69.13 1.4.36 1.94.1.24.23.44.4.59 0 0-1.28 3.16.32 5.12Z" fill="#568040"/><path opacity=".36" d="m152.6 67.56-.94.66.94-.66Z" fill="#B45F00"/><path d="M108.1 114.28v.01l-.22.3v.01a59.67 59.67 0 0 1-2.4 3.07 43.07 43.07 0 0 1-3.25 3.5l-.1.1c-.85.83-1.73 1.63-2.63 2.42-4.16 3.34-8.2 9.5-14.33 7.19a16.76 16.76 0 0 1-3.54-1.32l-.04-.02h-.03l-.02-.02a27.69 27.69 0 0 1-8.09-6.3l-.01-.03c-2.39-2.73-4.04-5.81-4.12-8.66v-.01c.09-.68.2-1.36.34-2.03v-.01a22.16 22.16 0 0 1 2.83-7.6c3.2-5.38 8.53-9.34 14.4-11.81 2.26-2.06 5.07-3.68 8.26-2.88l.15.04h.02c.02.02.05.02.07.03a2.7 2.7 0 0 1 .33.09l.24.07.32.11.04.01.2.08.24.1a4.27 4.27 0 0 1 .47.22c.2.1.4.22.6.34V92l.02.21v.1l.01.27.03.5.01.17.04.45.05.51v.1l.02.13a35.55 35.55 0 0 0 .22 1.61l.15.8.03.15.04.15.04.22v.02c.04.16.07.33.12.49l.06.24.14.57v.03l.02.05.1.4.12.41.02.06.08.29.15.47v.02a32.93 32.93 0 0 0 3.51 7.51l.27.41.01.03a37.25 37.25 0 0 0 2.04 2.76l.02.03.22.26.23.28.02.02.08.1.05.04a3.41 3.41 0 0 0 .32.37l.17.19.52.54c.43.45.88.9 1.34 1.32Z" fill="#464558"/><path opacity=".25" d="M108.1 114.28v.01l-.22.3v.01a59.67 59.67 0 0 1-2.4 3.07 43.07 43.07 0 0 1-3.25 3.5l-.1.1c-.85.83-1.73 1.63-2.63 2.42-4.16 3.34-8.2 9.5-14.33 7.19a16.76 16.76 0 0 1-3.54-1.32l-.04-.02h-.03l-.02-.02a27.69 27.69 0 0 1-8.09-6.3l-.01-.03c-2.39-2.73-4.04-5.81-4.12-8.66v-.01c.09-.68.2-1.36.34-2.03v-.01a22.16 22.16 0 0 1 2.83-7.6c3.2-5.38 8.53-9.34 14.4-11.81 2.26-2.06 5.07-3.68 8.26-2.88l.15.04h.02c.02.02.05.02.07.03a2.7 2.7 0 0 1 .33.09l.24.07.32.11.04.01.2.08.24.1a4.27 4.27 0 0 1 .47.22c.2.1.4.22.6.34V92l.02.21v.1l.01.27.03.5.01.17.04.45.05.51v.1l.02.13a35.55 35.55 0 0 0 .22 1.61l.15.8.03.15.04.15.04.22v.02c.04.16.07.33.12.49l.06.24.14.57v.03l.02.05.1.4.12.41.02.06.08.29.15.47v.02a32.93 32.93 0 0 0 3.51 7.51l.27.41.01.03a37.25 37.25 0 0 0 2.04 2.76l.02.03.22.26.23.28.02.02.08.1.05.04a3.41 3.41 0 0 0 .32.37l.17.19.52.54c.43.45.88.9 1.34 1.32Z" fill="#2B2B37"/><path opacity=".48" d="M128.47 92.93c-.05.2-.2.9-.41 1.95v.02l-.01.02-.13.13-.32.34-.2.21-.49.53-.18.2h-.01l-2.07 2.2-1.53 1.63-2.24 2.38-.02.54-.03.66c-.02.53-.05 1.06-.1 1.57 0 .23-.02.46-.04.69l-.07.82c-.12 1.4-.29 2.68-.48 3.7-.61 3.36-1.52 6.66-2.23 10 0 .04 0 .08-.02.13a50.17 50.17 0 0 0-.18.9l-.06.31v.03l-.07.35a29.2 29.2 0 0 0-.44 3.68 60.2 60.2 0 0 0-16.42 2.76c-4.68 1.86-6.34 4.14-11.14 5.5-6.36 1.86-13.1-1.36-17.11-6.28.15-1.34.47-2.92.98-4.69v-.02c5.7-1.8 11.68-4.78 11.84-9.75.96-2.43 2.96-4.3 3.76-6.8 1.3-5.55-.17-12.5 4.75-16.6a7.63 7.63 0 0 1 1.34.18c.05 0 .1.02.14.03.9.2 1.75.55 2.54 1.05v.23a3.69 3.69 0 0 0 .02.46 3.52 3.52 0 0 0 0 .25v.02l.02.23v.09a20.59 20.59 0 0 0 .11 1.48l.02.25.03.26.05.4.06.39.04.3.06.4.15.78v.02l.04.18a8.46 8.46 0 0 0 .07.36l.06.27.05.2v.02a10.33 10.33 0 0 0 .19.75l.02.08a3.93 3.93 0 0 0 .12.45l.04.12.1.35.07.28v.01l.01.01a18.52 18.52 0 0 0 .3.95l.03.06a28.8 28.8 0 0 0 .32.92l.06.14c0 .02 0 .03.02.04l.04.1.03.1.1.26.15.36a5.97 5.97 0 0 0 .2.45c.06.18.14.35.22.52l.04.1.1.2.05.13.3.6v.02l.38.75c.09.17.18.35.29.53l.05.09.03.07.31.55.36.61.12.18.23.38.21.32.59.86a12.65 12.65 0 0 0 .56.77 10.65 10.65 0 0 0 .45.58l.04.06.29.36.58.7v.02h.02l.08.1.04.05.2.22.15.17.15.16.13.14.12.13c.51.56 1.05 1.09 1.6 1.6l.02-.01c.32-.43.91-1.25 1.72-2.32.67-.9 1.48-1.97 2.4-3.14v-.01a196.05 196.05 0 0 1 4.5-5.56c1.37-1.62 2.79-3.23 4.16-4.67.64-.67 1.28-1.3 1.89-1.9.44-.42.87-.8 1.28-1.17a16.64 16.64 0 0 1 2.88-2.08l.03-.02c.56-.3 1.06-.46 1.5-.48Z" fill="#2B2B37"/><path opacity=".48" d="M73.46 123.19v.02l-.02-.02h.02ZM108.12 114.28l-.02.01-.1.16-.11.14a51.86 51.86 0 0 1-8.38 9.1c-4.17 3.34-8.21 9.5-14.34 7.19-.96-.25-1.9-.58-2.82-.99l-.1-.04-.69-.32c5.8 2.73 11.08-9.37 12.77-14.88.78-2.84-.49-5.59-1.4-8.25-1.27-5.4-.24-11.16 1.77-16.27v-.02a8.7 8.7 0 0 1 3.13 1.16 31.08 31.08 0 0 0 2.83 12.66l.1.2c.23.5.47 1 .73 1.5l.02.02a31.99 31.99 0 0 0 6.6 8.63Z" fill="#2B2B37"/><path d="M146.04 80.64c-1.98 1.69-3.64 3.16-5.74 4.57h-.01c-.75.51-1.63 1.07-2.42 1.58-2.16 1.36-4.35 2.7-6.32 4.33h.01v.02h.01l-22.63 24.06-1.05-.6a28.54 28.54 0 0 1-8.18-7.21 22.8 22.8 0 0 1-4.84-13.45v-.03a20.36 20.36 0 0 1 .28-3.7c.5-1.05 6.93-3.8 13.47-6.52l3.3-1.37c3.56-1.48 6.86-2.87 8.89-3.87 1.08-3.22 5.1-10.85 6.35-12.74 4.96.62 12.9-.24 18-.44-1.76 7.46.98 15.2.88 15.37Z" fill="#575771"/><path opacity=".25" d="M146.04 80.64a40.95 40.95 0 0 1-3.65 3.04l-.42.32-.15.1c-1.89 1.37-3.76 2.52-5.66 3.77l-.08.05-.64.42-.13.08-.78.53-.19.13c-.6.42-1.22.85-1.84 1.32a40.89 40.89 0 0 0-.61.47h-.02a28.34 28.34 0 0 0-.3.26v.01l.02.01-.06.06-.06.07-.02.02-.1.1-.5.54-.12.13-.54.57-.16.18-.1.1-.3.31a11.34 11.34 0 0 0-.5.54l-.5.54-.58.61-.13.13-.32.34-.04.06-.15.15a182.46 182.46 0 0 0-.63.67l-.06.06a2212.7 2212.7 0 0 1-5.84 6.21l-.41.44a10543.35 10543.35 0 0 0-7.12 7.57l-4.4 4.67a33.12 33.12 0 0 1-4-2.59h.02c.34-.17.67-.34.98-.54 5.26-3.12 5.98-9.1 7.84-14.39l.23-.61a17.77 17.77 0 0 1 2.75-5c.34-.4.71-.79 1.12-1.15 2.94-1.46 5.54-1.53 6.82-3.29.5-.68.8-1.62.84-3 .45-1 1.48-1.31 2.44-1.59a45.83 45.83 0 0 1 3.25-1.5c1.14-.49 2.27-.97 3.37-1.53 3.64-2.72 8.13-9.22 8.5-14.63l2.05-.13c-1.76 7.46.98 15.2.88 15.37Z" fill="#2B2B37"/><path opacity=".14" d="M107.18 92.49a45.25 45.25 0 0 1-3.17 7.15l-.01.01c-1.35 2.58-2.88 5.15-4.29 7.73a22.8 22.8 0 0 1-4.84-13.44v-.03c.02-.94.09-1.9.22-2.85l-.05-.12.1-.73c.5-1.06 6.94-3.8 13.48-6.52.14.4.21.85.23 1.31.08 2.27-.87 4.97-1.67 7.49ZM141.88 65.47a9.11 9.11 0 0 1-2.57 3.99c-1.91 1.63-4.45 2.4-6.85 2.74-2.54.36-5.26.21-7.72-.7l-.01-.02-.6-.25.04-.1c1.42-2.78 2.74-5.21 2.98-5.42.35.14 1.37.2 2.75.21 3.27.03 8.57-.25 11.98-.45Z" fill="#A4A4A4"/><path opacity=".25" d="M140.24 84.19c-2.64.62-5.75.78-7.77-1.4-.56-.6-1.08-1.31-1.87-1.58-1.14-.37-2.4-.1-3.42-.83-2.49-2.05-2.78-5.65-3.33-8.61-1.02 2.22-2.3 4.35-3.04 6.69-2.42 1.08-7.19 3.12-11.95 5.16 3.12-.31 8.35-2.8 11.1-1.47 1.25.83.85 2.67 2.16 3.43 3.87 2.05 5.51 6.53 4.65 10.68l4.81-5.12-.02-.01c3.45-2.89 7.6-4.8 11.07-7.67-.78.3-1.58.54-2.4.73Z" fill="#2B2B37"/><path opacity=".25" d="M141.98 84a36.22 36.22 0 0 1-.95.7c-2.1 1.52-4.35 2.81-6.5 4.25l-.19.13c-.62.42-1.24.85-1.84 1.32l-.03.02-.9.71.01.01h.01v.01l-.06.06-.06.07-.02.02-.1.1-.5.54-.12.13-.54.57-.16.18-.1.1-.3.31a13.7 13.7 0 0 0-.5.54l-.5.54-.58.6-.13.14-.32.34-.05.06-.14.15-.5.53-.13.14a1.2 1.2 0 0 1-.07.07l-2.06 2.19-1.53 1.63-2.24 2.38-.41.44-4.84 5.15-2.28 2.42-1.78 1.89.1-.14c2.29-3.1 3.8-6.16 5.07-9.05.87-2 1.62-3.92 2.4-5.72a46.62 46.62 0 0 1 1.7-3.44 16.31 16.31 0 0 1 4.66-5.36c2.85-2.05 6.9-3.44 13.1-3.9 1.14-.21 2.26-.49 3.36-.83h.02Z" fill="#2B2B37"/><path d="M125.8 94.55c-2.69 1.75-5.9 2.47-9.16 2.59.6-4.6-.61-12.7-.62-12.78-.1-.8-.22-1.65-.64-2.37-.2-.35-.68-.03-.47.31.39.67.45 1.51.54 2.26.01.07 1.3 7.63.59 12.58-4.73.06-13.57-1.32-17.2-4.57-.24-.2-.74.09-.48.4.01.03.26.22.7.5 2.24 1.71 8.82 4.33 16.87 4.28l-.02.11c-.6 2.8-4.13 12.32-6.63 13.71-.32.18.03.7.35.52 2.64-1.48 6.11-10.93 6.82-13.88l.1-.47c.47-.02.94-.04 1.42-.08a17.43 17.43 0 0 0 8.17-2.6c.33-.2-.03-.72-.34-.51Z" fill="#2B2B37"/><path opacity=".08" d="M76.7 104.87a2.8 2.8 0 0 1-.55 1.68c-.27.4-.6.77-.96 1.09-.3.25-.62.48-.87.78-1.26 1.5-.34 4.31-1.8 5.6-.2.17-.44.31-.7.36-.6.1-1.24-.25-1.63-.76a3.05 3.05 0 0 1-.53-1.13v-.01a22.16 22.16 0 0 1 2.83-7.6c.53-.44 1.1-.83 1.71-1.16.46-.25.99-.48 1.5-.3.58.18.96.83 1 1.45Z" fill="#D8D8D8"/><path d="m129.15 66.41-.03.02.03-.02ZM151.64 68.24l-.19.13.19-.13Z" fill="#B45F00"/><path d="m158.84 56.12 2.09 2.98 1.09-1.12-2.2-2.58-.98.72ZM157.35 65.02s-.62.57 1.15 2.7l.44-.5-1.6-2.2ZM157.46 59.73s1.1 2.75 3.81 5.27l.75-.87-4.56-4.4Z" fill="#7C517C" style="mix-blend-mode:multiply" opacity=".36"/><path d="M184.67 88.75a21.04 21.04 0 0 1-5.86-2.04c-2.58-1.4-3.74-2.97-4.58-3.8l-.19-.17c-.1-.1-.2-.17-.3-.23l-.17-.11-.12-.08a18.59 18.59 0 0 1-1.9-1.59h-.01a23.85 23.85 0 0 1-2.37-2.6l-.18-.22-.17-.23a8.38 8.38 0 0 1-.12-.18 13.3 13.3 0 0 1-.78-1.23c-.17-.3-.3-.6-.42-.9a5.45 5.45 0 0 1-.32-1.23c-.13-1.3.2-2.55.7-3.74.02-.04.03-.1.06-.14a7.5 7.5 0 0 1 .2-.44l.02-.05c.6-1.25 1.32-2.43 1.81-3.5l.02-.04.23-.55.02-.06.06-.15.14-.28a9.96 9.96 0 0 1 2.7-2.86 5.86 5.86 0 0 1 .33-.25l.06-.05.22-.16c.23-.17.47-.33.71-.48l.2-.12c1.52-.94 3.44-.21 3.65-.99.04-.12.21-.05.45.1.48.3 1.22.94 1.67 1.2l1.5.9h.01l.02.01 1.18.72 1.7 1.07.03.02.02.01.28.19c1.46.95 2.95 1.98 4.22 3.02.95.77 1.78 1.54 2.4 2.28l.19.23a6.39 6.39 0 0 1 .67 1.03c.46.92.72 2.3.78 3.91.21 6.01-2.46 15.07-8.75 13.78Z" fill="#D58500"/><path d="M163.69 53.47c.97.97 8.53 8.42 11.54 10.54 1.17.44 5.05 1.99 5.59.54.5-2.64-2.75-4.77-5.59-7.05-3-2.08-6.75-4.95-9.61-6.43-1.46-.6-2.96 1.18-1.94 2.4Z" fill="#D58500"/><path d="M158.66 55.44c1.05 1.13 10.46 10.5 11.68 11.08.2.1.47.15.78.15.17 0 .35-.01.54-.04 1.66-.22 3.8-1.54 2.31-4.27 0 0-3.37-2.57-6.76-5.04-2.91-2.13-5.83-4.19-6.64-4.49l-.13-.04c-1.67-.5-2.8 1.54-1.78 2.65Z" fill="#D58500"/><path d="M170.25 71.5a2.3 2.3 0 0 1-.74-.13c-.01 0-.03 0-.05-.02a3.12 3.12 0 0 1-.52-.37l-.06-.05-.15-.12-.22-.18a93.03 93.03 0 0 1-2.7-2.46 262.36 262.36 0 0 1-4.95-4.8l-.28-.28-.28-.28-.52-.52a.9.9 0 0 1-.05-.05l-.11-.11-.46-.46-.28-.28-.26-.26-.22-.23a25.87 25.87 0 0 0-.62-.63 1.2 1.2 0 0 1-.09-.12.7.7 0 0 1-.08-.11l-.01-.03-.03-.05a1.8 1.8 0 0 1 .84-2.35 1.3 1.3 0 0 1 .88-.05c.6.16 1 .56 1.8 1.17 1.77 1.33 5.8 3.8 9.35 6.47l2.66 2c1.65 3.02-1.18 4.32-2.85 4.3Z" fill="#D58500"/><path opacity=".36" d="M169 71.03a7.8 7.8 0 0 1-.13-.1l-.14-.12-.22-.18c-.17-.13-.34-.29-.53-.46a95.08 95.08 0 0 1-2.17-2 276.17 276.17 0 0 1-4.96-4.8l-.28-.28-.27-.28-.52-.52-.06-.05-.1-.11-.46-.46-.28-.28-.26-.26-.22-.23a24.32 24.32 0 0 0-.61-.63 1.1 1.1 0 0 1-.24-.36 1.8 1.8 0 0 1 .86-2.3c-.1.17-.17.44-.22.69l-.06.42c-.1 1.18 1.3 2.6 3.82 4.02 2.3 1.3 2.46-1.06 2.49-1.56 1.14 1.12 2.3 2.21 3.28 3.12-1.33.29-2.57 1.01-1.34 2.83.64.94 1.15 1.77 1.61 2.47.37.56.7 1.04 1.02 1.44Z" fill="#B45F00"/><path opacity=".36" d="M158.66 55.44c1.05 1.13 10.46 10.5 11.68 11.08.2.1 2.34 1.64 2.65 1.64.25 0 .5-.02.75-.06-.15-.04-.95-.56-2.08-1.46-.94-.76-2.1-1.79-3.29-3.03-2.6-2.76 2.4-3.48 2.4-3.48-.84-.98-2.23-1.74-3.29-2.58-.58.76-2.51 2.87-4.8.73-2.75-2.57-3.66-2.68-3.5-4.33.04-.53.16-.9.33-1.18-1.11.3-1.67 1.78-.85 2.67Z" fill="#B45F00"/><path opacity=".36" d="M163.37 52.32a1.83 1.83 0 0 0 .36 1.21c.76.79 5.87 5.7 9.06 8.52a18.8 18.8 0 0 0 2.44 1.96c.09.04.19.07.3.09.52.08 1.12-.1 1.7-.49-1.77.2-1.99-.43-3.94-2.13-2.3-2.42 1.04-3.8 1.82-4.08-.15-.1-.3-.2-.45-.32l-1.83-1.29c-.4.72-1.68 2.52-4.01.9-2.26-1.59-4.35-2.95-4.93-5.3-.27.24-.45.58-.52.93Z" fill="#B45F00"/><path d="M157.78 66.42c.84.91 7.08 7.13 10.13 9.85l.97.82c.26.21.46.35.58.41.08.04.18.07.28.1 1.42.37 4.54-.55 2.7-3.9l-2.74-2.1-1.77-1.34a126.42 126.42 0 0 0-8.66-6.22c-.16-.1-.32-.16-.47-.2-1.31-.3-1.97 1.56-1.02 2.57Z" fill="#D58500"/><path opacity=".36" d="M157.78 66.41c.98 1.42 8.62 7.84 11.03 11.27a23.42 23.42 0 0 0 5.41 5.23c.84.82 2 2.4 4.58 3.8l-1.64-8.74s-3.05.71-6.15-.35c-1.58-.38-3.64-2.23-5.61-5.26-1.59-2.45.2-3.1.95-3.27a213.8 213.8 0 0 0-3.8-2.84c.03.09 1.01 2.9-1.39 2.11-2.43-.8-3.1-2.49-3.07-3.25a2.3 2.3 0 0 1 .6-1.28c-1.23-.2-1.83 1.6-.9 2.59Z" fill="#B45F00"/><path opacity=".72" d="M163.73 53.53c1.04 1.08 10.3 9.92 11.5 10.48.09.03.18.07.3.09.22-.71-.39-.36-1.25-1.2-.87-.82-1.76-1.87-2.6-2.48-.84-.62-2.59-2.5-3.89-3.74-1.26-1.2-1.73-1.24-3.5-3.24-1.76-1.99 1.07-2.44 1.07-2.44-1.58-.34-2.6 1.5-1.63 2.53ZM158.66 55.44c1.05 1.14 11.24 11.09 12.47 11.67.19.1 1.44.88 1.75.88-.99-.99-4.15-3.5-5.11-4.24-.97-.74-2.91-2.7-4.4-4.19-1.45-1.45-1.98-1.49-4.01-3.87-1.77-2.08.5-2.76 1.08-2.9-1.67-.5-2.8 1.54-1.78 2.65Z" fill="#B45F00"/><path opacity=".72" d="M165.79 53.87s-.66-.18-1.15-.66c-.81-.81-.63-1.46-.63-1.46-.37.6.24 2.11 1.78 2.12ZM160.96 56.07s-.66-.19-1.15-.67c-.81-.8-.63-1.45-.63-1.45-.37.6.24 2.11 1.78 2.12ZM160.08 60.9s-.66-.19-1.14-.67c-.82-.8-.64-1.45-.64-1.45-.37.6.24 2.11 1.78 2.12ZM159.64 66.6s-.54-.14-.94-.54c-.67-.67-.52-1.2-.52-1.2-.3.5.2 1.74 1.46 1.75Z" fill="#B45F00"/><path opacity=".72" d="M170.28 71.38c0 .05 0 .09-.03.12-.1.12-.34.14-.55.1a1.04 1.04 0 0 1-.33-.1 23.3 23.3 0 0 1-1.76-1.31c-.22-.2-.41-.4-.59-.6l.91.67.05-.09a92.79 92.79 0 0 1-2.18-2 262.37 262.37 0 0 1-4.95-4.8l-.28-.28-.28-.28-.52-.52a1.4 1.4 0 0 1-.05-.05l-.11-.11-.46-.47-.28-.28-.25-.26-.23-.23a27.88 27.88 0 0 0-.61-.63 1.07 1.07 0 0 1-.1-.1v-.02a.7.7 0 0 1-.08-.1 1.8 1.8 0 0 1 .8-2.43 1.3 1.3 0 0 1 .88-.05c-.3.1-.75.37-1.1.74-.53.59-.78 1.42.21 2.23 1.75 1.4 2.08 2.13 3.36 3.42a50.38 50.38 0 0 0 4.22 3.66c.65.5 1.34 1.26 2.02 1.99l.16.18.45.46.03.02c.28.28.62.46.99.6.19.07.5.12.61.32a.4.4 0 0 1 .05.2ZM157.78 66.42c.84.91 7.08 7.13 10.13 9.85.26.47.57.94.9 1.41.07-.19.1-.39.07-.6a1.37 1.37 0 0 0-.42-.69c-.32-.32-.64-.67-.97-1.02-.56-.6-1.13-1.2-1.67-1.62-.85-.65-2.63-2.63-3.95-3.95-1.28-1.28-1.83-1.02-3.62-3.13-1.18-1.38-.23-2.41.55-2.82-1.31-.31-1.97 1.55-1.02 2.56Z" fill="#B45F00"/><path opacity=".37" d="M166.46 53.48c.42-.19.66-.57.54-.86-.13-.28-.58-.35-1-.16-.43.19-.67.58-.54.86.12.28.57.36 1 .16ZM161.64 55.3c.42-.2.66-.59.54-.87-.13-.28-.58-.36-1-.17-.43.2-.67.58-.55.87.13.28.58.35 1 .16ZM160.76 60.17c.31-.26.43-.63.26-.84-.17-.2-.56-.17-.87.09-.31.25-.43.63-.26.83.17.21.56.17.87-.08ZM160.25 65.93c.26-.22.36-.54.21-.72-.14-.18-.47-.14-.74.07-.26.22-.36.54-.22.72.15.18.48.14.75-.07Z" fill="#E2A040"/><path d="M192.2 73.27c0 .16 0 .31-.03.45-.35 1.7-2.98.84-5.01-1.39l-.07-.08c-.5-.56-.97-1.2-1.35-1.9a8.4 8.4 0 0 1-1-4.4l.1-1.57v-.1l.02-.55.06-1.43c.15-3.76.23-6.91 1.32-8.7.71-1.16 1.97-1.67 2.65-1.31.1.04.17.1.24.17l.11.16.05.11c.12.3.12.72-.05 1.29a7.78 7.78 0 0 0-.24 1.75l-.02.7a19.23 19.23 0 0 0 .38 3.87v.02c.16.71.37 1.37.64 1.88.38.76.77 1.9 1.1 3.23l.14.52a27.01 27.01 0 0 1 .35 1.67l.03.13.05.31a39.14 39.14 0 0 1 .46 3.58c.04.54.07 1.08.07 1.58Z" fill="#D58500"/><path opacity=".36" d="M185.97 59.1c-.4-4.99 2.01-6.44 2.93-6.8-.7-.36-1.95.15-2.66 1.3-1.09 1.8-1.17 4.94-1.32 8.7-.01.72-.02 1.42-.06 2.1l3.98 1.41a13.5 13.5 0 0 1-2.88-6.72Z" fill="#B45F00"/><path opacity=".37" d="M188.98 64.42a7.52 7.52 0 0 0 2.26 1.58l-.13-.53a16.45 16.45 0 0 0-1.12-3.23 8.1 8.1 0 0 1-.63-1.88v-.02l-.14-.75c-.17.49-1.18 3.65-.24 4.83ZM188.5 55.66c.07.25.3.57.48.81 0-.23 0-.47.02-.7.03-.71.11-1.32.24-1.75.17-.56.17-.98.05-1.28a.74.74 0 0 0-.05-.1c-.55.78-1.06 2.07-.75 3.02Z" fill="#E2A040"/><path opacity=".72" d="M188.42 56c-.78-.96.28-3.16.45-3.43-.88.7-1.28 2.66-.45 3.43Z" fill="#B45F00"/><path d="M211.7 116.57v.01l.22.3a58.65 58.65 0 0 0 2.4 3.08 42.55 42.55 0 0 0 3.25 3.5l.1.1c.85.82 1.73 1.63 2.63 2.42 4.16 3.33 8.2 9.49 14.33 7.18a16.7 16.7 0 0 0 3.54-1.31l.04-.02.03-.01.01-.01a27.71 27.71 0 0 0 8.1-6.31l.01-.02c2.39-2.73 4.04-5.82 4.12-8.67-.09-.69-.2-1.37-.34-2.03v-.01a22.17 22.17 0 0 0-2.83-7.6c-3.21-5.39-8.53-9.34-14.4-11.82-2.27-2.05-5.08-3.68-8.26-2.87-.05 0-.1.02-.15.04h-.02l-.07.02a2.6 2.6 0 0 0-.34.1l-.23.06c-.11.04-.22.07-.32.12l-.04.01-.2.08-.24.1a4 4 0 0 0-.47.22l-.6.33v.48l-.01.14v.34l-.01.05v.03l-.01.27-.03.5-.01.16-.04.45-.05.52v.1l-.02.13-.06.49-.06.42a16.54 16.54 0 0 1-.25 1.49v.01l-.03.15-.04.15-.04.22v.02l-.12.48-.06.24-.14.57v.03l-.02.05-.1.4-.12.42-.02.05a7 7 0 0 1-.08.3l-.15.47v.01a32.42 32.42 0 0 1-3.51 7.52l-.27.4-.01.04-.6.86a16.18 16.18 0 0 1-.55.76 26.48 26.48 0 0 1-.89 1.14l-.02.03-.22.26-.24.28-.01.01v.01l-.08.09-.05.05a4.1 4.1 0 0 1-.2.22l-.12.15-.17.18-.52.54c-.43.46-.88.9-1.35 1.33Z" fill="#464558"/><path opacity=".25" d="M211.7 116.57v.01l.22.3a58.65 58.65 0 0 0 2.4 3.08 42.55 42.55 0 0 0 3.25 3.5l.1.1c.85.82 1.73 1.63 2.63 2.42 4.16 3.33 8.2 9.49 14.33 7.18a16.7 16.7 0 0 0 3.54-1.31l.04-.02.03-.01.01-.01a27.71 27.71 0 0 0 8.1-6.31l.01-.02c2.39-2.73 4.04-5.82 4.12-8.67-.09-.69-.2-1.37-.34-2.03v-.01a22.17 22.17 0 0 0-2.83-7.6c-3.21-5.39-8.53-9.34-14.4-11.82-2.27-2.05-5.08-3.68-8.26-2.87-.05 0-.1.02-.15.04h-.02l-.07.02a2.6 2.6 0 0 0-.34.1l-.23.06c-.11.04-.22.07-.32.12l-.04.01-.2.08-.24.1a4 4 0 0 0-.47.22l-.6.33v.48l-.01.14v.34l-.01.05v.03l-.01.27-.03.5-.01.16-.04.45-.05.52v.1l-.02.13-.06.49-.06.42a16.54 16.54 0 0 1-.25 1.49v.01l-.03.15-.04.15-.04.22v.02l-.12.48-.06.24-.14.57v.03l-.02.05-.1.4-.12.42-.02.05a7 7 0 0 1-.08.3l-.15.47v.01a32.42 32.42 0 0 1-3.51 7.52l-.27.4-.01.04-.6.86a16.18 16.18 0 0 1-.55.76 26.48 26.48 0 0 1-.89 1.14l-.02.03-.22.26-.24.28-.01.01v.01l-.08.09-.05.05a4.1 4.1 0 0 1-.2.22l-.12.15-.17.18-.52.54c-.43.46-.88.9-1.35 1.33Z" fill="#2B2B37"/><path opacity=".48" d="M247.32 130.1a20.07 20.07 0 0 1-2.09 1.98l-.3.25a13.44 13.44 0 0 1-1.27.95c-.1.08-.22.15-.33.22l-.34.22c-.32.2-.65.4-.98.57-3.22 1.83-6.02 2.29-8.63 1.96-.9-.07-1.8-.22-2.7-.48-2.7-.77-4.42-1.83-6.23-2.94-2.52-1.32-5.14-2.72-8.11-3.59h-.02c-.36-.1-.72-.17-1.07-.25h-.06l-4.32-.66-2.04-.23-1-.1a107.05 107.05 0 0 1-2.52-.3l-.5-.08a63.3 63.3 0 0 0-.97-.1h-.03l-.78-.05.01-.02.02-.03.2-.42.09-.5c.24-1.35.37-2.65.39-3.9V121.41l-.02-.51v-.04l-.04-.5-.02-.14c0-.14-.01-.27-.03-.4-.04-.38-.08-.74-.14-1.1-.05-.34-.1-.67-.17-1l-.05-.22-.07-.29-.03-.15-.03-.11-.06-.22c0-.06-.02-.1-.04-.17l-.1-.36-.02-.08-.02-.06c-.15-.52-.32-1.02-.5-1.51l-.12-.3-.1-.24-.1-.23a5.61 5.61 0 0 0-.09-.25l-.1-.27-.1-.25-.43-.89-.16-.3-.18-.3c0-.03-.02-.05-.03-.07l-.03-.06c-.03-.04-.06-.08-.07-.12-.08-.13-.14-.27-.2-.4a5.38 5.38 0 0 1-.18-.4l-.16-.41-.13-.35c-.04-.13-.09-.24-.12-.37l-.07-.2a26.9 26.9 0 0 1-.85-4.06l-6.16-6.55v.02l-1.27-1.36v-.02l-.13-.57c-.15-.73-.25-1.21-.3-1.38a3.74 3.74 0 0 1 1.8.64 20.94 20.94 0 0 1 2.62 1.93l1.27 1.18c.6.58 1.22 1.2 1.85 1.86 1.4 1.46 2.84 3.1 4.23 4.75a196.59 196.59 0 0 1 4.48 5.53l2.4 3.13 1.71 2.33h.01a25.8 25.8 0 0 0 2.01-2.03l.15-.16a3.93 3.93 0 0 0 .25-.28l.07-.08.02-.03.24-.28.23-.29.11-.13.1-.12.02-.02.01-.02.2-.27.46-.57.06-.1a.23.23 0 0 0 .03-.03l.06-.08v-.01c.02-.01.03-.02.03-.04l.1-.13.1-.12.17-.26a15.47 15.47 0 0 0 .59-.86 32.78 32.78 0 0 0 1.6-2.73l.2-.38.18-.37.3-.62.06-.14.05-.1.04-.1c.1-.21.2-.42.28-.63l.04-.09.03-.08.1-.21.23-.59.07-.18.04-.1.04-.1c0-.03.02-.05.03-.08l.1-.3.22-.62.03-.07a28.61 28.61 0 0 0 .3-.94l.01-.01v-.01l.1-.36.06-.19.02-.08.04-.13.01-.06a3.9 3.9 0 0 0 .1-.38l.01-.03.01-.04v-.02l.08-.27v-.04l.04-.17.01-.03.06-.24.05-.22.06-.28.07-.3.04-.22v-.01l.15-.8c.04-.23.08-.46.1-.7l.04-.24.03-.18.04-.36.03-.27v-.09l.02-.15.05-.58.03-.27v-.13l.02-.2.01-.28v-.11l.01-.2v-.19l.01-.11v-.1l.01-.14v-.45a8.16 8.16 0 0 1 2.69-1.08 7.11 7.11 0 0 1 1.34-.18c3 2.5 3.63 6.05 3.95 9.7v.01c.21 2.34.3 4.72.8 6.88.8 2.51 2.8 4.37 3.76 6.8.16 4.98 6.15 7.97 11.84 9.76v.02c.5 1.71.82 3.24.97 4.55l.01.05Z" fill="#2B2B37"/><path opacity=".48" d="M246.34 125.48v.02l.02-.02h-.02ZM211.68 116.57l.01.01.11.15.1.15h.01a51.92 51.92 0 0 0 8.38 9.1c4.17 3.33 8.21 9.5 14.33 7.18.97-.24 1.91-.57 2.83-.98l.1-.04.69-.32c-5.8 2.73-11.08-9.37-12.78-14.88-.77-2.84.5-5.6 1.41-8.25 1.27-5.4.24-11.17-1.77-16.27v-.02a8.7 8.7 0 0 0-3.13 1.16 31.07 31.07 0 0 1-2.83 12.66l-.1.2c-.23.5-.48 1-.74 1.5v.02a32 32 0 0 1-6.62 8.63Z" fill="#2B2B37"/><path d="M224.97 95.81a51.76 51.76 0 0 1-.03.7l-.01.3-.03.38-.03.34a24.58 24.58 0 0 1-.77 4.14l-.31 1-.11.33a23.6 23.6 0 0 1-1.59 3.58l-.02.04a27.17 27.17 0 0 1-10.15 10.26h-.01c-.34.2-.7.41-1.06.6l-11.66-12.4-6.17-6.55-1.28-1.36c-1.36-1.46-2.57-2.74-3.52-3.74l.01-.02h.01l-.2-.16c-1.91-1.57-4.02-2.86-6.12-4.17-.79-.51-1.66-1.07-2.42-1.58a36.94 36.94 0 0 1-2.75-2.05l-.45-.37-.6-.5-.23-.2a49.5 49.5 0 0 1-1.7-1.46 1.1 1.1 0 0 1 .05-.32v-.03c.18-.67.62-2.26.96-4.36.48-2.92.76-6.82-.14-10.65h.08c1.54.06 3.49.2 5.58.33h.07c1.47.1 3.01.2 4.53.25l1.02.04c.84.02 1.68.04 2.49.04l.78-.01a63.74 63.74 0 0 0 2.48-.12c.34-.02.66-.06.97-.1.19.29.43.7.72 1.19l.15.26.2.34a105.35 105.35 0 0 1 1.4 2.6l.48.93.29.56.36.73.36.7.23.49.2.42.03.05.12.26a67.32 67.32 0 0 1 .56 1.2c.05.1.1.2.13.3a37.96 37.96 0 0 1 1.1 2.7l.02.02c1.17.53 2.38 1.05 3.58 1.57l4.4 1.9.43.18c1.04.47 2.2.98 3.43 1.5 6.29 2.67 14.11 5.78 13.82 6.6v.02c.28 1.05.32 2.2.31 3.3Z" fill="#575771"/><path opacity=".25" d="M224.97 95.81c-.1 3.84-1.02 7.3-2.9 10.8.24-15.1-19.84-15.32-26.28-17.38-2.83-1.22-.57-4.8-.6-9.15-.03-3.03-4.23-8.71-6.79-11.88 1.2.02 3.75.02 4.25-.2 1.26 1.92 5.25 9.5 6.34 12.74 1.18.53 2.39 1.05 3.58 1.57l4.83 2.08c6.37 2.88 17.66 7.13 17.25 8.1.28 1.06.33 2.21.32 3.32Z" fill="#2B2B37"/><path opacity=".25" d="m210.94 85.91-.1-.02-2.1-.45c-1.28-.3-2.55-.61-3.82-.89a23.87 23.87 0 0 0-1.58-.32c-.63-.11-1.28-.23-1.94-.23-.31 0-.63.03-.93.13-.22.06-.44.16-.64.3a3.01 3.01 0 0 0-1.06 1.71c-.07.3-.13.6-.28.87-.2.36-.5.6-.81.85-.6.5-1.28.9-1.89 1.37a6.89 6.89 0 0 0-1.62 1.87 9.3 9.3 0 0 0-1.2 3.4 13.59 13.59 0 0 0 .05 4.03v.02l-1.27-1.36-3.53-3.76.02-.02a7.91 7.91 0 0 0-.21-.17c-2.35-1.92-5.02-3.42-7.55-5.09a33.8 33.8 0 0 1-3.31-2.41l.22.09a15.76 15.76 0 0 0 2.17.65c.69.16 1.39.27 2.1.34.68.07 1.36.1 2.05.02a5.93 5.93 0 0 0 3.62-1.77c.56-.59 1.08-1.3 1.87-1.57.58-.19 1.17-.21 1.76-.28.42-.05.85-.14 1.25-.32.14-.06.28-.14.41-.23.59-.4 1.04-1 1.4-1.62.4-.73.7-1.51.95-2.31a34.71 34.71 0 0 0 .98-4.68l1.2 2.45a83.83 83.83 0 0 1 .76 1.58l.02.03.47 1.03a9.7 9.7 0 0 1 .58 1.56v.03c1.75.78 4.7 2.05 8 3.47l.42.18 3.54 1.52Z" fill="#2B2B37"/><path d="M193.66 97.34a17.43 17.43 0 0 0 8.17 2.6c.48.04.95.07 1.43.08.02.16.06.32.1.48.7 2.94 4.17 12.4 6.81 13.87.32.19.68-.33.35-.52-2.5-1.39-6.02-10.9-6.63-13.7l-.02-.11c8.05.04 14.63-2.57 16.86-4.28.45-.29.7-.48.72-.5.25-.32-.25-.6-.48-.4-3.63 3.24-12.48 4.63-17.2 4.57-.72-4.96.57-12.51.58-12.59.1-.74.16-1.58.55-2.25.2-.35-.28-.67-.48-.32a6.07 6.07 0 0 0-.64 2.38c0 .07-1.23 8.18-.62 12.77-3.25-.11-6.47-.83-9.16-2.59-.31-.2-.66.32-.34.51Z" fill="#2B2B37"/><path opacity=".25" d="M224.97 95.81c-.02.93-.1 1.83-.22 2.73-1.8-5.56-17.69-13.51-24.3-14.42-6.6-.9-3.3-7.62-3.3-7.62l.04.02a43.06 43.06 0 0 1 1.8 4.22c1.17.53 2.38 1.05 3.58 1.57l4.83 2.08c6.36 2.88 17.66 7.13 17.25 8.1.28 1.06.33 2.21.32 3.32Z" fill="#2B2B37"/><path opacity=".14" d="M186.5 71.43c-.06 2.83-1.34 5.53-2.85 7.8a18.26 18.26 0 0 1-6.42 6h-.01l-.47.23-.08-.07-.36-.3-.6-.5-.24-.2-1.7-1.47c-.1-.16 2.63-7.9.87-15.36a369.87 369.87 0 0 0 11.27.58 8.8 8.8 0 0 1 .58 3.3Z" fill="#A4A4A4"/><path d="M138.73 87.64s2.07 4.53 3.58 5.73c0 0-2.1-1-2.37-1.87-.1-.34-1.48-2.97-1.2-3.86Z" fill="#3E5C2E"/><path fill-rule="evenodd" clip-rule="evenodd" d="M195.51 199.4a.4.4 0 0 0-.22.51l.37-.14.37-.15a.4.4 0 0 0-.52-.22Zm2.55 5.72a137.38 137.38 0 0 0-1.74-4.78l-.01-.03-.11-.27-.12-.31-.03-.08-.02-.03-.37.14-.37.15v.03l.04.08.12.3.34.89v.01l.02.03.08.22c.37.98.87 2.34 1.4 3.91a75.69 75.69 0 0 1 2.88 10.25.4.4 0 0 0 .78-.14 75.86 75.86 0 0 0-2.9-10.37Z" fill="#2B2B37"/><path d="m205 223.34.05.41c-3 .94-6.15 1.82-9.44 2.6a130.08 130.08 0 0 1-30.15 3.65c-13.22 0-25.29-2.33-35.59-5.49a135.18 135.18 0 0 1-9.38-3.26l-.77-.3-1.62-.66c.62-3.86 1.35-7.66 2.32-11.32.81-3.12 1.8-6.13 3-9 .1-.26.22-.52.33-.77a42.27 42.27 0 0 1 1.07-2.31l.23-.44.27-.53s0-.03.02-.04l.18-.34.01-.01v-.02c.1-.17.2-.34.28-.51v-.01l.22-.36.04-.06c.1-.2.22-.39.33-.57 0-.02.02-.03.03-.05l.24-.42.3-.48.6-.93c.03-.04.17-.08.42-.1.16-.03.37-.06.62-.08a48.09 48.09 0 0 1 2-.11h.03l1.82-.07.42-.01h.34c1.13-.04 2.4-.07 3.77-.1l7.62-.1 1.7-.01h.33l7.01-.05v-.1l1.61.03h.18l5.38.03H163.6l.63-.01h.33c2.06-.02 3.63-.03 4.45-.05v.1c2.68.02 5.47.03 8.19.06h.69l5.21.06h.33l1.39.03c2.72.04 5.11.1 6.9.17h.02l1 .04c1.41.08 2.27.16 2.34.27l.53.82.02.02v.02h.01v.01l.62 1 .63 1.1.33.62c.05.09.1.17.13.25.28.53.55 1.06.81 1.6v.01l.01.03a63.15 63.15 0 0 1 3.84 10.52l.3 1.1a90.84 90.84 0 0 1 .8 3.35l.16.77c0 .05.02.1.03.13l.18.9.19.91a79.28 79.28 0 0 1 .45 2.47l.2 1.2.04.22.26 1.63a69.1 69.1 0 0 1 .38 2.54Z" fill="#575770"/><path opacity=".25" d="m205 223.34.05.41c-3 .94-6.15 1.82-9.44 2.6a130.08 130.08 0 0 1-30.15 3.65c-13.22 0-25.29-2.33-35.59-5.49a135.18 135.18 0 0 1-9.38-3.26l-.77-.3-1.62-.66c.62-3.86 1.35-7.66 2.32-11.32.81-3.12 1.8-6.13 3-9 .1-.26.22-.52.33-.77a42.27 42.27 0 0 1 1.07-2.31l.23-.44.27-.53s0-.03.02-.04l.18-.34.01-.01v-.02c.1-.17.2-.34.28-.51v-.01l.22-.36.04-.06c.1-.2.22-.39.33-.57 0-.02.02-.03.03-.05l.24-.42.3-.48.6-.93c.03-.04.17-.08.42-.1.16-.03.37-.06.62-.08a48.09 48.09 0 0 1 2-.11h.03l1.82-.07.42-.01h.34c1.13-.04 2.4-.07 3.77-.1l7.62-.1 1.7-.01h.33l7.01-.05v-.1l1.61.03h.18l5.38.03H163.6l.63-.01h.33c2.06-.02 3.63-.03 4.45-.05v.1c2.68.02 5.47.03 8.19.06h.69l5.21.06h.33l1.39.03c2.72.04 5.11.1 6.9.17h.02l1 .04c1.41.08 2.27.16 2.34.27l.53.82.02.02v.02h.01v.01l.62 1 .63 1.1.33.62c.05.09.1.17.13.25.28.53.55 1.06.81 1.6v.01l.01.03a63.15 63.15 0 0 1 3.84 10.52l.3 1.1a90.84 90.84 0 0 1 .8 3.35l.16.77c0 .05.02.1.03.13l.18.9.19.91a79.28 79.28 0 0 1 .45 2.47l.2 1.2.04.22.26 1.63a69.1 69.1 0 0 1 .38 2.54Z" fill="#2B2B37"/><path d="M129.87 224.51a134.82 134.82 0 0 1-9.38-3.26l-.77-.3a104.33 104.33 0 0 1-1.64-.67c.61-3.86 1.35-7.66 2.32-11.33l.02.02a10.36 10.36 0 0 1 1.93 1.2 19.12 19.12 0 0 1 4.32 4.79 20.9 20.9 0 0 1 3.2 9.55Z" fill="#575770"/><path opacity=".25" d="m205 223.34.05.41c-3 .94-6.15 1.82-9.44 2.6-8.68 2.08-18.3 3.5-28.55 3.64a83.58 83.58 0 0 0-4.38-2.67c-4.85-2.73-10-4.75-15.08-7.03-6.02-2.7-12.11-5.84-16.94-10.29-.88-.8-1.7-1.63-2.47-2.52a28.33 28.33 0 0 1-3.9-5.67v-.01a31.61 31.61 0 0 1-.88-1.83c.1-.26.22-.52.33-.77l.34-.77a52.48 52.48 0 0 1 .74-1.54l.23-.45.26-.52.03-.04.18-.34.01-.02.01-.02a13.04 13.04 0 0 1 .49-.88c0-.02.02-.04.04-.06l.33-.57c0-.02.02-.03.03-.05l.25-.41.29-.48.6-.93c.02-.04.17-.08.41-.1.16-.03.37-.06.62-.08a50.43 50.43 0 0 1 2.01-.11h.02l1.83-.07.42-.01.33-.01 3.78-.09 7.62-.1 1.7-.01h.32l7.02-.05v-.1l1.6.03h.18l5.39.03h.5l2.27-.01H164.55c2.06-.02 3.64-.03 4.46-.05v.1c2.67.01 5.47.03 8.19.06h.68l5.22.06h.33l1.38.02c2.72.05 5.12.1 6.9.18h.02l1 .04c1.42.08 2.27.16 2.34.27.19.27.36.54.54.82l.01.02.01.02.01.01.61 1c.22.36.43.73.63 1.1.12.2.22.41.33.62h.01l.13.25c.27.53.55 1.06.8 1.6l.02.03a62.93 62.93 0 0 1 3.83 10.53l.3 1.1c.25.97.49 1.96.71 2.95l.09.4.17.77.02.13.19.9.18.91.38 2 .08.47.2 1.2.04.21.26 1.63.18 1.21.2 1.34Z" fill="#2B2B37"/><path opacity=".25" d="m205 223.34.05.41c-3 .94-6.15 1.82-9.44 2.6a90.27 90.27 0 0 0-7.89-4.46 108.12 108.12 0 0 0-5.95-2.78c-3.73-1.63-7.53-3.1-11.34-4.47-2.47-.88-5.01-1.54-7.54-2.25-3.53-1-7.06-2.02-10.55-3.14-4.85-1.56-9.79-3.25-14.45-5.45a59.46 59.46 0 0 1-7.75-4.36c-.6-.4-1.2-.84-1.77-1.3a23.86 23.86 0 0 1-2.85-2.6h-.01v-.02l.01-.02.3-.51a40.18 40.18 0 0 1 1.75-2.9c.02-.03.15-.07.38-.1l.63-.07c.43-.03 1-.07 1.68-.1l.35-.02h.03l1.79-.06.45-.01.29-.01 3.83-.09a846.42 846.42 0 0 1 9.3-.11h.31l7.03-.05v-.1l1.02.01h.05a1143.77 1143.77 0 0 0 6.61.05h2.25l1.32-.02h.14l3.97-.04v.1c2.68.01 5.46.03 8.18.06h.73a619 619 0 0 1 13.82.26h.02l.98.05c1.42.07 2.27.15 2.34.26l.55.84v.02l.01.01.01.01a32.4 32.4 0 0 1 1.25 2.1l.33.62c.05.09.1.17.13.25.28.53.55 1.06.81 1.6v.01l.01.03a62.04 62.04 0 0 1 3.83 10.53l.3 1.1c.25.97.49 1.96.71 2.95l.09.4.17.77.02.13.19.9.18.91.45 2.46.24 1.42a164.8 164.8 0 0 1 .64 4.18Z" fill="#2B2B37"/><path fill-rule="evenodd" clip-rule="evenodd" d="m125.05 202.07-.02.02s0 .03-.03.06l-.11.26-.13.28a37.18 37.18 0 0 0-1.72 4.9c-.23.77-.46 1.63-.69 2.57a80.48 80.48 0 0 0-1.86 11.09l-.77-.3a81.29 81.29 0 0 1 2.56-13.58 46.85 46.85 0 0 1 1.88-5.29l.13-.27.03-.07.01-.02v-.01a.4.4 0 0 1 .54-.17c.2.1.28.34.18.53Z" fill="#2B2B37"/><path d="M197.3 195.65c-10.8 8.12-31.2 11.04-48.94 8.82-2.5-.32-4.96-.73-7.33-1.25a64.57 64.57 0 0 1-7.23-2 48.18 48.18 0 0 1-6.21-2.61c-.97-.5-1.9-1.02-2.76-1.57-.08-3.3-.24-6.57-.3-9.83v-.86a161.57 161.57 0 0 0 15.5 3.45l.97.16c.66.11 1.3.21 1.96.3 18.39 2.65 35.13 1.04 53.62-4.18.1 3.2.36 6.37.73 9.57Z" fill="#2B2B37"/><path opacity=".46" d="M197.3 195.65c-1.24.92-2.6 1.78-4.07 2.58a44.5 44.5 0 0 1-5.71 2.55 62.01 62.01 0 0 1-7.14 2.14 91.6 91.6 0 0 1-21.27 2.24c1.43-.47 2.9-1.11 4.21-1.86.98-.53 2.14-1.39 2.1-2.7-.02-.89-.72-1.32-1.23-1.9-.93-1.1 1.1-1.85 1.78-2.2.9-.48 1.31-1.46.63-2.36-.77-1.04-2.08-1.4-2.9-2.36-.1-.11-.16-.21-.22-.3 5.73-.17 11.4-.76 17.16-1.75l.79-.14a136.18 136.18 0 0 0 4.5-.88c3.5-.74 7.04-1.62 10.66-2.63.1 3.2.35 6.37.7 9.57Z" fill="#21212B"/><path d="M197.3 195.65c-1.23.93-2.6 1.8-4.07 2.58a51.6 51.6 0 0 1-11.36 4.33c.1-.83.13-1.52.66-2.26.32-.48.7-.89.92-1.41.41-1.03.12-1.87-.47-2.73-.52-.79-1.03-1.36-.6-2.32.2-.45.5-.82.72-1.25.3-.62.46-1.33.36-2-.03-.25-.1-.5-.2-.73a2.2 2.2 0 0 0-.36-.55 157.9 157.9 0 0 0 13.68-3.24c.12 3.2.36 6.38.73 9.58Z" fill="#21212B"/><path opacity=".25" d="M140.37 194.63a3.68 3.68 0 0 0-2.3-1.38c-.88-.19-1.78-.21-2.68-.35-1.33-.2-2.53-.92-3.7-1.57-.75-.4-2.45-1.8-3.3-1.06-.25.22-.39.53-.55.82-.08.18-.17.36-.13.55.04.22.21.34.39.45 1.16.73 1.49.93 2.16 2.18.72 1.36 2.2 2.04 3.6 2.51 1.1.38 2.23.7 3.37.97 1.08.25 2.37.4 3.12-.46.63-.74.55-1.9.02-2.66ZM161 191.51c-5.28.04-10.63-.28-16.12-.98.65.3 1.13.66 1.92 1.5 1.39 1.48 3.5 1.83 5.48 1.95 1.55.1 3.1.1 4.65.04 1.45-.06 3.18-.31 3.84-1.69.14-.27.22-.55.23-.82Z" fill="#464557"/><path d="M201.56 193.76c-7.4 7.37-10.05 14.94-6.91 25.73h-.07l-.92.22-.43.12a25.59 25.59 0 0 0-3.3 1.08c-.6.24-1.19.5-1.78.78l-.28.13-.29.14c-1.5.76-2.94 1.65-4.3 2.67-5.03-11.98 1.77-25.28 10.3-35.04h.01c5.96-6.84 14.72-13.87 10.8-25.46l-.17-.45-.17-.46c-.7-1.8-1.7-3.7-3.04-5.72a57.4 57.4 0 0 0-7.08-8.44l-.4-.4-.4-.38-.88-.86-.92-.87c-.63-.58-1.29-1.18-1.97-1.78l-2.67-2.36c-6.07-5.37-12.12-11.06-14.99-18.6a17.5 17.5 0 0 1-.48-1.37c-1.59-4.95-1.71-10.2-1.1-15.44.44-3.93 1.29-7.85 2.22-11.66 2.04-.19 1.3-.19 2.78-.56-2.13 3.92.44 11.4.66 16.01l.02.32c.4 13.78 3.64 20.91 11.4 27.65a65.48 65.48 0 0 0 4.78 3.74c1.02.72 2.08 1.45 3.2 2.2 5.63 3.78 11.53 7.4 15.86 12.62h-.01c.13.18.27.34.4.5l.41.52a44.02 44.02 0 0 1 1.84 2.59 34.97 34.97 0 0 1 .8 1.31 25.03 25.03 0 0 1 2.16 5.05l.16.6.1.44.03.15.1.5v.08l.1.55v.01a17.08 17.08 0 0 1 .14 1.57v.02c.48 11.63-12.04 18.91-15.7 22.55Z" fill="#74A352"/><path d="M202.78 192.64c-.5.42-.92.8-1.28 1.15a41.31 41.31 0 0 0-2.71 2.98 29.31 29.31 0 0 0-1.5 2 22.02 22.02 0 0 0-3.5 7.8c-.86 3.83-.63 8.05.8 12.93-.33.07-.6.17-.92.23l-.01-.02a30.1 30.1 0 0 1-2.02-5.4c-1.67-5.67-2.84-11.77.44-17.06 5.1-8.2 16.2-11.82 19.64-21.03 2.54-6.83.24-14.46-4.68-19.46-3.45-3.48-8-5.86-12.77-7.36l-.34-.34-.41-.4-.38-.38-.9-.86-.92-.87a97.76 97.76 0 0 0-1.96-1.78l-2.67-2.36c-6.08-5.37-12.12-11.05-15-18.6l-.24-.69-.23-.68c-1.59-4.95-1.71-10.2-1.1-15.43a85 85 0 0 1 1.78-9.81l.44-1.86c2.04-.19 1.3-.19 2.78-.56-1.67 3.07-.45 8.34.26 12.69.2 1.2.35 2.33.4 3.32l.01.32c.15 5.1.69 9.29 1.7 12.88 1.72 6.12 4.82 10.52 9.71 14.77a65.21 65.21 0 0 0 5.95 4.56l2.03 1.38c5.63 3.78 11.52 7.4 15.85 12.62h-.02l.42.5.41.52a34.66 34.66 0 0 1 2.64 3.9 25.16 25.16 0 0 1 1.48 3.07c.27.67.5 1.33.67 1.98a21.64 21.64 0 0 1 .39 1.7l.02.07.15 1.11c1.16 11.1-9.57 18.4-14.41 22.47Z" fill="#568040"/><path opacity=".49" d="M188.94 203.69c.38-5.2 2.9-9.85 5.04-14.53l-.4.42c-4.13 4.76-7.86 10.33-10.02 16.18 1.47 2.5 1.33 6.7 1.1 9.14-.2 2.18-.35 4.54-1.59 6.38-.22.29-.43.6-.61.9.21.82.5 1.6.82 2.42a29.19 29.19 0 0 1 9.95-4.77c-3.7-4.17-4.66-10.7-4.3-16.16l.01.02ZM202.77 178.6c3.02-2.27 7.52-6.57 6.23-10.87-1.15-3.84-4.2-6.65-7.06-9.36l-1.01-.94c6.13 9.06 5.1 15.66 1.83 21.17Z" fill="#AED888"/><path d="M194.42 200.54a16.56 16.56 0 0 0-.62 6.17c.98-4.75 3.67-8.9 7.73-12.97.36-.34.76-.72 1.25-1.1-3.69 1.6-7.07 3.75-8.36 7.91Z" fill="#3E5C2E"/><path d="M193.15 143.32c-2.5-.37-5.32-.83-6.46-.91-4-3.54-8-7.22-11.07-11.47a31 31 0 0 1-4.17-7.82v-.01l-.23-.67a34 34 0 0 1-1.38-12.3 67.68 67.68 0 0 1 .75-6.54c.36-2.15.81-4.3 1.3-6.4.66 2.22 1.9 6.3 3.5 10.27.19 1.2.34 2.33.4 3.33v.3c.07 2.36.22 4.52.47 6.5a42.77 42.77 0 0 0 1.23 6.4c1.72 6.12 4.82 10.52 9.71 14.76a65.48 65.48 0 0 0 5.95 4.56Z" fill="#74A352"/><path opacity=".49" d="M175.62 130.94a31 31 0 0 1-4.17-7.82v-.01l-.23-.67a34 34 0 0 1-1.38-12.3l.22-.25s5.31 11.2 5.56 21.05Z" fill="#AED888"/><path d="M193.15 143.32c-14.49-6.5-17.39-22.3-17.45-22.63-.9-4.57-5.1-17.1-5.1-17.1.35-2.15.8-4.29 1.3-6.4.65 2.23 1.9 6.31 3.48 10.28.2 1.2.35 2.33.4 3.32l.01.32c.07 2.34.22 4.5.47 6.5.14 1.2.32 2.34.53 3.44l.12.53a35.66 35.66 0 0 0 .58 2.41c1.72 6.12 4.82 10.52 9.71 14.77a65.48 65.48 0 0 0 5.95 4.56Z" fill="#568040"/></svg>