<svg width="320" height="260" fill="none" xmlns="http://www.w3.org/2000/svg"><path d="M143.72 131.16a17.67 17.67 0 0 1-13.72 4.68 20.2 20.2 0 0 1-13-6.68c-4.8-5.35-5.9-10.34-22.35-7.15-4.97.96-10.05 1.88-15.09 1.25-20.18-2.53-11.53-27.66-27.21-20.98-2.17.92-2.9 5.36-4.7 6.84-3.84 3.12-8.76-1.46-14.75-3.46-5.87-1.94-12.99-2.19-16.1 6.93L11 105c12.18-11.59 26.11-.66 28.82.41 2.76 1.08 6.14 1.32 8.48-.5 1.46-1.15 2.27-2.9 3.53-4.25 9.13-9.82 25.08 5.63 30.34 9.3 4.31 3 9.23 5.51 14.49 5.61 26.38.5 22.8 17.12 47.06 15.6Z" fill="#74A352"/><path d="m16.8 112.58-5.8-7.6a18.02 18.02 0 0 1 10.29-5.14A21.9 21.9 0 0 0 20 102.2a25.91 25.91 0 0 0-2.25 8.1c-.35.7-.67 1.45-.96 2.28Z" fill="#3E5C2E"/><path d="M47.78 105.26c-3.04 5.46-2.96 4.37-14.88.42-5.28-1.77-11.57-2.14-15.05 4.47a11.9 11.9 0 0 1 2.32-3.67c2.67-2.8 6.97-5.16 10.95-4.71 3.32.37 5.96 2.83 9.1 3.77.04.03.1.04.15.04 2.44.84 5.27.98 7.41-.32ZM47.65 109.1c-.27.24-.54.4-.83.55a30.62 30.62 0 0 0 1.98-5.2c1.16-1.13 1.93-2.62 3.04-3.82a9.61 9.61 0 0 1 6.09-3.13 14.12 14.12 0 0 0-3.26 3.96c-.7.2-1.47.47-2.32.82-2.17.92-2.9 5.36-4.7 6.82Z" fill="#568040"/><path opacity=".49" d="m81.7 109.6.47.35c4.31 3 9.24 5.51 14.5 5.61 1.35.02 2.62.1 3.82.2C71.92 128 71.65 102.66 63.4 98.1c7.17 2.12 14.56 8.73 18.19 11.42l.1.08Z" fill="#AED888"/><path d="M105.7 117.47a8.24 8.24 0 0 1 5.2 3.55c.6.87 1.06 1.82 1.4 2.81-2.93-2.57-7.19-3.86-17.64-1.83-1.3.24-2.61.48-3.92.7 3.62-1.8 7.05-4.06 10.97-5a9.76 9.76 0 0 1 3.98-.23Z" fill="#3E5C2E"/><path opacity=".49" d="M73.79 103.58c3.57 2.51 6.6 5.12 8.38 6.37a39.57 39.57 0 0 0 6.33 3.65c-.47.13-.93.24-1.43.3-3.74.43-6.51-1.15-8.83-4-1.63-2-2.93-4.23-4.45-6.32Z" fill="#AED888"/><path d="M36.7 87.58c1.79 2.81 6.76 3.87 10.86 3.65C51.67 91 64.07 89 68.58 88.5c4.5-.52 18.13.7 18.13.7s12.74 2.23 4.95-.64c-12.83-4.75-20.64-5.2-42.1.09-10.34 2.55-15.35-5.9-13.85-11.09 0 0-.78 7.23.99 10.02Z" fill="#74A352"/><path d="M158 132.5c-7.93-9.17-21.58-3.47-27.63-1.2-25.24 9.45-34.08-3.98-30.52-19.5.1-.4.33-1.49.62-2.62 5.54-29.06-45.67-17.37-52.56-17.55-7.06-.17-13.24-1.96-16.23-11.86 10.58 11.54 11.21 12.9 25.53 9.72 8.04-1.8 16.3-2.44 24.52-2.29 3.27.05 6.58.26 9.7 1.28 2.15.7 4.18 1.77 6 3.17a14.95 14.95 0 0 1 4.15 4.7c4.26 7.9-2.73 35.17 26.38 31.12 8.6-1.19 26.27-5.54 30.04 5.04Z" fill="#3E5C2E"/><path d="M47.93 91.63c-7.06-.17-13.24-1.96-16.23-11.86 10.58 11.54 11.21 12.9 25.53 9.72 8.04-1.8 16.3-2.44 24.52-2.29 3.27.05 6.58.26 9.7 1.28 2.15.7 4.18 1.77 6 3.17a14.95 14.95 0 0 1 4.16 4.7c1.3 2.42 1.55 6.67 2.11 11.28a39.1 39.1 0 0 1-3.14 6.75c-.47.79-.96 1.55-1.44 2.3.08-1.6.32-3.22.7-4.88.1-.4.32-1.5.62-2.63C106 80.12 54.79 91.78 47.93 91.63ZM157.98 132.5c-7.93-9.17-21.58-3.47-27.63-1.2-11.13 4.17-19.07 3.87-24.16.93-4.72-6.9-4.9-15.04-2.3-22.94 1.4 10 4.94 20.84 24.07 18.18 8.59-1.19 26.27-5.54 30.02 5.04Z" fill="#568040"/><path d="M105.78 117.26c2.34 6.26 7.22 11.18 18.61 10.56-.88.73-1.8 1.38-2.81 1.84-3.6 1.65-8.03 1.35-11.1-1.38-2.55-2.29-3.65-5.83-4.35-9.19a33.5 33.5 0 0 1-.35-1.83Z" fill="#74A352"/><path d="M24.19 42c-.81 3.26-2.44 6.58-.44 10.85 1.48 3.18 7.9 8.82 7.59 20.26-.05 1.58-.23 3.17-.05 4.73.64 5.55 5.5 11.2 12.26 12.49-3.87-1.4-6.96-6.07-7.5-8.83-.17-.87-.16-1.77-.13-2.67.13-4.05.9-8.2-.1-12.1-1-3.88-3.57-7.01-5.92-10.16-2.87-3.81-1.62-11-.38-13.33A64.39 64.39 0 0 1 24.2 42Z" fill="#568040"/><path opacity=".32" d="M31.3 77.84c-.19-1.56 0-3.15.04-4.72.22-8.03-2.87-13.19-5.24-16.65 14.65 11.91 7.77 12.62 5.33 22.24l-.13-.87Z" fill="#3E5C2E"/><path d="M32.92 69.4c-.12 1.73-.88 3.27-1.63 4.8a25.37 25.37 0 0 0-2.99-14.14c2.83 2.24 4.92 5.56 4.62 9.34Z" fill="#3E5C2E"/><path d="M31.53 58.72c-.35-.23-.68-.48-1-.72-7.1-5.15-2.34-12.42-1.65-13.05-.91 3.13-1.31 8.5 1.03 11.63l1.62 2.14Z" fill="#74A352"/><path d="M100.47 109.1c2.16-15.43-12.46-19.8-27.04-19.65 5.33-.6 13.88-.91 18.97.86 7.95 2.78 12.48 13.03 8.07 18.8Z" fill="#3E5C2E"/><path d="M197.92 207.96c-5.18 16.03-35.71 25.1-54.11 22.64-15.34-1.42-30.8-10.54-39.5-22.98l15.69-16.4 62.85-2.2 4.93 6.2 8.67 10.9 1.47 1.84Z" fill="#575770"/><path opacity=".14" d="M196.45 206.12c-3.63 3.1-7.65 5.52-10.03 5.77-3.76.4-6.72-3.67-6.46-7.44.18-2.51 3.57-6.28 7.82-9.23l8.67 10.9Z" fill="#D8D8D8"/><path opacity=".25" d="M184.3 222.44c-26.69 14.46-61.77 10.93-79.99-14.82l15.69-16.4 62.85-2.2 2.9 3.66s-26.64 23.48-1.45 29.76Z" fill="#2B2B37"/><path opacity=".25" d="M184.3 190.86s-11.91 15.74-52.42 10.63c-12.18-1.53-21.03 1.3-27.46 6.02l14.16-14.8 1.42-1.49 15.8-.55 47.05-1.64 1.45 1.83Z" fill="#2B2B37"/><path opacity=".25" d="M172 195.27c-31.82 10.93-51.61-1.38-53.42-2.57l1.42-1.48 15.8-.55 36.2 4.6ZM164.56 229.43c-2.36.45-4.87.83-7.57 1.12-17.44 1.9-30.46-3.6-39.2-9.7 0 0 12-18.31 31.26-13.9 14.3 3.28 15.72 16.1 15.51 22.48Z" fill="#2B2B37"/><path d="M118.89 148.8c-1.32 2.2-2.55 3.48-3.58 3.5-7.05.18-11.68-19.23-17.13-19.57-3.16-.2-10.12-6.95-15.4-13.26v-.01a74.04 74.04 0 0 1-4.47-5.89c-1.38-2.04-2.23-3.67-2.22-4.47.03-3.55-7.18-4.96-11.57-9.65a49.2 49.2 0 0 1-3.04-3.66c-3.33-4.4-7.75-11.56-6.58-17.05.54-2.56 12.18-5.78 15.72-6.7l1.01-.26c1.73-.38 3.51-.6 5.33-.7 20.8-.97 46.7 15.95 53.79 18.84 6.59 2.68-4.19 46.1-11.86 58.88Z" fill="#464558"/><path opacity=".25" d="M113.22 134.38s-14.36-3.35-16.4-15.6c-2.04-12.26-10.34-14.52-14.68-17.73-7.78-5.76 5.35-25.15 18.36-26.52 13-1.36 39.66 3 39.6 10.18-.05 7.18-26.88 49.67-26.88 49.67Z" fill="#2B2B37"/><path opacity=".25" d="m126.63 111.33-7.74 37.47c-1.32 2.2-2.55 3.48-3.58 3.5-7.05.18-11.68-19.23-17.13-19.57-3.16-.2-10.12-6.95-15.4-13.26v-.01s16.77.68 20.51-3.06c3.74-3.75 11.01-14.7 11.01-14.7l12.33 9.63Z" fill="#2B2B37"/><path opacity=".29" d="M97.67 74.64s-4.12 5.34-3.34 7.89c.8 2.55 22.33 22.88 30.45 22.93 8.12.05 18.94-8.65 17.95-11.96-.98-3.31-45.06-18.86-45.06-18.86Z" fill="#2B2B37"/><path opacity=".25" d="M84.53 89.5c-30.33.35-13.91-17.46-13.91-17.46l1.01-.26c1.73-.38 3.51-.6 5.33-.7 11.89 2.39 32.09 18.15 7.57 18.43Z" fill="#2B2B37"/><path opacity=".7" d="M111.12 117.42s-1.93 15.69.06 19.08c1.98 3.38-.4 4.4 1.3 11.56.25 1.04 3.06 5.44 3.06 5.44v-34.04l-4.42-2.04Z" fill="#2B2B37"/><path d="M200.98 130.7c-.03 2-7.95 4.96-8.17 6.8a168.3 168.3 0 0 1-1.6 10.95 107.57 107.57 0 0 1-3.5 14.15 72.8 72.8 0 0 1-3.4 8.6c-1 2.1-1.34 4.3-1.43 6.17-.1 2.65.34 4.6.34 4.6l-27.51 5.23-6.43-.35-21.4-1.13-4.17-.22c-6.2-6.9-9.82-37.87-9.82-37.87-1.5-9.68-1-19.61.67-28.52a80.34 80.34 0 0 1 6.09-19.36c2.54-5.35 5.4-9.2 8.07-10.77 2.97-1.75 9.49-1.35 17.1-.05 13.93 2.39 31.5 7.8 37.4 8.54.75.1 1.49.24 2.23.44 8.3 2.22 15.84 11.21 15.53 32.78Z" fill="#575770"/><path opacity=".25" d="M170.59 108.92s-37.43 43.83-42.22 70.5c-.1.61-.2 1.21-.28 1.8a27 27 0 0 0-.22 3.95l.01.55-1.74-.1-2.43-.13a8.95 8.95 0 0 1-.95-1.27c-5.62-8.78-8.87-36.59-8.87-36.59-1.5-9.68-1-19.61.67-28.52l.3-1.53a79.31 79.31 0 0 1 5.79-17.83c2.54-5.35 5.4-9.2 8.07-10.77 2.75-1.62 8.58-1.4 15.49-.3.53.07 1.06.16 1.6.25 13.58 7.98 24.78 19.99 24.78 19.99Z" fill="#2B2B37"/><path opacity=".25" d="M170.59 108.92s-37.43 43.83-42.22 70.5c-.1.61-.2 1.21-.28 1.8a27 27 0 0 0-.22 3.95l.01.55-1.74-.1-2.43-.13a8.95 8.95 0 0 1-.95-1.27c-5.62-8.78-8.87-36.59-8.87-36.59-1.5-9.68-1-19.61.67-28.52l.3-1.53a79.31 79.31 0 0 1 5.79-17.83c2.54-5.35 5.4-9.2 8.07-10.77 2.75-1.62 8.58-1.4 15.49-.3.53.07 1.06.16 1.6.25 13.58 7.98 24.78 19.99 24.78 19.99Z" fill="#2B2B37"/><path d="M109.08 82.36s2.78 14.6 15.86 12.91c0 0 3.46-.72 3.33-2.4-.13-1.67-19.2-10.51-19.2-10.51Z" fill="#2B2B37"/><path opacity=".25" d="M192.62 139.08c-.42 3.44-.9 6.55-1.42 9.37 0 0-13.6 9.06-28.29 16.75-14.69 7.7-5.95 19.34-5.95 19.34s-3.3 1.16-7.68 2.31l-21.4-1.13c-1.78-8.4 7.35-49.35 19.3-48.96 9.04.3 33.93.38 45.44 2.32Z" fill="#2B2B37"/><path opacity=".25" d="M152.72 142.5s-18.5 28.64-20.7 41.95l-4.15.44s18.8-46.94 22.47-46.65c3.67.28 2.38 4.26 2.38 4.26ZM141.11 137.5s-20.04 28.17-14.97 48.12l21.03-48.86-6.06.74Z" fill="#2B2B37"/><path opacity=".25" d="M144.2 88.67c-.37 2.78-3.24 5.36-3.24 5.36s-14.86 3.27-14.86 21.84-10.42 13.96-3.4 37.63c1.15 3.91 6.5 10.4 8.84 18.38 1.01 3.44-1.5 13.3-1.5 13.3l-2.17-.29-5.11-.67c-5.62-8.78-8.87-36.59-8.87-36.59-1.5-9.68-1-19.61.67-28.52a80.34 80.34 0 0 1 6.09-19.36c2.54-5.35 5.4-9.2 8.07-10.77 2.75-1.62 8.58-1.4 15.49-.3Z" fill="#2B2B37"/><path opacity=".25" d="M113.52 126.15s10.2 23.6 25.51 22.24c15.32-1.36 10.91-19.68 10.91-19.68l-35.37-12.84-1.05 10.28Z" fill="#2B2B37"/><path opacity=".25" d="m129.43 186.43-3.3-.8-2.89-.71-.48-.7c-5.62-8.78-8.87-36.59-8.87-36.59-1.5-9.68-1-19.61.67-28.52l.3-1.53c4.03 1.08 3.75 7.01 3.75 7.01s-6.01 42.6 7.89 50.4l1.6 6.24 1.33 5.2Z" fill="#2B2B37"/><path opacity=".29" d="M114.44 120.6s3.15 12.42 11.66 14.15c8.5 1.73 6.12 5.13 8.85 6.15 2.72 1.03 9.53 1.36 9.87-2.38.34-3.74-30.38-17.92-30.38-17.92Z" fill="#2B2B37"/><path opacity=".25" d="M146.69 149.38s8.48-1.56 13.86-.93c5.37.63 28.35 3.27 31.33-4 2.97-7.29-41.54-6.21-41.54-6.21l-3.66 11.14Z" fill="#2B2B37"/><path opacity=".29" d="M149.05 144.27s30.35 6.56 38.59 1.42c8.24-5.13-37.3-7.45-37.3-7.45l-1.3 6.03Z" fill="#2B2B37"/><path opacity=".25" d="M135.23 91.73s-4.9 11.51 8.98 19.8c13.88 8.27 23.1-.53 23.1-.53l-24.87-18.28-7.21-1Z" fill="#2B2B37"/><path opacity=".25" d="M143.6 103.74s1.6 9.81 6.34 10.39c4.75.57 19.1-1.37 17.37-3.13-1.73-1.75-23.71-7.26-23.71-7.26Z" fill="#2B2B37"/><path d="M192.74 80.94c-1.29 2.44-3.1 5-3.05 6.44.06 1.44-.88 7.24-3.65 9.28-2.76 2.04-6.39 7.41-12.06 7.45-4.73.03 11.45-23.29 16.97-31.07 1.07-1.5 1.74-2.41 1.8-2.49 0 0 1.28 7.95 0 10.4Z" fill="#464558"/><path opacity=".32" d="M192.74 80.94c-1.29 2.44-3.1 5-3.05 6.44.06 1.44-.88 7.24-3.65 9.28-2.76 2.04-6.39 7.41-12.06 7.45-4.73.03 11.45-23.29 16.97-31.07 1.07-1.5 1.74-2.41 1.8-2.49 0 0 1.28 7.95 0 10.4Z" fill="#323147"/><path d="M192.45 74.55s-.04 5.43-.52 6.28c-.48.84-3.41 9.4-4.5 9.72-1.08.32 3.96-16.6 5.01-16.31" fill="#323147"/><path d="M157.09 131.16a118.6 118.6 0 0 0-5.44 9.05 444.02 444.02 0 0 0-4.96 9.17c-5.5 10.4-11.4 22.39-13.95 28.9l-.23.61a24.63 24.63 0 0 0-1.56 8.65h-4.6c-.07-2.63-.2-5.23-.24-7.83l-.01-1.56v-.06c1.02-10.13 4.81-20.21 9.8-29.64a152.36 152.36 0 0 1 6.82-11.55c12.4-19.08 27.26-33.82 28.29-37.86 2.41 0 1.36 10.43-13.92 32.11Z" fill="#2B2B37"/><path d="M132.76 178.29c-.54.08-1.1.11-1.64.1-1.7-.09-3.31-.58-4.93-1.1l-.1.86.02 1.56c.04 2.6.17 5.2.23 7.83h4.61c0-2.95.53-5.9 1.56-8.65l.25-.6ZM151.65 140.2a444.02 444.02 0 0 0-4.96 9.18c-2.86.71-8.14-.31-10.8-.93a152.36 152.36 0 0 1 6.82-11.55l8.94 3.3Z" fill="#21212B"/><path d="m189.71 84.38-.06.17c-.24.65-.5 1.3-.78 1.96l-.34.77c-.36.79-.75 1.57-1.16 2.36l-.26.46-.16.3c-7.02 12.59-19.05 19.26-26.98 14.91-8-4.38-8.81-18.28-1.81-31.06 7-12.78 19.15-19.6 27.14-15.21 2.79 1.52 4.7 4.2 5.72 7.59 1.47 4.9 1.06 11.27-1.3 17.75Z" fill="#D58500"/><path opacity=".36" d="M182.39 82.1c-1.5-.76-8.59-4.29-10.83-3.89-2.24.4 2.03-8.4 10.1-9.78 0 0-13.36-2.75-17.78 5.42-4.43 8.17-5.1 15.65-2.38 16.34 2.72.68 18.66 7.64 21.58-.61 0 0-1.96-1.9.14-5.92 0 0 .66-.78-.83-1.55Zm-5.88 7.6c-2.76.15-9.89-.27-9.73-2.1 0 0-.26-6.16 5.06-6.21 0 0 1.91 1.3 4.3 1.3 2.38 0 4.42 1.37 4.42 2.05 0 .68-1.3 4.83-4.05 4.97Z" fill="#B45F00"/><path d="M182.43 82.1c-.48-.5-5.09-3.93-11.31-4.23-.05-.01-.1-.03-.15-.02-.02 0-.06 0-.09.02l-.04-.01c-.13-.02-.16.2-.03.2h.25c5.63.96 6.4 4.56 9.72 5.2 1.15.21 2.63-.21 1.66-1.17ZM176.7 82.78c-.04.15-.07.3-.09.49-.08.98.3 1.81.83 1.86.54.05 1.05-.72 1.13-1.7.02-.18.01-.34 0-.5l-1.87-.15Z" fill="#323147"/><path fill-rule="evenodd" clip-rule="evenodd" d="M171.18 80.57a.33.33 0 0 1 .48.03c.61.69 1.19 1 1.77 1.15.5.14 1.02.15 1.61.17h.3c.7.03 1.49.09 2.34.4.87.31 1.79.87 2.8 1.88.14.13.14.35 0 .47a.33.33 0 0 1-.47 0 7.11 7.11 0 0 0-2.55-1.72 6.65 6.65 0 0 0-2.14-.36h-.29c-.59-.02-1.18-.03-1.78-.19a4.17 4.17 0 0 1-2.1-1.35.33.33 0 0 1 .03-.47Z" fill="#323147"/><path opacity=".36" d="m188.87 86.5-.34.78c-.24.16-.57.28-1.05.32-1.6.13-1.21-1.8-1.21-1.8s.07-1.06.48.14c.33.96 1.62.7 2.12.57Z" fill="#B45F00"/><path opacity=".36" d="M189.71 84.38a9.6 9.6 0 0 1-1.43-.14c-.78-.16-1.94 1.86-1.9 1.1.04-.77.53-1.83.53-1.83l3.38-2.22c1.9-12.3-7.2-13.07-7.2-13.07s4.98-1.47 7.93-1.59c1.47 4.9 1.06 11.27-1.3 17.75Z" fill="#B45F00"/><path d="m189.04 84.4-.06.42c-.18.86-.61 1.49-.97 1.42-.35-.07-.5-.83-.32-1.68l.11-.42 1.23.26Z" fill="#323147"/><path fill-rule="evenodd" clip-rule="evenodd" d="M191.39 83.47a.64.64 0 0 1-.1.47c-.51.63-.9.88-1.27.94-.3.05-.57-.05-.83-.14l-.13-.04c-.31-.1-.63-.18-1.03-.04-.4.13-.9.47-1.56 1.22-.09.1-.18.07-.2-.08a.63.63 0 0 1 .1-.46c.7-.8 1.25-1.18 1.71-1.33a1.7 1.7 0 0 1 1.13.03l.14.05c.27.09.5.17.76.13.29-.05.62-.25 1.06-.8.09-.12.19-.1.22.05Z" fill="#323147"/><path d="m186.27 94.08-.01.03c-2.61 5.12-8.29 12.18-14.21 14.46-2.47.95-8.6 1.06-13.61-.5-4.12-1.28-7.5-3.68-7.5-7.67 0-4.62 2.41-9.98 4.72-14.04a62.34 62.34 0 0 1 4.13-6.39s.32.67.94 1.63a19.8 19.8 0 0 0 3.9 4.52 13.3 13.3 0 0 0 2.15 1.47c1.07.6 2.27 1.04 3.57 1.23 4.01.6 8.57.1 11.94.11 2.32.01 4.08.25 4.74 1.26.07.11.64-1.18.68-1.03.2.96-.34 2.77-1.44 4.92Z" fill="#323147"/><path d="m186.27 94.08-.01.03c-2.61 5.12-8.29 12.18-14.21 14.46-2.47.95-8.6 1.06-13.61-.5a5.77 5.77 0 0 1-.8-2.95c-.17-6.5-2.56-14.11-1.98-18.76.2-1.66.78-2.95 1.98-3.66l.4-.23a6.7 6.7 0 0 1 2.7-.87 19.8 19.8 0 0 0 3.9 4.52s-.11 7.16 4.7 11.49c5.77 5.17 10.68 2.92 11.9 2.1 3.06-2.04 6.25-8.15 5.03-5.63Z" fill="#2B2B37"/><path d="M163.54 85.12s-.68 19.7 4.76 22.77c2.54 1.42-11.57-.34-11.57-.34l4.33-25.44 2.47 3Z" fill="#21212B"/><path d="M182.3 88.93c-8.05 10.89-15.36-1.07-15.52-1.33 1.07.58 2.27 1.03 3.57 1.22 4.01.6 8.57.1 11.94.11Z" fill="#464558"/><path d="M189.34 83.97c1.27-.62 2.1-1.53 1.85-2.04-.25-.5-1.47-.42-2.74.2-1.27.61-2.1 1.52-1.85 2.03.24.5 1.47.42 2.74-.2Z" fill="#323147"/><path d="M192.74 70.55c.01 1.35-.07 2.7-.3 4-.2 1.29-.55 2.54-1.06 3.69 0 0 .23-2.62-.43-5.2-.6-2.37-1.95-4.7-4.9-4.9a16 16 0 0 0-2.32.02c-6.1.48-14.2 4.04-18.83 9.77-4.07 5.04-3.44 17.46-2.5 24.64v.03c.16 1.17.32 2.2.47 3.03l.1.53.14.68.05.19.04.17-.16.05c-1.5.35-12.88 2.73-17.8-6.49A17.18 17.18 0 0 1 143.8 97c-2.8-10.7-2.73-16.66-1.28-22.73.34-1.43.76-2.86 1.23-4.36l.02-.04.03-.1.7-2.12c2.6-7.81 4.73-15.18 8.71-18.62a8.47 8.47 0 0 1 2.16-1.38l.02-.01a44.54 44.54 0 0 1 10.02-2.91c1.17-.21 2.16-.35 2.89-.46 2.39-.37 6.2 1.12 7.19 2.42.98 1.3 12.1 7.1 14.2 10.83a25.11 25.11 0 0 1 2.23 6.33 33.56 33.56 0 0 1 .82 6.71Z" fill="#464558"/><path opacity=".32" d="M192.74 70.55c.01 1.35-.07 2.7-.3 4a15.76 15.76 0 0 1-1.06 3.69s.15-1.7-.14-3.7c-.06-.48-.16-.99-.29-1.5-.6-2.37-1.95-4.7-4.9-4.9-2.25-.15-4.97.24-7.77 1.12-1.04.33-2.07.71-3.11 1.16-3.87 1.7-7.63 4.25-10.27 7.51-.38.47-.71 1-1.01 1.58-2.94 5.72-2.34 16.54-1.48 23.06v.03c.27 2.08.57 3.71.79 4.6l-.16.05c-1.68.4-15.7 3.32-19.24-10.26-2.53-9.68-2.72-15.48-1.66-21 .11-.58.24-1.16.38-1.73.36.83.83 1.4 1.44 1.3 1.87-.34 6.64-8.86 6.77-2.9.13 5.98 7.36 1.53 12.8-2.9 5.46-4.42 13.62-6.47 21.22-6.38 7.25.08 7.85 4.66 7.9 5.09v.03c.05.68.08 1.36.1 2.05Z" fill="#323147"/><path d="m163.2 107.2-.16.05c-1.05.25-10.2-1.7-17.8-6.49A17.17 17.17 0 0 1 143.8 97c-2.8-10.7-2.73-16.66-1.28-22.73.34-1.43.76-2.86 1.23-4.36l.02-.04.03-.1.7-2.12c2.6-7.81 4.73-15.18 8.71-18.62a8.48 8.48 0 0 1 2.16-1.38s-18.04 24.16-9.53 38.46c4.6 7.74 13.4 16.12 16.56 16.47v.03c.16 1.17.32 2.2.47 3.03l.1.53.14.68.05.19.04.17Z" fill="#323147"/><path d="M152.2 123.05c.46-.45.94-.88 1.4-1.32a71.23 71.23 0 0 0 3.25-3.22c-9.13-6.16-9.91-8.65-15.23-17.89-.07-.11.06 12.41 10.58 22.43Z" fill="#2B2B37"/><path d="M153.14 115.87a12.66 12.66 0 0 1-3.31 4.68c.73.85 1.52 1.68 2.39 2.5.45-.45.93-.88 1.4-1.31a72.28 72.28 0 0 0 3.25-3.23 66.77 66.77 0 0 1-3.72-2.64Z" fill="#21212B"/><path d="M175.17 70.42c-3.87 1.7-7.63 4.25-10.27 7.51-.38.47-.71 1-1.01 1.58-2.94 5.72-2.34 16.57-1.48 23.09-2.25-.09-2.17-6.91-2.28-10.37-.1-3.37-1.56-16.51 15.04-21.8Z" fill="#575770"/><path d="M109.47 80.13s-.21-.35-.4 2.23c-.18 2.57 3.15 6.6 6.83 8.75 7.13 4.18 9.2 3.38 10.67 1.55 1.47-1.84 1.5-6.88 1.03-7.03l-18.13-5.5Z" fill="#D58500"/><path opacity=".36" d="M127.87 87.67a12.8 12.8 0 0 1-.63 3.68c-.17.51-.4.97-.67 1.3-1.47 1.84-3.54 2.64-10.67-1.54-3.68-2.16-7-6.18-6.82-8.75.18-2.58.39-2.23.39-2.23l18.13 5.5c.2.06.3.92.27 2.04Z" fill="#B45F00"/><path opacity=".36" d="M127.87 87.67a12.8 12.8 0 0 1-.63 3.68c-.17.51-.4.97-.67 1.3-1.47 1.84-3.54 2.64-10.67-1.54-3.68-2.16-7-6.18-6.82-8.75.18-2.58.39-2.23.39-2.23l18.13 5.5c.2.06.3.92.27 2.04Z" fill="#B45F00"/><path d="M104.65 117.76s.68 1.02 2.87-.39c2.3-1.48 9.76-7.76 9.39-9.82-.38-2.07-11.92 6.8-12.26 10.2Z" fill="#2B2B37"/><path d="M179.27 109.02c.8-1.11 1-2.92.06-4.18-.64.52-1 1.17-1.83 1.64-2.07 1.16-4.28 2.37-6.9 2.44-1.38.05-2.77-.23-4.15-.26-1.35-.04-2.66.16-4 .05-.97-.07-1.93-.3-2.88-.53-1.28-.3-2.56-.6-3.8-1.03-4.99-1.68-9.06-5.12-12-8.92-.18-.23-.38-.48-.68-.58-.5-.16-.96.15-1.22.49-1.11 1.38-.88 3.38.12 5.01s2.67 2.95 4.41 4.1a15.5 15.5 0 0 0 3.41 1.8c1.81.63 3.75.7 5.64.99 2.49.37 4.92 1.1 7.38 1.61 2.72.58 5.49.9 8.23.97 1.16.02 2.33 0 3.38-.31 1.03-.31 1.88-.9 2.71-1.47.79-.54 1.59-1.1 2.12-1.82Z" fill="#75A152"/><path opacity=".37" d="M141.88 98.14c-1.11 1.38-.88 3.38.1 5 1.01 1.63 2.68 2.95 4.42 4.1a15.4 15.4 0 0 0 3.4 1.8c1.82.64 3.75.71 5.65 1 2.48.36 4.91 1.09 7.37 1.61a47 47 0 0 0 1.52.29c-.66-1.22-.06-2.4.94-3.27-.94.03-1.88.11-2.83.03-.97-.07-1.93-.3-2.88-.53-1.28-.3-2.56-.6-3.8-1.02-4.99-1.69-9.06-5.12-12-8.93-.18-.23-.38-.48-.69-.58-.48-.16-.95.16-1.21.49Z" fill="#568040"/><path d="M141.88 98.13c-1.11 1.39-.88 3.38.1 5.02a13.8 13.8 0 0 0 3.12 3.32c.46-.28.81-.67 1.36-.45.3.12.56.31.85.46.33.17.7.32 1.04.48.76.36 1.49.8 2.27 1.13 1.41.61 3.05.98 4.56 1.28.87.17 1.75.21 2.63.28.77.06 1.53.18 2.3.3.82.15 1.64.25 2.47.38.82.11 1.64.32 2.46.43.76.1 1.52.14 2.27.25.78.1 1.55.3 2.33.41 1.57.23 3.04.1 4.33-.55 1.41-.7 2.17-1.89 3.2-2.91.8-.8 2-1.53 2.5-2.56-.1-.2-.2-.38-.34-.56-.64.52-1 1.17-1.83 1.64-2.07 1.16-4.28 2.37-6.9 2.44-1.38.05-2.78-.23-4.16-.27-1.34-.03-2.65.16-4 .06-.96-.08-1.92-.31-2.87-.53-1.28-.3-2.56-.61-3.8-1.03-4.99-1.68-9.06-5.12-12-8.92-.18-.23-.38-.48-.69-.58-.49-.16-.95.15-1.21.48Z" fill="#568040"/><path d="M174.6 109.32c.5-.67.96-1.36 1.52-1.98-1.83 1.04-3.8 1.95-6.05 2.05-1.43.06-2.89-.21-4.33-.24-1.4-.02-2.78.21-4.19.11-.63-.04-1.25-.15-1.88-.28 1.5.66 3.03 1.13 4.69 1.42 1.9.34 3.88.81 5.8.92.95.06 1.99 0 2.78-.4.73-.38 1.21-1 1.66-1.6ZM157.15 108.5c.73-.05 1.42-.23 2.1-.4a41.35 41.35 0 0 1-3.49-.95c-4.98-1.69-9.05-5.12-12-8.93-.17-.23-.37-.48-.67-.58a.84.84 0 0 0-.34-.04c-.08.8-.47 1.58-.52 2.4-.06.8-.05 1.65.5 2.4.5.65 1.22 1.2 1.92 1.7.86.62 1.86.98 2.86 1.38.99.39 1.94.85 2.91 1.27 1.08.45 2.22.83 3.34 1.18 1.1.35 2.26.6 3.4.55l-.01.01Z" fill="#3E5C2E"/><path d="m141.2 95.1-.3-.09c-.48 8.2 10.17 14.46 21.31 15.51 15.13 1.42 18.07-4.74 18-7.74-.63.84-.46.4-1.15 1.19a8.73 8.73 0 0 1-3.25 2.4c-.33.14-.69.23-1.06.28-2 1-4.87 1.54-9.08 1-1.11-.14-8.44-.92-14.55-4.08-.25-.12-.5-.24-.73-.38-1.7-.95-3.28-2.1-4.57-3.48-.2-.16-.38-.34-.57-.51-.47-.44-.92-.9-1.38-1.35-.9-.86-1.8-1.73-2.45-2.73l-.17-.27-.07.25h.01Z" fill="#75A152"/><path d="M154.37 107.1c3.56.77 3.5 1.17 3.83 1.69.31.5.83 1 1.47 1.02.62.02.65-.49.48-.83-.4-.84-2.05-1.54-3.28-2.13a4.95 4.95 0 0 0-.83-.3l-1.67.54Z" fill="#568040"/><path opacity=".37" d="m141.2 95.2-.31-.09c-.3 6.37 6.1 11.55 14.22 14.02.2-.28.47-.52.8-.7 1.06-.63 2.44-.81 3.73-.93 1.47-.14 2.95-.04 4.43-.05-2.74-.4-8.22-1.42-12.95-3.87a18.43 18.43 0 0 1-5.3-3.86l-.56-.51-1.38-1.35c-.9-.86-1.8-1.73-2.45-2.73l-.15-.24-.09.32v-.01Z" fill="#568040"/><path d="M142.44 92.72c-.61.47-1.59 1.62-1.59 2.37a5.12 5.12 0 0 0 1.7 3.71c.13.12.44.33.45.5.73 6.97 11.44 7.67 18.55 9.08 3.11.61 6.43 1.4 9.5.75a8.62 8.62 0 0 0 4.6-2.7c-.28.11-.59.18-.9.22-2 1-4.87 1.55-9.08 1-1.11-.13-8.43-.92-14.55-4.07-.25-.12-.49-.25-.72-.4-1.7-.94-3.28-2.09-4.57-3.47-.2-.16-.38-.34-.57-.51-.37-.34-.91-.75-1.14-1.18-.4-.78-.52-1.64-.72-2.47-.23-.94-.59-1.86-.94-2.78a.74.74 0 0 1-.02-.04Z" fill="#568040"/><path d="M167.11 108.11c2.1.24 4.4-.01 6.2-.89-1.87.61-4.34.86-7.65.43-.34-.04-1.29-.15-2.61-.37 1.34.35 2.7.68 4.06.84ZM142.44 92.73c-.15.12-.3.25-.42.37-.17.6.15 1.33.04 1.97-.04.24-.15.48-.17.73-.04.47.2.95.47 1.38.54.86 1.5 1.39 2.19 2.15.47.53.68 1.15 1.1 1.7.45.6 1.09 1.13 1.73 1.59 2.73 1.92 6.02 2.73 9.31 3.32l1.3.24c-1.46-.4-3.08-1-4.68-1.77a11.84 11.84 0 0 1-3.84-1.81 46.7 46.7 0 0 1-2.16-1.64 32.4 32.4 0 0 1-2.26-1.99 3.6 3.6 0 0 1-1.1-1.83c-.36-1.5-.6-3.07-1.5-4.42Z" fill="#3E5C2E"/><path d="M159.06 107.64c-.5-.14-1.04-.24-1.55-.42-.13-.05-.4-.19-.45-.03-.05.16.2.41.32.51.24.19.56.28.88.34.31.06.63.1.93.22.72.27 1.19.9 1.83 1.32.18.1.37.2.57.21.21 0 .42-.11.43-.29a.42.42 0 0 0-.05-.2c-.23-.47-.77-.81-1.3-1.06a9.67 9.67 0 0 0-1.61-.6Z" fill="#568040"/><path d="M200.98 130.7c-.03 2-1.7 9.52-5.44 11.9-17.02 10.84-53.79-4.08-57.92-4.17-4.13-.09-16.7-11.3-20.37-15.23-.88-.93-3.63-1.62-4.77-2.38l-.68-.48c-3.27-2.38-5.22-5.2-5.22-5.2l7.72-13.45 1.74-3.03.68-1.19a37.84 37.84 0 0 0 3.14 1.87c.25.14.51.27.78.4v.01c1.58.8 3.23 1.46 4.14 1.3.1-.02.23-.02.37 0 2.44.26 10.79 5.14 13.98 6.43.51.2.9.32 1.1.3 1.53-.1 4.25 1.47 5.52 3.17 1.27 1.7 4.17 0 6.22 0 2.04 0 .34 3.4 2.4 1.52.84-.77 9.28.28 17.68-3.9 1.21-.6 2.38-1.4 3.51-2.32 3.34-2.67 6.4-6.28 9.42-8.58 6.02 1.61 11.88 6.9 14.53 17.9a58.58 58.58 0 0 1 1.44 11.44c.04 1.19.05 2.41.03 3.68Z" fill="#575770"/><path opacity=".25" d="M200.44 120.6c-.02.44-8.65 7.93-8.65 12.81 0 6.47 3.98 9.04 3.75 9.2-16.9 10.75-53.29-3.89-57.83-4.17h-.09c-4.13-.1-16.7-11.31-20.37-15.24-.88-.93-3.63-1.62-4.77-2.38-3.68-2.46-5.9-5.68-5.9-5.68l9.46-16.48.68-1.19.45.29.15.1a20.68 20.68 0 0 0 .47.28c.43.27.96.58 1.54.9l.53.3c.25.14.51.27.78.4v.01c.66.33 1.32.64 1.94.87 0 0-7.4 17.48 5.22 17.48 6.8 0 12.45-1.7 15.32 1.02 2.86 2.72 5.94-3.4 2.63-8.17.26.35.6.56.97.66 1.46.41 3.63-.66 5.25-.66 2.04 0 .34 3.4 2.4 1.52.26-.24 1.28-.3 2.82-.4 1.52-.1 3.55-.25 5.85-.64l-.21.22s-2.64 15.08 18.44 13.32c8.84-.75 13.74-3.2 16.44-5.8.74-.72.44-1.97-.54-2.3l-25.12-8.3c1.21-.6 2.38-1.4 3.51-2.32l23.95 9.3a27.85 27.85 0 0 1 .36 1.64c.22 1.09.41 2.22.57 3.4v.01Z" fill="#2B2B37"/><path opacity=".72" d="M127.87 87.67a12.8 12.8 0 0 1-.63 3.68l-.57-3.33 1.2-.35ZM110.1 81.68s-1.02 4.42 1.76 4.3c1.32-.06 1.3-1.06 1.3-1.06s.48 2.76 2.28 1.63c0 0 1.54 2.25 2.7 1.07 0 0 2.25 2.56 3.4 1.2 0 0 .9-3.13.85-3.78-.04-.64-12.3-3.36-12.3-3.36Z" fill="#B45F00"/><path d="m128.72 88.98 2.34-6.18L92.9 68.23a1.78 1.78 0 0 0-1.36 0 1.33 1.33 0 0 0-.8.92l-.84 3.32c-.06.21-.07.43-.03.65.04.21.12.43.25.63a2.27 2.27 0 0 0 1.13.95L128.7 89h.01Z" fill="#21212B"/><path d="M90.58 74.3a2.35 2.35 0 0 0 .66.4h.03l.04.02s.02 0 .03.02h.04l.07.04c.06.01.12.04.17.06.01 0 .03 0 .03.02h.02l.05.02h.02l.33.13.03.02 8.96 3.41 2.86 1.1-.01-.04.02.03v.01l19.14 7.3 2.55.97 2.7 1.02.36.14.02.01 2.34-6.2h-.02l-.38-.15-6.96-2.65-30.81-11.76h-.01a5.63 5.63 0 0 0-.22-.07l-.25-.05h-.09a.1.1 0 0 0-.04 0h-.32l-.07.02h-.03l-.01.01-.06.01-.05.01-.05.02a.39.39 0 0 0-.07.03l-.08.02h-.01l-.04.02a.3.3 0 0 0-.06.03l-.08.05-.04.02-.16.12-.1.1-.01.01-.06.08-.07.1-.06.09c-.05.1-.09.2-.11.3l-.84 3.33a1.3 1.3 0 0 0-.05.32 1.78 1.78 0 0 0 .27.96c.13.2.28.39.48.55Zm20.09 1.59.66 3.06-2.06 1.83-.66-3.06 2.06-1.83Zm-4.63.8-2.28 2.05-.7-3.17 2.2-1.97.78 3.09Zm10.1 1.33.58 2.72-2.24 1.98-.6-2.73 2.26-1.97Zm9.56 8.94-.23.2-.69-3.24.66-.58 1.68-1.46.68 3.26-2.1 1.82Zm-5.76-2.1-.66-3.08c2.95-2.58 2.1-2.85 2.94 1.1l-2.28 1.99Zm-21.67-8.32-.7-3.13.46-.41 1.77-1.6.7 3.14-.87.78-1.36 1.23Zm-5.57-2.06-.74-3.35 2.33-2.05.06.28.68 3.02-2.33 2.1Z" fill="#323147"/><path opacity=".37" d="M92.18 68.1c-.23 0-.45.04-.64.12a1.33 1.33 0 0 0-.8.92l-.85 3.33c-.06.21-.07.43-.02.65.04.21.12.43.24.63s.28.38.47.55c.2.17.41.3.66.4l.86.34 8.97 3.42c-.3-1.05-.83-2.14-1.43-3.14l-1.37 1.24-.7-3.13.46-.42c-.06-.1-.14-.19-.21-.27a20.72 20.72 0 0 0-3.48-3.38l.69 3.03-2.33 2.1-.75-3.36 2.19-1.93c-.54-.4-1.1-.75-1.68-1.07a1.5 1.5 0 0 0-.3-.03h.02ZM128.71 88.97l2.34-6.2-7.4-2.85a7.86 7.86 0 0 1 1.79 3.41l1.68-1.46.68 3.25-2.1 1.84c-.01.28-.03.56-.07.84l3.08 1.17Z" fill="#21212B"/><path d="M131.57 81.4 93.79 67.05a1.67 1.67 0 0 0-.57-.14c-1-.08-1.23.4-2.26 1.73.43-.56 1.22-.69 1.91-.42l38.17 14.57.53-1.39Z" fill="#464557"/><path d="M137.87 88.06c2.25-6.78 2.2-12.9-.13-13.67-2.32-.78-6.04 4.1-8.3 10.87-2.25 6.78-2.19 12.9.13 13.67 2.33.78 6.04-4.1 8.3-10.87Z" fill="#A4A4A4"/><path d="M140.49 80.28a31.22 31.22 0 0 1-1.6 7.75c-2.26 6.78-6 11.65-8.35 10.86-2.35-.78-2.43-6.9-.17-13.69.42-1.26.9-2.46 1.4-3.57.4-.9.84-1.75 1.29-2.52.87-1.5 1.78-2.71 2.66-3.55l.08-.07c.53-.5 1.06-.85 1.55-1.05.28-.12.56-.18.83-.18.18 0 .36.03.53.08 1.38.46 1.97 2.76 1.78 5.94Z" fill="#D8D8D8"/><path d="m137.48 87.98-.6 3.18-5.11-9.53c.4-.9.84-1.75 1.29-2.52l4.42 8.87ZM140.49 80.28l-3.14-5.84c.28-.12.56-.18.83-.18.18 0 .36.03.53.08 1.38.46 1.97 2.76 1.78 5.94Z" fill="#F4F4F4"/><path d="M137.22 82.79s-.91-.1-1.93 2.29c-1.03 2.38-2.39 6.13-2.39 6.13l2.47 4.22 1.21-2.01-1.96-2.7 2.6-7.93Z" fill="#A4A4A4"/><path d="M308.55 143.63c-2.39 3.4-6.81 4.08-10.9 4.42-12.23-3.73-26.95-8.2-38.98-12.31A3225.6 3225.6 0 0 1 148.6 96.62c-4.92-1.83-14.61-5.53-15.1-5.7 1.88-5.4 3.7-8.12 3.7-8.12l12.06 4.47c52.19 20.59 105.81 39.26 159.3 56.36Z" fill="#A4A4A4"/><path d="M308.2 143.97c-2.38 3.4-6.8 4.08-10.89 4.42-12.24-3.73-26.95-8.2-38.98-12.31a3226 3226 0 0 1-110.08-39.12c-4.92-1.83-14.61-5.53-15.1-5.7 1.88-5.4 3.7-8.12 3.7-8.12l12.06 4.47c52.19 20.58 105.81 39.26 159.3 56.36Z" fill="#F4F4F4"/><path opacity=".7" d="M148.24 96.96c-4.92-1.83-14.6-5.53-15.1-5.7 1.88-5.4 3.7-8.12 3.7-8.12l12.06 4.47h.01l1.25.49c1.69 3.71 3.02 7.58 4.7 11.33l-6.62-2.47ZM234.62 128.04c-13.9-4.78-27.77-9.66-41.59-14.63l-4.02-10.47a2279.72 2279.72 0 0 0 41.35 15c1.34 3.04 2.91 6.95 4.26 10.1ZM272.76 140.83l-3.98-1.3-4-9.82 3.98 1.31c1.4 3.24 2.6 6.55 4 9.8Z" fill="#D8D8D8"/><path d="M120.64 71.38c.17 1.17-2.75 3.09-4.3 3.97-1.55.88-3.35 5.54-3.52 5.99-.17.44-.09 2.68-.43 3.27-.34.6-1.26.22-1.55-.14-.34-.45-.74-2.69-.74-4.16 0-1.47 1.43-4.67 1.6-5.55.1-.55 2.08-1.9 3.55-2.83.89-.56 1.59-.97 1.59-.97a5.1 5.1 0 0 1 2.45-.5c.72.05 1.27.34 1.35.92Z" fill="#D58500"/><path opacity=".36" d="M120.64 71.38c.17 1.17-2.75 3.09-4.3 3.97-1.55.88-3.35 5.54-3.52 5.99-.17.44-.09 2.68-.43 3.27-.34.6-1.26.22-1.55-.14-.34-.45-.74-2.69-.74-4.16 0-1.47 1.43-4.67 1.6-5.55.07-.33.79-.94 1.67-1.57v.01s-1.03 1.33 2.79.65a7.22 7.22 0 0 0 4.47-2.56l.01.09Z" fill="#B45F00"/><path d="M132.22 76.45c-.83 5.9-1.8 4.65-3.06 4.2-.3-.1-.71-.51-1.02-.34-1.66.95-5.07 3.81-5.25 4.28-.18.47-.55 2.36-.92 3-.37.62-1.63.49-2.02.15-.55-.47-.74-1.9-.74-3.46 0-1.58 1.94-4.04 2.12-4.99.18-.94 7.45-6.2 7.45-6.2.13-.06.28-.1.42-.12 1.36-.14 2.76 1.79 3 3 .03.18.04.34.02.48Z" fill="#D58500"/><path d="M123.8 77.2c-1.65.94-4.03 5.97-4.22 6.45-.18.47-.55 2.36-.92 2.99-.37.63-1.63.49-2.02.16-.56-.48-.74-1.9-.74-3.47 0-1.58 2.2-5.82 2.4-6.77.17-.94 6.8-4.88 6.8-4.88.16-.08.33-.13.5-.16 1.27-.25 2.7.6 3.28 1.54.14.22.23.45.26.67.19 1.26-3.68 2.52-5.33 3.46Z" fill="#D58500"/><path opacity=".36" d="M132.13 77.08v.02c-.81 5.16-1.75 3.98-2.97 3.55a.98.98 0 0 1-.12-.05c-.28-.15-.63-.44-.9-.29l-.16.1c-1.71 1.03-4.91 3.72-5.09 4.18-.18.47-.55 2.36-.92 3-.37.62-1.63.49-2.02.15-.55-.47-.79-1.9-.74-3.46.08-2.26 3.25-6.34 3.25-6.34s-.79 4.08 4.66 1.35c4.5-2.24 4.98-2.27 5-2.21Z" fill="#B45F00"/><path opacity=".36" d="M120.06 76.16s-.7 2.55 2.84 1.65l.25-.08c-1.57 1.61-3.4 5.5-3.57 5.92-.18.47-.55 2.36-.92 2.99-.37.63-1.63.49-2.02.16-.56-.48-.74-1.9-.74-3.47 0-1.58 2.2-5.82 2.4-6.77.11-.61 2.94-2.48 4.91-3.72l-3.15 3.32ZM126.24 76.03a28.2 28.2 0 0 0 2.86-2.48l.04.18c.12.8-1.37 1.58-2.9 2.3Z" fill="#B45F00"/><path opacity=".25" d="M196.23 142.09c-.22.2-.46.36-.7.52-16.9 10.75-53.28-3.89-57.82-4.17h-.09c-4.13-.1-16.7-11.31-20.37-15.24-.88-.93-3.63-1.62-4.77-2.38-3.68-2.46-5.9-5.68-5.9-5.68l9.46-16.48.68-1.19.45.29.15.1a20.68 20.68 0 0 0 .47.28c.43.27.96.58 1.54.9l.53.3c.25.14.51.27.78.4v.01s-9.18 12.22-2.03 20.22c7.15 8 18.8.94 23.18 5.32 4.39 4.38 9.64 15.4 18.76 14.15 9.12-1.26 9.7 1.93 11.45 3.06 1.27.82 15.86 3.57 24.23-.41Z" fill="#2B2B37"/><path opacity=".25" d="M111.8 120.34c-3.27-2.38-5.22-5.2-5.22-5.2l7.72-13.45 3.73-3.4c.51.31 1.15.68 1.83 1.05 0 0-8.75 17.46-8.06 21Z" fill="#2B2B37"/><path d="M120.99 90.87s1.02-1.39 1.02-3.75c0-2.36 1.02-5.78 3.06-6.12 1.48-.25 1.42 2.05 1.7 3.4.29 1.35.7 3.2.69 5.1 0 1.92-.4 2.8-.4 2.8s-.62 1.97-2.67 1.97c-3.06 0-3.4-3.4-3.4-3.4Z" fill="#D58500"/><path opacity=".36" d="M127.46 89.5c0 1.92-.4 2.8-.4 2.8s-.62 1.97-2.67 1.97c-3.06 0-3.4-3.4-3.4-3.4s1.02-1.39 1.02-3.75c0-.93.16-2.03.48-3.04-.01.4.04.82.18 1.29 1.04 3.44 2.4 4.53 4.77 3.32l.02.81Z" fill="#B45F00"/><path d="m89.67 89.11-.73.43c-1.57.87-2.8 1.36-3.08 1.08-.92-.92 1.33.43-4.01-4.18a22.47 22.47 0 0 1-4.01-4.71c-2.44-3.81-3.78-8.17-3.85-11.3 0-.35 0-.69.03-1 .04-.53.2-1.02.47-1.5a6.97 6.97 0 0 1 1.97-2.05l.51-.36.08-.05.37-.23a23.03 23.03 0 0 1 4.52-2.1l.04-.02.68-.24c1.5-.51 2.85-.88 3.75-1.1l.3-.08h.02l.28-.07.51-.12c.66 0 1.29.4 1.88 1.06 2.31 2.57 4.07 9.2 4.83 12.27l.32 1.26c.58 2.25 2.55 4.2 3.1 6.05.36 1.2-4.38 4.84-7.98 6.96Z" fill="#D58500"/><path d="M76.36 71.94c-.7.45-1.38.47-1.7-.37a4.69 4.69 0 0 0-.67-1.13c-1.43-1.9-4.25-3.65-4.71-3.96-.55-.36-3.68-1.65-5.53-2.94-1.84-1.3-.73-2.95-.73-2.95.92-.92 5.16 1.84 6.26 2.02a39.55 39.55 0 0 1 5.05 1.14l.4.2.1.05.06.03c.6.33 1.39.85 2.08 1.5.5.45.93.96 1.23 1.53.13.23.22.47.3.71.34 1.29-.93 3.38-2.14 4.17ZM89.4 62.57c-.5.04-1.1-.07-1.77-.3l-.64-.24-.06-.02c-3.75-1.58-8.97-5.94-9.82-6.93-.1-.13-.14-.2-.1-.2l.75.01h.01l1.43.05c1.26.06 2.77.13 3.75.2.4.04.72.07.89.1.92.19 5.56 7.33 5.56 7.33Z" fill="#D58500"/><path opacity=".72" d="M87.63 62.61c-.29-.23-.47-.4-.64-.58-.3-.32-.56-.7-1.31-1.61-.56-.54-2.63-1.78-4.53-3.03a6.92 6.92 0 0 0-4.04-2.3c-.1-.14-.14-.21-.1-.21.22 0 1.1.02 2.19.06 1.28 1.2 3.67 1.21 5.03 3.25a30.86 30.86 0 0 0 3.4 4.08c1.16 1.16 1.08 1.22 0 .34Z" fill="#B45F00"/><path d="M87.15 62.61c0 .8-2.57 2.26-4.7 1.73-.36-.09-.7-.22-1.01-.44-1.39-.92-6.52-4.23-10.18-6.7-2.18-1.49-3.82-2.67-3.82-2.87 0-.25.14-.38.3-.46.2-.1.44-.1.44-.1s6.81.37 7.36.37c.2 0 1.07.3 2.18.74l.04.01h.01c2.1.83 5 2.13 5.51 2.75.77.92 2.95 3.13 3.65 4.37.14.24.22.45.22.6Z" fill="#D58500"/><path opacity=".72" d="M83.24 64.1c-.79-.65-2.16-1.56-3.35-3-.56-.54-2.63-1.77-4.53-3.03a6.95 6.95 0 0 0-3.63-2.23c-1.33-.21-.78-.39.38-.39 2.08 0 3.83 1.34 6.25 3.3 1.35 1.1 2.72 3.28 4.06 3.99 1.44.76 1.9 2.23.82 1.36Z" fill="#B45F00"/><path d="M82.45 64.34c-.27 1.28-2.88 2.44-4.25 2.72-.43.09-.74.09-.81-.02-.15-.22-1.22-1.5-2.5-3.01l-.44-.52a81.33 81.33 0 0 0-4.43-4.95c-.74-.55-3.69-1.84-4.98-2.58-1.29-.74-.92-2.4-.92-2.4 0-.92 1.48-.36 2.76 0l.86.29c1.7.6 4.58 1.75 5.04 1.75a2.23 2.23 0 0 1 .68.37c1.93 1.31 7.16 5.65 8.68 7.36.3.33.38.67.3 1Z" fill="#D58500"/><path d="M74.26 63.72Z" fill="#B45F00"/><path opacity=".72" d="M78 66.25c-.32-.32-2.21-1.79-3.1-2.22l-.45-.52c.67.29 2.01.89 2.2 1.12a9.84 9.84 0 0 0 2.13 1.39c.68.34-.34.68-.78.23Z" fill="#B45F00"/><path opacity=".36" d="M80.28 84.92c-3.98-4.31-6.2-10.44-6.29-14.48-1.43-1.9-4.25-3.65-4.71-3.96-.55-.36-3.68-1.65-5.53-2.94-1.84-1.3-.73-2.95-.73-2.95.92-.92 5.16 1.84 6.26 2.02 0 0-1.38 2.32 1.34 3.71 1.3.67 2.75 1.1 3.87 1.62 1.24.57 2.09 1.26 1.9 2.5-.05.41-.07.93-.03 1.5.19 2.74 1.8 6.8 7.48 7.05 4.86.21-.2 3.84-3.56 5.93Z" fill="#B45F00"/><path opacity=".72" d="m89.67 89.11-.73.43c-1.57.87-2.8 1.36-3.08 1.08-.92-.92 1.33.43-4.01-4.18a22.47 22.47 0 0 1-4.01-4.71c5.18-1.66 8.97-14.07 8.97-14.07l7.42 7.18.32 1.26c.58 2.25 2.55 4.2 3.1 6.05.36 1.2-4.38 4.84-7.98 6.96Z" fill="#B45F00"/><path opacity=".36" d="m74.75 56.17-1.29-.18c-.1-.04-1.18-.44-2.2 1.2l-.02.04c-1.06 1.74 5.22 7.24 5.4 7.4l-2.2-1.12a81.33 81.33 0 0 0-4.42-4.95c-.74-.55-3.69-1.84-4.98-2.58-1.29-.74-.92-2.4-.92-2.4 0-.92 1.48-.36 2.76 0l.86.29c.2-.1.44-.1.44-.1s6.81.37 7.36.37c.2 0 1.07.3 2.18.74-4.12-.93-2.97 1.29-2.97 1.29ZM82.18 56.48l-4.4-1.59a110.71 110.71 0 0 1 5.18.25c-1.08.12-.78 1.34-.78 1.34Z" fill="#B45F00"/><path opacity=".37" d="M78.44 67.62a2.77 2.77 0 0 0-.27 1.66c.02.23.06.45.17.65.46.86 1.23.24 1.38-.45.42-1.97-.94-2.44-1.28-1.85ZM82.27 64.7c-.17.53-.09 1.13.09 1.68.07.21.16.42.3.6.64.74 1.26-.03 1.26-.73 0-2.02-1.43-2.2-1.64-1.55ZM85.38 62.85c.08.62.45 1.19.9 1.65.17.19.36.36.6.47.99.44 1.25-.64.9-1.35-.98-2.03-2.5-1.52-2.4-.76Z" fill="#E2A040"/><path d="M116.48 105.23c-1.73 3.1-4.76 6.7-9.9 9.91-.55.35-1.93 1.6-1.59 2.96l-1.7-1.7-12.44-17.66-2.18-3.33.02-.01c-1.59-1.8-3.5-3.21-5.3-4.77a9.12 9.12 0 0 1-.63-.56l-.26-.23a15.51 15.51 0 0 1-2.38-2.67 11.7 11.7 0 0 1-1.45-2.78c-.05-.15-.36-.57.3-1.04 2.03-.96 3.62-3.23 4.83-5.71.47-.96.93-1.98 1.36-3 1.53-3.55 2.73-6.98 2.73-6.98l.75.41c1.3.72 2.38 1.37 3.37 1.86 1.5.76 2.81 1.16 4.35.88.26.33.28.89.29 1.38a24.49 24.49 0 0 0 .8 5.46c.43 1.8.96 3.54 1.36 5.34l.1.46c.06.31.1.63.12.96l2.66 1.49.1.05.27.15a3.87 3.87 0 0 1 .27.41l.08.16.48.89c.17.31.3.55.36.58a190.1 190.1 0 0 1 14.9 9.3c.22.17.35.28.37.33.04.08.06.21.07.38.1 1.08-.27 3.8-2.11 7.08Z" fill="#575771"/><path opacity=".25" d="M102.18 86.25c-1.31-.4-2.61-.62-3.87-.11-1.03.67-1.02 2.2-2.08 2.81-2.72 1.43-4.93 6.28-5.38 9.79l-2.18-3.33.02-.01c-1.59-1.8-3.5-3.2-5.3-4.77a13.35 13.35 0 0 1-.89-.8 19.54 19.54 0 0 1-2.37-2.66c.89.2 2.58.36 3.05.49 3.28 1.18 5.06-.42 7.5-2.38 3.28.07 5.5-4.23 6.78-7.63.43 1.8.95 3.55 1.35 5.35l.1.46c.06.3.1.62.13.95.68.4 1.64.93 2.75 1.54l.27.15c.03.01.07.07.12.15Z" fill="#2B2B37"/><path d="M116.71 99.94c-1.67-2.52-9.94-6.96-12.28-7.87l-.1-.03c1.53 6.14 1.48 11.18.97 13.92-.12.67-.27 1.2-.43 1.58-.13.39-.22.6-.23.61-.2.2-.54-.3-.43-.5.36-.64.6-1.51.75-2.52.55-3.83-.23-9.72-1.13-13.26-4.05-1.26-9.69-.9-9.74-.9-.57 0-1.2-.04-1.64.25-.22.16-.58-.33-.36-.49.47-.32 1.1-.33 1.72-.33.05 0 6.13-.21 9.88.89a30.34 30.34 0 0 0-2-5.4l.1.06.27.15c.03 0 .07.07.12.15.17.28.47.86.71 1.3a31.26 31.26 0 0 1 1.3 3.9l.39.15c2.47 1 10.7 5.4 12.46 8.07.22.33-.11.6-.33.27Z" fill="#2B2B37"/><path opacity=".25" d="M116.48 105.23c-1.73 3.1-4.76 6.7-9.9 9.91-.55.35-1.93 1.6-1.59 2.96l-1.7-1.7-12.44-17.66-2.18-3.33.02-.01c-1.59-1.8-3.5-3.21-5.3-4.77a9.03 9.03 0 0 1-.63-.56l-.26-.24a15.52 15.52 0 0 1-2.38-2.67 11.7 11.7 0 0 1-1.45-2.77c-.05-.15-.36-.57.3-1.04 2.03-.96 3.62-3.23 4.83-5.71.47-.96.93-1.98 1.36-3 0 0-.77 14.49 9.87 20.63 10.64 6.15 12.57 5.86 13.14 9.06.57 3.22 8.31.9 8.31.9Z" fill="#2B2B37"/><path d="M191.92 63.84c-3.44-2.32-8.42-4.88-11.96-5.37-5.36-.74-19.49 3.8-22.66-2.57-3.17-6.37 12.7-9.97 12.7-9.97 2.4-.36 4.5-.55 5.49.75.3.4 1.58 1.23 3.25 2.3 3.75 2.38 9.5 5.95 10.95 8.53.56.99 1.14 2.41 1.65 4.1.2.7.4 1.45.58 2.23Z" fill="#575770"/><path opacity=".32" d="M155.57 63.37c-4.28-1.78-6.33-6.54-6.67-3.48-.34 3.06-.68 3.4-2.04 4.09-1.23.61-2.78 4.98-3.06 5.79l.7-2.13c2.6-7.81 4.73-15.18 8.71-18.62 0 0-5.34 8.03-.74 9.62 4.6 1.6 7.39 6.52 3.1 4.73Z" fill="#323147"/><path d="M165.4 44.72c-.86.15-7.99 4.96-6.87 2.92.69-1.24-.61-.98-1.75-.59a44.55 44.55 0 0 1 8.63-2.33Z" fill="#323147"/><path opacity=".32" d="M191.25 74.54c-.07-.48-.17-.99-.3-1.5-.6-2.37-1.95-4.7-4.9-4.9-2.25-.15-4.97.24-7.77 1.12.18-.12 7.45-4.91 12.49-2.22 3.23 1.72.48 7.5.48 7.5Z" fill="#323147"/><path d="M112.82 81.34s1.02-5.45 1.7-6.13c.68-.68 4.85-3.9 5.49-4.16.64-.26.49.38-.8 1.07-1.29.7-3.86 3.03-4.62 4.42-.75 1.4-1.43 4.11-1.77 4.8Z" fill="#B45F00"/><path d="M192.45 74.54c-.22 1.3-.56 2.55-1.07 3.7 0 0 .23-2.62-.43-5.2-.6-2.37-1.95-4.7-4.9-4.9a16 16 0 0 0-2.32.02c.2-.02 3.05-.42 5.68.24 2.68.67 3.03 5.96 3.04 6.14Z" fill="#323147"/><path opacity=".36" d="M186.3 81.76c2.39-.32 3.98-3.14 3.56-6.3-.43-3.16-2.7-5.46-5.08-5.14-2.38.31-3.98 3.13-3.55 6.3.42 3.16 2.69 5.46 5.07 5.14Z" fill="#E2A040"/><path d="M120.3 75.89c-1.64.96-3.8 6.21-3.98 6.68-.18.48-.53 2.37-.89 3-.36.64-1.63.51-2.02.18-.55-.46-.75-1.88-.77-3.45-.02-1.57 2.14-5.85 2.32-6.8.17-.93 6.36-5.28 6.56-5.41 1.38-.69 3.03.4 3.65 1.52.12.22.2.43.23.63.2 1.26-3.45 2.69-5.1 3.65Z" fill="#D58500"/><path opacity=".36" d="M119.38 76.06c.68-.02 1.16-.3.93-.17-1.66.95-3.86 6.18-4.04 6.65-.19.48-.36 2.59-.73 3.22-.36.63-1.82.27-2.21-.07-.55-.47-.74-1.89-.74-3.46s2.2-5.82 2.4-6.77c.05-.3.72-.93 1.6-1.65-.08.14-1.4 2.42 2.8 2.25Z" fill="#B45F00"/><path opacity=".36" d="M184.26 86.5s.15-2.05.79-2.2c.95-.24.61 1.46.12 2.2-.35.54-.19 1.64-.19 1.98 0 .34-.76-.54-.72-1.97Z" fill="#E2A040"/><path d="M116 83.17s1.25-5.24 1.93-5.92c.68-.68 5.82-4.5 6.46-4.76.64-.27-.49.98-1.77 1.68-1.29.7-3.87 3.02-4.62 4.41-.75 1.4-1.55 4.38-2 4.59ZM119.29 85.08s.68-4.43 2.04-6.13c.6-.75 5.49-4.5 6.13-4.76.64-.27-.16.98-1.44 1.68s-3.93 2.37-4.69 3.76c-.75 1.4-1.7 4.77-2.04 5.45Z" fill="#B45F00"/><path opacity=".36" d="M172.14 84.64c.28-.39 0-1.05-.62-1.49-.61-.43-1.33-.47-1.6-.09-.27.39 0 1.05.62 1.48.61.44 1.33.48 1.6.1Z" fill="#E2A040"/><path d="m183.2 180.4-.44 10.99a52.88 52.88 0 0 1-8.84 3.36 75 75 0 0 1-11 2.2c-5.12.64-10.47.85-15.75.64-9.02-.38-17.8-2-24.77-4.88-.5-.2-.97-.4-1.44-.63v-10.9l.38.08a102.77 102.77 0 0 0 4 .89 99.67 99.67 0 0 0 3.94.75 123.35 123.35 0 0 0 27.68 1.64 127.64 127.64 0 0 0 13.87-1.56c3.84-.64 7.7-1.45 11.62-2.41l.74-.18Z" fill="#2B2B37"/><path opacity=".46" d="M162.91 196.94c-5.11.65-10.47.86-15.74.65-9.02-.38-17.8-2-24.77-4.88-.5-.2-.97-.4-1.44-.63v-10.9l.38.08a69.64 69.64 0 0 0 2.63.6 66.6 66.6 0 0 0 2.7.55 132.76 132.76 0 0 0 5.21.91 120.6 120.6 0 0 0 25.08 1.22c-6.02 1.98-9.65 4.23.11 9.8 2.38 1.37 5.03 1.64 5.84 2.6Z" fill="#21212B"/><path d="M147.17 197.59c-9.02-.38-17.8-2-24.77-4.88-.5-.2-.97-.4-1.44-.63v-10.9c3.71.88 7.35 1.6 10.92 2.14 5 .77 9.9 1.22 14.71 1.36a6.25 6.25 0 0 0-2.02 4.33c0 3.33 1.21 6.2 2.6 8.58Z" fill="#21212B"/><path d="M121.03 180.65s-1.7 1.52-1.7 2.53c0 1 .7 3.73.85 4.88.15 1.15-.44 2.77-.18 3.16.67 1 .67.67 1.21.98.5.29.14-10.84.13-10.94 0-.09-.28-.12-.3-.6h-.01Z" fill="#21212B"/><path d="M183.2 180.39s1.1 1.45 1.1 2.45c0 1-1.21 4.02-1.1 4.7.1.66.67 3.34-.45 3.85-1.1.5.44-11 .44-11Z" fill="#2B2B37"/><path opacity=".25" d="M175.55 185.87c-1.02.3-2.09.53-3.16.51-.84 0-1.77-.2-2.36-.87a1.82 1.82 0 0 1-.47-1.14c0-.44.2-.84.46-1.18l.08-.1.73-.11c3.84-.64 7.7-1.45 11.62-2.41.4 2.02-3.6 4.34-6.9 5.3ZM164.22 192.3c3.2 0 5.79-.99 5.79-2.21s-2.6-2.21-5.79-2.21c-3.2 0-5.79.99-5.79 2.21s2.6 2.21 5.79 2.21Z" fill="#464557"/><path opacity=".14" d="M191.34 61.61c-3.55-1.5-8.75-4.9-10.77-7.06-2.06-2.17-2.7-4.77-1.83-5.57 3.75 2.38 9.5 5.95 10.95 8.53.56.99 1.14 2.41 1.65 4.1Z" fill="#D8D8D8"/><path opacity=".37" d="M125.08 84.16a.67.67 0 0 0-.28.73c.02.1.06.2.17.29.47.38 1.24.1 1.39-.2.42-.86-.94-1.07-1.28-.82ZM125.17 71.61c-.25.12-.59.2-1.01.26-3.81.48-2.7-1.68-2.65-1.78 1.39-.69 3.04.4 3.66 1.52ZM128.88 73.06l-.1.04c-4.81 1.98-3.17-1.58-3.17-1.58 1.26-.25 2.68.6 3.27 1.54ZM132.2 75.97c-.5.24-1.16.45-2.02.6-5.79 1.02-1.03-3.58-1.03-3.58l.05-.02c1.36-.14 2.76 1.79 3 3ZM119.29 70.45c0 1.2-3.23 1.44-4.04 1.48.89-.56 1.59-.97 1.59-.97a5.1 5.1 0 0 1 2.45-.5Z" fill="#E2A040"/><path opacity=".36" d="M111.87 84.63c.33-.48.15-1.37.1-1.54-.2-.7-.9-.32-1.42-.25.83-.43 1.46-.38 1.56-.06.17.5.16 1.68-.24 1.86ZM114.34 85.7c.47-.47.5-1.5.5-1.68-.04-.8-.9-.51-1.48-.52 1-.32 1.67-.17 1.71.2.06.58-.26 1.88-.73 2ZM117.74 86.38c.48-.47.5-1.5.5-1.68-.04-.8-.9-.5-1.47-.52 1-.32 1.67-.17 1.7.2.06.58-.25 1.88-.73 2ZM120.8 87.74c.48-.47.51-1.49.5-1.68-.03-.79-.89-.5-1.47-.52 1-.32 1.67-.17 1.7.2.06.58-.25 1.88-.72 2ZM124.28 85.56c-.8-1.19.4-3.22.66-3.56-1.16.87-1.54 2.6-.66 3.56Z" fill="#B45F00"/><g opacity=".72" fill="#B45F00"><path opacity=".36" d="M63.47 60.93c.13.57.9 1.05 1.06 1.13.63.33.84-.44 1.15-.87-.26.9-.72 1.33-1.02 1.19-.48-.22-1.34-1.04-1.2-1.45ZM64.6 53.58c.1.4.9.7 1.06.74.66.2.96-.39 1.32-.73-.35.68-.88 1.04-1.2.96-.5-.13-1.37-.66-1.18-.97Z"/></g><path opacity=".72" d="M122.5 84.08s-.42 4.3-.8 5.2c-.37.9.15 1.82.4 1.88.25.05-.28.75-.53.4-.24-.35.01-1.71-.28-1.2-.3.5.37.96-.13.9-.5-.06-.62-.57-.22-1 .4-.42 1.02-3.1 1.56-6.18Z" fill="#B45F00"/><path opacity=".25" d="M187.71 162.6a72.8 72.8 0 0 1-3.4 8.6c-1 2.1-1.34 4.3-1.43 6.17-2.5.09-2.66-2.9-2.66-6.17s7.5-8.6 7.5-8.6Z" fill="#2B2B37"/><path opacity=".14" d="M182.36 164.55c2.18-2.18 3.04-4.85 1.92-5.97-1.12-1.11-3.79-.25-5.97 1.93-2.17 2.18-3.03 4.85-1.92 5.97 1.12 1.11 3.79.25 5.97-1.93ZM171.04 181.06c.8-.15 1.27-1.32 1.03-2.61-.23-1.3-1.08-2.22-1.89-2.07-.8.14-1.27 1.31-1.03 2.6.23 1.3 1.08 2.22 1.89 2.08Z" fill="#D8D8D8"/><path opacity=".25" d="M153.78 114.18c-.56-1.19-1.13.51-2.16 2.9-1 2.35-4.8-5.26-4.9-5.47l.33.07c.74.1 1.61-.1 2.48-.3.85-.2 1.7-.43 2.44-.43 1.8 0 .68 2.65 1.81 1.98a3.33 3.33 0 0 0 .58-.46.44.44 0 0 1 .15-.08c.26-.12.76-.18 1.44-.24l1.24-.08c.44.56.75 1.23.8 2 .24 3.46-3.65 1.3-4.21.11Z" fill="#2B2B37"/><path opacity=".25" d="M155.38 114.24c-.33.22-1.6-1.3-1.6-1.3.03-.04.23-.2.49-.38l.24-.17c.26-.12.76-.18 1.44-.23.07.62-.31 1.9-.58 2.08ZM149.53 113.65a9.95 9.95 0 0 1-2.48-1.97c.74.1 1.61-.1 2.48-.3 0 0 1.32 2.93 0 2.27Z" fill="#2B2B37"/><path d="m129.46 80.63-.42-.03c-.28-.15-.63-.44-.9-.29l-.16.1c.06-.08 1.19-1.45 1.52-1.12.33.33-.92.65-.46.67.46.01.72.64.42.67Z" fill="#B45F00"/><path opacity=".14" d="M97.29 76.94c-2.61 1.1-5.57.72-7.5-1.21-1.93-1.94-2.33-5.01-1.15-7.66 1.3.72 2.38 1.37 3.37 1.86 1.5.76 2.81 1.16 4.35.88.26.33.28.89.29 1.38.04 1.66.3 3.23.64 4.75ZM139.13 107.48a4.13 4.13 0 0 1-.54 1.83c-1.54 2.66-5.85 3.06-9.63.88-3.78-2.19-5.6-6.12-4.05-8.79l.24-.36c2.44.27 10.79 5.15 13.98 6.44Z" fill="#D8D8D8"/><path opacity=".25" d="M78.3 113.57c-1.37-2.04-2.22-3.67-2.21-4.47.03-3.55-7.18-4.96-11.57-9.65a49.2 49.2 0 0 1-3.04-3.66s9.47-2.88 13.56 3.93c4.02 6.7 3.29 13.66 3.27 13.85Z" fill="#2B2B37"/><path d="M73.12 137.87c5.4 6.84 12.18 12.5 19.29 17.46 23.31 16.1 51.79 23.07 79.83 24.08 30.43 1.2 61.1-3.24 90.01-12.78 2.07-.7 4.13-1.42 6.16-2.23a142.9 142.9 0 0 1-12.18 4.88 233.76 233.76 0 0 1-70.91 12.87c-15.37.3-30.86-.7-45.88-4.15-24.8-5.59-51.41-18.96-66.32-40.13Z" fill="#F4F4F4"/><path d="M73 137.87c5.22 6.97 11.82 12.82 18.82 17.95 23.79 17.39 53.5 24.68 82.64 25.37 16.28.43 32.63-.8 48.66-3.72 14.97-2.74 29.81-6.62 43.9-12.47-7.89 3.77-16.18 6.61-24.54 9.13-44.44 12.84-99.72 14.46-140.45-10.04-11.15-6.81-21.62-15.35-29.02-26.23Z" fill="#D8D8D8"/><path d="M163.1 180.56a291.92 291.92 0 0 0 92.25-11.68c4.27-1.26 8.52-2.62 12.7-4.16-4 1.96-8.19 3.57-12.39 5.11-29.5 10.31-61.46 14.4-92.56 10.73Z" fill="#D8D8D8"/><g opacity=".31" fill="#9FD4FF"><path d="m64.35 153.65-10.59 4.74a63.4 63.4 0 0 1-5.43 2.22c-1.22.4-2.5.67-3.84.8-1.35.14-2.51.1-3.49-.13-.97-.24-1.8-.61-2.48-1.13-.9-.7-1.4-1.36-1.53-2-.12-.66.14-1.3.79-1.96.65-.66 1.46-1.25 2.42-1.79.96-.53 2.64-1.25 5.04-2.16l11.9-4.53c3.12-1.19 5.56-2 7.3-2.44 1.73-.43 3.32-.6 4.76-.51 1.44.09 2.5.44 3.24 1.07.59.5.81 1.1.67 1.76a3.6 3.6 0 0 1-1.17 1.88c-.64.58-1.46 1.16-2.47 1.72a74.3 74.3 0 0 1-5.12 2.46Zm-.34-3.62c1.74-.72 2.8-1.2 3.17-1.44.38-.23.46-.44.25-.62-.21-.18-.59-.2-1.13-.07-.54.13-1.66.55-3.36 1.25l-16.15 6.58a26.62 26.62 0 0 0-3.35 1.52c-.32.22-.34.44-.08.64.27.21.67.25 1.21.12.54-.12 1.62-.53 3.22-1.2L64 150.03ZM80.43 153.02 50.6 168.13c-1.54-1.03-2.3-1.56-3.83-2.63l16.53-7.86a76.1 76.1 0 0 0 4.24-2.1c.43-.26.67-.53.71-.8.04-.27-.29-.68-1-1.23l-.3-.23 3.68-1.67c2.24.75 4.97.8 8.13.14l1.67 1.27ZM79.22 164.15l-9.02 5.44a51.53 51.53 0 0 1-4.67 2.58c-1.06.49-2.2.86-3.43 1.1-1.22.24-2.3.3-3.25.15a6.47 6.47 0 0 1-2.49-.89c-.94-.59-1.52-1.2-1.74-1.8-.22-.61-.08-1.26.4-1.95a8.78 8.78 0 0 1 1.96-1.92c.8-.6 2.24-1.43 4.32-2.5l10.27-5.34a58.6 58.6 0 0 1 6.36-2.95 13.5 13.5 0 0 1 4.32-.89c1.34-.03 2.39.22 3.16.76.64.45.93 1 .9 1.65a3.23 3.23 0 0 1-.76 1.9c-.5.63-1.16 1.25-2 1.87-.85.63-2.3 1.56-4.34 2.8Zm-.91-3.46c1.49-.84 2.4-1.4 2.7-1.65.32-.25.36-.46.13-.62-.23-.15-.58-.14-1.05.03-.48.17-1.45.66-2.91 1.48L63.3 167.6c-1.65.91-2.6 1.5-2.86 1.73-.25.24-.24.46.04.63.28.18.66.19 1.14.02.48-.17 1.4-.64 2.78-1.42l13.9-7.87ZM88.27 169.56l-8.1 5.76a46.71 46.71 0 0 1-4.21 2.76c-.97.53-2.03.95-3.18 1.25-1.15.3-2.18.4-3.1.3a6.42 6.42 0 0 1-2.5-.74c-.96-.53-1.58-1.1-1.85-1.69-.28-.59-.21-1.23.19-1.93s.96-1.35 1.67-1.98c.71-.62 2.01-1.5 3.9-2.66l9.3-5.74a53.67 53.67 0 0 1 5.8-3.2c1.42-.63 2.77-.99 4.06-1.08 1.28-.1 2.31.1 3.11.6.65.4 1 .92 1.04 1.56.04.64-.13 1.28-.55 1.91-.4.63-.98 1.27-1.72 1.93-.74.65-2.03 1.63-3.87 2.94Zm-1.24-3.35c1.35-.9 2.15-1.49 2.43-1.75.27-.27.3-.47.05-.61-.23-.14-.56-.12-1 .07-.44.2-1.32.73-2.64 1.59l-12.52 8.2c-1.5.98-2.35 1.6-2.57 1.84-.22.25-.19.46.1.62.3.16.65.14 1.1-.04.44-.19 1.28-.7 2.52-1.53l12.53-8.4ZM97.55 174.41l-7.16 6.05a40.84 40.84 0 0 1-3.75 2.91c-.87.56-1.84 1.03-2.92 1.37-1.07.35-2.07.5-2.96.45a6.45 6.45 0 0 1-2.47-.6 4.4 4.4 0 0 1-1.98-1.56c-.32-.57-.33-1.2-.02-1.9.32-.71.79-1.38 1.4-2.03a28.8 28.8 0 0 1 3.45-2.8l8.34-6.08a47 47 0 0 1 5.24-3.42c1.29-.68 2.54-1.1 3.77-1.26a4.93 4.93 0 0 1 3.06.44c.67.36 1.06.85 1.17 1.48.11.63 0 1.26-.32 1.9-.33.64-.8 1.3-1.45 1.98-.64.67-1.78 1.7-3.4 3.07ZM96 171.2c1.19-.94 1.9-1.56 2.14-1.83.23-.27.23-.48-.01-.6-.24-.13-.56-.1-.96.12-.4.21-1.2.77-2.37 1.69l-11.16 8.65a17.6 17.6 0 0 0-2.27 1.92c-.19.26-.13.46.16.6.3.15.65.12 1.05-.09.4-.2 1.16-.74 2.27-1.62l11.14-8.84ZM107.03 178.72l-6.21 6.27a35.64 35.64 0 0 1-3.29 3.04c-.78.6-1.66 1.1-2.66 1.48-1 .4-1.93.6-2.8.6-.88 0-1.7-.17-2.46-.48-1-.41-1.7-.9-2.08-1.43a2.01 2.01 0 0 1-.24-1.86c.23-.7.6-1.39 1.13-2.05.52-.66 1.53-1.63 3.01-2.91L98.8 175a41.59 41.59 0 0 1 4.66-3.6 9.97 9.97 0 0 1 3.5-1.42 4.8 4.8 0 0 1 3 .28c.67.32 1.1.78 1.28 1.4.18.6.15 1.23-.09 1.87a7.7 7.7 0 0 1-1.17 2c-.55.7-1.52 1.75-2.93 3.18Zm-1.86-3.08a19.43 19.43 0 0 0 1.86-1.9c.2-.28.17-.47-.08-.59-.24-.11-.55-.06-.9.17-.37.23-1.07.82-2.1 1.77l-9.78 9.02a15.37 15.37 0 0 0-1.97 2c-.15.26-.08.45.22.58.3.12.64.07 1-.15.38-.22 1.04-.78 2-1.7l9.75-9.2ZM116.71 182.48l-5.27 6.44a31.7 31.7 0 0 1-2.82 3.13 9.56 9.56 0 0 1-2.4 1.59 6.44 6.44 0 0 1-5.08.37 5 5 0 0 1-2.18-1.3 2.06 2.06 0 0 1-.45-1.81c.14-.7.42-1.39.85-2.06.43-.67 1.29-1.67 2.58-3l6.37-6.59a36.84 36.84 0 0 1 4.08-3.76 8.98 8.98 0 0 1 3.22-1.56 4.66 4.66 0 0 1 2.92.13c.7.28 1.16.72 1.4 1.3.25.6.3 1.2.14 1.85a6.98 6.98 0 0 1-.9 2.01c-.44.71-1.26 1.8-2.45 3.26Zm-2.16-2.92c.9-1.02 1.42-1.67 1.57-1.96.16-.28.11-.47-.14-.57-.25-.1-.54-.03-.87.21-.32.24-.92.85-1.81 1.83l-8.4 9.31c-1 1.1-1.56 1.8-1.68 2.05-.11.27-.01.45.3.56.3.1.62.05.95-.19.33-.23.91-.82 1.73-1.76l8.35-9.48ZM128.25 178.16l-13.81 19.58c-1.73-.5-2.6-.74-4.31-1.27l7.96-10.42a37.43 37.43 0 0 0 2-2.75c.18-.32.2-.6.09-.84-.12-.23-.58-.5-1.4-.78l-.35-.12 1.82-2.26c2.05.1 4.1-.52 6.08-1.8l1.92.66ZM136.91 188.43l-3.34 6.63a24.3 24.3 0 0 1-1.86 3.24 7.32 7.32 0 0 1-1.87 1.74 5.78 5.78 0 0 1-4.68.85 5.68 5.68 0 0 1-2.37-1.01 2.3 2.3 0 0 1-.86-1.68c-.05-.68.05-1.36.28-2.04.24-.68.8-1.71 1.68-3.1l4.35-6.88a28.14 28.14 0 0 1 2.9-3.97 6.85 6.85 0 0 1 2.63-1.79 4.33 4.33 0 0 1 2.75-.16c.73.2 1.27.57 1.65 1.1.37.54.57 1.12.58 1.74a6 6 0 0 1-.34 2 29 29 0 0 1-1.5 3.33Zm-2.76-2.56c.6-1.06.92-1.73 1-2 .07-.3-.02-.47-.28-.54-.26-.08-.5.02-.75.28s-.67.9-1.26 1.91l-5.58 9.66a10.4 10.4 0 0 0-1.06 2.11c-.04.26.1.43.41.5.32.07.6-.02.86-.27.25-.26.64-.87 1.19-1.84l5.47-9.82ZM146.68 183.2l-8.04 19.9a191.8 191.8 0 0 1-4.4-.76l4.87-10.66c.7-1.55 1.1-2.47 1.18-2.8.1-.32.05-.6-.12-.8-.17-.22-.68-.41-1.52-.6l-.36-.1 1.15-2.31a8.33 8.33 0 0 0 5.26-2.3l1.98.43ZM154.23 191.63l-1.74 6.62c-.4 1.5-.75 2.58-1.07 3.25a5.72 5.72 0 0 1-1.4 1.82c-.62.55-1.3.91-2.03 1.1-.73.18-1.5.22-2.3.12a6.3 6.3 0 0 1-2.5-.77c-.6-.38-1.01-.89-1.2-1.53-.2-.65-.25-1.3-.18-1.98.08-.67.4-1.7.93-3.1l2.67-6.95a22.4 22.4 0 0 1 1.9-4.04 5.48 5.48 0 0 1 2.12-1.93 4 4 0 0 1 2.61-.39 3.42 3.42 0 0 1 2.76 2.53c.15.6.2 1.24.12 1.94-.07.7-.3 1.8-.7 3.3v.01Zm-3.23-2.22c.33-1.05.5-1.72.51-2 .01-.28-.12-.44-.38-.49-.26-.04-.48.07-.66.34-.18.27-.44.91-.78 1.93l-3.22 9.7a8.83 8.83 0 0 0-.55 2.12c.02.25.18.4.5.44.32.04.58-.07.76-.33.19-.27.44-.89.74-1.86l3.08-9.85ZM164.45 192.75l-.8 6.53a18 18 0 0 1-.6 3.23 5 5 0 0 1-1.14 1.85c-.54.56-1.16.95-1.85 1.17-.7.22-1.45.3-2.26.24a6.76 6.76 0 0 1-2.57-.62 2.93 2.93 0 0 1-1.39-1.43 4.86 4.86 0 0 1-.44-1.92c-.01-.65.16-1.68.5-3.07l1.68-6.91c.44-1.82.89-3.17 1.33-4.04a4.75 4.75 0 0 1 1.82-2c.77-.45 1.6-.62 2.51-.5a3.8 3.8 0 0 1 3.07 2.33c.23.57.35 1.2.38 1.89.03.69-.05 1.77-.23 3.25Zm-3.48-2c.18-1.05.26-1.7.23-1.98-.02-.27-.17-.42-.44-.45-.27-.03-.47.09-.6.35-.14.27-.31.92-.5 1.93l-1.86 9.63a8.12 8.12 0 0 0-.26 2.08c.06.25.24.38.56.4.32.04.55-.09.7-.36.15-.26.3-.88.47-1.84l1.7-9.76ZM174.73 193.3l.12 6.4c.03 1.46-.02 2.52-.15 3.18a4.34 4.34 0 0 1-.87 1.86c-.45.58-1.01 1-1.67 1.24-.66.25-1.4.37-2.2.35a7.14 7.14 0 0 1-2.65-.47 3.29 3.29 0 0 1-1.57-1.32c-.36-.59-.6-1.2-.7-1.84-.1-.64-.08-1.65.06-3.02l.7-6.83c.2-1.79.45-3.13.76-4a4.1 4.1 0 0 1 1.53-2.03c.7-.49 1.49-.7 2.4-.63a4.27 4.27 0 0 1 3.36 2.1c.31.55.53 1.16.65 1.82.12.67.2 1.73.23 3.19Zm-3.73-1.77a9.71 9.71 0 0 0-.05-1.94c-.06-.26-.23-.4-.5-.42-.27-.01-.45.11-.55.39-.1.26-.18.9-.23 1.9l-.5 9.47a7.84 7.84 0 0 0 .05 2.05c.08.23.28.36.6.36.33 0 .54-.12.65-.39.11-.27.18-.88.21-1.83l.32-9.59ZM181.16 186.96l2.28 18.84c-1.78.08-2.67.1-4.45.14l-.69-10.2c-.1-1.48-.18-2.36-.26-2.66-.07-.3-.24-.53-.5-.68a3.96 3.96 0 0 0-1.68-.26l-.37-.01-.06-2.23a5.4 5.4 0 0 0 3.7-2.96l2.03.03ZM192.36 192.91l1.67 6.07c.38 1.38.59 2.39.61 3.03.03.64-.1 1.26-.41 1.85a3.07 3.07 0 0 1-1.37 1.33c-.6.3-1.3.48-2.11.54a7.95 7.95 0 0 1-2.74-.2 4.05 4.05 0 0 1-1.87-1.1 5.76 5.76 0 0 1-1.13-1.68c-.26-.6-.48-1.56-.67-2.88l-.93-6.55c-.25-1.72-.31-3.01-.21-3.87a3.2 3.2 0 0 1 1.01-2.07c.57-.52 1.31-.8 2.23-.81.76-.02 1.47.14 2.16.46.68.33 1.24.74 1.68 1.22.43.5.8 1.05 1.07 1.67.29.62.62 1.62 1 3Zm-4.13-1.32a9.4 9.4 0 0 0-.52-1.84.6.6 0 0 0-.6-.35c-.26.01-.41.15-.45.41-.03.27.05.88.24 1.83l1.79 9.04a7.9 7.9 0 0 0 .52 1.94c.14.21.38.31.7.29.31-.02.5-.17.54-.43.05-.27-.03-.85-.23-1.76l-1.99-9.13ZM202.66 191.93l2.53 5.8c.57 1.3.93 2.28 1.05 2.9.13.62.08 1.23-.14 1.82-.23.6-.62 1.05-1.18 1.37-.55.33-1.24.55-2.05.65-1.06.14-2 .13-2.78-.04a4.57 4.57 0 0 1-2.04-.97 6.4 6.4 0 0 1-1.38-1.57c-.34-.57-.7-1.49-1.08-2.76l-1.88-6.31c-.49-1.66-.74-2.92-.76-3.76-.02-.84.22-1.53.72-2.07.5-.54 1.2-.84 2.12-.91.75-.06 1.49.05 2.22.33a6.1 6.1 0 0 1 1.88 1.1c.52.46.96.97 1.34 1.56.38.6.86 1.54 1.43 2.86Zm-4.36-1.06c-.36-.94-.62-1.53-.78-1.76a.69.69 0 0 0-.65-.3c-.27.02-.4.16-.4.42s.18.85.5 1.77l3.1 8.68c.37 1.04.64 1.65.81 1.85.17.2.42.29.74.25.32-.05.48-.2.48-.45.01-.26-.15-.83-.48-1.7l-3.32-8.76ZM216.48 189.91c1.36 2.12 2 3.17 3.36 5.28.78 1.2 1.29 2.1 1.52 2.68.23.58.3 1.17.19 1.75-.11.58-.41 1.06-.9 1.4-.48.36-1.12.62-1.91.78a8.63 8.63 0 0 1-2.8.17 5.4 5.4 0 0 1-2.24-.79 7.4 7.4 0 0 1-1.69-1.41 13.2 13.2 0 0 1-1.59-2.57l-2.98-5.89a16.72 16.72 0 0 1-1.45-3.53c-.18-.8-.06-1.48.35-2.02.41-.55 1.08-.88 2.03-1a6.1 6.1 0 0 1 2.4.2 7.65 7.65 0 0 1 3.83 2.34c.48.54 1.12 1.41 1.89 2.61Zm-4.64-.73a10.1 10.1 0 0 0-1.1-1.62.84.84 0 0 0-.73-.26c-.27.04-.38.18-.33.43.05.25.32.8.8 1.65 1.85 3.22 2.7 4.81 4.53 8.03.55.96.93 1.53 1.14 1.71.21.18.47.24.78.18.31-.06.45-.22.4-.47a6.84 6.84 0 0 0-.78-1.57c-1.92-3.24-2.79-4.84-4.71-8.08ZM219.7 183.41c4.02 4.93 7.72 10.1 11.73 15.02-1.68.45-2.53.67-4.23 1.1-2.08-2.69-4.03-5.5-5.93-8.32-.81-1.19-1.34-1.9-1.57-2.13-.22-.23-.5-.38-.84-.46a5.44 5.44 0 0 0-1.83.12l-.38.06c-.48-.74-.73-1.1-1.24-1.84 1.52-.7 2.29-1.77 2.17-3.18l2.13-.37ZM234.29 186.06c1.67 1.78 2.44 2.65 4.12 4.43a20.08 20.08 0 0 1 1.96 2.29c.34.51.51 1.05.52 1.6 0 .56-.2 1.04-.6 1.42-.42.39-1.01.7-1.77.93-1 .31-1.94.46-2.8.45a6.47 6.47 0 0 1-2.45-.5 8.75 8.75 0 0 1-1.99-1.15 13.23 13.23 0 0 1-2.07-2.21c-1.6-2.06-2.34-3.06-3.94-5.12a18.36 18.36 0 0 1-2.1-3.11c-.33-.73-.35-1.37-.04-1.9.31-.55.94-.9 1.91-1.1a7.36 7.36 0 0 1 2.55-.02 9.68 9.68 0 0 1 4.38 1.8c.58.45 1.37 1.18 2.32 2.2v-.01Zm-4.85-.22c-.66-.74-1.13-1.2-1.39-1.37a1 1 0 0 0-.8-.17c-.28.05-.37.2-.27.42.1.22.47.7 1.1 1.44 2.4 2.77 3.4 4.1 5.8 6.88a8.72 8.72 0 0 0 1.45 1.46c.25.15.52.18.83.08.3-.09.4-.25.32-.47a7.12 7.12 0 0 0-1.07-1.38c-2.48-2.78-3.5-4.11-5.97-6.88ZM244.59 183.06c1.83 1.55 2.65 2.3 4.48 3.85 1.05.89 1.8 1.57 2.2 2.03.38.47.62.97.68 1.5.07.55-.08 1.02-.46 1.42-.38.4-.94.74-1.69 1.02-.98.37-1.92.58-2.8.63a7.07 7.07 0 0 1-2.54-.33 9.64 9.64 0 0 1-2.15-.96 13.24 13.24 0 0 1-2.29-1.96c-1.79-1.84-2.59-2.73-4.36-4.56a19.26 19.26 0 0 1-2.4-2.82c-.41-.67-.5-1.28-.24-1.82.25-.53.84-.92 1.8-1.16.79-.2 1.66-.25 2.6-.18a10.74 10.74 0 0 1 4.64 1.45c.63.38 1.5 1.02 2.53 1.9Zm-4.91.14a10.56 10.56 0 0 0-1.53-1.22 1.1 1.1 0 0 0-.84-.1c-.27.07-.35.2-.23.41.12.2.55.64 1.25 1.29 2.66 2.46 3.72 3.62 6.38 6.08a8.73 8.73 0 0 0 1.6 1.3c.26.11.55.12.85.01.3-.1.38-.27.27-.47a7.18 7.18 0 0 0-1.2-1.24c-2.74-2.45-3.82-3.6-6.55-6.06ZM254.73 179.46c1.99 1.3 2.87 1.93 4.86 3.24 1.13.74 1.96 1.33 2.4 1.74.45.41.74.87.87 1.39.12.51.02.98-.32 1.4-.34.42-.88.8-1.62 1.12a10 10 0 0 1-2.8.8c-.9.12-1.8.07-2.66-.12a10.5 10.5 0 0 1-2.28-.77c-.65-.31-1.5-.88-2.49-1.69-1.95-1.6-2.81-2.36-4.75-3.95a19.85 19.85 0 0 1-2.68-2.5c-.48-.6-.64-1.18-.45-1.72.19-.53.74-.94 1.69-1.24a8.37 8.37 0 0 1 2.61-.34 12.2 12.2 0 0 1 4.88 1.04c.68.32 1.62.85 2.75 1.6Zm-4.95.51c-.8-.56-1.38-.92-1.66-1.03a1.2 1.2 0 0 0-.86-.05c-.26.09-.33.23-.19.42.14.18.62.56 1.39 1.12 2.91 2.13 4.02 3.1 6.92 5.22.87.63 1.47 1 1.75 1.1.28.1.57.08.87-.04.29-.13.37-.29.23-.48-.13-.2-.6-.56-1.34-1.08-3-2.11-4.12-3.07-7.1-5.18ZM255.65 173.5c5.75 2.83 11.33 5.96 17.08 8.79-1.6.83-2.4 1.23-4 2.03a163.05 163.05 0 0 1-8.8-5.06 22.77 22.77 0 0 0-2.18-1.24c-.3-.12-.63-.17-1-.14-.37.02-.97.2-1.82.53l-.36.14c-.72-.46-1.09-.68-1.87-1.16 1.3-.9 1.7-1.93.93-3.08.81-.31 1.21-.48 2.02-.8ZM262.15 170.66c6.13 2.4 12.16 5.03 18.28 7.43-1.59.91-2.38 1.35-3.98 2.22-3.16-1.39-6.3-2.8-9.39-4.34-1.21-.6-2-.95-2.31-1.04-.3-.1-.65-.13-1.02-.08-.38.05-.97.26-1.8.63l-.36.16c-.77-.4-1.16-.6-2-1 1.24-.96 1.55-1.98.62-3.07l1.96-.91ZM268.44 167.44c6.56 2 13.09 4.1 19.65 6.08-1.58.98-2.38 1.47-3.96 2.41a384.84 384.84 0 0 1-10.06-3.61c-1.3-.48-2.14-.77-2.46-.84a2.62 2.62 0 0 0-1.06 0c-.37.06-.96.31-1.77.72l-.35.18c-.82-.33-1.24-.5-2.14-.84 1.16-1.02 1.36-2.04.26-3.08.76-.4 1.14-.6 1.9-1.02Z"/></g><path d="M166.82 168.96c26.57.69 53.15-2.63 78.67-10.04a178.8 178.8 0 0 0 10.86-3.48c-3.42 1.7-6.97 3.1-10.55 4.43-25.15 8.91-52.47 12.4-78.98 9.09Z" fill="#D8D8D8"/></svg>