<svg width="264" height="24" viewBox="0 0 264 24" fill="none" xmlns="http://www.w3.org/2000/svg">
<path fill-rule="evenodd" clip-rule="evenodd" d="M15.2516 3.51225C16.0236 2.58276 16.5439 1.28808 16.4015 0C15.2891 0.0439993 13.9432 0.738089 13.1456 1.66647C12.4293 2.49036 11.804 3.80704 11.9721 5.06982C13.213 5.16552 14.4796 4.44283 15.2516 3.51225ZM18.0342 11.6873C18.0653 15.017 20.9679 16.1247 21 16.139C20.9764 16.2171 20.5364 17.7175 19.4711 19.2684C18.5492 20.6082 17.5931 21.9425 16.0867 21.9711C14.607 21.9986 14.1305 21.0977 12.4378 21.0977C10.7461 21.0977 10.2172 21.9425 8.81675 21.9986C7.36277 22.0525 6.25462 20.5488 5.32634 19.2134C3.42696 16.4822 1.97619 11.4949 3.92482 8.1289C4.89271 6.45803 6.62186 5.39875 8.49983 5.37235C9.92704 5.34485 11.275 6.32823 12.1476 6.32823C13.0202 6.32823 14.6584 5.14575 16.38 5.31955C17.1006 5.34925 19.1242 5.60884 20.4229 7.50191C20.318 7.56681 18.0085 8.90439 18.0342 11.6873Z" fill="#7F7F7F"/>
<path fill-rule="evenodd" clip-rule="evenodd" d="M52 2.11905C46.4862 2.11905 42.119 6.48619 42.119 12C42.119 17.5143 46.4862 21.881 52 21.881C57.5138 21.881 61.881 17.5143 61.881 12C61.881 6.48619 57.5143 2.11905 52 2.11905ZM53.1428 7.59344V7.39797L52.5352 7.43969C52.3632 7.45055 52.234 7.48713 52.1471 7.54886C52.0603 7.61115 52.0168 7.69746 52.0168 7.80776C52.0168 7.91521 52.0597 8.00094 52.146 8.06438C52.2317 8.1284 52.3472 8.15983 52.4912 8.15983C52.5832 8.15983 52.6695 8.14554 52.749 8.11754C52.8284 8.08953 52.8981 8.0501 52.9564 7.9998C53.0147 7.95008 53.0605 7.89064 53.093 7.82148C53.1262 7.75232 53.1428 7.67631 53.1428 7.59344ZM54.2498 6.75386C54.3058 6.59669 54.3847 6.4618 54.487 6.34978C54.5893 6.23776 54.7122 6.15146 54.8562 6.09087C55.0002 6.03029 55.1608 6 55.3374 6C55.4969 6 55.6409 6.024 55.7689 6.07144C55.8975 6.11888 56.0073 6.18289 56.0993 6.26348C56.1913 6.34407 56.2645 6.4378 56.3182 6.54525C56.3719 6.6527 56.4039 6.76643 56.4148 6.88588H55.9387C55.9267 6.82016 55.905 6.75843 55.8741 6.70185C55.8432 6.64527 55.8027 6.59611 55.7524 6.55439C55.7015 6.51267 55.642 6.48009 55.574 6.45666C55.5055 6.43265 55.4289 6.42122 55.3426 6.42122C55.2414 6.42122 55.1494 6.4418 55.0677 6.48238C54.9854 6.52296 54.9151 6.58068 54.8568 6.65498C54.7985 6.72928 54.7533 6.82016 54.7213 6.92646C54.6887 7.03334 54.6727 7.15165 54.6727 7.28196C54.6727 7.41684 54.6887 7.53801 54.7213 7.64432C54.7533 7.75119 54.799 7.84093 54.8585 7.91465C54.9173 7.98838 54.9888 8.04496 55.0717 8.08383C55.1545 8.12269 55.246 8.1427 55.3454 8.1427C55.5083 8.1427 55.6409 8.1044 55.7438 8.02782C55.8467 7.95123 55.913 7.83921 55.9438 7.69175H56.4205C56.4068 7.82206 56.3708 7.94094 56.3125 8.04839C56.2542 8.15584 56.1787 8.24729 56.0861 8.3233C55.993 8.39932 55.8838 8.45819 55.7581 8.49934C55.6323 8.54049 55.494 8.56164 55.3437 8.56164C55.1654 8.56164 55.0048 8.53192 54.8602 8.47305C54.7162 8.41418 54.5921 8.32902 54.4893 8.21871C54.3864 8.10841 54.3069 7.97409 54.2509 7.81578C54.1949 7.65746 54.1669 7.47971 54.1669 7.28139C54.1658 7.08764 54.1938 6.9116 54.2498 6.75386V6.75386ZM47.4754 6.03255H47.952V6.45606H47.9612C47.9903 6.38576 48.0286 6.32232 48.0755 6.26745C48.1224 6.21201 48.1761 6.16515 48.2378 6.12571C48.299 6.08628 48.367 6.05656 48.4401 6.03598C48.5139 6.01541 48.5916 6.00512 48.6728 6.00512C48.8477 6.00512 48.9957 6.04684 49.1157 6.13028C49.2363 6.21373 49.322 6.33375 49.3723 6.49035H49.3843C49.4163 6.41491 49.4586 6.34747 49.5106 6.28803C49.5626 6.22859 49.6227 6.17715 49.6901 6.13486C49.7575 6.09256 49.8318 6.06056 49.9124 6.03827C49.993 6.01598 50.0776 6.00512 50.1668 6.00512C50.2896 6.00512 50.4011 6.02455 50.5017 6.06399C50.6023 6.10342 50.688 6.15829 50.7594 6.22973C50.8309 6.30117 50.8858 6.38805 50.924 6.48978C50.9623 6.59152 50.9818 6.70468 50.9818 6.82928V8.53303H50.4845V6.94873C50.4845 6.7847 50.4422 6.65724 50.3577 6.56751C50.2736 6.47778 50.153 6.43263 49.9964 6.43263C49.9199 6.43263 49.8496 6.44635 49.7855 6.47321C49.7221 6.50007 49.6667 6.53779 49.6209 6.58637C49.5746 6.63438 49.5386 6.69268 49.5129 6.76012C49.4866 6.82756 49.4735 6.90129 49.4735 6.98131V8.53303H48.9831V6.90758C48.9831 6.83556 48.9717 6.77041 48.9494 6.71211C48.9271 6.65381 48.8957 6.60409 48.8539 6.56237C48.8128 6.52065 48.7619 6.48921 48.7031 6.46692C48.6436 6.44463 48.5773 6.4332 48.5036 6.4332C48.427 6.4332 48.3561 6.44749 48.2904 6.47607C48.2252 6.50464 48.1692 6.54408 48.1224 6.59437C48.0755 6.64524 48.0389 6.70468 48.0132 6.77384C47.9881 6.84242 47.9469 6.91786 47.9469 6.99902V8.53246H47.4754V6.03255V6.03255ZM48.5573 18C46.3712 18 45 16.4809 45 14.0564C45 11.6319 46.3712 10.1076 48.5573 10.1076C50.7434 10.1076 52.1094 11.6319 52.1094 14.0564C52.1094 16.4803 50.7434 18 48.5573 18ZM52.6049 8.52677C52.5243 8.54735 52.442 8.55763 52.3574 8.55763C52.2328 8.55763 52.1191 8.53992 52.0156 8.50448C51.9116 8.46905 51.823 8.41932 51.7487 8.35474C51.6744 8.29015 51.6161 8.21243 51.575 8.12098C51.5332 8.02953 51.5127 7.9278 51.5127 7.81578C51.5127 7.59631 51.5944 7.42485 51.7579 7.30139C51.9213 7.17794 52.1579 7.10593 52.4683 7.08592L53.1427 7.04706V6.85388C53.1427 6.70985 53.097 6.59954 53.0055 6.52467C52.9141 6.4498 52.7849 6.41208 52.6175 6.41208C52.55 6.41208 52.4866 6.42065 52.4283 6.43723C52.37 6.45437 52.3185 6.47838 52.274 6.50981C52.2294 6.54125 52.1922 6.57897 52.1636 6.62298C52.1345 6.66641 52.1145 6.71557 52.1036 6.76929H51.6361C51.639 6.65898 51.6664 6.55668 51.7178 6.46295C51.7693 6.36921 51.839 6.28806 51.9276 6.2189C52.0162 6.14974 52.1196 6.09602 52.2397 6.05773C52.3597 6.01943 52.49 6 52.6312 6C52.7832 6 52.9209 6.01886 53.0444 6.05773C53.1678 6.09659 53.2736 6.15089 53.361 6.22233C53.4485 6.29377 53.5159 6.3795 53.5633 6.48009C53.6108 6.58068 53.6348 6.69328 53.6348 6.8173V8.53249H53.1587V8.11584H53.1467C53.1113 8.18328 53.0667 8.24443 53.0124 8.29873C52.9575 8.35302 52.8964 8.39989 52.8283 8.43818C52.7598 8.47648 52.6855 8.5062 52.6049 8.52677V8.52677ZM55.7501 18C54.0829 18 52.9495 17.1267 52.8707 15.7556H53.956C54.0406 16.5392 54.7979 17.0581 55.8352 17.0581C56.8303 17.0581 57.5453 16.5392 57.5453 15.8299C57.5453 15.216 57.1109 14.8451 56.1056 14.5913L55.126 14.3479C53.7177 13.9987 53.0776 13.358 53.0776 12.3046C53.0776 11.0078 54.2104 10.1076 55.825 10.1076C57.4024 10.1076 58.5032 11.0129 58.5455 12.3149H57.471C57.3967 11.5313 56.7566 11.0495 55.8032 11.0495C54.8556 11.0495 54.1995 11.5365 54.1995 12.2406C54.1995 12.7961 54.6121 13.1248 55.6181 13.3785L56.4439 13.5849C58.0162 13.9661 58.6621 14.5856 58.6621 15.6973C58.6615 17.1158 57.5396 18 55.7501 18V18ZM48.5573 11.081C47.0593 11.081 46.1226 12.2298 46.1226 14.0558C46.1226 15.8768 47.0593 17.0256 48.5573 17.0256C50.0502 17.0256 50.9921 15.8768 50.9921 14.0558C50.9926 12.2298 50.0502 11.081 48.5573 11.081V11.081Z" fill="#A4A4A4"/>
<path d="M91.4799 2H82V11.4799H91.4799V2Z" fill="#A4A4A4"/>
<path d="M102 2H92.5201V11.4799H102V2Z" fill="#A4A4A4"/>
<path d="M91.4799 12.5209H82V22.0008H91.4799V12.5209Z" fill="#A4A4A4"/>
<path d="M102 12.5209H92.5201V22.0008H102V12.5209Z" fill="#A4A4A4"/>
<path d="M123.511 19.0695C122.995 19.0695 122.647 19.4751 122.647 19.9966C122.647 20.518 122.995 20.9236 123.511 20.9236C124.028 20.9236 124.376 20.518 124.376 19.9966C124.371 19.4751 124.023 19.0695 123.511 19.0695V19.0695ZM123.395 18.4949C123.811 18.4949 124.158 18.7073 124.323 18.9391V18.5528H124.96V21.4451H124.467C124.429 21.445 124.392 21.4297 124.365 21.4026C124.338 21.3754 124.323 21.3387 124.323 21.3003V21.0588C124.158 21.2906 123.816 21.5031 123.395 21.5031C122.604 21.5031 122 20.8271 122 20.0014C122 19.1757 122.599 18.4949 123.395 18.4949V18.4949ZM125.684 18.5528H126.322V18.9439C126.495 18.6542 126.824 18.4949 127.2 18.4949C127.872 18.4949 128.306 18.9681 128.306 19.702V21.4451H127.818C127.78 21.445 127.743 21.4297 127.716 21.4026C127.689 21.3754 127.674 21.3387 127.674 21.3003V19.8082C127.674 19.3495 127.442 19.0743 127.07 19.0743C126.65 19.0743 126.322 19.4026 126.322 20.0207V21.4451H125.834C125.796 21.445 125.759 21.4297 125.732 21.4026C125.704 21.3754 125.689 21.3387 125.689 21.3003L125.684 18.5528ZM130.315 19.0695C129.798 19.0695 129.451 19.4751 129.451 19.9966C129.451 20.518 129.798 20.9236 130.315 20.9236C130.831 20.9236 131.179 20.518 131.179 19.9966C131.179 19.4751 130.831 19.0695 130.315 19.0695ZM130.199 18.4949C130.614 18.4949 130.962 18.7073 131.126 18.9391V17.1042H131.763V21.4451H131.276C131.237 21.445 131.201 21.4297 131.173 21.4026C131.146 21.3754 131.131 21.3387 131.131 21.3003V21.0588C130.967 21.2906 130.624 21.5031 130.204 21.5031C129.412 21.5031 128.808 20.8271 128.808 20.0014C128.808 19.1757 129.407 18.4949 130.199 18.4949V18.4949ZM132.488 18.5528H133.125V19.0695C133.181 18.9113 133.284 18.7742 133.421 18.6766C133.557 18.579 133.72 18.5257 133.888 18.5238C133.971 18.5223 134.053 18.5304 134.134 18.548V19.1998C134.031 19.1654 133.924 19.1475 133.816 19.1467C133.453 19.1467 133.12 19.4558 133.12 20.0304V21.4403H132.633C132.594 21.4402 132.557 21.4249 132.53 21.3978C132.503 21.3706 132.488 21.3338 132.488 21.2954V18.5528ZM135.848 20.9092C136.355 20.9092 136.718 20.5084 136.718 19.9966C136.718 19.4799 136.36 19.084 135.848 19.084C135.332 19.084 134.974 19.4847 134.974 19.9966C134.979 20.5132 135.332 20.9092 135.848 20.9092ZM135.848 21.5031C135.551 21.5007 135.262 21.4104 135.016 21.2436C134.77 21.0768 134.579 20.8409 134.467 20.5657C134.355 20.2905 134.327 19.9883 134.387 19.6973C134.446 19.4062 134.591 19.1393 134.802 18.9303C135.013 18.7212 135.281 18.5794 135.573 18.5226C135.864 18.4658 136.166 18.4966 136.44 18.6112C136.715 18.7257 136.949 18.9189 137.113 19.1663C137.278 19.4137 137.365 19.7043 137.365 20.0014C137.366 20.2001 137.327 20.397 137.251 20.5806C137.175 20.7642 137.063 20.9308 136.922 21.0706C136.781 21.2104 136.613 21.3207 136.429 21.395C136.244 21.4692 136.047 21.506 135.848 21.5031V21.5031ZM137.881 18.5528H138.519V21.4451H138.031C137.993 21.445 137.956 21.4297 137.929 21.4026C137.901 21.3754 137.886 21.3387 137.886 21.3003L137.881 18.5528ZM138.2 17.9203C138.086 17.9192 137.978 17.8736 137.897 17.7932C137.817 17.7129 137.771 17.6042 137.77 17.4905C137.772 17.3781 137.819 17.2712 137.899 17.1926C137.979 17.114 138.088 17.0702 138.2 17.0704C138.313 17.0704 138.421 17.1152 138.5 17.1949C138.58 17.2746 138.625 17.3827 138.625 17.4954C138.625 17.608 138.58 17.7161 138.5 17.7958C138.421 17.8755 138.313 17.9203 138.2 17.9203V17.9203ZM140.551 19.0695C140.035 19.0695 139.687 19.4751 139.687 19.9966C139.687 20.518 140.035 20.9236 140.551 20.9236C141.068 20.9236 141.416 20.518 141.416 19.9966C141.406 19.4751 141.068 19.0695 140.551 19.0695ZM140.436 18.4949C140.851 18.4949 141.198 18.7073 141.363 18.9391V17.1042H142V21.4451H141.512C141.474 21.445 141.437 21.4297 141.41 21.4026C141.383 21.3754 141.368 21.3387 141.367 21.3003V21.0588C141.203 21.2906 140.86 21.5031 140.44 21.5031C139.648 21.5031 139.045 20.8271 139.045 20.0014C139.045 19.1757 139.644 18.4949 140.436 18.4949" fill="#A4A4A4"/>
<path d="M136.901 7.39876L138.567 4.5161C138.612 4.43678 138.623 4.34306 138.599 4.25523C138.575 4.1674 138.518 4.09252 138.439 4.04681C138.36 4.0011 138.267 3.98824 138.179 4.011C138.09 4.03377 138.015 4.09033 137.968 4.16844L136.283 7.08491C134.938 6.48016 133.48 6.16748 132.005 6.16748C130.53 6.16748 129.072 6.48016 127.727 7.08491L126.042 4.16844C125.995 4.09033 125.919 4.03377 125.831 4.011C125.743 3.98824 125.649 4.0011 125.571 4.04681C125.492 4.09252 125.434 4.1674 125.41 4.25523C125.386 4.34306 125.398 4.43678 125.443 4.5161L127.109 7.39876C124.236 8.95357 122.285 11.8459 122 15.2597H141.99C141.705 11.8459 139.75 8.95357 136.901 7.39876ZM127.398 12.4108C127.234 12.4108 127.074 12.3621 126.937 12.2709C126.8 12.1796 126.694 12.0499 126.631 11.8981C126.568 11.7464 126.552 11.5794 126.584 11.4183C126.616 11.2572 126.695 11.1092 126.811 10.9931C126.927 10.8769 127.075 10.7978 127.236 10.7658C127.397 10.7337 127.564 10.7502 127.716 10.813C127.868 10.8759 127.998 10.9823 128.089 11.1189C128.18 11.2555 128.229 11.4161 128.229 11.5803C128.229 11.8006 128.141 12.0118 127.986 12.1676C127.83 12.3233 127.619 12.4108 127.398 12.4108V12.4108ZM136.602 12.4108C136.437 12.4108 136.277 12.3621 136.14 12.2709C136.004 12.1796 135.897 12.0499 135.834 11.8981C135.771 11.7464 135.755 11.5794 135.787 11.4183C135.819 11.2572 135.898 11.1092 136.014 10.9931C136.131 10.8769 136.279 10.7978 136.44 10.7658C136.601 10.7337 136.768 10.7502 136.919 10.813C137.071 10.8759 137.201 10.9823 137.292 11.1189C137.383 11.2555 137.432 11.4161 137.432 11.5803C137.432 11.8006 137.345 12.0118 137.189 12.1676C137.033 12.3233 136.822 12.4108 136.602 12.4108V12.4108Z" fill="#A4A4A4"/>
<path d="M172 1.99945C168.697 1.99945 165.772 3.59616 163.952 6.05992L167.041 11.4099C167.184 10.206 167.76 9.09524 168.662 8.28441C169.563 7.47357 170.728 7.01788 171.941 7.00216C171.96 7.00002 171.98 6.99904 172 6.99923H180.661C178.933 4.00975 175.705 1.99927 172 1.99927L172 1.99945ZM163.338 6.99841C162.488 8.46925 162 10.1761 162 11.9994C162 17.1498 165.88 21.3818 170.881 21.9368L173.965 16.5956C173.344 16.8616 172.675 16.999 171.999 16.9994C171.135 16.9982 170.286 16.7732 169.535 16.3462C168.784 15.9192 168.156 15.3048 167.713 14.5629C167.697 14.5429 167.682 14.5217 167.669 14.4994L163.338 6.99846L163.338 6.99841ZM172 7.99938C170.939 7.99938 169.921 8.4208 169.171 9.17094C168.421 9.92108 168 10.9385 168 11.9993C168 13.0602 168.421 14.0776 169.171 14.8278C169.921 15.5779 170.939 15.9993 172 15.9993C173.06 15.9993 174.078 15.5779 174.828 14.8278C175.578 14.0776 175.999 13.0602 175.999 11.9993C175.999 10.9385 175.578 9.92108 174.828 9.17094C174.078 8.4208 173.06 7.99938 172 7.99938ZM174.991 7.99938C175.614 8.46424 176.119 9.06777 176.468 9.76209C176.817 10.4564 176.999 11.2224 176.999 11.9993C176.997 12.8476 176.78 13.6813 176.367 14.4222C176.357 14.4489 176.344 14.4747 176.33 14.4993L172 21.9993C177.529 21.999 182 17.5278 182 11.9993C182 10.5762 181.702 9.22411 181.167 7.99937H174.991L174.991 7.99938Z" fill="#A4A4A4"/>
<path fill-rule="evenodd" clip-rule="evenodd" d="M208.659 17.5193C210.082 19.3684 212.199 20.5407 214.563 20.5407C216.017 20.5407 217.377 20.0968 218.54 19.3252C216.784 20.8958 214.467 21.8514 211.926 21.8514C211.767 21.8514 211.61 21.8472 211.453 21.8398C206.191 21.5931 202 17.2489 202 11.9257C202 6.4437 206.444 2 211.926 2C211.938 2 211.951 2.00025 211.963 2.00025C214.49 2.00963 216.794 2.96321 218.541 4.52667C217.378 3.75457 216.017 3.31062 214.563 3.31062C212.199 3.31062 210.082 4.48296 208.659 6.3321C207.561 7.62765 206.85 9.54272 206.802 11.6919V12.1595C206.85 14.3086 207.561 16.224 208.659 17.5193ZM209 6.80577C210.403 5.08865 212.489 4 214.818 4C216.251 4 217.592 4.41226 218.738 5.129C220.74 6.81677 222 9.26944 222 11.9998C222 14.7306 220.739 17.1835 218.738 18.8712C217.591 19.5877 216.251 20 214.818 20C212.489 20 210.403 18.9111 209 17.1942C209.898 18.1925 211.057 18.7946 212.323 18.7946C215.17 18.7946 217.478 15.7525 217.478 12C217.478 8.24728 215.17 5.20535 212.323 5.20535C211.057 5.20535 209.897 5.80746 209 6.80577Z" fill="#A4A4A4"/>
<mask id="mask0_1_99" style="mask-type:luminance" maskUnits="userSpaceOnUse" x="202" y="2" width="20" height="20">
<path fill-rule="evenodd" clip-rule="evenodd" d="M208.659 17.5193C210.082 19.3684 212.199 20.5407 214.563 20.5407C216.017 20.5407 217.377 20.0968 218.54 19.3252C216.784 20.8958 214.467 21.8514 211.926 21.8514C211.767 21.8514 211.61 21.8472 211.453 21.8398C206.191 21.5931 202 17.2489 202 11.9257C202 6.4437 206.444 2 211.926 2C211.938 2 211.951 2.00025 211.963 2.00025C214.49 2.00963 216.794 2.96321 218.541 4.52667C217.378 3.75457 216.017 3.31062 214.563 3.31062C212.199 3.31062 210.082 4.48296 208.659 6.3321C207.561 7.62765 206.85 9.54272 206.802 11.6919V12.1595C206.85 14.3086 207.561 16.224 208.659 17.5193ZM209 6.80577C210.403 5.08865 212.489 4 214.818 4C216.251 4 217.592 4.41226 218.738 5.129C220.74 6.81677 222 9.26944 222 11.9998C222 14.7306 220.739 17.1835 218.738 18.8712C217.591 19.5877 216.251 20 214.818 20C212.489 20 210.403 18.9111 209 17.1942C209.898 18.1925 211.057 18.7946 212.323 18.7946C215.17 18.7946 217.478 15.7525 217.478 12C217.478 8.24728 215.17 5.20535 212.323 5.20535C211.057 5.20535 209.897 5.80746 209 6.80577Z" fill="white"/>
</mask>
<g mask="url(#mask0_1_99)">
</g>
<path fill-rule="evenodd" clip-rule="evenodd" d="M253.84 13.691C253.864 13.6679 253.886 13.6476 253.9 13.6289C254.295 13.1149 254.509 12.493 254.509 12.0735C254.509 12.0447 254.509 12.0129 254.508 11.9784L254.508 11.9789C254.508 11.9745 254.508 11.9701 254.508 11.9657C254.507 11.931 254.505 11.8937 254.503 11.854C254.472 11.3723 254.302 10.9089 254.011 10.5211C253.778 10.2084 253.475 9.95397 253.127 9.77778C252.779 9.60159 252.394 9.50842 252.004 9.50558C251.472 9.49581 251.066 9.68757 250.819 9.80442L250.79 9.81806L250.79 9.81819L250.79 9.81818C250.406 10.0274 250.084 10.3354 249.859 10.7105C249.633 11.0855 249.511 11.514 249.507 11.9517C249.507 15.2148 252.727 17.7576 256.423 17.7576C257.381 17.7595 258.331 17.5885 259.228 17.2529C259.51 17.1473 259.785 17.0244 260.051 16.885C260.112 16.8512 260.182 16.8387 260.251 16.8493C260.32 16.86 260.383 16.8932 260.43 16.9437C260.478 16.9943 260.508 17.0592 260.514 17.1284C260.521 17.1975 260.504 17.2669 260.467 17.3256C259.251 19.2515 257.417 20.7063 255.264 21.4504L255.162 21.4847C254.971 21.545 254.737 21.6055 254.487 21.6592C254.717 21.6158 254.946 21.5586 255.171 21.4876C252.846 22.2626 250.318 22.1569 248.066 21.1904C245.814 20.2239 243.995 18.4641 242.955 16.245C242.318 14.8751 241.995 13.3807 242.009 11.8703C242.009 11.6558 242.025 11.439 242.056 11.2215C242.022 11.4257 242.004 11.6335 242 11.8444C242.041 9.22205 243.11 6.7204 244.978 4.8788C246.849 3.03386 249.372 1.99968 251.999 1.99994C255.885 1.99994 259.458 3.86232 261.114 7.1004C261.127 7.12712 261.142 7.15559 261.157 7.18579C261.44 7.73823 262.019 8.87072 262 10.5307C261.998 11.3667 261.778 12.1878 261.361 12.9124C260.944 13.6371 260.344 14.2401 259.622 14.6616C258.907 15.0867 258.09 15.3119 257.258 15.3139C257.258 15.3139 257.257 15.314 257.256 15.314C257.183 15.3171 255.116 15.4042 254.011 14.6359C253.775 14.471 253.642 14.275 253.642 14.0711C253.642 13.8804 253.758 13.7695 253.84 13.691ZM242 11.8587C242 11.8539 242 11.8492 242 11.8444Z" fill="#A4A4A4"/>
</svg>
