<svg width="264" height="24" viewBox="0 0 264 24" fill="none" xmlns="http://www.w3.org/2000/svg">
    <path fill-rule="evenodd" clip-rule="evenodd" d="M14.8902 4.03331C15.5764 3.23057 16.0389 2.11243 15.9124 1C14.9235 1.038 13.7272 1.63744 13.0182 2.43923C12.3815 3.15077 11.8257 4.2879 11.9751 5.37849C13.0782 5.46114 14.204 4.837 14.8902 4.03331ZM17.3638 11.0936C17.3914 13.9692 19.9715 14.9259 20 14.9382C19.9791 15.0057 19.5879 16.3014 18.641 17.6409C17.8215 18.798 16.9717 19.9503 15.6326 19.975C14.3173 19.9988 13.8938 19.2208 12.3892 19.2208C10.8854 19.2208 10.4153 19.9503 9.17045 19.9988C7.87802 20.0453 6.893 18.7467 6.06786 17.5934C4.37952 15.2346 3.08994 10.9274 4.82206 8.02041C5.68241 6.57738 7.21943 5.66254 8.88874 5.63974C10.1574 5.61599 11.3556 6.46528 12.1312 6.46528C12.9069 6.46528 14.363 5.44404 15.8934 5.59414C16.5339 5.61979 18.3326 5.84399 19.487 7.47891C19.3938 7.53496 17.3409 8.69015 17.3638 11.0936Z" fill="#A4A4A4"/>
    <path fill-rule="evenodd" clip-rule="evenodd" d="M52 2.11902C46.4862 2.11902 42.119 6.48616 42.119 12C42.119 17.5143 46.4862 21.8809 52 21.8809C57.5138 21.8809 61.8809 17.5143 61.8809 12C61.8809 6.48616 57.5143 2.11902 52 2.11902ZM53.1427 7.59341V7.39794L52.5352 7.43966C52.3632 7.45052 52.234 7.4871 52.1471 7.54883C52.0602 7.61112 52.0168 7.69743 52.0168 7.80773C52.0168 7.91518 52.0597 8.00091 52.146 8.06435C52.2317 8.12837 52.3472 8.1598 52.4912 8.1598C52.5832 8.1598 52.6695 8.14551 52.7489 8.11751C52.8284 8.0895 52.8981 8.05007 52.9564 7.99977C53.0147 7.95005 53.0604 7.89061 53.093 7.82145C53.1262 7.75229 53.1427 7.67628 53.1427 7.59341ZM54.2498 6.75383C54.3058 6.59666 54.3846 6.46177 54.4869 6.34975C54.5892 6.23773 54.7121 6.15143 54.8562 6.09084C55.0002 6.03026 55.1608 5.99997 55.3374 5.99997C55.4968 5.99997 55.6409 6.02397 55.7689 6.07141C55.8975 6.11885 56.0072 6.18286 56.0992 6.26345C56.1913 6.34404 56.2644 6.43777 56.3181 6.54522C56.3719 6.65267 56.4039 6.7664 56.4147 6.88585H55.9386C55.9266 6.82013 55.9049 6.7584 55.8741 6.70182C55.8432 6.64524 55.8026 6.59608 55.7523 6.55436C55.7015 6.51264 55.642 6.48006 55.574 6.45663C55.5054 6.43262 55.4288 6.42119 55.3425 6.42119C55.2414 6.42119 55.1494 6.44177 55.0676 6.48235C54.9853 6.52293 54.915 6.58065 54.8567 6.65495C54.7984 6.72925 54.7533 6.82013 54.7213 6.92643C54.6887 7.03331 54.6727 7.15162 54.6727 7.28193C54.6727 7.41681 54.6887 7.53798 54.7213 7.64429C54.7533 7.75116 54.799 7.84089 54.8584 7.91462C54.9173 7.98835 54.9887 8.04493 55.0716 8.0838C55.1545 8.12266 55.2459 8.14267 55.3454 8.14267C55.5083 8.14267 55.6409 8.10437 55.7438 8.02779C55.8466 7.9512 55.9129 7.83918 55.9438 7.69172H56.4205C56.4067 7.82203 56.3707 7.94091 56.3124 8.04836C56.2541 8.15581 56.1787 8.24726 56.0861 8.32327C55.9929 8.39929 55.8838 8.45816 55.758 8.49931C55.6323 8.54046 55.494 8.5616 55.3437 8.5616C55.1654 8.5616 55.0048 8.53188 54.8602 8.47302C54.7161 8.41415 54.5921 8.32899 54.4892 8.21868C54.3863 8.10837 54.3069 7.97406 54.2509 7.81575C54.1949 7.65743 54.1669 7.47968 54.1669 7.28136C54.1657 7.08761 54.1937 6.91157 54.2498 6.75383ZM47.4754 6.03252H47.952V6.45603H47.9612C47.9903 6.38573 48.0286 6.32229 48.0755 6.26742C48.1223 6.21198 48.1761 6.16512 48.2378 6.12568C48.2989 6.08625 48.367 6.05653 48.4401 6.03595C48.5138 6.01537 48.5916 6.00509 48.6727 6.00509C48.8476 6.00509 48.9956 6.04681 49.1157 6.13025C49.2363 6.2137 49.322 6.33372 49.3723 6.49032H49.3843C49.4163 6.41488 49.4586 6.34744 49.5106 6.288C49.5626 6.22856 49.6226 6.17712 49.6901 6.13483C49.7575 6.09253 49.8318 6.06053 49.9124 6.03824C49.993 6.01595 50.0776 6.00509 50.1667 6.00509C50.2896 6.00509 50.4011 6.02452 50.5017 6.06396C50.6022 6.10339 50.688 6.15826 50.7594 6.2297C50.8309 6.30114 50.8857 6.38802 50.924 6.48975C50.9623 6.59149 50.9817 6.70465 50.9817 6.82925V8.533H50.4845V6.9487C50.4845 6.78467 50.4422 6.65721 50.3576 6.56748C50.2736 6.47775 50.153 6.4326 49.9964 6.4326C49.9198 6.4326 49.8495 6.44631 49.7855 6.47318C49.7221 6.50004 49.6666 6.53776 49.6209 6.58634C49.5746 6.63435 49.5386 6.69265 49.5129 6.76009C49.4866 6.82753 49.4735 6.90126 49.4735 6.98127V8.533H48.9831V6.90755C48.9831 6.83553 48.9716 6.77038 48.9494 6.71208C48.9271 6.65378 48.8956 6.60406 48.8539 6.56234C48.8128 6.52061 48.7619 6.48918 48.703 6.46689C48.6436 6.4446 48.5773 6.43317 48.5036 6.43317C48.427 6.43317 48.3561 6.44746 48.2904 6.47603C48.2252 6.50461 48.1692 6.54405 48.1223 6.59434C48.0755 6.64521 48.0389 6.70465 48.0132 6.77381C47.988 6.84239 47.9469 6.91783 47.9469 6.99899V8.53243H47.4754V6.03252ZM48.5573 18C46.3711 18 45 16.4808 45 14.0564C45 11.6319 46.3711 10.1076 48.5573 10.1076C50.7434 10.1076 52.1094 11.6319 52.1094 14.0564C52.1094 16.4803 50.7434 18 48.5573 18ZM52.6048 8.52674C52.5243 8.54732 52.442 8.5576 52.3574 8.5576C52.2328 8.5576 52.119 8.53989 52.0156 8.50445C51.9116 8.46902 51.823 8.41929 51.7487 8.35471C51.6744 8.29012 51.6161 8.21239 51.5749 8.12095C51.5332 8.0295 51.5126 7.92777 51.5126 7.81575C51.5126 7.59628 51.5944 7.42481 51.7578 7.30136C51.9213 7.17791 52.1579 7.1059 52.4682 7.08589L53.1427 7.04703V6.85385C53.1427 6.70982 53.0969 6.59951 53.0055 6.52464C52.914 6.44977 52.7849 6.41205 52.6174 6.41205C52.55 6.41205 52.4865 6.42062 52.4282 6.4372C52.3699 6.45434 52.3185 6.47835 52.2739 6.50978C52.2293 6.54122 52.1922 6.57894 52.1636 6.62295C52.1345 6.66638 52.1145 6.71554 52.1036 6.76926H51.6361C51.6389 6.65895 51.6664 6.55665 51.7178 6.46292C51.7693 6.36918 51.839 6.28802 51.9276 6.21887C52.0162 6.14971 52.1196 6.09599 52.2396 6.05769C52.3597 6.0194 52.49 5.99997 52.6311 5.99997C52.7832 5.99997 52.9209 6.01883 53.0444 6.05769C53.1678 6.09656 53.2735 6.15086 53.361 6.2223C53.4484 6.29374 53.5159 6.37947 53.5633 6.48006C53.6108 6.58065 53.6348 6.69325 53.6348 6.81727V8.53246H53.1587V8.1158H53.1467C53.1112 8.18325 53.0666 8.2444 53.0124 8.2987C52.9575 8.35299 52.8963 8.39986 52.8283 8.43815C52.7597 8.47645 52.6854 8.50617 52.6048 8.52674ZM55.75 18C54.0829 18 52.9495 17.1267 52.8706 15.7555H53.956C54.0406 16.5391 54.7979 17.0581 55.8352 17.0581C56.8303 17.0581 57.5453 16.5391 57.5453 15.8298C57.5453 15.216 57.1109 14.8451 56.1055 14.5913L55.1259 14.3478C53.7177 13.9986 53.0775 13.3579 53.0775 12.3046C53.0775 11.0078 54.2103 10.1076 55.8249 10.1076C57.4024 10.1076 58.5031 11.0129 58.5454 12.3149H57.471C57.3967 11.5313 56.7565 11.0495 55.8032 11.0495C54.8556 11.0495 54.1995 11.5364 54.1995 12.2406C54.1995 12.7961 54.6121 13.1247 55.618 13.3785L56.4439 13.5848C58.0162 13.9661 58.662 14.5856 58.662 15.6972C58.6615 17.1158 57.5395 18 55.75 18ZM48.5573 11.0809C47.0593 11.0809 46.1225 12.2297 46.1225 14.0558C46.1225 15.8767 47.0593 17.0255 48.5573 17.0255C50.0501 17.0255 50.992 15.8767 50.992 14.0558C50.9926 12.2297 50.0501 11.0809 48.5573 11.0809Z" fill="#A4A4A4"/>
    <path d="M91.4799 2H82V11.4799H91.4799V2Z" fill="#A4A4A4"/>
    <path d="M102 2H92.52V11.4799H102V2Z" fill="#A4A4A4"/>
    <path d="M91.4799 12.5209H82V22.0008H91.4799V12.5209Z" fill="#A4A4A4"/>
    <path d="M102 12.5209H92.52V22.0008H102V12.5209Z" fill="#A4A4A4"/>
    <path d="M123.511 19.0695C122.995 19.0695 122.647 19.4751 122.647 19.9966C122.647 20.518 122.995 20.9236 123.511 20.9236C124.028 20.9236 124.376 20.518 124.376 19.9966C124.371 19.4751 124.023 19.0695 123.511 19.0695ZM123.395 18.4949C123.811 18.4949 124.158 18.7073 124.323 18.9391V18.5528H124.96V21.4451H124.467C124.429 21.445 124.392 21.4297 124.365 21.4026C124.338 21.3754 124.323 21.3387 124.323 21.3003V21.0588C124.158 21.2906 123.816 21.5031 123.395 21.5031C122.604 21.5031 122 20.8271 122 20.0014C122 19.1757 122.599 18.4949 123.395 18.4949ZM125.684 18.5528H126.322V18.9439C126.495 18.6542 126.824 18.4949 127.2 18.4949C127.872 18.4949 128.306 18.9681 128.306 19.702V21.4451H127.818C127.78 21.445 127.743 21.4297 127.716 21.4026C127.689 21.3754 127.674 21.3387 127.674 21.3003V19.8082C127.674 19.3495 127.442 19.0743 127.07 19.0743C126.65 19.0743 126.322 19.4026 126.322 20.0207V21.4451H125.834C125.796 21.445 125.759 21.4297 125.732 21.4026C125.704 21.3754 125.689 21.3387 125.689 21.3003L125.684 18.5528ZM130.315 19.0695C129.798 19.0695 129.451 19.4751 129.451 19.9966C129.451 20.518 129.798 20.9236 130.315 20.9236C130.831 20.9236 131.179 20.518 131.179 19.9966C131.179 19.4751 130.831 19.0695 130.315 19.0695ZM130.199 18.4949C130.614 18.4949 130.962 18.7073 131.126 18.9391V17.1042H131.763V21.4451H131.276C131.237 21.445 131.201 21.4297 131.173 21.4026C131.146 21.3754 131.131 21.3387 131.131 21.3003V21.0588C130.967 21.2906 130.624 21.5031 130.204 21.5031C129.412 21.5031 128.808 20.8271 128.808 20.0014C128.808 19.1757 129.407 18.4949 130.199 18.4949ZM132.488 18.5528H133.125V19.0695C133.181 18.9113 133.284 18.7742 133.421 18.6766C133.557 18.579 133.72 18.5257 133.888 18.5238C133.971 18.5223 134.053 18.5304 134.134 18.548V19.1998C134.031 19.1654 133.924 19.1475 133.816 19.1467C133.453 19.1467 133.12 19.4558 133.12 20.0304V21.4403H132.633C132.594 21.4402 132.557 21.4249 132.53 21.3978C132.503 21.3706 132.488 21.3338 132.488 21.2954V18.5528ZM135.848 20.9092C136.355 20.9092 136.718 20.5084 136.718 19.9966C136.718 19.4799 136.36 19.084 135.848 19.084C135.332 19.084 134.974 19.4847 134.974 19.9966C134.979 20.5132 135.332 20.9092 135.848 20.9092ZM135.848 21.5031C135.551 21.5007 135.262 21.4104 135.016 21.2436C134.77 21.0768 134.579 20.8409 134.467 20.5657C134.355 20.2905 134.327 19.9883 134.387 19.6973C134.446 19.4062 134.591 19.1393 134.802 18.9303C135.013 18.7212 135.281 18.5794 135.573 18.5226C135.864 18.4658 136.166 18.4966 136.44 18.6112C136.715 18.7257 136.949 18.9189 137.113 19.1663C137.278 19.4137 137.365 19.7043 137.365 20.0014C137.366 20.2001 137.327 20.397 137.251 20.5806C137.175 20.7642 137.063 20.9308 136.922 21.0706C136.781 21.2104 136.613 21.3207 136.429 21.395C136.244 21.4692 136.047 21.506 135.848 21.5031ZM137.881 18.5528H138.519V21.4451H138.031C137.993 21.445 137.956 21.4297 137.929 21.4026C137.901 21.3754 137.886 21.3387 137.886 21.3003L137.881 18.5528ZM138.2 17.9203C138.086 17.9192 137.978 17.8736 137.897 17.7932C137.817 17.7129 137.771 17.6042 137.77 17.4905C137.772 17.3781 137.819 17.2712 137.899 17.1926C137.979 17.114 138.088 17.0702 138.2 17.0704C138.313 17.0704 138.421 17.1152 138.5 17.1949C138.58 17.2746 138.625 17.3827 138.625 17.4954C138.625 17.608 138.58 17.7161 138.5 17.7958C138.421 17.8755 138.313 17.9203 138.2 17.9203ZM140.551 19.0695C140.035 19.0695 139.687 19.4751 139.687 19.9966C139.687 20.518 140.035 20.9236 140.551 20.9236C141.068 20.9236 141.416 20.518 141.416 19.9966C141.406 19.4751 141.068 19.0695 140.551 19.0695ZM140.436 18.4949C140.851 18.4949 141.198 18.7073 141.363 18.9391V17.1042H142V21.4451H141.512C141.474 21.445 141.437 21.4297 141.41 21.4026C141.383 21.3754 141.368 21.3387 141.367 21.3003V21.0588C141.203 21.2906 140.86 21.5031 140.44 21.5031C139.648 21.5031 139.045 20.8271 139.045 20.0014C139.045 19.1757 139.644 18.4949 140.436 18.4949Z" fill="#A4A4A4"/>
    <path d="M136.901 7.39876L138.567 4.5161C138.612 4.43678 138.623 4.34306 138.599 4.25523C138.575 4.1674 138.518 4.09252 138.439 4.04681C138.36 4.0011 138.267 3.98824 138.179 4.011C138.09 4.03377 138.015 4.09033 137.968 4.16844L136.283 7.08491C134.938 6.48016 133.48 6.16748 132.005 6.16748C130.53 6.16748 129.072 6.48016 127.727 7.08491L126.042 4.16844C125.995 4.09033 125.919 4.03377 125.831 4.011C125.743 3.98824 125.649 4.0011 125.571 4.04681C125.492 4.09252 125.434 4.1674 125.41 4.25523C125.386 4.34306 125.398 4.43678 125.443 4.5161L127.109 7.39876C124.236 8.95357 122.285 11.8459 122 15.2597H141.99C141.705 11.8459 139.75 8.95357 136.901 7.39876ZM127.398 12.4108C127.234 12.4108 127.074 12.3621 126.937 12.2709C126.8 12.1796 126.694 12.0499 126.631 11.8981C126.568 11.7464 126.552 11.5794 126.584 11.4183C126.616 11.2572 126.695 11.1092 126.811 10.9931C126.927 10.8769 127.075 10.7978 127.236 10.7658C127.397 10.7337 127.564 10.7502 127.716 10.813C127.868 10.8759 127.998 10.9823 128.089 11.1189C128.18 11.2555 128.229 11.4161 128.229 11.5803C128.229 11.8006 128.141 12.0118 127.986 12.1676C127.83 12.3233 127.619 12.4108 127.398 12.4108ZM136.602 12.4108C136.437 12.4108 136.277 12.3621 136.14 12.2709C136.004 12.1796 135.897 12.0499 135.834 11.8981C135.771 11.7464 135.755 11.5794 135.787 11.4183C135.819 11.2572 135.898 11.1092 136.014 10.9931C136.131 10.8769 136.279 10.7978 136.44 10.7658C136.601 10.7337 136.768 10.7502 136.919 10.813C137.071 10.8759 137.201 10.9823 137.292 11.1189C137.383 11.2555 137.432 11.4161 137.432 11.5803C137.432 11.8006 137.345 12.0118 137.189 12.1676C137.033 12.3233 136.822 12.4108 136.602 12.4108Z" fill="#A4A4A4"/>
    <path d="M172 1.99945C168.697 1.99945 165.772 3.59616 163.952 6.05992L167.041 11.4099C167.184 10.206 167.76 9.09524 168.662 8.28441C169.563 7.47357 170.728 7.01788 171.941 7.00216C171.96 7.00002 171.98 6.99904 172 6.99923H180.661C178.933 4.00975 175.705 1.99927 172 1.99927L172 1.99945ZM163.338 6.99841C162.488 8.46925 162 10.1761 162 11.9994C162 17.1498 165.88 21.3818 170.881 21.9368L173.965 16.5956C173.344 16.8616 172.675 16.999 171.999 16.9994C171.135 16.9982 170.286 16.7732 169.535 16.3462C168.784 15.9192 168.156 15.3048 167.713 14.5629C167.697 14.5429 167.682 14.5217 167.669 14.4994L163.338 6.99846L163.338 6.99841ZM172 7.99938C170.939 7.99938 169.921 8.4208 169.171 9.17094C168.421 9.92108 168 10.9385 168 11.9993C168 13.0602 168.421 14.0776 169.171 14.8278C169.921 15.5779 170.939 15.9993 172 15.9993C173.06 15.9993 174.078 15.5779 174.828 14.8278C175.578 14.0776 175.999 13.0602 175.999 11.9993C175.999 10.9385 175.578 9.92108 174.828 9.17094C174.078 8.4208 173.06 7.99938 172 7.99938ZM174.991 7.99938C175.614 8.46424 176.119 9.06777 176.468 9.76209C176.817 10.4564 176.999 11.2224 176.999 11.9993C176.997 12.8476 176.78 13.6813 176.367 14.4222C176.357 14.4489 176.344 14.4747 176.33 14.4993L172 21.9993C177.529 21.999 182 17.5278 182 11.9993C182 10.5762 181.702 9.22411 181.167 7.99937H174.991L174.991 7.99938Z" fill="#A4A4A4"/>
    <path fill-rule="evenodd" clip-rule="evenodd" d="M208.659 17.5193C210.082 19.3684 212.199 20.5407 214.563 20.5407C216.017 20.5407 217.377 20.0968 218.54 19.3252C216.784 20.8958 214.467 21.8514 211.926 21.8514C211.767 21.8514 211.61 21.8472 211.453 21.8398C206.191 21.5931 202 17.2489 202 11.9257C202 6.4437 206.444 2 211.926 2C211.938 2 211.951 2.00025 211.963 2.00025C214.49 2.00963 216.794 2.96321 218.541 4.52667C217.378 3.75457 216.017 3.31062 214.563 3.31062C212.199 3.31062 210.082 4.48296 208.659 6.3321C207.561 7.62765 206.85 9.54272 206.802 11.6919V12.1595C206.85 14.3086 207.561 16.224 208.659 17.5193ZM209 6.80577C210.403 5.08865 212.489 4 214.818 4C216.251 4 217.592 4.41226 218.738 5.129C220.74 6.81677 222 9.26944 222 11.9998C222 14.7306 220.739 17.1835 218.738 18.8712C217.591 19.5877 216.251 20 214.818 20C212.489 20 210.403 18.9111 209 17.1942C209.898 18.1925 211.057 18.7946 212.323 18.7946C215.17 18.7946 217.478 15.7525 217.478 12C217.478 8.24728 215.17 5.20535 212.323 5.20535C211.057 5.20535 209.897 5.80746 209 6.80577Z" fill="#A4A4A4"/>
    <mask id="mask0_5697_33651" style="mask-type:alpha" maskUnits="userSpaceOnUse" x="202" y="2" width="20" height="20">
        <path fill-rule="evenodd" clip-rule="evenodd" d="M208.659 17.5193C210.082 19.3684 212.199 20.5407 214.563 20.5407C216.017 20.5407 217.377 20.0968 218.54 19.3252C216.784 20.8958 214.467 21.8514 211.926 21.8514C211.767 21.8514 211.61 21.8472 211.453 21.8398C206.191 21.5931 202 17.2489 202 11.9257C202 6.4437 206.444 2 211.926 2C211.938 2 211.951 2.00025 211.963 2.00025C214.49 2.00963 216.794 2.96321 218.541 4.52667C217.378 3.75457 216.017 3.31062 214.563 3.31062C212.199 3.31062 210.082 4.48296 208.659 6.3321C207.561 7.62765 206.85 9.54272 206.802 11.6919V12.1595C206.85 14.3086 207.561 16.224 208.659 17.5193ZM209 6.80577C210.403 5.08865 212.489 4 214.818 4C216.251 4 217.592 4.41226 218.738 5.129C220.74 6.81677 222 9.26944 222 11.9998C222 14.7306 220.739 17.1835 218.738 18.8712C217.591 19.5877 216.251 20 214.818 20C212.489 20 210.403 18.9111 209 17.1942C209.898 18.1925 211.057 18.7946 212.323 18.7946C215.17 18.7946 217.478 15.7525 217.478 12C217.478 8.24728 215.17 5.20535 212.323 5.20535C211.057 5.20535 209.897 5.80746 209 6.80577Z" fill="white"/>
    </mask>
    <g mask="url(#mask0_5697_33651)">
    </g>
    <path fill-rule="evenodd" clip-rule="evenodd" d="M253.84 13.6911C253.864 13.668 253.886 13.6476 253.9 13.629C254.295 13.1149 254.509 12.4931 254.509 12.0736C254.509 12.0448 254.509 12.013 254.508 11.9784L254.508 11.9789C254.508 11.9745 254.508 11.9702 254.508 11.9658C254.507 11.9311 254.505 11.8937 254.503 11.854C254.472 11.3723 254.302 10.909 254.011 10.5212C253.778 10.2085 253.475 9.95403 253.127 9.77784C252.779 9.60165 252.394 9.50848 252.004 9.50564C251.472 9.49587 251.066 9.68763 250.819 9.80448L250.79 9.81812L250.79 9.81825L250.79 9.81824C250.406 10.0275 250.084 10.3355 249.859 10.7105C249.633 11.0856 249.511 11.5141 249.507 11.9517C249.507 15.2148 252.727 17.7577 256.423 17.7577C257.381 17.7595 258.331 17.5886 259.228 17.253C259.51 17.1474 259.785 17.0245 260.051 16.885C260.112 16.8513 260.182 16.8388 260.251 16.8494C260.32 16.86 260.383 16.8932 260.43 16.9438C260.478 16.9943 260.508 17.0593 260.514 17.1284C260.521 17.1976 260.504 17.267 260.467 17.3256C259.251 19.2516 257.417 20.7063 255.264 21.4504L255.162 21.4848C254.971 21.545 254.737 21.6056 254.487 21.6593C254.717 21.6159 254.946 21.5587 255.171 21.4877C252.846 22.2627 250.318 22.1569 248.066 21.1905C245.814 20.224 243.995 18.4641 242.955 16.2451C242.318 14.8752 241.995 13.3807 242.009 11.8703C242.009 11.6558 242.025 11.4391 242.056 11.2216C242.022 11.4257 242.004 11.6336 242 11.8445C242.041 9.22211 243.11 6.72046 244.978 4.87886C246.849 3.03392 249.372 1.99974 251.999 2C255.885 2 259.458 3.86238 261.114 7.10046C261.127 7.12718 261.142 7.15565 261.157 7.18585C261.44 7.73829 262.019 8.87078 262 10.5307C261.998 11.3668 261.778 12.1878 261.361 12.9125C260.944 13.6371 260.344 14.2401 259.622 14.6617C258.907 15.0867 258.09 15.312 257.258 15.314C257.258 15.314 257.257 15.314 257.256 15.3141C257.183 15.3172 255.116 15.4043 254.011 14.6359C253.775 14.4711 253.642 14.275 253.642 14.0711C253.642 13.8805 253.758 13.7695 253.84 13.6911ZM242 11.8588C242 11.854 242 11.8492 242 11.8445L242 11.8588Z" fill="#A4A4A4"/>
</svg>
