<svg width="150" height="24" fill="none" xmlns="http://www.w3.org/2000/svg"><path fill-rule="evenodd" clip-rule="evenodd" d="M14.89 4.03A4.1 4.1 0 0 0 15.91 1c-.99.04-2.18.64-2.9 1.44a3.9 3.9 0 0 0-1.03 2.94 3.7 3.7 0 0 0 2.91-1.35Zm2.47 7.06c.03 2.88 2.61 3.84 2.64 3.85-.02.07-.41 1.36-1.36 2.7-.82 1.16-1.67 2.31-3 2.34-1.32.02-1.75-.76-3.25-.76s-1.97.73-3.22.78c-1.3.05-2.28-1.25-3.1-2.4-1.69-2.37-2.98-6.67-1.25-9.58A4.84 4.84 0 0 1 8.9 5.64c1.27-.02 2.47.83 3.24.83.78 0 2.23-1.03 3.76-.88.64.03 2.44.25 3.6 1.89-.1.05-2.15 1.21-2.13 3.61ZM52 2.12A9.8 9.8 0 0 0 42.12 12 9.8 9.8 0 0 0 52 21.88 9.8 9.8 0 0 0 61.88 12 9.8 9.8 0 0 0 52 2.12Zm1.14 5.47v-.2l-.6.05a.75.75 0 0 0-.4.1.3.3 0 0 0-.12.27c0 .1.04.2.13.25.08.07.2.1.34.1.1 0 .18-.01.26-.04a.64.64 0 0 0 .2-.12.53.53 0 0 0 .2-.4Zm1.11-.84c.06-.15.13-.29.24-.4.1-.11.22-.2.37-.26.14-.06.3-.09.48-.09.16 0 .3.02.43.07s.24.11.33.2a.92.92 0 0 1 .31.62h-.47a.61.61 0 0 0-.07-.19.5.5 0 0 0-.12-.15.57.57 0 0 0-.18-.1.7.7 0 0 0-.5.03.6.6 0 0 0-.21.17.82.82 0 0 0-.14.28 1.24 1.24 0 0 0 0 .72c.03.1.08.2.14.26a.6.6 0 0 0 .21.17c.08.04.18.06.28.06.16 0 .3-.04.4-.11.1-.08.16-.2.2-.34h.47a.95.95 0 0 1-.33.63c-.1.08-.2.14-.33.18-.13.04-.27.06-.42.06-.17 0-.34-.03-.48-.09a1.04 1.04 0 0 1-.6-.65 1.6 1.6 0 0 1-.1-.54c0-.2.03-.37.09-.53Zm-6.77-.72h.47v.43h.01a.7.7 0 0 1 .28-.33.74.74 0 0 1 .2-.1.86.86 0 0 1 .23-.02c.18 0 .33.04.45.12.12.08.2.2.25.36h.01a.75.75 0 0 1 .31-.36.95.95 0 0 1 .81-.07.72.72 0 0 1 .42.43c.04.1.06.21.06.34v1.7h-.5V6.95c0-.17-.04-.3-.12-.38-.09-.1-.2-.14-.36-.14a.54.54 0 0 0-.21.04.48.48 0 0 0-.28.29.6.6 0 0 0-.04.22v1.55h-.49V6.91a.55.55 0 0 0-.03-.2.41.41 0 0 0-.25-.25.56.56 0 0 0-.41.02.5.5 0 0 0-.28.3c-.02.06-.06.14-.06.22v1.53h-.47v-2.5ZM48.56 18C46.37 18 45 16.48 45 14.06c0-2.43 1.37-3.95 3.56-3.95 2.18 0 3.55 1.52 3.55 3.95 0 2.42-1.37 3.94-3.55 3.94Zm4.04-9.47a1.05 1.05 0 0 1-.59-.02.79.79 0 0 1-.26-.16.67.67 0 0 1-.18-.23.73.73 0 0 1-.06-.3c0-.22.08-.4.25-.52.16-.12.4-.2.7-.21l.68-.04v-.2c0-.14-.04-.25-.13-.33a.6.6 0 0 0-.4-.1.7.7 0 0 0-.18.02.52.52 0 0 0-.16.07.42.42 0 0 0-.17.26h-.46c0-.11.03-.21.08-.3.05-.1.12-.18.2-.25.1-.07.2-.12.32-.16a1.37 1.37 0 0 1 .8 0c.13.04.23.1.32.16a.73.73 0 0 1 .27.6v1.71h-.47v-.41h-.01a.76.76 0 0 1-.32.32.93.93 0 0 1-.23.09ZM55.75 18c-1.67 0-2.8-.87-2.88-2.24h1.09c.08.78.84 1.3 1.88 1.3.99 0 1.7-.52 1.7-1.23 0-.61-.43-.98-1.43-1.24l-.98-.24c-1.41-.35-2.05-1-2.05-2.05 0-1.3 1.13-2.2 2.74-2.2 1.58 0 2.68.91 2.73 2.21h-1.08c-.07-.78-.71-1.26-1.67-1.26-.94 0-1.6.49-1.6 1.2 0 .55.41.87 1.42 1.13l.82.2c1.58.39 2.22 1 2.22 2.12 0 1.42-1.12 2.3-2.91 2.3Zm-7.2-6.92c-1.5 0-2.43 1.15-2.43 2.98 0 1.82.94 2.97 2.44 2.97 1.49 0 2.43-1.15 2.43-2.97 0-1.83-.94-2.98-2.43-2.98Z" fill="#A4A4A4"/><path d="M91.48 2H82v9.48h9.48V2ZM102 2h-9.48v9.48H102V2ZM91.48 12.52H82V22h9.48v-9.48ZM102 12.52h-9.48V22H102v-9.48ZM123.51 19.07c-.52 0-.86.4-.86.93 0 .52.34.92.86.92s.87-.4.87-.92-.36-.93-.87-.93Zm-.12-.58c.42 0 .77.22.93.45v-.39h.64v2.9h-.5a.15.15 0 0 1-.14-.15v-.24c-.16.23-.5.44-.92.44-.8 0-1.4-.67-1.4-1.5 0-.82.6-1.5 1.4-1.5Zm2.3.06h.63v.4c.18-.3.5-.46.88-.46.67 0 1.1.48 1.1 1.21v1.75h-.48a.15.15 0 0 1-.15-.15v-1.5c0-.45-.23-.73-.6-.73-.42 0-.75.33-.75.95v1.43h-.49a.15.15 0 0 1-.14-.15v-2.75Zm4.63.52c-.52 0-.87.4-.87.93 0 .52.35.92.87.92.51 0 .86-.4.86-.92s-.35-.93-.87-.93Zm-.12-.58c.41 0 .76.22.93.45V17.1h.63v4.35h-.48a.14.14 0 0 1-.15-.14v-.25c-.16.23-.5.44-.93.44-.79 0-1.4-.67-1.4-1.5 0-.82.6-1.5 1.4-1.5Zm2.29.06h.63v.52a.82.82 0 0 1 .77-.55l.24.03v.65c-.1-.03-.2-.05-.31-.05-.37 0-.7.3-.7.88v1.41h-.49a.15.15 0 0 1-.15-.14v-2.75Zm3.36 2.36c.5 0 .87-.4.87-.91 0-.52-.36-.92-.87-.92-.52 0-.88.4-.88.92 0 .51.36.9.88.9Zm0 .6a1.5 1.5 0 1 1 .02-3.01 1.5 1.5 0 0 1-.02 3Zm2.03-2.96h.64v2.9h-.49a.15.15 0 0 1-.14-.15v-2.75Zm.32-.63a.44.44 0 0 1-.43-.43.43.43 0 0 1 .73-.3.42.42 0 0 1-.3.73Zm2.35 1.15c-.52 0-.86.4-.86.93 0 .52.34.92.86.92s.87-.4.87-.92c-.01-.52-.35-.93-.87-.93Zm-.11-.58c.41 0 .76.22.92.45V17.1h.64v4.35h-.49a.15.15 0 0 1-.14-.15v-.24c-.17.23-.51.44-.93.44-.8 0-1.4-.67-1.4-1.5 0-.82.6-1.5 1.4-1.5ZM136.9 7.4l1.67-2.88a.34.34 0 0 0-.13-.47.35.35 0 0 0-.47.12l-1.69 2.91a10.43 10.43 0 0 0-8.55 0l-1.69-2.91a.35.35 0 0 0-.47-.12.35.35 0 0 0-.13.47l1.67 2.88a9.8 9.8 0 0 0-5.11 7.86h19.99a9.83 9.83 0 0 0-5.09-7.86Zm-9.5 5.01a.83.83 0 1 1 0-1.66.83.83 0 0 1 0 1.66Zm9.2 0a.83.83 0 1 1 0-1.66.83.83 0 0 1 0 1.66Z" fill="#A4A4A4"/></svg>