<svg xmlns="http://www.w3.org/2000/svg" width="264" height="24" fill="none"><path fill="#A4A4A4" fill-rule="evenodd" d="M15.25 3.51A4.83 4.83 0 0 0 16.4 0a4.96 4.96 0 0 0-3.25 1.67 4.6 4.6 0 0 0-1.18 3.4 4.1 4.1 0 0 0 3.28-1.56Zm2.78 8.18c.03 3.33 2.94 4.44 2.97 4.45-.02.08-.46 1.58-1.53 3.13-.92 1.34-1.88 2.67-3.38 2.7-1.48.03-1.96-.87-3.65-.87-1.7 0-2.22.84-3.62.9-1.46.05-2.56-1.45-3.5-2.79-1.9-2.73-3.34-7.71-1.4-11.08A5.42 5.42 0 0 1 8.5 5.37c1.43-.02 2.77.96 3.65.96.87 0 2.5-1.18 4.23-1.01.72.03 2.74.29 4.04 2.18-.1.07-2.41 1.4-2.39 4.19ZM52 2.12c-5.51 0-9.88 4.37-9.88 9.88s4.37 9.88 9.88 9.88 9.88-4.37 9.88-9.88S57.51 2.12 52 2.12Zm1.14 5.47v-.2l-.6.05a.74.74 0 0 0-.4.1.3.3 0 0 0-.12.27c0 .1.04.2.13.25a.56.56 0 0 0 .34.1.77.77 0 0 0 .26-.04.64.64 0 0 0 .2-.12.53.53 0 0 0 .2-.4Zm1.11-.84c.06-.15.14-.29.24-.4.1-.11.22-.2.37-.26.14-.06.3-.09.48-.09.16 0 .3.02.43.07s.24.11.33.2a.92.92 0 0 1 .31.62h-.47a.61.61 0 0 0-.07-.19.5.5 0 0 0-.12-.15.57.57 0 0 0-.18-.1.7.7 0 0 0-.5.03.6.6 0 0 0-.21.17.82.82 0 0 0-.14.28 1.22 1.22 0 0 0-.05.35c0 .14.02.26.05.36a.78.78 0 0 0 .14.27c.06.08.13.13.21.17a.64.64 0 0 0 .28.06.65.65 0 0 0 .4-.11.54.54 0 0 0 .2-.34h.47a.92.92 0 0 1-.33.63 1.01 1.01 0 0 1-.33.18 1.33 1.33 0 0 1-.42.06 1.27 1.27 0 0 1-.48-.09 1.04 1.04 0 0 1-.37-.25 1.14 1.14 0 0 1-.24-.4 1.6 1.6 0 0 1-.08-.54c0-.2.02-.37.08-.53Zm-6.78-.72h.48v.43h.01a.7.7 0 0 1 .28-.33.7.7 0 0 1 .2-.1.86.86 0 0 1 .23-.02c.18 0 .33.04.45.12.12.08.2.2.25.36h.01a.75.75 0 0 1 .13-.2.81.81 0 0 1 .4-.25.95.95 0 0 1 .26-.03.91.91 0 0 1 .33.05.72.72 0 0 1 .42.43.96.96 0 0 1 .06.34v1.7h-.5V6.95c0-.17-.04-.3-.12-.38-.09-.1-.2-.14-.36-.14a.54.54 0 0 0-.21.04.48.48 0 0 0-.28.29.6.6 0 0 0-.04.22v1.55h-.49V6.91a.54.54 0 0 0-.03-.2.42.42 0 0 0-.25-.24.56.56 0 0 0-.41 0 .5.5 0 0 0-.28.3c-.02.07-.06.15-.06.23v1.53h-.48v-2.5ZM48.57 18C46.37 18 45 16.48 45 14.06s1.37-3.95 3.56-3.95 3.55 1.52 3.55 3.95S50.74 18 48.56 18Zm4.04-9.47a1.05 1.05 0 0 1-.58-.03.79.79 0 0 1-.27-.15.67.67 0 0 1-.17-.23.73.73 0 0 1-.07-.3c0-.22.08-.4.25-.52.16-.12.4-.2.7-.21l.68-.04v-.2c0-.14-.04-.25-.13-.33a.6.6 0 0 0-.4-.1.69.69 0 0 0-.18.02.52.52 0 0 0-.16.07.42.42 0 0 0-.17.26h-.46a.67.67 0 0 1 .08-.3.79.79 0 0 1 .2-.25.99.99 0 0 1 .32-.16 1.36 1.36 0 0 1 .8 0 .94.94 0 0 1 .32.16.73.73 0 0 1 .27.6v1.71h-.47v-.41h-.01a.75.75 0 0 1-.14.18.86.86 0 0 1-.4.23ZM55.76 18c-1.67 0-2.8-.87-2.88-2.24h1.09c.08.78.84 1.3 1.88 1.3.99 0 1.7-.52 1.7-1.23 0-.61-.43-.98-1.43-1.24l-.98-.24c-1.41-.35-2.05-1-2.05-2.05 0-1.3 1.13-2.2 2.75-2.2 1.57 0 2.67.91 2.72 2.22h-1.08c-.07-.79-.71-1.27-1.67-1.27-.94 0-1.6.49-1.6 1.19 0 .56.41.89 1.42 1.14l.82.2c1.58.39 2.22 1 2.22 2.12 0 1.42-1.12 2.3-2.91 2.3Zm-7.2-6.92c-1.5 0-2.43 1.15-2.43 2.98 0 1.82.94 2.97 2.44 2.97 1.49 0 2.43-1.15 2.43-2.97 0-1.83-.94-2.98-2.43-2.98Z" clip-rule="evenodd"/><path fill="#A4A4A4" d="M91.48 2H82v9.48h9.48V2ZM102 2h-9.48v9.48H102V2ZM91.48 12.52H82V22h9.48v-9.48Zm10.52 0h-9.48V22H102v-9.48Zm21.51 6.55c-.52 0-.86.4-.86.93 0 .52.34.92.86.92s.87-.4.87-.92c0-.53-.36-.93-.87-.93Zm-.12-.57c.42 0 .77.2.93.44v-.39h.64v2.9h-.5a.14.14 0 0 1-.14-.15v-.24c-.16.23-.5.44-.92.44-.8 0-1.4-.67-1.4-1.5 0-.82.6-1.5 1.4-1.5Zm2.3.05h.63v.4c.18-.3.5-.45.88-.45.67 0 1.1.47 1.1 1.2v1.75h-.48a.14.14 0 0 1-.15-.15v-1.5c0-.45-.23-.73-.6-.73-.42 0-.75.33-.75.95v1.42h-.49a.14.14 0 0 1-.14-.14v-2.75Zm4.63.52c-.52 0-.87.4-.87.93 0 .52.35.92.87.92.51 0 .86-.4.86-.92 0-.53-.35-.93-.87-.93Zm-.12-.57c.41 0 .76.2.93.44V17.1h.63v4.34h-.48a.14.14 0 0 1-.15-.14v-.24c-.16.23-.5.44-.93.44-.79 0-1.4-.67-1.4-1.5 0-.82.6-1.5 1.4-1.5Zm2.29.05h.63v.52a.82.82 0 0 1 .77-.55l.24.03v.65a1.03 1.03 0 0 0-.31-.05c-.37 0-.7.3-.7.88v1.41h-.49a.14.14 0 0 1-.14-.14v-2.75Zm3.36 2.36c.5 0 .87-.4.87-.91 0-.52-.36-.92-.87-.92-.52 0-.88.4-.88.92 0 .51.36.9.88.9Zm0 .6a1.5 1.5 0 1 1 1.51-1.5 1.5 1.5 0 0 1-1.51 1.5Zm2.03-2.96h.64v2.9h-.49a.14.14 0 0 1-.14-.15v-2.75Zm.32-.63a.43.43 0 0 1-.43-.43.43.43 0 0 1 .73-.3.42.42 0 0 1-.3.73Zm2.35 1.15c-.52 0-.86.4-.86.93 0 .52.34.92.86.92s.87-.4.87-.92c-.01-.53-.35-.93-.87-.93Zm-.11-.57c.41 0 .76.2.92.44V17.1h.64v4.34h-.49a.14.14 0 0 1-.14-.14v-.24c-.17.23-.51.44-.93.44-.8 0-1.4-.67-1.4-1.5 0-.82.6-1.5 1.4-1.5M136.9 7.4l1.67-2.88a.34.34 0 0 0-.13-.47.34.34 0 0 0-.47.12l-1.69 2.92a10.43 10.43 0 0 0-8.55 0l-1.69-2.92a.35.35 0 0 0-.47-.12.35.35 0 0 0-.13.47l1.67 2.88a9.8 9.8 0 0 0-5.11 7.86h19.99a9.83 9.83 0 0 0-5.09-7.86Zm-9.5 5.01a.83.83 0 1 1 0-1.66.83.83 0 0 1 0 1.66Zm9.2 0a.83.83 0 0 1-.59-1.42.84.84 0 0 1 .9-.18.83.83 0 0 1 .28 1.36.83.83 0 0 1-.59.24ZM172 2a9.98 9.98 0 0 0-8.05 4.06l3.1 5.35a5 5 0 0 1 4.9-4.4A.49.49 0 0 1 172 7h8.66A9.99 9.99 0 0 0 172 2Zm-8.66 5a9.96 9.96 0 0 0-1.34 5 10 10 0 0 0 8.88 9.94l3.09-5.34a5 5 0 0 1-1.97.4 5 5 0 0 1-4.29-2.44.53.53 0 0 1-.04-.06L163.34 7ZM172 8a4 4 0 1 0 0 8 4 4 0 0 0 0-8Zm3 0a5 5 0 0 1 2 4 5 5 0 0 1-.63 2.42.54.54 0 0 1-.04.08L172 22a10 10 0 0 0 10-10 9.97 9.97 0 0 0-.83-4h-6.18Z"/><path fill="#A4A4A4" fill-rule="evenodd" d="M208.66 17.52a7.46 7.46 0 0 0 5.9 3.02 7.16 7.16 0 0 0 3.98-1.22 9.89 9.89 0 0 1-7.09 2.52A9.93 9.93 0 0 1 211.93 2h.03a9.89 9.89 0 0 1 6.58 2.53 7.16 7.16 0 0 0-3.98-1.22 7.46 7.46 0 0 0-5.9 3.02 8.64 8.64 0 0 0-1.86 5.36v.47a8.64 8.64 0 0 0 1.86 5.36ZM209 6.81A7.5 7.5 0 0 1 214.82 4c1.43 0 2.77.41 3.92 1.13A8.97 8.97 0 0 1 222 12a8.97 8.97 0 0 1-3.26 6.87 7.37 7.37 0 0 1-3.92 1.13 7.5 7.5 0 0 1-5.82-2.8c.9 1 2.06 1.6 3.32 1.6 2.85 0 5.16-3.05 5.16-6.8s-2.31-6.8-5.16-6.8c-1.26 0-2.42.6-3.32 1.6ZM253.84 13.7l.06-.07c.4-.51.6-1.14.6-1.56v-.22a2.49 2.49 0 0 0-.49-1.33 2.52 2.52 0 0 0-2-1.01c-.54-.01-.94.18-1.2.3h-.02a2.46 2.46 0 0 0-1.28 2.14c0 3.26 3.22 5.8 6.91 5.8a7.96 7.96 0 0 0 2.8-.5c.29-.1.57-.23.83-.36a.31.31 0 0 1 .42.44 10.03 10.03 0 0 1-5.2 4.12l-.1.04a10 10 0 0 1-12.21-5.24 10.15 10.15 0 0 1-.95-4.38 4.6 4.6 0 0 1 .05-.65 4.28 4.28 0 0 0-.06.62A10 10 0 0 1 252 2c3.88 0 7.46 1.86 9.11 5.1l.05.09c.28.55.86 1.68.84 3.34a4.8 4.8 0 0 1-2.38 4.13 4.65 4.65 0 0 1-2.36.65c-.08 0-2.14.1-3.25-.67-.23-.17-.37-.36-.37-.57 0-.19.12-.3.2-.38ZM242 11.85v-.02Z" clip-rule="evenodd"/></svg>