<svg xmlns="http://www.w3.org/2000/svg" width="264" height="24" fill="none"><path fill="#7F7F7F" fill-rule="evenodd" d="M15.252 3.512c.772-.93 1.292-2.224 1.15-3.512-1.113.044-2.459.738-3.256 1.666-.717.824-1.342 2.141-1.174 3.404 1.241.096 2.508-.627 3.28-1.558Zm2.782 8.175c.031 3.33 2.934 4.438 2.966 4.452-.024.078-.464 1.579-1.529 3.13-.922 1.34-1.878 2.674-3.384 2.702-1.48.028-1.957-.873-3.65-.873-1.69 0-2.22.845-3.62.9-1.454.054-2.562-1.45-3.49-2.785-1.9-2.73-3.35-7.718-1.402-11.084.968-1.671 2.697-2.73 4.575-2.757 1.427-.027 2.775.956 3.648.956.872 0 2.51-1.182 4.232-1.008.72.03 2.744.289 4.043 2.182-.105.065-2.414 1.402-2.389 4.185Z" clip-rule="evenodd"/><path fill="#A4A4A4" fill-rule="evenodd" d="M52 2.119c-5.514 0-9.881 4.367-9.881 9.881s4.367 9.881 9.881 9.881 9.881-4.367 9.881-9.881S57.514 2.12 52 2.12Zm1.143 5.474v-.195l-.608.042c-.172.01-.301.047-.388.109a.301.301 0 0 0-.13.259c0 .107.043.193.129.256a.565.565 0 0 0 .345.096.772.772 0 0 0 .258-.042.641.641 0 0 0 .207-.118.527.527 0 0 0 .187-.407Zm1.107-.84c.056-.156.135-.291.237-.403.102-.112.225-.199.37-.26.143-.06.304-.09.48-.09.16 0 .304.024.432.071.129.048.238.112.33.192a.917.917 0 0 1 .316.623h-.476a.612.612 0 0 0-.065-.184.504.504 0 0 0-.122-.148.573.573 0 0 0-.178-.097.695.695 0 0 0-.506.025.607.607 0 0 0-.211.173.817.817 0 0 0-.136.271 1.215 1.215 0 0 0-.048.356c0 .135.016.256.048.362a.781.781 0 0 0 .138.27c.058.074.13.131.213.17a.637.637 0 0 0 .273.059.65.65 0 0 0 .399-.115.537.537 0 0 0 .2-.336h.476a.919.919 0 0 1-.334.632 1.01 1.01 0 0 1-.328.175 1.327 1.327 0 0 1-.414.063 1.27 1.27 0 0 1-.484-.089 1.038 1.038 0 0 1-.37-.254 1.139 1.139 0 0 1-.24-.403 1.594 1.594 0 0 1-.083-.535c-.001-.193.027-.37.083-.527Zm-6.775-.72h.477v.423h.01a.702.702 0 0 1 .276-.33c.061-.04.129-.07.202-.09a.864.864 0 0 1 .233-.03c.175 0 .323.04.443.124.12.084.206.204.256.36h.012a.75.75 0 0 1 .127-.202.81.81 0 0 1 .401-.25.95.95 0 0 1 .255-.033.91.91 0 0 1 .335.059.72.72 0 0 1 .422.426.957.957 0 0 1 .058.34v1.703h-.498V6.949c0-.164-.042-.292-.126-.381-.084-.09-.205-.135-.362-.135a.54.54 0 0 0-.21.04.482.482 0 0 0-.273.287.604.604 0 0 0-.04.221v1.552h-.49V6.908a.543.543 0 0 0-.034-.196.42.42 0 0 0-.246-.245.564.564 0 0 0-.413.01.502.502 0 0 0-.277.297c-.025.068-.066.144-.066.225v1.533h-.472v-2.5ZM48.557 18C46.371 18 45 16.48 45 14.056s1.371-3.948 3.557-3.948 3.552 1.524 3.552 3.948S50.743 18 48.557 18Zm4.048-9.473a1.048 1.048 0 0 1-.59-.022.788.788 0 0 1-.266-.15.67.67 0 0 1-.174-.234.726.726 0 0 1-.062-.305c0-.22.081-.391.245-.515.163-.123.4-.195.71-.215l.675-.039v-.193c0-.144-.046-.254-.138-.33-.09-.074-.22-.112-.388-.112a.69.69 0 0 0-.189.025.519.519 0 0 0-.154.073.416.416 0 0 0-.17.26h-.468a.665.665 0 0 1 .082-.307.79.79 0 0 1 .21-.244.989.989 0 0 1 .312-.161c.12-.039.25-.058.391-.058.152 0 .29.019.413.058a.94.94 0 0 1 .317.164.732.732 0 0 1 .274.595v1.715h-.476v-.416h-.012a.75.75 0 0 1-.135.183.862.862 0 0 1-.407.228ZM55.75 18c-1.667 0-2.8-.873-2.88-2.244h1.086c.085.783.842 1.302 1.88 1.302.994 0 1.71-.519 1.71-1.228 0-.614-.435-.985-1.44-1.239l-.98-.243c-1.408-.35-2.048-.99-2.048-2.043 0-1.297 1.132-2.197 2.747-2.197 1.577 0 2.678.905 2.72 2.207h-1.074c-.074-.784-.714-1.265-1.668-1.265-.947 0-1.603.486-1.603 1.19 0 .556.412.885 1.418 1.139l.826.206c1.572.381 2.218 1 2.218 2.112 0 1.419-1.122 2.303-2.912 2.303Zm-7.193-6.919c-1.498 0-2.434 1.149-2.434 2.975 0 1.82.936 2.97 2.434 2.97 1.493 0 2.435-1.15 2.435-2.97 0-1.826-.942-2.975-2.435-2.975Z" clip-rule="evenodd"/><path fill="#A4A4A4" d="M91.48 2H82v9.48h9.48V2ZM102 2h-9.48v9.48H102V2ZM91.48 12.52H82V22h9.48v-9.48ZM102 12.52h-9.48V22H102v-9.48ZM123.511 19.07c-.516 0-.864.405-.864.927 0 .521.348.927.864.927.517 0 .865-.406.865-.927-.005-.522-.353-.927-.865-.927Zm-.116-.575c.416 0 .763.212.928.444v-.386h.637v2.892h-.493a.145.145 0 0 1-.144-.145v-.241c-.165.232-.507.444-.928.444-.791 0-1.395-.676-1.395-1.502 0-.825.599-1.506 1.395-1.506Zm2.289.058h.638v.39c.173-.289.502-.448.878-.448.672 0 1.106.473 1.106 1.207v1.743h-.488a.145.145 0 0 1-.144-.145v-1.492c0-.459-.232-.734-.604-.734-.42 0-.748.329-.748.947v1.424h-.488a.145.145 0 0 1-.145-.145l-.005-2.747Zm4.631.517c-.517 0-.864.405-.864.927 0 .521.347.927.864.927.516 0 .864-.406.864-.927 0-.522-.348-.927-.864-.927Zm-.116-.575c.415 0 .763.212.927.444v-1.835h.637v4.341h-.487a.145.145 0 0 1-.145-.145v-.241c-.164.232-.507.444-.927.444-.792 0-1.396-.676-1.396-1.502 0-.825.599-1.506 1.391-1.506Zm2.289.058h.637v.517a.816.816 0 0 1 .763-.546c.083-.002.165.006.246.024v.652a1.026 1.026 0 0 0-.318-.053c-.363 0-.696.309-.696.883v1.41h-.487a.145.145 0 0 1-.145-.145v-2.742Zm3.36 2.356c.507 0 .87-.4.87-.912 0-.517-.358-.913-.87-.913-.516 0-.874.4-.874.913.005.516.358.912.874.912Zm0 .594a1.503 1.503 0 1 1 1.517-1.502 1.495 1.495 0 0 1-1.517 1.502Zm2.033-2.95h.638v2.892h-.488a.145.145 0 0 1-.145-.145l-.005-2.747Zm.319-.633a.435.435 0 0 1-.43-.43.43.43 0 0 1 .73-.295.424.424 0 0 1-.3.725Zm2.351 1.15c-.516 0-.864.405-.864.927 0 .521.348.927.864.927.517 0 .865-.406.865-.927-.01-.522-.348-.927-.865-.927Zm-.115-.575c.415 0 .762.212.927.444v-1.835H142v4.341h-.488a.145.145 0 0 1-.145-.145v-.241c-.164.232-.507.444-.927.444-.792 0-1.395-.676-1.395-1.502 0-.825.599-1.506 1.391-1.506M136.901 7.399l1.666-2.883a.344.344 0 0 0-.128-.47.345.345 0 0 0-.471.122l-1.685 2.917a10.432 10.432 0 0 0-8.556 0l-1.685-2.917a.348.348 0 0 0-.471-.121.347.347 0 0 0-.128.47l1.666 2.882c-2.873 1.555-4.824 4.447-5.109 7.86h19.99c-.285-3.413-2.24-6.305-5.089-7.86Zm-9.503 5.012a.831.831 0 1 1 .001-1.663.831.831 0 0 1-.001 1.663Zm9.204 0a.832.832 0 0 1-.588-1.418.836.836 0 0 1 .905-.18.829.829 0 0 1 .27 1.355.831.831 0 0 1-.587.243ZM172 2a9.98 9.98 0 0 0-8.048 4.06l3.089 5.35a4.998 4.998 0 0 1 4.9-4.408A.49.49 0 0 1 172 7h8.661A9.987 9.987 0 0 0 172 2Zm-8.662 4.998A9.961 9.961 0 0 0 162 12c0 5.15 3.88 9.383 8.881 9.938l3.084-5.341a5.001 5.001 0 0 1-1.966.403 5 5 0 0 1-4.286-2.436.528.528 0 0 1-.044-.064L163.338 7ZM172 8a4 4 0 1 0 0 8.002A4 4 0 0 0 172 8Zm2.991 0a5 5 0 0 1 2.008 4 5 5 0 0 1-.632 2.423.54.54 0 0 1-.037.077L172 22c5.529 0 10-4.471 10-10a9.966 9.966 0 0 0-.833-4h-6.176Z"/><path fill="#A4A4A4" fill-rule="evenodd" d="M208.659 17.52c1.423 1.848 3.54 3.02 5.904 3.02a7.158 7.158 0 0 0 3.977-1.215 9.887 9.887 0 0 1-7.087 2.515c-5.262-.247-9.453-4.591-9.453-9.914C202 6.444 206.444 2 211.926 2h.037a9.886 9.886 0 0 1 6.578 2.527 7.158 7.158 0 0 0-3.978-1.216c-2.364 0-4.481 1.172-5.904 3.021-1.098 1.296-1.809 3.21-1.857 5.36v.467c.048 2.15.759 4.065 1.857 5.36ZM209 6.805C210.403 5.089 212.489 4 214.818 4c1.433 0 2.774.412 3.92 1.129 2.002 1.688 3.262 4.14 3.262 6.87 0 2.732-1.261 5.184-3.262 6.872a7.368 7.368 0 0 1-3.92 1.129c-2.329 0-4.415-1.089-5.818-2.806.898.998 2.057 1.6 3.323 1.6 2.847 0 5.155-3.042 5.155-6.794 0-3.753-2.308-6.795-5.155-6.795-1.266 0-2.426.602-3.323 1.6Z" clip-rule="evenodd"/><mask id="a" width="20" height="20" x="202" y="2" maskUnits="userSpaceOnUse" style="mask-type:luminance"><path fill="#fff" fill-rule="evenodd" d="M208.659 17.52c1.423 1.848 3.54 3.02 5.904 3.02a7.158 7.158 0 0 0 3.977-1.215 9.887 9.887 0 0 1-7.087 2.515c-5.262-.247-9.453-4.591-9.453-9.914C202 6.444 206.444 2 211.926 2h.037a9.886 9.886 0 0 1 6.578 2.527 7.158 7.158 0 0 0-3.978-1.216c-2.364 0-4.481 1.172-5.904 3.021-1.098 1.296-1.809 3.21-1.857 5.36v.467c.048 2.15.759 4.065 1.857 5.36ZM209 6.805C210.403 5.089 212.489 4 214.818 4c1.433 0 2.774.412 3.92 1.129 2.002 1.688 3.262 4.14 3.262 6.87 0 2.732-1.261 5.184-3.262 6.872a7.368 7.368 0 0 1-3.92 1.129c-2.329 0-4.415-1.089-5.818-2.806.898.998 2.057 1.6 3.323 1.6 2.847 0 5.155-3.042 5.155-6.794 0-3.753-2.308-6.795-5.155-6.795-1.266 0-2.426.602-3.323 1.6Z" clip-rule="evenodd"/></mask><path fill="#A4A4A4" fill-rule="evenodd" d="M253.84 13.691c.024-.023.046-.043.06-.062.395-.514.609-1.136.609-1.556l-.001-.095v-.012l-.005-.112a2.486 2.486 0 0 0-.492-1.333 2.525 2.525 0 0 0-2.007-1.015c-.532-.01-.938.182-1.185.298l-.029.014a2.456 2.456 0 0 0-1.283 2.134c0 3.263 3.22 5.806 6.916 5.806a7.959 7.959 0 0 0 2.805-.505c.282-.106.557-.229.823-.368a.313.313 0 0 1 .416.44 10.026 10.026 0 0 1-5.203 4.125l-.102.035c-.191.06-.425.12-.675.174.23-.043.459-.1.684-.171a9.998 9.998 0 0 1-12.216-5.243 10.152 10.152 0 0 1-.946-4.375 4.6 4.6 0 0 1 .047-.648 4.283 4.283 0 0 0-.056.622A10 10 0 0 1 251.999 2c3.886 0 7.459 1.862 9.115 5.1l.043.086c.283.552.862 1.685.843 3.345a4.798 4.798 0 0 1-2.378 4.13 4.649 4.649 0 0 1-2.364.653h-.002c-.073.003-2.14.09-3.245-.678-.236-.165-.369-.361-.369-.565 0-.19.116-.301.198-.38ZM242 11.859v-.015Z" clip-rule="evenodd"/></svg>