<svg width="250" height="250" viewBox="0 0 250 250" fill="none" xmlns="http://www.w3.org/2000/svg">
<path d="M129.125 179.202C131.931 175.274 124.965 165.501 113.573 157.378C102.18 149.255 90.6783 145.848 87.8717 149.783C85.0723 153.711 92.031 163.483 103.424 171.606C114.817 179.73 126.318 183.13 129.125 179.202Z" fill="#393948"/>
<path d="M127.823 180.88C130.629 176.952 123.692 167.201 112.336 159.099C100.979 150.998 89.5065 147.62 86.6999 151.548C83.9005 155.475 90.8302 165.226 102.187 173.328C113.544 181.429 125.016 184.807 127.823 180.88Z" fill="#2B2B37"/>
<path d="M165.415 141.132C165.415 141.132 157.646 164.561 126.781 176.207L114.187 207.55C114.187 207.55 54.6766 206.284 58.0763 200.403C61.4689 194.522 91.8498 150.723 91.8498 150.723C91.8498 150.723 136.994 113.709 165.408 141.139L165.415 141.132Z" fill="#DA8F17"/>
<path d="M119.815 193.531L126.781 176.207C157.639 164.561 165.415 141.132 165.415 141.132C159.397 135.33 143.751 133.471 143.751 133.471C143.751 133.471 148.438 150.311 134.398 158.253C120.365 166.196 102.715 163.642 91.85 150.723C91.85 150.723 85.7014 159.592 78.6198 169.878C78.4968 171.071 119.808 193.539 119.808 193.539L119.815 193.531Z" fill="#CF8211"/>
<path d="M110.939 75.6319C110.939 75.6319 115.243 76.6229 115.995 82.6991C117.174 92.1461 113.688 99.8644 111.467 107.062C109.246 114.259 109.565 117.963 111.467 121.565C113.37 125.167 127.844 139.179 122.744 158.362C117.645 177.553 91.8425 150.724 91.8425 150.724C91.8425 150.724 86.1497 118.766 100.819 95.6472C107.923 84.4569 105.297 75.169 110.946 75.6392L110.939 75.6319Z" fill="#DA8F17"/>
<path d="M129.103 179.339C129.103 179.339 114.042 214.639 112.299 216.259C102.534 224.896 60.2898 219.03 49.4684 211.775C36.9616 203.391 88.5948 149.183 88.5948 149.183C92.0162 165.27 116.126 180.149 129.095 179.339H129.103Z" fill="#CBD3D2"/>
<path d="M49.4759 211.775C51.5953 213.2 54.93 214.56 58.9808 215.782C75.6107 220.781 104.444 223.211 112.299 216.267C114.05 214.647 129.103 179.347 129.103 179.347C120.987 179.86 108.516 174.233 99.4815 166.008C94.0708 161.082 89.897 155.23 88.6094 149.205C88.6094 149.205 36.9691 203.42 49.4831 211.797V211.775H49.4759Z" fill="#464558"/>
<path d="M129.103 179.347C129.103 179.347 128.683 180.338 127.974 181.994L124.235 190.646C119.663 201.12 113.399 215.247 112.307 216.26C111.294 217.157 109.934 217.894 108.292 218.495C107.648 218.726 106.961 218.943 106.23 219.139C102.635 220.093 98.0926 220.527 93.1304 220.556C91.8645 220.571 90.5842 220.556 89.2821 220.513C78.9237 220.173 67.3934 218.307 58.988 215.782C54.9372 214.56 51.6025 213.2 49.4831 211.775V211.797C36.9763 203.42 88.6166 149.205 88.6166 149.205C89.897 155.23 94.078 161.082 99.4959 166.008C108.531 174.225 121.009 179.86 129.117 179.347H129.103Z" fill="#464558"/>
<path d="M58.9807 215.782C75.6107 220.78 104.444 223.211 112.299 216.267C114.05 214.646 129.103 179.346 129.103 179.346C120.987 179.86 108.516 174.232 99.4814 166.008C99.7201 166.492 111.959 190.747 97.8611 199.694C83.6182 208.736 66.1202 201.206 58.9807 215.789V215.782Z" fill="#393948"/>
<path d="M162.392 77.9607L170.623 91.4007C170.623 91.4007 173.596 88.8762 177.018 85.2956C182.349 79.7112 188.765 71.559 186.703 66.3726C183.333 57.8659 162.384 77.968 162.384 77.968L162.392 77.9607Z" fill="#DA8F17"/>
<path d="M162.391 77.9606L170.623 91.4006C170.623 91.4006 173.596 88.8761 177.017 85.2955C176.62 82.619 176.395 79.4941 176.562 76.0148C177.112 64.5786 186.71 66.3652 186.71 66.3652C183.34 57.8586 162.391 77.9606 162.391 77.9606Z" fill="#CF8211"/>
<path d="M162.391 77.9601L170.623 91.4001L176.403 87.002C172.728 80.2097 176.808 66.7119 176.808 66.7119C170.015 70.647 162.398 77.9601 162.398 77.9601H162.391Z" fill="#B45F00"/>
<path d="M90.7869 137.956C90.9388 145.595 91.8502 150.731 91.8502 150.731C91.8502 150.731 117.652 177.56 122.759 158.369C127.852 139.171 113.377 125.167 111.482 121.572C109.58 117.977 109.254 114.266 111.482 107.069C113.703 99.8715 117.182 92.146 116.003 82.7135C115.837 81.3246 115.468 80.2034 115.019 79.292C115.019 79.292 115.229 96.1679 105.37 107.242C95.5032 118.324 114.701 128.032 115.019 137.963C115.345 147.888 90.7797 137.963 90.7797 137.963L90.7869 137.956Z" fill="#CF8211"/>
<path d="M163.744 58.2282L120.567 50.3798C118.231 49.9313 114.961 51.2912 114.607 55.2624L104.205 160.909C103.836 164.07 105.868 167.122 109.001 167.752C109.001 167.752 146.861 174.508 151.664 175.506C155.737 176.345 157.856 173.379 158.131 170.725L168.533 65.0784C168.858 61.628 166.724 58.7707 163.737 58.2354L163.744 58.2282Z" fill="#EAEEEF"/>
<path d="M168.54 65.0636C167.462 69.6714 159.708 167.513 157.075 173.574C156.033 175.043 154.239 176.034 151.671 175.498C146.861 174.5 109.008 167.744 109.008 167.744C105.876 167.115 103.843 164.077 104.212 160.908C105.876 144.054 112.907 72.6155 114.614 55.2622C114.961 51.2982 118.23 49.931 120.567 50.3795L163.737 58.2279C166.717 58.756 168.865 61.6132 168.54 65.0636Z" fill="#EAEEEF"/>
<path opacity="0.19" d="M168.54 65.0632L168.092 69.5407C159.86 75.5084 149.928 78.1776 139.628 76.333C129.58 74.5319 120.77 68.745 114.108 60.4626L114.621 55.2617C114.968 51.2977 118.238 49.9306 120.574 50.379L163.744 58.2274C166.724 58.7627 168.858 61.6127 168.533 65.0632H168.54Z" fill="#CBD3D2"/>
<path opacity="0.19" d="M158.688 158.086L157.082 173.573C156.048 175.049 154.247 176.04 151.679 175.505C146.868 174.506 109.015 167.75 109.015 167.75C105.883 167.121 103.85 164.083 104.219 160.914L105.717 145.702C113.464 140.863 122.498 138.823 131.837 140.494C142.564 142.411 151.896 148.892 158.695 158.093L158.688 158.086Z" fill="#CBD3D2"/>
<path d="M118.506 50.4372C118.506 50.4372 127.967 48.448 129.472 48.7518L171.296 56.3904C174.11 56.9257 176.143 59.9927 175.839 63.2261V63.2406L164.851 167.549C164.54 170.456 158.218 175.657 152.214 175.556C153.675 174.297 156.012 170.796 156.019 170.702L166.609 66.6187C167.26 60.3182 166.262 60.4557 155.1 58.0469C142.073 55.233 118.52 50.4155 118.498 50.4227V50.4372H118.506Z" fill="#91A1A0"/>
<path d="M163.527 60.8756C163.527 60.8756 163.491 60.8756 163.484 60.8611L157.154 59.711L163.484 60.8683C163.484 60.8683 163.542 60.8828 163.571 60.89C163.556 60.89 163.534 60.89 163.52 60.8756H163.527ZM168.569 64.76V64.7094C168.591 64.1741 168.547 63.6316 168.446 63.1107C168.446 63.0818 168.446 63.0601 168.432 63.0312V63.0095C168.41 62.9154 168.388 62.8214 168.366 62.7201V62.6984C168.352 62.6478 168.33 62.5827 168.323 62.5321C168.287 62.4091 168.251 62.2934 168.207 62.1848C168.193 62.1487 168.186 62.1197 168.171 62.0836C168.171 62.0691 168.157 62.0546 168.157 62.0402C168.157 62.0185 168.135 61.9895 168.128 61.9751C168.092 61.9027 168.07 61.8232 168.034 61.7436C167.99 61.6496 167.961 61.57 167.918 61.4904C167.918 61.4687 167.896 61.4543 167.889 61.4398C167.853 61.3747 167.824 61.3024 167.788 61.2445C167.788 61.2445 167.788 61.23 167.773 61.2228C167.752 61.1721 167.73 61.136 167.701 61.0853C167.679 61.0419 167.658 60.9985 167.621 60.9551C167.6 60.919 167.578 60.89 167.564 60.8539C167.513 60.7598 167.441 60.6658 167.375 60.579C167.318 60.485 167.245 60.3982 167.18 60.3186C167.158 60.2897 167.137 60.268 167.115 60.239C167.072 60.1812 167.021 60.1233 166.978 60.0726C166.978 60.0582 166.956 60.0509 166.949 60.0437C166.934 60.0292 166.92 60.0075 166.905 59.9931C166.862 59.9352 166.804 59.8773 166.753 59.8267C166.739 59.805 166.724 59.7905 166.71 59.7761C166.587 59.6459 166.471 59.5301 166.334 59.4289C166.276 59.3782 166.211 59.3348 166.153 59.2842C166.102 59.2408 166.052 59.2119 166.001 59.1757C165.972 59.154 165.943 59.1323 165.914 59.1178C165.864 59.0744 165.806 59.0383 165.748 58.9948C165.704 58.9659 165.661 58.937 165.61 58.908C165.596 58.8936 165.574 58.8863 165.56 58.8719C165.56 58.8719 165.545 58.8719 165.538 58.8574C165.444 58.8068 165.35 58.7489 165.263 58.7055H165.249C165.249 58.7055 165.184 58.6621 165.14 58.6549C165.097 58.6332 165.068 58.6115 165.025 58.6042C164.945 58.5608 164.865 58.5319 164.786 58.4957C164.706 58.4668 164.619 58.4379 164.54 58.4089C164.482 58.3872 164.417 58.3655 164.359 58.3511C164.301 58.3366 164.236 58.3149 164.171 58.3004C164.113 58.286 164.041 58.2643 163.983 58.2498C163.918 58.2353 163.853 58.2209 163.788 58.2064L137.537 53.4322L120.676 50.3724L120.603 50.358C120.603 50.358 120.574 50.358 120.56 50.358C120.488 50.3435 120.408 50.3363 120.343 50.3218C120.205 50.3073 120.068 50.2929 119.931 50.2856H119.714C117.478 50.2856 115.547 51.8119 114.882 54.105C114.773 54.4666 114.701 54.85 114.657 55.2551L114.505 56.8609L104.255 160.901C104.176 161.697 104.241 162.478 104.436 163.209C104.458 163.288 104.48 163.361 104.494 163.44C104.595 163.787 104.733 164.127 104.885 164.446C104.957 164.598 105.037 164.749 105.123 164.88C105.174 164.966 105.225 165.053 105.283 165.14C105.362 165.27 105.449 165.386 105.543 165.509C105.543 165.523 105.557 165.531 105.565 165.538C105.565 165.552 105.586 165.567 105.586 165.567C105.623 165.61 105.651 165.654 105.688 165.697C105.731 165.748 105.774 165.806 105.825 165.849C105.869 165.892 105.905 165.936 105.948 165.986C105.977 166.015 105.999 166.044 106.028 166.073C106.057 166.102 106.071 166.124 106.107 166.153C106.165 166.211 106.23 166.276 106.295 166.334C106.31 166.348 106.324 166.363 106.339 166.377C106.52 166.536 106.708 166.688 106.903 166.825C107.048 166.927 107.185 167.014 107.337 167.1C107.409 167.144 107.489 167.18 107.568 167.231C107.648 167.274 107.72 167.31 107.807 167.346C107.807 167.346 107.822 167.346 107.836 167.361C107.887 167.382 107.923 167.404 107.973 167.411C107.995 167.426 108.024 167.433 108.039 167.448C108.06 167.448 108.082 167.462 108.104 167.477C108.154 167.498 108.219 167.52 108.277 167.542C108.277 167.542 108.335 167.563 108.364 167.571C108.581 167.643 108.805 167.701 109.037 167.737L138.723 173.133L151.7 175.491L152.221 175.585C152.691 175.672 153.147 175.687 153.603 175.643C153.653 175.643 153.711 175.629 153.762 175.622C154.102 175.578 154.427 175.499 154.738 175.383C154.847 175.339 154.941 175.303 155.042 175.26C155.064 175.26 155.086 175.245 155.1 175.231C155.122 175.216 155.144 175.209 155.151 175.202C155.209 175.173 155.274 175.144 155.332 175.115C155.375 175.093 155.411 175.072 155.455 175.05C155.455 175.05 155.476 175.036 155.483 175.036C155.527 175.007 155.57 174.985 155.614 174.956C155.614 174.956 155.614 174.956 155.628 174.956C155.715 174.905 155.809 174.84 155.896 174.782H155.91C155.954 174.753 155.983 174.732 156.019 174.703C156.062 174.674 156.091 174.652 156.135 174.616C156.221 174.551 156.301 174.471 156.38 174.399C156.438 174.356 156.489 174.305 156.54 174.254C156.554 174.254 156.561 174.233 156.569 174.225C156.597 174.204 156.612 174.182 156.626 174.168C156.67 174.124 156.706 174.081 156.749 174.03C156.814 173.958 156.88 173.885 156.937 173.813C156.966 173.777 156.988 173.748 157.017 173.712C157.046 173.676 157.068 173.647 157.097 173.603C157.154 173.517 157.22 173.437 157.27 173.343L157.285 173.314C157.328 173.249 157.371 173.169 157.415 173.097C157.415 173.097 157.415 173.097 157.415 173.083C157.429 173.054 157.444 173.032 157.458 173.003C157.531 172.866 157.603 172.728 157.661 172.583C157.682 172.54 157.697 172.504 157.711 172.46C157.74 172.395 157.769 172.33 157.798 172.265C157.979 171.788 158.102 171.267 158.153 170.717L161.241 139.345L165.719 93.904L168.562 65.0783C168.562 64.977 168.576 64.8757 168.576 64.7745H168.562L168.569 64.76ZM158.507 141.928L156.532 161.979L155.715 170.283C155.541 172.063 154.073 173.263 152.438 172.974L148.72 172.301L144.076 171.462L139.729 170.667L117.196 166.572L109.276 165.133C109.08 165.097 108.899 165.046 108.726 164.974C108.639 164.938 108.552 164.901 108.473 164.858H108.458C108.415 164.836 108.379 164.815 108.342 164.793C108.096 164.648 107.865 164.475 107.662 164.265C107.561 164.164 107.467 164.055 107.38 163.939C107.351 163.896 107.322 163.867 107.294 163.824C107.265 163.78 107.243 163.744 107.214 163.701C107.134 163.578 107.062 163.455 106.997 163.317C106.939 163.187 106.881 163.071 106.845 162.941C106.664 162.449 106.592 161.914 106.642 161.364L107.366 154.044L116.393 62.3874L116.408 62.221L117.044 55.7325C117.081 55.3853 117.167 55.0526 117.29 54.7488C117.811 53.5335 119.012 52.8029 120.328 53.0416L139.338 56.492L157.176 59.7327L163.505 60.89C163.505 60.89 163.563 60.9045 163.592 60.9117C163.679 60.9334 163.766 60.9551 163.845 60.9768C163.882 60.9913 163.918 60.9985 163.954 61.013C164.005 61.0347 164.07 61.0564 164.12 61.0781C164.178 61.0998 164.243 61.1287 164.301 61.1577C164.366 61.1938 164.431 61.23 164.496 61.2734C164.518 61.2734 164.533 61.2951 164.547 61.3096C164.605 61.353 164.663 61.3892 164.721 61.4326C164.721 61.4326 164.721 61.4326 164.735 61.4326C164.786 61.476 164.844 61.5121 164.894 61.5628C164.909 61.5772 164.923 61.5845 164.938 61.5989C164.996 61.6496 165.053 61.7074 165.111 61.7581C165.176 61.8232 165.249 61.9027 165.307 61.9751C165.343 62.0185 165.365 62.0474 165.393 62.0908C165.43 62.1342 165.451 62.1631 165.48 62.2065C165.596 62.3657 165.697 62.5393 165.784 62.7201C165.806 62.7635 165.827 62.7997 165.835 62.8431C165.878 62.9299 165.907 63.0239 165.943 63.118C166.117 63.6026 166.189 64.1307 166.139 64.666L165.393 72.2974L163.202 94.4827L163.05 96.0234L158.529 141.957L158.507 141.935V141.928ZM163.578 60.8828C163.578 60.8828 163.542 60.8828 163.527 60.8683C163.513 60.8683 163.491 60.8683 163.484 60.8539L157.154 59.7037L163.484 60.8611C163.484 60.8611 163.542 60.8756 163.571 60.8828H163.578Z" fill="#CBD3D2"/>
<path d="M138.687 173.14L151.664 175.498C150.659 174.442 149.675 173.371 148.72 172.286L144.076 171.447L139.729 170.651L117.196 166.557L109.276 165.118C109.08 165.082 108.899 165.031 108.726 164.959C108.639 164.922 108.552 164.886 108.473 164.843H108.458C108.415 164.821 108.379 164.799 108.342 164.778C108.096 164.633 107.865 164.459 107.662 164.25C107.561 164.148 107.467 164.04 107.38 163.924C107.351 163.881 107.322 163.852 107.294 163.808C107.178 163.649 107.077 163.476 106.99 163.302C106.708 162.709 106.57 162.036 106.643 161.349L107.366 154.029L116.386 62.365L116.401 62.1986C115.858 60.8821 115.344 59.5367 114.903 58.184C114.759 57.7428 114.621 57.3087 114.476 56.8675V56.853L104.227 160.908C104.14 161.783 104.227 162.644 104.472 163.447C104.574 163.794 104.711 164.134 104.863 164.452C104.935 164.604 105.008 164.756 105.102 164.886C105.152 164.973 105.203 165.06 105.261 165.147C105.34 165.277 105.427 165.393 105.521 165.516C105.536 165.537 105.55 165.559 105.565 165.566C105.601 165.61 105.63 165.653 105.666 165.696C105.746 165.798 105.832 165.899 105.919 165.993C105.977 166.044 106.028 166.109 106.078 166.159C106.136 166.217 106.201 166.282 106.266 166.34C106.266 166.34 106.295 166.376 106.31 166.384C106.483 166.543 106.679 166.695 106.874 166.832C107.019 166.933 107.156 167.02 107.308 167.107C107.38 167.15 107.46 167.186 107.539 167.237C107.677 167.302 107.8 167.367 107.937 167.418C107.959 167.432 107.988 167.44 108.002 167.454C108.002 167.454 108.046 167.469 108.068 167.483C108.125 167.512 108.183 167.526 108.241 167.548C108.27 167.563 108.299 167.57 108.328 167.577C108.545 167.649 108.769 167.707 109.001 167.743L138.687 173.14Z" fill="#D6DEDE"/>
<path d="M139.316 56.4845L157.14 59.7106L163.469 60.8608C165.097 61.1574 166.29 62.85 166.117 64.6222L165.372 72.2536L163.187 94.4317C163.607 95.1623 164.026 95.8857 164.446 96.609C164.728 97.0937 165.01 97.5855 165.285 98.0847L168.54 65.0562C168.865 61.8228 166.71 58.7703 163.744 58.2278L137.494 53.4536C138.072 54.4808 138.687 55.4862 139.324 56.4772H139.309L139.316 56.4845Z" fill="#D6DEDE"/>
<path d="M138.687 173.14L151.664 175.498C150.659 174.442 149.675 173.371 148.72 172.286L144.076 171.447L139.729 170.651L117.196 166.557L109.276 165.118C109.08 165.082 108.899 165.031 108.726 164.959C108.639 164.922 108.552 164.886 108.473 164.843H108.458C108.415 164.821 108.379 164.799 108.342 164.778C108.096 164.633 107.865 164.459 107.662 164.25C107.561 164.148 107.467 164.04 107.38 163.924C107.351 163.881 107.322 163.852 107.294 163.808C107.178 163.649 107.077 163.476 106.99 163.302C106.708 162.709 106.57 162.036 106.643 161.349L107.366 154.029L116.386 62.365L116.401 62.1986C115.858 60.8821 115.344 59.5367 114.903 58.184C114.759 57.7428 114.621 57.3087 114.476 56.8675V56.853L104.227 160.908C104.14 161.783 104.227 162.644 104.472 163.447C104.574 163.794 104.711 164.134 104.863 164.452C104.935 164.604 105.008 164.756 105.102 164.886C105.152 164.973 105.203 165.06 105.261 165.147C105.34 165.277 105.427 165.393 105.521 165.516C105.536 165.537 105.55 165.559 105.565 165.566C105.601 165.61 105.63 165.653 105.666 165.696C105.746 165.798 105.832 165.899 105.919 165.993C105.977 166.044 106.028 166.109 106.078 166.159C106.136 166.217 106.201 166.282 106.266 166.34C106.266 166.34 106.295 166.376 106.31 166.384C106.483 166.543 106.679 166.695 106.874 166.832C107.019 166.933 107.156 167.02 107.308 167.107C107.38 167.15 107.46 167.186 107.539 167.237C107.677 167.302 107.8 167.367 107.937 167.418C107.959 167.432 107.988 167.44 108.002 167.454C108.002 167.454 108.046 167.469 108.068 167.483C108.125 167.512 108.183 167.526 108.241 167.548C108.27 167.563 108.299 167.57 108.328 167.577C108.545 167.649 108.769 167.707 109.001 167.743L138.687 173.14Z" fill="#D6DEDE"/>
<path d="M140.047 53.9242L163.932 58.2716C163.997 58.2861 164.062 58.3005 164.12 58.3222C164.185 58.3367 164.251 58.3584 164.308 58.3729C164.366 58.3873 164.431 58.4163 164.489 58.4307C164.569 58.4597 164.656 58.4886 164.735 58.5175C164.815 58.5537 164.894 58.5826 164.981 58.6188C165.025 58.6405 165.068 58.6622 165.119 58.6839C165.147 58.6984 165.176 58.7128 165.205 58.7345C165.379 58.8213 165.545 58.9226 165.719 59.0311C165.856 59.1179 165.987 59.212 166.117 59.3132C166.175 59.3639 166.24 59.4073 166.298 59.4579C166.435 59.5736 166.551 59.6894 166.674 59.8051C166.688 59.8196 166.703 59.834 166.724 59.8557C166.761 59.8991 166.797 59.9281 166.833 59.9715C166.92 60.0655 167.006 60.1668 167.086 60.2681C167.18 60.3838 167.267 60.4995 167.354 60.6153C167.397 60.6876 167.455 60.7599 167.498 60.8323C167.52 60.8684 167.549 60.9046 167.563 60.9408C167.737 61.2157 167.896 61.505 168.019 61.8088C168.048 61.8667 168.077 61.939 168.099 62.0041C168.099 62.0258 168.12 62.0547 168.128 62.0692C168.149 62.1198 168.164 62.1632 168.171 62.2139C168.193 62.2645 168.207 62.3152 168.222 62.3586C168.309 62.6117 168.374 62.8794 168.424 63.1398C168.446 63.2483 168.468 63.3423 168.475 63.4508C168.489 63.5593 168.504 63.6678 168.518 63.7763C168.533 63.8848 168.54 63.9933 168.54 64.1018C168.554 64.2537 168.554 64.4201 168.54 64.5793V64.789C168.54 64.8831 168.526 64.9699 168.518 65.0639L165.661 93.8173L162.992 96.4865L164.779 78.0771L165.343 72.2613L166.088 64.6299C166.131 64.2537 166.102 63.8848 166.03 63.5159C166.008 63.4219 165.987 63.3206 165.95 63.2266C165.936 63.1759 165.921 63.1325 165.907 63.0819C165.856 62.9372 165.798 62.807 165.741 62.6768C165.697 62.59 165.654 62.5105 165.596 62.4237C165.553 62.3369 165.487 62.2573 165.437 62.1777C165.408 62.1343 165.379 62.0981 165.35 62.062C165.321 62.0186 165.292 61.9896 165.263 61.9462C165.14 61.8016 165.003 61.6641 164.858 61.5412C164.815 61.505 164.786 61.4833 164.742 61.4544C164.721 61.4399 164.699 61.4182 164.685 61.411C164.634 61.3676 164.569 61.3314 164.511 61.288C164.489 61.2735 164.468 61.2591 164.46 61.2518C164.402 61.2084 164.33 61.1723 164.265 61.1361C164.236 61.1216 164.207 61.0999 164.178 61.0927C164.149 61.0782 164.12 61.0637 164.091 61.0493C164.041 61.0203 163.976 60.9986 163.925 60.9842C163.889 60.9697 163.86 60.9552 163.816 60.948C163.715 60.9046 163.614 60.8829 163.513 60.8684C163.498 60.8684 163.477 60.8684 163.462 60.854L157.133 59.7038L139.295 56.4632L137.566 56.1449C138.759 55.1901 139.056 54.8935 140.04 53.917L140.047 53.9242Z" fill="#D6DEDE"/>
<path d="M163.744 58.228C163.744 58.228 123.656 50.9221 120.632 50.3941C117.76 49.8805 114.91 51.7178 114.614 55.2695L104.212 160.908C103.836 164.532 106.281 167.274 109.001 167.751L152.178 175.592C156.482 176.215 158.015 172.518 158.138 170.717L168.54 65.0782C168.873 61.2878 166.406 58.7054 163.744 58.2353V58.228ZM155.715 170.276C155.541 172.055 154.073 173.256 152.438 172.967L109.261 165.118C108.27 164.894 106.404 163.512 106.614 161.35L117.015 55.7107C117.297 53.6202 118.99 52.7812 120.299 53.0199L163.484 60.8683C165.589 61.2516 166.218 63.6387 166.131 64.6297L155.722 170.276H155.715Z" fill="#CBD3D2"/>
<path d="M149.747 135.641L118.954 130.469C114.737 129.76 111.677 125.659 112.118 121.297L115.67 86.3517C116.111 81.9971 119.887 79.0386 124.104 79.7475L154.897 84.9195C159.115 85.6284 162.174 89.7298 161.733 94.0916L158.181 129.037C157.74 133.392 153.964 136.35 149.747 135.641Z" fill="#CBD3D2"/>
<path opacity="0.9" d="M150.405 133.797L118.686 128.473C115.691 127.967 113.514 125.052 113.832 121.956L117.456 86.3015C117.767 83.2055 120.458 81.1006 123.453 81.6069L155.172 86.9308C158.167 87.4372 160.344 90.3523 160.026 93.4483L156.402 129.102C156.091 132.198 153.4 134.303 150.405 133.797Z" fill="white"/>
<path d="M144.069 135.345C143.504 140.922 138.665 144.712 133.262 143.808C127.858 142.904 123.938 137.645 124.509 132.061C125.073 126.484 129.913 122.693 135.316 123.598C140.719 124.502 144.64 129.761 144.069 135.345Z" fill="#CBD3D2"/>
<path opacity="0.9" d="M142.73 135.121C142.238 139.938 138.065 143.208 133.399 142.426C128.733 141.645 125.355 137.103 125.84 132.285C126.332 127.467 130.505 124.198 135.171 124.979C139.837 125.76 143.215 130.303 142.73 135.121Z" fill="#FAFBFA"/>
<path d="M135.989 131.048L136.191 128.769C136.206 128.574 136.416 128.523 136.495 128.682L139.41 133.319C139.475 133.42 139.461 133.536 139.389 133.616L135.736 136.878C135.613 136.986 135.439 136.849 135.454 136.668L135.656 134.433C135.656 134.433 131.895 132.675 130.882 134.628C130.31 135.735 130.115 137.355 130.043 138.31C130.028 138.527 129.79 138.556 129.703 138.354C129.189 136.929 128.401 133.833 130.079 131.706C131.931 129.355 135.982 131.04 135.982 131.04L135.989 131.048Z" fill="#74A352"/>
<path d="M136.568 111.38C142.875 112.436 148.525 108.024 149.183 101.521C149.841 95.018 145.262 88.8912 138.962 87.8278C132.661 86.7645 127.005 91.1842 126.347 97.6872C125.688 104.19 130.267 110.317 136.568 111.38Z" fill="black"/>
<path fill-rule="evenodd" clip-rule="evenodd" d="M137.877 94.8449C140.293 95.3802 142.666 96.089 144.677 97.8323C145.877 98.874 146.521 100.19 146.384 101.782C146.167 104.277 144.315 105.268 142.087 104.61C141.154 104.306 140.235 103.937 139.338 103.503C137.747 102.802 136.126 102.657 134.47 102.787C133.674 102.852 132.893 103.004 132.09 102.954C130.578 102.852 129.067 102.042 128.676 100.429C128.155 98.3965 129.067 96.3495 130.86 95.5321C133.074 94.4904 135.447 94.5555 137.884 94.8376L137.877 94.8449Z" fill="white"/>
<path fill-rule="evenodd" clip-rule="evenodd" d="M143.577 100.697C143.497 101.601 142.818 102.274 142.087 102.165C141.436 102.071 140.872 101.188 140.951 100.386C141.031 99.5103 141.682 98.8738 142.412 98.9606C143.143 99.0546 143.657 99.8141 143.577 100.697Z" fill="black"/>
<path fill-rule="evenodd" clip-rule="evenodd" d="M133.978 99.0833C133.898 99.9875 133.218 100.66 132.488 100.552C131.837 100.458 131.273 99.5752 131.352 98.7723C131.432 97.897 132.083 97.2605 132.813 97.3473C133.544 97.4413 134.057 98.2008 133.978 99.0833Z" fill="black"/>
<path fill-rule="evenodd" clip-rule="evenodd" d="M135.15 119.388C131.62 116.422 129.421 113.319 128.068 110.368C127.634 109.413 128.719 108.61 129.493 109.312C133.479 112.929 139.02 113.847 143.584 111.656C144.467 111.229 145.364 112.364 144.749 113.146C142.854 115.562 140.105 117.84 136.09 119.547C135.787 119.678 135.425 119.612 135.15 119.388Z" fill="#74A352"/>
<path d="M178.711 119.265C178.711 119.265 181.38 125.768 180.244 129.717C179.108 133.667 168.121 139.967 165.22 139.598C162.327 139.244 163.672 132.379 165.423 129.84C167.173 127.301 178.711 119.257 178.711 119.257V119.265Z" fill="#DA8F17"/>
<path d="M164.063 138.86C166.812 123.257 180.244 129.717 180.244 129.717C181.387 125.767 178.711 119.264 178.711 119.264C178.711 119.264 167.18 127.308 165.43 129.847C163.99 131.93 162.826 136.936 164.07 138.853L164.063 138.86Z" fill="#CF8211"/>
<path d="M176.57 100.753C176.57 100.753 182.371 102.446 183.058 105.911C183.745 109.368 184.092 116.378 182.979 118.157C181.857 119.937 165.481 134.259 161.553 133.876C157.632 133.492 158.594 121.709 163.94 118.085C169.293 114.461 170.935 112.081 170.935 112.081C170.935 112.081 168.114 100.305 176.562 100.753H176.57Z" fill="#DA8F17"/>
<path d="M159.412 131.329C159.838 119.763 172.179 117.332 172.179 117.332C177.228 110.2 183.036 115.944 183.485 116.522C183.941 113.708 183.608 108.667 183.065 105.903C182.378 102.446 176.57 100.739 176.57 100.739C168.128 100.297 170.942 112.066 170.942 112.066C170.942 112.066 169.3 114.453 163.947 118.078C160.084 120.696 158.507 127.568 159.404 131.322H159.419L159.412 131.329Z" fill="#CF8211"/>
<path d="M170.942 112.074C175.217 105.101 182.761 105.021 182.761 105.021C181.987 101.997 176.562 100.739 176.562 100.739C168.121 100.297 170.934 112.066 170.934 112.066L170.942 112.074Z" fill="#EDAD8A"/>
<path d="M173.495 86.3448C173.495 86.3448 179.115 84.7317 182.804 86.6052C186.493 88.4859 190.703 95.9582 190.233 97.6581C189.763 99.3652 175.701 114.31 168.222 113.123C160.742 111.937 165.4 99.2567 172.62 94.5694L173.502 86.3448H173.495Z" fill="#DA8F17"/>
<path d="M165.024 111.018C164.453 98.0268 177.387 96.5729 177.387 96.5729C177.387 96.5729 175.072 92.8042 180.555 90.229C185.9 87.7335 189.727 95.4517 189.93 95.8568C188.91 92.985 185.698 88.0662 182.797 86.5906C179.108 84.7098 173.488 86.3374 173.488 86.3374L172.605 94.5619C166.912 98.2583 162.818 106.931 165.024 111.011V111.018Z" fill="#CF8211"/>
<path d="M179.723 85.7655L172.605 94.5687L173.488 86.3441C173.488 86.3441 176.345 85.4327 179.723 85.7655Z" fill="#B45F00"/>
<path d="M108.827 77.2598C108.827 77.2598 112.567 84.8912 109.276 87.3506C105.984 89.8172 105.145 86.5332 105.427 86.2655C105.702 85.9979 107.981 87.0902 108.538 86.5911C110.599 84.7248 108.834 77.267 108.834 77.267L108.827 77.2598Z" fill="#B45F00"/>
<path d="M177.625 105.637C177.625 105.637 176.873 102.7 173.799 102.36C170.725 102.013 167.31 106.874 167.31 107.959C167.31 109.044 171.412 103.923 173.191 103.923C174.971 103.923 176.7 106.411 177.633 105.63L177.625 105.637Z" fill="#B45F00"/>
<path d="M169.828 126.115C169.828 126.115 169.119 123.822 166.667 123.663C164.215 123.511 161.705 127.489 161.748 128.35C161.792 129.218 164.837 124.994 166.247 124.929C167.658 124.864 169.119 126.766 169.828 126.108V126.115Z" fill="#B45F00"/>
<path d="M171.752 134.485C171.752 134.485 171.26 132.886 169.56 132.778C167.86 132.669 166.11 135.439 166.139 136.04C166.175 136.64 168.287 133.711 169.264 133.66C170.24 133.609 171.26 134.94 171.752 134.485Z" fill="#B45F00"/>
<path d="M127.974 182.002L124.234 190.653C120.104 195.152 113.37 202.053 109.21 206.249C107.995 207.471 106.686 208.752 105.283 210.083C104.733 210.611 104.154 211.146 103.561 211.688C100.472 214.531 96.9856 217.54 93.1229 220.557C91.857 220.571 90.5767 220.557 89.2747 220.513C94.1211 216.839 98.6204 213.027 102.729 209.258C103.308 208.73 103.886 208.195 104.451 207.659C115.966 196.852 124.169 186.689 127.967 181.995L127.974 182.002Z" fill="#2B2B37"/>
<path d="M108.285 218.502C107.641 218.734 106.954 218.951 106.223 219.146C105.333 216.708 104.444 214.22 103.568 211.695C103.286 210.885 103.011 210.082 102.736 209.265C97.8755 194.971 93.6655 179.94 92.7252 168.569C92.6745 167.997 93.1447 167.484 93.7306 167.44C94.3166 167.383 94.8446 167.853 94.888 168.424C95.7922 179.361 99.7851 193.814 104.458 207.659C104.733 208.476 105.008 209.272 105.283 210.082C106.259 212.939 107.272 215.753 108.285 218.502Z" fill="#2B2B37"/>
<path d="M214.546 199.197C210.647 213.649 196.31 221.302 183.716 217.107C172.331 213.309 166.009 200.896 168.685 188.78C171.434 176.353 182.957 167.188 195.485 168.7C209.417 170.378 218.575 184.31 214.553 199.197H214.546Z" fill="#333240"/>
<path d="M212.282 198.567C208.448 212.918 194.357 220.521 181.973 216.354C170.783 212.586 164.562 200.252 167.195 188.223C169.893 175.882 181.228 166.775 193.54 168.287C207.233 169.958 216.238 183.789 212.282 198.574V198.567Z" fill="#696878"/>
<path d="M207.826 197.417C204.759 208.911 193.467 215.001 183.543 211.667C174.58 208.65 169.596 198.769 171.701 189.127C173.864 179.246 182.942 171.947 192.809 173.155C203.782 174.493 210.994 185.568 207.826 197.417Z" fill="#EAEEEF"/>
<path d="M193.33 169.661C206.256 171.245 214.756 184.287 211.023 198.248C207.399 211.789 194.104 218.965 182.414 215.03C171.853 211.478 165.987 199.832 168.468 188.483C171.014 176.844 181.713 168.243 193.33 169.661ZM185.149 193.626L175.21 201.308L176.881 201.778L185.662 195.058L189.286 205.286L195.84 207.138L190.19 191.6L201.077 183.274L199.008 182.913L189.655 190.139L186.212 180.663L180.186 179.6L185.156 193.618L185.149 193.626ZM188.375 191.137L188.91 192.584L193.489 204.961L190.523 204.143L182.234 181.48L184.989 181.987L188.375 191.137Z" fill="#161717"/>
<path d="M35.5802 68.6589C40.5352 87.0249 58.7493 96.7468 74.7572 91.4156C89.2171 86.5908 97.2608 70.8145 93.861 55.4214C90.3744 39.6378 75.7265 27.9846 59.8127 29.9087C42.1121 32.0426 30.4733 49.7431 35.5875 68.6589H35.5802Z" fill="#22396B"/>
<path d="M38.4595 67.8631C43.3276 86.0989 61.2379 95.7557 76.9709 90.4607C91.1921 85.6721 99.0911 70.0042 95.7492 54.7125C92.3205 39.0373 77.9185 27.4636 62.2723 29.3733C44.8684 31.4927 33.4249 49.0703 38.4522 67.8558L38.4595 67.8631Z" fill="#3A559D"/>
<path d="M66.9304 46.4809L68.0661 53.1141L75.5094 51.964L75.9289 60.297L69.4549 61.2808L73.2597 83.741L64.2612 85.2022L60.8253 62.6262L53.042 63.827L51.899 55.5518L59.5594 54.3872C56.5792 42.2421 59.8777 36.5637 73.2814 35.6885L74.7137 43.3343C72.9704 43.9709 66.2794 43.3705 66.9231 46.4809H66.9304Z" fill="#F2F2F2"/>
</svg>
