<svg width="200" height="200" fill="none" xmlns="http://www.w3.org/2000/svg"><path d="M49.918 117.822s-1.318-.21-1.668.198c-1.54 1.796-.796 2.598-.796 2.598l8.062 14.658 9.656 6.492s.876.178.868-1.156c-.022-1.092-16.12-22.788-16.12-22.788l-.002-.002Z" fill="#2B2B37"/><path d="m72.372 135.424-9.306 7.01-16.678-9.218 1.294-8.784c1.486-2.356 2.33-4.736 1.738-6.936-.156-.58-.31-1.156-.46-1.726-.002 0-.002-.002-.002-.002a92.134 92.134 0 0 1-.636-2.536l-.002-.012-.002-.016c-1.094-4.708-2.778-11.218-1.862-18.544 1.026-8.214.256-14.632-2.654-20.43-.226-.682-.36-1.196-.36-1.504.002-1.418 1.7-1.424 3.422-.772.87.328 1.748.83 2.416 1.4 1.796 1.54 3.594 3.08 4.878 6.162 1.026 2.46 1.766 9.006 3.006 13.922.736 2.924 1.646 5.27 2.898 5.846.462.214.948-.27 1.412-1.102.062.052.126.094.19.134.854.5 2.054-1.61 3.026-3.822l1.202 6.398.486 2.582 3.448 18.366 2.55 13.59-.004-.006Z" fill="#D58500"/><path opacity=".36" d="M66.376 103.47c-.764 1.728-1.88 2.926-3.492 2.982-5.272.18-5.972-5.262-5.722-13.018.736 2.924 1.646 5.27 2.898 5.846.462.214.948-.27 1.412-1.102.062.052.126.094.19.134.854.5 2.054-1.61 3.026-3.822l1.202 6.398.486 2.582Z" fill="#B45F00"/><path opacity=".18" d="m72.372 135.424-9.306 7.01-16.678-9.218 1.294-8.784c1.486-2.356 2.33-4.736 1.738-6.936-.156-.58-.31-1.156-.46-1.726 2.632 4.56 7.958 6.322 11.84 6.852 1.554.214 5.204-.208 9.024-.788l2.55 13.59h-.002Z" fill="#B45F00"/><path opacity=".36" d="m70.318 141.586-9.306 7.01-16.678-9.218 1.294-8.784c1.486-2.356 2.33-4.736 1.738-6.936-.156-.58-.31-1.156-.46-1.726 2.632 4.56 7.958 6.322 11.84 6.852 1.554.214 5.204-.208 9.024-.788l2.55 13.59h-.002Z" fill="#B45F00"/><path opacity=".18" d="M65.89 100.886c-.368 3.23-1.394 6.05-3.812 6.374-5.942.794-6.722-6.22-7.152-15.682-.514-11.296-3.593-16.686-8.064-19.626.87.328 1.748.83 2.416 1.4 1.797 1.54 3.595 3.08 4.879 6.162 1.636 3.922 2.55 18.23 5.904 19.766 1.785.818 3.895-8.694 3.895-8.694l1.934 10.302v-.002Z" fill="#B45F00"/><path opacity=".4" d="M48.432 101.81c-1.464 5.684-.172 10.958-.116 11.392-1.094-4.708-2.778-11.218-1.862-18.544 1.026-8.214.256-14.632-2.654-20.43 3.424 3.23 4.946 6.53 5.734 11.7.788 5.17.36 10.196-1.104 15.88l.002.002Z" fill="#E2A040"/><path opacity=".36" d="M46.46 80.104c1.278-1.852.748-4.622-1.182-7.122 0 0 2.46 1.006 2.594 3.358.134 2.354-1.41 3.764-1.41 3.764h-.002Z" fill="#B45F00"/><path opacity=".4" d="M55.338 104.254c-1.106-1.096-3.152-1.894-4.152-.96-1.054.98-.02 2.872.732 3.946.754 1.076 2.868 3.432 4.118 1.766 1.08-1.528.59-3.136-.698-4.754v.002Z" fill="#E2A040"/><path d="M113.632 56.53v.01a6.463 6.463 0 0 1-.102.826 7.035 7.035 0 0 1-.798 2.172c-.478.854-2.32 3.022-3.912 4.832-1.352 1.54-2.526 2.822-2.526 2.822l-.816-8.734-.148-1.568c3.54-2.574 6.438-4.506 7.404-3.54.58.58.988 1.764.902 3.18h-.004ZM114.986 81.428c-.922 1.446-2.778 3.516-4.258 5.09h-.002c-1.212 1.288-2.176 2.242-2.176 2.242l-.712-7.602-.254-2.7c3.54-2.574 6.438-4.508 7.404-3.542.298.3.552.824.716 1.468.048.188.088.388.118.594h.002c.206 1.376.03 3.096-.836 4.452l-.002-.002ZM115.7 89.562a7.3 7.3 0 0 1-.064.808c-.16 1.192-.604 2.508-1.132 3.278-1.368 1.992-4.382 4.292-5.978 5.44-.634.452-1.044.724-1.044.724l.518-7.888.108-1.66c3.612-1.832 6.54-3.172 7.28-2.148.232.318.324.84.314 1.448l-.002-.002Z" fill="#D58500"/><path opacity=".36" d="M113.634 56.53v.01c-1.062-1.198-2.98-1.378-5.24 0-.93.566-1.99 1.278-2.916 1.918l-.148-1.568c3.54-2.576 6.438-4.506 7.404-3.54.58.58.988 1.764.902 3.18h-.002Z" fill="#B45F00"/><path opacity=".4" d="M113.53 57.368a7.035 7.035 0 0 1-.798 2.172c-.478.854-2.32 3.022-3.912 4.832 0 0 .122-2.68.744-4.862.514-1.796 2.568-4.364 3.966-2.14v-.002Z" fill="#E2A040"/><path opacity=".36" d="M115.702 76.384c-.748-.446-2.342-1.05-4.11 1.176-1.022 1.286-2.604 2.664-3.756 3.6l-.254-2.7c3.54-2.574 6.438-4.508 7.404-3.542.298.3.552.824.716 1.468v-.002Z" fill="#B45F00"/><path opacity=".4" d="M114.986 81.428c-.922 1.446-2.778 3.516-4.258 5.09h-.002c-.07 0-.108-.002-.108-.002s1.002-5.188 1.944-7.358c.94-2.17 1.624-2.452 3.258-2.19l.002.008h.002c.206 1.376.03 3.096-.836 4.452h-.002ZM115.634 90.37c-.16 1.192-.604 2.508-1.132 3.278-1.368 1.992-4.382 4.292-5.978 5.44l.012-.046s2.174-5.278 3.56-7.194c1.35-1.868 2.076-2.036 3.538-1.478Z" fill="#E2A040"/><path d="M117.39 68.888c-.036.338-.1.68-.188 1.014-.254 1.008-.698 1.946-1.174 2.514-.396.47-1.356 1.37-2.5 2.396-.904.808-1.92 1.692-2.86 2.5-.636.546-1.238 1.062-1.746 1.492-.894.76-1.5 1.266-1.5 1.266l-.074-.604-.998-7.952-.218-1.746c4.734-2.574 8.498-4.756 9.978-4.122 1.148.49 1.44 1.838 1.278 3.244l.002-.002Z" fill="#D58500"/><path opacity=".4" d="M117.203 69.902c-.254 1.008-.698 1.946-1.174 2.514-.396.47-1.356 1.37-2.5 2.396-.904.808-1.919 1.692-2.859 2.5-.498.332-1.122.886-1.746 1.492-.894.76-1.5 1.266-1.5 1.266l-.075-.604c2.302-4.182 7.534-12.812 9.852-9.562l.002-.002Z" fill="#E2A040"/><path opacity=".36" d="M117.39 68.888c-.64-4.246-5.36-.206-8.854 2.686-.794.658-1.542 1.882-2.054 1.796l-.35-3.604c4.734-2.574 8.498-4.756 9.978-4.122 1.148.49 1.44 1.838 1.278 3.244h.002ZM115.7 89.562h-.136c-1.636-.788-3.432-.018-5.23 1.008-.586.334-1.446.832-2.336 1.352l.108-1.66c3.612-1.832 6.54-3.172 7.28-2.148.232.318.324.84.314 1.448Z" fill="#B45F00"/><path d="M73.462 136.854s-3.974 10.648-6.2 13.192c-2.226 2.544-5.098 5.882-5.404 10.174-.006.088-.016.174-.026.262l-.008.052a3.1 3.1 0 0 1-.036.232c-.018.1-.038.202-.064.3-.02.09-.046.178-.072.262-.026.09-.054.178-.088.264a6.007 6.007 0 0 1-.782 1.466 4.96 4.96 0 0 1-.19.254c-.052.064-.102.13-.156.192a8.54 8.54 0 0 1-.8.83l-.218.196c-.074.066-.152.128-.226.19-.206.166-.418.328-.636.486l-.078.054c-.08.056-.16.11-.242.164-.082.056-.164.11-.25.164a3.729 3.729 0 0 1-.252.156c-.078.048-.154.092-.232.138-.126.074-.252.146-.378.216l-.354.192c-.108.056-.218.112-.328.166l-.262.128a16.323 16.323 0 0 1-1.102.486c-.094.042-.19.078-.284.112-.116.046-.232.09-.346.13-.054.02-.108.042-.162.06l-.252.09c-.416.142-.808.262-1.166.356-.354.094-.75.196-1.18.298-.136.034-.278.066-.422.1a47.28 47.28 0 0 1-.974.218c-.232.048-.468.1-.708.152-.298.062-.606.124-.924.188-.106.018-.21.042-.318.062a60.97 60.97 0 0 1-1.13.21l-.45.084-.42.072-.628.108-.644.108a5.6 5.6 0 0 0-.254.042l-.288.046c-.31.048-.624.098-.942.144l-.522.078c-.166.026-.336.048-.506.072-.13.02-.264.038-.396.056-.162.02-.324.044-.488.066l-.708.092-.816.1c-.206.026-.41.048-.618.072-.342.038-.682.078-1.026.112-.378.042-.758.078-1.14.112-.316.03-.632.06-.95.084-.28.024-.56.046-.84.066l-.83.062c-.01-.002-.024 0-.034 0-.274.02-.55.036-.822.052l-.418.024c-.936.046-1.866.08-2.786.092-.244.002-.488.006-.73.006a51.355 51.355 0 0 1-4.354-.158c-.092-.006-.182-.016-.274-.024a34.999 34.999 0 0 1-1.108-.116c-.236-.03-.468-.062-.696-.094-.36-.052-.712-.108-1.056-.172-.074-.016-.148-.028-.22-.044l-.198-.038a22.794 22.794 0 0 1-.606-.134 17.38 17.38 0 0 1-1.512-.422c-.236-.08-.468-.162-.688-.252-.896-.35-1.672-.776-2.3-1.28-1.196-.96-1.864-2.218-1.814-3.838.234-7.686 8.892-13.228 13.026-18.95 2.238-3.098 8.118-11.496 12.982-18.186 4.118-5.66 7.512-10.096 7.366-9.072-.282 1.984 1.07 5.28 2.904 8.278 1.488 2.432 3.294 4.664 4.798 5.84 6.246 4.882 17.254 4.716 17.254 4.716l.002.004Z" fill="#575771"/><path opacity=".25" d="M73.462 136.854s-3.974 10.648-6.2 13.192c-2.226 2.544-5.098 5.882-5.404 10.174-.006.088-.016.174-.026.262l-.008.052a3.1 3.1 0 0 1-.036.232c-.018.1-.038.202-.064.3-.02.09-.046.178-.072.262-.026.09-.054.178-.088.264-.03.084-.064.172-.1.256-.07.172-.148.338-.238.5a5.751 5.751 0 0 1-.444.71 4.96 4.96 0 0 1-.19.254c-.052.064-.102.13-.156.192a8.54 8.54 0 0 1-.8.83l-.218.196c-.074.066-.152.128-.226.19-.206.166-.418.328-.636.486l-.078.054c-.08.056-.16.112-.242.164-.082.056-.164.11-.25.164a3.729 3.729 0 0 1-.252.156c-.078.048-.154.092-.232.138-.126.074-.252.146-.378.216l-.354.192c-.108.056-.218.112-.328.166l-.262.128a16.323 16.323 0 0 1-1.102.486c-.094.042-.19.078-.284.112-.116.046-.232.09-.346.13-.054.02-.108.042-.162.06l-.252.09c-.416.142-.808.262-1.166.356-.354.094-.75.196-1.18.298-.136.034-.278.066-.422.1a47.28 47.28 0 0 1-.974.218c-.228.052-.464.1-.708.152-.298.062-.606.124-.924.188l-.318.062a60.97 60.97 0 0 1-1.13.21l-.45.084-.42.072-.628.108-.644.108c-.18.028-.36.056-.542.088-.31.048-.624.098-.942.144l-.522.078c-.166.026-.336.048-.506.072-.13.02-.264.038-.396.056-.162.02-.324.044-.488.066l-.708.092-.816.1c-.206.026-.41.048-.618.072-.342.038-.682.078-1.026.112-.378.042-.758.078-1.14.112-.316.03-.632.06-.95.084-.28.024-.56.046-.84.066l-.83.062c-.01-.002-.024 0-.034 0-.274.018-.546.036-.822.052l-.418.024c-.936.046-1.866.08-2.786.092-.244.002-.488.006-.73.006a50.379 50.379 0 0 1-4.354-.158c-.092-.006-.182-.016-.274-.024a34.999 34.999 0 0 1-1.108-.116c-.236-.03-.468-.062-.696-.094-.36-.052-.712-.108-1.056-.172-.074-.016-.148-.028-.22-.044l-.198-.038a22.794 22.794 0 0 1-.606-.134 17.38 17.38 0 0 1-1.512-.422 13.24 13.24 0 0 1-.688-.252c-.896-.35-1.672-.776-2.3-1.28 0 0 11.02-4.094 21.288-10.256 11.978-7.188 16.098-19.792 13.172-31.512 1.488 2.432 3.294 4.664 4.798 5.84 6.246 4.882 17.254 4.716 17.254 4.716l.006.004Z" fill="#2B2B37"/><path opacity=".25" d="M73.462 136.854s-3.974 10.648-6.2 13.192c-2.226 2.544-5.098 5.882-5.404 10.174-.006.088-.016.174-.026.262l-.008.052a3.1 3.1 0 0 1-.036.232c-.018.1-.038.202-.064.3-.02.09-.046.178-.072.262-.026.09-.054.178-.088.264a6.008 6.008 0 0 1-.782 1.466 4.96 4.96 0 0 1-.19.254c-.052.064-.102.13-.156.192a8.537 8.537 0 0 1-.8.83l-.218.196c-.074.066-.152.128-.226.19-.206.166-.418.328-.636.486l-.078.054c-.08.056-.16.11-.242.164-.082.056-.164.11-.25.164a3.729 3.729 0 0 1-.252.156c-.078.048-.154.092-.232.138-.126.074-.252.146-.378.216l-.354.192c-.108.056-.218.112-.328.166l-.262.128a16.32 16.32 0 0 1-1.102.486c-.094.042-.19.078-.284.112-.116.046-.232.09-.346.13-.054.02-.108.042-.162.06l-.252.09c-.416.142-.808.262-1.166.356-.354.094-.75.196-1.18.298-.136.034-.278.066-.422.1a47.299 47.299 0 0 1-.974.218c-.232.048-.468.1-.708.152-.298.062-.606.124-.924.188-.106.018-.21.042-.318.062a60.97 60.97 0 0 1-1.13.21l-.45.084-.42.072-.628.108-.644.108a5.6 5.6 0 0 0-.254.042 213.578 213.578 0 0 0 5.724-4.338c13.588-10.654 7.462-26.31 5.666-32.984 6.246 4.882 17.254 4.716 17.254 4.716h.002Z" fill="#2B2B37"/><path d="M64.648 143.814c-1.422 1.794-7.068 7.604-10.182 10.736-.686.69-1.422 1.414-2.212 2.164-.314.298-.64.6-.97.906-4.634 4.272-10.854 9.168-18.376 13.11-.994.044-1.976.07-2.944.07 8.046-3.874 15.126-9.296 20.85-14.548.328-.3.654-.6.976-.904 7.974-7.484 13.128-14.42 14.338-15.774.274-.292.764-.324 1.024-.038.588.69-1.744 3.314-2.502 4.28l-.002-.002Z" fill="#2B2B37"/><path d="M55.924 166.708a18.98 18.98 0 0 1-1.116.474 279.222 279.222 0 0 1-3.524-9.562l-.47-1.368c-2.74-8.06-5.112-16.542-5.648-22.95-.028-.324.238-.61.568-.642a.617.617 0 0 1 .654.558c.51 6.172 2.764 14.32 5.402 22.13.154.456.308.912.464 1.366a281.51 281.51 0 0 0 3.67 9.994Z" fill="#2B2B37"/><path d="M64.892 60.172c0 .174.008.35.026.526v.004l2.342 23.786 3.69 37.48 2.548 25.878c.046.452.144.878.292 1.274.02.054.046.106.068.16l.046.11a4.806 4.806 0 0 0 .202.404 4.423 4.423 0 0 0 .408.6c.05.062.102.12.154.18.032.038.066.074.102.11l.07.072c.044.044.088.086.134.126a3.383 3.383 0 0 0 .296.248l.09.066a.018.018 0 0 0 .014.006 3.89 3.89 0 0 0 .704.402 3.777 3.777 0 0 0 1.054.298c.044.006.09.014.136.018.37.038.75.022 1.138-.048l.426-.076 10.706-1.944 24.484-4.45c.188-.036.374-.082.554-.14.024-.006.048-.016.072-.022h.004a2.54 2.54 0 0 1 .142-.054l.054-.02s.002-.002.002 0c.058-.024.112-.046.166-.072l.02-.008c.068-.03.134-.062.198-.094h.002l.188-.104a4.913 4.913 0 0 0 .822-.6c.014-.01.024-.022.036-.03l.002-.004h.002c.052-.048.104-.098.154-.15h.002l.064-.068.066-.07c.036-.038.068-.074.102-.112.038-.042.074-.086.11-.13.028-.032.054-.068.084-.104h.002l.002-.004a5.453 5.453 0 0 0 1.11-3.852l-8.582-87.14a5.08 5.08 0 0 0-.182-.946c-.454-1.544-1.602-2.672-3.016-3.028a1.552 1.552 0 0 0-.148-.032l-.134-.026a3.927 3.927 0 0 0-.402-.052h-.006c-.042-.004-.082-.004-.124-.006a3.939 3.939 0 0 0-.9.064l-13.966 2.538s0 .002-.002.002l-21.644 3.934h-.004a2.21 2.21 0 0 0-.158.032l-.004.002c-.048.008-.096.02-.142.032l-.008.002-.052.014a.423.423 0 0 0-.062.018l-.13.04c-.022.006-.042.014-.064.022l-.204.074-.002.002a2.911 2.911 0 0 0-.202.086c-.03.014-.062.028-.092.044-.03.014-.062.028-.09.046l-.008.004c-.076.04-.154.084-.23.128-.006.002-.014.004-.018.008-.016.008-.03.018-.044.026-.038.022-.074.046-.112.07-.046.03-.092.066-.138.098l-.074.052c-.04.03-.084.056-.124.088-.054.046-.112.092-.164.14a.767.767 0 0 0-.046.038l-.046.04c-.07.06-.136.124-.202.188-.014.01-.024.024-.038.038l-.042.046a.584.584 0 0 0-.068.074.637.637 0 0 0-.074.078c-.04.044-.08.09-.116.138l-.058.068c-.01.016-.022.028-.03.042a4.03 4.03 0 0 0-.26.364l-.026.04c-.016.026-.032.052-.046.08a1.2 1.2 0 0 0-.066.108c-.022.038-.044.074-.064.112-.016.026-.028.052-.042.08-.026.048-.05.096-.074.144-.032.066-.066.134-.096.204-.036.082-.07.164-.102.248-.004.01-.008.02-.014.03-.024.064-.046.13-.068.196-.01.036-.024.068-.032.104a5.534 5.534 0 0 0-.128.484c-.02.086-.036.174-.05.262l-.008.066a3.096 3.096 0 0 0-.032.272 4.614 4.614 0 0 0-.028.532l-.002-.004Z" fill="#E3F7FF"/><path d="M104.714 48.674a2.742 2.742 0 0 0-.288-.068l.07-.012.028-.004.19.086v-.002Z" fill="#738483"/><path d="m106.192 48.638-.134-.028c-.042-.006-.086-.016-.134-.026a2.839 2.839 0 0 0-.266-.036l-.134-.016c-.048-.004-.09-.004-.132-.006h-.166c-.06 0-.118.004-.18.006-.116.004-.228.016-.342.028a1.867 1.867 0 0 0-.18.028c-.012 0-.026.004-.038.006l-.058.01-13.906 2.526-21.642 3.934c-.058.006-.108.02-.164.032-.052.01-.102.022-.148.036l-.01.004c-.016.004-.036.006-.052.012a.785.785 0 0 0-.256.078c-.068.026-.134.052-.204.076-.07.028-.134.058-.204.086-.028.012-.06.028-.092.044a.874.874 0 0 1-.086.044c-.006.004-.01.004-.01.006-.076.038-.154.084-.234.128-.006 0-.012.004-.016.006a4.39 4.39 0 0 0-.292.198c-.028.016-.052.036-.076.052-.1.074-.196.148-.288.228-.016.012-.028.026-.044.038-.138.122-.272.25-.396.386a5.439 5.439 0 0 0-1.384 4.184l2.342 23.79.338 3.444 3.352 34.034.148 1.488.176 1.772 2.226 22.616a4.892 4.892 0 0 0 .354 1.434l.048.112c.02.042.042.09.06.134.042.084.08.16.124.24a1.89 1.89 0 0 0 .128.214c.01.022.022.038.036.058.07.106.148.212.224.31.064.076.122.154.188.228.048.054.096.108.15.156.048.052.1.102.154.15.068.06.134.122.204.176.064.052.132.1.196.144.652.314 1.276.55 1.762.7a3.42 3.42 0 0 1-.202.012c-.004.004-.006.004-.01 0a20.425 20.425 0 0 1-6.61-.594c-2.338-.61-4.042-2.616-4.312-5.014l-2.894-25.826-6.87-61.276-.004-.012c-.262-2.67 1.506-5.198 3.96-5.638l6.444-1.116.06-.01h.004l.132-.026 10.142-1.752h.004l.032-.006.212-.036c.042-.006.09-.016.134-.022l.38-.068.084-.016 19.168-3.314c.63-.118 5.454.348 6.256.642l2.948.81v-.002Z" fill="#899695"/><path d="m77.256 151.94-.208-.016-.116-.01c.068-.004.134-.006.202-.012l.032.01c.032.012.06.02.09.028ZM77.134 151.902a13.07 13.07 0 0 1-1.762-.7 3.06 3.06 0 0 1-.196-.144c-.07-.054-.138-.116-.204-.176a2.742 2.742 0 0 1-.154-.15 1.842 1.842 0 0 1-.15-.156c-.068-.074-.124-.15-.188-.228a5.82 5.82 0 0 1-.224-.31c-.012-.02-.026-.036-.036-.058a2.211 2.211 0 0 1-.128-.214 4.513 4.513 0 0 1-.124-.24l-.06-.134-.048-.112a4.892 4.892 0 0 1-.326-1.206c1.804 2.648 3.602 3.828 3.602 3.828h-.002Z" fill="#899695"/><path d="M56.234 59.188c.498 3.474 1.664 12.992 2.916 23.46l8.104 1.84h.006v.004l.004.004 1.6 1.25.588.464-.124-1.27-1.8-18.298-.62-6.298a2.924 2.924 0 0 1 .25-1.504.783.783 0 0 1 .044-.102 3.136 3.136 0 0 1 .326-.522c.022-.032.048-.06.074-.092.052-.06.106-.118.16-.172.048-.048.092-.092.144-.134l.032-.028c.042-.036.086-.07.132-.102.004-.004.006-.006.01-.006.048-.036.096-.068.144-.1.016-.01.028-.02.044-.026.052-.032.106-.064.16-.092.048-.026.1-.048.148-.068.048-.022.092-.038.14-.054a.478.478 0 0 1 .086-.028c.068-.022.14-.042.214-.058l.074-.016 5.222-.95.004-.004 14.71-2.67 15.682-2.85c1.08-.196 2.076.406 2.504 1.408l2.002-.496.01-.006c-.454-1.544-1.6-2.67-3.016-3.026-.004 0-.01-.004-.012-.006l-2.948-.81c-.802-.294-5.626-.762-6.256-.642l-19.168 3.314-.084.016-.38.068-.134.022-.212.036-.032.006h-.004l-10.142 1.752-.132.026H66.7l-.06.01-6.444 1.116c-2.454.442-4.222 2.968-3.96 5.638l-.002-.004ZM77.134 151.902a3.42 3.42 0 0 1-.202.012c-.004.004-.006.004-.01 0a20.425 20.425 0 0 1-6.61-.594c-2.338-.61-4.042-2.616-4.312-5.014l-2.894-25.826 8.03 3.236.14 1.516 2.226 22.616a4.891 4.891 0 0 0 .354 1.434l.048.112c.02.042.042.09.06.134.042.084.08.16.124.24a1.89 1.89 0 0 0 .128.214c.01.022.022.038.036.058.07.106.148.212.224.31.064.076.122.154.188.228.048.054.096.108.15.156.048.052.1.102.154.15.068.06.134.122.204.176.064.052.132.1.196.144.652.314 1.276.55 1.762.7l.004-.002Z" fill="#93A3A2"/><path d="M69.054 57.242c-.014.004-.026.008-.04.01.026-.004.05-.01.074-.016l5.222-.95.004-.004-5.222.95a.283.283 0 0 0-.04.008l.002.002Zm-4.152 3.214c.004.084.006.166.014.25l2.342 23.78 3.69 37.478 2.548 25.88c.044.452.144.88.296 1.276.02.056.046.108.07.164.014.034.028.07.044.104.052.118.108.232.17.344.012.022.022.044.034.064l.006.012c.034.06.07.118.106.176l.012.022c.046.074.096.146.146.216l.068.09.066.086c.05.062.102.12.154.18a1.748 1.748 0 0 0 .15.158 3.383 3.383 0 0 0 .542.464.018.018 0 0 0 .014.006c.072.052.148.102.222.148.004.004.006.006.01.006.036.022.07.044.106.064.006.004.016.008.022.014a.7.7 0 0 0 .102.052c.048.026.098.05.15.074l.046.024.048.02a3.777 3.777 0 0 0 1.058.3l.132.016c.37.038.75.022 1.138-.048l.426-.076 10.706-1.946 24.484-4.448c.188-.036.374-.082.554-.14.024-.006.048-.016.072-.022h.004a2.54 2.54 0 0 1 .142-.054l.054-.02s.002-.002.002 0l.054-.026.112-.046.02-.008c.068-.03.134-.062.198-.094h.002l.188-.104a4.913 4.913 0 0 0 .822-.6c.014-.01.024-.022.036-.03.002-.002.002-.004.004-.004.052-.048.104-.098.154-.15h.002l.064-.068.066-.07c.036-.038.068-.074.102-.112.038-.042.074-.086.11-.13.028-.032.054-.068.084-.104h.002s-.002-.002 0-.004h.002s.008-.016.016-.024c.006-.006.01-.014.016-.022.076-.098.148-.2.216-.306a5.168 5.168 0 0 0 .326-.572l.004-.006c.128-.262.236-.536.32-.82.002-.002.002-.004.002-.006a5.411 5.411 0 0 0 .202-2.094l-8.452-85.816-.13-1.32a4.951 4.951 0 0 0-.184-.946c-.55-1.884-2.14-3.148-3.986-3.148-.06 0-.118.002-.18.004-.114.004-.226.016-.34.028-.06.008-.12.018-.18.028l-.038.006-.06.01-13.904 2.526-21.652 3.936c-.052.008-.106.02-.158.03a2.16 2.16 0 0 0-.154.038l-.154.042-.152.048-.204.074-.002.002a2.911 2.911 0 0 0-.202.086c-.03.014-.062.028-.092.044-.03.016-.06.03-.088.046h-.002l-.008.004c-.076.04-.154.084-.23.128-.006.002-.014.004-.018.008-.016.008-.03.018-.044.026-.038.022-.074.046-.112.07-.046.03-.092.066-.138.098l-.074.052c-.04.03-.084.056-.124.088l-.15.118c-.108.09-.21.184-.31.288a.137.137 0 0 0-.038.038c-.046.044-.086.092-.128.138l-.036.038a1.923 1.923 0 0 0-.138.162l-.058.068c-.06.07-.114.142-.162.218-.058.074-.11.152-.154.228-.018.026-.032.056-.048.082a1.118 1.118 0 0 0-.064.104c-.022.038-.044.074-.064.112l-.01.02c-.03.054-.056.108-.084.162l-.022.042c-.032.066-.066.134-.096.204v.004c-.03.062-.054.126-.078.19-.008.018-.016.036-.022.054-.004.01-.008.02-.014.03-.01.028-.02.056-.028.084a4.896 4.896 0 0 0-.094.29l-.042.14c0 .004-.002.01-.004.014-.02.078-.038.158-.056.236a.059.059 0 0 1-.004.018l-.012.066a5.412 5.412 0 0 0-.102 1.314c0 .012 0 .024.002.038l.004-.006Zm8.286 63.644-3.732-37.892-.126-1.27-1.802-18.298-.62-6.298a2.935 2.935 0 0 1 .248-1.502 3.077 3.077 0 0 1 .444-.714c.05-.062.106-.12.16-.176a2.217 2.217 0 0 1 .174-.16 1.31 1.31 0 0 1 .14-.11c.046-.036.094-.068.142-.098.016-.01.028-.02.044-.026a1.708 1.708 0 0 1 .31-.16c.046-.022.092-.038.138-.054a2.586 2.586 0 0 1 .3-.084c.026-.004.05-.01.074-.016l5.222-.95.004-.004 14.708-2.672 15.682-2.85c1.08-.196 2.074.406 2.502 1.408.104.248.176.52.204.81l.526 5.356.014.136 7.448 75.604.596 6.04a2.92 2.92 0 0 1-.164 1.3 3.229 3.229 0 0 1-.134.314 2.448 2.448 0 0 1-.18.314 1.807 1.807 0 0 1-.138.196 3.298 3.298 0 0 1-.232.266 2.578 2.578 0 0 1-.656.482c-.002.004-.006.004-.01.006a2.247 2.247 0 0 1-.666.228l-6.538 1.188-18.588 3.378-3.586.652-3.834.696-3.066.558c-1.348.244-2.56-.752-2.706-2.218l-.674-6.846-1.628-16.536v.002Zm-4.172-66.848c.026-.004.05-.01.074-.016l5.222-.95.004-.004-5.222.95a.283.283 0 0 0-.04.008c-.014.004-.026.008-.04.01l.002.002Z" fill="#CDD5D4"/><path d="m89.54 149.848 24.484-4.45c.188-.036.374-.082.554-.14.024-.006.048-.016.072-.024.05-.016.098-.032.148-.052l.054-.02h.002a1.38 1.38 0 0 0 .054-.026c.112-.044.222-.094.33-.15h.002l.188-.104a4.913 4.913 0 0 0 .822-.6c.014-.01.026-.024.038-.036h.002c.052-.048.104-.098.154-.15.044-.044.09-.09.132-.138.074-.076.142-.158.21-.242.028-.032.054-.068.084-.104l.002-.004c.01-.016.024-.03.032-.046.076-.098.148-.2.216-.306a5.168 5.168 0 0 0 .326-.572l.004-.006c.128-.262.236-.536.32-.82.002-.002.002-.004.002-.006.2-.662.276-1.374.206-2.096l-8.452-85.83-.004.014a49.13 49.13 0 0 1-1.59 4.396l.014.136 7.44 75.61.596 6.04a2.988 2.988 0 0 1-.288 1.604 3.127 3.127 0 0 1-.322.516 3.298 3.298 0 0 1-.232.266 2.578 2.578 0 0 1-.656.482c-.002.004-.006.004-.01.006a2.247 2.247 0 0 1-.666.228l-6.538 1.188-18.588 3.378-3.586.652-3.834.696c-.79.894-1.6 1.778-2.428 2.65l10.706-1.944v.004Z" fill="#D8E0E0"/><mask id="a" style="mask-type:alpha" maskUnits="userSpaceOnUse" x="65" y="48" width="54" height="105"><path d="M65.2 60.442c0 .174.008.35.026.526v.004l2.342 23.786 3.69 37.48 2.548 25.878c.046.452.144.878.292 1.274.02.054.046.106.068.16l.046.11a4.806 4.806 0 0 0 .202.404 4.423 4.423 0 0 0 .408.6c.05.062.102.12.154.18.032.038.066.074.102.11l.07.072c.044.044.088.086.134.126a3.383 3.383 0 0 0 .386.314.018.018 0 0 0 .014.006c.072.052.148.102.222.148a3.703 3.703 0 0 0 .482.254 3.777 3.777 0 0 0 1.054.298c.044.006.09.014.136.018.37.038.75.022 1.138-.048l.426-.076 10.706-1.944 24.484-4.45c.188-.036.374-.082.554-.14.024-.006.048-.016.072-.022h.004a2.54 2.54 0 0 1 .142-.054l.054-.02s.002-.002.002 0c.058-.024.112-.046.166-.072l.02-.008c.068-.03.134-.062.198-.094h.002l.188-.104a4.913 4.913 0 0 0 .822-.6c.014-.01.024-.022.036-.03l.002-.004h.002c.052-.048.104-.098.154-.15h.002l.064-.068.066-.07c.036-.038.068-.074.102-.112a3.43 3.43 0 0 0 .11-.13c.028-.032.054-.068.084-.104h.002l.002-.004a5.453 5.453 0 0 0 1.11-3.852l-8.582-87.14a5.078 5.078 0 0 0-.182-.946c-.454-1.544-1.602-2.672-3.016-3.028a1.552 1.552 0 0 0-.148-.032l-.134-.026a3.927 3.927 0 0 0-.268-.038c-.044-.004-.088-.008-.134-.014h-.006c-.042-.004-.082-.004-.124-.006a3.939 3.939 0 0 0-.9.064L90.83 51.406s0 .002-.002.002l-21.644 3.934h-.004a2.21 2.21 0 0 0-.158.032l-.004.002c-.048.008-.096.02-.142.032l-.008.002-.052.014a.423.423 0 0 0-.062.018l-.13.04c-.022.006-.042.014-.064.022l-.204.074-.002.002a2.911 2.911 0 0 0-.202.086c-.03.014-.062.028-.092.044-.03.014-.062.028-.09.046l-.008.004c-.076.04-.154.084-.23.128-.006.002-.014.004-.018.008-.016.008-.03.018-.044.026-.038.022-.074.046-.112.07-.046.03-.092.066-.138.098l-.074.052c-.04.03-.084.056-.124.088-.054.046-.112.092-.164.14a.77.77 0 0 0-.046.038l-.046.04c-.07.06-.136.124-.202.188-.014.01-.024.024-.038.038l-.042.046a.584.584 0 0 0-.068.074.637.637 0 0 0-.074.078c-.04.044-.08.09-.116.138l-.058.068c-.01.016-.022.028-.03.042a4.034 4.034 0 0 0-.26.364l-.026.04c-.016.026-.032.052-.046.08a1.2 1.2 0 0 0-.066.108c-.022.038-.044.074-.064.112-.016.026-.028.052-.042.08-.026.048-.05.096-.074.144-.032.066-.066.134-.096.204-.036.082-.07.164-.102.248-.004.01-.008.02-.014.03-.024.064-.046.13-.068.196-.01.036-.024.068-.032.104a5.54 5.54 0 0 0-.128.484c-.02.086-.036.174-.05.262l-.008.066a3.096 3.096 0 0 0-.032.272 4.614 4.614 0 0 0-.028.532l-.002-.004Z" fill="#E3F7FF"/></mask><g mask="url(#a)"><path d="M43.395 112.266c2.36-1.66 3.894-4.218 5.532-6.594 1.894-2.75 4.112-5.422 7.09-6.95 2.976-1.528 6.87-1.662 9.474.436 3.204 2.586 3.388 7.274 4.555 11.226.863 2.93 2.505 5.758 5.107 7.352 1.792 1.096 3.904 1.536 5.98 1.804 3.246.416 6.83.368 9.425-1.634 2.615-2.028 3.551-5.514 5.443-8.23 1.298-1.856 3.132-3.4 5.316-4.014 2.176-.614 4.702-.18 6.344 1.382 2.572 2.45 2.276 6.528 3.028 9.994 1.68 7.762 9.356 13.094 17.192 14.386 1.562.256 3.226.42 4.508 1.352 2.296 1.668 2.428 5.004 2.168 7.832-.18 1.972-.494 4.062-1.806 5.54-1.382 1.558-3.558 2.096-5.602 2.466-12.666 2.316-25.67 1.504-38.516.684-11.276-.722-22.643-1.456-33.533-4.462-1.73-.476-3.505-1.044-4.863-2.218-2.562-2.218-3.01-5.928-3.73-9.234a38.535 38.535 0 0 0-5.791-13.456c-.64-.936-4.444-5.288-3.605-6.174.41-.436 2.529-.044 3.157-.162a7.994 7.994 0 0 0 3.127-1.326Z" fill="#fff"/><path opacity=".64" d="M132.398 132.784c-1.282-.932-2.946-1.088-4.508-1.352-7.828-1.294-15.506-6.632-17.192-14.386-.754-3.466-.456-7.544-3.028-9.996a5.785 5.785 0 0 0-1.036-.78 21.63 21.63 0 0 1-1.366 3.18 15.404 15.404 0 0 1-2.542 3.46c-1.06 1.09-2.294 1.932-3.474 2.884-.608.49-1.414 1.212-2.252.862-.58-.242-.948-.836-1.21-1.372-.538-1.112-.82-2.384-.948-3.642-1.228 2.278-2.242 4.714-4.266 6.278-2.592 2.002-6.176 2.05-9.424 1.634-2.082-.266-4.194-.706-5.98-1.804-2.602-1.596-4.244-4.422-5.108-7.352-1.166-3.95-1.35-8.638-4.554-11.226-2.604-2.1-6.498-1.966-9.474-.436-2.992 1.518-5.21 4.19-7.105 6.94-1.64 2.376-3.171 4.934-5.531 6.594a8.121 8.121 0 0 1-3.114 1.33c-.63.12-2.747-.266-3.157.162-.84.88 2.965 5.238 3.605 6.174a38.589 38.589 0 0 1 5.791 13.456c.72 3.306 1.17 7.024 3.73 9.234 1.359 1.176 3.13 1.742 4.863 2.218 10.892 3.004 22.26 3.74 33.534 4.462 12.852.818 25.856 1.63 38.516-.684 2.044-.378 4.22-.908 5.602-2.466 1.314-1.478 1.624-3.576 1.806-5.54.25-2.834.12-6.162-2.176-7.83l-.002-.002Z" fill="#F3F3F3"/><path d="M60.342 116.192c12.072-6.888 12.272-18.232 19.124-20.25 12.202-3.606 12.404 18.298 13.94 22.718.862 2.468 2.346 4.852 4.656 6.068 9.528 5.002 20.95-9.184 22.122-10.022 2.53-1.8 6.176-2.632 8.668-.782 4.512 3.354 1.408 11.78 5.786 15.316 2.166 1.752 5.36 1.486 7.954.478 27.946-10.832 39.76 18.612 38.348 21.558-1.68 3.494-15.966.548-19.638 1.798-16.996 5.784-35.204 6.722-53.138 7.606-9.31.462-18.626.918-27.948 1.014-9.118.076-18.526-.136-27.012 3.22-5.546-10.762-8.178-22.752-10.474-34.638-.484-2.516-2.144-12.258 2.208-11.882 2.706.238 5.01.88 7.8.462 2.668-.398 5.261-1.324 7.608-2.664h-.004Z" fill="#F3F3F3"/><g opacity=".34"><path opacity=".34" d="M85.903 97.522c6.114 10.522-18.944 15.442-11.148 35.328 3.184 8.124 16.2 14.77 32.412-7.528a8.39 8.39 0 0 1 .472-.728c-3.11 1.344-6.444 1.77-9.572.126-2.31-1.216-3.801-3.598-4.655-6.068-1.273-3.628-1.633-19.052-8.487-22.444.372.4.7.836.98 1.314h-.002Z" fill="#A4A4A4"/><path opacity=".34" d="M98.188 127.338c-.178.548-.154 1.138.336 1.512.498.372 1.142.348 1.704.156 1.02-.344 1.974-1.126 2.562-2.018a8.67 8.67 0 0 0 .66-1.25c-1.344.136-2.698.016-4.024-.432-.52.606-1.002 1.274-1.242 2.032h.004Z" fill="#888"/></g><path d="M78.39 100.376c.167-.236.24-.544.087-.788a.764.764 0 0 0-.382-.302c-.492-.214-1.084-.116-1.56.13-.476.252-.868.636-1.252 1.024.384-.472.77-.966.92-1.556.142-.59-.04-1.306-.57-1.59-.486-.258-1.08-.096-1.582.126a7.62 7.62 0 0 0-2.656 1.958c-.476.542-1.41 1.598-1.4 2.404l8.392-1.406h.002Z" fill="#D8D8D8"/><path d="M75.9 99.862c-.125.29.465.302.627.282.372-.042.726-.246 1.002-.486.15-.128.278-.282.374-.442-.448-.118-.95-.02-1.368.202a3.271 3.271 0 0 0-.632.438s0 .006-.006.008l.002-.002Z" fill="#fff"/><path d="M71.894 100.678c1.025-.102 2.295-.316 2.99-1.158.407-.496.676-1.288.282-1.864a1.698 1.698 0 0 0-.47-.454 3.18 3.18 0 0 0-.64.218 7.62 7.62 0 0 0-2.656 1.958c-.279.316-.72.818-1.032 1.34.504.04 1.023.014 1.526-.042v.002Z" fill="#F3F3F3"/><path d="M100.653 116.752c.27-.378.386-.874.142-1.266-.138-.232-.364-.382-.614-.484-.79-.344-1.737-.186-2.501.208-.765.404-1.393 1.02-2.007 1.644.617-.756 1.236-1.548 1.477-2.498.23-.948-.065-2.096-.915-2.552-.778-.412-1.731-.154-2.535.204a12.236 12.236 0 0 0-4.26 3.142c-.763.87-2.263 2.562-2.246 3.856l13.459-2.256v.002Z" fill="#D8D8D8"/><path d="M96.66 115.926c-.198.466.746.484 1.006.452.598-.068 1.164-.394 1.608-.78.242-.206.444-.452.602-.71-.718-.19-1.524-.032-2.194.324a5.136 5.136 0 0 0-1.012.702s0 .01-.01.012ZM90.231 117.236c1.647-.164 3.683-.506 4.797-1.856.653-.796 1.084-2.066.451-2.99a2.728 2.728 0 0 0-.754-.728c-.353.07-.695.206-1.027.35a12.236 12.236 0 0 0-4.26 3.142c-.447.508-1.154 1.312-1.657 2.15.808.064 1.644.024 2.448-.066l.002-.002Z" fill="#F3F3F3"/></g><path d="M93.384 101.656c-1.804.21-3.57.052-5.232-.42-5.058-1.434-9.144-5.762-10.35-11.384a16.188 16.188 0 0 1-.252-1.516c-.966-8.266 4.554-15.708 12.332-16.618 2.058-.24 4.066 0 5.926.636a13.971 13.971 0 0 1 3.528 1.804c3.4 2.382 5.84 6.274 6.38 10.88.966 8.266-4.554 15.708-12.332 16.618Z" fill="#74A352"/><path d="M100.312 79.252 92.216 94.1l-5.764-5.618-2.266-2.208c.422-.408 2.238-1.984 3.9-.392l.946.944 2.554 2.548 7.056-9.774h.012c.304-.368.88-.862 1.66-.348h-.002Z" fill="#E8E8E8"/><path opacity=".31" d="M95.81 72.354c.05 4.78-2.61 9.952-7.378 13.526-.222.172-.452.336-.684.496-.62.426-1.254.814-1.894 1.16-2.624 1.424-5.398 2.188-8.05 2.316a16.188 16.188 0 0 1-.252-1.516c-.966-8.266 4.554-15.708 12.332-16.618 2.058-.24 4.066 0 5.926.636Z" fill="#BDDA97"/><path d="M88.23 86.028c-.158.122-.32.236-.484.348a20.915 20.915 0 0 1-2.134 1.286l-1.426-1.388c.422-.408 2.24-1.984 3.9-.39l.144.144Z" fill="#fff"/><path opacity=".26" d="M93.384 101.656c-1.804.21-3.57.052-5.232-.42a23.303 23.303 0 0 0 6.872-5.164c5.886-6.424 7.306-15.056 4.312-21.912 3.4 2.382 5.84 6.274 6.38 10.88.966 8.266-4.554 15.708-12.332 16.618v-.002Z" fill="#3E5C2E"/><path d="M89.016 53.622a42.539 42.539 0 0 0 1.51-2.492l-21.652 3.936c-2.446.446-4.222 2.97-3.956 5.634l2.686 27.244c.224-.408.458-.812.692-1.214l1.036-1.796-1.8-18.296-.62-6.298c-.146-1.466.836-2.86 2.18-3.104l5.222-.95 14.702-2.662v-.002Z" fill="#D8E0E0"/><path d="M69.014 57.252a.772.772 0 0 0 .074-.016l5.222-.95.004-.004-5.222.95a.284.284 0 0 0-.04.008c-.014.004-.026.008-.04.01l.002.002ZM64.9 60.418l.002.05c.004.08.004.158.014.238l2.342 23.78 3.69 37.478 2.548 25.88c.044.452.144.88.296 1.276.02.058.046.108.068.162.016.036.028.07.044.104.052.118.11.232.17.344.014.02.024.042.036.064l.006.01c.036.06.068.118.106.176.004.006.008.016.014.022.046.072.094.144.148.216l.068.09.066.086c.05.062.102.12.154.18.032.038.066.074.102.11.014.016.028.032.048.048a3.383 3.383 0 0 0 .452.398l.09.066a.018.018 0 0 0 .014.006 3.89 3.89 0 0 0 .232.154c.036.022.07.044.106.064.006.004.016.008.022.014a.7.7 0 0 0 .102.052c.048.026.098.05.15.074l.046.024.048.02a3.777 3.777 0 0 0 1.058.3l.132.016c.37.038.75.022 1.138-.048l.426-.076 10.706-1.946 24.484-4.448c.188-.036.374-.082.554-.14.024-.006.048-.016.072-.022h.004a2.54 2.54 0 0 1 .142-.054l.054-.02h.002a1.38 1.38 0 0 0 .054-.026l.112-.046.02-.008c.068-.03.134-.062.198-.094h.002l.188-.104a4.913 4.913 0 0 0 .822-.6c.014-.01.024-.022.036-.03.002-.002.002-.004.004-.004.052-.048.104-.098.154-.15h.002l.064-.068.066-.07c.036-.038.068-.074.102-.112.038-.042.074-.086.11-.13.028-.032.054-.068.084-.104h.002v-.004h.002s.008-.016.016-.024c.006-.006.01-.014.016-.022.076-.098.148-.2.216-.306a5.168 5.168 0 0 0 .326-.572l.004-.006c.128-.262.236-.536.32-.82.002-.002.002-.004.002-.006a5.411 5.411 0 0 0 .202-2.094l-8.452-85.816-.13-1.32a4.951 4.951 0 0 0-.184-.946c-.55-1.884-2.14-3.148-3.986-3.148-.06 0-.118.002-.18.004-.114.004-.226.016-.34.028-.06.008-.12.018-.18.028l-.038.006-.06.01-13.904 2.526-2.11.382-19.544 3.554c-.052.008-.106.02-.158.03a2.16 2.16 0 0 0-.154.038l-.154.042c-.05.014-.102.03-.152.048l-.204.074-.002.002a2.911 2.911 0 0 0-.202.086 1.105 1.105 0 0 0-.11.052c-.024.014-.048.024-.07.038h-.002a3.851 3.851 0 0 0-.422.244c-.044.028-.084.062-.128.092l-.074.052c-.04.028-.084.058-.122.088l-.15.118c-.108.09-.21.184-.31.288-.01.014-.024.024-.038.038l-.09.094c-.072.08-.142.16-.21.244l-.058.068c-.06.07-.114.142-.162.218-.042.062-.084.12-.124.182a.2.2 0 0 0-.03.046c-.008.014-.018.026-.024.042a5.221 5.221 0 0 0-.444.878c-.006.018-.016.038-.022.054-.016.038-.028.076-.042.114-.016.042-.028.084-.044.126a6.205 6.205 0 0 0-.216.9 5.65 5.65 0 0 0-.054 1.05v-.002Zm4.554 25.79-.126-1.27-1.33-13.506-.472-4.792-.62-6.298a2.935 2.935 0 0 1 .158-1.276 2.933 2.933 0 0 1 .254-.544l.002-.004c.042-.07.086-.136.132-.202.024-.032.048-.066.072-.096.022-.032.048-.062.074-.092a2.665 2.665 0 0 1 .618-.544c.016-.01.03-.02.044-.026.052-.032.106-.064.16-.092.024-.014.05-.024.074-.036.024-.014.048-.022.074-.032a.984.984 0 0 1 .138-.054 3.018 3.018 0 0 1 .376-.102l5.222-.95.004-.004 14.708-2.672 1.428-.26 14.254-2.59c1.08-.196 2.074.406 2.502 1.408.104.248.176.52.204.81l.526 5.356.014.136 7.448 75.604.596 6.04a2.92 2.92 0 0 1-.164 1.3 3.229 3.229 0 0 1-.134.314 2.448 2.448 0 0 1-.18.314 1.807 1.807 0 0 1-.138.196 3.298 3.298 0 0 1-.232.266 2.578 2.578 0 0 1-.656.482c-.002.004-.006.004-.01.006a2.247 2.247 0 0 1-.666.228l-6.538 1.188-18.588 3.378-3.586.652-3.834.696-3.066.558c-1.348.244-2.56-.752-2.706-2.218l-.674-6.846-1.628-16.536-3.732-37.892-.002.002Zm-.44-28.956a.772.772 0 0 0 .074-.016l5.222-.95.004-.004-5.222.95a.284.284 0 0 0-.04.008c-.014.004-.026.008-.04.01l.002.002Z" fill="#CDD5D4"/><path d="m89.54 149.848 24.484-4.45c.188-.036.374-.082.554-.14.024-.006.048-.016.072-.024.05-.016.098-.032.148-.052l.054-.02h.002a1.38 1.38 0 0 0 .054-.026c.112-.044.222-.094.33-.15h.002l.188-.104a4.913 4.913 0 0 0 .822-.6c.014-.01.026-.024.038-.036h.002c.052-.048.104-.098.154-.15.044-.044.09-.09.132-.138.074-.076.142-.158.21-.242.028-.032.054-.068.084-.104l.002-.004c.01-.016.024-.03.032-.046.076-.098.148-.2.216-.306a5.168 5.168 0 0 0 .326-.572l.004-.006c.128-.262.236-.536.32-.82.002-.002.002-.004.002-.006.2-.662.276-1.374.206-2.096l-8.452-85.83-.004.014a49.13 49.13 0 0 1-1.59 4.396l.014.136 7.44 75.61.596 6.04a2.988 2.988 0 0 1-.288 1.604 3.127 3.127 0 0 1-.322.516 3.298 3.298 0 0 1-.232.266 2.578 2.578 0 0 1-.656.482c-.002.004-.006.004-.01.006a2.247 2.247 0 0 1-.666.228l-6.538 1.188-18.588 3.378-3.586.652-3.834.696c-.79.894-1.6 1.778-2.428 2.65l10.706-1.944v.004ZM88.414 51.514c.808.808 1.052 1.048 2.036 1.838l-1.428.26-14.708 2.672-5.222.95a1.509 1.509 0 0 0-.292.076c-.03.006-.06.018-.088.028-.046.016-.092.032-.138.054a.59.59 0 0 0-.074.032 2.544 2.544 0 0 0-.234.128c-.014.006-.028.016-.044.026a2.242 2.242 0 0 0-.19.134c-.03.024-.062.048-.092.074-.12.102-.232.214-.336.336-.026.03-.05.062-.074.092-.024.03-.048.064-.072.096-.046.066-.09.132-.132.202l-.002.004c-.04.068-.08.136-.114.208a3.83 3.83 0 0 0-.178.452 2.979 2.979 0 0 0-.114 1.156l.62 6.298.466 4.796 1.472 15.182-2.196-2.196-2.356-23.72c-.006-.076-.014-.152-.018-.228l-.002-.05c-.002-.04-.004-.082-.002-.12a3.694 3.694 0 0 1 .004-.394 5.77 5.77 0 0 1 .052-.536c.014-.086.028-.17.046-.254.042-.22.098-.434.17-.646.016-.042.028-.084.044-.126.014-.038.026-.076.042-.114.006-.018.016-.038.022-.054l.066-.16c.108-.25.232-.49.378-.718l.054-.088c.04-.062.082-.12.124-.18a6.125 6.125 0 0 1 .43-.532l.09-.094c.014-.014.026-.024.038-.038a5.33 5.33 0 0 1 .31-.288c.048-.04.098-.08.15-.118.106-.084.214-.16.326-.232.136-.09.276-.172.422-.244.024-.014.048-.026.072-.038a.787.787 0 0 1 .11-.052c.068-.03.134-.06.202-.086l.002-.002.204-.074c.05-.018.102-.036.152-.048.05-.012.102-.028.154-.042.05-.016.102-.028.154-.038l19.702-3.586-.008.002Z" fill="#D8E0E0"/><path d="M61.797 81.56c1.528-.229 2.388-2.934 1.922-6.041-.467-3.108-2.082-5.442-3.61-5.213-1.527.23-2.387 2.934-1.92 6.042.466 3.108 2.081 5.441 3.608 5.212Z" fill="#CDD5D4"/><path d="m60.7 81.732 1.182-.218s1.266-2.564.954-4.74c-.312-2.176-1.096-5.06-2.328-5.92l-.426-.574-1.18.226L60.7 81.73v.002Z" fill="#CDD5D4"/><path d="m57.19 76.594.004.026c.35 2.174 1.226 3.95 2.216 4.718.42.328.862.474 1.29.392.194-.038.376-.118.542-.242.32-.23.59-.606.802-1.09.498-1.144.662-2.896.36-4.78-.43-2.678-1.658-4.748-2.91-5.084a1.302 1.302 0 0 0-.594-.026c-.362.07-.684.296-.952.644-.79 1.03-1.124 3.132-.76 5.442h.002Z" fill="#D8E0E0"/><path d="M72.415 53.77c3.098-.475 5.5-1.578 5.364-2.465-.135-.886-2.757-1.22-5.856-.745-3.099.474-5.5 1.578-5.365 2.464.136.887 2.758 1.22 5.857.746Z" fill="#CDD5D4"/><path d="M66.586 53.14s2.614.522 4.778.168c2.164-.354 5.424-.846 6.234-1.624l.144-.486s-.104-.954-.364-1.052c-.194-.074-.724.404-.724.404l-9.078 1.316s-1.182-.046-1.182.258c0 .44.192 1.018.192 1.018v-.002Z" fill="#CDD5D4"/><path d="m66.42 52.096.004.01a.68.68 0 0 0 .058.096h.002l.05.064c.64.664 3.222.816 6.07.318 2.332-.406 4.172-1.13 4.782-1.808.054-.062.098-.12.134-.182a.5.5 0 0 0 .048-.442c-.336-.806-3.106-1.026-6.182-.49-3.08.536-5.302 1.626-4.966 2.432v.002Z" fill="#D8E0E0"/><path d="M63.613 95.973c1.527-.229 2.387-2.934 1.921-6.042-.466-3.107-2.082-5.441-3.609-5.212-1.527.23-2.387 2.934-1.921 6.042.466 3.108 2.082 5.441 3.61 5.212Z" fill="#CDD5D4"/><path d="m62.518 96.144 1.182-.218s1.266-2.564.954-4.74c-.312-2.176-1.096-5.06-2.328-5.92l-.426-.574-1.18.226 1.798 11.224v.002Z" fill="#CDD5D4"/><path d="M62.516 96.097c1.448-.219 2.241-2.913 1.771-6.017-.47-3.103-2.025-5.442-3.473-5.223-1.448.22-2.241 2.913-1.771 6.017.47 3.104 2.025 5.443 3.473 5.223Z" fill="#D8E0E0"/><path opacity=".36" d="M103.834 105.936c-.508.692-1.008 1.36-1.528 2.042l1.528-2.042Z" fill="#B45F00"/><path d="m158.188 151.094-1.598 1.174-23.018 16.898c-1.62-3.936-1.882-6.586-2.578-8.272l-.002-.004c-.666-1.598-1.722-2.324-4.714-2.456h-.012c-3.496-.154-7.67-2.01-11.718-4.54-7.014-4.376-13.646-10.762-15.712-13.736-2.632-3.792-6.78-6.388-9.088-7.956-1.046-.714-1.714-1.216-1.7-1.524.034-.618.75-1.12 1.866-1.454h.002c.02-.004.116-.034.284-.082 1.694-.44 4.16-.53 6.542-.13 3.5.592 7.392 4.198 10.608 6.81 2.128 1.722 3.96 3.012 5.186 2.704 3.082-.778.522-6.792-.124-8.084h-.002c-.206-.416-.91-1.922-1.842-3.904-.9-1.914-2.016-4.272-3.112-6.516-1.304-2.676-2.58-5.202-3.424-6.634-2.296-3.882-10.868-17.238-11.306-22.534-.358-4.322 1.876-4.888 2.874-4.57.904.286 5.124 6.006 7.46 9.342.304.432.572.822.8 1.158 1.006 1.482 4.226 5.374 7.156 8.86h.002c1.444 1.714 2.818 3.332 3.824 4.514.99 1.16 1.628 1.902 1.628 1.902s.164-.51.534-1.208c1.006-1.914 3.536-5.242 8.356-3.322h.004a13.13 13.13 0 0 1 2.016 1.042s.084-.096.244-.254l.072-.07.062-.062c.082-.08.174-.166.278-.264.08-.072.164-.146.256-.226 1.118-.96 3.146-2.344 5.354-2.144 1.898.168 3.114.882 3.87 1.58.002.002.004.004.004.008.82.758 1.092 1.502 1.092 1.502s.236-.216.646-.474c.786-.498 2.204-1.15 3.828-.768 1.332.314 2.528 1.116 3.502 2.042a12.133 12.133 0 0 1 1.966 2.43c.934 1.534 6.126 9.988 7.93 21.836.104.666.194 1.342.27 2.024.432 3.806.684 6.998.976 9.89.04.392.078.77.112 1.13.038.38.07.744.1 1.082.176 2.004.248 3.266.248 3.266l-.002-.006Z" fill="#D58500"/><path opacity=".36" d="m157.839 146.748-26.848 14.142-.012.008c-.664-1.6-1.719-2.328-4.713-2.46 8.368-5.808 10.036-26.25 9.698-33.8l.502-2.564s13.855 7.118 20.015 11.634c.104.666.194 1.342.27 2.024.432 3.806.684 6.998.976 9.89.04.392.078.77.112 1.13v-.004Z" fill="#B45F00"/><path opacity=".18" d="M118.146 141.442c-.334 3.23-4.638 1.494-8.366-1.24-3.728-2.734-10.438-8.698-19.864-10.992.02-.004.116-.032.284-.08 1.694-.44 4.16-.53 6.542-.126 5.814.984 12.702 10.294 15.79 9.518 3.084-.776.522-6.8-.122-8.088-.206-.412-.91-1.918-1.842-3.902.182.092.336.204.458.328 2.736 2.81 7.456 11.352 7.122 14.582h-.002Z" fill="#B45F00"/><path opacity=".4" d="M114.536 153.89c-7.014-4.382-13.644-10.768-15.708-13.744-2.63-3.792-6.778-6.39-9.086-7.96 5.124.062 8.388 1.47 11.834 5.778 4.97 6.214 5.152 7.22 8.202 11.184 2.486 3.23 3.814 3.708 4.756 4.742h.002ZM107.456 120.014c-1.302-2.676-2.578-5.202-3.422-6.634-2.294-3.884-10.86-17.242-11.296-22.54-.356-4.322 1.878-4.888 2.876-4.57-.498 4.474-.746 8.698 4.17 15.35 4.76 6.44 7.588 14.36 7.672 18.394Z" fill="#E2A040"/><path opacity=".36" d="M94.55 87.4c-1.82 2.878.884 6.23 3.138 5.182 0 0-1.394.404-2.57-1.838S94.55 87.4 94.55 87.4ZM95.3 134.736c-.588-2.216-2.786-3.508-5.556-3.472 0 0 2.024-1.41 3.722-.05 1.696 1.36 1.836 3.522 1.836 3.522H95.3ZM115.994 139.952c-.746 3.976-6.214-1.492-8.648-4.138 2.124 1.724 3.956 3.014 5.184 2.706 3.082-.776.524-6.792-.12-8.084.122.156 4.32 5.596 3.584 9.516Z" fill="#B45F00"/><path opacity=".4" d="M111.022 105.638c-9.692-.232-7.952-6.942-7.952-10.02.304.432.572.822.8 1.158 1.006 1.482 4.222 5.376 7.152 8.862Z" fill="#E2A040"/><path opacity=".36" d="M148.55 146.85s3.87-10.134 3.23-21.312c-.498-8.698-2.486-11.68-5.2-16.1h.002a12.133 12.133 0 0 1 1.966 2.43c.934 1.534 6.126 9.988 7.93 21.836.104.666.194 1.342.27 2.024.432 3.806.684 6.998.976 9.89.04.392.078.77.112 1.13.038.38.07.744.1 1.082l-9.39-.98h.004ZM118.474 115.922c-1.25.078-2.232-2.314-3.634-5.766.99 1.16 1.628 1.902 1.628 1.902s.164-.51.534-1.208c.112.444.41 1.444.98 2.014.746.746 1.74 2.982.492 3.06v-.002ZM130.408 112.864c-.654.676-.994-.994-1.492-1.988-.248-.498-.928-1.518-2.306-2.756.252.136.508.286.768.45 0 0 .084-.096.244-.254.002.002.002.004.004.004 0 0 .022-.028.068-.074l.062-.062c.11-.114.288-.296.526-.512l.008.022c.072.218.674 1.986 1.372 2.684.746.746 1.402 1.812.746 2.486ZM139.852 111.372c-.276-.412-.992-2.48-2.334-4.234.82.758 1.092 1.502 1.092 1.502s.236-.216.646-.474c0 0 .348 1.22 1.59 2.462 1.024 1.024-.498 1.492-.994.746v-.002Z" fill="#B45F00"/><path d="M182.522 185.57c-1.966 8.098-18.1 12.014-31.934 7.396-2.84-.944-5.584-2.252-8.088-3.956-5.466-3.724-8.84-15.892-11.36-23.308-.422-1.242-.82-2.354-1.2-3.268-1.226-2.948.862-8.308 3.418-18.756.836-3.414 1.26-7.172 1.462-10.582.358-6.06.012-11.024.012-11.024s9.218 6.902 16.202 12.898c3.622 3.106 6.638 5.968 7.464 7.498 3.622 6.726 5.89 11.602 6.828 14.102.936 2.5 5.602 8.054 5.614 10.712.014 2.656.638 1.406 2.202 4.22s10.376 9.962 9.382 14.07l-.002-.002Z" fill="#575771"/><path opacity=".25" d="M182.522 185.57c-.654 2.694-2.876 4.926-6.06 6.532-.274.14-.552.27-.838.4-4.72 2.118-11.258 2.968-17.902 2.096a37.965 37.965 0 0 1-7.136-1.63c-2.84-.944-5.584-2.252-8.088-3.956-5.466-3.724-8.84-15.892-11.36-23.308-.422-1.242-.82-2.354-1.2-3.268-1.226-2.948.862-8.308 3.418-18.756.836-3.414 1.26-7.172 1.462-10.582.358-6.06.012-11.024.012-11.024s9.218 6.902 16.202 12.898c3.622 3.106 6.638 5.968 7.464 7.498 3.04 5.646 5.128 9.988 6.272 12.714.218.522.402.986.554 1.386.104.276.252.59.434.93 1.474 2.758 5.17 7.418 5.18 9.782.014 2.656.638 1.406 2.202 4.22s10.376 9.962 9.382 14.07l.002-.002Z" fill="#2B2B37"/><path opacity=".4" d="M121.184 109.83c-1.102 1.896 2.388 2.202 4.38 1.44.584-.216 1.278-.576 1.244-1.05-.024-.624-1.026-1.1-1.846-1.33-1.544-.408-3.204-.074-3.776.938l-.002.002ZM132.134 108.116c-1.052 1.394 2.252 1.75 4.142 1.244.554-.144 1.212-.39 1.182-.75-.02-.472-.968-.868-1.744-1.07-1.46-.362-3.036-.168-3.582.576h.002ZM142.374 108.682c-.972.984 1.094 1.724 2.424 1.574.388-.04.868-.15.922-.444.086-.384-.446-.836-.906-1.104-.87-.494-1.932-.552-2.44-.026Z" fill="#E2A040"/><path opacity=".25" d="M182.522 185.57c-1.966 8.098-18.1 12.014-31.934 7.396 1.784-4.418 4.136-10.676 4.466-13.66.542-4.884-4.268-5.058-1.916-12.088 2.352-7.03 3.154-15.754-2.102-32.236v-.012c3.618 3.106 6.636 5.968 7.46 7.498 3.622 6.726 5.89 11.602 6.828 14.102h.002c.936 2.502 5.6 8.054 5.612 10.712.014 2.656.638 1.406 2.202 4.22.974 1.75 4.75 5.176 7.228 8.508 1.506 2.024 2.53 4.008 2.154 5.562v-.002Z" fill="#2B2B37"/><path opacity=".25" d="M180.368 180.008c-17.644-1.202-14.668-9.238-15.044-23.438h.002c.936 2.502 5.6 8.054 5.612 10.712.014 2.656.638 1.406 2.202 4.22.974 1.75 4.75 5.176 7.228 8.508v-.002Z" fill="#2B2B37"/><path opacity=".14" d="M142.534 152.452c-.904 3.588-3.32 6.698-5.918 9.178-1.622 1.556-3.466 2.962-5.476 4.074-.422-1.242-.82-2.354-1.2-3.268-1.226-2.948.862-8.308 3.418-18.756.836-3.414 1.26-7.172 1.462-10.582 1.874 2.09 3.568 4.35 4.946 6.768 2.16 3.766 3.848 8.428 2.768 12.588v-.002Z" fill="#A4A4A4"/><path d="M176.462 192.102c-.274.14-.552.27-.838.4-3.852-7.248-9.054-15.148-11.254-17.872-.052-.05-.092-.116-.144-.17-1.698 8.218-4.1 15.008-6.504 20.136-.36-.048-.72-.1-1.084-.156 3.104-6.66 5.612-15.004 6.798-20.894-6.46-7.05-17.37-12.8-17.474-12.866-1.064-.638-2.232-1.442-3.322-1.37-.566.044-.79-1.314-.226-1.36 1.178-.072 2.384.626 3.526 1.324.114.064 11.738 6.582 17.758 12.99.996-5.418 1.484-11.196 1.072-17.084.218.522.402.986.554 1.386.104.276.252.59.434.93.146 4.302-.15 8.542-.758 12.588a104.394 104.394 0 0 1-.524 3.072c.206.232.406.478.608.736 2.294 2.94 7.518 10.874 11.378 18.208v.002Z" fill="#2B2B37"/><path d="M68.75 47.25c1.256 9.718-4.936 18.526-13.832 19.676-2.898.374-5.728-.11-8.266-1.27-5.198-2.38-9.186-7.588-10.086-14.048a6.314 6.314 0 0 1-.026-.192c-1.256-9.718 4.934-18.526 13.83-19.676 3.568-.462 7.028.38 9.976 2.182 1.046.64 2.03 1.4 2.928 2.268 2.878 2.772 4.904 6.628 5.478 11.064l-.002-.004Z" fill="#E3F7FF"/><path d="M68.75 47.25c1.256 9.718-4.936 18.526-13.832 19.676-2.898.374-5.728-.11-8.266-1.27-5.198-2.38-9.186-7.588-10.086-14.048a6.314 6.314 0 0 1-.026-.192c-1.256-9.718 4.934-18.526 13.83-19.676 3.568-.462 7.028.38 9.976 2.182 1.046.64 2.03 1.4 2.928 2.268 2.878 2.772 4.904 6.628 5.478 11.064l-.002-.004Z" fill="#888"/><path d="M70.44 46.882c1.256 9.718-4.936 18.526-13.832 19.676-2.898.374-5.728-.11-8.266-1.27-5.198-2.38-9.186-7.588-10.086-14.048a6.315 6.315 0 0 1-.026-.192c-1.256-9.718 4.934-18.526 13.83-19.676 3.568-.462 7.028.38 9.976 2.182 1.046.64 2.03 1.4 2.928 2.268 2.878 2.772 4.904 6.628 5.478 11.064l-.002-.004Z" fill="#D9D9D9"/><path d="M56.895 58.346c4.565-1.007 7.332-6.055 6.18-11.276-1.151-5.22-5.785-8.636-10.35-7.63-4.565 1.008-7.332 6.056-6.18 11.277 1.152 5.22 5.786 8.636 10.35 7.63Z" fill="#2B2B37"/><path fill-rule="evenodd" clip-rule="evenodd" d="M53.742 45.136c1.78-.284 3.576-.42 5.376.342 1.078.458 1.842 1.288 2.14 2.56.468 1.994-.552 3.296-2.234 3.432-.712.034-1.43.014-2.146-.058-1.258-.084-2.404.274-3.5.854-.526.278-1.022.626-1.584.818-1.056.362-2.288.174-2.952-.96-.858-1.418-.742-3.27.282-4.418 1.252-1.448 2.892-2.086 4.622-2.572l-.004.002Z" fill="#fff"/><path fill-rule="evenodd" clip-rule="evenodd" d="M59.076 48.012c.17.724-.13 1.438-.656 1.566-.466.112-1.066-.402-1.216-1.044-.164-.702.126-1.386.648-1.526.522-.14 1.058.298 1.222 1.004h.002ZM52.126 49.546c.17.724-.13 1.438-.656 1.566-.466.112-1.066-.402-1.216-1.044-.164-.702.126-1.386.648-1.526.522-.14 1.058.298 1.222 1.004h.002Z" fill="#464558"/><path opacity=".35" d="M62.036 33.552c.296 2.796-.232 5.766-1.502 8.538a18.968 18.968 0 0 1-2.114 3.522 19.258 19.258 0 0 1-3.19 3.302c-2.184 1.782-4.594 2.962-7.01 3.546-.688.168-1.378.288-2.064.356-2.836.294-5.59-.238-7.9-1.576a6.315 6.315 0 0 1-.026-.192c-1.256-9.718 4.934-18.526 13.83-19.676 3.568-.462 7.028.38 9.976 2.182v-.002Z" fill="#fff"/><path d="M150.87 25.646c1.564 12.104-6.15 23.078-17.23 24.51-3.61.466-7.136-.138-10.298-1.582-6.476-2.964-11.444-9.454-12.564-17.5a8.67 8.67 0 0 1-.034-.24c-1.564-12.104 6.148-23.078 17.228-24.51 4.444-.574 8.756.474 12.426 2.716a21.011 21.011 0 0 1 3.646 2.824c3.584 3.452 6.11 8.256 6.824 13.782h.002Z" fill="#E3F7FF"/><path d="M150.87 25.646c1.564 12.104-6.15 23.078-17.23 24.51-3.61.466-7.136-.138-10.298-1.582-6.476-2.964-11.444-9.454-12.564-17.5a8.67 8.67 0 0 1-.034-.24c-1.564-12.104 6.148-23.078 17.228-24.51 4.444-.574 8.756.474 12.426 2.716a21.011 21.011 0 0 1 3.646 2.824c3.584 3.452 6.11 8.256 6.824 13.782h.002Z" fill="#888"/><path d="M152.976 25.188c1.564 12.104-6.15 23.078-17.23 24.51-3.61.466-7.136-.138-10.298-1.582-6.476-2.964-11.444-9.454-12.564-17.5a8.663 8.663 0 0 1-.034-.24c-1.564-12.104 6.148-23.078 17.228-24.51 4.444-.574 8.756.474 12.426 2.716a21.011 21.011 0 0 1 3.646 2.824c3.584 3.452 6.11 8.256 6.824 13.782h.002Z" fill="#D9D9D9"/><path d="M136.113 39.462c5.687-1.254 9.134-7.543 7.699-14.046-1.434-6.503-7.207-10.758-12.894-9.503-5.686 1.254-9.133 7.543-7.699 14.046 1.435 6.503 7.208 10.758 12.894 9.503Z" fill="#2B2B37"/><path fill-rule="evenodd" clip-rule="evenodd" d="M132.176 23.012c2.216-.354 4.456-.524 6.698.428 1.342.57 2.294 1.606 2.664 3.19.582 2.484-.688 4.106-2.784 4.276-.888.042-1.78.016-2.672-.072-1.566-.104-2.994.34-4.36 1.064-.656.346-1.274.78-1.974 1.02-1.316.45-2.85.218-3.678-1.196-1.07-1.768-.924-4.074.35-5.504 1.56-1.804 3.602-2.598 5.756-3.204v-.002Z" fill="#fff"/><path fill-rule="evenodd" clip-rule="evenodd" d="M138.818 26.596c.21.902-.162 1.792-.816 1.95-.58.14-1.328-.502-1.514-1.3-.204-.874.158-1.726.808-1.9.65-.176 1.318.372 1.524 1.25h-.002ZM130.162 28.504c.21.902-.162 1.792-.816 1.95-.582.14-1.328-.502-1.514-1.3-.204-.874.158-1.726.808-1.9.65-.176 1.318.372 1.522 1.25Z" fill="#464558"/><path opacity=".35" d="M142.506 8.582c.368 3.482-.288 7.182-1.872 10.634-.702 1.522-1.58 3-2.634 4.388a24.086 24.086 0 0 1-3.972 4.114c-2.72 2.22-5.724 3.69-8.732 4.418-.858.208-1.716.358-2.57.442-3.532.366-6.964-.296-9.84-1.964a8.663 8.663 0 0 1-.034-.24C111.288 18.27 119 7.296 130.08 5.864c4.444-.574 8.756.474 12.426 2.716v.002Z" fill="#fff"/><path d="M159.174 81.528c.85 6.568-3.336 12.522-9.348 13.3a10.22 10.22 0 0 1-5.588-.858c-3.514-1.608-6.21-5.13-6.816-9.496l-.018-.13c-.85-6.568 3.336-12.522 9.348-13.3 2.412-.312 4.75.256 6.742 1.474.708.432 1.372.946 1.978 1.532 1.946 1.874 3.314 4.48 3.702 7.478Z" fill="#E3F7FF"/><path d="M159.174 81.528c.85 6.568-3.336 12.522-9.348 13.3a10.22 10.22 0 0 1-5.588-.858c-3.514-1.608-6.21-5.13-6.816-9.496l-.018-.13c-.85-6.568 3.336-12.522 9.348-13.3 2.412-.312 4.75.256 6.742 1.474.708.432 1.372.946 1.978 1.532 1.946 1.874 3.314 4.48 3.702 7.478Z" fill="#888"/><path d="M160.318 81.28c.85 6.568-3.336 12.522-9.348 13.3a10.22 10.22 0 0 1-5.588-.858c-3.514-1.608-6.21-5.13-6.816-9.496l-.018-.13c-.85-6.568 3.336-12.522 9.348-13.3 2.412-.312 4.75.256 6.742 1.474.708.432 1.372.946 1.978 1.532 1.946 1.874 3.314 4.48 3.702 7.478Z" fill="#D9D9D9"/><path d="M151.153 89.045c3.085-.68 4.955-4.093 4.176-7.62-.778-3.53-3.91-5.838-6.995-5.157-3.085.68-4.954 4.092-4.176 7.62.778 3.529 3.91 5.837 6.995 5.157Z" fill="#2B2B37"/><path fill-rule="evenodd" clip-rule="evenodd" d="M149.032 80.098c1.202-.192 2.418-.284 3.634.232.728.308 1.244.872 1.446 1.73.316 1.348-.374 2.228-1.51 2.32-.482.022-.966.01-1.45-.04-.85-.056-1.624.184-2.366.576-.356.188-.692.424-1.072.554-.714.244-1.546.118-1.996-.648-.58-.96-.5-2.21.19-2.986.846-.978 1.954-1.41 3.124-1.738Z" fill="#fff"/><path fill-rule="evenodd" clip-rule="evenodd" d="M152.636 82.042c.114.49-.088.972-.444 1.058-.316.076-.72-.272-.822-.706-.11-.474.086-.936.438-1.032.354-.096.714.202.826.678l.002.002ZM147.94 83.078c.114.49-.088.972-.444 1.058-.316.076-.72-.272-.822-.706-.11-.474.086-.936.438-1.032.354-.096.714.202.826.678l.002.002Z" fill="#464558"/><path opacity=".35" d="M154.636 72.268c.2 1.89-.156 3.896-1.016 5.77a12.97 12.97 0 0 1-3.586 4.612c-1.476 1.204-3.106 2.002-4.738 2.396-.466.114-.932.194-1.394.24-1.916.198-3.778-.16-5.34-1.066l-.018-.13c-.85-6.568 3.336-12.522 9.348-13.3 2.412-.312 4.75.256 6.742 1.474l.002.004Z" fill="#fff"/><path d="M53.286 123.264c.892 6.894-3.502 13.142-9.812 13.958a10.72 10.72 0 0 1-5.864-.902c-3.688-1.688-6.518-5.384-7.154-9.966a1.583 1.583 0 0 1-.018-.136c-.892-6.894 3.502-13.142 9.812-13.958 2.532-.328 4.986.27 7.078 1.548.742.454 1.44.992 2.076 1.608 2.042 1.966 3.48 4.702 3.886 7.848h-.004Z" fill="#E3F7FF"/><path d="M53.286 123.264c.892 6.894-3.502 13.142-9.812 13.958a10.72 10.72 0 0 1-5.864-.902c-3.688-1.688-6.518-5.384-7.154-9.966a1.583 1.583 0 0 1-.018-.136c-.892-6.894 3.502-13.142 9.812-13.958 2.532-.328 4.986.27 7.078 1.548.742.454 1.44.992 2.076 1.608 2.042 1.966 3.48 4.702 3.886 7.848h-.004Z" fill="#888"/><path d="M54.486 123.004c.892 6.894-3.502 13.142-9.812 13.958a10.72 10.72 0 0 1-5.864-.902c-3.688-1.688-6.518-5.384-7.154-9.966a1.583 1.583 0 0 1-.018-.136c-.892-6.894 3.502-13.142 9.812-13.958 2.532-.328 4.986.27 7.078 1.548.742.454 1.44.992 2.076 1.608 2.042 1.966 3.48 4.702 3.886 7.848h-.004Z" fill="#D9D9D9"/><path d="M44.865 131.149c3.238-.714 5.2-4.296 4.383-8-.817-3.704-4.104-6.128-7.342-5.414-3.238.715-5.2 4.296-4.384 8.001.817 3.704 4.105 6.127 7.343 5.413Z" fill="#2B2B37"/><path fill-rule="evenodd" clip-rule="evenodd" d="M42.64 121.764c1.262-.202 2.538-.298 3.814.244.764.324 1.306.914 1.518 1.816.332 1.416-.392 2.338-1.586 2.434-.506.024-1.014.01-1.522-.042-.892-.06-1.706.194-2.482.606-.374.198-.726.444-1.124.58-.75.256-1.622.124-2.094-.682-.61-1.006-.526-2.32.2-3.134.888-1.028 2.052-1.48 3.278-1.824l-.002.002Z" fill="#fff"/><path fill-rule="evenodd" clip-rule="evenodd" d="M46.422 123.804c.12.514-.092 1.02-.466 1.11-.33.08-.756-.286-.862-.74-.116-.498.09-.982.46-1.082.37-.1.75.212.868.712ZM41.494 124.892c.12.514-.092 1.02-.466 1.11-.33.08-.756-.286-.862-.74-.116-.498.09-.982.46-1.082.37-.1.75.212.868.712Z" fill="#464558"/><path opacity=".35" d="M48.524 113.546c.21 1.982-.164 4.09-1.066 6.056-.4.868-.9 1.708-1.5 2.498a13.729 13.729 0 0 1-2.262 2.342c-1.55 1.264-3.26 2.1-4.974 2.516a10.73 10.73 0 0 1-1.464.252c-2.012.208-3.966-.168-5.604-1.118a1.583 1.583 0 0 1-.018-.136c-.892-6.894 3.502-13.142 9.812-13.958 2.532-.328 4.986.27 7.078 1.548h-.002Z" fill="#fff"/></svg>