<svg width="200" height="200" viewBox="0 0 200 200" fill="none" xmlns="http://www.w3.org/2000/svg">
    <path d="M49.918 117.822C49.918 117.822 48.6 117.612 48.25 118.02C46.71 119.816 47.454 120.618 47.454 120.618L55.516 135.276L65.172 141.768C65.172 141.768 66.0479 141.946 66.0399 140.612C66.0179 139.52 49.92 117.824 49.92 117.824L49.918 117.822Z" fill="#2B2B37"/>
    <path d="M72.3723 135.424L63.0663 142.434L46.3883 133.216L47.6823 124.432C49.1683 122.076 50.0123 119.696 49.4203 117.496C49.2643 116.916 49.1103 116.34 48.9603 115.77C48.9583 115.77 48.9583 115.768 48.9583 115.768C48.7343 114.92 48.5203 114.078 48.3223 113.232C48.3223 113.232 48.3223 113.226 48.3203 113.22C48.3203 113.218 48.3203 113.212 48.3183 113.204C47.2243 108.496 45.5403 101.986 46.4563 94.6601C47.4823 86.4461 46.7123 80.0281 43.8023 74.2301C43.5763 73.5481 43.4423 73.0341 43.4423 72.7261C43.4443 71.3081 45.1423 71.3021 46.8643 71.9541C47.7343 72.2821 48.6122 72.7841 49.2802 73.3541C51.0762 74.8941 52.8743 76.4341 54.1583 79.5161C55.1843 81.9761 55.9243 88.5221 57.1643 93.4381C57.9003 96.3621 58.8103 98.7081 60.0623 99.2841C60.5243 99.4981 61.0103 99.0141 61.4743 98.1821C61.5363 98.2341 61.6003 98.2761 61.6643 98.3161C62.5183 98.8161 63.7183 96.7061 64.6903 94.4941L65.8923 100.892L66.3782 103.474L69.8262 121.84L72.3762 135.43L72.3723 135.424Z" fill="#D58500"/>
    <path opacity="0.36" d="M66.3762 103.47C65.6122 105.198 64.4962 106.396 62.8842 106.452C57.6122 106.632 56.9122 101.19 57.1622 93.4341C57.8982 96.3581 58.8082 98.7041 60.0602 99.2801C60.5222 99.4941 61.0082 99.0101 61.4722 98.1781C61.5342 98.2301 61.5982 98.2721 61.6622 98.3121C62.5162 98.8121 63.7162 96.7021 64.6882 94.4901L65.8902 100.888L66.3762 103.47Z" fill="#B45F00"/>
    <path opacity="0.18" d="M72.3722 135.424L63.0662 142.434L46.3882 133.216L47.6822 124.432C49.1682 122.076 50.0122 119.696 49.4202 117.496C49.2642 116.916 49.1102 116.34 48.9602 115.77C51.5922 120.33 56.9182 122.092 60.8002 122.622C62.3542 122.836 66.0042 122.414 69.8242 121.834L72.3742 135.424H72.3722Z" fill="#B45F00"/>
    <path opacity="0.36" d="M70.3184 141.586L61.0124 148.596L44.3344 139.378L45.6283 130.594C47.1143 128.238 47.9584 125.858 47.3664 123.658C47.2104 123.078 47.0564 122.502 46.9064 121.932C49.5384 126.492 54.8644 128.254 58.7464 128.784C60.3004 128.998 63.9504 128.576 67.7704 127.996L70.3204 141.586H70.3184Z" fill="#B45F00"/>
    <path opacity="0.18" d="M65.8905 100.886C65.5225 104.116 64.4965 106.936 62.0785 107.26C56.1365 108.054 55.3565 101.04 54.9265 91.5781C54.4125 80.2821 51.3325 74.8921 46.8625 71.9521C47.7325 72.2801 48.6105 72.7821 49.2785 73.3521C51.0745 74.8921 52.8725 76.4321 54.1565 79.5141C55.7925 83.4361 56.7065 97.7441 60.0605 99.2801C61.8465 100.098 63.9565 90.5861 63.9565 90.5861L65.8905 100.888V100.886Z" fill="#B45F00"/>
    <path opacity="0.4" d="M48.4323 101.81C46.9683 107.494 48.2603 112.768 48.3163 113.202C47.2223 108.494 45.5383 101.984 46.4543 94.6581C47.4803 86.4441 46.7103 80.0261 43.8003 74.2281C47.2243 77.4581 48.7463 80.7581 49.5343 85.9281C50.3223 91.0981 49.8943 96.1241 48.4303 101.808L48.4323 101.81Z" fill="#E2A040"/>
    <path opacity="0.36" d="M46.4602 80.1041C47.7382 78.2521 47.2082 75.4821 45.2782 72.9821C45.2782 72.9821 47.7382 73.9881 47.8722 76.3401C48.0062 78.6941 46.4622 80.1041 46.4622 80.1041H46.4602Z" fill="#B45F00"/>
    <path opacity="0.4" d="M55.3384 104.254C54.2324 103.158 52.1864 102.36 51.1864 103.294C50.1324 104.274 51.1664 106.166 51.9184 107.24C52.6724 108.316 54.7864 110.672 56.0364 109.006C57.1164 107.478 56.6264 105.87 55.3384 104.252V104.254Z" fill="#E2A040"/>
    <path d="M113.632 56.53V56.54C113.616 56.806 113.584 57.084 113.53 57.366C113.4 58.07 113.144 58.806 112.732 59.538C112.254 60.392 110.412 62.56 108.82 64.37C107.468 65.91 106.294 67.192 106.294 67.192L105.478 58.458L105.33 56.89C108.87 54.316 111.768 52.384 112.734 53.35C113.314 53.93 113.722 55.114 113.636 56.53H113.632Z" fill="#D58500"/>
    <path d="M114.986 81.4279C114.064 82.8739 112.208 84.944 110.728 86.518H110.726C109.514 87.806 108.55 88.76 108.55 88.76L107.838 81.158L107.584 78.458C111.124 75.884 114.022 73.95 114.988 74.916C115.286 75.216 115.54 75.7399 115.704 76.3839C115.752 76.5719 115.792 76.7719 115.822 76.9779H115.824C116.03 78.3539 115.854 80.0739 114.988 81.4299L114.986 81.4279Z" fill="#D58500"/>
    <path d="M115.7 89.562C115.694 89.818 115.674 90.09 115.636 90.37C115.476 91.562 115.032 92.878 114.504 93.648C113.136 95.64 110.122 97.94 108.526 99.088C107.892 99.54 107.482 99.812 107.482 99.812L108 91.924L108.108 90.264C111.72 88.432 114.648 87.092 115.388 88.116C115.62 88.434 115.712 88.956 115.702 89.564L115.7 89.562Z" fill="#D58500"/>
    <path opacity="0.36" d="M113.634 56.53V56.54C112.572 55.342 110.654 55.162 108.394 56.54C107.464 57.106 106.404 57.818 105.478 58.458L105.33 56.89C108.87 54.314 111.768 52.384 112.734 53.35C113.314 53.93 113.722 55.114 113.636 56.53H113.634Z" fill="#B45F00"/>
    <path opacity="0.4" d="M113.53 57.368C113.4 58.072 113.144 58.808 112.732 59.54C112.254 60.394 110.412 62.562 108.82 64.372C108.82 64.372 108.942 61.692 109.564 59.51C110.078 57.714 112.132 55.146 113.53 57.37V57.368Z" fill="#E2A040"/>
    <path opacity="0.36" d="M115.702 76.384C114.954 75.938 113.36 75.334 111.592 77.56C110.57 78.846 108.988 80.224 107.836 81.16L107.582 78.46C111.122 75.886 114.02 73.952 114.986 74.918C115.284 75.218 115.538 75.742 115.702 76.386V76.384Z" fill="#B45F00"/>
    <path opacity="0.4" d="M114.986 81.4279C114.064 82.8739 112.208 84.944 110.728 86.518H110.726C110.656 86.518 110.618 86.516 110.618 86.516C110.618 86.516 111.62 81.328 112.562 79.158C113.502 76.988 114.186 76.706 115.82 76.968C115.82 76.968 115.82 76.9699 115.822 76.9759H115.824C116.03 78.3519 115.854 80.0719 114.988 81.4279H114.986Z" fill="#E2A040"/>
    <path opacity="0.4" d="M115.634 90.37C115.474 91.562 115.03 92.878 114.502 93.648C113.134 95.64 110.12 97.9399 108.524 99.0879C108.532 99.0579 108.536 99.0419 108.536 99.0419C108.536 99.0419 110.71 93.764 112.096 91.848C113.446 89.98 114.172 89.812 115.634 90.37Z" fill="#E2A040"/>
    <path d="M117.39 68.888C117.354 69.226 117.29 69.568 117.202 69.902C116.948 70.91 116.504 71.848 116.028 72.416C115.632 72.886 114.672 73.786 113.528 74.812C112.624 75.62 111.608 76.504 110.668 77.312C110.032 77.858 109.43 78.374 108.922 78.804C108.028 79.564 107.422 80.07 107.422 80.07L107.348 79.466L106.35 71.514L106.132 69.768C110.866 67.194 114.63 65.012 116.11 65.646C117.258 66.136 117.55 67.484 117.388 68.89L117.39 68.888Z" fill="#D58500"/>
    <path opacity="0.4" d="M117.203 69.902C116.949 70.91 116.505 71.848 116.029 72.416C115.633 72.886 114.673 73.786 113.529 74.812C112.625 75.62 111.61 76.504 110.67 77.312C110.172 77.644 109.548 78.198 108.924 78.804C108.03 79.564 107.424 80.07 107.424 80.07L107.349 79.466C109.651 75.284 114.883 66.654 117.201 69.904L117.203 69.902Z" fill="#E2A040"/>
    <path opacity="0.36" d="M117.39 68.888C116.75 64.642 112.03 68.682 108.536 71.574C107.742 72.232 106.994 73.456 106.482 73.37L106.132 69.766C110.866 67.192 114.63 65.01 116.11 65.644C117.258 66.134 117.55 67.482 117.388 68.888H117.39Z" fill="#B45F00"/>
    <path opacity="0.36" d="M115.7 89.562H115.564C113.928 88.774 112.132 89.544 110.334 90.57C109.748 90.904 108.888 91.402 107.998 91.922L108.106 90.262C111.718 88.43 114.646 87.09 115.386 88.114C115.618 88.432 115.71 88.954 115.7 89.562Z" fill="#B45F00"/>
    <path d="M73.4616 136.854C73.4616 136.854 69.4876 147.502 67.2616 150.046C65.0356 152.59 62.1636 155.928 61.8576 160.22C61.8516 160.308 61.8416 160.394 61.8316 160.482C61.8296 160.5 61.8256 160.516 61.8236 160.534C61.8136 160.612 61.8036 160.688 61.7876 160.766C61.7696 160.866 61.7496 160.968 61.7236 161.066C61.7036 161.156 61.6776 161.244 61.6516 161.328C61.6256 161.418 61.5976 161.506 61.5636 161.592C61.5336 161.676 61.4996 161.764 61.4636 161.848C61.3936 162.018 61.3116 162.184 61.2256 162.348C61.1816 162.43 61.1376 162.51 61.0896 162.59C61.0516 162.654 61.0116 162.718 60.9716 162.78C60.9636 162.796 60.9536 162.81 60.9416 162.826C60.8896 162.906 60.8396 162.982 60.7816 163.058C60.7336 163.128 60.6816 163.196 60.6296 163.264C60.6176 163.28 60.6036 163.298 60.5916 163.312C60.5396 163.376 60.4896 163.442 60.4356 163.504C60.2896 163.678 60.1336 163.85 59.9716 164.014C59.8636 164.122 59.7516 164.23 59.6356 164.334C59.5636 164.4 59.4916 164.464 59.4176 164.53C59.3436 164.596 59.2656 164.658 59.1916 164.72C58.9856 164.886 58.7736 165.048 58.5556 165.206L58.4776 165.26C58.3976 165.316 58.3176 165.37 58.2356 165.424C58.1536 165.48 58.0716 165.534 57.9856 165.588C57.9016 165.644 57.8196 165.696 57.7336 165.744C57.6556 165.792 57.5796 165.836 57.5016 165.882C57.3756 165.956 57.2496 166.028 57.1236 166.098C57.0056 166.162 56.8876 166.226 56.7696 166.29C56.6616 166.346 56.5516 166.402 56.4416 166.456C56.3536 166.5 56.2676 166.54 56.1796 166.584C55.9056 166.718 55.6276 166.84 55.3576 166.954C55.2636 166.996 55.1696 167.034 55.0776 167.07C54.9836 167.112 54.8876 167.148 54.7936 167.182C54.6776 167.228 54.5616 167.272 54.4476 167.312C54.3936 167.332 54.3396 167.354 54.2856 167.372C54.2016 167.402 54.1156 167.432 54.0336 167.462C53.6176 167.604 53.2256 167.724 52.8676 167.818C52.5136 167.912 52.1176 168.014 51.6876 168.116C51.5516 168.15 51.4096 168.182 51.2656 168.216C51.0316 168.27 50.7876 168.326 50.5356 168.38C50.4556 168.398 50.3736 168.416 50.2916 168.434C50.0596 168.482 49.8236 168.534 49.5836 168.586C49.2856 168.648 48.9776 168.71 48.6596 168.774C48.5536 168.792 48.4496 168.816 48.3416 168.836C47.9736 168.908 47.5976 168.978 47.2116 169.046C47.0636 169.074 46.9136 169.102 46.7616 169.13C46.6236 169.154 46.4816 169.178 46.3416 169.202C46.1336 169.238 45.9236 169.274 45.7136 169.31C45.4996 169.346 45.2876 169.382 45.0696 169.418C44.9856 169.43 44.8996 169.444 44.8156 169.46C44.7216 169.476 44.6256 169.49 44.5276 169.506C44.2176 169.554 43.9036 169.604 43.5856 169.65C43.4136 169.676 43.2396 169.702 43.0636 169.728C42.8976 169.754 42.7276 169.776 42.5576 169.8C42.4276 169.82 42.2936 169.838 42.1616 169.856C41.9996 169.876 41.8376 169.9 41.6736 169.922C41.4396 169.952 41.2036 169.984 40.9656 170.014C40.6956 170.048 40.4236 170.08 40.1496 170.114C39.9436 170.14 39.7396 170.162 39.5316 170.186C39.1896 170.224 38.8496 170.264 38.5056 170.298C38.1276 170.34 37.7476 170.376 37.3656 170.41C37.0496 170.44 36.7336 170.47 36.4156 170.494C36.1356 170.518 35.8556 170.54 35.5756 170.56C35.2976 170.58 35.0216 170.602 34.7456 170.622C34.7356 170.62 34.7216 170.622 34.7116 170.622C34.4376 170.642 34.1616 170.658 33.8896 170.674C33.7516 170.682 33.6096 170.69 33.4716 170.698C32.5356 170.744 31.6056 170.778 30.6856 170.79C30.4416 170.792 30.1976 170.796 29.9556 170.796C28.5856 170.802 27.2476 170.762 25.9736 170.668C25.8476 170.66 25.7236 170.65 25.6016 170.638C25.5096 170.632 25.4196 170.622 25.3276 170.614C24.9496 170.58 24.5796 170.542 24.2196 170.498C23.9836 170.468 23.7516 170.436 23.5236 170.404C23.1636 170.352 22.8116 170.296 22.4676 170.232C22.3936 170.216 22.3196 170.204 22.2476 170.188C22.1816 170.176 22.1136 170.162 22.0496 170.15C21.8436 170.108 21.6416 170.062 21.4436 170.016C20.9116 169.892 20.4096 169.752 19.9316 169.594C19.6956 169.514 19.4636 169.432 19.2436 169.342C18.3476 168.992 17.5716 168.566 16.9436 168.062C15.7476 167.102 15.0796 165.844 15.1296 164.224C15.3636 156.538 24.0216 150.996 28.1556 145.274C30.3936 142.176 36.2736 133.778 41.1376 127.088C45.2556 121.428 48.6496 116.992 48.5036 118.016C48.2216 120 49.5736 123.296 51.4076 126.294C52.8956 128.726 54.7016 130.958 56.2056 132.134C62.4516 137.016 73.4596 136.85 73.4596 136.85L73.4616 136.854Z" fill="#575771"/>
    <path opacity="0.25" d="M73.4616 136.854C73.4616 136.854 69.4876 147.502 67.2616 150.046C65.0356 152.59 62.1636 155.928 61.8576 160.22C61.8516 160.308 61.8416 160.394 61.8316 160.482C61.8296 160.5 61.8256 160.516 61.8236 160.534C61.8136 160.612 61.8036 160.688 61.7876 160.766C61.7696 160.866 61.7496 160.968 61.7236 161.066C61.7036 161.156 61.6776 161.244 61.6516 161.328C61.6256 161.418 61.5976 161.506 61.5636 161.592C61.5336 161.676 61.4996 161.764 61.4636 161.848C61.3936 162.02 61.3156 162.186 61.2256 162.348C61.1816 162.43 61.1376 162.51 61.0896 162.59C61.0516 162.654 61.0116 162.718 60.9716 162.78C60.9636 162.796 60.9536 162.81 60.9416 162.826C60.8896 162.906 60.8396 162.982 60.7816 163.058C60.7336 163.128 60.6816 163.196 60.6296 163.264C60.6176 163.28 60.6036 163.298 60.5916 163.312C60.5396 163.376 60.4896 163.442 60.4356 163.504C60.2896 163.678 60.1336 163.85 59.9716 164.014C59.8636 164.122 59.7516 164.23 59.6356 164.334C59.5636 164.4 59.4916 164.464 59.4176 164.53C59.3436 164.596 59.2656 164.658 59.1916 164.72C58.9856 164.886 58.7736 165.048 58.5556 165.206L58.4776 165.26C58.3976 165.316 58.3176 165.372 58.2356 165.424C58.1536 165.48 58.0716 165.534 57.9856 165.588C57.9016 165.644 57.8196 165.696 57.7336 165.744C57.6556 165.792 57.5796 165.836 57.5016 165.882C57.3756 165.956 57.2496 166.028 57.1236 166.098C57.0056 166.162 56.8876 166.226 56.7696 166.29C56.6616 166.346 56.5516 166.402 56.4416 166.456C56.3536 166.5 56.2676 166.54 56.1796 166.584C55.9056 166.718 55.6276 166.84 55.3576 166.954C55.2636 166.996 55.1696 167.034 55.0776 167.07C54.9836 167.112 54.8876 167.148 54.7936 167.182C54.6776 167.228 54.5616 167.272 54.4476 167.312C54.3936 167.332 54.3396 167.354 54.2856 167.372C54.2016 167.402 54.1156 167.432 54.0336 167.462C53.6176 167.604 53.2256 167.724 52.8676 167.818C52.5136 167.912 52.1176 168.014 51.6876 168.116C51.5516 168.15 51.4096 168.182 51.2656 168.216C51.0316 168.27 50.7876 168.326 50.5356 168.38C50.4556 168.398 50.3736 168.416 50.2916 168.434C50.0636 168.486 49.8276 168.534 49.5836 168.586C49.2856 168.648 48.9776 168.71 48.6596 168.774C48.5536 168.794 48.4456 168.816 48.3416 168.836C47.9736 168.908 47.5976 168.978 47.2116 169.046C47.0636 169.074 46.9136 169.102 46.7616 169.13C46.6236 169.154 46.4816 169.178 46.3416 169.202C46.1336 169.238 45.9236 169.274 45.7136 169.31C45.4996 169.346 45.2876 169.382 45.0696 169.418C44.8896 169.446 44.7096 169.474 44.5276 169.506C44.2176 169.554 43.9036 169.604 43.5856 169.65C43.4136 169.676 43.2396 169.702 43.0636 169.728C42.8976 169.754 42.7276 169.776 42.5576 169.8C42.4276 169.82 42.2936 169.838 42.1616 169.856C41.9996 169.876 41.8376 169.9 41.6736 169.922C41.4396 169.952 41.2016 169.984 40.9656 170.014C40.6956 170.048 40.4236 170.08 40.1496 170.114C39.9436 170.14 39.7396 170.162 39.5316 170.186C39.1896 170.224 38.8496 170.264 38.5056 170.298C38.1276 170.34 37.7476 170.376 37.3656 170.41C37.0496 170.44 36.7336 170.47 36.4156 170.494C36.1356 170.518 35.8556 170.54 35.5756 170.56C35.2976 170.58 35.0216 170.602 34.7456 170.622C34.7356 170.62 34.7216 170.622 34.7116 170.622C34.4376 170.64 34.1656 170.658 33.8896 170.674C33.7516 170.682 33.6096 170.69 33.4716 170.698C32.5356 170.744 31.6056 170.778 30.6856 170.79C30.4416 170.792 30.1976 170.796 29.9556 170.796C28.5856 170.804 27.2476 170.762 25.9736 170.668C25.8476 170.66 25.7236 170.65 25.6016 170.638C25.5096 170.632 25.4196 170.622 25.3276 170.614C24.9496 170.58 24.5796 170.542 24.2196 170.498C23.9836 170.468 23.7516 170.436 23.5236 170.404C23.1636 170.352 22.8116 170.296 22.4676 170.232C22.3936 170.216 22.3196 170.204 22.2476 170.188C22.1816 170.176 22.1136 170.162 22.0496 170.15C21.8436 170.108 21.6416 170.062 21.4436 170.016C20.9116 169.892 20.4096 169.752 19.9316 169.594C19.6956 169.514 19.4676 169.432 19.2436 169.342C18.3476 168.992 17.5716 168.566 16.9436 168.062C16.9436 168.062 27.9636 163.968 38.2316 157.806C50.2096 150.618 54.3296 138.014 51.4036 126.294C52.8916 128.726 54.6976 130.958 56.2016 132.134C62.4476 137.016 73.4556 136.85 73.4556 136.85L73.4616 136.854Z" fill="#2B2B37"/>
    <path opacity="0.25" d="M73.4617 136.854C73.4617 136.854 69.4877 147.502 67.2617 150.046C65.0357 152.59 62.1637 155.928 61.8577 160.22C61.8517 160.308 61.8416 160.394 61.8316 160.482C61.8296 160.5 61.8257 160.516 61.8237 160.534C61.8137 160.612 61.8036 160.688 61.7876 160.766C61.7696 160.866 61.7497 160.968 61.7237 161.066C61.7037 161.156 61.6777 161.244 61.6517 161.328C61.6257 161.418 61.5977 161.506 61.5637 161.592C61.5337 161.676 61.4997 161.764 61.4637 161.848C61.3937 162.018 61.3116 162.184 61.2256 162.348C61.1816 162.43 61.1377 162.51 61.0897 162.59C61.0517 162.654 61.0117 162.718 60.9717 162.78C60.9637 162.796 60.9537 162.81 60.9417 162.826C60.8897 162.906 60.8396 162.982 60.7816 163.058C60.7336 163.128 60.6816 163.196 60.6296 163.264C60.6176 163.28 60.6037 163.298 60.5917 163.312C60.5397 163.376 60.4896 163.442 60.4356 163.504C60.2896 163.678 60.1337 163.85 59.9717 164.014C59.8637 164.122 59.7516 164.23 59.6356 164.334C59.5636 164.4 59.4917 164.464 59.4177 164.53C59.3437 164.596 59.2657 164.658 59.1917 164.72C58.9857 164.886 58.7737 165.048 58.5557 165.206L58.4776 165.26C58.3976 165.316 58.3176 165.37 58.2356 165.424C58.1536 165.48 58.0716 165.534 57.9856 165.588C57.9016 165.644 57.8196 165.696 57.7336 165.744C57.6556 165.792 57.5797 165.836 57.5017 165.882C57.3757 165.956 57.2497 166.028 57.1237 166.098C57.0057 166.162 56.8877 166.226 56.7697 166.29C56.6617 166.346 56.5517 166.402 56.4417 166.456C56.3537 166.5 56.2676 166.54 56.1796 166.584C55.9056 166.718 55.6277 166.84 55.3577 166.954C55.2637 166.996 55.1696 167.034 55.0776 167.07C54.9836 167.112 54.8877 167.148 54.7937 167.182C54.6777 167.228 54.5617 167.272 54.4477 167.312C54.3937 167.332 54.3396 167.354 54.2856 167.372C54.2016 167.402 54.1156 167.432 54.0336 167.462C53.6176 167.604 53.2257 167.724 52.8677 167.818C52.5137 167.912 52.1176 168.014 51.6876 168.116C51.5516 168.15 51.4097 168.182 51.2657 168.216C51.0317 168.27 50.7876 168.326 50.5356 168.38C50.4556 168.398 50.3737 168.416 50.2917 168.434C50.0597 168.482 49.8236 168.534 49.5836 168.586C49.2856 168.648 48.9777 168.71 48.6597 168.774C48.5537 168.792 48.4497 168.816 48.3417 168.836C47.9737 168.908 47.5977 168.978 47.2117 169.046C47.0637 169.074 46.9137 169.102 46.7617 169.13C46.6237 169.154 46.4817 169.178 46.3417 169.202C46.1337 169.238 45.9237 169.274 45.7137 169.31C45.4997 169.346 45.2877 169.382 45.0697 169.418C44.9857 169.43 44.8997 169.444 44.8157 169.46C46.6197 168.14 48.5336 166.696 50.5396 165.122C64.1277 154.468 58.0017 138.812 56.2057 132.138C62.4517 137.02 73.4597 136.854 73.4597 136.854H73.4617Z" fill="#2B2B37"/>
    <path d="M64.6477 143.814C63.2257 145.608 57.5798 151.418 54.4657 154.55C53.7797 155.24 53.0437 155.964 52.2537 156.714C51.9397 157.012 51.6137 157.314 51.2837 157.62C46.6497 161.892 40.4297 166.788 32.9077 170.73C31.9137 170.774 30.9317 170.8 29.9637 170.8C38.0097 166.926 45.0897 161.504 50.8137 156.252C51.1417 155.952 51.4677 155.652 51.7897 155.348C59.7637 147.864 64.9177 140.928 66.1277 139.574C66.4017 139.282 66.8917 139.25 67.1517 139.536C67.7397 140.226 65.4077 142.85 64.6497 143.816L64.6477 143.814Z" fill="#2B2B37"/>
    <path d="M55.9239 166.708C55.5459 166.882 55.1718 167.042 54.8078 167.182C53.6558 164.214 52.4438 160.968 51.2838 157.62C51.1278 157.166 50.9698 156.708 50.8138 156.252C48.0738 148.192 45.7018 139.71 45.1658 133.302C45.1378 132.978 45.4038 132.692 45.7338 132.66C46.0658 132.632 46.3598 132.894 46.3878 133.218C46.8978 139.39 49.1518 147.538 51.7898 155.348C51.9438 155.804 52.0978 156.26 52.2538 156.714C53.4578 160.21 54.7239 163.612 55.9239 166.708Z" fill="#2B2B37"/>
    <path d="M64.892 60.172C64.892 60.346 64.9 60.522 64.918 60.698V60.702L67.26 84.4879L70.95 121.968L73.498 147.846C73.544 148.298 73.642 148.724 73.79 149.12C73.81 149.174 73.836 149.226 73.858 149.28C73.874 149.316 73.888 149.354 73.904 149.39C73.924 149.436 73.946 149.482 73.968 149.526C74.012 149.618 74.058 149.708 74.106 149.794C74.146 149.864 74.188 149.934 74.232 150.002C74.318 150.138 74.412 150.27 74.514 150.394C74.564 150.456 74.616 150.514 74.668 150.574C74.7 150.612 74.734 150.648 74.77 150.684C74.792 150.708 74.816 150.732 74.84 150.756C74.884 150.8 74.928 150.842 74.974 150.882C75.04 150.944 75.108 151.002 75.178 151.058C75.208 151.084 75.24 151.108 75.27 151.13C75.3 151.152 75.33 151.174 75.36 151.196C75.364 151.2 75.368 151.202 75.374 151.202C75.446 151.254 75.522 151.304 75.596 151.35C75.6 151.354 75.602 151.356 75.606 151.356C75.68 151.402 75.758 151.446 75.834 151.486C75.914 151.53 75.994 151.57 76.078 151.604C76.16 151.642 76.242 151.674 76.328 151.706C76.586 151.8 76.856 151.866 77.132 151.902C77.176 151.908 77.222 151.916 77.268 151.92C77.638 151.958 78.018 151.942 78.406 151.872L78.832 151.796L89.538 149.852L114.022 145.402C114.21 145.366 114.396 145.32 114.576 145.262C114.6 145.256 114.624 145.246 114.648 145.24H114.652C114.7 145.22 114.748 145.202 114.794 145.186C114.812 145.18 114.832 145.172 114.848 145.166C114.848 145.166 114.85 145.164 114.85 145.166C114.908 145.142 114.962 145.12 115.016 145.094C115.022 145.092 115.03 145.088 115.036 145.086C115.104 145.056 115.17 145.024 115.234 144.992H115.236C115.3 144.956 115.364 144.922 115.424 144.888C115.548 144.816 115.666 144.74 115.78 144.66C115.942 144.546 116.098 144.422 116.246 144.288C116.26 144.278 116.27 144.266 116.282 144.258C116.282 144.258 116.283 144.257 116.284 144.254H116.286C116.338 144.206 116.39 144.156 116.44 144.104H116.442C116.464 144.082 116.486 144.058 116.506 144.036C116.528 144.014 116.55 143.99 116.572 143.966C116.608 143.928 116.64 143.892 116.674 143.854C116.712 143.812 116.748 143.768 116.784 143.724C116.812 143.692 116.838 143.656 116.868 143.62H116.87C116.87 143.62 116.872 143.618 116.872 143.616C117.682 142.57 118.122 141.188 117.982 139.764L109.4 52.624C109.368 52.294 109.306 51.9759 109.218 51.6779C108.764 50.1339 107.616 49.006 106.202 48.65C106.198 48.65 106.192 48.648 106.186 48.646C106.142 48.634 106.098 48.626 106.054 48.618C106.01 48.61 105.966 48.6 105.92 48.592C105.832 48.576 105.742 48.564 105.652 48.554C105.608 48.55 105.564 48.5459 105.518 48.5399H105.512C105.47 48.5359 105.43 48.5359 105.388 48.5339C105.094 48.5199 104.792 48.542 104.488 48.598L90.522 51.1359C90.522 51.1359 90.522 51.1379 90.52 51.1379L68.876 55.072H68.872C68.82 55.08 68.766 55.092 68.714 55.104C68.712 55.104 68.71 55.106 68.71 55.106C68.662 55.114 68.614 55.1259 68.568 55.1379C68.566 55.1379 68.564 55.1379 68.56 55.1399L68.508 55.154C68.488 55.158 68.468 55.164 68.446 55.172C68.402 55.186 68.36 55.198 68.316 55.212C68.294 55.218 68.274 55.2259 68.252 55.2339C68.184 55.2579 68.116 55.284 68.048 55.308C68.048 55.308 68.0473 55.3086 68.046 55.31C67.978 55.336 67.912 55.364 67.844 55.396C67.814 55.41 67.782 55.4239 67.752 55.4399C67.722 55.4539 67.69 55.4679 67.662 55.4859C67.658 55.4879 67.656 55.4879 67.654 55.4899C67.578 55.5299 67.5 55.574 67.424 55.618C67.418 55.62 67.41 55.6219 67.406 55.6259C67.39 55.6339 67.376 55.644 67.362 55.652C67.324 55.674 67.288 55.698 67.25 55.722C67.204 55.752 67.158 55.788 67.112 55.82C67.088 55.838 67.062 55.854 67.038 55.872C66.998 55.902 66.954 55.928 66.914 55.96C66.86 56.006 66.802 56.052 66.75 56.1C66.734 56.112 66.72 56.1239 66.704 56.1379C66.688 56.1519 66.674 56.1639 66.658 56.1779C66.588 56.2379 66.522 56.302 66.456 56.366C66.442 56.376 66.432 56.39 66.418 56.404C66.404 56.42 66.39 56.434 66.376 56.45C66.35 56.474 66.328 56.498 66.308 56.524C66.288 56.542 66.27 56.5619 66.256 56.5779C66.25 56.5839 66.24 56.594 66.234 56.602C66.194 56.646 66.154 56.6919 66.118 56.7399C66.098 56.7619 66.08 56.786 66.06 56.808C66.05 56.824 66.038 56.836 66.03 56.85C65.984 56.908 65.942 56.9639 65.898 57.0259C65.854 57.0879 65.812 57.15 65.77 57.214C65.762 57.228 65.752 57.24 65.744 57.254C65.728 57.28 65.712 57.3059 65.698 57.3339C65.674 57.3699 65.652 57.404 65.632 57.442C65.61 57.48 65.588 57.516 65.568 57.554C65.552 57.58 65.54 57.6059 65.526 57.6339C65.5 57.6819 65.476 57.7299 65.452 57.7779C65.42 57.8439 65.386 57.9119 65.356 57.9819C65.32 58.0639 65.286 58.1459 65.254 58.2299C65.25 58.2399 65.246 58.25 65.24 58.26C65.216 58.324 65.194 58.39 65.172 58.456C65.162 58.492 65.148 58.524 65.14 58.56C65.118 58.63 65.096 58.7019 65.076 58.7759C65.052 58.8659 65.03 58.954 65.012 59.044C64.992 59.13 64.976 59.218 64.962 59.306C64.96 59.328 64.956 59.35 64.954 59.372C64.944 59.434 64.936 59.496 64.93 59.556C64.926 59.584 64.922 59.616 64.922 59.644C64.912 59.726 64.904 59.8059 64.902 59.8879C64.896 59.9839 64.894 60.0799 64.894 60.1759L64.892 60.172Z" fill="#E3F7FF"/>
    <path d="M104.714 48.674C104.62 48.646 104.524 48.624 104.426 48.606L104.496 48.5939L104.524 48.5899L104.714 48.6759V48.674Z" fill="#738483"/>
    <path d="M106.192 48.6383L106.058 48.6103C106.016 48.6043 105.972 48.5943 105.924 48.5843C105.838 48.5683 105.748 48.5563 105.658 48.5483C105.614 48.5423 105.568 48.5383 105.524 48.5323C105.476 48.5283 105.434 48.5283 105.392 48.5263H105.226C105.166 48.5263 105.108 48.5303 105.046 48.5323C104.93 48.5363 104.818 48.5483 104.704 48.5603C104.646 48.5663 104.582 48.5763 104.524 48.5883C104.512 48.5883 104.498 48.5923 104.486 48.5943L104.428 48.6043L90.5221 51.1303L68.88 55.0643C68.822 55.0703 68.7721 55.0843 68.7161 55.0963C68.6641 55.1063 68.6141 55.1183 68.5681 55.1323C68.5681 55.1323 68.5647 55.1336 68.5581 55.1363C68.5421 55.1403 68.5221 55.1423 68.5061 55.1483C68.4861 55.1523 68.464 55.1583 68.446 55.1643C68.402 55.1763 68.3601 55.1903 68.3141 55.2063C68.2921 55.2123 68.2721 55.2183 68.2501 55.2263C68.1821 55.2523 68.116 55.2783 68.046 55.3023C67.976 55.3303 67.912 55.3603 67.842 55.3883C67.814 55.4003 67.7821 55.4163 67.7501 55.4323C67.7221 55.4483 67.6921 55.4643 67.6641 55.4763C67.6581 55.4803 67.6541 55.4803 67.6541 55.4823C67.5781 55.5203 67.5001 55.5663 67.4201 55.6103C67.4141 55.6103 67.4081 55.6143 67.4041 55.6163C67.3021 55.6803 67.2061 55.7443 67.1121 55.8143C67.0841 55.8303 67.06 55.8503 67.036 55.8663C66.936 55.9403 66.84 56.0143 66.748 56.0943C66.732 56.1063 66.7201 56.1203 66.7041 56.1323C66.5661 56.2543 66.4321 56.3823 66.3081 56.5183C65.3221 57.5963 64.7661 59.1243 64.9241 60.7023L67.2661 84.4923L67.6041 87.9363L70.9561 121.97L71.1041 123.458L71.28 125.23L73.5061 147.846C73.5121 147.922 73.522 148 73.534 148.074C73.594 148.502 73.7041 148.906 73.8601 149.28C73.8761 149.316 73.8921 149.354 73.9081 149.392C73.9281 149.434 73.9501 149.482 73.9681 149.526C74.0101 149.61 74.048 149.686 74.092 149.766C74.102 149.778 74.1081 149.792 74.1141 149.808C74.1461 149.866 74.1821 149.926 74.2201 149.98C74.2301 150.002 74.2421 150.018 74.2561 150.038C74.3261 150.144 74.404 150.25 74.48 150.348C74.544 150.424 74.6021 150.502 74.6681 150.576C74.7161 150.63 74.7641 150.684 74.8181 150.732C74.8661 150.784 74.9181 150.834 74.9721 150.882C75.0401 150.942 75.106 151.004 75.176 151.058C75.24 151.11 75.3081 151.158 75.3721 151.202C76.0241 151.516 76.648 151.752 77.134 151.902C77.066 151.908 77 151.912 76.932 151.914C76.928 151.918 76.9261 151.918 76.9221 151.914C74.2701 152.1 72.0341 151.77 70.3121 151.32C67.9741 150.71 66.2701 148.704 66.0001 146.306L63.1061 120.48L56.236 59.2043L56.232 59.1923C55.97 56.5223 57.738 53.9943 60.192 53.5543L66.636 52.4383L66.696 52.4283H66.7001L66.832 52.4023L76.9741 50.6503H76.978L77.0101 50.6443L77.2221 50.6083C77.2641 50.6023 77.3121 50.5923 77.3561 50.5863L77.736 50.5183L77.8201 50.5023L96.988 47.1883C97.618 47.0703 102.442 47.5363 103.244 47.8303L106.192 48.6403V48.6383Z" fill="#899695"/>
    <path d="M77.2559 151.94C77.2559 151.94 77.1819 151.934 77.0479 151.924C77.0119 151.92 76.9739 151.918 76.9319 151.914C76.9999 151.91 77.0659 151.908 77.1339 151.902C77.1439 151.906 77.1559 151.908 77.1659 151.912C77.1979 151.924 77.2259 151.932 77.2559 151.94Z" fill="#899695"/>
    <path d="M77.1339 151.902C76.6479 151.752 76.024 151.516 75.372 151.202C75.308 151.158 75.2399 151.11 75.1759 151.058C75.1059 151.004 75.038 150.942 74.972 150.882C74.918 150.834 74.866 150.782 74.818 150.732C74.764 150.684 74.716 150.63 74.668 150.576C74.6 150.502 74.5439 150.426 74.4799 150.348C74.4039 150.248 74.326 150.144 74.256 150.038C74.244 150.018 74.23 150.002 74.22 149.98C74.182 149.926 74.146 149.864 74.114 149.808C74.108 149.792 74.1019 149.78 74.0919 149.766C74.0479 149.686 74.008 149.61 73.968 149.526C73.948 149.482 73.926 149.434 73.908 149.392C73.892 149.354 73.876 149.316 73.86 149.28C73.704 148.906 73.5939 148.502 73.5339 148.074C75.3379 150.722 77.1359 151.902 77.1359 151.902H77.1339Z" fill="#899695"/>
    <path d="M56.2339 59.1879C56.7319 62.6619 57.898 72.1799 59.15 82.6479L67.254 84.4879H67.26V84.4919L67.264 84.4959L68.864 85.7459L69.452 86.21L69.3279 84.9399L67.5279 66.6419L66.908 60.3439C66.864 59.8999 66.924 59.464 67.068 59.064C67.094 58.988 67.122 58.9139 67.158 58.8399C67.17 58.8039 67.186 58.7699 67.202 58.7379C67.276 58.5879 67.362 58.446 67.454 58.316C67.476 58.28 67.5019 58.248 67.5279 58.216C67.5499 58.184 67.576 58.156 67.602 58.124C67.654 58.064 67.708 58.006 67.762 57.952C67.81 57.904 67.854 57.86 67.906 57.818C67.916 57.808 67.9279 57.7979 67.9379 57.7899C67.9799 57.7539 68.024 57.7199 68.07 57.6879C68.074 57.6839 68.0759 57.6819 68.0799 57.6819C68.1279 57.6459 68.176 57.6139 68.224 57.5819C68.24 57.5719 68.252 57.562 68.268 57.556C68.32 57.524 68.3739 57.492 68.4279 57.464C68.4759 57.438 68.5279 57.4159 68.5759 57.3959C68.6239 57.3739 68.668 57.3579 68.716 57.3419C68.744 57.3299 68.774 57.32 68.802 57.314C68.87 57.292 68.942 57.272 69.016 57.256C69.042 57.25 69.0679 57.2439 69.0899 57.2399L74.312 56.2899L74.316 56.2859L89.0259 53.616L104.708 50.766C105.788 50.57 106.784 51.172 107.212 52.174L109.214 51.6779L109.224 51.672C108.77 50.128 107.624 49.0019 106.208 48.6459C106.204 48.6459 106.198 48.6419 106.196 48.6399L103.248 47.8299C102.446 47.5359 97.6219 47.0679 96.9919 47.1879L77.824 50.502L77.7399 50.518L77.36 50.5859L77.2259 50.608L77.014 50.6439L76.9819 50.65H76.9779L66.8359 52.402L66.704 52.4279H66.7L66.6399 52.4379L60.1959 53.554C57.7419 53.996 55.9739 56.5219 56.2359 59.1919L56.2339 59.1879Z" fill="#93A3A2"/>
    <path d="M77.1341 151.902C77.0661 151.908 77.0001 151.912 76.9321 151.914C76.9281 151.918 76.9261 151.918 76.9221 151.914C74.2701 152.1 72.0341 151.77 70.3121 151.32C67.9741 150.71 66.2701 148.704 66.0001 146.306L63.1061 120.48L71.1361 123.716L71.276 125.232L73.5021 147.848C73.5081 147.924 73.5181 148.002 73.5301 148.076C73.5901 148.504 73.7001 148.908 73.8561 149.282C73.8721 149.318 73.8881 149.356 73.9041 149.394C73.9241 149.436 73.9461 149.484 73.9641 149.528C74.0061 149.612 74.0441 149.688 74.0881 149.768C74.0981 149.78 74.1041 149.794 74.1101 149.81C74.1421 149.868 74.1781 149.928 74.2161 149.982C74.2261 150.004 74.2381 150.02 74.2521 150.04C74.3221 150.146 74.4001 150.252 74.4761 150.35C74.54 150.426 74.5981 150.504 74.6641 150.578C74.7121 150.632 74.7601 150.686 74.8141 150.734C74.8621 150.786 74.9141 150.836 74.9681 150.884C75.0361 150.944 75.1021 151.006 75.1721 151.06C75.2361 151.112 75.3041 151.16 75.3681 151.204C76.0201 151.518 76.6441 151.754 77.1301 151.904L77.1341 151.902Z" fill="#93A3A2"/>
    <path d="M69.054 57.242C69.04 57.2459 69.028 57.25 69.014 57.252C69.04 57.248 69.064 57.2419 69.088 57.2359L74.31 56.2859L74.314 56.2819L69.092 57.2319C69.078 57.2339 69.066 57.2359 69.052 57.2399L69.054 57.242ZM64.902 60.456C64.906 60.54 64.908 60.622 64.916 60.706L67.258 84.4859L70.948 121.964L73.496 147.844C73.54 148.296 73.64 148.724 73.792 149.12C73.812 149.176 73.838 149.228 73.862 149.284C73.876 149.318 73.89 149.354 73.906 149.388C73.958 149.506 74.014 149.62 74.076 149.732C74.088 149.754 74.098 149.776 74.11 149.796C74.112 149.8 74.114 149.804 74.116 149.808C74.15 149.868 74.186 149.926 74.222 149.984C74.226 149.992 74.23 149.998 74.234 150.006C74.28 150.08 74.33 150.152 74.38 150.222C74.402 150.252 74.426 150.282 74.448 150.312C74.47 150.34 74.492 150.37 74.514 150.398C74.564 150.46 74.616 150.518 74.668 150.578C74.7 150.616 74.734 150.652 74.77 150.688C74.784 150.704 74.798 150.72 74.818 150.736C74.822 150.744 74.832 150.754 74.84 150.76C74.884 150.804 74.928 150.846 74.974 150.886C75.04 150.948 75.108 151.006 75.178 151.062C75.208 151.088 75.24 151.112 75.27 151.134C75.3 151.156 75.33 151.178 75.36 151.2C75.364 151.204 75.368 151.206 75.374 151.206C75.446 151.258 75.522 151.308 75.596 151.354C75.6 151.358 75.602 151.36 75.606 151.36C75.642 151.382 75.676 151.404 75.712 151.424C75.718 151.428 75.728 151.432 75.734 151.438C75.766 151.458 75.802 151.476 75.836 151.49C75.884 151.516 75.934 151.54 75.986 151.564C76.002 151.572 76.016 151.58 76.032 151.588C76.048 151.594 76.064 151.602 76.08 151.608C76.162 151.646 76.244 151.678 76.33 151.71C76.588 151.804 76.858 151.87 77.134 151.906C77.134 151.906 77.136 151.908 77.138 151.908C77.182 151.914 77.224 151.918 77.27 151.924C77.64 151.962 78.02 151.946 78.408 151.876L78.834 151.8L89.54 149.854L114.024 145.406C114.212 145.37 114.398 145.324 114.578 145.266C114.602 145.26 114.626 145.25 114.65 145.244H114.654C114.702 145.224 114.75 145.206 114.796 145.19C114.814 145.184 114.834 145.176 114.85 145.17C114.85 145.17 114.852 145.168 114.852 145.17C114.87 145.162 114.89 145.152 114.906 145.144C114.944 145.128 114.98 145.114 115.018 145.098C115.024 145.096 115.032 145.092 115.038 145.09C115.106 145.06 115.172 145.028 115.236 144.996H115.238C115.302 144.96 115.366 144.926 115.426 144.892C115.55 144.82 115.668 144.744 115.782 144.664C115.944 144.55 116.1 144.426 116.248 144.292C116.262 144.282 116.272 144.27 116.284 144.262C116.286 144.26 116.286 144.258 116.288 144.258C116.34 144.21 116.392 144.16 116.442 144.108H116.444C116.466 144.086 116.488 144.062 116.508 144.04C116.53 144.018 116.552 143.994 116.574 143.97C116.61 143.932 116.642 143.896 116.676 143.858C116.714 143.816 116.75 143.772 116.786 143.728C116.814 143.696 116.84 143.66 116.87 143.624H116.872C116.872 143.624 116.87 143.622 116.872 143.62H116.874C116.874 143.62 116.882 143.604 116.89 143.596C116.896 143.59 116.9 143.582 116.906 143.574C116.982 143.476 117.054 143.374 117.122 143.268C117.168 143.2 117.212 143.128 117.254 143.054C117.324 142.938 117.388 142.816 117.448 142.696C117.45 142.694 117.45 142.692 117.452 142.69C117.58 142.428 117.688 142.154 117.772 141.87C117.774 141.868 117.774 141.866 117.774 141.864C117.794 141.802 117.812 141.738 117.826 141.676C117.984 141.068 118.042 140.424 117.976 139.77L109.524 53.954L109.394 52.6339C109.362 52.3039 109.3 51.9879 109.21 51.6879C108.66 49.8039 107.07 48.5399 105.224 48.5399C105.164 48.5399 105.106 48.542 105.044 48.544C104.93 48.548 104.818 48.56 104.704 48.572C104.644 48.58 104.584 48.59 104.524 48.6C104.51 48.602 104.5 48.604 104.486 48.606L104.426 48.616L90.522 51.1419L68.87 55.0779C68.818 55.0859 68.764 55.098 68.712 55.108C68.662 55.118 68.608 55.132 68.558 55.146C68.506 55.16 68.454 55.1739 68.404 55.1879C68.354 55.2039 68.302 55.2199 68.252 55.2359C68.184 55.2599 68.116 55.286 68.048 55.31C68.048 55.31 68.0474 55.3106 68.046 55.312C67.978 55.338 67.912 55.366 67.844 55.398C67.814 55.412 67.782 55.4259 67.752 55.4419C67.722 55.4579 67.692 55.4719 67.664 55.4879H67.662C67.662 55.4879 67.656 55.4899 67.654 55.4919C67.578 55.5319 67.5 55.576 67.424 55.62C67.418 55.622 67.41 55.6239 67.406 55.6279C67.39 55.6359 67.376 55.646 67.362 55.654C67.324 55.676 67.288 55.7 67.25 55.724C67.204 55.754 67.158 55.79 67.112 55.822C67.088 55.84 67.062 55.856 67.038 55.874C66.998 55.904 66.954 55.93 66.914 55.962C66.864 56.002 66.812 56.0419 66.764 56.0799C66.656 56.1699 66.554 56.264 66.454 56.368C66.44 56.376 66.428 56.39 66.416 56.406C66.37 56.45 66.33 56.498 66.288 56.544C66.276 56.556 66.264 56.5699 66.252 56.5819C66.246 56.5879 66.236 56.598 66.23 56.606C66.19 56.65 66.15 56.696 66.114 56.744C66.094 56.766 66.076 56.79 66.056 56.812C65.996 56.882 65.942 56.9539 65.894 57.0299C65.836 57.1039 65.784 57.182 65.74 57.258C65.722 57.284 65.708 57.3139 65.692 57.3399C65.668 57.3739 65.648 57.408 65.628 57.444C65.606 57.482 65.584 57.518 65.564 57.556C65.56 57.562 65.558 57.5679 65.554 57.5759C65.524 57.6299 65.498 57.6839 65.47 57.7379C65.462 57.7519 65.456 57.7659 65.448 57.7799C65.416 57.8459 65.382 57.9139 65.352 57.9839V57.9879C65.322 58.0499 65.298 58.1139 65.274 58.1779C65.266 58.1959 65.258 58.2139 65.252 58.2319C65.248 58.2419 65.244 58.252 65.238 58.262C65.228 58.29 65.218 58.318 65.21 58.346C65.176 58.442 65.144 58.5379 65.116 58.6359C65.102 58.6819 65.088 58.7279 65.074 58.7759C65.074 58.7799 65.072 58.7859 65.07 58.7899C65.05 58.8679 65.032 58.9479 65.014 59.0259C65.014 59.0319 65.012 59.038 65.01 59.044C65.006 59.066 65.002 59.088 64.998 59.11C64.912 59.536 64.876 59.976 64.896 60.424C64.896 60.436 64.896 60.448 64.898 60.462L64.902 60.456ZM73.188 124.1L69.456 86.208L69.33 84.9379L67.528 66.6399L66.908 60.3419C66.864 59.9 66.924 59.464 67.066 59.066C67.092 58.99 67.124 58.9139 67.156 58.8399C67.17 58.8039 67.184 58.7719 67.202 58.7379C67.276 58.5879 67.36 58.446 67.454 58.314C67.476 58.282 67.5 58.248 67.526 58.218C67.548 58.186 67.574 58.1559 67.6 58.1259C67.65 58.0639 67.706 58.006 67.76 57.95C67.806 57.904 67.852 57.86 67.902 57.818C67.912 57.808 67.924 57.7979 67.934 57.7899C67.976 57.7519 68.02 57.7179 68.066 57.6859C68.068 57.6819 68.07 57.6799 68.074 57.6799C68.12 57.6439 68.168 57.6119 68.216 57.5819C68.232 57.5719 68.244 57.562 68.26 57.556C68.312 57.524 68.366 57.492 68.42 57.464C68.468 57.44 68.518 57.416 68.57 57.396C68.616 57.374 68.662 57.3579 68.708 57.3419C68.736 57.3319 68.766 57.322 68.794 57.314C68.864 57.292 68.936 57.274 69.008 57.258C69.034 57.254 69.058 57.2479 69.082 57.242L74.304 56.2919L74.308 56.2879L89.016 53.616L104.698 50.766C105.778 50.57 106.772 51.172 107.2 52.174C107.304 52.422 107.376 52.6939 107.404 52.9839L107.93 58.3399L107.944 58.4759L115.392 134.08L115.988 140.12C116.034 140.572 115.972 141.016 115.824 141.42C115.786 141.526 115.742 141.628 115.694 141.728C115.692 141.73 115.69 141.732 115.69 141.734C115.638 141.842 115.578 141.948 115.51 142.048C115.488 142.084 115.466 142.116 115.442 142.15C115.42 142.182 115.396 142.214 115.372 142.244C115.3 142.338 115.22 142.426 115.14 142.51C114.972 142.68 114.784 142.824 114.58 142.94C114.55 142.96 114.516 142.978 114.484 142.992C114.482 142.996 114.478 142.996 114.474 142.998C114.406 143.034 114.336 143.066 114.264 143.094C114.116 143.154 113.966 143.198 113.808 143.226L107.27 144.414L88.682 147.792L85.096 148.444L81.262 149.14L78.196 149.698C76.848 149.942 75.636 148.946 75.49 147.48L74.816 140.634L73.188 124.098V124.1ZM69.016 57.252C69.042 57.248 69.066 57.2419 69.09 57.2359L74.312 56.2859L74.316 56.2819L69.094 57.2319C69.08 57.2339 69.068 57.2359 69.054 57.2399C69.04 57.2439 69.028 57.248 69.014 57.25L69.016 57.252Z" fill="#CDD5D4"/>
    <path d="M89.54 149.848L114.024 145.398C114.212 145.362 114.398 145.316 114.578 145.258C114.602 145.252 114.626 145.242 114.65 145.234C114.7 145.218 114.748 145.202 114.798 145.182C114.816 145.176 114.836 145.168 114.852 145.162C114.852 145.162 114.853 145.162 114.854 145.162C114.872 145.154 114.892 145.144 114.908 145.136C115.02 145.092 115.13 145.042 115.238 144.986H115.24C115.304 144.95 115.368 144.916 115.428 144.882C115.552 144.81 115.67 144.734 115.784 144.654C115.946 144.54 116.102 144.416 116.25 144.282C116.264 144.272 116.276 144.258 116.288 144.246H116.29C116.342 144.198 116.394 144.148 116.444 144.096C116.488 144.052 116.534 144.006 116.576 143.958C116.65 143.882 116.718 143.8 116.786 143.716C116.814 143.684 116.84 143.648 116.87 143.612C116.87 143.612 116.87 143.61 116.872 143.608C116.882 143.592 116.896 143.578 116.904 143.562C116.98 143.464 117.052 143.362 117.12 143.256C117.166 143.188 117.21 143.116 117.252 143.042C117.322 142.926 117.386 142.804 117.446 142.684C117.448 142.682 117.448 142.68 117.45 142.678C117.578 142.416 117.686 142.142 117.77 141.858C117.772 141.856 117.772 141.854 117.772 141.852C117.972 141.19 118.048 140.478 117.978 139.756L109.526 53.9259C109.526 53.9259 109.524 53.9339 109.522 53.9399C109.41 54.3039 109.294 54.6619 109.174 55.0279C108.802 56.1419 108.384 57.2499 107.932 58.3359L107.946 58.472L115.386 134.082L115.982 140.122C116.04 140.688 115.928 141.242 115.694 141.726C115.692 141.728 115.69 141.73 115.69 141.732C115.618 141.876 115.536 142.016 115.442 142.148C115.42 142.18 115.396 142.212 115.372 142.242C115.3 142.336 115.22 142.424 115.14 142.508C114.972 142.678 114.784 142.822 114.58 142.938C114.55 142.958 114.516 142.976 114.484 142.99C114.482 142.994 114.478 142.994 114.474 142.996C114.406 143.032 114.336 143.064 114.264 143.092C114.116 143.152 113.966 143.196 113.808 143.224L107.27 144.412L88.682 147.79L85.096 148.442L81.262 149.138C80.472 150.032 79.662 150.916 78.834 151.788L89.54 149.844V149.848Z" fill="#D8E0E0"/>
    <mask id="mask0_5651_30909" style="mask-type:alpha" maskUnits="userSpaceOnUse" x="65" y="48" width="54" height="105">
        <path d="M65.1996 60.442C65.1996 60.616 65.2076 60.792 65.2256 60.968V60.972L67.5676 84.758L71.2576 122.238L73.8056 148.116C73.8516 148.568 73.9496 148.994 74.0976 149.39C74.1176 149.444 74.1436 149.496 74.1656 149.55C74.1816 149.586 74.1956 149.624 74.2116 149.66C74.2316 149.706 74.2536 149.752 74.2756 149.796C74.3196 149.888 74.3656 149.978 74.4136 150.064C74.4536 150.134 74.4956 150.204 74.5396 150.272C74.6256 150.408 74.7196 150.54 74.8216 150.664C74.8716 150.726 74.9236 150.784 74.9756 150.844C75.0076 150.882 75.0416 150.918 75.0776 150.954C75.0996 150.978 75.1236 151.002 75.1476 151.026C75.1916 151.07 75.2356 151.112 75.2816 151.152C75.3476 151.214 75.4156 151.272 75.4856 151.328C75.5156 151.354 75.5476 151.378 75.5776 151.4C75.6076 151.422 75.6376 151.444 75.6676 151.466C75.6716 151.47 75.6756 151.472 75.6816 151.472C75.7536 151.524 75.8296 151.574 75.9036 151.62C75.9076 151.624 75.9096 151.626 75.9136 151.626C75.9876 151.672 76.0656 151.716 76.1416 151.756C76.2216 151.8 76.3016 151.84 76.3856 151.874C76.4676 151.912 76.5496 151.944 76.6356 151.976C76.8936 152.07 77.1636 152.136 77.4396 152.172C77.4836 152.178 77.5296 152.186 77.5756 152.19C77.9456 152.228 78.3256 152.212 78.7136 152.142L79.1396 152.066L89.8456 150.122L114.33 145.672C114.518 145.636 114.704 145.59 114.884 145.532C114.908 145.526 114.932 145.516 114.956 145.51H114.96C115.008 145.49 115.056 145.472 115.102 145.456C115.12 145.45 115.14 145.442 115.156 145.436C115.156 145.436 115.158 145.434 115.158 145.436C115.216 145.412 115.27 145.39 115.324 145.364C115.33 145.362 115.338 145.358 115.344 145.356C115.412 145.326 115.478 145.294 115.542 145.262H115.544C115.608 145.226 115.672 145.192 115.732 145.158C115.856 145.086 115.974 145.01 116.088 144.93C116.25 144.816 116.406 144.692 116.554 144.558C116.568 144.548 116.578 144.536 116.59 144.528C116.59 144.528 116.59 144.527 116.592 144.524H116.594C116.646 144.476 116.698 144.426 116.748 144.374H116.75C116.772 144.352 116.794 144.328 116.814 144.306C116.836 144.284 116.858 144.26 116.88 144.236C116.916 144.198 116.948 144.162 116.982 144.124C117.02 144.082 117.056 144.038 117.092 143.994C117.12 143.962 117.146 143.926 117.176 143.89H117.178C117.178 143.89 117.18 143.888 117.18 143.886C117.99 142.84 118.43 141.458 118.29 140.034L109.708 52.894C109.676 52.564 109.614 52.246 109.526 51.948C109.072 50.404 107.924 49.276 106.51 48.92C106.506 48.92 106.5 48.918 106.494 48.916C106.45 48.904 106.406 48.896 106.362 48.888C106.318 48.88 106.274 48.87 106.228 48.862C106.14 48.846 106.05 48.834 105.96 48.824C105.916 48.82 105.872 48.816 105.826 48.81H105.82C105.778 48.806 105.738 48.806 105.696 48.804C105.402 48.79 105.1 48.812 104.796 48.868L90.8296 51.406C90.8296 51.406 90.8296 51.408 90.8276 51.408L69.1836 55.342H69.1796C69.1276 55.35 69.0736 55.362 69.0216 55.374C69.0196 55.374 69.0176 55.376 69.0176 55.376C68.9696 55.384 68.9216 55.396 68.8756 55.408C68.8736 55.408 68.8716 55.408 68.8676 55.41L68.8156 55.424C68.7956 55.428 68.7756 55.434 68.7536 55.442C68.7096 55.456 68.6676 55.468 68.6236 55.482C68.6016 55.488 68.5816 55.496 68.5596 55.504C68.4916 55.528 68.4236 55.554 68.3556 55.578C68.3556 55.578 68.3549 55.5787 68.3536 55.58C68.2856 55.606 68.2196 55.634 68.1516 55.666C68.1216 55.68 68.0896 55.694 68.0596 55.71C68.0296 55.724 67.9976 55.738 67.9696 55.756C67.9656 55.758 67.9636 55.758 67.9616 55.76C67.8856 55.8 67.8076 55.844 67.7316 55.888C67.7256 55.89 67.7176 55.892 67.7136 55.896C67.6976 55.904 67.6836 55.914 67.6696 55.922C67.6316 55.944 67.5956 55.968 67.5576 55.992C67.5116 56.022 67.4656 56.058 67.4196 56.09C67.3956 56.108 67.3696 56.124 67.3456 56.142C67.3056 56.172 67.2616 56.198 67.2216 56.23C67.1676 56.276 67.1096 56.322 67.0576 56.37C67.0416 56.382 67.0276 56.394 67.0116 56.408C66.9956 56.422 66.9816 56.434 66.9656 56.448C66.8956 56.508 66.8296 56.572 66.7636 56.636C66.7496 56.646 66.7396 56.66 66.7256 56.674C66.7116 56.69 66.6976 56.704 66.6836 56.72C66.6576 56.744 66.6356 56.768 66.6156 56.794C66.5956 56.812 66.5776 56.832 66.5636 56.848C66.5576 56.854 66.5476 56.864 66.5416 56.872C66.5016 56.916 66.4616 56.962 66.4256 57.01C66.4056 57.032 66.3876 57.056 66.3676 57.078C66.3576 57.094 66.3456 57.106 66.3376 57.12C66.2916 57.178 66.2496 57.234 66.2056 57.296C66.1616 57.358 66.1196 57.42 66.0776 57.484C66.0696 57.498 66.0596 57.51 66.0516 57.524C66.0356 57.55 66.0196 57.576 66.0056 57.604C65.9816 57.64 65.9596 57.674 65.9396 57.712C65.9176 57.75 65.8956 57.786 65.8756 57.824C65.8596 57.85 65.8476 57.876 65.8336 57.904C65.8076 57.952 65.7836 58 65.7596 58.048C65.7276 58.114 65.6936 58.182 65.6636 58.252C65.6276 58.334 65.5936 58.416 65.5616 58.5C65.5576 58.51 65.5536 58.52 65.5476 58.53C65.5236 58.594 65.5016 58.66 65.4796 58.726C65.4696 58.762 65.4556 58.794 65.4476 58.83C65.4256 58.9 65.4036 58.972 65.3836 59.046C65.3596 59.136 65.3376 59.224 65.3196 59.314C65.2996 59.4 65.2836 59.488 65.2696 59.576C65.2676 59.598 65.2636 59.62 65.2616 59.642C65.2516 59.704 65.2436 59.766 65.2376 59.826C65.2336 59.854 65.2296 59.886 65.2296 59.914C65.2196 59.996 65.2116 60.076 65.2096 60.158C65.2036 60.254 65.2016 60.35 65.2016 60.446L65.1996 60.442Z" fill="#E3F7FF"/>
    </mask>
    <g mask="url(#mask0_5651_30909)">
        <path d="M43.3955 112.266C45.7555 110.606 47.2894 108.048 48.9274 105.672C50.8214 102.922 53.0395 100.25 56.0175 98.7219C58.9935 97.1939 62.8875 97.0598 65.4915 99.1578C68.6955 101.744 68.8795 106.432 70.0455 110.384C70.9095 113.314 72.5515 116.142 75.1535 117.736C76.9455 118.832 79.0574 119.272 81.1334 119.54C84.3795 119.956 87.9635 119.908 90.5575 117.906C93.1735 115.878 94.1095 112.392 96.0015 109.676C97.2995 107.82 99.1335 106.276 101.317 105.662C103.493 105.048 106.019 105.482 107.661 107.044C110.233 109.494 109.937 113.572 110.689 117.038C112.369 124.8 120.045 130.132 127.881 131.424C129.443 131.68 131.107 131.844 132.389 132.776C134.685 134.444 134.817 137.78 134.557 140.608C134.377 142.58 134.063 144.67 132.751 146.148C131.369 147.706 129.193 148.244 127.149 148.614C114.483 150.93 101.479 150.118 88.6334 149.298C77.3574 148.576 65.9895 147.842 55.0995 144.836C53.3695 144.36 51.5955 143.792 50.2375 142.618C47.6755 140.4 47.2275 136.69 46.5075 133.384C45.4615 128.584 43.4835 123.99 40.7155 119.928C40.0755 118.992 36.2715 114.64 37.1115 113.754C37.5215 113.318 39.6395 113.71 40.2675 113.592C41.3935 113.382 42.4695 112.92 43.3955 112.266Z" fill="white"/>
        <path opacity="0.64" d="M132.398 132.784C131.116 131.852 129.452 131.696 127.89 131.432C120.062 130.138 112.384 124.8 110.698 117.046C109.944 113.58 110.242 109.502 107.67 107.05C107.358 106.75 107.004 106.492 106.634 106.27C106.258 107.362 105.81 108.44 105.268 109.45C104.59 110.718 103.728 111.878 102.726 112.91C101.666 114 100.432 114.842 99.2516 115.794C98.6436 116.284 97.8376 117.006 96.9996 116.656C96.4196 116.414 96.0516 115.82 95.7896 115.284C95.2516 114.172 94.9696 112.9 94.8416 111.642C93.6136 113.92 92.5995 116.356 90.5755 117.92C87.9835 119.922 84.3996 119.97 81.1516 119.554C79.0696 119.288 76.9576 118.848 75.1716 117.75C72.5696 116.154 70.9276 113.328 70.0636 110.398C68.8976 106.448 68.7136 101.76 65.5096 99.1719C62.9056 97.0719 59.0116 97.2058 56.0356 98.7358C53.0436 100.254 50.8255 102.926 48.9315 105.676C47.2915 108.052 45.7596 110.61 43.3996 112.27C42.4736 112.922 41.3975 113.386 40.2855 113.6C39.6555 113.72 37.5395 113.334 37.1295 113.762C36.2895 114.642 40.0935 119 40.7335 119.936C43.4995 123.998 45.4795 128.594 46.5255 133.392C47.2455 136.698 47.6956 140.416 50.2556 142.626C51.6136 143.802 53.3856 144.368 55.1176 144.844C66.0096 147.848 77.3776 148.584 88.6516 149.306C101.504 150.124 114.508 150.936 127.168 148.622C129.212 148.244 131.388 147.714 132.77 146.156C134.084 144.678 134.394 142.58 134.576 140.616C134.826 137.782 134.696 134.454 132.4 132.786L132.398 132.784Z" fill="#F3F3F3"/>
        <path d="M60.3415 116.192C72.4135 109.304 72.6136 97.9598 79.4656 95.9418C91.6676 92.3358 91.8696 114.24 93.4056 118.66C94.2676 121.128 95.7516 123.512 98.0616 124.728C107.59 129.73 119.012 115.544 120.184 114.706C122.714 112.906 126.36 112.074 128.852 113.924C133.364 117.278 130.26 125.704 134.638 129.24C136.804 130.992 139.998 130.726 142.592 129.718C170.538 118.886 182.352 148.33 180.94 151.276C179.26 154.77 164.974 151.824 161.302 153.074C144.306 158.858 126.098 159.796 108.164 160.68C98.8536 161.142 89.5376 161.598 80.2156 161.694C71.0976 161.77 61.6896 161.558 53.2036 164.914C47.6576 154.152 45.0255 142.162 42.7295 130.276C42.2455 127.76 40.5855 118.018 44.9375 118.394C47.6435 118.632 49.9475 119.274 52.7375 118.856C55.4055 118.458 57.9995 117.532 60.3455 116.192H60.3415Z" fill="#F3F3F3"/>
        <g opacity="0.34">
            <path opacity="0.34" d="M85.9035 97.5218C92.0175 108.044 66.9595 112.964 74.7555 132.85C77.9395 140.974 90.9555 147.62 107.167 125.322C107.311 125.07 107.471 124.828 107.639 124.594C104.529 125.938 101.195 126.364 98.0675 124.72C95.7575 123.504 94.2655 121.122 93.4115 118.652C92.1395 115.024 91.7794 99.5998 84.9254 96.2078C85.2974 96.6078 85.6255 97.0438 85.9055 97.5218H85.9035Z" fill="#A4A4A4"/>
            <path opacity="0.34" d="M98.1876 127.338C98.0096 127.886 98.0336 128.476 98.5236 128.85C99.0216 129.222 99.6656 129.198 100.228 129.006C101.248 128.662 102.202 127.88 102.79 126.988C103.048 126.592 103.26 126.17 103.45 125.738C102.106 125.874 100.752 125.754 99.4256 125.306C98.9056 125.912 98.4236 126.58 98.1836 127.338H98.1876Z" fill="#888888"/>
        </g>
        <path d="M78.3894 100.376C78.5574 100.14 78.6294 99.8318 78.4774 99.5878C78.3914 99.4438 78.2514 99.3498 78.0954 99.2858C77.6034 99.0718 77.0114 99.1699 76.5354 99.4159C76.0594 99.6679 75.6674 100.052 75.2834 100.44C75.6674 99.9678 76.0534 99.4738 76.2034 98.8838C76.3454 98.2938 76.1634 97.5778 75.6334 97.2938C75.1474 97.0358 74.5534 97.1979 74.0514 97.4199C73.0354 97.8659 72.1254 98.5438 71.3954 99.3778C70.9194 99.9198 69.9854 100.976 69.9954 101.782L78.3874 100.376H78.3894Z" fill="#D8D8D8"/>
        <path d="M75.8994 99.8619C75.7754 100.152 76.3654 100.164 76.5274 100.144C76.8994 100.102 77.2534 99.8979 77.5294 99.6579C77.6794 99.5299 77.8074 99.3759 77.9034 99.2159C77.4554 99.0979 76.9534 99.1959 76.5354 99.4179C76.3074 99.5399 76.0974 99.6839 75.9034 99.8559C75.9034 99.8559 75.9034 99.8619 75.8974 99.8639L75.8994 99.8619Z" fill="white"/>
        <path d="M71.8935 100.678C72.9195 100.576 74.1895 100.362 74.8835 99.5198C75.2915 99.0238 75.5596 98.2318 75.1656 97.6558C75.0476 97.4818 74.8815 97.3238 74.6955 97.2018C74.4755 97.2458 74.2615 97.3298 74.0555 97.4198C73.0395 97.8658 72.1295 98.5438 71.3995 99.3778C71.1215 99.6938 70.6796 100.196 70.3676 100.718C70.8716 100.758 71.3915 100.732 71.8935 100.676V100.678Z" fill="#F3F3F3"/>
        <path d="M100.653 116.752C100.923 116.374 101.039 115.878 100.795 115.486C100.657 115.254 100.431 115.104 100.181 115.002C99.3915 114.658 98.4435 114.816 97.6795 115.21C96.9155 115.614 96.2875 116.23 95.6735 116.854C96.2895 116.098 96.9095 115.306 97.1495 114.356C97.3795 113.408 97.0855 112.26 96.2355 111.804C95.4575 111.392 94.5035 111.65 93.6995 112.008C92.0695 112.724 90.6115 113.812 89.4395 115.15C88.6775 116.02 87.1775 117.712 87.1935 119.006L100.653 116.75V116.752Z" fill="#D8D8D8"/>
        <path d="M96.6596 115.926C96.4616 116.392 97.4057 116.41 97.6657 116.378C98.2637 116.31 98.8297 115.984 99.2737 115.598C99.5157 115.392 99.7176 115.146 99.8756 114.888C99.1576 114.698 98.3516 114.856 97.6816 115.212C97.3156 115.406 96.9777 115.64 96.6697 115.914C96.6697 115.914 96.6696 115.924 96.6596 115.926Z" fill="#F3F3F3"/>
        <path d="M90.2315 117.236C91.8775 117.072 93.9135 116.73 95.0275 115.38C95.6815 114.584 96.1115 113.314 95.4795 112.39C95.2895 112.112 95.0235 111.856 94.7255 111.662C94.3715 111.732 94.0295 111.868 93.6975 112.012C92.0675 112.728 90.6095 113.816 89.4375 115.154C88.9915 115.662 88.2835 116.466 87.7815 117.304C88.5895 117.368 89.4255 117.328 90.2295 117.238L90.2315 117.236Z" fill="#F3F3F3"/>
    </g>
    <path d="M93.3839 101.656C91.5799 101.866 89.8139 101.708 88.1519 101.236C83.0939 99.802 79.0079 95.474 77.8019 89.852C77.6939 89.358 77.6119 88.85 77.5499 88.336C76.5839 80.07 82.1039 72.628 89.8819 71.718C91.9399 71.478 93.9479 71.718 95.8079 72.354C97.0619 72.782 98.2479 73.392 99.3359 74.158C102.736 76.54 105.176 80.432 105.716 85.038C106.682 93.304 101.162 100.746 93.3839 101.656Z" fill="#74A352"/>
    <path d="M100.312 79.252L92.2159 94.1L86.4519 88.482L84.1859 86.274C84.6079 85.866 86.4239 84.29 88.0859 85.882L89.0319 86.826L91.5859 89.374L98.6419 79.6H98.6539C98.9579 79.232 99.5339 78.738 100.314 79.252H100.312Z" fill="#E8E8E8"/>
    <path opacity="0.31" d="M95.8099 72.354C95.8599 77.134 93.1998 82.306 88.4318 85.88C88.2098 86.052 87.9799 86.216 87.7479 86.376C87.1279 86.802 86.4939 87.19 85.8539 87.536C83.2299 88.96 80.4559 89.724 77.8039 89.852C77.6959 89.358 77.6139 88.85 77.5519 88.336C76.5859 80.07 82.1058 72.628 89.8838 71.718C91.9418 71.478 93.9499 71.718 95.8099 72.354Z" fill="#BDDA97"/>
    <path d="M88.2299 86.028C88.0719 86.15 87.9099 86.264 87.7459 86.376C87.1259 86.802 86.4919 87.19 85.8519 87.536C85.7719 87.58 85.6919 87.6221 85.6119 87.6621L84.1859 86.2741C84.6079 85.8661 86.4259 84.29 88.0859 85.884L88.2299 86.028Z" fill="white"/>
    <path opacity="0.26" d="M93.384 101.656C91.58 101.866 89.814 101.708 88.152 101.236C90.662 99.998 93.008 98.2721 95.024 96.0721C100.91 89.6481 102.33 81.0161 99.336 74.1601C102.736 76.5421 105.176 80.434 105.716 85.04C106.682 93.306 101.162 100.748 93.384 101.658V101.656Z" fill="#3E5C2E"/>
    <path d="M89.016 53.622C89.546 52.808 90.0519 51.9799 90.5259 51.1299L68.874 55.066C66.428 55.512 64.652 58.036 64.918 60.7L67.604 87.944C67.828 87.536 68.062 87.1319 68.296 86.7299C68.64 86.1339 68.9859 85.5339 69.3319 84.9339L67.5319 66.638L66.912 60.34C66.766 58.874 67.748 57.4799 69.092 57.2359L74.314 56.2859L89.016 53.624V53.622Z" fill="#D8E0E0"/>
    <path d="M69.0138 57.252C69.0398 57.248 69.0638 57.242 69.0878 57.2359L74.3098 56.2859L74.3138 56.2819L69.0918 57.2319C69.0778 57.2339 69.0658 57.236 69.0518 57.24C69.0378 57.244 69.0258 57.248 69.0118 57.25L69.0138 57.252ZM64.8998 60.418C64.8998 60.436 64.9018 60.45 64.9018 60.468C64.9058 60.548 64.9058 60.626 64.9158 60.706L67.2578 84.486L70.9478 121.964L73.4958 147.844C73.5398 148.296 73.6398 148.724 73.7918 149.12C73.8118 149.178 73.8378 149.228 73.8598 149.282C73.8758 149.318 73.8878 149.352 73.9038 149.386C73.9558 149.504 74.0139 149.618 74.0739 149.73C74.0879 149.75 74.0978 149.772 74.1098 149.794C74.1118 149.798 74.1138 149.8 74.1158 149.804C74.1518 149.864 74.1839 149.922 74.2219 149.98C74.2259 149.986 74.2298 149.996 74.2358 150.002C74.2818 150.074 74.3298 150.146 74.3838 150.218C74.4058 150.248 74.4298 150.278 74.4518 150.308L74.5178 150.394C74.5678 150.456 74.6199 150.514 74.6719 150.574C74.7039 150.612 74.7379 150.648 74.7739 150.684C74.7879 150.7 74.8019 150.716 74.8219 150.732C74.8259 150.74 74.8358 150.75 74.8438 150.756C74.8878 150.8 74.9318 150.842 74.9778 150.882C75.0438 150.944 75.1118 151.002 75.1818 151.058C75.2118 151.084 75.2439 151.108 75.2739 151.13C75.3039 151.152 75.3338 151.174 75.3638 151.196C75.3678 151.2 75.3718 151.202 75.3778 151.202C75.4498 151.254 75.5258 151.304 75.5998 151.35C75.6038 151.354 75.6058 151.356 75.6098 151.356C75.6458 151.378 75.6798 151.4 75.7158 151.42C75.7218 151.424 75.7318 151.428 75.7378 151.434C75.7698 151.454 75.8058 151.472 75.8398 151.486C75.8878 151.512 75.9378 151.536 75.9898 151.56C76.0058 151.568 76.0198 151.576 76.0358 151.584C76.0518 151.59 76.0678 151.598 76.0838 151.604C76.1658 151.642 76.2478 151.674 76.3338 151.706C76.5918 151.8 76.8618 151.866 77.1378 151.902C77.1378 151.902 77.1398 151.904 77.1418 151.904C77.1858 151.91 77.2279 151.914 77.2739 151.92C77.6439 151.958 78.0238 151.942 78.4118 151.872L78.8378 151.796L89.5438 149.85L114.028 145.402C114.216 145.366 114.402 145.32 114.582 145.262C114.606 145.256 114.63 145.246 114.654 145.24H114.658C114.706 145.22 114.754 145.202 114.8 145.186C114.818 145.18 114.838 145.172 114.854 145.166H114.856C114.874 145.158 114.894 145.148 114.91 145.14C114.948 145.124 114.984 145.11 115.022 145.094C115.028 145.092 115.036 145.088 115.042 145.086C115.11 145.056 115.176 145.024 115.24 144.992H115.242C115.306 144.956 115.37 144.922 115.43 144.888C115.554 144.816 115.672 144.74 115.786 144.66C115.948 144.546 116.104 144.422 116.252 144.288C116.266 144.278 116.276 144.266 116.288 144.258C116.29 144.256 116.29 144.254 116.292 144.254C116.344 144.206 116.396 144.156 116.446 144.104H116.448C116.47 144.082 116.492 144.058 116.512 144.036C116.534 144.014 116.556 143.99 116.578 143.966C116.614 143.928 116.646 143.892 116.68 143.854C116.718 143.812 116.754 143.768 116.79 143.724C116.818 143.692 116.844 143.656 116.874 143.62H116.876V143.616H116.878C116.878 143.616 116.886 143.6 116.894 143.592C116.9 143.586 116.904 143.578 116.91 143.57C116.986 143.472 117.058 143.37 117.126 143.264C117.172 143.196 117.216 143.124 117.258 143.05C117.328 142.934 117.392 142.812 117.452 142.692C117.454 142.69 117.454 142.688 117.456 142.686C117.584 142.424 117.692 142.15 117.776 141.866C117.778 141.864 117.778 141.862 117.778 141.86C117.798 141.798 117.816 141.734 117.83 141.672C117.988 141.064 118.046 140.42 117.98 139.766L109.528 53.95L109.398 52.6299C109.366 52.2999 109.304 51.9839 109.214 51.6839C108.664 49.7999 107.074 48.5359 105.228 48.5359C105.168 48.5359 105.11 48.538 105.048 48.54C104.934 48.544 104.822 48.556 104.708 48.568C104.648 48.576 104.588 48.586 104.528 48.596C104.514 48.598 104.504 48.6 104.49 48.602L104.43 48.612L90.5258 51.138L88.4158 51.52L68.8719 55.074C68.8199 55.082 68.7658 55.094 68.7138 55.104C68.6638 55.114 68.6098 55.128 68.5598 55.142C68.5078 55.156 68.4558 55.1699 68.4058 55.1839C68.3558 55.1979 68.3038 55.2139 68.2538 55.2319C68.1858 55.2559 68.1178 55.282 68.0498 55.306C68.0498 55.306 68.0492 55.3066 68.0478 55.308C67.9798 55.334 67.9138 55.362 67.8458 55.394C67.8078 55.41 67.7718 55.426 67.7358 55.446C67.7118 55.46 67.6878 55.4699 67.6658 55.4839H67.6638C67.5178 55.5559 67.3778 55.6379 67.2418 55.7279C67.1978 55.7559 67.1578 55.79 67.1138 55.82C67.0878 55.838 67.0638 55.856 67.0398 55.872C66.9998 55.9 66.9558 55.93 66.9178 55.96C66.8678 56 66.8158 56.0399 66.7678 56.0779C66.6598 56.1679 66.5578 56.262 66.4578 56.366C66.4478 56.38 66.4339 56.39 66.4199 56.404C66.3919 56.434 66.3598 56.466 66.3298 56.498C66.2578 56.578 66.1879 56.658 66.1199 56.742C66.0999 56.764 66.0818 56.788 66.0618 56.81C66.0018 56.88 65.9478 56.9519 65.8998 57.0279C65.8578 57.0899 65.8158 57.148 65.7758 57.21C65.7618 57.226 65.7538 57.24 65.7458 57.256C65.7378 57.27 65.7279 57.282 65.7219 57.298C65.5779 57.526 65.4518 57.766 65.3438 58.016C65.3218 58.068 65.2998 58.1219 65.2778 58.1759C65.2718 58.1939 65.2618 58.2139 65.2558 58.2299C65.2398 58.2679 65.2278 58.306 65.2138 58.344C65.1978 58.386 65.1859 58.428 65.1699 58.47C65.0999 58.68 65.0418 58.896 64.9998 59.116C64.9818 59.202 64.9678 59.286 64.9538 59.37C64.9398 59.458 64.9299 59.548 64.9219 59.638C64.8959 59.896 64.8898 60.156 64.8998 60.42V60.418ZM69.4538 86.208L69.3278 84.938L67.9978 71.4319L67.5258 66.64L66.9058 60.342C66.8618 59.9 66.9218 59.464 67.0638 59.066C67.1058 58.952 67.1518 58.8379 67.2038 58.7299C67.2398 58.6579 67.2778 58.588 67.3178 58.522C67.3178 58.52 67.3199 58.518 67.3199 58.518C67.3619 58.448 67.4058 58.382 67.4518 58.316C67.4758 58.284 67.4999 58.25 67.5239 58.22C67.5459 58.188 67.5718 58.1579 67.5978 58.1279C67.7018 58.0039 67.8138 57.892 67.9338 57.792C67.9618 57.766 67.9938 57.74 68.0258 57.718C68.0418 57.704 68.0559 57.6939 68.0739 57.6819C68.1199 57.6459 68.1678 57.6139 68.2158 57.5839C68.2318 57.5739 68.2458 57.564 68.2598 57.558C68.3118 57.526 68.3659 57.494 68.4199 57.466C68.4439 57.452 68.4698 57.4419 68.4938 57.4299C68.5178 57.4159 68.5418 57.408 68.5678 57.398C68.6138 57.376 68.6598 57.358 68.7058 57.344C68.7338 57.334 68.7638 57.324 68.7938 57.316C68.8618 57.294 68.9338 57.276 69.0078 57.258C69.0338 57.254 69.0578 57.248 69.0818 57.242L74.3038 56.292L74.3078 56.288L89.0158 53.616L90.4438 53.356L104.698 50.766C105.778 50.57 106.772 51.172 107.2 52.174C107.304 52.422 107.376 52.6939 107.404 52.9839L107.93 58.34L107.944 58.4759L115.392 134.08L115.988 140.12C116.034 140.572 115.972 141.016 115.824 141.42C115.786 141.526 115.742 141.628 115.694 141.728C115.692 141.73 115.69 141.732 115.69 141.734C115.638 141.842 115.578 141.948 115.51 142.048C115.488 142.084 115.466 142.116 115.442 142.15C115.42 142.182 115.396 142.214 115.372 142.244C115.3 142.338 115.22 142.426 115.14 142.51C114.972 142.68 114.784 142.824 114.58 142.94C114.55 142.96 114.516 142.978 114.484 142.992C114.482 142.996 114.478 142.996 114.474 142.998C114.406 143.034 114.336 143.066 114.264 143.094C114.116 143.154 113.966 143.198 113.808 143.226L107.27 144.414L88.6818 147.792L85.0958 148.444L81.2618 149.14L78.1958 149.698C76.8478 149.942 75.6358 148.946 75.4898 147.48L74.8158 140.634L73.1878 124.098L69.4558 86.206L69.4538 86.208ZM69.0138 57.252C69.0398 57.248 69.0638 57.242 69.0878 57.2359L74.3098 56.2859L74.3138 56.2819L69.0918 57.2319C69.0778 57.2339 69.0658 57.236 69.0518 57.24C69.0378 57.244 69.0258 57.248 69.0118 57.25L69.0138 57.252Z" fill="#CDD5D4"/>
    <path d="M89.54 149.848L114.024 145.398C114.212 145.362 114.398 145.316 114.578 145.258C114.602 145.252 114.626 145.242 114.65 145.234C114.7 145.218 114.748 145.202 114.798 145.182C114.816 145.176 114.836 145.168 114.852 145.162C114.852 145.162 114.853 145.162 114.854 145.162C114.872 145.154 114.892 145.144 114.908 145.136C115.02 145.092 115.13 145.042 115.238 144.986H115.24C115.304 144.95 115.368 144.916 115.428 144.882C115.552 144.81 115.67 144.734 115.784 144.654C115.946 144.54 116.102 144.416 116.25 144.282C116.264 144.272 116.276 144.258 116.288 144.246H116.29C116.342 144.198 116.394 144.148 116.444 144.096C116.488 144.052 116.534 144.006 116.576 143.958C116.65 143.882 116.718 143.8 116.786 143.716C116.814 143.684 116.84 143.648 116.87 143.612C116.87 143.612 116.87 143.61 116.872 143.608C116.882 143.592 116.896 143.578 116.904 143.562C116.98 143.464 117.052 143.362 117.12 143.256C117.166 143.188 117.21 143.116 117.252 143.042C117.322 142.926 117.386 142.804 117.446 142.684C117.448 142.682 117.448 142.68 117.45 142.678C117.578 142.416 117.686 142.142 117.77 141.858C117.772 141.856 117.772 141.854 117.772 141.852C117.972 141.19 118.048 140.478 117.978 139.756L109.526 53.9259C109.526 53.9259 109.524 53.9339 109.522 53.9399C109.41 54.3039 109.294 54.6619 109.174 55.0279C108.802 56.1419 108.384 57.2499 107.932 58.3359L107.946 58.472L115.386 134.082L115.982 140.122C116.04 140.688 115.928 141.242 115.694 141.726C115.692 141.728 115.69 141.73 115.69 141.732C115.618 141.876 115.536 142.016 115.442 142.148C115.42 142.18 115.396 142.212 115.372 142.242C115.3 142.336 115.22 142.424 115.14 142.508C114.972 142.678 114.784 142.822 114.58 142.938C114.55 142.958 114.516 142.976 114.484 142.99C114.482 142.994 114.478 142.994 114.474 142.996C114.406 143.032 114.336 143.064 114.264 143.092C114.116 143.152 113.966 143.196 113.808 143.224L107.27 144.412L88.682 147.79L85.096 148.442L81.262 149.138C80.472 150.032 79.662 150.916 78.834 151.788L89.54 149.844V149.848Z" fill="#D8E0E0"/>
    <path d="M88.4139 51.5139C89.2219 52.3219 89.4659 52.5619 90.4499 53.3519L89.0219 53.6119L74.3139 56.2839L69.0919 57.2339C69.0779 57.2359 69.0659 57.2379 69.0519 57.2419C68.9659 57.2579 68.8799 57.2799 68.7999 57.3099C68.7699 57.3159 68.7399 57.3279 68.7119 57.3379C68.6659 57.3539 68.6199 57.3699 68.5739 57.3919C68.5499 57.3999 68.5239 57.4119 68.4999 57.4239C68.4759 57.4339 68.4499 57.4459 68.4259 57.4599C68.3719 57.4879 68.3179 57.5199 68.2659 57.5519C68.2519 57.5579 68.2379 57.5679 68.2219 57.5779C68.1739 57.6079 68.1259 57.6419 68.0799 57.6759C68.0619 57.6859 68.0479 57.6979 68.0319 57.7119C68.0019 57.7359 67.9699 57.7599 67.9399 57.7859C67.8199 57.8879 67.7079 57.9999 67.6039 58.1219C67.5779 58.1519 67.5539 58.1839 67.5299 58.2139C67.5059 58.2439 67.4819 58.2779 67.4579 58.3099C67.4119 58.3759 67.3679 58.4419 67.3259 58.5119C67.3259 58.5119 67.3239 58.5139 67.3239 58.5159C67.2839 58.5839 67.2439 58.6519 67.2099 58.7239C67.1579 58.8319 67.1119 58.9459 67.0699 59.0599C67.0559 59.0999 67.0439 59.1359 67.0319 59.1759C67.0079 59.2559 66.9859 59.3359 66.9679 59.4159C66.9059 59.7119 66.8859 60.0199 66.9179 60.3319L67.5379 66.6299L68.0039 71.4259L69.4759 86.6079L67.2799 84.4119L64.9239 60.6919C64.9179 60.6159 64.9099 60.5399 64.9059 60.4639C64.9059 60.4459 64.9039 60.4319 64.9039 60.4139C64.9019 60.3739 64.8999 60.3319 64.9019 60.2939C64.8959 60.1619 64.8979 60.0299 64.9059 59.8999C64.9099 59.8099 64.9159 59.7199 64.9259 59.6319C64.9339 59.5419 64.9459 59.4519 64.9579 59.3639C64.9719 59.2779 64.9859 59.1939 65.0039 59.1099C65.0459 58.8899 65.1019 58.6759 65.1739 58.4639C65.1899 58.4219 65.2019 58.3799 65.2179 58.3379C65.2319 58.2999 65.2439 58.2619 65.2599 58.2239C65.2659 58.2059 65.2759 58.1859 65.2819 58.1699C65.3039 58.1159 65.3259 58.0619 65.3479 58.0099C65.4559 57.7599 65.5799 57.5199 65.7259 57.2919C65.7439 57.2639 65.7619 57.2319 65.7799 57.2039C65.8199 57.1419 65.8619 57.0839 65.9039 57.0239C65.9739 56.9219 66.0459 56.8279 66.1239 56.7359C66.1919 56.6519 66.2619 56.5719 66.3339 56.4919C66.3639 56.4599 66.3959 56.4279 66.4239 56.3979C66.4379 56.3839 66.4499 56.3739 66.4619 56.3599C66.5599 56.2619 66.6639 56.1639 66.7719 56.0719C66.8199 56.0319 66.8699 55.9919 66.9219 55.9539C67.0279 55.8699 67.1359 55.7939 67.2479 55.7219C67.3839 55.6319 67.5239 55.5499 67.6699 55.4779C67.6939 55.4639 67.7179 55.4519 67.7419 55.4399C67.7779 55.4199 67.8139 55.4019 67.8519 55.3879C67.9199 55.3579 67.9859 55.3279 68.0539 55.3019C68.0539 55.3019 68.0546 55.3013 68.0559 55.2999C68.1239 55.2759 68.1919 55.2499 68.2599 55.2259C68.3099 55.2079 68.3619 55.1899 68.4119 55.1779C68.4619 55.1659 68.5139 55.1499 68.5659 55.1359C68.6159 55.1199 68.6679 55.1079 68.7199 55.0979L88.4219 51.5119L88.4139 51.5139Z" fill="#D8E0E0"/>
    <path d="M61.7975 81.5603C63.3246 81.3312 64.1847 78.6262 63.7186 75.5185C63.2525 72.4108 61.6367 70.0771 60.1095 70.3062C58.5824 70.5352 57.7223 73.2402 58.1885 76.3479C58.6546 79.4557 60.2704 81.7893 61.7975 81.5603Z" fill="#CDD5D4"/>
    <path d="M60.7 81.732L61.882 81.514C61.882 81.514 63.148 78.95 62.836 76.774C62.524 74.598 61.74 71.714 60.508 70.854L60.082 70.28L58.902 70.506L60.7 81.73V81.732Z" fill="#CDD5D4"/>
    <path d="M57.19 76.594C57.19 76.594 57.192 76.612 57.194 76.62C57.544 78.794 58.42 80.57 59.41 81.338C59.83 81.666 60.272 81.812 60.7 81.73C60.894 81.692 61.076 81.612 61.242 81.488C61.562 81.258 61.832 80.882 62.044 80.398C62.542 79.254 62.706 77.502 62.404 75.618C61.974 72.94 60.746 70.87 59.494 70.534C59.294 70.48 59.096 70.47 58.9 70.508C58.538 70.578 58.216 70.804 57.948 71.152C57.158 72.182 56.824 74.284 57.188 76.594H57.19Z" fill="#D8E0E0"/>
    <path d="M72.4149 53.77C75.5135 53.2953 77.9153 52.1918 77.7795 51.3052C77.6437 50.4187 75.0217 50.0848 71.9231 50.5595C68.8244 51.0342 66.4226 52.1377 66.5584 53.0243C66.6943 53.9109 69.3163 54.2447 72.4149 53.77Z" fill="#CDD5D4"/>
    <path d="M66.5858 53.14C66.5858 53.14 69.1998 53.662 71.3638 53.308C73.5278 52.954 76.7878 52.462 77.5978 51.684L77.7418 51.198C77.7418 51.198 77.6378 50.244 77.3778 50.146C77.1838 50.072 76.6538 50.55 76.6538 50.55L67.5758 51.866C67.5758 51.866 66.3938 51.82 66.3938 52.124C66.3938 52.564 66.5858 53.142 66.5858 53.142V53.14Z" fill="#CDD5D4"/>
    <path d="M66.4197 52.096C66.4197 52.096 66.4217 52.102 66.4237 52.106C66.4397 52.138 66.4597 52.172 66.4817 52.202H66.4837C66.4997 52.224 66.5157 52.244 66.5337 52.266C67.1737 52.93 69.7557 53.082 72.6037 52.584C74.9357 52.178 76.7757 51.454 77.3857 50.776C77.4397 50.714 77.4837 50.656 77.5197 50.594C77.5817 50.486 77.6097 50.378 77.5957 50.278C77.5937 50.236 77.5817 50.194 77.5677 50.152C77.2317 49.346 74.4617 49.126 71.3857 49.662C68.3057 50.198 66.0837 51.288 66.4197 52.094V52.096Z" fill="#D8E0E0"/>
    <path d="M63.6131 95.9731C65.1402 95.7441 66.0003 93.0391 65.5341 89.9313C65.068 86.8236 63.4522 84.49 61.9251 84.719C60.398 84.9481 59.5379 87.653 60.004 90.7608C60.4701 93.8685 62.086 96.2022 63.6131 95.9731Z" fill="#CDD5D4"/>
    <path d="M62.518 96.144L63.7 95.9259C63.7 95.9259 64.966 93.3619 64.654 91.1859C64.342 89.0099 63.5579 86.126 62.3259 85.266L61.9 84.692L60.72 84.918L62.518 96.142V96.144Z" fill="#CDD5D4"/>
    <path d="M62.5159 96.0973C63.964 95.878 64.757 93.1841 64.2871 90.0803C63.8171 86.9765 62.2622 84.6381 60.814 84.8574C59.3659 85.0766 58.5729 87.7705 59.0428 90.8743C59.5128 93.9781 61.0677 96.3165 62.5159 96.0973Z" fill="#D8E0E0"/>
    <path opacity="0.36" d="M103.834 105.936C103.326 106.628 102.826 107.296 102.306 107.978L103.834 105.936Z" fill="#B45F00"/>
    <path d="M158.188 151.094L156.59 152.268L133.572 169.166C131.952 165.23 131.69 162.58 130.994 160.894C130.994 160.892 130.992 160.892 130.992 160.89C130.326 159.292 129.27 158.566 126.278 158.434H126.266C122.77 158.28 118.596 156.424 114.548 153.894C107.534 149.518 100.902 143.132 98.8357 140.158C96.2037 136.366 92.0557 133.77 89.7477 132.202C88.7017 131.488 88.0337 130.986 88.0477 130.678C88.0817 130.06 88.7977 129.558 89.9137 129.224H89.9157C89.9357 129.22 90.0317 129.19 90.1997 129.142C91.8937 128.702 94.3597 128.612 96.7417 129.012C100.242 129.604 104.134 133.21 107.35 135.822C109.478 137.544 111.31 138.834 112.536 138.526C115.618 137.748 113.058 131.734 112.412 130.442H112.41C112.204 130.026 111.5 128.52 110.568 126.538C109.668 124.624 108.552 122.266 107.456 120.022C106.152 117.346 104.876 114.82 104.032 113.388C101.736 109.506 93.1637 96.1501 92.7257 90.8541C92.3677 86.5321 94.6017 85.9661 95.5997 86.2841C96.5037 86.5701 100.724 92.29 103.06 95.626C103.364 96.058 103.632 96.4481 103.86 96.7841C104.866 98.2661 108.086 102.158 111.016 105.644H111.018C112.462 107.358 113.836 108.976 114.842 110.158C115.832 111.318 116.47 112.06 116.47 112.06C116.47 112.06 116.634 111.55 117.004 110.852C118.01 108.938 120.54 105.61 125.36 107.53H125.364C125.764 107.692 126.18 107.886 126.612 108.122C126.864 108.258 127.12 108.408 127.38 108.572C127.38 108.572 127.464 108.476 127.624 108.318C127.646 108.296 127.672 108.27 127.696 108.248C127.714 108.23 127.734 108.21 127.758 108.186C127.84 108.106 127.932 108.02 128.036 107.922C128.116 107.85 128.2 107.776 128.292 107.696C129.41 106.736 131.438 105.352 133.646 105.552C135.544 105.72 136.76 106.434 137.516 107.132C137.518 107.134 137.52 107.136 137.52 107.14C138.34 107.898 138.612 108.642 138.612 108.642C138.612 108.642 138.848 108.426 139.258 108.168C140.044 107.67 141.462 107.018 143.086 107.4C144.418 107.714 145.614 108.516 146.588 109.442C147.426 110.238 148.1 111.124 148.554 111.872C149.488 113.406 154.68 121.86 156.484 133.708C156.588 134.374 156.678 135.05 156.754 135.732C157.186 139.538 157.438 142.73 157.73 145.622C157.77 146.014 157.808 146.392 157.842 146.752C157.88 147.132 157.912 147.496 157.942 147.834C158.118 149.838 158.19 151.1 158.19 151.1L158.188 151.094Z" fill="#D58500"/>
    <path opacity="0.36" d="M157.839 146.748L130.991 160.89L130.979 160.898C130.315 159.298 129.26 158.57 126.266 158.438C134.634 152.63 136.302 132.188 135.964 124.638L136.466 122.074C136.466 122.074 150.321 129.192 156.481 133.708C156.585 134.374 156.675 135.05 156.751 135.732C157.183 139.538 157.435 142.73 157.727 145.622C157.767 146.014 157.805 146.392 157.839 146.752V146.748Z" fill="#B45F00"/>
    <path opacity="0.18" d="M118.146 141.442C117.812 144.672 113.508 142.936 109.78 140.202C106.052 137.468 99.3417 131.504 89.9156 129.21C89.9356 129.206 90.0316 129.178 90.1996 129.13C91.8936 128.69 94.3596 128.6 96.7416 129.004C102.556 129.988 109.444 139.298 112.532 138.522C115.616 137.746 113.054 131.722 112.41 130.434C112.204 130.022 111.5 128.516 110.568 126.532C110.75 126.624 110.904 126.736 111.026 126.86C113.762 129.67 118.482 138.212 118.148 141.442H118.146Z" fill="#B45F00"/>
    <path opacity="0.4" d="M114.536 153.89C107.522 149.508 100.892 143.122 98.8276 140.146C96.1976 136.354 92.0496 133.756 89.7416 132.186C94.8656 132.248 98.1296 133.656 101.576 137.964C106.546 144.178 106.728 145.184 109.778 149.148C112.264 152.378 113.592 152.856 114.534 153.89H114.536Z" fill="#E2A040"/>
    <path opacity="0.4" d="M107.456 120.014C106.154 117.338 104.878 114.812 104.034 113.38C101.74 109.496 93.1736 96.138 92.7376 90.84C92.3816 86.518 94.6157 85.952 95.6137 86.27C95.1157 90.744 94.8676 94.968 99.7836 101.62C104.544 108.06 107.372 115.98 107.456 120.014Z" fill="#E2A040"/>
    <path opacity="0.36" d="M94.5498 87.4001C92.7298 90.2781 95.4338 93.63 97.6878 92.582C97.6878 92.582 96.2938 92.986 95.1178 90.744C93.9418 88.502 94.5498 87.4001 94.5498 87.4001Z" fill="#B45F00"/>
    <path opacity="0.36" d="M95.2998 134.736C94.7118 132.52 92.5138 131.228 89.7438 131.264C89.7438 131.264 91.7678 129.854 93.4658 131.214C95.1618 132.574 95.3018 134.736 95.3018 134.736H95.2998Z" fill="#B45F00"/>
    <path opacity="0.36" d="M115.994 139.952C115.248 143.928 109.78 138.46 107.346 135.814C109.47 137.538 111.302 138.828 112.53 138.52C115.612 137.744 113.054 131.728 112.41 130.436C112.532 130.592 116.73 136.032 115.994 139.952Z" fill="#B45F00"/>
    <path opacity="0.4" d="M111.022 105.638C101.33 105.406 103.07 98.6961 103.07 95.6181C103.374 96.0501 103.642 96.44 103.87 96.776C104.876 98.258 108.092 102.152 111.022 105.638Z" fill="#E2A040"/>
    <path opacity="0.36" d="M148.55 146.85C148.55 146.85 152.42 136.716 151.78 125.538C151.282 116.84 149.294 113.858 146.58 109.438H146.582C147.42 110.234 148.094 111.12 148.548 111.868C149.482 113.402 154.674 121.856 156.478 133.704C156.582 134.37 156.672 135.046 156.748 135.728C157.18 139.534 157.432 142.726 157.724 145.618C157.764 146.01 157.802 146.388 157.836 146.748C157.874 147.128 157.906 147.492 157.936 147.83L148.546 146.85H148.55Z" fill="#B45F00"/>
    <path opacity="0.36" d="M118.474 115.922C117.224 116 116.242 113.608 114.84 110.156C115.83 111.316 116.468 112.058 116.468 112.058C116.468 112.058 116.632 111.548 117.002 110.85C117.114 111.294 117.412 112.294 117.982 112.864C118.728 113.61 119.722 115.846 118.474 115.924V115.922Z" fill="#B45F00"/>
    <path opacity="0.36" d="M130.408 112.864C129.754 113.54 129.414 111.87 128.916 110.876C128.668 110.378 127.988 109.358 126.61 108.12C126.862 108.256 127.118 108.406 127.378 108.57C127.378 108.57 127.462 108.474 127.622 108.316C127.624 108.318 127.624 108.32 127.626 108.32C127.626 108.32 127.648 108.292 127.694 108.246C127.712 108.228 127.732 108.208 127.756 108.184C127.866 108.07 128.044 107.888 128.282 107.672L128.29 107.694C128.362 107.912 128.964 109.68 129.662 110.378C130.408 111.124 131.064 112.19 130.408 112.864Z" fill="#B45F00"/>
    <path opacity="0.36" d="M139.852 111.372C139.576 110.96 138.86 108.892 137.518 107.138C138.338 107.896 138.61 108.64 138.61 108.64C138.61 108.64 138.846 108.424 139.256 108.166C139.256 108.166 139.604 109.386 140.846 110.628C141.87 111.652 140.348 112.12 139.852 111.374V111.372Z" fill="#B45F00"/>
    <path d="M182.522 185.57C180.556 193.668 164.422 197.584 150.588 192.966C147.748 192.022 145.004 190.714 142.5 189.01C137.034 185.286 133.66 173.118 131.14 165.702C130.718 164.46 130.32 163.348 129.94 162.434C128.714 159.486 130.802 154.126 133.358 143.678C134.194 140.264 134.618 136.506 134.82 133.096C135.178 127.036 134.832 122.072 134.832 122.072C134.832 122.072 144.05 128.974 151.034 134.97C154.656 138.076 157.672 140.938 158.498 142.468C162.12 149.194 164.388 154.07 165.326 156.57C166.262 159.07 170.928 164.624 170.94 167.282C170.954 169.938 171.578 168.688 173.142 171.502C174.706 174.316 183.518 181.464 182.524 185.572L182.522 185.57Z" fill="#575771"/>
    <path opacity="0.25" d="M182.522 185.57C181.868 188.264 179.646 190.496 176.462 192.102C176.188 192.242 175.91 192.372 175.624 192.502C170.904 194.62 164.366 195.47 157.722 194.598C157.362 194.55 157.002 194.498 156.638 194.442C154.606 194.118 152.572 193.632 150.586 192.968C147.746 192.024 145.002 190.716 142.498 189.012C137.032 185.288 133.658 173.12 131.138 165.704C130.716 164.462 130.318 163.35 129.938 162.436C128.712 159.488 130.8 154.128 133.356 143.68C134.192 140.266 134.616 136.508 134.818 133.098C135.176 127.038 134.83 122.074 134.83 122.074C134.83 122.074 144.048 128.976 151.032 134.972C154.654 138.078 157.67 140.94 158.496 142.47C161.536 148.116 163.624 152.458 164.768 155.184C164.986 155.706 165.17 156.17 165.322 156.57C165.426 156.846 165.574 157.16 165.756 157.5C167.23 160.258 170.926 164.918 170.936 167.282C170.95 169.938 171.574 168.688 173.138 171.502C174.702 174.316 183.514 181.464 182.52 185.572L182.522 185.57Z" fill="#2B2B37"/>
    <path opacity="0.4" d="M121.184 109.83C120.082 111.726 123.572 112.032 125.564 111.27C126.148 111.054 126.842 110.694 126.808 110.22C126.784 109.596 125.782 109.12 124.962 108.89C123.418 108.482 121.758 108.816 121.186 109.828L121.184 109.83Z" fill="#E2A040"/>
    <path opacity="0.4" d="M132.134 108.116C131.082 109.51 134.386 109.866 136.276 109.36C136.83 109.216 137.488 108.97 137.458 108.61C137.438 108.138 136.49 107.742 135.714 107.54C134.254 107.178 132.678 107.372 132.132 108.116H132.134Z" fill="#E2A040"/>
    <path opacity="0.4" d="M142.374 108.682C141.402 109.666 143.468 110.406 144.798 110.256C145.186 110.216 145.666 110.106 145.72 109.812C145.806 109.428 145.274 108.976 144.814 108.708C143.944 108.214 142.882 108.156 142.374 108.682Z" fill="#E2A040"/>
    <path opacity="0.25" d="M182.522 185.57C180.556 193.668 164.422 197.584 150.588 192.966C152.372 188.548 154.724 182.29 155.054 179.306C155.596 174.422 150.786 174.248 153.138 167.218C155.49 160.188 156.292 151.464 151.036 134.982V134.97C154.654 138.076 157.672 140.938 158.496 142.468C162.118 149.194 164.386 154.07 165.324 156.57H165.326C166.262 159.072 170.926 164.624 170.938 167.282C170.952 169.938 171.576 168.688 173.14 171.502C174.114 173.252 177.89 176.678 180.368 180.01C181.874 182.034 182.898 184.018 182.522 185.572V185.57Z" fill="#2B2B37"/>
    <path opacity="0.25" d="M180.368 180.008C162.724 178.806 165.7 170.77 165.324 156.57H165.326C166.262 159.072 170.926 164.624 170.938 167.282C170.952 169.938 171.576 168.688 173.14 171.502C174.114 173.252 177.89 176.678 180.368 180.01V180.008Z" fill="#2B2B37"/>
    <path opacity="0.14" d="M142.534 152.452C141.63 156.04 139.214 159.15 136.616 161.63C134.994 163.186 133.15 164.592 131.14 165.704C130.718 164.462 130.32 163.35 129.94 162.436C128.714 159.488 130.802 154.128 133.358 143.68C134.194 140.266 134.618 136.508 134.82 133.098C136.694 135.188 138.388 137.448 139.766 139.866C141.926 143.632 143.614 148.294 142.534 152.454V152.452Z" fill="#A4A4A4"/>
    <path d="M176.462 192.102C176.188 192.242 175.91 192.372 175.624 192.502C171.772 185.254 166.57 177.354 164.37 174.63C164.318 174.58 164.278 174.514 164.226 174.46C162.528 182.678 160.126 189.468 157.722 194.596C157.362 194.548 157.002 194.496 156.638 194.44C159.742 187.78 162.25 179.436 163.436 173.546C156.976 166.496 146.066 160.746 145.962 160.68C144.898 160.042 143.73 159.238 142.64 159.31C142.074 159.354 141.85 157.996 142.414 157.95C143.592 157.878 144.798 158.576 145.94 159.274C146.054 159.338 157.678 165.856 163.698 172.264C164.694 166.846 165.182 161.068 164.77 155.18C164.988 155.702 165.172 156.166 165.324 156.566C165.428 156.842 165.576 157.156 165.758 157.496C165.904 161.798 165.608 166.038 165 170.084C164.838 171.13 164.664 172.142 164.476 173.156C164.682 173.388 164.882 173.634 165.084 173.892C167.378 176.832 172.602 184.766 176.462 192.1V192.102Z" fill="#2B2B37"/>
    <path d="M68.7497 47.25C70.0057 56.968 63.8137 65.7759 54.9177 66.9259C52.0197 67.2999 49.1897 66.816 46.6517 65.656C41.4537 63.276 37.4657 58.068 36.5657 51.608C36.5557 51.544 36.5477 51.48 36.5397 51.416C35.2837 41.698 41.4737 32.8899 50.3697 31.7399C53.9377 31.2779 57.3977 32.12 60.3457 33.922C61.3917 34.562 62.3757 35.3219 63.2737 36.1899C66.1517 38.9619 68.1777 42.818 68.7517 47.254L68.7497 47.25Z" fill="#E3F7FF"/>
    <path d="M68.7497 47.25C70.0057 56.968 63.8137 65.7759 54.9177 66.9259C52.0197 67.2999 49.1897 66.816 46.6517 65.656C41.4537 63.276 37.4657 58.068 36.5657 51.608C36.5557 51.544 36.5477 51.48 36.5397 51.416C35.2837 41.698 41.4737 32.8899 50.3697 31.7399C53.9377 31.2779 57.3977 32.12 60.3457 33.922C61.3917 34.562 62.3757 35.3219 63.2737 36.1899C66.1517 38.9619 68.1777 42.818 68.7517 47.254L68.7497 47.25Z" fill="#888888"/>
    <path d="M70.4397 46.882C71.6957 56.6 65.5038 65.408 56.6078 66.558C53.7098 66.932 50.8797 66.448 48.3417 65.288C43.1437 62.908 39.1558 57.7 38.2558 51.24C38.2458 51.176 38.2377 51.112 38.2297 51.048C36.9737 41.33 43.1638 32.522 52.0598 31.372C55.6278 30.91 59.0877 31.752 62.0357 33.554C63.0817 34.194 64.0658 34.954 64.9638 35.822C67.8418 38.594 69.8677 42.45 70.4417 46.886L70.4397 46.882Z" fill="#D9D9D9"/>
    <path d="M56.8954 58.3461C61.4602 57.3391 64.2271 52.2907 63.0755 47.0701C61.9239 41.8495 57.2898 38.4337 52.725 39.4406C48.1602 40.4476 45.3933 45.496 46.545 50.7166C47.6966 55.9372 52.3306 59.353 56.8954 58.3461Z" fill="#2B2B37"/>
    <path fill-rule="evenodd" clip-rule="evenodd" d="M53.7419 45.136C55.5219 44.852 57.3179 44.716 59.1179 45.478C60.1959 45.936 60.9599 46.766 61.2579 48.038C61.7259 50.032 60.7059 51.334 59.0239 51.47C58.3119 51.504 57.5939 51.484 56.8779 51.412C55.6199 51.328 54.4739 51.686 53.3779 52.266C52.8519 52.544 52.3559 52.892 51.7939 53.084C50.7379 53.446 49.5059 53.258 48.8419 52.124C47.9839 50.706 48.0999 48.854 49.1239 47.706C50.3759 46.258 52.0159 45.62 53.7459 45.134L53.7419 45.136Z" fill="white"/>
    <path fill-rule="evenodd" clip-rule="evenodd" d="M59.0758 48.0119C59.2458 48.7359 58.9458 49.4499 58.4198 49.5779C57.9538 49.6899 57.3538 49.1759 57.2038 48.5339C57.0398 47.8319 57.3298 47.1479 57.8518 47.0079C58.3738 46.8679 58.9098 47.3059 59.0738 48.0119H59.0758Z" fill="#464558"/>
    <path fill-rule="evenodd" clip-rule="evenodd" d="M52.1258 49.5459C52.2958 50.2699 51.9959 50.984 51.4699 51.112C51.0039 51.224 50.4038 50.71 50.2538 50.068C50.0898 49.366 50.3798 48.6819 50.9018 48.5419C51.4238 48.4019 51.9599 48.8399 52.1239 49.5459H52.1258Z" fill="#464558"/>
    <path opacity="0.35" d="M62.0357 33.552C62.3317 36.348 61.8037 39.318 60.5337 42.09C59.9697 43.312 59.2658 44.498 58.4198 45.612C57.5138 46.808 56.4477 47.922 55.2297 48.914C53.0457 50.696 50.6358 51.876 48.2198 52.46C47.5318 52.628 46.8418 52.748 46.1558 52.816C43.3198 53.11 40.5658 52.578 38.2558 51.24C38.2458 51.176 38.2377 51.112 38.2297 51.048C36.9737 41.33 43.1638 32.522 52.0598 31.372C55.6278 30.91 59.0877 31.752 62.0357 33.554V33.552Z" fill="white"/>
    <path d="M150.87 25.646C152.434 37.75 144.72 48.724 133.64 50.156C130.03 50.622 126.504 50.0181 123.342 48.5741C116.866 45.6101 111.898 39.1201 110.778 31.0741C110.766 30.9961 110.754 30.914 110.744 30.834C109.18 18.73 116.892 7.75606 127.972 6.32406C132.416 5.75006 136.728 6.79803 140.398 9.04003C141.702 9.83603 142.926 10.784 144.044 11.864C147.628 15.316 150.154 20.12 150.868 25.646H150.87Z" fill="#E3F7FF"/>
    <path d="M150.87 25.646C152.434 37.75 144.72 48.724 133.64 50.156C130.03 50.622 126.504 50.0181 123.342 48.5741C116.866 45.6101 111.898 39.1201 110.778 31.0741C110.766 30.9961 110.754 30.914 110.744 30.834C109.18 18.73 116.892 7.75606 127.972 6.32406C132.416 5.75006 136.728 6.79803 140.398 9.04003C141.702 9.83603 142.926 10.784 144.044 11.864C147.628 15.316 150.154 20.12 150.868 25.646H150.87Z" fill="#888888"/>
    <path d="M152.976 25.188C154.54 37.292 146.826 48.266 135.746 49.698C132.136 50.164 128.61 49.56 125.448 48.116C118.972 45.152 114.004 38.662 112.884 30.616C112.872 30.538 112.86 30.456 112.85 30.376C111.286 18.272 118.998 7.29802 130.078 5.86602C134.522 5.29202 138.834 6.33999 142.504 8.58199C143.808 9.37799 145.032 10.326 146.15 11.406C149.734 14.858 152.26 19.662 152.974 25.188H152.976Z" fill="#D9D9D9"/>
    <path d="M136.113 39.4625C141.8 38.2081 145.247 31.9193 143.812 25.4162C142.378 18.9131 136.605 14.6582 130.918 15.9127C125.232 17.1671 121.785 23.4558 123.219 29.9589C124.654 36.462 130.427 40.7169 136.113 39.4625Z" fill="#2B2B37"/>
    <path fill-rule="evenodd" clip-rule="evenodd" d="M132.176 23.0121C134.392 22.6581 136.632 22.4881 138.874 23.4401C140.216 24.0101 141.168 25.046 141.538 26.63C142.12 29.114 140.85 30.7361 138.754 30.9061C137.866 30.9481 136.974 30.922 136.082 30.834C134.516 30.73 133.088 31.1741 131.722 31.8981C131.066 32.2441 130.448 32.6781 129.748 32.9181C128.432 33.3681 126.898 33.1361 126.07 31.7221C125 29.9541 125.146 27.6481 126.42 26.2181C127.98 24.4141 130.022 23.6201 132.176 23.0141V23.0121Z" fill="white"/>
    <path fill-rule="evenodd" clip-rule="evenodd" d="M138.818 26.5961C139.028 27.4981 138.656 28.3881 138.002 28.5461C137.422 28.6861 136.674 28.0441 136.488 27.2461C136.284 26.3721 136.646 25.5201 137.296 25.3461C137.946 25.1701 138.614 25.7181 138.82 26.5961H138.818Z" fill="#464558"/>
    <path fill-rule="evenodd" clip-rule="evenodd" d="M130.162 28.5041C130.372 29.4061 130 30.2961 129.346 30.4541C128.764 30.5941 128.018 29.9521 127.832 29.1541C127.628 28.2801 127.99 27.4281 128.64 27.2541C129.29 27.0781 129.958 27.6261 130.162 28.5041Z" fill="#464558"/>
    <path opacity="0.35" d="M142.506 8.58201C142.874 12.064 142.218 15.764 140.634 19.216C139.932 20.738 139.054 22.216 138 23.604C136.87 25.094 135.544 26.482 134.028 27.718C131.308 29.938 128.304 31.408 125.296 32.136C124.438 32.344 123.58 32.494 122.726 32.578C119.194 32.944 115.762 32.282 112.886 30.614C112.874 30.536 112.862 30.454 112.852 30.374C111.288 18.27 119 7.29604 130.08 5.86404C134.524 5.29004 138.836 6.338 142.506 8.58V8.58201Z" fill="white"/>
    <path d="M159.174 81.5279C160.024 88.0959 155.838 94.0499 149.826 94.8279C147.866 95.0819 145.954 94.754 144.238 93.97C140.724 92.362 138.028 88.84 137.422 84.474C137.416 84.432 137.41 84.3879 137.404 84.3439C136.554 77.7759 140.74 71.8219 146.752 71.0439C149.164 70.7319 151.502 71.3 153.494 72.518C154.202 72.95 154.866 73.464 155.472 74.05C157.418 75.924 158.786 78.5299 159.174 81.5279Z" fill="#E3F7FF"/>
    <path d="M159.174 81.5279C160.024 88.0959 155.838 94.0499 149.826 94.8279C147.866 95.0819 145.954 94.754 144.238 93.97C140.724 92.362 138.028 88.84 137.422 84.474C137.416 84.432 137.41 84.3879 137.404 84.3439C136.554 77.7759 140.74 71.8219 146.752 71.0439C149.164 70.7319 151.502 71.3 153.494 72.518C154.202 72.95 154.866 73.464 155.472 74.05C157.418 75.924 158.786 78.5299 159.174 81.5279Z" fill="#888888"/>
    <path d="M160.318 81.28C161.168 87.848 156.982 93.802 150.97 94.58C149.01 94.834 147.098 94.506 145.382 93.722C141.868 92.114 139.172 88.592 138.566 84.226C138.56 84.184 138.554 84.14 138.548 84.096C137.698 77.528 141.884 71.574 147.896 70.796C150.308 70.484 152.646 71.052 154.638 72.27C155.346 72.702 156.01 73.216 156.616 73.802C158.562 75.676 159.93 78.282 160.318 81.28Z" fill="#D9D9D9"/>
    <path d="M151.153 89.0447C154.238 88.3642 156.108 84.9523 155.329 81.4241C154.551 77.8959 151.419 75.5874 148.334 76.2679C145.249 76.9484 143.38 80.3602 144.158 83.8885C144.936 87.4167 148.068 89.7252 151.153 89.0447Z" fill="#2B2B37"/>
    <path fill-rule="evenodd" clip-rule="evenodd" d="M149.032 80.0979C150.234 79.9059 151.45 79.8139 152.666 80.3299C153.394 80.6379 153.91 81.2019 154.112 82.0599C154.428 83.4079 153.738 84.2879 152.602 84.3799C152.12 84.4019 151.636 84.3899 151.152 84.3399C150.302 84.2839 149.528 84.524 148.786 84.916C148.43 85.104 148.094 85.34 147.714 85.47C147 85.714 146.168 85.588 145.718 84.822C145.138 83.862 145.218 82.6119 145.908 81.8359C146.754 80.8579 147.862 80.4259 149.032 80.0979Z" fill="white"/>
    <path fill-rule="evenodd" clip-rule="evenodd" d="M152.636 82.0419C152.75 82.5319 152.548 83.0139 152.192 83.0999C151.876 83.1759 151.472 82.8279 151.37 82.3939C151.26 81.9199 151.456 81.4579 151.808 81.3619C152.162 81.2659 152.522 81.5639 152.634 82.0399L152.636 82.0419Z" fill="#464558"/>
    <path fill-rule="evenodd" clip-rule="evenodd" d="M147.94 83.0779C148.054 83.5679 147.852 84.0499 147.496 84.1359C147.18 84.2119 146.776 83.8639 146.674 83.4299C146.564 82.9559 146.76 82.4939 147.112 82.3979C147.466 82.3019 147.826 82.5999 147.938 83.0759L147.94 83.0779Z" fill="#464558"/>
    <path opacity="0.35" d="M154.636 72.268C154.836 74.158 154.48 76.164 153.62 78.038C153.238 78.864 152.762 79.666 152.19 80.418C151.578 81.226 150.858 81.98 150.034 82.65C148.558 83.854 146.928 84.652 145.296 85.046C144.83 85.16 144.364 85.24 143.902 85.286C141.986 85.484 140.124 85.126 138.562 84.22C138.556 84.178 138.55 84.134 138.544 84.09C137.694 77.522 141.88 71.568 147.892 70.79C150.304 70.478 152.642 71.046 154.634 72.264L154.636 72.268Z" fill="white"/>
    <path d="M53.2862 123.264C54.1782 130.158 49.7843 136.406 43.4743 137.222C41.4183 137.488 39.4103 137.144 37.6103 136.32C33.9223 134.632 31.0923 130.936 30.4563 126.354C30.4483 126.31 30.4422 126.262 30.4382 126.218C29.5462 119.324 33.9403 113.076 40.2503 112.26C42.7823 111.932 45.2362 112.53 47.3282 113.808C48.0702 114.262 48.7683 114.8 49.4043 115.416C51.4463 117.382 52.8842 120.118 53.2902 123.264H53.2862Z" fill="#E3F7FF"/>
    <path d="M53.2862 123.264C54.1782 130.158 49.7843 136.406 43.4743 137.222C41.4183 137.488 39.4103 137.144 37.6103 136.32C33.9223 134.632 31.0923 130.936 30.4563 126.354C30.4483 126.31 30.4422 126.262 30.4382 126.218C29.5462 119.324 33.9403 113.076 40.2503 112.26C42.7823 111.932 45.2362 112.53 47.3282 113.808C48.0702 114.262 48.7683 114.8 49.4043 115.416C51.4463 117.382 52.8842 120.118 53.2902 123.264H53.2862Z" fill="#888888"/>
    <path d="M54.4861 123.004C55.3781 129.898 50.9841 136.146 44.6741 136.962C42.6181 137.228 40.6101 136.884 38.8101 136.06C35.1221 134.372 32.2921 130.676 31.6561 126.094C31.6481 126.05 31.6421 126.002 31.6381 125.958C30.7461 119.064 35.1401 112.816 41.4501 112C43.9821 111.672 46.4361 112.27 48.5281 113.548C49.2701 114.002 49.9681 114.54 50.6041 115.156C52.6461 117.122 54.0841 119.858 54.4901 123.004H54.4861Z" fill="#D9D9D9"/>
    <path d="M44.8647 131.149C48.1028 130.435 50.0654 126.853 49.2483 123.149C48.4312 119.445 45.1438 117.021 41.9058 117.735C38.6677 118.45 36.7051 122.031 37.5222 125.736C38.3393 129.44 41.6267 131.863 44.8647 131.149Z" fill="#2B2B37"/>
    <path fill-rule="evenodd" clip-rule="evenodd" d="M42.6402 121.764C43.9022 121.562 45.1782 121.466 46.4542 122.008C47.2182 122.332 47.7602 122.922 47.9722 123.824C48.3042 125.24 47.5802 126.162 46.3862 126.258C45.8802 126.282 45.3722 126.268 44.8642 126.216C43.9722 126.156 43.1582 126.41 42.3822 126.822C42.0082 127.02 41.6562 127.266 41.2582 127.402C40.5082 127.658 39.6362 127.526 39.1642 126.72C38.5542 125.714 38.6382 124.4 39.3642 123.586C40.2522 122.558 41.4162 122.106 42.6422 121.762L42.6402 121.764Z" fill="white"/>
    <path fill-rule="evenodd" clip-rule="evenodd" d="M46.4221 123.804C46.5421 124.318 46.3301 124.824 45.9561 124.914C45.6261 124.994 45.2001 124.628 45.0941 124.174C44.9781 123.676 45.1841 123.192 45.5541 123.092C45.9241 122.992 46.3041 123.304 46.4221 123.804Z" fill="#464558"/>
    <path fill-rule="evenodd" clip-rule="evenodd" d="M41.4942 124.892C41.6142 125.406 41.4022 125.912 41.0282 126.002C40.6982 126.082 40.2722 125.716 40.1662 125.262C40.0502 124.764 40.2562 124.28 40.6262 124.18C40.9962 124.08 41.3762 124.392 41.4942 124.892Z" fill="#464558"/>
    <path opacity="0.35" d="M48.5242 113.546C48.7342 115.528 48.3601 117.636 47.4581 119.602C47.0581 120.47 46.5581 121.31 45.9581 122.1C45.3141 122.948 44.5601 123.738 43.6961 124.442C42.1461 125.706 40.4362 126.542 38.7222 126.958C38.2342 127.076 37.7441 127.162 37.2581 127.21C35.2461 127.418 33.2921 127.042 31.6541 126.092C31.6461 126.048 31.6401 126 31.6361 125.956C30.7441 119.062 35.1381 112.814 41.4481 111.998C43.9801 111.67 46.4341 112.268 48.5261 113.546H48.5242Z" fill="white"/>
</svg>
