<?xml version="1.0" encoding="UTF-8"?>
<svg width="240px" height="241px" viewBox="0 0 240 241" version="1.1" xmlns="http://www.w3.org/2000/svg" xmlns:xlink="http://www.w3.org/1999/xlink">
    <title>Group 22</title>
    <defs>
        <path d="M96.7890203,179.377729 C96.7865975,179.749282 96.7078532,180.116433 96.5576095,180.456699 C96.0811899,181.36114 94.8348624,181.44763 93.807802,181.41473 L86.7018672,181.187149 C86.5534297,181.196486 86.405493,181.162391 86.276358,181.08908 C86.1804759,181.008035 86.1068076,180.904197 86.0622181,180.787242 C84.2381492,176.959423 83.5883308,172.676062 81.9159315,168.780492 C80.9865519,166.615612 79.7456488,164.581069 78.9945616,162.348976 C78.2149588,159.633694 77.8058475,156.82673 77.7781901,154.003297 C79.1091421,154.00082 80.4387717,153.919833 81.7600583,153.760763 C85.5428707,153.380576 89.4566532,152.959632 92.7435778,151.061128 C94.0880426,150.284566 95.4995103,149.01972 97.1058938,148.865131 C97.3172327,149.801444 97.3785956,150.765009 97.2877211,151.720315 C97.3255394,152.729003 97.3572328,153.737888 97.3828012,154.74697 C97.4327491,156.718174 97.4592871,158.689767 97.462415,160.661751 C97.4687841,164.652321 97.3794008,168.641534 97.1942651,172.62939 C97.0896844,174.880513 96.9546028,177.129959 96.7890203,179.377729 Z" id="path-1"></path>
        <path d="M2.56066701,0 L206.398324,0 C207.807556,0 208.958991,1.02157729 208.958991,2.27088959 C208.958991,3.52020189 207.807556,4.54258675 206.398324,4.54258675 L2.56066701,4.54258675 C1.1523457,4.54258675 0,3.52020189 0,2.27088959 C0,1.02157729 1.1523457,0 2.56066701,0" id="path-3"></path>
        <path d="M21.7395223,34.0694006 L21.0251956,38.3444006 L21.0945773,38.3544572 C25.5027479,39.0135891 27.5453755,40.7145744 27.2224601,43.4574132 C26.8924178,46.2607882 24.2560031,47.9758135 19.3132162,48.6024891 L18.7057233,52.2397476 L4.54799459,52.2397476 L1.51419558,34.0694006 L21.7395223,34.0694006 Z M19.7401956,46.0384006 L19.7838733,45.7975337 C22.7593081,45.1735016 24.2470254,44.3934614 24.2470254,43.4574132 C24.2470254,42.053341 21.2715907,40.6492687 20.7756849,40.6492687 C20.7260943,40.6492687 20.6839423,40.6317178 20.6492289,40.596616 L19.7401956,46.0384006 Z" id="path-4"></path>
        <path d="M8.95394194,0.0542329888 C6.16578591,0.0542329888 2.80257269,0.727930418 0.0338228504,2.21078615 C0.0338228504,5.41335377 -0.00439548161,13.3919192 8.95394194,18.8434178 C17.9124774,13.3919192 17.8744571,5.41335377 17.8744571,2.21078615 C15.1055092,0.727930418 11.742296,0.0542329888 8.95394194,0.0542329888 L8.95394194,0.0542329888 Z" id="path-5"></path>
        <filter x="-11.2%" y="-10.6%" width="122.4%" height="121.3%" filterUnits="objectBoundingBox" id="filter-6">
            <feGaussianBlur stdDeviation="1.5" in="SourceAlpha" result="shadowBlurInner1"></feGaussianBlur>
            <feOffset dx="0" dy="1" in="shadowBlurInner1" result="shadowOffsetInner1"></feOffset>
            <feComposite in="shadowOffsetInner1" in2="SourceAlpha" operator="arithmetic" k2="-1" k3="1" result="shadowInnerInner1"></feComposite>
            <feColorMatrix values="0 0 0 0 0.780904549   0 0 0 0 0.778747695   0 0 0 0 0.778747695  0 0 0 0.5 0" type="matrix" in="shadowInnerInner1"></feColorMatrix>
        </filter>
        <path d="M8.3560823,12.8706625 L13.6277603,5.46238133 C13.2414624,5.13953647 12.902624,5.3673937 12.7160973,5.5437993 L12.7092911,5.5443647 L8.31377349,10.3120275 L6.65765944,8.23398462 C5.86758837,7.28222367 4.7934964,8.00820054 4.54258675,8.20006047 L8.3560823,12.8706625" id="path-7"></path>
        <filter x="-77.0%" y="-66.0%" width="254.1%" height="284.9%" filterUnits="objectBoundingBox" id="filter-8">
            <feOffset dx="0" dy="2" in="SourceAlpha" result="shadowOffsetOuter1"></feOffset>
            <feGaussianBlur stdDeviation="2" in="shadowOffsetOuter1" result="shadowBlurOuter1"></feGaussianBlur>
            <feColorMatrix values="0 0 0 0 0.693585247   0 0 0 0 0.693585247   0 0 0 0 0.693585247  0 0 0 0.5 0" type="matrix" in="shadowBlurOuter1"></feColorMatrix>
        </filter>
    </defs>
    <g id="Extension-2.1" stroke="none" stroke-width="1" fill="none" fill-rule="evenodd">
        <g id="Group-22">
            <g id="Group-7" transform="translate(-0.000000, 34.069401)">
                <ellipse id="Oval" fill="#131313" opacity="0.1" cx="119.621451" cy="195.33123" rx="119.621451" ry="10.5993691"></ellipse>
                <g id="Group-6" transform="translate(90.094637, 139.305994)">
                    <path d="M46.1829653,53.7539432 L17.4132492,53.7539432 L17.4132492,52.239365 C17.4132492,51.4066913 18.2094013,50.7255521 19.1826749,50.7255521 L44.4135396,50.7255521 C45.3868132,50.7255521 46.1829653,51.4066913 46.1829653,52.239365 L46.1829653,53.7539432" id="Fill-208" fill="#CCC5B9"></path>
                    <path d="M34.0694006,52.9968454 L29.5268139,52.9968454 L29.5268139,3.45111836 C29.5268139,2.38526979 30.5487372,1.51419558 31.7981073,1.51419558 C33.0474773,1.51419558 34.0694006,2.38526979 34.0694006,3.45111836 L34.0694006,52.9968454" id="Fill-209" fill="#CCC5B9"></path>
                    <path d="M6.86921463,3.02839117 L56.7279042,3.02839117 C58.4235012,3.02839117 59.8107256,4.39121158 59.8107256,6.05678233 C59.8107256,7.72146525 58.4235012,9.0851735 56.7279042,9.0851735 L6.86921463,9.0851735 C5.17361767,9.0851735 3.78548896,7.72146525 3.78548896,6.05678233 C3.78548896,4.39121158 5.17361767,3.02839117 6.86921463,3.02839117" id="Fill-212" fill="#CCC5B9"></path>
                    <path d="M3.08653579,0 L60.5105839,0 C62.2086311,0 63.5962145,1.36302021 63.5962145,3.02794719 C63.5962145,4.69376212 62.2086311,6.05678233 60.5105839,6.05678233 L3.08653579,6.05678233 C1.38848854,6.05678233 0,4.69376212 0,3.02794719 C0,1.36302021 1.38848854,0 3.08653579,0" id="Fill-213" fill="#F3F3F3"></path>
                </g>
                <g id="Group-5" transform="translate(62.082019, 0.000000)">
                    <g id="Group-4">
                        <g id="Group" transform="translate(80.554215, 61.417829)" fill="#000000" fill-rule="nonzero">
                            <path d="M16.7531155,42.6426908 C14.8511239,42.6910431 13.0027665,42.0069308 11.5870081,40.7306158 C7.67957692,37.1770344 1.58778024,24.8399794 0.310797303,22.2007444 L14.8941892,0.314371075 C19.3145852,11.3994064 26.2652551,27.5592393 26.4786245,29.5351613 C26.7522881,32.0596999 26.5993124,37.0146356 24.2910589,39.5748763 C22.2631766,41.5303334 19.5645784,42.6286169 16.7531155,42.6426908 Z" id="Path"></path>
                        </g>
                        <g id="Group" transform="translate(76.486670, 38.148353)" fill-rule="nonzero">
                            <polygon id="Rectangle" fill="#1C1C56" transform="translate(7.307996, 12.858865) rotate(-63.433260) translate(-7.307996, -12.858865) " points="-3.58258816 10.7085829 18.2057874 10.6724662 18.1985809 15.0091472 -3.58979462 15.0452639"></polygon>
                            <polygon id="Path" fill="#01002B" points="10.2469376 2.22361126 14.0208474 4.11841143 11.725604 4.11841143"></polygon>
                            <polygon id="Path" fill="#01002B" points="9.32332282 4.07741283 11.7200866 4.12949213 13.0961292 5.97221301 10.8019892 5.97221301"></polygon>
                            <polygon id="Path" fill="#01002B" points="8.40632894 5.91902563 10.8030927 5.96999687 12.1791353 7.81382581 9.88499536 7.81382581"></polygon>
                            <polygon id="Path" fill="#01002B" points="7.48271417 7.77393528 9.87947795 7.82490651 11.2555205 9.66873545 8.96138059 9.66873545"></polygon>
                            <polygon id="Path" fill="#01002B" points="6.53261582 9.68092423 8.9293796 9.73300353 10.3054222 11.5757244 8.01128224 11.5757244"></polygon>
                            <polygon id="Path" fill="#01002B" points="5.60900105 11.5358339 8.00466135 11.5868051 9.38180739 13.430634 7.08766747 13.430634"></polygon>
                            <polygon id="Path" fill="#01002B" points="4.69090369 13.3774467 7.08766747 13.4284179 8.46481351 15.2722469 6.16957011 15.2711388"></polygon>
                            <polygon id="Path" fill="#01002B" points="3.76728892 15.2312483 6.1640527 15.2833276 7.54119874 17.1260484 5.24595534 17.1260484"></polygon>
                            <polygon id="Path" fill="#01002B" points="2.86022639 17.0529158 5.25699017 17.103887 6.63303272 18.947716 4.33889281 18.947716"></polygon>
                            <polygon id="Path" fill="#01002B" points="1.93661162 18.9078254 4.33337539 18.9587967 5.70941795 20.8015175 3.41527804 20.8015175"></polygon>
                            <polygon id="Path" fill="#01002B" points="1.01961774 20.7483302 3.41638152 20.8004095 4.79242407 22.6431303 2.49828416 22.6431303"></polygon>
                            <path d="M9.7002523,1.56590034 L14.8774508,1.57450513 C15.2553955,1.5751333 15.5616232,1.8813623 15.5622498,2.25930695 L15.5642516,3.46668718 C15.5648796,3.84552086 15.2582834,4.15313539 14.8794497,4.15376347 C14.8786906,4.15376473 14.8779315,4.15376473 14.8771724,4.15376346 L9.69997391,4.14515867 C9.32202927,4.14453051 9.01580153,3.8383015 9.01517492,3.46035686 L9.01317318,2.25297663 C9.0125451,1.87414295 9.31914132,1.56652841 9.697975,1.56590034 C9.6987341,1.56589908 9.6994932,1.56589908 9.7002523,1.56590034 Z" id="Rectangle" fill="#01002B" transform="translate(12.288712, 2.859832) rotate(26.573890) translate(-12.288712, -2.859832) "></path>
                        </g>
                        <g id="Group" transform="translate(18.002103, 38.148353)" fill-rule="nonzero">
                            <polygon id="Rectangle" fill="#1C1C56" transform="translate(8.900217, 12.858843) rotate(-26.566740) translate(-8.900217, -12.858843) " points="6.74993502 1.96825848 11.086616 1.96105202 11.0504993 23.7494276 6.71381831 23.756634"></polygon>
                            <polygon id="Path" fill="#01002B" points="5.96101194 2.22361126 2.1882056 4.11841143 4.48234552 4.11841143"></polygon>
                            <polygon id="Path" fill="#01002B" points="6.88462671 4.07741283 4.48786293 4.12949213 3.11182037 5.97221301 5.40596029 5.97221301"></polygon>
                            <polygon id="Path" fill="#01002B" points="7.80162059 5.91902563 5.40485681 5.96999687 4.02881425 7.81382581 6.32295417 7.81382581"></polygon>
                            <polygon id="Path" fill="#01002B" points="8.72523536 7.77393528 6.32957506 7.82490651 4.95242902 9.66873545 7.24656894 9.66873545"></polygon>
                            <polygon id="Path" fill="#01002B" points="9.6753337 9.68092423 7.27967341 9.73300353 5.90252737 11.5757244 8.19777077 11.5757244"></polygon>
                            <polygon id="Path" fill="#01002B" points="10.600052 11.5358339 8.20328818 11.5868051 6.82614214 13.430634 9.12138554 13.430634"></polygon>
                            <polygon id="Path" fill="#01002B" points="11.5170458 13.3774467 9.12028206 13.4284179 7.7442395 15.2722469 10.0383794 15.2711388"></polygon>
                            <polygon id="Path" fill="#01002B" points="12.4406606 15.2312483 10.0438968 15.2833276 8.66785427 17.1260484 10.9619942 17.1260484"></polygon>
                            <polygon id="Path" fill="#01002B" points="13.3477231 17.0529158 10.9509594 17.103887 9.57491681 18.947716 11.8690567 18.947716"></polygon>
                            <polygon id="Path" fill="#01002B" points="14.2713379 18.9078254 11.8745741 18.9587967 10.4985316 20.8015175 12.7926715 20.8015175"></polygon>
                            <polygon id="Path" fill="#01002B" points="15.1883318 20.7483302 12.7926715 20.8004095 11.4155255 22.6431303 13.7096654 22.6431303"></polygon>
                            <path d="M1.33075385,1.57449929 L6.50795236,1.5658945 C6.88678604,1.56526486 7.19440184,1.87185981 7.19503148,2.25069349 C7.19503274,2.25145259 7.19503275,2.25221169 7.19503149,2.25297079 L7.19302974,3.46035102 C7.19240314,3.83829566 6.8861754,4.14452467 6.50823075,4.14515284 L1.33103224,4.15375763 C0.95219856,4.15438727 0.64458276,3.84779232 0.643953117,3.46895864 C0.643951855,3.46819954 0.643951854,3.46744044 0.643953112,3.46668134 L0.645954858,2.25930111 C0.646581462,1.88135647 0.952809205,1.57512746 1.33075385,1.57449929 Z" id="Rectangle" fill="#01002B" transform="translate(3.919492, 2.859826) rotate(153.426110) translate(-3.919492, -2.859826) "></path>
                        </g>
                        <g id="Group" transform="translate(0.000000, 61.768801)" fill="#000000" fill-rule="nonzero">
                            <path d="M10.4174246,42.7696544 C7.13523712,42.6920464 4.03833889,41.2859221 1.88465354,38.8954113 C-0.290432233,36.0845826 0.0424354561,31.0556553 0.581654264,28.5274758 C1.0034501,26.5491223 8.99929038,11.1621128 14.7596232,0.372906035 L28.8714623,23.634862 C27.2629461,26.1817684 19.6170868,38.075019 15.1472159,41.2927388 C13.7825187,42.2737723 12.1203451,42.7929171 10.4185686,42.7696319 L10.4174246,42.7696544 Z" id="Path"></path>
                        </g>
                        <path d="M58.6811432,141.798701 C45.182883,141.798701 22.9591336,132.256742 18.2046693,130.143397 L26.4958719,112.975887 C26.6073547,112.742907 26.6651829,112.487716 26.6650689,112.229236 C26.6618357,110.550897 26.6165157,101.935263 26.1111207,96.8742408 C25.6100294,91.8402775 19.7197507,67.5677321 13.9178609,62.0133082 C18.0850077,59.4032819 37.0769771,47.9995434 50.7174872,47.9995434 C73.3507279,47.9995434 90.8103134,54.4023281 96.4365729,60.7537094 C94.7576465,65.8395746 86.7767872,90.1705929 85.7659863,96.2607133 C84.9769647,101.605746 84.6058481,107.004601 84.6560375,112.407802 C84.6560375,113.584051 87.5063326,119.584285 93.1272071,130.244054 C89.4040354,132.361743 72.0522381,141.798701 58.6811432,141.798701 Z" id="Path" fill="#575770" fill-rule="nonzero"></path>
                        <path d="M13.8464143,63.5549174 C13.6665577,63.3993652 13.5717196,63.1693636 13.5905235,62.9343305 C13.6093273,62.6992974 13.6440417,62.2675881 13.8464143,62.1417075 C18.25785,59.4143523 40.5544805,46.2558176 54.4189314,46.2558176 C53.6147138,61.1978762 57.0426564,122.236009 56.4144651,141.549861 C42.6554851,141.549861 22.6302446,131.941906 18.3386139,130.063698 C18.1506912,129.981382 18.0047864,129.827389 17.9343709,129.637045 C17.8639554,129.446702 17.8750731,129.236346 17.9651734,129.054235 L26.2615844,112.199035 C26.3119591,112.096805 26.3379995,111.984604 26.3377247,111.870968 C26.3346129,110.54922 26.2950972,101.964826 25.7933658,97.0226841 C25.2755567,91.9226935 19.3436546,68.3991997 13.8464143,63.5549174 Z" id="Path" fill="#464558" fill-rule="nonzero"></path>
                        <g id="Group-8" transform="translate(13.588173, 42.931607)">
                            <path d="M54.1737645,6.83197351 C54.1274845,6.8854933 54.0787106,6.9390131 54.0324195,6.99492633 C52.5792214,8.69848465 60.4222447,11.6122552 58.7744034,13.1227323 C53.9708672,17.5255387 49.3747196,22.2366103 44.2407566,26.2559579 C39.3132752,30.185385 33.8411277,33.3717372 27.997275,35.7143018 C21.8578851,38.1084538 15.1386484,38.6360726 9.1155876,41.329869 C6.77707665,33.0376472 3.44427289,23.7772158 0.25744882,20.9169318 C0.0781100592,20.7576552 -0.016353923,20.52307 0.00233012709,20.2833881 C0.0210141772,20.0437061 0.150678321,19.8267381 0.352513829,19.6974229 C4.76533996,16.9186043 23.6660845,5.54035139 37.5304471,5.54035139 C43.1021488,5.56312972 48.6647409,5.99482052 54.1737645,6.83197351 Z" id="Path" fill="#000000" fill-rule="nonzero" opacity="0.1"></path>
                            <g id="Group-2" transform="translate(14.345271, 0.000000)">
                                <path d="M35.1563919,0.707472466 L42.8807688,0.707472466 C44.8055775,6.82836213 46.0887834,13.534468 46.7303863,20.8257902 C47.3719892,28.1171124 47.3719892,35.9936508 46.7303863,44.4554055 C46.4042147,46.1423234 45.1210089,47.572265 42.8807688,48.7452303 C40.6405287,49.9181956 38.0657364,50.5082599 35.1563919,50.515423 C36.2647289,42.2140979 36.8188974,33.9127728 36.8188974,25.6114477 C36.8188974,17.3101226 36.2647289,9.00879755 35.1563919,0.707472466 Z" id="Rectangle-Copy" fill="#000000"></path>
                                <path d="M6.20488421,4.0562579 C-1.36274357,7.54481278 -2.0081241,13.2370293 4.26874263,21.1329075 C13.6840427,32.9767249 41.154345,32.551503 49.4885367,19.7004069 C55.0446644,11.1330095 52.3991604,4.56620717 41.5520245,-3.93665643e-14 L6.20488421,4.0562579 Z" id="Path-4" fill="#464558"></path>
                                <path d="M40.673804,6.24782386 L48.3981808,6.24782386 C50.3229895,12.3687135 51.6061954,19.0748194 52.2477983,26.3661416 C52.8894012,33.6574638 52.8894012,41.5340022 52.2477983,49.9957569 C51.9216267,51.6826748 50.6384209,53.1126164 48.3981808,54.2855817 C46.1579407,55.458547 43.5831484,56.0486112 40.673804,56.0557744 C41.7821409,47.7544493 42.3363094,39.4531242 42.3363094,31.1517991 C42.3363094,22.850474 41.7821409,14.5491489 40.673804,6.24782386 Z" id="Rectangle" fill="#464558"></path>
                            </g>
                            <path d="M54.1737645,6.83197351 C54.1274845,6.8854933 54.0787106,6.9390131 54.0324195,6.99492633 C52.5792214,8.69848465 60.4222447,11.6122552 58.7744034,13.1227323 C53.9708672,17.5255387 49.3747196,22.2366103 44.2407566,26.2559579 C39.3132752,30.185385 33.8411277,33.3717372 27.997275,35.7143018 C21.8578851,38.1084538 15.1386484,38.6360726 9.1155876,41.329869 C6.77707665,33.0376472 3.44427289,23.7772158 0.25744882,20.9169318 C0.0781100592,20.7576552 -0.016353923,20.52307 0.00233012709,20.2833881 C0.0210141772,20.0437061 0.0556133125,19.3394159 0.25744882,19.2101008 C2.36210086,17.8847718 7.74501546,14.3496285 14.3452712,11.3953947 C15.1595669,2.09678344 31.7757522,0.32481011 37.5304471,5.54035139 C43.1021488,5.56312972 48.6647409,5.99482052 54.1737645,6.83197351 Z" id="Path" fill="#000000" fill-rule="nonzero" opacity="0.300000012"></path>
                        </g>
                        <g id="Group" transform="translate(25.726480, 102.416429)" fill="#000000" fill-rule="nonzero">
                            <path d="M31.4955947,16.5683567 C20.9123201,16.4302369 10.4858944,13.979879 0.940773922,9.38754046 L0.75218878,0.0804038858 C4.91611342,2.22729005 17.5425784,8.02625396 32.4309616,8.02625396 C41.9781168,8.16790459 51.3450628,5.40916855 59.3035609,0.111784436 L58.9307053,9.47194217 C56.9069075,10.7531484 46.8678108,16.5683567 31.4955947,16.5683567 Z" id="Path"></path>
                        </g>
                        <path d="M79.1875649,25.9354818 C78.9629805,25.9318761 78.740592,25.9803161 78.53768,26.0770378 C76.3492979,11.2106351 66.5883118,5.37950336e-14 54.87638,5.37950336e-14 C43.1804817,5.37950336e-14 33.4297691,11.1798751 31.2237423,26.0160164 C31.0637705,25.9594979 30.8950073,25.932222 30.7254538,25.9354818 C29.0437466,25.9774223 27.7570861,29.1132612 27.8516325,32.9395941 C27.9433981,36.6512306 29.9376998,40.6761408 31.5921068,40.875948 C34.3679609,54.6527852 43.7400466,64.78898 54.87638,64.78898 C66.0109699,64.78898 75.381621,54.6561981 78.1591966,40.8828845 L78.1684438,40.8838596 C79.8501509,40.9257668 81.9667405,36.765938 82.0613973,32.9395941 C82.156054,29.1132501 80.8692942,25.9774223 79.1875649,25.9354818 Z" id="Path" fill="#575770"></path>
                        <path d="M54.9672076,0.00274801429 C54.9367846,0.00260396515 54.906803,2.21614056e-05 54.87638,2.21614056e-05 C43.1804817,2.21614056e-05 33.4297691,11.1798972 31.2237423,26.0160386 C31.0637705,25.95952 30.8950073,25.9322441 30.7254538,25.935504 C29.0437466,25.9774445 27.7570861,29.1132834 27.8516325,32.9396162 C27.9433981,36.6512528 29.9376998,40.6761629 31.5921068,40.8759702 C34.3679609,54.6528074 43.7400466,64.7890021 54.87638,64.7890021 C54.906803,64.7890021 54.9367846,64.7865755 54.9672076,64.7864314 L54.9672076,0.00274801429 Z" id="Path" fill="#464558"></path>
                        <path d="M73.4940261,27.165318 C71.3604098,24.6515165 67.5216593,24.4900042 64.4864096,24.3468415 L45.8581149,24.3468415 C42.8229314,24.4900042 38.9841809,24.6515608 36.8504873,27.165318 C35.0773677,29.2543739 34.7930996,33.3692816 35.1474498,35.9696898 C35.4972538,38.5364238 37.086125,41.8867186 39.8840818,42.3537702 C40.4601466,42.4316486 41.0437703,42.435149 41.6207204,42.3641861 C43.4645658,42.2473843 45.284445,41.8825056 47.0315801,41.2793299 C48.6567228,40.6535583 50.1593127,39.7371177 51.821091,39.2018533 C52.445004,39.0010978 53.0900188,38.8737591 53.7431808,38.8223946 C54.4019598,38.7705701 55.0656162,38.7933631 55.7257414,38.7961998 L55.8467824,38.7967206 C56.4921662,38.79416 57.1359601,38.8611533 57.7671066,38.99655 C58.0222465,39.0532093 58.2743959,39.1216437 58.5235548,39.2018533 C60.1851897,39.7371177 61.6878568,40.6535583 63.3129333,41.2793299 C65.0600944,41.8825079 66.8799994,42.2473865 68.7238703,42.3641861 C69.3008204,42.4351489 69.8844441,42.4316485 70.4605088,42.3537702 C73.2584547,41.8867186 74.8472597,38.5364681 75.1971298,35.9696898 C75.5514801,33.3692816 75.267223,29.2543739 73.4940261,27.165318 Z" id="Path" fill="#EEBDAA"></path>
                        <path d="M55.1950547,24.347329 L55.1950547,38.791147 C54.7096328,38.7881774 54.2242771,38.7851967 53.7418897,38.8208654 C53.0891977,38.873196 52.4446784,39.0008295 51.8210689,39.2012438 C50.1576906,39.7362201 48.6571201,40.6516081 47.0322643,41.2786872 C45.2842339,41.8815732 43.4636042,42.246423 41.619021,42.363488 C41.0429045,42.4348384 40.4600631,42.4318593 39.8846998,42.3546235 C37.084867,41.8850233 35.4984455,38.5356038 35.1462691,35.9678504 C34.7940817,33.3673757 35.0781953,29.2541412 36.8510391,27.1648304 C38.9849423,24.6505525 42.8236265,24.4900596 45.8572873,24.347329 L55.1950547,24.347329 Z" id="Path" fill="#D19F93"></path>
                        <path d="M61.9550666,29.2064808 C62.2588254,29.3188971 62.5771654,29.3866537 62.9002213,29.407651 C63.2273708,29.4470207 63.5550719,29.4811493 63.8820227,29.5224582 C64.5337946,29.6047989 65.1957737,29.6781642 65.8397881,29.8097032 L65.9107089,29.0368131 C65.5774572,28.9722348 65.2437862,28.9161553 64.9115497,28.8443746 C64.5926094,28.7688009 64.2687346,28.7160279 63.9423612,28.6864524 C63.2080979,28.6739133 62.4740113,28.7203342 61.7471153,28.8252714 L61.969456,29.5405197 C63.2142581,28.9193877 64.6348443,28.7502435 65.9897845,29.0618333 C66.2056102,29.0805948 66.3962752,28.9214478 66.4173508,28.7049461 C66.4322067,28.4894435 66.2756423,28.3003204 66.0619302,28.2756132 C64.5678629,27.9819178 63.0191683,28.1855304 61.6507593,28.8555661 C61.4816661,28.9365741 61.3977496,29.1302133 61.4539642,29.3096754 C61.5119606,29.487394 61.6887577,29.5975535 61.8730889,29.5708254 L62.9347603,29.5065574 C63.2664754,29.4733479 63.6001428,29.46419 63.9331691,29.4791548 C64.5762566,29.5329183 65.1968331,29.775209 65.8397881,29.8096811 C66.3358917,29.8362747 66.4083574,29.0679831 65.9107089,29.036791 C65.2538279,28.9956151 64.5987566,28.9164102 63.9416108,28.872996 C63.6129165,28.8512778 63.2836484,28.8288616 62.9544244,28.8169498 C62.6294459,28.7872491 62.3018271,28.8100431 61.984033,28.8844645 C61.9112399,28.8992855 61.856777,28.9603452 61.8500947,29.034626 C61.8434125,29.1089067 61.8860968,29.1787785 61.9550666,29.2064587 L61.9550666,29.2064808 Z" id="Path" fill="#01002B" fill-rule="nonzero" transform="translate(63.927453, 28.977538) rotate(-16.000000) translate(-63.927453, -28.977538) "></path>
                        <path d="M48.0768855,29.2850209 C47.7731303,29.3974498 47.4547884,29.4652069 47.1317307,29.486191 C46.8045923,29.5255718 46.4768801,29.5597004 46.1499403,29.6009982 C45.4981685,29.6833389 44.8361894,29.7567042 44.1921639,29.8882543 L44.1212431,29.1153642 C44.4544948,29.0507859 44.7881769,28.9946954 45.1204133,28.9229146 C45.4393498,28.84734 45.7632209,28.794567 46.0895909,28.7649924 C46.8238542,28.7524533 47.5579408,28.7988742 48.2848367,28.9038114 L48.0625071,29.6190597 C46.8177026,28.9979225 45.3971111,28.8287781 44.0421676,29.1403734 C43.826342,29.1591282 43.6356823,28.9999765 43.6146123,28.783475 C43.5997502,28.5679744 43.7563113,28.3788494 43.9700219,28.3541421 C45.4640938,28.0604453 47.0127935,28.2640619 48.3812038,28.9341061 C48.5502917,29.0151134 48.6342072,29.2087457 48.5779989,29.3882044 C48.519998,29.5659246 48.3431972,29.6760835 48.1588632,29.6493544 L47.0971917,29.5850863 C46.76548,29.5518824 46.4318167,29.5427244 46.0987939,29.5576837 C45.4556954,29.6114473 44.83513,29.8537379 44.1921639,29.8882211 C43.6960603,29.9148148 43.6236057,29.1465232 44.1212431,29.115331 C44.7781352,29.0741551 45.4331954,28.9949391 46.0903413,28.951525 C46.4190356,28.9298179 46.7483147,28.9073905 47.0775277,28.8954898 C47.4025055,28.8657793 47.7301252,28.8885697 48.047919,28.9629935 C48.1207122,28.9778145 48.1751751,29.0388741 48.1818573,29.1131549 C48.1885396,29.1874357 48.1458552,29.2573074 48.0768855,29.2849876 L48.0768855,29.2850209 Z" id="Path" fill="#01002B" fill-rule="nonzero" transform="translate(46.104509, 29.056073) rotate(14.000000) translate(-46.104509, -29.056073) "></path>
                        <ellipse id="Oval" stroke="#01002B" stroke-width="1.3104" fill="#FFFFFF" cx="64.3018494" cy="33.8165504" rx="2.18044164" ry="2.72555205"></ellipse>
                        <ellipse id="Oval" stroke="#01002B" stroke-width="1.3104" fill="#FFFFFF" transform="translate(45.768096, 33.816550) scale(-1, 1) translate(-45.768096, -33.816550) " cx="45.7680955" cy="33.8165504" rx="2.18044164" ry="2.72555205"></ellipse>
                    </g>
                    <path d="M18.8873689,194.290998 C18.8873689,194.290998 25.2544461,194.290998 27.941906,194.290998 C30.6311282,194.290998 31.6215233,193.493434 33.2480974,192.012497 C34.8755527,190.530674 36.8915882,188.554026 37.2449231,188.137097 C37.598258,187.719283 37.6520072,186.806643 37.6520072,186.294113 C37.6520072,185.781583 37.2273004,185.230105 37.2273004,185.230105 C37.2273004,185.230105 37.2273004,182.456777 37.2273004,181.601675 C37.2273004,180.747458 36.8739655,180.006547 36.5726175,179.836589 C36.5726175,179.836589 35.5998451,180.366823 34.0428807,179.911831 C32.4867973,179.455068 32.7696414,178.391945 31.2479223,178.391945 C29.7279655,178.391945 29.6927201,178.391945 28.5957078,178.391945 C27.4986954,178.391945 26.473055,179.112496 26.0844747,180.290696 C25.6958944,181.46801 25.5531507,182.685158 24.4570195,184.012956 C23.3608883,185.34341 19.3640626,189.560497 18.8679839,190.130565 C18.3736675,190.700632 17.9674646,191.195459 17.9674646,191.91601 C17.9674646,192.638332 17.9674646,192.847239 17.9674646,193.265938 C17.9674646,193.682867 18.2229936,194.290113 18.8873689,194.290998" id="Fill-222" fill="#464558"></path>
                    <path d="M100.327297,194.290998 C100.327297,194.290998 93.9609438,194.290998 91.2730062,194.290998 C88.5841882,194.290998 87.5937101,193.493127 85.9666846,192.011491 C84.3396592,190.529856 82.3234859,188.555521 81.969555,188.136241 C81.6165046,187.717845 81.5636791,186.806749 81.5636791,186.293705 C81.5636791,185.780662 81.988044,185.230466 81.988044,185.230466 C81.988044,185.230466 81.988044,182.456491 81.988044,181.601123 C81.988044,180.746639 82.3419748,180.006264 82.6430802,179.83466 C82.6430802,179.83466 83.6159498,180.366279 85.1725413,179.910732 C86.7291327,179.455184 86.4456358,178.391945 87.9661298,178.391945 C89.4875043,178.391945 89.5218409,178.391945 90.6188504,178.391945 C91.71586,178.391945 92.7415551,179.111975 93.130703,180.290207 C93.5198509,181.468439 93.6607189,182.683822 94.7577284,184.013314 C95.8538576,185.34369 99.8509872,189.56038 100.345786,190.130035 C100.841465,190.70146 101.248222,191.194159 101.248222,191.915959 C101.248222,192.638643 101.248222,192.846514 101.248222,193.264911 C101.248222,193.683307 100.992018,194.289229 100.327297,194.290998" id="Fill-230" fill="#575770"></path>
                    <path d="M93.9335214,112.885194 C88.3649091,113.525995 82.609209,114.75541 78.3074132,121.664652 C78.3074132,121.664652 69.845666,124.823752 56.8351182,124.743652 C43.8257932,124.823752 35.3652687,121.664652 35.3652687,121.664652 C31.0622501,114.75541 25.3065501,113.525995 19.7379378,112.885194 C27.3449507,116.395035 27.6286394,126.135695 27.6286394,126.135695 L29.5080766,143.169106 L84.1646054,143.169106 L86.0428198,126.135695 C86.0428198,126.135695 86.3252856,116.395035 93.9335214,112.885194" id="Fill-218" fill="#000000"></path>
                    <path d="M12.8294548,149.823073 C12.4671747,149.111201 12.1424356,148.375847 11.8569362,147.620857 C10.3895987,143.427952 9.65154009,138.956308 9.68317797,134.450802 L9.66357368,133.452157 C9.60267235,129.750543 9.68574068,125.633753 10.6776522,121.890465 L10.818618,121.382405 C11.6543939,118.20757 13.5419101,115.520537 16.0889083,113.879507 C17.822362,112.890556 19.7436573,112.399214 21.6832994,112.446127 L22.0257451,112.460002 C29.0924395,112.709487 33.2447217,117.97631 35.4834458,122.350321 C37.9792783,127.522522 39.4025929,133.265453 39.6458873,139.145353 C39.6795139,139.841535 39.7001863,140.539397 39.7079045,141.238939 C39.7565232,145.720915 38.746246,149.230927 36.6178846,151.968357 C35.7363786,153.099664 34.6906237,154.053099 33.5253563,154.787873 C30.3581025,156.610823 26.7979295,157.386432 23.2542758,157.025501 C20.7694568,156.895368 18.3666958,155.974281 16.3234954,154.368619 C14.8920064,153.143688 13.7019886,151.595543 12.8294548,149.823073 Z" id="Path" fill="#000000" fill-rule="nonzero"></path>
                    <path d="M101.25255,148.628254 C100.606903,149.927079 99.774857,151.094539 98.7904862,152.082822 C96.928272,153.829771 94.6665704,154.942374 92.2668265,155.292016 C88.857822,155.961523 85.3488397,155.52593 82.1436464,154.035358 C80.959355,153.42437 79.8746497,152.590163 78.9357682,151.568297 C76.6699818,149.094763 75.4307778,145.768169 75.1471002,141.399834 C75.117808,140.946524 75.0940634,140.492833 75.0758663,140.038761 L75.0527314,139.357367 C74.7796783,132.888267 76.0453121,126.459375 78.7171923,120.743435 C81.3583032,115.550186 85.1045565,112.557183 89.8554558,111.843339 L90.1667204,111.800016 C92.1508547,111.500723 94.1708826,111.792897 96.027694,112.64774 C98.5292537,113.969258 100.506561,116.295496 101.580111,119.168759 L101.691659,119.478681 C103.188544,123.468401 103.542771,128.084375 103.75761,132.098686 C104.122041,136.481804 103.736972,140.901271 102.623526,145.11464 C102.316081,146.182541 101.926101,147.217055 101.458259,148.206211 L101.25255,148.628254 Z" id="Path" fill="#000000" fill-rule="nonzero"></path>
                    <mask id="mask-2" fill="white">
                        <use xlink:href="#path-1"></use>
                    </mask>
                    <use id="Mask" fill="#575770" fill-rule="nonzero" transform="translate(87.620461, 165.142733) rotate(12.000000) translate(-87.620461, -165.142733) " xlink:href="#path-1"></use>
                    <path d="M21.0026863,180.14621 C21.0068717,180.517907 21.0874793,180.884843 21.2395726,181.224549 C21.7210001,182.127164 22.9696793,182.207878 23.9981748,182.170196 L31.1140135,181.909475 C31.2627252,181.91814 31.4107343,181.883355 31.5397305,181.809424 C31.6353725,181.727895 31.7086615,181.623671 31.7527698,181.506463 C33.5616153,177.668554 34.1922383,173.380403 35.8488477,169.475389 C36.769452,167.305304 38.0026833,165.264102 38.7444082,163.027534 C39.5124118,160.307483 39.9089175,157.497436 39.9233006,154.672687 C38.5902696,154.676397 37.2581928,154.601557 35.9341038,154.448562 C32.1436359,154.085807 28.2218232,153.68288 24.9208417,151.798865 C23.5706078,151.028224 22.1510017,149.769405 20.5413954,149.622229 C20.3341474,150.559918 20.2772346,151.524172 20.3727544,152.479456 C20.3396329,153.488741 20.312653,154.498198 20.2918148,155.507827 C20.251088,157.480078 20.2338079,159.45262 20.2399743,161.425454 C20.2524134,165.417738 20.3607511,169.408213 20.5649873,173.396882 C20.6803348,175.64849 20.8262345,177.898266 21.0026863,180.14621 Z" id="Mask" fill="#464558" fill-rule="nonzero" transform="translate(30.081029, 165.899831) rotate(-19.000000) translate(-30.081029, -165.899831) "></path>
                </g>
                <g id="Group-3" transform="translate(17.413249, 96.908517)">
                    <path d="M60.1936153,101.451104 C58.6586733,92.7548817 55.8064921,76.6160095 52.9781938,60.6539682 C49.3516523,40.2020008 45.7655281,20.0651774 45.0269923,16.2536863 C44.3224438,12.6155244 43.2697547,10.2615742 41.8239147,8.85218035 C40.4781996,7.53995593 38.6934047,7.03309941 36.4447284,7.03309941 L27.1505675,7.03309941 C24.8936241,7.03309941 23.1161778,7.48042874 21.7824042,8.75676177 C20.3494242,10.127638 19.2994908,12.4815882 18.5692222,16.2536863 C17.8573251,19.924238 14.2702824,40.0610614 10.6382294,60.5480448 C7.80350109,76.5433514 4.94213409,92.7382491 3.4035178,101.451104 L0.757097792,101.451104 C2.27734254,92.8424217 5.18371981,76.389281 8.06529551,60.1401084 C11.6808141,39.7450421 15.2614268,19.6476117 16.0054741,15.806357 C16.8386234,11.504642 18.124631,8.73575217 19.9333089,7.00421121 C21.8402745,5.17987786 24.2129586,4.54258675 27.1505675,4.54258675 L36.4447284,4.54258675 C39.3915231,4.54258675 41.7853345,5.26041465 43.6941372,7.11976399 C45.5028151,8.88369475 46.786067,11.6517092 47.5907404,15.806357 C48.362345,19.7894264 51.9420391,39.885106 55.5511277,60.244281 C58.4253548,76.4601884 61.3234649,92.8590543 62.8391167,101.451104 L60.1936153,101.451104" id="Fill-235" fill="#CCC5B9"></path>
                    <path d="M205.555512,101.451104 C204.019674,92.7548817 201.168454,76.6160095 198.340197,60.6539682 C194.714628,40.2020008 191.127638,20.0651774 190.389113,16.2536863 C189.684575,12.6155244 188.631902,10.2615742 187.187002,8.85218035 C185.840388,7.53995593 184.055619,7.03309941 181.806976,7.03309941 L172.513872,7.03309941 C170.256043,7.03309941 168.479542,7.48042874 167.143951,8.75676177 C165.71191,10.127638 164.661993,12.4815882 163.931735,16.2536863 C163.219848,19.924238 159.633777,40.0610614 156.001778,60.5480448 C153.166173,76.5433514 150.304848,92.7382491 148.766255,101.451104 L146.119874,101.451104 C147.640096,92.8424217 150.54643,76.389281 153.427045,60.1401084 C157.043429,39.7450421 160.623988,19.6476117 161.368025,15.806357 C162.201161,11.504642 163.48715,8.73575217 165.295801,7.00421121 C167.202739,5.17987786 169.575388,4.54258675 172.513872,4.54258675 L181.806976,4.54258675 C184.753727,4.54258675 187.147503,5.26041465 189.055359,7.11976399 C190.865848,8.88369475 192.148162,11.6517092 192.953742,15.806357 C193.724417,19.7894264 197.304058,39.885106 200.914012,60.244281 C203.788196,76.4601884 206.685345,92.8590543 208.201893,101.451104 L205.555512,101.451104" id="Fill-236" fill="#CCC5B9"></path>
                    <path d="M9.38275375,3.02839117 L199.576237,3.02839117 C200.989483,3.02839117 202.14511,4.05095781 202.14511,5.30049226 C202.14511,6.54921898 200.989483,7.57097792 199.576237,7.57097792 L9.38275375,7.57097792 C7.96950784,7.57097792 6.81388013,6.54921898 6.81388013,5.30049226 C6.81388013,4.05095781 7.96950784,3.02839117 9.38275375,3.02839117" id="Fill-237" fill="#9C7A6D"></path>
                    <g id="Fill-238">
                        <use fill="#C08552" xlink:href="#path-3"></use>
                        <use fill="#B49082" xlink:href="#path-3"></use>
                    </g>
                </g>
                <rect id="Rectangle" fill="#000000" fill-rule="nonzero" x="62.8391167" y="86.3091483" width="35.5835962" height="10.5993691" rx="5.29968454"></rect>
                <rect id="Rectangle-Copy-2" fill="#000000" fill-rule="nonzero" x="132.492114" y="86.3091483" width="35.5835962" height="10.5993691" rx="5.29968454"></rect>
            </g>
            <g id="cup" transform="translate(199.116719, 104.858044) scale(-1, 1) translate(-199.116719, -104.858044) translate(185.488959, 78.738170)">
                <g id="Combined-Shape">
                    <use fill="#5C7AFF" xlink:href="#path-4"></use>
                    <use fill="#769FB6" xlink:href="#path-4"></use>
                    <use fill="#89A6FB" xlink:href="#path-4"></use>
                </g>
                <path d="M10.7879087,27.9145103 C9.80685382,30.4813618 10.6243996,30.9626464 13.240546,29.3583642 C15.8566925,27.754082 17.491784,25.0268023 18.1458206,21.176525 C18.4728389,18.2888171 15.5296742,14.7593962 9.31632636,10.5882625 C12.2594911,9.6256932 14.0580918,8.18183922 14.7121284,6.25670058 C15.6931833,3.36899262 14.221601,0 10.7879087,0 C7.35421653,0 3.42999685,0 0.486832099,8.66312388 C-2.45633266,17.3262478 8.82579891,17.3262478 10.7879087,18.7701017 C12.7500186,20.2139557 13.4771932,20.7702089 13.240546,23.1016637 C13.0827813,24.6559668 12.2652355,26.260249 10.7879087,27.9145103 Z" id="Path-3" fill="#CCC5B9" opacity="0.161481585"></path>
            </g>
            <path d="M83.2523659,84.7949527 L152.205047,84.7949527 C153.861902,84.7949527 155.205047,86.1380984 155.205047,87.7949527 L155.205047,124.192429 C155.205047,125.849283 153.861902,127.192429 152.205047,127.192429 L83.2523659,127.192429 C81.5955117,127.192429 80.2523659,125.849283 80.2523659,124.192429 L80.2523659,87.7949527 C80.2523659,86.1380984 81.5955117,84.7949527 83.2523659,84.7949527 Z" id="Rectangle-13" fill="#F1F1F1"></path>
            <path d="M82.1451104,127.192429 L153.312303,127.192429 C154.357637,127.192429 155.205047,128.03984 155.205047,129.085174 C155.205047,130.130507 154.357637,130.977918 153.312303,130.977918 L82.1451104,130.977918 C81.0997765,130.977918 80.2523659,130.130507 80.2523659,129.085174 C80.2523659,128.03984 81.0997765,127.192429 82.1451104,127.192429 Z" id="Rectangle-13" fill="#E5E2E2" transform="translate(117.728707, 129.085174) scale(1, -1) translate(-117.728707, -129.085174) "></path>
            <g id="Group-17" transform="translate(109.779180, 99.179811)">
                <g id="Path">
                    <use fill="#DFDFDF" fill-rule="evenodd" xlink:href="#path-5"></use>
                    <use fill="black" fill-opacity="1" filter="url(#filter-6)" xlink:href="#path-5"></use>
                </g>
                <g id="Fill-11">
                    <use fill="black" fill-opacity="1" filter="url(#filter-8)" xlink:href="#path-7"></use>
                    <use fill="#F1F1F1" fill-rule="evenodd" xlink:href="#path-7"></use>
                </g>
            </g>
            <line x1="204.416404" y1="112.807571" x2="204.416404" y2="120.378549" id="Path-11" stroke="#5B647D" stroke-width="1.5"></line>
            <rect id="Rectangle" fill="#5B647D" x="202.14511" y="118.864353" width="4.54258675" height="5.29968454" rx="1"></rect>
        </g>
    </g>
</svg>