<svg xmlns="http://www.w3.org/2000/svg" width="190" height="200" fill="none"><path fill="#74A352" d="M129.747 37.581c3.618.53 7.281-.631 10.584-2.198 4.024-1.916 16.739-10.697 21.879-2.92.71 1.071 1.071 2.368 1.939 3.315 1.398 1.521 3.742 1.747 5.76 1.318 1.984-.428 12.794-6.335 19.827 3.01l-4.847 4.554c-1.093-6.617-6.008-7.26-10.257-6.594-4.34.687-8.24 3.269-10.517.687-1.071-1.217-1.06-4.35-2.446-5.23-9.998-6.369-6.932 11.858-21.067 11.295-3.528-.147-6.91-1.353-10.213-2.582-10.922-4.069-12.241-.766-16.153 2.356-2.705 2.164-6.222 3.36-9.682 3.1-3.461-.26-6.82-1.995-8.883-4.78 16.469 3.81 15.916-8.002 34.076-5.331Z"/><path fill="#3E5C2E" d="M184.495 42.98c.124-1.939-.113-3.956-.62-5.816a15.02 15.02 0 0 0-.609-1.77c2.266.688 4.52 2.097 6.47 4.7l-4.847 4.554a13.308 13.308 0 0 0-.394-1.668Z"/><path fill="#568040" d="M169.514 37.164c.034 0 .079 0 .113-.011 2.254-.294 4.351-1.68 6.673-1.556 2.784.146 5.467 2.254 6.977 4.486.485.71.947 1.736 1.173 2.784-1.635-4.937-5.997-5.399-9.818-4.79-8.635 1.352-8.702 2.108-10.168-1.984 1.319 1.138 3.281 1.364 5.05 1.07ZM161.669 33.523a13.76 13.76 0 0 0-1.499-.823 9.9 9.9 0 0 0-1.781-3.088c1.488.428 2.806 1.307 3.821 2.84.62.947.981 2.063 1.646 2.965.157 1.285.383 2.58.766 3.798a2.86 2.86 0 0 1-.507-.473c-1.071-1.206-1.06-4.34-2.446-5.219ZM113.109 40.15c-.293.271-.575.542-.857.824-2.299 2.232-4.61 4.373-7.653 5.523-.879.338-1.77.552-2.672.699-2.457-.733-4.7-2.22-6.233-4.283 8.882 2.062 12.816-.451 17.415-2.762Z"/><path fill="#3E5C2E" d="M103.81 43.724c-1.578.722-3.404 1.454-5.276 1.883a11.615 11.615 0 0 1-2.863-2.694c3.528.811 6.268.913 8.59.597-.147.068-.293.147-.451.214Z"/><path fill="#AED888" d="M140.771 35.157c2.795-1.431 8.623-5.117 13.785-5.76-6.177 2.187-9.254 19.546-27.458 7.88.834.067 1.713.157 2.649.304 3.618.53 7.281-.631 10.584-2.198.113-.056.237-.113.361-.18.022-.012.056-.034.079-.046Z" opacity=".49"/><path fill="#3E5C2E" d="M126.038 38.471c2.581 1.094 4.678 3.033 6.955 4.69-.868-.305-1.736-.62-2.604-.936-6.943-2.581-10.009-2.187-12.32-.755a8.252 8.252 0 0 1 1.285-1.77c1.048-1.082 2.48-1.826 3.979-1.837.935-.012 1.848.248 2.705.608Z"/><path fill="#AED888" d="M143.036 35.8c-1.916 1.69-4.001 2.457-6.515 1.736a6.405 6.405 0 0 1-.947-.372c1.635-.428 3.235-1.06 4.757-1.781 1.364-.654 3.742-2.097 6.481-3.416-1.285 1.263-2.434 2.65-3.776 3.833Z" opacity=".49"/><path fill="#74A352" d="M173.482 21.169c.868 3.145-2.491 8.127-9.063 6.425-13.65-3.528-18.655-3.393-26.951-.755-5.039 1.6 3.156.473 3.156.473s8.747-.507 11.622-.124c2.874.372 10.776 1.781 13.402 1.984 2.626.203 5.828-.35 7.022-2.006 1.184-1.646.812-5.997.812-5.997Z"/><path fill="#3E5C2E" d="M113.538 49.597c18.565 2.92 14.574-13.572 17.437-18.25.688-1.116 1.657-2.017 2.739-2.75a13.204 13.204 0 0 1 3.901-1.803c2.017-.564 4.136-.632 6.233-.61 5.264.046 10.539.564 15.657 1.782 9.108 2.153 9.536 1.341 16.513-5.41-2.085 5.895-6.075 6.864-10.595 6.853-4.419-.012-36.995-7.88-33.963 9.66.169.687.293 1.341.349 1.59 2.007 9.377-3.888 17.29-19.883 11.192-3.833-1.454-12.467-5.106-17.709.27 2.604-6.289 13.842-3.38 19.321-2.524Z"/><path fill="#568040" d="M131.471 39.069c.169.687.293 1.341.349 1.59.215 1.002.339 1.983.361 2.941-.293-.462-.597-.924-.879-1.409a22.613 22.613 0 0 1-1.894-4.103c.44-2.761.677-5.309 1.556-6.74.687-1.116 1.657-2.018 2.739-2.75a13.198 13.198 0 0 1 3.9-1.804c2.018-.564 4.137-.632 6.233-.61 5.264.046 10.54.564 15.657 1.782 9.108 2.153 9.536 1.341 16.514-5.41-2.086 5.895-6.076 6.864-10.596 6.853-4.396-.023-36.972-7.88-33.94 9.66ZM113.537 49.597c12.197 1.916 14.654-4.532 15.725-10.517 1.533 4.79 1.274 9.672-1.871 13.74-3.314 1.68-8.398 1.725-15.454-.969-3.833-1.454-12.467-5.106-17.709.27 2.593-6.289 13.831-3.38 19.309-2.524Z"/><path fill="#3E5C2E" d="M108.702 49.326c1.116.192 2.243.44 3.325.744 2.142.62 4.047 1.68 5.828 2.987.282.215.642.44 1.003.7-2.051-.305-4.362-.925-6.921-1.894-1.77-.677-4.554-1.804-7.552-2.311 1.465-.35 2.829-.496 4.317-.226Z"/><path fill="#74A352" d="M127.661 44.93c-.507 2.007-1.273 4.114-2.953 5.445-2.006 1.589-4.847 1.69-7.124.642-.642-.293-1.217-.699-1.77-1.15 7.282.564 10.495-2.31 12.107-6.03a19.03 19.03 0 0 1-.26 1.093Z"/><path fill="#568040" d="M178.047.654c.756 1.42 1.432 5.76-.473 8.003-1.567 1.848-3.269 3.686-3.968 5.997-.71 2.333-.293 4.835-.282 7.27 0 .541-.011 1.082-.135 1.6-.394 1.646-2.457 4.397-4.96 5.174 4.351-.653 7.564-3.967 8.071-7.292.147-.936.057-1.894.057-2.841 0-6.876 4.215-10.156 5.219-12.039 1.352-2.536.372-4.553-.091-6.526-.011.011-2.637.586-3.438.654Z"/><path fill="#3E5C2E" d="M176.198 21.924c-1.386-5.816-5.782-6.357 3.81-13.267-1.578 2.04-3.652 5.084-3.652 9.908 0 .947.09 1.905-.056 2.84-.034.18-.068.35-.102.52Z" opacity=".32"/><path fill="#3E5C2E" d="M178.532 10.776c-1.161 1.905-2.176 4.408-2.176 7.8 0 .215 0 .429.012.643-.451-.936-.913-1.871-.958-2.908-.124-2.277 1.273-4.239 3.122-5.535Z"/><path fill="#74A352" d="M177.563 8.657c1.555-1.837 1.397-5.072.867-6.966.429.394 3.348 4.836-1.285 7.811-.214.136-.428.282-.653.417.36-.428.721-.845 1.071-1.262Z"/><path fill="#3E5C2E" d="M136.961 27.876c3.291-.981 8.758-.654 12.162-.203-9.333-.338-18.768 2.051-17.663 11.35-2.717-3.528.361-9.614 5.501-11.147Z"/><path fill="#21212B" d="M30.184 107.55c.389-.057.409-2.12.046-4.609-.363-2.488-.972-4.46-1.36-4.403-.388.056-.408 2.12-.045 4.608.363 2.489.971 4.46 1.36 4.404Z"/><path fill="#464558" d="M73.06 46.091c-.947.304-1.928.541-2.909.699-2.378.383-4.835.406-7.112 1.184-5.467 1.87-8.657 7.732-9.547 13.436-.891 5.715-1.432 13.267-1.511 19.038-.011 1.229-.079 2.469-.45 3.641-.43 1.341-1.23 2.536-2.176 3.596-4.396 4.937-9.852 5.038-15.139 9.006 1.95 3.19 2.334 7.293 1.003 10.788a56.644 56.644 0 0 0 24.066-4.385c3.72-1.567 5.93-1.86 8.612-4.881 3.663-4.126 6.628-11.475 7.124-16.976.485-5.5.022-11.035.203-16.558.022-.722.056-1.454.135-2.187l-2.3-16.4ZM87.544 44.75l.08.586.1-.372-.18-.214Z"/><path fill="#D58500" d="M34.825 98.686c-.733-1.07-1.195-1.352-2.378-.868-1.432.587-2.818 1.432-4.194 2.13-.8.407-1.634.824-2.536.891-3.11.248-5.309-3.54-8.431-3.674-1.95-.09-3.776 1.296-5.715 1.037-.35.45-.056 1.16.44 1.454.495.281 1.104.27 1.679.236l2.886-.135c.563-.022 1.138-.045 1.668.147.53.191 1.003.654 1.026 1.206.09 1.634-5.636 3.697-9.379 3.517-2.93-.147-5.151-1.026-6.65-.891-1.77.158-.868 1.511.755 1.95.36.102 3.506.913 6.797 1.319-4.34.271-7.35-1.431-9.288-1.375-1.781.045-.958 1.443.631 1.995.338.113 3.247 1.071 6.38 1.68-2.604-.091-4.633-.722-6.008-.519-1.758.259-.778 1.544.857 1.916.383.09 3.911.801 7.394.981-2.75.034-4.858-.688-6.244-.485-1.612.237-.71 1.421.777 1.747 14.767 3.281 15.668-2.468 22.398-5.016 2.333-.879 4.858-1.025 7.338-1.262.248-.023.518-.056.71-.226.135-.135.203-.315.26-.507.72-2.412.247-5.174-1.173-7.248Z"/><path fill="#B45F00" d="M21.558 100.749c-.541-.575-1.07-1.161-1.736-1.6a4.135 4.135 0 0 0-.89-.451 1.8 1.8 0 0 0-1.116-.034c-1.252.372-2.514.642-3.833.687-.699.023-1.522 0-2.153-.327a1.884 1.884 0 0 1-.417-.293c.023.361.26.733.598.925.496.281 1.104.27 1.679.236l2.886-.135c.563-.023 1.138-.045 1.668.147.53.191 1.003.653 1.026 1.206.01.27-.124.541-.395.823.282.822.124 2.096 1.837 3.798.632-3.178 5.693-4.035 5.693-4.035-2.401.27-3.562.428-4.847-.947Z" opacity=".36"/><path fill="#B45F00" d="M21.04 103.285c.09.012.18-.022.214-.112.112-.271-.587-.181-1.59-.902-.259-.181-.62-.406-.496-.744a1.733 1.733 0 0 1-.214.315c.552.857 1.364 1.331 2.085 1.443ZM14.006 113.904c.067 0 .135-.012.203-.012a19.16 19.16 0 0 0 1.217-.112c-.507-.835.226-1.804-.27-2.604-.192-.316-.564-.485-.778-.778-.428-.598-.147-1.499-.575-2.097-.158-.214-.406-.372-.541-.608-.18-.305-.124-.688-.101-1.049.033-.507.01-1.059-.271-1.488-.101-.157-.237-.462-.36-.574-.17-.147-.328-.079-.553-.057-.124.011-1.6.135-1.6.102 0 2.705-6.572.879-7.835-.71-.699.428.158 1.386 1.466 1.758.35.101 3.291.857 6.447 1.274h.011c.305.056.575.067.8.045.17 1.51-8.972 1.172-10.629-1.116-.428.439.327 1.33 1.51 1.736.328.112 2.988.98 5.952 1.589-.01-.022.35.09.384.102.18.011 2.231-.057 2.333-.057-.056 2.942-8.285.372-9.153-.079-.327.496.519 1.251 1.725 1.522.383.079 3.843.778 7.281.981.384-.068.79-.012 1.161-.124 1.229-.372.418 1.803-3.11 1.566a17.695 17.695 0 0 1-2.886-.428c-.62-.146-1.263-.327-1.838-.609a4.39 4.39 0 0 1-.304-.169c.147.395.789.846 1.612 1.026 2.649.586 4.847.879 6.707.958.631.045 1.319.045 1.995.012Z" opacity=".36"/><path fill="#B45F00" d="M11.751 106.825c.226-.203.338-.688.068-.902-.417-.327-.97.428-1.296.631-.26.158-.53.248-.823.316l.744.101h.01c.283.045.542.056.756.045.192-.034.395-.056.541-.191ZM12.788 108.617c.136-.226.012-.609-.304-.451-.146.068-.26.192-.383.282-.293.203-.643.349-.98.462-.362.113-.734.203-1.106.214-.394 0-.789-.045-1.172.034-.169.034-.338.079-.507.124a.585.585 0 0 0 .135.034c.135.011 1.432-.034 2.03-.057.01-.022.022-.033.056-.033.44 0 .856-.091 1.284-.17.305-.056.756-.124.947-.439ZM13.51 111.266c.123-.203-.09-.383-.271-.406-.158-.023-.327.023-.474.068-.27.079-.518.203-.777.293-.88.315-1.849.338-2.773.36.473.046.947.079 1.431.113.384-.067.79-.011 1.161-.124.237-.067.395-.045.474.034.135-.023.27-.034.417-.045.225-.034.676-.068.811-.293ZM33.596 101.121c-.597-1.082-1.555-1.995-2.727-2.412a1.101 1.101 0 0 0-.18-.056c-.598.315-1.195.642-1.782.958.147.191.26.405.35.631.507 1.24.518 2.671.09 3.934-.44 1.262-1.308 2.367-2.401 3.145-.902.642-1.95 1.07-2.83 1.736-.845.642-1.521 1.476-2.254 2.254 1.804-1.161 3.45-2.469 5.84-3.37 2.096-.789 4.35-.992 6.593-1.195.203-.654.248-1.353.226-2.04-.057-1.24-.327-2.492-.925-3.585Z" opacity=".36"/><g fill="#B45F00"><path d="M17.026 104.953c.226.846.462 1.691.598 2.559.124.812.169 1.68.62 2.356.18.271.45.519.777.519.361 0 .665-.339.733-.688.068-.349-.022-.721-.158-1.06-.405-1.048-1.127-1.995-1.341-3.111-.09-.496-.079-1.014-.135-1.521a4.916 4.916 0 0 0-.305-1.263s0-.011-.01-.011c-.384.214-.824.428-1.297.631.214.507.372 1.048.518 1.589ZM16.8 110.195c.249-.023.395-.282.44-.519.147-.687-.112-1.375-.236-2.062-.09-.496-.113-.992-.17-1.499a9.08 9.08 0 0 0-.732-2.593c-.214.079-.428.158-.654.225.045.079.08.158.113.237.372.834.564 1.747.53 2.672-.034.755-.203 1.499-.147 2.254.034.451.17.936.541 1.195.102.045.203.09.316.09Z" opacity=".36"/></g><path fill="#B45F00" d="M11.92 98.867s.643.09 1.105-.012c.36-.079.676-.732.676-.732.068.653-.8 1.319-1.78.744Z" opacity=".36"/><path fill="#2B2B37" d="M73.86 51.851c-1.353.846-2.74 1.646-4.114 2.446-1.759 1.026-3.596 2.018-5.197 3.28-1.488 1.173-2.863 2.548-3.889 4.148-.54.846-.992 1.748-1.194 2.728-.203.97-.18 1.973-.023 2.953.316 1.917 1.105 3.698 1.623 5.558.451 1.612-.744 5.004-1.037 6.673-.158.879-.496 1.69-.755 2.547-.282.936-.44 1.905-.474 2.886-.033.913.046 1.815.136 2.728.079.766.236 1.566.101 2.333-.169.98-.913 1.307-1.792 1.533-1.443.383-2.795.924-3.754 2.13-.913 1.161.18.913-.27 2.288a12.49 12.49 0 0 1-2.277 4.115c-1.071 1.274-2.333 2.367-3.675 3.348-2.108 1.533-4.407 2.818-6.797 3.888a56.716 56.716 0 0 0 18.824-4.339c3.72-1.567 5.93-1.86 8.612-4.881 3.664-4.126 6.628-11.475 7.124-16.976.485-5.5.023-11.035.203-16.558.023-.722.056-1.454.135-2.187l-1.51-10.64ZM87.544 44.75l.08.586.1-.372-.18-.214Z" opacity=".29"/><path fill="#2B2B37" d="M54.28 87.47c-.191-.405-.53-.71-.834-1.025-.518-.519-1.07-1.003-1.544-1.556a9.515 9.515 0 0 1-.417-.608c-.09.281-.203.552-.338.811.462.857.812 1.77 1.161 2.66.124.327.237.688.417.992.135.226.417.395.643.496.383.18.71.068.89-.326.203-.44.237-.992.023-1.443ZM56.389 86.648c.225-.451-.102-1.195-.35-1.578-.789-1.229-2.649-1.477-4.283-1.86-.034.146-.057.293-.102.44 1.184 1.217 4.148 4.204 4.734 2.998ZM87.544 44.75l.08.586.1-.372-.18-.214Z" opacity=".48"/><path fill="#2B2B37" d="M73.06 46.091c-.947.304-1.928.541-2.909.699-1.51.248-3.043.35-4.553.586a19.32 19.32 0 0 0-.339 4.114c.068 2.694.643 5.355 1.353 7.947.733 2.683 1.623 5.31 2.356 7.992.699 2.57 1.307 5.208 1.386 7.88.136 4.553-2.457 11.046-5.219 14.732-1.352 1.803-3.077 3.302-5.095 4.306-2.119 1.06-4.599 1.668-6.966 1.307-3.066-.462-3.967-4.227-5.94-6.526-4.047 2.806-8.927 4.587-12.907 7.575 1.95 3.19 2.334 7.292 1.004 10.787a56.644 56.644 0 0 0 24.066-4.385c3.72-1.567 5.929-1.86 8.611-4.88 3.664-4.126 6.628-11.476 7.124-16.976.485-5.501.023-11.036.203-16.56.023-.72.056-1.453.135-2.186l-2.31-16.412Z" opacity=".48"/><path fill="#464558" d="m42.344 91.224-13.47 7.316c.394-.057 1.003 1.916 1.363 4.407.361 2.491.339 4.554-.045 4.61 8.792-.101 14.564.26 16.84-.101 2.368-.395-.1-17.889-4.688-16.232Z"/><path fill="#2B2B37" d="M43.313 103.274c-1.939.417-3.923.699-5.907.699-2.49.011-5.14-.451-7.281-1.736.033.226.078.462.112.699.36 2.491.338 4.554-.045 4.61 8.792-.101 14.564.259 16.84-.101.869-.136 1.094-2.57.8-5.524a28.024 28.024 0 0 1-4.52 1.353Z" opacity=".25"/><path fill="#575771" d="M30.598 97.92c.62.112 1.251.124 1.871.112 1.116-.033 2.243-.123 3.36-.202 1.724-.124 3.426-.395 5.072-.913 1.555-.496 3.088-1.173 4.475-2.04.225-.147.45-.294.676-.451-.947-2.266-2.22-3.743-3.708-3.202l-12.152 6.594c.136.045.27.08.406.102Z"/><path fill="#2B2B37" d="M32.3 106.881a.237.237 0 0 1-.203-.124c-.067-.113-.022-.259.09-.327.08-.045 7.89-4.621 8.995-12.647.023-.124.136-.225.271-.203.124.023.225.135.203.27-1.139 8.263-9.142 12.952-9.232 12.997a.288.288 0 0 1-.124.034Z"/><path fill="#2B2B37" d="M45.24 107.501a.222.222 0 0 1-.191-.101c-3.325-4.904-13.459-9.12-13.56-9.153-.124-.045-.18-.192-.124-.305.045-.124.191-.18.304-.124.417.17 10.37 4.306 13.774 9.334a.226.226 0 0 1-.067.327c-.045.011-.09.022-.136.022Z"/><path fill="#2B2B37" d="M68.494 97.514c.124-1.251.034-2.559-.326-3.731-.418-1.364-1.5-2.502-2.852-2.953-1.308-.44-2.75-.282-4.036.146-1.612.541-2.987 1.578-4.294 2.65-1.6 1.307-1.669 1.014-3.224 2.355-1.59 1.375-3.28 2.66-4.982 3.9-1.691 1.24-3.438 2.435-5.298 3.404a20.49 20.49 0 0 1-5.816 2.018c-1.038.192-2.097.203-3.145.282-.564.045-1.139.09-1.691.203-.338.067-.733.225-.79.62-.033.327.147.665.328.924.045.068.09.135.146.192 7.485-.023 12.444.248 14.518-.091.373-.056.564-.518.677-.879a57.006 57.006 0 0 0 11.599-3.472c3.72-1.566 5.929-1.859 8.612-4.88.18-.215.383-.451.574-.688Z" opacity=".29"/><path fill="#2B2B37" d="M57.865 101.82c-1.048-.519-.958-2.052-2.018-1.691-1.228.417-2.367 1.094-3.471 1.77-1.026.631-2.03 1.307-3.145 1.792-1.41.609-2.965.834-4.486.969-2.537.226-5.118.294-7.474 1.398-.62.293-1.51.778-1.792 1.488 5.828.034 9.739.192 11.531-.09.372-.056.564-.519.677-.879a57.008 57.008 0 0 0 11.599-3.472 56.51 56.51 0 0 0 1.724-.767c-.282-.969-2.322-.101-3.145-.518Z" opacity=".29"/><path fill="#464558" d="M52.872 83.458s-.947-.135-1.105-.248c-.158-.113-1.082-.09-.474-1.973.61-1.882.7-2.93.722-3.663.023-.733.778-1.15.778-1.15l1.6 4.633-1.521 2.4ZM51.665 83.65s-.146-.023-.191.135c-.045.158 0 .507 0 .507s.383.575.518.721c.09.102.26-.563.26-.575 0-.01-.587-.788-.587-.788ZM51.147 85.092s-.372 0-.519.248c-.146.248-.248 1.184-.879 1.871-.631.7-1.308 1.815-1.308 1.815s1.917-.766 1.962-.721c.034.056.699-1.15.71-1.206.011-.057.034-2.007.034-2.007Z"/><path fill="#21212B" d="M148.185 101.021c.048-2.733-.262-4.954-.691-4.962-.43-.007-.817 2.202-.865 4.934-.048 2.733.262 4.954.691 4.961.43.008.817-2.201.865-4.933Z"/><path fill="#D58500" d="M140.748 96.624c.733-1.071 1.195-1.353 2.39-.857 1.431.586 2.807 1.431 4.193 2.142.8.405 1.635.822 2.525.901 3.111.26 5.32-3.517 8.443-3.652 1.95-.079 3.776 1.308 5.715 1.06.349.45.056 1.16-.451 1.454-.496.282-1.105.27-1.68.237l-2.885-.136c-.564-.022-1.139-.056-1.669.136-.529.191-1.003.642-1.037 1.206-.09 1.634 5.625 3.708 9.367 3.539 2.931-.135 5.152-1.014 6.651-.868 1.77.169.857 1.511-.755 1.95-.361.102-3.517.902-6.797 1.297 4.339.281 7.349-1.409 9.288-1.353 1.781.056.947 1.454-.631 1.995-.339.113-3.247 1.06-6.38 1.657 2.603-.079 4.632-.71 6.008-.507 1.758.259.777 1.555-.857 1.905-.383.079-3.912.789-7.395.969 2.751.045 4.859-.676 6.245-.473 1.612.236.71 1.42-.789 1.747-14.766 3.235-15.657-2.514-22.386-5.072-2.322-.891-4.858-1.038-7.327-1.286-.248-.022-.518-.056-.71-.236-.135-.135-.203-.327-.259-.507-.722-2.413-.237-5.174 1.183-7.248Z"/><path fill="#B45F00" d="M154.016 98.732c.541-.575 1.082-1.15 1.735-1.59.282-.191.587-.338.891-.45a1.72 1.72 0 0 1 1.116-.023c1.251.372 2.513.654 3.832.699.699.022 1.522 0 2.153-.327.136-.068.282-.17.417-.293-.022.36-.27.732-.597.924-.496.282-1.105.27-1.68.237l-2.885-.136c-.564-.022-1.139-.056-1.669.136-.529.191-1.003.642-1.037 1.206-.011.27.124.552.384.823-.293.811-.124 2.096-1.849 3.798-.62-3.178-5.681-4.046-5.681-4.058 2.412.26 3.573.417 4.87-.946Z" opacity=".36"/><path fill="#B45F00" d="M154.534 101.268c-.09.011-.18-.023-.214-.113-.113-.27.586-.18 1.589-.902.26-.18.62-.406.496-.732.057.101.124.214.215.315-.564.846-1.376 1.319-2.086 1.432ZM161.534 111.909c-.068 0-.135-.012-.203-.012a19.133 19.133 0 0 1-1.217-.112c.507-.835-.214-1.815.27-2.604.192-.316.564-.485.778-.778.44-.597.147-1.499.586-2.097.158-.214.406-.372.541-.608.181-.305.124-.688.102-1.049-.034-.507-.012-1.059.282-1.476.101-.158.236-.462.371-.575.17-.147.327-.079.553-.056.124.011 1.6.146 1.6.101 0 2.705 6.572.902 7.846-.688.687.429-.158 1.387-1.477 1.759-.349.09-3.291.845-6.447 1.251h-.012a3.418 3.418 0 0 1-.8.045c-.169 1.511 8.961 1.195 10.641-1.082.428.44-.327 1.33-1.511 1.736-.327.113-2.987.969-5.951 1.578.011-.023-.35.09-.384.101-.18.012-2.231-.067-2.333-.067.045 2.942 8.285.394 9.153-.057.316.496-.53 1.252-1.725 1.511-.383.079-3.843.766-7.293.958-.383-.068-.789-.011-1.161-.124-1.228-.372-.417 1.804 3.111 1.578.97-.068 1.939-.203 2.886-.417.631-.147 1.263-.316 1.837-.609a4.27 4.27 0 0 0 .305-.169c-.147.395-.789.834-1.612 1.026-2.649.575-4.847.868-6.707.947-.676.022-1.353.022-2.029-.011Z" opacity=".36"/><path fill="#B45F00" d="M163.811 104.83c-.226-.214-.338-.688-.068-.902.417-.327.969.428 1.296.631.26.158.53.248.823.316l-.744.101h-.011a3.6 3.6 0 0 1-.755.045c-.203-.033-.406-.056-.541-.191ZM162.763 106.622c-.136-.225-.012-.609.304-.451.147.068.259.192.383.282.293.203.643.349.981.462.361.113.721.214 1.105.214.394 0 .789-.045 1.172.034.169.034.338.079.507.135a.533.533 0 0 1-.135.034c-.135.011-1.432-.034-2.029-.056-.011-.023-.023-.034-.056-.034-.44 0-.857-.09-1.285-.169-.305-.068-.756-.147-.947-.451ZM162.03 109.26c-.124-.203.09-.384.282-.406.158-.023.327.022.473.067.271.079.519.203.778.294.879.315 1.848.349 2.773.372a30.24 30.24 0 0 1-1.432.101c-.383-.068-.789-.011-1.161-.124-.236-.068-.394-.045-.473.034a4.474 4.474 0 0 0-.417-.045c-.237-.023-.688-.068-.823-.293ZM141.977 99.07c.609-1.082 1.567-1.995 2.739-2.401.056-.023.124-.045.18-.057.598.316 1.195.643 1.781.959a2.666 2.666 0 0 0-.349.63c-.519 1.24-.53 2.661-.102 3.935.429 1.273 1.297 2.378 2.39 3.156.902.642 1.95 1.071 2.829 1.736.846.642 1.522 1.488 2.255 2.254-1.792-1.172-3.449-2.48-5.828-3.381-2.096-.801-4.351-1.004-6.583-1.218-.203-.654-.248-1.352-.225-2.04.045-1.24.304-2.491.913-3.573Z" opacity=".36"/><g fill="#B45F00"><path d="M158.535 102.936c-.236.845-.462 1.691-.597 2.559-.124.811-.169 1.668-.62 2.356-.18.27-.451.518-.778.518-.361 0-.654-.338-.733-.687-.078-.361.034-.722.158-1.06.417-1.048 1.139-1.995 1.342-3.1.09-.496.079-1.014.135-1.522.045-.428.158-.856.304-1.262 0 0 0-.011.012-.011.383.214.811.428 1.296.631-.214.507-.372 1.048-.519 1.578ZM158.749 108.178c-.248-.023-.394-.282-.439-.519-.147-.688.112-1.375.236-2.063.091-.496.113-.992.17-1.499.112-.89.372-1.758.732-2.581.214.079.429.158.654.237a2.206 2.206 0 0 0-.113.236 6.03 6.03 0 0 0-.541 2.66c.023.756.192 1.5.147 2.255-.034.451-.169.935-.541 1.183a.505.505 0 0 1-.305.091Z" opacity=".36"/></g><path fill="#B45F00" d="M163.653 96.872s-.642.09-1.104-.023c-.361-.079-.677-.733-.677-.733-.067.654.801 1.32 1.781.756Z" opacity=".36"/><path fill="#464558" d="M95.119 45.888c1.07.203 2.153.316 3.235.35 2.615.09 5.264-.226 7.823.293 6.154 1.262 10.393 7.135 12.14 13.166 1.747 6.03 1.6 12.421 2.491 18.643.191 1.32.428 2.65.981 3.867.642 1.386 1.679 2.57 2.829 3.573 5.41 4.712 10.618 5.49 16.851 9.029-1.668 3.708-1.51 8.172.406 11.757-8.803 1.465-15.476 1.239-24.077-1.15-4.227-1.172-8.409-2.852-11.711-5.738-4.52-3.945-6.966-9.784-8.252-15.645-1.284-5.862-1.544-11.892-2.49-17.81a42.426 42.426 0 0 0-.44-2.333l.214-18.002Z"/><path fill="#2B2B37" d="M95.119 45.888c1.07.203 2.153.316 3.235.35 2.615.09 5.264-.226 7.823.293 6.154 1.262 10.393 7.135 12.14 13.166 1.747 6.03 1.6 12.421 2.491 18.643.191 1.32.428 2.65.981 3.867.642 1.386 1.679 2.57 2.829 3.573 5.41 4.712 10.618 5.49 16.851 9.029-1.668 3.708-1.51 8.172.406 11.757-8.803 1.465-15.476 1.239-24.077-1.15-4.227-1.172-8.409-2.852-11.711-5.738-4.52-3.945-6.966-9.784-8.252-15.645-1.284-5.862-1.544-11.892-2.49-17.81a42.426 42.426 0 0 0-.44-2.333l.214-18.002Z" opacity=".29"/><path fill="#464558" d="m79.327 46.44-.011.643a4.125 4.125 0 0 1-.158-.394c.056-.08.124-.17.169-.248Z"/><path fill="#2B2B37" d="M95.04 52.212c1.578.721 3.167 1.398 4.768 2.074 2.04.857 4.148 1.68 6.053 2.807 1.77 1.06 3.438 2.355 4.768 3.934.699.834 1.308 1.747 1.668 2.773.35 1.025.463 2.107.429 3.178-.079 2.108-.676 4.137-.992 6.211-.271 1.792-.271 3.618.282 5.366.293.935.766 1.758 1.161 2.637.439.97.744 1.984.901 3.044.158.98.203 1.972.226 2.953.022.834-.034 1.725.214 2.536.316 1.037 1.161 1.285 2.142 1.41 1.6.213 3.145.608 4.339 1.78 1.15 1.127 1.691 2.672 2.368 4.092.755 1.567 1.736 2.942 3.021 4.125 1.33 1.229.383 1.973 1.961 2.841 2.48 1.364 5.14 2.435 7.868 3.258-7.011.507-11.644.056-18.419-1.826-4.227-1.173-8.409-2.852-11.711-5.738-4.52-3.945-6.966-9.784-8.252-15.645-1.284-5.862-1.544-11.892-2.49-17.81a42.411 42.411 0 0 0-.44-2.334l.135-11.666ZM79.327 46.44l-.011.654a4.136 4.136 0 0 1-.158-.394c.056-.09.112-.18.169-.26Z" opacity=".29"/><path fill="#2B2B37" d="m79.327 46.44-.011.643a4.125 4.125 0 0 1-.158-.394c.056-.08.124-.17.169-.248ZM95.119 45.888c1.07.203 2.153.316 3.235.35 1.657.056 3.325-.045 4.982 0 .462 1.42.778 2.897.925 4.396.293 2.92.045 5.85-.361 8.747-.417 2.987-1.015 5.951-1.432 8.939-.406 2.863-.699 5.793-.406 8.68.485 4.925 2.413 9.896 5.896 13.48 1.702 1.748 3.776 3.134 6.087 3.934 2.434.846 5.185 1.161 7.687.451 3.246-.924 5.445-3.426 7.259-6.177 4.746 2.469 7.789 3.46 12.49 6.132-1.669 3.709-1.511 8.172.405 11.757-8.803 1.465-15.476 1.24-24.077-1.15-4.227-1.172-8.408-2.852-11.711-5.737-4.52-3.946-6.966-9.784-8.251-15.646-1.285-5.861-1.544-11.892-2.491-17.81a42.408 42.408 0 0 0-.44-2.333l.203-18.013Z" opacity=".48"/><path fill="#464558" d="m131.979 90.03 15.521 6.019c-.428-.012-.811 2.198-.857 4.937-.045 2.728.26 4.948.688 4.96-9.48 1.093-15.645 2.288-18.159 2.209-2.627-.09-2.367-19.287 2.807-18.126Z"/><path fill="#2B2B37" d="M132.587 103.139c2.142.18 4.328.214 6.47-.056 2.694-.339 5.478-1.195 7.609-2.875-.012.248-.023.507-.023.767-.045 2.728.259 4.948.688 4.959-9.48 1.094-15.646 2.289-18.159 2.21-.959-.034-1.533-2.627-1.624-5.839 1.657.428 3.348.687 5.039.834Z" opacity=".25"/><path fill="#2B2B37" d="M144.93 105.517c-.034 0-.068-.011-.102-.022-.09-.045-2.367-.992-4.971-3.044-2.4-1.893-5.534-5.106-6.763-9.682a.26.26 0 0 1 .181-.316.26.26 0 0 1 .315.18c2.3 8.511 11.34 12.354 11.43 12.388a.252.252 0 0 1 .135.338.23.23 0 0 1-.225.158Z"/><path fill="#2B2B37" d="M131.065 107.963a.411.411 0 0 1-.112-.022.26.26 0 0 1-.113-.35c2.976-5.884 13.132-11.7 13.56-11.948a.26.26 0 0 1 .35.101.26.26 0 0 1-.102.35c-.101.056-10.449 5.997-13.357 11.734a.27.27 0 0 1-.226.135Z"/><path fill="#2B2B37" d="M105.376 98.99c-.304-1.33-.383-2.75-.169-4.068a4.926 4.926 0 0 1 2.672-3.574c1.352-.653 2.919-.687 4.373-.394 1.815.36 3.438 1.285 4.983 2.254 1.893 1.184 3.697 2.525 5.557 3.765 1.905 1.263 1.442 2.153 3.449 3.258 1.995 1.104 4.047 2.141 6.177 2.942a21.699 21.699 0 0 0 6.549 1.364c1.138.056 2.288-.068 3.427-.124.62-.034 1.24-.057 1.86-.012.372.023.822.147.924.564.09.349-.068.733-.226 1.048l-.135.237c-8.071 1.003-13.368 1.984-15.645 1.905-.406-.011-.688-.485-.846-.857-4.385-.248-6.278-.71-10.517-1.882-4.227-1.172-8.408-2.852-11.711-5.738-.248-.225-.485-.45-.722-.687Z" opacity=".29"/><path fill="#2B2B37" d="M117.415 102.17c1.048-.711 2.502-.666 3.697-.429 1.387.282 2.694.857 3.979 1.432 1.184.541-.09.868 1.173 1.24 1.6.462 3.302.484 4.959.417 2.762-.113 5.557-.395 8.24.473.699.226 1.736.631 2.13 1.353-6.267.834-10.471 1.555-12.433 1.488-.405-.012-.687-.485-.845-.857-4.385-.248-6.278-.71-10.517-1.882a56.972 56.972 0 0 1-1.961-.587c.192-1.07.755-2.096 1.578-2.648Z" opacity=".29"/><g fill="#464558"><path d="M120.255 81.688s1.003-.27 1.161-.417c.158-.146 1.161-.248.237-2.198s-1.161-3.054-1.274-3.855c-.124-.789-.992-1.127-.992-1.127l-1.082 5.208 1.95 2.39ZM121.585 81.733s.158-.045.225.113c.068.158.068.541.068.541s-.338.665-.462.845c-.09.124-.361-.563-.361-.586.011-.022.53-.913.53-.913ZM122.352 83.221s.405-.045.597.192c.192.248.428 1.24 1.206 1.894.778.665 1.657 1.77 1.657 1.77s-2.175-.564-2.209-.508c-.034.056-.913-1.138-.936-1.206-.022-.056-.315-2.142-.315-2.142Z"/></g><g fill="#2B2B37" opacity=".29"><path d="M120.255 81.688s1.003-.27 1.161-.417c.158-.146 1.161-.248.237-2.198s-1.161-3.054-1.274-3.855c-.124-.789-.992-1.127-.992-1.127l-1.082 5.208 1.95 2.39ZM121.585 81.733s.158-.045.225.113c.068.158.068.541.068.541s-.338.665-.462.845c-.09.124-.361-.563-.361-.586.011-.022.53-.913.53-.913ZM122.352 83.221s.405-.045.597.192c.192.248.428 1.24 1.206 1.894.778.665 1.657 1.77 1.657 1.77s-2.175-.564-2.209-.508c-.034.056-.913-1.138-.936-1.206-.022-.056-.315-2.142-.315-2.142Z" opacity=".29"/></g><path fill="#2B2B37" d="M79.767 47.613v-.642a5.17 5.17 0 0 0-.17.259c.057.124.113.259.17.383Z"/><path fill="#464558" d="M75.619 109.474c.068-.383.17-.801.473-1.037.248-.192.587-.226.902-.248 10.765-.688 25.734-2.435 33.625-2.796 30.457-1.409 35.056.474 35.056.474l-14.44 18.418h3.664a26.427 26.427 0 0 1-3.157 2.097c-3.776 2.164-7.958 3.517-12.151 4.666a139.66 139.66 0 0 1-28.033 4.633c-6.121.372-12.681.237-17.81-3.133-.17-7.71.45-15.466 1.871-23.074Z"/><path fill="#2B2B37" d="M75.619 109.474c.067-.383.169-.8.473-1.037.248-.192.587-.226.902-.248 10.765-.688 25.734-2.435 33.624-2.796 4.34-.202 8.161-.338 11.509-.417.011.012.023.034.023.045.451.733 1.059 1.319 1.724 1.849 2.818 2.198 6.549 3.055 10.055 3.28 2.04.135 4.08.011 6.121-.191.834-.091 1.747-.079 2.615-.237l-11.419 14.575h3.664a26.61 26.61 0 0 1-3.156 2.096c-3.777 2.164-7.959 3.517-12.152 4.667a139.802 139.802 0 0 1-28.033 4.633c-6.12.372-12.681.236-17.81-3.134a111.73 111.73 0 0 1 1.86-23.085Z" opacity=".48"/><path fill="#2B2B37" d="M75.777 123.327c2.468-1.217 3.934-3.438 5.523-5.602.845-1.15 1.758-2.266 2.908-3.122a19.27 19.27 0 0 1 4.396-2.446c3.066-1.229 6.369-1.714 9.649-1.838 3.415-.135 6.82.124 10.156.868 3.337.744 6.549 1.917 9.649 3.348 3.145 1.454 6.177 3.122 9.423 4.329 2.176.811 4.408 1.352 6.685 1.702l-2.92 3.731h3.664a26.541 26.541 0 0 1-3.157 2.096c-3.776 2.164-7.958 3.517-12.151 4.667a139.802 139.802 0 0 1-28.033 4.633c-6.121.372-12.681.236-17.81-3.134-.068-2.829-.023-5.67.135-8.499a11.589 11.589 0 0 0 1.883-.733Z" opacity=".48"/><path fill="#464558" d="M72.361 120.182c2.198-3.28 4.7-6.368 7.518-9.13 2.097-2.052 4.385-3.923 6.888-5.478-6.888-.643-13.538-1.285-17.968-1.488-30.457-1.409-35.056.473-35.056.473l14.44 18.419h-3.664a26.516 26.516 0 0 0 3.156 2.096c3.777 2.164 7.958 3.517 12.152 4.667 2.344.642 4.7 1.217 7.078 1.724 1.161-4.024 3.111-7.788 5.456-11.283Z"/><path fill="#2B2B37" d="M47.653 125.086c2.953 1.702 6.166 2.896 9.435 3.888.54-.405 1.06-.822 1.59-1.24 1.69-1.341 3.403-2.637 5.083-3.99 1.77-1.42 3.471-2.897 5.207-4.362 3.45-2.908 7.057-5.783 11.205-7.62a24.125 24.125 0 0 1 6.053-1.792c2.153-.338 4.34-.383 6.526-.282 2.537.124 5.084.237 7.62.372 1.263.068 2.525.158 3.788.282-.124-.722-.248-1.443-.384-2.164-.067-.384-.169-.801-.473-1.038-.248-.191-.586-.225-.902-.247-10.764-.688-25.734-2.435-33.624-2.796-4.34-.203-8.161-.338-11.509-.417a.085.085 0 0 0-.023.045c-.45.733-1.059 1.319-1.724 1.849-2.818 2.198-6.55 3.054-10.055 3.28-2.04.135-4.08.011-6.12-.192-.835-.09-1.748-.079-2.615-.236L48.148 123h-3.663a32.842 32.842 0 0 0 3.167 2.086Z" opacity=".48"/><path fill="#2B2B37" d="M103.63 122.008c-2.469-1.217-3.934-3.438-5.523-5.602-.846-1.15-1.759-2.266-2.908-3.122a19.309 19.309 0 0 0-4.397-2.446c-3.066-1.229-6.368-1.714-9.648-1.838-3.416-.135-6.82.124-10.156.868-3.337.744-6.55 1.917-9.65 3.348-3.144 1.454-6.176 3.122-9.423 4.329-2.175.811-4.407 1.352-6.684 1.702l2.92 3.731h-3.664a26.515 26.515 0 0 0 3.156 2.096c3.776 2.165 7.958 3.517 12.151 4.667a139.728 139.728 0 0 0 28.034 4.633c6.12.372 12.681.236 17.81-3.134.067-2.829.022-5.67-.136-8.499a10.61 10.61 0 0 1-1.882-.733Z" opacity=".48"/><path fill="#2B2B37" d="M124.675 104.965c2.389.361 5.748 1.646 12.286 2.536 0 0-2.885 6.865-6.154 7.147-3.269.281-6.493-2.3-6.493-2.3l.361-7.383Z" opacity=".29"/><path fill="#575770" d="M127.143 105.259c-9.502-1.939-46.756-2.367-51.513-2.412-4.79-.045-22.848 3.145-23.885 3.674 5.76 4.701 16.333 13.324 16.333 13.324 2.558 1.443 5.14 2.897 7.958 3.72 2.75.8 5.636.969 8.499 1.014 12.512.169 25.418-2.266 35.721-9.367.969-.665 1.916-1.386 2.683-2.277 1.781-2.085 7.879-3.9 10.381-6.29-2.051-.541-4.114-.969-6.177-1.386Z"/><path fill="#2B2B37" d="M69.577 103.917c-1.217.552-4.215 1.104-3.855 2.964.26 1.364 1.984 1.398 3.078 1.263 1.33-.158 2.434-.158 3.314.98.349.451.597.97.992 1.376.63.665 1.33.721 2.186.45.868-.281 1.657-.698 2.57-.856a9.74 9.74 0 0 1 2.863-.057c1.646.226 2.954.913 4.272 1.894 1.207.902 2.368 1.894 3.731 2.548 1.173.563 2.909.811 3.9-.26.722-.777.125-2.096-.18-2.942-.36-1.014-.856-2.164-.62-3.269.282-1.307 1.42-1.735 2.65-1.623 1.386.136 2.919.553 4.192 1.116 1.612.699 2.83 1.916 4.306 2.796 1.973 1.172 5.242 1.285 5.58-1.623.214-1.781-.586-3.551-1.499-5.039 0-.011-.012-.011-.012-.023-13.436-.574-28.495-.744-31.415-.766-1.082-.011-2.818.146-4.892.394-.35.282-.755.496-1.16.677Z" opacity=".25"/><path fill="#2B2B37" d="M60.785 109.913c.89-.067 1.77-.18 2.638-.383.845-.191 1.78-.462 2.445-1.037.61-.518.71-1.274.327-1.961-.405-.722-1.24-.992-2.017-1.082-1.838-.203-3.743.293-5.49.766-.958.259-1.905.507-2.874.722-.823.18-1.668.326-2.514.394-.169.011-.338.023-.518.023.845.699 1.77 1.442 2.728 2.232 1.747.033 3.539.45 5.275.326ZM69.803 103.962c.575.575 1.206 1.116 1.893 1.555 1.883 1.206 4.002 1.995 6.144 2.593 2.141.609 4.328 1.026 6.526 1.409 2.57.451 5.129.778 7.744.857 5.095.157 10.179-.395 15.285-.406 4.216-.011 8.724.417 12.275 2.908.62.44 1.217.936 1.758 1.488a10.123 10.123 0 0 0 1.522-1.432c1.781-2.085 7.879-3.9 10.382-6.289-2.041-.53-4.103-.959-6.166-1.376-9.502-1.938-46.756-2.367-51.513-2.412-1.319-.011-3.641.214-6.346.575.157.18.326.349.496.53Z" opacity=".25"/><path fill="#2B2B37" d="M127.143 105.258c-9.502-1.939-46.756-2.367-51.513-2.412-.45 0-1.014.022-1.68.068-.247 1.161-.788 2.231-1.51 3.178-1.657 2.153-4.114 3.359-6.65 4.182-2.717.868-5.602 1.195-8.432.834 5.23 4.261 10.72 8.747 10.72 8.747 2.559 1.443 5.14 2.897 7.958 3.72 2.75.8 5.636.97 8.5 1.015 12.511.169 25.418-2.266 35.72-9.367.97-.665 1.916-1.387 2.683-2.277 1.781-2.086 7.879-3.901 10.381-6.29-2.051-.553-4.114-.981-6.177-1.398Z" opacity=".25"/><path fill="#2B2B37" d="M127.143 105.258c-3.336-.676-10.088-1.172-17.652-1.533-.834 1.646-1.916 3.168-2.975 4.486-2.616 3.258-5.997 5.952-9.537 8.139a42.884 42.884 0 0 1-6.12 3.133c-2.232.925-4.565 1.578-6.876 2.277-2.367.71-4.746 1.398-7.135 2.007 2.502.62 5.106.766 7.698.8 12.512.169 25.419-2.266 35.721-9.367.97-.665 1.917-1.386 2.683-2.277 1.781-2.085 7.879-3.9 10.382-6.29-2.063-.53-4.126-.958-6.189-1.375Z" opacity=".25"/><path fill="#464558" d="M92.177 154.754c.53.022 1.06.033 1.59.056 1.927.056 3.832-.383 5.568-1.229 2.491-1.217 5.095-2.254 7.812-3.032 3.516-1.014 7.157-1.409 10.798-1.578 3.686-.18 7.214-.699 10.754-1.725a103.381 103.381 0 0 0 5.185-1.679c1.465-.507 2.953-.981 4.385-1.601 2.4-1.037 4.644-2.468 6.684-4.103 3.979-3.19 7.811-7.699 10.077-12.715 2.345-6.695 1.24-13.267-3.201-17.956-7.564-7.969-18.633-1.105-26.591 4.385-6.515 4.497-14.045 7.248-21.484 9.953-11.949 4.351-6.053 2.04-16.108 10.077-2.717 2.176-4.08 2.243-3.81 5.704.101 1.33.541 2.604.778 3.911.36 1.939.282 3.946.653 5.884.361 1.939 1.285 3.923 3.021 4.87 1.162.642 2.548.732 3.89.778Z"/><path fill="#2B2B37" d="M140.636 113.013a.968.968 0 0 0-1.094-.214c-.36.169-.575.53-.755.879-.18.35-.372.722-.699.936-.327.214-.857.18-1.026-.18-.169-.35.091-.756.339-1.06.372-.462.755-.913 1.127-1.375.259-.316.541-.744.36-1.116-.225-.462-.924-.372-1.363-.113a3.736 3.736 0 0 0-1.567 1.792c-.147.361-.237.744-.451 1.06-.485.733-1.454.924-2.322 1.071-1.838.327-3.179 1.871-4.746 2.852a56.017 56.017 0 0 1-5.624 3.122c-3.855 1.849-7.947 3.235-12.163 3.99-4.261.756-8.86.947-12.388 3.45-2.119 1.499-3.618 3.697-5.027 5.861-.902 1.375-5.49 1.274-6.842 2.243-.823.586-.136 1.623.259 2.683h.699c2.051 0 4.08.045 6.132 0 1.33-.034 2.694-.147 3.877-.823 1.015-.575 1.86-1.398 2.841-2.018 1.747-1.093 3.866-1.048 5.884-.947 5.219-1.273 10.686-2.276 14.676-5.782 1.623-1.432 3.844-2.886 5.478-4.306 2.525-2.198 4.802-3.72 7.789-5.241 1.003-.508 2.232-1.116 3.066-1.872.789-.71.665-2.029 1.567-2.671.654-.473 1.702-.406 2.097-1.105a.972.972 0 0 0-.124-1.116Z"/><path fill="#2B2B37" d="M92.177 154.754c.53.022 1.06.033 1.59.056 1.927.056 3.832-.383 5.568-1.229 2.491-1.217 5.095-2.254 7.812-3.032 3.516-1.014 7.157-1.409 10.798-1.578 3.686-.18 7.214-.699 10.754-1.725a103.381 103.381 0 0 0 5.185-1.679c1.465-.507 2.953-.981 4.385-1.601 2.401-1.037 4.644-2.468 6.684-4.103 3.787-3.043 7.439-7.281 9.75-12.004 2.706-6.978 1.68-13.865-2.874-18.667-3.145-3.314-6.887-4.058-10.765-3.415.338.225.654.473.958.732 1.849 1.624 2.841 3.923 2.92 6.369.09 2.897-.925 5.681-2.638 7.992-1.758 2.39-4.126 4.295-6.617 5.873-2.547 1.612-5.264 2.897-8.082 3.956-3.122 1.184-6.346 2.221-9.164 4.058-.721.473-1.42.992-2.063 1.567-.653.586-1.228 1.24-1.826 1.882-.913.97-1.848 2.086-3.133 2.548-1.297.473-2.503 1.104-3.776 1.634-.733.305-1.477.575-2.255.722-.755.135-1.533.146-2.299.18-2.322.09-4.633.349-6.921.744-.463.079-.936.169-1.41.101-.473-.067-.935-.304-1.15-.732-.28-.586.023-1.319.52-1.747.495-.429 1.138-.632 1.735-.902a9.215 9.215 0 0 0 2.48-1.612c.316-.293.62-.609.767-1.026.135-.406.067-.913-.282-1.172-.203-.158-.474-.203-.733-.226a5.03 5.03 0 0 0-3.055.744c-1.194.756-2.062 2.029-3.404 2.48-1.747.575-3.922-.394-5.365.744-.609.485-.924 1.24-1.15 1.984-.631 2.097-.27 4.306.124 6.403.36 1.938 1.285 3.922 3.021 4.869 1.183.676 2.57.767 3.911.812Z" opacity=".29"/><path fill="#2B2B37" d="M92.177 154.754c.53.022 1.06.033 1.59.056 1.927.056 3.832-.383 5.568-1.229 2.491-1.217 5.095-2.254 7.812-3.032 3.516-1.014 7.157-1.409 10.798-1.578 3.686-.18 7.214-.699 10.754-1.725a103.381 103.381 0 0 0 5.185-1.679c1.465-.507 2.953-.981 4.385-1.601 2.401-1.037 4.644-2.468 6.684-4.103 3.787-3.043 7.439-7.281 9.75-12.004 2.705-6.978 1.68-13.865-2.874-18.667-1.894-1.995-4.002-3.055-6.222-3.449a22.213 22.213 0 0 1 1.826 1.724c1.927 2.029 3.302 4.645 3.81 7.406.281 1.567.259 3.224-.395 4.701-.676 1.533-1.95 2.795-3.133 3.945-1.218 1.195-2.492 2.367-3.416 3.821-.473.755-.789 1.567-1.138 2.367-.35.8-.733 1.578-1.173 2.345a19.649 19.649 0 0 1-2.93 3.934c-1.24 1.296-2.649 2.434-4.081 3.505-2.908 2.176-6.188 3.934-9.852 4.306-2.186.226-4.407.023-6.571.507-2.052.463-3.923 1.398-5.704 2.48-1.691 1.026-3.325 2.119-5.14 2.92-1.758.766-3.629 1.285-5.557 1.33-1.06.022-2.13-.057-3.19-.079-.992-.011-2.018.056-3.01-.023-2.829-.214-3.877-3.302-4.35-5.658-.305-1.533-.733-3.201-2.007-4.103a3.276 3.276 0 0 0-2.74-.474c-.923.26-1.701.97-2.073 1.849-.27.642-.316 1.364-.316 2.051-.022 3.078.767 7.733 3.788 9.379 1.195.642 2.58.732 3.922.778Z" opacity=".29"/><path fill="#2B2B37" d="M92.718 151.485c-.112-1.15-.45-2.277-.755-3.382a54.515 54.515 0 0 0-1.172-3.787c-.395-1.116-.812-2.243-1.387-3.28a3.252 3.252 0 0 0-2.525-.339c-.924.26-1.702.97-2.074 1.849-.27.642-.315 1.364-.315 2.052-.023 3.077.766 7.732 3.787 9.378 1.06.575 2.288.699 3.494.755.88-.857 1.071-2.063.947-3.246Z" opacity=".29"/><path fill="#575770" d="M47.642 147.517c.169-.766.868-1.769 1.713-1.86-.88.091-1.668.147-2.322-.586a2.112 2.112 0 0 1-.507-1.657c.09-.653.496-1.24 1.037-1.623 1.6-1.138 3.133-.169 4.847-.451.744-.124 1.443-.428 2.153-.654 2.547-.834 5.151-.495 7.766-.462 2.367.023 4.746.203 7.09.541 2.142.305 4.295.744 6.448.575 3.956-.304 6.2-2.57 9.265-4.554 1.026.587 2.818 3.799 4.318 7.88.732 2.006 1.273 3.888 1.6 5.433-3.415 1.082-6.662 3.697-10.145 5.004-3.415 1.274-7.146 1.274-10.787 1.252-3.212-.023-6.459.078-9.66-.057-1.308-.056-2.694.079-3.979-.248-1.217-.304-2.48-.879-3.663-1.341-.316-.124-.632-.248-.868-.485-.215-.225-.339-.518-.485-.8a4.619 4.619 0 0 0-1.218-1.465c-.27-.215-.574-.406-.788-.688-.17-.226-.271-.496-.429-.721-.225-.316-.54-.553-.8-.846a2.494 2.494 0 0 1-.586-2.187Z"/><path fill="#2B2B37" d="M89.438 144.666a52.64 52.64 0 0 0-.868-2.199c-.045-.112-.101-.225-.146-.338a58.245 58.245 0 0 0-.733-1.6c-.102-.203-.192-.395-.293-.575-.147-.282-.293-.541-.429-.801-.09-.169-.191-.326-.281-.473-.09-.146-.18-.293-.27-.428a8.598 8.598 0 0 0-.52-.722 4.565 4.565 0 0 0-.349-.405 2.038 2.038 0 0 0-.417-.339c-.158.102-.316.203-.462.305-.011.011-.034.022-.045.034-2.818 1.905-5.028 3.933-8.77 4.227-2.153.169-4.306-.271-6.447-.575a53.116 53.116 0 0 0-7.09-.541c-2.616-.023-5.22-.372-7.767.462-.71.236-1.409.541-2.153.654-1.713.281-3.246-.699-4.847.45-.485.339-.857.846-.992 1.421-.011.067-.033.135-.033.203-.012.078-.012.146-.023.225a2.09 2.09 0 0 0 .53 1.432c.045.045.079.09.124.124.045.045.09.078.124.112.124.102.259.181.394.237a1.968 1.968 0 0 0 .575.135c.35.034.71 0 1.105-.034a1.416 1.416 0 0 0-.598.215c-.518.327-.924.946-1.082 1.488-.011.045-.022.101-.034.146a2.561 2.561 0 0 0-.022.879c.068.485.282.947.608 1.319.046.045.09.09.136.147l.045.045.101.101c.057.057.113.102.17.158.01 0 .01.011.022.011l.146.147c.068.079.136.146.192.237.158.225.26.495.428.721.215.282.519.473.79.688.507.394.924.901 1.217 1.465.146.282.27.575.485.8.236.237.552.372.867.485 1.184.462 2.447 1.026 3.664 1.341 1.285.327 2.66.192 3.979.248 3.212.135 6.447.034 9.66.057 3.64.022 7.383.022 10.787-1.252 3.472-1.307 6.73-3.922 10.145-5.004-.338-1.545-.89-3.427-1.623-5.433Zm-11.96 3.9c-.44 1.251-1.668 1.578-2.818 1.882a15.132 15.132 0 0 1-3.832.485c-1.037 0-2.063-.102-3.089-.271-1.07-.191-2.141-.439-3.223-.53-2.931-.259-4.532.857-7.463.62-10.054-.8 6.493-4.587 10.619-3.573 2.615.643 5.331-.451 8.014-.349.395.011.812.056 1.172.236.361.181.665.508.71.902a1.36 1.36 0 0 1-.09.598Z" opacity=".25"/><path fill="#2B2B37" d="M89.438 144.665c-.89-2.412-1.871-4.531-2.75-5.974 0 0 0-.011-.012-.011-.045-.079-.09-.147-.135-.226a8.973 8.973 0 0 0-.812-1.127c-.01-.011-.022-.034-.045-.045-.056-.056-.101-.113-.157-.169a1.693 1.693 0 0 0-.418-.338c-.112.067-.214.146-.326.214-.057.045-.124.079-.18.124-.147.101-.283.192-.418.293-.011.011-.023.022-.034.022-2.615 1.804-4.78 3.641-8.307 3.912-2.153.169-4.306-.271-6.448-.575a53.117 53.117 0 0 0-7.09-.541c-2.615-.023-5.219-.372-7.766.462-.71.237-1.41.541-2.153.654-1.714.282-3.247-.699-4.847.451a2.496 2.496 0 0 0-.722.778c.215.18.474.326.744.417 1.826.631 3.878-.35 5.738-.384 1.668-.033 3.336.293 4.948.71 1.747.451 3.472.756 5.276.79 1.78.033 3.561 0 5.342.067 1.736.057 3.472.045 5.197-.101 4.97-.406 13.278-4.746 10.302 3.629a5.292 5.292 0 0 1-1.104 1.86c-.564.609-1.296 1.037-2.018 1.432-1.555.868-3.235 1.476-4.97 1.86-3.72.811-7.52.473-11.295.394-2.052-.045-4.115-.034-6.155-.18-1.646-.113-3.325-.485-4.734-1.375-.722-.463-1.274-1.094-1.939-1.612-.755-.575-1.713-.71-2.514-1.195a7.67 7.67 0 0 1-1.657-1.42 5.876 5.876 0 0 1-.248-.305 2.294 2.294 0 0 0-.101.338 2.553 2.553 0 0 0 .575 2.198c.26.294.586.519.8.846.158.225.26.496.428.721.215.282.519.474.79.688.507.394.924.902 1.217 1.465.146.282.27.575.485.801.236.236.552.371.867.484 1.184.462 2.447 1.026 3.664 1.342 1.285.326 2.66.191 3.979.248 3.212.135 6.447.033 9.66.056 3.64.022 7.383.022 10.787-1.251 3.472-1.308 6.73-3.923 10.145-5.005-.304-1.533-.856-3.415-1.59-5.422Z" opacity=".25"/><path fill="#2B2B37" d="M56.118 142.084c1.533.484 3.066.654 4.666.687 1.77.045 3.551 0 5.287-.315 1.725-.316 3.382-.947 5.084-1.353a.687.687 0 0 1 .338 0c.011 0 .011-.011.022-.011-.71-.102-1.409-.214-2.108-.316a53.284 53.284 0 0 0-7.09-.541c-2.615-.022-5.218-.372-7.766.462-.372.124-.744.26-1.116.384.88.417 1.837.732 2.683 1.003ZM81.807 139.063c1.093.169 2.198.214 3.303.248a28.18 28.18 0 0 0 1.95.011c-.124-.225-.248-.428-.36-.631 0 0 0-.011-.012-.011-.045-.079-.09-.147-.135-.226a8.973 8.973 0 0 0-.812-1.127c-.011-.011-.022-.034-.045-.045-.056-.056-.102-.113-.158-.169a1.693 1.693 0 0 0-.417-.338c-.113.067-.214.146-.327.214-.056.045-.124.079-.18.124-.147.101-.282.192-.417.293-.011.011-.023.022-.034.022-.812.564-1.578 1.128-2.356 1.635Z" opacity=".74"/><path fill="#2B2B37" d="M82.19 154.19c1.454-1.77 2.548-3.72 3.36-5.85.867-2.277 1.521-4.701 1.363-7.158a11.41 11.41 0 0 0-.642-3.122c0-.011-.011-.023-.011-.023.969 1.409 2.141 3.821 3.167 6.639.733 2.007 1.274 3.889 1.6 5.434-3.144.991-6.154 3.302-9.333 4.677.17-.202.338-.394.496-.597Z" opacity=".25"/><path fill="#464558" d="M28.648 132.424c2.75 1.86 6.301 2.277 9.502 2.885 3.37.643 6.628 1.545 9.818 2.807 3.1 1.229 6.143 2.762 9.424 3.449 3.415.71 6.943.169 10.291-.608 1.68-.395 3.348-.88 5.027-1.263 1.747-.394 3.528-.62 5.31-.766 3.651-.305 7.326-.26 10.956-.778 2.006-.282 4.396-.789 6.538-1.702a3.646 3.646 0 0 0 2.209-3.562v-.023c-.124-1.972-.676-3.9-.8-5.872-.09-1.331.022-2.672-.203-3.979-.147-.891-.282-1.522-.463-1.996H93.8l-.079-1.961c-.35-.147-.665-.259-1.116-.462-11.7-5.343-6.413-4.734-19.06-6.042-7.88-.812-15.849-1.646-23.266-4.419-9.063-3.381-21.473-7.349-26.861 2.232-4.486 7.97-2.198 14.913 3.46 20.617.564.541 1.15 1.026 1.77 1.443Z"/><path fill="#2B2B37" d="M28.648 132.424c2.75 1.859 6.301 2.277 9.502 2.885 3.37.643 6.628 1.544 9.818 2.807 3.1 1.229 6.143 2.762 9.424 3.449 3.415.71 6.943.169 10.291-.608 1.68-.395 3.348-.88 5.027-1.263 1.748-.394 3.529-.62 5.31-.766 3.652-.305 7.326-.26 10.956-.778 2.006-.282 4.396-.789 6.538-1.702a3.646 3.646 0 0 0 2.209-3.562v-.023c-.124-1.972-.676-3.9-.8-5.873-.09-1.33.022-2.671-.203-3.979-.338-2.006-.834-2.784-1.815-3.37v.586H93.72v-1.172c-.507-.214-1.093-.451-1.792-.767-7.766-3.539-7.924-4.283-10.64-4.824-.846.406-1.692.834-2.526 1.24-1.938.936-3.934 1.905-6.064 2.333-2.051.417-4.137.316-6.2.147-1.07-.09-2.13-.192-3.2-.237-1.094-.056-2.176-.022-3.27.045a22.74 22.74 0 0 1-5.737-.338c-1.916-.361-3.788-1.003-5.478-1.995-.812-.474-1.635-1.026-2.311-1.691-4.982-4.971-5.41-7.823-13.403-8.533.102.226.203.462.282.699.508 1.375.756 2.829.756 4.283 0 1.387-.17 2.807-.666 4.103a8.138 8.138 0 0 1-4.407 4.577 9.263 9.263 0 0 1-6.233.338 9.371 9.371 0 0 1-1.736-.721c-.338 4.971 1.961 9.423 5.827 13.301.542.518 1.116.992 1.725 1.409Z" opacity=".29"/><path fill="#2B2B37" d="M28.648 132.424c2.75 1.86 6.301 2.277 9.503 2.885 3.37.643 6.627 1.545 9.817 2.807 3.1 1.229 6.144 2.762 9.424 3.449 3.415.71 6.943.169 10.291-.608 1.68-.395 3.348-.88 5.028-1.263 1.747-.394 3.528-.62 5.309-.766 3.652-.305 7.327-.26 10.956-.778 2.007-.282 4.396-.789 6.538-1.702a3.646 3.646 0 0 0 2.21-3.562v-.023c-.125-1.972-.677-3.9-.801-5.872-.034-.44-.034-.868-.045-1.308-3.258-.552-6.64-.417-9.897-.034-1.961.226-3.911.53-5.828.958-2.017.462-4.001 1.049-5.985 1.657-3.968 1.229-7.97 2.604-12.106 3.168-3.867.529-7.733-.023-11.43-1.15-1.883-.575-3.731-1.274-5.569-1.995-1.758-.699-3.539-1.353-5.241-2.176-3.224-1.555-6.301-3.595-9.807-4.452-2.75-.676-6.132-.338-7.935 2.119a5.33 5.33 0 0 0-.609 1.071c1.015 2.187 2.548 4.249 4.453 6.166.54.518 1.116.992 1.724 1.409ZM90.204 120.588c-.676-.361-1.555-.428-2.175.023-.158.112-.304.281-.35.473-.09.406.26.755.598.992.36.259.766.485 1.217.496.36.011.71-.113 1.06-.18.44-.091 1.251.09 1.082-.553-.135-.462-1.037-1.037-1.432-1.251Z" opacity=".29"/><path fill="#464558" d="M131.393 111.367c-.496-.597-1.601-1.161-2.379-.845.823-.338 1.545-.642 1.781-1.601a2.078 2.078 0 0 0-.327-1.702c-.383-.541-1.014-.868-1.668-.958-1.95-.27-2.852 1.319-4.509 1.86-.71.237-1.465.293-2.209.417-2.638.44-4.791 1.962-7.09 3.201a54.491 54.491 0 0 0-6.019 3.777c-1.747 1.262-3.45 2.649-5.445 3.505-3.64 1.567-6.684.609-10.325.282-.642.992-.721 4.678-.146 8.984.281 2.119.676 4.035 1.115 5.546 3.529-.632 7.62.169 11.306-.293 3.619-.451 6.921-2.198 10.134-3.912 2.84-1.51 5.749-2.931 8.533-4.542 1.138-.666 2.412-1.184 3.404-2.075.936-.834 1.781-1.927 2.615-2.885.225-.248.44-.519.541-.834.09-.305.056-.62.056-.936 0-.642.136-1.285.395-1.871.147-.316.316-.631.372-.969.045-.271.011-.564.045-.835.045-.383.226-.743.316-1.115.203-.756 0-1.601-.496-2.199Z"/><path fill="#575770" d="M131.393 111.367c-.496-.597-1.601-1.161-2.379-.845.823-.338 1.545-.642 1.781-1.601a2.078 2.078 0 0 0-.327-1.702c-.383-.541-1.014-.868-1.668-.958-1.95-.27-2.852 1.319-4.509 1.86-.71.237-1.465.293-2.209.417-2.638.44-4.791 1.962-7.09 3.201a54.491 54.491 0 0 0-6.019 3.777c-1.747 1.262-3.45 2.649-5.445 3.505-3.64 1.567-6.684.609-10.325.282-.642.992-.721 4.678-.146 8.984.281 2.119.676 4.035 1.115 5.546 3.529-.632 7.62.169 11.306-.293 3.619-.451 6.921-2.198 10.134-3.912 2.84-1.51 5.749-2.931 8.533-4.542 1.138-.666 2.412-1.184 3.404-2.075.936-.834 1.781-1.927 2.615-2.885.225-.248.44-.519.541-.834.09-.305.056-.62.056-.936 0-.642.136-1.285.395-1.871.147-.316.316-.631.372-.969.045-.271.011-.564.045-.835.045-.383.226-.743.316-1.115.203-.756 0-1.601-.496-2.199Z"/><path fill="#A4A4A4" d="M117.088 112.089c1.004-.597 1.928-1.308 2.886-1.961.812-.553 1.612-1.116 2.435-1.635-.113.011-.214.034-.327.057-2.638.439-4.791 1.961-7.09 3.201-.406.214-.812.439-1.218.676.034 1.274 2.863-.067 3.314-.338Z" opacity=".21"/><path fill="#2B2B37" d="M131.393 111.368c-.496-.598-1.601-1.162-2.379-.846.823-.338 1.545-.642 1.781-1.601a2.078 2.078 0 0 0-.327-1.702 3.55 3.55 0 0 0-.169-.214c-.09.361-.327.688-.608.97-.902.879-2.514 1.217-2.886 2.547-.271.97.101 2.029.338 2.965.226.901.361 1.848.079 2.761-.485 1.556-2.232 2.469-3.63 3.066-1.95.834-4.114 1.049-5.917 2.21-.913.586-1.748 1.307-2.604 1.972a18.7 18.7 0 0 1-2.604 1.68c-1.747.913-3.652 1.51-5.625 1.668-2.029.158-4.035-.169-5.951-.812-1.748-.586-3.405-1.454-4.554-2.93-.8-1.026-1.871-2.3-1.962-3.675-.383-.045-.766-.09-1.16-.124-.643.992-.722 4.678-.147 8.984.282 2.119.676 4.035 1.116 5.546 3.528-.632 7.62.169 11.306-.293 3.618-.451 6.921-2.198 10.133-3.912 2.841-1.51 5.749-2.931 8.533-4.542 1.139-.666 2.412-1.184 3.404-2.074.936-.835 1.781-1.928 2.615-2.886.226-.248.44-.519.541-.834.091-.305.057-.62.057-.936 0-.642.135-1.285.394-1.871.147-.316.316-.631.372-.969.045-.271.011-.564.045-.835.045-.383.226-.743.316-1.115a2.534 2.534 0 0 0-.507-2.198Z" opacity=".25"/><path fill="#2B2B37" d="M103.912 133.359c-2.108-.89-3.98-2.108-5.693-3.618-1.826-1.612-3.528-3.461-4.542-5.704a11.535 11.535 0 0 1-.891-3.066v-.022c-.203 1.702-.113 4.373.282 7.349.282 2.119.676 4.035 1.116 5.546 3.246-.586 6.988.056 10.438-.203-.248-.09-.474-.192-.71-.282Z" opacity=".25"/><path fill="#575770" d="M111.362 56.743a7.455 7.455 0 0 0-.62-1.319c-1.6-2.795-1.24-7.698-1.24-7.698s-.518-.35-3.517-1.184c-2.694-.755-13.672-4.272-15.194-4.373 0 0-1.071 3.686-4.126 4.599l-.586.338c-3.066-.913-3.46-4.937-3.46-4.937-1.522.101-12.501 3.63-15.195 4.373-2.39.665-3.201 1.026-3.438 1.139.417 2.367.214 4.79-.225 7.169-.418 2.288-1.071 4.52-1.488 6.808-.542 3.01-.158 4.666.202 6.03a189.926 189.926 0 0 0 1.33 4.667c1.658 5.873 2.063 12.038 2.244 18.114.09 2.953.124 5.907.225 8.86.056 1.623.17 3.246.248 4.869 1.127.136 2.93.136 3.134.372.631.711 3.99 3.675 15.96 3.844.373 0 .734-.011 1.094-.022.361.011.722.022 1.094.022 11.97-.18 15.33-3.145 15.961-3.844.304-.338 3.923-.191 4.047-.665.157-.552.293-1.093.439-1.611a64.372 64.372 0 0 1-.18-4.442c-.012-6.594.586-13.143.902-19.714.157-3.202.281-6.46 1.318-9.514.485-1.443 1.105-2.83 1.748-4.204.022-.102.033-.192.056-.294.496-2.818.169-5.264-.733-7.383Z"/><path fill="#2B2B37" d="M63.467 68.072a15.99 15.99 0 0 1-1.307-1.714c.09.485.191.913.293 1.308a190.39 190.39 0 0 0 1.33 4.666c.89 3.18 1.42 6.437 1.747 9.728 1.127-2.198 2.333-4.43 2.424-6.887.135-3.1-2.638-5.005-4.487-7.101ZM111.362 56.743a7.456 7.456 0 0 0-.62-1.319c-1.6-2.795-1.239-7.698-1.239-7.698s-.406-.27-2.57-.913c.698 20.267-12.625 47.725-40.783 48.424.034 1.364.068 2.717.113 4.08.056 1.624.17 3.247.248 4.87 1.127.135 2.93.135 3.134.372.63.71 3.99 3.675 15.96 3.844.192 0 .384-.011.576-.011.169 0 .35-.012.518-.012h.192c.36.012.721.023 1.093.023 11.813-.203 15.139-3.145 15.77-3.844.113-.124.699-.18 1.386-.237a76.047 76.047 0 0 0 3.032-1.938c.012-.012.034-.023.046-.034.011-.023.011-.057.022-.079a64.358 64.358 0 0 1-.18-4.441c-.012-6.594.586-13.143.901-19.715.158-3.201.282-6.459 1.319-9.514.485-1.442 1.105-2.829 1.747-4.204.023-.102.034-.192.057-.293.507-2.796.18-5.242-.722-7.36Z" opacity=".25"/><path fill="#2B2B37" d="M111.362 56.743a7.455 7.455 0 0 0-.62-1.319c-1.6-2.795-1.24-7.698-1.24-7.698s-.281-.192-1.645-.62c2.683 20.887-3.201 51.073-41.684 49.642.022.856.045 1.713.079 2.57.056 1.623.169 3.246.248 4.869 1.127.135 2.93.135 3.133.372.632.71 3.99 3.675 15.962 3.844.191 0 .383-.011.574-.011.17 0 .35-.012.519-.012h.191c.361.012.722.023 1.094.023 11.813-.203 15.138-3.145 15.769-3.844.113-.124.699-.18 1.387-.237a76.775 76.775 0 0 0 3.032-1.938c.011-.012.034-.023.045-.034.011-.023.011-.057.023-.079a64.995 64.995 0 0 1-.181-4.441c-.011-6.594.587-13.144.902-19.715.158-3.201.282-6.459 1.319-9.514.485-1.442 1.105-2.829 1.747-4.204.023-.102.034-.192.056-.293.519-2.796.192-5.242-.71-7.36Z" opacity=".25"/><path fill="#2B2B37" d="M109.074 76.075c-.293.496-.597.98-.891 1.476-1.431 2.379-2.863 4.904-2.975 7.755-.102 2.627.698 5.23.033 7.823-1.037 3.98-4.61 6.64-7.89 8.759-1.69 1.093-3.438 2.107-5.117 3.212-1.815 1.184-3.664 2.311-5.603 3.28h.26c.36.012.721.023 1.093.023 11.813-.203 15.138-3.145 15.77-3.844.112-.124.698-.18 1.386-.237a76.775 76.775 0 0 0 3.032-1.938c.011-.012.034-.023.045-.034.012-.023.012-.057.023-.079a64.995 64.995 0 0 1-.181-4.441c-.011-6.594.587-13.144.902-19.715.045-.676.079-1.353.113-2.04Z" opacity=".25"/><path fill="#575770" d="M88.502 56.044c-.36-.44-.867-.8-1.307-1.172l-1.59-1.319c-1.048-.868-2.085-1.758-3.065-2.705-1.477-1.431-2.864-3.032-3.765-4.88-.665.168-1.364.394-2.086.653a63.995 63.995 0 0 0 3.81 6.47c.665.992 1.342 1.973 2.097 2.897.733.89 1.544 1.781 2.525 2.412.406.26.857.451 1.308.53.033-.124.056-.248.09-.372.022-.09.157-.056.135.034-.023.113-.056.237-.079.35.53.067 1.082 0 1.59-.271 1.048-.553 1.025-1.792.337-2.627Z"/><path fill="#2B2B37" d="M98.58 44.367c-.451.867-1.77 4.193-2.322 5.004-.677 1.015-1.443 1.94-2.153 2.92-.62.857-1.218 1.724-1.883 2.559-.676.856-1.409 1.69-2.288 2.344-.26.192-.541.36-.834.496-.18.767-.913 1.229-1.69 1.364a2.958 2.958 0 0 1-.891.023c-.925 3.82-2.931 7.293-5.095 10.539-2.018 3.032-4.239 5.94-6.279 8.961-2.051 3.032-3.765 6.245-4.847 9.75-.597 1.94-1.014 3.923-1.431 5.907-.451 2.12-.857 4.238-1.263 6.357-.236 1.218-.45 2.424-.586 3.653 1.094.09 2.412.124 2.593.315.169.192.53.541 1.183.947.023-1.274.17-2.536.428-3.787 4.498-21.338 33.354-55.02 27.358-57.352Z" opacity=".25"/><path fill="#2B2B37" d="M105.974 46.542c-2.085-.586-9.13-2.818-12.918-3.855-1.814 2.66-4.565 3.663-6.402 4.07-3.213-.71-5.388-1.218-5.388-1.218-1.544.113-3.46.609-5.512 1.443 1.183 1.837 3.348 3.122 5.309 3.956 1.477.62 3.02 1.094 4.599 1.387 1.398.259 2.807.53 4.227.676 1.386.135 2.75.045 4.137-.09 3.945-.383 15.758-.135 15.792-.192-.496-2.457-.304-4.993-.304-4.993s-.541-.35-3.54-1.184ZM108.059 97.841v-.034c-9.017 2.12-27.909 3.652-41.841.519l.034.98c.056 1.624.169 3.247.248 4.87 1.127.135 2.93.135 3.133.372.631.71 3.99 3.675 15.961 3.844.192 0 .384-.012.575-.012.17 0 .35-.011.519-.011h.191c.361.011.722.023 1.094.023 11.813-.203 15.138-3.145 15.769-3.844.113-.124.699-.18 1.387-.237a76.797 76.797 0 0 0 3.032-1.939c.011-.011.034-.022.045-.033.011-.023.011-.057.023-.079a63.432 63.432 0 0 1-.17-4.419Z" opacity=".25"/><path fill="#2B2B37" d="M85.403 60.204c-12.016 5.839-17.855 27.639-19.219 36.622.023.835.045 1.658.079 2.492.034.901.079 1.814.135 2.716.35.62.857 1.082 1.556 1.094.98.011 1.68-.925 2.153-1.793 3.212-5.85 3.877-12.737 6.312-18.937 1.274-3.246 3.021-6.29 4.903-9.22 1.285-2.007 2.976-3.844 3.607-6.177.226-.913 2.638-7.846.474-6.797ZM78.775 47.805s.541 2.795 2.795 5.523c2.255 2.728 4.938 5.23 4.938 5.23l3.426-1.353s-3.257-1.893-6.053-4.486c-2.784-2.592-5.106-4.914-5.106-4.914Z" opacity=".25"/><path fill="#2B2B37" d="M85.876 62.943c.406-.428.846-.834 1.262-1.24a69.616 69.616 0 0 0 2.965-3.077c-8.78-5.456-9.615-7.778-14.992-16.345-.067-.101.53 11.69 10.765 20.662Z"/><path fill="#21212B" d="M86.541 56.281a9.09 9.09 0 0 1-.687 1.5c-.61 1.07-1.364 2.085-2.277 2.93.71.755 1.476 1.51 2.31 2.232.406-.428.846-.834 1.263-1.24a69.556 69.556 0 0 0 2.964-3.077 62.25 62.25 0 0 1-3.573-2.345Z"/><path fill="#2B2B37" d="M97.903 43.465c-1.285 4.847-29.544 30.209-31.674 54.77l.034 1.071c.056 1.702.18 3.416.26 5.129h3.19a15.224 15.224 0 0 1 .991-5.67c2.852-7.44 13.763-27.841 17.055-32.407 11.069-15.352 11.903-22.893 10.144-22.893Z"/><path fill="#21212B" d="M70.84 98.37c-.384.057-.767.08-1.14.057-1.183-.056-2.31-.383-3.426-.721-.022.191-.034.383-.056.575l.034 1.025c.056 1.702.18 3.416.259 5.129h3.19a15.227 15.227 0 0 1 .992-5.67c.045-.124.101-.259.146-.394Z"/><path fill="#2B2B37" d="M108.071 98.686c-14.226 3.788-26.602 4.115-41.83.158 0 .158.01.316.01.474.068 1.792.192 3.584.271 5.388 10.404 6.109 32.35 5.906 41.864-.767a58.294 58.294 0 0 1-.315-5.253Z"/><path fill="#21212B" d="M108.071 98.686c-6.651 1.77-12.907 2.785-19.23 2.965.034.056.067.113.124.169.473.53 1.228.721 1.68 1.285.394.496.157 1.026-.373 1.296-.394.192-1.567.598-1.025 1.195.293.327.698.552.71 1.037.022.71-.654 1.172-1.206 1.466-.756.405-1.612.755-2.424 1.014 8.465.079 17.021-1.634 22.059-5.174a58.294 58.294 0 0 1-.315-5.253Z" opacity=".46"/><path fill="#21212B" d="M100.305 100.772c.225.484.135 1.037-.113 1.499-.124.237-.316.44-.428.687-.248.519.033.835.338 1.263.338.473.496.924.248 1.488-.124.293-.361.518-.541.766-.305.406-.339.778-.395 1.229 3.506-.857 6.617-2.108 8.973-3.765a62.632 62.632 0 0 1-.316-5.253 95.948 95.948 0 0 1-7.958 1.781c.068.091.135.192.192.305Z"/><path fill="#2B2B37" d="M83.757 63.022a41.833 41.833 0 0 0-7 10.697c-.135.293-.26.597-.248.913.011.316.237.654.552.688.214.022.417-.08.598-.203 1.397-.89 2.243-2.413 2.942-3.912.462-.992.879-1.995 1.443-2.93.563-.936 1.364-1.612 2.006-2.48.428-.575.541-1.071.631-1.77.102-.71.045-2.085-.924-1.003Z"/><path fill="#464557" d="M74.48 78.577c-.17.383-.225.98.18 1.071.226.045.44-.124.61-.282.36-.338.72-.687 1.081-1.026-.045.406-.101.8-.146 1.207.293.09.586-.136.8-.35 2.818-2.773 4.441-6.515 6.887-9.626.665-.846 1.41-1.68 1.68-2.717.101-.406.101-.901-.226-1.172-.473-.383-1.172.034-1.612.473-.552.553-1.15 1.184-1.51 1.883-.214.428-.327 1.127-.992.856.079-1.104-1.702.835-1.871 1.06-.519.71-.947 1.465-1.432 2.198a44.546 44.546 0 0 0-3.449 6.425ZM79.8 53.835c.823 1.161 1.252-.237.913-1.048-.281-.688-.777-1.443-1.363-1.916-.417-.35-.812-.53-.97.101-.248.958.925 2.164 1.42 2.863ZM93.293 52.02c.631-.766-.394-.8-.868-.417-.406.316-.823.79-1.026 1.274-.157.35-.203.642.248.631.677-.011 1.274-1.026 1.646-1.488ZM88.39 55.83a221.916 221.916 0 0 0-3.889 4.858c.101.226.338.339.812.282 1.533-.191 2.603-2.592 3.325-3.72.62-.958.315-1.375-.248-1.42ZM75.495 103.376c-.316-.417-.823-.643-1.33-.756-.508-.112-1.037-.112-1.556-.191-.777-.113-1.476-.496-2.153-.868-.44-.226-1.443-.992-1.916-.586-.135.124-.225.293-.316.451-.045.09-.101.202-.067.304.022.113.135.192.237.248.676.394.867.507 1.273 1.195.429.744 1.296 1.116 2.108 1.375.643.203 1.296.372 1.95.518.62.136 1.364.226 1.792-.248.339-.383.282-1.025-.022-1.442ZM87.42 101.674a73.298 73.298 0 0 1-9.344-.542c.383.158.665.361 1.116.823.812.812 2.04 1.004 3.179 1.071.89.057 1.792.057 2.694.023.845-.023 1.837-.169 2.22-.925.08-.146.124-.293.136-.45Z" opacity=".25"/><path fill="#21212B" d="M97.317 43.927c-.146.473-.304.89-.518.947-1.229.372-2.458.732-3.698 1.104-3.19.959-6.492 1.928-9.806 1.601-2.255-.225-4.385-1.026-6.425-1.973-.575-.27-1.793-1.16-2.48-1.025-1.015.203.18 1.454.45 1.848.328.485.452 1.071.688 1.601.203.44.338.936.947.834.102-.011.192-.045.293-.067.18-.023.35.01.53.045 2.998.642 1.928.394 2.694 1.014.203.17.327-.023.597 0a16.68 16.68 0 0 0 1.5.045c.687-.022 1.386-.101 2.074-.022 1.048.135 2.006.653 3.02.935 1.015.282 2.075.316 3.123.248a18.78 18.78 0 0 0 1.6-.18c.226-.034.485-.023.688-.102.214-.067.372-.236.553-.349.405-.26.89-.338 1.375-.406.53-.079 1.06-.146 1.6-.203.293-.034.632-.056.857.147.056.045.09.112.158.158.327.236.924-.012 1.262-.08.519-.112 1.06-.18 1.59-.213.394-.023.8-.023 1.194-.113.395-.09.778-.27 1.015-.586.248-.338.316-.8.203-1.206a2.233 2.233 0 0 0-.676-1.049c-.237-.203-.496-.372-.688-.631-.135-.18-.214-.428-.169-.643.011-.056.293-.518.304-.518-1.228-.372-2.57-.778-3.855-1.161Z" opacity=".34"/><path fill="#75A152" d="M75.945 36.093s-1.262 1.105-1.51 2.153 1.15 2.671 1.15 2.671l1.893-1.07-1.533-3.754Z"/><path fill="#568040" d="M98.038 36.442s1.252 1.781.8 4.07a3.726 3.726 0 0 1-2.479 2.84l-.688-.97 2.367-5.94Z"/><path fill="#21212B" d="M86.928 46.416c3.885-.044 7.015-1.74 6.992-3.788-.024-2.048-3.191-3.672-7.075-3.629-3.885.044-7.015 1.74-6.992 3.788.024 2.048 3.191 3.672 7.075 3.629Z"/><g fill="#2B2B37"><path d="M75.02 27.605a24.273 24.273 0 0 0-.123 1.804c-.034.935-.045 1.87.045 2.806.36 3.562 2.3 6.797 4.7 9.458a32.753 32.753 0 0 1-1.104-6.166c-.102-1.24-.147-2.503.045-3.731.282-1.815 1.048-3.528 1.398-5.332.18-.935.248-1.882.304-2.83l.203-2.907c.079-1.161-.564-2.165-1.6-1.139-.722.71-1.342 1.533-1.883 2.39a13.894 13.894 0 0 0-1.984 5.647ZM97.745 27.357c.08.598.124 1.195.158 1.804.056.935.09 1.87.023 2.806-.27 3.574-2.142 6.854-4.487 9.559.519-2.029.835-4.103.97-6.2.079-1.24.09-2.502-.135-3.73-.327-1.804-1.128-3.495-1.51-5.299-.204-.924-.283-1.87-.373-2.817-.09-.97-.18-1.94-.26-2.909-.1-1.16.52-2.175 1.579-1.172.733.699 1.375 1.5 1.928 2.345a13.665 13.665 0 0 1 2.107 5.613Z"/></g><path fill="#D58500" d="M99.087 26.14c-.09-.428-.315-.845-.687-1.06-.53-.315-.992-.304-1.376-.067-1.048-6.087-5.388-10.63-10.516-10.573-5.13.056-9.367 4.7-10.28 10.81-.395-.226-.846-.226-1.376.1-.372.226-.586.655-.665 1.083-.079.428-.034.868.034 1.296a28.362 28.362 0 0 0 1.037 4.633c.09.282.18.552.35.8.315.451.89.71 1.431.654.056-.011.102-.011.158-.022 1.78 4.407 5.422 7.405 9.604 7.36 4.182-.045 7.755-3.133 9.434-7.575.057.012.102.023.158.023a1.576 1.576 0 0 0 1.42-.688c.158-.248.248-.53.327-.8.44-1.522.756-3.077.936-4.655.056-.462.101-.902.011-1.319Z"/><path fill="#B45F00" d="M93.079 19.422c.744.214 1.499.45 2.232.71-1.95-3.483-5.186-5.738-8.815-5.704-5.129.056-9.367 4.7-10.28 10.81-.395-.226-.846-.226-1.375.101-.372.226-.587.654-.665 1.083-.08.428-.034.867.033 1.296.124.958.305 1.905.541 2.84.237-.135.485-.248.733-.35.417-.18.846-.326 1.274-.461.473-8.285 5.985-13.358 16.322-10.325ZM86.08 27.92s4.835-.417 8.442.44 4.001.98 4.001.98l-.834 2.267-11.61-3.686Z"/><path fill="#B45F00" d="M99.087 26.14c-.09-.428-.316-.845-.687-1.06-.53-.315-.992-.304-1.376-.067a15.161 15.161 0 0 0-.992-3.416.69.69 0 0 1-.056-.135c-.135-.304-.27-.597-.417-.89-.022-.057-.056-.102-.079-.158a1.325 1.325 0 0 0-.124-.214l-.101-.17c-.045-.067-.08-.135-.124-.202l-.102-.17c-.045-.067-.079-.135-.124-.202-.034-.056-.079-.113-.112-.17-.046-.067-.09-.123-.125-.19-.045-.057-.078-.114-.124-.17-.045-.056-.09-.124-.135-.18a1.599 1.599 0 0 1-.124-.17l-.135-.168-.135-.17c-.045-.056-.09-.101-.136-.157-.056-.068-.101-.124-.157-.18-.045-.046-.08-.09-.124-.136-.09-.101-.192-.203-.282-.293l-.079-.079a3.936 3.936 0 0 0-.225-.214c-.034-.034-.08-.068-.113-.101-.068-.057-.124-.113-.192-.18a.59.59 0 0 1-.124-.114c-.067-.056-.124-.112-.191-.157l-.136-.102a2.18 2.18 0 0 0-.191-.146l-.136-.102c-.067-.045-.135-.101-.203-.146-.045-.034-.09-.057-.135-.09-.067-.046-.146-.09-.214-.136-.045-.022-.09-.056-.124-.079l-.237-.135c-.033-.023-.079-.045-.112-.068-.09-.045-.18-.101-.27-.146-.023-.011-.057-.034-.08-.045a8.82 8.82 0 0 0-.744-.338c-.022-.012-.034-.012-.056-.023-.102-.045-.214-.079-.316-.113-.034-.01-.067-.022-.101-.034-.09-.033-.18-.056-.282-.09-.045-.01-.079-.022-.124-.034l-.27-.067c-.046-.011-.09-.023-.124-.034-.09-.022-.18-.034-.26-.056-.022 0-.045-.012-.067-.012h.01a9.375 9.375 0 0 0-1.701-.157c-5.129.056-9.367 4.7-10.28 10.81-.395-.226-.846-.226-1.375.1-.372.226-.587.655-.666 1.083-.078.428-.033.868.034 1.296.124.958.305 1.905.541 2.84a6.2 6.2 0 0 1 .733-.349c.62-.259 1.263-.473 1.916-.642.44-.113.88-.225 1.32-.304v-.102c-.643-18.136 28.698-7.8 12.038 5.14-1.15.89-2.57 1.41-3.912 1.905-1.634.609-3.415 1.161-5.174 1.218-.856.022-1.69-.09-2.525-.26 1.962 2.491 4.678 4.024 7.677 3.99 4.182-.044 7.755-3.133 9.434-7.574.057.011.102.022.158.022a1.576 1.576 0 0 0 1.42-.687c.158-.248.248-.53.327-.8.44-1.522.756-3.078.936-4.656.011-.507.056-.947-.034-1.364Z" opacity=".36"/><path fill="#B45F00" d="M99.087 26.14c-.09-.429-.316-.846-.688-1.06-.53-.315-.192-.98-.575-.755-.225-1.285-1.06-2.378-2.051-3.292l-1.353-.259c2.942 3.213 3.45 8.33.88 11.554-.869 1.093-1.105.564-2.413 1.026-.473.169-.97.27-1.454.372-.214.203-.44.383-.665.563-1.161.868-2.57 1.41-3.912 1.905-1.634.609-3.415 1.161-5.173 1.218-.857.022-1.691-.09-2.525-.26 1.961 2.492 4.678 4.024 7.676 3.99 4.182-.044 7.755-3.133 9.435-7.574.056.011.101.023.157.023a1.576 1.576 0 0 0 1.42-.688c.158-.248.249-.53.328-.8.44-1.522.755-3.078.935-4.656.023-.45.068-.89-.022-1.307Z"/><path fill="#B45F00" d="M90.419 27.932c-.124-.079-.26-.124-.361-.226a.52.52 0 0 1-.124-.338c.022-.304.203-.259.203-.879 0-.857-.474-1.882-.136-2.84h-.811c-.023.045-.124.01-.158.067-.27.575-1.274 1.06-1.296 6.03 0 .181.924.215.992.384.067.158.158.293.27.417.293.327.688.597 1.139.62.44.022.913-.237 1.037-.665.045-.158.034-.316.022-.473-.056-.688-.687-2.04-.777-2.097ZM82.066 26.805c-.09 0-.18 0-.236-.011-.124-.012-.27-.012-.384-.046-.045-.01-.101-.034-.169-.045-.484-.079-.97-.191-1.442-.281a.264.264 0 0 1-.113-.057c0 .011 0 .023-.011.034-.012 1.105 2.637 2.142 3.922.293a4.585 4.585 0 0 1-1.567.113Z" opacity=".36"/><path fill="#B45F00" d="M89.742 26.478c.507.079.778.203 1.296.236.158.012.474.023.632 0 .124-.022.27-.022.383-.056.248-.079.62-.203.868-.282.158-.056.338-.405.35-.135.022 1.116-2.244 2.277-3.529.237Z" opacity=".36"/><path fill="#323147" d="M82.066 27.087c-1.882-.09-2.683-.699-2.694-.699-.079-.068-.101-.18-.034-.26.068-.078.18-.1.26-.033.01 0 .744.541 2.468.62.248 0 .936-.034 1.646-.282a.189.189 0 0 1 .237.113.189.189 0 0 1-.113.237 5.507 5.507 0 0 1-1.77.304ZM91.512 26.985c-.53 0-1.07-.09-1.634-.27a.186.186 0 0 1-.124-.237.186.186 0 0 1 .237-.124c.54.169 1.06.26 1.567.248 1.194-.011 1.86-.53 1.882-.553a.187.187 0 0 1 .27.034.186.186 0 0 1-.033.27c-.08.069-.812.62-2.12.643-.01-.01-.022-.01-.045-.01Z"/><path fill="#B45F00" d="M74.863 29.68c2.379-.801 4.836-1.466 7.305-1.85 1.082-.169 2.074.192 2.536-1.093.079-.214.101-.45.203-.665.09-.214.293-.406.518-.395.248.012.428.248.519.485.09.226.124.462.157.71.057.417.102.857.034 1.274-.214 1.217-1.25 1.657-2.232 2.142-1.24.608-2.513 1.138-3.787 1.657a85.044 85.044 0 0 1-3.99 1.499l-1.263-3.765Z" opacity=".36"/><g fill="#E2A040" opacity=".36"><path d="M83.88 20.876c0 .112.046.225.102.326.169.282.462.474.755.598.079.034.17.056.248.045.8-.09-.18-1.06-.462-1.183-.248-.113-.62-.18-.643.214ZM80.454 25.824c.124-.113.462-.022.586.056.146.09.338.158.304.361-.033.203-.259.237-.44.18-.123-.044-.461-.214-.495-.36-.023-.113 0-.192.045-.237ZM90.96 26.083c.067-.157.405-.225.552-.214.169.012.372 0 .428.192.056.191-.135.338-.316.36-.135.023-.507 0-.608-.112-.068-.09-.08-.17-.057-.226ZM79.71 27.661a.481.481 0 0 0 .395-.191c.045-.056.078-.113.078-.18a.212.212 0 0 0-.022-.09c-.102-.237-.485-.282-.688-.136-.27.18-.045.586.237.597Z" opacity=".36"/></g><path fill="#21212B" d="M79.338 38.753c-.09-.056-1.634-.417-1.634-.327 0 .09 1.217 3.111 1.307 3.235.09.124 2.379 1.725 2.379 1.725s1.454-1.161 1.454-1.251c0-.09-.18-1.037-.18-1.037l-3.326-2.345Z"/><path fill="#464558" d="M97.588 36.803c.755-1.69 1.274-7.011 1.274-7.011-12.332-2.773-12.095-2.773-24.36.27 0 0 .193 1.545.486 3.224.248.417.53.834.755 1.229.417.744.845 1.465 1.262 2.21.361.653.733 1.296 1.139 1.916.045.045.09.09.124.135 1.217 1.319 2.987 2.141 4.599 2.874.552.248 1.116.44 1.668.564 1.758.022 3.573-.011 5.31-.08 1.814-.292 3.629-.71 5.286-1.51.665-.326 1.262.587.744.992.856-.135 1.567-.281 2.096-.462l-.022-1.848c-.541-.632-.88-1.342-.361-2.503Z"/><path fill="#323147" d="M97.588 36.803c.755-1.69 1.274-7.011 1.274-7.011-5.771-1.296-8.792-1.995-11.622-2.052-.112.395-.248.79-.405 1.173-.395.947-.959 1.87-1.815 2.536-.98.778-2.345 1.217-3.641 1.206-1.928-.023-2.762-1.702-2.773-3.607-.721.18-3.28.812-4.103 1.015 0 0 .192 1.544.485 3.223.248.417.53.834.755 1.229.417.744.845 1.465 1.262 2.21.361.653.733 1.295 1.139 1.916.045.044.09.09.124.135 1.217 1.318 2.987 2.141 4.599 2.874.552.248 1.116.44 1.668.564 1.758.022 3.585-.012 5.31-.08 1.814-.292 3.629-.71 5.286-1.51.665-.327 1.262.587.744.992.856-.135 1.567-.282 2.096-.462l-.022-1.849c-.541-.63-.88-1.34-.361-2.502Z"/><path fill="#2B2B37" d="M75.731 34.526c.417.744.846 1.465 1.263 2.21.36.653.732 1.296 1.138 1.916.045.045.09.09.124.135 1.217 1.319 2.987 2.142 4.599 2.874a8.66 8.66 0 0 0 1.68.564c.755.011 1.521.011 2.288 0-.068-.023 1.905-.98 1.837-1.003-1.646-.609-7.35 1.003-10.55-7.293a19.874 19.874 0 0 1-1.105-4.16c-.011-.101-.034-.203-.045-.304-.947.237-1.995.496-2.469.609 0 0 .192 1.544.485 3.223.248.418.541.823.755 1.23Z"/><path fill="#2B2B37" d="M87.296 42.202c.022-.022.045-.056.068-.09a4.02 4.02 0 0 0 .766-1.612c.135-.653.056-1.319-.101-1.95-.136-.586-.35-1.16-.406-1.758-.045-.53.101-1.037.327-1.533.225-.485.518-.936.665-1.443.124-.395.169-.812.146-1.217-.033-.417-.157-.868-.484-1.173-.293-.27-.925-.507-1.32-.259-.326.203-.371.676-.405 1.003-.056.44-.135.857-.35 1.263-.247.473-.597.89-.912 1.319-.361.496-.677 1.025-.823 1.611-.293 1.15.079 2.244.732 3.224.508.744 1.094 1.5 1.33 2.356.023.09.046.17.057.26.237.01.473.01.71 0Z"/><path fill="#2B2B37" d="M97.588 36.803c.755-1.69 1.273-7.011 1.273-7.011.012-.147-5.343-1.184-5.929-1.296-1.364-.27-2.885-.632-4.283-.677.011 1.06-.338 2.57.8 3.326.226.146.496.247.722.383 1.33.778 1.15 2.513.135 3.077-.406.226-1.07.35-.609.947.237.304.609.53.925.766.248.192.552.417.642.722a.842.842 0 0 1-.113.676c.868 1.837-4.013 4.441-10.99 2.548.868.53 1.815.969 2.705 1.375.553.248 1.116.44 1.669.563a103.75 103.75 0 0 0 5.309-.078c1.815-.294 3.63-.71 5.286-1.511.665-.327 1.263.586.744.992.857-.135 1.567-.282 2.097-.462l-.023-1.849c-.54-.62-.879-1.33-.36-2.49Z"/><path fill="#21212B" d="M97.588 36.803c.755-1.69 1.274-7.011 1.274-7.011.022-.18-2.47-.609-2.66-.643-.35-.067-.688-.146-1.038-.214-.124-.022-.35-.112-.473-.101-.18.022-.192.157-.282.293-.383.608-.699 1.06-.665 1.803v.08c.056.687.316 1.34.496 2.006.113.417.203.845.147 1.262-.158 1.353-1.59 2.266-2.165 3.517-.18.383-.27.8-.507 1.161-.45.676-1.341 1.003-1.928 1.59-.293.292-.507.653-.867.879-.406.259-.925.304-1.42.281-.395-.01-.835-.124-1.23-.067-.146.022-2.457.53-5.342-.913 1.713 3.01 6.504 1.747 8.206 1.499 2.051-.305 4.125-.71 5.996-1.623.71-.35 1.342.721.62 1.07-.022.012-.033.012-.056.023.936-.18 1.702-.372 2.266-.552l-.023-1.849c-.53-.62-.868-1.33-.35-2.491Z"/><path fill="#464558" d="M94.409 37.468c-.44 1.082-.947 2.142-1.6 3.111a13.19 13.19 0 0 1-2.199 2.491c-.394.35-.834.632-1.183 1.037-.17.203-.339.417-.519.598l.011.676a79.324 79.324 0 0 0 7.677-.507c.338-.586.721-1.161 1.014-1.77.316-.654.62-1.352.812-2.051.011-.045.022-.08.034-.124-1.387-3.923 7.439-20.606-3.405-28.338-6.064-4.317-10.697-3.9-16.13-.226-11.621 7.868-2.3 24.945-3.72 28.868a2.98 2.98 0 0 1-.202.428c.27.7.642 1.353 1.025 1.995.282.474.575.959.88 1.42.022.023.033.057.056.08 2.581.54 6.493 1.916 8.6 1.95 1.015.011 1.308-.192.97-1.364l-.541.011-.012-.744c-.045-.045-.101-.09-.146-.135-.372-.35-.8-.62-1.274-.823-3.787-1.634-5.997-5.5-7.282-8.882-1.736-4.588-1.33-10.957 1.195-13.594 4.272-4.475 11.904-4.622 16.31-.158 2.965 2.998 4.205 8.06.023 15.048-.124.338-.259.676-.394 1.003Z"/><path fill="#323147" d="M75.337 39.542c.056.699.022 1.274-.124 1.691a2.98 2.98 0 0 1-.203.428c.27.7.642 1.353 1.025 1.995.282.474.575.959.88 1.42.022.023.033.057.056.08 2.581.54 6.493 1.916 8.6 1.95.756.011 1.105-.102 1.105-.643-6.73-3.325-10.077-2.604-11.34-6.92Z"/><path fill="#323147" d="M97.227 43.476c.316-.586.62-1.184.88-1.792.123-.282.202-.586.315-.88-1.003-3.482 4.959-15.78.338-24.122.158 1.443.022 2.886-.462 4.261-.395 1.105-.97 2.153-1.646 3.111 1.398 3.01 1.308 7.17-1.826 12.41-.135.339-.27.666-.406 1.004-.44 1.082-.947 2.142-1.6 3.111a13.196 13.196 0 0 1-2.198 2.491c-.395.35-.835.632-1.184 1.037-.282.339-.552.688-.924.925v.349a75.252 75.252 0 0 0 7.969-.507c.248-.451.496-.925.744-1.398ZM94.025 19.253c-.09-.846-.665-1.657-1.352-2.142-.598-.428-1.33-.598-2.052-.631-1.51-.068-2.976.372-4.475.473-.856.056-1.68-.113-2.525-.18-1.003-.09-1.905.124-2.671.8-.722.642-1.251 1.465-1.883 2.198-.608.71-1.341 1.285-2.017 1.928-.62.597-1.218 1.24-1.657 1.995-.226.383-.395.789-.519 1.217-.146.485-.214.992-.338 1.477-.27 1.014-.654 1.995-.823 3.02-.079.497-.079.981-.079 1.477.462 2.559 1.071 4.915 1.42 6.797.18.293.373.575.564.857.519.767 1.082 1.522 1.398 2.4.293.813.327 1.737.045 2.548a3.392 3.392 0 0 1-.575 1.026h.316l.011.609c2.424.484 5.534 1.939 7.8 1.961.71.011 1.466-.09 1.883-.563.101-.113.135-.429.067-.733l-.597.011-.011-.8c-.046-.034-.08-.08-.124-.113-.372-.35-.8-.62-1.274-.823-3.788-1.634-7.192-5.399-8.477-8.78-1.736-4.588-.135-11.058 2.39-13.696 3.968-4.16 10.821-4.577 15.319-1.037.191-.406.281-.846.236-1.296Z" opacity=".32"/><path fill="#464558" d="M76.035 25.26c-.146.474-.135.959-.169 1.443 0 .08-.011.17-.022.26.315-1.297.766-2.514 1.319-3.529-.429.575-.913 1.128-1.128 1.826Z"/><path fill="#323147" d="M97.543 43.51c.315-.721.664-1.432.935-2.176a4.89 4.89 0 0 0 .068-.214c-.023-.045-.045-.101-.068-.146-.733-1.905 1.093-6.989 1.804-12.591-.553 2.57-3.055 9.874-3.1 9.976-.237.518-.508 1.048-.868 1.487-.316.406-.755.643-1.184.914-.27.169-.54.36-.71.642-.113.192-.169.406-.214.62-.102.428-.203.857-.496 1.195-.27.316-.654.507-1.037.676-.53.237-1.07.451-1.635.575-.676.147-1.363.158-2.04.158-.169.18-.36.35-.586.462-.192.101-1.803 1.341-1.995 1.443 3.055 0 7.27-1.139 10.528-1.691.203-.417.395-.88.598-1.33Z"/><path fill="#323147" d="M78.482 21.575c3.246-3.405 8.442-4.306 12.692-2.57-.338-.203-.676-.406-.98-.654-.215-.18-.373-.214-.643-.26a1.246 1.246 0 0 1-.35-.1c-.383-.17-.744-.362-1.15-.474-.18-.045-.36-.09-.54-.124-.023 0-.045 0-.08-.012-.53-.045-1.07-.124-1.6-.135-.552-.022-1.07.113-1.623.124-.586.023-1.105.023-1.612.36-.406.271-.767.564-1.195.801-.88.496-1.78.936-2.457 1.713-.316.361-.575.778-.778 1.218-.045.101-.462 1.014-.789 1.341-6.245 6.245-1.296 23.705 9.345 23.412.078-.552-.654-1.15-.835-1.319a4.796 4.796 0 0 0-1.397-.901c-3.754-1.646-5.704-5.298-6.978-8.657-1.51-3.968-1.826-9.142.102-12.23.281-.361.665-1.33.868-1.533Z"/><path fill="#575770" d="M73.6 23.58c1.477-.9 2.909-1.927 4.07-3.212a15.163 15.163 0 0 0 2.92-4.79c.462-1.229.743-2.514.766-3.833 0-.27 0-.53-.023-.8-.789.406-1.589.88-2.4 1.432-4.363 2.953-5.772 7.202-5.907 11.553.192-.112.383-.236.575-.35Z"/><path fill="#2B2B37" d="M86.485 16.998c-.08 0-.17-.045-.203-.124-.304-.688-.192-1.431-.09-2.142.067-.495.146-1.003.079-1.476-.023-.17-.068-.35-.113-.53-.034-.135-.068-.282-.102-.428-.146-.778-.033-1.59.057-2.311.011-.124.124-.203.248-.18.124.01.203.124.18.248-.101.721-.203 1.454-.067 2.164.022.135.056.259.09.394.045.18.101.372.124.575.079.53 0 1.071-.08 1.6-.1.688-.19 1.33.057 1.917.045.113 0 .237-.113.282-.01.011-.045.011-.067.011Z" opacity=".25"/><path fill="#575770" d="M94.612 21.079a8.383 8.383 0 0 0-1.432-1.004c.575.384 1.116.835 1.612 1.342 2.052 3.444 3.096 8.589.023 15.037-.136.338-.27.676-.417 1.014-.44 1.082-.947 2.142-1.601 3.111-.26.383-.53.744-.834 1.094 2.638-2.198 4.26-4.667 5.377-7.97 1.668-4.914.642-9.716-2.728-12.624Z"/><path fill="#75A152" d="M74.187 44.446c.203.665.609 1.24 1.003 1.815.417.597.846 1.217 1.432 1.656.586.451 1.307.7 2.017.913a23.27 23.27 0 0 0 5.197.925c1.59.101 3.19.034 4.768.26 1.206.168 2.4.495 3.607.382.823-.079 1.612-.36 2.378-.676 1.252-.53 2.48-1.195 3.348-2.232.868-1.037 1.33-2.502.868-3.776-.113-.304-.338-.642-.665-.62-.203.011-.36.17-.507.304-2.412 2.3-5.444 4.08-8.77 4.363-.823.067-1.657.045-2.49.011-.62-.023-1.24-.045-1.85-.18-.845-.192-1.611-.598-2.434-.846-.846-.248-1.747-.327-2.582-.631-1.589-.586-2.761-1.95-3.843-3.246-.429-.519-.541-1.083-.857-1.612-.767.777-.936 2.175-.62 3.19Z"/><path fill="#568040" d="M98.816 43.702c-.112-.305-.338-.643-.665-.62-.203.01-.36.169-.507.304-2.412 2.3-5.444 4.08-8.77 4.362-.822.068-1.656.045-2.49.011-.62-.022-1.24-.045-1.85-.18-.597-.135-1.16-.383-1.735-.597.473.856.654 1.882.056 2.671.327.034.654.068.97.079 1.589.101 3.19.034 4.768.26 1.206.168 2.4.495 3.607.383.822-.08 1.612-.361 2.378-.677 1.251-.53 2.48-1.195 3.348-2.232.902-1.014 1.352-2.48.89-3.764Z" opacity=".37"/><path fill="#568040" d="M98.817 43.701c-.113-.304-.339-.642-.665-.62-.203.012-.361.17-.508.305-2.412 2.3-5.444 4.08-8.77 4.362-.822.068-1.656.045-2.49.011-.62-.022-1.24-.045-1.85-.18-.845-.192-1.611-.597-2.434-.845-.845-.248-1.747-.327-2.581-.632-1.59-.586-2.762-1.95-3.844-3.246-.428-.519-.54-1.082-.856-1.612a2.28 2.28 0 0 0-.294.36c.136.88.756 1.67 1.128 2.447.462.98.744 2.04 1.499 2.852.687.744 1.567 1.138 2.558 1.285.497.067.993.079 1.488.146.485.068.947.192 1.432.27.519.08 1.06.09 1.578.17.53.068 1.048.158 1.578.214.496.056.97.113 1.454.226.553.123 1.094.27 1.657.315.97.079 2.03.124 2.999-.056.53-.102 1.048-.282 1.578-.406.236-.056.484-.09.721-.158.203-.056.383-.146.598-.18.371-.057.698.135.935.44.845-.44 1.646-.993 2.254-1.714.846-1.003 1.297-2.468.835-3.754Z"/><g fill="#3E5C2E"><path d="M76.87 45.234c.169.496.36 1.015.733 1.41.405.428 1.003.665 1.566.8 1.15.282 2.379.304 3.551.428 1.026.102 1.995.056 2.965-.124a8.015 8.015 0 0 1-1.15-.146c-.846-.192-1.612-.598-2.435-.846-.845-.248-1.747-.327-2.581-.631-1.308-.474-2.322-1.477-3.235-2.536.236.53.394 1.093.586 1.645ZM87.815 48.492c.688.27 1.432.304 2.164.26.744-.046 1.5-.09 2.232-.226.665-.124 1.319-.282 1.984-.372.676-.102 1.353-.18 1.973-.474.507-.236 1.037-.507 1.442-.913.463-.462.598-1.093.688-1.713.09-.631-.023-1.307.068-1.927-.068-.034-.135-.046-.215-.034-.202.011-.36.169-.507.304-2.412 2.3-5.444 4.08-8.77 4.362-.766.068-1.532.045-2.299.023.406.26.79.541 1.24.71Z"/></g><path fill="#75A152" d="M82.37 45.73c1.162.18 13.662 2.48 15.962-6.616.113-.451.113.022.586.034.8 7.473-7.406 10.697-14.947 9.209-12.354-2.424-9.818-12.388-8.815-10.134.395.913-.169 6.358 7.215 7.508Z"/><path fill="#75A152" d="M82.37 45.73c1.162.18 13.662 2.48 15.962-6.616.113-.451.113.022.586.034.8 7.473-7.406 10.697-14.947 9.209-12.354-2.424-9.818-12.388-8.815-10.134.395.913-.169 6.358 7.215 7.508Z"/><path fill="#568040" d="M98.906 39.148c-.473-.012-.462-.485-.586-.034-2.006 7.924-11.734 7.203-14.98 6.763.868.282 1.758.485 2.592.845.744.327 1.522.7 2.052 1.33.158.192.282.406.36.632 5.997-.248 11.216-3.506 10.563-9.536Z" opacity=".37"/><path fill="#AED888" d="M75.326 41.436a7.021 7.021 0 0 1-.136-1.375c-.034-.327-.079-.756-.281-1.026a.18.18 0 0 0-.102-.079c-.068-.023-.147.011-.192.056a.306.306 0 0 0-.067.192c-.045.383.146.744.225 1.116.068.304.045.631.057.947.01.315.045.642.214.913.045.079.112.146.203.158.09 0 .169-.08.191-.17a.601.601 0 0 0-.022-.281 5.302 5.302 0 0 0-.09-.451ZM76.78 44.536c0 .033 0 .067.01.09.023.067.102.101.18.124.046.011.091.034.136.034.045 0 .09-.012.124-.057.023-.022.023-.056.023-.09a.363.363 0 0 0-.068-.237c-.146-.18-.372-.079-.406.136Z"/><path fill="#568040" d="M88.187 46.734c-.18 0-.36.01-.53.056-.811.18-1.882.36-2.254.868-.147.203-.214.564.146.665.372.101.755-.147 1.026-.44.27-.304.293-.597 2.502-.473l-.89-.676Z"/><path fill="#568040" d="M86.248 46.925c-.35 0-.699.045-1.037.124-.35.08-.721.215-.924.508-.023.033-.057.078-.057.123-.022.124.08.248.203.282.124.034.248 0 .372-.045.44-.169.812-.518 1.285-.575.192-.022.383.012.575.023.192.011.394.011.564-.079.09-.045.27-.18.27-.293-.011-.124-.18-.068-.26-.068-.337.023-.664 0-.991 0Z"/><path fill="#568040" d="M78.989 45.764c1.702 1.015 3.776 1.082 5.692 1.218 4.396.327 10.788 1.803 12.275-2.897.102-.316 2.401-.744 1.95-4.949-.473-.01-.462-.484-.586-.033-2.3 9.096-14.789 6.797-15.96 6.616-3.258-.507-4.96-1.837-5.896-3.257.45 1.364 1.341 2.592 2.525 3.302Z"/><g fill="#3E5C2E"><path d="M81.446 45.787c.834.146 1.668.158 2.514.169-.812-.09-1.387-.192-1.59-.226-2.006-.315-3.415-.935-4.43-1.702.925.936 2.244 1.533 3.506 1.759ZM87.905 46.193c2.017.191 4.08.236 5.974-.598.45-.191.902-.45 1.262-.777.327-.305.541-.7.902-.981.665-.519 1.488-.722 1.961-1.477.53-.856.474-1.905.226-2.885-1.6 5.478-7.045 6.605-11.126 6.65l.8.068Z"/></g><path fill="#AED888" d="M74.593 44.197c.079.102.203.18.27.294.068.135.068.281.08.44.01.146.056.315.18.394.078.056.18.056.281.056.034 0 .068 0 .09-.022a.304.304 0 0 0 .08-.09c.236-.429-.08-1.128-.373-1.455-.124-.135-.417-.473-.62-.36-.236.135-.112.597.012.743Z"/><g fill="#D8D8D8"><path d="M105.23 176.013c-31.754 8.713-56-3.675-67.745 5.252-4.216 3.202-1.713 7.102 3.844 8.184 13.064 2.536 26.342-2.458 39.632-3.01 11.17-.462 22.206 2.221 33.286 3.72 54.455 7.372 35.304-26.32-9.017-14.146Z"/><path d="M106.188 170.207c-45.967 10.698-66.809-6.853-84.145 10.528-2.446 2.458-4.317 5.839-3.833 9.266 2.638 18.667 45.471 5.794 52.562 4.103 9.536-2.277 19.534-1.206 29.217.316 9.682 1.521 28.067 5.252 37.862 4.734 15.172-.8 26.94-12.918 16.863-24.246-2.852-3.213-6.786-5.309-10.877-6.617-12.129-3.832-25.25-.969-37.649 1.916Z" opacity=".25"/></g><path fill="#B45F00" d="M80.23 25.035c.044.023.078.034.123.056.699.339 1.41.654 2.21.429.912-.27 1.848-1.42 1.521-1.646-.101-.067-.71.056-.834.045-.485-.034-.98-.045-1.465-.034-.474.012-.947.012-1.41.09-.777.125-1.566.249-2.321.463-.09.022-.192.056-.248.124-.012.022-.034.045-.034.067-.011.08.09.124.169.136.485.078.98-.068 1.465 0 .282.033.564.146.823.27Z" opacity=".36"/><path fill="#323147" d="M83.746 23.468c-.338-.112-2.976-.462-5.85.936-.023.011-.045.011-.068.023-.011 0-.023.01-.023.022-.01 0-.01.011-.022.011-.068.034-.023.136.034.102.034-.023.079-.034.113-.057 2.772-.935 4.001.643 5.658.124.564-.169.834-.935.158-1.16Z"/><path fill="#B45F00" d="M92.91 25.035c-.045.023-.079.034-.124.057-.699.338-1.41.653-2.21.428-.912-.27-1.848-1.42-1.521-1.646.101-.067.71.056.834.045.485-.034.98-.045 1.465-.034.474.012.947.012 1.41.09.777.125 1.566.249 2.321.463.09.022.192.056.248.124.012.022.034.045.034.067.011.08-.09.124-.169.136-.485.079-.98-.068-1.465 0-.282.034-.553.146-.823.27Z" opacity=".36"/><path fill="#323147" d="M89.54 24.64c1.657.52 2.885-1.059 5.658-.123.034.022.08.034.113.056.068.034.102-.079.034-.101-.011 0-.011-.012-.023-.012 0-.01-.01-.022-.022-.022-.023-.011-.045-.011-.068-.023-2.874-1.409-5.512-1.048-5.85-.935-.665.214-.395.98.158 1.16Z"/></svg>