<svg xmlns="http://www.w3.org/2000/svg" width="190" height="200" fill="none"><path fill="#74A352" d="M129.75 37.58c3.62.53 7.28-.63 10.58-2.2 4.03-1.91 16.74-10.7 21.88-2.92.71 1.07 1.07 2.37 1.94 3.32 1.4 1.52 3.74 1.74 5.76 1.32 1.98-.43 12.8-6.34 19.83 3l-4.85 4.56c-1.1-6.62-6-7.26-10.26-6.6-4.34.7-8.24 3.27-10.52.7-1.07-1.22-1.06-4.36-2.44-5.24-10-6.37-6.93 11.86-21.07 11.3-3.53-.15-6.9-1.36-10.21-2.58-10.92-4.07-12.24-.77-16.15 2.35a14.05 14.05 0 0 1-9.69 3.1 12.3 12.3 0 0 1-8.88-4.78c16.47 3.81 15.92-8 34.08-5.33Z"/><path fill="#3E5C2E" d="M184.5 42.98c.12-1.94-.12-3.96-.62-5.82a15.02 15.02 0 0 0-.61-1.77c2.26.7 4.52 2.1 6.47 4.7l-4.85 4.56a13.3 13.3 0 0 0-.4-1.67Z"/><path fill="#568040" d="M169.51 37.16h.12c2.25-.3 4.35-1.69 6.67-1.56 2.78.14 5.47 2.25 6.98 4.48.48.71.94 1.74 1.17 2.79-1.63-4.94-6-5.4-9.82-4.8-8.63 1.36-8.7 2.11-10.17-1.98 1.32 1.14 3.28 1.37 5.05 1.07Zm-7.84-3.64a13.76 13.76 0 0 0-1.5-.82 9.9 9.9 0 0 0-1.78-3.09c1.49.43 2.8 1.3 3.82 2.84.62.95.98 2.06 1.65 2.97.15 1.28.38 2.58.76 3.8a2.86 2.86 0 0 1-.5-.48c-1.08-1.2-1.07-4.34-2.45-5.22Zm-48.56 6.63c-.3.27-.58.54-.86.82-2.3 2.24-4.6 4.38-7.65 5.53-.88.33-1.77.55-2.67.7a12.08 12.08 0 0 1-6.24-4.29c8.89 2.06 12.82-.45 17.42-2.76Z"/><path fill="#3E5C2E" d="M103.81 43.72c-1.58.73-3.4 1.46-5.28 1.89a11.62 11.62 0 0 1-2.86-2.7c3.53.81 6.27.92 8.6.6-.16.07-.3.15-.46.21Z"/><path fill="#AED888" d="M140.77 35.16c2.8-1.43 8.62-5.12 13.79-5.76-6.18 2.18-9.26 19.54-27.46 7.88.83.06 1.71.15 2.65.3 3.61.53 7.28-.63 10.58-2.2l.36-.18.08-.04Z" opacity=".49"/><path fill="#3E5C2E" d="M126.04 38.47c2.58 1.1 4.68 3.03 6.95 4.7l-2.6-.95c-6.94-2.58-10.01-2.18-12.32-.75a8.25 8.25 0 0 1 1.28-1.77 5.73 5.73 0 0 1 3.98-1.84c.94 0 1.85.25 2.7.61Z"/><path fill="#AED888" d="M143.04 35.8c-1.92 1.69-4 2.46-6.52 1.74a6.4 6.4 0 0 1-.95-.38 27.45 27.45 0 0 0 4.76-1.78c1.37-.65 3.74-2.1 6.48-3.41-1.28 1.26-2.43 2.65-3.77 3.83Z" opacity=".49"/><path fill="#74A352" d="M173.48 21.17c.87 3.14-2.49 8.13-9.06 6.42-13.65-3.52-18.66-3.39-26.95-.75-5.04 1.6 3.15.47 3.15.47s8.75-.5 11.63-.12c2.87.37 10.77 1.78 13.4 1.98 2.62.2 5.83-.35 7.02-2 1.18-1.65.81-6 .81-6Z"/><path fill="#3E5C2E" d="M113.54 49.6c18.56 2.92 14.57-13.57 17.43-18.25a9.24 9.24 0 0 1 2.74-2.75 13.2 13.2 0 0 1 3.9-1.8c2.02-.57 4.14-.64 6.24-.62a70.3 70.3 0 0 1 15.66 1.79c9.1 2.15 9.53 1.34 16.5-5.41-2.08 5.9-6.07 6.86-10.59 6.85-4.42-.01-37-7.88-33.96 9.66.17.69.3 1.34.35 1.59 2 9.38-3.89 17.29-19.88 11.2-3.84-1.46-12.47-5.11-17.71.26 2.6-6.29 13.84-3.38 19.32-2.52Z"/><path fill="#568040" d="M131.47 39.07c.17.69.3 1.34.35 1.59.21 1 .34 1.98.36 2.94-.3-.46-.6-.92-.88-1.4a22.61 22.61 0 0 1-1.9-4.11c.45-2.76.68-5.31 1.56-6.74a9.22 9.22 0 0 1 2.74-2.75 13.2 13.2 0 0 1 3.9-1.8c2.02-.57 4.14-.64 6.24-.62a70.3 70.3 0 0 1 15.65 1.79c9.11 2.15 9.54 1.34 16.52-5.41-2.09 5.9-6.08 6.86-10.6 6.85-4.4-.02-36.97-7.88-33.94 9.66ZM113.54 49.6c12.2 1.91 14.65-4.54 15.72-10.52 1.54 4.79 1.28 9.67-1.87 13.74-3.31 1.68-8.4 1.73-15.45-.97-3.84-1.45-12.47-5.1-17.71.27 2.6-6.29 13.83-3.38 19.3-2.52Z"/><path fill="#3E5C2E" d="M108.7 49.33c1.12.19 2.24.44 3.33.74 2.14.62 4.04 1.68 5.83 2.99.28.21.64.44 1 .7-2.05-.3-4.36-.93-6.92-1.9-1.77-.67-4.56-1.8-7.55-2.3 1.46-.36 2.82-.5 4.31-.23Z"/><path fill="#74A352" d="M127.66 44.93c-.5 2-1.27 4.11-2.95 5.45-2 1.58-4.85 1.68-7.13.64-.64-.3-1.21-.7-1.77-1.15 7.29.56 10.5-2.31 12.11-6.03a19.03 19.03 0 0 1-.26 1.09Z"/><path fill="#568040" d="M178.05.65c.75 1.42 1.43 5.76-.48 8-1.56 1.85-3.27 3.7-3.96 6-.71 2.34-.3 4.84-.29 7.27 0 .54 0 1.09-.13 1.6-.4 1.65-2.46 4.4-4.96 5.18 4.35-.65 7.56-3.97 8.07-7.3.15-.93.06-1.89.06-2.83 0-6.88 4.21-10.16 5.22-12.04 1.35-2.54.37-4.56-.1-6.53 0 .01-2.63.59-3.43.65Z"/><path fill="#3E5C2E" d="M176.2 21.92c-1.39-5.81-5.78-6.35 3.8-13.26-1.57 2.04-3.64 5.08-3.64 9.9 0 .95.09 1.91-.06 2.84l-.1.52Z" opacity=".32"/><path fill="#3E5C2E" d="M178.53 10.78a14.54 14.54 0 0 0-2.16 8.44c-.45-.94-.91-1.87-.96-2.9-.12-2.29 1.27-4.25 3.12-5.54Z"/><path fill="#74A352" d="M177.56 8.66c1.56-1.84 1.4-5.08.87-6.97.43.4 3.35 4.84-1.29 7.81l-.65.42 1.07-1.26Z"/><path fill="#3E5C2E" d="M136.96 27.88c3.3-.98 8.76-.66 12.16-.2-9.33-.34-18.76 2.04-17.66 11.34-2.72-3.52.36-9.61 5.5-11.14Z"/><path fill="#21212B" d="M30.18 107.55c.4-.06.41-2.12.05-4.6-.36-2.5-.97-4.47-1.36-4.41-.39.05-.4 2.12-.04 4.6.36 2.5.97 4.47 1.36 4.41Z"/><path fill="#464558" d="M73.06 46.1c-.95.3-1.93.53-2.9.69-2.39.38-4.84.4-7.12 1.18-5.47 1.87-8.66 7.74-9.55 13.44-.89 5.71-1.43 13.27-1.5 19.04a12.38 12.38 0 0 1-.46 3.64 10.14 10.14 0 0 1-2.18 3.6c-4.4 4.93-9.85 5.03-15.13 9a12.5 12.5 0 0 1 1 10.79 56.64 56.64 0 0 0 24.06-4.39c3.72-1.56 5.93-1.86 8.62-4.88 3.66-4.12 6.62-11.47 7.12-16.97.49-5.5.02-11.04.2-16.56.03-.72.06-1.46.14-2.19l-2.3-16.4Zm14.48-1.35.08.59.1-.38-.18-.21Z"/><path fill="#D58500" d="M34.83 98.69c-.74-1.07-1.2-1.36-2.38-.87-1.44.59-2.82 1.43-4.2 2.13-.8.4-1.63.82-2.53.89-3.11.25-5.31-3.54-8.43-3.67-1.95-.1-3.78 1.3-5.72 1.03-.35.45-.05 1.16.44 1.46.5.28 1.1.27 1.68.23l2.89-.13c.56-.03 1.13-.05 1.66.14.53.2 1 .66 1.03 1.21.09 1.63-5.64 3.7-9.38 3.52-2.93-.15-5.15-1.03-6.65-.9-1.77.16-.87 1.52.76 1.96.36.1 3.5.9 6.8 1.32-4.35.27-7.36-1.44-9.3-1.38-1.78.05-.95 1.44.64 2a56.1 56.1 0 0 0 6.38 1.68c-2.6-.1-4.64-.73-6.01-.52-1.76.26-.78 1.54.85 1.91.39.1 3.92.8 7.4.98-2.75.04-4.86-.68-6.25-.48-1.6.24-.7 1.42.78 1.75 14.77 3.28 15.67-2.47 22.4-5.02 2.33-.88 4.86-1.03 7.34-1.26.25-.03.52-.06.7-.23.14-.13.21-.31.27-.5a8.7 8.7 0 0 0-1.18-7.25Z"/><path fill="#B45F00" d="M21.56 100.75c-.54-.58-1.07-1.16-1.74-1.6a4.13 4.13 0 0 0-.89-.45 1.8 1.8 0 0 0-1.11-.04c-1.26.38-2.52.65-3.84.7-.7.01-1.52 0-2.15-.34a1.88 1.88 0 0 1-.42-.29c.03.36.26.73.6.93.5.28 1.1.27 1.68.23l2.89-.13a4.35 4.35 0 0 1 1.66.14c.53.2 1 .66 1.03 1.21.01.27-.12.54-.4.82.29.82.13 2.1 1.84 3.8.63-3.18 5.7-4.03 5.7-4.03-2.4.27-3.57.42-4.85-.95Z" opacity=".36"/><path fill="#B45F00" d="M21.04 103.28c.09.02.18-.02.21-.1.12-.28-.58-.19-1.59-.9-.26-.19-.62-.42-.5-.75a1.73 1.73 0 0 1-.2.31 3.14 3.14 0 0 0 2.08 1.44Zm-7.03 10.62h.2a19.16 19.16 0 0 0 1.22-.12c-.51-.83.22-1.8-.27-2.6-.2-.32-.57-.49-.78-.78-.43-.6-.15-1.5-.58-2.1-.15-.21-.4-.37-.54-.6-.18-.31-.12-.7-.1-1.06.03-.5.01-1.06-.27-1.48-.1-.16-.24-.47-.36-.58-.17-.15-.33-.08-.55-.06-.13.02-1.6.14-1.6.1 0 2.71-6.58.89-7.84-.7-.7.42.16 1.38 1.47 1.75.35.1 3.29.86 6.44 1.28h.02c.3.05.57.07.8.04.17 1.51-8.98 1.18-10.63-1.11-.43.44.32 1.33 1.5 1.73a56.66 56.66 0 0 0 6.34 1.7l2.34-.06c-.06 2.94-8.29.37-9.16-.08-.32.5.52 1.25 1.73 1.52.38.08 3.84.78 7.28.98.38-.07.79-.01 1.16-.12 1.23-.37.42 1.8-3.11 1.56a17.7 17.7 0 0 1-2.89-.42 8.75 8.75 0 0 1-1.83-.61 4.39 4.39 0 0 1-.3-.17c.14.4.78.84 1.6 1.02 2.65.59 4.85.88 6.71.96.63.05 1.32.05 2 .01Z" opacity=".36"/><path fill="#B45F00" d="M11.75 106.83c.23-.2.34-.7.07-.9-.42-.33-.97.42-1.3.62-.26.16-.53.25-.82.32l.74.1h.01c.29.05.55.06.76.05.2-.04.4-.06.54-.2Zm1.04 1.79c.13-.23.01-.61-.3-.45-.15.06-.27.19-.39.28a4.16 4.16 0 0 1-2.09.68c-.39 0-.78-.05-1.17.03a8.5 8.5 0 0 0-.5.12.58.58 0 0 0 .13.04l2.03-.06c.01-.02.02-.03.06-.03.44 0 .85-.1 1.28-.17.3-.06.76-.13.95-.44Zm.72 2.65c.12-.2-.09-.39-.27-.41-.16-.02-.33.02-.48.07-.27.08-.51.2-.77.3-.88.3-1.85.33-2.78.35.48.05.95.08 1.44.11.38-.06.79 0 1.16-.12.23-.07.4-.04.47.03l.42-.04c.22-.03.67-.07.8-.3Zm20.09-10.15a5.2 5.2 0 0 0-2.73-2.41 1.1 1.1 0 0 0-.18-.06l-1.78.96c.14.2.26.4.35.63a5.7 5.7 0 0 1 .09 3.94 6.57 6.57 0 0 1-2.4 3.14c-.9.64-1.95 1.07-2.83 1.74-.85.64-1.53 1.47-2.26 2.25 1.8-1.16 3.45-2.47 5.84-3.37 2.1-.79 4.35-1 6.6-1.2a8.26 8.26 0 0 0-.7-5.63ZM17.03 104.95c.22.85.46 1.7.6 2.56.12.81.16 1.68.61 2.36.18.27.45.52.78.52.36 0 .67-.34.73-.7.07-.34-.02-.71-.15-1.05-.4-1.05-1.13-2-1.35-3.11-.09-.5-.07-1.02-.13-1.52a4.92 4.92 0 0 0-.3-1.27s0 0-.02 0c-.38.2-.82.42-1.3.62.22.51.38 1.05.53 1.6Zm-.23 5.24c.25-.02.4-.28.44-.51.15-.7-.11-1.38-.24-2.07-.09-.5-.1-.99-.17-1.5a9.08 9.08 0 0 0-.73-2.59l-.65.23.11.23c.37.84.56 1.75.53 2.68-.03.75-.2 1.5-.15 2.25.04.45.17.94.55 1.2.1.04.2.08.31.08ZM11.92 98.87s.64.09 1.1-.02c.37-.07.68-.73.68-.73.07.66-.8 1.32-1.78.75Z" opacity=".36"/><path fill="#2B2B37" d="M73.86 51.85c-1.35.85-2.74 1.65-4.11 2.45-1.76 1.02-3.6 2.01-5.2 3.28a17.25 17.25 0 0 0-3.89 4.14 8.2 8.2 0 0 0-1.2 2.73c-.2.97-.17 1.98-.02 2.96.32 1.91 1.1 3.7 1.63 5.55.45 1.62-.75 5-1.04 6.68-.16.88-.5 1.69-.76 2.54-.28.94-.44 1.9-.47 2.89-.03.91.05 1.81.14 2.73.07.76.23 1.56.1 2.33-.17.98-.92 1.3-1.8 1.53-1.44.39-2.79.93-3.75 2.13-.91 1.16.18.92-.27 2.3a12.49 12.49 0 0 1-2.28 4.1 20.72 20.72 0 0 1-3.67 3.35 37.82 37.82 0 0 1-6.8 3.9 56.72 56.72 0 0 0 18.83-4.35c3.72-1.56 5.93-1.86 8.6-4.88 3.67-4.12 6.64-11.47 7.13-16.97.49-5.5.02-11.04.2-16.56a29 29 0 0 1 .14-2.19l-1.51-10.64Zm13.68-7.1.08.59.1-.38-.18-.21Z" opacity=".29"/><path fill="#2B2B37" d="M54.28 87.47c-.2-.4-.53-.71-.83-1.02-.52-.52-1.07-1-1.55-1.56a9.52 9.52 0 0 1-.41-.6c-.1.27-.2.54-.34.8.46.86.8 1.77 1.16 2.66.12.33.23.69.41 1 .14.22.42.39.65.49.38.18.7.07.89-.33.2-.44.24-.99.02-1.44Zm2.1-.82c.23-.45-.1-1.2-.34-1.58-.79-1.23-2.65-1.48-4.28-1.86l-.1.44c1.18 1.22 4.14 4.2 4.73 3Zm31.16-41.9.08.59.1-.38-.18-.21Z" opacity=".48"/><path fill="#2B2B37" d="M73.06 46.1c-.95.3-1.93.53-2.9.69-1.52.25-3.05.35-4.56.59a19.32 19.32 0 0 0-.34 4.11c.07 2.7.64 5.35 1.35 7.95.73 2.68 1.62 5.3 2.36 7.99.7 2.57 1.3 5.2 1.38 7.88.14 4.55-2.45 11.04-5.22 14.73a14.46 14.46 0 0 1-5.09 4.3 11.88 11.88 0 0 1-6.97 1.31c-3.06-.46-3.96-4.22-5.94-6.52-4.04 2.8-8.92 4.59-12.9 7.57a12.5 12.5 0 0 1 1 10.79 56.64 56.64 0 0 0 24.07-4.38c3.72-1.57 5.93-1.86 8.6-4.88 3.67-4.13 6.64-11.48 7.13-16.98.49-5.5.02-11.04.2-16.56.03-.72.06-1.45.14-2.19l-2.31-16.4Z" opacity=".48"/><path fill="#464558" d="m42.34 91.22-13.47 7.32c.4-.06 1 1.92 1.37 4.4.36 2.5.34 4.56-.05 4.62 8.8-.1 14.57.26 16.84-.1 2.37-.4-.1-17.9-4.69-16.24Z"/><path fill="#2B2B37" d="M43.31 103.27c-1.94.42-3.92.7-5.9.7-2.5.01-5.14-.45-7.28-1.73l.1.7c.37 2.49.35 4.55-.04 4.6 8.8-.1 14.57.26 16.84-.1.87-.13 1.1-2.57.8-5.52a28.02 28.02 0 0 1-4.52 1.35Z" opacity=".25"/><path fill="#575771" d="M30.6 97.92c.62.11 1.25.12 1.87.11 1.12-.03 2.24-.12 3.36-.2a19.87 19.87 0 0 0 9.55-2.95l.67-.45c-.94-2.27-2.22-3.75-3.7-3.2l-12.16 6.59c.14.04.27.08.4.1Z"/><path fill="#2B2B37" d="M32.3 106.88a.24.24 0 0 1-.2-.12.24.24 0 0 1 .09-.33c.08-.04 7.89-4.62 9-12.65.01-.12.13-.22.26-.2.13.02.23.14.2.27-1.13 8.26-9.14 12.95-9.23 13a.29.29 0 0 1-.12.03Z"/><path fill="#2B2B37" d="M45.24 107.5a.22.22 0 0 1-.2-.1c-3.32-4.9-13.45-9.12-13.55-9.15-.13-.05-.18-.2-.13-.3.05-.13.2-.19.3-.13.43.17 10.38 4.3 13.78 9.33a.23.23 0 0 1-.06.33l-.14.02Z"/><path fill="#2B2B37" d="M68.5 97.51a9.65 9.65 0 0 0-.33-3.73 4.55 4.55 0 0 0-2.85-2.95 6.42 6.42 0 0 0-4.04.15 13.98 13.98 0 0 0-4.3 2.65c-1.6 1.3-1.66 1.01-3.22 2.35a76.13 76.13 0 0 1-4.98 3.9 41.45 41.45 0 0 1-5.3 3.4 20.49 20.49 0 0 1-5.81 2.02c-1.04.2-2.1.2-3.15.29-.56.04-1.14.09-1.69.2-.34.07-.73.22-.79.62-.03.33.15.66.33.92l.14.2c7.49-.03 12.45.24 14.52-.1.37-.05.57-.51.68-.88a57 57 0 0 0 11.6-3.47c3.72-1.56 5.93-1.86 8.61-4.88l.57-.69Z" opacity=".29"/><path fill="#2B2B37" d="M57.87 101.82c-1.05-.52-.96-2.05-2.02-1.7-1.23.43-2.37 1.1-3.47 1.78-1.03.63-2.03 1.3-3.15 1.8-1.4.6-2.96.82-4.48.96-2.54.23-5.12.3-7.48 1.4-.62.3-1.5.78-1.8 1.49 5.84.03 9.75.19 11.54-.1.37-.05.56-.51.68-.87a57 57 0 0 0 11.6-3.48 56.51 56.51 0 0 0 1.72-.76c-.28-.97-2.32-.1-3.15-.52Z" opacity=".29"/><path fill="#464558" d="M52.87 83.46s-.94-.14-1.1-.25c-.16-.11-1.09-.09-.48-1.97.61-1.89.7-2.93.73-3.67.02-.73.77-1.15.77-1.15l1.6 4.64-1.52 2.4Zm-1.2.19s-.15-.02-.2.14c-.04.15 0 .5 0 .5s.39.58.52.72c.1.1.26-.56.26-.57l-.59-.79Zm-.52 1.44s-.38 0-.52.25c-.15.25-.25 1.18-.88 1.87-.63.7-1.3 1.82-1.3 1.82s1.9-.77 1.95-.73c.04.06.7-1.15.71-1.2l.04-2Z"/><path fill="#21212B" d="M148.19 101.02c.04-2.73-.27-4.95-.7-4.96-.43 0-.81 2.2-.86 4.93-.05 2.74.26 4.96.69 4.96.43.01.82-2.2.86-4.93Z"/><path fill="#D58500" d="M140.75 96.62c.73-1.07 1.2-1.35 2.39-.85 1.43.58 2.8 1.43 4.2 2.14.8.4 1.63.82 2.52.9 3.1.26 5.32-3.52 8.44-3.65 1.95-.08 3.77 1.3 5.71 1.06.35.45.06 1.16-.45 1.45-.5.28-1.1.27-1.68.24l-2.88-.14c-.57-.02-1.14-.05-1.67.14s-1 .64-1.04 1.2c-.09 1.64 5.63 3.71 9.37 3.54 2.93-.13 5.15-1.01 6.65-.86 1.77.16.86 1.5-.76 1.95-.36.1-3.51.9-6.8 1.3 4.35.27 7.36-1.42 9.3-1.36 1.78.06.94 1.45-.63 2-.34.1-3.25 1.05-6.38 1.65 2.6-.08 4.63-.7 6-.5 1.76.25.78 1.55-.85 1.9-.39.08-3.92.79-7.4.97 2.75.04 4.86-.68 6.25-.47 1.6.23.7 1.42-.8 1.74-14.76 3.24-15.65-2.51-22.38-5.07-2.32-.89-4.86-1.04-7.33-1.29-.24-.02-.51-.05-.7-.23a1.2 1.2 0 0 1-.26-.5 8.7 8.7 0 0 1 1.18-7.26Z"/><path fill="#B45F00" d="M154.02 98.73c.54-.57 1.08-1.15 1.73-1.59.28-.19.59-.34.9-.45a1.72 1.72 0 0 1 1.1-.02c1.26.37 2.52.65 3.84.7.7.02 1.52 0 2.15-.33.14-.07.28-.17.42-.3-.02.37-.27.74-.6.93-.5.28-1.1.27-1.68.24l-2.88-.14c-.57-.02-1.14-.05-1.67.14s-1 .64-1.04 1.2c0 .27.13.56.39.83-.3.8-.13 2.1-1.85 3.8-.62-3.18-5.68-4.05-5.68-4.06 2.4.26 3.57.41 4.87-.95Z" opacity=".36"/><path fill="#B45F00" d="M154.53 101.27c-.09 0-.18-.02-.21-.11-.11-.27.59-.18 1.59-.9.26-.19.62-.41.5-.74.05.1.12.22.21.32a3.21 3.21 0 0 1-2.09 1.43Zm7 10.64-.2-.01a19.13 19.13 0 0 1-1.22-.12c.51-.83-.21-1.81.27-2.6.2-.31.57-.48.78-.78.44-.6.15-1.5.59-2.1.16-.2.4-.37.54-.6.18-.3.12-.69.1-1.05-.03-.5-.01-1.06.28-1.48.1-.15.24-.46.37-.57.17-.15.33-.08.56-.06.12.01 1.6.15 1.6.1 0 2.7 6.57.9 7.84-.68.69.42-.15 1.38-1.47 1.75-.35.1-3.3.85-6.45 1.26h-.01a3.42 3.42 0 0 1-.8.04c-.17 1.51 8.96 1.2 10.64-1.08.43.44-.33 1.33-1.51 1.73a57.53 57.53 0 0 1-6.34 1.68c-.18.02-2.23-.06-2.33-.06.04 2.94 8.28.39 9.15-.06.32.5-.53 1.25-1.72 1.51-.39.08-3.85.77-7.3.96-.38-.07-.79-.01-1.16-.13-1.23-.37-.41 1.8 3.11 1.58.97-.07 1.94-.2 2.89-.41a8 8 0 0 0 1.84-.61 4.27 4.27 0 0 0 .3-.17c-.15.4-.79.83-1.61 1.02-2.65.58-4.85.87-6.7.95-.68.02-1.36.02-2.04-.01Z" opacity=".36"/><path fill="#B45F00" d="M163.81 104.83c-.22-.21-.34-.69-.07-.9.42-.33.97.43 1.3.63.26.16.53.25.82.31l-.74.1h-.01a3.6 3.6 0 0 1-.76.05c-.2-.03-.4-.05-.54-.19Zm-1.05 1.8c-.13-.23 0-.62.3-.46.15.07.27.2.39.28.3.2.64.35.98.47.36.1.72.2 1.1.2.4 0 .8-.04 1.18.04.17.04.34.08.5.14a.53.53 0 0 1-.13.03c-.14.01-1.43-.03-2.03-.05-.01-.03-.02-.04-.05-.04-.44 0-.86-.09-1.29-.17-.3-.06-.76-.14-.95-.45Zm-.73 2.63c-.12-.2.09-.38.28-.4.16-.03.33.02.48.06.27.08.51.2.77.3.88.31 1.85.34 2.78.37a30.24 30.24 0 0 1-1.44.1c-.38-.07-.78-.01-1.16-.13-.23-.06-.4-.04-.47.04a4.47 4.47 0 0 0-.42-.05c-.23-.02-.68-.06-.82-.29Zm-20.05-10.19a5.2 5.2 0 0 1 2.92-2.46l1.78.96a2.67 2.67 0 0 0-.35.63 5.63 5.63 0 0 0-.1 3.94 6.46 6.46 0 0 0 2.39 3.15c.9.64 1.95 1.07 2.83 1.74.84.64 1.52 1.49 2.25 2.25-1.8-1.17-3.45-2.48-5.83-3.38-2.1-.8-4.35-1-6.58-1.22a6.2 6.2 0 0 1-.23-2.04c.05-1.24.3-2.49.92-3.57ZM158.53 102.94c-.23.84-.46 1.69-.6 2.56-.12.8-.16 1.66-.61 2.35-.18.27-.45.52-.78.52-.36 0-.65-.34-.73-.69-.08-.36.03-.72.15-1.06.42-1.05 1.14-2 1.35-3.1.09-.5.08-1.01.13-1.52.05-.43.16-.86.3-1.26l.02-.01c.38.21.8.42 1.3.63a13 13 0 0 0-.53 1.58Zm.22 5.24c-.25-.03-.4-.28-.44-.52-.15-.69.11-1.38.24-2.06.09-.5.1-1 .17-1.5.1-.9.37-1.76.73-2.58l.65.23a2.2 2.2 0 0 0-.11.24 6.03 6.03 0 0 0-.54 2.66c.02.75.19 1.5.14 2.25-.03.45-.16.94-.54 1.19a.5.5 0 0 1-.3.09ZM163.65 96.87s-.64.1-1.1-.02c-.36-.08-.68-.73-.68-.73-.07.65.8 1.32 1.78.75Z" opacity=".36"/><path fill="#464558" d="M95.12 45.89c1.07.2 2.15.31 3.23.35 2.62.09 5.27-.23 7.83.3 6.15 1.25 10.39 7.13 12.14 13.16 1.74 6.03 1.6 12.42 2.49 18.64.19 1.32.43 2.65.98 3.87a11 11 0 0 0 2.83 3.57c5.4 4.71 10.62 5.49 16.85 9.03a13.54 13.54 0 0 0 .4 11.76c-8.8 1.46-15.47 1.24-24.07-1.15-4.23-1.18-8.41-2.86-11.71-5.74-4.52-3.95-6.97-9.79-8.26-15.65-1.28-5.86-1.54-11.89-2.48-17.8a42.43 42.43 0 0 0-.44-2.34l.2-18Z"/><path fill="#2B2B37" d="M95.12 45.89c1.07.2 2.15.31 3.23.35 2.62.09 5.27-.23 7.83.3 6.15 1.25 10.39 7.13 12.14 13.16 1.74 6.03 1.6 12.42 2.49 18.64.19 1.32.43 2.65.98 3.87a11 11 0 0 0 2.83 3.57c5.4 4.71 10.62 5.49 16.85 9.03a13.54 13.54 0 0 0 .4 11.76c-8.8 1.46-15.47 1.24-24.07-1.15-4.23-1.18-8.41-2.86-11.71-5.74-4.52-3.95-6.97-9.79-8.26-15.65-1.28-5.86-1.54-11.89-2.48-17.8a42.43 42.43 0 0 0-.44-2.34l.2-18Z" opacity=".29"/><path fill="#464558" d="m79.33 46.44-.01.64a4.13 4.13 0 0 1-.16-.4l.17-.24Z"/><path fill="#2B2B37" d="M95.04 52.21c1.58.72 3.17 1.4 4.77 2.08 2.04.85 4.15 1.68 6.05 2.8a18.85 18.85 0 0 1 4.77 3.94c.7.83 1.3 1.74 1.67 2.77.35 1.03.46 2.1.43 3.18-.08 2.1-.68 4.14-1 6.2-.27 1.8-.27 3.63.29 5.38.29.93.76 1.75 1.16 2.63.44.97.74 1.99.9 3.05.16.98.2 1.97.22 2.95.03.83-.03 1.72.22 2.54.31 1.03 1.16 1.28 2.14 1.4 1.6.22 3.15.61 4.34 1.79 1.15 1.12 1.69 2.67 2.37 4.09a13.44 13.44 0 0 0 3.02 4.12c1.33 1.23.38 1.98 1.96 2.84a40.76 40.76 0 0 0 7.87 3.26c-7.01.5-11.65.06-18.42-1.83-4.23-1.17-8.41-2.85-11.71-5.73-4.52-3.95-6.97-9.79-8.26-15.65-1.28-5.86-1.54-11.89-2.49-17.8a42.41 42.41 0 0 0-.44-2.34l.14-11.67Zm-15.71-5.77-.01.65a4.14 4.14 0 0 1-.16-.39l.17-.26Z" opacity=".29"/><path fill="#2B2B37" d="m79.33 46.44-.01.64a4.13 4.13 0 0 1-.16-.4l.17-.24Zm15.79-.55c1.07.2 2.15.31 3.23.35 1.66.05 3.33-.05 4.99 0 .46 1.42.77 2.9.92 4.4.3 2.91.05 5.84-.36 8.74-.42 2.99-1.02 5.95-1.43 8.94-.4 2.86-.7 5.8-.4 8.68.48 4.92 2.4 9.9 5.89 13.48a15.75 15.75 0 0 0 6.08 3.93c2.44.85 5.19 1.17 7.7.46 3.24-.93 5.44-3.43 7.25-6.18 4.75 2.47 7.79 3.46 12.5 6.13a13.53 13.53 0 0 0 .4 11.76c-8.8 1.46-15.48 1.24-24.08-1.15-4.23-1.18-8.4-2.86-11.71-5.74-4.52-3.95-6.97-9.78-8.25-15.65-1.29-5.86-1.55-11.89-2.5-17.8a42.4 42.4 0 0 0-.43-2.34l.2-18.01Z" opacity=".48"/><path fill="#464558" d="m131.98 90.03 15.52 6.02c-.43-.01-.81 2.2-.86 4.94-.04 2.72.26 4.94.7 4.96-9.49 1.09-15.65 2.28-18.17 2.2-2.62-.09-2.36-19.28 2.8-18.12Z"/><path fill="#2B2B37" d="M132.59 103.14c2.14.18 4.32.21 6.47-.06 2.7-.34 5.47-1.2 7.6-2.87l-.02.77c-.04 2.72.26 4.94.7 4.95-9.49 1.1-15.66 2.3-18.17 2.21-.96-.03-1.53-2.62-1.62-5.84 1.66.43 3.35.7 5.04.84Z" opacity=".25"/><path fill="#2B2B37" d="M144.93 105.52c-.03 0-.07-.01-.1-.03-.1-.04-2.37-.99-4.97-3.04-2.4-1.9-5.54-5.1-6.77-9.68a.26.26 0 0 1 .18-.32.26.26 0 0 1 .32.18c2.3 8.51 11.34 12.36 11.43 12.4a.25.25 0 0 1 .14.33.23.23 0 0 1-.23.16Z"/><path fill="#2B2B37" d="M131.06 107.96a.41.41 0 0 1-.1-.02.26.26 0 0 1-.12-.35c2.98-5.88 13.13-11.7 13.56-11.95a.26.26 0 0 1 .35.1.26.26 0 0 1-.1.35c-.1.06-10.45 6-13.36 11.74a.27.27 0 0 1-.22.13Z"/><path fill="#2B2B37" d="M105.38 98.99c-.3-1.33-.39-2.75-.17-4.07a4.93 4.93 0 0 1 2.67-3.57 6.93 6.93 0 0 1 4.37-.4 15.1 15.1 0 0 1 4.99 2.26c1.89 1.18 3.7 2.52 5.55 3.76 1.9 1.27 1.44 2.16 3.45 3.26 2 1.1 4.05 2.14 6.18 2.94a21.7 21.7 0 0 0 6.55 1.37c1.14.05 2.29-.07 3.42-.13.62-.03 1.24-.05 1.86 0 .38.01.83.14.93.56.09.34-.07.73-.23 1.04l-.13.24c-8.07 1-13.37 1.98-15.65 1.9-.4 0-.69-.48-.84-.85-4.39-.25-6.28-.71-10.52-1.88-4.23-1.18-8.4-2.86-11.71-5.74-.25-.23-.49-.45-.72-.69Z" opacity=".29"/><path fill="#2B2B37" d="M117.42 102.17c1.04-.71 2.5-.67 3.7-.43 1.38.28 2.69.86 3.97 1.43 1.19.54-.09.87 1.17 1.24 1.6.47 3.3.49 4.96.42 2.77-.11 5.56-.4 8.24.47.7.23 1.74.63 2.13 1.36-6.26.83-10.47 1.55-12.43 1.48-.4 0-.69-.48-.84-.85-4.39-.25-6.28-.71-10.52-1.89a56.97 56.97 0 0 1-1.96-.58c.19-1.07.75-2.1 1.58-2.65Z" opacity=".29"/><path fill="#464558" d="M120.25 81.69s1-.27 1.17-.42c.15-.14 1.16-.25.23-2.2s-1.16-3.05-1.27-3.85c-.13-.8-1-1.13-1-1.13l-1.08 5.2 1.95 2.4Zm1.33.04s.16-.04.23.12c.07.15.07.54.07.54s-.34.66-.46.84c-.1.13-.37-.56-.37-.58l.53-.92Zm.77 1.5s.4-.05.6.18c.2.25.43 1.24 1.2 1.9.78.66 1.66 1.77 1.66 1.77s-2.17-.57-2.2-.51a9.17 9.17 0 0 1-.94-1.2c-.03-.06-.32-2.15-.32-2.15Z"/><path fill="#2B2B37" d="M120.25 81.69s1-.27 1.17-.42c.15-.14 1.16-.25.23-2.2s-1.16-3.05-1.27-3.85c-.13-.8-1-1.13-1-1.13l-1.08 5.2 1.95 2.4Zm1.33.04s.16-.04.23.12c.07.15.07.54.07.54s-.34.66-.46.84c-.1.13-.37-.56-.37-.58l.53-.92Zm.77 1.5s.4-.05.6.18c.2.25.43 1.24 1.2 1.9.78.66 1.66 1.77 1.66 1.77s-2.17-.57-2.2-.51a9.17 9.17 0 0 1-.94-1.2c-.03-.06-.32-2.15-.32-2.15Z" opacity=".29"/><path fill="#2B2B37" d="M79.77 47.61v-.64a5.17 5.17 0 0 0-.17.26l.17.38Z"/><path fill="#464558" d="M75.62 109.47c.07-.38.17-.8.47-1.03.25-.2.59-.23.9-.25 10.77-.69 25.74-2.44 33.63-2.8 30.46-1.4 35.05.48 35.05.48l-14.43 18.41h3.66a26.43 26.43 0 0 1-3.16 2.1c-3.77 2.17-7.96 3.52-12.15 4.67a139.66 139.66 0 0 1-28.03 4.63c-6.12.37-12.68.24-17.81-3.13-.17-7.71.45-15.47 1.87-23.08Z"/><path fill="#2B2B37" d="M75.62 109.47c.07-.38.17-.8.47-1.03.25-.2.59-.23.9-.25 10.77-.69 25.74-2.44 33.63-2.8 4.34-.2 8.16-.34 11.5-.41a7.28 7.28 0 0 0 1.75 1.9c2.82 2.19 6.55 3.04 10.06 3.27 2.04.13 4.08.01 6.12-.2.83-.08 1.75-.07 2.62-.23l-11.42 14.58h3.66a26.61 26.61 0 0 1-3.16 2.1c-3.77 2.16-7.96 3.51-12.15 4.66a139.8 139.8 0 0 1-28.03 4.63c-6.12.38-12.68.24-17.81-3.13a111.73 111.73 0 0 1 1.86-23.09Z" opacity=".48"/><path fill="#2B2B37" d="M75.78 123.33c2.46-1.22 3.93-3.44 5.52-5.6a14.4 14.4 0 0 1 2.9-3.13 19.27 19.27 0 0 1 4.4-2.44 28.78 28.78 0 0 1 9.65-1.84 39.4 39.4 0 0 1 10.16.87c3.34.74 6.55 1.91 9.65 3.34 3.14 1.46 6.18 3.13 9.42 4.33 2.18.81 4.4 1.36 6.69 1.7l-2.92 3.74h3.66a26.54 26.54 0 0 1-3.16 2.1c-3.77 2.16-7.96 3.51-12.15 4.66a139.8 139.8 0 0 1-28.03 4.63c-6.12.37-12.68.24-17.81-3.13-.07-2.83-.02-5.67.13-8.5a11.59 11.59 0 0 0 1.89-.73Z" opacity=".48"/><path fill="#464558" d="M72.36 120.18c2.2-3.28 4.7-6.37 7.52-9.13a40.35 40.35 0 0 1 6.89-5.48c-6.9-.64-13.54-1.28-17.97-1.48-30.46-1.41-35.06.47-35.06.47l14.44 18.42h-3.66a26.52 26.52 0 0 0 3.16 2.1c3.77 2.16 7.95 3.51 12.15 4.66 2.34.64 4.7 1.22 7.08 1.73a40.64 40.64 0 0 1 5.45-11.29Z"/><path fill="#2B2B37" d="M47.65 125.09c2.96 1.7 6.17 2.9 9.44 3.88.54-.4 1.06-.82 1.59-1.24 1.69-1.34 3.4-2.63 5.08-3.99 1.77-1.42 3.47-2.9 5.2-4.36 3.46-2.9 7.07-5.78 11.21-7.62a24.13 24.13 0 0 1 6.06-1.79 32.4 32.4 0 0 1 6.52-.28l7.62.37c1.26.07 2.53.16 3.79.28l-.38-2.16c-.07-.39-.17-.8-.48-1.04-.24-.2-.58-.23-.9-.25-10.76-.68-25.73-2.43-33.62-2.8-4.34-.2-8.16-.33-11.51-.41a.09.09 0 0 0-.03.04 7.26 7.26 0 0 1-1.72 1.85c-2.82 2.2-6.55 3.06-10.05 3.28-2.04.14-4.08.02-6.12-.19-.84-.09-1.75-.08-2.62-.23L48.15 123h-3.66a32.84 32.84 0 0 0 3.16 2.09Z" opacity=".48"/><path fill="#2B2B37" d="M103.63 122c-2.47-1.2-3.93-3.43-5.52-5.6a14.45 14.45 0 0 0-2.91-3.12 19.3 19.3 0 0 0-4.4-2.44 28.78 28.78 0 0 0-9.65-1.84 39.4 39.4 0 0 0-10.15.87 48 48 0 0 0-9.65 3.35c-3.15 1.45-6.18 3.12-9.43 4.32a33.7 33.7 0 0 1-6.68 1.7l2.92 3.74H44.5a26.52 26.52 0 0 0 3.15 2.1c3.78 2.16 7.96 3.51 12.15 4.66a139.73 139.73 0 0 0 28.04 4.63c6.12.38 12.68.24 17.8-3.13.07-2.83.03-5.67-.13-8.5a10.61 10.61 0 0 1-1.88-.73Z" opacity=".48"/><path fill="#2B2B37" d="M124.67 104.97c2.4.36 5.75 1.64 12.3 2.53 0 0-2.9 6.87-6.16 7.15-3.27.28-6.5-2.3-6.5-2.3l.36-7.38Z" opacity=".29"/><path fill="#575770" d="M127.14 105.26c-9.5-1.94-46.75-2.37-51.51-2.41-4.79-.05-22.85 3.14-23.89 3.67l16.34 13.33c2.56 1.44 5.14 2.9 7.96 3.72 2.75.8 5.63.96 8.5 1 12.5.18 25.41-2.26 35.72-9.36.96-.66 1.91-1.38 2.68-2.28 1.78-2.08 7.88-3.9 10.38-6.29-2.05-.54-4.11-.96-6.18-1.38Z"/><path fill="#2B2B37" d="M69.58 103.92c-1.22.55-4.22 1.1-3.86 2.96.26 1.37 1.99 1.4 3.08 1.26 1.33-.15 2.43-.15 3.31.98.35.46.6.97 1 1.38.63.67 1.33.72 2.18.45.87-.28 1.66-.7 2.57-.86a9.74 9.74 0 0 1 2.86-.05 9 9 0 0 1 4.28 1.9c1.2.9 2.36 1.89 3.73 2.54 1.17.56 2.9.81 3.9-.26.72-.78.12-2.1-.18-2.94-.36-1.02-.86-2.17-.62-3.27.28-1.3 1.42-1.74 2.65-1.62 1.38.13 2.92.55 4.19 1.11 1.61.7 2.83 1.92 4.3 2.8 1.98 1.17 5.25 1.28 5.59-1.63.21-1.78-.59-3.55-1.5-5.03 0-.02-.02-.02-.02-.03-13.43-.57-28.49-.74-31.41-.76-1.08-.01-2.82.14-4.9.39-.34.28-.75.5-1.15.68Z" opacity=".25"/><path fill="#2B2B37" d="M60.78 109.91c.9-.06 1.77-.18 2.64-.38.85-.2 1.78-.46 2.45-1.04.6-.51.7-1.27.32-1.96-.4-.72-1.24-.99-2.01-1.08-1.84-.2-3.75.3-5.5.77-.95.26-1.9.5-2.87.72-.82.18-1.66.32-2.51.4l-.52.02 2.73 2.23c1.75.03 3.54.45 5.27.32Zm9.02-5.95c.58.58 1.2 1.12 1.9 1.56 1.88 1.2 4 2 6.14 2.59 2.14.6 4.33 1.03 6.53 1.4 2.57.46 5.12.79 7.74.87 5.1.15 10.18-.4 15.29-.41 4.21-.01 8.72.42 12.27 2.9.62.45 1.22.94 1.76 1.5a10.12 10.12 0 0 0 1.52-1.44c1.78-2.08 7.88-3.9 10.38-6.28-2.04-.53-4.1-.96-6.16-1.38-9.5-1.94-46.76-2.37-51.52-2.41-1.32-.01-3.64.21-6.34.57.15.18.32.35.5.53Z" opacity=".25"/><path fill="#2B2B37" d="M127.14 105.26c-9.5-1.94-46.75-2.37-51.51-2.41-.45 0-1.01.02-1.68.06a8.02 8.02 0 0 1-1.51 3.18c-1.66 2.15-4.11 3.36-6.65 4.18-2.72.87-5.6 1.2-8.43.84l10.72 8.74c2.56 1.45 5.14 2.9 7.96 3.72 2.75.8 5.63.97 8.5 1.02 12.5.17 25.41-2.27 35.72-9.37.97-.66 1.91-1.38 2.68-2.27 1.78-2.09 7.88-3.9 10.38-6.3a98.85 98.85 0 0 0-6.18-1.4Z" opacity=".25"/><path fill="#2B2B37" d="M127.14 105.26c-3.33-.68-10.08-1.17-17.65-1.54a26.25 26.25 0 0 1-2.97 4.5c-2.62 3.25-6 5.94-9.54 8.13a42.88 42.88 0 0 1-6.12 3.13c-2.23.93-4.57 1.58-6.88 2.28-2.36.71-4.74 1.4-7.13 2 2.5.63 5.1.77 7.7.8 12.5.18 25.41-2.26 35.72-9.36.97-.67 1.91-1.39 2.68-2.28 1.78-2.08 7.88-3.9 10.38-6.29-2.06-.53-4.12-.96-6.19-1.37Z" opacity=".25"/><path fill="#464558" d="m92.18 154.75 1.59.06c1.92.06 3.83-.38 5.57-1.23 2.49-1.22 5.09-2.25 7.8-3.03a46.63 46.63 0 0 1 10.8-1.58c3.7-.18 7.22-.7 10.76-1.72a103.38 103.38 0 0 0 5.18-1.68c1.47-.51 2.96-.98 4.39-1.6a29.5 29.5 0 0 0 6.68-4.1 35.88 35.88 0 0 0 10.08-12.72c2.35-6.7 1.24-13.27-3.2-17.96-7.57-7.97-18.63-1.1-26.6 4.39-6.5 4.5-14.04 7.24-21.48 9.95-11.95 4.35-6.05 2.04-16.1 10.08-2.72 2.17-4.08 2.24-3.81 5.7.1 1.33.54 2.6.77 3.91.36 1.94.29 3.95.66 5.89.36 1.93 1.28 3.92 3.02 4.87 1.16.64 2.55.73 3.89.77Z"/><path fill="#2B2B37" d="M140.64 113.01a.97.97 0 0 0-1.1-.21c-.36.17-.57.53-.75.88-.18.35-.37.72-.7.93-.33.22-.86.18-1.03-.18-.17-.35.1-.75.34-1.06.37-.46.76-.9 1.13-1.37.26-.32.54-.74.36-1.12-.23-.46-.93-.37-1.36-.11a3.74 3.74 0 0 0-1.57 1.8c-.15.35-.24.74-.45 1.05-.49.74-1.46.93-2.32 1.07-1.84.33-3.18 1.87-4.75 2.86a56.02 56.02 0 0 1-5.63 3.12 47.63 47.63 0 0 1-12.16 3.99c-4.26.75-8.86.94-12.39 3.45-2.12 1.5-3.61 3.7-5.02 5.86-.9 1.37-5.5 1.27-6.84 2.24-.83.59-.14 1.62.25 2.68h.7c2.05 0 4.08.05 6.13 0a8.07 8.07 0 0 0 3.88-.82c1.02-.57 1.86-1.4 2.84-2.02 1.75-1.09 3.87-1.05 5.89-.94 5.22-1.28 10.68-2.28 14.67-5.79 1.63-1.43 3.85-2.88 5.48-4.3a36 36 0 0 1 7.79-5.24c1-.51 2.23-1.12 3.07-1.88.78-.7.66-2.02 1.56-2.67.66-.47 1.7-.4 2.1-1.1a.97.97 0 0 0-.12-1.12Z"/><path fill="#2B2B37" d="m92.18 154.75 1.59.06c1.92.06 3.83-.38 5.57-1.23 2.49-1.22 5.09-2.25 7.8-3.03a46.63 46.63 0 0 1 10.8-1.58c3.7-.18 7.22-.7 10.76-1.72a103.38 103.38 0 0 0 5.18-1.68c1.47-.51 2.96-.98 4.39-1.6a29.48 29.48 0 0 0 6.68-4.1 36.56 36.56 0 0 0 9.75-12.01c2.7-6.98 1.68-13.87-2.87-18.67-3.15-3.31-6.89-4.06-10.77-3.41a8.75 8.75 0 0 1 3.88 7.1 12.8 12.8 0 0 1-2.64 7.99 24.06 24.06 0 0 1-6.61 5.87 43.94 43.94 0 0 1-8.08 3.96c-3.13 1.18-6.35 2.22-9.17 4.06-.72.47-1.42.99-2.06 1.56-.65.59-1.23 1.24-1.83 1.89-.91.97-1.85 2.08-3.13 2.54-1.3.48-2.5 1.1-3.78 1.64-.73.3-1.47.57-2.25.72-.76.13-1.53.15-2.3.18-2.32.09-4.63.35-6.92.74-.46.08-.94.17-1.41.1-.47-.06-.94-.3-1.15-.73-.28-.58.02-1.32.52-1.74.5-.43 1.14-.64 1.73-.9a9.21 9.21 0 0 0 2.48-1.62c.32-.3.62-.6.77-1.02.14-.41.07-.92-.28-1.18-.2-.15-.48-.2-.73-.22a5.03 5.03 0 0 0-3.06.74c-1.2.76-2.06 2.03-3.4 2.48-1.75.58-3.93-.4-5.37.75-.6.48-.92 1.24-1.15 1.98-.63 2.1-.27 4.3.13 6.4.36 1.94 1.28 3.92 3.02 4.87 1.18.68 2.57.77 3.9.81Z" opacity=".29"/><path fill="#2B2B37" d="m92.18 154.75 1.59.06c1.92.06 3.83-.38 5.57-1.23 2.49-1.22 5.09-2.25 7.8-3.03a46.63 46.63 0 0 1 10.8-1.58c3.7-.18 7.22-.7 10.76-1.72a103.38 103.38 0 0 0 5.18-1.68c1.47-.51 2.96-.98 4.39-1.6a29.48 29.48 0 0 0 6.68-4.1 36.56 36.56 0 0 0 9.75-12.01c2.7-6.98 1.68-13.87-2.87-18.67-1.9-2-4-3.05-6.22-3.45a22.21 22.21 0 0 1 1.82 1.73 14.78 14.78 0 0 1 3.81 7.4 8.07 8.07 0 0 1-.4 4.7c-.67 1.54-1.94 2.8-3.13 3.95-1.21 1.2-2.49 2.37-3.41 3.82-.47.75-.79 1.57-1.14 2.37-.35.8-.73 1.57-1.17 2.34a19.65 19.65 0 0 1-2.93 3.94 32.67 32.67 0 0 1-4.08 3.5c-2.91 2.18-6.2 3.93-9.86 4.3-2.18.23-4.4.03-6.57.51-2.05.47-3.92 1.4-5.7 2.48-1.7 1.03-3.33 2.12-5.14 2.92a14.83 14.83 0 0 1-5.56 1.33c-1.06.03-2.13-.05-3.19-.08-.99 0-2.02.06-3-.02-2.84-.21-3.88-3.3-4.36-5.66-.3-1.53-.73-3.2-2-4.1a3.28 3.28 0 0 0-2.74-.47c-.93.26-1.7.97-2.08 1.85a5.3 5.3 0 0 0-.31 2.05c-.03 3.07.76 7.73 3.78 9.38 1.2.64 2.58.73 3.93.77Z" opacity=".29"/><path fill="#2B2B37" d="M92.72 151.49c-.11-1.15-.45-2.28-.76-3.39a54.52 54.52 0 0 0-1.17-3.78c-.4-1.12-.81-2.25-1.39-3.28a3.25 3.25 0 0 0-2.52-.34c-.92.26-1.7.97-2.07 1.85a5.3 5.3 0 0 0-.32 2.05c-.02 3.07.77 7.73 3.79 9.38 1.06.57 2.29.7 3.5.75.87-.86 1.06-2.06.94-3.24Z" opacity=".29"/><path fill="#575770" d="M47.64 147.52c.17-.77.87-1.77 1.72-1.86-.88.09-1.67.14-2.33-.59a2.11 2.11 0 0 1-.5-1.66c.09-.65.5-1.24 1.03-1.62 1.6-1.14 3.14-.17 4.85-.45.74-.12 1.44-.43 2.15-.65 2.55-.84 5.15-.5 7.77-.47 2.37.03 4.75.2 7.09.54 2.14.31 4.3.75 6.45.58 3.95-.3 6.2-2.57 9.26-4.55 1.03.58 2.82 3.8 4.32 7.88.73 2 1.27 3.88 1.6 5.43-3.42 1.08-6.66 3.7-10.15 5-3.41 1.28-7.14 1.28-10.78 1.25-3.21-.02-6.46.08-9.66-.05-1.31-.06-2.7.08-3.98-.25-1.22-.3-2.48-.88-3.66-1.34a2.42 2.42 0 0 1-.87-.49c-.22-.22-.34-.51-.49-.8a4.62 4.62 0 0 0-1.22-1.46c-.27-.22-.57-.4-.78-.69-.17-.23-.27-.5-.43-.72-.23-.32-.54-.55-.8-.85a2.5 2.5 0 0 1-.59-2.18Z"/><path fill="#2B2B37" d="M89.44 144.67a52.64 52.64 0 0 0-.87-2.2c-.04-.12-.1-.23-.15-.34a58.24 58.24 0 0 0-.73-1.6l-.3-.58-.42-.8-.28-.47-.27-.43a8.6 8.6 0 0 0-.52-.72 4.57 4.57 0 0 0-.35-.4 2.04 2.04 0 0 0-.42-.34l-.46.3-.05.04c-2.81 1.9-5.02 3.93-8.77 4.22-2.15.17-4.3-.27-6.44-.57a53.12 53.12 0 0 0-7.1-.54c-2.6-.03-5.21-.38-7.76.46-.7.23-1.4.54-2.15.65-1.72.28-3.25-.7-4.85.45-.48.34-.86.85-1 1.42l-.02.2-.03.23a2.09 2.09 0 0 0 .53 1.43c.05.05.08.1.13.13l.12.1c.12.11.26.19.4.25a1.97 1.97 0 0 0 .57.13c.35.03.71 0 1.1-.03a1.42 1.42 0 0 0-.6.21c-.51.33-.92.95-1.08 1.49l-.03.15a2.56 2.56 0 0 0-.02.87 2.55 2.55 0 0 0 .74 1.47l.05.05.1.1.17.15s0 .02.02.02l.15.14.19.24c.16.22.26.5.43.72.21.28.52.47.79.69.5.4.92.9 1.21 1.46.15.29.27.58.49.8.23.24.55.38.87.49 1.18.46 2.44 1.02 3.66 1.34 1.28.33 2.66.2 3.98.25 3.21.13 6.45.03 9.66.05 3.64.03 7.38.03 10.79-1.25 3.47-1.3 6.73-3.92 10.14-5a43.29 43.29 0 0 0-1.62-5.43Zm-11.96 3.9c-.44 1.25-1.67 1.57-2.82 1.88a15.13 15.13 0 0 1-3.83.48c-1.04 0-2.06-.1-3.1-.27-1.06-.19-2.13-.44-3.21-.53-2.93-.26-4.54.86-7.47.62-10.05-.8 6.5-4.58 10.62-3.57 2.62.64 5.33-.45 8.02-.35.4.01.8.06 1.17.24.36.18.66.5.7.9a1.36 1.36 0 0 1-.08.6Z" opacity=".25"/><path fill="#2B2B37" d="M89.44 144.66a36.18 36.18 0 0 0-2.75-5.97l-.01-.01-.14-.23a8.97 8.97 0 0 0-.81-1.12c-.01-.01-.02-.04-.05-.05l-.15-.17a1.7 1.7 0 0 0-.42-.34l-.33.22-.18.12-.41.3-.04.02c-2.61 1.8-4.78 3.64-8.3 3.91-2.16.17-4.31-.27-6.45-.57a53.12 53.12 0 0 0-7.1-.55c-2.6-.02-5.21-.37-7.76.47-.71.23-1.41.54-2.15.65-1.72.28-3.25-.7-4.85.45a2.5 2.5 0 0 0-.72.78c.21.18.47.32.74.42 1.83.63 3.88-.35 5.74-.39 1.67-.03 3.34.3 4.95.71 1.74.45 3.47.76 5.27.8 1.78.02 3.56 0 5.35.06 1.73.06 3.47.04 5.2-.1 4.96-.4 13.27-4.75 10.3 3.63a5.3 5.3 0 0 1-1.1 1.86c-.57.6-1.3 1.03-2.03 1.43a18.27 18.27 0 0 1-4.97 1.86c-3.72.81-7.52.47-11.3.4-2.04-.05-4.1-.04-6.15-.19a10.12 10.12 0 0 1-4.73-1.37c-.72-.46-1.28-1.1-1.94-1.61-.76-.58-1.71-.71-2.51-1.2a7.67 7.67 0 0 1-1.66-1.42 5.88 5.88 0 0 1-.25-.3 2.3 2.3 0 0 0-.1.33 2.55 2.55 0 0 0 .57 2.2c.26.3.6.52.8.85.16.22.26.5.43.72.22.28.52.47.8.69.5.4.92.9 1.21 1.46.15.28.27.58.48.8.24.24.56.37.87.49 1.19.46 2.45 1.02 3.67 1.34 1.28.33 2.66.19 3.97.25 3.22.13 6.45.03 9.66.05 3.64.03 7.39.03 10.8-1.25 3.46-1.3 6.72-3.92 10.14-5-.3-1.54-.86-3.42-1.6-5.42Z" opacity=".25"/><path fill="#2B2B37" d="M56.12 142.08c1.53.49 3.06.66 4.66.7 1.77.04 3.56 0 5.3-.32 1.72-.32 3.37-.95 5.08-1.36a.69.69 0 0 1 .33 0h.03l-2.11-.32a53.28 53.28 0 0 0-7.1-.54c-2.6-.03-5.21-.38-7.76.46l-1.11.38c.88.42 1.83.73 2.68 1Zm25.69-3.02c1.09.17 2.2.22 3.3.25a28.18 28.18 0 0 0 1.95.01l-.36-.63-.01-.01-.14-.23a8.97 8.97 0 0 0-.8-1.12l-.05-.05-.16-.17a1.7 1.7 0 0 0-.42-.34l-.33.22-.18.12-.41.3-.04.02c-.8.56-1.58 1.13-2.35 1.63Z" opacity=".74"/><path fill="#2B2B37" d="M82.19 154.19a20.75 20.75 0 0 0 3.36-5.85c.87-2.28 1.52-4.7 1.36-7.16a11.41 11.41 0 0 0-.64-3.12l-.01-.02c.97 1.4 2.14 3.82 3.17 6.64.73 2 1.27 3.89 1.6 5.43-3.15 1-6.16 3.3-9.34 4.68l.5-.6Z" opacity=".25"/><path fill="#464558" d="M28.65 132.42c2.75 1.86 6.3 2.28 9.5 2.89 3.37.64 6.63 1.54 9.82 2.8 3.1 1.23 6.14 2.77 9.42 3.45 3.42.71 6.94.17 10.3-.6 1.67-.4 3.34-.88 5.02-1.27 1.75-.39 3.53-.62 5.31-.76 3.65-.3 7.33-.26 10.96-.78 2-.28 4.4-.79 6.53-1.7a3.65 3.65 0 0 0 2.21-3.56v-.03c-.12-1.97-.67-3.9-.8-5.87-.09-1.33.03-2.67-.2-3.98-.15-.89-.28-1.52-.46-2H93.8l-.08-1.95c-.35-.15-.66-.26-1.11-.47-11.7-5.34-6.42-4.73-19.06-6.04-7.88-.81-15.85-1.64-23.27-4.42-9.06-3.38-21.47-7.35-26.86 2.23-4.49 7.97-2.2 14.92 3.46 20.62.56.54 1.15 1.03 1.77 1.44Z"/><path fill="#2B2B37" d="M28.65 132.42c2.75 1.86 6.3 2.28 9.5 2.89 3.37.64 6.63 1.54 9.82 2.8 3.1 1.23 6.14 2.77 9.42 3.45 3.42.71 6.94.17 10.3-.6 1.67-.4 3.34-.88 5.02-1.27a38.4 38.4 0 0 1 5.31-.76c3.65-.3 7.33-.26 10.96-.78 2-.28 4.4-.79 6.53-1.7a3.65 3.65 0 0 0 2.21-3.56v-.03c-.12-1.97-.67-3.9-.8-5.87-.09-1.33.03-2.67-.2-3.98-.34-2-.83-2.78-1.81-3.37v.59h-1.19v-1.18c-.5-.2-1.1-.45-1.8-.76-7.76-3.54-7.92-4.29-10.63-4.83l-2.53 1.24c-1.94.94-3.93 1.9-6.06 2.34-2.05.41-4.14.31-6.2.14-1.07-.09-2.13-.19-3.2-.23a29 29 0 0 0-3.27.04 22.74 22.74 0 0 1-5.74-.34c-1.92-.36-3.79-1-5.48-2a11.7 11.7 0 0 1-2.3-1.68c-4.99-4.97-5.42-7.82-13.41-8.53a12.36 12.36 0 0 1 1.04 4.98c0 1.38-.17 2.8-.67 4.1a8.14 8.14 0 0 1-4.4 4.58 9.26 9.26 0 0 1-6.24.33 9.37 9.37 0 0 1-1.74-.72c-.33 4.97 1.97 9.43 5.83 13.3.54.52 1.12 1 1.73 1.41Z" opacity=".29"/><path fill="#2B2B37" d="M28.65 132.42c2.75 1.86 6.3 2.28 9.5 2.89 3.37.64 6.63 1.54 9.82 2.8 3.1 1.23 6.14 2.77 9.42 3.45 3.42.71 6.94.17 10.3-.6 1.67-.4 3.34-.88 5.02-1.27 1.75-.39 3.53-.62 5.31-.76 3.65-.3 7.33-.26 10.96-.78 2-.28 4.4-.79 6.53-1.7a3.65 3.65 0 0 0 2.21-3.56v-.03c-.12-1.97-.67-3.9-.8-5.87-.03-.44-.03-.87-.04-1.3a35.1 35.1 0 0 0-9.9-.04c-1.96.22-3.91.53-5.83.96-2.01.46-4 1.05-5.98 1.65-3.97 1.23-7.97 2.6-12.1 3.17-3.88.53-7.74-.02-11.44-1.15a76.46 76.46 0 0 1-5.57-2c-1.76-.7-3.54-1.35-5.24-2.17-3.22-1.55-6.3-3.6-9.8-4.45-2.76-.68-6.14-.34-7.94 2.12a5.33 5.33 0 0 0-.6 1.07 22.07 22.07 0 0 0 4.44 6.16c.54.52 1.12 1 1.73 1.41ZM90.2 120.6c-.67-.36-1.55-.43-2.17.02a.86.86 0 0 0-.35.47c-.1.41.26.76.6 1 .36.25.76.48 1.21.5.36 0 .71-.12 1.06-.19.44-.09 1.26.1 1.09-.55-.14-.46-1.04-1.04-1.44-1.25Z" opacity=".29"/><path fill="#464558" d="M131.4 111.37c-.5-.6-1.6-1.16-2.39-.85.83-.34 1.55-.64 1.79-1.6a2.08 2.08 0 0 0-.33-1.7 2.44 2.44 0 0 0-1.67-.96c-1.95-.27-2.85 1.32-4.5 1.86-.72.24-1.47.3-2.22.42-2.64.44-4.79 1.96-7.09 3.2a54.5 54.5 0 0 0-6.02 3.78c-1.74 1.26-3.45 2.65-5.44 3.5-3.64 1.57-6.69.61-10.33.28-.64 1-.72 4.68-.14 8.99.28 2.12.67 4.03 1.11 5.54 3.53-.63 7.62.17 11.3-.29 3.63-.45 6.93-2.2 10.14-3.91 2.84-1.51 5.75-2.93 8.53-4.54 1.14-.67 2.42-1.19 3.4-2.08.94-.83 1.79-1.93 2.62-2.88.23-.25.44-.52.54-.84.1-.3.06-.62.06-.93 0-.65.14-1.29.4-1.88.14-.31.31-.63.37-.96.04-.28 0-.57.04-.84.05-.38.23-.74.32-1.11.2-.76 0-1.6-.5-2.2Z"/><path fill="#575770" d="M131.4 111.37c-.5-.6-1.6-1.16-2.39-.85.83-.34 1.55-.64 1.79-1.6a2.08 2.08 0 0 0-.33-1.7 2.44 2.44 0 0 0-1.67-.96c-1.95-.27-2.85 1.32-4.5 1.86-.72.24-1.47.3-2.22.42-2.64.44-4.79 1.96-7.09 3.2a54.5 54.5 0 0 0-6.02 3.78c-1.74 1.26-3.45 2.65-5.44 3.5-3.64 1.57-6.69.61-10.33.28-.64 1-.72 4.68-.14 8.99.28 2.12.67 4.03 1.11 5.54 3.53-.63 7.62.17 11.3-.29 3.63-.45 6.93-2.2 10.14-3.91 2.84-1.51 5.75-2.93 8.53-4.54 1.14-.67 2.42-1.19 3.4-2.08.94-.83 1.79-1.93 2.62-2.88.23-.25.44-.52.54-.84.1-.3.06-.62.06-.93 0-.65.14-1.29.4-1.88.14-.31.31-.63.37-.96.04-.28 0-.57.04-.84.05-.38.23-.74.32-1.11.2-.76 0-1.6-.5-2.2Z"/><path fill="#A4A4A4" d="M117.09 112.09c1-.6 1.93-1.3 2.88-1.96.82-.55 1.62-1.12 2.44-1.64l-.33.06c-2.64.44-4.79 1.96-7.09 3.2-.4.21-.81.44-1.22.68.04 1.27 2.87-.07 3.32-.34Z" opacity=".21"/><path fill="#2B2B37" d="M131.4 111.37c-.5-.6-1.6-1.16-2.39-.85.83-.34 1.55-.64 1.79-1.6a2.08 2.08 0 0 0-.33-1.7 3.55 3.55 0 0 0-.17-.22c-.1.37-.33.7-.6.97-.91.88-2.52 1.22-2.9 2.55-.27.97.1 2.03.34 2.97.23.9.36 1.84.08 2.76-.48 1.55-2.23 2.47-3.63 3.06-1.95.84-4.11 1.05-5.92 2.21-.9.59-1.74 1.31-2.6 1.98a18.7 18.7 0 0 1-2.6 1.68 14.7 14.7 0 0 1-5.63 1.66c-2.03.16-4.03-.17-5.95-.8a9.31 9.31 0 0 1-4.55-2.94c-.8-1.02-1.87-2.3-1.97-3.67-.38-.05-.76-.1-1.16-.13-.64 1-.72 4.68-.14 8.99.28 2.12.67 4.03 1.11 5.54 3.53-.63 7.62.17 11.31-.29 3.62-.45 6.92-2.2 10.13-3.91 2.84-1.51 5.75-2.93 8.54-4.54 1.13-.67 2.4-1.19 3.4-2.08.94-.83 1.78-1.93 2.61-2.88.23-.25.44-.52.55-.84.09-.3.05-.62.05-.93 0-.65.14-1.29.4-1.88.14-.31.31-.63.37-.96.04-.28.01-.57.04-.84.05-.38.23-.74.32-1.11a2.53 2.53 0 0 0-.5-2.2Z" opacity=".25"/><path fill="#2B2B37" d="M103.91 133.36c-2.1-.9-3.98-2.1-5.7-3.62-1.82-1.61-3.52-3.46-4.53-5.7a11.54 11.54 0 0 1-.9-3.07v-.02c-.2 1.7-.1 4.37.29 7.35.28 2.12.67 4.03 1.11 5.54 3.25-.58 7 .06 10.44-.2-.25-.09-.47-.2-.7-.28Z" opacity=".25"/><path fill="#575770" d="M111.36 56.74a7.46 7.46 0 0 0-.62-1.32c-1.6-2.8-1.24-7.7-1.24-7.7s-.52-.34-3.52-1.18c-2.69-.75-13.67-4.27-15.19-4.37 0 0-1.07 3.69-4.13 4.6l-.58.34c-3.07-.92-3.46-4.94-3.46-4.94-1.52.1-12.5 3.63-15.2 4.37-2.39.67-3.2 1.03-3.43 1.14.41 2.37.21 4.8-.23 7.17-.42 2.29-1.07 4.52-1.49 6.8-.54 3.02-.15 4.67.2 6.04a189.93 189.93 0 0 0 1.34 4.67c1.65 5.87 2.06 12.03 2.24 18.1.09 2.96.12 5.92.22 8.87.06 1.62.17 3.25.25 4.87 1.13.13 2.93.13 3.14.37.63.71 3.99 3.68 15.96 3.84.37 0 .73 0 1.09-.02l1.1.02c11.96-.18 15.32-3.14 15.96-3.84.3-.34 3.92-.2 4.04-.66l.44-1.62a64.37 64.37 0 0 1-.18-4.44c-.01-6.6.59-13.14.9-19.71.16-3.2.28-6.46 1.32-9.52.49-1.44 1.1-2.83 1.75-4.2l.05-.3c.5-2.81.17-5.26-.73-7.38Z"/><path fill="#2B2B37" d="M63.47 68.07a15.99 15.99 0 0 1-1.31-1.71c.09.48.2.91.3 1.3a190.39 190.39 0 0 0 1.32 4.67 56.86 56.86 0 0 1 1.75 9.73c1.13-2.2 2.33-4.43 2.42-6.89.14-3.1-2.63-5-4.48-7.1Zm47.9-11.33a7.46 7.46 0 0 0-.63-1.32c-1.6-2.8-1.24-7.7-1.24-7.7s-.4-.26-2.57-.9c.7 20.26-12.62 47.72-40.78 48.42l.11 4.08c.06 1.62.17 3.24.25 4.87 1.13.13 2.93.13 3.13.37.63.7 4 3.67 15.96 3.84h.58l.52-.02h.2l1.08.02c11.82-.2 15.14-3.14 15.77-3.84.12-.13.7-.18 1.39-.24a76.05 76.05 0 0 0 3.03-1.94l.05-.03c0-.02 0-.06.02-.08a64.36 64.36 0 0 1-.18-4.44c-.01-6.6.59-13.14.9-19.71.16-3.2.28-6.46 1.32-9.52a40.5 40.5 0 0 1 1.75-4.2l.05-.3c.51-2.8.18-5.24-.72-7.36Z" opacity=".25"/><path fill="#2B2B37" d="M111.36 56.74a7.46 7.46 0 0 0-.62-1.32c-1.6-2.8-1.24-7.7-1.24-7.7s-.28-.19-1.64-.61c2.68 20.88-3.2 51.07-41.69 49.64l.08 2.57c.06 1.62.17 3.24.25 4.87 1.13.13 2.93.13 3.13.37.64.7 4 3.67 15.96 3.84h.58l.52-.02h.19l1.1.02c11.8-.2 15.13-3.14 15.76-3.84.12-.13.7-.18 1.39-.24a76.78 76.78 0 0 0 3.03-1.94l.05-.03c0-.02 0-.06.02-.08a65 65 0 0 1-.18-4.44c-.01-6.6.59-13.14.9-19.71.16-3.2.28-6.46 1.32-9.52a40.5 40.5 0 0 1 1.75-4.2l.05-.3c.52-2.8.2-5.24-.7-7.36Z" opacity=".25"/><path fill="#2B2B37" d="M109.07 76.08c-.29.5-.6.98-.89 1.47-1.43 2.38-2.86 4.9-2.97 7.76-.1 2.62.7 5.23.03 7.82-1.04 3.98-4.6 6.64-7.89 8.76-1.69 1.1-3.44 2.1-5.12 3.21a56.66 56.66 0 0 1-5.6 3.28h.26l1.1.02c11.8-.2 15.13-3.14 15.76-3.84.12-.13.7-.18 1.39-.24a76.78 76.78 0 0 0 3.03-1.94l.05-.03c0-.02 0-.06.02-.08a65 65 0 0 1-.18-4.44c-.01-6.6.59-13.14.9-19.71.05-.68.08-1.36.11-2.05Z" opacity=".25"/><path fill="#575770" d="M88.5 56.04c-.36-.44-.87-.8-1.3-1.17l-1.6-1.32a53.46 53.46 0 0 1-3.06-2.7 17.95 17.95 0 0 1-3.77-4.88c-.66.17-1.36.4-2.08.65a64 64 0 0 0 3.8 6.47c.67 1 1.35 1.97 2.1 2.9a11.4 11.4 0 0 0 2.53 2.41c.4.26.86.45 1.3.53l.1-.37c.02-.1.16-.06.13.03l-.07.35c.53.07 1.08 0 1.59-.27 1.04-.55 1.02-1.8.33-2.63Z"/><path fill="#2B2B37" d="M98.58 44.37c-.45.86-1.77 4.19-2.32 5-.68 1.02-1.45 1.94-2.16 2.92-.62.86-1.21 1.72-1.88 2.56-.67.86-1.4 1.69-2.29 2.34-.26.2-.54.36-.83.5-.18.77-.91 1.23-1.69 1.36a2.96 2.96 0 0 1-.9.03c-.92 3.82-2.92 7.29-5.09 10.54-2.01 3.03-4.24 5.94-6.28 8.96a36.85 36.85 0 0 0-4.84 9.75 66.49 66.49 0 0 0-1.43 5.9c-.45 2.12-.86 4.24-1.27 6.36a45.43 45.43 0 0 0-.58 3.65c1.1.1 2.41.13 2.6.32.16.2.52.54 1.17.95.03-1.28.17-2.54.43-3.8 4.5-21.33 33.36-55.01 27.36-57.34Z" opacity=".25"/><path fill="#2B2B37" d="M105.97 46.54c-2.08-.58-9.13-2.82-12.91-3.85-1.82 2.66-4.57 3.66-6.4 4.07-3.22-.71-5.4-1.22-5.4-1.22-1.54.11-3.45.6-5.5 1.44 1.18 1.84 3.34 3.12 5.3 3.96 1.48.62 3.02 1.1 4.6 1.39 1.4.25 2.8.53 4.23.67 1.39.14 2.75.05 4.14-.09 3.94-.38 15.75-.13 15.79-.2-.5-2.45-.3-4.98-.3-4.98s-.55-.35-3.55-1.19Zm2.09 51.3v-.03c-9.02 2.12-27.91 3.65-41.84.52l.03.98c.06 1.62.17 3.24.25 4.87 1.13.13 2.93.13 3.13.37.63.7 4 3.67 15.96 3.84l.58-.01.52-.01h.19l1.1.02c11.8-.2 15.13-3.14 15.76-3.84.12-.13.7-.18 1.39-.24a76.8 76.8 0 0 0 3.03-1.94l.05-.03c0-.02 0-.06.02-.08a63.43 63.43 0 0 1-.17-4.42Z" opacity=".25"/><path fill="#2B2B37" d="M85.4 60.2C73.4 66.04 67.55 87.84 66.18 96.83l.08 2.49c.04.9.08 1.81.14 2.71.35.62.85 1.09 1.55 1.1.98 0 1.68-.93 2.16-1.8 3.2-5.85 3.87-12.73 6.3-18.93a53.18 53.18 0 0 1 4.91-9.22c1.29-2 2.98-3.85 3.6-6.18.24-.91 2.65-7.85.48-6.8Zm-6.63-12.4s.55 2.8 2.8 5.53c2.26 2.73 4.94 5.23 4.94 5.23l3.42-1.35s-3.25-1.9-6.05-4.5c-2.78-2.58-5.1-4.9-5.1-4.9Z" opacity=".25"/><path fill="#2B2B37" d="M85.88 62.94c.4-.42.84-.83 1.26-1.24a69.62 69.62 0 0 0 2.96-3.07c-8.78-5.46-9.61-7.78-14.99-16.35-.07-.1.53 11.7 10.77 20.66Z"/><path fill="#21212B" d="M86.54 56.28a9.09 9.09 0 0 1-.69 1.5 12.24 12.24 0 0 1-2.27 2.93c.7.76 1.47 1.51 2.3 2.23.41-.42.85-.83 1.27-1.24a69.56 69.56 0 0 0 2.96-3.07 62.25 62.25 0 0 1-3.57-2.35Z"/><path fill="#2B2B37" d="M97.9 43.47c-1.28 4.84-29.54 30.2-31.67 54.77l.03 1.07c.06 1.7.18 3.41.26 5.13h3.2a15.22 15.22 0 0 1 .98-5.67c2.86-7.44 13.77-27.85 17.06-32.41C98.83 51 99.66 43.46 97.9 43.46Z"/><path fill="#21212B" d="M70.84 98.37c-.38.06-.77.08-1.14.06a14.16 14.16 0 0 1-3.43-.72l-.05.57.03 1.03c.06 1.7.18 3.41.26 5.13h3.2a15.23 15.23 0 0 1 .98-5.67l.15-.4Z"/><path fill="#2B2B37" d="M108.07 98.69c-14.22 3.78-26.6 4.11-41.83.15l.01.48c.07 1.79.2 3.58.27 5.39 10.4 6.1 32.35 5.9 41.87-.77a58.3 58.3 0 0 1-.32-5.25Z"/><path fill="#21212B" d="M108.07 98.69a83.19 83.19 0 0 1-19.23 2.96c.03.06.07.11.12.17.48.53 1.23.72 1.68 1.29.4.5.16 1.02-.37 1.3-.4.18-1.57.59-1.02 1.19.29.32.7.55.7 1.03.03.71-.65 1.18-1.2 1.47-.76.4-1.61.75-2.42 1.01 8.46.08 17.02-1.63 22.06-5.17a58.3 58.3 0 0 1-.32-5.25Z" opacity=".46"/><path fill="#21212B" d="M100.3 100.77c.23.49.14 1.04-.1 1.5-.13.24-.32.44-.44.69-.24.52.04.83.34 1.26.34.47.5.93.25 1.49-.12.3-.36.52-.54.77-.3.4-.34.77-.4 1.22 3.51-.85 6.62-2.1 8.98-3.76a62.63 62.63 0 0 1-.32-5.25 95.95 95.95 0 0 1-7.96 1.78c.07.09.14.19.2.3Z"/><path fill="#2B2B37" d="M83.76 63.02a41.83 41.83 0 0 0-7 10.7c-.14.3-.26.6-.25.91.01.32.24.66.55.69.22.02.42-.08.6-.2 1.4-.9 2.24-2.42 2.94-3.92.46-.99.88-1.99 1.44-2.93.57-.93 1.37-1.6 2.01-2.48.43-.57.54-1.07.63-1.77.1-.7.05-2.08-.92-1Z"/><path fill="#464557" d="M74.48 78.58c-.17.38-.23.98.18 1.07.23.04.44-.13.61-.28l1.08-1.03-.14 1.2c.29.1.58-.13.8-.34 2.81-2.78 4.44-6.52 6.88-9.63.67-.84 1.41-1.68 1.68-2.72.1-.4.1-.9-.22-1.17-.48-.38-1.18.04-1.62.47a8.1 8.1 0 0 0-1.5 1.89c-.22.43-.33 1.12-1 .85.08-1.1-1.7.84-1.87 1.06-.52.71-.95 1.47-1.43 2.2a44.55 44.55 0 0 0-3.45 6.43Zm5.32-24.74c.82 1.16 1.25-.24.91-1.05a5 5 0 0 0-1.36-1.92c-.42-.35-.81-.53-.97.1-.25.96.93 2.17 1.42 2.87Zm13.5-1.82c.62-.77-.4-.8-.87-.42-.41.32-.83.8-1.03 1.28-.16.35-.2.64.25.63.67-.01 1.27-1.03 1.64-1.49Zm-4.91 3.81a221.92 221.92 0 0 0-3.89 4.86c.1.22.34.34.81.28 1.54-.2 2.6-2.6 3.33-3.72.62-.96.31-1.38-.25-1.42Zm-12.9 47.55a2.24 2.24 0 0 0-1.32-.76c-.51-.11-1.04-.11-1.56-.2a6.52 6.52 0 0 1-2.15-.86c-.44-.22-1.45-1-1.92-.58-.14.12-.23.29-.32.45-.04.09-.1.2-.06.3.02.11.13.2.23.25.68.4.87.5 1.28 1.2.43.74 1.3 1.1 2.1 1.37.65.2 1.3.37 1.96.52.62.13 1.36.22 1.79-.25.34-.38.28-1.03-.02-1.44Zm11.93-1.7a73.3 73.3 0 0 1-9.34-.55c.38.16.66.36 1.11.83.81.8 2.04 1 3.18 1.07.9.05 1.8.05 2.7.02.84-.02 1.83-.17 2.22-.93.08-.14.12-.29.13-.45Z" opacity=".25"/><path fill="#21212B" d="M97.32 43.93c-.15.47-.3.89-.52.94-1.23.38-2.46.74-3.7 1.1-3.19.97-6.5 1.94-9.8 1.6a20.13 20.13 0 0 1-6.43-1.96c-.57-.27-1.8-1.16-2.48-1.03-1.01.2.18 1.46.45 1.85.33.48.45 1.07.69 1.6.2.44.34.94.95.83.1 0 .19-.04.29-.06.18-.03.35 0 .53.04 3 .64 1.93.4 2.7 1.02.2.17.32-.03.59 0a16.68 16.68 0 0 0 1.5.04c.69-.02 1.39-.1 2.07-.02 1.05.13 2 .65 3.02.93 1.02.29 2.08.32 3.13.25a18.78 18.78 0 0 0 1.6-.18c.22-.03.48-.02.68-.1.22-.07.38-.24.56-.35.4-.26.89-.34 1.37-.4.53-.08 1.06-.15 1.6-.2.3-.04.63-.06.86.14.05.04.09.11.16.16.32.23.92-.01 1.26-.08.52-.11 1.06-.18 1.59-.22.4-.02.8-.02 1.2-.1.39-.1.77-.28 1-.6.26-.33.32-.8.21-1.2a2.23 2.23 0 0 0-.67-1.05c-.24-.2-.5-.37-.7-.63a.84.84 0 0 1-.16-.64c0-.06.3-.52.3-.52l-3.85-1.16Z" opacity=".34"/><path fill="#75A152" d="M75.94 36.1s-1.26 1.1-1.5 2.15 1.14 2.67 1.14 2.67l1.9-1.07-1.54-3.76Z"/><path fill="#568040" d="M98.04 36.44s1.25 1.78.8 4.07a3.73 3.73 0 0 1-2.48 2.84l-.69-.97 2.37-5.94Z"/><path fill="#21212B" d="M86.93 46.42c3.88-.05 7.01-1.74 6.99-3.8-.02-2.04-3.2-3.66-7.08-3.62-3.88.04-7.01 1.74-6.99 3.79.03 2.04 3.2 3.67 7.08 3.63Z"/><path fill="#2B2B37" d="M75.02 27.6a24.27 24.27 0 0 0-.12 1.8c-.04.94-.05 1.88.04 2.82.36 3.56 2.3 6.8 4.7 9.45a32.75 32.75 0 0 1-1.1-6.16c-.1-1.24-.15-2.5.04-3.73.29-1.82 1.05-3.53 1.4-5.34.18-.93.25-1.88.3-2.83l.2-2.9c.09-1.16-.56-2.17-1.6-1.14-.71.7-1.33 1.53-1.87 2.39a13.9 13.9 0 0 0-1.99 5.64Zm22.73-.24c.08.6.12 1.2.15 1.8.06.94.1 1.87.03 2.8-.27 3.58-2.15 6.86-4.5 9.57.53-2.03.84-4.1.98-6.2.08-1.24.09-2.5-.14-3.73-.32-1.8-1.12-3.5-1.5-5.3-.21-.93-.29-1.87-.38-2.82l-.26-2.9c-.1-1.17.52-2.18 1.58-1.18.73.7 1.37 1.5 1.93 2.34a13.66 13.66 0 0 1 2.1 5.62Z"/><path fill="#D58500" d="M99.09 26.14a1.57 1.57 0 0 0-.69-1.06c-.53-.31-1-.3-1.38-.07-1.04-6.08-5.38-10.63-10.51-10.57-5.13.06-9.37 4.7-10.28 10.81-.4-.23-.85-.23-1.38.1-.37.23-.58.66-.66 1.08-.08.43-.04.87.03 1.3a28.36 28.36 0 0 0 1.04 4.63c.09.28.18.55.35.8.31.45.89.71 1.43.66l.16-.03c1.78 4.41 5.42 7.4 9.6 7.36 4.18-.04 7.76-3.13 9.43-7.57l.16.02a1.58 1.58 0 0 0 1.42-.69c.16-.24.25-.53.33-.8.44-1.52.76-3.07.94-4.65a4 4 0 0 0 0-1.32Z"/><path fill="#B45F00" d="M93.08 19.42c.74.22 1.5.45 2.23.71-1.95-3.48-5.19-5.74-8.81-5.7-5.13.05-9.37 4.7-10.28 10.8-.4-.22-.85-.22-1.38.1-.37.24-.59.66-.66 1.1-.08.42-.04.86.03 1.29.12.96.3 1.9.54 2.84a13.3 13.3 0 0 1 2-.81c.48-8.29 6-13.36 16.33-10.33Zm-7 8.5s4.83-.42 8.44.44 4 .98 4 .98l-.83 2.27-11.61-3.69Z"/><path fill="#B45F00" d="M99.09 26.14a1.58 1.58 0 0 0-.69-1.06c-.53-.31-1-.3-1.38-.07a15.16 15.16 0 0 0-.99-3.41.69.69 0 0 1-.05-.14c-.14-.3-.27-.6-.42-.89l-.08-.16a1.32 1.32 0 0 0-.12-.21l-.1-.17-.13-.2-.1-.17-.12-.2-.12-.17c-.04-.07-.09-.13-.12-.2l-.13-.16-.13-.18a1.6 1.6 0 0 1-.12-.17l-.14-.17-.13-.17-.14-.16-.16-.18-.12-.14-.28-.29-.08-.08a3.94 3.94 0 0 0-.23-.21l-.11-.1-.2-.18a.59.59 0 0 1-.12-.12l-.19-.15-.13-.1a2.18 2.18 0 0 0-.2-.15l-.13-.1-.2-.15-.14-.09-.21-.14-.13-.07-.23-.14-.12-.07-.27-.14-.08-.05a8.82 8.82 0 0 0-.74-.34l-.06-.02-.31-.11-.1-.04-.28-.09c-.05 0-.08-.02-.13-.03l-.27-.07a1.73 1.73 0 0 1-.12-.03l-.26-.06h-.07.01a9.38 9.38 0 0 0-1.7-.17c-5.13.06-9.37 4.7-10.28 10.81-.4-.22-.85-.22-1.38.1-.37.23-.58.66-.66 1.09-.08.42-.03.86.03 1.3.13.95.3 1.9.54 2.83a6.2 6.2 0 0 1 .74-.35 18.47 18.47 0 0 1 3.24-.95v-.1c-.65-18.13 28.69-7.8 12.03 5.15-1.15.89-2.57 1.4-3.91 1.9-1.64.61-3.42 1.16-5.18 1.22-.85.02-1.69-.1-2.52-.26 1.96 2.49 4.68 4.02 7.68 3.99 4.18-.05 7.75-3.13 9.43-7.58.06.02.1.03.16.03a1.58 1.58 0 0 0 1.42-.69c.16-.25.25-.53.33-.8.44-1.52.75-3.08.93-4.66.01-.5.06-.94-.03-1.36Z" opacity=".36"/><path fill="#B45F00" d="M99.09 26.14a1.57 1.57 0 0 0-.7-1.06c-.52-.31-.18-.98-.57-.75a6.08 6.08 0 0 0-2.05-3.3l-1.35-.26c2.94 3.22 3.45 8.33.88 11.56-.87 1.1-1.1.56-2.41 1.02-.48.17-.97.27-1.46.38-.21.2-.44.38-.66.56a15.3 15.3 0 0 1-3.91 1.9c-1.64.61-3.42 1.17-5.18 1.22-.85.02-1.69-.09-2.52-.26 1.96 2.5 4.68 4.03 7.67 4 4.19-.05 7.76-3.14 9.44-7.58l.16.02a1.58 1.58 0 0 0 1.42-.69c.15-.24.24-.53.32-.8.44-1.52.76-3.07.94-4.65.02-.45.07-.9-.02-1.31Z"/><path fill="#B45F00" d="M90.42 27.93c-.13-.08-.26-.12-.36-.22a.52.52 0 0 1-.13-.34c.03-.3.2-.26.2-.88 0-.86-.47-1.88-.13-2.84h-.81c-.02.04-.12 0-.16.07-.27.57-1.27 1.06-1.3 6.03 0 .18.93.21 1 .38.06.16.16.3.27.42.3.32.69.6 1.14.62.44.02.91-.24 1.03-.67.05-.16.04-.31.03-.47a6.44 6.44 0 0 0-.78-2.1Zm-8.35-1.13h-.24c-.12-.02-.27-.02-.38-.05-.05-.01-.1-.04-.17-.05-.49-.08-.97-.19-1.45-.28a.26.26 0 0 1-.1-.06c0 .02 0 .03-.02.04-.01 1.1 2.64 2.14 3.92.3a4.58 4.58 0 0 1-1.56.1Z" opacity=".36"/><path fill="#B45F00" d="M89.74 26.48c.5.08.78.2 1.3.23.16.02.47.03.63 0 .12-.02.27-.02.38-.05l.87-.28c.16-.06.34-.4.35-.14.02 1.12-2.24 2.28-3.53.24Z" opacity=".36"/><path fill="#323147" d="M82.07 27.09c-1.89-.1-2.69-.7-2.7-.7-.08-.07-.1-.18-.03-.26.07-.08.18-.1.26-.04 0 0 .74.55 2.47.62.24 0 .93-.03 1.64-.28a.19.19 0 0 1 .24.12.19.19 0 0 1-.11.23 5.5 5.5 0 0 1-1.77.3Zm9.44-.1c-.53 0-1.07-.1-1.63-.27a.19.19 0 0 1-.13-.24.19.19 0 0 1 .24-.13c.54.17 1.06.26 1.57.25a3.15 3.15 0 0 0 1.88-.55.19.19 0 0 1 .27.03.19.19 0 0 1-.03.27c-.08.07-.82.62-2.12.65l-.05-.01Z"/><path fill="#B45F00" d="M74.86 29.68c2.38-.8 4.84-1.47 7.3-1.85 1.09-.17 2.08.2 2.54-1.1.08-.2.1-.44.2-.66.1-.21.3-.4.53-.4.24.02.42.25.51.5.1.22.13.45.16.7.06.42.1.86.04 1.28-.22 1.21-1.25 1.65-2.24 2.14-1.24.6-2.51 1.14-3.78 1.66a85.04 85.04 0 0 1-4 1.5l-1.26-3.77Z" opacity=".36"/><path fill="#E2A040" d="M83.88 20.88c0 .1.05.22.1.32.17.28.46.48.76.6.08.03.17.06.24.04.8-.08-.18-1.05-.46-1.18-.24-.11-.62-.18-.64.22Zm-3.43 4.94c.13-.1.47-.02.59.06.15.09.34.16.3.36-.03.2-.26.24-.44.18-.12-.04-.46-.21-.5-.36-.01-.11 0-.2.05-.24Zm10.51.26c.07-.15.4-.22.55-.21.17.01.37 0 .43.2.06.18-.14.33-.32.35-.13.02-.5 0-.6-.11-.07-.1-.08-.17-.06-.23Zm-11.25 1.58a.48.48 0 0 0 .4-.19c.04-.06.07-.11.07-.18a.21.21 0 0 0-.02-.09c-.1-.24-.48-.28-.69-.14-.27.18-.04.59.24.6Z" opacity=".36"/><path fill="#21212B" d="M79.34 38.75a7.38 7.38 0 0 0-1.64-.32c0 .09 1.22 3.1 1.31 3.23.1.13 2.38 1.73 2.38 1.73s1.45-1.16 1.45-1.25c0-.1-.18-1.04-.18-1.04l-3.32-2.35Z"/><path fill="#464558" d="M97.59 36.8c.75-1.69 1.27-7 1.27-7-12.33-2.78-12.1-2.78-24.36.26 0 0 .2 1.55.49 3.23.25.41.53.83.75 1.23l1.27 2.2c.36.66.73 1.3 1.13 1.92l.13.14c1.21 1.31 2.98 2.14 4.6 2.87.55.25 1.11.44 1.66.56 1.76.03 3.58 0 5.31-.08 1.82-.29 3.63-.7 5.3-1.5.66-.33 1.25.58.73.99.86-.14 1.57-.28 2.1-.47l-.02-1.84c-.54-.64-.88-1.35-.36-2.5Z"/><path fill="#323147" d="M97.59 36.8c.75-1.69 1.27-7 1.27-7-5.77-1.3-8.79-2-11.62-2.06-.11.4-.25.79-.4 1.17-.4.95-.96 1.87-1.82 2.54a5.94 5.94 0 0 1-3.64 1.2c-1.93-.02-2.76-1.7-2.77-3.6l-4.1 1.01s.18 1.55.48 3.23c.25.41.53.83.75 1.23l1.27 2.2c.36.66.73 1.3 1.13 1.92l.13.14c1.21 1.31 2.98 2.14 4.6 2.87.55.25 1.11.44 1.66.56 1.76.03 3.59 0 5.31-.08 1.82-.29 3.63-.7 5.3-1.5.66-.33 1.25.58.73.99a13.3 13.3 0 0 0 2.1-.47l-.02-1.85c-.54-.62-.88-1.33-.36-2.5Z"/><path fill="#2B2B37" d="M75.73 34.53c.42.74.85 1.46 1.26 2.2.36.66.74 1.3 1.14 1.92l.13.14c1.21 1.32 2.98 2.14 4.6 2.87a8.66 8.66 0 0 0 1.68.57h2.28c-.06-.03 1.9-.98 1.84-1-1.65-.62-7.35 1-10.55-7.3a19.87 19.87 0 0 1-1.1-4.16l-.05-.3c-.95.23-2 .5-2.47.6 0 0 .2 1.55.49 3.23.24.42.54.82.75 1.23Z"/><path fill="#2B2B37" d="m87.3 42.2.06-.09a4.02 4.02 0 0 0 .77-1.61 4.4 4.4 0 0 0-.1-1.95c-.14-.59-.35-1.16-.4-1.76-.05-.53.1-1.04.32-1.53.23-.49.52-.94.67-1.44.12-.4.16-.82.14-1.22a1.77 1.77 0 0 0-.48-1.17c-.3-.27-.93-.51-1.32-.26-.33.2-.37.67-.4 1-.06.44-.14.86-.36 1.26-.24.48-.6.9-.91 1.32-.36.5-.68 1.03-.82 1.61-.3 1.15.08 2.25.73 3.23.5.74 1.1 1.5 1.33 2.35.02.1.05.17.06.26h.7Z"/><path fill="#2B2B37" d="M97.59 36.8c.75-1.69 1.27-7 1.27-7 .01-.16-5.34-1.2-5.93-1.3-1.36-.27-2.88-.64-4.28-.68.01 1.06-.34 2.57.8 3.32.22.15.5.25.72.39 1.33.78 1.15 2.51.14 3.07-.41.23-1.07.35-.61.95.23.3.6.53.92.77.25.19.55.41.64.72a.84.84 0 0 1-.1.68c.86 1.83-4.02 4.44-11 2.54.87.53 1.82.97 2.7 1.38.56.25 1.12.44 1.67.56a103.75 103.75 0 0 0 5.31-.08c1.82-.29 3.63-.7 5.29-1.5.66-.33 1.26.58.74.99.86-.14 1.57-.29 2.1-.47l-.02-1.85c-.54-.62-.88-1.33-.36-2.49Z"/><path fill="#21212B" d="M97.59 36.8c.75-1.69 1.27-7 1.27-7 .02-.19-2.47-.62-2.66-.65l-1.04-.22c-.12-.02-.35-.1-.47-.1-.18.03-.2.16-.28.3-.38.6-.7 1.06-.67 1.8v.08c.06.69.32 1.34.5 2 .11.42.2.85.15 1.27-.16 1.35-1.6 2.26-2.17 3.51-.18.39-.27.8-.5 1.17-.46.67-1.35 1-1.93 1.59-.3.29-.51.65-.87.88-.4.25-.93.3-1.42.28-.4-.01-.84-.13-1.23-.07-.15.02-2.46.53-5.34-.91 1.71 3 6.5 1.74 8.2 1.5a20.4 20.4 0 0 0 6-1.63c.71-.35 1.34.72.62 1.07l-.06.03c.94-.18 1.7-.38 2.27-.56l-.02-1.85c-.53-.62-.87-1.33-.35-2.49Z"/><path fill="#464558" d="M94.4 37.47a16.97 16.97 0 0 1-1.6 3.1 13.19 13.19 0 0 1-2.19 2.5c-.4.35-.83.63-1.18 1.04-.17.2-.34.41-.52.6v.67a79.32 79.32 0 0 0 7.69-.5c.33-.6.72-1.17 1.01-1.78.32-.65.62-1.35.81-2.05l.04-.12c-1.4-3.92 7.44-20.6-3.4-28.34-6.07-4.32-10.7-3.9-16.14-.23-11.62 7.87-2.3 24.95-3.72 28.87a2.98 2.98 0 0 1-.2.43c.27.7.64 1.35 1.02 2l.88 1.42c.03.02.04.05.06.08 2.58.54 6.5 1.91 8.6 1.95 1.01 0 1.3-.2.97-1.37l-.54.01-.01-.74-.15-.14c-.37-.35-.8-.62-1.27-.82-3.79-1.63-6-5.5-7.29-8.88-1.73-4.59-1.32-10.96 1.2-13.6 4.27-4.47 11.9-4.62 16.31-.15 2.96 3 4.2 8.06.02 15.04-.12.34-.26.68-.4 1Z"/><path fill="#323147" d="M75.34 39.54c.05.7.02 1.28-.13 1.7a2.98 2.98 0 0 1-.2.42c.27.7.64 1.35 1.02 2 .29.47.58.96.89 1.42l.05.08c2.58.54 6.5 1.91 8.6 1.95.76 0 1.1-.1 1.1-.65-6.72-3.32-10.07-2.6-11.33-6.92Z"/><path fill="#323147" d="M97.23 43.48c.31-.59.62-1.19.88-1.8.12-.28.2-.58.31-.88-1-3.48 4.96-15.78.34-24.12a9.6 9.6 0 0 1-.46 4.26c-.4 1.1-.97 2.16-1.65 3.11 1.4 3.01 1.31 7.17-1.82 12.41l-.41 1a16.97 16.97 0 0 1-1.6 3.12 13.2 13.2 0 0 1-2.2 2.49c-.4.35-.83.63-1.18 1.04-.28.34-.55.68-.93.92v.35a75.25 75.25 0 0 0 7.97-.5l.75-1.4Zm-3.2-24.23a3.2 3.2 0 0 0-1.36-2.14c-.6-.43-1.33-.6-2.05-.63-1.5-.07-2.98.37-4.47.47-.86.06-1.68-.11-2.53-.18-1-.09-1.9.13-2.67.8-.72.65-1.25 1.47-1.88 2.2-.61.71-1.34 1.29-2.02 1.93a9.38 9.38 0 0 0-1.66 2c-.22.38-.4.78-.52 1.21-.14.49-.21 1-.33 1.48-.27 1.01-.66 2-.83 3.02-.08.5-.08.98-.08 1.48.47 2.55 1.08 4.91 1.42 6.8.18.29.38.57.57.85.52.77 1.08 1.52 1.4 2.4.29.81.32 1.74.04 2.55a3.4 3.4 0 0 1-.57 1.02h.31l.01.61c2.43.49 5.54 1.94 7.8 1.96.71.01 1.47-.09 1.89-.56.1-.11.13-.43.06-.73h-.6V45l-.13-.1c-.37-.35-.8-.62-1.27-.83a17.02 17.02 0 0 1-8.48-8.78c-1.74-4.59-.14-11.06 2.39-13.7a11.63 11.63 0 0 1 15.32-1.03c.19-.4.28-.85.23-1.3Z" opacity=".32"/><path fill="#464558" d="M76.03 25.26c-.14.47-.13.96-.16 1.44l-.03.26c.32-1.3.77-2.51 1.32-3.53-.43.58-.91 1.13-1.12 1.83Z"/><path fill="#323147" d="M97.54 43.51c.32-.72.67-1.43.94-2.18a4.89 4.89 0 0 0 .07-.21c-.03-.04-.05-.1-.07-.15-.73-1.9 1.1-6.99 1.8-12.59-.55 2.57-3.05 9.88-3.1 9.98a6.8 6.8 0 0 1-.87 1.49c-.31.4-.75.64-1.18.91-.27.17-.54.36-.71.64-.11.2-.17.4-.21.62-.1.43-.2.86-.5 1.2-.27.31-.65.5-1.04.67a8.5 8.5 0 0 1-1.63.58c-.68.15-1.36.16-2.04.16a2.1 2.1 0 0 1-.59.46c-.19.1-1.8 1.34-2 1.44 3.06 0 7.28-1.14 10.54-1.69l.6-1.33Z"/><path fill="#323147" d="M78.48 21.57c3.25-3.4 8.44-4.3 12.7-2.57-.34-.2-.68-.4-.99-.65a1.13 1.13 0 0 0-.64-.26 1.25 1.25 0 0 1-.35-.1c-.38-.17-.74-.36-1.15-.47-.18-.05-.36-.1-.54-.13h-.08c-.53-.05-1.07-.13-1.6-.14-.55-.03-1.07.1-1.62.12-.59.02-1.1.02-1.61.36-.41.27-.77.56-1.2.8-.88.5-1.78.94-2.46 1.71-.31.36-.57.78-.77 1.22-.05.1-.47 1.02-.8 1.34-6.24 6.25-1.29 23.7 9.35 23.41.08-.55-.65-1.15-.83-1.31a4.8 4.8 0 0 0-1.4-.9c-3.75-1.65-5.7-5.3-6.98-8.66-1.5-3.97-1.82-9.14.1-12.23.29-.36.67-1.33.87-1.54Z"/><path fill="#575770" d="M73.6 23.58c1.48-.9 2.9-1.93 4.07-3.21a15.16 15.16 0 0 0 2.92-4.8c.46-1.22.74-2.5.77-3.83 0-.27 0-.53-.03-.8-.79.41-1.59.88-2.4 1.44-4.36 2.95-5.77 7.2-5.9 11.55l.57-.35Z"/><path fill="#2B2B37" d="M86.48 17c-.08 0-.17-.05-.2-.13-.3-.68-.19-1.43-.09-2.14.07-.5.15-1 .08-1.47-.02-.17-.07-.35-.11-.53l-.1-.43c-.15-.78-.04-1.6.05-2.31.01-.13.13-.2.25-.18.12 0 .2.12.18.25-.1.72-.2 1.45-.07 2.16l.1.4c.04.17.1.37.12.57.08.53 0 1.07-.08 1.6-.1.69-.2 1.33.06 1.92.04.1 0 .23-.12.28h-.06Z" opacity=".25"/><path fill="#575770" d="M94.61 21.08a8.38 8.38 0 0 0-1.43-1c.57.38 1.12.83 1.61 1.34 2.05 3.44 3.1 8.59.02 15.03l-.41 1.02a16.9 16.9 0 0 1-1.6 3.1c-.26.4-.53.75-.84 1.1a16.75 16.75 0 0 0 5.38-7.97c1.67-4.91.64-9.71-2.73-12.62Z"/><path fill="#75A152" d="M74.19 44.45c.2.66.6 1.24 1 1.81.42.6.85 1.22 1.43 1.66.59.45 1.3.7 2.02.91a23.27 23.27 0 0 0 5.2.92c1.59.1 3.19.04 4.76.26 1.21.17 2.4.5 3.61.39a8.41 8.41 0 0 0 2.38-.68 8.62 8.62 0 0 0 3.35-2.23c.86-1.04 1.33-2.5.86-3.78-.1-.3-.33-.64-.66-.62-.2.01-.36.17-.5.3-2.42 2.3-5.45 4.09-8.78 4.37-.82.07-1.65.04-2.49.01-.62-.02-1.24-.04-1.85-.18-.84-.2-1.6-.6-2.43-.85-.85-.24-1.75-.32-2.58-.63-1.6-.58-2.76-1.95-3.85-3.24-.42-.52-.54-1.09-.85-1.61-.77.77-.94 2.17-.62 3.19Z"/><path fill="#568040" d="M98.82 43.7c-.12-.3-.34-.64-.67-.62-.2.01-.36.17-.5.3-2.42 2.3-5.45 4.09-8.78 4.37-.82.07-1.65.04-2.49 0-.62-.01-1.24-.04-1.85-.17-.6-.14-1.16-.38-1.73-.6.47.86.65 1.88.06 2.67.32.04.65.07.97.08 1.58.1 3.19.04 4.76.26 1.2.17 2.4.5 3.61.39a8.45 8.45 0 0 0 2.38-.68 8.63 8.63 0 0 0 3.35-2.23c.9-1.02 1.35-2.48.89-3.77Z" opacity=".37"/><path fill="#568040" d="M98.82 43.7c-.12-.3-.34-.64-.67-.62-.2.01-.36.17-.5.3-2.42 2.3-5.45 4.09-8.78 4.37-.82.07-1.65.04-2.49 0-.62-.01-1.24-.04-1.85-.17-.84-.2-1.6-.6-2.43-.85-.84-.24-1.75-.32-2.58-.63-1.6-.58-2.76-1.95-3.84-3.24-.43-.52-.54-1.09-.86-1.62a2.28 2.28 0 0 0-.3.36c.14.88.76 1.67 1.13 2.45.47.98.75 2.04 1.5 2.85a4.2 4.2 0 0 0 2.56 1.29c.5.07 1 .08 1.49.14.48.07.95.2 1.43.27.52.08 1.06.1 1.58.17.53.07 1.05.16 1.58.22.5.05.97.11 1.45.22.55.13 1.1.27 1.66.32.97.08 2.03.12 3-.06.53-.1 1.04-.28 1.57-.4l.73-.16c.2-.06.38-.15.6-.18.36-.06.7.13.93.44.84-.44 1.64-1 2.25-1.71.85-1 1.3-2.47.84-3.76Z"/><path fill="#3E5C2E" d="M76.87 45.23c.17.5.36 1.02.73 1.41.4.43 1 .67 1.57.8 1.15.29 2.38.3 3.55.43 1.03.1 2 .06 2.97-.12a8.02 8.02 0 0 1-1.15-.15c-.85-.19-1.62-.6-2.44-.84-.84-.25-1.75-.33-2.58-.64a8.13 8.13 0 0 1-3.24-2.53c.24.53.4 1.1.59 1.64Zm10.94 3.26c.7.27 1.44.3 2.17.26.74-.04 1.5-.09 2.23-.22.67-.13 1.32-.29 1.99-.38.67-.1 1.35-.18 1.97-.47.5-.24 1.03-.5 1.44-.91.46-.47.6-1.1.69-1.72.09-.63-.03-1.3.07-1.92a.34.34 0 0 0-.22-.04c-.2.01-.36.17-.5.3-2.42 2.3-5.45 4.09-8.78 4.37-.76.07-1.53.04-2.3.02.41.26.8.54 1.24.71Z"/><path fill="#75A152" d="M82.37 45.73c1.16.18 13.66 2.48 15.96-6.62.12-.45.12.03.59.04.8 7.47-7.4 10.7-14.95 9.2-12.35-2.42-9.82-12.38-8.81-10.13.4.92-.17 6.36 7.21 7.51Z"/><path fill="#75A152" d="M82.37 45.73c1.16.18 13.66 2.48 15.96-6.62.12-.45.12.03.59.04.8 7.47-7.4 10.7-14.95 9.2-12.35-2.42-9.82-12.38-8.81-10.13.4.92-.17 6.36 7.21 7.51Z"/><path fill="#568040" d="M98.9 39.15c-.47-.01-.46-.49-.58-.04-2 7.93-11.73 7.2-14.98 6.77.87.28 1.76.48 2.6.84.74.33 1.51.7 2.04 1.33.16.2.29.4.36.63 6-.24 11.22-3.5 10.57-9.53Z" opacity=".37"/><path fill="#AED888" d="M75.33 41.44a7.02 7.02 0 0 1-.14-1.38c-.03-.33-.08-.76-.28-1.03a.18.18 0 0 0-.1-.07c-.07-.03-.15 0-.2.05a.3.3 0 0 0-.06.2c-.05.38.14.74.22 1.11.07.3.05.63.06.95.01.31.04.64.21.91.05.08.12.15.2.16.1 0 .18-.08.2-.17a.6.6 0 0 0-.02-.28 5.3 5.3 0 0 0-.1-.45Zm1.45 3.1.01.09c.02.06.1.1.18.12l.14.03c.04 0 .09 0 .12-.05.02-.02.02-.06.02-.1a.36.36 0 0 0-.06-.23c-.15-.18-.38-.08-.41.14Z"/><path fill="#568040" d="M88.19 46.73c-.18 0-.36.01-.53.06-.81.18-1.89.36-2.26.87-.14.2-.21.56.15.66.37.1.75-.14 1.02-.44s.3-.6 2.5-.47l-.88-.68Z"/><path fill="#568040" d="M86.25 46.92c-.35 0-.7.05-1.04.13-.35.08-.72.21-.92.5-.03.04-.06.09-.06.13-.02.12.08.25.2.28.13.04.25 0 .37-.04.44-.17.82-.52 1.29-.58.2-.02.38.01.57.02.2.02.4.02.57-.07.09-.05.27-.18.27-.3-.01-.12-.18-.07-.26-.07-.34.03-.67 0-1 0Z"/><path fill="#568040" d="M78.99 45.76c1.7 1.02 3.78 1.09 5.7 1.22 4.39.33 10.78 1.8 12.27-2.9.1-.31 2.4-.74 1.95-4.94-.48-.01-.47-.49-.59-.04-2.3 9.1-14.79 6.8-15.96 6.62-3.26-.5-4.96-1.84-5.9-3.26a6.06 6.06 0 0 0 2.53 3.3Z"/><path fill="#3E5C2E" d="M81.45 45.79c.83.14 1.66.15 2.51.17-.81-.1-1.39-.2-1.59-.23-2-.32-3.42-.94-4.43-1.7a6.67 6.67 0 0 0 3.5 1.76Zm6.45.4c2.02.2 4.08.24 5.98-.6.45-.19.9-.45 1.26-.77.33-.3.54-.7.9-.98.67-.52 1.5-.73 1.96-1.48.53-.86.48-1.9.23-2.88-1.6 5.47-7.04 6.6-11.13 6.65l.8.06Z"/><path fill="#AED888" d="M74.6 44.2c.07.1.2.18.26.3.07.13.07.27.08.43.01.15.06.32.18.4.08.05.18.05.28.05.04 0 .07 0 .1-.02a.3.3 0 0 0 .07-.1c.24-.42-.08-1.12-.37-1.45-.12-.13-.42-.47-.62-.36-.23.14-.11.6.01.75Z"/><g fill="#D8D8D8"><path d="M105.23 176.01c-31.75 8.72-56-3.67-67.75 5.26-4.21 3.2-1.7 7.1 3.85 8.18 13.06 2.54 26.34-2.46 39.63-3.01 11.17-.46 22.2 2.22 33.29 3.72 54.45 7.37 35.3-26.32-9.02-14.15Z"/><path d="M106.19 170.2c-45.97 10.7-66.81-6.85-84.15 10.54-2.44 2.45-4.31 5.83-3.83 9.26 2.64 18.67 45.47 5.8 52.56 4.1 9.54-2.27 19.54-1.2 29.22.32s28.07 5.25 37.86 4.73c15.17-.8 26.94-12.91 16.86-24.24-2.85-3.22-6.78-5.31-10.87-6.62-12.13-3.83-25.25-.97-37.65 1.92Z" opacity=".25"/></g><path fill="#B45F00" d="m80.23 25.04.12.05c.7.34 1.41.66 2.21.43.92-.27 1.85-1.42 1.52-1.65-.1-.06-.7.06-.83.05-.48-.04-.98-.05-1.47-.04-.47.02-.94.02-1.4.1-.78.12-1.57.24-2.33.46-.09.02-.19.05-.24.12l-.04.07c0 .08.1.12.17.14.49.07.98-.07 1.47 0 .28.03.56.14.82.27Z" opacity=".36"/><path fill="#323147" d="M83.75 23.47a9.7 9.7 0 0 0-5.85.93l-.07.03c-.01 0-.02 0-.02.02l-.03.01c-.06.03-.02.14.04.1.03-.02.08-.03.11-.06 2.77-.93 4 .65 5.66.13.56-.17.83-.94.16-1.16Z"/><path fill="#B45F00" d="m92.91 25.04-.12.05c-.7.34-1.41.65-2.21.43-.92-.27-1.85-1.42-1.52-1.65.1-.06.7.06.83.05.48-.04.98-.05 1.46-.04.48.02.95.02 1.41.1.78.12 1.57.24 2.33.46.09.02.19.05.24.12l.04.07c0 .08-.1.12-.17.14-.49.07-.98-.07-1.47 0-.28.03-.55.14-.82.27Z" opacity=".36"/><path fill="#323147" d="M89.54 24.64c1.66.52 2.88-1.06 5.66-.12l.11.05c.07.04.1-.08.04-.1l-.03-.01c0-.01 0-.02-.02-.02l-.07-.02a9.6 9.6 0 0 0-5.85-.94c-.66.21-.4.98.16 1.16Z"/></svg>