<?xml version="1.0" encoding="UTF-8"?>
<svg width="24px" height="24px" viewBox="0 0 24 24" version="1.1" xmlns="http://www.w3.org/2000/svg" xmlns:xlink="http://www.w3.org/1999/xlink">
    <!-- Generator: Sketch 56.3 (81716) - https://sketch.com -->
    <title>Group 19</title>
    <desc>Created with Sketch.</desc>
    <g id="Extension-1.00" stroke="none" stroke-width="1" fill="none" fill-rule="evenodd">
        <g id="SingUpGreen" transform="translate(-643.000000, -350.000000)">
            <g id="Group-8" transform="translate(495.000000, 350.000000)">
                <g id="Group-6">
                    <g id="Group-5">
                        <g id="Group-4" transform="translate(52.000000, 0.000000)">
                            <g id="Group-19" transform="translate(96.000000, 0.000000)">
                                <circle id="Oval" fill="#F3F3F3" style="mix-blend-mode: darken;" cx="12" cy="12" r="12"></circle>
                                <path d="M12.1996203,14.04 L9.43235049,19.6659296 C9.39197843,19.7480071 9.308462,19.8 9.21699285,19.8 L7.68004712,19.8 C7.64055616,19.8 7.6016754,19.7902551 7.56685269,19.7716294 C7.44997298,19.7091139 7.40590212,19.5636853 7.46841768,19.4468056 L10.5371334,13.7095042 C9.23722537,13.0734642 8.04640426,11.5256102 8.04640426,9.12 C8.04640426,5.88386708 10.4939214,4.2 11.8779832,4.2 L14.5264043,4.2 C14.6589526,4.2 14.7664043,4.30745166 14.7664043,4.44 L14.7664043,19.56 C14.7664043,19.6925483 14.6589526,19.8 14.5264043,19.8 L13.4464043,19.8 C13.3138559,19.8 13.2064043,19.6925483 13.2064043,19.56 L13.2064043,14.04 L12.1996203,14.04 L12.1996203,14.04 Z M11.9464043,5.52 C11.2296579,5.52 9.72640426,6.7315629 9.72640426,9.06 C9.72640426,11.3884371 11.0781795,12.6 11.9464043,12.6 C12.5252207,12.6 12.9452207,12.6 13.2064043,12.6 L13.2064043,5.52 C12.8442351,5.52 12.4242351,5.52 11.9464043,5.52 Z" id="Shape" fill="#EC1F23"></path>
                            </g>
                        </g>
                    </g>
                </g>
            </g>
        </g>
    </g>
</svg>