<svg width="24" height="25"  viewBox="0 0 24 25" xmlns="http://www.w3.org/2000/svg"><g transform="translate(0 .194)" fill="none" fill-rule="evenodd"><circle fill="#4D76A1" fill-rule="nonzero" cx="11.915" cy="11.915" r="11.915"/><path d="M11.465 17.14h.935s.282-.03.426-.186c.133-.143.129-.411.129-.411s-.018-1.255.564-1.44c.574-.182 1.311 1.213 2.093 1.75.59.405 1.04.316 1.04.316l2.089-.029s1.093-.067.575-.926c-.043-.07-.302-.636-1.554-1.798-1.31-1.216-1.134-1.02.444-3.122.96-1.281 1.345-2.063 1.225-2.398-.115-.32-.821-.235-.821-.235l-2.353.015s-.174-.024-.304.053a.66.66 0 0 0-.207.253s-.373.991-.87 1.834c-1.047 1.779-1.466 1.873-1.637 1.762-.398-.257-.299-1.034-.299-1.586 0-1.724.262-2.442-.509-2.628-.255-.062-.444-.103-1.097-.11-.84-.008-1.55.003-1.953.2-.267.131-.474.423-.348.44.156.02.508.095.694.35.241.327.233 1.064.233 1.064s.138 2.029-.323 2.281c-.318.173-.753-.18-1.686-1.794-.479-.827-.84-1.74-.84-1.74s-.07-.171-.194-.262c-.15-.11-.362-.146-.362-.146L4.32 8.66s-.336.01-.459.156c-.11.13-.008.398-.008.398s1.75 4.094 3.731 6.158c1.817 1.891 3.88 1.767 3.88 1.767z" fill="#FFF"/></g></svg>