<svg width="24" height="25"  viewBox="0 0 25 25" xmlns="http://www.w3.org/2000/svg"><g transform="translate(0 .194)" fill="none"><path d="M11.972 0c6.612 0 11.972 5.36 11.972 11.972 0 6.612-5.36 11.972-11.972 11.972C5.36 23.944 0 18.584 0 11.972 0 5.36 5.36 0 11.972 0z" fill="#26A6D1"/><path d="M19.457 8.065a5.962 5.962 0 0 1-1.676.447 2.855 2.855 0 0 0 1.283-1.567 5.915 5.915 0 0 1-1.853.687 2.955 2.955 0 0 0-2.13-.893c-1.61 0-2.917 1.267-2.917 2.83 0 .223.026.439.076.646a8.369 8.369 0 0 1-6.013-2.958 2.75 2.75 0 0 0-.395 1.423c0 .981.515 1.85 1.297 2.356a2.966 2.966 0 0 1-1.322-.355v.036c0 1.373 1.006 2.517 2.34 2.777a3.017 3.017 0 0 1-1.316.049c.37 1.125 1.448 1.944 2.726 1.966a5.964 5.964 0 0 1-3.624 1.212c-.236 0-.468-.013-.697-.04a8.443 8.443 0 0 0 4.473 1.273c5.367 0 8.301-4.316 8.301-8.057l-.008-.366a5.822 5.822 0 0 0 1.455-1.466z" fill="#FFF"/></g></svg>