<svg width="320" height="600" viewBox="0 0 320 600" fill="none" xmlns="http://www.w3.org/2000/svg">
<g clip-path="url(#clip0_1575_21365)">
<rect width="320" height="600" fill="#0F0F18"/>
<path d="M59.8965 118L61.7441 125.763L69.5026 127.611L61.7441 129.46L59.8965 137.222L58.049 129.46L50.2905 127.611L58.049 125.763L59.8965 118Z" fill="white"/>
<path d="M4.52048 152.015L5.38992 155.668L9.04096 156.538L5.38992 157.408L4.52048 161.061L3.65104 157.408L0 156.538L3.65104 155.668L4.52048 152.015Z" fill="white"/>
<path d="M126.008 150.792L126.877 154.445L130.528 155.315L126.877 156.185L126.008 159.838L125.138 156.185L121.487 155.315L125.138 154.445L126.008 150.792Z" fill="white"/>
<ellipse cx="39.5539" cy="197.716" rx="1.13012" ry="1.13073" fill="white"/>
<circle cx="113.577" cy="129.873" r="0.565681" fill="white"/>
<path d="M308.697 180.657L309.567 184.31L313.218 185.18L309.567 186.05L308.697 189.703L307.828 186.05L304.177 185.18L307.828 184.31L308.697 180.657Z" fill="white"/>
<path d="M224.503 210.056L225.373 213.709L229.024 214.579L225.373 215.449L224.503 219.102L223.634 215.449L219.983 214.579L223.634 213.709L224.503 210.056Z" fill="white"/>
<ellipse cx="172.518" cy="209.491" rx="1.13012" ry="1.13073" fill="white"/>
<ellipse cx="308.698" cy="242.283" rx="1.13012" ry="1.13073" fill="white"/>
<ellipse cx="216.592" cy="172.742" rx="1.13012" ry="1.13073" fill="white"/>
<ellipse cx="248.801" cy="237.194" rx="1.13012" ry="1.13073" fill="white"/>
<circle cx="319.152" cy="163.414" r="0.848522" fill="white"/>
<circle cx="261.233" cy="219.668" r="0.565681" fill="white"/>
<ellipse cx="192.295" cy="218.537" rx="1.13012" ry="1.13073" fill="white"/>
</g>
<defs>
<clipPath id="clip0_1575_21365">
<rect width="320" height="600" fill="white"/>
</clipPath>
</defs>
</svg>
