<svg width="320" height="194" fill="none" xmlns="http://www.w3.org/2000/svg">
  <g clip-path="url(#a)">
    <path fill="#DAEAFF" d="M0 0h320v194H0z" />
    <path d="M297.52 106.2a10.43 10.43 0 1 0 0-20.86 10.43 10.43 0 0 0 0 20.86Z" fill="#A9D7FF" />
    <path d="M304.68 91.72c.87 2.38.49 3.83-.72 4.09-1.21.26-1.23-1.5-2.72-3.61-1.22-1.71-1.43-3.05-.21-3.3s2.91.76 3.66 2.82h-.01Z" fill="#CEE8FF" />
    <path d="M218.43 200.86a10.43 10.43 0 1 0 0-20.86 10.43 10.43 0 0 0 0 20.86Z" fill="#A9D7FF" />
    <path d="M225.59 186.38c.87 2.38.49 3.83-.72 4.09-1.21.26-1.23-1.5-2.72-3.61-1.22-1.71-1.43-3.05-.21-3.3s2.91.76 3.66 2.82h-.01Z" fill="#CEE8FF" />
    <path d="M173 174a6 6 0 1 0 0-12 6 6 0 0 0 0 12Z" fill="#A9D7FF" />
    <path d="M177.12 165.67c.5 1.37.28 2.2-.41 2.35-.7.15-.71-.86-1.57-2.07-.7-.99-.82-1.76-.12-1.9.7-.15 1.67.44 2.1 1.62Z" fill="#CEE8FF" />
    <path d="M99.96 30.92a13.96 13.96 0 1 0 0-27.92 13.96 13.96 0 0 0 0 27.92Z" fill="#A9D7FF" />
    <path d="M109.55 11.54c1.16 3.19.66 5.13-.97 5.47-1.63.34-1.64-2-3.65-4.83-1.63-2.29-1.91-4.08-.28-4.42 1.63-.34 3.9 1.02 4.9 3.78Z" fill="#CEE8FF" />
    <path d="M59.98 19.96a6.98 6.98 0 1 0 0-13.96 6.98 6.98 0 0 0 0 13.96Z" fill="#A9D7FF" />
    <path d="M64.77 10.27c.58 1.6.33 2.57-.48 2.74-.81.17-.82-1-1.82-2.41-.82-1.15-.96-2.04-.14-2.21.82-.17 1.95.51 2.45 1.89l-.01-.01Z" fill="#CEE8FF" />
    <path d="M232.73 31.19a8.4 8.4 0 1 0 0-16.79 8.4 8.4 0 0 0 0 16.79Z" fill="#A9D7FF" />
    <path d="M238.49 19.54c.7 1.92.4 3.09-.58 3.29-.97.2-.98-1.2-2.19-2.9-.98-1.38-1.15-2.45-.16-2.65.98-.2 2.34.6 2.94 2.27l-.01-.01Z" fill="#CEE8FF" />
    <path d="M108.5 120a9.5 9.5 0 1 0 0-19 9.5 9.5 0 0 0 0 19ZM252.34 37.18a4 4 0 1 0 0-8 4 4 0 0 0 0 8ZM177 41a4 4 0 1 0 0-8 4 4 0 0 0 0 8Z" fill="#A9D7FF" />
    <path d="M23.37 66.1a15.66 15.66 0 0 1-12 4.36A17.72 17.72 0 0 1-.2 64.82c-4.32-4.62-5.38-8.99-19.8-5.88-4.37.94-8.83 1.84-13.27 1.39-17.82-1.84-10.69-24.14-24.36-17.97-1.9.85-2.44 4.8-4.01 6.12-3.33 2.81-7.74-1.13-13.06-2.77-5.2-1.61-11.46-1.7-14.05 6.4L-94 45.5c10.5-10.43 22.98-1.07 25.39-.18 2.46.91 5.44 1.05 7.47-.6 1.25-1.03 1.94-2.59 3.02-3.8 7.85-8.8 22.2 4.5 26.9 7.62 3.85 2.57 8.23 4.7 12.86 4.68C4.89 53.18 2.03 67.88 23.37 66.1ZM-43.54 20.7s-1.14 4.96 0 7.07c1.12 2.1 4.74 3.26 7.81 3.44 3.07.18 12.45-.19 15.84-.17 3.37.02 13.43 2 13.43 2s9.32 2.63 3.74-.04c-9.19-4.37-14.96-5.33-31.33-3.42-7.89.92-10.99-5.37-9.48-8.89Z" fill="#74A352" />
    <path d="M43.3 69.2c-5.2-7.06-15.8-4.23-20.47-3.15-19.51 4.5-25.06-5.6-21.24-16.14.1-.28.35-1 .66-1.78C8.56 28.3-30.4 32.2-35.55 31.53c-5.23-.7-9.7-2.47-11.17-9.63 7.01 8.92 7.38 9.93 18.27 8.89a83.35 83.35 0 0 1 18.42.45c2.42.3 4.87.72 7.12 1.7a15.6 15.6 0 0 1 4.23 2.72 10.92 10.92 0 0 1 2.73 3.61c2.58 5.87-4.67 24.32 17.3 23.91 6.48-.13 19.96-1.7 21.95 6.01Z" fill="#3E5C2E" />
    <path d="M2.25 48.11C8.56 28.3-30.4 32.2-35.53 31.5c-5.24-.7-9.7-2.46-11.17-9.63 7 8.93 7.38 9.94 18.27 8.9a83.35 83.35 0 0 1 18.42.45c2.41.3 4.87.72 7.11 1.7a15.6 15.6 0 0 1 4.24 2.72 10.92 10.92 0 0 1 2.73 3.61c.79 1.8.65 4.8.73 8.06a26.68 26.68 0 0 1-2.85 4.46L.7 53.24c.18-1.1.48-2.22.89-3.35.1-.28.35-1 .66-1.78ZM21.34 63.18c6.5-.13 19.97-1.7 21.94 6.02-5.2-7.06-15.78-4.23-20.46-3.15-8.6 1.99-14.47 1.13-18.04-1.35-2.99-5.2-2.52-10.9.03-16.2.28 7.1 2.1 14.95 16.53 14.69Z" fill="#568040" />
    <path d="M5.6 54.21c1.26 4.57 4.54 8.42 13.05 8.92-.7.44-1.44.8-2.23 1.05-2.8.86-6.09.27-8.14-1.88-1.73-1.8-2.28-4.37-2.55-6.78-.04-.4-.1-.85-.13-1.31Z" fill="#74A352" />
    <path d="M2.29 48.06c2.76-10.6-7.8-14.87-18.66-15.96 4.03.02 10.4.52 14.05 2.18 5.72 2.6 8.3 10.15 4.6 13.78Z" fill="#3E5C2E" />
    <path d="M19.41 84.56c0 .06-.02.14-.04.2-1.66 8.06-6.5 15.03-10.14 23.27-1.1 2.02-5.36 7.31-8.75 11.38l-1.89 2.27-.04.04-.13.16c-1.4 1.66-2.35 2.76-2.35 2.76-1.29.51-11.53 6.14-15.51 4.51-2.42-.99-1.99-5.64-1.6-7.63.43-2.15 1.17-5.4 1.83-6.9 2.05-4.62 3.5-8.68 5.28-13.29 1.52-4.16 2.56-8.4 4.46-12.39.31-.69 5.05-10.26 9.07-13.2 4.08-2.52 9.67-4.39 13.95-3.76h.06l.02.01c2.4.37 4.4 1.54 5.45 3.84.92 2 1.14 4.83.33 8.73Z" fill="#464558" />
    <path opacity=".29" d="M2.7 78.48a31.06 31.06 0 0 1-.97 3.8c-.76 2.25-1.96 4.4-2.6 6.68-.55 2.02-.58 4.06.87 5.82 1.12 1.37 2.75 2.37 4.14 3.52 1.53 1.25 2 2.36 2.42 4.49 0 4.05-6.4 10.28-6.18 12.57.1.98 8.35-3.93 8.46-2.94 6.34-12.57 14.6-31.9 9.25-38.33-2.98-3.57-10.22-2.21-15.01-.24.16 1.56-.08 3.13-.38 4.63Z" fill="#2B2B37" />
    <path opacity=".29" d="M19.39 84.66c-1.63 8.1-20.48 36.64-20.97 37.22-1.67 1.68-.92 2.85-3.54 3.95-7.76 3.24-12 6.51-14.02 4.44-6.18-6.3 3.02-22.07 5.22-28.95C-9.35 101.7.42 99.03.6 94.06c.47-9 12.71-11.92 6.4-21.47.91-.25 1.85-.4 2.8-.52 2.91-.4 6.56-.28 8.48 2.3l.01.02c1.9 2.86 1.73 6 1.1 10.27Z" fill="#2B2B37" />
    <path d="M88.34 123.85c0 .64-.31 1.4-1.07 1.1-1.04-.22-2.95 3.2-2.98 4.27-.06 2.49-8.13 1.1-10.95-3.34-3.83-6.03-14.16-20.42-18.02-20.77 0 0 2.04-18.59 2.09-23.45 0-.1-1.55-8.26-1.58-8.36 6.82 3.4 15.05 9.23 19.6 16.62 5.26 8.98 9.3 18.94 12.12 28.89.4 1.66.84 3.33.8 5.04Z" fill="#3F3F50" />
    <path opacity=".48" d="M87.51 124.99c-1.12-.22-6.05 5.86-7.13 5.45-5.17-1.98-5.24-2.06-15.17-15.98-3.2-4.5-7.75-7.45-9.89-9.36l1.62-14.17s3.56 10.56 11.03 11.17c3.44.27 8-1.62 11.92-3.74 3.15 6.6 5.7 13.53 7.65 20.45.4 1.65.85 3.33.8 5.04-.02.5-.18 1.27-.83 1.14Z" fill="#2B2B37" />
    <path opacity=".48" d="M87.51 124.99c-7.2-1.36-14.24-7.49-18.96-11.73.12.09 5.65 4.03 6.02.85.38-3.22-2.76-3.96-2.92-7.72-.15-3.34 6.39-7.8 7.88-8.78 5.68 11.95 10.9 27.93 7.98 27.38Z" fill="#2B2B37" />
    <path opacity=".29" d="M58.29 106.08c-1.05-.66-2.97-.98-2.97-.98s1.81-17.63 2.04-22.9c.09-2.17-1.5-8.83-1.5-8.83l-.03-.07.34.16c.38.19 1.05.53 1.94 1.03.4.93.11 5.64 1.94 8.46 2.94 4.57 1.07 11.65.7 14.14-.27 1.81-2.74 6.84-2.46 9Z" fill="#2B2B37" />
    <path opacity=".08" d="M72.81 86.28c-.37.04-.79.06-1.24.06-11.27.04-10.87-10.32-10.87-10.32 3.51 2.2 8.28 5.67 12.1 10.26h.01Z" fill="#D8D8D8" />
    <path d="M3.83 102.12c.25.96.5 2.13.73 3.42.3 1.67.58 3.56.82 5.5H56.4l.06-1.98c.11-3.84.18-7.74 1.32-11.38.53-1.7 1.2-3.35 1.92-4.97l.06-.35c.48-3.28.05-6.14-1.05-8.62-.18-.45-.4-.95-.74-1.52-1.9-3.23-1.6-8.86-1.6-8.86s-.6-.39-4.02-1.35c-3.07-.85-15.56-4.86-17.28-4.97l-9.19-.6c-1.72.13-14.25 4.72-17.34 5.57a84.2 84.2 0 0 0-2.84.87c-.64.22-.95.36-1.09.43.42 2.7.14 5.5-.42 8.24-.52 2.66-1.34 5.26-1.87 7.92-.69 3.53-.3 5.48.09 7.1.4 1.73 1.38 5.37 1.42 5.55Z" fill="#575770" />
    <path opacity=".25" d="m11.72 105.57-7.16-.03a49.7 49.7 0 0 0-.73-3.42c-.04-.18-1.01-3.82-1.42-5.55a14.97 14.97 0 0 1-.08-7.1c.53-2.66 1.34-5.26 1.87-7.92.55-2.75.83-5.53.41-8.24.14-.07.45-.21 1.09-.43.35-.13.8-.28 1.38-.45-.37.75-2.1 4.65-1.8 11.13.48 9.93 6.44 22 6.44 22Z" fill="#2B2B37" />
    <path opacity=".11" d="m1.89 93.92.01.17v.06l.04.44v.04l.03.18.01.05.03.15.01.05.03.15v.05l.03.17v.02l.04.2v.02c.02.06.03.11.03.17l.02.05c0 .04 0 .08.02.12l.01.07.03.12.01.05.02.12.02.05.04.16c.4 1.74 1.38 5.38 1.42 5.56.56 2.2 1.13 5.46 1.54 8.9h51.03l.07-1.96c.1-3.84.18-7.74 1.31-11.38.53-1.71 1.2-3.35 1.93-4.97 0-.11.04-.23.05-.36.55-3.3.12-6.16-.98-8.64h.01l.01.01c-.18-.46-.4-.96-.74-1.53-1.9-3.22-1.6-8.85-1.6-8.85s-.6-.39-4.02-1.35l-.15-.04-.06-.02c-.04-.01-.07-.01-.1-.03-.03 0-.05 0-.08-.02-.02-.02-.06-.02-.09-.03-.02-.02-.05-.02-.08-.03-.03-.01-.07-.01-.1-.03-.02-.01-.05-.01-.07-.03-.04-.01-.07-.03-.11-.03l-.1-.02-.12-.05c-.02 0-.05 0-.08-.02l-.15-.05c-.02 0-.05 0-.07-.02l-.18-.06-.05-.01-.2-.05-.04-.02-.52-.14a1.91 1.91 0 0 0-.25-.07c-.03-.02-.07-.02-.1-.03l-.19-.05-.08-.03-.18-.06-.1-.02-.52-.17h-.05l-3.08-.96h-.03l-.28-.08h-.07l-.28-.09-.02-.01c-.1-.03-.2-.05-.3-.1l-.05-.01-.27-.08.02.26c.38 3.08-3.57 10.59-5.02 13.38-3.09 5.94-4.59 4.81-9.59 8.52-4.68 3.48-4.54 7.43-10.18 6.96a43.63 43.63 0 0 1-12.2-2.78 21.94 21.94 0 0 1-5.3-2.79v.57l.01.18v.07Z" fill="#2B2B37" />
    <path opacity=".25" d="M37.43 111.05h18.88c-.07-4.26.2-8.47 1.39-12.55.8-2.57 2.03-5.06 2.2-7.75.4-5.95-4.38-11.46-3.54-17.36l-2.92-1c2.21 24.12-12 23.4-16 38.66Z" fill="#2B2B37" />
    <path opacity=".25" d="M42.65 111.05H56.3c-.11-4.47.12-8.71 1.37-12.22.81-2.93 3.14-5.47 3.26-8.5.28-5.75-5.5-11.3-4.6-16.95l-1.81-.64c1.48 8.46 1.44 17.7-3.1 25-2.84 4.53-7.33 8.2-8.77 13.3Z" fill="#2B2B37" />
    <path opacity=".25" d="M56.24 111.05c.04-1.46.16-2.9.43-4.35-1.1 1.31-2 2.78-2.7 4.35h2.28ZM27.5 111.05c.83-1.28 1.67-2.6 2.5-4 9.44-16 17.82-35.98 13.95-37.52-.5.99-1.96 4.78-2.59 5.71-.75 1.17-1.62 2.22-2.42 3.36-.7.99-1.38 2-2.14 2.95a14.8 14.8 0 0 1-2.61 2.72c-.3.22-.6.42-.95.58-.2.88-1.04 1.44-1.93 1.6-.36.07-.7.07-1.02.03-1.07 4.46-3.39 8.55-5.9 12.4-2.37 3.62-4.97 7.1-7.4 10.72-.32.48-.63.96-.93 1.45h11.43Z" fill="#2B2B37" />
    <path opacity=".25" d="M56.65 77.68c-.37-2.41-.26-4.32-.26-4.32s-.6-.39-4.02-1.35c-2.39-.66-10.4-3.2-14.7-4.37-2.04 3.02-5.2 1.57-7.3 2.02-3.63-.8-6.06 1.2-6.06 1.2-1.76.13-3.7-3.12-6.05-2.19 1.69 3.46 4.84 6.9 10.44 5.98 6.21-1.05 24.4.77 27.94 3.03Z" fill="#2B2B37" />
    <path opacity=".25" d="M31.58 73.39c1.06-.2 2.1-.52 3.18-.14.54.2 1.05.47 1.61.61.69.17 1.4.25 2.1.27 3.17.12 7.24-.71 8.58-3.7-3.16-.98-6.9-2.11-9.4-2.79-2.04 3.02-5.2 1.57-7.3 2.03-3.63-.81-6.06 1.2-6.06 1.2-1.76.12-3.7-3.12-6.05-2.2 2.68 1.89 6.16 3.48 9.92 4.79 1.16.15 2.3.15 3.42-.07Z" fill="#2B2B37" />
    <path opacity=".25" d="M18.23 68.56s3.84 8.1 6.39 11.23a71.6 71.6 0 0 0 5.64 6.07l3.93-1.59s-3.78-2.2-6.96-5.19C24.05 76.1 19.48 68 19.48 68l-1.25.55Z" fill="#2B2B37" />
    <path opacity=".14" d="M8.22 76.31c-.07 1 .72 2.09 1.72 1.98 1.56-.16 5.77-3.82 4.57-5.16-1.52-1.68-6.18 1.64-6.28 3.18ZM48.15 78.17c-.47-.28-3.4 1.62-1.87 2.84.9.7 2.38 0 2.42-1.6 0-.47-.15-1-.55-1.24Z" fill="#D8D8D8" />
    <path d="M29.51 91c.48-.51.98-.99 1.47-1.47a79.99 79.99 0 0 0 3.4-3.59c-10.05-6.32-10.98-8.98-17.02-18.76-.08-.12.47 13.37 12.15 23.81Z" fill="#2B2B37" />
    <path d="M30.29 83.22a13.63 13.63 0 0 1-3.41 5.16c.8.9 1.69 1.76 2.64 2.61.48-.5.98-.97 1.47-1.46a79.93 79.93 0 0 0 3.4-3.58 71.18 71.18 0 0 1-4.1-2.73Z" fill="#21212B" />
    <path opacity=".25" d="M22.58 80.39c.94 1.34 1.44-.27 1.06-1.2a5.96 5.96 0 0 0-1.54-2.21c-.48-.4-.92-.61-1.11.1-.3 1.12 1.04 2.5 1.6 3.3Z" fill="#464557" />
    <path d="M31.67 95.03c-3.74 5.27-16.17 28.97-20.01 38.7l-.08.2-.2.5a18.23 18.23 0 0 0-.77 2.6c-.33 1.49-.5 3.01-.5 4.53h-.7a32.01 32.01 0 0 1-3.15-1.53c-.02-.23-.02-.46-.03-.7l-.09-2.67-.02-.75-.01-.81-.01-1.32v-.02l.14-1.3c3.83-29.6 35.52-58.5 36.93-63.94 1.99 0 1.12 8.6-11.5 26.5v.01Z" fill="#2B2B37" />
    <path opacity=".25" d="M38 78.3c.7-.89-.47-.93-1.01-.5-.46.37-.94.91-1.16 1.46-.18.4-.23.75.28.73.78 0 1.46-1.17 1.88-1.7ZM32.4 82.7a311.93 311.93 0 0 0-4.47 5.66c.1.25.38.39.92.32 1.76-.22 3-3.02 3.82-4.33.73-1.11.38-1.6-.27-1.65Z" fill="#464557" />
    <path d="M39.85 89.92v2.24h2.3l-.02-1.92-2.28-.32Z" fill="#8C6519" />
    <path d="m42.42 80.07.13 1.77c.05.75.85 1.33 1.8 1.33h.1l4.58-.2c.48-.02.93-.19 1.25-.47.32-.28.48-.64.45-1.02l-.12-1.77c-.06-.77-.91-1.37-1.9-1.33l-4.59.2c-.48.03-.92.2-1.24.47-.32.29-.49.65-.46 1.02Zm1.17-.05a.42.42 0 0 1 .16-.36.7.7 0 0 1 .44-.16l4.58-.2h.03c.34 0 .62.2.64.46l.12 1.77a.42.42 0 0 1-.16.36.73.73 0 0 1-.43.17l-4.58.2a.74.74 0 0 1-.46-.13.47.47 0 0 1-.21-.34l-.13-1.77Z" fill="#D7D8D8" />
    <path d="M43.92 82.36c.15 2.93.01 4.97-.11 8.26l7.1-.12s-.12-3.2-1.15-8.41c-.07-.34-.45-.58-.88-.57l-4.14.14c-.47.02-.84.33-.82.7ZM49.22 79.17c-1.09-5-2.81-10.33-5.44-12.88 0 0-.85-.65-1.86-.5 0 0 0 .44.14 1.13.43 2.04 1.15 6.82 1.54 12.54.02.4.46.72.97.7l3.77-.13c.56-.02.98-.42.88-.86Z" fill="#D19541" />
    <path d="m46.77 80.08-2.2.08c-.51.02-.95-.3-.97-.7a102.8 102.8 0 0 0-1.54-12.54c-.15-.69-.14-1.14-.14-1.14.44-.06.84.03 1.17.15 0 0 .16 10.52 3.68 14.16ZM45.33 90.6l-1.53.02c.13-3.3.27-5.33.12-8.26-.02-.37.35-.68.82-.7l2.72-.09c-.7.82-3.1 4.03-2.13 9.03Z" fill="#E3A856" />
    <path opacity=".37" d="M47.46 72.84c-4.2-.42-3.68-6.55-3.68-6.55 1.51 1.46 2.72 3.84 3.68 6.55Z" fill="#B06F25" />
    <path opacity=".39" d="M46.68 87.7c-.7.94-1.92.98-2.78.64.08-2.1.13-3.79.02-5.98-.02-.37.35-.68.82-.7l.7-.02.27.18c1.2.88 1.85 4.7.97 5.89Z" fill="#1F2426" />
    <path d="M11.45 88.74s21.91 3.27 27.55 2.8c5.63-.45-.47-1.58 1.12-1.71.78-.07 8.71-2.03 12.48 1.88 6.41 6.67 10.47 11.82 10.47 11.82s-1.22 10.41-2.51 16.5c-1.1 5.19.46 5.8-.8 8.65-1.27 2.85-.47 2.27-.04 3.52.44 1.24-.43 2.93-1.11 6-.39 1.71 6.8 35.67 6.8 35.67l-71.9-1.12s10.9-34.97 9.45-39.5c-1.44-4.54-.77-7.47-.87-10.26-.1-2.79-2.18-18.4-2.18-18.4s8.44-8.67 11.54-15.85Z" fill="#E3A856" />
    <path opacity=".37" d="M63.08 103.53s-.85 7.21-1.88 13.14c-2.05.84-5.34 1.2-9.27-2.02-6.67-5.46-1.01-24.17-1.01-24.17l2.7 2.3a174.77 174.77 0 0 1 9.46 10.75Z" fill="#CF8C40" />
    <path opacity=".37" d="M-6.48 172.75s10.93-34.5 9.49-39.03c-1.45-4.53-1-8.64-1.09-11.43-.1-2.78-1.37-19.02-1.37-19.02s5.14-4.8 10.9-14.53c0 0 21.92 3.27 27.55 2.8 5.63-.45-.46-1.58 1.13-1.71.36-.03 2.7-.49 5.04-.55 0 0-1.58 18.53-4.77 24.75-13.34 25.98 18.86 29.25 18.86 29.25.18 3.46 6.14 30.59 6.14 30.59l-71.88-1.12Z" fill="#C47C29" />
    <path opacity=".37" d="m28.16 173.29-34.64-.54s9.48-30.1 8.68-34.8c-.74-4.38-.32-12.17-.41-14.95-.1-2.8-2.12-22.17-2.12-22.17s4.47-2.53 11.78-12.09c0 0 9.18 1.37 17.18 2.21-1 6.97-2.54 15.09-4.6 19.12-7.81 15.2-4.5 25.53 1.31 32.23a26.7 26.7 0 0 1 2.82 30.99Z" fill="#B06F25" />
    <path d="M40.68 102.34c-1.14 2.7-5.5-1.21-5.22-10.81 1.46.07 2.69.09 3.54.02 1.71-.15 2.34-.35 2.43-.56.06.57.25 8.98-.75 11.35Z" fill="#E3A856" />
    <g opacity=".37">
      <path d="M60.23 125.38c-1.35.06-3.88-.03-4.08-1.46-.27-1.98 4.18-2.64 4.18-2.64-.29 1.94-.17 3.12-.1 4.1Z" fill="#D6A756" />
      <path d="M59.75 128.68c-.89 2-.75 2.3-.44 2.75-.8-.16-1.76-.56-1.76-1.53 0-1.05 1.44-1.3 2.26-1.35l-.06.12ZM58.61 138.2c-.1.4.4 3.36.4 3.36-1.24-.5-3.27-2.26-3.25-3.78.03-2.06 2.6-2.12 3.5-2.07-.2.71-.44 1.53-.65 2.49Z" fill="#916934" />
    </g>
    <path d="M19.16 79.04c-.3-.28-.7-.44-1.15-.46l-4.24-.2c-.92-.04-1.71.54-1.76 1.3l-.12 1.74c-.03.37.12.72.42 1s.7.44 1.15.46l4.24.2h.1c.88 0 1.62-.57 1.67-1.3l.12-1.74c.02-.37-.13-.72-.43-1Zm-.77 2.68c-.01.13-.08.25-.2.34a.67.67 0 0 1-.42.12l-4.24-.2a.65.65 0 0 1-.41-.16.43.43 0 0 1-.15-.35l.12-1.73c.02-.26.28-.46.59-.46h.03l4.24.2c.16 0 .3.06.4.16.11.1.16.22.15.35l-.11 1.73Z" fill="#D7D8D8" />
    <path d="M18.2 82.28c-.14 2.88-.01 4.87.1 8.1l-6.58-.11s.11-3.14 1.07-8.25c.06-.33.42-.57.82-.56l3.83.14c.44.02.77.32.76.68Z" fill="#E3A856" />
    <path d="m18.2 87.41-.46.03a3.82 3.82 0 0 1-3.85-3.8c0-.8.25-1.53.68-2.14l2.87.1c.44.02.77.32.76.68-.1 1.9-.07 3.4 0 5.13Z" fill="#D19541" />
    <path d="M13.29 79.16c1-4.92 2.6-10.14 5.03-12.65 0 0 .74-.62 1.67-.49 0 0 .07.44-.07 1.11-.4 2-1.06 6.7-1.42 12.31-.03.4-.43.7-.9.68L14.1 80c-.52-.02-.9-.4-.81-.84Z" fill="#E3A856" />
    <path d="M19.3 71.16c-.3 2.26-.6 5.13-.8 8.28-.03.4-.43.7-.9.68l-2.22-.08c-.6-1.28-.54-3.13.3-4.98a7.85 7.85 0 0 1 3.61-3.9Z" fill="#D19541" />
    <path opacity=".39" d="M18.2 87.59c-1.98.5-2.8-.47-2.43-1.57.35-.79 1.1-.4-.5-.97-1.6-.56.32-2.12.94-1.82.63.3 1.21 1.22 1.95 0-.05 1.49-.02 2.89.04 4.36ZM19.4 70.29c-.34 2.35-.52 4.75-.78 7.13 0 0-3 .46-2.48-1.8.53-2.25 2.06.26 1.65-2.5-.33-1.3.44-2.97 1.62-2.83ZM43.47 111.6c-1.7 2.25-5.63.73-5.13-.79.48-1.09 1.59-2.6-.61-3.38-2.2-.77-.45-3.7.16-4.44.94-1.13 2.81-.55 4.23.49 1.66 1.21 2.56 6.49 1.35 8.11Z" fill="#1F2426" />
    <path d="M15.98 65.42c.24.8.7 1.49 1.16 2.18.5.71.98 1.46 1.65 1.99.68.54 1.5.83 2.34 1.1 1.94.6 3.96.97 6 1.1 1.83.12 3.67.05 5.5.32 1.39.2 2.78.6 4.17.46.95-.1 1.87-.43 2.75-.81a10.15 10.15 0 0 0 3.88-2.68c1-1.25 1.53-3 1-4.54-.12-.37-.4-.77-.77-.74-.23 0-.42.2-.6.36-2.77 2.76-6.28 4.9-10.11 5.25-.97.07-1.92.05-2.87 0-.72-.02-1.44-.04-2.14-.21-.98-.23-1.87-.72-2.82-1.01-.98-.3-2.02-.4-2.98-.76-1.84-.7-3.18-2.34-4.44-3.9-.5-.63-.63-1.3-.98-1.94-.9.94-1.1 2.61-.73 3.83h-.01Z" fill="#75A152" />
    <path opacity=".37" d="M44.4 64.52c-.12-.36-.39-.77-.76-.74-.23.01-.42.2-.6.37-2.77 2.75-6.28 4.9-10.11 5.24-.96.08-1.92.05-2.87.01-.72-.03-1.44-.05-2.14-.22-.7-.16-1.34-.46-2-.72.55 1.03.75 2.27.06 3.21.38.05.75.08 1.13.1 1.84.12 3.68.04 5.5.31 1.4.2 2.79.6 4.18.46.95-.1 1.87-.43 2.75-.8a10.14 10.14 0 0 0 3.87-2.69 4.87 4.87 0 0 0 1-4.52v-.01Z" fill="#568040" />
    <path d="M44.41 64.52c-.12-.36-.4-.77-.77-.74-.23.01-.42.2-.6.37-2.77 2.75-6.28 4.9-10.11 5.24-.96.08-1.92.05-2.87.01-.72-.03-1.43-.05-2.14-.22-.97-.23-1.87-.72-2.82-1.01-.97-.3-2.02-.4-2.97-.76-1.85-.7-3.19-2.34-4.45-3.9-.5-.62-.63-1.3-.98-1.94-.12.14-.23.28-.34.44.16 1.05.86 2 1.3 2.93.52 1.18.85 2.45 1.72 3.43a4.8 4.8 0 0 0 2.95 1.54c.56.08 1.15.1 1.72.18.55.08 1.1.23 1.65.32.6.1 1.22.11 1.82.2.61.08 1.2.2 1.82.26.57.07 1.12.14 1.68.27.63.15 1.26.33 1.9.39 1.13.09 2.35.14 3.46-.07.6-.12 1.2-.34 1.81-.5.27-.06.56-.1.83-.18.23-.07.44-.18.67-.22.44-.07.8.16 1.08.53 1-.53 1.9-1.2 2.6-2.06a4.78 4.78 0 0 0 1.03-4.5h.01Z" fill="#568040" />
    <path d="M19.08 66.37c.2.6.42 1.22.84 1.7.47.5 1.16.8 1.81.95 1.33.34 2.75.37 4.09.51 1.18.12 2.3.07 3.42-.15-.44-.02-.89-.08-1.32-.17-.98-.23-1.87-.72-2.82-1.02-.98-.3-2.02-.39-2.98-.76-1.5-.56-2.66-1.77-3.74-3.04.29.63.48 1.3.7 1.97ZM31.7 70.28c.8.32 1.66.36 2.51.31.85-.05 1.73-.1 2.57-.27.77-.15 1.52-.34 2.3-.45.77-.12 1.55-.22 2.26-.57.58-.28 1.2-.6 1.67-1.1.53-.55.69-1.3.8-2.05.1-.76-.03-1.57.07-2.32a.4.4 0 0 0-.25-.04c-.23.01-.42.2-.6.37-2.77 2.76-6.27 4.9-10.1 5.24-.89.08-1.77.05-2.66.03.47.31.92.65 1.43.85Z" fill="#3E5C2E" />
    <path d="M16.45 65.12c.1.12.23.22.31.35.08.16.08.34.1.53.01.17.07.38.2.47.1.07.22.07.33.07.04 0 .08 0 .1-.03.05-.03.08-.07.1-.1.27-.52-.1-1.36-.43-1.75-.14-.16-.49-.57-.7-.43-.29.16-.14.72 0 .9h-.01v-.01Z" fill="#AED888" />
    <path d="M18.01 55.37s-1.45 1.33-1.74 2.58c-.29 1.27 1.32 3.23 1.32 3.23l2.2-1.29L18 55.37Z" fill="#75A152" />
    <path d="M43.51 55.8s1.45 2.13.92 4.88c-.53 2.75-2.85 3.41-2.85 3.41l-.79-1.17 2.73-7.13Z" fill="#568040" />
    <path d="M43.78 43.44c-.1-.52-.34-1.02-.73-1.27-.57-.38-1.06-.37-1.46-.08-1.13-7.31-5.74-12.77-11.23-12.7-5.48.07-9.99 5.65-10.96 12.99-.42-.27-.9-.27-1.46.12-.4.27-.62.79-.72 1.3a6.2 6.2 0 0 0 .03 1.56c.22 1.88.6 3.75 1.1 5.56.1.34.2.66.37.96.34.54.95.85 1.53.79l.17-.03c1.9 5.3 5.79 8.9 10.24 8.84 4.46-.05 8.29-3.76 10.08-9.1.05.01.1.03.16.03.58.05 1.2-.27 1.52-.83.17-.3.27-.64.35-.96.47-1.83.81-3.7 1-5.6.06-.53.1-1.06.02-1.58h-.01Z" fill="#D58500" />
    <path d="M37.36 35.38c.8.26 1.6.54 2.39.86-2.09-4.18-5.52-6.9-9.4-6.86-5.49.07-9.99 5.65-10.97 12.99-.41-.27-.9-.27-1.46.12-.39.27-.62.79-.71 1.3-.08.5-.03 1.04.03 1.56.13 1.15.32 2.28.56 3.4a12.29 12.29 0 0 1 2.16-.98c.5-9.94 6.4-16.03 17.4-12.4v.01ZM29.89 45.6s5.16-.51 9.02.52c3.84 1.03 4.27 1.18 4.27 1.18l-.88 2.72L29.9 45.6Z" fill="#B45F00" />
    <path opacity=".36" d="M43.78 43.44c-.1-.52-.34-1.01-.73-1.27-.57-.38-1.06-.37-1.46-.08a20.93 20.93 0 0 0-1.06-4.1l-.07-.16c-.13-.37-.28-.72-.44-1.07-.03-.07-.06-.12-.08-.2-.04-.09-.08-.17-.14-.25l-.1-.2c-.04-.08-.08-.16-.14-.24l-.1-.2-.14-.25-.12-.2-.14-.23-.12-.2-.14-.22c-.04-.07-.1-.13-.13-.2l-.14-.2-.15-.2c-.04-.07-.1-.12-.13-.19-.06-.08-.1-.15-.18-.22l-.12-.16-.3-.35-.08-.1c-.08-.1-.16-.18-.24-.25l-.13-.12-.2-.22c-.04-.04-.1-.08-.13-.14a2.27 2.27 0 0 0-.2-.19l-.14-.12-.2-.18-.15-.12a4.21 4.21 0 0 1-.22-.17c-.04-.04-.1-.07-.13-.11-.09-.05-.15-.1-.23-.16l-.14-.1-.24-.16a3.58 3.58 0 0 0-.12-.08l-.3-.17-.08-.06c-.26-.14-.53-.28-.79-.4 0-.02-.04-.02-.05-.03-.1-.06-.23-.1-.34-.14l-.1-.04-.3-.1c-.04-.02-.08-.04-.14-.05l-.28-.08-.14-.04-.28-.07-.07-.01h.01c-.6-.12-1.19-.2-1.81-.2-5.48.08-10 5.65-10.97 13-.42-.28-.9-.28-1.46.11-.39.27-.62.79-.71 1.3a6.2 6.2 0 0 0 .02 1.56c.14 1.15.33 2.29.57 3.41a13.58 13.58 0 0 1 2.83-1.2c.46-.13.93-.26 1.4-.36v-.12c-.68-21.78 30.62-9.37 12.85 6.17-1.22 1.07-2.73 1.7-4.18 2.3-1.75.72-3.64 1.39-5.52 1.45-.9.03-1.8-.1-2.7-.3 2.09 2.98 5 4.82 8.2 4.78 4.45-.05 8.28-3.76 10.07-9.1.05.02.1.03.16.03.58.06 1.2-.27 1.52-.82.18-.3.27-.64.35-.96.48-1.83.81-3.7 1-5.6-.02-.59.02-1.12-.06-1.63h.02l-.04-.02Z" fill="#B45F00" />
    <path d="M43.78 43.44c-.1-.52-.34-1.01-.73-1.27-.57-.38-.2-1.18-.62-.9a7.44 7.44 0 0 0-2.2-3.96L38.8 37c3.14 3.85 3.68 10 .94 13.87-.93 1.32-1.17.68-2.57 1.24-.5.2-1.03.32-1.56.44-.23.24-.46.46-.71.68a15.48 15.48 0 0 1-4.19 2.29c-1.74.73-3.64 1.4-5.52 1.46-.9.03-1.8-.1-2.7-.31 2.1 2.99 5 4.83 8.2 4.79 4.45-.06 8.28-3.77 10.07-9.1l.16.02c.58.06 1.2-.27 1.52-.82.18-.3.27-.64.35-.96.48-1.83.82-3.7 1-5.6.05-.52.09-1.05 0-1.57v.01Z" fill="#B45F00" />
    <path opacity=".36" d="M34.52 45.6c-.65-.46-.47-5-.43-5.14l-.5-.2a.45.45 0 0 0-.57.25c-1.3 2.88-1.34 4.59-1.34 7.27 0 .22 1 .26 1.07.46.07.2.18.36.29.5.3.4.74.72 1.2.75.48.03.97-.28 1.11-.8.04-.19.04-.38.03-.57a8.72 8.72 0 0 0-.86-2.52Z" fill="#B45F00" />
    <g opacity=".36" fill="#E2A040">
      <path opacity=".36" d="M27.55 37.13c0 .14.04.27.1.4.18.33.5.56.82.71.08.04.18.07.27.05.85-.1-.2-1.27-.5-1.42-.27-.13-.68-.21-.7.26ZM23.8 42.2c.1-.18.46-.2.6-.15.19.04.4.05.44.3.02.24-.19.37-.38.37-.15 0-.54-.07-.62-.23-.07-.12-.08-.22-.04-.28ZM34.61 42.66c0-.2.32-.42.48-.48.17-.05.36-.16.5.03.14.2 0 .43-.16.53-.12.08-.5.23-.65.13-.12-.05-.16-.13-.16-.21ZM23.1 45.27c.17.01.33-.1.43-.23a.42.42 0 0 0 .08-.22.3.3 0 0 0-.03-.1c-.1-.29-.53-.34-.73-.17-.3.23-.05.7.26.72ZM38.47 45.01c.17.01.33-.1.42-.23a.42.42 0 0 0 .08-.22.3.3 0 0 0-.02-.1c-.1-.3-.53-.34-.73-.17-.29.22-.04.7.26.72Z" />
    </g>
    <path opacity=".36" d="M29.66 42.26c-.8-2.58-5.27-2.73-7.68-2.6-.1 0-.21.02-.3.08-.02.01-.04.04-.05.07-.02.1.07.16.14.2 4.91 2.14 6.7 2.22 6.7 3.96 0 2.12-1.72.36-10.56 3.72l1.34 4.5a99.96 99.96 0 0 0 4.26-1.8c5.22-2.34 7.7-3.1 6.15-8.13ZM34.4 41.53c-1-.5-1.84-2.06-1.42-2.27.14-.06 5.73.64 7.15 2.1 0 .01.03.05.02.07 0 .1-.14.13-.22.13-3.64-1.96-4.66.4-5.53-.04Z" fill="#B45F00" />
    <path opacity=".36" d="M27.5 43.83c-.51-1.58-3.34-1.37-2.23-1.83.12-.04 1.91-.1 2.22 1.83Z" fill="#B45F00" />
    <path d="M28.61 38.9a9.14 9.14 0 0 0-6.21 1.16l-.08.04-.03.03-.03.01c-.06.03 0 .17.05.13l.12-.08c2.9-1.14 4.76.4 6.5-.23.6-.23.42-.8-.32-1.07ZM39.67 41.03c.04.02.09.05.11.09.06.04.13-.08.07-.12l-.02-.02c-.01-.02 0-.03-.02-.04l-.07-.03c-2.76-2.08-5.63-2.2-6.03-2.11-1.23-.12-1.76 1.36-.02 1.3 1.51-.05 3.24-.59 5.98.93Z" fill="#323147" />
    <path d="M22.58 58.58c-.1-.07-1.74-.5-1.74-.39 0 .11 1.3 3.74 1.4 3.89.09.14 2.52 2.07 2.52 2.07s1.56-1.4 1.56-1.5c0-.11-.19-1.25-.19-1.25l-3.54-2.82Z" fill="#21212B" />
    <path d="M38.27 63.26c.03 2.47-3.31 4.5-7.46 4.55-4.14.05-7.53-1.9-7.54-4.36-.01-2.47 3.32-4.5 7.46-4.55 4.13-.05 7.51 1.9 7.54 4.36Z" fill="#21212B" />
    <path d="M42.17 56.26c.8-2.03 1.35-8.42 1.35-8.42-13.16-3.33-12.91-3.33-26 .32 0 0 .21 1.86.52 3.87.26.5.57 1 .8 1.48.45.9.9 1.76 1.34 2.66.38.78.77 1.55 1.22 2.3l.14.16c1.3 1.58 3.18 2.57 4.9 3.45.59.3 1.19.53 1.78.68 1.87.03 3.81-.01 5.67-.1 1.94-.34 3.87-.85 5.65-1.8.71-.4 1.34.7.8 1.18.9-.16 1.67-.34 2.23-.55l-.02-2.22c-.57-.76-.93-1.61-.38-3v-.01Z" fill="#464558" />
    <path d="M42.17 56.26c.8-2.03 1.35-8.42 1.35-8.42-6.16-1.56-9.38-2.4-12.4-2.47-.12.48-.27.95-.43 1.41a7.43 7.43 0 0 1-1.93 3.05 5.88 5.88 0 0 1-3.89 1.45c-2.06-.03-2.93-2.05-2.96-4.34l-4.39 1.22s.2 1.86.51 3.88c.26.5.57 1 .8 1.47.45.9.9 1.76 1.34 2.66.38.78.77 1.56 1.22 2.3l.14.16c1.3 1.58 3.18 2.57 4.9 3.45.6.3 1.19.53 1.78.68 1.87.03 3.82-.02 5.67-.1 1.94-.35 3.87-.85 5.65-1.81.71-.4 1.34.7.8 1.19.9-.16 1.68-.34 2.23-.55l-.03-2.22c-.55-.76-.9-1.61-.36-3.01Z" fill="#323147" />
    <path d="M31.2 62.74c1.55-1.92.73-4.33.33-6.49-.14-1.79 1.46-3.22 1.22-5.03.05-.97-.89-2.25-1.93-1.72-.69.7-.3 1.9-.82 2.72-.57 1.2-1.59 2.18-1.85 3.52-.73 2.7 1.76 4.57 2.27 7.02h.77v-.01Z" fill="#2B2B37" />
    <path d="M42.17 56.26c.8-2.03 1.35-8.42 1.35-8.42-2.41-.75-8.06-2.12-10.9-2.37.02 1.27-.36 3.08.86 4 1.87.67 2.4 3.16.92 4.15-2.58 1.06 1.98 2.16.9 3.73.91 2.2-4.3 5.33-11.73 3.06 4.04 2.85 5.7 2.43 10.34 2.24 1.94-.35 3.87-.86 5.65-1.82.72-.39 1.34.7.8 1.2.9-.17 1.68-.35 2.23-.56l-.02-2.22c-.58-.75-.94-1.6-.4-3Z" fill="#2B2B37" />
    <path d="M42.17 56.26c.8-2.03 1.35-8.42 1.35-8.42.02-.22-2.63-.73-2.84-.77l-1.11-.26c-.14-.03-.38-.14-.51-.12-.2.03-.2.19-.3.35-.41.73-.75 1.27-.7 2.17v.1c.05.83.33 1.61.52 2.4.12.51.22 1.02.17 1.52-.18 1.63-1.7 2.73-2.32 4.23-.2.46-.29.96-.54 1.4-.49.8-1.44 1.2-2.06 1.9-.31.35-.54.79-.92 1.06-.43.31-.98.36-1.52.34-.42-.02-.89-.15-1.3-.08-.14.03-2.62.63-5.7-1.1 1.83 3.62 6.96 2.62 8.8 2.32 2.19-.37 4.36-1.37 6.37-2.47.75-.42 1.42.87.66 1.29-.01.01-.04.01-.05.03.98-.22 1.81-.45 2.42-.67l-.02-2.21c-.58-.75-.94-1.6-.4-3v-.01Z" fill="#21212B" />
    <path d="M18.86 53.51c.44.9.9 1.76 1.34 2.66.38.79.77 1.56 1.22 2.3.04.05.1.1.13.16 1.3 1.59 3.19 2.57 4.9 3.45.6.3 1.2.53 1.8.68h2.44c-.07-.03 2.04-1.18 1.97-1.2-1.76-.74-7.84 1.2-11.27-8.76a26.04 26.04 0 0 1-1.18-5l-.04-.37c-1 .29-2.13.6-2.64.73 0 0 .2 1.86.51 3.87.28.51.59 1 .82 1.48Z" fill="#2B2B37" />
    <path d="M38.78 57.06c-.47 1.3-1 2.57-1.7 3.73a15.8 15.8 0 0 1-2.34 3c-.42.42-.9.76-1.27 1.24-.19.25-.36.5-.55.72v.81c2.74-.05 5.48-.26 8.2-.6.37-.71.77-1.4 1.09-2.13a15.63 15.63 0 0 0 .9-2.62c-1.48-4.71 7.95-24.74-3.62-34.03-6.48-5.19-11.42-4.69-17.21-.27-12.4 9.45-2.45 29.96-3.97 34.66-.05.18-.13.36-.22.52.3.84.7 1.62 1.1 2.4.31.56.61 1.15.94 1.7 0 .03.04.07.05.1 2.75.65 6.93 2.3 9.16 2.34 1.09.01 1.4-.23 1.03-1.64l-.57.02-.01-.9-.16-.16a4.5 4.5 0 0 0-1.35-.98c-4.04-1.97-6.06-6.94-7.42-11-1.86-5.51-1.76-12.83.92-16a11.43 11.43 0 0 1 17.4-.19c3.17 3.6 4.5 9.68.03 18.08l-.43 1.2Z" fill="#464558" />
    <path d="M18.44 59.55a5.8 5.8 0 0 1-.14 2.03c-.05.18-.13.35-.22.51.3.84.7 1.63 1.1 2.4.31.57.61 1.15.94 1.7l.05.1c2.75.65 6.93 2.3 9.17 2.34.8.02 1.18-.12 1.18-.77-7.17-4-10.74-3.12-12.08-8.31Z" fill="#323147" />
    <path opacity=".32" d="M41.79 64.27a31 31 0 0 0 .95-2.15c.13-.34.22-.7.32-1.05-1.07-4.19 5.3-18.96.35-28.98.17 1.74.03 3.47-.5 5.12a16.57 16.57 0 0 1-1.76 3.74c1.49 3.61 1.4 8.6-1.95 14.9l-.43 1.2c-.48 1.3-1 2.58-1.7 3.74a15.9 15.9 0 0 1-2.35 3c-.42.42-.9.76-1.26 1.24-.3.4-.59.83-.99 1.12v.41a71.3 71.3 0 0 0 8.5-.6c.29-.56.55-1.12.82-1.68ZM38.37 35.18c-.1-1.01-.71-1.99-1.44-2.57a3.72 3.72 0 0 0-2.2-.76c-1.6-.08-3.18.45-4.77.57-.9.07-1.79-.14-2.7-.22a3.37 3.37 0 0 0-2.85.96c-.77.77-1.34 1.76-2 2.64-.66.85-1.44 1.54-2.16 2.32-.66.71-1.3 1.49-1.76 2.4-.23.45-.42.94-.55 1.45-.15.58-.23 1.2-.37 1.78-.28 1.22-.7 2.4-.88 3.62-.07.6-.07 1.18-.07 1.78.48 3.08 1.13 5.9 1.51 8.16l.6 1.03c.55.92 1.16 1.83 1.49 2.88.3.98.35 2.09.04 3.06a4.6 4.6 0 0 1-.61 1.23h.34v.73c2.6.59 5.91 2.33 8.34 2.36.75.01 1.55-.1 2-.68.1-.14.15-.51.07-.88l-.64.01-.01-.95c-.04-.05-.08-.1-.14-.14a4.5 4.5 0 0 0-1.35-.99c-4.03-1.96-7.68-6.48-9.04-10.54-1.86-5.52-.14-13.29 2.54-16.45a11.4 11.4 0 0 1 16.34-1.25c.23-.49.33-1.01.27-1.56v.01Z" fill="#323147" />
    <path d="M42.13 64.32c.34-.87.71-1.72.98-2.62l.08-.25-.07-.18c-.78-2.29 1.17-8.4 1.92-15.12-.58 3.09-3.26 11.86-3.31 11.98a8.06 8.06 0 0 1-.92 1.79c-.34.48-.8.77-1.26 1.1-.3.2-.59.43-.76.77-.12.23-.18.48-.23.74-.1.51-.22 1.03-.53 1.44-.3.38-.7.6-1.11.8-.57.3-1.14.55-1.75.7-.73.17-1.45.19-2.18.19-.19.22-.37.42-.63.56-.2.12-1.92 1.6-2.12 1.73 3.26 0 7.75-1.37 11.23-2.03.22-.5.43-1.06.65-1.6Z" fill="#323147" />
    <path d="M21.78 37.95a11.44 11.44 0 0 1 13.54-3.08c-.36-.24-.73-.49-1.06-.79-.23-.22-.4-.25-.69-.3a1.2 1.2 0 0 1-.36-.13c-.4-.2-.8-.43-1.24-.57l-.58-.15-.08-.01c-.57-.05-1.14-.15-1.7-.16-.59-.03-1.16.13-1.74.15-.64.03-1.18.03-1.72.43-.43.33-.83.68-1.28.96-.93.6-1.89 1.13-2.62 2.06-.34.43-.63.93-.83 1.46-.05.12-.5 1.22-.84 1.6-6.66 7.5-1.38 28.48 9.98 28.13.1-.67-.7-1.39-.88-1.6-.43-.45-.95-.8-1.49-1.07-4-1.98-6.07-6.82-7.44-10.85-1.61-4.76-2.06-10.9 0-14.6.31-.43.83-1.23 1.03-1.48Z" fill="#323147" />
    <path d="M16.58 40.38a20.28 20.28 0 0 0 4.35-3.86 18.74 18.74 0 0 0 3.11-5.75c.5-1.48.8-3.02.81-4.6 0-.33 0-.64-.02-.97-.84.5-1.7 1.06-2.56 1.72-4.64 3.55-6.16 8.65-6.31 13.88l.62-.42ZM39 37.37a9.27 9.27 0 0 0-1.53-1.2c.61.46 1.2 1 1.72 1.61 3.17 3.6 4.48 9.67.03 18.06l-.45 1.22c-.47 1.3-1 2.57-1.7 3.73-.28.47-.58.9-.9 1.32 2.81-2.64 5.2-5.81 6.37-9.78 1.79-5.9.04-11.47-3.54-14.96Z" fill="#575770" />
    <path d="M44.43 52.44c-.1-.88-.08-1.76.02-2.63h-.05l-.54 2.87a52.4 52.4 0 0 0-1.6 5.63c-.11.53-.22 1.05-.4 1.57-.58 1.77-1.76 3.2-2.92 4.57.19.23.53.18.8.08a7.2 7.2 0 0 0 2.79-1.76c.27-.27.54-.58.67-.96.32-.83.03-1.79.23-2.66.15-.65.56-1.17.84-1.77.37-.75.54-1.6.52-2.45-.03-.85-.25-1.67-.35-2.5v.01Z" fill="#323147" />
    <path d="M18.45 54.49c-.22-1.9-.51-3.8-.81-5.68-.14-.92-.29-1.83-.42-2.75-.1-.6-.2-1.21-.34-1.8h-.8c.1.94.27 1.88.35 2.8.14 1.58.18 3.2-.07 4.77-.13.84-.33 1.72-.05 2.5.1.32.28.58.45.86a8.16 8.16 0 0 1 1.04 4.5c-.03.47-.1.95.01 1.41.38 1.74 3.6 4.74 4.6 4.67-1.8-2.57-3.72-9.2-3.96-11.29Z" fill="#464558" />
    <path d="M17.82 59.32c0 .12 0 .23-.02.35-.02.47-.1.96.02 1.42.38 1.73 3.6 4.73 4.6 4.67-.42-.6 2.77.44 2.2-.48-2.14-1.3-3.96-1.1-6.8-5.97Z" fill="#323147" />
    <path fill-rule="evenodd" clip-rule="evenodd" d="M22.03 42.28a.2.2 0 0 1 .3 0c.41.39.78.55 1.15.61.32.06.64.04 1 .02l.19-.01c.43-.02.91-.03 1.46.12a4.8 4.8 0 0 1 1.83 1.01c.08.07.1.2.02.3a.2.2 0 0 1-.3.02 4.33 4.33 0 0 0-1.66-.93 4 4 0 0 0-1.33-.11l-.18.01c-.36.02-.73.04-1.1-.02-.45-.08-.9-.28-1.36-.73a.21.21 0 0 1 0-.3l-.02.01ZM39.83 42.4a.2.2 0 0 1 0 .3c-.47.43-.9.62-1.34.7-.37.07-.73.05-1.08.03l-.17-.01a3.97 3.97 0 0 0-1.31.1c-.47.13-1 .39-1.63.91a.2.2 0 0 1-.29-.02.2.2 0 0 1 .03-.29 4.7 4.7 0 0 1 1.78-1c.54-.14 1.01-.13 1.44-.1h.18c.36.02.67.04.98-.02.36-.06.73-.22 1.13-.6a.2.2 0 0 1 .29 0h-.01Z" fill="#323147" />
    <path d="M25.42 66.96c1.34.22 15.77 2.98 18.41-7.95.14-.54.14.03.68.05.92 8.97-8.54 12.85-17.25 11.06C13.01 67.2 15.93 55.24 17.1 57.95c.46 1.1-.2 7.63 8.33 9.01Z" fill="#75A152" />
    <path d="M17.3 61.8c-.1-.54-.14-1.1-.14-1.65-.05-.39-.09-.9-.33-1.23a.27.27 0 0 0-.1-.1c-.09-.02-.17.02-.22.07a.47.47 0 0 0-.09.23c-.05.47.18.9.28 1.34.08.37.05.76.07 1.14 0 .38.05.77.24 1.1.06.1.12.18.23.2.1 0 .2-.1.22-.21.03-.1 0-.23-.03-.34-.05-.19-.1-.37-.12-.54ZM18.98 65.51c0 .05 0 .08.02.11.02.08.12.12.2.15.05.01.1.04.15.04.05 0 .1-.01.13-.07.03-.03.03-.07.03-.1a.5.5 0 0 0-.07-.29c-.18-.22-.42-.1-.47.16h.01Z" fill="#AED888" />
    <path d="M32.14 68.17c-.2 0-.42 0-.62.06-.94.22-2.17.44-2.6 1.05-.18.24-.24.68.18.8.43.12.87-.18 1.17-.53.32-.37.34-.72 2.9-.57l-1.03-.81Z" fill="#568040" />
    <path opacity=".37" d="M44.52 59.05c-.55-.01-.55-.58-.68-.04-2.32 9.52-13.54 8.65-17.29 8.12 1 .34 2.02.58 3 1.02.85.39 1.76.83 2.36 1.6.2.22.33.48.42.75 6.9-.3 12.93-4.22 12.19-11.45Z" fill="#568040" />
    <path d="M21.52 67c1.96 1.22 4.34 1.3 6.56 1.46 5.06.4 12.45 2.17 14.18-3.48.1-.38 2.77-.9 2.26-5.94-.54-.02-.54-.58-.68-.04-2.65 10.92-17.07 8.16-18.4 7.94-3.76-.6-5.74-2.2-6.8-3.91A7.2 7.2 0 0 0 21.52 67Z" fill="#568040" />
    <path d="M31.8 67.52c2.33.23 4.7.28 6.9-.72a5.24 5.24 0 0 0 1.45-.94c.38-.36.63-.83 1.05-1.17.77-.63 1.72-.87 2.26-1.78.6-1.02.07-2.2-.22-3.37-.36 5.12-7.66 7.84-12.37 7.9l.93.07Z" fill="#3E5C2E" />
    <path d="M29.9 68.4c-.4 0-.8.05-1.19.14-.4.1-.82.26-1.06.61a.55.55 0 0 0-.07.15c-.03.15.1.3.23.34.13.04.28 0 .41-.05.52-.2.94-.62 1.48-.69.22-.03.45.01.66.03.22.01.46.01.65-.1.1-.05.31-.21.31-.35 0-.15-.21-.08-.3-.08-.37.03-.75 0-1.12 0Z" fill="#568040" />
    <path opacity=".39" d="M47.68 99.55c.1-.21.21-.4.34-.52.85-.7 1.48.16 0-1.38-1.49-1.55 1.17-2.07 2.01-1.8.64.2 2.34.89 3.01 1.97.67 1.07-.7 3.86-1.72 4.37-2.16 1.05-4.62-.45-3.64-2.64Z" fill="#1F2426" />
    <path d="M59.48 144.22c-9.93 5.08-43.2 9.44-59.37.77-.07-2.27.79-7.97.79-7.97.79 1.73 4.1 1.96 5.84 2.29 17.35 3.4 34.67 2 52.17-2.33 0 0 2.59-1.41.58 7.24Z" fill="#575770" />
    <path d="M59.48 144.22c-9.93 5.08-43.2 9.45-59.38.77-.06-2.27.8-7.97.8-7.97.79 1.73 4.09 1.96 5.84 2.29 15.06 2.94 30.1 2.28 45.24-.77.41.93.7 2.01.68 3.2-.08 3.26 6.12 1.82 6.23-4.76h.01s2.6-1.41.58 7.25Z" fill="#464558" />
    <path d="M48.66 147.63c-.24.07-.5.13-.78.16l-.2.01c-4.16.25-3.97-5.46-3.7-7.88 2.09-.3 4.17-.65 6.27-1.04 0 0 2.34 7.47-1.6 8.75Z" fill="#3D3C4D" />
    <path d="M39.12 149.16c1.2-3.76.02-7.2-.58-8.57 1.62-.16 3.24-.36 4.86-.59l.54 8.5c-1.56.25-3.17.47-4.82.66Z" fill="#3D3C4D" />
    <path opacity=".23" d="M-1.9 157.48s13.56 9.07 15.4 9.07c1.82 0 3.42-1.86 3.42-1.86s4.05-.47 4.99-2c.93-1.53 1.53-2.92 1.53-2.92s3.26-.4 4.12-2.3c0 0 7.39-.53 8.18-4.47.8-3.94 9.78-36.4 9.78-36.4s1.89.24 2.41 0c.37-.17.66-2.28.8-3.5a1.15 1.15 0 0 0-.73-1.2c-1.56-.6-5.4-1.76-11.73-1.65-8.55.15-36.65 41.34-36.65 41.34l-1.53 5.89Z" fill="#151916" />
    <path d="m82.26 97.77-6.76-4.81c.02-1.06-.08-2.8-.42-3.97-.4-1.85.23-6.6 2.22-7.29.75-.14.83-.22 1.08.16.36.63.36 2.21.1 3.2-.3 2.68 2.14 5 2.6 7.73.45 1.64.88 3.5 1.18 4.98Z" fill="#6DA55F" />
    <path d="M61.53 186.23c-1.86-.16-3.22-1.65-3.04-3.32L73.23 45.43c.18-1.68 1.84-2.9 3.7-2.74 1.86.16 3.23 1.65 3.04 3.32L65.23 183.5c-.18 1.68-1.83 2.9-3.7 2.74Z" fill="#4E4E69" />
    <path d="M77.08 45.39c.08.3.1.61.06.93L62.4 183.8c-.1.98-.72 1.81-1.59 2.3-1.48-.43-2.48-1.75-2.32-3.2L73.23 45.44c.1-.99.72-1.82 1.59-2.3a3.2 3.2 0 0 1 2.26 2.26Z" fill="#575770" />
    <path d="M69.02 42.66a8.97 8.97 0 0 0 17.15 1.65l-17.15-1.65Z" fill="#575770" />
    <path d="M99.56 42.68 56.18 38.5a.44.44 0 0 0-.47.4l-.32 3.3c-.03.24.15.45.4.48l43.37 4.18c.24.02.46-.15.48-.4l.32-3.3a.44.44 0 0 0-.4-.48Z" fill="#575770" />
    <path d="m78.29 40.64.35 1.65s-13.44-1.16-18.6-1.69c-4.94-.5-3.38-1.68-3.25-1.77a2.09 2.09 0 0 1 1.04-.17l20.46 1.98Z" fill="#4E4E69" />
    <path d="M99.8 44.82a2.1 2.1 0 0 1-2.3 1.89l-12.4-1.2c-4.87-3.1-11.06-5.1-17.17-6.04l29.98 3.06a2.1 2.1 0 0 1 1.89 2.3v-.01Z" fill="#4E4E69" />
    <path d="M86.17 44.31a8.98 8.98 0 0 1-9.2 5.62s4.98-1.57 5.48-5.97l3.72.35Z" fill="#4E4E69" />
    <path d="m96.99 43.37-38.52-3.71.47-4.8 5.86.56 1.41 2.56.87-2.34 12.65 1.22 1.62 1.6.93-1.35 15.17 1.46-.46 4.8Z" fill="#A9C8E0" />
    <path d="M77.85 36.68a6.36 6.36 0 0 1-4.22 3.02 6.1 6.1 0 0 1-6.87-3.2l.32-.86 10.77 1.04ZM89.66 37.82a3.34 3.34 0 0 1-6.58-.63l6.59.63Z" fill="#C3E1FB" />
    <path d="m64.8 35.42-1.1-.1 2.17 3.58.34-.92-1.4-2.56ZM79.73 36.86l-.84-.08 2.35 2.53.1-.85-1.6-1.6Z" fill="#8397A8" />
    <path d="m97.45 38.57-.46 4.8-13.76-1.33c3.44-.34 7.82-1.3 10.46-3.83l3.76.36Z" fill="#84A5BF" />
    <path d="M91.02 123.4c-1.98 3.93-2.49 5.39-6.7 7.28-3.08.98-6.95-1.2-8.3-4.39-2.53-4.07-1.15-11.48-.17-14.98a64.5 64.5 0 0 0-3.04-2.96c-.35-.3-.8-.66-.59-1.18 1.62-3.14 9-14.25 11.09-8.91 1.59 3.72 2.55 7 4.79 10.56 2.87 5.2 5.94 8.85 2.92 14.58Z" fill="#464558" />
    <path d="M75.9 126.01s-2.6-1.19-2.19-2.5c.42-1.3-1.13-3.45.01-6.32 1.15-2.88 2.63-5.28 1.36-5.9-.82-.4-2.9-1.34-4.03-2.49a10 10 0 0 1-.94-.4c-4.62-2.2-5.87-10.18-4.35-12.67 2.08-3.35 6.86-6.02 11.09-4.3.5.18.99.41 1.44.7 1.37-.28 2.45-.56 2.45-.56s2 4.13 2.52 6.1c.52 1.98 3.95 5.73 4.89 8.07.93 2.35 3.51 3.43 4.52 9 .13.71-4.55 18.53-16.78 11.27Z" fill="#6DA55F" />
    <path d="M71.16 108.1s-.25-.06-.67-.2l-1.95-.6c-1.42-.47-3.08-1.24-4.4-1.6-5.23-1.4-2.29-4.32-2.29-4.32-1.08-.87-.73-1.7-.58-2.45.27-1.32 1.47-1.9 1.47-1.9-1.8-.72-1.17-3.53-.23-3.75a11.4 11.4 0 0 1 4.25 0 20.64 20.64 0 0 1 3.25.77l.2.07.27.1.61 12.6.06 1.29Z" fill="#6DA55F" />
    <path opacity=".51" d="M68.53 107.3c-1.53-.5-4.84-1.7-6.07-2.24-2.24-1.03-1.4-2.93-.6-3.68-1.86-1.48.1-4.15.88-4.35-1.66-.54-1.27-3.5-.23-3.74.54-.13 1.1-.19 1.7-.2-1.87 1.77-1.05 3.76.19 4.23 0 0-2.04 2.8-.38 4.4 0 0-.7 3.65 4.51 5.57Z" fill="#54823F" />
    <path d="M69.15 98.5c-.28.63-.63.1-1-.08-1.7-.3-3.6-.8-5.49-1.3l.08-.1a1.75 1.75 0 0 1-.56-.35c1.64.29 3.24.58 4.98 1.06.68.16 1.3.26 1.81.24.28 0 .29.28.18.53ZM68.03 102.82c-.28.63-.63.1-1-.08a89.45 89.45 0 0 1-5.29-1.2l.08-.2-.36-.32c1.1.2 3.4.71 4.57 1.04.68.16 1.3.25 1.82.23.28 0 .29.29.18.53Z" fill="#54823F" />
    <path d="m78.17 91.75-.38.13c-1.41.52-5.18 1.84-6.65 2.37-2.52-.2-4.42-1-7.01-1.93-2.05-.62-1.86-.6-1.86-.6-.96-.2-.68-4.07 1.2-3.72 5.72.67 9.12 2.06 14.7 3.75Z" fill="#6DA55F" />
    <path d="m70.02 94.05-.04.06c-.3.52-.6.02-.94-.18h-.01l-1.1-.3h-.06a11 11 0 0 0-3.1-.54 7.39 7.39 0 0 1-2.06-.73 2 2 0 0 1-.9-1.28c2.08.48 4.3 1.43 6.26 2.1.67.2 1.28.32 1.8.34.28 0 .27.3.15.53Z" fill="#54823F" />
    <path opacity=".27" d="M84.49 127.12c1.15-5.13.58-10.54-5.69-12.7-1.24-.44-2.4-.8-3.48-1.1.34-1 .38-1.72-.24-2.03-.82-.4-2.9-1.33-4.03-2.49a10 10 0 0 1-.94-.4 6.42 6.42 0 0 1-1.63-1.12l-.2-.08c-1.17-.38-3.06-1.06-4.46-1.6a7.26 7.26 0 0 1-1.35-.53h-.01c-2.04-.95-1.52-2.62-.8-3.47a28.59 28.59 0 0 0 4.57 2.3 21.5 21.5 0 0 0 3.37 1c.47.1.94.17 1.42.22 3.41.36 7-.5 9.63-4.25.94-1.35 1.72-2.7 2.35-4.04.1.3.2.6.26.85.52 1.97 3.96 5.72 4.89 8.06.93 2.35 3.51 3.43 4.52 9 .1.5-2.3 9.85-8.18 12.38Z" fill="#54823F" />
    <path d="M70.65 96.24c.13-.79-.24-1.51-.84-1.61-.6-.1-1.2.46-1.32 1.25-.14.8.24 1.52.84 1.62.6.1 1.19-.46 1.32-1.26ZM70.64 100.81c.12-.71-.3-1.38-.96-1.49-.65-.1-1.27.38-1.39 1.1-.12.7.31 1.37.96 1.48.65.11 1.27-.38 1.4-1.09ZM69.65 105.29c.03-.6-.33-1.13-.81-1.16-.48-.03-.9.44-.94 1.05-.04.61.32 1.13.8 1.16.49.03.9-.44.95-1.05Z" fill="#72B56C" />
    <path opacity=".51" d="M87.32 125.2a16.08 16.08 0 0 0-.14-16.66c-2.1-3.14-.46-5.28-.46-5.28.6.9 1.14 1.76 1.43 2.48.93 2.35 3.51 3.43 4.52 9 .08.42-1.52 6.79-5.35 10.45Z" fill="#54823F" />
    <path d="M75.52 112.63c.12-.64.03-1.11-.44-1.34-.41-.2-1.15-.54-1.92-.97 0 0 4.42-1.5 4.92-.28s-2.48 2.56-2.56 2.6Z" fill="#54823F" />
    <path d="M73.68 123.97a.94.94 0 0 1 .03-.45c.42-1.3-1.13-3.45.01-6.33.22-.56.46-1.1.68-1.6 0 0 6.23.62 6.18 4.56-.04 3.94-6.9 3.82-6.9 3.82Z" fill="#72B56C" />
    <path d="M73.88 90.4s4.43 5.39 5.72 2.13c.4-1-3.45-2.78-3.45-2.78l-.41 1.04-1.86-.38Z" fill="#54823F" />
    <path d="m39.2 106.58-5.04 42.63c0 3.48-8.3 6.3-18.53 6.3s-18.72-4.54-18.72-8.01l-4.84-40.92H39.2Z" fill="#5380C2" />
    <path d="m35.58 137.19-1.42 12.02c0 2.1-3.03 3.97-7.7 5.11-9.73-.3-17.63-4.64-17.63-8l-4.07-34.34 16-.4s.26 21.9 14.82 25.6Z" fill="#5E90D6" />
    <path d="m34.75 144.24-.6 4.97c0 3.48-8.28 6.3-18.52 6.3-10.23 0-18.72-4.54-18.72-8.01l-4.07-34.35 16-.39s2.37 36.1 25.9 31.48Z" fill="#6898DE" />
    <path d="M9.18 151.59c-7.05-.9-13.02-7.7-13.02-10.42l-3.32-28.02 5.04-1.33s-1.24 24.73 11.3 39.77Z" fill="#5380C2" />
    <path opacity=".26" d="m38.58 111.85-.68 5.7c-27.94 1.44-41.44-1.86-44.88-2.9l-.23-1.9 45.78-.9Z" fill="#000" />
    <path opacity=".26" d="m36.56 128.88-.31 2.65c-3.01 1.97-6.62 3-10.55 3a25.44 25.44 0 0 1-12.33-3.36 28.64 28.64 0 0 1-5.8-4.35 27.86 27.86 0 0 1-6.9-10.52 24.8 24.8 0 0 1-1.03-3.69c-.05-.21-.08-.43-.12-.65a.97.97 0 0 1 1.93-.3l.18.91.08.36a23.2 23.2 0 0 0 1.17 3.69 27.02 27.02 0 0 0 9.24 11.45 24.01 24.01 0 0 0 12.04 4.45c4.78.35 9.11-.94 12.4-3.65Z" fill="#000" />
    <path d="m41.08 106.58-.42 5.28c0 1.56-11.2 2.82-25.03 2.82-13.82 0-25.03-1.26-25.03-2.82l-.42-5.28h50.9Z" fill="#5380C2" />
    <path d="M29.04 114.24a190.78 190.78 0 0 1-17.6.4c-6.21-.62-10.12-1.52-10.12-2.53l-.44-5.53h27.91c-.47 1.36-1.35 4.76.25 7.66Z" fill="#5E90D6" />
    <path d="M14.45 114.68c-13.27-.07-23.84-1.3-23.84-2.82l-.43-5.28 23.52.16s-2.12 4.7.75 7.94Z" fill="#6898DE" />
    <path d="M.18 114.17c-6.59-.51-9.58-1.34-9.58-2.31l-.42-5.28 9.07 2.21s-2.47 3.24.93 5.38Z" fill="#5380C2" />
    <path d="M15.63 109.4c14.06 0 25.45-1.26 25.45-2.82 0-1.56-11.4-2.83-25.45-2.83-14.05 0-25.45 1.27-25.45 2.83s11.4 2.82 25.45 2.82Z" fill="#73A4EC" />
    <path d="M15.63 108.15c12.59 0 22.8-.8 22.8-1.78s-10.21-1.78-22.8-1.78c-12.58 0-22.79.8-22.79 1.78s10.2 1.78 22.8 1.78Z" fill="#4572B6" />
    <path d="M-1.14 113.44a1.95 1.95 0 1 0 0-3.9 1.95 1.95 0 0 0 0 3.9Z" fill="#294170" />
    <path opacity=".26" d="m1.26 114.17-.78-2.99s-1.2-1.24-1.73.53l.76 2.3 1.75.16Z" fill="#000" />
    <path d="M37.62 128.88c-3.45 3.58-8.22 5.5-13.56 5.5-.56 0-1.12-.02-1.68-.06-5.96-.44-11.8-3.16-16.46-7.65a27.06 27.06 0 0 1-8.04-14.86.98.98 0 0 1 1.93-.3c.84 5.04 3.47 9.9 7.47 13.76 4.33 4.17 9.74 6.7 15.24 7.1 5.43.4 10.3-1.32 13.7-4.85 3.73-3.87 5.2-9.4 4.15-15.25a.94.94 0 0 0 .29-.41l.27-3.4.08-1.03.35.88c2.62 7.73 1.22 15.43-3.74 20.57Z" fill="#1A2A48" />
    <mask id="b" style="mask-type:luminance" maskUnits="userSpaceOnUse" x="-8" y="74" width="48" height="35">
      <path d="M38.42 106.37c0 .98-10.2 1.78-22.79 1.78-12.58 0-22.79-.8-22.79-1.78s-7.68-32.44 25.44-32c29.8.39 20.14 31.02 20.14 32Z" fill="#fff" />
    </mask>
    <g mask="url(#b)">
      <path d="M16.65 92.53c.48-3.67-2.7-7.86-7.35-7.86-4.65 0-7.82 4.25-7.35 7.86.15 1.98 2.95 6.55 3.77 7.89 4.11 6.61 2.98 6.73 7.34-.34.32-.51 3.42-5.5 3.59-7.55Z" fill="#B03A46" />
      <path d="M3.52 90.8a5.48 5.48 0 0 0 3.76-1.72 5.18 5.18 0 0 0 1.17-4.37 7.45 7.45 0 0 0-6.4 5.86c.49.17 1.04.23 1.47.22Z" fill="#BD5555" />
      <path opacity=".32" d="M14.66 86.96c.04.27.08.54.1.82.22 2.55-.2 5.3-1.88 7.32-1.74 2.06-4.95 3.92-7.94 4 .33.55.6 1.01.8 1.3 4.1 6.61 2.97 6.74 7.33-.34.3-.5 3.41-5.48 3.58-7.53a6.94 6.94 0 0 0-1.99-5.57Z" fill="#801E29" />
      <path d="M9.3 95.07a3.12 3.12 0 0 0 3.13-3.1c0-1.72-1.4-3.1-3.13-3.1a3.12 3.12 0 0 0-3.13 3.1c0 1.71 1.4 3.1 3.13 3.1Z" fill="#EDEFEF" />
      <path d="M10.83 89.26c.37.52.6 1.15.6 1.83a3.12 3.12 0 0 1-4.66 2.71 3.14 3.14 0 0 0 5.66-1.83 3.1 3.1 0 0 0-1.6-2.7Z" fill="#BFBECB" />
      <path d="M5.44 95.64c-.6-2.62-3.85-4.67-7.02-3.48-3.17 1.2-4.25 4.9-3 7.24.6 1.32 3.68 3.71 4.59 4.41 4.5 3.47 3.76 3.84 4.91-2.1.1-.43.93-4.63.52-6.07Z" fill="#B03A46" />
      <path opacity=".32" d="M2.66 92.36c.1.16.2.34.28.53.8 1.68 1.22 3.67.59 5.47a8.54 8.54 0 0 1-4.4 4.76l.89.68c4.5 3.46 3.75 3.83 4.91-2.11.08-.41.92-4.61.5-6.05a5.06 5.06 0 0 0-2.77-3.29Z" fill="#801E29" />
      <path d="M1.08 99.26a2.27 2.27 0 0 0 1.34-2.92 2.27 2.27 0 0 0-2.93-1.31 2.27 2.27 0 0 0-1.34 2.91 2.27 2.27 0 0 0 2.93 1.32Z" fill="#EDEFEF" />
      <path d="M.64 94.9a2.27 2.27 0 0 1-1.6 4.13 2.29 2.29 0 0 0 3.38-2.7c-.3-.78-1-1.3-1.78-1.43Z" fill="#BFBECB" />
      <path d="M30.57 97.45a10.66 10.66 0 0 1-1 4.04c-.31-.2-.68-.32-1.09-.33-1.2-.03-1.72.61-1.75 1.81v.06c-1.17.63-1.02 1.82-1 1.92-1 .38-2.53.6-3.65.56a8.25 8.25 0 0 1-8.06-8.49 8.24 8.24 0 0 1 2.6-5.81c-.05-.09-.08-.22-.05-.42.43-.1.88-.06 1.27.14a2.07 2.07 0 0 0 3.02-1.76v-.08a8.24 8.24 0 0 1 5.56.97 8.28 8.28 0 0 1 4.15 7.4Z" fill="#634C30" />
      <path d="M29.95 97.3c0 1.28-.29 2.49-.8 3.57a2.18 2.18 0 0 0-3.27 1.88v.05a2.18 2.18 0 0 0-1.03 2.15 8.23 8.23 0 0 1-9.1-1.87 8.24 8.24 0 0 1 .83-12.3 2.06 2.06 0 0 0 3.45-1.5v-.09a8.2 8.2 0 0 1 5.58.84 8.27 8.27 0 0 1 4.34 7.28Z" fill="#895E2F" />
      <path d="M27.46 95.2c0 4.65-3.9 8.4-8.69 8.4a8.9 8.9 0 0 1-3.02-.51 8.24 8.24 0 0 1 .82-12.3 2.06 2.06 0 0 0 3.46-1.52v-.07a8.2 8.2 0 0 1 5.58.83 8.2 8.2 0 0 1 1.85 5.18Z" fill="#996833" />
      <path d="M19.08 100.68V99.4c0-.26.18-.49.44-.54l1.3-.26c.3-.06.59.14.64.44l.3 1.87c.07.37-.26.7-.64.62l-1.6-.33a.54.54 0 0 1-.44-.53ZM22.41 104.15l.84-.38c.21-.09.46-.01.58.19l.66 1.13s-.98.37-2.1.46l-.23-.86a.45.45 0 0 1 .25-.54ZM29.93 96.66l-1.51.92a.65.65 0 0 0-.3.66l.18 1.16c.05.27.25.48.5.53l.68.14s.6-1.22.45-3.4ZM13.5 96.03l.49-.19c.23-.1.43-.26.56-.48l.5-.89c.1-.17.16-.36.16-.55v-1.78s-1.59 1.78-1.71 3.9ZM20.42 89.13v.55c0 .4.29.74.69.8l2.78.44c.25.04.5-.04.69-.21l.83-.79s-2-1.23-5-.8Z" fill="#473826" />
      <path d="M18.46 103.77a.5.5 0 1 0 0-.99.5.5 0 0 0 0 .99ZM24.1 102.78a.5.5 0 1 0 0-.98.5.5 0 0 0 0 .98ZM16.06 97.67a.5.5 0 1 0 0-.98.5.5 0 0 0 0 .98ZM14.83 99.63a.75.75 0 1 0 0-1.5.75.75 0 0 0 0 1.5ZM24.86 95.8a.75.75 0 1 0 0-1.5.75.75 0 0 0 0 1.5ZM20.12 93.4a.75.75 0 1 0 0-1.51.75.75 0 0 0 0 1.5ZM25.48 101.5a.75.75 0 1 0 0-1.5.75.75 0 0 0 0 1.5Z" fill="#634C30" />
      <path d="m22.82 92.68-.04.19a.7.7 0 0 0 .87.83l1.75-.52a.7.7 0 0 0 .48-.83l-.07-.26a.7.7 0 0 0-.9-.49l-1.65.59a.7.7 0 0 0-.44.5ZM17.8 94.61l-.27 1.06c-.06.23.07.46.3.52l3.2.85c.2.06.4-.04.49-.23l.39-.83a.42.42 0 0 0-.26-.58l-3.31-1.09a.42.42 0 0 0-.54.3Z" fill="#473826" />
      <path d="M30.26 103.47c-.06 1.31-.6 1.32-1.33 1.32a1.33 1.33 0 0 1 0-2.65c.73 0 1.38.11 1.33 1.33Z" fill="#634C30" />
      <path d="M29.98 103.47c0 .73-.26 1.17-1.19 1.32-1.09.18-1.33-.65-1.43-1.38-.13-1.07.78-1.27 1.43-1.27.66 0 1.2.6 1.2 1.33ZM28.03 105.92c0 .42-.31.7-.68.76-.85.14-1.02-.46-1.02-.88s.64-.64 1.02-.64c.37 0 .68.34.68.76Z" fill="#895E2F" />
      <path d="M-6.73 104.1a8.8 8.8 0 0 1 .8-3.33c.26.17.57.26.9.27 1 .02 1.42-.5 1.44-1.5v-.05c.97-.53.84-1.5.83-1.59.81-.32 2.08-.5 3-.48a6.8 6.8 0 0 1 6.69 6.98 6.8 6.8 0 0 1-2.13 4.81c.05.07.07.18.04.35-.35.08-.72.05-1.04-.12a1.7 1.7 0 0 0-2.49 1.47v.07a6.73 6.73 0 0 1-4.59-.79 6.83 6.83 0 0 1-3.45-6.08Z" fill="#634C30" />
      <path d="M-6.22 104.23c0-1.05.23-2.05.65-2.94a1.8 1.8 0 0 0 2.7-1.56v-.05a1.8 1.8 0 0 0 .83-1.78 6.8 6.8 0 0 1 7.52 1.5 6.81 6.81 0 0 1-.63 10.16A1.7 1.7 0 0 0 2 110.82v.06a6.77 6.77 0 0 1-4.62-.66 6.83 6.83 0 0 1-3.61-6Z" fill="#895E2F" />
      <path d="M-4.15 105.95A7.05 7.05 0 0 1 2.98 99c.88 0 1.72.14 2.5.42a6.8 6.8 0 0 1-.64 10.15A1.7 1.7 0 0 0 2 110.82v.06a6.77 6.77 0 0 1-4.61-.66 6.78 6.78 0 0 1-1.55-4.27Z" fill="#996833" />
      <path d="M2.74 101.4v1.05c0 .22-.15.4-.36.45l-1.06.22a.45.45 0 0 1-.54-.36l-.26-1.54a.45.45 0 0 1 .53-.52l1.32.27c.21.04.36.22.36.43ZM-.02 98.55l-.7.31a.37.37 0 0 1-.47-.15l-.56-.93s.81-.3 1.73-.39l.2.72a.38.38 0 0 1-.2.44ZM7.36 105.22l-.4.16a.92.92 0 0 0-.46.4l-.42.73a.92.92 0 0 0-.12.46v1.47s1.3-1.48 1.4-3.22Z" fill="#473826" />
      <path d="M3.24 99.67a.4.4 0 1 0 0-.82.4.4 0 0 0 0 .82ZM5.24 104.69a.4.4 0 1 0 0-.82.4.4 0 0 0 0 .81ZM6.25 103.5a.62.62 0 1 0 0-1.25.62.62 0 0 0 0 1.25ZM1.91 108.66a.62.62 0 1 0 0-1.24.62.62 0 0 0 0 1.24Z" fill="#634C30" />
      <path d="m3.82 106.4.22-.87a.35.35 0 0 0-.25-.42l-2.65-.7a.35.35 0 0 0-.4.2l-.32.68c-.08.19.01.41.21.48l2.74.88c.2.06.4-.05.45-.24Z" fill="#473826" />
      <path d="M14.77 101.78a3.48 3.48 0 1 1-6.11-3.35 3.48 3.48 0 0 1 6.11 3.35Z" fill="#E3E5E5" />
      <path d="m15.1 99.25-.01.01c-.23.24-1.03-.15-1.79-.87-.73-.7-1.16-1.45-.98-1.72a3.5 3.5 0 0 1 2.77 2.59Z" fill="#F59E10" />
      <path d="M14.45 98.5c.1-.1-.1-.47-.45-.81-.36-.34-.74-.53-.84-.41-.11.1.1.47.45.82.36.34.73.52.84.4Z" fill="#333" />
      <path d="M13.72 97.58c.03-.04-.03-.14-.14-.24-.1-.1-.2-.15-.24-.12-.03.03.03.14.13.24.1.1.21.15.25.12Z" fill="#fff" />
      <path d="M11.3 99.28c.75-.26 1.2-.93 1-1.5-.19-.56-.95-.8-1.7-.55-.75.26-1.2.92-1 1.49.2.56.96.81 1.7.56Z" fill="#EDEFEF" />
      <path d="M31.85 97.64a6.22 6.22 0 0 1 5.71 6.74 6.25 6.25 0 1 1-5.71-6.74Z" fill="#C0CED1" />
      <path d="M35.6 101.84a6.25 6.25 0 0 1-10.03 4.44 6.25 6.25 0 0 1 9.57-7.36c.38.89.55 1.89.46 2.92Z" fill="#D1DBDE" />
      <path d="m34.29 98.36-.02.28a6.25 6.25 0 0 1-9.18 4.99c0-.1 0-.19.02-.29a6.25 6.25 0 0 1 9.17-4.98Z" fill="#E3E5E5" />
      <path d="M36.39 104.08c1.02-.93.84-2.8-.4-4.18-1.26-1.39-3.1-1.76-4.13-.83-1.02.92-.84 2.8.41 4.18s3.1 1.75 4.12.83Z" fill="#F59E10" />
      <path d="M34.95 102.3c.36-.34.3-1-.15-1.5-.44-.5-1.1-.62-1.47-.3-.36.34-.3 1 .15 1.5.44.5 1.1.63 1.47.3Z" fill="#333" />
      <path d="M33.56 101.9c.16-.16.13-.45-.06-.67-.2-.22-.5-.28-.66-.14-.16.15-.13.45.07.67.2.22.49.28.65.13Z" fill="#fff" />
      <path d="M29.46 101.7c.9-.9 1.17-2.09.6-2.66-.57-.57-1.76-.3-2.66.6-.9.9-1.16 2.08-.6 2.65.57.57 1.76.3 2.66-.6Z" fill="#EDEFEF" />
      <path d="M4.08 108.38a4.92 4.92 0 1 0 6.56-7.32 4.92 4.92 0 0 0-6.56 7.32Z" fill="#ACBCBF" />
      <path d="M9.64 106.78a5.41 5.41 0 0 1-5.6 1.57 4.86 4.86 0 0 1-1.6-3.73 4.91 4.91 0 0 1 2.52-4.18 4.9 4.9 0 0 1 5.61.57 5.41 5.41 0 0 1-.94 5.77Z" fill="#D1DBDE" />
      <path d="M8.4 101.58c0 2.56-2.33 4.64-5.2 4.64-.17 0-.35-.01-.52-.03a4.83 4.83 0 0 1-.23-1.58 4.92 4.92 0 0 1 2.51-4.17l.24-.13a4.9 4.9 0 0 1 2.82-.46c.25.54.38 1.12.38 1.73Z" fill="#E3E5E5" />
      <path d="M2.47 105.17h.01c.41.22 1.3-.68 1.97-2 .65-1.27.87-2.47.5-2.73a4.9 4.9 0 0 0-2.49 4.73Z" fill="#F59E10" />
      <path d="M4 102.95c.32-.62.42-1.2.22-1.3-.2-.1-.6.32-.92.94-.32.62-.42 1.2-.22 1.3.19.1.6-.32.92-.94Z" fill="#333" />
      <path d="M4.38 102.32c.09-.16.1-.32.03-.36-.06-.03-.19.07-.27.24-.08.16-.1.32-.03.35.07.04.19-.07.27-.23Z" fill="#fff" />
      <path d="M26.97 108.25a3.57 3.57 0 1 1-3.45-4.81h.2a3.57 3.57 0 0 1 3.26 4.81Z" fill="#ACBCBF" />
      <path d="M26.97 108.25c-.08.23-.2.45-.32.66a3.57 3.57 0 0 1-3.9-5.37c.25-.07.5-.1.77-.11h.2a3.62 3.62 0 0 1 3.03 1.84c.06.12.12.23.17.36.34.8.38 1.73.05 2.61Z" fill="#C9D4D4" />
      <path d="M26.92 105.63v.01c-.2.28-1.07 0-1.95-.62-.85-.6-1.4-1.3-1.25-1.59a3.56 3.56 0 0 1 3.2 2.2Z" fill="#F59E10" />
      <path d="M26.16 104.98c.09-.12-.17-.47-.58-.76-.42-.29-.83-.42-.92-.29-.09.13.17.47.59.76.4.3.82.42.9.3Z" fill="#333" />
      <path d="M25.27 104.15c.03-.04-.04-.14-.16-.22-.12-.08-.24-.12-.27-.08-.02.03.05.13.17.22.12.08.24.12.26.08Z" fill="#fff" />
      <path d="M15.1 98.72a5.92 5.92 0 0 1 6.44 5.37 5.93 5.93 0 1 1-6.45-5.37Z" fill="#C0CED1" />
      <path d="M15.2 108.58a5.93 5.93 0 0 1-5.27-2.32 5.94 5.94 0 0 1 10.43-5.21 5.93 5.93 0 0 1-5.17 7.53Z" fill="#D1DBDE" />
      <path d="M13.63 106.43a5.9 5.9 0 0 1-3.88-1 5.94 5.94 0 0 1 9.22-5.7 5.93 5.93 0 0 1-5.34 6.71Z" fill="#E3E5E5" />
      <path d="M19.9 105.17c1.17-.77 1.34-2.6.37-4.08-.97-1.48-2.71-2.05-3.89-1.28-1.17.77-1.34 2.6-.37 4.08.97 1.47 2.71 2.05 3.89 1.28Z" fill="#F59E10" />
      <path d="M19 103.58c.46-.3.53-1.02.15-1.6-.39-.6-1.07-.82-1.54-.52-.46.3-.52 1.03-.14 1.61.38.59 1.07.81 1.53.5Z" fill="#333" />
      <path d="M17.6 102.6c.14-.1.16-.32.04-.5-.11-.18-.33-.25-.47-.16-.14.1-.16.32-.05.5.12.18.34.25.48.15Z" fill="#fff" />
      <path d="M13.79 103.28c1-1 1.3-2.32.66-2.95-.63-.63-1.95-.34-2.95.66-1 1-1.3 2.32-.66 2.96.63.63 1.95.33 2.95-.67Z" fill="#EDEFEF" />
    </g>
    <path opacity=".26" d="M-3.11 129.86s4.69-1.64 5.06.32c.35 1.85 4.66 11.69 4.66 11.69s5.4-.48 7.5 1.8c2.11 2.28 5.1 2.96 6.06 3.32 2.1.8 2.74 4.37-4.3 3.47 0 0 1.93 4.36 7.13 4.47 0 0-6.27 2.72-9.92.58-3.66-2.13-16.2-25.65-16.2-25.65Z" fill="#243652" />
    <path d="M-21.24 124.64s-.82 9.2 7.84 14.6C-7.28 143.06 1.95 142 1.95 142s-4.38-11.51-7.78-17.64c-2.75-4.96-15.4.27-15.4.27Z" fill="#464558" />
    <path d="M27.15 154.15c-.4 2.03-1.57 1.7-2.54 3.3-.51.86-1.67 1.05-2.67 1.05a5.42 5.42 0 0 1-1.74 1.72c-.6.26-2.4.62-3.94.9-1.47.9-2.95 1.56-3.65 1.13-1.61-1-9.88-7.78-9.88-7.78a24.68 24.68 0 0 1-4.11-3.81s-4.48-2.98-5.74-4.13c-7.6-6.91-12.68-8.06-11.14-9.6 1.55-1.54 9.22-6.27 15.46-7.64 3.82-.83 3.49 2.23 3.75 2.67.26.43 2.14 5.62 2.66 6.75a37.77 37.77 0 0 1 1.6 4.03c1.78-.34 4.39-.64 5.87.22 2.4 1.37 4.96 2.66 7 2.88 1.9.2 4.68 4.18-2.97 3.89-.36-.01-1.21-.15-1.6-.2a129 129 0 0 1 1.95 3.23c.58 1.04 3.93 2.16 3.93 2.16l2.25.26 5.52-1.04Z" fill="#6DA55F" />
    <path opacity=".27" d="M27.15 154.15c-.41 2.03-1.57 1.7-2.54 3.3-.51.85-1.67 1.05-2.67 1.04a5.4 5.4 0 0 1-1.74 1.73c-.6.25-2.4.62-3.94.9-1.47.9-2.95 1.55-3.65 1.13a34.3 34.3 0 0 1-2.22-1.63c.33-2.8.39-8.03-3.5-9.28-2.66-.86-4.55.37-5.78 1.82-.86-.73-1.75-1.6-2.5-2.5l-1.48-1c-.45-2.67-.35-5.56 1.36-7.51 2.86-3.27-.67-9.29-2.9-12.44.54-.16 1.08-.3 1.61-.41 3.82-.84 3.49 2.23 3.75 2.66.26.44 2.14 5.63 2.66 6.75 1.04 2.25 1.6 4.03 1.6 4.03 1.78-.34 4.39-.64 5.87.22 2.4 1.38 4.96 2.66 7 2.88 1.9.2 4.68 4.19-2.98 3.9-.35-.02-1.2-.16-1.6-.21.75 1.2 1.64 2.66 1.96 3.23.58 1.04 3.93 2.17 3.93 2.17l2.24.25 5.53-1.04Z" fill="#54823F" />
    <path opacity=".51" d="M16.35 154.38c-8.57-1.4-7.28-7.2-7.28-7.2 5.83.3 3.29-3.38 3.29-3.51 2 1.08 4.04 1.99 5.72 2.17 1.9.2 4.68 4.19-2.98 3.9-.35-.02-1.2-.16-1.6-.21.75 1.21 1.64 2.67 1.96 3.23.58 1.04 3.93 2.17 3.93 2.17s-2.24-.42-3.04-.55Z" fill="#54823F" />
    <path opacity=".51" d="M13.5 149.53s-4.08-1.47-3.8-.3c.6 2.6 5.93 3.77 5.93 3.77l-2.13-3.47Z" fill="#54823F" />
    <path d="M13.5 149.53s-3.37-1.14-3.78-.82c-.77.6 4.7 2.33 4.7 2.33l-.92-1.51ZM21.9 158.54a60 60 0 0 1-4.68-.4c-.4-.14-1.78.66-.85.58.63-.06 3.88.16 5.21.24l.33-.42ZM17.73 160.84l-1.23.23c-.76-.06-1.4-.1-1.67-.07-.93.1-.06-.5.33-.36a28 28 0 0 0 2.57.2Z" fill="#54823F" />
    <path opacity=".51" d="M25.33 156.57c-.3.33-.5.52-.72.89-.51.84-1.67 1.04-2.67 1.03a5.43 5.43 0 0 1-1.74 1.73c-.6.25-2.4.62-3.94.9-1.47.9-2.96 1.56-3.65 1.13l-.35-.24c.1 0 2.21-.09 2.57-1 0 0 4.33-1.38 2.39-2.86 0 0 4.96-.54 4-3.02l.41.05 2.66-.5c-.2.68-.23 2.4 1.04 1.89Z" fill="#54823F" />
    <path d="M12.6 160.63c-.42-.32-.1-.97.4-.84.82.21 1.51.47 1.25.7-.55.46-1.06.56-1.36.36a8.25 8.25 0 0 1-.3-.22ZM13.73 158.47c-.5-.35-.14-1.11.44-.98 1.25.3 2.38.66 1.96.9-.84.5-1.62.75-1.97.42a5.44 5.44 0 0 0-.43-.34Z" fill="#72B56C" />
    <path d="M4.64 141.17s-1.9 4.6-.63 3.66c1.28-.94 1.83-2.2 1.83-2.2l-.63.12-.56-1.58Z" fill="#54823F" />
    <path opacity=".51" d="M1.82 134.13c-4.41-5.19-18.02 1.24-18.02 1.24 3.08-2.05 8.65-5.03 13.4-6.08 3.81-.83 3.48 2.23 3.75 2.67.1.17.45 1.07.87 2.17Z" fill="#54823F" />
    <path d="M19.38 178.77c-4.41-2.05-7.27-1.57-10.79 1.99a16.13 16.13 0 0 0-4-4.32c3.86-4.86 9.74-4.3 14.82-2.3 9.01 4.18 12.49 1.77 15.38-9.54 1.3-5.11 2.35-10.9 5.21-16.2 2.63-4.83 3.1-6.73 8.05-7.88.33.28.53.72.86 1.04-2.24.47-1.64 1.88-3.26 3.79-3.49 3.81-6.1 9.82-7.29 15.32-1.13 5.27-2.15 10.5-3.8 14.95-3.63 9.76-8.73 7.06-15.18 3.15Z" fill="#464558" />
    <path opacity=".29" d="M44.44 146.8a28.88 28.88 0 0 0-2.69 4.32 6.38 6.38 0 0 1-3.57 1.26 33.45 33.45 0 0 1 1.82-3.97c.57-1.05 1.04-1.97 1.48-2.76 1-.18 2.96-.35 2.96 1.15ZM38.74 159.08c-.14.53-.27 1.06-.38 1.59l-.4 1.89-3.17 2.04c.4-1.56.77-3.19 1.18-4.84l2.77-.68ZM22.38 180.51a69.6 69.6 0 0 1-3-1.74c-3.76-1.74-6.38-1.66-9.25.6a6.04 6.04 0 0 1 6.56-3.35c3.53.6 5.11 3.2 5.69 4.49Z" fill="#2B2B37" />
    <path d="M16.86 173.29c-6.91-.05-9.05 6.21-9.08 6.3a15.58 15.58 0 0 0-3.2-3.16c3.23-4.06 7.87-4.33 12.28-3.14ZM27.15 179.6c-3.62.23-4.75-2.44-5.1-4.37 6 2.11 9.12.29 11.5-6.47 1.17 3.1-1.27 10.52-6.4 10.84ZM47.42 143.46s4.49 6.55 1.57 12.4c-2.93 5.86-15.34 3.83-17.58 10.84-2.24 7-11.46 5.28-11.46 5.28l-3-5.28s7.53 2 9.38-2.62c2.75-6.86 6.8-4.58 15.47-6.94 8.67-2.36 4.59-12.88 4.59-12.88l1.03-.8Z" fill="#575770" />
    <path d="M49.92 152.61c-.64-2.37-2.52-3.45-2.52-3.45l-.06-.06c-.07-1.92-.54-3.61-.8-4.39l1.17-.78c.74 1.24 2.6 4.82 2.21 8.68Z" fill="#464558" />
    <path opacity=".14" d="M25.33 168.9c-2.36 1.12-4.93.8-7.08.1l-1.3-2.3s7.53 2 9.38-2.62c.45-1.13.94-2.01 1.48-2.7.69 2.1 1.2 5.77-2.48 7.52ZM43.99 156.23c-.57 2.63-4.55 4.49-9.24 4.39-2.26-.05-3.64-.58-4.49-1.18 2.61-1.15 6.2-.85 11.54-2.3a8.68 8.68 0 0 0 2.19-.91Z" fill="#D8D8D8" />
    <path d="M47.68 147.8c-.62.12-2.16-.29-3.99 1.09-2.16 1.63-4.31.24-4.31.24a13 13 0 0 0 .73-2.32 12.3 12.3 0 0 0-.59-6.32c.52-2.48 3.55-.52 4.61-1.63.33-.35.8-.47 1.29-.48a6.04 6.04 0 0 1 2.26.51c4.45 3.27.62 8.8 0 8.91Z" fill="#575770" />
    <path opacity=".29" d="M47.68 147.8c-.62.12-2.16-.29-3.99 1.09-2.16 1.63-4.31.25-4.31.25a13 13 0 0 0 .73-2.33c2.6-1.42 7.33-4.65 5.3-8.43a6.04 6.04 0 0 1 2.27.51c4.45 3.28.62 8.8 0 8.92Z" fill="#2B2B37" />
    <path d="M196.06 224.1c8.04 1.99 169.59 20.94 142.72-53.16-2.88-7.94-37.07-14.2-35.14-4.38 1.49 7.57-3.94 12.31-11.36 10.34-21.37-5.69-29.4-12.2-39.14 2.17-9.75 14.38-26.19 24.87-46.91 26.06l-10.17 18.97Z" fill="#F6FBFF" />
    <path d="M198 226.56c8.04 2 169.59 20.95 142.72-53.15-2.88-7.94-32.65-16.24-30.72-6.41 1.49 7.57-6.58 14.47-14 12.5-21.37-5.69-28.76-11.37-38.5 3-9.75 14.37-28.61 23.9-49.33 25.1L198 226.56Z" fill="#DBEEFF" />
    <path d="M208 237.42c8.5 1.97 179.21 20.75 150.82-52.64-3.05-7.86-34.5-16.09-32.47-6.35 1.58 7.5-6.95 14.33-14.79 12.38-22.58-5.63-30.4-11.26-40.68 2.97-10.3 14.23-30.24 23.67-52.13 24.86L208 237.42ZM203.17 210.97c-20.72-1.24-58.72-46.98-77.15-36.5-3.66 2.08-10.15 3.7-18.33-2.82-13.88-11.08-24.91-12.66-22.95.1 1.95 12.77-25.4-.73-40.72-7.57-23.18-10.34-72.73 1.85-65.52 30.82 7.21 28.96 224.67 15.98 224.67 15.98v-.01Z" fill="#F6FBFF" />
    <path d="M202.17 220.97c-20.72-1.24-52.74-53.95-71.17-43.47-3.66 2.08-13.32 8.52-21.5 2-13.88-11.08-24.96-18.26-23-5.5 1.95 12.77-26.68 3.34-42-3.5-23.18-10.34-74.21 5.53-67 34.5 7.21 28.96 224.67 15.98 224.67 15.98v-.01Z" fill="#DBEEFF" />
    <path d="M243 234.07c-17.78-.86-65.98-28.8-85-41.07-17.25-11.15-28.94-15.34-26.5-2.5 2.42 12.84-60.47.38-79.5-6.5-28.8-10.4-97.1 4.87-88.14 34.01C-27.18 247.14 243 234.08 243 234.08Z" fill="#F6FBFF" />
    <path d="M297 167.9c.3-4.13-3.96-11.12-7.2-10.9-13.82.99 6.54 20.22 7.2 10.9Z" fill="#D6ECFF" />
    <path d="M195.97 201.65c.51-7.07-6.91-19.03-12.6-18.64-24.13 1.68 11.45 34.59 12.6 18.64ZM90.1 180c2.85 3.44 7.08 3.66 8.87 2.17 1.8-1.48 3.32-3.82.47-7.25-2.84-3.43-8.81-5.73-10.6-4.25-1.8 1.49-1.58 5.9 1.27 9.34Z" fill="#F6FBFF" />
  </g>
  <defs>
    <clipPath id="a">
      <path fill="#fff" d="M0 0h320v194H0z" />
    </clipPath>
  </defs>
</svg>