<svg width="320" height="194" fill="none" xmlns="http://www.w3.org/2000/svg">
  <g clip-path="url(#a)">
    <path fill="#E4F3FF" d="M0 0h320v194H0z"/>
    <path d="M196.77 143.1c2.73-1.07 4.88-3.22 7.09-5.15a53.87 53.87 0 0 1 18.84-10.58c2.85-.92 5.96-1.58 8.8-.6 3.89 1.32 6.24 5.45 6.82 9.52.6 4.08-.2 8.2-.65 12.3-.45 4.09-.54 8.43 1.35 12.08.65 1.26 1.55 2.7.96 4-.48 1.07-1.74 1.48-2.88 1.76a62.48 62.48 0 0 1-33.97-1.32c-2.66-.86-5.3-1.95-7.43-3.77-3.6-3.1-5-7.7-5.6-12.26-.2-1.55-1.07-5 .37-5.93.96-.59 4.7.57 6.3-.05Z" fill="#F3F3F3"/>
    <path opacity=".64" d="M237.58 155.81c-7.67-.3-15.24-3.56-20.38-9.34a26.65 26.65 0 0 1-5.42-9.54c-.4-1.23-.82-2.58-1.1-3.98a52.18 52.18 0 0 0-6.82 5.03c-2.21 1.92-4.36 4.08-7.09 5.16-1.59.62-5.32-.54-6.29.08-1.41.92-.55 4.38-.36 5.93.6 4.55 2 9.17 5.6 12.26 2.13 1.82 4.77 2.9 7.43 3.77a62.5 62.5 0 0 0 33.97 1.32c1.14-.28 2.41-.71 2.88-1.77.59-1.3-.31-2.73-.97-4-.8-1.58-1.22-3.23-1.45-4.92Z" fill="#F3F3F3"/>
    <path opacity=".64" d="M239.03 160.69c-1.88-3.67-1.81-8.01-1.34-12.09.44-4.1 1.26-8.21.65-12.3-.57-3.92-2.76-7.9-6.41-9.37.03.6.03 1.2.03 1.73-.15 10.53-8.8 18.57-17.71 22.8a48.82 48.82 0 0 1-17.43 4.5c-1.65.1-3.3.1-4.92.02a14.4 14.4 0 0 0 3.84 5.4c2.12 1.81 4.77 2.9 7.43 3.77a62.48 62.48 0 0 0 33.96 1.31c1.14-.28 2.42-.7 2.89-1.76.55-1.32-.33-2.75-.99-4.01Z" fill="#E9E9E9"/>
    <path d="M-8.58 79.49c6.6-3.17 11.51-8.92 16.61-14.18 5.9-6.09 12.57-11.85 20.66-14.42 8.08-2.58 17.88-1.28 23.52 5.06 6.93 7.82 5.43 19.63 6.69 30 .93 7.7 3.85 15.46 9.7 20.55 4.02 3.49 9.12 5.48 14.2 7.02 7.95 2.4 16.94 3.78 24.27-.14 7.4-3.98 11.2-12.31 17.08-18.31 4.02-4.1 9.26-7.2 14.98-7.82 5.7-.62 11.84 1.52 15.3 6.12 5.4 7.21 2.95 17.3 3.38 26.28.96 20.13 17.93 36.7 37 43.21 3.8 1.3 7.9 2.4 10.7 5.28 5.06 5.13 3.99 13.54 2.15 20.5-1.28 4.86-2.94 9.97-6.84 13.11-4.11 3.32-9.78 3.75-15.06 3.82-32.66.49-64.86-7-96.67-14.44C61.18 184.6 33.04 178 7.05 165.91c-4.14-1.92-8.34-4.08-11.24-7.6-5.48-6.62-5.05-16.1-5.46-24.67a97.86 97.86 0 0 0-8.85-36.1c-1.21-2.61-8.9-15.1-6.43-16.96 1.2-.92 6.34.95 7.97.91 2.9-.05 5.79-.76 8.38-2Z" fill="#F3F3F3"/>
    <path opacity=".34" d="M205.54 168.16c-2.82-2.88-6.92-3.96-10.72-5.28-19.05-6.52-36.02-23.1-36.99-43.2-.43-9 2.02-19.08-3.39-26.3a14.75 14.75 0 0 0-2.26-2.38 54.86 54.86 0 0 1-4.75 7.39 39.15 39.15 0 0 1-7.82 7.59c-3.1 2.28-6.55 3.87-9.9 5.75-1.73.97-4.04 2.44-6 1.21-1.34-.84-2.02-2.48-2.45-3.94-.88-3-1.06-6.3-.85-9.5-4.02 5.18-7.59 10.85-13.3 13.91-7.34 3.93-16.32 2.54-24.27.14-5.1-1.54-10.2-3.53-14.21-7.02-5.84-5.08-8.76-12.85-9.7-20.54-1.26-10.38.24-22.19-6.69-30-5.63-6.35-15.43-7.64-23.52-5.07-8.12 2.54-14.8 8.3-20.69 14.39-5.1 5.26-10 11.01-16.61 14.18a20.59 20.59 0 0 1-8.35 2.02c-1.62.04-6.76-1.82-7.97-.92-2.47 1.85 5.22 14.36 6.43 16.97a97.86 97.86 0 0 1 8.85 36.1c.42 8.58-.01 18.07 5.46 24.67 2.9 3.51 7.1 5.68 11.24 7.6 26 12.08 54.13 18.69 82.05 25.22 31.82 7.44 64.02 14.92 96.67 14.44 5.27-.09 10.94-.5 15.05-3.82 3.9-3.15 5.57-8.27 6.85-13.1 1.81-7 2.88-15.38-2.16-20.51Z" fill="#D8D8D8"/>
    <path d="M32.18 96.42c33.1-12.18 38.35-40.48 56.34-42.66 32.05-3.9 23.37 50.99 25.36 62.7 1.12 6.53 3.84 13.12 9.1 17.13 21.75 16.51 56.28-14.2 59.57-15.8 7.09-3.44 16.56-4 22.02 1.67 9.89 10.3-1.42 30.07 8.05 40.76 4.69 5.29 12.8 5.97 19.7 4.53 74.49-15.39 91.7 63.25 86.93 70.03-5.67 8.04-40.19-5.33-49.9-3.74-44.96 7.35-90.91 2.06-136.16-3.25-23.5-2.75-47-5.51-70.37-9.18-22.85-3.63-46.3-8.1-68.94-3.27-9.37-29.25-10.93-60.36-11.69-91.07-.15-6.5-.22-31.57 10.51-28.8 6.67 1.72 12.17 4.3 19.32 4.42a55.7 55.7 0 0 0 20.16-3.47Z" fill="#F3F3F3"/>
    <g opacity=".34">
      <path opacity=".34" d="M175.62 168.28c-.71 2.47-1.09 5.17-.43 7.7 5 19.24 46.44-2.69 67.75-11.18a104.5 104.5 0 0 1 5.5-2.04c-5.05.16-10.4.78-16.11 1.96-6.92 1.43-15.02.76-19.7-4.53-9.48-10.67 1.83-30.47-8.06-40.76-.86-.9-1.83-1.64-2.89-2.25 11.67 17.55-21.03 33.46-26.06 51.1Z" fill="#A4A4A4"/>
      <path opacity=".34" d="M212.62 160.2c-3.37-3.8-4.11-8.75-4.11-14-.57.77-1.18 1.52-1.81 2.23a32.3 32.3 0 0 1-4.97 4.23c-3.63 2.65-7.57 5.09-10.12 8.9-2 2.93-3.95 6.56-3.2 10.24.72 3.6 4.11 5.12 7.48 5.33 2.56.16 5.17-.31 7.66-.88a43.82 43.82 0 0 0 6.9-2.2c4.4-1.8 8.36-4.3 12.46-6.67 1.2-.7 2.43-1.39 3.7-2-5.3.1-10.55-1.3-13.99-5.18Z" fill="#888"/>
      <path opacity=".34" d="M263.77 163.88c25.72 17.38-44.77 19.94-85.28 38.08 14.3-.2 76.72 31.38 90.88 29.07 9.71-1.6 44.23 11.77 49.9 3.73 3.99-5.69-7.52-62.14-55.5-70.88Z" fill="#A4A4A4"/>
      <path opacity=".34" d="M292.58 177.28c1.14 4.67 1.1 9.55-.72 14.18-3.44 8.65-11.53 14.01-19.4 18.23a106.83 106.83 0 0 1-18.06 7.6 115.16 115.16 0 0 1-27.74 17.3c14.3-.21 28.55-1.27 42.7-3.58 9.72-1.6 44.24 11.77 49.9 3.73 3.03-4.28-2.83-37.7-26.68-57.46Z" fill="#888"/>
      <path opacity=".34" d="M103.97 60.42c10.9 28.89-44.99 31.57-33.82 84.6 4.56 21.67 27.59 52.96 75.38-6.12.46-.57.96-1.1 1.48-1.63-8.34 2.06-16.87 1.73-24-3.7-5.28-4-8-10.6-9.11-17.13-1.66-9.61 3.9-48.36-11.83-59.72.77 1.15 1.4 2.38 1.9 3.7Z" fill="#A4A4A4"/>
      <path opacity=".34" d="M122.21 140.18c-.67 1.3-.86 2.78.2 3.92 1.1 1.15 2.72 1.35 4.2 1.11 2.7-.43 5.42-1.99 7.27-3.98.8-.88 1.52-1.85 2.17-2.85a24.05 24.05 0 0 1-9.88-2.77 15.14 15.14 0 0 0-3.96 4.57ZM113.08 84.88a47.82 47.82 0 0 1-4 5.83c-6.85 8.6-15.73 15.2-23.48 22.91-4 3.98-7.78 9.73-5.68 15.6 1.76 4.96 6.93 7.78 11.78 8.94 5.62 1.33 11.3.62 16.82-.82 4.74-1.22 9.39-2.73 14.1-4.04-5.04-4.03-7.67-10.46-8.76-16.84-.86-5.12.31-18.49-.78-31.58Z" fill="#888"/>
    </g>
    <path opacity=".5" d="M89.75 70.12c.52.15 1.1-.07 1.3-.57.05-.14.07-.28.07-.42-.02-.3-.18-.59-.39-.81a3.48 3.48 0 0 0-2.86-1.02c-1.04.07-2 .48-2.9.93.94-.6 1.98-1.17 2.65-2.06.68-.88.89-2.2-.03-3.06-.81-.77-2.2-.86-3.37-.74-2.39.26-4.6 1.2-6.26 2.58-.62.48-1.5 1.31-2.14 2.2-.57.79.07 1.88 1.04 1.77 4.35-.52 8.72-.1 12.89 1.2Z" fill="#D8D8D8"/>
    <path d="M83.98 64.41c.52-.52.83-1.26.55-1.94-.16-.4-.47-.69-.83-.91a4.72 4.72 0 0 0-3.96-.33c-1.3.43-2.43 1.23-3.56 2.04 1.16-1.02 2.33-2.1 2.96-3.51.6-1.42.45-3.29-.76-4.22-1.1-.85-2.67-.7-4.01-.35-2.73.7-5.3 2.01-7.47 3.8-1.42 1.15-4.2 3.4-4.51 5.42h21.59Z" fill="#D8D8D8"/>
    <path d="M77.96 62.08c-.43.67 1.04.95 1.45.96.95.06 1.92-.3 2.72-.8.43-.25.81-.58 1.12-.94a4.9 4.9 0 0 0-3.5-.07c-.63.2-1.22.48-1.77.83 0 0 0 .02-.02.02Z" fill="#fff"/>
    <path d="M67.6 62.44c2.6.17 5.87.17 7.96-1.64 1.23-1.08 2.23-2.94 1.49-4.55a4.3 4.3 0 0 0-.99-1.33c-.57.01-1.14.14-1.7.27-2.72.7-5.28 2.01-7.46 3.8-.83.66-2.14 1.74-3.15 2.91 1.25.31 2.56.47 3.84.54Z" fill="#F3F3F3"/>
    <path d="M245.91 145.04c.37 0 .63-.35.52-.7-.22-.69-1.14-.88-1.85-.67-.69.2-1.28.68-1.99.88a2.32 2.32 0 0 0 1.6-2.33c-.11-1.18-1.18-2.13-2.34-2.37a5.8 5.8 0 0 0-3.47.52c-1.18.5-2.25 1.23-3.25 2-.59.47-1.25.99-1.35 1.77-.02.1-.02.24-.02.38.02.3.26.52.54.52h11.61Z" fill="#D8D8D8"/>
    <path d="m-16.71 214.42 56.6.46 20.35.16s-3.69-33.45-5.5-46.86c-.24-1.8-.46-3.24-.62-4.19-1.55-9.07-56.91-7.63-56.91-7.63L-16.7 214.4h-.01Z" fill="#565673"/>
    <path d="m-16.71 214.42 56.6.46 20.35.16s-3.69-33.45-5.5-46.86c-.24-1.8-.46-3.24-.62-4.19-1.55-9.07-56.91-7.63-56.91-7.63L-16.7 214.4h-.01Z" fill="#2B2B37" fill-opacity=".45"/>
    <path opacity=".25" d="M20.5 222.06c-.4.71-.33-20.3 1.07-37.36.27-3.27 2.38-12.87 2.38-12.87l-30.13-9-9.7 20.58 1.34 39.59 35.03-.94Z" fill="#272734"/>
    <path opacity=".25" d="M8.42 219.88c-.39.72-.32-20.29 1.08-37.36.27-3.27 2.38-12.87 2.38-12.87l-30.13-9-9.7 20.59 1.34 39.58 35.03-.93v-.01Z" fill="#2B2B37"/>
    <path opacity=".14" d="M53 215.04h7.24s-3.69-33.45-5.5-46.86l-9.75.7s9.4 26.55 8 46.16Z" fill="#565673"/>
    <path d="M85.86 138.66c.14-.06-.22-8.96-.71-8.8-1.34.43-12.6-2.95-12.72-3-1-.59-2.17-.44-2.83.56-2.9 3.5-2.28 10.64-.29 12.18 2.13 1.47 14.74-.65 16.55-.94Z" fill="#21212B"/>
    <path d="M79.88 129.25c1-.13 2.01.12 2.99.34 2.9.68 5.96 1.21 8.85.49.72-.19 1.76-.28 1.95.45.12.44-.25.88-.6 1.17a10.52 10.52 0 0 1-7.75 2.46c-1.15-.11-2.6-.29-3.19.7-.34.55-.26 1.3-.7 1.78-.3.3-.77.4-1.21.43a7.35 7.35 0 0 1-3.47-.57c-1.07-.47-2.13-1.37-2.1-2.54.02-.88.64-1.61 1.25-2.24 1.1-1.14 2.39-2.26 3.98-2.47Z" fill="#D58500"/>
    <path opacity=".36" d="M81.41 136.64c.99-2.38.93-2.8 3.9-2.48 2.1.43 8.38-1.2 8.3-3.75-1.2 1.15-3.57 1.33-4.69.02-3.06.2-6.03-1.26-9.06-1.18-2.19.46-4.76 2.45-5.24 4.72.23 2.72 4.69 3.89 6.8 2.67Z" fill="#B45F00"/>
    <path opacity=".36" d="M81.41 136.64c1.57-5.11 3.93-.52 9.76-3.66-1.73.16-2.76-1.41-3.72-2.6-2.57-.05-5.04-1.27-7.59-1.13-2.19.46-4.76 2.45-5.24 4.72.23 2.72 4.69 3.89 6.79 2.67Z" fill="#B45F00"/>
    <path d="M86.92 145.96c.18-.08.3-.24.43-.4a28.7 28.7 0 0 0 4.4-7.26c.1-.27.21-.57.13-.83-.07-.19-.21-.33-.36-.47l-2.95-2.87s-3.25-2.14-3.8-2.19c-2.35-.23-4.83-.3-7.02.65-2.19.95-3.97 3.18-3.7 5.54.27 2.25 2.22 3.9 4.2 5.03a24.6 24.6 0 0 0 7.7 2.86c.33.05.68.1.97-.06Z" fill="#D58500"/>
    <path d="M86.92 145.96c.18-.08.3-.24.42-.4a28.78 28.78 0 0 0 3.86-6.05c-.22-.07-.47-.41-.68-.53-.38-.04-2.48-2.27-2.83-2.44-.45-.21-4.8-1.12-6.37.3a8 8 0 0 0-2.4 6c0 .24.02.47.03.71 2.2 1.17 4.55 2.01 6.99 2.47.33.05.7.1.98-.06Z" fill="#B45F00"/>
    <path opacity=".4" d="M90.6 130.73a1 1 0 0 0 .15.36c.12.15.33.23.53.22.2 0 .39-.08.56-.16.32-.16.62-.39.86-.65a3.05 3.05 0 0 1-1.42.52.9.9 0 0 1-.68-.3Z" fill="#9B4300"/>
    <path d="M-43.34 155.43c2.9-7.23 18.34.9 24.49-13.63 1.78-4.2 2.23-8.82 2.6-13.37 1.28-15.01 5.85-14.75 11.67-17.59a18.22 18.22 0 0 0 8.97-9.6A15.94 15.94 0 0 0 3.7 88.2c-4.62 21.37-18.13 14.2-25.02 36.93-1.37 4.53-4.75 8.17-8.4 11.16-3.75 3.08-16.61 10.67-16.83 19.14h3.2Z" fill="#74A352"/>
    <path d="M-9.15 107.06c.49-.19.95-.38 1.43-.55 3.88-1.46 7.66-2.99 10.69-5.9.87-.85 1.63-1.77 2.29-2.74.5-3.3-.02-6.72-1.58-9.65C1.2 99.75-3.9 102.97-9.15 107.06Z" fill="#3E5C2E"/>
    <path d="M.16 98.16a35.47 35.47 0 0 0 5.11-5.13c-.24-1.7-.77-3.33-1.57-4.84-1 4.57-2.4 7.84-4.04 10.38l.5-.41Z" fill="#3E5C2E"/>
    <path d="M10.57 73.27c-1.81 18.9-20.1 12.26-26.13 14.99-1.53.7-2.86 1.8-3.98 3.06a17.22 17.22 0 0 0-2.96 4.7c-1.05 2.5-1.48 5.21-1.79 7.91-.8 6.76-1 13.61-.28 20.38 1.29 12.04.18 12.45-9.62 20.3 7.9-1.7 9.8-6.67 10.51-12.47.7-5.67-4.08-48.75 17.93-42 .86.33 1.66.6 1.99.71 10.5 3.7 20.55-1 18.7-17.6h-4.37v.02Z" fill="#3E5C2E"/>
    <path d="M10.56 73.27C9.41 85.21 1.7 86.97-5.36 87.31c5.9 2.76 12.2 3.2 17.93-.16 2.07-3.06 3.08-7.62 2.38-13.88h-4.39Z" fill="#568040"/>
    <path d="M13.55 73.27c.28.57.57 1.14.88 1.7.22.39.46.88.73 1.4-.03-.98-.1-2.02-.2-3.11h-1.4v.01Z" fill="#3E5C2E"/>
    <path d="M11.45 73.27h-.89c-.8 8.37-4.84 11.74-9.6 13.1.5-.04 1-.1 1.46-.15 2.66-.32 5.5-.96 7.46-2.9 2.36-2.32 2.96-5.95 1.98-9.04-.12-.34-.26-.67-.4-1Z" fill="#74A352"/>
    <path d="M3.92 92.44c.29.61.6 1.26 1.12 1.7.57.5 1.34.7 2.05.8 1.46.18 3 .04 4.45.02 1.27-.01 2.46-.21 3.64-.6-.48.04-.96.04-1.44 0-1.06-.12-2.08-.55-3.13-.74-1.1-.2-2.2-.16-3.28-.42-1.68-.42-3.1-1.54-4.4-2.77.37.63.66 1.33.99 2.01Z" fill="#3E5C2E"/>
    <path d="M42.13 96.04c0 .94.02 1.88.06 2.82v.07c0 .2.02.38.03.57v.02l.03.65v.02a72.23 72.23 0 0 0 .5 5.61c.19 1.56.42 3.1.69 4.64l.04.21a82.4 82.4 0 0 0 2.33 9.72l.02.09a81.56 81.56 0 0 0 1.11 3.38l.13.36v.04l.25.67.43 1.14.17.46.05.12.26.67.11.27a67.6 67.6 0 0 0 1.08 2.55l.04.1.03.04a80.79 80.79 0 0 0 2.88 5.85l.22.42 1.97-1.4 1.76-1.25.13-.1.14-.1.12-.08.88-.63.7-.5 1.1-.78.62-.45.63-.44.41-.3.02-.01.25-.19.25-.17 1.49-1.06.51-.37.86-.6 1.24-.9 1.25-.89.22-.15 1.07-.77.9-.64 1.25-.89c-.1-.03-.2-.08-.3-.13-1.06-.51-1.92-1.74-2.7-3.49l-.18-.43a39.08 39.08 0 0 1-1.41-4.03l-.52-1.72-.19-.65-.33-1.13-.15-.53v-.03a627.97 627.97 0 0 0-1.22-4.13l-.23-.74-.33-1.04a110.3 110.3 0 0 0-1.27-3.72l-.1-.3-.35-.9c-.16-.45-.34-.88-.51-1.32l-.26-.63c-2.6-6.26-6.29-12.52-12.12-17.17l-.01-.01-.83-.64-.43-.32-.36-.25-.97-.66-.08.03-.73.23-1.29.41v.02l-.25 1.24v.09a88.37 88.37 0 0 0-.26 1.62l-.11.85-.11.85-.1.85-.06.48-.04.37-.08.85v.01l-.08.85c-.2 2.46-.3 4.93-.27 7.4Z" fill="#454358"/>
    <path opacity=".29" d="M42.13 96.04a85.48 85.48 0 0 0 5.64 30c1.38 3.58 3 7.08 4.87 10.44l16.48-11.73 1.25-.89c-3.57-1.88-4.28-7.9-5.63-11.62C61.3 100.1 56.96 87.28 45.6 79.9l-2.1.67-.25 1.26v.01h.01a82.88 82.88 0 0 0-1.12 14.2Z" fill="#2B2B37"/>
    <path opacity=".29" d="M52.62 136.43a84.9 84.9 0 0 1-9.43-54.65c.12-.38.17-.8.3-1.22l2-.67c1.05 1.22 2.48 2.81 3.1 3.77 9.14 14.42.22 18.15 9.98 35.8 1.6 2.88 3.12 6.45 5.5 8.85l-11.45 8.12Z" fill="#2B2B37"/>
    <path opacity=".25" d="M52.64 136.43a84.76 84.76 0 0 1-9.39-54.61l.25-1.26 1.71-.54c-1.26 5.82-.76 11.99.34 17.9 1.51 8.05 3.73 15.67 8 22.72 2.02 3.3 4.33 7.17 7.2 10.28l-8.1 5.51Z" fill="#272734"/>
    <path opacity=".48" d="M45.58 79.9c.26.16.5.32.71.5 1.18 1.33 2.02 3.05 2.77 4.48A31.27 31.27 0 0 1 52 92.2c1.51 6.54 1.13 13.12.29 19.7-.8 6.36-1.67 12.74-2.01 19.15 0 .25-.05.5-.05.75a84.74 84.74 0 0 1-7.03-49.96l.25-1.25 2.14-.72v.01Z" fill="#2B2B37"/>
    <path d="M50.78 84.25c.98.75 10.92 13.2 5.82 11.81-3.18-2.57-6.84-7.61-5.82-11.81Z" fill="#464558"/>
    <path opacity=".25" d="M-.97 145.57h.04c.56.08 1.11.19 1.64.27h.01l.15.03c-.56-.2-1.08-.44-1.64-.65l-.04-.01-.03-.02c-.05.12-.1.25-.13.38Z" fill="#272734"/>
    <path d="M57.75 176.2C43.15 184.7.6 179-16 176.66c.35-1.14 4.14-8.2 5.04-9.57v.01h.01c5.17-7.77 7.16-13.36 10.1-21.87 4.15 1.67 8.4 3.1 12.7 4.28 6.7 1.72 13.57 3.43 20.52 3.44 5.23-.02 10.06-2.26 15.1-3.3.92-.17 1.85-.33 2.78-.4v.01c3.12 8.33 4.83 15.97 7.5 26.94Z" fill="#565673"/>
    <path opacity=".25" d="M57.75 176.2c-2.6 1.44-5.91 2.48-9.72 3.2-17.96 3.38-46.91-.39-64.03-2.74.4-1.22 3.8-7.62 5.04-9.56h.01c4.62-6.7 7.53-14.19 10.1-21.87 10.6 4.06 21.81 7.4 33.22 7.72 6.16-.01 11.79-3.16 17.88-3.7 1.48 3.97 2.65 7.79 3.76 11.88 1.2 4.5 2.34 9.32 3.74 15.06Z" fill="#2B2B37"/>
    <path opacity=".25" d="M48.03 179.4C30.07 182.78 1.12 179-16 176.66c.4-1.22 3.8-7.62 5.04-9.56h.01c4.62-6.7 7.53-14.19 10.1-21.87 10.6 4.06 21.81 7.4 33.22 7.72 6.16-.01 11.79-3.16 17.88-3.7 1.48 3.97 2.65 7.79 3.76 11.88-3.15 3.28-7.53 8.64-5.98 18.27Z" fill="#2B2B37"/>
    <path opacity=".25" d="M14.5 150.22c-.43.85-6.9 17.42-10.44 28.93-7.61-.8-14.63-1.75-20.06-2.5.4-1.21 3.8-7.63 5.05-9.56v.01c4.62-6.7 7.53-14.18 10.1-21.87 5 2.01 10.12 3.7 15.34 4.99Z" fill="#272734"/>
    <path opacity=".25" d="M50.4 153.12c-4.52 4.73-1.88 8.2-1.93 8.23-1.55 1.67-8.04 4.13-10.21 3.37-12.3-4.07-39.85-3.22-51.19 12.37l-3.07-.43c.35-1.14 4.14-8.2 5.04-9.56h.01c5.18-7.7 7.2-13.65 10.14-21.86 10.18 3.9 20.97 7.14 31.91 7.69 6.64.4 12.68-3.05 19.18-3.67l-.03.01v.01c-.08.43.3 1.43.37 1.87.25 1.17.7 1-.21 1.97Z" fill="#2B2B37"/>
    <path opacity=".25" d="M50.36 150.35c-2.22 1.25-4.15 3.81-5.66 5.28-5.91 5.87-15.13 2.01-21.62-.93-3.4-1.55-7.21-3.48-11.24-5.2 3.99 1.1 8.05 2.02 12.16 2.69 3.69.63 7.47 1.04 11.2.54 5.1-.67 9.88-3.05 15.03-3.48-.12 0 0 .59.13 1.09Z" fill="#272734"/>
    <path opacity=".25" d="M-4.16 154.42c12.23-3.32 50.01.17 54.82-3.33a4.06 4.06 0 0 1-.37-1.88c-.94.08-40.51.05-51.1-4.02-1.08 3.21-2.24 6.56-3.35 9.23Z" fill="#272734"/>
    <path d="M-10.69 85.44c.05 2.08.61 4.17.54 6.25.7 11.42 6.6 22.04 11.57 32.17 1.51 2.9 2.98 5.8 4.09 8.88 1.06 2.9 1.83 6.05 3.5 8.68 4.59 6.34 16.03 9.48 23.37 11.49.06.01.11.03.17.03.03.03 9.6 0 9.64.02v-.76h3.72a9.05 9.05 0 0 0 1.57-2.55c1.44-3.5 1.52-7.43 1.79-11.16.31-5.76.2-11.54.04-17.3-.36-13.53 4.51-28.96-2.74-40.64-1.93-2.61-8.65-3.19-11.8-5.26-.38-.19-.77-.36-1.18-.52-9.26-2.81-19.44-2.78-28.5.73-4.14 1.46-10.75 2.7-14.41 5.95h.01a5.23 5.23 0 0 0-1.38 4Z" fill="#575770"/>
    <path opacity=".25" d="M-10.13 91.68c-.14 4.3 1.42 8.47 2.79 12.5 3.18 10.01 8.98 18.9 12.88 28.58 1.81 5.76 3.54 11.12 9.55 13.7a71.41 71.41 0 0 0 17.5 6.48h9.62v-.75h3.72a9.1 9.1 0 0 0 1.56-2.54c1.01-2.36 1.33-5.04 1.54-7.58v-.01c.77-7.94.3-15.9.3-23.86a41.9 41.9 0 0 1-4.36-.87l-.03-.01C29.6 113.7 16.58 103.14 9.47 89.15c-2.42-4.22-4.17-8.9-3.87-13.82-4.38 1.62-10.97 2.73-14.92 6.12h.03c-2.68 2.83-.64 6.75-.84 10.23Z" fill="#2B2B37"/>
    <path opacity=".25" d="M27.77 73.48c4.55.33 7.32 2.4 11.77 3.83-3.79 11.01 3.7 22.02 10.4 30.28-.54 5.86-.9 11.46-.62 17.19-2.74-9.2-21.15-40.14-42.42-49.84 7.17-2.47 13.33-2.6 20.88-1.47l-.01.01Z" fill="#2B2B37"/>
    <path opacity=".25" d="M-10.36 83.16c2.3-1.61 7.58-6.88 9.85-5.24 6.99 5.03 14.67 40.49 49.87 46.74-.38 8.66 1.52 20.23-3.48 27.58h-3.73v.76c-9.74.86-18.63-1.91-27.12-6.5-5.92-2.4-7.92-8.34-9.68-14.04-6.75-15.62-17.7-31.62-15.71-49.3Z" fill="#2B2B37"/>
    <path opacity=".25" d="M-9.32 81.45c.71-.72 1.71-1.34 2.9-1.93 3.56-.88 6.62-3.94 9.84 3.94 2.86 6.92 4.44 40.4 45.98 44.21.09 5.5-.04 11.02-.63 16.47-.34 2.85-1.08 6.04-2.9 8.05l-13.32.75a71.21 71.21 0 0 1-17.51-6.49 19.3 19.3 0 0 1-4.48-3.05c-2.9-2.9-3.77-7.17-5.2-10.98-1.55-4.24-3.81-8.18-5.87-12.2a132.72 132.72 0 0 1-7.79-18.7c-1.04-3.18-2.01-6.49-1.88-9.84.17-3.69-1.72-7.62.88-10.23h-.02Z" fill="#2B2B37"/>
    <path opacity=".25" d="M38.59 80.6c-1.89 2.6-5.74 3.23-8.72 3.15-6-.17-11.7-1.85-17.48-3.23-5.33-1.3-11.28-2.64-16.73-1.21-1.3.34-2.8.84-4.28 1.55 3.4-2.55 10.99-4.31 14.67-5.65 7.5-2.68 13.83-2.9 21.71-1.72 2.68.42 5.45.89 7.8 2.31.95.59 2.85 1.13 4.77 1.76a18.27 18.27 0 0 1-1.75 3.06v-.01Z" fill="#2B2B37"/>
    <path opacity=".25" d="M-10.36 83.16a18.06 18.06 0 0 1 5.02-2.43c1.6 15.86 12.04 29.1 22.26 40.75 8.16 9.73 19.08 18.65 32.14 19.65-.3 3.74-.7 8.3-3.19 11.1h-3.73v.76c-9.74.86-18.64-1.91-27.11-6.5-5.92-2.4-7.92-8.34-9.68-14.04-6.75-15.62-17.7-31.61-15.71-49.29Z" fill="#2B2B37"/>
    <path opacity=".25" d="M-10.36 83.16a18.06 18.06 0 0 1 5.02-2.43C-4.38 87.44-2.6 93.9.91 99.97c4.44 7.7 9.02 19.17 14.89 25.83 6.03 6.6 24.22 14.3 33.26 15.33-.3 3.74-.7 8.3-3.19 11.1 0 0-22.37-1.15-30.84-5.74-5.92-2.4-7.92-8.34-9.68-14.04-6.75-15.62-17.7-31.61-15.71-49.29Z" fill="#2B2B37"/>
    <path opacity=".14" d="M47.72 88.14c-.38 6.41-8.64-3.55-4.45-6.25 2.7-.68 4.79 3.97 4.44 6.25h.01ZM20.94 86.43a34.73 34.73 0 0 1 4.52 5.28 7.62 7.62 0 0 1 1.51 3.14c-.3.17-.63.26-.97.17-.17.33.09.8.35 1.09 1.38 1.6 3.18 2.9 4.1 4.78.18.33.3.71.26 1.08-.08.38-.41.72-.8.63a1.01 1.01 0 0 1-.46-.3 72.69 72.69 0 0 1-11.31-12.94c-.72-1.05-1.39-2.19-1.34-3.44 0-.21.04-.37.12-.59.22-.34.59-.46.97-.46 1.17-.12 2.18.72 3.06 1.56h-.01Z" fill="#D8D8D8"/>
    <path d="M36.12 73.4S31.3 85.13 30.38 86.3c-.93 1.17 6 7.3 6.16 7.17.46-.33 3.73-21.21-.41-20.08h-.01Z" fill="#2B2B37"/>
    <path opacity=".25" d="M36.58 85.67c-.72.13-1.52-.67-1.85-1.21-.54-.84-.21-1.6.89-1.64 2.94-.17 1.5 2.77.97 2.85h-.02Z" fill="#454357"/>
    <path d="M32.5 81.82c1.68-3.73 3.62-8.46 3.62-8.46 1.8-.5 2.22 3.22 2.05 7.59-1.38 1.04-3.98 1.21-5.65.88l-.01-.01ZM30.37 86.3c.21-.3.67-1.17 1.21-2.38 1.97 1.13 4.44 2.76 5.87 4.78-.38 2.68-.8 4.7-.93 4.78-.21.12-7.12-6-6.16-7.17Z" fill="#21212B"/>
    <path d="m9.34 72.77 1.56 3.43c21.21 6.64 32.43 30.92 38.5 50.38 1.37-19.07-11.87-37.67-24.72-47.46-4.6-3.5-9.3-7.51-15.34-6.35Z" fill="#2B2B37"/>
    <path opacity=".25" d="M32.51 88.81c-.45-.75-1.04-1.64-1.3-2.5a4.95 4.95 0 0 1-.2-1.6A72.55 72.55 0 0 1 37 91.36a5.78 5.78 0 0 1-4.49-2.56Z" fill="#454357"/>
    <path d="M43.38 110.44c2.66 5.84 4.51 11.03 6.02 16.14a46.1 46.1 0 0 0-1.76-15.05c-1.45.66-2.77-1.17-4.26-1.1Z" fill="#21212B"/>
    <path opacity=".25" d="M41.02 101.86c1.51-.26 2.43 2.18 2.38 3.43 0 .26 0 .67-.12.93-.05-.04-.09-.04-.13-.08-.67-.5-1.17-1.22-1.67-1.89-.34-.41-1.72-2.18-.46-2.38v-.01Z" fill="#454357"/>
    <path d="m9.34 72.77 1.56 3.43a35.7 35.7 0 0 1 12.4 6.51c1.68.17 3.35-.1 4.93-.6-5.5-4.4-11.32-10.63-18.9-9.34Z" fill="#21212B"/>
    <path d="M3.17 144.58c.16.7.27 1.42.17 2.19v.05c-.04.28-.11.56-.21.84 2.02 1.36 5.29 2.63 9.22 3.65l1.29.32a77.84 77.84 0 0 0 7.27 1.38 87.6 87.6 0 0 0 6.19.67c8.83.65 17.73-.08 22.83-3.07l.02-.01.34-.2.07-.06.04-.02.1-.06-.13-.67-.52-2.94-.81-4.58v-.01l-.02-.06-.03.01-.22.06a72 72 0 0 1-4.84 1.17c-2.89.6-5.76.97-8.78 1.12a70.71 70.71 0 0 1-12.98-.62H22.09l-.16-.03a137.45 137.45 0 0 1-9.45-1.57 226.75 226.75 0 0 1-3.46-.72h-.03l-.05-.01-2.6-.57a220.8 220.8 0 0 1-2.45-.56l-1.05-.25c-.52 1.48-.12 2.77.2 4.07.05.14.08.29.12.44v.03Z" fill="#272734"/>
    <path opacity=".25" d="m43.91 143.22.02.02a8.45 8.45 0 0 0 1.95 1.9c.74.55 1.6 1.01 2.53 1.28h.03l.02.01c.46.13.92.2 1.39.22h.05l-.83-4.65v-.04h-.05l-.03.02-.36.1c-1.6.45-3.18.83-4.72 1.13Z" fill="#454357"/>
    <path d="m-1.36 146.48.07.04.03.01c2.36 1.54 7.72 3.35 13.6 4.78l1.3.31c1.7.4 3.43.75 5.13 1.06l.48.08 1.34.22c1.7.28 3.34.49 4.87.63l.03-.06.03-.04a4.19 4.19 0 0 1 .95-1c.37-.28.81-.53 1.3-.75l.04-.01.07-.04h.02c1.37-.67 1.97-1.62 2.26-3.13.12-.59.34-1.43.8-1.8 1.05-.87 3.64-1.13 4.18-2.42a70.41 70.41 0 0 1-12.97-.62l-.06-.01h-.02l-.13-.02a134.64 134.64 0 0 1-9.47-1.58 246.28 246.28 0 0 1-3.55-.72l-2.6-.57h-.01a539.15 539.15 0 0 1-2.44-.56l-1.05-.25h-.01c-.52 1.5-1.4 2.42-2.27 3.42l-.3.35-.02.02-.04.04a9.84 9.84 0 0 0-.99 1.39 1.38 1.38 0 0 0-.08.14l-.1.18c-.14.28-.27.58-.39.9Z" fill="#21212B"/>
    <path d="M28.81 75.54c.97.21 1.9-.3 2.81-.59 1.4-.4 2.9-.35 4.25-.9 3.83-2.25 4.94-7.58 5.73-11.75.29-1.9.35-4.12.04-5.37-.47-2.27-.09-6.88.17-9.56l-2.94-2.68c-1.94 8.54-3.94 18.04-6.54 26.15-.38 1.64-1.2 2.14-2.4 3a3.25 3.25 0 0 0-1.12 1.7Z" fill="#323147"/>
    <path d="M33.42 74.49c.63-.07 1.25-.18 1.86-.34a4.77 4.77 0 0 0 2.45-1.66c2.18-2.65 3.33-6.72 3.87-10.19.29-1.9.35-4.12.04-5.37-.44-2.3-.07-6.88.17-9.56l-1.21-1.13c-.12 3.12.63 6.09.8 9.22.45 6.28-2.04 12.43-6 17.27l-.23.25c-.53.56-1.12 1.06-1.75 1.5Z" fill="#464558"/>
    <path d="M27.9 70.55c10.52.45 12.95-13.33 12.83-15.63-.04-.97-.26-1.93-.3-2.9-.08-1.8.42-3.56.42-5.32-.13-13.5-21.47-8.93-24.4 3.56-1.75 7.43 3.32 19.91 11.45 20.29Z" fill="#ED8600"/>
    <g opacity=".36" fill="#E2A040">
      <path opacity=".36" d="M38.41 52.4a.56.56 0 0 0 .26-.72c-.26-.46-.96.09-1 .42-.09.37.5.41.75.3ZM22.49 51.9c.13.08.25.08.38.08s.26-.04.34-.17c.13-.17 0-.42-.17-.54-.3-.26-.71-.09-.75.08-.09.17.04.42.2.54ZM37.87 49.47c.04.2.38.2.54.17.17-.05.5-.22.46-.46-.08-.33-1.13-.09-1 .3v-.01ZM26.6 49.92c.13.17.37.3.58.33.09 0 .22 0 .26-.12.04-.13 0-.22-.09-.3-.12-.09-.5-.54-.75-.26-.13.09-.09.26 0 .34v.01ZM37.5 44.1a1.6 1.6 0 0 0-.89-.21c-.62.04-1.3.25-1.46.92-.05.22-.05.42.12.59.22.17.5.17.76.09.34-.09 2.14-.89 1.47-1.39Z"/>
    </g>
    <path d="M40.33 46.24c-.54-1.3-1.8-5.1-2.98-5.9a5.82 5.82 0 0 0-2-.84c-.76-.17-1.56-.3-2.32-.37-2.94-.21-6.12.21-8.55 1.97-2.1 1.51-5.13 1.98-5.84 4.45a64.49 64.49 0 0 0-1.51 8c-.05 1.34 2.98 3.85 3.3 5.15.76 3.1 2.15 6.12 4.33 8.46.54.59 1.08 1.09 1.67 1.64a17.5 17.5 0 0 0 1.88 1.51c.09.09.22.13.3.21 9.98-.12 12.28-13.37 12.2-15.62-.04-.97-.25-1.93-.3-2.9-.04-1 .15-3.15.27-4.16-.25-.78-.24-1-.46-1.59h.01Z" fill="#D58500"/>
    <path opacity=".36" d="M25.34 67.9a17.93 17.93 0 0 1-4.7-8.09c-.37-1.34.55-3.4.55-4.82-.04-13.03 14.84-18.86 19.5-6.12.08-.76.17-1.47.17-2.22-.13-13.5-21.47-8.94-24.4 3.56-1.75 7.42 3.32 19.95 11.45 20.28h.59a26.04 26.04 0 0 1-3.15-2.6v.02Z" fill="#B45F00"/>
    <path opacity=".36" d="M30.67 50.27c-.87-2.72-3.66-3.92-4.98-2.8-.26 1 4.3 2 3.93 3.64-.5 2-5.23.37-11.31 2.3-.42.13-.07 1.38.24 1.68 1.03.86 2.4.43 3.61.46 3.88-.54 11.1 1.3 8.5-5.28Z" fill="#B45F00"/>
    <path opacity=".36" d="M31.3 38.52c.62.17 1.25.42 1.88.67.54.26 1.08.42 1.6.72a11 11 0 0 1 1.7 1.04c.9.71 1.6 1.6 2.23 2.55.34.5.63 1 .89 1.56.21.46.37 1 .3 1.55-.05.33-.13.67-.09 1 .04.33.13.67.13 1 0 .3-.05.63-.09.93-.04.3-.13.59-.21.88a5.98 5.98 0 0 1-.67 1.64c-.29.46-.71.8-1.04 1.26-.17.21-.3.42-.38.71-.08.3-.12.63-.08.97 0 .67.13 1.3.3 1.93a11.5 11.5 0 0 0 1.92 3.73 18.3 18.3 0 0 0 1.09-5.7c-.04-.97-.26-1.93-.3-2.9-.08-1.8.42-3.56.42-5.32-.09-6.16-4.53-8.59-9.6-8.22Z" fill="#CC5F00"/>
    <path opacity=".36" d="M38.25 52.6c-.59-.08-1.17-.08-1.76-.12-.59 0-1.17 0-1.76.08-.8.09-1.64.26-2.38.59-.26.33-.38.8-.42 1.21-.08.5-.12 1-.12 1.56 0 .5 0 1 .08 1.47 0 .08.04.17.04.25 1.56-.33 3.1-.71 4.61-1.21 1.43-.46 2.9-1.04 4.2-1.8-.05-.42-.09-.84-.17-1.26a7.68 7.68 0 0 0-2.3-.75l-.02-.01Z" fill="#B45F00"/>
    <path d="M18.9 59.24c-.32-4.74.71-10.27 4.45-13.67 4.56-5.17 11.42-5.58 17.1-2.05-3.35-9.3-21.16-4.53-23.85 6.83-2.27 24.9 2.3 8.89 2.3 8.89Z" fill="#B45F00"/>
    <path opacity=".36" d="M38.59 47.58a8.2 8.2 0 0 0-3.68-.47c-2.1 1.45-2.3 4.78-.93 6.84.93.13 1.88.13 2.81.13-.66-1.67-2.08-4.82.17-5.78.45-.3 1.5-.16 1.63-.72Z" fill="#B45F00"/>
    <path d="M27.94 51.4s-.09 0-.13-.05a3.92 3.92 0 0 0-3.27-1.13c-.84.05-1.64.09-2.55-.84a.2.2 0 0 1 0-.3.2.2 0 0 1 .3 0c.75.76 1.42.72 2.22.72A4.4 4.4 0 0 1 28.08 51c.08.09.08.21.04.3-.04.08-.08.08-.17.08h-.01ZM34.28 51.5s.1 0 .14-.04c1.34-1.29 2.22-1.2 3.1-1.1.78.05 1.52.14 2.4-.83.1-.1.1-.24 0-.33-.1-.1-.19-.1-.28 0-.74.78-1.34.74-2.08.69-.92-.1-1.93-.19-3.36 1.24-.1.1-.1.24-.05.33.05 0 .1.05.14.05h-.01Z" fill="#323147"/>
    <path opacity=".36" d="M27.9 50.68c-.5-1.67-3.48-1.51-2.31-1.97a2.2 2.2 0 0 1 2.31 1.97Z" fill="#B45F00"/>
    <path d="M29.45 47.37c-1.88.58-3.26-1.5-6.41-.48-.04.02-.08.03-.15.1-.09.02-.11-.09-.04-.13.04-.01.11-.08.15-.09a9.84 9.84 0 0 1 6.65-.86c.73.27.43 1.23-.2 1.45v.01ZM34.25 45.97c.37-.16 2.92-.56 5.55 1.22.04.02.07.03.1.08.08.07.04.19-.04.16-.04-.01-.07-.07-.11-.08-2.57-1.18-3.96.79-5.5.11-.49-.24-.66-1.23 0-1.5ZM17.13 53.53s9.09-.97 14.54-.92c1 0 2.81-.05 3.4.04 3.9.54 5.95 2.05 5.95 2.05s-2.27 18.36-10.48 19.03c-6.12.5-10.56-.8-12.74-5.95-2.14-5.15-3.01-9.72-.67-14.25Z" fill="#323147"/>
    <path d="M33.4 54.03c-.13 1-1.05 1.3-1.76.55a4.2 4.2 0 0 1-1.05-1.97h2.82c.04.46.08.97 0 1.42h-.02Z" fill="#464558"/>
    <path d="M17.13 53.53s6.33-.67 11.6-.88c-.04 0-2.5 3.98-2.47 4.31.05.5.42.93.84 1.17.8.46 2.6.59 3.06 1.97.67 1.84-1.76 3.4-1.76 4.78 0 1.13 1.76 3.06 3.27 3.1 3.57.09 8.34-10.14 8.76-11.19.38.67-.34 2.18-.54 2.9-1.43 4.74-2.94 13.54-9.3 14.04-6.13.5-10.56-.8-12.75-5.95-2.18-5.15-3.05-9.72-.71-14.26v.01Z" fill="#2B2B37"/>
    <path d="M38 56.46c-1.46-.08-2.46-2.01-2.72-3.27-.04-.17-.04-.37-.08-.54 2.1.3 3.6.88 4.6 1.34-.45 1.17-1.04 2.51-1.8 2.47Z" fill="#464558"/>
    <path d="M39.22 59.94a47.54 47.54 0 0 1-3.48 8.42c-2.89 2.63-6.2 1.86-9.28.06-5.31-2.84-7.68-9.42-7.68-15.18-1.01.08-1.64.17-1.64.17-2.35 4.52-1.47 9.09.71 14.25 2.18 5.15 6.58 6.45 12.75 5.95 8.21-.67 10.47-19.02 10.47-19.02s-.17.04-.33-.09c0 0-.84 3.72-1.52 5.44Z" fill="#21212B"/>
    <path d="M11.3 69.25c2.35 2.14 4.91 4.2 7.93 5.28 3.6 1.3 6.79 1.17 10.56.8 1.71-.17 3.85.08 5.7-.33-1.26.84-3.7 1.7-4.29 2.1-.37.25-1.08-.22-1.55-.18-3.14.3-6.8.34-9.85-.41-2.43-.59-5.2-2.1-7.33-3.4-1.13-.67-1.93-3.05-2.69-5.2l1.51 1.35.01-.01Z" fill="#323147"/>
    <path d="M7.76 62.92c.83 2.01 2.2 4.87 2.87 7.16.52 1.28 1.04 2.7 2.3 3.29.17.1 7.02 4.03 18.24 3.71.6-.01 5.07-2.93 5.07-2.94l-1.13-.1c-9.9-.98-17.43-10.9-16.6-20.65.34-13.5 22.62-19.93 22.5-2.3.73-1.32.8-2.87.85-4.35.48-4.19-.65-8.12-3.69-11.1-5.3-7.83-17.62-9.07-23.66-1.47-4.66 4.98-3.56 12.04-4.61 18.2-.8 3.52-2.9 6.99-2.14 10.55Z" fill="#464558"/>
    <path opacity=".32" d="M7.61 62.88c.85 1.98 2.2 4.92 2.87 7.2.5 1.3 1.08 2.7 2.38 3.3l.54.31c2.54 1.47 5.28 2.8 8.24 3.14 3.1.51 6.44-.03 9.45.22.72-.46 3.53-1.45 4.67-2.4.17-.14.35-.32.4-.54-.1 0-.18 0-.27-.02-.24 0-.48-.04-.73-.06h-.02c-1.75-.2-3.46-.65-5.07-1.34-.7.46-1.45.85-2.23 1.13-5.12 2.19-8.97-2.17-10.64-6.54-1.92-3.98-3.33-9.03-1.08-13.39.55-1.5 1.28-2.78 2.84-3.47a13.1 13.1 0 0 1 3.9-6.36c-3.61-2.45-7.49-5.93-8.38-10.02-4.73 5-3.63 12.11-4.69 18.31-.79 3.57-2.85 7-2.18 10.53Z" fill="#323147"/>
    <path d="M28.53 71.93c-1.84.54-3.9.41-5.37-.46-2.6-1.6-3.43-3.8-4.43-6.53-1.13-3.06-2.27-6.13-.35-9.18.05-.04.05-.09.09-.13a19.98 19.98 0 0 0 10.06 16.3ZM22.95 29.22v.04c.05.32.14.69.34 1.09 1 2.05 3.43 2.5 5.83 2.81l.7.09c1.18.15 2.32.3 3.24.62 1.84.67 3.8 1.89 5.78 2.6l-.76-.89c-1-1.17-2.01-2.3-3.18-3.3a13.58 13.58 0 0 0-3.43-2.09 15.31 15.31 0 0 0-8.52-.97Z" fill="#575770"/>
    <path d="M9.8 52.35c.75-3.22.45-6.58.92-9.85.09.42.13.85.26 1.26 1.08 4.11 2.85 7.34 2.8 11.73-.08 7.67 1.9 15 8.64 19.57.96.67 2.06 1.34 3.18 2.01-1.97 0-3.98-.17-5.82-.63-2.43-.58-5.2-2.1-7.33-3.4-1.47-.88-2.32-4.43-3.23-6.83-.46-1.17-1.34-2.55-1.51-3.35-.76-3.52 1.3-6.96 2.1-10.52l-.02.01Z" fill="#323147"/>
    <path opacity=".32" d="M32.81 38.95a13.28 13.28 0 0 0-3.18-5.9 13.4 13.4 0 0 0-2.47-2.32c-.8-.54-1.8-1.09-2.81-1-.3.04-.3.46 0 .46.92-.09 1.84.45 2.6.97.92.58 1.63 1.46 2.38 2.22a8.6 8.6 0 0 1 1.88 2.68c.38 1 .89 2.02 1.17 3.06.09.25.5.13.42-.17h.01Z" fill="#323147"/>
    <path d="M8.78 73.46c1.8 5.57 7.06 6.41 12.2 6.99 6.8-.05 11.07 3.07 17.22-1.37a6.24 6.24 0 0 0 2.06-2.5c.47-1.14.82-3.36-.62-3.85-.8.2-1.38 1.09-2.1 1.52-.44.32-.88.63-1.33.92-3 1.96-6.53 3.17-10.14 3-2.49.04-4.88-.43-7.13-1.48-2.26-.53-4.62-1.03-6.24-2.84a12.13 12.13 0 0 1-.4-.41c-.94-1.03-1.95-2.07-2.4-3.4a5.6 5.6 0 0 0-.24-.47 2.67 2.67 0 0 0-.35.4c-.7.96-.86 2.4-.53 3.5Z" fill="#75A152"/>
    <path opacity=".37" d="M19.72 80.3c2.45.3 4.96.24 7.38.63a12.4 12.4 0 0 0 11.1-1.87 6.92 6.92 0 0 0 1.61-1.67c.75-1.12 1.1-2.6.7-3.89v.03C39.46 70.2 35.65 79.8 23.24 78c-1.22-.09-2.35-.57-3.48-1.01.57 1.03.8 2.35-.04 3.3Z" fill="#568040"/>
    <path d="M9.35 69.98c.3 1.5 1.35 2.73 1.8 4.17.77 3.06 3.58 4.37 6.53 4.42 3.25.69 6.58.94 9.8 1.75 1.99.28 3.94.18 5.87-.4 1-.07 2.17-.9 2.9.19.7-.31 1.35-.69 1.95-1.14a6.47 6.47 0 0 0 2.06-2.4c.45-.96.58-2.08.27-3.09l-.01.05C39.47 70.2 35.65 79.8 23.24 78c-1.67-.1-3.12-1-4.7-1.44-2.14-.42-4.27-1.06-5.8-2.72l-.36-.38a16.37 16.37 0 0 1-.8-.88 7.52 7.52 0 0 1-1.62-2.54 4.17 4.17 0 0 0-.24-.47l-.37.41Z" fill="#568040"/>
    <path d="M12.19 74.57a3.57 3.57 0 0 0 2.9 2.8c2.7.5 5.62 1.05 8.37.63-1.64-.06-3.07-.81-4.57-1.34-2.9-.49-5.62-1.68-7.38-4.16.26.68.47 1.4.68 2.07ZM26.15 79.05c2.66.94 5.5.12 8.21-.17 4.08-.26 5.73-2.03 5.57-6.07-.35-.15-.65.1-.92.33-3.91 3.5-9.1 5.6-14.39 5.03.46.3.98.64 1.53.88Z" fill="#3E5C2E"/>
    <path d="M9.03 67.56a8.8 8.8 0 0 0 1.6 5.04c.32.5.73 1 1.15 1.43 6.3 5.93 17.91 7.25 25.15 2.4a9.16 9.16 0 0 0 3.7-5.59l-.25-.04v-.25c-.74.79-1.73 1.37-2.65 1.93-.48.27-.93.58-1.4.84-.23.12-.45.23-.65.38l-.53.32a16.64 16.64 0 0 1-6.05 1.9 30.88 30.88 0 0 1-8.54-.27l-.87-.15a14.26 14.26 0 0 1-5.55-2h-.01c-.76-.49-1.31-1.16-2.06-1.64a8.67 8.67 0 0 1-1.41-1.77c-.7-1.17-1.03-2.5-1.46-3.77-.1.38-.16.8-.17 1.24Z" fill="#75A152"/>
    <path d="M12.1 73.69v.12c.04.09.13.13.21.17.05 0 .13.05.17.05.05 0 .13 0 .17-.09.05-.04.05-.08.05-.13 0-.08 0-.2-.09-.3-.17-.2-.46-.08-.5.18h-.01Z" fill="#AED888"/>
    <path d="M26.69 76.87c-4.94.12-4.36 3.07-2.1 1.38.38-.37.41-.71 3.22-.5l-1.12-.88Z" fill="#568040"/>
    <path opacity=".37" d="M40.34 70.59c-5.9 5.28-13.3 6.26-19.86 5.03 2.2.82 5.25 1.34 6.37 3.69 6.62-.09 12.57-2.9 13.78-8.42l-.29-.3Z" fill="#568040"/>
    <path d="M12.07 71.85c.21.52.48 1.02.79 1.48l.02.03a5.65 5.65 0 0 0 .28.38c2.03 2.7 5.65 3.01 8.75 3.28 5.1.27 12.46 2.92 15.84-2.22.31-1.1 1.23-1.3 1.94-2.07 1-1.09 1.35-2.43.51-3.86-.08-.17-.15-.3-.23-.42-1.38 1.6-1.62 4.15-3.75 4.93l-.12.07c-.33.17-.63.4-.95.58-.93.53-1.93.92-2.95 1.23a15.95 15.95 0 0 1-3.1.65 30.9 30.9 0 0 1-8.54-.26c-2.14-.32-4.87-1.03-6.41-2.15-.13-.1-.27-.18-.39-.28-.6-.44-1.04-.98-1.7-1.37Z" fill="#568040"/>
    <path d="m39.95 68.46.03-.01-.03.01ZM25.29 76.03c3.4.46 7.2.84 10.2-1.15.1-.07.18-.14.26-.22h.01v-.01c.99-1.53 3.37-1.63 3.95-3.45-.08-.8.44-1.59.5-2.33-.09-.12-.17-.28-.26-.4-1.59 1.41-1.74 4.08-3.85 4.96-3.15 2.01-7.21 2.63-10.81 2.6Z" fill="#3E5C2E"/>
    <path d="M9.29 73.23c.6.4.23.97.64 1.41.1.1.51.17.6 0 .82-1.12-2-3.6-1.22-1.41h-.02Z" fill="#AED888"/>
    <path d="M24.21 77.04c-.86.05-2.18.03-2.64.88-.07.38.5.4.72.3.58-.22 1.04-.64 1.67-.68.48-.07 1.03.22 1.47-.04 1.14-.72-.79-.38-1.21-.46Z" fill="#568040"/>
    <path d="M27 110.9c-.13-3 .84-5.36 2.76-7.14.3-3.16 2.36-4.82 5.31-6.05 1.12-2.16 2.99-3.5 6.13-3.45 1.95-1.43 4.19-2.33 6.95-1.87 2.33-1.65 4.8-1.25 7.52-.56 2.26-.97 4.36-.95 6.29.38 2.7-.46 5.04-.05 6.96 1.6 3.52-.13 5.28 1.83 7.35 3.9 2.43.85 3.82 2.61 4.6 4.9a9.27 9.27 0 0 1 3.15 6.98c1.37 2.42 1.91 5.3 1.1 8.82h-4.86c-1.16-2.53-1.5-4.97-.9-7.37-.69-1.03-1.6-2.61-2.62-5.83-2.35-.77-4.07-2.07-4.54-4.44-1.38-.09-3.22-.9-5.61-2.62-1.51.1-3.3.08-5.77-1.19-1.74.32-4.85.22-5.66-.27a6.45 6.45 0 0 1-5.65.4 10.3 10.3 0 0 1-5.78 1.4c-1.65 1.44-3.69 2.28-5.67 3.05a11.75 11.75 0 0 1-4.07 4.63c-.16 2-.9 4-2.28 5.98.44 1.96.63 4.07-.63 6.26h-4.85c-1.1-2.86-.73-5.35.78-7.51Z" fill="#B5842F"/>
    <path d="M26.94 110.94c.86 1.77 3.32 1.33 4.85 1.22-1.43-.73-3.6.27-4.72-1.31-.06-.06-.18.01-.13.1ZM29.68 103.8c.66 1.7 2.94 2.14 4.38 2.36-.92-.9-2.41-.74-3.39-1.59-.3-.08-.85-1.12-.99-.77ZM34.65 98c-.13 1.87 1.73 3.59 3.48 3.56-1.43-.77-3.1-1.72-3.32-3.57-.02-.1-.17-.08-.16.02ZM41.12 94.26c-.2 1.75.9 3.98 2.7 4.27a6.02 6.02 0 0 1-2.52-4.27c0-.11-.18-.11-.18 0ZM48.07 92.39c-.25 1.62.3 3.7 1.49 4.77-.5-1.52-1.3-3.08-1.32-4.76 0-.11-.18-.12-.17 0v-.01ZM54.99 91.8c-1 1.37-1.4 4 .24 4.94-1.34-1.92-.27-3.42-.25-4.94ZM61.9 92.16c-1.12 1.23-1.66 3.38-1.06 4.88.23-1.58.26-3.34 1.18-4.78.04-.08-.08-.16-.14-.1h.01ZM68.86 93.75c-1.28.99-2.75 2.81-2.26 4.47a9.91 9.91 0 0 1 2.4-4.36c.06-.08-.07-.2-.14-.11ZM75.5 97.12c-1.28.83-3.12 2.28-3.29 3.72.82-1.29 2.85-2.65 3.28-3.72ZM80.86 102.53c-1.7-.13-3.97.98-4.14 2.75a5.94 5.94 0 0 1 4.16-2.58c.09-.02.08-.17-.02-.17ZM84.04 109.5c-1.65-.49-3.49.74-4.74 1.58 1.59-.08 3-1.62 4.69-1.41.09.01.13-.12.05-.16Z" fill="#876523"/>
    <path d="M49.62 127.25c-.16 1.27-2.66 4.3-7.68 1.46a9.7 9.7 0 0 1-1-.65 20.03 20.03 0 0 1-3.82-3.7c-5.4-6.49-9.78-16.77-8.64-17.41h.01c.1-.06.21-.04.37.03a31.33 31.33 0 0 1 6.33 3.94c2 1.65 3.44 3.35 4.62 5.02.34.47.65.94.95 1.4 1.7 2.62 2.97 5.08 5.04 7.05.63.58 1.32 1.12 2.12 1.61.36.21 1.43.52 1.64.86a.6.6 0 0 1 .06.39Z" fill="#74A352"/>
    <path opacity=".31" d="M35.6 111.44c.43.6.85 1.3.9 2.05.04.68-.2 1.19-.91 1.04-1.07-.2-2.07-1.03-2.9-1.69a8.2 8.2 0 0 1-2.38-2.76c-.35-.76-.37-1.86.7-1.96h.04c1.6.9 2.96 1.83 4.12 2.78.13.18.3.36.43.54Z" fill="#BDDA97"/>
    <path opacity=".26" d="M28.5 106.94c.96 2.44 5.48 17.5 16.34 17.48.33 0 .67 0 .99-.04.61.57 1.29 1.12 2.1 1.58.37.24 1.42.52 1.64.87.48.8-1.98 5.03-7.62 1.84-7.3-4.05-15.01-21.03-13.46-21.73Z" fill="#3E5C2E"/>
    <path d="M43.4 92.86c-.52 4.11.54 6.57 3.22 7.2 1.33-2.15.28-4.45-3.22-7.2ZM49.18 106.25c-1.87 1.93-4.1 1-7.1-2.2 3.89-.56 6.38.15 7.1 2.2ZM49.5 102.74c2.35-1.17 2.5-3.41.5-7.72-1.98 2.79-2.2 5.44-.5 7.72ZM52 109.72c-1.19 2.36-3.78 2.4-7.57.17 3.88-1.86 6.67-2.08 7.56-.17Z" fill="#74A352"/>
    <path d="M58.33 114.1a.18.18 0 0 0 .05-.3c-5.92-4.62-10.74-11.06-13.96-18.64a.18.18 0 0 0-.32.14c3.24 7.63 8.1 14.12 14.06 18.78.05.04.11.05.17.03Z" fill="#568040"/>
    <path d="M52.25 109.8c.36-.13.72-.27 1.07-.43a.17.17 0 1 0-.15-.32c-2.19 1-4.6 1.23-7.2.68a.18.18 0 0 0-.07.34c2.25.49 4.38.39 6.35-.28ZM50.64 106.3a.18.18 0 0 0-.07-.35c-2.32.24-4.61-.22-6.82-1.4a.17.17 0 0 0-.23.08c-.05.09-.02.2.07.24a12.11 12.11 0 0 0 7.05 1.42ZM49.24 104.35c.05-.02.1-.06.11-.12.6-2.57.85-5.2.77-7.83a.18.18 0 0 0-.35.01c.08 2.6-.18 5.2-.76 7.74a.18.18 0 0 0 .23.2Z" fill="#568040"/>
    <path d="M70.28 126.61c-.28 1.25-3.06 4.02-7.78.71a9.51 9.51 0 0 1-.93-.73 20.07 20.07 0 0 1-3.45-4.06c-4.74-6.97-8.1-17.63-6.91-18.16.1-.05.22-.02.37.06a31.34 31.34 0 0 1 5.92 4.54 25.24 25.24 0 0 1 4.12 5.44c.28.5.55 1 .8 1.49 1.44 2.77 2.47 5.34 4.34 7.5.56.64 1.2 1.25 1.95 1.8.34.25 1.37.66 1.56 1.03.04.1.05.22 0 .38Z" fill="#74A352"/>
    <path opacity=".31" d="M57.85 109.52c.38.64.73 1.39.7 2.14-.02.67-.3 1.16-1 .94-1.05-.31-1.97-1.23-2.72-1.96a8.2 8.2 0 0 1-2.1-2.98c-.28-.79-.2-1.88.88-1.88h.03a28.9 28.9 0 0 1 3.84 3.17c.11.19.26.38.37.57Z" fill="#BDDA97"/>
    <path opacity=".26" d="M51.22 104.36c.72 2.52 3.77 17.94 14.58 18.98l.98.06a11.5 11.5 0 0 0 1.94 1.77c.35.27 1.37.65 1.56 1.02.4.84-2.46 4.82-7.77 1.1-6.87-4.74-12.91-22.39-11.3-22.93Z" fill="#3E5C2E"/>
    <path d="M58.9 132.81c6.73-11.11 20.65-15.15 31.37-19.32a1.65 1.65 0 0 1 2.26 1.55c0 9.65-13.95 18.14-23.77 20.4-2.28.53-10 1.71-10.8.5-.54-.82.52-2.42.94-3.13Z" fill="#74A352"/>
    <path d="M89.9 116.06c.74.62 1.61.62 2.46.92.11-.65.19-1.3.19-1.95a1.66 1.66 0 0 0-2.27-1.53l-1.62.62c.25.74.63 1.43 1.24 1.94ZM61.4 133.63c-.1-1.4.82-2.69.71-4.1-.02-.28-.1-.52-.2-.75a27.29 27.29 0 0 0-3.01 4.03c-.42.7-1.48 2.3-.93 3.13.4.6 2.46.61 4.73.41-.61-.83-1.22-1.74-1.3-2.72Z" fill="#74A352"/>
    <path opacity=".26" d="M64.99 132.78c-1.24.17-3.82.37-6.31.4-.47.78-1.18 2.05-.7 2.76.79 1.2 8.52.04 10.8-.5 8.65-2 20.5-8.82 23.2-17-5.4 7.68-17.87 13.1-27 14.34Z" fill="#3E5C2E"/>
    <path opacity=".26" d="M60.7 130.23c-.65.82-1.24 1.67-1.8 2.58-.4.7-1.47 2.3-.92 3.13.4.62 2.65.6 5.04.38a19.16 19.16 0 0 0 2.73-3.4c.53-.84.06-1.96-.9-2.18-1.45-.32-2.85-.67-4.16-.5Z" fill="#3E5C2E"/>
    <path opacity=".31" d="M83.16 116.8c-4.88 1.63-10.23 4.35-7.84 5.29 1.42.55 6.5-1.57 7.88-2.19 2.67-1.22 4.86-3.21 3.7-3.85-.44-.25-.64-.3-3.74.74Z" fill="#BDDA97"/>
    <path opacity=".26" d="m90.27 113.49-1.02.39c-.14.94-.41 1.84-.75 2.7a8.64 8.64 0 0 1-3.14 3.97 19 19 0 0 1-5.26 2.38c-4.12 1.29-8.44 1.82-12.48 3.35-2.2.83-4.43 1.9-6.4 3.27a26.46 26.46 0 0 0-2.35 3.27c-.42.7-1.48 2.3-.93 3.13.8 1.2 8.53.04 10.8-.5 9.83-2.27 23.79-10.74 23.77-20.4a1.64 1.64 0 0 0-2.24-1.56Z" fill="#3E5C2E"/>
    <path d="M69.96 132.78c-12.32 4.12-25.55-1.8-36.42-5.55a1.65 1.65 0 0 1-.72-2.64c6.24-7.37 22.37-4.82 31.33-.2 2.07 1.08 8.73 5.17 8.56 6.6-.13.99-1.97 1.52-2.75 1.79Z" fill="#74A352"/>
    <path d="M35.48 125.5c-.16-.94-.83-1.5-1.28-2.29-.5.42-.98.87-1.4 1.37-.75.9-.37 2.26.73 2.63l1.64.58c.3-.73.44-1.5.31-2.29ZM68.58 130.53c-.82 1.15-2.36 1.53-3.18 2.67-.17.24-.27.47-.34.7 1.64-.22 3.29-.58 4.9-1.12.78-.27 2.63-.8 2.74-1.79.08-.7-1.48-2.05-3.34-3.37-.08 1.04-.2 2.12-.78 2.91Z" fill="#74A352"/>
    <path opacity=".26" d="M65.3 128.87c1.06.67 3.15 2.18 5.07 3.78.87-.3 2.23-.8 2.33-1.66.17-1.43-6.48-5.54-8.56-6.6-7.9-4.08-21.36-6.54-28.71-2.04 9.09-2.37 22.11 1.57 29.87 6.52Z" fill="#3E5C2E"/>
    <path opacity=".26" d="M66.93 133.59c1.02-.2 2.02-.48 3.03-.82.77-.26 2.61-.8 2.73-1.78.09-.74-1.63-2.18-3.6-3.55-1.55.14-3.04.4-4.28.82a1.46 1.46 0 0 0-.73 2.25c.9 1.18 1.74 2.36 2.85 3.08Z" fill="#3E5C2E"/>
    <path opacity=".31" d="M41.1 129.3c4.78 1.91 10.62 3.3 9.4 1.03-.72-1.33-5.96-3-7.42-3.42-2.83-.8-5.79-.69-5.31.54.17.48.29.64 3.33 1.86Z" fill="#BDDA97"/>
    <path opacity=".26" d="m33.54 127.23 1.03.36c.71-.62 1.5-1.13 2.32-1.57a8.64 8.64 0 0 1 4.96-1 19 19 0 0 1 5.55 1.59c3.97 1.68 7.61 4.06 11.68 5.51a29.7 29.7 0 0 0 7.01 1.65c1.3-.23 2.61-.54 3.9-.98.77-.27 2.62-.8 2.73-1.79.17-1.43-6.48-5.54-8.56-6.6-8.96-4.62-25.09-7.19-31.32.2-.78.88-.41 2.24.7 2.63Z" fill="#3E5C2E"/>
    <path d="M52.95 131.89c-6.74-11.12-20.65-15.16-31.38-19.33a1.65 1.65 0 0 0-2.25 1.55c-.01 9.65 13.94 18.14 23.76 20.41 2.28.53 10 1.7 10.8.5.55-.83-.52-2.43-.93-3.13Z" fill="#74A352"/>
    <path d="M21.94 115.14c-.74.61-1.61.61-2.46.91-.11-.64-.19-1.3-.19-1.95a1.66 1.66 0 0 1 2.27-1.53l1.62.62a4.25 4.25 0 0 1-1.24 1.95ZM50.43 132.7c.12-1.4-.81-2.68-.7-4.1.02-.28.1-.52.2-.75a27.29 27.29 0 0 1 3.01 4.04c.42.7 1.48 2.3.93 3.12-.4.6-2.46.62-4.73.41.62-.83 1.22-1.74 1.3-2.71Z" fill="#74A352"/>
    <path opacity=".26" d="M46.86 131.85c1.23.17 3.8.37 6.3.4.47.79 1.19 2.05.71 2.76-.8 1.21-8.53.05-10.8-.5-8.66-2-20.51-8.81-23.22-17 5.4 7.68 17.89 13.1 27 14.34Z" fill="#3E5C2E"/>
    <path opacity=".26" d="M51.15 129.3c.64.82 1.24 1.67 1.78 2.58.42.7 1.48 2.3.93 3.13-.4.62-2.65.6-5.04.38a19.16 19.16 0 0 1-2.73-3.4 1.46 1.46 0 0 1 .9-2.18c1.45-.32 2.85-.67 4.16-.5Z" fill="#3E5C2E"/>
    <path opacity=".31" d="M28.68 115.86c4.88 1.64 10.23 4.36 7.84 5.3-1.41.56-6.5-1.56-7.88-2.18-2.67-1.22-4.86-3.22-3.7-3.85.44-.25.64-.3 3.74.73Z" fill="#BDDA97"/>
    <path opacity=".26" d="m21.57 112.56 1.02.39c.14.94.41 1.84.75 2.7a8.64 8.64 0 0 0 3.13 3.98 18.96 18.96 0 0 0 5.27 2.37c4.12 1.29 8.43 1.82 12.48 3.35 2.2.84 4.43 1.9 6.4 3.28.85 1.01 1.65 2.1 2.35 3.27.41.7 1.48 2.3.93 3.12-.8 1.2-8.53.04-10.8-.5-9.83-2.27-23.79-10.74-23.77-20.4a1.64 1.64 0 0 1 2.24-1.56Z" fill="#3E5C2E"/>
    <path d="M96.21 101.48c.7 5.44-.7 8.7-4.26 9.52-1.75-2.84-.36-5.88 4.26-9.52ZM88.56 119.2c2.49 2.56 5.44 1.32 9.41-2.92-5.15-.73-8.45.2-9.41 2.93ZM88.15 114.56c-3.12-1.56-3.32-4.52-.66-10.23 2.61 3.7 2.9 7.21.66 10.23ZM84.84 123.8c1.56 3.12 5 3.18 10.02.22-5.14-2.45-8.84-2.75-10.02-.22Z" fill="#74A352"/>
    <path d="M76.46 129.6a.23.23 0 0 1-.07-.4c7.83-6.11 14.22-14.65 18.47-24.69a.23.23 0 1 1 .43.18C91 114.8 84.57 123.4 76.67 129.57a.23.23 0 0 1-.21.03Z" fill="#568040"/>
    <path d="M84.5 123.9c-.48-.17-.95-.36-1.41-.57a.23.23 0 0 1-.12-.3.23.23 0 0 1 .31-.12c2.9 1.33 6.1 1.64 9.53.9a.23.23 0 0 1 .1.46c-2.99.63-5.8.5-8.41-.38ZM86.63 119.26a.23.23 0 0 1 .1-.45c3.06.32 6.1-.3 9.02-1.85a.23.23 0 0 1 .22.41 16.04 16.04 0 0 1-9.34 1.89ZM88.49 116.7a.23.23 0 0 1-.15-.18 40.51 40.51 0 0 1-1.02-10.35c0-.13.11-.23.24-.23s.23.11.22.24c-.1 3.44.24 6.89 1.01 10.24a.23.23 0 0 1-.3.27Z" fill="#568040"/>
    <path d="M16.79 98.22c-1.37 5.32-.37 8.72 3.05 9.99 2.08-2.61 1.08-5.8-3.05-9.99ZM22.18 116.77c-2.8 2.23-5.56.62-8.98-4.08 5.2-.09 8.37 1.26 8.98 4.08ZM23.16 112.2c3.29-1.15 3.86-4.08 1.93-10.06-3.06 3.34-3.78 6.8-1.93 10.06ZM26.8 123.82c-1.94 2.91-5.35 2.54-9.97-1.02 5.4-1.8 9.11-1.63 9.97 1.02ZM32.13 108.45c.46 6.87-1.3 9.71-5.02 10.32-1.32-2.9-.05-6.4 5.02-10.32Z" fill="#74A352"/>
    <path d="M32.85 128.59a.23.23 0 0 1-.17-.07c-7.07-7.1-12.39-16.43-15.38-26.99a.23.23 0 1 1 .44-.13c2.98 10.49 8.26 19.75 15.27 26.79a.23.23 0 0 1-.16.4Z" fill="#568040"/>
    <path d="M24.04 117.06a16.03 16.03 0 0 1-8.98-3.04.23.23 0 1 1 .26-.38c2.71 1.9 5.65 2.9 8.72 2.96a.23.23 0 0 1 0 .46ZM22.51 114.28l-.08-.01a.23.23 0 0 1-.14-.3 39.96 39.96 0 0 0 2.27-10.03.23.23 0 0 1 .46.04 40.4 40.4 0 0 1-2.3 10.15.23.23 0 0 1-.21.16ZM24.22 124.25c-1.8 0-3.62-.32-5.48-.96a.23.23 0 0 1 .15-.44 14.99 14.99 0 0 0 9.57.29.23.23 0 1 1 .14.44c-1.43.45-2.9.67-4.38.67ZM26.04 120.3a.3.3 0 0 1-.22-.48 28.61 28.61 0 0 0 5.17-9.28.3.3 0 0 1 .55.19 29.19 29.19 0 0 1-5.27 9.46.3.3 0 0 1-.23.1Z" fill="#568040"/>
    <path d="M39 102.45c11.02 3.78 14.06 10.73 8.74 20.98-8.93-4.36-11.78-11.36-8.74-20.98Z" fill="#A1C572"/>
    <path d="M43.97 112.13a.23.23 0 0 1-.23-.23 8.9 8.9 0 0 1 1.28-4.9.23.23 0 0 1 .4.25c-.85 1.4-1.27 3-1.22 4.64 0 .13-.1.23-.22.24ZM47.1 120.74a.29.29 0 0 1-.23-.13c-.86-1.25-2.28-2.13-4.34-2.7a.3.3 0 1 1 .15-.55c2.2.6 3.73 1.55 4.67 2.92a.29.29 0 0 1-.24.46ZM45.07 114.68a.3.3 0 0 1-.19-.07 8.58 8.58 0 0 0-5.28-1.82.3.3 0 0 1-.02-.58c1.9-.06 4.23.75 5.68 1.95a.3.3 0 0 1-.2.52ZM42.7 109.53a.24.24 0 0 1-.14-.04 6.4 6.4 0 0 0-3.46-1.2.23.23 0 0 1 0-.47 6.8 6.8 0 0 1 3.74 1.3.23.23 0 0 1-.14.41Z" fill="#74A352"/>
    <path d="M43.85 112.7c2.97.9 4.03-2.6 4.38-4.37 2.88 3.83 2.75 8.85-.49 15.1-6.5-3.17-9.77-7.74-9.9-13.7 1.3.9 3.52 2.24 6 2.98Z" fill="#A1C572" style="mix-blend-mode:multiply" opacity=".45"/>
    <path d="M47.95 128.27h-.02a.23.23 0 0 1-.2-.26c.72-6.53-3.7-16.46-7.7-22.98a.23.23 0 0 1 .39-.24c4.04 6.58 8.5 16.63 7.76 23.27a.23.23 0 0 1-.23.21Z" fill="#74A352"/>
    <path d="M55.92 109.68c5.07 8.56 3.19 14.74-5.93 18.45-3.38-7.77-1.36-13.88 5.93-18.45Z" fill="#A1C572"/>
    <path d="M53.8 118.72a.2.2 0 0 1-.03-.28 7.6 7.6 0 0 1 3.54-2.47.2.2 0 1 1 .13.37 7.2 7.2 0 0 0-3.36 2.35.2.2 0 0 1-.27.03h-.01ZM51.07 126.04a.25.25 0 0 1-.09-.22c.14-1.28-.3-2.64-1.32-4.14a.25.25 0 1 1 .4-.29c1.1 1.61 1.57 3.08 1.42 4.49a.25.25 0 0 1-.41.16ZM53.1 120.98a.25.25 0 0 1-.08-.15 7.32 7.32 0 0 0-2.43-4.1.25.25 0 0 1 .31-.39 7.86 7.86 0 0 1 2.6 4.4.25.25 0 0 1-.4.24ZM54.4 116.33a.2.2 0 0 1-.06-.1c-.23-1-.87-2.09-1.58-2.7a.2.2 0 0 1 .26-.3 5.8 5.8 0 0 1 1.7 2.9.2.2 0 0 1-.32.2Z" fill="#74A352"/>
    <path d="M53.4 119.02c1.43 2.22 4.05.55 5.26-.41-.25 4.08-3.11 7.26-8.67 9.53-2.46-5.66-2.06-10.43 1.15-14.37.35 1.3 1.05 3.4 2.25 5.25Z" fill="#A1C572" style="mix-blend-mode:multiply" opacity=".45"/>
    <path d="m47.45 131.4-.01-.02a.2.2 0 0 1 0-.28c4.09-3.84 6.71-12.73 7.72-19.18a.2.2 0 0 1 .4.06c-1.03 6.51-3.69 15.5-7.84 19.4a.2.2 0 0 1-.27.02ZM60.85 112.68c-.63-2.3 3.1-3.49 4.21-1.77-.1-1.93.25-3.85 1.01-5.62.71-1.7 4.01-2.91 4 .26 1.54-9.95 10.38-2.8 4.06 3.88 7.58-4.63 5.19 6.24-.16 7.23 3.28-.78 4.73 2.17 1.88 4.1-1.88 1.5-8.34 2.77-10.7 3.27-1.85-3.1-4.01-7.75-4.3-11.35Z" fill="#74A352"/>
    <path d="M60.76 130.07a.23.23 0 0 1-.16-.4c5.45-5.57 10.71-17.47 13.1-26.34.03-.12.16-.2.28-.16.12.03.2.16.16.28-2.4 8.93-7.7 20.92-13.21 26.55a.23.23 0 0 1-.17.07Z" fill="#568040"/>
    <path d="M71.33 120.22a9.06 9.06 0 0 1-3.51-.77.3.3 0 0 1 .22-.53 7.68 7.68 0 0 0 7.12-.34.3.3 0 0 1 .28.52 8.6 8.6 0 0 1-4.11 1.12ZM66.63 121.6a.3.3 0 0 1-.22-.11A16.3 16.3 0 0 1 63 112.6a.3.3 0 0 1 .26-.31c.17-.02.3.1.32.26.29 3.31 1.4 6.2 3.28 8.57a.3.3 0 0 1-.23.47ZM69.74 115.39a.23.23 0 0 1 0-.47c2.74-.08 5.07-1.45 6.92-4.08.08-.1.22-.13.33-.06.1.08.13.22.05.32-1.94 2.76-4.39 4.2-7.29 4.29ZM68.88 117.27a.23.23 0 0 1-.18-.09c-2.25-2.73-1.9-7.68-1.22-11.36a.23.23 0 0 1 .28-.18c.12.02.2.14.18.27-.55 2.93-1.13 8.25 1.12 10.98a.23.23 0 0 1-.18.38ZM71.92 109.78a.23.23 0 0 1-.1-.44c1.24-.59 2.14-1.8 2.7-3.6a.23.23 0 1 1 .44.14c-.6 1.93-1.58 3.23-2.94 3.88a.23.23 0 0 1-.1.02ZM70.92 112.58a.23.23 0 0 1-.21-.14c-.64-1.54.35-6.19.67-7.57.03-.13.16-.2.28-.18.12.03.2.16.17.28-.64 2.79-1.16 6.17-.7 7.3a.23.23 0 0 1-.2.31Z" fill="#568040"/>
    <path opacity=".26" d="M61.23 110.91c.51-.55 1.35-.73 2.08-.8 2.46 2.4 3.5 6.61 5.92 7.92 1.67 1.1 4.44-1.32 6.57-1.41a1.81 1.81 0 0 1 1.33 2.78c-1.84 3.06-8.8 3.79-11.96 4.62-1.87-3.6-5.28-9.03-3.94-13.1Z" fill="#3E5C2E"/>
    <path d="M80.16 102.67c-.32 1.47.13 3.7 2.08 3.8 4.9.25 4.9-9.71 3.51-10.37-.6-.28-3.72 2.9-4.22 3.6a7.52 7.52 0 0 0-1.37 2.97Z" fill="#D58500"/>
    <path d="M86.34 101.6c-.43 2.56-1.64 5.01-4.1 4.87-1.95-.1-2.42-2.3-2.08-3.8.21-1.1.75-2.09 1.37-2.96.11-.14.38-.43.67-.75.87 1.03.95 2.76 1.06 4.02.02.14.18.23.3.13a9.2 9.2 0 0 1 2.78-1.5Z" fill="#74A352"/>
    <path d="M83.84 106.14a2.84 2.84 0 0 1-.82.28l-.07.02h-.08l-.04.02h-.13l-.03.01h-.02c-.42.06-.56.28-.82 1.07-.15.5-.35 1.21-.69 2.24a75.05 75.05 0 0 1-3.8 9.78 40.13 40.13 0 0 1-9.1 12.46 43.84 43.84 0 0 1-8.6 6 70.39 70.39 0 0 1-6.31 3.03c.02-.31.06-.62.1-.94l.04-.01c2.18-.93 4.18-1.9 6.03-2.9a40.45 40.45 0 0 0 10-7.53 41.02 41.02 0 0 0 7.7-11.79 78.5 78.5 0 0 0 3.22-8.57c.8-2.47.96-2.9.73-3.16a.67.67 0 0 0-.16-.14l-.09-.09c-.1-.1-.18-.2-.26-.3l-.09-.14c0-.02-.02-.03-.03-.05l-.05-.1-.04-.08c-.05-.1-.1-.19-.13-.3a3.65 3.65 0 0 1-.2-.87l-.02-.21a4.74 4.74 0 0 1-.01-.51v-.04c1.09-.37 2.13-.81 3.1-1.4a9.9 9.9 0 0 0 3.35-3.37l.01-.01c.2 2.77-.56 6.49-2.7 7.6Z" fill="#74A352"/>
    <path d="M80.07 103.32c1.76-.59 3.41-1.4 4.77-2.7.64-.59 1.23-1.3 1.7-2.08.23 3.21-.83 7.71-3.84 7.93-.45.06-.58.23-.85 1.1-.17-.36-.37-.69-.6-1.04.02-.26-.04-.35-.21-.48-.77-.6-1.02-1.73-.97-2.73ZM77.33 119.56a40.14 40.14 0 0 1-9.09 12.46 43.9 43.9 0 0 1-8.6 6 70.39 70.39 0 0 1-6.31 3.02c.02-.3.06-.61.1-.93l.05-.01c2.17-.93 4.17-1.9 6.02-2.9a40.45 40.45 0 0 0 10-7.53 41.02 41.02 0 0 0 7.7-11.79l.13 1.68Z" fill="#568040"/>
    <path d="M77.55 117.04c1.25-1.6 6.4-5.03 6.4-5.03a9.49 9.49 0 0 1-2.41 5.93c-3.3 3.63-5.83 1.48-4-.9Z" fill="#74A352"/>
    <path d="M83.9 112.65a10.56 10.56 0 0 1-2.99 3.94c-1.08.93-2.55 1.75-3.94 1.62-.38 1.77 1.84 2.74 4.56-.27a9.25 9.25 0 0 0 2.36-5.29Z" fill="#568040"/>
    <path d="M74.23 116.16c.37 3.05 6.57 1.12 3.62-2.17-.77-.86-2.33-.46-3.01.3-.45.5-.7 1.2-.6 1.87Z" fill="#D58500"/>
    <path d="M78.37 114.72a2.46 2.46 0 0 1-1.88 1.23c-.9.07-1.56-.47-1.98-1.17a2.5 2.5 0 0 0-.29 1.4c.35 2.82 5.67 1.37 4.15-1.46Z" fill="#B45F00"/>
    <path d="M68.48 120.36c2.33 2 5.6-3.61 1.2-4.05-1.15-.12-2.03 1.23-2.02 2.25 0 .67.3 1.36.82 1.8Z" fill="#D58500"/>
    <path d="M70.95 116.66c-.24.76-.73 1.45-1.53 1.67-.6.18-1.23.05-1.7-.3a3 3 0 0 0-.07.53c0 .69.3 1.36.81 1.8 2.07 1.76 4.84-2.38 2.49-3.7Z" fill="#B45F00"/>
    <path d="M69.2 119.77c.29.17.5.5.25.8l-.13.11c.07.27.05.57.03.85l.01.02c.14-.46.24-.84.34-.9.04-.03.1-.03.14-.06.07-.06.08-.18.07-.27a.72.72 0 0 0-.71-.55Z" fill="#568040"/>
    <path d="M76.04 117.27a1.5 1.5 0 0 0-.94-.68c-.26-.03-.56.13-.59.4-.01.2.13.36.13.57.01.22-.13.38-.27.55a16.3 16.3 0 0 1-3.68 3.27c-.59.36-1.13.72-1.62 1.09.27-.77.45-1.73.62-1.84l.14-.07c.07-.06.08-.18.06-.27-.17-.56-.7-.56-.95-.48a.42.42 0 0 0-.25.28c-.04.22.2.4.31.59.83 1.44-1.44 3.01-1.66 3.2-3.45 3.2-3.98 6.4-4.3 9.35l.42-.13c.56-1.92 1.26-3.9 2.17-5.7 1.03-2.05 3-3.83 4.48-5.05.15.06 2.24.3 3.02-.26l.16-.1c.06-.02.14-.02.19.03.03.03.06.1.12.1l.04-.02a.52.52 0 0 0 .23-.37.58.58 0 0 0-.12-.43.27.27 0 0 0-.15-.1c-.12-.03-.24.05-.33.13-.14.13-.27.27-.43.4-.73.56-1.84.35-2.17.23l-.04-.02c.1-.09.26-.18.42-.3.3-.2 1.72-1.12 3.95-3.62.11-.13.24-.25.4-.29.2-.05.45.06.6-.08.11-.09.1-.26.04-.38Z" fill="#74A352"/>
    <path d="M76.04 117.27c-.05-.08-.1-.17-.17-.23.04.1.06.18.03.29-.05.3-.39.33-.62.26l-.3-.09c-.28.67-.74 1.19-1.24 1.75l-.55.69c.52-.5 1.13-1.12 1.82-1.9.11-.12.24-.25.4-.28.2-.05.45.06.6-.08.1-.12.1-.3.03-.4ZM70.08 122.27c.14-.2.33-.35.56-.33l.15-.11c-.29-.28-.7-.09-.71.44ZM73.74 121.32a.27.27 0 0 0-.15-.1c-.12-.03-.24.05-.33.13l-.29.28a.79.79 0 0 0 .02.56c.06-.02.1-.05.13-.08l.16-.1c.06-.02.14-.02.19.03.03.03.06.1.12.1l.04-.02a.52.52 0 0 0 .23-.37.58.58 0 0 0-.12-.43Z" fill="#568040"/>
    <path d="M74.03 119.82a1.95 1.95 0 0 0-.73 2.27c.31.8 1.29 1.28 2.1 1 .7-.23 1.67-1.19 1.73-1.97.06-.85-.96-1.48-1.69-1.59-.47-.08-1 .01-1.4.3Z" fill="#D58500"/>
    <path d="M77.14 121.1c.01-.28-.08-.52-.23-.74-.68 1.1-2.62 1.41-3.49.12a1.9 1.9 0 0 0-.13 1.6c.32.8 1.3 1.28 2.1 1 .73-.22 1.7-1.18 1.75-1.98Z" fill="#B45F00"/>
    <path d="M29.34 97.23c-.5 2.78-6.09.68-3.2-2.18.75-.75 2.16-.3 2.75.43.38.5.57 1.15.45 1.75Z" fill="#D58500"/>
    <path d="M25.62 95.7c.34.63.93 1.12 1.67 1.22.81.11 1.45-.34 1.87-.97.2.4.26.87.19 1.3-.47 2.57-5.28.96-3.73-1.56Z" fill="#B45F00"/>
    <path d="M34.4 101.4c-2.25 1.7-4.95-3.62-.88-3.8 1.06-.04 1.79 1.25 1.73 2.18a2.24 2.24 0 0 1-.85 1.62Z" fill="#D58500"/>
    <path d="M32.33 97.87c.18.7.6 1.37 1.32 1.61.54.2 1.12.1 1.57-.19.03.16.04.33.04.5a2.24 2.24 0 0 1-.85 1.61c-1.99 1.5-4.31-2.45-2.08-3.53Z" fill="#B45F00"/>
    <path d="M33.77 100.82c-.27.14-.48.43-.27.71l.11.11c-.08.25-.07.52-.07.78l-.01.02c-.1-.43-.18-.78-.27-.84-.03-.03-.09-.04-.12-.07-.06-.06-.07-.17-.05-.25.16-.4.45-.47.68-.46Z" fill="#568040"/>
    <path d="M27.62 98.16c.16-.28.6-.55.9-.58.25-.01.51.15.52.4 0 .18-.14.32-.15.51-.02.2.1.37.22.53a14.95 14.95 0 0 0 3.2 3.19c.52.36 1 .72 1.43 1.09-.2-.72-.32-1.6-.47-1.72l-.12-.08c-.06-.05-.07-.16-.05-.24.2-.51.68-.48.9-.4.12.06.2.16.22.28.03.2-.2.35-.32.52-.83 1.28 1.17 2.84 1.35 3.02 3 3.12 3.32 6.1 3.46 8.81l-.39-.13c-.4-1.8-.94-3.66-1.68-5.35-.84-1.94-2.54-3.68-3.85-4.87-.13.04-2.06.16-2.75-.4-.04-.04-.09-.07-.15-.1-.05-.03-.12-.03-.17 0-.03.04-.06.1-.11.1l-.04-.03a.47.47 0 0 1-.2-.34.53.53 0 0 1 .14-.4c.04-.03.1-.07.14-.07.12-.03.22.05.3.13.13.12.24.27.38.39.64.55 1.66.42 1.97.32h.04c-.1-.1-.23-.2-.37-.3-.27-.2-1.52-1.13-3.43-3.54-.1-.12-.2-.25-.35-.28-.19-.06-.42.02-.55-.11-.1-.09-.08-.25-.02-.35Z" fill="#74A352"/>
    <path d="M27.62 98.16c.05-.07.1-.15.17-.2a.43.43 0 0 0-.04.25c.03.29.34.33.56.28.08-.02.18-.05.28-.06.22.63.61 1.13 1.04 1.67l.47.65a31.6 31.6 0 0 1-1.58-1.83c-.09-.12-.2-.24-.34-.28-.19-.06-.42.03-.55-.1-.09-.12-.07-.28 0-.38ZM32.83 103.06c-.12-.19-.3-.34-.5-.34l-.13-.1c.27-.25.64-.04.63.44ZM29.52 102c.03-.05.1-.08.14-.08.12-.03.22.05.3.13l.25.27c.05.18.03.36-.05.52l-.11-.08c-.04-.04-.09-.08-.15-.1-.05-.03-.12-.03-.17 0-.03.04-.06.1-.11.09l-.04-.02a.48.48 0 0 1-.2-.34.53.53 0 0 1 .14-.4Z" fill="#568040"/>
    <path d="M29.33 100.6c.63.48.89 1.4.55 2.12a1.62 1.62 0 0 1-1.98.82c-.63-.25-1.47-1.19-1.48-1.91-.01-.78.96-1.3 1.63-1.37.44-.05.91.07 1.28.34Z" fill="#D58500"/>
    <path d="M26.41 101.61c0-.25.1-.47.25-.66.57 1.04 2.33 1.43 3.2.29.22.46.24 1.02.03 1.47a1.62 1.62 0 0 1-1.99.82c-.65-.25-1.49-1.18-1.49-1.92Z" fill="#B45F00"/>
    <path d="M68.92 95.85c.98 2.13 5.02-.73 2.1-2.42-.75-.44-1.79.22-2.1.92-.21.48-.23 1.04 0 1.5Z" fill="#D58500"/>
    <path d="M71.57 93.84c-.13.58-.5 1.1-1.07 1.33-.63.26-1.23.03-1.7-.38-.07.36-.03.75.12 1.08.9 1.96 4.42-.34 2.65-2.03Z" fill="#B45F00"/>
    <path d="M65.73 100.25c2.17.9 3.22-3.94-.08-3.22-.86.18-1.18 1.37-.93 2.1.15.49.54.92 1.01 1.12Z" fill="#D58500"/>
    <path d="M66.65 96.99c.01.6-.18 1.22-.71 1.57-.4.27-.88.32-1.3.17 0 .14.03.28.07.41.16.5.54.92 1.02 1.12 1.9.78 2.94-2.87.92-3.27Z" fill="#B45F00"/>
    <path d="M66.12 99.66c.25.05.48.24.37.51l-.07.11c.12.18.17.4.22.6l.02.03c-.02-.37-.03-.67.03-.74l.08-.08c.04-.06.02-.15-.01-.2a.55.55 0 0 0-.64-.23Z" fill="#568040"/>
    <path d="M70.49 96.23c-.18-.18-.6-.3-.84-.27-.2.04-.38.23-.33.43.03.14.17.23.22.38.06.16 0 .31-.06.46a12.4 12.4 0 0 1-1.9 3.23c-.34.4-.65.8-.92 1.17.02-.61-.08-1.35.02-1.47l.08-.08c.04-.07.02-.15-.01-.21-.27-.37-.65-.25-.8-.13a.32.32 0 0 0-.13.26c.03.17.24.24.37.36.93.84-.34 2.52-.45 2.7-1.75 3.13-1.38 5.58-.93 7.79l.29-.2c-.05-1.52-.01-3.12.23-4.63.26-1.73 1.26-3.48 2.06-4.71.12 0 1.69-.3 2.12-.9.03-.04.05-.07.1-.11.03-.03.09-.05.14-.03.03.02.06.06.1.05l.03-.03a.4.4 0 0 0 .09-.32.44.44 0 0 0-.2-.28.2.2 0 0 0-.13-.03c-.1 0-.16.09-.2.17-.08.12-.14.26-.22.39-.4.58-1.25.68-1.52.67h-.03c.05-.1.14-.2.23-.32.17-.21.98-1.22 2.01-3.55.05-.12.11-.24.22-.3.14-.08.34-.06.42-.2.06-.1.01-.22-.06-.29Z" fill="#74A352"/>
    <path d="M70.49 96.23c-.05-.04-.11-.1-.18-.13.05.07.08.12.1.2.03.24-.21.34-.4.34l-.24.01c-.04.55-.26 1.04-.48 1.56-.08.2-.17.41-.24.62.26-.48.55-1.07.88-1.8.05-.1.1-.23.22-.3.13-.08.34-.06.41-.2.05-.1 0-.23-.07-.3ZM67.34 101.26c.06-.18.16-.34.33-.38l.09-.11c-.28-.14-.53.1-.42.49ZM69.77 99.7a.2.2 0 0 0-.13-.03c-.1 0-.16.1-.2.17l-.15.27c0 .15.05.3.14.4a.33.33 0 0 0 .08-.08c.02-.04.05-.08.1-.11.03-.03.09-.05.13-.03.03.02.07.06.11.04l.03-.02a.4.4 0 0 0 .08-.32.44.44 0 0 0-.19-.28Z" fill="#568040"/>
    <path d="M69.63 98.55c-.4.52-.41 1.31 0 1.82.42.5 1.24.62 1.76.23.46-.33.94-1.25.8-1.83-.17-.63-1.05-.85-1.6-.76a1.5 1.5 0 0 0-.96.54Z" fill="#D58500"/>
    <path d="M72.18 98.75a.88.88 0 0 0-.34-.48c-.23.95-1.56 1.64-2.5.9-.08.42.02.87.29 1.19.41.5 1.23.63 1.76.23.47-.33.94-1.25.8-1.84Z" fill="#B45F00"/>
    <path d="M51.84 97.23c-2.26-1.1-1.26 1.78-.05 2.4a15.45 15.45 0 0 0 4.53 2.48c-.6-2.25-2.5-3.83-4.48-4.88Z" fill="#EFE9E6"/>
    <path d="M55.78 94.84c-1.52 1.7-.75 4.58-.04 6.56.95-.48 2.04-7.56.04-6.56Z" fill="#EFE9E6"/>
    <path d="M55.42 101.25c-9.1-6.2-8.18 3.58.95 1.11-.25-.42-.57-.8-.95-1.1ZM58.48 94.36c-2.86.69-2.42 6.72-2.1 8 1.31-1.83 4.99-6.37 2.1-8Z" fill="#fff"/>
    <path d="M53.53 94.86c-3.4.53 1.32 6.53 2.85 7.5.05-1.39-.48-6.54-2.85-7.5Z" fill="#fff"/>
    <path d="M58.56 112.47a.38.38 0 0 1-.37-.36c-.2-4.62-1.07-7.1-3.05-11.23a.38.38 0 0 1 .67-.32c2 4.14 2.92 6.8 3.13 11.51 0 .21-.15.39-.36.4h-.02Z" fill="#74A352"/>
    <path d="M63.06 100.51c-2.76.67-5.06 3.43-5.02 6.84a7.45 7.45 0 0 0 5.02-6.84ZM58.7 99.52c-.94.2-1.56.99-2.08 1.73-.7-2.54-3.33-1.08-1.56.86-.92-.2-4.14 1.08-1.72 1.32.89.04 1.8.61 3.32-.22 1.05-.28 2.85-3.87 2.04-3.69Z" fill="#74A352"/>
    <path d="M35.78 112.27c-2-1.52-1.59 1.5-.53 2.35a15.45 15.45 0 0 0 3.94 3.34c-.14-2.32-1.68-4.26-3.41-5.69Z" fill="#EFE9E6"/>
    <path d="M40.12 110.73c-1.83 1.37-1.65 4.34-1.36 6.41 1.03-.27 3.52-6.98 1.36-6.41Z" fill="#EFE9E6"/>
    <path d="M38.47 116.94c-7.66-7.9-8.73 1.86.71 1.28a4.1 4.1 0 0 0-.7-1.28ZM42.86 110.8c-2.94.1-3.73 6.1-3.67 7.42 1.65-1.53 6.17-5.23 3.67-7.42Z" fill="#fff"/>
    <path d="M37.91 110.3c-3.43-.17-.02 6.66 1.28 7.92.33-1.35.85-6.5-1.28-7.92Z" fill="#fff"/>
    <path d="M39.3 128.56a.38.38 0 0 1-.3-.43c.73-4.57.39-7.16-.73-11.6a.37.37 0 1 1 .73-.19c1.12 4.46 1.5 7.24.74 11.9a.37.37 0 0 1-.44.32Z" fill="#568040"/>
    <path d="M46.1 117.75c-2.82.1-5.63 2.34-6.28 5.69a7.45 7.45 0 0 0 6.29-5.69ZM42.03 115.9c-.95 0-1.72.66-2.38 1.28-.17-2.63-3.04-1.73-1.7.53-.85-.39-4.27.22-1.94.94.85.22 1.64.97 3.29.45 1.08-.06 3.56-3.2 2.73-3.2Z" fill="#568040"/>
    <path d="M43.57 116.38c-.82-1.59-1.47.47-1.05 1.34.28 1.2.86 2.3 1.52 3.34.62-1.53.2-3.24-.47-4.68Z" fill="#EFE9E6"/>
    <path d="M46.83 116.7c-1.6.32-2.38 2.29-2.82 3.71.75.14 4.38-3.42 2.82-3.71Z" fill="#EFE9E6"/>
    <path d="M43.89 120.2c-2.53-7.42-6.18-1.46.06 1.03.04-.35.02-.7-.06-1.04ZM48.57 117.58c-1.92-.83-4.25 2.79-4.61 3.65 1.52-.48 5.55-1.5 4.6-3.65Z" fill="#fff"/>
    <path d="M45.54 115.75c-2.16-1.14-2.03 4.28-1.58 5.48.63-.76 2.52-3.93 1.58-5.48Z" fill="#fff"/>
    <path d="M40.9 127.91a.27.27 0 0 1-.07-.36c1.86-2.72 2.42-4.5 3.06-7.69a.27.27 0 1 1 .52.1c-.64 3.22-1.24 5.11-3.13 7.89a.27.27 0 0 1-.38.07v-.01Z" fill="#568040"/>
    <path d="M48.55 123.03a4.9 4.9 0 0 0-5.77 1.75 5.3 5.3 0 0 0 5.77-1.75ZM46.5 120.6c-.62-.28-1.31-.1-1.93.1.7-1.74-1.43-2.03-1.25-.17-.43-.51-2.82-1.15-1.54.02.49.4.77 1.12 1.98 1.28.72.3 3.27-.98 2.73-1.22Z" fill="#568040"/>
    <path d="M51.46 109.6c-2.12-1.95-3.34.53-1.85 2.85.56.86 3.09 3.39 3.9 1.52.57-1.31-1.19-3.56-2.05-4.37Z" fill="#D58500"/>
    <path d="M52.23 110.45c.82 1.04 1.7 2.54 1.28 3.54-.81 1.85-3.34-.65-3.9-1.51-.74-1.16-.82-2.36-.42-3.03.87.88 2.32 1.92 3.04 1Z" fill="#B45F00"/>
    <path d="M55.98 109.05c-.24-2.88-2.85-1.86-3.28.88-.16 1 .03 4.59 1.9 3.75 1.29-.6 1.49-3.44 1.38-4.64Z" fill="#D58500"/>
    <path d="M52.68 109.93a3.48 3.48 0 0 1 1.34-2.38c-.15 1.06.07 4.43 1.8 3.72-.17 1.06-.56 2.08-1.28 2.39-1.81.86-2.02-2.7-1.86-3.73Z" fill="#B45F00"/>
    <path d="M58.8 113.69c2.2-1.88-.12-3.38-2.61-2.15-.93.47-3.72 2.69-1.97 3.7 1.24.71 3.69-.77 4.59-1.55Z" fill="#D58500"/>
    <path d="M56.19 111.54c.28-.13.55-.25.8-.3-.79 1.12-1.16 2.38.14 2.92.26.11.55.17.85.14-1.13.74-2.78 1.5-3.76.94-1.75-1.01 1.04-3.25 1.97-3.7Z" fill="#B45F00"/>
    <path d="M54.12 114.64c.19.04.37.04.56.08.17.07.33.28.23.42-.35.69-1.6.8-2.54.3-1.1-.61-1.7-1.6-1-1.87.13-.05.3 0 .4.06.61.36.28.1 1.11-.17 1.13-.33 1.02 1.11 1.24 1.18Z" fill="#568040"/>
    <path d="M50.36 119.91c.32-.98.76-2.04 1.2-2.9.1-.32.72-1.1.43-1.7-.08-.16-.24-.2-.35-.37-.14-.23.06-.27.26-.3.33-.03.68.03.98.16.42 0 1.34-.05 1.15.65-.07.22-.23.35-.48.37-.18.03-.3 0-.48.06-1.37.6-7.63 18-3.06 32.05.32.95-1.23 1.12-2.04-1.79-1.97-7.4.2-18.98 2.4-26.23Z" fill="#568040"/>
    <path d="M60.73 117.34c1.32-1.2 2.07.33 1.15 1.77-.35.53-1.92 2.1-2.42.94-.35-.81.74-2.2 1.27-2.7Z" fill="#D58500"/>
    <path d="M60.26 117.87c-.52.65-1.06 1.57-.8 2.2.5 1.14 2.07-.41 2.42-.94.46-.72.5-1.46.26-1.88-.54.55-1.44 1.2-1.88.62Z" fill="#B45F00"/>
    <path d="M57.93 117c.15-1.78 1.76-1.15 2.03.55.1.62-.02 2.84-1.17 2.32-.8-.36-.93-2.13-.86-2.87Z" fill="#D58500"/>
    <path d="M59.97 117.55a2.15 2.15 0 0 0-.83-1.47c.1.65-.05 2.74-1.12 2.3.1.66.35 1.29.8 1.48 1.12.53 1.25-1.67 1.15-2.31Z" fill="#B45F00"/>
    <path d="M56.18 119.88c-1.37-1.17.08-2.1 1.62-1.33.57.29 2.3 1.66 1.22 2.29-.77.44-2.29-.48-2.84-.96Z" fill="#D58500"/>
    <path d="M57.8 118.55c-.18-.08-.34-.16-.5-.19.5.7.73 1.47-.09 1.81-.15.07-.33.1-.52.08.7.46 1.72.93 2.33.59 1.08-.63-.64-2.02-1.22-2.3Z" fill="#B45F00"/>
    <path d="M59.08 120.46c-.11.03-.23.03-.34.06-.1.04-.2.17-.14.26.21.42.98.5 1.56.18.7-.38 1.05-.99.62-1.16-.07-.03-.18 0-.25.04-.37.22-.17.06-.68-.1-.7-.2-.63.68-.77.72Z" fill="#568040"/>
    <path d="M61.4 123.73a12.1 12.1 0 0 0-.74-1.8c-.06-.2-.44-.68-.26-1.04.05-.1.15-.14.22-.24.09-.14-.04-.16-.16-.19a1.3 1.3 0 0 0-.61.1c-.26 0-.83-.03-.71.41.04.14.14.22.3.23.1.02.19 0 .3.03.84.38 4.72 11.16 1.89 19.86-.2.59.76.7 1.26-1.1 1.22-4.6-.12-11.77-1.48-16.26Z" fill="#568040"/>
    <path d="M63.28 111.27c-.82-1.58-1.47.48-1.05 1.35.28 1.2.86 2.3 1.52 3.34.62-1.53.2-3.24-.47-4.69Z" fill="#EFE9E6"/>
    <path d="M66.54 111.6c-1.59.32-2.38 2.29-2.82 3.71.75.14 4.39-3.42 2.82-3.71Z" fill="#EFE9E6"/>
    <path d="M63.6 115.09c-2.53-7.4-6.18-1.45.07 1.04.04-.35.01-.7-.07-1.04ZM68.28 112.48c-1.92-.83-4.25 2.79-4.61 3.65 1.52-.48 5.55-1.5 4.6-3.65Z" fill="#fff"/>
    <path d="M65.25 110.65c-2.16-1.15-2.03 4.28-1.58 5.48.63-.77 2.52-3.93 1.58-5.48Z" fill="#fff"/>
    <path d="M60.6 122.8a.27.27 0 0 1-.05-.36c1.85-2.7 2.41-4.48 3.05-7.68a.27.27 0 1 1 .52.1c-.64 3.21-1.24 5.11-3.13 7.89a.27.27 0 0 1-.37.07l-.01-.01Z" fill="#568040"/>
    <path d="M68.26 117.93a4.9 4.9 0 0 0-5.76 1.75 5.3 5.3 0 0 0 5.76-1.75ZM66.2 115.5c-.61-.28-1.3-.1-1.92.1.7-1.74-1.43-2.04-1.25-.18-.43-.5-2.82-1.15-1.54.02.49.4.77 1.12 1.98 1.29.72.29 3.27-.98 2.73-1.22Z" fill="#568040"/>
    <path d="M73.48 108.82c2.26-1.09 1.26 1.78.05 2.4a15.46 15.46 0 0 1-4.54 2.48c.6-2.24 2.5-3.83 4.49-4.88Z" fill="#EFE9E6"/>
    <path d="M69.54 106.43c1.52 1.71.74 4.59.04 6.56-.96-.47-2.05-7.55-.04-6.56Z" fill="#EFE9E6"/>
    <path d="M69.9 112.85c9.1-6.2 8.18 3.58-.95 1.11.25-.42.57-.8.95-1.11ZM66.84 105.95c2.86.7 2.42 6.73 2.1 8.01-1.3-1.83-4.99-6.37-2.1-8Z" fill="#fff"/>
    <path d="M71.79 106.46c3.4.53-1.32 6.53-2.85 7.5-.05-1.4.48-6.55 2.85-7.5Z" fill="#fff"/>
    <path d="M66.75 124.06c.2 0 .37-.16.38-.36.2-4.62 1.06-7.09 3.05-11.22a.38.38 0 1 0-.68-.33c-1.99 4.15-2.91 6.8-3.12 11.52-.01.2.15.38.36.39h.01Z" fill="#74A352"/>
    <path d="M62.26 112.1c2.75.67 5.05 3.44 5.01 6.84a7.45 7.45 0 0 1-5.01-6.83ZM66.62 111.12c.94.2 1.56.98 2.08 1.73.7-2.55 3.33-1.09 1.56.85.91-.2 4.14 1.09 1.71 1.32-.88.04-1.8.62-3.31-.22-1.05-.28-2.85-3.86-2.04-3.68Z" fill="#74A352"/>
    <path d="M87.27 139.88a3.78 3.78 0 0 1-1.07 4.33c.02 2.95-1.32 4.92-3.83 6.02l.02-.09c-1.11 1.86-4.2 3.11-8.35 3.91-5.39 1.05-12.55 1.33-19.45 1.2-7.46-.14-14.6-.75-18.87-1.41-1.3-.2-2.32-.4-3.01-.6a11.66 11.66 0 0 0-1.7-1.18l-.7-.43-.05-.04c-.8-.49-1.63-1.03-2.37-1.7h-.01a6.72 6.72 0 0 1-2.33-4.91c-.94-1.68-2.4-3.24-1.57-5.23-1.7-3.35-2.38-6.69-.4-10.77H87.7c1.43 3.69.99 7.23-.44 10.9Z" fill="#F5B240"/>
    <path d="M87.27 139.88a3.78 3.78 0 0 1-1.07 4.33c.02 2.95-1.32 4.92-3.83 6.02l.02-.09c-1.11 1.86-4.2 3.11-8.35 3.91 13.4-5.45 11.3-19.83 11.3-19.83-4.56 1.6-10.8 2.24-13.56 1.04-4.91 1.49-7.98 1.01-10.53-.03-5.77 1.28-8.44.77-10.37-.19-5.27 1.03-11.46 1.26-13.54.34-4.07.72-3.43 10.92 1.56 13.72 4.68 3.13 10.05 5.6 15.69 6.15.3.03.6.06.9.07-5.24-.31-13.41.09-19.77-1.48a18.57 18.57 0 0 1-5.41-2.21l-.05-.04a9.69 9.69 0 0 1-1.72-1.45l.02.08c-.23-.1-.46-.21-.67-.33h-.01a6.72 6.72 0 0 1-2.33-4.91c-.94-1.68-2.4-3.24-1.57-5.23-1.7-3.35-2.38-6.69-.4-10.77H87.7c1.43 3.69.99 7.23-.44 10.9Z" fill="#DDC097" style="mix-blend-mode:multiply"/>
    <path d="M58.5 145.12s-1.74 3-3.76 3.71c0 0 10.9 5.1 14.84 5.8l-12.28.52-9.12-9.72 10.32-.3Z" fill="#DDC097" style="mix-blend-mode:multiply"/>
    <path d="M40.82 154.93a.27.27 0 0 1-.17-.06 356.19 356.19 0 0 1-18.01-16.36.27.27 0 1 1 .37-.38 354.93 354.93 0 0 0 17.98 16.33.27.27 0 0 1-.17.47ZM53.63 155.88a.27.27 0 0 1-.17-.06C39.61 144.4 28 133.3 17.98 121.87a.27.27 0 1 1 .4-.35c10 11.4 21.6 22.49 35.42 33.88a.27.27 0 0 1-.17.48ZM64.6 155.38a.27.27 0 0 1-.17-.06C49 142.75 37.62 131.8 29.65 121.85a.27.27 0 0 1 .04-.38c.12-.09.28-.07.38.05 7.94 9.91 19.3 20.83 34.7 33.37a.27.27 0 0 1-.17.47Z" fill="#876523"/>
    <path d="M37.63 154.39a.27.27 0 0 1-.16-.48c13.5-10.17 24.18-21.06 31.76-32.37a.27.27 0 0 1 .37-.07c.12.08.16.25.07.37-7.6 11.36-18.33 22.3-31.88 32.5a.27.27 0 0 1-.16.05ZM29.5 151.8a.27.27 0 0 1-.16-.48c12.77-9.89 22-19.63 28.2-29.77a.27.27 0 0 1 .47.28c-6.25 10.2-15.52 19.98-28.35 29.91a.27.27 0 0 1-.17.06ZM24.65 145.67a.27.27 0 0 1-.17-.47c9.94-8.45 16.94-16.18 21.4-23.64a.27.27 0 0 1 .36-.1c.13.08.17.24.1.37-4.5 7.51-11.53 15.3-21.52 23.78a.26.26 0 0 1-.17.06ZM58.47 155.3a.27.27 0 0 1-.17-.47 284.48 284.48 0 0 0 34.3-33.31c.1-.11.26-.13.37-.03.11.1.12.27.03.38a284.98 284.98 0 0 1-34.36 33.37.26.26 0 0 1-.17.06ZM46.93 155.4a.27.27 0 0 1-.17-.48c14-11 25.49-22.23 34.15-33.4a.27.27 0 0 1 .43.34c-8.7 11.2-20.22 22.46-34.25 33.49a.27.27 0 0 1-.16.06Z" fill="#876523"/>
    <path d="M75.68 154.77a.27.27 0 0 1-.18-.06c-14.3-11.87-25.49-22.61-34.18-32.84a.27.27 0 0 1 .41-.35c8.67 10.2 19.83 20.93 34.12 32.77a.27.27 0 0 1-.17.48ZM86.2 144.49a.27.27 0 0 1-.18-.07c-8.6-7.7-15.58-15.09-21.35-22.56a.27.27 0 0 1 .42-.33c5.75 7.45 12.71 14.8 21.29 22.5a.27.27 0 0 1-.18.46ZM82.33 150.54a.27.27 0 0 1-.17-.06c-12.07-10.3-21.6-19.67-29.16-28.61a.27.27 0 1 1 .4-.35c7.54 8.93 17.06 18.27 29.1 28.55a.27.27 0 0 1-.17.47Z" fill="#876523"/>
    <path d="M22.66 127.02c2.25-.91 5.45-1.1 10.39.03 2.86-.7 6.13-.94 10.68.32 2.47-.87 5.7-1.08 10.48.13 2-.99 5.13-1.22 10.29-.07 2.1-1.28 5.5-1.33 10.11-.24 1.9-.79 4.24-1.4 9.95-.4 5.89-4.16 10 3.37 5.15 5.15-1.93 1.33-4.97 1.73-9.4.96-1.64 1.06-4.63 1.36-10.07.28-2.1.89-4.97 1.26-10.22.14-1.96.91-4.63 1.37-10.37-.02-2.58 1-5.65 1.42-10.53-.17-2.8 1.16-6.16 1.36-10.7-.34-7.7 2.86-10.87-5.1-5.76-5.77Z" fill="#B5842F"/>
    <path d="M22.62 127.08c2.35 1.45 3.49 4.51 5.87 5.76-1.83-1.64-3.64-5.32-5.87-5.76ZM33.01 127.12c2.72 1.3 3.52 4.9 6.19 6.06-2.14-1.6-3.6-5.73-6.19-6.06ZM49.7 133.24c-2.16-1.64-3.42-5.2-6.05-5.85 2.42 1.29 3.8 5.09 6.05 5.85ZM60.08 133.26c-1.97-1.76-3.34-5.14-5.94-5.74 2.4 1.22 3.85 4.85 5.94 5.74ZM70.3 133.12c-2.02-1.64-3.33-5.06-5.85-5.66 2.32 1.23 3.77 4.92 5.85 5.66ZM80.38 132.84c-2.12-1.54-3.26-5.1-5.84-5.62 2.37 1.17 3.65 5 5.83 5.63ZM84.54 126.86c2.04 1.1 3.23 4.65 5.24 5.02-1.93-1.23-3.15-4.77-5.24-5.02ZM70.7 155.15a.27.27 0 0 1-.16-.47c5.32-4.4 11.05-9.69 17.5-16.15a.27.27 0 1 1 .39.38 252.36 252.36 0 0 1-17.55 16.18.27.27 0 0 1-.17.06Z" fill="#876523"/>
    <path d="m67.15 122.8.61-.15-.02-.08c.49-.08 1.4.15 2.2.35l.07.25c-1.33 1.01-2.84 3.32-2.84 3.32s-1.1-2.84-.02-3.68Z" fill="#3E5C2E"/>
    <path d="M70.48 121.65c-1.66.33-3.2 1.08-3.33 1.16 3.54-.32 7.07 8.08 7.65 6.61 1.55-3.88-.4-8.56-4.32-7.77Z" fill="#74A352"/>
    <path d="M68.5 122.22c.85.27 1.54 1.1 2.21 1.62.58.46 1.22.83 1.96 1 .83.21 1.66.13 2.4-.2.44 1.43.39 3.17-.25 4.77-.57 1.46-4.1-6.93-7.65-6.61.07-.03.6-.3 1.34-.58Z" fill="#568040"/>
    <path d="m38.87 122.28-.63-.08.01-.08c-.5-.02-1.36.31-2.14.62l-.04.25a16.8 16.8 0 0 1 3.23 2.95s.75-2.96-.43-3.66Z" fill="#3E5C2E"/>
    <path d="M35.42 121.54c1.69.13 3.3.68 3.45.74-3.55.12-6.02 8.9-6.78 7.5-2.02-3.66-.66-8.54 3.33-8.24Z" fill="#74A352"/>
    <path d="M37.45 121.86c-.8.38-1.38 1.29-1.99 1.88-.52.53-1.1.97-1.82 1.24-.8.3-1.63.32-2.4.1-.26 1.47 0 3.2.82 4.7.75 1.37 3.23-7.39 6.79-7.5-.07-.03-.63-.22-1.4-.42Z" fill="#568040"/>
    <path d="M-16.06 100.12c1.2 13.85 2.43 38.63 16.62 43.33 6.88 2.12 14.4 1.07 21.67.23 9.7-1.56-6.58-11.9-7.64-12.01-.4-.04-2.96-5.5-3.08-5.41-6.77-10.96-2.4-49.2-16.92-47.61l-.02-.01a14.05 14.05 0 0 0-7.42 5.87c-2.63 4.22-3.33 9.79-3.21 15.6Z" fill="#464558"/>
    <path opacity=".25" d="M-16.02 101.56c1.47 13.8 2.53 37.11 16.57 41.89 6.88 2.12 14.4 1.07 21.68.23 2.62-.36-9.95-6.4-16.8-10.99-14.69-11.4-16.46-38.73-7.24-53.96-.4-.16-.83-.26-1.27-.31-.8-.08-1.5 0-2.34.23v-.02c-3.2.87-5.8 3.03-7.43 5.88-2.9 5.3-3.22 10.65-3.17 17.05Z" fill="#2B2B37"/>
    <path opacity=".25" d="M-16.06 100.12c1.2 13.85 2.43 38.63 16.62 43.33 6.88 2.12 18.1-5.23 11-5.55-7.88.08-13.94-4.35-17.69-11.29-6.78-11.9-10.1-28.13-4.56-41.17.49-1.1 1.05-2.16 1.68-3.13v-.01c.83-1.29 1.8-2.45 2.97-3.44v-.01a12.3 12.3 0 0 0-6.8 5.66c-2.66 4.82-3.14 9.61-3.22 15.6Z" fill="#2B2B37"/>
    <path d="M7.29 108.79c-.89 1.34-2.23 2.22-3.77.7a17.08 17.08 0 0 1-2.34-3.13c-3.49-5.87-5.37-11.78-5.54-18.7-.09-2.93.26-7.08 3.73-8.09.04 0 .12-.04.17-.04 4.7 3.9 5.82 16.85 7.75 29.26Z" fill="#575770"/>
    <path opacity=".25" d="M7.29 108.79c-.89 1.34-2.23 2.22-3.77.7a17.08 17.08 0 0 1-2.34-3.13c-3.49-5.87-5.37-11.78-5.54-18.7-.09-2.93.26-7.08 3.73-8.09.04 0 .12-.04.17-.04 4.7 3.9 5.82 16.85 7.75 29.26Z" fill="#2B2B37"/>
    <path d="M29.99 142.59a13.24 13.24 0 0 1-2.04 4.89 20.9 20.9 0 0 1-5.01 5.1l-.28.2a34.48 34.48 0 0 1-2.09 1.46l-.34.22c-2.83-.33-5.65-.63-8.36-1.1l-.36-.05-.04-.01c-9.22-1.63-17.2-5.15-20.37-17.62l-.23-1a.2.2 0 0 1 0-.09.75.75 0 0 1 .12-.2 17.34 17.34 0 0 1 3.43-2.46l.25-.14.05-.03.28-.16.4-.2.23-.13.45-.22.26-.12.37-.16c.33-.14.63-.24.85-.28 1.52-.28 3.09-.49 4.67-.62 10.52.42 12.25 1.85 12.19 2 3.54 3.34 8.54 5.5 12.47 8.5l.03.03c.89.61 2.35 1.67 3 2.14l.07.05Z" fill="#464558"/>
    <path opacity=".25" d="m22.88 152.56.05.02.3.07-.23-.06c-.02 0-.04 0-.06-.02h-.06Z" fill="#272734"/>
    <path opacity=".25" d="M26.32 144.56c-.84 2.45-2.75 7.75-6.1 9.9C7.55 153-4.75 151.96-8.9 135.68c-.04-.42-.4-.92-.1-1.3.58-.7 1.94-1.58 3.43-2.46 2.34-1.57 5.05-1.8 7.8-2.05 16.52 16 26.09 7.22 24.1 14.7Z" fill="#2B2B37"/>
    <path opacity=".25" d="M27.95 147.48a20.87 20.87 0 0 1-5.01 5.1c-.88.66-1.79 1.29-2.72 1.88C7.55 153-4.75 151.96-8.9 135.68c-.06-.46-.45-1.02-.02-1.4.97-1.01 3.86-2.78 5.62-3.5.63.98 19.17 17.4 29.62 13.78 1.25.33 1.79 1.44 1.63 2.92Z" fill="#2B2B37"/>
    <path opacity=".48" d="M10.42 150.98c5.36-3.25 10.18-7.3 13.9-12.36.59.35 2.55 1.74 2.85 1.96 1.24.94 1.74 1.27 2.8 2.02-1.26 5.49-5.18 8.94-9.75 11.88l-.3-.05c-4.18-.74-8.35-1.02-12.49-2.09 1.02-.4 2.02-.81 2.98-1.35l.01-.01Z" fill="#2B2B37"/>
    <path d="m61.86 155.78-9.6-8.83c2.18.69 6.11.2 6.37-2.6-.01-.14.03-.2-.13-.2a8.18 8.18 0 0 1-5.06-1.57 5.05 5.05 0 0 0-4.08-1.13c-3.5.22-7 .56-10.5.86-1.92.3-4.45-.46-4.17 2.4.12 1.5-.46 9.53 1.48 9.28 2.42.37 3.36 2.99 5.24 4.25 3.01 1.6 7.37 5.12 10.57 2.3.97-.12 2.38-1.5 2.47-2.27-.04.1.04-.1 0 0 1.16-.11 2.2-.6 2.92-1.54.1-.11.1-.23.26-.16.9.4 1.65.98 2.54 1.37 2.01 1 3.33-.4 1.7-2.16Z" fill="#D58500"/>
    <path opacity=".36" d="M42.32 156.7c1.08-.3 2.09-.8 3.06-1.35 1.79-1 3.38-2.31 4.56-3.99a9.59 9.59 0 0 1-4.13-1.47 16.15 16.15 0 0 1-3.5-2.82c-.99-1.08-1.8-2.3-2.5-3.58-.2-.39-.43-.78-.62-1.2l-.33.03c-.51.04-1.01.1-1.53.13-.55.05-1.13.04-1.66.15-.95.22-.95 1.36-.98 2.13-.07 2.35.01 4.7.28 7.04.07.51.1 1.05.22 1.55.13.5.51.62.98.68.82.12 1.5.53 2.11 1.08.6.54 1.1 1.15 1.62 1.75.82.03 1.61.08 2.42-.14ZM61.86 155.78c-2.03-1.9-4.1-3.76-6.14-5.65-.1 1.64-1.46 2.94-2.81 3.47a3.22 3.22 0 0 1-2.61 2.72 4.33 4.33 0 0 1-3.17 2.53c-.22.01-.28.04-.45.19-.64.64-1.47.82-2.35.85 2.31 1.11 5.45 2.88 7.64.64.98-.12 2.38-1.5 2.48-2.27-.03.05-.01.01 0-.01 1.15-.1 2.2-.59 2.92-1.53.1-.12.1-.23.26-.17.89.4 1.64.99 2.54 1.38 2 .98 3.34-.38 1.69-2.15Z" fill="#B45F00"/>
    <path opacity=".38" d="M46.25 142.8c.74 0 1.47-.08 2.11-.48.39-.23.7-.52.99-.87-2.14.13-4.28.32-6.41.5.34.3.86.47 1.28.58.65.18 1.33.27 2.03.27ZM52.78 151.6c.25.44.8.9 1.34.72.74-.24.78-1.1.48-1.7-.86-1.77-2.42-.07-1.82.98ZM47.57 144.35c.23-.1.48-.34.42-.62-.08-.37-.5-.45-.8-.33-.92.32-.18 1.18.38.95ZM51.23 153.45c-.42-.3-.88-.3-1.07.26 0 .02 0 .03-.02.03-.15.6.7 1.57 1.18 1.1a.86.86 0 0 0-.09-1.39ZM46.59 157.23c.23.62.96.86 1.52.52.54-.34.77-1.06.44-1.62-.72-1.22-2.32.14-1.96 1.1ZM42.94 158.1c.18.32.69.2.97.1.2-.07.67-.38.4-.63-.27-.27-1.63.06-1.37.52Z" fill="#E2A040"/>
    <path opacity=".36" d="M38.44 155.22c.3-.54.61-1.08.88-1.63.83-1.67 1.53-3.5 1.85-5.34.18-1.02.15-1.98 0-3a7.13 7.13 0 0 1 0-2.15c.06-.33.12-.68.2-1l-2.51.2-1.53.14c-.55.05-1.13.03-1.66.15-.95.22-.95 1.36-.98 2.13-.07 2.34.01 4.7.28 7.04.07.51.1 1.05.22 1.55.13.5.51.61.98.68a3.95 3.95 0 0 1 2.27 1.23ZM58.63 144.35c0-.1.01-.16-.04-.18.1.05-.22.49-.26.52-.14.16-.34.26-.52.36-.48.27-1.04.43-1.55.58-.45.14-.91.27-1.39.3-.47.05-.96 0-1.4-.21-.76-.37-1.24-1.16-1.87-1.75a5.25 5.25 0 0 0-.9-.67 1.5 1.5 0 0 0-1.3-.13c-.23.06-.77.2-.74.54.06.74 1.1 1.35 1.65 1.75.6.44 2.2 1.54 2.27 1.58 1.59.46 3.3.28 4.72-.62.7-.43 1.4-1.17 1.33-2.07Z" fill="#B45F00"/>
    <path opacity=".36" d="m40.53 157.51.46-.07c7.41-1.43 9.26-5.6 10.61-6.7-.12-.07-10.34-6.73-12.07-8.25-1.22.1-1.89-.07-3.41.05-.26.03-.53.05-.76.18-.52.3-.61 1-.64 1.59a48.6 48.6 0 0 0 .42 8.73c.04.26.1.54.27.72.22.22.55.23.86.27 1.86.3 2.92 2.14 4.26 3.48ZM55.64 144.7c.48.47 1.07.6 1.66.46a1.58 1.58 0 0 1-1.54-1.39 7.42 7.42 0 0 1-.51-.18c0 .41.09.82.4 1.12ZM51.25 145.27c-.23-.13-.5-.23-.7-.41-.21-.18-.37-.42-.5-.65-.16-.27-.28-.95-.66-.93-.2.02-.63.36-.56.62.09.4.52.74.84 1 .41.32.85.61 1.28.9.44.28.82.61 1.22.93l.41.32.2.05c-.56-.52-.86-1.46-1.53-1.83Z" fill="#B45F00"/>
    <path opacity=".36" d="M49.87 151.04c-.2.09-.2.41-.05.58.14.16.37.23.6.3 1.4.52 2.34 1.81 3.5 2.77.66.56 1.42 1 2.17 1.43.16.09.32.18.49.22.36.08.78 0 1.05.24-.02-.17-.2-.27-.33-.36-1.1-.62-2.26-1.17-3.2-2.01-.67-.6-1.23-1.36-2-1.85-.52-.33-1.15-.54-1.59-1-.19-.17-.4-.42-.64-.32ZM48.32 154.26c-.18-.08-.38-.14-.58-.1-.19.06-.34.28-.28.46.1.23.41.23.65.25.65.08 1.31.93 1.79 1.38a8.1 8.1 0 0 0 4.4 2.12c.08-.11-.04-.24-.17-.32a23.3 23.3 0 0 0-2.81-1.3c-.22-.1-.45-.17-.64-.3-.32-.22-.53-.55-.78-.85a5.11 5.11 0 0 0-1.58-1.34ZM45.87 158.48c.37.14.68.42 1.01.65.86.58 1.9.82 2.91 1.04.53.11 1.47.59 2.18.4-1.06-.14-2.42-.86-3.37-1.22-.84-.32-1.86-.39-2.48-1.04-.27-.27-.53-.67-.92-.64-.16.14-.08.42.07.55.18.14.4.18.6.26ZM59.5 156.8c.05.03.08-.06.1-.1 0-.34.36-.57.7-.57.33 0 .64.18.92.35.24.14.47.28.72.4a2.18 2.18 0 0 0-.39-.63 1.56 1.56 0 0 0-.88-.54 1 1 0 0 0-.95.32c-.17.23-.22.51-.22.78Z" fill="#B45F00"/>
    <path d="M22.17 135.27c-6.26 2.86-6.12 10.15-6.31 16.17-.2 6.45 5.3 2.83 22.45 3.9-.82-4.44-1.25-9.47 1.5-13.07-13.95-3.95-14.96-8.23-17.64-7Z" fill="#575771"/>
    <path opacity=".14" d="M22.17 135.27c-6.26 2.86-6.12 10.15-6.31 16.17-.2 6.45 5.3 2.83 22.45 3.9-.82-4.44-1.25-9.47 1.5-13.07-13.95-3.95-14.96-8.23-17.64-7Z" fill="#A4A4A4"/>
    <path d="M39.8 142.26a63.68 63.68 0 0 1-7.18-2.46 14.93 14.93 0 0 1-8.18 3.37c-2.62.23-5.26-.26-7.6-1.41-.88 3.02-.88 6.52-.98 9.66-.2 6.45 5.3 2.84 22.45 3.92-.82-4.45-1.25-9.5 1.5-13.08Z" fill="#575771"/>
    <path opacity=".25" d="M39.8 142.26c-.55-.17-1.1-.32-1.63-.49-.3.63-.62 1.24-1 1.82a9.84 9.84 0 0 1-2.41 2.37 21.1 21.1 0 0 1-3.93 2.2 49.6 49.6 0 0 1-8.5 2.74c-1.71.4-3.42.7-5.18.75-.43.02-.87.02-1.29 0-.06 6.12 5.51 2.6 22.45 3.67-.82-4.43-1.24-9.47 1.5-13.06Z" fill="#2B2B37"/>
    <path opacity=".25" d="M33.86 151.95c-1.76-.05-3.35.9-4.77 1.8-.77.5-1.54 1-2.33 1.44 3.06-.1 6.87-.16 11.55.13l-.12-.63c-1.3-1.15-2.47-2.69-4.33-2.74Z" fill="#2B2B37"/>
    <path d="m38.86 142.1 10.8 8.65s-6.65 8.96-11.35 4.57c-4.7-4.37.55-13.22.55-13.22Z" fill="#575771"/>
    <path opacity=".25" d="M48.37 150.1c-1.54.65-3.29.78-4.73 1.67-2.4 2.15-5 2.53-7.2-.15 2.28 10.42 12.27 1.17 13.23-.86l-1-.8c-.1.04-.2.1-.3.13Z" fill="#2B2B37"/>
    <path opacity=".14" d="M41.98 148.26c1.2.7 2.73.65 4.03.3.24-.06.45-.12.67-.2l-6.13-4.9c-.51 1.76-.25 3.82 1.43 4.8Z" fill="#A4A4A4"/>
    <path d="M33.09 151.4a.23.23 0 0 1-.09-.03c-7.55-3.96-9.7-10.69-9.7-10.75a.2.2 0 0 1 .12-.25c.1-.02.2.03.25.13.02.06 2.11 6.64 9.52 10.53.1.05.13.16.08.25a.2.2 0 0 1-.18.12Z" fill="#323147"/>
    <path d="M19.91 153.99a.15.15 0 0 1-.1-.04c-.1-.06-.12-.18-.05-.27.02-.04.31-.21.87-.51 7.92-4.35 12.68-7.81 14.13-10.31a.19.19 0 0 1 .27-.06c.09.05.13.16.06.26-2.26 3.86-11.3 8.83-14.28 10.45l-.76.43c-.05.02-.09.05-.14.05Z" fill="#323147"/>
    <path opacity=".48" d="M4.64 130.46c2.5.24 5.33-3.9 7.4-3.35-.2-.16-.5-.75-.45-.93-1.86-.15-6.49-1.03-6.28 1.74 0 0 1.76.66.84 1.52-.45.42-1.54-.66-2.02-.21-.52.48-.12 1.02.51 1.23Z" fill="#2B2B37"/>
    <path d="M89.87 145c-.22.8-.04 1.55-.53 2.4-.97 1.71-2.71 2.85-3.02 2.36-.7-1.1 2.92-4.13 3.58-6.09.18.41.1.9-.03 1.34Z" fill="#D58500"/>
    <path opacity=".36" d="M88.43 148.47c.04 0 .08.02.12.04.15-.18.32-.38.46-.58a.94.94 0 0 1-.24-.85c.12-.48.42-1.06.95-1.15.03-.3.05-.6.14-.9.12-.45.2-.93.03-1.36-.65 1.96-4.29 4.99-3.59 6.09.13.2.51.12.98-.17-.02-.59.54-1.19 1.15-1.12Z" fill="#B45F00"/>
    <path opacity=".36" d="M86.65 149.76c.13-.97.74-1.7 1.59-2.12-.12-1.02.5-2.1 1.55-2.3l.06-.33c.13-.44.22-.93.03-1.35-.64 1.95-4.28 4.99-3.58 6.08.06.1.18.13.33.11a.18.18 0 0 0 .02-.09Z" fill="#B45F00"/>
    <path opacity=".4" d="M88.12 148.78c-.17-.2-.36-.4-.6-.4-.19 0-.35.1-.48.23-.18.16-.32.38-.41.61.1-.29.4-.45.7-.54l.24-.06c.19 0 .39.04.55.16Z" fill="#9B4300"/>
    <path d="M85.03 147.88c.06-.5.55-1.5 1.33-1.74.53-.16.14-.39.5-.81.61-.65 2.4-2.8 3.1-1.42.13.52-.42.91-.57 1.43 0 1.13-4.1 3.9-4.36 2.54Z" fill="#D58500"/>
    <path opacity=".36" d="M88.14 146.42c.15-.63.71-1.22 1.32-1.23.3-.53.9-1.22.23-1.67-1.18-.2-2.07 1.04-2.82 1.8-.37.43.03.66-.5.82-.77.23-1.85 1.8-1.04 2.11a3.8 3.8 0 0 1 2.8-1.83Z" fill="#B45F00"/>
    <path opacity=".36" d="M87.7 146.34c.44-.85 1.15-.97 1.33-1.15.09-.08.4-.18.5-.17.23-.38.54-.7.44-1.1a.59.59 0 0 0-.29-.4c-.2-.1-.45-.05-.66.03a6.02 6.02 0 0 0-2.15 1.78c-.37.42.03.65-.5.81-.25.08-.47.24-.67.43l.7-.17c.65-.13 1.14-.03 1.3-.06Z" fill="#B45F00"/>
    <path opacity=".4" d="M86.82 147.3c-.17-.17-.37-.37-.63-.36a.68.68 0 0 0-.46.25c-.17.17-.3.4-.37.63.1-.28.4-.47.68-.58a.67.67 0 0 1 .22-.05c.19-.04.4.01.56.12Z" fill="#9B4300"/>
    <path d="M86.57 143.57c.8-.72 1.92-1.04 2.85-1.59.6-.39 1.81-1.26 1.77.1a5.17 5.17 0 0 1-1.8 2.92c-2.9 1.54-6.48 2.74-2.82-1.43Z" fill="#D58500"/>
    <path opacity=".36" d="M86.45 145.61c.36-.64 1.58-1.02 1.8-.1.37-.18.75-.35 1.15-.5-.2-1.14.68-2.3 1.74-2.59.36-1.65-.9-1.01-1.7-.43-.92.55-2.05.88-2.85 1.6-1.02.9-2.7 3.53-.26 2.76a.88.88 0 0 1 .12-.74Z" fill="#B45F00"/>
    <path opacity=".36" d="M85.67 145.72a3.2 3.2 0 0 1 2.1-1.66c.21-.04.4 0 .58-.03-.07.01.07-.3.1-.37.16-.37.37-.61.7-.83.52-.31 1.28-.31 1.88-.12.09-.22.14-.44.15-.64.03-.32-.1-.73-.43-.76-.16-.02-.3.07-.44.14l-.9.53c-.92.55-2.04.88-2.85 1.6-.86.77-2.17 2.73-1.12 2.9.03-.3.12-.55.23-.75Z" fill="#B45F00"/>
    <path opacity=".36" d="M88.8 143.24c.58.12 1.3.26 1.93.13.24-.45.43-.9.47-1.3.03-.33-.11-.75-.44-.78-.15-.01-.3.07-.44.15l-.89.53c-.6.36-1.3.62-1.92.97.41.14.87.21 1.28.3Z" fill="#B45F00"/>
    <path opacity=".4" d="M87.45 145.5c-.08-.34-.45-.58-.8-.57-.35.01-.66.23-.89.5a1.5 1.5 0 0 1 1.28-.23c.1.03.19.07.24.14.06.06.09.15.17.16Z" fill="#9B4300"/>
    <path d="M93.6 138.43c-.25 2.54-2.53 4.28-5.37 5.15l-2.8.13c-.17-1.9 1.65-2.55 3.08-2.88.6-.81 2.07-1.36 1.82-1.78a16.84 16.84 0 0 0-2.2-2.05c.28-1.7.15-2.43.37-3.79 2.13.88 5.75 2.37 5.1 5.22Z" fill="#D58500"/>
    <path opacity=".36" d="M93.61 138.43c-.2 1.06-.4 2.07-1.6 3.12-1.28-.97-3.07.66-3.48 1.96-1.02.2-2.06.1-3.09.2-.15-1.9 1.65-2.56 3.08-2.88.6-.87 2.24-1.36 1.75-1.87-.3-.41-1.6-1.56-2.14-1.96.28-1.7.14-2.43.37-3.79 2.13.86 5.7 2.4 5.11 5.22Z" fill="#B45F00"/>
    <path opacity=".36" d="M92.12 139.11c-.35.4-.88.53-1.34.78-.46.25-.7.73-1.2.92-.87.21-1.26 1.13-2.1 1.33-.84-.13-1.65.18-2 1 .21-1.6 1.82-1.98 3.05-2.3.57-.82 2.1-1.38 1.8-1.8-.01-.02-.03-.06-.06-.08-.3-.41-1.6-1.56-2.14-1.96.28-1.7.15-2.43.37-3.79.6.13 1.22.48 1.77.76-.29 3.35 3.4 3.65 1.85 5.14Z" fill="#B45F00"/>
    <path d="M93.67 137.4a2.87 2.87 0 0 1-1.56-1.03 3.4 3.4 0 0 1-.65-1.14c-.03-.1-.07-.32-.08-.54.33.21.65.41.94.63l.05.04c.2.17.4.34.57.53l.1.11.18.24.08.12a2.51 2.51 0 0 1 .26.54l.03.1.05.2.03.2Z" fill="#D58500"/>
    <path opacity=".4" d="M86.79 142.37c-.36.06-.65.33-.82.64.3-.16 1-.49 1.33-.24.1.07.15.18.1.29.15.04.31-.1.29-.25-.05-.34-.6-.5-.9-.44Z" fill="#9B4300"/>
    <path opacity=".36" d="M90.47 139.24c.2-.13.4-.28.65-.32.21-.04.46 0 .66-.12a.41.41 0 0 0 .19-.4.42.42 0 0 0-.28-.35c-.29-.1-.58.12-.79.35-.18.2-.38.43-.63.47.05.09.08.17.09.25 0 .08 0 .16-.04.2l.15-.08Z" fill="#B45F00"/>
    <path d="M210.62 22.27c1.21-1.1 1.94-2.7 1.3-4.13a4.27 4.27 0 0 0-1.95-1.96c-2.68-1.59-6.24-1.59-9.28-.7-3.04.92-5.71 2.63-8.34 4.36 2.71-2.18 5.47-4.47 6.93-7.5 1.42-3.02 1.05-7.02-1.78-9.01-2.6-1.81-6.24-1.47-9.4-.74a47.13 47.13 0 0 0-17.52 8.09c-3.32 2.47-9.85 7.27-10.58 11.6h50.62Z" fill="#EAEAEA"/>
    <path d="M196.52 17.29c-1.01 1.44 2.43 2.03 3.4 2.07 2.23.1 4.5-.66 6.36-1.7 1.01-.55 1.9-1.26 2.64-2.04-2.51-1.03-5.55-.96-8.23-.14a19.83 19.83 0 0 0-4.13 1.77s0 .04-.03.04h-.01Z" fill="#fff"/>
    <path d="M172.2 18.07c6.12.37 13.78.37 18.68-3.5 2.88-2.3 5.23-6.29 3.49-9.72a9.26 9.26 0 0 0-2.31-2.84c-1.34.04-2.68.29-3.97.59a47.14 47.14 0 0 0-17.52 8.09c-1.94 1.44-5.03 3.72-7.37 6.23 2.92.67 6 1 9 1.15Z" fill="#F3F3F3"/>
    <path d="M304.6 50.88c1.2-1.11 1.93-2.7 1.29-4.14a4.27 4.27 0 0 0-1.95-1.95c-2.67-1.6-6.24-1.6-9.27-.7-3.04.92-5.72 2.62-8.35 4.35 2.72-2.18 5.47-4.46 6.93-7.5 1.42-3.02 1.05-7.01-1.78-9-2.6-1.82-6.24-1.48-9.4-.74a47.14 47.14 0 0 0-17.52 8.08c-3.32 2.48-9.84 7.27-10.58 11.6h50.62Z" fill="#EAEAEA"/>
    <path d="M290.49 45.9c-1.01 1.43 2.43 2.02 3.4 2.06 2.23.11 4.5-.66 6.37-1.7 1-.55 1.9-1.25 2.63-2.03-2.5-1.03-5.55-.96-8.22-.15a19.83 19.83 0 0 0-4.13 1.77s0 .04-.04.04h-.01Z" fill="#fff"/>
    <path d="M266.17 46.67c6.12.37 13.78.37 18.68-3.5 2.88-2.3 5.23-6.28 3.5-9.71a9.26 9.26 0 0 0-2.32-2.85c-1.33.04-2.68.3-3.97.6a47.14 47.14 0 0 0-17.51 8.08c-1.95 1.44-5.03 3.73-7.38 6.24 2.92.66 6 1 9 1.14Z" fill="#F3F3F3"/>
  </g>
  <defs>
    <clipPath id="a">
      <path fill="#fff" d="M0 0h320v194H0z"/>
    </clipPath>
  </defs>
</svg>
