<svg width="96" height="96" viewBox="0 0 96 96" fill="none" xmlns="http://www.w3.org/2000/svg">
<path d="M26.6605 4H69.3395C74.2864 4.00738 79.0284 5.97574 82.5264 9.47369C86.0242 12.9716 87.9926 17.7137 88 22.6605V65.3395C87.9926 70.2863 86.0242 75.0284 82.5264 78.5263C79.0284 82.0243 74.2864 83.9926 69.3395 84H26.6605C21.7136 83.9926 16.9716 82.0243 13.4736 78.5263C9.9758 75.0284 8.00732 70.2863 8 65.3395V22.6605C8.00732 17.7137 9.9758 12.9716 13.4736 9.47369C16.9716 5.97574 21.7136 4.00738 26.6605 4Z" fill="#0076CB"/>
<ellipse cx="48" cy="94" rx="42" ry="2" fill="black" fill-opacity="0.1"/>
<path d="M21 77C52.4802 77 78 51.4802 78 20C78 14.9055 77.3317 9.96716 76.0779 5.26782C73.9493 4.44104 71.6671 4.00342 69.3395 4H26.6605C21.7136 4.00732 16.9716 5.97571 13.4736 9.47363C9.9758 12.9716 8.00732 17.7136 8 22.6605V65.3395C8.00581 69.2665 9.24751 73.0645 11.5091 76.2134C14.5957 76.7307 17.7664 77 21 77Z" fill="#2DA0F3"/>
<path d="M21 47C35.9117 47 48 34.9117 48 20C48 14.0112 46.0502 8.47778 42.7508 4H26.6605C21.7136 4.00732 16.9716 5.97571 13.4736 9.47363C9.9758 12.9716 8.00732 17.7136 8 22.6605V43.67C11.8563 45.7925 16.2872 47 21 47Z" fill="#7CC8FF"/>
<path d="M62.4707 39.8206L42.7706 27.5075C38.7634 24.9992 35.4761 26.8234 35.4761 31.5518V57.2101C35.4761 61.9386 38.7634 63.7627 42.7706 61.2545L62.4707 48.9414C66.4779 46.4332 66.4779 42.3288 62.4707 39.8206Z" fill="white"/>
</svg>
