<svg xmlns="http://www.w3.org/2000/svg" width="220" height="165" fill="none" viewBox="0 0 220 165"><g clip-path="url(#a)"><g clip-path="url(#b)"><path fill="#74a352" d="M108.395 58.496c-3.266 3.266-8.078 4.944-12.712 4.635s-9.049-2.56-12.227-5.959c-4.59-4.899-5.694-9.533-20.966-6.223-4.634 1.015-9.313 1.942-14.036 1.457-18.847-1.942-11.3-25.555-25.777-19.023-1.986.927-2.604 5.076-4.238 6.488-3.53 2.957-8.165-1.192-13.815-2.913-5.517-1.721-12.138-1.81-14.875 6.753l-5.562-6.974c11.124-11.034 24.321-1.147 26.881-.176 2.604.97 5.738 1.103 7.901-.618 1.324-1.103 2.075-2.736 3.222-4.016 8.298-9.313 23.482 4.766 28.47 8.077 4.06 2.736 8.695 4.987 13.595 4.943 24.585-.133 21.584 15.447 44.139 13.55"/><path fill="#568040" d="M11.598 36.693c2.295.75 4.943.795 6.885-.441-2.736 5.164-2.692 4.149-13.86.662C-.32 35.369-6.19 35.148-9.323 41.372-8.84 40.047-8 38.768-7.25 37.929c2.428-2.692 6.4-4.943 10.108-4.59 3.09.309 5.606 2.516 8.563 3.354zm6.842 3.177a2.9 2.9 0 0 1-.751.53c.75-1.544 1.28-3.221 1.721-4.899 1.06-1.059 1.722-2.471 2.737-3.619 1.633-1.853 3.575-2.78 5.606-3.045a13.4 13.4 0 0 0-2.958 3.752c-.662.176-1.368.44-2.163.794-1.942.927-2.515 5.075-4.193 6.488"/><path fill="#aed888" d="M50.176 39.65c.176.089.308.22.441.31 4.06 2.736 8.695 4.986 13.595 4.942a86 86 0 0 1 3.575.089c-26.351 11.96-27.146-11.608-34.914-15.713 6.71 1.81 13.727 7.812 17.17 10.284.088.044.133.044.133.088" opacity=".49"/><path fill="#3e5c2e" d="M72.73 46.491c1.986.31 3.752 1.59 4.9 3.222.574.794 1.015 1.677 1.368 2.604-2.78-2.34-6.797-3.443-16.508-1.368-1.192.265-2.428.53-3.62.75 3.355-1.765 6.489-3.928 10.108-4.899 1.236-.353 2.516-.485 3.752-.309"/><path fill="#aed888" d="M46.998 40.003c-1.545-1.81-2.825-3.884-4.282-5.782 3.399 2.296 6.268 4.635 7.945 5.782 1.854 1.236 3.885 2.384 5.96 3.266-.442.133-.884.221-1.325.31-3.487.44-6.091-1.016-8.298-3.576" opacity=".49"/><path fill="#74a352" d="M37.64 10.476s-1.191 5.252 0 7.503c1.192 2.207 5.032 3.443 8.255 3.664 3.266.176 13.153-.221 16.772-.177 3.576.044 14.213 2.119 14.213 2.119s9.843 2.78 3.973-.044c-9.71-4.635-15.846-5.65-33.149-3.62-8.386.927-11.697-5.737-10.063-9.445"/><path fill="#3e5c2e" d="M129.494 61.762c-5.518-7.459-16.685-4.458-21.628-3.31-20.658 4.767-26.528-5.914-22.467-17.08.132-.31.397-1.06.706-1.898 6.665-20.965-34.561-16.816-39.99-17.566-5.562-.75-10.285-2.605-11.83-10.196 7.416 9.445 7.813 10.505 19.334 9.401 6.488-.618 13.02-.353 19.509.486 2.56.308 5.164.75 7.548 1.81a16.4 16.4 0 0 1 4.458 2.868c1.192 1.06 2.251 2.34 2.869 3.84 2.737 6.223-4.944 25.73 18.273 25.29 6.842-.133 21.143-1.766 23.218 6.355"/><path fill="#568040" d="M86.06 39.474c6.665-20.965-34.56-16.86-39.99-17.566-5.562-.75-10.284-2.605-11.83-10.196 7.416 9.445 7.813 10.505 19.334 9.401 6.488-.618 13.02-.353 19.51.486 2.56.308 5.163.75 7.547 1.81a16.4 16.4 0 0 1 4.458 2.868c1.192 1.06 2.251 2.34 2.869 3.84.839 1.898.706 5.075.75 8.518-.882 1.765-1.986 3.398-3.001 4.723l-1.324 1.588c.176-1.147.485-2.339.927-3.53.176-.354.441-1.104.75-1.942m20.216 15.932c6.885-.132 21.142-1.81 23.217 6.356-5.518-7.459-16.685-4.458-21.628-3.31-9.093 2.118-15.317 1.191-19.112-1.413-3.178-5.517-2.649-11.519.044-17.168.264 7.503 2.207 15.844 17.479 15.535"/><path fill="#3e5c2e" d="M112.235 55.892c1.854-.088 3.487.309 5.253 1.015-3.752.133-7.372 1.015-9.667 1.545-3.31.75-6.223 1.103-8.783 1.148.485-.265.971-.486 1.324-.663 2.427-1.28 4.943-2.295 7.636-2.692 1.456-.176 2.869-.309 4.237-.353"/><path fill="#74a352" d="M89.592 45.917c1.324 4.81 4.811 8.915 13.815 9.445-.75.485-1.545.839-2.339 1.103-2.957.927-6.444.265-8.607-1.986-1.81-1.898-2.428-4.634-2.693-7.15-.044-.441-.132-.926-.176-1.412"/><path fill="#568040" d="M35.477-15.475c-.971-.221-4.105-1.369-4.105-1.369-.927 2.34-2.428 4.635-1.236 7.989.927 2.471 5.517 7.194 4.37 15.624-.177 1.192-.398 2.34-.398 3.487.045 4.148 3.443 8.783 8.652 10.283-2.914-1.368-4.988-5.075-5.209-7.15-.044-.662 0-1.324.088-1.986.442-3.001 1.369-6.002.883-8.96-.485-2.957-2.25-5.516-3.84-8.032-1.898-3.045-.353-8.253.795-9.886"/><path fill="#3e5c2e" d="M34.109 10.3c-.044-1.192.264-2.34.397-3.487.838-5.915-1.192-9.975-2.78-12.756 10.593 10.107 5.12 10.02 2.427 16.904 0-.264-.044-.441-.044-.662" opacity=".32"/><path fill="#3e5c2e" d="M86.104 39.43c2.913-11.211-8.254-15.713-19.73-16.905 4.237.045 10.99.574 14.875 2.295 6.047 2.737 8.784 10.77 4.855 14.61"/><path fill="#464558" d="M104.244 78.048c0 .089-.044.133-.044.221-1.765 8.518-6.886 15.889-10.726 24.628-1.147 2.162-5.694 7.724-9.269 12.049-.706.883-1.412 1.677-1.986 2.383l-.044.044c-.044.044-.089.133-.133.177-1.456 1.765-2.472 2.913-2.472 2.913-1.368.529-15.227 5.031-18.008 1.456-.618-.75-.486-2.648-.088-4.766.44-2.295 1.28-4.811 1.986-6.4 2.163-4.899 3.663-10.107 5.517-14.962 1.59-4.414 2.693-8.871 4.723-13.108.309-.75 5.34-10.858 9.578-13.991 4.326-2.648 10.24-4.635 14.743-3.973h.088c2.56.398 4.635 1.633 5.782 4.06.971 2.12 1.192 5.12.353 9.27"/><path fill="#2b2b37" d="M86.545 71.604c-.265 1.324-.574 2.693-1.015 4.017-.795 2.383-2.075 4.634-2.737 7.061-.574 2.119-.618 4.281.927 6.18 1.192 1.456 2.913 2.515 4.37 3.707 1.633 1.324 2.118 2.516 2.56 4.766 0 4.282-6.753 10.858-6.533 13.285.088 1.06 8.828-4.148 8.96-3.089 6.71-13.285 15.449-33.764 9.799-40.561-3.133-3.796-10.814-2.34-15.89-.265.133 1.633-.132 3.31-.441 4.9" opacity=".29"/><path fill="#2b2b37" d="M104.201 78.136v.133c-1.016 5.87-3.62 12.932-6.533 19.552-.574 3.045-1.898 6.002-3.399 8.739-.794 1.456-3.398 2.207-5.385 3.663-1.412 1.059-3.266 3.09-4.722 4.723a60 60 0 0 0-1.987 2.383l-.044.044c-.088.088-.132.132-.132.177-1.766 1.765-4.502-.971-7.283.176-8.21 3.443-11.874 2.163-13.33-.53.441-2.295 1.28-4.81 1.986-6.399 2.163-4.899 3.663-10.107 5.517-14.962 4.812.397 15.184-2.428 15.36-7.68.177-5.296 4.106-8.341 6.622-11.74 1.677-2.295 2.736-4.678 1.5-8.077a19 19 0 0 0-1.324-2.913 1.3 1.3 0 0 1 .398-.088h.044c.132-.044.22-.044.353-.088h.088c.132-.044.22-.044.353-.089h.044c.133-.044.265-.044.398-.088h.044c.397-.088.838-.132 1.235-.176h.045c.132 0 .22-.044.353-.044h.088c.133 0 .22 0 .309-.045h.088c.133 0 .221-.044.31-.044h2.912c.089 0 .177.044.265.044h.089c.132 0 .22.044.353.044h.044c.132.045.22.045.309.089.044 0 .088 0 .088.044.088 0 .177.044.22.044.045 0 .09 0 .133.044.044 0 .088 0 .133.044h.088c.044 0 .088.044.132.044.089.044.133.044.221.089.044 0 .088.044.132.044.089.044.133.044.221.088.044 0 .088.044.088.044.089.044.133.088.221.133 0 0 .044 0 .044.044l.265.132c.044 0 .044.044.088.044.089.044.133.089.221.133.044.044.088.044.088.088.044.044.133.088.177.132.044 0 .088.044.088.089.044.044.088.088.177.132.044.044.088.044.088.088l.132.133.089.088.176.177.089.088c.088.088.132.176.22.265.088.088.133.176.221.264v.045c.353.441.618.97.839 1.5.971 2.163.971 5.429.353 9.136" opacity=".29"/><path fill="#2b2b37" d="M74.009 110.532c-2.384-1.456-5.694-3.354-5.959-2.471-.265.882.618.927.883 1.28s-1.457.176-2.251.22c-.795.044-.442.839.353 1.015.794.221 6.974-.044 6.974-.044" opacity=".29"/><path fill="#d8d8d8" d="m143.839 62.026-.264.53a1.8 1.8 0 0 1-.221.397c0 .044-.044.088-.044.133-6.533 13.55-14.434 29.394-22.776 45.548-.309.574-.574 1.103-.883 1.677l-3.045 5.826c-.309.618-.662 1.236-.971 1.854a1962 1962 0 0 1-6.974 13.24l-.133.265c-.265.486-.53 1.015-.794 1.501-1.369 2.515-2.693 5.031-4.061 7.503-.265.529-.574 1.015-.839 1.545a471 471 0 0 1-3.752 6.796 532 532 0 0 1-4.105 7.283c-.573-.177-1.103-.309-1.677-.486-1.236-.353-2.383-.75-3.531-1.147.75-1.324 1.5-2.648 2.207-3.928.927-1.589 1.81-3.222 2.692-4.811 1.104-1.942 2.163-3.928 3.223-5.87.132-.221.22-.397.353-.618.573-1.015 1.103-2.03 1.677-3.045.397-.751.795-1.457 1.192-2.207.441-.839.883-1.633 1.324-2.472.176-.309.353-.618.485-.927 3.267-6.134 6.489-12.225 9.667-18.404.309-.618.662-1.236.971-1.854l3.046-5.958c.264-.574.573-1.148.882-1.722 6.047-12.049 12.05-24.45 18.318-37.691.706-1.545 1.457-3.09 2.207-4.679.177-.397.397-.838.574-1.28l.706.22 4.679 2.472c0 .089-.088.221-.133.31"/><path fill="#21212b" d="m144.898 63.616-.044.088-2.56 5.384a768 768 0 0 1-4.238 8.607c-.221.397-.397.838-.618 1.28a152 152 0 0 1-1.898 3.795c-.22.442-.441.839-.618 1.28-2.56 5.12-5.208 10.416-7.945 15.713-.441.882-.927 1.765-1.368 2.648s-.927 1.765-1.368 2.692c-.574 1.148-1.192 2.295-1.766 3.443-.309.618-.662 1.28-.971 1.898-.177.308-.353.662-.53 1.015-.132.22-.22.441-.353.662l-3.045 5.826a37 37 0 0 1-.971 1.853c-.486.971-1.016 1.942-1.545 2.913-.53.971-1.015 1.942-1.545 2.869-1.015 1.942-2.031 3.84-3.046 5.738 0 .044-.044.088-.044.132-.309.618-.662 1.192-.971 1.81-1.368 2.515-2.737 5.031-4.061 7.503-.353.618-.706 1.236-1.015 1.854-1.324 2.383-2.604 4.722-3.884 7.061-.221.397-.442.795-.662 1.236a152 152 0 0 0-2.03 3.663c-.398.706-.795 1.369-1.148 2.075-.53-.133-1.06-.309-1.59-.442-.573-.176-1.103-.309-1.677-.485-1.236-.353-2.383-.75-3.53-1.148h-.045l-.574-.22c-.264-.089-.53-.177-.794-.309.97-1.677 1.898-3.355 2.825-5.032.176-.353.397-.706.573-1.015.53-.927 1.016-1.854 1.545-2.78.089-.133.177-.309.265-.442 1.016-1.854 2.03-3.663 3.046-5.517.088-.132.132-.22.22-.353.53-.927 1.016-1.898 1.545-2.825.53-1.015 1.104-1.986 1.634-3.001.264-.485.485-.927.75-1.412l.662-1.192c.883-1.633 1.766-3.31 2.648-4.987.574-1.059 1.148-2.163 1.722-3.222.574-1.103 1.192-2.251 1.765-3.399.265-.485.53-1.015.795-1.5 1.147-2.251 2.339-4.502 3.487-6.753.309-.618.662-1.236.971-1.898 1.015-1.942 1.986-3.928 3.001-5.914 0-.044.044-.044.044-.088.089-.221.221-.397.309-.618.177-.353.354-.75.574-1.104 1.06-2.074 2.075-4.148 3.134-6.267.309-.618.574-1.191.883-1.81.309-.617.574-1.191.883-1.809.529-1.06 1.059-2.163 1.589-3.266.044-.132.132-.265.176-.397.883-1.854 1.81-3.708 2.737-5.561.618-1.28 1.28-2.604 1.898-3.928.53-1.104 1.059-2.251 1.633-3.355 1.589-3.354 3.222-6.752 4.855-10.24.265-.617.574-1.19 1.324-2.647l1.016-2.075V59.6l.044.044c.176.133.574.353 1.147.662 0 0 .045 0 .045.044.132.089.309.177.485.265.133.089.309.177.442.22.176.09.308.177.485.266l.265.132c.176.088.397.177.574.31.309.131.573.308.882.44.089.045.177.089.309.133.089.044.133.088.221.132l.265.133c.044 0 .088.044.132.044.133.044.265.132.398.176.132.044.264.133.353.177s.22.088.309.132c.088.044.132.089.22.089.089.044.133.088.221.088l.265.132c.088.044.176.088.221.088.044.045.132.045.176.089.044 0 .088.044.133.044a.6.6 0 0 0 .264.088c.045 0 .089.044.133.044-.088.044-.044.044-.044.044"/><path fill="#21212b" d="M146.046 155.859a6 6 0 0 1-.839.221c-.221.044-.397.132-.618.177h-.044c-.971.264-1.986.529-3.001.75-.795.176-1.589.353-2.428.529-.53.133-1.103.221-1.677.354-.883-1.501-1.722-3.046-2.604-4.591-.574-1.059-1.192-2.118-1.766-3.177l-1.457-2.648c-1.28-2.34-2.604-4.679-3.884-7.062-1.633-2.957-3.222-5.914-4.855-8.916l-.133-.264-1.986-3.708c-.353-.662-.706-1.28-1.015-1.942-1.015-1.898-2.03-3.796-3.002-5.693-.308-.618-.662-1.236-.971-1.81l-.838-1.589a191 191 0 0 1-2.207-4.237c-.133-.221-.221-.441-.353-.662-.177-.353-.353-.662-.53-1.015-.309-.618-.662-1.28-.971-1.898a108 108 0 0 0-2.03-3.884c-1.325-2.604-2.649-5.208-3.973-7.768-.397-.794-.839-1.633-1.236-2.427-3.134-6.223-6.223-12.358-9.093-18.228-.308-.618-.573-1.192-.882-1.81-.883-1.81-1.766-3.575-2.605-5.34l-2.56-5.385-.044-.088c.044.044.662-.22 1.545-.662 1.368-.662 3.443-1.677 4.855-2.428.177-.088.31-.176.486-.264 0 0 .044 0 .044-.044.574-.31.971-.53 1.148-.663.044 0 .044-.044.044-.044v.044l1.015 2.075c.75 1.456 1.015 2.03 1.324 2.648 1.633 3.487 3.267 6.885 4.856 10.24a78 78 0 0 0 1.633 3.354c.618 1.324 1.28 2.604 1.898 3.928.927 1.898 1.809 3.751 2.736 5.561.044.132.133.265.177.397.53 1.104 1.059 2.207 1.589 3.266.309.618.618 1.192.883 1.81.309.618.573 1.192.882 1.81 1.06 2.118 2.075 4.192 3.134 6.267.177.353.353.75.574 1.103.088.221.221.397.309.618 0 0 0 .044.044.088 1.015 1.986 2.031 3.972 3.002 5.959.309.617.662 1.235.971 1.897.75 1.501 1.545 3.002 2.295 4.502.353.706.706 1.413 1.103 2.119.309.574.574 1.103.883 1.677a1317 1317 0 0 0 5.915 11.21c.265.53.574 1.06.839 1.589.044.089.132.221.176.309 1.104 2.075 2.251 4.149 3.355 6.179 3.222 5.782 6.488 11.652 9.887 17.566"/><path fill="#52526a" d="M148.43 155.153c-20.437 6.753-44.228 5.914-63.693-2.56 1.015-6.311 2.428-12.534 5.429-18.139.441-.839.971-1.678 1.5-2.516 6.224-.618 12.801-.309 19.113-.442v-.088c3.001.044 8.254.044 11.255 0v.088c5.562.045 12.006.045 17.391.265 1.677.133 1.633-.088 2.119.839 4.193 6.753 5.738 14.741 6.886 22.553"/><path fill="#575770" d="M93.344 155.683c-1.236-.353-2.383-.75-3.53-1.147h-.045l-.574-.221a6 6 0 0 1-.794-.309c-.618-.221-1.236-.485-1.854-.706-.177-.088-.397-.133-.574-.221-.397-.176-.794-.309-1.192-.485.442-2.825.971-5.606 1.678-8.298q.462.199.926.53c.177.132.354.22.53.353 1.28.971 2.384 2.339 3.178 3.531.044.088.133.176.177.265.176.264.353.573.485.838.133.221.22.441.353.662 0 .044 0 .044.044.088.574 1.633 1.016 3.355 1.192 5.12"/><path fill="#2b2b37" d="M148.429 155.153c-9.181 2.825-17.877 4.414-27.852 4.59-10.638-7.194-26.307-9.047-31.957-21.979a36 36 0 0 1 3.046-5.738c6.223-.618 12.8-.309 19.112-.441v-.088c3.001.044 8.254.044 11.255 0v.088c5.562.044 12.006.044 17.391.265 1.677.132 1.633-.089 2.119.838 4.193 6.665 5.738 14.653 6.886 22.465" opacity=".25"/><path fill="#2b2b37" d="M148.43 155.153a124 124 0 0 1-6.93 1.898c-15.537-10.99-36.944-9.975-51.378-22.553.088-.133.132-.265.22-.398.442-.617.84-1.986 1.546-2.206 6.18-.442 12.579-.309 18.803-.398v-.088c2.913.044 8.21.044 11.255 0v.088c5.562.045 12.006.045 17.391.265 1.677.133 1.633-.088 2.119.839 4.281 6.753 5.826 14.741 6.974 22.553" opacity=".25"/><path fill="#2b2b37" fill-rule="evenodd" d="M89.813 139.264s0 .044-.044.044c0 .044-.044.089-.088.177-.044.044-.044.132-.088.221-.089.132-.133.353-.221.573a24 24 0 0 0-1.015 3.046 17 17 0 0 0-.486 1.897c-.53 2.119-1.015 4.855-1.368 8.121-.177-.088-.397-.132-.574-.22.353-3.355.883-6.091 1.413-8.254.132-.618.309-1.191.441-1.677.397-1.368.794-2.383 1.06-3.089.132-.353.264-.618.352-.795.045-.088.089-.132.089-.176l.044-.044c.088-.133.265-.221.397-.133.088-.044.133.133.088.309m53.188 1.678s0 .044.045.044c0 .044.044.088.088.176.044.044.044.133.088.221.088.132.133.353.265.574.309.706.662 1.765 1.103 3.177q.266.86.53 1.987c.574 2.251 1.104 5.075 1.457 8.474.22-.089.397-.177.618-.221a60.5 60.5 0 0 0-1.501-8.651c-.177-.618-.309-1.235-.486-1.765a61 61 0 0 0-1.103-3.222 8 8 0 0 0-.353-.794c-.044-.089-.088-.177-.088-.221l-.045-.044c-.088-.177-.264-.221-.441-.133-.177.089-.265.265-.177.398" clip-rule="evenodd"/><path fill="#d8d8d8" d="m144.28 61.277-1.412 2.869-3.266.617-1.589-3.663 1.28-2.736z"/><path fill="#a4a4a4" d="m139.513 64.498-1.5-3.442 1.28-2.737 4.943 2.913-.794 1.59c-1.457-.398-3.09.396-3.929 1.676"/><path fill="#a4a4a4" d="m138.278 60.57 1.06-2.25 4.943 2.912-.706 1.413c-1.148-.53-2.648-1.545-5.297-2.075" opacity=".33"/><path fill="#a4a4a4" d="m133.467 54.745-.971 1.898h.044c.221.309 3.929 2.295 8.475 4.59s8.342 4.06 8.695 4.06h.044l.972-1.898z"/><path fill="#d8d8d8" d="M150.683 63.44c.088-.133-3.708-2.207-8.475-4.59s-8.651-4.238-8.74-4.061c-.088.132 3.708 2.206 8.475 4.59s8.695 4.193 8.74 4.06"/><path fill="#21212b" d="m144.633 60.438 13.33-26.702a2.4 2.4 0 0 0 .177-.53c.044-.176 0-.353 0-.53a2 2 0 0 0-.177-.485 1.3 1.3 0 0 0-.353-.353l-2.119-1.412c-.132-.089-.309-.133-.441-.177-.176 0-.309 0-.441.044a1.04 1.04 0 0 0-.398.265c-.132.132-.264.265-.309.441l-13.594 27.188z"/><path fill="#323147" d="m144.633 60.438 8.828-17.654 4.193-8.43.309-.618a2.4 2.4 0 0 0 .177-.53c.044-.176 0-.353 0-.53a2 2 0 0 0-.177-.485 1.3 1.3 0 0 0-.353-.353l-2.119-1.412c-.132-.089-.309-.133-.441-.177-.176 0-.309 0-.441.044a1.04 1.04 0 0 0-.398.265c-.132.132-.264.265-.309.441l-13.594 27.188zm.883-2.648-2.295.044-1.28-2.119 2.295-.044zm-.397-3.972c-1.545-2.56-1.854-1.987 1.059-2.075l1.192 2.03zm4.016-7.636-1.191-1.986 2.074-.044 1.192 1.986zm.177 3.663-2.251.044-1.059-1.765 2.206-.044zm1.545-7.591-1.148-2.074 2.207-.045 1.236 2.075zm.794-6.002h2.251l1.192 2.074-2.251.044zm4.149-4.105 1.28 2.207h-2.339l-1.28-2.163z"/><path fill="#21212b" d="m154.168 30.558-.176.177c-.177.441-.265.927-.397 1.412l2.162-.044 1.281 2.207h-2.34l-1.147-1.986c-.221 1.191-.265 2.471-.221 3.575v.264h.441l1.192 2.075h-1.368c.176.838.441 1.721.794 2.427l3.178-6.4.309-.617c.088-.177.133-.354.177-.53s0-.353 0-.53a2.2 2.2 0 0 0-.177-.485c-.088-.177-.221-.265-.353-.353l-2.119-1.413a1.3 1.3 0 0 0-.441-.176c-.177 0-.309 0-.441.044-.089.132-.221.22-.354.353m-9.534 29.881 1.103-2.207a4.4 4.4 0 0 1-.485-.442l-2.075.045-1.28-2.119 1.677-.044c-.044-.044-.044-.088-.088-.133-.486-.926-.618-1.765-.662-2.648l-2.604 5.297z" opacity=".37"/><path fill="#464557" d="m140.387 58.228 13.673-27.374c.221-.485.549-.693 1.079-.604-1.236-.221-1.589-.354-2.119.176a1 1 0 0 0-.221.353l-13.462 26.879z"/><path fill="#d8d8d8" d="m138.057 60.085.353.265 5.076 2.516.045-.089c.971.53 1.368.839 1.368.839-.044.088-1.898-.795-4.149-1.898-2.251-1.148-4.061-2.119-4.017-2.163s.618.177 1.324.53"/><path fill="#464557" d="M144.898 63.616c-.044.088-1.898-.794-4.149-1.898-2.251-1.147-4.06-2.118-4.016-2.162l-3.399 7.15c.132.132 1.854 1.059 4.017 2.162 2.162 1.104 3.928 1.898 4.105 1.898z"/><path fill="#a4a4a4" d="m89.726 62.557-.265-.53c-.044-.133-.133-.22-.177-.31l4.679-2.47.706-.221c.927 2.03 1.854 4.016 2.78 5.914.398.883.84 1.765 1.281 2.648-.839 2.516-1.986 4.987-2.913 7.503-2.03-4.149-4.017-8.165-5.87-12.005a2.7 2.7 0 0 1-.221-.53"/><path fill="#a4a4a4" d="m94.625 59.026-.662.22-4.679 2.472c.044.132.133.22.177.309l.265.53.264.53c.84 1.72 1.722 3.53 2.56 5.34.972-2.516 2.075-4.988 2.914-7.548a34 34 0 0 0-.839-1.853" opacity=".33"/><path fill="#d8d8d8" d="m89.019 61.277 1.412 2.869 3.267.617 1.589-3.663-1.28-2.736z"/><path fill="#a4a4a4" d="m93.787 64.498 1.5-3.442-1.28-2.737-4.943 2.913.795 1.59c1.456-.354 3.09.396 3.928 1.676"/><path fill="#a4a4a4" d="m99.79 54.745.971 1.898h-.044c-.221.309-3.928 2.295-8.475 4.59s-8.342 4.06-8.695 4.06h-.044l-.971-1.898z"/><path fill="#d8d8d8" d="M91.315 59.379c4.767-2.383 8.563-4.458 8.475-4.59-.088-.133-3.973 1.677-8.74 4.06-4.767 2.384-8.563 4.458-8.474 4.59.088.177 3.972-1.677 8.74-4.06"/><path fill="#21212b" d="M88.667 60.438 75.293 33.736a2.5 2.5 0 0 1-.177-.53c-.044-.176 0-.353 0-.53.044-.176.089-.309.177-.485.088-.132.22-.265.353-.353l2.119-1.412c.132-.089.309-.133.441-.177.177 0 .309 0 .441.044q.199.067.398.265c.132.132.22.265.309.441l13.594 27.188z"/><path fill="#464557" d="M93.037 58.187 79.442 31c-.088-.177-.22-.31-.309-.442a1.04 1.04 0 0 0-.397-.264c-.132-.044-.309-.089-.441-.044-.177 0-.31.088-.442.176l-2.118 1.412c-.133.089-.221.221-.353.353-.089.133-.177.31-.177.486a1.1 1.1 0 0 0 0 .53c.044.176.088.353.177.53l.308.617 4.194 8.43 8.828 17.654zm-3.972-2.515 2.295.044-1.28 2.118-2.295-.044zM85.93 53.73l1.192-2.03c2.913.088 2.56-.53 1.059 2.074zm-3.796-7.592 1.192-1.986 2.074.044-1.192 1.986zm2.913 1.898 2.207.044-1.06 1.766-2.25-.044zm-4.944-5.826 1.236-2.074 2.207.044-1.147 2.074zm.353-3.928-2.25-.044 1.191-2.074h2.251zm-.662-6.135-1.28 2.163h-2.339l1.28-2.207z"/><path fill="#21212b" d="m79.133 30.558.176.177c.177.441.265.927.398 1.412l-2.163-.044-1.28 2.207h2.34l1.147-1.986c.22 1.191.265 2.471.22 3.575v.264h-.44l-1.193 2.075h1.369c-.177.838-.442 1.721-.795 2.427l-3.178-6.4-.309-.617c-.088-.177-.132-.354-.176-.53s0-.353 0-.53c.044-.176.088-.309.176-.485.088-.177.22-.265.353-.353l2.119-1.413c.132-.088.265-.132.441-.176.177 0 .31 0 .442.044.088.132.22.22.353.353m9.534 29.881-1.104-2.207a4.4 4.4 0 0 0 .486-.442l2.074.045 1.28-2.119-1.677-.044c.044-.044.044-.088.088-.133.486-.926.618-1.765.662-2.648l2.604 5.297z" opacity=".37"/><path fill="#323147" d="M93.037 58.187 79.442 31c-.221-.486-.75-.839-1.28-.75 1.235-.221 1.589-.354 2.118.176a1 1 0 0 1 .221.353l13.462 26.879z"/><path fill="#464557" d="M88.357 63.616c.044.088 1.898-.795 4.149-1.898 2.251-1.148 4.06-2.119 4.017-2.163l3.398 7.15c-.132.133-1.854 1.06-4.016 2.163s-3.929 1.898-4.105 1.898z"/><path fill="#d8d8d8" d="m95.198 60.085-.353.264-5.076 2.472-.045-.088c-.97.53-1.412.794-1.368.838.044.089 1.898-.794 4.15-1.898 2.25-1.103 4.06-2.074 4.016-2.162-.044 0-.618.265-1.324.573"/><path fill="#575770" d="M146.843 86.151c0 .133-.044.265-.044.353-.75 1.722-1.457 3.443-2.03 5.252-1.192 3.84-1.28 7.99-1.369 12.05-.22 7.768-.529 6.664.442 13.417.353 2.648.397 12.093-1.104 13.417.044 1.545.133 3.09.265 4.679-.176.706-5.252 2.604-5.65 3.045-.75.927-4.987 4.943-20.215 5.164-.486 0-.927 0-1.413-.044-.441 0-.927 0-1.368.044-15.228-.265-19.421-4.237-20.216-5.164-.265-.309-2.516-.309-3.972-.486-.044-2.162-.177-4.325-.177-6.488v-1.412c-.662-.927-1.015-1.986-1.192-3.178-.309-1.986.133-3.839.618-5.737 1.104-4.061.177-14.168-1.015-20.921a160 160 0 0 0-.75-3.619c-.044-.176-1.06-4.016-1.501-5.87-.397-1.721-.794-3.751-.088-7.503.574-2.825 1.412-5.561 1.986-8.386.574-2.913.883-5.87.441-8.739.133-.088.486-.22 1.148-.441.353-.132.839-.265 1.457-.486.44-.132.97-.264 1.544-.44 3.267-.884 16.553-5.739 18.362-5.87l9.711.617c1.81.132 15.007 4.37 18.273 5.252 3.62 1.015 4.238 1.413 4.238 1.413s-.309 5.958 1.677 9.356c.353.618.618 1.148.795 1.633 1.191 2.604 1.633 5.606 1.147 9.092"/><path fill="#2b2b37" d="m96.083 100.248-7.592-.044c-.265-1.368-.53-2.604-.75-3.619-.044-.176-1.06-4.016-1.501-5.87-.397-1.721-.795-3.752-.088-7.503.573-2.825 1.412-5.561 1.986-8.386.574-2.913.883-5.87.441-8.739.133-.088.486-.22 1.148-.441.353-.133.838-.265 1.456-.486-.397.795-2.25 4.9-1.898 11.785.486 10.548 6.798 23.303 6.798 23.303" opacity=".25"/><path fill="#2b2b37" d="M145.827 77.166c-.177-.486-.442-1.016-.795-1.633-1.986-3.399-1.677-9.357-1.677-9.357s-.618-.398-4.237-1.413c-.044 0-.089-.044-.177-.044h-.044c-.044 0-.088 0-.132-.044-.044 0-.044 0-.089-.044-.044 0-.088 0-.088-.044-.044 0-.044 0-.088-.044-.044 0-.088 0-.088-.044-.045 0-.045 0-.089-.045-.044 0-.088-.044-.132-.044s-.044 0-.088-.044c-.045 0-.089-.044-.133-.044s-.044 0-.088-.044c-.044 0-.088-.044-.177-.044-.044 0-.044 0-.088-.044-.044 0-.132-.045-.177-.045h-.044c-.088 0-.132-.044-.22-.044h-.045c-.176-.044-.353-.088-.529-.176-.088-.044-.177-.044-.265-.088-.044 0-.088 0-.088-.045-.089 0-.133-.044-.221-.044-.044 0-.044 0-.088-.044-.044 0-.133-.044-.177-.044s-.088-.044-.132-.044c-.177-.044-.353-.133-.53-.177h-.044c-1.015-.309-2.119-.662-3.266-1.015h-.044c-.089-.044-.221-.044-.309-.088h-.089c-.088-.044-.176-.044-.309-.088h-.044c-.088-.044-.221-.044-.309-.089h-.044c-.088-.044-.176-.044-.265-.088 0 .088.044.177.044.265.398 3.266-3.796 11.21-5.296 14.167-3.267 6.312-4.856 5.076-10.152 9.004-4.944 3.663-4.811 7.856-10.77 7.37-4.414-.352-8.784-1.323-12.889-2.956-1.942-.75-3.928-1.677-5.605-2.957v1.103c0 .177.044.309.044.486v.044c0 .044 0 .132.044.176v.044c0 .045 0 .089.044.177v.044c0 .044 0 .088.044.177v.044c0 .044 0 .132.044.176v.044c0 .089.044.133.044.221v.044c0 .044.044.133.044.177v.044c0 .044 0 .088.045.132v.089c0 .044 0 .088.044.132v.044c0 .044 0 .088.044.133v.044c0 .044.044.132.044.176.441 1.854 1.457 5.694 1.5 5.87 1.546 6.047 3.09 19.685 1.81 24.54-.485 1.898-.882 3.751-.617 5.737.176 1.148.53 2.251 1.191 3.178v1.412c.044 2.163.133 4.326.177 6.488 1.412.177 3.707.177 3.972.486.795.927 4.988 4.943 20.216 5.164.486 0 .927 0 1.368-.044.442 0 .927.044 1.413.044 15.228-.221 19.421-4.237 20.215-5.164.354-.441 5.474-2.339 5.606-3.045-.132-1.545-.265-3.134-.265-4.679 1.501-1.324 1.457-10.769 1.104-13.417-.971-6.753-.706-5.649-.442-13.417.133-4.06.177-8.21 1.369-12.05.573-1.809 1.28-3.53 2.03-5.252 0-.132.044-.22.044-.353.53-3.398.089-6.443-1.059-9.047" opacity=".11"/><path fill="#2b2b37" d="M87.476 91.245a14.4 14.4 0 0 1-1.545-2.119c.088.618.22 1.148.31 1.633.44 1.854 1.456 5.694 1.5 5.87 1.015 4.017 1.589 8.165 1.898 12.402 1.456-2.824 3.001-5.693 3.134-8.783.264-3.972-3.09-6.355-5.297-9.003m27.763 52.389c8.784.618 17.744-1.633 25.248-6.312 2.119-1.147 2.825-2.736 2.56-5.075 2.737-13.02-1.986-26.835 1.721-39.458.839-2.736 2.163-5.34 2.34-8.209.397-6.311-4.635-12.137-3.752-18.36-1.015-.353-2.075-.707-3.09-1.06 2.428 26.614-14.036 24.628-17.435 43.077-.574 1.192-1.677 1.986-2.781 2.692-5.738 3.575-12.535 5.252-18.052 9.136-2.03 1.457-3.885 3.178-6.003 4.458-1.942 1.192-4.193 2.03-6.489 1.81-.53-.045-.53-.177-.53.309 1.104 3.663 1.634 7.503 1.369 11.342 8.342 1.501 16.331 5.12 24.894 5.65" opacity=".25"/><path fill="#2b2b37" d="M147.064 83.786c-.133 3.178-1.457 6.223-2.34 9.357-4.413 12.446 3.179 33.455-3.619 43.562-11.608 8.209-28.646 9.092-41.888 4.502-2.913-1.236-5.738-3.046-8.916-3.266a56 56 0 0 0-.265-6.665c-.044-.574-.441-1.765.044-2.207.574-.529 2.119-.397 2.87-.485 11.784-1.236 27.101-2.031 34.119-12.8 1.28-2.868.883-6.223 1.633-9.268 1.368-5.65 6.312-9.622 9.402-14.52 4.811-7.725 4.855-17.479 3.266-26.438.618.22 1.28.441 1.898.662-.927 5.958 4.061 11.475 3.796 17.566" opacity=".25"/><path fill="#2b2b37" d="M88.932 123.817s.442 3.972 8.917 1.898c0 0 7.9-3.399 20.083-3.531 17.876-.132 26.218.75 26.218.75s0-4.104-.309-5.561c-.309-1.545-.662-6.267-.662-6.267s-46.566-7.768-51.642 4.502c-2.781 6.753-2.605 8.209-2.605 8.209" opacity=".25"/><path fill="#2b2b37" d="M143.886 117.373c-.441-5.34-1.192-10.681-.221-15.889-2.736 3.266-4.325 7.459-4.502 11.696-.221 4.237.883 8.739-.794 12.667-3.267 6.532-14.434 12.667-20.702 16.683-3.487 1.633 1.413.795 2.737.662 7.769-.882 14.566-2.427 21.143-6.488.618-.353 1.28-.75 1.456-1.456.133-.441 0-.927-.088-1.368-.309-1.854.309-3.708.662-5.561.706-3.619.574-7.283.309-10.946m-13.685-55.258c-.53 1.06-2.074 5.076-2.736 6.047-.795 1.235-1.722 2.339-2.561 3.575-.75 1.059-1.456 2.118-2.251 3.133-.838 1.06-1.721 2.075-2.78 2.87a8 8 0 0 1-1.016.617c-.22.927-1.103 1.5-2.03 1.677a2.9 2.9 0 0 1-1.059.044c-1.148 4.723-3.576 9.048-6.268 13.109-2.516 3.84-5.253 7.503-7.813 11.342-2.56 3.884-4.767 8.033-6.18 12.579-.794 2.516-1.323 5.12-1.897 7.724a282 282 0 0 0-1.722 8.386c-.309 1.633-.618 3.222-.838 4.855 1.368.132 3.045.176 3.266.441.22.265.662.706 1.5 1.28a28 28 0 0 1 .619-5.076c2.56-12.137 11.255-19.817 19.024-32.881 9.975-16.948 18.847-38.089 14.742-39.722" opacity=".25"/><path fill="#2b2b37" d="M143.62 70.766c-.397-2.56-.265-4.59-.265-4.59s-.618-.398-4.237-1.413c-2.516-.706-10.991-3.398-15.537-4.634-2.163 3.178-5.518 1.677-7.725 2.163-3.84-.839-6.4 1.28-6.4 1.28-1.854.132-3.928-3.31-6.4-2.34 1.81 3.664 5.12 7.327 11.035 6.312 6.533-1.104 25.777.838 29.529 3.222" opacity=".25"/><path fill="#2b2b37" d="M117.094 66.22c1.147-.221 2.251-.53 3.354-.133.574.22 1.104.486 1.722.662.75.177 1.456.265 2.206.265 3.355.133 7.681-.75 9.093-3.928-3.354-1.015-7.327-2.25-9.931-2.957-2.163 3.178-5.518 1.677-7.724 2.163-3.841-.839-6.401 1.28-6.401 1.28-1.853.132-3.928-3.31-6.4-2.34 2.825 1.986 6.533 3.664 10.505 5.076 1.192.132 2.384.132 3.576-.088" opacity=".25"/><path fill="#2b2b37" d="M102.968 61.1s4.061 8.562 6.754 11.872c2.692 3.354 5.958 6.4 5.958 6.4l4.149-1.677s-4.016-2.34-7.371-5.473c-3.354-3.134-8.21-11.74-8.21-11.74z" opacity=".25"/><path fill="#d8d8d8" d="M92.374 69.31c-.088 1.059.75 2.206 1.81 2.074 1.633-.177 6.091-4.06 4.81-5.473-1.544-1.721-6.487 1.765-6.62 3.398m42.287 1.987c-.486-.31-3.62 1.721-1.987 3 .927.751 2.516 0 2.56-1.676 0-.53-.176-1.104-.573-1.324" opacity=".14"/><path fill="#2b2b37" d="M114.928 84.845c.486-.53 1.016-1.015 1.545-1.544a96 96 0 0 0 3.576-3.796c-10.638-6.709-11.609-9.49-18.009-19.861-.088-.133.53 14.167 12.888 25.201"/><path fill="#21212b" d="M115.723 76.636c-.22.662-.529 1.28-.838 1.854a15.9 15.9 0 0 1-2.781 3.62c.883.926 1.81 1.853 2.825 2.78.485-.53 1.015-1.016 1.545-1.545a96 96 0 0 0 3.575-3.796c-1.633-1.06-3.09-2.03-4.326-2.913"/><path fill="#464557" d="M107.601 73.635c.971 1.412 1.501-.265 1.103-1.28-.353-.839-.926-1.766-1.633-2.34-.485-.397-.971-.662-1.191.133-.309 1.148 1.103 2.604 1.721 3.487" opacity=".25"/><path fill="#2b2b37" d="M117.18 89.127c-3.972 5.56-17.126 30.63-21.187 40.958-.044.088-.044.132-.088.22-.088.177-.132.354-.22.53-.221.618-.442 1.192-.574 1.81a7 7 0 0 0-.22.926 22 22 0 0 0-.53 4.767h-.751a24 24 0 0 1-2.119-.971c-.397-.221-.838-.441-1.236-.662 0-.221 0-.485-.044-.706a60 60 0 0 1-.088-2.825v-3.089c.044-.442.088-.927.177-1.368 4.06-31.337 37.562-61.879 39.063-67.66 2.118 0 1.191 9.135-12.183 28.07"/><path fill="#464557" d="M123.89 71.384c.75-.927-.486-.97-1.059-.53-.486.398-.971.972-1.236 1.545-.177.397-.221.795.309.795.838 0 1.545-1.236 1.986-1.81m-5.914 4.679a324 324 0 0 0-4.723 6.002c.132.265.397.397.971.353 1.854-.22 3.178-3.178 4.061-4.59.75-1.192.397-1.721-.309-1.765" opacity=".25"/><path fill="#75a152" d="M100.583 57.79c.265.839.75 1.589 1.236 2.295.53.75 1.015 1.545 1.765 2.119.707.573 1.589.882 2.472 1.147 2.075.662 4.193 1.015 6.356 1.192 1.942.132 3.885.044 5.827.309 1.456.22 2.957.618 4.414.485 1.015-.088 1.986-.441 2.913-.838 1.5-.662 3.001-1.5 4.105-2.825 1.059-1.324 1.633-3.178 1.059-4.81-.132-.398-.397-.84-.839-.795-.22 0-.441.22-.618.397-2.957 2.913-6.665 5.208-10.681 5.561-1.015.088-2.031.044-3.046 0-.75-.044-1.501-.044-2.251-.22-1.015-.265-1.986-.75-2.957-1.06-1.015-.309-2.119-.397-3.134-.794-1.942-.75-3.355-2.472-4.723-4.105-.53-.662-.662-1.368-1.059-2.03-1.016.927-1.192 2.692-.839 3.972"/><path fill="#568040" d="M130.685 56.819c-.132-.397-.397-.839-.838-.794-.221 0-.442.22-.618.397-2.957 2.913-6.665 5.208-10.682 5.56-1.015.09-2.03.045-3.045 0-.751-.043-1.501-.043-2.251-.22-.751-.176-1.413-.485-2.119-.75.574 1.103.794 2.383.088 3.398.397.044.795.089 1.192.089 1.942.132 3.884.044 5.826.309 1.457.22 2.958.617 4.414.485 1.015-.088 1.986-.441 2.913-.839 1.501-.662 3.002-1.5 4.105-2.824 1.015-1.28 1.545-3.178 1.015-4.811" opacity=".37"/><path fill="#568040" d="M130.686 56.82c-.133-.398-.398-.84-.839-.795-.221 0-.441.22-.618.397-2.957 2.913-6.665 5.208-10.682 5.56-1.015.09-2.03.045-3.045 0-.751-.043-1.501-.043-2.251-.22-1.015-.265-1.987-.75-2.958-1.059-1.015-.309-2.118-.397-3.133-.794-1.943-.75-3.355-2.472-4.679-4.105-.53-.662-.662-1.368-1.06-2.03-.132.132-.22.264-.353.441.177 1.103.927 2.119 1.369 3.09.573 1.235.927 2.604 1.809 3.619.839.926 1.898 1.456 3.134 1.633.618.088 1.236.088 1.81.176.574.089 1.148.265 1.766.353.662.089 1.28.133 1.942.221s1.28.22 1.898.265c.618.088 1.191.132 1.765.265.662.176 1.324.353 2.031.397 1.191.088 2.471.176 3.663-.088.662-.133 1.28-.354 1.898-.53.265-.088.574-.132.883-.22a4.3 4.3 0 0 1 .706-.221c.442-.089.839.176 1.148.573 1.059-.573 1.986-1.28 2.736-2.162 1.06-1.236 1.589-3.134 1.06-4.767"/><path fill="#3e5c2e" d="M103.894 58.805c.221.618.441 1.28.883 1.81.485.53 1.236.838 1.898 1.015 1.412.353 2.913.397 4.325.53 1.236.132 2.428.088 3.62-.177a16 16 0 0 1-1.413-.176c-1.015-.221-1.986-.75-2.957-1.06-1.015-.309-2.119-.397-3.134-.794-1.589-.618-2.825-1.854-3.972-3.222.309.618.485 1.368.75 2.074m13.329 4.105c.839.353 1.766.397 2.649.309a29 29 0 0 0 2.736-.265c.839-.177 1.589-.353 2.428-.486.839-.132 1.633-.22 2.384-.618.617-.309 1.28-.662 1.765-1.147.574-.574.75-1.368.839-2.163.132-.794-.044-1.677.088-2.471-.088-.045-.177-.045-.265-.045-.221 0-.441.221-.618.398-2.957 2.913-6.665 5.208-10.681 5.56-.927.089-1.854.045-2.825.045.485.353.971.706 1.5.883"/><path fill="#aed888" d="M101.113 57.48c.088.133.221.222.309.354.088.176.088.353.088.574 0 .176.089.397.221.485.088.088.221.088.353.088.044 0 .088 0 .133-.044.044-.044.088-.088.088-.132.265-.53-.088-1.412-.442-1.854-.132-.176-.529-.618-.75-.441-.309.176-.132.794 0 .97"/><path fill="#75a152" d="M102.747 47.153s-1.545 1.413-1.854 2.737 1.413 3.398 1.413 3.398l2.339-1.368z"/><path fill="#568040" d="M129.716 47.595s1.545 2.25.971 5.164-3.002 3.619-3.002 3.619l-.838-1.236z"/><path fill="#2b2b37" d="M143.707 136.572c-12.315 8.916-40.035 9.975-54.998.795-.044-2.383.75-8.43.75-8.43.751 1.854 3.797 2.074 5.43 2.427 16.066 3.575 31.339 2.913 47.538-1.677.044 2.34 1.015 4.546 1.28 6.885"/><path fill="#21212b" d="M142.912 136.661c-8.209 5.649-18.406 6.841-28.337 6.929 1.854-.662 6.709-2.339 3.752-4.722-.971-1.501 3.178-1.369 1.81-3.311-.618-.838-1.766-1.059-2.296-1.942 8.299-.22 16.509-1.677 24.586-3.928a73 73 0 0 0 .485 6.974" opacity=".46"/><path fill="#21212b" d="M144.104 136.22c-3.885 2.427-7.857 4.281-12.624 5.472-.088-1.809 2.339-2.868.839-4.678-.398-.574-.751-.971-.442-1.677.618-.971 1.28-2.295.397-3.31 3.576-.618 7.725-1.81 11.344-2.781.044 2.339.486 6.974.486 6.974"/><path fill="#464557" d="M100.627 135.955c-1.457-1.766-4.193-.662-6.445-2.383-1.015-.707-2.648-1.722-2.957.22.044.177.177.221.31.309.838.53 1.103.662 1.588 1.589 1.06 1.721 3.355 1.986 5.164 2.516 1.722.618 3.443-.53 2.34-2.251m15.361-2.295c-3.929.044-7.901-.221-11.962-.707.485.221.839.486 1.412 1.104 1.016 1.059 2.605 1.324 4.061 1.412 1.148.088 2.295.088 3.443.044 1.059-.044 2.339-.22 2.869-1.236.088-.22.177-.397.177-.617" opacity=".25"/><path fill="#d58500" d="M130.025 34.53c-.089-.53-.354-1.06-.795-1.324-.618-.397-1.103-.397-1.545-.088-1.192-7.724-6.091-13.506-11.873-13.417-5.782.088-10.594 5.958-11.609 13.726-.441-.265-.971-.265-1.545.132-.397.265-.662.839-.75 1.368s-.044 1.104.044 1.633a33 33 0 0 0 1.192 5.87c.088.353.221.707.397 1.016a1.8 1.8 0 0 0 1.633.838c.044 0 .133 0 .177-.044 1.986 5.605 6.135 9.4 10.858 9.357s8.784-3.973 10.638-9.622c.044 0 .132.044.176.044.618.044 1.28-.264 1.589-.882.177-.31.265-.663.353-1.016.486-1.942.883-3.928 1.06-5.914.044-.574.088-1.147 0-1.677"/><path fill="#b45f00" d="M123.227 26.012a57 57 0 0 1 2.516.883c-2.207-4.414-5.827-7.283-9.932-7.238-5.782.088-10.549 5.958-11.608 13.726-.442-.265-.971-.265-1.545.132-.397.265-.662.839-.751 1.368s-.044 1.104.045 1.633c.132 1.236.353 2.428.618 3.62.264-.177.573-.31.838-.442.486-.22.927-.397 1.457-.574.485-10.548 6.709-16.992 18.362-13.108m-7.9 10.814s5.473-.53 9.534.573l4.547 1.236-.927 2.869z"/><path fill="#b45f00" d="M130.024 34.53c-.089-.53-.353-1.059-.795-1.324-.618-.397-1.103-.397-1.545-.088a21.4 21.4 0 0 0-1.103-4.325c-.044-.044-.044-.133-.088-.177-.133-.397-.309-.75-.486-1.148-.044-.088-.044-.132-.088-.22l-.133-.265c-.044-.088-.088-.132-.132-.22l-.132-.266c-.045-.088-.089-.132-.133-.22l-.132-.265c-.044-.088-.089-.132-.133-.22a1 1 0 0 0-.132-.221c-.044-.089-.088-.133-.133-.221a1 1 0 0 0-.132-.22c-.044-.089-.088-.133-.132-.221-.045-.089-.089-.133-.133-.221s-.088-.132-.176-.22c-.045-.089-.089-.133-.133-.221-.044-.089-.132-.177-.176-.221s-.089-.133-.133-.177a2.5 2.5 0 0 0-.309-.353c-.044-.044-.044-.088-.088-.088l-.265-.265-.132-.132-.221-.22-.132-.133-.221-.221-.132-.132c-.089-.089-.133-.133-.221-.177-.044-.044-.088-.088-.177-.132a1 1 0 0 1-.22-.177l-.133-.132c-.088-.044-.176-.133-.221-.177-.044-.044-.088-.088-.132-.088-.088-.044-.177-.133-.265-.177-.044-.044-.088-.044-.132-.088-.089-.044-.221-.132-.309-.176-.044 0-.044-.045-.088-.045-.265-.176-.574-.308-.839-.44 0 0-.044 0-.044-.045-.133-.044-.221-.088-.353-.133-.045 0-.089-.044-.133-.044-.088-.044-.22-.088-.309-.132-.044 0-.088-.044-.132-.044l-.309-.088c-.044 0-.088-.045-.133-.045-.088-.044-.22-.044-.309-.088h-.088a9.3 9.3 0 0 0-1.898-.22c-5.782.088-10.549 5.958-11.608 13.726-.442-.265-.971-.265-1.545.132-.398.265-.662.839-.751 1.368s-.044 1.104.045 1.633c.132 1.236.353 2.428.617 3.62.265-.177.574-.31.839-.442.706-.309 1.413-.618 2.163-.838.485-.133.971-.265 1.501-.398v-.132c-.751-23.039 32.398-9.93 13.594 6.532-1.28 1.148-2.913 1.81-4.413 2.428-1.854.794-3.84 1.456-5.827 1.544-.971.044-1.898-.132-2.869-.309 2.207 3.178 5.297 5.12 8.651 5.076 4.723-.044 8.784-3.972 10.638-9.622.044 0 .132.044.177.044.617.045 1.28-.264 1.589-.882.176-.31.264-.662.353-1.015a45 45 0 0 0 1.059-5.915c-.044-.573 0-1.103-.088-1.677" opacity=".36"/><path fill="#b45f00" d="M130.024 34.53c-.088-.53-.353-1.06-.795-1.324-.618-.397-.22-1.236-.662-.971-.265-1.633-1.192-3.001-2.339-4.193l-1.545-.309c3.31 4.06 3.884 10.593 1.015 14.697-.971 1.413-1.236.706-2.736 1.324-.53.221-1.104.354-1.634.486-.22.265-.485.485-.75.706-1.324 1.104-2.913 1.81-4.414 2.428-1.854.794-3.84 1.456-5.826 1.544-.971.044-1.898-.132-2.869-.309 2.207 3.178 5.296 5.12 8.651 5.076 4.723-.044 8.784-3.972 10.638-9.622.044 0 .132.044.176.044.618.045 1.28-.264 1.589-.882.177-.31.265-.662.353-1.015.486-1.942.883-3.928 1.06-5.915.132-.662.176-1.235.088-1.765"/><path fill="#b45f00" d="M120.226 36.826c-.706-.486-.485-5.297-.441-5.43l-.53-.22c-.221-.088-.486 0-.618.265-1.368 3.045-1.412 4.855-1.412 7.68 0 .22 1.059.264 1.147.485s.177.353.309.53c.309.397.795.75 1.28.794.486.044 1.015-.309 1.192-.838.044-.221.044-.398.044-.618-.176-.883-.883-2.604-.971-2.648" opacity=".36"/><path fill="#e2a040" d="M112.854 27.865q0 .199.133.398c.176.353.53.617.883.75.088.044.176.088.265.044.882-.132-.221-1.324-.53-1.5-.309-.133-.751-.221-.751.308m-3.972 5.341c.088-.22.486-.22.662-.177s.397.045.442.31c.044.264-.221.397-.398.397-.176 0-.574-.089-.662-.221-.088-.133-.088-.22-.044-.309m11.432.485c0-.22.309-.441.486-.486s.397-.176.53.045c.132.22 0 .441-.177.573-.132.089-.53.221-.706.133q-.133-.133-.133-.265m-12.182 2.781a.54.54 0 0 0 .441-.22c.044-.089.089-.133.089-.221 0-.044 0-.089-.045-.133-.132-.309-.573-.353-.794-.176-.265.22 0 .75.309.75m16.288-.265a.54.54 0 0 0 .441-.22c.044-.089.089-.133.089-.221 0-.044 0-.088-.045-.133-.132-.309-.573-.353-.794-.176-.265.22-.044.706.309.75" opacity=".36"/><path fill="#b45f00" d="M115.061 33.295c-.838-2.737-5.561-2.913-8.121-2.737-.133 0-.221 0-.309.088-.044 0-.044.045-.044.089-.045.088.088.176.132.22 5.208 2.251 7.106 2.34 7.106 4.193 0 2.251-1.809.397-11.167 3.928l1.413 4.767c1.5-.618 3.001-1.236 4.502-1.898 5.517-2.516 8.121-3.354 6.488-8.65m8.255-1.325c-.044.044-.088.044-.132.089-.75.53-1.457 1.103-2.383.927-1.06-.177-2.296-1.457-1.943-1.81.089-.088.795-.044.927-.088.53-.133 1.104-.221 1.633-.31.53-.088 1.06-.176 1.589-.132.883 0 1.81.044 2.649.177a.4.4 0 0 1 .309.132s.044.044.044.089c.044.088-.088.176-.177.22-.529.177-1.103.088-1.633.265-.309.044-.618.265-.883.441" opacity=".36"/><path fill="#b45f00" d="M112.766 34.927c-.53-1.677-3.531-1.456-2.34-1.942.133 0 2.031-.088 2.34 1.942" opacity=".36"/><path fill="#323147" d="M113.958 29.72c-.398-.133-3.399-.574-6.577 1.236-.044 0-.044 0-.088.044 0 0-.045 0-.045.044h-.044c-.088.044 0 .176.044.132.045-.044.089-.044.133-.088 3.09-1.192 4.59.794 6.444.132.662-.264.927-1.191.133-1.5m5.517 2.913c1.942.353 3.045-1.854 6.312-1.192.044 0 .088.044.132.044.088.044.088-.132.044-.132h-.044s0-.044-.044-.044h-.088c-3.443-1.236-6.312-.353-6.71-.133-.662.442-.22 1.324.398 1.457"/><path fill="#21212b" d="M107.6 50.552c-.088-.089-1.854-.53-1.854-.398 0 .133 1.368 3.973 1.457 4.105.088.177 2.692 2.207 2.692 2.207s1.633-1.457 1.633-1.589-.22-1.324-.22-1.324z"/><path fill="#21212b" d="M124.196 55.495c.044 2.604-3.531 4.767-7.901 4.81-4.369.045-7.945-1.986-7.989-4.634 0-2.604 3.531-4.766 7.901-4.81 4.37-.045 7.945 2.03 7.989 4.634"/><path fill="#464558" d="M128.302 48.08c.838-2.163 1.412-8.916 1.412-8.916-13.904-3.53-13.683-3.53-27.499.353 0 0 .221 1.942.53 4.105.265.53.618 1.06.839 1.545.485.927.971 1.854 1.412 2.825.397.838.839 1.633 1.28 2.427.044.044.088.133.133.177 1.368 1.677 3.354 2.736 5.164 3.663.618.309 1.28.574 1.898.706 1.986.044 4.016 0 6.003-.088 2.03-.353 4.105-.883 5.958-1.898.751-.397 1.413.75.839 1.28.971-.177 1.766-.353 2.384-.574l-.044-2.34c-.486-.882-.883-1.764-.309-3.265"/><path fill="#323147" d="M128.302 48.08c.839-2.163 1.413-8.916 1.413-8.916-6.533-1.633-9.932-2.516-13.11-2.604-.132.486-.264 1.015-.441 1.5-.441 1.192-1.103 2.384-2.03 3.223-1.104.97-2.649 1.544-4.105 1.544-2.163-.044-3.09-2.162-3.134-4.59a386 386 0 0 0-4.635 1.28s.221 1.942.53 4.105c.265.53.618 1.059.839 1.544.485.927.971 1.854 1.412 2.825.397.839.839 1.633 1.28 2.428.044.044.088.132.132.176 1.369 1.677 3.355 2.737 5.165 3.663.618.31 1.28.574 1.898.707 1.986.044 4.016 0 6.003-.089 2.03-.353 4.105-.882 5.958-1.897.751-.398 1.413.75.839 1.28.971-.177 1.766-.354 2.384-.574l-.045-2.34c-.529-.882-.926-1.765-.353-3.265"/><path fill="#2b2b37" d="M116.693 54.965c1.633-2.03.794-4.59.353-6.885-.177-1.898 1.545-3.399 1.28-5.34.044-1.016-.927-2.384-2.03-1.81-.707.75-.309 2.03-.839 2.868-.618 1.28-1.677 2.296-1.986 3.708-.751 2.869 1.853 4.81 2.427 7.415.265.044.53.044.795.044"/><path fill="#2b2b37" d="M128.302 48.08c.839-2.163 1.413-8.916 1.413-8.916-2.56-.794-8.519-2.25-11.521-2.515 0 1.324-.397 3.266.927 4.237 1.987.706 2.516 3.354.971 4.413-2.736 1.148 2.075 2.295.927 3.973.971 2.339-4.546 5.649-12.403 3.221 4.282 3.002 6.047 2.56 10.947 2.384 2.03-.353 4.105-.883 5.958-1.898.751-.397 1.413.75.839 1.28.971-.177 1.766-.353 2.384-.574l-.045-2.34c-.573-.882-.971-1.764-.397-3.265"/><path fill="#21212b" d="M128.302 48.08c.838-2.163 1.412-8.915 1.412-8.915 0-.22-2.781-.795-3.001-.839l-1.192-.265c-.132-.044-.397-.132-.53-.132-.22.044-.22.22-.309.353-.441.795-.794 1.324-.75 2.295v.088c.044.883.353 1.722.574 2.56.132.53.221 1.06.176 1.59-.176 1.72-1.809 2.868-2.471 4.457-.221.485-.309 1.015-.574 1.456-.53.839-1.501 1.28-2.163 2.03-.309.354-.574.84-.971 1.104-.441.309-1.059.397-1.589.353-.441 0-.927-.177-1.368-.088-.177.044-2.781.662-6.047-1.148 1.942 3.84 7.371 2.78 9.313 2.472 2.339-.397 4.634-1.457 6.753-2.604.795-.441 1.501.927.706 1.368 0 0-.044 0-.044.044a22 22 0 0 0 2.56-.706l-.044-2.34c-.618-.75-1.015-1.632-.441-3.133"/><path fill="#2b2b37" d="M103.629 45.167c.485.927.971 1.853 1.412 2.824.397.839.839 1.633 1.28 2.428.044.044.088.132.132.176 1.369 1.678 3.275 3.07 5.209 3.664.618.309 1.28.574 1.898.706h2.604c-.088-.044 2.163-1.236 2.075-1.28-1.854-.794-8.299 1.28-11.918-9.269-.574-1.72-1.015-3.486-1.236-5.296 0-.132-.044-.265-.044-.397-1.059.309-2.251.618-2.781.794 0 0 .221 1.942.53 4.105.265.53.618 1.06.839 1.545"/><path fill="#464558" d="M124.727 48.918c-.486 1.369-1.06 2.737-1.81 3.973-.706 1.147-1.545 2.25-2.472 3.177-.441.442-.927.795-1.324 1.324-.221.265-.397.53-.574.75v.84a71 71 0 0 0 8.652-.663c.397-.75.838-1.456 1.147-2.25.353-.84.706-1.722.927-2.605 0-.044.044-.088.044-.176-1.589-4.987 8.387-26.173-3.84-36.015-6.841-5.473-12.094-4.943-18.185-.265-13.11 10.019-2.604 31.69-4.193 36.677-.045.177-.133.353-.221.53.309.882.75 1.721 1.148 2.515.309.618.662 1.236.971 1.81 0 .044.044.088.044.088 2.913.706 7.327 2.428 9.71 2.472 1.148 0 1.457-.22 1.104-1.721h-.618v-.927l-.177-.177a4.7 4.7 0 0 0-1.412-1.06c-4.282-2.074-6.4-7.326-7.857-11.65-1.942-5.827-1.854-13.595.971-16.95 4.811-5.693 13.418-5.87 18.406-.22 3.355 3.796 4.767 10.24.044 19.111-.176.574-.353 1.015-.485 1.412"/><path fill="#323147" d="M103.187 51.567c.044.883.044 1.633-.133 2.163a2.7 2.7 0 0 1-.221.53c.309.882.751 1.72 1.148 2.515.309.618.662 1.236.971 1.81 0 .044.044.088.044.088 2.913.706 7.327 2.427 9.711 2.471.839 0 1.236-.132 1.236-.838-7.548-4.149-11.344-3.222-12.756-8.74"/><path fill="#323147" d="M127.906 56.554c.353-.75.706-1.5 1.015-2.295.132-.353.22-.75.353-1.103-1.148-4.414 5.606-20.038.353-30.63.177 1.853.044 3.663-.53 5.428-.441 1.412-1.103 2.736-1.854 3.972 1.589 3.84 1.457 9.092-2.074 15.757a15 15 0 0 0-.442 1.28c-.485 1.368-1.059 2.736-1.809 3.972-.706 1.148-1.545 2.25-2.472 3.178-.441.441-.927.794-1.324 1.324-.309.441-.618.883-1.06 1.191v.442c3.002-.044 6.003-.22 9.005-.662.265-.662.574-1.236.839-1.854m-3.62-30.762c-.088-1.06-.75-2.119-1.501-2.737-.662-.53-1.5-.75-2.339-.794-1.721-.089-3.354.485-5.076.617-.971.089-1.898-.132-2.869-.22-1.148-.133-2.163.176-3.001 1.015s-1.413 1.854-2.119 2.78c-.706.883-1.501 1.634-2.295 2.472-.707.75-1.369 1.589-1.854 2.516-.221.485-.442 1.015-.574 1.545-.177.617-.265 1.28-.397 1.853-.309 1.28-.751 2.516-.927 3.84-.088.618-.088 1.236-.088 1.898.529 3.266 1.191 6.267 1.589 8.65.22.354.397.75.618 1.104.573.971 1.235 1.942 1.589 3.045.309 1.016.353 2.207.044 3.222-.177.486-.353.927-.662 1.324h.353v.795c2.736.618 6.267 2.471 8.828 2.471.794 0 1.633-.132 2.118-.706.133-.132.177-.53.088-.927h-.662V58.54l-.132-.132a4.8 4.8 0 0 0-1.412-1.06c-4.282-2.074-8.122-6.84-9.579-11.166-1.942-5.826-.132-14.035 2.693-17.39 4.458-5.296 12.226-5.825 17.302-1.323.221-.574.309-1.104.265-1.678" opacity=".32"/><path fill="#323147" d="M128.257 56.598c.353-.927.751-1.81 1.06-2.78.044-.089.044-.177.088-.265-.044-.044-.044-.133-.088-.177-.839-2.427 1.236-8.871 2.03-15.977-.618 3.266-3.443 12.535-3.531 12.667-.265.662-.574 1.324-.971 1.898-.353.53-.839.838-1.324 1.147-.309.22-.618.442-.795.839-.132.22-.176.53-.22.794-.133.53-.221 1.104-.574 1.5-.309.398-.751.663-1.192.84-.618.308-1.192.573-1.854.75-.794.176-1.545.22-2.295.22-.221.221-.397.442-.662.574-.221.133-2.031 1.721-2.251 1.854 3.443 0 8.21-1.456 11.873-2.163.265-.53.486-1.103.706-1.721m-21.538-27.849c3.663-4.326 9.534-5.473 14.345-3.266-.397-.265-.795-.53-1.104-.839-.22-.22-.397-.265-.75-.309-.132-.044-.265-.044-.397-.132-.442-.221-.839-.442-1.324-.618-.221-.044-.398-.133-.618-.177h-.089c-.618-.044-1.191-.176-1.809-.176-.618-.044-1.236.132-1.854.176-.662.044-1.236.044-1.81.441-.441.354-.883.707-1.368 1.016-.971.618-1.986 1.191-2.781 2.162a5.9 5.9 0 0 0-.883 1.545c-.044.133-.529 1.28-.882 1.721-7.063 7.945-1.457 30.145 10.549 29.748.088-.706-.653-1.592-.829-1.813-.442-.486-1.113-.703-1.687-1.012-4.238-2.074-6.444-7.194-7.857-11.475-1.721-5.032-2.163-11.52 0-15.448.397-.441.927-1.28 1.148-1.544"/><path fill="#575770" d="M101.246 31.308c1.677-1.147 3.266-2.471 4.59-4.06 1.413-1.765 2.56-3.884 3.311-6.09a16.3 16.3 0 0 0 .883-4.856c0-.353 0-.662-.045-1.015-.882.53-1.809 1.103-2.692 1.81-4.9 3.751-6.533 9.136-6.665 14.697.176-.22.397-.353.618-.486m23.701-3.178a9 9 0 0 0-1.633-1.28 9.5 9.5 0 0 1 1.809 1.722c3.355 3.796 4.723 10.24.044 19.11-.176.442-.309.84-.485 1.28-.486 1.369-1.059 2.737-1.81 3.973-.265.485-.618.927-.927 1.368 2.958-2.78 5.518-6.135 6.754-10.328 1.898-6.267.044-12.181-3.752-15.844"/><path fill="#323147" d="M130.685 44.064c-.133-.927-.089-1.854 0-2.78h-.044l-.574 3.045a54 54 0 0 0-1.677 5.958c-.133.574-.221 1.103-.442 1.677-.618 1.854-1.854 3.398-3.09 4.855.221.22.574.176.839.088 1.103-.353 2.119-1.015 2.957-1.853a2.36 2.36 0 0 0 .707-1.016c.309-.882.044-1.897.22-2.824.177-.706.574-1.236.883-1.898a5.2 5.2 0 0 0 .53-2.604c.044-.927-.177-1.766-.309-2.648"/><path fill="#464558" d="M103.232 46.227a94 94 0 0 0-.883-6.003c-.132-.97-.309-1.942-.441-2.913a24 24 0 0 0-.354-1.898h-.838c.132 1.016.265 1.986.353 2.957.132 1.678.176 3.399-.088 5.076-.133.883-.353 1.81-.044 2.648.132.31.308.618.485.883a8.85 8.85 0 0 1 1.104 4.767c-.045.485-.089 1.015 0 1.5.397 1.854 3.795 5.032 4.855 4.943-1.898-2.736-3.929-9.754-4.149-11.96"/><path fill="#323147" d="M102.525 51.346v.353c-.045.486-.089 1.015 0 1.5.159 2.126 3.474 5.444 5.131 5.029-.442-.618 2.681.4 2.063-.57-2.251-1.369-4.193-1.192-7.194-6.312m7.372-17.213c0 .089-.044.221-.044.31 0 .661.309 1.147.662 1.147s.662-.53.662-1.148c0-.132 0-.22-.044-.309z"/><path fill="#323147" fill-rule="evenodd" d="M106.983 33.295a.213.213 0 0 1 .309 0c.441.397.839.573 1.236.661a4.3 4.3 0 0 0 1.059 0h.177c.441 0 .971-.044 1.545.133s1.191.485 1.942 1.06a.27.27 0 0 1 .044.308.27.27 0 0 1-.309.044c-.662-.573-1.236-.838-1.766-.97a3.9 3.9 0 0 0-1.412-.089h-.177c-.397 0-.794.044-1.147-.044-.486-.088-.927-.31-1.457-.75-.088-.133-.088-.265-.044-.354" clip-rule="evenodd"/><path fill="#323147" d="M122.961 34.22c0 .09.044.222.044.31 0 .618-.264 1.147-.618 1.147-.353 0-.617-.53-.617-1.147 0-.133 0-.22.044-.31z"/><path fill="#323147" fill-rule="evenodd" d="M125.831 33.427a.214.214 0 0 1 0 .309c-.486.441-.971.662-1.413.75-.397.088-.794.044-1.147.044h-.177c-.441 0-.883-.044-1.368.088-.486.133-1.06.398-1.722.971-.088.089-.22.044-.309-.044-.088-.088-.088-.22.044-.309.707-.574 1.325-.883 1.898-1.059.574-.133 1.06-.133 1.501-.133h.177c.397 0 .706.045 1.059 0 .397-.044.75-.22 1.192-.661.044-.045.176-.045.265.044" clip-rule="evenodd"/><path fill="#75a152" d="M110.602 59.423c1.413.22 16.685 3.133 19.466-8.386.132-.574.132.044.706.044.971 9.489-9.048 13.594-18.274 11.696-15.095-3.09-12.005-15.757-10.769-12.888.529 1.148-.177 8.077 8.871 9.533"/><path fill="#aed888" d="M101.995 53.95c-.088-.574-.177-1.147-.177-1.765-.044-.397-.088-.971-.353-1.324-.044-.044-.088-.089-.132-.089-.088-.044-.177 0-.221.089-.044.088-.088.176-.088.22-.044.486.176.927.265 1.413.088.397.044.794.088 1.191 0 .398.044.839.265 1.148a.53.53 0 0 0 .22.22c.133 0 .221-.088.221-.22.044-.133 0-.22-.044-.353.044-.133 0-.353-.044-.53m1.766 3.928v.133c.044.088.133.132.221.176.044 0 .132.044.176.044.045 0 .133 0 .133-.088.044-.044.044-.088.044-.132 0-.089 0-.221-.088-.31-.177-.22-.442-.087-.486.177"/><path fill="#568040" d="M117.708 60.703c-.22 0-.441 0-.662.088-.971.22-2.295.441-2.736 1.103-.177.265-.265.706.176.839.442.132.927-.177 1.236-.574s.353-.75 3.046-.618z"/><path fill="#568040" d="M130.774 51.037c-.574 0-.574-.618-.706-.044-2.472 10.063-14.345 9.136-18.274 8.606 1.06.353 2.119.618 3.178 1.06.883.397 1.854.882 2.516 1.677.221.22.353.53.442.794 7.283-.265 13.639-4.413 12.844-12.093" opacity=".37"/><path fill="#568040" d="M106.454 59.467c2.074 1.28 4.59 1.368 6.93 1.545 5.34.397 13.153 2.295 15.007-3.664.132-.397 2.913-.926 2.383-6.311-.573 0-.573-.618-.706-.044-2.825 11.563-18.053 8.65-19.465 8.386-3.973-.662-6.047-2.34-7.195-4.15.53 1.766 1.633 3.311 3.046 4.238"/><path fill="#3e5c2e" d="M117.355 59.997c2.472.264 4.988.309 7.283-.75a5.7 5.7 0 0 0 1.545-.972c.397-.397.662-.882 1.103-1.236.839-.662 1.81-.926 2.384-1.853.662-1.104.088-2.34-.221-3.575-.397 5.429-8.121 8.297-13.109 8.342.353 0 .662 0 1.015.044"/><path fill="#568040" d="M115.325 60.923c-.441 0-.838.044-1.28.177-.441.088-.882.265-1.147.662-.044.044-.044.088-.089.176-.044.177.089.31.221.353.133.045.309 0 .442-.044.529-.22.971-.662 1.544-.75.221-.044.486 0 .707.044.22 0 .485 0 .706-.088.132-.044.309-.22.309-.353 0-.177-.221-.088-.309-.088a8 8 0 0 0-1.104-.089"/><path fill="#3f3f50" d="M180.209 115.343c.044.662-.177 1.5-1.016 1.235a29 29 0 0 1-3.31-.618c-5.429-1.5-10.329-4.59-14.875-7.812-4.546-3.486-13.374-9.268-17.479-9.224 0 0 .309-19.773-.132-24.893 0-.088-2.472-8.562-2.472-8.65 7.503 2.913 16.773 8.21 22.29 15.536 6.444 8.915 11.697 19.022 15.625 29.218.618 1.677 1.236 3.398 1.369 5.208"/><path fill="#2b2b37" d="M179.459 116.623a25.5 25.5 0 0 1-3.575-.662c-5.65-1.589-10.726-4.855-15.448-8.21-4.679-3.53-12.227-8.562-16.906-8.827l.309-15.094s4.811 10.769 12.712 10.637c3.664-.045 8.254-2.516 12.183-5.12 3.972 6.62 7.371 13.682 10.108 20.788.573 1.721 1.235 3.442 1.324 5.252.088.485 0 1.324-.707 1.236" opacity=".48"/><path fill="#2b2b37" d="M179.459 116.623c-7.724-.706-15.758-6.444-21.143-10.46.133.088 6.356 3.663 6.445.309.088-3.443-3.311-3.884-3.84-7.856-.486-3.487 5.958-8.872 7.415-10.02 7.151 12.006 14.257 28.336 11.123 28.027" opacity=".48"/><path fill="#2b2b37" d="M146.795 99.63c-1.191-.573-3.222-.75-3.222-.75s.133-18.757-.132-24.318c-.133-2.296-2.472-9.137-2.472-9.137l-.044-.088s.132.044.353.133c.397.176 1.148.44 2.163.882.529.927 2.736 5.164 2.869 8.74.176 4.016-.706 13.063-.839 15.756-.088 1.942.795 6.576 1.324 8.783" opacity=".29"/><path fill="#d8d8d8" d="M160.126 77.342c-.397.088-.839.133-1.324.177-11.874 1.191-12.491-9.799-12.491-9.799 3.928 1.987 9.313 5.164 13.815 9.622" opacity=".08"/><path fill="#d58500" d="M85.486 107.531c0 .088-.044.177-.044.265-.044.132-.044.221-.088.353v.044c-.044.221-.133.441-.22.662 0 .044-.045.088-.045.177-.044.132-.088.22-.132.353-.133.309-.221.618-.354.927-.044.044-.044.088-.088.176s-.044.133-.088.221-.088.132-.088.22c0 0 0 .045-.045.045-.044.088-.088.22-.132.309a4 4 0 0 1-.309.617v.045c-.044.044-.044.132-.088.176-.22.442-.442.927-.707 1.368v.044c-.264.53-.573 1.06-.838 1.589-.044.089-.132.221-.177.309-.088.177-.22.353-.309.53 0 .044-.044.044-.044.088l-.397.662c-.044.044-.044.089-.088.133s-.044.088-.089.132l-.132.265c-.044.088-.132.221-.177.309-.044.044-.044.088-.088.176-.044.089-.132.177-.176.265-.265.397-.398.662-.398.662-2.03 2.913-8.783 1.898-9.534-.441-.75-2.339 1.015-6.312 2.03-7.768.089-.088.221-.221.398-.353 0 0 .044 0 .044-.044 0 0 .044 0 .044-.044a.95.95 0 0 1 .353-.221c.044-.044.089-.044.133-.088.22-.133.441-.221.662-.353l.794-.398c.31-.132.662-.309 1.016-.441.088-.044.22-.088.309-.132.132-.045.264-.133.397-.177.22-.088.485-.176.706-.265l.397-.132c.486-.177 1.015-.353 1.545-.53.044 0 .133-.044.177-.044.088-.044.176-.044.264-.088.089 0 .133-.044.221-.044.442-.133.883-.221 1.28-.353.044 0 .133-.045.177-.045.088 0 .176-.044.265-.044.132-.044.22-.044.353-.088.044 0 .132 0 .176-.044h.221c.044 0 .132 0 .177-.044.044 0 .132 0 .176-.044h.353c.839-.044 1.501.044 1.854.353.309.088.397.353.353.75"/><path fill="#b45f00" d="M85.486 107.531c0 .088-.044.177-.044.265-.044.132-.044.221-.088.353v.044c-.044.221-.133.441-.22.662 0 .044-.045.088-.045.177-.044.132-.088.22-.132.353-.133.309-.221.618-.354.927-.044.044-.044.088-.088.176s-.044.133-.088.221-.088.132-.088.22c0 0 0 .045-.045.045-.044.088-.088.22-.132.309a4 4 0 0 1-.309.617v.045c-.044.044-.044.132-.088.176-.22.442-.442.927-.707 1.368v.044c-.264.53-.573 1.06-.838 1.589-.044.089-.132.221-.177.309-.088.177-.22.353-.309.53 0 .044-.044.044-.044.088l-.397.662c-.044.044-.044.089-.088.133s-.044.088-.089.132l-.132.265c-.044.088-.132.221-.177.309-.044.044-.044.088-.088.176-.044.089-.132.177-.176.265-.265.397-.398.662-.398.662-2.03 2.913-8.783 1.898-9.534-.441-.75-2.339 1.015-6.312 2.03-7.768.089-.088.221-.221.398-.353 0 0 .044 0 .044-.044 0 0 .044 0 .044-.044a.95.95 0 0 1 .353-.221c.044-.044.089-.044.133-.088.22-.133.441-.221.662-.353l.794-.398c.31-.132.662-.309 1.016-.441.088-.044.22-.088.309-.132.132-.045.264-.133.397-.177.22-.088.485-.176.706-.265l.397-.132c.486-.177 1.015-.353 1.545-.53.044 0 .133-.044.177-.044.088-.044.176-.044.264-.088.089 0 .133-.044.221-.044.442-.133.883-.221 1.28-.353.044 0 .133-.045.177-.045.088 0 .176-.044.265-.044.132-.044.265-.044.353-.088.044 0 .132 0 .176-.044h.221c.044 0 .132 0 .177-.044.044 0 .132 0 .176-.044h.353c.839-.044 1.501.044 1.854.353.309.088.397.353.353.75" opacity=".36"/><path fill="#b45f00" d="M80.455 117.947a7 7 0 0 0-.397.662c-2.03 2.913-8.784 1.898-9.535-.441s1.016-6.312 2.03-7.768c.09-.088.222-.221.398-.353 0 0 .044 0 .044.044.044-.044.75 7.9 7.46 7.856" opacity=".72"/><path fill="#d6e6fe" d="M143.294 81.816 82.867 90.63l5.114 35.062 60.427-8.814z"/><path fill="#e5e9ea" d="m82.202 88.022 60.984-8.895c.993-.145 1.915.527 2.057 1.499l5.329 36.532a2.09 2.09 0 0 1-1.766 2.369l-56.314 8.214a6.27 6.27 0 0 1-7.107-5.297l-4.726-32.398c-.141-.971.55-1.879 1.543-2.024"/><path fill="#f0f2f2" d="m111.294 83.787-10.016 42.007-4.115 1.267-8.801 1.284a2.09 2.09 0 0 1-2.37-1.766l-5.328-36.536c-.142-.972.546-1.879 1.539-2.024l28.957-4.224z"/><path fill="#abcdf4" d="M143.296 81.816 82.869 90.63l5.114 35.062 60.427-8.814z"/><path fill="#d6e6fe" d="m141.007 83.437-55.655 8.118a1.11 1.11 0 0 0-.952 1.249l4.432 30.382a1.11 1.11 0 0 0 1.269.925l55.655-8.119a1.11 1.11 0 0 0 .952-1.248l-4.432-30.382a1.11 1.11 0 0 0-1.269-.925"/><path fill="#e7f1ff" d="M137.972 85.813 89.176 92.93c-.538.078-.912.563-.836 1.083l3.838 26.311c.075.519.573.877 1.11.798l48.796-7.117c.538-.078.912-.563.837-1.083l-3.838-26.31c-.076-.52-.573-.878-1.111-.8"/><g fill="#f7f7f7" opacity=".51"><path d="m101.969 87.843-9.15 37.147-4.835.705-2.65-18.163 4.432-17.909zm11.763-1.715-8.975 37.121-6.151.897 9.081-37.136zm29.563-4.311 1.357 9.3-6.724 27.294-12.245 1.786 9.195-37.153zm3.421 23.451 1.694 11.614-4.703.686z" opacity=".3"/></g><path fill="#b1060f" d="m99.838 93.909.433 3.008.433 3.009-.354-.662v-.001l.65 6.743.694 1.292c.002.001.186-.014.409-.036a32 32 0 0 1 2.153-.131c.149-.004.274-.013.282-.021s-.436-3.07-.983-6.806l-.996-6.792zm-4.921.708.992 6.8c.545 3.74.995 6.802 1.002 6.807.006.004.238-.053.519-.125.28-.072.667-.169.86-.213a48 48 0 0 1 1.288-.272c.031-.005.01-.157-.384-2.886l-.414-2.882.305.57.107.202-.65-6.742-.156-.293c-.374-.7-.692-1.292-.705-1.32l-.025-.047-2.74.4z"/><path fill="#b1060f" d="m99.838 93.909.433 3.008.433 3.009-.354-.662v-.001l.65 6.743.694 1.292c.002.001.186-.014.409-.036a32 32 0 0 1 2.153-.131c.149-.004.274-.013.282-.021s-.436-3.07-.983-6.806l-.996-6.792zm-4.921.708.992 6.8c.545 3.74.995 6.802 1.002 6.807.006.004.238-.053.519-.125.28-.072.667-.169.86-.213a48 48 0 0 1 1.288-.272c.031-.005.01-.157-.384-2.886l-.414-2.882.305.57.107.202-.65-6.742-.156-.293c-.374-.7-.692-1.292-.705-1.32l-.025-.047-2.74.4z"/><path fill="#e50914" d="m94.917 94.617 3.862 7.235v-.004l.304.57c1.696 3.174 2.606 4.877 2.61 4.88.002.001.186-.015.409-.036a32 32 0 0 1 2.153-.131c.147-.003.275-.013.281-.021l-3.831-7.186.001.001-.354-.661-1.97-3.68-.705-1.32-.025-.047-1.368.199z"/><path fill="#d1effa" d="m125.166 102.059-.002-.014c.01-.02.03-.034.049-.033q.132-.025.266-.039a.07.07 0 0 1 .056.018l.002.014z"/><path fill="#00a8e1" d="M125.535 101.991a6 6 0 0 0-.371.054c-.171.014-.341.032-.513.042a8 8 0 0 1-1.373-.041c-1.576-.188-3.027-.815-4.363-1.839q-.184-.145-.364-.295a.3.3 0 0 1-.073-.088.15.15 0 0 1 .001-.147c.025-.044.072-.065.118-.05q.046.014.088.035a11.3 11.3 0 0 0 3.84 1.197q.664.08 1.327.081a10.4 10.4 0 0 0 1.886-.176c.335-.06.664-.144.99-.243a10.9 10.9 0 0 0 3.276-1.632.23.23 0 0 1 .182-.055c.106.013.185.126.178.248a.4.4 0 0 1-.091.2 7 7 0 0 1-1.02 1.009 8.3 8.3 0 0 1-2.28 1.303 9 9 0 0 1-1.438.397m-5.634-6.6c.069-.065.141-.134.217-.197.197-.16.429-.26.675-.281a.61.61 0 0 1 .492.151c.138.123.206.289.246.473q.013.059.021.122l.271 1.857c.023.161.008.186-.131.206l-.377.055q-.037.006-.075.007c-.037.002-.073-.03-.086-.072q-.016-.058-.023-.117l-.242-1.66a.7.7 0 0 0-.048-.195.245.245 0 0 0-.239-.166.97.97 0 0 0-.514.196c-.023.01-.035.041-.027.07l.275 1.886q.009.051.009.105c.007.05-.022.09-.065.097q-.068.014-.141.024l-.328.048c-.114.017-.143-.012-.163-.145l-.247-1.696a1 1 0 0 0-.043-.184c-.039-.119-.141-.192-.247-.183a.97.97 0 0 0-.523.2c-.024.011-.035.046-.024.073l.278 1.911c.02.133-.001.165-.115.182l-.414.06c-.108.016-.141-.016-.159-.138l-.363-2.488a.4.4 0 0 1-.003-.087.09.09 0 0 1 .076-.08l.387-.057c.055-.008.095.026.122.084.023.048.039.094.062.145.031-.004.046-.032.066-.05.152-.146.316-.276.51-.349q.225-.087.464-.067a.6.6 0 0 1 .399.227q.012.014.022.022c-.003.004 0 .004.005.01"/><path fill="#232f3e" d="m126.564 96.242.024-.22.184-1.725.009-.068a.13.13 0 0 1 .108-.122l.47-.068c.117-.017.148.019.127.154l-.103.597-.347 1.965-.012.068c-.011.079-.068.138-.137.14a8 8 0 0 0-.408.06c-.095.018-.158-.024-.207-.12l-.339-.679-.806-1.61a.7.7 0 0 1-.06-.135c-.02-.07-.004-.109.058-.118.176-.03.352-.051.525-.077.074-.01.117.042.146.115q.081.198.165.397.299.721.596 1.443-.004.005.007.003"/><path fill="#00a8e1" d="M115.355 96.193a.1.1 0 0 0 .046-.05q.069-.11.15-.21a.75.75 0 0 1 .533-.279c.081-.008.113.017.132.106.024.12.039.247.057.369.01.05.014.096.015.147-.003.067-.021.095-.075.11q-.064.014-.127.015a1.3 1.3 0 0 0-.588.189c-.041.024-.035.06-.03.099l.251 1.721a1 1 0 0 1 .011.094c.004.047-.022.087-.062.093a.4.4 0 0 1-.068.013l-.401.059-.069.006c-.04.003-.077-.032-.087-.078q-.01-.043-.016-.086l-.355-2.438c-.024-.165-.011-.185.131-.206l.296-.043c.08-.012.122.015.157.101q.051.129.099.268m14.98 1.528c.205-.023.408-.038.615-.006q.087.014.17.045c.076.022.134.094.156.178q.04.15.054.307a4.5 4.5 0 0 1-.223 1.802 2.4 2.4 0 0 1-.284.565.26.26 0 0 1-.088.086c-.056.026-.098-.004-.111-.072a.4.4 0 0 1 .006-.111 15 15 0 0 0 .148-1.061q.031-.296.02-.596a1.3 1.3 0 0 0-.028-.216c-.021-.121-.104-.215-.212-.236a1 1 0 0 0-.306-.022 4.3 4.3 0 0 0-.843.167l-.366.109c-.039.009-.077.01-.105-.029-.028-.04-.025-.084-.009-.13a.3.3 0 0 1 .078-.114c.201-.224.44-.376.701-.49.203-.082.412-.138.627-.177"/><path fill="#232f3e" d="M128.845 96.568c.005.073-.019.11-.08.122q-.248.042-.497.073c-.062.008-.095-.023-.111-.09l-.013-.068-.362-2.481c-.013-.112.007-.148.103-.162l.444-.065c.096-.014.129.015.145.126z"/><path fill="#00a8e1" d="m116.705 97.014-.186-1.273c-.009-.087.014-.123.087-.137q.24-.04.482-.07c.071-.01.097.011.115.093q.011.045.016.092l.349 2.388q.008.06.011.12a.085.085 0 0 1-.062.093q-.026.008-.052.011l-.43.063a.2.2 0 0 1-.043.002c-.044.003-.087-.031-.097-.08l-.016-.086c-.055-.399-.115-.808-.174-1.216m-.033-2.73a.34.34 0 0 1 .149.003c.176.04.288.196.304.417.015.189-.084.357-.24.409a.5.5 0 0 1-.207.03c-.182-.014-.334-.145-.359-.405-.018-.258.106-.419.353-.455"/><path fill="#232f3e" d="M127.923 92.642a.33.33 0 0 1 .187.01.38.38 0 0 1 .259.302c.072.323-.092.515-.344.545-.034.005-.069.002-.104 0-.199-.026-.323-.183-.34-.433-.014-.2.098-.366.277-.41q.031-.012.065-.014"/><path fill="#00a8e1" d="M114.348 97.057a1.8 1.8 0 0 0-.199-.52c-.171-.29-.399-.487-.707-.523-.352-.036-.646.094-.889.375a.2.2 0 0 1-.057.063q-.01-.003-.014-.009l-.04-.104c-.038-.086-.073-.113-.157-.101-.092.013-.188.03-.281.04-.071.008-.135.028-.175.1.183 1.254.367 2.513.553 3.764.051.069.115.074.185.061.111-.02.223-.033.334-.049.194-.029.194-.029.162-.25l-.149-1.023c-.004-.025-.017-.052.001-.077a.97.97 0 0 0 .574.17.84.84 0 0 0 .688-.368c.127-.184.208-.408.233-.646a2.6 2.6 0 0 0-.062-.903m-.63.85a.6.6 0 0 1-.1.308.4.4 0 0 1-.266.167.76.76 0 0 1-.468-.05.11.11 0 0 1-.067-.092l-.095-.649c-.031-.215-.059-.43-.094-.645-.01-.05.008-.097.046-.12a.74.74 0 0 1 .518-.171.4.4 0 0 1 .331.215c.063.108.109.23.133.354.052.227.086.456.062.683"/><path fill="#232f3e" d="M136.775 94.357q0-.006 0 0m-.067-.481.002.014c-.014-.012-.024-.033-.02-.052l-.004-.028q-.001-.002.002-.004h-.003l-.005-.036h.006q-.001-.004-.004-.007a1.4 1.4 0 0 0-.063-.196c-.184-.457-.485-.731-.92-.792a1.3 1.3 0 0 0-.594.06c-.406.133-.668.435-.747.915-.078.458-.005.938.201 1.355.182.38.466.595.836.647.196.026.396.012.586-.049.635-.184.821-.794.792-1.294h-.003l-.007-.05c-.007-.021-.012-.039.004-.056l.001.007.004-.015-.06-.412c0-.004-.003-.003-.004-.007m-.642.79a.7.7 0 0 1-.056.22.4.4 0 0 1-.265.236.42.42 0 0 1-.507-.208 1.2 1.2 0 0 1-.135-.342c-.046-.21-.08-.42-.068-.635a1 1 0 0 1 .049-.249.4.4 0 0 1 .283-.268.42.42 0 0 1 .495.195c.071.118.122.253.149.392q.02.096.031.193.049.236.024.465m-5.129-2.438-.429.063c-.117.017-.135.045-.115.181l.169 1.162c.004.025.017.049.005.076-.028 0-.047-.019-.071-.03-.353-.172-.695-.162-1.008.07-.219.164-.334.419-.389.709a2.4 2.4 0 0 0 .013.844c.038.265.129.52.265.74.156.246.355.422.615.472q.532.109.912-.324c.019-.017.028-.044.055-.056a.6.6 0 0 1 .052.121c.021.056.07.089.122.081l.074-.01c.111-.017.22-.03.328-.049.086-.012.106-.048.094-.152l-.551-3.78c-.02-.11-.048-.132-.141-.118m-.18 2.721.095.653a.1.1 0 0 1-.034.107.68.68 0 0 1-.47.179.43.43 0 0 1-.369-.217 1.1 1.1 0 0 1-.139-.35 2.2 2.2 0 0 1-.062-.68 1 1 0 0 1 .037-.184.4.4 0 0 1 .289-.288.83.83 0 0 1 .49.028c.039.009.067.049.071.096.026.223.06.438.092.656"/><path fill="#00a8e1" d="M122.805 96.362c.239.016.477-.015.703-.092q.2-.061.365-.2a.66.66 0 0 0 .226-.442c.042-.468-.191-.899-.621-1.008a1.2 1.2 0 0 0-.624.021c-.479.136-.752.494-.818 1.057a2.3 2.3 0 0 0 .157 1.12c.178.46.491.704.917.744.243.027.479-.018.708-.096a1.7 1.7 0 0 0 .348-.167c.066-.043.096-.099.079-.192-.016-.085-.026-.175-.039-.265-.015-.107-.057-.134-.143-.096a7 7 0 0 1-.256.107 1.3 1.3 0 0 1-.579.092c-.272-.023-.48-.26-.512-.585q.044-.001.089.002m-.157-.537a1 1 0 0 1 .022-.256c.055-.276.236-.394.436-.408a.5.5 0 0 1 .17.019.28.28 0 0 1 .175.205q.028.092.018.188c-.018.134-.1.201-.204.242a.6.6 0 0 1-.198.047 2 2 0 0 1-.37.021c-.047 0-.047 0-.049-.058"/><path fill="#232f3e" d="M133.23 94.878c.177-.04.35-.106.496-.23a.67.67 0 0 0 .242-.522 1.2 1.2 0 0 0-.06-.394c-.112-.313-.317-.489-.598-.554a1.2 1.2 0 0 0-.47 0c-.517.09-.868.452-.941 1.078-.05.413.024.816.188 1.199.167.393.451.604.819.664.158.02.318.016.471-.014a1.8 1.8 0 0 0 .643-.244c.084-.052.1-.091.084-.203l-.038-.258c-.018-.103-.06-.134-.146-.095a4 4 0 0 1-.193.086c-.198.088-.413.13-.629.118-.217-.016-.38-.135-.471-.371a2 2 0 0 1-.066-.214q.024-.005.045.001c.21.013.419.001.624-.047m-.73-.48a1 1 0 0 1 .067-.408.44.44 0 0 1 .421-.27c.015-.003.029.003.044 0 .222.008.304.201.292.4-.01.149-.104.217-.214.26a.7.7 0 0 1-.189.045 3 3 0 0 1-.379.019c-.029 0-.043-.012-.042-.046"/><path fill="#01147b" d="M115.643 112.765c.012-.002.012-.002.024 0 .188-.003.372.001.517.043a.5.5 0 0 1 .308.207c.132.17.177.428.11.639a.8.8 0 0 1-.315.389c-.134.09-.274.142-.435.185a1.7 1.7 0 0 1-.878-.022c-.162-.051-.368-.147-.488-.291a.35.35 0 0 1-.039-.384c.11-.198.392-.278.61-.302.165-.016.472-.014.636.017.046.009.215.048.247.071.023.016.039.041.035.07-.021.109-.281.206-.355.229-.204.061-.319-.001-.568-.055a.7.7 0 0 0-.204-.022c-.109.004-.233.054-.237.169-.003.059.077.103.132.118a.9.9 0 0 0 .363.022c.365-.049.768-.167 1.039-.415.036-.033.07-.082.062-.132-.015-.104-.213-.142-.213-.142-.211-.052-.593-.036-.784-.024-.202.014-.526.034-.604.033-.081 0-.168-.003-.24-.02a.3.3 0 0 1-.18-.147.52.52 0 0 1 .025-.414c.16-.307.613-.479.958-.573.334-.092.883-.168 1.24-.047.056.02.083.039.083.095-.005.103-.076.176-.164.221a2 2 0 0 1-.385.103c-.397.082-.883.141-1.252.297a.4.4 0 0 0-.095.053c-.051.071.124.065.161.067.013.002.013.002.025.001zm-2.641-1.377s.051-.102.096-.183c.081-.146.235-.354.354-.485.035-.041.082-.087.082-.087s-.075.019-.118.033c-.101.034-.235.152-.302.225-.109.122-.221.308-.14.446zm.718.077c.195-.04.37-.125.529-.239.156-.113.378-.327.319-.531a.18.18 0 0 0-.133-.127c-.08-.019-.115-.01-.208.031a.6.6 0 0 0-.157.094 2.5 2.5 0 0 0-.54.614c-.03.048-.055.103-.078.142-.013.021-.026.043-.021.05.01.014.214-.015.289-.034m-.448.428c-.017.022-.03.075-.048.117a.2.2 0 0 1-.04.061c-.047.043-.091.053-.145.017a.35.35 0 0 1-.147-.222c-.006-.039-.008-.082-.021-.116-.02-.052-.084-.102-.124-.151a.7.7 0 0 1-.103-.229c-.044-.219.047-.437.176-.617.132-.185.317-.346.528-.471.195-.116.495-.218.738-.175.08.012.193.059.254.117.014.009.024.024.037.03s.037.002.062.002c.074.001.19.04.239.068a.4.4 0 0 1 .191.22c.074.195-.014.436-.13.591a2.2 2.2 0 0 1-.694.621c-.125.07-.322.146-.476.157-.048.003-.098-.002-.143.001l-.12-.01q-.027-.014-.034-.011m.333.408a.1.1 0 0 1 .038.007c.11.023.167.109.211.209.094.231.196.76.239.967l.087.46c.023.131.061.302.05.426-.006.044-.026.102-.067.132-.047.039-.159.059-.225.053-.16-.008-.222-.098-.268-.241-.103-.344-.18-1.038-.19-1.332-.002-.098-.011-.412.022-.547.011-.041.038-.136.103-.134m-4.608 1.272s-.225.048-.383.087c-.198.049-.568.17-.773.275-.061.032-.189.106-.188.173-.002.067.05.115.106.162.032.027.21.15.259.179.206.123.615.296.908.368.101.024.265.056.265.056s-.075-.431-.133-.856zm4.235-.445c.028.114.033.339.028.367.002.067-.027.228-.037.25-.03.099-.059.182-.092.265a2.2 2.2 0 0 1-.297.481c-.349.386-.933.664-1.448.803a4.2 4.2 0 0 1-1.483.117s.011.074.015.128a.5.5 0 0 1-.017.113c-.02.058-.06.092-.122.116a.4.4 0 0 1-.237.023c-.128-.033-.187-.134-.225-.255a8 8 0 0 1-.076-.268l-.176-.054a4.4 4.4 0 0 1-.695-.285 11 11 0 0 1-.371-.217 1.9 1.9 0 0 1-.426-.368c-.094-.116-.131-.229-.095-.372.053-.201.312-.385.492-.494.131-.082.555-.286.732-.335.086-.025.215-.067.222-.072l.007-.009a2 2 0 0 0-.03-.263 10 10 0 0 1-.021-.616c.001-.052.012-.254.045-.31.023-.039.068-.042.111-.024.227.097.354.523.402.741.028.134.066.337.066.337s.239-.042.388-.06c.144-.017.308-.017.458-.02.197.003.58.026.808.099.188.059.374.182.452.328.068.132.079.233.022.372a.53.53 0 0 1-.371.318c-.047.011-.235.014-.297-.02-.022-.012-.027-.043-.014-.065.003-.008.085-.064.129-.098a.2.2 0 0 0 .058-.055c.034-.041.069-.085.058-.131-.012-.057-.086-.086-.149-.1-.309-.07-.907-.077-1.189-.052-.113.009-.27.028-.27.028l.251 1.496s.132.005.238.005c.061-.001.313-.014.377-.023.506-.062 1.06-.186 1.489-.462.191-.122.359-.261.476-.44.154-.231.213-.527.142-.817-.075-.316-.362-.66-.584-.864-.581-.538-1.499-.921-2.286-1.105a6.9 6.9 0 0 0-2.386-.165c-.209.023-.66.1-.879.195l-.092.042a.2.2 0 0 0-.078.054s.017.006.03.008c.026.008.13-.004.184 0 .049.001.1.017.126.049q.036.041.012.085c-.043.069-.241.086-.327.087-.09-.002-.205-.009-.237-.084-.036-.085-.005-.176.031-.264.073-.176.193-.277.385-.36.27-.114.618-.22.881-.266.597-.111 1.18-.09 1.789-.005a8 8 0 0 1 1.148.25c.244.075.636.215.855.317.071.033.485.241.548.279.134.079.314.19.446.285.255.18.578.464.749.707.041.057.074.115.128.178.019.021.101.159.115.2.018.041.039.101.044.104.02.001.066.121.07.171m7.51-1.434c-.271.102-1.007.245-1.007.245l-.05.295s.363-.084.639-.097c0 0 .087-.024.11.083.018.095.022.205.022.205s.006.066-.088.096c-.098.03-.79.159-.79.159l-.059.383s-.027.09.061.054c.085-.036.794-.274.893-.268.103.008.239.122.22.247-.019.153-.682.707-1.126.74 0 0-.23.049-.471-.227-.226-.263-.054-.847-.054-.847s-.153-.238-.082-.339c0 0 .042-.05.188-.083l.129-.381s-.203.041-.344-.084c-.131-.119-.149-.183-.07-.23.086-.056.912-.33 1.495-.396 0 0 .201-.049.423.266-.004 0 .1.127-.039.179m-1.989 1.689c-.051.181-.221.391-.481.315-.257-.077-.756-.781-.756-.781s-.189-.26-.216-.252c0 0-.04-.049-.015.262.025.312.137.911.022 1.022-.106.114-.26.097-.352-.004-.084-.098-.15-.356-.18-.817-.023-.462.018-.965.136-1.135s.246-.08.296-.044c0 0 .213.139.591.572l.069.081s.346.415.378.41c0 0 .027.016.045-.003.027-.011-.007-.156-.007-.156s-.132-.489-.511-1.29c0 0-.055-.098-.042-.202.014-.105.121-.073.121-.073s.424.135.711.732c.287.596.238 1.183.191 1.363m4.223-.998c-.136.331-.555 1.042-1.257.991a6.7 6.7 0 0 0-.251 1.925s-.001.158-.141.123c-.139-.027-.386-.204-.472-.491-.105-.379-.019-1.054.232-1.851-.128-.151-.234-.376-.224-.724 0 0 .001-.639.571-1.297 0 0 .07-.077.117-.065.051.013.061.22.036.326s-.248.632-.248.632-.132.354-.046.605c.266-.555.897-1.691 1.424-1.441.177.089.288.321.327.583.033.232.013.483-.068.684m-.257-.782s-.058-.197-.23.053a5 5 0 0 0-.6 1.124c.264-.07.5-.246.569-.328.113-.126.365-.467.261-.849m3.878-.614-1.244.182a9 9 0 0 0-.334-1.193.094.094 0 0 0-.102-.06l-.289.042a.1.1 0 0 0-.059.04c-.013.022-.018.046-.006.072.138.386.247.768.334 1.169l-1.196.175a.1.1 0 0 0-.086.111l.036.251c.008.054.058.09.114.082l1.217-.178.025.17c.052.359.079.658.092 1q0 .04.034.065a.1.1 0 0 0 .073.021l.268-.039a.1.1 0 0 0 .087-.103 9 9 0 0 0-.094-1.011l-.025-.17 1.228-.179a.1.1 0 0 0 .086-.111l-.036-.251c-.017-.057-.067-.093-.123-.085"/><path fill="url(#c)" d="M124.75 109.344a8.4 8.4 0 0 0-3.643-3.256 8.83 8.83 0 0 0-5.052-.737c-2.877.419-5.341 2.186-6.597 4.726a.1.1 0 0 0 .001.087.1.1 0 0 0 .073.052l.235.041a.2.2 0 0 0 .041.002.13.13 0 0 0 .096-.07 8.2 8.2 0 0 1 2.497-2.91 8.5 8.5 0 0 1 3.72-1.504 8.35 8.35 0 0 1 4.733.677 8 8 0 0 1 3.444 3.017c.026.04.07.061.118.054l.268-.039a.1.1 0 0 0 .071-.05.09.09 0 0 0-.005-.09"/><path fill="#d58500" d="M169.439 83.741c-2.074-.53-6.4-1.589-8.519-2.074-.397-1.06-1.147-2.737-1.942-3.752-1.103-1.677-2.339-6.576-.662-8.033.662-.44.707-.53 1.104-.264.574.485 1.236 2.03 1.324 3.133.75 2.737 4.061 4.06 5.561 6.577 1.104 1.412 2.252 3.09 3.134 4.413"/><path fill="#b45f00" d="M162.377 79.372s-.133.088-.398.176a.8.8 0 0 1-.353.089 10 10 0 0 1-1.544.22s0-.044-.045-.044c0 0 0-.044-.044-.088s-.044-.132-.088-.177c-.088-.132-.177-.309-.265-.441a1 1 0 0 0-.132-.22c-.044-.045-.044-.089-.089-.133a1 1 0 0 0-.132-.22c-.044-.045-.088-.133-.132-.177-.045-.089-.089-.133-.133-.221l-.088-.088-.088-.088c-1.104-1.413-1.501-4.723-1.457-6.4.044-.839.397-1.324.795-1.633 0 0-1.281 5.296 2.515 8.474.574.309 1.06.662 1.678.97" opacity=".36"/><path fill="#e2a040" d="M165.466 78.268c-3.046.398-3.796-2.162-3.796-3.751.706.838 1.633 1.677 2.56 2.472.353.264.795.706 1.236 1.28m-4.811-6.003c-1.015-.397-1.324-1.766-1.28-2.693.53.442 1.059 1.678 1.28 2.693" opacity=".37"/><path fill="#b45f00" d="M160.39 72.972c-1.059-.441-1.324-2.869-1.28-3.222-.397 1.103.265 2.957 1.28 3.222" opacity=".36"/><path fill="#d58500" d="M175.575 92.613c-2.737 2.383-2.56 3.487-7.018 5.296-1.589.574-4.546 1.236-6.93 1.06-5.385-.354-9.755-7.724-9.225-10.77.75-4.104 4.414-8.606 9.225-8.562 7.018-.265 13.021 9.048 13.948 12.976"/><path fill="#d58500" d="M162.554 98.262s-.265.044-.751.044c-.529.044-1.28.088-2.162.176-1.589.089-3.487.177-4.944.133-2.957-.088-2.692-3.575-2.692-3.575-3.576-1.104-2.031-4.414-2.031-4.414-2.03 0-2.516-3.001-1.677-3.575 1.192-.838 2.737-1.324 4.193-1.677.353-.088.706-.132 1.015-.22a31 31 0 0 1 2.472-.31h.53l5.517 12.182z"/><path fill="#b45f00" d="M159.641 98.483c-1.721.088-3.531.176-4.943.132-2.604-.132-2.693-2.648-2.693-3.575-2.825-.662-2.56-3.707-2.03-4.414-1.854.133-2.604-2.957-1.677-3.575.485-.308 1.015-.617 1.589-.838-1.148 2.472.441 4.105 1.853 4.105 0 0-.926 3.53 1.369 4.457-.088 0 .662 3.84 6.532 3.708" opacity=".36"/><path fill="#b45f00" d="M156.817 89.567c-.045.75-.574.353-1.016.309-1.809.353-3.84.618-5.914.839.044-.089.044-.133.044-.133a1.8 1.8 0 0 1-.706-.132c1.721-.353 3.398-.706 5.296-.883a7 7 0 0 0 1.898-.485c.265-.089.398.22.398.485m.573 4.678c-.044.75-.574.353-1.015.309a59 59 0 0 1-4.414.662v-.22c-.176-.045-.353-.133-.485-.177 1.147-.22 2.339-.442 3.619-.574a7 7 0 0 0 1.898-.486c.309-.044.397.221.397.486" opacity=".36"/><path fill="#e2a040" d="M156.229 88.597c.405-.087.588-.834.409-1.668s-.652-1.44-1.058-1.353c-.405.087-.588.834-.409 1.668s.652 1.44 1.058 1.353m1.426 4.418c.334-.072.476-.73.317-1.468-.158-.739-.557-1.28-.891-1.208s-.476.728-.317 1.467.557 1.28.891 1.209m1.494 4.531c.348-.114.47-.695.273-1.297s-.639-.998-.986-.885c-.348.114-.47.694-.273 1.297.197.602.639.998.986.885" opacity=".37"/><path fill="#b45f00" d="M169.218 82.77c0 .221-.044.707-.044.883l-.618 14.212c-1.589.574-4.546 1.236-6.93 1.06 1.545-3.929-2.074-13.683-2.074-13.639 2.869-.044 5.826-1.942 8.033-3.707.574.353 1.104.75 1.633 1.192" opacity=".36"/><path fill="#d58500" d="m163.04 79.416-.309.265c-1.192 1.06-4.37 3.84-5.606 4.943-2.56.794-4.723.75-7.636.839-2.251.176-3.487.088-5.208.353-1.016.176-2.693.618-3.355.044-1.986-1.942 1.28-3.31 3.222-3.708 5.915-1.544 12.756-2.206 18.892-2.736"/><path fill="#b45f00" d="M155.932 84.889c-.088.75-.618.309-1.015.265-3.531.53-8.122.176-11.564.882 2.56-1.81 6.753-1.059 10.328-1.235a7.3 7.3 0 0 0 1.898-.353c.265-.133.397.132.353.44m-12.315-.441c.044.265-.132-.44-.618-.573-.838-.221-2.074.264-2.074.264s.927-.706 1.765-.617c.839.088.795.44.927.926" opacity=".36"/><path fill="#e2a040" d="M142.974 85.58c.31-.065.492-.447.406-.853s-.407-.68-.717-.615-.492.448-.406.853.407.68.717.615m12.693-5.458c-.088.971-.927 2.472-5.208 2.957-6.577.75-6.268-.926-6.268-.926h.044c1.721-.442 3.884-.839 5.429-1.192.794-.177 2.384-.397 4.237-.618.53-.088 1.148-.132 1.766-.22" opacity=".37"/><path fill="#575771" d="M188.021 105.545c-.397 4.634-.353 6.267-3.751 9.798-2.649 2.163-7.327 1.545-9.888-1.103-4.104-3.001-5.605-10.858-6.002-14.653-1.325-.618-2.825-1.192-4.15-1.722-.485-.176-1.059-.353-1.059-.926.353-3.708-2.119-10.725-3.399-12.667 10.859-.221 6.665-4.855 10.815-.442 3.001 3.046 5.252 5.87 8.827 8.519 4.9 3.972 9.358 6.355 8.607 13.196"/><path fill="#2b2b37" d="M179.458 92.349c-3.266.706-1.103 5.384-3.972 7.282-2.737 1.28-5.12 3.045-6.135 5.296a56 56 0 0 1-.971-5.384c-1.369-.662-3.09-1.324-4.15-1.721 4.988-.31 3.752-1.59 6.489-3.928 4.546-.354 3.399-1.987 3.708-6.091 1.544 1.765 3.001 2.869 5.031 4.546" opacity=".25"/><path fill="#2b2b37" d="M188.021 105.545c-.221 3.575-.486 6.797-3.752 9.754-3.178 2.471-7.989 1.236-10.638-1.854-3.663-3.575-4.502-9.048-5.252-13.903-8.696-3.707-3.002-.22-6.621-10.857l.044-.044s2.428 5.429 8.431 7.238 4.722 7.989 7.459 10.902c2.781 2.957 9.093 2.471 10.329-1.236" opacity=".25"/><path fill="#a4a4a4" d="M172.529 85.772c-4.458 6.047-11.212-1.589-11.212-1.589 10.064-.574 4.238-5.65 11.212 1.59" opacity=".14"/><path fill="#2b2b37" d="M170.808 100.954c.529 3.62.132 9.754 3.354 13.065-.838-.751-1.633-1.722-2.472-2.957-1.015-1.501-1.809-3.884-2.339-6.135a56 56 0 0 1-.971-5.385 70 70 0 0 0-1.81-.794v-.044s3.664-1.722 4.238 2.25" opacity=".25"/><path fill="#2b2b37" d="M187.976 106.737c-.044 0-.088 0-.088-.044-6.268-4.546-15.89-6.047-15.978-6.047-.089 0-.177-.088-.133-.22.045-.133.089-.177.221-.133.088 0 9.799 1.545 16.155 6.135.088.044.088.177.044.265-.132 0-.176.044-.221.044"/><path fill="#2b2b37" d="M181.575 113.357c-.132 0-.176-.088-.176-.221 1.015-11.387-3.002-20.92-3.046-21.008-.044-.089 0-.221.089-.221.088-.044.22 0 .22.088.044.088 4.105 9.71 3.09 21.185 0 .133-.088.177-.177.177m-99.389 3.411c.649-2.096.306-4.064-.765-4.395-1.07-.332-2.465 1.098-3.114 3.194s-.306 4.064.765 4.395c1.071.332 2.465-1.098 3.114-3.194"/><path fill="#575771" d="M82.529 115.74c-.088.883-.309 2.295-.839 4.325-.309 1.148-.97 2.472-1.765 3.752-2.119 3.354-5.385 6.664-6.886 7.415-2.03 1.015-5.12 2.471-8.298.353-.794-.53-1.5-1.324-2.119-2.295-1.898-3.002-3.001-7.459-2.736-9.534.22-1.809.662-3.222 1.324-4.457.618-1.148 1.5-2.163 2.648-3.178 1.28-1.104 3.884-1.721 6.047-2.075 1.677-.264 3.09-.353 3.31-.353h.045c-1.148.486-1.678 1.766-1.457 3.222.22 1.633 1.368 3.443 3.487 4.37a6.3 6.3 0 0 0 1.898.529c.177.044.353.044.486.044 3.266.354 4.325-1.103 4.678-2.206.221-.662.133-1.236.133-1.236s.088.397.044 1.324"/><path fill="#2b2b37" d="M82.528 115.74c-.088.883-.309 2.295-.838 4.325-.31 1.148-.971 2.472-1.766 3.752-2.119 3.354-5.385 6.664-6.886 7.415-2.03 1.015-5.12 2.471-8.298.353-.794-.53-1.5-1.324-2.118-2.295 7.724-.265 12.138-11.564 12.138-11.564.176-.132.353-.309.53-.441 2.604-2.031 5.296-2.428 7.062-1.589.044 0 .088 0 .176.044" opacity=".25"/><path fill="#2b2b37" d="M81.646 120.065c-.309 1.148-.97 2.472-1.765 3.752-2.119 3.354-5.385 6.664-6.886 7.414-2.03 1.016-5.12 2.472-8.298.353-2.075-1.412-3.664-4.899-4.414-7.944-.044-.176-.088-.397-.132-.574-.265-1.324-.398-2.515-.31-3.354.133-.883.265-1.721.486-2.428.044-.132.089-.22.089-.353.662-1.942 1.72-3.398 3.354-4.81-.044.088-1.28 2.251-1.677 5.075 0 .133-.044.221-.044.353-.089.883-.133 1.81 0 2.737 0 .176.044.309.088.485.397 2.207 1.633 4.458 4.37 6.223 8.254 5.208 9.975-8.253 9.975-8.253l1.104-.883c5.208.574 4.81-3.442 4.81-3.442s.442 1.412-.75 5.649" opacity=".25"/><path fill="#2b2b37" d="M82.176 117.991a37 37 0 0 1-.53 2.119c-.31 1.147-.971 2.471-1.766 3.751-6.4 2.339-10.328-3.354-9.269-9.974.397-2.604-.706-3.84-.706-3.84 1.015-.398 2.163-.486 3.31-.353-2.295.926-2.03 5.119 1.192 7.15a6.5 6.5 0 0 0 2.737.971c5.694.882 5.296-3.399 5.296-3.399s.265.927-.264 3.575" opacity=".25"/><path fill="#2b2b37" d="M73.26 109.649c-1.148.486-1.678 1.766-1.457 3.222-1.06-.706-2.736-1.5-4.679-1.324-3.31.353-5.782 3.575-5.87 3.708.618-1.148 1.5-2.163 2.648-3.178 1.28-1.104 3.885-1.721 6.047-2.075 1.633-.22 3.046-.308 3.31-.353m8.917 8.343c-.574 1.368-1.192.838-2.56 1.059s-.971 1.809-3.178 1.545c-2.207-.309-2.913-3.443-2.913-3.443l.927-.309c.75.485 1.677.839 2.736.971 5.694.883 5.297-3.398 5.297-3.398s.22.926-.309 3.575" opacity=".25"/><path fill="#a4a4a4" d="M63.594 120.375c-.485 1.589.398 3.31 2.03 3.795 1.634.486 1.987-.706 2.517-2.295.485-1.589.882-3.001-.707-3.486s-3.354.397-3.84 1.986" opacity=".14"/><path fill="#2b2b37" d="M71.451 117.594c0 .088-.088.177-.176.177-1.192.044-2.296.088-3.267.088a62 62 0 0 1-3.09-.088c-.176 0-.308 0-.485-.044a25 25 0 0 1-2.25-.221c-.928-.088-1.502-.221-1.767-.265.045-.132.089-.221.089-.353.265.044.838.132 1.677.265.662.088 1.545.176 2.56.22.177 0 .31 0 .486.045 1.633.088 3.663.088 6.003 0 .132 0 .22.044.22.176"/><path fill="#2b2b37" d="M71.098 111.945c-.044.044-3.046 2.56-5.87 5.473l-.354.353a41 41 0 0 0-2.692 3.001c-.839 1.059-1.501 2.03-1.898 2.869-.044-.177-.088-.397-.133-.574.398-.794 1.06-1.721 1.942-2.825a50 50 0 0 1 2.252-2.515c.088-.133.22-.221.353-.353.176-.221.397-.398.618-.618 2.736-2.737 5.517-5.076 5.517-5.12a.28.28 0 0 1 .265 0c.088.132.088.265 0 .309"/><path fill="#575771" d="M73.215 104.485s-1.457 2.869-3.531 3.09c-.177 0-.265.221-.132.353 1.059 1.192 4.502 5.076 5.12 6.841z"/><path fill="#2b2b37" d="M73.172 105.015s-1.148 2.604-3.178 2.692c-.177 0-.22.177-.132.309.838.927 3.266 3.752 4.458 5.694.088.176.397.088.353-.133z"/><path fill="#97a6bb" d="M87 114s3.911-.435 4.113-2.514c.253-2.08-.757-1.5-.757-1.5s2.221-.29 2.877-2.176-.706-2.37-.706-2.37 1.11.145.959-1.403c-.152-1.547-1.11-1.354-1.11-1.354s.807-.629.655-1.741c-.202-1.16-6.865 7.352-6.865 7.352z"/><path fill="#97a6bb" d="m87 114-.834-5.706-2.666-.794.824 8z"/><path fill="#d58500" d="M92.857 101.396c-.088.838-1.147 1.279-1.853 1.456-.354.088-.619.132-.619.132l-3.751.398-1.987 4.678-.573 1.368v.044l-1.148 2.781-.618 1.412-.971 2.295-.22.486-.486 1.191-1.987.265c-1.015-.176-1.72-.971-3.09-2.03-1.72-1.368-2.427-2.56-2.25-3.31.044-.133.044-.265.044-.353 0-.221-.044-.353-.133-.618-.044-.177-.132-.397-.22-.75-.044-.221-.089-.398-.044-.574v-.088c0-.045.044-.133.044-.177s.044-.088.044-.132v-.045c.176-.353.397-.529.088-.794-.53-.441-.574-1.854-.397-2.692.088-.442.22-.486.309-.662.088-.177.132-.486-.088-1.413-.442-1.853.132-2.957.882-3.442.398-.265 1.016-.574 1.678-.883 2.074-.97 4.855-1.942 5.561-2.118.839-.177 1.81-.662 3.002-.53s5.87 1.5 6.885 2.118c1.325.795 1.987 1.016 1.898 1.987"/><path fill="#b45f00" d="M91.268 110.444c0 .044 0 .132-.044.176-.089.353-.442.706-.839.927-1.942 1.103-5.252 1.412-7.371 1.942-.22.044-.486.132-.706.221l-.971 2.25c-.221.486-.53 1.236-.707 1.722-3.001.397-7.238 1.015-7.282-5.385 0-.838-.707-1.633-.265-2.516-.044 2.958 3.178 6.003 6.356 4.767 1.677-.618 2.692-2.162 4.37-2.648 2.56-.53 5.605.971 7.459-1.456m-.176-7.724s-3.531-1.633-5.12-2.472c-1.28-.706-2.472-.574-3.355-.132-.882.441-4.546 1.765-5.561 1.633-1.015-.133-1.015.794 0 .75s2.78-.927 3.222-1.015c.441-.177 10.814 1.236 10.814 1.236m.84-1.147c-1.192.574-2.383-.574-2.56-.795.309 1.015 1.545 1.457 2.56.795" opacity=".36"/><path fill="#e2a040" d="M90.544 100.443c.161-.356.112-.725-.11-.826s-.532.106-.694.461c-.16.355-.111.725.11.825.223.101.533-.105.694-.46" opacity=".37"/><path fill="#b45f00" d="m83.19 113.401-.043.044c-.045 0-.133.044-.177.044-.441.839-.883 1.633-1.324 2.428-.133.264-.31.529-.442.75-.264.221-.97.441-.75-.088.22-.486.442-.574-.794-.089-.883.353-1.634-.132-1.369-.618.088-.176.353-.397.795-.529 1.765-.574 3.134-1.501 3.222-1.633.265-.088.618-.221.883-.309" opacity=".72"/><path fill="#b45f00" d="M92.814 101.616c-.221.707-1.148 1.06-1.81 1.236l-11.874-.485 2.119-1.722s2.075-1.147.309-2.957c.75-.22 1.589-.53 2.56-.397.265.044.795.133 1.368.31-.309.573-.485 1.544.795 2.427 2.03 1.456 4.811 2.383 6.356 1.633.088.044.132 0 .177-.045" opacity=".36"/><path fill="#d58500" d="M76.747 102.852s4.767-2.251 6.444-2.604c1.677-.397 5.032 1.104 5.915 1.633.883.486 3.178.574 3.707.883.53.353.795 1.81-.397 2.604-1.236.794-8.74-.353-8.74-.353l-6.664 1.986c0-.044-3.796-1.942-.265-4.149"/><path fill="#b45f00" d="M92.416 105.368c-1.236.794-8.74-.353-8.74-.353l-5.296 1.589 1.06-.751s4.06-.882 3.883-3.221c-.088-1.104-.22-1.81-.44-2.251.087-.045.22-.045.308-.089 1.015-.22 2.604.221 3.928.706-.353-.044-.75 0-.927.309-.397.707-.22 1.898 1.678 2.781 3.222 1.456 5.164.971 5.385-.441.088.529-.088 1.235-.839 1.721" opacity=".36"/><path fill="#b45f00" d="m91.842 105.191-5.297-1.015c-1.457-.309-2.913-.573-4.105-.132-2.604.971-3.531 1.456-5.43 1.456-1.014 0-1.014.795 0 .751 1.016-.044 3.09-.662 3.532-.751.441-.088 11.3-.309 11.3-.309" opacity=".36"/><path fill="#b45f00" d="M92.857 103.911c-.927 1.103-2.692.53-3.001.397.794.883 2.295.75 3.001-.397" opacity=".36"/><path fill="#e2a040" d="M90.547 104.225c.244-.007.432-.329.42-.719-.011-.39-.218-.7-.462-.693-.243.008-.432.329-.42.719.011.39.218.7.462.693" opacity=".37"/><path fill="#d58500" d="M76.836 106.604s4.413-1.677 5.12-2.03 2.78-.353 4.105-.177c1.324.133 5.782.883 6.797.971.971.088.75 2.648-.839 3.09s-6.753-.398-7.46-.265c-.661.176-5.781 2.78-6.62 2.736-.839-.088-5.385-1.853-1.103-4.325"/><path fill="#b45f00" d="M92.328 108.281c-.088.044-.22.088-.31.132-1.588.441-6.664-.485-7.326-.309-.088 0-.53 1.545-.75 1.633-1.413.574-6.312 1.148-6.886.883 1.059.044 6.488-1.898 5.517-6.223.927-.177 2.34-.133 3.399-.044-.31.22-.662.618-.662 1.5-.044 1.677 7.018 2.428 7.018 2.428" opacity=".36"/><path fill="#b45f00" d="M92.638 107.266c-1.104.75-2.428-.177-2.649-.397.442.927 1.722 1.191 2.649.397" opacity=".36"/><path fill="#e2a040" d="M91.073 106.35c.106-.376.001-.734-.234-.799-.234-.066-.51.184-.616.56-.105.375 0 .733.234.799s.51-.185.616-.56" opacity=".37"/><path fill="#d58500" d="M91.268 110.443c0 .574-.22.839-.839 1.148-2.34 1.015-4.9 1.501-7.371 1.942-1.368.353-2.825.927-4.105 1.456-.971.486-1.368.309-2.163.133-1.28-.397-1.942-1.413-1.81-2.604.089-.971 1.016-1.766 2.075-1.898 2.737-.706 5.208-.971 7.99-1.236 1.456-.132 3.972-.441 5.12-.485.97-.044 1.147.662 1.103 1.544"/><path fill="#b45f00" d="M90.56 111.503c-2.338 1.103-4.987 1.544-7.547 2.03-1.368.353-2.825.927-4.105 1.456 1.192-.838 4.238-2.957 3.355-5.296 1.191-.132 2.383-.265 3.575-.353-1.412 2.736 2.957 2.913 4.723 2.163" opacity=".36"/><path fill="#b45f00" d="m84.646 108.148-.573 1.369c-2.03.264-4.15.485-4.37.573-.442.089-1.324.53-2.34.574s-1.015-.883 0-.75c1.016.132 3.09-.75 3.973-1.192.574-.309 2.03-.529 3.31-.574m6.312 2.074c-.707 1.104-2.296.795-2.605.706.795.707 2.075.398 2.605-.706" opacity=".36"/><path fill="#e2a040" d="M88.853 110.788c.241-.034.393-.375.339-.761-.055-.386-.294-.672-.536-.638-.241.034-.393.375-.339.761.055.386.294.672.536.638" opacity=".37"/><path fill="#b45f00" d="M81.647 115.916c-.133.265-.31.53-.442.751-.22.353-.397.706-.618 1.015-.441.044-1.544.22-1.986.264-1.236-.22-2.118-1.368-3.222-2.162-1.633-1.324-2.295-2.472-2.119-3.178.089-.353.089-.574-.044-.927-.132-.397-.485-1.236-.176-1.721.176-.353.485-.618.132-.883-.618-.529-.706-2.648-.088-3.398 0 .088.044 3.045 1.28 3.663-.133 3.884 2.427 7.68 7.283 6.576" opacity=".36"/><path fill="#575771" d="M81.733 116.799c-1.721 1.81-3.663 2.163-5.164 1.986a5.2 5.2 0 0 1-1.589-.485 7 7 0 0 1-1.457-1.104c-1.544-1.589-2.339-3.884-2.339-5.075 0-1.633-1.589-4.282-1.677-4.37.53.309 1.015.618 1.456.971a12.1 12.1 0 0 1 3.046 3.443c.088.176.22.353.309.529.574 1.104.927 2.163 1.192 3.046.22.838.838 1.545 1.677 1.809 2.075.574 4.546-.75 4.546-.75"/><path fill="#2b2b37" d="M81.734 116.799c-1.721 1.81-3.663 2.163-5.164 1.986a5.2 5.2 0 0 1-1.589-.485 7 7 0 0 1-1.457-1.104s1.545-1.765.795-4.501c.574 1.103.927 2.162 1.192 3.045.22.839.838 1.545 1.677 1.81 2.075.573 4.546-.751 4.546-.751" opacity=".25"/><path fill="#2b2b37" d="M81.734 116.799c-1.721 1.81-3.663 2.163-5.164 1.986 0 0 .75-.529.618-1.235 2.074.573 4.546-.751 4.546-.751" opacity=".25"/><path fill="#a4a4a4" d="M72.067 111.635c-.353-1.059-1.06-2.913-1.06-2.957a12.1 12.1 0 0 1 3.046 3.443c.044 1.324-1.545.838-1.986-.486" opacity=".14"/></g></g><defs><clipPath id="a"><path fill="#fff" d="M0 0h220v165H0z"/></clipPath><clipPath id="b"><path fill="#fff" d="M-15.812-16.844h204.188v176.688H-15.812z"/></clipPath><radialGradient id="c" cx="0" cy="0" r="1" gradientTransform="rotate(-8.305 816.351 -802.714)scale(14.55928 14.04207)" gradientUnits="userSpaceOnUse"><stop stop-color="#01147b"/><stop offset=".025" stop-color="#011098"/><stop offset=".064" stop-color="#010abd"/><stop offset=".103" stop-color="#0006da"/><stop offset=".142" stop-color="#0003ee"/><stop offset=".179" stop-color="#0001fb"/><stop offset=".216" stop-color="#00f"/><stop offset="1" stop-color="#0ff" stop-opacity="0"/></radialGradient></defs></svg>