<svg width="312" height="283" fill="none" xmlns="http://www.w3.org/2000/svg"><path opacity=".2" d="M131.2 250.5c64.25 0 116.34-8.46 116.34-18.88 0-10.43-52.09-18.88-116.34-18.88S14.87 221.2 14.87 231.62c0 10.42 52.08 18.87 116.33 18.87Z" fill="#E9224D"/><path d="M131.2 245.64c41.32 0 74.82-5.53 74.82-12.34 0-6.82-33.5-12.35-74.82-12.35-41.32 0-74.81 5.53-74.81 12.35 0 6.81 33.5 12.34 74.81 12.34Z" fill="#C41B4C" style="mix-blend-mode:multiply" opacity=".2"/><path d="M131.3 237.7c26.11 0 47.28-2.35 47.28-5.24s-21.17-5.24-47.29-5.24c-26.11 0-47.28 2.34-47.28 5.24s21.17 5.23 47.28 5.23Z" fill="#880F4B" style="mix-blend-mode:multiply" opacity=".6"/><path d="M88.25 223.19c-34.43 2.06-61.23-10.21-55.44-28.02 1.92-5.89-9.66-11.2-14.74-20.37-4.77-8.64.7-23.8.7-23.8s8.18 19.6 13.27 12.87c8.02-10.59-5.47-10.33-4.67-15.15 1.68-10.1-5.07-5.7-7.7-11.83-2.62-6.13 4.6-7.78 1.04-12.36 0 0 14.43 7.3 12.46-1.26-1.96-8.56-16.97-14.3-12.39-27.71 4.58-13.41-7.17-21.1-7.17-21.1s18.33 1.23 18.33 10.61c0 9.4 8.22 10.49 8.81 7.8.59-2.67 4.61-14.75-6.07-20.2-10.7-5.46 4.42-9.3 3.48-13.53-.94-4.24-5.5-9.95-11.94-10.44 0 0 29.54-6.52 32.68 10.44 3.14 16.96 15.53 1.7 13.39-5.63-2.15-7.34 1.27-13.23 7.04-18.02C88.5 27.85 75.4 22.6 75.4 22.6s20.06-2.34 20.95 15.22c.89 17.56 23.83 9.24 23.67 2.55-.15-6.68-.6-11.06 10.55-13.34 11.15-2.29 13.18-8.48 13.18-8.48s14.9 27.71 22.6 16.51c7.9-11.52 19.64-8.11 19.64-8.11s-10.58 12.76 0 13.57c10.57.82 5.19 14.52 3.86 21.21-1.32 6.7 14.93 18.2 19.77 1.23 4.84-16.98 17.97-17.23 17.97-17.23s-7.83 11.96 0 17.94 21.04 4.03 23.66 9.59c1.22 2.59-36.54 6.01-34.46 19.13 2.07 13.13 23.22-3.8 27.14 4.96 3.91 8.77-10.78 12.48-10.78 12.48s-.03 22.24 9.42 25.82c9.44 3.6 10.37 30.18 0 25.2s-8.57 10.19 6.18 11.38c14.74 1.2-2.73 13.92-8.03 18.56-5.3 4.65-27.6 5.96-19.77 13.89 7.83 7.93-10.63 14.05-19.43 16.96-38.71 8.43-113.27 1.54-113.27 1.54Z" fill="#6ABCEF"/><path d="M89.8 208.79c-28.87 1.72-51.33-8.5-46.48-23.33 1.61-4.91-8.1-9.32-12.35-16.97-4-7.19.59-19.81.59-19.81s6.85 16.31 11.12 10.71c6.72-8.82-4.59-8.6-3.92-12.61 1.4-8.42 6.8-9.15 1.52-14.82-5.3-5.67-12.09-16-7.04-29.46 3.84-11.17-6.01-17.57-6.01-17.57s15.36 1.02 15.36 8.84 6.9 8.73 7.39 6.5c.49-2.24-1.68-11.1-4.6-16.52s3.21-8.05 2.42-11.58c-.79-3.53-4.6-8.29-10-8.7 0 0 18.93-6.38 25.17 5.53C69.2 80.9 76.1 70.57 74.3 64.46c-1.8-6.11 3.17-8 8-11.99 7.7-6.36-3.3-10.73-3.3-10.73s16.82-1.95 17.57 12.68c.75 14.62 19.98 7.7 19.85 2.13-.13-5.57-.52-9.22 8.84-11.12 9.35-1.9 11.04-7.06 11.04-7.06s12.5 23.08 18.94 13.75c6.63-9.6 20.6-5.8 20.6-5.8s-13 9.67-4.13 10.35c8.87.68 4.35 12.1 3.24 17.67s12.51 15.15 16.57 1.02c4.06-14.14 23.95-14.52 23.95-14.52s-15.45 10.13-8.88 15.11c6.56 4.98 17.63 3.36 19.83 7.99 1.02 2.15-30.63 5-28.9 15.93 1.75 10.93 11.58 11.47 14.86 18.77 3.28 7.3 11.97-4.05 11.97-4.05s-13.13 18.32-5.21 21.3c7.92 3 8.7 25.14 0 21s-7.18 8.48 5.18 9.47c12.36 1-2.28 11.59-6.72 15.46-4.45 3.87-23.15 4.96-16.58 11.56 6.56 6.6-8.91 11.7-16.29 14.13-35.61 11.7-94.94 1.28-94.94 1.28Z" fill="#1884BA"/><path d="M98.59 207.5C87.72 227.9 37.45 214.92 38.78 193c.96-15.98-11.55-13.96-11.55-13.96s8.96-4.59 14.13-1.59c9.58 5.56-.08-23.46-4.32-30.12-9.16-14.4 8.23-18.3 8.23-18.3s70.68 45.94 53.32 78.48Zm65.7 0c8.32 15.6 64.3 8.8 51.09-7.22-4.35-9.33 17.77-11.04 17.77-11.04s-8.51-4.38-5.67-9.48c2.83-5.1 15.76 0 15.76 0s-4.6-14.64-14.75-11.68c-10.63 3.1-6.9-14.1-2.65-20.76 9.16-14.4-8.23-18.3-8.23-18.3s-70.68 45.94-53.32 78.48Z" fill="#1884BA"/><path d="M122.28 42c-12.72 13.12-12.8-3.6-31.21.76 0 0 7.5 16.65-1.99 14.14-9.13-2.4-13.1 5.68-11.4 11.66 2.37 8.4-9.76 11.23-12.33 7.38-9.05-13.62-22.7-9.2-22.7-9.2 28.07 19.22-5.84 17.44 5.33 30.52 4.27 3.76 4.7 10.18.22 9.74-4.48-.44-8.36-.43-10.28 11.72-1.45 9.15 6.45 17.64 10.78 21.58 4.96.41 73.58-5.22 73.58-5.22s-.7-71.21 0-93.08Zm111.53 102.76c-4.26.35-85.41-24.07-85.41-24.07s-7.71-76.6 1.78-79.1c9.13-2.41 12.85 1.13 11.15 7.11-2.38 8.4 6.07 4.52 8.64.66 9.05-13.61 22.81-9.6 22.81-9.6-15.5 10.61.95 22.9 5.03 21.86 2.48-2.4-6.7 17.43 1.48 15.27 7.85-2.07 11.05.98 9.6 6.13-2.06 7.23 8.39 9.66 10.6 6.35 7.78-11.72 19.53-7.93 19.53-7.93-24.16 16.55 5.03 15.02-4.59 26.27-3.67 3.24-4.04 8.77-.18 8.39 3.85-.38 7.2-.37 8.84 10.09 1.25 7.87-5.55 15.18-9.28 18.57Z" fill="#EC8C2E"/><path d="M213.32 129.12c-3.07.25-61.43-17.33-61.43-17.33s-12.34-54.14-12.9-59.8c-.58-5.68 7.37-8.51 11.9 0 4.54 8.5 8.62 18.03 16.5 8.44 7.9-9.58 16.4-6.18 16.4-6.18-11.14 7.65 3.63 10.21 3.63 15 0 3.3-3.26 9.8 2.62 8.26 5.65-1.5 6.4 3.45 5.35 7.15-1.48 5.2 6.03 6.96 7.62 4.58 5.6-8.44 14.05-5.71 14.05-5.71-17.37 11.92 3.62 10.81-3.3 18.92-2.64 2.33-2.9 6.3-.13 6.03 2.77-.27 5.18-.26 6.36 7.27.9 5.67-3.99 10.93-6.67 13.37Zm-157.75 5.67c3.07.26 61.43-17.33 61.43-17.33s8.39-69.34 1.56-71.15c-6.57-1.73-5.67 4.54-6.8 9.08-1.14 4.53-9.65 12.47-14.19 6.8-4.54-5.67-12.49-3-12.49-3 11.15 7.64 1.93 6.15-1.12 13.78-3.06 7.63 4.17 12.9-1.7 11.34-5.66-1.49-7.86 1.4-6.81 5.1 1.47 5.21-3.55-.04-5.13-2.43-5.6-8.43-14.06-5.7-14.06-5.7 17.38 11.91-3.61 10.81 3.3 18.91 2.65 2.34-1.53 14.24-4.3 13.96-2.78-.27-5.18-.26-6.37 7.27-.9 5.67 4 10.93 6.68 13.37Z" fill="#CE6300"/><path d="M131.4 72.2a20.81 20.81 0 1 0 0-41.63 20.81 20.81 0 0 0 0 41.63Z" fill="#E9224D"/><path opacity=".38" d="M152.21 51.39a20.81 20.81 0 0 1-24.09 20.56 20.82 20.82 0 0 0-3.66-40.19 20.8 20.8 0 0 1 6.94-1.18c11.5 0 20.81 9.31 20.81 20.8Z" fill="#880F4B"/><path opacity=".59" d="M150.45 51.09c.98-.34.85-3.25-.28-6.5-1.12-3.24-2.83-5.6-3.8-5.26-.98.34-.86 3.25.27 6.5 1.13 3.24 2.83 5.6 3.8 5.26Zm-34.9-5.44c1.09-3.1 1.2-5.9.26-6.22-.95-.33-2.59 1.93-3.67 5.04-1.08 3.1-1.19 5.89-.25 6.22.95.32 2.59-1.93 3.67-5.04Z" fill="#880F4B"/><path opacity=".77" d="M132.63 50.24c2.95-2.44 3.04-7.2.2-10.62-2.84-3.43-7.53-4.22-10.48-1.78-2.95 2.44-3.04 7.2-.2 10.63 2.83 3.42 7.52 4.22 10.47 1.77Z" fill="#F44D80"/><path d="M131.4 235.7a86.99 86.99 0 1 0 0-173.96 86.99 86.99 0 1 0 0 173.97Z" fill="#E9224D"/><path opacity=".38" d="M218.4 148.72A86.99 86.99 0 0 1 124 235.4c20.12-1.33 14.96-12.8 14.96-12.8L169.2 84.86c7.97-9.52-8.38-17.98-8.58-18.09a87.02 87.02 0 0 1 57.77 81.95Z" fill="#880F4B"/><path opacity=".77" d="M87.58 76.44c5.03-3.7 13.69-9.07 19.53-6.8 5.84 2.27-1.4 4.83-11.02 8.63-9.48 3.75-28.56 21.62-31 29.81-2.44 8.2-11.44 9.38-8.63 1.92 5.93-15.78 15.36-21.97 31.12-33.56Z" fill="#F44D80"/><path d="M131.4 222.98c-40.9 0-74.06-33.24-74.06-74.26 0-41 33.16-74.25 74.06-74.25 40.9 0 74.05 33.24 74.05 74.25 0 41.02-33.16 74.26-74.05 74.26Z" fill="#880F4B"/><path d="M130.54 215.75c-36.43 0-65.97-29.82-65.97-66.6 0-36.78 29.54-66.6 65.97-66.6 36.44 0 65.97 29.82 65.97 66.6 0 36.78-29.53 66.6-65.97 66.6Z" fill="#fff"/><path d="M130.57 215.84c-36.45 0-66-29.84-66-66.65 0-36.8 29.55-66.64 66-66.64s66 29.84 66 66.64c0 36.81-29.56 66.65-66 66.65Z" fill="#EB9300"/><path d="M105.21 210.74a66.67 66.67 0 0 1-40.63-61.54c0-36.81 29.54-66.65 65.99-66.65a65.75 65.75 0 0 1 54.46 28.99c-.07 48.59-34.21 89.2-79.82 99.2Z" fill="#F4AB19"/><path d="M83.8 170.6a58.7 58.7 0 0 0 50.94-87.92 66.67 66.67 0 0 0-4.17-.13c-36.45 0-66 29.84-66 66.65 0 6.62.96 13.01 2.74 19.05a58.73 58.73 0 0 0 16.5 2.35Z" fill="#F5C116"/><path opacity=".5" d="M131.6 98.56v50.98c-2.78-4.38-12.58-18.8-29.5-41.45 11.02-9.3 24.26-9.87 29.5-9.53Z" fill="#E9224D"/><path d="M135.58 92.71a4.26 4.26 0 1 0-8.36-1.6 4.26 4.26 0 0 0 8.36 1.6Zm50.93 60.06a4.47 4.47 0 1 0 0-8.94 4.47 4.47 0 0 0 0 8.94Zm-111.72 0c2.35 0 4.25-2 4.25-4.47 0-2.47-1.9-4.47-4.25-4.47s-4.26 2-4.26 4.47 1.9 4.47 4.26 4.47Zm58.24 55.85a4.25 4.25 0 1 0-3.25-7.86 4.25 4.25 0 1 0 3.25 7.86Z" fill="#880F4B"/><path d="M150.67 96.62a2.18 2.18 0 0 0-.8-2.98 2.18 2.18 0 0 0-2.96.8 2.18 2.18 0 0 0 .79 2.98c1.03.6 2.36.24 2.97-.8Zm14.54 8.52a2.18 2.18 0 1 0-2.97-3.18 2.18 2.18 0 0 0 2.97 3.18Zm11.62 11.76a2.18 2.18 0 0 0 .99-2.92 2.18 2.18 0 0 0-2.91-1.01 2.18 2.18 0 0 0-1 2.91 2.18 2.18 0 0 0 2.92 1.02Zm6.89 14.71c1.18-.16 2-1.27 1.84-2.47a2.18 2.18 0 0 0-2.45-1.86 2.18 2.18 0 0 0-1.84 2.47 2.18 2.18 0 0 0 2.45 1.86ZM149.18 202.17a2.19 2.19 0 0 0 .79-2.99 2.19 2.19 0 0 0-2.99-.8 2.19 2.19 0 0 0-.79 2.99 2.19 2.19 0 0 0 2.98.8Zm15.51-7.7a2.19 2.19 0 1 0-3.2-2.98 2.19 2.19 0 1 0 3.2 2.98Zm12.56-11.96a2.18 2.18 0 0 0-1-2.92 2.19 2.19 0 0 0-2.92 1.01 2.19 2.19 0 0 0 1 2.93 2.19 2.19 0 0 0 2.92-1.02Zm8.53-15.22a2.19 2.19 0 0 0-1.85-2.47 2.19 2.19 0 0 0-2.46 1.87 2.19 2.19 0 0 0 1.85 2.48 2.19 2.19 0 0 0 2.46-1.87ZM115.16 201.38a2.19 2.19 0 0 0-.8-3 2.19 2.19 0 0 0-2.98.81 2.19 2.19 0 0 0 .8 3 2.19 2.19 0 0 0 2.98-.82Zm-15.39-6.78a2.19 2.19 0 1 0-2.98-3.2 2.19 2.19 0 0 0 2.98 3.2Zm-12.73-11.08a2.19 2.19 0 0 0 1-2.93 2.19 2.19 0 0 0-2.92-1.01 2.19 2.19 0 0 0-1 2.93 2.19 2.19 0 0 0 2.92 1.01Zm-8.98-14.35a2.19 2.19 0 0 0 1.85-2.48 2.19 2.19 0 0 0-2.46-1.87 2.19 2.19 0 0 0-1.85 2.48 2.19 2.19 0 0 0 2.46 1.87ZM114.37 97.45a2.19 2.19 0 0 0 .79-2.99 2.19 2.19 0 0 0-2.99-.8 2.19 2.19 0 0 0-.79 2.98 2.19 2.19 0 0 0 2.99.8Zm-14.49 6.88a2.19 2.19 0 1 0-3.09.11 2.19 2.19 0 0 0 3.1-.1Zm-11.84 10.91a2.19 2.19 0 0 0-1-2.92 2.19 2.19 0 0 0-2.92 1.01 2.19 2.19 0 0 0 1 2.93 2.19 2.19 0 0 0 2.91-1.02Zm-8.13 13.9a2.19 2.19 0 0 0-1.85-2.47 2.19 2.19 0 0 0-2.46 1.87 2.19 2.19 0 0 0 1.85 2.48 2.19 2.19 0 0 0 2.46-1.87Z" opacity=".5" fill="#880F4B"/><path d="M99.26 109.96a2.91 2.91 0 1 1 4.74-3.39l27.1 37.87a2.91 2.91 0 0 1-.67 4.06 2.91 2.91 0 0 1-4.06-.67l-27.1-37.87Z" fill="#880F4B"/><path d="M131.6 156.6a7.45 7.45 0 1 0 0-14.9 7.45 7.45 0 1 0 0 14.9Z" fill="#880F4B"/><path d="M135.6 149.55a3.83 3.83 0 1 0-7.55-1.22 3.83 3.83 0 0 0 7.56 1.22Z" fill="#EFD68F"/><path d="M131.4 10.75c-17.72 0-32.08 12.4-32.08 23.14 0 6.26 4.9 11.84 12.5 15.39 4.19-2.36 3.51-8.5 3.5-8.64-2.2-1.91-3.5-4.24-3.5-6.75 0-6.55 8.77-11.86 19.58-11.86 10.8 0 19.57 5.31 19.57 11.86 0 2.5-1.3 4.84-3.5 6.76-1.31 4.38 2.87 8.91 2.87 8.91 7.97-3.53 13.14-9.24 13.14-15.67 0-10.73-14.37-23.14-32.08-23.14Z" fill="#E9224D"/><path opacity=".38" d="M131.4 10.75c-3.6 0-7.07.51-10.3 1.42 8.09 1.96 15.2 6.25 19.29 11.19 6.28 1.97 10.58 5.94 10.58 10.53 0 2.5-1.3 4.84-3.5 6.75-1.31 4.4 2.87 8.92 2.87 8.92 7.97-3.53 13.14-9.24 13.14-15.67 0-10.73-14.37-23.14-32.08-23.14Z" fill="#880F4B"/><path opacity=".77" d="M123.04 15.65c-.2 4.83-14.13 4.09-16 13.63-1.45 7.35-5.88 6.78-5.88 3.33s1.17-7.37 8.42-13.34c6.37-5.25 13.59-6.73 13.46-3.62Z" fill="#F44D80"/><path d="M54.8 33.6c-.12 3.67 7.95 17.74 9.77 9.16 1.83-8.58-9.76-9.16-9.76-9.16Zm19.02 15.48c-1.73-.08-5.04-.09-5.71-4.08-.72-4.22 1.3-4.81 2.86-8.56 0 0 1.13 4.94 4.58 6.96 3.45 2.02.61 5.79-1.73 5.68ZM33.54 92.3c-4.6.9-5.67 3.27-5.67 3.27s5.36.24 6.51 3.49c1.16 3.25 4.16 6.34 7.47 2.81 3.3-3.53.76-11.32-8.32-9.57ZM171.2 25.74c3.65-2.93 6.15-2.2 6.15-2.2s-3.28 4.23-1.55 7.21c1.73 2.98 2.15 7.28-2.68 7.52-4.83.23-9.13-6.75-1.92-12.54Zm13.2-3.87c.32 1.8-2.7 9.33-4.2 5.21s4.2-5.21 4.2-5.21Z" fill="#E9224D"/><path opacity=".43" d="M285.03 258.37c9.37 2.67 4.61-5.35 6.34-6.88 5.58-.84 7.64-3.6 4.85-6.12-2.9-2.61-13.35-5.24-24.02-4.43-3.45.15-12.13 2.12-9.86 8.36 2.27 6.24 16.5 7.32 22.69 9.07Z" fill="#2B2B2B"/><path opacity=".21" d="M283.9 257.24c1.33 1.03 7.76-1.33 2.83-7.94-2.32-2.17 4.39-.62 3.4-2.84-1.82-3.4-12.48-3.4-16.99-3.84-5.96 1.23-11 4.29-10.8 4.98 4.52 7.97 15.51 5.1 21.55 9.64Z" fill="#0B0B0B"/><path opacity=".43" d="M184.49 250.14c4.58 1.48 6.55 6.5 1.28 8.73-2.57 1.62-6.07 1.57-8.43 3.4-.94.74-1.14 2.07-1.93 2.9-2.36 2.42-6.6 1.78-9.76 1.63-2.96-.14-8.26-3.89-7.12-6.16 1.13-2.27 8.75-17.25 15.65-13.7 3.35 1.13 6.95 1.82 10.3 3.2Z" fill="#2B2B2B"/><path opacity=".21" d="M161.37 255.54c-2.87 3.6-1.72 6.75 3.4 7.94 3.8.88 8.23 1.65 9.7-2.4 2.13-5.71 5.93-2.31 8.59-5.71 1.67-4.69-5.47-5.43-8.53-6.56-2.27-.94-11.14 4.36-13.16 6.73Z" fill="#0B0B0B"/><path opacity=".21" d="M168.74 262.91c4.68.79 5.87-2.15 5.67-6.24.1-1.97 3.4-1.13 3.97-4.53.05-2.08-4.6-2.94-6.17-3.82-4.34-.1-10.67 9.61-11.41 11.19-.57.57 5.28 3.55 7.94 3.4Z" fill="#0B0B0B"/><path d="M197.85 154.18h-7.38c-.96 2.95-2.23 5.52-4.15 7.59 2.66 3.2 7.23 4.93 11.53 4.63v-12.22Zm46.16 0h7.38c.96 2.95 2.23 5.52 4.14 7.59-2.65 3.2-7.22 4.93-11.52 4.63v-12.22Z" fill="#21212B"/><path d="M267.17 212.18a5.97 5.97 0 0 1-.5-.74c-3.22-17.12-2.35-17.13-7.43-25.8a45.01 45.01 0 0 1-3.41-7.61 70.22 70.22 0 0 1-.54-7.12c-.04-1.6-.08-3.2-.44-4.74-.36-1.5-.94-2.92-1.62-4.31-1.1-2.3-2.34-4.55-3.25-6.87-1.39-6.97-1.6-7.49-11.42-29.55-9.07-20.26-18.99 25.92-18.58 27.23.4 7.37 5.37 13.61 8.4 20.29.8 1.79 1.33 3.62 2.22 5.4.84 1.69 2.15 3.1 2.93 4.8.18.39.3.78.45 1.21.09.45.09.9.19 1.4.16.8.84 1.27 1.68 1.58.84.31 1.59.64 2.16 1.27.57.68.89 1.5 1.1 2.29.24.97.3 1.97.46 2.95l-.5 1.88c-.66 2.65-1 5.23.38 7.7.76 1.34 1.84 2.57 2.29 4.05.46 1.57.5 3.13 1.28 4.6a18.1 18.1 0 0 0 2.88 3.62c2.15 2.2 4.87 4.33 5.25 7.35.09.67.03 1.32.16 1.99 1.08 4.54 9.02 3.46 12.72 1.88 3.93-1.66 7.74-5.32 7-9.18-.55-2.2-2.53-3.78-3.86-5.57Z" fill="#464558"/><path opacity=".25" d="M267.17 212.18a5.97 5.97 0 0 1-.5-.74c-3.22-17.12-2.35-17.13-7.43-25.8a45.01 45.01 0 0 1-3.41-7.61 70.22 70.22 0 0 1-.54-7.12c-.04-1.6-.08-3.2-.44-4.74-.96-3.93-3.47-7.43-4.87-11.18-1.39-6.97-1.6-7.49-11.42-29.55-9.07-20.26-18.99 25.92-18.58 27.23.25 4.27 2.03 8.18 4.03 12.01 14.64-7.14 13.12 10.45 18.6 13.99 4.3 2.77 5.19 7.76 6.52 8.81 2.54 1.99 6.27 5.74 7.44 8.34a44.11 44.11 0 0 1 3.8 14.71c.25 2.9-.41 8.85-9.28 4.45a8.3 8.3 0 0 0-6.32-.3c2.28 2.62 5.8 4.9 6.24 8.4.09.67.03 1.33.16 2 1.08 4.53 9.02 3.45 12.72 1.88 3.93-1.66 7.74-5.32 7-9.19-.41-2.23-2.39-3.8-3.72-5.59Z" fill="#2B2B37"/><path opacity=".25" d="M244.9 200.96c3.1-.78 6.59.12 9.51-1.23.66-.34.6-1.16.37-1.76-.96-2.77-4.13-4.5-6.93-5.85-2.99-1.54-6.5-2.62-9.17-4.72-2.84-2.44-1.75-6.58-5.25-8.54a23.46 23.46 0 0 1-3.89-2.84c.92 3.5 4.4 6.06 4.58 9.75 1.65 3.34 4.68-.14 5.35 8.1-1.32 4.2-1.83 8.1 1.25 11.73.36-2 1.75-3.98 4.19-4.64Z" fill="#2B2B37"/><path opacity=".25" d="M266.63 211.45c-3.23-17.12-2.36-17.13-7.44-25.8a45.01 45.01 0 0 1-3.41-7.61 70.22 70.22 0 0 1-.54-7.12c-.04-1.6-.08-3.2-.44-4.75a21.67 21.67 0 0 0-1.62-4.3c-1.1-2.3-2.34-4.55-3.25-6.87-1.07-5.19-1.4-6.83-5.61-16.42h-.05c-7.7 2.2-24.65 13.28-24.38 14.1.13 2.5.8 4.87 1.71 7.14 11-6.22 18.54-2.4 20.9-.07 3.4 3.3 2.2 8.53 4.07 12.66.72 1.62 7.44 12.6 8.54 17 1.19 3.19 4.82 4.11 5.54 6.42 2.32 7.76 3.34 13.88 5.38 17.65.93 1.72 1.91 3.9.43 5.44-1.47 1.55-4.36 1.19-6.52.6-2.2-.57-6.38-2-6.67.13-.24 1.7 3.6 1.01 5.63.74 2-.21 4.76.5 4.43 2.16-1.85 3.54-9.85.96-12.3.66.09.63.03 1.28.2 1.9 1.08 4.54 9.01 3.45 12.72 1.88 3.93-1.66 7.74-5.32 7-9.18-.46-2.22-2.4-3.81-3.78-5.59-.2-.28-.35-.53-.54-.77Z" fill="#2B2B37"/><path d="M288.24 251.91c-1.71-3.14-4.67-4.55-7.83-6.24-4.85-2.58-4.62-3.09-7.62-4.94-3.16-1.93-4.8-9.9-6.14-13.8 0 0-10.64 1.37-11.08 1.36.02.32.59 1.64.6 1.69.84 2 .54 1.92.68 3.1.1.94.68 1.43 1.34 2.05.3.27.3.73.47 1.07.14.2.92 1.4 1.1 1.82.45 1.03.95 2.04 1.22 3.1.42 1.8.2 3.77.66 5.58.63 2.37 1.15 4.43 5.4 4.78 2.62.23 4.66 1.9 6.97 2.95 5.35 2.41 2.89 3.21 11.79 3.3.77 0 1.55.22 2.27-.04a1.74 1.74 0 0 0 1.04-1.56c.07-.61-.2-.98-.4-1.5-.18-.6.2-1.82-.47-2.72Z" fill="#464558"/><path opacity=".44" d="M288.69 254.54c-.5 3.72-2.57 1.2-4.55 3.15 2.6.14 6.32.5 4.55-3.14Zm-8.28-8.87c-4.85-2.59-4.62-3.09-7.62-4.94-3.06-1.9-4.73-9.55-6.04-13.55 0 0-10.93 1.11-11.18 1.1.02.33.58 1.6.75 1.99.82-.05 6.79 1.37 8.25 2.81 1.39 1.32 2.83 3.13 2.91 4.95.1 1.64.02 5.52.91 6.1.62.39 2.83-.42 4.46.44.6.31.87.9 1.33 1.28.82.69 1.87.82 2.94.82 5 .03 9.53 3.6 10.8 4.84-1.7-2.87-4.52-4.25-7.51-5.84Z" fill="#323147"/><path d="M255.89 229.34c.34.03.63.02.97 0 3.25-.02 6.48-.13 9.46 1.18.6.27 1.13.54 1.7.9-.82-2.75-1.5-5.9-1.56-5.93-1.07.97-7.15 2.78-10.95 2.72.02.32.14.66.3.96.01.09.02.13.08.17Z" fill="#323147"/><path opacity=".44" d="M288.6 252.9c.04.46-.03.84 0 1.25-.97-.48-2.28.22-3.17-.36-.94-.75.64-1.13 1.27-.87 2.82-.45-1.07-3.12-1.26-4.23 1.34 1.05 2.8 2.49 3.15 4.22Zm-28.32-13.78c.27.64.5 1.3.69 1.95.28 1.14.28 2.34.33 3.52 3.97-2.4 2.14-4.23-1.02-5.47ZM277.03 255c-3.95-4.59-3.5-6.23-9.9-3.53 3.66.54 8.93 4.2 11.57 5.49a4.92 4.92 0 0 1-1.67-1.96Z" fill="#323147"/><path d="M273.22 240.7c-.13-.16-.48-.47-.5-.51a1.2 1.2 0 0 0-.56-.18c-.08-.12-.12-.57-.14-.66-.7-1.26-.26 2.3-3.2-5.45-.12.61.04 1.87.21 2.48.2.7.57 1.33.57 2.06-.09 1.21-1.32 2.3-.9 3.42.18.38.53.69.88.95.28.18.51.37.87.45.5.09 1.04-.1 1.49-.31a20.06 20.06 0 0 1 2.76-.95c-2.11-1.56-1.04-.6-1.48-1.3Z" fill="#323147"/><path d="M260.32 236.96a.63.63 0 0 0-.11.66c.15.48.52.87 1 1.07.1.02.26.09.39.02.19-.04.29-.24.3-.42-.04-.45-.97-1.9-1.58-1.33Zm9.61 9c.3 1 1.3.19 1.3-.5-.08-.68-1.58-.41-1.3.5Zm1.99.2c-.78.23-.16 1.13.44.75.56-.33.15-.94-.44-.75Zm14.56 8.27c-1.13-.07-1.6.51-.42 1.04.97.47 1.58-.83.42-1.04Z" fill="#575771"/><path d="M221.9 153.84c.16-1.12-.17-2.25-.15-3.4.02-1.2-9.42-44.7-19.06-24.65-10.67 22.23-10.65 22.33-12.3 29.7-1.91 8.43-3.4 22.8-8.12 30.3-2.6 4.19-5.32 8.49-6.85 13.07-.33 1.04-.66 2.09-.8 3.16-.13 1 .19 1.93.07 2.88-.22 1.66-1.56 2.82-2.41 4.22a6.29 6.29 0 0 0-.56 5.06c.2.63.5 1.25.56 1.86.17 2.48-2.86 4-2.44 6.7.2 1.3 2.1 2.32 2.54 2.59.75.33 1.51.62 2.24.85 1.22.43 7.15 2.02 8.39 1.94 3.38-.3 6.9-.57 8.06-3.52.93-2.4.72-4.06-.16-6.44-.42-1.15.13-2.28.75-3.31a127.25 127.25 0 0 1 6.88-10.81c1.43-2.02 2.96-4.07 3.16-6.48.15-2.18-.9-4.46-.5-6.6.44-2.4 2.38-3.68 3.95-5.44a17.5 17.5 0 0 0 2.84-4.79c.73-1.74 1.39-3.55 2.39-5.2 1.03-1.73 2.77-3 3.93-4.66 1.17-1.7 1.7-3.67 2.38-5.57a48.1 48.1 0 0 1 2.73-5.82c.87-1.72 2.22-3.57 2.49-5.64Z" fill="#464558"/><path opacity=".29" d="M182.15 217.44c-6.14-.9-3.16-3.26-10.65-4 .53 1.76 1.29 3.58-.05 5.2 2.54.6 5.14.74 7.65 1.28 4.33.26 7.77 4.9 9.7 3.95 5.96-3.1-2.9-6.43-6.65-6.43Z" fill="#2B2B37"/><path opacity=".25" d="M190.74 224.53c-2.35 1.34-5.32 1.53-7.97.96-4.47-.93-8.81-1.79-12.82-4.33-1.63 5.07 11.5 6.7 12.82 6.91.52.1 7.32-.2 8.42-3.82l-.45.28Z" fill="#2B2B37"/><g opacity=".25" fill="#2B2B37"><path opacity=".51" d="M216.61 165.43c1.18-4.38 5.2-8.1 5.3-12.7-1.88-7.2-24.4-11.37-27.43-9.57-2.91 6.43-3.2 8.35-4.39 13.6 1.53-1.17 2.37-5.75 4.96-3.4.97 4.8 8.11 7.93 9.89 12.8 1.35 5.66-1.63 13.46-5.84 17.66-1.14.97-2.62 1.88-3.02 3.23-.33 1.04.01 2.12.26 3.18a20.1 20.1 0 0 1-2.17 14.37c-1.24 2.9-4.35 3.7-7.31 4.09-7.47 3.27.84 7.73 4.37 10.64-2.38-5.87 9.93-15.47 10.36-21.7-.58-5.64-1.64-7.84 3.45-12.04 2.65-2.89 3.27-6.73 5.23-9.99 2.6-3.12 5.5-6.05 6.34-10.17Z"/><path opacity=".25" d="M206.78 181.97a8.86 8.86 0 0 0-.38 1.9c.6-.93 1.08-1.95 1.5-2.97.42-.98.8-2.01 1.26-2.98-.14.2-.24.41-.38.62-.79 1.09-1.62 2.17-2 3.43Z"/><path opacity=".5" d="M177.24 212.82c2.65-2.24-.58-6.47-2.62-8.9.42 2.66-2.49 4.34-3.04 6.77 1 1.4 4.22 3.33 5.66 2.14Z"/><path opacity=".51" d="M184.54 184.16c-.69 5.21-1 10.46-1.29 15.65 0 1.71-.5 3.73.52 5.27 1.86 1.7 4.5-.3 4.95-2.3 5.6-12.9-.23-20.14-1.15-32.45-.97 4.93-2.77 9.04-3.03 13.83Z"/></g><path opacity=".29" d="M191.6 214.93c.63-1.08 1.21-2.16 1.84-3.23-2.45-.17-5.57-1.66-7.52-.16-3.02 2.36 2.53 5.2 4.87 6.5-.3-1.03.24-2.12.8-3.11Zm30.3-61.09c.04-.36-.63-3.21-1.5-4.08-1.14-1.05-23.2-7.63-25.17-6.92a3.77 3.77 0 0 0-.76.36 69.32 69.32 0 0 0-1.77 4.17c1.98 3.76 7.25 5.03 10.92 7.37 4.56 2.88 6.59 7.94 7.59 12.38.58 2.6.6 5.1-.34 7.54-.03.14-.1.26-.18.38 1.04-1.4 2.47-2.55 3.49-4.01 1.16-1.7 1.7-3.67 2.37-5.57a48.17 48.17 0 0 1 2.73-5.82c1.01-1.88 2.36-3.73 2.63-5.8Z" fill="#2B2B37"/><path d="M182.48 231.75c.56-1.18 1.13-2.4 1.46-3.68-2.63-.2-11.6-2.34-11.6-2.34-.62 2.5-1.48 7.36-1.98 10.26-.12.53-.73 2.16-.8 2.47-.13.34-.1.63-.07.95-.01.7-.64 1.3-.79 1.97-.14.62-.02 1.2.13 1.82a24.33 24.33 0 0 1-5.04 8.04c-.3.45-.64.94-.9 1.44-.32.53-.55 1.13-.87 1.67-.68 1.07-1.73 1.83-2.15 3.04-.87 2.36-.26 3.12 6.7 4.27.94.14 3.43 2.06 6-1.53.78-1.1.46-3.37 1.45-4.28.37-.34 2.43-.86 2.65-5.7.07-1.41-.8-3.99 2.17-11.14.96-2.53 2.46-4.82 3.64-7.26Z" fill="#464558"/><path opacity=".44" d="M171.81 243.8c-2.52-1.15-2.58-1.95-2.87-3.06a2.57 2.57 0 0 0-.22.55c-.14.62-.02 1.2.13 1.83a24.84 24.84 0 0 1-2.74 5.22h.04c1.78-.1 3.48.14 5.23-.48.8-.26 1.96-.9 1.94-1.88-.03-.74-.94-1.89-1.5-2.19Z" fill="#323147"/><path opacity=".44" d="M182.48 231.75c.56-1.18 1.13-2.4 1.46-3.68a29 29 0 0 1-8.15-1.89l-3.36-.66a101 101 0 0 0-1.3 6.15c6.19 1.55 4.75 7.95 4.66 9a82.13 82.13 0 0 0 0 5.62 2.7 2.7 0 0 1-2.12 2.9c-.78.21-.45 1.34-.04 1.88.46.55.23 1.38-.16 2-.57.8-1.43 1.38-1.8 2.36-.58 1.5-.17 3.8-1.96 4.6-1.57.7-3.69-.09-5.11-.7-3.42-1.46-4.18-2.43-4.42-2.67-.1.22-.23.37-.28.6-.87 2.36-.27 3.12 6.7 4.27.94.14 3.42 2.1 6-1.54.57-.8.59-1.77.74-2.66.08-.58.21-1.16.66-1.62.32-.35 2.44-.86 2.65-5.7.08-1.42-.8-3.99 2.18-11.14.97-2.4 2.47-4.68 3.65-7.12Z" fill="#323147"/><path d="M166.89 261.72c-.83-1.5 1.04-2.23 1.58-3.33.1-.9-.87-1.1-.95-.1-.26 1.15-1.59 2.05-1.66 3.23.39.03.68.04 1.03.2Z" fill="#323147"/><path opacity=".44" d="M168.67 241.51c-.07.54.05 1.07.18 1.6-.4 1.08-.96 2.3-1.7 3.59.31-.26 1.92-2.2 2.24-2.97.15-.43.26-.92.11-1.36-.27-.52-.67-.69-.83-.86Zm.54-1.32c.88-.01.74-1.1.3-1.55-.07.54.01 1.06-.3 1.55Z" fill="#323147"/><path d="M172.52 225.12a74.93 74.93 0 0 0-1.03 4.55c10.99 2.08 4.4 12.3 4.47 15.64.03.7.1 1.45 0 2.16-.12.72-.53 1.47-1.23 1.74-1.03.26-1.15.79-.95.97.2.18.58.02.78.24 1.9 2.36-1.74 4.04-2.31 5.26-.46.97-.41 2.04-.6 3.07a6.46 6.46 0 0 1-1.95 3.48c.87-.2 1.82-.74 2.77-2.12.57-.81.6-1.78.75-2.67.08-.58.21-1.15.66-1.62.32-.35 2.43-.85 2.65-5.7l.06-3.72c.2-.42.35-.9.3-1.37.13-.34.16-.66.09-1 .3-1.37.88-3.05 1.73-5.1 1.04-2.46 2.49-4.76 3.67-7.2.56-1.18 1.13-2.4 1.47-3.67-4.09-.26-11.25-2.87-11.33-2.94Z" fill="#323147"/><path d="M172.1 236.24c.38-.38 1.2-2.3-.13-2.19-.93 0-.77 2.75.13 2.2Zm-2.96 22.84c-.5-.37-.96-.05-1.13.47-.07.12 0 .27.18.31.66.09 1.4-.37.95-.78Zm-5.47-7.08c-.67 2.32 1.97.12 1.01-.81-.54-.39-.88.47-1 .81Z" fill="#575771"/><path d="M251.12 153c-.53-1.88-.9-3.8-1.22-5.67-1.75-10.65-1.8-23.47-8.07-32.2-.16-.24-41.48-.24-41.7 0-6.26 8.73-6.26 21.55-8.07 32.2-.32 1.87-.69 3.8-1.22 5.66-.96 3.45-2.34 6.46-4.52 8.78 0 0 .06.05.06.1 1.11-.35 2.18-1.53 2.87-2.17a21.85 21.85 0 0 0 2.86-3.35c2.18 4.63 3.14 5.81 7.07 9.17a266.16 266.16 0 0 0 43.44 0c3.93-3.36 4.9-4.54 7.07-9.17.8 1.23 1.8 2.36 2.87 3.35.69.64 1.75 1.82 2.86 2.17 0 0 .06-.05.06-.1-2.02-2.32-3.4-5.37-4.36-8.78Z" fill="#4C4C62"/><path opacity=".25" d="M214.48 150.83c-7.39 1.97-13.07 6.9-18.33 11.73.8.84 1.8 1.72 3.14 2.86 6.32.54 13.6.89 21.08.89.27-.6 10.04-19.72-5.9-15.48Z" fill="#2B2B37"/><path d="M196.84 146.2c5.53-6.07 7.39-16.92-1.11-21.45-2.66 9.31-2.4 19.27-4.94 28.44a65.75 65.75 0 0 0 6.05-7Z" fill="#575770"/><path opacity=".25" d="M251.12 153c-3.34-12.23-1.86-27.46-9.3-37.87-.15-.24-41.47-.24-41.69 0-1 1.38-1.85 2.91-2.54 4.49 8.17 16.42 38.93 10.55 47.1 44.07 2.34-2.17 3.3-3.7 5.05-7.4 1.6 2.08 3.24 4.35 5.74 5.58 0 0 .05-.05.05-.1-2.07-2.32-3.45-5.37-4.4-8.78Z" fill="#2B2B37"/><path opacity=".25" d="M201.73 119.33c14.82 8.38 34.42 8.23 47.11 20.3-1.06-8.67-2.18-17.8-7.01-24.5-.16-.24-41.48-.24-41.7 0-.47.65-.85 1.29-1.27 1.98.85.83 1.86 1.57 2.87 2.21Z" fill="#2B2B37"/><path d="M198.6 120.85c-1.76 3.95-2.4 6.76-2.98 12.62 0 .3-.53.25-.48-.05.59-5.91 1.23-8.77 3.03-12.76l.21.1-.2-.1c.1-.3.52-.1.41.2Zm-4.2 23.02c.05.45-1.28 13.26-2.29 10.85 1.17-3.06 1.44-7.64 1.76-10.85.05-.34.53-.3.53 0Zm51.36-16.21c.05.3-.43.4-.48.1-.58-2.91-1.91-6.31-3.03-8.98-.16-.3.32-.49.48-.2 1.12 2.72 2.45 6.17 3.03 9.08Zm3.93 26.67c-.1.04-.27-.05-.32-.15-.8-3-2.44-15.78-2.5-15.98-.05-.3.48-.34.48-.04.53 4.14 1.65 12.71 2.5 15.87.05.15 0 .25-.16.3Z" fill="#2B2B37"/><path d="M231.78 63.35c2.05 0 3.7-1.78 3.7-3.98s-1.65-3.98-3.7-3.98-3.71 1.78-3.71 3.98 1.66 3.98 3.7 3.98Z" fill="#75A152"/><path d="M235.46 59.37c0 2.2-1.65 3.98-3.7 3.98s-3.72-1.78-3.72-3.98 1.66-3.98 3.71-3.98c.3 0 .57.02.84.1a2.17 2.17 0 0 0-.27 1.03c0 1.26 1.14 2.28 2.57 2.28.18 0 .35-.03.52-.05.05.2.05.4.05.62Z" fill="#568040"/><path d="M266.77 108.03a18.04 18.04 0 0 1-.95 4.4c-12.06.76-22.9-2.36-22.2-16.73.4-4.39 1.81-8.2 4.28-12.29l1.2 2.88c-9.2 14.2 4.8 24.21 17.67 21.74Z" fill="#74A352"/><path d="M266.2 111.23c-.12.4-.23.83-.4 1.22-8.66.1-20.3-.1-20.53-11.57 0 0 .88-3.17.88-4.31.36 4.15 2.9 6.87 7.14 9.5 3.6 3.58 8.23 5.13 12.9 5.16Z" fill="#568040"/><path opacity=".49" d="M266.35 110.58c-2.25 0-4.43-.2-6.62-1.07a19.55 19.55 0 0 1-4.77-2.56c5.52 1.84 7.84 1.53 11.8 1.09a15.74 15.74 0 0 1-.4 2.54Z" fill="#AED888"/><path d="M258.88 119.99s0-.03.02-.03c-11.18-3.02-10.05-10.52-12.64-19.92-.38-1-.85-2-1.45-2.9-.71 2.52-2.2 4.87-3.72 7 3.06 8.45 5.65 19.8 15.04 22.64 1.7-1.7 3.47-3.66 5.11-5.87-.73-.32-2.4-.79-2.36-.92Z" fill="#74A352"/><path d="M252.6 116.85c-6.18-4.9-3.73-13.39-7.82-19.7a16.54 16.54 0 0 1-1.28 3.14c3.99 13.76 0 18.14 17.62 20.75.23-.31.47-.62.68-.94-2.67-.7-7.22-1.85-9.2-3.25Z" fill="#568040"/><path opacity=".49" d="M261.06 121.1a49.82 49.82 0 0 1-4.69 5.37c-1.12-5.3-6.02-5.1-7.72-5.1-2.64-3.3-3.88-7.16-5.46-11.01 1.72 2.48 3.55 5.93 6.04 7.68 2.43 1.7 8.42 3.33 11.83 3.06Z" fill="#AED888"/><path d="M249.3 114.36a9.44 9.44 0 0 0 2.91 2.16c-2.1-1.91-3.13-4.13-3.95-7.39a64.5 64.5 0 0 1-.36-2.03c-.3 2.32-.28 5.35 1.4 7.26Z" fill="#3E5C2E"/><path d="m237.66 59.45 1.38-2.87-.37-.3c-.47.94-.91 1.9-1.38 2.87l.37.3Z" fill="#A4A4A4"/><path d="m239.46 60.46-1.16-2.67 1.01-2.12 3.86 2.27-.6 1.24a2.89 2.89 0 0 0-3.1 1.28Z" fill="#A4A4A4"/><path d="m234.76 52.9-.74 1.48h.03c.17.22 3.04 1.78 6.58 3.56 3.53 1.78 6.48 3.14 6.77 3.17h.03l.74-1.49-13.4-6.72Z" fill="#A4A4A4"/><path d="M248.14 59.62c.05-.12-2.89-1.73-6.57-3.58-3.69-1.86-6.76-3.3-6.8-3.17-.06.13 2.89 1.73 6.57 3.59 3.69 1.88 6.76 3.29 6.8 3.16Z" fill="#D8D8D8"/><path d="M243.44 57.3c.13-.42 10.52-20.75 10.5-21.17.29-1.01-1.52-1.66-2.09-2.15-.44-.3-1.06-.02-1.26.45l-10.56 21.14s3.39 1.73 3.41 1.73Z" fill="#21212B"/><path d="m243.44 57.3 6.86-13.73 3.26-6.55c1.16-1.73-.6-2.22-1.7-3.04-.45-.3-1.07-.02-1.27.45l-10.56 21.14c0 .02 3.39 1.73 3.41 1.73Zm.67-2.05-1.78.05-.99-1.66 1.78-.05 1 1.66Zm-.3-3.1c-1.18-2-1.45-1.55.82-1.6l.92 1.56-1.73.05Zm3.1-5.93-.92-1.56 1.61-.02.92 1.56-1.61.02Zm.15 2.84-1.74.03-.81-1.39 1.73-.05.81 1.41Zm1.23-5.88-.89-1.63 1.7-.03.95 1.63-1.76.03Zm.6-4.7h1.73l.91 1.6-1.73.03-.92-1.63Zm3.21-3.16.99 1.73h-1.8l-1-1.68 1.81-.05Z" fill="#323147"/><path opacity=".37" d="M250.84 34.08c-.3.32-.3.84-.42 1.24l1.68-.03.99 1.73h-1.8l-.9-1.56a12.24 12.24 0 0 0-.14 3h.34l.92 1.6h-1.06c.12.67.32 1.34.61 1.88l2.48-4.97c.37-.57.61-1.5-.05-1.95-.6-.22-1.96-1.73-2.65-.94Zm-7.4 23.22.87-1.7-.37-.33-1.6.05-1-1.66 1.29-.02c-.03-.03-.05-.08-.08-.1a5.03 5.03 0 0 1-.52-2.05l-2.02 4.13 3.43 1.68Z" fill="#21212B"/><path d="m240.03 55.57 10.56-21.14c.2-.4.57-.65 1-.57-1.12-.2-1.42-.3-1.84.42L239.3 55.2l.74.37Z" fill="#464557"/><path d="m238.32 57.03.28.22 3.93 1.95.02-.07c.75.4 1.1.64 1.07.67a32.9 32.9 0 0 1-3.22-1.49 32.78 32.78 0 0 1-3.11-1.68c.05-.05.5.12 1.03.4Z" fill="#D8D8D8"/><path d="M243.64 59.77c-.02.05-1.46-.62-3.21-1.48a26.92 26.92 0 0 1-3.12-1.68l-2.64 5.54L241 65.3l2.64-5.54Z" fill="#464557"/><path opacity=".37" d="M240.43 58.29a32.37 32.37 0 0 1-3.12-1.69c0-.02.45.18 1.01.42l.3.23 3.93 1.95-.84-.27c-.4-.2-.81-.42-1.28-.64Z" fill="#A4A4A4"/><path d="M243.64 59.77c-.07.12-5.64-2.67-6.28-3.14l-.05-.05-.64 1.31c.8.52 5.69 3 6.33 3.2l.64-1.32Z" fill="#A4A4A4"/><path d="M259.97 103.9c-1.92 2.08-19.05-5.48-20.27-6.96-4.6-8.53-8.43-22.37-7.35-31.1 1.24-8.23 11.89-4.45 16.3-1 4.85 4.1 6.47 9.9 7.01 15.94 2.05 6.85 9.81 16.22 4.31 23.12Z" fill="#3E3D4E"/><path opacity=".25" d="M252.33 69.16c-7.26 8.42-8.06 20.07-8.55 30.67-1.75-2.21-15.14-29.56-9.64-37.6 3.21-2.65 7.91-.86 11.3.66 3.35 1.62 5.07 3.4 6.89 6.27Z" fill="#2B2B37"/><path opacity=".29" d="M240.91 96.95c.43-1.55.97-3.08 1.4-4.63.75-2.6.42-5.35 1.08-7.99 2.65-6.5 7.67-13.84 3.42-20.76-26.86-14.85-7.53 31.1-5.9 33.38Z" fill="#2B2B37"/><path opacity=".25" d="M256.85 84c-.85-.7-2.83-2.34-3.21-3.15-.82-1.8-.95-5.75.46-7.9 1.47 3.56.95 7.54 2.75 11.05ZM248 85.64s3.63-2.2 5.68-1.08c2.04 1.11-1.73 1.54-1.73 1.54s4.02.02 4.02 1.04c0 1.01-4.3-1.24-8.45.19-4.15 1.42.48-1.7.48-1.7Z" fill="#2B2B37"/><path d="M205.95 60c.15-.08.3-.13.42-.18l-1.7-3.51-.03.02-.35.28c.13.24 1.24 2.52 1.66 3.38Z" fill="#A4A4A4"/><path d="m203.9 60.46 1.16-2.67-1.01-2.12-3.86 2.27.6 1.24a2.89 2.89 0 0 1 3.11 1.28Z" fill="#A4A4A4"/><path d="m208.6 52.9.74 1.48h-.02c-.18.22-3.05 1.78-6.58 3.56-3.54 1.78-6.48 3.14-6.78 3.17h-.02l-.75-1.49 13.4-6.72Z" fill="#A4A4A4"/><path d="M202 56.48c3.68-1.85 6.65-3.46 6.57-3.58-.05-.13-3.11 1.3-6.8 3.16-3.68 1.86-6.65 3.46-6.58 3.59.05.1 3.1-1.31 6.8-3.17Z" fill="#D8D8D8"/><path d="m199.92 57.3-10.36-20.75c-.08-.12-.1-.27-.13-.42-.05-.4.08-.84.42-1.04l1.66-1.09c.47-.3 1.06-.02 1.26.45l10.56 21.14c0-.02-3.41 1.7-3.41 1.7Z" fill="#21212B"/><path d="m203.33 55.57-10.56-21.14c-.07-.13-.15-.25-.25-.35-.27-.27-.69-.35-1.01-.13l-1.66 1.1c-.7.44-.42 1.38-.05 1.95l3.27 6.55 6.85 13.72 3.41-1.7Zm-3.12-1.98 1.78.05-.98 1.66-1.78-.05.98-1.66Zm-2.42-1.49.92-1.55c2.25.05 2-.4.81 1.6l-1.73-.05Zm-2.97-5.93.92-1.56 1.6.03-.9 1.55-1.62-.02Zm2.3 1.48 1.73.05-.81 1.39-1.73-.03.81-1.4Zm-3.83-4.5.94-1.63 1.7.03-.88 1.63-1.76-.03Zm.27-3.06-1.73-.03.92-1.6h1.73l-.92 1.63Zm-.52-4.78-.99 1.69h-1.8l.99-1.73 1.8.04Z" fill="#464557"/><path opacity=".37" d="M192.52 34.08c.3.32.3.84.42 1.24l-1.68-.03-.99 1.73h1.8l.9-1.56a12.29 12.29 0 0 1 .15 3h-.35l-.92 1.6h1.07a7.26 7.26 0 0 1-.62 1.88l-2.47-4.97c-.38-.57-.62-1.5.04-1.95.6-.22 1.96-1.73 2.65-.94Zm7.4 23.22-.87-1.7c.13-.1.25-.23.37-.33l1.61.05.99-1.66-1.29-.02c.43-.74.55-1.46.57-2.15l2.03 4.13-3.41 1.68Z" fill="#21212B"/><path d="m203.33 55.57-10.56-21.14c-.2-.4-.57-.65-.99-.57 1.11-.2 1.41-.3 1.83.42l10.46 20.92-.74.37Z" fill="#323147"/><path d="m205.01 57.03-.27.22-3.93 1.95-.03-.07c-.74.4-1.08.64-1.06.67.03.05 1.46-.62 3.22-1.49a32.93 32.93 0 0 0 3.11-1.68c-.02-.05-.47.12-1.04.4Z" fill="#D8D8D8"/><path opacity=".37" d="M202.91 58.29a32.37 32.37 0 0 0 3.12-1.69c0-.02-.45.18-1.02.42l-.3.23-3.93 1.95.84-.27 1.29-.64Z" fill="#A4A4A4"/><path d="M199.7 59.77c.02.05 1.45-.62 3.21-1.48a32.37 32.37 0 0 0 3.12-1.68l2.64 5.54c-.1.1-6.16 3.16-6.3 3.16l-2.67-5.54Z" fill="#464557"/><path d="M199.7 59.77c.07.12 5.63-2.67 6.28-3.14l.05-.05.64 1.31c-.8.52-5.69 3-6.33 3.2l-.64-1.32Z" fill="#A4A4A4"/><path d="M211.85 70.13c-.67 6.8-5.81 23.56-8.16 30.68-1.26 3-20.56 1.5-19.6-.7-1.4-6 .73-9.6 1.8-13.53 2.05-8.16 2.4-13.9 9-22.07 6.42-4.91 18.46-8.05 16.96 5.62Z" fill="#464558"/><path opacity=".29" d="M206.34 92.92c-6.74 12.52-22.19 6.79-22.43 6.36-1.16-5.17.93-8.8 2-12.73 2.6 1 6.67-6.47 6.37-11.22-.1-7.54 2.3-11.74 8.43-14 .72-.25 18.21 8.22 5.63 31.59Z" fill="#2B2B37"/><path opacity=".29" d="M196.47 68.89c1.27 6.88-4.8 9.56 4 13.73 5.96 3.5-1.76 11.08-1.7 14.25.16.81 6.53-3.9 6.68-3.1 6.12-14.9 13.37-41.7-7.87-31.1-1.23.62-1.63 3.41-1.12 6.22Zm-2.03 18.42s-7.9-1.6-7.09-.36c.81 1.23 2.46.8 2.46.8s-2.78 1.3-.98 1.24c1.8-.07 7.7-.58 5.6-1.68Z" fill="#2B2B37"/><path d="M244.36 70.3c-1.7-2.27-2.18-8.3-1.93-8.53-2.52-.96-15.23-4.82-17.5-5.19l-7.57-.5c-2.53.53-14.5 4.7-17.49 5.64 1.21 5.87-3.46 13.73-1.8 19.12 1.95 6.87 3.78 17.5 2.57 23.64-.65 2.25-.97 4.92.44 6.92 0 2.06 5.17 6.4 18.18 7.42 7.3.57 22.88-2.67 23-3.24-.84-4.62.84-4.25 1.19-7.86a64.45 64.45 0 0 0-.57-6.18c-.77-5.27-.54-4.38-.35-10.41.1-3.17.15-6.36 1.1-9.38 1.67-4 2.56-7.49.73-11.44Z" fill="#575770"/><path opacity=".11" d="M242.5 91.13c-.17 6.03-.42 5.16.35 10.4.3 2.06.47 4.11.57 6.19-.35 3.6-2.05 3.24-1.19 7.86-.12.55-15.68 3.81-23 3.24-22.9-1.8-19.26-12.1-18.62-14.34 1.21-6.16-.62-16.77-2.57-23.64a8.6 8.6 0 0 1-.35-2.8c4.18 2.85 7.98-9.1 12.97-8.6 4.65.37 8.82-2.75 11.37-7.64 1.2-2.4 10.8-.52 10.36-3.2.17.06.35.13.52.16 1.06.34 3.29.99 5.36 1.58.05.02 3.71 1.14 4.21 1.38-.25.33.25 6.26 1.93 8.54 1.85 3.95.94 7.44-.77 11.44-.99 3.07-1.06 6.26-1.13 9.43Z" fill="#2B2B37"/><path opacity=".25" d="M199 81.23a15.82 15.82 0 0 1-1.21-1.65c1.31 5.8 2.6 9.84 2.92 15.45 3.41-6.08 3.49-9-1.7-13.8Zm20.23 37.6c-18.42-.28-19.09-9.33-19.16-10.4-.73-12.25 24.69-12.38 25.33-21.78 1.64-10.46 16.14-4.52 14.6-25.7v-.02c1.1.35 1.94.65 2.43.82-.25.22.22 6.26 1.93 8.53 1.85 3.96.94 7.44-.77 11.45-.94 3-.99 6.2-1.09 9.37-.17 6.04-.42 5.17.35 10.41.3 2.06.47 4.1.57 6.18-.35 3.61-2.05 3.24-1.19 7.87-.12.6-15.68 3.39-23 3.26Z" fill="#2B2B37"/><path opacity=".25" d="M244.36 70.3c1.85 3.96.94 7.45-.77 11.45-.94 3-.99 6.21-1.09 9.38-.17 6.03-.42 5.16.35 10.4.3 2.06.47 4.11.57 6.19-.35 3.6-2.05 3.24-1.19 7.86-.12.55-15.68 3.74-23 3.24-17.46-1.19-18.55-8.01-18.7-8.3 9.97-.55 32.16-2.73 30.05-16.06.25-2.54 1.78-4.7 3.3-6.72 7.24-9.05 9.05-15.2 6.94-26.53.67.22 1.21.41 1.56.54-.2.25.27 6.28 1.98 8.55Z" fill="#2B2B37"/><path opacity=".25" d="M232.22 58.63c-.42.82-24.17 32.08-30.45 59.03 1.07.1 3.07.89 3.71 1.33.05-1.33 6.63-20 12.67-30.16 7.76-13.2 17.26-28.96 14.07-30.2Z" fill="#2B2B37"/><path opacity=".25" d="M242.65 65.33c-.3-1.97-.22-3.56-.22-3.56s-11.87-3.76-15.38-4.7c-1.68 2.48-14.05.1-15.98.87 1.39 2.85 3.98 5.69 8.58 4.92 5.12-.89 20.08.6 23 2.47Z" fill="#2B2B37"/><path opacity=".25" d="M222.03 61.8a5.18 5.18 0 0 1 3.93.4c3 .59 7.37.12 8.78-2.83-2.6-.78-5.69-1.72-7.74-2.3-2.2 3.42-14.05.1-15.98.87 2.85 1.66 7.1 4.55 11 3.86Zm-2.15 11.82c-3.27 1.6-5.94 6.7-8.31 10.24-5.96 8.87-9.45 19.58-10.51 26.1 0 .85-.55 4.49-.52 5.42.32.65 3.78.13 4.28-.76 3.19-6.01 17.1-42 15.06-41Zm-7.75-13.82s2.08 4.67 4.18 7.27c2.1 2.6 4.65 5 4.65 5l3.24-1.32s-3.78-1.3-6.38-3.78c-2.64-2.45-5.68-7.17-5.68-7.17Z" fill="#2B2B37"/><path opacity=".14" d="M201.23 64.27c-.05.82.6 1.7 1.4 1.63 1.3-.12 4.76-3.14 3.77-4.25-1.24-1.38-5.07 1.34-5.17 2.62Zm34.42 1.46c-.4-.22-2.79 1.33-1.53 2.32.74.57 1.96 0 1.98-1.3.02-.4-.12-.82-.45-1.02Z" fill="#D8D8D8"/><path d="m220.35 76.27 1.2-1.22c.97-.94 1.89-1.92 2.8-2.94-8.26-5.2-9.02-7.4-14-15.43-.07-.1.38 11 10 19.59Z" fill="#2B2B37"/><path d="M220.96 69.89c-.2 1.5-1.93 3.43-2.82 4.25a25.7 25.7 0 0 0 2.18 2.15c.4-.42.8-.8 1.21-1.21.97-.94 1.88-1.93 2.8-2.95a71.08 71.08 0 0 1-3.37-2.25Z" fill="#21212B"/><path opacity=".25" d="M214.63 67.56c.77 1.11 1.19-.22.87-.99a4.87 4.87 0 0 0-1.26-1.8c-.4-.33-.77-.5-.92.1-.24.88.87 2.02 1.31 2.7Z" fill="#464557"/><path d="M222.1 79.6c-3.86 6.88-16.86 27.45-17.73 38.26-1.16.02-2.18-.8-3.17-1.27-2.81-23.96 29.31-54.57 30.35-58.8 1.66 0 .94 7.08-9.45 21.81Z" fill="#2B2B37"/><path d="M205.58 111.58c-.05.14-1.24 5.02-1.24 6.28 0 0-2.84-1.1-3.16-1.27l-.08-5.68c2.43 1.06 4.11.72 4.48.67Z" fill="#21212B"/><path opacity=".25" d="M227.3 65.83c.59-.72-.38-.77-.82-.4-.37.3-.77.75-.97 1.22-.14.32-.2.61.23.59.66-.03 1.2-.99 1.56-1.41Zm-4.6 3.61c-1.17 1.43-2.4 3.02-3.69 4.65.1.22.32.32.77.27 1.43-.17 2.45-2.47 3.14-3.56.62-.91.32-1.31-.23-1.36Z" fill="#464557"/><path opacity=".25" d="M243.42 107.72c0-7-1.5-11.2-.86-18.62-7.75 12.54 1.28 17.3-5.77 23.89-2.25 2.1-4.15 4.94-14.17 5.96 5.96-.6 18.6-2.58 19.59-3.27-.7-5.27 1.21-5.14 1.21-7.96Z" fill="#2B2B37"/><path d="M210.76 50.14s-.92 1.33-.93 2.4c0 1.05 2.13 3.06 2.13 3.06l1.04-2.16-2.24-3.3Z" fill="#75A152"/><path d="M231.3 45.88s1.54 1.45 1.62 3.74a3.68 3.68 0 0 1-1.67 3.26l-.84-.8.89-6.2Z" fill="#568040"/><path d="M242.75 116.57c-9.82 6.73-30.94 7.67-42.78.55-.05-1.88.57-6.56.57-6.56.56 1.44 2.99 1.61 4.27 1.88 12.7 2.8 24.73 2.28 37.52-1.28a58.69 58.69 0 0 0 .42 5.41Z" fill="#2B2B37"/><path opacity=".46" d="M242.73 116.57c-6.5 4.4-14.54 5.32-22.38 5.4 1.48-.5 5.21-1.81 2.96-3.67-.74-1.19 2.53-1.09 1.41-2.57-.5-.64-1.38-.82-1.83-1.5a80.81 80.81 0 0 0 19.4-3.07c.1 1.8.24 3.58.44 5.41Z" fill="#21212B"/><path d="M242.75 116.57c-2.7 1.93-5.59 3.02-9.05 3.9-.05-1.3 1.83-2.32.64-3.63-.3-.44-.61-.76-.34-1.3.5-.75 1.01-1.79.3-2.58a95.37 95.37 0 0 0 8-1.83c.1 1.83.23 3.61.45 5.44Z" fill="#21212B"/><path opacity=".25" d="M209.39 115.98c-1.31-1.39-3.61-.6-5.1-1.88-.79-.55-2.12-1.34-2.32.17.54.62 1.14.64 1.48 1.48.72 1.54 7.47 3.69 5.94.23Zm12.1-1.76a72.68 72.68 0 0 1-9.46-.54c1.34.94 2.43 2.07 4.36 1.95 1.58-.1 4.6.67 5.1-1.4Z" fill="#464557"/><path d="M227.28 35.23c-2.21-5.67-6.92-9.22-11.3-8.16-4.37 1.03-6.98 6.34-6.45 12.4-.4-.14 1.68 8.62 1.73 8.6 2.48 3.91 7.2 5.54 10.77 4.7 3.55-.86 10.04-6.96 5.25-17.54Z" fill="#D58500"/><g opacity=".77" fill="#E2A040"><path opacity=".36" d="M215.12 33.78c.12.45.7.78 1.17.72.83-.36-1.25-1.74-1.17-.72Zm-2.1 4.75c.13-.28.7-.36.86-.09.15.53-.9.53-.86.1Zm8.76-1.59c0-.27.42-.72.7-.53.38.34-.53.95-.7.53Zm-8.77 4.18c.67-.2.13-1.02-.34-.53-.18.22.1.56.34.53Zm12.31-3c.67-.2.13-1.01-.35-.53-.18.22.1.59.35.53Z"/></g><path opacity=".36" d="M228 34.7c-1.52-3.35-5.8-7.71-10.5-7.77-12.75 3.6-8.67 16.55-8.07 17.98.92-.86 2-1.48 3.12-2.01-4.64-17.39 22.88-13.24 11.4 2.53-2.39 2.59-5.7 5.03-9.33 4.98 5.88 5.6 20.3-.33 13.38-15.7Z" fill="#B45F00"/><path d="M222.69 30.6c.7.07 1.37.15 2.06.25-2.42-2.98-5.69-4.53-8.8-3.8-4.37 1.03-11.15 4.61-6.56 17.8.2-.17 1.2-.96 1.57-1.16-1.42-8.08 2.22-14.01 11.73-13.08Zm-4.17 9.53s4.06-1.34 7.34-1.19c3.27.13 3.63.17 3.63.17l-.2 2.35-10.77-1.33Z" fill="#B45F00"/><path d="M224.12 31.65a10.37 10.37 0 0 1 3.28 10.97c-1.15 3.38-8.96 7.75-12.8 7.77 5.84 5.61 19.08-1.93 15-13.53-1.07-3.06-5.67-5.7-5.48-5.2Z" fill="#B45F00"/><path opacity=".36" d="M222.24 39.32c-.6-.24-1.29-3.94-1.26-4.05 0 0-.8.03-.86.25-.52 2.55-.23 3.93.25 6.07.04.17 3.07-.23 3.03-.4a7.38 7.38 0 0 0-1.16-1.87Zm-4.5-1.8c-1.13-1.93-4.73-1.24-6.63-.69-.1.02-.17.04-.22.13-.03 0-.02.03-.04.06 0 .08.07.1.13.14 4.32.83 5.78.58 6.1 1.98.39 1.71-1.3.6-7.8 4.9l1.9 3.37c1.05-.77 9.57-4.68 6.55-9.89Z" fill="#B45F00"/><path opacity=".36" d="M216.28 39.17c-.7-1.19-2.93-.49-2.12-1.07a1.7 1.7 0 0 1 2.12 1.07Zm5.75-2.84c-.83.06-2-.72-1.81-1.04.06-.09 2.66-1.03 3.07-1.12.67-.15 1.36-.28 2.05-.34.43-.01.35.18.21.26-.38.24-.83.27-1.18.47-.25.16-1.27 1.68-2.34 1.77Z" fill="#B45F00"/><path d="M213.96 39.03c.02.07.01.15.03.25.11.48.42.84.69.78.26-.06.39-.52.28-1-.02-.1-.04-.17-.08-.24l-.92.21Z" fill="#323147"/><path d="M211.63 38.9c.05-.1.15-.11.24-.06 1.63.93 2.5-.92 4.83.39.2.1.03.4-.17.29-1.42-.82-2.26-.28-3.61-.08-.17.07-1.45-.13-1.3-.54ZM223.9 36.87c.01.08.05.14.07.24.11.48-.02.92-.28.98-.27.06-.57-.28-.68-.76-.02-.1-.04-.17-.03-.25l.92-.2Z" fill="#323147"/><path d="M225.93 35.78c.1.06.09.16.06.24-.48.72-1.06.93-1.8 1.02-.96.14-1.6.43-2.33 1.38-.13.18-.39-.04-.27-.2 1.54-2.14 3.07-.86 4.1-2.36a.2.2 0 0 1 .24-.08ZM216.68 36.14a7.47 7.47 0 0 0-5.14.8c-.22.13-.13.2-.06.17.02-.01.06-.05.09-.05 2.41-.87 3.56.72 5 .24.49-.18.73-.92.11-1.16Zm4.3.15c1.53-.07 2-1.92 4.57-1.97a.19.19 0 0 1 .11.03c.05.01.07-.12-.13-.13a7.5 7.5 0 0 0-5.09 1.05c-.46.4.03 1.03.54 1.02Z" fill="#323147"/><path d="M229.86 39.49c-11.17-.3-10.98-.35-20.79 4.95 0 0 2.68 7.38 5.16 8.5 5.18 2.3 10.34 2.56 13.76-1.5 3.56-4.22 1.87-11.95 1.87-11.95Z" fill="#464558"/><path d="M229.86 39.49c-5.23-.15-7.96-.24-10.39.25.55 4.36-5.57 9.16-7.12 2.92-.6.31-2.63 1.4-3.3 1.78 0 0 2.67 6.58 4.13 8.02 4.55 3.41 10.91 3.3 14.49-.62 3.65-3.96 2.19-12.35 2.19-12.35Z" fill="#323147"/><path d="M222.27 53.76c5.64-2.56-5.94 4.69-11.21-10.4-.75.4-1.6.87-2 1.05 0-.04 3.19 13.91 13.21 9.35Z" fill="#2B2B37"/><path d="M222.66 53.68c.9-1.83-.18-3.61-.9-5.27-.5-1.72 1.08-3.95-.62-5.3-1.99-.86-1.02 1.33-1.35 2.34-.72 2.3-1.48 4.21.47 6.13.66.69 1.4 1.36 1.77 2.24.25-.03.44-.08.63-.14Z" fill="#2B2B37"/><path d="M229.86 39.49a60.85 60.85 0 0 0-9.17.05c.23 1.35.44 3.07 2.11 3.28 1.3.5 1.53 2.2.79 2.94-.29.3-.84.54-.33 1.04.6.55 2.04.7 1.7 1.8 1.15 1.59-2.49 5.04-8.85 4.57 3.77 1.56 8.33 1.98 9.69 1.07 6.06-3.95 4.06-14.75 4.06-14.75Z" fill="#2B2B37"/><path d="M230.37 45.38c.26-1.78-.49-5.9-.49-5.9-.03-.17-3.68-.16-3.8-.1-.14.05-.93 1.6.52 4.1 1.48 2.64-.62 3.67-.7 5-.12 2.17-1.12 2.44-1.48 3.13-.17.34-.29.72-.55 1.01-1.55 1.8-5.06 1.4-7.86.58 2.12 2.56 5.82 5.58 7.24 5 1.72-.68 5.94-4.55 7.12-12.82Z" fill="#21212B"/><path d="M227.74 47.74a16.46 16.46 0 0 1-.7 3.3c-.34 1.02-2.33 4.53-2.44 4.73 0 0 4.49-.55 6.63-1.31.16-.62.74-4.12.73-4.17-2.06-3.52 1.9-21.29-9.06-26.65-6.12-2.99-10.02-1.7-13.85 2.88-8.27 9.82 3.42 24.48 3.07 28.54-.02.15 2.34 3.42 2.35 3.45 2.31.04 5.98.58 7.78.23.87-.2 1.18-.73.4-1.64a4.94 4.94 0 0 0-1.93-1.11c-3.59-.84-6.1-4.49-7.95-7.5-2.49-4.07-3.74-9.97-2.14-13a9.38 9.38 0 0 1 13.94-3.28c3.19 2.32 5.34 6.96 3.29 14.5-.05.33-.08.67-.12 1.03Z" fill="#464558"/><path opacity=".32" d="M231.45 53c.14-.62.28-1.26.38-1.92.04-.29.05-.6.08-.9-1.62-3.16.83-16.16-4.94-23.3.44 1.37.65 2.77.51 4.2-.1 1.13-.37 2.26-.72 3.3 1.86 2.62 2.66 6.65 1.12 12.32-.05.34-.07.7-.12 1.04a16.43 16.43 0 0 1-.7 3.3 12.55 12.55 0 0 1-1.35 2.81c-.26.41-.58.77-.79 1.22-.17.36-.3.78-.6 1.07l.08.34a60.12 60.12 0 0 0 6.72-2.02l.33-1.47Zm-8-22.74c-1.47-3.5-4.64-1.37-7.26-.7-3.66.95-4 .32-5.45 4.06-.74 1.54-1.88 2.8-2.28 4.5-.26.89-.98 6.35 2.74 13.54 1.08 2.07 3.8 3.79 2.7 6.32 0 0 9.82 2.33 8.9-.71 0 0-1.6-1.16-2.08-1.28-3.59-.84-7.33-3.83-9.17-6.84-2.49-4.07-2.5-10.64-.92-13.65a9.35 9.35 0 0 1 12.88-3.94c.1-.45.08-.88-.06-1.3Z" fill="#323147"/><path d="M231.72 52.95c.12-.83.29-1.66.33-2.48-1.22-1.8-.62-6.93-1.26-12.61.1 2.59.38 11.4-2.2 13.67-1.82 1.6-1.84 3.79-3.96 4.16-.33.53-1.41 1.81-1.8 2.33 2.63-.59 5.98-2.48 8.66-3.64l.23-1.43Z" fill="#323147"/><path d="M210.63 35.47a9.42 9.42 0 0 1 10.3-4.93c-.34-.12-.62-.49-.99-.43-1.64.26-2.04-.3-3.98-.22-.47.03-1.47.43-2.67 1.08-2.64 1.43-3.38 5.35-3.58 5.72-4 7.21 4.24 23.25 13.3 20.91-.05-.55-.8-.98-.99-1.12a4.37 4.37 0 0 0-1.4-.6c-3.57-.87-6.1-4.35-7.94-7.36-2.17-3.52-3.61-8.37-2.64-11.72.2-.35.47-1.07.59-1.33Z" fill="#323147"/><path d="M206.9 38.37c3.42-3.46 5.23-8.86 3.86-13.67-4.22 3.53-5.46 9.16-4.3 14.12.17-.17.32-.3.43-.46Z" fill="#575770"/><g opacity=".25"><path opacity=".53" d="M216.5 29.54c-.94-.42-.6-2.68-1-3.55a7.54 7.54 0 0 1-.84-3.13c-.03-.12.05-.22.18-.22.1-.02.2.08.22.2.04 1.08.34 2.06.8 3 .42 1.06.15 2.44.76 3.37.08.13.02.32-.13.33Z" fill="#2B2B37"/></g><path d="M224.35 31.9a7.88 7.88 0 0 0-1.45-.68c5.28 2.36 6.94 8.2 4.81 16.53a15 15 0 0 1-1.16 4.52c4.73-6.24 4.75-16.3-2.2-20.37Z" fill="#575770"/><path d="M231.44 43a9.19 9.19 0 0 1-.48-2.11h-.02c.2 2.34-.23 4.87-.18 7.21.14 1.98-.63 3.85-1.57 5.53.8.32 2.15-1.35 2.57-2 .75-.93.26-.9.2-1.92.58-2.52.61-4.24-.52-6.7Z" fill="#323147"/><path d="M210.96 49.34c-.98-2.67-1.99-5.34-3.1-7.92l-.65.14c.74 1.97 1.46 3.93 1.58 6.03.02.99.14 1.97.93 2.64 1.23 1.19 1.52 2.95 1.9 4.56.64 1.33 3.76 3.16 4.54 2.9-1.89-1.75-4.63-6.73-5.2-8.35Z" fill="#464558"/><path d="M210.2 50.22c-.03.5-.1 1 0 1.48.38 1.83 3.07 4.58 3.93 5.09.83.44 4.09.73 3.53-.21-2.07-1.4-7.46-6.49-7.46-6.36Z" fill="#464558"/><path d="M209.2 55.24c.19.67.56 1.24.96 1.78.4.6.79 1.22 1.36 1.64.54.44 1.23.7 1.9.89 1.6.5 3.27.79 4.92.91 1.51.1 3.04.03 4.53.25 1.14.17 2.27.5 3.44.37.79-.07 1.53-.35 2.25-.67a8.43 8.43 0 0 0 3.19-2.2c.81-1.01 1.26-2.47.81-3.73-.1-.3-.32-.64-.64-.62-.2 0-.35.17-.5.3-2.27 2.27-5.16 4.03-8.3 4.3-.8.07-1.59.05-2.35 0-.6-.02-1.2-.05-1.76-.17-.8-.2-1.53-.6-2.32-.84-.8-.25-1.66-.33-2.45-.62-1.51-.57-2.62-1.93-3.66-3.22-.42-.52-.13-1.17-.43-1.7-1.13.57-1.25 2.35-.96 3.33Z" fill="#75A152"/><path opacity=".37" d="M232.59 54.5c-.67-2.86-5.02 7.05-15.21 3.24.44.84.62 1.86.05 2.65 2.99.05 5.93.52 8.88.72 3.09-.5 7.32-2.95 6.28-6.6Z" fill="#568040"/><path d="M232.59 54.5c-.57-2.32-3.64 3.74-9.45 4.01-2.23.2-4.4-.05-6.43-1.01-3.12-.35-5.33-2.36-6.5-5.27l-.11 1.48c.24 2.02 2.02 5.96 8.59 5.79 2.42.22 4.82 1.16 7.27.7 1.14-.06 2.74-1.34 3.61-.3 1.98-.97 3.76-3.12 3.02-5.4Z" fill="#568040"/><path d="M211.74 56.01c.7 3.17 5.89 2.67 8.36 2.48-1.21 0-2.3-.6-3.41-1-2.23-.34-4.16-1.2-5.52-3.13.25.57.4 1.1.57 1.65Zm16.45 2.9c2.99-.65 4.23-2.03 3.95-4.97-.27-.13-7.22 4.97-11.2 4.6.4.27 2.13 1.48 7.25.37Z" fill="#3E5C2E"/><path d="M210.31 56.88c-.02.32.45.66.6.34.5-1.06-1.8-2.72-.97-1.14.1.2.37.5.37.8Z" fill="#AED888"/><path d="M219.03 57.03c1.12-.07 13.09 1.85 13.24-7.38 0-.46-.05-1.24.38-1.34 2.38 7.04-4.01 10.98-11.33 11.13-11.96.23-12.3-9.03-10.87-7.07.61.8 1.76 4.65 8.58 4.66Z" fill="#75A152"/><path d="M214 57.1c-.51-.18-2.1-1.96-2.18-1.2-.06.47.68.55 1.03.79.52.31.9.92 1.5 1.08.77.01-.08-.56-.35-.68Z" fill="#AED888"/><path opacity=".37" d="M232.66 50c-.44 0-.44-.47-.54-.02-1.9 7.84-11.13 7.12-14.22 6.68 4.35 1.16 4.67 2.54 4.75 2.76 5.68-.24 10.63-3.48 10.01-9.42Z" fill="#568040"/><path d="M212.99 56.11c1.56 1.15 4.4 1.89 6.24 2.05 4.2.33 10.23 1.37 11.68-3.5.1-.33 2.3-.77 1.88-5.12-.23-.7-.58-.51-.68-.05-2.2 9.39-14.1 7.04-15.22 6.86-2.75-.55-5.34-2.22-6.22-3.67.4 1.43.92 2.4 2.32 3.43Z" fill="#568040"/><path d="M227.89 56.38c2.05-2.35 3.46-2.44 3.9-3.19.5-.84.37-2.58.14-3.54-.65 4.3-5.11 7.5-11.98 7.04.24.02 6.63 1.18 7.94-.3Z" fill="#3E5C2E"/><path d="M221.54 58.26c-2.1-.13-2.12.17-2.37.47-.42.71-1.75.52-1.01-.33-2.08 1.24-1.21-.81.71-.61.62.1 1.24-.18 1.86-.2l.81.67Z" fill="#568040"/><path d="M209.83 89.56s.45-2.27.1-3.2l-.04-.09-.06-.09a.8.8 0 0 0-.07-.1l-.1-.1c-.02-.04-.05-.07-.1-.1a6.24 6.24 0 0 0-.4-.4l-.08-.07a3.82 3.82 0 0 0-.2-.16l-.1-.09-.23-.19-.19-.15c-1.14-.9-2.56-1.96-3.07-2.7a1.28 1.28 0 0 1-.17-.33c-.13-.38-.28-.7-.45-.93a.84.84 0 0 0-.39-.3.4.4 0 0 0-.1-.02.4.4 0 0 0-.28.1.57.57 0 0 0-.07.09c-.1.1-.18.26-.26.48a5.44 5.44 0 0 0-.17 2.75 4.18 4.18 0 0 0 .79 1.75c.29.36.67.67 1.14.91.27.13.54.27.8.42a27.22 27.22 0 0 1 3.7 2.52Z" fill="#D58500"/><path opacity=".36" d="M209.83 89.56s.45-2.27.1-3.2l-.04-.09a.8.8 0 0 0-.13-.18l-.1-.12-.1-.1a6.54 6.54 0 0 0-.4-.38 1.33 1.33 0 0 1-.07-.07l-.2-.17-.1-.08-.24-.2a7.92 7.92 0 0 0-.19-.14c-.47 0-1.1-.1-1.95-.37-3.32-1.07-2.2-3.73-2.13-3.9a.4.4 0 0 0-.1-.02.4.4 0 0 0-.28.1.56.56 0 0 0-.07.09c-.1.1-.18.26-.26.48a5.44 5.44 0 0 0-.17 2.75 4.18 4.18 0 0 0 .79 1.75c.3.36.67.67 1.15.91.26.14.53.27.79.42a27.22 27.22 0 0 1 2.77 1.8 22.19 22.19 0 0 1 .94.72Z" fill="#B45F00"/><path opacity=".37" d="M205.29 82.1a1.31 1.31 0 0 1-.17-.31 3.2 3.2 0 0 0-.45-.93c-.17.38.16 1.1.52 1.27a.3.3 0 0 0 .1-.02Z" fill="#E2A040"/><path d="M205.05 82.16c-.14-.11-.76-.73-.47-1.35-.34.52-.1 1.11.47 1.35Z" fill="#B45F00"/><path d="M209.43 91.93s.23-1.31.39-2.4c.06-.44.12-.85.14-1.1.05-.59-1.4-1.9-2.98-2.97a21.55 21.55 0 0 0-.97-.63c-.03 0-.04-.02-.04-.02a13.62 13.62 0 0 0-.9-.49 6.23 6.23 0 0 0-1.03-.42 1.39 1.39 0 0 0-.64.05 7.9 7.9 0 0 0-.99.34l-.34.15-.04.02-.24.11-.1.05-.42.21-.02.01a18.63 18.63 0 0 0-1.32.76l-.12.08c-.04.01-.07.04-.1.06a4.3 4.3 0 0 0-.18.12l-.1.06c-.29.19-.55.4-.8.58a4.32 4.32 0 0 0-.77.77l-.04.05-.02.04a2.87 2.87 0 0 0-.54 2.03c.03.3.1.6.22.91a5.74 5.74 0 0 0 .69 1.28l.08.1c.3.41.76 1 1.3 1.61h.01l.65.48.41.3.19.12.22.16.18.13c.08.05.17.1.24.17l.05.03.28.19.49.33.98.66.48.32a1 1 0 0 0 .3-.08c1.01-.45 2.91-2 4.17-3.08.73-.62 1.24-1.08 1.24-1.08v-.01Z" fill="#D58500"/><path d="M208.32 92.66a3.83 3.83 0 0 0 .03-1.96 7.73 7.73 0 0 0-2.2-3.67 10.8 10.8 0 0 0-2.17-1.63 7.99 7.99 0 0 0-1.6-.7 5.67 5.67 0 0 0-.7-.15 3.67 3.67 0 0 0-.63-.06 2.75 2.75 0 0 0-.9.13 5.5 5.5 0 0 0-.77.33l-.08.04-.13.07-.12.07-.2.12-.02.02c-.47.3-.94.68-1.33 1.12a5.2 5.2 0 0 0-.31.4 4.12 4.12 0 0 0-.44.78l-.08.2a2.33 2.33 0 0 0-.09.27 2.56 2.56 0 0 0-.06.28c-.02.07-.02.14-.03.22v.04a2.98 2.98 0 0 0 .02.8 2.86 2.86 0 0 0 .08.4c.13.46.36.93.71 1.42a7.32 7.32 0 0 0 .72.83c.21.22.55.5.96.82l.23.17.36.27.65.48.41.29.2.13c.06.06.14.1.22.16l.18.13c.08.05.16.1.24.17l.04.03.28.19.49.33.98.66.48.32.52.33.06.04.04.03.15.1.14-.01.19-.03.1-.02c.1-.02.21-.04.33-.09l.13-.04a4 4 0 0 0 .53-.26 2.14 2.14 0 0 0 .2-.12 3.69 3.69 0 0 0 .5-.4l.22-.22.1-.11c.12-.13.23-.28.35-.44l.08-.13.1-.16.09-.15.03-.05.08-.15a6.71 6.71 0 0 0 .44-1.04v-.02l.07-.18a.27.27 0 0 0 .01-.04l.1-.35.02-.01Z" fill="#D58500"/><path opacity=".36" d="M209.44 91.94s.23-1.31.39-2.39l.01.01s.45-2.27.1-3.2l-.04-.08a1.01 1.01 0 0 0-.13-.19l-.1-.11-.1-.1a6.21 6.21 0 0 0-.4-.39l-.08-.06v-.01a6.3 6.3 0 0 0-3.1-.6l.03.02c.1.06.42.22.81.5l.02.01v.01l.15.1c.85.65 1.92 1.8 1.9 3.38 0 .3-.04.62-.13.95-.09.34-.23.64-.43.92a4.2 4.2 0 0 1-1.49 1.28c-2.19 1.2-5.55 1.22-6.84.5a3.7 3.7 0 0 1-.36-.23c-.68-.46-1.45-1.19-2.17-1.94-.36-.38-.7-.76-1-1.1-.75-.86-1.3-1.54-1.35-1.6-.12-.14-3.13-.81-4.5-2.16l.11.27c.13.27 3.12 2.08 4.28 2.72a7.9 7.9 0 0 1 1.56 1.34c.13.46.36.93.71 1.42l.22.27a7 7 0 0 0 .5.55 10.76 10.76 0 0 0 1.55 1.27l.65.47.41.3.2.13.22.16.18.12.24.17a8.85 8.85 0 0 1 .32.22l.5.34c.34.24.68.46.97.65l.49.32.51.34 2.38-.81.22-.22.1-.11c.12-.13.23-.28.35-.44l.08-.13.1-.16.09-.15.03-.05a7.23 7.23 0 0 0 .52-1.19l.01-.02.06-.18.01-.04c.73-.62 1.24-1.08 1.24-1.08Z" fill="#B45F00"/><path opacity=".36" d="M208.32 92.65c.05-.17.09-.34.1-.52a34.51 34.51 0 0 0-1.56-.15 58.19 58.19 0 0 0-2.12-.13 13.22 13.22 0 0 1-3.89-.68 6.96 6.96 0 0 1-3.55-2.58 5.17 5.17 0 0 1-.56-1.02l-.08.2c-.06.18-.1.36-.14.55-.02.07-.03.14-.03.22a.05.05 0 0 0 0 .04c-.03.2-.03.41 0 .62a3.11 3.11 0 0 0 .1.58c.13.46.36.93.71 1.42l.21.27a7 7 0 0 0 .5.56 10.64 10.64 0 0 0 1.56 1.26l.65.48.41.29.19.13.23.16c.05.05.12.09.17.12l.25.17a7.94 7.94 0 0 1 .32.23l.49.33.98.66.48.32.52.33.05.04.05.03.15.1.14-.01.19-.03.1-.02.33-.09.13-.05a3.62 3.62 0 0 0 .72-.38l.15-.1c.12-.09.23-.18.35-.3.08-.06.15-.14.23-.22l.1-.1.34-.45.09-.12.1-.17.08-.14.03-.06a7.21 7.21 0 0 0 .53-1.18v-.02l.07-.19v-.03c.05-.12.08-.24.11-.36h.02Z" fill="#B45F00"/><path opacity=".37" d="M202.89 82.62a.71.71 0 0 1 .16 0c.37.33.76.65 1.13.95.12.38-.04.7-.4.74-.43.06-.97-.28-1.22-.75-.24-.46-.1-.89.33-.94Z" fill="#E2A040"/><path d="m195.26 78.8-.03-.18V78.33c.06-.44.37-.5.85-.34.2.06.44.17.7.3.54.26 1.18.64 1.82.97a37.2 37.2 0 0 1 2.52 1.43c.29.32.65.69 1.02 1.07.28.3.6.58.9.86h.01c.37.33.75.65 1.13.96.42.34.83.69 1.2 1.02.14.26-.83 1.06-1.8 1.36-.3.1-.62.14-.9.1a1.84 1.84 0 0 1-.85-.5c-.45-.43-.8-1.07-1.27-1.74a2.4 2.4 0 0 1-.11-.15l-.13-.17a6.82 6.82 0 0 0-1.13-1.22l-.18-.15-.03-.02-.8-.61c-1.19-.93-2.82-2.28-2.88-2.5a3 3 0 0 1-.04-.2Z" fill="#D58500"/><path opacity=".36" d="m202.82 86.22-.14-.17c-2.43-2.94-1.25-4.1-.54-4.28l-1.02-1.07c-.08-.09-.57-.38-1.28-.77a.43.43 0 0 1-.06.24c-.29.49-1.61.25-2.95-.53-.7-.4-1.26-.88-1.6-1.31v.14c0 .1 0 .2.03.33 0 .06.02.12.04.2.08.28 2.69 2.38 3.7 3.13l.19.15c.53.46.93.93 1.26 1.4l.11.15c.47.65.83 1.26 1.27 1.73a2.62 2.62 0 0 0 1 .66h-.01Z" fill="#B45F00"/><path d="M201.5 87.35c1.42.54 2.65-.5 2.44-.89-.48-.93-3-3.08-4.85-4.37-.7-.5-1.31-.85-1.66-.97l-.07-.02a13.19 13.19 0 0 0-1.25-.23c-1.1-.17-2.58-.35-3.77-.49-.8-.1-1.2.19-1.33.54 0 .02 0 .04-.02.07a.84.84 0 0 0 .04.51l.08.14a.87.87 0 0 0 .2.23.8.8 0 0 0 .29.15c.29.07 3.18.78 4.35 1.25 1.18.46 4.78 3.62 4.78 3.62.26.22.52.36.77.45Z" fill="#D58500"/><path opacity=".36" d="M200.72 86.9c.27.2.22.45.18.42-5.07-4.4-2.44-5.11-1.81-5.23-.7-.5-1.32-.86-1.66-.98l-.07-.01a13.52 13.52 0 0 0-1.25-.24.44.44 0 0 1 .02.23c-.1.56-1.39.82-2.8.58-1.42-.24-2.05-.49-2.32-.75 0 .02 0 .04-.02.06a.84.84 0 0 0 .04.52l.08.14.04.07a.72.72 0 0 0 .16.17.77.77 0 0 0 .29.14c.29.08 3.18.79 4.35 1.25 1.18.46 4.78 3.63 4.78 3.63Z" fill="#B45F00"/><path d="M199.63 88.92c1.43.45 2.61-1.5 2.13-1.58-.55-.1-3.34-3.25-4.28-3.46a4.82 4.82 0 0 1-.72-.26l-.22-.1a8.42 8.42 0 0 1-.21-.1l-.34-.15a6.83 6.83 0 0 1-.33-.15 2.27 2.27 0 0 1-.18-.08l-.18-.09a13.2 13.2 0 0 1-.38-.16 26.16 26.16 0 0 0-.68-.3l-.33-.14a5.3 5.3 0 0 0-.86-.34l-.22-.08a9.73 9.73 0 0 0-.42-.13 6.16 6.16 0 0 0-.39-.1 3.65 3.65 0 0 0-.45-.08c-1-.1-.9.57-.72 1 .04.13.1.24.13.3.44.9 3.31 2.04 4.54 2.66.82.42 2.06 1.57 2.8 2.3l.59.59c.25.23.49.37.73.45h-.01Z" fill="#D58500"/><path opacity=".36" d="M198.32 87.87a1.88 1.88 0 0 0-.19-.43c-.94-1.63-2.1-2.8-1.7-3.51a.76.76 0 0 1 .34-.31l-.22-.1-.21-.1c-.42-.18-.9-.41-1.4-.64a.66.66 0 0 1 0 .5c-.26.6-1.57.6-2.93.01a5.32 5.32 0 0 1-1.16-.68l.13.3c.45.9 3.32 2.05 4.54 2.67.82.42 2.06 1.57 2.8 2.29Z" fill="#B45F00"/><path d="M200.83 91.22c.27-.47.35-.9.15-.95-.24-.04-.93-.75-1.68-1.52a31.96 31.96 0 0 0-1.01-1 16.7 16.7 0 0 0-.45-.42 4.98 4.98 0 0 0-.46-.36h-.01a1.62 1.62 0 0 0-.22-.14.63.63 0 0 0-.18-.07 5.86 5.86 0 0 1-.81-.3 44.2 44.2 0 0 1-.73-.33l-.31-.14-.17-.07a8.5 8.5 0 0 1-.33-.15 3.74 3.74 0 0 0-.25-.11l-.18-.08-.27-.12-.27-.12c-.44-.18-.88-.34-1.3-.48l-.16-.05-.4-.11c-.94-.24-1.21-.02-1.24.29a.3.3 0 0 0 0 .1.34.34 0 0 0 0 .1l.08.27c.04.11.1.2.12.27.12.28 3.12 2.08 4.28 2.72.43.23 1 .77 1.56 1.34a30.17 30.17 0 0 1 1.58 1.78v.02l.2.24a1.57 1.57 0 0 0 .81.47h.24a.43.43 0 0 0 .07 0 .9.9 0 0 0 .15-.03h.02c.33-.1.62-.34.86-.62l.06-.1.17-.22.07-.11Z" fill="#D58500"/><path opacity=".36" d="M200.82 91.21a7.44 7.44 0 0 1-2.36-.95 8.24 8.24 0 0 1-1.2-.86 6.47 6.47 0 0 1-.78-.82c-.58-.73-.8-1.44-.53-1.9a.88.88 0 0 1 .2-.23l-.72-.32c-.1-.05-.2-.1-.32-.14a5.83 5.83 0 0 1-.16-.08 9.85 9.85 0 0 1-.34-.15 4.27 4.27 0 0 0-.25-.1c-.12.16-.38.32-.82.46-2.03.65-3-1.14-3-1.14a.3.3 0 0 0 0 .1 1.3 1.3 0 0 0 .09.37c.04.12.1.21.11.27.13.28 3.12 2.09 4.28 2.72.43.24 1.01.77 1.56 1.35a30.14 30.14 0 0 1 1.8 2.04c.22.23.44.37.67.43a.96.96 0 0 0 .15.03l.11.02h.11a.46.46 0 0 0 .06-.01.9.9 0 0 0 .13-.03h.04c.34-.1.63-.34.87-.62l.06-.09.17-.23.06-.11h.01Zm-2.31-9.51 2.57 1.75c.25.16 1.34.83 1.46.95.12.1-.27.46-.48.1-.22-.36-3.55-2.8-3.55-2.8Zm8.31 3.63s1.74 1.11 2.02 1.2c.28.07-.08.27-.41-.03-.34-.3-1.61-1.17-1.61-1.17Zm-11.16-2.3c1.56.1 4.22 2.46 4.71 2.9.5.46.86.25.64.6-.23.35-2.18-1.65-2.95-2.19-.7-.48-2.4-1.3-2.4-1.3Zm3.51 5.34c.24.07.11.5-.06.22a24.17 24.17 0 0 0-1.97-1.76c.57.14 1.8 1.47 2.03 1.54Z" fill="#B45F00"/><path opacity=".37" d="M192.08 80.42a.49.49 0 0 0-.2.02c-.3.1-.17.41.02.5.68.35 1.04-.43.18-.52Zm4.7-2.14a5.2 5.2 0 0 0-.7-.3c-.18.1-.12.36 0 .47.42.38.83.12.7-.17Zm-5.12 3.87c.71.32 1.13-.08.75-.35a6.57 6.57 0 0 0-.39-.1 3.65 3.65 0 0 0-.44-.08c-.36.1-.18.42.08.53Zm-.04 2.69a.46.46 0 0 0-.2.03c-.28.12-.14.42.06.5.7.3 1-.5.14-.53Z" fill="#E2A040"/><path d="M190.96 84.87c-.1.49.62 1 1.08.68-.55.58-1.52-.24-1.08-.68Zm.32-3.17c-.12.58.89 1.14 1.52.75-.76.7-2.13-.22-1.52-.75Zm.32-1.14c-.1.49.88.9 1.5.55-.73.61-2.08-.08-1.5-.55Zm4.16-2.45c0 .57.92 1 1.37.54-.5.77-1.77.04-1.37-.54Z" fill="#B45F00"/><path opacity=".37" d="M201.93 85.77c.2-.23.08-.67-.27-.98-.35-.31-.8-.38-1-.16-.2.23-.09.67.26.98.35.32.8.39 1 .16Zm-1.42 2c.22-.3.01-.8-.46-1.13-.46-.33-1.01-.34-1.22-.04-.22.3-.01.81.46 1.14.46.32 1.01.34 1.22.04Zm-1.86 1.77c.14-.21 0-.57-.32-.8-.33-.22-.7-.23-.86-.02-.14.2 0 .56.32.79.33.23.71.24.86.03Z" fill="#E2A040"/><path d="M214.02 88.58a56.4 56.4 0 0 1-4.58-3.75c-.8-.22-6.62-.14-8.53.3.65 2.4 4.6 14 6.55 14.42a159 159 0 0 1 6.56 3.14V88.57Z" fill="#575771"/><path opacity=".25" d="M214.02 93.56c-7.42 2.67-11.25-7.45-11.48-8.64a40.5 40.5 0 0 0-1.63.22s3.98 13.3 6.55 14.41c1.83.8 4.82 2.25 6.56 3.15v-9.14Z" fill="#2B2B37"/><path opacity=".14" d="M214.02 88.58a56.39 56.39 0 0 1-4.58-3.75s-1.58-.19-3.97-.12c.01.35 4.76 7.01 8.55 4.19v-.33Z" fill="#A4A4A4"/><path opacity=".25" d="M214.02 99.06c-6.33 1.12-11.28-7.86-11.55-9.2 3.68 10.21 3.5 8.92 11.55 12.84v-3.64Z" fill="#2B2B37"/><path d="M260.93 100.32c-4.57 8.7-16.26 5.66-24.32 4.95-5.35-.83-12.14-.65-16.26-4.73-1.8-2.03-4.05-4.33-3.87-6.99 10.63-3.26 19.87-4.3 32.38-6.14 2.78-.71 9.27-.8 10.1 1.2 1.7 4.38 2.8 8.1 1.97 11.71Z" fill="#464558"/><path opacity=".29" d="M260.93 100.32c-5.17 9.46-18.09 5.17-26.82 4.7-.26-.22-8.4-1.15-11.84-2.89-2.5-1.9-5.93-5.42-5.8-8.55.52-.09 9.53.58 20.75.12 4.92-.2 10.8 4.09 15.68.07 2.05-1.45 2.18-6.78-3.88-6.4 2.87-.6 9.33-.84 10 1.47 1.55 4.07 2.75 7.5 1.9 11.48Z" fill="#2B2B37"/><path opacity=".29" d="M254.93 105.45c-5.48 1.9-12.76.3-18.32-.18-5.35-.83-12.14-.65-16.26-4.73-1.8-2.03-4.04-4.31-3.88-6.97l8.84-2.33c-1.11 5.13 7.16 10.74 17.42 10.05 10.09-.67 12.14 4 12.2 4.16Z" fill="#2B2B37"/><path opacity=".29" d="M224.7 103.22s3.57-4.46 8.55-6.84c.95-.45 5.46-.78 8.42-1.99 6.32-2.58 7.35-7.03 7.35-7.03l-32.55 6.21s-1.42 5.46 8.23 9.65Z" fill="#2B2B37"/><path d="M233.74 82.53s2-2.76 4.08-3.13c2.08-.37 3.13-.44 3.89-.9.76-.47 2.38-1.39 2.38-1.39s1.12.75.34 2.4c-.53 1.14-6.7 3.85-6.7 3.85l-4-.83Z" fill="#D58500"/><path opacity=".36" d="M244.43 79.5c-.54 1.15-6.7 3.86-6.7 3.86l-4-.83s.92-1.25 2.15-2.19c0 0 .03.83 2.06.75.7-.02 2.75-1.6 3.84-1.62 3.4-.04 2.34-2.29 2.31-2.35.04.02 1.1.77.34 2.39Z" fill="#B45F00"/><path opacity=".37" d="M241.06 78.78c-.62 2.13-4.95 1.47-5.03 1.46.55-.4 1.17-.73 1.79-.84 1.54-.28 2.52-.39 3.24-.62Z" fill="#E2A040"/><path d="M242.26 78.4s1.51.44 1.79-.7c0 0-.5.62-1.79.7Z" fill="#B45F00"/><path d="M243.43 79.7c1.38.08 2.69 1.07 2.42 2.23 0 0 2.02.67 1.63 2.34 0 0 1.2 1.7.04 3.06 0 0 .56 1.77-.71 2.55-1.36.83-7.61 3.4-7.61 3.4l-4.35-9.64s5.9-4.12 8.58-3.95Z" fill="#D58500"/><path opacity=".37" d="M245.16 81.53c.22-.33-.04-.89-.57-1.25-.54-.36-1.16-.38-1.38-.05-.22.33.04.9.57 1.25.54.36 1.16.38 1.38.05Zm1.65 2.53c.25-.22.09-.78-.35-1.26-.43-.48-.98-.69-1.22-.47-.25.22-.09.79.34 1.27.44.48.99.68 1.23.46Zm.72 2.47c.24-.22.21-.65-.07-.96-.28-.3-.7-.38-.94-.15-.25.22-.22.65.06.95.28.31.7.38.95.16Z" fill="#E2A040"/><path opacity=".36" d="M245.88 81.71s-.59.31-1.4.4c-.82.1-.25.74.01.47a5.71 5.71 0 0 1 1.36-.65l.03-.22Zm1.64 2.3s-.44.37-1.23.52c-.5.1-.09.87.32.35.4-.53.87-.6.87-.6l.04-.28Zm.2 3.03s-.96.35-1.17.51c-.27.2-.25.29.07.2.48-.13.9-.42.9-.42l.2-.29Z" fill="#B45F00"/><path opacity=".36" d="M247.64 88.03s-3.94 3.74-7.92 1.2c-3.97-2.53-4.42-4.59-4.42-4.59l3.9 8.64 6.17-2.67s2.6-.72 2.27-2.58Z" fill="#B45F00"/><path opacity=".36" d="m240.25 82.18 3.37-.43s1.5 7.2-.53 9.84l-3.9 1.69 1.06-11.1Z" fill="#B45F00"/><path d="M220.62 92.31c2.39 4.15-.04 9.15-2.66 10.54-1.1.59-4.25-1.02-6.65-5.17-2.39-4.15-1.74-10.8 1.2-11.16 2.17-.27 5.71 1.65 8.1 5.8Z" fill="#575771"/><path d="M220.98 92.31c2.4 4.15-.3 8.95-2.93 10.34-1.1.59-3.97-.82-6.37-4.97-2.4-4.14-1.92-10.82 1.04-11.02 2.5-.16 5.87 1.5 8.26 5.65Z" fill="#2B2B37"/><path d="M218.4 86.95s-3.98.94-12.52.37-19.15 1.36-20.79 2.99c-1.64 1.62-3.6 16.39 1.96 15.6 5.57-.8 6.3-.6 8.48.03 2.17.63 14.98 1.37 26.11-6.18 11.13-7.56-3.24-12.81-3.24-12.81Z" fill="#464558"/><path opacity=".29" d="M221.64 99.76c-11.13 7.55-23.93 6.8-26.1 6.18-2.18-.63-2.92-.82-8.49-.03-5.56.79-3.6-13.98-1.96-15.6.95-.94 4.85-1.97 9.63-2.57l.19.02s-4.8 3.69-1 7.82c3.8 4.13 8.1-3 11.56-3.02 3.42-.02 3.84-4.99 3.85-5.08 6.17.16 9.08-.53 9.08-.53s14.37 5.25 3.24 12.8Z" fill="#2B2B37"/><path opacity=".29" d="M221.64 99.76c-11.13 7.55-23.93 6.8-26.1 6.18-1.9-.55-2.7-.77-6.54-.3.05-.08 2.58-4.78 11.35-2.64 8.81 2.16 19.86-7.97 15.27-15.67a6.45 6.45 0 0 0-.07-.11l1.62-.06 1.6-.06c2.19.9 12.91 5.83 2.87 12.66Z" fill="#2B2B37"/><path opacity=".29" d="M212.6 87.49s5.7 4.01 3.12 15.51l4.78-2.36s1.93-11.35-6.06-13.23l-1.84.08Z" fill="#2B2B37"/><path d="M212.51 86.52s10.75 5.41 5.45 16.33c0 0 12.2-7.85 14.75-7.71 2.57.14 8.87-.72 10.27-4.82 1-2.93.96-9.22.96-9.22s-3.8-.5-9.09.89c-4.08 1.08-3.15 2.95-7.83 3.21-4.69.27-14.5 1.32-14.5 1.32Z" fill="#575771"/><path opacity=".25" d="M243.47 88.18c-.13.8-.29 1.54-.5 2.14-1.39 4.1-7.7 4.96-10.25 4.82-2.57-.14-14.76 7.71-14.76 7.71 2.25-4.63 1.61-8.26.13-10.92 0 0 8.42-.47 6.69-6.57.82-.06 1.58-.12 2.24-.15 2.65-.15 3.42-.83 5.36-2.2 0 0 4.18 7.24 11.04 5.19l.05-.02Z" fill="#2B2B37"/><path opacity=".25" d="M242.98 90.32c-1.4 4.1-7.7 4.96-10.26 4.82-2.57-.14-14.76 7.71-14.76 7.71 1-2.04 1.42-3.9 1.47-5.56 0 0 11.44-1.26 11.28-6.43-.15-5.17 1.72-2.7 3.44-.72 1.72 1.97 6.32 3.5 8.83.18Z" fill="#2B2B37"/><path opacity=".14" d="M243.72 86.1c-7.16-.26-8.87-4.11-8.87-4.11 5.29-1.4 9.09-.9 9.09-.9s.01 2.46-.22 5.01Z" fill="#A4A4A4"/><path opacity=".25" d="M236.9 94.72h-.02l-1.8.31c-.92.12-1.75.14-2.37.1a7 7 0 0 0-2.55.77s2.71-4.02 1.45-6.3c-1.27-2.29-4.6-4.4-4.6-4.4 1.73-.1 2.7-.41 3.43-.83 0 0 3.44.84 3.73 3 .3 2.14-1.56 3.81-.43 5.08 1.11 1.24 3.1 2.24 3.15 2.26Z" fill="#2B2B37"/><path d="M218.16 88.63c-.03-.09-.01-.17.03-.2.01-.02.05-.03.07-.03 7.77-1.26 14.3 2.95 14.35 3 .1.06.14.17.11.27-.04.08-.15.1-.25.04-.06-.04-6.44-4.15-14.06-2.92-.1.01-.2-.05-.24-.16Z" fill="#323147"/><path d="M220.4 98.25c-.1-.01-.16-.07-.17-.13a.19.19 0 0 1 .01-.09c3.23-7.81 10.65-11.33 10.73-11.35.1-.05.24-.03.3.06.05.08 0 .19-.1.25-.07.04-7.33 3.47-10.5 11.14a.26.26 0 0 1-.27.13Z" fill="#323147"/></svg>