<svg width="312" height="283" fill="none" xmlns="http://www.w3.org/2000/svg">
  <path opacity=".2" d="M131.202 250.494c64.25 0 116.335-8.451 116.335-18.876 0-10.424-52.085-18.875-116.335-18.875s-116.335 8.451-116.335 18.875c0 10.425 52.085 18.876 116.335 18.876Z" fill="#E9224D"/>
  <path d="M131.202 245.641c41.32 0 74.817-5.527 74.817-12.345 0-6.817-33.497-12.344-74.817-12.344-41.32 0-74.816 5.527-74.816 12.344 0 6.818 33.496 12.345 74.816 12.345Z" fill="#C41B4C" style="mix-blend-mode:multiply" opacity=".2"/>
  <path d="M131.295 237.692c26.115 0 47.286-2.344 47.286-5.236s-21.171-5.236-47.286-5.236c-26.115 0-47.285 2.344-47.285 5.236s21.17 5.236 47.285 5.236Z" fill="#880F4B" style="mix-blend-mode:multiply" opacity=".6"/>
  <path d="M88.254 223.186c-34.437 2.066-61.23-10.211-55.44-28.013 1.917-5.893-9.661-11.194-14.74-20.378-4.773-8.631.7-23.789.7-23.789s8.178 19.594 13.27 12.868c8.018-10.592-5.471-10.339-4.672-15.15 1.678-10.1-5.07-5.708-7.694-11.836-2.624-6.129 4.593-7.782 1.03-12.354 0 0 14.434 7.296 12.466-1.265-1.969-8.56-16.975-14.308-12.394-27.714 4.582-13.408-7.166-21.09-7.166-21.09s18.327 1.22 18.327 10.608c0 9.389 8.223 10.486 8.81 7.804.588-2.682 4.612-14.762-6.076-20.216-10.687-5.454 4.427-9.284 3.484-13.525-.942-4.24-5.5-9.948-11.942-10.437 0 0 29.54-6.523 32.683 10.437 3.142 16.961 15.527 1.709 13.385-5.63-2.142-7.34 1.279-13.226 7.042-18.017 9.187-7.638-3.931-12.884-3.931-12.884s20.06-2.34 20.952 15.22c.892 17.56 23.832 9.244 23.675 2.557-.157-6.687-.612-11.062 10.545-13.345 11.156-2.284 13.179-8.48 13.179-8.48s14.91 27.715 22.594 16.514c7.906-11.523 19.647-8.116 19.647-8.116s-10.576 12.762 0 13.578c10.575.815 5.191 14.517 3.867 21.209-1.323 6.692 14.925 18.202 19.764 1.223 4.839-16.978 17.972-17.221 17.972-17.221s-7.834 11.96 0 17.939c7.833 5.978 21.039 4.029 23.662 9.585 1.221 2.588-36.541 6.015-34.467 19.136 2.073 13.122 23.225-3.813 27.141 4.955 3.917 8.767-10.778 12.478-10.778 12.478s-.029 22.239 9.418 25.826c9.447 3.588 10.372 30.182.004 25.198-10.368-4.984-8.571 10.185 6.174 11.38 14.746 1.196-2.721 13.915-8.021 18.56-5.299 4.646-27.612 5.955-19.777 13.885 7.833 7.93-10.631 14.057-19.428 16.968-38.712 8.428-113.265 1.532-113.265 1.532Z" fill="#6ABCEF"/>
  <path d="M89.796 208.788c-28.867 1.72-51.327-8.504-46.472-23.33 1.606-4.908-8.1-9.322-12.357-16.971-4.001-7.187.588-19.812.588-19.812s6.855 16.319 11.123 10.717c6.72-8.821-4.587-8.61-3.916-12.617 1.406-8.411 6.807-9.146 1.514-14.818-5.292-5.672-12.084-16.003-7.04-29.462 3.84-11.166-6.007-17.563-6.007-17.563s15.362 1.016 15.362 8.834c0 7.819 6.893 8.733 7.385 6.499.493-2.234-1.674-11.098-4.594-16.52-2.92-5.42 3.212-8.048 2.422-11.579-.79-3.531-4.61-8.285-10.01-8.692 0 0 18.933-6.386 25.173 5.525 6.24 11.911 13.141 1.575 11.346-4.538-1.796-6.112 3.169-7.999 8-11.989 7.7-6.361-3.295-10.73-3.295-10.73s16.816-1.949 17.563 12.676c.747 14.624 19.977 7.698 19.846 2.13-.132-5.57-.513-9.214 8.839-11.115 9.351-1.901 11.047-7.063 11.047-7.063s12.499 23.082 18.94 13.754c6.627-9.597 20.602-5.813 20.602-5.813s-12.998 9.682-4.133 10.362c8.865.679 4.351 12.09 3.242 17.663s12.511 15.158 16.567 1.019c4.056-14.14 23.949-14.513 23.949-14.513s-15.451 10.132-8.885 15.11c6.567 4.98 17.637 3.355 19.836 7.983 1.023 2.155-30.631 5.009-28.893 15.937 1.738 10.928 11.568 11.465 14.852 18.766 3.283 7.302 11.974-4.05 11.974-4.05s-13.133 18.322-5.214 21.31c7.918 2.988 8.694 25.136.003 20.985s-7.185 8.482 5.175 9.477c12.361.996-2.281 11.588-6.723 15.458-4.442 3.869-23.146 4.959-16.579 11.563 6.567 6.604-8.911 11.706-16.285 14.13-35.613 11.704-94.945 1.277-94.945 1.277Z" fill="#1884BA"/>
  <path d="M98.589 207.504c-10.872 20.384-61.135 7.419-59.81-14.518.965-15.972-11.55-13.952-11.55-13.952s8.964-4.593 14.135-1.592c9.573 5.557-.086-23.46-4.327-30.123-9.16-14.393 8.233-18.303 8.233-18.303s70.677 45.942 53.319 78.488ZM164.287 207.504c8.321 15.601 64.311 8.805 51.091-7.223-4.353-9.335 17.771-11.037 17.771-11.037s-8.509-4.382-5.673-9.486c2.837-5.105 15.768 0 15.768 0s-4.598-14.636-14.757-11.678c-10.629 3.094-6.888-14.098-2.648-20.76 9.161-14.393-8.232-18.304-8.232-18.304s-70.679 45.942-53.32 78.488Z" fill="#1884BA"/>
  <path d="M122.28 42.004c-12.724 13.12-12.795-3.609-31.21.757 0 0 7.508 16.645-1.989 14.14-9.128-2.409-13.106 5.684-11.41 11.66 2.382 8.4-9.753 11.234-12.317 7.377-9.05-13.614-22.704-9.207-22.704-9.207 28.068 19.229-5.839 17.451 5.333 30.529 4.268 3.764 4.694 10.185.214 9.742-4.48-.443-8.36-.428-10.28 11.722-1.446 9.149 6.449 17.635 10.787 21.579 4.953.41 73.576-5.224 73.576-5.224s-.695-71.212 0-93.075ZM233.811 144.76c-4.263.354-85.411-24.065-85.411-24.065s-7.713-76.604 1.784-79.11c9.13-2.408 12.845 1.14 11.15 7.117-2.382 8.4 6.07 4.517 8.634.66 9.05-13.614 22.814-9.61 22.814-9.61-15.502 10.62.951 22.9 5.023 21.866 2.486-2.396-6.692 17.43 1.48 15.274 7.857-2.073 11.055.98 9.597 6.124-2.051 7.23 8.393 9.669 10.599 6.35 7.788-11.718 19.54-7.925 19.54-7.925-24.157 16.55 5.026 15.019-4.589 26.274-3.673 3.239-4.04 8.767-.185 8.385 3.857-.381 7.196-.369 8.848 10.088 1.244 7.875-5.55 15.179-9.284 18.572Z" fill="#EC8C2E"/>
  <path d="M213.317 129.119c-3.067.254-61.432-17.327-61.432-17.327s-12.336-54.137-12.903-59.809c-.567-5.672 7.374-8.508 11.912 0 4.539 8.508 8.614 18.033 16.504 8.45 7.889-9.584 16.398-6.181 16.398-6.181-11.15 7.647 3.623 10.21 3.623 15.004 0 3.294-3.261 9.803 2.617 8.25 5.652-1.492 6.399 3.453 5.35 7.157-1.474 5.205 6.037 6.961 7.624 4.572 5.601-8.437 14.054-5.706 14.054-5.706-17.375 11.916 3.614 10.813-3.301 18.917-2.642 2.333-2.906 6.312-.133 6.037 2.774-.274 5.176-.265 6.364 7.264.895 5.67-3.992 10.928-6.677 13.372ZM55.57 134.791c3.067.254 61.432-17.327 61.432-17.327s8.388-69.349 1.558-71.153c-6.567-1.734-5.673 4.538-6.807 9.075-1.135 4.538-9.644 12.479-14.182 6.807-4.538-5.672-12.49-3.008-12.49-3.008 11.15 7.647 1.93 6.153-1.125 13.784-3.055 7.631 4.176 12.896-1.702 11.344-5.651-1.493-7.856 1.401-6.807 5.105 1.475 5.205-3.543-.046-5.13-2.435-5.601-8.437-14.054-5.706-14.054-5.706 17.375 11.916-3.614 10.814 3.3 18.918 2.643 2.332-1.533 14.235-4.306 13.96-2.774-.274-5.175-.265-6.364 7.264-.895 5.67 3.992 10.928 6.678 13.372Z" fill="#CE6300"/>
  <path d="M131.395 72.201c11.497 0 20.816-9.318 20.816-20.812 0-11.495-9.319-20.813-20.816-20.813-11.496 0-20.815 9.318-20.815 20.813 0 11.494 9.319 20.812 20.815 20.812Z" fill="#E9224D"/>
  <path opacity=".38" d="M152.211 51.389c0 11.494-9.319 20.812-20.815 20.812-1.115 0-2.208-.087-3.275-.256 8.085-2.858 13.876-10.566 13.876-19.628 0-10.381-7.6-18.987-17.542-20.557a20.795 20.795 0 0 1 6.941-1.184c11.496 0 20.815 9.318 20.815 20.813Z" fill="#880F4B"/>
  <path opacity=".59" d="M150.448 51.088c.977-.34.854-3.245-.274-6.491-1.128-3.246-2.835-5.602-3.811-5.262-.977.339-.854 3.245.274 6.491 1.129 3.246 2.835 5.602 3.811 5.262ZM115.555 45.65c1.081-3.108 1.193-5.893.251-6.22-.943-.328-2.582 1.926-3.663 5.035-1.08 3.108-1.192 5.893-.25 6.22.942.328 2.582-1.927 3.662-5.035Z" fill="#880F4B"/>
  <path opacity=".77" d="M132.625 50.244c2.951-2.444 3.042-7.203.203-10.628-2.838-3.425-7.531-4.22-10.482-1.775-2.95 2.444-3.041 7.202-.203 10.627 2.839 3.425 7.531 4.22 10.482 1.776Z" fill="#F44D80"/>
  <path d="M131.395 235.708c48.047 0 86.996-38.944 86.996-86.984 0-48.039-38.949-86.983-86.996-86.983-48.046 0-86.996 38.944-86.996 86.983 0 48.04 38.95 86.984 86.996 86.984Z" fill="#E9224D"/>
  <path opacity=".38" d="M218.391 148.724c0 48.04-38.949 86.984-86.996 86.984-2.494 0-4.963-.105-7.404-.311h.005c20.128-1.325 14.969-12.798 14.969-12.798l30.233-137.742c7.969-9.518-8.374-17.98-8.58-18.086 33.671 12.003 57.773 44.164 57.773 81.953Z" fill="#880F4B"/>
  <path opacity=".77" d="M87.583 76.44c5.028-3.698 13.687-9.066 19.528-6.8 5.84 2.267-1.395 4.826-11.023 8.63-9.48 3.747-28.557 21.617-30.998 29.812-2.441 8.195-11.435 9.383-8.631 1.917 5.929-15.777 15.362-21.966 31.124-33.56Z" fill="#F44D80"/>
  <path d="M131.395 222.982c-40.9 0-74.056-33.246-74.056-74.259 0-41.011 33.156-74.257 74.056-74.257 40.899 0 74.056 33.246 74.056 74.257-.002 41.013-33.157 74.257-74.056 74.259Z" fill="#880F4B"/>
  <path d="M130.544 215.749c-36.434 0-65.97-29.817-65.97-66.599 0-36.781 29.536-66.598 65.97-66.598 36.433 0 65.968 29.817 65.968 66.598-.001 36.781-29.536 66.597-65.968 66.599Z" fill="#fff"/>
  <path d="M130.569 215.839c-36.447 0-65.994-29.838-65.994-66.644 0-36.806 29.547-66.643 65.994-66.643 36.448 0 65.994 29.837 65.994 66.643-.001 36.805-29.548 66.642-65.994 66.644Z" fill="#EB9300"/>
  <path fillRule="evenodd" clipRule="evenodd" d="M105.213 210.741c-23.863-10.037-40.638-33.813-40.638-61.546 0-36.806 29.547-66.643 65.994-66.643 22.611 0 42.565 11.482 54.458 28.986-.068 48.59-34.21 89.194-79.814 99.203Z" fill="#F4AB19"/>
  <path fillRule="evenodd" clipRule="evenodd" d="M83.805 170.601c32.424 0 58.708-26.28 58.708-58.699 0-10.639-2.83-20.615-7.778-29.22a66.673 66.673 0 0 0-4.167-.13c-36.447 0-65.994 29.837-65.994 66.643 0 6.623.956 13.019 2.737 19.057a58.734 58.734 0 0 0 16.494 2.349Z" fill="#F5C116"/>
  <path opacity=".5" d="M131.607 98.562v50.978c-2.786-4.38-12.586-18.803-29.498-41.449 11.013-9.3 24.254-9.866 29.498-9.53Z" fill="#E9224D"/>
  <path d="M135.58 92.71a4.256 4.256 0 1 0-8.359-1.607 4.256 4.256 0 0 0 8.359 1.607ZM186.511 152.769a4.47 4.47 0 1 0 0-8.938 4.47 4.47 0 0 0 0 8.938ZM74.789 152.769c2.35 0 4.255-2.001 4.255-4.469 0-2.468-1.905-4.468-4.255-4.468-2.35 0-4.256 2-4.256 4.468s1.906 4.469 4.256 4.469ZM133.032 208.619a4.255 4.255 0 1 0-3.257-7.862 4.255 4.255 0 1 0 3.257 7.862Z" fill="#880F4B"/>
  <g opacity=".499" fill="#880F4B">
    <path d="M150.667 96.618a2.177 2.177 0 0 0-.788-2.976 2.178 2.178 0 0 0-2.972.805 2.177 2.177 0 0 0 .789 2.976c1.038.6 2.369.239 2.971-.805ZM165.213 105.143a2.178 2.178 0 1 0-2.972-3.184 2.178 2.178 0 0 0 2.972 3.184ZM176.826 116.896a2.178 2.178 0 0 0 .992-2.915 2.177 2.177 0 0 0-2.908-1.012 2.176 2.176 0 0 0-.992 2.914 2.177 2.177 0 0 0 2.908 1.013ZM183.72 131.612c1.184-.166 2.008-1.272 1.839-2.469-.168-1.197-1.265-2.033-2.449-1.867a2.179 2.179 0 0 0-1.84 2.47c.169 1.197 1.265 2.033 2.45 1.866Z"/>
  </g>
  <g opacity=".499" fill="#880F4B">
    <path d="M149.175 202.173a2.187 2.187 0 0 0 .793-2.989 2.186 2.186 0 0 0-2.985-.808 2.187 2.187 0 0 0-.793 2.989 2.187 2.187 0 0 0 2.985.808ZM164.693 194.468a2.186 2.186 0 1 0-3.197-2.981 2.186 2.186 0 1 0 3.197 2.981ZM177.253 182.513a2.184 2.184 0 0 0-.998-2.926 2.186 2.186 0 0 0-2.921 1.015 2.187 2.187 0 0 0 .998 2.927 2.187 2.187 0 0 0 2.921-1.016ZM185.777 167.295a2.186 2.186 0 0 0-1.849-2.478 2.186 2.186 0 0 0-2.46 1.872 2.187 2.187 0 0 0 1.849 2.479 2.186 2.186 0 0 0 2.46-1.873Z"/>
  </g>
  <g opacity=".499" fill="#880F4B">
    <path d="M115.156 201.375a2.186 2.186 0 0 0-.792-2.989 2.189 2.189 0 0 0-2.986.808 2.187 2.187 0 0 0 .793 2.989 2.186 2.186 0 0 0 2.985-.808ZM99.773 194.597a2.187 2.187 0 1 0-2.987-3.2 2.187 2.187 0 0 0 2.987 3.2ZM87.041 183.521a2.187 2.187 0 0 0 .998-2.927 2.187 2.187 0 0 0-2.921-1.015 2.187 2.187 0 0 0-.998 2.927 2.187 2.187 0 0 0 2.921 1.015ZM78.064 169.173a2.187 2.187 0 0 0 1.848-2.479 2.186 2.186 0 0 0-2.46-1.872 2.186 2.186 0 0 0-1.849 2.478 2.187 2.187 0 0 0 2.46 1.873Z"/>
  </g>
  <g opacity=".499" fill="#880F4B">
    <path d="M114.366 97.45a2.186 2.186 0 0 0 .792-2.99 2.187 2.187 0 0 0-2.985-.807 2.186 2.186 0 0 0-.792 2.988 2.187 2.187 0 0 0 2.985.808ZM99.881 104.334a2.186 2.186 0 1 0-3.09.109 2.186 2.186 0 0 0 3.09-.109ZM88.035 115.243a2.187 2.187 0 0 0-.998-2.927 2.187 2.187 0 0 0-2.92 1.015 2.187 2.187 0 0 0 .997 2.927 2.187 2.187 0 0 0 2.921-1.015ZM79.911 129.146a2.186 2.186 0 0 0-1.849-2.478 2.187 2.187 0 0 0-2.46 1.872 2.187 2.187 0 0 0 1.849 2.479 2.186 2.186 0 0 0 2.46-1.873Z"/>
  </g>
  <path fillRule="evenodd" clipRule="evenodd" d="M99.264 109.962a2.91 2.91 0 1 1 4.735-3.388l27.103 37.87a2.91 2.91 0 0 1-.674 4.06 2.91 2.91 0 0 1-4.061-.673l-27.103-37.869Z" fill="#880F4B"/>
  <path d="M131.608 156.597a7.447 7.447 0 1 0 0-14.894 7.448 7.448 0 1 0 0 14.894Z" fill="#880F4B"/>
  <path d="M135.607 149.553a3.83 3.83 0 1 0-7.56-1.227 3.83 3.83 0 0 0 7.56 1.227Z" fill="#EFD68F"/>
  <path d="M131.395 10.747c-17.717 0-32.08 12.41-32.08 23.14 0 6.267 4.901 11.84 12.509 15.392 4.185-2.354 3.507-8.503 3.492-8.634-2.201-1.917-3.492-4.246-3.492-6.759 0-6.545 8.762-11.851 19.571-11.851 10.809 0 19.572 5.306 19.572 11.851 0 2.513-1.291 4.842-3.493 6.76-1.315 4.387 2.87 8.917 2.87 8.917 7.962-3.535 13.132-9.24 13.132-15.677 0-10.729-14.364-23.14-32.081-23.14Z" fill="#E9224D"/>
  <path opacity=".38" d="M131.395 10.747c-3.602 0-7.066.513-10.298 1.42 8.088 1.965 15.199 6.25 19.288 11.19 6.286 1.971 10.582 5.947 10.582 10.53 0 2.512-1.291 4.841-3.493 6.758-1.315 4.388 2.87 8.918 2.87 8.918 7.962-3.535 13.132-9.24 13.132-15.677 0-10.729-14.363-23.14-32.081-23.14Z" fill="#880F4B"/>
  <path opacity=".77" d="M123.039 15.65c-.196 4.825-14.132 4.09-16.003 13.625-1.443 7.351-5.88 6.784-5.88 3.336s1.174-7.37 8.424-13.342c6.37-5.248 13.585-6.728 13.459-3.619Z" fill="#F44D80"/>
  <path d="M54.806 33.598c-.123 3.675 7.945 17.739 9.768 9.163 1.824-8.577-9.768-9.163-9.768-9.163ZM73.821 49.08c-1.73-.08-5.04-.09-5.713-4.076-.715-4.221 1.309-4.816 2.857-8.565 0 0 1.13 4.94 4.583 6.962 3.45 2.024.614 5.786-1.727 5.678ZM33.535 92.303c-4.593.888-5.66 3.271-5.66 3.271s5.353.239 6.508 3.486c1.156 3.248 4.16 6.343 7.467 2.813 3.307-3.53.763-11.324-8.315-9.57ZM171.198 25.735c3.647-2.928 6.155-2.2 6.155-2.2s-3.28 4.235-1.55 7.217c1.73 2.982 2.147 7.276-2.683 7.514-4.831.239-9.131-6.743-1.922-12.531ZM184.405 21.866c.316 1.811-2.699 9.337-4.199 5.217-1.501-4.12 4.199-5.217 4.199-5.217Z" fill="#E9224D"/>
  <path opacity=".43" d="M285.029 258.374c9.368 2.662 4.615-5.354 6.341-6.882 5.578-.839 7.637-3.602 4.848-6.123-2.892-2.614-13.344-5.24-24.013-4.428-3.451.148-12.136 2.119-9.867 8.358 2.27 6.239 16.504 7.316 22.691 9.075Z" fill="#2B2B2B"/>
  <path opacity=".21" d="M283.895 257.24c1.33 1.035 7.766-1.335 2.836-7.941-2.317-2.169 4.389-.617 3.404-2.836-1.825-3.402-12.48-3.403-16.992-3.847-5.966 1.233-11.002 4.291-10.805 4.981 4.522 7.977 15.514 5.108 21.557 9.643Z" fill="#0B0B0B"/>
  <path opacity=".43" d="M184.487 250.14c4.586 1.479 6.557 6.507 1.281 8.726-2.564 1.627-6.064 1.578-8.431 3.402-.937.739-1.134 2.071-1.923 2.909-2.366 2.416-6.607 1.775-9.762 1.627-2.958-.148-8.258-3.893-7.124-6.162 1.135-2.268 8.751-17.255 15.654-13.706 3.353 1.133 6.952 1.823 10.305 3.204Z" fill="#2B2B2B"/>
  <path opacity=".21" d="M161.365 255.537c-2.865 3.61-1.711 6.752 3.403 7.941 3.796.887 8.231 1.648 9.71-2.394 2.12-5.718 5.917-2.317 8.579-5.718 1.676-4.683-5.472-5.423-8.53-6.557-2.268-.937-11.141 4.362-13.162 6.728Z" fill="#0B0B0B"/>
  <path opacity=".21" d="M168.739 262.911c4.684.789 5.87-2.147 5.673-6.239.099-1.972 3.403-1.134 3.971-4.537.049-2.071-4.595-2.931-6.174-3.819-4.339-.098-10.672 9.615-11.412 11.192-.567.567 5.28 3.551 7.942 3.403Z" fill="#0B0B0B"/>
  <path d="M197.85 154.178h-7.383c-.956 2.957-2.231 5.521-4.143 7.592 2.656 3.204 7.224 4.93 11.526 4.634v-12.226ZM244.006 154.178h7.383c.956 2.957 2.231 5.521 4.142 7.592-2.655 3.204-7.223 4.93-11.525 4.633v-12.225Z" fill="#21212B"/>
  <path d="M267.166 212.18a5.973 5.973 0 0 1-.492-.74c-3.227-17.117-2.356-17.133-7.436-25.791-1.261-2.12-2.388-4.769-3.411-7.62a70.215 70.215 0 0 1-.541-7.118c-.037-1.602-.076-3.203-.441-4.746-.357-1.499-.939-2.912-1.614-4.309-1.101-2.287-2.342-4.548-3.256-6.867-1.384-6.969-1.587-7.484-11.412-29.544-9.068-20.266-18.991 25.917-18.578 27.222.398 7.372 5.37 13.614 8.393 20.293.804 1.788 1.328 3.624 2.226 5.395.833 1.691 2.144 3.113 2.931 4.811.176.382.304.774.442 1.208.091.443.089.904.189 1.391.164.798.844 1.275 1.685 1.586.84.311 1.587.638 2.155 1.273.576.679.89 1.497 1.101 2.286.247.968.307 1.967.46 2.951l-.488 1.879c-.67 2.645-1.011 5.232.369 7.699.759 1.336 1.838 2.569 2.289 4.051.468 1.572.497 3.129 1.285 4.597.759 1.336 1.773 2.489 2.88 3.626 2.15 2.193 4.87 4.33 5.246 7.342.09.673.03 1.327.167 1.992 1.079 4.541 9.011 3.46 12.716 1.886 3.931-1.661 7.741-5.321 6.995-9.186-.548-2.202-2.523-3.782-3.86-5.567Z" fill="#464558"/>
  <path opacity=".25" d="M267.166 212.18a5.973 5.973 0 0 1-.492-.74c-3.227-17.117-2.356-17.133-7.436-25.791-1.261-2.12-2.388-4.769-3.411-7.62a70.215 70.215 0 0 1-.541-7.118c-.037-1.602-.076-3.203-.441-4.746-.952-3.921-3.469-7.427-4.87-11.177-1.384-6.968-1.587-7.483-11.412-29.544-9.068-20.266-18.992 25.917-18.579 27.222.248 4.275 2.023 8.188 4.023 12.016 14.648-7.139 13.119 10.452 18.601 13.985 4.308 2.775 5.189 7.765 6.521 8.816 2.543 1.985 6.275 5.736 7.44 8.333 2.173 4.669 3.343 9.654 3.801 14.718.255 2.895-.414 8.849-9.28 4.444-1.895-.951-4.337-1.025-6.324-.306 2.287 2.628 5.812 4.899 6.242 8.407.09.673.03 1.327.167 1.992 1.079 4.541 9.011 3.46 12.716 1.886 3.931-1.661 7.741-5.321 6.995-9.186-.408-2.226-2.383-3.806-3.72-5.591Z" fill="#2B2B37"/>
  <path opacity=".25" d="M244.909 200.955c3.092-.777 6.578.123 9.505-1.222.657-.346.587-1.161.365-1.765-.958-2.77-4.13-4.507-6.93-5.849-2.986-1.539-6.508-2.617-9.173-4.718-2.831-2.44-1.742-6.584-5.25-8.537a23.462 23.462 0 0 1-3.886-2.849c.916 3.513 4.402 6.066 4.578 9.757 1.657 3.336 4.68-.139 5.355 8.103-1.324 4.186-1.833 8.089 1.245 11.726.367-1.994 1.754-3.985 4.191-4.646Z" fill="#2B2B37"/>
  <path opacity=".25" d="M266.627 211.449c-3.226-17.118-2.356-17.134-7.436-25.792-1.261-2.12-2.388-4.769-3.411-7.62a70.215 70.215 0 0 1-.541-7.118c-.037-1.601-.076-3.203-.441-4.746-.348-1.455-.939-2.912-1.614-4.309-1.101-2.286-2.342-4.548-3.256-6.867-1.066-5.186-1.403-6.827-5.608-16.421l-.047.008c-7.704 2.19-24.649 13.274-24.382 14.099.126 2.504.806 4.865 1.711 7.14 11.002-6.22 18.533-2.405 20.907-.069 3.397 3.304 2.189 8.526 4.056 12.652.722 1.619 7.445 12.605 8.543 17.005 1.19 3.189 4.825 4.109 5.542 6.416 2.324 7.767 3.338 13.882 5.377 17.656.935 1.719 1.916 3.889.437 5.436-1.478 1.548-4.367 1.186-6.526.603-2.205-.575-6.381-1.995-6.673.124-.234 1.695 3.607 1.016 5.639.748 1.995-.214 4.76.491 4.423 2.158-1.844 3.543-9.85.961-12.291.658.081.629.021 1.283.195 1.896 1.079 4.541 9.012 3.459 12.717 1.886 3.931-1.661 7.741-5.321 6.995-9.186-.456-2.217-2.384-3.806-3.769-5.582-.203-.285-.352-.535-.547-.775Z" fill="#2B2B37"/>
  <path d="M288.244 251.914c-1.714-3.143-4.672-4.549-7.836-6.241-4.852-2.588-4.615-3.089-7.618-4.947-3.162-1.922-4.803-9.901-6.138-13.801 0 0-10.639 1.377-11.078 1.363.017.319.581 1.643.59 1.688.849 2.009.541 1.925.684 3.095.098.947.685 1.441 1.346 2.059.298.269.296.729.462 1.067.14.205.919 1.4 1.104 1.826.453 1.023.952 2.037 1.218 3.093.42 1.81.194 3.779.662 5.58.632 2.37 1.154 4.436 5.401 4.788 2.619.226 4.66 1.887 6.965 2.95 5.349 2.408 2.893 3.209 11.792 3.29.777 0 1.552.23 2.274-.035.628-.249 1.026-.916 1.038-1.561.069-.61-.201-.976-.404-1.491-.175-.615.206-1.831-.462-2.723Z" fill="#464558"/>
  <path opacity=".44" d="M288.688 254.545c-.498 3.717-2.572 1.19-4.548 3.147 2.601.137 6.315.492 4.548-3.147ZM280.408 245.672c-4.852-2.588-4.615-3.089-7.618-4.947-3.06-1.894-4.73-9.547-6.036-13.542 0 0-10.937 1.107-11.18 1.104.017.319.571 1.599.747 1.981.815-.052 6.787 1.373 8.248 2.814 1.388 1.317 2.828 3.13 2.912 4.953.093 1.638.016 5.511.911 6.087.615.397 2.828-.408 4.461.451.597.308.866.904 1.332 1.281.819.682 1.867.819 2.934.813 5.007.034 9.526 3.599 10.801 4.844-1.707-2.868-4.516-4.254-7.512-5.839Z" fill="#323147"/>
  <path d="M255.886 229.335c.347.031.636.026.974.012 3.247-.023 6.477-.135 9.464 1.174.588.264 1.13.536 1.689.896-.809-2.752-1.502-5.891-1.558-5.927-1.063.969-7.148 2.78-10.946 2.717.016.319.136.665.294.959.018.089.027.133.083.169Z" fill="#323147"/>
  <path opacity=".44" d="M288.594 252.907c.044.452-.023.832.012 1.238-.971-.471-2.285.221-3.18-.356-.932-.754.643-1.125 1.277-.869 2.819-.453-1.077-3.118-1.258-4.234 1.332 1.051 2.794 2.493 3.149 4.221ZM260.276 239.125c.278.64.508 1.289.692 1.945.283 1.144.286 2.339.335 3.524 3.972-2.401 2.139-4.236-1.027-5.469ZM277.033 254.999c-3.951-4.585-3.512-6.225-9.9-3.533 3.656.548 8.923 4.211 11.564 5.489a4.922 4.922 0 0 1-1.664-1.956Z" fill="#323147"/>
  <path d="M273.22 240.696c-.13-.161-.484-.465-.493-.51a1.193 1.193 0 0 0-.57-.175c-.074-.125-.119-.576-.137-.665-.694-1.255-.256 2.297-3.207-5.451-.116.618.045 1.876.22 2.488.193.701.564 1.325.569 2.059-.092 1.21-1.323 2.301-.899 3.421.176.382.53.687.874.948.28.181.513.369.868.444.505.095 1.049-.094 1.49-.31a20.06 20.06 0 0 1 2.766-.948c-2.116-1.557-1.045-.597-1.481-1.301Z" fill="#323147"/>
  <path d="M260.316 236.959a.633.633 0 0 0-.107.662c.147.479.52.873.996 1.064.103.028.261.092.393.023.188-.033.292-.236.302-.422-.044-.45-.972-1.894-1.584-1.327ZM269.934 245.963c.304 1.004 1.3.184 1.304-.506-.09-.673-1.589-.408-1.304.506ZM271.917 246.164c-.778.229-.157 1.131.445.748.563-.329.146-.945-.445-.748ZM286.48 254.43c-1.132-.075-1.594.512-.417 1.039.969.472 1.576-.831.417-1.039Z" fill="#575771"/>
  <path d="M221.907 153.84c.156-1.122-.175-2.247-.159-3.397.025-1.194-9.414-44.696-19.057-24.657-10.673 22.232-10.647 22.33-12.31 29.7-1.903 8.43-3.391 22.798-8.107 30.302-2.603 4.188-5.329 8.49-6.852 13.076-.332 1.041-.665 2.082-.81 3.16-.126.989.198 1.93.082 2.874-.228 1.661-1.564 2.826-2.416 4.225a6.285 6.285 0 0 0-.556 5.054c.198.638.498 1.251.555 1.862.172 2.478-2.853 4-2.441 6.71.198 1.283 2.112 2.308 2.539 2.577.753.333 1.517.623 2.244.858 1.219.426 7.151 2.014 8.387 1.937 3.383-.299 6.906-.571 8.06-3.523.931-2.398.719-4.054-.156-6.44-.424-1.144.125-2.28.747-3.31a127.25 127.25 0 0 1 6.878-10.811c1.431-2.022 2.967-4.07 3.167-6.474.152-2.183-.893-4.465-.509-6.602.445-2.402 2.39-3.677 3.959-5.441 1.246-1.414 2.11-3.087 2.836-4.787.735-1.746 1.387-3.553 2.392-5.198 1.025-1.734 2.774-3.001 3.93-4.663 1.165-1.707 1.707-3.674 2.379-5.569.738-1.975 1.72-3.948 2.728-5.823.874-1.717 2.219-3.573 2.49-5.64Z" fill="#464558"/>
  <path opacity=".29" d="M182.151 217.439c-6.137-.892-3.166-3.255-10.653-3.999.528 1.764 1.289 3.575-.052 5.2 2.547.596 5.148.741 7.658 1.284 4.33.258 7.767 4.903 9.689 3.946 5.967-3.107-2.889-6.427-6.642-6.431Z" fill="#2B2B37"/>
  <path opacity=".25" d="M190.74 224.533c-2.349 1.333-5.319 1.53-7.969.959-4.471-.931-8.812-1.79-12.821-4.336-1.632 5.072 11.506 6.703 12.823 6.918.514.102 7.313-.213 8.421-3.821l-.454.28Z" fill="#2B2B37"/>
  <g opacity=".25" fill="#2B2B37">
    <path opacity=".51" d="M216.611 165.425c1.183-4.376 5.193-8.101 5.302-12.69-1.886-7.197-24.394-11.374-27.432-9.578-2.915 6.432-3.203 8.357-4.388 13.609 1.532-1.172 2.372-5.755 4.96-3.398.964 4.801 8.109 7.921 9.887 12.791 1.355 5.663-1.625 13.464-5.838 17.657-1.146.971-2.618 1.879-3.021 3.229-.332 1.041.009 2.122.257 3.186a20.097 20.097 0 0 1-2.171 14.371c-1.238 2.89-4.347 3.704-7.31 4.086-7.466 3.272.84 7.728 4.376 10.64-2.382-5.865 9.926-15.464 10.358-21.696-.579-5.647-1.644-7.84 3.449-12.043 2.651-2.888 3.274-6.73 5.228-9.985 2.606-3.126 5.51-6.056 6.343-10.179Z"/>
    <path opacity=".25" d="M206.783 181.97a8.857 8.857 0 0 0-.382 1.906c.603-.941 1.075-1.954 1.501-2.976.416-.979.795-2.01 1.257-2.979-.143.202-.24.413-.383.615-.781 1.091-1.611 2.172-1.993 3.434Z"/>
    <path opacity=".5" d="M177.243 212.825c2.651-2.242-.585-6.479-2.62-8.91.422 2.666-2.493 4.348-3.041 6.776 1.001 1.396 4.222 3.324 5.661 2.134Z"/>
    <path opacity=".51" d="M184.542 184.162c-.689 5.212-.995 10.453-1.29 15.652.005 1.707-.5 3.728.517 5.266 1.858 1.704 4.507-.307 4.955-2.293 5.596-12.91-.23-20.148-1.157-32.458-.966 4.927-2.772 9.041-3.025 13.833Z"/>
  </g>
  <path opacity=".29" d="M191.592 214.926c.633-1.073 1.218-2.156 1.851-3.229-2.45-.162-5.575-1.657-7.524-.152-3.017 2.353 2.532 5.204 4.872 6.497-.304-1.029.235-2.121.801-3.116ZM221.908 153.84c.033-.362-.639-3.215-1.517-4.081-1.127-1.053-23.193-7.632-25.159-6.915a3.768 3.768 0 0 0-.762.356 69.318 69.318 0 0 0-1.77 4.169c1.98 3.758 7.251 5.03 10.916 7.37 4.566 2.885 6.593 7.943 7.59 12.383.582 2.605.604 5.099-.337 7.541-.03.132-.107.256-.183.378 1.048-1.406 2.478-2.553 3.49-4.012 1.165-1.707 1.707-3.674 2.378-5.57.739-1.974 1.72-3.948 2.729-5.823 1.008-1.873 2.353-3.729 2.625-5.796Z" fill="#2B2B37"/>
  <path d="M182.48 231.75c.559-1.18 1.127-2.406 1.463-3.676-2.637-.199-11.611-2.344-11.611-2.344-.615 2.507-1.467 7.364-1.974 10.26-.12.529-.732 2.161-.802 2.47-.126.344-.093.627-.069.955-.009.689-.636 1.303-.785 1.965-.14.618-.026 1.193.124 1.823-.855 2.275-2.326 5.119-5.033 8.041-.296.448-.648.932-.908 1.434-.316.536-.549 1.136-.865 1.673-.679 1.064-1.728 1.825-2.147 3.034-.875 2.363-.268 3.128 6.69 4.274.944.141 3.435 2.063 6.002-1.533.782-1.09.467-3.366 1.452-4.277.37-.341 2.436-.855 2.652-5.7.075-1.414-.807-3.986 2.173-11.142.962-2.53 2.453-4.817 3.638-7.257Z" fill="#464558"/>
  <path opacity=".44" d="M171.814 243.794c-2.521-1.144-2.585-1.94-2.869-3.058a2.568 2.568 0 0 0-.223.555c-.14.618-.026 1.194.124 1.824a24.838 24.838 0 0 1-2.739 5.221l.047.01c1.78-.109 3.48.135 5.23-.487.789-.258 1.959-.903 1.935-1.876-.027-.743-.938-1.892-1.505-2.189Z" fill="#323147"/>
  <path opacity=".44" d="M182.48 231.75c.559-1.18 1.127-2.405 1.463-3.676-3.207-.265-6.097-1.068-8.155-1.891l-3.361-.664c-.375 1.447-.866 3.839-1.291 6.153 6.184 1.547 4.74 7.946 4.651 8.989-.082 1.229-.049 4.971-.003 5.625.034.284.119 2.283-2.117 2.901-.78.215-.449 1.34-.035 1.884.461.552.225 1.381-.158 1.997-.573.809-1.432 1.377-1.8 2.364-.583 1.499-.174 3.793-1.963 4.592-1.573.703-3.687-.084-5.111-.688-3.424-1.462-4.178-2.441-4.419-2.673-.096.212-.229.369-.279.59-.875 2.363-.268 3.129 6.69 4.275.943.14 3.425 2.106 6.002-1.534.573-.809.595-1.773.747-2.664.083-.583.213-1.156.659-1.622.323-.35 2.436-.855 2.652-5.7.075-1.414-.807-3.986 2.173-11.142.979-2.389 2.47-4.676 3.655-7.116Z" fill="#323147"/>
  <path d="M166.89 261.724c-.832-1.502 1.041-2.238 1.58-3.33.106-.901-.874-1.095-.953-.096-.259 1.147-1.582 2.038-1.654 3.222.384.03.673.041 1.027.204Z" fill="#323147"/>
  <path opacity=".44" d="M168.672 241.512c-.073.539.051 1.071.174 1.603-.389 1.076-.958 2.3-1.687 3.585.303-.263 1.911-2.204 2.231-2.971.146-.432.256-.918.112-1.361-.274-.515-.673-.686-.83-.856ZM169.214 240.191c.88-.011.735-1.099.302-1.554-.073.538.004 1.061-.302 1.554Z" fill="#323147"/>
  <path d="M172.518 225.122c-.286 1.05-.664 2.727-1.026 4.546 10.988 2.082 4.39 12.303 4.466 15.638.037.699.111 1.451-.002 2.166-.113.716-.525 1.464-1.222 1.741-1.033.256-1.152.786-.949.965.204.179.58.022.774.245 1.905 2.36-1.74 4.036-2.309 5.261-.463.969-.412 2.039-.594 3.064-.252 1.333-.972 2.574-1.958 3.486.874-.197 1.826-.746 2.772-2.127.573-.809.595-1.773.747-2.664.083-.583.213-1.156.659-1.622.324-.35 2.436-.855 2.652-5.7.019-.733.05-3.678.06-3.722.193-.423.349-.899.309-1.368.126-.344.149-.662.079-.999.309-1.368.884-3.053 1.735-5.097 1.044-2.468 2.489-4.764 3.674-7.204.559-1.18 1.128-2.405 1.464-3.676-4.085-.254-11.247-2.87-11.331-2.933Z" fill="#323147"/>
  <path d="M172.104 236.244c.38-.385 1.201-2.298-.138-2.194-.928.001-.769 2.753.138 2.194ZM169.144 259.081c-.5-.376-.964-.053-1.13.468-.076.123-.013.274.174.311.663.085 1.399-.369.956-.779ZM163.671 252.004c-.669 2.312 1.973.114 1.012-.814-.546-.385-.886.47-1.012.814Z" fill="#575771"/>
  <path d="M251.123 152.994c-.531-1.873-.903-3.795-1.222-5.669-1.753-10.648-1.806-23.465-8.073-32.191-.16-.246-41.481-.246-41.694 0-6.267 8.727-6.267 21.543-8.073 32.191-.319 1.874-.69 3.796-1.222 5.669-.956 3.451-2.336 6.458-4.515 8.775 0 0 .054.049.054.099 1.115-.346 2.178-1.528 2.868-2.169 1.062-1.036 2.072-2.169 2.868-3.352 2.178 4.633 3.133 5.817 7.064 9.169 12.641 1.085 29.106 1.281 43.447 0 3.93-3.352 4.886-4.536 7.063-9.169.797 1.233 1.806 2.366 2.869 3.352.69.641 1.752 1.824 2.868 2.169 0 0 .053-.05.053-.099-2.017-2.317-3.399-5.373-4.355-8.775Z" fill="#4C4C62"/>
  <path opacity=".25" d="M214.476 150.826c-7.383 1.972-13.066 6.902-18.325 11.733.797.838 1.806 1.725 3.135 2.859 6.32.542 13.597.888 21.086.888.265-.593 10.037-19.72-5.896-15.48Z" fill="#2B2B37"/>
  <path d="M196.842 146.191c5.524-6.064 7.383-16.909-1.115-21.444-2.656 9.317-2.39 19.275-4.94 28.445 2.178-2.169 4.196-4.536 6.055-7.001Z" fill="#575770"/>
  <path opacity=".25" d="M251.123 152.994c-3.346-12.225-1.859-27.458-9.295-37.86-.16-.247-41.481-.247-41.694 0-1.009 1.38-1.859 2.909-2.549 4.486 8.179 16.416 38.932 10.549 47.111 44.072 2.337-2.169 3.293-3.698 5.045-7.395 1.594 2.071 3.24 4.339 5.737 5.571 0 0 .053-.05.053-.099-2.071-2.317-3.452-5.373-4.408-8.775Z" fill="#2B2B37"/>
  <path opacity=".25" d="M201.728 119.325c14.819 8.38 34.418 8.232 47.112 20.311-1.063-8.677-2.178-17.797-7.011-24.502-.16-.246-41.481-.246-41.694 0-.477.641-.85 1.282-1.275 1.973.851.837 1.859 1.576 2.868 2.218Z" fill="#2B2B37"/>
  <path fillRule="evenodd" clipRule="evenodd" d="M198.595 120.853c-1.753 3.943-2.39 6.754-2.975 12.62 0 .296-.53.247-.477-.049.584-5.916 1.222-8.775 3.028-12.768l.212.098-.212-.098c.105-.297.53-.099.424.197ZM194.399 143.874c.053.444-1.276 13.261-2.284 10.846 1.169-3.056 1.434-7.641 1.753-10.846.053-.344.531-.296.531 0ZM245.758 127.656c.054.296-.425.395-.477.099-.584-2.909-1.912-6.31-3.028-8.972-.159-.296.319-.493.478-.198 1.116 2.711 2.444 6.162 3.027 9.071ZM249.689 154.326c-.106.049-.266-.049-.319-.148-.796-3.007-2.443-15.775-2.496-15.973-.053-.296.478-.345.478-.049.53 4.141 1.646 12.719 2.496 15.874.054.148.001.247-.159.296Z" fill="#2B2B37"/>
  <path d="M231.778 63.348c2.053 0 3.71-1.78 3.71-3.98 0-2.202-1.657-3.982-3.71-3.982s-3.71 1.78-3.71 3.981c0 2.201 1.658 3.981 3.71 3.981Z" fill="#75A152"/>
  <path d="M235.464 59.367c0 2.201-1.657 3.981-3.71 3.981s-3.71-1.78-3.71-3.98c0-2.202 1.657-3.982 3.71-3.982.297 0 .568.025.841.099a2.172 2.172 0 0 0-.273 1.038c0 1.261 1.138 2.275 2.572 2.275.173 0 .347-.025.519-.05.051.199.051.396.051.62Z" fill="#568040"/>
  <path d="M266.775 108.032a18.042 18.042 0 0 1-.952 4.39c-12.064.771-22.911-2.349-22.194-16.717.394-4.393 1.805-8.2 4.268-12.292l1.194 2.876c-9.191 14.194 4.807 24.214 17.684 21.743Z" fill="#74A352"/>
  <path d="M266.191 111.226c-.113.405-.221.834-.387 1.226-8.667.095-20.295-.098-20.532-11.57 0 0 .877-3.176.878-4.316.362 4.15 2.898 6.873 7.139 9.505 3.605 3.583 8.234 5.124 12.902 5.155Z" fill="#568040"/>
  <path opacity=".49" d="M266.352 110.581c-2.256-.006-4.429-.21-6.619-1.067-1.105-.414-3.211-1.341-4.773-2.565 5.525 1.841 7.837 1.532 11.792 1.087a15.736 15.736 0 0 1-.4 2.545Z" fill="#AED888"/>
  <path d="M258.885 119.986s-.006-.024.018-.029c-11.18-3.021-10.054-10.514-12.644-19.919-.375-1.006-.847-1.991-1.452-2.895-.71 2.512-2.189 4.866-3.718 7.003 3.061 8.441 5.652 19.795 15.044 22.629 1.702-1.694 3.471-3.655 5.108-5.867-.729-.32-2.402-.786-2.356-.922Z" fill="#74A352"/>
  <path d="M252.591 116.846c-6.173-4.889-3.725-13.384-7.808-19.698a16.542 16.542 0 0 1-1.279 3.145c3.985 13.757-.009 18.136 17.614 20.743.237-.306.472-.611.679-.936-2.662-.701-7.221-1.845-9.206-3.254Z" fill="#568040"/>
  <path opacity=".49" d="M261.056 121.1a49.82 49.82 0 0 1-4.686 5.369c-1.123-5.298-6.019-5.1-7.717-5.104-2.647-3.304-3.883-7.159-5.461-11.005 1.716 2.482 3.552 5.931 6.043 7.684 2.427 1.692 8.413 3.33 11.821 3.056Z" fill="#AED888"/>
  <path d="M249.304 114.356a9.44 9.44 0 0 0 2.911 2.167c-2.096-1.916-3.131-4.128-3.955-7.39a64.507 64.507 0 0 1-.364-2.037c-.295 2.32-.28 5.355 1.408 7.26Z" fill="#3E5C2E"/>
  <path d="M237.658 59.45c.47-.965.915-1.904 1.385-2.87-.025-.024-.347-.272-.371-.296-.47.94-.915 1.903-1.385 2.868.123.1.247.199.371.297Z" fill="#A4A4A4"/>
  <path d="m239.463 60.463-1.162-2.67 1.013-2.127 3.858 2.275-.593 1.236c-1.212-.32-2.473.273-3.116 1.286Z" fill="#A4A4A4"/>
  <path d="m234.764 52.897-.742 1.483h.025c.172.223 3.042 1.78 6.578 3.56 3.536 1.781 6.48 3.141 6.777 3.166h.024l.743-1.484-13.405-6.725Z" fill="#A4A4A4"/>
  <path d="M248.144 59.622c.049-.123-2.894-1.73-6.578-3.585-3.685-1.854-6.752-3.29-6.802-3.165-.049.124 2.894 1.731 6.579 3.585 3.684 1.88 6.752 3.29 6.801 3.165Z" fill="#D8D8D8"/>
  <path d="M243.445 57.298c.123-.42 10.511-20.747 10.486-21.167.297-1.014-1.508-1.657-2.078-2.151-.445-.297-1.063-.025-1.261.445l-10.56 21.142s3.388 1.731 3.413 1.731Z" fill="#21212B"/>
  <path d="m243.445 57.298 6.851-13.724 3.265-6.553c1.162-1.731-.594-2.225-1.707-3.041-.445-.297-1.063-.025-1.261.445l-10.56 21.142c-.001.025 3.387 1.731 3.412 1.731Zm.667-2.053-1.78.05-.989-1.657 1.78-.05.989 1.657Zm-.296-3.09c-1.187-2.004-1.459-1.559.816-1.608l.915 1.558-1.731.05Zm3.091-5.934-.915-1.559 1.608-.024.915 1.558-1.608.025Zm.148 2.843-1.731.024-.816-1.384 1.731-.05.816 1.41Zm1.237-5.885-.89-1.632 1.706-.025.94 1.632-1.756.025Zm.593-4.699h1.732l.914 1.608-1.731.025-.915-1.633Zm3.216-3.165.989 1.73h-1.805l-.989-1.68 1.805-.05Z" fill="#323147"/>
  <path opacity=".37" d="M250.84 34.08c-.297.32-.297.84-.421 1.236l1.682-.025.989 1.73h-1.805l-.89-1.557a12.243 12.243 0 0 0-.149 2.992h.347l.915 1.607h-1.063c.123.668.322 1.336.618 1.88l2.473-4.97c.371-.569.618-1.508-.049-1.954-.594-.223-1.955-1.731-2.647-.94ZM243.445 57.298l.865-1.706c-.123-.099-.247-.223-.371-.322l-1.607.05-.989-1.657 1.286-.025c-.025-.025-.05-.074-.074-.099-.372-.742-.47-1.36-.52-2.052l-2.028 4.13 3.438 1.681Z" fill="#21212B"/>
  <path d="m240.032 55.567 10.56-21.142c.197-.396.568-.643.989-.569-1.114-.197-1.41-.297-1.83.42l-10.461 20.92.742.371Z" fill="#464557"/>
  <path d="m238.325 57.026.273.223 3.932 1.954.025-.074c.742.395 1.088.642 1.063.668-.025.049-1.459-.618-3.215-1.484-1.756-.89-3.141-1.632-3.116-1.681.049-.051.495.122 1.038.394Z" fill="#D8D8D8"/>
  <path d="M243.642 59.771c-.024.05-1.458-.617-3.214-1.483-1.756-.865-3.141-1.632-3.116-1.682l-2.646 5.54 6.331 3.165 2.645-5.54Z" fill="#464557"/>
  <path opacity=".37" d="M240.428 58.287c-1.756-.89-3.141-1.632-3.116-1.682 0-.024.445.173 1.013.42l.297.224 3.933 1.954-.841-.273c-.396-.198-.817-.42-1.286-.643Z" fill="#A4A4A4"/>
  <path d="M243.642 59.771c-.074.123-5.638-2.67-6.281-3.14l-.049-.05-.643 1.311c.792.52 5.688 2.992 6.332 3.19l.641-1.31Z" fill="#A4A4A4"/>
  <path d="M259.971 103.902c-1.924 2.075-19.046-5.486-20.275-6.966-4.596-8.525-8.425-22.365-7.35-31.102 1.242-8.222 11.893-4.444 16.311-.99 4.842 4.1 6.458 9.903 7.004 15.935 2.047 6.847 9.809 16.223 4.31 23.123Z" fill="#3E3D4E"/>
  <path opacity=".25" d="M252.33 69.16c-7.261 8.42-8.065 20.075-8.552 30.67-1.744-2.21-15.138-29.558-9.635-37.602 3.208-2.652 7.91-.858 11.298.664 3.353 1.619 5.07 3.403 6.889 6.269Z" fill="#2B2B37"/>
  <path opacity=".29" d="M240.915 96.948c.421-1.546.966-3.078 1.387-4.623.763-2.602.424-5.352 1.092-7.99 2.642-6.497 7.668-13.848 3.415-20.767-26.861-14.844-7.532 31.107-5.894 33.38Z" fill="#2B2B37"/>
  <path opacity=".25" d="M256.845 83.996c-.844-.69-2.825-2.331-3.208-3.144-.818-1.81-.949-5.755.461-7.911 1.467 3.572.949 7.545 2.747 11.055ZM248.001 85.639s3.629-2.19 5.676-1.078c2.046 1.113-1.723 1.542-1.723 1.542s4.013.02 4.016 1.034c.005 1.014-4.299-1.239-8.45.189-4.151 1.427.481-1.687.481-1.687Z" fill="#2B2B37"/>
  <path d="M205.952 59.993c.148-.074.297-.123.42-.173-.568-1.162-1.138-2.348-1.706-3.51l-.025.024-.347.272c.125.247 1.238 2.522 1.658 3.387Z" fill="#A4A4A4"/>
  <path d="m203.9 60.463 1.162-2.67-1.013-2.127-3.859 2.275.594 1.236c1.211-.32 2.472.273 3.116 1.286Z" fill="#A4A4A4"/>
  <path d="m208.599 52.897.742 1.483h-.025c-.172.223-3.042 1.78-6.578 3.56-3.537 1.781-6.48 3.141-6.777 3.166h-.024l-.743-1.484 13.405-6.725Z" fill="#A4A4A4"/>
  <path d="M201.995 56.482c3.684-1.854 6.652-3.462 6.578-3.585-.049-.124-3.116 1.31-6.801 3.165-3.685 1.854-6.653 3.462-6.579 3.585.051.1 3.093-1.31 6.802-3.165Z" fill="#D8D8D8"/>
  <path d="m199.918 57.298-10.362-20.747c-.074-.123-.099-.272-.124-.42-.049-.396.074-.841.421-1.038l1.657-1.089c.47-.297 1.063-.024 1.261.445l10.56 21.143c-.001-.025-3.413 1.706-3.413 1.706Z" fill="#21212B"/>
  <path d="m203.33 55.567-10.56-21.142c-.074-.124-.148-.248-.247-.347-.273-.272-.693-.346-1.014-.123l-1.657 1.088c-.693.445-.421 1.385-.05 1.954l3.265 6.553 6.851 13.724 3.412-1.707Zm-3.116-1.978 1.781.05-.989 1.657-1.781-.05.989-1.657Zm-2.423-1.484.915-1.558c2.251.05 2.004-.396.816 1.608l-1.731-.05Zm-2.968-5.935.915-1.558 1.608.025-.915 1.558-1.608-.025Zm2.3 1.484 1.731.05-.816 1.384-1.731-.024.816-1.41Zm-3.833-4.5.939-1.633 1.707.025-.891 1.632-1.755-.025Zm.272-3.067-1.731-.025.915-1.607h1.731l-.915 1.632Zm-.519-4.772-.989 1.681h-1.805l.989-1.73 1.805.049Z" fill="#464557"/>
  <path opacity=".37" d="M192.523 34.08c.297.32.298.84.421 1.236l-1.682-.025-.99 1.73h1.805l.891-1.558a12.29 12.29 0 0 1 .148 2.992h-.347l-.915 1.608h1.063a7.258 7.258 0 0 1-.618 1.878l-2.473-4.97c-.371-.568-.618-1.507.049-1.953.595-.222 1.956-1.73 2.648-.939ZM199.918 57.298l-.866-1.706c.124-.099.248-.223.372-.322l1.607.05.989-1.657-1.286-.025c.421-.742.544-1.459.569-2.151l2.028 4.13-3.413 1.681Z" fill="#21212B"/>
  <path d="m203.33 55.567-10.56-21.142c-.197-.396-.568-.643-.989-.569 1.113-.197 1.41-.297 1.83.42l10.461 20.92-.742.371Z" fill="#323147"/>
  <path d="m205.012 57.026-.272.223-3.932 1.954-.025-.074c-.742.395-1.088.642-1.063.668.025.049 1.459-.618 3.215-1.484 1.756-.89 3.14-1.632 3.116-1.681-.024-.051-.469.122-1.039.394Z" fill="#D8D8D8"/>
  <path opacity=".37" d="M202.91 58.287c1.756-.89 3.141-1.632 3.116-1.682 0-.024-.445.173-1.014.42l-.297.224-3.931 1.953.841-.273c.419-.197.84-.42 1.285-.642Z" fill="#A4A4A4"/>
  <path d="M199.695 59.771c.025.05 1.459-.617 3.215-1.483 1.756-.89 3.141-1.632 3.116-1.682l2.646 5.54c-.099.098-6.158 3.165-6.307 3.165l-2.67-5.54Z" fill="#464557"/>
  <path d="M199.695 59.771c.074.123 5.639-2.67 6.281-3.14l.05-.05.642 1.311c-.791.52-5.688 2.992-6.331 3.19l-.642-1.31Z" fill="#A4A4A4"/>
  <path d="M211.847 70.128c-.666 6.8-5.807 23.564-8.156 30.681-1.266 3.009-20.559 1.502-19.61-.705-1.395-5.994.74-9.594 1.815-13.528 2.047-8.156 2.394-13.905 8.988-22.066 6.421-4.914 18.461-8.05 16.963 5.618Z" fill="#464558"/>
  <path opacity=".29" d="M206.336 92.917c-6.732 12.524-22.185 6.79-22.427 6.367-1.156-5.173.935-8.802 2.01-12.735 2.586 1.01 6.657-6.474 6.359-11.216-.104-7.544 2.307-11.746 8.429-14.012.721-.245 18.216 8.227 5.629 31.596Z" fill="#2B2B37"/>
  <path opacity=".29" d="M196.465 68.89c1.271 6.88-4.791 9.557 4 13.727 5.966 3.507-1.755 11.084-1.689 14.258.155.805 6.521-3.904 6.676-3.099 6.122-14.897 13.37-41.711-7.868-31.1-1.231.617-1.638 3.409-1.119 6.213ZM194.439 87.306s-7.899-1.59-7.086-.356c.812 1.234 2.46.808 2.46.808s-2.78 1.292-.984 1.228c1.795-.065 7.701-.577 5.61-1.68Z" fill="#2B2B37"/>
  <path d="M244.36 70.305c-1.706-2.275-2.176-8.309-1.929-8.531-2.522-.965-15.234-4.822-17.509-5.193l-7.567-.495c-2.523.52-14.493 4.699-17.485 5.638 1.212 5.861-3.463 13.724-1.805 19.115 1.954 6.874 3.784 17.507 2.572 23.639-.643 2.25-.965 4.921.445 6.924 0 2.053 5.169 6.405 18.177 7.418 7.296.569 22.877-2.67 23.001-3.239-.841-4.624.841-4.253 1.187-7.863a64.447 64.447 0 0 0-.569-6.182c-.766-5.267-.543-4.377-.346-10.41.099-3.165.148-6.356 1.089-9.372 1.679-4.006 2.569-7.493.739-11.449Z" fill="#575770"/>
  <path opacity=".11" d="M242.505 91.126c-.172 6.034-.42 5.168.347 10.41.297 2.053.47 4.105.568 6.182-.346 3.61-2.053 3.239-1.187 7.863-.123.544-15.68 3.809-23 3.239-22.902-1.805-19.266-12.092-18.623-14.342 1.212-6.157-.618-16.766-2.572-23.64-.272-.865-.371-1.804-.347-2.793 4.18 2.844 7.975-9.1 12.97-8.605 4.65.37 8.819-2.745 11.366-7.642 1.212-2.399 10.808-.519 10.363-3.19.172.05.346.124.519.149 1.063.346 3.289.989 5.366 1.583.049.024 3.71 1.137 4.205 1.384-.248.322.247 6.256 1.928 8.532 1.855 3.956.94 7.443-.767 11.448-.988 3.067-1.062 6.257-1.136 9.422Z" fill="#2B2B37"/>
  <path opacity=".25" d="M199.002 81.235a15.82 15.82 0 0 1-1.212-1.657c1.311 5.81 2.597 9.842 2.919 15.455 3.413-6.083 3.487-9.001-1.707-13.798ZM219.233 118.821c-18.425-.272-19.093-9.322-19.167-10.386-.729-12.258 24.694-12.388 25.338-21.784 1.632-10.46 16.137-4.525 14.603-25.693v-.024c1.089.346 1.929.642 2.424.816-.247.223.223 6.256 1.929 8.531 1.855 3.957.94 7.443-.767 11.449-.94 2.992-.989 6.206-1.089 9.372-.172 6.034-.42 5.168.347 10.411.297 2.052.47 4.104.568 6.181-.346 3.61-2.053 3.239-1.187 7.864-.122.593-15.679 3.387-22.999 3.263Z" fill="#2B2B37"/>
  <path opacity=".25" d="M244.36 70.305c1.854 3.956.939 7.443-.767 11.449-.94 2.992-.989 6.206-1.089 9.372-.172 6.034-.42 5.168.347 10.41.297 2.053.47 4.105.568 6.182-.346 3.61-2.053 3.239-1.187 7.864-.123.543-15.68 3.734-23 3.238-17.46-1.187-18.549-8.011-18.697-8.308 9.967-.544 32.151-2.72 30.048-16.048.248-2.547 1.781-4.699 3.29-6.726 7.247-9.05 9.052-15.207 6.949-26.533.669.223 1.212.42 1.559.544-.198.248.272 6.281 1.979 8.556Z" fill="#2B2B37"/>
  <path opacity=".25" d="M232.217 58.633c-.421.816-24.163 32.072-30.444 59.026 1.063.098 3.066.89 3.71 1.335.049-1.335 6.628-20.005 12.662-30.168 7.765-13.205 17.262-28.956 14.072-30.193Z" fill="#2B2B37"/>
  <path opacity=".25" d="M242.653 65.335c-.297-1.978-.223-3.56-.223-3.56s-11.87-3.76-15.382-4.699c-1.682 2.473-14.047.099-15.977.866 1.385 2.844 3.982 5.687 8.582 4.92 5.12-.89 20.082.593 23 2.473Z" fill="#2B2B37"/>
  <path opacity=".25" d="M222.028 61.798c1.385-.445 2.671-.197 3.932.396 2.993.593 7.37.123 8.779-2.819-2.596-.79-5.688-1.73-7.741-2.299-2.201 3.413-14.047.099-15.976.866 2.844 1.656 7.098 4.55 11.006 3.856ZM219.876 73.619c-3.265 1.608-5.936 6.7-8.309 10.238-5.961 8.877-9.448 19.584-10.511 26.112 0 .841-.544 4.476-.519 5.415.322.643 3.784.124 4.279-.767 3.189-6.009 17.112-41.988 15.06-40.998ZM212.135 59.796s2.078 4.674 4.18 7.27c2.102 2.597 4.65 4.996 4.65 4.996l3.239-1.31s-3.784-1.311-6.381-3.784c-2.646-2.449-5.688-7.172-5.688-7.172Z" fill="#2B2B37"/>
  <path opacity=".14" d="M201.229 64.271c-.05.817.593 1.707 1.409 1.633 1.286-.124 4.749-3.14 3.76-4.254-1.237-1.384-5.071 1.336-5.169 2.621ZM235.654 65.73c-.395-.223-2.794 1.335-1.533 2.324.742.569 1.954 0 1.979-1.31.024-.395-.124-.816-.446-1.014Z" fill="#D8D8D8"/>
  <path d="M220.346 76.265c.396-.42.792-.792 1.212-1.212.964-.94 1.879-1.928 2.794-2.943-8.26-5.193-9.027-7.394-13.997-15.43-.075-.1.37 11.004 9.991 19.585Z" fill="#2B2B37"/>
  <path d="M220.964 69.885c-.197 1.508-1.929 3.437-2.819 4.253a25.7 25.7 0 0 0 2.176 2.151c.396-.42.792-.791 1.212-1.212.965-.939 1.88-1.928 2.795-2.942a71.075 71.075 0 0 1-3.364-2.25Z" fill="#21212B"/>
  <path opacity=".25" d="M214.632 67.56c.767 1.114 1.188-.222.866-.988-.272-.643-.717-1.36-1.261-1.805-.396-.322-.767-.495-.915.098-.247.89.865 2.028 1.31 2.696Z" fill="#464557"/>
  <path d="M222.102 79.602c-3.858 6.875-16.867 27.448-17.733 38.254-1.162.025-2.176-.791-3.165-1.261-2.819-23.961 29.306-54.575 30.346-58.802 1.656 0 .939 7.072-9.448 21.81Z" fill="#2B2B37"/>
  <path d="M205.581 111.576c-.049.148-1.236 5.02-1.236 6.28 0 0-2.845-1.088-3.166-1.261 0-.197-.074-5.515-.074-5.687 2.423 1.064 4.105.717 4.476.668Z" fill="#21212B"/>
  <path opacity=".25" d="M227.296 65.83c.593-.718-.372-.767-.817-.396-.371.297-.767.742-.964 1.212-.148.321-.197.617.223.593.667-.025 1.211-.989 1.558-1.41ZM222.695 69.44c-1.162 1.434-2.399 3.017-3.684 4.649.098.223.321.321.767.272 1.434-.173 2.448-2.473 3.14-3.56.618-.916.321-1.312-.223-1.361Z" fill="#464557"/>
  <path opacity=".25" d="M243.42 107.718c0-6.998-1.508-11.202-.865-18.62-7.741 12.537 1.286 17.31-5.762 23.887-2.251 2.102-4.156 4.945-14.172 5.96 5.961-.593 18.598-2.572 19.587-3.265-.693-5.267 1.212-5.142 1.212-7.962Z" fill="#2B2B37"/>
  <path d="M210.76 50.142s-.919 1.323-.932 2.39c.01 1.062 2.135 3.068 2.135 3.068l1.034-2.159-2.237-3.299Z" fill="#75A152"/>
  <path d="M231.297 45.879s1.543 1.452 1.627 3.74c.06 2.292-1.673 3.265-1.673 3.265l-.838-.8.884-6.205Z" fill="#568040"/>
  <path d="M242.752 116.571c-9.819 6.727-30.939 7.666-42.786.544-.049-1.879.569-6.553.569-6.553.569 1.434 2.993 1.608 4.279 1.879 12.687 2.794 24.731 2.275 37.517-1.286a58.69 58.69 0 0 0 .421 5.416Z" fill="#2B2B37"/>
  <path opacity=".46" d="M242.727 116.571c-6.504 4.402-14.541 5.316-22.382 5.39 1.483-.494 5.218-1.805 2.968-3.659-.742-1.187 2.523-1.088 1.409-2.572-.494-.642-1.384-.816-1.83-1.508 6.554-.172 13.034-1.31 19.39-3.066.099 1.804.248 3.585.445 5.415Z" fill="#21212B"/>
  <path d="M242.752 116.571c-2.696 1.928-5.59 3.017-9.052 3.907-.049-1.31 1.83-2.324.643-3.635-.298-.445-.618-.766-.347-1.31.495-.742 1.014-1.78.297-2.572a95.374 95.374 0 0 0 8.013-1.83c.099 1.829.224 3.61.446 5.44Z" fill="#21212B"/>
  <path opacity=".25" d="M209.389 115.977c-1.311-1.385-3.61-.593-5.095-1.879-.791-.544-2.127-1.335-2.324.173.544.618 1.138.642 1.483 1.483.718 1.534 7.47 3.685 5.936.223ZM221.483 114.222a72.682 72.682 0 0 1-9.448-.544c1.336.939 2.424 2.077 4.353 1.954 1.583-.1 4.6.667 5.095-1.41Z" fill="#464557"/>
  <path d="M227.277 35.225c-2.211-5.662-6.915-9.217-11.29-8.157-4.38 1.036-6.99 6.337-6.462 12.403-.386-.141 1.686 8.619 1.735 8.608 2.475 3.904 7.2 5.528 10.766 4.7 3.554-.874 10.041-6.972 5.251-17.554Z" fill="#D58500"/>
  <g opacity=".77" fill="#E2A040">
    <path opacity=".36" d="M215.115 33.779c.127.453.707.778 1.176.723.831-.363-1.255-1.745-1.176-.723ZM213.016 38.534c.138-.285.705-.361.866-.094.144.526-.895.531-.866.094ZM221.783 36.942c-.011-.276.419-.727.691-.535.382.345-.521.953-.691.535ZM213.014 41.12c.665-.2.126-1.017-.348-.53-.179.217.102.56.348.53ZM225.32 38.124c.665-.2.126-1.016-.348-.53-.179.218.106.585.348.53Z"/>
  </g>
  <path opacity=".36" d="M227.997 34.708c-1.516-3.36-5.792-7.72-10.495-7.778-12.751 3.602-8.672 16.55-8.07 17.985.921-.866 1.997-1.488 3.12-2.02-4.646-17.381 22.878-13.23 11.393 2.532-2.384 2.59-5.687 5.03-9.321 4.986 5.873 5.6 20.305-.332 13.373-15.705Z" fill="#B45F00"/>
  <path d="M222.689 30.605c.701.07 1.376.146 2.058.247-2.419-2.98-5.682-4.527-8.789-3.803-4.38 1.036-11.155 4.613-6.566 17.8.19-.169 1.204-.955 1.563-1.162-1.41-8.073 2.223-14.01 11.734-13.082ZM218.521 40.134s4.058-1.343 7.337-1.193c3.272.126 3.637.17 3.637.17l-.206 2.353-10.768-1.33Z" fill="#B45F00"/>
  <path d="M224.116 31.652c3.204 2.524 4.525 7.271 3.28 10.972-1.142 3.375-8.955 7.742-12.802 7.77 5.849 5.606 19.083-1.933 15.003-13.537-1.068-3.054-5.667-5.695-5.481-5.205Z" fill="#B45F00"/>
  <path opacity=".36" d="M222.243 39.323c-.612-.243-1.293-3.943-1.266-4.05 0 0-.805.03-.858.244-.516 2.549-.232 3.93.252 6.077.037.169 3.065-.233 3.027-.401-.224-.66-1.072-1.838-1.155-1.87ZM217.731 37.524c-1.118-1.929-4.716-1.246-6.619-.692-.097.022-.169.038-.226.127-.024.005-.018.03-.037.059-.008.078.075.11.134.147 4.318.828 5.782.575 6.097 1.975.386 1.713-1.309.599-7.795 4.896l1.9 3.375c1.045-.767 9.567-4.686 6.546-9.887Z" fill="#B45F00"/>
  <path opacity=".36" d="M216.277 39.169c-.698-1.187-2.923-.484-2.117-1.07.091-.046 1.528-.42 2.117 1.07ZM222.026 36.33c-.824.059-1.987-.72-1.806-1.038.056-.089 2.658-1.029 3.068-1.121.676-.152 1.357-.28 2.054-.336.427-.02.344.177.21.258-.378.236-.828.262-1.187.469-.243.156-1.269 1.68-2.339 1.768Z" fill="#B45F00"/>
  <path d="M213.964 39.03c.017.073.009.15.031.248.108.482.418.843.683.784.265-.06.39-.52.282-1.002-.022-.096-.038-.168-.079-.236l-.917.206Z" fill="#323147"/>
  <path fillRule="evenodd" clipRule="evenodd" d="M211.627 38.897c.056-.089.152-.11.241-.055 1.628.927 2.506-.918 4.827.385.201.106.039.396-.163.29-1.427-.82-2.267-.276-3.616-.074-.163.062-1.449-.13-1.289-.546Z" fill="#323147"/>
  <path d="M223.897 36.872c.016.073.056.14.078.237.109.482-.022.917-.287.977-.265.06-.569-.278-.678-.76-.021-.097-.037-.169-.03-.247l.917-.207Z" fill="#323147"/>
  <path fillRule="evenodd" clipRule="evenodd" d="M225.933 35.781c.088.056.086.158.054.242-.473.714-1.06.923-1.8 1.013-.957.14-1.601.436-2.325 1.385-.136.182-.389-.04-.272-.193 1.545-2.147 3.074-.869 4.106-2.368a.192.192 0 0 1 .237-.079Z" fill="#323147"/>
  <path d="M216.684 36.138c-.309-.133-2.628-.525-5.143.801-.225.127-.13.207-.064.166.025-.005.067-.04.091-.045 2.415-.873 3.559.72 4.998.244.492-.186.73-.924.118-1.166ZM220.977 36.287c1.531-.065 2.001-1.92 4.576-1.967a.186.186 0 0 1 .107.026c.054.014.075-.117-.128-.122-2.818-.355-4.861.814-5.089 1.043-.466.408.03 1.032.534 1.02Z" fill="#323147"/>
  <path d="M229.858 39.486c-11.17-.301-10.977-.345-20.786 4.953 0 0 2.674 7.383 5.156 8.498 5.183 2.307 10.337 2.567 13.758-1.496 3.561-4.224 1.872-11.955 1.872-11.955Z" fill="#464558"/>
  <path d="M229.858 39.486c-5.228-.142-7.962-.238-10.385.257.55 4.362-5.569 9.16-7.125 2.92-.589.31-2.625 1.401-3.3 1.78 0 0 2.671 6.573 4.136 8.018 4.544 3.414 10.908 3.3 14.486-.622 3.645-3.962 2.188-12.353 2.188-12.353Z" fill="#323147"/>
  <path d="M222.272 53.763c5.635-2.56-5.943 4.683-11.213-10.404-.747.396-1.604.867-1.993 1.056-.011-.048 3.18 13.91 13.206 9.348Z" fill="#2B2B37"/>
  <path d="M222.658 53.676c.907-1.826-.178-3.61-.906-5.27-.487-1.716 1.089-3.945-.607-5.288-1.995-.869-1.022 1.32-1.351 2.332-.727 2.293-1.485 4.212.467 6.13.661.688 1.395 1.36 1.771 2.238.246-.03.438-.074.626-.142Z" fill="#2B2B37"/>
  <path d="M229.858 39.486c-2.066-.169-6.846-.235-9.163.058.226 1.343.437 3.07 2.106 3.277 1.302.493 1.532 2.19.788 2.94-.289.294-.841.544-.325 1.036.605.549 2.035.709 1.698 1.798 1.144 1.593-2.49 5.046-8.856 4.577 3.773 1.56 8.329 1.98 9.694 1.064 6.058-3.947 4.058-14.75 4.058-14.75Z" fill="#2B2B37"/>
  <path d="M230.372 45.377c.258-1.781-.489-5.896-.489-5.896-.038-.169-3.686-.16-3.801-.108-.139.056-.932 1.603.52 4.116 1.48 2.633-.62 3.663-.7 4.999-.123 2.157-1.126 2.433-1.478 3.12-.177.344-.294.725-.559 1.013-1.548 1.792-5.06 1.392-7.855.575 2.123 2.564 5.819 5.585 7.237 5.013 1.72-.692 5.945-4.557 7.125-12.832Z" fill="#21212B"/>
  <path d="M227.737 47.743c-.153 1.124-.33 2.254-.703 3.301-.329 1.012-2.327 4.528-2.434 4.73 0 0 4.489-.554 6.625-1.314.165-.62.746-4.122.736-4.17-2.059-3.516 1.903-21.287-9.064-26.652-6.121-2.983-10.016-1.702-13.85 2.886-8.262 9.817 3.426 24.474 3.072 28.533-.016.155 2.343 3.427 2.348 3.451 2.315.037 5.986.58 7.782.227.869-.196 1.182-.722.394-1.634-.38-.447-1.47-1.013-1.924-1.113-3.586-.842-6.103-4.483-7.946-7.49-2.49-4.078-3.741-9.981-2.139-13.002 2.696-5.144 9.178-6.754 13.938-3.287 3.184 2.325 5.342 6.96 3.286 14.494-.05.34-.077.676-.121 1.04Z" fill="#464558"/>
  <path opacity=".32" d="M231.452 52.991c.141-.614.276-1.254.382-1.91.036-.288.044-.593.076-.905-1.623-3.158.827-16.154-4.937-23.298.435 1.372.648 2.77.512 4.194-.099 1.138-.377 2.265-.726 3.306 1.858 2.624 2.663 6.65 1.123 12.319-.049.341-.07.7-.12 1.04-.153 1.125-.33 2.255-.703 3.301a12.553 12.553 0 0 1-1.344 2.812c-.262.414-.588.766-.79 1.217-.171.368-.307.779-.596 1.072l.076.338a60.124 60.124 0 0 0 6.72-2.018c.094-.478.213-.96.327-1.468ZM223.448 30.257c-1.472-3.497-4.642-1.364-7.256-.7-3.664.95-4.009.319-5.448 4.064-.744 1.536-1.879 2.804-2.284 4.493-.255.894-.978 6.354 2.744 13.55 1.073 2.066 3.792 3.786 2.688 6.316 0 0 9.827 2.327 8.915-.712 0 0-1.605-1.16-2.088-1.28-3.586-.84-7.325-3.826-9.167-6.834-2.49-4.078-2.495-10.642-.918-13.658 2.477-4.764 8.272-6.498 12.879-3.935.1-.454.08-.88-.065-1.304Z" fill="#323147"/>
  <path d="M231.724 52.955c.116-.837.285-1.66.329-2.481-1.218-1.805-.622-6.932-1.267-12.616.101 2.588.384 11.395-2.196 13.674-1.82 1.6-1.836 3.784-3.957 4.159-.336.532-1.417 1.814-1.807 2.332 2.63-.591 5.981-2.486 8.66-3.646.076-.448.166-.95.238-1.422Z" fill="#323147"/>
  <path d="M210.628 35.471c2.037-3.905 6.305-5.777 10.3-4.927-.334-.127-.619-.494-.986-.436-1.638.267-2.044-.301-3.979-.221-.475.03-1.475.433-2.672 1.082-2.644 1.431-3.385 5.349-3.58 5.722-4.005 7.212 4.242 23.251 13.297 20.91-.047-.546-.804-.984-.987-1.12-.42-.286-.919-.478-1.402-.597-3.568-.871-6.101-4.356-7.943-7.364-2.161-3.519-3.606-8.365-2.638-11.725.202-.349.471-1.068.59-1.324Z" fill="#323147"/>
  <path d="M206.894 38.365c3.429-3.458 5.232-8.856 3.87-13.67-4.223 3.535-5.467 9.162-4.301 14.122.166-.165.313-.3.431-.452Z" fill="#575770"/>
  <g opacity=".25">
    <path opacity=".53" d="M216.493 29.54c-.932-.424-.602-2.678-1.001-3.55a7.537 7.537 0 0 1-.832-3.134c-.027-.12.053-.214.18-.217.096-.022.196.082.223.204.041 1.08.336 2.053.799 2.988.418 1.072.146 2.451.76 3.378.08.132.021.323-.129.331Z" fill="#2B2B37"/>
  </g>
  <path d="M224.351 31.904a7.876 7.876 0 0 0-1.448-.688c5.273 2.362 6.939 8.197 4.81 16.534-.205 1.566-.494 3.102-1.164 4.52 4.732-6.236 4.749-16.302-2.198-20.366Z" fill="#575770"/>
  <path d="M231.437 43.009c-.253-.679-.387-1.383-.477-2.123l-.024.005c.196 2.338-.224 4.866-.178 7.212.139 1.972-.63 3.843-1.57 5.525.808.325 2.156-1.347 2.567-1.997.754-.93.266-.898.212-1.924.575-2.513.606-4.242-.53-6.698Z" fill="#323147"/>
  <path d="M210.96 49.338c-.981-2.669-1.986-5.333-3.1-7.92l-.652.146c.746 1.962 1.466 3.929 1.585 6.03.019.985.139 1.971.922 2.632 1.231 1.193 1.526 2.951 1.913 4.562.629 1.329 3.754 3.16 4.534 2.91-1.891-1.755-4.635-6.739-5.202-8.36Z" fill="#464558"/>
  <path d="M210.196 50.218c-.029.505-.088 1.01 0 1.484.385 1.831 3.074 4.578 3.931 5.084.828.442 4.091.737 3.529-.21-2.068-1.39-7.46-6.484-7.46-6.358Z" fill="#464558"/>
  <path d="M209.192 55.245c.197.669.569 1.237.964 1.78.396.594.792 1.213 1.36 1.633.544.445 1.237.693 1.904.89 1.608.495 3.265.792 4.922.915 1.508.099 3.042.025 4.525.248 1.138.172 2.275.494 3.438.37.791-.073 1.534-.346 2.25-.667 1.187-.52 2.349-1.188 3.19-2.201.816-1.014 1.262-2.473.816-3.734-.098-.297-.321-.643-.642-.618-.198 0-.347.173-.495.297-2.275 2.275-5.169 4.03-8.309 4.303-.792.074-1.583.049-2.349 0-.594-.025-1.188-.05-1.756-.173-.792-.197-1.534-.593-2.325-.84-.791-.249-1.657-.323-2.448-.619-1.509-.568-2.622-1.928-3.66-3.214-.421-.52-.13-1.178-.427-1.698-1.135.567-1.255 2.34-.958 3.328Z" fill="#75A152"/>
  <path opacity=".37" d="M232.588 54.504c-.668-2.868-5.021 7.048-15.21 3.24.445.84.618 1.854.05 2.645 2.992.05 5.935.52 8.878.717 3.091-.494 7.32-2.942 6.282-6.602Z" fill="#568040"/>
  <path d="M232.588 54.504c-.569-2.324-3.635 3.735-9.448 4.006-2.225.197-4.402-.05-6.43-1.014-3.116-.346-5.333-2.354-6.496-5.27l-.114 1.487c.241 2.019 2.024 5.952 8.588 5.787 2.424.223 4.823 1.162 7.271.693 1.138-.05 2.745-1.336 3.611-.297 1.979-.966 3.76-3.117 3.018-5.392Z" fill="#568040"/>
  <path d="M211.739 56.012c.693 3.165 5.887 2.67 8.359 2.473-1.212 0-2.299-.593-3.413-.989-2.225-.346-4.155-1.211-5.515-3.14.248.569.396 1.112.569 1.656ZM228.186 58.906c2.992-.643 4.229-2.028 3.957-4.97-.273-.123-7.222 4.97-11.204 4.6.396.271 2.127 1.482 7.247.37Z" fill="#3E5C2E"/>
  <path d="M210.314 56.875c-.024.321.445.668.594.346.494-1.063-1.806-2.72-.965-1.138.099.199.371.496.371.792Z" fill="#AED888"/>
  <path d="M219.03 57.033c1.124-.076 13.09 1.85 13.243-7.385-.001-.456-.052-1.24.382-1.338 2.371 7.045-4.017 10.976-11.335 11.127-11.964.232-12.3-9.03-10.871-7.07.611.8 1.759 4.655 8.581 4.666Z" fill="#75A152"/>
  <path d="M214.002 57.094c-.512-.178-2.098-1.956-2.183-1.185-.057.457.679.542 1.035.778.516.318.9.92 1.499 1.079.77.015-.084-.557-.351-.672Z" fill="#AED888"/>
  <path opacity=".37" d="M232.662 50.003c-.445 0-.445-.47-.544-.025-1.904 7.84-11.13 7.122-14.221 6.677 4.353 1.162 4.675 2.547 4.749 2.769 5.688-.247 10.634-3.486 10.016-9.42Z" fill="#568040"/>
  <path d="M212.986 56.114c1.565 1.15 4.413 1.886 6.24 2.042 4.205.336 10.231 1.37 11.683-3.492.1-.336 2.302-.776 1.877-5.12-.226-.698-.575-.517-.676-.051-2.203 9.387-14.092 7.033-15.219 6.852-2.753-.543-5.343-2.214-6.219-3.662.403 1.422.916 2.404 2.314 3.43Z" fill="#568040"/>
  <path d="M227.889 56.383c2.053-2.349 3.462-2.448 3.907-3.19.495-.84.359-2.58.137-3.545-.653 4.294-5.118 7.5-11.987 7.041.247.024 6.632 1.178 7.943-.306Z" fill="#3E5C2E"/>
  <path d="M221.545 58.256c-2.102-.124-2.127.172-2.374.47-.42.717-1.755.519-1.013-.322-2.078 1.236-1.212-.816.717-.618.618.099 1.237-.173 1.855-.197l.815.667Z" fill="#568040"/>
  <path d="M209.833 89.558s.448-2.272.092-3.204c-.008-.028-.027-.052-.039-.081-.013-.03-.033-.06-.053-.09a.798.798 0 0 0-.075-.097c-.028-.038-.062-.076-.093-.115-.03-.03-.06-.065-.097-.1a6.237 6.237 0 0 0-.409-.385l-.078-.072h-.003a3.82 3.82 0 0 0-.194-.168c-.032-.025-.062-.054-.096-.082-.078-.064-.159-.127-.242-.194-.06-.048-.119-.096-.184-.146-1.142-.909-2.565-1.96-3.075-2.712a1.283 1.283 0 0 1-.169-.322c-.124-.38-.28-.7-.45-.927-.122-.158-.253-.263-.385-.305a.405.405 0 0 0-.107-.019.4.4 0 0 0-.274.109.57.57 0 0 0-.075.078c-.091.107-.18.267-.258.482-.145.396-.256.979-.264 1.632-.005.36.024.74.098 1.117.101.504.279 1.005.567 1.451.064.106.141.208.219.307.291.356.666.67 1.145.908.269.132.535.27.795.418a27.222 27.222 0 0 1 3.707 2.518h-.003Z" fill="#D58500"/>
  <path opacity=".36" d="M209.833 89.558s.449-2.272.092-3.204c-.008-.028-.026-.052-.039-.081a.798.798 0 0 0-.128-.187c-.028-.038-.061-.076-.093-.116-.03-.029-.06-.064-.096-.098a6.54 6.54 0 0 0-.41-.386 1.328 1.328 0 0 1-.073-.07h-.003c-.062-.053-.126-.11-.197-.168-.032-.024-.062-.053-.096-.08-.08-.061-.159-.129-.242-.196a7.917 7.917 0 0 0-.184-.145c-.472.006-1.106-.095-1.954-.37-3.325-1.064-2.198-3.732-2.126-3.899a.405.405 0 0 0-.107-.019.4.4 0 0 0-.274.109.564.564 0 0 0-.075.078c-.091.107-.18.267-.258.482-.145.396-.256.979-.264 1.632-.005.36.024.74.098 1.117.101.504.279 1.005.567 1.451.064.106.141.208.219.306.291.357.666.67 1.145.909.269.132.535.27.795.418a27.222 27.222 0 0 1 2.767 1.794 22.187 22.187 0 0 1 .94.724h-.004Z" fill="#B45F00"/>
  <path opacity=".37" d="M205.286 82.108a1.31 1.31 0 0 1-.168-.319c-.121-.381-.28-.7-.449-.927-.172.383.162 1.103.522 1.27a.291.291 0 0 0 .093-.02l.002-.004Z" fill="#E2A040"/>
  <path d="M205.049 82.163c-.134-.118-.759-.738-.466-1.35-.343.521-.104 1.109.466 1.35Z" fill="#B45F00"/>
  <path d="M209.431 91.93s.225-1.315.385-2.393c.068-.45.122-.86.143-1.116.055-.576-1.39-1.886-2.974-2.965a21.55 21.55 0 0 0-.98-.622c-.021-.013-.039-.022-.039-.022a13.619 13.619 0 0 0-.894-.491 6.233 6.233 0 0 0-1.032-.417c-.141-.04-.363-.02-.64.048a7.9 7.9 0 0 0-.99.342l-.339.148-.038.017c-.076.036-.159.073-.239.115l-.098.043c-.143.07-.288.14-.431.218l-.012.005c-.421.217-.857.464-1.282.728-.01.009-.023.02-.038.028-.042.025-.082.054-.124.08-.034.018-.066.042-.096.062-.064.039-.127.08-.187.121l-.096.063c-.285.188-.554.389-.805.583a4.315 4.315 0 0 0-.763.766c-.013.016-.024.032-.038.048l-.025.04-.006.003c-.269.379-.441.79-.509 1.223-.045.26-.052.526-.023.802.028.299.103.606.219.918a5.738 5.738 0 0 0 .69 1.274l.081.11c.293.402.757.986 1.308 1.603l.002.006c.209.153.425.308.648.47l.411.293c.062.043.126.085.188.13.074.055.15.107.227.162.058.045.119.086.178.123.079.058.163.113.241.17.011.01.027.02.042.031.095.062.19.126.283.191.166.115.332.225.489.333.354.24.687.462.982.658.178.116.338.223.482.318.101-.012.199-.037.291-.078 1.022-.451 2.921-2.003 4.181-3.079.724-.621 1.233-1.082 1.233-1.082l-.006-.009Z" fill="#D58500"/>
  <path d="M208.323 92.66c.047-.173.084-.349.106-.524.06-.475.03-.954-.078-1.433-.285-1.31-1.128-2.602-2.207-3.669a10.794 10.794 0 0 0-2.159-1.633 7.99 7.99 0 0 0-1.599-.694 5.674 5.674 0 0 0-.707-.16 3.669 3.669 0 0 0-.63-.053 2.754 2.754 0 0 0-.895.128 5.5 5.5 0 0 0-.779.329c-.024.01-.048.027-.074.039-.043.023-.083.051-.131.072-.04.021-.082.047-.124.072-.067.04-.13.075-.191.12-.01 0-.018.008-.027.012-.47.298-.936.679-1.329 1.128a5.208 5.208 0 0 0-.31.394 4.115 4.115 0 0 0-.444.778c-.027.065-.053.136-.079.205a2.334 2.334 0 0 0-.084.267 2.564 2.564 0 0 0-.062.278c-.017.075-.023.148-.031.222-.008.013-.012.029-.006.04-.02.204-.022.41.002.626.004.058.011.115.022.178a2.862 2.862 0 0 0 .087.4v.003c.128.453.357.925.71 1.414a7.321 7.321 0 0 0 .713.828c.216.22.552.5.96.819.074.053.148.111.228.173.117.09.239.181.367.273l.003.006c.209.153.425.308.647.469l.412.293c.061.044.126.086.187.13.074.056.15.108.227.163.058.045.119.086.178.123.079.058.163.113.241.17.011.01.027.02.042.031.094.061.19.125.282.191.167.115.333.225.489.333.353.241.687.462.982.658.178.116.338.222.482.318.209.138.386.251.515.336.018.017.036.027.056.04l.049.03c.091.063.144.097.144.097s.05-.001.141-.01c.051-.004.114-.014.19-.026h.003l.094-.021c.102-.02.216-.048.338-.091.043-.016.087-.028.129-.046a4 4 0 0 0 .528-.255 2.14 2.14 0 0 0 .196-.125 3.69 3.69 0 0 0 .498-.395l.003-.001c.072-.07.146-.142.221-.221.034-.037.063-.074.097-.11.12-.13.234-.28.35-.443l.083-.125c.034-.05.067-.107.103-.162.028-.047.055-.099.087-.148.01-.016.017-.032.03-.052l.079-.148a6.71 6.71 0 0 0 .444-1.04c.002-.005.009-.014.006-.02.024-.06.042-.121.061-.183a.265.265 0 0 0 .012-.038c.038-.115.071-.232.106-.354l.016-.007Z" fill="#D58500"/>
  <path opacity=".36" d="M209.44 91.943s.226-1.315.386-2.393c.014.008.017.014.017.014s.448-2.272.092-3.204c-.009-.029-.027-.052-.039-.082a1.011 1.011 0 0 0-.129-.187c-.028-.038-.062-.076-.094-.115-.03-.03-.06-.065-.096-.099a6.21 6.21 0 0 0-.409-.385l-.075-.066-.003-.006-.002.001a6.298 6.298 0 0 0-3.106-.6c.006.005.018.007.037.02.109.055.425.22.812.495l.002.007c.005.001.011.006.014.008.003.006.009.003.011.009l.138.106c.85.648 1.922 1.786 1.908 3.372.001.3-.044.617-.134.954-.089.336-.235.64-.427.919-.363.527-.878.948-1.489 1.28-2.193 1.198-5.551 1.223-6.843.503a3.7 3.7 0 0 1-.363-.23c-.677-.463-1.45-1.194-2.165-1.944-.361-.38-.7-.757-1.01-1.109-.748-.849-1.286-1.535-1.339-1.593-.126-.14-3.137-.808-4.508-2.16.042.111.092.21.117.267.126.28 3.117 2.084 4.277 2.721.434.238 1.01.77 1.562 1.344l.001.002c.128.454.357.925.709 1.414.068.09.136.181.213.274a7 7 0 0 0 .501.554c.216.22.552.5.96.82.072.052.148.11.228.172.117.09.238.182.367.273l.003.006c.208.152.425.308.648.468l.411.294c.062.044.127.086.189.13.074.055.15.107.226.161.059.045.119.086.179.124.078.057.162.112.241.17a8.85 8.85 0 0 1 .324.222l.489.333c.352.242.687.463.981.658.178.116.338.223.483.32l.515.335 2.375-.81h.003c.071-.07.146-.142.221-.221.034-.037.063-.074.097-.11.12-.13.235-.28.35-.443.028-.04.055-.084.083-.124.035-.05.067-.107.103-.162.028-.048.055-.099.087-.148.011-.016.018-.033.03-.052a7.227 7.227 0 0 0 .525-1.188c.002-.005.008-.015.006-.02.022-.06.042-.122.061-.183l.012-.038c.724-.621 1.232-1.082 1.232-1.082l.005.004Z" fill="#B45F00"/>
  <path opacity=".36" d="M208.321 92.654c.047-.173.084-.348.106-.524a34.513 34.513 0 0 0-1.565-.15 58.185 58.185 0 0 0-2.123-.126c-1.577-.065-2.853-.32-3.887-.687-1.863-.66-2.937-1.673-3.555-2.575a5.173 5.173 0 0 1-.556-1.025c-.028.065-.053.136-.08.205-.061.174-.11.359-.143.544-.017.075-.023.148-.03.222a.05.05 0 0 0-.007.042c-.02.204-.022.41.002.624a3.114 3.114 0 0 0 .108.578l.001.003c.128.454.356.925.708 1.414.069.09.136.18.213.274a7 7 0 0 0 .501.554c.217.22.552.5.961.819.072.053.148.111.227.173.117.09.239.181.368.273l.002.005c.209.153.426.308.649.47l.411.293c.061.043.126.085.187.13.072.056.15.107.227.161.058.045.119.086.178.124.079.057.163.112.241.17a7.942 7.942 0 0 1 .323.222c.167.114.333.225.489.333.353.241.688.463.982.658.178.116.338.223.482.32l.516.335c.018.017.037.026.056.039l.049.03c.091.064.144.097.144.097s.05 0 .141-.01c.051-.004.114-.014.189-.026h.003c.032-.008.061-.014.094-.02.101-.02.216-.05.339-.093.043-.016.086-.028.128-.046a3.622 3.622 0 0 0 .723-.381c.05-.033.099-.065.146-.103.118-.087.236-.181.353-.293h.002c.072-.07.147-.142.222-.222.033-.035.063-.074.096-.11.12-.13.234-.28.35-.443.028-.04.054-.084.083-.125.034-.05.066-.107.102-.162.028-.047.056-.098.087-.148.011-.015.017-.033.03-.052a7.212 7.212 0 0 0 .525-1.189c.002-.003.008-.013.005-.02.024-.06.042-.121.062-.183.005-.013.011-.037.011-.037.039-.115.072-.233.106-.354l.018-.008Z" fill="#B45F00"/>
  <path opacity=".37" d="M202.886 82.624a.71.71 0 0 1 .165-.001l.003-.001c.369.325.753.644 1.13.953.117.38-.045.695-.404.74-.426.052-.969-.283-1.217-.75-.243-.466-.1-.89.323-.94Z" fill="#E2A040"/>
  <path d="M195.26 78.799c-.013-.061-.017-.12-.025-.177-.002-.054-.008-.106-.008-.155 0-.05 0-.096.006-.14l.004.002c.051-.44.367-.493.839-.343.209.063.443.17.699.297.548.272 1.19.647 1.821.975.456.235.886.463 1.248.668.708.39 1.197.683 1.277.768.289.312.646.682 1.021 1.069.283.292.589.578.907.86l.003-.001c.37.326.753.645 1.129.954.421.348.829.69 1.201 1.028.142.26-.828 1.06-1.795 1.354-.314.098-.624.14-.899.094h-.008a1.843 1.843 0 0 1-.854-.496c-.445-.426-.801-1.061-1.265-1.731-.039-.047-.075-.098-.113-.152l-.131-.177a6.823 6.823 0 0 0-1.127-1.215c-.061-.051-.121-.099-.183-.153-.008-.007-.016-.01-.026-.017-.211-.158-.49-.368-.798-.611-1.188-.928-2.82-2.277-2.886-2.502a2.997 2.997 0 0 1-.037-.2Z" fill="#D58500"/>
  <path opacity=".36" d="M202.817 86.22c-.046-.057-.095-.11-.136-.165-2.434-2.944-1.251-4.107-.542-4.287-.376-.39-.732-.757-1.022-1.072-.079-.085-.569-.379-1.278-.768a.429.429 0 0 1-.056.24c-.29.492-1.614.256-2.954-.527-.695-.409-1.26-.882-1.601-1.313-.001.047-.005.092-.005.14 0 .099.013.21.032.333.012.058.023.124.04.195.087.286 2.693 2.384 3.712 3.132.065.05.124.098.182.15.528.46.927.936 1.263 1.394.035.056.074.105.109.154.468.653.824 1.264 1.269 1.73.007.007.017.013.021.022.272.274.582.498.97.64l-.004.003Z" fill="#B45F00"/>
  <path d="M201.498 87.348c1.424.544 2.648-.491 2.444-.885-.486-.936-3.01-3.087-4.853-4.371-.705-.493-1.313-.856-1.659-.975-.024-.008-.048-.011-.068-.017a13.187 13.187 0 0 0-1.252-.235c-1.103-.17-2.58-.345-3.771-.483-.797-.093-1.201.187-1.325.542-.005.02-.012.037-.019.061a.842.842 0 0 0 .039.516c.021.048.042.095.072.138a.873.873 0 0 0 .205.235.795.795 0 0 0 .285.144c.292.076 3.18.785 4.358 1.252 1.175.463 4.772 3.624 4.772 3.624.263.213.521.359.77.45l.002.004Z" fill="#D58500"/>
  <path opacity=".36" d="M200.725 86.892c.263.213.218.463.173.426-5.072-4.402-2.442-5.111-1.811-5.229-.705-.493-1.313-.855-1.658-.976-.025-.007-.048-.01-.068-.016a13.52 13.52 0 0 0-1.252-.236.438.438 0 0 1 .022.227c-.095.565-1.388.818-2.803.58-1.416-.237-2.047-.483-2.314-.744-.005.02-.012.037-.019.061a.842.842 0 0 0 .039.516c.021.048.042.096.072.14.013.021.026.044.043.065a.717.717 0 0 0 .162.17.773.773 0 0 0 .285.143c.292.076 3.18.786 4.358 1.252 1.175.463 4.773 3.624 4.773 3.624l-.002-.003Z" fill="#B45F00"/>
  <path d="M199.626 88.915c1.435.459 2.616-1.49 2.137-1.574-.557-.095-3.341-3.249-4.282-3.465-.184-.04-.427-.135-.72-.256l-.008-.004-.216-.096a8.42 8.42 0 0 1-.21-.091l-.333-.155a6.832 6.832 0 0 1-.333-.154 2.269 2.269 0 0 1-.181-.083c-.058-.028-.119-.054-.182-.083-.122-.052-.249-.11-.374-.168a26.16 26.16 0 0 0-.679-.3c-.109-.048-.221-.094-.331-.141a5.291 5.291 0 0 0-.861-.335c-.075-.027-.152-.057-.226-.08-.141-.048-.283-.09-.417-.129a6.155 6.155 0 0 0-.389-.105 3.648 3.648 0 0 0-.447-.076c-1.01-.094-.895.57-.728.998.046.13.101.239.13.296.449.902 3.317 2.047 4.541 2.67.822.417 2.067 1.57 2.796 2.287.359.35.593.595.593.595.25.233.494.373.731.45h-.011Z" fill="#D58500"/>
  <path opacity=".36" d="M198.319 87.87a1.877 1.877 0 0 0-.184-.435c-.945-1.629-2.112-2.8-1.707-3.51a.756.756 0 0 1 .347-.305l-.008-.004c-.069-.029-.144-.064-.218-.095-.068-.034-.141-.062-.211-.094-.42-.19-.901-.418-1.404-.646a.663.663 0 0 1 .004.493c-.26.6-1.571.608-2.926.019a5.318 5.318 0 0 1-1.161-.678c.046.128.099.24.13.296.446.904 3.315 2.049 4.538 2.671.823.417 2.065 1.572 2.797 2.287h.003Z" fill="#B45F00"/>
  <path d="M200.827 91.216c.272-.461.353-.903.157-.941-.247-.047-.931-.751-1.682-1.52l-.008-.004a31.957 31.957 0 0 0-1.004-1.005c-.157-.15-.312-.29-.454-.416a4.978 4.978 0 0 0-.459-.36c-.006.002-.008-.003-.008-.003a1.618 1.618 0 0 0-.214-.133.629.629 0 0 0-.182-.076 5.864 5.864 0 0 1-.817-.306 44.192 44.192 0 0 1-.723-.319c-.105-.045-.207-.093-.317-.143l-.163-.073a8.494 8.494 0 0 1-.337-.15 3.74 3.74 0 0 0-.25-.11c-.058-.026-.116-.054-.175-.078-.088-.039-.18-.076-.268-.118h-.003c-.09-.037-.183-.078-.274-.117-.436-.18-.874-.348-1.288-.485-.054-.019-.11-.033-.163-.05-.135-.042-.268-.076-.396-.112-.949-.24-1.222-.014-1.251.291a.3.3 0 0 0-.004.094.343.343 0 0 0 .011.105c.015.093.044.19.076.27.042.113.093.211.117.268.126.28 3.118 2.085 4.278 2.721.433.238 1.01.77 1.562 1.344a30.174 30.174 0 0 1 1.579 1.785c.005.004.006.008.011.016.126.15.198.241.198.241.229.233.452.37.676.435.044.012.086.022.128.029l.019.001c.038.009.077.009.118.012l.111-.002a.435.435 0 0 0 .06-.008.9.9 0 0 0 .148-.029l.011-.005.01-.004c.33-.1.627-.335.861-.615.022-.028.045-.056.067-.087.059-.075.114-.153.162-.227.024-.042.049-.08.069-.117l.011.001Z" fill="#D58500"/>
  <path opacity=".36" d="M200.822 91.21c-.715-.138-1.543-.46-2.36-.953a8.24 8.24 0 0 1-1.195-.861 6.474 6.474 0 0 1-.79-.816c-.582-.73-.803-1.436-.524-1.905a.875.875 0 0 1 .201-.226c-.221-.093-.464-.203-.723-.319-.105-.045-.208-.093-.317-.143-.053-.023-.11-.048-.163-.073a9.845 9.845 0 0 1-.337-.15 4.27 4.27 0 0 0-.25-.109c-.127.162-.38.326-.821.466-2.034.65-2.998-1.137-2.998-1.137a.298.298 0 0 0-.004.095 1.302 1.302 0 0 0 .087.376c.042.112.093.21.117.266.127.28 3.118 2.085 4.277 2.722.433.237 1.01.77 1.562 1.343a30.141 30.141 0 0 1 1.788 2.044c.23.232.453.37.676.435a.964.964 0 0 0 .148.03c.038.008.077.009.118.013l.111-.003a.457.457 0 0 0 .06-.008.9.9 0 0 0 .128-.024c.01-.001.019-.006.019-.006l.012-.005c.005.004.009.004.011.002.331-.1.628-.336.862-.615.022-.029.046-.056.067-.087.06-.076.114-.153.163-.227.024-.042.049-.081.068-.118l.007-.006ZM198.508 81.697s2.318 1.584 2.572 1.75c.252.164 1.336.837 1.459.95.124.111-.269.464-.483.106-.214-.359-3.546-2.802-3.546-2.802l-.002-.004ZM206.822 85.334s1.735 1.108 2.017 1.189c.282.08-.082.28-.413-.024-.331-.304-1.607-1.164-1.607-1.164l.003-.001ZM195.657 83.037c1.562.095 4.225 2.451 4.716 2.9.491.448.855.246.633.596-.223.348-2.178-1.657-2.948-2.19-.705-.485-2.399-1.308-2.399-1.308l-.002.002ZM199.171 88.369c.236.069.112.502-.063.218-.175-.284-1.966-1.757-1.966-1.757.566.145 1.793 1.47 2.029 1.539Z" fill="#B45F00"/>
  <path opacity=".37" d="M192.076 80.422a.486.486 0 0 0-.204.016c-.286.105-.162.414.029.51.679.346 1.037-.44.175-.526ZM196.776 78.283a5.191 5.191 0 0 0-.699-.297c-.172.093-.121.35.011.468.416.375.827.114.688-.171ZM191.659 82.153c.714.313 1.129-.086.754-.355a6.567 6.567 0 0 0-.39-.105 3.648 3.648 0 0 0-.447-.076c-.358.094-.173.42.085.532l-.002.004ZM191.615 84.838a.455.455 0 0 0-.203.03c-.276.127-.132.424.064.508.702.293 1.004-.515.139-.538Z" fill="#E2A040"/>
  <path d="M190.955 84.866c-.092.493.629 1 1.086.68-.548.579-1.522-.24-1.086-.68ZM191.279 81.705c-.122.573.887 1.134 1.523.746-.763.696-2.134-.22-1.523-.746ZM191.604 80.562c-.113.484.88.9 1.491.547-.73.615-2.075-.082-1.491-.547ZM195.765 78.107c.002.576.915 1.005 1.361.548-.493.767-1.761.037-1.361-.548Z" fill="#B45F00"/>
  <path opacity=".37" d="M201.928 85.77c.204-.227.086-.666-.264-.98-.35-.314-.799-.384-1.004-.157-.204.228-.086.667.264.981.35.313.799.384 1.004.156ZM200.514 87.779c.212-.303.006-.813-.46-1.139-.466-.326-1.015-.343-1.228-.04-.212.303-.006.813.46 1.138.466.326 1.017.344 1.228.041ZM198.647 89.537c.147-.21.005-.565-.319-.791-.323-.226-.705-.239-.853-.027-.148.21-.005.565.319.791.324.226.706.239.853.027Z" fill="#E2A040"/>
  <path d="M214.023 88.576c-1.21-.913-3.574-2.728-4.587-3.748-.788-.216-6.613-.139-8.524.31.649 2.392 4.591 13.999 6.55 14.417 1.83.792 4.802 2.259 6.561 3.14v-14.12Z" fill="#575771"/>
  <path opacity=".25" d="M214.023 93.558c-7.423 2.673-11.253-7.446-11.486-8.641a40.5 40.5 0 0 0-1.625.22s3.981 13.308 6.55 14.418c1.827.799 4.813 2.246 6.561 3.148v-9.145Z" fill="#2B2B37"/>
  <path opacity=".14" d="M214.023 88.575c-1.21-.912-3.574-2.728-4.587-3.747 0 0-1.578-.186-3.965-.116.012.347 4.763 7.01 8.552 4.187v-.324Z" fill="#A4A4A4"/>
  <path opacity=".25" d="M214.023 99.056c-6.33 1.127-11.286-7.86-11.557-9.199 3.683 10.216 3.505 8.92 11.557 12.847v-3.648Z" fill="#2B2B37"/>
  <path d="M260.925 100.324c-4.562 8.693-16.251 5.651-24.314 4.946-5.348-.828-12.143-.653-16.261-4.733-1.803-2.031-4.055-4.324-3.875-6.987 10.634-3.262 19.879-4.302 32.385-6.141 2.783-.711 9.265-.796 10.093 1.21 1.708 4.37 2.807 8.09 1.972 11.705Z" fill="#464558"/>
  <path opacity=".29" d="M260.925 100.324c-5.167 9.457-18.085 5.169-26.813 4.693-.262-.213-8.41-1.143-11.846-2.882-2.501-1.897-5.93-5.421-5.797-8.559.522-.083 9.529.587 20.754.127 4.919-.202 10.79 4.083 15.676.072 2.054-1.45 2.185-6.78-3.881-6.412 2.869-.601 9.333-.835 9.995 1.473 1.554 4.07 2.758 7.501 1.912 11.488Z" fill="#2B2B37"/>
  <path opacity=".29" d="M254.934 105.449c-5.482 1.904-12.764.307-18.323-.179-5.348-.828-12.143-.652-16.261-4.733-1.797-2.025-4.041-4.31-3.876-6.962l8.836-2.337c-1.11 5.13 7.163 10.742 17.417 10.056 10.091-.673 12.144 4.004 12.207 4.155Z" fill="#2B2B37"/>
  <path opacity=".29" d="M224.705 103.215s3.567-4.456 8.545-6.835c.947-.452 5.464-.779 8.418-1.988 6.321-2.586 7.349-7.03 7.349-7.03l-32.543 6.212c0 .001-1.428 5.456 8.231 9.641Z" fill="#2B2B37"/>
  <path d="M233.739 82.535s2-2.76 4.078-3.134c2.078-.374 3.133-.443 3.893-.907.76-.465 2.382-1.379 2.382-1.379s1.114.744.342 2.39c-.539 1.147-6.7 3.856-6.7 3.856l-3.995-.826Z" fill="#D58500"/>
  <path opacity=".36" d="M244.434 79.505c-.539 1.147-6.699 3.856-6.699 3.856l-3.996-.826s.911-1.258 2.143-2.19c0 0 .03.826 2.057.748.71-.028 2.755-1.612 3.844-1.624 3.388-.039 2.339-2.288 2.31-2.353.038.026 1.099.773.341 2.39Z" fill="#B45F00"/>
  <path opacity=".37" d="M241.056 78.784c-.617 2.129-4.946 1.467-5.029 1.454.556-.4 1.17-.725 1.791-.837 1.546-.278 2.525-.388 3.238-.617Z" fill="#E2A040"/>
  <path d="M242.265 78.406s1.508.433 1.785-.702c0 0-.506.619-1.785.702Z" fill="#B45F00"/>
  <path d="M243.425 79.695c1.389.089 2.69 1.08 2.428 2.231 0 0 2.016.67 1.624 2.344 0 0 1.199 1.697.044 3.056 0 0 .557 1.772-.714 2.553-1.355.833-7.612 3.398-7.612 3.398l-4.346-9.632s5.896-4.12 8.576-3.95Z" fill="#D58500"/>
  <path opacity=".37" d="M245.159 81.532c.222-.332-.035-.891-.572-1.25-.538-.358-1.153-.38-1.374-.048-.222.331.035.89.572 1.25.538.358 1.153.38 1.374.048ZM246.812 84.063c.243-.22.087-.787-.348-1.265-.435-.478-.984-.686-1.227-.465-.243.22-.087.787.348 1.265.435.478.984.686 1.227.465ZM247.532 86.53c.242-.22.212-.65-.068-.957-.281-.308-.705-.379-.947-.158-.243.22-.213.65.068.957.28.308.704.38.947.158Z" fill="#E2A040"/>
  <path opacity=".36" d="M245.884 81.713s-.594.31-1.406.405c-.813.095-.247.732.016.463.263-.27 1.359-.654 1.359-.654l.031-.214ZM247.52 84.004s-.44.381-1.225.53c-.503.094-.094.87.312.344.405-.526.869-.607.869-.607l.044-.267ZM247.726 87.042s-.965.352-1.18.51c-.27.2-.244.285.074.2.482-.128.901-.426.901-.426l.205-.284Z" fill="#B45F00"/>
  <path opacity=".36" d="M247.637 88.025s-3.936 3.747-7.913 1.213c-3.977-2.534-4.425-4.596-4.425-4.596l3.896 8.635 6.179-2.667c0-.001 2.599-.724 2.263-2.585Z" fill="#B45F00"/>
  <path opacity=".36" d="m240.252 82.18 3.366-.426s1.499 7.205-.527 9.84l-3.896 1.683 1.057-11.097Z" fill="#B45F00"/>
  <path d="M220.616 92.314c2.394 4.147-.039 9.145-2.657 10.537-1.097.584-4.249-1.021-6.644-5.169-2.395-4.147-1.743-10.8 1.2-11.163 2.167-.265 5.706 1.647 8.101 5.795Z" fill="#575771"/>
  <path d="M220.981 92.314c2.395 4.147-.309 8.946-2.927 10.339-1.097.584-3.978-.822-6.373-4.97-2.395-4.147-1.917-10.824 1.042-11.02 2.491-.167 5.863 1.504 8.258 5.65Z" fill="#2B2B37"/>
  <path d="M218.396 86.95s-3.979.942-12.511.371-19.15 1.36-20.793 2.986c-1.642 1.626-3.603 16.39 1.961 15.6 5.564-.791 6.306-.598 8.478.031 2.173.628 14.982 1.376 26.11-6.182 11.129-7.558-3.245-12.807-3.245-12.807Z" fill="#464558"/>
  <path opacity=".29" d="M221.641 99.757c-11.127 7.558-23.936 6.809-26.109 6.182-2.172-.629-2.914-.822-8.478-.032-5.564.792-3.603-13.973-1.961-15.6.944-.933 4.851-1.969 9.623-2.572l.194.022s-4.799 3.69-.998 7.823c3.8 4.133 8.106-3.006 11.56-3.023 3.423-.017 3.84-4.986 3.847-5.074 6.171.156 9.077-.533 9.077-.533s14.374 5.249 3.245 12.807Z" fill="#2B2B37"/>
  <path opacity=".29" d="M221.641 99.757c-11.127 7.558-23.936 6.809-26.109 6.182-1.889-.547-2.696-.765-6.531-.293.048-.09 2.578-4.789 11.349-2.645 8.815 2.154 19.862-7.967 15.266-15.674a6.454 6.454 0 0 0-.067-.11l1.623-.06 1.597-.06c2.188.899 12.916 5.838 2.872 12.66Z" fill="#2B2B37"/>
  <path opacity=".29" d="M212.601 87.487s5.694 4.013 3.123 15.514l4.776-2.358s1.934-11.353-6.058-13.23l-1.841.075Z" fill="#2B2B37"/>
  <path d="M212.515 86.52s10.749 5.41 5.444 16.332c0 0 12.194-7.855 14.756-7.715 2.562.14 8.869-.717 10.262-4.813.996-2.93.96-9.227.96-9.227s-3.801-.506-9.087.892c-4.081 1.08-3.151 2.951-7.834 3.216-4.683.266-14.501 1.316-14.501 1.316Z" fill="#575771"/>
  <path opacity=".25" d="M243.469 88.181c-.127.8-.287 1.543-.492 2.143-1.393 4.096-7.7 4.953-10.262 4.813-2.562-.14-14.756 7.715-14.756 7.715 2.248-4.628 1.614-8.265.136-10.922 0 0 8.42-.466 6.683-6.571.819-.063 1.58-.116 2.238-.154 2.651-.15 3.427-.83 5.369-2.186 0 0 4.177 7.234 11.035 5.176l.049-.014Z" fill="#2B2B37"/>
  <path opacity=".25" d="M242.977 90.324c-1.393 4.096-7.7 4.953-10.262 4.813-2.562-.14-14.756 7.715-14.756 7.715.994-2.046 1.425-3.898 1.468-5.56 0 0 11.443-1.266 11.287-6.435-.156-5.169 1.715-2.689 3.435-.718 1.719 1.971 6.326 3.507 8.828.185Z" fill="#2B2B37"/>
  <path opacity=".14" d="M243.719 86.103c-7.158-.263-8.869-4.113-8.869-4.113 5.286-1.398 9.086-.893 9.086-.893s.014 2.45-.217 5.006Z" fill="#A4A4A4"/>
  <path opacity=".25" d="m236.896 94.716-.012.002-1.8.317c-.926.112-1.755.136-2.369.102-.518-.028-1.431.27-2.556.766h-.002s2.714-4.026 1.45-6.309c-1.264-2.283-4.591-4.389-4.591-4.389 1.729-.097 2.693-.415 3.427-.83 0 0 3.44.839 3.729 2.988.289 2.15-1.563 3.821-.433 5.085 1.115 1.247 3.102 2.24 3.156 2.267h.001Z" fill="#2B2B37"/>
  <path d="M218.164 88.628c-.036-.085-.018-.164.022-.2.018-.015.05-.024.077-.032 7.77-1.251 14.293 2.953 14.35 2.997.096.067.14.181.107.275-.044.082-.148.1-.25.039-.064-.036-6.438-4.145-14.059-2.914-.095.011-.207-.058-.244-.162l-.003-.003Z" fill="#323147"/>
  <path d="M220.395 98.254c-.095-.017-.154-.078-.166-.136a.186.186 0 0 1 .014-.088c3.222-7.812 10.65-11.329 10.722-11.355.114-.047.243-.025.306.061.047.088.008.194-.104.253-.072.04-7.328 3.471-10.488 11.138a.26.26 0 0 1-.284.131v-.004Z" fill="#323147"/>
</svg>
