<?xml version="1.0" encoding="UTF-8"?>
<svg width="158px" height="185px" viewBox="0 0 158 185" version="1.1" xmlns="http://www.w3.org/2000/svg" xmlns:xlink="http://www.w3.org/1999/xlink">
    <title>Group 19</title>
    <g id="Extension-2.1" stroke="none" stroke-width="1" fill="none" fill-rule="evenodd">
        <g id="7.1-copy-7" transform="translate(-84.000000, -48.000000)">
            <g id="Group-19" transform="translate(84.000000, 48.000000)">
                <g id="Group-6">
                    <g id="Atoms/Illustrations/vpn/disabled/dark-mode" transform="translate(0.000000, 37.695775)">
                        <path d="M38.5236663,16.514749 C30.9339749,20.6744105 26.4896342,26.5599752 25.1906442,34.1714433 C23.8916543,41.7829113 27.3232467,45.0778259 35.4854216,44.0561869 L49.1472362,39.3584446 L38.5236663,16.514749 Z" id="Path-2" fill="#202020"></path>
                        <path d="M114.523666,16.514749 C106.933975,20.6744105 102.489634,26.5599752 101.190644,34.1714433 C99.8916543,41.7829113 103.323247,45.0778259 111.485422,44.0561869 L125.147236,39.3584446 L114.523666,16.514749 Z" id="Path-2" fill="#202020" transform="translate(113.035180, 30.376143) scale(-1, 1) translate(-113.035180, -30.376143) "></path>
                        <g id="Group" transform="translate(0.000000, 127.518814)" fill="#B9C5C9" fill-rule="nonzero">
                            <ellipse id="Oval" cx="79.3080295" cy="14.1763789" rx="78.6441664" ry="4.13065884"></ellipse>
                            <path d="M127.491332,3.36010518 C125.866562,5.28442844 125.139502,7.81529181 125.493845,10.31327 C125.586629,8.69946616 126.294583,7.18354284 127.470728,6.08021981 C126.975819,7.2837903 126.896039,8.61908689 127.244092,9.87347372 C127.672586,8.57104981 128.549308,7.46473898 129.716813,6.75321671 C128.880987,7.84594217 129.043447,9.40475841 130.086451,10.2999152 C130.196086,8.31763655 130.629516,6.36696121 131.369389,4.52597411 C131.866754,6.25472222 132.124836,8.04401464 132.136368,9.84346659 C132.671501,8.30938638 133.616687,6.95285968 134.868361,5.92252195 C134.197334,7.51809201 133.827623,9.22511606 133.778092,10.9564985 C134.790266,9.05921404 136.350299,7.51398137 138.253112,6.52393296 C136.83962,8.44910501 135.95006,10.7110873 135.672143,13.0868483 L128.309256,13.2065337 C127.10112,13.2261778 122.619081,13.9699101 121.958419,12.8691884 C121.035247,11.3310281 125.76567,3.36010518 127.491332,3.36010518 Z" id="Path"></path>
                            <path d="M140.602633,9.30022704 C140.951572,10.1337963 141.387032,10.9280885 141.901793,11.6699327 C142.102334,10.6081232 142.221617,9.53244488 142.258596,8.45233525 C142.756039,9.06038187 143.088705,9.7871753 143.224365,10.5623023 C143.444127,8.2593589 143.378829,5.93793199 143.029965,3.65112663 C143.156528,4.61609489 143.415239,5.55886639 143.798756,6.45269027 C144.345849,8.055607 144.634773,9.73595305 144.654628,11.4303381 C145.057817,10.1833492 145.793627,9.07125143 146.782058,8.21495658 C146.974376,9.32592022 146.940698,10.4645001 146.683057,11.5620353 C147.123417,10.2710563 147.999972,9.17575185 149.160524,8.46630177 C148.494172,9.57352815 148.117139,10.8319258 148.064432,12.1246579 C148.604587,11.1249179 149.536492,10.3977553 150.634446,10.119283 C149.643828,11.2010121 148.980507,12.5438325 148.722145,13.9905242 C146.552014,13.4539993 144.27555,13.8434429 142.174204,13.4025276 C140.13502,12.9746536 141.331064,11.0408199 140.602633,9.30022704 Z" id="Path"></path>
                            <path d="M111.929971,13.0810588 C112.957938,11.5311179 113.383816,9.22630593 114.871902,7.84979766 C113.787932,8.71814683 112.425037,9.65364274 111.778695,10.9148526 C111.780053,9.0257143 111.919253,7.13921645 112.195178,5.2705196 C111.044181,5.4849863 110.485224,8.02196192 110.261894,9.04612137 C109.726326,6.96318458 110.198374,4.56031594 110.059465,2.41064275 C108.9857,4.23566889 108.96321,6.50774314 108.398675,8.41762038 C107.516762,7.87417939 107.545997,5.96986041 106.568225,5.25252427 C106.497441,6.4743339 106.891322,7.6928608 106.808735,8.94783346 C105.903493,8.15714324 106.042707,6.74459209 104.592598,6.26211288 C104.47788,7.28144523 105.10416,8.2628919 104.966476,9.33980631 C104.34108,8.55112303 103.78008,7.34204144 102.594019,7.55253902 C102.704124,8.72917382 104.089488,9.51964022 104.300942,10.7821035 C106.126846,10.7227803 107.938511,11.1232884 109.570906,11.9471443 C110.090133,12.2476036 110.569163,12.6529834 111.078898,12.9777573 C111.343674,13.1048733 111.642672,13.1411652 111.929971,13.0810588 Z" id="Path"></path>
                            <path d="M79.1919747,1.01813117 C77.5671994,2.94245457 76.8401367,5.47332165 77.1944806,7.97130343 C77.2872649,6.35749961 77.9952184,4.84157629 79.1713634,3.73825326 C78.6764541,4.94182375 78.5966741,6.27712034 78.9447279,7.53150717 C79.3732189,6.229082 80.2499414,5.12277044 81.4174487,4.41125017 C80.5816219,5.50397562 80.7440819,7.06279187 81.7870859,7.95794869 C81.896721,5.97566748 82.3301504,4.02498955 83.0700242,2.1840001 C83.5673889,3.91275088 83.8254711,5.70204568 83.8370034,7.50150004 C84.3721344,5.96741876 85.3173206,4.61089154 86.5689961,3.5805554 C85.8979693,5.17612546 85.5282586,6.88314952 85.4787274,8.61453194 C86.4909018,6.71724749 88.0509347,5.17201483 89.9537479,4.18196641 C88.5402546,6.10713779 87.6506945,8.36912038 87.3727786,10.7448818 L80.0098917,10.8645671 C78.8017558,10.8842038 74.3197163,11.6279436 73.6590545,10.5272144 C72.7358823,8.98906156 77.466305,1.01813117 79.1919747,1.01813117 Z" id="Path"></path>
                            <path d="M87.9939929,7.17468937 C88.3429391,8.00825664 88.7784016,8.80254837 89.2931603,9.54439498 C89.4937019,8.48258339 89.6129825,7.4069023 89.6499554,6.32679012 C90.1474011,6.93483613 90.4800698,7.66162954 90.6157318,8.4367572 C90.8354944,6.13381377 90.7701964,3.81238689 90.4213317,1.5255815 C90.5478964,2.49055198 90.8066071,3.43332582 91.1901231,4.3271526 C91.7372185,5.93006886 92.0261422,7.6104152 92.0459947,9.30480048 C92.4491799,8.05780736 93.1849909,6.94570606 94.1734256,6.08941145 C94.3657427,7.20037509 94.3320654,8.33895498 94.0744243,9.43649017 C94.5147844,8.14551113 95.3913394,7.05020672 96.5518913,6.34075664 C95.8855391,7.44798302 95.5085064,8.70638069 95.4557994,9.99911274 C95.9959525,8.99937258 96.9278583,8.27221169 98.0258131,7.99374536 C97.0351949,9.07547443 96.3718737,10.4182949 96.1135125,11.8649865 C93.9433808,11.3284542 91.666917,11.7178978 89.5655715,11.2769824 C87.5263868,10.8491085 88.7224307,8.91528221 87.9939929,7.17468937 Z" id="Path"></path>
                            <path d="M72.6339918,1.45899431 C72.8136547,3.53715756 72.7030018,5.63035004 72.3052504,7.67771548 C72.3595498,6.54365161 72.1475026,5.41266035 71.686242,4.37612496 C72.0474526,6.01640576 71.8772512,7.72971747 71.2004831,9.26595982 C70.9119323,8.27816364 70.4838322,7.33704305 69.929258,6.47134214 C69.6763531,7.09593391 69.5994235,7.77838468 69.7068933,8.44396429 C69.8100607,9.11896964 69.565766,9.8005158 69.0579075,10.254539 C69.0675633,8.03007921 67.3413662,6.23374711 65.7343956,4.7031296 C66.4904269,5.77195497 66.764354,7.11077783 66.4892456,8.39247019 C66.2597951,7.75841094 65.9436656,7.04053763 65.2953928,6.86412075 C64.7316237,6.76178491 64.1610924,7.00489151 63.8425355,7.48319136 C63.5389489,7.95649866 63.3321018,8.48572541 63.2340296,9.04007817 C62.9939861,6.70191926 63.2584687,4.3392579 64.0094612,2.11303345 C62.0915331,5.28796711 61.4605274,9.08144149 62.2467283,12.7102148 C64.0465728,12.0644415 65.9873091,11.9221854 67.8614179,12.2986575 C69.8720439,12.5717955 73.5364709,13.8446292 74.2027405,11.0484895 C74.9543521,7.89425627 72.897126,4.49465388 72.6339918,1.45899431 Z" id="Path"></path>
                            <path d="M59.6977939,2.67307461 L59.9676723,8.77560206 L58.6898813,5.72603565 L57.482555,8.36914043 C56.8609414,6.85368454 56.5856378,5.21747663 56.6769157,3.58099559 C55.9089381,6.03173169 55.7238308,8.62922174 56.1364606,11.1648474 C55.1541141,8.8942744 54.5972333,6.4611393 54.4937785,3.98760643 C54.1820602,5.67299964 54.0411637,7.38578321 54.0732479,9.09971194 L52.9638608,7.42299803 L52.3481651,8.9545929 C51.6998678,6.17471305 51.4376657,3.3180899 51.5690197,0.46600587 C51.1143523,3.64479992 50.6586674,6.86136028 50.9776045,10.0567396 C50.5398793,9.0619307 50.2854278,7.9925591 49.8315403,7.00509907 C49.4317517,5.98099101 48.6512067,5.15314807 47.6548799,4.69654176 C48.8730991,5.89586912 49.5184369,7.56388221 49.4261544,9.27477842 C48.4533922,8.6681654 47.3607082,8.28177641 46.2241565,8.14250525 C47.0372682,8.9333936 47.4422402,10.0564959 47.3219419,11.186976 C46.6674526,10.0275786 45.6032635,9.15743548 44.3402364,8.74895972 C45.2986001,10.8047543 47.9028843,11.3612367 50.147499,11.624907 C53.2071636,11.9843212 57.3459632,12.6239014 60.2421187,11.1954663 C62.8116125,9.92812371 60.2568029,4.85967105 59.6977939,2.67307461 Z" id="Path"></path>
                            <path d="M40.2170197,4.35451117 C40.2881892,6.09171532 40.2585106,7.83160936 40.1281347,9.56534477 C39.9173824,7.55329095 39.0364799,5.67165199 37.6281476,4.22528353 C38.0383583,5.55135521 38.0930855,6.96265358 37.7868065,8.31675851 C36.7920816,6.28588966 36.3079488,4.04111514 36.3767613,1.77881426 C35.4715812,4.92814615 35.6520794,8.29227893 36.8889844,11.3256489 C35.4884254,9.91632771 34.661561,8.0329337 34.5700724,6.04373675 L33.8175621,8.5430878 C33.626483,7.91596036 33.5377449,7.2618948 33.5547917,6.60627725 L33.0270897,6.59452657 C32.6470019,7.41105773 32.3735232,8.27349064 32.2134435,9.16041259 L31.51889,6.05516662 C30.7460904,7.40713365 30.4854023,8.99397397 30.7847999,10.5236631 C30.112195,7.99987083 28.8173336,5.68700331 27.019797,3.79865549 C28.7725176,5.63203767 29.0249414,8.40214679 29.1258366,10.94195 C29.1123663,11.1136955 29.1620466,11.2844423 29.2654738,11.4218702 C29.4257292,11.5401947 29.6271211,11.587692 29.8230566,11.5533734 C33.0911594,11.4491989 36.1760181,13.0847668 39.4335069,13.3690736 C44.1020808,13.7765722 41.001706,6.64867669 40.2170197,4.35451117 Z" id="Path"></path>
                            <path d="M8.32823246,5.20746134 C8.23393621,7.02966644 8.29953667,8.85667273 8.52427406,10.6673198 C8.54459572,9.40607269 8.59646942,8.0488803 9.35876181,7.04645401 C9.03939021,8.43121406 9.12363269,9.87905206 9.60142587,11.2170129 C9.74589582,10.1236225 10.3060087,9.12881324 11.1644183,8.44100237 C10.9332916,9.5854946 11.2304528,10.7735619 11.9726647,11.6724171 C12.3118031,9.43178336 12.392365,7.15931987 12.2127514,4.90013069 C13.1684312,7.06300623 13.5205959,9.44621137 13.2315527,11.7946689 C14.1051777,10.8777924 14.8820445,9.87260634 15.5497516,8.79515668 C15.2530269,9.75797307 15.1682198,10.7740744 15.301205,11.7730775 C15.8852867,9.67200517 16.1811069,7.50067912 16.1804732,5.31923083 C17.2363988,7.0605936 17.7138664,9.09405845 17.5438959,11.12585 C18.1925983,10.2917429 18.5439141,9.26311959 18.5415957,8.20466821 L19.5266539,11.9621702 C20.0257925,10.9929734 20.4035089,9.96541207 20.6511783,8.90294959 C20.9605698,9.69359705 21.1273717,10.5332541 21.143778,11.3826267 C21.5447697,9.77833617 21.6256273,8.11018036 21.3816884,6.47434882 C22.3131716,8.19982449 22.7612147,10.1468007 22.6780853,12.1078563 C23.2308602,10.3102633 23.6944678,8.48820404 24.0689082,6.64167851 C23.9144118,8.70215585 24.089795,10.7741884 24.5883805,12.778891 C20.8134173,13.6153081 16.9107307,14.4546947 13.1147626,13.7204376 C11.6400981,13.4351907 10.152584,12.9129756 8.67280933,13.1729976 C8.48438945,13.2173156 8.31645637,13.3244032 8.19635709,13.4768217 C7.06901763,10.5952117 8.18050679,8.05910153 8.32823246,5.20746134 Z" id="Path"></path>
                        </g>
                        <path d="M98.2170565,131.999144 L100.351284,140.574245 C100.430543,140.893782 100.714276,141.119499 101.042086,141.123797 C104.452552,141.168166 122.435161,141.401478 123.46188,141.401478 C124.596476,141.401478 124.310562,139.214196 122.894582,138.552285 C119.383979,136.911226 110.632512,134.141237 108.738632,132.23888 C106.618881,130.109597 98.2170565,131.999144 98.2170565,131.999144 Z" id="Path" fill="#575770" fill-rule="nonzero"></path>
                        <path d="M108.628764,131.216623 C108.626471,131.57122 108.552139,131.921615 108.410321,132.246348 C107.96066,133.109557 106.784336,133.192065 105.814965,133.16067 L99.1081641,132.943466 C98.9680665,132.952387 98.8284383,132.91986 98.7065514,132.849908 C98.6160587,132.772559 98.5465316,132.673458 98.504449,132.561841 C96.7828273,128.908677 96.1695084,124.820813 94.5910594,121.10298 C93.7138709,119.03692 92.542672,117.095177 91.833776,114.96494 C91.0979657,112.37356 90.711832,109.694683 90.6857212,107.00009 C91.9419163,106.997721 93.196863,106.920426 94.4439353,106.768612 C98.0142707,106.405774 101.70823,106.004035 104.810506,104.192162 C106.079451,103.451041 107.411618,102.243907 108.927795,102.096378 C109.237864,102.796263 109.070403,104.038068 109.099408,104.821275 C109.135104,105.783925 109.165017,106.746772 109.189147,107.709816 C109.236282,109.591059 109.26133,111.472685 109.264291,113.354693 C109.270307,117.163157 109.185946,120.970338 109.011206,124.776235 C108.912549,126.924618 108.785068,129.071414 108.628764,131.216623 Z" id="Mask" fill="#575770" fill-rule="nonzero"></path>
                        <path d="M55.7684351,132.720277 L53.6342081,141.295387 C53.5549515,141.61492 53.2712197,141.840636 52.9434128,141.84493 C49.5329397,141.889299 31.5503306,142.122612 30.5236116,142.122612 C29.3890155,142.122612 29.6749299,139.935329 31.0909171,139.273419 C34.6015205,137.63236 43.3529871,134.86237 45.2468601,132.960013 C47.3666926,130.83073 55.7684351,132.720277 55.7684351,132.720277 Z" id="Path" fill="#464558" fill-rule="nonzero"></path>
                        <path d="M110.760369,89.2843984 C111.622851,92.386108 112.488007,95.576593 112.350598,98.7934891 C112.214675,101.976722 110.724279,104.940348 108.804395,107.489836 C107.660664,109.09065 106.103242,110.347151 104.300355,111.123616 C102.45272,111.79709 100.46386,111.982669 98.5243399,111.662573 C94.4720113,111.098742 90.380005,109.871851 87.9286977,106.513708 C86.408005,104.430458 85.7249121,101.920476 85.2178139,99.4487145 C83.4401963,90.7839717 81.1210939,81.3890967 80.3678779,72.6239098 C80.3055888,72.1734589 80.2666261,71.7200632 80.2511472,71.2655536 L90.2118017,69.48345 C92.5349803,68.7829746 94.8977696,68.2226279 97.2875264,67.8054081 C98.4966997,67.6098323 99.7186336,67.5044869 100.9433,67.4902362 C101.936358,67.4843422 103.405066,67.3906054 104.326114,67.8207922 C105.102451,68.1833846 105.168467,69.174381 105.364843,69.880623 C105.707414,71.1126116 106.049988,72.3445977 106.392565,73.5765813 L108.448008,80.9684904 L110.760369,89.2843984 Z" id="Path" fill="#202020" fill-rule="nonzero"></path>
                        <g id="Group" transform="translate(43.822287, 102.898341)" fill="#464558" fill-rule="nonzero">
                            <g id="Path-+-Path-+-Path-+-Path-+-Path-+-Path-+-Path-+-Path-+-Path-+-Path-+-Path-+-Path-Mask" transform="translate(0.180877, 0.064845)">
                                <path d="M1.0581717,29.5716166 C1.06211865,29.9262012 1.13808043,30.2762449 1.2814054,30.6003122 C1.7350849,31.4613648 2.91178758,31.5383672 3.88099543,31.5024213 L10.5867114,31.2537023 C10.72685,31.2619666 10.8663261,31.2287831 10.9878859,31.1582569 C11.0780152,31.0804841 11.1470794,30.9810606 11.188644,30.8692498 C12.8932567,27.2080288 13.4874943,23.1173298 15.0486224,19.3921179 C15.9161551,17.3219539 17.0783073,15.3747281 17.7772802,13.2411851 C18.5010127,10.6463746 18.8746632,7.96571119 18.8882197,5.27102315 C17.6320266,5.27456228 16.3767326,5.20316906 15.1289657,5.05722045 C11.5569814,4.71116105 7.86119547,4.32681309 4.7505113,2.52951855 C3.4781275,1.79436614 2.14033707,0.593498838 0.623506606,0.453102455 C0.316698607,1.1544129 0.4899749,2.39544142 0.464557973,3.17877535 C0.433362447,4.14158506 0.407938093,5.1045614 0.388284912,6.06770436 C0.349904511,7.9491462 0.333620942,9.83087155 0.339434204,11.7128804 C0.351154808,15.5213443 0.453248357,19.3280848 0.64571485,23.1331018 C0.754408976,25.2809968 0.891894592,27.4271684 1.0581717,29.5716166 Z" id="Mask"></path>
                            </g>
                        </g>
                        <path d="M44.1897774,89.4380376 C43.4238827,92.5324282 42.6567401,95.7154674 42.8320887,98.9284913 C43.0055729,102.107882 44.4486037,105.072836 46.2892957,107.625756 C47.3627554,109.207856 48.8435692,110.467646 50.5738304,111.270787 C52.3017721,111.948122 54.1804148,112.141329 56.0091532,111.829776 C59.8089242,111.281277 63.6364593,110.070762 65.8916507,106.725997 C67.2906735,104.651043 67.8965055,102.146932 68.3375285,99.6803484 C69.8834377,91.0337725 72.6509171,81.0316491 73.2327806,72.2810928 C73.2408394,72.1598855 73.366238,70.9380684 73.3229505,70.9249971 L63.2143393,69.737869 C61.0275001,69.0315928 58.7988178,68.4634191 56.5413488,68.0366764 C55.4050511,67.8372812 54.2549428,67.7276505 53.101589,67.7087914 C52.1683526,67.6993386 50.7868958,67.6004464 49.9275928,68.0267387 C49.2032921,68.3860559 49.1554961,69.3754557 48.9811131,70.0800414 C48.6769072,71.3091153 48.3726964,72.5381942 48.0684806,73.767278 L46.2432229,81.1417514 L44.1897774,89.4380376 Z" id="Path" fill="#202020" fill-rule="nonzero"></path>
                        <path d="M37.2344694,17.520444 C37.0711685,17.4034606 36.9850602,17.2304851 37.0021339,17.0537257 C37.0192076,16.8769664 37.137463,16.7171323 37.3212078,16.6224652 C41.3265128,14.571336 58.4870231,6.17717681 71.075079,6.17717681 C85.2458101,6.17717681 105.776269,9.11380684 112.939609,15.8018208 C113.096985,15.9505486 113.146172,16.1561132 113.068914,16.3422164 C112.010346,18.9459527 104.383931,37.7826125 103.463864,42.2866875 C102.775412,46.1610598 102.444824,50.0721708 102.474891,53.9869743 C102.474891,55.0529666 108.611452,64.5681145 110.075689,66.8233094 C110.250067,67.0918773 110.130842,67.4249005 109.806701,67.5746552 C106.589759,69.068911 90.6354389,76.1771768 78.2451181,76.1771768 C65.7528325,76.1771768 45.2096427,68.9514337 41.3131136,67.5389121 C41.1424879,67.4770104 41.0100113,67.3612001 40.9460769,67.2180507 C40.8821425,67.0749012 40.8922383,66.9167003 40.9740479,66.7797425 L48.5066756,54.1036213 C48.5523859,54.026731 48.5760098,53.9423497 48.5757514,53.8568917 C48.572929,52.8628645 48.5370467,46.4068963 48.0815103,42.6901223 C47.6114383,38.854665 42.225657,21.1636288 37.2344694,17.520444 Z" id="Path" fill="#575770" fill-rule="nonzero"></path>
                        <path d="M71.075079,6.00439575 C72.3375702,6.00439575 73.6505405,6.02775146 75.00004,6.07504019 L75.0011785,76.0043958 C73.5613914,75.8877418 72.0547414,75.7025627 70.5101925,75.4641804 L69.5791471,75.3148893 L69.5791471,75.3148893 L68.6403962,75.153565 L68.6403962,75.153565 L67.6953302,74.9809428 C67.5373701,74.9512718 67.3792049,74.9211607 67.2208634,74.8906248 L66.2689314,74.702435 C66.1100008,74.6702613 65.9509519,74.6376935 65.7918137,74.6047469 L64.8361438,74.4026441 C64.676764,74.3682435 64.5173528,74.3334948 64.3579392,74.2984132 L63.4016595,74.0840523 L63.4016595,74.0840523 L62.4467113,73.8624387 L62.4467113,73.8624387 L61.4944846,73.6343077 L61.4944846,73.6343077 L60.5463699,73.400395 L60.5463699,73.400395 L59.6037573,73.1614358 L59.6037573,73.1614358 L58.6680372,72.9181658 L58.6680372,72.9181658 L57.7405999,72.6713204 L57.7405999,72.6713204 L56.3680152,72.2959572 L56.3680152,72.2959572 L55.021887,71.9166862 L55.021887,71.9166862 L53.7069074,71.5359897 L53.7069074,71.5359897 L52.8498763,71.2826259 L52.8498763,71.2826259 L51.5972382,70.9050695 L51.5972382,70.9050695 L49.9957824,70.4101691 L49.9957824,70.4101691 L48.1200595,69.8134912 L48.1200595,69.8134912 L46.404719,69.251925 L46.404719,69.251925 L44.871484,68.7369622 L44.871484,68.7369622 L44.0479904,68.4551347 L44.0479904,68.4551347 L41.5816427,67.5866105 L41.5816427,67.5866105 L41.3131136,67.4894055 L41.3131136,67.4894055 C41.1424879,67.4273794 41.0100113,67.3113365 40.9460769,67.1678995 C40.8821425,67.0244625 40.8922383,66.8659436 40.9740479,66.7287108 L48.5066756,54.0271235 C48.5523859,53.9500787 48.5760098,53.8655278 48.5757514,53.7798982 L48.5562191,51.7775221 L48.5562191,51.7775221 L48.5234743,50.1304758 L48.5234743,50.1304758 L48.4762942,48.5231224 L48.4762942,48.5231224 L48.4202472,47.1148888 L48.4202472,47.1148888 L48.3679481,46.0750034 L48.3679481,46.0750034 L48.3112612,45.1439382 L48.3112612,45.1439382 L48.2451127,44.2425171 C48.1976976,43.6549004 48.143488,43.0973944 48.0815103,42.590695 L48.0597734,42.4273541 L48.0597734,42.4273541 L48.0004558,42.0566926 C47.9888353,41.990167 47.9763564,41.9213131 47.9630323,41.8501999 L47.8730493,41.3969605 L47.8730493,41.3969605 L47.763409,40.8928091 L47.763409,40.8928091 L47.6347404,40.3410576 L47.6347404,40.3410576 L47.4876725,39.7450178 L47.4876725,39.7450178 L47.3228344,39.1080016 L47.3228344,39.1080016 L47.1408551,38.4333209 L47.1408551,38.4333209 L46.9423635,37.7242876 L46.9423635,37.7242876 L46.6150417,36.6035713 L46.6150417,36.6035713 L46.3780216,35.8231459 L46.3780216,35.8231459 L46.1266908,35.0199596 L46.1266908,35.0199596 L45.8616785,34.1973242 L45.8616785,34.1973242 L45.5836135,33.3585515 L45.5836135,33.3585515 L45.293125,32.5069535 L45.293125,32.5069535 L44.9908419,31.645842 L44.9908419,31.645842 L44.6773933,30.7785289 L44.6773933,30.7785289 L44.3534082,29.9083261 L44.3534082,29.9083261 L44.0195156,29.0385455 C43.9630761,28.8938013 43.9062501,28.7492126 43.8490505,28.6048485 L43.5014761,27.741911 L43.5014761,27.741911 L43.1455668,26.8876754 C43.0855889,26.7462119 43.02529,26.605249 42.9646831,26.4648557 L42.5974508,25.6298828 C40.9292182,21.9082291 39.0555783,18.7023919 37.2344694,17.3704513 C37.0711685,17.2532329 36.9850602,17.0799099 37.0021339,16.9027955 C37.0192076,16.725681 37.137463,16.5655258 37.3212078,16.4706685 L38.1176759,16.0667167 L38.1176759,16.0667167 L39.3757214,15.4452201 L39.3757214,15.4452201 L40.3825325,14.9605756 L40.3825325,14.9605756 L41.5125693,14.4290644 L41.5125693,14.4290644 L42.1207797,14.1482474 L42.1207797,14.1482474 L43.0836905,13.711023 L43.0836905,13.711023 L44.1036944,13.2576162 L44.1036944,13.2576162 L45.1767176,12.7914204 L45.1767176,12.7914204 L46.2986864,12.3158289 L46.2986864,12.3158289 L47.0718458,11.9952239 L47.0718458,11.9952239 L47.8637413,11.6729567 L47.8637413,11.6729567 L48.6731656,11.3500326 L48.6731656,11.3500326 L49.4989119,11.0274572 L49.4989119,11.0274572 L50.339773,10.7062359 L50.339773,10.7062359 L51.1945419,10.3873742 C51.3380953,10.334483 51.4821779,10.2817321 51.6267646,10.2291423 L52.500132,9.91570507 L52.500132,9.91570507 L53.3843896,9.60714097 L53.3843896,9.60714097 L54.2783304,9.30445547 C54.4280604,9.25455362 54.5781436,9.20493861 54.7285547,9.15563138 L55.6347571,8.86364897 L55.6347571,8.86364897 L56.5476249,8.58005875 L56.5476249,8.58005875 L57.4659513,8.30586618 C62.0692177,6.96007314 66.8319141,6.00439575 71.075079,6.00439575 Z" id="Path" fill="#464558" fill-rule="nonzero"></path>
                        <path d="M86.0934558,6.65615642 C86.0515158,6.69593848 86.0073158,6.73572055 85.9653658,6.77728169 C84.6484458,8.04356217 91.7559658,10.2094115 90.2626558,11.3321718 C85.9095858,14.604844 81.7444558,18.1066542 77.0919458,21.0942956 C72.6265539,24.0150978 67.6675735,26.3835612 62.3717458,28.1248246 C56.8080958,29.9044338 50.7189758,30.2966207 45.2607458,32.29896 C43.1415358,26.1352271 40.1212758,19.2518094 37.2333058,17.1257174 C37.0707851,17.0073247 36.9851797,16.832954 37.0021116,16.6547948 C37.0190435,16.4766356 37.136548,16.31536 37.3194558,16.2192381 C41.3184558,14.1537005 56.8376655,6.40047601 69.4018555,6.40047601 C74.451054,6.41740749 81.1010575,6.03388803 86.0934558,6.65615642 Z" id="Path" fill="#000000" fill-rule="nonzero" opacity="0.1"></path>
                        <g id="Group-2" transform="translate(50.000000, 0.000000)">
                            <path d="M31.8594949,0.638472559 L38.8594949,0.638472559 C40.6037989,6.16239084 41.7666682,12.2144491 42.3481029,18.7946474 C42.9295375,25.3748458 42.9295375,32.4831841 42.3481029,40.1196624 C42.052519,41.6420549 40.8896497,42.9325341 38.8594949,43.9910999 C36.8293401,45.0496657 34.4960067,45.5821809 31.8594949,45.5886454 C32.8638942,38.0969499 33.3660939,30.6052544 33.3660939,23.113559 C33.3660939,15.6218635 32.8638942,8.13016803 31.8594949,0.638472559 Z" id="Rectangle-Copy" fill="#2B2A37"></path>
                            <path d="M5.62300241,3.6606504 C-1.23494817,6.80896594 -1.81980618,11.9460197 3.86842836,19.0718116 C12.4007802,29.7604994 37.2949717,29.3767495 44.8475993,17.7790229 C49.8826844,10.0472052 47.4852705,4.12086422 37.6553577,-3.55271368e-14 L5.62300241,3.6606504 Z" id="Path-4" fill="#464558"></path>
                            <path d="M36.8594949,5.63847256 L43.8594949,5.63847256 C45.6037989,11.1623908 46.7666682,17.2144491 47.3481029,23.7946474 C47.9295375,30.3748458 47.9295375,37.4831841 47.3481029,45.1196624 C47.052519,46.6420549 45.8896497,47.9325341 43.8594949,48.9910999 C41.8293401,50.0496657 39.4960067,50.5821809 36.8594949,50.5886454 C37.8638942,43.0969499 38.3660939,35.6052544 38.3660939,28.113559 C38.3660939,20.6218635 37.8638942,13.130168 36.8594949,5.63847256 Z" id="Rectangle" fill="#464558"></path>
                        </g>
                        <path d="M86.1706117,6.10002876 C86.1286717,6.13964237 86.0844717,6.17925597 86.0425217,6.22064111 C84.7256017,7.48155935 92.2276235,10.0992926 91.1239014,11.3393639 C87.6199951,15.2761279 84.4689465,16.4852333 77.7515869,20.3701337 C71.0342273,24.255034 68.0357569,26.0209871 62.7399292,27.7548769 C57.1762792,29.5269501 50.7189758,30.0105356 45.2607458,32.0043958 C43.1415358,25.866764 39.8751221,19.0594461 37.3491211,17.1057955 C37.1933648,16.985331 36.9830681,16.7488764 37,16.5714717 C37.0169319,16.394067 37.0583348,16.1889273 37.2412426,16.0932124 C39.1485245,15.1122472 44.0552063,12.6308215 50.0347125,10.3985906 C49.7324829,6.11449637 55.2184448,4.18497026 60.0421753,3.29990645 C64.3369531,2.51189552 68.6758215,3.3583687 71.0880717,5.14401225 C76.1372702,5.16087203 81.1782134,5.48039546 86.1706117,6.10002876 Z" id="Path" fill="#000000" fill-rule="nonzero" opacity="0.300000012"></path>
                        <path d="M48.2787904,38.3314209 C48.2787904,38.3314209 79.0227018,56.4483345 103.283284,38.6791497 L102.862427,49.247816 C102.862427,49.247816 80.9697651,63.6942815 48.6223145,48.4635495 L48.2787904,38.3314209 Z" id="Path" fill="#202020" fill-rule="nonzero"></path>
                        <g id="Group-3" transform="translate(38.523666, 63.325753) rotate(-211.000000) translate(-38.523666, -63.325753) translate(21.523666, 29.825753)">
                            <path d="M12.9981811,12.4845648 C12.8793373,9.62694008 13.1659605,7.64230121 13.8580506,6.53064818 C14.8961858,4.86316863 17.4796743,3.49482075 17.9779792,3.31043599 C18.4762841,3.12605123 20.6810106,2 20.9855303,2 C21.2900499,2 22.6571376,2.52228388 22.3690813,3.31043599 C22.081025,4.0985881 21.5610137,4.381447 21.3634534,4.60256513 C21.2317466,4.74997721 21.1057722,4.86316863 20.9855303,4.94213939 C22.178372,4.9711751 23.0954614,4.85798368 23.7367982,4.60256513 C24.6988035,4.21943729 27.5877554,2.45180846 28.106823,2.45180846 C28.6258906,2.45180846 29.2072463,2.53700116 29.2072463,2.82919297 C29.2072463,3.12138478 30.2927792,2.65797001 30.7080333,2.65797001 C31.1232873,2.65797001 31.7531942,2.94130752 31.7531942,3.31043599 C31.7531942,3.67956446 31.7531942,3.99221688 31.7531942,4.18964378 C31.7531942,4.38707067 32.2552741,4.837204 32.2552741,5.19257242 C32.2552741,5.54794083 32.1015462,5.75039314 31.7531942,5.9952025 C31.5209595,6.15840873 31.350978,6.23729972 31.2432496,6.23187547 C31.5181282,6.99525948 31.5868479,7.45328988 31.4494086,7.60596668 C31.2432496,7.83498188 29.1958163,9.46800146 27.8328183,10.2971944 C26.9241529,10.8499897 25.7945429,11.3340247 24.4439885,11.7492992 C22.5961778,12.2394763 21.283164,12.4845648 20.5049471,12.4845648 C19.7267302,12.4845648 19.3393345,12.762837 19.34276,13.3193815 L19.6126751,14.9145908 C18.3922895,15.3636871 17.5057501,15.5882353 16.9530567,15.5882353 C16.1240166,15.5882353 13.3075244,14.90107 12.9981811,14.5804009 C12.7919522,14.3666215 12.7919522,13.6680094 12.9981811,12.4845648 Z" id="Path-3" fill="#202020" transform="translate(22.549392, 8.794118) rotate(-8.000000) translate(-22.549392, -8.794118) "></path>
                            <path d="M9.96887995,34.7759105 C9.09555725,30.6950749 9.01539816,24.3161849 9.42208961,20.162166 C10.1754467,13.9251138 10.4105718,14.586651 10.4105718,14.586651 C11.7683482,14.292924 13.1478929,14.1119717 14.5352295,14.0456273 C15.8400333,13.9297341 17.1345366,14.3604414 18.1124501,15.2358406 C18.5351404,15.2711889 18.8808879,15.5885087 18.9539866,16.0081849 C19.4988239,19.1393942 21.6905398,31.5671376 22.2862778,32.3308124 C22.9682715,33.2050183 9.96887995,34.7759105 9.96887995,34.7759105 Z" id="Mask" fill="#575770" fill-rule="nonzero" transform="translate(15.749153, 24.401493) scale(-1, 1) translate(-15.749153, -24.401493) "></path>
                            <g id="Group" transform="translate(12.000000, 48.208681) scale(-1, 1) translate(-12.000000, -48.208681) translate(0.000000, 29.708681)" fill="#202020" fill-rule="nonzero">
                                <path d="M4.61496215,1.58133442 C7.01885968,-0.177111995 12.9214394,-1.09000929 15.7350902,2.9320658 C16.1538144,3.55766831 16.518592,4.21804302 16.8254481,4.90599358 C17.753515,3.27157715 20.0372579,9.9934667 23.6766769,25.0716622 C23.6766769,25.0716622 22.4841012,32.8175375 18.3616124,35.6184222 C14.4201022,38.2963836 9.39227472,35.7600049 7.49553474,33.3605906 C5.6596706,31.4166102 3.40482827,27.7921036 2.13436076,21.1728819 C1.10795367,15.824957 0.724077871,10.7275194 0.840867978,9.69271342 C1.1100408,7.30695973 2.21106461,3.33978829 4.61496215,1.58133442 Z" id="Path"></path>
                            </g>
                        </g>
                        <g id="Group-3" transform="translate(112.523666, 63.325753) scale(-1, 1) rotate(-211.000000) translate(-112.523666, -63.325753) translate(95.523666, 29.825753)">
                            <path d="M12.9981811,12.4845648 C12.8793373,9.62694008 13.1659605,7.64230121 13.8580506,6.53064818 C14.8961858,4.86316863 17.4796743,3.49482075 17.9779792,3.31043599 C18.4762841,3.12605123 20.6810106,2 20.9855303,2 C21.2900499,2 22.6571376,2.52228388 22.3690813,3.31043599 C22.081025,4.0985881 21.5610137,4.381447 21.3634534,4.60256513 C21.2317466,4.74997721 21.1057722,4.86316863 20.9855303,4.94213939 C22.178372,4.9711751 23.0954614,4.85798368 23.7367982,4.60256513 C24.6988035,4.21943729 27.5877554,2.45180846 28.106823,2.45180846 C28.6258906,2.45180846 29.2072463,2.53700116 29.2072463,2.82919297 C29.2072463,3.12138478 30.2927792,2.65797001 30.7080333,2.65797001 C31.1232873,2.65797001 31.7531942,2.94130752 31.7531942,3.31043599 C31.7531942,3.67956446 31.7531942,3.99221688 31.7531942,4.18964378 C31.7531942,4.38707067 32.2552741,4.837204 32.2552741,5.19257242 C32.2552741,5.54794083 32.1015462,5.75039314 31.7531942,5.9952025 C31.5209595,6.15840873 31.350978,6.23729972 31.2432496,6.23187547 C31.5181282,6.99525948 31.5868479,7.45328988 31.4494086,7.60596668 C31.2432496,7.83498188 29.1958163,9.46800146 27.8328183,10.2971944 C26.9241529,10.8499897 25.7945429,11.3340247 24.4439885,11.7492992 C22.5961778,12.2394763 21.283164,12.4845648 20.5049471,12.4845648 C19.7267302,12.4845648 19.3393345,12.762837 19.34276,13.3193815 L19.6126751,14.9145908 C18.3922895,15.3636871 17.5057501,15.5882353 16.9530567,15.5882353 C16.1240166,15.5882353 13.3075244,14.90107 12.9981811,14.5804009 C12.7919522,14.3666215 12.7919522,13.6680094 12.9981811,12.4845648 Z" id="Path-3" fill="#202020" transform="translate(22.549392, 8.794118) rotate(-8.000000) translate(-22.549392, -8.794118) "></path>
                            <path d="M9.96887995,34.7759105 C9.09555725,30.6950749 9.01539816,24.3161849 9.42208961,20.162166 C10.1754467,13.9251138 10.4105718,14.586651 10.4105718,14.586651 C11.7683482,14.292924 13.1478929,14.1119717 14.5352295,14.0456273 C15.8400333,13.9297341 17.1345366,14.3604414 18.1124501,15.2358406 C18.5351404,15.2711889 18.8808879,15.5885087 18.9539866,16.0081849 C19.4988239,19.1393942 21.6905398,31.5671376 22.2862778,32.3308124 C22.9682715,33.2050183 9.96887995,34.7759105 9.96887995,34.7759105 Z" id="Mask" fill="#575770" fill-rule="nonzero" transform="translate(15.749153, 24.401493) scale(-1, 1) translate(-15.749153, -24.401493) "></path>
                            <g id="Group" transform="translate(12.000000, 48.208681) scale(-1, 1) translate(-12.000000, -48.208681) translate(0.000000, 29.708681)" fill="#202020" fill-rule="nonzero">
                                <path d="M4.61496215,1.58133442 C7.01885968,-0.177111995 12.9214394,-1.09000929 15.7350902,2.9320658 C16.1538144,3.55766831 16.518592,4.21804302 16.8254481,4.90599358 C17.753515,3.27157715 20.0372579,9.9934667 23.6766769,25.0716622 C23.6766769,25.0716622 22.4841012,32.8175375 18.3616124,35.6184222 C14.4201022,38.2963836 9.39227472,35.7600049 7.49553474,33.3605906 C5.6596706,31.4166102 3.40482827,27.7921036 2.13436076,21.1728819 C1.10795367,15.824957 0.724077871,10.7275194 0.840867978,9.69271342 C1.1100408,7.30695973 2.21106461,3.33978829 4.61496215,1.58133442 Z" id="Path"></path>
                            </g>
                        </g>
                    </g>
                    <g id="Group-5" transform="translate(51.000000, 0.000000)">
                        <path d="M46.5261852,23.40599 C46.3226618,23.4027359 46.1211286,23.4464515 45.9372452,23.53374 C43.9540852,10.11726 35.1084652,-2.30926389e-13 24.4948552,-2.30926389e-13 C13.8957752,-2.30926389e-13 5.05946523,10.0895 3.06031523,23.47867 C2.91534528,23.4276637 2.76240832,23.403048 2.60875523,23.40599 C1.08475523,23.44384 -0.0812447709,26.27384 0.00443522906,29.72699 C0.0875952291,33.07663 1.89487523,36.70899 3.39413523,36.88931 C5.90967523,49.32249 14.4028652,58.4701 24.4948552,58.4701 C34.5852652,58.4701 43.0771552,49.32557 45.5942552,36.89557 L45.6026352,36.89645 C47.1266352,36.93427 49.0447352,33.18015 49.1305152,29.72699 C49.2162952,26.27383 48.0502052,23.44384 46.5261852,23.40599 Z" id="Path" fill="#575770"></path>
                        <path d="M24.5771652,0.00248 C24.5495952,0.00235 24.5224252,2.00000002e-05 24.4948552,2.00000002e-05 C13.8957752,2.00000002e-05 5.05946523,10.08952 3.06031523,23.47869 C2.91534528,23.4276837 2.76240832,23.403068 2.60875523,23.40601 C1.08475523,23.44386 -0.0812447709,26.27386 0.00443522906,29.72701 C0.0875952291,33.07665 1.89487523,36.70901 3.39413523,36.88933 C5.90967523,49.32251 14.4028652,58.47012 24.4948552,58.47012 C24.5224252,58.47012 24.5495952,58.46793 24.5771652,58.4678 L24.5771652,0.00248 Z" id="Path" fill="#464558"></path>
                        <path d="M41.3665752,24.51588 C39.4330452,22.24725 35.9542852,22.10149 33.2036752,21.97229 L16.3223052,21.97229 C13.5717552,22.10149 10.0929952,22.24729 8.15939523,24.51588 C6.55255523,26.40119 6.29494523,30.11477 6.61606523,32.46156 C6.93306523,34.77796 8.37293523,37.8015 10.9085052,38.223 C11.4305477,38.2932829 11.9594404,38.2964419 12.4822852,38.2324 C14.1532184,38.1269899 15.802433,37.7976979 17.3857252,37.25335 C18.8584652,36.68861 20.2201452,35.86155 21.7260852,35.37849 C22.2914889,35.1973143 22.8760155,35.0823949 23.4679252,35.03604 C24.0649252,34.98927 24.6663452,35.00984 25.2645652,35.0124 L25.3742552,35.01287 C25.9591162,35.0105591 26.5425364,35.0710186 27.1144952,35.19321 C27.3457086,35.2443433 27.5742119,35.3061033 27.8000052,35.37849 C29.3058152,35.86155 30.6675652,36.68861 32.1402452,37.25335 C33.723561,37.7977 35.3727989,38.1269919 37.0437552,38.2324 C37.5666001,38.2964418 38.0954927,38.2932828 38.6175352,38.223 C41.1530952,37.8015 42.5929052,34.778 42.9099652,32.46156 C43.2310852,30.11477 42.9734852,26.40119 41.3665752,24.51588 Z" id="Path" fill="#EEBDAA"></path>
                        <path d="M24.7836452,21.97273 L24.7836452,35.00784 C24.3437452,35.00516 23.9039052,35.00247 23.4667552,35.03466 C22.8752714,35.0818867 22.2911938,35.1970722 21.7260652,35.37794 C20.2186752,35.86074 18.8588252,36.68685 17.3863452,37.25277 C15.8022417,37.7968565 14.1523471,38.1261224 12.4807452,38.23177 C11.9586558,38.2961615 11.4304721,38.293473 10.9090652,38.22377 C8.37179523,37.79997 6.93414523,34.77722 6.61499523,32.4599 C6.29583523,30.11305 6.55330523,26.40098 8.15989523,24.51544 C10.0936852,22.24638 13.5723852,22.10154 16.3215552,21.97273 L24.7836452,21.97273 Z" id="Path" fill="#D19F93"></path>
                        <path d="M33.6645297,31.8811465 C32.7743903,31.8547856 31.9130482,31.5344097 31.1962834,30.9630833 C30.9505862,30.7643215 30.9004271,30.3878294 31.0842499,30.1221646 C31.2680727,29.8564999 31.6162674,29.8022644 31.8619646,30.0010263 C32.2518754,30.5043473 32.8247042,30.7997924 33.4318372,30.8107118 C34.0389701,30.8216312 34.6205694,30.5469486 35.0257455,30.0579273 C35.2427646,29.8239146 35.5940657,29.8241753 35.8107875,30.0585099 C36.0275094,30.2928444 36.0277505,30.6726953 35.8113263,30.9073513 C35.2494903,31.5365082 34.4733462,31.8885701 33.6645297,31.8811465 Z" id="Path" fill="#01002B" fill-rule="nonzero"></path>
                        <path d="M35.4566736,26.4500713 C35.7661438,26.5363579 36.0335894,26.619618 36.0762212,26.1313574 C36.1065545,25.7839506 35.5626132,25.6971895 35.6964685,25.7139709 C35.9114806,25.7409267 36.0468785,25.5872531 36.0762212,25.3725537 C36.0993121,25.1586091 35.9500506,24.96434 35.7373783,24.9315378 C34.2551945,24.5818269 32.699394,24.7250489 31.3059659,25.3394793 C31.1338523,25.4136252 31.0425697,25.6031531 31.0918946,25.7839506 C31.1430769,25.9630809 31.3155848,26.0795217 31.5008576,26.059996 L32.5645169,26.0368085 C32.8973539,26.0164874 33.2312226,26.0201817 33.5635285,26.0478628 C34.204283,26.1260717 34.6367811,26.2214683 35.4566736,26.4500713 Z" id="Path" fill="#01002B" fill-rule="nonzero"></path>
                        <g id="Group-33" transform="translate(16.078575, 28.744480) scale(-1, 1) translate(-16.078575, -28.744480) translate(13.078575, 24.744480)" fill="#01002B" fill-rule="nonzero">
                            <path d="M2.69104292,7.13666649 C1.80090355,7.11030555 0.93956137,6.7899297 0.222796649,6.21860334 C-0.0229005423,6.0198415 -0.0730596688,5.64334937 0.110763104,5.37768464 C0.294585877,5.11201992 0.642780605,5.05778441 0.888477796,5.25654626 C1.27838859,5.75986729 1.85121746,6.05531245 2.45835039,6.06623182 C3.06548333,6.07715119 3.64708257,5.80246858 4.05225876,5.3134473 C4.26927785,5.07943461 4.62057892,5.0796953 4.83730074,5.31402986 C5.05402256,5.54836443 5.05426366,5.92821534 4.83783952,6.16287133 C4.27600347,6.79202818 3.49985943,7.14409009 2.69104292,7.13666649 Z" id="Path"></path>
                            <path d="M4.48318682,1.70559125 C4.79265697,1.79187792 5.0601026,1.875138 5.1027344,1.3868774 C5.13306774,1.03947063 4.58912639,0.952709546 4.72298173,0.969490859 C4.93799385,0.996446718 5.07339171,0.842773099 5.1027344,0.628073691 C5.12582533,0.414129129 4.97656379,0.219860002 4.76389155,0.187057839 C3.28170771,-0.162653051 1.72590724,-0.0194310945 0.332479134,0.594999326 C0.160365523,0.66914518 0.0690829588,0.858673066 0.118407836,1.03947063 C0.169590129,1.21860092 0.34209799,1.33504174 0.527370844,1.31551597 L1.59103011,1.29232847 C1.92386707,1.27200737 2.25773586,1.27570171 2.59004166,1.3033828 C3.23079624,1.38159173 3.66329428,1.47698828 4.48318682,1.70559125 Z" id="Path"></path>
                        </g>
                    </g>
                    <g id="Group-14" transform="translate(51.000000, 39.970864)" fill="#FFFFFF" opacity="0.400000006">
                        <g id="Group-4" transform="translate(35.000000, 16.000000) rotate(-25.000000) translate(-35.000000, -16.000000) translate(25.000000, 4.000000)">
                            <polygon id="Path-5" points="10 0 5.98129083 12.5 14 12.5"></polygon>
                            <circle id="Oval" cx="10" cy="17.0291362" r="6"></circle>
                            <circle id="Oval-Copy" cx="4" cy="16.0291362" r="4"></circle>
                            <circle id="Oval-Copy-2" cx="16" cy="16.0291362" r="4"></circle>
                        </g>
                        <g id="Group-4" transform="translate(15.000000, 16.000000) scale(-1, 1) rotate(-25.000000) translate(-15.000000, -16.000000) translate(5.000000, 4.000000)">
                            <polygon id="Path-5" points="10 0 5.98129083 12.5 14 12.5"></polygon>
                            <circle id="Oval" cx="10" cy="17.0291362" r="6"></circle>
                            <circle id="Oval-Copy" cx="4" cy="16.0291362" r="4"></circle>
                            <circle id="Oval-Copy-2" cx="16" cy="16.0291362" r="4"></circle>
                        </g>
                    </g>
                </g>
                <path d="M84.6919042,22.4522407 C86.2076043,22.4637466 87.4266078,21.2270618 87.4146248,19.6900279 C87.4066362,18.6653386 86.4785948,16.9607088 84.6305007,14.5761385 C82.8193712,16.932931 81.9177832,18.6236719 81.9257368,19.6483612 C81.9377724,21.1853951 83.1762042,22.4407347 84.6919042,22.4522407 Z" id="Oval" fill="#B8E6FE" transform="translate(84.670225, 18.514229) rotate(-1.000000) translate(-84.670225, -18.514229) "></path>
                <path d="M73.4126772,14.5980263 C74.2410831,14.6053306 74.9073296,13.8202517 74.9007803,12.8445035 C74.8964141,12.1940048 74.389193,11.1118626 73.3791171,9.59807686 C72.3892441,11.0942285 71.8964811,12.1675537 71.9008282,12.8180525 C71.9074062,13.7938006 72.5842712,14.590722 73.4126772,14.5980263 Z" id="Oval-Copy-3" fill="#B8E6FE" transform="translate(73.400828, 12.098077) rotate(-1.000000) translate(-73.400828, -12.098077) "></path>
            </g>
        </g>
    </g>
</svg>