<?xml version="1.0" encoding="UTF-8"?>
<svg width="288px" height="224px" viewBox="0 0 288 224" version="1.1" xmlns="http://www.w3.org/2000/svg" xmlns:xlink="http://www.w3.org/1999/xlink">
    <title>Group 27</title>
    <g id="Extension-2.1" stroke="none" stroke-width="1" fill="none" fill-rule="evenodd">
        <g id="7.1-copy-8" transform="translate(-16.000000, -101.000000)">
            <g id="Group-27" transform="translate(16.000000, 101.000000)">
                <rect id="Rectangle" x="0" y="0" width="288" height="224"></rect>
                <g id="Group-25" transform="translate(68.000000, 13.000000)">
                    <g id="Group" transform="translate(0.000000, 179.000000)" fill="#B9C5C9" fill-rule="nonzero">
                        <ellipse id="Oval" cx="76.65893" cy="13.89009" rx="76.25302" ry="3.98722"></ellipse>
                        <path d="M123.37724,3.4494 C121.801869,5.3069055 121.096913,7.74988894 121.44048,10.16113 C121.530444,8.6033641 122.216873,7.14008015 123.35726,6.07507 C122.877403,7.23684625 122.800047,8.52577154 123.13751,9.7366 C123.552981,8.47940446 124.403046,7.41151072 125.53505,6.72469 C124.72464,7.77947564 124.882161,9.28416197 125.89345,10.14824 C125.999749,8.23479268 126.42,6.35185111 127.13738,4.57479 C127.619622,6.24351001 127.869858,7.9706716 127.88104,9.70764 C128.399899,8.22682806 129.316348,6.91740553 130.52997,5.92285 C129.879344,7.46301274 129.520874,9.11076014 129.47285,10.78202 C130.454261,8.95061158 131.966876,7.45903481 133.81185,6.50337 C132.441336,8.36168491 131.578822,10.5451132 131.30935,12.83837 L124.17035,12.9539 C122.99895,12.9729 118.65318,13.69077 118.01261,12.62826 C117.11745,11.14354 121.70405,3.4494 123.37724,3.4494 Z" id="Path"></path>
                        <path d="M136.08989,9.18326 C136.428221,9.98788552 136.850445,10.7545969 137.34956,11.47068 C137.543999,10.4457404 137.659651,9.40741373 137.6955,8.36481 C138.177821,8.95173826 138.500374,9.65329118 138.63191,10.4015 C138.844991,8.17852798 138.781679,5.93771426 138.44342,3.73032 C138.566137,4.66178002 138.816983,5.57181395 139.18884,6.4346 C139.719299,7.9818558 139.999439,9.60385209 140.01869,11.2394 C140.409619,10.0357129 141.123055,8.96223193 142.08143,8.13567 C142.267898,9.20805546 142.235242,10.307098 141.98543,11.36652 C142.412397,10.1203723 143.262298,9.06310361 144.38756,8.37829 C143.741468,9.44706759 143.3759,10.6617681 143.3248,11.90961 C143.848531,10.9445859 144.7521,10.2426733 145.81667,9.97387 C144.856176,11.0180376 144.213026,12.3142271 143.96252,13.71068 C141.85836,13.19279 139.65112,13.56868 137.61366,13.1431 C135.6365,12.73009 136.79618,10.86341 136.08989,9.18326 Z" id="Path"></path>
                        <path d="M108.289,12.8328 C109.28571,11.33668 109.69864,9.1119 111.14148,7.78319 C109.952541,8.55714012 108.932378,9.56351322 108.14232,10.74181 C108.143633,8.91827307 108.278601,7.09728477 108.54614,5.29348 C107.43014,5.50048 106.88814,7.94938 106.67164,8.93798 C106.15235,6.92737 106.61004,4.60798 106.47536,2.53292 C105.43425,4.29456 105.41244,6.48775 104.8651,8.3313 C104.01,7.80673 104.03839,5.96854 103.09031,5.27611 C103.02167,6.4555 103.40359,7.63171 103.32351,8.84311 C102.44579,8.07987 102.58077,6.71638 101.17475,6.25065 C101.06352,7.23458 101.67075,8.18195 101.53726,9.22147 C100.93089,8.46017 100.38694,7.29307 99.23694,7.49626 C99.34369,8.63204 100.68694,9.39506 100.89194,10.61369 C102.662328,10.556422 104.418909,10.943021 106.00167,11.73827 C106.50512,12.02827 106.9696,12.41959 107.46381,12.73309 C107.720535,12.8557871 108.010439,12.8908171 108.289,12.8328 Z" id="Path"></path>
                        <path d="M76.5464,1.18876 C74.9710279,3.04626118 74.2660718,5.48924195 74.60964,7.90048 C74.6996057,6.34271461 75.3860352,4.87943138 76.52642,3.81442 C76.0465609,4.97619966 75.9692083,6.26512987 76.30668,7.47596 C76.7221408,6.21875896 77.5722079,5.15086203 78.70422,4.46405 C77.8938008,5.51882947 78.0513223,7.02352053 79.06262,7.88759 C79.1689154,5.97414216 79.5891664,4.09119997 80.30655,2.31414 C80.7887917,3.98286017 81.0390271,5.71002166 81.05021,7.44699 C81.5690702,5.96618136 82.4855153,4.65676001 83.69913,3.6622 C83.0485104,5.20236486 82.6900407,6.85011099 82.64201,8.52137 C83.6234183,6.68996225 85.1360346,5.19838807 86.98101,4.24273 C85.6104975,6.10104459 84.7479862,8.28447346 84.47852,10.57773 L77.33952,10.69326 C76.16812,10.71226 71.82234,11.43012 71.18177,10.36762 C70.28661,8.8829 74.87321,1.18876 76.5464,1.18876 Z" id="Path"></path>
                        <path d="M85.08081,7.13153 C85.4191419,7.93615334 85.8413622,8.70286434 86.34047,9.41895 C86.5349123,8.39400728 86.6505672,7.35567729 86.68642,6.31307 C87.1687373,6.90000425 87.4912901,7.60155943 87.62283,8.34977 C87.8359114,6.12679799 87.7725986,3.88598425 87.43434,1.67859 C87.5570478,2.61005193 87.8078941,3.52008714 88.17976,4.38287 C88.7102113,5.93012784 88.9903505,7.55212284 89.00961,9.18767 C89.4005365,7.98398175 90.1139727,6.91050023 91.07235,6.08394 C91.2588182,7.15632546 91.2261617,8.25536796 90.97635,9.31479 C91.40332,8.06864078 92.2532238,7.01137185 93.37849,6.32656 C92.7323977,7.39533759 92.3668304,8.61003805 92.31573,9.85788 C92.8394587,8.89285425 93.7430285,8.19094109 94.8076,7.92214 C93.8471054,8.96630828 93.2039522,10.262497 92.95344,11.65895 C90.84929,11.14106 88.64204,11.51695 86.60459,11.09137 C84.62741,10.67835 85.78709,8.81168 85.08081,7.13153 Z" id="Path"></path>
                        <path d="M70.18782,1.61431 C70.3620199,3.6203105 70.2547302,5.6408183 69.86907,7.61709 C69.9217187,6.52240815 69.7161215,5.43069198 69.26889,4.43015 C69.619108,6.01346187 69.454078,7.66726551 68.79789,9.15015 C68.5181154,8.19665437 68.1030291,7.28821503 67.56531,6.45258 C67.3200925,7.05548832 67.2455032,7.71424742 67.34971,8.35672 C67.4497365,9.00828395 67.2128716,9.66616021 66.72046,10.10442 C66.7298,7.9572 65.05611,6.22324 63.49799,4.74578 C64.231044,5.77749448 64.4966434,7.06983737 64.22989,8.30703 C64.00742,7.69503 63.70089,7.00203 63.07234,6.83175 C62.525712,6.73297115 61.9725293,6.96763832 61.66366,7.42933 C61.369305,7.88620039 61.1687485,8.39704854 61.07366,8.93215 C60.8409336,6.67518218 61.0973864,4.39456673 61.82555,2.24565 C59.9659384,5.3103335 59.3541209,8.97207818 60.11642,12.47484 C61.861548,11.8514879 63.7432848,11.7141702 65.56042,12.07757 C67.50992,12.34123 71.06293,13.56986 71.70894,10.87082 C72.43763,7.82611 70.443,4.54456 70.18782,1.61431 Z" id="Path"></path>
                        <path d="M57.64494,2.78623 L57.90661,8.67685 L56.66768,5.73318 L55.49706,8.2845 C54.8943434,6.82167134 54.6274083,5.24228263 54.71591,3.66263 C53.9712858,6.0282747 53.7918144,8.53557681 54.19191,10.98316 C53.2394338,8.79143569 52.6994839,6.44279553 52.59917,4.05516 C52.2969303,5.68203217 52.1603192,7.33534348 52.19143,8.98976 L51.11577,7.37127 L50.51877,8.84968 C49.8901761,6.16633301 49.6359447,3.40890548 49.76331,0.65586 C49.198765,3.70724614 49.0062171,6.81581916 49.18988,9.91355 C48.76546,8.95329 48.51875,7.92105 48.07865,6.96788 C47.6910348,5.97932374 46.9342315,5.18021309 45.9682,4.73945 C47.1493803,5.89712789 47.7751004,7.50721579 47.68563,9.1587 C46.7424495,8.5731343 45.6829884,8.20014709 44.58099,8.0657 C45.3693679,8.82913017 45.7620162,9.91323097 45.64537,11.00445 C45.0107928,9.88532014 43.9789783,9.04539239 42.75437,8.65109 C43.68359,10.6355 46.20869,11.17265 48.38506,11.42717 C51.3517,11.7741 55.36466,12.39148 58.17275,11.01264 C60.66409,9.78935 58.187,4.8969 57.64494,2.78623 Z" id="Path"></path>
                        <path d="M38.75647,4.40928 C38.8254826,6.08616049 38.7967072,7.76563793 38.67029,9.43917 C38.4659356,7.49698191 37.6118085,5.68068277 36.24629,4.28454 C36.6440244,5.56456177 36.6970859,6.92684944 36.40012,8.23393 C35.4356546,6.27357385 34.9662599,4.10674344 35.033,1.923 C34.1553391,4.96297084 34.3303496,8.21028481 35.52965,11.13832 C34.1716731,9.77793722 33.369948,7.95994328 33.28124,6.03982 L32.55161,8.45241 C32.3663407,7.84706122 32.2803009,7.21570962 32.29683,6.58286 L31.78517,6.57151 C31.4166426,7.35969042 31.1514783,8.19217615 30.99626,9.0483 L30.32283,6.05088 C29.5735258,7.35590023 29.3207639,8.88763871 29.61106,10.36421 C28.9589079,7.92805573 27.7034157,5.69550245 25.96053,3.87273 C27.65996,5.64245 27.90471,8.31636 28.00253,10.76797 C27.9894628,10.933752 28.0376287,11.0985721 28.13791,11.23123 C28.2932912,11.3454495 28.4885625,11.3912956 28.67854,11.35816 C31.84727,11.25761 34.83834,12.83638 37.99676,13.11082 C42.52341,13.50416 39.5173,6.62379 38.75647,4.40928 Z" id="Path"></path>
                        <path d="M7.83726,5.23262 C7.74582731,6.99154734 7.80943288,8.75510948 8.02734,10.50288 C7.9213158,9.28163507 8.20454429,8.05816681 8.83645,7.00775 C8.52678395,8.34443541 8.60846653,9.74200979 9.07174,11.03352 C9.21181996,9.9780966 9.75490205,9.01783104 10.58721,8.3539 C10.363112,9.45865134 10.6512371,10.605464 11.37088,11.47311 C11.6997085,9.31028202 11.7778219,7.11672936 11.60367,4.93599 C12.5302908,7.02376186 12.8717496,9.32421072 12.5915,11.59112 C13.4385598,10.7060786 14.1918044,9.73579583 14.83921,8.69576 C14.5515062,9.62514491 14.4692743,10.605964 14.59821,11.57028 C15.1645324,9.54216633 15.4513568,7.4462384 15.45074,5.34054 C16.4745737,7.02143515 16.9375352,8.98429383 16.77274,10.94554 C17.4017169,10.1403974 17.7423524,9.14749541 17.74011,8.1258 L18.69521,11.7528 C19.1791711,10.8172546 19.545402,9.82537173 19.78554,8.7998 C20.0855245,9.56299204 20.2472541,10.3734921 20.26316,11.19337 C20.65196,9.64479129 20.7303603,8.0345649 20.49384,6.45554 C21.3970088,8.12109148 21.8314362,10.0004547 21.75084,11.89341 C22.28684,10.15825 22.73635,8.39946667 23.09937,6.61706 C22.9495696,8.60599474 23.119621,10.6060836 23.60305,12.54118 C19.94286,13.34855 16.15884,14.15878 12.47829,13.45001 C11.0862427,13.0157101 9.62713941,12.8366838 8.17139,12.92157 C7.98868596,12.9643442 7.82584589,13.067716 7.70939,13.21485 C6.61633,10.43327 7.694,7.9852 7.83726,5.23262 Z" id="Path"></path>
                    </g>
                    <path d="M98.664,183.95585 L100.79419,192.47661 C100.873298,192.794124 101.156498,193.018412 101.48369,193.02268 C104.88769,193.06676 122.83634,193.2986 123.86112,193.2986 C124.99357,193.2986 124.7082,191.12518 123.29489,190.46746 C119.79089,188.8368 111.056,186.08437 109.16569,184.19406 C107.04991,182.07827 98.664,183.95585 98.664,183.95585 Z" id="Path" fill="#575770" fill-rule="nonzero"></path>
                    <path d="M109.05607,183.17828 C109.053788,183.530631 108.979607,183.878808 108.83807,184.20149 C108.38926,185.05919 107.21516,185.14121 106.24762,185.11001 L99.55349,184.89419 C99.4136548,184.903045 99.2742914,184.870712 99.15264,184.80119 C99.0623145,184.724333 98.9929154,184.625861 98.95091,184.51495 C97.23255,180.88495 96.62039,176.82295 95.04491,173.1287 C94.16939,171.0757 93.0004,169.1463 92.29284,167.02956 C91.5584169,164.454602 91.1730145,161.792699 91.14696,159.11518 C92.4007804,159.112831 93.6533549,159.036029 94.89807,158.88518 C98.46166,158.52464 102.14863,158.12545 105.24507,156.32506 C106.51162,155.58863 107.84129,154.38915 109.35458,154.24255 C109.553671,155.130475 109.611478,156.044244 109.52587,156.95018 C109.561497,157.90674 109.591353,158.863487 109.61544,159.82042 C109.662493,161.689753 109.687493,163.559457 109.69044,165.42953 C109.69644,169.21387 109.612237,172.996923 109.43783,176.77869 C109.33931,178.913477 109.212057,181.046673 109.05607,183.17828 Z" id="Mask" fill="#575770" fill-rule="nonzero"></path>
                    <path d="M56.2956,184.67241 L54.1654,193.19318 C54.0862952,193.51069 53.8030981,193.734976 53.47591,193.73924 C50.07191,193.78333 32.12325,194.01516 31.09848,194.01516 C29.96602,194.01516 30.2514,191.84175 31.66471,191.18403 C35.16871,189.55337 43.9036,186.80093 45.7939,184.91063 C47.90969,182.79484 56.2956,184.67241 56.2956,184.67241 Z" id="Path" fill="#464558" fill-rule="nonzero"></path>
                    <g id="Group" transform="translate(95.000000, 35.000000)" fill-rule="nonzero">
                        <rect id="Rectangle" fill="#000000" transform="translate(6.703419, 11.774486) rotate(-63.433260) translate(-6.703419, -11.774486) " x="-3.0550311" y="9.82736067" width="19.5169" height="3.89425"></rect>
                        <polygon id="Path" fill="#4D4D4D" points="9.345 2.256 12.736 3.951 10.674 3.951"></polygon>
                        <polygon id="Path" fill="#4D4D4D" points="8.515 3.915 10.669 3.961 11.906 5.611 9.844 5.611"></polygon>
                        <polygon id="Path" fill="#4D4D4D" points="7.691 5.563 9.844 5.609 11.082 7.259 9.019 7.259"></polygon>
                        <polygon id="Path" fill="#4D4D4D" points="6.86 7.223 9.014 7.269 10.251 8.919 8.189 8.919"></polygon>
                        <polygon id="Path" fill="#4D4D4D" points="6.006 8.931 8.16 8.976 9.397 10.626 7.335 10.626"></polygon>
                        <polygon id="Path" fill="#4D4D4D" points="5.176 10.59 7.33 10.636 8.567 12.286 6.505 12.286"></polygon>
                        <polygon id="Path" fill="#4D4D4D" points="4.352 12.238 6.506 12.284 7.743 13.934 5.681 13.934"></polygon>
                        <polygon id="Path" fill="#4D4D4D" points="3.522 13.898 5.675 13.944 6.913 15.594 4.85 15.594"></polygon>
                        <polygon id="Path" fill="#4D4D4D" points="2.706 15.528 4.86 15.574 6.097 17.224 4.035 17.224"></polygon>
                        <polygon id="Path" fill="#4D4D4D" points="1.876 17.188 4.03 17.234 5.267 18.884 3.205 18.884"></polygon>
                        <polygon id="Path" fill="#4D4D4D" points="1.052 18.836 3.206 18.882 4.443 20.532 2.381 20.532"></polygon>
                        <rect id="Rectangle" fill="#4D4D4D" transform="translate(11.179747, 2.825275) rotate(26.573890) translate(-11.179747, -2.825275) " x="8.23927165" y="1.67008958" width="5.88095" height="2.31037" rx="0.68027"></rect>
                    </g>
                    <g id="Group" transform="translate(42.000000, 35.000000)" fill-rule="nonzero">
                        <rect id="Rectangle" fill="#000000" transform="translate(8.572706, 11.774480) rotate(-26.566740) translate(-8.572706, -11.774480) " x="6.62558129" y="2.01603006" width="3.89425" height="19.5169"></rect>
                        <polygon id="Path" fill="#4D4D4D" points="5.931 2.256 2.54 3.951 4.602 3.951"></polygon>
                        <polygon id="Path" fill="#4D4D4D" points="6.761 3.915 4.607 3.961 3.37 5.611 5.432 5.611"></polygon>
                        <polygon id="Path" fill="#4D4D4D" points="7.586 5.563 5.432 5.609 4.195 7.259 6.257 7.259"></polygon>
                        <polygon id="Path" fill="#4D4D4D" points="8.416 7.223 6.262 7.269 5.025 8.919 7.087 8.919"></polygon>
                        <polygon id="Path" fill="#4D4D4D" points="9.27 8.931 7.116 8.976 5.879 10.626 7.941 10.626"></polygon>
                        <polygon id="Path" fill="#4D4D4D" points="10.1 10.59 7.946 10.636 6.709 12.286 8.771 12.286"></polygon>
                        <polygon id="Path" fill="#4D4D4D" points="10.924 12.238 8.771 12.284 7.533 13.934 9.595 13.934"></polygon>
                        <polygon id="Path" fill="#4D4D4D" points="11.755 13.898 9.601 13.944 8.364 15.594 10.426 15.594"></polygon>
                        <polygon id="Path" fill="#4D4D4D" points="12.57 15.528 10.416 15.574 9.179 17.224 11.241 17.224"></polygon>
                        <polygon id="Path" fill="#4D4D4D" points="13.4 17.188 11.246 17.234 10.009 18.884 12.071 18.884"></polygon>
                        <polygon id="Path" fill="#4D4D4D" points="14.224 18.836 12.071 18.882 10.833 20.532 12.896 20.532"></polygon>
                        <rect id="Rectangle" fill="#4D4D4D" transform="translate(4.096395, 2.825287) rotate(153.426110) translate(-4.096395, -2.825287) " x="1.15592029" y="1.67010219" width="5.88095" height="2.31037" rx="0.68027"></rect>
                    </g>
                    <g id="Path-+-Path-+-Path-+-Path-+-Path-+-Path-+-Path-+-Path-+-Path-+-Path-+-Path-+-Path-Mask" transform="translate(106.464178, 90.703330)" fill="#575770" fill-rule="nonzero">
                        <path d="M12.1350718,0.685159587 C13.2250618,4.68698083 13.6874101,8.83371789 13.5056118,12.9773396 C13.0904018,19.2064896 12.8204618,18.5628196 12.8204618,18.5628196 L5.10946184,18.3349796 C4.68628427,18.3227709 4.32461454,18.0266091 4.22919184,17.6141496 C3.51769184,14.5367996 0.664581839,2.32439959 0.0297418394,1.59888959 C-0.696978161,0.768339587 12.1350718,0.685159587 12.1350718,0.685159587 Z" id="Mask"></path>
                    </g>
                    <g id="Group" transform="translate(96.000000, 54.000000)" fill="#000000" fill-rule="nonzero">
                        <path d="M17.6232,0.93486 C17.6232,0.93486 24.6624,26.74424 24.6417157,29.40201 C24.62094,32.05978 23.85267,36.54478 21.36107,38.72501 C18.86947,40.90524 12.3496,42.50412 8.71589,38.35139 C5.08218,34.19866 0.24406,19.95471 0.24406,19.95471 L17.6232,0.93486 Z" id="Path"></path>
                    </g>
                    <path d="M111.18362,141.51178 C112.204088,144.558879 112.739683,147.747336 112.77083,150.96062 C112.490942,154.132432 111.256937,157.145095 109.23133,159.60185 C108.089764,161.192525 106.535283,162.441066 104.7358,163.21261 C102.891653,163.881817 100.906548,164.06622 98.97069,163.74815 C94.92602,163.18789 90.84175,161.96877 88.39507,158.63191 C86.9984733,156.513813 86.0755358,154.119208 85.68931,151.61169 C83.91505,143.00185 83.65022,134.10884 82.89843,125.3992 C82.8362554,124.951603 82.7973663,124.50108 82.78192,124.04945 L90.67387,121.83631 C92.992657,121.140272 95.3509802,120.583476 97.73622,120.1689 C98.943107,119.974569 100.16273,119.869892 101.38508,119.85573 C102.521207,119.746093 103.667815,119.857635 104.76151,120.18419 C105.53638,120.54449 105.60226,121.52919 105.79827,122.23097 C106.14019,123.45515 106.482117,124.67933 106.82405,125.90351 L108.87561,133.24858 L111.18362,141.51178 Z" id="Path" fill="#000000" fill-rule="nonzero"></path>
                    <path d="M45.60873,184.48812 C45.6126666,184.840456 45.6884844,185.188279 45.83154,185.51029 C46.28436,186.36589 47.45884,186.4424 48.42622,186.40668 L55.11922,186.15954 C55.2590949,186.167753 55.398309,186.13478 55.51964,186.0647 C55.6095988,185.987418 55.6785328,185.888623 55.72002,185.77752 C57.42138,182.13952 58.01453,178.07473 59.5727,174.37312 C60.4386,172.31607 61.59855,170.38119 62.2962,168.26112 C63.0185672,165.682752 63.3915116,163.019074 63.40504,160.34146 C62.1512206,160.344977 60.8982987,160.274036 59.65289,160.12901 C56.08766,159.78515 52.39889,159.40321 49.29406,157.61733 C48.02406,156.88683 46.68881,155.69358 45.17485,155.55407 C44.9799172,156.442917 44.9263862,157.356945 45.01623,158.26247 C44.9850767,159.219183 44.9597,160.17606 44.9401,161.1331 C44.9017933,163.00262 44.88554,164.872417 44.89134,166.74249 C44.90304,170.526823 45.00494,174.309443 45.19704,178.09035 C45.3055333,180.224677 45.4427633,182.357267 45.60873,184.48812 Z" id="Mask" fill="#464558" fill-rule="nonzero"></path>
                    <path d="M44.73882,141.66445 C43.8211076,144.723105 43.3643804,147.901456 43.38369,151.09476 C43.6855249,154.245776 44.8828999,157.244578 46.83437,159.73692 C47.9058011,161.308995 49.3838175,162.560801 51.11081,163.35885 C52.8354713,164.031881 54.7105447,164.223861 56.53581,163.91429 C60.3284,163.36929 64.1487,162.16642 66.39963,158.84285 C67.6913081,156.70431 68.5227548,154.319873 68.84086,151.84185 C70.38386,143.25007 70.50439,134.3701 71.08515,125.67499 C71.09315,125.55455 71.21836,124.34048 71.17515,124.32749 L63.72736,122.08912 C61.5446531,121.387319 59.3201827,120.822743 57.06698,120.3987 C55.9328254,120.200574 54.7848873,120.091641 53.63371,120.0729 C52.5672209,119.959074 51.4887161,120.066628 50.46571,120.38883 C49.74278,120.74583 49.69507,121.72901 49.52102,122.42912 C49.2173933,123.650407 48.9137567,124.871697 48.61011,126.09299 L46.7883,133.42074 L44.73882,141.66445 Z" id="Path" fill="#000000" fill-rule="nonzero"></path>
                    <g id="Group" transform="translate(30.000000, 56.000000)" fill-rule="nonzero">
                        <g transform="translate(0.000000, 36.000000)" fill="#464558" id="Path-+-Path-+-Path-+-Path-+-Path-+-Path-+-Path-+-Path-+-Path-+-Path-+-Path-+-Path-Mask">
                            <g transform="translate(0.841589, 0.270351)">
                                <path d="M2.88010148,0.345589189 C1.50739233,4.25944794 0.75038444,8.36262975 0.636101481,12.5086592 C0.605831481,18.7515692 0.921001481,18.1287892 0.921001481,18.1287892 L8.62859148,18.4516792 C9.05156329,18.4696839 9.4334391,18.2000791 9.55805148,17.7954792 C10.4872915,14.7767392 14.2044215,2.79900919 14.8894015,2.12063919 C15.6735215,1.34405919 2.88010148,0.345589189 2.88010148,0.345589189 Z" id="Mask"></path>
                            </g>
                        </g>
                        <g fill="#000000" id="Path">
                            <path d="M8.23482,0.6445 C8.23482,0.6445 0.6413,26.29627 0.60482,28.95387 C0.56834,31.61147 1.23974,36.11198 3.68382,38.34537 C6.1279,40.57876 12.61182,42.31771 16.33412,38.24422 C20.05642,34.17073 25.20026,20.0343 25.20026,20.0343 L8.23482,0.6445 Z"></path>
                        </g>
                        <g transform="translate(1.000000, 54.000000)" fill="#000000" id="Path">
                            <g>
                                <path d="M1.37838,5.98189 C1.907478,7.85794244 3.23587918,9.40580511 5.00994,10.21341 C5.3339551,10.3521436 5.67576671,10.4449206 6.02546,10.48905 C6.86542585,10.5347019 7.70213358,10.3526997 8.44724,9.96226 C8.95428629,9.75861066 9.41145642,9.44801848 9.78758,9.05166 C10.2360675,8.52096677 10.419454,7.8154018 10.28614,7.13349 C10.2439502,6.9880516 10.2231423,6.83724919 10.22437,6.68582 C10.2728945,6.4679145 10.3643666,6.26186691 10.49344,6.07972 C10.8878966,5.10573981 10.7263092,3.99472461 10.07075,3.17346 C9.49375,2.32064 8.69508,1.63502 8.12483,0.77765 C8.06528505,0.674994187 7.99038525,0.582052335 7.90273,0.50205 C7.82420293,0.442685891 7.73502353,0.398926171 7.64002,0.37314 C7.01538083,0.286415672 6.37966305,0.326666087 5.77095,0.49148 C4.50195,0.63618 3.26317,0.13158 1.99524,0.23742 C1.72124,0.2603 1.45037,0.25252 1.31864,0.5015 C1.20296873,0.838689928 1.137502,1.19105461 1.12434,1.54729 C1.02037884,2.23925113 0.978651882,2.93913826 0.99966,3.63855 C1.02247137,4.43290288 1.14980636,5.22079149 1.37838,5.98189 L1.37838,5.98189 Z"></path>
                            </g>
                        </g>
                    </g>
                    <path d="M38.19966,57.11854 C38.03667,56.9754329 37.9507256,56.7638328 37.9677661,56.5476038 C37.9848066,56.3313748 38.1028355,56.1358494 38.28623,56.02004 C42.28397,53.51089 59.41206,43.24231 71.97633,43.24231 C86.12033,43.24231 106.61195,46.83469 113.76175,55.01615 C113.918829,55.1980862 113.967923,55.449552 113.89081,55.67721 C112.83424,58.86236 105.22222,81.90527 104.30391,87.41511 C103.616761,92.1546429 103.286798,96.939118 103.31681,101.72811 C103.31681,103.03211 109.44181,114.67199 110.90324,117.43081 C111.077285,117.759349 110.958286,118.166734 110.63476,118.34993 C107.4239,120.17786 91.49976,128.87341 79.13282,128.87341 C66.66413,128.87341 46.15976,120.03415 42.27059,118.30621 C42.1002903,118.23048 41.9680682,118.088807 41.9042561,117.913692 C41.8404441,117.738578 41.8505191,117.545052 41.93217,117.37751 L49.45056,101.87083 C49.4962106,101.776779 49.519809,101.673555 49.51956,101.56901 C49.51674,100.35301 49.48093,92.45542 49.02625,87.90868 C48.557,83.21672 43.18138,61.57525 38.19966,57.11854 Z" id="Path" fill="#575770" fill-rule="nonzero"></path>
                    <path d="M38.19966,57.11854 C38.03667,56.9754329 37.9507256,56.7638328 37.9677661,56.5476038 C37.9848066,56.3313748 38.1028355,56.1358494 38.28623,56.02004 C42.28397,53.51089 62.43573,41.8106689 75,41.8106689 C75.5881982,55.532 77.3450437,111.104784 76.775763,128.87341 C64.307073,128.87341 46.15976,120.03415 42.27059,118.30621 C42.1002903,118.23048 41.9680682,118.088807 41.9042561,117.913692 C41.8404441,117.738578 41.8505191,117.545052 41.93217,117.37751 L49.45056,101.87083 C49.4962106,101.776779 49.519809,101.673555 49.51956,101.56901 C49.51674,100.35301 49.48093,92.45542 49.02625,87.90868 C48.557,83.21672 43.18138,61.57525 38.19966,57.11854 Z" id="Path" fill="#464558" fill-rule="nonzero"></path>
                    <g id="Group-8" transform="translate(38.000000, 39.000000)">
                        <path d="M49.0934558,6.16565 C49.0515158,6.21395 49.0073158,6.26225 48.9653658,6.31271 C47.6484458,7.85012 54.7559658,10.47971 53.2626558,11.84287 C48.9095858,15.81627 44.7444558,20.06787 40.0919458,23.69521 C35.6265539,27.2413994 30.6675735,30.1169861 25.3717458,32.23108 C19.8080958,34.39173 13.7189758,34.86789 8.26074578,37.29896 C6.14153578,29.81548 3.12127578,21.45822 0.233305778,18.8769 C0.070785052,18.7331576 -0.0148202844,18.5214516 0.00211161236,18.3051459 C0.0190435091,18.0888401 0.136548006,17.893033 0.319455778,17.77633 C4.31845578,15.26853 21.4467258,5 34.0109158,5 C39.0601143,5.02055676 44.1010575,5.41014468 49.0934558,6.16565 Z" id="Path" fill="#000000" fill-rule="nonzero" opacity="0.1"></path>
                        <g id="Group-2" transform="translate(13.000000, 0.000000)">
                            <path d="M31.8594949,0.638472559 L38.8594949,0.638472559 C40.6037989,6.16239084 41.7666682,12.2144491 42.3481029,18.7946474 C42.9295375,25.3748458 42.9295375,32.4831841 42.3481029,40.1196624 C42.052519,41.6420549 40.8896497,42.9325341 38.8594949,43.9910999 C36.8293401,45.0496657 34.4960067,45.5821809 31.8594949,45.5886454 C32.8638942,38.0969499 33.3660939,30.6052544 33.3660939,23.113559 C33.3660939,15.6218635 32.8638942,8.13016803 31.8594949,0.638472559 Z" id="Rectangle-Copy" fill="#2B2A37"></path>
                            <path d="M5.62300241,3.6606504 C-1.23494817,6.80896594 -1.81980618,11.9460197 3.86842836,19.0718116 C12.4007802,29.7604994 37.2949717,29.3767495 44.8475993,17.7790229 C49.8826844,10.0472052 47.4852705,4.12086422 37.6553577,-3.55271368e-14 L5.62300241,3.6606504 Z" id="Path-4" fill="#464558"></path>
                            <path d="M36.8594949,5.63847256 L43.8594949,5.63847256 C45.6037989,11.1623908 46.7666682,17.2144491 47.3481029,23.7946474 C47.9295375,30.3748458 47.9295375,37.4831841 47.3481029,45.1196624 C47.052519,46.6420549 45.8896497,47.9325341 43.8594949,48.9910999 C41.8293401,50.0496657 39.4960067,50.5821809 36.8594949,50.5886454 C37.8638942,43.0969499 38.3660939,35.6052544 38.3660939,28.113559 C38.3660939,20.6218635 37.8638942,13.130168 36.8594949,5.63847256 Z" id="Rectangle" fill="#464558"></path>
                        </g>
                        <path d="M49.0934558,6.16565 C49.0515158,6.21395 49.0073158,6.26225 48.9653658,6.31271 C47.6484458,7.85012 54.1912495,10.23084 52.6979395,11.594 C48.3448695,15.5674 44.7444558,20.06787 40.0919458,23.69521 C35.6265539,27.2413994 30.6675735,30.1169861 25.3717458,32.23108 C19.8080958,34.39173 13.7189758,34.86789 8.26074578,37.29896 C6.14153578,29.81548 3.12127578,21.45822 0.233305778,18.8769 C0.070785052,18.7331576 -0.0148202844,18.5214516 0.00211161236,18.3051459 C0.0190435091,18.0888401 0.0503980058,17.4532395 0.233305778,17.3365364 C2.1405877,16.140467 7.01870319,12.9501068 13,10.284 C13.7379327,1.8922838 28.7958849,0.293131326 34.0109158,5 C39.0601143,5.02055676 44.1010575,5.41014468 49.0934558,6.16565 Z" id="Path" fill="#000000" fill-rule="nonzero" opacity="0.300000012"></path>
                    </g>
                    <g id="Group" transform="translate(49.000000, 91.000000)" fill="#000000" fill-rule="nonzero">
                        <path d="M0.32189,0.43725 C0.32189,0.43725 30.50589,17.8838 54.72066,0.22725 L54.3006,10.72894 C54.3006,10.72894 32.81825,25.86315 0.53193,10.72894 L0.32189,0.43725 Z" id="Path"></path>
                    </g>
                    <g id="Group" transform="translate(109.000000, 109.000000)" fill="#000000" fill-rule="nonzero">
                        <g id="Path">
                            <path d="M9.35427,5.87776 C8.78487955,7.7419751 7.42344913,9.26086114 5.63241,10.03007 C5.30547817,10.1617897 4.96174497,10.2471819 4.61118,10.28377 C3.77042535,10.3113166 2.93783229,10.1113314 2.20131,9.70493 C1.69876695,9.49040961 1.24839126,9.17004535 0.88089,8.76568 C0.443941004,8.22544552 0.275797711,7.51609285 0.42377,6.83721 C0.469084546,6.69271641 0.493136434,6.54239885 0.49517,6.39098 C0.451331816,6.17207602 0.36430322,5.96410487 0.23917,5.77922 C-0.134204491,4.79696732 0.0512787029,3.68969535 0.72437,2.88274 C1.31964,2.04255 2.13286,1.37429 2.72145,0.5294 C2.78320183,0.428053656 2.86009079,0.336748022 2.94945,0.25865 C3.02923918,0.200991545 3.11934185,0.159163373 3.21488,0.13543 C3.84123968,0.0621774564 4.47594104,0.116111154 5.08096,0.294 C6.34659,0.466 7.59596,-0.01179 8.86127,0.12133 C9.13473,0.15011 9.40569,0.14816 9.53203,0.39993 C9.64040579,0.739533441 9.69826444,1.09322527 9.70375,1.44966 C9.79278501,2.14369953 9.81942829,2.84432305 9.78336,3.54312 C9.74345103,4.33679706 9.59918036,5.12176072 9.35427,5.87776 Z"></path>
                        </g>
                    </g>
                    <g id="Group-20" transform="translate(51.329775, 0.000000)">
                        <g id="Group-5">
                            <path d="M46.5261852,23.40599 C46.3226618,23.4027359 46.1211286,23.4464515 45.9372452,23.53374 C43.9540852,10.11726 35.1084652,-2.30926389e-13 24.4948552,-2.30926389e-13 C13.8957752,-2.30926389e-13 5.05946523,10.0895 3.06031523,23.47867 C2.91534528,23.4276637 2.76240832,23.403048 2.60875523,23.40599 C1.08475523,23.44384 -0.0812447709,26.27384 0.00443522906,29.72699 C0.0875952291,33.07663 1.89487523,36.70899 3.39413523,36.88931 C5.90967523,49.32249 14.4028652,58.4701 24.4948552,58.4701 C34.5852652,58.4701 43.0771552,49.32557 45.5942552,36.89557 L45.6026352,36.89645 C47.1266352,36.93427 49.0447352,33.18015 49.1305152,29.72699 C49.2162952,26.27383 48.0502052,23.44384 46.5261852,23.40599 Z" id="Path" fill="#575770"></path>
                            <path d="M24.5771652,0.00248 C24.5495952,0.00235 24.5224252,2.00000002e-05 24.4948552,2.00000002e-05 C13.8957752,2.00000002e-05 5.05946523,10.08952 3.06031523,23.47869 C2.91534528,23.4276837 2.76240832,23.403068 2.60875523,23.40601 C1.08475523,23.44386 -0.0812447709,26.27386 0.00443522906,29.72701 C0.0875952291,33.07665 1.89487523,36.70901 3.39413523,36.88933 C5.90967523,49.32251 14.4028652,58.47012 24.4948552,58.47012 C24.5224252,58.47012 24.5495952,58.46793 24.5771652,58.4678 L24.5771652,0.00248 Z" id="Path" fill="#464558"></path>
                            <path d="M41.3665752,24.51588 C39.4330452,22.24725 35.9542852,22.10149 33.2036752,21.97229 L16.3223052,21.97229 C13.5717552,22.10149 10.0929952,22.24729 8.15939523,24.51588 C6.55255523,26.40119 6.29494523,30.11477 6.61606523,32.46156 C6.93306523,34.77796 8.37293523,37.8015 10.9085052,38.223 C11.4305477,38.2932829 11.9594404,38.2964419 12.4822852,38.2324 C14.1532184,38.1269899 15.802433,37.7976979 17.3857252,37.25335 C18.8584652,36.68861 20.2201452,35.86155 21.7260852,35.37849 C22.2914889,35.1973143 22.8760155,35.0823949 23.4679252,35.03604 C24.0649252,34.98927 24.6663452,35.00984 25.2645652,35.0124 L25.3742552,35.01287 C25.9591162,35.0105591 26.5425364,35.0710186 27.1144952,35.19321 C27.3457086,35.2443433 27.5742119,35.3061033 27.8000052,35.37849 C29.3058152,35.86155 30.6675652,36.68861 32.1402452,37.25335 C33.723561,37.7977 35.3727989,38.1269919 37.0437552,38.2324 C37.5666001,38.2964418 38.0954927,38.2932828 38.6175352,38.223 C41.1530952,37.8015 42.5929052,34.778 42.9099652,32.46156 C43.2310852,30.11477 42.9734852,26.40119 41.3665752,24.51588 Z" id="Path" fill="#EEBDAA"></path>
                            <path d="M24.7836452,21.97273 L24.7836452,35.00784 C24.3437452,35.00516 23.9039052,35.00247 23.4667552,35.03466 C22.8752714,35.0818867 22.2911938,35.1970722 21.7260652,35.37794 C20.2186752,35.86074 18.8588252,36.68685 17.3863452,37.25277 C15.8022417,37.7968565 14.1523471,38.1261224 12.4807452,38.23177 C11.9586558,38.2961615 11.4304721,38.293473 10.9090652,38.22377 C8.37179523,37.79997 6.93414523,34.77722 6.61499523,32.4599 C6.29583523,30.11305 6.55330523,26.40098 8.15989523,24.51544 C10.0936852,22.24638 13.5723852,22.10154 16.3215552,21.97273 L24.7836452,21.97273 Z" id="Path" fill="#D19F93"></path>
                            <path d="M33.6645297,31.8811465 C32.7743903,31.8547856 31.9130482,31.5344097 31.1962834,30.9630833 C30.9505862,30.7643215 30.9004271,30.3878294 31.0842499,30.1221646 C31.2680727,29.8564999 31.6162674,29.8022644 31.8619646,30.0010263 C32.2518754,30.5043473 32.8247042,30.7997924 33.4318372,30.8107118 C34.0389701,30.8216312 34.6205694,30.5469486 35.0257455,30.0579273 C35.2427646,29.8239146 35.5940657,29.8241753 35.8107875,30.0585099 C36.0275094,30.2928444 36.0277505,30.6726953 35.8113263,30.9073513 C35.2494903,31.5365082 34.4733462,31.8885701 33.6645297,31.8811465 Z" id="Path" fill="#01002B" fill-rule="nonzero"></path>
                            <path d="M35.4566736,26.4500713 C35.7661438,26.5363579 36.0335894,26.619618 36.0762212,26.1313574 C36.1065545,25.7839506 35.5626132,25.6971895 35.6964685,25.7139709 C35.9114806,25.7409267 36.0468785,25.5872531 36.0762212,25.3725537 C36.0993121,25.1586091 35.9500506,24.96434 35.7373783,24.9315378 C34.2551945,24.5818269 32.699394,24.7250489 31.3059659,25.3394793 C31.1338523,25.4136252 31.0425697,25.6031531 31.0918946,25.7839506 C31.1430769,25.9630809 31.3155848,26.0795217 31.5008576,26.059996 L32.5645169,26.0368085 C32.8973539,26.0164874 33.2312226,26.0201817 33.5635285,26.0478628 C34.204283,26.1260717 34.6367811,26.2214683 35.4566736,26.4500713 Z" id="Path" fill="#01002B" fill-rule="nonzero"></path>
                            <g id="Group-33" transform="translate(16.078575, 28.744480) scale(-1, 1) translate(-16.078575, -28.744480) translate(13.078575, 24.744480)" fill="#01002B" fill-rule="nonzero">
                                <path d="M2.69104292,7.13666649 C1.80090355,7.11030555 0.93956137,6.7899297 0.222796649,6.21860334 C-0.0229005423,6.0198415 -0.0730596688,5.64334937 0.110763104,5.37768464 C0.294585877,5.11201992 0.642780605,5.05778441 0.888477796,5.25654626 C1.27838859,5.75986729 1.85121746,6.05531245 2.45835039,6.06623182 C3.06548333,6.07715119 3.64708257,5.80246858 4.05225876,5.3134473 C4.26927785,5.07943461 4.62057892,5.0796953 4.83730074,5.31402986 C5.05402256,5.54836443 5.05426366,5.92821534 4.83783952,6.16287133 C4.27600347,6.79202818 3.49985943,7.14409009 2.69104292,7.13666649 Z" id="Path"></path>
                                <path d="M4.48318682,1.70559125 C4.79265697,1.79187792 5.0601026,1.875138 5.1027344,1.3868774 C5.13306774,1.03947063 4.58912639,0.952709546 4.72298173,0.969490859 C4.93799385,0.996446718 5.07339171,0.842773099 5.1027344,0.628073691 C5.12582533,0.414129129 4.97656379,0.219860002 4.76389155,0.187057839 C3.28170771,-0.162653051 1.72590724,-0.0194310945 0.332479134,0.594999326 C0.160365523,0.66914518 0.0690829588,0.858673066 0.118407836,1.03947063 C0.169590129,1.21860092 0.34209799,1.33504174 0.527370844,1.31551597 L1.59103011,1.29232847 C1.92386707,1.27200737 2.25773586,1.27570171 2.59004166,1.3033828 C3.23079624,1.38159173 3.66329428,1.47698828 4.48318682,1.70559125 Z" id="Path"></path>
                            </g>
                        </g>
                        <path d="M30.6919042,16.4522407 C32.2076043,16.4637466 33.4266078,15.2270618 33.4146248,13.6900279 C33.4066362,12.6653386 32.4785948,10.9607088 30.6305007,8.57613853 C28.8193712,10.932931 27.9177832,12.6236719 27.9257368,13.6483612 C27.9377724,15.1853951 29.1762042,16.4407347 30.6919042,16.4522407 Z" id="Oval" fill="#B8E6FE" transform="translate(30.670225, 12.514229) rotate(-1.000000) translate(-30.670225, -12.514229) "></path>
                        <path d="M18.4126772,10.5980263 C19.2410831,10.6053306 19.9073296,9.82025168 19.9007803,8.84450354 C19.8964141,8.19400478 19.389193,7.11186255 18.3791171,5.59807686 C17.3892441,7.09422851 16.8964811,8.16755372 16.9008282,8.81805248 C16.9074062,9.79380062 17.5842712,10.590722 18.4126772,10.5980263 Z" id="Oval-Copy-3" fill="#B8E6FE" transform="translate(18.400828, 8.098077) rotate(-1.000000) translate(-18.400828, -8.098077) "></path>
                    </g>
                    <g id="Group-21" opacity="0.50764974" transform="translate(54.188188, 41.095170)" fill="#FFFFFF">
                        <path d="M16.213007,6.82121026e-13 L14.5724661,13.0272272 L14.4967039,12.9913083 L14.5347068,13.0785271 L14.5347068,13.0785271 C15.209433,13.0184027 15.9087035,13.1307843 16.5671211,13.4378094 C18.5692809,14.3714319 19.4355016,16.7513537 18.5018792,18.7535136 C17.5682567,20.7556735 15.1883348,21.6218942 13.186175,20.6882717 C12.9500208,20.5781512 12.72967,20.4479096 12.5262119,20.3005401 C10.8216783,21.5283729 8.52036449,21.8227023 6.48047345,20.8714855 C4.44015872,19.9200711 3.18627501,17.9673578 3.03108353,15.8712761 C2.78774218,15.8119471 2.54648741,15.7269039 2.31048151,15.6168526 C0.308321636,14.6832301 -0.557899071,12.3033083 0.375723413,10.3011484 C1.3093459,8.29898851 3.68926773,7.4327678 5.69142761,8.36639028 C6.3499703,8.67347379 6.88562048,9.13702638 7.27475374,9.69214055 L7.36466301,9.665314 L7.30504756,9.63837429 L16.213007,6.82121026e-13 Z" id="Path"></path>
                        <path d="M39.213007,-2.25597319e-13 L37.5724661,13.0272272 L37.4967039,12.9913083 L37.5347068,13.0785271 L37.5347068,13.0785271 C38.209433,13.0184027 38.9087035,13.1307843 39.5671211,13.4378094 C41.5692809,14.3714319 42.4355016,16.7513537 41.5018792,18.7535136 C40.5682567,20.7556735 38.1883348,21.6218942 36.186175,20.6882717 C35.9500208,20.5781512 35.72967,20.4479096 35.5262119,20.3005401 C33.8216783,21.5283729 31.5203645,21.8227023 29.4804735,20.8714855 C27.4401587,19.9200711 26.186275,17.9673578 26.0310835,15.8712761 C25.7877422,15.8119471 25.5464874,15.7269039 25.3104815,15.6168526 C23.3083216,14.6832301 22.4421009,12.3033083 23.3757234,10.3011484 C24.3093459,8.29898851 26.6892677,7.4327678 28.6914276,8.36639028 C29.3499703,8.67347379 29.8856205,9.13702638 30.2747537,9.69214055 L30.364663,9.665314 L30.3050476,9.63837429 L39.213007,-2.25597319e-13 Z" id="Path" transform="translate(32.438801, 10.717535) scale(-1, 1) translate(-32.438801, -10.717535) "></path>
                    </g>
                </g>
            </g>
        </g>
    </g>
</svg>
