<svg fill="none" height="219" width="220" xmlns="http://www.w3.org/2000/svg"><path d="M21.28 197.1c.98 1.1 2.45 1.55 3.88 1.9 24.77 6.22 50.54-1.86 75.89-5 8.74-1.08 17.67-1.56 26.34.1 6.27 1.19 12.5 3.5 18.84 2.82 5.36-.57 10.24-3.22 15.46-4.6 4.95-1.3 10.14-1.42 15.09-2.73 10.58-2.84 18.91-10.8 26.52-18.67 1.32-1.35 2.72-3.06 2.31-4.9-.55-2.5-3.83-3.08-6.4-3.06-16.1.12-32.09 2.3-48.17 3.22-26.7 1.54-53.55-.4-80.14 2.4-9.25.99-18.5 2.54-27.77 2.06-1.16-.06-2.4-.15-3.44.39-.51.27-.94.66-1.35 1.07-5.11 4.84-10.01 9.92-14.68 15.2-2.42 2.8-4.82 7.04-2.38 9.8z" fill="#888" opacity=".1"/><path d="M83.74 171.6c-8.07.96-16.16 2.05-24.01 4.1-54.1 14.01-31.62 26.2 20.6 20.57 16.48-1.79 32.74-5.3 49.23-6.99 2.39-.25 4.85-.44 7.13.34 9.9 3.39 17.06 2.28 54.12-12.86 5.18-2.12 10.97-5.1 12.22-10.56-27.25 8.05-31.63-5.04-119.3 5.4z" fill="#888" opacity=".3"/><path d="M183.37 170.03s-3.96 7.6-3.89 7.4c.06-.17 23.66-8.8 22.37-9.79-1.28-.96-18.48 2.39-18.48 2.39z" fill="#000" fill-opacity=".2"/><path d="M144.08 183.78c.25-2.89-1.7-5.63-4.17-7.1-2.48-1.49-5.43-1.97-8.32-2.29-6.27-.7-12.59-.85-18.9-.92-14.5-.14-29.35.28-42.86 5.55-5.06 1.98-9.87 4.62-15.12 5.95-3.05.77-6.7 1.48-7.91 4.37a2.8 2.8 0 0 0-.2 1.78c.41 1.5 2.28 1.96 3.83 2.08 8.48.71 17-.55 25.42-1.81 4.95-.75 9.49-.75 14.46-1.48.9-.15 12.2 3.75 31.3-1.43 6.44-1.74 16.3.66 24.4 1.73 6.44.85 12.62.32 8.49.12-.63-.03 11.75-24.24 12.28-24.57.95-.6-22.8 19.09-22.7 18.02z" fill="#888" opacity=".5"/><path d="M103.92 62.5c0 1.2-.22 2.16-.49 2.16s-.48-.96-.48-2.17.24-2.17.5-2.17c.25.02.47 1 .47 2.19z" fill="#2f2d46"/><path d="M36.54 139.95c-.25 0-.48-.2-.5-.45-.03-.26.18-.51.45-.55 9.08-.9 17.75-5.98 25.75-15.07 9.07-10.3 17.06-25.59 23.78-45.45 6.3-18.68 9.92-19.4 10.58-19.34l-.08 1h.06c-.04 0-3.51.57-9.6 18.66-6.75 19.98-14.82 35.37-23.97 45.8-8.18 9.29-17.07 14.47-26.42 15.4h-.05z" fill="#575770"/><path d="M92.09 65.48c.62-1.37 1.39-2.78 1.66-4.18-1.16 1.51-2.64 4.06-4.42 8.3 1.37-1.07 2.03-2.51 2.76-4.12z" fill="#a6a6a6" opacity=".14"/><path d="M86.9 78.93a125.36 125.36 0 0 1 3.8-9.97A7.82 7.82 0 0 1 89 70.4c-.92 2.2-1.91 4.86-2.98 8.01-.3.91-.6 1.8-.93 2.67.68-.64 1.28-1.4 1.82-2.15zM84.77 82.05l-.85 2.33.67-.7c.38-.37.71-.74 1.05-1.12l.79-2.22c-.5.62-1.05 1.2-1.66 1.7zM84.36 84.58l-.8.74c-6.16 16.53-13.32 29.48-21.32 38.56-8 9.1-16.67 14.16-25.75 15.07a.5.5 0 0 0-.45.55c.02.27.25.45.5.45h.05c9.35-.93 18.24-6.13 26.42-15.4 8.38-9.54 15.85-23.25 22.22-40.81-.28.28-.57.57-.87.84z" fill="#272734" opacity=".25"/><path d="M94.69 61.35c.09-.52.21-1 .36-1.48-.22.18-.45.41-.7.7-.12.85-.32 1.69-.59 2.5.3-.45.6-.86.84-1.18.02-.2.05-.38.09-.54z" fill="#575770"/><path d="m96.52 60.09.08-1c-.16-.02-.47.02-.93.28a9.36 9.36 0 0 0-.48 1.71l-.02.08c.9-.98 1.37-1.07 1.39-1.07h-.04z" fill="#272734" opacity=".25"/><path d="m107.3 64.06 1.1-.1c-.05-1.26-.23-2.5-.55-3.71-.71.09-1.42.17-2.13.28-.57.07-1.16.14-1.71.02-.4-.09-.75-.29-1.1-.46a19.34 19.34 0 0 0-4.03-1.66c-.34-.09-.7-.09-1.04-.21-.3-.13-.58-.25-.89-.36-.14-.05-.35-.14-.5-.05-.03.01-1.87 1.76-1.83 1.9.1.32.52.38.84.34-.1.23.07.57.32.64-.55.23-.47.77-.25 1.12.05.08.09.18.16.24-.29.25-.25 1.03.87 1.06l-.1.11a.8.8 0 0 0-.18.77c.08.34.37.57.65.73.33.18.68.25 1.04.25.02 0 .02-.02.02-.02.2.05.4.09.6-.02.25.04.48.07.73.05.57-.03 1.14.06 1.7.02.5-.03.94-.28 1.42-.43.35-.1.73-.14 1.1-.17 1.27-.13 2.51-.23 3.76-.34z" fill="#ed8600"/><path d="m107.3 64.06 1.1-.1c-.05-1.26-.23-2.5-.55-3.71-.71.09-1.42.17-2.13.28-.57.07-1.16.14-1.71.02-.4-.09-.75-.29-1.1-.46a19.34 19.34 0 0 0-4.03-1.66c-.34-.09-.7-.09-1.04-.21-.3-.13-.58-.25-.89-.36-.14-.05-.35-.14-.5-.05-.03.01-1.87 1.76-1.83 1.9.1.32.52.38.84.34-.1.23.07.57.32.64-.55.23-.47.77-.25 1.12.05.08.09.18.16.24-.29.25-.25 1.03.87 1.06l-.1.11a.8.8 0 0 0-.18.77c.08.34.37.57.65.73.33.18.68.25 1.04.25.02 0 .02-.02.02-.02.2.05.4.09.6-.02.25.04.48.07.73.05.57-.03 1.14.06 1.7.02.5-.03.94-.28 1.42-.43.35-.1.73-.14 1.1-.17 1.27-.13 2.51-.23 3.76-.34z" fill="#ed8600"/><path d="M107.83 60.26c-.7.1-1.42.18-2.13.29-.57.07-1.16.14-1.71.02a4 4 0 0 1-.91-.36c.27 1.5.09 3.03-.57 4.36.34-.1.71-.12 1.07-.16l3.74-.33 1.1-.11a18.22 18.22 0 0 0-.59-3.7z" fill="#cc5f00" opacity=".36"/><path d="M98.27 64.93a3 3 0 0 1-.96-.87c-.18-.3-.5-1.02-.22-1.36-.2-.01-.4-.05-.55-.2-.18-.2-.21-.4-.28-.65-.04-.14-.15-.25-.18-.4-.04-.08 0-.2.02-.3.05-.24.16-.46.3-.65a1.12 1.12 0 0 1-.71-1c-.34.2-.71.28-1.09.2.1.32.52.37.84.32-.1.23.07.57.32.64-.55.23-.46.76-.25 1.12.05.07.09.18.16.23-.29.25-.25 1.03.87 1.07l-.1.1a.8.8 0 0 0-.18.77c.09.34.37.57.66.73.32.18.67.25 1.03.25.02 0 .02-.02.02-.02.12.02.23.06.35.06l-.05-.04z" fill="#cc5f00" opacity=".14"/><path d="M96.15 59.04c.23-.25.45-.52.46-.86v-.37c-.07 0-.14 0-.2.03-.03.02-1.52 1.45-1.77 1.82.57.09 1.12-.21 1.51-.62z" fill="#e2a040" opacity=".15"/><path d="M95.56 58.7c-.02-.02-.05.02-.03.03.25.2-.16.84-.41.95.32-.02.83-.68.44-.98zM100.6 64.66c-.16-.16-.23-.37-.3-.58s-.14-.43-.1-.66c.01-.18.08-.36.17-.54.13-.25.27-.51.48-.67.14-.13.34-.2.52-.27-.3.02-.6-.13-.82-.34-.21-.21-.4-.46-.55-.73-.07-.1-.15-.21-.18-.34-.13-.34.02-.73-.04-1.08-.42.07-.87.08-1.31.05a.68.68 0 0 0-.24-.16c-.16-.07-.33-.1-.5-.13-.2-.05-.44-.1-.64-.2-.16-.06-.32-.15-.39-.31.1.21.07.46-.03.67-.11.2-.3.36-.54.41.16.04.32-.03.47-.14.12-.09.24-.21.4-.27.13-.03.25-.03.38-.03.28 0 .52.02.78.12-.01 0 .02 0 0 0 .13.16.27.32.3.5.06.2-.01.43-.19.52.18.02.36.03.52.09.16.05.32.18.39.34.07.16.03.37-.1.48.19.03.38.07.54.17.16.11.3.29.29.49 0 .12-.07.23-.14.33-.1.13-.22.24-.34.34.07.14.03.34-.07.47-.11.12-.25.2-.4.3-.5.27-1.05.43-1.6.6-.03.02-.09.04-.12.07-.04.04-.04.1-.06.15a.61.61 0 0 1-.3.39l.04.02c.32.18.67.25 1.03.25.02 0 .02-.02.02-.02.21.05.4.09.6-.02.25.04.48.07.73.05.64-.03 1.36-.01 1.85.02a1.67 1.67 0 0 0-.2-.09c-.1-.07-.24-.14-.35-.25z" fill="#cc5f00" opacity=".36"/><path d="M100.48 62.03a4.19 4.19 0 0 1-1.05-1.28 2 2 0 0 1-.22-1.22h-.03c-.22.02-.45.02-.66 0h-.1c-.1 0-.17 0-.26-.03.13.16.25.3.3.5.06.2-.01.42-.19.51.18.02.36.04.52.1.16.05.32.17.39.33s.03.38-.1.48c.19.04.38.07.54.18s.3.29.29.48c0 .13-.07.23-.14.34-.1.12-.22.23-.34.34.07.14.03.34-.07.46-.11.13-.25.21-.4.3-.5.27-1.05.43-1.6.6l-.12.08c-.03.03-.04.09-.06.14a.61.61 0 0 1-.3.4l.04.01c.32.18.67.25 1.03.25.02 0 .02-.02.02-.02.21.06.4.1.6-.01.25.03.48.07.73.05l.4-.02a2.16 2.16 0 0 1-.27-.78c-.07-.43.03-.87.25-1.25.21-.35.48-.73.8-.94zM97.5 60.4c-.23-.2-.1-.4.45-.5-.29-.2-.86.08-.64.4.03.07.12.1.2.1z" fill="#cc5f00" opacity=".36"/><path d="M100.76 63.92c.1.01.18 0 .27-.04a.85.85 0 0 0 .46-.46c.1-.23.1-.6-.08-.8-.04-.04-.08-.08-.11-.08h-.07c-.1 0-.16.02-.25.04a.63.63 0 0 0-.32.28c-.15.22-.18.47-.15.74 0 .14.11.28.25.32zM101.26 61.16a.6.6 0 0 0 .16-.22.85.85 0 0 0-.03-.66c-.11-.23-.38-.48-.64-.48-.06 0-.1 0-.13.04l-.05.05-.15.21a.71.71 0 0 0-.01.43c.07.25.21.45.42.6.11.1.29.11.43.03z" fill="#e2a040" opacity=".15"/><path d="M97.9 62.54c-.27.02-.54.04-.79.1-.18.03-.35.1-.51.2-.1.08-.16.15-.24.24l-.01.02.2.01.58-.28.43-.14c.14-.04.28-.04.44-.04a6.9 6.9 0 0 1 1.43.1.9.9 0 0 0 .14-.13c-.53-.15-1.1-.11-1.67-.08zM99.36 61.48a5.8 5.8 0 0 1-.25-.06l.07-.07c-.16.05-.36.02-.54.02-.42 0-.83.16-1.24.25-.22.03-.45.07-.68.07-.28 0-.59-.04-.84.1a.87.87 0 0 0-.23.22l.04.04a.32.32 0 0 0-.1.12c.31-.25.7-.36 1.08-.4.39-.03.78 0 1.15-.08.52-.07 1.02-.27 1.54-.21zM97.27 60.55c.34-.07.7-.05 1.04-.04.14-.08.2-.3.16-.48-.04.06-.08.13-.13.16-.09.07-.2.11-.32.15-.32.07-.64.12-.98.12-.2 0-.4-.02-.6.02-.13.02-.25.07-.38.09-.1.02-.21.02-.3.05a.14.14 0 0 0-.09.04l.09.03-.07.04c.14-.06.28-.07.42-.1H96.97l.3-.08z" fill="#cc5f00" opacity=".36"/><path d="M97.86 59.57c-.05-.12-.27-.18-.4-.18a.7.7 0 0 0-.42.07c-.09.02-.18.11-.25.16-.1.07-.21.18-.2.32.04.22.43.06.52 0 .18-.07.34-.1.54-.16.1-.01.26-.07.21-.21zM97.99 60.71c-.13-.14-.49-.12-.66-.05-.11.03-.22.05-.3.12-.18.14.03.36.19.34.14-.02.27-.1.43-.13.1 0 .23.04.32-.05.05-.07.07-.16.02-.23zM97.56 61.94c-.06.07-.06.14 0 .2.09.07.23.03.32 0 .1-.04.2-.04.3-.02l.16.01c.07 0 .14-.07.14-.14.07-.32-.73-.32-.92-.05zM98.2 62.85c-.04-.07-.09-.07-.16-.07-.18-.06-.43.05-.57.12-.07.04-.16.13-.14.21.01.1.1.11.2.13.06 0 .13-.02.19-.04l.3-.01c.09 0 .16-.08.2-.15.03-.05.03-.12-.02-.2z" fill="#e2a040" opacity=".15"/><path d="M98.64 61.16c-.12 0-.37.01-.39-.16-.02-.2.27-.25.4-.33.01-.01 0-.05-.02-.03h-.02c-.18 0-.52.12-.54.34 0 .3.38.32.6.23 0-.02 0-.05-.03-.05zM99.16 62.13c-.12-.01-.37-.03-.37-.2.01-.2.28-.22.42-.28.02-.01.02-.05 0-.05l-.01-.02c-.16-.02-.54.04-.57.25-.06.3.32.38.53.32.04.02.02-.02 0-.02zM99.23 63.04c-.21.06-.62.02-.46-.3v-.04h-.02c-.16.1-.25.27-.07.4.16.1.43.07.59-.02 0 0-.02-.04-.04-.04z" fill="#cc5f00" opacity=".36"/><path d="m126.41 40.35-.1-.53-.9-.29c-8.26 5.35-7.7 17.7-10.52 18.69-.9.3-1.77.64-2.66.94-.12.05-.26.09-.4.13-.8.44-1.47.8-2 .76.75 2.12-.43 1.5-1.64 3.39 5.77 4.63 10.7 6.51 14.25.16a36.25 36.25 0 0 0 3.97-23.25z" fill="#454358"/><path d="m126.41 40.35-.1-.53-.9-.29c-8.22 5.33-7.73 17.7-10.52 18.69-.9.3-1.77.64-2.66.94-.32.1-.7.2-1.08.29.62 2-1.78 2.13-2.98 3.97 5.77 4.63 10.7 6.52 14.25.16 3.88-7 5.3-15.34 3.99-23.23z" fill="#272734" opacity=".25"/><path d="M116.35 67c-.11-1.12-.23-2.26-.54-3.35-.26-1-.6-2-1.1-2.92-.34-.63-.75-1.57-1.4-1.96-.36.12-.74.27-1.1.4-.32.1-.7.19-1.08.28.62 2-1.78 2.13-2.98 3.97 3 2.4 5.77 4.06 8.23 4.22 0-.22 0-.45-.03-.64z" fill="#272734" opacity=".25"/><path d="m126.3 39.82-.85-.29c-.45.52-1.05 1.2-1.32 1.6-3.88 6.13-.09 7.72-4.24 15.22-.75 1.35-1.46 3.06-2.67 4.06-.09.07-.18.05-.25 0l-.14.12c-1.48 1.23-3.24 1.14-5.02.8-.24.57-3.3 1.54-3.64 2.07 5.77 4.63 10.7 6.52 14.25.16 3.88-7 5.33-15.32 4-23.22-.04-.17-.06-.34-.12-.52z" fill="#272734" opacity=".25"/><path d="m126.41 40.35-.1-.53-.74-.23c.54 2.47.32 5.1-.14 7.6-.64 3.42-1.58 6.66-3.4 9.66-1.46 2.4-3.3 5.5-6.07 6.5-1.36.48-6.47 1-7.73-.04l-.06.09c5.77 4.63 10.7 6.52 14.25.16a36 36 0 0 0 3.99-23.2z" fill="#272734" opacity=".25"/><path d="m125.41 39.53-.3.22c-.5.57-.85 1.3-1.18 1.9-.53 1-.98 2.02-1.24 3.12-.64 2.78-.48 5.57-.13 8.37.34 2.7.72 5.42.86 8.14l.02.32a36.02 36.02 0 0 0 2.99-21.23l-.1-.53zM116.97 58.63l.38.51c.05.07.1.15.2.16.1.02.2-.09.24-.2.12-.31-.04-.67-.27-.92-.3-.3-.73-.46-1.15-.43.2.47.28.97.3 1.48 0 .2.02.4.09.55.09.18.26.3.46.29l.07-.04a.14.14 0 0 0 .04-.09c.09-.44-.13-.89-.36-1.31z" fill="#272734" opacity=".25"/><path d="M123.2 41.39a20.76 20.76 0 0 0-3.04 4.29l-.02.12c-.02.16-.04.34.02.48.05.16.23.27.39.24a6.98 6.98 0 0 0 2.7-4.11c.11-.5.08-.83-.05-1.02z" fill="#d9d9d9" opacity=".08"/><path d="M112.96 58.36c-3.42.14-9.53 1.98-9.53 1.98.27.01.48.98.48 2.17 0 1.17-.2 2.14-.48 2.15 2.2.63 7.84 1.95 9.82 2.12.9-1.6 1.24-6.64-.29-8.42z" fill="#565673"/><path d="M110.42 61.5a15.59 15.59 0 0 1-5.24 2.72c-.48.12-1.12.32-1.78.44 2.17.61 7.85 1.96 9.85 2.12.85-1.51 1.2-6.1-.06-8.08a15.29 15.29 0 0 1-2.77 2.8z" fill="#272734" opacity=".25"/><path d="M110.54 63.65a11.95 11.95 0 0 1-4.9 1.58c2.64.66 6.13 1.41 7.6 1.55.67-1.15 1.02-4.1.61-6.3a12.2 12.2 0 0 1-3.3 3.17z" fill="#272734" opacity=".25"/><path d="M103.42 60.32v.02-.02c.25.02.42.73.48 1.67.96-.3 1.83-.87 2.56-1.46.52-.43 1.07-.9 1.59-1.46-1.89.41-3.6.91-4.63 1.25z" fill="#a6a6a6" opacity=".14"/><path d="M97.33 59.37s.4-.1.85.11c.13.14.25.3.3.5.06.2-.01.43-.2.52.19.01.36.03.52.09.16.05.32.17.4.33.07.16.03.38-.11.48.14.04.3.06.43.13-.18-.84-.38-1.57-.64-2.14-.1-.18-.13-.3-.56-.5-.7-.35-1.6-.21-1.92.88.4-.24.68-.4.93-.4z" fill="#585770"/><path d="M99.09 61.42c.14.04.3.06.43.13a10.2 10.2 0 0 0-.64-2.14c-.06-.09-.1-.18-.17-.25-.14.14-.33.27-.55.36.13.16.25.3.3.5.06.2-.01.42-.19.51.18.02.36.04.52.1s.32.17.39.33.05.36-.1.46z" fill="#272734" opacity=".25"/><path d="M100.98 66.9c-.64-1.4-.98-3-1.27-4.43l-.26.25c.07.15.03.34-.08.47-.1.12-.25.2-.39.3l-.12.05c.26 1.25.59 2.57 1.15 3.8 1.57 3.4 4.31 5.46 7.02 7.17l.57-.9c-2.58-1.6-5.16-3.55-6.62-6.7z" fill="#585770"/><path d="M99.73 63.84h.28c-.1-.46-.2-.92-.28-1.37-.09.1-.18.18-.27.25.07.15.04.34-.07.47-.1.12-.25.2-.39.3l-.12.05c.01.13.05.25.08.38.24-.06.52-.08.77-.08zM97.06 58.86c-.29.16-.52.44-.66.9.21-.12.4-.24.59-.31-.04-.16 0-.38.07-.6z" fill="#272734" opacity=".25"/><path d="M97.98 58.96a.6.6 0 0 0 .3-.08c-.22-.11-.47-.16-.7-.15-.02.15.28.23.4.23z" fill="#a6a6a6" opacity=".14"/><path d="M101.44 69.74c.7.45 1.55.87 2.42 1.09A12.6 12.6 0 0 1 101 66.9c-.16-.32-.28-.68-.4-1.02-.6-.48-1.1-1.03-1.57-1.62a13.68 13.68 0 0 0 2.42 5.47zM105.16 71.93c-.25.27-.53.52-.83.71a34 34 0 0 0 2.7 1.9l.57-.9a31.87 31.87 0 0 1-2.44-1.7z" fill="#272734" opacity=".25"/><path d="m117.43 76.95-1.69.02s-.57 1.09.32 1.34c.9.25 1.37-1.36 1.37-1.36z" fill="#565673"/><path d="M133.73 76.5c-.2-1.63-.71-3.23-.78-4.87-.04-.87.05-1.75-.07-2.6a1.77 1.77 0 0 0-.22-.68 1.5 1.5 0 0 0-.55-.44c-2.44-1.34-5.5-.41-8.18-1.16-.85 6.59-1.5 5.57-10.43 12.46-2.78 2.16-4.67 5.38-7.18 7.61-3.19 2.83-3.31 4.7-3.24 7.64.16 7.07.44 14.12.89 21.18 1.9 1.03 4.3 2.06 6.13.87.96-.62 1.47-1.73 1.88-2.8 2.1-5.59 2.23-11.96 5.49-16.95 3.24-4.95 10-7.05 14.7-10.63 2.1-1.59 3.1-4.28 3.04-6.91-.02-.66-.62-1.64-1.48-2.71z" fill="#454358"/><path d="M133.73 76.5c-.2-1.63-.71-3.23-.78-4.87-.04-.87.05-1.75-.07-2.6a1.77 1.77 0 0 0-.22-.68 1.5 1.5 0 0 0-.55-.44c-2.44-1.34-5.5-.41-8.18-1.16-.85 6.59-1.5 5.57-10.43 12.46-.29.22-.57.47-.84.7.36 2.92-1.01 6.25-2.39 8.62-1.7 2.94-4.29 4.54-7.2 5.77v.16c.15 7.07.44 14.12.88 21.18 1.9 1.03 4.31 2.06 6.13.87.96-.62 1.48-1.73 1.89-2.8 2.1-5.59 2.22-11.96 5.48-16.95 3.24-4.95 10-7.05 14.7-10.63 2.1-1.59 3.1-4.28 3.04-6.91 0-.66-.6-1.64-1.46-2.71z" fill="#272734" opacity=".29"/><path d="M133.73 76.5c-.2-1.63-.71-3.23-.78-4.87-.04-.87.05-1.75-.07-2.6a1.77 1.77 0 0 0-.22-.68 1.5 1.5 0 0 0-.55-.44c-2.44-1.34-5.5-.41-8.18-1.16-.28 2.2-.55 3.56-1.12 4.65a27.38 27.38 0 0 1-.87 4.36c-.82 2.96-2.01 5.8-4.06 8.12a58.39 58.39 0 0 1-8.05 7.21 31.71 31.71 0 0 1-6.75 4.15c.16 6.8.44 13.61.85 20.4 1.9 1.03 4.31 2.06 6.13.87.96-.62 1.48-1.73 1.89-2.8 2.1-5.59 2.22-11.96 5.48-16.95 3.25-4.95 10-7.05 14.7-10.63 2.1-1.59 3.1-4.28 3.04-6.91.02-.66-.58-1.64-1.44-2.71z" fill="#272734" opacity=".29"/><path d="M108.05 87.09c.59-1.09.96-2.23 1.17-3.42-.94 1.12-1.87 2.22-2.92 3.15a9.63 9.63 0 0 0-2.7 3.46c1.94.26 3.58-1.55 4.45-3.2z" fill="#565672"/><path d="M133.73 76.5c-.2-1.63-.71-3.23-.78-4.87-.04-.87.05-1.75-.07-2.6a1.77 1.77 0 0 0-.22-.68 1.5 1.5 0 0 0-.55-.44c-2.44-1.34-5.5-.41-8.18-1.16-.81 6.32-1.47 5.64-9.42 11.68.54 1.03.95 2.12 1.25 3.24.78 2.78 1.35 5.6 1.44 8.5.1 2.88-.3 5.66-.8 8.5.32-.67.68-1.29 1.07-1.9 3.24-4.95 10-7.05 14.7-10.63 2.1-1.58 3.1-4.27 3.04-6.9-.02-.68-.63-1.66-1.48-2.73z" fill="#272734" opacity=".25"/><path d="M112.6 92.95s-.76-.2-1.17.03c-.4.23-.68.77-.68.77l1.84-.34z" fill="#b45f00"/><path d="m57.4 54.39-.2-.16c.27-.66.3-1.4.02-2.1-1.59-3.89-9.82-1.98-8.12 2.7.74 2.09 3.33 2.46 5.21 1.96.25-.07.52-.18.77-.3.73-.71 1.59-1.37 2.32-2.1z" fill="#efe8e8"/><path d="M53.26 56.95c1-.62 1.7-1.48 1.53-2.6-.35-2.33-3.3-2.31-5.59-2.14a3.1 3.1 0 0 0-.12 2.6c.67 1.9 2.85 2.37 4.66 2.07-.14.04-.3.05-.48.07z" fill="#efe8e8"/><path d="M49.15 54.96c1.09.62 2.42.7 3.44-.22.5-.44.87-1.2.67-1.9a1.82 1.82 0 0 0-.14-.38 10.2 10.2 0 0 0-3.92-.25 3.1 3.1 0 0 0-.12 2.6l.07.15z" fill="#efe8e8"/><path d="M54.8 54.35a2.15 2.15 0 0 0-1.07-1.6c.05.2.05.4.03.64-.07.64-.28 1.34-.85 1.73-1.1.76-2.23.98-3.32.59.86 1.03 2.32 1.35 3.69 1.24 1-.62 1.7-1.5 1.51-2.6z" fill="#d8d8d8" opacity=".43"/><path d="M54.8 54.35c-.36-2.33-3.32-2.31-5.6-2.14-.07.15-.14.29-.18.43.98.02 7.04-.3 4.74 3.96.71-.57 1.18-1.32 1.03-2.25z" fill="#d8d8d8"/><path d="M54.17 51.34c-.46-.66-1.37-.87-2.17-.89-.25 0-.5.02-.75.04-1.7.73-2.9 2.24-2.15 4.33a3.1 3.1 0 0 0 1.92 1.85c1.66.02 3.49-1.27 3.49-4.12 0-.42-.09-.85-.34-1.2z" fill="#454358"/><path d="M54.51 52.55c0-.42-.09-.87-.34-1.2-.46-.67-1.37-.88-2.17-.9h-.06c.6 1.07.74 2.53-.03 3.53a3.8 3.8 0 0 1-2.44 1.55c.4.53.93.9 1.55 1.14 1.66.02 3.47-1.27 3.49-4.12z" fill="#323147" opacity=".32"/><path d="M54.44 53.4a2.3 2.3 0 0 0-.71-.65c.05.2.05.4.03.64-.07.64-.28 1.34-.85 1.73-1.1.75-2.23.98-3.32.59.04.03.06.07.1.08.03.06.08.1.14.15l.08.07a1.9 1.9 0 0 0 .24.2c.08.05.16.12.25.15l.05.04c.07.04.14.09.23.12l.05.04.29.13c1.48 0 3.1-1.04 3.42-3.28z" fill="#323147" opacity=".32"/><path d="M50.11 53.09c-1.03-.55-1.2 1.56-.43 1.56.4 0 .73-.35.77-.74.03-.3-.04-.68-.34-.82z" fill="#565673"/><path d="m49.2 52.21-.05.11-.14.34c.76.02 4.6-.18 5.16 1.75.1-.3.2-.65.25-1-.9-1.37-3.3-1.34-5.22-1.2z" fill="#323147"/><path d="M57.2 54.23c.27-.66.3-1.4.02-2.1-1.25-3.07-6.6-2.53-8 .1 2.28-.18 5.24-.2 5.6 2.14.15 1.1-.54 1.98-1.54 2.6.36-.04.71-.09 1.03-.18.27-.07.56-.18.8-.32 4.12 6.5 1.71 17.42.22 19.97-.2.34-.41.67-.43 1.05-.05 1.69 3.74 2.76 6-.3 1.1-1.52 1.45-3.44 1.64-5.31.7-6.56-.25-13.54-5.34-17.65z" fill="#d58500"/><path d="M57.2 54.23c.27-.66.3-1.4.02-2.1-.52-1.25-1.71-1.91-3.05-2.05.16 1.05.02 2.37-.05 2.95.35.32.6.77.7 1.34.15 1.1-.54 1.98-1.54 2.6.36-.04.71-.09 1.03-.18.27-.07.56-.18.8-.32.45.71.82 1.46 1.13 2.26 1.28.29 2.62 1.23 2.62 2.6a3.27 3.27 0 0 1-1.52 2.76c.38 5.31-1.01 10.67-2.01 12.35-.2.34-.41.67-.43 1.05-.05 1.69 3.74 2.76 6-.3 1.1-1.52 1.45-3.44 1.64-5.31.7-6.56-.25-13.54-5.34-17.65z" fill="#b45f00" opacity=".25"/><path d="M53.23 50.47a.91.91 0 0 0-.27-.41 5.5 5.5 0 0 0-2.81 1.09c1.05.35 3.34.26 3.08-.68z" fill="#ff9400" opacity=".4"/><path d="M54.31 56.77c.27-.07.56-.17.8-.32.22.34.41.68.6 1.04a9.68 9.68 0 0 1 5.16 1.4 13.43 13.43 0 0 0-3.67-4.66c.27-.66.3-1.4.02-2.1a3.39 3.39 0 0 0-2.48-1.96c.54.96.64 2.44.6 3.26a5.57 5.57 0 0 1-1.19 3.4c.04-.04.1-.04.16-.06z" fill="#b45f00" opacity=".25"/><path d="M62.08 62.33a6.23 6.23 0 0 1-1 1.59 6.7 6.7 0 0 1-3.69 2.33c-.07 4.54-1.2 8.73-2.06 10.17-.2.34-.41.68-.43 1.05-.05 1.7 3.74 2.76 6-.3 1.1-1.52 1.45-3.44 1.64-5.31.34-3.2.29-6.5-.46-9.53z" fill="#b45f00"/><path d="m70.43 54.6-.18-.18c.32-.64.41-1.37.18-2.1-1.26-4-9.62-2.78-8.3 2.03.59 2.14 3.12 2.73 5.04 2.39.27-.05.54-.13.79-.23.78-.66 1.69-1.25 2.47-1.9z" fill="#efe8e8"/><path d="M66.12 56.81c1.05-.53 1.82-1.34 1.75-2.46-.16-2.35-3.12-2.58-5.4-2.58-.44.68-.6 1.55-.32 2.58.52 1.93 2.65 2.6 4.49 2.44-.2.02-.36.02-.52.02z" fill="#efe8e8"/><path d="M62.19 54.5c1.03.7 2.35.89 3.45.07.54-.41.96-1.14.82-1.86a2.53 2.53 0 0 0-.12-.39c-1.1-.48-2.6-.57-3.89-.57a3.07 3.07 0 0 0-.26 2.74z" fill="#efe8e8"/><path d="M67.87 54.35a2.16 2.16 0 0 0-.95-1.69c.04.2.04.41-.01.64-.13.64-.4 1.3-1 1.64-1.16.66-2.3.8-3.37.32.77 1.09 2.21 1.55 3.56 1.55 1.07-.53 1.84-1.34 1.77-2.46z" fill="#d8d8d8" opacity=".43"/><path d="M67.87 54.35c-.16-2.35-3.12-2.58-5.4-2.58a1.8 1.8 0 0 0-.21.4c.98.12 7.03.28 4.38 4.34.76-.52 1.28-1.23 1.23-2.16z" fill="#d8d8d8"/><path d="M67.48 51.29c-.41-.71-1.29-.98-2.1-1.07-.26-.02-.5-.04-.75-.02-1.77.59-3.09 2.01-2.5 4.13.27.97.93 1.62 1.77 2.02 1.65.16 3.58-.98 3.83-3.81.01-.43-.04-.88-.25-1.25z" fill="#454358"/><path d="M67.7 52.54c.04-.43-.01-.88-.22-1.25-.41-.71-1.29-.98-2.1-1.07h-.06c.5 1.1.52 2.58-.32 3.5a3.72 3.72 0 0 1-2.56 1.34c.33.57.85.98 1.44 1.27 1.67.18 3.6-.96 3.83-3.8z" fill="#323147" opacity=".32"/><path d="M67.58 53.37c-.16-.28-.39-.51-.66-.71.04.2.04.41-.01.64-.13.64-.4 1.3-1 1.64-1.16.66-2.3.8-3.35.32l.07.1.13.17c.01.03.05.05.07.09.05.05.1.12.18.17l.03.04.23.2.06.03.2.14c.03.02.05.02.06.04.1.05.18.1.29.14 1.5.1 3.19-.78 3.7-3z" fill="#323147" opacity=".32"/><path d="M63.29 52.7c-.98-.65-1.32 1.47-.55 1.53.39.03.75-.29.84-.68.03-.32 0-.68-.29-.85z" fill="#565673"/><path d="M62.45 51.77a.39.39 0 0 1-.05.09c-.05.1-.12.21-.16.32.77.07 4.6.2 5 2.15.15-.28.25-.6.34-.96-.82-1.44-3.2-1.6-5.13-1.6z" fill="#323147"/><path d="M70.25 54.4c.32-.64.41-1.37.18-2.1-1-3.15-6.36-3.06-7.98-.55 2.28 0 5.24.25 5.4 2.58.07 1.13-.7 1.93-1.75 2.46a4.97 4.97 0 0 0 1.89-.34c3.56 6.8.27 17.51-1.42 19.92-.22.32-.47.64-.52 1.01-.2 1.7 3.5 3.06 6 .2 1.23-1.41 1.73-3.32 2.07-5.17 1.25-6.45.87-13.48-3.87-18z" fill="#d58500"/><path d="M70.25 54.4c.32-.64.41-1.37.18-2.1-.4-1.28-1.55-2.03-2.87-2.3a11.7 11.7 0 0 1-.3 2.95c.34.35.55.8.59 1.38.07 1.13-.7 1.93-1.75 2.46a4.98 4.98 0 0 0 1.89-.34c.4.75.7 1.54.93 2.34 1.26.39 2.5 1.44 2.4 2.8a3.3 3.3 0 0 1-1.74 2.63c-.07 5.32-1.9 10.54-3.01 12.13-.22.32-.47.64-.52 1.01-.2 1.7 3.5 3.07 6 .2 1.23-1.4 1.73-3.31 2.07-5.17 1.25-6.43.87-13.46-3.87-17.98z" fill="#b45f00" opacity=".25"/><path d="M66.6 50.34a.85.85 0 0 0-.23-.42c-1.03.01-2.08.3-2.9.83 1.03.47 3.33.56 3.13-.4z" fill="#ff9400" opacity=".4"/><path d="M67.17 56.72c.29-.05.56-.14.84-.25.18.36.34.71.5 1.09 1.57.02 3.33.76 4.45 1.44.2.13.4.25.59.4a13.52 13.52 0 0 0-3.28-4.96c.32-.64.41-1.37.18-2.1a3.38 3.38 0 0 0-2.32-2.16c.45 1 .45 2.48.33 3.3a5.53 5.53 0 0 1-1.47 3.3c.06-.04.11-.04.18-.06z" fill="#b45f00" opacity=".25"/><path d="M69.24 68.24c-.6 3.76-1.82 6.95-2.65 8.14-.22.32-.47.64-.52 1.02-.2 1.7 3.5 3.06 6 .2 1.23-1.41 1.73-3.32 2.07-5.17.4-2.2.64-4.49.57-6.7-1.05 1.64-3.53 2.39-5.47 2.51z" fill="#b45f00"/><path d="M196.51 165.97c-4.95.59-9.99-.32-14.66-1.98a68.25 68.25 0 0 1-3.99-1.53 125.9 125.9 0 0 1-16.77 1.2c-4.99.01-10.37-.42-14.22-3.57-3.72-3.06-5.23-8.01-8.03-11.93-4.42-6.16-12.04-9.53-19.6-9.89-2.4-.1-4.76.04-7.11.41-2.37-4.43-5.54-7.9-9.21-7.76-3.44.12-6.88 2.85-8.75 5.91-5.52 3.01-15.65 7.14-22.15 3.96-24.6-12.06 10.67-27.2 8.3-50.35-2.5-24.08-20.8-26.19-25.45-21.16-5.56 6.02 5.32 14.85-9.59 28.51-48.37 44.26-30.91 80.11 3.73 90.57 18.4 5.55 52.57 1.08 63.92-1.75 11.36-2.83 22.67-6.37 33.37-6.48 3.89-.04 7.8-.02 11.63-.66 7.73-1.28 14.82-5.22 22.55-6.5 4.15-.7 8.43-.62 12.54-1.59 4.1-.96 8.2-3.22 9.88-7.07-2.06.79-4.2 1.4-6.39 1.66z" fill="#d58500"/><path d="M50.4 141.5s-17.12 1.74-25.58-.6-5.25-9.43-5.25-9.43l-.04.04a50.12 50.12 0 0 0-1.82 4.9c.16 2.17.82 4.96 3.07 6.35 4 2.48 24.45 2.71 24.45 2.71z" fill="#b45f00" opacity=".3"/><path d="M196.51 165.97c-4.95.59-9.99-.32-14.66-1.98a67.98 67.98 0 0 1-3.99-1.53c-5.55.77-11.16 1.18-16.77 1.2-4.99.01-10.37-.42-14.22-3.57-3.72-3.06-5.23-8.01-8.03-11.93-4.42-6.16-12.04-9.53-19.6-9.89-2.4-.1-4.76.04-7.11.41-2.37-4.43-5.54-7.9-9.21-7.76-3.44.12-6.88 2.85-8.75 5.91-5.52 3.01-15.65 7.14-22.15 3.96-24.6-12.06 10.67-27.2 8.3-50.35-1.1-10.83-5.44-17.23-10.26-20.52a22.88 22.88 0 0 1 2.54 5.82c2.34 8.84.34 18.58-3.49 26.68-2.85 6.06-6.73 11.47-10.72 16.83-3.47 4.65-7.25 9.2-12.14 12.4-5.49 3.58-12.06 5.91-18.65 4.56a25.5 25.5 0 0 1-8.57-3.42c-10.88 27.43 5.13 48.03 30.01 55.53 18.4 5.56 52.58 1.09 63.92-1.74 11.37-2.84 22.68-6.38 33.38-6.49 3.88-.03 7.8-.01 11.63-.66 7.73-1.28 14.82-5.21 22.55-6.5 4.15-.7 8.42-.62 12.54-1.58 4.1-.96 8.19-3.23 9.88-7.07-2.1.82-4.24 1.42-6.43 1.69z" fill="#b45f00" opacity=".3"/><path d="M196.51 165.97c-4.95.59-9.99-.32-14.66-1.98a68 68 0 0 1-3.99-1.53c-5.55.77-11.16 1.18-16.77 1.2-4.99.01-10.37-.42-14.22-3.57-3.72-3.06-5.23-8.01-8.03-11.93-4.42-6.16-12.04-9.53-19.6-9.89-2.4-.1-4.76.04-7.11.41-2.37-4.43-5.54-7.9-9.21-7.76-3.44.12-6.88 2.85-8.75 5.91-5.52 3.01-15.65 7.14-22.15 3.96-.79-.4-1.52-.77-2.18-1.16a63.03 63.03 0 0 1-8.92 11.77c-3.4 3.56-7.07 7.09-11.29 9.67-7.73 4.72-17.24 6.97-26.23 5.56a27.98 27.98 0 0 1-4.07-.93c5.44 10.7 16.28 18.58 29.71 22.64 18.4 5.56 52.58 1.08 63.92-1.75 11.37-2.83 22.68-6.37 33.38-6.48 3.88-.04 7.8-.02 11.63-.66 7.73-1.28 14.82-5.22 22.55-6.5 4.15-.7 8.42-.62 12.54-1.58 4.1-.97 8.19-3.23 9.88-7.08-2.1.8-4.24 1.41-6.43 1.68z" fill="#b45f00" opacity=".3"/><path d="M196.51 165.97c-4.95.59-9.99-.32-14.66-1.98a68.25 68.25 0 0 1-3.99-1.53c-5.55.77-11.16 1.18-16.77 1.2-4.99.01-10.37-.42-14.22-3.57-3.72-3.06-5.23-8.01-8.03-11.93-4.42-6.16-12.04-9.53-19.6-9.89-2.4-.1-4.76.04-7.11.41-2.37-4.43-5.54-7.9-9.21-7.76-3.44.12-6.88 2.85-8.75 5.91-3.95 2.16-10.26 4.88-15.9 5.1.8 6.57-.22 13.57-1.94 19.59a51.94 51.94 0 0 1-6.17 14.07 29.64 29.64 0 0 1-12.37 10.74 33.76 33.76 0 0 1-7.18 2.44c18.7 4.86 51.31.55 62.34-2.2 11.36-2.83 22.67-6.37 33.37-6.48 3.88-.03 7.8-.02 11.63-.66 7.73-1.28 14.82-5.22 22.55-6.5 4.15-.7 8.42-.62 12.54-1.58 4.1-.96 8.2-3.23 9.88-7.07a26.19 26.19 0 0 1-6.4 1.69z" fill="#b45f00" opacity=".3"/><path d="M196.51 165.97c-4.95.59-9.99-.32-14.66-1.98a68.25 68.25 0 0 1-3.99-1.53c-5.55.77-11.16 1.18-16.77 1.2-4.99.01-10.37-.42-14.22-3.57-3.2-2.62-4.77-6.64-6.92-10.2-3.74 3.88-8.14 7.21-12.54 10.18-11.5 7.77-23.96 14.22-37.2 18.42-8.61 2.72-17.66 4.2-26.67 4.6-11.95.51-25.93-.86-36.58-7.11 5.75 5.55 13.35 9.78 22.05 12.4 18.4 5.55 52.57 1.08 63.92-1.75 11.36-2.83 22.67-6.38 33.37-6.48 3.89-.04 7.8-.02 11.63-.66 7.73-1.29 14.82-5.22 22.55-6.5 4.15-.7 8.43-.63 12.54-1.59 4.1-.96 8.2-3.22 9.89-7.07-2.07.77-4.2 1.37-6.4 1.64zM64.41 83a2.56 2.56 0 0 0-1.96-.81 14.79 14.79 0 0 1-8.92-2.62 19 19 0 0 1-1 8.25c1.36.85 2.64 1.81 4.17 2.33 2.74.93 9.23 1.12 9.4-3.08a5.63 5.63 0 0 0-1.69-4.06z" fill="#b45f00" opacity=".3"/><path d="M57.7 70.8a3.94 3.94 0 0 0 2.44-1.13c.59-.62.67-1.9-.54-1.9-1.33 0-3.47.28-3.77 1.7-.18 1 1.1 1.37 1.87 1.32zM57.54 73.89c.25.07.59.05.82-.05.23-.13.39-.48.05-.6-.4-.15-1.03-.3-1.26.08-.16.27.16.52.39.57zM31.05 120.48c3.03.18 6.04-.89 8.6-2.42a24.62 24.62 0 0 0 6.31-5.61c1.89-2.3 3.76-4.93 4.52-7.86.66-2.52.45-5.36-2.03-6.82-.69-.4-1.44-.7-2.2-.89-.32.3-.65.6-.98.93-7.98 7.3-14.18 14.37-18.8 21.16 1.24 1.05 2.96 1.4 4.58 1.51z" fill="#ff9400" opacity=".4"/><path d="M196.51 165.97c-4.95.59-9.99-.32-14.66-1.98a67.98 67.98 0 0 1-3.99-1.53 125.9 125.9 0 0 1-16.77 1.2c-4.99.01-10.37-.42-14.22-3.57-3.72-3.06-5.23-8.01-8.03-11.93-4.42-6.16-32.25-17.37-35.94-17.24-3.44.12-18.3 9.9-18.5 9.95-.06.02-.1.04-.15.04-.53.14-1.07.28-1.6.4-3.78.85-7.62.95-10.67-.54-24.6-12.06 10.67-27.2 8.3-50.35-.4-3.76-1.16-7-2.2-9.74l.1.87c.55 2.95.53 6-.04 8.97-1.26 6.6-4.6 12.63-8.47 18.05-3.5 4.86-7.68 9.28-10.6 14.53-1.4 2.55-2.65 5.38-2.76 8.33-.13 3.2.98 6.22 3.06 8.62 3.97 4.62 9.67 6.27 15.6 6.26 4.67-.02 9.34-.8 13.86-2 4.1 2.3 7.9 5.1 11.2 8.55a50.87 50.87 0 0 1 6.91 9.15 50.2 50.2 0 0 1 5.65 12.86c1 3.83 1.3 7.9.3 11.72h.02c11.36-2.83 22.67-6.37 33.38-6.48 3.88-.04 7.8-.02 11.63-.66 7.73-1.28 14.81-5.22 22.54-6.5 4.15-.7 8.43-.62 12.54-1.58 4.1-.97 8.2-3.23 9.89-7.08-2.05.8-4.19 1.41-6.38 1.68z" fill="#b45f00" opacity=".74"/><path d="M196.23 169.18c-2.37.6-4.85.35-6.84-1.14a4.95 4.95 0 0 1-1.8-2.46c-1.94-.38-3.87-.91-5.74-1.57a67.3 67.3 0 0 1-3.99-1.53 125.9 125.9 0 0 1-16.77 1.2c-4.99 0-10.37-.42-14.22-3.57-3.72-3.06-5.23-8.02-8.03-11.93-4.42-6.17-32.25-17.37-35.94-17.24-3.44.12-18.3 9.9-18.5 9.95-.06.02-.1.04-.15.04-.53.14-1.07.28-1.6.39-1.75.4-3.5.62-5.2.62 7.64 1.04 22.73 1.23 31.99 14.91a73.7 73.7 0 0 1 4.77 8.6c1.51 3.07 2.9 6.2 3.88 9.48.96 3.24 1.53 6.6 1.36 10 9.15-2.38 18.18-4.71 26.84-4.8 3.88-.04 7.8-.02 11.63-.66 7.73-1.28 14.81-5.22 22.54-6.5 4.15-.7 8.43-.63 12.54-1.59 3.62-.85 7.25-2.72 9.21-5.8-1.75 1.51-3.7 3.02-5.98 3.6z" fill="#9b4300" opacity=".74"/><path d="m58.29 72.34-.49-.09-.42-.09c-.27-.05-.54-.1-.79-.25l-.1-.05c-.04-.02-.1-.02-.15-.02-.3-.02-.53-.09-.65-.25-.25-.26-.2-.66.4-.5.18.06.33.15.5.2l.54.18c1.83.46 3.97-.29 3.97-.29.32.16.12.8-.1.95-.45.26-1.08.23-1.6.25-.35.01-.74.01-1.11-.04z" fill="#b45f00" opacity=".25"/><path d="M55.7 71.61s2.05 2.2 5.3.53c0-.01-1.98.63-5.3-.53z" fill="#9b4300"/><path d="M68.8 138.99c-.72-.47-1.34-.93-1.9-1.4l-2.1 2.93-8.24 3.9-.5 1.96c7.3.89 11.04-3.46 12.73-7.4z" fill="#b45f00"/><path d="M49.43 52.45c-2.2 0-2.67-1.78-2.67-1.8-.02-.07.02-.14.1-.14.06-.02.13.01.13.08.02.08.45 1.73 2.66 1.6.07 0 .12.06.12.13s-.05.13-.12.13h-.22zM62.26 52.02c-2.21 0-2.67-1.78-2.67-1.8-.02-.07.01-.14.08-.14.08-.02.15.02.15.09.01.07.44 1.72 2.65 1.6.07 0 .13.05.13.12 0 .08-.06.13-.13.13h-.21z" fill="#323147"/><path d="M52.25 150.44c-2.4 0-4.2-1.87-4.22-4.37 0-2.7 2.04-5.18 4.68-5.66.29-.05.55-.07.84-.07 2.4 0 4.2 1.87 4.22 4.36 0 2.71-2.05 5.19-4.69 5.67-.28.03-.55.07-.83.07zm1.32-8.09c-.16 0-.32.02-.49.04a3.9 3.9 0 0 0-3.02 3.68c0 1.4.9 2.36 2.2 2.36.17 0 .33-.02.49-.04a3.9 3.9 0 0 0 3.02-3.69c0-1.39-.9-2.35-2.2-2.35z" fill="#b45f00" opacity=".74"/><path d="M51.7 149.57c-2.4 0-4.2-1.87-4.23-4.37 0-2.7 2.05-5.18 4.69-5.66.28-.06.55-.07.84-.07 2.4 0 4.2 1.87 4.22 4.36 0 2.7-2.05 5.18-4.69 5.66-.28.04-.55.08-.83.08zm1.3-8.09c-.16 0-.32.02-.49.04a3.9 3.9 0 0 0-3.02 3.68c0 1.4.9 2.35 2.2 2.35.17 0 .33-.01.49-.03a3.9 3.9 0 0 0 3.02-3.69c0-1.39-.9-2.35-2.2-2.35z" fill="#d8d8d8"/><path d="M55.15 143.23c.04.2.07.39.07.6 0 .59-.16 1.16-.44 1.67.6.13 1.23.43 1.62.88l.12.16c.45-.82.71-1.75.71-2.7 0-.69-.14-1.33-.39-1.9-.44.52-1.08.98-1.69 1.29zM49.56 143.05l.71-.1a3.9 3.9 0 0 1 1.82-1.34c-.48-.27-1.05-.2-1.71-.15-.41.04-1.1.06-1.68.2a5.8 5.8 0 0 0-.82 1.44c.56-.02 1.13 0 1.68-.05z" fill="#a4a4a4"/><path d="M54.67 145.7a4 4 0 0 1-1.64 1.53c.32.06.79-.01.86-.03 1.1-.34 1.23-.8.78-1.5z" fill="#f3f3f3"/><path d="M51.84 141.4c-.5.31-.9.72-1.21 1.17a3.5 3.5 0 0 1 1.89-1.04c.16-.03.32-.03.48-.03.67 0 1.24.27 1.63.73a1.2 1.2 0 0 0-.2-.79c-.6-.97-1.84-.55-2.6-.05zM52.37 148.96c-.1-.45-.14-1-.03-1.5l-.16.04c-.16.04-.32.04-.48.04-1.3 0-2.21-.97-2.21-2.35 0-.08 0-.13.02-.2-.63.25-1.36.32-2 .46a4.16 4.16 0 0 0 4.2 4.08c.27 0 .56-.02.84-.07l.07-.02a.95.95 0 0 1-.25-.48zM57.02 142.48c-.05 4.41-3.88 6.85-3.88 6.85 2.33-.7 4.08-3 4.06-5.5.02-.48-.05-.92-.18-1.35z" fill="#a4a4a4"/><path d="M51.18 139.82c-.8.3-1.51.82-2.08 1.45 1.88-.6 1.17-.5 2.08-1.45z" fill="#f3f3f3"/><path d="m49.3 147.48-.83-2.76s-19.29 2.5-24.4.9c-4.22-1.33-6.96-3-7.82-3.55-.35 1.87-.57 3.7-.67 5.5 8.26 7.07 24.72 5.02 33.73-.09zM49.74 149.12s-12.77 14.16-19.3 15.21c-4.94.8-9.08 1.73-10.75 2.12a36.7 36.7 0 0 0 2.73 4.33c14.4 3.19 21.87-5.83 28.88-21.23z" fill="#b45f00"/><path d="M18.53 159.04a6.58 6.58 0 0 0 2.37 1.73c.96.28 2.05.18 2.87-.4.16-.1.3-.22.37-.38.84-1.71-3.11-2.21-3.97-2.44-.39-.11-.8-.22-1.2-.11-1.11.25-.99.92-.44 1.6z" fill="#ff9400" opacity=".4"/><path d="M16.6 158.45c.2.86.45 1.7.72 2.51l4.28 3.33s7.81.15 14.23-1.99c6.4-2.14 13.9-16.07 13.9-16.07-8.77 9.89-26.7 20.97-33.14 12.22z" fill="#b45f00" opacity=".3"/><path d="M23.6 171.19c-.67 0-1.15-.86-1.15-2.03 0-1.18.48-2.03 1.14-2.03s1.14.85 1.14 2.03c0 1.2-.48 2.03-1.14 2.03zm0-3.3c-.1.02-.4.45-.4 1.27 0 .83.3 1.24.4 1.26.08-.02.38-.44.38-1.26 0-.82-.3-1.25-.39-1.27z" fill="#d8d8d8"/><path d="M24.73 169.18c0-1.16-.48-2.02-1.12-2.03v.76c.1.05.37.46.37 1.27 0 .48-.09.8-.2 1.01h.36v.78c.36-.33.6-1 .6-1.8z" fill="#a4a4a4" opacity=".16"/><path d="M23.95 168.78c.02.13.02.23.02.38v.07c.24.1.44.32.62.5a.4.4 0 0 1 .07.09 3.94 3.94 0 0 0-.05-1.57c-.16.23-.41.4-.66.53z" fill="#a4a4a4"/><path d="M23.93 169.75c-.09.44-.27.67-.34.69-.09-.02-.4-.45-.4-1.27 0-.39.08-.69.15-.89h-.78c-.07.27-.1.57-.1.9 0 1.17.47 2.02 1.13 2.02.38 0 .7-.28.9-.74a1.12 1.12 0 0 0-.22-.38l-.34-.34z" fill="#d8d8d8"/><path d="M51.9 144.88c1.06-.76 1.79-3.7.53-3.35-2.89.79-40.54 8.23-32.88-10.04-7.86 6-6.18 12.75.48 16.2 6.68 3.44 22.26 4.2 31.88-2.8z" fill="#565673"/><path d="M19.57 131.47c-.22.16-.4.32-.6.48-3.87 6.36-1.33 16.76 26.08 10.9-11.43 1.57-31.24 2.35-25.48-11.38z" fill="#454358" opacity=".37"/><path d="M52.44 141.52c-1.56.42-13.46 2.83-22.72 1.97a10.46 10.46 0 0 1-5.77 2.18c-2.83.12-5.95-.61-8.53-2.09a11.5 11.5 0 0 0 4.64 4.1c6.65 3.45 22.25 4.2 31.87-2.8 1.05-.76 1.76-3.7.51-3.36z" fill="#454358" opacity=".37"/><path d="M52.44 141.52c-1.14.32-7.8 1.67-14.9 2.06-.45.93-.9 1.85-1.54 2.66a16.57 16.57 0 0 1-4.29 3.97c6.77.23 14.54-1.2 20.23-5.33 1.04-.76 1.75-3.7.5-3.36z" fill="#454358" opacity=".37"/><path d="M15.67 139.75c1.47-.14 2.1-3.72 1.15-5.72a9.71 9.71 0 0 0-2.4 4.83c.27.54.68.95 1.25.9z" fill="#565672" opacity=".31"/><path d="M52.44 141.52c-.89.24-5.13 1.12-10.33 1.69.13 1.64-.2 3.1-1.26 4.49-.64.83-1.35 1.55-2.16 2.13 4.72-.66 9.44-2.2 13.22-4.97 1.07-.74 1.78-3.68.53-3.34z" fill="#454358"/><path d="M16.56 158.45c-1.16 11.35 11.7 14.96 23.83 4.35 4.11-3.6 7.26-8.16 10.18-12.77.63-.98 1.23-1.96 1.64-3.03.3-.78.38-1.89-.4-2.2-.74-.31-1.45.4-1.93 1.03-3.35 4.4-7.23 8.47-11.85 11.52-6.82 4.49-17.8 8.51-21.47 1.1z" fill="#565673"/><path d="M50.24 149.17a21.14 21.14 0 0 1-3.58 5.24 38.42 38.42 0 0 1-10.83 7.87c-3.92 2-8.48 3.85-12.97 3.2a11.31 11.31 0 0 1-5.41-2.41l-.63-.5c2.03 7.9 13.08 9.38 23.57.2 4.11-3.6 7.26-8.16 10.18-12.78.63-.98 1.23-1.96 1.64-3.02.27-.68.34-1.6-.14-2.05-.6 1.42-1.16 2.86-1.83 4.25z" fill="#454358" opacity=".37"/><path d="M51.82 144.78c-.73-.3-1.44.4-1.92 1.03-3.35 4.4-7.23 8.48-11.85 11.52a36.63 36.63 0 0 1-7.73 3.92c.18 2.73-.6 5.6-2.24 7.73 3.78-.52 8.09-2.5 12.3-6.18 4.12-3.6 7.27-8.16 10.2-12.77.62-.98 1.22-1.96 1.63-3.03.3-.8.38-1.9-.39-2.22z" fill="#454358" opacity=".37"/><path d="M51.82 144.78c-.73-.3-1.44.4-1.92 1.03-3.35 4.4-7.23 8.48-11.85 11.52l-.94.6a13.9 13.9 0 0 1-1.16 5.76 16.07 16.07 0 0 1-1.74 3.33 29.14 29.14 0 0 0 6.16-4.2c4.11-3.6 7.26-8.16 10.19-12.77a17.2 17.2 0 0 0 1.63-3.03c.32-.82.4-1.92-.37-2.25z" fill="#454358" opacity=".37"/><path d="M19.35 162.66c.23-.29.34-.63.36-.96a6.96 6.96 0 0 1-3.15-3.25c-.13 1.29-.1 2.48.12 3.57.87.82 1.98 1.5 2.67.64z" fill="#565672" opacity=".31"/><path d="M51.82 144.78c-.73-.3-1.44.4-1.92 1.03a55.27 55.27 0 0 1-7.77 8.42c.68 1.59.87 3.39.64 5.1-.07.5-.16 1-.28 1.47 3.13-3.22 5.7-6.98 8.1-10.79.62-.98 1.23-1.96 1.64-3.03.29-.78.36-1.88-.41-2.2z" fill="#454358"/><path d="M23.63 174.04c-.9 0-1.6-.96-1.6-2.2s.69-2.18 1.6-2.18c.89 0 1.6.96 1.6 2.19s-.71 2.19-1.6 2.19zm0-3.64c-.45 0-.86.68-.86 1.45s.4 1.44.86 1.44c.44 0 .85-.68.85-1.44-.02-.77-.4-1.45-.85-1.45z" fill="#d8d8d8"/><path d="M23.6 167.15s1.13.7.81 1-.84-.24-.84-.24z" fill="#464558"/><path d="m23.3 170.47.02.02a.53.53 0 0 1 .27-.09c0-.01-.02-.01-.02-.03a2.4 2.4 0 0 1-.12-.71c-.14.01-.3.07-.43.14.02.18.07.35.16.51.06.06.07.11.13.16z" fill="#a4a4a4"/><path d="M23.93 169.7c0 .15.02.31.07.47.09.22.27.32.45.47.2.16.07.46-.13.44.1.23.14.5.14.78 0 .77-.39 1.45-.85 1.45-.46 0-.86-.68-.86-1.45 0-.37.1-.7.24-.98-.08-.07-.13-.16-.18-.25a2 2 0 0 1-.23-.48c-.36.4-.6 1.02-.6 1.71 0 1.23.7 2.2 1.61 2.2s1.6-.97 1.6-2.2c.04-1.1-.51-2-1.26-2.17z" fill="#d8d8d8"/><path d="M24.36 170.23V170h-.5c-.1.27-.22.41-.27.43-.09-.02-.4-.45-.4-1.26 0-.77.26-1.18.37-1.25.17-.06.2-.73 0-.77-.65.02-1.1.88-1.1 2.02 0 1.17.47 2.03 1.13 2.03.45 0 .8-.38.98-.98z" fill="#d8d8d8"/><path d="M23.3 167.22c-.37.14-.64.58-.78 1.19.6-.02 1.04-.66.79-1.2z" fill="#f3f3f3"/><path d="M24.23 170.24v-.28h-.37c-.1.3-.22.46-.29.48-.09-.02-.39-.45-.39-1.26 0-.2.02-.38.04-.54-.23.14-.5.23-.79.22l-.01.3c0 1.17.48 2.03 1.14 2.03.42 0 .78-.38.98-.95z" fill="#d8d8d8"/><path d="M24.09 170.17v-.26h-.2c-.09.33-.23.51-.28.51-.05-.02-.2-.2-.3-.53a1.3 1.3 0 0 1-.72.23c.18.64.56 1.05 1.02 1.05.44 0 .82-.4 1-1.01h-.52z" fill="#a4a4a4" opacity=".4"/><path d="M23.82 170.08c-.05.15-.1.23-.16.3.04.27.1.56 0 .8.3-.03.57-.24.77-.6-.14-.14-.4-.48-.6-.5z" fill="#a4a4a4"/><path d="M23.63 169.64h-.06v.75h.06c.44 0 .85.67.85 1.44s-.39 1.44-.85 1.44a.54.54 0 0 1-.23-.05v.78c.07.02.14.02.23.02.89 0 1.6-.96 1.6-2.2s-.71-2.18-1.6-2.18z" fill="#d8d8d8"/><path d="M24.45 170.62c.2.16.07.46-.13.44a2.2 2.2 0 0 1-.21 1.96c.12-.07.25-.16.35-.3.3-.36.64-.9.72-1.39-.15-.84-.63-1.46-1.25-1.62 0 .16.02.32.07.48.09.2.27.28.45.43z" fill="#d8d8d8"/><path d="M24.36 173.41c-.86.41-1.57.1-2.12-.46.26.66.78 1.1 1.39 1.1.66 0 1.2-.51 1.46-1.28-.22.27-.47.52-.73.64zM22.99 170.92c-.11-.12-.22-.27-.3-.44-.22.39-.19 1-.11 1.37.07.42.17.78.44 1.03a2.06 2.06 0 0 1-.03-1.96z" fill="#a4a4a4"/><path d="M22.2 171.06c.04 0 .07-.03.1-.05a.72.72 0 0 0 .2-.59l-.01-.07-.02-.02c-.14.22-.25.45-.32.73zM23.66 169.9l.04.08c.07.09.18.14.26.18.06.01.11.03.15 0 .16-.13-.13-.3-.22-.33a.3.3 0 0 0-.17 0c-.04 0-.06.04-.06.07z" fill="#f3f3f3"/><path d="M23.27 169.82a3.19 3.19 0 0 1 .04-1.45c-.25.47-.32 1.07-.04 1.45z" fill="#a4a4a4" opacity=".4"/><path d="M188.96 128.16c-.5-2.8-1.2-5.42-2.05-7.84a18.25 18.25 0 0 0-9.33-15.05 32.32 32.32 0 0 0-2.66-2.33 48 48 0 0 0-18.29-11.72 53.14 53.14 0 0 0-9.36-2.39c-20.56-3.31-41.98 4.76-57.9 17.53a92 92 0 0 0-7.56 6.6c-1.07 1.07-1.72 2.52-2.81 3.6a14.87 14.87 0 0 1-3.92 2.8c-1.7.84-3.58 1.34-5.29 2.17-2.7 1.34-4.52 2.18-5.72 4.95-2.1 4.94-.25 6.34.15 7.9 1.2 2.24 3.65 4.38 7.81 6.42a12.3 12.3 0 0 0 4.96 1.14 26.4 26.4 0 0 1 3.15.11c3.53.3 7.05.62 10.58.93 5.3.46 10.99 1.06 15.12 4.43 4.45 3.63 6.09 9.58 8.62 14.75 1.62 3.33 6 9.8 10.54 9.53 11.13 17.47 30.92 26.23 50.53 12.23 15.64-11.2 16.08-41.1 13.43-55.76z" fill="#8e2c13"/><g fill="#732613"><path d="M109.2 100.25c-1.47 5-2.45 10.17-3.33 15.3-1.3 7.71-2.1 15.58-.81 23.35a54.96 54.96 0 0 0 2.81 10.6c2.23 2.7 3.62 6.1 5.06 9.45a21.98 21.98 0 0 0 3.52 3.64c.93.74 2 1.55 3.17 1.87.82.2 2.25.3 2.52-.77.51-2.05-.3-4.54-.79-6.54-.6-2.49-1.1-5.02-1.65-7.51a46.2 46.2 0 0 1-1.29-10.24c0-3.65.02-7.32.41-10.96a62.3 62.3 0 0 1 5.72-19.75c2.72-5.79 6.14-11.24 11.2-15.26a35.23 35.23 0 0 1 8.23-5.02c-10.83-1.13-21.82.8-32.02 4.79a40.8 40.8 0 0 0-2.75 7.05z" opacity=".2"/><path d="M188.96 128.16a49.9 49.9 0 0 0-2.05-7.84 18.25 18.25 0 0 0-9.33-15.05 32.32 32.32 0 0 0-2.66-2.33A48 48 0 0 0 153 90.08c.41.82.78 1.62 1.16 2.44a38.51 38.51 0 0 1 3.58 17.03c-.3 12.53-6.04 24.43-13.84 34.05-7.28 8.98-16.92 16.24-28.14 19.47l-.77.21c1.95 3.47 5.88 8.66 9.96 8.4 11.13 17.48 30.92 26.24 50.53 12.24 15.69-11.2 16.13-41.1 13.48-55.76zM175 114.69c-.11.27-.22.5-.47.66-.12.1-.3.18-.39.29-.2.25-.07.64-.03.92.03.25.03.75-.3.84-.61.16-1.22-.87-1.38-1.34-.66-1.88 1.27-2.88 2.01-2.54.43.2.73.7.56 1.17zm2.22-6.6c-.57.81-1.94 1-2.76 1.5a8 8 0 0 0-2.62 2.72c-1.35 2.28-2.38 5.4-1.8 8.06.04.18-.15.41-.35.27a7.06 7.06 0 0 1-2.57-6.71c.22-1.45.72-3.05 1.54-4.28 1.35-2 4.32-3.3 7.48-2.9.82.07 1.67.5 1.08 1.34z" opacity=".2"/><path d="M170.76 107.87c1.89-1.1 3.8-1.82 6-1.7.8.03 1.6.08 2.4.14-.51-.38-1.05-.72-1.6-1.04-.3-.3-.62-.59-.94-.87a8.41 8.41 0 0 0-2.73-.68 9 9 0 0 0-7.2 2.8c-1.72 1.9-2.2 4.17-1.95 6.66.14 1.42.3 3.77 1.51 4.83-.23-2.05-.37-4.2.57-6.1a9.9 9.9 0 0 1 3.94-4.04zM115.19 156.81c1.01-8.33-1.96-17.38-9.69-21.55-8.53-4.6-19.32-3.17-28.35-1-3.81.92-8.6 2.57-12.43.99 1.33 1.92 3.65 3.77 7.28 5.54 1.5.73 3.17 1.06 4.95 1.13a26.4 26.4 0 0 1 3.15.11l10.58.93c5.31.46 11 1.07 15.12 4.43 4.46 3.64 6.1 9.58 8.62 14.75.43.87 1.04 1.96 1.8 3.08a18.16 18.16 0 0 1-1.03-8.4zM170.81 126.07c2.44 1.55 5.43 2.4 8.18 1.07 2.53-1.2 4.6-3.8 4.38-6.73-.18-2.14-1.57-4.88-3.8-5.72.79 3.44-.58 7.57-4.06 8.84-1.92.71-4.1.46-5.87-.54a8.48 8.48 0 0 1-2.94-3.06c.28 1 .59 2 1.1 2.88a9.28 9.28 0 0 0 3.01 3.26z" opacity=".41"/><path d="M167.2 121.1c.3.54.58 1.1.94 1.6a5.17 5.17 0 0 0 3.12 2.06c1.76.4 3.7.35 5.41-.29 1.83-.68 3.58-2 4-3.99a6.35 6.35 0 0 0-.9-4.52c.23 3.12-1.2 6.45-4.24 7.57-1.92.71-4.1.46-5.88-.54a8.48 8.48 0 0 1-2.94-3.06c.08.21.13.44.2.66.09.2.2.37.28.52z" opacity=".41"/><path d="M175.14 119.77c.73-.46.59-1.3.18-2 .05.6-.3 1.1-1.02 1.2-.53.09-1.14-.2-1.67-.55.51.89 1.64 1.88 2.5 1.35zM151.38 127.23c-.28 22.53 31.63 29.09 38.4 7.14a73.7 73.7 0 0 0-.84-6.21c-.46-2.59-1.08-5-1.87-7.29 1.64 23.92-33.48 22.34-35.69 6.36z" opacity=".41"/><path d="M155.55 137.37a20.65 20.65 0 0 0 34.23-3.17 58.47 58.47 0 0 0-2.87-13.86c1.62 23.9-33.32 22.89-35.51 6.91-.02 1.59.12 3.1.4 4.52.9 2.07 2.1 4 3.75 5.6zM90.06 117.69c3.04.69 6.04 1.9 8.7 3.54 2.2 1.33 4.3 2.97 5.69 5.17-.1-3.1-.68-6.24-2.26-8.95-1.68-2.88-4.17-5.16-6.86-7.08a24.16 24.16 0 0 0-6.71-3.42 78.73 78.73 0 0 0-6.83 6.02c-1.06 1.06-1.72 2.5-2.8 3.6-.56.55-1.17 1.06-1.8 1.5.4-.03.81-.06 1.22-.12 3.88-.46 7.77-1.14 11.65-.26z" opacity=".41"/><path d="M102.63 123.97a16.14 16.14 0 0 0-2.6-3.11c-1.85-1.77-3.8-3.83-6.18-4.9-2.97-1.34-6.18-.96-9.26-.22-1.39.34-2.8.68-4.15 1.2-1.03.39-2.03.67-3.08.98l-.21.16c.4-.04.82-.07 1.23-.13 3.88-.46 7.78-1.14 11.64-.26 3.05.69 6.04 1.9 8.71 3.54 1.57.96 3.12 2.1 4.38 3.46l-.48-.72zM188.96 128.16c-.07-.4-.14-.77-.23-1.16 2.4 48.2-64.7 56.78-70.8-1.7-5.15 11-7.48 19.69-5.1 31.98.19 1 .4 2.01.68 3 .29.63.57 1.27.88 1.88 1.62 3.33 6 9.8 10.54 9.53 11.13 17.47 30.92 26.23 50.53 12.23 15.7-11.2 16.15-41.1 13.5-55.76z" opacity=".41"/><path d="M122.15 166.88a.13.13 0 0 1-.12-.1 97.01 97.01 0 0 1-4.38-18.25c-1.36-9.54-1.73-23.22 4.13-34.21 4.77-8.92 12.93-14.82 24.28-17.53.07-.01.14.02.14.1.02.06-.02.14-.1.14-11.27 2.68-19.37 8.53-24.1 17.4-5.83 10.91-5.46 24.54-4.1 34.05 1.46 10.31 4.34 18.13 4.36 18.2.02.07-.02.14-.07.16 0 .04-.02.04-.04.04zM170.86 142.28a19.8 19.8 0 0 1-14.55-6.15 23.27 23.27 0 0 1-5.87-11.75c-.8-4.24-.45-8.62.97-12.32a16.5 16.5 0 0 1 7.93-8.98 13.76 13.76 0 0 1 6.11-1.21c4.99 0 12 1.85 16.72 7.07 3.8 4.2 5.38 9.7 4.7 16.35-1.1 10.8-6.92 17-16 17zm-5.4-40.14c-2.38 0-4.5.4-6 1.17-8 4.08-10.16 13.5-8.76 21.04 1.4 7.4 6.97 16.44 18.15 17.58.68.07 1.36.1 2.03.1 8.93 0 14.68-6.1 15.76-16.74.68-6.57-.89-12-4.63-16.15-4.68-5.17-11.6-7-16.54-7z"/><path d="M173.07 124.1a6.9 6.9 0 0 1-2.72-.56 8.36 8.36 0 0 1-4.69-6.12 10.2 10.2 0 0 1 3.62-9.51 9 9 0 0 1 9.15-1.66c.08.02.1.1.08.16s-.11.1-.16.07a8.7 8.7 0 0 0-8.91 1.6 9.95 9.95 0 0 0-3.54 9.28 8.09 8.09 0 0 0 4.54 5.95 6.5 6.5 0 0 0 7.16-1.3c1.05-1.12 2.35-4.02 1.94-6.37a3.32 3.32 0 0 0-1.82-2.55c-1.74-.87-3.4-.98-4.66-.3a2.88 2.88 0 0 0-1.6 2.15c-.2 1.43.9 3.28 1.92 3.76.51.25 1.28.23 1.69-.27.2-.23.25-.58.14-.9-.09-.27-.27-.45-.5-.5-.07-.02-.1-.1-.09-.15.02-.07.1-.1.15-.09.32.08.57.33.69.66.14.41.07.86-.18 1.16-.48.59-1.39.62-2 .34-1.08-.5-2.25-2.5-2.06-4.03.13-.96.78-1.83 1.75-2.33.78-.4 2.45-.92 4.9.3a3.6 3.6 0 0 1 1.95 2.73c.43 2.42-.9 5.45-2 6.59a6.78 6.78 0 0 1-4.75 1.89z"/><path d="M177.56 105.27a32.15 32.15 0 0 0-2.65-2.33A48 48 0 0 0 151.1 89.6c.74.59 1.4 1.25 1.99 2.01 13.48 17.58-21.07 21.2-3.83 37.42.84.78 2.58 3 3.72 2.87-7.14-16.33 1-25.99 5.93-28.29-.01-.03-.05-.05-.07-.08a15.62 15.62 0 0 1 8-1.32c3.86.5 7.55 1.51 10.99 3.22l-.27-.16z" opacity=".41"/><path d="M177.56 105.27a32.32 32.32 0 0 0-2.65-2.33 47.99 47.99 0 0 0-15.78-10.76c.94 1 1.83 2.05 2.54 3.24.95 1.6 2.3 4.42 2.25 6.75 1.03-.1 2.03-.09 2.94.02a34.3 34.3 0 0 1 10.99 3.22c-.1-.03-.18-.08-.29-.14z" opacity=".41"/></g><path d="M146.32 110.19c.5-.88.8-1.86 1.43-2.64 1.15-1.42 3.2-2 4.13-3.58.16-.27.27-.57.21-.87-.14-.6-.89-.78-1.51-.73-1.1.1-2.16.66-2.98 1.4s-1.44 1.7-1.95 2.7c-.5 1-.91 2.11-.73 3.22.03.27.12.53.3.73.18.2.48.3.71.2.2-.1.3-.25.4-.43zM97.47 106.18c.75-.66 1.37-1.48 2.22-2.01 1.55-.98 3.7-.84 5.08-2.03.23-.2.45-.45.48-.75.07-.6-.59-1.03-1.2-1.18a5.14 5.14 0 0 0-3.25.36 9.05 9.05 0 0 0-2.73 1.9c-.8.79-1.55 1.7-1.74 2.8-.06.27-.07.54.03.79.11.25.36.44.63.4.18-.03.34-.15.48-.28zM156.44 110.99c.28-.6.35-1.4-.14-1.87-.45-.41-1.16-.38-1.68-.06-.52.33-.85.84-1.14 1.38-2.8 4.91-.9 7.89.87 7.73.32-.04.64-.18.77-.49.04-.1.05-.23.05-.35.16-5.15-.96-1.75 1.27-6.34zM171.47 110.17c.05-.25.05-.5.07-.73 0-.07 0-.16-.03-.23-.45-.8-1.64-.06-1.96.43-.27.4-.77 1.67-.3 2.06.81.7 2.08-.84 2.22-1.53z" fill="#9e3a26" opacity=".37"/><path d="M175.14 123.81a.1.1 0 0 1-.09-.05.14.14 0 0 1 .02-.18c.84-.68-.18-2.24-.2-2.26-.03-.05-.02-.14.04-.18.05-.03.14-.02.18.04.05.07 1.14 1.76.14 2.58-.04.03-.07.05-.1.05zM177.3 122.48c-.02 0-.04 0-.06-.02-.07-.04-.09-.1-.05-.16.4-.9-.6-1.6-.66-1.64-.05-.04-.07-.13-.04-.18a.14.14 0 0 1 .18-.03c.02 0 1.25.87.75 1.94-.04.07-.07.09-.13.09zM162.87 109.74a.13.13 0 0 1-.13-.09c-1.08-3.99-5.91-4.57-5.96-4.6-.08 0-.13-.06-.11-.13 0-.08.07-.13.14-.11.05 0 5.04.62 6.18 4.77.02.07-.02.14-.09.16h-.03zM165.68 106.1c-.05 0-.09-.03-.1-.08-1.32-2.6-5.6-2.89-5.63-2.89-.07 0-.13-.07-.13-.12 0-.07.06-.13.13-.13.18.02 4.47.3 5.84 3.03.03.06 0 .15-.05.16-.02.02-.04.02-.06.02zM167.82 142.14a.13.13 0 0 1-.13-.09c-.01-.07.02-.14.1-.16.03-.02 3.9-1.09 3.48-8.64 0-.07.06-.12.13-.12s.12.05.12.12c.41 7.79-3.5 8.85-3.68 8.89h-.02zM172.16 142.05a.13.13 0 0 1-.12-.09c-.02-.07.02-.14.09-.16.03 0 2.9-.82 2.65-6.9 0-.06.06-.12.13-.12s.12.06.12.13c.25 6.29-2.72 7.1-2.85 7.14h-.02zM155.3 106.32c-.06 0-.1-.01-.1-.07-1.74-3.69-5.76-6.43-5.81-6.46-.06-.04-.08-.13-.04-.18.04-.06.13-.07.18-.04.03.04 4.13 2.82 5.9 6.57.03.08 0 .15-.06.16-.04 0-.05.02-.07.02zM153.38 108.66c-.06 0-.1-.04-.11-.07-2.46-5.65-9.03-7.52-9.1-7.54s-.11-.09-.1-.16c.03-.07.1-.1.17-.09.07.02 6.77 1.93 9.26 7.68.03.07 0 .14-.07.16-.02.02-.04.02-.06.02zM152.63 190.64c-.06 0-.1-.02-.11-.07-.04-.06 0-.15.05-.16.02-.02 2.5-1.27 4.83-4.56 2.15-3.05 4.63-8.52 4.2-17.28 0-.07.06-.12.13-.12s.12.05.12.12c.43 8.83-2.08 14.36-4.25 17.44-2.37 3.34-4.88 4.6-4.92 4.63h-.05zM159.56 190.23c-.04 0-.06-.02-.1-.04-.05-.05-.05-.12 0-.18.08-.07 6.72-7.39 5.99-20.78 0-.07.05-.13.13-.13s.12.06.12.13c.75 13.5-5.98 20.89-6.04 20.96-.03.02-.07.04-.1.04zM122.94 137.33c-4.97 0-6.04-2.8-6.1-2.96-.01-.07.02-.14.08-.16.07-.01.14.02.16.08.01.05 1.76 4.6 11.29 1.92.07-.02.14.02.16.09.02.07-.02.14-.09.16-2.23.62-4.03.87-5.5.87zM122.47 140.73a6.94 6.94 0 0 1-5.59-2.65c-.03-.06-.02-.14.04-.18.05-.04.14-.02.17.04.15.2 3.62 5.18 11.19.7.05-.03.14-.01.18.04.03.06.02.15-.04.18-2.37 1.4-4.34 1.87-5.95 1.87z" fill="#732613"/><path d="M63.2 131.92c1.23 2.61.23 5.96-6.5 8.88-.89.4-1.82.79-2.42 1.53-.6.75-.79 1.96-.1 2.64.49.48 1.22.57 1.9.55 11.32-.25 15.56-12.5 7.12-13.6z" fill="#565673"/><path d="M65.3 141.02c-2.8-1.29-6.7-.79-8.56-.24l-.04.02c-.21.1-.43.18-.64.29l.84-.06c1.5-.08 4.38-.74 6.89 1.22.16.12.3.26.43.4.55-.44 1.03-.94 1.46-1.44a7.77 7.77 0 0 0-.38-.2z" fill="#454358" opacity=".37"/><path d="m58.25 140.07.9-.12c1.42-.2 2.84-.3 4.25-.02.89.18 1.81.45 2.6.93 2.78-3.67 2.24-8.27-2.78-8.93 1.1 2.39.35 5.4-4.97 8.14z" fill="#454358" opacity=".37"/><path d="M60.07 140.1c3.15-1.3 5.07-4.89 4.1-8-.31-.08-.63-.15-.97-.2 1.23 2.62.23 5.96-6.5 8.89-.43.17-.87.37-1.28.6 1.62-.55 3.5-.8 4.65-1.28z" fill="#454358" opacity=".37"/><path d="M67.05 134.1c.64 5.81-9.23 12.72-13.29 9.4-.09.53.04 1.08.41 1.45.48.48 1.21.57 1.89.56 8.78-.18 13.3-7.56 10.99-11.4z" fill="#454358" opacity=".37"/><path d="M63.2 131.92c1.16 2.47.32 5.59-5.43 8.39.35.9-.07 2.11-.52 2.92a4.16 4.16 0 0 1-2.78 1.94c.47.28 1.05.34 1.6.34 11.33-.24 15.57-12.49 7.13-13.6z" fill="#454358" opacity=".37"/><path d="M63.2 131.92c.86 1.83.62 4-1.89 6.16.6 1.3.66 3.08.34 4.15-.2.66-.43 1.57-.8 2.39 7.57-2.9 9.48-11.76 2.35-12.7z" fill="#454358" opacity=".37"/><path d="M54.88 141.76c-.21.16-.42.36-.6.57-.25.3-.43.68-.5 1.07.21.16.44.27.59.29 1.62.34 1.58-1.68.51-1.93z" fill="#565672" opacity=".31"/><path d="M62.92 136.26a5.3 5.3 0 0 1 3.45 4.04c2.32-3.56 1.6-7.74-3.17-8.37.6 1.3.66 2.8-.28 4.33z" fill="#454358"/><path d="m123.22 92.86-11.49-.04c9.28 1.87 11.24 4.47 15.25 14.57 0 0 6.05 1.82 8.6 4.86 2.55 3.05-.25-9.97-.25-9.97z" fill="#732613" opacity=".41"/><path d="M152.84 152.04c-1.16-.85-1.62-2.4-1.64-3.84-.02-1.45.32-2.87.43-4.31.25-3.32-.78-6.65-2.39-9.57s-3.74-5.5-5.91-8.03c-1.14-1.34-2.3-2.67-3.2-4.17-1.57-2.6-2.36-5.61-3.1-8.55a6.38 6.38 0 0 1-.27-2.83 5.8 5.8 0 0 1 1.1-2.07c1.5-2.03 3.39-4.1 5.9-4.43a16.1 16.1 0 0 0 3.22 11.82c.87 1.13 1.92 2.18 2.44 3.5.3.76.41 1.6.55 2.42a29.5 29.5 0 0 0 8 15.6c.66.66 1.37 1.33 1.64 2.23.37 1.2-.16 2.47-.55 3.66-.5 1.5-.8 3.05-.91 4.62-.05.89-.05 1.8-.41 2.62-.75 1.8-3.33 2.49-4.9 1.33z" fill="#732613" opacity=".41"/><path d="m158.08 103.95.2-.37c2.24-5.04-6.08-13.13-10.7-15.7-.58-.31-1.22-.67-1.88-1-.64-.04-1.27-.06-1.9-.08-11.07-.16-23.86.91-32.37 6.2 11.2.66 14.16 6.9 20.3 15.82.84 1.2 1.43 2.63 2.64 3.49 1.42 1 3.38.9 5.02.28 1.62-.62 3.03-1.7 4.53-2.63 6.23-3.87 10.06-2.84 13.2-5.06.33-.29.67-.59.96-.95z" fill="#d58500"/><path d="m158.08 103.95.2-.37c2.24-5.04-6.08-13.13-10.7-15.7-.58-.31-1.22-.67-1.88-1-.64-.04-1.27-.06-1.9-.08-11.07-.16-23.86.91-32.37 6.2 11.2.66 14.16 6.9 20.3 15.82.84 1.2 1.43 2.63 2.64 3.49 1.42 1 3.38.9 5.02.28 1.62-.62 3.03-1.7 4.53-2.63 6.23-3.87 10.06-2.84 13.2-5.06.33-.29.67-.59.96-.95z" fill="#b45f00" opacity=".3"/><path d="M149.17 104.88c2.4-1.09 5.1-.75 7.43.32.16-.1.32-.2.48-.32.36-.27.7-.57.98-.93l.2-.37c1.88-4.26-3.76-10.72-8.36-14.16-.16.25-.32.5-.5.75-.42.59-1.1 1.51-1.94 1.3-.98-.25-.82-1.66-.6-2.35.14-.45.3-.9.5-1.34-.54-.3-1.1-.6-1.7-.9-.64-.04-1.26-.06-1.9-.08-11.06-.16-23.85.91-32.36 6.2l.3.02c3.38-1.4 6.82-3.92 10.6-3.65 2.76.2 5.5 1.72 6.64 4.34 1.5 3.48.9 7.34.03 11.08l2.73 4.04c.84 1.22 1.42 2.64 2.64 3.5 1.42 1 3.38.9 5.02.28 1.42-.55 2.69-1.46 3.97-2.28 1.09-2.44 3.61-4.45 5.84-5.45z" fill="#b45f00" opacity=".3"/><path d="M144.65 106.68c1.1-2.57 2.05-5.3 2.13-8.12.13-3.48-1.37-7.68.38-10.92-.48-.27-.96-.53-1.48-.78l-1.21-.06c-.23 2.51-.18 5.06-.68 7.54-.55 2.8-1.32 5.54-1.89 8.33-.53 2.58-1 5.33-2.08 7.75-.39.85-.85 1.66-1.35 2.44.3-.07.6-.16.89-.29a16.3 16.3 0 0 0 3.17-1.76c.8-1.33 1.51-2.72 2.12-4.13z" fill="#b45f00" opacity=".74"/><path d="M123.92 93.34c-1.14-2.21-4.47-1.98-6.54-1.6-1.48.26-2.87.74-4.18 1.4 4.64.57 7.74 2.23 10.34 4.72.57-1.39 1.07-3.17.38-4.52z" fill="#d58500"/><path d="M150.74 101.66c-.29-5.08 6.36-6.56 4.84-6.18l-3.92-1.55s-1.58-1.68-2.26 1.46c-.66 3.11 1.34 6.27 1.34 6.27z" fill="#b45f00" opacity=".74"/><path d="m160.85 92.96-1.12.04-.98 3.05s4.4-.86 6.27-.7c.13.02.23 0 .34 0a54.13 54.13 0 0 0-4.5-2.39z" fill="#732613"/><path d="M135.03 36.77c.93-.67 1.85-1.35 2.78-2 .23-.19.48-.35.75-.47 1.06-.45 2.33.2 3.02 1.12.7.93.97 2.1 1.32 3.2.36 1.11.87 2.25 1.85 2.87-1.3.11-2.61.22-3.86-.18-.4-.12-.78-.3-1.16-.48a7.99 7.99 0 0 1-2.7-1.72c-.68-.75-1.1-1.84-2-2.34z" fill="#58a44b"/><path d="M137.8 34.76a4.05 4.05 0 0 1 .9-.52c.03.34.2.66.43.93.3.36.73.66 1.19.75.4.07.82.07 1.23.09.14 0 .27.01.4.03.44.8.67 1.73.95 2.6.36 1.1.87 2.25 1.85 2.87-1.3.1-2.61.21-3.86-.18-.4-.12-.78-.3-1.16-.48a7.99 7.99 0 0 1-2.7-1.73c-.7-.78-1.1-1.85-2.02-2.35l2.8-2.01z" fill="#398139"/><path d="M140.68 35.5c-.45-.03-.95-.24-1.14-.69a1.2 1.2 0 0 1-.07-.65c.78.07 1.54.53 2.04 1.17-.25.14-.55.2-.83.18z" fill="#9bd984"/><path d="M137.8 34.76c.24-.18.49-.34.76-.46.03-.02.07-.04.12-.04-.04.54.25 1 .62 1.34a4.85 4.85 0 0 0 1.51.9c.5.2 1.02.3 1.54.42.21.55.37 1.14.55 1.7.36 1.11.87 2.25 1.85 2.87-1.3.11-2.61.22-3.86-.18-.4-.12-.78-.3-1.16-.48a7.99 7.99 0 0 1-2.7-1.72c-.7-.79-1.1-1.86-2.02-2.35.95-.66 1.87-1.34 2.8-2z" fill="#275c26"/><path d="M146.16 52.93c.4-1.48.55-3.1-.07-4.5a5.64 5.64 0 0 0-1.18-1.63h3.92c1.1 1.84.6 4.83.2 6.79-.36 1.7-.9 3.36-1.27 5.07-.16.68-.28 1.37-.37 2.07-.3 2.42-.02 5.06 1.48 6.98a10.55 10.55 0 0 0 4.02 2.87c.6.28 1.22.51 1.84.71 15.67 5.22 13.2 15.1 9.14 19.8-.63.72-1.3 1.38-2 2.02l-3.12 2.95a4.76 4.76 0 0 0-1.96-2.53c2.68-1.95 5-4.47 6.27-7.53 1.95-4.74-.05-9.4-4.68-11.45-2.44-1.09-5.1-1.8-7.2-3.46a15.4 15.4 0 0 1-3.43-4.2c-1.78-2.88-3.26-6.22-2.8-9.56.23-1.5.82-2.92 1.21-4.4z" fill="#58a44b"/><path d="M144.97 57.34c-.47 3.37 1.01 6.68 2.8 9.57a15.68 15.68 0 0 0 3.43 4.2 17.44 17.44 0 0 0 4.77 2.46c1.87.37 3.74.66 5.63 1-1.74-1.21-4-2.32-6.87-3.26-.63-.22-1.25-.45-1.84-.72-1.51-.69-2.99-1.54-4.02-2.86-1.52-1.93-1.8-4.56-1.48-6.98.09-.7.21-1.4.37-2.07.4-1.7.91-3.37 1.27-5.08.4-1.96.9-4.95-.2-6.78h-3.92c.49.48.9 1.01 1.18 1.64.62 1.39.46 3 .07 4.48-.39 1.47-.98 2.89-1.2 4.4z" fill="#398139"/><path d="M151.2 71.11c.48.38.98.7 1.5 1l.55-.16a26.6 26.6 0 0 1 2.07-.45l-.6-.21c-.61-.21-1.24-.45-1.83-.71-1.51-.7-2.99-1.55-4.02-2.87-1.52-1.92-1.8-4.56-1.48-6.98.09-.7.21-1.4.37-2.07.4-1.69.91-3.36 1.27-5.07.4-1.96.9-4.96-.2-6.79h-3.92c.49.48.9 1.02 1.18 1.64.62 1.39.46 3 .07 4.49-.39 1.48-.98 2.9-1.2 4.41-.46 3.37 1.02 6.68 2.8 9.57a15.74 15.74 0 0 0 3.44 4.2z" fill="#275c26"/><path d="M159.36 75.05a8.78 8.78 0 0 0-2.74-1.21c.6.23 1.19.48 1.78.73.34.14.66.3.96.48z" fill="#58a44b"/><path d="M164.31 79.93a40.4 40.4 0 0 0-2.23-2.57c1.84 2.35 2.3 5.49 1 8.64l-.02.04c.04 1.37-.5 2.97-.85 3.9-.86 2.2-2.21 3.75-3.83 5.27.16.27.28.55.4.85l3.1-2.95c.7-.64 1.38-1.3 2-2.02a12.8 12.8 0 0 0 2.85-5.75 10.26 10.26 0 0 0-2.42-5.41z" fill="#398139"/><path d="M161.28 90.85c.38-.77 1.04-2.28 1.27-3.7a19.14 19.14 0 0 1-5.74 6.4c.52.34.96.77 1.32 1.27a12.96 12.96 0 0 0 3.15-3.97z" fill="#9bd984" opacity=".49"/><path d="M157.9 77.88c-1.6-2.07-3.83-3.54-5.95-5.08-5.13-3.68-7.07-6.34-7.04-13.21.02-1.76.16-3.6 1.06-5.11a3.86 3.86 0 0 0-2.18-1.02c-1.01 3.58-1.83 7.45-.62 10.97 1.16 3.39 3.95 5.88 6.54 8.32 10.33 9.8 4.52 13.6 1.03 17.35-3.42 3.65-6.22 8.69-4.44 13.37a11.27 11.27 0 0 1 4.46-1.83c-1.07-4.2.05-7.09 3-9.83 1.98-1.84 10.28-6.02 4.14-13.93z" fill="#58a44b"/><path d="M157.9 77.88c-1.6-2.07-3.83-3.54-5.95-5.08-5.13-3.68-7.07-6.34-7.04-13.21.02-1.76.16-3.6 1.06-5.11a3.86 3.86 0 0 0-2.18-1.02c-1.01 3.58-1.83 7.45-.62 10.97 1.16 3.39 3.95 5.88 6.54 8.32.67.64 1.28 1.26 1.83 1.85 1.82.64 3.54 1.62 4.83 3.01 1.83 2 2.61 4.97 1.55 7.57-1.45 3.51-5.77 4.76-7.86 7.86-1.33 2-.96 4.36-.39 6.57.18.71.4 1.44.71 2.12.13-.02.23-.06.36-.07-1.07-4.2.05-7.1 3-9.84 2-1.85 10.3-6.03 4.16-13.94z" fill="#398139"/><path d="M148.76 95.48c.22-2 1.25-3.76 2.14-5.54l-.16.16a20.85 20.85 0 0 0-4.08 6.1c.54.99.43 2.6.3 3.55-.1.84-.2 1.75-.7 2.44l-.24.34c.07.32.18.62.28.94a11.25 11.25 0 0 1 3.9-1.7c-1.37-1.66-1.65-4.2-1.44-6.3zM154.43 85.98c1.19-.83 2.99-2.44 2.54-4.11-.39-1.5-1.53-2.62-2.6-3.7l-.37-.38c2.24 3.58 1.76 6.11.43 8.2z" fill="#9bd984" opacity=".49"/><path d="M150.92 94.34a6.42 6.42 0 0 0-.32 2.36c.44-1.81 1.53-3.38 3.15-4.9.14-.12.3-.26.5-.4-1.45.57-2.78 1.35-3.33 2.94z" fill="#275c26" opacity=".62"/><path d="m149.72 72.75.23.21c1.7.86 3.44 1.6 5.19 2.39l.57.27c-1.18-1.02-2.48-1.9-3.74-2.82-5.13-3.68-7.07-6.34-7.04-13.21.02-1.77.16-3.6 1.05-5.11a3.85 3.85 0 0 0-2.17-1.02c-1.02 3.58-1.83 7.45-.62 10.97 1.14 3.37 3.93 5.86 6.53 8.32z" fill="#398139"/><path d="M150.08 71.38c-3.72-3.05-5.18-5.83-5.15-11.8.02-1.75.16-3.59 1.05-5.1a3.85 3.85 0 0 0-2.17-1.02c-1.01 3.58-1.83 7.45-.62 10.97a15.27 15.27 0 0 0 3.58 5.45c1.05.59 2.17 1.14 3.31 1.5z" fill="#275c26"/><path d="M154.71 136.65c-.48-.4-1.09-.6-1.64-.9-1.78-.95-2.94-2.71-4.02-4.4-.64-1-1.29-2.02-1.95-3.01l-6.32 3.63a117.3 117.3 0 0 1 5.58 7.02c.44.6.89 1.23 1.12 1.96.64 1.96-.46 4.02-.94 6.03a11.23 11.23 0 0 0-.1 5.38c.33 1.25.54 1.87 1.63 1.66h.02a.19.19 0 0 1 .23 0c.01.02.05.02.07.03.25.1.57.22 1.51.08a4.18 4.18 0 0 0 2.85-2.36c.3-.74.36-1.58.45-2.4.23-2.1.73-4.17 1.48-6.14.42-1.1.92-2.2 1.06-3.37.16-1.14-.12-2.44-1.03-3.2z" fill="#454358"/><path d="M154.71 136.65c-.48-.4-1.09-.6-1.64-.9-1.78-.95-2.94-2.71-4.02-4.4-.64-1-1.29-2.02-1.95-3.01l-6.32 3.63a117.3 117.3 0 0 1 5.58 7.02c.44.6.89 1.23 1.12 1.96l.14.57c1.28-.66 2.73-1.02 3.85-.24 1.4.98 1.2 3.39 1.14 4.85-.07 2.15-.3 4.42-1.09 6.43-.14.37-.3.75-.48 1.1a3.87 3.87 0 0 0 1.73-1.89c.3-.74.36-1.58.44-2.4.24-2.1.74-4.17 1.48-6.14.43-1.1.93-2.2 1.07-3.37.14-1.14-.14-2.44-1.05-3.2z" fill="#2f2d46" opacity=".44"/><path d="M154.71 136.65c-.48-.4-1.09-.6-1.64-.9-1.78-.95-2.94-2.71-4.02-4.4-.64-1-1.29-2.02-1.95-3.01l-4.82 2.76.05.01c1.82 1 3.62 2.03 5.45 3.01 1.07.6 2.14 1.2 3.23 1.75.48.25 1.2.55 1.51 1.03.23.38.16.66-.16.96-.21.2-.52.3-.77.47-.57.35-.01.58.4.55.73-.09 1.19-.14 1.76.36.44.39.48 1.2.46 1.74-.1 2.62-.78 5.15-1.3 7.7-.3 1.53-.52 3.25-1.33 4.63.51-.4.92-.91 1.17-1.54.3-.74.36-1.58.45-2.4.23-2.1.73-4.17 1.47-6.15.43-1.1.93-2.19 1.07-3.36.16-1.14-.12-2.44-1.03-3.2z" fill="#2f2d46" opacity=".44"/><path d="M148.39 136.67c1.65-.3 3.42-.59 5.02.13 1.05.46 1.8 1.19 2.35 2.08a3.25 3.25 0 0 0-1.05-2.2c-.48-.42-1.09-.61-1.64-.92-1.78-.94-2.94-2.7-4.02-4.4l-1.95-3-6.32 3.63c1.44 1.69 2.85 3.42 4.2 5.2 1.16-.06 2.4-.34 3.4-.52z" fill="#2f2d46" opacity=".44"/><path d="M147.64 134.7c1.37-.22 2.76-.22 4.11.12a15.65 15.65 0 0 1-2.7-3.47c-.64-1-1.29-2.02-1.95-3.01l-6.32 3.63c1.1 1.28 2.18 2.6 3.23 3.92 1.2-.3 2.4-1 3.63-1.2z" fill="#2f2d46"/><path d="M150 142.7c.2-.15.37-.56-.03-.63-.28-.06-.6 0-.87.1-3.28 1.15.04 1.1.9.52z" fill="#565673"/><path d="M148.3 154.02s.02 0 0 0c-.16-.38-.55-1.03-.46-1.44l.1-.4c.04-.12.1-.2.15-.33a.44.44 0 0 0 0-.3.16.16 0 0 0-.11-.11.11.11 0 0 0-.1 0 .4.4 0 0 0-.28.14c-.07.09-.1.18-.08.28.01.07.05.15.07.22.14.32 0 .62 0 .96 0 .16.01.34.05.5.02.05.1.57.14.57.07 0 .16-.02.25-.04h.02c.09-.09.18-.1.25-.05z" fill="#2f2d46"/><path d="M148.73 128.35a85.6 85.6 0 0 0-6.2-11.27c-.9-1.37-1.84-2.7-2.94-3.9-.52-.55 2.9-4.84 3.17-5.52.45-1.12.62-2.32.93-3.5.57-2.15 1.58-4.2 1.92-6.4.4-2.62-.2-5.33.32-7.93.21-1.05.6-2.05.9-3.06 1.3-4.3 1.24-9.6-.4-13.8-1.82-4.62-1.1-4.39-2.92-9-.16-.4-.32-.8-.68-1.03-.3-.2-.7-.2-1.07-.18-2.1.14-4.08 1.07-5.96 2-1.68.8-3.33 1.6-5 2.42-.28.12-.56.26-.74.51-.18.27-.21.6-.21.93-.06 3.04 1.14 5.91 1.55 8.9.17 1.25.39 2.64-.4 3.62a8.52 8.52 0 0 0-1.63 2.85l-.15-.04c-1.47-.34-3.65 1.64-3.65 1.64 2.8.62 3.35 1.8 3 3.5-.13.6-.32 1.2-.45 1.8-.18.8-.28 1.6-.4 2.4l-.4 3.13c-.57 4.35-1.16 8.7-1.57 13.05-.25 2.71-.96 6.74.4 9.28 1.65 3.07 3.8 5.85 5.94 8.59 2.03 2.6 4.08 5.22 6.34 7.62a3.3 3.3 0 0 0 2.8 1.02c2.19-.27 4.3-1.16 5.93-2.71.48-.45.89-.94 1.25-1.44.7-1.05.82-2.35.32-3.48z" fill="#454358"/><path d="M142.53 117.08a28.8 28.8 0 0 0-2.94-3.9c-.52-.55 2.9-4.85 3.17-5.52.45-1.12.62-2.32.93-3.5.57-2.15 1.58-4.2 1.92-6.4.4-2.62-.2-5.33.32-7.93.21-1.05.6-2.05.9-3.06 1.3-4.3 1.24-9.6-.4-13.8-1.82-4.62-1.1-4.39-2.92-9-.16-.4-.32-.8-.68-1.03-.3-.2-.7-.2-1.07-.18-2.1.14-4.08 1.07-5.96 2-1.68.8-3.33 1.6-5 2.42-.28.12-.56.26-.74.51-.18.27-.21.6-.21.93-.06 3.04 1.14 5.91 1.55 8.9.17 1.25.39 2.64-.4 3.62a8.1 8.1 0 0 0-1.74 3.24l.4.07a6.05 6.05 0 0 1 3.86 2.4c2.65 3.67 2.3 8.38 1.24 12.53-.35 1.44-.78 2.88-.92 4.36-.14 1.48-.06 2.96.03 4.43.16 2.25.32 4.58-.58 6.7a8.22 8.22 0 0 1-6.45 5.02c1.55 2.6 3.4 5 5.27 7.4 2.03 2.6 4.08 5.21 6.34 7.62a3.3 3.3 0 0 0 2.8 1.01c2.19-.26 4.3-1.15 5.93-2.7.48-.45.89-.95 1.24-1.45a3.5 3.5 0 0 0 .3-3.43 86.67 86.67 0 0 0-6.2-11.26z" fill="#272734" opacity=".25"/><path d="M126.21 113.82c1.98-.25 3.14-2.19 3.73-3.9.62-1.82.98-3.74.94-5.66-.03-1.66-.46-3.28-.52-4.94-.05-1.78.5-3.13 1.04-4.79a5.84 5.84 0 0 0-.3-4.38c-.68-1.39-1.6-1.57-2.52-1.16l-.02.11c-.12.6-.32 1.21-.44 1.82-.18.78-.28 1.58-.4 2.38l-.4 3.14c-.57 4.34-1.16 8.69-1.57 13.05-.1 1.25-.32 2.76-.4 4.3.31.03.6.07.86.03z" fill="#565672"/><path d="M142.53 117.08c-.9-1.37-1.84-2.7-2.94-3.9-.52-.55 2.9-4.85 3.17-5.52.45-1.12.62-2.32.93-3.5.57-2.15 1.58-4.2 1.92-6.4.4-2.62-.2-5.33.32-7.93.21-1.05.6-2.05.9-3.06 1.3-4.3 1.24-9.6-.4-13.8-1.82-4.62-1.1-4.39-2.92-9-.16-.4-.32-.8-.68-1.03-.3-.2-.7-.2-1.07-.18-2.1.14-4.08 1.07-5.96 2-1.68.8-3.33 1.6-5 2.42-.28.12-.56.26-.74.51-.18.27-.21.6-.21.93-.06 3.04 1.14 5.91 1.55 8.9.05.34.1.7.12 1.07a10.87 10.87 0 0 1 6.6 8.68c.77 5.53-.95 11.29-2.3 16.6a17.08 17.08 0 0 0-.61 4.45c.02 1.33.34 2.7.3 4.04-.03 1.28-.34 2.48-.64 3.7-.12.49-.16 1.29-.4 1.72-.15.23-.42.39-.63.58 3.8.79 5.91 4.15 7.94 7.2 1.34 2 2.35 4 2.92 6.36.22.9.4 1.83.54 2.74a9.41 9.41 0 0 0 3.2-2.87 3.5 3.5 0 0 0 .3-3.44 87.73 87.73 0 0 0-6.21-11.27z" fill="#272734" opacity=".25"/><path d="m127.9 85.02-.01.14c2.15-.17 5.77.18 7.75.66 2.65.64 5.23 1.75 7.23 3.65a12.93 12.93 0 0 1 2.85 3.89c-.02-1.18-.02-2.35.21-3.51.21-1.05.6-2.05.9-3.07 1.3-4.29 1.24-9.6-.4-13.8-1.82-4.61-1.1-4.38-2.92-9-.16-.38-.32-.8-.68-1.03-.3-.2-.7-.2-1.07-.17-2.1.14-4.08 1.06-5.96 2l-5 2.41c-.28.13-.56.27-.74.52-.18.27-.21.6-.21.93-.06 3.04 1.14 5.9 1.55 8.9.17 1.25.39 2.64-.4 3.62-.94 1.15-2.8 2.37-3.1 3.86z" fill="#272734" opacity=".25"/><path d="M139.1 83.69c2.84.4 5.46 1.4 7.83 2.85 1.2-4.26 1.14-9.44-.48-13.56-1.82-4.61-1.1-4.38-2.92-9-.16-.38-.32-.8-.68-1.03-.3-.2-.7-.2-1.07-.17-2.1.14-4.08 1.06-5.97 2l-5 2.41c-.27.13-.55.27-.73.52-.18.27-.21.6-.21.93-.06 3.04 1.14 5.9 1.55 8.9.17 1.25.39 2.64-.4 3.62-1 1.24-2.81 2.44-3.1 4 2.18-1.17 7.65-2 11.19-1.47zM142.53 117.08a30.3 30.3 0 0 0-2.7-3.65c-1.22.8-2.4 1.65-3.54 2.56-1.6 1.27-3.25 3.12-5.37 3.46-1.43.23-3.05.1-4.56-.36a51.86 51.86 0 0 0 4.02 6c3.96-.53 7.38 4.3 6.18 7.77.6.71 1.23 1.4 1.87 2.08a3.31 3.31 0 0 0 2.8 1.02c2.19-.27 4.3-1.16 5.93-2.7.48-.45.89-.95 1.25-1.45a3.5 3.5 0 0 0 .3-3.44 82.75 82.75 0 0 0-6.18-11.29z" fill="#272734" opacity=".25"/><path d="M149.44 76.6c-2.21-3.35-2.98-5.5-4.3-9.3a50.57 50.57 0 0 1-10.55 2.96c-1.57.26-3.18.44-4.76.23-2.17-.29-4.2-1.3-6.4-1.48.11 2.4-5.73 6.68-7.69 7.98 1.57-.09 4.06 4.52 6.88 6.98 5.1 4.47 6.44-.78 11.6-2.05 4.6-1.12 10.37-1.44 12.8 1.84-.27-1.53-.56-3.07-.82-4.58.76 1.64 1.33 2.72 2.08 4.35.07-1.4 3.8-2.94 1.16-6.93z" fill="#565673"/><path d="M149.44 76.6c-2.21-3.35-2.98-5.5-4.3-9.3a50.56 50.56 0 0 1-10.55 2.96c-1.57.26-3.18.44-4.76.23-2.17-.29-4.2-1.3-6.4-1.48.04.8-.58 1.8-1.5 2.83.72 1.37.94 3.23 1.06 4.53.16 1.63.18 3.33-.28 4.93-.2.71-.45 1.35-.82 1.98l.7.67c.85.73 1.58 1.2 2.23 1.48.1-.37.22-.73.34-1.1.43-1.23.84-2.48 1.53-3.57 1.4-2.19 3.66-3.86 6.31-4.06a8.9 8.9 0 0 1 6.87 2.7c.54.51 1.1 1.12 1.6 1.8 2.29.19 4.32.92 5.51 2.54l-.82-4.58c.77 1.64 1.34 2.73 2.09 4.35.1-1.37 3.83-2.92 1.19-6.91z" fill="#272734" opacity=".25"/><path d="M149.44 76.6c-2.21-3.35-2.98-5.5-4.3-9.3a48.9 48.9 0 0 1-6.51 2.12c.44.68.82 1.42 1.17 2.17.9 1.85 1.68 3.78 2.02 5.8.17 1.08.44 2.5.5 3.9 1.95.3 3.65 1.04 4.7 2.47-.27-1.53-.56-3.07-.82-4.58.76 1.64 1.33 2.72 2.08 4.35.07-1.4 3.8-2.94 1.16-6.93z" fill="#272734" opacity=".25"/><path d="M148.76 77.65a9.65 9.65 0 0 1 1.4 2.78c.35-.98.35-2.2-.74-3.83-2.2-3.35-2.97-5.5-4.3-9.3a50.57 50.57 0 0 1-10.55 2.96c-1.57.26-3.17.44-4.76.23-2.17-.29-4.2-1.3-6.4-1.48.1 0-.13.75-.13.8-.11.5-.3.43.08.84 1.93 2.01 2.44 4.5 2.46 4.52.66.71 1.78.73 2.7.41 6-2.06 16.64-2.87 20.24 2.07z" fill="#272734" opacity=".25"/><path d="m145.2 67.44-.05-.16-.73.29c.25-.04.51-.1.78-.13zM123.38 69.47c.95.54 1.77 1.62 2.4 2.25 2.52 2.5 6.44.85 9.2-.4 1.44-.65 3.06-1.47 4.77-2.2-1.7.46-3.42.85-5.17 1.14-1.56.26-3.17.44-4.75.23-2.17-.29-4.2-1.3-6.4-1.48.06 0 0 .25-.05.46z" fill="#272734" opacity=".25"/><path d="M130.69 71.13c3.17-.21 6.25-.8 9.43-.73 2.16.05 4.37.27 6.43.8-.48-1.16-.9-2.4-1.42-3.92a50.58 50.58 0 0 1-10.56 2.96 15.8 15.8 0 0 1-4.76.23c-2.17-.28-4.2-1.3-6.4-1.48.03.25-.03.52-.15.8 1.97 1.46 5.18 1.5 7.42 1.34z" fill="#272734" opacity=".25"/><path d="M119.13 74.46a47.68 47.68 0 0 1-3.39 2.51c.98-.05 2.34 1.73 3.88 3.67.84-2.03.88-4.7-.5-6.18zM134.94 79.8a5.53 5.53 0 0 0-4.93 4.22c1.16-.8 2.47-1.69 4.2-2.12a26.8 26.8 0 0 1 4.81-.74 5.84 5.84 0 0 0-4.08-1.36z" fill="#d9d9d9" opacity=".14"/><path d="M148.74 40.2c-1.23-1.25-4.86-2.07-6.55-2.68-3.19-1.14-5.88-1.23-9.23-.73a8.92 8.92 0 0 0-3.3.98c-.99.59-4.07 1.07-4.68 2.05-3.06 4.91-1.01 11.47-1.15 17.26-.1 3.26-.15 6.52.21 9.76.14 1.2.46 2.56 1.23 3.42h1.58v.32h4.08c2.59-.59 5.1-1.52 7.45-2.76a8.19 8.19 0 0 0 1.9-1.3c1.23-1.23 1.6-3.05 2.21-4.67.66-1.8 1.62-3.47 2.5-5.18a56.07 56.07 0 0 0 3.3-7.95c.45-1.35.86-2.76.81-4.18-.05-1.57.75-3.24-.36-4.35z" fill="#565673"/><path d="M148.74 40.2c-1.19-1.2-4.6-2-6.34-2.6.02.63 0 1.28-.1 1.92-.25 1.4-.84 2.7-1.54 3.95a25.25 25.25 0 0 1-5.32 6.93 22.62 22.62 0 0 1-6.9 4.13c-1.4.53-2.86.98-4.36 1.23l-.35.05c.02.43.02.86 0 1.27-.1 3.26-.14 6.52.21 9.76.14 1.2.46 2.56 1.23 3.42h1.59v.32h4.07c2.59-.59 5.1-1.52 7.45-2.76a8.22 8.22 0 0 0 1.9-1.3c1.23-1.23 1.6-3.05 2.21-4.67.66-1.8 1.62-3.47 2.5-5.18a56.07 56.07 0 0 0 3.3-7.95c.45-1.35.86-2.76.81-4.18-.05-1.57.75-3.24-.36-4.35z" fill="#272734" opacity=".25"/><path d="M132.98 36.8a8.92 8.92 0 0 0-3.31.99c-.36.21-1 .43-1.7.64.36 1.21.6 2.33.42 3.63a12.69 12.69 0 0 1-1.18 3.65 22.97 22.97 0 0 1-2.26 3.83c-.34.45-.66.9-1.01 1.34-.11.14-.25.28-.38.43.16 1.96.36 3.91.3 5.8l-.03 1.5c1.17-3.8 8.08-15.66 16.78-20.55.4-.24.82-.45 1.24-.63-3.04-1.05-5.66-1.1-8.87-.62z" fill="#272734" opacity=".25"/><path d="M149.19 40.92a7.55 7.55 0 0 0-2.7-1.17l-.33-.06c-1.05.56-.2-1.69-1.16-1-2.97 2.14-6.23 17.21-21.19 19.87-.05 2.77-.05 5.55.25 8.3.14 1.2.46 2.56 1.23 3.41h1.58v.33h4.08c2.59-.6 5.1-1.52 7.45-2.77a8.2 8.2 0 0 0 1.9-1.3c1.23-1.22 1.6-3.04 2.21-4.66.66-1.8 1.62-3.47 2.5-5.18a56.06 56.06 0 0 0 3.3-7.95c.45-1.35.86-2.76.8-4.18-.05-1.27.45-2.6.08-3.64z" fill="#272734" opacity=".25"/><path d="M148.74 40.2c-.3-.31-.73-.58-1.22-.83-1.52-.37-2.82-1.67-4.19 1.68-1.21 2.94-1.89 17.17-19.54 18.79-.03 2.33.02 4.68.27 7 .14 1.2.46 2.56 1.23 3.42h1.58v.32h4.08c2.58-.59 5.1-1.52 7.45-2.76a8.21 8.21 0 0 0 1.9-1.3c1.23-1.23 1.6-3.05 2.21-4.67.66-1.8 1.62-3.47 2.5-5.18a56.3 56.3 0 0 0 3.3-7.95c.45-1.35.86-2.76.8-4.18-.06-1.57.74-3.24-.37-4.35z" fill="#272734" opacity=".25"/><path d="M128.39 39.84c.8 1.1 2.44 1.37 3.7 1.33 2.55-.07 4.97-.78 7.43-1.37 2.26-.55 4.79-1.12 7.1-.52.56.15 1.2.36 1.82.66-1.44-1.08-4.66-1.83-6.23-2.4-3.19-1.14-5.88-1.23-9.23-.73a8.92 8.92 0 0 0-3.31.98c-.41.25-1.21.48-2.03.75.25.55.6 1.12.75 1.3z" fill="#272734" opacity=".25"/><path d="M149.19 40.92a7.64 7.64 0 0 0-2.14-1.03c-.4 2.85-1.16 5.6-2.65 8.18a57.67 57.67 0 0 1-6.8 9.13c-2.25 2.55-4.74 5.08-7.8 6.64-1.91.98-3.85 1.47-5.87 1.71l.13 1.3c.14 1.22.46 2.57 1.23 3.42h1.58v.33h4.08c2.58-.6 5.1-1.52 7.45-2.77a8.21 8.21 0 0 0 1.9-1.3c1.23-1.22 1.6-3.04 2.21-4.66.66-1.8 1.62-3.47 2.5-5.18a56.3 56.3 0 0 0 3.3-7.95c.45-1.35.86-2.76.8-4.18-.05-1.27.45-2.6.08-3.64z" fill="#272734" opacity=".25"/><path d="M124.5 43.04c0 .25 0 .52.17.7.16.18.44.21.67.14.23-.07.43-.25.59-.41.6-.62 1.05-1.46.92-2.32-.05-.3-.2-.64-.46-.76-.71-.36-1.69 1.09-1.81 1.67-.06.3-.08.64-.08.98zM135.88 42.31c-.7.68-1.35 1.43-1.92 2.25a3.2 3.2 0 0 0-.64 1.33c.13.07.27.1.41.07.07.15-.04.34-.14.47-.59.67-1.36 1.23-1.75 2.03a.85.85 0 0 0-.1.46c.03.16.17.3.33.27a.46.46 0 0 0 .2-.13 30.74 30.74 0 0 0 4.8-5.5c.31-.45.6-.93.58-1.46a.62.62 0 0 0-.06-.25c-.08-.14-.24-.2-.4-.2-.5-.05-.93.3-1.3.66z" fill="#d9d9d9" opacity=".14"/><path d="M129.44 36.77s2.05 4.99 2.44 5.49-2.55 3.1-2.62 3.04c-.2-.14-1.58-9 .18-8.53z" fill="#272734"/><path d="M129.24 42c.3.05.64-.3.79-.52.23-.36.08-.68-.38-.7-1.25-.07-.64 1.18-.4 1.21z" fill="#454357" opacity=".25"/><path d="M130.97 40.35c-.71-1.58-1.53-3.6-1.53-3.6-.77-.2-.95 1.38-.88 3.23.6.44 1.7.52 2.41.37zM131.88 42.26c-.1-.13-.29-.5-.52-1.02a7.98 7.98 0 0 0-2.5 2.03c.17 1.14.35 2 .4 2.03.09.06 3.03-2.54 2.62-3.04z" fill="#21212b"/><path d="M141.2 36.58a7.47 7.47 0 0 0-3.02.12c-1.24.29-15.03 8.9-14.39 22.67 2.05-7.01 8.4-19.07 17.4-21.62z" fill="#272734"/><path d="M130.97 43.33c.2-.32.45-.7.55-1.07.07-.21.1-.45.1-.68-.86.84-1.74 1.8-2.56 2.83a2.46 2.46 0 0 0 1.91-1.08z" fill="#454357" opacity=".25"/><path d="M125.54 52.78c-.34.25-.68.3-1 .2a19.64 19.64 0 0 0-.75 6.4c.59-2 1.52-4.4 2.74-6.88-.35.02-.69.05-1 .28z" fill="#21212b"/><path d="M127.35 48.87c-.64-.11-1.03.92-1.01 1.46 0 .1 0 .28.05.39l.06-.04c.28-.21.5-.51.7-.8.15-.18.74-.92.2-1.01z" fill="#454357" opacity=".25"/><path d="M138.18 36.7c-.48.1-2.78 1.43-5.4 3.78.63.2 1.27.3 1.93.27.45-.02.84-.15 1.21-.29a15.67 15.67 0 0 1 5.26-2.69V36.6a7.39 7.39 0 0 0-3 .1z" fill="#21212b"/><path d="M143.58 65.1c-9.67 2.27-14.14 2.36-19.63.83l-.62 3.5c4.42 2.91 16.63 1.25 20.13-1.1-.41-1.17.53-2.06.12-3.24z" fill="#272734"/><path d="M125.29 67.26c.26-.2.6-.48.83-.81-.7-.15-1.44-.33-2.19-.54l-.35 2a3.1 3.1 0 0 0 1.7-.65z" fill="#454357" opacity=".25"/><path d="M143.58 65.1c-6.15 1.43-10.19 2-13.73 1.83.23.55 1.33.66 1.78 1.03.2.16.28.52.34.77.12.65.39 1.06 1.01 1.35.45.2.79.46.98.78 3.97-.35 7.8-1.35 9.51-2.5-.43-1.2.52-2.1.1-3.27z" fill="#21212b"/><path d="M146.68 152.47c-.02.16 0 .34.02.4.01.08.05.15.1.2.06.06.13.1.2.08a.69.69 0 0 0 .1-.24c.02-.1.04-.21.02-.32a.55.55 0 0 0-.14-.28c-.02-.02-.03-.04-.07-.04-.16-.05-.21.06-.23.2zM149.63 152.84c.24-.02.47.04.7 0 .35-.03.7-.23.96-.46.13-.13.25-.32.14-.45-.03-.05-.1-.07-.16-.08-.3-.08-.6.1-.89.26-.37.22-.78.38-1.2.32-.22-.03-.44-.12-.67-.12-.23 0-.5.14-.5.37 0 .18.15.32.3.38.17.05.35.01.52-.02.27-.09.54-.18.8-.2z" fill="#565673"/><path d="M123.86 60.21a4.5 4.5 0 0 1-.7 0c-.35-.02-.7-.12-1.04-.21-.54-.14-5.52-2.28-5.52-2.28-.18-.1-.38-.18-.56-.13a.7.7 0 0 0-.26.18c-.24.25-.57.55-.88.7a.14.14 0 0 0-.07.07c-.05.14-.23.25-.35.3-.16.09-.34.18-.48.29.01.2.17.42.48.58-.15.25-.3.63-.24.9.06.19.15.44.36.58 0 0 .02-.02 0 0-.18.27-.3.6-.21.91.07.25.3.48.64.6a.73.73 0 0 0 0 .49c.07.23.27.44.57.58a.87.87 0 0 0 0 .48c.12.45 1.09.93 1.4 1.02.58.16 1.18.1 1.77.02a23.9 23.9 0 0 0 1.57-.27c.32-.07.62-.14.94-.14h.3l2.35-4.69c-.03.02-.05.02-.07.02z" fill="#ed8600"/><path d="M114.46 58.86c-.04.02-.3.12-.25.18l.04.01c.46 0 .89-.44.58-.44-.07 0-.12.09-.17.12-.06.06-.13.1-.2.13z" fill="#e2a040" opacity=".24"/><path d="M116 64.61a.9.9 0 0 1-.08-.64c.02-.05-.16-.21-.18-.23-.09-.14-.16-.3-.21-.46-.07-.18-.06-.4-.16-.57a2.3 2.3 0 0 1-.22-.49 1.81 1.81 0 0 1-.01-.82c.05-.33-.27-.58-.3-.92-.04-.32.12-.64.2-.96-.2.03-.44.09-.63.2l.05.03c-.14.25-.3.62-.23.89.05.2.14.44.35.59 0 0 .02-.02 0 0-.17.26-.3.6-.21.9.07.25.3.49.64.61a.75.75 0 0 0 0 .48c.07.23.27.45.57.59a.88.88 0 0 0 0 .48c.05.2.27.4.52.57l-.1-.25z" fill="#cc5f00" opacity=".1"/><path d="M123.92 60.21h-.06c-.23.02-.46.02-.7 0-.35-.02-.7-.12-1.04-.21-.54-.14-5.52-2.28-5.52-2.28l-.11-.06c.12.5-.21 1.3-.45 1.68.29-.05.43-.21.72-.3.05-.02.42-.02.42.05-.05.34-.28.6-.28.96 0 .29.14.54.1.8-.03.18-.14.34-.14.54-.01.2 0 .4.08.6.08.22.24.43.28.66.04.3-.14.48-.21.75-.15.44.21.57.26.96.04.34-.09.62.1.95l.03.07c.46.07.94.01 1.4-.06a24 24 0 0 0 1.57-.26c.32-.08.62-.15.95-.15h.3z" fill="#cc5f00" opacity=".2"/><path d="M123.86 60.21c-.23.02-.46.02-.7 0-.35-.02-.7-.12-1.04-.21-.1-.02-.34-.13-.68-.25-.5.14-1.09.12-1.6.14-1.09.04-1.14.84-1.68 1.46-.32.38-.7.6-1.1.84.92.96 1.3 2.01 1.16 3.17l.51-.05c.52-.08 1.05-.16 1.57-.27.32-.07.62-.14.95-.14h.3l2.35-4.69h-.04z" fill="#cc5f00" opacity=".2"/><g fill="#cc5f00" opacity=".36"><path d="M115.76 62.7c0-.05-.02-.08-.07-.12-.22.09-.43.1-.66.09l-.06.02.04.02-.02.03.23.07c.15.04.3.06.43-.02.05-.01.1-.03.1-.08zM115.88 60.85a.13.13 0 0 0-.08.04c-.1.07-.18.14-.29.2a.74.74 0 0 1-.34.08c-.09 0-.16-.03-.25-.07-.09-.02-.18-.03-.28-.02-.06 0-.1.02-.15.06l.08.05s.01-.02 0 0l-.02.04c.14 0 .27.01.4.05a.3.3 0 0 0 .13.02l.15-.02c.14-.02.26-.02.4-.05.13-.04.27-.13.3-.25.03-.04 0-.1-.05-.13zM115.56 63.9l.22.1c.07.02.16.04.23-.01.02-.02.05-.06.03-.07 0-.06-.07-.08-.12-.08-.13 0-.23-.05-.36-.07h.02l-.02.13zM117.27 58.79c-.07-.02-.16.01-.23.03-.12.06-.25.1-.36.18-.16.13-.33.27-.53.25a.55.55 0 0 0 .18-.27.24.24 0 0 0 0-.16c-.02-.05-.07-.09-.13-.07a.7.7 0 0 1-.12.34c-.1.14-.3.2-.5.23-.28.04-.59.04-.87.14-.13.06-.25.13-.36.22.04.02.07.03.1.07 0 .03-.03.07-.05.1.15-.1.3-.17.47-.23.21-.09.43-.16.66-.17.14 0 .3.03.44 0 .23-.04.41-.22.64-.25.2-.04.43.03.63-.04.1-.03.2-.12.17-.23a.14.14 0 0 0-.14-.14z" opacity=".36"/><path d="M117.29 58.75c-.07-.02-.16-.02-.21-.02-.11 0-.23.04-.34.02-.1-.02-.18-.07-.27-.1-.21-.11-.44-.22-.68-.15-.37.1-.55.52-.89.64a.64.64 0 0 1-.17.04c-.1.02-.2.03-.27.09-.07.05-.14.14-.14.23s.07.2.16.23c.07.04.16 0 .21-.03.07-.04.13-.08.21-.11.22-.1.43-.16.66-.18.15 0 .3.04.45 0 .23-.04.4-.21.64-.25.2-.03.43.04.62-.03.13-.04.22-.17.16-.29a.39.39 0 0 0-.14-.09z" opacity=".36"/><path d="M117.27 58.79c-.07-.02-.16.01-.23.03-.12.06-.25.1-.36.18-.16.13-.33.27-.53.25a.55.55 0 0 0 .18-.27.24.24 0 0 0 0-.16c-.02-.05-.07-.09-.13-.07a.7.7 0 0 1-.12.34c-.1.14-.3.2-.5.23-.28.04-.59.04-.87.14-.13.06-.25.13-.36.22.04.02.07.03.1.07 0 .03-.03.07-.05.1.15-.1.3-.17.47-.23.21-.09.43-.16.66-.17.14 0 .3.03.44 0 .23-.04.41-.22.64-.25.2-.04.43.03.63-.04.1-.03.2-.12.17-.23a.14.14 0 0 0-.14-.14z" opacity=".36"/></g><path d="M114.81 58.96c.1-.05.18-.12.18-.2-.07.06-.14.13-.23.19-.12.07-.27.12-.4.16l-.2.05c.23.02.46-.09.66-.2z" fill="#cc5f00"/><path d="M116.42 63.6c.05.03.1.07.16.07.07 0 .14-.06.2-.13a.39.39 0 0 0 .05-.09c.02-.05-.02-.1-.04-.16-.14-.28-.6-.09-.48.18 0 .07.06.1.1.13zM116.69 64.88c.03.02.07.05.1.05.06 0 .1-.03.16-.07l.04-.05c.02-.04 0-.07-.02-.11-.09-.21-.43-.1-.36.1.02.02.06.04.08.08zM116.22 62.14c.05.03.13.07.18.08.07 0 .14-.05.2-.12l.03-.04c.02-.03.02-.07.02-.09-.07-.39-.59-.24-.54.04.02.05.06.1.11.13zM116.22 60.21c.05.04.13.07.18.1.07 0 .14-.06.2-.13l.03-.04c.02-.04.02-.07.02-.09-.07-.39-.59-.25-.54.04.02.05.08.1.11.12z" fill="#e2a040" opacity=".24"/><path d="M146.78 39.1c-5.4-1.5-4.2 13.08-7.19 20.24-.7-.29-7.04.21-7.29.23l-1.46.13c-.78 2.2-.16 5.32 1.1 7.83l.13.06c2.73 1.01 5.53 2.03 8.43 2.22 1.35.09 2.9-.21 4.2-1.14 3.44-2.26 4.99-8.3 5.95-13.94 1.26-7.29 1-14.25-3.86-15.62z" fill="#454358"/><path d="M146.78 39.1a2.35 2.35 0 0 0-1.53.04c.23.29.45.63.63 1a22.1 22.1 0 0 1 .77 15.17c-.97 2.89-2.9 6.4-5.92 7.54-1.57.59-3.31.59-4.56-.66-.8-.8-1.58-1.75-2.14-2.76-.92.05-1.62.12-1.7.12l-1.47.13c-.78 2.2-.16 5.32 1.1 7.83l.13.06c2.73 1.01 5.52 2.03 8.43 2.22 1.35.1 2.9-.21 4.2-1.14 3.44-2.26 4.99-8.3 5.95-13.94 1.24-7.27.98-14.23-3.89-15.6z" fill="#272734" opacity=".25"/><path d="M147.05 39.2a7.6 7.6 0 0 1 1.94 2.72c2.05 4.52 1.27 10.47-.58 14.9-.82 1.95-1.96 4.07-3.51 5.51-1.57 1.46-3.24 1.85-5.33 1.96-2.94.14-6.32.12-8.97-1.26.17 1.51.67 3.11 1.39 4.5l.12.06c2.72 1.01 5.52 2.03 8.42 2.22 1.36.09 2.9-.21 4.2-1.14 3.44-2.26 5-8.3 5.96-13.94 1.2-7.15.98-13.98-3.64-15.53z" fill="#272734" opacity=".25"/><path d="M131.29 65.95c.2.53.43 1.07.68 1.56l.12.06c2.73 1.01 5.52 2.03 8.43 2.22 1.35.1 2.9-.21 4.2-1.14 2.19-1.44 3.61-4.41 4.61-7.83-3.7 7.9-12.72 7.51-18.04 5.13z" fill="#272734" opacity=".25"/><path d="M136.6 68.08a19.78 19.78 0 0 1-2.67-8.63c-.9.05-1.54.1-1.62.12l-1.46.13c-.79 2.2-.17 5.32 1.1 7.83l.12.06c1.77.65 3.57 1.31 5.4 1.76-.3-.4-.6-.82-.87-1.27z" fill="#272734" opacity=".25"/><path d="M141.39 51.91c.37.57.94.95 1.6.3.4-.4.71-.85 1-1.33 1.48-2.5 2.28-5 2.35-7.94.04-1.25-.1-3.01-1.58-3.44l-.08-.02c-2 1.66-2.47 7.16-3.3 12.43zM136.58 60.16c.4.05.85-.06 1.16-.32.2-.18.32-.38.4-.59-.65 0-1.45.04-2.25.09-.18.43.26.75.69.82z" fill="#d9d9d9" opacity=".08"/><path d="M140.76 61.69c.65-.53.7-1.02.2-1.44a6.96 6.96 0 0 0-1.28-1.18l-.09.25c-.07-.02-.18-.05-.34-.05.18.76.27 1.55.45 2.31.12.52.23 1.25.66 1.6.37.04.53-.1.48-.4a1 1 0 0 0-.34-.72c-.2-.17.05-.53.26-.37z" fill="#272734" opacity=".25"/><path d="M132.91 59.2a48.27 48.27 0 0 0-10.3.48c-1.2.16-1.26-.04-1.9.25-1.96.9-2.51 2.7-3.33 3.52 1.16-.05 1.16 3.44 5.77 1.27 2.14 1.17 7.52 3.22 9.62 3.9.34 0 .64-2.1.67-4.7.06-2.62-.2-4.72-.53-4.72z" fill="#565673"/><path d="M133.34 62.24c-1.21.4-2.46.75-3.74.68-2.18-.13-4.62-1.28-5.33-3.46l-1.51.18a4.6 4.6 0 0 1-.27 1.71c-.39.86-1.1 1.53-1.87 2.05-.59.4-1.32.8-2.06 1 .69.82 1.78 1.64 4.63.28 2.13 1.18 7.51 3.23 9.61 3.9.34 0 .64-2.1.68-4.7 0-.6 0-1.17-.02-1.7-.05.04-.09.04-.12.06z" fill="#272734" opacity=".25"/><path d="M120.28 61.39c.43-.41.75-1 .9-1.62-.13.01-.27.07-.45.14a6.16 6.16 0 0 0-2.58 2.51c.76.1 1.62-.53 2.13-1.03z" fill="#a6a6a6" opacity=".14"/><path d="M132.02 64.98c-1.3-.14-2.46-.48-3.72-.78-.9-.21-2.03.04-2.83-.5-.77-.5-.77-1.8-1.04-2.56-.16-.43-.33-1-.7-1.32-.58-.1-.85.07-.77.52l.01.21c.04.57.07 1.14.04 1.71-.05.52-.3 1.53-.96 1.59-.68.07-.64.62-1 1.01-.2.21-.41.41-.68.53.68.06 1.59-.12 2.8-.69 2.14 1.18 7.51 3.22 9.62 3.9.28 0 .53-1.46.64-3.47-.5-.02-1-.1-1.41-.15z" fill="#272734" opacity=".25"/><path d="M131.6 59.1c-1.68-.05-3.93 0-6.81.31 1.6 1.28 4.33 1.6 6.8-.3z" fill="#a6a6a6" opacity=".14"/><path d="m130.24 65.64-.05-.01c-4.74-2.02-6.84-5.04-6.86-5.08-.04-.05-.02-.14.03-.18.06-.03.15-.02.18.04.02.03 2.09 3 6.75 4.98.07.04.1.11.07.16-.03.06-.09.1-.12.1z" fill="#272734"/><path d="M123.47 63.67c-.05 0-.12-.06-.12-.11 0-.07.03-.12.1-.14.04 0 4.26-.57 6.79-3.26.05-.06.12-.06.18 0 .05.05.05.12 0 .18-2.6 2.74-6.9 3.3-6.95 3.33z" fill="#272734"/><path d="M119.41 68.32c-.05-.57-.28-1.8-.48-2.71h-1.03c.17.84.46 2.22.51 2.78.22 2.58-.28 5.84-2.33 7.23-1.44.98-3.42.83-5.88-.4-.89-.44-1.64-.87-2.28-1.28a59.37 59.37 0 0 1 3.6-7.94c1.83-3.15 2.23-4.67 2.73-5.34-.02-.64.42-.9.96-1.18-1.77-1.98-4.1 5.2-4.9 6.68-2.51 4.6-4.92 11.7-6.57 16.58-15.12 44.39-35.04 52.68-50.33 58.53-.27.1-.4.39-.29.64.07.2.27.32.46.32.06 0 .13-.02.18-.04 9.05-3.45 16.94-6.84 25.8-15.15 10.32-9.71 18.51-24.58 25.12-44 .59-1.72 2.32-6.7 2.87-8.15.64.4 1.37.82 2.2 1.23 3.52 1.74 5.69 1.14 6.9.32 2.4-1.62 3-5.26 2.76-8.12z" fill="#575770"/><path d="M114.23 60.67c-.02-.64.42-.9.96-1.19-.4-.44-.82-.43-1.25-.1.22.39.3.83.29 1.3z" fill="#272734" opacity=".25"/><path d="M113.8 60.09c.28-.2.34-.5.28-.8-.3.17-.6.5-.9.9.21.06.44.02.62-.1zM114.5 76.58c1-.21 1.95-.57 2.28-1.55-.22.23-.45.43-.7.6-1.4.95-3.31.86-5.68-.28.8 1.12 2.9 1.48 4.1 1.23z" fill="#a6a6a6" opacity=".14"/><path d="m118.86 65.29-.1.02c-.31.03-.61.07-.9.07.18.78.52 2.4.57 3 .16 1.9-.07 4.14-1 5.74-.05.62-.2 1.25-.55 1.78-.57.88-2.03 1.18-3 1.21-1.49.04-3.62-.58-4.16-2.13-.68-.36-1.28-.7-1.8-1.05a63.22 63.22 0 0 1 3.35-7.5 3.7 3.7 0 0 1-1.66 1.05c-.8 1.62-5.23 13.4-5.87 15.23-15.12 44.42-35.04 52.71-50.33 58.56-.27.1-.4.39-.29.64.07.2.27.32.46.32.06 0 .13-.02.18-.04 9.05-3.45 16.94-6.84 25.8-15.15 10.32-9.71 18.51-24.58 25.12-44 .59-1.72 2.32-6.7 2.87-8.15.64.4 1.37.82 2.2 1.23 3.52 1.74 5.69 1.14 6.9.32 2.4-1.62 3.01-5.28 2.78-8.14-.07-.63-.38-2.1-.57-3.01z" fill="#575770"/><path d="m108.26 70.4-.27.62c.47-.2.93-.4 1.38-.66.1-.23.2-.44.28-.66-.45.27-.89.52-1.39.7z" fill="#272734" opacity=".25"/><path d="M107.16 75.94c-.16.03-.36-.07-.29-.29.14-.39.16-.8.3-1.17.11-.25.2-.5.27-.77-.78-.4-.12-.44-.87.9-.02.01-.02.05-.04.08-.4 1.1-1.14 3.15-1.78 4.99l-.05.18-1 2.88-.36 1.05c-3.54 10.24-7.35 18.53-11.3 25.28.1.6.23 1.22.25 1.67 4.64-7.8 8.74-17.06 12.36-27.7l.55-1.62c.7-1.88 1.65-4.6 1.96-5.48z" fill="#575770"/><path d="m57.8 140.63.1-1.13c-1.54.63-3.03 1.21-4.5 1.77-.26.1-.39.39-.28.64.07.2.27.32.46.32.06 0 .13-.02.18-.04 1.37-.51 2.7-1.03 4.04-1.57z" fill="#565672" opacity=".31"/><path d="m80.74 125.88.6-.59c.12-.12.22-.25.35-.37.18-.18.34-.36.51-.56l.38-.4.48-.54c.12-.14.27-.28.4-.45l.45-.51.41-.46c.15-.16.29-.34.43-.52.32-.37.64-.77.95-1.16l.23-.28.51-.66.29-.38.51-.67a121.14 121.14 0 0 0 .79-1.09c.09-.1.16-.23.25-.34l.53-.76.2-.29.59-.85c.01-.02.03-.04.03-.07.71-1.06 1.4-2.14 2.09-3.26.05-.34 0-1.2-.06-2a85.86 85.86 0 0 1-7.16 10.37l-.73.89-.59.7c-.01.03-.05.05-.07.08-.8.94-1.62 1.84-2.42 2.67l-.05.06c-.82.83-1.62 1.63-2.44 2.4l-.07.07-.6.55c-.6.56-1.2 1.07-1.8 1.59l-.12.09c-.17.16-.37.3-.55.44l-.1.1-1.7 1.31c-.05.04-.1.09-.17.12-.16.13-.32.25-.5.36l-.22.14c-.51.38-1.03.73-1.55 1.09-.09.05-.17.1-.25.18-.14.09-.28.2-.42.28l-.3.2-.42.27-.35.23c-.22.12-.41.25-.62.39a4.2 4.2 0 0 0-.38.23l-.36.21-.37.22c-.1.07-.23.12-.34.2l-.46.26-.4.21c-.15.1-.33.18-.5.29l-.3.16-.42.21-.3.16c-.16.1-.32.16-.49.25-.07.04-.16.07-.23.13l-.12 1.2.94-.47.06-.02c.96-.48 1.9-1 2.86-1.55l.07-.04a20.98 20.98 0 0 0 1.02-.58l.8-.48.14-.1c.63-.38 1.25-.8 1.87-1.2.04-.04.1-.06.13-.1.27-.17.52-.35.78-.53.1-.05.16-.1.25-.17l.68-.5c.09-.07.18-.13.25-.2l.75-.55.17-.14c.3-.24.63-.48.93-.73l.14-.11c.25-.21.52-.41.77-.64.1-.1.2-.16.3-.25.21-.18.43-.36.62-.54.11-.08.22-.2.33-.28.2-.2.42-.37.64-.57l.28-.27.93-.85a24.45 24.45 0 0 0 1.24-1.23z" fill="#272734" opacity=".25"/><path d="M69.2 135.01a62.08 62.08 0 0 0 6.13-4.29l.12-1.44a57.59 57.59 0 0 1-6.02 4.38l-.23 1.35zM109.03 74.62c-.41-.23-.79-.45-1.13-.68v-.01s-.01 0-.01-.02c-.11.26-.22.53-.3.82-.02.05-.04.1-.04.16.46.3.98.59 1.53.89-.1-.4-.14-.82-.05-1.16zM118 75.07c1.27-1.86 1.59-4.55 1.41-6.75-.05-.57-.36-2.12-.55-3.03l-.68.07c.23.85.5 2.51.54 3.03a20 20 0 0 1-.06 3.99 11 11 0 0 1-.66 2.69z" fill="#272734" opacity=".25"/><path d="M117.42 74.12c-.06.62-.2 1.25-.56 1.78-.57.88-2.03 1.18-2.99 1.21a24.9 24.9 0 0 1-3.69-.78c3.25 1.48 5.3.89 6.45.1.1-.06.22-.15.3-.22a10.9 10.9 0 0 0 1.3-4.26l.02-.23a7.43 7.43 0 0 1-.83 2.4zM118.86 65.29l-.1.02c-.31.03-.61.07-.9.07.16.7.48 2.22.54 2.76.07.01.14.05.2.07.3.12.58.3.85.51l-.02-.4a42.9 42.9 0 0 0-.57-3.03z" fill="#272734" opacity=".25"/><path d="M118.08 65.38h-.22v.01l.38 1.79c.32-.02.73-.06 1.01-.02-.1-.64-.27-1.36-.37-1.87l-.11.02-.3.03c-.15.02-.27.04-.4.04z" fill="#272734" opacity=".25"/><path d="m103.72 82.74-.62 1.78-.38 1.07-.18.5c-5.78 16.07-12.23 27.1-18.82 34.94 5.43-3.18 11.65-15.83 15.85-26.18 3.87-9.5 7.96-22.2 8.53-24.04l-.18.43-.1.26a60 60 0 0 0-.16.38c-.06.12-.11.26-.16.4-.04.11-.1.2-.13.31-1.1 2.78-2.69 7.34-3.65 10.15z" fill="#a6a6a6" opacity=".14"/><path d="M127.09 29.77c.25-1.06-.08-4.06-.08-4.06l1.25-1.14s2.5 11.46 3.17 11.94c.46.3.98.64 1.1 1.17-.4.1-.8-.12-1.19-.25-.55-.16-1.14-.16-1.69-.34-1.89-.66-2.97-5.5-2.56-7.32z" fill="#2f2d46"/><path d="M129.74 36.49a11.8 11.8 0 0 1-1.9-3.26 9.15 9.15 0 0 1-.65-4.08c.08-1.34.4-2.6.34-3.92l-.52.48s.3 3 .08 4.06c-.41 1.82.67 6.66 2.58 7.29.3.09.6.14.9.18-.3-.22-.58-.47-.83-.75z" fill="#454358"/><path d="M132.93 35.56c-4.47.2-5.5-5.66-5.45-6.64.02-.41.1-.82.12-1.23.04-.77-.17-1.51-.17-2.26.05-5.74 9.11-3.8 10.36 1.51.75 3.15-1.4 8.46-4.86 8.62z" fill="#ed8600"/><path d="M127.78 25.66c.23-.55.52-1.12 1.02-1.46.25-.18.55-.29.85-.36.32-.07.66-.12.98-.16 1.25-.09 2.6.1 3.63.84a4.94 4.94 0 0 1 1.78 2.67 6.38 6.38 0 0 1 .06 3.33 8.06 8.06 0 0 1-1.84 3.6c-.23.25-.46.46-.7.7-.26.23-.53.44-.81.64l-.13.08c-4.23-.05-5.21-5.68-5.18-6.64.02-.4.1-.82.13-1.23.01-.43-.06-.85-.11-1.28.13-.23.23-.48.32-.73z" fill="#ed8600"/><path d="M134.01 34.44a7.63 7.63 0 0 0 2-3.44c.16-.57-.23-1.44-.23-2.05.02-5.53-6.3-8.01-8.28-2.6-.04-.32-.08-.62-.08-.94.06-5.73 9.12-3.8 10.37 1.51.75 3.16-1.4 8.48-4.86 8.62h-.25c.48-.32.9-.7 1.33-1.1z" fill="#cc5f00" opacity=".36"/><path d="M131.75 26.94c.36-1.14 1.41-1.51 2-1.3.05.02.1.06.12.1.1.44-1.83.86-1.67 1.56.21.85 2.22.16 4.8.98.18.05-.17.1-.03.23.05.05.1.12.1.2 0 .1-.1.2-.17.28-.21.18-.46.23-.73.23-.13 0-.25 0-.37-.02l-.43-.01c-.63-.04-1.25-.13-1.89-.08-.46.04-.96.04-1.37-.2-.86-.53-.6-1.17-.36-1.97zM131.49 21.95c-.27.08-.54.18-.8.29-.24.1-.47.18-.68.3-.25.13-.5.27-.73.45-.38.3-.68.67-.95 1.08-.14.22-.26.43-.37.66-.09.2-.16.43-.13.66.02.14.06.29.04.43-.02.14-.05.28-.05.43l.03.39c.02.13.06.25.1.37.06.25.13.48.28.7.12.2.3.34.44.53.07.1.13.18.16.3.04.13.06.27.04.41 0 .29-.06.56-.13.82-.16.57-.46 1.1-.82 1.59a7.87 7.87 0 0 1-.46-2.42c.02-.41.1-.82.13-1.23.03-.77-.18-1.52-.18-2.26.03-2.62 1.92-3.66 4.08-3.5z" fill="#cc5f00" opacity=".36"/><g fill="#e2a040" opacity=".36"><path d="M128.46 27.85c-.1-.05-.16-.2-.1-.3.1-.2.4.03.42.18.03.16-.22.17-.32.12zM135.23 27.64c-.06.03-.11.03-.16.03a.16.16 0 0 1-.15-.07c-.05-.07 0-.18.07-.23.13-.1.3-.04.32.03.04.08-.01.18-.08.24zM128.69 26.6c-.02.1-.16.1-.23.07s-.22-.08-.2-.2c.04-.13.48-.03.43.13zM133.48 26.8a.44.44 0 0 1-.25.14c-.03 0-.09 0-.1-.05-.02-.06 0-.1.03-.13.05-.03.21-.23.32-.1.05.03.04.1 0 .14zM128.85 24.32c.1-.07.25-.09.37-.09.27.02.56.11.63.4.01.09.01.17-.06.25-.09.07-.21.07-.32.03-.14-.03-.9-.37-.62-.59z" opacity=".36"/></g><path d="M128.53 27.94c.25-.04.5-.04.75-.05a5.24 5.24 0 0 1 1.76.28c.1.14.16.34.18.52.03.21.05.42.05.66 0 .21 0 .42-.03.62l-.02.1c-.66-.14-1.32-.3-1.96-.51-.6-.2-1.23-.45-1.78-.77.02-.17.03-.35.07-.53.3-.16.64-.27.98-.32z" fill="#cc5f00" opacity=".36"/><path d="M127.48 28.92v-.1c.78.42 1.65.74 2.51.97 1.01.29 2.07.46 3.1.64.64.11 1.28.2 1.92.25l1 .06h.4a.6.6 0 0 1 .19.01c.01 0 .03 0 .05.02l-.04.02c-.02 0 0 .02.02.02l.04-.02c.02 0 .02.02.02.02l.01-.02-.01-.02c.01-.02.05-.03.07-.05v.03c0 .02.01.02.01 0v-.03c.02 0 0-.02 0-.02.06-1.03-.07-2.08-.32-3.08-.07-.27-.14-.54-.25-.78a6.34 6.34 0 0 0-1.34-1.89c-.17-.2-.36-.38-.56-.54a5.11 5.11 0 0 0-2-1.12c-.5-.14-1-.21-1.5-.21-.28 0-.54-.02-.81.03-.27.04-.54.13-.78.23-.24.11-.49.24-.72.32-.16.08-.32.13-.48.2-.14.05-.28.13-.4.21 1.42-3.95 8.99-1.92 10.13 2.9.75 3.16-1.41 8.49-4.86 8.63-4.44.16-5.45-5.7-5.4-6.68z" fill="#cc5f00" opacity=".36"/><path d="M128.39 25.8c.18-.09.37-.12.57-.14l.53-.07a1 1 0 0 1 .46.02c.11.05.2.14.29.23.59.75.64 1.87.1 2.67-.39.05-.8.05-1.19.05.25-.5.4-1.05.43-1.6.02-.18 0-.36-.07-.52a.81.81 0 0 0-.43-.34c-.18-.07-.36-.1-.53-.16-.1-.01-.18-.07-.16-.14z" fill="#cc5f00" opacity=".36"/><path d="M137.5 28.33s-3.86-.4-6.17-.4c-.43 0-1.2 0-1.45.03-1.65.23-2.53.87-2.53.87s.97 7.8 4.46 8.09c2.6.2 4.48-.34 5.41-2.53.9-2.2 1.28-4.14.29-6.06z" fill="#2f2d46"/><path d="M130.6 28.54c.05.43.44.56.74.24.23-.24.36-.52.45-.84h-1.2c-.01.2-.03.4 0 .6z" fill="#454358"/><path d="M137.5 28.33s-2.68-.28-4.93-.37c.02 0 1.07 1.69 1.05 1.83-.02.22-.18.4-.35.5-.34.2-1.1.25-1.3.84-.29.78.74 1.44.74 2.03 0 .48-.74 1.3-1.39 1.32-1.5.03-3.54-4.31-3.72-4.76-.16.29.15.93.23 1.23.61 2.01 1.25 5.75 3.96 5.97 2.6.2 4.49-.34 5.41-2.53.93-2.2 1.3-4.14.3-6.06z" fill="#272734"/><path d="M128.64 29.58c.62-.04 1.05-.86 1.15-1.4l.04-.22a6.9 6.9 0 0 0-1.96.57c.2.5.44 1.07.77 1.05z" fill="#454358"/><path d="M136.3 28.87c.08-.2.14-.41.15-.63h.1a1.7 1.7 0 0 1-.26.63z" fill="#2f2d46"/><path d="M127.46 28.74c.04.23.07.45.13.66.12.53.3 1.07.5 1.57.01.03.01.07.03.09.07.33.2.67.32 1 .18.46.43.88.59 1.35.09.23.16.46.25.67.09.2.17.4.32.56.3.32.73.5 1.16.62.2.05.42.09.65.1.24.02.45.02.68-.05.25-.07.5-.2.73-.32l.38-.18c.1-.05.23-.09.33-.16.45-.21.84-.51 1.18-.87.36-.36.68-.76.94-1.21.13-.21.25-.43.36-.66.1-.23.18-.46.27-.7a11 11 0 0 0 .42-1.67c.07-.44.11-.89.1-1.33.42.03.69.07.69.07 1 1.92.62 3.86-.3 6.05-.93 2.2-2.8 2.75-5.42 2.53-3.49-.28-4.45-8.08-4.45-8.08s.07.01.14-.04z" fill="#21212b"/><path d="M132.2 38.27c-.18-.02-.5.18-.66.07-.34-.23-2.08-.82-2.16-1.25 6.52-.35 9.71-8.47 5.95-12.48-1.4-1.5-5.04-3.22-7.1-.46a4.8 4.8 0 0 0-.88 3.15 4.04 4.04 0 0 1-.35-1.85 6.86 6.86 0 0 1 .28-2.84c.29-.7.79-1.3 1.29-1.88.42-.5.85-1 1.35-1.41a6.34 6.34 0 0 1 7.21-.52 6.83 6.83 0 0 1 3.01 4.5c.29 1.49.1 3.05.45 4.53.34 1.5 1.23 2.98.9 4.5-.07.33-.44.93-.64 1.42-.39 1-.76 2.52-1.37 2.9-.9.55-2.08 1.2-3.11 1.44-1.3.32-2.84.32-4.17.18z" fill="#454358"/><path d="M140.62 27.83c-.34-1.48-.16-3.04-.44-4.54a7.13 7.13 0 0 0-1.55-3.24c-.38 1.73-2.01 3.2-3.56 4.26l.3.28c.66.7 1.1 1.53 1.35 2.42.91.41 1.09 1.18 1.43 2.05.7 1.73 0 3.6-.68 5.11-.6 1.36-1.48 2.92-3.17 3.01-.78.04-1.6-.25-2.3-.71-.78.34-1.65.55-2.58.6.07.43 1.82 1.04 2.16 1.25.16.11.46-.09.65-.07 1.34.13 2.89.14 4.19-.18 1.03-.25 2.2-.89 3.12-1.44.62-.37.98-1.89 1.37-2.9.2-.5.57-1.09.64-1.43.28-1.5-.59-2.95-.93-4.47z" fill="#272734" opacity=".25"/><path d="M139.98 35.01c-1 .9-2.08 1.78-3.36 2.24-1.54.56-2.89.5-4.5.34-.72-.07-1.63.04-2.42-.14.54.36 1.57.73 1.82.9.16.1.46-.1.66-.08 1.34.12 2.89.14 4.19-.18a12.1 12.1 0 0 0 3.11-1.44c.48-.29.82-1.3 1.14-2.21l-.64.57z" fill="#2f2d46"/><path d="M132.66 36.15c.79.23 1.66.18 2.28-.2 1.1-.67 1.46-1.62 1.89-2.77.48-1.3.96-2.6.14-3.9l-.03-.06a8.5 8.5 0 0 1-4.28 6.93zM130.74 19.98c1.24-.45 3.47-.1 4.15-1.5.09-.18.12-.34.14-.48a6.34 6.34 0 0 0-5.08 1.3c-.5.43-.92.91-1.35 1.4l-.32.38c.84-.3 1.67-.82 2.46-1.1z" fill="#565672"/><path d="M140.62 27.83c-.32-1.37-.2-2.8-.39-4.18-.03.18-.05.35-.1.53-.47 1.75-1.22 3.12-1.2 4.99.04 3.26-.8 6.37-3.67 8.32-.4.28-.87.57-1.35.85.84 0 1.69-.07 2.47-.27 1.04-.25 2.21-.89 3.12-1.44.62-.37.98-1.89 1.37-2.9.2-.5.57-1.09.64-1.43.32-1.5-.55-2.95-.89-4.47z" fill="#2f2d46" opacity=".32"/><path d="M132.57 26.4c.84.03 1.16-.99 2.57-.94l.07.02c.03 0 .03-.05 0-.05l-.04-.02h-.03a4.16 4.16 0 0 0-2.82.43c-.26.2-.03.55.25.57zM130.22 25.78c-.12-.1-1.1-.6-2.4-.23h-.04s-.02 0-.02.02c-.03.02-.03.07 0 .07l.06-.02c1.19-.14 1.5.84 2.2.77.24-.04.43-.41.2-.6z" fill="#2f2d46"/><path d="M130.84 22.13a5.65 5.65 0 0 1 1.35-2.51c.33-.35.65-.71 1.06-.98.34-.23.76-.46 1.2-.43.12.02.12.2 0 .2-.4-.03-.8.2-1.11.41-.4.25-.7.62-1.02.94-.35.38-.66.77-.8 1.14-.16.43-.37.86-.5 1.3-.03.11-.21.06-.18-.07z" fill="#272734" opacity=".25"/><path d="M132.91 27.42c.02 0 .04 0 .05-.02.6-.51 1-.5 1.4-.48.35.02.69.04 1.08-.35a.09.09 0 0 0 0-.13.09.09 0 0 0-.13 0c-.32.32-.6.3-.94.3a1.86 1.86 0 0 0-1.51.52.11.11 0 0 0-.02.13c.02.03.03.03.07.03zM128.3 26.9c0 .04-.02.1 0 .15 0 .27.12.48.26.48.15 0 .27-.21.27-.5 0-.05 0-.09-.02-.14z" fill="#2f2d46"/><path d="M133.23 27.03c0 .04-.1.04-.1.09 0 .27.12.48.26.48s.27-.21.27-.5c0-.05 0-.09-.02-.14zM130.22 27.48c-.02 0-.03 0-.05-.02-.52-.5-.86-.46-1.2-.43-.3.02-.58.05-.92-.32a.09.09 0 0 1 0-.12c.03-.04.07-.04.1 0 .29.3.52.28.8.26.36-.03.76-.07 1.3.48a.1.1 0 0 1 .03.13l-.06.02z" fill="#2f2d46"/><path d="M141.05 36.8c-.1.37-.32.67-.52.99-.21.32-.44.66-.74.89-.32.25-.7.4-1.1.52-.9.28-1.86.48-2.82.57-.87.07-1.75.07-2.6.2-.66.12-1.3.31-1.96.28a4.92 4.92 0 0 1-1.32-.32c-.7-.25-1.37-.6-1.87-1.13s-.77-1.3-.53-1.97c.05-.16.17-.34.35-.34.1 0 .2.09.29.16a8.2 8.2 0 0 0 4.86 2.15c.44.02.9 0 1.35-.03.34-.02.68-.04 1.02-.13.46-.1.87-.34 1.32-.48.46-.14.94-.2 1.4-.37a5.32 5.32 0 0 0 2.05-1.78c.23-.29.29-.59.45-.86.42.4.53 1.12.37 1.66z" fill="#5ca24b"/><path d="M127.57 36.83c.05-.16.17-.34.35-.34.11 0 .2.09.29.16a8.2 8.2 0 0 0 4.86 2.15 11.43 11.43 0 0 0 2.37-.16c.32-.09.62-.21.94-.33-.25.46-.34 1 .02 1.4l-.53.06c-.88.07-1.75.07-2.6.2-.66.12-1.3.31-1.96.28a4.92 4.92 0 0 1-1.32-.32 4.66 4.66 0 0 1-1.87-1.13c-.5-.51-.77-1.3-.55-1.97z" fill="#398139" opacity=".37"/><path d="M127.57 36.83c.05-.16.18-.34.35-.34.11 0 .2.09.29.16a8.2 8.2 0 0 0 4.86 2.15 11.45 11.45 0 0 0 2.37-.16c.46-.1.87-.34 1.32-.48.46-.14.94-.2 1.4-.37a5.33 5.33 0 0 0 2.05-1.78c.23-.29.29-.59.45-.86.05.06.1.13.16.18-.07.46-.4.9-.57 1.3-.23.52-.38 1.09-.77 1.53-.37.41-.83.63-1.39.71-.26.06-.55.06-.82.11s-.51.13-.78.16c-.28.06-.57.07-.85.1-.29.06-.57.12-.86.15-.27.04-.53.07-.78.14a6.3 6.3 0 0 1-2.53.21c-.29-.03-.57-.12-.87-.19-.13-.02-.27-.03-.4-.07-.1-.02-.21-.07-.32-.09-.2-.02-.37.1-.5.25-.48-.21-.9-.5-1.26-.87a1.98 1.98 0 0 1-.55-1.94z" fill="#398139"/><path d="M139.6 37.27c-.08.27-.17.54-.37.75a1.8 1.8 0 0 1-.85.45c-.62.16-1.3.2-1.94.28a5.5 5.5 0 0 1-1.62-.02c.21-.02.42-.05.62-.09.46-.1.87-.33 1.32-.48.46-.14.94-.2 1.4-.37a4.37 4.37 0 0 0 1.73-1.4l-.28.88zM133.68 39.18c-.38.16-.79.18-1.18.18-.4-.02-.82-.02-1.23-.1-.36-.05-.73-.12-1.09-.15-.37-.04-.74-.07-1.08-.22a2.78 2.78 0 0 1-.8-.46c-.27-.23-.34-.57-.41-.9-.06-.33-.02-.69-.07-1 .03-.02.07-.02.1-.02.11 0 .2.09.29.16a8.2 8.2 0 0 0 4.86 2.15c.41.02.84 0 1.25-.02-.2.13-.41.27-.64.38z" fill="#275c26"/><path d="M127.62 35.63v-.05c.02.04.05.05.09.09.3.28.68.52 1.03.73.2.1.38.23.57.34l.23.12c.54.38 1.16.6 1.79.79.08.01.17.05.26.07 2.25.5 4.65 0 5-.07a4.78 4.78 0 0 0 2.8-1.34c.11-.05.22-.12.3-.21.17-.16.3-.34.43-.52.16-.21.27-.46.38-.7.14-.35.25-.74.37-1.1.3 1.09-.16 4.19-5.11 5.3-3.67.8-7.66-.37-8.26-3.41z" fill="#5ca24b"/><path d="M127.62 35.67v-.1l.09.08c.3.29.68.52 1.03.73.2.1.38.23.57.34l.23.12c.54.38 1.16.61 1.78.79l.27.07c2.25.5 4.65 0 5-.07a4.77 4.77 0 0 0 2.8-1.34c.11-.05.22-.12.3-.21.17-.16.3-.34.43-.52.16-.21.27-.46.38-.7.14-.35.25-.74.37-1.1.3 1.09-.16 4.19-5.11 5.3-3.65.8-7.62-.35-8.25-3.37z" fill="#5ca24b"/><path d="M139.64 36.9v.05c-.01.04-.05.05-.09.07l-.07.02c-.01 0-.05 0-.07-.04-.02-.01-.02-.03-.02-.05 0-.03 0-.09.04-.12.07-.1.2-.04.21.07z" fill="#9bd984"/><path d="M133.44 38.25c.11 0 .2 0 .29.02.45.09 1.03.16 1.25.43.09.1.12.3-.07.35-.2.06-.41-.07-.57-.21-.16-.16-.18-.3-1.38-.21z" fill="#398139"/><path d="M127.64 35.7v-.12l.07.07c.3.29.68.52 1.03.73.2.1.38.23.57.34.07.04.14.09.23.12.56.38 1.16.63 1.8.79l.25.05c1.75.4 3.58.18 4.5.04-.47.16-.95.28-1.42.5-.39.17-.82.39-1.1.73-.09.1-.14.21-.2.33-2.81-.03-5.34-1.22-5.86-3.58z" fill="#398139" opacity=".37"/><path d="M127.8 34.67s.02.02 0 0c.21.3.4.6.57.93.14.28.27.59.46.82.1.12.32.21.48.3l.23.12c.54.38 1.16.61 1.78.79l.27.07c2.25.5 4.65 0 5-.07a4.83 4.83 0 0 0 2.8-1.34c.1-.05.18-.1.27-.18a3.1 3.1 0 0 1-1.21 1.48c-.9.57-2.05.63-3.1.73-2.4.25-5.86 1.12-6.77-1.32-.02-.05-.14-.1-.2-.14a1.93 1.93 0 0 1-.9-1.18c-.04-.24.18-.78.32-1z" fill="#398139"/><path d="M137.11 37.65c-.44.09-.9.1-1.37.12.45-.05.75-.12.87-.14a5.63 5.63 0 0 0 2.41-.96 4 4 0 0 1-1.9.98zM127.8 34.67c.4.4.64.95.9 1.44l.13.22c.1.14.23.25.4.34.3.17.58.33.9.48.29.12.55.25.84.35.27.11.53.18.82.22.2.03.39.03.59.03.58.11 1.15.16 1.65.15l-.43.05c-1.1.14-2.22.2-3.27-.21-.25-.1-.5-.22-.71-.4-.18-.16-.3-.35-.52-.5-.3-.2-.64-.3-.9-.55a.91.91 0 0 1-.3-.44l-.01-.29c-.04-.25-.2-.48-.2-.71.04-.05.07-.12.1-.18z" fill="#275c26"/><path d="M140.84 36.7c-.04.06-.11.1-.15.16-.03.07-.03.16-.03.23 0 .08-.02.16-.1.22-.03.03-.1.03-.15.03h-.05c-.02 0-.04-.01-.04-.03-.14-.23.02-.59.18-.77.07-.07.21-.25.34-.2.12.02.05.27 0 .36z" fill="#9bd984"/><path d="M134.5 38.32c.2 0 .37.02.57.06s.39.1.51.25c.02.01.04.03.04.07.02.07-.04.12-.1.14s-.15 0-.2-.02c-.25-.09-.45-.27-.72-.28-.1-.02-.21.01-.32.01-.1.02-.21.02-.3-.03-.05-.02-.16-.09-.14-.16 0-.07.1-.04.14-.04.16.02.34 0 .52 0z" fill="#398139"/><path d="M132.93 27.12c.21-.71 1.48-.64.98-.84a.93.93 0 0 0-.98.84z" fill="#cc5f00" opacity=".36"/></svg>