<?xml version="1.0" encoding="UTF-8"?>
<svg width="34px" height="23px" viewBox="0 0 34 23" version="1.1" xmlns="http://www.w3.org/2000/svg" xmlns:xlink="http://www.w3.org/1999/xlink">
    <!-- Generator: Sketch 57.1 (83088) - https://sketch.com -->
    <title>Artboard</title>
    <desc>Created with Sketch.</desc>
    <defs>
        <path d="M-103,-105.002676 C-103,-107.210337 -101.206167,-109 -99.0098143,-109 L133.009814,-109 C135.213533,-109 137,-107.20047 137,-105.002676 L137,3.00267649 C137,5.21033731 135.206167,7 133.009814,7 L75.0049071,7 L46.0024536,7 L31.5012268,7 C26.6674845,7 17,23 17,23 C17,23 7.33251548,7 2.49877321,7 L-12.0024536,7 L-41.0049071,7 L-99.0098143,7 C-101.213533,7 -103,5.20047009 -103,3.00267649 L-103,-105.002676 Z" id="path-1"></path>
        <filter x="-2.3%" y="-4.2%" width="105.4%" height="109.8%" filterUnits="objectBoundingBox" id="filter-2">
            <feOffset dx="1" dy="1" in="SourceAlpha" result="shadowOffsetOuter1"></feOffset>
            <feGaussianBlur stdDeviation="2" in="shadowOffsetOuter1" result="shadowBlurOuter1"></feGaussianBlur>
            <feColorMatrix values="0 0 0 0 0.666719813   0 0 0 0 0.666719813   0 0 0 0 0.666719813  0 0 0 0.5 0" type="matrix" in="shadowBlurOuter1"></feColorMatrix>
        </filter>
    </defs>
    <g id="Artboard" stroke="none" stroke-width="1" fill="none" fill-rule="evenodd">
        <g id="Rectangle">
            <use fill="black" fill-opacity="1" filter="url(#filter-2)" xlink:href="#path-1"></use>
            <use fill="#FFFFFF" fill-rule="evenodd" xlink:href="#path-1"></use>
        </g>
    </g>
</svg>