<?xml version="1.0" encoding="UTF-8"?>
<svg width="288px" height="224px" viewBox="0 0 288 224" version="1.1" xmlns="http://www.w3.org/2000/svg" xmlns:xlink="http://www.w3.org/1999/xlink">
    <title>Group 11</title>
    <g id="VPN-MVP" stroke="none" stroke-width="1" fill="none" fill-rule="evenodd">
        <g id="Artboard" transform="translate(-2521.000000, -60.000000)">
            <g id="Group-11" transform="translate(2521.000000, 60.000000)">
                <rect id="Rectangle" x="0" y="0" width="288" height="224"></rect>
                <g id="Group-10" transform="translate(68.000000, 13.000000)">
                    <g id="Group" transform="translate(0.000000, 179.251110)" fill="#B9C5C9" fill-rule="nonzero">
                        <ellipse id="Oval" cx="76.25752" cy="13.49264" rx="76.25302" ry="3.98722"></ellipse>
                        <path d="M122.97583,3.052 C121.400455,4.90950363 120.695499,7.35248866 121.03907,9.76373 C121.129034,8.2059641 121.815463,6.74268015 122.95585,5.67767 C122.475988,6.83944521 122.398632,8.12837204 122.7361,9.3392 C123.151564,8.08200065 124.00163,7.0141047 125.13364,6.32729 C124.32323,7.38207564 124.480751,8.88676197 125.49204,9.75084 C125.598339,7.83739268 126.01859,5.95445111 126.73597,4.17739 C127.218212,5.84611001 127.468448,7.5732716 127.47963,9.31024 C127.998489,7.82943065 128.914934,6.52000895 130.12855,5.52545 C129.477934,7.06561599 129.119464,8.71336144 129.07143,10.38462 C130.052844,8.55321385 131.565458,7.06163788 133.41043,6.10597 C132.039923,7.96428774 131.177413,10.1477151 130.90794,12.44097 L123.76894,12.5565 C122.59754,12.5755 118.25177,13.29337 117.6112,12.23086 C116.716,10.74609 121.30263,3.052 122.97583,3.052 Z" id="Path"></path>
                        <path d="M135.68848,8.78581 C136.02681,9.59043438 136.44903,10.3571456 136.94814,11.07323 C137.142604,10.0482927 137.258276,9.00996563 137.29414,7.96736 C137.776457,8.55429068 138.09901,9.25584254 138.23055,10.00405 C138.443631,7.78107798 138.380319,5.54026426 138.04206,3.33287 C138.164777,4.26433002 138.415623,5.17436395 138.78748,6.03715 C139.317934,7.58440703 139.598074,9.20640254 139.61733,10.84195 C140.008259,9.63826287 140.721695,8.56478193 141.68007,7.73822 C141.866538,8.81060546 141.833882,9.90964796 141.58407,10.96907 C142.011045,9.72292327 142.860947,8.66565571 143.98621,7.98084 C143.340118,9.04961759 142.97455,10.2643181 142.92345,11.51216 C143.447181,10.5471359 144.35075,9.84522334 145.41532,9.57642 C144.454827,10.6205933 143.811674,11.9167847 143.56116,13.31324 C141.45701,12.79534 139.24976,13.17124 137.21231,12.74565 C135.23509,12.33264 136.39476,10.466 135.68848,8.78581 Z" id="Path"></path>
                        <path d="M107.8876,12.43535 C108.88432,10.93923 109.29725,8.71445 110.74008,7.38574 C109.551143,8.15969271 108.530981,9.16606533 107.74092,10.34436 C107.742241,8.52082301 107.877213,6.69983508 108.14475,4.89603 C107.02875,5.10303 106.48675,7.55193 106.27024,8.54053 C105.75096,6.52992 106.20865,4.21053 106.07397,2.13547 C105.03285,3.89711 105.01105,6.0903 104.46371,7.93385 C103.60861,7.40928 103.637,5.57109 102.68891,4.87866 C102.62028,6.05805 103.0022,7.23426 102.92211,8.44566 C102.04439,7.68242 102.17938,6.31893 100.77336,5.8532 C100.66212,6.83713 101.26936,7.7845 101.13586,8.82402 C100.5295,8.06272 99.98555,6.89562 98.83555,7.09881 C98.9423,8.23459 100.28555,8.99761 100.49055,10.21624 C102.260941,10.1589707 104.017526,10.5455698 105.60029,11.34082 C106.10373,11.63082 106.56822,12.02215 107.06243,12.33564 C107.319148,12.4583349 107.609046,12.4933648 107.8876,12.43535 L107.8876,12.43535 Z" id="Path"></path>
                        <path d="M76.145,0.79131 C74.5696279,2.64881118 73.8646718,5.09179195 74.20824,7.50303 C74.298208,5.94527805 74.9846295,4.48200728 76.125,3.417 C75.6451429,4.57877975 75.5677869,5.86770818 75.90525,7.07854 C76.3207179,5.82134277 77.1707832,4.75344804 78.30279,4.06663 C77.4923813,5.12141243 77.649902,6.62609547 78.66119,7.49017 C78.7674925,5.57672538 79.1877468,3.6937871 79.90513,1.91673 C80.3873688,3.58544712 80.6376009,5.31260537 80.64878,7.04957 C81.1676439,5.56876067 82.0840924,4.25933942 83.29771,3.26478 C82.6470857,4.80494337 82.2886158,6.45269039 82.24059,8.12395 C83.2219983,6.29254225 84.7346146,4.80096807 86.57959,3.84531 C85.2090748,5.70362401 84.3465601,7.88705274 84.07709,10.18031 L76.93809,10.29584 C75.76669,10.31484 71.42092,11.0327 70.78035,9.9702 C69.8852,8.48545 74.4718,0.79131 76.145,0.79131 Z" id="Path"></path>
                        <path d="M84.67939,6.73408 C85.0177294,7.53870169 85.4399528,8.30541227 85.93906,9.0215 C86.1334968,7.99655982 86.2491517,6.95823358 86.28501,5.91563 C86.7673288,6.50255947 87.089882,7.20411186 87.22142,7.95232 C87.4344981,5.72934757 87.3711819,3.48853383 87.03292,1.28114 C87.1556373,2.21260002 87.4064831,3.12263395 87.77834,3.98542 C88.3088001,5.53267559 88.5889395,7.15467201 88.60819,8.79022 C88.999116,7.58652903 89.7125563,6.51304657 90.67094,5.68649 C90.8574082,6.75887546 90.8247517,7.85791796 90.57494,8.91734 C91.00191,7.67119078 91.8518138,6.61392185 92.97708,5.92911 C92.3309846,6.99788682 91.9654139,8.21258724 91.91431,9.46043 C92.4380447,8.4954053 93.341617,7.79349309 94.40619,7.52469 C93.4456862,8.56885196 92.8025316,9.86504354 92.55203,11.2615 C90.44788,10.74361 88.24063,11.1195 86.20318,10.69392 C84.226,10.28091 85.38568,8.41423 84.67939,6.73408 Z" id="Path"></path>
                        <path d="M69.78641,1.21686 C69.9606049,3.22286058 69.8533152,5.24336768 69.46766,7.21964 C69.5203039,6.12495849 69.3147068,5.03324345 68.86748,4.0327 C69.217698,5.61601187 69.052668,7.26981551 68.39648,8.7527 C68.116713,7.79920323 67.7016299,6.89076328 67.16391,6.05513 C66.9186925,6.65803832 66.8441032,7.31679742 66.94831,7.95927 C67.0483365,8.61083395 66.8114716,9.26871021 66.31906,9.70697 C66.32839,7.55975 64.65471,5.82579 63.09659,4.34833 C63.8296394,5.3800465 64.0952383,6.67238734 63.82849,7.90958 C63.60602,7.29758 63.29949,6.60458 62.67094,6.4343 C62.1243087,6.33551689 61.5711208,6.57018457 61.26225,7.03188 C60.9678948,7.48875027 60.7673382,7.99959847 60.67225,8.5347 C60.4395236,6.27773218 60.6959764,3.99711673 61.42414,1.8482 C59.5645298,4.91288395 58.952709,8.57462678 59.715,12.07739 C61.4601284,11.4540398 63.3418647,11.3167222 65.159,11.68012 C67.1085,11.94378 70.66151,13.17241 71.30752,10.47337 C72.03622,7.42866 70.04154,4.14711 69.78641,1.21686 Z" id="Path"></path>
                        <path d="M57.24353,2.38878 L57.5052,8.2794 L56.26626,5.33573 L55.09564,7.88705 C54.4929268,6.42422056 54.2259951,4.84483187 54.3145,3.26518 C53.5698758,5.6308247 53.3904044,8.13812681 53.7905,10.58571 C52.8380317,8.39398359 52.2980853,6.04534428 52.19777,3.65771 C51.8955254,5.28458151 51.7589143,6.93789333 51.79003,8.59231 L50.71437,6.97382 L50.11737,8.45223 C49.4887761,5.76888301 49.2345447,3.01145548 49.36191,0.25841 C48.7973616,3.30979573 48.6048104,6.41836876 48.78847,9.5161 C48.36406,8.55584 48.11734,7.5236 47.67724,6.57043 C47.289629,5.58187441 46.532829,4.78276345 45.5668,4.342 C46.7479803,5.49967789 47.3737004,7.10976579 47.28423,8.76125 C46.3410467,8.17568264 45.281582,7.80269537 44.17958,7.66825 C44.9679751,8.43167104 45.360639,9.51577415 45.244,10.607 C44.6094063,9.4878643 43.577574,8.6479367 42.35295,8.25364 C43.28218,10.23805 45.80728,10.7752 47.98364,11.02972 C50.95028,11.37665 54.96324,11.99403 57.77134,10.61519 C60.26268,9.3919 57.78554,4.49945 57.24353,2.38878 Z" id="Path"></path>
                        <path d="M38.35506,4.01183 C38.4240677,5.68871055 38.3952922,7.3681877 38.26888,9.04172 C38.0645294,7.09953084 37.2104017,5.28323051 35.84488,3.88709 C36.2426224,5.16711007 36.2956874,6.529399 35.99872,7.83648 C35.0342406,5.87613425 34.5648287,3.70931089 34.63155,1.52557 C33.7538891,4.56554084 33.9288996,7.81285481 35.1282,10.74089 C33.7702231,9.38050722 32.968498,7.56251328 32.87979,5.64239 L32.15016,8.05498 C31.9648852,7.44963243 31.8788453,6.81827993 31.89538,6.18543 L31.38372,6.17408 C31.0151838,6.96225695 30.7500191,7.79474385 30.59481,8.65087 L29.92138,5.65345 C29.1720767,6.95847054 28.9193148,8.4902087 29.20961,9.96678 C28.5574539,7.53062737 27.3019622,5.29807503 25.55908,3.4753 C27.25851,5.24502 27.50326,7.91893 27.60108,10.37054 C27.5880213,10.5363227 27.6361903,10.701141 27.73647,10.8338 C27.8918482,10.9480178 28.0871157,10.9938639 28.27709,10.96073 C31.44582,10.86018 34.43689,12.43895 37.59531,12.71339 C42.122,13.10671 39.11589,6.22634 38.35506,4.01183 Z" id="Path"></path>
                        <path d="M7.43585,4.83517 C7.34441234,6.5940973 7.40801792,8.35765987 7.62593,10.10543 C7.5199058,8.88418507 7.80313429,7.66071681 8.43504,6.6103 C8.12537529,7.94698484 8.20705432,9.3445579 8.67032,10.63607 C8.81040351,9.58064542 9.35348912,8.62037998 10.1858,7.95645 C9.96169751,9.06120144 10.2498231,10.2080161 10.96947,11.07566 C11.2982951,8.91283163 11.3764052,6.71927897 11.20225,4.53854 C12.1288806,6.62630903 12.4703397,8.92676059 12.19008,11.19367 C13.0371403,10.3086327 13.790385,9.33835317 14.43779,8.29832 C14.1500858,9.22770139 14.0678538,10.2085173 14.19679,11.17283 C14.7631157,9.14471677 15.0499435,7.04878886 15.04933,4.94309 C16.0731637,6.62398515 16.5361252,8.58684383 16.37133,10.54809 C17.000304,9.74294644 17.340936,8.75004436 17.33869,7.72835 L18.2938,11.35535 C18.7777579,10.4198042 19.1439853,9.42792134 19.38412,8.40235 C19.6841078,9.16554148 19.8458407,9.97604148 19.86175,10.79592 C20.2505514,9.24734133 20.3289483,7.637114 20.09242,6.05809 C20.9955888,7.72364148 21.4300162,9.60300466 21.34942,11.49596 C21.88542,9.7608 22.33493,8.00201667 22.69795,6.21961 C22.5481496,8.20854474 22.718201,10.2086336 23.20163,12.14373 C19.54144,12.9511 15.75742,13.76133 12.07686,13.05256 C10.6848161,12.6182603 9.22571612,12.4392339 7.76997,12.52412 C7.58726503,12.566892 7.42442429,12.6702642 7.30797,12.8174 C6.21492,10.03582 7.29261,7.58776 7.43585,4.83517 Z" id="Path"></path>
                    </g>
                    <path d="M97.76922,183.76782 L99.90822,192.3239 C99.9876556,192.642725 100.272026,192.867938 100.60057,192.87222 C104.01871,192.91649 122.04172,193.14929 123.07074,193.14929 C124.20789,193.14929 123.92134,190.96686 122.50217,190.30642 C118.98368,188.669 110.21256,185.90516 108.31442,184.00702 C106.18988,181.88246 97.76922,183.76782 97.76922,183.76782 Z" id="Path" fill="#575770" fill-rule="nonzero"></path>
                    <path d="M108.20435,182.98703 C108.202047,183.340844 108.127546,183.690464 107.98541,184.01448 C107.53474,184.87574 106.35577,184.95809 105.38422,184.92677 L98.66235,184.71005 C98.5219394,184.718949 98.382,184.686494 98.25984,184.6167 C98.1691402,184.539524 98.0994553,184.440642 98.05728,184.32927 C96.33179,180.68421 95.7171,176.60542 94.13509,172.89583 C93.25595,170.83435 92.08209,168.89692 91.37162,166.77141 C90.6341558,164.185779 90.247156,161.512846 90.22099,158.82423 C91.480009,158.821857 92.7377761,158.744721 93.98765,158.59323 C97.566,158.23123 101.26826,157.83035 104.3775,156.0225 C105.64929,155.28302 106.9845,154.07856 108.50404,153.93136 C108.703951,154.822969 108.761997,155.740527 108.67604,156.65022 C108.711813,157.610727 108.741793,158.571437 108.76598,159.53235 C108.81322,161.409423 108.838323,163.286873 108.84129,165.1647 C108.84729,168.9647 108.76274,172.763433 108.58764,176.5609 C108.488753,178.704547 108.36099,180.84659 108.20435,182.98703 Z" id="Mask" fill="#575770" fill-rule="nonzero"></path>
                    <path d="M55.22522,184.48735 L53.08622,193.04343 C53.006782,193.362255 52.7224139,193.587469 52.39387,193.59176 C48.97573,193.63603 30.95272,193.86882 29.9237,193.86882 C28.78655,193.86882 29.07311,191.6864 30.49227,191.02595 C34.01076,189.38854 42.78189,186.6247 44.68002,184.72656 C46.80456,182.602 55.22522,184.48735 55.22522,184.48735 Z" id="Path" fill="#575770" fill-rule="nonzero"></path>
                    <g id="Group-9" transform="translate(94.000000, 34.251110)" fill-rule="nonzero">
                        <rect id="Rectangle" fill="#4E4E4E" transform="translate(6.798895, 12.146249) rotate(-63.433260) translate(-6.798895, -12.146249) " x="-3" y="10.1910539" width="19.59779" height="3.91039"></rect>
                        <polygon id="Path" fill="#01002B" points="9.45166007 2.58843654 12.8566601 4.29043654 10.7856601 4.29043654"></polygon>
                        <polygon id="Path" fill="#000000" points="8.61766007 4.25443654 10.7806601 4.30043654 12.0226601 5.95743654 9.95266007 5.95743654"></polygon>
                        <polygon id="Path" fill="#000000" points="7.78966007 5.90943654 9.95266007 5.95543654 11.1956601 7.61243654 9.12466007 7.61243654"></polygon>
                        <polygon id="Path" fill="#000000" points="6.95666007 7.57643654 9.11866007 7.62243654 10.3616601 9.27843654 8.29066007 9.27843654"></polygon>
                        <polygon id="Path" fill="#000000" points="6.09866007 9.29043654 8.26166007 9.33643654 9.50366007 10.9934365 7.43366007 10.9934365"></polygon>
                        <polygon id="Path" fill="#000000" points="5.26566007 10.9574365 7.42766007 11.0034365 8.67066007 12.6594365 6.59966007 12.6594365"></polygon>
                        <polygon id="Path" fill="#000000" points="4.43766007 12.6124365 6.60066007 12.6584365 7.84266007 14.3144365 5.77166007 14.3144365"></polygon>
                        <polygon id="Path" fill="#000000" points="3.60366007 14.2784365 5.76666007 14.3244365 7.00866007 15.9814365 4.93866007 15.9814365"></polygon>
                        <polygon id="Path" fill="#000000" points="2.78566007 15.9154365 4.94766007 15.9614365 6.19066007 17.6184365 4.11966007 17.6184365"></polygon>
                        <polygon id="Path" fill="#000000" points="1.95166007 17.5824365 4.11466007 17.6284365 5.35666007 19.2844365 3.28566007 19.2844365"></polygon>
                        <polygon id="Path" fill="#000000" points="1.12366007 19.2374365 3.28666007 19.2834365 4.52866007 20.9394365 2.45866007 20.9394365"></polygon>
                        <rect id="Rectangle" fill="#000000" transform="translate(11.293767, 3.159975) rotate(26.573890) translate(-11.293767, -3.159975) " x="8.34110747" y="2" width="5.90532" height="2.31995" rx="0.68309"></rect>
                    </g>
                    <g id="Group-9" transform="translate(48.500000, 45.251110) scale(-1, 1) translate(-48.500000, -45.251110) translate(41.000000, 34.251110)" fill-rule="nonzero">
                        <rect id="Rectangle" fill="#4E4E4E" transform="translate(6.798895, 12.146249) rotate(-63.433260) translate(-6.798895, -12.146249) " x="-3" y="10.1910539" width="19.59779" height="3.91039"></rect>
                        <polygon id="Path" fill="#01002B" points="9.45166007 2.58843654 12.8566601 4.29043654 10.7856601 4.29043654"></polygon>
                        <polygon id="Path" fill="#000000" points="8.61766007 4.25443654 10.7806601 4.30043654 12.0226601 5.95743654 9.95266007 5.95743654"></polygon>
                        <polygon id="Path" fill="#000000" points="7.78966007 5.90943654 9.95266007 5.95543654 11.1956601 7.61243654 9.12466007 7.61243654"></polygon>
                        <polygon id="Path" fill="#000000" points="6.95666007 7.57643654 9.11866007 7.62243654 10.3616601 9.27843654 8.29066007 9.27843654"></polygon>
                        <polygon id="Path" fill="#000000" points="6.09866007 9.29043654 8.26166007 9.33643654 9.50366007 10.9934365 7.43366007 10.9934365"></polygon>
                        <polygon id="Path" fill="#000000" points="5.26566007 10.9574365 7.42766007 11.0034365 8.67066007 12.6594365 6.59966007 12.6594365"></polygon>
                        <polygon id="Path" fill="#000000" points="4.43766007 12.6124365 6.60066007 12.6584365 7.84266007 14.3144365 5.77166007 14.3144365"></polygon>
                        <polygon id="Path" fill="#000000" points="3.60366007 14.2784365 5.76666007 14.3244365 7.00866007 15.9814365 4.93866007 15.9814365"></polygon>
                        <polygon id="Path" fill="#000000" points="2.78566007 15.9154365 4.94766007 15.9614365 6.19066007 17.6184365 4.11966007 17.6184365"></polygon>
                        <polygon id="Path" fill="#000000" points="1.95166007 17.5824365 4.11466007 17.6284365 5.35666007 19.2844365 3.28566007 19.2844365"></polygon>
                        <polygon id="Path" fill="#000000" points="1.12366007 19.2374365 3.28666007 19.2834365 4.52866007 20.9394365 2.45866007 20.9394365"></polygon>
                        <rect id="Rectangle" fill="#000000" transform="translate(11.293767, 3.159975) rotate(26.573890) translate(-11.293767, -3.159975) " x="8.34110747" y="2" width="5.90532" height="2.31995" rx="0.68309"></rect>
                    </g>
                    <path d="M125.02987,88.29564 C127.054263,91.9353323 128.501558,95.8671412 129.32009,99.95071 C130.41224,106.12371 129.99437,105.561 129.99437,105.561 L122.4217,107.19194 C122.00618,107.281715 121.582398,107.079884 121.39023,106.70069 C119.95701,103.87137 114.24051,92.65037 113.44723,92.09558 C112.53908,91.46048 125.02987,88.29564 125.02987,88.29564 Z" id="Mask" fill="#575770" fill-rule="nonzero"></path>
                    <path d="M111.418,53.95049 C111.418,53.95049 124.4834,77.42211 125.10188,80.0183 C125.72036,82.61449 126.04919,87.17184 124.14388,89.8963 C122.23857,92.62076 116.2662,95.74639 111.7255,92.57086 C107.1848,89.39533 99.04477,76.67067 99.04477,76.67067 L111.418,53.95049 Z" id="Path" fill="#000000" fill-rule="nonzero"></path>
                    <path d="M110.34072,141.14785 C111.365409,144.207579 111.903225,147.40925 111.93451,150.63585 C111.653447,153.820791 110.414329,156.845922 108.38034,159.31285 C107.234041,160.910118 105.673115,162.163833 103.86617,162.93857 C102.014383,163.610556 100.021051,163.795727 98.07717,163.47634 C94.01573,162.91375 89.91453,161.68958 87.45772,158.33889 C86.0553208,156.212017 85.1285488,153.807486 84.74072,151.28957 C82.95911,142.64406 82.69318,133.71419 81.93827,124.96846 C81.8758414,124.519006 81.8367888,124.066614 81.82127,123.61311 L89.74593,121.3908 C92.0743281,120.691881 94.4424252,120.132777 96.83755,119.71648 C98.0494448,119.521344 99.2741279,119.416233 100.50155,119.40201 C101.642385,119.291916 102.793744,119.40392 103.89197,119.73183 C104.67005,120.09363 104.73621,121.08242 104.93303,121.7871 C105.276363,123.016347 105.619697,124.245597 105.96303,125.47485 L108.0231,132.85036 L110.34072,141.14785 Z" id="Path" fill="#000000" fill-rule="nonzero"></path>
                    <path d="M44.49406,184.30229 C44.4980185,184.656087 44.5741525,185.005353 44.7178,185.3287 C45.1725,186.18785 46.3518,186.2647 47.32323,186.22881 L54.04401,185.98065 C54.1844647,185.988886 54.3242533,185.955774 54.44609,185.88541 C54.5364231,185.807809 54.6056429,185.708605 54.6473,185.59704 C56.35571,181.94395 56.9513,177.86233 58.51595,174.14538 C59.38544,172.07981 60.5502,170.13691 61.25074,168.00809 C61.9760951,165.419039 62.3505833,162.744326 62.36417,160.05562 C61.1051547,160.059144 59.8470408,159.987909 58.59647,159.84229 C55.01647,159.497 51.31237,159.11348 48.19471,157.32019 C46.91947,156.58667 45.57871,155.38847 44.05843,155.24838 C43.8626907,156.140912 43.808937,157.05873 43.89915,157.96801 C43.86787,158.928677 43.8423867,159.889517 43.8227,160.85053 C43.78424,162.727797 43.7679067,164.605347 43.7737,166.48318 C43.7854467,170.28318 43.88778,174.081473 44.0807,177.87806 C44.1896267,180.021193 44.3274133,182.162603 44.49406,184.30229 Z" id="Mask" fill="#575770" fill-rule="nonzero"></path>
                    <path d="M43.62055,141.30111 C42.6990329,144.372443 42.2404149,147.563969 42.25981,150.77051 C42.5628954,153.934595 43.76524,156.945835 45.72481,159.44851 C46.8006871,161.027098 48.2848304,162.284091 50.01898,163.08545 C51.7508023,163.761282 53.6336643,163.954061 55.46651,163.6432 C59.27482,163.09591 63.11095,161.88808 65.37121,158.55074 C66.6682365,156.403339 67.5031296,154.009027 67.82256,151.52074 C69.37195,142.89336 69.49298,133.97658 70.07615,125.24544 C70.08423,125.1245 70.20991,123.90544 70.16652,123.89236 L62.68786,121.64471 C60.4961032,120.939993 58.2624077,120.373076 55.99986,119.94728 C54.8610077,119.748336 53.7083152,119.638951 52.55237,119.62013 C51.4814607,119.505833 50.3984861,119.613833 49.37124,119.93737 C48.64532,120.29589 48.59741,121.2831 48.42263,121.98612 C48.11775,123.212467 47.8128567,124.4388 47.50795,125.66512 L45.67859,133.02323 L43.62055,141.30111 Z" id="Path" fill="#000000" fill-rule="nonzero"></path>
                    <path d="M25.41894,90.12161 C23.2654139,93.6864149 21.6781466,97.5638299 20.7138,101.61544 C19.40114,107.74533 19.8389,107.19797 19.8389,107.19797 L27.34826,109.09924 C27.7603026,109.203842 28.1910457,109.017314 28.39667,108.64524 C29.93036,105.8691 36.04532,94.86016 36.85798,94.33416 C37.7883,93.73204 25.41894,90.12161 25.41894,90.12161 Z" id="Mask" fill="#575770" fill-rule="nonzero"></path>
                    <path d="M37.247,55.69303 C37.247,55.69303 24.512,79.34548 23.93,81.95011 C23.348,84.55474 23.08307,89.11622 25.02639,91.81367 C26.96971,94.51112 32.9853,97.55274 37.48104,94.31387 C41.97678,91.075 49.93763,78.23748 49.93763,78.23748 L37.247,55.69303 Z" id="Path" fill="#000000" fill-rule="nonzero"></path>
                    <path d="M19.29693,112.81176 C19.4314473,114.764442 20.4190352,116.558806 21.99678,117.71716 C22.2867412,117.920107 22.6036385,118.081541 22.93828,118.19678 C23.7544962,118.414265 24.6142932,118.40732 25.42689,118.17668 C25.967108,118.080709 26.4802802,117.86938 26.93142,117.5571 C27.4812969,117.127654 27.8065395,116.471843 27.81563,115.7742 C27.8040531,115.622578 27.8145934,115.470078 27.84692,115.32149 C27.9393915,115.11729 28.071634,114.933568 28.23592,114.78106 C28.8237827,113.904801 28.8932704,112.779582 28.41769,111.83765 C28.02579,110.88084 27.38169,110.04284 26.99741,109.08295 C26.9599769,108.969813 26.9054562,108.863068 26.83574,108.76642 C26.7707523,108.691936 26.6920897,108.630599 26.60401,108.58573 C26.0078808,108.372123 25.3747678,108.281044 24.7426,108.31795 C23.46555,108.19939 22.35168,107.44886 21.0837,107.29233 C20.8097,107.25851 20.54505,107.1952 20.3644,107.41285 C20.181421,107.720514 20.0446656,108.053406 19.95852,108.40085 C19.7141386,109.059608 19.529299,109.738947 19.40622,110.43071 C19.2654098,111.216153 19.2286638,112.016721 19.29693,112.81176 L19.29693,112.81176 Z" id="Path" fill="#000000" fill-rule="nonzero"></path>
                    <path d="M20.73494,107.257 C20.8517865,107.261915 20.9682417,107.273712 21.0837,107.29233 C22.3517,107.44886 23.46562,108.19939 24.74264,108.31795 C25.3748142,108.281047 26.0079332,108.372125 26.60407,108.58573 C26.6921337,108.630593 26.7707773,108.691927 26.83574,108.76641 C26.9054576,108.863058 26.9599721,108.969807 26.99739,109.08295 C27.38169,110.04285 28.02577,110.88083 28.41776,111.83766 C28.8933014,112.779598 28.8237992,113.904797 28.23595,114.78105 C28.071641,114.933557 27.9393748,115.117283 27.84688,115.32149 C27.8146257,115.470085 27.8040827,115.62257 27.81558,115.77419 C27.8065292,116.47182 27.4813264,117.127637 26.93148,117.5571 C26.4803163,117.869368 25.9671299,118.080693 25.4269,118.17667 C24.9653933,118.289027 24.4928214,118.349703 24.0179,118.35758 C23.6517431,118.361677 23.2872726,118.307396 22.9382,118.19678 C22.6035561,118.081525 22.2866511,117.920092 21.99667,117.71716 C20.4189312,116.558811 19.4313672,114.764438 19.2969,112.81176 C19.2286761,112.016714 19.2654117,111.216147 19.40616,110.43069 C19.5292514,109.738931 19.7140976,109.059596 19.95848,108.40084 C20.044627,108.053392 20.181393,107.720498 20.36439,107.41284 C20.4560075,107.304824 20.5936195,107.24694 20.7349,107.25699 M20.7349,106.41337 C20.3421549,106.401685 19.9659443,106.571669 19.71514,106.87413 C19.4919354,107.180528 19.3296871,107.526963 19.23722,107.89459 C19.21282,107.97231 19.18988,108.04628 19.16641,108.11051 C18.9048829,108.816689 18.7069499,109.544815 18.57497,110.28621 C18.4215371,111.144738 18.3818124,112.019731 18.45682,112.88863 C18.6133067,115.0929 19.7353994,117.115504 21.52273,118.41502 C21.8774888,118.662716 22.2654404,118.859087 22.6751,118.99832 C23.1091405,119.136591 23.5623839,119.205063 24.0179,119.20118 C24.5557954,119.193701 25.091159,119.125972 25.61397,118.99926 C26.2735919,118.878133 26.8987352,118.614188 27.44557,118.22593 C28.2035792,117.639135 28.6508277,116.73729 28.6592,115.77873 L28.6584,115.6692 C28.65801,115.63841 28.65602,115.60752 28.65695,115.57702 C28.6882184,115.538306 28.7214102,115.501186 28.7564,115.4658 C28.7991,115.4187 28.84167,115.37152 28.88211,115.3234 C29.6890779,114.213195 29.8110094,112.74612 29.19839,111.51793 C28.9809419,111.015935 28.7300446,110.5291 28.44739,110.06071 C28.1953705,109.646278 27.9725342,109.21479 27.7805,108.76938 C27.7128165,108.575367 27.6140156,108.393659 27.48797,108.23138 C27.3548253,108.072755 27.1919844,107.941658 27.00859,107.84545 C26.4747415,107.59053 25.8860766,107.471769 25.29515,107.49977 C25.13589,107.49577 24.97663,107.49241 24.82055,107.47792 C24.2454607,107.394273 23.6836441,107.236414 23.14915,107.00829 C22.5194422,106.746476 21.8607319,106.560769 21.187,106.45511 L21.11274,106.44537 C20.9876431,106.426424 20.8614322,106.415754 20.73493,106.41343 L20.7349,106.41337 Z" id="Shape" fill="#000000" fill-rule="nonzero"></path>
                    <path d="M37.05429,56.40486 C36.8906456,56.261159 36.8043592,56.0486952 36.8214702,55.8315853 C36.8385811,55.6144755 36.957085,55.4181517 37.14122,55.30186 C41.15553,52.78226 58.3546,42.47111 70.97094,42.47111 C85.17351,42.47111 105.7501,46.07838 112.92953,54.29374 C113.087262,54.4764331 113.136562,54.7289443 113.05913,54.95755 C111.99813,58.1559 104.35461,81.29431 103.4325,86.82698 C102.742498,91.5861452 102.411165,96.3904398 102.4413,101.19927 C102.4413,102.50868 108.59165,114.1968 110.05918,116.96705 C110.233944,117.296953 110.114448,117.706026 109.78958,117.88998 C106.56541,119.72549 90.57524,128.45707 78.15709,128.45707 C65.63673,128.45707 45.04738,119.58118 41.14209,117.84607 C40.9710815,117.770029 40.8383081,117.627769 40.7742299,117.451928 C40.7101517,117.276087 40.7202687,117.081757 40.80226,116.91352 L48.35181,101.34258 C48.3976277,101.248129 48.421311,101.144477 48.42106,101.0395 C48.41822,99.8185 48.38226,91.88814 47.9257,87.32257 C47.45457,82.6112 42.05666,60.88004 37.05429,56.40486 Z" id="Path" fill="#575770" fill-rule="nonzero"></path>
                    <path d="M47.58991,49.52855 C47.58991,49.52855 80.38727,79.64084 91.78598,94.50873 L94.26398,97.97791 L80.88288,101.44708 C80.88288,101.44708 46.95664,59.32486 37.04471,55.85568 L47.58991,49.52855 Z" id="Path" fill="#45455B" fill-rule="nonzero"></path>
                    <path d="M102.917,47.99911 C102.917,47.99911 69.712,78.23049 58.31334,93.09838 L55.83534,96.56755 L69.21644,100.03672 C69.21644,100.03672 106.01044,54.80118 112.97027,54.37937 C112.97027,54.37937 109.86449,51.6437 108.54127,50.794 C107.29841,49.99589 102.917,47.99911 102.917,47.99911 Z" id="Path" fill="#4E4E67" fill-rule="nonzero"></path>
                    <path d="M48.22262,90.8658 C48.22262,90.8658 78.53173,108.38465 102.84683,90.65489 L102.425,101.20011 C102.425,101.20011 80.85363,116.39704 48.4335,101.20011 L48.22262,90.8658 Z" id="Path" fill="#000000" fill-rule="nonzero"></path>
                    <path d="M85.92598,43.74557 C84.60361,45.28935 95.76348,44.2566076 94.26398,45.6253776 C89.89288,49.6152476 81.68758,57.55765 77.01579,61.20011 C72.5318919,64.7609914 67.552362,67.6484935 62.23459,69.77135 C56.64787,71.94096 50.53352,72.41909 45.05267,74.86024 C42.92467,67.34574 39.8919,58.95385 36.99196,56.36183 C36.8287684,56.2174884 36.7428106,56.0049041 36.7598132,55.7877016 C36.7768157,55.5704992 36.8948058,55.3738798 37.07847,55.25669 C41.09409,52.73851 58.2933,42.42742 70.90956,42.42742 C75.979685,42.4480635 81.0415204,42.8392658 86.05461,43.5979 C86.01249,43.6464 85.9681,43.6949 85.92598,43.74557 Z" id="Path" fill="#000000" fill-rule="nonzero" opacity="0.2"></path>
                    <path d="M130.43585,111.2557 C130.328724,113.210079 129.366386,115.018114 127.80503,116.19847 C127.517943,116.405463 127.203341,116.571326 126.87035,116.69125 C126.057261,116.920149 125.197451,116.925255 124.3817,116.70603 C123.840188,116.617643 123.324103,116.413527 122.86863,116.1076 C122.312788,115.685904 121.978383,115.034717 121.95951,114.33727 C121.968964,114.185503 121.956288,114.033167 121.92188,113.88505 C121.826551,113.682161 121.691738,113.500308 121.52532,113.35012 C120.925243,112.482183 120.839994,111.358055 121.30232,110.40955 C121.68077,109.44734 122.31305,108.60039 122.68385,107.63521 C122.719699,107.521561 122.772715,107.414063 122.84106,107.31644 C122.905001,107.241056 122.982797,107.178627 123.07024,107.13253 C123.663315,106.910585 124.295088,106.810639 124.92771,106.83868 C126.20298,106.70222 127.30621,105.93616 128.57188,105.76187 C128.8454,105.7242 129.10911,105.65719 129.29279,105.87229 C129.48007,106.177347 129.621479,106.508283 129.71248,106.85448 C129.966079,107.509743 130.160423,108.186421 130.29318,108.87639 C130.444988,109.65979 130.492957,110.459773 130.43585,111.2557 L130.43585,111.2557 Z" id="Path" fill="#000000" fill-rule="nonzero"></path>
                    <path d="M128.93208,105.72157 C129.069268,105.712629 129.202736,105.768404 129.29277,105.8723 C129.480034,106.177364 129.621448,106.508293 129.71248,106.85448 C129.96604,107.509758 130.160381,108.186437 130.29317,108.8764 C130.444946,109.659801 130.492921,110.459775 130.43586,111.2557 C130.328729,113.210077 129.366392,115.018111 127.80504,116.19847 C127.517954,116.405438 127.203373,116.571303 126.87041,116.69126 C126.5029,116.812861 126.117715,116.872452 125.73064,116.86759 C125.276613,116.860769 124.824535,116.806623 124.38174,116.70603 C123.840226,116.617664 123.324139,116.413547 122.86868,116.1076 C122.312835,115.6859 121.978415,115.03472 121.95951,114.33727 C121.968994,114.185504 121.956308,114.033166 121.92185,113.88506 C121.826529,113.682179 121.691738,113.500325 121.52535,113.35012 C120.925267,112.482189 120.839999,111.358065 121.3023,110.40955 C121.68077,109.44734 122.31305,108.6004 122.68382,107.63521 C122.719665,107.521547 122.772707,107.414044 122.8411,107.31644 C122.905017,107.241048 122.982802,107.178616 123.07024,107.13253 C123.663307,106.910583 124.295074,106.810637 124.92769,106.83868 C126.20299,106.70223 127.30616,105.93616 128.57191,105.76187 C128.690957,105.740583 128.811272,105.727121 128.93208,105.72157 M128.93221,104.87795 C128.797676,104.88066 128.663517,104.893166 128.5308,104.91537 L128.4568,104.92614 C127.784634,105.041232 127.128616,105.236179 126.50268,105.50684 C125.9714,105.742444 125.411811,105.908159 124.83791,105.99984 C124.68209,106.01651 124.52283,106.0221 124.3637,106.02833 C123.77245,106.008601 123.185515,106.135591 122.6553,106.39796 C122.473239,106.496741 122.31224,106.630156 122.18136,106.7907 C122.062332,106.946815 121.969362,107.121171 121.90606,107.307 C121.71832,107.764101 121.498298,108.207267 121.24766,108.63314 C120.971632,109.105452 120.727614,109.595758 120.51725,110.10075 C119.921837,111.337419 120.064319,112.802699 120.88683,113.90149 C120.92783,113.94892 120.97091,113.99543 121.01427,114.04186 C121.049868,114.076812 121.08364,114.113578 121.11545,114.15201 C121.11691,114.18271 121.11532,114.21383 121.11532,114.24482 L121.11611,114.35349 C121.137882,115.311887 121.597748,116.207428 122.36396,116.78355 C122.916124,117.164179 123.544901,117.419352 124.20616,117.53116 C124.706611,117.64438 125.217572,117.704711 125.73063,117.71116 C126.211005,117.715796 126.688822,117.640724 127.14463,117.489 C127.552324,117.344024 127.937508,117.142216 128.28878,116.88955 C130.057676,115.565059 131.151313,113.526955 131.27699,111.32072 C131.339706,110.450887 131.287672,109.576584 131.12223,108.72033 C130.979864,107.980841 130.771772,107.255536 130.50043,106.55305 C130.4759,106.48893 130.45189,106.4152 130.42643,106.33775 C130.328857,105.971558 130.161788,105.62754 129.93432,105.32443 C129.684987,105.031709 129.316577,104.867547 128.9322,104.87789 L128.93221,104.87795 Z" id="Shape" fill="#000000" fill-rule="nonzero"></path>
                    <path d="M38.82553,24.47811 C38.4522641,25.5053853 38.1882768,26.5691309 38.03794,27.65173 C34.6335425,25.0933696 31.4360023,22.2707628 28.475,19.21011 C27.1016326,21.6768279 26.1305991,24.3468569 25.59851,27.11953 C30.5186633,29.09825 35.3537967,31.2729767 40.10391,33.64371 C40.3339219,32.4336806 40.708699,31.2557239 41.22016,30.13524 C42.5584667,30.2523067 43.8990567,30.3375333 45.24193,30.39092 C46.23851,30.43057 48.65739,30.94759 49.53656,30.49697 C48.75256,29.88683 40.16693,25.55425 39.03804,24.43423 C39.0074045,24.4027109 38.9627993,24.3890108 38.919753,24.3978992 C38.8767067,24.4067876 38.8411758,24.4370346 38.82553,24.47811 L38.82553,24.47811 Z" id="Path" fill="#F7B500"></path>
                    <path d="M46.81761,13.6774 C46.3690698,14.1915724 45.975953,14.7515737 45.64477,15.34813 C44.2381783,13.0922405 43.0115094,10.729035 41.97615,8.28045 C40.6213079,9.40772602 39.4549839,10.7439317 38.52115,12.23869 C40.9407967,14.49817 43.2668267,16.8526567 45.49924,19.30215 C45.9054981,18.649325 46.388832,18.0477547 46.93882,17.51041 C47.69176,17.8797433 48.4531933,18.2310767 49.22312,18.56441 C49.7945,18.81178 51.08664,19.65722 51.69998,19.59268 C51.38077,19.06096 47.3565,14.60591 46.95122,13.69968 C46.9404766,13.6744327 46.9175886,13.6564164 46.8905243,13.6519034 C46.86346,13.6473903 46.8359644,13.6570049 46.81761,13.6774 L46.81761,13.6774 Z" id="Path" fill="#F7B500"></path>
                    <path d="M53.31593,4.60151 C52.9330705,4.76626186 52.5686354,4.97089481 52.22866,5.21202 C52.0496763,3.59795626 51.9981435,1.97229921 52.07454,0.35014 C51.0305515,0.61323476 50.0352226,1.04120332 49.12608,1.61791 C49.86212,3.50151 50.5215,5.41271333 51.10422,7.35152 C51.5004102,7.0992331 51.9255149,6.89552932 52.37037,6.7448 C52.68755,7.14710667 53.01417,7.54172667 53.35023,7.92866 C53.59963,8.21582 54.08807,9.02276 54.44296,9.14919 C54.40756,8.77201 53.36753,5.25527 53.38364,4.64906 C53.3843838,4.63231881 53.3765329,4.61635557 53.362819,4.60672487 C53.3491052,4.59709417 53.3314248,4.59512781 53.31593,4.60151 L53.31593,4.60151 Z" id="Path" fill="#F7B500"></path>
                    <path d="M112.12169,23.3365 C112.494956,24.3637753 112.758943,25.4275209 112.90928,26.51012 C116.313703,23.951764 119.511264,21.1291535 122.47228,18.06849 C123.845649,20.5352107 124.816683,23.2052433 125.34877,25.97792 C120.42863,27.9566267 115.593497,30.13135 110.84337,32.50209 C110.613357,31.2920622 110.238583,30.1141061 109.72713,28.99362 C108.38881,29.1106867 107.048217,29.1959133 105.70535,29.2493 C104.70877,29.28895 102.28989,29.80597 101.41073,29.3553 C102.19473,28.74516 110.78036,24.41258 111.90924,23.29256 C111.939886,23.2610723 111.98448,23.2473996 112.027509,23.2562989 C112.070537,23.2651982 112.106049,23.2954391 112.12169,23.3365 Z" id="Path" fill="#F7B500"></path>
                    <path d="M104.12961,12.5358 C104.57815,13.0499724 104.971267,13.6099737 105.30245,14.20653 C106.709044,11.950645 107.935712,9.5874427 108.97107,7.13886 C110.325917,8.26612736 111.492242,9.60233051 112.42607,11.09709 C110.00643,13.35657 107.6804,15.71106 105.44798,18.16056 C105.041728,17.5077305 104.558397,16.9061566 104.00841,16.36881 C103.255463,16.7381433 102.494027,17.0894767 101.7241,17.42281 C101.15272,17.67018 99.86059,18.51562 99.24724,18.45108 C99.56645,17.91936 103.59073,13.46431 103.996,12.55808 C104.006747,12.5328368 104.029635,12.5148246 104.056697,12.5103118 C104.083759,12.5057991 104.111253,12.5154101 104.12961,12.5358 L104.12961,12.5358 Z" id="Path" fill="#F7B500"></path>
                    <path d="M96.545,4.54624 C96.9278533,4.71099808 97.2922845,4.9156307 97.63226,5.15675 C97.811247,3.54268652 97.8627831,1.91702947 97.78639,0.29487 C98.8303747,0.557966736 99.8257,0.985935204 100.73484,1.56264 C99.99884,3.44624 99.33946,5.35744667 98.7567,7.29626 C98.3605163,7.04396139 97.9354101,6.84025692 97.49055,6.68954 C97.17337,7.09184 96.84675,7.48645667 96.51069,7.87339 C96.2613,8.16055 95.77285,8.96749 95.41797,9.09393 C95.45336,8.71674 96.49339,5.2 96.47729,4.5938 C96.4765426,4.57705707 96.4843921,4.56109062 96.4981065,4.55145748 C96.511821,4.54182433 96.5295035,4.53985693 96.545,4.54624 Z" id="Path" fill="#F7B500"></path>
                    <path d="M76.13544,3.73034936e-13 C65.37228,3.73034936e-13 56.5542,11.36846 55.77044,25.79026 C53.41033,26.39192 51.52262,28.35769 53.43719,33.38347 C54.45362,36.0516 55.15047,36.88573 57.01064,37.67847 C59.91535,48.24491 67.38164,55.76556 76.13541,55.76556 C87.4142,55.76556 96.55749,43.28202 96.55749,27.88278 C96.55749,12.48354 87.41423,3.73034936e-13 76.13544,3.73034936e-13 Z" id="Path" fill="#575770"></path>
                    <path d="M55.73293,25.79025 C53.37282,26.3919 51.4851,28.35766 53.39968,33.38347 C54.41611,36.05156 55.11296,36.88573 56.97313,37.67847 C59.87783,48.24491 67.34413,55.76556 76.0979,55.76556 C76.9344754,55.76556 77.76959,55.6956992 78.59472,55.55779 C80.70453,53.11413 81.76653,49.38366 82.48372,46.53453 C84.76746,37.46211 84.39607,27.44736 83.97633,18.0883 C83.8958944,14.6365757 83.3113142,11.2151474 82.24113,7.93253 C81.8477686,6.80372552 81.3631405,5.70882734 80.79205,4.65869 C80.0468942,3.28015379 79.1264151,2.00388136 78.05356,0.86169 C77.772861,0.571844548 77.4771973,0.296875779 77.16778,0.03791 C76.8134267,0.01293 76.45679,-9.23705556e-14 76.09787,-9.23705556e-14 C65.33474,-9.23705556e-14 56.51666,11.36844 55.73293,25.79025 Z" id="Path" fill="#373748"></path>
                    <path d="M94.7314,22.27463 C95.3539374,23.785609 95.5197546,25.4459679 95.20833,27.05022 C94.99715,29.19379 94.53609,33.73294 91.71468,34.046 C90.3646368,34.1080916 89.0271454,33.7625286 87.87614,33.05425 C85.9175782,31.9917331 83.6202688,31.7402468 81.47822,32.35387 C80.05829,32.80934 78.77431,33.58921 77.3856,34.1217 C75.8926743,34.6350149 74.3375772,34.945523 72.762,35.0449 C72.2689823,35.1052945 71.7702605,35.1023136 71.278,35.03603 C68.88713,34.63859 67.52944,31.78762 67.23057,29.60339 C66.92779,27.39054 67.17064,23.88888 68.6858,22.11118 C70.50908,19.97201 73.78927,19.83457 76.38287,19.71274 C80.53495,19.51774 84.71739,19.70874 88.87311,19.75687 C91.33716,19.78543 93.67295,20.32211 94.7314,22.27463 Z" id="Path" fill="#EEBDAA"></path>
                    <path d="M76.38291,19.71275 C73.78934,19.83459 70.5091,19.97202 68.68585,22.11118 C67.17071,23.88889 66.92785,27.39054 67.2306,29.6034 C67.5295,31.78761 68.8872,34.63859 71.27807,35.03604 C71.7703312,35.1023163 72.2690525,35.1052938 72.76207,35.0449 C74.337646,34.9455089 75.8927431,34.6350115 77.38568,34.12173 C78.77437,33.58922 80.05835,32.80935 81.47828,32.35387 C82.4004609,32.0594544 83.3717353,31.9501911 84.33628,32.03236 C84.43605,27.88975 84.29484,23.72644 84.11912,19.66911 C81.53776,19.61939 78.9545,19.59195 76.38291,19.71275 Z" id="Path" fill="#D19F93"></path>
                    <path d="M77.12518,24.64011 C76.930519,24.4435508 76.7084742,24.2761541 76.46593,24.14311 C76.22685,23.99442 75.98544,23.84958 75.7472,23.69947 C75.27228,23.40024 74.7862,23.10424 74.33502,22.76987 L74.00171,23.34009 C74.23646,23.51043 74.47457,23.67436 74.70592,23.84987 C74.9256104,24.0234972 75.1573347,24.1813296 75.39935,24.32218 C75.9632831,24.5974305 76.5483162,24.8271621 77.14886,25.00918 L77.23437,24.37732 C76.0469369,24.4059443 74.8862262,24.0225084 73.94951,23.29218 C73.7891777,23.1996567 73.5842464,23.25339 73.48994,23.41268 C73.4008144,23.5734529 73.4538995,23.7758905 73.61045,23.87224 C74.6613272,24.6390843 75.9336294,25.0422803 77.23437,25.02067 C77.3944561,25.0193751 77.5291716,24.900441 77.5503,24.74175 C77.5694091,24.5837573 77.4722191,24.4348825 77.31989,24.38881 L76.47483,24.05433 C76.2060657,23.9599457 75.9444517,23.8463182 75.69202,23.71433 C75.21352,23.44027 74.82036,23.02901 74.33502,22.76986 C73.96053,22.56986 73.62769,23.13603 74.00171,23.34008 C74.49542,23.60943 74.97403,23.90744 75.46713,24.1786 C75.71378,24.31424 75.96062,24.4506 76.2112,24.57888 C76.4520881,24.7193434 76.7139322,24.8202903 76.98677,24.87788 C77.0484636,24.8927849 77.1126229,24.8654097 77.1445531,24.8105579 C77.1764833,24.755706 77.1686056,24.6863969 77.12518,24.64011 L77.12518,24.64011 Z" id="Path" fill="#01002B" fill-rule="nonzero"></path>
                    <path d="M87.5660969,24.4012824 C87.8389027,24.3435954 88.1007284,24.2426543 88.3416569,24.1022824 C88.5923969,23.9743524 88.8390969,23.8376224 89.0857269,23.7020024 C89.5788369,23.4308424 90.0574369,23.1328224 90.5511469,22.8634824 C90.9247669,22.6596524 90.5926969,22.0931124 90.2178469,22.2932624 C89.7324969,22.5524024 89.3393369,22.9636724 88.8608469,23.2377324 C88.6175364,23.3653554 88.365335,23.4752574 88.1062069,23.5665824 L87.2329769,23.9122124 C87.0801677,23.9576427 86.9826766,24.1069786 87.0025669,24.2651524 C87.0239628,24.4236966 87.1585133,24.5424888 87.3184869,24.5440724 C88.6192299,24.5656893 89.8915364,24.1624966 90.9424169,23.3956524 C91.0979055,23.2985181 91.1507386,23.0970244 91.0629169,22.9360924 C90.9685263,22.7769205 90.7637056,22.723215 90.6033569,22.8155924 C89.6666319,23.5459105 88.5059208,23.929342 87.3184869,23.9007224 L87.4040069,24.5325824 C88.0045492,24.3505603 88.589582,24.1208288 89.1535169,23.8455824 C89.3955331,23.7047297 89.6272575,23.5468939 89.8469469,23.3732624 C90.0782969,23.1977524 90.3164069,23.0338224 90.5511469,22.8634924 L90.2178469,22.2932724 C89.7666269,22.6276524 89.2806069,22.9236224 88.8056569,23.2228724 C88.5674169,23.3729724 88.3262369,23.5181624 88.0869369,23.6665124 C87.8443178,23.7994406 87.6222571,23.9668493 87.4276869,24.1635124 C87.3842937,24.2098079 87.3764347,24.2790971 87.4083568,24.3339352 C87.440279,24.3887733 87.5044118,24.4161548 87.5660969,24.4012824 L87.5660969,24.4012824 Z" id="Path" fill="#01002B" fill-rule="nonzero"></path>
                    <g id="Group" transform="translate(73.000000, 25.251110)" fill-rule="nonzero">
                        <path d="M2.77971,0.361 C2.19805223,0.399673449 1.65693012,0.672532605 1.28000456,1.11722184 C0.903078997,1.56191108 0.72256325,2.14042584 0.77971,2.72056 C0.647960481,3.51406745 0.997787201,4.31041762 1.67129856,4.75018399 C2.34480992,5.18995036 3.21461008,5.18995036 3.88812144,4.75018399 C4.5616328,4.31041762 4.91145952,3.51406745 4.77971,2.72056 C4.83685675,2.14042584 4.656341,1.56191108 4.27941544,1.11722184 C3.90248988,0.672532605 3.36136777,0.399673449 2.77971,0.361 L2.77971,0.361 Z" id="Path" fill="#01002B"></path>
                        <ellipse id="Oval" fill="#FFFFFF" cx="2.7797" cy="2.72049" rx="1.30462" ry="1.82811"></ellipse>
                    </g>
                    <g id="Group" transform="translate(87.000000, 25.251110)" fill-rule="nonzero">
                        <path d="M2.362,0.0075 C1.78034415,0.0461735873 1.23922371,0.319031346 0.862298446,0.763718344 C0.485373186,1.20840534 0.304856126,1.78691747 0.362,2.36705 C0.230223874,3.16057182 0.58004376,3.95694926 1.25356628,4.39673243 C1.92708881,4.8365156 2.79691119,4.8365156 3.47043372,4.39673243 C4.14395624,3.95694926 4.49377613,3.16057182 4.362,2.36705 C4.41914387,1.78691747 4.23862681,1.20840534 3.86170155,0.763718344 C3.48477629,0.319031346 2.94365585,0.0461735873 2.362,0.0075 L2.362,0.0075 Z" id="Path" fill="#01002B"></path>
                        <ellipse id="Oval" fill="#FFFFFF" cx="2.36203" cy="2.36703" rx="1.30462" ry="1.82811"></ellipse>
                    </g>
                </g>
            </g>
        </g>
    </g>
</svg>