<svg width="288" height="224" xmlns="http://www.w3.org/2000/svg">
  <g fill="none" fill-rule="evenodd">
    <path d="M0 0h288v224H0z"/>
    <g transform="translate(68 192.251)" fill="#B9C5C9" fill-rule="nonzero">
      <ellipse cx="76.258" cy="13.493" rx="76.253" ry="3.987"/>
      <path d="M122.976 3.052a8.519 8.519 0 00-1.937 6.712 6.07 6.07 0 011.917-4.086 5.631 5.631 0 00-.22 3.661 5.566 5.566 0 012.398-3.012 2.5 2.5 0 00.358 3.424 17.479 17.479 0 011.244-5.574c.482 1.67.732 3.396.744 5.133a8.548 8.548 0 012.649-3.785 13.482 13.482 0 00-1.058 4.86 10.295 10.295 0 014.34-4.279 13.285 13.285 0 00-2.503 6.335l-7.14.115c-1.17.02-5.516.737-6.157-.325-.895-1.485 3.692-9.179 5.365-9.179zM135.688 8.786c.339.804.761 1.571 1.26 2.287a20.43 20.43 0 00.346-3.106 4.41 4.41 0 01.937 2.037c.213-2.223.15-4.464-.189-6.671.123.931.374 1.841.745 2.704.53 1.547.811 3.17.83 4.805a6.922 6.922 0 012.063-3.104 8.06 8.06 0 01-.096 3.231 5.637 5.637 0 012.402-2.988 7.412 7.412 0 00-1.063 3.531 3.93 3.93 0 012.492-1.936 7.467 7.467 0 00-1.854 3.737c-2.104-.518-4.311-.142-6.349-.567-1.977-.413-.817-2.28-1.524-3.96zM107.888 12.435c.996-1.496 1.41-3.72 2.852-5.05a10.523 10.523 0 00-3 2.96 37.32 37.32 0 01.405-5.449c-1.116.207-1.658 2.656-1.875 3.645-.519-2.011-.061-4.33-.196-6.406-1.041 1.762-1.063 3.955-1.61 5.799-.855-.525-.827-2.363-1.775-3.055-.069 1.18.313 2.355.233 3.567-.878-.764-.743-2.127-2.149-2.593-.11.984.496 1.932.363 2.971-.606-.761-1.15-1.928-2.3-1.725.106 1.136 1.45 1.899 1.655 3.117 1.77-.057 3.527.33 5.11 1.125.503.29.967.681 1.461.995a1.3 1.3 0 00.826.1zM76.145.791a8.519 8.519 0 00-1.937 6.712 6.07 6.07 0 011.917-4.086 5.631 5.631 0 00-.22 3.662 5.566 5.566 0 012.398-3.012 2.5 2.5 0 00.358 3.423 17.479 17.479 0 011.244-5.573c.482 1.668.733 3.396.744 5.133a8.548 8.548 0 012.649-3.785 13.482 13.482 0 00-1.057 4.859 10.295 10.295 0 014.339-4.279 13.285 13.285 0 00-2.503 6.335l-7.139.116c-1.171.019-5.517.737-6.158-.326-.895-1.485 3.692-9.179 5.365-9.179z"/>
      <path d="M84.68 6.734c.338.805.76 1.571 1.26 2.287.193-1.024.31-2.063.345-3.105a4.41 4.41 0 01.936 2.036c.213-2.223.15-4.463-.188-6.67.123.93.373 1.84.745 2.703.53 1.548.81 3.17.83 4.805a6.922 6.922 0 012.063-3.104 8.06 8.06 0 01-.096 3.231 5.637 5.637 0 012.402-2.988 7.412 7.412 0 00-1.063 3.531 3.93 3.93 0 012.492-1.935 7.467 7.467 0 00-1.854 3.736c-2.104-.517-4.311-.141-6.349-.567-1.977-.413-.817-2.28-1.524-3.96zM69.786 1.217a21.59 21.59 0 01-.318 6.003 6.987 6.987 0 00-.6-3.187 7.605 7.605 0 01-.472 4.72 10.392 10.392 0 00-1.232-2.698 3.547 3.547 0 00-.216 1.904c.1.652-.137 1.31-.629 1.748.01-2.147-1.664-3.881-3.222-5.359a4.508 4.508 0 01.731 3.562c-.222-.612-.529-1.305-1.157-1.476a1.396 1.396 0 00-1.409.598 4.099 4.099 0 00-.59 1.503 15.789 15.789 0 01.752-6.687 13.986 13.986 0 00-1.709 10.23 10.224 10.224 0 015.444-.398c1.95.264 5.503 1.492 6.149-1.207.728-3.044-1.266-6.326-1.522-9.256zM57.244 2.389l.261 5.89-1.239-2.943-1.17 2.551a10.579 10.579 0 01-.781-4.622 15.86 15.86 0 00-.524 7.32 19.429 19.429 0 01-1.593-6.927 24.494 24.494 0 00-.408 4.934l-1.076-1.618-.597 1.478a29.872 29.872 0 01-.755-8.194 38.396 38.396 0 00-.574 9.258c-.424-.96-.67-1.992-1.11-2.946a4.09 4.09 0 00-2.111-2.228 5.752 5.752 0 011.717 4.42 7.64 7.64 0 00-3.104-1.094 3.564 3.564 0 011.064 2.939 5.131 5.131 0 00-2.891-2.353c.93 1.984 3.454 2.521 5.63 2.776 2.967.347 6.98.964 9.788-.415 2.492-1.223.015-6.116-.527-8.226zM38.355 4.012c.07 1.677.04 3.356-.086 5.03a8.67 8.67 0 00-2.424-5.155 7.62 7.62 0 01.154 3.95 13.37 13.37 0 01-1.367-6.311 14.039 14.039 0 00.496 9.215 7.721 7.721 0 01-2.248-5.099l-.73 2.413a5.865 5.865 0 01-.255-1.87l-.511-.01c-.369.787-.634 1.62-.79 2.476l-.673-2.998a6.244 6.244 0 00-.711 4.314 15.01 15.01 0 00-3.65-6.492c1.699 1.77 1.943 4.444 2.041 6.896a.68.68 0 00.135.463c.156.114.351.16.541.127 3.169-.1 6.16 1.478 9.318 1.752 4.527.394 1.52-6.487.76-8.701zM7.436 4.835a30.007 30.007 0 00.19 5.27 5.806 5.806 0 01.809-3.495 7.146 7.146 0 00.235 4.026 4.121 4.121 0 011.516-2.68 3.726 3.726 0 00.783 3.12c.33-2.163.407-4.357.233-6.537a12.596 12.596 0 01.988 6.655c.847-.885 1.6-1.856 2.248-2.896-.288.93-.37 1.91-.241 2.875.566-2.028.853-4.124.852-6.23a9.28 9.28 0 011.322 5.605c.63-.805.97-1.798.968-2.82l.955 3.627c.484-.935.85-1.927 1.09-2.953.3.764.462 1.574.478 2.394.389-1.549.467-3.159.23-4.738a10.473 10.473 0 011.257 5.438 55.173 55.173 0 001.349-5.276 18.66 18.66 0 00.504 5.924c-3.66.807-7.445 1.617-11.125.909a12.097 12.097 0 00-4.307-.529.83.83 0 00-.462.293c-1.093-2.781-.015-5.23.128-7.982z"/>
    </g>
    <path d="M165.77 196.768l2.138 8.556c.08.319.364.544.693.548 3.418.044 21.44.277 22.47.277 1.137 0 .85-2.182-.569-2.843-3.518-1.637-12.29-4.4-14.188-6.299-2.124-2.125-10.545-.24-10.545-.24z" fill="#575770" fill-rule="nonzero"/>
    <path d="M176.204 195.987a2.6 2.6 0 01-.219 1.027c-.45.862-1.63.944-2.6.913l-6.723-.217a.72.72 0 01-.402-.093.705.705 0 01-.203-.288c-1.725-3.645-2.34-7.724-3.922-11.433-.88-2.062-2.053-4-2.763-6.125a30.04 30.04 0 01-1.151-7.947 31.802 31.802 0 003.767-.23c3.578-.363 7.28-.764 10.39-2.571 1.271-.74 2.606-1.944 4.126-2.092.2.892.258 1.81.172 2.72a239.076 239.076 0 01-.472 26.336zM123.225 197.487l-2.139 8.556a.723.723 0 01-.692.549c-3.418.044-21.441.277-22.47.277-1.137 0-.85-2.183.568-2.843 3.519-1.637 12.29-4.401 14.188-6.3 2.125-2.124 10.545-.239 10.545-.239z" fill="#575770" fill-rule="nonzero"/>
    <g transform="translate(162 47.251)" fill-rule="nonzero">
      <path fill="#4E4E4E" d="M.668 20.036L9.433 2.507l3.497 1.749-8.765 17.529z"/>
      <path fill="#01002B" d="M9.452 2.588l3.405 1.702h-2.071z"/>
      <path fill="#000" d="M8.618 4.254l2.163.046 1.242 1.657h-2.07z"/>
      <path fill="#000" d="M7.79 5.91l2.163.045 1.243 1.657H9.125zM6.957 7.576l2.162.046 1.243 1.656H8.29zM6.099 9.29l2.163.046 1.242 1.657h-2.07zM5.266 10.957l2.162.046L8.67 12.66H6.6z"/>
      <path fill="#000" d="M4.438 12.612l2.163.046 1.242 1.656H5.772zM3.604 14.278l2.163.046 1.242 1.657h-2.07z"/>
      <path fill="#000" d="M2.786 15.915l2.162.046 1.243 1.657H4.12zM1.952 17.582l2.163.046 1.242 1.656H3.286z"/>
      <path fill="#000" d="M1.124 19.237l2.163.046 1.242 1.656h-2.07z"/>
      <rect fill="#000" transform="rotate(26.574 11.294 3.16)" x="8.341" y="2" width="5.905" height="2.32" rx=".683"/>
    </g>
    <g transform="matrix(-1 0 0 1 124 47.251)" fill-rule="nonzero">
      <path fill="#4E4E4E" d="M.668 20.036L9.433 2.507l3.497 1.749-8.765 17.529z"/>
      <path fill="#01002B" d="M9.452 2.588l3.405 1.702h-2.071z"/>
      <path fill="#000" d="M8.618 4.254l2.163.046 1.242 1.657h-2.07z"/>
      <path fill="#000" d="M7.79 5.91l2.163.045 1.243 1.657H9.125zM6.957 7.576l2.162.046 1.243 1.656H8.29zM6.099 9.29l2.163.046 1.242 1.657h-2.07zM5.266 10.957l2.162.046L8.67 12.66H6.6z"/>
      <path fill="#000" d="M4.438 12.612l2.163.046 1.242 1.656H5.772zM3.604 14.278l2.163.046 1.242 1.657h-2.07z"/>
      <path fill="#000" d="M2.786 15.915l2.162.046 1.243 1.657H4.12zM1.952 17.582l2.163.046 1.242 1.656H3.286z"/>
      <path fill="#000" d="M1.124 19.237l2.163.046 1.242 1.656h-2.07z"/>
      <rect fill="#000" transform="rotate(26.574 11.294 3.16)" x="8.341" y="2" width="5.905" height="2.32" rx=".683"/>
    </g>
    <path d="M193.03 101.296a40.254 40.254 0 014.29 11.655c1.092 6.173.674 5.61.674 5.61l-7.572 1.63a.935.935 0 01-1.032-.49c-1.433-2.83-7.15-14.05-7.943-14.605-.908-.636 11.583-3.8 11.583-3.8z" fill="#575770" fill-rule="nonzero"/>
    <path d="M179.418 66.95s13.065 23.472 13.684 26.068c.618 2.596.947 7.154-.958 9.878-1.905 2.725-7.878 5.85-12.419 2.675-4.54-3.176-12.68-15.9-12.68-15.9l12.373-22.72zM178.34 154.148a30.819 30.819 0 011.595 9.488 15.827 15.827 0 01-3.555 8.677 10.79 10.79 0 01-4.514 3.626 11.503 11.503 0 01-5.789.537c-4.061-.562-8.162-1.786-10.62-5.137a17.701 17.701 0 01-2.716-7.05c-1.782-8.645-2.048-17.575-2.803-26.32a13.11 13.11 0 01-.117-1.356l7.925-2.222a61 61 0 017.092-1.675 24.86 24.86 0 013.664-.314 8.872 8.872 0 013.39.33c.778.362.844 1.35 1.041 2.055l1.03 3.688 2.06 7.375 2.318 8.298z" fill="#000" fill-rule="nonzero"/>
    <path d="M112.494 197.302a2.6 2.6 0 00.224 1.027c.454.859 1.634.936 2.605.9l6.721-.248a.72.72 0 00.402-.096.706.706 0 00.201-.288c1.709-3.653 2.304-7.735 3.869-11.452.87-2.065 2.034-4.008 2.735-6.137a30.04 30.04 0 001.113-7.952 31.806 31.806 0 01-3.768-.214c-3.58-.345-7.284-.729-10.401-2.522-1.276-.733-2.616-1.932-4.137-2.072a8.69 8.69 0 00-.159 2.72 238.965 238.965 0 00.595 26.334z" fill="#575770" fill-rule="nonzero"/>
    <path d="M111.62 154.301a32.271 32.271 0 00-1.36 9.47 16.652 16.652 0 003.465 8.678 10.555 10.555 0 004.294 3.636c1.732.676 3.615.87 5.448.558 3.808-.547 7.644-1.755 9.904-5.092a18.04 18.04 0 002.452-7.03c1.549-8.628 1.67-17.544 2.253-26.276.008-.12.134-1.34.09-1.353l-7.478-2.247a55.204 55.204 0 00-6.688-1.698 22.127 22.127 0 00-3.448-.327 7.825 7.825 0 00-3.18.317c-.727.359-.775 1.346-.95 2.05l-.914 3.678-1.83 7.358-2.057 8.278z" fill="#000" fill-rule="nonzero"/>
    <path d="M93.419 103.122a40.254 40.254 0 00-4.705 11.493c-1.313 6.13-.875 5.583-.875 5.583l7.51 1.901a.935.935 0 001.048-.454c1.533-2.776 7.648-13.785 8.461-14.31.93-.603-11.44-4.213-11.44-4.213z" fill="#575770" fill-rule="nonzero"/>
    <path d="M105.247 68.693S92.512 92.345 91.93 94.95c-.582 2.605-.847 7.166 1.096 9.864 1.944 2.697 7.96 5.739 12.455 2.5 4.496-3.239 12.457-16.077 12.457-16.077l-12.691-22.544zM87.297 125.812a6.653 6.653 0 002.7 4.905 3.8 3.8 0 00.941.48 4.69 4.69 0 002.489-.02 3.816 3.816 0 001.504-.62 2.3 2.3 0 00.885-1.783 1.568 1.568 0 01.03-.453c.093-.204.226-.387.39-.54a2.92 2.92 0 00.182-2.943c-.392-.957-1.036-1.795-1.42-2.755a1.168 1.168 0 00-.162-.317.773.773 0 00-.232-.18 4.705 4.705 0 00-1.861-.268c-1.277-.119-2.391-.87-3.66-1.026-.273-.033-.538-.097-.719.12-.183.309-.32.641-.405.989-.245.659-.43 1.338-.553 2.03a9.088 9.088 0 00-.11 2.38z" fill="#000" fill-rule="nonzero"/>
    <path d="M88.735 120.257c.117.005.233.017.349.035 1.268.157 2.382.907 3.659 1.026a4.705 4.705 0 011.861.268.773.773 0 01.232.18c.07.097.124.204.161.317.385.96 1.029 1.798 1.42 2.755a2.92 2.92 0 01-.181 2.943 1.687 1.687 0 00-.39.54 1.573 1.573 0 00-.03.453 2.3 2.3 0 01-.885 1.783 3.817 3.817 0 01-1.504.62 6.406 6.406 0 01-1.41.18c-.365.005-.73-.05-1.079-.16a3.8 3.8 0 01-.941-.48 6.652 6.652 0 01-2.7-4.905 9.092 9.092 0 01.11-2.381c.122-.692.307-1.371.551-2.03.087-.348.223-.68.406-.988a.444.444 0 01.37-.156m0-.844a1.275 1.275 0 00-1.019.461 2.959 2.959 0 00-.478 1.02c-.024.078-.047.152-.07.217-.262.706-.46 1.434-.592 2.175a9.935 9.935 0 00-.118 2.603 7.488 7.488 0 003.066 5.526c.354.248.742.444 1.152.583.434.139.887.207 1.343.203a7.201 7.201 0 001.596-.202 4.598 4.598 0 001.832-.773 3.13 3.13 0 001.213-2.447v-.11c-.001-.03-.003-.061-.002-.092.031-.039.064-.076.1-.111.042-.047.085-.094.125-.143a3.68 3.68 0 00.316-3.805 12.226 12.226 0 00-.75-1.457 10.442 10.442 0 01-.668-1.292 1.894 1.894 0 00-.292-.538 1.59 1.59 0 00-.48-.386 3.583 3.583 0 00-1.713-.345c-.16-.004-.318-.008-.474-.022a6.723 6.723 0 01-1.672-.47 8.57 8.57 0 00-1.962-.553l-.074-.01a2.876 2.876 0 00-.378-.032z" fill="#000" fill-rule="nonzero"/>
    <path d="M105.054 69.405a.69.69 0 01.087-1.103c4.015-2.52 21.214-12.83 33.83-12.83 14.203 0 34.78 3.606 41.959 11.822a.681.681 0 01.13.664c-1.062 3.198-8.705 26.336-9.628 31.869a95.975 95.975 0 00-.99 14.372c0 1.31 6.15 12.998 7.617 15.768a.69.69 0 01-.27.923c-3.224 1.835-19.214 10.567-31.632 10.567-12.52 0-33.11-8.876-37.015-10.61a.69.69 0 01-.34-.933l7.55-15.571a.69.69 0 00.07-.303c-.004-1.221-.04-9.152-.496-13.717-.471-4.712-5.87-26.443-10.872-30.918z" fill="#575770" fill-rule="nonzero"/>
    <path d="M115.59 62.529s32.797 30.112 44.196 44.98l2.478 3.469-13.381 3.47s-33.926-42.123-43.838-45.592l10.545-6.327z" fill="#45455B" fill-rule="nonzero"/>
    <path d="M170.917 61s-33.205 30.23-44.604 45.098l-2.478 3.47 13.381 3.469S174.01 67.8 180.97 67.379c0 0-3.106-2.735-4.429-3.585-1.243-.798-5.624-2.795-5.624-2.795z" fill="#4E4E67" fill-rule="nonzero"/>
    <path d="M116.223 103.866s30.309 17.519 54.624-.211l-.422 10.545s-21.571 15.197-53.991 0l-.211-10.334z" fill="#000" fill-rule="nonzero"/>
    <path d="M153.926 56.746c-1.322 1.543 9.837.51 8.338 1.88-4.371 3.99-12.576 11.932-17.248 15.574a58.855 58.855 0 01-14.781 8.571c-5.587 2.17-11.701 2.648-17.182 5.09-2.128-7.515-5.161-15.907-8.061-18.5a.694.694 0 01.086-1.104c4.016-2.518 21.215-12.83 33.832-12.83 5.07.021 10.132.412 15.145 1.17-.043.05-.087.098-.129.149z" fill="#000" fill-rule="nonzero" opacity=".2"/>
    <path d="M198.436 124.256a6.653 6.653 0 01-2.631 4.942 3.8 3.8 0 01-.935.493 4.691 4.691 0 01-2.488.015 3.816 3.816 0 01-1.513-.598 2.3 2.3 0 01-.91-1.77 1.568 1.568 0 00-.037-.453 1.687 1.687 0 00-.397-.535 2.92 2.92 0 01-.223-2.94c.379-.963 1.011-1.81 1.382-2.775.036-.113.089-.22.157-.319a.774.774 0 01.23-.183 4.705 4.705 0 011.857-.294c1.275-.137 2.378-.903 3.644-1.077.273-.038.537-.105.72.11.188.305.33.636.42.982.254.656.448 1.332.581 2.022.152.784.2 1.584.143 2.38z" fill="#000" fill-rule="nonzero"/>
    <path d="M196.932 118.722a.44.44 0 01.36.15c.188.305.33.636.42.982.254.656.448 1.332.581 2.022.152.784.2 1.584.143 2.38a6.653 6.653 0 01-2.631 4.942 3.802 3.802 0 01-.935.493 3.489 3.489 0 01-1.14.177 6.532 6.532 0 01-1.348-.162 3.816 3.816 0 01-1.513-.598 2.3 2.3 0 01-.91-1.77 1.565 1.565 0 00-.037-.453 1.687 1.687 0 00-.397-.535 2.92 2.92 0 01-.223-2.94c.379-.963 1.011-1.81 1.382-2.775.036-.113.089-.221.157-.319a.773.773 0 01.23-.183 4.705 4.705 0 011.857-.294c1.275-.137 2.378-.903 3.644-1.077.119-.021.24-.035.36-.04m0-.844a2.77 2.77 0 00-.401.037l-.074.011a8.566 8.566 0 00-1.954.58 6.723 6.723 0 01-1.665.494c-.156.017-.315.022-.474.028a3.583 3.583 0 00-1.709.37 1.59 1.59 0 00-.474.393c-.119.156-.212.33-.275.516-.188.457-.408.9-.658 1.326-.276.472-.52.963-.73 1.468a3.68 3.68 0 00.369 3.8c.04.048.084.094.127.14.036.036.07.073.101.111.002.03 0 .062 0 .093l.001.108a3.13 3.13 0 001.248 2.43c.552.381 1.18.636 1.842.748.5.113 1.012.174 1.525.18.48.005.958-.07 1.414-.222a4.597 4.597 0 001.144-.6 7.489 7.489 0 002.988-5.568 9.94 9.94 0 00-.155-2.6c-.142-.74-.35-1.465-.622-2.168-.024-.064-.048-.138-.074-.215a2.956 2.956 0 00-.492-1.014 1.271 1.271 0 00-1.002-.446z" fill="#000" fill-rule="nonzero"/>
    <path d="M106.826 37.478a15.56 15.56 0 00-.788 3.174 81.077 81.077 0 01-9.563-8.442 26.543 26.543 0 00-2.876 7.91 197.437 197.437 0 0114.505 6.524c.23-1.21.605-2.388 1.116-3.509 1.338.117 2.68.203 4.022.256.997.04 3.415.557 4.295.106-.784-.61-9.37-4.943-10.499-6.063a.129.129 0 00-.212.044zM114.818 26.677a9.714 9.714 0 00-1.173 1.671 50.613 50.613 0 01-3.669-7.068 16.57 16.57 0 00-3.455 3.959 123.25 123.25 0 016.978 7.063 9.585 9.585 0 011.44-1.792c.753.37 1.514.721 2.284 1.054.571.248 1.864 1.093 2.477 1.029-.32-.532-4.344-4.987-4.749-5.893a.08.08 0 00-.133-.023zM121.316 17.602c-.383.164-.747.369-1.087.61a30.917 30.917 0 01-.154-4.862c-1.044.263-2.04.691-2.949 1.268a75.287 75.287 0 011.978 5.734 5.856 5.856 0 011.266-.607c.318.402.644.797.98 1.184.25.287.738 1.094 1.093 1.22-.035-.377-1.075-3.894-1.06-4.5a.05.05 0 00-.067-.047zM180.122 36.337a15.56 15.56 0 01.787 3.173 81.075 81.075 0 009.563-8.442 26.543 26.543 0 012.877 7.91 197.434 197.434 0 00-14.506 6.524 15.354 15.354 0 00-1.116-3.508 84.807 84.807 0 01-4.022.255c-.996.04-3.415.557-4.294.106.784-.61 9.37-4.942 10.498-6.062a.129.129 0 01.213.043zM172.13 25.536a9.714 9.714 0 011.172 1.67 50.613 50.613 0 003.67-7.067 16.57 16.57 0 013.454 3.958 123.253 123.253 0 00-6.978 7.064 9.585 9.585 0 00-1.44-1.792c-.753.37-1.514.72-2.284 1.054-.571.247-1.863 1.093-2.477 1.028.32-.532 4.344-4.987 4.749-5.893a.08.08 0 01.134-.022zM164.545 17.546c.383.165.747.37 1.087.61.18-1.613.23-3.239.154-4.861 1.044.263 2.04.69 2.949 1.268a75.321 75.321 0 00-1.978 5.733 5.854 5.854 0 00-1.266-.606c-.318.402-.644.796-.98 1.183-.25.288-.738 1.094-1.093 1.22.035-.376 1.075-3.893 1.06-4.5a.05.05 0 01.067-.047z" fill="#F7B500"/>
    <path d="M144.135 13c-10.763 0-19.58 11.368-20.365 25.79-2.36.602-4.247 2.568-2.333 7.593 1.017 2.669 1.713 3.503 3.574 4.295 2.904 10.567 10.37 18.088 19.124 18.088 11.28 0 20.422-12.484 20.422-27.883 0-15.4-9.143-27.883-20.422-27.883z" fill="#575770"/>
    <path d="M123.733 38.79c-2.36.602-4.248 2.568-2.333 7.593 1.016 2.669 1.713 3.503 3.573 4.295 2.905 10.567 10.371 18.088 19.125 18.088.836 0 1.672-.07 2.497-.208 2.11-2.444 3.172-6.174 3.889-9.023 2.283-9.073 1.912-19.088 1.492-28.447a35.428 35.428 0 00-1.735-10.155 22.02 22.02 0 00-1.449-3.274 18.157 18.157 0 00-2.738-3.797c-.281-.29-.577-.565-.886-.824a15.21 15.21 0 00-1.07-.038c-10.763 0-19.581 11.368-20.365 25.79z" fill="#373748"/>
    <path d="M162.731 35.275a8.356 8.356 0 01.477 4.775c-.21 2.144-.672 6.683-3.493 6.996a6.734 6.734 0 01-3.839-.992 8.505 8.505 0 00-6.398-.7c-1.42.455-2.704 1.235-4.092 1.768a17.634 17.634 0 01-4.624.923c-.493.06-.992.057-1.484-.009-2.39-.397-3.749-3.248-4.047-5.433-.303-2.212-.06-5.714 1.455-7.492 1.823-2.139 5.103-2.276 7.697-2.398 4.152-.195 8.334-.004 12.49.044 2.464.028 4.8.565 5.858 2.518z" fill="#EEBDAA"/>
    <path d="M144.383 32.713c-2.594.122-5.874.259-7.697 2.398-1.515 1.778-1.758 5.28-1.455 7.492.298 2.185 1.656 5.036 4.047 5.433.492.066.991.07 1.484.009 1.576-.1 3.13-.41 4.624-.923 1.388-.533 2.672-1.313 4.092-1.768a7.347 7.347 0 012.858-.322c.1-4.142-.041-8.306-.217-12.363-2.581-.05-5.165-.077-7.736.044z" fill="#D19F93"/>
    <path d="M145.125 37.64a2.871 2.871 0 00-.66-.497c-.238-.149-.48-.293-.718-.444-.475-.299-.96-.595-1.412-.93l-.333.571c.234.17.473.334.704.51.22.173.451.331.693.472.564.275 1.15.505 1.75.687l.085-.632a5.14 5.14 0 01-3.284-1.085.338.338 0 00-.46.12.344.344 0 00.12.46 5.98 5.98 0 003.624 1.149.321.321 0 00.086-.632l-.845-.335a5.93 5.93 0 01-.783-.34c-.478-.274-.872-.685-1.357-.944-.374-.2-.707.366-.333.57.493.27.972.567 1.465.839.247.135.494.272.744.4.241.14.503.241.776.299a.144.144 0 00.138-.238zM155.566 37.401c.273-.057.535-.158.776-.299.25-.128.497-.264.744-.4.493-.271.971-.57 1.465-.839.374-.203.042-.77-.333-.57-.486.26-.879.67-1.357.945a5.712 5.712 0 01-.755.329l-.873.345a.322.322 0 00.086.632 5.98 5.98 0 003.623-1.148.346.346 0 00.12-.46.338.338 0 00-.459-.12 5.141 5.141 0 01-3.285 1.085l.086.632c.6-.182 1.186-.412 1.75-.687.242-.141.473-.3.693-.473.231-.175.47-.34.704-.51l-.333-.57c-.451.335-.937.63-1.412.93-.239.15-.48.295-.72.444-.242.132-.464.3-.658.497a.144.144 0 00.138.237z" fill="#01002B" fill-rule="nonzero"/>
    <g transform="translate(141 38.251)" fill-rule="nonzero">
      <path d="M2.78.361a2.153 2.153 0 00-2 2.36 2.027 2.027 0 104 0 2.153 2.153 0 00-2-2.36z" fill="#01002B"/>
      <ellipse fill="#FFF" cx="2.78" cy="2.72" rx="1.305" ry="1.828"/>
    </g>
    <g transform="translate(155 38.251)" fill-rule="nonzero">
      <path d="M2.362.007a2.153 2.153 0 00-2 2.36 2.027 2.027 0 104 0 2.153 2.153 0 00-2-2.36z" fill="#01002B"/>
      <ellipse fill="#FFF" cx="2.362" cy="2.367" rx="1.305" ry="1.828"/>
    </g>
  </g>
</svg>
