<?xml version="1.0" encoding="UTF-8"?>
<svg width="73px" height="80px" viewBox="0 0 73 80" version="1.1" xmlns="http://www.w3.org/2000/svg" xmlns:xlink="http://www.w3.org/1999/xlink">
    <title>Group 15</title>
    <g id="Settings" stroke="none" stroke-width="1" fill="none" fill-rule="evenodd">
        <g id="Selective-dialog" transform="translate(-604.000000, -300.000000)">
            <g id="Group-15" transform="translate(604.000000, 300.000000)">
                <g id="Group-10">
                    <path d="M0.307828489,55.052275 C5.83540239,48.9050685 22.6952754,41.4884431 35.2914809,41.4884431 C47.8876863,41.4884431 65.8093631,47.7334921 72.176776,55.052275 C72.316666,55.2150298 65.0087576,70.1758938 36.2424636,70.1758938 C7.47616963,70.1758938 0.204229781,55.167487 0.307828489,55.052275 Z" id="Path" fill="#57576E" fill-rule="nonzero"></path>
                    <path d="M0.307828489,55.052275 C5.83540239,48.9050685 22.6952754,41.4882037 35.2914809,41.4882037 C35.7734177,49.6316684 35.8602775,62.6195878 36.2424636,70.1758938 C7.47616963,70.1758938 0.204229781,55.167487 0.307828489,55.052275 Z" id="Path" fill="#464557" fill-rule="nonzero"></path>
                    <g id="Group-2" transform="translate(0.000000, 34.666667)">
                        <path d="M42.5417732,0.567531164 L48.7639954,0.567531164 C50.3144879,5.47768074 51.3481495,10.8572881 51.8649803,16.7063533 C52.3818111,22.5554184 52.3818111,28.8739414 51.8649803,35.6619222 C51.6022391,37.0151599 50.5685775,38.1622525 48.7639954,39.1031999 C46.9594134,40.0441473 44.8853393,40.5174941 42.5417732,40.5232403 C43.4345726,33.8639555 43.8809723,27.2046706 43.8809723,20.5453858 C43.8809723,13.8861009 43.4345726,7.22681603 42.5417732,0.567531164 Z" id="Rectangle-Copy" fill="#2B2A37"></path>
                        <path d="M19.2204466,3.25391146 C13.1244905,6.05241416 12.6046167,10.6186841 17.6608252,16.9527214 C25.2451379,26.4537773 47.3733082,26.1126662 54.086755,15.8035759 C58.5623862,8.93084907 56.4313516,3.66299042 47.6936513,0 L19.2204466,3.25391146 Z" id="Path-4" fill="#464557"></path>
                        <path d="M49.370007,10.0356462 C30.8397415,23.3888513 19.1238133,30.5700709 14.2222222,31.579305 C7.35044077,28.6423747 2.71194734,24.9111425 0.306741951,20.3856084 C3.13455476,17.3124283 7.91625902,14.3669027 14.6518547,11.5490316 C13.1628411,7.84529622 15.6601555,4.37618001 19.6709139,3.15791829 C28.4857226,0.480433649 38.3854203,2.77300962 49.370007,10.0356462 Z" id="Path-2" fill="#000000" opacity="0.5"></path>
                        <path d="M46.9862177,5.01197561 L53.2084399,5.01197561 C54.7589323,9.92212519 55.792594,15.3017326 56.3094248,21.1507977 C56.8262556,26.9998629 56.8262556,33.3183858 56.3094248,40.1063666 C56.0466836,41.4596044 55.0130219,42.606697 53.2084399,43.5476444 C51.4038578,44.4885918 49.3297838,44.9619386 46.9862177,44.9676848 C47.8790171,38.3083999 48.3254168,31.6491151 48.3254168,24.9898302 C48.3254168,18.3305453 47.8790171,11.6712605 46.9862177,5.01197561 Z" id="Rectangle" fill="#464557"></path>
                    </g>
                    <path d="M55.6907878,20.764844 C55.5110337,20.7619608 55.3330381,20.8007466 55.1706313,20.8781877 C53.4190602,8.97562641 45.6065781,2.65271083e-05 36.2325635,2.65271083e-05 C26.8713836,2.65271083e-05 19.0670883,8.95102252 17.3014281,20.8293579 C17.1733903,20.7841041 17.0383153,20.7622632 16.9026073,20.7648705 C15.5565914,20.7984539 14.5268089,23.3091187 14.6024506,26.372655 C14.6759004,29.3443146 16.2721078,32.5668145 17.5962638,32.726773 C19.8179993,43.7569837 27.3192457,51.8723824 36.2325635,51.8723824 C45.1444882,51.8723824 52.6445793,43.7597292 54.8677012,32.7323238 L54.8751023,32.7331063 C56.2211183,32.7666565 57.9151839,29.4361581 57.9909445,26.372655 C58.0665664,23.3090922 57.0367773,20.7984273 55.6907878,20.764844 Z" id="Path" fill="#57576E"></path>
                    <path d="M36.3052342,0.00217522294 C36.2808852,0.00206248273 36.2568861,0 36.2325371,0 C26.8713572,0 19.0670619,8.95099599 17.3014017,20.8293314 C17.1733639,20.7840776 17.0382889,20.7622366 16.9025809,20.764844 C15.5565649,20.7984273 14.5267825,23.3090922 14.6024242,26.3726284 C14.675874,29.344288 16.2720814,32.566788 17.5962374,32.7267465 C19.8179728,43.7569572 27.3192193,51.8723558 36.2325371,51.8723558 C36.2568861,51.8723558 36.2808852,51.8704127 36.3052342,51.8702934 L36.3052342,0.00217522294 Z" id="Path" fill="#464557"></path>
                    <path d="M50.9476945,21.7495038 C49.2399887,19.7368588 46.1675232,19.6075458 43.7381609,19.4929288 L28.8284358,19.4929288 C26.3991329,19.6075458 23.3266674,19.7368588 21.6188955,21.7495038 C20.1997203,23.4220712 19.9722009,26.7166121 20.2558194,28.7985856 C20.5357935,30.853601 21.8074948,33.5359626 24.0469242,33.9099019 C24.5079957,33.9722568 24.9751179,33.9750582 25.4368978,33.9182381 C26.9126769,33.8247266 28.3692743,33.5325953 29.7676489,33.0496742 C31.0683868,32.5486567 32.2710354,31.8149169 33.6010938,31.3863714 C34.1004606,31.2256412 34.6167158,31.1236871 35.1394921,31.0825564 C35.6667658,31.0410681 36.197948,31.0593452 36.7262979,31.0615934 L36.823179,31.0620046 C37.3397345,31.0599542 37.8550175,31.1135918 38.3601776,31.2219962 C38.5643757,31.2673576 38.7661838,31.3221493 38.9656019,31.3863714 C40.2955415,31.8149169 41.4982495,32.5486567 42.798928,33.0496742 C44.1973228,33.5325961 45.6539399,33.8247273 47.1297385,33.9182381 C47.5915162,33.9750583 48.0586362,33.9722568 48.5197055,33.9099019 C50.7591415,33.5359626 52.0307702,30.853601 52.3108169,28.7985856 C52.5944486,26.7166121 52.3669358,23.4220712 50.9476945,21.7495038 Z" id="Path" fill="#E6BFAD"></path>
                    <path d="M36.3015502,19.4933002 L36.3015502,31.057548 C35.9130223,31.0551672 35.5245538,31.0527864 35.1384555,31.0813362 C34.6160528,31.1232343 34.1001917,31.2254246 33.6010674,31.3858873 C32.2697348,31.8142006 31.0687103,32.5471115 29.7682035,33.049137 C28.3691118,33.5318231 26.9119137,33.8239283 25.4355443,33.9176479 C24.9744275,33.9747615 24.5079295,33.9723612 24.0474194,33.9105054 C21.8064846,33.5345301 20.5367508,30.8528648 20.2548687,28.7970338 C19.9729535,26.7150006 20.2003871,23.4217993 21.6193379,21.7490263 C23.3272748,19.73601 26.3996875,19.607506 28.827769,19.4933002 L36.3015502,19.4933002 Z" id="Path" fill="#C9A195"></path>
                    <path d="M41.8688756,23.0359879 C42.1545738,23.0068633 42.434977,22.9321159 42.7013928,22.8140627 C42.9780627,22.7105289 43.2531901,22.6021155 43.5304302,22.500373 C44.0830975,22.2975366 44.640553,22.0824444 45.2057284,21.9263453 L44.9689587,21.2136296 C44.6778215,21.2974909 44.3895939,21.3890202 44.0965486,21.4660889 C43.8126981,21.5341796 43.5335592,21.6245006 43.2612316,21.7363726 C42.6690589,22.0357508 42.0994179,22.3871378 41.5577518,22.7871761 L42.0072398,23.3249877 C42.7672027,22.2499859 43.8394395,21.4999281 45.0417193,21.2022897 C45.221514,21.1276039 45.3136091,20.9063879 45.2482384,20.7062224 C45.1782838,20.5095652 44.9812015,20.4086953 44.8008412,20.4772371 C43.4940598,20.8495101 42.3324289,21.6841765 41.4921481,22.8546316 C41.3876413,22.997683 41.394041,23.204209 41.5071564,23.3389699 C41.6210407,23.4714437 41.8043141,23.4940101 41.9416362,23.3924674 L42.7665725,22.8868273 C43.019332,22.7172446 43.2827846,22.5680786 43.5548836,22.4404883 C44.0897792,22.2160665 44.6782455,22.167708 45.2057065,21.9263129 C45.6126918,21.7400526 45.3788975,21.0307412 44.9689368,21.2135971 C44.4277908,21.4549598 43.8736614,21.6619625 43.3314554,21.9014609 C43.0602391,22.0212547 42.7882917,22.1406756 42.5204235,22.2693532 C42.2491616,22.380515 41.9957235,22.5391697 41.7697537,22.7392797 C41.7171601,22.7831527 41.6967854,22.860108 41.7196449,22.9285409 C41.7425045,22.9969737 41.8031741,23.0406462 41.8688537,23.0359474 L41.8688756,23.0359879 Z" id="Path" fill="#010029" fill-rule="nonzero" transform="translate(43.417847, 21.955785) scale(1, -1) rotate(-316.000000) translate(-43.417847, -21.955785) "></path>
                    <path d="M30.5723152,22.8500832 C30.3291939,22.9400912 30.0744,22.9943381 29.8158319,23.0111426 C29.5539942,23.0426701 29.2917009,23.069993 29.0300216,23.1030657 C28.5083531,23.1689922 27.9785178,23.2277431 27.463062,23.3330491 L27.4062829,22.7142446 C27.6730129,22.6625167 27.9400796,22.6176328 28.2059909,22.5601685 C28.4612628,22.499659 28.7204846,22.4574059 28.9817065,22.433727 C29.5693983,22.4236889 30.1569487,22.4608546 30.7387441,22.544869 L30.5607943,23.1175229 C29.5644742,22.6202217 28.4274585,22.4848021 27.3429873,22.7342792 C27.1702464,22.7492917 27.0176483,22.621872 27.0007806,22.4485358 C26.988889,22.2759996 27.114196,22.1245819 27.2852442,22.1047975 C28.4810711,21.8696527 29.7206212,22.0326745 30.8158713,22.5691346 C30.9512068,22.6339914 31.0183708,22.7890213 30.9733807,22.9327019 C30.9269602,23.0749916 30.7854522,23.1631897 30.6379149,23.1417886 L29.7881752,23.0903525 C29.5226788,23.0637671 29.2556202,23.0564355 28.9890745,23.0684146 C28.4743517,23.1114615 27.9776595,23.305441 27.4630488,23.3330225 C27.065971,23.3543172 27.0079771,22.7391933 27.4062697,22.714218 C27.9320249,22.6812515 28.4563342,22.6178318 28.982294,22.5830746 C29.2453796,22.5656861 29.5089207,22.5477405 29.7724223,22.538204 C30.0325297,22.5144224 30.2947506,22.5326701 30.5491083,22.592253 C30.607374,22.604117 30.6509683,22.6530056 30.6563159,22.7124803 C30.6616636,22.771955 30.6274953,22.8278983 30.5722888,22.8500567 L30.5723152,22.8500832 Z" id="Path" fill="#010029" fill-rule="nonzero" transform="translate(28.993647, 22.666781) scale(1, -1) translate(-28.993647, -22.666781) "></path>
                    <ellipse id="Oval" stroke="#010029" stroke-width="0.7" fill="#FFFFFF" cx="43.3762878" cy="27" rx="2.05" ry="2.65"></ellipse>
                    <ellipse id="Oval" stroke="#010029" stroke-width="0.7" fill="#FFFFFF" cx="29.3762878" cy="27" rx="2.05" ry="2.65"></ellipse>
                </g>
                <path d="M18.1464844,8.91992188 C16.813151,7.91992188 15.4798178,6.91992188 14.1464844,5.91992188" id="Path-15" stroke="#EB9300" stroke-linecap="round"></path>
                <path d="M15.7773437,12.6586914 C13.159668,11.9108073 10.5419922,11.1629232 7.92431641,10.4150391" id="Path-16" stroke="#EB9300" stroke-linecap="round"></path>
                <path d="M15.0166016,17.4160156 C12.6777342,17.4720052 10.3388673,17.5279948 8,17.5839844" id="Path-21" stroke="#EB9300" stroke-linecap="round"></path>
                <path d="M58,18.3325195 C60.0735678,18.4441732 62.1471353,18.5558268 64.2207031,18.6674805" id="Path-7" stroke="#EB9300" stroke-linecap="round"></path>
                <path d="M56,13.932373 C59.656901,13.6441243 63.3138021,13.3558757 66.9707031,13.067627" id="Path-9" stroke="#EB9300" stroke-linecap="round"></path>
                <path d="M55,10 C56.6666668,9.33333329 58.3333332,8.66666671 60,8" id="Path-10" stroke="#EB9300" stroke-linecap="round"></path>
            </g>
        </g>
    </g>
</svg>