<svg xmlns="http://www.w3.org/2000/svg" xmlns:xlink="http://www.w3.org/1999/xlink" width="153" height="198" viewBox="0 0 153 198">
  <defs>
    <linearGradient id="e" x1="53.005%" x2="26.754%" y1="60.478%" y2="4.074%">
      <stop offset="0%" stop-color="#191849"/>
      <stop offset="100%" stop-color="#01002B"/>
    </linearGradient>
    <linearGradient id="f" x1="53.871%" x2="41.739%" y1="77.93%" y2="3.748%">
      <stop offset="0%" stop-color="#191849"/>
      <stop offset="100%" stop-color="#01002B"/>
    </linearGradient>
    <linearGradient id="i" x1="45.105%" x2="56.645%" y1="93.516%" y2="1.322%">
      <stop offset="0%" stop-color="#191849"/>
      <stop offset="100%" stop-color="#01002B"/>
    </linearGradient>
    <linearGradient id="l" x1="39.087%" x2="65.137%" y1="85.03%" y2="18.467%">
      <stop offset="0%" stop-color="#191849"/>
      <stop offset="100%" stop-color="#01002B"/>
    </linearGradient>
    <linearGradient id="m" x1="50.391%" x2="45.996%" y1="57.718%" y2="-26.877%">
      <stop offset="0%" stop-color="#EEBDAA"/>
      <stop offset="100%" stop-color="#B56C8F"/>
    </linearGradient>
    <linearGradient id="n" x1="50%" x2="50%" y1="79.339%" y2="-30.32%">
      <stop offset="0%" stop-color="#191849"/>
      <stop offset="100%" stop-color="#01002B"/>
    </linearGradient>
    <linearGradient id="o" x1="81.404%" x2="-139.732%" y1="78.901%" y2="-110.017%">
      <stop offset="0%" stop-color="#191849"/>
      <stop offset="97.258%" stop-color="#01002B"/>
    </linearGradient>
    <linearGradient id="p" x1="92.25%" x2="-96.3%" y1="13.166%" y2="185.076%">
      <stop offset="0%" stop-color="#191849"/>
      <stop offset="100%" stop-color="#01002B"/>
    </linearGradient>
    <linearGradient id="r" x1="49.585%" x2="51.978%" y1="65.762%" y2="-18.094%">
      <stop offset="0%" stop-color="#EEBDAA"/>
      <stop offset="100%" stop-color="#B56C8F"/>
    </linearGradient>
    <linearGradient id="s" x1="99.23%" x2="6.868%" y1="65.811%" y2="42.603%">
      <stop offset="0%" stop-color="#FCC000"/>
      <stop offset="100%" stop-color="#FF8500"/>
    </linearGradient>
    <linearGradient id="t" x1="95.327%" x2="13.371%" y1="94.883%" y2="27.51%">
      <stop offset="0%" stop-color="#FCC000"/>
      <stop offset="100%" stop-color="#FF8500"/>
    </linearGradient>
    <linearGradient id="u" x1="63.646%" x2="41.546%" y1="105.942%" y2="8.791%">
      <stop offset="0%" stop-color="#FCC000"/>
      <stop offset="100%" stop-color="#FF8500"/>
    </linearGradient>
    <linearGradient id="v" x1=".77%" x2="93.131%" y1="65.811%" y2="42.603%">
      <stop offset="0%" stop-color="#FCC000"/>
      <stop offset="100%" stop-color="#FF8500"/>
    </linearGradient>
    <linearGradient id="w" x1="4.583%" x2="86.538%" y1="94.942%" y2="27.569%">
      <stop offset="0%" stop-color="#FCC000"/>
      <stop offset="100%" stop-color="#FF8500"/>
    </linearGradient>
    <linearGradient id="x" x1="36.272%" x2="58.372%" y1="105.907%" y2="8.756%">
      <stop offset="0%" stop-color="#FCC000"/>
      <stop offset="100%" stop-color="#FF8500"/>
    </linearGradient>
    <linearGradient id="y" x1="68.213%" x2="-9.945%" y1="42.596%" y2="78.652%">
      <stop offset="0%" stop-color="#191849"/>
      <stop offset="100%" stop-color="#01002B"/>
    </linearGradient>
    <linearGradient id="z" x1="-30.111%" x2="113.612%" y1="50%" y2="50%">
      <stop offset="0%" stop-color="#191849"/>
      <stop offset="100%" stop-color="#01002B"/>
    </linearGradient>
    <linearGradient id="A" x1="22.691%" x2="181.705%" y1="50%" y2="50%">
      <stop offset="0%" stop-color="#B56C8F"/>
      <stop offset="100%" stop-color="#EEBDAA"/>
    </linearGradient>
    <path id="a" d="M18.606 29.903a2.6 2.6 0 01-.218 1.027c-.451.862-1.63.944-2.602.913l-6.722-.217a.72.72 0 01-.402-.093.705.705 0 01-.203-.288C6.734 27.6 6.12 23.521 4.537 19.812c-.879-2.062-2.053-4-2.763-6.125A30.04 30.04 0 01.624 5.74a31.802 31.802 0 003.766-.23c3.578-.363 7.28-.764 10.39-2.572 1.271-.74 2.607-1.944 4.126-2.09.2.89.258 1.808.172 2.718a239.063 239.063 0 01-.472 26.337z"/>
    <path id="c" d="M11.63.904a40.254 40.254 0 014.29 11.655c1.092 6.173.674 5.61.674 5.61L9.022 19.8a.935.935 0 01-1.032-.49C6.557 16.48.84 5.258.047 4.703-.86 4.07 11.63.904 11.63.904z"/>
    <path id="g" d="M1.55 29.995a2.6 2.6 0 00.223 1.026c.455.86 1.634.936 2.606.9l6.72-.248a.72.72 0 00.402-.095.706.706 0 00.202-.288c1.708-3.654 2.304-7.735 3.868-11.452.87-2.066 2.035-4.009 2.735-6.137a30.04 30.04 0 001.113-7.953 31.806 31.806 0 01-3.767-.213c-3.58-.345-7.284-.729-10.402-2.522C3.975 2.279 2.634 1.08 1.114.94a8.69 8.69 0 00-.16 2.72 238.964 238.964 0 00.595 26.334z"/>
    <path id="j" d="M5.688.863A40.254 40.254 0 00.982 12.357C-.33 18.487.108 17.94.108 17.94l7.509 1.9a.935.935 0 001.048-.453C10.2 16.61 16.314 5.602 17.127 5.076c.93-.602-11.44-4.213-11.44-4.213z"/>
    <radialGradient id="q" r="247.358%" fx="50%" fy="50%" gradientTransform="matrix(.3167 0 0 1 .342 0)">
      <stop offset="0%" stop-color="#191849"/>
      <stop offset="100%" stop-color="#01002B"/>
    </radialGradient>
  </defs>
  <g fill="none" fill-rule="evenodd">
    <g fill="#B9C5C9" fill-rule="nonzero" transform="translate(0 180)">
      <ellipse cx="76.258" cy="13.493" rx="76.253" ry="3.987"/>
      <path d="M122.976 3.052a8.519 8.519 0 00-1.937 6.712 6.07 6.07 0 011.917-4.086 5.631 5.631 0 00-.22 3.661 5.566 5.566 0 012.398-3.012 2.5 2.5 0 00.358 3.424 17.479 17.479 0 011.244-5.574c.482 1.67.732 3.396.744 5.133a8.548 8.548 0 012.649-3.785 13.482 13.482 0 00-1.058 4.86 10.295 10.295 0 014.34-4.279 13.285 13.285 0 00-2.503 6.335l-7.14.115c-1.17.02-5.516.737-6.157-.325-.895-1.485 3.692-9.179 5.365-9.179zm12.712 5.734c.339.804.761 1.571 1.26 2.287a20.43 20.43 0 00.346-3.106 4.41 4.41 0 01.937 2.037c.213-2.223.15-4.464-.189-6.671.123.931.374 1.841.745 2.704.53 1.547.811 3.17.83 4.805a6.922 6.922 0 012.063-3.104 8.06 8.06 0 01-.096 3.231 5.637 5.637 0 012.402-2.988 7.412 7.412 0 00-1.063 3.531 3.93 3.93 0 012.492-1.936 7.467 7.467 0 00-1.854 3.737c-2.104-.518-4.311-.142-6.349-.567-1.977-.413-.817-2.28-1.524-3.96zm-27.8 3.65c.996-1.497 1.41-3.722 2.852-5.05a10.523 10.523 0 00-3 2.958 37.32 37.32 0 01.405-5.448c-1.116.207-1.658 2.656-1.875 3.645-.519-2.011-.061-4.33-.196-6.406-1.041 1.762-1.063 3.955-1.61 5.799-.855-.525-.827-2.363-1.775-3.055-.069 1.18.313 2.355.233 3.567-.878-.764-.743-2.127-2.149-2.593-.11.984.496 1.932.363 2.971-.606-.761-1.15-1.928-2.3-1.725.106 1.136 1.45 1.899 1.655 3.117 1.77-.057 3.527.33 5.11 1.125.503.29.967.681 1.461.995a1.3 1.3 0 00.826.1zM76.145.79a8.519 8.519 0 00-1.937 6.712 6.07 6.07 0 011.917-4.086 5.631 5.631 0 00-.22 3.662 5.566 5.566 0 012.398-3.012 2.5 2.5 0 00.358 3.423 17.479 17.479 0 011.244-5.573c.482 1.668.733 3.396.744 5.133a8.548 8.548 0 012.649-3.785 13.482 13.482 0 00-1.057 4.859 10.295 10.295 0 014.339-4.279 13.285 13.285 0 00-2.503 6.335l-7.139.116c-1.171.019-5.517.737-6.158-.326C69.885 8.484 74.472.79 76.145.79z"/>
      <path d="M84.68 6.734c.338.805.76 1.571 1.26 2.287.193-1.024.31-2.063.345-3.105a4.41 4.41 0 01.936 2.036c.213-2.223.15-4.463-.188-6.67.123.93.373 1.84.745 2.703.53 1.548.81 3.17.83 4.805a6.922 6.922 0 012.063-3.104 8.06 8.06 0 01-.096 3.231 5.637 5.637 0 012.402-2.988 7.412 7.412 0 00-1.063 3.531 3.93 3.93 0 012.492-1.935 7.467 7.467 0 00-1.854 3.736c-2.104-.517-4.311-.141-6.349-.567-1.977-.413-.817-2.28-1.524-3.96zM69.785 1.217a21.59 21.59 0 01-.318 6.003 6.987 6.987 0 00-.6-3.187 7.605 7.605 0 01-.472 4.72 10.392 10.392 0 00-1.232-2.698 3.547 3.547 0 00-.216 1.904c.1.652-.137 1.31-.629 1.748.01-2.147-1.664-3.881-3.222-5.359a4.508 4.508 0 01.731 3.562c-.222-.612-.529-1.305-1.157-1.476a1.396 1.396 0 00-1.409.598 4.099 4.099 0 00-.59 1.503 15.789 15.789 0 01.752-6.687 13.986 13.986 0 00-1.709 10.23 10.224 10.224 0 015.444-.398c1.95.264 5.503 1.492 6.149-1.207.728-3.044-1.266-6.326-1.522-9.256zM57.244 2.389l.261 5.89-1.239-2.943-1.17 2.551a10.579 10.579 0 01-.781-4.622 15.86 15.86 0 00-.524 7.32 19.429 19.429 0 01-1.593-6.927 24.494 24.494 0 00-.408 4.934l-1.076-1.618-.597 1.478a29.872 29.872 0 01-.755-8.194 38.396 38.396 0 00-.574 9.258c-.424-.96-.67-1.992-1.11-2.946a4.09 4.09 0 00-2.111-2.228 5.752 5.752 0 011.717 4.42 7.64 7.64 0 00-3.104-1.094 3.564 3.564 0 011.064 2.939 5.131 5.131 0 00-2.891-2.353c.93 1.984 3.454 2.521 5.63 2.776 2.967.347 6.98.964 9.788-.415 2.492-1.223.015-6.116-.527-8.226zM38.355 4.012c.07 1.677.04 3.356-.086 5.03a8.67 8.67 0 00-2.424-5.155 7.62 7.62 0 01.154 3.95 13.37 13.37 0 01-1.367-6.311 14.039 14.039 0 00.496 9.215 7.721 7.721 0 01-2.248-5.099l-.73 2.413a5.865 5.865 0 01-.255-1.87l-.511-.01c-.369.787-.634 1.62-.79 2.476l-.673-2.998a6.244 6.244 0 00-.711 4.314 15.01 15.01 0 00-3.65-6.492c1.699 1.77 1.943 4.444 2.041 6.896a.68.68 0 00.135.463c.156.114.351.16.541.127 3.169-.1 6.16 1.478 9.318 1.752 4.527.394 1.52-6.487.76-8.701zm-30.92.823a30.007 30.007 0 00.19 5.27 5.806 5.806 0 01.81-3.495 7.146 7.146 0 00.235 4.026 4.121 4.121 0 011.516-2.68 3.726 3.726 0 00.783 3.12c.33-2.163.407-4.357.233-6.537a12.596 12.596 0 01.988 6.655c.847-.885 1.6-1.856 2.248-2.896-.288.93-.37 1.91-.241 2.875.566-2.028.853-4.124.852-6.23a9.28 9.28 0 011.322 5.605c.63-.805.97-1.798.968-2.82l.955 3.627c.484-.935.85-1.927 1.09-2.953.3.764.462 1.574.478 2.394.389-1.549.467-3.159.23-4.738a10.473 10.473 0 011.257 5.438 55.173 55.173 0 001.349-5.276 18.66 18.66 0 00.504 5.924c-3.66.807-7.445 1.617-11.125.909a12.097 12.097 0 00-4.307-.529.83.83 0 00-.462.293c-1.093-2.781-.015-5.23.128-7.982z"/>
    </g>
    <path fill="#01002B" fill-rule="nonzero" d="M97.77 184.517l2.138 8.556c.08.319.364.544.693.548 3.418.044 21.44.277 22.47.277 1.137 0 .85-2.182-.569-2.843-3.518-1.637-12.29-4.4-14.188-6.3-2.124-2.124-10.545-.238-10.545-.238z"/>
    <g transform="translate(89.598 153.833)">
      <mask id="b" fill="#fff">
        <use xlink:href="#a"/>
      </mask>
      <use fill="#01002B" fill-rule="nonzero" xlink:href="#a"/>
      <path fill="#191849" fill-rule="nonzero" d="M20.44 24.96c-.29.32-.596.623-.92.909-.3.327-.624.637-.913.976a52.01 52.01 0 01-1.838 2.023 37.707 37.707 0 01-4.01 3.658 49.76 49.76 0 01-2.412 1.782.555.555 0 00-.194.74.547.547 0 00.74.194 33.556 33.556 0 008.174-7.432c.318-.409.612-.834.882-1.276.143-.226.273-.46.388-.703.1-.25.219-.492.357-.723.108-.159-.145-.3-.254-.148zm.35-6.57a35.17 35.17 0 01-1.465 1.726c-.487.542-.947 1.103-1.42 1.658-.965 1.137-1.93 2.278-2.929 3.387a79.886 79.886 0 01-6.38 6.297 82.773 82.773 0 01-3.868 3.217c-.487.382.168 1.242.667.865a66.393 66.393 0 006.878-5.967 59.37 59.37 0 005.952-6.747c.503-.683 1.018-1.366 1.456-2.093.438-.73.865-1.465 1.302-2.195.07-.116-.104-.26-.193-.149zm-.598-4.32a79.578 79.578 0 01-3.27 3.744c-1.138 1.237-2.204 2.542-3.336 3.786-2.258 2.48-4.63 4.859-7.124 7.101-.69.62-1.389 1.23-2.097 1.83-.366.31-.732.618-1.1.925a7.363 7.363 0 00-1.053.97.548.548 0 00.661.857 5.882 5.882 0 001.07-.756c.335-.275.67-.55.999-.831a93.232 93.232 0 005.54-5.138 81.331 81.331 0 006.715-7.641c.574-.743 1.08-1.546 1.593-2.331.521-.797 1.022-1.612 1.526-2.42.046-.074-.066-.166-.124-.095zm-.403-5.812c-1.077 1.466-2.264 2.854-3.46 4.224a228.41 228.41 0 01-3.616 4.074c-2.474 2.7-5.06 5.309-7.666 7.881a62.5 62.5 0 01-2.3 2.171c-.784.7-1.592 1.367-2.363 2.081a.523.523 0 00.631.819 24.728 24.728 0 004.365-3.636c1.34-1.298 2.64-2.636 3.939-3.974 1.291-1.33 2.573-2.67 3.822-4.042a51.685 51.685 0 003.569-4.247c.601-.823 1.204-1.653 1.735-2.523a63.722 63.722 0 001.556-2.704.123.123 0 00-.212-.124zm.324-6.549c-.531.79-1.096 1.547-1.692 2.289-.59.733-1.155 1.484-1.741 2.22a89.828 89.828 0 01-3.63 4.301 101.27 101.27 0 01-8.12 7.948c-1.609 1.42-3.286 2.758-4.905 4.165a.615.615 0 00.745.966c1.545-1.172 3.017-2.45 4.48-3.722a120.305 120.305 0 004.254-3.885 64.607 64.607 0 007.625-8.577 29.827 29.827 0 001.774-2.65c.536-.94 1.047-1.897 1.558-2.851a.202.202 0 00-.348-.204zM15.269.83c-.959 1.209-2.096 2.255-3.117 3.41a97.218 97.218 0 01-3.107 3.333c-2.148 2.21-4.408 4.316-6.707 6.368-1.302 1.162-2.62 2.305-3.939 3.449a.63.63 0 000 .883.637.637 0 00.883 0c4.675-4.037 9.469-8.063 13.352-12.896a22.847 22.847 0 001.53-2.146c.46-.732.88-1.489 1.33-2.228.081-.134-.122-.302-.225-.172zm-9.804 3a38.807 38.807 0 01-3.968 3.016C.113 7.766-1.266 8.7-2.688 9.565a.566.566 0 00.571.976 24.89 24.89 0 004.25-2.872 41.104 41.104 0 003.638-3.534.216.216 0 00-.306-.306z" mask="url(#b)"/>
      <path fill="#191849" fill-rule="nonzero" d="M21.048 13.766c-.625-.68-1.205-1.398-1.854-2.06-.647-.66-1.31-1.304-1.954-1.968a63.445 63.445 0 01-3.715-4.181c-.66-.814-1.3-1.635-1.993-2.422-.317-.36-.895.103-.656.506a30.204 30.204 0 003.454 4.49 38.758 38.758 0 003.972 4.002c.41.347.828.674 1.268.982.432.303.878.569 1.323.852.126.08.25-.097.155-.2zm-.59 5.45c-.944-.958-1.865-1.935-2.832-2.871a108.103 108.103 0 01-2.825-2.828 73.662 73.662 0 01-5.197-6.08C8.687 6.245 7.813 5.02 6.919 3.812a.471.471 0 00-.626-.164.463.463 0 00-.164.626 48.184 48.184 0 004.909 6.58 59.144 59.144 0 005.648 5.781c1.15 1 2.37 1.914 3.654 2.735.095.062.196-.076.119-.154zm-2.15 3.8a43.928 43.928 0 01-4.704-3.612A50.025 50.025 0 019.4 15.273a60.79 60.79 0 01-7.212-9.889C.98 3.361-.098 1.263-1.289-.77a.462.462 0 10-.798.466 46.514 46.514 0 002.972 5.62 64.083 64.083 0 003.53 5.28 48.539 48.539 0 008.263 8.783 36.583 36.583 0 005.59 3.705.04.04 0 00.04-.068zm-.244 3.97a118.288 118.288 0 01-4.243-3.184c-1.367-1.084-2.772-2.116-4.127-3.215A89.458 89.458 0 011.813 13.6C.442 12.19-.853 10.705-2.11 9.194c-.367-.441-1.15.152-.803.62a51.36 51.36 0 007.322 7.721 88.173 88.173 0 008.424 6.496c.82.564 1.68 1.065 2.512 1.611.844.555 1.69 1.104 2.54 1.65.195.124.36-.176.179-.307zm.867 3.155a1.834 1.834 0 01-.479-.242 3.89 3.89 0 00-.345-.249c-.305-.19-.62-.364-.943-.52a80.593 80.593 0 01-1.764-.871c-1.203-.612-2.42-1.192-3.62-1.81a50.79 50.79 0 01-6.6-3.882 18.848 18.848 0 01-1.577-1.263 8.711 8.711 0 00-1.568-1.365.388.388 0 00-.563.433 3.91 3.91 0 001.159 1.523c.474.44.97.856 1.485 1.246a29.26 29.26 0 003.106 2.023 68.229 68.229 0 007.267 3.678c.699.3 1.416.561 2.13.823.366.142.742.26 1.124.352.39.055.775.141 1.152.257.082.032.118-.101.036-.133z" mask="url(#b)"/>
    </g>
    <path fill="#01002B" fill-rule="nonzero" d="M55.225 185.236l-2.139 8.556a.723.723 0 01-.692.549c-3.418.044-21.441.277-22.47.277-1.137 0-.85-2.183.568-2.843 3.519-1.638 12.29-4.401 14.188-6.3 2.125-2.124 10.545-.239 10.545-.239z"/>
    <g fill-rule="nonzero" transform="translate(94 35)">
      <path fill="#1C1C56" d="M.6899 19.657l8.765-17.5287 3.4972 1.7487-8.765 17.5287z"/>
      <path fill="#01002B" d="M9.474 2.209l3.405 1.702h-2.071zM8.64 3.875l2.163.046 1.242 1.657h-2.07z"/>
      <path fill="#01002B" d="M7.812 5.53l2.163.046 1.243 1.657H9.147zM6.979 7.197l2.162.046 1.243 1.656H8.313zM6.121 8.911l2.163.046 1.242 1.657h-2.07zM5.288 10.578l2.162.046 1.243 1.656H6.622z"/>
      <path fill="#01002B" d="M4.46 12.233l2.163.046 1.242 1.656H5.794zM3.626 13.899l2.163.046 1.242 1.657h-2.07z"/>
      <path fill="#01002B" d="M2.808 15.536l2.162.046 1.243 1.657H4.142zM1.974 17.203l2.163.046 1.242 1.656H3.308z"/>
      <path fill="#01002B" d="M1.146 18.858l2.163.046 1.242 1.656h-2.07z"/>
      <rect width="5.905" height="2.32" x="8.363" y="1.621" fill="#01002B" rx=".683" transform="rotate(26.574 11.316 2.78)"/>
    </g>
    <g fill-rule="nonzero" transform="translate(41 35)">
      <path fill="#1C1C56" d="M2.347 3.8775L5.844 2.1287l8.7651 17.5287-3.4971 1.7488z"/>
      <path fill="#01002B" d="M5.826 2.209L2.421 3.911h2.071zM6.66 3.875l-2.163.046-1.242 1.657h2.07z"/>
      <path fill="#01002B" d="M7.487 5.53l-2.162.046-1.243 1.657h2.071zM8.321 7.197l-2.163.046-1.242 1.656h2.071zM9.179 8.911l-2.163.046-1.242 1.657h2.07zM10.012 10.578l-2.162.046-1.243 1.656h2.071z"/>
      <path fill="#01002B" d="M10.84 12.233l-2.163.046-1.242 1.656h2.071zM11.674 13.899l-2.163.046-1.242 1.657h2.07z"/>
      <path fill="#01002B" d="M12.492 15.536l-2.162.046-1.243 1.657h2.071zM13.326 17.203l-2.163.046-1.242 1.656h2.071z"/>
      <path fill="#01002B" d="M14.154 18.858l-2.163.046-1.242 1.656h2.07z"/>
      <rect width="5.905" height="2.32" x="1.031" y="1.621" fill="#01002B" rx=".683" transform="rotate(153.426 3.984 2.78)"/>
    </g>
    <g transform="translate(113.4 88.14)">
      <mask id="d" fill="#fff">
        <use xlink:href="#c"/>
      </mask>
      <use fill="#01002B" fill-rule="nonzero" xlink:href="#c"/>
      <path fill="#191849" fill-rule="nonzero" d="M7.783 19.396c.364-.36.738-.71 1.098-1.075.354-.373.686-.767.995-1.179a54.557 54.557 0 005.047-7.824 67.997 67.997 0 001.558-3.11.577.577 0 00-.19-.77.564.564 0 00-.769.19A86.053 86.053 0 019.48 16.355c-.307.472-.626.935-.916 1.418-.304.508-.574 1.036-.88 1.544a.064.064 0 00.099.079zm6.655-16.417a4.168 4.168 0 00-.966 1.234c-.27.46-.533.922-.786 1.392-.495.917-.983 1.838-1.5 2.742a23.536 23.536 0 01-1.643 2.523c-.581.768-1.221 1.491-1.87 2.202-.758.83-1.53 1.647-2.279 2.486a.59.59 0 00-.012.814.58.58 0 00.814.012c1.325-1.534 2.768-2.96 4.024-4.555a33.358 33.358 0 003.209-5.293c.287-.55.572-1.1.84-1.66.3-.53.496-1.113.578-1.717a.244.244 0 00-.409-.18zm1.909 7.645a8.298 8.298 0 00-1.56 2.267c-.462.804-.94 1.602-1.44 2.383a41.825 41.825 0 01-2.419 3.402 6.068 6.068 0 00-.83 1.107.548.548 0 00.072.64.53.53 0 00.635.092c.4-.317.75-.692 1.038-1.112a41.813 41.813 0 002.513-3.465c.515-.793.997-1.601 1.441-2.436.227-.426.442-.853.632-1.297.202-.44.316-.914.335-1.398a.249.249 0 00-.417-.183zm.485 4.014c-.559.756-1.132 1.497-1.64 2.289-.507.787-1.022 1.568-1.547 2.343-.333.496.456.967.791.479a69.48 69.48 0 001.541-2.347 22.49 22.49 0 001.3-2.495.26.26 0 00-.446-.27zM12.97 1.594c-.324.36-.6.763-.819 1.196-.247.419-.487.84-.75 1.25a34.92 34.92 0 01-1.688 2.385 49.433 49.433 0 01-3.866 4.38c-.768.789-1.564 1.551-2.356 2.317-.477.461.247 1.21.72.74 2.816-2.8 5.752-5.606 7.864-9 .296-.476.578-.96.839-1.456a4.194 4.194 0 00.565-1.588.303.303 0 00-.509-.224zM10.062.1c-.227.384-.468.755-.726 1.119-.249.35-.458.73-.696 1.087a64.703 64.703 0 01-1.5 2.163 47.01 47.01 0 01-3.308 4.02c-.332.368-.666.733-1.003 1.095-.4.345-.736.755-.994 1.215-.156.385.322.652.633.506.384-.253.72-.571.995-.94.308-.326.615-.655.92-.985.601-.65 1.192-1.307 1.766-1.98a25.769 25.769 0 003.146-4.334c.25-.446.479-.904.683-1.373.19-.457.33-.947.477-1.42A.217.217 0 0010.062.1zM1.246 8.468a1.37 1.37 0 00.582-.285c.154-.142.315-.28.46-.433.266-.281.508-.591.757-.888A21.818 21.818 0 004.52 4.813 23.05 23.05 0 006.934.576a.168.168 0 00-.277-.167 23.35 23.35 0 00-1.461 1.906c-.467.65-.947 1.291-1.438 1.923-.49.63-1.007 1.247-1.474 1.894-.228.316-.462.627-.688.944-.113.158-.21.325-.312.49-.065.092-.123.19-.172.292a1.861 1.861 0 00-.06.406c-.018.107.064.25.194.204z" mask="url(#d)"/>
      <path fill="#191849" fill-rule="nonzero" d="M.221 5.08a6.77 6.77 0 002.371 2.953c.552.42 1.143.785 1.764 1.093.657.309 1.33.582 2.01.836 2.73 1.02 5.58 1.696 8.338 2.642.757.26 1.509.536 2.25.837.765.31 1.513.708 2.294.969.538.18.824-.577.386-.875a10.866 10.866 0 00-1.932-.937 40.243 40.243 0 00-1.971-.759 62.518 62.518 0 00-3.988-1.263 52.804 52.804 0 01-8.12-2.642 7.038 7.038 0 01-3.23-2.922c-.048-.09-.211-.032-.172.068zm2.7 6.795c.872.476 1.771.899 2.693 1.267.923.358 1.859.68 2.807.968 1.884.551 3.802.98 5.742 1.284.556.093 1.113.176 1.673.247.272.034.545.066.818.091.305.053.617.053.922.001a.55.55 0 00.024-1.053 2.588 2.588 0 00-.777-.1 93.793 93.793 0 01-.73-.043c-.485-.03-.97-.07-1.453-.118a27.068 27.068 0 01-2.808-.42 41.497 41.497 0 01-5.58-1.568 88.623 88.623 0 01-3.071-1.145c-.342-.137-.583.417-.26.589zm1.792 3.543c.362.21.697.463 1.063.672.349.2.703.389 1.063.569.757.366 1.54.677 2.342.928 1.578.503 3.188.896 4.82 1.176.942.167 1.884.396 2.835.5a.511.511 0 00.52-.493.52.52 0 00-.492-.52c-.795-.118-1.602-.144-2.395-.275a42.836 42.836 0 01-2.4-.464 31.52 31.52 0 01-4.601-1.394c-.415-.163-.834-.314-1.246-.488-.44-.167-.869-.361-1.285-.581-.241-.14-.465.23-.224.37zM5.942 5.073c.388.295.757.616 1.145.91.374.308.765.595 1.172.86.847.501 1.713.95 2.598 1.378.865.452 1.776.81 2.717 1.064.45.106.906.175 1.36.258.485.088.967.267 1.455.32.62.068.818-.825.33-1.122a4.064 4.064 0 00-1.386-.39c-.454-.082-.911-.147-1.362-.248a16.88 16.88 0 01-2.631-.975c-.877-.356-1.759-.701-2.634-1.062a28.638 28.638 0 01-2.718-1.069.044.044 0 00-.046.076zm2.631-2.99c.085.264.214.512.38.734.201.208.425.393.667.553.524.367 1.079.689 1.658.961.603.286 1.215.555 1.834.807.617.292 1.27.5 1.942.617.49.056.66-.665.263-.894a11.418 11.418 0 00-1.72-.688 32.766 32.766 0 01-1.694-.692c-.562-.25-1.13-.487-1.697-.725a6.076 6.076 0 01-.694-.32 1.803 1.803 0 01-.682-.498.148.148 0 00-.257.145z" mask="url(#d)"/>
    </g>
    <g fill-rule="nonzero">
      <path fill="url(#e)" d="M12.418.7s13.065 23.47 13.684 26.066c.618 2.596.947 7.154-.958 9.878-1.905 2.725-7.878 5.85-12.418 2.675C8.184 36.144.045 23.42.045 23.42L12.418.7z" transform="translate(99 54)"/>
      <path fill="#01002B" d="M111.432 58.202c5.803 10.495 11.654 21.472 12.029 22.956.643 2.702.699 6.52-.7 8.52a9.09 9.09 0 01-6.714 3.292 5.737 5.737 0 01-3.355-1.033c-3.246-2.27-9.091-10.635-11.685-14.592l10.425-19.143m-.014-3.503l-12.373 22.72s8.14 12.725 12.68 15.9a7.417 7.417 0 004.322 1.339 10.731 10.731 0 008.097-4.013c1.905-2.724 1.576-7.282.958-9.878-.619-2.596-13.684-26.068-13.684-26.068z"/>
    </g>
    <g fill-rule="nonzero">
      <path fill="url(#f)" d="M29.34 21.897a30.819 30.819 0 011.595 9.488 15.827 15.827 0 01-3.555 8.677 10.79 10.79 0 01-4.514 3.625 11.503 11.503 0 01-5.789.538c-4.061-.562-8.162-1.787-10.62-5.137a17.701 17.701 0 01-2.716-7.05C1.959 23.393 1.693 14.463.938 5.718a13.11 13.11 0 01-.117-1.356L8.746 2.14A61 61 0 0115.838.465a24.86 24.86 0 013.664-.314 8.872 8.872 0 013.39.33c.778.362.844 1.35 1.041 2.055l1.03 3.688 2.06 7.375 2.318 8.298z" transform="translate(81 120)"/>
      <path fill="#01002B" d="M101.561 121.826c.5-.02.999.025 1.486.135.05.141.104.378.14.532.039.173.078.34.121.497l1.03 3.688 1.03 3.687 1.03 3.688 1.159 4.149 1.159 4.149a29.728 29.728 0 011.533 8.961 14.076 14.076 0 01-3.214 7.732 9.035 9.035 0 01-3.792 3.076 8.65 8.65 0 01-3.2.558 12.692 12.692 0 01-1.734-.124c-4.721-.654-7.737-2.072-9.49-4.464a16.205 16.205 0 01-2.426-6.392 151.96 151.96 0 01-2.273-19.612c-.153-2.125-.312-4.322-.498-6.477l2.617-.734 3.962-1.11a58.644 58.644 0 016.895-1.632 23.033 23.033 0 013.415-.295l.443-.006c.193-.003.398-.006.607-.006m0-1.688c-.38 0-.743.011-1.06.013-1.227.014-2.452.12-3.663.314a61 61 0 00-7.092 1.675l-7.925 2.222c.016.454.055.906.117 1.355.755 8.746 1.021 17.676 2.803 26.321a17.699 17.699 0 002.717 7.05c2.456 3.35 6.558 4.575 10.62 5.137.65.092 1.307.138 1.964.14a10.348 10.348 0 003.824-.677 10.79 10.79 0 004.514-3.626 15.828 15.828 0 003.554-8.677 30.822 30.822 0 00-1.593-9.488 275312.27 275312.27 0 01-4.378-15.673l-1.03-3.688c-.197-.705-.263-1.693-1.041-2.055a5.889 5.889 0 00-2.331-.343z"/>
    </g>
    <g transform="translate(42.945 155.056)">
      <mask id="h" fill="#fff">
        <use xlink:href="#g"/>
      </mask>
      <use fill="#01002B" fill-rule="nonzero" xlink:href="#g"/>
      <path fill="#191849" fill-rule="nonzero" d="M-.561 25.21c.259.38.39.838.634 1.232.24.406.5.799.782 1.177a29.478 29.478 0 001.772 2.091 37.67 37.67 0 004.058 3.734c.835.662 1.703 1.28 2.6 1.853a.54.54 0 00.547-.934 43.534 43.534 0 01-8.06-7.155c-.326-.37-.666-.72-1.003-1.08-.38-.334-.738-.69-1.075-1.067-.11-.15-.363-.01-.255.149zm-.32-6.569c.394.65.78 1.303 1.171 1.954.393.651.833 1.266 1.282 1.88a49.106 49.106 0 002.848 3.501 68.927 68.927 0 006.34 6.338 69.796 69.796 0 004.024 3.255c.496.37 1.162-.481.668-.865a85.38 85.38 0 01-6.784-5.859c-2.161-2.075-4.13-4.31-6.097-6.566-.538-.618-1.049-1.261-1.602-1.865a37.227 37.227 0 01-1.657-1.922c-.088-.11-.264.032-.193.15zm.647-4.375c.893 1.416 1.795 2.827 2.75 4.203a45.618 45.618 0 003.206 3.947 88.335 88.335 0 007.127 7.228 93.758 93.758 0 002.124 1.868c.353.3.71.597 1.07.89.382.345.803.646 1.253.898a.548.548 0 00.661-.857 13.5 13.5 0 00-1.877-1.647 93.592 93.592 0 01-5.61-5.064 112.824 112.824 0 01-6.858-7.352c-.599-.7-1.247-1.36-1.86-2.05A71.82 71.82 0 01-.11 14.17c-.057-.069-.171.021-.124.096zM.054 8.48a45.305 45.305 0 002.898 4.64 49.838 49.838 0 003.523 4.275c2.492 2.748 5.101 5.405 7.755 7.997a27.005 27.005 0 004.906 4.124c.501.296 1.076-.411.632-.818-1.372-1.258-2.815-2.43-4.159-3.722-1.332-1.28-2.628-2.601-3.932-3.91a178.37 178.37 0 01-3.81-3.922c-1.243-1.328-2.432-2.7-3.649-4.05-1.374-1.525-2.73-3.089-3.952-4.738a.123.123 0 00-.212.124zm-.49-6.467C.02 2.86.48 3.707.956 4.543c.474.816.99 1.608 1.544 2.371a54.32 54.32 0 003.623 4.503 88.798 88.798 0 008.185 8.01c1.643 1.432 3.303 2.869 5.046 4.178a.615.615 0 00.745-.965c-1.442-1.242-2.937-2.422-4.377-3.666a120.044 120.044 0 01-4.202-3.807 97.583 97.583 0 01-4.014-4.049c-1.28-1.375-2.49-2.809-3.685-4.258-.676-.82-1.306-1.674-1.98-2.493A34.879 34.879 0 01-.09 1.81a.202.202 0 00-.347.203zm4.963-.933a38.646 38.646 0 002.527 3.922 51.462 51.462 0 003.065 3.509c2.132 2.23 4.41 4.31 6.732 6.34a380.769 380.769 0 003.966 3.42.64.64 0 00.883 0 .63.63 0 000-.883A150.626 150.626 0 018.259 4.716c-.583-.64-1.176-1.267-1.774-1.894-.597-.625-1.192-1.24-1.734-1.915-.102-.127-.307.037-.224.173zm9.736 3.086a41.081 41.081 0 003.654 3.517 24.888 24.888 0 004.263 2.852.566.566 0 00.57-.976c-1.425-.858-2.808-1.786-4.197-2.7a38.811 38.811 0 01-3.984-2.999.216.216 0 00-.306.306z" mask="url(#h)"/>
      <path fill="#191849" fill-rule="nonzero" d="M-.812 14.07a21.773 21.773 0 002.293-1.601 31.283 31.283 0 002.06-1.93 53.636 53.636 0 003.75-4.208c.686-.83 1.31-1.71 1.865-2.632.234-.4-.337-.873-.656-.507C7.288 4.584 6.193 6.07 4.978 7.461c-1.23 1.408-2.546 2.72-3.839 4.068-.358.374-.712.748-1.057 1.135-.356.4-.69.81-1.049 1.205-.093.104.028.283.155.201zm.579 5.4a29.308 29.308 0 003.26-2.416 51.317 51.317 0 002.963-2.82 65.914 65.914 0 005.318-6.141 40.8 40.8 0 002.597-3.784c.308-.517-.45-.926-.79-.461-1.577 2.154-3.13 4.323-4.84 6.376-1.72 2.063-3.574 3.995-5.48 5.885-1.065 1.055-2.1 2.135-3.148 3.207-.076.078.024.218.12.155zm2.09 3.704a35.758 35.758 0 004.974-3.249 42.182 42.182 0 004.431-4.03 58.651 58.651 0 007.473-9.871A48.803 48.803 0 0022.1-.306a.478.478 0 00-.165-.633.468.468 0 00-.633.166c-1.046 1.805-1.995 3.663-3.039 5.47a74.98 74.98 0 01-3.34 5.283 52.585 52.585 0 01-7.848 8.985 43.725 43.725 0 01-5.258 4.141.04.04 0 00.04.068zm.4 4.206c1.489-.966 2.977-1.933 4.464-2.9 1.488-.962 2.919-2.03 4.337-3.093a69.487 69.487 0 007.975-7.01 43.383 43.383 0 003.94-4.57c.342-.463-.433-1.067-.803-.62a71.432 71.432 0 01-7.192 7.603c-2.604 2.354-5.363 4.556-8.158 6.68-.786.597-1.537 1.24-2.33 1.829-.8.596-1.604 1.188-2.41 1.775-.181.132-.017.432.178.306zm-.994 2.987c.17-.076.348-.13.532-.157a3.65 3.65 0 00.426-.062 8.23 8.23 0 001.037-.298 80.466 80.466 0 001.927-.736c1.261-.501 2.49-1.097 3.699-1.713a48.53 48.53 0 006.761-3.963c.572-.417 1.12-.864 1.643-1.34a4.357 4.357 0 001.35-1.712.388.388 0 00-.562-.433 7.564 7.564 0 00-1.43 1.249c-.427.397-.874.773-1.34 1.124a33.536 33.536 0 01-3.094 2.044c-2.282 1.353-4.64 2.579-7.022 3.742-.678.331-1.345.685-2.024 1.016-.326.152-.643.322-.951.508-.31.23-.641.43-.989.598-.081.033-.046.166.037.133z" mask="url(#h)"/>
    </g>
    <g fill-rule="nonzero">
      <path fill="url(#i)" d="M1.62 22.05a32.271 32.271 0 00-1.36 9.47 16.652 16.652 0 003.465 8.677 10.555 10.555 0 004.294 3.637c1.732.676 3.615.869 5.448.558 3.808-.547 7.644-1.755 9.904-5.092a18.04 18.04 0 002.452-7.03c1.549-8.628 1.67-17.545 2.253-26.276.008-.12.134-1.34.09-1.353l-7.478-2.247A55.204 55.204 0 0014 .696 22.127 22.127 0 0010.552.37a7.825 7.825 0 00-3.18.317c-.727.359-.775 1.346-.95 2.049l-.914 3.679-1.83 7.358-2.057 8.278z" transform="translate(42 120)"/>
      <path fill="#01002B" d="M51.492 122.04c.215 0 .426.004.625.009l.418.007c1.068.018 2.133.12 3.185.304 2.193.413 4.358.963 6.482 1.65l6.191 1.86v.012c-.145 2.163-.263 4.37-.377 6.504a160.038 160.038 0 01-1.854 19.585 16.558 16.558 0 01-2.188 6.383c-1.614 2.383-4.312 3.73-8.748 4.368-.516.075-1.038.114-1.56.115a7.633 7.633 0 01-2.989-.556 8.797 8.797 0 01-3.586-3.073 14.895 14.895 0 01-3.146-7.78 31.17 31.17 0 011.313-8.97l.038-.153 2.02-8.126 1.83-7.358.522-2.1.392-1.579c.038-.155.072-.32.107-.492.029-.145.072-.363.115-.508a5.093 5.093 0 011.21-.102m0-1.687a5.064 5.064 0 00-2.12.333c-.727.359-.775 1.346-.95 2.049l-.914 3.679a96373.688 96373.688 0 00-3.887 15.636 32.27 32.27 0 00-1.361 9.47 16.652 16.652 0 003.465 8.677 10.555 10.555 0 004.294 3.637 9.327 9.327 0 003.647.69 12.68 12.68 0 001.8-.132c3.809-.547 7.645-1.755 9.905-5.092a18.04 18.04 0 002.452-7.03c1.549-8.628 1.67-17.544 2.253-26.276.008-.12.134-1.34.09-1.353l-7.478-2.247A55.2 55.2 0 0056 120.696a22.128 22.128 0 00-3.448-.327c-.315-.003-.68-.016-1.06-.016z"/>
    </g>
    <g transform="translate(19.731 90.007)">
      <mask id="k" fill="#fff">
        <use xlink:href="#j"/>
      </mask>
      <use fill="#01002B" fill-rule="nonzero" xlink:href="#j"/>
      <path fill="#191849" fill-rule="nonzero" d="M8.969 19.402c-.5-.902-.956-1.817-1.492-2.698a99.842 99.842 0 01-1.568-2.65A88.997 88.997 0 013.083 8.69a67.995 67.995 0 01-1.412-3.15.575.575 0 00-.71-.355.565.565 0 00-.354.71 57.534 57.534 0 006.034 10.96c.332.464.666.923 1.037 1.357.376.441.797.85 1.195 1.272.052.056.13-.023.096-.083zM2.392 3.018c.046.536.195 1.058.438 1.539.212.488.432.97.661 1.451.456.953.903 1.91 1.391 2.846a27.214 27.214 0 003.409 4.979c.735.87 1.492 1.723 2.206 2.611.18.259.529.332.797.167a.58.58 0 00.166-.796c-1.272-1.534-2.64-2.995-3.816-4.605a35.354 35.354 0 01-2.995-5.304c-.266-.54-.532-1.077-.818-1.606a4.758 4.758 0 00-1.036-1.476.244.244 0 00-.403.194zm-2.19 7.576c.082.971.387 1.911.891 2.746.408.836.852 1.649 1.33 2.447a41.838 41.838 0 002.32 3.47c.271.437.603.832.987 1.174.18.154.439.174.64.05a.53.53 0 00.211-.607 6.057 6.057 0 00-.796-1.187 41.709 41.709 0 01-2.327-3.522 59.611 59.611 0 01-1.355-2.43c-.216-.41-.424-.822-.649-1.227a4.34 4.34 0 00-.841-1.112.249.249 0 00-.41.198zm-.68 4.017c.355.884.765 1.744 1.227 2.577.476.821.968 1.633 1.476 2.435a.462.462 0 00.773-.506c-.494-.794-.981-1.593-1.46-2.397-.479-.806-1.022-1.562-1.55-2.334-.161-.235-.585-.057-.466.225zM3.807 1.73c.05.499.197.983.433 1.425.208.452.444.894.685 1.33a24.875 24.875 0 001.587 2.503 50.554 50.554 0 003.844 4.625c.766.833 1.536 1.664 2.308 2.49a.52.52 0 00.73-.036.526.526 0 00-.037-.73 53.353 53.353 0 01-7.39-9.06 25.068 25.068 0 01-.784-1.383 5.971 5.971 0 00-.875-1.405.303.303 0 00-.5.241zM6.89.29c.117.429.239.859.373 1.282.148.418.325.824.53 1.216.385.801.828 1.573 1.326 2.31a48.07 48.07 0 003.273 4.219c.34.397.682.792 1.027 1.185.157.18.315.36.475.539.165.222.37.412.605.56a.442.442 0 00.615-.528 4.06 4.06 0 00-.85-1.108c-.275-.319-.55-.64-.823-.961a67.04 67.04 0 01-1.676-2.056 51.79 51.79 0 01-2.968-4.303c-.26-.413-.495-.84-.746-1.26-.257-.43-.535-.84-.775-1.282-.122-.225-.447-.039-.386.187zm9.112 8.339a1.416 1.416 0 00-.156-.634c-.097-.17-.187-.344-.289-.51-.21-.346-.457-.675-.681-1.012-.44-.664-.932-1.3-1.4-1.945a62.948 62.948 0 01-1.368-1.966 24.258 24.258 0 00-1.413-1.99c-.113-.138-.364-.049-.298.144.277.755.619 1.485 1.023 2.18.395.713.804 1.419 1.226 2.117.41.704.86 1.384 1.348 2.036.24.31.48.62.73.922.13.155.275.294.418.437.073.085.155.163.244.231.122.06.249.109.38.144A.164.164 0 0016 8.628z" mask="url(#k)"/>
      <path fill="#191849" fill-rule="nonzero" d="M16.766 5.377a6.994 6.994 0 01-2.846 2.57 14.14 14.14 0 01-1.894.754c-.657.235-1.326.437-1.998.623-2.777.768-5.604 1.333-8.36 2.174-.743.226-1.481.47-2.21.736-.783.25-1.537.579-2.251.983a.484.484 0 00.417.86c.707-.208 1.39-.538 2.081-.795a41.674 41.674 0 012.021-.69c1.375-.434 2.77-.804 4.163-1.171 1.433-.378 2.878-.722 4.29-1.172a29.845 29.845 0 002.027-.718c.657-.272 1.288-.6 1.888-.98a6.98 6.98 0 002.839-3.089.094.094 0 00-.167-.085zm-3.03 6.17c-.912.329-1.839.619-2.76.922-.923.304-1.856.573-2.8.808-1.856.481-3.75.803-5.66.961-.538.04-1.077.068-1.616.085-.278.009-.556.015-.833.02a2.903 2.903 0 00-.876.084.55.55 0 00.061 1.052c.509.08 1.027.072 1.534-.022.492-.042.983-.093 1.473-.153a63.86 63.86 0 002.93-.438 38.066 38.066 0 005.762-1.45 25.86 25.86 0 003.066-1.289c.334-.162.061-.702-.28-.58zm-1.88 3.698c-.376.18-.762.338-1.156.473-.363.142-.73.273-1.102.395-.774.254-1.543.514-2.328.732-1.546.418-3.118.729-4.707.931-.919.123-1.844.132-2.764.235a.507.507 0 00.064 1.01c.833-.06 1.657-.236 2.483-.348a43.733 43.733 0 002.474-.407 25.243 25.243 0 004.805-1.361c.415-.171.82-.375 1.22-.58.43-.22.825-.492 1.248-.717.246-.131.007-.493-.237-.363zm-.68-10.088c-.91.374-1.839.7-2.783.978-.89.33-1.787.645-2.68.97-.84.364-1.709.653-2.598.866-.455.082-.914.129-1.37.196-.505.035-1 .16-1.46.368a.61.61 0 00.369 1.11c.265-.04.527-.095.785-.165.188-.036.378-.063.567-.09.48-.07.96-.13 1.436-.225a13.317 13.317 0 002.742-.956c.9-.397 1.78-.815 2.645-1.284.412-.245.81-.514 1.192-.805.408-.286.796-.6 1.204-.889a.044.044 0 00-.048-.074zm-2.71-3.182c-.172.196-.387.35-.629.448a4.298 4.298 0 01-.7.306c-.589.216-1.175.439-1.755.673-.573.23-1.152.445-1.738.643-.62.17-1.226.39-1.811.658-.436.23-.163.92.294.884a7.62 7.62 0 001.952-.552 33.063 33.063 0 001.858-.742c.59-.254 1.157-.559 1.696-.909.247-.148.474-.326.678-.53.168-.216.301-.456.395-.713.064-.143-.138-.31-.24-.166z" mask="url(#k)"/>
    </g>
    <g fill-rule="nonzero">
      <path fill="url(#l)" d="M14.247.442S1.512 24.094.93 26.699c-.582 2.605-.847 7.166 1.096 9.864 1.944 2.697 7.96 5.739 12.455 2.5 4.496-3.24 12.457-16.077 12.457-16.077L14.247.442z" transform="translate(23 56)"/>
      <path fill="#01002B" d="M37.282 59.944l10.693 18.995c-2.538 3.993-8.266 12.439-11.48 14.755a5.752 5.752 0 01-3.435 1.08 9.13 9.13 0 01-6.665-3.198c-1.426-1.98-1.424-5.799-.819-8.508.355-1.49 6.05-12.548 11.706-23.124m-.035-3.502S24.512 80.094 23.93 82.699c-.582 2.605-.847 7.166 1.096 9.864a10.741 10.741 0 008.034 3.899 7.43 7.43 0 004.42-1.4c4.497-3.238 12.458-16.076 12.458-16.076L37.247 56.442z"/>
    </g>
    <g fill-rule="nonzero">
      <path fill="url(#m)" d="M1.297 6.56a6.653 6.653 0 002.7 4.906 3.8 3.8 0 00.941.48 4.69 4.69 0 002.489-.02 3.816 3.816 0 001.504-.62 2.3 2.3 0 00.885-1.783 1.568 1.568 0 01.03-.453c.093-.204.226-.388.39-.54a2.92 2.92 0 00.182-2.943c-.392-.957-1.036-1.795-1.42-2.755a1.168 1.168 0 00-.162-.317.773.773 0 00-.232-.18 4.705 4.705 0 00-1.861-.268c-1.277-.119-2.391-.87-3.66-1.026-.273-.034-.538-.097-.719.12-.183.308-.32.641-.405.989-.245.658-.43 1.338-.553 2.03a9.088 9.088 0 00-.11 2.38z" transform="translate(18 107)"/>
      <path fill="#01002B" d="M20.735 108.006c.117.005.233.017.349.035 1.268.157 2.382.907 3.659 1.026a4.705 4.705 0 011.861.268.773.773 0 01.232.18c.07.097.124.204.161.317.385.96 1.029 1.798 1.42 2.755a2.92 2.92 0 01-.181 2.943 1.687 1.687 0 00-.39.54 1.573 1.573 0 00-.03.453 2.3 2.3 0 01-.885 1.783 3.817 3.817 0 01-1.504.62 6.406 6.406 0 01-1.41.18c-.365.005-.73-.05-1.079-.16a3.8 3.8 0 01-.941-.48 6.652 6.652 0 01-2.7-4.905 9.092 9.092 0 01.11-2.381c.122-.692.307-1.372.551-2.03.087-.348.223-.68.406-.988a.444.444 0 01.37-.156m0-.844a1.275 1.275 0 00-1.019.461 2.959 2.959 0 00-.478 1.02c-.024.078-.047.152-.07.216-.262.707-.46 1.435-.592 2.176a9.935 9.935 0 00-.118 2.603 7.488 7.488 0 003.066 5.526c.354.248.742.444 1.152.583.434.138.887.207 1.343.203a7.201 7.201 0 001.596-.202 4.598 4.598 0 001.832-.773 3.13 3.13 0 001.213-2.447v-.11c-.001-.03-.003-.062-.002-.092.031-.039.064-.076.1-.111.042-.047.085-.095.125-.143a3.68 3.68 0 00.316-3.805 12.226 12.226 0 00-.75-1.457 10.442 10.442 0 01-.668-1.292 1.894 1.894 0 00-.292-.538 1.59 1.59 0 00-.48-.386 3.583 3.583 0 00-1.713-.345c-.16-.004-.318-.008-.474-.022a6.723 6.723 0 01-1.672-.47 8.57 8.57 0 00-1.962-.553l-.074-.01a2.876 2.876 0 00-.378-.032z"/>
      <path fill="#01002B" d="M26.803 113.547c-.036.28-.02.566.048.84.085.287.196.566.33.834.132.267.278.528.436.78.085.141.17.282.259.42.102.159.19.365.408.358.08 0 .153-.043.192-.112.093-.201-.02-.33-.126-.495l-.256-.393c-.158-.246-.312-.495-.468-.743a6.02 6.02 0 01-.393-.718c-.117-.26-.257-.514-.352-.783a.04.04 0 00-.078.012z"/>
    </g>
    <g fill-rule="nonzero">
      <path fill="url(#n)" d="M1.054 14.154a.69.69 0 01.087-1.103C5.156 10.53 22.355.22 34.971.22c14.203 0 34.78 3.607 41.959 11.823a.681.681 0 01.13.663c-1.062 3.199-8.705 26.337-9.627 31.87a95.975 95.975 0 00-.992 14.372c0 1.31 6.15 12.998 7.618 15.768a.69.69 0 01-.27.923c-3.224 1.835-19.214 10.567-31.632 10.567-12.52 0-33.11-8.876-37.015-10.611a.69.69 0 01-.34-.933l7.55-15.57a.69.69 0 00.07-.304c-.004-1.22-.04-9.151-.496-13.717-.471-4.71-5.87-26.442-10.872-30.917z" transform="translate(36 43)"/>
      <path fill="#01002B" d="M70.971 44.907c14.67 0 33.556 3.79 40.302 10.825-1.801 5.444-8.61 26.203-9.505 31.566a93.774 93.774 0 00-1.014 14.65c0 .53 0 1.758 7.359 15.696-4.43 2.447-18.802 9.875-29.956 9.875-11.383 0-29.85-7.643-35.385-10.05l7.098-14.64c.157-.326.239-.683.238-1.045-.003-1.512-.045-9.291-.504-13.88-.453-4.53-5.322-24.708-10.532-31.062 4.99-3.038 20.58-11.935 31.899-11.935m0-1.687c-12.616 0-29.816 10.311-33.83 12.83a.69.69 0 00-.087 1.104c5.003 4.475 10.4 26.206 10.872 30.917.456 4.566.492 12.496.495 13.717a.691.691 0 01-.07.303l-7.549 15.571a.69.69 0 00.34.933c3.905 1.735 24.495 10.61 37.015 10.61 12.418 0 28.408-8.73 31.633-10.566a.69.69 0 00.27-.923c-1.468-2.77-7.619-14.458-7.619-15.768a95.97 95.97 0 01.991-14.372c.923-5.533 8.566-28.671 9.627-31.87a.681.681 0 00-.13-.663C105.75 46.827 85.173 43.22 70.971 43.22z"/>
    </g>
    <g fill-rule="nonzero">
      <path fill="url(#o)" d="M10.59.277s32.797 30.113 44.196 44.98l2.478 3.47-13.381 3.469S9.957 10.074.045 6.605L10.59.277z" transform="translate(37 50)"/>
      <path fill="#01002B" d="M47.374 52.375c5.404 5.005 32.93 30.69 43.056 43.887l1.034 1.448-9.954 2.58c-2.217-2.725-9.506-11.616-17.567-20.708-4.265-4.81-16.145-18.211-23.485-23.058l6.916-4.15m.216-2.097l-10.545 6.328c9.912 3.469 43.838 45.591 43.838 45.591l13.38-3.47-2.477-3.468C80.387 80.39 47.59 50.278 47.59 50.278z"/>
    </g>
    <g fill-rule="nonzero">
      <path fill="url(#p)" d="M47.917.748s-33.205 30.231-44.604 45.1L.835 49.315l13.381 3.47S51.01 7.55 57.97 7.128c0 0-3.106-2.735-4.429-3.585-1.243-.798-5.624-2.795-5.624-2.795z" transform="translate(55 48)"/>
      <path fill="#01002B" d="M103.228 50.75c1.48.691 3.667 1.74 4.402 2.213.5.321 1.355 1 2.186 1.69-3.42 2.137-9.723 7.817-22.595 22.343-8.412 9.492-16.302 19.051-18.627 21.885l-9.959-2.582 1.035-1.448c10.195-13.286 38.369-39.336 43.558-44.1m-.311-2.003s-33.205 30.231-44.604 45.1l-2.478 3.468 13.381 3.47S106.01 55.55 112.97 55.128c0 0-3.106-2.735-4.429-3.585-1.243-.798-5.624-2.795-5.624-2.795z"/>
    </g>
    <g fill-rule="nonzero">
      <path fill="url(#q)" d="M.223.615S30.532 18.134 54.847.404l-.422 10.545s-21.571 15.197-53.991 0L.223.615z" transform="translate(48 91)"/>
      <path fill="#01002B" d="M49.967 94.415c4.728 2.272 15.374 6.611 27.717 6.611a43.769 43.769 0 0023.344-6.37l-.254 6.345c-2.394 1.444-10.998 6.015-23.934 6.015a64.727 64.727 0 01-26.741-6.157l-.132-6.444m52.88-3.011a41.854 41.854 0 01-25.163 7.935c-16.098 0-29.461-7.724-29.461-7.724l.21 10.334a66.562 66.562 0 0028.407 6.754c15.996 0 25.585-6.754 25.585-6.754l.422-10.545z"/>
    </g>
    <path fill="#000" fill-rule="nonzero" d="M86.055 44.347c-.043.048-.087.097-.129.147-1.322 1.544 5.815 4.185 4.315 5.554-4.371 3.99-8.553 8.259-13.225 11.901a58.855 58.855 0 01-14.781 8.571c-5.587 2.17-11.701 2.648-17.182 5.09-2.128-7.515-5.161-15.907-8.061-18.5a.694.694 0 01.086-1.104c4.016-2.519 21.215-12.83 33.832-12.83 5.07.021 10.132.412 15.145 1.17z" opacity=".2"/>
    <g fill-rule="nonzero">
      <path fill="url(#r)" d="M10.436 7.005a6.653 6.653 0 01-2.631 4.942 3.8 3.8 0 01-.935.493 4.691 4.691 0 01-2.488.015 3.816 3.816 0 01-1.513-.599 2.3 2.3 0 01-.91-1.77 1.568 1.568 0 00-.037-.452 1.687 1.687 0 00-.397-.535 2.92 2.92 0 01-.223-2.94c.379-.963 1.011-1.81 1.382-2.775.036-.114.089-.221.157-.319a.774.774 0 01.23-.184 4.705 4.705 0 011.857-.293c1.275-.137 2.378-.903 3.644-1.077.273-.038.537-.105.72.11.188.305.33.636.42.982.254.656.448 1.332.581 2.022.152.784.2 1.584.143 2.38z" transform="translate(120 105)"/>
      <path fill="#01002B" d="M128.932 106.47a.44.44 0 01.36.151c.188.305.33.636.42.982.254.656.448 1.332.581 2.022.152.784.2 1.584.143 2.38a6.653 6.653 0 01-2.631 4.942 3.802 3.802 0 01-.935.493 3.489 3.489 0 01-1.14.176 6.532 6.532 0 01-1.348-.161 3.816 3.816 0 01-1.513-.599 2.3 2.3 0 01-.91-1.77 1.565 1.565 0 00-.037-.452 1.687 1.687 0 00-.397-.535 2.92 2.92 0 01-.223-2.94c.379-.963 1.011-1.81 1.382-2.775.036-.114.089-.221.157-.319a.773.773 0 01.23-.184 4.705 4.705 0 011.857-.293c1.275-.137 2.378-.903 3.644-1.077.119-.022.24-.035.36-.04m0-.844a2.77 2.77 0 00-.401.037l-.074.011a8.566 8.566 0 00-1.954.58 6.723 6.723 0 01-1.665.494c-.156.016-.315.022-.474.028a3.583 3.583 0 00-1.709.37 1.59 1.59 0 00-.474.393c-.119.156-.212.33-.275.516-.188.457-.408.9-.658 1.326-.276.472-.52.963-.73 1.468a3.68 3.68 0 00.369 3.8c.04.048.084.094.127.14.036.036.07.072.101.11.002.032 0 .063 0 .094l.001.108a3.13 3.13 0 001.248 2.43c.552.381 1.18.636 1.842.748.5.113 1.012.174 1.525.18.48.005.958-.07 1.414-.222a4.597 4.597 0 001.144-.6 7.489 7.489 0 002.988-5.568 9.94 9.94 0 00-.155-2.6c-.142-.74-.35-1.466-.622-2.168-.024-.064-.048-.138-.074-.215a2.956 2.956 0 00-.492-1.014 1.271 1.271 0 00-1.002-.446z"/>
      <path fill="#01002B" d="M121.596 114.834c.2-.064.378-.185.51-.349.125-.126.252-.254.368-.39.241-.282.464-.58.667-.89a4.95 4.95 0 00.627-1.436 1.61 1.61 0 00.096-.52.102.102 0 00-.199-.032c-.054.156-.056.33-.106.49a2.662 2.662 0 01-.207.468 5.85 5.85 0 01-.566.811c-.207.262-.437.503-.659.753-.119.134-.227.277-.344.413-.137.133-.26.279-.368.435a.168.168 0 00.181.247z"/>
    </g>
    <path fill="url(#s)" d="M13.826 24.227a15.56 15.56 0 00-.788 3.174 81.077 81.077 0 01-9.563-8.442 26.543 26.543 0 00-2.876 7.91 197.437 197.437 0 0114.505 6.524c.23-1.21.605-2.388 1.116-3.509 1.338.117 2.68.202 4.022.256.997.04 3.415.556 4.295.106-.784-.61-9.37-4.943-10.499-6.063a.129.129 0 00-.212.044z" transform="translate(25 1)"/>
    <path fill="url(#t)" d="M21.818 13.426a9.714 9.714 0 00-1.173 1.671 50.613 50.613 0 01-3.669-7.068 16.57 16.57 0 00-3.455 3.959A123.25 123.25 0 0120.5 19.05a9.585 9.585 0 011.44-1.792c.753.37 1.514.721 2.284 1.054.572.248 1.864 1.093 2.477 1.029-.32-.532-4.343-4.987-4.749-5.893a.08.08 0 00-.133-.023z" transform="translate(25 1)"/>
    <path fill="url(#u)" d="M28.316 4.35c-.383.165-.747.37-1.087.61A30.917 30.917 0 0127.075.1c-1.044.263-2.04.691-2.949 1.268A75.287 75.287 0 0126.104 7.1a5.856 5.856 0 011.266-.606c.318.402.644.797.98 1.184.25.287.738 1.094 1.093 1.22-.035-.377-1.075-3.894-1.06-4.5a.05.05 0 00-.067-.048z" transform="translate(25 1)"/>
    <path fill="url(#v)" d="M17.122 23.085a15.56 15.56 0 01.787 3.174 81.075 81.075 0 009.563-8.442 26.543 26.543 0 012.877 7.91 197.434 197.434 0 00-14.506 6.524 15.355 15.355 0 00-1.116-3.508 84.808 84.808 0 01-4.022.255c-.996.04-3.415.557-4.294.106.784-.61 9.37-4.943 10.498-6.063a.129.129 0 01.213.044z" transform="translate(95 1)"/>
    <path fill="url(#w)" d="M9.13 12.285a9.714 9.714 0 011.172 1.67 50.613 50.613 0 003.67-7.067 16.57 16.57 0 013.454 3.958 123.253 123.253 0 00-6.978 7.063 9.585 9.585 0 00-1.44-1.791c-.753.369-1.514.72-2.284 1.054-.571.247-1.863 1.093-2.477 1.028.32-.532 4.344-4.987 4.749-5.893a.08.08 0 01.134-.022z" transform="translate(95 1)"/>
    <path fill="url(#x)" d="M1.545 4.295c.383.165.747.37 1.087.61.18-1.613.23-3.24.154-4.861 1.044.263 2.04.69 2.949 1.268a75.321 75.321 0 00-1.978 5.733 5.854 5.854 0 00-1.266-.607c-.318.403-.644.797-.98 1.184-.25.287-.738 1.094-1.093 1.22.035-.376 1.075-3.893 1.06-4.5a.05.05 0 01.067-.047z" transform="translate(95 1)"/>
    <path fill="url(#y)" d="M141.135 12.749c-10.763 0-19.58 11.368-20.365 25.79-2.36.602-4.247 2.568-2.333 7.593 1.017 2.668 1.713 3.503 3.574 4.295 2.904 10.567 10.37 18.087 19.124 18.087 11.28 0 20.422-12.483 20.422-27.882 0-15.4-9.143-27.883-20.422-27.883z" transform="translate(-65 -12)"/>
    <path fill="url(#z)" d="M120.733 38.54c-2.36.6-4.248 2.567-2.333 7.592 1.016 2.668 1.713 3.503 3.573 4.295 2.905 10.567 10.371 18.087 19.125 18.087.836 0 1.672-.07 2.497-.207 2.11-2.444 3.172-6.174 3.889-9.024 2.283-9.072 1.912-19.087 1.492-28.446a35.428 35.428 0 00-1.735-10.156 22.02 22.02 0 00-1.449-3.273 18.157 18.157 0 00-2.738-3.797c-.281-.29-.577-.565-.886-.824a15.21 15.21 0 00-1.07-.038c-10.763 0-19.581 11.368-20.365 25.79z" transform="translate(-65 -12)"/>
    <path fill="#EEBDAA" d="M94.731 23.024a8.356 8.356 0 01.477 4.775c-.21 2.144-.672 6.683-3.493 6.996a6.734 6.734 0 01-3.839-.992 8.505 8.505 0 00-6.398-.7c-1.42.455-2.704 1.235-4.092 1.768a17.634 17.634 0 01-4.624.923c-.493.06-.992.057-1.484-.01-2.39-.397-3.749-3.247-4.047-5.432-.303-2.213-.06-5.714 1.455-7.492 1.823-2.14 5.103-2.277 7.697-2.398 4.152-.195 8.334-.004 12.49.044 2.464.028 4.8.565 5.858 2.518z"/>
    <path fill="url(#A)" d="M141.383 32.462c-2.594.121-5.874.259-7.697 2.398-1.515 1.778-1.758 5.28-1.455 7.492.299 2.184 1.656 5.035 4.047 5.433.492.066.991.07 1.484.009 1.576-.1 3.13-.41 4.624-.923 1.388-.533 2.672-1.313 4.092-1.768a7.347 7.347 0 012.858-.322c.1-4.142-.041-8.306-.217-12.363-2.581-.05-5.165-.077-7.736.044z" transform="translate(-65 -12)"/>
    <path fill="#01002B" fill-rule="nonzero" d="M77.125 25.389a2.871 2.871 0 00-.66-.497c-.238-.149-.48-.294-.718-.444-.475-.299-.96-.595-1.412-.93l-.333.571c.234.17.473.334.704.51.22.173.451.331.693.472.564.275 1.15.505 1.75.687l.085-.632a5.14 5.14 0 01-3.284-1.085.338.338 0 00-.46.12.344.344 0 00.12.46 5.98 5.98 0 003.624 1.149.321.321 0 00.086-.632l-.845-.335a5.93 5.93 0 01-.783-.34c-.478-.274-.872-.685-1.357-.944-.374-.2-.707.366-.333.57.493.27.972.567 1.465.838.247.136.494.272.744.4.241.141.503.242.776.3a.144.144 0 00.138-.238zm9.717.461c.273-.057.534-.158.775-.299.251-.128.498-.264.744-.4.493-.271.972-.57 1.466-.838.373-.204.041-.77-.334-.57-.485.258-.878.67-1.357.944a5.712 5.712 0 01-.754.329l-.873.345a.322.322 0 10.086.632 5.98 5.98 0 003.623-1.148.346.346 0 00.12-.46.338.338 0 00-.459-.12 5.141 5.141 0 01-3.285 1.085l.086.632c.6-.182 1.185-.412 1.75-.687.241-.141.473-.3.693-.473.23-.175.47-.34.704-.51l-.334-.57c-.45.335-.937.63-1.412.93-.238.15-.48.295-.718.444-.243.132-.465.3-.66.497a.144.144 0 00.139.237z"/>
    <path d="M-65-12h288v224H-65z"/>
    <g fill-rule="nonzero" transform="translate(73 26)">
      <path fill="#01002B" d="M2.78.361a2.153 2.153 0 00-2 2.36 2.027 2.027 0 104 0 2.153 2.153 0 00-2-2.36z"/>
      <ellipse cx="2.78" cy="2.72" fill="#FFF" rx="1.305" ry="1.828"/>
    </g>
    <g fill-rule="nonzero" transform="translate(87 26)">
      <path fill="#01002B" d="M2.362.007a2.153 2.153 0 00-2 2.36 2.027 2.027 0 104 0 2.153 2.153 0 00-2-2.36z"/>
      <ellipse cx="2.362" cy="2.367" fill="#FFF" rx="1.305" ry="1.828"/>
    </g>
  </g>
</svg>
