<svg width="320" height="260" viewBox="0 0 320 260" fill="none" xmlns="http://www.w3.org/2000/svg">
    <path d="M101.825 16H180.416C190.26 16 198.241 23.9804 198.241 33.8248V88.9197L198.238 89.2145C198.1 97.7461 191.968 104.821 183.869 106.41L183.625 106.456L183.625 115.7L183.619 116.04L183.613 116.22C183.342 121.734 178.854 126.099 173.347 126.23L172.976 126.233L172.534 126.219L172.417 126.211L172.08 126.184C170.178 126 168.358 125.302 166.818 124.16L143.34 106.745H101.825C91.9804 106.745 84 98.7641 84 88.9197V33.8248C84 23.9804 91.9804 16 101.825 16Z" fill="#464558"/>
    <path d="M101.825 23.292C96.0077 23.292 91.292 28.0077 91.292 33.8248V88.9197C91.292 94.7369 96.0077 99.4526 101.825 99.4526H145.748L171.162 118.303C171.664 118.676 172.263 118.894 172.885 118.934L173.093 118.941C174.828 118.941 176.245 117.576 176.329 115.862L176.333 115.7L176.334 99.4526H180.416C186.233 99.4526 190.949 94.7369 190.949 88.9197V33.8248C190.949 28.0077 186.233 23.292 180.416 23.292H101.825Z" fill="#F3F3F3"/>
    <path d="M126.007 63.0934L118.493 66.2828C117.791 66.5807 117.474 67.3652 117.772 68.0669L126.277 88.1034C126.575 88.8051 127.36 89.1221 128.061 88.8242L135.575 85.6348C136.277 85.337 136.593 84.5527 136.295 83.8511L127.79 63.8145C127.493 63.1126 126.709 62.7956 126.007 63.0934Z" fill="#464558"/>
    <path d="M163.244 50.0881C162.378 48.0474 160.1 46.5769 157.424 47.7128L145.292 52.8626C145.709 49.0266 144.368 44.4495 141.809 41.7703C139.928 39.7992 137.655 39.1478 135.407 39.9375L135.371 39.9496C133.909 40.4668 133.129 42.0571 133.615 43.5294C134.646 46.8263 135.635 53.0122 134.492 55.843C133.529 58.2266 132.394 59.5354 130.512 61.7039C130.24 62.018 129.943 62.3607 129.63 62.727C129.673 62.8098 129.714 62.8939 129.751 62.9819L138.17 82.8142C138.498 82.7907 138.822 82.7681 139.141 82.7454C143.632 82.4328 147.513 82.1612 152.689 79.9643L162.498 75.8008C165.174 74.6646 165.698 72.0042 164.832 69.9643C164.575 69.3586 164.194 68.8036 163.715 68.3511C164.539 67.8124 165.137 67.0524 165.437 66.1508C165.776 65.1266 165.717 63.9819 165.27 62.928C165.014 62.3246 164.633 61.7696 164.155 61.3181C166.147 60.0349 166.483 57.7157 165.709 55.8922C165.26 54.8347 164.431 53.9299 163.365 53.4623C163.768 52.3706 163.693 51.1456 163.244 50.0881Z" fill="#2A2A2A"/>
    <path opacity="0.0979133" fill-rule="evenodd" clip-rule="evenodd" d="M84 43.6582L84 88.9197C84 98.7641 91.9804 106.745 101.825 106.745H143.34L166.818 124.16C168.358 125.302 170.178 126 172.08 126.184L172.417 126.211L172.534 126.219L172.976 126.233L173.347 126.23C178.854 126.099 183.342 121.734 183.613 116.22L183.619 116.04L183.625 115.7L183.625 106.456L183.869 106.41C187.179 105.761 190.16 104.195 192.538 101.988C141.987 101.376 99.2682 77.133 84 43.6582Z" fill="black"/>
    <ellipse cx="159.909" cy="234.409" rx="138.5" ry="8" fill="#131313" fill-opacity="0.2"/>
    <path d="M245.664 223.956L247.794 232.477C247.873 232.794 248.156 233.018 248.484 233.023C251.888 233.067 269.836 233.299 270.861 233.299C271.994 233.299 271.708 231.125 270.295 230.467C266.791 228.837 258.056 226.084 256.166 224.194C254.05 222.078 245.664 223.956 245.664 223.956Z" fill="#575770"/>
    <path d="M256.056 223.178C256.054 223.531 255.98 223.879 255.838 224.201C255.389 225.059 254.215 225.141 253.248 225.11L246.553 224.894C246.414 224.903 246.274 224.871 246.153 224.801C246.062 224.724 245.993 224.626 245.951 224.515C244.233 220.885 243.62 216.823 242.045 213.129C241.169 211.076 240 209.146 239.293 207.03C238.558 204.455 238.173 201.793 238.147 199.115C239.401 199.113 240.653 199.036 241.898 198.885C245.462 198.525 249.149 198.125 252.245 196.325C253.512 195.589 254.841 194.389 256.355 194.243C256.554 195.13 256.611 196.044 256.526 196.95C256.561 197.907 256.591 198.863 256.615 199.82C256.662 201.69 256.687 203.559 256.69 205.43C256.696 209.214 256.612 212.997 256.438 216.779C256.339 218.913 256.212 221.047 256.056 223.178Z" fill="#575770"/>
    <path d="M203.296 224.672L201.165 233.193C201.086 233.511 200.803 233.735 200.476 233.739C197.072 233.783 179.123 234.015 178.098 234.015C176.966 234.015 177.251 231.842 178.665 231.184C182.169 229.553 190.904 226.801 192.794 224.911C194.91 222.795 203.296 224.672 203.296 224.672Z" fill="#464558"/>
    <rect x="242.598" y="94.6317" width="19.5169" height="3.89425" transform="rotate(-63.4333 242.598 94.6317)" fill="black"/>
    <path d="M251.345 77.256L254.736 78.951H252.674L251.345 77.256Z" fill="#4D4D4D"/>
    <path d="M250.515 78.915L252.669 78.961L253.906 80.611H251.844L250.515 78.915Z" fill="#4D4D4D"/>
    <path d="M249.691 80.563L251.844 80.609L253.082 82.259H251.019L249.691 80.563Z" fill="#4D4D4D"/>
    <path d="M248.86 82.223L251.014 82.269L252.251 83.919H250.189L248.86 82.223Z" fill="#4D4D4D"/>
    <path d="M248.006 83.931L250.16 83.976L251.397 85.626H249.335L248.006 83.931Z" fill="#4D4D4D"/>
    <path d="M247.176 85.59L249.33 85.636L250.567 87.286H248.505L247.176 85.59Z" fill="#4D4D4D"/>
    <path d="M246.352 87.238L248.506 87.284L249.743 88.934H247.681L246.352 87.238Z" fill="#4D4D4D"/>
    <path d="M245.522 88.8979L247.675 88.9439L248.913 90.5939H246.85L245.522 88.8979Z" fill="#4D4D4D"/>
    <path d="M244.706 90.528L246.86 90.574L248.097 92.224H246.035L244.706 90.528Z" fill="#4D4D4D"/>
    <path d="M243.876 92.188L246.03 92.234L247.267 93.884H245.205L243.876 92.188Z" fill="#4D4D4D"/>
    <path d="M243.052 93.8359L245.206 93.8819L246.443 95.5319H244.381L243.052 93.8359Z" fill="#4D4D4D"/>
    <rect x="251.067" y="75.4767" width="5.88095" height="2.31037" rx="0.68027" transform="rotate(26.5739 251.067 75.4767)" fill="#4D4D4D"/>
    <rect x="191.467" y="78.9172" width="3.89425" height="19.5169" transform="rotate(-26.5667 191.467 78.9172)" fill="black"/>
    <path d="M194.931 77.256L191.54 78.951H193.602L194.931 77.256Z" fill="#4D4D4D"/>
    <path d="M195.761 78.9149L193.607 78.9609L192.37 80.6109H194.432L195.761 78.9149Z" fill="#4D4D4D"/>
    <path d="M196.586 80.563L194.432 80.609L193.195 82.259H195.257L196.586 80.563Z" fill="#4D4D4D"/>
    <path d="M197.416 82.223L195.262 82.269L194.025 83.919H196.087L197.416 82.223Z" fill="#4D4D4D"/>
    <path d="M198.27 83.931L196.116 83.976L194.879 85.626H196.941L198.27 83.931Z" fill="#4D4D4D"/>
    <path d="M199.1 85.59L196.946 85.636L195.709 87.286H197.771L199.1 85.59Z" fill="#4D4D4D"/>
    <path d="M199.924 87.2379L197.771 87.2839L196.533 88.9339H198.595L199.924 87.2379Z" fill="#4D4D4D"/>
    <path d="M200.755 88.8979L198.601 88.9439L197.364 90.5939H199.426L200.755 88.8979Z" fill="#4D4D4D"/>
    <path d="M201.57 90.528L199.416 90.574L198.179 92.224H200.241L201.57 90.528Z" fill="#4D4D4D"/>
    <path d="M202.4 92.188L200.246 92.234L199.009 93.884H201.071L202.4 92.188Z" fill="#4D4D4D"/>
    <path d="M203.224 93.8359L201.071 93.8819L199.833 95.5319H201.896L203.224 93.8359Z" fill="#4D4D4D"/>
    <rect x="196.243" y="77.543" width="5.88095" height="2.31037" rx="0.68027" transform="rotate(153.426 196.243 77.543)" fill="#4D4D4D"/>
    <path d="M265.599 131.388C266.689 135.39 267.152 139.537 266.97 143.681C266.555 149.91 266.285 149.266 266.285 149.266L258.574 149.038C258.15 149.026 257.789 148.73 257.693 148.317C256.982 145.24 254.129 133.028 253.494 132.302C252.767 131.472 265.599 131.388 265.599 131.388Z" fill="#575770"/>
    <path d="M260.623 94.9348C260.623 94.9348 267.662 120.744 267.642 123.402C267.621 126.06 266.853 130.545 264.361 132.725C261.869 134.905 255.35 136.504 251.716 132.351C248.082 128.199 243.244 113.955 243.244 113.955L260.623 94.9348Z" fill="black"/>
    <path d="M258.184 181.512C259.204 184.559 259.74 187.747 259.771 190.961C259.491 194.132 258.257 197.145 256.231 199.602C255.09 201.192 253.535 202.441 251.736 203.213C249.892 203.882 247.907 204.066 245.971 203.748C241.926 203.188 237.842 201.969 235.395 198.632C233.998 196.514 233.076 194.119 232.689 191.612C230.915 183.002 230.65 174.109 229.898 165.399C229.836 164.952 229.797 164.501 229.782 164.049L237.674 161.836C239.993 161.14 242.351 160.583 244.736 160.169C245.943 159.975 247.163 159.87 248.385 159.856C249.521 159.746 250.668 159.858 251.762 160.184C252.536 160.544 252.602 161.529 252.798 162.231C253.14 163.455 253.482 164.679 253.824 165.903L255.876 173.249L258.184 181.512Z" fill="black"/>
    <path d="M192.609 224.488C192.613 224.84 192.688 225.188 192.832 225.51C193.284 226.366 194.459 226.442 195.426 226.407L202.119 226.16C202.259 226.168 202.398 226.135 202.52 226.065C202.61 225.987 202.679 225.889 202.72 225.778C204.421 222.14 205.015 218.075 206.573 214.373C207.439 212.316 208.599 210.381 209.296 208.261C210.019 205.683 210.392 203.019 210.405 200.341C209.151 200.345 207.898 200.274 206.653 200.129C203.088 199.785 199.399 199.403 196.294 197.617C195.024 196.887 193.689 195.694 192.175 195.554C191.98 196.443 191.926 197.357 192.016 198.262C191.985 199.219 191.96 200.176 191.94 201.133C191.902 203.003 191.886 204.872 191.891 206.742C191.903 210.527 192.005 214.309 192.197 218.09C192.306 220.225 192.443 222.357 192.609 224.488Z" fill="#464558"/>
    <path d="M191.739 181.664C190.821 184.723 190.364 187.901 190.384 191.095C190.686 194.246 191.883 197.245 193.834 199.737C194.906 201.309 196.384 202.561 198.111 203.359C199.835 204.032 201.711 204.224 203.536 203.914C207.328 203.369 211.149 202.166 213.4 198.843C214.691 196.704 215.523 194.32 215.841 191.842C217.384 183.25 217.504 174.37 218.085 165.675C218.093 165.555 218.218 164.341 218.175 164.328L210.727 162.089C208.545 161.387 206.32 160.823 204.067 160.399C202.933 160.201 201.785 160.092 200.634 160.073C199.567 159.959 198.489 160.067 197.466 160.389C196.743 160.746 196.695 161.729 196.521 162.429C196.217 163.65 195.914 164.872 195.61 166.093L193.788 173.421L191.739 181.664Z" fill="black"/>
    <path d="M180.722 132.616C179.349 136.53 178.592 140.633 178.478 144.779C178.447 151.022 178.763 150.399 178.763 150.399L186.47 150.722C186.893 150.74 187.275 150.47 187.4 150.066C188.329 147.047 192.046 135.069 192.731 134.391C193.515 133.614 180.722 132.616 180.722 132.616Z" fill="#464558"/>
    <path d="M185.235 96.6445C185.235 96.6445 177.641 122.296 177.605 124.954C177.568 127.612 178.24 132.112 180.684 134.345C183.128 136.579 189.612 138.318 193.334 134.244C197.056 130.171 202.2 116.034 202.2 116.034L185.235 96.6445Z" fill="black"/>
    <path d="M179.378 155.982C179.907 157.858 181.236 159.406 183.01 160.213C183.334 160.352 183.676 160.445 184.025 160.489C184.865 160.535 185.702 160.353 186.447 159.962C186.954 159.759 187.411 159.448 187.788 159.052C188.236 158.521 188.419 157.815 188.286 157.134C188.244 156.988 188.223 156.837 188.224 156.686C188.273 156.468 188.364 156.262 188.493 156.08C188.888 155.106 188.726 153.995 188.071 153.174C187.494 152.321 186.695 151.635 186.125 150.778C186.065 150.675 185.99 150.582 185.903 150.502C185.824 150.443 185.735 150.399 185.64 150.373C185.015 150.286 184.38 150.327 183.771 150.492C182.502 150.636 181.263 150.132 179.995 150.237C179.721 150.26 179.45 150.253 179.319 150.502C179.203 150.839 179.138 151.191 179.124 151.547C179.02 152.239 178.979 152.939 179 153.639C179.022 154.433 179.15 155.221 179.378 155.982Z" fill="black"/>
    <path d="M185.2 97.1185C185.037 96.9754 184.951 96.7638 184.968 96.5476C184.985 96.3314 185.103 96.1358 185.286 96.02C189.284 93.5109 206.412 83.2423 218.976 83.2423C233.12 83.2423 253.612 86.8347 260.762 95.0161C260.919 95.1981 260.968 95.4496 260.891 95.6772C259.834 98.8624 252.222 121.905 251.304 127.415C250.617 132.155 250.287 136.939 250.317 141.728C250.317 143.032 256.442 154.672 257.903 157.431C258.077 157.759 257.958 158.167 257.635 158.35C254.424 160.178 238.5 168.873 226.133 168.873C213.664 168.873 193.16 160.034 189.271 158.306C189.1 158.23 188.968 158.089 188.904 157.914C188.84 157.739 188.851 157.545 188.932 157.378L196.451 141.871C196.496 141.777 196.52 141.674 196.52 141.569C196.517 140.353 196.481 132.455 196.026 127.909C195.557 123.217 190.181 101.575 185.2 97.1185Z" fill="#575770"/>
    <path d="M185.2 97.1185C185.037 96.9754 184.951 96.7638 184.968 96.5476C184.985 96.3314 185.103 96.1358 185.286 96.02C189.284 93.5109 210.207 83.2423 222.771 83.2423C222.042 96.9889 224.345 151.105 223.776 168.873C211.307 168.873 193.16 160.034 189.271 158.306C189.1 158.23 188.968 158.089 188.904 157.914C188.84 157.739 188.851 157.545 188.932 157.378L196.451 141.871C196.496 141.777 196.52 141.674 196.52 141.569C196.517 140.353 196.481 132.455 196.026 127.909C195.557 123.217 190.181 101.575 185.2 97.1185Z" fill="#464558"/>
    <path opacity="0.1" d="M234.093 85.1657C234.052 85.214 234.007 85.2623 233.965 85.3127C232.648 86.8501 239.756 89.4797 238.263 90.8429C233.91 94.8163 229.744 99.0679 225.092 102.695C220.627 106.241 215.668 109.117 210.372 111.231C204.808 113.392 198.719 113.868 193.261 116.299C191.142 108.815 188.121 100.458 185.233 97.8769C185.071 97.7332 184.985 97.5215 185.002 97.3051C185.019 97.0888 185.137 96.893 185.319 96.7763C189.318 94.2685 206.447 84 219.011 84C224.06 84.0206 229.101 84.4101 234.093 85.1657Z" fill="black"/>
    <path fill-rule="evenodd" clip-rule="evenodd" d="M229.859 79.6384H236.859C236.859 79.6384 239.476 87.9243 240.348 97.7946C241.22 107.665 240.348 119.12 240.348 119.12C240.348 119.12 239.905 121.403 236.859 122.991C233.814 124.579 229.859 124.589 229.859 124.589C229.859 124.589 231.366 113.351 231.366 102.114C231.366 90.876 229.859 79.6384 229.859 79.6384Z" fill="#2B2A37"/>
    <path fill-rule="evenodd" clip-rule="evenodd" d="M203.623 82.6607C203.623 82.6607 193.336 87.3831 201.868 98.0718C210.401 108.76 235.295 108.377 242.848 96.779C250.4 85.1813 235.655 79 235.655 79L203.623 82.6607Z" fill="#464558"/>
    <path fill-rule="evenodd" clip-rule="evenodd" d="M234.859 84.6384H241.859C241.859 84.6384 244.476 92.9243 245.348 102.795C246.22 112.665 245.348 124.12 245.348 124.12C245.348 124.12 244.905 126.403 241.859 127.991C238.814 129.579 234.859 129.589 234.859 129.589C234.859 129.589 236.366 118.351 236.366 107.114C236.366 95.876 234.859 84.6384 234.859 84.6384Z" fill="#464558"/>
    <path opacity="0.3" d="M234.093 85.1656C234.052 85.2139 234.007 85.2622 233.965 85.3127C232.648 86.8501 239.756 89.4797 238.263 90.8428C233.91 94.8162 229.744 99.0678 225.092 102.695C220.627 106.241 215.668 109.117 210.372 111.231C204.808 113.392 198.719 113.868 193.261 116.299C191.142 108.815 188.121 100.458 185.233 97.8768C185.071 97.7331 184.985 97.5214 185.002 97.3051C185.019 97.0888 185.05 96.4532 185.233 96.3365C187.141 95.1404 192.019 91.9501 198 89.2839C198.738 80.8922 213.796 79.2931 219.011 83.9999C224.06 84.0205 229.101 84.4101 234.093 85.1656Z" fill="black"/>
    <path d="M196.322 131.437C196.322 131.437 226.506 148.884 250.721 131.227L250.301 141.729C250.301 141.729 228.818 156.863 196.532 141.729L196.322 131.437Z" fill="black"/>
    <path fill-rule="evenodd" clip-rule="evenodd" d="M244.563 64.3351C244.361 64.3319 244.161 64.3752 243.979 64.4618C242.012 51.1563 233.24 41.1227 222.714 41.1227C212.202 41.1227 203.439 51.1287 201.456 64.4072C201.313 64.3566 201.161 64.3322 201.009 64.3351C199.497 64.3726 198.341 67.1792 198.426 70.6039C198.508 73.9258 200.301 77.5281 201.788 77.707C204.282 90.0373 212.705 99.1093 222.714 99.1093C232.721 99.1093 241.142 90.0404 243.639 77.7132L243.647 77.714C245.158 77.7515 247.061 74.0285 247.146 70.6039C247.231 67.1793 246.074 64.3726 244.563 64.3351Z" fill="#575770"/>
    <path fill-rule="evenodd" clip-rule="evenodd" d="M222.795 41.1251C222.768 41.125 222.741 41.1227 222.714 41.1227C212.202 41.1227 203.439 51.1287 201.456 64.4072C201.313 64.3566 201.161 64.3322 201.009 64.3351C199.497 64.3726 198.341 67.1792 198.426 70.6039C198.508 73.9258 200.301 77.5281 201.788 77.707C204.282 90.0373 212.705 99.1093 222.714 99.1093C222.741 99.1093 222.768 99.1071 222.795 99.107V41.1251Z" fill="#464558"/>
    <path fill-rule="evenodd" clip-rule="evenodd" d="M239.237 65.4359C237.319 63.186 233.869 63.0415 231.142 62.9133H214.4C211.672 63.0415 208.222 63.186 206.304 65.4359C204.711 67.3056 204.455 70.9885 204.774 73.3159C205.088 75.6131 206.516 78.6117 209.031 79.0297C209.549 79.0994 210.073 79.1025 210.592 79.039C212.249 78.9345 213.884 78.6079 215.455 78.068C216.915 77.5079 218.266 76.6877 219.759 76.2086C220.32 76.029 220.899 75.915 221.486 75.869C222.078 75.8226 222.675 75.843 223.268 75.8456L223.377 75.8461C223.957 75.8438 224.536 75.9037 225.103 76.0249C225.332 76.0756 225.559 76.1368 225.783 76.2086C227.276 76.6877 228.627 77.5079 230.087 78.068C231.657 78.6079 233.293 78.9345 234.95 79.039C235.469 79.1025 235.993 79.0994 236.511 79.0297C239.025 78.6117 240.453 75.6131 240.768 73.3159C241.086 70.9885 240.831 67.3056 239.237 65.4359Z" fill="#EEBDAA"/>
    <path fill-rule="evenodd" clip-rule="evenodd" d="M222.791 62.9137V75.841C222.355 75.8384 221.919 75.8357 221.485 75.8676C220.899 75.9145 220.319 76.0287 219.759 76.2081C218.264 76.6869 216.915 77.5061 215.455 78.0674C213.884 78.607 212.248 78.9335 210.59 79.0383C210.072 79.1021 209.549 79.0994 209.031 79.0303C206.515 78.61 205.089 75.6123 204.773 73.3141C204.456 70.9866 204.712 67.3053 206.305 65.4353C208.223 63.185 211.673 63.0414 214.399 62.9137L222.791 62.9137Z" fill="#D19F93"/>
    <path d="M265.354 154.878C264.785 156.742 263.423 158.261 261.632 159.03C261.305 159.162 260.962 159.247 260.611 159.284C259.77 159.311 258.938 159.111 258.201 158.705C257.699 158.49 257.248 158.17 256.881 157.766C256.444 157.225 256.276 156.516 256.424 155.837C256.469 155.693 256.493 155.542 256.495 155.391C256.451 155.172 256.364 154.964 256.239 154.779C255.866 153.797 256.051 152.69 256.724 151.883C257.32 151.043 258.133 150.374 258.721 149.529C258.783 149.428 258.86 149.337 258.949 149.259C259.029 149.201 259.119 149.159 259.215 149.135C259.841 149.062 260.476 149.116 261.081 149.294C262.347 149.466 263.596 148.988 264.861 149.121C265.135 149.15 265.406 149.148 265.532 149.4C265.64 149.739 265.698 150.093 265.704 150.45C265.793 151.144 265.819 151.844 265.783 152.543C265.743 153.337 265.599 154.122 265.354 154.878Z" fill="black"/>
    <ellipse cx="231.299" cy="70.9586" rx="1.53275" ry="2" fill="white" stroke="#01002B" stroke-width="0.7"/>
    <path d="M232.502 67.3645C232.75 67.4335 232.964 67.5001 232.998 67.1095C233.022 66.8316 232.587 66.7622 232.694 66.7756C232.866 66.7972 232.975 66.6742 232.998 66.5025C233.017 66.3313 232.897 66.1759 232.727 66.1496C231.541 65.8699 230.297 65.9845 229.182 66.476C229.044 66.5353 228.971 66.6869 229.011 66.8316C229.052 66.9749 229.19 67.068 229.338 67.0524L230.189 67.0339C230.455 67.0176 230.722 67.0206 230.988 67.0427C231.501 67.1053 231.847 67.1816 232.502 67.3645Z" fill="#01002B"/>
    <ellipse rx="1.53275" ry="2" transform="matrix(-1 0 0 1 214.701 70.9586)" fill="white" stroke="#01002B" stroke-width="0.7"/>
    <path d="M213.498 67.3645C213.25 67.4335 213.036 67.5001 213.002 67.1095C212.978 66.8316 213.413 66.7622 213.306 66.7756C213.134 66.7972 213.025 66.6742 213.002 66.5025C212.983 66.3313 213.103 66.1759 213.273 66.1496C214.459 65.8699 215.703 65.9845 216.818 66.476C216.956 66.5353 217.029 66.6869 216.989 66.8316C216.948 66.9749 216.81 67.068 216.662 67.0524L215.811 67.0339C215.545 67.0176 215.278 67.0206 215.012 67.0427C214.499 67.1053 214.153 67.1816 213.498 67.3645Z" fill="#01002B"/>
    <path fill-rule="evenodd" clip-rule="evenodd" d="M68 68.2794L62.1221 71.0902L62.979 64.6314L58.4894 59.9098L64.8968 58.7289L68 53L71.1032 58.7289L77.5106 59.9098L73.021 64.6314L73.8779 71.0902L68 68.2794Z" fill="#EB9300"/>
    <path fill-rule="evenodd" clip-rule="evenodd" d="M44 53.6397L41.0611 55.0451L41.4895 51.8157L39.2447 49.4549L42.4484 48.8644L44 46L45.5516 48.8644L48.7553 49.4549L46.5105 51.8157L46.9389 55.0451L44 53.6397Z" fill="#EB9300"/>
    <path d="M138.312 82H42.6879C30.71 82 21 91.7011 21 103.668V170.642L21.0029 171C21.1712 181.371 28.6327 189.971 38.4867 191.904L38.7831 191.959L38.7831 203.197L38.7906 203.61L38.7986 203.828C39.1284 210.532 44.5886 215.837 51.2886 215.996L51.7411 216L52.2787 215.983L52.4208 215.974L52.8303 215.941C55.1449 215.717 57.3593 214.869 59.2333 213.48L87.7999 192.31H138.312C150.29 192.31 160 182.609 160 170.642V103.668C160 91.7011 150.29 82 138.312 82Z" fill="#575770"/>
    <path d="M138.211 91C145.274 91 151 96.7191 151 103.774V170.591C151 177.646 145.274 183.365 138.211 183.365H84.8819L54.0247 206.226C53.4145 206.679 52.6877 206.943 51.9331 206.992L51.6806 207C49.5732 207 47.8528 205.345 47.7504 203.266L47.7456 203.07L47.7447 183.365H42.7886C35.7257 183.365 30 177.646 30 170.591V103.774C30 96.7191 35.7257 91 42.7886 91H138.211Z" fill="white"/>
    <path d="M90.8328 119.625L90 120.451L89.1672 119.625C82.9523 113.458 72.876 113.458 66.6612 119.625C60.4463 125.792 60.4463 135.79 66.6612 141.956L89.8849 165L90 164.886L90.1151 165L113.339 141.956C119.554 135.79 119.554 125.792 113.339 119.625C107.124 113.458 97.0477 113.458 90.8328 119.625Z" fill="#C23814"/>
    <path opacity="0.0969554" fill-rule="evenodd" clip-rule="evenodd" d="M24.9753 91.1613C34.1632 116.299 63.1034 168.312 148.78 189.624C145.676 191.336 142.108 192.31 138.312 192.31H87.7999L59.2333 213.48C57.3593 214.869 55.1449 215.717 52.8303 215.941L52.4208 215.974L52.2787 215.983L51.7411 216L51.2886 215.996C44.5886 215.837 39.1284 210.532 38.7986 203.828L38.7906 203.61L38.7831 203.197L38.7831 191.959L38.4867 191.904C28.6327 189.971 21.1712 181.371 21.0029 171L21 170.642V103.668C21 99.0095 22.4714 94.6944 24.9753 91.1613Z" fill="black"/>
    <path fill-rule="evenodd" clip-rule="evenodd" d="M163 210.64L160.061 212.045L160.489 208.816L158.245 206.455L161.448 205.864L163 203L164.552 205.864L167.755 206.455L165.511 208.816L165.939 212.045L163 210.64Z" fill="#EB9300"/>
    <path fill-rule="evenodd" clip-rule="evenodd" d="M142 203.279L136.122 206.09L136.979 199.631L132.489 194.91L138.897 193.729L142 188L145.103 193.729L151.511 194.91L147.021 199.631L147.878 206.09L142 203.279Z" fill="#EB9300"/>
</svg>
