<svg xmlns="http://www.w3.org/2000/svg" fill="none" viewBox="0 0 56 56">
  <ellipse cx="27.542" cy="51.054" fill="#D8D8D8" rx="25.181" ry=".862"/>
  <path fill="#323147" d="M23.197 40.122c-3.826.55-7.195.348-10.106-.604-2.912-.952-5.268-2.566-7.067-4.843-1.772-2.314-2.903-5.184-3.395-8.607-.588-4.095-.226-7.658 1.086-10.69 1.345-3.036 3.297-5.423 5.857-7.16 2.559-1.739 5.35-2.824 8.37-3.258 2.685-.386 5.109-.323 7.272.189 2.163.511 3.892 1.342 5.188 2.492 1.296 1.15 2.047 2.446 2.254 3.89.3 2.08-.023 3.651-.967 4.711-.949 1.027-2.212 1.654-3.79 1.88-.738.107-1.402.134-1.992.081a14.49 14.49 0 0 1-1.791-.308 12.711 12.711 0 0 0-1.885-.243c-.523-.062-1.17-.037-1.942.073-2.215.319-3.864 1.24-4.947 2.766-1.087 1.492-1.457 3.447-1.11 5.863.294 2.048 1.141 3.536 2.542 4.465 1.401.93 3.024 1.262 4.87.996 1.04-.149 1.928-.413 2.661-.793.734-.38 1.278-.766 1.632-1.16.355-.392.518-.69.489-.891-2.45.352-4.354.334-5.712-.054-1.357-.387-2.137-1.286-2.34-2.695-.202-1.41.128-2.57.99-3.482.858-.946 2.445-1.585 4.761-1.917 2.383-.343 4.287-.325 5.711.053 1.42.344 2.5 1.063 3.239 2.155.734 1.06 1.239 2.546 1.514 4.46.28 1.946-.05 3.826-.989 5.64-.905 1.808-2.294 3.343-4.168 4.606-1.84 1.257-3.919 2.052-6.235 2.385Z"/>
  <path fill="#323147" d="M44.48 26.623c-3.23.444-5.768-.032-7.616-1.428-1.828-1.399-3.004-3.926-3.53-7.583-.475-3.315-.071-6.029 1.213-8.14 1.28-2.133 3.34-3.403 6.18-3.81 1.749-.252 3.314-.2 4.694.156 1.38.355 2.493.985 3.337 1.889.844.904 1.365 2.04 1.56 3.406.157 1.085.062 2.082-.283 2.993-.326.908-.889 1.758-1.688 2.55.737.017 1.416.33 2.04.937.642.605 1.028 1.36 1.158 2.264a5.402 5.402 0 0 1-.364 2.851c-.365.914-1.102 1.727-2.21 2.44-1.088.71-2.585 1.202-4.49 1.475Zm-3.626-10.952c.376.13.826.158 1.351.083.622-.09 1.135-.317 1.54-.683.42-.388.585-.894.496-1.517-.087-.603-.385-1.021-.895-1.255-.493-.258-1.06-.34-1.702-.248-.506.072-.92.224-1.244.455-.255.16-.43.4-.522.721a2.34 2.34 0 0 0-.066.994c.05.341.164.653.343.935.176.262.41.433.699.515Zm1.013 7.052c.392.108.841.125 1.347.053.622-.09 1.138-.297 1.547-.622.426-.349.6-.794.523-1.337-.075-.522-.366-.89-.873-1.105-.507-.214-1.072-.276-1.694-.187-.486.07-.902.212-1.248.426-.255.16-.432.38-.53.66-.102.26-.131.542-.088.843.043.302.152.573.325.815.171.221.401.373.69.454Z"/>
  <path fill="#464558" fill-rule="evenodd" d="M43.956 19.526a35.788 35.788 0 0 0-.878-14.061c-.75-.018-1.541.032-2.375.152-2.838.408-4.898 1.678-6.179 3.81-1.284 2.112-1.688 4.825-1.212 8.14.525 3.657 1.702 6.185 3.53 7.584 1.388 1.049 3.168 1.578 5.338 1.588a35.19 35.19 0 0 0 1.192-4.038c-.059.012-.12.022-.181.03-.506.073-.955.055-1.347-.052a1.282 1.282 0 0 1-.69-.455 1.82 1.82 0 0 1-.326-.814 1.645 1.645 0 0 1 .088-.843c.098-.281.275-.501.53-.66.346-.215.762-.357 1.248-.426.451-.065.871-.05 1.261.044Zm-1.774-3.817c-.525.076-.975.048-1.35-.082a1.217 1.217 0 0 1-.7-.515 2.342 2.342 0 0 1-.343-.935 2.338 2.338 0 0 1 .066-.994c.093-.321.267-.561.522-.721.324-.231.738-.383 1.244-.455.642-.093 1.209-.01 1.702.247.51.235.808.653.895 1.256.09.623-.076 1.128-.497 1.517-.403.365-.916.593-1.538.682Z" clip-rule="evenodd"/>
  <path fill="#464558" d="M13.068 39.474c2.911.952 6.28 1.153 10.106.604 2.316-.333 4.394-1.128 6.235-2.386 1.874-1.262 3.264-2.798 4.168-4.606.939-1.814 1.268-3.694.989-5.64-.275-1.913-.78-3.4-1.514-4.459-.74-1.093-1.819-1.811-3.238-2.155-1.425-.378-3.329-.396-5.712-.054-2.316.333-3.902.972-4.76 1.917-.862.912-1.193 2.073-.99 3.482.202 1.41.982 2.309 2.34 2.696 1.357.387 3.26.405 5.71.053.03.202-.133.5-.488.893-.354.393-.898.78-1.632 1.159-.733.38-1.62.644-2.66.793-1.846.265-3.47-.067-4.87-.996-1.401-.93-2.249-2.418-2.543-4.465-.347-2.417.023-4.371 1.11-5.863 1.083-1.526 2.732-2.448 4.947-2.766.772-.11 1.42-.135 1.942-.073.34.014.708.05 1.106.109.248.036.508.08.779.134a14.5 14.5 0 0 0 1.791.308c.59.052 1.254.025 1.993-.08 1.577-.227 2.84-.854 3.789-1.88.944-1.061 1.266-2.632.967-4.713-.207-1.443-.958-2.74-2.254-3.89s-3.025-1.98-5.188-2.492c-2.163-.511-4.587-.574-7.272-.189-3.02.434-5.81 1.52-8.37 3.258-2.56 1.738-4.512 4.125-5.857 7.161-1.312 3.032-1.674 6.595-1.085 10.69C3.098 29.447 4.23 32.316 6 34.63c1.8 2.276 4.155 3.89 7.067 4.843Z"/>
  <path fill="#575770" fill-rule="evenodd" d="M29.302 17.788c.149-1.002.226-2.028.226-3.071 0-3.154-.706-6.144-1.968-8.819a15.067 15.067 0 0 0-2.346-.75c-2.163-.511-4.587-.574-7.272-.188-3.02.434-5.811 1.52-8.37 3.257-2.56 1.738-4.512 4.125-5.857 7.161-1.312 3.032-1.674 6.595-1.086 10.69.492 3.423 1.623 6.293 3.395 8.607.164.208.332.41.506.606.757.084 1.527.128 2.307.128 4.267 0 8.232-1.292 11.526-3.506-1.325-.015-2.522-.376-3.589-1.084-1.4-.93-2.248-2.417-2.542-4.465-.347-2.416.023-4.37 1.11-5.863 1.083-1.526 2.732-2.447 4.947-2.766.772-.11 1.42-.135 1.942-.073.551.024 1.18.105 1.885.243.638.148 1.235.251 1.791.308.59.053 1.254.026 1.992-.08a7.504 7.504 0 0 0 1.403-.335Zm-.64 2.87c-1.245-.146-2.757-.09-4.537.165-2.316.332-3.903.971-4.76 1.917-.863.911-1.193 2.072-.99 3.482.202 1.41.982 2.308 2.34 2.695.78.223 1.74.323 2.88.302a20.676 20.676 0 0 0 5.067-8.56Z" clip-rule="evenodd"/>
  <path fill="#fff" d="M51.6 35.87c0 5.441-4.411 9.852-9.853 9.852s-9.854-4.411-9.854-9.853 4.412-9.853 9.854-9.853c5.442 0 9.853 4.411 9.853 9.853Z"/>
  <path fill="#74A352" fill-rule="evenodd" d="M53.243 35.869c0 6.349-5.147 11.495-11.496 11.495S30.25 42.218 30.25 35.87c0-6.35 5.147-11.496 11.496-11.496S53.243 29.52 53.243 35.87Zm-11.496 9.853c5.442 0 9.853-4.411 9.853-9.853s-4.411-9.854-9.853-9.854-9.854 4.412-9.854 9.854c0 5.442 4.412 9.853 9.854 9.853Z" clip-rule="evenodd"/>
  <path fill="#568040" fill-rule="evenodd" d="M45.973 39.7c-1.814 0-3.11-1.17-4.226-2.415-1.124 1.252-2.417 2.416-4.225 2.416-2.161 0-3.918-1.72-3.918-3.832 0-2.113 1.757-3.832 3.918-3.832 1.81 0 3.138 1.187 4.225 2.39 1.087-1.202 2.417-2.39 4.226-2.39 2.16 0 3.917 1.72 3.917 3.832S48.133 39.7 45.973 39.7Zm0-5.804c1.118 0 2.027.886 2.027 1.973 0 1.088-.91 1.974-2.027 1.974-.554 0-1.07-.225-1.59-.617-.469-.355-.924-.833-1.396-1.37.464-.527.914-.998 1.382-1.348.518-.388 1.039-.612 1.604-.612ZM35.495 35.87c0-1.087.909-1.974 2.027-1.974.564 0 1.084.225 1.603.613.468.35.918.82 1.382 1.347-.468.534-.921 1.011-1.39 1.367-.52.393-1.038.62-1.595.62-1.118 0-2.027-.886-2.027-1.973Z" clip-rule="evenodd"/>
</svg>
