<svg xmlns="http://www.w3.org/2000/svg" fill="none" viewBox="0 0 56 56"><ellipse cx="28" cy="54.83" fill="#000" fill-opacity=".1" rx="28" ry="1.17"/><circle cx="23.04" cy="23.04" r="23.04" fill="#575770"/><path fill="#464558" fill-rule="evenodd" d="M6.58 21.95A18.1 18.1 0 0 0 24.28.02 23.04 23.04 0 1 1 .12 20.75c2.01.77 4.2 1.2 6.47 1.2Z" clip-rule="evenodd"/><path fill="#323147" fill-rule="evenodd" d="M13.15 43.86A29.9 29.9 0 0 0 41.27 8.95a22.94 22.94 0 0 1 4.81 14.1 23.04 23.04 0 0 1-32.93 20.8Z" clip-rule="evenodd"/><path fill="#fff" fill-rule="evenodd" d="M20.13 13.83a9.4 9.4 0 0 1 7.27.68l9.23-2.46a2.04 2.04 0 0 1 2.08 3.29l-6.23 7.35a9.51 9.51 0 0 1-18.63 3.2 9.65 9.65 0 0 1 6.28-12.06Zm.43 5.33a4.48 4.48 0 0 1 6.22 1.45 4.6 4.6 0 0 1-1.43 6.28 4.48 4.48 0 0 1-6.22-1.44 4.59 4.59 0 0 1 1.43-6.29Z" clip-rule="evenodd"/><path fill="url(#a)" d="M4.08 22.88c0-10.38 8.46-18.8 18.9-18.8 3.7 0 7.15 1.07 10.07 2.9 1.83 1.15 1.15 3.72-.94 4.27-.81.21-1.66.04-2.39-.36a13.81 13.81 0 0 0-7.12-1.75c-9.3.21-16.79 8.42-16.79 18.51 0 .64-.87.87-1.04.25a18.75 18.75 0 0 1-.69-5.02Z"/><path fill="#fff" d="M53.67 35.58a10.5 10.5 0 1 1-21 0 10.5 10.5 0 0 1 21 0Z"/><path fill="#74A352" fill-rule="evenodd" d="M55.42 35.58a12.25 12.25 0 1 1-24.5 0 12.25 12.25 0 0 1 24.5 0Zm-12.25 10.5a10.5 10.5 0 1 0 0-21 10.5 10.5 0 0 0 0 21Z" clip-rule="evenodd"/><path fill="#568040" fill-rule="evenodd" d="M47.67 39.67c-1.93 0-3.31-1.25-4.5-2.58-1.2 1.34-2.58 2.58-4.5 2.58a4.13 4.13 0 0 1-4.18-4.09 4.13 4.13 0 0 1 4.17-4.08c1.93 0 3.35 1.26 4.5 2.55 1.17-1.28 2.58-2.55 4.5-2.55 2.31 0 4.18 1.83 4.18 4.08a4.14 4.14 0 0 1-4.17 4.09Zm0-6.19c1.19 0 2.16.95 2.16 2.1 0 1.16-.97 2.1-2.16 2.1a2.8 2.8 0 0 1-1.7-.65c-.5-.38-.98-.89-1.48-1.46.5-.56.97-1.06 1.47-1.44.55-.41 1.1-.65 1.71-.65Zm-11.17 2.1c0-1.15.97-2.1 2.16-2.1.6 0 1.16.24 1.71.65.5.38.98.88 1.48 1.44-.5.57-.99 1.08-1.49 1.46a2.8 2.8 0 0 1-1.7.66 2.14 2.14 0 0 1-2.16-2.1Z" clip-rule="evenodd"/><defs><linearGradient id="a" x1="32.38" x2="4.08" y1="7.58" y2="21" gradientUnits="userSpaceOnUse"><stop stop-color="#74A352"/><stop offset="1" stop-color="#fff"/></linearGradient></defs></svg>