<svg xmlns="http://www.w3.org/2000/svg" fill="none" viewBox="0 0 56 56"><ellipse cx="27.54" cy="51.05" fill="#D8D8D8" rx="25.18" ry=".86"/><path fill="#323147" d="M23.2 40.12c-3.83.55-7.2.35-10.1-.6a14.53 14.53 0 0 1-7.08-4.85 18.12 18.12 0 0 1-3.4-8.6c-.58-4.1-.22-7.66 1.1-10.7a16.5 16.5 0 0 1 5.85-7.15 19.7 19.7 0 0 1 8.37-3.26c2.69-.39 5.11-.32 7.27.19 2.17.51 3.9 1.34 5.2 2.5a6.37 6.37 0 0 1 2.25 3.88c.3 2.08-.03 3.65-.97 4.71a6.16 6.16 0 0 1-3.8 1.88c-.73.1-1.4.14-1.98.08a14.49 14.49 0 0 1-1.8-.3 12.71 12.71 0 0 0-1.88-.25 7.7 7.7 0 0 0-1.94.07c-2.22.32-3.87 1.24-4.95 2.77-1.09 1.5-1.46 3.45-1.1 5.86.29 2.05 1.13 3.54 2.53 4.47a6.76 6.76 0 0 0 4.87 1 8.34 8.34 0 0 0 2.67-.8 5.74 5.74 0 0 0 1.63-1.16c.35-.39.52-.69.49-.89-2.45.35-4.36.33-5.72-.05a3.04 3.04 0 0 1-2.34-2.7c-.2-1.4.13-2.57 1-3.48.85-.95 2.44-1.58 4.76-1.92 2.38-.34 4.28-.32 5.7.06a5.23 5.23 0 0 1 3.25 2.15 10.45 10.45 0 0 1 1.5 4.46 9.16 9.16 0 0 1-.98 5.64c-.9 1.8-2.3 3.34-4.17 4.6a14.57 14.57 0 0 1-6.23 2.4Z"/><path fill="#323147" d="M44.48 26.62c-3.23.45-5.77-.03-7.62-1.42-1.82-1.4-3-3.93-3.53-7.59-.47-3.31-.07-6.03 1.22-8.14 1.28-2.13 3.34-3.4 6.18-3.8 1.75-.26 3.31-.2 4.7.15a6.12 6.12 0 0 1 4.9 5.3 5.93 5.93 0 0 1-.3 2.99c-.32.9-.88 1.75-1.68 2.55.73.01 1.41.33 2.04.93.64.6 1.02 1.36 1.15 2.27a5.4 5.4 0 0 1-.36 2.85 5.37 5.37 0 0 1-2.2 2.44c-1.1.7-2.6 1.2-4.5 1.47Zm-3.63-10.95c.38.13.83.16 1.35.08a2.84 2.84 0 0 0 1.54-.68c.42-.39.59-.9.5-1.52a1.52 1.52 0 0 0-.9-1.25 2.75 2.75 0 0 0-1.7-.25c-.5.07-.92.23-1.24.46-.26.16-.43.4-.52.72a2.34 2.34 0 0 0-.07 1c.05.33.17.64.34.93.18.26.42.43.7.51Zm1.02 7.05c.39.11.84.13 1.34.06.63-.1 1.14-.3 1.55-.63.43-.34.6-.79.52-1.33a1.35 1.35 0 0 0-.87-1.1 3.14 3.14 0 0 0-1.7-.2c-.48.07-.9.22-1.24.43-.26.16-.43.38-.53.66a1.82 1.82 0 0 0 .24 1.66c.17.22.4.37.69.45Z"/><path fill="#464558" fill-rule="evenodd" d="M43.96 19.53a35.79 35.79 0 0 0-.88-14.07c-.75-.01-1.54.04-2.38.16-2.83.4-4.9 1.67-6.18 3.8-1.28 2.12-1.68 4.83-1.2 8.15.52 3.65 1.7 6.18 3.52 7.58a8.68 8.68 0 0 0 5.34 1.59 35.19 35.19 0 0 0 1.2-4.04l-.19.03c-.5.07-.95.06-1.35-.05a1.28 1.28 0 0 1-.69-.46 1.82 1.82 0 0 1-.32-.81 1.65 1.65 0 0 1 .09-.84c.1-.28.27-.5.53-.66.34-.22.76-.36 1.24-.43.46-.06.88-.05 1.27.05Zm-1.78-3.82c-.52.07-.97.05-1.35-.08a1.22 1.22 0 0 1-.7-.52 2.34 2.34 0 0 1-.34-.93 2.34 2.34 0 0 1 .06-1c.1-.32.27-.56.53-.72.32-.23.73-.38 1.24-.45.64-.1 1.21-.01 1.7.24.51.24.81.66.9 1.26.09.62-.08 1.13-.5 1.52-.4.36-.92.59-1.54.68Z" clip-rule="evenodd"/><path fill="#464558" d="M13.07 39.47c2.9.96 6.28 1.16 10.1.6 2.32-.33 4.4-1.12 6.24-2.38a12.04 12.04 0 0 0 4.17-4.6 9.17 9.17 0 0 0 .99-5.64c-.28-1.92-.78-3.4-1.52-4.46a5.23 5.23 0 0 0-3.24-2.16c-1.42-.38-3.33-.4-5.7-.05-2.32.33-3.91.97-4.77 1.91a3.98 3.98 0 0 0-.99 3.49c.2 1.4.98 2.3 2.34 2.7 1.36.38 3.26.4 5.71.05.03.2-.13.5-.49.89-.35.4-.9.78-1.63 1.16-.73.38-1.62.64-2.66.8a6.77 6.77 0 0 1-4.87-1c-1.4-.94-2.25-2.42-2.54-4.47-.35-2.42.02-4.37 1.1-5.86 1.1-1.53 2.74-2.45 4.96-2.77a10.52 10.52 0 0 1 3.83.17 14.5 14.5 0 0 0 1.78.3c.6.06 1.26.03 2-.07a6.17 6.17 0 0 0 3.79-1.88c.94-1.06 1.26-2.63.96-4.71-.2-1.45-.96-2.74-2.25-3.9s-3.03-1.97-5.19-2.49a19.52 19.52 0 0 0-7.27-.18 19.72 19.72 0 0 0-8.37 3.25 16.51 16.51 0 0 0-5.86 7.16c-1.31 3.04-1.67 6.6-1.08 10.7.49 3.42 1.62 6.29 3.39 8.6a14.54 14.54 0 0 0 7.07 4.84Z"/><path fill="#575770" fill-rule="evenodd" d="M29.3 17.79a20.88 20.88 0 0 0-1.74-11.9 15.07 15.07 0 0 0-2.35-.74 19.5 19.5 0 0 0-7.27-.19 19.72 19.72 0 0 0-8.37 3.26 16.51 16.51 0 0 0-5.85 7.16c-1.32 3.03-1.68 6.6-1.1 10.69.5 3.42 1.63 6.3 3.4 8.6l.51.61a20.6 20.6 0 0 0 13.83-3.38 6.49 6.49 0 0 1-3.59-1.08c-1.4-.93-2.24-2.42-2.54-4.47-.34-2.41.03-4.37 1.11-5.86 1.09-1.52 2.73-2.45 4.95-2.76a7.7 7.7 0 0 1 1.94-.08c.55.03 1.18.1 1.89.25.63.14 1.23.25 1.79.3.59.06 1.25.03 1.99-.08a7.5 7.5 0 0 0 1.4-.33Zm-.64 2.87a17.94 17.94 0 0 0-4.54.16c-2.31.34-3.9.97-4.76 1.92a3.97 3.97 0 0 0-.98 3.48c.2 1.41.98 2.31 2.34 2.7.78.22 1.74.32 2.88.3a20.68 20.68 0 0 0 5.06-8.56Z" clip-rule="evenodd"/><path fill="#fff" d="M51.6 35.87a9.85 9.85 0 1 1-19.7 0 9.85 9.85 0 0 1 19.7 0Z"/><path fill="#74A352" fill-rule="evenodd" d="M53.24 35.87a11.5 11.5 0 1 1-22.99 0 11.5 11.5 0 0 1 23 0Zm-11.5 9.85a9.85 9.85 0 1 0 0-19.7 9.85 9.85 0 0 0 0 19.7Z" clip-rule="evenodd"/><path fill="#568040" fill-rule="evenodd" d="M45.97 39.7c-1.81 0-3.1-1.17-4.22-2.42-1.13 1.26-2.42 2.42-4.23 2.42a3.88 3.88 0 0 1-3.92-3.83 3.88 3.88 0 0 1 3.92-3.83c1.81 0 3.14 1.18 4.23 2.39 1.08-1.2 2.41-2.4 4.22-2.4 2.16 0 3.92 1.73 3.92 3.84s-1.76 3.83-3.92 3.83Zm0-5.8A2 2 0 0 1 48 35.87a2 2 0 0 1-2.03 1.97c-.55 0-1.07-.22-1.59-.61a9.98 9.98 0 0 1-1.4-1.37c.47-.53.92-1 1.39-1.35a2.66 2.66 0 0 1 1.6-.61ZM35.5 35.87a2 2 0 0 1 2.03-1.97c.57 0 1.09.22 1.6.6.47.36.92.83 1.39 1.36a9.93 9.93 0 0 1-1.4 1.36c-.51.4-1.03.62-1.59.62a2 2 0 0 1-2.03-1.97Z" clip-rule="evenodd"/></svg>