<svg width="96" height="96" viewBox="0 0 96 96" fill="none" xmlns="http://www.w3.org/2000/svg">
<ellipse cx="47.9999" cy="94" rx="46" ry="2" fill="black" fill-opacity="0.1"/>
<mask id="mask0_1587_24646" style="mask-type:alpha" maskUnits="userSpaceOnUse" x="-1" y="0" width="97" height="96">
<rect x="-0.00012207" width="96" height="96" fill="#C4C4C4"/>
</mask>
<g mask="url(#mask0_1587_24646)">
<path d="M34.4512 70.2931C28.134 71.1981 22.5676 70.8317 17.7523 69.1939C12.9369 67.556 9.03556 64.798 6.04823 60.9198C3.10814 56.9766 1.22148 52.0968 0.388253 46.2806C-0.608351 39.324 -0.0325832 33.2768 2.11556 28.1391C4.31911 22.9935 7.52952 18.9548 11.7468 16.0229C15.964 13.0911 20.5663 11.2679 25.5537 10.5535C29.9869 9.91837 33.9916 10.043 37.568 10.9272C41.1444 11.8115 44.0062 13.2345 46.1535 15.1964C48.3007 17.1583 49.55 19.3652 49.9013 21.8171C50.4077 25.3525 49.8846 28.017 48.3319 29.8106C46.771 31.5472 44.6883 32.602 42.0838 32.9752C40.8647 33.1498 39.7678 33.1906 38.793 33.0974C37.8737 32.9964 36.8867 32.8177 35.8321 32.5615C34.6666 32.3211 33.6283 32.1789 32.7172 32.1348C31.8533 32.0258 30.784 32.0626 29.5095 32.2452C25.8521 32.7691 23.1339 34.3224 21.3549 36.9049C19.5677 39.4305 18.9682 42.746 19.5564 46.8516C20.0547 50.3299 21.4638 52.863 23.7837 54.451C26.1037 56.039 28.7875 56.6147 31.8353 56.1781C33.5532 55.932 35.0167 55.4895 36.2259 54.8508C37.4351 54.212 38.3313 53.5599 38.9146 52.8944C39.4979 52.2289 39.7651 51.7251 39.716 51.383C35.6708 51.9625 32.5258 51.9184 30.2812 51.2507C28.0365 50.583 26.7427 49.0517 26.3996 46.6568C26.0565 44.2619 26.5945 42.2936 28.0137 40.7518C29.4246 39.1531 32.0419 38.0799 35.8656 37.5321C39.8 36.9684 42.945 37.0125 45.3004 37.6643C47.6477 38.2591 49.4354 39.4869 50.6633 41.3477C51.8831 43.1515 52.7258 45.6785 53.1915 48.9288C53.6653 52.236 53.1325 55.4256 51.5933 58.4975C50.1095 61.5615 47.8235 64.1585 44.7355 66.2884C41.703 68.4105 38.2749 69.7454 34.4512 70.2931Z" fill="#464558"/>
<path d="M79.7677 65.5034C70.8466 66.0635 64.898 63.6097 61.9217 58.142C58.991 52.6205 57.3297 46.9429 56.9376 41.1093C56.6479 36.7974 56.7291 32.5132 57.1814 28.2567C57.6828 23.997 58.6957 20.393 60.2204 17.4445C61.7451 14.4961 63.8799 12.9357 66.6248 12.7634C68.3404 12.6557 69.8484 13.1214 71.1488 14.1605C72.4492 15.1995 73.171 16.7844 73.3142 18.9149C73.3858 19.9802 73.3594 21.0516 73.2349 22.1292C73.1104 23.2068 72.9049 24.5442 72.6185 26.1414C72.5409 26.4519 72.396 27.2251 72.1837 28.461C72.0204 29.6939 71.9256 30.846 71.8991 31.9175C73.9741 30.5646 76.384 29.802 79.1289 29.6297C81.8738 29.4574 84.4653 29.9314 86.9033 31.0519C89.3904 32.1693 91.4578 34.0008 93.1055 36.5463C94.7989 39.038 95.7717 42.1608 96.024 45.9147C96.2388 49.1105 95.7309 52.1734 94.5003 55.1034C93.2663 57.9827 91.361 60.3947 88.7844 62.3394C86.2534 64.2303 83.2479 65.285 79.7677 65.5034ZM78.5186 53.5087C79.842 53.4256 80.9598 52.846 81.872 51.7699C82.8297 50.64 83.2609 49.3649 83.1654 47.9445C83.07 46.5241 82.4718 45.3136 81.3709 44.313C80.3189 43.3092 79.1312 42.8489 77.8078 42.932C76.4844 43.0151 75.3683 43.62 74.4595 44.7468C73.5508 45.8737 73.1441 47.1473 73.2396 48.5676C73.335 49.988 73.9087 51.2001 74.9606 52.2038C76.0092 53.1568 77.1951 53.5918 78.5186 53.5087Z" fill="#464558"/>
<path d="M34.4512 70.2931C28.134 71.1981 22.5676 70.8317 17.7523 69.1939C12.9369 67.556 9.03556 64.798 6.04823 60.9198C3.10814 56.9766 1.22148 52.0968 0.388253 46.2806C-0.608351 39.324 -0.0325829 33.2768 2.11556 28.1391C4.31911 22.9935 7.52952 18.9548 11.7468 16.0229C15.964 13.0911 20.5663 11.2679 25.5537 10.5535C29.9869 9.91837 33.9916 10.0429 37.568 10.9272C41.1444 11.8115 44.0062 13.2345 46.1535 15.1964C48.3007 17.1583 49.55 19.3652 49.9013 21.8171C50.4077 25.3525 49.8846 28.017 48.3319 29.8106C46.771 31.5472 44.6883 32.602 42.0838 32.9752C40.8647 33.1498 39.7678 33.1906 38.793 33.0974C37.8737 32.9964 36.8867 32.8177 35.8321 32.5615C34.6666 32.3211 33.6283 32.1789 32.7172 32.1348C31.8533 32.0258 30.784 32.0626 29.5095 32.2452C25.8521 32.7691 23.1339 34.3224 21.3549 36.9049C19.5677 39.4305 18.9682 42.746 19.5564 46.8516C20.0547 50.3299 21.4638 52.863 23.7837 54.451C26.1037 56.039 28.7875 56.6147 31.8353 56.1781C33.5532 55.932 35.0167 55.4895 36.2259 54.8508C37.4351 54.212 38.3313 53.5599 38.9146 52.8944C39.4979 52.2289 39.7651 51.7251 39.7161 51.383C35.6708 51.9625 32.5258 51.9184 30.2812 51.2507C28.0365 50.583 26.7427 49.0517 26.3996 46.6568C26.0565 44.2619 26.5945 42.2936 28.0137 40.7518C29.4246 39.1531 32.0419 38.0798 35.8656 37.5321C39.8 36.9684 42.945 37.0125 45.3004 37.6643C47.6477 38.2591 49.4354 39.4869 50.6633 41.3478C51.8831 43.1515 52.7258 45.6785 53.1915 48.9288C53.6653 52.236 53.1325 55.4256 51.5933 58.4975C50.1095 61.5615 47.8235 64.1585 44.7355 66.2884C41.703 68.4105 38.2749 69.7454 34.4512 70.2931Z" fill="#323147"/>
<path d="M79.7677 65.5034C70.8467 66.0635 64.8981 63.6096 61.9218 58.142C58.9911 52.6205 57.3297 46.9429 56.9377 41.1092C56.6479 36.7974 56.7292 32.5132 57.1815 28.2566C57.6828 23.997 58.6958 20.393 60.2205 17.4445C61.7452 14.4961 63.88 12.9357 66.6249 12.7634C68.3405 12.6557 69.8485 13.1213 71.1489 14.1604C72.4493 15.1995 73.1711 16.7843 73.3143 18.9149C73.3859 19.9802 73.3594 21.0516 73.2349 22.1292C73.1105 23.2068 72.905 24.5442 72.6186 26.1413C72.541 26.4518 72.396 27.2251 72.1838 28.461C72.0205 29.6938 71.9256 30.846 71.8992 31.9174C73.9741 30.5646 76.384 29.802 79.129 29.6296C81.8739 29.4573 84.4654 29.9314 86.9034 31.0519C89.3904 32.1693 91.4578 34.0008 93.1056 36.5463C94.799 39.038 95.7718 42.1608 96.0241 45.9146C96.2388 49.1105 95.7309 52.1734 94.5004 55.1034C93.2664 57.9826 91.3611 60.3946 88.7845 62.3393C86.2535 64.2302 83.2479 65.2849 79.7677 65.5034ZM78.5186 53.5087C79.8421 53.4256 80.9599 52.846 81.872 51.7699C82.8298 50.64 83.261 49.3648 83.1655 47.9445C83.0701 46.5241 82.4719 45.3136 81.3709 44.3129C80.319 43.3092 79.1313 42.8489 77.8079 42.9319C76.4844 43.015 75.3683 43.62 74.4596 44.7468C73.5508 45.8736 73.1442 47.1472 73.2396 48.5676C73.3351 49.988 73.9088 51.2 74.9607 52.2038C76.0092 53.1568 77.1952 53.5917 78.5186 53.5087Z" fill="#323147"/>
<path fill-rule="evenodd" clip-rule="evenodd" d="M65.1344 62.0369C63.8289 60.9765 62.758 59.6782 61.9218 58.142C58.9911 52.6205 57.3297 46.9429 56.9377 41.1092C56.6479 36.7974 56.7292 32.5132 57.1815 28.2566C57.6828 23.997 58.6958 20.393 60.2205 17.4445C61.7452 14.4961 63.88 12.9357 66.6249 12.7634C68.3405 12.6557 69.8485 13.1213 71.1489 14.1604C72.4493 15.1995 73.1711 16.7843 73.3143 18.9149C73.3859 19.9802 73.3594 21.0516 73.2349 22.1292C73.1105 23.2068 72.905 24.5442 72.6186 26.1413C72.541 26.4518 72.396 27.2251 72.1838 28.461C72.0205 29.6938 71.9256 30.846 71.8992 31.9174C73.0201 31.1866 74.2388 30.628 75.5552 30.2417C75.052 41.8884 71.315 52.8488 65.1344 62.0369ZM17.7523 69.1939C22.5676 70.8317 28.134 71.1981 34.4512 70.2931C38.2749 69.7454 41.703 68.4105 44.7355 66.2884C47.8235 64.1585 50.1095 61.5615 51.5933 58.4975C53.1325 55.4256 53.6653 52.236 53.1915 48.9288C52.7258 45.6785 51.8831 43.1515 50.6633 41.3478C49.4354 39.4869 47.6477 38.2591 45.3004 37.6643C42.945 37.0125 39.8 36.9684 35.8656 37.5321C32.0419 38.0798 29.4246 39.1531 28.0137 40.7518C26.5945 42.2936 26.0565 44.2619 26.3996 46.6568C26.7427 49.0517 28.0365 50.583 30.2812 51.2507C32.5258 51.9184 35.6708 51.9625 39.7161 51.383C39.7651 51.7251 39.4979 52.2289 38.9146 52.8944C38.3313 53.5599 37.4351 54.212 36.2259 54.8508C35.0167 55.4895 33.5532 55.932 31.8353 56.1781C28.7875 56.6147 26.1037 56.039 23.7837 54.451C21.4638 52.863 20.0547 50.3299 19.5564 46.8516C18.9682 42.746 19.5677 39.4305 21.3549 36.9049C23.1339 34.3224 25.8521 32.7691 29.5095 32.2452C30.784 32.0626 31.8533 32.0258 32.7172 32.1348C33.6283 32.1789 34.6666 32.3211 35.8321 32.5615C36.8867 32.8177 37.8737 32.9964 38.793 33.0974C39.7678 33.1906 40.8647 33.1498 42.0838 32.9752C44.6883 32.602 46.771 31.5472 48.3319 29.8106C49.8846 28.017 50.4077 25.3525 49.9013 21.8171C49.55 19.3652 48.3007 17.1583 46.1535 15.1964C44.0062 13.2345 41.1444 11.8115 37.568 10.9272C33.9916 10.0429 29.9869 9.91837 25.5537 10.5535C20.5663 11.2679 15.964 13.0911 11.7468 16.0229C7.52952 18.9548 4.31911 22.9935 2.11556 28.1391C-0.0325829 33.2768 -0.608351 39.324 0.388253 46.2806C1.22148 52.0968 3.10814 56.9766 6.04823 60.9198C9.03556 64.798 12.9369 67.556 17.7523 69.1939Z" fill="#464558"/>
<path fill-rule="evenodd" clip-rule="evenodd" d="M9.41679 64.491C8.18802 63.4304 7.06516 62.24 6.04823 60.9198C3.10814 56.9766 1.22148 52.0968 0.388253 46.2806C-0.608351 39.324 -0.0325829 33.2768 2.11556 28.1391C4.31911 22.9935 7.52952 18.9548 11.7468 16.0229C15.964 13.0911 20.5663 11.2679 25.5537 10.5535C29.9869 9.91837 33.9916 10.0429 37.568 10.9272C41.1444 11.8115 44.0062 13.2345 46.1535 15.1964C48.3007 17.1583 49.55 19.3652 49.9013 21.8171C50.4077 25.3525 49.8846 28.017 48.3319 29.8106C46.771 31.5472 44.6883 32.602 42.0838 32.9752C40.8647 33.1498 39.7678 33.1906 38.793 33.0974C37.8737 32.9964 36.8867 32.8177 35.8321 32.5615C34.6666 32.3211 33.6283 32.1789 32.7172 32.1348C31.8533 32.0258 30.784 32.0626 29.5095 32.2452C25.8521 32.7691 23.1339 34.3224 21.3549 36.9049C19.5677 39.4305 18.9682 42.746 19.5564 46.8516C20.0547 50.3299 21.4638 52.863 23.7837 54.451C26.1037 56.039 28.7875 56.6147 31.8353 56.1781C33.5532 55.932 35.0167 55.4895 36.2259 54.8508C37.4351 54.212 38.3313 53.5599 38.9146 52.8944C39.4979 52.2289 39.7651 51.7251 39.7161 51.383C35.6708 51.9625 32.5258 51.9184 30.2812 51.2507C28.0365 50.583 26.7427 49.0517 26.3996 46.6568C26.0565 44.2619 26.5945 42.2936 28.0137 40.7518C29.4246 39.1531 32.0419 38.0798 35.8656 37.5321C39.8 36.9684 42.945 37.0125 45.3004 37.6643C47.6477 38.2591 49.4354 39.4869 50.6633 41.3478C50.7347 41.4534 50.8049 41.5614 50.8737 41.672C46.1715 53.7679 35.4811 62.9818 22.0035 64.9126C17.6967 65.5296 13.4543 65.3529 9.41679 64.491Z" fill="#575770"/>
<path fill-rule="evenodd" clip-rule="evenodd" d="M29.3043 10.1925C25.7793 24.1392 14.5991 35.2596 -0.0222243 37.7596C0.184458 34.2601 0.897033 31.0533 2.1155 28.1391C4.31906 22.9935 7.52947 18.9548 11.7467 16.0229C15.964 13.0911 20.5663 11.2679 25.5536 10.5535C26.8399 10.3692 28.0902 10.2489 29.3043 10.1925Z" fill="#6C6C86"/>
</g>
<path d="M92.9999 69.0001C92.9999 78.9413 84.941 87.0002 74.9998 87.0002C65.0587 87.0002 56.9998 78.9413 56.9998 69.0001C56.9998 59.0589 65.0587 51 74.9998 51C84.941 51 92.9999 59.0589 92.9999 69.0001Z" fill="white"/>
<path fill-rule="evenodd" clip-rule="evenodd" d="M96.0001 69.0001C96.0001 80.5981 86.598 90.0002 75 90.0002C63.4019 90.0002 53.9999 80.5981 53.9999 69.0001C53.9999 57.4021 63.4019 48 75 48C86.598 48 96.0001 57.4021 96.0001 69.0001ZM75 87.0002C84.9411 87.0002 93 78.9413 93 69.0001C93 59.0589 84.9411 51 75 51C65.0588 51 56.9999 59.0589 56.9999 69.0001C56.9999 78.9413 65.0588 87.0002 75 87.0002Z" fill="#74A352"/>
<path fill-rule="evenodd" clip-rule="evenodd" d="M82.7192 76C79.4063 76 77.0384 73.8623 74.9995 71.5865C72.9461 73.8741 70.5844 76 67.2806 76C63.333 76 60.1249 72.859 60.1249 69C60.1249 65.141 63.333 62 67.2806 62C70.5869 62 73.0135 64.1679 75 66.3677C76.9855 64.1698 79.4142 62 82.7192 62C86.667 62 89.8749 65.141 89.8749 69C89.8749 72.8591 86.6655 76 82.7192 76ZM82.7192 65.3964C84.7616 65.3964 86.4218 67.0153 86.4218 69.0012C86.4218 70.9882 84.7617 72.606 82.7192 72.606C81.707 72.606 80.7654 72.1951 79.8167 71.4787C78.9587 70.8308 78.1276 69.9581 77.2647 68.9764C78.1119 68.0133 78.9339 67.1536 79.7891 66.5141C80.736 65.8061 81.687 65.3959 82.7192 65.3964ZM63.578 69C63.578 67.0141 65.2384 65.3952 67.2806 65.3952C68.3122 65.3952 69.2624 65.8057 70.2093 66.5137C71.0645 67.1532 71.8869 68.0124 72.7351 68.9748C71.8799 69.9499 71.0518 70.8221 70.1939 71.4714C69.2443 72.1901 68.2983 72.6048 67.2806 72.6048C65.2383 72.6048 63.578 70.987 63.578 69Z" fill="#568040"/>
</svg>
