<svg width="96" height="96" viewBox="0 0 96 96" fill="none" xmlns="http://www.w3.org/2000/svg">
<ellipse cx="48" cy="94.0001" rx="48" ry="2" fill="black" fill-opacity="0.1"/>
<circle cx="39.5" cy="39.5" r="39.5" fill="#575770"/>
<path fill-rule="evenodd" clip-rule="evenodd" d="M11.2857 37.6191C28.4263 37.6191 42.3215 23.724 42.3215 6.58341C42.3215 4.34454 42.0844 2.16104 41.634 0.0566406C62.457 1.16518 79 18.4007 79 39.5C79 61.3153 61.3153 79 39.5 79C17.6848 79 0 61.3153 0 39.5C0 38.1764 0.0651055 36.8679 0.192287 35.5778C3.63715 36.8966 7.37706 37.6191 11.2857 37.6191Z" fill="#464558"/>
<path fill-rule="evenodd" clip-rule="evenodd" d="M22.5447 75.1862C49.7737 73.9708 71.4761 51.5108 71.4761 23.982C71.4761 21.036 71.2276 18.148 70.7503 15.3379C75.9219 22.017 78.9998 30.399 78.9998 39.5C78.9998 61.3152 61.3151 79 39.4998 79C33.4312 79 27.6822 77.6315 22.5447 75.1862Z" fill="#323147"/>
<path fill-rule="evenodd" clip-rule="evenodd" d="M34.503 23.7053C38.8219 22.3493 43.2748 22.8958 46.979 24.8755L62.7954 20.6658C64.2812 20.2703 65.8507 20.8932 66.661 22.1998C67.4593 23.487 67.3366 25.1422 66.3572 26.2977L55.6787 38.8963C55.9364 46.1638 51.3898 52.9939 44.1886 55.2536C35.57 57.9567 26.4154 53.0876 23.739 44.3741C21.0634 35.6624 25.8831 26.4098 34.503 23.7053ZM35.2409 32.8537C38.86 30.5607 43.633 31.6665 45.901 35.3253C48.1704 38.9829 47.0763 43.8079 43.457 46.1018C39.8379 48.3949 35.0635 47.2886 32.7955 43.6296C30.5263 39.9715 31.621 35.147 35.2409 32.8537Z" fill="white"/>
<path d="M6.99988 39.2224C6.99988 21.4267 21.4963 7 39.3805 7C45.7327 7 51.657 8.82104 56.6565 11.9665C59.799 13.9436 58.6267 18.3354 55.0365 19.2811C53.6555 19.6448 52.1982 19.3617 50.9515 18.6651C47.2387 16.5906 43.0385 15.5573 38.7456 15.6716C22.7904 16.0361 9.96014 30.1014 9.96014 47.4012C9.96014 48.5028 8.46458 48.8942 8.16963 47.8328C7.39395 45.0415 6.99988 42.1489 6.99988 39.2224Z" fill="url(#paint0_linear_1591_22016)"/>
<path d="M92 61C92 70.9411 83.9411 79 74 79C64.0589 79 56 70.9411 56 61C56 51.0589 64.0589 43 74 43C83.9411 43 92 51.0589 92 61Z" fill="white"/>
<path fill-rule="evenodd" clip-rule="evenodd" d="M95 61C95 72.598 85.598 82 74 82C62.402 82 53 72.598 53 61C53 49.402 62.402 40 74 40C85.598 40 95 49.402 95 61ZM74 79C83.9411 79 92 70.9411 92 61C92 51.0589 83.9411 43 74 43C64.0589 43 56 51.0589 56 61C56 70.9411 64.0589 79 74 79Z" fill="#74A352"/>
<path fill-rule="evenodd" clip-rule="evenodd" d="M81.7192 67.9998C78.4064 67.9998 76.0384 65.8622 73.9995 63.5864C71.9461 65.8739 69.5845 67.9998 66.2806 67.9998C62.3331 67.9998 59.125 64.8588 59.125 60.9999C59.125 57.1409 62.3331 53.9999 66.2806 53.9999C69.587 53.9999 72.0136 56.1678 74 58.3676C75.9856 56.1697 78.4142 53.9999 81.7192 53.9999C85.6671 53.9999 88.8749 57.1409 88.8749 60.9999C88.8749 64.8589 85.6655 67.9998 81.7192 67.9998ZM81.7192 57.3963C83.7616 57.3963 85.4218 59.0151 85.4218 61.001C85.4218 62.988 83.7617 64.6058 81.7192 64.6058C80.707 64.6058 79.7654 64.1949 78.8167 63.4785C77.9587 62.8306 77.1277 61.9579 76.2648 60.9763C77.1119 60.0131 77.934 59.1535 78.7892 58.514C79.736 57.8059 80.687 57.3958 81.7192 57.3963ZM62.5781 60.9999C62.5781 59.014 64.2385 57.3951 66.2806 57.3951C67.3123 57.3951 68.2625 57.8055 69.2094 58.5136C70.0646 59.1531 70.8869 60.0123 71.7351 60.9747C70.8799 61.9498 70.0519 62.8219 69.1939 63.4712C68.2444 64.1899 67.2984 64.6046 66.2806 64.6046C64.2384 64.6046 62.5781 62.9868 62.5781 60.9999Z" fill="#568040"/>
<defs>
<linearGradient id="paint0_linear_1591_22016" x1="55.4999" y1="13" x2="6.99987" y2="36" gradientUnits="userSpaceOnUse">
<stop stop-color="#74A352"/>
<stop offset="1" stop-color="white"/>
</linearGradient>
</defs>
</svg>
