<svg xmlns="http://www.w3.org/2000/svg" fill="none" viewBox="0 0 56 56">
  <ellipse cx="28" cy="54.833" fill="#000" fill-opacity=".1" rx="28" ry="1.167"/>
  <circle cx="23.042" cy="23.042" r="23.042" fill="#575770"/>
  <path fill="#464558" fill-rule="evenodd" d="M6.583 21.945c9.999 0 18.105-8.106 18.105-18.105 0-1.306-.139-2.58-.401-3.807 12.146.647 21.796 10.7 21.796 23.009 0 12.725-10.316 23.041-23.041 23.041C10.316 46.083 0 35.767 0 23.042c0-.773.038-1.536.112-2.288 2.01.769 4.191 1.19 6.471 1.19Z" clip-rule="evenodd"/>
  <path fill="#323147" fill-rule="evenodd" d="M13.151 43.859c15.884-.71 28.543-13.811 28.543-29.87 0-1.718-.145-3.403-.423-5.042a22.942 22.942 0 0 1 4.812 14.095c0 12.725-10.316 23.041-23.041 23.041-3.54 0-6.894-.798-9.891-2.224Z" clip-rule="evenodd"/>
  <path fill="#fff" fill-rule="evenodd" d="M20.127 13.828a9.404 9.404 0 0 1 7.277.683l9.227-2.456a2.037 2.037 0 0 1 2.077 3.285l-6.229 7.35c.15 4.239-2.502 8.223-6.702 9.541-5.028 1.577-10.368-1.263-11.93-6.346-1.56-5.082 1.251-10.48 6.28-12.057Zm.43 5.337a4.483 4.483 0 0 1 6.219 1.441c1.323 2.134.685 4.949-1.426 6.287a4.484 4.484 0 0 1-6.22-1.442c-1.323-2.134-.684-4.949 1.427-6.286Z" clip-rule="evenodd"/>
  <path fill="url(#a)" d="M4.083 22.88c0-10.381 8.456-18.797 18.889-18.797 3.705 0 7.161 1.063 10.078 2.897 1.833 1.154 1.149 3.716-.945 4.267-.806.213-1.656.047-2.383-.359a13.812 13.812 0 0 0-7.12-1.746C13.294 9.354 5.81 17.559 5.81 27.65c0 .642-.872.87-1.044.252a18.746 18.746 0 0 1-.683-5.023Z"/>
  <path fill="#fff" d="M53.667 35.583c0 5.8-4.701 10.5-10.5 10.5-5.8 0-10.5-4.7-10.5-10.5 0-5.799 4.7-10.5 10.5-10.5 5.799 0 10.5 4.701 10.5 10.5Z"/>
  <path fill="#74A352" fill-rule="evenodd" d="M55.417 35.583c0 6.766-5.485 12.25-12.25 12.25-6.766 0-12.25-5.484-12.25-12.25 0-6.765 5.484-12.25 12.25-12.25 6.765 0 12.25 5.485 12.25 12.25Zm-12.25 10.5c5.799 0 10.5-4.7 10.5-10.5 0-5.799-4.701-10.5-10.5-10.5-5.8 0-10.5 4.701-10.5 10.5 0 5.8 4.7 10.5 10.5 10.5Z" clip-rule="evenodd"/>
  <path fill="#568040" fill-rule="evenodd" d="M47.67 39.667c-1.933 0-3.314-1.247-4.504-2.575-1.197 1.334-2.575 2.575-4.502 2.575-2.303 0-4.174-1.833-4.174-4.084 0-2.25 1.871-4.083 4.174-4.083 1.928 0 3.344 1.264 4.503 2.548 1.158-1.282 2.575-2.548 4.502-2.548 2.303 0 4.175 1.832 4.175 4.083 0 2.251-1.873 4.084-4.175 4.084Zm0-6.186c1.19 0 2.16.944 2.16 2.103 0 1.159-.969 2.103-2.16 2.103-.59 0-1.14-.24-1.694-.658-.5-.378-.985-.887-1.488-1.46.494-.561.974-1.063 1.472-1.436.553-.413 1.107-.652 1.71-.652Zm-11.166 2.102c0-1.158.968-2.102 2.16-2.102.602 0 1.156.239 1.708.652.499.373.979.874 1.474 1.436-.5.568-.982 1.077-1.483 1.456-.554.42-1.106.661-1.7.661-1.19 0-2.16-.944-2.16-2.103Z" clip-rule="evenodd"/>
  <defs>
    <linearGradient id="a" x1="32.375" x2="4.083" y1="7.583" y2="21" gradientUnits="userSpaceOnUse">
      <stop stop-color="#74A352"/>
      <stop offset="1" stop-color="#fff"/>
    </linearGradient>
  </defs>
</svg>
