<svg width="248" height="234" viewBox="0 0 248 234" fill="none" xmlns="http://www.w3.org/2000/svg">
    <path fill-rule="evenodd" clip-rule="evenodd" d="M200.92 0C195.238 6.58864 189.323 12.9481 183.358 19.2584C177.394 25.5688 171.314 31.7605 165.178 37.899C161.29 41.788 157.371 45.6442 153.417 49.466C152.708 48.807 151.975 48.1759 151.219 47.5725C155.097 43.5742 159.017 39.6173 162.958 35.6831C169.099 29.5527 175.326 23.5002 181.628 17.5316C187.931 11.5629 194.324 5.67609 200.92 0ZM67.0402 17.6329C60.7191 11.6786 54.3488 5.77339 47.7489 0.101394C53.4347 6.68594 59.3315 13.0679 65.3104 19.3598C71.2892 25.6518 77.3521 31.868 83.4929 37.9983C88.2911 42.7883 93.123 47.5471 98.0228 52.238C98.6313 51.5489 99.2639 50.8816 99.9209 50.2376C95.2364 45.3676 90.4993 40.5514 85.7126 35.7824C79.5636 29.6562 73.3613 23.5873 67.0402 17.6329ZM222.584 21.014C216.76 24.83 210.806 28.4183 204.825 31.958C198.845 35.4977 192.802 38.921 186.727 42.2906C180.652 45.6603 174.535 48.9499 168.367 52.1515C165.423 53.6792 162.47 55.1886 159.499 56.6643C159.264 56.3037 159.023 55.9488 158.776 55.5982C161.637 53.8449 164.516 52.1249 167.403 50.4163C173.384 46.8766 179.433 43.4604 185.509 40.0979C191.586 36.7355 197.711 33.4517 203.876 30.2492C210.042 27.0467 216.258 23.927 222.584 21.014ZM33.871 58.785C40.7944 59.5884 47.6638 60.6573 54.5245 61.7835C61.3851 62.9096 68.2187 64.1743 75.0385 65.4977C79.8625 66.4338 84.6798 67.4158 89.4875 68.4423C89.3064 69.1626 89.1464 69.8911 89.0072 70.627C84.1832 69.7845 79.3689 68.8869 74.5594 67.9587C67.7359 66.6417 60.932 65.2365 54.1453 63.7309C47.3586 62.2252 40.5913 60.6314 33.871 58.785ZM207.437 68.2111C216.05 67.0542 224.656 65.8282 233.225 64.2774C224.521 64.5448 215.842 65.1034 207.181 65.7822C198.52 66.4611 189.866 67.2528 181.229 68.159C175.819 68.7267 170.411 69.3238 165.009 69.9752C165.205 70.9192 165.366 71.8757 165.491 72.8435C170.851 72.3662 176.206 71.8425 181.557 71.2756C190.196 70.3605 198.824 69.3679 207.437 68.2111ZM69.7579 73.8953C72.3651 73.9106 74.9705 73.9789 77.5742 74.0697C80.1779 74.1604 82.7822 74.286 85.3835 74.4453C86.4099 74.5081 87.4364 74.5767 88.4627 74.654L88.4232 75.1799C87.4018 75.1863 86.3798 75.1835 85.3579 75.1775C82.7507 75.1622 80.146 75.0974 77.5413 75.0092C74.9367 74.921 72.334 74.799 69.7319 74.6388C67.1297 74.4786 64.5296 74.2846 61.932 73.9943C64.5435 73.8864 67.1506 73.88 69.7579 73.8953ZM88.8868 84.4459L86.6277 85.1037C80.3674 86.9101 74.0855 88.6343 67.7942 90.3172C59.4057 92.561 50.9817 94.6946 42.5339 96.7176C34.0862 98.7406 25.6014 100.648 17.0464 102.271C25.2668 99.4012 33.5748 96.8464 41.9008 94.3586C50.2267 91.8709 58.5927 89.5432 66.9817 87.2902C74.1418 85.3672 81.3212 83.5242 88.5257 81.769C88.615 82.6711 88.736 83.5636 88.8868 84.4459ZM86.0783 95.5446C83.9208 97.0176 81.7132 98.4023 79.494 99.7685C77.2749 101.135 75.0292 102.455 72.7729 103.756C70.5166 105.056 68.2415 106.327 65.9508 107.568C63.6602 108.809 61.3499 110.02 58.9971 111.153C61.1559 109.684 63.3647 108.3 65.5839 106.934C67.8031 105.568 70.0463 104.245 72.302 102.941C74.5577 101.638 76.8296 100.365 79.1214 99.1243C81.4132 97.8835 83.7212 96.6726 86.0783 95.5446ZM92.231 96.9613L93.0465 96.4098L92.8222 95.9927L92.603 95.5716C91.3555 96.2859 90.1133 97.0084 88.8748 97.7364C85.1317 99.9365 81.4162 102.186 77.7338 104.483C74.0514 106.78 70.3878 109.11 66.771 111.515C63.1542 113.919 59.5578 116.354 56.0501 118.932C59.9104 116.917 63.6841 114.766 67.4292 112.566C71.1742 110.366 74.8843 108.113 78.5656 105.812C82.2468 103.51 85.9062 101.177 89.523 98.7719C90.4272 98.1708 91.3302 97.5678 92.231 96.9613ZM94.4497 100.146L95.0354 99.6611C94.5773 98.9889 94.1399 98.3016 93.724 97.6001L92.9204 98.1921C85.932 103.349 79.0243 108.604 72.184 113.951C65.3438 119.297 58.5539 124.703 51.8635 130.24C45.1731 135.778 38.5255 141.37 32.0819 147.219C39.3214 142.387 46.3853 137.322 53.3696 132.165C60.354 127.007 67.2733 121.758 74.1167 116.42C80.9601 111.082 87.7593 105.684 94.4497 100.146ZM198.403 124.208C191.332 119.17 184.192 114.223 176.992 109.375C171.384 105.598 165.748 101.859 160.06 98.1982C159.576 98.981 159.066 99.7454 158.528 100.491C164.057 104.379 169.627 108.204 175.237 111.973C182.444 116.815 189.692 121.591 197.035 126.232C204.378 130.873 211.76 135.456 219.323 139.767C212.483 134.387 205.475 129.245 198.403 124.208ZM96.3772 101.511L94.7561 102.894C93.6537 103.831 92.5475 104.763 91.4387 105.692C88.1124 108.478 84.7467 111.222 81.3467 113.921C77.9468 116.62 74.5056 119.274 70.9725 121.814C74.0901 118.779 77.3141 115.869 80.5605 112.985C83.8069 110.102 87.1052 107.282 90.4298 104.492C92.1056 103.085 93.7902 101.69 95.4847 100.306C95.7751 100.714 96.0724 101.116 96.3772 101.511ZM172.377 103.283C168.756 100.889 165.102 98.5411 161.419 96.244L161.247 96.1369C161 96.5985 160.743 97.0545 160.478 97.5047L162.802 98.945C165.757 100.768 168.729 102.565 171.729 104.318C175.48 106.509 179.249 108.671 183.103 110.693C179.591 108.124 175.999 105.677 172.377 103.283ZM169.787 90.7548C168.137 90.2088 166.482 89.6767 164.804 89.208C166.391 89.9263 168 90.5841 169.617 91.2208C171.233 91.8575 172.858 92.4702 174.492 93.0618C176.125 93.6533 177.763 94.2301 179.413 94.776C181.063 95.3219 182.718 95.8548 184.394 96.326C182.806 95.6122 181.197 94.953 179.58 94.317C177.964 93.681 176.339 93.0658 174.706 92.4728C173.074 91.8798 171.436 91.3007 169.787 90.7548ZM165.708 90.3402C168.156 91.2298 170.594 92.1525 173.019 93.1065C175.444 94.0605 177.857 95.0494 180.24 96.12C177.725 95.4132 175.243 94.6139 172.768 93.795C170.293 92.9761 167.836 92.1111 165.386 91.2237L163.676 90.5981C163.777 90.305 163.876 90.0104 163.971 89.7141L165.708 90.3402ZM87.9381 87.1987L89.3566 86.7637C89.2374 86.2563 89.1282 85.745 89.0292 85.2302L87.4792 85.7003C83.3267 86.9723 79.1869 88.2811 75.07 89.6693C70.953 91.0574 66.8462 92.4788 62.7887 94.0561C67.0352 93.0959 71.2417 91.9951 75.4276 90.837C79.6135 89.679 83.7857 88.4661 87.9381 87.1987ZM185.164 64.6444C189.435 63.8418 193.7 63.0048 197.938 62.0066C193.599 62.3675 189.28 62.8731 184.973 63.4384C180.666 64.0036 176.366 64.625 172.077 65.3031C169.433 65.7211 166.791 66.1534 164.153 66.6126C164.295 67.0792 164.428 67.5494 164.552 68.0234C167.145 67.6538 169.735 67.2624 172.323 66.8507C176.612 66.1681 180.894 65.4471 185.164 64.6444ZM72.4114 37.9577C68.8666 35.4486 65.301 32.9693 61.6323 30.6243C64.9007 33.4997 68.2647 36.2459 71.6639 38.9479C75.0631 41.65 78.4996 44.3003 81.9712 46.9064C85.4427 49.5126 88.9367 52.0867 92.4816 54.5957C93.2839 55.1636 94.0872 55.73 94.8917 56.293C95.0857 56.0043 95.2834 55.7183 95.4849 55.4343C94.7313 54.8267 93.9754 54.2224 93.2177 53.6205C89.8188 50.9205 86.3836 48.2638 82.9157 45.6551C79.4479 43.0463 75.9563 40.4668 72.4114 37.9577ZM204.362 25.3685C200.852 27.9404 197.253 30.3744 193.637 32.779C190.02 35.1836 186.36 37.5175 182.679 39.819C178.998 42.1205 175.288 44.3735 171.543 46.5731C167.798 48.7728 164.024 50.9239 160.164 52.9395C163.671 50.3607 167.268 47.9262 170.885 45.5216C174.501 43.117 178.165 40.7873 181.847 38.4902C185.53 36.1931 189.245 33.9436 192.988 31.7435C196.731 29.5433 200.509 27.3932 204.362 25.3685ZM176.369 31.6209C173.305 34.7094 170.132 37.6754 166.936 40.6152C163.741 43.555 160.492 46.4317 157.217 49.2798C156.51 49.8942 155.802 50.5066 155.092 51.117C154.734 50.7405 154.367 50.3717 153.993 50.0105C154.723 49.3707 155.454 48.7332 156.187 48.0972C159.464 45.2533 162.782 42.4513 166.134 39.6937C169.486 36.936 172.88 34.2224 176.369 31.6209ZM88.4334 34.0268C85.4886 30.8368 82.5175 27.6695 79.4238 24.6106C82.0297 28.0929 84.748 31.4814 87.5103 34.8279C90.2726 38.1744 93.0795 41.486 95.9282 44.7575C97.3995 46.4471 98.8786 48.1304 100.37 49.8012C100.73 49.4589 101.097 49.1234 101.471 48.7936C100.03 47.0955 98.5771 45.4078 97.1128 43.7295C94.2598 40.4598 91.3783 37.2168 88.4334 34.0268ZM107.435 29.9113C105.76 25.9082 104.053 21.9194 102.186 17.9899C103.432 22.1574 104.827 26.266 106.275 30.3556C107.724 34.4453 109.231 38.5109 110.792 42.5575L110.84 42.6835C111.315 42.4643 111.794 42.2544 112.279 42.0541L111.476 39.9737C110.168 36.6051 108.83 33.2472 107.435 29.9113ZM143.774 32.0633C142.807 34.4862 141.751 36.8669 140.676 39.2384C140.372 39.9113 140.063 40.5825 139.752 41.2521C139.486 41.1593 139.219 41.0701 138.95 40.9838C139.302 40.2935 139.658 39.6046 140.017 38.9172C141.221 36.6096 142.458 34.3165 143.774 32.0633ZM142.348 32.7436C143.065 31.1626 143.768 29.5755 144.413 27.9602C143.536 29.4624 142.711 30.9911 141.909 32.5295C141.106 34.0679 140.323 35.6172 139.562 37.1756C138.997 38.3327 138.439 39.4936 137.897 40.6614C138.078 40.7142 138.26 40.7683 138.441 40.8253C139.014 39.7058 139.575 38.5808 140.126 37.4504C140.886 35.8907 141.632 34.3246 142.348 32.7436Z" fill="#FF621A"/>
    <ellipse opacity="0.1" cx="123.974" cy="201.62" rx="90.6556" ry="31.7682" fill="#A4A4A4"/>
    <path d="M161.919 176.173L161.58 182.291C161.649 182.57 161.34 185.191 164.513 186.253C165.173 186.474 166.168 186.804 166.867 187.382C169.528 189.587 172.281 192.662 175.022 193.254C178.483 194.001 180.436 190.935 179.611 189.399C178.739 187.772 173.93 184.121 171.393 179.755C171.191 179.406 169.484 175.734 168.941 175.52C166.026 174.368 161.919 176.173 161.919 176.173Z" fill="#575770"/>
    <path d="M169.724 175.222C169.722 175.502 169.663 175.779 169.551 176.035C169.195 176.716 168.263 176.781 167.496 176.757L162.185 176.585C162.074 176.592 161.964 176.567 161.867 176.511C161.796 176.45 161.741 176.372 161.707 176.284C160.344 173.401 159.859 170.175 158.609 167.241C157.914 165.611 156.987 164.079 156.426 162.398C155.843 160.353 155.537 158.239 155.517 156.112C156.511 156.11 157.505 156.049 158.492 155.93C161.319 155.643 164.244 155.326 166.7 153.897C167.705 153.312 168.76 152.359 169.96 152.243C170.118 152.948 170.164 153.674 170.096 154.393C170.125 155.153 170.148 155.912 170.167 156.672C170.205 158.157 170.224 159.642 170.227 161.127C170.232 164.132 170.165 167.137 170.026 170.14C169.948 171.835 169.847 173.53 169.724 175.222Z" fill="#575770"/>
    <path d="M171.559 146.664C172.368 149.084 172.793 151.616 172.818 154.168C172.596 156.687 171.617 159.079 170.01 161.03C169.105 162.294 167.871 163.285 166.444 163.898C164.981 164.429 163.406 164.576 161.871 164.323C158.662 163.878 155.422 162.91 153.481 160.26C152.373 158.578 151.641 156.676 151.335 154.685C149.927 147.847 140.283 141.26 139.687 134.343C139.638 133.988 135.436 125.807 135.424 125.449C135.424 125.449 146.308 128.552 152.231 127.608C155.093 127.151 161.23 126.921 166.067 131.498C167.907 133.238 169.728 140.101 169.728 140.101L171.559 146.664Z" fill="black"/>
    <path d="M90.1141 199.338L90.4531 205.456C90.384 205.735 90.6938 208.357 87.5201 209.419C86.8605 209.639 85.8649 209.969 85.1666 210.548C82.5053 212.752 79.7525 215.827 77.011 216.419C73.5502 217.167 71.5978 214.101 72.422 212.564C73.2947 210.937 77.9682 206.933 80.5045 202.567C80.7073 202.218 81.7789 200.173 82.322 199.959C85.2367 198.807 90.1141 199.338 90.1141 199.338Z" fill="#575770"/>
    <path d="M81.4394 200.146C81.4425 200.425 81.5027 200.702 81.6161 200.957C81.9754 201.637 82.907 201.698 83.6745 201.669L88.9839 201.473C89.0949 201.479 89.2053 201.453 89.3015 201.398C89.3729 201.336 89.4276 201.258 89.4605 201.17C90.8102 198.28 91.2807 195.052 92.5168 192.113C93.2037 190.479 94.1238 188.942 94.6773 187.259C95.2503 185.211 95.5462 183.096 95.5569 180.969C94.5623 180.972 93.5683 180.916 92.5804 180.8C89.7521 180.527 86.8259 180.224 84.3629 178.806C83.3554 178.226 82.2962 177.278 81.0952 177.167C80.9406 177.873 80.8981 178.599 80.9694 179.318C80.9447 180.078 80.9245 180.838 80.909 181.598C80.8786 183.083 80.8657 184.567 80.8703 186.053C80.8796 189.058 80.9604 192.062 81.1128 195.065C81.1989 196.76 81.3077 198.453 81.4394 200.146Z" fill="#575770"/>
    <path d="M80.7492 166.137C80.0212 168.566 79.6589 171.09 79.6742 173.626C79.9137 176.128 80.8635 178.51 82.4116 180.489C83.2616 181.738 84.434 182.732 85.804 183.365C87.1722 183.9 88.6596 184.052 90.1076 183.807C93.1162 183.374 96.1468 182.418 97.9324 179.779C98.9571 178.081 99.6166 176.187 99.869 174.219C110.132 165.59 125.123 160.831 128.959 154.265C129.011 154.177 121.475 152.465 121.441 152.454C121.441 152.454 124.454 147.371 122.799 146.873C122.485 146.778 116.8 146.873 116.8 146.873C115.068 146.316 116.334 142.04 114.547 141.703C113.647 141.546 102.981 142.574 102.74 143.544C102.74 143.544 94.9447 150.912 90.6388 154.265C86.3329 157.618 80.7492 166.137 80.7492 166.137Z" fill="black"/>
    <path d="M181.696 71.6973L179.69 72.8249L179.346 75.0023L181.288 73.9634L181.696 71.6973Z" fill="#4D4D4D"/>
    <path d="M183.303 72.8417L181.298 73.9702L180.954 76.1476L182.896 75.1087L183.303 72.8417Z" fill="#4D4D4D"/>
    <path d="M184.9 73.9789L182.895 75.1069L182.55 77.2848L184.492 76.246L184.9 73.9789Z" fill="#4D4D4D"/>
    <path d="M186.509 75.1239L184.503 76.2524L184.159 78.4298L186.101 77.391L186.509 75.1239Z" fill="#4D4D4D"/>
    <path d="M187.351 74.2333C187.554 74.7107 187.796 75.2028 187.772 75.7263C187.706 76.4366 186.835 75.3091 185.608 76.5998C184.382 77.8904 185.924 79.3968 184.713 79.6513C184.255 79.7379 182.865 80.0643 182.401 80.0911C181.957 80.1152 181.515 80.1699 181.078 80.2547C180.939 80.2925 180.796 80.3084 180.654 80.3019C180.521 80.2884 180.393 80.2498 180.276 80.1883C179.889 79.958 179.567 79.6375 179.339 79.2543C179.256 79.1368 179.173 79.0192 179.084 78.9096C178.73 78.5176 178.324 78.1748 177.876 77.89C177.408 77.5874 176.98 77.2306 176.601 76.8271L176.556 76.7764C176.471 76.687 176.396 76.5878 176.334 76.4808C176.239 76.3113 176.221 76.1087 176.283 75.9203C176.391 75.6591 176.548 75.4183 176.744 75.2103C176.794 75.1505 176.842 75.0939 176.881 75.0417C177.267 74.5307 177.698 74.053 178.169 73.6142C178.708 73.1104 179.311 72.676 179.961 72.322C181.569 71.4132 182.733 71.4288 184.438 72.0226C185.244 72.3102 185.891 72.729 186.7 73.3133C186.832 73.5653 187.254 73.9657 187.351 74.2333Z" fill="black"/>
    <path d="M169.092 88.0401C171.917 86.4993 175.908 83.7942 175.908 83.7942L180.68 80.3408C180.68 80.3408 180.902 77.7975 180.049 76.7141C179.196 75.6307 176.592 74.9325 176.282 75.0638C173.973 76.0437 164.796 79.9134 164.034 79.8446C163.162 79.7659 169.092 88.0401 169.092 88.0401Z" fill="#575770"/>
    <path d="M150.076 101.921C150.076 101.921 167.402 93.3446 168.785 92.032C170.169 90.7194 172.11 88.0819 171.916 85.5798C171.722 83.0777 169.059 78.5398 164.928 78.4791C163.363 78.4561 158.728 80.0158 153.573 81.9628C145.117 85.1564 135.261 89.3918 135.261 89.3918L150.076 101.921Z" fill="black"/>
    <path d="M95.9515 98.8716C95.8222 98.758 95.754 98.5899 95.7675 98.4182C95.781 98.2465 95.8746 98.0912 96.0201 97.9992C99.1915 96.0066 112.779 87.8516 122.746 87.8516C128.65 87.8516 139.689 83.6006 145.096 85.2025C149.964 86.6448 149.455 93.6884 150.543 98.058C152.84 107.28 149.119 118.556 148.391 122.932C147.846 126.696 147.846 127.121 147.707 129.143C147.68 129.542 153.359 130.605 155.534 138.295C156.931 143.234 153.67 147.354 153.413 147.5C150.866 148.951 147.88 162.818 138.069 162.818C128.259 162.818 118.441 151.242 112.662 149.263C107.146 147.374 97.7978 149.493 95.4738 150.551C95.3599 143.188 104.877 134.412 104.877 134.412C104.913 134.338 104.932 134.256 104.931 134.173C104.929 133.207 104.901 126.935 104.54 123.324C104.168 119.598 99.9034 102.411 95.9515 98.8716Z" fill="#575770"/>
    <path d="M95.9515 98.8715C95.8222 98.7579 95.754 98.5898 95.7675 98.4181C95.781 98.2464 95.8746 98.0911 96.0201 97.9991C97.8467 96.8514 103.129 93.6595 109.184 91.1588C111.454 90.2214 117.736 104.638 118.741 119.911C119.71 134.633 115.498 150.234 112.662 149.263C107.146 147.374 97.7978 149.493 95.4738 150.551C95.3599 143.188 104.877 134.412 104.877 134.412C104.913 134.338 104.932 134.256 104.931 134.173C104.929 133.207 104.901 126.935 104.54 123.324C104.168 119.598 99.9034 102.411 95.9515 98.8715Z" fill="#464558"/>
    <path opacity="0.1" d="M134.664 88.6451C134.631 88.6835 134.596 88.7219 134.563 88.7619C133.518 89.9829 139.156 92.0712 137.972 93.1538C134.518 96.3093 133.188 100.534 129.498 103.414C125.955 106.231 121.191 109.38 116.99 111.059C112.576 112.775 107.527 114.621 103.197 116.551C101.516 110.608 98.1953 100.79 95.9043 98.74C95.7754 98.6258 95.8908 98.4141 95.9043 98.2423C95.9177 98.0705 96.5892 97.6737 96.7343 97.5811C99.9066 95.5895 113.127 87.7814 123.093 87.7814C133.06 87.7814 130.704 88.0451 134.664 88.6451Z" fill="black"/>
    <path d="M104.774 126.126C104.774 126.126 128.719 139.982 147.928 125.959L147.595 134.3C147.595 134.3 130.553 146.319 104.941 134.3L104.774 126.126Z" fill="black"/>
    <path d="M96.3211 98.0923C96.3211 98.0923 77.7037 112.952 76.4398 114.642C75.1758 116.333 73.5058 119.538 74.0318 122.112C74.5579 124.687 77.9074 128.827 82.1978 127.946C86.4882 127.064 105.362 115.317 105.362 115.317C105.362 115.317 105.755 110.833 102.741 105.092C99.7277 99.3504 96.3211 98.0923 96.3211 98.0923Z" fill="black"/>
    <path d="M74.0074 120.255C70.9196 121.883 68.0996 123.979 65.6481 126.468C62.0433 130.297 62.5938 130.093 62.5938 130.093L67.1218 134.687C67.3701 134.939 67.7585 134.991 68.0671 134.813C70.3695 133.483 79.5232 128.224 80.3317 128.197C80.8043 128.181 80.3765 124.203 78.8661 122.307C77.3557 120.41 74.0074 120.255 74.0074 120.255Z" fill="#575770"/>
    <path fill-rule="evenodd" clip-rule="evenodd" d="M130.77 86.1698H136.194C136.194 86.1698 138.221 92.59 138.897 100.238C139.573 107.886 138.897 116.761 138.897 116.761C138.897 116.761 138.553 118.531 136.194 119.761C133.834 120.991 130.77 120.999 130.77 120.999C130.77 120.999 131.937 112.292 131.937 103.584C131.937 94.877 130.77 86.1698 130.77 86.1698Z" fill="#2B2A37"/>
    <path fill-rule="evenodd" clip-rule="evenodd" d="M110.441 88.5114C110.441 88.5114 102.47 92.1706 109.082 100.453C115.693 108.735 134.982 108.437 140.834 99.4508C146.686 90.4645 135.261 85.675 135.261 85.675L110.441 88.5114Z" fill="#464558"/>
    <path fill-rule="evenodd" clip-rule="evenodd" d="M134.644 90.0439H140.068C140.068 90.0439 142.095 96.4641 142.771 104.112C143.447 111.76 142.771 120.635 142.771 120.635C142.771 120.635 142.428 122.405 140.068 123.635C137.708 124.865 134.644 124.873 134.644 124.873C134.644 124.873 135.812 116.166 135.812 107.458C135.812 98.7512 134.644 90.0439 134.644 90.0439Z" fill="#464558"/>
    <path opacity="0.3" d="M134.664 88.6451C134.631 88.6835 134.596 88.7218 134.563 88.7619C133.518 89.9829 139.156 92.0712 137.972 93.1538C134.518 96.3093 133.188 100.534 129.498 103.414C125.955 106.231 121.191 109.38 116.99 111.059C112.576 112.775 107.527 114.621 103.197 116.551C101.516 110.608 98.1953 100.79 95.9043 98.74C95.7754 98.6258 95.8908 98.4141 95.9043 98.2423C95.9177 98.0705 96.5892 97.6737 96.7343 97.581C98.2017 96.6598 101.819 94.494 106.27 92.4322C109.156 86.0509 117.737 87.7813 123.093 87.7813C133.06 87.7813 130.704 88.0451 134.664 88.6451Z" fill="black"/>
    <path fill-rule="evenodd" clip-rule="evenodd" d="M143.043 72.8361C142.883 72.8336 142.725 72.868 142.58 72.9368C141.02 62.37 134.061 54.4016 125.711 54.4016C117.372 54.4016 110.42 62.3481 108.848 72.8934C108.734 72.8532 108.613 72.8338 108.492 72.8361C107.293 72.8659 106.376 75.0949 106.444 77.8146C106.509 80.4527 107.931 83.3136 109.11 83.4556C111.089 93.248 117.771 100.453 125.711 100.453C133.649 100.453 140.33 93.2504 142.31 83.4605L142.317 83.4612C143.516 83.491 145.025 80.5343 145.092 77.8146C145.16 75.0949 144.242 72.8659 143.043 72.8361Z" fill="#575770"/>
    <path d="M66.4808 133.14C66.5055 133.517 67.2851 132.98 67.2212 133.334C67.1174 133.851 68.2712 133.999 68.1771 134.435C67.933 135.566 65.3752 137.839 64.297 138.29C63.7034 138.552 63.0704 138.714 62.4143 138.77C61.8426 138.82 61.2601 138.808 60.6737 138.733C60.6129 138.725 60.5452 138.72 60.4738 138.716C60.2159 138.717 59.4854 138.449 59.2296 138.337C59.1897 138.231 57.8448 137.055 57.2871 135.724C56.7235 134.379 56.9472 132.88 56.9217 132.801C56.9217 132.801 56.9304 131.766 56.9854 131.647C57.0455 131.531 57.3343 130.406 57.8994 130.192C58.1858 129.892 58.2488 131.092 58.2931 131.119C58.4258 131.243 59.7817 131.848 61.0253 131.119C62.2689 130.389 59.3034 130.185 59.656 128.787C60.0087 127.388 62.5622 126.896 63.1475 127.388C63.5664 127.771 65.1475 130.271 65.4199 130.805C65.6266 131.17 65.8084 131.552 65.963 131.945C66.1417 132.393 66.4409 132.671 66.4808 133.14Z" fill="black"/>
    <path fill-rule="evenodd" clip-rule="evenodd" d="M125.775 54.4035C125.754 54.4034 125.732 54.4016 125.711 54.4016C117.372 54.4016 110.42 62.3481 108.848 72.8934C108.734 72.8532 108.613 72.8338 108.492 72.8361C107.293 72.8659 106.376 75.0949 106.444 77.8146C106.509 80.4527 107.931 83.3136 109.11 83.4556C111.089 93.248 117.771 100.453 125.711 100.453C125.732 100.453 120.831 86.4869 121.967 72.2228C123.102 57.9587 125.775 54.4035 125.775 54.4035Z" fill="black"/>
    <path fill-rule="evenodd" clip-rule="evenodd" d="M132.524 71.4479C136.161 71.4479 139.11 74.3966 139.11 78.034C139.11 81.6714 137.357 84.5597 133.72 84.5597C130.082 84.5597 128.825 85.0122 127.215 83.3305C125.606 81.6488 123.747 80.8275 121.86 80.8275C119.973 80.8275 118.721 81.8194 117.334 83.3305C115.947 84.8416 114.629 84.5597 114.629 84.5597C110.821 84.4072 110.441 81.6714 110.441 78.034C110.441 74.3966 113.39 71.4479 117.027 71.4479H132.524Z" fill="#EEBDAA"/>
    <path fill-rule="evenodd" clip-rule="evenodd" d="M125.775 54.4043C125.754 54.4042 125.732 54.4023 125.711 54.4023C117.372 54.4023 110.42 62.3488 108.848 72.8941C108.734 72.8539 108.613 72.8345 108.492 72.8369C107.293 72.8667 106.376 75.0956 106.444 77.8153C106.509 80.4535 107.931 83.3143 109.11 83.4563C111.089 93.2487 117.771 100.453 125.711 100.453C125.732 100.453 120.831 86.4876 121.967 72.2235C123.102 57.9595 125.775 54.4043 125.775 54.4043Z" fill="#464558"/>
    <path fill-rule="evenodd" clip-rule="evenodd" d="M132.524 71.4487C136.161 71.4487 139.11 74.3974 139.11 78.0348C139.11 81.6722 137.357 84.5606 133.72 84.5606C130.082 84.5606 128.825 85.0131 127.215 83.3314C125.606 81.6496 123.747 80.8284 121.86 80.8284C119.973 80.8284 118.721 81.8203 117.334 83.3314C115.947 84.8424 114.629 84.5606 114.629 84.5606C110.821 84.4081 110.441 81.6722 110.441 78.0348C110.441 74.3974 113.39 71.4487 117.027 71.4487H132.524Z" fill="#EEBDAA"/>
    <path fill-rule="evenodd" clip-rule="evenodd" d="M121.86 80.8284C119.973 80.8284 118.721 81.8203 117.334 83.3314C115.947 84.8425 114.629 84.5607 114.629 84.5607C110.821 84.4082 110.441 81.6723 110.441 78.0349C110.441 74.3975 113.39 71.4488 117.027 71.4488C117.027 71.4488 120.453 71.4488 122.165 71.4488C122.14 71.4183 121.899 80.8179 121.86 80.8284Z" fill="#D19F93"/>
    <ellipse rx="1.87241" ry="3.09934" transform="matrix(-0.544639 -0.838671 -0.838671 0.544639 70.205 147.959)" fill="black"/>
    <path d="M68.1454 148.686L71.8109 146.74L61.7539 128.527L58.0884 130.473L68.1454 148.686Z" fill="black"/>
    <path d="M71.7962 146.748L68.2384 148.634L69.4949 146.859L71.7962 146.748Z" fill="#4D4D4D"/>
    <path d="M70.8421 145.022L69.489 146.849L67.2834 146.908L68.5399 145.132L70.8421 145.022Z" fill="#4D4D4D"/>
    <path d="M69.8948 143.307L68.5418 145.134L66.3361 145.193L67.5926 143.417L69.8948 143.307Z" fill="#4D4D4D"/>
    <path d="M68.9399 141.581L67.5868 143.407L65.3812 143.466L66.6377 141.691L68.9399 141.581Z" fill="#4D4D4D"/>
    <path d="M67.9574 139.804L66.6053 141.631L64.3996 141.69L65.6561 139.915L67.9574 139.804Z" fill="#4D4D4D"/>
    <path d="M67.0033 138.078L65.6503 139.904L63.4446 139.964L64.7012 138.188L67.0033 138.078Z" fill="#4D4D4D"/>
    <path d="M66.0555 136.364L64.703 138.189L62.4968 138.249L63.7533 136.474L66.0555 136.364Z" fill="#4D4D4D"/>
    <path d="M65.1011 134.636L63.7481 136.463L61.5424 136.522L62.7989 134.746L65.1011 134.636Z" fill="#4D4D4D"/>
    <path d="M64.1635 132.941L62.8104 134.767L60.6048 134.826L61.8613 133.051L64.1635 132.941Z" fill="#4D4D4D"/>
    <path d="M63.2087 131.214L61.8556 133.041L59.6499 133.1L60.9065 131.324L63.2087 131.214Z" fill="#4D4D4D"/>
    <path d="M62.2607 129.5L60.9082 131.326L58.702 131.386L59.9591 129.609L62.2607 129.5Z" fill="#4D4D4D"/>
    <ellipse rx="3.87417" ry="6.97351" transform="matrix(-0.544639 -0.838671 -0.838671 0.544639 59.4808 129.438)" fill="#575770"/>
    <path fill-rule="evenodd" clip-rule="evenodd" d="M61.0336 129.453L22.8301 55.0181L20.4725 68.6191L57.1315 131.528L61.0336 129.453Z" fill="#D8D8D8"/>
    <path fill-rule="evenodd" clip-rule="evenodd" d="M62.5833 128.678L22.942 54.6566L23.583 65.2757L58.6811 130.753L62.5833 128.678Z" fill="#BABABA"/>
    <ellipse cx="61.032" cy="136.652" rx="1.93709" ry="3.09934" transform="rotate(-29 61.032 136.652)" fill="black"/>
    <ellipse cx="63.7468" cy="133.047" rx="1.93709" ry="1.16225" transform="rotate(-29 63.7468 133.047)" fill="black"/>
    <path fill-rule="evenodd" clip-rule="evenodd" d="M185.222 69.4162L213.704 30.5718L212.51 38.8534L188.275 71.7036L185.222 69.4162Z" fill="#D8D8D8"/>
    <path fill-rule="evenodd" clip-rule="evenodd" d="M186.928 66.9192L213.415 30.0392L213.197 34.4396L190.097 69.0437L186.928 66.9192Z" fill="#BABABA"/>
    <ellipse rx="3.35269" ry="6.01689" transform="matrix(0.515038 -0.857167 -0.857167 -0.515038 187.329 69.8752)" fill="#464558"/>
    <path d="M175.695 83.9383L178.586 86.0541L188.892 71.2996L186.002 69.1837L175.695 83.9383Z" fill="black"/>
    <path d="M178.574 86.0457L175.77 83.9911L177.619 84.2952L178.574 86.0457Z" fill="#4D4D4D"/>
    <path d="M179.55 84.6467L177.625 84.2869L176.747 82.5913L178.596 82.8954L179.55 84.6467Z" fill="#4D4D4D"/>
    <path d="M180.521 83.2571L178.595 82.8972L177.717 81.2016L179.566 81.5058L180.521 83.2571Z" fill="#4D4D4D"/>
    <path d="M181.497 81.8572L179.572 81.4973L178.693 79.8017L180.543 80.1059L181.497 81.8572Z" fill="#4D4D4D"/>
    <path d="M182.502 80.4167L180.577 80.0578L179.698 78.3622L181.547 78.6663L182.502 80.4167Z" fill="#4D4D4D"/>
    <path d="M183.478 79.0178L181.553 78.658L180.675 76.9624L182.524 77.2665L183.478 79.0178Z" fill="#4D4D4D"/>
    <path d="M184.448 77.6281L182.524 77.2683L181.644 75.5726L183.493 75.8767L184.448 77.6281Z" fill="#4D4D4D"/>
    <path d="M185.425 76.2283L183.5 75.8684L182.622 74.1728L184.471 74.4769L185.425 76.2283Z" fill="#4D4D4D"/>
    <path d="M186.384 74.8538L184.459 74.4939L183.58 72.7983L185.43 73.1024L186.384 74.8538Z" fill="#4D4D4D"/>
    <path d="M187.361 73.4537L185.436 73.0939L184.557 71.3983L186.406 71.7024L187.361 73.4537Z" fill="#4D4D4D"/>
    <path d="M188.33 72.064L186.406 71.7043L185.526 70.0085L187.376 70.3128L188.33 72.064Z" fill="#4D4D4D"/>
    <path d="M181.102 78.4384C180.866 78.1566 180.6 77.8728 180.509 77.5113C180.409 77.0135 181.235 77.5957 181.81 76.4554C182.385 75.3151 181.024 74.6177 181.8 74.1865C182.095 74.0298 182.979 73.5114 183.291 73.3942C183.589 73.2833 183.88 73.1519 184.162 73.0009C184.249 72.9456 184.344 72.9043 184.442 72.8785C184.536 72.8593 184.632 72.8583 184.724 72.8754C185.036 72.9496 185.321 73.0993 185.555 73.3117C185.636 73.374 185.717 73.4365 185.8 73.4921C186.122 73.6838 186.469 73.8307 186.834 73.929C187.216 74.0355 187.581 74.1873 187.923 74.3814L187.964 74.4064C188.041 74.449 188.112 74.5007 188.176 74.5604C188.275 74.6556 188.33 74.7896 188.325 74.9312C188.305 75.1321 188.247 75.3294 188.155 75.513C188.133 75.5644 188.112 75.6131 188.096 75.6571C187.936 76.0873 187.739 76.5044 187.507 76.9035C187.241 77.3615 186.918 77.7858 186.545 78.1654C185.632 79.1269 184.832 79.3643 183.545 79.3233C182.935 79.2991 182.407 79.1518 181.735 78.9262C181.593 78.7828 181.223 78.5999 181.102 78.4384Z" fill="black"/>
    <ellipse rx="1.68295" ry="2.6742" transform="matrix(0.515038 -0.857167 -0.857167 -0.515038 176.971 85.3753)" fill="black"/>
    <ellipse cx="183.846" cy="72.6101" rx="2.71192" ry="1.16225" fill="black"/>
    <ellipse cx="128.854" cy="78.2262" rx="1.18762" ry="1.54967" fill="white" stroke="#01002B" stroke-width="0.542384"/>
    <path d="M129.787 75.4414C129.979 75.4949 130.144 75.5465 130.171 75.2438C130.19 75.0285 129.852 74.9747 129.935 74.9851C130.069 75.0018 130.153 74.9066 130.171 74.7735C130.185 74.6409 130.093 74.5204 129.961 74.5001C129.042 74.2833 128.078 74.3721 127.214 74.753C127.107 74.7989 127.051 74.9164 127.081 75.0285C127.113 75.1395 127.22 75.2117 127.335 75.1996L127.994 75.1852C128.2 75.1726 128.407 75.1749 128.613 75.1921C129.01 75.2406 129.278 75.2997 129.787 75.4414Z" fill="#01002B"/>
    <ellipse rx="1.18762" ry="1.54967" transform="matrix(-1 0 0 1 115.994 78.2262)" fill="white" stroke="#01002B" stroke-width="0.542384"/>
    <path d="M115.061 75.4414C114.869 75.4949 114.703 75.5465 114.677 75.2438C114.658 75.0285 114.995 74.9747 114.912 74.9851C114.779 75.0018 114.695 74.9066 114.677 74.7735C114.663 74.6409 114.755 74.5204 114.887 74.5001C115.806 74.2833 116.77 74.3721 117.634 74.753C117.741 74.7989 117.797 74.9164 117.767 75.0285C117.735 75.1395 117.628 75.2117 117.513 75.1996L116.854 75.1852C116.648 75.1726 116.441 75.1749 116.235 75.1921C115.837 75.2406 115.569 75.2997 115.061 75.4414Z" fill="#01002B"/>
</svg>
