<svg width="320" height="600" viewBox="0 0 320 600" fill="none" xmlns="http://www.w3.org/2000/svg">
<path d="M763.456 -10.9571H-66.658V611.629H763.456V-10.9571Z" fill="url(#paint0_linear_23907_14009)"/>
<path d="M950.263 739.124L255.592 397.034L504.481 718.568L298.893 562.039L541.214 916.322L424.78 977.003L185.053 465.767L176.628 578.154L141.275 474.265L59.9449 660.18L47.6696 566.615L-87.1099 819.095L-189.411 771.903L65.8491 366.153L-223 504.45L-227.731 361.588L53.2521 312.165L-157.545 258.591L-48.6029 244.843L-607 45.2727L-529.581 -121.715L19.9022 201.562L-29.6037 131.003L34.284 159.393L-200.275 -337.763L-81.1227 -388.773L75.1048 69.8233L82.472 -25.5775L132.798 160.897L190.553 28.9506L173.556 167.144L344.539 -144.616L401.298 -102.789L269.808 89.7876L340.389 76.7236L212.613 228.437L791.711 -244.333L941.142 -115.489L252.791 299.018L1014.41 473.85L950.263 739.124Z" fill="#20ABA4"/>
<path d="M90.8874 112.699L19.0617 -98.1503H-75.7892L57.8696 185.147L6.19497 162.184L111.889 312.798L165.598 296.465L95.1728 35.5292L90.8874 112.699Z" fill="#81D8DF"/>
<path d="M179.824 432.957L285.227 657.741H372.379L297.7 548.55L433.994 637.435L156.165 278.504L96.9471 300.336L173.006 523.854L179.824 432.957Z" fill="#81D8DF"/>
<path d="M108.32 312.787L-94.5604 635.266H4.24397L68.7023 514.536L78.6326 590.201L187.211 341.987L108.32 312.787Z" fill="#81D8DF"/>
<path d="M386.325 -98.1503H327.802L165.483 191.414L179.232 79.6394L95.3594 286.141L146.308 308.948L294.597 119.184L243.006 123.418L386.325 -98.1503Z" fill="#81D8DF"/>
<path d="M532.934 -29.0848L142.116 289.98L180.301 333.54L778.035 -29.0848H532.934Z" fill="#81D8DF"/>
<path d="M-113.684 341.592V446.747L122.764 333.54L125.586 299.495L-113.684 341.592Z" fill="#81D8DF"/>
<path d="M784.998 434.264L182.148 287.853L156.923 340.326L784.998 647.334V434.264Z" fill="#81D8DF"/>
<path d="M-113.684 125.161V216.909L-9.17258 254.264L-97.2892 265.388L105.487 316.907L125.721 266.01L-113.684 125.161Z" fill="#81D8DF"/>
<path d="M-92.537 597.579L23.8243 420.702L-106.929 587.088L-92.537 597.579Z" fill="#59CED7"/>
<path d="M76.5886 719.585L127.371 514.038L59.5298 714.48L76.5886 719.585Z" fill="#59CED7"/>
<path d="M245.382 705.213L194.548 499.677L227.918 708.648L245.382 705.213Z" fill="#1C9AA5"/>
<path d="M805.367 588.614L265.035 376.903L782.829 629.196L805.367 588.614Z" fill="#59CED7"/>
<path d="M271.115 -109.803L195.347 87.8887L287.417 -102.643L271.115 -109.803Z" fill="#1C9AA5"/>
<path d="M133.628 -94.9751L133.234 116.746L151.413 -94.0827L133.628 -94.9751Z" fill="#1C9AA5"/>
<path d="M271.115 -109.803L195.347 87.8887L287.417 -102.643L271.115 -109.803Z" fill="#59CED7"/>
<path d="M605.724 -67.7577L226.611 241.149L630.14 -34.6569L605.724 -67.7577Z" fill="#1C9AA5"/>
<path d="M-145.197 -63.9911L11.8812 144.181L-117.004 -82.1706L-145.197 -63.9911Z" fill="#0F535A"/>
<path d="M884.663 67.4057L306.136 288.216L895.641 99.1056L884.663 67.4057Z" fill="#59CED7"/>
<path d="M175.663 8.97596C182.397 8.97596 187.855 3.51728 187.855 -3.21634C187.855 -9.94997 182.397 -15.4086 175.663 -15.4086C168.929 -15.4086 163.471 -9.94997 163.471 -3.21634C163.471 3.51728 168.929 8.97596 175.663 8.97596Z" fill="#3AC4CB"/>
<path d="M300.346 636.221C312.008 636.221 321.462 626.766 321.462 615.104C321.462 603.442 312.008 593.988 300.346 593.988C288.684 593.988 279.23 603.442 279.23 615.104C279.23 626.766 288.684 636.221 300.346 636.221Z" fill="#1C8287"/>
<path d="M297.773 69.3045C300.535 69.3045 302.774 67.0653 302.774 64.3031C302.774 61.5409 300.535 59.3016 297.773 59.3016C295.011 59.3016 292.771 61.5409 292.771 64.3031C292.771 67.0653 295.011 69.3045 297.773 69.3045Z" fill="#3AC4CB"/>
<path d="M143.662 548.415C146.424 548.415 148.663 546.176 148.663 543.414C148.663 540.652 146.424 538.412 143.662 538.412C140.9 538.412 138.661 540.652 138.661 543.414C138.661 546.176 140.9 548.415 143.662 548.415Z" fill="#3AC4CB"/>
<path opacity="0.77" d="M757.501 -12.599H-69.006V607.281H757.501V-12.599Z" fill="url(#paint1_linear_23907_14009)"/>
<path opacity="0.77" d="M763.456 -10.9571H-66.658V611.629H763.456V-10.9571Z" fill="url(#paint2_linear_23907_14009)"/>
<rect x="-69.006" y="-12.599" width="828.498" height="619.88" fill="black" fill-opacity="0.15"/>
<rect x="-69.006" y="-12.599" width="828.498" height="619.88" fill="#0000D9" fill-opacity="0.2"/>
<defs>
<linearGradient id="paint0_linear_23907_14009" x1="-320.362" y1="953.532" x2="534.137" y2="-87.7425" gradientUnits="userSpaceOnUse">
<stop stop-color="#A6CBE1"/>
<stop offset="0.223432" stop-color="#6EC7D1"/>
<stop offset="0.456731" stop-color="#2F8591"/>
<stop offset="0.721154" stop-color="#2C525C"/>
<stop offset="0.99" stop-color="#2F5B66"/>
</linearGradient>
<linearGradient id="paint1_linear_23907_14009" x1="390.16" y1="297.341" x2="1201.73" y2="297.341" gradientUnits="userSpaceOnUse">
<stop stop-color="#50545F" stop-opacity="0"/>
<stop offset="0.16" stop-color="#3A425F" stop-opacity="0.32"/>
<stop offset="0.49" stop-color="#232639" stop-opacity="0.83"/>
<stop offset="0.79" stop-color="#3E3F54"/>
</linearGradient>
<linearGradient id="paint2_linear_23907_14009" x1="372.784" y1="330.946" x2="-43.8298" y2="769.869" gradientUnits="userSpaceOnUse">
<stop stop-color="#50545F" stop-opacity="0"/>
<stop offset="0.311791" stop-color="#3A425F" stop-opacity="0.32"/>
<stop offset="0.582464" stop-color="#232639" stop-opacity="0.45"/>
<stop offset="1" stop-color="#EAEBFF"/>
</linearGradient>
</defs>
</svg>
