<svg xmlns="http://www.w3.org/2000/svg" width="306" height="213" fill="none" viewBox="0 0 306 213"><g clip-path="url(#a)"><path fill="#74a352" d="M36.906 199.909c15.102-16.903 44.607 7.301 47.807-47.607 2.25-26.504-17.352 8.601-23.803 13.852-6.601 5.401-29.305 18.803-29.655 33.755z"/><path fill="#aed888" d="M60.01 166.854c-5.701 4.351-18.953 12.802-25.254 22.854 10.501-10.602 49.307-.1 42.956-49.008-2.7 10.452-8.751 19.703-17.702 26.154" opacity=".49"/><path fill="#74a352" d="M50.658 174.705c6.901 2.851 19.103-3.3 17.153-18.652-4.05-31.905-2.3-43.207 6.05-61.21 5.051-10.95.2 7.302.2 7.302s-3.65 19.653-3.6 26.254.95 24.903.65 30.904-2.45 13.102-6.55 15.302c-4.151 2.201-13.903.1-13.903.1"/><path fill="#3e5c2e" d="M131.97 54.988c-5.501 39.606-40.756 14.852-53.108 31.855-12.001 14.602-9.751 40.206-8.85 58.208 2.25 21.253.3 21.953-16.953 35.805 13.952-3 17.302-11.801 18.552-22.003.65-11.001-6.3-91.113 35.105-72.81 18.553 6.5 36.256-1.75 33.005-31.055z"/><path fill="#568040" d="M103.216 84.742c3.9 1.45 6.351 2.35 10.051 2.95-3.6-3.05-7.551-5.8-12.151-8-6.401.2-11.752.15-15.253 1.75-10.301 5-14.502 16.852-15.402 27.654-1.4 11.952 4.7 71.11-17.452 71.76 45.556-1.35 11.401-108.015 50.207-96.114M131.97 54.988c-2.05 21.053-15.102 24.004-27.554 24.604 10.402 4.85 22.553 7.9 31.105-.1 4.75-4.501-3.551-24.504-3.551-24.504"/><path fill="#568040" d="M2.901 179.106c3 2.15 12.602 4.901 18.253 1.25 4.65-3 9.301-6.301 14.702-7.251 6.701-1.25 13.452 1.8 20.203 1.6 3.85-.4 10.651-4.3 13.152-9.751-3.8 12.402-14.602 18.253-25.254 15.502-25.203-2.5-24.703 16.152-43.456 6.251-.05 0 2.05-5.801 2.4-7.601"/><path fill="#3e5c2e" d="M51.558 181.056c-12.751-4.8-12.751-14.902-31.104 4.801 5.05-3 12.552-6.801 23.453-5.451 2.15.3 4.3.75 6.451.7.4 0 .8 0 1.2-.05" opacity=".32"/><path fill="#3e5c2e" d="M25.655 183.107c4.65-2.051 9.801-3.851 19.702-2.501-2-1.3-3.95-2.6-6.3-3-5.051-.9-9.952 1.7-13.403 5.501"/><path fill="#74a352" d="M21.154 180.356c-4.65 3.001-11.902 1.7-16.002-.05.9 2 12.351 8.601 19.202-2-1.1.65-2.15 1.35-3.2 2.05"/><path fill="#3e5c2e" d="M76.312 93.944c-3.15 7.151-4 19.602-3.95 27.454 1.95-21.203 10.05-41.906 30.754-36.706-7.201-7.15-21.853-1.95-26.804 9.252"/><path fill="#464558" d="M250.287 127.249c-6.301.65-15.652-5.301-20.703-9.152a58.6 58.6 0 0 1-5.651 6.051c-28.754-7.351-11.451-56.508-67.909-42.106-4.651 29.904 25.853 49.407 45.756 66.31 12.402 9.201 27.754 14.952 37.006 2 4.6-7.101 10.301-14.602 11.501-23.103"/><path fill="#2b2b37" d="M181.177 80.242c5.901 2.2 10.952 6.65 13.252 12.552 3.151 10.301 4.351 29.854 19.803 26.353-10.701-11.151-13.002-36.955-34.805-39.655.6.3 1.15.55 1.75.75" opacity=".29"/><path fill="#2b2b37" d="M190.629 84.342c10.251 8.852 7.701 28.454 22.303 33.255-8.551-10.551-11.852-30.454-27.204-36.505 1.65 1 3.35 2.05 4.901 3.25M175.576 125.898c8.452-2.1 17.103-11.451 15.653-20.553-.6-3.1-3.201-5.1-4.151-8-1.65-5.652.9-12.653-3.95-17.053-8.152-2.8-18.353 1.25-27.054 1.85-3.601 16.902 7.651 32.655 19.502 43.756" opacity=".29"/><path fill="#d8d8d8" d="M189.978 87.743c-.6-1.1-2.1-1.2-2.25.2-.1 1 .6 9.501 2.451 11.951 1.75 2.351 1.2-.8 1.75-1 3.9-.45-.2-9.501-1.951-11.151" opacity=".08"/><path fill="#b45f00" d="M272.841 97.594c-2.551-4.45-6.401-8.25-10.202-11.701-1.2 1.3-6.051 4.1-7.601 5.2-.65.75.05 19.453 8.901 20.603 3.551-4.1 7.851-8.701 8.902-14.102"/><path fill="#d58500" d="M236.785 102.395c2.251-7.551 8.102-14.202 7.902-22.453.05-1.5.4-3.55 1.9-3.5 4.851 2.65 4.5 13.401 2.6 18.052-2.2 5.5-1.35 5.751 2.751 8.851 1.2 4.651-15.403 3.551-15.153-.95"/><path fill="#b45f00" d="M251.888 103.345c-4.051-3.1-4.901-3.35-2.701-8.851 1.95-3.95 2.151-16.753-2.85-18.053 1.6 2.95.65 7.601-2.451 9.102-1.25 6-5.65 11.001-7.101 16.902-.3 4.451 16.353 5.601 15.103.9" opacity=".36"/><path fill="#b45f00" d="M251.888 103.345c-9.052-5.7 1.1-8.051-1.901-20.853-.6 3.45-4.2 4.6-7.001 5.85-1.45 4.952-5.15 9.052-6.201 14.053-.3 4.501 16.353 5.651 15.103.95" opacity=".36"/><path fill="#9b4300" d="M245.337 82.442c.25 0 .5 0 .75-.1.35-.15.6-.5.7-.9s.05-.8-.05-1.2c-.15-.7-.4-1.4-.8-2 .3.7.35 1.5.35 2.25 0 .25-.05.5-.1.75-.05.5-.4.95-.85 1.2" opacity=".4"/><path fill="#575770" d="M186.628 127.448c-.25-1.25-1.95-47.356-3.601-46.906-14.802-4.501-36.655-3.2-50.207-5.551-5.501 1.15-31.704 10.751-38.205 12.902.95 11.001.05 90.663-4.201 106.515l91.913 3.451c-.5-15.153 4.801-51.608 4.301-70.411"/><path fill="#2b2b37" d="M140.471 98.944c12.602-.7 27.304-6.55 26.504-21.103-15.552-1.1-21.853-1.5-34.255-2.85-2.65.15-20.503 6.9-28.504 9.601 2.25 1.05 8.251 15.852 36.255 14.352" opacity=".29"/><path fill="#2b2b37" d="M134.62 94.594c16.403-.4 32.805-17.503 49.458-10.802-.25-1.1-.751-2.15-1.101-3.2-5.6-3.05-30.254-3.35-34.055-3.95-17.202-1.851-15.552-2.701-35.155 4.7.05 2.8 4.301 13.652 20.853 13.252" opacity=".25"/><path fill="#2b2b37" d="M185.678 128.199c-9.051-6.051-22.904 4-33.005 4.4-10.251.9-21.553-.65-30.304-6.251-10.802-6.801-13.302-20.303-18.703-31.004-2.4-4.2-8.801-4.5-9.352.95-.35 2.8-6.75 74.911-10.651 89.963-.4 1.35 98.564 11.702 98.564 11.702-.45-15.253 5.651-66.96 3.451-69.76" opacity=".11"/><path fill="#2b2b37" d="M184.928 138.85c-1.75-5.001-56.158 10.952-69.91-.35-5.401-5.651-5.801-14.452-9.702-21.253-1.2-2.05-3.35-4.101-5.55-3.3-4.401 2.6-14.103 77.311-12.302 80.511l94.863 3.451c-.5-15.202 3.251-56.408 2.601-59.059" opacity=".25"/><path fill="#2b2b37" d="M106.866 194.458c-1.85-32.905 12.452-80.512-12.552-106.415-.25 4.7.6 7.7 2.4 18.252 1.701 16.353-12.951 75.361-15.951 88.963z" opacity=".11"/><path fill="#2b2b37" d="M86.163 194.458h15.803c-1.951-15.802 8.101-30.954 4.3-46.807-3.85-10.351.75-20.903.3-31.404-.7-10.202-2.85-19.903-10.751-26.404.2 3.3-6.501 93.414-9.652 104.615" opacity=".25"/><path fill="#2b2b37" d="M104.566 172.305c-6.751-10.251-3.25-23.353-2.8-34.805.1-5.701.1-11.302-.751-16.953-2.95 24.654-11.951 63.36-14.852 73.911h15.803c-1.101-7.401 1-14.952 2.6-22.153M186.628 127.449c0-.251-2.4-43.357-2.5-43.807-.35-1.05-.751-2.1-1.101-3.1-.35-.25-.75-.45-1.25-.65.45.5 1.25 14.452 1.25 15.152.1 2.1.1 4.2.2 6.301.201 4.75.301 9.551-.35 14.302-2 14.152-10.301 26.154-18.402 37.505-3.451 4.851-7.101 10.052-7.901 16.253-.4 2.9-.15 5.8-.5 8.701-1.251 9.451-8.702 14.102-15.353 17.903-.85.5-1.7.95-2.55 1.4h1.3v.5h42.906q-.075-5.251-.45-10.502c-1-12.652-.6-10.801.45-24.653 0-.05 0-.1.05-.15.05-.25.05-.45.05-.65.05-.551.1-1.151.15-1.701.05-.2.05-.45.05-.65.05-.65.1-1.35.15-2v-.05c.05-.6.1-1.25.15-1.9.05-.15.05-.35.05-.5.05-.651.15-1.301.2-1.951.05-.45.1-.85.15-1.3 0-.1.051-.2.051-.25.05-.4.1-.85.15-1.25 0-.05.05-.15.05-.2.05-.4.1-.75.15-1.15 0-.1.05-.15.05-.2.05-.4.15-.8.2-1.251 1.9-12.901 3-5.2 2.6-20.152" opacity=".25"/><path fill="#d8d8d8" d="M171.676 98.644c-.6-3.1-4.901-5.65-5.851-1.65-.95 4.251-2.35 8.101-3.4 12.302-2.451 9.551 15.652 9.601 9.251-10.652M133.72 117.047c-.4-2.35-9.751-18.103-14.152-16.903-1.6.451-2.9 1.701-3 3.301-.25 2.75 2.15 4.851 3.1 7.301 6.951 17.653 15.352 14.102 14.052 6.301" opacity=".1"/><path fill="#2b2b37" d="M148.422 116.047c3.301 5.051-11.901 12.802-28.204-29.954 1.5-.55 2.901-1 4.251-1.4 1.05 2.75 10.101 13.601 12.952 15.702 6.601 4.8 15.052 6.3 15.052 6.3s-5.851 6.601-4.051 9.352" opacity=".25"/><path fill="#2b2b37" d="M146.822 121.698c.65-1.15 5.151-8.902 6.601-11.752-19.603-8.951-19.453-15.002-33.305-32.205-.2-.25 2.801 27.404 26.704 43.957"/><path fill="#21212b" d="M136.121 98.644c-4.901-5.1-8.302-11.251-16.053-20.903-.1-.15 1.15 11.552 8.602 24.254.9-.75 5.85-3 7.451-3.35"/><path fill="#575770" d="M137.571 103.145c-.5-.15-2.15-.4-1.65 1 .15.45.4.8.75 1.15.55.55 1.15 1.051 1.6 1.701.4.6.7 1.2.95 1.9.15.5.3 1.15.7 1.5.75.7 1.701.4 2.151-.45 1.85-3.6-2.801-6.351-4.501-6.801" opacity=".3"/><path fill="#21212b" d="M145.422 105.995q-.225 1.951-.75 3.751c-.75 2.7-1.85 5.401-3.301 7.701a70 70 0 0 0 5.501 4.251c.65-1.151 1.35-2.301 2-3.401 1.601-2.7 3.151-5.501 4.601-8.351-3.1-1.4-5.751-2.7-8.051-3.951"/><path fill="#2b2b37" d="M158.274 94.994c.75-2.6 6.751-17.003 7.601-19.053-6.751-3.1-18.603 26.654-31.255 61.109-6.701 18.153-13.051 37.655-20.953 54.208l8.552 6.451c1.7-2.401 20.403-47.607 23.003-55.658 2.05-6.551 12.352-44.757 13.052-47.057" opacity=".25"/><path fill="#2b2b37" d="M162.425 72.24c-.401 10.202-36.706 67.11-40.906 122.218l12.551 2.951c5.101-24.104 14.252-59.059 17.903-68.56 15.452-39.956 13.902-57.309 10.452-56.609"/><path fill="#575770" d="M155.924 103.995c-1.901-.3-2.501 5.801-4.251 4.251-.05-1-1.15-1.05-1.75-.45-5.801 5.3.4 11.601 4.5 6.051 1.35-2.851 3.451-6.951 1.501-9.852" opacity=".3"/><path fill="#21212b" d="M161.074 101.445c5.401-20.553 3.901-29.655 1.351-29.154-.15 3.55-4.651 12.751-10.602 25.553 1.85.1 8.001 2.751 9.251 3.601M141.171 121.748c-8.951 21.453-17.702 47.256-19.652 72.71l12.551 2.951c5.101-24.104 14.252-59.059 17.903-68.56 1.4-3.601 2.65-7.051 3.801-10.302-1.901 1-11.752 3.451-14.603 3.201"/><path fill="#464557" d="M130.37 163.354c-.2 5.501 2.65.55 3.7-1.35.1 1 .7 3.05 1.651 1.75 5.4-7.251 6.25-17.403 9.851-25.754 1.05-2.8 3.701-7.051 1.3-9.751-2.85-.901-5.451 9.551-6.851 9.201-2.6-4.151-9.401 23.253-9.651 25.904" opacity=".25"/><path fill="#75a152" d="M114.217 87.693c1.501 2.8 3.701 5.4 6.251 7.2 8.302 3.951 17.853 1.75 26.654 1.6 2.651.1 5.351.501 7.951-.1 6.951-1.95 15.953-8.8 12.552-16.851-.6-1.3-50.457 5.05-52.857.7-1.551 2-1.551 5.25-.551 7.45"/><path fill="#568040" d="M135.621 95.344c1.1-.9.45-2.25.7-3.4-3.301-1.05-19.153-7.252-21.553-11.552-3.601 5.35 1.5 11.451 5.75 14.602 4.851 2.4 10.552 2.35 15.853 2.3-.05-.1-2.001-.95-.75-1.95" opacity=".32"/><path fill="#568040" d="M143.872 95.194c5.351.7 10.701-2.2 15.302-4.55 3.15-1.551 5.001-6.502 8.951-5.902.7-1.95-.5-8.451-3.2-5.55-4.651 5.85-46.757 7.55-50.207 1.15-.2.3-.4.55-.551.9 2.051 3.9 3.951 8.3 7.102 11.351 5.25 4.901 15.702 1.45 22.603 2.6"/><path fill="#3e5c2e" d="M120.268 88.793c2.101 6.9 14.502 4.6 19.853 3.4-2.8.35-17.952-2.95-21.603-6.95.65 1.1 1.15 2.35 1.75 3.55M144.972 93.344c6.001.9 14.702-2.85 18.653-7.452 1.25-1.25 2.9-4.4.55-5.2-1.55.3-20.253 12.352-19.203 12.652"/><path fill="#75a152" d="M115.018 87.043c.45.5.95.85.95 1.55.05.75 1 1.35 1.45.6 1.1-2.2-5.301-5.55-2.4-2.15"/><path fill="#aed888" d="M155.824 95.844c-1.401.45-6.001.5-8.552.35-1.3-.2-3.25-.8-4.25.45 5.601-.55 11.601 1.35 16.552-2.1-1.75 0-1.1.45-3.75 1.3"/><path fill="#75a152" d="M132.37 88.493c2.601.1 30.405 2.05 32.955-19.153.15-1.05.25.05 1.3-.1 3.751 16.702-13.202 26.154-30.054 24.754-27.554-2.3-24.704-25.504-21.903-20.653 1.05 2 1.3 14.502 17.702 15.152"/><path fill="#568040" d="M135.621 88.593S115.218 76.99 114.618 73.39c-2.801-4.851-5.601 18.202 21.603 20.603-.1-.1-2.601-1.9-.6-5.401" opacity=".32"/><path fill="#75a152" d="M115.868 80.592c-.65-1.1-.45-5.951-2.151-5.301-.35 1 .4 2 .7 2.95.451 1.35.1 3.05 1.101 4.1 1.15 1.201.65-1.15.35-1.75M119.868 87.243c0 .35.45.5.75.5 1.051-.45-.7-1.85-.75-.5"/><path fill="#aed888" d="M151.323 91.193c-1.05.35-2.551 1.1-3.151 2.05q3.601-.825 6.751-2.25c-.2 0-1.5-.45-3.6.2M156.574 89.643c-.4.15-.7.5-.65.85.5-.25 1-.55 1.45-.8-.3-.05-.55-.15-.8-.05"/><path fill="#568040" d="M125.019 89.443c4.001 1.9 8.501 1.45 12.752 1.3 9.651-.4 26.354-2.1 28.354-13.152.15-.7 2.6 1.05.5-8.351-1.05.1-45.557 16.352-47.907 13.352 1.25 3 3.501 5.55 6.301 6.85"/><path fill="#d8d8d8" d="M273.141 201.159c-3.251-7.451-16.753-9.251-16.703-18.352.1-1.601.65-3.301-.2-4.701-9.201-7.701-23.053-.25-33.905-3.701-15.752-7.151-23.953 14.403-19.203 26.754z"/><path fill="#a4a4a4" d="M215.582 185.557c3.251 1.5 6.701 1.15 10.202 1.6 3.3.55 6.501 1.45 9.901 1.3 9.901-.95 14.702 3.201 16.702 12.752h20.704c-3.251-7.451-16.753-9.251-16.703-18.352.1-1.601.65-3.301-.2-4.701-9.201-7.701-23.053-.25-33.905-3.701-4.451-1.95-9.501-2.15-13.352 1.301.05 4.15 2.601 7.951 6.651 9.801"/><path fill="#a4a4a4" d="M241.186 198.109c-5.701-6.201-15.952-6.701-21.353-13.002-2.301-5.701-6.751-5.751-11.752-8.651-6.551 6.101-7.351 16.402-4.951 24.703h40.556c-.75-1.1-1.55-2.15-2.5-3.05"/><path fill="url(#b)" d="M195.229 194.958c36.07 0 65.31-29.24 65.31-65.309s-29.24-65.31-65.31-65.31c-36.069 0-65.309 29.24-65.309 65.31 0 36.069 29.24 65.309 65.309 65.309"/><path fill="#b45f00" d="M177.977 122.948c-.3 1.9-.8 3.751-1.351 5.551-1.15 4.15-2.5 8.301-3.8 12.402-1.45 4.65-3.151 9.251-4.851 13.802l-3.5 21.503c13.302-2.801 48.107-4.151 77.611 2.75l19.503-42.256z"/><g fill="#b45f00" opacity=".39" style="mix-blend-mode:multiply"><path d="M184.928 129.249c-1 2.3-1.45 5.201-1.751 7.651-.45 3.401-1.45 6.751-2.35 10.102-.7 2.55-.8 5.1-1.35 7.651-.15.55-.85 2.45-.65 2.9-.35 1.6-.95 3.001-1.4 4.601-.951 3.15-1.051 6.551-2.051 9.651-.25.5.1 1.55.4.8s.5-1.5.7-2.35c.251-1 .451-2 .651-2.95.65-2.901 1.05-5.751 2.35-8.452.65-1.35 1.2-2.55 1.05-4.05-.1-.7-.35-1.3-.2-2.001.35-1.45.65-2.9 1-4.35.8-3.701 1.65-7.401 2.451-11.102.3-1.4.6-2.85.95-4.25.15-.651.4-1.301.5-2.001 0-.05.25-3.05-.3-1.85.15-.35-.25.7 0 0M199.78 131.449c-1.65 1-1.6 6.551-2.05 8.452-2.401 7.551-3.551 15.152-5.701 22.703-.4 2.3-1.35 9.101-2.001 9.251-.4.1-.95 2.05-.45 2.251.85.4 2.451-7.652 2.751-8.902 2.05-6.451 2.7-13.152 4.6-19.553 1.201-4.15 2.301-8.351 2.851-12.651-.15-.1.9-2.101 0-1.551M192.629 129.749c-3.551 7.451-2.951 16.502-5.251 24.403-.5 4.101-1.7 8.002-3.55 11.652-.801 2.2-.351 5.151-1.601 7.101-.25.35.55.75 1-.5.801-5.701 4.001-10.501 4.651-16.202 2.4-8.101 2.15-16.803 4.851-24.854-.1-.15.75-2.2-.1-1.6.35-.25-.6.4 0 0M214.282 135.1c-.15 2.35-.75 4.85-1.25 7.151-.85 4.05-1.6 8.151-2.751 12.152-.6 2.2-2.6 7.901-2.8 9.101-.2 1.3-.2 2.6-.4 3.95-.4 2.501-1.3 5.551-2.4 7.852-.35.7-.65 1.15.15 1.35.4.1 4.5-15.102 6.601-21.603.2-.7 4.3-19.253 3.6-19.603.15 0-.6-3.351-.75-.35M208.131 133.5c-1.75.05-3.05 11.651-3.45 14.552-.15 1.1-1.951 6.001-2.601 7.451-1.2 2.55-1.2 5.551-2.1 8.201-.45 1.35-1.95 6.851-1.7 7.701.3 1.2-.55 3.851.1 2.65 1.4-2.5 1.45-5.9 2.2-8.751.75-3 1.55-6.001 2.35-9.001.6-2.301 1.901-4.651 2.401-7.201.35-1.85 2.9-15.602 2.8-15.602.35 0-1.2.05 0 0M224.433 134.2c-.75-.75-3.2 6.551-2.3 7.401-.35 2.3-3.1 8.851-3.35 10.001-.2.9-1.651 6.451-2.451 8.551-1.15 2.901-1.7 5.901-2.7 8.802-.25.65-3.101 5.4-1.3 5.801.95.2.15-2.101.5-2.851 3.05-6.501 8.151-23.503 8.701-25.004.55-1.45.75-3.25 1.25-4.8.15-.5 1.35-3.201 1-3.501-.5-.75 1.051-4 .65-4.4M232.235 135.75c-.25 3.951-3.751 7.201-3.501 11.202-1.25 6.601-3.9 12.501-6.451 18.552 0 .05-5.601 13.702-2.3 9.302 3.7-9.702 8.001-19.453 9.951-29.705-.1-1.25 4.201-10.351 2.301-9.351.1-.4-.15 1.55 0 0M240.936 138.3c-.75.1-2.25 6.551-2.6 7.551-2.651 7.501-5.851 14.653-7.702 22.304-.45 1.25-3.65 9.151-2.45 9.201-.45-.05 1.85-5.101 2.2-5.751 2.101-4.45 2.201-9.651 4.401-14.102 1.65-3.75 6.451-17.352 6.151-19.203.45-.05-.7.1 0 0M246.887 138.15c-.55.85-.6 1.95-.95 2.951-.65 1.85-3.301 10.401-3.251 10.451.8 1.2-2.85 5.101-2.05 5.851s5.701-14.152 6.101-16.152c.2-1 .5-1.701 1.05-2.551 0-.05-.65-1-.9-.55M238.185 166.704c-.65-1.8-1.55 2.851-1.55 3.451-.2 2.3-2.3 3.75-2.3 6.301-.05 1 .95-2.051 1.7-3.051 1.45-1.6 1.85-6.501 2.15-6.701M247.987 144.101c-.3.6-1.7 1.65-1 2.35-.2-.15-.8 2.401-.1 1.501.5-.55.8-2.251 1-2.301 1.1-.25.5-2.4.1-1.55.15-.4-.1.2 0 0M229.684 155.553c-.2.3-1.6 4.35-1.35 4.4-.95-.2-1.85 2.651-1.35 2.701.1 0 1.85-2.301 2-2.651.4-1.05.4-2.15.8-3.2-.25.5.8-2.5-.1-1.25.25-.35-.5.7 0 0M218.233 166.054c-.6.6-.85 1.45-.9 2.301 0 .1.4 1.35.55 1.35.7.1.95-4.201.35-3.651.3-.3-.25.25 0 0" opacity=".39"/><path d="M215.032 140.2c.7.651 1.3-2.25.9-2.35-.9-.6-1.5 1.75-.9 2.35M225.134 153.152c-1.251-2.4-3.351 2.551-3.201 3.651.35 2 4.551-1.1 3.201-3.651.3.6-.05-.1 0 0m-1.351 3.301c-1.7 1.85-1.05-3.051.501-3.351.2.65-1.101.7-.651 1.351.1 1 .951-.551 1.051-.551.1.751-.35 2.001-.901 2.551.2-.2-.2.25 0 0M215.032 146.251c.05-.15.3-3.25-.3-2.35-.85 1.2.25 3.501.3 2.35M194.729 130.749c-.1.8-.35 1.55-.45 2.35-.2 1.001-.45 2.201-.75 3.101-.25.7-1.75 3.7-1.15 4.2.45.451 1.5-3.3 1.75-3.95-.25 3.75.5.95.9-1.1.2-1 .2-2.201.65-3.151-.1.25-.85-2.35-.95-1.45M186.528 135.05c0-.4.45-1.2.05-1.401-.75-.4-.85 3.001-1 3.401-.85 3.5 2-2.15.95-2 .35-.05 0-.1 0 0M183.678 147.702c-.05 1.05-.301 1.2-.701 2.2-.1.2-.25 2.35.2 1.25.25-.55.601-1.25.851-1.75.5-1.05-.3-2.301-.35-1.7.05-.45 0 .3 0 0M178.627 149.902c.3-3.201-1.85-7.201-1.2-10.452.15-.4-.5-.55-.65-.2-1.001 4.251 1.6 8.402.35 12.702-.45.85 0 2.051.15 1.45.2-1.15 1.25-2.25 1.35-3.5 0-.1-.1.8 0 0M181.977 165.354c-1.2-1.35-1.85 3.451-2 3.801-.4 1-1 2.3-.95 3.4.05.55 1.85-1.3 1.85-1.35.55-.2-.35-1.25-.6-.4.15-.75 2.9-5.101 1.7-5.451.15.05-.1-.1 0 0M192.079 156.703c1.55-3.701-1.95-.45-.7.5-.15 1 .05 2.5-.4 3.4-.65 1.351-1.651 2.351-1.851 3.951-.05.35-.7 2.15-.4 2.45.75.85 1.15-2.65 1.251-2.95.3-1.2 1.05-2.05 1.55-3.101.55-1.2.3-2.9.55-4.25.2-.5-.2.9 0 0" opacity=".39"/></g><g fill="#9b4300" opacity=".17" style="mix-blend-mode:screen"><path d="M169.425 150.052c-.2-.15-.4-.25-.6-.35l-.55 3.5c.35-1.05.75-2.1 1.15-3.15M194.129 163.504c-4.651-4.551-11.052-5.051-17.152-6.351-3.451-.75-4.351-5.201-7.302-6.951-1.35 2.8-2.45 8.351-2.85 11.502 1.4 0 10.952 2.5 14.652 3.45 4.201 1.2 2.551 6.301 4.851 8.901 2.7-.1 5.551-.15 8.451-.15 2.751-3.15 2.751-7.701-.65-10.401M213.232 157.303c-2.6-4.301-12.602-6.351-14.202-1.15-.85 2.8-.85 6.351-.1 9.001.55 3.051 2.55 5.701 2.5 8.901l4.201.15c1.15-4.9-3.601-10.351-1.75-14.602 1.05-1.4 3.1-1.1 4.35-.25 4.801 4.201-.35 9.502-.65 14.952 1.5.101 3.051.201 4.601.301 1.95-5.401 4.35-11.952 1.05-17.303M224.633 133.8c-.05-1.051-.2-2.151-.25-3.201l-4.85-.8c1.5 3.15.5 8.901-3.101 10.201-2.35.301-2.95-3.55-2.95-5.15-.1-2.201 1.1-3.851 2.15-5.701l-4.05-.65c-1.251 4.85-1.601 13.402 4.55 14.802 6.301 1.6 9.252-4.101 8.501-9.501M227.684 140.15c-1.4.801-1.15 2.301-1.55 3.651-.4 1.3-2.151 6.401-1.501 7.501.551.9 2.051.7 2.601-.1.6-.9.65-2.05 1.15-3.05.6-1.151 1.55-1.701 2.6-2.401 1.101-.75 2.301-1.9 2.201-3.3-.1-2.601-3.501-3.401-5.501-2.301M219.233 148.452c-1.651-1.801-4.101-2.801-5.851-2.151-3.101 2.201 2.35 5.751 3.1 8.102 2.451 3.4 6.901-1.401 2.751-5.951M235.735 171.705c-.55-2.5-4.651-5.401-6.851-3.3-1.2 2.65.65 5.75 1.4 8.301q2.926.45 5.851 1.05c-.85-1.95-.25-4.051-.4-6.051M223.883 166.804c2.951-12.501-5.35-4.4-3.85 4.901.2 1.3 1.2 2.35.45 3.651 2.1.25 4.25.5 6.351.8-.6-3.401-3.101-5.901-2.951-9.352" opacity=".32"/><path d="M254.738 142.951c-4.151-2.55-4.801-3.501-9.151-.5-6.551.85-7.902 2.05-12.252 6.851-3.051 2.35-7.551 3.95-7.801 8.351-.851 5.951 3.15 6.301 7.751 6.951 7.151 5.101 8.051.7 14.352 2.3l2.25-4.9c-4.551-5.151-8.701 1.15-13.702.3-5.351-1.05-6.051-10.202.6-8.852 1.45.1 2.451-1.05 3.801-1.45 2.15-.65 4.5 1.05 6.551-.1 2.65-1.95 5.751-7.501 8.451-2.2l2.5-5.401c-1.2 0-2.6-.9-3.35-1.35" opacity=".32"/><path d="M249.137 152.702c-4.051 6.201-10.752-1.5-13.352 2.951-2.65 4.5 7.901.9 10.702 1.55 1.75.15 3.25.95 4.75 1.9l2.551-5.551c-1.2-1.4-3.051-2.25-4.651-.85M190.628 130.999c1.151 2.351-1.9 3.901-1.65 6.101 2.001 4.051 6.651 1.45 6.951-2.25.6-3.351-1.75-6.251-2.55-9.402l-4.551-.75c.2 2.251 1.25 4.251 1.8 6.301" opacity=".32"/><path d="M205.481 136.4c-1.301-2.95-2.751-6.001-2.401-9.301l-4.8-.801c1.85 4.851 5 10.402 2.95 15.653-4.151 7.851-13.252 2.6-17.803-2.001-2.85-5.05 1.501-10.901-.6-16.202l-4.9-.8c-.6 3.25-1.551 6.401-2.501 9.601 4.201 5.201-.3 13.202 4.751 17.753 2.2 1.6 4.951 1 7.451.7 2.95-.25 5.751 1.35 8.651 1.35 8.001 0 13.552-8.951 9.202-15.952" opacity=".32"/></g><path fill="#898585" d="m250.937 142.301 7.552-2.751-79.112-14.302-1.95 4.051z"/><path fill="#bdbdbd" d="m237.335 175.756 13.602-33.455 7.552-2.751-17.203 38.306z"/><path fill="#a4a4a4" d="M176.727 118.847s-13.352 54.308-13.902 58.809c2.05 0 78.961 4.151 80.161 3.801l19.553-44.907c0-1.65 5.451 0-85.812-17.703m64.559 56.359c-.25.2-70.11-4.451-70.01-5.051 1.45-10.102 7.201-38.456 8.051-41.156-.4-5.151 70.96 10.751 73.361 9.901 1.75.3 5 .3 3.7 2.951-14.252 28.754-15.102 33.355-15.102 33.355"/><path fill="#898585" d="M174.076 154.202c2.151-11.251 4.701-23.503 5.251-25.253.65-2 3.601-1.6 5.201-1.4 0 0 9.801 1.6 21.953 3.65q3.15-2.625 6.151-5.401c-9.902-1.9-21.703-4.15-35.905-6.901 0 0-5.401 22.054-9.502 39.206 1.05-.55 5.601-3.15 6.851-3.901" opacity=".2"/><path fill="#d8d8d8" d="M250.537 133.049c-2.15 1.15-7.101 4.001-7.501 4.201 5.801 1 14.652 1.9 13.302 4.551-14.252 28.804-15.102 33.354-15.102 33.354-.15.15-28.154-1.7-48.657-3.2-2.2 1.55-9.401 5.851-10.702 6.651 23.454 1.2 60.259 3.1 61.109 2.85l19.553-44.906c0-.9 1.65-.8-12.002-3.501" opacity=".3"/><path fill="#d58500" d="m171.276 126.148-29.605 5.101 7.952 41.806c4.35-1.25 7.551-1.05 14.102-1z"/><g fill="#9b4300" opacity=".58"><path d="M152.423 150.702c-.1-.5-.4-.95-.8-1.3-.95-.75-2.1-1.15-3.251-1.3s-2.4-.1-3.5-.4l1.65 8.701c.85.3 1.65.55 2.501.7.85.1 1.75.2 2.6 0 .45-.1.95-.3 1.25-.7.35-.5.2-1-.15-1.5-.25-.4-.6-.75-.75-1.2-.15-.401-.1-.851.05-1.301.15-.5.5-1.05.4-1.7M166.325 136.65c-2 .55-1.95 3.751-4.05 4.201-5.101-1.351 4.55-8.702 1-13.302l-8.802 1.5c-1.7 7.251 6.151 4.201 4.951 8.951-.75 1.65-2.6 2.901-1.6 4.901 2.35 3.951 9.351 2.5 11.001-1.45l.351-2.201c-.301-1.2-1.451-2.75-2.851-2.6" opacity=".17"/><path d="M156.374 157.403c-2.051 3-5.901 2.65-9.052 3.251l1.15 6c.65-1.65 2.151-2.85 3.901-2.9 16.802-.55 1.05-15.902 15.102-14.302l.55-3.501c-4.6-1.05-13.202 4.201-13.752-3.35-.45-6.901-6.401-4.501-4.05-12.852l-8.552 1.5.75 3.901c6.051.15 4.451 3.75 6.551 7.951 2.401 4.851 11.152 7.751 7.402 14.302M158.474 165.854c-2.05 1-3.601 2.801-4.151 5.001-.1.45-.2.9-.2 1.35 2.601-.25 5.451-.15 9.602-.15l1.1-6.601c-2.1-.55-4.351-.55-6.351.4" opacity=".17"/></g><path fill="#9b4300" d="M149.573 135.65c6.851.05 13.902-.15 20.503-2.15l1.2-7.352-29.605 5.101 7.952 41.806c1.55-.45 3-.7 4.5-.85-.05-.85-4.55-36.555-4.55-36.555" opacity=".4"/><path fill="#b45f00" d="M148.872 133.65c-1.05.15.801 7.201 1.001 8.601.5 3.7.75 7.401 1.2 11.052s.15 7.751 1.7 11.451c.15.65.65 4.101.55 3.751.2.55 1.05-.15.5-.45.15.1-4.15-34.505-4.951-34.405M157.024 168.705c-.2-4.001.3-8.201-.15-12.102-1.101-3.1.2-6.351-.85-9.601-.251-.751-.1-1.851-.15-2.651-.401-3.2.2-7.101-.751-10.101-.45-.4.4-1.3.05-1.601-.75-.7-.55 1.751-.45 2.001.5 7.351.8 14.952 1.751 22.303.35.7-.901 13.852.55 11.752.05.35-.05-.6 0 0M161.774 135.25c0-.2.2-1 .1-1.1.1-1.051-.45-2.101-.55-.4-.45 9.101-1.85 18.102-2.1 27.254.15 1.3-1.25 7.701-.5 7.701 1.55-3.151 1.15-8.552 1.25-12.102.55-7.101 1.35-14.202 1.8-21.353 0 .25 0-.15 0 0M156.874 136.4c0-.25-.25-1.2-.55-1.15-.4.1-.4 2.4.05 2.3.35-.05.5-.95.5-1.15M152.323 146.652c-.25-.601-.2-1.251-.35-1.901-.25-.75-.95-.45-.7-.1-.1.55.3 1.751.4 2.351.15.6.75-.05.65-.35.05.15-.15-.451 0 0M148.172 137.05c-.1-.4-.3-2.5-.7-2.15-.5.45-.2 1-.05 1.5.15.45.9 1.45.75.65M155.824 165.754c-.1-.4.2-2.15-.501-1.5-.2.2-.25 1.35-.25 1.55-.05.4.851.4.751-.05.05.25-.05-.1 0 0M158.824 157.553c0-.25.35-1.8-.15-1.85-.6-.35-.6 1-.55 1.2.05.55.75 1.95.7.65 0 .05 0-.5 0 0"/><path fill="#a4a4a4" d="m142.072 131.649 5.1 2.301 5.201 39.955-3.2-.95z"/><path fill="#898585" d="m142.672 132.399 4.5 1.551 21.103-2.651-.4-4.3s-17.502 2.6-20.903 3.15c-3.35.55-4.3 2.25-4.3 2.25"/><path fill="#c8c7c7" d="M133.62 128.549c0 .25 11.952 49.457 12.902 49.907.25.1 17.553-.3 17.903-1.15l12.502-58.459c-.25-.15-43.407 7.701-43.307 9.702m28.754 27.904c-1.7 14.702-1.5 15.202-3.8 15.052-8.401-.5-8.551 1.45-9.301-1.75 0 0-6.151-36.506-6.151-36.756.05-3 22.353-4.15 22.553-4.2.1 0-3.251 27.554-3.301 27.654"/><path fill="#d8d8d8" d="M143.772 136.95c-.9-5.401-1.45-4.501 4-6.101a101 101 0 0 1 6.101-7.701c-10.401 2.15-20.353 4.451-20.303 5.401 0 .1 2.001 8.401 4.401 18.202.35-.5 4.1-7.101 5.801-9.801"/><path fill="#898585" d="M163.375 148.502c-1.451 9.701-1.901 25.553-4.801 23.053-12.202-.3-8.001 2.45-10.752-10.251-1.7 1.5-3.35 3.1-4.95 4.7 1.85 7.051 3.3 12.302 3.6 12.452.25.1 17.553-.3 17.903-1.15-.1.95 4.35-19.503 7.701-35.605-2.851 2.25-5.801 4.5-8.701 6.801" opacity=".2"/><path fill="#b45f00" d="m303.245 124.248.5-16.052-77.661-21.953c9.701 8.1-5.151 43.656-26.654 41.856l82.062 14.352c10.151-.6 21.753-18.203 21.753-18.203"/><g fill="#9b4300" opacity=".46" style="mix-blend-mode:screen"><path d="M239.486 96.044c.4 2.7 1.7 5.251 1.4 8.051 0 1.15-.1 2.6.55 3.651 4.401 4.65 4.601-4.501 4.201-7.151 0-4.201-2.951-6.451-4.801-10.202l-1.65-.45c.25 2.05.15 4.3.3 6.1M222.333 118.797c1 .45 2.101.55 3.151.6 1.2.05 2.4-.1 3.5-.4.5-.15 1.05-.3 1.5-.6.3-.2-.1-.45-.3-.6s-.4-.3-.65-.4c-1.05-.45-2.2-.6-3.3-.8-1.55-.35-3.001-.95-4.351-1.7-.45.65-.85 1.25-1.35 1.9.45.8.9 1.55 1.8 2" opacity=".15"/><path d="M259.239 106.996c-.651-3.851-.451-7.752-.701-11.602l-7.551-2.15c.5 5.85 5.201 12.001 1.751 17.702-3.301 5.201-11.402 4.901-15.253.6-4.25-4.901-.2-9.401-5.15-15.702-1.801-4.2-.4-9.001-6.251-9.651 4.45 3.75 3.75 13.351-.5 22.453 4.3 7.301 9.851 6.051 16.952 8.051 1.55.75 3.251 2.5 2.1 4.301-3.25 4-8.851-.1-13.001 1.6-5.051 2.95-9.602-.85-14.603-1.7-1.45 1.4-8.151 6.3-9.801 7.401 4.751 1.3 18.103 4.3 18.103 4.3 5-10.801 19.552-2.9 27.054-10.001 2.2-1.95 2.75-4.851 3.55-7.551.85-2.801 3.351-4.951 3.301-8.051M263.239 126.898c-2.65-.65-5.451.15-8.001.851-3.25.95-6.551 2.2-9.901 2.75-.85.15-1.751.25-2.601.25-.8 0-1.6-.1-2.4-.05-1.4.1-2.8.55-4.001 1.3-.85.55-1.6 1.3-2.2 2.1l14.552 2.551c.2-.2.4-.45.6-.65 1.9-1.851 4.501-3.551 7.151-4.001 1.25-.2 2.651-.05 3.401 1.15.75 1.151.65 2.701.4 4.001-.1.5-.2 1-.35 1.45l7.701 1.35c.35-.95.6-1.9.7-2.9.5-3.701-.85-9.101-5.051-10.152M303.695 108.196l-5.001-1.401c-.35.751-.6 1.501-.8 2.251-.3 1.1-.85 2.3-.8 3.45 0 .7.15 1.45.8 1.7.3.151.65.201.95.401.55.4.6 1.45.7 2.1.15.9.551 1.75 1.601 1.85.75.1 1.5-.1 2.25-.3z" opacity=".15"/><path d="M303.245 123.798c-3.801.45-11.652-11.602-8.451-18.153l-7.651-2.15c-.95 6.051 2.5 13.802-3.851 17.853-2.95 2-6.901 3.6-7.951 7.351.75 6.051-2.85 6.801-3.2 12.151l8.551 1.501c.45-2.951 4.3-13.352 7.001-14.753 2.2-1.15 5.251-.8 7.051.951 1.85 1.95 8.501-4.751 8.501-4.751" opacity=".15"/><path d="M290.643 132.349c-.35-.2-.75-.2-1.2.05-.6.35-.95 1.05-1.25 1.65-.1.25-.2.45-.15.7.05.201.2.301.25.451.75 1.35-1.75 3.55-.7 4.75.45.5 4.95-1.05 4.95-1.55.05-1.5-.05-3.1-.6-4.451-.15-.55-.65-1.35-1.3-1.6M281.742 104.795c-.1-1-.2-2-.45-2.95l-7.851-2.2c1.25 5.25 3.8 11.251-2.151 14.652-6.501 1.4-.55-12.252.05-15.253l-6.05-1.7c-.951 6.651-2.251 13.252-3.251 19.903-.25 5.751 7.601 6.601 11.652 4.951 5.301-3.701 8.001-11.152 8.051-17.403" opacity=".15"/></g><path fill="#9b4300" d="M300.645 128.349c-16.103-1.201-31.805-3.651-46.807-9.852-9.952-4.1-20.903-2.8-31.355-4.3-5.351 8.201-13.552 14.702-23.103 13.902l82.062 14.352c6.901-2.001 19.203-14.102 19.203-14.102" opacity=".4"/><path fill="#9b4300" d="m303.695 108.196-77.661-21.953c9.701 8.1-5.151 43.656-26.654 41.856l17.802 3.1c11.952-9.001 17.153-18.553 18.753-33.155 11.252 2.801 22.253 7.001 33.805 8.852 11.252 1.9 22.603 2.9 33.805 5.05z" opacity=".4"/><g fill="#b45f00" opacity=".33" style="mix-blend-mode:multiply"><path d="M293.594 111.796c-12.352-2.25-51.608-12.402-58.909-14.152-2.25-1.3-4.701-1.6-7.251-1.3-1.35 1.2 21.253 6.651 30.705 7.801 3.8.55 7.301 2.6 11.051 3.401 4.401 1 8.951.8 13.152 2.55 5.301 2.25 11.202 2.55 16.602 4.2.25.151 3.901-.8-5.35-2.5M302.545 122.998c-1-2-23.404-5.901-28.404-6.601-3.951-2-8.301-1.5-12.652-2.851-11.052-3.45-24.804-5.45-28.154-6.2-2.501-.901-4.851-3.801-7.801-3.301-.65-.25.1 1.65 4.4 3.451 2.051.85 40.606 8.651 51.208 10.951 5.351 1.35 21.953 5.701 21.403 4.551.05.15-.4-.8 0 0M297.594 131.949c-.85-.25-6.751-1.75-9.101-1.85-9.902-.6-19.553-3.451-29.104-5.751-9.752-3.601-20.353-3.3-30.155-6.701-2.4-.8-11.851-3.45-12.201-2.95-1.001 1.6 14.552 3.75 16.552 4.9 21.403 5.451 42.006 9.802 64.009 13.652zM287.493 139.85c-6.501-2.3-13.102-3.35-19.853-4.4-9.952-2.101-19.403-6.051-29.554-7.151-3.751-.5-7.452-1.901-11.252-2.451-4.751-.55-9.151-3.75-14.052-3-.65.6 30.154 7.401 32.805 8.201 4.7 1.35 26.554 5.551 32.654 7.801 6.351 2.351 10.752 1.35 9.252 1 .35.05-1.55-.4 0 0M240.086 124.248c-4.751-2.05-10.252-1.5-15.052-3.45-1-.401-12.502-3.451-11.002-1.101.35.35 3.501.15 4.251.25 6.251 2.751 13.052 3.251 19.653 4.751.3.1 3.4.05 2.15-.45.3.15-1.25-.55 0 0M291.143 127.749c-.5-.05-2.4.5-1.35.6 3.701.05 7.101 2.2 10.752 2.25 0 0-6.951-3.2-9.402-2.85M254.838 120.648c-1.1-.15-2.05-.651-3.1-.851-.401-.1-2.201.701-1.251.801 1 .1 2.151.3 3.101.55.75.25 2.2-.35 1.25-.5.3.05-.35-.05 0 0M230.835 109.346c-1.401-.15-3.651-1.95-5.101-1.15-1 .5 2.45 1.1 2.75 1.15.7.25 1.4.5 2.15.7.351.1.851-.6.201-.7.45.05-.451-.05 0 0M244.937 104.145c-1.251-.2-2.651-.25-3.851-.75-.4-.75-2.2-.6-1.5-.05 1.1.85 1.55.95 3.05 1.2q.675.225 1.35.3c.35 0 2.051-.55.951-.7.4.05-.751-.15 0 0M232.035 92.643c-.55-.1-4.951-2.5-4.851-1.4.05.4 1.95 1.05 2.25 1.3.6.45 1.301.65 2.101.75.5.15 1.2-.6.5-.65.45.05-.1-.05 0 0M301.595 110.596c-.6-.2-4.851-1.45-5.551-1.1-1.15.6 1.9 1.3 2.05 1.35.7.2 1.451.3 2.201.4-.7-.1 2.85-.1 1.3-.65.4.15-.8-.3 0 0M291.393 137.75c-.35-.15-5.751-1.9-4.75-.65.4.45 1.8.8 2.3 1 .45.15 3.55.1 2.45-.35.35.15-.7-.35 0 0M286.293 123.348c-1.101-1.65-2.101-2.3-4.201-1.65-1.6.45-2.75 1.35-2.5 3.1.55 4.401 8.701 1.6 6.701-1.45.2.25-.251-.45 0 0m-1.051 2.1c-2.55 2.601-7.101-1.4-3.55-2.35-.8.25-.1 1.3.45 1.35-1 1.65 1.9 1.2 2.55.5 1.751-1.85-2.15-2.15-3-1.85.25-.15.3-.3.2-.55.65-.25 1.55-.45 2.3-.35 1.4.25 2.001 2.3 1.05 3.25.5-.5-.85.85 0 0m-2.25-1.75c-.45-.4 1.55.4 1.15.15 1 .5-1.2 1-1.4.95.15-.2.65-.8.25-1.1" opacity=".33"/></g><path fill="#a4a4a4" d="M302.795 102.795c-3-4.15-60.609-15.102-83.762-21.253-1.5-.35-29.605 29.004-40.206 38.356 4.05 3.85 7.301 7.801 10.501 8.051 7.802 1.9 22.154 3.8 25.804 5 2.301.751 52.808 10.302 60.959 11.002 27.904 2.5 33.705-31.505 26.704-41.156m-22.603 37.956c-14.202-1.551-67.61-12.602-67.86-12.602 8.101-1.951 13.952-9.252 17.252-16.453 6.501-14.252 1.501-20.203 1.501-20.203.05-.1.2-.2.45-.2 1.25.1 2.4.65 3.6.9l62.959 14.953c6.351 2.75-2.25 35.305-17.902 33.605"/><path fill="#898585" d="M263.689 95.344c.4.85 1.15 3 3.901 2.85.05-1.4-.5-5.3-.55-5.75-1.751-.4-4.751-.9-6.551-1.3.55 1.3 2.55 2.95 3.2 4.2"/><path fill="#898585" d="M279.642 98.744c.8-1 3.1-.8 2.5-2.6-4.051-1-8.801-2.05-13.352-3.05.15 2.2 1.85 7.701-2 6.7 7.151 1.801 12.402 1.351 12.852-1.05"/><path fill="#898585" d="M231.935 92.944c-1.451-3.001-1.551-2.5-2.401-3.701l70.561 16.402-2.001 1.501z"/><path fill="#8f8b8b" d="M300.095 105.595c2 11.552-1.101 27.054-8.052 31.655-3.75 2.45-7.151 3.051-7.151 3.051 15.303-7.852 14.953-29.255 13.302-33.355z"/><path fill="#d58500" d="m219.133 82.042-39.056 33.905.65.05-.2 6.251-.55-.05c18.303 14.702 62.559-6.951 39.156-40.156"/><path fill="#9b4300" d="m219.133 82.842-39.056 33.055s19.753 5.551 18.803 4.651c-2.801-2.451-1.65-3.551-1.3-3.951.5-.5 15.302-11.102 16.602-12.252 9.151-7.7 6.551-19.203 4.951-21.503" opacity=".4"/><path fill="#b45f00" d="M201.78 121.148c-.5-1.601-.95-3.801-2.4-4.751-.25-.2-1.55-1.3-1.85-.7-.05-.05-2.301-1.8-1.801-.65-.4.45 3.351 2.6 3.801 3.05.25.4.55.8.75 1.25.35.65.6 1.301.85 2.001.1.35.8.25.65-.2.1.4-.2-.55 0 0M211.632 116.297c-1.701-1.95-3.751-4.001-5.651-5.501-.4-.3-3.501-3.4-3.651-2.8-.25 1 4.001 4.65 4.601 5.05 1.15.851 2.05 1.701 3.15 2.651.15.25 2.351 1.5 1.551.6M218.733 107.446c-2.251-2.901-4.651-5.351-7.051-8.052-.05-.65-1.251-.4-.55.3.9.951 1.25 2.201 2.1 3.251.95 1.15.75.2 1.35.7.4.35 4.551 6.001 4.151 3.801.3.3-.45-.45 0 0M213.432 104.645c-.85-1.1-2.3-2-2.851-2.95-.4-.7-.85-1.35-1.55-1.75-.35-.2-.75.35-.35.55.8.45 1.95 3.35 2.601 3.3.3.25 1 1.6 1.45 1.5.2-.05 1.1-.15.7-.65.25.35-.6-.8 0 0M214.882 111.746c-.4-.4-1.75-2.6-2.25-2.65-1.8.25 1.55 2.9 1.4 3.75.05.901 1.25-.75.85-1.1.25.25-.65-.7 0 0M208.331 120.297c-.35-.7-.8-1.3-1.3-1.9.3-.6-2.2-4.901-2.3-3.1-.75.5 4 6.801 3.6 5M219.683 97.794c-1.35 1.05-3.601.95-4.151-.95-.15-.5.35-1.65-.4-1.7-.55-.55-.85 1.05-.9 1.35-.15 1.7.25 2.05 1.7 2.9 2.501 1.751 4.801-2.25 3.751-1.6.35-.3-.7.5 0 0"/><path fill="#c8c7c7" d="M193.429 116.997s15.302 7.051 24.354-5.101c9.001-12.201-14.102 11.052-14.102 11.052l-13.202.45-6.801-4.051.7-1.05z"/><path fill="#a4a4a4" d="m179.877 118.947 13.552-1.95 27.154-24.753-.5-3.3z"/><path fill="#d8d8d8" d="M218.133 81.742c-5.051 4-42.907 36.805-41.006 37.705 12.151 16.003 34.155 9.402 45.506-5.5 9.602-12.602-1.25-34.805-4.5-32.205m-32.305 36.405c5.401-4.7 29.154-24.853 31.805-27.104 3.25 28.955-20.553 32.755-31.805 27.104"/><path fill="#898585" d="M194.679 110.546c9.002-7.651 21.103-17.952 22.954-19.503 1.25 11.202-1.551 18.653-6.101 23.204 3.3.45 6.651.8 10.051 1 11.652-12.852-.2-36.105-3.45-33.505-3.201 2.5-19.253 16.402-30.305 26.554 2.001.7 6.601 2.2 6.851 2.25" opacity=".2"/><path fill="#898585" d="M209.281 98.144c4.201-3.55 7.501-6.35 8.402-7.1q.375 3.3.3 6.15c2.7-.55 5.35-1.15 8.001-1.95-1.55-8.351-5.951-15.002-7.801-13.502-2.101 1.65-9.952 8.401-18.253 15.702 3.05.5 6.201.75 9.351.7" opacity=".2"/><path fill="#fff" d="M136.121 128.149c.2-.45.7-.55 1.15-.6s.95-.1 1.35.05c.45.15.85.5.85.95-.75-1.5-.45-3.251-.1-4.901-.6-.2-1.3-.5-1.5-1.1.25 1.95-.4 4.051-1.75 5.601M167.725 149.352c-.7 1.55-1.8 2.9-3.2 3.9.65-.1 1.25.4 1.5 1.051.25.6.2 1.3.1 1.95.1-1.7 1.65-3.201 3.35-3.151-.75-.2-1.3-.8-1.55-1.5-.25-.75-.25-1.5-.2-2.25M141.872 126.949a7.8 7.8 0 0 1-1.401 3.6c.45-.25 1.05 0 1.351.4s.45.9.55 1.4c-.35-1.25.45-2.75 1.7-3.1-.55.05-1.15-.3-1.5-.7-.4-.45-.6-1.05-.7-1.6M204.131 98.044a9.7 9.7 0 0 1-3.201 3.901c.65-.1 1.25.4 1.5 1.05.25.6.2 1.3.1 1.95.1-1.7 1.651-3.2 3.351-3.15-.75-.2-1.3-.8-1.55-1.5s-.25-1.5-.2-2.25M236.035 134.65a4.07 4.07 0 0 1 2.951-.55c.8.2.95.55 1.6 1.6-.65-1.45-.25-3.351.95-4.401-.6-.05-1.25-.1-1.85-.35-.55-.3-1.05-.85-1-1.5.15 1-.2 2.05-.701 2.9-.55.851-1.25 1.601-1.95 2.301M298.394 107.046c-.55-1.1-.7-2.351-.5-3.551.2 2.001-1.05 4.051-2.95 4.801.65-.3 1.4.2 1.65.85.2.65-.05 1.4-.4 2 .5-1.65 2.05-2.95 3.801-3.1-.601.25-1.301-.4-1.601-1M212.782 89.593c-.2 1.25-1 2.45-2.051 3.1.951.1 1.151 1.801 1.101 5.302.3-2.1 2.15-3.851 4.25-4.101-1.65-1-2.85-2.55-3.3-4.3"/><path fill="#d8d8d8" d="M123.969 198.659v2.5h109.716c-1.85-7.451-8.651-11.352-15.652-12.902-11.552-12.702-19.053-15.552-36.156-12.252-6.951.601-14.102-.95-20.203-4.35-6.251-5.401-16.652-2.051-16.602 6.701-11.702 1.25-20.203 10.901-26.254 20.253z"/><path fill="#a4a4a4" d="M123.419 198.659v2.5h110.216c-2.451-10.951-15.653-12.902-15.653-12.902-4.65-5.2-10.701-11.901-20.002-13.152-5.001 4.901-15.003 9.502-18.903 1.05-5.751.05-11.502-1.35-16.603-4 .4 5.501 4.801 12.352-1.15 15.802-2.65 1.2-5.701.3-8.451.1-3.401-.3-6.851-.1-10.201-.65-.451-.1-1.801-.5-1.801.2 1.1 5.301-5.651 8.051-10.001 7.651-4.451-.75-9.952-1.6-12.152 3.401z"/><path fill="#d8d8d8" d="M239.436 184.757c4.5 1.75-3.301 3.7-4.951 3.55-3.751 0-6.951-2.8-10.652-3.2 3.301-3.901 1.251-8.601 9.102-8.301 3.25 1.5 2.9 6.601 6.501 7.951"/><path fill="#a4a4a4" d="M240.786 185.657c-.15-.55-.85-.7-1.35-.9-3.151-1.3-3.301-6.051-6.251-7.851-.85 3.6-4.651 6.251-8.351 6.801-.3.5-.6.95-1.001 1.35 5.301 1.15 9.602 5.301 15.653 2.05.7-.4 1.5-.8 1.3-1.45"/><path fill="#a4a4a4" d="M153.173 185.357c4.051 0 6.951-1.6 8.351-2.901 2.501-2.3.75-5.2-1.9-4.7-2.15.4-12.352 1.15-12.352 1.15l-3.15 4.401 23.553 17.352c-.9-2.55-6.551-10.001-14.502-15.302" opacity=".34"/><path fill="#d58500" d="M272.591 89.943c1.55.55 3.1.3 4.75 1.35 3.301 2.15 5.351 5.801 4.301 6.351-2.3 1.25-7.901-6.4-11.702-7.951.8-.3 1.8-.05 2.651.25"/><path fill="#b45f00" d="M279.291 93.244c.05-.1.05-.15.101-.25-.351-.35-.701-.7-1.101-1-.5.4-1.1.55-1.7.4-.95-.3-2.1-1-2.2-2.05-.6-.1-1.2-.2-1.8-.4-.851-.3-1.801-.551-2.701-.25 3.851 1.55 9.452 9.2 11.702 7.95.45-.25.3-1-.2-2-1.15 0-2.301-1.2-2.101-2.4" opacity=".36"/><path fill="#b45f00" d="M281.692 96.994c-1.95-.4-3.301-1.7-4.051-3.45-2.05.1-4.15-1.3-4.4-3.4-.25-.05-.45-.1-.65-.2-.851-.3-1.851-.551-2.701-.25 3.851 1.55 9.452 9.2 11.702 7.95.2-.1.3-.35.25-.65z" opacity=".36"/><path fill="#9b4300" d="M279.892 93.894c-1.601.85-.65 2.55.7 3.05-.95-.5-1.451-2.15-.7-3.05" opacity=".4"/><path fill="#d58500" d="M277.741 99.995c-1-.2-2.95-1.3-3.3-2.9-.25-1.101-.75-.35-1.55-1.101-1.251-1.4-5.251-5-2.451-6.401 1.05-.2 1.751.95 2.801 1.3 2.2.15 7.201 8.701 4.5 9.102"/><path fill="#b45f00" d="M275.191 93.594c-1.25-.4-2.35-1.6-2.3-2.8-1-.651-2.351-1.951-3.301-.651-.55 2.3 1.85 4.25 3.251 5.85.8.801 1.3.05 1.55 1.101.45 1.6 3.25 3.901 4.101 2.35-2.001-1.5-3.151-3.35-3.301-5.85" opacity=".36"/><path fill="#b45f00" d="M274.991 94.444c-1.85-1.35-2.1-2.6-2.4-3.85-.9-.7-2.151-1.601-3.001-.5-.55 2.3 1.85 4.25 3.251 5.85.8.8 1.3.05 1.55 1.1.15.5.4 1 .75 1.4-.35-1.05-.3-3.55-.15-4" opacity=".36"/><path fill="#9b4300" d="M276.791 96.344c-.4.3-.8.7-.8 1.2 0 .35.2.7.45.95.35.35.75.65 1.25.8-.55-.25-.9-.85-1.1-1.45-.05-.15-.1-.3-.1-.45-.05-.35.05-.75.3-1.05" opacity=".4"/><path fill="#d58500" d="M269.29 96.344c-1.35-1.7-1.85-4-2.85-5.9-.7-1.251-2.301-3.802.4-3.502 2.2.35 5.3 3.051 5.65 3.951 2.751 6.001 4.651 13.302-3.2 5.45"/><path fill="#b45f00" d="M273.341 96.844c-1.251-.8-1.851-3.3.05-3.6-.3-.75-.6-1.55-.85-2.35-2.301.3-4.501-1.651-4.951-3.801-1.15-.55-2.951.1-2.05 1.5 1.5 2.45 2.1 5.45 3.8 7.75 1.7 2.151 6.751 5.852 5.501.851-.55.1-1.1-.05-1.5-.35" opacity=".36"/><path fill="#b45f00" d="M273.491 98.394c-1.901-1.15-3.301-3.3-3.051-5.6-2.35-.4-3.25-3.401-2.3-5.551-3.501-1.35-3.151.9-1.65 3.15 1 1.95 1.5 4.2 2.85 5.9 1.45 1.851 5.201 4.702 5.651 2.601-.6 0-1.15-.2-1.5-.5" opacity=".36"/><path fill="#b45f00" d="M268.89 91.843c.3-1.15.7-2.55.5-3.85-7.501-3.95-2.35 3.2-1.3 6.4.35-.8.6-1.7.8-2.55" opacity=".36"/><path fill="#9b4300" d="M273.241 94.844c-1.601.35-1.501 2.5-.351 3.35-.65-1-.7-2.6.351-3.35" opacity=".4"/><path fill="#d58500" d="M266.79 86.543c-2.251-3.701-4.501-4.251-6.901-4.901-4.751-1.25-6.251 2.45-9.352 5.5 0 .6-.05 1.2-.1 1.85 2.701.601 4.151.901 7.501 1.651 1-1.2 2.151-2.35 2.901-2.4.95-.05.8 1.4 2.55 3.15.25.25.45.45.65.75.65 1.1-.1 3.15 2 5.151.901.85 2.151 1.4 3.351 1.35.05-1.85.05-3.7.1-5.55s-2.55-6.351-2.7-6.551"/><path fill="#b45f00" d="M269.39 92.443c-.05 0-.05-.05-.1-.05-2.5-1.05-5.501-4.8-3.4-7.2-1.951-2.501-3.951-3.051-6.051-3.601-4.751-1.25-6.251 2.45-9.352 5.5 0 .6-.05 1.2-.1 1.85 2.701.6 4.151.901 7.501 1.651 1.001-1.2 2.151-2.35 2.901-2.4.95-.05.8 1.4 2.55 3.15.25.25.45.45.65.75.65 1.1-.1 3.15 2.001 5.151.9.85 2.15 1.4 3.35 1.35.05-1.85.05-3.7.1-5.55.05-.15.05-.35-.05-.6" opacity=".36"/><path fill="#b45f00" d="M267.84 98.194c-1.35-.9-1.55-2.35-1.3-3.85-.3-1.7-2.101-2.6-2.401-4.351-.35-1.05-1.25-1.55-1.7-2.5s-.6-2.05-1.4-2.8c-3.101-3.201-2.301 2.95-10.552 3.35-.05.3-.05.6-.05.9 2.701.6 4.151.9 7.501 1.65 3.951-4.45 2.801-2 6.101 1.5.55 1.85.5 5.501 4.251 6.401-.2-.1-.3-.2-.45-.3" opacity=".36"/><path fill="#d58500" d="M257.838 81.342c-2.6.15-4.05 2.1-5.9 4.2 3.7.05 5.3-2.1 5.9-4.2"/><path fill="#9b4300" d="M266.89 95.744c.1.7.6 1.35 1.2 1.7-.3-.65-.85-2.05-.3-2.7.15-.2.4-.3.6-.2.1-.3-.15-.6-.45-.6-.75.1-1.1 1.2-1.05 1.8" opacity=".4"/><path fill="#b45f00" d="M259.939 88.543c-1.901 0-3.801-.95-5.651-.5-1.05.25-1.95.95-3.001.85-.85-.05-1.65-.55-2.5-.4 3.901.85 5.151 1.15 9.151 2.05.651-.75 1.351-1.5 2.001-2M261.089 87.993c-.95-.85 0-2.95-1.5-3.1-2.151.6.55 2.4.7 3.45.3-.15.65-.2.95-.05z" opacity=".36"/><path fill="#464558" d="M94.565 87.593c-16.753 3-21.203 12.852-28.605 26.454-3.25 4.6-5.7 9.551-5.2 15.302-2.35 37.555-20.203 37.105-5.251 59.959 3.6 6.601 8.801 5.75 15.152 5.95 3.1.601 6.301 2.951 9.151 1.551 1.25-12.702 3.751-27.104 14.653-35.105 1.8-11.302 16.002-45.857.1-74.111"/><path fill="#2b2b37" d="M91.464 158.953c-6.55-5.901-20.703 4.701-23.803-6.001-.5-3.55 1.3-6.901 2.8-10.001 3.25-6.701 1.05-13.952.3-20.953-1.55-13.552 6.651-27.604 18.953-33.155-12.652 2.85-18.053 14.852-23.754 25.154-3.25 4.6-5.7 9.551-5.2 15.302-2.35 37.555-20.203 37.105-5.251 59.959 3.6 6.6 8.801 5.75 15.152 5.95 3.1.6 6.301 2.951 9.151 1.551 1.25-12.552 3.651-26.654 14.203-34.805-.7-1.051-1.5-2.151-2.55-3.001" opacity=".29"/><path fill="#2b2b37" d="M63.21 150.152c4.4-6.401.9-13.652-2.45-19.603-.7 16.352-5.651 25.854-8.752 33.055 3.5-4.551 8.402-8.352 11.202-13.452M91.464 158.953c-.3-.25-.6-.45-.95-.65-17.052 2.95-22.253 22.503-26.354 36.905 7.301-1.3 11.152 3.251 15.652 1.651 1.25-12.552 3.651-26.654 14.203-34.805-.7-1.151-1.5-2.251-2.55-3.101" opacity=".29"/><path fill="#2b2b37" d="M91.464 158.953c-.3-.25-.6-.45-.95-.65-6.85 1.35-13.652 10.251-16.052 16.552-2.1 6.801-1.4 14.202-1.05 21.253 2.2.801 4.35 1.701 6.4.701 1.25-12.552 3.651-26.654 14.203-34.805-.7-1.101-1.5-2.201-2.55-3.051" opacity=".29"/><path fill="#d8d8d8" d="M87.364 135.85c-1 6.751 1.55 17.252 8.75 19.603 1.101-4.551 8.202-28.054 4.401-52.958-4.85-2.8-12.301-2.55-15.652 2.4-5.45 9.602 7.001 19.303 2.5 30.955M80.112 156.103c1.7-.05 3.3-.701 5.101-.701-2.65-.65-6.7-2.15-9.501-1.45-2.1.55-2.65 2.451 4.4 2.151" opacity=".08"/><path fill="#d58500" d="M167.625 200.659c-6.401-5.901-12.852-11.802-19.253-17.702 4.401 1.4 12.252.4 12.802-5.201-.05-.3.05-.4-.25-.4-3.65.15-7.201-1.05-10.151-3.151-2.351-1.85-5.201-2.8-8.201-2.25-7.001.45-14.052 1.15-21.053 1.7-3.751.55-9.002-.8-8.352 4.851.25 3.05-.95 19.003 2.951 18.603 4.85.75 6.751 6.001 10.501 8.551 6.051 3.2 14.802 10.251 21.203 4.601 1.951-.25 4.751-3.001 4.951-4.551.1-.2-.1.2 0 0 2.3-.25 4.401-1.2 5.851-3.101.2-.25.2-.45.5-.35 1.8.801 3.301 2.001 5.101 2.751 4.05 2 6.701-.8 3.4-4.351"/><path fill="#b45f00" d="M124.869 204.16c14.352-2.051 19.903-11.502 22.203-13.552-.25-.15-20.753-13.502-24.203-16.553-2.551.35-5.351-.5-8.351.45-3.001 3.201.55 22.704 1.85 22.704 3.7.55 5.801 4.25 8.501 6.951" opacity=".36"/><path fill="#b45f00" d="M128.47 202.509c6-1.9 11.601-5.55 15.252-10.701-9.902-1.3-17.503-9.502-21.553-18.203-2.351.25-7.001 23.354-6.051 23.454 3.35.45 5.401 3.35 7.501 5.7 1.6.1 3.2.201 4.851-.25M167.625 200.659c-4.1-3.8-8.201-7.551-12.301-11.352-.2 3.301-2.901 5.901-5.651 6.952-.25 2.6-2.701 5.15-5.251 5.45-1 2.501-3.651 4.701-6.351 5.051-.45.05-.55.1-.9.4-1.3 1.3-2.951 1.65-4.701 1.7 4.651 2.251 10.902 5.751 15.302 1.301 1.951-.251 4.751-3.001 4.951-4.551-.05.1-.05.05 0-.05v.05c2.3-.25 4.401-1.2 5.851-3.101.2-.25.2-.45.5-.35 1.8.8 3.301 2.001 5.101 2.751 4.1 2.05 6.751-.7 3.45-4.251" opacity=".36"/><path fill="#e2a040" d="M136.321 174.605c2.4.15 4.75-.75 6.201-2.7-4.301.25-8.602.65-12.852 1 1.9 1.4 4.35 1.65 6.651 1.7M149.423 192.308c.5.85 1.6 1.8 2.65 1.45 1.5-.5 1.55-2.2 1-3.4-1.7-3.601-4.851-.15-3.65 1.95M138.971 177.756c.45-.2 1-.65.85-1.25-.15-.75-1-.9-1.6-.65-1.85.6-.35 2.35.75 1.9M146.322 196.009c-.85-.601-1.9 0-2.2.6-.55 1.1 1.4 3.15 2.35 2.2.95-.85.85-2.15-.15-2.8M137.021 203.56c.45 1.25 1.95 1.7 3.05 1.05s1.55-2.101.85-3.251c-1.4-2.45-4.65.3-3.9 2.201M129.67 205.31c.35.65 1.4.45 1.95.25.4-.15 1.35-.75.8-1.3-.5-.55-3.25.1-2.75 1.05" opacity=".38"/><path fill="#b45f00" d="M120.668 199.559c7.351-8.451 4.601-22.253 5.901-26.354-3.8.4-7.651.55-11.451 1-1.901.45-1.901 15.853-.951 21.503.751 2.051 4.651 1.201 6.501 3.851M161.174 177.756c0-.2.05-.3-.1-.35 0 .75-.95 1.45-1.55 1.75-12.052 5.901-9.351-4.2-16.852-3.8-5.351 1.3 5.801 6.951 6.401 7.751 4.2 1.35 11.651 0 12.101-5.351" opacity=".36"/><path fill="#b45f00" d="M155.173 178.456c.95.95 2.151 1.2 3.301.9-1.6-.1-2.951-1.25-3.101-2.8-.35-.1-.7-.25-1.05-.35.05.85.25 1.65.85 2.25M146.372 179.606c-2.6-1.1-2.25-3.45-3.75-4.001-4.301 1.201 5.551 6.601 6.801 7.652-1.1-1.051-1.651-3.051-3.051-3.651M143.622 191.158c-.4.2-.4.8-.1 1.15s.75.45 1.2.6c2.85 1.05 4.701 3.601 7.001 5.551 1.35 1.1 2.85 2 4.351 2.85.3.2.65.35 1 .45.7.2 1.55 0 2.1.5-.05-.35-.4-.55-.65-.7-2.2-1.25-4.501-2.35-6.401-4.05-1.35-1.2-2.45-2.701-4.001-3.701-1.05-.65-2.3-1.1-3.2-2-.4-.35-.85-.85-1.3-.65M140.471 197.609c-.35-.15-.75-.3-1.15-.2s-.7.55-.55.9c.2.45.8.45 1.3.5 1.3.15 2.601 1.85 3.551 2.75 2.4 2.301 5.551 3.801 8.851 4.251.15-.25-.1-.5-.35-.65-1.85-1-3.701-1.901-5.651-2.601-.45-.2-.9-.35-1.3-.6-.65-.45-1.05-1.1-1.55-1.7-.7-.85-2.051-2.2-3.151-2.65M135.571 206.06c.75.3 1.35.85 2.05 1.3 1.7 1.15 3.801 1.65 5.851 2.1 1.05.25 2.95 1.201 4.35.801-2.15-.3-4.85-1.701-6.751-2.451-1.7-.65-3.75-.75-5-2.1-.55-.55-1.05-1.35-1.851-1.3-.35.3-.2.85.15 1.1.351.35.801.4 1.201.55M162.925 202.709c.1.05.15-.15.2-.25.05-.65.75-1.15 1.4-1.15s1.3.35 1.85.7c.5.3.95.55 1.45.8-.2-.45-.45-.9-.75-1.3-.45-.55-1.1-.95-1.75-1.1-.7-.15-1.45.1-1.9.65-.4.55-.5 1.15-.5 1.65" opacity=".36"/><path fill="#626278" d="M88.014 159.553c-12.552 5.751-12.252 20.353-12.652 32.405-.4 12.952 10.601 5.701 45.006 7.851-1.65-8.901-2.5-19.003 3.001-26.204-27.954-7.951-29.955-16.552-35.355-14.052"/><path fill="#575771" d="M123.419 173.555c-5.851-1.65-10.552-3.35-14.402-4.951-8.652 7.252-21.504 9.052-31.605 3.951-4.95 34.705-6.45 25.654 43.056 27.254-1.7-8.951-2.55-19.053 2.951-26.254"/><path fill="#2b2b37" d="M123.419 173.555c-1.15-.35-2.25-.65-3.301-1-5.8 13.602-31.154 19.503-44.756 19.803-.15 12.252 11.051 5.201 45.006 7.351-1.6-8.851-2.45-18.953 3.051-26.154" opacity=".25"/><path fill="#2b2b37" d="M111.467 193.008c-5.501-.05-9.651 4.101-14.252 6.501 6.151-.2 13.802-.35 23.153.25-.05-.4-5.15-6.651-8.901-6.751" opacity=".25"/><path fill="#323147" d="M109.767 191.808c-15.152-7.951-19.453-21.453-19.453-21.553-.05-.2.05-.4.25-.5.2-.05.4.05.5.25.05.15 4.25 13.302 19.103 21.103.2.1.25.35.15.5-.2.4-.5.25-.55.2"/><path fill="#323147" d="M83.513 197.059c-.1 0-.15-.05-.2-.1-.2-.15-.25-.35-.1-.55.1-.15.1-.15 1.75-1.051 15.903-8.701 25.454-15.652 28.354-20.653.1-.2.35-.25.55-.15s.25.35.15.55c-4.5 7.752-22.703 17.703-28.654 20.954-.75.4-1.4.75-1.5.85-.2.1-.25.15-.35.15"/><path fill="#575771" d="m121.519 173.255 21.653 17.353s-13.352 17.952-22.804 9.201c-9.401-8.851 1.151-26.554 1.151-26.554"/><path fill="#2b2b37" d="M140.571 189.258c-3.1 1.3-6.801 1.3-9.501 3.35-5.051 3.851-10.201 5.051-14.452-.3 4.601 20.903 24.603 2.35 26.554-1.7l-2.001-1.6c-.2.05-.4.15-.6.25" opacity=".25"/><path fill="#a4a4a4" d="M127.769 185.607c2.401 1.4 9.002.35 9.452.2l-12.302-9.801c-1.05 3.5-.55 7.601 2.85 9.601" opacity=".14"/><path fill="#d58500" d="M137.471 78.591c10.901 11.252 29.354-2.4 33.555-14.252 3.4-5.6.5-11.751 2.9-17.752 6.501-46.107-72.06-21.353-36.455 32.004"/><path fill="#b45f00" d="M163.325 29.984c1 .5 8.901 10.352 2.7 12.552-10.952.35-7.201 18.603-5.501 21.153 1.75.2 4.051-4.1 5.551-5.05 1.2-.75 2.4-1.85 2.4-3.251-1.4-.2-2.85.1-4.2-.1-2.151-.5-4.701-2.05-1.15-3.3-1.501-1.5 3.85-6.801 6.601-5.101-.401-1.4-4.401.15-3.351-1.7 5.451-1.15 7.551.75 7.451-6.851-.1-6.501-4.451-8.852-10.401-8.952z" opacity=".36"/><path fill="#b45f00" d="M163.175 29.334c5.15 3.05 7.901 9.052 8.151 14.902-.15-2.15-10.152-2.65-9.352 3.7 10.202-2.8 10.702.601 8.952 7.902.8.25 3.65-3.15 4.25-8.801 1.701-15.452-12.001-17.703-12.001-17.703" opacity=".36"/><path fill="#b45f00" d="M165.725 48.187c-4.101-4.7-7.051 6.901-5.151 5.7 5.601-5.85 8.001 1.601 8.201-1.3-.25-1.2-1.3-1.75-2.35-2.1-.9-.5-.2-1.35-.55-2.1-.05 0-.1-.1-.15-.2M153.623 48.637c1.8 1.7 1.55 4 1.5 6.251-.15 3 .8 6.701-.05 9.401-3.25.55-11.851-3.3-9.051-7.5 1.6-1.4 5.751-1.65 4.201-4.801-.6-1.1-2.101-1.8-2.001-3.05.6-2.251 4.051-1.751 5.401-.3" opacity=".36"/><path fill="#b45f00" d="M154.123 56.988c1.45 1.25 3.601 1.65 5.001.2.7-.7-.5-3.1 1.3-2.55 6.651 2.55 4.451.7 8.201.95.55 0-6.551 7.551-11.101 8.451-5.701 1-18.253-2.7-19.653-9 8.101 3.2 9.201-3.301 16.252 1.95" opacity=".36"/><path fill="#b45f00" d="M171.826 51.187c-1.9 4.101-11.552 7.552-15.052 7.652-7.901.3-17.503-6.551-17.403-7.552.55-.05 1.15-.1 1.7-.1-8.551-9.2 7.401-13.752 11.252-3.75 1.15.55 2.95-3.4.3-7.601-.75-1.25-4.001-7.501-.5-9.102 1.15-.5 1.15-.5 10.602-1.6-1.051-4.55-14.803-1.55-18.053-.2-17.203 6.951-17.703 23.954-15.052 27.854 3.4 3.85 40.856 9.002 40.856 9.002l3.4-14.903c0-.05-.15-3.8-2.05.3" opacity=".36"/><path fill="#b45f00" d="M138.321 43.036c5.551-3.85 9.851-1.7 13.102 3.55 1.1 1.6 2.75.05 2.05-1.45-.5-1.9-2-3.4-3.2-4.9-5.601-6.751-.65-11.702 6.551-13.352-9.052-.2-36.706 15.702-20.253 34.005 1.05 1.15-2.351-14.402 1.75-17.853" opacity=".36"/><path fill="#b45f00" d="M146.822 53.138c-2.5.2-3.25-1.05-3.85-.7-.4 1 2.65 2.1 3.5 2.05 1-.2 1.15-1.5.35-1.35M166.225 54.938c-1.35.4-1.5.45-1.65.45-.55 0-2.651-1.05-2.151.2 1.101.6 2.551 1 3.801.7.9-.4.8-1.65 0-1.35M150.023 49.537c-.55-.75-1.301-1.3-2.101-1.8-.55-.35-1.15-.7-1.8-.9-1.6-.5-3.4-.15-5.051.3l.6 1.15c2.201-.6 4.601-.25 6.501.95.6.4 1.201.85 1.551 1.5.3.5.45 1.2 1.05 1.45.2-.95-.2-1.9-.75-2.65M156.424 36.185c6.601.55 14.852 2.5 17.702 9.202 4.801-32.355-39.656-27.604-44.706-1.85 7.001-6.502 17.752-8.202 27.004-7.352" opacity=".36"/><path fill="#e2a040" d="M147.722 45.737c.05 1 1.701 2.6 2.701 2.5.8-.6-1.1-1.5-1.401-1.85s-.8-1.05-1.3-.65M167.875 47.987c-.65.65 1.75 1.6 2.15 1.2.401-.95-1.45-1.85-2.15-1.2M155.473 44.086c-1.9.45.301 3.15 1.601 2.65 1.9-.7-.3-3-1.601-2.65M144.422 54.588c-.1.6.85.85 1.3.6.85-.65-1.15-1.3-1.3-.6" opacity=".38"/><path fill="#323147" d="M140.871 43.036c5.901-2.4 5.801 1.3 9.452 3.8 1.65 1.151 3.55.851 2.35-.7-3.6-4.75-5.301-7.25-9.751-4.6-.7.4-1.401.95-2.051 1.5M162.525 48.437c.05 0 .1.05.1.05 1.2.2 2.05-.45 3.1-.9 3.15-1.35 4.351-.25 6.451 1.4-.65-1.95-2-3.6-3.951-4.35-2.75-1.05-3.2.55-5.95 2.5-.501.35-.651 1.1.25 1.3M145.472 52.337c.95.35 1.9 0 2.2-.8s-.25-1.7-1.15-2.05c-.95-.35-1.9 0-2.2.8s.25 1.7 1.15 2.05"/><path fill="#323147" d="M150.123 52.288c0-.05-1.101-2.1-3.151-3.2s-5.301-.151-5.351-.151l-.35.1-.85-2.85c-.05-.2.05-.4.25-.5.2-.05.4.05.5.25l.65 2.15c1.001-.25 3.701-.75 5.601.3 2.301 1.25 3.451 3.45 3.501 3.5.1.2.05.4-.15.5-.35.2-.6.05-.65-.1"/><path fill="#fff" d="M145.722 51.688c0 .25.25.4.5.4.1 0 .2 0 .25-.1.2-.25-.15-.65-.4-.65-.2 0-.35.25-.35.35"/><path fill="#323147" d="M164.825 54.988c.9-.05 1.55-.7 1.5-1.45s-.8-1.3-1.7-1.2c-.9.05-1.55.7-1.5 1.45s.8 1.3 1.7 1.2"/><path fill="#323147" d="M160.324 54.338c-.2-.1-.25-.35-.15-.55.05-.05 2.25-3.55 5.851-2.35 1.1.35 1.8 1.15 2.15 1.6l1.7-.85c.2-.1.4-.05.501.15s.05.4-.151.5l-2.35 1.2-.2-.3s-.7-1.15-1.95-1.55c-3.001-1-4.901 1.95-4.951 2.05.05.05-.2.2-.45.1"/><path fill="#fff" d="M164.025 54.538c.05.2.35.3.55.25.1-.05.2-.05.2-.15.15-.25-.3-.6-.55-.55-.15.1-.25.3-.2.45"/><path fill="#323147" d="M174.376 50.087c-3.95 5.45-11.251 7.851-17.902 9.201-8.752-.6-10.452-2.45-13.452-3.25-10.802-2.9-9.452-5.95-15.103-8.051-7.551 38.405 25.254 55.808 44.907 17.502 1.7-3.45.95-11.201 1.55-15.402"/><path fill="#21212b" d="M174.376 50.087c-6.201 6.901-3.85 3.25-6.001 12.002-2.7 11.002-11.851 20.353-17.352 21.353 5.2 2 10.401-2.1 13.802-6 3.75-4.351 8.601-9.952 9.551-27.355"/><path fill="#2b2b37" d="M151.823 84.892c1.7-.55 3.4-1.2 4.951-2.05.65-.35 1.3-.7 1.9-1.05-8.051.8-10.102-4.751-7.451-5.701 2.45-.65 8.401.95 7.701-3.25-1.45-2.701-5.551-2.5-8.051-1.65-.55.25-1.45.85-1.901 0-.35-3.701 5.201-1.701 6.801-3.751.25-.6-.55-1.1-.15-1.7 3.751-2.25 1.201-2.701 1.201-6.451-11.502-1.05-11.952-2.851-13.252-3.101-9.102-1.85-11.802-6.901-15.653-8.201-4.55 15.952 3.551 43.356 23.904 36.905" opacity=".55"/><path fill="#2b2b37" d="M141.121 55.538s-2.45-.8-3.4-1.25c-4.051-1.45-6.001-4.95-9.852-6.251-5.25 17.453 5.751 46.057 27.204 35.705-.3-.1-18.902-5.7-13.952-28.204" opacity=".55"/><path fill="#21212b" d="M158.324 81.192c-18.053 8.75-25.754-14.252-23.354-28.404-2.75-1.75-3.5-3.451-7.051-4.801-6.1 23.503 10.702 50.657 34.555 31.154-1.4.8-2.75 1.45-4.15 2.05"/><path fill="#464558" d="M157.174 66.39c-.7.5.2.85.65.7 2.85-.45 2.9-4.45 1.65-6.451-.15-.25-.5-.45-.7-.25-.25.9.55 1.95.35 2.95-.2 1.25-.6 2.75-1.95 3.05M149.323 70.64c3.55-2 9.401.35 9.401.3-2.65-4.35-9.702-1.55-9.401-.3M155.523 79.742c.2-1.95-2.75-1.85-4-1.55-1.5 2.1 3 3.55 4 1.55" opacity=".31"/><path fill="#2b2b37" d="M171.126 54.438c-2.451 2.15-5.851 2.9-8.501 4.8-1.001.75-.451 2.2.8 2.05 3.2-1.25 5.6-4.3 7.701-6.85M171.526 55.038c-1.45 2.85-4.301 4.4-6.651 6.3-.85.801.2 1.601 1.05 1.151 2.9-1.1 4.651-4.7 5.601-7.451M150.373 68.24c.95-.15 4.7-.15 4.4-1.5-.4-1.5-6.551.65-4.4 1.5M152.423 61.789c-5.701.85-12.402-2.15-15.702-6.951 3 2.1 6.251 3.75 9.701 4.9 1.05.4 8.851.1 6.001 2.05M156.124 62.139c-.751-.3-2.001.85-1.351 1.9 1.051 1.15 2.801-1.65 1.351-1.9" opacity=".55"/><path fill="#464558" d="M177.227 26.184c-2.501-8.251-8.552-15.853-15.003-21.503-12.901-8.952-31.954-1.75-38.855 11.551-4.801 8.802-4.951 19.603-9.702 28.455-9.451 12.401-5.75 30.904 6.051 40.455 13.352 10.602 32.755 3.75 46.307-3.35 3.351-1.95 6.651-4.35 8.651-7.651 2.601-4.25 2.801-9.552 2.851-14.552-.15-11.102 1.1-22.404-.3-33.405m-4.051 20.203c-2.55 11.951-2.2 10.201-2.85 15.152-1.151 8.351-8.902 20.803-21.253 23.403-24.804 5.101-22.554-47.307.2-54.558 15.802-4.75 26.003 6.151 23.903 16.003"/><path fill="#323147" d="M154.023 83.292c-12.202 6.001-21.403-1.4-22.103-15.102-17.403-7.001-19.253-21.053-19.353-21.503-10.301 14.852-.95 38.355 16.153 43.156 9.151 1.8 18.952-.5 27.654-3.45a11.8 11.8 0 0 0-2.351-3.1" opacity=".32"/><path fill="#323147" d="M177.226 26.184c-2.5-8.251-8.551-15.853-15.002-21.503C152.123-2.42 137.471.68 128.969 8.93c7.952 5.651 13.052 14.602 14.903 24.054 13.752-9.702 32.854 1.05 29.254 13.352-4.601 19.403-1.5 26.054-19.103 36.905.95.9 1.7 1.95 2.35 3.1 6.701-2.8 14.203-6 18.303-12.251 2.601-4.25 2.801-9.552 2.851-14.552-.15-11.052 1.05-22.304-.301-33.355" opacity=".32"/><path fill="#323147" d="M111.967 69.24c-1.95-11.102 6.701-18.253 11.502-27.054 3.1-6.65 3.2-14.302 6.401-20.953 6.201-13.952 24.103-18.553 37.255-11.852-7.051-9.651-20.903-10.851-31.004-5.5-16.403 7.3-15.803 26.753-22.404 40.806-7.801 10.351-6.751 25.053 1.001 35.155-1.401-3.4-2.401-6.951-2.751-10.602" opacity=".32"/><path fill="#575770" d="M174.726 74.09c4.801-9.3 2.05-39.905-2-49.106-2.25-5.151-8.301-7.051-13.602-7.602-8.851-.85-15.102 1-24.204 14.053-7.351 11.001-11.251 24.153-13.452 37.105-1.3 9.451 6.001 17.203 13.452 21.903 14.152-.65 30.705-4.75 39.806-16.352m-25.654 10.852c-24.803 5.101-22.553-47.306.2-54.558 15.803-4.8 25.954 6.151 23.904 15.953-4.501 19.853-2.75 31.154-24.104 38.605" opacity=".43"/><path fill="#323147" d="M161.224 22.683c-1.9-12.902-.45-7.3-7.251-15.752-1.8-2.2-2.15-4.55-2.25-5-.15-.65-1.1-.4-1 .3-.2 1.95.9 3.05 2 4.6 1.65 2.25 2.5 4.2 5.001 6.5 1.5 1.301 1.75 12.853 3.5 9.352" opacity=".32"/><path fill="#575770" d="M166.075 76.041c1.5 2.45 4.751.05 6.051-1.45 3.6-5.851-6.651-5.4-6.051 1.45M127.869 73.74c-5.4-.05 2.751 8.752 3.151 4.351 0-1.6-1.45-4.15-3.151-4.35M169.375 33.185c-2.85-2.3-5.3-8.502-9.651-6.601-8.551 3.5-8.901-2.55-15.152 5.95 9.401-6.2 23.453-2.9 26.904 4.401-.45-1.3-1.201-2.6-2.101-3.75" opacity=".21"/></g><defs><radialGradient id="b" cx="0" cy="0" r="1" gradientTransform="rotate(90 32.783 162.417)scale(65.3125)" gradientUnits="userSpaceOnUse"><stop stop-color="#ffc700" stop-opacity=".59"/><stop offset="1" stop-color="#fff" stop-opacity="0"/></radialGradient><clipPath id="a"><path fill="#fff" d="M.5 0h305v212.36H.5z"/></clipPath></defs></svg>