<svg width="196" height="196" viewBox="0 0 196 196" fill="none" xmlns="http://www.w3.org/2000/svg">
    <g clip-path="url(#clip0_13953_8036)">
        <path d="M59.0674 140.614C59.0107 141.212 58.8487 142.064 58.4009 142.334C52.6764 144.213 45.0522 144.586 40.6739 141.167C40.6739 141.163 40.6739 141.153 40.6726 141.148C36.4357 138.046 34.3384 132.99 31.5908 128.674C37.5874 131.912 50.3867 137.862 57.8465 128.987C58.2719 131.756 59.3651 137.255 59.068 140.614H59.0674Z" fill="#575770" />
        <path opacity="0.48" d="M59.0674 140.614C59.0107 141.212 58.8487 142.064 58.4009 142.334C52.6764 144.213 45.0522 144.586 40.6739 141.167C40.6739 141.163 40.6739 141.153 40.6726 141.148C36.4357 138.046 34.3384 132.99 31.5908 128.674C37.5874 131.912 50.3867 137.862 57.8465 128.987C58.2719 131.756 59.3651 137.255 59.068 140.614H59.0674Z" fill="#2B2B37" />
        <path opacity="0.6" d="M59.0671 140.614C59.011 141.214 58.8478 142.063 58.4006 142.334C54.049 143.458 44.5187 146.44 45.0905 138.601C46.0797 130.96 37.1792 129.079 37.6351 128.806C43.5813 125.25 51.4179 137.19 57.8462 128.987C58.2716 131.756 59.3648 137.255 59.0677 140.614H59.0671Z" fill="#2B2B37" />
        <path d="M18.4478 113.254C18.3842 113.08 18.4347 112.86 18.5643 112.717C18.5966 112.681 18.9511 112.412 18.7162 112.614C18.8664 112.477 19.0495 112.461 19.2152 112.508C19.7602 112.358 20.3252 112.336 20.831 112.087C21.1698 111.913 21.4775 111.652 21.7734 111.433C22.1415 111.155 22.5321 110.917 22.8928 110.627C23.5493 110.117 24.1049 109.49 24.498 108.76C24.8549 108.122 25.1159 107.468 25.565 106.9C25.4018 106.363 26.1997 105.948 26.4719 106.494C27.2281 107.99 39.4991 114.657 39.6387 114.718C40.1812 114.937 40.7375 115.148 41.1349 115.606C41.5983 116.148 41.5809 116.893 41.526 117.571C41.0084 122.949 34.4599 128.389 31.4943 127.997C28.5841 127.61 19.8873 115.065 18.5705 113.535C18.4914 113.457 18.4528 113.357 18.4472 113.254H18.4478Z" fill="#21212B" />
        <path d="M57.3603 91.9194C57.2581 108.458 36.6852 134.149 34.857 132.839H34.8545C31.7275 130.607 28.4249 128.255 25.2974 126.026V126.023L23.8174 124.971C27.7155 123.435 29.3549 114.537 30.6941 110.553C32.166 105.441 33.7065 100.31 35.7589 95.3702H35.7614C39.0683 87.285 44.2508 78.9395 52.0887 73.5259V73.5234C52.4656 73.258 52.8511 72.9983 53.2448 72.7441C53.8322 72.9323 55.1353 73.3496 55.7351 73.5396C55.8361 74.0335 55.9395 74.5393 56.0397 75.0333L56.0285 75.0445H56.026C56.1382 75.7147 56.2403 76.3856 56.3418 77.0577C56.3886 77.3965 56.4371 77.7323 56.4814 78.0687C56.6626 79.4185 56.819 80.7745 56.9423 82.1281C57.2469 85.3827 57.3821 88.6523 57.3609 91.9194H57.3603Z" fill="#454358" />
        <path opacity="0.29" d="M57.3603 91.9194C57.2799 104.068 55.0082 116.205 50.6542 127.548H50.6517C50.0469 129.146 49.3847 130.726 48.6946 132.289C47.5335 134.897 31.7842 130.636 25.2974 126.026V126.023L23.8174 124.971C27.6202 123.414 29.1624 115.078 30.4986 111.167C34.5947 96.7387 39.7454 81.5151 53.2448 72.7441C53.8322 72.9323 55.1353 73.3496 55.7352 73.5396C55.8361 74.0335 55.9395 74.5393 56.0397 75.0333L56.0285 75.0445H56.026C56.9573 80.6175 57.3989 86.2703 57.3609 91.9194H57.3603Z" fill="#2B2B37" />
        <path opacity="0.29" d="M56.1028 74.9822C55.9508 74.5393 55.9003 74.0335 55.749 73.5408L53.3589 72.7441C52.1194 74.1855 50.4251 76.0829 49.6789 77.2209C38.8286 94.343 49.426 98.7818 37.8301 119.735C35.9397 123.161 34.122 127.406 31.2866 130.252C31.2866 130.252 59.7828 97.0869 56.1034 74.9828L56.1028 74.9822Z" fill="#2B2B37" />
        <path opacity="0.48" d="M53.2571 72.7436C37.8293 89.7567 47.2587 114.075 47.7308 134.416C56.6214 115.649 59.6487 94.0129 55.7861 73.5776L53.2441 72.7305L53.2565 72.7429L53.2571 72.7436Z" fill="#2B2B37" />
        <path d="M47.0862 77.9155C45.1789 79.9935 37.7153 88.876 38.5756 91.6105C38.7917 92.2739 39.7198 92.5174 40.1689 91.9519C43.7275 89.2715 48.4703 82.4371 47.0862 77.9155Z" fill="#464558" />
        <path opacity="0.14" d="M122.045 89.72C122.119 89.5344 123.411 89.4976 123.198 90.171C123.089 90.5678 122.479 90.6712 122.149 90.1959C122.037 90.0694 121.967 89.8676 122.045 89.72Z" fill="#D8D8D8" />
        <path d="M131.159 161.467C135.373 162.577 139.692 163.073 143.98 163.952C143.465 162.03 143.617 159.941 144.443 158.112C126.001 157.66 112.498 143.558 124.934 127.492C125.33 126.981 125.75 126.47 126.199 125.954C132.342 118.581 132.508 108.551 130.538 99.5774C128.669 87.4141 115.12 86.4393 115.522 76.1428L115.501 76.1571C115.416 76.2163 115.26 76.4979 115.101 76.8205C115.051 76.9177 115.002 77.0155 114.955 77.1183C114.935 77.1563 114.919 77.1905 114.904 77.2248C114.835 77.3737 114.769 77.5144 114.716 77.6297C114.672 77.7237 114.634 77.8041 114.603 77.8732C114.581 77.9199 114.562 77.9492 114.547 77.9829C115.743 91.7906 130.802 97.6931 130.681 110.6C130.276 114.769 127.865 118.69 125.297 121.958C122.433 125.229 120.256 128.619 118.763 131.979C112.921 145.067 117.322 157.725 131.168 161.469L131.159 161.468L131.159 161.467Z" fill="#74A352" />
        <path d="M118.037 133.885C120.239 131.859 122.705 129.772 124.934 127.492C125.331 126.98 125.75 126.469 126.199 125.953C132.343 118.58 132.508 108.551 130.539 99.5762C128.991 89.532 119.486 87.1133 116.446 80.789C116.338 80.5666 116.24 80.3362 116.152 80.1082C116.145 80.0976 116.134 80.0814 116.132 80.0671C116.12 80.0515 116.12 80.0285 116.109 80.0123C115.681 78.8686 115.459 77.6042 115.516 76.1541L115.494 76.169C115.362 76.3391 115.222 76.577 115.094 76.8311C115.043 76.9289 114.994 77.0267 114.948 77.1289C114.928 77.1669 114.912 77.2011 114.897 77.2348C114.825 77.3793 114.763 77.5157 114.709 77.6403C114.665 77.7343 114.627 77.8147 114.596 77.8832C114.574 77.9305 114.555 77.9592 114.54 77.9935C115.506 89.1402 125.506 95.1405 129.265 103.826C130.16 105.898 130.699 108.125 130.683 110.612C130.279 114.781 127.867 118.702 125.299 121.971C122.436 125.242 120.258 128.631 118.765 131.991C118.524 132.613 118.291 133.246 118.054 133.897L118.038 133.885L118.037 133.885Z" fill="#568040" />
        <path d="M119.267 144.816C119.467 142.85 119.72 140.738 120.103 138.653C119.655 144.104 122.116 149.433 127.307 152.917C131.359 158.611 137.306 161.262 143.685 162.267C143.713 162.836 143.801 163.402 143.938 163.972C132.359 161.897 116.96 160.767 119.251 144.803L119.262 144.818L119.267 144.814V144.816Z" fill="#568040" />
        <path opacity="0.49" d="M134.86 158.498C133.514 157.702 130.993 156.041 129.217 154.119C133.817 156.685 139.124 157.88 144.42 158.159C143.966 159.195 143.713 160.296 143.67 161.416C140.573 160.908 137.641 160.174 134.855 158.493L134.859 158.498H134.86Z" fill="#AED888" />
        <path d="M129.253 103.81C128.96 102.321 126.585 97.6489 123.03 92.8906C120.145 89.0293 117.374 82.9324 116.436 80.7878C116.293 80.457 116.191 80.2222 116.143 80.107C116.136 80.0964 116.124 80.0802 116.122 80.0659C116.105 80.031 116.099 80.011 116.099 80.011C115.672 78.8674 115.45 77.6029 115.505 76.1528L115.484 76.1672C115.352 76.3378 115.212 76.5758 115.084 76.8305C115.034 76.9277 114.985 77.0255 114.938 77.1277C114.918 77.1657 114.902 77.1999 114.887 77.2342C114.815 77.3781 114.753 77.5151 114.699 77.6391C114.655 77.7331 114.617 77.8135 114.586 77.8826C114.563 77.9293 114.545 77.9586 114.53 77.9922C115.495 89.1383 125.496 95.1393 129.254 103.824L129.253 103.81Z" fill="#3E5C2E" />
        <path d="M156.37 146.155C164.426 146.009 170.037 148.607 174.331 156.136C177.014 154.326 180.092 153.113 183.29 152.602C179.355 143.381 168.347 140.011 158.363 139.494L158.353 139.501C141.313 140.228 135.528 133.89 135.716 116.13C135.84 108.107 137.155 99.4846 133.672 92.0653C130.504 85.2726 123.871 80.827 117.567 77.1414C116.367 78.1648 116.769 77.7512 115.77 78.3766C119.079 79.3016 121.845 84.75 124.278 87.3438C131.728 94.9188 134.108 100.74 133.635 108.683C133.249 116.316 130.283 124.14 131.118 131.847L131.128 131.84C132.893 148.866 145.861 147.526 156.385 146.176L156.37 146.155H156.37Z" fill="#74A352" />
        <path d="M155.095 146.227C163.204 145.467 170.3 148.477 174.362 156.113L174.365 156.119C174.577 155.972 174.773 155.882 174.98 155.729C166.153 133.998 156.564 146.76 141.191 142.366C131.88 138.22 131.193 126.325 135.704 118.308C135.7 117.578 135.689 116.861 135.697 116.126C135.829 107.922 137.189 99.0783 133.411 91.5562C130.139 85.0351 123.71 80.7421 117.547 77.1375C116.348 78.1609 116.749 77.7473 115.751 78.372C119.133 79.3425 121.744 84.7106 124.427 87.5124C140.768 103.577 130.246 113.592 131.099 131.843L131.115 131.831C132.574 147.41 144.205 148.001 155.095 146.226V146.227Z" fill="#568040" />
        <path opacity="0.49" d="M168.639 144.494C165.567 141.915 161.633 140.813 157.888 139.487C162.889 139.694 168.14 140.639 172.673 142.633C173.759 145.913 179.032 150.534 182.362 150.842C182.706 151.402 182.971 151.985 183.263 152.597C180.433 153.046 177.726 154.078 175.279 155.538C174.955 151.256 171.862 147.219 168.641 144.484L168.648 144.495L168.639 144.494Z" fill="#AED888" />
        <path opacity="0.49" d="M147.326 138.682C144.45 139.133 139.64 139.315 137.959 136.293C136.446 133.592 136.533 130.396 136.565 127.357L136.584 126.293C138.316 134.555 143.009 137.529 147.826 138.673L147.323 138.677L147.326 138.682Z" fill="#AED888" />
        <path d="M163.96 145.832C165.427 146.589 166.667 147.614 167.712 148.8C164.553 146.798 160.815 146.055 156.377 146.12C155.99 146.138 155.571 146.155 155.092 146.222C157.961 145.039 160.969 144.317 163.964 145.837L163.96 145.832Z" fill="#3E5C2E" />
        <path d="M132.955 114.415C134.087 112.834 135.355 111.02 135.92 110.344C136.108 106.224 136.214 102.043 135.509 98.0586C135.145 95.9931 134.566 93.9812 133.664 92.0545C133.584 91.8833 133.507 91.7169 133.422 91.5488L133.415 91.5388C133.333 91.3762 133.25 91.2136 133.164 91.0554C131.652 88.2206 129.534 85.8082 127.091 83.6841C126.488 83.1559 125.859 82.6451 125.217 82.1518C124.519 81.6111 123.799 81.0941 123.067 80.5839C121.686 79.6253 120.257 78.7321 118.827 77.8706C119.704 79.4229 121.3 82.3013 122.645 85.3142C123.203 86.0698 123.745 86.7587 124.272 87.3243C124.327 87.3803 124.385 87.4414 124.44 87.4975C125.704 88.7956 126.818 90.0345 127.79 91.2386C128.823 92.5099 129.689 93.7407 130.424 94.9541C130.507 95.0843 130.584 95.2182 130.662 95.3522C133.128 99.5922 133.899 103.671 133.625 108.658C133.544 110.118 133.374 111.663 133.129 113.315C133.074 113.675 133.019 114.034 132.956 114.407L132.955 114.416L132.955 114.415Z" fill="#74A352" />
        <path opacity="0.49" d="M135.509 98.0588C135.143 95.9926 134.565 93.9813 133.663 92.0541C133.583 91.8828 133.507 91.7171 133.422 91.5489L133.414 91.5383C133.333 91.3764 133.25 91.2138 133.163 91.055C131.652 88.2208 129.534 85.8083 127.091 83.6842L126.843 83.6768C126.843 83.6768 130.196 92.6352 135.514 98.0563L135.509 98.06L135.509 98.0588Z" fill="#AED888" />
        <path d="M132.954 114.415C137.132 102.901 129.942 92.8116 129.792 92.5954C127.752 89.6423 123.065 80.5929 123.065 80.5929C121.685 79.6342 120.255 78.7404 118.825 77.8789C119.702 79.4312 121.299 82.3096 122.644 85.3225C123.201 86.0787 123.744 86.767 124.271 87.3332C124.325 87.3893 124.383 87.4503 124.438 87.5064C125.703 88.8045 126.816 90.0434 127.789 91.2481C128.379 91.9732 128.917 92.6882 129.409 93.3958L129.651 93.744C129.935 94.1508 130.186 94.5557 130.43 94.9649C130.514 95.0957 130.591 95.2296 130.668 95.3636C133.134 99.603 133.906 103.682 133.631 108.669C133.55 110.129 133.38 111.673 133.136 113.326C133.08 113.686 133.025 114.045 132.963 114.418L132.954 114.417V114.415Z" fill="#568040" />
        <path d="M102.603 69.3005C104.087 67.8387 103.381 64.7158 101.026 62.3254C98.6709 59.9349 95.559 59.1821 94.0751 60.6439C92.5911 62.1057 93.2972 65.2286 95.652 67.6191C98.0069 70.0095 101.119 70.7623 102.603 69.3005Z" fill="#74A352" />
        <path d="M103.031 68.7281C102.015 70.6123 99.091 70.4585 96.4992 68.3842C93.9079 66.3106 92.631 63.1015 93.6469 61.2178C94.2667 60.068 95.5966 59.6774 97.1283 60.0181C97.0243 60.6672 97.061 61.3754 97.2622 62.0818C97.8652 64.1921 99.7146 65.4853 101.394 64.9701C101.823 64.8387 102.199 64.6014 102.512 64.2862C103.41 65.8858 103.661 67.5614 103.031 68.7287V68.7281Z" fill="#568040" />
        <path d="M116.76 93.3641C115.515 98.7322 109.175 133.941 105.014 146.764C96.8059 153.816 55.4775 155.618 51.8229 155.516C50.9596 153.156 50.4351 150.715 50.1118 148.232C49.4173 142.894 49.6565 137.367 49.4703 132.065C49.4777 129.46 49.5226 126.86 49.5805 124.257C50.6139 107.205 44.0822 87.8733 52.7859 73.12V73.1169C54.9823 70.0093 62.6632 69.3197 66.2579 66.8574H66.261C77.5429 62.3751 90.4206 63.0397 101.571 67.5912C106.658 69.2394 112.554 70.5581 116.658 74.1858L116.644 74.2001C116.66 74.245 116.676 74.2911 116.691 74.339C118.007 78.4476 116.66 91.4904 116.761 93.3635L116.76 93.3641Z" fill="#575770" />
        <path opacity="0.25" d="M117.551 93.1243C117.501 95.5978 111.696 117.137 109.148 130.525C108.326 134.613 106.566 143.3 105.013 146.763C104.372 148.184 101.069 149.419 96.6254 150.497C87.2614 152.781 53.0869 156.498 51.8224 155.516C49.1159 148.151 49.7376 139.843 49.4697 132.065C49.4778 129.46 49.5214 126.86 49.58 124.257C49.7276 121.833 49.7214 119.362 49.6273 116.864C72.1817 109.573 93.6261 90.9803 101.57 67.5918C106.51 69.1982 112.54 70.5406 116.656 74.1864L116.643 74.2007C117.855 75.434 117.601 91.3964 117.551 93.1243Z" fill="#2B2B37" />
        <path opacity="0.25" d="M116.76 93.3642C116.71 95.8377 111.741 117.082 109.235 131.152C108.413 135.241 106.566 143.3 105.013 146.763C104.372 148.185 101.069 149.419 96.6254 150.497C87.2614 152.781 53.0869 156.498 51.8224 155.516C49.1159 148.152 49.7376 139.843 49.4697 132.065C49.4741 130.635 49.489 129.207 49.5115 127.779C82.1655 116.409 96.6017 86.6861 105.922 68.9392C109.745 70.1333 113.695 71.5641 116.656 74.1865L116.642 74.2008C117.854 75.4341 116.809 91.6363 116.759 93.3642H116.76Z" fill="#2B2B37" />
        <path opacity="0.25" d="M116.76 93.3643C116.71 95.8378 111.653 116.455 109.148 130.525C108.326 134.614 106.566 143.301 105.013 146.763C104.372 148.185 53.0874 156.497 51.823 155.516C49.1495 148.241 49.7238 140.045 49.479 132.347C95.2643 122.731 102.763 85.2386 106.66 69.1716C110.248 70.3215 113.886 71.7317 116.657 74.1859L116.643 74.2003C117.855 75.4336 116.81 91.6357 116.76 93.3636L116.76 93.3643Z" fill="#2B2B37" />
        <path opacity="0.25" d="M117.333 92.4703C117.283 94.9438 110.637 122.151 109.148 130.525C108.326 134.613 106.566 143.3 105.013 146.763C104.372 148.184 101.069 149.419 96.6255 150.497C87.2615 152.781 53.087 156.498 51.8225 155.516C50.872 152.93 50.3326 150.229 50.0205 147.474C52.0219 146.668 78.8113 127.161 88.0277 116.258C98.2669 104.136 108.227 91.1622 115.976 77.1427C116.324 76.5167 116.662 75.8894 116.99 75.259C117.616 79.1534 117.377 90.9529 117.333 92.4703Z" fill="#2B2B37" />
        <path opacity="0.25" d="M116.76 93.3643C115.515 98.7324 109.175 133.942 105.014 146.764C96.8059 153.816 55.4774 155.618 51.8229 155.516C50.9596 153.157 50.4351 150.716 50.1118 148.233C53.458 147.235 81.269 135.89 89.1673 126.549C97.9408 116.162 115.314 78.4136 116.69 74.3398C118.007 78.4485 116.659 91.4913 116.76 93.3643H116.76Z" fill="#2B2B37" />
        <path opacity="0.25" d="M74.4128 65.1315C71.226 65.6248 67.9384 66.181 65.1559 67.8753C64.1568 68.4696 62.361 69.0638 60.4263 69.6711C61.4254 73.0603 62.0701 76.1959 61.5643 79.8256C61.071 83.4041 59.819 86.7428 58.2767 90.0304C56.5313 93.8114 54.3948 97.352 51.9537 100.729C51.005 101.968 50.1074 103.22 49.1214 104.459C48.818 104.851 48.4256 105.256 48.0718 105.648C48.5147 111.123 49.0709 116.599 48.9189 121.872C48.8685 123.263 48.8685 124.654 48.818 126.058C52.1057 115.448 71.4154 82.3047 95.7077 68.6091C96.8582 67.9644 97.9968 67.3695 99.1978 66.8637C90.6872 63.9299 83.3656 63.7779 74.3997 65.1184L74.4121 65.1308L74.4128 65.1315Z" fill="#2B2B37" />
        <path opacity="0.25" d="M61.5653 73.5909C63.8034 76.6768 67.0132 79.0544 70.5537 78.9535C77.6734 78.751 85.8071 75.1339 92.6864 73.49C99.0094 71.9471 106.078 70.3538 112.552 72.0487C114.095 72.4535 115.891 73.0478 117.636 73.8949C113.602 70.8602 104.586 68.7735 100.21 67.1801C91.2955 63.9934 83.784 63.7405 74.4262 65.1439C71.2395 65.6372 61.7808 69.2282 59.4917 69.9744C60.1875 71.5173 61.186 73.1107 61.5784 73.6034L61.5659 73.5909H61.5653Z" fill="#2B2B37" />
        <path d="M119.988 180.124C108.259 182.32 94.7866 183.569 80.4576 183.569C66.1285 183.569 53.2202 182.371 41.6655 180.26C44.4698 168.173 45.3088 164.762 48.7497 155.146C48.7497 155.141 48.7497 155.135 48.7547 155.13C49.8099 155.215 101.964 152.332 106.652 150.35C109.992 160.452 112.25 167.104 118.106 176.334H118.111L118.116 176.324C118.978 177.688 119.585 178.95 119.988 180.124Z" fill="#565673" />
        <path opacity="0.25" d="M119.988 180.124C108.259 182.32 94.7866 183.569 80.4576 183.569C66.1285 183.569 53.7329 182.465 41.6655 180.26C44.4698 168.172 45.3095 164.759 48.7497 155.146C48.7497 155.141 48.7497 155.135 48.7547 155.13C49.8099 155.215 101.963 152.332 106.652 150.35C109.993 160.454 112.25 167.103 118.106 176.334H118.111L118.116 176.324C118.978 177.688 119.585 178.95 119.988 180.124Z" fill="#2B2B37" />
        <path opacity="0.25" d="M119.973 180.127C111.409 181.729 101.916 182.827 91.8385 183.303C83.4369 174.869 69.5576 174.424 61.3353 182.807C56.6655 182.428 52.1508 181.913 47.8279 181.276C47.8397 179.407 47.7313 177.535 47.5619 175.688C47.2835 172.619 46.8287 168.427 45.5132 164.887C46.5553 161.299 47.4566 158.795 48.6862 155.325C48.6962 155.325 101.963 152.332 106.652 150.35C109.993 160.454 112.25 167.103 118.106 176.334C118.944 177.724 119.54 178.844 119.973 180.127Z" fill="#2B2B37" />
        <path opacity="0.25" d="M119.976 180.126C113.309 181.374 106.081 182.315 98.4508 182.895C97.3552 173.376 94.0034 164.525 89.2725 156.278C95.2018 154.744 101.013 152.735 106.652 150.35C109.993 160.454 112.249 167.101 118.106 176.334V176.324C118.967 177.697 119.543 178.884 119.976 180.126Z" fill="#272734" />
        <path opacity="0.25" d="M119.932 180.135C119.026 180.304 118.11 180.468 117.183 180.625C104.875 160.926 76.9943 168.39 62.3407 173.505C59.8815 174.402 56.8897 174.351 55.1245 172.368C55.0759 172.317 53.0085 166.179 47.8802 160.553C46.8343 159.4 49.7601 152.958 49.7489 152.953C59.6865 154.522 101.938 152.339 106.617 150.365C110.021 160.622 112.21 167.086 118.067 176.349C118.928 177.712 119.534 178.969 119.932 180.135Z" fill="#2B2B37" />
        <path opacity="0.25" d="M48.6235 156.432C51.145 157.925 53.3289 160.959 55.0418 162.704C61.738 169.672 72.1858 165.094 79.5453 161.604C83.3942 159.758 87.7133 157.469 92.2735 155.433C87.7613 156.723 48.768 155.825 48.6235 156.419V156.432V156.432Z" fill="#272734" />
        <path opacity="0.25" d="M110.407 161.264C101.887 159.039 92.7755 158.578 84.0039 159.405C78.6888 159.888 73.4284 160.685 68.0958 161.06V161.049C62.1216 161.485 53.2771 161.697 47.8804 157.563C48.1675 156.853 48.5033 155.756 48.7063 155.08C48.3992 156.101 94.6399 155.129 106.606 150.311C107.839 154.118 109.148 158.092 110.407 161.264H110.407Z" fill="#272734" />
        <path d="M103.697 153.246C90.7855 160.85 60.3415 163.842 48.3021 156.401C48.2642 156.38 48.2293 156.354 48.1919 156.331C48.3968 155.162 48.684 153.525 48.978 151.849C49.3193 149.899 49.6706 147.897 49.9136 146.52C51.6901 147.075 53.4772 147.539 55.273 147.919C68.9106 150.813 83.0497 148.923 96.8824 145.816C97.8777 145.598 102.671 144.504 104.033 144.18C104.711 146.154 103.578 152.9 103.697 153.246Z" fill="#272734" />
        <path opacity="0.25" d="M55.2725 147.919C54.6197 148.653 53.8866 149.276 53.2662 149.752C52.1948 150.586 50.9403 151.285 49.6036 151.685C49.6004 151.688 49.5936 151.688 49.5867 151.688C49.5761 151.692 49.5662 151.696 49.5562 151.699C49.5456 151.703 49.5357 151.706 49.5251 151.706C49.3438 151.76 49.1613 151.807 48.9775 151.849C49.3189 149.899 49.6702 147.897 49.9131 146.52C51.6896 147.075 53.4767 147.539 55.2725 147.919Z" fill="#454357" />
        <path d="M107.056 151.833C100.902 155.796 85.5558 159.45 76.639 160.301C76.3625 159.839 74.5131 158.342 73.8983 158.054C70.838 156.59 71.9735 154.215 70.4088 152.196C69.2098 151.161 66.2703 150.855 65.6499 149.312C70.0413 149.559 75.3359 149.271 80.3795 148.578C85.1098 147.958 104.46 143.491 105.782 143.174C106.453 145.192 106.925 151.445 107.056 151.833Z" fill="#21212B" />
        <path opacity="0.14" d="M53.0549 84.8839C56.4958 84.2492 59.211 77.7225 56.0019 75.1213C54.0161 74.1222 51.2722 78.1567 50.9309 79.8005C50.7789 80.6476 49.7492 85.4937 53.0556 84.8839H53.0549Z" fill="#D8D8D8" />
        <path opacity="0.14" d="M82.5323 80.508C79.9709 83.2102 76.8882 86.1104 75.6113 89.7138C75.4107 90.2794 75.9171 90.8562 76.5008 90.716C76.5045 90.7148 76.5089 90.7142 76.5126 90.7129C77.0421 92.1537 72.1686 95.2432 71.1769 97.3287C70.82 98.0793 70.7533 99.8259 71.8721 99.7169C77.2894 95.2837 81.8564 89.6914 85.8579 83.9857C86.7892 82.748 88.8509 78.8312 86.1488 78.6618C84.7579 78.5104 83.5563 79.5089 82.5192 80.508H82.5317H82.5323Z" fill="#D8D8D8" />
        <path d="M64.4991 65.03C64.4991 65.03 70.2273 78.9654 71.3148 80.3688C72.4149 81.7597 64.1951 89.0308 63.9933 88.8794C63.4495 88.4876 59.5676 63.6895 64.4866 65.03H64.4991Z" fill="#2B2B37" />
        <path opacity="0.25" d="M63.9554 79.6107C64.8026 79.7626 65.7512 78.814 66.143 78.1693C66.7877 77.1701 66.3959 76.2726 65.0935 76.2221C61.6034 76.0197 63.2976 79.5097 63.943 79.6113H63.9554V79.6107Z" fill="#454357" />
        <path d="M68.7859 75.033C66.8007 70.6073 64.4991 64.9795 64.4991 64.9795C62.362 64.3852 61.8562 68.8109 62.0586 73.9959C63.7024 75.2354 66.7882 75.4372 68.7734 75.0454L68.7859 75.033Z" fill="#21212B" />
        <path d="M71.3275 80.357C71.0746 80.0032 70.5309 78.966 69.8862 77.5247C67.5466 78.8651 64.6127 80.8123 62.9185 83.2023C63.3613 86.3891 63.8671 88.7791 64.0185 88.88C64.2714 89.032 72.4786 81.7603 71.34 80.3694L71.3275 80.357Z" fill="#21212B" />
        <path d="M96.3153 64.2842L94.4566 68.3561C69.2623 76.2407 55.9424 105.086 48.7305 128.195C47.1041 105.553 62.8316 83.46 78.0938 71.8212C81.2718 69.3259 84.5451 66.9508 87.9318 65.2322C90.7161 64.1683 93.3061 63.7828 96.3159 64.2836L96.3153 64.2842Z" fill="#2B2B37" />
        <path opacity="0.25" d="M68.7858 83.3412C70.5716 80.2716 70.5816 79.1174 70.5816 78.4602C68.1916 80.7998 65.7511 83.4932 63.4619 86.3766C65.5486 86.2757 67.7966 85.0417 68.7858 83.3418V83.3412Z" fill="#454357" />
        <path d="M55.8743 109.024C53.004 115.309 50.7654 121.442 49.172 126.728C49.02 127.234 48.8686 127.714 48.7291 128.195C48.6151 125.881 48.6531 123.63 48.8176 121.43C48.9185 120.077 49.0705 118.749 49.2604 117.447C49.4504 116.233 49.6653 115.057 49.9182 113.893C50.0447 113.299 50.1836 112.704 50.3356 112.123C50.4875 111.516 50.6389 110.921 50.8158 110.327C51.7134 110.63 52.6621 110.479 53.5977 109.783C54.2934 109.252 55.0646 109.087 55.8737 109.024H55.8743Z" fill="#21212B" />
        <path opacity="0.25" d="M58.6818 98.8319C56.886 98.5286 55.7984 101.424 55.8489 102.916C55.8489 103.22 55.8488 103.713 56.0008 104.016C56.0513 103.966 56.1017 103.966 56.1528 103.915C56.9495 103.321 57.5437 102.474 58.138 101.677C58.5429 101.184 60.1742 99.0848 58.6818 98.845V98.8325V98.8319Z" fill="#454357" />
        <path d="M96.3152 64.2842L94.4564 68.3561C89.0821 69.8735 84.1756 72.58 79.7244 76.095C77.7348 76.2905 75.7453 75.9754 73.8691 75.3867C76.8341 72.7475 80.1243 70.1083 83.3153 67.9892C85.1074 66.8001 86.9038 65.6291 88.6392 64.9289C91.2784 64.2045 93.5227 63.7679 96.3152 64.2842Z" fill="#21212B" />
        <path d="M96.9733 65.1052C96.3218 66.8431 94.8686 69.1796 93.4334 70.3681C90.2299 72.4392 86.2178 72.9033 82.4804 73.4028C80.0399 73.6034 77.6025 73.6053 75.21 73.9946C73.3644 74.2992 71.5804 74.8436 69.7347 74.7427C67.0096 74.4275 64.2501 73.3636 62.0289 71.7777C60.9905 71.0072 60.0867 69.9968 59.5778 68.7984C59.0054 67.6192 58.669 64.572 60.3402 64.2332C60.6417 64.2332 60.8846 64.4848 61.1363 64.6742C61.6776 65.1451 62.2388 65.6011 62.82 66.034C63.3314 66.4227 63.859 66.7852 64.3947 67.1371C68.4055 69.8106 73.2254 71.1336 78.0336 70.6297C80.9493 70.5792 82.2898 69.9819 84.9103 68.9348C87.79 68.2166 90.152 67.8547 92.3178 65.5625C92.3203 65.5625 92.3203 65.56 92.3203 65.56C92.3228 65.56 92.3228 65.5544 92.3228 65.5544C92.4835 65.4011 92.6417 65.2373 92.7949 65.0772C92.7949 65.0772 92.7958 65.0764 92.7974 65.0747C93.9062 63.8607 95.1065 62.6143 95.6422 61.0346C95.6422 61.0346 95.6447 61.0346 95.6422 61.0321C95.7282 60.8471 95.8191 60.6584 95.9244 60.479C96.0651 60.6079 96.1959 60.7556 96.3099 60.9063C96.3268 60.9231 96.3405 60.9424 96.3492 60.9593C96.3548 60.9593 96.3517 60.9617 96.3517 60.9617H96.3542C97.1814 62.0967 97.3608 63.7997 96.9739 65.1052H96.9733Z" fill="#75A152" />
        <path opacity="0.37" d="M83.9737 73.2248C81.1806 73.563 78.314 73.5157 75.5559 73.9174C73.5962 74.2009 71.6933 74.8269 69.7343 74.7185C67.0097 74.4014 64.2491 73.3406 62.0285 71.7535C61.3003 71.1966 60.6151 70.5513 60.1074 69.7771H60.1049C59.2179 68.4385 58.8025 66.6943 59.2896 65.1564L59.2759 65.1844C59.6054 64.2582 60.3099 63.8957 61.0711 64.6762C62.0764 65.5495 63.1428 66.3617 64.2597 67.0911C69.1257 70.3426 74.0547 71.1879 79.794 70.5002C81.2404 70.39 82.5815 69.8175 83.9232 69.2943C83.2492 70.5146 82.9664 72.0911 83.9737 73.2254V73.2248Z" fill="#568040" />
        <path d="M96.3033 60.9704C95.9433 62.7444 94.6994 64.2058 94.1674 65.9237C92.7889 70.008 90.4201 70.8321 86.403 71.1753C83.2798 71.939 80.0152 72.0299 76.9045 72.7893C73.8965 73.6295 70.835 73.2894 67.7355 72.7587C66.4735 72.5426 65.3386 71.6736 64.3488 72.9992C63.5166 72.6304 62.738 72.1838 62.0285 71.645C61.04 70.8795 60.0888 69.965 59.5774 68.8002C59.0467 67.6553 58.8879 66.3255 59.2647 65.1314C59.2647 65.1314 59.8403 63.2577 61.0711 64.676C61.9438 65.682 63.1429 66.3616 64.2597 67.091C69.1258 70.3425 74.0547 71.1878 79.7941 70.5001C81.5631 70.3818 83.1527 69.5502 84.7891 68.956C87.7242 68.2004 90.0413 67.9001 92.2663 65.5525C92.2688 65.5525 92.2688 65.55 92.2688 65.55C92.4121 65.4048 92.5691 65.2597 92.7017 65.109C92.7217 65.0903 92.7403 65.0766 92.7522 65.056C93.0605 64.7333 93.3614 64.4007 93.6454 64.0594H93.6479C94.4514 63.1605 95.1927 62.1826 95.577 61.0383C95.663 60.8533 95.7514 60.6609 95.8592 60.4802C96.0162 60.6335 96.1582 60.8259 96.3033 60.9717V60.9704Z" fill="#568040" />
        <path d="M92.9263 66.4215C92.4797 68.2216 91.3491 69.3497 89.4867 69.7471C86.2663 70.3326 82.7949 70.9892 79.5347 70.4933C81.4837 70.4229 83.1823 69.5334 84.9595 68.9C88.7373 68.1637 91.3093 67.1453 93.723 63.9685C93.4215 64.7702 93.1698 65.6192 92.9263 66.4215Z" fill="#3E5C2E" />
        <path d="M76.3482 71.7454C73.1876 72.8547 69.801 71.8905 66.5856 71.5429C64.6677 71.4227 62.7809 70.9113 61.3122 69.6587C59.8546 68.3008 60.2046 66.0795 59.9717 64.3348C60.3965 64.1498 60.7422 64.4581 61.0717 64.7266C65.7129 68.8869 71.8721 71.3785 78.1559 70.6952C77.6083 71.0459 76.9991 71.457 76.3476 71.7447L76.3482 71.7454Z" fill="#3E5C2E" />
        <path d="M96.6804 58.089C96.6829 58.2092 96.6829 58.3319 96.6804 58.4578C96.6748 58.8763 96.6355 59.3317 96.5577 59.8088C96.496 60.1608 96.415 60.5289 96.3091 60.9064C96.3035 60.9232 96.2979 60.94 96.2923 60.9593V60.9649C96.2923 60.9649 96.2898 60.9674 96.2898 60.9705C96.1559 61.4284 95.9859 61.9005 95.7678 62.3808C95.7454 62.4337 95.7205 62.4842 95.6981 62.5371C95.4551 63.051 95.1649 63.5699 94.8161 64.0894C94.5451 64.4967 94.2355 64.9016 93.8892 65.304C93.878 65.3177 93.8668 65.332 93.8531 65.3457C93.7247 65.4965 93.5877 65.6447 93.4482 65.7924L93.4457 65.7948C93.2949 65.9537 93.1386 66.1107 92.9742 66.2695C92.1893 67.0207 91.2512 67.7464 90.1375 68.4222C89.0181 69.1037 87.7225 69.7315 86.2232 70.2847C85.33 70.6142 84.3664 70.9157 83.3249 71.181C82.9561 71.2788 82.5793 71.3679 82.1912 71.4545C80.7224 71.7753 79.2374 71.9852 77.7662 72.0799C76.8169 72.1415 75.8732 72.1583 74.9432 72.1272C72.0175 72.035 69.2194 71.485 66.8045 70.4853C66.7964 70.4828 66.7876 70.4796 66.7795 70.474C65.5792 69.977 64.4761 69.3684 63.4962 68.6483C63.4906 68.6483 63.4882 68.6458 63.485 68.6402C63.4601 68.6265 63.4377 68.6066 63.4153 68.5898C63.0353 68.3076 62.6753 68.0092 62.3346 67.6909C62.3321 67.6909 62.3321 67.6884 62.3289 67.6853C61.3797 66.8033 60.5948 65.7867 60.0143 64.6394C59.9725 64.5559 59.9308 64.4718 59.8884 64.3852C59.886 64.374 59.8803 64.3628 59.8747 64.3516C59.5845 63.7343 59.3528 63.0815 59.1852 62.3913C59.1491 62.2431 59.1179 62.0955 59.0874 61.9447L59.4306 61.8469L59.4418 61.8444H59.4306V61.6906C59.4443 61.7186 59.4611 61.741 59.4811 61.7635C59.534 61.8251 59.6069 61.8694 59.6823 61.9447C59.8579 62.1092 60.0454 62.2686 60.2379 62.4219C60.9523 62.9968 61.7565 63.4914 62.5245 63.9548C62.5382 63.9629 62.5526 63.9716 62.5663 63.9797C62.6055 64.0022 62.6448 64.0246 62.6834 64.047C62.8422 64.1392 62.9992 64.2314 63.1524 64.3261C63.1549 64.3286 63.1605 64.3317 63.1636 64.3342C63.2222 64.3678 63.2807 64.4039 63.3368 64.4401C63.3648 64.4569 63.3953 64.4762 63.429 64.4961C63.6688 64.6412 63.9092 64.7895 64.1578 64.9259C64.1578 64.9284 64.1603 64.9284 64.1603 64.9284C64.1964 64.9452 64.23 64.9645 64.2693 64.987C64.3583 65.0343 64.4536 65.0904 64.5483 65.1433C64.5564 65.1489 64.5651 65.1545 64.5732 65.1601C64.6542 65.205 64.7321 65.2467 64.805 65.2828C64.8691 65.3302 64.9364 65.375 65.003 65.4168C65.0055 65.4192 65.0086 65.4224 65.0111 65.4224C65.198 65.5507 65.3911 65.6709 65.5836 65.7824C65.5948 65.7905 65.606 65.7961 65.6141 65.8017C65.6166 65.8017 65.6197 65.8042 65.6222 65.8073H65.6247C65.781 65.8995 65.9405 65.9861 66.0993 66.0671C66.2276 66.1368 66.3616 66.2041 66.493 66.2651C66.8032 66.4159 67.1215 66.5554 67.4423 66.6837C67.4728 66.6974 67.5008 66.7086 67.5289 66.7198C67.537 66.7223 67.5457 66.7255 67.5538 66.7311C68.0259 66.9154 68.5056 67.0799 68.9889 67.2306C69.2512 67.3141 69.5197 67.3926 69.7844 67.4679C70.0385 67.5184 70.2783 67.6218 70.53 67.6716C72.4871 68.1045 74.486 68.269 76.3404 68.2802C77.2504 68.2883 78.1243 68.2578 78.9428 68.2073C79.8529 68.1488 80.6907 68.0647 81.4275 67.9731C81.8829 67.9171 82.3015 67.8585 82.6727 67.7999C82.6839 67.7999 82.6951 67.7975 82.7032 67.7943C83.1891 67.719 83.5965 67.6461 83.9123 67.5875C84.1913 67.5346 84.3981 67.4929 84.5183 67.4673C87.1875 66.9902 89.1726 66.1829 90.6414 65.1919C90.6495 65.1838 90.6582 65.1782 90.6694 65.1726C90.6694 65.1726 90.6719 65.1701 90.675 65.1701C90.8314 65.0611 90.9821 64.9521 91.1273 64.8406C91.1298 64.8381 91.1354 64.835 91.141 64.8325C91.1547 64.8188 91.1715 64.8076 91.1883 64.7963C91.4281 64.6064 91.6517 64.4164 91.861 64.2183C92.0286 64.062 92.1849 63.9 92.3326 63.738C92.5755 63.6153 92.8128 63.459 93.0277 63.2771C93.0807 63.2354 93.1311 63.1905 93.1785 63.1432C93.4519 62.8697 93.7117 62.5739 93.9521 62.2693C94.1028 62.0824 94.2455 61.8924 94.3794 61.7024C94.3906 61.6856 94.4018 61.6719 94.413 61.6551C94.5414 61.4794 94.6585 61.2975 94.765 61.1076C94.7675 61.102 94.7731 61.0963 94.7731 61.0907C94.7731 61.0907 94.7756 61.0907 94.7731 61.0882H94.7756C94.8565 60.9487 94.9294 60.8061 94.9992 60.6641C95.016 60.636 95.0297 60.608 95.044 60.5806C95.1779 60.3071 95.3038 60.0281 95.4296 59.754C95.4296 59.7515 95.4321 59.7515 95.4321 59.7484C95.4601 59.6786 95.4882 59.6089 95.5131 59.5391C95.7199 59.0084 95.8955 58.4528 96.0687 57.9059L96.0712 57.9034C96.0768 57.8841 96.0824 57.8641 96.088 57.8473C96.0936 57.8392 96.0936 57.8305 96.0961 57.8224C96.2219 57.4312 96.3446 57.0432 96.4786 56.6694C96.4842 56.6863 96.4867 56.7031 96.4923 56.7199C96.5483 56.9323 96.5926 57.1665 96.6262 57.4263C96.6542 57.6331 96.671 57.8536 96.6791 58.0878L96.6804 58.089Z" fill="#5CA24B" />
        <path d="M96.6804 58.0889C96.7221 60.2092 95.9896 62.3022 94.7849 64.0861H94.7824C94.3962 64.6642 93.9085 65.2584 93.4089 65.7835C86.3839 72.7245 71.6742 74.3826 63.5429 68.6314C61.3261 67.0443 59.6673 64.6841 59.1372 61.9951L59.4418 61.9446H59.4306V61.64C60.3226 62.5794 61.498 63.277 62.5912 63.9435V63.946C63.158 64.2599 63.6881 64.6243 64.2605 64.9345C64.519 65.0759 64.7856 65.2111 65.0229 65.3843C65.226 65.5201 65.4359 65.6477 65.6483 65.7723C65.6508 65.7723 65.6539 65.7748 65.6539 65.7748H65.6564C67.8509 66.9982 70.3425 67.7064 72.826 68.0141C72.8284 68.0166 72.8341 68.0166 72.8372 68.0141C76.2444 68.4252 79.6691 68.229 82.9723 67.7039C82.9748 67.7014 82.9779 67.7014 82.9804 67.7039C83.346 67.6435 83.6762 67.58 84.0188 67.5195C86.6804 67.0767 89.1109 66.2158 90.6134 65.16C90.6158 65.16 90.619 65.1575 90.6215 65.1575C91.5172 64.572 92.1774 63.7735 93.0644 63.1973V63.1948C93.7179 62.5831 94.129 61.4588 94.5974 60.702C94.5974 60.702 96.0089 57.5956 96.5284 56.0925C96.6536 56.5497 96.6679 57.5819 96.6797 58.0883L96.6804 58.0889Z" fill="#75A152" />
        <path d="M93.0281 65.3719V65.5239C92.9776 65.6248 92.8761 65.6759 92.7752 65.7263C92.7247 65.7263 92.6232 65.7768 92.5727 65.7768C92.5223 65.7768 92.4207 65.7768 92.3703 65.6759C92.3198 65.6254 92.3198 65.575 92.3198 65.5239C92.3198 65.423 92.3198 65.271 92.4207 65.1701C92.6232 64.9172 92.9645 65.0692 93.015 65.3725H93.0274L93.0281 65.3719Z" fill="#AED888" />
        <path d="M75.7038 69.1528C77.0978 69.2469 79.2107 69.5534 79.9905 70.3918C80.2434 70.6951 80.3319 71.2389 79.7881 71.3909C77.2784 71.3591 79.2941 69.6748 74.3633 70.2024L75.7038 69.1528Z" fill="#568040" />
        <path opacity="0.37" d="M59.479 62.0464V61.6926C59.479 61.6926 59.631 61.8446 59.6815 61.8951C60.5286 62.6918 61.5782 63.3364 62.5649 63.9313C63.1087 64.2347 63.6144 64.576 64.1582 64.88C64.3607 64.9809 64.5631 65.1329 64.8029 65.2338C66.3458 66.2834 68.0401 66.9791 69.8359 67.4214C70.0888 67.4718 70.2788 67.5223 70.5317 67.5734C75.4127 68.6734 80.5341 68.0667 83.0762 67.6743C81.7862 68.1172 80.4332 68.471 79.1432 69.0652C78.0432 69.5585 76.8541 70.1652 76.0574 71.1015C75.8045 71.4048 75.6656 71.6957 75.5136 72.0501C67.6483 71.9492 60.5791 68.6105 59.1377 62.0477H59.479V62.0464Z" fill="#568040" />
        <path d="M93.0647 63.1954C92.8112 63.8077 92.4991 64.4007 92.1266 64.9488C92.1266 64.9513 92.1241 64.9513 92.1241 64.9544C92.116 64.9656 92.1104 64.9737 92.1017 64.9849C91.9977 65.1388 91.8868 65.292 91.7697 65.4372C91.7722 65.4397 91.7672 65.4397 91.7672 65.4397C89.3634 68.6382 85.0592 69.0101 81.3779 69.3346C75.423 69.765 64.9042 72.9088 62.0962 65.6882C59.6146 64.0388 58.0331 62.1209 59.9211 59.1497C61.112 60.6415 61.7218 62.5282 62.8051 64.0301C63.2324 64.4823 63.8634 64.6947 64.3829 65.0043V65.0067C64.4277 65.0317 64.475 65.0572 64.5224 65.0846C64.5224 65.0846 64.5249 65.0846 64.5249 65.0871C66.9909 66.7309 69.8949 67.6653 72.8256 68.0128C72.8281 68.0153 72.8337 68.0153 72.8368 68.0128C76.2434 68.4252 79.6687 68.2265 82.9719 67.7026C82.9744 67.7001 82.9775 67.7001 82.98 67.7026C87.3795 67.0648 89.9502 65.9523 93.0647 63.1935V63.1954Z" fill="#568040" />
        <path d="M85.9584 67.4709C84.7194 67.7238 83.4163 67.7742 82.127 67.8247C83.379 67.6727 84.2136 67.4709 84.5675 67.4329C87.6022 66.8891 89.7524 65.89 91.2947 64.7395C89.8533 66.1304 87.8551 67.0791 85.9708 67.4834L85.9584 67.4709Z" fill="#3E5C2E" />
        <path d="M59.9463 59.1641C59.9463 59.1641 59.9438 59.1666 59.9407 59.1697C59.9351 59.1641 59.927 59.156 59.9214 59.1504L59.9463 59.1641Z" fill="#3E5C2E" />
        <path d="M77.36 68.1544C73.3143 68.697 70.492 69.8593 64.9301 66.5237C64.9277 66.5224 64.9245 66.5212 64.922 66.5181V66.5156C64.4617 66.0839 64.1247 65.5763 63.5766 65.22C62.3725 64.4613 60.6577 63.9711 60.2404 62.4394C60.1843 62.1821 60.2404 61.8956 60.1874 61.6408C60.0896 60.9457 59.638 60.2941 59.6486 59.6532C59.7452 59.5049 59.8411 59.3187 59.942 59.1704C61.2451 60.4318 61.8773 62.2488 62.8179 63.7798C63.2359 64.3616 63.888 64.7241 64.5184 65.0698V65.0723C66.2332 66.0198 68.0403 66.86 69.9183 67.4375C70.8308 67.6704 71.7938 67.7826 72.7325 67.7614C74.377 68.066 75.971 68.2055 77.3619 68.155L77.36 68.1544Z" fill="#3E5C2E" />
        <path d="M96.3658 64.8282C95.4869 65.5601 96.1771 65.9202 95.6072 66.5101C95.4658 66.6421 95.1904 66.6047 94.9998 66.611C94.9998 66.611 94.8989 66.5605 94.8989 66.5101C94.334 65.7539 95.4303 63.6858 96.3403 63.8291C96.6941 63.8796 96.4923 64.5753 96.3403 64.8282H96.3658Z" fill="#AED888" />
        <path d="M78.6372 69.3553C79.6351 69.4107 81.2671 69.4114 81.7735 70.4049C81.8676 70.8552 81.1755 70.8733 80.9264 70.7462C80.2306 70.4933 79.6868 70 78.9412 69.9495C78.37 69.8704 77.7216 70.2055 77.1959 69.8991C77.0439 69.8486 76.753 69.6462 76.791 69.4562C76.791 69.2538 77.0943 69.3553 77.1959 69.3553C77.6387 69.4057 78.1445 69.3553 78.6372 69.3553Z" fill="#568040" />
        <path d="M72.5462 67.3975C71.7706 67.542 71.0244 67.2941 70.285 67.0013C69.9319 66.8612 69.5824 66.7129 69.2317 66.5896C68.6786 66.4121 68.1105 66.29 67.5356 66.1816C67.5244 66.1785 67.5132 66.1779 67.4995 66.1748C67.4552 66.1679 67.4104 66.1579 67.3662 66.1511C67.102 66.1031 66.8386 66.0552 66.5751 66.0047C66.4113 65.9742 66.2449 65.9437 66.0811 65.9075H66.0786C66.0705 65.9075 66.0649 65.9044 66.0562 65.9038C66.0064 65.8938 65.959 65.8839 65.9123 65.8714C65.5492 65.7954 65.1885 65.702 64.8347 65.5899C64.8322 65.5899 64.8291 65.5868 64.8235 65.5868C64.727 65.5556 64.6329 65.522 64.5363 65.4877C64.4896 65.4696 64.4398 65.451 64.3931 65.4273C64.3738 65.4211 64.352 65.4117 64.3295 65.3999H64.3271C64.3134 65.3937 64.2996 65.3874 64.2828 65.3787C64.2747 65.3756 64.266 65.3725 64.2579 65.3669C64.2498 65.3638 64.2386 65.3582 64.2305 65.3519C64.228 65.3519 64.2249 65.3519 64.2224 65.3488C63.835 65.1601 63.4606 64.9072 63.1018 64.5939C63.0912 64.5851 63.08 64.5764 63.0694 64.5646C62.7032 64.2425 62.3525 63.862 62.0205 63.429C61.9937 63.3948 61.9669 63.363 61.9457 63.3288C61.0008 62.0767 60.2035 60.4304 59.5619 58.6128C59.5569 58.6016 59.5544 58.5904 59.5488 58.5792C58.9128 56.7734 58.4332 54.7988 58.1249 52.8834C58.0875 52.653 58.0533 52.4256 58.019 52.1982C58.0059 52.0805 57.9903 51.9653 57.9717 51.85C57.943 51.6227 57.9137 51.3984 57.8876 51.1767C57.8907 51.1742 57.8907 51.1711 57.8876 51.1711C57.8645 50.9468 57.8408 50.7251 57.8203 50.5071C57.616 48.2348 57.6808 46.1892 58.0452 44.7989C58.574 42.8218 58.4737 38.4129 58.351 35.7077V35.6996C58.313 34.9104 58.2731 34.267 58.247 33.872V33.8695C58.2439 33.8023 58.2401 33.7437 58.2364 33.6902C58.2345 33.6702 58.232 33.6534 58.2326 33.6372C58.2308 33.6067 58.2289 33.5787 58.227 33.5562C58.2208 33.4834 58.2196 33.4441 58.2196 33.4441L59.3433 32.4842L59.3925 32.4413L59.4099 32.4275L59.7033 32.1771L60.1892 31.7604L60.2004 31.7523L60.7062 31.3194L61.8131 30.3757C61.8131 30.3757 61.8554 30.6118 61.9389 31.0447C62.0024 31.4016 62.0952 31.8962 62.2067 32.5004C62.2447 32.6941 62.2827 32.8997 62.3263 33.1158C62.3593 33.2928 62.3923 33.4784 62.431 33.6696C62.4665 33.8608 62.5045 34.0602 62.5425 34.2657C62.6783 34.9739 62.8284 35.7613 62.9903 36.6078C63.0264 36.7903 63.062 36.9759 63.1006 37.1647C63.2551 37.9769 63.4251 38.8403 63.602 39.7372C63.64 39.9309 63.6786 40.1253 63.7166 40.3221C63.7191 40.3308 63.7191 40.3389 63.7216 40.3477C63.7982 40.7382 63.8773 41.135 63.9589 41.5399C63.9639 41.5623 63.9689 41.5847 63.9732 41.6072C64.0854 42.1833 64.2031 42.7682 64.3233 43.3619C64.4049 43.7611 64.4865 44.1635 64.5681 44.5684C64.5706 44.5771 64.5731 44.5852 64.5731 44.5939C65.4838 49.0713 66.4985 53.8009 67.4079 57.476C67.6521 58.4646 67.89 59.3777 68.1143 60.1869C68.1267 60.2348 68.1417 60.2828 68.1516 60.3276C68.1765 60.4124 68.199 60.494 68.2245 60.5731C68.3373 60.9705 68.445 61.3405 68.5515 61.6762V61.6787C68.716 62.2007 68.8711 62.6504 69.0156 63.0123V63.0148C69.2274 63.5443 69.4142 63.8881 69.5718 64.0083C69.7332 64.1223 69.8995 64.2369 70.0633 64.3572C70.0714 64.3628 70.0795 64.369 70.0882 64.3721C70.4022 64.6001 70.718 64.8368 71.0113 65.0928C71.0686 65.142 71.1253 65.1918 71.1826 65.2435C71.1851 65.2467 71.1882 65.2467 71.1907 65.2491C71.2044 65.2635 71.2206 65.2778 71.2343 65.2896C71.253 65.3071 71.2698 65.3214 71.2854 65.3413C71.2935 65.3444 71.2991 65.35 71.3047 65.3557C71.8734 65.8969 72.3313 66.5099 72.5131 67.2449C72.5256 67.2954 72.5374 67.3464 72.5474 67.3969L72.5462 67.3975Z" fill="#323147" />
        <path d="M67.1149 65.9636C66.7923 65.9194 66.4727 65.8639 66.1507 65.8004C65.9981 65.7705 65.8455 65.7375 65.6904 65.6989H65.6823C65.6742 65.6957 65.6654 65.6926 65.6573 65.692C65.6131 65.682 65.5689 65.6696 65.524 65.6596C65.3272 65.6085 65.131 65.5543 64.9342 65.4952C64.9317 65.4952 64.9261 65.4952 64.9229 65.4921C64.837 65.4671 64.7516 65.4391 64.6657 65.4111C64.6408 65.4049 64.6134 65.3955 64.5884 65.3862C64.4863 65.3494 64.3841 65.3071 64.2826 65.2585C64.2801 65.2585 64.277 65.2585 64.2745 65.2554C64.2577 65.2491 64.2415 65.2404 64.2247 65.2342C64.2191 65.2286 64.2141 65.2255 64.2054 65.2223C63.8534 65.0542 63.5146 64.8305 63.1882 64.5602C63.1776 64.5515 63.1664 64.5428 63.1527 64.5284C62.8101 64.2463 62.4831 63.9087 62.1747 63.5268C62.1423 63.4919 62.1156 63.4577 62.0863 63.4234V63.4209C61.0884 62.1702 60.245 60.4771 59.5723 58.5972C59.5698 58.586 59.5648 58.5748 59.5592 58.5636C58.9201 56.7659 58.4374 54.7969 58.1234 52.8847C58.086 52.6542 58.0518 52.4268 58.0175 52.1995C58.0044 52.0817 57.9889 51.9665 57.9702 51.8513C57.9415 51.6239 57.9123 51.3997 57.8861 51.1779C57.8892 51.1754 57.8892 51.1723 57.8861 51.1723C57.863 50.9481 57.8394 50.7263 57.8188 50.5083C57.6145 48.236 57.6793 46.1904 58.0437 44.8001C58.5489 42.7801 58.4492 38.2684 58.3315 35.58C58.2997 34.8469 58.2667 34.2483 58.2455 33.8733V33.8708C58.2424 33.8035 58.2387 33.745 58.2349 33.6914C58.233 33.6715 58.2306 33.6546 58.2312 33.6384C58.2293 33.6079 58.2274 33.5799 58.2256 33.5575C58.2193 33.4846 58.2181 33.4453 58.2181 33.4453L59.3455 32.4655L59.3916 32.4225L59.4091 32.4088L59.7025 32.1528V32.1777C59.7056 32.4767 59.6987 32.7782 59.6888 33.0741C59.6863 33.1414 59.6844 33.2055 59.6794 33.2691C59.652 33.9243 59.5947 34.5734 59.5175 35.2218V35.2299C59.5168 35.2436 59.5137 35.258 59.51 35.2717C59.5013 35.3663 59.4901 35.461 59.4757 35.5557C59.1674 38.0429 58.6168 40.5027 58.3925 43.0653C58.0213 47.0394 58.4436 50.7494 59.8133 54.5266C60.9962 57.7924 62.6351 61.0334 64.8314 63.8021H64.8451C64.9285 63.9031 65.0114 64.004 65.098 64.1018C65.1005 64.1049 65.1005 64.1074 65.1036 64.1074C65.311 64.3459 65.5296 64.577 65.7539 64.7963L65.7595 64.8019C65.9109 64.9495 66.0628 65.0915 66.2204 65.2336C66.2285 65.2423 66.2391 65.251 66.2503 65.2566C66.53 65.5064 66.8184 65.7418 67.1155 65.9642L67.1149 65.9636Z" fill="#464558" />
        <path d="M73.8283 61.5043C61.3231 61.6357 58.9823 45.1732 59.2115 42.4481C59.2999 41.2994 59.5902 40.1701 59.6787 39.0221C59.8506 36.8894 59.3255 34.7721 59.3946 32.6867C60.0754 16.6658 85.2242 22.924 88.2104 37.8766C90.0049 46.7548 83.4994 61.3816 73.829 61.5049L73.8283 61.5043Z" fill="#ED8600" />
        <path d="M60.0189 32.1628C61.3338 29.3685 62.5092 24.6114 66.2105 24.3585C70.5334 23.5494 75.4524 23.9636 79.0396 26.6794C81.4702 28.5562 85.0537 29.2315 85.8036 32.1914C86.1967 33.6976 87.298 40.1994 87.2849 41.7423C87.283 43.3363 83.5949 46.2004 83.1526 47.7296C81.6938 53.4484 77.967 58.3381 72.9826 61.4507C59.6146 59.8511 58.4965 44.062 59.5779 38.9935C59.6682 37.8068 59.5249 35.2461 59.4253 34.0408C59.7591 33.1283 59.7554 32.8623 60.0307 32.1759L60.0183 32.1628H60.0189Z" fill="#D58500" />
        <path opacity="0.36" d="M82.4003 43.302C82.9615 27.8336 65.5211 20.3246 59.4989 35.271C56.9251 16.804 84.8339 21.3661 88.1994 37.813C90.0164 46.8861 82.3449 44.9956 82.4003 43.302Z" fill="#B45F00" />
        <path opacity="0.36" d="M71.337 37.3191C72.4407 34.1673 75.4076 33.2149 77.0302 33.8758C77.1804 33.9312 77.3286 34.0377 77.3616 34.1903C77.6257 35.3882 72.1642 36.4103 72.5423 38.3581C73.0574 40.7662 78.7457 39.0059 85.8866 41.5442C86.3743 41.7124 73.2686 43.5568 72.1542 42.8243C69.8134 41.3044 70.5677 39.5329 71.3364 37.3185L71.337 37.3191Z" fill="#B45F00" />
        <path opacity="0.36" d="M71.0517 23.3538C66.3744 24.6189 63.2225 26.3256 60.9371 30.7887C60.3067 31.8632 60.6157 32.6798 60.5845 33.8135C60.2968 34.9216 60.3634 36.0577 60.6767 37.1565C60.9751 38.6913 61.6273 39.4924 62.5984 40.6616C64.155 43.0093 61.8117 47.382 60.2127 49.3005C58.7408 44.0738 59.0684 42.8959 59.6141 39.0701C58.6075 29.4258 60.2781 22.6375 71.0517 23.3538Z" fill="#CC5F00" />
        <path opacity="0.36" d="M62.246 39.8027C64.5818 39.5385 67.0491 39.6868 69.2267 40.6785C70.0041 41.9373 69.8197 44.5871 69.5438 46.0285C65.9808 45.1259 62.3662 44.0427 59.21 42.1067C59.2766 41.6153 59.2816 41.0491 59.3993 40.5595C60.2683 40.1328 61.2979 39.9098 62.2472 39.8027H62.246Z" fill="#B45F00" />
        <path d="M84.9507 48.4347C85.3774 44.949 84.8891 40.8834 83.7703 37.4387C82.684 34.7522 80.806 32.4251 78.6601 30.4885C75.5762 27.3833 71.0421 26.074 66.7354 26.4633C65.2504 26.5929 60.7656 28.423 59.9863 28.9225C64.3323 18.0075 87.1713 24.1337 88.0291 37.9713C89.3029 58.5225 84.9507 48.4347 84.9507 48.4347Z" fill="#B45F00" />
        <path opacity="0.36" d="M62.039 33.8233C62.5405 33.5866 65.564 33.112 66.4304 33.4116C68.8703 35.2137 68.9588 39.1722 67.262 41.5622C66.1576 41.6774 65.0202 41.6401 63.9202 41.6039C64.7748 39.8387 65.6337 37.676 65.1012 35.7213C64.8626 35.2703 64.4303 34.9527 63.9445 34.734C63.5439 34.4469 61.9356 34.3366 62.0384 33.8233H62.039Z" fill="#B45F00" />
        <path d="M87.2856 41.7299C87.2856 41.7299 76.53 40.2231 70.0575 40.0605C68.8697 40.0213 66.7225 39.8998 66.0243 39.9777C61.3775 40.4698 58.8784 42.184 58.8784 42.184C58.8784 42.184 60.8511 64.0619 70.5695 65.18C77.8169 66.0141 83.1383 64.6462 85.9314 58.6147C88.674 52.5813 89.8893 47.1939 87.2862 41.7305L87.2856 41.7299Z" fill="#323147" />
        <path d="M67.9539 41.6862C68.0667 42.8791 69.1418 43.269 70.0182 42.3994C70.6841 41.7759 71.0641 40.9917 71.3338 40.1022L67.9969 39.9919C67.9284 40.5339 67.858 41.1387 67.9409 41.6856H67.9533L67.9539 41.6862Z" fill="#464558" />
        <path d="M87.2853 41.73C87.2853 41.73 79.7918 40.6854 73.5436 40.2263C73.594 40.2282 76.3703 45.0519 76.3067 45.4418C76.2363 46.0342 75.7773 46.525 75.2621 46.7991C74.296 47.3111 72.1551 47.3927 71.5578 49.0172C70.6895 51.1774 73.5099 53.1178 73.4557 54.761C73.4115 56.1008 71.2507 58.3196 69.4543 58.3108C65.2167 58.2722 59.9557 45.9395 59.4911 44.6844C59.0226 45.4661 59.81 47.2887 60.0224 48.1433C61.5304 53.8235 62.9799 64.3348 70.5182 65.1782C77.7656 66.0123 83.087 64.6444 85.88 58.6129C88.6731 52.5814 89.8883 47.1934 87.2853 41.7175V41.73Z" fill="#2B2B37" />
        <path d="M62.3865 44.3871C64.1338 44.3435 65.3976 42.0955 65.7502 40.6136C65.8075 40.413 65.8156 40.1732 65.8722 39.9727C63.3707 40.2442 61.5531 40.8802 60.3472 41.3848C60.8449 42.7931 61.4871 44.4083 62.3865 44.3877V44.3871Z" fill="#464558" />
        <path d="M59.1774 41.9405C59.4334 44.1785 60.0594 46.3948 60.8087 48.4722C61.213 50.8105 62.3672 52.909 63.1328 55.1153C63.9668 58.0747 64.6775 59.5036 67.7895 60.4567C70.9264 61.3698 71.8788 60.6666 74.6551 59.4432C81.7106 56.6863 85.1072 48.5868 85.3377 41.4353C86.5349 41.5761 87.2774 41.7019 87.2774 41.7019C89.893 47.1653 88.6652 52.4282 85.8722 58.4727C83.0791 64.5042 77.8088 65.874 70.5103 65.038C60.7795 63.9199 58.8198 42.042 58.8198 42.042C58.8198 42.042 59.0204 42.0993 59.2147 41.9536L59.1774 41.9399V41.9405Z" fill="#21212B" />
        <path d="M98.0404 53.2434C97.8056 54.1852 96.7143 55.8453 96.1144 57.1664C95.9089 57.6373 95.7045 58.1531 95.4971 58.6906C95.433 58.8644 95.3657 59.0382 95.2984 59.2151C95.1608 59.5683 95.0262 59.9296 94.8861 60.2884C94.7272 60.6939 94.569 61.0994 94.4052 61.493C94.384 61.5398 94.3659 61.5865 94.3479 61.6307H94.3454V61.6332C94.3423 61.6388 94.3392 61.6444 94.3392 61.65C94.2513 61.8568 94.1635 62.0605 94.0732 62.2561C93.9797 62.4567 93.8894 62.6523 93.7941 62.8416C93.4559 63.5262 93.0952 64.1229 92.7034 64.5658C92.6393 64.6418 92.5726 64.7122 92.5066 64.777C92.501 64.7826 92.4948 64.7875 92.4892 64.7931C92.3365 64.9389 92.1783 65.0622 92.0164 65.1544C91.8713 65.236 91.723 65.3182 91.5754 65.3998C91.5723 65.4023 91.5698 65.4055 91.5666 65.4055C91.5467 65.416 91.5299 65.4266 91.51 65.4372C91.5069 65.4397 91.5012 65.4428 91.4956 65.4422C91.2907 65.5581 91.0833 65.6714 90.8696 65.7848C90.8696 65.7873 90.8665 65.7873 90.864 65.7873C88.7424 66.9297 86.2764 68.0995 84.0047 68.7037C83.9567 68.7161 83.9063 68.7286 83.8583 68.7404C83.7369 68.7728 83.616 68.8021 83.4977 68.8264C83.3905 68.8538 83.2834 68.8781 83.1769 68.8999C82.4936 69.045 81.7884 69.1584 81.0702 69.2412C81.031 69.2456 80.9942 69.25 80.955 69.2543H80.9494C80.8622 69.2655 80.7756 69.2736 80.6884 69.2817C80.035 69.3521 79.3691 69.3945 78.7008 69.42C78.3482 69.4337 77.9963 69.4387 77.6443 69.4412C77.4768 69.4443 77.3117 69.4412 77.1441 69.4412C76.7922 69.4381 76.4434 69.4294 76.0946 69.4175C75.6062 69.3988 75.121 69.3739 74.642 69.339C73.6055 69.2655 72.5889 69.1565 71.6103 69.0182C71.5798 69.0145 71.5493 69.0108 71.5188 69.007L71.5443 68.9964C71.4415 68.9821 71.3182 68.9946 71.183 69.0207C71.1413 69.0251 71.0989 69.032 71.0591 69.0444C70.8566 69.0905 70.6367 69.1534 70.4281 69.1939C70.4138 69.1989 70.4025 69.2014 70.3913 69.2014C70.1216 69.2512 69.87 69.2568 69.6924 69.1366C69.1144 68.7155 67.0115 67.8497 65.4786 66.9695C65.4786 66.9695 65.4786 66.967 65.4761 66.9695C65.4705 66.9639 65.4655 66.9608 65.4568 66.9577C65.435 66.9428 65.41 66.9284 65.3882 66.9135C65.1609 66.7833 64.9447 66.6475 64.7535 66.5154C64.7342 66.5011 64.7155 66.4893 64.6962 66.4743C64.685 66.4681 64.6769 66.4625 64.6688 66.4538C64.5212 66.351 64.3879 66.2489 64.2739 66.1473L64.2658 66.1386C64.1518 66.0371 64.0546 65.9387 63.9792 65.8415C63.9736 65.8384 63.9711 65.8328 63.9711 65.8303C63.8721 65.7013 63.8092 65.5792 63.7936 65.4615C63.7911 65.4584 63.7911 65.4528 63.7911 65.4503C63.8273 65.4484 63.864 65.4503 63.9001 65.4453C63.9923 65.4453 64.0845 65.4428 64.1742 65.4347C64.1798 65.4378 64.1823 65.4378 64.1854 65.4347C64.2191 65.436 64.2527 65.4347 64.2832 65.4322C64.2913 65.4322 64.2969 65.4322 64.3032 65.4304C64.3337 65.4316 64.3648 65.4297 64.3928 65.4279C64.485 65.4254 64.5772 65.4198 64.6669 65.4117C64.7927 65.4048 64.9161 65.3974 65.0394 65.3874C65.045 65.3874 65.0506 65.3874 65.0562 65.3849H65.0587C65.0787 65.383 65.098 65.3836 65.1179 65.3787C65.1204 65.3818 65.126 65.3818 65.1291 65.3787C65.1347 65.3787 65.1372 65.3787 65.1434 65.3762C65.1908 65.3749 65.2356 65.3706 65.2805 65.3637C65.6081 65.3382 65.9308 65.3014 66.2503 65.256C67.1031 65.142 67.9359 64.9794 68.7413 64.7682C68.778 64.7608 68.8148 64.7508 68.8484 64.7408C68.9101 64.7259 68.9699 64.7084 69.0291 64.691C69.3872 64.5969 69.7398 64.4879 70.0874 64.3714C70.4598 64.25 70.8249 64.1167 71.1874 63.9747C71.8296 63.7224 72.4506 63.4408 73.0561 63.1313C73.684 62.8111 74.2931 62.4598 74.8812 62.0823C75.2835 61.8244 75.6778 61.5553 76.0615 61.2719C76.1045 61.2395 76.1475 61.2103 76.1874 61.1754C76.2272 61.1486 76.2646 61.1193 76.3045 61.09C76.6309 60.844 76.9498 60.5892 77.26 60.3226C78.1825 59.5459 79.0371 58.6938 79.8157 57.7893C80.0655 57.5071 80.301 57.2187 80.5289 56.9247C80.7301 56.6718 80.9226 56.4152 81.1132 56.1561C81.1979 56.039 81.2833 55.9213 81.3655 55.801C81.5798 55.4952 81.7878 55.1837 81.9859 54.8661C82.08 54.7184 82.1715 54.5677 82.2606 54.4201C83.3986 52.5246 84.2732 50.4946 84.8475 48.4129C84.9235 48.1475 84.9907 47.8784 85.0555 47.6124C85.2985 46.5978 85.4722 45.5731 85.5675 44.5509C85.608 44.1666 85.6348 43.7823 85.6473 43.3973C85.6766 42.7669 85.6722 42.1353 85.6398 41.5112V41.5087C85.6404 41.4919 85.6379 41.4751 85.6361 41.4582C85.6348 41.419 85.633 41.3829 85.6317 41.3461C85.4062 37.5982 84.1081 34.0134 81.5642 31.1132C78.0853 27.1603 69.4009 22.4905 63.3339 27.5502C63.1041 27.7384 62.8798 27.9433 62.6575 28.1619L62.6519 28.1675C62.3429 28.4728 62.0439 28.8066 61.753 29.1716C61.17 29.9067 60.6798 30.7089 60.2861 31.5561C60.2531 31.6221 60.2201 31.6906 60.1902 31.7598C60.136 31.8806 60.0843 32.0021 60.0382 32.1235C60.0295 32.1372 60.0232 32.1485 60.0201 32.1622C59.8987 32.4599 59.7878 32.7664 59.6912 33.0735C59.5885 33.3855 59.4975 33.7013 59.4221 34.0227C59.4159 34.034 59.4128 34.0477 59.4122 34.0614C59.3935 34.1249 59.3798 34.1916 59.3667 34.2557C59.0957 35.4423 58.9824 36.6707 59.0204 37.8984C58.6716 37.2138 58.4697 36.472 58.3526 35.7083V35.7002C58.3458 35.661 58.3389 35.6217 58.3346 35.5794C58.2006 34.6363 58.1913 33.6584 58.195 32.6972C58.1807 30.0007 58.1701 27.2687 59.2515 24.8126C60.1123 22.8549 61.5587 21.2571 63.0032 19.6594C64.2353 18.309 65.4835 16.9592 66.9112 15.8523C67.9353 15.0506 69.0521 14.3835 70.2288 13.8553C70.5408 13.712 70.8579 13.58 71.1774 13.4591C74.3828 12.2382 77.9614 11.9735 81.3213 12.6824C83.3768 13.1134 85.3508 13.9132 87.1055 15.0774C88.6521 16.112 90.0125 17.3914 91.1574 18.8453C93.2086 21.4521 94.5703 24.6145 95.0966 27.8922C95.1632 28.3245 95.2162 28.7568 95.2604 29.1909C95.6379 32.9912 95.1963 36.8849 95.9138 40.6211C96.7242 44.8381 99.0775 49.0389 98.0423 53.2428L98.0404 53.2434Z" fill="#464558" />
        <path opacity="0.32" d="M97.8989 53.5394C97.656 54.5267 96.7696 55.912 96.2096 57.3204C95.6253 58.7188 95.1868 60.2579 94.534 61.6283C92.542 65.8104 84.5434 68.9274 81.0172 69.2108C81.0172 69.2108 81.0172 69.2133 81.0147 69.2108C77.9376 69.5291 70.2386 69.4195 69.7939 69.1031C69.2383 68.7131 63.9349 65.6734 63.8926 65.4161C63.9966 65.4118 67.9999 65.3744 71.1649 63.9604C71.979 64.5354 72.8542 65.0312 73.7742 65.3987C80.1844 68.0759 84.2071 63.3824 86.6575 58.0442C89.093 53.3924 90.9648 47.4612 88.4739 42.1977C87.8697 40.387 87.0605 38.8391 85.2336 37.9676C84.531 35.1191 83.0921 32.3273 80.8565 30.2581C85.2379 27.4899 89.7284 23.4492 90.948 18.6311C96.3672 24.7442 95.0274 33.2093 96.0402 40.6149C96.8375 44.8861 98.8382 49.3785 97.8989 53.5394Z" fill="#323147" />
        <path d="M93.9763 60.0985C91.1944 62.6405 88.1466 65.081 84.5681 66.3704C80.2813 67.9133 76.5003 67.7614 72.0236 67.3191C69.9873 67.1167 67.4459 67.4206 65.2583 66.9273C67.3523 68.3291 69.1215 69.354 72.0236 69.5478C75.7553 69.797 80.2558 69.6207 83.8854 68.7225C86.7687 68.0267 90.0564 66.2315 92.5984 64.6886C93.9389 63.8919 95.787 58.6353 96.6846 56.0933C96.1408 56.5866 94.5836 59.5672 93.9893 60.111L93.9769 60.0979L93.9763 60.0985Z" fill="#323147" />
        <path d="M73.0278 63.1227C75.193 63.8396 77.6373 63.7686 79.4156 62.7894C82.5619 60.9955 83.6476 58.3993 84.942 55.2032C86.4014 51.6203 87.8739 48.025 85.7062 44.3218C85.6577 44.2695 85.6589 44.2191 85.6103 44.1667C85.0179 51.7642 80.3238 59.4283 73.0278 63.1221V63.1227Z" fill="#575770" />
        <path d="M81.3263 12.6356C80.3477 17.9003 73.0891 16.5698 69.1474 17.762C66.9362 18.4852 64.5505 19.8506 62.1841 20.6192C67.2027 14.47 73.2037 11.0509 81.3263 12.6362V12.6356Z" fill="#575770" />
        <path d="M96.0394 40.6142C95.2683 36.7548 95.6296 32.7857 95.201 28.887C94.0113 34.2881 91.2593 38.4746 91.1765 44.1859C91.2755 54.9184 86.5384 64.7377 76.3018 69.3415C81.9116 69.7576 87.3326 67.9462 92.0809 65.0797C93.8599 64.0886 94.9973 59.9003 96.1783 57.0923C100.283 51.0296 97.4621 47.0132 96.027 40.6011L96.0394 40.6142Z" fill="#323147" />
        <path d="M72.8235 35.0069C75.0965 35.5619 76.5852 32.9899 80.3954 33.9754C80.4447 33.9866 80.4945 33.9972 80.5823 34.0682C80.6814 34.09 80.7081 33.9666 80.6153 33.9199C80.5661 33.9087 80.4783 33.8377 80.4285 33.8271C76.4644 32.1341 72.95 33.0915 72.4921 33.2883C71.6463 33.6583 72.0599 34.7727 72.8273 34.9944L72.8248 35.0069H72.8235Z" fill="#323147" />
        <path d="M67.5253 33.2453C67.1354 32.9893 64.2501 31.9553 60.7831 33.4565C60.7345 33.4752 60.6971 33.4802 60.6392 33.5256C60.5451 33.5885 60.5645 33.7393 60.6647 33.7262C60.7152 33.72 60.7588 33.6633 60.8086 33.6571C64.0707 32.8454 65.2567 35.4473 67.2008 34.995C67.8274 34.8132 68.2466 33.7013 67.5253 33.2453Z" fill="#323147" />
        <path opacity="0.32" d="M69.2402 23.8006C70.0119 21.2392 71.368 18.7862 73.251 16.9107C74.9434 15.1778 77.0264 13.0699 79.6494 13.187C80.0013 13.2493 79.9851 13.742 79.6313 13.7308C76.7018 13.4954 72.3864 18.0917 71.249 20.4382C70.7675 21.6117 70.1209 22.7927 69.7391 24.0198C69.6282 24.3201 69.1399 24.1519 69.2526 23.8012H69.2402V23.8006Z" fill="#323147" />
        <path d="M74.5286 38.7655C74.5286 38.7655 74.6295 38.7687 74.6818 38.7201C76.3723 37.3335 77.5085 37.4213 78.6061 37.5085C79.6027 37.592 80.5489 37.6736 81.6726 36.6103C81.7772 36.5125 81.7822 36.3612 81.6844 36.2565C81.5866 36.1519 81.4352 36.1469 81.3306 36.2447C80.4037 37.1124 79.6089 37.0358 78.6609 37.004C77.5253 36.9162 76.2247 36.8221 74.3791 38.3052C74.2744 38.403 74.2695 38.5544 74.3168 38.6572C74.3641 38.7599 74.4146 38.7618 74.5155 38.7649H74.528L74.5286 38.7655Z" fill="#323147" />
        <path d="M66.9987 38.6547C66.9987 38.6547 66.8872 38.6509 66.8336 38.5936C65.2963 37.009 64.2474 37.0856 63.199 37.1628C62.2641 37.1877 61.3827 37.27 60.3761 36.0796C60.2683 35.9644 60.2739 35.7974 60.3891 35.6897C60.5044 35.5819 60.6159 35.5857 60.7236 35.7009C61.5708 36.6633 62.2827 36.6309 63.1623 36.6041C64.2667 36.5287 65.4682 36.4571 67.1121 38.213C67.2198 38.3283 67.2142 38.4952 67.155 38.6048C67.0996 38.603 67.0417 38.6572 66.9862 38.6553H66.9999L66.9987 38.6547Z" fill="#323147" />
        <path opacity="0.36" d="M74.6069 37.9202C75.2666 35.9556 78.799 36.2621 77.4268 35.6728C77.3271 35.6186 75.0398 35.5432 74.6069 37.9202Z" fill="#B45F00" />
        <path d="M63.5938 36.7871C63.572 36.9023 63.5496 37.0232 63.5452 37.1565C63.5209 37.8977 63.8504 38.5113 64.2721 38.525C64.6938 38.5387 65.0626 37.9488 65.0869 37.2076C65.0912 37.0743 65.0782 36.9522 65.0638 36.8357L63.5938 36.7871Z" fill="#323147" />
        <path d="M78.6425 37.2905C78.6562 37.407 78.6699 37.5291 78.6656 37.6624C78.6413 38.4036 78.2781 38.9941 77.8639 38.9804C77.4497 38.9667 77.1264 38.3538 77.1507 37.6125C77.1551 37.4792 77.1769 37.3584 77.1987 37.2432L78.6425 37.2911V37.2905Z" fill="#323147" />
        <path d="M66.3879 134.157C66.2658 134.309 66.1107 134.402 65.937 134.406L26.8621 135.443C26.5338 135.452 26.233 135.129 26.1153 134.644L21.0461 113.6L16.3919 94.275L16.3888 94.2681L14.4758 86.325C14.3662 85.8728 14.441 85.4062 14.626 85.0991C14.7568 84.8774 14.943 84.736 15.1592 84.7304L54.2321 83.6932C54.2863 83.692 54.3386 83.7001 54.3916 83.715C54.6152 83.7836 54.8133 84.0059 54.9279 84.3186C54.9503 84.3828 54.9684 84.442 54.9802 84.4918L61.8134 112.86L62.0407 113.8L66.1375 130.807L66.34 131.647L66.6196 132.811C66.743 133.325 66.6309 133.855 66.3867 134.156L66.3879 134.157Z" fill="#93A3A2" />
        <path d="M51.8606 83.7566L38.8627 135.126L26.8638 135.444C26.5356 135.453 26.2347 135.13 26.117 134.645L21.0479 113.601L28.3694 84.3801L51.8606 83.7566Z" fill="#899695" />
        <path d="M65.9372 134.406L56.6953 134.652L61.4125 113.645L62.0416 113.801C62.3437 115.056 66.4312 132.02 66.6199 132.812C66.7432 133.326 66.6909 134.392 65.9366 134.406H65.9372Z" fill="#899695" />
        <path d="M66.388 134.157C66.3737 134.119 66.3619 134.081 66.3519 134.038L66.2466 133.581L54.2428 84.0681L54.1562 83.6944L54.2329 83.6925C54.2871 83.6913 54.3394 83.6994 54.3923 83.7143C54.6159 83.7872 54.8147 84.0239 54.9299 84.3565C54.9529 84.4257 54.971 84.4873 54.9828 84.5421L61.8147 112.86L62.0421 113.8L66.1389 130.807L66.3413 131.647L66.621 132.812C66.7443 133.325 66.6322 133.856 66.388 134.157Z" fill="#E1EAEA" />
        <path fill-rule="evenodd" clip-rule="evenodd" d="M37.4421 102.423C35.7048 102.395 34.0417 102.918 32.3848 103.681C32.9846 105.44 34.89 110.53 41.0175 113.033C43.5551 109.373 43.5358 105.116 42.9335 103.357C41.0785 102.695 39.2952 102.299 37.4396 102.423H37.4421Z" fill="#99B0BF" />
        <g style="mix-blend-mode:multiply" opacity="0.33">
            <path d="M19.9452 108.714C19.9452 108.714 24.3079 109.573 24.4605 107.713C24.4605 107.713 27.0032 108.421 27.4411 107.089C27.879 105.757 27.6803 105.199 27.6803 105.199L18.6184 95.667C18.6184 95.667 22.0798 97.9107 24.1266 96.8873C26.1735 95.8638 25.1432 94.1976 25.1432 94.1976L15.1401 92.3806L19.9452 108.712V108.714Z" fill="#949984" />
        </g>
        <path d="M13.9902 91.1375C13.9902 91.1375 14.0936 94.1853 15.3058 95.5718L16.6263 95.2454L15.9393 92.453L13.9902 91.1375Z" fill="#D58500" />
        <path opacity="0.36" d="M13.9902 91.1375C13.9902 91.1375 14.0936 94.1853 15.3058 95.5718L16.6263 95.2454L15.9393 92.453L13.9902 91.1375Z" fill="#B45F00" />
        <path d="M24.6131 96.0595C23.4003 96.4569 17.7793 94.8056 17.7793 94.8056C17.7793 94.8056 14.3397 93.7056 14.0388 91.7223C13.6171 88.9367 15.7243 89.4705 16.9452 89.9539C17.1913 90.0511 17.4012 90.1458 17.5476 90.2118C18.4576 90.6204 19.8697 90.958 21.1579 91.7273C21.3553 91.845 21.549 91.9727 21.7384 92.1122C23.9802 93.7691 27.9219 94.9751 24.6137 96.0595H24.6131Z" fill="#D58500" />
        <path opacity="0.36" d="M24.8323 95.8446C24.765 95.9137 24.6921 95.9853 24.6137 96.0595C24.3483 96.3092 23.5205 96.2607 22.5282 96.0813C22.5282 96.0813 22.527 96.0813 22.5263 96.0813C20.4969 95.715 17.7793 94.8062 17.7793 94.8062C17.7793 94.8062 17.129 94.5982 16.3684 94.1995C16.0912 94.055 15.7997 93.8843 15.5194 93.6887C14.8018 93.1892 14.1602 92.5289 14.0388 91.7229C14.0332 91.6843 14.0276 91.6469 14.0226 91.6095V91.607C13.7236 89.3179 15.2185 89.3939 16.4076 89.7632C16.4076 89.7632 14.5284 91.3211 16.962 92.6485C19.106 93.8183 21.3765 92.5308 21.9421 92.2567C22.2479 92.4641 22.5662 92.6429 22.882 92.8023C22.882 92.8023 20.7629 95.6783 24.8317 95.8446H24.8323Z" fill="#B45F00" />
        <path d="M21.0939 113.649C21.0939 113.649 15.1876 110.855 13.6428 108.165C12.0981 105.474 14.1499 101.912 14.1499 101.912L24.8506 106.483C24.8506 106.483 26.0167 108.043 23.1501 108.006C20.9687 107.978 19.6999 107.66 19.6999 107.66L21.0939 113.648V113.649Z" fill="#D58500" />
        <path opacity="0.36" d="M24.4608 107.713C24.246 107.865 23.9289 107.976 23.4673 108.002C23.3683 108.007 23.263 108.009 23.1503 108.006C21.0038 107.956 19.7399 107.67 19.7013 107.661H19.7001L19.8689 108.386L21.0941 113.649C21.0941 113.649 15.1878 110.856 13.643 108.165C13.1235 107.26 13.0108 106.256 13.0905 105.323C13.0918 105.299 13.0936 105.279 13.0955 105.262C13.0967 105.248 13.0986 105.235 13.0999 105.222C13.1011 105.21 13.1017 105.203 13.1017 105.201V105.199C13.2861 103.412 14.1507 101.912 14.1507 101.912L15.513 102.493C15.2856 103.45 15.1411 105.658 18.5228 106C20.5945 106.21 21.1128 105.585 21.0891 104.875L22.5193 105.486L21.8129 105.452C21.8129 105.452 20.3796 107.875 24.373 107.716C24.4029 107.715 24.4322 107.714 24.4615 107.713L24.4608 107.713Z" fill="#B45F00" />
        <path opacity="0.4" d="M24.6282 95.515C24.6282 95.515 21.8756 94.9345 23.0186 93.272C23.0186 93.272 21.1418 95.3531 24.6282 95.515Z" fill="#9B4300" />
        <path opacity="0.36" d="M17.7791 94.8055C17.7791 94.8055 17.1288 94.5975 16.3682 94.1988L16.537 94.8846L16.1197 94.694L15.5192 93.6881L14.4248 91.8542C14.4248 91.8542 15.0926 92.4099 16.0624 92.9543C17.4608 93.7398 19.4877 94.5022 21.0468 93.5429C21.0468 93.5429 20.5821 95.5044 22.5256 96.0806C20.4962 95.7143 17.7785 94.8055 17.7785 94.8055H17.7791Z" fill="#B45F00" />
        <path d="M26.6022 104.123C25.501 103.603 14.4053 99.0898 14.4053 99.0898C14.4053 99.0898 12.8207 98.1056 14.429 95.5717C15.5701 93.7728 18.0381 95.2951 18.0381 95.2951C18.0381 95.2951 19.7323 96.3815 21.6932 97.6378C24.186 99.2362 27.1024 101.33 27.4494 101.689C29.2558 103.557 27.7035 104.644 26.6022 104.123V104.123Z" fill="#D58500" />
        <path opacity="0.4" d="M17.4174 94.9926L17.1738 94.9016C17.2598 94.9309 17.3414 94.9614 17.4174 94.9926Z" fill="#CEB79B" />
        <path opacity="0.36" d="M27.5444 103.674C27.3208 104.074 26.9944 104.309 26.602 104.123C26.2357 103.95 24.767 103.337 22.9674 102.594C19.3521 101.102 14.4051 99.0899 14.4051 99.0899C14.4051 99.0899 13.4483 98.4956 13.7766 97.0412V97.0399C13.8706 96.6232 14.0706 96.1361 14.4288 95.5718C15.1357 94.458 16.3516 94.6175 17.1745 94.9009C17.1745 94.9009 15.1115 96.0103 15.6471 97.6672C16.1835 99.3241 19.8467 100.22 20.8128 99.7626C21.7384 99.3241 22.0804 98.7498 22.2804 98.0141C23.0291 98.4944 24.8087 99.8018 25.5188 100.256C25.5188 100.256 21.5927 102.784 27.5451 103.674L27.5444 103.674Z" fill="#B45F00" />
        <path opacity="0.4" d="M24.0502 107.46C24.0502 107.46 21.5225 106.936 22.2357 105.83C22.2357 105.83 20.9507 107.195 24.0502 107.46Z" fill="#9B4300" />
        <path opacity="0.4" d="M26.7722 103.41C26.7722 103.41 24.0197 102.829 25.1627 101.167C25.1627 101.167 23.2859 103.248 26.7722 103.41Z" fill="#9B4300" />
        <path opacity="0.36" d="M22.7126 100.494C22.7126 100.494 23.0048 102.589 24.6131 103.418C20.9978 101.926 14.4051 99.09 14.4051 99.09C14.4051 99.09 13.4483 98.4957 13.7766 97.0413C13.7778 97.0892 13.809 98.7318 14.7209 98.2036C14.7209 98.2036 19.4481 101.761 22.7126 100.494Z" fill="#B45F00" />
        <path d="M26.7048 106.905C26.1573 106.821 13.6004 103.028 13.6004 103.028C13.6004 103.028 12.382 99.8117 15.1807 98.637C15.1807 98.637 15.6547 98.8425 16.4215 99.1783C17.6492 99.7158 19.6263 100.588 21.6015 101.485C24.6586 102.875 27.167 104.271 27.5115 104.554C29.2556 105.987 27.4884 107.024 26.7048 106.905Z" fill="#D58500" />
        <path opacity="0.36" d="M27.4406 106.605C27.2513 106.778 27.042 106.892 26.8414 106.909C26.7953 106.913 26.7498 106.912 26.705 106.905C26.5729 106.885 25.7414 106.649 24.5566 106.302C20.8298 105.212 13.6005 103.028 13.6005 103.028C13.6005 103.028 13.2623 102.136 13.3514 101.119C13.4311 100.207 13.8565 99.1933 15.1808 98.6377C15.1808 98.6377 15.306 98.6919 15.5321 98.7903C15.1877 99.2506 14.2284 100.693 14.9161 101.664C15.7445 102.834 19.723 104.181 21.0472 103.825C21.9729 103.575 22.0557 102.378 22.0221 101.678C23.1234 102.181 24.2072 102.684 25.1422 103.134C25.1422 103.134 23.2018 105.99 27.44 106.605L27.4406 106.605Z" fill="#B45F00" />
        <path opacity="0.4" d="M27.2064 106.294C27.2064 106.294 24.5193 105.727 25.6355 104.104C25.6355 104.104 23.8036 106.136 27.2064 106.294Z" fill="#9B4300" />
        <path opacity="0.36" d="M23.4647 108.002C23.3663 108.007 23.2623 108.009 23.1501 108.006C21.0036 107.956 19.7398 107.67 19.7012 107.661H19.6999L19.7909 108.05L19.8687 108.386L21.094 113.649C21.094 113.649 20.182 113.218 18.9817 112.531C17.1267 111.469 14.581 109.798 13.6435 108.164C13.124 107.259 13.0113 106.256 13.091 105.322C13.0605 105.791 13.4548 108.388 15.1609 105.708C15.1609 105.708 18.6697 108.29 20.3751 106.78C20.3751 106.78 22.5609 107.956 23.4659 108.001L23.4647 108.002Z" fill="#B45F00" />
        <path opacity="0.4" d="M17.0597 108.681C16.6617 108.889 16.2313 108.047 15.9877 107.803C15.7442 107.56 15.7442 109.314 14.9643 108.047C14.851 107.863 14.9438 107.667 15.0995 107.497C15.391 107.178 15.8295 107.037 16.2556 107.106L19.6996 107.66L19.8684 108.385C19.0736 108.274 16.7421 107.585 16.4263 107.559C15.8414 107.511 18.0832 108.144 17.0597 108.68V108.681Z" fill="#9B4300" />
        <path opacity="0.36" d="M24.5566 106.302C20.8298 105.212 13.6005 103.028 13.6005 103.028C13.6005 103.028 13.2623 102.135 13.3514 101.119C13.3993 101.626 13.5968 102.719 14.4252 102.62C14.4252 102.62 21.2023 105.86 22.8592 104.298C22.8592 104.298 23.3214 105.532 24.5566 106.302V106.302Z" fill="#B45F00" />
        <path opacity="0.4" d="M26.8415 106.909C26.7954 106.912 26.7499 106.912 26.7051 106.905C26.7537 106.905 26.7991 106.906 26.8415 106.909Z" fill="#CEB79B" />
        <path opacity="0.4" d="M19.1608 108.05H19.7906L19.8684 108.386L21.0937 113.649C21.0937 113.649 20.1818 113.218 18.9814 112.531C20.657 111.994 19.1608 108.05 19.1608 108.05Z" fill="#9B4300" />
        <path opacity="0.38" d="M23.8563 94.1374C23.9692 93.8506 23.8712 93.5435 23.6375 93.4515C23.4038 93.3596 23.1229 93.5176 23.01 93.8044C22.8972 94.0912 22.9951 94.3983 23.2288 94.4902C23.4625 94.5822 23.7434 94.4242 23.8563 94.1374Z" fill="#E2A040" />
        <path opacity="0.38" d="M26.1809 101.662C26.3383 101.262 26.2596 100.856 26.0052 100.756C25.7507 100.656 25.4167 100.899 25.2592 101.299C25.1018 101.7 25.1804 102.105 25.4349 102.205C25.6894 102.305 26.0234 102.062 26.1809 101.662Z" fill="#E2A040" />
        <path opacity="0.38" d="M26.4637 104.875C26.5991 104.531 26.5067 104.173 26.2574 104.075C26.008 103.976 25.696 104.176 25.5606 104.52C25.4252 104.864 25.5176 105.223 25.767 105.321C26.0163 105.419 26.3283 105.219 26.4637 104.875Z" fill="#E2A040" />
        <path opacity="0.38" d="M22.9028 106.342C22.9863 106.129 22.9297 105.908 22.7764 105.848C22.623 105.788 22.431 105.911 22.3475 106.123C22.264 106.335 22.3206 106.556 22.4739 106.617C22.6273 106.677 22.8193 106.554 22.9028 106.342Z" fill="#E2A040" />
        <path opacity="0.38" d="M19.3992 102.931C13.3565 102.054 16.3937 99.2287 16.4211 99.1782C17.6488 99.7158 19.6259 100.588 21.6011 101.485C21.6235 102.113 21.0735 103.173 19.3992 102.931Z" fill="#E2A040" />
        <path opacity="0.38" d="M21.6933 97.6386C21.6055 97.9762 21.4205 98.3674 21.0473 98.7337C20.113 99.6537 17.7423 98.8863 16.8652 97.6193C15.9882 96.3523 18.0375 95.2959 18.0375 95.2959C18.0375 95.2959 19.7318 96.3822 21.6927 97.6386H21.6933Z" fill="#E2A040" />
        <path opacity="0.38" d="M21.1582 91.7272C21.0579 91.8076 20.9371 91.8823 20.7907 91.9477C19.7449 92.4168 17.2066 92.3557 16.6266 91.4581C16.0555 90.5749 16.9182 89.9725 16.9456 89.9539C17.1916 90.051 17.4015 90.1457 17.5479 90.2117C18.458 90.6204 19.8701 90.958 21.1582 91.7272Z" fill="#E2A040" />
        <path d="M102.756 138.565C102.756 138.565 100.88 138.861 98.5298 139.292C96.2712 139.706 93.5753 140.245 91.6854 140.767C91.5957 140.792 91.5079 140.816 91.4226 140.841L88.6307 133.794L87.0542 129.815C87.0542 129.815 87.8845 129.516 89.0967 129.049C89.4175 128.925 89.765 128.789 90.1313 128.645C92.0673 127.88 94.519 126.856 96.2481 125.94C96.2481 125.94 104.604 133.243 102.756 138.565Z" fill="#E8D4BA" />
        <path d="M91.6851 140.767C87.2794 142.215 85.9856 141.884 82.1997 140.161C80.2855 139.224 74.5256 138.185 74.6913 135.669C74.6109 133.474 75.2949 122.405 77.5037 122.495C78.2094 122.319 78.6174 122.47 79.4427 123.137C82.2813 125.035 87.4214 128.994 91.5549 129.81C91.5549 129.81 96.0012 139.349 91.6851 140.767V140.767Z" fill="#D58500" />
        <path d="M84.0759 117.487L78.8087 121.561L77.4445 122.615L76.1775 123.595L63.8716 133.113L59.9574 136.14C59.9486 136.147 59.9387 136.152 59.9287 136.157L56.3483 137.692C56.2212 137.747 56.1054 137.596 56.1901 137.487L58.5764 134.408C58.5832 134.399 58.5913 134.391 58.6001 134.384L59.0093 134.067L59.0112 134.066L63.2562 130.783L73.9495 122.513L76.3949 120.621L82.7179 115.731C83.0138 115.501 83.4386 115.556 83.6679 115.851L83.8367 116.069C83.8367 116.069 83.8367 116.069 83.8367 116.07L84.1967 116.535C84.4253 116.831 84.3711 117.256 84.0752 117.485L84.0759 117.487Z" fill="#676D54" />
        <path d="M78.8088 121.561L76.1783 123.595C75.4196 123.892 74.8011 124.09 74.8011 124.09L73.9502 122.513L76.3957 120.622C76.3957 120.622 77.7866 120.641 78.8094 121.56L78.8088 121.561Z" fill="#474C2F" />
        <path d="M63.8726 133.113L59.9583 136.14C59.9496 136.147 59.9396 136.153 59.9297 136.157L56.3493 137.693C56.2222 137.747 56.1064 137.597 56.1911 137.488C57.3335 137.531 61.9566 133.89 61.9566 133.89L59.0103 134.068L59.0122 134.067L63.2572 130.783L63.8732 133.112L63.8726 133.113Z" fill="#474C2F" />
        <path d="M77.7882 122.907C76.8178 123.178 75.3209 123.598 73.7083 124.049L73.636 124.07L73.4423 124.124L66.9 125.957C66.8926 125.971 66.7954 126.158 66.6409 126.452C66.6154 126.502 66.588 126.553 66.5587 126.608C66.5444 126.636 66.5294 126.664 66.5145 126.693C66.4995 126.722 66.4833 126.751 66.4677 126.781C66.4441 126.826 66.4192 126.872 66.3942 126.92C66.3774 126.952 66.3606 126.984 66.3432 127.016C66.3257 127.049 66.3077 127.083 66.2902 127.117C66.2547 127.184 66.218 127.253 66.1793 127.324C66.1507 127.377 66.1214 127.432 66.0928 127.487C66.0728 127.523 66.0529 127.56 66.0336 127.598C66.013 127.636 65.9931 127.673 65.9732 127.711C65.9426 127.768 65.9115 127.825 65.8803 127.883C65.8386 127.961 65.7963 128.039 65.7539 128.117C65.7427 128.137 65.7321 128.157 65.7221 128.177C65.6455 128.317 65.5683 128.459 65.4904 128.601C65.4387 128.697 65.3864 128.791 65.3341 128.886C65.3079 128.933 65.2817 128.98 65.2562 129.027C65.1136 129.284 64.9715 129.536 64.8358 129.772C64.8233 129.794 64.8115 129.814 64.799 129.836C64.7623 129.899 64.7261 129.961 64.6906 130.022C64.6314 130.124 64.5741 130.221 64.5187 130.313C64.4975 130.348 64.4776 130.382 64.457 130.416C64.396 130.516 64.3374 130.61 64.2839 130.694C64.2677 130.719 64.2521 130.743 64.2365 130.767C64.2141 130.803 64.1911 130.836 64.1693 130.868C64.1475 130.9 64.1275 130.93 64.1076 130.958C64.0877 130.986 64.069 131.012 64.0509 131.036C63.9793 131.131 63.9232 131.193 63.8858 131.213C63.6722 131.323 63.4286 131.476 63.1645 131.651C63.1552 131.657 63.1465 131.664 63.1371 131.67C62.8861 131.838 62.6164 132.025 62.3386 132.216C62.0333 132.426 61.7182 132.639 61.4055 132.835C61.3986 132.839 61.3918 132.843 61.3837 132.848C60.8816 133.16 60.3877 133.422 59.951 133.543C59.7754 133.599 59.6053 133.641 59.4415 133.662C59.4402 133.662 59.439 133.662 59.4384 133.662C59.0491 133.713 58.699 133.653 58.4243 133.429C58.0431 133.118 58.0748 132.833 58.3184 132.379C58.3203 132.376 58.3215 132.374 58.3228 132.37C58.6018 131.964 58.9344 131.591 59.2671 131.204C59.4359 131.008 59.6059 130.808 59.7679 130.598C60.0332 130.319 60.2768 130.021 60.5023 129.707C60.6661 129.48 60.82 129.244 60.9645 129.002C60.9726 128.989 60.9813 128.975 60.9894 128.961C61.9605 127.331 62.5423 125.428 63.0586 123.771C63.1191 123.552 63.1838 123.336 63.2605 123.129C63.2686 123.107 63.2766 123.086 63.2847 123.064C63.3495 122.893 63.423 122.729 63.509 122.572C63.5183 122.555 63.5277 122.538 63.5376 122.521C63.5495 122.499 63.5613 122.478 63.5744 122.457C63.7712 122.131 64.0285 121.849 64.3835 121.642C64.386 121.64 64.3879 121.639 64.3904 121.637C64.5137 121.565 64.6489 121.502 64.7971 121.449C64.8706 121.441 64.9454 121.433 65.0208 121.426C65.5091 121.381 66.051 121.366 66.6191 121.369C68.803 121.382 71.3786 121.675 72.8125 121.671C75.2724 121.592 76.2235 120.379 77.7882 122.908V122.907Z" fill="#D58500" />
        <path opacity="0.36" d="M73.7086 124.049C73.665 124.062 73.4906 124.11 73.4427 124.124L66.9004 125.957C66.6537 126.433 64.6847 130.254 63.8849 131.213C62.5214 131.912 61.0308 133.459 59.4406 133.662C58.7081 133.763 57.7251 133.225 58.3175 132.379C60.2198 132.466 60.8346 131.384 60.5008 129.7C60.7238 129.392 60.9237 129.081 61.1112 128.755C61.6643 128.785 63.6377 128.724 63.8849 125.377C63.9348 124.71 63.4458 124.187 63.054 123.765C63.5642 121.731 64.5589 121.198 66.6201 121.368C68.3685 121.599 71.3734 123.57 73.7086 124.05V124.049Z" fill="#B45F00" />
        <path d="M67.6244 129.273C67.6244 129.273 66.7922 131.076 70.253 130.859C73.7144 130.643 74.7983 128.11 73.8166 127.864C72.8349 127.618 67.6244 129.273 67.6244 129.273Z" fill="#E8D4BA" />
        <path opacity="0.4" d="M67.6244 129.273C67.6244 129.273 66.7922 131.076 70.253 130.859C73.7144 130.643 74.7983 128.11 73.8166 127.864C72.8349 127.618 67.6244 129.273 67.6244 129.273Z" fill="#CEB79B" />
        <path d="M67.6244 129.273C67.6244 129.273 66.7922 131.076 70.253 130.859C73.7144 130.643 74.7983 128.11 73.8166 127.864C72.8349 127.618 67.6244 129.273 67.6244 129.273Z" fill="#D58500" />
        <path opacity="0.36" d="M67.6244 129.273C67.6244 129.273 66.7922 131.076 70.253 130.859C73.7144 130.643 74.7983 128.11 73.8166 127.864C72.8349 127.618 67.6244 129.273 67.6244 129.273Z" fill="#B45F00" />
        <path opacity="0.36" d="M75.827 122.945C75.827 122.945 68.1971 124.572 67.0971 124.363C65.9971 124.154 64.9126 125.963 64.9126 125.963L75.827 122.945V122.945Z" fill="#B45F00" />
        <path d="M76.6363 126.428C76.0408 127.175 75.226 128.303 74.2238 128.414C72.6809 128.545 67.907 130.26 67.646 130.383C67.4137 130.506 66.1735 134.271 66.1735 134.271C66.4202 135.133 66.944 137.057 66.8911 137.85C66.8325 138.724 66.3591 138.86 65.725 138.433C65.593 138.344 65.3046 138.031 65.0174 137.709C64.7271 137.385 64.4381 137.05 64.3098 136.925C64.3017 136.917 64.2936 136.908 64.2849 136.898C63.7162 136.277 62.6105 135.361 62.334 134.631C62.9027 132.694 63.4072 126.389 64.9514 125.675C67.5146 124.875 75.915 122.941 76.8636 122.7C78.3025 123.209 77.6715 124.989 76.6363 126.428Z" fill="#D58500" />
        <path opacity="0.36" d="M76.636 126.428C75.9857 127.219 75.232 128.352 74.1089 128.423C72.5891 128.596 67.8675 130.265 67.6464 130.383C67.414 130.506 66.1739 134.271 66.1739 134.271C66.1739 134.271 67.2166 136.861 66.9506 137.726C66.9176 137.834 66.884 138.054 66.8329 138.141C65.716 135.107 63.4767 136.084 63.4767 136.084L63.478 136.09C62.9927 135.609 62.4982 135.081 62.335 134.622C62.4029 134.226 62.4845 133.835 62.5629 133.431C66.7762 132.561 64.8502 127.973 63.5621 128.613C64.198 125.957 64.1625 125.721 66.907 125.127C67.5561 125.413 73.7153 128.057 76.636 126.429V126.428Z" fill="#B45F00" />
        <path opacity="0.36" d="M75.1104 127.435C75.1104 127.435 74.7672 127.817 74.2234 128.414C74.1854 128.418 74.1474 128.421 74.1088 128.423C72.589 128.597 67.8674 130.265 67.6463 130.383C67.4139 130.506 66.1738 134.271 66.1738 134.271C66.1738 134.271 66.2292 134.458 66.3071 134.749C65.4045 134.367 64.1768 134.037 64.1768 134.037C67.1268 133.013 66.0473 127.553 66.0473 127.553C70.4499 128.866 75.1111 127.435 75.1111 127.435H75.1104Z" fill="#B45F00" />
        <path d="M77.6614 131.844C77.9529 132.897 70.0097 136.547 70.0097 136.547C70.0097 136.547 71.5078 140.454 71.0269 140.752C70.546 141.049 68.3734 140.966 68.1815 140.684C67.9897 140.403 65.8893 135.556 65.6407 135.007C65.3922 134.457 65.642 133.644 65.8357 133.286C65.9173 133.134 67.3257 132.27 68.9221 131.324L68.9309 131.319C71.101 130.033 73.615 128.597 73.615 128.597C74.0199 128.345 74.3868 128.139 74.7194 127.974C79.1899 125.745 77.3898 130.864 77.662 131.844H77.6614Z" fill="#D58500" />
        <path opacity="0.36" d="M70.0099 136.547C70.0099 136.547 71.1167 139.434 71.1217 140.434C71.123 140.597 71.0943 140.71 71.0264 140.752C70.7941 140.895 70.1674 140.95 69.5595 140.937C68.9092 140.922 68.2801 140.829 68.181 140.684C68.1567 140.648 68.1007 140.537 68.0209 140.37C68.4383 139.857 68.4763 138.821 68.0614 137.78C67.6024 136.627 66.7434 135.859 66.0432 135.922C65.8439 135.468 65.6957 135.13 65.6402 135.007C65.3917 134.458 65.6415 133.644 65.8352 133.287C65.8813 133.2 66.3559 132.884 67.0499 132.455C68.2595 133.173 70.8221 133.294 73.6382 132.656C74.5121 132.459 75.3331 132.206 76.0725 131.916C74.8634 134.115 70.0092 136.548 70.0092 136.548L70.0099 136.547Z" fill="#B45F00" />
        <path opacity="0.4" d="M74.0277 133.072C74.0277 133.072 70.7724 135.57 68.0093 134.865C68.0093 134.865 69.9726 136.668 69.754 138.79L74.0277 133.072Z" fill="#9B4300" />
        <path opacity="0.36" d="M69.3419 135.857C69.3419 135.857 76.2224 132.564 76.4423 131.621C76.7581 130.267 75.7671 131.714 75.4681 132.064C75.1691 132.414 70.7266 135.19 69.3413 135.857H69.3419Z" fill="#B45F00" />
        <path opacity="0.36" d="M71.1217 140.434C71.1229 140.597 71.0943 140.71 71.0264 140.752C70.794 140.896 70.1674 140.95 69.5595 140.937L68.4551 137.869L71.1211 140.434H71.1217Z" fill="#B45F00" />
        <path d="M75.8879 137.819C75.7465 137.885 75.5833 137.96 75.4936 138.002C76.0661 137.777 76.6703 138.28 76.4548 138.94C75.6543 140.725 71.4467 141.337 70.6843 141.231C70.1043 141.122 69.312 139.645 68.8193 138.646C68.4213 137.955 68.1634 137.189 68.5365 136.527C68.6075 136.3 68.6499 136.284 68.9775 136.072C71.1726 134.696 74.127 133.799 75.7228 132.345C75.7235 132.348 77.3997 137.113 77.4009 137.118C77.0073 137.3 76.2729 137.64 75.8867 137.819H75.8879Z" fill="#D58500" />
        <path opacity="0.36" d="M76.4555 138.94C74.7164 138.551 71.3097 140.041 71.3097 140.041C72.1027 139.182 70.751 138.132 70.7192 138.108C72.6801 138.938 75.0895 136.816 75.0895 136.816C75.5367 137.273 76.2269 137.034 76.5103 137.531C76.5757 137.646 76.6199 137.8 76.6336 138.011C76.4517 137.92 76.2717 137.825 76.0911 137.725C76.0743 137.733 76.0537 137.742 76.0319 137.753C75.8787 137.825 75.6196 137.95 75.495 138.002C76.121 137.778 76.6567 138.303 76.4561 138.94H76.4555Z" fill="#B45F00" />
        <path opacity="0.36" d="M102.756 138.565C100.716 138.864 93.6135 140.131 91.0789 140.945C87.8187 141.841 86.9921 142.049 84.4494 141.092C81.8613 139.896 78.6671 139.076 76.0908 137.725C75.9201 137.804 75.6311 137.939 75.4885 138.004C76.059 137.774 76.6732 138.276 76.4558 138.939C75.6554 140.725 71.4477 141.337 70.6853 141.231C70.1054 141.121 69.3131 139.645 68.8204 138.646C68.1881 137.553 68.0785 136.444 69.3318 135.855C70.4362 136.388 74.8923 137.175 75.1621 132.812C75.3813 132.645 76.1911 131.968 76.3723 131.804C77.8318 137.671 82.7047 138.582 84.878 137.864C88.0448 136.485 89.5802 132.324 89.5242 128.883C91.6657 128.049 94.313 126.961 96.2496 125.94C96.2496 125.94 104.605 133.243 102.756 138.565H102.756Z" fill="#B45F00" />
        <path opacity="0.4" d="M75.4877 138.005C75.4877 138.005 73.6539 138.36 73.3954 138.837C73.1375 139.314 73.5523 139.775 73.1867 139.969C72.8211 140.163 72.6311 139.965 72.7855 139.373C72.94 138.781 72.6074 138.956 71.7702 139.144C70.9331 139.333 71.6214 138.542 72.2629 138.628C72.9045 138.714 75.8751 137.825 75.8751 137.825L75.4877 138.005Z" fill="#9B4300" />
        <path opacity="0.36" d="M73.6133 128.594C73.6133 128.594 76.876 126.91 76.6281 126.594C76.3802 126.278 75.7224 126.27 75.2135 126.83C74.7046 127.39 74.9662 128.001 73.6133 128.594Z" fill="#B45F00" />
        <path opacity="0.4" d="M58.6802 132.757C58.6802 132.757 61.1574 132.211 60.1128 130.721C60.1128 130.721 61.8227 132.582 58.6802 132.757Z" fill="#9B4300" />
        <path opacity="0.4" d="M64.3076 136.629C64.3076 136.629 65.9988 135.562 66.3401 137.893C66.3401 137.893 65.8132 136.257 64.3076 136.629Z" fill="#9B4300" />
        <path opacity="0.36" d="M102.755 138.565C100.921 138.832 93.8036 140.107 91.4223 140.841C88.2872 141.626 87.384 142.188 84.9198 141.257C80.866 134.651 80.0905 126.192 81.9424 124.883C84.0104 126.252 86.9075 128.046 89.0964 129.049C91.383 128.164 94.1667 127.035 96.2478 125.94C96.2478 125.94 104.604 133.244 102.755 138.566V138.565Z" fill="#B45F00" />
        <path opacity="0.36" d="M98.53 139.292C96.2714 139.705 93.5755 140.245 91.6856 140.767C91.6015 140.794 91.5137 140.819 91.4228 140.84C92.9613 135.387 91.1244 130.96 90.4398 129.588C90.2959 129.299 90.2031 129.145 90.2031 129.145C93.5549 127.772 97.6411 137.138 98.53 139.292Z" fill="#B45F00" />
        <path opacity="0.4" d="M78.0658 138.644C77.3999 138.381 76.7428 138.086 76.0906 137.725C76.0906 137.725 74.8934 136.91 75.089 136.816C76.2469 136.258 77.5681 137.928 78.0658 138.644Z" fill="#9B4300" />
        <path opacity="0.38" d="M60.0411 131.706C59.8437 131.824 59.5266 131.659 59.3335 131.337C59.3067 131.293 59.2843 131.248 59.2656 131.204C59.4344 131.008 59.6045 130.808 59.7664 130.598C59.8705 130.669 59.9707 130.775 60.0498 130.907C60.2429 131.23 60.2392 131.588 60.0411 131.707V131.706Z" fill="#E2A040" />
        <path opacity="0.38" d="M65.0174 137.709C64.7271 137.385 64.4381 137.05 64.3098 136.925C64.3017 136.917 64.3247 136.88 64.3453 136.872C64.8704 136.649 65.388 136.687 65.502 136.955C65.5954 137.176 65.3868 137.483 65.0174 137.709Z" fill="#E2A040" />
        <path opacity="0.38" d="M76.6054 121.581C76.3831 121.992 75.6568 122.322 74.7785 122.371C73.8142 122.424 72.9945 122.119 72.812 121.669C73.0774 121.676 73.2754 121.676 73.3838 121.666C74.2733 121.577 75.3055 121.115 76.1507 121.356C76.3058 121.4 76.4591 121.48 76.6054 121.581Z" fill="#E2A040" />
        <path opacity="0.38" d="M76.8515 122.704V122.712C76.9238 123.485 75.369 125.277 72.4333 125.505C70.645 125.645 69.7355 125.093 69.2896 124.521C72.632 123.689 76.3756 122.828 76.8235 122.711C76.8353 122.708 76.8447 122.706 76.8521 122.704H76.8515Z" fill="#E2A040" />
        <path opacity="0.38" d="M73.6356 130.549C71.8684 132.118 68.9209 131.324 68.9209 131.324L68.9296 131.319C71.0998 130.033 73.6138 128.597 73.6138 128.597C74.0187 128.346 74.3856 128.139 74.7182 127.974C74.854 128.329 75.0321 129.31 73.635 130.549H73.6356Z" fill="#E2A040" />
        <path d="M84.076 117.487L78.8088 121.561L77.4447 122.615L77.1245 122.04L83.9166 116.928C83.9166 116.928 84.1234 116.673 83.8375 116.072L84.1975 116.537C84.4261 116.833 84.3719 117.258 84.076 117.486V117.487Z" fill="#474C2F" />
        <path d="M78.4507 119.96C78.0894 120.225 77.7244 119.744 78.4033 119.448C79.0816 119.151 80.0552 118.223 81.0774 117.526C81.8934 116.971 82.3512 116.332 82.3151 116.807C82.297 117.045 81.7121 117.407 81.2836 117.667C79.9045 118.501 78.8643 119.657 78.4507 119.96Z" fill="#B1B7A5" />
        <path d="M57.8184 136.238C57.9432 136.123 57.991 135.971 57.9252 135.9C57.8593 135.829 57.7048 135.865 57.58 135.98C57.4552 136.095 57.4074 136.247 57.4732 136.318C57.5391 136.389 57.6936 136.353 57.8184 136.238Z" fill="#B1B7A5" />
        <path d="M59.0048 135.339C59.2142 135.145 59.2903 134.887 59.1747 134.762C59.0591 134.637 58.7956 134.692 58.5862 134.886C58.3768 135.079 58.3007 135.338 58.4163 135.463C58.5319 135.588 58.7954 135.532 59.0048 135.339Z" fill="#B1B7A5" />
        <path d="M131.668 137.788C130.37 139.071 128.672 140.113 126.685 140.805C124.178 141.637 121.38 142.632 118.58 143.375C118.099 143.505 104.808 141.27 100.654 140.606C99.1944 140.383 97.7343 140.143 96.2842 139.926C95.9715 139.802 95.8046 139.82 95.5361 140.016C95.196 140.197 94.8678 140.343 94.509 140.457C92.811 141.067 91.0345 140.402 89.6498 139.281C88.237 135.905 86.374 131.512 84.9432 128.14L84.8921 128.108C88.4987 127.591 111.835 122.862 114.047 121.521C114.362 121.356 114.683 121.191 115.012 121.03C117.7 119.724 120.96 118.789 126.249 121.747C126.666 121.983 132.538 125.693 133.641 127.667C135.33 131.446 134.352 135.135 131.668 137.788Z" fill="#464558" />
        <path d="M131.847 137.817C130.35 137.629 117.113 123.581 115.077 121.23C114.673 119.919 114.559 118.494 113.909 117.332C107.762 106.273 104.038 96.3252 103.878 83.6356C103.722 79.575 105.531 73.7702 108.598 71.9769C112.826 69.9655 119.51 73.3186 123.188 80.3853C133.404 100.194 143.619 130.591 131.847 137.817Z" fill="#464558" />
        <path opacity="0.25" d="M131.847 137.817C131.814 137.837 131.753 137.827 131.669 137.788C130.37 139.071 128.672 140.113 126.685 140.805C124.178 141.637 121.38 142.633 118.58 143.375C118.099 143.505 117.607 143.271 117.093 143.23C116.326 143.113 115.575 142.99 114.817 142.867C115.27 141.035 115.892 139.089 116.456 137.241C117.577 133.559 118.459 130.267 117.271 129.034C118.753 128.738 120.076 128.336 121.254 127.838C124.196 126.592 126.224 124.75 127.523 122.481C136.431 106.924 111.042 71.354 111.042 71.354C114.518 71.6275 119.658 73.5397 123.188 80.386C129.001 91.656 134.813 106.354 136.576 118.262C137.911 127.283 136.921 134.702 131.847 137.817Z" fill="#2B2B37" />
        <path opacity="0.25" d="M131.847 137.817C131.814 137.837 131.753 137.827 131.669 137.788C130.37 139.071 128.672 140.113 126.685 140.805C124.178 141.637 121.38 142.632 118.58 143.375C118.099 143.505 117.607 143.271 117.093 143.23C116.326 143.113 115.575 142.99 114.817 142.867C115.27 141.035 115.892 139.089 116.456 137.241L120.289 132.053C120.289 132.053 133.856 137.905 136.059 122.101C136.247 120.755 136.419 119.476 136.576 118.262C137.911 127.283 136.921 134.702 131.847 137.817Z" fill="#2B2B37" />
        <path opacity="0.6" d="M120.878 135.31L123.619 141.834L119.114 143.174L120.878 135.31Z" fill="#2B2B37" />
        <path d="M120.233 143.744C112.127 142.445 103.956 141.109 95.846 139.861C89.718 143.852 80.9651 130.543 77.9658 126.916C79.2203 126.356 82.1679 125.051 82.2513 124.909C86.5437 126.054 89.6563 126.04 93.5588 125.725L93.5712 125.733C99.7491 125.493 105.996 124.349 111.8 122.114C113.299 121.676 113.531 121.269 114.091 121.567C120.427 126.638 122.016 135.976 120.233 143.744Z" fill="#575771" />
        <path d="M117.888 136.776C115.809 137.642 109.136 134.962 107.106 133.755C106.999 134.693 100.839 139.985 101.535 137.887C103.615 137.116 105.334 135.479 106.726 133.515C102.771 130.327 100.161 127.086 98.9761 125.286C99.1212 125.268 99.2564 125.251 99.3978 125.239C100.591 126.785 102.865 129.991 106.982 133.143C108.627 130.72 110.891 126.006 111.43 122.241C111.564 122.196 111.7 122.144 111.824 122.102C111.473 124.777 110.143 129.242 107.368 133.387C109.193 134.473 115.909 137.134 117.744 136.299C117.979 136.189 118.12 136.675 117.888 136.777L117.888 136.776Z" fill="#2B2B37" />
        <path opacity="0.25" d="M91.7876 125.88C92.1227 126.267 92.5513 126.528 92.9798 126.771C93.9459 127.306 94.9338 127.755 94.9787 129.379C95.0453 131.728 93.1218 131.021 94.7843 133.61C96.4643 136.012 95.8769 137.826 95.0049 140.299C95.2833 140.189 95.5698 140.046 95.8644 139.873C96.0065 139.797 96.1796 139.915 96.336 139.94C96.336 139.94 98.0963 140.22 100.671 140.637C96.6923 137.32 100.106 133.558 98.1349 130.438C97.1601 128.934 97.0523 127.552 97.2853 125.448C95.6427 125.512 93.4837 125.72 91.8001 125.888L91.7876 125.88Z" fill="#2B2B37" />
        <path opacity="0.14" d="M120.179 131.488C120.179 131.488 116.101 131.949 112.896 128.156C109.687 124.37 114.352 121.713 114.352 121.713L114.358 121.717C115.682 122.681 118.731 126.017 120.179 131.488Z" fill="#A4A4A4" />
        <path opacity="0.25" d="M82.9272 133.214C85.7888 136.076 88.7283 140.035 93.0057 140.68C94.381 140.9 95.5228 139.541 96.9088 140.006C104.679 141.23 112.508 142.472 120.277 143.727C121.043 140.264 121.228 136.596 120.571 133.11C119.872 135.709 114.882 137.639 112.537 138.179C109.027 139.001 106.138 137.102 102.583 136.336C93.4062 135.222 93.6118 139.985 82.9316 133.189L82.9279 133.214L82.9272 133.214Z" fill="#2B2B37" />
        <path opacity="0.14" d="M91.7779 129.666C91.5182 131.727 83.106 131.243 81.1806 131.105C79.6875 129.215 77.9658 126.916 77.9658 126.916C79.2203 126.356 82.1679 125.051 82.2513 124.909C85.3727 125.756 88.0144 125.959 90.5558 125.898C90.7719 126.124 92.0433 127.531 91.7785 129.666H91.7779Z" fill="#A4A4A4" />
        <path opacity="0.25" d="M122.351 120.613C120.498 121.026 116.708 120.356 120.602 121.644C121.522 121.947 121.95 122.136 122.041 122.24C122.334 122.58 119.09 122.07 117.223 121.838C116.589 121.76 115.06 121.203 115.058 121.196C114.685 119.879 114.3 118.593 113.909 117.332C115.969 117.919 123.969 120.251 122.351 120.613Z" fill="#2B2B37" />
        <path d="M112.46 114.641C106.972 105.028 98.2951 80.0203 108.598 71.9768C117.249 78.6405 120.937 116.491 112.46 114.641Z" fill="#575770" />
        <path opacity="0.25" d="M112.46 114.641C106.972 105.028 98.2951 80.0203 108.598 71.9768C117.249 78.6405 120.937 116.491 112.46 114.641Z" fill="#2B2B37" />
    </g>
    <defs>
        <clipPath id="clip0_13953_8036">
            <rect width="170.223" height="171.5" fill="white" transform="translate(13.0669 12.25)" />
        </clipPath>
    </defs>
</svg>
