<svg width="240" height="241" fill="none" xmlns="http://www.w3.org/2000/svg"><g clip-path="url(#a)"><mask id="b" style="mask-type:luminance" maskUnits="userSpaceOnUse" x="31" y="15" width="209" height="211"><path d="M239.94 15.5H31.5v210.02h208.44V15.5Z" fill="#fff"/></mask><g mask="url(#b)"><path d="M38.25 138.52c.36-.45.59-.31.82-.27.68-.18 8.56-8.02 8.88-7.38.9 1.8 15.95 10 16.13 10.06.68.27-6.34 16.72-9.97 16.26-3.58-.45-14.23-15.81-15.81-17.72-.14-.04-.41-.5-.05-.95Z" fill="#21212B"/><path d="M87 174.77c-7.02 2.31-19.07 6.21-30.49-12.82-1.9-1.36-2.04-35.98 2.77-44.68 4.03-9.88 11.6-21.07 21.2-27.68 0 0 5.3 16.53 5.26 23.47-.1 16.8 1.81 61.4 1.27 61.71Z" fill="#454358"/><path opacity=".6" d="M87.82 172.69c-.09.72-.27 1.77-.81 2.08-5.35 1.36-17 5.03-16.32-4.57 1.23-9.34-9.7-11.65-9.1-12.01 7.3-4.35 16.85 10.28 24.74.22.54 3.4 1.86 10.16 1.5 14.28Z" fill="#2B2B37"/><path opacity=".29" d="m83.74 90.54-2.94-1c-1.54 1.77-3.58 4.08-4.49 5.48C63.04 116 76 121.44 61.81 147.1c-2.3 4.21 8.98 18.94 16.36 16.08 0 .05 5.8-72 5.57-72.63Z" fill="#2B2B37"/><path opacity=".48" d="M80.7 89.59c-18.89 20.84-5.25 50.38-4.66 75.3 10.88-22.97 12.5-49.25 7.8-74.26l-3.13-1.04Z" fill="#2B2B37"/><path d="M192.36 194.12c-18.17-.45-32.4-11.69-29.36-26.33-1.32 0-2.63-.13-4-.4-3.89 14.04 2 26.73 17.1 30.8 5.16 1.37 10.46 1.96 15.67 3.05a11 11 0 0 1 .59-7.12Z" fill="#74A352"/><path d="M162.54 170.29c-.54 6.66 2.45 13.18 8.84 17.44 4.94 6.98 12.23 10.24 20.07 11.47.05.68.14 1.4.32 2.08-14.18-2.54-33.03-3.94-30.22-23.47-.05 0 .54-4.99 1-7.52Z" fill="#568040"/><path opacity=".49" d="M173.74 189.23c5.61 3.12 12.14 4.62 18.62 4.94a11.11 11.11 0 0 0-.9 3.98c-10.75-1.22-15.55-6.57-17.72-8.92Z" fill="#AED888"/><path d="M228.97 191.67a26.76 26.76 0 0 1 10.97-4.3c-4.8-11.28-18.3-15.4-30.54-16.04-20.85.9-27.96-6.89-27.74-28.64.14-9.83 1.77-20.39-2.49-29.45-3.9-8.34-12-13.78-19.7-18.26-1.46 1.27-1 .72-2.23 1.5 4.03 1.13 7.43 7.79 10.42 10.96 9.11 9.29 12.06 16.4 11.47 26.14-.46 9.34-4.13 18.94-3.08 28.37 2.17 20.84 18.03 19.17 30.94 17.54 6.98-.87 16.63 2.13 21.98 12.18Z" fill="#74A352"/><path d="M205.4 179.53c9.93-.95 18.63 2.76 23.62 12.1.27-.18.5-.27.77-.5-10.83-26.6-22.57-10.97-41.37-16.36-11.42-5.07-12.24-19.62-6.71-29.45 0-.9 2.45-24.06-2.8-32.76-4-7.98-11.88-13.23-19.45-17.67-1.45 1.27-1 .72-2.22 1.5 4.13 1.17 7.34 7.74 10.6 11.19 20.03 19.66 7.12 31.94 8.16 54.28 1.81 19.12 16.09 19.85 29.4 17.67Z" fill="#568040"/><path opacity=".49" d="M222 177.45c-3.77-3.18-8.57-4.49-13.2-6.12 6.12.27 12.56 1.4 18.13 3.85 1.32 4.03 7.8 9.7 11.87 10.06.41.68.73 1.4 1.1 2.13-3.45.54-6.8 1.81-9.8 3.58-.36-5.26-4.16-10.2-8.1-13.5Zm-26.1-7.12c-3.54.55-9.43.77-11.47-2.94-1.86-3.31-1.77-7.2-1.72-10.92l.04-1.32c2.13 10.1 7.89 13.78 13.78 15.18h-.64Z" fill="#AED888"/><path d="M216.28 179.08c1.82.9 3.31 2.17 4.58 3.62-3.85-2.44-8.43-3.35-13.87-3.26-.45 0-1 .05-1.58.14 3.53-1.5 7.2-2.36 10.87-.5Z" fill="#3E5C2E"/><path opacity=".49" d="M181.44 120.58a28.54 28.54 0 0 0-2.5-7.8 33.31 33.31 0 0 0-8.06-10.1s4.03 11.24 10.56 17.9Z" fill="#AED888"/><path d="M143.92 88.63c1.81-1.76-1.81-8.88-4.71-11.82-2.9-2.95-6.7-3.85-8.52-2.04-1.81 1.81-.95 5.62 1.95 8.52 2.85 2.94 9.47 7.16 11.28 5.34Z" fill="#74A352"/><path d="M133.68 84.24c-3.17-2.54-4.76-6.48-3.49-8.8.77-1.4 2.4-1.9 4.26-1.44-.14.81-.1 1.67.18 2.54.73 2.58 3 4.16 5.08 3.53.54-.18 1-.45 1.35-.82 1.1 1.95 3.54 5.8 2.77 7.25 0-.04-6.98.28-10.15-2.26Z" fill="#568040"/><path d="M144.1 180.21c-10.06 8.66-66.83 4.85-67.24 1.81-.86-6.52-.73-26.19-.64-29.36 1.27-20.89-6.75-44.54 3.95-62.62 2.67-3.8 12.1-4.67 16.49-7.66 13.82-5.48 29.59-4.67 43.23.9 6.2 2.05 13.46 3.63 18.48 8.07 0 .05.05.1.05.18 4.26 8.48-9.24 73-14.32 88.68Z" fill="#575770"/><path opacity=".25" d="M144.1 180.21c-4.44 12.32-60.67 10.88-65.11 10.74-4.8-15.13-2.13-31.63-2.68-47.35 27.55-8.93 52.16-32.22 61.9-60.86 6.07 1.95 15.09 4.13 20.12 8.57 0 .04-3.13 58.04-14.23 88.9Z" fill="#2B2B37"/><path opacity=".25" d="M144.1 180.21c-9.92 8.61-60.67 10.88-65.11 10.74-3.72-10.74-2.63-22.75-2.81-33.98 39.92-13.92 54.15-51.3 65.56-73.05 4.67 1.45 12.96 4.22 16.59 7.43 4.48 3.36-8.66 73.18-14.23 88.86Z" fill="#2B2B37"/><path opacity=".25" d="M144.1 180.21c-.77 1.72-63.57 11.92-65.11 10.74-3.27-8.93-2.59-18.94-2.86-28.37 56.05-11.78 63.4-58.18 68.15-77.84 4.4 1.4 10.74 3.62 14.14 6.66 5.12 4.53-9.24 73.09-14.32 88.81Z" fill="#2B2B37"/><path opacity=".25" d="M144.1 180.21c-4.3 12.37-60.67 10.88-65.11 10.74a42.95 42.95 0 0 1-2.22-9.83c23.2-12.15 68.33-57.91 82.01-88.4.73 4.7-7.3 66.2-14.68 87.49Z" fill="#2B2B37"/><path opacity=".25" d="M144.1 180.21c-10.06 8.66-60.67 10.83-65.11 10.74a40.56 40.56 0 0 1-2.09-8.93c53.88-16.9 61.8-47.35 81.47-90.49 1.64 5.03-6.02 68.47-14.27 88.68ZM89.5 85.82c5.53 16.05-5.4 32.04-15.13 44.05.81 8.52 1.3 16.67.9 25.01 3.99-13.37 30.77-58.36 61.67-72.5-10.38-3.58-40.96 1.36-47.44 3.44Z" fill="#2B2B37"/><path opacity=".25" d="M90.9 90.63c2.72 3.76 6.67 6.7 11.02 6.57 8.7-.23 18.75-4.3 27.1-6.7 11.5-3.32 26.68-.96 28.86.08-4.94-3.71-14.28-5.89-19.62-7.84-10.92-3.9-20.12-4.21-31.59-2.49-3.9.59-15.5 4.99-18.3 5.94a22.4 22.4 0 0 0 2.53 4.44Z" fill="#2B2B37"/><path d="M94.48 80.12s7.03 17.08 8.34 18.8c1.36 1.72-8.7 10.6-8.97 10.42-.63-.5-5.4-30.86.63-29.22Z" fill="#2B2B37"/><path opacity=".25" d="M93.8 97.97c1.05.18 2.22-1 2.68-1.77.77-1.22.31-2.31-1.27-2.4-4.26-.23-2.22 4.08-1.4 4.17Z" fill="#454357"/><path d="M99.74 92.4c-2.45-5.44-5.26-12.33-5.26-12.33-2.62-.72-3.21 4.71-2.99 11.06 2 1.5 5.8 1.76 8.25 1.27Zm3.08 6.47c-.32-.45-1-1.72-1.77-3.48-2.85 1.63-6.43 4.03-8.51 6.93.54 3.9 1.17 6.84 1.35 6.93.32.27 10.38-8.65 8.93-10.38Z" fill="#21212B"/><path d="m133.45 79.2-2.26 5c-30.86 9.64-47.17 44.99-56 73.26-2-27.73 17.25-54.78 35.92-69 3.9-3.04 7.89-5.99 12.06-8.07a18.9 18.9 0 0 1 10.28-1.18Z" fill="#2B2B37"/><path opacity=".25" d="M101.92 96.56a96.12 96.12 0 0 0-8.7 9.7c2.53-.14 5.03-1.86 6.52-3.72 1.45-1.8 2.18-5.16 2.18-5.98Z" fill="#454357"/><path d="m133.45 79.2-2.26 5a51.86 51.86 0 0 0-18.04 9.46c-2.44.23-4.9-.13-7.16-.86 3.63-3.21 7.66-6.48 11.56-9.06 2.17-1.45 12.46-5.17 15.9-4.53Z" fill="#21212B"/><path opacity=".14" d="M80.48 104.45c4.22-.77 7.52-8.8 3.63-11.96-2.45-1.23-5.8 3.71-6.21 5.7-.23 1.05-1.5 6.98 2.58 6.26Zm36.07-5.35c-3.13 3.3-6.93 6.84-8.47 11.28-.23.68.36 1.4 1.09 1.23.63 1.77-5.3 5.53-6.53 8.1-.45.92-.5 3.04.86 2.95 6.62-5.43 12.23-12.28 17.13-19.25 1.13-1.5 3.67-6.3.36-6.53-1.72-.23-3.17 1-4.44 2.22Z" fill="#D8D8D8"/><path d="M162.4 221.08a267.71 267.71 0 0 1-48.39 4.22c-17.53 0-33.35-1.45-47.48-4.04 3.44-14.81 4.44-18.98 8.65-30.76 1.32.09 65.16-3.45 70.91-5.85 4.08 12.37 6.85 20.53 14.05 31.81a21.6 21.6 0 0 1 2.27 4.62Z" fill="#575770"/><path opacity=".25" d="M162.4 221.08a256.7 256.7 0 0 1-34.43 3.9c-10.29-10.33-27.28-10.88-37.34-.59-5.7-.45-11.23-1.09-16.54-1.86-.18-6.8-.5-13.05-2.85-20.07 1.27-4.4 2.4-7.48 3.9-11.7 0 0 65.24-3.66 70.95-6.06 3.95 13.73 9.38 23.65 16.32 36.38Z" fill="#2B2B37"/><path opacity=".25" d="M162.4 221.08a245.46 245.46 0 0 1-26.37 3.4c-1.35-11.64-5.43-22.47-11.23-32.58a155.19 155.19 0 0 0 21.3-7.25c4.07 12.37 6.84 20.53 14.04 31.81a21.66 21.66 0 0 1 2.27 4.62Z" fill="#272734"/><path opacity=".25" d="M162.36 221.08c-1.09.23-2.22.41-3.35.6-23.06-34.13-62.9-4.68-75.99-10.11-7.52-3.13-10.7-9.25-10.01-14.78.18-1.3 3.44-8.97 3.4-9.01 12.18 1.9 63.88-.77 69.64-3.17 3.99 14 9.38 23.7 16.31 36.47Z" fill="#2B2B37"/><path opacity=".25" d="M75.04 192.04c3.09 1.8 13.87 19.48 37.89 6.34 4.7-2.26 10.01-5.07 15.58-7.57-5.57 1.59-53.28.5-53.47 1.23Z" fill="#272734"/><path opacity=".25" d="M150.67 197.97c-10.42-2.72-21.57-3.3-32.3-2.26-6.53.59-16.55 4.53-22.84 6.3-10.15 2.8-18.22-.5-21.4-8.52.37-.86.78-2.22 1-3.04-.36 1.27 56.24.05 70.92-5.84 1.5 4.62 3.08 9.47 4.62 13.36Z" fill="#272734"/><path d="M142.47 188.14c-15.86 9.33-53.2 13-67.97 3.76.55-3.17 1.59-8.93 2.13-12 21.61 6.79 44.4 2.4 66.25-2.86.86 2.45-.55 10.7-.41 11.1Z" fill="#272734"/><path opacity=".25" d="M83.2 181.62c-3.13 3.9-7.48 4.75-7.7 4.8.4-2.4.86-4.85 1.13-6.53 2.18.68 4.35 1.27 6.57 1.73Z" fill="#454357"/><path d="M146.64 186.28c-7.52 4.85-26.37 9.47-37.3 10.51-.31-.54-2.58-2.4-3.35-2.76-3.76-1.81-2.35-4.71-4.26-7.16-1.45-1.27-5.07-1.63-5.84-3.53 12.05 1.54 40.6-5.98 49.98-8.2.81 2.49.63 10.64.77 11.14Z" fill="#21212B"/><path d="M134.22 80.2c-.81 2.14-2.58 4.99-4.35 6.44-3.94 2.54-8.83 3.13-13.4 3.72-3 .22-6 .22-8.9.72-2.26.36-4.43 1.04-6.7.9-3.35-.4-6.7-1.67-9.42-3.62a9.1 9.1 0 0 1-3-3.67c-.67-1.45-1.13-5.16.96-5.57.36 0 .68.32 1 .54.68.6 1.36 1.14 2.04 1.68.63.5 1.26.9 1.94 1.36a25.43 25.43 0 0 0 16.72 4.26c3.58-.05 5.22-.82 8.43-2.09 3.54-.86 6.44-1.31 9.06-4.12l.6-.59c1.35-1.5 2.8-2.99 3.48-4.94.1-.22.23-.45.36-.68.19.14.32.32.46.55l.04.04a6.25 6.25 0 0 1 .68 5.08Z" fill="#75A152"/><path opacity=".37" d="M118.32 90.17c-3.4.41-6.93.37-10.29.87-2.4.36-4.71 1.13-7.11 1-3.35-.42-6.7-1.68-9.43-3.63a9.88 9.88 0 0 1-2.35-2.4 6.81 6.81 0 0 1-1-5.67v.05c.4-1.14 1.27-1.59 2.22-.64a30.32 30.32 0 0 0 3.9 2.95c5.93 3.99 12 5.03 19.03 4.17 1.77-.14 3.4-.82 5.07-1.5-.9 1.45-1.27 3.4-.04 4.8Z" fill="#568040"/><path d="M133.4 75.18c-.45 2.17-2.21 3.9-2.62 6.07-1.63 8.88-17.31 7.47-21.16 8.43-3.67 1.04-7.43.63-11.24-.05-1.54-.27-2.9-1.18-4.12.45-1-.45-4.58-2.04-5.85-5.3a6.17 6.17 0 0 1-.36-4.48s.72-2.31 2.22-.55c1.09 1.18 42.96-4.75 43.14-4.57Z" fill="#568040"/><path d="M129.28 81.84a5.17 5.17 0 0 1-4.21 4.08c-3.94.72-8.2 1.54-12.19.9 2.4-.09 14.41-4.08 17.36-7.97-.37.95-.64 1.99-.96 2.99Zm-32.26 6.25c-2.35-.14-4.67-.77-6.43-2.31-1.77-1.68-1.36-4.4-1.63-6.53.5-.22 14.59 8.61 22.24 7.8-6.61 4.62-10.24 1.5-14.18 1.04Z" fill="#3E5C2E"/><path d="M133.4 78.94c.69.77-.08 2.35-.85 2.99-.19.13-.64.22-.87 0-1.4-1.4 1.27-3.5 1.73-3Z" fill="#AED888"/><path d="M133.9 71.64c.05 2.58-.86 5.17-2.3 7.34-.46.73-1.1 1.45-1.68 2.09-8.61 8.52-26.6 10.5-36.57 3.49a13.3 13.3 0 0 1-5.4-8.11s45.14-5.4 45.77-7.21c.14.5.14 1.77.19 2.4Z" fill="#75A152"/><path d="M129.42 80.57c.18.27-.32.59-.54.5-.96-.32.13-1.18.54-.5Z" fill="#AED888"/><path opacity=".37" d="M88.32 76.49v-.45c8.2 7.56 19.71 9.15 28.91 7.34-3.22 1.18-4.8 5.44-8.56 5.48-10.38.1-18.99-4.3-20.76-12.37h.41Z" fill="#568040"/><path d="M129.47 77.9c-.32.77-1.46 2.53-1.6 2.76-2.94 3.9-8.2 4.35-12.72 4.76-7.3.54-20.17 4.4-23.61-4.49-3.04-2.04-4.99-4.35-2.67-8.02 2.03 2.36 36.79 8.34 40.6 4.99Z" fill="#568040"/><path d="M110.2 83.97c-4.93.68-11.82-.23-15.22-2-3.53-1.85-5.3-1.31-6.48-8.38.14-.18.23-.4.37-.59 2.35 2 16.13 11.01 21.34 10.97Z" fill="#3E5C2E"/><path d="M114.6 87.14c-.54-.18-1-.5-1.45-.73.14.1 1.4 1.27.1 1.5-3.09-.05-.6-2.09-6.67-1.45l1.63-1.27c.68.05 6.8.32 7.44 1.54.08.54-.78.54-1.05.4Z" fill="#568040"/><path d="M96.8 164.76c-.14.18-.32.32-.55.32l-47.85 1.26c-.4 0-.77-.36-.9-1l-6.21-25.78-5.71-23.6-2.36-9.74a2.04 2.04 0 0 1 .18-1.5c.18-.27.41-.45.64-.45L81.89 103c.04 0 .13 0 .18.04.27.1.5.37.63.73.05.09.05.13.05.23l8.38 34.75.27 1.13 5.03 20.85.23 1.04.36 1.4c.23.6.05 1.23-.22 1.59Z" fill="#93A3A2"/><path d="m78.99 103.04-15.9 62.9-14.69.4c-.4 0-.77-.36-.9-1l-6.21-25.78 8.97-35.8 28.73-.72Zm17.26 62.04-11.33.31 5.76-25.73.77.18c.36 1.54 5.4 22.3 5.62 23.29.18.63.09 1.95-.82 1.95Z" fill="#899695"/><path d="M96.8 164.76c0-.05-.05-.1-.05-.14l-.14-.54-14.68-60.63-.09-.45h.1c.04 0 .13 0 .17.04.28.1.5.37.68.77.05.1.05.19.05.23l8.38 34.66.27 1.14 5.03 20.84.23 1.04.36 1.4c.14.64 0 1.28-.31 1.64Z" fill="#E1EAEA"/><path fill-rule="evenodd" clip-rule="evenodd" d="M61.36 125.93c-2.13-.05-4.17.58-6.2 1.54a18.34 18.34 0 0 0 10.55 11.46c3.13-4.49 3.08-9.7 2.36-11.83a15.24 15.24 0 0 0-6.7-1.17Z" fill="#99B0BF"/><path d="M39.93 133.63s5.34 1.04 5.53-1.22c0 0 3.12.86 3.67-.78.54-1.63.27-2.3.27-2.3l-11.1-11.7s4.26 2.77 6.75 1.5 1.22-3.3 1.22-3.3l-12.23-2.23 5.89 20.03Z" fill="#949984" style="mix-blend-mode:multiply" opacity=".33"/><path d="M32.63 112.1s.14 3.72 1.63 5.44l1.64-.4-.87-3.4-2.4-1.63Z" fill="#C97700"/><path d="M48.08 128.01c-1.35-.63-14.95-6.16-14.95-6.16s-1.95-1.22.05-4.3c1.4-2.23 4.44-.32 4.44-.32s2.08 1.31 4.48 2.85c3.04 1.95 6.62 4.53 7.07 4.94 2.13 2.27.27 3.63-1.09 3Z" fill="#D58500"/><path opacity=".36" d="M49.44 128.01s-.9.23-1.36 0c-.45-.23-2.26-.95-4.44-1.86-4.44-1.81-10.46-4.3-10.46-4.3s-1.18-.73-.77-2.5c.13-.5.36-1.08.81-1.8.86-1.37 2.36-1.19 3.36-.82 0 0-2.54 1.36-1.86 3.4.63 2.04 5.12 3.12 6.34 2.58a3.08 3.08 0 0 0 1.81-2.13c.91.59 2.63 1.81 3.5 2.4-.1-.09-3.45 3.53 3.07 5.03Z" fill="#B45F00"/><path opacity=".4" d="M48.27 127.1s-3.36-.72-1.95-2.76c0 .05-2.31 2.58 1.95 2.76Z" fill="#9B4300"/><path opacity=".36" d="M43.33 123.57s.36 2.58 2.3 3.58c-4.43-1.81-12.5-5.3-12.5-5.3s-1.18-.73-.77-2.5c0 .05.05 2.09 1.18 1.41 0 0 5.75 4.35 9.79 2.81Z" fill="#B45F00"/><path opacity=".38" d="M47.54 124.97c.18-.5.1-1-.23-1.08-.31-.14-.72.18-.9.68-.18.5-.1 1 .22 1.08.32.14.73-.18.91-.68Zm-5.48-4.93c-.1.4-.32.9-.77 1.35-1.14 1.14-4.04.19-5.12-1.35-1.09-1.55 1.45-2.86 1.45-2.86s2.04 1.36 4.44 2.86Z" fill="#E2A040"/><path d="M41.33 139.66s-7.25-3.4-9.1-6.71c-1.9-3.3.63-7.66.63-7.66l13.1 5.62s1.44 1.9-2.09 1.86c-2.67-.05-4.21-.4-4.21-.4l1.67 7.29Z" fill="#D58500"/><path opacity=".36" d="M45.41 132.59c-.27.18-1.45.18-1.58.18-2.63-.05-4.17-.4-4.22-.4l.23.9 1.5 6.43s-7.26-3.4-9.12-6.7a5.98 5.98 0 0 1-.67-3.5v-.18a11.79 11.79 0 0 1 1.26-4.03l1.68.73c-.27 1.17-.45 3.9 3.67 4.3 2.54.27 3.17-.5 3.13-1.36 0 .45.95 4.22 4.12 3.5v.13Z" fill="#B45F00"/><path opacity=".4" d="M44.96 132.09s-3.08-.64-2.22-2c0 0-1.59 1.68 2.22 2Z" fill="#9B4300"/><path opacity=".36" d="M44.23 132.77h-.4c-2.63-.05-4.17-.4-4.22-.4l.1.49.08.4 1.5 6.44s-1.14-.54-2.59-1.36c-2.26-1.31-5.39-3.35-6.52-5.34a5.98 5.98 0 0 1-.68-3.5c-.05.6.45 3.77 2.54.46 0 0 4.3 3.17 6.39 1.31 0 0 2.72 1.4 3.8 1.5Z" fill="#B45F00"/><path opacity=".4" d="M39.07 133.09c-1.23-.28-3.13-.82-3.45-.87-.72-.04 2.04.73.77 1.36-.5.28-1-.77-1.31-1.08-.32-.32-.32 1.85-1.27.31-.14-.22-.04-.45.18-.68.36-.4.9-.54 1.4-.5l4.22.69.1.45.08.4 1.5 6.44s-1.14-.54-2.59-1.36c1.82-.54.68-4.17.37-5.16Z" fill="#9B4300"/><path opacity=".38" d="M43.55 130.73c.1-.27.05-.54-.13-.59-.18-.09-.41.1-.55.32-.09.27-.04.54.14.59.18.09.45-.1.54-.32Z" fill="#E2A040"/><path d="M48.22 131.4c-.68-.08-16.04-4.75-16.04-4.75s-1.5-3.94 1.95-5.4c0 0 .59.28 1.54.69 1.5.68 3.94 1.72 6.34 2.8a62.9 62.9 0 0 1 7.25 3.77c2.04 1.77-.09 3.03-1.04 2.9Z" fill="#D58500"/><path opacity=".36" d="M49.08 131.05c-.23.22-.5.36-.72.36h-.19l-2.62-.73c-4.58-1.31-13.42-3.98-13.42-3.98s-.4-1.1-.31-2.36c.09-1.13.63-2.36 2.22-3.04 0 0 .13.05.4.19-.4.54-1.58 2.3-.77 3.53 1 1.45 5.9 3.08 7.53 2.63 1.13-.32 1.22-1.77 1.17-2.63 1.36.63 2.68 1.31 3.81 1.86.1 0-2.26 3.4 2.9 4.17Z" fill="#B45F00"/><path opacity=".4" d="M48.8 130.64s-3.3-.68-1.9-2.67c0 0-2.26 2.49 1.9 2.67Z" fill="#9B4300"/><path opacity=".36" d="M45.55 130.68c-4.58-1.31-13.42-3.98-13.42-3.98s-.4-1.1-.31-2.36c.04.63.31 1.95 1.31 1.86 0 0 8.3 3.99 10.33 2.04.05-.05.6 1.5 2.09 2.44Z" fill="#B45F00"/><path opacity=".38" d="M47.9 128.92c.18-.41.05-.86-.27-1s-.68.14-.86.54c-.18.41-.05.86.27 1s.68-.14.86-.54Zm-8.65-2.4c-7.39-1.1-3.67-4.54-3.63-4.58 1.5.68 3.95 1.72 6.35 2.8 0 .78-.68 2.1-2.72 1.78Z" fill="#E2A040"/><path d="M45.64 118.13c-1.5.5-8.39-1.54-8.39-1.54s-4.2-1.36-4.57-3.76c-.5-3.4 2.08-2.76 3.58-2.17.32.13 3.58 1.22 5.16 2.17.23.14.5.32.73.45 2.72 2.04 7.52 3.54 3.49 4.85Z" fill="#D58500"/><path opacity=".36" d="M45.9 117.86c-.08.1-.17.18-.26.27-.32.32-1.36.23-2.54.05-2.5-.46-5.8-1.54-5.8-1.54s-.82-.28-1.72-.73c-.32-.18-.68-.4-1.04-.63-.87-.64-1.68-1.4-1.82-2.4v-.14c-.36-2.8 1.45-2.72 2.9-2.27 0 0-2.3 1.9.68 3.54 2.63 1.45 5.4-.14 6.12-.5.36.27.73.5 1.09.73-.05-.05-2.59 3.44 2.4 3.62Z" fill="#B45F00"/><path opacity=".4" d="M45.64 117.45s-3.36-.72-1.95-2.76c0 0-2.31 2.58 1.95 2.76Z" fill="#9B4300"/><path opacity=".36" d="M37.25 116.6s-.81-.28-1.72-.73l.23.86-.5-.23-2.08-3.49s.81.68 1.99 1.36c1.72.95 4.21 1.9 6.12.73 0 0-.6 2.4 1.81 3.12-2.5-.54-5.85-1.63-5.85-1.63Z" fill="#B45F00"/><path opacity=".38" d="M44.73 115.78c.14-.37 0-.73-.27-.86-.27-.1-.63.09-.77.45s0 .72.27.86c.27.09.64-.1.77-.45Zm-3.31-2.95c-.13.1-.27.18-.45.27-1.27.6-4.4.5-5.12-.59-.68-1.08.36-1.8.4-1.85.33.13.55.22.73.31 1.14.5 2.86.9 4.44 1.86Z" fill="#E2A040"/><path d="m118.45 144.37-6.43 4.98-1.68 1.27-1.54 1.18-15.09 11.64-4.8 3.72h-.04l-4.35 1.95c-.14.04-.32-.14-.19-.27l2.9-3.76.05-.05.5-.4 5.2-4.04 13.1-10.1 3-2.31 7.74-5.99a.86.86 0 0 1 1.18.14l.64.81c.22.41.18.96-.19 1.23Z" fill="#676D54"/><path d="m112.02 149.35-3.22 2.5c-.95.36-2.72-1.32-2.72-1.32l3-2.31c-.05 0 1.67 0 2.94 1.13Z" fill="#474C2F"/><path d="m110.34 150.62-.4-.72 8.33-6.26m-24.56 19.85-4.8 3.72h-.04l-4.35 1.9c-.14.04-.32-.14-.19-.27 1.4.04 7.07-4.4 7.07-4.4l-3.62.23 5.2-4.03.73 2.85Z" fill="#474C2F"/><path d="M118.27 143.69s.28-.32-.09-1.04l.45.59c.28.36.23.86-.13 1.17l-8.16 6.21" fill="#474C2F"/><path d="M111.57 147.4c-.46.32-.9-.27-.05-.63.82-.36 2.04-1.5 3.26-2.36 1-.68 1.55-1.45 1.5-.86 0 .27-.73.73-1.27 1.04-1.68 1-2.95 2.4-3.44 2.81Zm-25.29 19.94c.14-.13.23-.32.14-.4-.1-.1-.27-.05-.4.08-.15.14-.24.32-.15.41.1.1.28.05.41-.09Zm1.45-1.14c.27-.22.36-.53.23-.72-.14-.13-.45-.09-.73.14-.27.23-.36.54-.22.72.18.19.5.1.72-.13Z" fill="#B1B7A5"/><path d="M127.79 172.87c-5.4 1.77-6.98 1.36-11.6-.72-2.36-1.14-9.38-2.4-9.2-5.49-.09-2.67.73-16.22 3.44-16.13.86-.23 1.36-.04 2.36.77 3.49 2.31 9.79 7.16 14.82 8.16 0 0 8.24 11.96.18 13.41Z" fill="#D58500"/><path d="M110.75 150.98c-2.8.77-10.2 2.86-13.32 3.72-1.13 2.04-2.22 4.53-3.67 6.43-2 .91-4.35 3.86-6.7 2.72-1.14-1.13 1.08-2.44 1.62-3.44 2.4-2.54 3.31-6.12 4.3-9.25 1.41-4.03 9.07-1.22 11.65-1.72 3.04-.04 4.22-1.54 6.12 1.54Z" fill="#D58500"/><path opacity=".36" d="M105.77 152.39c-.05 0-8.34 2.36-8.34 2.36-.32.58-2.72 5.25-3.67 6.43-1.68.86-3.49 2.76-5.44 2.99-.9.14-2.08-.54-1.36-1.59 2.31.1 3.08-1.22 2.68-3.26.27-.36.5-.77.72-1.18 1.5.6 5.21-3.21 2.4-6.11 1.81-6.53 8.48-.5 13 .36Z" fill="#B45F00"/><path opacity=".36" d="M108.35 151.03s-9.33 2-10.7 1.72c-1.35-.27-2.67 1.95-2.67 1.95l13.37-3.67Z" fill="#B45F00"/><path opacity=".4" d="M87.37 163.08s3.04-.68 1.77-2.49c-.05-.05 2.08 2.27-1.77 2.5Z" fill="#9B4300"/><path opacity=".38" d="M89 161.77c-.23.13-.63-.05-.86-.46-.04-.04-.04-.09-.09-.18.23-.22.4-.5.63-.72.14.09.28.22.37.36.22.4.22.86-.05 1Zm20.3-12.37c-.27.5-1.18.9-2.22.95-1.18.05-2.17-.32-2.4-.86.32 0 1 0 3.17-.4.73-.1 1.27.17 1.45.3Z" fill="#E2A040"/><path d="M98.29 158.78s-1 2.22 3.22 1.95c4.26-.28 5.57-3.36 4.35-3.67-1.23-.32-7.57 1.72-7.57 1.72Z" fill="#AF6904"/><path d="M109.35 155.29c-.73.9-1.72 2.31-2.95 2.45-1.9.18-7.75 2.26-8.06 2.4-.28.13-1.82 4.76-1.82 4.76.32 1.04.95 3.4.86 4.39-.09 1.09-.63 1.22-1.45.72-.18-.08-.5-.5-.86-.9s-.72-.82-.86-.95l-.04-.05c-.68-.77-2.04-1.9-2.4-2.76.68-2.36 1.3-10.1 3.21-10.97 3.13-1 13.41-3.35 14.6-3.62 1.8.59 1.03 2.8-.23 4.53Z" fill="#D58500"/><path opacity=".36" d="M109.35 155.29c-.82.95-1.72 2.36-3.08 2.45-1.86.22-7.66 2.26-7.93 2.4-.28.13-1.82 4.76-1.82 4.76s1.27 3.17.95 4.2c-.04.15-.09.42-.13.5-1.36-3.7-4.12-2.53-4.12-2.53a6.14 6.14 0 0 1-1.4-1.81l.26-1.45c5.17-1.09 2.81-6.7 1.23-5.9.77-3.26.77-3.66 4.07-4.25.82.4 8.39 3.62 11.97 1.63Z" fill="#B45F00"/><path opacity=".36" d="M107.49 156.56s-.4.45-1.09 1.18h-.14c-1.85.22-7.65 2.26-7.92 2.4-.28.13-1.82 4.76-1.82 4.76s.05.22.18.58c-1.08-.45-2.62-.86-2.62-.86 3.62-1.27 2.3-7.93 2.3-7.93 5.4 1.59 11.1-.13 11.1-.13Z" fill="#B45F00"/><path opacity=".36" d="M105.63 157.96s3.99-2.08 3.67-2.45c-.32-.4-1.09-.4-1.72.28-.59.68-.27 1.45-1.95 2.17Z" fill="#B45F00"/><path opacity=".4" d="M94.26 167.8s2.08-1.32 2.49 1.53c0 0-.68-1.99-2.5-1.54Z" fill="#9B4300"/><path opacity=".38" d="m95.12 169.1-.86-.94s0-.05.04-.05c.64-.27 1.27-.23 1.4.1.1.26-.13.63-.58.9Zm14.5-18.34c.09.95-1.81 3.17-5.4 3.44-2.17.18-3.3-.5-3.84-1.22 4.07-1.04 8.65-2.09 9.24-2.22-.05 0-.05 0 0 0Z" fill="#E2A040"/><path d="M110.61 161.95c.37 1.27-9.38 5.75-9.38 5.75s1.82 4.8 1.23 5.17c-.59.36-3.26.27-3.49-.1-.23-.35-2.81-6.29-3.13-6.92-.31-.68 0-1.68.23-2.09.09-.18 9.52-5.75 9.52-5.75.5-.32.95-.55 1.35-.77 5.53-2.77 3.31 3.49 3.67 4.7Z" fill="#D58500"/><path opacity=".36" d="M101.23 167.7s1.32 5.08 1.23 5.17c-.27.27-2.86.4-3.49-.1-.05-.04-.1-.17-.18-.4.5-.63.54-1.9.04-3.17-.54-1.4-1.63-2.36-2.49-2.27-.22-.54-.4-.95-.5-1.13-.31-.68 0-1.68.23-2.08.05-.1.63-.5 1.5-1 1.58 2.22 9.7.23 10.6-.14-1.4 2.68-6.94 5.12-6.94 5.12Z" fill="#B45F00"/><path opacity=".4" d="M107.4 163.22s-6.17 2.76-8.61 2.4c0 0 2.4 2.22 2.13 4.8l6.48-7.2Z" fill="#9B4300"/><path opacity=".36" d="M102.6 172.46c0 .18-.05.32-.14.41-.27.18-1.04.23-1.81.23l-1.36-3.76 3.3 3.12Z" fill="#B45F00"/><path opacity=".38" d="M105.68 160.36c-2.18 1.9-5.62.91-5.62.91l6.93-4.08c.18.46.4 1.63-1.31 3.17Z" fill="#E2A040"/><path d="M108.44 169.25c-.18.09-.36.18-.5.22.68-.27 1.45.36 1.18 1.13-1 2.18-6.12 2.95-7.07 2.81-.72-.13-1.67-1.94-2.26-3.17-.5-.86-.82-1.77-.37-2.58.18-.23.14-.32.55-.54 2.67-1.68 6.3-2.77 8.24-4.58l2.04 5.84c-.45.23-1.36.64-1.81.87Z" fill="#D58500"/><path opacity=".36" d="M141.34 170.15c-2.5.36-11.2 1.9-14.32 2.9-3.99 1.09-4.99 1.36-8.11.18-3.17-1.45-7.3-2.49-10.24-4.12-.23.09-.55.27-.73.36.68-.27 1.45.32 1.18 1.13-1 2.18-6.12 2.95-7.07 2.81-.72-.13-1.67-1.94-2.26-3.17-.77-1.36-.91-2.67.63-3.4 1.36.64 6.8 1.63 7.16-3.71l1.5-1.23c1.76 7.2 7.74 8.3 10.42 7.44 3.9-1.68 5.75-6.8 5.7-11.02a91.15 91.15 0 0 0 8.25-3.62c-.09 0 10.15 8.97 7.89 15.45Z" fill="#B45F00"/><path opacity=".36" d="M108.67 169.15s-.6.28-.73.32c.77-.27 1.4.36 1.18 1.13-2.13-.45-6.3 1.36-6.3 1.36.95-1.04-.68-2.35-.72-2.35 2.26.95 5.03-1.32 5.34-1.54 1.4-.68 3.04 1.36 3.67 2.22-.86-.28-2.22-1.04-2.44-1.14Z" fill="#9B4300"/><path opacity=".4" d="M107.94 169.47s-2.26.46-2.58 1c-.32.59.18 1.13-.27 1.4-.46.23-.68 0-.5-.72.18-.73-.23-.5-1.23-.27-1.04.22-.18-.73.6-.64.77.1 4.44-1 4.44-1l-.46.23Z" fill="#9B4300"/><path opacity=".36" d="M141.34 170.15c-2.27.32-10.97 1.9-13.87 2.76-3.85.96-4.94 1.64-7.97.5-4.99-8.06-5.94-18.44-3.63-20.03a81.44 81.44 0 0 0 8.75 5.13c2.8-1.1 6.2-2.45 8.74-3.81 0 0 10.24 8.97 7.98 15.45Z" fill="#B45F00"/><path d="M166.35 98.92c-4.49-8.65-12.69-12.78-17.85-10.29-3.76 2.18-5.99 9.3-5.8 14.28.18 15.54 4.75 27.73 12.28 41.28.77 1.4.9 3.08 1.4 4.66-.36.19-2.99 1.27-5.03 1.86 2.13 5.17 2.54 21.7 2.18 24.42 3.94.64 8.24.6 9.51.32 5.67-1.18 12.15-4.75 13.91-6.11 13.32-10.52 1.9-46.13-10.6-70.42Z" fill="#464558"/><path opacity=".25" d="M160.69 176.04c-.6.18-3.68-.45-4.63-.63.55-2.27 4.44-15.4 3-16.95 1.8-.36 9.51-.36 12.55-8.02 8.06-20.39-20.17-62.62-20.17-62.62 4.26.32 10.56 2.67 14.86 11.05 7.12 13.82 13.87 31.81 16.04 46.4.46 8.66.78 15.41-2.49 20.76-2.72 4.44-10.7 8.06-19.16 10.01Z" fill="#2B2B37"/><path opacity=".25" d="M176.32 169.7c-.05.04-8.11 4.85-13.37 5.75-.59.18-5.94.18-6.84 0 .54-2.26 6.7-13.23 6.7-13.23s17.72-1.77 19.58-16.9c1.63 11.06.14 20.57-6.07 24.38Z" fill="#2B2B37"/><path opacity=".6" d="m163.5 166.2 3.35 7.98-5.53 1.63 2.18-9.6Z" fill="#2B2B37"/><path opacity=".25" d="M165.3 148.17c-2.26.5-6.88-.31-2.12 1.27 1.13.37 1.63.6 1.76.73.37.4-8.56-1.27-8.56-1.27-.45-1.63-.5-3.13-1.4-4.71 2.53.72 12.32 3.58 10.33 3.98Z" fill="#2B2B37"/><path opacity=".37" d="M153.2 140.88c-6.7-11.78-17.35-42.41-4.7-52.25 10.55 8.16 15.09 54.52 4.7 52.25Z" fill="#575771"/><path d="M162.72 176.5c-9.92-1.6-19.93-3.22-29.86-4.76-7.52 4.9-18.21-11.42-21.88-15.86 1.54-.68 5.16-2.27 5.25-2.45 5.26 1.4 9.07 1.4 13.87 1a68.75 68.75 0 0 0 22.34-4.44c1.86-.55 2.13-1.05 2.8-.68 7.71 6.25 9.66 17.71 7.48 27.19Z" fill="#575771"/><path d="M159.87 167.98c-2.54 1.04-10.74-2.22-13.19-3.72-.13 1.13-7.65 7.61-6.84 5.08 2.54-.96 4.67-2.95 6.34-5.35a47.55 47.55 0 0 1-9.47-10.06c.19-.05.37-.05.5-.05 1.45 1.9 4.26 5.8 9.3 9.7 1.99-2.95 4.8-8.75 5.43-13.37.18-.04.32-.13.5-.18-.4 3.26-2.04 8.75-5.44 13.82 2.22 1.32 10.47 4.58 12.69 3.58.27-.18.45.41.18.55Z" fill="#2B2B37"/><path opacity=".25" d="M127.88 154.65c.4.46 3.85 2.31 3.9 4.3.09 2.86-2.27 2-.23 5.17 2.04 2.95 1.36 5.17.27 8.2.36-.13.68-.31 1.04-.54.18-.09 2.72.41 5.9.95-4.9-4.07-.69-8.65-3.13-12.5-1.18-1.86-1.32-3.54-1.04-6.12-2 .1-4.63.32-6.71.54Z" fill="#2B2B37"/><path opacity=".14" d="M162.68 161.5s-4.99.54-8.93-4.08c-3.94-4.62 1.77-7.89 1.77-7.89 1.63 1.18 5.35 5.26 7.16 11.97Z" fill="#A4A4A4"/><path opacity=".25" d="M117.05 163.63c3.49 3.49 6.93 8.24 12.14 9.01a5.82 5.82 0 0 0 3.67-.9c9.52 1.5 20.35 3.21 29.86 4.75.96-4.25 1.23-8.74.41-13-.86 3.17-6.98 5.53-9.83 6.2-4.3 1-7.84-1.3-12.19-2.26-11.24-1.36-10.97 4.49-24.06-3.8Z" fill="#2B2B37"/><path opacity=".14" d="M127.88 159.28c-.32 2.53-10.6 1.94-12.96 1.76-1.81-2.3-3.94-5.12-3.94-5.12 1.54-.68 5.16-2.26 5.25-2.44a35.16 35.16 0 0 0 10.15 1.22 5.58 5.58 0 0 1 1.5 4.58Z" fill="#A4A4A4"/><path d="M104.32 83.02c-1.4.27-8.25-1.64-10.2-2.5-5.48-3.44-6.8-11.23-7.75-17.35-.31-2.77-.31-5.98.18-7.8.82-3.26.46-10 .23-13.9 1.36-1.18 3.04-2.59 4.4-3.77 2.44 12.5 12.46 42.19 13.14 45.32Z" fill="#323147"/><path d="M97.7 81.3c-3.44.85-5.4-2.05-6.93-4.08-1.86-2.5-4.9-7.03-5.3-16.59-.1-2.85 1.54-15.27 1.31-19.17l1.81-1.58c-1.67 15.9-3.58 30.95 9.11 41.41Z" fill="#464558"/><path d="M105.9 75.81C90.6 76 87.73 55.83 88 52.47c.1-1.4.46-2.8.6-4.2.22-2.64-.46-5.22-.37-7.76.82-19.62 31.63-11.96 35.3 6.35 2.17 10.87-5.8 28.81-17.63 28.95Z" fill="#D58500"/><path opacity=".4" d="M116.42 53.52c.67-18.94-20.67-28.14-28.05-9.84-3.17-22.6 31.04-17.03 35.16 3.13 2.17 11.1-7.2 8.8-7.11 6.7Z" fill="#B45F00"/><path opacity=".4" d="M110.25 41.92c.32 1.45-6.39 3.17-5.93 5.57.63 2.95 7.6.82 16.36 3.9.58.22-15.46 2.44-16.82 1.58-2.85-1.85-2.13-4.94-.63-7.38 1.63-2.72 6.98-3.9 7.02-3.67ZM102.5 29.1c-5.7 1.53-9.6 3.62-12.37 9.1-.77 1.32-2.94 7.75 2.04 12.1 1.9 2.85-.95 8.25-2.9 10.56-1.08-3.8-1.45-6.48-1.22-8.8.18-1.58.68-3.44.63-5.11-.54-9.88.64-18.72 13.82-17.86Z" fill="#B45F00"/><path opacity=".4" d="M91.72 49.26c2.85-.32 5.9-.14 8.56 1.09.96 1.54.73 4.8.41 6.57-4.35-1.1-8.79-2.45-12.64-4.8.09-.6.18-1.6.32-2.18 1.04-.6 2.17-.6 3.35-.68Zm27.82 10.56c.55-4.26-.09-9.25-1.45-13.46-1.31-3.31-7.02-14.73-20.84-13.46-1.81.18-7.3 2.4-8.25 3 5.3-13.38 33.35-11.65 34.44 5.3 1.5 25.19-3.9 18.62-3.9 18.62Z" fill="#B45F00"/><path opacity=".4" d="M96.84 41.42c3 2.22 3.08 7.07 1 9.97-1.36.13-2.77.09-4.08.04 1.04-2.17 5.03-5.43.04-8.43-.5-.31-2.53-1.13-2.4-1.76 0 .04 4.4-.18 5.44.18Zm10.01 5.53c.82-2.4 5.13-2.04 3.45-2.77-.1-.09-2.9-.18-3.45 2.77Z" fill="#B45F00"/><path d="M98.2 41.2c-.5-.33-4.03-1.6-8.25.26-.45.19-.13.28.05.23 3.99-1 5.44 2.18 7.84 1.63.72-.18 1.22-1.54.36-2.13Zm-.68 6.65s-.14 0-.18-.09c-1.9-1.95-3.17-1.86-4.44-1.76-1.13.04-2.22.13-3.45-1.32a.36.36 0 0 1 0-.5c.14-.13.28-.13.41 0 1.04 1.18 1.9 1.14 3 1.09 1.35-.09 2.8-.18 4.84 1.95.14.13.14.36.05.5-.1.04-.14.13-.23.13Z" fill="#323147"/><path d="M93.3 46c-.04.9.37 1.67.91 1.67.5 0 .95-.72 1-1.63 0-.14-1.9-.23-1.9-.04Zm20.62-3.9c.5.18.37-.05.05-.18a14.33 14.33 0 0 0-9.7-.68c-1.04.45-.45 1.76.4 2.08 2.68 1.09 4.59-2.45 9.25-1.22Zm-7.16 5.89s.14 0 .18-.05a5.84 5.84 0 0 1 4.8-1.5c1.23.1 2.36.19 3.77-1.08.13-.14.13-.32 0-.45-.14-.14-.32-.14-.45 0-1.14 1.04-2.13.95-3.27.95-1.4-.1-2.99-.23-5.25 1.59a.43.43 0 0 0-.1.45c.1.04.19.04.32.09Z" fill="#323147"/><path d="M111.84 46.4c-.05.9-.45 1.86-1 1.86-.5 0-.9-1-.86-1.9 0-.18 1.86-.14 1.86.04Zm10.56 5.21s-13.19-1.85-21.12-2.04c-1.45-.04-4.08-.18-4.94-.09-5.7.6-8.74 2.72-8.74 2.72s2.4 26.78 14.32 28.14c16.3 2.9 23.65-22.07 20.48-28.73Z" fill="#323147"/><path d="M101.24 52.43a5.85 5.85 0 0 0 1.63-2.81l-4.08-.14c-.1.64-.23 5.22 2.45 2.95Z" fill="#464558"/><path d="M122.4 51.61s-9.16-1.26-16.81-1.85c.04 0 3.4 4.07 3.4 6.39 0 3.3-6.17 2.26-5.8 4.4 2.8 17.3-12.92 5.97-14.78-5.31 1.27 7.57 3.67 23.97 13.5 25.1 8.89 1.04 15.41-.63 18.81-8.02 3.4-7.38 4.85-14.05 1.68-20.7Z" fill="#2B2B37"/><path d="M96.16 49.44c-3.08.32-5.3 1.13-6.75 1.72.4 1.72 1 3.3 2.5 3.67 1.53.4 3.8-.95 4.25-5.4Z" fill="#464558"/><path d="M98.52 74.54c3.62 1.68 4.94-3.4 8.33-4.9 8.66-3.39 12.87-9.6 13.15-18.39 1.44.18 2.35.32 2.35.32 3.22 6.7 1.32 32.44-20.39 29-11.92-1.36-14.45-28.6-14.45-28.6s.22.1.5-.08v.18c.09 1.9 1.22 18.21 10.5 22.47Z" fill="#21212B"/><path d="M135.54 65.7c-.9 3.31-8.52 15.23-8.8 15.37-15.58 7.07-29.22 2.53-31.08 1.45-.68-.41-2.08-2-2.08-2.13.13 0 1.63.18 1.67.18 14.5-.95 25.97-15.14 25.1-29.4 0-19.54-31.94-29.78-32.57-4.22-1.72-4.99-1.4-11.1.27-16.04 2.13-4.26 5.8-7.84 9.38-10.97 13.14-10.2 32.44-1.54 34.53 14.73.81 5.16.04 10.46 1 15.58 1 5.17 3.85 10.3 2.58 15.46Z" fill="#464558"/><path opacity=".32" d="M135.54 65.7a20.93 20.93 0 0 1-2.13 4.45c-.73 1.72-2.04 5.2-2.86 6.88-2.44 5.12-11.55 7.84-15.86 8.2-15.72 2.27-20.93-4.34-20.98-4.66.14 0 5.03-.05 8.93-1.77 6.89 6.75 15.95-.72 18.99-7.25 2.99-5.7 5.57-18.12-1.73-24.6a19.16 19.16 0 0 0-5.34-9.43c5.34-3.4 10.87-8.34 12.37-14.23 6.61 7.48 4.98 17.86 6.25 26.92.9 5.26 3.53 10.38 2.36 15.5Z" fill="#323147"/><path d="M104.9 77.8c2.68.87 5.63.77 7.84-.4 10.56-5.71 10.38-18.08 7.7-22.61-.04-.05-.04-.14-.13-.19-.72 9.3-6.43 18.67-15.4 23.2Zm10.2-61.85c-1.18 6.44-20.53 8.84-23.43 9.8 6.12-7.53 13.46-11.7 23.43-9.8Z" fill="#575770"/><path d="M133.45 70.15c-.04.09-2.72 7.79-4.53 9.56a39.27 39.27 0 0 1-10.51 4.76c-.05 0-.1 0-.1.04-7.97 2.27-16.98 2.22-23.1-2.4 6.34 2.36 12.69 2.85 18.44.68 10.51-3.94 13.64-16.81 13.55-28.19.09-6.97 3.49-12.14 4.94-18.7.54 4.75.09 9.64 1.04 14.35 1.63 7.7 5.03 12.6.27 19.9Z" fill="#323147"/><path opacity=".32" d="M100.28 29.64a20.77 20.77 0 0 1 4.9-8.43c2.08-2.13 4.62-4.71 7.84-4.58.45.1.4.68 0 .68-3.58-.27-9.25 5.53-12.1 12.6-.18.36-.77.18-.64-.27Z" fill="#323147"/></g></g><defs><clipPath id="a"><path fill="#fff" transform="translate(31.5 15.5)" d="M0 0h208.44v210H0z"/></clipPath></defs></svg>