<svg xmlns="http://www.w3.org/2000/svg" xmlns:xlink="http://www.w3.org/1999/xlink" width="73" height="80" viewBox="0 0 73 80">
  <g fill="none" fill-rule="evenodd">
    <path fill="#575770" fill-rule="nonzero" d="M0.409972041,55.052275 C5.93754594,48.9050685 22.797419,41.4884431 35.3936244,41.4884431 C47.9898299,41.4884431 65.9115067,47.7334921 72.2789196,55.052275 C72.4188095,55.2150298 65.1109012,70.1758938 36.3446072,70.1758938 C7.57831318,70.1758938 0.306373333,55.167487 0.409972041,55.052275 Z"/>
    <path fill="#464558" fill-rule="nonzero" d="M0.409972041,55.052275 C5.93754594,48.9050685 22.797419,41.4882037 35.3936244,41.4882037 C35.8755612,49.6316684 35.9624211,62.6195878 36.3446072,70.1758938 C7.57831318,70.1758938 0.306373333,55.167487 0.409972041,55.052275 Z"/>
    <g transform="translate(.102 34.667)">
      <path fill="#000" d="M42.5417732,0.567531164 L48.7639954,0.567531164 C50.3144879,5.47768074 51.3481495,10.8572881 51.8649803,16.7063533 C52.3818111,22.5554184 52.3818111,28.8739414 51.8649803,35.6619222 C51.6022391,37.0151599 50.5685775,38.1622525 48.7639954,39.1031999 C46.9594134,40.0441473 44.8853393,40.5174941 42.5417732,40.5232403 C43.4345726,33.8639555 43.8809723,27.2046706 43.8809723,20.5453858 C43.8809723,13.8861009 43.4345726,7.22681603 42.5417732,0.567531164 Z"/>
      <path fill="#464558" d="M19.2204466,3.25391146 C13.1244905,6.05241416 12.6046167,10.6186841 17.6608252,16.9527214 C25.2451379,26.4537773 47.3733082,26.1126662 54.086755,15.8035759 C58.5623862,8.93084907 56.4313516,3.66299042 47.6936513,0 L19.2204466,3.25391146 Z"/>
      <path fill="#000" d="M49.370007,10.0356462 C30.7716458,22.869364 19.0216697,29.7908399 14.1200787,30.8000741 C8.88510635,29.031329 4.28066078,25.4772169 0.306741951,20.1377378 C6.14811135,15.8800101 11.0533738,13.0828828 15.0225292,11.7463561 C12.3821996,8.4218537 16.6077009,3.79187394 19.2204466,3.25391146 C28.5969452,1.32329702 38.6467987,3.58387527 49.370007,10.0356462 Z" opacity=".5"/>
      <path fill="#464558" d="M46.9862177,5.01197561 L53.2084399,5.01197561 C54.7589323,9.92212519 55.792594,15.3017326 56.3094248,21.1507977 C56.8262556,26.9998629 56.8262556,33.3183858 56.3094248,40.1063666 C56.0466836,41.4596044 55.0130219,42.606697 53.2084399,43.5476444 C51.4038578,44.4885918 49.3297838,44.9619386 46.9862177,44.9676848 C47.8790171,38.3083999 48.3254168,31.6491151 48.3254168,24.9898302 C48.3254168,18.3305453 47.8790171,11.6712605 46.9862177,5.01197561 Z"/>
    </g>
    <path fill="#575770" d="M55.3145,20.764844 C55.1347459,20.7619608 54.9567503,20.8007466 54.7943435,20.8781877 C53.0427725,8.97562641 45.2302903,2.65271091e-05 35.8562757,2.65271091e-05 C26.4950959,2.65271091e-05 18.6908005,8.95102252 16.9251403,20.8293579 C16.7971025,20.7841041 16.6620275,20.7622632 16.5263196,20.7648705 C15.1803036,20.7984539 14.1505211,23.3091187 14.2261628,26.372655 C14.2996126,29.3443146 15.89582,32.5668145 17.219976,32.726773 C19.4417115,43.7569837 26.942958,51.8723824 35.8562757,51.8723824 C44.7682004,51.8723824 52.2682915,43.7597292 54.4914135,32.7323238 L54.4988146,32.7331063 C55.8448305,32.7666565 57.5388962,29.4361581 57.6146567,26.372655 C57.6902786,23.3090922 56.6604896,20.7984273 55.3145,20.764844 Z"/>
    <path fill="#464558" d="M35.9289465,0.00217522294 C35.9045974,0.00206248273 35.8805983,0 35.8562493,0 C26.4950694,0 18.6907741,8.95099599 16.9251139,20.8293314 C16.7970761,20.7840776 16.6620011,20.7622366 16.5262931,20.764844 C15.1802772,20.7984273 14.1504947,23.3090922 14.2261364,26.3726284 C14.2995862,29.344288 15.8957936,32.566788 17.2199496,32.7267465 C19.4416851,43.7569572 26.9429316,51.8723558 35.8562493,51.8723558 C35.8805983,51.8723558 35.9045974,51.8704127 35.9289465,51.8702934 L35.9289465,0.00217522294 Z"/>
    <path fill="#EEBDAA" d="M50.5714068,21.7495038 C48.8637009,19.7368588 45.7912354,19.6075458 43.3618731,19.4929288 L28.452148,19.4929288 C26.0228451,19.6075458 22.9503796,19.7368588 21.2426077,21.7495038 C19.8234325,23.4220712 19.5959131,26.7166121 19.8795316,28.7985856 C20.1595057,30.853601 21.431207,33.5359626 23.6706364,33.9099019 C24.1317079,33.9722568 24.5988301,33.9750582 25.06061,33.9182381 C26.5363891,33.8247266 27.9929866,33.5325953 29.3913611,33.0496742 C30.692099,32.5486567 31.8947476,31.8149169 33.224806,31.3863714 C33.7241728,31.2256412 34.240428,31.1236871 34.7632043,31.0825564 C35.290478,31.0410681 35.8216603,31.0593452 36.3500101,31.0615934 L36.4468912,31.0620046 C36.9634467,31.0599542 37.4787297,31.1135918 37.9838898,31.2219962 C38.1880879,31.2673576 38.389896,31.3221493 38.5893141,31.3863714 C39.9192537,31.8149169 41.1219617,32.5486567 42.4226402,33.0496742 C43.821035,33.5325961 45.2776522,33.8247273 46.7534507,33.9182381 C47.2152284,33.9750583 47.6823484,33.9722568 48.1434177,33.9099019 C50.3828537,33.5359626 51.6544824,30.853601 51.9345291,28.7985856 C52.2181608,26.7166121 51.990648,23.4220712 50.5714068,21.7495038 Z"/>
    <path fill="#D19F93" d="M35.9252624,19.4933002 L35.9252624,31.057548 C35.5367345,31.0551672 35.148266,31.0527864 34.7621678,31.0813362 C34.2397651,31.1232343 33.7239039,31.2254246 33.2247796,31.3858873 C31.893447,31.8142006 30.6924225,32.5471115 29.3919157,33.049137 C27.9928241,33.5318231 26.5356259,33.8239283 25.0592566,33.9176479 C24.5981397,33.9747615 24.1316418,33.9723612 23.6711316,33.9105054 C21.4301968,33.5345301 20.160463,30.8528648 19.8785809,28.7970338 C19.5966658,26.7150006 19.8240993,23.4217993 21.2430501,21.7490263 C22.950987,19.73601 26.0233997,19.607506 28.4514812,19.4933002 L35.9252624,19.4933002 Z"/>
    <path fill="#01002B" fill-rule="nonzero" d="M42.3645983,23.3246979 C42.6226198,23.3008692 42.8758594,23.2397135 43.1164666,23.1431265 C43.3663345,23.0584188 43.6148093,22.9697188 43.8651922,22.8864767 C44.3643206,22.7205231 44.8677735,22.5445423 45.3781983,22.4168275 L45.1643654,21.8337086 C44.9014316,21.902321 44.6411256,21.977207 44.3764687,22.0402619 C44.1201158,22.0959713 43.868018,22.1698688 43.6220718,22.2613986 C43.0872649,22.5063392 42.5728071,22.7938317 42.083614,23.1211289 L42.4895586,23.5611473 C43.1759012,22.6816188 44.1442666,22.067948 45.2300773,21.8244308 C45.3924547,21.7633255 45.4756282,21.5823343 45.4165903,21.418566 C45.3534124,21.257668 45.1754222,21.1751398 45.0125339,21.2312183 C43.8323451,21.5357989 42.7832455,22.2186935 42.0243657,23.1763186 C41.9299828,23.2933582 41.9357625,23.4623305 42.03792,23.5725871 C42.140772,23.6809725 42.306291,23.6994356 42.4303102,23.6163569 L43.175332,23.20266 C43.4036058,23.0639134 43.6415369,22.941871 43.8872766,22.8374812 C44.370355,22.6538671 44.9018146,22.614302 45.3781785,22.416801 C45.7457377,22.2644094 45.5345919,21.6840758 45.1643456,21.8336821 C44.6756223,22.0311565 44.1751734,22.2005188 43.6854928,22.396468 C43.4405501,22.494479 43.1949472,22.592185 42.9530284,22.6974644 C42.7080446,22.7884131 42.4791579,22.9182188 42.2750787,23.0819417 C42.2275799,23.1178371 42.209179,23.1807992 42.2298241,23.2367885 C42.2504691,23.2927779 42.3052615,23.3285091 42.3645785,23.3246648 L42.3645983,23.3246979 Z" transform="rotate(25 43.764 22.44)"/>
    <path fill="#01002B" fill-rule="nonzero" d="M30.4683363,22.840451 C30.225215,22.9304589 29.9704212,22.9847059 29.7118531,23.0015104 C29.4500153,23.0330378 29.187722,23.0603608 28.9260427,23.0934334 C28.4043743,23.1593599 27.8745389,23.2181108 27.3590832,23.3234168 L27.302304,22.7046123 C27.569034,22.6528845 27.8361007,22.6080006 28.1020121,22.5505363 C28.357284,22.4900268 28.6165057,22.4477737 28.8777276,22.4240948 C29.4654195,22.4140567 30.0529698,22.4512224 30.6347653,22.5352367 L30.4568154,23.1078907 C29.4604954,22.6105895 28.3234797,22.4751698 27.2390085,22.7246469 C27.0662675,22.7396595 26.9136694,22.6122398 26.8968018,22.4389035 C26.8849101,22.2663674 27.0102171,22.1149497 27.1812654,22.0951653 C28.3770922,21.8600205 29.6166424,22.0230423 30.7118925,22.5595024 C30.8472279,22.6243592 30.914392,22.7793891 30.8694018,22.9230697 C30.8229813,23.0653594 30.6814734,23.1535574 30.5339361,23.1321564 L29.6841963,23.0807203 C29.4187,23.0541349 29.1516414,23.0468033 28.8850957,23.0587824 C28.3703728,23.1018293 27.8736806,23.2958088 27.35907,23.3233903 C26.9619922,23.3446849 26.9039982,22.7295611 27.3022908,22.7045858 C27.828046,22.6716192 28.3523553,22.6081996 28.8783152,22.5734424 C29.1414008,22.5560539 29.4049419,22.5381083 29.6684434,22.5285718 C29.9285508,22.5047902 30.1907718,22.5230379 30.4451295,22.5826208 C30.5033951,22.5944848 30.5469894,22.6433734 30.5523371,22.7028481 C30.5576848,22.7623228 30.5235164,22.8182661 30.4683099,22.8404245 L30.4683363,22.840451 Z"/>
    <g fill-rule="nonzero" transform="translate(26.43 23.62)">
      <path fill="#01002B" d="M2.42196783,0.632558811 C1.55315772,0.550378795 0.723437173,1.01317297 0.333585854,1.797398 C-0.0562654645,2.58162303 0.0739718688,3.5259095 0.661389355,4.174139 C1.24880684,4.82236851 2.17253201,5.04115533 2.98637817,4.72481893 C3.80022433,4.40848253 4.33672694,3.62211523 4.33673932,2.74555579 C4.37291471,2.20751679 4.18907609,1.67792924 3.8276927,1.27913511 C3.4663093,0.880340982 2.95864162,0.646836877 2.42196783,0.632565443 L2.42196783,0.632558811 Z"/>
      <ellipse cx="2.422" cy="2.746" fill="#FFF" rx="1.249" ry="1.637"/>
    </g>
    <g fill-rule="nonzero" transform="translate(40.955 24.284)">
      <path fill="#01002B" d="M2.6655042,0.0210757882 C1.79669409,-0.0611042277 0.966973548,0.401689943 0.577122229,1.18591497 C0.18727091,1.97014001 0.317508244,2.91442648 0.90492573,3.56265598 C1.49234322,4.21088548 2.41606838,4.4296723 3.22991454,4.11333591 C4.0437607,3.79699951 4.58026332,3.01063221 4.58027569,2.13407277 C4.61645297,1.59603266 4.43261519,1.06644336 4.07123159,0.667647754 C3.70984799,0.268852151 3.20217922,0.0353471327 2.6655042,0.0210757882 L2.6655042,0.0210757882 Z"/>
      <ellipse cx="2.665" cy="2.134" fill="#FFF" rx="1.249" ry="1.637"/>
    </g>
  </g>
</svg>
