<svg xmlns="http://www.w3.org/2000/svg" width="61" height="67" viewBox="0 0 61 67">>
  <g fill="none" fill-rule="evenodd">
    <g fill="#B9C5C9" fill-rule="nonzero" transform="translate(0 59.423)">
      <ellipse cx="30.566" cy="5.597" rx="30.204" ry="1.59"/>
      <path d="M49.071 1.433a3.414 3.414 0 00-.767 2.677 2.428 2.428 0 01.76-1.63 2.26 2.26 0 00-.088 1.46c.165-.5.502-.927.95-1.2-.321.42-.259 1.02.142 1.365a7.01 7.01 0 01.493-2.223c.19.666.29 1.354.294 2.047a3.409 3.409 0 011.05-1.51 5.408 5.408 0 00-.42 1.939 4.091 4.091 0 011.72-1.707 5.319 5.319 0 00-.992 2.527l-2.828.046c-.464.007-2.185.294-2.439-.13-.354-.592 1.462-3.66 2.125-3.66zm5.036 2.287c.134.32.301.627.499.912.077-.409.122-.823.137-1.238.19.234.319.513.37.812.085-.887.06-1.78-.074-2.66.049.37.148.734.295 1.078.21.617.321 1.264.329 1.916.155-.48.437-.908.817-1.238.074.428.06.866-.038 1.289.17-.497.506-.919.951-1.192-.255.426-.4.91-.42 1.408.207-.385.565-.665.987-.772-.38.417-.636.934-.735 1.49-.833-.206-1.708-.056-2.515-.226-.783-.165-.324-.909-.603-1.579zM43.095 5.175c.394-.596.558-1.483 1.13-2.013-.471.308-.875.71-1.188 1.18 0-.728.054-1.454.16-2.173-.443.082-.657 1.059-.743 1.453-.206-.802-.024-1.727-.078-2.554-.412.702-.42 1.577-.638 2.312-.338-.209-.327-.942-.703-1.218-.027.47.125.94.093 1.422-.348-.304-.294-.848-.851-1.034-.044.393.196.77.143 1.185-.24-.303-.455-.769-.91-.688.041.453.573.757.655 1.243a4.182 4.182 0 012.024.449c.2.116.383.272.579.397a.511.511 0 00.327.04zM30.52.532a3.414 3.414 0 00-.767 2.676 2.428 2.428 0 01.76-1.63 2.26 2.26 0 00-.088 1.461c.165-.501.502-.927.95-1.201-.321.42-.259 1.02.142 1.365A7.011 7.011 0 0132.011.98c.19.666.29 1.355.294 2.048a3.41 3.41 0 011.05-1.51 5.408 5.408 0 00-.42 1.938 4.091 4.091 0 011.72-1.706 5.32 5.32 0 00-.992 2.526l-2.828.046c-.464.008-2.185.294-2.439-.13-.354-.592 1.463-3.66 2.125-3.66z"/>
      <path d="M33.902 2.902c.134.32.301.626.499.912a8.2 8.2 0 00.137-1.239c.19.234.319.514.37.813.085-.887.06-1.78-.074-2.66.049.37.148.733.295 1.078.21.617.321 1.263.329 1.916.155-.48.437-.908.817-1.238.074.428.061.866-.038 1.288.17-.497.506-.918.952-1.191-.256.426-.401.91-.421 1.408.207-.385.565-.665.987-.772-.38.416-.636.933-.735 1.49-.833-.206-1.708-.056-2.515-.226-.783-.165-.323-.91-.603-1.58zm-5.9-2.2c.07.8.027 1.605-.126 2.393.021-.436-.06-.872-.237-1.27a3.052 3.052 0 01-.187 1.882 4.158 4.158 0 00-.488-1.076c-.097.24-.127.503-.086.76a.779.779 0 01-.249.696c.004-.856-.66-1.548-1.276-2.137.29.412.395.927.29 1.42-.088-.244-.21-.52-.459-.588a.551.551 0 00-.558.238 1.641 1.641 0 00-.234.6c-.092-.9.01-1.81.298-2.667a5.61 5.61 0 00-.677 4.08 4.024 4.024 0 012.157-.159c.772.105 2.18.595 2.435-.481.289-1.214-.501-2.523-.602-3.692zm-4.968.467l.104 2.349-.49-1.174-.464 1.018a4.245 4.245 0 01-.31-1.844 6.367 6.367 0 00-.207 2.92 7.792 7.792 0 01-.631-2.763 9.833 9.833 0 00-.162 1.968l-.426-.646-.236.59c-.25-1.07-.35-2.17-.3-3.268a15.415 15.415 0 00-.227 3.692c-.168-.383-.266-.794-.44-1.175a1.627 1.627 0 00-.836-.888c.468.461.716 1.104.68 1.762a3.013 3.013 0 00-1.23-.436c.313.305.468.737.422 1.172a2.036 2.036 0 00-1.145-.938c.368.791 1.368 1.005 2.23 1.107 1.176.138 2.765.384 3.877-.165.987-.488.006-2.44-.209-3.281zm-7.481.647c.027.669.015 1.339-.035 2.006a3.467 3.467 0 00-.96-2.056c.158.51.179 1.054.061 1.575a5.363 5.363 0 01-.541-2.516 5.635 5.635 0 00.196 3.675 3.09 3.09 0 01-.89-2.034l-.29.963a2.354 2.354 0 01-.1-.746l-.203-.005a4.049 4.049 0 00-.312.988l-.267-1.195a2.505 2.505 0 00-.282 1.72 5.997 5.997 0 00-1.446-2.589c.673.706.77 1.772.809 2.75a.272.272 0 00.053.185.279.279 0 00.215.05c1.255-.04 2.44.59 3.69.7 1.794.156.603-2.588.302-3.47zm-12.248.328c-.036.702-.01 1.405.076 2.102-.042-.487.07-.975.32-1.394-.123.533-.09 1.09.093 1.606.056-.421.27-.804.6-1.069-.088.44.026.898.311 1.244.13-.862.161-1.737.092-2.607.367.833.503 1.75.392 2.654.335-.353.633-.74.89-1.154-.114.37-.147.761-.096 1.146a9.287 9.287 0 00.338-2.485c.406.67.589 1.454.524 2.236.249-.321.384-.717.383-1.125l.378 1.447a5.11 5.11 0 00.432-1.178c.119.304.183.628.19.955.153-.618.184-1.26.09-1.89a4.2 4.2 0 01.499 2.169c.212-.692.39-1.394.534-2.104a7.49 7.49 0 00.2 2.362c-1.45.322-2.95.645-4.407.363a4.761 4.761 0 00-1.706-.211.329.329 0 00-.183.117c-.433-1.11-.006-2.086.05-3.184z"/>
    </g>
    <g transform="translate(6.338)">
      <g fill-rule="nonzero">
        <path fill="#1C1C56" d="M39.9713 15.3279l5.196-9.3172 1.846 1.0446-5.196 9.3171z"/>
        <path fill="#01002B" d="M45.175 6.056l1.798 1.016-1.12-.054zM44.681 6.942l1.169.081.629.935-1.12-.054z"/>
        <path fill="#01002B" d="M44.191 7.821l1.168.082.629.935-1.12-.054zM43.696 8.707l1.169.082.629.935-1.12-.055zM43.188 9.618l1.169.082.629.935-1.12-.054zM42.694 10.505l1.169.081.629.935-1.121-.055z"/>
        <path fill="#01002B" d="M42.203 11.384l1.169.082.629.934-1.12-.054zM41.709 12.27l1.168.081.629.935-1.119-.054z"/>
        <path fill="#01002B" d="M41.224 13.14l1.168.082.629.934-1.12-.054zM40.729 14.026l1.169.081.629.935-1.12-.054z"/>
        <path fill="#01002B" d="M40.239 14.905l1.169.082.629.935-1.121-.054zM45.62 5.386l1.69.956a.635.635 0 01.241.862.628.628 0 01-.857.24l-1.689-.955a.635.635 0 01-.242-.862.628.628 0 01.857-.24z"/>
      </g>
      <ellipse cx="22.867" cy="27.543" fill="#52AF4E" fill-rule="nonzero" rx="26.607" ry="22.008" transform="rotate(-88.212 22.867 27.543)"/>
      <path fill="#43933F" d="M12.576 24.699c.327-10.546 5.687-19.498 13.181-23.567-.685-.1-1.374-.16-2.066-.183C11.543.567 1.325 12.164.87 26.85.414 41.54 9.894 53.755 22.043 54.136c3.362.097 6.69-.709 9.64-2.335-11.139-1.612-19.536-13.258-19.107-27.102z"/>
      <path fill="#52AF4E" fill-rule="nonzero" d="M17.56 5.408a.873.873 0 00-1.362-.146.908.908 0 00-.26.714c.034.307.249.436.376.671l.176-.344a3.938 3.938 0 00-.92.059.89.89 0 00-.659.312.96.96 0 00.166 1.269l.21-.548c-.524-.135-1.088-.265-1.59.062a1.396 1.396 0 00-.598 1.33c.008.066.05.123.112.15a.184.184 0 00.184-.025.186.186 0 00.07-.173.82.82 0 01.542-.806c.373-.09.764-.076 1.13.042.133.01.257-.07.306-.195a.309.309 0 00-.096-.353.255.255 0 01-.117-.232c0-.165.103-.22.224-.256.352-.104.72-.092 1.073-.178.214-.052.179-.454-.037-.458a.42.42 0 01-.387-.362.645.645 0 01.316-.62.937.937 0 011.08.176c.045.039.096-.042.061-.089zm-8.805 6.824a.628.628 0 00-1.114.008 1.009 1.009 0 00.455 1.39l.06-.419c-.664.005-1.524.214-1.746 1.108-.033.205-.04.414-.023.622-.002.115-.021.347-.124.182a1.295 1.295 0 01-.066-.237.77.77 0 00-.535-.54c-.555-.13-.998.444-1.051 1.074-.073.86.381 1.506.837 2.09l.095-.139c-.277-.188-.567.021-.674.36a3.128 3.128 0 00-.008 1.58c.056.24.34.15.31-.092-.025-.197-.153-1.998.292-1.695.071.048.153-.062.094-.138-.43-.551-1.01-1.311-.74-2.144a.6.6 0 01.614-.483c.275.032.38.17.481.461.08.233.245.45.475.362.268-.102.309-.434.3-.724-.026-.98.897-1.111 1.503-1.225.173-.032.178-.364.013-.412a.575.575 0 01-.293-.778.499.499 0 01.788-.147c.03.029.08-.026.057-.064zm4.78.908c-.287-.517-.96-.824-1.373-.318a.814.814 0 00-.135.815 1 1 0 00.208.294.724.724 0 01.2.254l.18-.267a1.001 1.001 0 00-.988.682c-.116.425.083.925.465.975.24.03.255-.428.014-.455-.13-.015-.176-.288-.117-.435a.656.656 0 01.612-.336.214.214 0 00.18-.267 1.241 1.241 0 00-.324-.496.31.31 0 01-.07-.412c.281-.435.73-.003 1.026.146.08.04.17-.093.122-.18zM3.128 24.827a1.32 1.32 0 00-.155 1.033c.043.155.118.299.22.422.116.117.248.215.392.293l.087-.34c-.644-.088-1.005.9-.942 1.539.09.755.645 1.371 1.383 1.534a.291.291 0 00.36-.23c.041-.163-.035-.4-.187-.432a1.278 1.278 0 01-1.024-.927 1.09 1.09 0 01.476-1.139c.122-.085.093-.357-.066-.344-.218.018-.433-.247-.524-.458a1.133 1.133 0 01.03-.914c.018-.04-.027-.073-.05-.037zm2.357 10.756c-.462.061-.472.952-.333 1.325.158.48.632.778 1.13.712l-.067-.345c-.75.416-.901 1.742-.574 2.549.384.947 1.452 1.54 2.308 1.26l-.295-.496c-.23.52-.195 1.12.096 1.607.338.476.865.78 1.444.835.21.044.264-.313.05-.351a1.936 1.936 0 01-1.185-.53c-.24-.274-.393-.837-.044-1.096.227-.169.163-.613-.119-.622a2.476 2.476 0 01-.987-.146 1.575 1.575 0 01-.77-.715 1.816 1.816 0 01.252-2 .185.185 0 00.035-.203.183.183 0 00-.174-.11.745.745 0 01-.73-.6 1.446 1.446 0 01-.027-.51 2.8 2.8 0 00.065-.49c-.004-.053-.032-.08-.075-.074zm4.551-12.703c-.266.394-.562.802-.467 1.348.035.207.132.397.28.545.134.132.36.22.446.408l.105-.422a7.134 7.134 0 00-.71.499 2.447 2.447 0 00-.59.563 1.902 1.902 0 00-.043 2.044c.174.29.415.534.702.71.062.038.127.07.191.102l.117.056c.01-.07.01-.062.003.024-.013.158-.01.316.007.473.14.636.495 1.203 1.004 1.605.168.16.4-.179.242-.355-.335-.373-.793-.858-.822-1.451-.014-.28.07-.556-.11-.787-.178-.224-.457-.323-.649-.535-.4-.382-.47-1-.163-1.462.158-.183.338-.346.536-.486.218-.137.414-.306.582-.502a.368.368 0 00.013-.44 1.201 1.201 0 00-.381-.305.653.653 0 01-.359-.318 1.998 1.998 0 01.09-1.301.014.014 0 00-.006-.018.014.014 0 00-.018.005zm.977 13.016a1.93 1.93 0 00-.114 1.655c.168.453.573.775 1.05.832l-.127-.41c-.73 1.046-.277 2.721.778 3.09.207.073.375-.313.166-.433a1.736 1.736 0 01-.76-.928 2.014 2.014 0 01.116-1.431c.066-.16.001-.355-.159-.364-.802-.045-.965-1.213-.857-1.977a.05.05 0 00-.032-.058.05.05 0 00-.061.024zm2.024 11.208a1.534 1.534 0 00-.004.557.82.82 0 00.316.43c.315.181.715.073.897-.242l-.194-.07c.123.57.488 1.057.998 1.332.488.271 1.13.304 1.391-.381.074-.194-.186-.328-.276-.152-.237.465-.785.277-1.105.08-.371-.222-.651-.57-.79-.98a.108.108 0 00-.184-.035.543.543 0 01-.6.091.734.734 0 01-.401-.629c.002-.037-.044-.038-.048-.001zm1.342-3.797c.015.294.16.567.394.743a.978.978 0 00.82.169l-.161-.086c.021.063-.103.222-.127.278a1.084 1.084 0 00.124 1.024c.326.449.843.45 1.3.455a.382.382 0 00.342-.447.346.346 0 00-.12-.272.34.34 0 00-.286-.076c-.31.078-.69.145-.925-.153a.432.432 0 01-.117-.4c.056-.206.15-.364.065-.58a.137.137 0 00-.161-.085.882.882 0 01-1.08-.603c-.016-.049-.075-.015-.068.033z"/>
      <g fill="#43933F" fill-rule="nonzero">
        <path d="M38.524 20.884a1.25 1.25 0 00-.813-1.178 1.018 1.018 0 00-.688.048 1.25 1.25 0 00-.312.19c-.062.052-.22.267-.248.278l.316.31a1.526 1.526 0 00-.278-.854 2.354 2.354 0 00-.564-.655 1.762 1.762 0 00-1.506-.378c-1.067.248-1.766 1.57-1.606 2.835l.254-.288c-.56-.2-1.227-.44-1.74.055-.433.416-.548 1.216-.528 1.844l.069-.133a1.7 1.7 0 00-.802 1.841.1.1 0 10.174.049.101.101 0 00.017-.106c-.144-.548.107-1.448.667-1.49.077-.006.123-.062.135-.153.069-.522.066-1.156.442-1.524.413-.405 1.02-.143 1.445.077.115.06.263-.079.26-.224-.027-.936.574-1.89 1.361-2.025.362-.05.728.049 1.017.273.17.126.316.282.432.459.123.184.17.44.305.604.192.233.47.01.44-.29.006.064.158-.115.174-.128a.89.89 0 01.222-.138.725.725 0 01.488-.03c.348.131.62.413.738.769a.068.068 0 00.13-.038zM30.3 19.723c-.37-.997-1.332-1.543-2.21-1.255l.131.222a1.825 1.825 0 00-.658-2.324c-.812-.437-1.748-.02-2.324.753l.53.188a1.19 1.19 0 00-1.33-.947 1.073 1.073 0 00-.405.197.965.965 0 01-.417.248c-.17.022-.342-.003-.514.022-.158.024-.313.07-.458.137a2.725 2.725 0 00-1.345 1.452 5.108 5.108 0 00-.298 2.393c.022.245.37.2.36-.048-.044-1.215.363-2.615 1.392-3.074.217-.09.453-.13.688-.114.28.02.558-.064.783-.235.167-.126.306-.251.51-.21.19.043.345.18.41.365.091.294.422.422.583.111.269-.591.917-.907 1.545-.753.331.108.602.354.743.675.142.32.141.687-.001 1.008-.046.105.02.263.131.221a1.65 1.65 0 012.07 1.024c.028.066.11.01.084-.056zm6.377 6.306a.693.693 0 01.965-.098.873.873 0 01.273.436.674.674 0 00.152.317c.221.202.533-.112.734-.226.279-.202.63-.275.965-.2.273.09.461.342.47.63 0 .37-.079.673.229.898.268.175.498.402.676.669.173.289.282.612.32.948a2.52 2.52 0 01-.788 2.129c-.285.255.092.744.375.483 1.172-1.085 1.168-3.232.065-4.351-.126-.128-.289-.207-.41-.333-.12-.125-.031-.413-.056-.596a1.106 1.106 0 00-.518-.803 1.092 1.092 0 00-.947-.094 2.336 2.336 0 00-.474.226 5.145 5.145 0 00-.256.166c-.101.069-.175.161-.255.035-.048-.074-.068-.183-.115-.263a1.091 1.091 0 00-.176-.228.784.784 0 00-.412-.226.815.815 0 00-.841.457c-.011.018.01.038.024.024zM29.673 15.04c.317.06.507-.15.74-.384a.794.794 0 011.113-.111.159.159 0 00.246-.112c.12-.494.353-1.037.786-1.212a.684.684 0 01.572.048c.175.099.298.27.337.468.029.13.183.212.268.095a.597.597 0 01.962-.103.956.956 0 01.02 1.115.278.278 0 00.14.454c.474.024.85.415.857.893a.215.215 0 10.347.147.218.218 0 00.081-.203c-.03-.774-.649-1.537-1.327-1.356l.234.395c.348-.545.3-1.254-.118-1.746a.956.956 0 00-1.416.12l.268.094a1.05 1.05 0 00-.429-.708 1.036 1.036 0 00-.805-.173c-.628.149-1.015.893-1.1 1.61l.254-.165a1.101 1.101 0 00-1.085-.032c-.17.102-.319.235-.44.391-.134.157-.294.412-.502.373-.053-.01-.056.093-.003.102zm10.428 2.35a.72.72 0 01.701.31.914.914 0 01.16.794c-.049.107-.022.274.092.303.334.125.532.471.472.825-.053.382-.273.72-.6.923-.259.17-.039.663.216.483.47-.327.75-.866.745-1.441a1.24 1.24 0 00-.731-1.181l.118.2a1.55 1.55 0 00-.313-1.075.855.855 0 00-.416-.244.905.905 0 00-.458.034c-.036.01-.023.078.014.069zm-9.865-8.774c.13-.286.38-.5.682-.585.184-.032.518.125.45.418-.057.239.165.512.36.357.205-.162.332-.433.548-.583a.52.52 0 01.58-.03c.458.256.55.96.53 1.511-.012.292.37.383.43.084a2.48 2.48 0 00-.037-1.265 1.579 1.579 0 00-.657-.896.973.973 0 00-.96-.053c-.152.08-.289.187-.405.314-.149.14-.272.305-.362.488l.46.088a.858.858 0 00-.828-.784.764.764 0 00-.51.258 1.844 1.844 0 00-.335.638c-.017.044.034.085.054.04zm-4.137.568c-.29-.237-.71-.528-1.06-.287a1.16 1.16 0 00-.33.478 1.044 1.044 0 01-.156.263c-.13.137-.257.053-.387-.042-.384-.278-.858-.483-1.262-.117a.913.913 0 00-.295.58c-.01.14.004.28.038.415.028.127.098.277.04.404l.228-.103c-.818-.45-1.971-.446-2.367.726-.329.975.29 2.128 1.178 2.05.217-.018.232-.383.013-.41a1.09 1.09 0 01-.766-.59 1.103 1.103 0 01.002-.973c.383-.86 1.212-.514 1.82-.343a.21.21 0 00.185-.046.214.214 0 00.074-.178c.004-.444-.34-1 .1-1.292a.693.693 0 01.748.069c.155.096.314.257.502.222.294-.054.38-.436.502-.706.268-.594.79-.343 1.17-.077.024.017.045-.025.023-.043zM24.987 5.1c.05-.28.135-.553.253-.813.078-.213.19-.413.33-.592.114-.133.303-.276.459-.154.123.109.163.285.1.438-.124.258.191.498.323.243.11-.22.27-.412.466-.56a.472.472 0 01.57-.044c.12.155.15.362.082.546a1.915 1.915 0 01-.316.612c-.187.269.072.613.306.395.273-.25.443-.593.48-.963.03-.33-.089-.656-.323-.889a.72.72 0 00-.802-.112 2.586 2.586 0 00-.755.726l.313.235c.127-.571-.358-1.144-.82-.875a1.432 1.432 0 00-.51.708 2.525 2.525 0 00-.166.538c-.032.186-.037.371-.054.559-.005.05.057.05.064.002zm-6.883 16.046a3.333 3.333 0 00-.433.108 1.21 1.21 0 00-.736 1.072c-.022.275.07.548.253.753.093.08.2.144.313.189.034.016.137.045.158.087.036.071-.07.173-.116.231-.405.504-.917.861-1.283 1.415a2.132 2.132 0 00-.263 1.883c.088.32.326.576.637.686.31.11.656.06.923-.134l-.247-.244a2.32 2.32 0 00.295 1.907c.34.498.975.855 1.506.626a.202.202 0 00-.03-.378 1.59 1.59 0 01-1.15-.565c-.29-.43-.395-.96-.29-1.468.034-.207-.142-.35-.283-.213a.593.593 0 01-.895-.18 1.37 1.37 0 01-.147-1.088c.184-.697.769-1.124 1.197-1.59.185-.202.509-.507.527-.834.019-.32-.224-.461-.426-.574a.563.563 0 01-.228-.739 1.24 1.24 0 01.315-.46c.132-.15.274-.292.423-.425.027-.021.014-.075-.02-.065zM37.877 33.78a1.56 1.56 0 00-.193 1.02c.004.161.042.32.11.467a.76.76 0 00.32.271c.33.243.422.697.215 1.05-.139.23-.5.269-.542.573.001.164.04.326.112.472.072.217.125.44.156.667.068.412-.001.835-.196 1.204a.72.72 0 01-1.302-.142c-.145-.332-.632-.128-.527.248.094.26.06.549-.091.78a.549.549 0 01-.568.209c-.347-.09-.521.533-.17.65.929.305 1.725-.826 1.356-1.887l-.501.331c.217.45.698.706 1.189.633.493-.137.875-.532.996-1.033a2.45 2.45 0 00.087-.959 3.512 3.512 0 00-.1-.559c-.041-.158-.165-.396-.129-.556.03-.135.174-.17.265-.26a1.193 1.193 0 00.284-1.14 1.118 1.118 0 00-.19-.383 2.62 2.62 0 00-.355-.29c-.31-.29-.035-.893-.022-1.256.004-.124-.128-.2-.204-.11zm4.182 1.181a.858.858 0 01.027.199c.009.065.02.129.032.192a1.029 1.029 0 01.017.266c0 .004-.004.044-.001.018.003-.027-.004.023-.005.023a.984.984 0 01-.03.14c-.006.018-.013.03-.002.006l-.013.03a.75.75 0 01-.034.062c-.01.017-.018.026-.002.005l-.019.024-.043.051c-.008.01-.046.05-.023.03a.263.263 0 01-.022.016s-.037.022-.016.012a.163.163 0 00-.098.17c0 .07.053.13.123.14a.383.383 0 00.337-.159.87.87 0 00.16-.403 1.061 1.061 0 00-.066-.485.955.955 0 00-.106-.215 1.86 1.86 0 01-.136-.174c-.03-.06-.104-.011-.08.052zM38.01 11.41c.072.085.149.163.216.253a.9.9 0 01.026.038c.006.008.025.04.01.013.02.036.04.072.063.106-.022-.033.003.005.007.013a1.062 1.062 0 01.063.137l.016.046a.304.304 0 00-.003-.012l.007.024a1.624 1.624 0 01.037.193c.002.015.002.033.006.048.003.017-.001-.042 0 .008 0 .033.002.065 0 .098 0 .017-.002.033-.003.05 0 .006-.008.061-.003.027l-.005.028a.98.98 0 01-.024.095c-.004.01-.025.067-.005.018a.25.25 0 00.054.296.163.163 0 00.245-.07 1.32 1.32 0 00-.015-1.033.909.909 0 00-.285-.376.405.405 0 00-.387-.08.053.053 0 00-.02.08zM22.56 6.261a.373.373 0 01-.11.016.25.25 0 00-.11 0 .723.723 0 00-.215.096c-.14.11-.251.25-.327.41a1.476 1.476 0 00-.073 1.138.162.162 0 00.237.083.242.242 0 00.071-.287 1.15 1.15 0 01-.019-.052 1.076 1.076 0 01-.033-.185c.005.045 0-.01 0-.02a1.241 1.241 0 01.005-.168c.001-.01.008-.057.002-.02a1.406 1.406 0 01.053-.22L22.06 7a1.342 1.342 0 01.012-.033c.052-.124.124-.24.213-.34.039-.051.081-.098.128-.142.027-.024.046-.052.071-.077a.169.169 0 01.098-.035c.061-.01.039-.122-.022-.112zm-3.492 8.233c-.127.016-.25.052-.366.105a.983.983 0 00-.278.304 1.636 1.636 0 00-.25.88l.142-.162c-.606.01-1.13.425-1.283 1.015a1.844 1.844 0 00.37 1.768c.188.19.414-.134.218-.32a1.368 1.368 0 01-.322-1.322c.12-.464.53-.793 1.006-.809a.155.155 0 00.143-.161c-.008-.239.05-.475.166-.683.054-.09.117-.174.187-.252.085-.1.168-.238.281-.288.038-.017.027-.086-.014-.075zm12.897 16.088c.208.513.528 1.505-.1 1.82a.212.212 0 00.027.352c.476.244.714.795.566 1.312-.07.468-.35.877-.76 1.108-.326.16-.067.74.257.578a2.02 2.02 0 00.982-1.753c.017-.7-.333-1.599-.991-1.621l.069.36c.267-.23.415-.57.4-.923a2.717 2.717 0 00-.426-1.248c-.01-.017-.031-.004-.024.015zm3.099 14.647a1.655 1.655 0 01-1.381 1.29c-.19.038-.546-.023-.69.17a.6.6 0 00-.079.327c-.01.167-.04.333-.088.493a1.566 1.566 0 01-1.113 1.151 1.066 1.066 0 01-1.138-.787c-.048-.188-.253-.24-.348-.066-.247.449-.53.83-1.014.675-.438-.14-.73-.615-1.001-1.02-.17-.253-.455.092-.303.344.343.573.748 1.142 1.363 1.246.616.105.998-.409 1.278-1.001l-.348-.066a1.46 1.46 0 001.277 1.168 1.54 1.54 0 001.416-1.044 3.07 3.07 0 00.239-1.05c.008-.162.032-.188.17-.217a1.48 1.48 0 01.22-.008 3.15 3.15 0 00.546-.07 1.42 1.42 0 001.109-1.55c-.009-.086-.105-.055-.115.015zM18.329 36.8a2.311 2.311 0 00-.005 1.8c.093.237.268.433.492.55a.652.652 0 00.49.028c.028-.01.103-.066.124-.067l-.121-.393c-.805.99-.145 2.866 1.013 2.737.29-.032.319-.575.018-.557a.863.863 0 01-.82-.583c-.134-.452-.1-.937.097-1.365.09-.273-.288-.417-.36-.133a.625.625 0 01-.198.02.445.445 0 01-.224-.092 1.148 1.148 0 01-.327-.484 2.663 2.663 0 01-.132-1.435c.006-.033-.033-.061-.047-.026zM26.66 42c.538.625 1.455.75 2.138.29.142-.102.018-.376-.12-.27a1.62 1.62 0 01-1.484.27 1.291 1.291 0 01-.49-.34c-.03-.028-.072.02-.044.05zM22.288 1.3a1.106 1.106 0 00-.486-.602 2.427 2.427 0 00-.722-.349.99.99 0 00-1.243.587c-.093.21-.067.255-.248.226a3.895 3.895 0 00-.76-.166 1.27 1.27 0 00-1.1 1.09l.753-.215a1.375 1.375 0 00-1.851-.3c-.65.41-.974 1.276-1.058 2.116-.028.27.16.513.427.55.257.008.432-.233.46-.522.018-.447.212-.868.54-1.17a.581.581 0 01.827.07.424.424 0 00.754-.215c.086-.447.39-.287.672-.205a.969.969 0 001.187-.408c.07-.118.115-.395.212-.464.07-.05.212-.007.295.01.402.084.888.34 1.286.114a.145.145 0 00.055-.147zM12.085 5.72a1.362 1.362 0 00-1.96-.48 1.606 1.606 0 00-.341 2.115l.465-.894a5.982 5.982 0 00-1.562-.301 1.477 1.477 0 00-1.466.51 1.501 1.501 0 00-.212 1.547c.185.495.503.928.918 1.252.405.37.91-.399.566-.828a.784.784 0 01-.13-.809.36.36 0 01.514-.17l.127-.913c-.493.15-.738.648-.96 1.153-.048.108-.094.215-.146.32a1.585 1.585 0 01-.128.222c-.01.014-.123.132-.073.086-.012.011-.113.064-.051.038a1.502 1.502 0 01-.474.03c-.643.047-1.48.337-1.681 1.188-.216.915.615 1.703 1.258 1.075a.578.578 0 00.022-.701.37.37 0 00-.58-.019c-.065.06.06-.049.062-.048-.003 0 .057.025.047.038.01-.012.016-.11.029-.139a.781.781 0 01.495-.318c.473-.15.967.013 1.38-.378.241-.27.427-.585.545-.928a3.04 3.04 0 01.246-.493.319.319 0 01.2-.153.55.55 0 00.127-.912 1.12 1.12 0 00-1.653.422 2.016 2.016 0 00.17 2.15l.566-.828a1.788 1.788 0 01-.551-.733c-.05-.172-.052-.368.095-.453.3-.12.629-.15.946-.084.365.05.726.122 1.083.217a.437.437 0 00.515-.233.642.642 0 00-.05-.66.31.31 0 01-.045-.293.647.647 0 01.21-.376c.405-.324.908.059 1.324.078a.206.206 0 00.152-.297z"/>
        <path d="M6.968 9.897c.022.001.044 0 .066-.002.02-.003.041-.005.06-.01.016-.002.016-.002.002 0-.024.001-.014 0 .033-.006a.492.492 0 00.033-.006l.01-.002c.022-.006.015-.004-.02.004.01.007.04 0 .046-.002a.172.172 0 00.058-.016.271.271 0 00.144-.125.343.343 0 00.03-.218.286.286 0 00-.102-.172.23.23 0 00-.18-.034l-.104.015.075-.01h-.011l.145.053-.01-.009.063.062-.003-.004-.068-.068a.227.227 0 00-.126-.053.282.282 0 00-.221.042l-.06.044.501.266a.714.714 0 00-.247-.406.585.585 0 00-.683-.019.734.734 0 00-.281.406l-.017.118a.395.395 0 00.027.173.414.414 0 00.144.218.381.381 0 00.184.067.35.35 0 00.265-.123l.095-.097-.61-.459-.095.39a.564.564 0 00.01.304c.024.09.077.17.15.228a.4.4 0 00.194.07.356.356 0 00.277-.128c.043-.055.083-.112.124-.169l.057-.078c.03-.038.057-.078.083-.119a.547.547 0 00.066-.26.49.49 0 00-.137-.36.314.314 0 00-.324-.091c-.123.018-.205.137-.281.242-.06.082-.12.165-.177.25l.695.382.07-.398.017-.12a.4.4 0 00-.027-.175.42.42 0 00-.146-.22.334.334 0 00-.455.056l-.088.105.603.454a.367.367 0 01.013-.042l-.04.105a.308.308 0 01.03-.058l-.06.088a.299.299 0 01.041-.047L6.73 10a.296.296 0 01.063-.042L6.705 10a.31.31 0 01.085-.025l-.095.013a.306.306 0 01.095.003l-.094-.019a.286.286 0 01.075.028l-.082-.046c.019.012.037.025.053.04l-.069-.068a.278.278 0 01.038.05l-.052-.088c.01.017.018.035.025.053l-.032-.1.002.008a.445.445 0 00.084.187.26.26 0 00.109.09.279.279 0 00.309-.011l.057-.048a.44.44 0 00.166-.244.49.49 0 00-.025-.322l-.001-.002.029.093-.002-.01-.038.269c.016-.041.038-.08.058-.118L6.978 9.5a.292.292 0 00-.02.116c.01.047.038-.102.018-.066l-.014.028c-.012.026.003-.008.006-.006l-.02.024-.022.022c-.02.021.015-.011-.01.009a.164.164 0 00-.06.16.129.129 0 00.112.11zm-2.185 3.115c-.077.091-.22.111-.31.184a2.492 2.492 0 00-.263.253c-.145.155-.284.32-.425.48a5.72 5.72 0 00-.788 1.065c-.23.404-.28.887-.139 1.33.095.38.431.65.82.657l-.187-.977c-.643.33-1.42.982-1.544 1.873-.078.422.065.855.379 1.146.26.229.65.226.908-.006a.498.498 0 00-.064-.825 1.512 1.512 0 00-1.61.569 2.492 2.492 0 00-.528 1.894 2.2 2.2 0 00.87 1.583 1.041 1.041 0 001.53-.32c.253-.415-.255-.878-.556-.552l-.262.285c-.347.377.134.984.487.627l.27-.273-.495-.639c-.168.22-.453.1-.624-.063a1.386 1.386 0 01-.396-.898c-.03-.35.087-.695.32-.956.23-.235.54-.37.868-.377l-.24-.776c.004-.004.117-.06.114-.044-.006.026-.054-.035-.054-.034a.153.153 0 01-.07-.096.934.934 0 01.16-.394c.243-.345.567-.624.944-.811.395-.212.226-.983-.187-.977.006 0 .013.028.018.032a.187.187 0 01-.05-.073.21.21 0 01-.009-.175c.083-.238.213-.456.382-.641.2-.27.385-.553.57-.839.084-.13.171-.259.246-.398.047-.083.086-.17.116-.261a.864.864 0 01.087-.287c.138-.204-.137-.465-.288-.286zM1.67 27.017c-.56.751-1.12 1.657-1.079 2.722.035.89.43 1.77 1.179 2.01l.204-.783c-.866-.338-1.612.832-1.498 1.803a1.922 1.922 0 001.94 1.671l-.155-.811a2.172 2.172 0 00-.656 2.377 1.514 1.514 0 001.86 1.031l-.271-.862c-.823.468-1.088 1.76-.707 2.701a1.824 1.824 0 002.343 1.068l-.298-.948a1.248 1.248 0 01-1.918-.324 2 2 0 01.274-2.298l-.508-.502c-.057.158-.326.104-.425.033-.244-.175-.275-.614-.266-.924.015-.515.21-1.492.756-1.515.444-.02.476-.852.026-.84-1.116.026-1.58 1.618-1.477 2.752.056.617.341 1.231.867 1.395.244.078.51.053.736-.07a.954.954 0 00.462-.58c.125-.333-.26-.712-.507-.503a3.072 3.072 0 00-.672 3.612 1.99 1.99 0 003.053.663.58.58 0 00.193-.635.41.41 0 00-.491-.313c-.52.223-1.123 0-1.376-.509a1.26 1.26 0 01.3-1.445c.36-.258.162-1.042-.272-.862a.787.787 0 01-.992-.502 1.164 1.164 0 01.304-1.242c.297-.235.21-.779-.156-.811a1.277 1.277 0 01-1.186-.88c-.103-.447.202-.98.602-.93.386.048.47-.667.115-.8-.466-.173-.692-.826-.68-1.378.016-.802.382-1.577.658-2.29.081-.208-.126-.49-.282-.28zm2.968 14.23a3.037 3.037 0 00.471 2.601c.23.344.534.631.889.84.36.179.751.286 1.152.316l.022-.733a1.257 1.257 0 00-1.149.673 1.628 1.628 0 00.277 1.599c.615.839 1.83 1.445 2.514.355.244-.39-.248-.85-.532-.528-.35.415-.491.968-.386 1.502.084.528.434.974.924 1.178 1.01.4 1.979-.449 2.397-1.533l-.662-.126c.045.346-.395.607-.612.685a1.6 1.6 0 01-1.1.014 1.046 1.046 0 01-.648-.69 1.104 1.104 0 01.099-1.005L7.767 46a.535.535 0 01-.563.311.792.792 0 01-.597-.516c-.25-.56-.245-1.557.298-1.875l-.525-.52a.46.46 0 01-.384.433.53.53 0 01-.506-.302c-.377-.597-.086-1.38.237-1.914.27-.448-.32-.877-.593-.447-.571.9-.84 2.288-.08 3.15.285.355.758.497 1.19.354.437-.166.755-.552.838-1.015.07-.39-.22-.682-.524-.518-1.016.544-1.105 2.332-.534 3.309.218.494.724.792 1.258.742a1.25 1.25 0 001.099-.966c.11-.362-.304-.674-.526-.395a2.055 2.055 0 00-.404 1.79c.136.624.567 1.14 1.153 1.383 1.026.404 2.805-.208 2.66-1.825a.348.348 0 10-.663-.126c-.27.62-.751 1.267-1.391 1.16a.7.7 0 01-.563-.489.768.768 0 01.108-.742l-.474-.612c-.371.535-1.02.018-1.329-.35-.117-.14-.35-.43-.285-.66.068-.243.389-.313.563-.367.324-.101.292-.729-.059-.722a1.688 1.688 0 01-.867-.323 2.433 2.433 0 01-.674-.635 3.035 3.035 0 01-.416-.882 4.099 4.099 0 01-.24-1.118c0-.222-.297-.307-.337-.066zm8.07 9.6c.023.125.038.253.046.38.024.115.067.224.128.324.134.222.31.414.52.564.398.28.88.409 1.364.363l-.373-.853a1.66 1.66 0 00.06 1.294c.196.406.547.713.972.85.427.138.894.01 1.193-.325.331-.39.434-.927.27-1.412-.071-.23-.187-.409-.402-.447a.47.47 0 00-.508.273 2.04 2.04 0 00.88 2.394c.71.36 1.603-.213 1.643-1.183a.53.53 0 00-.218-.53.523.523 0 00-.57-.018.53.53 0 00-.251.515c-.001.047.007.086.002.019-.005-.068.036 0-.01.016.061-.022-.042.03-.009.007l-.059.039a.108.108 0 01-.05.015c-.013.001-.093-.01-.068-.004.046.012-.076-.046-.037-.018a.818.818 0 01-.26-.295 1.338 1.338 0 01-.111-.268c.002.008-.023-.088-.017-.071-.019-.051.046-.137-.02.02l-.91-.173c.006.02.05.22.052.162a.221.221 0 01-.063.09c.041-.032-.041.016-.056.018a.421.421 0 01-.25-.052.701.701 0 01-.285-.237.459.459 0 01-.066-.37c.027-.336-.29-.679-.568-.557-.306.127-.65.118-.949-.026a1.96 1.96 0 01-.424-.253 2.198 2.198 0 00-.225-.155c-.052-.031-.224-.112-.254-.174-.044-.088-.155-.015-.117.077zm10.882 3.158c.454.398.79 1.21 1.464.9.487-.223.682-.849.77-1.42l-.89-.028c.187.762.76 1.345 1.44 1.309a1.685 1.685 0 001.446-1.42l-.891.253a1.336 1.336 0 001.743.362 1.95 1.95 0 00.806-1.933c-.144-.721-1.066-.615-1.085.143a2.8 2.8 0 01-.007.286c.018-.141-.06.186-.019.076-.014.035-.114.2-.084.16a.354.354 0 01-.099.098.38.38 0 01-.48-.07.502.502 0 00-.892.253c-.053.3-.215.542-.468.56a.515.515 0 01-.302-.108.687.687 0 01-.252-.372c-.189-.539-.834-.254-.868.255-.015.23-.029.619-.21.716-.331.179-.705-.225-.986-.375-.177-.094-.275.233-.136.355z"/>
      </g>
      <path fill="#52AF4E" fill-rule="nonzero" d="M26.044 2.113c.297.095.619.072.9-.065a.602.602 0 01.405-.042c-.042-.019.05-.027.026.027a.053.053 0 01-.015-.039.368.368 0 01.033-.167c-.303.73.463 1.307.878.663a.834.834 0 01.264-.178c-.035.016.106-.03.105-.03-.036.014.05-.022.04-.005.034.011.035.012.003.003a.157.157 0 01-.077-.129l.012.06c-.006-.063-.01-.055-.01.023.037-.092-.024.074-.032.094.02-.053-.07.121-.085.146l.88.664c.134-.241.318-.45.539-.615.104-.076.216-.14.334-.192a1.825 1.825 0 01.307-.09 37.4 37.4 0 01-.188-.175c-.015-.051-.014-.038.001.038l-.006-.033a2.164 2.164 0 01-.01.21 1.667 1.667 0 01-.124.42 1.267 1.267 0 01-.534.6l.742.734c.197-.528.32-1.08.365-1.643.042-.296 0-.597-.122-.87a.609.609 0 00-.713-.327.632.632 0 00-.344.795.46.46 0 00.69.307l.043-.027-.248.072c-.164-.33-.245-.41-.242-.24 0 .028-.002.055-.004.083a3.41 3.41 0 01-.085.59 2.807 2.807 0 01-.275.746c-.302.55.233 1.147.684.882a2.523 2.523 0 001.04-1.323c.2-.54.308-1.327-.043-1.807-.392-.535-1.109-.242-1.565.018-.472.287-.86.695-1.122 1.183a.717.717 0 00.16.867.482.482 0 00.72-.203c.388-.626.405-1.62-.239-1.995-.597-.347-1.358.094-1.739.684l.935.514c.183-.745-.314-1.487-.95-1.47a1.3 1.3 0 00-.81.415 8.7 8.7 0 00-.545.713.075.075 0 00.02.114z"/>
      <path fill="#52AF4E" fill-rule="nonzero" d="M30.685 2.476a2.48 2.48 0 001.067 1.581c.249.145.51.266.78.361a.636.636 0 01.184.107c-.01-.009-.042-.05-.002.002.036.047-.009-.065.007.025.018.098.024.198.035.297a1.643 1.643 0 001.194 1.422 2.75 2.75 0 001.05.016c.146-.019.29-.04.435-.048.066-.004.13-.005.196-.003.032.001.063.005.095.006.01 0 .097.01.041 0a.637.637 0 01.37.17c-.037-.032.062.09.025.029-.014-.024.044.157.018.03.008.038.015.074.02.113-.008-.064-.02-.07-.007-.005.002.013-.012.11 0 .026.013-.083-.01.034-.015.05-.025.077.011-.031.014-.032l-.024.047.036-.05c-.002 0-.073.073-.01.018.057-.05-.1.02.029-.023l.257 1.313a1.099 1.099 0 011.164.03c.083.067.065.05.149.173.06.089-.05-.114.035.062.024.05.046.103.065.156a.593.593 0 01-.005.387c-.138.476.255.995.66.851a3.285 3.285 0 01.509-.138.894.894 0 00.023-.002c.057-.003.113-.006.17-.003a.999.999 0 01.11.01c-.061-.014-.059-.012.007.005.036.015.14.075.056.016.03.02.058.042.084.066-.049-.046-.05-.04-.002.016-.036-.06-.034-.049.005.031-.013-.036-.014-.032-.003.013.027.268 0 .54-.08.796-.007.028-.077.235-.027.108a1.22 1.22 0 01-.076.16c-.05.053-.046.052.012-.003.073-.026.079-.029.015-.008.08-.007.083-.012.014-.014l.557.717a5.782 5.782 0 00-.357-2.412.53.53 0 00-.776-.273.796.796 0 00-.235.94c.188.549.26 1.13.21 1.709a.66.66 0 00.557.718c1.077.094 1.466-1.7 1.32-2.698a1.422 1.422 0 00-.982-1.212 2.279 2.279 0 00-1.367.148l.66.851a2.29 2.29 0 00-.583-2.2 1.946 1.946 0 00-2.146-.313.724.724 0 00-.417.82c.017.158.1.303.228.397.129.094.29.129.446.096.683-.226.985-1.153.746-1.919a1.637 1.637 0 00-1.71-1.11c-.363.018-.722.115-1.085.11-.052 0-.103-.005-.155-.008 0 0-.092-.014-.04-.004.051.01-.04-.012-.04-.012-.038-.013-.075-.025-.111-.04a.656.656 0 01-.198-.135c-.059-.065-.043-.053-.023-.019a.521.521 0 01-.04-.086c-.036-.097.014.088-.009-.04a3.093 3.093 0 01-.02-.127 1.964 1.964 0 00-.16-.658 1.416 1.416 0 00-.814-.683 9.412 9.412 0 01-.97-.332 5.687 5.687 0 01-.861-.655c-.156-.117-.334.062-.305.266zM40.963 14.08c.126.435.275.863.446 1.282.183.399.41.775.678 1.122.249.324.55.603.892.825.181.087.343.21.475.363.023.034.036.102.063.128a.252.252 0 01.114-.017l-.033 1.054a.455.455 0 01.572.283.349.349 0 01.013.145c-.019.115-.032.074-.018.052a.304.304 0 01-.077.062c-.078.058-.05-.014-.016.009-.488-.314-.932.515-.466.89.288.18.46.5.453.841-.052.298-.283.47-.462.243-.247-.312-.164-.912-.083-1.293.048-.22.232-.782.495-.576l-.127-.69c-.002.006.121-.123.123-.074 0-.017-.073-.09-.085-.108a2.655 2.655 0 01-.424-1.35l-.399.453.024-.002-.331-.246.012.021-.047-.245.01-.062.115-.22-.019.025.194-.127-.03.004.234.007c.1.117.13.133.09.048a7.869 7.869 0 00-.119-.295 7.072 7.072 0 00-.204-.453 2.639 2.639 0 00-.541-.792c-.25-.23-.627.127-.545.476.104.355.241.7.41 1.03.137.31.231.744.49.938.349.26.836-.11.734-.615-.077-.387-.464-.6-.724-.294-.226.266-.078.784-.011 1.104.067.33.177.65.326.953.114.3.335.549.619.697a.655.655 0 00.797-.345.572.572 0 00-.127-.689.888.888 0 00-1.071-.045 1.76 1.76 0 00-.665 1.01c-.254.858-.286 1.99.342 2.607.617.607 1.469.226 1.752-.638a2.037 2.037 0 00-.74-2.188l-.466.89c.7.391 1.511-.23 1.438-1.197a1.384 1.384 0 00-.525-1.04 1.365 1.365 0 00-1.129-.265c-.443.071-.452.937-.032 1.054.627.174 1.169-.552.985-1.297-.171-.69-.714-.88-1.177-1.202a4.583 4.583 0 01-1.041-1.1c-.322-.44-.644-.879-.943-1.343-.101-.157-.273.034-.22.192zm3.65 12.642a.124.124 0 01.055-.011c-.024 0 .04.023.008.004.005.003.068.058.033.022.02.023.04.047.056.073-.035-.049.004.011.015.032.033.058.004-.028.004.007a.5.5 0 00.02.1.461.461 0 01.01.05c-.004-.061-.006-.074-.006-.038-.01.06-.013.06.003.005-.015.052-.036.092-.001.025a3.783 3.783 0 01-.052.097c.054-.096 0-.006-.018.015-.023.026-.093.071-.013.02-.03.019-.058.04-.086.058-.069.046.044-.007-.002 0-.037.005-.074.02-.112.026-.168.026-.3.246-.327.43a.57.57 0 00.193.533c.04.029.08.06.119.093.03.026.078.08.024.02.062.068.118.142.168.22-.063-.102.02.05.03.07.017.038.031.077.046.116-.044-.113.011.043.017.073.006.026.01.053.014.08a.476.476 0 00-.003-.038c-.002.035-.018.18.005.041-.015.056-.011.05.012-.016-.022.04-.023.044-.004.01a.124.124 0 01.044-.053c.051-.019.053-.02.004-.002-.014.004-.131.03-.093.024a1.322 1.322 0 01-.333-.014 1.005 1.005 0 01-.175-.072c-.22-.117-.52.103-.578.371-.059.265.047.637.3.694.034.009.068.016.103.022.066.01.08.014.043.01-.053-.016.058.016.069.018.096.022.193.037.291.045.17.01.339-.006.503-.048a.947.947 0 00.673-.881 1.916 1.916 0 00-.81-1.682l-.134.963c.604-.185.97-.803.845-1.426-.111-.545-.699-.872-1.099-.53a.272.272 0 00-.09.298.193.193 0 00.23.146zm-.874 6.356c.069.15.107.31.113.475.011.165 0 .33-.035.493-.032.316-.175.61-.403.83-.19.23-.2.561-.025.803.067.07.06.058.083.123-.017-.04-.017-.026 0 .04-.004-.047-.006-.035-.004.037a.489.489 0 01-.067.222.924.924 0 01-.762.3.594.594 0 00-.44.318.602.602 0 00-.002.544c.195.41.206.883.03 1.302a.534.534 0 01-.319.233c-.015.004-.118.014-.056.011-.012 0-.137-.006-.092-.003.054.002-.08-.03-.017-.001-.072-.033-.142-.08-.213-.119-.435-.24-.873.61-.507.975.567.566 1.395.345 1.873-.294.547-.732.503-1.841.15-2.664l-.443.86a1.842 1.842 0 001.574-.86 1.64 1.64 0 00-.099-1.806l-.123.889c.456-.408.714-.993.711-1.606a2.216 2.216 0 00-.181-.843 1.765 1.765 0 00-.187-.333 3.208 3.208 0 00-.267-.256c-.185-.209-.463.1-.292.33zM32.87 50.842c.07.045.131.1.182.165.058.083.08.154.165.209a.956.956 0 00.44.12c.309.006.606-.115.823-.336.392-.459.64-1.023.716-1.622l-.746.213a1.506 1.506 0 002.214.24c.382-.331.647-.777.756-1.273.06-.257.077-.523.052-.787a1.636 1.636 0 00-.162-.568.077.077 0 00-.143-.004c-.078.12-.15.244-.214.373-.076.16-.16.316-.237.476a2.875 2.875 0 01-.504.777.731.731 0 01-1.113.03.42.42 0 00-.747.212 3.098 3.098 0 01-.391 1.165.599.599 0 01-.408.252.89.89 0 00-.352.063c-.033.02-.065.078-.098.09a.932.932 0 01-.178-.01c-.095-.007-.135.158-.055.215z"/>
      <path fill="#52AF4E" fill-rule="nonzero" d="M37.186 47.15c.249.387.678.29.97.012.173-.187.288-.42.332-.67.03-.146.05-.293.055-.44a1.609 1.609 0 01.02-.49c.172-.424-.343-.709-.486-.266a8.718 8.718 0 00-.203.893c-.028.206-.11.4-.237.563a.914.914 0 01-.402.255 1.1 1.1 0 01-.533-.005c-.235-.03-.406.394-.22.586.647.67 1.518-.501 1.674-1.238a.405.405 0 00-.206-.476c-.374-.135-.572.276-.734.607l-.511 1.036a8.464 8.464 0 01-.475.939.864.864 0 01-.255.263c-.042.026-.158.103-.205.066l.122.157c.003.066.006.084.008.055a1.762 1.762 0 01.073-.267c.05-.133.116-.259.196-.376l-.47-.354c-.093.227-.214.443-.325.658l.598.217c.015-.149.02-.3.011-.449a.32.32 0 00-.177-.303.241.241 0 00-.293.133c-.071.16-.13.325-.175.495-.138.484.467.695.62.228.067-.207.127-.426.21-.625.149-.352-.167-.652-.423-.421-.315.283-.71.941-.477 1.422.262.54.97.277 1.289-.032a4.01 4.01 0 00.734-1.318l.326-.763.178-.416c.031-.074.071-.239.13-.269l-.16.047h-.005l-.206-.476a2.048 2.048 0 01-.294.664 1.378 1.378 0 01-.326.32c-.054.027-.107-.008-.052.028l.093.12-.004.006-.433.378a.958.958 0 00.767.184 1.28 1.28 0 00.743-.397c.213-.227.363-.507.433-.811.092-.374.052-.757.11-1.135l-.454.13a.264.264 0 00.052.063c.033.02.032.03-.004.033.006.043.005.09.006.132.005.12.002.24-.009.36-.013.212-.08.417-.192.596a.68.68 0 01-.787.319c-.017-.008-.027.018-.017.032z"/>
      <path fill="#52AF4E" fill-rule="nonzero" d="M39.496 44.453c.311-.118.635-.143.946-.27.328-.133.615-.351.832-.632.254-.327.523-.796.332-1.246a1.286 1.286 0 00-1.161-.628c-.434-.007-.57.653-.241.94a.842.842 0 01.15.161c.03.056 0 .008.003-.004-.05.104-.108.205-.174.3a2.03 2.03 0 01-.69.628l.489.82c.26-.236.466-.525.606-.848.077-.172.139-.35.184-.532.043-.18.037-.37.064-.544l-.73-.143c-.022.387-.077.772-.166 1.15a1.015 1.015 0 01-.543.616c-.39.147-.744.375-1.04.67a2.511 2.511 0 00-.582 1.278c-.078.281.05.58.31.714a.47.47 0 00.594-.381 1.6 1.6 0 01.164-.55c.071-.138.17-.26.291-.36.325-.243.697-.358 1.008-.636.646-.576.797-1.695.702-2.598a.37.37 0 10-.597-.253.376.376 0 00-.142.35c-.012.247-.079.489-.196.706-.098.209-.24.393-.415.54a.592.592 0 00-.174.697.395.395 0 00.574.201c.456-.284.83-.687 1.079-1.165.176-.28.242-.617.182-.944a1.45 1.45 0 00-.5-.737l-.242.94c.13-.001.258.019.381.059.043.015.084.038.127.05.02.038.036.047.047.027-.019-.187-.038-.223-.058-.108-.046.082-.068.192-.114.279-.054.105-.12.205-.195.296a3.33 3.33 0 01-1.137.994c-.084.035-.055.196.032.163z"/>
      <path fill="#52AF4E" fill-rule="nonzero" d="M38.421 45.019c-.012.081-.07.125-.104.198a1.512 1.512 0 00-.077.29c-.033.146-.054.293-.079.44a4.71 4.71 0 00-.045.313c-.003.036-.01.074-.012.11.006-.14.005-.04-.003 0a1.7 1.7 0 01-.063.237c.029-.073.035-.09.02-.053-.016.03-.029.06-.045.089-.051.091-.006-.014.015-.017-.014.002-.046.06-.06.076-.033.039-.088.064.016-.005-.023.016-.045.035-.068.05a.566.566 0 00-.072.042l.066-.032a.816.816 0 01-.199.055c-.06.013.12-.008.033-.005-.029.001-.057.004-.085.004-.057.002-.115 0-.172-.005a2.796 2.796 0 01-.171-.018.798.798 0 00-.268.017.572.572 0 00-.367.544c-.01.239.12.46.332.567.153.06.317.086.48.076.162.004.324-.013.482-.05.353-.087.65-.327.81-.654.17-.38.232-.799.18-1.212-.021-.17-.053-.339-.094-.505a2.414 2.414 0 00-.09-.34.55.55 0 00-.071-.124.488.488 0 00-.062-.059c.027.036.032.029.016-.022a.122.122 0 00-.243-.008zM25.7 1.699c-.63.182-1.265-.229-1.889-.02-.332.125-.586.4-.685.744-.121.345-.064.728.153 1.022l.272-.72a2.362 2.362 0 00-1.104.173c-.317.154-.553.466-.861.628-.308.162-.63.19-.819.583a.893.893 0 00.203 1.106l.126-.905a1.95 1.95 0 00-1.384 1.846l.742-.343a1.033 1.033 0 00-1.24-.282 2.096 2.096 0 00-.96 1.166c-.249.54-.341 1.14-.266 1.732.07.518.381.972.838 1.222.462.242.84-.729.378-.984-.88-.485.2-2.57.622-2.141.126.138.326.179.495.1a.432.432 0 00.247-.443c.012-.372.267-.858.607-.893a.528.528 0 00.236-.92c.017.014.096.232.055.21.007.004.181-.104.21-.116.221-.095.428-.222.613-.378.154-.156.33-.29.52-.396.23-.081.472-.12.716-.113a.45.45 0 00.271-.719c.05.07.018-.052.037-.109a.353.353 0 01.099-.15.954.954 0 01.694-.117c.447.023.993.034 1.227-.525.054-.13-.024-.296-.153-.258zm-9.152 10.015c-.567-.541-1.42-.235-1.716.554-.286.764.107 1.796.864 1.747l-.079-.97c-.703.14-1.493.442-1.723 1.368-.235.943.375 1.568 1.038 1.844l-.072-.938a2.347 2.347 0 00-1.424 1.677 1.32 1.32 0 00.308 1.173c.224.215.509.405.772.155a.325.325 0 00.046-.333c-.067-.165-.226-.262-.26-.39a.924.924 0 010-.551c.197-.395.541-.696.957-.835.364-.178.236-.804-.072-.937-.232-.1-.6-.282-.467-.65.17-.474.72-.547 1.085-.628.388-.085.417-.843.029-.949-.197-.053-.252-.243-.146-.437.188-.258.48-.422.797-.448.191-.044.189-.331.063-.452zm-2.551 8.629c-.602-.39-1.346.025-1.685.702a1.55 1.55 0 00-.067 1.31c.182.326.492.558.854.64l.208-.797c-.728-.189-1.478.315-1.776 1.138-.19.425-.082.925.265 1.234.31.23.673.378 1.055.428a.776.776 0 00.914-.532c.11-.44-.006-.906-.308-1.243a.627.627 0 00-1.019-.027c-.225.238-.53.745-.354 1.11.212.44.777.305.878-.174a.795.795 0 00-.186-.685.498.498 0 00-.6-.133.251.251 0 00-.058.415c.087.06.18.178.275.211.005.002.009.032.007.031.06.01.06-.149.136-.073.065.063.028.238.099.088.025-.054.051-.108.08-.159.04-.071.117-.2.204-.186.118.02.277.346.269.481-.01.162-.2.1-.292.073a1.863 1.863 0 01-.667-.3c-.017-.014-.077-.076-.073-.056-.016-.077.073-.226.107-.287.183-.342.542-.55.927-.539.39.008.488-.67.117-.815a.898.898 0 01-.41-.243c-.097-.161.012-.4.084-.533.19-.312.516-.515.879-.546.21-.025.368-.383.137-.533z"/>
      <path fill="#52AF4E" fill-rule="nonzero" d="M12.845 23.677c-.553.263-.665 1.22-.464 1.8.093.27.323.48.35.78a4.098 4.098 0 01-.12.945c-.07.344-.058.699.032 1.038.095.304.33.517.267.865-.068.383-.24.718-.285 1.112-.054.36.035.726.248 1.02.287.361.804-.075.6-.526a8.194 8.194 0 01-.535-1.366 7.484 7.484 0 01-.13-1.592 12.795 12.795 0 01-.009-1.655c.052-.56.155-1.127.248-1.679.06-.357-.358-.53-.455-.167a12.207 12.207 0 00-.361 1.732c-.073.616-.025 1.228-.055 1.845a6.071 6.071 0 00.066 1.723c.142.548.335 1.08.576 1.592l.6-.525c-.132-.165-.039-.459.018-.646.132-.338.21-.695.229-1.058a2.128 2.128 0 00-.309-.918 1.32 1.32 0 01-.034-.721c.093-.656.198-1.252-.152-1.822a1.512 1.512 0 01-.266-.715c-.003-.29.051-.578.158-.847a.166.166 0 00-.037-.182.163.163 0 00-.18-.033z"/>
      <path fill="#52AF4E" fill-rule="nonzero" d="M12.791 30.145c-.087.414-.085.841.007 1.254.05.2.162.366.216.556a.31.31 0 00.004-.046.39.39 0 01-.06.11c-.05.084-.11.159-.16.244-.235.4-.218.9.043 1.283a.736.736 0 001.064.127l-.473-.609a2.125 2.125 0 00.087 2.183l.02-.651a1.97 1.97 0 00-.089 2.43 1.245 1.245 0 001.978-.062c.203-.28.118-.822-.25-.808a1.429 1.429 0 01-.997-.176.523.523 0 01-.113-.688l-.513-.186c-.02.414.115.82.379 1.139.234.287.559.455.772.768.213.314.064.782.208 1.146.169.426.674.754.99.33a.461.461 0 00.016-.542 1.827 1.827 0 00-.772-.615 1.048 1.048 0 01-.357-.26c-.06-.075-.18-.252-.137-.35.175-.4-.254-.71-.48-.363a1.078 1.078 0 00.267 1.344c.276.256.82.282.966.694l.292-.57c-.069.003-.08-.01-.1-.088a4.63 4.63 0 01-.02-.569 1.439 1.439 0 00-.405-.864 4.78 4.78 0 00-.654-.493 1.433 1.433 0 01-.298-.27.704.704 0 01-.104-.167c-.045-.108-.04-.081-.02-.163.077-.321-.247-.576-.454-.342a1.366 1.366 0 00-.015 1.562c.354.56.98.63 1.52.66l-.249-.809a.584.584 0 01-.88.094.889.889 0 01.037-1.114.543.543 0 00.02-.651 1.075 1.075 0 01-.039-1.091c.185-.345-.165-.867-.472-.61-.112.094-.18.007-.125-.124.05-.12.149-.212.21-.326.086-.163.127-.346.118-.53-.051-.32-.199-.616-.423-.847-.2-.283-.348-.6-.434-.936-.017-.066-.105-.083-.12-.004zm4.168 10.893a1.6 1.6 0 01.325.755c.024.298-.143.56-.143.857a.891.891 0 00.864.916l-.318-.312c.105.413.377.762.75.965a.884.884 0 001.072-.086l-.504-.379c-.2.691-.006 1.437.506 1.94a1.143 1.143 0 001.715-.326l-.531-.101c.027.157-.008.358.01.524.017.173.052.344.104.51.092.309.242.596.442.848.396.49 1.056.747 1.525.23l-.587-.209c.202.646.441 1.36 1.015 1.63a.914.914 0 00.808.002.925.925 0 00.498-.64c.08-.36-.314-.748-.552-.415a.396.396 0 01-.55.146c-.306-.178-.442-.682-.56-1.033a.326.326 0 00-.555-.104c-.212.245-.58-.078-.726-.275a1.69 1.69 0 01-.252-.524 2.063 2.063 0 01-.077-.503c0-.023.016-.154-.012-.086.1-.24-.046-.65-.314-.53a1.83 1.83 0 01-.51.243.702.702 0 01-.484-.1.918.918 0 01-.325-1.01.37.37 0 00-.282-.48 1.47 1.47 0 01-.61-.069.864.864 0 01-.383-.465.323.323 0 00-.378-.2c-.126.03-.195-.095-.218-.227a5.178 5.178 0 00-.07-.694 2.095 2.095 0 00-.651-.86c-.031-.029-.064.029-.042.062zm8.308 8.032a1.414 1.414 0 001.003 1.373 1.04 1.04 0 001.192-.86c.102-.402-.344-.626-.538-.295-.42.717-.232 1.77.421 2.16.726.434 1.51-.093 1.763-.986l-.45-.088c.03.58.186 1.195.672 1.43.225.099.481.09.7-.022a.825.825 0 00.427-.559c.113-.377-.391-.67-.536-.294a.315.315 0 01-.43.204c-.23-.099-.355-.474-.372-.745-.016-.237-.225-.38-.388-.21-.308.324-.6.74-1.044.548a.78.78 0 01-.258-1.057l-.538-.296c-.078.22-.415.196-.554.12-.266-.147-.438-.477-.668-.684-.159-.143-.401.033-.402.26z"/>
      <path fill="#301D03" fill-rule="nonzero" d="M24.388 60.106a7.627 7.627 0 00-.519-1.662 7.208 7.208 0 01-.232-1.73 12.05 12.05 0 00-.724-2.904l.016-.078a3.03 3.03 0 01.409-.86c.126-.227.234-.464.321-.709.122-.303.324-.58.435-.885.057-.158-.214-.225-.329-.106-.266.278-.456.595-.71.88a2.42 2.42 0 00-.504.78l-.014.039a7.49 7.49 0 00-.49-1.032c-.312-.524-.67-1.028-.968-1.557-.124-.22-.627-.062-.513.165.242.513.416 1.055.518 1.613.115.538.266 1.052.34 1.595.112 1.072.12 2.153.02 3.226a7.123 7.123 0 00.026 1.677c.094.534.386 1.035.475 1.566.186 1.123-.248 2.209-.328 3.316-.032.44.473.832 1.022.882a1.242 1.242 0 001.293-.644 5.72 5.72 0 00.403-1.813 7.12 7.12 0 00.053-1.759z"/>
      <path fill="#01002B" fill-rule="nonzero" d="M22.618 24.36a2.004 2.004 0 00-1.984 1.11 2.031 2.031 0 00.312 2.262 1.998 1.998 0 002.208.525 2.02 2.02 0 001.283-1.885 1.893 1.893 0 00-.484-1.396 1.867 1.867 0 00-1.335-.616z"/>
      <ellipse cx="22.618" cy="26.372" fill="#FFF" fill-rule="nonzero" rx="1.186" ry="1.559"/>
      <g fill-rule="nonzero" transform="translate(31.292 23.929)">
        <path fill="#01002B" d="M2.377.222A2.004 2.004 0 00.393 1.33a2.031 2.031 0 00.311 2.262 1.998 1.998 0 002.209.525 2.02 2.02 0 001.282-1.885A1.893 1.893 0 003.712.837 1.867 1.867 0 002.377.222z"/>
        <ellipse cx="2.377" cy="2.233" fill="#FFF" rx="1.186" ry="1.559"/>
      </g>
      <path fill="#01002B" fill-rule="nonzero" d="M32.662 23.199c.228.095.468.155.713.18.247.04.495.076.742.117.493.082.994.157 1.48.277l.075-.587c-.25-.06-.503-.112-.753-.176a5.239 5.239 0 00-.732-.149 10.406 10.406 0 00-1.671.041l.148.552a4.545 4.545 0 013.068-.247.3.3 0 00.335-.259.308.308 0 00-.258-.337 5.286 5.286 0 00-3.368.312.288.288 0 00.149.551l.808-.018c.253-.015.507-.012.76.009.486.06.95.262 1.438.308.376.034.454-.549.076-.587-.497-.05-.993-.13-1.49-.183-.25-.026-.5-.053-.749-.071a2.306 2.306 0 00-.74.023.129.129 0 00-.031.244zm-8.842-.049c-.22.11-.456.187-.699.23-.244.056-.489.108-.733.166-.486.115-.98.224-1.457.376l-.115-.58c.247-.076.494-.146.74-.227.235-.083.475-.15.72-.198a10.406 10.406 0 011.67-.072l-.11.56a4.545 4.545 0 00-3.078-.038.3.3 0 01-.352-.236.308.308 0 01.235-.354 5.285 5.285 0 013.38.083.288.288 0 01-.11.56l-.808.037a5.24 5.24 0 00-.757.06c-.482.093-.931.327-1.415.405-.373.06-.489-.516-.115-.58.493-.084.982-.198 1.475-.284.247-.043.494-.086.742-.122.243-.049.493-.058.74-.027a.129.129 0 01.048.242h-.001z"/>
    </g>
  </g>
</svg>
