<svg width="150" height="150" viewBox="0 0 150 150" fill="none" xmlns="http://www.w3.org/2000/svg">
    <mask id="mask0_4782_27476" style="mask-type:alpha" maskUnits="userSpaceOnUse" x="0" y="0" width="150" height="150">
        <circle cx="75" cy="75" r="75" fill="#C4C4C4"/>
    </mask>
    <g mask="url(#mask0_4782_27476)">
        <path d="M75.5673 153.814C118.43 153.814 153.178 118.528 153.178 75C153.178 31.4725 118.43 -3.81354 75.5673 -3.81354C32.7041 -3.81354 -2.04333 31.4725 -2.04333 75C-2.04333 118.528 32.7041 153.814 75.5673 153.814Z" fill="#E3F7FF"/>
        <path d="M59.2236 62.18C60.7536 60.6212 61.6687 58.388 60.8569 56.3646C60.3994 55.1705 59.4794 54.2862 58.4118 53.6117C55.0466 51.3784 50.5597 51.3784 46.737 52.6275C42.9143 53.9265 39.5491 56.3146 36.2331 58.7527C39.6475 55.6901 43.116 52.4676 44.9511 48.2109C46.737 43.9542 46.2745 38.3436 42.7076 35.5408C39.4458 32.9978 34.8555 33.4624 30.8803 34.5016C22.8265 36.58 15.2795 40.5269 8.85906 45.8727C4.67719 49.35 -3.52915 56.1048 -4.44916 62.18H59.2236Z" fill="#FCFCFC"/>
        <path d="M121.002 34.047C122.099 32.9279 122.763 31.3241 122.173 29.8653C121.843 29.0059 121.184 28.3714 120.411 27.8868C117.991 26.2831 114.768 26.2831 112.018 27.1774C109.268 28.1116 106.852 29.8253 104.471 31.5789C106.926 29.3756 109.416 27.0625 110.739 24.0048C112.023 20.9422 111.693 16.9154 109.125 14.8969C106.779 13.0684 103.482 13.4031 100.624 14.1525C94.8332 15.6463 89.4115 18.4841 84.7967 22.3261C81.7907 24.8292 75.8918 29.6804 75.2325 34.047H120.997H121.002Z" fill="#FCFCFC"/>
        <path d="M143.845 69.3544C144.573 68.6149 145.006 67.5558 144.622 66.5915C144.406 66.022 143.968 65.6023 143.461 65.2825C141.862 64.2234 139.732 64.2234 137.916 64.8129C136.101 65.4274 134.502 66.5665 132.928 67.7256C134.551 66.2718 136.199 64.738 137.07 62.7195C137.916 60.6961 137.7 58.0332 136.003 56.6992C134.453 55.4902 132.273 55.71 130.384 56.2046C126.557 57.1938 122.97 59.0674 119.92 61.6054C117.932 63.2591 114.036 66.4666 113.598 69.3544H143.85H143.845Z" fill="#FCFCFC"/>
        <path d="M47.3767 111.261C39.2659 101.505 15.9827 109.247 8.63762 114.636C0.214836 120.818 -5.00331 128.901 -8.40646 137.947C-9.08709 139.394 -9.71101 140.868 -10.3633 142.315C-12.8589 147.987 -15.1277 153.744 -16.8293 159.727C-18.5308 165.74 -19.495 171.809 -19.8921 178.048C-20.0906 181.196 -20.2324 184.372 -20.7996 187.463C-21.3668 190.526 -22.4445 193.22 -23.9192 195.971C-24.5431 197.162 -25.1953 198.381 -25.5073 199.714C-25.876 201.274 -25.7625 202.862 -25.8476 204.45C-25.9894 207.258 -26.8402 209.952 -28.0596 212.448C-46.9471 251.244 -45.9545 264.714 -54.6609 300.362C-54.9445 301.468 -55.1997 302.716 -54.5475 303.709C-54.0086 304.531 -52.9877 305.013 -52.0235 305.439C-48.1666 307.084 -44.0828 308.36 -39.8856 309.239C-38.9497 309.437 -37.9571 309.608 -37.0212 309.409C-35.7167 309.154 -34.7525 308.218 -33.8733 307.339C-19.7219 293.102 -9.76773 278.866 -3.10324 261.935C-1.85542 259.893 -0.664333 257.823 0.498409 255.724C2.45522 252.094 4.12843 248.351 5.74493 244.579C7.38978 240.694 9.34659 237.234 11.8422 233.859C14.2244 230.626 15.6424 227.393 16.3231 223.423C17.032 219.424 17.6276 215.539 18.9889 211.71C21.8248 203.855 26.4758 196.878 30.4177 189.562C33.3388 184.145 35.9479 178.36 37.1106 172.291C47.5753 148.469 56.0831 121.726 47.3767 111.261Z" fill="#464558"/>
        <path opacity="0.29" d="M15.1036 120.421C14.5648 123.058 13.9692 125.753 13.0901 128.362C11.502 133.098 8.97797 137.579 7.64507 142.371C6.48233 146.597 6.42562 150.879 9.46009 154.566C11.8139 157.43 15.2171 159.529 18.1381 161.939C21.3427 164.548 23.3563 167.441 24.6608 171.043C26.334 175.665 26.8729 180.515 27.3266 185.308C27.5251 187.378 27.752 189.448 27.9789 191.518C41.2511 165.172 58.5788 124.703 47.3484 111.233C41.1093 103.746 25.937 106.582 15.8977 110.722C16.238 113.983 15.7275 117.273 15.1036 120.421Z" fill="#2B2B37"/>
        <path opacity="0.29" d="M-33.8734 307.311C-19.722 293.074 -9.76778 278.838 -3.10329 261.907C-1.85546 259.865 -0.664379 257.795 0.49836 255.696C2.45517 252.066 4.12838 248.323 5.74488 244.551C7.38973 240.666 9.34653 237.206 11.8422 233.831C14.2244 230.598 15.6424 227.365 16.323 223.395C17.032 219.396 17.6275 215.511 18.9888 211.682C21.8248 203.827 26.4757 196.85 30.4177 189.533C33.3387 184.117 35.9478 178.331 37.1105 172.262C47.3767 148.894 55.7711 122.69 47.7737 111.857C47.7737 111.828 47.7454 111.828 47.7454 111.8C47.6319 111.63 47.4901 111.46 47.3483 111.289C47.2065 111.119 47.0647 110.977 46.9229 110.807C46.8662 110.751 46.8379 110.722 46.7812 110.665C46.6677 110.552 46.5826 110.467 46.4692 110.354C46.4125 110.297 46.3557 110.24 46.299 110.183C46.2139 110.098 46.1005 110.013 46.0154 109.928C45.9587 109.871 45.8736 109.815 45.8169 109.758C45.7035 109.673 45.6184 109.588 45.505 109.531C45.4482 109.474 45.3632 109.418 45.3064 109.389C45.193 109.304 45.0796 109.248 44.9661 109.162C44.9094 109.106 44.8243 109.077 44.7676 109.021C44.6258 108.936 44.5124 108.85 44.3706 108.794C44.3139 108.765 44.2855 108.737 44.2288 108.709C44.0303 108.595 43.8601 108.51 43.6616 108.397C43.6332 108.368 43.5765 108.368 43.5482 108.34C43.378 108.255 43.2362 108.198 43.0661 108.113C43.0093 108.085 42.9242 108.056 42.8675 108.028C42.7257 107.971 42.6123 107.915 42.4705 107.858C42.3854 107.83 42.3003 107.801 42.2436 107.773C42.1018 107.716 41.9884 107.688 41.8466 107.631C41.7615 107.603 41.6764 107.574 41.5913 107.546C41.4495 107.489 41.3077 107.461 41.1659 107.433C41.0809 107.404 40.9958 107.376 40.9391 107.376C40.7973 107.347 40.6271 107.291 40.4853 107.262C40.4286 107.234 40.3435 107.234 40.2868 107.206C40.0883 107.149 39.8898 107.121 39.6629 107.064C39.6346 107.064 39.6062 107.064 39.6062 107.064C39.3793 107.007 39.1241 106.979 38.8972 106.95C38.8405 106.95 38.8121 106.95 38.7554 106.922C38.5569 106.894 38.3867 106.865 38.1882 106.837C38.1031 106.837 38.0464 106.809 37.9613 106.809C37.7912 106.78 37.621 106.78 37.4509 106.752C37.3658 106.752 37.2807 106.724 37.1956 106.724C37.0255 106.695 36.8553 106.695 36.6852 106.695C36.6001 106.695 36.515 106.695 36.4299 106.667C36.2598 106.667 36.0896 106.638 35.8911 106.638C35.806 106.638 35.7493 106.638 35.6642 106.638C35.4657 106.638 35.2672 106.638 35.0403 106.638C34.9836 106.638 34.9552 106.638 34.8985 106.638C34.388 106.638 33.8492 106.638 33.3387 106.667C33.3104 106.667 33.282 106.667 33.2253 106.667C32.9984 106.667 32.7715 106.695 32.5446 106.695C32.4879 106.695 32.4312 106.695 32.3745 106.695C32.176 106.695 31.9775 106.724 31.7506 106.752C31.6939 106.752 31.6088 106.752 31.5521 106.78C31.3535 106.809 31.155 106.809 30.9282 106.837C30.8714 106.837 30.8147 106.837 30.758 106.865C30.5311 106.894 30.3043 106.922 30.0774 106.95C30.049 106.95 29.9923 106.95 29.9639 106.979C29.1415 107.092 28.3191 107.206 27.4967 107.347C27.4683 107.347 27.4683 107.347 27.4399 107.347C27.1847 107.404 26.9295 107.432 26.6742 107.489C26.6459 107.489 26.5891 107.518 26.5608 107.518C26.3339 107.574 26.107 107.603 25.8801 107.659C25.8234 107.659 25.7951 107.688 25.7383 107.688C25.5115 107.744 25.2562 107.801 25.0294 107.858C25.001 107.858 24.9727 107.886 24.916 107.886C24.6607 107.943 24.3771 108 24.1219 108.085C25.1995 109.957 26.0787 111.913 26.7877 113.87C32.7999 130.404 20.3784 148.611 9.37491 162.422C4.49707 168.519 -7.98114 174.872 -20.2041 180.714C-20.3459 183.011 -20.5444 185.279 -20.9414 187.548C-21.5086 190.611 -22.5863 193.305 -24.061 196.056C-24.6849 197.247 -25.3372 198.467 -25.6491 199.8C-26.0178 201.359 -25.9043 202.947 -25.9894 204.536C-26.1312 207.343 -26.982 210.037 -28.2015 212.533C-28.2866 212.675 -28.3433 212.817 -28.4 212.958C-22.0474 214.036 -16.0352 215.284 -14.6173 216.191C-8.23635 220.19 -4.91828 226.968 -5.71235 233.547C-7.81096 251.102 -29.7045 256.944 -45.6142 258.872C-48.6487 271.124 -50.5771 283.177 -54.8027 300.448C-54.8311 300.504 -54.8311 300.589 -54.8594 300.646C-54.8878 300.731 -54.8878 300.816 -54.9162 300.901C-55.143 301.894 -55.2565 302.915 -54.6893 303.794C-54.4908 304.106 -54.2355 304.361 -53.9236 304.588C-53.6116 304.815 -53.2713 305.013 -52.9026 305.184C-52.6474 305.297 -52.4205 305.41 -52.1653 305.524C-51.6832 305.722 -51.2011 305.921 -50.719 306.119C-49.7547 306.517 -48.7621 306.885 -47.7412 307.225C-46.7486 307.566 -45.7277 307.878 -44.7067 308.161C-43.7992 308.417 -42.8917 308.643 -41.9842 308.87C-41.729 308.927 -41.5021 308.984 -41.2469 309.041C-40.8498 309.126 -40.4244 309.239 -40.0274 309.296C-39.9423 309.324 -39.8289 309.324 -39.7438 309.352C-39.7155 309.352 -39.6587 309.381 -39.6304 309.381C-38.8079 309.523 -37.9855 309.636 -37.1914 309.466C-37.0213 309.438 -36.8795 309.381 -36.7093 309.324C-36.0854 309.126 -35.5749 308.757 -35.0645 308.36C-34.8092 308.161 -34.5824 307.934 -34.3555 307.736C-34.1002 307.537 -33.9868 307.424 -33.8734 307.311Z" fill="#2B2B37"/>
        <path opacity="0.29" d="M46.2707 144.753C42.6407 153.318 37.4793 161.486 31.2402 168.944C28.3759 172.347 25.2563 175.637 21.7681 178.615C16.238 183.351 9.88545 186.952 2.93736 190.044C0.668599 191.065 -1.77034 191.83 -4.06747 192.795C-6.25115 193.702 -9.5125 194.922 -9.99462 197.162C-10.9872 201.614 -3.38683 203.968 0.299911 205.5C0.526787 205.613 0.611859 205.84 0.470061 206.038C-0.579242 207.173 -1.62854 208.534 -1.54346 210.037C-1.48674 211.058 -0.891204 211.937 -0.210575 212.76C1.43428 214.716 3.3911 216.446 4.27025 218.772C6.65245 225.096 3.22095 232.186 0.271559 237.971C-3.38682 245.09 -6.78998 252.151 -8.88859 259.695C-9.93789 263.467 -10.7036 267.295 -11.2141 271.152C-11.6111 274.158 -11.7813 277.164 -12.1216 280.17C-8.605 274.385 -5.59888 268.344 -3.07488 261.907C-1.82706 259.865 -0.635941 257.795 0.526801 255.696C2.48361 252.066 4.15682 248.323 5.77332 244.551C7.41817 240.665 9.37498 237.206 11.8706 233.831C14.2528 230.598 15.6708 227.365 16.3514 223.395C17.0604 219.396 17.656 215.511 19.0172 211.682C21.8532 203.826 26.5041 196.85 30.4461 189.533C33.3671 184.117 35.9762 178.331 37.139 172.262C42.981 158.962 48.2275 144.725 50.1844 132.956C50.2127 132.871 50.2127 132.786 50.2411 132.672C49.3052 136.784 47.9439 140.84 46.2707 144.753Z" fill="#2B2B37"/>
        <path d="M205.311 301.327C202.674 290.493 200.008 279.66 197.37 268.827C194.988 259.071 192.89 251.612 190.961 245.685C190.366 243.133 189.572 240.637 188.579 238.17C179.476 215 184.098 222.941 180.667 211.172C180.043 208.988 179.164 206.861 177.973 204.932C176.81 203.032 175.363 201.302 174.087 199.459C172.811 197.616 171.79 195.687 171.28 193.475C170.741 191.093 170.769 188.626 170.798 186.187C170.968 173.255 168.869 170.844 163.055 153.205C160.049 138.458 154.661 124.902 142.013 115.628C134.639 110.24 111.356 102.526 103.274 112.254C92.3551 125.356 108.463 164.01 121.565 190.384C122.53 193.362 123.664 196.283 124.969 199.147C126.472 202.465 128.287 205.585 130.045 208.761C131.718 211.739 133.42 214.972 133.675 218.46C133.817 220.275 133.306 222.062 133.448 223.877C133.59 225.607 134.242 227.166 135.065 228.669C135.802 230.002 136.681 231.278 137.333 232.668C138.184 234.426 138.695 236.326 139.262 238.17C140.283 241.488 141.531 244.607 143.572 247.472C163.538 275.406 156.476 280.17 184.495 308.36C185.346 309.239 186.31 310.146 187.643 310.43C188.579 310.628 189.572 310.458 190.507 310.26C194.705 309.381 198.788 308.104 202.645 306.46C203.638 306.034 204.659 305.552 205.169 304.73C205.85 303.68 205.595 302.433 205.311 301.327Z" fill="#464558"/>
        <path opacity="0.25" d="M121.594 190.356C122.558 193.334 123.693 196.255 124.997 199.119C126.5 202.437 128.315 205.557 130.073 208.733C131.747 211.711 133.448 214.944 133.703 218.432C133.845 220.247 133.335 222.034 133.477 223.849C133.618 225.578 134.271 227.138 135.093 228.641C135.83 229.974 136.71 231.25 137.362 232.64C138.213 234.398 138.723 236.298 139.29 238.142C140.311 241.46 141.559 244.579 143.601 247.444C155.682 264.346 157.866 272.769 163.906 283.035C164.048 283.205 164.162 283.375 164.275 283.574C164.247 282.695 164.218 281.815 164.218 280.936C164.162 277.732 163.878 274.612 162.772 271.521C161.779 268.742 160.276 266.133 159.255 263.353C158.688 261.85 158.149 260.234 157.128 258.873C156.363 257.88 155.172 257.199 154.349 256.235C152.449 254.08 152.449 251.017 152.336 248.465C152.166 245.402 151.797 242.566 149.84 239.9C149.528 239.475 148.536 238.964 147.146 238.425C142.92 236.781 140.084 232.753 139.914 228.216C139.631 221.126 139.375 215.341 139.177 213.497C137.929 202.721 137.305 191.916 137.362 181.082C137.419 170.674 137.872 160.21 140.34 150C142.296 141.889 145.444 133.694 150.152 126.405C150.521 125.866 150.889 125.271 151.286 124.704C150.351 123.484 149.33 122.293 148.224 121.13C148.167 121.074 148.138 121.045 148.082 120.989C147.77 120.677 147.486 120.365 147.174 120.053C147.089 119.968 146.976 119.854 146.891 119.769C146.635 119.514 146.352 119.259 146.068 119.003C145.955 118.89 145.841 118.776 145.7 118.663C145.444 118.436 145.161 118.181 144.905 117.954C144.764 117.841 144.65 117.727 144.508 117.614C144.225 117.387 143.941 117.132 143.658 116.905C143.544 116.82 143.402 116.706 143.289 116.621C142.864 116.309 142.467 115.969 142.013 115.657C139.829 114.069 136.227 112.254 132.059 110.751C131.406 110.524 130.726 110.297 130.045 110.07C129.818 109.985 129.591 109.928 129.364 109.843C128.911 109.701 128.429 109.56 127.975 109.446C127.039 109.191 126.075 108.936 125.111 108.737C122.218 108.085 119.268 107.688 116.461 107.631C115.979 107.631 115.525 107.631 115.071 107.631C114.617 107.631 114.164 107.66 113.71 107.716C113.029 107.773 112.377 107.858 111.725 107.943C109.995 108.227 108.407 108.709 106.989 109.418C106.45 109.673 105.939 109.985 105.457 110.325C105.145 110.552 104.833 110.779 104.521 111.034C104.068 111.403 103.671 111.828 103.274 112.282C101.969 113.87 100.948 116.167 100.211 119.088C96.7793 135.792 110.278 167.64 121.594 190.356Z" fill="#2B2B37"/>
        <g opacity="0.29">
            <path opacity="0.29" d="M130.272 198.268C130.896 194.213 131.86 190.214 132.456 186.159C132.966 182.699 132.966 179.239 132.853 175.751C132.739 172.404 132.314 169.001 132.938 165.655C133.533 162.365 134.895 159.245 136.086 156.097C137.362 152.779 138.128 149.433 139.035 146.03C140.85 139.28 142.722 132.389 141.502 125.441C140.68 120.676 138.581 116.224 135.689 112.112C125.678 107.744 109.683 104.483 103.245 112.197C89.9731 128.163 116.744 182.046 129.393 205.415C129.62 203.061 129.903 200.65 130.272 198.268Z" fill="#2B2B37"/>
        </g>
        <path opacity="0.25" d="M205.311 301.327C202.674 290.493 200.008 279.66 197.371 268.827C194.988 259.071 192.89 251.612 190.961 245.685C190.366 243.133 189.572 240.637 188.579 238.17C179.476 215 184.098 222.941 180.667 211.172C180.043 208.988 179.164 206.861 177.973 204.933C176.81 203.032 175.364 201.303 174.087 199.459C172.811 197.616 171.79 195.687 171.28 193.475C170.741 191.093 170.769 188.626 170.798 186.187C170.968 173.255 168.869 170.844 163.055 153.205C160.049 138.458 154.661 124.902 142.013 115.628C141.899 115.543 141.786 115.458 141.672 115.373C141.644 115.345 141.587 115.316 141.559 115.288C141.474 115.231 141.389 115.175 141.304 115.118C141.247 115.09 141.219 115.061 141.162 115.033C141.077 114.976 141.02 114.919 140.935 114.891C140.878 114.863 140.822 114.834 140.765 114.778C140.68 114.721 140.623 114.692 140.538 114.636C140.481 114.607 140.425 114.551 140.368 114.522C140.283 114.466 140.198 114.437 140.141 114.381C140.084 114.352 140.028 114.295 139.942 114.267C139.857 114.21 139.772 114.182 139.687 114.125C139.631 114.097 139.545 114.04 139.489 114.012C139.404 113.955 139.319 113.927 139.233 113.87C139.177 113.842 139.092 113.785 139.035 113.757C138.95 113.7 138.836 113.643 138.751 113.586C138.695 113.558 138.638 113.53 138.581 113.501C138.411 113.416 138.269 113.331 138.099 113.246C138.042 113.218 137.986 113.189 137.929 113.161C137.816 113.104 137.702 113.048 137.617 112.991C137.532 112.963 137.447 112.906 137.362 112.877C137.277 112.821 137.192 112.792 137.078 112.736C136.993 112.707 136.908 112.651 136.795 112.622C136.709 112.594 136.624 112.537 136.539 112.509C136.454 112.452 136.341 112.424 136.256 112.367C136.171 112.339 136.086 112.282 136 112.254C135.887 112.197 135.802 112.168 135.689 112.112C135.603 112.083 135.518 112.027 135.433 111.998C135.32 111.942 135.235 111.913 135.121 111.857C135.036 111.828 134.951 111.8 134.894 111.743C134.781 111.686 134.668 111.658 134.554 111.601C134.497 111.573 134.412 111.545 134.327 111.516C134.214 111.459 134.072 111.403 133.959 111.374C133.902 111.346 133.874 111.346 133.817 111.318C133.306 111.119 132.796 110.921 132.257 110.722C132.229 110.722 132.2 110.694 132.2 110.694C132.03 110.637 131.888 110.58 131.718 110.524C131.661 110.495 131.633 110.495 131.576 110.467C131.406 110.41 131.264 110.353 131.094 110.297C131.038 110.268 130.981 110.268 130.952 110.24C130.782 110.183 130.641 110.127 130.47 110.07C130.414 110.042 130.357 110.042 130.329 110.013C130.158 109.956 130.017 109.9 129.846 109.871C129.79 109.843 129.761 109.843 129.705 109.815C129.535 109.758 129.364 109.701 129.194 109.644C129.166 109.644 129.137 109.616 129.109 109.616C127.663 109.191 126.188 108.794 124.713 108.482C124.515 108.425 124.288 108.397 124.089 108.34C124.089 108.34 124.089 108.34 124.061 108.34C117.567 107.035 110.846 106.979 106.28 109.644C106.308 109.644 106.336 109.644 106.365 109.644C113.086 110.382 120.062 112.566 125.309 116.196C129.109 118.805 132.342 122.236 135.178 125.583C138.298 129.269 140.935 133.24 143.09 137.38C147.628 146.143 149.528 155.474 150.35 164.946C151.286 175.552 150.577 186.187 148.479 196.652C147.883 199.544 147.458 202.862 150.435 204.961C153.895 207.371 158.603 207.428 162.432 209.158C167.054 211.228 167.054 215.312 167.451 219.169C167.933 223.763 171.62 226.769 175.392 229.804C178.937 232.668 181.659 235.674 183.134 239.673C184.665 243.842 184.977 248.294 185.034 252.633C185.148 261.34 180.865 269.394 174.399 276.087C171.563 279.036 168.642 281.9 165.268 284.424C165.211 284.481 165.154 284.509 165.097 284.566C170.457 292.734 176.895 300.447 184.58 308.161C184.807 308.388 185.006 308.587 185.261 308.814C185.828 309.352 186.48 309.834 187.246 310.09C187.388 310.146 187.558 310.175 187.728 310.232C188.551 310.402 189.401 310.288 190.224 310.118C190.337 310.09 190.451 310.061 190.564 310.033C191.103 309.92 191.614 309.806 192.124 309.693C193.173 309.437 194.194 309.182 195.215 308.899C195.726 308.757 196.236 308.587 196.747 308.445C198.76 307.821 200.745 307.084 202.674 306.261C203.042 306.091 203.411 305.949 203.78 305.751C204.148 305.552 204.46 305.354 204.744 305.098C204.943 304.928 205.084 304.758 205.226 304.56C205.425 304.248 205.538 303.907 205.595 303.567C205.68 302.915 205.51 302.092 205.311 301.327Z" fill="#2B2B37"/>
        <path d="M132.455 131.453C132.087 130.488 131.604 129.439 130.895 128.248C126.925 121.498 127.549 109.701 127.549 109.701C127.549 109.701 126.301 108.878 119.126 106.865C112.689 105.078 86.5411 96.6839 82.9395 96.457L63.6833 95.2092C60.0817 95.4644 33.8208 105.078 27.3548 106.865C21.6545 108.453 19.6977 109.304 19.1305 109.587C20.0097 115.259 19.4141 121.101 18.2514 126.858C17.1454 132.417 15.4438 137.862 14.3377 143.449C12.8914 150.851 13.7138 154.934 14.5079 158.309C15.3587 161.939 17.4006 169.568 17.4856 169.937C20.5485 181.933 23.6397 208.874 21.0589 218.545C20.0664 222.317 19.2723 225.975 19.8395 229.917C20.1798 232.214 20.9171 234.369 22.1933 236.184C22.1933 237.12 22.2217 238.056 22.2217 239.02C22.2784 243.274 22.4769 247.557 22.5904 251.867C25.4263 252.236 29.9355 252.236 30.446 252.86C32.0058 254.732 40.3151 262.616 70.4329 263.098C71.3688 263.069 72.2763 263.069 73.1838 263.041C74.0913 263.069 74.9988 263.098 75.9347 263.098C106.052 262.616 114.39 254.732 115.922 252.86C116.659 251.952 125.734 252.349 126.046 251.102C126.415 249.655 126.755 248.237 127.067 246.819C126.783 243.728 126.585 240.637 126.5 237.574C129.477 234.965 130.272 230.938 130.101 226.769C129.874 221.466 129.392 216.248 128.655 211.03C126.698 197.644 127.294 199.856 127.748 184.485C127.974 176.431 128.116 168.263 130.498 160.635C131.604 157.061 133.022 153.63 134.525 150.227C134.554 150 134.611 149.745 134.639 149.489C135.66 142.626 134.752 136.642 132.455 131.453Z" fill="#575770"/>
        <path opacity="0.11" d="M132.455 131.453C132.087 130.488 131.605 129.439 130.896 128.248C126.925 121.498 127.549 109.701 127.549 109.701C127.549 109.701 126.301 108.878 119.126 106.865C119.041 106.836 118.928 106.808 118.814 106.78C118.786 106.78 118.729 106.751 118.701 106.751C118.616 106.723 118.559 106.723 118.474 106.695C118.417 106.695 118.389 106.666 118.332 106.638C118.276 106.61 118.191 106.61 118.134 106.581C118.077 106.553 118.02 106.553 117.964 106.525C117.907 106.496 117.822 106.496 117.765 106.468C117.708 106.439 117.652 106.439 117.595 106.411C117.51 106.383 117.453 106.354 117.368 106.354C117.311 106.326 117.255 106.326 117.17 106.298C117.085 106.269 116.999 106.241 116.914 106.213C116.858 106.184 116.801 106.184 116.744 106.156C116.659 106.127 116.546 106.099 116.432 106.071C116.376 106.042 116.319 106.042 116.29 106.014C116.177 105.986 116.064 105.957 115.922 105.901C115.893 105.901 115.837 105.872 115.808 105.872C115.667 105.844 115.525 105.787 115.383 105.759C115.355 105.759 115.326 105.73 115.298 105.73C114.958 105.617 114.589 105.532 114.22 105.418C114.22 105.418 114.22 105.418 114.192 105.418C114.022 105.362 113.852 105.305 113.681 105.277C113.625 105.248 113.54 105.248 113.483 105.22C113.341 105.192 113.228 105.135 113.086 105.107C113.029 105.078 112.972 105.078 112.916 105.05C112.802 105.021 112.66 104.965 112.547 104.936C112.462 104.908 112.405 104.88 112.32 104.88C111.98 104.766 111.611 104.653 111.242 104.539C111.214 104.539 111.186 104.511 111.129 104.511C109.116 103.887 106.932 103.235 104.663 102.526C104.635 102.526 104.635 102.526 104.606 102.526C104.408 102.469 104.209 102.412 104.011 102.356C103.954 102.356 103.926 102.327 103.869 102.327C103.67 102.271 103.5 102.214 103.302 102.157C103.273 102.157 103.273 102.157 103.245 102.129C103.047 102.072 102.848 102.015 102.621 101.93C102.593 101.93 102.536 101.902 102.508 101.902C102.309 101.845 102.139 101.788 101.941 101.732C101.969 101.902 101.997 102.1 101.997 102.271C102.791 108.708 102.621 115.288 101.77 121.754C100.097 134.317 95.0775 147.079 84.6129 154.849C74.8005 162.138 61.8969 163.697 50.0709 162.733C41.3362 161.996 32.6582 160.067 24.519 156.891C20.6337 155.388 16.7485 153.573 13.402 151.049C13.402 151.219 13.402 151.389 13.402 151.588C13.402 151.616 13.402 151.673 13.402 151.701C13.402 151.843 13.402 151.957 13.402 152.098C13.402 152.155 13.402 152.183 13.402 152.24C13.402 152.354 13.4021 152.495 13.4304 152.609C13.4304 152.665 13.4304 152.694 13.4304 152.751C13.4304 152.892 13.4588 153.006 13.4588 153.119C13.4588 153.148 13.4588 153.176 13.4588 153.233C13.4871 153.545 13.5155 153.857 13.5438 154.169C13.5438 154.197 13.5438 154.225 13.5438 154.254C13.5722 154.367 13.5722 154.509 13.6006 154.622C13.6006 154.651 13.6006 154.707 13.6289 154.736C13.6573 154.849 13.6573 154.934 13.6856 155.048C13.6856 155.076 13.6857 155.133 13.714 155.161C13.7424 155.275 13.7424 155.36 13.7707 155.473C13.7707 155.501 13.7707 155.558 13.7991 155.587C13.8274 155.7 13.8275 155.813 13.8558 155.927C13.8558 155.955 13.8558 155.955 13.8558 155.984C13.8842 156.125 13.9125 156.267 13.9409 156.381C13.9409 156.409 13.9409 156.409 13.9409 156.437C13.9692 156.551 13.9976 156.664 13.9976 156.778C13.9976 156.806 14.026 156.863 14.026 156.891C14.0543 156.976 14.0543 157.061 14.0827 157.146C14.0827 157.203 14.111 157.231 14.111 157.288C14.1394 157.373 14.1394 157.458 14.1678 157.543C14.1678 157.572 14.1961 157.628 14.1961 157.657C14.2245 157.742 14.2245 157.827 14.2528 157.912C14.2528 157.94 14.2812 157.997 14.2812 158.025C14.3096 158.139 14.3379 158.252 14.3663 158.366C15.2171 161.996 17.2589 169.624 17.344 169.993C20.4069 181.989 23.498 208.931 20.9173 218.601C19.9247 222.373 19.1307 226.032 19.6979 229.974C20.0382 232.271 20.7755 234.426 22.0517 236.241C22.0517 237.177 22.0801 238.113 22.0801 239.077C22.1368 243.331 22.3353 247.613 22.4487 251.924C25.2847 252.293 29.7939 252.293 30.3044 252.916C31.8641 254.788 40.1735 262.672 70.2913 263.154C71.2272 263.126 72.1347 263.126 73.0422 263.098C73.9497 263.126 74.8572 263.154 75.793 263.154C105.911 262.672 114.249 254.788 115.78 252.916C116.517 252.009 125.592 252.406 125.904 251.158C126.273 249.712 126.613 248.294 126.925 246.876C126.642 243.785 126.443 240.694 126.358 237.631C129.336 235.022 130.13 230.995 129.96 226.826C129.733 221.522 129.251 216.304 128.513 211.086C126.557 197.7 127.152 199.912 127.606 184.542C127.833 176.488 127.975 168.32 130.357 160.691C131.463 157.118 132.881 153.686 134.384 150.283C134.412 150.056 134.469 149.801 134.497 149.546C135.66 142.626 134.753 136.642 132.455 131.453Z" fill="#2B2B37"/>
        <path opacity="0.25" d="M71.9077 263.069C72.3331 263.069 72.7585 263.041 73.1839 263.041H73.2122C73.3824 263.041 73.5526 263.041 73.6944 263.041C74.6019 263.069 75.5094 263.098 76.4452 263.098C106.138 262.559 114.39 254.732 115.922 252.86C115.95 252.831 115.978 252.803 116.007 252.775C116.007 252.775 116.035 252.775 116.035 252.746C116.063 252.718 116.092 252.718 116.12 252.69C116.12 252.69 116.149 252.69 116.149 252.661C116.205 252.633 116.234 252.633 116.29 252.605C116.347 252.576 116.432 252.576 116.489 252.548C116.517 252.548 116.546 252.548 116.546 252.52C116.602 252.52 116.659 252.491 116.716 252.491C116.744 252.491 116.773 252.491 116.801 252.463C116.886 252.463 116.943 252.434 117.028 252.434H117.056C117.141 252.406 117.255 252.406 117.34 252.406C117.368 252.406 117.396 252.406 117.425 252.406C117.51 252.406 117.567 252.378 117.652 252.378C117.68 252.378 117.737 252.378 117.765 252.378C117.85 252.378 117.935 252.349 118.049 252.349C118.077 252.349 118.077 252.349 118.105 252.349C118.219 252.349 118.332 252.321 118.446 252.321C118.474 252.321 118.531 252.321 118.559 252.321C118.644 252.321 118.729 252.321 118.814 252.293C118.871 252.293 118.899 252.293 118.956 252.293C119.041 252.293 119.126 252.293 119.211 252.264C119.24 252.264 119.296 252.264 119.325 252.264C121.877 250.619 124.373 248.89 126.84 247.16C126.868 247.131 126.925 247.103 126.954 247.075C126.954 247.046 126.982 247.018 126.982 246.961C126.982 246.933 127.01 246.904 127.01 246.876C126.727 243.785 126.528 240.694 126.443 237.631C129.421 235.022 130.215 230.995 130.045 226.826C129.818 221.523 129.336 216.304 128.598 211.086C126.642 197.701 127.237 199.913 127.691 184.542C127.776 181.507 127.861 178.473 128.031 175.438C128.343 170.419 128.939 165.456 130.413 160.691C131.434 157.345 132.767 154.14 134.129 150.964C134.214 150.737 134.327 150.51 134.412 150.283C134.44 150.057 134.497 149.801 134.526 149.546C134.781 147.816 134.923 146.171 134.951 144.555C135.036 139.734 134.072 135.395 132.37 131.509C132.285 131.283 132.172 131.027 132.087 130.772C131.86 130.262 131.605 129.723 131.321 129.184C131.179 128.9 131.009 128.617 130.839 128.333C126.869 121.584 127.492 109.786 127.492 109.786C127.492 109.786 127.492 109.786 127.464 109.786C127.464 109.786 127.436 109.786 127.436 109.758C127.436 109.758 127.407 109.758 127.407 109.729C127.067 109.559 125.904 109.02 122.728 108.028C122.728 108.028 122.728 108.028 122.7 108.028C122.558 107.999 122.444 107.943 122.303 107.914C122.274 107.914 122.274 107.914 122.246 107.886C122.104 107.858 121.991 107.801 121.849 107.772C121.82 107.772 121.821 107.772 121.792 107.744C121.65 107.716 121.509 107.659 121.367 107.631C121.821 107.772 121.338 115.798 121.395 116.791C121.594 120.421 121.48 124.051 120.998 127.652C120.062 134.771 117.85 141.719 114.39 148.043C110.42 155.303 104.918 161.627 99.2747 167.696C93.8863 173.482 87.9592 179.947 87.7607 188.058C87.7323 189.306 87.8458 190.582 87.5338 191.802C87.3069 192.766 86.8248 193.617 86.3711 194.468C84.4143 198.126 82.4291 201.784 80.4439 205.471C78.2319 209.555 73.8362 211.625 70.036 214.036C65.8104 216.758 61.358 219.112 56.7353 221.069C46.8095 225.294 36.2314 227.677 25.5399 228.3C25.1145 228.329 22.6472 228.442 19.6411 228.584C19.6694 229.066 19.7261 229.52 19.7828 230.002C20.1232 232.299 20.8605 234.455 22.1367 236.27C22.1367 237.205 22.1651 238.141 22.1651 239.105C22.1934 240.183 22.1934 241.232 22.2218 242.31C22.3069 245.515 22.4487 248.719 22.5337 251.952C25.3697 252.321 29.8789 252.321 30.3893 252.945C30.5311 253.115 30.7297 253.342 31.0133 253.626C31.2969 253.909 31.6372 254.221 32.0625 254.561C32.2894 254.732 32.5163 254.902 32.7715 255.1C33.282 255.469 33.9059 255.866 34.6149 256.263C35.806 256.944 37.2807 257.681 39.0957 258.39C39.4644 258.532 39.8331 258.674 40.2301 258.815C43.9452 260.148 48.9365 261.424 55.6293 262.247C56.3383 262.332 57.0473 262.417 57.7846 262.502C58.8907 262.616 60.0534 262.729 61.2445 262.814C64.0238 263.013 67.0582 263.154 70.3763 263.211C70.9435 263.069 71.4256 263.069 71.9077 263.069Z" fill="#2B2B37"/>
        <path opacity="0.25" d="M71.9077 263.069C72.3331 263.069 72.7585 263.041 73.1839 263.041H73.2122C73.3824 263.041 73.5526 263.041 73.6944 263.041C74.6019 263.069 75.5094 263.098 76.4452 263.098C106.138 262.559 114.39 254.732 115.922 252.86C115.95 252.832 115.978 252.803 116.007 252.775C116.007 252.775 116.035 252.775 116.035 252.747C116.064 252.718 116.092 252.718 116.12 252.69C116.12 252.69 116.149 252.69 116.149 252.662C116.205 252.633 116.234 252.633 116.29 252.605C116.347 252.576 116.432 252.576 116.489 252.548C116.517 252.548 116.546 252.548 116.546 252.52C116.602 252.52 116.659 252.491 116.716 252.491C116.744 252.491 116.773 252.491 116.801 252.463C116.886 252.463 116.943 252.435 117.028 252.435H117.056C117.141 252.406 117.255 252.406 117.34 252.406C117.368 252.406 117.396 252.406 117.425 252.406C117.51 252.406 117.567 252.378 117.652 252.378C117.68 252.378 117.737 252.378 117.765 252.378C117.85 252.378 117.935 252.35 118.049 252.35C118.077 252.35 118.077 252.35 118.105 252.35C118.219 252.35 118.332 252.321 118.446 252.321C118.474 252.321 118.531 252.321 118.559 252.321C118.644 252.321 118.729 252.321 118.814 252.293C118.871 252.293 118.899 252.293 118.956 252.293C119.041 252.293 119.126 252.293 119.211 252.264C119.24 252.264 119.296 252.264 119.325 252.264C121.877 250.62 124.373 248.89 126.84 247.16C126.868 247.131 126.925 247.103 126.954 247.075C126.954 247.046 126.982 247.018 126.982 246.961C126.982 246.933 127.01 246.905 127.01 246.876C126.727 243.785 126.528 240.694 126.443 237.631C129.421 235.022 130.215 230.995 130.045 226.826C129.818 221.523 129.336 216.305 128.598 211.086C126.642 197.701 127.237 199.913 127.691 184.542C127.776 181.507 127.861 178.473 128.031 175.438C128.343 170.419 128.939 165.456 130.413 160.692C131.434 157.345 132.767 154.14 134.129 150.964C134.214 150.737 134.327 150.51 134.412 150.284C134.441 150.057 134.497 149.801 134.526 149.546C134.781 147.816 134.923 146.171 134.951 144.555C135.036 139.734 134.072 135.395 132.37 131.51C132.285 131.283 132.172 131.027 132.087 130.772C131.86 130.262 131.605 129.723 131.321 129.184C131.179 128.9 131.009 128.617 130.839 128.333C126.869 121.584 127.492 109.786 127.492 109.786C127.492 109.786 127.464 109.758 127.407 109.758C127.152 109.616 126.188 109.162 123.55 108.311C124.033 108.453 124.316 114.239 124.373 114.948C124.6 117.131 124.77 119.315 124.997 121.527C125.536 126.462 125.933 131.453 125.422 136.416C123.919 151.219 114.787 163.925 105.826 175.892C101.997 180.997 98.0268 186.499 97.4313 192.993C97.1477 195.999 97.6298 199.062 97.3746 202.068C96.4954 211.937 87.9309 216.985 80.2454 221.069C72.2764 225.323 63.6834 228.216 54.892 230.002C46.7528 231.675 32.176 233.32 20.8038 233.859C21.1725 234.71 21.5979 235.532 22.1084 236.298C22.1084 237.234 22.1367 238.17 22.1367 239.134C22.1651 240.212 22.1651 241.261 22.1934 242.339C22.2785 245.543 22.4203 248.748 22.5054 251.981C25.3414 252.35 29.8505 252.35 30.361 252.973C30.5028 253.144 30.7013 253.371 30.9849 253.654C31.2685 253.938 31.6088 254.25 32.0342 254.59C32.2611 254.76 32.488 254.93 32.7432 255.129C33.2537 255.497 33.8776 255.895 34.5866 256.292C35.7777 256.972 37.2523 257.71 39.0674 258.419C39.436 258.56 39.8047 258.702 40.2017 258.844C43.9168 260.177 48.9081 261.453 55.601 262.275C56.31 262.361 57.0189 262.446 57.7563 262.531C58.8623 262.644 60.0251 262.758 61.2162 262.843C63.9954 263.041 67.0299 263.183 70.3479 263.24C70.9435 263.069 71.4256 263.069 71.9077 263.069Z" fill="#2B2B37"/>
        <path d="M77.6081 129.751C76.7289 128.673 75.5095 127.823 74.4602 126.915C73.2124 125.837 71.9362 124.788 70.66 123.739C68.1644 121.64 65.6687 119.513 63.3433 117.216C59.8267 113.785 56.5653 109.928 54.4384 105.504C52.8502 105.901 51.177 106.44 49.4471 107.063C52.1129 112.395 55.1473 117.613 58.4087 122.604C59.9685 124.987 61.5849 127.369 63.4 129.609C65.1583 131.793 67.0867 133.948 69.4406 135.48C70.4048 136.104 71.4824 136.557 72.5885 136.784C72.6452 136.472 72.7302 136.189 72.787 135.877C72.8437 135.65 73.1557 135.763 73.1273 135.962C73.0706 136.245 72.9855 136.529 72.9288 136.813C74.2049 136.983 75.5095 136.813 76.7573 136.132C79.3097 134.799 79.2529 131.793 77.6081 129.751Z" fill="#575770"/>
        <path opacity="0.25" d="M101.515 101.675C100.466 103.745 97.403 111.686 96.0984 113.643C94.5103 116.082 92.6953 118.294 91.0221 120.676C89.5474 122.746 88.1294 124.845 86.5413 126.858C84.9248 128.929 83.1665 130.971 81.0679 132.559C80.444 133.012 79.7917 133.438 79.0827 133.778C78.6573 135.622 76.899 136.784 75.0273 137.125C74.29 137.266 73.581 137.266 72.9003 137.181C70.6599 146.54 65.8105 155.105 60.5356 163.159C55.5727 170.731 50.1276 178.019 45.0513 185.619C39.9466 193.305 35.6075 201.501 32.8283 210.491C31.2685 215.482 30.1625 220.615 29.0565 225.748C27.8654 231.25 26.731 236.808 25.625 242.367C25.0011 245.571 24.3772 248.748 24.0085 252.009C26.731 252.236 30.0491 252.321 30.5028 252.86C30.8999 253.37 31.8074 254.278 33.4522 255.384C33.5657 252.009 33.9627 248.663 34.6717 245.373C39.7764 221.352 58.0967 193.957 73.4108 168.065C93.2058 134.515 109.654 104.851 101.515 101.675Z" fill="#2B2B37"/>
        <path opacity="0.25" d="M128.117 118.748C127.351 113.7 127.578 109.701 127.578 109.701C127.578 109.701 126.33 108.879 119.155 106.865C114.164 105.476 97.3748 100.144 88.3848 97.7051C84.1025 104.029 77.4664 100.995 73.099 101.959C65.4703 100.257 60.394 104.483 60.394 104.483C56.7072 104.738 52.6234 97.932 47.7172 99.8888C51.2622 107.12 57.87 114.352 69.5825 112.395C82.5995 110.212 120.686 114.012 128.117 118.748Z" fill="#2B2B37"/>
        <path opacity="0.25" d="M75.5946 109.758C77.835 109.333 80.0187 108.68 82.2591 109.474C83.3935 109.9 84.4711 110.439 85.6339 110.75C87.0802 111.091 88.5549 111.261 90.0296 111.318C96.6657 111.573 105.202 109.815 108.01 103.547C101.373 101.505 93.5462 99.1231 88.328 97.7051C84.0458 104.029 77.4096 100.995 73.0422 101.959C65.4135 100.257 60.3372 104.483 60.3372 104.483C56.6504 104.738 52.5667 97.932 47.6605 99.8888C53.2757 103.831 60.5641 107.149 68.448 109.9C70.8869 110.212 73.2691 110.212 75.5946 109.758Z" fill="#2B2B37"/>
        <path opacity="0.25" d="M70.1494 139.904C61.8117 144.016 55.0621 156.948 48.9648 165.995C33.7641 188.626 24.8876 215.879 22.165 232.498C22.165 234.653 22.1934 236.837 22.2218 239.021C22.2501 241.403 22.3352 243.785 22.4203 246.167C23.2427 247.812 24.5189 249.031 26.2488 249.031C28.7161 249.06 30.5028 246.593 31.7222 244.324C39.9181 229.01 41.7899 211.171 47.9439 195.29C51.1485 187.038 55.4875 179.38 60.1101 172.007C63.258 166.987 67.3702 162.421 68.9299 156.636C69.5255 154.396 75.3392 137.352 70.1494 139.904Z" fill="#2B2B37"/>
        <path opacity="0.25" d="M50.3828 104.681C50.3828 104.681 55.686 116.592 61.0176 123.172C66.3776 129.779 72.8436 135.877 72.8436 135.877L81.0679 132.559C81.0679 132.559 71.454 129.212 64.7895 122.945C58.125 116.706 50.3828 104.681 50.3828 104.681Z" fill="#2B2B37"/>
        <path d="M71.284 146.625C72.2766 145.576 73.3259 144.583 74.3468 143.562C76.7858 141.152 79.1679 138.628 81.4651 136.047C60.4223 122.803 58.4655 117.216 45.8171 96.7407C45.647 96.4855 46.8097 124.76 71.284 146.625Z" fill="#2B2B37"/>
        <path d="M72.9004 130.347C72.4466 131.623 71.8794 132.871 71.2555 134.005C69.8092 136.614 67.9658 139.11 65.7538 141.152C67.4554 143.024 69.2987 144.839 71.3122 146.625C72.3048 145.576 73.3541 144.583 74.3751 143.563C76.814 141.152 79.1962 138.628 81.4933 136.047C78.1753 134.005 75.3677 132.105 72.9004 130.347Z" fill="#21212B"/>
        <path d="M99.8701 99.5481C96.9207 111.119 28.5743 173.255 22.2217 236.213C22.2217 237.149 22.2501 238.085 22.2501 239.02C22.3068 243.501 22.5337 248.01 22.6471 252.548H30.6162C30.6162 247.443 31.5237 242.338 33.3103 237.602C40.6271 218.233 67.7671 166.392 75.7929 155.076C102.224 117.585 104.039 99.5481 99.8701 99.5481Z" fill="#2B2B37"/>
        <path d="M66.1791 146.824C59.231 154.651 53.4173 163.641 49.0499 173.397C48.7096 174.134 48.3976 174.9 48.426 175.694C48.4543 176.488 48.9932 177.339 49.7589 177.424C50.2694 177.48 50.7798 177.225 51.2052 176.913C54.6084 174.673 56.7354 170.873 58.4369 167.101C59.5713 164.633 60.5923 162.109 61.9819 159.784C63.3431 157.459 65.2999 155.785 66.8597 153.658C67.8806 152.24 68.1926 151.021 68.4195 149.291C68.6464 147.533 68.5329 144.158 66.1791 146.824Z" fill="#2B2B37"/>
        <path opacity="0.25" d="M56.7638 124.42C58.7206 127.227 59.7699 123.852 58.9759 121.896C58.2952 120.251 57.1325 118.436 55.7429 117.273C54.7503 116.451 53.8144 115.997 53.4174 117.5C52.7935 119.825 55.6011 122.718 56.7638 124.42Z" fill="#464557"/>
        <path opacity="0.25" d="M89.0369 120.024C90.5399 118.181 88.0726 118.095 86.9382 119.003C85.974 119.769 84.9814 120.903 84.4993 122.066C84.1307 122.888 84.0172 123.626 85.0949 123.597C86.7397 123.597 88.1577 121.13 89.0369 120.024Z" fill="#464557"/>
        <path opacity="0.25" d="M77.3243 129.241C74.3466 132.927 71.1987 136.898 67.9657 141.095C68.1926 141.634 68.7598 141.917 69.8942 141.776C73.5809 141.322 76.1616 135.451 77.8915 132.701C79.4229 130.375 78.6856 129.354 77.3243 129.241Z" fill="#464557"/>
        <path opacity="0.14" d="M22.6189 116.053C22.4771 118.152 24.122 120.421 26.2206 120.194C29.482 119.854 38.3018 112.197 35.7778 109.389C32.6015 105.872 22.8458 112.82 22.6189 116.053Z" fill="#D8D8D8"/>
        <path opacity="0.14" d="M98.2255 128.673C97.6016 128.305 93.8014 130.772 95.7866 132.36C96.9493 133.268 98.8778 132.36 98.9345 130.29C98.9345 129.666 98.736 128.985 98.2255 128.673Z" fill="#D8D8D8"/>
        <path d="M105.844 121.335C105.526 127.076 108.001 132.614 111.089 137.522C114.864 143.502 131.286 161.956 119.255 171.247C117.599 172.53 115.518 173.303 114.09 174.813C111.796 177.243 111.784 180.944 112.8 184.029C113.81 187.06 125.202 203.001 110.879 215.505L102.63 208.666C113.368 205.887 113.673 198.102 111.926 191.567C110.127 184.896 105.275 179.217 109.181 175.241C111.023 173.371 116.189 172.882 117.426 170.572C126.389 153.916 96.8192 161.654 95.5812 139.47C95.2818 133.932 96.7513 128.452 98.2699 123.091C103.302 105.362 97.6567 103.834 91.911 98.2256C87.9294 94.3472 85.421 89.0435 85.3178 83.5929C85.2146 78.1423 87.5607 72.6116 91.8331 68.9374C88.0784 95.2931 107.463 92.5202 105.844 121.335Z" fill="#74A352"/>
        <path d="M99.0579 95.746C98.5671 95.3317 98.078 94.935 97.5704 94.5401C93.5395 91.3068 89.6555 88.0413 87.294 83.4703C86.6019 82.1508 86.1124 80.7936 85.7326 79.4078C86.5635 75.4487 88.6719 71.7022 91.8366 68.9728C89.7985 83.1891 94.5444 88.9314 99.0579 95.746Z" fill="#568040"/>
        <path d="M91.7432 81.7888C90.3123 79.4389 88.8248 76.7032 87.832 73.8479C88.872 72.0205 90.2078 70.342 91.8332 68.9375C91.0364 74.5831 91.2891 78.8806 92.1653 82.4589C92.0314 82.2408 91.8788 82.0245 91.7432 81.7888Z" fill="#3E5C2E"/>
        <path opacity="0.49" d="M111.528 138.173C114.316 142.311 121.285 150.824 123.135 158.789C118.584 149.488 89.5026 147.484 105.94 117.145C105.956 118.46 105.942 119.849 105.844 121.335C105.526 127.076 108.001 132.614 111.09 137.522C111.2 137.69 111.312 137.874 111.442 138.057C111.464 138.09 111.506 138.14 111.528 138.173Z" fill="#AED888"/>
        <path d="M103.808 115.682C102.402 119.893 99.5277 123.484 97.1459 127.31C97.5144 125.905 97.9015 124.497 98.2886 123.089C101.479 111.82 100.358 107.091 97.6447 103.711C98.7572 104.153 99.8075 104.726 100.758 105.433C102.703 106.897 104.148 109.014 104.397 111.356C104.559 112.816 104.271 114.285 103.808 115.682Z" fill="#3E5C2E"/>
        <path opacity="0.49" d="M110.817 141.818C107.736 139.097 106.153 135.961 106.957 131.916C107.072 131.371 107.23 130.875 107.425 130.376C108.381 132.861 109.667 135.261 111.089 137.523C112.376 139.549 115.118 143.033 117.712 147.101C115.434 145.296 112.973 143.724 110.817 141.818Z" fill="#AED888"/>
        <path d="M141.003 216.59C135.836 218.014 127.75 212.157 130.675 200.929C136.739 177.606 136.623 169.026 132.48 154.755C129.965 146.087 131.638 160.154 131.638 160.154C131.638 160.154 132.284 175.155 131.596 180.073C130.926 184.992 128.453 198.505 128.066 203.002C127.678 207.5 128.515 212.997 131.202 215.078C133.872 217.14 141.003 216.59 141.003 216.59Z" fill="#74A352"/>
        <path d="M95.7248 113.284C90.5539 145.042 117.637 138.536 125.235 143.536C127.047 144.737 128.503 146.417 129.68 148.286C130.983 150.35 131.952 152.623 132.55 155.006C133.43 158.476 133.497 162.109 133.415 165.702C133.231 174.722 132.271 183.752 130.17 192.498C126.453 208.064 127.773 208.814 138.68 220.908C129.072 217.216 127.569 210.358 127.683 202.611C127.794 195.039 141.362 139.368 112.583 144.212C111.454 144.488 110.381 144.687 109.974 144.779C94.5778 148.028 81.7471 137.766 92.0679 110.476C94.5293 103.938 100.69 89.2135 91.9982 80.1224C102.241 84.7115 97.2428 103.913 95.7248 113.284Z" fill="#3E5C2E"/>
        <path d="M112.583 144.231C111.454 144.507 110.381 144.706 109.974 144.798C108.327 145.145 106.719 145.338 105.15 145.357C105.912 144.864 106.675 144.352 107.475 143.879C109.409 142.724 111.767 141.555 114.232 140.716C118.744 141.525 122.91 141.982 125.235 143.517C127.047 144.718 128.503 146.398 129.68 148.267C130.984 150.331 131.952 152.603 132.551 154.987C133.431 158.457 133.497 162.09 133.416 165.682C133.231 174.703 132.271 183.733 130.17 192.479C126.453 208.045 127.773 208.795 138.68 220.889C129.072 217.196 127.569 210.338 127.683 202.592C127.813 195.059 141.362 139.388 112.583 144.231Z" fill="#568040"/>
        <path d="M95.7243 113.284C92.3301 134.148 102.834 138.489 112.611 140.445C104.735 142.975 96.7502 142.433 90.1545 136.961C87.4747 131.248 87.508 122.535 92.0672 110.496C94.5286 103.957 100.69 89.233 91.9975 80.1419C102.24 84.7117 97.2423 103.913 95.7243 113.284Z" fill="#568040"/>
        <path d="M96.2694 105.002C95.9321 106.911 95.5024 108.838 94.9813 110.686C93.9212 114.344 92.1463 117.587 89.9681 120.613C89.6115 121.092 89.2349 121.706 88.8028 122.319C89.3443 118.809 90.408 114.861 92.049 110.496C93.1935 107.476 95.0976 102.727 95.9913 97.599C96.5325 100.117 96.7436 102.458 96.2694 105.002Z" fill="#3E5C2E"/>
        <path d="M103.067 137.584C99.793 136.674 96.3582 135.318 94.216 132.413C91.6562 128.942 91.55 124.072 93.3142 120.191C93.8076 119.096 94.484 118.119 95.2339 117.181C94.1577 129.649 98.7958 135.213 104.852 138.05C104.226 137.907 103.619 137.745 103.067 137.584Z" fill="#74A352"/>
        <path d="M130.792 153.865C132.328 159.525 131.678 168.888 130.868 174.713C131.618 158.724 127.905 142.507 112.657 144.213C118.49 139.628 128.391 145.025 130.792 153.865Z" fill="#3E5C2E"/>
        <path d="M47.1676 72.0087C47.1676 72.0087 44.1318 74.7854 43.5114 77.4236C42.9151 80.0617 46.2882 84.1756 46.2882 84.1756L50.8841 81.4833L47.1676 72.0087Z" fill="#75A152"/>
        <path d="M100.596 72.8882C100.596 72.8882 103.631 77.3695 102.523 83.1277C101.415 88.8859 96.5418 90.2773 96.5418 90.2773L94.8974 87.8379L100.596 72.8942V72.8882Z" fill="#568040"/>
        <path d="M89.368 88.4882C89.4222 93.6501 82.4169 97.9025 73.7432 98.017C65.0634 98.1314 57.9738 94.0477 57.9437 88.8857C57.9136 83.7238 64.8947 79.4714 73.5685 79.357C82.2182 79.2425 89.3077 83.3263 89.368 88.4882Z" fill="#21212B"/>
        <path d="M47.1074 50.6863C46.9629 52.1921 46.8785 53.722 46.8243 55.2218C46.74 57.5768 46.7099 59.932 46.9087 62.281C47.7037 71.2436 52.0406 79.381 57.4316 86.0728C56.1847 80.9952 55.3595 75.8092 54.962 70.563C54.7331 67.4429 54.6488 64.2687 55.0764 61.1788C55.7029 56.6131 57.4316 52.3005 58.1966 47.765C58.5941 45.4099 58.7387 43.0307 58.8772 40.6455C59.0218 38.2061 59.1603 35.7667 59.329 33.3273C59.4976 30.406 58.052 27.8823 55.7571 30.4602C54.1428 32.2491 52.7514 34.3151 51.5587 36.4714C49.1735 40.784 47.6194 45.6629 47.1074 50.6802V50.6863Z" fill="#2B2B37"/>
        <path d="M97.903 50.0598C98.1018 51.5656 98.1861 53.0654 98.2704 54.5953C98.3849 56.9504 98.4692 59.3055 98.3246 61.6545C97.6982 70.6473 93.53 78.8991 88.2836 85.7054C89.416 80.6037 90.1569 75.3815 90.44 70.1052C90.6086 66.9851 90.6387 63.8109 90.1569 60.721C89.4461 56.1854 87.6331 51.927 86.7837 47.3915C86.332 45.0665 86.1332 42.6814 85.9585 40.3022C85.7598 37.8628 85.561 35.4233 85.3622 32.9839C85.1333 30.0626 86.5247 27.5088 88.8799 30.0325C90.5243 31.7913 91.9699 33.8031 93.1927 35.9293C95.6322 40.1817 97.2766 45.0304 97.897 50.0538L97.903 50.0598Z" fill="#2B2B37"/>
        <path d="M100.909 46.9699C100.71 45.8918 100.198 44.8437 99.3788 44.3016C98.1862 43.5066 97.1682 43.5367 96.3129 44.133C93.9577 28.8159 84.2901 17.3898 72.8034 17.5343C61.3167 17.6789 51.872 29.358 49.83 44.7293C48.9506 44.1631 47.9326 44.1631 46.7641 44.9823C45.9449 45.5484 45.457 46.6266 45.2643 47.7048C45.0956 48.7829 45.204 49.8912 45.3185 50.9633C45.8004 54.9025 46.5653 58.8177 47.6435 62.6183C47.8423 63.3291 48.0411 64.0097 48.4085 64.6301C49.1193 65.7625 50.3962 66.419 51.613 66.2745C51.7274 66.2443 51.8419 66.2443 51.9563 66.2202C55.9257 77.309 64.0935 84.8501 73.4238 84.7417C82.7541 84.6273 90.7834 76.8573 94.5239 65.6842C94.6384 65.7143 94.7528 65.7384 94.8612 65.7384C96.084 65.8528 97.361 65.1722 98.0416 64.0097C98.4091 63.3833 98.6078 62.6786 98.7765 61.9979C99.7703 58.1671 100.481 54.258 100.879 50.2827C100.993 49.1503 101.077 48.0421 100.909 46.9639V46.9699Z" fill="#D58500"/>
        <path d="M87.4646 30.0928C89.1391 30.6288 90.8136 31.2251 92.458 31.8816C88.091 23.1178 80.887 17.4439 72.7734 17.5343C61.2867 17.6788 51.842 29.3579 49.8 44.7292C48.9206 44.1631 47.8966 44.163 46.7341 44.9822C45.9089 45.5484 45.427 46.6266 45.2282 47.7047C45.0596 48.7829 45.174 49.8911 45.2885 50.9633C45.5716 53.3726 45.9691 55.7578 46.4811 58.1069C47.0232 57.7696 47.5894 57.4804 48.1255 57.2275C49.0592 56.7757 49.9988 56.4023 50.9927 56.065C52.0407 35.2185 64.3768 22.4613 87.4646 30.0867V30.0928Z" fill="#B45F00"/>
        <path d="M71.8096 51.4752C71.8096 51.4752 82.6157 50.4271 90.6991 52.5835C98.7525 54.7398 99.662 55.053 99.662 55.053L97.8188 60.751L71.8096 51.4752Z" fill="#B45F00"/>
        <path opacity="0.36" d="M100.909 46.9699C100.71 45.8918 100.198 44.8437 99.379 44.3016C98.1863 43.5066 97.1684 43.5367 96.3131 44.133C95.8613 41.0973 95.0963 38.2061 94.1025 35.5378C94.0483 35.4234 94.0181 35.3089 93.9579 35.1945C93.6748 34.4295 93.3616 33.6887 93.0243 32.9538C92.97 32.8093 92.9098 32.7009 92.8556 32.5563C92.7713 32.3575 92.6869 32.1889 92.5725 32.0203C92.4882 31.8757 92.4279 31.7371 92.3436 31.5926C92.2593 31.4239 92.175 31.2492 92.0605 31.0806C91.9762 30.936 91.916 30.7975 91.8316 30.653C91.7473 30.4843 91.6328 30.3156 91.5485 30.141C91.4642 29.9964 91.3799 29.8579 91.2955 29.7133C91.2112 29.5447 91.0968 29.4001 91.0125 29.2315C90.9281 29.0869 90.8438 28.9484 90.7594 28.8038C90.6751 28.6593 90.5607 28.4906 90.4764 28.3521C90.392 28.2075 90.2776 28.069 90.1932 27.9244C90.1089 27.7799 89.9945 27.6413 89.9102 27.4968C89.7957 27.3522 89.7114 27.2137 89.5969 27.0691C89.5126 26.9246 89.3982 26.8162 89.3138 26.6716C89.1994 26.503 89.0849 26.3584 88.9464 26.2199C88.862 26.1054 88.7777 25.991 88.6874 25.8765C88.4886 25.6236 88.2658 25.3645 88.067 25.1417C88.0067 25.0875 87.9525 24.9971 87.8983 24.9429C87.7296 24.7442 87.555 24.5755 87.3863 24.4069C87.302 24.3225 87.2177 24.2382 87.1273 24.1539C86.9888 24.0093 86.8442 23.8708 86.6996 23.7021C86.6153 23.6178 86.5009 23.5335 86.4166 23.419C86.278 23.2745 86.1334 23.136 85.9889 23.0215C85.9046 22.9372 85.7901 22.8528 85.7058 22.7685C85.5612 22.624 85.4227 22.5156 85.2781 22.4011C85.1637 22.3168 85.0793 22.2325 84.9649 22.1481C84.8203 22.0337 84.6517 21.8952 84.5131 21.7807C84.4288 21.6964 84.3144 21.6362 84.2301 21.5518C84.0614 21.4374 83.9168 21.323 83.7482 21.2145C83.6639 21.1603 83.5494 21.07 83.4651 21.0158C83.2964 20.9013 83.1217 20.7869 82.9531 20.6785C82.8688 20.6243 82.7844 20.564 82.6941 20.5098C82.4953 20.3954 82.2965 20.2568 82.0737 20.1424C82.0134 20.1123 81.9592 20.0581 81.905 20.028C81.3629 19.7147 80.7967 19.4317 80.2606 19.1787C80.2305 19.1486 80.1763 19.1486 80.1461 19.1245C79.9173 19.01 79.6643 18.9257 79.4354 18.8414C79.3511 18.8113 79.2908 18.7872 79.2065 18.7571C79.0077 18.6727 78.7788 18.6125 78.5801 18.5282C78.4957 18.4981 78.4114 18.474 78.2969 18.4438C78.0982 18.3896 77.8994 18.3294 77.7006 18.2752C77.6163 18.2451 77.5019 18.221 77.4175 18.1909C77.2188 18.1367 77.02 18.1065 76.8212 18.0463C76.761 18.0463 76.7068 18.0162 76.6767 18.0162H76.7068C75.4599 17.7632 74.2131 17.6187 72.906 17.6187C61.4193 17.7632 51.9745 29.4423 49.9326 44.8136C49.0532 44.2474 48.0292 44.2474 46.8667 45.0666C46.0414 45.6328 45.5596 46.7109 45.3608 47.7891C45.1921 48.8673 45.3066 49.9755 45.415 51.0477C45.6981 53.457 46.0957 55.8422 46.6076 58.1912C47.1437 57.8539 47.716 57.5648 48.2521 57.3119C49.6435 56.6613 51.059 56.1193 52.5347 55.6976C53.4985 55.4145 54.4923 55.1314 55.4862 54.9327V54.6797C54.0406 9.04759 119.612 35.0559 82.3989 67.6116C79.845 69.8522 76.6706 71.1593 73.6348 72.4061C69.9786 73.936 66.0091 75.3274 62.0638 75.4719C60.1604 75.5261 58.2931 75.2431 56.4198 74.8214C60.7868 81.0916 66.8886 84.9465 73.5806 84.8622C82.9109 84.7477 90.9401 76.9777 94.6807 65.8046C94.7951 65.8347 94.9096 65.8588 95.018 65.8588C96.2408 65.9733 97.5178 65.2927 98.1984 64.1302C98.5658 63.5037 98.7646 62.799 98.9332 62.1184C99.9271 58.2876 100.638 54.3785 101.035 50.4032C100.975 49.1564 101.066 48.0481 100.891 46.9699H100.909Z" fill="#B45F00"/>
        <path d="M100.909 46.97C100.71 45.8918 100.198 44.8438 99.3787 44.3017C98.1861 43.5066 98.9511 41.8322 98.0716 42.4044C97.5596 39.1699 95.7165 36.4233 93.4757 34.1224L90.44 33.4719C97.0175 41.5551 98.156 54.4268 92.4277 62.5401C90.4701 65.2927 89.9581 63.9556 87.0427 65.1181C85.9946 65.5457 84.8863 65.7987 83.778 66.0517C83.2962 66.5637 82.8143 67.0154 82.2722 67.4671C79.6941 69.6536 76.5439 71.0148 73.5081 72.2617C69.8458 73.7916 65.8764 75.1829 61.937 75.3275C60.0397 75.3817 58.1664 75.0986 56.2931 74.6769C60.6601 80.9471 66.7558 84.802 73.4478 84.7177C82.7781 84.6033 90.8074 76.8333 94.5479 65.6602C94.6624 65.6903 94.7768 65.7143 94.8913 65.7143C96.108 65.8288 97.385 65.1482 98.0656 63.9857C98.433 63.3593 98.6318 62.6546 98.8005 61.9739C99.7943 58.1431 100.505 54.2341 100.903 50.2587C100.987 49.1504 101.071 48.0482 100.903 46.97H100.909Z" fill="#B45F00"/>
        <path opacity="0.36" d="M81.5133 51.5054C80.152 50.5417 80.5195 41.0129 80.6038 40.7298L78.7305 40.019C75.6405 46.5422 75.5562 50.1983 75.5562 56.071C75.5562 56.5228 77.6282 56.6071 77.7969 57.0347C77.9414 57.4322 78.1643 57.7695 78.3932 58.0828C79.0437 58.9079 79.9533 59.5886 80.917 59.6428C81.9109 59.697 82.959 59.0465 83.2421 57.9683C83.3264 57.5708 83.3264 57.1733 83.2963 56.7757C83.1276 55.047 81.7061 51.6439 81.5073 51.4993L81.5133 51.5054Z" fill="#B45F00"/>
        <g opacity="0.36">
            <path opacity="0.36" d="M66.9064 33.755C66.9064 34.0381 66.9908 34.3212 67.1353 34.5802C67.5028 35.291 68.1533 35.7728 68.8339 36.086C69.0026 36.1704 69.2014 36.2306 69.4001 36.2004C71.1891 35.9716 68.9725 33.5322 68.3521 33.225C67.7859 32.9419 66.9366 32.7732 66.9064 33.761V33.755Z" fill="#E2A040"/>
            <path opacity="0.36" d="M59.0519 44.386C59.2507 43.9885 60.0157 43.9584 60.3289 44.0427C60.6963 44.127 61.1541 44.1572 61.2384 44.6691C61.2926 45.1811 60.8409 45.4642 60.4433 45.4642C60.1301 45.4642 59.3109 45.3196 59.1362 44.9823C58.9977 44.7293 58.9676 44.5306 59.0519 44.386Z" fill="#E2A040"/>
            <path opacity="0.36" d="M81.7122 45.3257C81.7122 44.898 82.3627 44.4463 82.7061 44.3318C83.0735 44.2174 83.471 43.9946 83.7541 44.3861C84.0372 44.8137 83.7541 45.2956 83.4168 45.4944C83.1578 45.663 82.3688 45.9762 82.0556 45.7774C81.8026 45.663 81.7182 45.4943 81.7182 45.3257H81.7122Z" fill="#E2A040"/>
            <path opacity="0.36" d="M57.6003 50.7947C57.9436 50.8248 58.2809 50.596 58.4797 50.3129C58.564 50.1683 58.6484 50.0298 58.6484 49.8611C58.6484 49.7768 58.6182 49.6925 58.5941 49.6323C58.3653 49.036 57.4858 48.9215 57.0642 49.295C56.4378 49.7768 56.9498 50.7706 57.6003 50.8008V50.7947Z" fill="#E2A040"/>
            <path opacity="0.36" d="M89.7895 50.2587C90.1329 50.2888 90.4702 50.0599 90.669 49.7768C90.7533 49.6323 90.8376 49.4937 90.8376 49.3251C90.8376 49.2408 90.8075 49.1564 90.7834 49.0962C90.5545 48.4999 89.6751 48.3855 89.2534 48.7589C88.6571 49.2107 89.1691 50.2346 89.7895 50.2647V50.2587Z" fill="#E2A040"/>
        </g>
        <path opacity="0.36" d="M71.3276 44.5006C71.0746 42.4527 71.2734 40.8083 70.0807 40.0193C66.5088 37.6582 60.0216 38.3809 56.2991 39.6037C54.8053 40.2662 54.7089 41.0011 54.8535 41.0854C65.8041 41.9287 68.8339 44.4464 68.8339 48.0723C68.8339 52.5235 65.2319 48.8373 46.7158 55.8725L49.5227 65.3169C52.5284 64.1243 55.504 62.8775 58.4555 61.5463C69.376 56.6374 72.2853 55.7761 71.3336 44.5006H71.3276Z" fill="#B45F00"/>
        <path d="M70.7555 37.8989C70.4965 37.7724 68.1052 38.8566 66.5391 38.9831C63.7744 39.212 60.7084 38.8566 55.9017 40.7298C55.8536 40.7418 55.7993 40.7479 55.7512 40.79C55.7271 40.79 55.703 40.8262 55.6849 40.8623L55.6367 40.8743C55.5102 40.9286 55.6006 41.2297 55.715 41.1454C55.7873 41.1032 55.8837 41.0551 55.956 41.0129C61.7144 39.0734 64.1418 42.1573 67.5812 41.1093C68.7678 40.7298 71.6892 39.5251 70.7555 37.9049V37.8989Z" fill="#323147"/>
        <path opacity="0.36" d="M87.5429 42.2899C87.4465 42.326 87.3501 42.3682 87.2598 42.4043C85.6214 43.1632 83.9589 43.9161 82.2483 43.2415C80.2666 42.4766 78.3993 39.483 79.1764 38.947C79.4113 38.7904 80.7545 39.1638 81.0195 39.1578C82.1278 39.1276 83.2241 39.1578 84.3023 39.2361C85.3564 39.3144 86.4225 39.3626 87.4405 39.6035C89.1572 39.989 90.898 40.3865 92.5424 40.9888C92.7592 41.0611 92.9399 41.1575 93.0785 41.3321C93.1025 41.3683 93.1447 41.4346 93.1326 41.4888C93.1447 41.6936 92.8978 41.7899 92.7472 41.814C91.6449 41.9586 90.5727 41.5309 89.4764 41.6514C88.8199 41.7478 88.1814 42.0188 87.5489 42.2899H87.5429Z" fill="#B45F00"/>
        <path d="M60.0035 46.1206C59.9613 46.3194 59.9252 46.5181 59.9252 46.747C59.9252 47.9938 60.6901 49.0178 61.6057 49.0178C62.5213 49.0178 63.2862 47.9998 63.2862 46.747C63.2862 46.5181 63.2501 46.3194 63.2079 46.1206H60.0035Z" fill="#323147"/>
        <path d="M76.5982 37.8988C76.8572 37.7723 79.2485 38.8565 80.8145 38.983C83.5793 39.2119 86.6453 38.8565 91.452 40.7297C91.5001 40.7418 91.5544 40.7478 91.6025 40.79C91.6266 40.79 91.6507 40.8261 91.6688 40.8623L91.717 40.8743C91.8435 40.9285 91.7531 41.2297 91.6387 41.1453C91.5664 41.1032 91.47 41.055 91.3977 41.0128C85.6393 39.0734 83.2119 42.1572 79.7725 41.1092C78.5859 40.7297 75.6645 39.5251 76.5982 37.9048V37.8988Z" fill="#323147"/>
        <path fill-rule="evenodd" clip-rule="evenodd" d="M54.6247 44.5485C54.7874 44.3799 55.0584 44.3678 55.2271 44.5304C56.0764 45.3315 56.8414 45.6688 57.5883 45.7953C58.2508 45.9098 58.9014 45.8736 59.6483 45.8315C59.7748 45.8254 59.9013 45.8194 60.0338 45.8134C60.9253 45.7712 61.9191 45.7532 63.0395 46.0603C64.1598 46.3615 65.3886 46.9759 66.7861 48.1444C66.9668 48.295 66.9908 48.566 66.8403 48.7407C66.6897 48.9214 66.4186 48.9455 66.2379 48.7949C64.9248 47.6926 63.8045 47.1445 62.8166 46.8795C61.8288 46.6145 60.9433 46.6205 60.076 46.6627C59.9555 46.6687 59.835 46.6747 59.7085 46.6807C58.9676 46.7229 58.2027 46.765 57.4377 46.6325C56.5221 46.4699 55.6066 46.0603 54.6428 45.1448C54.4741 44.9822 54.4621 44.7172 54.6247 44.5425V44.5485Z" fill="#323147"/>
        <path d="M86.555 46.1206C86.5911 46.3194 86.6273 46.5181 86.6273 46.747C86.6273 47.9938 85.8743 49.0178 84.9648 49.0178C84.0553 49.0178 83.3083 47.9998 83.3083 46.747C83.3083 46.5181 83.3445 46.3194 83.3806 46.1206H86.549H86.555Z" fill="#323147"/>
        <path fill-rule="evenodd" clip-rule="evenodd" d="M91.5785 44.5485C91.7412 44.7172 91.7351 44.9882 91.5604 45.1509C90.5967 46.0604 89.6811 46.476 88.7656 46.6386C88.0006 46.7711 87.2356 46.729 86.4947 46.6868C86.3683 46.6808 86.2478 46.6747 86.1273 46.6687C85.2599 46.6265 84.3745 46.6205 83.3866 46.8856C82.3988 47.1506 81.2784 47.6987 79.9653 48.801C79.7846 48.9515 79.5196 48.9274 79.369 48.7467C79.2184 48.566 79.2425 48.301 79.4232 48.1504C80.8206 46.9819 82.0434 46.3675 83.1698 46.0664C84.2902 45.7652 85.278 45.7773 86.1755 45.8194C86.308 45.8255 86.4345 45.8315 86.561 45.8375C87.3079 45.8797 87.9584 45.9158 88.621 45.8014C89.3679 45.6688 90.1329 45.3376 90.9822 44.5365C91.1508 44.3739 91.4219 44.3799 91.5845 44.5546L91.5785 44.5485Z" fill="#323147"/>
        <path opacity="0.36" d="M66.7919 47.7892C65.7438 44.4704 59.8168 44.9221 62.1418 43.9584C62.3948 43.8741 66.1414 43.7596 66.7919 47.7892Z" fill="#B45F00"/>
        <path d="M56.751 78.7306C56.5523 78.586 53.0888 77.6825 53.0888 77.9054C53.0888 78.1283 55.8114 85.7296 56.0102 86.0428C56.2089 86.356 61.3108 90.3795 61.3108 90.3795C61.3108 90.3795 64.5755 87.4583 64.5755 87.2294C64.5755 87.0005 64.1779 84.6213 64.1779 84.6213L56.751 78.7246V78.7306Z" fill="#21212B"/>
        <path d="M97.5356 73.8275C99.2101 69.5751 100.373 56.1854 100.373 56.1854C72.8094 49.2105 73.3154 49.2105 45.9208 56.866C45.9208 56.866 46.3424 60.751 46.999 64.9793C47.5411 66.0274 48.1916 67.0754 48.6735 68.0692C49.6071 69.9425 50.5769 71.7555 51.4804 73.6287C52.2755 75.273 53.0947 76.8873 54.0343 78.4473C54.1187 78.5617 54.2331 78.6762 54.3175 78.7846C57.04 82.1034 60.9794 84.1754 64.5814 86.0185C65.8282 86.6449 67.0751 87.1268 68.328 87.434C72.2432 87.4882 76.3271 87.4039 80.2122 87.2352C84.266 86.5004 88.3258 85.4463 92.0362 83.4346C93.536 82.6094 94.8431 84.9103 93.7107 85.9282C95.6141 85.5849 97.2284 85.2174 98.391 84.7657L98.3367 80.1157C97.1441 78.5256 96.4092 76.7427 97.5416 73.8214L97.5356 73.8275Z" fill="#464558"/>
        <path d="M97.5356 73.8276C99.2101 69.5751 100.373 56.1855 100.373 56.1855C87.4704 52.9269 80.7181 51.1681 74.3935 51.0236C74.1345 52.0174 73.8273 53.0112 73.484 53.9749C72.6046 56.3541 71.3276 58.6851 69.4302 60.3536C67.2437 62.3111 64.1838 63.4194 61.2926 63.3893C56.9858 63.3351 55.1366 59.1067 55.0824 54.3122C53.4681 54.764 47.7639 56.3541 45.8906 56.8661C45.8906 56.8661 46.3183 60.7511 46.9688 64.9794C47.5109 66.0275 48.1615 67.0755 48.6433 68.0693C49.577 69.9426 50.5407 71.7555 51.4503 73.6288C52.2454 75.2731 53.0645 76.8874 54.0042 78.4474C54.0885 78.5618 54.203 78.6763 54.2873 78.7847C57.0099 82.1035 60.9553 84.1755 64.5573 86.0186C65.8041 86.645 67.051 87.1269 68.3039 87.4341C72.2191 87.4883 76.303 87.404 80.1881 87.2353C84.2419 86.5005 88.3017 85.4464 92.0121 83.4346C93.5119 82.6095 94.819 84.9103 93.6866 85.9283C95.59 85.591 97.2043 85.2175 98.3668 84.7658L98.3126 80.1158C97.1501 78.5257 96.4092 76.7428 97.5476 73.8215L97.5356 73.8276Z" fill="#323147"/>
        <path d="M48.6976 68.0694C49.6312 69.9427 50.601 71.7556 51.5045 73.6289C52.2996 75.2732 53.1188 76.8874 54.0584 78.4475C54.1428 78.5619 54.2572 78.6763 54.3415 78.7848C57.0641 82.1036 61.0035 84.1756 64.6055 86.0187C65.8523 86.6451 67.1052 87.127 68.3521 87.4342C70.0567 87.4643 71.7553 87.4643 73.484 87.4342C73.3395 87.38 77.7366 84.9646 77.598 84.9104C73.9117 83.3805 61.1781 87.4342 54.0042 66.5636C52.8417 63.1605 52.0165 59.673 51.5346 56.1012L51.4503 55.3363C49.3481 55.9326 46.999 56.5831 45.9208 56.8662C45.9208 56.8662 46.3424 60.7512 46.999 64.9795C47.5652 66.0577 48.2217 67.0756 48.7036 68.0694H48.6976Z" fill="#2B2B37"/>
        <path d="M74.532 87.4101C74.5922 87.3559 74.6464 87.2656 74.6766 87.1812C75.5018 85.9645 76.1222 84.6033 76.3812 83.1276C76.6643 81.4832 76.4956 79.8088 76.1523 78.2186C75.8391 76.7429 75.3572 75.2974 75.2428 73.7916C75.1283 72.4604 75.4717 71.1835 75.9837 69.9367C76.4956 68.72 77.1462 67.5816 77.4895 66.3047C77.7425 65.3108 77.8871 64.2628 77.8027 63.2388C77.7485 62.1908 77.4654 61.0524 76.6944 60.2874C76.0439 59.6068 74.6224 59.0105 73.7429 59.6369C73.0021 60.1489 72.9177 61.3415 72.8334 62.1607C72.7189 63.2689 72.5202 64.317 72.0383 65.3349C71.4962 66.5275 70.7071 67.5755 69.9964 68.6537C69.1711 69.9005 68.4664 71.2317 68.1532 72.7074C67.5027 75.5985 68.3218 78.3511 69.7976 80.8207C70.93 82.6939 72.2371 84.5912 72.7732 86.7476C72.8334 86.9765 72.8575 87.1752 72.9177 87.3981C73.4839 87.4282 74.026 87.4282 74.532 87.3981V87.4101Z" fill="#2B2B37"/>
        <path d="M97.5356 73.8277C99.2101 69.5753 100.373 56.1856 100.373 56.1856C100.403 55.8182 88.4342 53.2101 87.1272 52.927C84.0612 52.2464 80.6881 51.3369 77.5439 51.2285C77.574 53.8968 76.7789 57.6914 79.3328 59.5948C79.8448 59.9622 80.4411 60.2212 80.9471 60.5585C83.8986 62.516 83.501 66.8829 81.2603 68.2984C80.3508 68.8646 78.875 69.1778 79.899 70.6776C80.4351 71.4425 81.2603 72.0087 81.941 72.605C82.5072 73.0868 83.1878 73.653 83.3866 74.418C83.5311 75.0143 83.4167 75.6106 83.1336 76.1165C85.0611 80.7364 74.1406 87.2897 58.576 82.5253C60.5337 83.8564 62.6298 84.9647 64.6176 85.9826C65.8644 86.609 67.1173 87.0909 68.3641 87.3981C72.2794 87.4523 76.3633 87.368 80.2484 87.1993C84.3022 86.4645 88.3619 85.4104 92.0724 83.3987C93.5782 82.5735 94.8793 84.8743 93.7469 85.8923C95.6503 85.5489 97.2646 85.1815 98.4271 84.7298L98.3669 80.0798C97.1501 78.5198 96.4093 76.7309 97.5477 73.8096L97.5356 73.8277Z" fill="#2B2B37"/>
        <path d="M97.5357 73.8277C99.2102 69.5753 100.373 56.1856 100.373 56.1856C100.403 55.7339 94.8733 54.6557 94.4156 54.5714C93.6506 54.4027 92.8856 54.204 92.0905 54.0353C91.8074 53.9811 91.2955 53.7522 91.0123 53.7823C90.6148 53.8365 90.5847 54.1799 90.3859 54.5172C89.5366 56.0471 88.8258 57.1855 88.9101 59.0527V59.2514C89.0246 60.9801 89.6209 62.6245 90.0185 64.2989C90.2775 65.347 90.4763 66.4251 90.3618 67.4732C89.9944 70.8763 86.814 73.1712 85.5129 76.3213C85.1154 77.2851 84.9166 78.3331 84.3805 79.2426C83.3566 80.9411 81.3748 81.7663 80.0677 83.242C79.4172 83.9769 78.9353 84.8864 78.1402 85.4526C77.2307 86.1031 76.0682 86.2175 74.9599 86.1633C74.0805 86.1332 73.0866 85.8501 72.2373 85.9947C71.9241 86.0489 66.7379 87.3258 60.2988 83.6998C64.1297 91.271 74.8213 88.0968 78.6462 87.4704C83.2421 86.7054 87.8621 85.6814 92.0604 83.3866C93.6506 82.5072 95.036 85.1996 93.4518 86.079C93.4217 86.1091 93.3675 86.1091 93.3374 86.1332C95.4094 85.6814 97.1382 85.1996 98.4151 84.7418L98.3549 80.0919C97.1382 78.5319 96.3973 76.7429 97.5357 73.8217V73.8277Z" fill="#21212B"/>
        <path d="M90.446 75.4961C89.4521 78.2186 88.3498 80.8869 86.8741 83.3203C85.4827 85.6151 83.8081 87.7413 81.971 89.5904C81.0916 90.4698 80.0977 91.1806 79.3327 92.1985C78.9352 92.7105 78.5677 93.2466 78.1702 93.7043L78.2003 95.4089C83.9286 95.2945 89.6569 94.8728 95.3611 94.132C96.1261 92.6563 96.9754 91.2107 97.6319 89.6808C98.3427 88.0365 99.0233 86.2777 99.445 84.5189C99.4751 84.4044 99.4992 84.3201 99.5293 84.2057C96.4091 74.3336 116.178 32.3636 91.9277 12.9085C78.375 2.04858 68.0207 3.09662 55.8835 12.3423C29.9044 32.1347 50.7515 75.1045 47.5711 84.9706C47.4567 85.338 47.288 85.7054 47.1194 86.0488C47.7458 87.8076 48.565 89.4519 49.4143 91.0661C50.0648 92.2587 50.6913 93.4754 51.3719 94.6379C51.402 94.6921 51.4562 94.7825 51.4864 94.8367C57.2448 96.198 66.0089 99.6553 70.6891 99.7456C72.9599 99.7757 73.6104 99.2638 72.8455 96.3124L71.6528 96.3425L71.6227 94.4693C71.5083 94.3549 71.3938 94.2404 71.2794 94.132C70.4602 93.2526 69.4904 92.572 68.4423 92.06C59.9915 87.9461 55.763 77.5379 52.9019 69.0331C49.0168 57.4926 49.2155 42.1453 54.8294 35.5138C64.3886 24.2563 81.4349 23.8889 91.3013 35.1162C97.9391 42.6573 100.716 55.3905 91.3615 72.9783C91.0483 73.8276 90.7652 74.6528 90.452 75.5021L90.446 75.4961Z" fill="#464558"/>
        <path d="M47.8181 80.7181C47.9326 82.4769 47.8723 83.9225 47.535 84.9706C47.4206 85.338 47.2519 85.7054 47.0833 86.0487C47.7097 87.8075 48.5289 89.4518 49.3782 91.0661C50.0287 92.2587 50.6551 93.4754 51.3358 94.6379C51.3659 94.6921 51.4201 94.7824 51.4502 94.8366C57.2086 96.1979 65.9667 99.6552 70.653 99.7456C72.3275 99.7757 73.1226 99.4926 73.1226 98.1313C58.1182 89.765 50.6311 91.5781 47.8241 80.7181H47.8181Z" fill="#323147"/>
        <path opacity="0.32" d="M96.7404 90.6144C97.4511 89.1387 98.1318 87.6389 98.7281 86.103C99.0112 85.3922 99.1799 84.6273 99.4088 83.8924C97.1681 75.1286 110.498 44.1872 100.144 23.2022C100.487 26.8342 100.204 30.4602 99.0956 33.9236C98.2161 36.7003 96.9091 39.3385 95.4092 41.7478C98.5294 49.319 98.3306 59.7814 91.3253 72.9723C91.0121 73.8216 90.729 74.6468 90.4158 75.496C89.4219 78.2185 88.3196 80.8868 86.8439 83.3202C85.4525 85.6151 83.778 87.7413 81.9408 89.5904C81.0614 90.4698 80.0675 91.1806 79.3026 92.1985C78.6761 93.0478 78.0798 93.9271 77.2305 94.5235V95.4029C83.1876 95.3185 89.1449 94.921 95.0418 94.1259C95.6381 92.9634 96.1742 91.8009 96.7464 90.6083L96.7404 90.6144Z" fill="#323147"/>
        <path opacity="0.32" d="M89.5668 29.6712C89.368 27.545 88.0911 25.5031 86.5611 24.2804C85.2299 23.2022 83.5795 22.7746 81.9652 22.6903C78.5921 22.5216 75.3033 23.6239 71.9543 23.8829C70.0509 24.0274 68.2077 23.5998 66.3103 23.4311C64.0696 23.2023 62.0578 23.7443 60.329 25.4429C58.7087 27.0571 57.5221 29.1291 56.1307 30.9722C54.7694 32.7611 53.125 34.2067 51.6191 35.821C50.2277 37.3268 48.8966 38.941 47.9328 40.8383C47.4509 41.802 47.0534 42.826 46.7703 43.9041C46.4571 45.1208 46.2884 46.3978 46.0053 47.6205C45.409 50.1743 44.5296 52.6378 44.1621 55.2218C43.9935 56.4686 43.9935 57.6913 43.9935 58.9381C45.0114 65.377 46.3787 71.3039 47.1678 76.0381C47.5654 76.773 47.993 77.4837 48.4147 78.1945C49.5772 80.1219 50.8542 82.0252 51.5348 84.2358C52.1853 86.2777 52.2697 88.6026 51.6191 90.6445C51.3059 91.6082 50.8843 92.4575 50.3422 93.2225H51.0529L51.083 94.7524C56.4981 95.9691 63.4492 99.6312 68.5269 99.6854C70.1171 99.7155 71.7916 99.4565 72.7253 98.27C72.9542 97.9869 73.0385 97.1918 72.8698 96.4268L71.5387 96.457L71.5085 94.4452C71.4242 94.3609 71.3399 94.2464 71.2254 94.1621C70.4002 93.2827 69.4365 92.6021 68.3884 92.0901C59.9375 87.9762 52.3058 78.5077 49.4447 69.9968C45.5596 58.4563 49.1616 42.1755 54.7754 35.5378C63.6238 25.0755 78.9656 24.0214 89.0066 32.9298C89.4885 31.9118 89.6873 30.8036 89.5728 29.6712H89.5668Z" fill="#323147"/>
        <path d="M49.3783 44.7596C49.0409 45.9522 49.0651 47.1689 49.0108 48.3916C49.0108 48.5904 48.9807 48.8192 48.9807 49.0421C49.6915 45.7835 50.7094 42.7177 51.9322 40.1638C50.9383 41.6395 49.8601 43.0309 49.3783 44.7596Z" fill="#464558"/>
        <path d="M97.4513 90.6987C98.162 88.8857 98.9571 87.0968 99.5233 85.2235C99.5775 85.0549 99.6378 84.8802 99.692 84.6875C99.6378 84.573 99.6077 84.4345 99.5534 84.3201C97.909 79.5256 101.993 66.7382 103.577 52.6438C102.354 59.1068 96.7405 77.4897 96.626 77.7427C96.114 79.0497 95.4937 80.3809 94.6986 81.4891C93.9878 82.5071 93.024 83.1034 92.0603 83.784C91.4339 84.2116 90.8375 84.6935 90.4701 85.3982C90.2111 85.8801 90.1027 86.4162 89.9882 86.9582C89.7593 88.0364 89.5365 89.1146 88.8799 89.9638C88.2595 90.7589 87.4042 91.2408 86.5549 91.6624C85.3622 92.2587 84.1696 92.7948 82.8926 93.108C81.3626 93.4754 79.8568 93.5055 78.3269 93.5055C77.9293 93.9573 77.5317 94.3849 76.9896 94.668C76.568 94.921 72.96 98.041 72.5383 98.3C79.3749 98.3 88.7896 95.433 96.0779 94.0476C96.5297 92.9996 96.9875 91.8371 97.4392 90.6987H97.4513Z" fill="#323147"/>
        <path d="M54.8234 35.4836C62.0817 26.9186 73.7129 24.6478 83.1818 29.0207C82.4168 28.5087 81.6518 28.0027 80.9712 27.3763C80.4893 26.9246 80.152 26.8403 79.5256 26.7258C79.2425 26.6716 79.0136 26.6114 78.7606 26.4728C77.9113 26.0452 77.0861 25.5633 76.1825 25.2803C75.785 25.1658 75.3875 25.0514 74.9598 24.967C74.9056 24.967 74.8453 24.967 74.7911 24.9369C73.5985 24.8225 72.4119 24.6237 71.2192 24.5936C70.0025 24.5394 68.8099 24.8767 67.5871 24.9068C66.2559 24.961 65.1175 24.961 63.9851 25.8163C63.0755 26.4969 62.2564 27.2318 61.3167 27.8281C59.3591 29.0749 57.3473 30.1831 55.8173 32.1407C55.1065 33.0502 54.5102 34.0983 54.0886 35.2065C53.9741 35.4595 53.0405 37.7604 52.3297 38.5796C38.3734 54.2882 49.4325 98.2218 73.2311 97.4809C73.4298 96.0895 71.7553 94.5897 71.3879 94.1621C70.4784 93.1984 69.4002 92.4635 68.2678 91.8913C59.8711 87.7533 55.5342 77.6282 52.667 69.1776C49.2939 59.1971 48.3603 46.3495 52.667 38.5796C53.3176 37.7002 54.3958 36.0257 54.8234 35.4896V35.4836Z" fill="#323147"/>
        <path d="M43.9332 40.5612C47.222 38.2905 50.4264 35.7125 53.0406 32.478C55.8475 28.9905 58.0882 24.8225 59.564 20.4255C60.6121 17.3356 61.2385 14.1011 61.2686 10.7823C61.2686 10.1017 61.2686 9.45113 61.2144 8.77051C59.4556 9.78844 57.6666 10.981 55.8535 12.3724C46.1257 19.8051 42.9513 30.4964 42.6381 41.4406C43.0899 41.1274 43.5175 40.8443 43.9392 40.5612H43.9332Z" fill="#575770"/>
        <g opacity="0.25">
            <path opacity="0.25" d="M72.719 23.9972C72.5202 23.9972 72.3515 23.8828 72.2672 23.684C71.5865 21.9553 71.8395 20.0821 72.0684 18.2932C72.2371 17.0464 72.3816 15.7695 72.2371 14.5769C72.1829 14.1492 72.0925 13.6975 71.9841 13.2457C71.8998 12.9024 71.8154 12.535 71.7552 12.1676C71.4119 10.21 71.6709 8.16812 71.8937 6.35513C71.9239 6.04192 72.1768 5.84315 72.4359 5.90338C72.6888 5.9335 72.8876 6.21662 72.8635 6.52983C72.6346 8.34282 72.4118 10.1859 72.719 11.9748C72.7732 12.3121 72.8635 12.6254 72.9177 12.9687C73.0322 13.4204 73.1466 13.9023 73.2008 14.4142C73.3695 15.7454 73.2008 17.1066 73.0322 18.4438C72.8033 20.1725 72.6105 21.7927 73.1767 23.2624C73.2912 23.5455 73.1767 23.8587 72.9237 23.9731C72.8695 24.0032 72.7792 24.0032 72.725 24.0032L72.719 23.9972Z" fill="#2B2B37"/>
        </g>
        <path d="M90.898 34.2609C89.9041 33.2972 88.8259 32.4479 87.6935 31.7372C88.9705 32.7009 90.1872 33.8333 91.2955 35.1102C97.9333 42.6513 100.686 55.3603 91.3557 72.9422C91.0425 73.7915 90.7293 74.6408 90.4161 75.4961C89.4222 78.2186 88.3199 80.8869 86.8442 83.3203C86.278 84.284 85.6515 85.1935 84.9709 86.0729C90.8678 80.5436 95.8613 73.9059 98.3248 65.5999C102.071 53.2342 98.4092 41.5792 90.898 34.2609Z" fill="#575770"/>
        <path d="M102.27 65.8288C102.041 63.9857 102.101 62.1426 102.3 60.2995H102.216L101.083 66.3107C99.7522 70.1656 98.6439 74.1108 97.7344 78.1102C97.4754 79.2185 97.2525 80.3208 96.8851 81.3989C95.6623 85.1153 93.1987 88.0907 90.7592 90.9819C91.1568 91.4637 91.8675 91.3493 92.4337 91.1506C94.5901 90.4157 96.602 89.1629 98.2765 87.4643C98.8427 86.8981 99.4089 86.2476 99.692 85.4525C100.343 83.7239 99.7522 81.7061 100.174 79.8931C100.487 78.5319 101.336 77.4236 101.933 76.1768C102.698 74.6168 103.065 72.8278 103.011 71.045C102.957 69.2561 102.499 67.5575 102.276 65.8288H102.27Z" fill="#323147"/>
        <path d="M47.8482 70.1112C47.3964 66.1419 46.77 62.1726 46.1496 58.2273C45.8665 56.2999 45.5533 54.3725 45.2702 52.4691C45.0714 51.1922 44.8726 49.9153 44.5594 48.6685H42.8849C43.1138 50.6561 43.4511 52.6378 43.6197 54.5411C43.9028 57.8599 43.9872 61.2329 43.4752 64.5518C43.1921 66.3105 42.7644 68.1537 43.3607 69.798C43.5896 70.4485 43.9571 70.9906 44.2944 71.5869C45.8846 74.3636 46.6797 77.7125 46.4809 81.0012C46.4267 81.9951 46.2821 83.013 46.511 83.9767C47.3061 87.6087 54.0523 93.9031 56.1545 93.7585C52.3838 88.3677 48.3542 74.4721 47.8422 70.1052L47.8482 70.1112Z" fill="#464558"/>
        <path d="M46.5111 80.2364C46.5111 80.4894 46.5111 80.7183 46.481 80.9713C46.4268 81.9651 46.2822 82.983 46.5111 83.9467C47.3062 87.5788 54.0524 93.873 56.1546 93.7285C55.2752 92.4817 61.9672 94.6621 60.7746 92.7347C56.2932 90.0122 52.4622 90.4097 46.5111 80.2304V80.2364Z" fill="#323147"/>
        <path d="M48.4144 75.1286C48.2156 73.4541 48.047 71.7797 47.8482 70.1112C47.3964 66.1419 46.77 62.1726 46.1496 58.2273C45.8665 56.2999 45.5533 54.3725 45.2702 52.4691C45.0714 51.1922 44.8726 49.9153 44.5594 48.6685H42.8849C43.1138 50.6561 43.4511 52.6378 43.6197 54.5411C43.9028 57.8599 43.9872 61.2329 43.4752 64.5518C43.1921 66.3105 42.7644 68.1537 43.3607 69.798C43.5896 70.4485 43.9571 70.9906 44.2944 71.5869C44.7762 72.4121 45.1738 73.2855 45.487 74.195C46.4206 73.43 47.9566 73.5686 48.4084 75.1286H48.4144Z" fill="#464558"/>
        <path d="M42.915 93.0538C43.427 94.7282 44.3908 96.1738 45.3545 97.6194C46.3785 99.1252 47.3965 100.685 48.818 101.787C50.2335 102.92 51.9683 103.546 53.697 104.088C57.7809 105.365 62.0033 106.13 66.2619 106.413C70.1169 106.666 73.9779 106.498 77.8028 107.064C80.694 107.492 83.6154 108.311 86.5368 108.028C88.5245 107.829 90.452 107.118 92.2952 106.329C95.3009 104.998 98.2765 103.323 100.409 100.715C102.505 98.1073 103.613 94.4211 102.505 91.2167C102.252 90.4517 101.68 89.6024 100.891 89.6567C100.409 89.6868 100.011 90.0843 99.6438 90.4216C93.8312 96.21 86.4826 100.685 78.4594 101.396C76.4475 101.565 74.4297 101.51 72.448 101.426C70.9421 101.372 69.4423 101.312 67.9665 100.974C65.9246 100.492 64.0513 99.4746 62.0696 98.8481C60.0276 98.2217 57.8471 98.023 55.8293 97.258C51.9743 95.7823 49.1674 92.3491 46.5291 89.0905C45.481 87.7835 45.1979 86.368 44.457 85.0368C42.5837 86.9944 42.1561 90.512 42.9271 93.0598L42.915 93.0538Z" fill="#75A152"/>
        <path opacity="0.37" d="M102.469 91.1807C102.216 90.4158 101.644 89.5665 100.855 89.6207C100.373 89.6508 99.9753 90.0484 99.6078 90.3857C93.7952 96.174 86.4466 100.649 78.4234 101.36C76.4116 101.529 74.3997 101.474 72.412 101.39C70.9062 101.336 69.4063 101.276 67.9306 100.938C66.485 100.601 65.1237 99.9747 63.7322 99.4326C64.8948 101.589 65.3224 104.167 63.8768 106.155C64.6719 106.239 65.4369 106.323 66.232 106.353C70.087 106.606 73.948 106.438 77.7729 107.004C80.6641 107.431 83.5855 108.251 86.5069 107.968C88.4946 107.769 90.4221 107.058 92.2653 106.263C95.271 104.932 98.2465 103.257 100.373 100.649C102.475 98.0954 103.577 94.3791 102.475 91.1747L102.469 91.1807Z" fill="#568040"/>
        <path d="M102.469 91.1805C102.216 90.4155 101.643 89.5663 100.854 89.6205C100.373 89.6506 99.975 90.0481 99.6076 90.3854C93.795 96.1677 86.4464 100.649 78.4232 101.36C76.4113 101.528 74.3995 101.474 72.4118 101.39C70.9059 101.336 69.4061 101.275 67.9303 100.938C65.8884 100.456 64.0151 99.4384 62.0334 98.8119C59.9914 98.1855 57.8049 97.9868 55.7931 97.2218C51.9381 95.7461 49.1312 92.3128 46.4929 89.0543C45.4448 87.7472 45.1617 86.3318 44.4208 85.0006C44.1618 85.2837 43.939 85.5668 43.7101 85.9102C44.0534 88.1207 45.5292 90.1083 46.4327 92.0659C47.541 94.5354 48.2216 97.1977 50.0347 99.2396C51.7092 101.113 53.8355 102.107 56.2147 102.474C57.4074 102.643 58.6241 102.673 59.8167 102.841C60.9793 103.01 62.1177 103.323 63.2802 103.522C64.5572 103.721 65.8342 103.751 67.1111 103.95C68.3881 104.118 69.635 104.347 70.9119 104.486C72.1046 104.63 73.2671 104.769 74.4296 105.052C75.7608 105.365 77.0679 105.733 78.4292 105.847C80.7843 106.046 83.3323 106.16 85.6633 105.703C86.9403 105.45 88.1872 104.992 89.4641 104.679C90.0303 104.54 90.6266 104.45 91.1928 104.281C91.6747 104.143 92.1265 103.914 92.6083 103.829C93.5179 103.691 94.2829 104.173 94.8792 104.938C96.9512 103.829 98.8486 102.444 100.324 100.625C102.481 98.1012 103.589 94.3849 102.481 91.1805H102.469Z" fill="#568040"/>
        <path d="M49.4084 95.0416C49.8361 96.2884 50.2878 97.5955 51.1672 98.5893C52.1611 99.6675 53.6067 100.264 54.968 100.601C57.7509 101.312 60.7264 101.366 63.5334 101.679C66.003 101.932 68.3521 101.818 70.7073 101.366C69.7736 101.312 68.834 101.197 67.9244 100.999C65.8825 100.517 64.0092 99.4988 62.0275 98.8724C59.9856 98.246 57.8051 98.0472 55.7872 97.2823C52.637 96.0897 50.2035 93.5659 47.9628 90.9036C48.5591 92.2348 48.9566 93.6562 49.4084 95.0416Z" fill="#3E5C2E"/>
        <path d="M75.8693 103.233C77.5438 103.914 79.3327 103.998 81.1157 103.884C82.9046 103.769 84.7478 103.655 86.5067 103.317C88.1209 103.004 89.681 102.607 91.2953 102.384C92.9397 102.131 94.56 101.932 96.0599 101.191C97.2766 100.595 98.5837 99.9143 99.5474 98.8963C100.656 97.7339 100.993 96.1437 101.222 94.5837C101.451 92.9936 101.168 91.295 101.367 89.735C101.198 89.6506 101.023 89.6206 100.854 89.6507C100.373 89.6808 99.9751 90.0783 99.6076 90.4156C93.795 96.1979 86.4464 100.679 78.4232 101.39C76.5801 101.559 74.7369 101.504 72.8636 101.444C73.8575 102.095 74.7911 102.805 75.8693 103.233Z" fill="#3E5C2E"/>
        <path d="M62.708 96.2882C65.5149 96.74 95.7164 102.528 101.276 79.64C101.559 78.5076 101.559 79.6942 102.692 79.7243C104.619 98.5289 84.7959 106.636 66.563 102.896C36.6988 96.8002 42.8246 71.7315 45.2641 77.3993C46.2279 79.6942 44.8425 93.391 62.708 96.2882Z" fill="#75A152"/>
        <path d="M62.708 96.2882C65.5149 96.74 95.7164 102.528 101.276 79.64C101.559 78.5076 101.559 79.6942 102.692 79.7243C104.619 98.5289 84.7959 106.636 66.563 102.896C36.6988 96.8002 42.8246 71.7315 45.2641 77.3993C46.2279 79.6942 44.8425 93.391 62.708 96.2882Z" fill="#75A152"/>
        <path d="M45.6919 85.4825C45.4932 84.3501 45.3787 83.1877 45.3787 82.0252C45.2944 81.2 45.2101 80.1279 44.6981 79.4472C44.6439 79.3629 44.5535 79.2786 44.4692 79.2485C44.3005 79.1943 44.1258 79.2786 44.0174 79.393C43.903 79.5376 43.8729 79.7062 43.8488 79.8749C43.7343 80.8386 44.2162 81.7481 44.415 82.6817C44.5836 83.4467 44.5294 84.2718 44.5535 85.0669C44.5776 85.862 44.6679 86.6811 45.0655 87.3618C45.1799 87.5605 45.3185 87.7292 45.5474 87.7593C45.7763 87.7593 45.975 87.5605 45.9991 87.3317C46.0533 87.1028 45.9991 86.8498 45.9449 86.6209C45.8305 86.2234 45.7461 85.856 45.6859 85.4885L45.6919 85.4825Z" fill="#AED888"/>
        <path d="M49.2095 93.2526C49.2095 93.3369 49.2095 93.4212 49.2396 93.4815C49.2998 93.6501 49.4986 93.7344 49.6673 93.7947C49.7817 93.8248 49.8961 93.879 49.9805 93.879C50.0949 93.879 50.2094 93.8489 50.2636 93.7344C50.3178 93.6802 50.3178 93.5899 50.3178 93.5055C50.3178 93.3068 50.2877 93.0779 50.1792 92.9092C49.8118 92.4575 49.2998 92.7105 49.2155 93.2465L49.2095 93.2526Z" fill="#AED888"/>
        <path d="M76.7727 98.812C76.3451 98.812 75.8933 98.8421 75.4656 98.9565C73.508 99.4083 70.93 99.866 70.0204 101.143C69.653 101.655 69.5085 102.558 70.3879 102.817C71.2974 103.07 72.2311 102.45 72.8575 101.709C73.508 100.944 73.5683 100.203 78.9231 100.517L76.7667 98.818L76.7727 98.812Z" fill="#568040"/>
        <path opacity="0.37" d="M102.698 79.7243C101.565 79.6942 101.565 78.5077 101.282 79.64C96.4334 99.577 72.9239 97.764 65.0633 96.6557C67.1655 97.3664 69.2857 97.8724 71.3337 98.7819C73.1227 99.6071 75.02 100.541 76.297 102.131C76.6945 102.613 76.9776 103.149 77.1764 103.721C91.6387 103.095 104.264 94.8728 102.704 79.7303L102.698 79.7243Z" fill="#568040"/>
        <path d="M54.5102 96.3725C58.6242 98.9264 63.6177 99.0951 68.2677 99.4324C78.875 100.258 94.3311 103.968 97.9573 92.1442C98.1861 91.3491 103.77 90.271 102.692 79.6942C101.559 79.664 101.559 78.4775 101.276 79.6098C95.7165 102.498 65.515 96.7098 62.7081 96.2581C54.8535 94.9812 50.7094 91.6383 48.4687 88.0605C49.5168 91.4937 51.6732 94.5836 54.5102 96.3725Z" fill="#568040"/>
        <path d="M60.4674 96.4268C62.4852 96.7943 64.5211 96.8244 66.539 96.8545C64.5814 96.6256 63.19 96.3726 62.684 96.2883C57.8351 95.4932 54.4319 93.9332 51.9623 92.0058C54.2331 94.3609 57.4376 95.8606 60.4674 96.4328V96.4268Z" fill="#3E5C2E"/>
        <path d="M76.0682 97.4507C80.9472 97.9326 85.9105 98.047 90.5064 95.9449C91.5846 95.4631 92.6929 94.8125 93.5723 93.9874C94.3674 93.2224 94.8734 92.2286 95.7528 91.5178C97.3731 90.2108 99.3548 89.7049 100.487 87.8015C101.764 85.6452 100.632 83.2058 100.035 80.7422C99.2705 91.4636 83.983 97.1616 74.1106 97.2761C74.7912 97.3303 75.4177 97.3905 76.0682 97.4447V97.4507Z" fill="#3E5C2E"/>
        <path d="M43.903 92.4273C44.1017 92.6803 44.3848 92.8791 44.5535 93.1622C44.7221 93.4995 44.7221 93.8729 44.7523 94.2705C44.7824 94.6379 44.8968 95.0655 45.1799 95.2643C45.3787 95.4089 45.6317 95.4089 45.8606 95.4089C45.9449 95.4089 46.0292 95.4088 46.0895 95.3546C46.1738 95.3004 46.234 95.2101 46.2882 95.1257C46.8544 94.0476 46.0895 92.2888 45.3787 91.4696C45.0956 91.1263 44.3547 90.277 43.903 90.5601C43.3066 90.9034 43.6199 92.066 43.903 92.4334V92.4273Z" fill="#AED888"/>
        <path d="M72.0926 99.2939C71.2433 99.2939 70.4181 99.4084 69.5989 99.6071C68.7496 99.8059 67.8702 100.143 67.3582 100.884C67.2979 100.968 67.2437 101.083 67.2136 101.197C67.1594 101.51 67.4124 101.824 67.6955 101.908C67.9786 101.992 68.2918 101.908 68.5749 101.794C69.6531 101.366 70.5325 100.487 71.6649 100.348C72.1167 100.294 72.5986 100.378 73.0563 100.402C73.5081 100.432 74.0201 100.432 74.4176 100.203C74.6465 100.089 75.0682 99.7517 75.0682 99.4686C75.038 99.1554 74.6164 99.2999 74.4417 99.2999C73.6466 99.3541 72.8515 99.2999 72.0866 99.2999L72.0926 99.2939Z" fill="#568040"/>
        <path d="M112.141 33.0449C111.774 34.4491 111.219 35.7471 110.525 36.8737C109.243 38.98 107.496 40.5066 105.708 41.1352C105.112 41.3475 104.508 41.4618 103.912 41.4618C100.018 41.4618 95.4462 36.5634 95.1442 30.2936C95.136 30.1222 95.136 29.9507 95.136 29.7874C95.1197 29.0037 95.1768 28.2036 95.3156 27.3873C95.3564 27.0934 95.4136 26.8076 95.4789 26.5219C95.6177 25.9096 95.7809 25.3055 95.9605 24.7259C96.0177 24.53 96.0749 24.3422 96.1402 24.1462C96.3116 23.6156 96.4912 23.1012 96.6871 22.6032C96.7851 22.3583 96.8749 22.1134 96.981 21.8767C97.079 21.6399 97.177 21.4032 97.2831 21.1746C97.381 20.9541 97.4791 20.7337 97.577 20.5215C97.9526 19.7296 98.3444 18.9867 98.7526 18.2928C98.8261 18.1621 98.8995 18.0315 98.973 17.909C99.2016 17.5253 99.422 17.1661 99.6506 16.8151C101.822 13.4516 103.912 11.5739 103.912 11.5739C103.912 11.5739 104.5 12.0229 105.382 12.9209C107.121 14.7006 109.986 18.2437 111.611 23.5258C111.905 24.4646 112.158 25.4688 112.354 26.5219C112.786 28.8404 112.656 31.0529 112.141 33.0449Z" fill="#B8E6FE"/>
        <path opacity="0.6" d="M112.141 33.0448C111.774 34.449 111.219 35.7471 110.525 36.8737C109.243 38.98 107.496 40.5066 105.708 41.1352C105.112 41.3475 104.508 41.4618 103.912 41.4618C100.018 41.4618 95.4463 36.5634 95.1442 30.2936C95.1361 30.1221 95.1361 29.9507 95.1361 29.7874C95.1361 28.9629 95.1933 28.1628 95.3157 27.3872C95.3565 27.0933 95.4137 26.8076 95.479 26.5219C95.6178 25.9096 95.781 25.3055 95.9606 24.7259C96.0178 24.5299 96.075 24.3421 96.1403 24.1462C96.3117 23.6156 96.4913 23.1012 96.6872 22.6032C96.7852 22.3583 96.875 22.1134 96.9811 21.8766C97.0791 21.6399 97.177 21.4031 97.2832 21.1745C97.3811 20.9541 97.4792 20.7337 97.5771 20.5214C97.9527 19.7295 98.3445 18.9867 98.7527 18.2927C98.8262 18.1621 98.8996 18.0315 98.9731 17.909C99.2017 17.5253 99.4221 17.1661 99.6507 16.8151C99.5772 18.8234 99.4385 32.3754 112.141 33.0448Z" fill="#8ABFD6"/>
        <path opacity="0.6" d="M111.611 23.5259C101.847 21.5176 105.382 12.9211 105.382 12.9211C107.121 14.7008 109.986 18.2439 111.611 23.5259Z" fill="#EBF8FC"/>
        <path d="M105.708 41.1353C105.112 41.3476 104.508 41.4619 103.912 41.4619C99.2589 41.4619 93.6503 34.4817 95.479 26.5219C95.9933 24.3014 96.7444 22.2767 97.5934 20.497C97.5934 20.497 94.5402 37.1187 105.708 41.1353Z" fill="#8ABFD6"/>
        <path d="M125.555 44.0579C125.326 44.9233 124.983 45.7315 124.559 46.4254C123.767 47.7235 122.689 48.6705 121.579 49.0624C121.211 49.193 120.836 49.2665 120.469 49.2665C118.06 49.2665 115.236 46.2377 115.048 42.368C115.048 42.2619 115.048 42.1557 115.048 42.0578C115.04 41.5761 115.072 41.0781 115.162 40.5719C115.187 40.3923 115.219 40.2127 115.26 40.0331C115.35 39.6576 115.448 39.282 115.554 38.9228C115.587 38.8004 115.627 38.6861 115.668 38.5636C115.774 38.237 115.889 37.9187 116.003 37.6084C116.06 37.4533 116.117 37.3064 116.183 37.1594C116.24 37.0125 116.305 36.8655 116.37 36.7267C116.427 36.5879 116.493 36.4573 116.55 36.3267C116.779 35.8369 117.023 35.3797 117.277 34.947C117.326 34.8654 117.366 34.7837 117.415 34.7103C117.554 34.4735 117.693 34.2531 117.832 34.0327C119.171 31.9509 120.469 30.7916 120.469 30.7916C120.469 30.7916 120.828 31.0692 121.375 31.6243C122.452 32.7264 124.224 34.9144 125.228 38.1799C125.408 38.7596 125.563 39.38 125.685 40.0331C125.955 41.47 125.873 42.8333 125.555 44.0661V44.0579Z" fill="#B8E6FE"/>
        <path opacity="0.6" d="M125.555 44.0579C125.326 44.9233 124.983 45.7315 124.559 46.4254C123.767 47.7235 122.689 48.6705 121.579 49.0624C121.211 49.193 120.836 49.2665 120.469 49.2665C118.06 49.2665 115.236 46.2377 115.048 42.368C115.048 42.2619 115.048 42.1557 115.048 42.0578C115.048 41.5516 115.08 41.0536 115.162 40.5719C115.187 40.3923 115.219 40.2127 115.26 40.0331C115.35 39.6576 115.448 39.282 115.554 38.9228C115.587 38.8003 115.627 38.686 115.668 38.5636C115.774 38.237 115.889 37.9187 116.003 37.6084C116.06 37.4533 116.117 37.3064 116.183 37.1594C116.24 37.0125 116.305 36.8655 116.37 36.7267C116.427 36.5879 116.493 36.4573 116.55 36.3267C116.779 35.8369 117.023 35.3797 117.277 34.947C117.326 34.8654 117.366 34.7837 117.415 34.7103C117.554 34.4735 117.693 34.2531 117.832 34.0327C117.783 35.2736 117.701 43.6497 125.555 44.0661V44.0579Z" fill="#8ABFD6"/>
        <path opacity="0.6" d="M125.22 38.1716C119.187 36.9307 121.367 31.6161 121.367 31.6161C122.444 32.7182 124.216 34.9061 125.22 38.1716Z" fill="#EBF8FC"/>
        <path d="M121.579 49.0541C121.211 49.1848 120.836 49.2582 120.469 49.2582C117.595 49.2582 114.125 44.9477 115.26 40.0249C115.578 38.6534 116.044 37.4043 116.566 36.3022C116.566 36.3022 114.68 46.5723 121.579 49.0541Z" fill="#8ABFD6"/>
    </g>
</svg>
