<svg width="150" height="150" fill="none" xmlns="http://www.w3.org/2000/svg"><mask id="a" style="mask-type:alpha" maskUnits="userSpaceOnUse" x="0" y="0" width="150" height="150"><circle cx="75" cy="75" r="75" fill="#C4C4C4"/></mask><g mask="url(#a)"><path d="M75.567 153.814c42.864 0 77.611-35.286 77.611-78.814 0-43.528-34.747-78.814-77.61-78.814C32.703-3.814-2.044 31.472-2.044 75c0 43.528 34.747 78.814 77.61 78.814Z" fill="#E3F7FF"/><path d="M59.224 62.18c1.53-1.559 2.445-3.792 1.633-5.815-.458-1.195-1.378-2.079-2.445-2.753-3.365-2.234-7.852-2.234-11.675-.985-3.823 1.3-7.188 3.688-10.504 6.126 3.415-3.063 6.883-6.285 8.718-10.542 1.786-4.257 1.324-9.867-2.243-12.67-3.262-2.543-7.852-2.079-11.828-1.04-8.053 2.079-15.6 6.026-22.02 11.372C4.676 49.35-3.53 56.105-4.45 62.18h63.674ZM121.002 34.047c1.097-1.12 1.761-2.723 1.171-4.182-.33-.86-.989-1.494-1.761-1.978-2.421-1.604-5.643-1.604-8.394-.71-2.75.935-5.166 2.648-7.547 4.402 2.455-2.203 4.945-4.517 6.268-7.574 1.284-3.063.955-7.09-1.614-9.108-2.346-1.829-5.643-1.494-8.501-.745-5.79 1.494-11.212 4.332-15.827 8.174-3.006 2.503-8.905 7.354-9.564 11.721H121.002ZM143.845 69.354c.728-.74 1.161-1.798.777-2.763-.216-.569-.654-.989-1.161-1.308-1.599-1.06-3.729-1.06-5.545-.47-1.815.614-3.414 1.754-4.988 2.913 1.623-1.454 3.271-2.988 4.142-5.007.847-2.023.63-4.686-1.067-6.02-1.55-1.209-3.73-.989-5.619-.494-3.827.989-7.414 2.862-10.464 5.4-1.988 1.654-5.884 4.862-6.322 7.75h30.252-.005Z" fill="#FCFCFC"/><path d="M47.363 111.261c-8.111-9.756-31.394-2.013-38.74 3.375-8.422 6.182-13.64 14.265-17.044 23.312-.68 1.446-1.304 2.921-1.957 4.367-2.495 5.672-4.764 11.429-6.466 17.413-1.701 6.012-2.665 12.081-3.062 18.32-.199 3.148-.34 6.324-.908 9.415-.567 3.063-1.645 5.757-3.12 8.508-.623 1.191-1.276 2.411-1.588 3.744-.368 1.56-.255 3.148-.34 4.736-.142 2.807-.993 5.502-2.212 7.997-18.888 38.796-17.895 52.267-26.601 87.915-.284 1.106-.54 2.354.113 3.347.539.822 1.56 1.304 2.524 1.729A64.914 64.914 0 0 0-39.9 309.24c.936.198 1.928.368 2.864.17 1.305-.255 2.27-1.191 3.148-2.07 14.152-14.237 24.106-28.473 30.77-45.404a168.154 168.154 0 0 0 3.602-6.211c1.957-3.63 3.63-7.373 5.247-11.145 1.645-3.886 3.601-7.345 6.097-10.72 2.382-3.233 3.8-6.466 4.48-10.437.71-3.998 1.305-7.884 2.667-11.712 2.836-7.856 7.487-14.832 11.429-22.149 2.92-5.417 5.53-11.202 6.693-17.271 10.464-23.822 18.972-50.565 10.266-61.03Z" fill="#464558"/><path opacity=".29" d="M15.09 120.421c-.54 2.638-1.135 5.332-2.014 7.941-1.588 4.736-4.112 9.217-5.445 14.01-1.163 4.225-1.22 8.508 1.815 12.194 2.354 2.865 5.757 4.963 8.678 7.374 3.204 2.609 5.218 5.502 6.523 9.103 1.673 4.623 2.212 9.472 2.666 14.265.198 2.07.425 4.141.652 6.211 13.272-26.346 30.6-66.815 19.37-80.286-6.24-7.487-21.412-4.651-31.452-.511.34 3.262-.17 6.551-.794 9.699Z" fill="#2B2B37"/><path opacity=".29" d="M-33.888 307.311c14.152-14.236 24.106-28.473 30.77-45.403a168.988 168.988 0 0 0 3.602-6.211c1.957-3.63 3.63-7.374 5.247-11.146 1.645-3.885 3.601-7.345 6.097-10.719 2.382-3.233 3.8-6.466 4.481-10.437.709-3.998 1.304-7.884 2.666-11.712 2.836-7.856 7.487-14.832 11.429-22.149 2.92-5.417 5.53-11.202 6.693-17.271 10.266-23.369 18.66-49.573 10.663-60.406 0-.029-.028-.029-.028-.057a6.238 6.238 0 0 0-.398-.51c-.141-.171-.283-.312-.425-.482l-.142-.142a91.762 91.762 0 0 0-.482-.482c-.085-.085-.198-.171-.283-.256-.057-.056-.142-.113-.199-.17-.113-.085-.198-.17-.312-.227a.868.868 0 0 0-.198-.141c-.114-.086-.227-.142-.34-.227-.057-.057-.143-.085-.2-.142-.141-.085-.254-.17-.396-.227-.057-.028-.085-.057-.142-.085-.199-.114-.369-.199-.567-.312-.029-.028-.085-.028-.114-.057-.17-.085-.312-.142-.482-.227-.056-.028-.142-.056-.198-.085-.142-.056-.256-.113-.397-.17a1.958 1.958 0 0 1-.227-.085c-.142-.057-.255-.085-.397-.142l-.255-.085a2.309 2.309 0 0 0-.426-.113.853.853 0 0 0-.227-.057c-.142-.028-.312-.085-.453-.113-.057-.029-.142-.029-.2-.057-.198-.057-.396-.085-.623-.142h-.057c-.227-.057-.482-.085-.709-.113-.056 0-.085 0-.142-.029-.198-.028-.368-.056-.567-.085-.085 0-.142-.028-.227-.028-.17-.029-.34-.029-.51-.057-.085 0-.17-.028-.255-.028-.17-.029-.34-.029-.51-.029-.086 0-.17 0-.256-.028-.17 0-.34-.028-.539-.028h-.992c-.51 0-1.05 0-1.56.028h-.114c-.227 0-.453.028-.68.028h-.17c-.199 0-.397.029-.624.057-.057 0-.142 0-.199.028-.198.029-.397.029-.624.057-.056 0-.113 0-.17.029l-.68.085c-.029 0-.086 0-.114.028-.822.113-1.645.227-2.467.369h-.057c-.255.056-.51.085-.766.141-.028 0-.085.029-.113.029-.227.057-.454.085-.68.142-.058 0-.086.028-.143.028-.227.057-.482.113-.709.17-.028 0-.056.028-.113.028-.255.057-.539.114-.794.199a36.617 36.617 0 0 1 2.666 5.785c6.012 16.534-6.41 34.741-17.413 48.552-4.878 6.097-17.356 12.45-29.58 18.292-.141 2.297-.34 4.566-.737 6.835-.567 3.062-1.645 5.757-3.12 8.508-.623 1.191-1.276 2.41-1.587 3.743-.37 1.56-.256 3.148-.34 4.736-.142 2.808-.993 5.502-2.213 7.997a2.864 2.864 0 0 0-.198.426c6.352 1.078 12.365 2.325 13.783 3.233 6.38 3.999 9.699 10.777 8.904 17.356-2.098 17.555-23.992 23.397-39.902 25.325-3.034 12.251-4.963 24.304-9.188 41.575-.029.057-.029.142-.057.199-.028.085-.028.17-.057.255-.227.993-.34 2.014.227 2.893.199.312.454.567.766.794.312.227.652.425 1.02.595.256.114.483.227.738.341l1.447.595c.964.397 1.956.766 2.977 1.106.993.341 2.014.653 3.035.936.907.255 1.815.482 2.722.709.256.057.483.114.738.17.397.085.822.199 1.22.255.084.029.198.029.283.057.028 0 .085.029.113.029.823.141 1.645.255 2.44.085.17-.029.311-.085.481-.142.624-.199 1.135-.567 1.645-.964.255-.199.482-.426.71-.624a4.4 4.4 0 0 0 .481-.426Z" fill="#2B2B37"/><path opacity=".29" d="M46.257 144.754c-3.63 8.564-8.792 16.732-15.03 24.191-2.865 3.403-5.985 6.692-9.473 9.67-5.53 4.736-11.883 8.338-18.83 11.429-2.27 1.021-4.709 1.787-7.006 2.751-2.183.908-5.445 2.127-5.927 4.367C-11 201.615-3.4 203.969.286 205.5c.227.114.312.34.17.539-1.05 1.134-2.099 2.496-2.014 3.999.057 1.021.653 1.9 1.333 2.722 1.645 1.957 3.602 3.687 4.481 6.012 2.382 6.325-1.05 13.415-3.999 19.2-3.658 7.118-7.061 14.18-9.16 21.723a83.7 83.7 0 0 0-2.325 11.458c-.397 3.006-.568 6.012-.908 9.018a117.635 117.635 0 0 0 9.047-18.264 168.118 168.118 0 0 0 3.602-6.21c1.956-3.63 3.63-7.374 5.246-11.146 1.645-3.885 3.602-7.345 6.098-10.72 2.382-3.233 3.8-6.466 4.48-10.436.71-3.999 1.305-7.884 2.666-11.712 2.836-7.856 7.487-14.833 11.43-22.149 2.92-5.417 5.53-11.202 6.692-17.271 5.842-13.301 11.089-27.538 13.045-39.307.029-.085.029-.17.057-.283-.936 4.112-2.297 8.167-3.97 12.081Z" fill="#2B2B37"/><path d="M205.298 301.327c-2.637-10.833-5.303-21.666-7.94-32.5-2.383-9.755-4.481-17.214-6.41-23.141a51.179 51.179 0 0 0-2.382-7.515c-9.103-23.17-4.481-15.23-7.912-26.999-.624-2.184-1.503-4.311-2.694-6.239-1.163-1.9-2.61-3.63-3.886-5.473-1.276-1.844-2.297-3.772-2.807-5.984-.539-2.382-.511-4.85-.482-7.289.17-12.932-1.929-15.342-7.743-32.982-3.006-14.747-8.394-28.303-21.043-37.576-7.373-5.389-30.656-13.103-38.739-3.375-10.919 13.102 5.19 51.756 18.292 78.131a82.467 82.467 0 0 0 3.403 8.763c1.503 3.318 3.318 6.437 5.077 9.614 1.673 2.977 3.374 6.21 3.63 9.699.141 1.815-.369 3.601-.227 5.416.142 1.73.794 3.29 1.616 4.793.738 1.333 1.617 2.609 2.269 3.999.851 1.758 1.361 3.658 1.929 5.502 1.02 3.318 2.268 6.437 4.31 9.301 19.965 27.935 12.904 32.699 40.923 60.889.851.879 1.815 1.786 3.148 2.07.936.198 1.929.028 2.865-.17a64.922 64.922 0 0 0 12.138-3.801c.992-.425 2.013-.907 2.524-1.729.68-1.05.425-2.298.141-3.404Z" fill="#464558"/><path opacity=".25" d="M121.58 190.356a82.308 82.308 0 0 0 3.404 8.763c1.503 3.319 3.318 6.438 5.076 9.614 1.673 2.978 3.375 6.211 3.63 9.699.142 1.815-.369 3.602-.227 5.417.142 1.73.794 3.29 1.617 4.793.737 1.333 1.616 2.609 2.268 3.999.851 1.758 1.362 3.658 1.929 5.501 1.021 3.318 2.269 6.438 4.311 9.302 12.081 16.903 14.265 25.325 20.305 35.592.142.17.255.34.369.538a79.99 79.99 0 0 1-.057-2.637c-.057-3.205-.34-6.324-1.446-9.415-.993-2.78-2.496-5.389-3.517-8.168-.567-1.503-1.106-3.12-2.127-4.481-.766-.992-1.957-1.673-2.779-2.637-1.9-2.156-1.9-5.218-2.014-7.771-.17-3.063-.538-5.899-2.495-8.564-.312-.426-1.305-.936-2.694-1.475-4.226-1.645-7.062-5.672-7.232-10.21-.284-7.089-.539-12.875-.738-14.718-1.247-10.777-1.871-21.582-1.815-32.415.057-10.408.511-20.873 2.978-31.082 1.957-8.111 5.105-16.307 9.813-23.596.368-.538.737-1.134 1.134-1.701a44.284 44.284 0 0 0-3.063-3.573 9.506 9.506 0 0 0-.142-.142c-.312-.312-.595-.624-.907-.936l-.284-.284c-.255-.255-.539-.51-.822-.765-.114-.114-.227-.227-.369-.341l-.794-.709c-.142-.113-.255-.227-.397-.34-.283-.227-.567-.482-.851-.709-.113-.085-.255-.199-.368-.284-.426-.312-.823-.652-1.277-.964-2.183-1.588-5.785-3.403-9.954-4.906-.652-.227-1.333-.454-2.013-.681-.227-.085-.454-.141-.681-.227a26.835 26.835 0 0 0-1.39-.397c-.936-.255-1.9-.51-2.864-.709-2.893-.652-5.842-1.049-8.65-1.106h-1.389c-.454 0-.908.029-1.362.085-.68.057-1.332.142-1.985.227-1.73.284-3.318.766-4.736 1.475-.539.255-1.049.567-1.531.908a19.22 19.22 0 0 0-.936.709c-.454.368-.851.794-1.248 1.247-1.305 1.589-2.325 3.886-3.063 6.807-3.431 16.703 10.068 48.551 21.383 71.267Z" fill="#2B2B37"/><path opacity=".29" d="M130.259 198.269c.624-4.056 1.588-8.055 2.183-12.11.511-3.46.511-6.92.397-10.408-.113-3.346-.539-6.75.085-10.096.596-3.29 1.957-6.409 3.148-9.557 1.277-3.318 2.042-6.665 2.95-10.068 1.815-6.749 3.687-13.641 2.467-20.589-.822-4.764-2.921-9.217-5.814-13.329-10.011-4.367-26.006-7.629-32.443.085-13.273 15.967 13.499 69.85 26.147 93.218.227-2.354.511-4.764.88-7.146Z" fill="#2B2B37"/><path opacity=".25" d="M205.298 301.327c-2.637-10.833-5.303-21.666-7.94-32.5-2.383-9.755-4.481-17.214-6.41-23.141a51.229 51.229 0 0 0-2.382-7.516c-9.103-23.169-4.481-15.229-7.912-26.998-.624-2.184-1.503-4.311-2.695-6.239-1.162-1.9-2.609-3.63-3.885-5.473-1.276-1.844-2.297-3.772-2.807-5.984-.539-2.382-.511-4.85-.483-7.289.171-12.932-1.928-15.342-7.742-32.982-3.006-14.747-8.394-28.303-21.043-37.576l-.34-.256c-.028-.028-.085-.056-.113-.085a22.708 22.708 0 0 1-.256-.17c-.056-.028-.085-.057-.141-.085-.086-.057-.142-.113-.227-.142-.057-.028-.114-.056-.17-.113-.086-.057-.142-.085-.227-.142-.057-.028-.114-.085-.171-.113-.085-.057-.17-.086-.226-.142-.057-.029-.114-.085-.199-.114-.085-.056-.17-.085-.255-.141-.057-.029-.142-.086-.199-.114-.085-.057-.17-.085-.255-.142-.057-.028-.142-.085-.198-.113-.086-.057-.199-.114-.284-.17a13.463 13.463 0 0 0-.17-.085c-.17-.085-.312-.171-.482-.256a8.976 8.976 0 0 1-.17-.085 2.847 2.847 0 0 1-.312-.17c-.086-.028-.171-.085-.256-.113-.085-.057-.17-.085-.283-.142-.085-.028-.17-.085-.284-.114-.085-.028-.17-.085-.255-.113-.085-.057-.199-.085-.284-.142-.085-.028-.17-.085-.255-.113-.113-.057-.198-.085-.312-.142-.085-.028-.17-.085-.255-.113-.114-.057-.199-.086-.312-.142-.085-.029-.17-.057-.227-.114-.113-.056-.227-.085-.34-.141-.057-.029-.142-.057-.227-.086a1.993 1.993 0 0 0-.369-.141c-.057-.029-.085-.029-.142-.057a92.859 92.859 0 0 0-1.559-.596c-.029 0-.057-.028-.057-.028-.17-.057-.312-.113-.482-.17-.057-.029-.085-.029-.142-.057-.17-.057-.312-.113-.482-.17-.057-.028-.114-.028-.142-.057-.17-.056-.312-.113-.482-.17-.057-.028-.114-.028-.142-.057-.17-.056-.312-.113-.482-.141-.057-.029-.085-.029-.142-.057l-.51-.17c-.029 0-.057-.029-.085-.029a59.039 59.039 0 0 0-4.396-1.134c-.199-.057-.426-.085-.624-.142h-.028c-6.495-1.304-13.216-1.361-17.782 1.305h.085c6.721.737 13.698 2.921 18.944 6.551 3.801 2.609 7.034 6.04 9.87 9.387a64.068 64.068 0 0 1 7.912 11.797c4.538 8.764 6.438 18.094 7.26 27.566.936 10.606.227 21.241-1.872 31.706-.595 2.893-1.021 6.211 1.957 8.309 3.46 2.411 8.168 2.468 11.996 4.198 4.623 2.07 4.623 6.154 5.02 10.011.482 4.594 4.169 7.6 7.941 10.634 3.545 2.865 6.267 5.871 7.742 9.87 1.531 4.168 1.843 8.621 1.9 12.96.114 8.706-4.169 16.76-10.635 23.453-2.836 2.95-5.757 5.814-9.132 8.338-.056.057-.113.085-.17.142 5.36 8.167 11.798 15.881 19.483 23.595.227.227.426.425.681.652.567.539 1.219 1.021 1.985 1.276.142.057.312.086.482.142.823.17 1.673.057 2.496-.113l.34-.085c.539-.114 1.05-.227 1.56-.341 1.049-.255 2.07-.51 3.091-.794.511-.141 1.021-.312 1.532-.453a61.948 61.948 0 0 0 5.927-2.184c.368-.17.737-.312 1.106-.511.369-.198.68-.397.964-.652.199-.17.34-.34.482-.539a2.64 2.64 0 0 0 .369-.992c.085-.653-.085-1.475-.284-2.241Z" fill="#2B2B37"/><path d="M132.442 131.453a20.45 20.45 0 0 0-1.56-3.205c-3.97-6.749-3.346-18.547-3.346-18.547s-1.248-.822-8.423-2.836c-6.438-1.786-32.586-10.18-36.187-10.408L63.669 95.21c-3.601.256-29.862 9.87-36.328 11.656-5.7 1.588-7.658 2.439-8.225 2.723.88 5.672.284 11.514-.879 17.271-1.106 5.558-2.807 11.003-3.913 16.59-1.447 7.402-.624 11.486.17 14.861.85 3.63 2.892 11.258 2.977 11.627 3.063 11.996 6.154 38.938 3.574 48.608-.993 3.772-1.787 7.431-1.22 11.373.34 2.297 1.078 4.452 2.354 6.267 0 .936.029 1.872.029 2.836.056 4.254.255 8.536.368 12.847 2.836.369 7.345.369 7.856.993 1.56 1.871 9.87 9.755 39.987 10.237.936-.028 1.844-.028 2.751-.056.907.028 1.815.056 2.75.056 30.119-.482 38.457-8.366 39.988-10.237.737-.908 9.813-.511 10.125-1.759.368-1.446.709-2.864 1.02-4.282a146.003 146.003 0 0 1-.567-9.245c2.978-2.609 3.772-6.636 3.602-10.805a161.575 161.575 0 0 0-1.446-15.74c-1.957-13.386-1.362-11.174-.908-26.545.227-8.054.369-16.221 2.751-23.85 1.106-3.573 2.524-7.005 4.027-10.408.028-.227.085-.482.114-.737 1.02-6.863.113-12.847-2.184-18.037Z" fill="#575770"/><path opacity=".11" d="M132.442 131.453a20.45 20.45 0 0 0-1.56-3.205c-3.97-6.749-3.346-18.547-3.346-18.547s-1.248-.822-8.423-2.836a4.719 4.719 0 0 0-.312-.085c-.028 0-.085-.028-.113-.028-.086-.029-.142-.029-.227-.057-.057 0-.085-.028-.142-.057-.057-.028-.142-.028-.199-.056-.056-.029-.113-.029-.17-.057-.057-.029-.142-.029-.198-.057-.057-.028-.114-.028-.17-.057-.086-.028-.142-.056-.227-.056-.057-.029-.114-.029-.199-.057l-.255-.085c-.057-.029-.114-.029-.17-.057a4.719 4.719 0 0 0-.312-.085c-.057-.028-.114-.028-.142-.057-.113-.028-.227-.056-.369-.113-.028 0-.085-.028-.113-.028-.142-.029-.284-.086-.426-.114-.028 0-.056-.028-.085-.028-.34-.114-.709-.199-1.077-.312h-.029a3.349 3.349 0 0 0-.51-.142c-.057-.028-.142-.028-.199-.057-.141-.028-.255-.085-.397-.113-.056-.029-.113-.029-.17-.057-.113-.028-.255-.085-.369-.113-.085-.029-.141-.057-.226-.057a45.412 45.412 0 0 0-1.078-.34c-.028 0-.057-.029-.113-.029-2.014-.624-4.198-1.276-6.467-1.985h-.056l-.596-.17c-.057 0-.085-.028-.142-.028-.198-.057-.368-.114-.567-.171-.028 0-.028 0-.057-.028-.198-.057-.397-.113-.623-.198-.029 0-.086-.029-.114-.029-.198-.057-.369-.113-.567-.17.028.17.057.369.057.539.794 6.437.624 13.017-.227 19.483-1.673 12.563-6.693 25.325-17.158 33.096-9.812 7.288-22.716 8.848-34.542 7.884-8.735-.738-17.413-2.666-25.552-5.843-3.885-1.503-7.77-3.318-11.117-5.842v1.191c0 .114 0 .256.028.369v.142c0 .142.029.255.029.369v.113l.085.936v.085c.028.113.028.255.056.369 0 .028 0 .085.029.113.028.114.028.199.056.312 0 .028 0 .085.029.114.028.113.028.198.057.311 0 .029 0 .086.028.114.028.113.028.227.057.34v.057c.028.142.056.284.085.397v.057c.028.113.056.227.056.34 0 .028.029.085.029.113.028.086.028.171.056.256 0 .056.029.085.029.142.028.085.028.17.057.255 0 .028.028.085.028.113.028.085.028.17.057.255 0 .029.028.085.028.114l.085.34c.85 3.63 2.893 11.259 2.978 11.628 3.063 11.996 6.154 38.937 3.573 48.608-.992 3.772-1.787 7.43-1.22 11.372.341 2.297 1.078 4.453 2.355 6.268 0 .936.028 1.871.028 2.836.057 4.254.255 8.536.369 12.847 2.836.368 7.345.368 7.855.992 1.56 1.872 9.87 9.756 39.988 10.238.935-.028 1.843-.028 2.75-.057.908.029 1.815.057 2.751.057 30.118-.482 38.456-8.366 39.987-10.238.738-.907 9.813-.51 10.125-1.758.369-1.447.709-2.864 1.021-4.282a145.34 145.34 0 0 1-.567-9.246c2.977-2.609 3.772-6.636 3.601-10.805a161.584 161.584 0 0 0-1.446-15.739c-1.957-13.386-1.361-11.174-.907-26.545.226-8.054.368-16.222 2.75-23.85 1.106-3.574 2.524-7.005 4.027-10.408.029-.227.086-.482.114-.738 1.163-6.919.255-12.903-2.042-18.093Z" fill="#2B2B37"/><path opacity=".25" d="M71.894 263.07c.425 0 .85-.028 1.276-.028h.51c.908.028 1.815.056 2.751.056 29.693-.538 37.946-8.366 39.477-10.237l.085-.086s.028 0 .028-.028c.029-.028.057-.028.086-.057 0 0 .028 0 .028-.028.057-.028.085-.028.142-.057.056-.028.142-.028.198-.056.029 0 .057 0 .057-.029.057 0 .113-.028.17-.028.028 0 .057 0 .085-.028.085 0 .142-.029.227-.029h.028c.085-.028.199-.028.284-.028h.085c.085 0 .142-.029.227-.029h.113c.085 0 .171-.028.284-.028h.057c.113 0 .227-.028.34-.028h.114c.085 0 .17 0 .255-.029h.142c.085 0 .17 0 .255-.028h.113c2.553-1.645 5.048-3.375 7.516-5.105.028-.028.085-.056.113-.085 0-.028.028-.057.028-.113 0-.029.029-.057.029-.085a145.34 145.34 0 0 1-.567-9.246c2.977-2.609 3.771-6.636 3.601-10.805a161.584 161.584 0 0 0-1.446-15.739c-1.957-13.386-1.361-11.174-.908-26.545.085-3.034.171-6.069.341-9.103.312-5.02.907-9.983 2.382-14.747 1.021-3.347 2.354-6.551 3.715-9.728.085-.226.199-.453.284-.68.028-.227.085-.482.113-.738.255-1.729.397-3.374.425-4.991.086-4.821-.879-9.16-2.58-13.045-.085-.227-.199-.482-.284-.738a26.742 26.742 0 0 0-.766-1.588c-.141-.283-.312-.567-.482-.851-3.97-6.749-3.346-18.547-3.346-18.547h-.029s-.028 0-.028-.028c0 0-.028 0-.028-.028-.341-.171-1.503-.709-4.68-1.702h-.028c-.142-.028-.255-.085-.397-.113-.028 0-.028 0-.057-.029-.142-.028-.255-.085-.397-.113-.028 0-.028 0-.056-.029-.142-.028-.284-.085-.426-.113.454.142-.028 8.168.028 9.16.199 3.63.086 7.26-.397 10.862-.935 7.118-3.147 14.066-6.607 20.39-3.971 7.26-9.473 13.585-15.116 19.654-5.388 5.785-11.316 12.251-11.514 20.362-.028 1.248.085 2.524-.227 3.743-.227.965-.709 1.815-1.163 2.666-1.957 3.658-3.942 7.317-5.927 11.004-2.212 4.083-6.608 6.154-10.408 8.564a87.535 87.535 0 0 1-13.3 7.033c-9.927 4.226-20.505 6.608-31.197 7.232-.425.028-2.892.142-5.898.284.028.482.085.936.142 1.418.34 2.297 1.077 4.452 2.353 6.267 0 .936.029 1.872.029 2.836.028 1.078.028 2.127.056 3.205.086 3.204.227 6.409.312 9.642 2.836.369 7.346.369 7.856.993.142.17.34.397.624.68.284.284.624.596 1.05.936.226.17.453.34.708.539.51.369 1.135.766 1.844 1.163a33.766 33.766 0 0 0 4.48 2.127c.37.141.738.283 1.135.425 3.715 1.333 8.706 2.609 15.4 3.432.708.085 1.417.17 2.155.255 1.106.113 2.268.227 3.46.312 2.779.198 5.813.34 9.131.397.568-.142 1.05-.142 1.532-.142Z" fill="#2B2B37"/><path opacity=".25" d="M71.894 263.07c.425 0 .85-.028 1.276-.028h.511c.907.028 1.815.057 2.75.057 29.693-.539 37.946-8.367 39.477-10.238l.085-.085s.029 0 .029-.029c.028-.028.056-.028.085-.056 0 0 .028 0 .028-.029.057-.028.085-.028.142-.057.057-.028.142-.028.198-.056.029 0 .057 0 .057-.029.057 0 .114-.028.17-.028.029 0 .057 0 .085-.028.085 0 .142-.029.227-.029h.029c.085-.028.198-.028.283-.028h.085c.085 0 .142-.028.227-.028h.114c.085 0 .17-.029.283-.029h.057c.113 0 .227-.028.34-.028h.114c.085 0 .17 0 .255-.029h.142c.085 0 .17 0 .255-.028h.113c2.553-1.645 5.048-3.375 7.516-5.105.028-.028.085-.056.113-.085 0-.028.028-.056.028-.113 0-.028.029-.057.029-.085a145.308 145.308 0 0 1-.567-9.245c2.977-2.61 3.772-6.637 3.601-10.805a161.575 161.575 0 0 0-1.446-15.74c-1.957-13.386-1.361-11.174-.908-26.545.086-3.034.171-6.069.341-9.103.312-5.02.907-9.983 2.382-14.747 1.021-3.347 2.354-6.551 3.715-9.727.085-.227.199-.454.284-.681.028-.227.085-.482.113-.737.255-1.73.397-3.375.426-4.992.085-4.821-.88-9.16-2.581-13.045-.085-.227-.199-.482-.284-.737a27.056 27.056 0 0 0-.765-1.589 12.64 12.64 0 0 0-.483-.85c-3.97-6.75-3.346-18.548-3.346-18.548s-.028-.028-.085-.028c-.255-.142-1.22-.596-3.857-1.446.482.142.766 5.927.822 6.636.227 2.184.397 4.367.624 6.579.539 4.935.936 9.926.426 14.889-1.503 14.804-10.635 27.509-19.597 39.477-3.828 5.104-7.799 10.606-8.394 17.101-.284 3.006.198 6.068-.057 9.075-.88 9.869-9.444 14.917-17.13 19.001-7.968 4.253-16.561 7.146-25.353 8.933-8.14 1.673-22.716 3.318-34.088 3.857.368.851.794 1.673 1.304 2.439 0 .936.029 1.871.029 2.836.028 1.077.028 2.127.056 3.204.085 3.205.227 6.41.312 9.643 2.836.368 7.345.368 7.856.992.142.17.34.397.624.681.283.283.624.595 1.05.936.226.17.453.34.708.538.51.369 1.135.766 1.843 1.163a33.641 33.641 0 0 0 4.481 2.127c.369.142.738.284 1.135.426 3.715 1.332 8.706 2.609 15.4 3.431.708.085 1.417.17 2.154.255 1.106.114 2.27.227 3.46.312 2.78.199 5.814.341 9.132.397.596-.17 1.078-.17 1.56-.17Z" fill="#2B2B37"/><path d="M77.594 129.751c-.879-1.077-2.098-1.928-3.147-2.836a205.972 205.972 0 0 0-3.8-3.176c-2.496-2.098-4.992-4.225-7.318-6.523-3.516-3.431-6.778-7.288-8.904-11.712-1.589.397-3.262.936-4.992 1.56 2.666 5.331 5.7 10.549 8.962 15.541 1.56 2.382 3.176 4.764 4.991 7.005 1.758 2.183 3.687 4.339 6.04 5.87a9.273 9.273 0 0 0 3.149 1.305c.056-.312.141-.596.198-.908.057-.227.369-.113.34.085-.056.284-.141.567-.198.851 1.276.17 2.58 0 3.829-.681 2.552-1.333 2.495-4.339.85-6.381Z" fill="#575770"/><path opacity=".25" d="M101.501 101.675c-1.049 2.071-4.112 10.011-5.416 11.968-1.588 2.439-3.403 4.651-5.077 7.033-1.474 2.071-2.892 4.169-4.48 6.183-1.617 2.07-3.375 4.112-5.474 5.7-.624.454-1.276.879-1.985 1.219-.425 1.844-2.184 3.007-4.056 3.347a6.734 6.734 0 0 1-2.127.057c-2.24 9.358-7.09 17.923-12.364 25.977-4.963 7.572-10.408 14.86-15.485 22.461-5.105 7.685-9.444 15.881-12.223 24.871-1.56 4.992-2.666 10.125-3.772 15.258a1011.705 1011.705 0 0 0-3.431 16.618c-.624 3.205-1.248 6.381-1.617 9.643 2.723.227 6.04.312 6.495.85.397.511 1.304 1.418 2.95 2.525.112-3.375.51-6.722 1.218-10.011 5.105-24.021 23.426-51.416 38.74-77.309 19.795-33.549 36.244-63.213 28.104-66.39Z" fill="#2B2B37"/><path opacity=".25" d="M128.103 118.748c-.765-5.048-.539-9.047-.539-9.047s-1.247-.822-8.422-2.836c-4.992-1.389-21.78-6.721-30.77-9.16-4.283 6.324-10.92 3.29-15.287 4.254-7.628-1.701-12.705 2.524-12.705 2.524-3.687.255-7.77-6.55-12.677-4.594 3.545 7.232 10.153 14.463 21.866 12.507 13.017-2.184 51.104 1.616 58.534 6.352Z" fill="#2B2B37"/><path opacity=".25" d="M75.58 109.758c2.241-.425 4.425-1.078 6.665-.283 1.135.425 2.212.964 3.375 1.276 1.447.34 2.921.51 4.396.567 6.636.255 15.172-1.503 17.98-7.771-6.636-2.042-14.463-4.424-19.682-5.842-4.282 6.324-10.918 3.29-15.285 4.254-7.63-1.701-12.706 2.524-12.706 2.524-3.687.255-7.77-6.55-12.676-4.594 5.615 3.942 12.903 7.26 20.787 10.011 2.44.312 4.821.312 7.147-.142ZM70.135 139.904c-8.337 4.112-15.087 17.044-21.184 26.091-15.201 22.631-24.078 49.885-26.8 66.503 0 2.156.028 4.34.056 6.523.029 2.382.114 4.765.199 7.147.822 1.645 2.099 2.864 3.829 2.864 2.467.028 4.253-2.439 5.473-4.708 8.196-15.314 10.068-33.152 16.222-49.033 3.204-8.253 7.544-15.91 12.166-23.284 3.148-5.019 7.26-9.585 8.82-15.37.596-2.241 6.41-19.285 1.22-16.733ZM50.369 104.682s5.303 11.911 10.635 18.49c5.36 6.608 11.826 12.705 11.826 12.705l8.224-3.318s-9.614-3.346-16.278-9.614c-6.665-6.239-14.407-18.263-14.407-18.263Z" fill="#2B2B37"/><path d="M71.27 146.626c.993-1.05 2.042-2.042 3.063-3.063a162.514 162.514 0 0 0 7.118-7.516c-21.043-13.244-23-18.83-35.648-39.306-.17-.255.992 28.019 25.467 49.885Z" fill="#2B2B37"/><path d="M72.886 130.347a25.169 25.169 0 0 1-1.644 3.659c-1.447 2.609-3.29 5.104-5.502 7.146a72.623 72.623 0 0 0 5.558 5.474c.993-1.05 2.042-2.042 3.063-3.063a163 163 0 0 0 7.118-7.515 150.581 150.581 0 0 1-8.593-5.701Z" fill="#21212B"/><path d="M99.857 99.548c-2.95 11.571-71.297 73.707-77.65 136.665 0 .936.029 1.872.029 2.808.057 4.481.284 8.99.397 13.528h7.97c0-5.105.907-10.21 2.693-14.946 7.317-19.37 34.457-71.211 42.483-82.526 26.431-37.492 28.246-55.529 24.078-55.529Z" fill="#2B2B37"/><path d="M66.165 146.824c-6.948 7.827-12.762 16.817-17.129 26.573-.34.737-.652 1.503-.624 2.297.028.794.567 1.645 1.333 1.73.51.057 1.02-.198 1.446-.51 3.403-2.241 5.53-6.041 7.232-9.813 1.134-2.467 2.155-4.991 3.545-7.317 1.361-2.325 3.318-3.998 4.878-6.125 1.02-1.418 1.333-2.638 1.56-4.368.227-1.758.113-5.133-2.24-2.467Z" fill="#2B2B37"/><path opacity=".25" d="M56.75 124.42c1.957 2.808 3.006-.567 2.212-2.524-.68-1.645-1.844-3.46-3.233-4.623-.993-.822-1.928-1.276-2.326.227-.623 2.326 2.184 5.218 3.347 6.92ZM89.023 120.024c1.503-1.843-.964-1.928-2.098-1.021-.965.766-1.957 1.9-2.44 3.063-.368.823-.481 1.56.596 1.532 1.645 0 3.063-2.468 3.942-3.574ZM77.31 129.241a656.544 656.544 0 0 0-9.358 11.854c.227.539.794.823 1.928.681 3.687-.454 6.268-6.324 7.998-9.075 1.531-2.326.794-3.347-.568-3.46Z" fill="#464557"/><path opacity=".14" d="M22.605 116.054c-.142 2.098 1.503 4.367 3.601 4.14 3.262-.34 12.082-7.997 9.558-10.805-3.177-3.516-12.933 3.432-13.16 6.665ZM98.212 128.674c-.624-.369-4.424 2.098-2.439 3.686 1.163.908 3.091 0 3.148-2.07 0-.624-.199-1.304-.709-1.616Z" fill="#D8D8D8"/><path d="M105.844 121.335c-.318 5.741 2.157 11.279 5.245 16.187 3.775 5.98 20.196 24.434 8.166 33.725-1.656 1.283-3.737 2.056-5.165 3.566-2.294 2.43-2.306 6.131-1.29 9.216 1.01 3.031 12.401 18.972-1.921 31.476l-8.249-6.839c10.738-2.779 11.043-10.564 9.296-17.099-1.799-6.671-6.651-12.35-2.746-16.326 1.843-1.87 7.009-2.359 8.246-4.669 8.963-16.656-20.607-8.918-21.845-31.102-.3-5.538 1.17-11.018 2.689-16.379 5.032-17.729-.613-19.257-6.359-24.865-3.982-3.879-6.49-9.183-6.593-14.633-.103-5.45 2.243-10.981 6.515-14.656-3.755 26.356 15.63 23.583 14.011 52.398Z" fill="#74A352"/><path d="M99.058 95.746c-.491-.414-.98-.811-1.488-1.206-4.03-3.233-7.915-6.499-10.276-11.07-.692-1.32-1.182-2.676-1.561-4.062.83-3.96 2.939-7.706 6.104-10.435-2.038 14.216 2.707 19.958 7.22 26.773Z" fill="#568040"/><path d="M91.743 81.789c-1.43-2.35-2.918-5.086-3.911-7.941a18.685 18.685 0 0 1 4.001-4.91c-.797 5.645-.544 9.943.332 13.52-.134-.217-.286-.433-.422-.67Z" fill="#3E5C2E"/><path opacity=".49" d="M111.528 138.173c2.788 4.138 9.757 12.651 11.607 20.616-4.551-9.301-33.633-11.305-17.195-41.644a53.172 53.172 0 0 1-.096 4.19c-.318 5.741 2.157 11.279 5.245 16.187.111.168.223.352.353.535.022.033.064.083.086.116Z" fill="#AED888"/><path d="M103.808 115.682c-1.406 4.211-4.28 7.802-6.662 11.628.368-1.405.755-2.813 1.143-4.221 3.189-11.269 2.069-15.998-.644-19.378a13.658 13.658 0 0 1 3.113 1.722c1.944 1.464 3.39 3.581 3.638 5.923.162 1.46-.125 2.929-.588 4.326Z" fill="#3E5C2E"/><path opacity=".49" d="M110.817 141.818c-3.081-2.721-4.664-5.857-3.86-9.902a9.62 9.62 0 0 1 .468-1.54c.956 2.485 2.242 4.885 3.664 7.147 1.287 2.026 4.029 5.51 6.623 9.578-2.278-1.805-4.739-3.377-6.895-5.283Z" fill="#AED888"/><path d="M141.003 216.59c-5.167 1.424-13.253-4.433-10.328-15.661 6.064-23.323 5.948-31.903 1.805-46.174-2.515-8.668-.842 5.399-.842 5.399s.646 15.001-.042 19.919c-.67 4.919-3.143 18.432-3.53 22.929-.388 4.497.449 9.995 3.136 12.076 2.67 2.061 9.801 1.512 9.801 1.512Z" fill="#74A352"/><path d="M95.725 113.284c-5.171 31.758 21.912 25.252 29.51 30.252 1.812 1.201 3.268 2.881 4.445 4.75a23.151 23.151 0 0 1 2.87 6.72c.88 3.47.947 7.103.865 10.696-.184 9.02-1.144 18.05-3.245 26.796-3.717 15.566-2.397 16.316 8.51 28.41-9.608-3.692-11.111-10.55-10.997-18.297.111-7.572 13.679-63.243-15.1-58.399-1.129.276-2.202.475-2.609.567-15.396 3.249-28.227-7.013-17.906-34.303 2.461-6.538 8.622-21.263-.07-30.354 10.243 4.59 5.245 23.791 3.727 33.162Z" fill="#3E5C2E"/><path d="M112.583 144.231c-1.129.276-2.202.475-2.609.567-1.647.347-3.255.54-4.824.559.762-.493 1.525-1.005 2.325-1.478 1.934-1.155 4.292-2.324 6.757-3.163 4.512.809 8.678 1.266 11.003 2.801 1.812 1.201 3.268 2.881 4.445 4.75a23.142 23.142 0 0 1 2.871 6.72c.88 3.47.946 7.103.865 10.695-.185 9.021-1.145 18.051-3.246 26.797-3.717 15.566-2.397 16.316 8.51 28.41-9.608-3.693-11.111-10.551-10.997-18.297.13-7.533 13.679-63.204-15.1-58.361ZM95.724 113.284c-3.394 20.864 7.11 25.205 16.887 27.161-7.876 2.53-15.86 1.988-22.457-3.484-2.68-5.713-2.646-14.426 1.913-26.465 2.462-6.539 8.623-21.263-.07-30.354 10.243 4.57 5.245 23.771 3.727 33.142Z" fill="#568040"/><path d="M96.27 105.002a58.78 58.78 0 0 1-1.289 5.684c-1.06 3.658-2.835 6.901-5.013 9.927-.356.479-.733 1.093-1.165 1.706.541-3.51 1.605-7.458 3.246-11.823 1.144-3.02 3.049-7.769 3.942-12.897.541 2.518.753 4.859.278 7.403Z" fill="#3E5C2E"/><path d="M103.067 137.584c-3.274-.91-6.709-2.266-8.851-5.171-2.56-3.471-2.666-8.341-.902-12.222.494-1.095 1.17-2.072 1.92-3.01-1.076 12.468 3.562 18.032 9.618 20.869a31.401 31.401 0 0 1-1.785-.466Z" fill="#74A352"/><path d="M130.792 153.864c1.536 5.661.886 15.024.076 20.849.75-15.989-2.963-32.206-18.211-30.5 5.833-4.585 15.734.812 18.135 9.651Z" fill="#3E5C2E"/><path d="M82.987 46.65h3.946c.048.157.09.314.09.489" fill="#323147"/><path d="M47.154 72.009s-3.036 2.776-3.657 5.415c-.596 2.638 2.777 6.752 2.777 6.752l4.596-2.693-3.716-9.474Z" fill="#75A152"/><path d="M100.582 72.888s3.036 4.481 1.928 10.24c-1.109 5.758-5.982 7.15-5.982 7.15l-1.644-2.44 5.698-14.944v-.006Z" fill="#568040"/><path d="M89.354 88.489c.054 5.161-6.95 9.414-15.625 9.528-8.68.115-15.77-3.97-15.8-9.131-.03-5.162 6.952-9.414 15.626-9.529 8.65-.114 15.739 3.97 15.8 9.132Z" fill="#21212B"/><path d="M47.093 50.68a76.629 76.629 0 0 0-.283 4.536c-.084 2.355-.114 4.71.085 7.06.795 8.962 5.132 17.1 10.523 23.791a95.175 95.175 0 0 1-2.47-15.51c-.229-3.12-.313-6.294.114-9.384.627-4.566 2.356-8.878 3.12-13.414.398-2.355.543-4.734.681-7.12.145-2.439.283-4.878.452-7.318.169-2.92-1.277-5.445-3.572-2.867-1.614 1.79-3.006 3.855-4.198 6.011a37.356 37.356 0 0 0-4.452 14.21v.005ZM97.89 50.06c.198 1.506.283 3.006.367 4.535.114 2.356.199 4.71.054 7.06-.626 8.992-4.795 17.244-10.041 24.05a95.714 95.714 0 0 0 2.156-15.6c.169-3.12.2-6.294-.283-9.384-.71-4.535-2.524-8.794-3.373-13.33-.452-2.324-.65-4.71-.825-7.089l-.596-7.318c-.23-2.921 1.162-5.475 3.517-2.951 1.645 1.758 3.09 3.77 4.313 5.896a37.88 37.88 0 0 1 4.704 14.125l.007.006Z" fill="#2B2B37"/><path d="M100.895 46.97c-.199-1.078-.711-2.126-1.53-2.668-1.192-.795-2.21-.765-3.066-.169-2.355-15.317-12.023-26.743-23.51-26.599-11.486.145-20.93 11.824-22.973 27.195-.88-.566-1.897-.566-3.066.253-.819.566-1.307 1.645-1.5 2.723-.168 1.078-.06 2.186.055 3.258.481 3.94 1.246 7.855 2.325 11.655.198.711.397 1.392.765 2.012.71 1.133 1.987 1.79 3.204 1.645.115-.03.229-.03.343-.055 3.97 11.09 12.138 18.63 21.468 18.522 9.33-.115 17.36-7.885 21.1-19.058.115.03.23.055.338.055 1.222.114 2.5-.567 3.18-1.73.367-.626.566-1.33.735-2.011a77.143 77.143 0 0 0 2.102-11.715c.115-1.133.199-2.24.03-3.319v.006Z" fill="#D58500"/><path d="M87.451 30.093a75.96 75.96 0 0 1 4.993 1.789c-4.367-8.764-11.57-14.438-19.684-14.348-11.487.145-20.932 11.824-22.974 27.195-.88-.566-1.903-.566-3.066.253-.825.566-1.307 1.645-1.506 2.723-.168 1.078-.054 2.186.06 3.258.284 2.41.681 4.795 1.193 7.144a16.218 16.218 0 0 1 1.645-.88 24.828 24.828 0 0 1 2.867-1.162C52.027 35.22 64.363 22.461 87.45 30.087v.006ZM71.796 51.475s10.806-1.048 18.89 1.109c8.053 2.156 8.962 2.47 8.962 2.47l-1.843 5.697-26.01-9.276Z" fill="#B45F00"/><path opacity=".36" d="M100.895 46.97c-.198-1.078-.71-2.126-1.53-2.668-1.192-.795-2.21-.765-3.066-.169a42.677 42.677 0 0 0-2.21-8.595c-.054-.115-.085-.229-.145-.343a31.89 31.89 0 0 0-.933-2.241c-.055-.145-.115-.253-.169-.398a3.016 3.016 0 0 0-.283-.536c-.084-.144-.145-.283-.229-.427-.084-.169-.169-.344-.283-.512-.084-.145-.145-.283-.229-.428-.084-.169-.199-.337-.283-.512-.084-.144-.169-.283-.253-.428-.084-.168-.199-.313-.283-.482-.084-.144-.169-.283-.253-.427-.085-.145-.199-.313-.283-.452-.085-.144-.2-.283-.283-.428-.085-.144-.2-.283-.284-.427-.114-.145-.198-.283-.313-.428-.084-.144-.198-.253-.283-.397a3.012 3.012 0 0 0-.367-.452 12.71 12.71 0 0 0-.88-1.078c-.06-.055-.114-.145-.168-.2-.169-.198-.344-.366-.512-.535-.085-.084-.169-.169-.26-.253-.138-.145-.282-.283-.427-.452-.084-.084-.199-.169-.283-.283a4.353 4.353 0 0 0-.428-.398c-.084-.084-.199-.168-.283-.252-.144-.145-.283-.253-.428-.368-.114-.084-.198-.168-.313-.253a29.861 29.861 0 0 1-.452-.367c-.084-.085-.198-.145-.283-.23-.168-.114-.313-.228-.481-.336-.085-.055-.2-.145-.284-.2a24.594 24.594 0 0 0-.512-.337c-.084-.054-.168-.114-.259-.168-.198-.115-.397-.253-.62-.368-.06-.03-.115-.084-.169-.114a22.492 22.492 0 0 0-1.644-.85c-.03-.03-.085-.03-.115-.053-.229-.115-.482-.2-.71-.284l-.23-.084c-.198-.084-.427-.145-.626-.229a3.37 3.37 0 0 0-.283-.084c-.199-.054-.397-.115-.596-.169-.084-.03-.199-.054-.283-.084-.199-.054-.398-.084-.596-.145-.06 0-.115-.03-.145-.03h.03a18.924 18.924 0 0 0-3.8-.397c-11.488.144-20.932 11.823-22.974 27.195-.88-.566-1.904-.566-3.066.253-.825.566-1.307 1.644-1.506 2.722-.169 1.078-.054 2.187.054 3.259.283 2.41.68 4.794 1.193 7.143a15.566 15.566 0 0 1 1.644-.879 28.656 28.656 0 0 1 4.283-1.614c.963-.283 1.957-.566 2.951-.765v-.253c-1.445-45.632 64.126-19.624 26.913 12.932-2.554 2.24-5.728 3.547-8.764 4.794-3.656 1.53-7.626 2.921-11.571 3.066-1.903.054-3.77-.229-5.644-.65 4.367 6.27 10.469 10.125 17.16 10.04 9.331-.114 17.36-7.884 21.101-19.057.114.03.229.054.337.054 1.223.114 2.5-.566 3.18-1.729.368-.626.567-1.33.736-2.011a77.268 77.268 0 0 0 2.102-11.716c-.06-1.246.03-2.355-.145-3.433h.018Z" fill="#B45F00"/><path d="M100.895 46.97c-.199-1.078-.711-2.126-1.53-2.668-1.192-.795-.427-2.47-1.307-1.898-.512-3.234-2.355-5.98-4.596-8.282l-3.036-.65c6.578 8.083 7.716 20.955 1.988 29.068-1.957 2.753-2.47 1.416-5.385 2.578-1.048.428-2.156.68-3.265.934-.481.512-.963.963-1.505 1.415-2.579 2.187-5.729 3.548-8.765 4.795-3.662 1.53-7.631 2.921-11.57 3.066-1.898.054-3.771-.23-5.645-.65 4.367 6.27 10.463 10.124 17.155 10.04 9.33-.115 17.36-7.885 21.1-19.058.115.03.23.054.344.054 1.216.115 2.493-.566 3.174-1.728.367-.627.566-1.331.735-2.012a77.143 77.143 0 0 0 2.102-11.715c.084-1.108.169-2.21 0-3.289h.006Z" fill="#B45F00"/><path opacity=".36" d="M81.5 51.505c-1.362-.963-.994-10.492-.91-10.775l-1.873-.71c-3.09 6.522-3.175 10.178-3.175 16.051 0 .452 2.072.536 2.241.964.144.397.367.735.596 1.048.65.825 1.56 1.506 2.524 1.56.994.054 2.042-.596 2.325-1.675.085-.397.085-.795.054-1.192-.168-1.729-1.59-5.132-1.789-5.277l.007.006Z" fill="#B45F00"/><g opacity=".36" fill="#E2A040"><path opacity=".36" d="M66.893 33.755c0 .283.084.566.228.825.368.71 1.018 1.193 1.7 1.506.168.084.367.145.565.114 1.79-.229-.427-2.668-1.048-2.975-.566-.283-1.415-.452-1.445.536v-.006ZM59.038 44.386c.199-.398.964-.428 1.277-.343.367.084.825.114.91.626.054.512-.398.795-.796.795-.313 0-1.132-.144-1.307-.482-.138-.253-.168-.451-.084-.596ZM81.698 45.326c0-.428.65-.88.994-.994.368-.115.765-.337 1.048.054.283.428 0 .91-.337 1.108-.259.169-1.048.482-1.361.283-.253-.114-.338-.283-.338-.451h-.006ZM57.586 50.795c.344.03.681-.199.88-.482.084-.145.169-.283.169-.452a.64.64 0 0 0-.055-.229c-.229-.596-1.108-.71-1.53-.337-.626.482-.114 1.476.536 1.506v-.006ZM89.776 50.259c.343.03.68-.199.88-.482.084-.145.168-.283.168-.452a.641.641 0 0 0-.054-.229c-.229-.596-1.108-.71-1.53-.337-.596.452-.084 1.476.536 1.506v-.006Z"/></g><path opacity=".36" d="M71.314 44.5c-2.169-6.378-10.3-5.685-14.18-4.48-1.62.505-2.011.577-1.638 1.174 10.957 1.391 13.318 3.246 13.318 6.878 0 4.451-3.602.765-22.118 7.8l2.807 9.445a210.674 210.674 0 0 0 8.933-3.77c10.92-4.91 16.107-6.494 12.878-17.046Z" fill="#B45F00"/><path d="M68.808 38.712c-.759-.343-6.68-1.536-13.143 1.656-.054.013-.108.025-.163.06-.03 0-.054.037-.072.073l-.054.012c-.133.054-.048.355.084.271.078-.042.187-.096.26-.138 6.227-2.018 8.986 2.096 12.703 1 1.283-.392 1.897-2.277.385-2.934Z" fill="#323147"/><path opacity=".36" d="M87.433 42.507a4.235 4.235 0 0 0-.295.078c-1.723.542-5.205 1.163-6.813.271-1.867-1.012-2.066-2.265-1.229-2.692.253-.12 2.006-.603 2.265-.572 1.102.114 2.277-.09 3.343.132 1.036.21 1.994-.265 2.976.109 1.65.608 3.33 1.222 4.879 2.03.204.102.373.222.488.409.018.036.054.108.036.163-.012.204-.271.265-.428.27-1.108 0-2.12-.56-3.222-.584-.663.006-1.332.2-1.994.386h-.006Z" fill="#B45F00"/><path d="M79.795 42.127c3.626 1.428 6.662-2.463 12.692.09.078.043.186.097.259.163.126.085.24-.186.108-.265l-.048-.036c-.024-.036-.018-.06-.042-.066-.055-.012-.109-.048-.163-.06-6.21-3.717-12.15-3.048-12.957-2.771-1.542.512-1.054 2.451.151 2.945Z" fill="#323147"/><path fill-rule="evenodd" clip-rule="evenodd" d="M54.75 44.187a.427.427 0 0 1 .602.018c.8.856 1.542 1.23 2.283 1.404.65.156 1.307.156 2.054.162h.385c.892.006 1.886.055 2.988.422s2.295 1.054 3.614 2.3a.433.433 0 0 1 .018.603.428.428 0 0 1-.602.018C64.845 47.94 63.76 47.325 62.79 47c-.97-.325-1.855-.373-2.723-.38h-.367c-.741 0-1.506 0-2.26-.186-.909-.217-1.794-.68-2.704-1.65a.427.427 0 0 1 .018-.603l-.006.006ZM91.565 44.549a.422.422 0 0 1-.018.602c-.964.91-1.88 1.325-2.795 1.488-.765.132-1.53.09-2.271.048l-.367-.018c-.868-.042-1.753-.048-2.741.217-.988.265-2.108.813-3.422 1.915a.422.422 0 0 1-.596-.054.422.422 0 0 1 .054-.596c1.398-1.169 2.62-1.783 3.747-2.085 1.12-.3 2.108-.289 3.006-.246l.385.018c.747.042 1.398.078 2.06-.037.747-.132 1.512-.463 2.362-1.264a.422.422 0 0 1 .602.018l-.006-.006Z" fill="#323147"/><path opacity=".36" d="M66.778 47.79c-1.048-3.32-6.975-2.868-4.65-3.832.253-.084 4-.198 4.65 3.831Z" fill="#B45F00"/><path d="M56.737 78.73c-.199-.144-3.662-1.047-3.662-.825 0 .223 2.722 7.825 2.921 8.138.199.313 5.3 4.337 5.3 4.337s3.266-2.922 3.266-3.15c0-.23-.398-2.609-.398-2.609l-7.427-5.896v.006Z" fill="#21212B"/><path d="M97.522 73.822c1.674-4.253 2.837-17.642 2.837-17.642-27.563-6.975-27.057-6.975-54.452.68 0 0 .421 3.885 1.078 8.114.542 1.048 1.193 2.096 1.675 3.09.933 1.873 1.903 3.686 2.806 5.559.795 1.644 1.615 3.258 2.554 4.819.085.114.2.229.283.337 2.723 3.319 6.662 5.39 10.264 7.234 1.247.626 2.494 1.108 3.747 1.415 3.915.055 8-.03 11.884-.198 4.054-.735 8.114-1.79 11.825-3.801 1.5-.825 2.806 1.475 1.674 2.493 1.903-.343 3.518-.71 4.68-1.162l-.054-4.65c-1.193-1.59-1.927-3.373-.795-6.294l-.006.006Z" fill="#464558"/><path d="M97.522 73.822c1.674-4.253 2.837-17.642 2.837-17.642-12.902-3.259-19.654-5.018-25.98-5.162a35.57 35.57 0 0 1-.909 2.951c-.88 2.38-2.156 4.71-4.053 6.379-2.187 1.957-5.247 3.066-8.138 3.035-4.307-.054-6.156-4.282-6.21-9.077a2692.33 2692.33 0 0 1-9.192 2.554s.427 3.885 1.078 8.114c.542 1.048 1.193 2.096 1.674 3.09.934 1.873 1.898 3.686 2.807 5.559.795 1.644 1.615 3.259 2.554 4.819.085.114.2.229.283.337 2.723 3.319 6.668 5.39 10.27 7.234 1.247.626 2.494 1.108 3.747 1.415 3.915.055 8-.03 11.884-.198 4.054-.735 8.114-1.79 11.825-3.801 1.5-.825 2.806 1.476 1.674 2.493 1.903-.337 3.518-.71 4.68-1.162l-.054-4.65c-1.163-1.59-1.903-3.373-.765-6.294l-.012.006Z" fill="#323147"/><path d="M48.684 68.07c.933 1.873 1.903 3.686 2.806 5.559.796 1.644 1.615 3.258 2.554 4.819.085.114.2.228.284.337 2.722 3.319 6.661 5.39 10.264 7.234 1.246.626 2.5 1.108 3.746 1.415 1.705.03 3.403.03 5.132 0-.144-.054 4.253-2.47 4.114-2.523-3.686-1.53-16.42 2.523-23.594-18.347A55.074 55.074 0 0 1 51.52 56.1l-.084-.765a373.49 373.49 0 0 1-5.53 1.53s.422 3.885 1.079 8.114c.566 1.078 1.223 2.096 1.705 3.09h-.006Z" fill="#2B2B37"/><path d="M74.518 87.41a.596.596 0 0 0 .145-.229c.825-1.216 1.446-2.578 1.705-4.053.283-1.645.114-3.319-.23-4.91-.313-1.475-.794-2.92-.909-4.426-.114-1.331.229-2.608.741-3.855.512-1.217 1.163-2.355 1.506-3.632.253-.994.398-2.042.313-3.066-.054-1.048-.337-2.186-1.108-2.951-.65-.681-2.072-1.277-2.952-.651-.74.512-.825 1.705-.91 2.524-.114 1.108-.313 2.156-.794 3.174-.543 1.193-1.332 2.24-2.042 3.319-.826 1.247-1.53 2.578-1.844 4.053-.65 2.892.17 5.644 1.645 8.114 1.132 1.873 2.44 3.77 2.975 5.927.06.229.085.427.145.65.566.03 1.108.03 1.614 0v.012Z" fill="#2B2B37"/><path d="M97.522 73.822c1.674-4.253 2.837-17.642 2.837-17.642.03-.368-11.938-2.976-13.246-3.259-3.066-.68-6.439-1.59-9.583-1.699.03 2.669-.765 6.463 1.789 8.367.512.367 1.108.626 1.614.964 2.952 1.957 2.554 6.324.314 7.74-.91.566-2.386.879-1.362 2.378.536.765 1.362 1.332 2.042 1.928.566.482 1.247 1.048 1.446 1.813.144.596.03 1.193-.253 1.698 1.927 4.62-8.993 11.174-24.558 6.41 1.958 1.33 4.054 2.439 6.042 3.457 1.246.626 2.5 1.108 3.746 1.415 3.916.054 8-.03 11.885-.199 4.053-.734 8.113-1.789 11.824-3.8 1.505-.826 2.807 1.475 1.674 2.493 1.904-.343 3.518-.71 4.68-1.162l-.06-4.65c-1.216-1.56-1.957-3.35-.819-6.27l-.012.018Z" fill="#2B2B37"/><path d="M97.522 73.822c1.675-4.253 2.837-17.643 2.837-17.643.03-.451-5.5-1.53-5.957-1.614-.765-.168-1.53-.367-2.325-.536-.283-.054-.795-.283-1.078-.253-.398.054-.428.398-.627.735-.85 1.53-1.56 2.668-1.476 4.536v.198c.115 1.729.711 3.373 1.109 5.048.259 1.048.458 2.126.343 3.174-.367 3.403-3.548 5.698-4.849 8.848-.397.964-.596 2.012-1.132 2.922-1.024 1.698-3.006 2.523-4.313 3.999-.65.735-1.132 1.644-1.928 2.21-.91.651-2.072.766-3.18.711-.88-.03-1.873-.313-2.723-.168-.313.054-5.499 1.33-11.938-2.295 3.83 7.571 14.523 4.397 18.347 3.77 4.596-.765 9.216-1.789 13.415-4.083 1.59-.88 2.975 1.813 1.391 2.692-.03.03-.084.03-.114.054 2.072-.452 3.8-.933 5.078-1.391l-.06-4.65c-1.218-1.56-1.958-3.35-.82-6.27v.006Z" fill="#21212B"/><path d="M90.432 75.496c-.994 2.723-2.096 5.391-3.572 7.824a33.863 33.863 0 0 1-4.903 6.27c-.88.88-1.873 1.59-2.638 2.609-.398.512-.765 1.048-1.163 1.505l.03 1.705a157.658 157.658 0 0 0 17.161-1.277c.765-1.476 1.615-2.921 2.271-4.451.711-1.644 1.392-3.403 1.813-5.162l.085-.313c-3.12-9.872 16.649-51.842-7.602-71.297-13.553-10.86-23.907-9.812-36.044-.567-25.98 19.793-5.133 62.763-8.313 72.629a7.697 7.697 0 0 1-.452 1.078c.627 1.759 1.446 3.403 2.295 5.017.65 1.193 1.277 2.41 1.958 3.572l.114.199c5.759 1.361 14.523 4.819 19.203 4.909 2.271.03 2.922-.482 2.157-3.433l-1.193.03-.03-1.874c-.115-.114-.229-.228-.343-.337a9.609 9.609 0 0 0-2.838-2.072c-8.45-4.114-12.679-14.522-15.54-23.027-3.885-11.54-3.686-26.888 1.927-33.52 9.56-11.257 26.606-11.624 36.473-.397 6.638 7.541 9.414 20.275.06 37.862-.313.85-.597 1.675-.91 2.524l-.006-.006Z" fill="#464558"/><path d="M47.804 80.712c.115 1.76.054 3.205-.283 4.253a7.676 7.676 0 0 1-.452 1.078c.627 1.759 1.446 3.403 2.295 5.017.65 1.193 1.277 2.41 1.958 3.572l.114.199c5.759 1.361 14.517 4.819 19.203 4.909 1.675.03 2.47-.253 2.47-1.614-15.005-8.367-22.492-6.554-25.299-17.414h-.006Z" fill="#323147"/><path opacity=".32" d="M96.727 90.615c.71-1.476 1.391-2.976 1.988-4.512.283-.71.451-1.475.68-2.21-2.24-8.764 11.09-39.706.735-60.69.344 3.631.06 7.257-1.048 10.72-.88 2.777-2.186 5.416-3.686 7.825 3.12 7.571 2.921 18.034-4.084 31.224-.313.85-.596 1.675-.91 2.524-.994 2.723-2.096 5.391-3.572 7.824a33.863 33.863 0 0 1-4.903 6.27c-.88.88-1.873 1.59-2.638 2.609-.626.849-1.223 1.728-2.072 2.325v.88c5.957-.085 11.914-.483 17.811-1.278.597-1.162 1.133-2.325 1.705-3.517l-.006.006ZM89.553 29.665c-.199-2.126-1.476-4.168-3.006-5.39-1.33-1.079-2.981-1.506-4.596-1.59-3.373-.17-6.661.933-10.01 1.192-1.904.144-3.747-.283-5.645-.452-2.24-.229-4.252.313-5.98 2.012-1.621 1.614-2.808 3.686-4.2 5.53-1.36 1.788-3.005 3.234-4.51 4.848-1.392 1.506-2.723 3.12-3.687 5.017-.482.964-.88 1.988-1.163 3.066-.313 1.217-.482 2.494-.765 3.717-.596 2.553-1.475 5.017-1.843 7.6-.169 1.248-.169 2.47-.169 3.717 1.019 6.44 2.386 12.366 3.175 17.1.397.735.825 1.446 1.247 2.157 1.162 1.927 2.44 3.83 3.12 6.041.65 2.042.735 4.367.084 6.409a9.453 9.453 0 0 1-1.277 2.578h.711l.03 1.53c5.415 1.216 12.366 4.878 17.444 4.933 1.59.03 3.265-.23 4.198-1.416.23-.283.314-1.078.145-1.843l-1.331.03-.03-2.012c-.085-.084-.169-.198-.283-.283a9.688 9.688 0 0 0-2.837-2.072C59.924 87.97 52.292 78.502 49.43 69.991c-3.885-11.54-.283-27.822 5.33-34.46 8.849-10.461 24.19-11.516 34.232-2.607a6.12 6.12 0 0 0 .566-3.259h-.006Z" fill="#323147"/><path d="M49.364 44.753c-.337 1.193-.313 2.41-.367 3.632 0 .2-.03.428-.03.65.71-3.258 1.729-6.323 2.951-8.877-.994 1.475-2.072 2.867-2.554 4.595Z" fill="#464558"/><path d="M97.438 90.699c.71-1.813 1.506-3.602 2.072-5.475.054-.169.114-.344.168-.536-.054-.115-.084-.253-.138-.368-1.644-4.794 2.439-17.582 4.024-31.676-1.223 6.463-6.837 24.846-6.951 25.099-.513 1.307-1.133 2.638-1.928 3.746-.71 1.018-1.675 1.614-2.638 2.295-.627.428-1.223.91-1.59 1.614-.26.482-.368 1.018-.482 1.56-.23 1.079-.452 2.157-1.109 3.006-.62.795-1.475 1.277-2.325 1.699-1.192.596-2.385 1.132-3.662 1.445-1.53.368-3.036.398-4.566.398-.397.451-.795.88-1.337 1.162-.422.253-4.03 3.373-4.451 3.632 6.836 0 16.251-2.867 23.54-4.252.451-1.048.909-2.21 1.36-3.35h.013Z" fill="#323147"/><path d="M54.81 35.484c7.258-8.565 18.89-10.836 28.358-6.463-.765-.512-1.53-1.018-2.21-1.645-.482-.451-.82-.536-1.446-.65-.283-.054-.512-.115-.765-.253-.85-.428-1.675-.91-2.578-1.193-.398-.114-.795-.229-1.223-.313-.054 0-.114 0-.169-.03-1.192-.114-2.379-.313-3.572-.343-1.216-.055-2.409.283-3.632.313-1.33.054-2.47.054-3.602.91-.91.68-1.728 1.415-2.668 2.011-1.958 1.247-3.97 2.355-5.5 4.313-.71.91-1.307 1.957-1.728 3.066-.115.253-1.048 2.553-1.76 3.373C38.36 54.288 49.42 98.222 73.218 97.48c.2-1.391-1.475-2.891-1.843-3.319-.91-.963-1.988-1.698-3.12-2.27-8.397-4.138-12.734-14.263-15.6-22.714-3.374-9.98-4.308-22.828 0-30.598.65-.88 1.728-2.554 2.156-3.09v-.006Z" fill="#323147"/><path d="M43.92 40.555c3.288-2.27 6.492-4.849 9.107-8.083 2.807-3.488 5.047-7.655 6.523-12.053 1.048-3.09 1.675-6.324 1.705-9.643 0-.68 0-1.33-.054-2.012a49.7 49.7 0 0 0-5.361 3.602C46.112 19.8 42.937 30.49 42.624 41.435c.452-.314.88-.597 1.301-.88h-.006Z" fill="#575770"/><path opacity=".25" d="M72.705 23.997a.483.483 0 0 1-.451-.313c-.681-1.729-.428-3.602-.2-5.39.17-1.248.314-2.524.17-3.717-.055-.428-.145-.88-.254-1.331-.084-.344-.168-.711-.228-1.078-.344-1.958-.085-4 .138-5.813.03-.313.283-.512.542-.452.253.03.452.314.428.627-.23 1.813-.452 3.656-.145 5.445.054.337.145.65.199.994.114.451.229.933.283 1.445.169 1.331 0 2.693-.169 4.03-.228 1.729-.421 3.349.145 4.818.115.284 0 .597-.253.711-.054.03-.144.03-.199.03l-.006-.006Z" fill="#2B2B37"/><path d="M90.884 34.261a19.555 19.555 0 0 0-3.204-2.524 23.662 23.662 0 0 1 3.602 3.373c6.638 7.541 9.391 20.25.06 37.832l-.94 2.554c-.993 2.723-2.096 5.391-3.571 7.825a26.05 26.05 0 0 1-1.874 2.752c5.897-5.53 10.89-12.167 13.354-20.473 3.747-12.366.085-24.02-7.427-31.339Z" fill="#575770"/><path d="M102.256 65.829c-.228-1.843-.168-3.686.031-5.53h-.085l-1.132 6.012c-1.331 3.855-2.44 7.8-3.35 11.8-.258 1.108-.481 2.21-.849 3.288-1.222 3.716-3.686 6.692-6.125 9.583.397.482 1.108.367 1.674.169a15.035 15.035 0 0 0 5.843-3.687c.566-.566 1.132-1.216 1.415-2.011.651-1.729.06-3.747.482-5.56.314-1.361 1.163-2.47 1.759-3.716.765-1.56 1.133-3.35 1.078-5.132-.054-1.789-.512-3.487-.735-5.216h-.006Z" fill="#323147"/><path d="M47.834 70.112c-.452-3.97-1.078-7.94-1.698-11.884-.284-1.928-.597-3.855-.88-5.759-.199-1.277-.397-2.553-.71-3.8H42.87c.229 1.987.566 3.969.735 5.872.283 3.32.367 6.692-.145 10.011-.283 1.759-.71 3.602-.114 5.246.229.65.596 1.193.933 1.79 1.59 2.776 2.386 6.125 2.187 9.413-.054.994-.199 2.012.03 2.976.795 3.632 7.541 9.926 9.644 9.782-3.771-5.391-7.8-19.287-8.313-23.654l.006.007Z" fill="#464558"/><path d="M46.497 80.23c0 .254 0 .482-.03.735-.054.994-.199 2.012.03 2.976.795 3.632 7.541 9.926 9.644 9.782-.88-1.247 5.812.933 4.62-.994-4.482-2.723-8.313-2.325-14.264-12.504v.006Z" fill="#323147"/><path d="M48.4 75.129c-.198-1.675-.367-3.35-.566-5.017-.452-3.97-1.078-7.94-1.698-11.884-.284-1.928-.597-3.855-.88-5.759-.199-1.277-.397-2.553-.71-3.8H42.87c.229 1.987.566 3.969.735 5.872.283 3.32.367 6.692-.145 10.011-.283 1.759-.71 3.602-.114 5.246.229.65.596 1.193.933 1.79.482.824.88 1.698 1.193 2.607.934-.765 2.47-.626 2.921.934h.006Z" fill="#464558"/><path d="M42.901 93.054c.512 1.674 1.476 3.12 2.44 4.566 1.024 1.505 2.042 3.065 3.463 4.168 1.416 1.132 3.15 1.758 4.88 2.301a54.173 54.173 0 0 0 12.564 2.325c3.855.253 7.716.084 11.541.65 2.891.428 5.813 1.247 8.734.964 1.988-.199 3.915-.91 5.759-1.699 3.005-1.331 5.98-3.005 8.113-5.613 2.096-2.608 3.205-6.295 2.096-9.5-.253-.764-.825-1.613-1.614-1.56-.482.031-.88.428-1.247.766-5.812 5.788-13.161 10.263-21.184 10.974-2.012.169-4.03.115-6.012.03-1.506-.054-3.005-.114-4.481-.451-2.042-.482-3.916-1.5-5.897-2.127-2.042-.626-4.223-.825-6.24-1.59-3.856-1.475-6.663-4.909-9.3-8.167-1.049-1.307-1.332-2.723-2.073-4.054-1.873 1.958-2.3 5.475-1.53 8.023l-.012-.006Z" fill="#75A152"/><path opacity=".37" d="M102.455 91.18c-.253-.764-.825-1.613-1.614-1.56-.482.031-.88.428-1.247.766-5.813 5.788-13.161 10.263-21.184 10.974-2.012.169-4.024.115-6.012.03-1.506-.054-3.006-.114-4.481-.451-1.446-.338-2.807-.964-4.199-1.506 1.163 2.156 1.59 4.734.145 6.722.795.084 1.56.168 2.355.198 3.855.253 7.716.085 11.541.651 2.891.428 5.813 1.247 8.734.964 1.988-.199 3.915-.91 5.758-1.705 3.006-1.331 5.982-3.005 8.108-5.614 2.102-2.553 3.205-6.27 2.102-9.474l-.006.006Z" fill="#568040"/><path d="M102.455 91.18c-.253-.764-.825-1.613-1.614-1.56-.482.03-.88.428-1.247.766-5.813 5.782-13.161 10.263-21.184 10.974-2.012.169-4.024.115-6.012.03-1.506-.054-3.006-.114-4.481-.452-2.042-.481-3.916-1.5-5.897-2.126-2.042-.626-4.229-.825-6.24-1.59-3.856-1.476-6.663-4.909-9.301-8.167-1.048-1.307-1.331-2.723-2.072-4.054a7.315 7.315 0 0 0-.71.91c.342 2.21 1.818 4.198 2.722 6.155 1.108 2.47 1.789 5.132 3.602 7.174 1.674 1.873 3.8 2.867 6.18 3.234 1.193.169 2.41.199 3.602.368 1.163.168 2.3.482 3.463.68 1.277.199 2.554.229 3.831.428 1.277.169 2.524.398 3.801.536 1.193.145 2.355.283 3.518.566 1.331.314 2.638.681 4 .795 2.355.199 4.903.314 7.234-.144 1.277-.253 2.523-.711 3.8-1.024.567-.139 1.163-.229 1.73-.398.481-.138.933-.367 1.415-.451.91-.139 1.674.343 2.27 1.108 2.073-1.108 3.97-2.494 5.446-4.313 2.156-2.523 3.265-6.24 2.156-9.444h-.012Z" fill="#568040"/><path d="M49.395 95.036c.427 1.246.879 2.553 1.758 3.547.994 1.079 2.44 1.675 3.801 2.012 2.783.711 5.759.765 8.566 1.078 2.47.253 4.818.139 7.173-.313a18.026 18.026 0 0 1-2.782-.367c-2.042-.482-3.916-1.5-5.897-2.127-2.042-.626-4.223-.825-6.24-1.59-3.15-1.192-5.584-3.716-7.825-6.378.596 1.33.994 2.752 1.446 4.138ZM75.856 103.233c1.674.681 3.463.765 5.246.651 1.79-.115 3.632-.229 5.391-.566 1.614-.314 3.175-.711 4.789-.934 1.644-.253 3.265-.452 4.764-1.193 1.217-.596 2.524-1.276 3.488-2.294 1.108-1.163 1.446-2.753 1.675-4.313.228-1.59-.055-3.289.144-4.849a.815.815 0 0 0-.512-.084c-.482.03-.88.428-1.247.765-5.812 5.782-13.161 10.263-21.184 10.974-1.843.169-3.687.115-5.56.054.994.651 1.928 1.362 3.006 1.789Z" fill="#3E5C2E"/><path d="M62.694 96.283c2.807.451 33.009 6.24 38.568-16.649.284-1.132.284.055 1.416.085 1.927 18.804-17.896 26.912-36.129 23.171-29.864-6.096-23.738-31.164-21.299-25.496.964 2.294-.422 15.991 17.444 18.889Z" fill="#75A152"/><path d="M62.694 96.283c2.807.451 33.009 6.24 38.568-16.649.284-1.132.284.055 1.416.085 1.927 18.804-17.896 26.912-36.129 23.171-29.864-6.096-23.738-31.164-21.299-25.496.964 2.294-.422 15.991 17.444 18.889Z" fill="#75A152"/><path d="M45.678 85.483a20.053 20.053 0 0 1-.313-3.458c-.085-.825-.169-1.897-.681-2.578a.515.515 0 0 0-.229-.198c-.169-.054-.343.03-.452.144-.114.145-.144.313-.168.482-.115.964.367 1.873.566 2.807.169.765.114 1.59.138 2.385.025.795.115 1.614.512 2.295.115.199.253.367.482.398.23 0 .428-.2.452-.428.054-.229 0-.482-.054-.71a9.732 9.732 0 0 1-.26-1.133l.007-.006ZM49.195 93.253c0 .084 0 .168.03.229.06.168.26.253.428.313.115.03.23.084.313.084.115 0 .23-.03.283-.144.055-.055.055-.145.055-.23 0-.198-.03-.427-.139-.596-.367-.451-.88-.198-.963.338l-.007.006Z" fill="#AED888"/><path d="M76.76 98.806c-.429 0-.88.03-1.308.145-1.958.452-4.536.91-5.445 2.186-.368.512-.512 1.416.367 1.675.91.253 1.843-.368 2.47-1.108.65-.765.71-1.506 6.066-1.193l-2.157-1.699.006-.006Z" fill="#568040"/><path opacity=".37" d="M102.684 79.725c-1.132-.03-1.132-1.217-1.415-.085-4.849 19.937-28.359 18.124-36.22 17.016 2.103.71 4.223 1.217 6.271 2.126 1.79.825 3.687 1.759 4.964 3.349.397.482.68 1.018.879 1.59 14.462-.626 27.087-8.848 25.527-23.99l-.006-.006Z" fill="#568040"/><path d="M54.496 96.373c4.114 2.554 9.108 2.722 13.758 3.06 10.607.825 26.063 4.535 29.69-7.289.228-.795 5.812-1.873 4.734-12.45-1.132-.03-1.132-1.216-1.415-.084-5.56 22.888-35.762 17.1-38.569 16.648-7.854-1.277-11.999-4.62-14.24-8.197 1.049 3.433 3.205 6.523 6.042 8.312Z" fill="#568040"/><path d="M60.453 96.427c2.018.367 4.054.398 6.072.428-1.958-.23-3.349-.482-3.855-.567-4.849-.795-8.252-2.355-10.722-4.282 2.271 2.355 5.476 3.855 8.505 4.427v-.006ZM76.055 97.445c4.879.482 9.842.596 14.438-1.506 1.078-.482 2.186-1.132 3.066-1.957.795-.765 1.3-1.76 2.18-2.47 1.62-1.307 3.602-1.813 4.735-3.716 1.277-2.157.144-4.596-.452-7.06-.765 10.722-16.053 16.42-25.925 16.534.68.055 1.307.115 1.958.169v.006Z" fill="#3E5C2E"/><path d="M43.889 92.428c.199.252.482.451.65.734.17.338.17.711.2 1.109.03.367.144.795.427.993.199.145.452.145.68.145.085 0 .17 0 .23-.054a.73.73 0 0 0 .198-.229c.566-1.078-.199-2.837-.91-3.656-.282-.344-1.023-1.193-1.475-.91-.596.344-.283 1.506 0 1.874v-.006Z" fill="#AED888"/><path d="M72.079 99.294c-.85 0-1.674.115-2.494.313-.849.2-1.728.536-2.24 1.277-.06.085-.115.199-.145.314-.054.313.199.626.482.71.283.085.596 0 .88-.114 1.078-.428 1.957-1.307 3.09-1.446.451-.054.933.03 1.39.054.453.031.965.031 1.362-.198.229-.115.65-.452.65-.735-.03-.313-.451-.169-.626-.169-.795.054-1.59 0-2.355 0l.006-.006Z" fill="#568040"/><path opacity=".34" d="M51.568 119.426c-.405-1.552-1.08-3.06-2.475-3.757-2.093-1.035-7.336.315-5.918 8.415a27.27 27.27 0 0 0 3.96 10.103c.18.27.383.54.698.607.72.135 5.535-2.745 6.142-3.127 2.025-1.26 4.005-2.7 5.378-4.658 1.372-1.958 2.07-4.5 1.327-6.773-1.305-3.937-5.827-2.88-9.112-.81ZM45.704 103.546c.694-.898 1.179-1.993 1.303-3.122-5.193 1.753-10.029 3.405-12.192 4.078-.133.049-.268.075-.379.124a21.1 21.1 0 0 0 1.854 4.041c.118.199.283.419.51.48.543.119 4.24-1.95 4.728-2.212 1.549-.924 3.093-1.961 4.176-3.389Z" fill="#21212B"/><path d="M123.587 48.72c-.455-1.416-1.127-2.791-2.45-3.37-1.985-.869-6.772.6-5.118 8.032a25.192 25.192 0 0 0 4.105 9.18c.165.238.372.486.661.528.672.092 4.993-2.781 5.552-3.164 1.819-1.25 3.587-2.667 4.776-4.528 1.189-1.86 1.716-4.259.93-6.327-1.375-3.566-5.51-2.408-8.456-.351Z" fill="#DE5153"/><path d="M128.394 48.978c-1.354.486-3.422.527-4.269-.62-.187.114-.362.238-.538.351-.321-1.002-.755-1.995-1.458-2.688-.723 1.8-2.016 3.36-3.69 3.97-.569.207-1.665.528-2.75.641.01.807.114 1.716.341 2.75a25.206 25.206 0 0 0 4.104 9.18c.166.238.372.486.662.527.672.093 4.993-2.78 5.551-3.163 1.82-1.251 3.587-2.667 4.776-4.528 1.189-1.86 1.716-4.26.931-6.327-.331-.868-.827-1.457-1.427-1.82-.589.786-1.354 1.417-2.233 1.727Z" fill="#D7283A"/><path opacity=".32" d="M122.76 54.075c-2.109.64-4.631.806-6.565-.414-.041-.03-.082-.051-.134-.082a25.206 25.206 0 0 0 4.063 8.993c.165.238.372.486.661.528.672.093 4.994-2.781 5.552-3.164 1.819-1.25 3.587-2.667 4.776-4.528 1.189-1.86 1.716-4.259.93-6.326-.3-.776-.723-1.324-1.24-1.685-1.634 3.122-4.911 5.727-8.043 6.678Z" fill="#982431"/><path d="M122.76 46.838c-.052.228-.135.455-.217.683-.155.403-1.344 2.46-.662 2.729.424.165 1.23-.879 1.437-1.158.103-.145.186-.3.248-.455-.217-.64-.475-1.261-.806-1.799ZM131.702 50.88c-.972 2.006-2.512 3.65-4.145 5.128-2.151 1.944-5.521 4.249-8.757 4.487.414.713.848 1.395 1.324 2.067.165.238.372.486.661.528.672.093 4.993-2.781 5.552-3.164 1.819-1.25 3.587-2.667 4.776-4.528 1.075-1.695 1.612-3.825 1.106-5.748-.145.414-.321.827-.517 1.23Z" fill="#982431"/><path d="M20.235 61.975c-.973-2.459-2.324-4.837-4.73-5.729-3.62-1.324-11.97 1.838-8.187 14.863a45.132 45.132 0 0 0 8.323 15.862c.324.405.73.838 1.243.865 1.189.08 8.566-5.513 9.512-6.242 3.08-2.432 6.08-5.135 7.972-8.594 1.891-3.431 2.567-7.755.945-11.35-2.837-6.187-10.079-3.647-15.078.325Z" fill="#DE5153"/><path d="M28.828 61.894c-2.35 1-6.026 1.324-7.674-.622-.325.216-.622.46-.919.703-.676-1.757-1.567-3.46-2.891-4.621-1.081 3.27-3.216 6.188-6.108 7.458-.972.433-2.918 1.135-4.81 1.46.108 1.432.379 3.053.92 4.837a45.132 45.132 0 0 0 8.322 15.862c.324.405.73.837 1.243.864 1.19.082 8.566-5.512 9.512-6.242 3.08-2.432 6.08-5.134 7.972-8.593 1.891-3.432 2.567-7.755.946-11.35-.676-1.513-1.649-2.486-2.757-3.08-.945 1.486-2.243 2.675-3.756 3.324Z" fill="#D7283A"/><path opacity=".32" d="M19.37 71.595c-3.675 1.378-8.133 1.946-11.7 0-.081-.054-.163-.081-.244-.135a44.683 44.683 0 0 0 8.215 15.51c.325.406.73.838 1.243.865 1.19.082 8.567-5.512 9.512-6.242 3.08-2.432 6.08-5.134 7.972-8.593 1.892-3.432 2.567-7.755.946-11.35-.622-1.35-1.432-2.27-2.405-2.864-2.54 5.756-8.08 10.755-13.539 12.809Z" fill="#982431"/><path d="M18.56 58.732c-.082.406-.19.811-.325 1.243-.243.73-2.108 4.513-.865 4.919.784.243 2.081-1.703 2.405-2.216.162-.27.298-.568.406-.838-.433-1.108-.973-2.189-1.622-3.108ZM34.908 64.92c-1.513 3.676-4.053 6.783-6.782 9.594-3.594 3.702-9.323 8.187-15.052 8.944a42.116 42.116 0 0 0 2.594 3.513c.324.405.73.838 1.243.865 1.19.08 8.566-5.513 9.512-6.242 3.08-2.433 6.08-5.135 7.972-8.594 1.73-3.134 2.432-6.972 1.324-10.322a37.297 37.297 0 0 1-.81 2.243Z" fill="#982431"/><path d="M34.638 115.241c-1.17-1.62-2.632-3.082-4.545-3.262-2.902-.27-8.37 3.622-3.105 12.397a34.122 34.122 0 0 0 9.113 9.968c.315.225.675.473 1.057.383.9-.18 5.175-5.671 5.738-6.391 1.777-2.362 3.443-4.905 4.163-7.785.72-2.88.382-6.142-1.485-8.437-3.263-3.96-8.033-.743-10.936 3.127Z" fill="#DE5153"/><path d="M40.893 113.554c-1.507 1.192-4.14 2.115-5.715 1.012l-.54.675c-.832-1.147-1.8-2.227-2.992-2.812-.158 2.587-1.148 5.13-3.038 6.615-.63.495-1.913 1.372-3.24 1.98.36 1.035.877 2.137 1.598 3.352a34.122 34.122 0 0 0 9.112 9.968c.315.225.675.472 1.058.382.9-.18 5.175-5.67 5.737-6.39 1.778-2.362 3.443-4.905 4.163-7.785.72-2.88.382-6.142-1.485-8.437-.788-.968-1.665-1.508-2.588-1.71-.382 1.26-1.102 2.362-2.07 3.15Z" fill="#D7283A"/><path opacity=".32" d="M35.853 122.419c-2.407 1.71-5.557 2.992-8.55 2.25a.643.643 0 0 0-.202-.045 33.73 33.73 0 0 0 8.977 9.743c.315.225.675.472 1.058.382.9-.18 5.175-5.67 5.737-6.39 1.778-2.363 3.443-4.905 4.163-7.785.72-2.88.383-6.143-1.485-8.438-.698-.855-1.485-1.372-2.295-1.62-.743 4.658-3.803 9.36-7.403 11.903Z" fill="#982431"/><path d="M32.794 113.194c.022.315.022.63 0 .967-.023.585-.675 3.69.315 3.758.607.045 1.192-1.643 1.327-2.093.068-.225.112-.45.135-.697-.54-.698-1.125-1.373-1.777-1.935ZM45.91 114.566c-.404 2.97-1.664 5.715-3.104 8.303-1.913 3.375-5.22 7.74-9.248 9.428.81.72 1.665 1.417 2.565 2.07.315.225.675.472 1.058.382.9-.18 5.175-5.67 5.737-6.39 1.778-2.363 3.443-4.905 4.163-7.785.652-2.61.427-5.558-1.013-7.785-.045.585-.09 1.192-.157 1.777Z" fill="#982431"/></g></svg>