<svg width="150" height="150" viewBox="0 0 150 150" fill="none" xmlns="http://www.w3.org/2000/svg">
    <mask id="mask0_4782_31218" style="mask-type:alpha" maskUnits="userSpaceOnUse" x="0" y="0" width="150" height="150">
        <circle cx="75" cy="75" r="75" fill="#C4C4C4"/>
    </mask>
    <g mask="url(#mask0_4782_31218)">
        <path d="M75.5673 153.814C118.43 153.814 153.178 118.528 153.178 75C153.178 31.4725 118.43 -3.81354 75.5673 -3.81354C32.7041 -3.81354 -2.04333 31.4725 -2.04333 75C-2.04333 118.528 32.7041 153.814 75.5673 153.814Z" fill="#E3F7FF"/>
        <path d="M59.2236 62.18C60.7536 60.6212 61.6687 58.388 60.8569 56.3646C60.3994 55.1705 59.4794 54.2862 58.4118 53.6117C55.0466 51.3784 50.5597 51.3784 46.737 52.6275C42.9142 53.9265 39.5491 56.3146 36.2331 58.7527C39.6475 55.6901 43.116 52.4676 44.9511 48.2109C46.737 43.9542 46.2745 38.3436 42.7076 35.5408C39.4458 32.9978 34.8555 33.4624 30.8803 34.5016C22.8265 36.58 15.2795 40.5269 8.85906 45.8727C4.67719 49.35 -3.52915 56.1048 -4.44916 62.18H59.2236Z" fill="#FCFCFC"/>
        <path d="M121.002 34.047C122.099 32.9279 122.763 31.3241 122.173 29.8653C121.843 29.0059 121.184 28.3714 120.411 27.8868C117.991 26.2831 114.768 26.2831 112.018 27.1774C109.268 28.1116 106.852 29.8253 104.471 31.5789C106.926 29.3756 109.416 27.0625 110.739 24.0048C112.023 20.9422 111.693 16.9154 109.125 14.8969C106.779 13.0684 103.482 13.4031 100.624 14.1525C94.8332 15.6463 89.4115 18.4841 84.7967 22.3261C81.7907 24.8292 75.8918 29.6804 75.2325 34.047H120.997H121.002Z" fill="#FCFCFC"/>
        <path d="M143.845 69.3544C144.573 68.6149 145.006 67.5558 144.622 66.5915C144.406 66.022 143.968 65.6023 143.461 65.2825C141.862 64.2234 139.732 64.2234 137.916 64.8129C136.101 65.4274 134.502 66.5665 132.928 67.7256C134.551 66.2718 136.199 64.738 137.07 62.7195C137.916 60.6961 137.7 58.0332 136.003 56.6992C134.453 55.4902 132.273 55.71 130.384 56.2046C126.557 57.1938 122.97 59.0674 119.92 61.6054C117.932 63.2591 114.036 66.4666 113.598 69.3544H143.85H143.845Z" fill="#FCFCFC"/>
        <path d="M47.3628 111.261C39.2519 101.505 15.9686 109.248 8.62341 114.636C0.200562 120.818 -5.01762 128.901 -8.42079 137.948C-9.10143 139.394 -9.72535 140.869 -10.3776 142.315C-12.8733 147.987 -15.1421 153.744 -16.8437 159.728C-18.5452 165.74 -19.5094 171.809 -19.9065 178.048C-20.105 181.196 -20.2468 184.372 -20.814 187.463C-21.3812 190.526 -22.4589 193.22 -23.9336 195.971C-24.5575 197.162 -25.2098 198.382 -25.5217 199.715C-25.8904 201.275 -25.777 202.863 -25.862 204.451C-26.0038 207.258 -26.8546 209.953 -28.0741 212.448C-46.9617 251.244 -45.9691 264.715 -54.6755 300.363C-54.9591 301.469 -55.2144 302.717 -54.5621 303.71C-54.0233 304.532 -53.0023 305.014 -52.0381 305.439C-48.1812 307.084 -44.0974 308.361 -39.9001 309.24C-38.9642 309.438 -37.9716 309.608 -37.0358 309.41C-35.7312 309.155 -34.767 308.219 -33.8878 307.34C-19.7363 293.103 -9.78207 278.867 -3.11753 261.936C-1.86971 259.894 -0.678608 257.824 0.484138 255.725C2.44096 252.095 4.11419 248.352 5.73069 244.58C7.37556 240.694 9.33237 237.235 11.828 233.86C14.2103 230.627 15.6283 227.394 16.3089 223.423C17.0179 219.425 17.6134 215.539 18.9747 211.711C21.8107 203.855 26.4617 196.879 30.4037 189.562C33.3247 184.145 35.9338 178.36 37.0966 172.291C47.5613 148.469 56.0692 121.726 47.3628 111.261Z" fill="#464558"/>
        <path opacity="0.29" d="M15.0893 120.421C14.5505 123.059 13.9549 125.753 13.0758 128.362C11.4876 133.098 8.96364 137.579 7.63074 142.372C6.46799 146.597 6.41127 150.88 9.44577 154.566C11.7996 157.431 15.2028 159.529 18.1238 161.94C21.3285 164.549 23.342 167.442 24.6466 171.043C26.3198 175.666 26.8586 180.515 27.3124 185.308C27.5109 187.378 27.7378 189.449 27.9647 191.519C41.237 165.173 58.5648 124.704 47.3344 111.233C41.0952 103.746 25.9228 106.582 15.8834 110.722C16.2237 113.984 15.7132 117.273 15.0893 120.421Z" fill="#2B2B37"/>
        <path opacity="0.29" d="M-33.8879 307.311C-19.7364 293.075 -9.78217 278.838 -3.11763 261.908C-1.8698 259.866 -0.678707 257.795 0.484043 255.697C2.44086 252.067 4.11409 248.323 5.73059 244.551C7.37546 240.666 9.33228 237.206 11.8279 233.832C14.2102 230.599 15.6282 227.366 16.3088 223.395C17.0178 219.396 17.6133 215.511 18.9746 211.683C21.8106 203.827 26.4616 196.851 30.4036 189.534C33.3246 184.117 35.9337 178.332 37.0965 172.263C47.3627 148.894 55.7572 122.69 47.7598 111.857C47.7598 111.828 47.7314 111.828 47.7314 111.8C47.618 111.63 47.4762 111.46 47.3344 111.29C47.1926 111.119 47.0508 110.978 46.909 110.807C46.8522 110.751 46.8239 110.722 46.7672 110.666C46.6537 110.552 46.5686 110.467 46.4552 110.354C46.3985 110.297 46.3417 110.24 46.285 110.184C46.1999 110.098 46.0865 110.013 46.0014 109.928C45.9447 109.872 45.8596 109.815 45.8029 109.758C45.6895 109.673 45.6044 109.588 45.491 109.531C45.4342 109.475 45.3492 109.418 45.2924 109.389C45.179 109.304 45.0656 109.248 44.9521 109.163C44.8954 109.106 44.8103 109.078 44.7536 109.021C44.6118 108.936 44.4984 108.851 44.3566 108.794C44.2999 108.766 44.2715 108.737 44.2148 108.709C44.0163 108.595 43.8461 108.51 43.6476 108.397C43.6192 108.369 43.5625 108.369 43.5341 108.34C43.364 108.255 43.2222 108.198 43.052 108.113C42.9953 108.085 42.9102 108.057 42.8535 108.028C42.7117 107.972 42.5983 107.915 42.4565 107.858C42.3714 107.83 42.2863 107.801 42.2296 107.773C42.0878 107.716 41.9743 107.688 41.8326 107.631C41.7475 107.603 41.6624 107.574 41.5773 107.546C41.4355 107.489 41.2937 107.461 41.1519 107.433C41.0668 107.404 40.9818 107.376 40.9251 107.376C40.7833 107.348 40.6131 107.291 40.4713 107.263C40.4146 107.234 40.3295 107.234 40.2728 107.206C40.0742 107.149 39.8757 107.121 39.6489 107.064C39.6205 107.064 39.5921 107.064 39.5921 107.064C39.3652 107.007 39.11 106.979 38.8831 106.951C38.8264 106.951 38.7981 106.951 38.7413 106.922C38.5428 106.894 38.3727 106.865 38.1741 106.837C38.0891 106.837 38.0324 106.809 37.9473 106.809C37.7771 106.78 37.607 106.78 37.4368 106.752C37.3517 106.752 37.2666 106.724 37.1815 106.724C37.0114 106.695 36.8413 106.695 36.6711 106.695C36.586 106.695 36.5009 106.695 36.4159 106.667C36.2457 106.667 36.0755 106.639 35.877 106.639C35.7919 106.639 35.7352 106.639 35.6501 106.639C35.4516 106.639 35.2531 106.639 35.0262 106.639C34.9695 106.639 34.9411 106.639 34.8844 106.639C34.3739 106.639 33.8351 106.639 33.3246 106.667C33.2963 106.667 33.2679 106.667 33.2112 106.667C32.9843 106.667 32.7574 106.695 32.5305 106.695C32.4738 106.695 32.4171 106.695 32.3604 106.695C32.1619 106.695 31.9634 106.724 31.7365 106.752C31.6798 106.752 31.5947 106.752 31.538 106.78C31.3394 106.809 31.1409 106.809 30.9141 106.837C30.8573 106.837 30.8006 106.837 30.7439 106.866C30.517 106.894 30.2901 106.922 30.0633 106.951C30.0349 106.951 29.9782 106.951 29.9498 106.979C29.1274 107.092 28.305 107.206 27.4825 107.348C27.4542 107.348 27.4542 107.348 27.4258 107.348C27.1706 107.404 26.9153 107.433 26.6601 107.489C26.6317 107.489 26.575 107.518 26.5466 107.518C26.3198 107.574 26.0929 107.603 25.866 107.66C25.8093 107.66 25.7809 107.688 25.7242 107.688C25.4973 107.745 25.2421 107.801 25.0152 107.858C24.9869 107.858 24.9585 107.886 24.9018 107.886C24.6466 107.943 24.363 108 24.1077 108.085C25.1854 109.957 26.0645 111.914 26.7735 113.87C32.7858 130.404 20.3642 148.611 9.36066 162.422C4.48278 168.519 -7.99552 174.872 -20.2186 180.714C-20.3604 183.011 -20.5589 185.28 -20.9559 187.549C-21.5231 190.611 -22.6008 193.306 -24.0755 196.057C-24.6994 197.248 -25.3517 198.467 -25.6636 199.8C-26.0323 201.36 -25.9188 202.948 -26.0039 204.536C-26.1457 207.344 -26.9965 210.038 -28.216 212.533C-28.3011 212.675 -28.3578 212.817 -28.4145 212.959C-22.0619 214.037 -16.0497 215.284 -14.6317 216.192C-8.25074 220.191 -4.93264 226.968 -5.72671 233.548C-7.82533 251.103 -29.7191 256.945 -45.6289 258.873C-48.6634 271.124 -50.5918 283.177 -54.8174 300.448C-54.8458 300.505 -54.8458 300.59 -54.8742 300.647C-54.9025 300.732 -54.9025 300.817 -54.9309 300.902C-55.1578 301.895 -55.2712 302.916 -54.704 303.795C-54.5055 304.107 -54.2502 304.362 -53.9383 304.589C-53.6263 304.816 -53.286 305.014 -52.9173 305.184C-52.6621 305.298 -52.4352 305.411 -52.18 305.525C-51.6979 305.723 -51.2158 305.922 -50.7336 306.12C-49.7694 306.517 -48.7768 306.886 -47.7559 307.226C-46.7633 307.567 -45.7423 307.878 -44.7214 308.162C-43.8139 308.417 -42.9063 308.644 -41.9988 308.871C-41.7436 308.928 -41.5167 308.985 -41.2615 309.041C-40.8644 309.126 -40.439 309.24 -40.042 309.296C-39.9569 309.325 -39.8435 309.325 -39.7584 309.353C-39.7301 309.353 -39.6733 309.382 -39.645 309.382C-38.8225 309.523 -38.0001 309.637 -37.206 309.467C-37.0359 309.438 -36.8941 309.382 -36.7239 309.325C-36.1 309.126 -35.5895 308.758 -35.079 308.361C-34.8238 308.162 -34.5969 307.935 -34.37 307.737C-34.1148 307.538 -34.0014 307.425 -33.8879 307.311Z" fill="#2B2B37"/>
        <path opacity="0.29" d="M46.2568 144.754C42.6267 153.318 37.4653 161.486 31.2261 168.945C28.3618 172.348 25.2422 175.637 21.754 178.615C16.2238 183.351 9.87126 186.953 2.92312 190.044C0.654345 191.065 -1.78461 191.831 -4.08175 192.795C-6.26545 193.703 -9.52683 194.922 -10.0089 197.162C-11.0015 201.615 -3.40111 203.969 0.285654 205.5C0.512531 205.614 0.597604 205.84 0.455805 206.039C-0.593505 207.173 -1.64281 208.535 -1.55773 210.038C-1.50101 211.059 -0.905469 211.938 -0.224835 212.76C1.42003 214.717 3.37687 216.447 4.25602 218.772C6.63824 225.097 3.20671 232.187 0.257301 237.972C-3.4011 245.09 -6.80429 252.152 -8.90291 259.695C-9.95222 263.467 -10.7179 267.296 -11.2284 271.153C-11.6254 274.159 -11.7956 277.165 -12.1359 280.171C-8.61932 274.386 -5.61318 268.345 -3.08916 261.907C-1.84133 259.866 -0.650204 257.795 0.512546 255.697C2.46937 252.067 4.14259 248.323 5.7591 244.551C7.40396 240.666 9.36078 237.206 11.8564 233.831C14.2387 230.598 15.6566 227.365 16.3373 223.395C17.0463 219.396 17.6418 215.511 19.0031 211.683C21.8391 203.827 26.4901 196.85 30.4321 189.534C33.3531 184.117 35.9622 178.332 37.125 172.263C42.9671 158.962 48.2136 144.725 50.1704 132.956C50.1988 132.871 50.1988 132.786 50.2271 132.673C49.2913 136.785 47.93 140.84 46.2568 144.754Z" fill="#2B2B37"/>
        <path d="M205.298 301.327C202.661 290.494 199.995 279.661 197.358 268.827C194.975 259.072 192.877 251.613 190.948 245.686C190.353 243.133 189.559 240.638 188.566 238.171C179.463 215.001 184.085 222.941 180.654 211.172C180.03 208.988 179.151 206.861 177.959 204.933C176.797 203.033 175.35 201.303 174.074 199.46C172.798 197.616 171.777 195.688 171.267 193.476C170.728 191.094 170.756 188.626 170.784 186.187C170.955 173.255 168.856 170.845 163.042 153.205C160.036 138.458 154.648 124.902 141.999 115.629C134.626 110.24 111.342 102.526 103.26 112.254C92.3414 125.356 108.45 164.01 121.552 190.385C122.516 193.362 123.651 196.283 124.955 199.148C126.458 202.466 128.273 205.585 130.032 208.762C131.705 211.739 133.406 214.972 133.662 218.461C133.803 220.276 133.293 222.062 133.435 223.877C133.577 225.607 134.229 227.167 135.051 228.67C135.789 230.003 136.668 231.279 137.32 232.669C138.171 234.427 138.681 236.327 139.248 238.171C140.269 241.489 141.517 244.608 143.559 247.472C163.524 275.407 156.463 280.171 184.482 308.361C185.333 309.24 186.297 310.147 187.63 310.431C188.566 310.629 189.559 310.459 190.494 310.261C194.692 309.382 198.776 308.105 202.632 306.46C203.625 306.035 204.646 305.553 205.156 304.731C205.837 303.681 205.582 302.433 205.298 301.327Z" fill="#464558"/>
        <path opacity="0.25" d="M121.58 190.356C122.545 193.334 123.679 196.255 124.984 199.119C126.487 202.438 128.302 205.557 130.06 208.733C131.733 211.711 133.435 214.944 133.69 218.432C133.832 220.247 133.321 222.034 133.463 223.849C133.605 225.579 134.257 227.139 135.08 228.642C135.817 229.975 136.696 231.251 137.348 232.641C138.199 234.399 138.71 236.299 139.277 238.142C140.298 241.46 141.546 244.58 143.588 247.444C155.669 264.347 157.853 272.769 163.893 283.036C164.035 283.206 164.148 283.376 164.262 283.574C164.233 282.695 164.205 281.816 164.205 280.937C164.148 277.732 163.865 274.613 162.759 271.522C161.766 268.742 160.263 266.133 159.242 263.354C158.675 261.851 158.136 260.234 157.115 258.873C156.349 257.881 155.158 257.2 154.336 256.236C152.436 254.08 152.436 251.018 152.322 248.465C152.152 245.402 151.784 242.566 149.827 239.901C149.515 239.475 148.522 238.965 147.133 238.426C142.907 236.781 140.071 232.754 139.901 228.216C139.617 221.127 139.362 215.341 139.163 213.498C137.916 202.721 137.292 191.916 137.348 181.083C137.405 170.675 137.859 160.21 140.326 150.001C142.283 141.89 145.431 133.694 150.139 126.405C150.507 125.867 150.876 125.271 151.273 124.704C150.337 123.484 149.316 122.293 148.21 121.131C148.154 121.074 148.125 121.045 148.068 120.989C147.756 120.677 147.473 120.365 147.161 120.053C147.076 119.968 146.962 119.854 146.877 119.769C146.622 119.514 146.338 119.259 146.055 119.004C145.941 118.89 145.828 118.777 145.686 118.663C145.431 118.436 145.147 118.181 144.892 117.954C144.75 117.841 144.637 117.727 144.495 117.614C144.212 117.387 143.928 117.132 143.644 116.905C143.531 116.82 143.389 116.706 143.276 116.621C142.85 116.309 142.453 115.969 141.999 115.657C139.816 114.069 136.214 112.254 132.045 110.751C131.393 110.524 130.712 110.297 130.032 110.07C129.805 109.985 129.578 109.929 129.351 109.843C128.897 109.702 128.415 109.56 127.961 109.446C127.025 109.191 126.061 108.936 125.097 108.737C122.204 108.085 119.255 107.688 116.447 107.631C115.965 107.631 115.511 107.631 115.058 107.631C114.604 107.631 114.15 107.66 113.696 107.716C113.016 107.773 112.364 107.858 111.711 107.943C109.981 108.227 108.393 108.709 106.975 109.418C106.436 109.673 105.926 109.985 105.444 110.326C105.132 110.552 104.82 110.779 104.508 111.035C104.054 111.403 103.657 111.829 103.26 112.282C101.955 113.871 100.935 116.168 100.197 119.089C96.7657 135.792 110.265 167.64 121.58 190.356Z" fill="#2B2B37"/>
        <g opacity="0.29">
            <path opacity="0.29" d="M130.259 198.269C130.883 194.213 131.847 190.214 132.442 186.159C132.953 182.699 132.953 179.239 132.839 175.751C132.726 172.405 132.3 169.001 132.924 165.655C133.52 162.365 134.881 159.246 136.072 156.098C137.349 152.78 138.114 149.433 139.022 146.03C140.837 139.281 142.709 132.389 141.489 125.441C140.667 120.677 138.568 116.224 135.675 112.112C125.664 107.745 109.669 104.483 103.232 112.197C89.9594 128.164 116.731 182.047 129.379 205.415C129.606 203.061 129.89 200.651 130.259 198.269Z" fill="#2B2B37"/>
        </g>
        <path opacity="0.25" d="M205.298 301.327C202.661 290.494 199.995 279.661 197.358 268.827C194.975 259.072 192.877 251.613 190.948 245.686C190.353 243.133 189.559 240.638 188.566 238.17C179.463 215.001 184.085 222.941 180.654 211.172C180.03 208.988 179.151 206.861 177.959 204.933C176.797 203.033 175.35 201.303 174.074 199.46C172.798 197.616 171.777 195.688 171.267 193.476C170.728 191.094 170.756 188.626 170.784 186.187C170.955 173.255 168.856 170.845 163.042 153.205C160.036 138.458 154.648 124.902 141.999 115.629C141.886 115.543 141.772 115.458 141.659 115.373C141.631 115.345 141.574 115.317 141.546 115.288C141.46 115.232 141.375 115.175 141.29 115.118C141.234 115.09 141.205 115.061 141.149 115.033C141.063 114.976 141.007 114.92 140.922 114.891C140.865 114.863 140.808 114.835 140.752 114.778C140.666 114.721 140.61 114.693 140.525 114.636C140.468 114.608 140.411 114.551 140.354 114.523C140.269 114.466 140.184 114.437 140.128 114.381C140.071 114.352 140.014 114.296 139.929 114.267C139.844 114.211 139.759 114.182 139.674 114.126C139.617 114.097 139.532 114.04 139.475 114.012C139.39 113.955 139.305 113.927 139.22 113.87C139.163 113.842 139.078 113.785 139.022 113.757C138.936 113.7 138.823 113.643 138.738 113.587C138.681 113.558 138.625 113.53 138.568 113.502C138.398 113.417 138.256 113.331 138.086 113.246C138.029 113.218 137.972 113.19 137.916 113.161C137.802 113.105 137.689 113.048 137.604 112.991C137.518 112.963 137.433 112.906 137.348 112.878C137.263 112.821 137.178 112.793 137.065 112.736C136.98 112.708 136.895 112.651 136.781 112.622C136.696 112.594 136.611 112.537 136.526 112.509C136.441 112.452 136.327 112.424 136.242 112.367C136.157 112.339 136.072 112.282 135.987 112.254C135.874 112.197 135.789 112.169 135.675 112.112C135.59 112.084 135.505 112.027 135.42 111.999C135.306 111.942 135.221 111.913 135.108 111.857C135.023 111.828 134.938 111.8 134.881 111.743C134.768 111.687 134.654 111.658 134.541 111.602C134.484 111.573 134.399 111.545 134.314 111.516C134.2 111.46 134.059 111.403 133.945 111.375C133.888 111.346 133.86 111.346 133.803 111.318C133.293 111.119 132.782 110.921 132.244 110.722C132.215 110.722 132.187 110.694 132.187 110.694C132.017 110.637 131.875 110.581 131.705 110.524C131.648 110.495 131.62 110.495 131.563 110.467C131.393 110.41 131.251 110.354 131.081 110.297C131.024 110.269 130.967 110.269 130.939 110.24C130.769 110.184 130.627 110.127 130.457 110.07C130.4 110.042 130.343 110.042 130.315 110.013C130.145 109.957 130.003 109.9 129.833 109.872C129.776 109.843 129.748 109.843 129.691 109.815C129.521 109.758 129.351 109.701 129.181 109.645C129.152 109.645 129.124 109.616 129.096 109.616C127.649 109.191 126.175 108.794 124.7 108.482C124.501 108.425 124.274 108.397 124.076 108.34C124.076 108.34 124.076 108.34 124.048 108.34C117.553 107.036 110.832 106.979 106.266 109.645C106.294 109.645 106.323 109.645 106.351 109.645C113.072 110.382 120.049 112.566 125.295 116.196C129.096 118.805 132.329 122.236 135.165 125.583C138.284 129.27 140.922 133.24 143.077 137.38C147.615 146.144 149.515 155.474 150.337 164.946C151.273 175.552 150.564 186.187 148.465 196.652C147.87 199.545 147.444 202.863 150.422 204.961C153.882 207.372 158.59 207.429 162.418 209.159C167.041 211.229 167.041 215.313 167.438 219.17C167.92 223.764 171.607 226.77 175.379 229.804C178.924 232.669 181.646 235.675 183.121 239.674C184.652 243.842 184.964 248.295 185.021 252.634C185.135 261.34 180.852 269.394 174.386 276.087C171.55 279.037 168.629 281.901 165.254 284.425C165.198 284.482 165.141 284.51 165.084 284.567C170.444 292.734 176.882 300.448 184.567 308.162C184.794 308.389 184.993 308.587 185.248 308.814C185.815 309.353 186.467 309.835 187.233 310.09C187.375 310.147 187.545 310.176 187.715 310.232C188.538 310.402 189.388 310.289 190.211 310.119C190.324 310.09 190.438 310.062 190.551 310.034C191.09 309.92 191.601 309.807 192.111 309.693C193.16 309.438 194.181 309.183 195.202 308.899C195.713 308.758 196.223 308.587 196.734 308.446C198.747 307.822 200.732 307.084 202.661 306.262C203.029 306.092 203.398 305.95 203.767 305.751C204.136 305.553 204.447 305.354 204.731 305.099C204.93 304.929 205.071 304.759 205.213 304.56C205.412 304.248 205.525 303.908 205.582 303.568C205.667 302.915 205.497 302.093 205.298 301.327Z" fill="#2B2B37"/>
        <path d="M132.442 131.453C132.073 130.489 131.591 129.439 130.882 128.248C126.912 121.499 127.536 109.701 127.536 109.701C127.536 109.701 126.288 108.879 119.113 106.865C112.675 105.079 86.5274 96.6841 82.9257 96.4572L63.6695 95.2094C60.0678 95.4646 33.8067 105.079 27.3407 106.865C21.6403 108.453 19.6835 109.304 19.1163 109.588C19.9955 115.26 19.3999 121.102 18.2372 126.859C17.1312 132.417 15.4296 137.862 14.3235 143.449C12.8772 150.851 13.6996 154.935 14.4937 158.31C15.3445 161.94 17.3864 169.568 17.4715 169.937C20.5343 181.933 23.6255 208.875 21.0448 218.545C20.0522 222.317 19.2581 225.976 19.8253 229.918C20.1656 232.215 20.903 234.37 22.1792 236.185C22.1792 237.121 22.2076 238.057 22.2076 239.021C22.2643 243.275 22.4628 247.557 22.5762 251.868C25.4122 252.237 29.9214 252.237 30.4319 252.861C31.9917 254.732 40.3011 262.616 70.4191 263.098C71.355 263.07 72.2625 263.07 73.17 263.042C74.0775 263.07 74.985 263.098 75.9209 263.098C106.039 262.616 114.377 254.732 115.908 252.861C116.645 251.953 125.721 252.35 126.033 251.102C126.401 249.656 126.742 248.238 127.053 246.82C126.77 243.729 126.571 240.638 126.486 237.575C129.464 234.966 130.258 230.939 130.088 226.77C129.861 221.466 129.379 216.248 128.642 211.03C126.685 197.644 127.28 199.856 127.734 184.485C127.961 176.431 128.103 168.264 130.485 160.635C131.591 157.062 133.009 153.63 134.512 150.227C134.54 150 134.597 149.745 134.626 149.49C135.646 142.627 134.739 136.643 132.442 131.453Z" fill="#575770"/>
        <path opacity="0.11" d="M132.442 131.453C132.073 130.489 131.591 129.439 130.882 128.248C126.912 121.499 127.536 109.701 127.536 109.701C127.536 109.701 126.288 108.879 119.113 106.865C119.028 106.837 118.914 106.808 118.801 106.78C118.773 106.78 118.716 106.752 118.687 106.752C118.602 106.723 118.546 106.723 118.461 106.695C118.404 106.695 118.376 106.667 118.319 106.638C118.262 106.61 118.177 106.61 118.12 106.582C118.064 106.553 118.007 106.553 117.95 106.525C117.893 106.496 117.808 106.496 117.752 106.468C117.695 106.44 117.638 106.44 117.581 106.411C117.496 106.383 117.44 106.355 117.355 106.355C117.298 106.326 117.241 106.326 117.156 106.298C117.071 106.27 116.986 106.241 116.901 106.213C116.844 106.184 116.787 106.184 116.731 106.156C116.646 106.128 116.532 106.099 116.419 106.071C116.362 106.043 116.305 106.043 116.277 106.014C116.163 105.986 116.05 105.958 115.908 105.901C115.88 105.901 115.823 105.873 115.795 105.873C115.653 105.844 115.511 105.787 115.369 105.759C115.341 105.759 115.313 105.731 115.284 105.731C114.944 105.617 114.575 105.532 114.207 105.419C114.207 105.419 114.207 105.419 114.178 105.419C114.008 105.362 113.838 105.305 113.668 105.277C113.611 105.249 113.526 105.249 113.469 105.22C113.327 105.192 113.214 105.135 113.072 105.107C113.016 105.078 112.959 105.078 112.902 105.05C112.789 105.022 112.647 104.965 112.533 104.937C112.448 104.908 112.392 104.88 112.307 104.88C111.966 104.766 111.598 104.653 111.229 104.54C111.2 104.54 111.172 104.511 111.115 104.511C109.102 103.887 106.918 103.235 104.649 102.526C104.621 102.526 104.621 102.526 104.593 102.526C104.394 102.469 104.196 102.413 103.997 102.356C103.94 102.356 103.912 102.328 103.855 102.328C103.657 102.271 103.487 102.214 103.288 102.157C103.26 102.157 103.26 102.157 103.231 102.129C103.033 102.072 102.834 102.016 102.608 101.931C102.579 101.931 102.522 101.902 102.494 101.902C102.296 101.845 102.125 101.789 101.927 101.732C101.955 101.902 101.984 102.101 101.984 102.271C102.778 108.708 102.608 115.288 101.757 121.754C100.084 134.317 95.0638 147.079 84.5991 154.85C74.7866 162.138 61.8829 163.698 50.0569 162.734C41.3221 161.996 32.644 160.068 24.5048 156.891C20.6195 155.388 16.7342 153.573 13.3878 151.049C13.3878 151.22 13.3878 151.39 13.3878 151.588C13.3878 151.617 13.3878 151.673 13.3878 151.702C13.3878 151.843 13.3878 151.957 13.3878 152.099C13.3878 152.155 13.3878 152.184 13.3878 152.24C13.3878 152.354 13.3878 152.496 13.4161 152.609C13.4161 152.666 13.4161 152.694 13.4161 152.751C13.4161 152.893 13.4445 153.006 13.4445 153.12C13.4445 153.148 13.4445 153.176 13.4445 153.233C13.4729 153.545 13.5012 153.857 13.5296 154.169C13.5296 154.197 13.5296 154.226 13.5296 154.254C13.5579 154.367 13.5579 154.509 13.5863 154.623C13.5863 154.651 13.5863 154.708 13.6146 154.736C13.643 154.85 13.643 154.935 13.6714 155.048C13.6714 155.076 13.6714 155.133 13.6997 155.162C13.7281 155.275 13.7281 155.36 13.7564 155.473C13.7564 155.502 13.7564 155.559 13.7848 155.587C13.8132 155.7 13.8132 155.814 13.8415 155.927C13.8415 155.956 13.8415 155.956 13.8415 155.984C13.8699 156.126 13.8982 156.268 13.9266 156.381C13.9266 156.409 13.9266 156.409 13.9266 156.438C13.955 156.551 13.9833 156.665 13.9833 156.778C13.9833 156.806 14.0117 156.863 14.0117 156.891C14.0401 156.977 14.04 157.062 14.0684 157.147C14.0684 157.203 14.0967 157.232 14.0967 157.289C14.1251 157.374 14.1251 157.459 14.1535 157.544C14.1535 157.572 14.1818 157.629 14.1818 157.657C14.2102 157.742 14.2102 157.827 14.2385 157.912C14.2385 157.941 14.2669 157.997 14.2669 158.026C14.2953 158.139 14.3236 158.253 14.352 158.366C15.2028 161.996 17.2447 169.625 17.3298 169.994C20.3926 181.99 23.4838 208.931 20.9031 218.602C19.9105 222.374 19.1164 226.032 19.6836 229.974C20.024 232.271 20.7613 234.427 22.0375 236.242C22.0375 237.178 22.0659 238.113 22.0659 239.078C22.1226 243.332 22.3211 247.614 22.4345 251.925C25.2705 252.293 29.7797 252.293 30.2902 252.917C31.85 254.789 40.1594 262.673 70.2774 263.155C71.2133 263.127 72.1208 263.127 73.0283 263.098C73.9358 263.127 74.8433 263.155 75.7792 263.155C105.897 262.673 114.235 254.789 115.766 252.917C116.504 252.01 125.579 252.407 125.891 251.159C126.26 249.712 126.6 248.295 126.912 246.877C126.628 243.785 126.43 240.694 126.345 237.631C129.322 235.022 130.116 230.995 129.946 226.826C129.719 221.523 129.237 216.305 128.5 211.087C126.543 197.701 127.139 199.913 127.592 184.542C127.819 176.488 127.961 168.32 130.343 160.692C131.449 157.118 132.867 153.687 134.37 150.284C134.399 150.057 134.455 149.802 134.484 149.546C135.647 142.627 134.739 136.643 132.442 131.453Z" fill="#2B2B37"/>
        <path opacity="0.25" d="M71.8937 263.07C72.3191 263.07 72.7445 263.042 73.1699 263.042H73.1983C73.3684 263.042 73.5386 263.042 73.6804 263.042C74.5879 263.07 75.4954 263.098 76.4313 263.098C106.124 262.56 114.377 254.732 115.908 252.861C115.936 252.832 115.965 252.804 115.993 252.775C115.993 252.775 116.021 252.775 116.021 252.747C116.05 252.719 116.078 252.719 116.107 252.69C116.107 252.69 116.135 252.69 116.135 252.662C116.192 252.634 116.22 252.634 116.277 252.605C116.333 252.577 116.419 252.577 116.475 252.549C116.504 252.549 116.532 252.549 116.532 252.52C116.589 252.52 116.645 252.492 116.702 252.492C116.73 252.492 116.759 252.492 116.787 252.464C116.872 252.464 116.929 252.435 117.014 252.435H117.042C117.127 252.407 117.241 252.407 117.326 252.407C117.354 252.407 117.383 252.407 117.411 252.407C117.496 252.407 117.553 252.378 117.638 252.378C117.666 252.378 117.723 252.378 117.751 252.378C117.836 252.378 117.922 252.35 118.035 252.35C118.063 252.35 118.063 252.35 118.092 252.35C118.205 252.35 118.319 252.322 118.432 252.322C118.46 252.322 118.517 252.322 118.546 252.322C118.631 252.322 118.716 252.322 118.801 252.293C118.857 252.293 118.886 252.293 118.943 252.293C119.028 252.293 119.113 252.293 119.198 252.265C119.226 252.265 119.283 252.265 119.311 252.265C121.864 250.62 124.359 248.89 126.827 247.16C126.855 247.132 126.912 247.104 126.94 247.075C126.94 247.047 126.968 247.018 126.968 246.962C126.968 246.933 126.997 246.905 126.997 246.877C126.713 243.785 126.515 240.694 126.43 237.631C129.407 235.022 130.201 230.995 130.031 226.826C129.804 221.523 129.322 216.305 128.585 211.087C126.628 197.701 127.224 199.913 127.677 184.542C127.762 181.508 127.848 178.473 128.018 175.439C128.33 170.419 128.925 165.456 130.4 160.692C131.421 157.345 132.754 154.141 134.115 150.964C134.2 150.738 134.314 150.511 134.399 150.284C134.427 150.057 134.484 149.802 134.512 149.546C134.767 147.817 134.909 146.172 134.937 144.555C135.023 139.734 134.058 135.395 132.357 131.51C132.272 131.283 132.158 131.028 132.073 130.772C131.846 130.262 131.591 129.723 131.307 129.184C131.166 128.901 130.995 128.617 130.825 128.333C126.855 121.584 127.479 109.786 127.479 109.786C127.479 109.786 127.479 109.786 127.45 109.786C127.45 109.786 127.422 109.786 127.422 109.758C127.422 109.758 127.394 109.758 127.394 109.73C127.053 109.559 125.891 109.021 122.714 108.028C122.714 108.028 122.714 108.028 122.686 108.028C122.544 108 122.431 107.943 122.289 107.915C122.261 107.915 122.261 107.915 122.232 107.886C122.09 107.858 121.977 107.801 121.835 107.773C121.807 107.773 121.807 107.773 121.779 107.744C121.637 107.716 121.495 107.659 121.353 107.631C121.807 107.773 121.325 115.799 121.381 116.791C121.58 120.421 121.467 124.051 120.984 127.653C120.049 134.771 117.837 141.719 114.377 148.043C110.406 155.303 104.904 161.628 99.2609 167.697C93.8725 173.482 87.9453 179.948 87.7468 188.059C87.7185 189.307 87.8319 190.583 87.5199 191.802C87.2931 192.767 86.811 193.617 86.3572 194.468C84.4004 198.126 82.4152 201.785 80.43 205.472C78.2179 209.555 73.8222 211.626 70.022 214.036C65.7964 216.759 61.3439 219.113 56.7213 221.069C46.7954 225.295 36.2172 227.677 25.5255 228.301C25.1002 228.329 22.6328 228.443 19.6267 228.585C19.6551 229.067 19.7118 229.521 19.7685 230.003C20.1088 232.3 20.8462 234.455 22.1224 236.27C22.1224 237.206 22.1507 238.142 22.1507 239.106C22.1791 240.184 22.1791 241.233 22.2075 242.311C22.2926 245.515 22.4343 248.72 22.5194 251.953C25.3554 252.322 29.8646 252.322 30.3751 252.946C30.5169 253.116 30.7154 253.343 30.999 253.626C31.2826 253.91 31.6229 254.222 32.0483 254.562C32.2752 254.732 32.502 254.902 32.7573 255.101C33.2678 255.47 33.8917 255.867 34.6007 256.264C35.7918 256.944 37.2665 257.682 39.0815 258.391C39.4502 258.532 39.8189 258.674 40.2159 258.816C43.931 260.149 48.9223 261.425 55.6152 262.248C56.3242 262.333 57.0332 262.418 57.7706 262.503C58.8766 262.616 60.0394 262.73 61.2305 262.815C64.0097 263.013 67.0442 263.155 70.3623 263.212C70.9295 263.07 71.4116 263.07 71.8937 263.07Z" fill="#2B2B37"/>
        <path opacity="0.25" d="M71.8938 263.07C72.3192 263.07 72.7446 263.042 73.17 263.042H73.1984C73.3685 263.042 73.5387 263.042 73.6805 263.042C74.588 263.07 75.4955 263.099 76.4314 263.099C106.124 262.56 114.377 254.732 115.908 252.861C115.936 252.832 115.965 252.804 115.993 252.776C115.993 252.776 116.022 252.776 116.022 252.747C116.05 252.719 116.078 252.719 116.107 252.691C116.107 252.691 116.135 252.691 116.135 252.662C116.192 252.634 116.22 252.634 116.277 252.605C116.334 252.577 116.419 252.577 116.475 252.549C116.504 252.549 116.532 252.549 116.532 252.52C116.589 252.52 116.646 252.492 116.702 252.492C116.731 252.492 116.759 252.492 116.787 252.464C116.872 252.464 116.929 252.435 117.014 252.435H117.043C117.128 252.407 117.241 252.407 117.326 252.407C117.354 252.407 117.383 252.407 117.411 252.407C117.496 252.407 117.553 252.379 117.638 252.379C117.666 252.379 117.723 252.379 117.752 252.379C117.837 252.379 117.922 252.35 118.035 252.35C118.063 252.35 118.063 252.35 118.092 252.35C118.205 252.35 118.319 252.322 118.432 252.322C118.461 252.322 118.517 252.322 118.546 252.322C118.631 252.322 118.716 252.322 118.801 252.293C118.858 252.293 118.886 252.293 118.943 252.293C119.028 252.293 119.113 252.293 119.198 252.265C119.226 252.265 119.283 252.265 119.311 252.265C121.864 250.62 124.359 248.89 126.827 247.16C126.855 247.132 126.912 247.104 126.94 247.075C126.94 247.047 126.968 247.019 126.968 246.962C126.968 246.934 126.997 246.905 126.997 246.877C126.713 243.786 126.515 240.694 126.43 237.632C129.407 235.022 130.201 230.995 130.031 226.827C129.804 221.523 129.322 216.305 128.585 211.087C126.628 197.701 127.224 199.913 127.677 184.542C127.763 181.508 127.848 178.473 128.018 175.439C128.33 170.419 128.925 165.456 130.4 160.692C131.421 157.345 132.754 154.141 134.115 150.965C134.2 150.738 134.314 150.511 134.399 150.284C134.427 150.057 134.484 149.802 134.512 149.547C134.767 147.817 134.909 146.172 134.938 144.555C135.023 139.734 134.058 135.395 132.357 131.51C132.272 131.283 132.158 131.028 132.073 130.773C131.846 130.262 131.591 129.723 131.307 129.184C131.166 128.901 130.996 128.617 130.825 128.334C126.855 121.584 127.479 109.786 127.479 109.786C127.479 109.786 127.451 109.758 127.394 109.758C127.139 109.616 126.174 109.162 123.537 108.312C124.019 108.454 124.303 114.239 124.359 114.948C124.586 117.132 124.756 119.315 124.983 121.527C125.522 126.462 125.919 131.453 125.409 136.416C123.906 151.22 114.774 163.925 105.812 175.893C101.984 180.997 98.0132 186.499 97.4176 192.994C97.134 196 97.6161 199.062 97.3609 202.069C96.4817 211.938 87.9171 216.986 80.2316 221.07C72.2625 225.323 63.6695 228.216 54.878 230.003C46.7388 231.676 32.1619 233.321 20.7896 233.86C21.1583 234.711 21.5837 235.533 22.0942 236.299C22.0942 237.235 22.1225 238.17 22.1225 239.135C22.1509 240.212 22.1509 241.262 22.1792 242.339C22.2643 245.544 22.4061 248.749 22.4912 251.982C25.3272 252.35 29.8364 252.35 30.3468 252.974C30.4886 253.144 30.6871 253.371 30.9707 253.655C31.2543 253.938 31.5947 254.25 32.0201 254.591C32.2469 254.761 32.4738 254.931 32.7291 255.129C33.2395 255.498 33.8634 255.895 34.5724 256.292C35.7635 256.973 37.2382 257.71 39.0533 258.419C39.4219 258.561 39.7906 258.703 40.1876 258.845C43.9028 260.177 48.8941 261.454 55.587 262.276C56.296 262.361 57.005 262.446 57.7423 262.531C58.8484 262.645 60.0111 262.758 61.2022 262.843C63.9815 263.042 67.016 263.184 70.3341 263.24C70.9296 263.07 71.4117 263.07 71.8938 263.07Z" fill="#2B2B37"/>
        <path d="M77.5944 129.751C76.7152 128.674 75.4957 127.823 74.4464 126.915C73.1986 125.838 71.9224 124.788 70.6462 123.739C68.1506 121.641 65.6549 119.514 63.3294 117.216C59.8128 113.785 56.5515 109.928 54.4245 105.504C52.8363 105.901 51.1631 106.44 49.4332 107.064C52.099 112.395 55.1335 117.613 58.3948 122.605C59.9546 124.987 61.5711 127.369 63.3861 129.61C65.1444 131.793 67.0729 133.949 69.4268 135.48C70.391 136.104 71.4687 136.558 72.5747 136.785C72.6314 136.473 72.7165 136.189 72.7732 135.877C72.8299 135.65 73.1419 135.764 73.1135 135.962C73.0568 136.246 72.9717 136.529 72.915 136.813C74.1912 136.983 75.4957 136.813 76.7436 136.132C79.2959 134.799 79.2392 131.793 77.5944 129.751Z" fill="#575770"/>
        <path opacity="0.25" d="M101.501 101.675C100.452 103.746 97.3892 111.686 96.0847 113.643C94.4965 116.082 92.6815 118.294 91.0083 120.676C89.5336 122.747 88.1156 124.845 86.5274 126.859C84.9109 128.929 83.1526 130.971 81.054 132.559C80.4301 133.013 79.7778 133.438 79.0688 133.778C78.6434 135.622 76.8851 136.785 75.0134 137.125C74.276 137.267 73.567 137.267 72.8864 137.182C70.646 146.54 65.7965 155.105 60.5216 163.159C55.5586 170.731 50.1135 178.019 45.0371 185.62C39.9324 193.305 35.5933 201.501 32.8141 210.491C31.2543 215.483 30.1483 220.616 29.0422 225.749C27.8511 231.25 26.7168 236.809 25.6107 242.367C24.9868 245.572 24.3629 248.748 23.9942 252.01C26.7167 252.237 30.0348 252.322 30.4886 252.86C30.8856 253.371 31.7931 254.278 33.438 255.385C33.5514 252.01 33.9485 248.663 34.6575 245.374C39.7622 221.353 58.0826 193.958 73.3969 168.065C93.192 134.516 109.641 104.852 101.501 101.675Z" fill="#2B2B37"/>
        <path opacity="0.25" d="M128.103 118.748C127.337 113.7 127.564 109.701 127.564 109.701C127.564 109.701 126.316 108.879 119.141 106.865C114.15 105.476 97.3612 100.144 88.3711 97.7053C84.0888 104.029 77.4526 100.995 73.0852 101.959C65.4564 100.258 60.3801 104.483 60.3801 104.483C56.6933 104.738 52.6095 97.9322 47.7032 99.889C51.2482 107.121 57.8561 114.352 69.5686 112.396C82.5858 110.212 120.673 114.012 128.103 118.748Z" fill="#2B2B37"/>
        <path opacity="0.25" d="M75.5808 109.758C77.8212 109.333 80.0049 108.68 82.2454 109.475C83.3798 109.9 84.4574 110.439 85.6202 110.751C87.0665 111.091 88.5412 111.261 90.0159 111.318C96.6521 111.573 105.188 109.815 107.996 103.547C101.36 101.505 93.5326 99.1233 88.3144 97.7053C84.032 104.029 77.3959 100.995 73.0285 101.959C65.3997 100.258 60.3233 104.483 60.3233 104.483C56.6365 104.738 52.5527 97.9322 47.6465 99.889C53.2617 103.831 60.5502 107.149 68.4342 109.9C70.8731 110.212 73.2553 110.212 75.5808 109.758Z" fill="#2B2B37"/>
        <path opacity="0.25" d="M70.1355 139.904C61.7977 144.016 55.0481 156.948 48.9507 165.995C33.7499 188.626 24.8733 215.88 22.1508 232.498C22.1508 234.654 22.1791 236.838 22.2075 239.021C22.2359 241.403 22.3209 243.786 22.406 246.168C23.2284 247.813 24.5046 249.032 26.2346 249.032C28.7019 249.06 30.4885 246.593 31.708 244.324C39.904 229.01 41.7757 211.172 47.9298 195.291C51.1344 187.038 55.4735 179.381 60.0961 172.007C63.244 166.988 67.3562 162.422 68.916 156.637C69.5115 154.396 75.3253 137.352 70.1355 139.904Z" fill="#2B2B37"/>
        <path opacity="0.25" d="M50.3688 104.682C50.3688 104.682 55.6721 116.593 61.0037 123.172C66.3637 129.78 72.8298 135.877 72.8298 135.877L81.0541 132.559C81.0541 132.559 71.4401 129.213 64.7756 122.945C58.1111 116.706 50.3688 104.682 50.3688 104.682Z" fill="#2B2B37"/>
        <path d="M71.2699 146.626C72.2625 145.576 73.3118 144.584 74.3327 143.563C76.7717 141.152 79.1539 138.628 81.451 136.047C60.4081 122.803 58.4513 117.217 45.8029 96.741C45.6327 96.4857 46.7955 124.76 71.2699 146.626Z" fill="#2B2B37"/>
        <path d="M72.8865 130.347C72.4327 131.624 71.8655 132.871 71.2416 134.006C69.7952 136.615 67.9519 139.11 65.7398 141.152C67.4414 143.024 69.2848 144.839 71.2983 146.626C72.2909 145.576 73.3402 144.584 74.3611 143.563C76.8001 141.152 79.1823 138.628 81.4795 136.048C78.1614 134.006 75.3537 132.106 72.8865 130.347Z" fill="#21212B"/>
        <path d="M99.8565 99.5484C96.9071 111.119 28.5601 173.255 22.2075 236.213C22.2075 237.149 22.2359 238.085 22.2359 239.021C22.2926 243.502 22.5195 248.011 22.6329 252.549H30.602C30.602 247.444 31.5095 242.339 33.2962 237.603C40.613 218.233 67.7532 166.392 75.779 155.077C102.21 117.585 104.025 99.5484 99.8565 99.5484Z" fill="#2B2B37"/>
        <path d="M66.1653 146.824C59.2172 154.651 53.4034 163.641 49.036 173.397C48.6957 174.134 48.3837 174.9 48.4121 175.694C48.4404 176.488 48.9793 177.339 49.745 177.424C50.2555 177.481 50.7659 177.226 51.1913 176.914C54.5945 174.673 56.7215 170.873 58.4231 167.101C59.5575 164.634 60.5784 162.11 61.968 159.784C63.3293 157.459 65.2861 155.786 66.8459 153.659C67.8668 152.241 68.1788 151.021 68.4057 149.291C68.6326 147.533 68.5192 144.158 66.1653 146.824Z" fill="#2B2B37"/>
        <path opacity="0.25" d="M56.7498 124.42C58.7066 127.228 59.7559 123.853 58.9619 121.896C58.2812 120.251 57.1185 118.436 55.7288 117.273C54.7363 116.451 53.8004 115.997 53.4034 117.5C52.7795 119.826 55.587 122.718 56.7498 124.42Z" fill="#464557"/>
        <path opacity="0.25" d="M89.0232 120.024C90.5262 118.181 88.0589 118.096 86.9245 119.003C85.9603 119.769 84.9677 120.903 84.4856 122.066C84.1169 122.889 84.0035 123.626 85.0812 123.598C86.726 123.598 88.144 121.13 89.0232 120.024Z" fill="#464557"/>
        <path opacity="0.25" d="M77.3107 129.241C74.3329 132.928 71.185 136.898 67.952 141.095C68.1788 141.634 68.7461 141.918 69.8804 141.776C73.5672 141.322 76.1479 135.452 77.8779 132.701C79.4093 130.375 78.6719 129.354 77.3107 129.241Z" fill="#464557"/>
        <path opacity="0.14" d="M22.6046 116.054C22.4628 118.152 24.1077 120.421 26.2063 120.194C29.4677 119.854 38.2875 112.197 35.7635 109.389C32.5872 105.873 22.8315 112.821 22.6046 116.054Z" fill="#D8D8D8"/>
        <path opacity="0.14" d="M98.2119 128.674C97.588 128.305 93.7878 130.772 95.7729 132.36C96.9357 133.268 98.8642 132.36 98.9209 130.29C98.9209 129.666 98.7224 128.986 98.2119 128.674Z" fill="#D8D8D8"/>
        <path d="M105.844 121.335C105.526 127.076 108.001 132.614 111.089 137.522C114.864 143.502 131.285 161.956 119.255 171.247C117.599 172.53 115.518 173.303 114.09 174.813C111.796 177.243 111.784 180.944 112.8 184.029C113.81 187.06 125.201 203.001 110.879 215.505L102.63 208.666C113.368 205.887 113.673 198.102 111.926 191.567C110.127 184.896 105.275 179.217 109.18 175.241C111.023 173.371 116.189 172.882 117.426 170.572C126.389 153.916 96.8191 161.654 95.5811 139.47C95.2818 133.932 96.7512 128.452 98.2699 123.091C103.302 105.362 97.6566 103.834 91.911 98.2256C87.9294 94.3472 85.421 89.0435 85.3178 83.5929C85.2146 78.1423 87.5606 72.6116 91.8331 68.9374C88.0784 95.2931 107.463 92.5202 105.844 121.335Z" fill="#74A352"/>
        <path d="M99.0578 95.746C98.567 95.3317 98.078 94.935 97.5703 94.5401C93.5394 91.3068 89.6554 88.0413 87.294 83.4703C86.6018 82.1508 86.1124 80.7936 85.7326 79.4078C86.5635 75.4487 88.6719 71.7022 91.8366 68.9728C89.7985 83.1891 94.5444 88.9314 99.0578 95.746Z" fill="#568040"/>
        <path d="M91.7431 81.7888C90.3122 79.4389 88.8248 76.7032 87.832 73.8479C88.8719 72.0205 90.2078 70.342 91.8331 68.9375C91.0364 74.5831 91.2891 78.8806 92.1652 82.4589C92.0313 82.2408 91.8788 82.0245 91.7431 81.7888Z" fill="#3E5C2E"/>
        <path opacity="0.49" d="M111.528 138.173C114.316 142.311 121.285 150.824 123.135 158.789C118.584 149.488 89.5025 147.484 105.94 117.145C105.956 118.46 105.942 119.849 105.844 121.335C105.526 127.076 108.001 132.614 111.089 137.522C111.2 137.69 111.312 137.874 111.442 138.057C111.464 138.09 111.506 138.14 111.528 138.173Z" fill="#AED888"/>
        <path d="M103.808 115.682C102.402 119.893 99.5277 123.484 97.1458 127.31C97.5143 125.905 97.9015 124.497 98.2886 123.089C101.478 111.82 100.358 107.091 97.6446 103.711C98.7571 104.153 99.8074 104.726 100.758 105.433C102.702 106.897 104.148 109.014 104.396 111.356C104.558 112.816 104.271 114.285 103.808 115.682Z" fill="#3E5C2E"/>
        <path opacity="0.49" d="M110.817 141.818C107.736 139.097 106.153 135.961 106.957 131.916C107.072 131.371 107.23 130.875 107.425 130.376C108.381 132.861 109.667 135.261 111.089 137.523C112.376 139.549 115.118 143.033 117.712 147.101C115.434 145.296 112.973 143.724 110.817 141.818Z" fill="#AED888"/>
        <path d="M141.003 216.59C135.836 218.014 127.75 212.157 130.675 200.929C136.739 177.606 136.623 169.026 132.479 154.755C129.965 146.087 131.638 160.154 131.638 160.154C131.638 160.154 132.284 175.155 131.596 180.073C130.926 184.992 128.453 198.505 128.065 203.002C127.678 207.499 128.515 212.997 131.202 215.078C133.871 217.139 141.003 216.59 141.003 216.59Z" fill="#74A352"/>
        <path d="M95.7244 113.284C90.5536 145.042 117.636 138.536 125.234 143.536C127.047 144.737 128.503 146.417 129.679 148.286C130.983 150.35 131.952 152.623 132.55 155.006C133.43 158.476 133.496 162.109 133.415 165.702C133.23 174.722 132.27 183.752 130.169 192.498C126.453 208.064 127.772 208.814 138.679 220.908C129.072 217.216 127.569 210.358 127.683 202.611C127.794 195.039 141.362 139.368 112.583 144.212C111.454 144.488 110.381 144.687 109.974 144.779C94.5774 148.028 81.7467 137.766 92.0676 110.476C94.5289 103.938 100.69 89.2135 91.9978 80.1224C102.24 84.7115 97.2424 103.913 95.7244 113.284Z" fill="#3E5C2E"/>
        <path d="M112.583 144.231C111.453 144.507 110.381 144.706 109.973 144.798C108.326 145.145 106.718 145.338 105.149 145.357C105.912 144.864 106.675 144.352 107.474 143.879C109.408 142.724 111.767 141.555 114.232 140.716C118.744 141.525 122.909 141.982 125.235 143.517C127.047 144.718 128.503 146.398 129.68 148.267C130.983 150.331 131.952 152.603 132.55 154.987C133.43 158.457 133.496 162.09 133.415 165.682C133.231 174.703 132.27 183.733 130.17 192.479C126.453 208.045 127.773 208.795 138.68 220.889C129.072 217.196 127.569 210.338 127.683 202.592C127.812 195.059 141.361 139.388 112.583 144.231Z" fill="#568040"/>
        <path d="M95.7239 113.284C92.3297 134.148 102.834 138.489 112.61 140.445C104.735 142.975 96.7498 142.433 90.1541 136.961C87.4743 131.248 87.5076 122.535 92.0668 110.496C94.5282 103.957 100.689 89.233 91.9971 80.1419C102.24 84.7116 97.2419 103.913 95.7239 113.284Z" fill="#568040"/>
        <path d="M96.269 105.002C95.9317 106.911 95.502 108.838 94.9809 110.686C93.9208 114.344 92.1459 117.587 89.9677 120.613C89.6112 121.092 89.2345 121.706 88.8024 122.319C89.3439 118.809 90.4076 114.861 92.0486 110.496C93.1931 107.476 95.0972 102.727 95.9909 97.599C96.5321 100.117 96.7432 102.458 96.269 105.002Z" fill="#3E5C2E"/>
        <path d="M103.067 137.584C99.7926 136.674 96.3578 135.318 94.2156 132.413C91.6559 128.942 91.5496 124.072 93.3139 120.191C93.8072 119.096 94.4837 118.119 95.2335 117.181C94.1573 129.649 98.7955 135.213 104.851 138.05C104.226 137.907 103.619 137.745 103.067 137.584Z" fill="#74A352"/>
        <path d="M130.792 153.864C132.328 159.525 131.678 168.888 130.868 174.713C131.618 158.724 127.905 142.507 112.657 144.213C118.49 139.628 128.39 145.025 130.792 153.864Z" fill="#3E5C2E"/>
        <path d="M47.162 72.0122C47.162 72.0122 44.1258 74.7914 43.5054 77.4275C42.9089 80.0637 46.2851 84.1788 46.2851 84.1788L50.8781 81.4831L47.162 72.0122Z" fill="#75A152"/>
        <path d="M100.596 72.8889C100.596 72.8889 103.633 77.3679 102.523 83.1292C101.42 88.8845 96.5403 90.2741 96.5403 90.2741L94.8939 87.8348L100.596 72.8889Z" fill="#568040"/>
        <path d="M89.3702 88.4909C89.4239 93.6498 82.421 97.9081 73.742 98.0214C65.0629 98.1348 57.9706 94.0494 57.9408 88.8905C57.9109 83.7316 64.89 79.4732 73.569 79.3599C82.2182 79.2466 89.3106 83.332 89.3702 88.4909Z" fill="#21212B"/>
        <path d="M47.1023 50.6848C46.9592 52.1877 46.8757 53.7205 46.822 55.2234C46.7385 57.5792 46.7087 59.929 46.9055 62.2848C47.6988 71.2488 52.0413 79.3838 57.4277 86.0814C56.181 81.006 55.3579 75.8173 54.9582 70.5689C54.7316 67.4497 54.648 64.2709 55.0716 61.1815C55.6979 56.613 57.4277 52.307 58.1912 47.7683C58.5909 45.4125 58.7341 43.0329 58.8713 40.6473C59.0144 38.208 59.1576 35.7687 59.3246 33.3294C59.4976 30.407 58.0481 27.8842 55.7516 30.4666C54.1351 32.2558 52.7452 34.3254 51.5522 36.4784C49.1722 40.7904 47.6094 45.669 47.1023 50.6848Z" fill="#2B2B37"/>
        <path d="M97.9063 50.0645C98.1032 51.5674 98.1927 53.0704 98.2762 54.6031C98.3895 56.9589 98.473 59.3088 98.3299 61.6646C97.7035 70.6524 93.534 78.9066 88.2908 85.7116C89.4241 80.6064 90.1638 75.3879 90.4441 70.1156C90.6171 66.9964 90.641 63.8176 90.1638 60.7282C89.454 56.1896 87.6406 51.9372 86.7876 47.3986C86.3343 45.0726 86.1374 42.6929 85.9644 40.3073C85.7676 37.868 85.5648 35.4287 85.3679 32.9894C85.1413 30.067 86.5311 27.5144 88.8873 30.0372C90.5336 31.7966 91.9771 33.8065 93.2 35.9357C95.6396 40.188 97.286 45.0368 97.9063 50.0585V50.0645Z" fill="#2B2B37"/>
        <path d="M100.913 46.9691C100.716 45.8896 100.203 44.8399 99.3795 44.3031C98.1865 43.5099 97.1665 43.5397 96.3135 44.1302C93.9574 28.8145 84.2881 17.3874 72.7996 17.5305C61.311 17.6736 51.8685 29.3572 49.8225 44.7266C48.9456 44.16 47.9256 44.16 46.7565 44.9831C45.9333 45.5496 45.4501 46.6291 45.2533 47.7086C45.0803 48.7881 45.1937 49.8915 45.307 50.971C45.7902 54.9132 46.5537 58.8256 47.6333 62.6247C47.8302 63.3344 48.033 64.0143 48.4028 64.6406C49.1126 65.7737 50.3892 66.4298 51.606 66.2866C51.7193 66.2568 51.8327 66.2568 51.946 66.233C55.9187 77.3201 64.0847 84.8647 73.414 84.7514C82.7492 84.638 90.7721 76.8669 94.5181 65.6962C94.6314 65.726 94.7447 65.7558 94.8581 65.7558C96.0809 65.8692 97.3574 65.1893 98.0374 64.0263C98.4072 63.4 98.6041 62.6963 98.7771 62.0104C99.7732 58.1815 100.477 54.2691 100.877 50.297C100.99 49.1638 101.074 48.0545 100.907 46.981L100.913 46.9691Z" fill="#D58500"/>
        <path d="M87.4676 30.0968C89.1437 30.6336 90.8139 31.23 92.4603 31.886C88.0939 23.1248 80.8882 17.453 72.7758 17.5365C61.2873 17.6796 51.8447 29.3632 49.7987 44.7326C48.9219 44.166 47.8959 44.166 46.7327 44.989C45.9096 45.5556 45.4264 46.6351 45.2296 47.7086C45.0625 48.7881 45.1759 49.8915 45.2892 50.971C45.5695 53.3804 45.9692 55.7661 46.4822 58.1159C47.025 57.776 47.5857 57.4897 48.1285 57.2392C49.065 56.7859 50.0015 56.4161 50.9917 56.0762C52.0416 35.2318 64.3771 22.4688 87.4676 30.0968Z" fill="#B45F00"/>
        <path d="M71.8093 51.4779C71.8093 51.4779 82.6178 50.4283 90.7004 52.5813C98.7531 54.7343 99.6598 55.0504 99.6598 55.0504L97.8166 60.752L71.8093 51.4779Z" fill="#B45F00"/>
        <path opacity="0.36" d="M100.912 46.969C100.715 45.8895 100.202 44.8399 99.3793 44.3031C98.1863 43.5099 97.1663 43.5397 96.3133 44.1301C95.86 41.0944 95.0965 38.2019 94.1003 35.5359C94.0466 35.4226 94.0168 35.3093 93.9572 35.196C93.6768 34.4326 93.3607 33.6931 93.0206 32.9535C92.967 32.8104 92.9073 32.6971 92.8477 32.5539C92.7641 32.3571 92.6806 32.1841 92.5673 32.0172C92.4838 31.874 92.4241 31.7309 92.3406 31.5937C92.2571 31.4208 92.1676 31.2538 92.0603 31.0808C91.9768 30.9377 91.9171 30.7945 91.8336 30.6574C91.7501 30.4844 91.6368 30.3174 91.5473 30.1445C91.4638 30.0013 91.3803 29.8582 91.2908 29.721C91.2073 29.548 91.094 29.4109 91.0105 29.2379C90.9269 29.0948 90.8375 28.9516 90.7539 28.8145C90.6704 28.6713 90.5571 28.5043 90.4736 28.3612C90.3901 28.2181 90.2768 28.0749 90.1873 27.9377C90.1038 27.7946 89.9904 27.6515 89.9069 27.5143C89.7936 27.3712 89.7101 27.228 89.5968 27.0909C89.5132 26.9477 89.3999 26.8344 89.3104 26.6913C89.1971 26.5183 89.0838 26.3811 88.9406 26.238C88.8571 26.1247 88.7676 26.0114 88.6841 25.8981C88.4873 25.6416 88.2606 25.3851 88.0638 25.1585C88.0041 25.0989 87.9504 25.0154 87.8908 24.9617C87.7178 24.7649 87.5508 24.5919 87.3837 24.4249C87.3002 24.3414 87.2108 24.252 87.1272 24.1685C86.9841 24.0253 86.8469 23.8822 86.7037 23.7152C86.6202 23.6317 86.5069 23.5422 86.4234 23.4289C86.2802 23.2858 86.143 23.1426 85.9999 23.0293C85.9163 22.9458 85.803 22.8564 85.7195 22.7729C85.5764 22.6297 85.4392 22.5164 85.296 22.4031C85.1827 22.3196 85.0992 22.2302 84.9858 22.1467C84.8427 22.0333 84.6756 21.8902 84.5325 21.7769C84.449 21.6934 84.3356 21.6337 84.2462 21.5503C84.0791 21.4369 83.936 21.3236 83.763 21.2103C83.6795 21.1507 83.5662 21.0672 83.4827 21.0135C83.3097 20.9002 83.1426 20.7869 82.9756 20.6735C82.8921 20.6139 82.8026 20.5602 82.7191 20.5006C82.5223 20.3873 82.3254 20.2441 82.0988 20.1308C82.0391 20.101 81.9854 20.0473 81.9258 20.0175C81.383 19.7074 80.8223 19.4211 80.2794 19.1646C80.2496 19.1348 80.1959 19.1348 80.1661 19.111C79.9394 18.9976 79.683 18.9141 79.4563 18.8247C79.3728 18.7949 79.3131 18.765 79.2296 18.7412C79.0328 18.6577 78.8061 18.598 78.6033 18.5146C78.5198 18.4847 78.4303 18.4549 78.317 18.431C78.1201 18.3714 77.9233 18.3177 77.7205 18.2581C77.637 18.2283 77.5236 18.2044 77.4342 18.1746C77.2373 18.1209 77.0405 18.0911 76.8377 18.0315C76.778 18.0315 76.7243 18.0016 76.6945 18.0016H76.7243C75.4776 17.7452 74.231 17.6021 72.9246 17.6021C61.4361 17.7452 51.9935 29.4288 49.9475 44.7981C49.0707 44.2315 48.0447 44.2315 46.8815 45.0546C46.0583 45.6212 45.5752 46.7007 45.3783 47.7742C45.2054 48.8537 45.3247 49.957 45.432 51.0365C45.7183 53.446 46.112 55.8316 46.625 58.1815C47.1619 57.8415 47.7285 57.5552 48.2713 57.3047C49.6612 56.6547 51.0809 56.1119 52.5542 55.6885C53.5205 55.4022 54.5107 55.1219 55.5009 54.9251V54.6686C54.0514 9.03767 119.63 35.0409 82.4209 67.5987C79.8679 69.8412 76.6885 71.1413 73.6583 72.3938C70.0018 73.9266 66.0291 75.3162 62.0862 75.4593C60.1834 75.513 58.3164 75.2327 56.4434 74.8092C60.8097 81.0775 66.9119 84.9362 73.6046 84.8467C82.9339 84.7334 90.9627 76.9623 94.7087 65.7916C94.8221 65.8214 94.9354 65.8453 95.0487 65.8453C96.2716 65.9586 97.5481 65.2787 98.2281 64.1157C98.5979 63.4895 98.7948 62.7857 98.9677 62.0998C99.9639 58.2709 100.668 54.3585 101.067 50.3864C101.008 49.14 101.097 48.0306 100.924 46.9571L100.912 46.969Z" fill="#B45F00"/>
        <path d="M100.913 46.9691C100.716 45.8896 100.203 44.8399 99.3796 44.3031C98.1866 43.5099 98.9561 41.834 98.0733 42.4006C97.5663 39.1681 95.7171 36.4187 93.4803 34.1225L90.4441 33.4724C97.0234 41.5537 98.1568 54.4301 92.4304 62.5412C90.4739 65.2906 89.9609 63.9607 87.044 65.1236C85.9942 65.5471 84.8907 65.8036 83.7812 66.06C83.298 66.5729 82.8149 67.0262 82.278 67.4794C79.7011 69.6623 76.5457 71.0221 73.5155 72.2745C69.853 73.8073 65.8863 75.1969 61.9434 75.3401C60.0465 75.3997 58.1735 75.1134 56.3005 74.69C60.6669 80.9582 66.7631 84.8169 73.4618 84.7275C82.797 84.6142 90.8199 76.843 94.5659 65.6723C94.6792 65.7021 94.7926 65.732 94.9059 65.732C96.1227 65.8453 97.3992 65.1654 98.0792 64.0024C98.4491 63.3762 98.6459 62.6664 98.8189 61.9865C99.8151 58.1576 100.519 54.2452 100.919 50.2732C101.002 49.1698 101.092 48.0605 100.919 46.981L100.913 46.9691Z" fill="#B45F00"/>
        <path opacity="0.36" d="M81.5085 51.5077C80.1485 50.5416 80.5124 41.017 80.6019 40.7307L78.7289 40.021C75.639 46.5457 75.5555 50.2016 75.5555 56.0703C75.5555 56.5235 77.6253 56.607 77.7983 57.0364C77.9415 57.436 78.1681 57.776 78.3948 58.0861C79.045 58.9091 79.9576 59.589 80.918 59.6487C81.9142 59.7024 82.958 59.0523 83.2443 57.9728C83.3278 57.5732 83.3278 57.1796 83.298 56.78C83.125 55.0504 81.7113 51.6449 81.5085 51.5077Z" fill="#B45F00"/>
        <g opacity="0.36">
            <path opacity="0.36" d="M66.9061 33.7528C66.9061 34.0391 66.9896 34.3194 67.1327 34.5759C67.5026 35.2856 68.1527 35.7687 68.8327 36.0788C69.0057 36.1623 69.2026 36.222 69.3994 36.1921C71.1889 35.9655 68.9759 33.5262 68.3496 33.2161C67.7829 32.9298 66.9299 32.7628 66.9061 33.7528Z" fill="#E2A040"/>
            <path opacity="0.36" d="M59.0443 44.3926C59.2411 43.9931 60.0106 43.9692 60.3207 44.0527C60.6906 44.1362 61.1439 44.166 61.2274 44.6789C61.2811 45.1918 60.8278 45.4721 60.4341 45.4721C60.1239 45.4721 59.3007 45.329 59.1278 44.9891C58.9846 44.7326 58.9607 44.5358 59.0443 44.3926Z" fill="#E2A040"/>
            <path opacity="0.36" d="M81.711 45.3291C81.711 44.9056 82.3612 44.4523 82.7012 44.339C83.071 44.2257 83.4706 43.9991 83.751 44.3987C84.0314 44.8221 83.751 45.3052 83.411 45.502C83.1545 45.675 82.3612 45.9851 82.045 45.7883C81.7885 45.675 81.705 45.502 81.705 45.335L81.711 45.3291Z" fill="#E2A040"/>
            <path opacity="0.36" d="M57.6007 50.7981C57.9407 50.8279 58.2807 50.6013 58.4775 50.315C58.561 50.1718 58.6505 50.0287 58.6505 49.8617C58.6505 49.7782 58.6207 49.6888 58.5968 49.6351C58.3702 49.0387 57.4933 48.9254 57.0638 49.2951C56.4375 49.7782 56.9505 50.7683 57.6007 50.7981Z" fill="#E2A040"/>
            <path opacity="0.36" d="M89.7936 50.2614C90.1336 50.2912 90.4736 50.0645 90.6705 49.7783C90.754 49.6351 90.8435 49.492 90.8435 49.325C90.8435 49.2415 90.8136 49.152 90.7898 49.0984C90.5631 48.502 89.6862 48.3886 89.2568 48.7584C88.6603 49.2117 89.1732 50.2315 89.7936 50.2614Z" fill="#E2A040"/>
        </g>
        <path opacity="0.36" d="M71.3261 44.506C69.6499 39.0906 60.2909 38.7745 55.2445 39.0608C55.0178 39.0608 54.7912 39.0906 54.6182 39.2338C54.5645 39.2636 54.5347 39.3172 54.5049 39.3769C54.4512 39.5737 54.648 39.7168 54.7912 39.8003C65.0867 44.2793 68.8327 44.4523 68.8327 48.0784C68.8327 52.5336 65.2299 48.8418 46.7086 55.8794L49.5181 65.3205C52.5245 64.1277 55.501 62.8812 58.4537 61.5512C69.3755 56.6428 74.5651 55.0564 71.3321 44.506H71.3261Z" fill="#B45F00"/>
        <path d="M67.9977 40.0328C67.2521 39.6511 61.3945 38.178 54.7912 41.0587C54.7376 41.0646 54.6779 41.0766 54.6302 41.1123C54.6004 41.1123 54.5765 41.1481 54.5526 41.178H54.4989C54.3618 41.2316 54.4333 41.5418 54.5646 41.4642C54.6421 41.4225 54.7554 41.3807 54.833 41.339C61.1499 39.6213 63.7148 43.8618 67.4787 42.9433C68.7791 42.6093 69.483 40.7605 68.0037 40.0328H67.9977Z" fill="#323147"/>
        <path opacity="0.36" d="M87.6403 41.9236C87.5568 41.9833 87.4674 42.0369 87.3838 42.0966C85.9344 43.1761 84.461 44.2496 82.6477 43.9395C80.548 43.5995 78.1083 41.0469 78.7585 40.367C78.9553 40.1702 80.3511 40.2537 80.6017 40.194C81.6813 39.9376 82.755 39.7408 83.8347 39.5976C84.8845 39.4545 85.9344 39.2875 86.9842 39.3114C88.7439 39.3412 90.5274 39.365 92.2572 39.6215C92.4839 39.6513 92.6808 39.705 92.8537 39.8481C92.8836 39.878 92.9372 39.9316 92.9372 39.9913C92.9909 40.1881 92.7643 40.3312 92.6271 40.3909C91.5772 40.7606 90.4439 40.5638 89.394 40.9038C88.7677 41.1304 88.2011 41.53 87.6344 41.9236H87.6403Z" fill="#B45F00"/>
        <path d="M79.9753 42.9672C83.763 43.8678 86.2206 39.5915 92.5554 41.2674C92.6389 41.2972 92.7523 41.333 92.8298 41.3927C92.967 41.4583 93.0386 41.178 92.9014 41.1124C92.9014 41.1124 92.8835 41.1024 92.8477 41.0825C92.8238 41.0527 92.8238 41.0229 92.794 41.0229C92.7403 41.0229 92.6807 40.9871 92.627 40.9871C85.9522 38.184 80.1662 39.681 79.4086 40.0686C77.9531 40.7903 78.7107 42.6451 79.9753 42.9672Z" fill="#323147"/>
        <path opacity="0.36" d="M66.7867 47.7921C65.7368 44.4761 59.8077 44.9294 62.134 43.9632C62.3905 43.8797 66.1305 43.7664 66.7867 47.7921Z" fill="#B45F00"/>
        <path d="M56.7478 78.7336C56.551 78.5904 53.0853 77.6839 53.0853 77.9105C53.0853 78.1371 55.8054 85.7353 56.0082 86.0514C56.205 86.3616 61.311 90.3933 61.311 90.3933C61.311 90.3933 64.5739 87.4709 64.5739 87.2443C64.5739 87.0176 64.1742 84.638 64.1742 84.638L56.7419 78.7395L56.7478 78.7336Z" fill="#21212B"/>
        <path d="M97.5363 73.8252C99.2065 69.5729 100.37 56.1836 100.37 56.1836C72.7995 49.2056 73.3125 49.2056 45.9153 56.8635C45.9153 56.8635 46.3389 60.7461 46.989 64.9746C47.5318 66.0243 48.182 67.0739 48.6652 68.064C49.6017 69.9367 50.568 71.7497 51.4747 73.6225C52.2681 75.2685 53.0912 76.8848 54.0277 78.4414C54.1112 78.5547 54.2246 78.668 54.314 78.7814C57.0341 82.0974 60.9769 84.1669 64.5798 86.0158C65.8265 86.642 67.0731 87.1191 68.3258 87.4352C72.2388 87.4889 76.3248 87.4054 80.208 87.2384C84.2642 86.4988 88.3204 85.4492 92.0366 83.4393C93.5398 82.6162 94.8461 84.9124 93.7068 85.9323C95.6096 85.5923 97.2261 85.2225 98.3893 84.7693L98.3356 80.1173C97.1426 78.5309 96.4089 76.7416 97.5422 73.8193L97.5363 73.8252Z" fill="#464558"/>
        <path d="M97.5363 73.8252C99.2065 69.5728 100.37 56.1835 100.37 56.1835C87.4675 52.9212 80.7151 51.1618 74.3922 51.0246C74.1357 52.0147 73.8255 53.0107 73.4855 53.9768C72.6087 56.3565 71.3322 58.6825 69.4293 60.3584C67.2462 62.3146 64.1802 63.4239 61.2871 63.3941C56.9745 63.3344 55.1313 59.1119 55.0776 54.3168C53.4611 54.7701 47.7586 56.3565 45.8856 56.8694C45.8856 56.8694 46.3091 60.752 46.9652 64.9805C47.5081 66.0302 48.1582 67.0799 48.6414 68.0699C49.5779 69.9426 50.5383 71.7557 51.4509 73.6284C52.2442 75.2745 53.0674 76.8907 54.0039 78.4473C54.0874 78.5607 54.2008 78.674 54.2843 78.7873C57.0103 82.1033 60.9531 84.1728 64.55 86.0217C65.7967 86.6479 67.0433 87.125 68.296 87.4411C72.209 87.4948 76.295 87.4113 80.1782 87.2443C84.2344 86.5048 88.2906 85.4551 92.0068 83.4452C93.51 82.6222 94.8163 84.9183 93.677 85.9382C95.5798 85.5982 97.1963 85.2285 98.3595 84.7752L98.3058 80.1232C97.1426 78.5368 96.403 76.7476 97.5423 73.8252H97.5363Z" fill="#323147"/>
        <path d="M48.695 68.0699C49.6315 69.9426 50.5978 71.7557 51.5045 73.6284C52.2978 75.2744 53.121 76.8907 54.0575 78.4473C54.141 78.5606 54.2543 78.674 54.3438 78.7873C57.0638 82.1033 61.0067 84.1728 64.6095 86.0217C65.8562 86.6479 67.1089 87.125 68.3556 87.4411C70.0556 87.4709 71.7616 87.4709 73.4914 87.4411C73.3482 87.3815 77.7444 84.972 77.6013 84.9183C73.9149 83.3856 61.1797 87.4411 54.0038 66.5669C52.8406 63.1614 52.0175 59.6784 51.5343 56.1L51.4508 55.3366C49.3511 55.933 46.995 56.5831 45.9213 56.8694C45.9213 56.8694 46.3448 60.752 46.995 64.9805C47.5616 66.06 48.2178 67.0798 48.695 68.0699Z" fill="#2B2B37"/>
        <path d="M74.5354 87.4113C74.5951 87.3517 74.6487 87.2682 74.6786 87.1847C75.5017 85.968 76.1221 84.6023 76.3786 83.1291C76.6589 81.4831 76.4919 79.8131 76.1519 78.2207C75.8417 76.7476 75.3586 75.2983 75.2452 73.7954C75.1319 72.4654 75.4719 71.1891 75.9849 69.9367C76.4919 68.72 77.1481 67.5809 77.4881 66.3046C77.7446 65.3145 77.8817 64.2648 77.7982 63.239C77.7445 62.1894 77.4582 61.0562 76.6947 60.2868C76.0445 59.6069 74.6249 59.0105 73.748 59.6367C73.0084 60.1496 72.9248 61.3365 72.8413 62.1595C72.728 63.2629 72.5312 64.3126 72.048 65.3384C71.5052 66.5312 70.7178 67.5808 70.008 68.6544C69.1848 69.9009 68.475 71.2368 68.1648 72.7099C67.5146 75.6025 68.3378 78.3519 69.8111 80.8211C70.9445 82.6938 72.2508 84.5903 72.7877 86.7493C72.8473 86.976 72.8712 87.1728 72.9308 87.3994C73.4975 87.4292 74.0343 87.4292 74.5473 87.3994L74.5354 87.4113Z" fill="#2B2B37"/>
        <path d="M97.5364 73.8253C99.2066 69.5729 100.37 56.1837 100.37 56.1837C100.4 55.8139 88.4279 53.2076 87.1215 52.9213C84.0555 52.2414 80.6853 51.3349 77.5358 51.2216C77.5656 53.8875 76.7663 57.6866 79.3253 59.5891C79.8323 59.9589 80.4288 60.2153 80.9418 60.5553C83.8945 62.5115 83.4948 66.8772 81.252 68.2966C80.3453 68.8632 78.872 69.1734 79.892 70.6763C80.4288 71.4397 81.252 72.0063 81.932 72.6027C82.4987 73.0858 83.1787 73.6524 83.3755 74.4158C83.5187 75.0122 83.4053 75.6086 83.119 76.1155C85.0457 80.7377 74.1298 87.2921 58.5552 82.5269C60.5118 83.8568 62.6114 84.9662 64.5978 85.986C65.8444 86.6123 67.0971 87.0894 68.3438 87.4055C72.2568 87.4591 76.3428 87.3756 80.226 87.2087C84.2822 86.4691 88.3384 85.4194 92.0546 83.4096C93.5577 82.5865 94.8641 84.8827 93.7248 85.9025C95.6276 85.5626 97.2441 85.1928 98.4073 84.7395L98.3476 80.0876C97.1308 78.525 96.3911 76.7417 97.5244 73.8193L97.5364 73.8253Z" fill="#2B2B37"/>
        <path d="M97.5363 73.8252C99.2065 69.5728 100.37 56.1835 100.37 56.1835C100.4 55.7303 94.864 54.6508 94.4107 54.5673C93.6472 54.3943 92.8777 54.1975 92.0843 54.0305C91.804 53.9709 91.291 53.7442 91.0047 53.7741C90.605 53.8337 90.5812 54.1736 90.3784 54.5136C89.5254 56.0464 88.8155 57.1795 88.905 59.0522V59.249C89.0184 60.9786 89.6148 62.6247 90.0085 64.2946C90.265 65.3443 90.4619 66.4238 90.3485 67.4735C89.9787 70.879 86.8053 73.1751 85.499 76.3241C85.0993 77.2903 84.9025 78.34 84.3657 79.2465C83.3456 80.9463 81.3593 81.7693 80.053 83.2424C79.4028 83.982 78.9196 84.8885 78.1263 85.4551C77.2196 86.1052 76.0564 86.2185 74.9469 86.1648C74.0701 86.135 73.0739 85.8547 72.2269 85.9919C71.9167 86.0515 66.7272 87.3278 60.285 83.6957C64.1146 91.27 74.8098 88.0912 78.6333 87.465C83.2264 86.7016 87.8492 85.6758 92.0486 83.3796C93.6352 82.5029 95.0251 85.1927 93.4384 86.0754C93.4086 86.1052 93.3549 86.1052 93.3251 86.135C95.3949 85.6817 97.1247 85.1986 98.4013 84.7454L98.3416 80.0934C97.1247 78.5308 96.3851 76.7476 97.5184 73.8252H97.5363Z" fill="#21212B"/>
        <path d="M90.4438 75.5011C89.4536 78.2207 88.3442 80.8867 86.8708 83.326C85.481 85.6221 83.8048 87.7513 81.9616 89.5942C81.0848 90.4709 80.0886 91.1806 79.3251 92.2005C78.9255 92.7134 78.5616 93.2502 78.1619 93.7034L78.1918 95.4032C83.9241 95.2899 89.6505 94.8664 95.353 94.1269C96.1165 92.6538 96.9695 91.2045 97.6197 89.6717C98.3295 88.0257 99.0096 86.2663 99.4331 84.5128C99.4629 84.3995 99.4867 84.316 99.5166 84.2027C96.3969 74.3322 116.165 32.3631 91.9112 12.9084C78.3528 2.04786 68.0036 3.09754 55.8589 12.3418C29.8754 32.1365 50.723 75.1015 47.5497 84.9721C47.4363 85.3418 47.2693 85.7116 47.0963 86.0515C47.7227 87.8109 48.5398 89.457 49.3928 91.0733C50.043 92.2661 50.6693 93.4828 51.3493 94.6457C51.3792 94.6994 51.4329 94.7889 51.4627 94.8426C57.2189 96.2024 65.9874 99.6615 70.664 99.751C72.9306 99.7808 73.5868 99.2679 72.8173 96.3216L71.6243 96.3515L71.5945 94.4788C71.4812 94.3654 71.3678 94.2521 71.2545 94.1388C70.4313 93.2621 69.465 92.5762 68.4211 92.0693C59.9688 87.9541 55.7396 77.5468 52.8764 69.0421C48.9872 57.5016 49.19 42.1561 54.8031 35.5181C64.359 24.258 81.4069 23.8882 91.2789 35.1185C97.918 42.6631 100.698 55.3963 91.3386 72.9783C91.0284 73.8312 90.7421 74.6542 90.4319 75.5011H90.4438Z" fill="#464558"/>
        <path d="M47.8123 80.7197C47.9256 82.4791 47.8659 83.9224 47.5319 84.972C47.4186 85.3418 47.2515 85.7116 47.0786 86.0515C47.7049 87.8109 48.5221 89.457 49.3751 91.0733C50.0253 92.2661 50.6516 93.4827 51.3316 94.6457C51.3614 94.7054 51.4151 94.7889 51.4449 94.8425C57.2011 96.2023 65.9637 99.6615 70.6462 99.751C72.3164 99.7808 73.1157 99.4945 73.1157 98.1347C58.1138 89.7671 50.6218 91.5862 47.8123 80.7197Z" fill="#323147"/>
        <path opacity="0.32" d="M96.7428 90.6141C97.4527 89.141 98.1327 87.638 98.7292 86.1053C99.0095 85.3955 99.1825 84.6321 99.4092 83.8926C97.1663 75.1314 110.498 44.1899 100.149 23.2024C100.489 26.8345 100.208 30.4606 99.099 33.9198C98.2222 36.699 96.9158 39.3352 95.4127 41.7446C98.5323 49.319 98.3355 59.7799 91.3266 72.9664C91.0165 73.8193 90.7301 74.6423 90.4199 75.4892C89.4298 78.2089 88.3203 80.8748 86.8469 83.3141C85.4571 85.6102 83.7809 87.7394 81.9377 89.5823C81.0609 90.459 80.0648 91.1687 79.3012 92.1886C78.6749 93.0415 78.0784 93.9182 77.2314 94.5146V95.3913C83.1904 95.3078 89.1434 94.9082 95.0428 94.115C95.6393 92.952 96.1762 91.789 96.7428 90.5962V90.6141Z" fill="#323147"/>
        <path opacity="0.32" d="M89.567 29.6734C89.3701 27.5443 88.0936 25.5045 86.5606 24.2879C85.2304 23.2084 83.5841 22.7849 81.9676 22.7014C78.5914 22.5285 75.3047 23.6378 71.9583 23.8943C70.0555 24.0374 68.2123 23.608 66.3155 23.441C64.0726 23.2143 62.0624 23.7511 60.3326 25.4568C58.7161 27.0731 57.5231 29.1426 56.1333 30.9855C54.7732 32.7747 53.1269 34.218 51.6237 35.8343C50.2339 37.3372 48.9037 38.9535 47.9374 40.856C47.4542 41.8222 47.0605 42.842 46.7742 43.9215C46.464 45.1382 46.291 46.4145 46.0107 47.6371C45.4142 50.1898 44.5373 52.6589 44.1675 55.2353C44.0005 56.4818 44.0005 57.7045 44.0005 58.9509C45.0205 65.3862 46.3805 71.3144 47.1738 76.0499C47.5735 76.7894 47.997 77.4991 48.4205 78.2029C49.5837 80.1293 50.8602 82.0318 51.5402 84.2445C52.1904 86.2842 52.2799 88.6102 51.6237 90.6558C51.3136 91.622 50.8841 92.4689 50.3472 93.2383H51.0571L51.0869 94.771C56.5031 95.9877 63.4523 99.6496 68.5285 99.7033C70.1152 99.7331 71.7913 99.4767 72.7278 98.2839C72.9545 97.9976 73.038 97.2044 72.871 96.441L71.5408 96.4708L71.511 94.4549C71.4275 94.3714 71.344 94.2581 71.2306 94.1687C70.4075 93.2919 69.4411 92.6061 68.3913 92.0992C59.9389 87.9899 52.3097 78.513 49.4465 70.0083C45.5633 58.4679 49.1661 42.186 54.7792 35.554C63.6312 25.0871 78.9732 24.0374 89.0122 32.9477C89.4954 31.9278 89.6922 30.8185 89.5789 29.6853L89.567 29.6734Z" fill="#323147"/>
        <path d="M49.375 44.7565C49.035 45.9493 49.0648 47.166 49.0052 48.3886C49.0052 48.5854 48.9753 48.8121 48.9753 49.0387C49.6852 45.7764 50.7052 42.7168 51.928 40.1642C50.9318 41.6373 49.8581 43.0269 49.375 44.7565Z" fill="#464558"/>
        <path d="M97.4529 90.7035C98.1628 88.8904 98.9561 87.1012 99.5228 85.2285C99.5765 85.0556 99.6361 84.8886 99.6898 84.6918C99.6361 84.5784 99.6063 84.4353 99.5466 84.322C97.9003 79.5269 101.986 66.74 103.573 52.6469C102.35 59.1119 96.7371 77.4872 96.6238 77.7437C96.1168 79.0498 95.4904 80.3798 94.6971 81.4891C93.9873 82.5089 93.0209 83.1053 92.0606 83.7852C91.4343 84.2087 90.8378 84.6918 90.4739 85.4015C90.2174 85.8846 90.1041 86.4213 89.9907 86.9641C89.7641 88.0436 89.5374 89.1171 88.8872 89.97C88.2669 90.7632 87.4139 91.2463 86.5609 91.6697C85.3679 92.2661 84.1808 92.8029 82.8984 93.119C81.3654 93.4887 79.8622 93.5186 78.3352 93.5186C77.9355 93.9718 77.5418 94.3953 76.999 94.6816C76.5755 94.938 72.9726 98.0572 72.5491 98.3137C79.385 98.3137 88.8037 95.4509 96.0929 94.0613C96.5462 93.0116 96.9996 91.8486 97.4529 90.7155V90.7035Z" fill="#323147"/>
        <path d="M54.8212 35.4883C62.0806 26.9239 73.7123 24.6576 83.1847 29.0233C82.4212 28.5104 81.6577 28.0034 80.9717 27.3772C80.4886 26.9239 80.1486 26.8405 79.5282 26.7271C79.2478 26.6675 79.0212 26.6138 78.7587 26.4707C77.9117 26.0472 77.0885 25.5641 76.1818 25.2779C75.7822 25.1646 75.3885 25.0512 74.959 24.9677C74.9053 24.9677 74.8457 24.9677 74.786 24.9379C73.593 24.8246 72.406 24.6278 71.213 24.598C69.9962 24.5443 68.8032 24.8842 67.5803 24.9081C66.2502 24.9677 65.1108 24.9677 63.9775 25.8146C63.0708 26.4945 62.2476 27.2341 61.3111 27.8305C59.3546 29.077 57.3385 30.1863 55.8055 32.1425C55.0956 33.049 54.4991 34.0987 54.0756 35.208C53.9623 35.4645 53.0258 37.7606 52.316 38.5837C38.3579 54.293 49.4229 98.2242 73.2172 97.4847C73.4141 96.095 71.7439 94.5921 71.3741 94.1686C70.4674 93.2024 69.3877 92.4689 68.2544 91.9023C59.8616 87.7632 55.5191 77.6363 52.6559 69.1852C49.2798 59.2014 48.3433 46.3548 52.6559 38.5837C53.3061 37.707 54.3858 36.0311 54.8093 35.4943L54.8212 35.4883Z" fill="#323147"/>
        <path d="M43.9289 40.5638C47.2215 38.2974 50.4247 35.715 53.0374 32.4825C55.8469 28.9935 58.0838 24.8246 59.5571 20.4291C60.607 17.3397 61.2333 14.1072 61.2572 10.7852C61.2572 10.1053 61.2572 9.44931 61.2035 8.76941C59.4438 9.78926 57.6603 10.9821 55.8409 12.3717C46.1121 19.8029 42.9327 30.4905 42.6226 41.4405C43.0759 41.1304 43.4994 40.8441 43.9229 40.5638H43.9289Z" fill="#575770"/>
        <g opacity="0.25">
            <path opacity="0.25" d="M72.7161 24.0015C72.5192 24.0015 72.3462 23.8882 72.2627 23.6914C71.5827 21.9618 71.8392 20.0891 72.0659 18.3059C72.2389 17.0594 72.3761 15.7831 72.2389 14.5903C72.1852 14.1668 72.0957 13.7136 71.9824 13.2603C71.8989 12.9203 71.8094 12.5506 71.7557 12.1808C71.4157 10.2246 71.6722 8.18488 71.8989 6.36584C71.9287 6.05571 72.1852 5.85293 72.4417 5.91257C72.6982 5.94239 72.895 6.22269 72.8652 6.53878C72.6385 8.35186 72.4119 10.1948 72.722 11.984C72.7757 12.3239 72.8652 12.6341 72.9189 12.974C73.0322 13.4273 73.1455 13.9104 73.1992 14.4173C73.3722 15.7533 73.1992 17.1131 73.0262 18.443C72.7996 20.1726 72.6027 21.7889 73.1694 23.262C73.2827 23.5483 73.1694 23.8584 72.9129 23.9717C72.8592 24.0015 72.7698 24.0015 72.7161 24.0015Z" fill="#2B2B37"/>
        </g>
        <path d="M90.8975 34.2657C89.9013 33.2995 88.8276 32.4526 87.6943 31.7429C88.9708 32.709 90.1876 33.8422 91.2971 35.1185C97.9361 42.663 100.686 55.3665 91.3568 72.9485C91.0466 73.8014 90.7304 74.6482 90.4203 75.5011C89.4301 78.2207 88.3206 80.8866 86.8472 83.3259C86.2806 84.2921 85.6543 85.1987 84.9742 86.0754C90.8736 80.5467 95.8663 73.9087 98.3298 65.6008C102.076 53.2373 98.4133 41.5776 90.8975 34.2657Z" fill="#575770"/>
        <path d="M102.273 65.8275C102.046 63.9846 102.1 62.1417 102.302 60.2988H102.219L101.085 66.3106C99.7553 70.1693 98.6458 74.1116 97.7391 78.1075C97.4826 79.2108 97.2559 80.3202 96.8861 81.3996C95.6633 85.1153 93.1997 88.0913 90.7601 90.9839C91.1597 91.467 91.8636 91.3536 92.4303 91.1568C94.5836 90.4173 96.5998 89.1708 98.276 87.471C98.8426 86.9045 99.4093 86.2544 99.6956 85.4552C100.346 83.7256 99.7553 81.7098 100.179 79.8967C100.489 78.5369 101.342 77.4276 101.938 76.1811C102.702 74.6185 103.072 72.8353 103.012 71.046C102.958 69.2568 102.505 67.5571 102.273 65.8275Z" fill="#323147"/>
        <path d="M47.842 70.1097C47.3887 66.1377 46.7624 62.1716 46.142 58.2294C45.8557 56.303 45.5455 54.3706 45.2652 52.474C45.0683 51.1977 44.8655 49.9214 44.5553 48.6749H42.8851C43.1118 50.661 43.4518 52.647 43.6248 54.5436C43.9052 57.8596 43.9946 61.2352 43.4816 64.5572C43.2013 66.3166 42.7718 68.1595 43.3683 69.8056C43.595 70.4557 43.9648 70.9984 44.3048 71.5948C45.8915 74.374 46.6848 77.7199 46.488 81.012C46.4343 82.0021 46.2912 83.0279 46.5178 83.9881C47.3112 87.6202 54.0635 93.9123 56.1632 93.7751C52.3933 88.3896 48.361 74.4933 47.854 70.1217L47.842 70.1097Z" fill="#464558"/>
        <path d="M46.512 80.2366C46.512 80.493 46.5119 80.7197 46.4821 80.9761C46.4284 81.9661 46.2853 82.992 46.512 83.9522C47.3053 87.5843 54.0577 93.8764 56.1573 93.7332C55.2805 92.4867 61.9732 94.6696 60.7802 92.7432C56.3005 90.0236 52.471 90.4172 46.512 80.2366Z" fill="#323147"/>
        <path d="M48.4087 75.1315C48.2119 73.4556 48.0389 71.7856 47.842 70.1097C47.3887 66.1377 46.7624 62.1716 46.142 58.2294C45.8557 56.303 45.5455 54.3706 45.2652 52.474C45.0683 51.1977 44.8655 49.9214 44.5553 48.6749H42.8851C43.1118 50.661 43.4518 52.647 43.6248 54.5436C43.9052 57.8596 43.9946 61.2352 43.4816 64.5572C43.2013 66.3166 42.7718 68.1595 43.3683 69.8056C43.595 70.4557 43.9648 70.9984 44.3048 71.5948C44.788 72.4178 45.1817 73.2945 45.4978 74.2011C46.4343 73.4377 47.9673 73.5749 48.4206 75.1374L48.4087 75.1315Z" fill="#464558"/>
        <path d="M42.909 93.0534C43.4161 94.7293 44.3824 96.1726 45.3487 97.6218C46.3687 99.1248 47.3888 100.687 48.8084 101.791C50.2281 102.924 51.9579 103.55 53.6878 104.087C57.7738 105.363 61.997 106.127 66.256 106.413C70.1153 106.669 73.9687 106.496 77.7982 107.063C80.6912 107.486 83.6141 108.309 86.5369 108.029C88.5233 107.832 90.4499 107.123 92.2931 106.329C95.2995 104.999 98.276 103.323 100.405 100.711C102.505 98.1049 103.609 94.4132 102.505 91.2105C102.249 90.4471 101.682 89.5942 100.889 89.6479C100.405 89.6777 100.012 90.0713 99.642 90.4113C93.8261 96.1964 86.4832 100.675 78.4544 101.385C76.4382 101.558 74.428 101.498 72.4417 101.415C70.9385 101.361 69.4353 101.302 67.956 100.962C65.916 100.479 64.043 99.4588 62.0566 98.8325C60.0106 98.2063 57.8334 98.0095 55.8173 97.2461C51.9579 95.773 49.1544 92.3377 46.5119 89.0813C45.4621 87.7752 45.1817 86.3557 44.442 85.0258C42.569 86.982 42.1455 90.5008 42.909 93.0534Z" fill="#75A152"/>
        <path opacity="0.37" d="M102.469 91.1807C102.213 90.4173 101.646 89.5644 100.853 89.6181C100.37 89.6479 99.9761 90.0415 99.6063 90.3815C93.7904 96.1666 86.4475 100.646 78.4187 101.355C76.4025 101.528 74.3923 101.469 72.406 101.385C70.9028 101.331 69.3996 101.272 67.9203 100.932C66.4768 100.592 65.1108 99.9657 63.7209 99.4289C64.8841 101.582 65.3076 104.164 63.8641 106.15C64.6574 106.234 65.4269 106.323 66.2203 106.347C70.0796 106.604 73.933 106.431 77.7625 106.997C80.6555 107.421 83.5784 108.244 86.4952 107.963C88.4816 107.767 90.4083 107.057 92.2574 106.264C95.2638 104.934 98.2403 103.258 100.37 100.652C102.469 98.099 103.573 94.3833 102.469 91.1807Z" fill="#568040"/>
        <path d="M102.469 91.1866C102.213 90.4232 101.646 89.5703 100.853 89.624C100.37 89.6538 99.9759 90.0474 99.6061 90.3874C93.7903 96.1725 86.4474 100.652 78.4185 101.361C76.4023 101.534 74.3921 101.475 72.4058 101.391C70.9026 101.337 69.3994 101.278 67.9201 100.938C65.8801 100.455 64.0071 99.4349 62.0208 98.8087C59.9748 98.1824 57.7916 97.9856 55.7814 97.2222C51.9221 95.7491 49.1185 92.3138 46.476 89.0574C45.4262 87.7513 45.1458 86.3318 44.4062 85.0019C44.1497 85.2881 43.923 85.5685 43.6964 85.9084C44.0364 88.1211 45.5157 90.1071 46.4224 92.0633C47.5259 94.5324 48.2118 97.1983 50.0252 99.238C51.7013 101.111 53.8249 102.101 56.2109 102.471C57.4039 102.644 58.6207 102.667 59.8137 102.84C60.9769 103.013 62.1103 103.323 63.2734 103.52C64.5499 103.717 65.8264 103.747 67.1029 103.944C68.3794 104.117 69.6261 104.343 70.9026 104.48C72.0956 104.624 73.2528 104.767 74.422 105.047C75.7522 105.357 77.0585 105.727 78.4185 105.84C80.7747 106.037 83.3277 106.15 85.654 105.697C86.9305 105.441 88.1772 104.987 89.4537 104.677C90.0204 104.534 90.6169 104.451 91.1836 104.278C91.6667 104.135 92.1201 103.908 92.6032 103.824C93.5099 103.681 94.2794 104.164 94.8699 104.928C96.9398 103.824 98.8426 102.435 100.316 100.616C102.469 98.093 103.579 94.3774 102.469 91.1747V91.1866Z" fill="#568040"/>
        <path d="M49.4047 95.0393C49.8282 96.2858 50.2816 97.5919 51.1644 98.582C52.1605 99.6615 53.604 100.258 54.9641 100.598C57.7437 101.308 60.7262 101.361 63.5298 101.677C65.9993 101.934 68.3495 101.82 70.7057 101.367C69.7692 101.313 68.8327 101.194 67.926 100.997C65.886 100.514 64.013 99.4945 62.0266 98.8742C59.9866 98.248 57.8034 98.0512 55.7872 97.2878C52.6377 96.095 50.198 93.5722 47.9612 90.9062C48.5577 92.2362 48.9514 93.6557 49.4047 95.0453V95.0393Z" fill="#3E5C2E"/>
        <path d="M75.8654 103.24C77.5416 103.92 79.3251 104.003 81.1146 103.89C82.9041 103.777 84.7473 103.663 86.507 103.323C88.1235 103.013 89.6803 102.614 91.2968 102.387C92.9432 102.131 94.5597 101.934 96.0629 101.194C97.2797 100.598 98.586 99.918 99.5524 98.8981C100.656 97.7351 100.996 96.1487 101.223 94.5861C101.449 92.9997 101.169 91.294 101.366 89.7373C101.193 89.6538 101.026 89.624 100.859 89.6539C100.376 89.6837 99.9819 90.0773 99.612 90.4173C93.7962 96.2024 86.4533 100.681 78.4244 101.391C76.5812 101.564 74.7381 101.504 72.8651 101.445C73.8552 102.095 74.7917 102.811 75.8714 103.234L75.8654 103.24Z" fill="#3E5C2E"/>
        <path d="M62.707 96.2858C65.5165 96.7391 95.7231 102.524 101.283 79.6401C101.563 78.507 101.563 79.6938 102.702 79.7236C104.629 98.5283 84.8072 106.639 66.5663 102.894C36.6996 96.7987 42.8257 71.7258 45.2654 77.3976C46.2317 79.6938 44.8418 93.3932 62.7129 96.2858H62.707Z" fill="#75A152"/>
        <path d="M62.707 96.2858C65.5165 96.7391 95.7231 102.524 101.283 79.6401C101.563 78.507 101.563 79.6938 102.702 79.7236C104.629 98.5283 84.8072 106.639 66.5663 102.894C36.6996 96.7987 42.8257 71.7258 45.2654 77.3976C46.2317 79.6938 44.8418 93.3932 62.7129 96.2858H62.707Z" fill="#75A152"/>
        <path d="M45.6887 85.4849C45.4919 84.3518 45.3786 83.1888 45.3786 82.0258C45.2951 81.2027 45.2056 80.1233 44.6985 79.4433C44.6449 79.3599 44.5554 79.2704 44.4719 79.2465C44.2989 79.1869 44.1319 79.2763 44.0185 79.3897C43.9052 79.5328 43.8754 79.6998 43.8456 79.8728C43.7322 80.8389 44.2154 81.7455 44.4122 82.6818C44.5793 83.4452 44.5256 84.2683 44.5554 85.0615C44.5852 85.8547 44.6687 86.6777 45.0684 87.3576C45.1817 87.5545 45.3249 87.7274 45.5515 87.7572C45.7782 87.7572 45.9751 87.5604 46.0049 87.3338C46.0586 87.1071 46.0049 86.8507 45.9512 86.6241C45.8379 86.2245 45.7544 85.8607 45.6947 85.4909L45.6887 85.4849Z" fill="#AED888"/>
        <path d="M49.2021 93.2561C49.2021 93.3396 49.2021 93.4291 49.2319 93.4828C49.2915 93.6557 49.4884 93.7392 49.6554 93.7929C49.7687 93.8227 49.8821 93.8764 49.9656 93.8764C50.0789 93.8764 50.1923 93.8466 50.2459 93.7333C50.2996 93.6736 50.2996 93.5901 50.2996 93.5066C50.2996 93.3098 50.2698 93.0832 50.1564 92.9102C49.7866 92.457 49.2796 92.7134 49.1901 93.2502L49.2021 93.2561Z" fill="#AED888"/>
        <path d="M76.7723 98.8146C76.3488 98.8146 75.8955 98.8445 75.466 98.9578C73.5095 99.4111 70.9266 99.8643 70.02 101.141C69.6501 101.648 69.507 102.56 70.3898 102.817C71.2965 103.073 72.2329 102.447 72.8593 101.713C73.5095 100.944 73.5691 100.21 78.9257 100.52L76.7723 98.8206V98.8146Z" fill="#568040"/>
        <path opacity="0.37" d="M102.696 79.7296C101.563 79.6998 101.563 78.513 101.276 79.6461C96.4268 99.584 72.9129 97.7649 65.057 96.6616C67.1567 97.3713 69.2802 97.8782 71.3262 98.7907C73.1157 99.6138 75.0126 100.55 76.2891 102.137C76.6887 102.62 76.9691 103.156 77.1659 103.723C91.631 103.097 104.253 94.8724 102.696 79.7296Z" fill="#568040"/>
        <path d="M54.5049 96.3752C58.6207 98.9279 63.6134 99.0949 68.2601 99.4408C78.8659 100.264 94.3271 103.979 97.9538 92.1527C98.1805 91.3595 103.77 90.28 102.69 79.7057C101.557 79.6759 101.557 78.4891 101.27 79.6222C95.711 102.506 65.5043 96.7212 62.6948 96.2679C54.8389 94.9916 50.6933 91.6458 48.4564 88.0733C49.5063 91.5026 51.6596 94.598 54.4989 96.3812L54.5049 96.3752Z" fill="#568040"/>
        <path d="M60.4639 96.4289C62.48 96.7987 64.5201 96.8285 66.5362 96.8524C64.5797 96.6258 63.1899 96.3693 62.6769 96.2858C57.8274 95.4926 54.4214 93.93 51.9578 92.0036C54.2245 94.3594 57.4337 95.8624 60.4639 96.4289Z" fill="#3E5C2E"/>
        <path d="M76.0623 97.4489C80.9417 97.932 85.9045 98.0453 90.5035 95.9459C91.5832 95.4629 92.6867 94.8128 93.5695 93.9897C94.3629 93.2263 94.8699 92.2304 95.7527 91.5206C97.3692 90.2145 99.3556 89.7076 100.489 87.805C101.765 85.652 100.632 83.2127 100.036 80.7436C99.2661 91.461 83.9838 97.1626 74.1118 97.2759C74.7918 97.3296 75.4181 97.3892 76.0683 97.4489H76.0623Z" fill="#3E5C2E"/>
        <path d="M43.8991 92.4331C44.0959 92.6896 44.3822 92.8864 44.5492 93.1727C44.7222 93.5126 44.7222 93.8824 44.7461 94.276C44.7759 94.6458 44.8893 95.0693 45.1696 95.2661C45.3665 95.4092 45.6229 95.4092 45.8496 95.4092C45.9331 95.4092 46.0226 95.4092 46.0763 95.3555C46.1598 95.2959 46.2195 95.2124 46.2731 95.1289C46.8398 94.0494 46.0763 92.29 45.3664 91.4729C45.0861 91.133 44.3464 90.2801 43.8931 90.5664C43.2966 90.9063 43.6127 92.0693 43.8931 92.4391L43.8991 92.4331Z" fill="#AED888"/>
        <path d="M72.0956 99.2918C71.2426 99.2918 70.4254 99.4051 69.6023 99.6019C68.7493 99.7987 67.8724 100.139 67.3594 100.878C67.2998 100.962 67.2461 101.075 67.2163 101.188C67.1626 101.498 67.4131 101.815 67.6994 101.898C67.9798 101.982 68.2959 101.898 68.5763 101.785C69.656 101.361 70.5328 100.479 71.6662 100.341C72.1195 100.288 72.6027 100.371 73.056 100.401C73.5093 100.431 74.0223 100.431 74.416 100.204C74.6427 100.091 75.0662 99.751 75.0662 99.4647C75.0364 99.1546 74.6129 99.2918 74.4399 99.2918C73.6465 99.3455 72.8532 99.2918 72.0837 99.2918H72.0956Z" fill="#568040"/>
        <path d="M62.7067 48.5615C59.2649 48.5615 56.521 46.9631 56.36 46.8677C56.1452 46.7425 56.0796 46.4681 56.2049 46.2534C56.3301 46.0387 56.6045 45.9731 56.8193 46.0984C56.867 46.1282 61.9074 49.0565 66.6436 46.8021C66.8643 46.6948 67.1327 46.7902 67.2401 47.0109C67.3475 47.2315 67.252 47.4999 67.0313 47.6073C65.558 48.3051 64.0786 48.5615 62.7127 48.5615H62.7067Z" fill="#323147"/>
        <path d="M84.4969 48.8298C83.0832 48.8298 81.5323 48.5078 79.9874 47.5893C79.7726 47.4641 79.707 47.1897 79.8323 46.975C79.9575 46.7603 80.2319 46.6947 80.4466 46.82C85.0755 49.5753 89.7699 46.3906 89.8176 46.3548C90.0204 46.2116 90.3008 46.2653 90.438 46.4681C90.5811 46.6709 90.5275 46.9512 90.3246 47.0883C90.2889 47.1122 87.7597 48.8298 84.4969 48.8298Z" fill="#323147"/>
    </g>
</svg>
