<svg width="150" height="150" viewBox="0 0 150 150" fill="none" xmlns="http://www.w3.org/2000/svg">
    <mask id="mask0_4782_29866" style="mask-type:alpha" maskUnits="userSpaceOnUse" x="0" y="0" width="150" height="150">
        <circle cx="75" cy="75" r="75" fill="#C4C4C4"/>
    </mask>
    <g mask="url(#mask0_4782_29866)">
        <path d="M75.5674 153.814C118.431 153.814 153.178 118.528 153.178 75C153.178 31.4725 118.431 -3.81354 75.5674 -3.81354C32.7042 -3.81354 -2.04321 31.4725 -2.04321 75C-2.04321 118.528 32.7042 153.814 75.5674 153.814Z" fill="#E3F7FF"/>
        <path d="M59.2236 62.18C60.7537 60.6212 61.6688 58.388 60.857 56.3646C60.3994 55.1705 59.4794 54.2862 58.4118 53.6117C55.0466 51.3784 50.5598 51.3784 46.737 52.6275C42.9143 53.9265 39.5491 56.3146 36.2331 58.7527C39.6475 55.6901 43.116 52.4676 44.9511 48.2109C46.737 43.9542 46.2746 38.3436 42.7077 35.5408C39.4458 32.9978 34.8556 33.4624 30.8803 34.5016C22.8265 36.58 15.2795 40.5269 8.85912 45.8727C4.67725 49.35 -3.52908 56.1048 -4.4491 62.18H59.2236Z" fill="#FCFCFC"/>
        <path d="M121.002 34.047C122.099 32.9279 122.763 31.3241 122.173 29.8653C121.843 29.0059 121.184 28.3714 120.412 27.8868C117.991 26.2831 114.769 26.2831 112.018 27.1774C109.268 28.1116 106.852 29.8253 104.471 31.5789C106.926 29.3756 109.416 27.0625 110.739 24.0048C112.023 20.9422 111.694 16.9154 109.125 14.8969C106.779 13.0684 103.482 13.4031 100.624 14.1525C94.8333 15.6463 89.4116 18.4841 84.7968 22.3261C81.7908 24.8292 75.8919 29.6804 75.2327 34.047H120.997H121.002Z" fill="#FCFCFC"/>
        <path d="M143.845 69.3544C144.573 68.6149 145.006 67.5558 144.622 66.5915C144.406 66.022 143.968 65.6023 143.461 65.2825C141.862 64.2234 139.732 64.2234 137.916 64.8129C136.101 65.4274 134.502 66.5665 132.928 67.7256C134.551 66.2718 136.199 64.738 137.07 62.7195C137.917 60.6961 137.7 58.0332 136.003 56.6992C134.453 55.4902 132.273 55.71 130.384 56.2046C126.557 57.1938 122.97 59.0674 119.92 61.6054C117.932 63.2591 114.036 66.4666 113.598 69.3544H143.85H143.845Z" fill="#FCFCFC"/>
        <path d="M47.3629 111.261C39.252 101.505 15.9686 109.248 8.62347 114.636C0.200623 120.818 -5.01756 128.901 -8.42073 137.948C-9.10136 139.394 -9.72528 140.869 -10.3776 142.315C-12.8732 147.987 -15.142 153.744 -16.8436 159.728C-18.5452 165.74 -19.5094 171.809 -19.9064 178.048C-20.1049 181.196 -20.2468 184.372 -20.814 187.463C-21.3811 190.526 -22.4588 193.22 -23.9335 195.971C-24.5574 197.162 -25.2097 198.382 -25.5217 199.715C-25.8903 201.275 -25.7769 202.863 -25.862 204.451C-26.0038 207.258 -26.8546 209.953 -28.074 212.448C-46.9616 251.244 -45.969 264.715 -54.6755 300.363C-54.9591 301.469 -55.2143 302.717 -54.562 303.71C-54.0232 304.532 -53.0023 305.014 -52.038 305.439C-48.1811 307.084 -44.0973 308.361 -39.9001 309.24C-38.9642 309.438 -37.9716 309.608 -37.0357 309.41C-35.7312 309.155 -34.7669 308.219 -33.8878 307.34C-19.7363 293.103 -9.78201 278.867 -3.11747 261.936C-1.86964 259.894 -0.678547 257.824 0.4842 255.725C2.44102 252.095 4.11425 248.352 5.73075 244.58C7.37562 240.694 9.33244 237.235 11.8281 233.86C14.2103 230.627 15.6283 227.394 16.3089 223.423C17.0179 219.425 17.6135 215.539 18.9748 211.711C21.8107 203.855 26.4617 196.879 30.4037 189.562C33.3248 184.145 35.9339 178.36 37.0966 172.291C47.5614 148.469 56.0693 121.726 47.3629 111.261Z" fill="#464558"/>
        <path opacity="0.29" d="M15.0894 120.421C14.5506 123.059 13.955 125.753 13.0759 128.362C11.4877 133.098 8.96371 137.579 7.6308 142.372C6.46805 146.597 6.41134 150.88 9.44583 154.566C11.7997 157.431 15.2028 159.529 18.1239 161.94C21.3285 164.549 23.3421 167.442 24.6466 171.043C26.3199 175.666 26.8587 180.515 27.3125 185.308C27.511 187.378 27.7378 189.449 27.9647 191.519C41.2371 165.173 58.5649 124.704 47.3344 111.233C41.0953 103.746 25.9228 106.582 15.8835 110.722C16.2238 113.984 15.7133 117.273 15.0894 120.421Z" fill="#2B2B37"/>
        <path opacity="0.29" d="M-33.8878 307.311C-19.7363 293.075 -9.78199 278.838 -3.11745 261.908C-1.86962 259.866 -0.678524 257.795 0.484226 255.697C2.44105 252.067 4.11427 248.323 5.73078 244.551C7.37564 240.666 9.33247 237.206 11.8281 233.832C14.2103 230.599 15.6283 227.366 16.309 223.395C17.018 219.397 17.6135 215.511 18.9748 211.683C21.8108 203.827 26.4617 196.851 30.4037 189.534C33.3248 184.117 35.9339 178.332 37.0967 172.263C47.3629 148.894 55.7574 122.69 47.7599 111.857C47.7599 111.828 47.7316 111.828 47.7316 111.8C47.6181 111.63 47.4763 111.46 47.3345 111.29C47.1927 111.119 47.0509 110.978 46.9091 110.808C46.8524 110.751 46.8241 110.722 46.7673 110.666C46.6539 110.552 46.5688 110.467 46.4554 110.354C46.3987 110.297 46.3419 110.24 46.2852 110.184C46.2001 110.099 46.0867 110.013 46.0016 109.928C45.9449 109.872 45.8598 109.815 45.8031 109.758C45.6897 109.673 45.6046 109.588 45.4911 109.531C45.4344 109.475 45.3493 109.418 45.2926 109.39C45.1792 109.304 45.0658 109.248 44.9523 109.163C44.8956 109.106 44.8105 109.078 44.7538 109.021C44.612 108.936 44.4986 108.851 44.3568 108.794C44.3 108.766 44.2717 108.737 44.215 108.709C44.0164 108.595 43.8463 108.51 43.6478 108.397C43.6194 108.369 43.5627 108.369 43.5343 108.34C43.3642 108.255 43.2224 108.198 43.0522 108.113C42.9955 108.085 42.9104 108.057 42.8537 108.028C42.7119 107.972 42.5984 107.915 42.4566 107.858C42.3716 107.83 42.2865 107.801 42.2298 107.773C42.088 107.716 41.9745 107.688 41.8327 107.631C41.7477 107.603 41.6626 107.575 41.5775 107.546C41.4357 107.489 41.2939 107.461 41.1521 107.433C41.067 107.404 40.982 107.376 40.9252 107.376C40.7834 107.348 40.6133 107.291 40.4715 107.263C40.4147 107.234 40.3297 107.234 40.2729 107.206C40.0744 107.149 39.8759 107.121 39.6491 107.064C39.6207 107.064 39.5923 107.064 39.5923 107.064C39.3654 107.007 39.1102 106.979 38.8833 106.951C38.8266 106.951 38.7982 106.951 38.7415 106.922C38.543 106.894 38.3728 106.866 38.1743 106.837C38.0892 106.837 38.0325 106.809 37.9475 106.809C37.7773 106.78 37.6071 106.78 37.437 106.752C37.3519 106.752 37.2668 106.724 37.1817 106.724C37.0116 106.695 36.8414 106.695 36.6713 106.695C36.5862 106.695 36.5011 106.695 36.416 106.667C36.2459 106.667 36.0757 106.639 35.8772 106.639C35.7921 106.639 35.7354 106.639 35.6503 106.639C35.4518 106.639 35.2533 106.639 35.0264 106.639C34.9697 106.639 34.9413 106.639 34.8846 106.639C34.3741 106.639 33.8353 106.639 33.3248 106.667C33.2965 106.667 33.2681 106.667 33.2114 106.667C32.9845 106.667 32.7576 106.695 32.5307 106.695C32.474 106.695 32.4173 106.695 32.3606 106.695C32.1621 106.695 31.9636 106.724 31.7367 106.752C31.68 106.752 31.5949 106.752 31.5381 106.78C31.3396 106.809 31.1411 106.809 30.9142 106.837C30.8575 106.837 30.8008 106.837 30.7441 106.866C30.5172 106.894 30.2903 106.922 30.0634 106.951C30.0351 106.951 29.9784 106.951 29.95 106.979C29.1276 107.092 28.3052 107.206 27.4827 107.348C27.4544 107.348 27.4543 107.348 27.426 107.348C27.1707 107.404 26.9155 107.433 26.6603 107.489C26.6319 107.489 26.5752 107.518 26.5468 107.518C26.32 107.575 26.0931 107.603 25.8662 107.66C25.8095 107.66 25.7811 107.688 25.7244 107.688C25.4975 107.745 25.2423 107.801 25.0154 107.858C24.987 107.858 24.9587 107.886 24.902 107.886C24.6468 107.943 24.3631 108 24.1079 108.085C25.1856 109.957 26.0647 111.914 26.7737 113.87C32.786 130.404 20.3644 148.611 9.36084 162.422C4.48296 168.519 -7.99533 174.872 -20.2184 180.714C-20.3602 183.011 -20.5587 185.28 -20.9557 187.549C-21.5229 190.611 -22.6006 193.306 -24.0753 196.057C-24.6992 197.248 -25.3515 198.467 -25.6634 199.8C-26.0321 201.36 -25.9187 202.948 -26.0037 204.536C-26.1455 207.344 -26.9963 210.038 -28.2158 212.533C-28.3009 212.675 -28.3576 212.817 -28.4143 212.959C-22.0617 214.037 -16.0495 215.284 -14.6315 216.192C-8.25055 220.191 -4.93246 226.969 -5.72653 233.548C-7.82515 251.103 -29.7189 256.945 -45.6287 258.873C-48.6632 271.124 -50.5916 283.177 -54.8172 300.448C-54.8456 300.505 -54.8456 300.59 -54.874 300.647C-54.9023 300.732 -54.9023 300.817 -54.9307 300.902C-55.1576 301.895 -55.271 302.916 -54.7038 303.795C-54.5053 304.107 -54.2501 304.362 -53.9381 304.589C-53.6261 304.816 -53.2858 305.014 -52.9171 305.184C-52.6619 305.298 -52.435 305.411 -52.1798 305.525C-51.6977 305.723 -51.2156 305.922 -50.7335 306.12C-49.7692 306.517 -48.7766 306.886 -47.7557 307.226C-46.7631 307.567 -45.7421 307.879 -44.7212 308.162C-43.8137 308.417 -42.9062 308.644 -41.9986 308.871C-41.7434 308.928 -41.5165 308.985 -41.2613 309.041C-40.8643 309.126 -40.4389 309.24 -40.0418 309.296C-39.9567 309.325 -39.8433 309.325 -39.7582 309.353C-39.7299 309.353 -39.6731 309.382 -39.6448 309.382C-38.8224 309.523 -37.9999 309.637 -37.2058 309.467C-37.0357 309.438 -36.8939 309.382 -36.7237 309.325C-36.0998 309.126 -35.5893 308.758 -35.0789 308.361C-34.8236 308.162 -34.5967 307.935 -34.3699 307.737C-34.1146 307.538 -34.0012 307.425 -33.8878 307.311Z" fill="#2B2B37"/>
        <path opacity="0.29" d="M46.2568 144.754C42.6268 153.318 37.4653 161.486 31.2262 168.945C28.3618 172.348 25.2423 175.637 21.754 178.615C16.2239 183.351 9.87132 186.953 2.92318 190.044C0.654406 191.065 -1.78455 191.831 -4.08169 192.795C-6.26539 193.703 -9.52677 194.922 -10.0089 197.162C-11.0015 201.615 -3.40105 203.969 0.285715 205.5C0.512592 205.614 0.597665 205.84 0.455866 206.039C-0.593444 207.173 -1.64275 208.535 -1.55767 210.038C-1.50095 211.059 -0.905408 211.938 -0.224774 212.76C1.42009 214.717 3.37693 216.447 4.25608 218.772C6.6383 225.097 3.20677 232.187 0.257362 237.972C-3.40104 245.09 -6.80423 252.152 -8.90285 259.695C-9.95216 263.467 -10.7179 267.296 -11.2283 271.153C-11.6254 274.159 -11.7955 277.165 -12.1359 280.171C-8.61926 274.386 -5.61312 268.345 -3.0891 261.907C-1.84127 259.866 -0.650143 257.795 0.512607 255.697C2.46943 252.067 4.14265 248.323 5.75916 244.551C7.40402 240.666 9.36085 237.206 11.8565 233.831C14.2387 230.598 15.6567 227.365 16.3373 223.395C17.0463 219.396 17.6419 215.511 19.0031 211.683C21.8391 203.827 26.4901 196.85 30.4321 189.534C33.3532 184.117 35.9623 178.332 37.125 172.263C42.9671 158.962 48.2137 144.725 50.1705 132.956C50.1989 132.871 50.1988 132.786 50.2272 132.673C49.2913 136.785 47.9301 140.84 46.2568 144.754Z" fill="#2B2B37"/>
        <path d="M205.298 301.327C202.661 290.494 199.995 279.661 197.358 268.827C194.975 259.072 192.877 251.613 190.948 245.686C190.353 243.133 189.559 240.638 188.566 238.171C179.463 215.001 184.085 222.941 180.654 211.172C180.03 208.988 179.151 206.861 177.96 204.933C176.797 203.033 175.35 201.303 174.074 199.46C172.798 197.616 171.777 195.688 171.267 193.476C170.728 191.094 170.756 188.626 170.785 186.187C170.955 173.255 168.856 170.845 163.042 153.205C160.036 138.458 154.648 124.902 141.999 115.629C134.626 110.24 111.343 102.526 103.26 112.254C92.3415 125.356 108.45 164.01 121.552 190.385C122.516 193.362 123.651 196.283 124.955 199.148C126.458 202.466 128.273 205.585 130.032 208.762C131.705 211.739 133.406 214.972 133.662 218.461C133.803 220.276 133.293 222.062 133.435 223.877C133.577 225.607 134.229 227.167 135.051 228.67C135.789 230.003 136.668 231.279 137.32 232.669C138.171 234.427 138.681 236.327 139.249 238.171C140.269 241.489 141.517 244.608 143.559 247.472C163.524 275.407 156.463 280.171 184.482 308.361C185.333 309.24 186.297 310.147 187.63 310.431C188.566 310.629 189.559 310.459 190.495 310.261C194.692 309.382 198.776 308.105 202.633 306.46C203.625 306.035 204.646 305.553 205.157 304.731C205.837 303.681 205.582 302.433 205.298 301.327Z" fill="#464558"/>
        <path opacity="0.25" d="M121.58 190.356C122.545 193.334 123.679 196.255 124.984 199.119C126.487 202.438 128.302 205.557 130.06 208.733C131.733 211.711 133.435 214.944 133.69 218.432C133.832 220.247 133.321 222.034 133.463 223.849C133.605 225.579 134.257 227.139 135.08 228.642C135.817 229.975 136.696 231.251 137.348 232.641C138.199 234.399 138.71 236.299 139.277 238.142C140.298 241.46 141.546 244.58 143.588 247.444C155.669 264.347 157.853 272.769 163.893 283.036C164.035 283.206 164.148 283.376 164.262 283.574C164.233 282.695 164.205 281.816 164.205 280.937C164.148 277.732 163.865 274.613 162.759 271.522C161.766 268.742 160.263 266.133 159.242 263.354C158.675 261.851 158.136 260.234 157.115 258.873C156.349 257.881 155.158 257.2 154.336 256.236C152.436 254.08 152.436 251.018 152.322 248.465C152.152 245.402 151.784 242.566 149.827 239.901C149.515 239.475 148.522 238.965 147.133 238.426C142.907 236.781 140.071 232.754 139.901 228.216C139.617 221.127 139.362 215.341 139.163 213.498C137.916 202.721 137.292 191.916 137.348 181.083C137.405 170.675 137.859 160.21 140.326 150.001C142.283 141.89 145.431 133.694 150.139 126.405C150.507 125.867 150.876 125.271 151.273 124.704C150.337 123.484 149.316 122.293 148.21 121.131C148.154 121.074 148.125 121.045 148.068 120.989C147.756 120.677 147.473 120.365 147.161 120.053C147.076 119.968 146.962 119.854 146.877 119.769C146.622 119.514 146.338 119.259 146.055 119.004C145.941 118.89 145.828 118.777 145.686 118.663C145.431 118.436 145.147 118.181 144.892 117.954C144.75 117.841 144.637 117.727 144.495 117.614C144.212 117.387 143.928 117.132 143.644 116.905C143.531 116.82 143.389 116.706 143.276 116.621C142.85 116.309 142.453 115.969 141.999 115.657C139.816 114.069 136.214 112.254 132.045 110.751C131.393 110.524 130.712 110.297 130.032 110.07C129.805 109.985 129.578 109.929 129.351 109.843C128.897 109.702 128.415 109.56 127.961 109.446C127.025 109.191 126.061 108.936 125.097 108.737C122.204 108.085 119.255 107.688 116.447 107.631C115.965 107.631 115.511 107.631 115.058 107.631C114.604 107.631 114.15 107.66 113.696 107.716C113.016 107.773 112.364 107.858 111.711 107.943C109.981 108.227 108.393 108.709 106.975 109.418C106.436 109.673 105.926 109.985 105.444 110.326C105.132 110.552 104.82 110.779 104.508 111.035C104.054 111.403 103.657 111.829 103.26 112.282C101.955 113.871 100.935 116.168 100.197 119.089C96.7657 135.792 110.265 167.64 121.58 190.356Z" fill="#2B2B37"/>
        <g opacity="0.29">
            <path opacity="0.29" d="M130.259 198.269C130.883 194.213 131.847 190.214 132.442 186.159C132.953 182.699 132.953 179.239 132.839 175.751C132.726 172.405 132.3 169.001 132.924 165.655C133.52 162.365 134.881 159.246 136.072 156.098C137.349 152.78 138.114 149.433 139.022 146.03C140.837 139.281 142.709 132.389 141.489 125.441C140.667 120.677 138.568 116.224 135.675 112.112C125.664 107.745 109.669 104.483 103.232 112.197C89.9594 128.164 116.731 182.047 129.379 205.415C129.606 203.061 129.89 200.651 130.259 198.269Z" fill="#2B2B37"/>
        </g>
        <path opacity="0.25" d="M205.298 301.327C202.661 290.494 199.995 279.661 197.358 268.827C194.975 259.072 192.877 251.613 190.948 245.686C190.353 243.133 189.559 240.638 188.566 238.17C179.463 215.001 184.085 222.941 180.654 211.172C180.03 208.988 179.151 206.861 177.959 204.933C176.797 203.033 175.35 201.303 174.074 199.46C172.798 197.616 171.777 195.688 171.267 193.476C170.728 191.094 170.756 188.626 170.784 186.187C170.955 173.255 168.856 170.845 163.042 153.205C160.036 138.458 154.648 124.902 141.999 115.629C141.886 115.543 141.772 115.458 141.659 115.373C141.631 115.345 141.574 115.317 141.546 115.288C141.46 115.232 141.375 115.175 141.29 115.118C141.234 115.09 141.205 115.061 141.149 115.033C141.063 114.976 141.007 114.92 140.922 114.891C140.865 114.863 140.808 114.835 140.752 114.778C140.666 114.721 140.61 114.693 140.525 114.636C140.468 114.608 140.411 114.551 140.354 114.523C140.269 114.466 140.184 114.437 140.128 114.381C140.071 114.352 140.014 114.296 139.929 114.267C139.844 114.211 139.759 114.182 139.674 114.126C139.617 114.097 139.532 114.04 139.475 114.012C139.39 113.955 139.305 113.927 139.22 113.87C139.163 113.842 139.078 113.785 139.022 113.757C138.936 113.7 138.823 113.643 138.738 113.587C138.681 113.558 138.625 113.53 138.568 113.502C138.398 113.417 138.256 113.331 138.086 113.246C138.029 113.218 137.972 113.19 137.916 113.161C137.802 113.105 137.689 113.048 137.604 112.991C137.518 112.963 137.433 112.906 137.348 112.878C137.263 112.821 137.178 112.793 137.065 112.736C136.98 112.708 136.895 112.651 136.781 112.622C136.696 112.594 136.611 112.537 136.526 112.509C136.441 112.452 136.327 112.424 136.242 112.367C136.157 112.339 136.072 112.282 135.987 112.254C135.874 112.197 135.789 112.169 135.675 112.112C135.59 112.084 135.505 112.027 135.42 111.999C135.306 111.942 135.221 111.913 135.108 111.857C135.023 111.828 134.938 111.8 134.881 111.743C134.768 111.687 134.654 111.658 134.541 111.602C134.484 111.573 134.399 111.545 134.314 111.516C134.2 111.46 134.059 111.403 133.945 111.375C133.888 111.346 133.86 111.346 133.803 111.318C133.293 111.119 132.782 110.921 132.244 110.722C132.215 110.722 132.187 110.694 132.187 110.694C132.017 110.637 131.875 110.581 131.705 110.524C131.648 110.495 131.62 110.495 131.563 110.467C131.393 110.41 131.251 110.354 131.081 110.297C131.024 110.269 130.967 110.269 130.939 110.24C130.769 110.184 130.627 110.127 130.457 110.07C130.4 110.042 130.343 110.042 130.315 110.013C130.145 109.957 130.003 109.9 129.833 109.872C129.776 109.843 129.748 109.843 129.691 109.815C129.521 109.758 129.351 109.701 129.181 109.645C129.152 109.645 129.124 109.616 129.096 109.616C127.649 109.191 126.175 108.794 124.7 108.482C124.501 108.425 124.274 108.397 124.076 108.34C124.076 108.34 124.076 108.34 124.048 108.34C117.553 107.036 110.832 106.979 106.266 109.645C106.294 109.645 106.323 109.645 106.351 109.645C113.072 110.382 120.049 112.566 125.295 116.196C129.096 118.805 132.329 122.236 135.165 125.583C138.284 129.27 140.922 133.24 143.077 137.38C147.615 146.144 149.515 155.474 150.337 164.946C151.273 175.552 150.564 186.187 148.465 196.652C147.87 199.545 147.444 202.863 150.422 204.961C153.882 207.372 158.59 207.429 162.418 209.159C167.041 211.229 167.041 215.313 167.438 219.17C167.92 223.764 171.607 226.77 175.379 229.804C178.924 232.669 181.646 235.675 183.121 239.674C184.652 243.842 184.964 248.295 185.021 252.634C185.135 261.34 180.852 269.394 174.386 276.087C171.55 279.037 168.629 281.901 165.254 284.425C165.198 284.482 165.141 284.51 165.084 284.567C170.444 292.734 176.882 300.448 184.567 308.162C184.794 308.389 184.993 308.587 185.248 308.814C185.815 309.353 186.467 309.835 187.233 310.09C187.375 310.147 187.545 310.176 187.715 310.232C188.538 310.402 189.388 310.289 190.211 310.119C190.324 310.09 190.438 310.062 190.551 310.034C191.09 309.92 191.601 309.807 192.111 309.693C193.16 309.438 194.181 309.183 195.202 308.899C195.713 308.758 196.223 308.587 196.734 308.446C198.747 307.822 200.732 307.084 202.661 306.262C203.029 306.092 203.398 305.95 203.767 305.751C204.136 305.553 204.447 305.354 204.731 305.099C204.93 304.929 205.071 304.759 205.213 304.56C205.412 304.248 205.525 303.908 205.582 303.568C205.667 302.915 205.497 302.093 205.298 301.327Z" fill="#2B2B37"/>
        <path d="M132.442 131.453C132.073 130.489 131.591 129.439 130.882 128.248C126.912 121.499 127.536 109.701 127.536 109.701C127.536 109.701 126.288 108.879 119.113 106.865C112.675 105.079 86.5274 96.6841 82.9257 96.4572L63.6695 95.2094C60.0678 95.4646 33.8067 105.079 27.3407 106.865C21.6403 108.453 19.6835 109.304 19.1163 109.588C19.9955 115.26 19.3999 121.102 18.2372 126.859C17.1312 132.417 15.4296 137.862 14.3235 143.449C12.8772 150.851 13.6996 154.935 14.4937 158.31C15.3445 161.94 17.3864 169.568 17.4715 169.937C20.5343 181.933 23.6255 208.875 21.0448 218.545C20.0522 222.317 19.2581 225.976 19.8253 229.918C20.1656 232.215 20.903 234.37 22.1792 236.185C22.1792 237.121 22.2076 238.057 22.2076 239.021C22.2643 243.275 22.4628 247.557 22.5762 251.868C25.4122 252.237 29.9214 252.237 30.4319 252.861C31.9917 254.732 40.3011 262.616 70.4191 263.098C71.355 263.07 72.2625 263.07 73.17 263.042C74.0775 263.07 74.985 263.098 75.9209 263.098C106.039 262.616 114.377 254.732 115.908 252.861C116.645 251.953 125.721 252.35 126.033 251.102C126.401 249.656 126.742 248.238 127.053 246.82C126.77 243.729 126.571 240.638 126.486 237.575C129.464 234.966 130.258 230.939 130.088 226.77C129.861 221.466 129.379 216.248 128.642 211.03C126.685 197.644 127.28 199.856 127.734 184.485C127.961 176.431 128.103 168.264 130.485 160.635C131.591 157.062 133.009 153.63 134.512 150.227C134.54 150 134.597 149.745 134.626 149.49C135.646 142.627 134.739 136.643 132.442 131.453Z" fill="#575770"/>
        <path opacity="0.11" d="M132.442 131.453C132.073 130.489 131.591 129.439 130.882 128.248C126.912 121.499 127.536 109.701 127.536 109.701C127.536 109.701 126.288 108.879 119.113 106.865C119.028 106.837 118.914 106.808 118.801 106.78C118.773 106.78 118.716 106.752 118.688 106.752C118.602 106.723 118.546 106.723 118.461 106.695C118.404 106.695 118.376 106.667 118.319 106.638C118.262 106.61 118.177 106.61 118.12 106.582C118.064 106.553 118.007 106.553 117.95 106.525C117.893 106.496 117.808 106.496 117.752 106.468C117.695 106.44 117.638 106.44 117.582 106.411C117.496 106.383 117.44 106.355 117.355 106.355C117.298 106.326 117.241 106.326 117.156 106.298C117.071 106.27 116.986 106.241 116.901 106.213C116.844 106.184 116.787 106.184 116.731 106.156C116.646 106.128 116.532 106.099 116.419 106.071C116.362 106.043 116.305 106.043 116.277 106.014C116.164 105.986 116.05 105.958 115.908 105.901C115.88 105.901 115.823 105.873 115.795 105.873C115.653 105.844 115.511 105.787 115.369 105.759C115.341 105.759 115.313 105.731 115.284 105.731C114.944 105.617 114.575 105.532 114.207 105.419C114.207 105.419 114.207 105.419 114.178 105.419C114.008 105.362 113.838 105.305 113.668 105.277C113.611 105.249 113.526 105.249 113.469 105.22C113.328 105.192 113.214 105.135 113.072 105.107C113.016 105.078 112.959 105.078 112.902 105.05C112.789 105.022 112.647 104.965 112.533 104.937C112.448 104.908 112.392 104.88 112.307 104.88C111.966 104.766 111.598 104.653 111.229 104.54C111.201 104.54 111.172 104.511 111.116 104.511C109.102 103.887 106.918 103.235 104.649 102.526C104.621 102.526 104.621 102.526 104.593 102.526C104.394 102.469 104.196 102.413 103.997 102.356C103.94 102.356 103.912 102.328 103.855 102.328C103.657 102.271 103.487 102.214 103.288 102.157C103.26 102.157 103.26 102.157 103.231 102.129C103.033 102.072 102.834 102.016 102.608 101.931C102.579 101.931 102.522 101.902 102.494 101.902C102.296 101.845 102.125 101.789 101.927 101.732C101.955 101.902 101.984 102.101 101.984 102.271C102.778 108.708 102.608 115.288 101.757 121.754C100.084 134.317 95.0639 147.079 84.5991 154.85C74.7867 162.138 61.883 163.698 50.057 162.734C41.3222 161.996 32.6441 160.068 24.5049 156.891C20.6196 155.388 16.7343 153.573 13.3878 151.049C13.3878 151.22 13.3878 151.39 13.3878 151.588C13.3878 151.617 13.3878 151.673 13.3878 151.702C13.3878 151.843 13.3878 151.957 13.3878 152.099C13.3878 152.155 13.3878 152.184 13.3878 152.24C13.3878 152.354 13.3878 152.496 13.4162 152.609C13.4162 152.666 13.4162 152.694 13.4162 152.751C13.4162 152.893 13.4446 153.006 13.4446 153.12C13.4446 153.148 13.4446 153.176 13.4446 153.233C13.4729 153.545 13.5013 153.857 13.5296 154.169C13.5296 154.197 13.5296 154.226 13.5296 154.254C13.558 154.367 13.558 154.509 13.5864 154.623C13.5864 154.651 13.5863 154.708 13.6147 154.736C13.6431 154.85 13.6431 154.935 13.6714 155.048C13.6714 155.076 13.6714 155.133 13.6998 155.162C13.7282 155.275 13.7281 155.36 13.7565 155.473C13.7565 155.502 13.7565 155.559 13.7849 155.587C13.8132 155.7 13.8132 155.814 13.8416 155.927C13.8416 155.956 13.8416 155.956 13.8416 155.984C13.87 156.126 13.8983 156.268 13.9267 156.381C13.9267 156.409 13.9267 156.409 13.9267 156.438C13.955 156.551 13.9834 156.665 13.9834 156.778C13.9834 156.806 14.0118 156.863 14.0118 156.891C14.0401 156.977 14.0401 157.062 14.0685 157.147C14.0685 157.203 14.0968 157.232 14.0968 157.289C14.1252 157.374 14.1252 157.459 14.1536 157.544C14.1536 157.572 14.1819 157.629 14.1819 157.657C14.2103 157.742 14.2102 157.827 14.2386 157.912C14.2386 157.941 14.267 157.997 14.267 158.026C14.2954 158.139 14.3237 158.253 14.3521 158.366C15.2028 161.996 17.2447 169.625 17.3298 169.994C20.3927 181.99 23.4839 208.931 20.9031 218.602C19.9106 222.374 19.1165 226.032 19.6837 229.974C20.024 232.271 20.7613 234.427 22.0375 236.242C22.0375 237.178 22.0659 238.113 22.0659 239.078C22.1226 243.332 22.3211 247.614 22.4346 251.925C25.2706 252.293 29.7798 252.293 30.2902 252.917C31.85 254.789 40.1594 262.673 70.2775 263.155C71.2134 263.127 72.1208 263.127 73.0284 263.098C73.9359 263.127 74.8434 263.155 75.7792 263.155C105.897 262.673 114.235 254.789 115.766 252.917C116.504 252.01 125.579 252.407 125.891 251.159C126.26 249.712 126.6 248.295 126.912 246.877C126.628 243.785 126.43 240.694 126.345 237.631C129.322 235.022 130.117 230.995 129.946 226.826C129.719 221.523 129.237 216.305 128.5 211.087C126.543 197.701 127.139 199.913 127.593 184.542C127.819 176.488 127.961 168.32 130.343 160.692C131.449 157.118 132.867 153.687 134.37 150.284C134.399 150.057 134.456 149.802 134.484 149.546C135.647 142.627 134.739 136.643 132.442 131.453Z" fill="#2B2B37"/>
        <path opacity="0.25" d="M71.8937 263.07C72.3191 263.07 72.7445 263.042 73.1699 263.042H73.1983C73.3684 263.042 73.5386 263.042 73.6804 263.042C74.5879 263.07 75.4954 263.098 76.4313 263.098C106.124 262.56 114.377 254.732 115.908 252.861C115.936 252.832 115.965 252.804 115.993 252.775C115.993 252.775 116.021 252.775 116.021 252.747C116.05 252.719 116.078 252.719 116.107 252.69C116.107 252.69 116.135 252.69 116.135 252.662C116.192 252.634 116.22 252.634 116.277 252.605C116.333 252.577 116.419 252.577 116.475 252.549C116.504 252.549 116.532 252.549 116.532 252.52C116.589 252.52 116.645 252.492 116.702 252.492C116.73 252.492 116.759 252.492 116.787 252.464C116.872 252.464 116.929 252.435 117.014 252.435H117.042C117.127 252.407 117.241 252.407 117.326 252.407C117.354 252.407 117.383 252.407 117.411 252.407C117.496 252.407 117.553 252.378 117.638 252.378C117.666 252.378 117.723 252.378 117.751 252.378C117.836 252.378 117.922 252.35 118.035 252.35C118.063 252.35 118.063 252.35 118.092 252.35C118.205 252.35 118.319 252.322 118.432 252.322C118.46 252.322 118.517 252.322 118.546 252.322C118.631 252.322 118.716 252.322 118.801 252.293C118.857 252.293 118.886 252.293 118.943 252.293C119.028 252.293 119.113 252.293 119.198 252.265C119.226 252.265 119.283 252.265 119.311 252.265C121.864 250.62 124.359 248.89 126.827 247.16C126.855 247.132 126.912 247.104 126.94 247.075C126.94 247.047 126.968 247.018 126.968 246.962C126.968 246.933 126.997 246.905 126.997 246.877C126.713 243.785 126.515 240.694 126.43 237.631C129.407 235.022 130.201 230.995 130.031 226.826C129.804 221.523 129.322 216.305 128.585 211.087C126.628 197.701 127.224 199.913 127.677 184.542C127.762 181.508 127.848 178.473 128.018 175.439C128.33 170.419 128.925 165.456 130.4 160.692C131.421 157.345 132.754 154.141 134.115 150.964C134.2 150.738 134.314 150.511 134.399 150.284C134.427 150.057 134.484 149.802 134.512 149.546C134.767 147.817 134.909 146.172 134.937 144.555C135.023 139.734 134.058 135.395 132.357 131.51C132.272 131.283 132.158 131.028 132.073 130.772C131.846 130.262 131.591 129.723 131.307 129.184C131.166 128.901 130.995 128.617 130.825 128.333C126.855 121.584 127.479 109.786 127.479 109.786C127.479 109.786 127.479 109.786 127.45 109.786C127.45 109.786 127.422 109.786 127.422 109.758C127.422 109.758 127.394 109.758 127.394 109.73C127.053 109.559 125.891 109.021 122.714 108.028C122.714 108.028 122.714 108.028 122.686 108.028C122.544 108 122.431 107.943 122.289 107.915C122.261 107.915 122.261 107.915 122.232 107.886C122.09 107.858 121.977 107.801 121.835 107.773C121.807 107.773 121.807 107.773 121.779 107.744C121.637 107.716 121.495 107.659 121.353 107.631C121.807 107.773 121.325 115.799 121.381 116.791C121.58 120.421 121.467 124.051 120.984 127.653C120.049 134.771 117.837 141.719 114.377 148.043C110.406 155.303 104.904 161.628 99.2609 167.697C93.8725 173.482 87.9453 179.948 87.7468 188.059C87.7185 189.307 87.8319 190.583 87.5199 191.802C87.2931 192.767 86.811 193.617 86.3572 194.468C84.4004 198.126 82.4152 201.785 80.43 205.472C78.2179 209.555 73.8222 211.626 70.022 214.036C65.7964 216.759 61.3439 219.113 56.7213 221.069C46.7954 225.295 36.2172 227.677 25.5255 228.301C25.1002 228.329 22.6328 228.443 19.6267 228.585C19.6551 229.067 19.7118 229.521 19.7685 230.003C20.1088 232.3 20.8462 234.455 22.1224 236.27C22.1224 237.206 22.1507 238.142 22.1507 239.106C22.1791 240.184 22.1791 241.233 22.2075 242.311C22.2926 245.515 22.4343 248.72 22.5194 251.953C25.3554 252.322 29.8646 252.322 30.3751 252.946C30.5169 253.116 30.7154 253.343 30.999 253.626C31.2826 253.91 31.6229 254.222 32.0483 254.562C32.2752 254.732 32.502 254.902 32.7573 255.101C33.2678 255.47 33.8917 255.867 34.6007 256.264C35.7918 256.944 37.2665 257.682 39.0815 258.391C39.4502 258.532 39.8189 258.674 40.2159 258.816C43.931 260.149 48.9223 261.425 55.6152 262.248C56.3242 262.333 57.0332 262.418 57.7706 262.503C58.8766 262.616 60.0394 262.73 61.2305 262.815C64.0097 263.013 67.0442 263.155 70.3623 263.212C70.9295 263.07 71.4116 263.07 71.8937 263.07Z" fill="#2B2B37"/>
        <path opacity="0.25" d="M71.8939 263.07C72.3193 263.07 72.7447 263.042 73.1701 263.042H73.1984C73.3686 263.042 73.5388 263.042 73.6806 263.042C74.5881 263.07 75.4956 263.099 76.4315 263.099C106.124 262.56 114.377 254.732 115.908 252.861C115.937 252.832 115.965 252.804 115.993 252.776C115.993 252.776 116.022 252.776 116.022 252.747C116.05 252.719 116.078 252.719 116.107 252.691C116.107 252.691 116.135 252.691 116.135 252.662C116.192 252.634 116.22 252.634 116.277 252.605C116.334 252.577 116.419 252.577 116.475 252.549C116.504 252.549 116.532 252.549 116.532 252.52C116.589 252.52 116.646 252.492 116.702 252.492C116.731 252.492 116.759 252.492 116.787 252.464C116.872 252.464 116.929 252.435 117.014 252.435H117.043C117.128 252.407 117.241 252.407 117.326 252.407C117.355 252.407 117.383 252.407 117.411 252.407C117.496 252.407 117.553 252.379 117.638 252.379C117.667 252.379 117.723 252.379 117.752 252.379C117.837 252.379 117.922 252.35 118.035 252.35C118.064 252.35 118.064 252.35 118.092 252.35C118.205 252.35 118.319 252.322 118.432 252.322C118.461 252.322 118.517 252.322 118.546 252.322C118.631 252.322 118.716 252.322 118.801 252.293C118.858 252.293 118.886 252.293 118.943 252.293C119.028 252.293 119.113 252.293 119.198 252.265C119.226 252.265 119.283 252.265 119.311 252.265C121.864 250.62 124.359 248.89 126.827 247.16C126.855 247.132 126.912 247.104 126.94 247.075C126.94 247.047 126.968 247.019 126.968 246.962C126.968 246.934 126.997 246.905 126.997 246.877C126.713 243.786 126.515 240.694 126.43 237.632C129.407 235.022 130.202 230.995 130.031 226.827C129.804 221.523 129.322 216.305 128.585 211.087C126.628 197.701 127.224 199.913 127.677 184.542C127.763 181.508 127.848 178.473 128.018 175.439C128.33 170.419 128.925 165.456 130.4 160.692C131.421 157.345 132.754 154.141 134.115 150.965C134.2 150.738 134.314 150.511 134.399 150.284C134.427 150.057 134.484 149.802 134.512 149.547C134.767 147.817 134.909 146.172 134.938 144.555C135.023 139.734 134.058 135.395 132.357 131.51C132.272 131.283 132.158 131.028 132.073 130.773C131.846 130.262 131.591 129.723 131.308 129.184C131.166 128.901 130.996 128.617 130.825 128.334C126.855 121.584 127.479 109.786 127.479 109.786C127.479 109.786 127.451 109.758 127.394 109.758C127.139 109.616 126.174 109.162 123.537 108.312C124.019 108.454 124.303 114.239 124.359 114.948C124.586 117.132 124.756 119.315 124.983 121.527C125.522 126.462 125.919 131.453 125.409 136.416C123.906 151.22 114.774 163.925 105.812 175.893C101.984 180.997 98.0132 186.499 97.4177 192.994C97.1341 196 97.6162 199.062 97.361 202.069C96.4818 211.938 87.9172 216.986 80.2317 221.07C72.2626 225.323 63.6696 228.216 54.8781 230.003C46.7388 231.676 32.1619 233.321 20.7897 233.86C21.1583 234.711 21.5837 235.533 22.0942 236.299C22.0942 237.235 22.1226 238.17 22.1226 239.135C22.1509 240.212 22.1509 241.262 22.1793 242.339C22.2644 245.544 22.4062 248.749 22.4913 251.982C25.3272 252.35 29.8364 252.35 30.3469 252.974C30.4887 253.144 30.6872 253.371 30.9708 253.655C31.2544 253.938 31.5947 254.25 32.0201 254.591C32.247 254.761 32.4739 254.931 32.7291 255.129C33.2396 255.498 33.8635 255.895 34.5725 256.292C35.7636 256.973 37.2383 257.71 39.0533 258.419C39.422 258.561 39.7907 258.703 40.1877 258.845C43.9028 260.177 48.8942 261.454 55.5871 262.276C56.296 262.361 57.005 262.446 57.7424 262.531C58.8484 262.645 60.0112 262.758 61.2023 262.843C63.9815 263.042 67.016 263.184 70.3341 263.24C70.9297 263.07 71.4118 263.07 71.8939 263.07Z" fill="#2B2B37"/>
        <path d="M77.5944 129.751C76.7153 128.674 75.4958 127.823 74.4465 126.915C73.1987 125.838 71.9225 124.788 70.6463 123.739C68.1506 121.641 65.655 119.514 63.3295 117.216C59.8129 113.785 56.5515 109.928 54.4245 105.504C52.8364 105.901 51.1632 106.44 49.4332 107.064C52.099 112.395 55.1335 117.613 58.3949 122.605C59.9547 124.987 61.5712 127.369 63.3862 129.61C65.1445 131.793 67.073 133.949 69.4268 135.48C70.3911 136.104 71.4687 136.558 72.5748 136.785C72.6315 136.473 72.7165 136.189 72.7733 135.877C72.83 135.65 73.142 135.764 73.1136 135.962C73.0569 136.246 72.9718 136.529 72.9151 136.813C74.1913 136.983 75.4958 136.813 76.7436 136.132C79.296 134.799 79.2393 131.793 77.5944 129.751Z" fill="#575770"/>
        <path opacity="0.25" d="M101.501 101.675C100.452 103.746 97.3893 111.686 96.0847 113.643C94.4966 116.082 92.6816 118.294 91.0083 120.676C89.5336 122.747 88.1156 124.845 86.5275 126.859C84.911 128.929 83.1527 130.971 81.0541 132.559C80.4302 133.013 79.7779 133.438 79.0689 133.778C78.6435 135.622 76.8852 136.785 75.0134 137.125C74.2761 137.267 73.5671 137.267 72.8865 137.182C70.646 146.54 65.7965 155.105 60.5216 163.159C55.5587 170.731 50.1136 178.019 45.0372 185.62C39.9325 193.305 35.5934 201.501 32.8141 210.491C31.2543 215.483 30.1483 220.616 29.0423 225.749C27.8512 231.25 26.7168 236.809 25.6108 242.367C24.9869 245.572 24.3629 248.748 23.9943 252.01C26.7168 252.237 30.0349 252.322 30.4886 252.86C30.8857 253.371 31.7932 254.278 33.4381 255.385C33.5515 252.01 33.9485 248.663 34.6575 245.374C39.7623 221.353 58.0827 193.958 73.3969 168.065C93.192 134.516 109.641 104.852 101.501 101.675Z" fill="#2B2B37"/>
        <path opacity="0.25" d="M128.103 118.748C127.338 113.7 127.564 109.701 127.564 109.701C127.564 109.701 126.317 108.879 119.142 106.865C114.15 105.476 97.3613 100.144 88.3712 97.7053C84.0889 104.029 77.4527 100.995 73.0853 101.959C65.4566 100.258 60.3802 104.483 60.3802 104.483C56.6934 104.738 52.6096 97.9322 47.7034 99.889C51.2483 107.121 57.8562 114.352 69.5688 112.396C82.5859 110.212 120.673 114.012 128.103 118.748Z" fill="#2B2B37"/>
        <path opacity="0.25" d="M75.5808 109.758C77.8212 109.333 80.0049 108.68 82.2454 109.475C83.3798 109.9 84.4574 110.439 85.6202 110.751C87.0665 111.091 88.5412 111.261 90.0159 111.318C96.6521 111.573 105.188 109.815 107.996 103.547C101.36 101.505 93.5326 99.1233 88.3144 97.7053C84.032 104.029 77.3959 100.995 73.0285 101.959C65.3997 100.258 60.3233 104.483 60.3233 104.483C56.6365 104.738 52.5527 97.9322 47.6465 99.889C53.2617 103.831 60.5502 107.149 68.4342 109.9C70.8731 110.212 73.2553 110.212 75.5808 109.758Z" fill="#2B2B37"/>
        <path opacity="0.25" d="M70.1355 139.904C61.7977 144.016 55.0481 156.948 48.9507 165.995C33.7499 188.626 24.8733 215.88 22.1508 232.498C22.1508 234.654 22.1791 236.838 22.2075 239.021C22.2359 241.403 22.3209 243.786 22.406 246.168C23.2284 247.813 24.5046 249.032 26.2346 249.032C28.7019 249.06 30.4885 246.593 31.708 244.324C39.904 229.01 41.7757 211.172 47.9298 195.291C51.1344 187.038 55.4735 179.381 60.0961 172.007C63.244 166.988 67.3562 162.422 68.916 156.637C69.5115 154.396 75.3253 137.352 70.1355 139.904Z" fill="#2B2B37"/>
        <path opacity="0.25" d="M50.3689 104.682C50.3689 104.682 55.6722 116.593 61.0038 123.172C66.3638 129.78 72.8298 135.877 72.8298 135.877L81.0541 132.559C81.0541 132.559 71.4402 129.213 64.7757 122.945C58.1111 116.706 50.3689 104.682 50.3689 104.682Z" fill="#2B2B37"/>
        <path d="M71.27 146.626C72.2626 145.576 73.3119 144.584 74.3328 143.563C76.7717 141.152 79.154 138.628 81.4511 136.047C60.4082 122.803 58.4514 117.217 45.8029 96.741C45.6328 96.4857 46.7955 124.76 71.27 146.626Z" fill="#2B2B37"/>
        <path d="M72.8865 130.347C72.4328 131.624 71.8655 132.871 71.2416 134.006C69.7953 136.615 67.9519 139.11 65.7399 141.152C67.4415 143.024 69.2848 144.839 71.2984 146.626C72.291 145.576 73.3403 144.584 74.3612 143.563C76.8001 141.152 79.1824 138.628 81.4795 136.048C78.1614 134.006 75.3538 132.106 72.8865 130.347Z" fill="#21212B"/>
        <path d="M99.8566 99.5484C96.9072 111.119 28.5602 173.255 22.2076 236.213C22.2076 237.149 22.236 238.085 22.236 239.021C22.2927 243.502 22.5196 248.011 22.633 252.549H30.6021C30.6021 247.444 31.5096 242.339 33.2963 237.603C40.6131 218.233 67.7534 166.392 75.7792 155.077C102.21 117.585 104.025 99.5484 99.8566 99.5484Z" fill="#2B2B37"/>
        <path d="M66.1653 146.824C59.2172 154.651 53.4034 163.641 49.036 173.397C48.6957 174.134 48.3837 174.9 48.4121 175.694C48.4404 176.488 48.9793 177.339 49.745 177.424C50.2555 177.481 50.7659 177.226 51.1913 176.914C54.5945 174.673 56.7215 170.873 58.4231 167.101C59.5575 164.634 60.5784 162.11 61.968 159.784C63.3293 157.459 65.2861 155.786 66.8459 153.659C67.8668 152.241 68.1788 151.021 68.4057 149.291C68.6326 147.533 68.5192 144.158 66.1653 146.824Z" fill="#2B2B37"/>
        <path opacity="0.25" d="M56.7499 124.42C58.7067 127.228 59.756 123.853 58.9619 121.896C58.2813 120.251 57.1185 118.436 55.7289 117.273C54.7363 116.451 53.8005 115.997 53.4034 117.5C52.7795 119.826 55.5871 122.718 56.7499 124.42Z" fill="#464557"/>
        <path opacity="0.25" d="M89.0233 120.024C90.5264 118.181 88.0591 118.096 86.9247 119.003C85.9604 119.769 84.9678 120.903 84.4857 122.066C84.117 122.889 84.0036 123.626 85.0813 123.598C86.7261 123.598 88.1441 121.13 89.0233 120.024Z" fill="#464557"/>
        <path opacity="0.25" d="M77.3104 129.241C74.3326 132.928 71.1847 136.898 67.9517 141.095C68.1785 141.634 68.7457 141.918 69.8801 141.776C73.5669 141.322 76.1476 135.452 77.8776 132.701C79.409 130.375 78.6716 129.354 77.3104 129.241Z" fill="#464557"/>
        <path opacity="0.14" d="M22.6046 116.054C22.4628 118.152 24.1077 120.421 26.2063 120.194C29.4677 119.854 38.2875 112.197 35.7635 109.389C32.5872 105.873 22.8315 112.821 22.6046 116.054Z" fill="#D8D8D8"/>
        <path opacity="0.14" d="M98.212 128.674C97.5881 128.305 93.7879 130.772 95.7731 132.36C96.9358 133.268 98.8643 132.36 98.921 130.29C98.921 129.666 98.7225 128.986 98.212 128.674Z" fill="#D8D8D8"/>
        <path d="M105.844 121.335C105.526 127.076 108.001 132.614 111.089 137.522C114.864 143.502 131.285 161.956 119.255 171.247C117.599 172.53 115.518 173.303 114.09 174.813C111.796 177.243 111.784 180.944 112.8 184.029C113.81 187.06 125.201 203.001 110.879 215.505L102.63 208.666C113.368 205.887 113.673 198.102 111.926 191.567C110.127 184.896 105.275 179.217 109.18 175.241C111.023 173.371 116.189 172.882 117.426 170.572C126.389 153.916 96.8191 161.654 95.5811 139.47C95.2818 133.932 96.7512 128.452 98.2699 123.091C103.302 105.362 97.6566 103.834 91.911 98.2256C87.9294 94.3472 85.421 89.0435 85.3178 83.5929C85.2146 78.1423 87.5606 72.6116 91.8331 68.9374C88.0784 95.2931 107.463 92.5202 105.844 121.335Z" fill="#74A352"/>
        <path d="M99.0578 95.746C98.567 95.3317 98.078 94.935 97.5703 94.5401C93.5394 91.3068 89.6554 88.0413 87.294 83.4703C86.6018 82.1508 86.1124 80.7936 85.7326 79.4078C86.5635 75.4487 88.6719 71.7022 91.8366 68.9728C89.7985 83.1891 94.5444 88.9314 99.0578 95.746Z" fill="#568040"/>
        <path d="M91.7431 81.7888C90.3122 79.4389 88.8248 76.7032 87.832 73.8479C88.8719 72.0205 90.2078 70.342 91.8331 68.9375C91.0364 74.5831 91.2891 78.8806 92.1652 82.4589C92.0313 82.2408 91.8788 82.0245 91.7431 81.7888Z" fill="#3E5C2E"/>
        <path opacity="0.49" d="M111.528 138.173C114.316 142.311 121.285 150.824 123.135 158.789C118.584 149.488 89.5025 147.484 105.94 117.145C105.956 118.46 105.942 119.849 105.844 121.335C105.526 127.076 108.001 132.614 111.089 137.522C111.2 137.69 111.312 137.874 111.442 138.057C111.464 138.09 111.506 138.14 111.528 138.173Z" fill="#AED888"/>
        <path d="M103.808 115.682C102.402 119.893 99.5277 123.484 97.1458 127.31C97.5143 125.905 97.9015 124.497 98.2886 123.089C101.478 111.82 100.358 107.091 97.6446 103.711C98.7571 104.153 99.8074 104.726 100.758 105.433C102.702 106.897 104.148 109.014 104.396 111.356C104.558 112.816 104.271 114.285 103.808 115.682Z" fill="#3E5C2E"/>
        <path opacity="0.49" d="M110.817 141.818C107.736 139.097 106.153 135.961 106.957 131.916C107.072 131.371 107.23 130.875 107.425 130.376C108.381 132.861 109.667 135.261 111.089 137.523C112.376 139.549 115.118 143.033 117.712 147.101C115.434 145.296 112.973 143.724 110.817 141.818Z" fill="#AED888"/>
        <path d="M141.003 216.59C135.836 218.014 127.75 212.157 130.675 200.929C136.739 177.606 136.623 169.026 132.48 154.755C129.965 146.087 131.638 160.154 131.638 160.154C131.638 160.154 132.284 175.155 131.596 180.073C130.926 184.992 128.453 198.505 128.066 203.002C127.678 207.499 128.515 212.997 131.202 215.078C133.872 217.139 141.003 216.59 141.003 216.59Z" fill="#74A352"/>
        <path d="M95.7248 113.284C90.5539 145.042 117.637 138.536 125.235 143.536C127.047 144.737 128.503 146.417 129.68 148.286C130.983 150.35 131.952 152.623 132.55 155.006C133.43 158.476 133.497 162.109 133.415 165.702C133.231 174.722 132.271 183.752 130.17 192.498C126.453 208.064 127.773 208.814 138.68 220.908C129.072 217.216 127.569 210.358 127.683 202.611C127.794 195.039 141.362 139.368 112.583 144.212C111.454 144.488 110.381 144.687 109.974 144.779C94.5778 148.028 81.7471 137.766 92.068 110.476C94.5293 103.938 100.69 89.2135 91.9982 80.1224C102.241 84.7115 97.2428 103.913 95.7248 113.284Z" fill="#3E5C2E"/>
        <path d="M112.583 144.231C111.454 144.507 110.381 144.706 109.974 144.798C108.327 145.145 106.719 145.338 105.15 145.357C105.912 144.864 106.675 144.352 107.475 143.879C109.409 142.724 111.767 141.555 114.232 140.716C118.744 141.525 122.91 141.982 125.235 143.517C127.047 144.718 128.503 146.398 129.68 148.267C130.984 150.331 131.952 152.603 132.551 154.987C133.431 158.457 133.497 162.09 133.416 165.682C133.231 174.703 132.271 183.733 130.17 192.479C126.453 208.045 127.773 208.795 138.68 220.889C129.072 217.196 127.569 210.338 127.683 202.592C127.813 195.059 141.362 139.388 112.583 144.231Z" fill="#568040"/>
        <path d="M95.7243 113.284C92.3301 134.148 102.834 138.489 112.611 140.445C104.735 142.975 96.7501 142.433 90.1544 136.961C87.4746 131.248 87.5079 122.535 92.0672 110.496C94.5285 103.957 100.69 89.233 91.9975 80.1419C102.24 84.7116 97.2423 103.913 95.7243 113.284Z" fill="#568040"/>
        <path d="M96.2693 105.002C95.9321 106.911 95.5023 108.838 94.9813 110.686C93.9211 114.344 92.1463 117.587 89.9681 120.613C89.6115 121.092 89.2348 121.706 88.8028 122.319C89.3443 118.809 90.408 114.861 92.0489 110.496C93.1935 107.476 95.0976 102.727 95.9912 97.599C96.5324 100.117 96.7436 102.458 96.2693 105.002Z" fill="#3E5C2E"/>
        <path d="M103.067 137.584C99.793 136.674 96.3582 135.318 94.216 132.413C91.6562 128.942 91.55 124.072 93.3142 120.191C93.8076 119.096 94.484 118.119 95.2339 117.181C94.1577 129.649 98.7958 135.213 104.852 138.05C104.226 137.907 103.619 137.745 103.067 137.584Z" fill="#74A352"/>
        <path d="M130.792 153.864C132.328 159.525 131.678 168.888 130.868 174.713C131.618 158.724 127.905 142.507 112.657 144.213C118.49 139.628 128.391 145.025 130.792 153.864Z" fill="#3E5C2E"/>
        <path d="M82.9874 46.6508H86.9328C86.981 46.8074 87.0232 46.964 87.0232 47.1387" fill="#323147"/>
        <path d="M47.1537 72.0087C47.1537 72.0087 44.1179 74.7854 43.4974 77.4236C42.9011 80.0618 46.2743 84.1756 46.2743 84.1756L50.8702 81.4833L47.1537 72.0087Z" fill="#75A152"/>
        <path d="M100.582 72.8881C100.582 72.8881 103.618 77.3694 102.51 83.1277C101.401 88.8859 96.5282 90.2773 96.5282 90.2773L94.8838 87.8379L100.582 72.8942V72.8881Z" fill="#568040"/>
        <path d="M89.3541 88.4885C89.4083 93.6504 82.4031 97.9028 73.7292 98.0173C65.0494 98.1317 57.9598 94.0479 57.9297 88.886C57.8995 83.724 64.8808 79.4716 73.5546 79.3572C82.2043 79.2427 89.2939 83.3265 89.3541 88.4885Z" fill="#21212B"/>
        <path d="M47.0935 50.6804C46.9489 52.1862 46.8646 53.7161 46.8104 55.2159C46.726 57.571 46.6959 59.9261 46.8947 62.2752C47.6898 71.2378 52.0267 79.3752 57.4177 86.0671C56.1708 80.9895 55.3456 75.8034 54.9481 70.5572C54.7192 67.4371 54.6348 64.2629 55.0625 61.1729C55.689 56.6073 57.4177 52.2946 58.1827 47.7591C58.5802 45.404 58.7248 43.0248 58.8633 40.6396C59.0079 38.2002 59.1464 35.7608 59.3151 33.3213C59.4837 30.4001 58.0381 27.8763 55.7432 30.4543C54.1289 32.2432 52.7375 34.3092 51.5448 36.4655C49.1595 40.7781 47.6055 45.657 47.0935 50.6744V50.6804Z" fill="#2B2B37"/>
        <path d="M97.8895 50.06C98.0883 51.5658 98.1726 53.0656 98.2569 54.5955C98.3714 56.9506 98.4557 59.3057 98.3111 61.6548C97.6847 70.6475 93.5164 78.8994 88.27 85.7057C89.4024 80.6039 90.1433 75.3818 90.4264 70.1054C90.595 66.9853 90.6251 63.8111 90.1433 60.7212C89.4325 56.1856 87.6194 51.9272 86.7701 47.3917C86.3184 45.0667 86.1196 42.6815 85.9449 40.3023C85.7461 37.8629 85.5474 35.4235 85.3486 32.984C85.1197 30.0627 86.5111 27.5089 88.8663 30.0326C90.5107 31.7914 91.9563 33.8032 93.1791 35.9294C95.6186 40.1818 97.263 45.0306 97.8835 50.0539L97.8895 50.06Z" fill="#2B2B37"/>
        <path d="M100.895 46.97C100.696 45.8918 100.184 44.8438 99.3653 44.3017C98.1726 43.5066 97.1547 43.5367 96.2993 44.133C93.9442 28.8159 84.2765 17.3898 72.7897 17.5343C61.3029 17.6789 51.8581 29.358 49.8161 44.7293C48.9367 44.1632 47.9187 44.1632 46.7502 44.9823C45.931 45.5485 45.4431 46.6267 45.2504 47.7048C45.0817 48.783 45.1901 49.8913 45.3046 50.9634C45.7864 54.9026 46.5514 58.8178 47.6296 62.6184C47.8284 63.3292 48.0272 64.0098 48.3946 64.6302C49.1054 65.7626 50.3823 66.4191 51.5991 66.2746C51.7135 66.2444 51.828 66.2444 51.9424 66.2203C55.9119 77.3092 64.0798 84.8503 73.4101 84.7419C82.7405 84.6274 90.7698 76.8574 94.5103 65.6843C94.6248 65.7144 94.7392 65.7385 94.8477 65.7385C96.0704 65.8529 97.3474 65.1723 98.0281 64.0098C98.3955 63.3834 98.5943 62.6787 98.7629 61.998C99.7568 58.1672 100.468 54.2581 100.865 50.2828C100.98 49.1504 101.064 48.0421 100.895 46.964V46.97Z" fill="#D58500"/>
        <path d="M87.451 30.0928C89.1255 30.6289 90.8 31.2252 92.4444 31.8817C88.0774 23.1179 80.8733 17.444 72.7597 17.5343C61.2729 17.6789 51.8281 29.358 49.7861 44.7294C48.9067 44.1632 47.8827 44.1632 46.7202 44.9823C45.895 45.5485 45.4131 46.6267 45.2143 47.7048C45.0457 48.783 45.1601 49.8913 45.2746 50.9634C45.5577 53.3727 45.9552 55.7579 46.4672 58.107C47.0093 57.7697 47.5755 57.4806 48.1116 57.2276C49.0453 56.7759 49.9849 56.4024 50.9788 56.0651C52.0269 35.2186 64.363 22.4614 87.451 30.0868V30.0928Z" fill="#B45F00"/>
        <path d="M71.7957 51.4755C71.7957 51.4755 82.6018 50.4274 90.6853 52.5838C98.7387 54.7401 99.6482 55.0533 99.6482 55.0533L97.8051 60.7513L71.7957 51.4755Z" fill="#B45F00"/>
        <path opacity="0.36" d="M100.895 46.97C100.697 45.8918 100.185 44.8438 99.3654 44.3017C98.1727 43.5066 97.1548 43.5368 96.2994 44.1331C95.8477 41.0973 95.0827 38.2062 94.0888 35.5379C94.0346 35.4234 94.0045 35.309 93.9442 35.1945C93.6611 34.4296 93.3479 33.6887 93.0106 32.9539C92.9564 32.8093 92.8962 32.7009 92.842 32.5564C92.7576 32.3576 92.6733 32.1889 92.5588 32.0203C92.4745 31.8757 92.4143 31.7372 92.33 31.5926C92.2456 31.424 92.1613 31.2493 92.0469 31.0806C91.9625 30.9361 91.9023 30.7976 91.818 30.653C91.7336 30.4843 91.6192 30.3157 91.5348 30.141C91.4505 29.9965 91.3662 29.8579 91.2819 29.7134C91.1975 29.5447 91.0831 29.4002 90.9988 29.2315C90.9145 29.087 90.8301 28.9484 90.7458 28.8039C90.6614 28.6593 90.547 28.4906 90.4627 28.3521C90.3784 28.2076 90.2639 28.069 90.1796 27.9245C90.0952 27.7799 89.9808 27.6414 89.8965 27.4968C89.782 27.3523 89.6977 27.2137 89.5832 27.0692C89.4989 26.9246 89.3845 26.8162 89.3002 26.6716C89.1857 26.503 89.0712 26.3584 88.9327 26.2199C88.8484 26.1054 88.764 25.991 88.6737 25.8766C88.4749 25.6236 88.2521 25.3646 88.0533 25.1417C87.9931 25.0875 87.9388 24.9971 87.8846 24.9429C87.716 24.7442 87.5413 24.5755 87.3726 24.4069C87.2883 24.3226 87.204 24.2382 87.1136 24.1539C86.9751 24.0093 86.8305 23.8708 86.686 23.7022C86.6016 23.6178 86.4872 23.5335 86.4029 23.4191C86.2643 23.2745 86.1198 23.136 85.9752 23.0215C85.8909 22.9372 85.7764 22.8529 85.6921 22.7686C85.5475 22.624 85.409 22.5156 85.2644 22.4011C85.15 22.3168 85.0656 22.2325 84.9512 22.1482C84.8066 22.0337 84.638 21.8952 84.4994 21.7807C84.4151 21.6964 84.3007 21.6362 84.2163 21.5519C84.0477 21.4374 83.9031 21.323 83.7345 21.2145C83.6501 21.1603 83.5357 21.07 83.4513 21.0158C83.2827 20.9013 83.108 20.7869 82.9394 20.6785C82.855 20.6243 82.7707 20.564 82.6804 20.5098C82.4816 20.3954 82.2828 20.2568 82.0599 20.1424C81.9997 20.1123 81.9455 20.0581 81.8913 20.028C81.3492 19.7147 80.7829 19.4317 80.2469 19.1787C80.2167 19.1486 80.1625 19.1486 80.1324 19.1245C79.9035 19.01 79.6505 18.9257 79.4216 18.8414C79.3373 18.8113 79.2771 18.7872 79.1927 18.7571C78.994 18.6727 78.7651 18.6125 78.5663 18.5282C78.482 18.4981 78.3976 18.474 78.2832 18.4439C78.0844 18.3896 77.8856 18.3294 77.6869 18.2752C77.6025 18.2451 77.4881 18.221 77.4038 18.1909C77.205 18.1367 77.0062 18.1065 76.8075 18.0463C76.7472 18.0463 76.693 18.0162 76.6629 18.0162H76.693C75.4461 17.7632 74.1993 17.6187 72.8922 17.6187C61.4054 17.7632 51.9606 29.4423 49.9187 44.8137C49.0392 44.2475 48.0152 44.2475 46.8527 45.0667C46.0275 45.6328 45.5456 46.711 45.3468 47.7892C45.1782 48.8673 45.2926 49.9756 45.401 51.0478C45.6841 53.4571 46.0817 55.8423 46.5937 58.1914C47.1298 57.854 47.702 57.5649 48.2381 57.312C49.6295 56.6614 51.045 56.1193 52.5208 55.6977C53.4845 55.4146 54.4784 55.1315 55.4723 54.9328V54.6798C54.0267 9.04757 119.598 35.056 82.3852 67.6117C79.8312 69.8524 76.6569 71.1594 73.621 72.4063C69.9648 73.9362 65.9953 75.3275 62.0499 75.4721C60.1465 75.5263 58.2792 75.2432 56.4059 74.8216C60.773 81.0918 66.8747 84.9467 73.5668 84.8624C82.8972 84.7479 90.9265 76.9779 94.6671 65.8047C94.7815 65.8349 94.896 65.859 95.0044 65.859C96.2271 65.9734 97.5041 65.2928 98.1848 64.1303C98.5522 63.5039 98.751 62.7991 98.9196 62.1185C99.9135 58.2877 100.624 54.3786 101.022 50.4033C100.962 49.1565 101.052 48.0482 100.877 46.97H100.895Z" fill="#B45F00"/>
        <path d="M100.895 46.9701C100.696 45.8919 100.184 44.8439 99.3652 44.3018C98.1726 43.5067 98.9376 41.8322 98.0581 42.4044C97.5461 39.1699 95.7029 36.4233 93.4622 34.1224L90.4264 33.4719C97.004 41.5551 98.1425 54.4269 92.4141 62.5402C90.4565 65.2928 89.9445 63.9557 87.0291 65.1182C85.9811 65.5458 84.8727 65.7988 83.7644 66.0518C83.2825 66.5637 82.8007 67.0155 82.2586 67.4672C79.6805 69.6537 76.5302 71.0149 73.4944 72.2617C69.8321 73.7916 65.8626 75.183 61.9233 75.3276C60.0259 75.3818 58.1526 75.0987 56.2793 74.6771C60.6463 80.9473 66.7421 84.8022 73.4341 84.7179C82.7645 84.6034 90.7938 76.8334 94.5344 65.6602C94.6489 65.6904 94.7633 65.7144 94.8778 65.7144C96.0945 65.8289 97.3714 65.1483 98.0521 63.9858C98.4195 63.3594 98.6183 62.6546 98.787 61.974C99.7809 58.1432 100.492 54.2341 100.889 50.2588C100.973 49.1505 101.058 48.0482 100.889 46.9701H100.895Z" fill="#B45F00"/>
        <path opacity="0.36" d="M81.4995 51.5055C80.1382 50.5418 80.5056 41.013 80.5899 40.7299L78.7166 40.0192C75.6266 46.5424 75.5422 50.1985 75.5422 56.0712C75.5422 56.5229 77.6143 56.6072 77.783 57.0349C77.9275 57.4324 78.1504 57.7697 78.3793 58.0829C79.0298 58.9081 79.9394 59.5887 80.9031 59.643C81.897 59.6972 82.9451 59.0467 83.2282 57.9685C83.3125 57.571 83.3125 57.1734 83.2824 56.7759C83.1138 55.0472 81.6922 51.6441 81.4934 51.4995L81.4995 51.5055Z" fill="#B45F00"/>
        <g opacity="0.36">
            <path opacity="0.36" d="M66.8926 33.7549C66.8926 34.038 66.9769 34.3211 67.1215 34.5801C67.4889 35.2908 68.1394 35.7727 68.8201 36.0859C68.9887 36.1702 69.1875 36.2305 69.3863 36.2004C71.1753 35.9715 68.9586 33.5321 68.3382 33.2249C67.772 32.9418 66.9227 32.7731 66.8926 33.7609V33.7549Z" fill="#E2A040"/>
            <path opacity="0.36" d="M59.038 44.386C59.2368 43.9885 60.0017 43.9584 60.315 44.0427C60.6824 44.127 61.1402 44.1571 61.2245 44.6691C61.2787 45.1811 60.827 45.4642 60.4294 45.4642C60.1162 45.4642 59.297 45.3196 59.1223 44.9823C58.9838 44.7293 58.9537 44.5306 59.038 44.386Z" fill="#E2A040"/>
            <path opacity="0.36" d="M81.6984 45.3257C81.6984 44.898 82.3489 44.4463 82.6922 44.3318C83.0596 44.2174 83.4572 43.9945 83.7403 44.3861C84.0234 44.8137 83.7403 45.2956 83.403 45.4944C83.144 45.663 82.3549 45.9762 82.0417 45.7774C81.7887 45.663 81.7044 45.4943 81.7044 45.3257H81.6984Z" fill="#E2A040"/>
            <path opacity="0.36" d="M57.5864 50.7948C57.9297 50.8249 58.267 50.596 58.4658 50.3129C58.5501 50.1684 58.6345 50.0299 58.6345 49.8612C58.6345 49.7769 58.6043 49.6925 58.5802 49.6323C58.3513 49.036 57.4719 48.9216 57.0503 49.295C56.4239 49.7769 56.9358 50.7707 57.5864 50.8008V50.7948Z" fill="#E2A040"/>
            <path opacity="0.36" d="M89.7761 50.2588C90.1194 50.2889 90.4567 50.06 90.6555 49.7769C90.7398 49.6324 90.8241 49.4938 90.8241 49.3252C90.8241 49.2409 90.794 49.1565 90.77 49.0963C90.5411 48.5 89.6616 48.3856 89.24 48.759C88.6436 49.2107 89.1556 50.2347 89.7761 50.2648V50.2588Z" fill="#E2A040"/>
        </g>
        <path opacity="0.36" d="M71.3139 44.5005C69.1454 38.1219 61.0137 38.8145 57.1346 40.0192C55.5143 40.5251 55.1228 40.5974 55.4962 41.1937C66.4529 42.5851 68.8141 44.4403 68.8141 48.0723C68.8141 52.5235 65.2121 48.8373 46.6959 55.8724L49.5029 65.3169C52.5086 64.1243 55.4842 62.8775 58.4357 61.5463C69.3562 56.6374 74.5425 55.0533 71.3139 44.5005Z" fill="#B45F00"/>
        <path d="M68.8081 38.7121C68.0492 38.3688 62.1281 37.1762 55.6649 40.3685C55.6107 40.3806 55.5565 40.3926 55.5023 40.4288C55.4721 40.4288 55.4481 40.4649 55.43 40.501L55.3758 40.5131C55.2433 40.5673 55.3276 40.8685 55.4601 40.7841C55.5384 40.742 55.6468 40.6878 55.7191 40.6456C61.9474 38.6278 64.7061 42.7417 68.4226 41.6455C69.7056 41.2539 70.32 39.3687 68.8081 38.7121Z" fill="#323147"/>
        <path opacity="0.36" d="M87.4327 42.5068C87.3303 42.5309 87.234 42.555 87.1376 42.5851C85.4149 43.1272 81.9333 43.7476 80.325 42.8562C78.4577 41.8443 78.259 40.5914 79.0962 40.1638C79.3492 40.0433 81.1021 39.5614 81.3611 39.5916C82.4634 39.706 83.638 39.5012 84.7041 39.7241C85.7401 39.9349 86.6979 39.459 87.6797 39.8325C89.3301 40.4408 91.0107 41.0552 92.5587 41.8623C92.7635 41.9647 92.9322 42.0852 93.0466 42.2719C93.0647 42.3081 93.1008 42.3803 93.0828 42.4345C93.0707 42.6393 92.8117 42.6996 92.6551 42.7056C91.5468 42.7056 90.5348 42.1454 89.4325 42.1213C88.7699 42.1274 88.1013 42.3201 87.4388 42.5068H87.4327Z" fill="#B45F00"/>
        <path d="M79.795 42.1274C83.4211 43.5549 86.457 39.6639 92.4865 42.2177C92.5648 42.2599 92.6732 42.3141 92.7455 42.3803C92.872 42.4647 92.9864 42.1936 92.8539 42.1153C92.8539 42.1153 92.8379 42.1033 92.8057 42.0792C92.7816 42.043 92.7877 42.0189 92.7636 42.0129C92.7094 42.0009 92.6551 41.9647 92.6009 41.9527C86.3907 38.2363 80.4516 38.9049 79.6444 39.182C78.1024 39.694 78.5903 41.6335 79.795 42.1274Z" fill="#323147"/>
        <path fill-rule="evenodd" clip-rule="evenodd" d="M54.7494 44.1873C54.9241 44.0247 55.1892 44.0367 55.3518 44.2054C56.1529 45.0607 56.8938 45.4341 57.6347 45.6088C58.2852 45.7654 58.9418 45.7654 59.6887 45.7714C59.8152 45.7714 59.9417 45.7714 60.0742 45.7714C60.9657 45.7774 61.9595 45.8256 63.0618 46.193C64.1641 46.5604 65.3568 47.2471 66.6759 48.4939C66.8446 48.6565 66.8506 48.9216 66.694 49.0962C66.5314 49.2649 66.2603 49.2769 66.0916 49.1143C64.8448 47.9398 63.7606 47.3254 62.7908 47.0002C61.821 46.6749 60.9355 46.6267 60.0682 46.6207C59.9477 46.6207 59.8212 46.6207 59.7007 46.6207C58.9599 46.6207 58.1949 46.6207 57.4419 46.434C56.5324 46.2171 55.6469 45.7533 54.7374 44.7836C54.5748 44.6149 54.5868 44.3439 54.7555 44.1813L54.7494 44.1873Z" fill="#323147"/>
        <path fill-rule="evenodd" clip-rule="evenodd" d="M91.5648 44.5487C91.7275 44.7173 91.7214 44.9884 91.5467 45.151C90.583 46.0605 89.6674 46.4761 88.7518 46.6387C87.9868 46.7713 87.2219 46.7291 86.481 46.6869C86.3545 46.6809 86.234 46.6749 86.1135 46.6689C85.2462 46.6267 84.3607 46.6207 83.3729 46.8857C82.385 47.1507 81.2647 47.6988 79.9515 48.8011C79.7708 48.9517 79.5058 48.9276 79.3552 48.7469C79.2046 48.5662 79.2287 48.3012 79.4094 48.1506C80.8069 46.9821 82.0296 46.3677 83.156 46.0665C84.2764 45.7654 85.2642 45.7774 86.1617 45.8196C86.2943 45.8256 86.4208 45.8316 86.5473 45.8376C87.2942 45.8798 87.9447 45.9159 88.6073 45.8015C89.3542 45.669 90.1192 45.3377 90.9685 44.5366C91.1371 44.374 91.4082 44.38 91.5708 44.5547L91.5648 44.5487Z" fill="#323147"/>
        <path opacity="0.36" d="M66.7783 47.7892C65.7302 44.4704 59.8031 44.9222 62.1281 43.9584C62.3811 43.8741 66.1277 43.7597 66.7783 47.7892Z" fill="#B45F00"/>
        <path d="M56.7371 78.7307C56.5383 78.5862 53.0748 77.6827 53.0748 77.9055C53.0748 78.1284 55.7974 85.7298 55.9962 86.043C56.195 86.3562 61.2969 90.3797 61.2969 90.3797C61.2969 90.3797 64.5616 87.4584 64.5616 87.2295C64.5616 87.0006 64.1641 84.6215 64.1641 84.6215L56.7371 78.7247V78.7307Z" fill="#21212B"/>
        <path d="M97.5219 73.8217C99.1964 69.5693 100.359 56.1796 100.359 56.1796C72.7955 49.2047 73.3015 49.2047 45.9067 56.8602C45.9067 56.8602 46.3284 60.7452 46.9849 64.9736C47.527 66.0216 48.1776 67.0697 48.6595 68.0635C49.5931 69.9367 50.5629 71.7497 51.4664 73.623C52.2615 75.2673 53.0807 76.8815 54.0204 78.4416C54.1047 78.556 54.2191 78.6705 54.3035 78.7789C57.0261 82.0977 60.9654 84.1697 64.5675 86.0128C65.8143 86.6392 67.0612 87.1211 68.3141 87.4283C72.2293 87.4825 76.3132 87.3982 80.1984 87.2295C84.2522 86.4947 88.312 85.4406 92.0225 83.4288C93.5223 82.6036 94.8294 84.9045 93.697 85.9225C95.6004 85.5791 97.2147 85.2117 98.3773 84.76L98.323 80.11C97.1304 78.5199 96.3955 76.737 97.5279 73.8157L97.5219 73.8217Z" fill="#464558"/>
        <path d="M97.522 73.8218C99.1965 69.5694 100.359 56.1796 100.359 56.1796C87.4568 52.9211 80.7045 51.1623 74.3798 51.0177C74.1208 52.0115 73.8136 53.0054 73.4703 53.9691C72.5908 56.3483 71.3139 58.6793 69.4165 60.3477C67.2299 62.3053 64.17 63.4136 61.2787 63.3835C56.972 63.3292 55.1228 59.1009 55.0685 54.3064C53.4543 54.7581 47.75 56.3483 45.8767 56.8603C45.8767 56.8603 46.3044 60.7453 46.9549 64.9736C47.497 66.0216 48.1476 67.0697 48.6294 68.0635C49.5631 69.9368 50.5268 71.7498 51.4364 73.623C52.2315 75.2673 53.0507 76.8816 53.9903 78.4416C54.0747 78.556 54.1891 78.6705 54.2734 78.7789C56.9961 82.0977 60.9414 84.1697 64.5435 86.0128C65.7903 86.6392 67.0372 87.1211 68.2901 87.4283C72.2053 87.4825 76.2893 87.3982 80.1744 87.2295C84.2282 86.4947 88.288 85.4406 91.9985 83.4289C93.4983 82.6037 94.8054 84.9046 93.673 85.9225C95.5765 85.5852 97.1907 85.2117 98.3533 84.76L98.2991 80.11C97.1365 78.5199 96.3956 76.737 97.5341 73.8157L97.522 73.8218Z" fill="#323147"/>
        <path d="M48.6836 68.0695C49.6172 69.9427 50.587 71.7557 51.4905 73.6289C52.2856 75.2733 53.1048 76.8875 54.0444 78.4476C54.1288 78.562 54.2432 78.6764 54.3275 78.7849C57.0502 82.1037 60.9895 84.1757 64.5916 86.0188C65.8384 86.6452 67.0913 87.1271 68.3382 87.4343C70.0428 87.4644 71.7414 87.4644 73.4702 87.4343C73.3256 87.3801 77.7227 84.9647 77.5842 84.9105C73.8978 83.3806 61.1642 87.4343 53.9902 66.5637C52.8277 63.1605 52.0025 59.673 51.5206 56.1013L51.4363 55.3363C49.3341 55.9326 46.9849 56.5831 45.9067 56.8662C45.9067 56.8662 46.3284 60.7512 46.9849 64.9795C47.5511 66.0577 48.2077 67.0756 48.6896 68.0695H48.6836Z" fill="#2B2B37"/>
        <path d="M74.5184 87.4103C74.5786 87.3561 74.6328 87.2657 74.6629 87.1814C75.4882 85.9647 76.1086 84.6035 76.3676 83.1278C76.6507 81.4834 76.482 79.809 76.1387 78.2188C75.8255 76.7431 75.3436 75.2975 75.2291 73.7917C75.1147 72.4606 75.458 71.1836 75.97 69.9368C76.482 68.7201 77.1326 67.5817 77.4759 66.3048C77.7289 65.311 77.8735 64.2629 77.7891 63.239C77.7349 62.1909 77.4518 61.0525 76.6808 60.2876C76.0303 59.6069 74.6087 59.0106 73.7293 59.637C72.9884 60.149 72.9041 61.3416 72.8198 62.1608C72.7053 63.2691 72.5065 64.3171 72.0246 65.335C71.4825 66.5277 70.6935 67.5757 69.9827 68.6539C69.1575 69.9007 68.4527 71.2318 68.1395 72.7075C67.489 75.5987 68.3082 78.3513 69.7839 80.8209C70.9163 82.6941 72.2234 84.5914 72.7595 86.7478C72.8197 86.9766 72.8438 87.1754 72.9041 87.3983C73.4703 87.4284 74.0124 87.4284 74.5184 87.3983V87.4103Z" fill="#2B2B37"/>
        <path d="M97.522 73.8217C99.1965 69.5693 100.359 56.1796 100.359 56.1796C100.389 55.8121 88.4205 53.2041 87.1134 52.921C84.0475 52.2403 80.6743 51.3308 77.5301 51.2224C77.5602 53.8907 76.7651 57.6854 79.319 59.5887C79.831 59.9562 80.4274 60.2152 80.9333 60.5525C83.8848 62.51 83.4873 66.8769 81.2466 68.2923C80.337 68.8585 78.8613 69.1717 79.8853 70.6715C80.4213 71.4365 81.2466 72.0027 81.9272 72.599C82.4934 73.0808 83.1741 73.647 83.3728 74.412C83.5174 75.0083 83.403 75.6046 83.1199 76.1105C85.0474 80.7304 74.1268 87.2837 58.5621 82.5193C60.5198 83.8504 62.6159 84.9587 64.6037 85.9766C65.8505 86.603 67.1034 87.0849 68.3503 87.3921C72.2655 87.4463 76.3495 87.362 80.2346 87.1933C84.2884 86.4585 88.3482 85.4044 92.0587 83.3927C93.5645 82.5675 94.8656 84.8684 93.7332 85.8863C95.6366 85.543 97.2509 85.1755 98.4135 84.7238L98.3532 80.0738C97.1365 78.5138 96.3956 76.7249 97.534 73.8036L97.522 73.8217Z" fill="#2B2B37"/>
        <path d="M97.522 73.8217C99.1966 69.5692 100.359 56.1795 100.359 56.1795C100.389 55.7278 94.8597 54.6496 94.4019 54.5653C93.6369 54.3966 92.8719 54.1979 92.0768 54.0292C91.7937 53.975 91.2817 53.7461 90.9986 53.7762C90.6011 53.8305 90.5709 54.1738 90.3722 54.5111C89.5229 56.041 88.8121 57.1794 88.8964 59.0466V59.2454C89.0109 60.974 89.6072 62.6184 90.0047 64.2929C90.2638 65.3409 90.4625 66.4191 90.3481 67.4671C89.9807 70.8703 86.8003 73.1651 85.4992 76.3153C85.1017 77.279 84.9029 78.3271 84.3668 79.2366C83.3428 80.9351 81.361 81.7603 80.054 83.236C79.4034 83.9708 78.9216 84.8804 78.1265 85.4465C77.2169 86.097 76.0544 86.2115 74.9461 86.1573C74.0666 86.1272 73.0728 85.8441 72.2234 85.9886C71.9102 86.0429 66.724 87.3198 60.2849 83.6938C64.1158 91.265 74.8075 88.0908 78.6324 87.4644C83.2283 86.6994 87.8484 85.6754 92.0467 83.3806C93.6369 82.5012 95.0223 85.1936 93.4381 86.073C93.408 86.1031 93.3538 86.1031 93.3237 86.1272C95.3958 85.6754 97.1245 85.1936 98.4015 84.7358L98.3413 80.0859C97.1245 78.5258 96.3836 76.7369 97.522 73.8156V73.8217Z" fill="#21212B"/>
        <path d="M90.4323 75.4962C89.4384 78.2187 88.3361 80.887 86.8603 83.3204C85.4689 85.6153 83.7944 87.7415 81.9572 89.5906C81.0778 90.47 80.0839 91.1808 79.3189 92.1987C78.9214 92.7107 78.5539 93.2468 78.1564 93.7045L78.1865 95.4091C83.9148 95.2947 89.6432 94.8731 95.3474 94.1322C96.1124 92.6565 96.9617 91.2109 97.6183 89.681C98.329 88.0367 99.0097 86.2779 99.4313 84.5191C99.4615 84.4046 99.4855 84.3203 99.5156 84.2059C96.3955 74.3337 116.165 32.3636 91.914 12.9085C78.3612 2.04857 68.0068 3.09662 55.8695 12.3423C29.8903 32.1348 50.7375 75.1047 47.5571 84.9708C47.4427 85.3382 47.274 85.7056 47.1054 86.049C47.7318 87.8077 48.551 89.4521 49.4003 91.0663C50.0508 92.2589 50.6773 93.4756 51.3579 94.6381C51.3881 94.6923 51.4423 94.7827 51.4724 94.8369C57.2308 96.1982 65.995 99.6555 70.6752 99.7459C72.9461 99.776 73.5966 99.264 72.8316 96.3126L71.639 96.3427L71.6089 94.4695C71.4944 94.3551 71.38 94.2406 71.2655 94.1322C70.4464 93.2528 69.4766 92.5722 68.4285 92.0602C59.9775 87.9463 55.7491 77.5381 52.8879 69.0333C49.0028 57.4927 49.2015 42.1454 54.8154 35.5138C64.3747 24.2563 81.4211 23.8889 91.2876 35.1163C97.9255 42.6574 100.702 55.3906 91.3478 72.9785C91.0346 73.8278 90.7515 74.653 90.4382 75.5022L90.4323 75.4962Z" fill="#464558"/>
        <path d="M47.8042 80.7123C47.9186 82.4711 47.8584 83.9167 47.5211 84.9647C47.4067 85.3322 47.238 85.6996 47.0693 86.0429C47.6958 87.8017 48.515 89.446 49.3643 91.0603C50.0148 92.2529 50.6413 93.4696 51.3219 94.6321C51.352 94.6863 51.4062 94.7766 51.4364 94.8308C57.1948 96.1921 65.9529 99.6495 70.6392 99.7398C72.3137 99.7699 73.1088 99.4868 73.1088 98.1256C58.1044 89.7593 50.6172 91.5722 47.8102 80.7123H47.8042Z" fill="#323147"/>
        <path opacity="0.32" d="M96.727 90.6146C97.4377 89.1389 98.1184 87.6391 98.7147 86.1032C98.9978 85.3924 99.1665 84.6275 99.3954 83.8927C97.1547 75.1288 110.485 44.1873 100.13 23.2023C100.474 26.8343 100.19 30.4603 99.0822 33.9237C98.2027 36.7004 96.8956 39.3386 95.3958 41.7479C98.516 49.3191 98.3172 59.7815 91.3119 72.9725C90.9986 73.8218 90.7155 74.647 90.4023 75.4962C89.4084 78.2188 88.3061 80.8871 86.8304 83.3204C85.439 85.6153 83.7645 87.7415 81.9273 89.5906C81.0479 90.47 80.054 91.1808 79.289 92.1987C78.6626 93.048 78.0662 93.9274 77.2169 94.5237V95.4031C83.1741 95.3188 89.1314 94.9212 95.0284 94.1262C95.6247 92.9637 96.1608 91.8012 96.733 90.6086L96.727 90.6146Z" fill="#323147"/>
        <path opacity="0.32" d="M89.5531 29.6652C89.3544 27.539 88.0774 25.4971 86.5474 24.2744C85.2162 23.1963 83.5658 22.7686 81.9515 22.6843C78.5784 22.5156 75.2895 23.6179 71.9405 23.8769C70.0371 24.0214 68.1939 23.5938 66.2965 23.4251C64.0558 23.1963 62.0439 23.7383 60.3152 25.4369C58.6948 27.0511 57.5082 29.1231 56.1168 30.9663C54.7555 32.7552 53.1111 34.2008 51.6052 35.815C50.2138 37.3208 48.8826 38.935 47.9189 40.8324C47.437 41.7961 47.0394 42.82 46.7563 43.8982C46.4431 45.1149 46.2744 46.3918 45.9913 47.6146C45.395 50.1684 44.5156 52.6319 44.1481 55.2159C43.9795 56.4627 43.9795 57.6855 43.9795 58.9323C44.9975 65.3711 46.3648 71.298 47.1539 76.0323C47.5514 76.7671 47.9791 77.4779 48.4007 78.1886C49.5633 80.1161 50.8402 82.0194 51.5209 84.23C52.1714 86.2719 52.2558 88.5968 51.6052 90.6387C51.292 91.6025 50.8704 92.4517 50.3282 93.2167H51.039L51.0691 94.7466C56.4842 95.9633 63.4353 99.6254 68.5131 99.6796C70.1033 99.7097 71.7778 99.4507 72.7115 98.2642C72.9404 97.9811 73.0247 97.186 72.856 96.4211L71.5249 96.4512L71.4947 94.4394C71.4104 94.3551 71.3261 94.2406 71.2116 94.1563C70.3864 93.2769 69.4227 92.5963 68.3746 92.0843C59.9236 87.9704 52.2919 78.5018 49.4308 69.991C45.5456 58.4504 49.1476 42.1695 54.7615 35.5319C63.61 25.0695 78.9518 24.0154 88.993 32.9238C89.4748 31.9059 89.6736 30.7976 89.5592 29.6652H89.5531Z" fill="#323147"/>
        <path d="M49.3643 44.7534C49.027 45.946 49.0511 47.1627 48.9969 48.3854C48.9969 48.5842 48.9668 48.8131 48.9668 49.0359C49.6776 45.7774 50.6955 42.7115 51.9183 40.1577C50.9244 41.6334 49.8462 43.0247 49.3643 44.7534Z" fill="#464558"/>
        <path d="M97.4378 90.6989C98.1485 88.8859 98.9436 87.097 99.5099 85.2237C99.5641 85.0551 99.6243 84.8804 99.6785 84.6877C99.6243 84.5732 99.5942 84.4347 99.54 84.3203C97.8956 79.5257 101.979 66.7384 103.564 52.6439C102.341 59.1069 96.727 77.4899 96.6125 77.7428C96.1005 79.0499 95.4801 80.381 94.685 81.4893C93.9743 82.5072 93.0105 83.1035 92.0468 83.7842C91.4203 84.2118 90.824 84.6937 90.4565 85.3984C90.1975 85.8803 90.0891 86.4163 89.9747 86.9584C89.7458 88.0366 89.5229 89.1147 88.8663 89.964C88.2459 90.7591 87.3906 91.241 86.5413 91.6626C85.3486 92.2589 84.156 92.795 82.879 93.1082C81.349 93.4756 79.8432 93.5057 78.3132 93.5057C77.9157 93.9575 77.5181 94.3851 76.976 94.6682C76.5544 94.9212 72.9463 98.0412 72.5247 98.3002C79.3613 98.3002 88.776 95.4332 96.0644 94.0478C96.5162 92.9998 96.974 91.8373 97.4257 90.6989H97.4378Z" fill="#323147"/>
        <path d="M54.8096 35.4837C62.0679 26.9186 73.6992 24.6479 83.1681 29.0208C82.4031 28.5088 81.6381 28.0028 80.9575 27.3764C80.4756 26.9247 80.1383 26.8403 79.5119 26.7259C79.2288 26.6717 78.9999 26.6114 78.7469 26.4729C77.8976 26.0453 77.0723 25.5634 76.1688 25.2803C75.7713 25.1659 75.3737 25.0514 74.9461 24.9671C74.8918 24.9671 74.8316 24.9671 74.7774 24.937C73.5848 24.8225 72.3981 24.6238 71.2055 24.5937C69.9887 24.5394 68.7961 24.8767 67.5733 24.9069C66.2421 24.9611 65.1037 24.9611 63.9713 25.8164C63.0617 26.497 62.2425 27.2318 61.3029 27.8281C59.3453 29.075 57.3334 30.1832 55.8034 32.1408C55.0927 33.0503 54.4964 34.0984 54.0747 35.2066C53.9603 35.4596 53.0266 37.7605 52.3158 38.5797C38.3594 54.2883 49.4186 98.222 73.2173 97.4811C73.4161 96.0898 71.7416 94.59 71.3741 94.1623C70.4646 93.1986 69.3864 92.4637 68.254 91.8915C59.8573 87.7536 55.5203 77.6285 52.6532 69.1778C49.28 59.1973 48.3464 46.3497 52.6532 38.5797C53.3037 37.7003 54.3819 36.0258 54.8096 35.4897V35.4837Z" fill="#323147"/>
        <path d="M43.9192 40.5552C47.208 38.2845 50.4125 35.7065 53.0267 32.472C55.8336 28.9845 58.0744 24.8165 59.5501 20.4195C60.5982 17.3295 61.2246 14.095 61.2548 10.7762C61.2548 10.0956 61.2548 9.44509 61.2006 8.76447C59.4417 9.7824 57.6527 10.975 55.8397 12.3664C46.1117 19.7991 42.9374 30.4904 42.6241 41.4346C43.0759 41.1214 43.5036 40.8383 43.9252 40.5552H43.9192Z" fill="#575770"/>
        <g opacity="0.25">
            <path opacity="0.25" d="M72.7052 23.9973C72.5065 23.9973 72.3378 23.8828 72.2535 23.684C71.5728 21.9554 71.8258 20.0821 72.0547 18.2932C72.2234 17.0464 72.3679 15.7695 72.2234 14.5769C72.1691 14.1492 72.0788 13.6975 71.9704 13.2457C71.886 12.9024 71.8017 12.535 71.7415 12.1676C71.3981 10.21 71.6571 8.16813 71.88 6.35513C71.9101 6.04192 72.1631 5.84315 72.4221 5.90338C72.6751 5.9335 72.8739 6.2166 72.8498 6.52981C72.6209 8.34281 72.398 10.1859 72.7052 11.9748C72.7594 12.3121 72.8498 12.6254 72.904 12.9687C73.0184 13.4204 73.1329 13.9023 73.1871 14.4143C73.3558 15.7454 73.1871 17.1067 73.0184 18.4438C72.7895 20.1725 72.5968 21.7928 73.163 23.2624C73.2775 23.5455 73.163 23.8587 72.91 23.9732C72.8558 24.0033 72.7655 24.0033 72.7113 24.0033L72.7052 23.9973Z" fill="#2B2B37"/>
        </g>
        <path d="M90.8844 34.261C89.8905 33.2973 88.8123 32.448 87.6799 31.7372C88.9569 32.701 90.1736 33.8333 91.2819 35.1103C97.9198 42.6514 100.673 55.3605 91.3422 72.9424C91.0289 73.7917 90.7157 74.641 90.4025 75.4963C89.4086 78.2188 88.3063 80.8871 86.8306 83.3205C86.2644 84.2842 85.6379 85.1937 84.9573 86.0731C90.8543 80.5438 95.8477 73.9061 98.3113 65.6C102.058 53.2343 98.3957 41.5793 90.8844 34.261Z" fill="#575770"/>
        <path d="M102.256 65.8288C102.028 63.9857 102.088 62.1426 102.287 60.2995H102.202L101.07 66.3107C99.7387 70.1656 98.6303 74.1108 97.7208 78.1103C97.4618 79.2186 97.2389 80.3208 96.8715 81.399C95.6487 85.1153 93.1851 88.0908 90.7456 90.982C91.1432 91.4638 91.8539 91.3494 92.4201 91.1506C94.5766 90.4158 96.5884 89.163 98.2629 87.4644C98.8291 86.8982 99.3953 86.2477 99.6784 85.4526C100.329 83.724 99.7387 81.7062 100.16 79.8932C100.474 78.5319 101.323 77.4236 101.919 76.1768C102.684 74.6168 103.052 72.8279 102.997 71.045C102.943 69.2561 102.485 67.5575 102.262 65.8288H102.256Z" fill="#323147"/>
        <path d="M47.8342 70.1115C47.3824 66.1421 46.756 62.1728 46.1356 58.2276C45.8525 56.3001 45.5392 54.3727 45.2561 52.4693C45.0574 51.1924 44.8586 49.9155 44.5454 48.6686H42.8708C43.0997 50.6563 43.4371 52.638 43.6057 54.5413C43.8888 57.8601 43.9732 61.2332 43.4612 64.552C43.1781 66.3108 42.7504 68.1539 43.3467 69.7982C43.5756 70.4487 43.943 70.9908 44.2803 71.5871C45.8705 74.3639 46.6656 77.7128 46.4669 81.0015C46.4127 81.9953 46.2681 83.0133 46.497 83.977C47.2921 87.609 54.0384 93.9033 56.1406 93.7588C52.3699 88.368 48.3402 74.4723 47.8282 70.1054L47.8342 70.1115Z" fill="#464558"/>
        <path d="M46.4971 80.2305C46.4971 80.4835 46.4971 80.7124 46.467 80.9654C46.4128 81.9592 46.2682 82.9772 46.4971 83.9409C47.2922 87.5729 54.0385 93.8672 56.1407 93.7227C55.2613 92.4759 61.9534 94.6563 60.7607 92.7288C56.2793 90.0063 52.4483 90.4038 46.4971 80.2245V80.2305Z" fill="#323147"/>
        <path d="M48.4004 75.1288C48.2016 73.4544 48.033 71.7799 47.8342 70.1115C47.3824 66.1421 46.756 62.1728 46.1356 58.2276C45.8525 56.3001 45.5392 54.3727 45.2561 52.4693C45.0574 51.1924 44.8586 49.9155 44.5454 48.6686H42.8708C43.0997 50.6563 43.4371 52.638 43.6057 54.5413C43.8888 57.8601 43.9732 61.2332 43.4612 64.552C43.1781 66.3108 42.7504 68.1539 43.3467 69.7982C43.5756 70.4487 43.943 70.9908 44.2803 71.5871C44.7622 72.4123 45.1598 73.2857 45.473 74.1952C46.4066 73.4303 47.9426 73.5688 48.3944 75.1288H48.4004Z" fill="#464558"/>
        <path d="M42.9011 93.054C43.4131 94.7284 44.3769 96.174 45.3406 97.6196C46.3646 99.1254 47.3826 100.685 48.8041 101.788C50.2197 102.92 51.9544 103.546 53.6832 104.089C57.7671 105.366 61.9895 106.13 66.2481 106.414C70.1032 106.667 73.9642 106.498 77.7891 107.064C80.6804 107.492 83.6018 108.311 86.5231 108.028C88.5109 107.829 90.4384 107.118 92.2816 106.329C95.2873 104.998 98.2629 103.324 100.395 100.716C102.491 98.1075 103.6 94.4212 102.491 91.2169C102.238 90.4519 101.666 89.6027 100.877 89.6569C100.395 89.687 99.9977 90.0845 99.6302 90.4218C93.8176 96.2102 86.469 100.685 78.4457 101.396C76.4338 101.565 74.416 101.511 72.4342 101.426C70.9284 101.372 69.4285 101.312 67.9528 100.975C65.9108 100.493 64.0375 99.4748 62.0558 98.8483C60.0138 98.2219 57.8333 98.0232 55.8155 97.2582C51.9604 95.7825 49.1535 92.3493 46.5152 89.0907C45.4671 87.7836 45.184 86.3682 44.4431 85.037C42.5698 86.9946 42.1422 90.5121 42.9132 93.06L42.9011 93.054Z" fill="#75A152"/>
        <path opacity="0.37" d="M102.455 91.1808C102.202 90.4159 101.63 89.5666 100.841 89.6208C100.359 89.651 99.9615 90.0485 99.5941 90.3858C93.7814 96.1741 86.4328 100.649 78.4095 101.36C76.3977 101.529 74.3858 101.475 72.3981 101.39C70.8922 101.336 69.3924 101.276 67.9166 100.939C66.471 100.601 65.1097 99.9748 63.7183 99.4327C64.8808 101.589 65.3085 104.167 63.8628 106.155C64.6579 106.239 65.4229 106.323 66.218 106.353C70.073 106.606 73.9341 106.438 77.759 107.004C80.6503 107.432 83.5716 108.251 86.493 107.968C88.4808 107.769 90.4083 107.058 92.2515 106.263C95.2572 104.932 98.2328 103.258 100.359 100.649C102.461 98.0956 103.564 94.3792 102.461 91.1748L102.455 91.1808Z" fill="#568040"/>
        <path d="M102.455 91.1808C102.202 90.4158 101.63 89.5666 100.841 89.6208C100.359 89.6509 99.9615 90.0484 99.594 90.3857C93.7814 96.1681 86.4328 100.649 78.4095 101.36C76.3976 101.529 74.3858 101.475 72.398 101.39C70.8922 101.336 69.3923 101.276 67.9166 100.938C65.8746 100.457 64.0013 99.4387 62.0196 98.8123C59.9776 98.1858 57.7911 97.9871 55.7793 97.2221C51.9242 95.7464 49.1173 92.3132 46.479 89.0546C45.4309 87.7476 45.1478 86.3321 44.4069 85.0009C44.1479 85.284 43.9251 85.5671 43.6962 85.9104C44.0395 88.121 45.5153 90.1087 46.4188 92.0662C47.5271 94.5358 48.2078 97.198 50.0208 99.2399C51.6953 101.113 53.8216 102.107 56.2009 102.474C57.3936 102.643 58.6103 102.673 59.8029 102.842C60.9655 103.01 62.1039 103.324 63.2664 103.522C64.5434 103.721 65.8204 103.751 67.0974 103.95C68.3744 104.119 69.6212 104.348 70.8982 104.486C72.0908 104.631 73.2534 104.769 74.4159 105.052C75.7471 105.366 77.0542 105.733 78.4155 105.847C80.7707 106.046 83.3186 106.161 85.6497 105.703C86.9267 105.45 88.1735 104.992 89.4505 104.679C90.0167 104.54 90.6131 104.45 91.1793 104.281C91.6611 104.143 92.1129 103.914 92.5948 103.83C93.5043 103.691 94.2693 104.173 94.8656 104.938C96.9377 103.83 98.8351 102.444 100.311 100.625C102.467 98.1015 103.576 94.3852 102.467 91.1808H102.455Z" fill="#568040"/>
        <path d="M49.3945 95.0356C49.8222 96.2824 50.2739 97.5895 51.1533 98.5833C52.1472 99.6615 53.5929 100.258 54.9542 100.595C57.737 101.306 60.7126 101.36 63.5195 101.673C65.9892 101.926 68.3383 101.812 70.6935 101.36C69.7599 101.306 68.8202 101.191 67.9107 100.993C65.8687 100.511 63.9954 99.4928 62.0137 98.8664C59.9717 98.24 57.7912 98.0412 55.7734 97.2763C52.6231 96.0837 50.1896 93.5599 47.9489 90.8976C48.5452 92.2288 48.9427 93.6503 49.3945 95.0356Z" fill="#3E5C2E"/>
        <path d="M75.8557 103.233C77.5302 103.914 79.3192 103.998 81.1021 103.884C82.8911 103.769 84.7343 103.655 86.4931 103.318C88.1074 103.004 89.6675 102.607 91.2818 102.384C92.9262 102.131 94.5466 101.932 96.0464 101.191C97.2632 100.595 98.5702 99.9145 99.534 98.8965C100.642 97.7341 100.98 96.1439 101.209 94.5839C101.437 92.9938 101.154 91.2952 101.353 89.7352C101.184 89.6509 101.01 89.6207 100.841 89.6509C100.359 89.681 99.9616 90.0785 99.5942 90.4158C93.7816 96.1981 86.4329 100.679 78.4097 101.39C76.5665 101.559 74.7233 101.505 72.85 101.444C73.8438 102.095 74.7775 102.806 75.8557 103.233Z" fill="#3E5C2E"/>
        <path d="M62.6941 96.2826C65.5011 96.7343 95.7028 102.523 101.262 79.6343C101.546 78.5019 101.546 79.6885 102.678 79.7186C104.605 98.5232 84.7822 106.631 66.5492 102.89C36.6848 96.7945 42.8106 71.7257 45.2501 77.3936C46.2139 79.6885 44.8285 93.3854 62.6941 96.2826Z" fill="#75A152"/>
        <path d="M62.6941 96.2826C65.5011 96.7343 95.7028 102.523 101.262 79.6343C101.546 78.5019 101.546 79.6885 102.678 79.7186C104.605 98.5232 84.7822 106.631 66.5492 102.89C36.6848 96.7945 42.8106 71.7257 45.2501 77.3936C46.2139 79.6885 44.8285 93.3854 62.6941 96.2826Z" fill="#75A152"/>
        <path d="M45.6779 85.4828C45.4791 84.3504 45.3647 83.1879 45.3647 82.0254C45.2804 81.2002 45.196 80.1281 44.684 79.4475C44.6298 79.3631 44.5395 79.2788 44.4551 79.2487C44.2865 79.1945 44.1118 79.2788 44.0034 79.3932C43.8889 79.5378 43.8588 79.7064 43.8347 79.8751C43.7203 80.8388 44.2022 81.7483 44.4009 82.6819C44.5696 83.4469 44.5154 84.2721 44.5395 85.0672C44.5636 85.8622 44.6539 86.6814 45.0515 87.362C45.1659 87.5608 45.3045 87.7294 45.5334 87.7596C45.7622 87.7596 45.961 87.5608 45.9851 87.3319C46.0393 87.103 45.9851 86.85 45.9309 86.6211C45.8164 86.2236 45.7321 85.8562 45.6719 85.4888L45.6779 85.4828Z" fill="#AED888"/>
        <path d="M49.1954 93.2528C49.1954 93.3372 49.1954 93.4215 49.2255 93.4817C49.2858 93.6504 49.4846 93.7347 49.6532 93.7949C49.7677 93.8251 49.8821 93.8792 49.9664 93.8792C50.0809 93.8792 50.1953 93.8491 50.2495 93.7347C50.3038 93.6805 50.3037 93.5901 50.3037 93.5058C50.3037 93.307 50.2736 93.0781 50.1652 92.9095C49.7978 92.4578 49.2858 92.7107 49.2015 93.2468L49.1954 93.2528Z" fill="#AED888"/>
        <path d="M76.7591 98.8063C76.3314 98.8063 75.8797 98.8364 75.452 98.9509C73.4944 99.4026 70.9163 99.8604 70.0068 101.137C69.6393 101.649 69.4948 102.553 70.3742 102.812C71.2838 103.065 72.2174 102.444 72.8438 101.704C73.4944 100.939 73.5546 100.198 78.9095 100.511L76.7531 98.8123L76.7591 98.8063Z" fill="#568040"/>
        <path opacity="0.37" d="M102.684 79.7246C101.552 79.6945 101.552 78.5079 101.269 79.6403C96.42 99.5772 72.9103 97.7643 65.0497 96.656C67.1519 97.3667 69.2721 97.8727 71.3201 98.7822C73.1091 99.6074 75.0065 100.541 76.2835 102.131C76.681 102.613 76.9641 103.149 77.1629 103.721C91.6253 103.095 104.25 94.8731 102.69 79.7306L102.684 79.7246Z" fill="#568040"/>
        <path d="M54.4963 96.3728C58.6103 98.9267 63.6038 99.0953 68.2539 99.4326C78.8612 100.258 94.3175 103.968 97.9436 92.1445C98.1725 91.3494 103.756 90.2713 102.678 79.6944C101.546 79.6643 101.546 78.4777 101.263 79.6101C95.7029 102.498 65.5012 96.7101 62.6942 96.2584C54.8396 94.9814 50.6954 91.6385 48.4547 88.0607C49.5028 91.494 51.6592 94.5839 54.4963 96.3728Z" fill="#568040"/>
        <path d="M60.4534 96.4271C62.4713 96.7945 64.5072 96.8246 66.525 96.8547C64.5674 96.6258 63.176 96.3728 62.67 96.2885C57.8211 95.4934 54.4179 93.9334 51.9482 92.006C54.2191 94.3611 57.4236 95.8609 60.4534 96.4331V96.4271Z" fill="#3E5C2E"/>
        <path d="M76.0546 97.445C80.9336 97.9269 85.8969 98.0413 90.4928 95.9392C91.571 95.4573 92.6794 94.8068 93.5588 93.9816C94.3539 93.2167 94.8599 92.2228 95.7393 91.5121C97.3596 90.205 99.3413 89.6991 100.474 87.7957C101.751 85.6394 100.618 83.2 100.022 80.7365C99.257 91.4579 83.9694 97.1559 74.0969 97.2703C74.7776 97.3245 75.404 97.3848 76.0546 97.439V97.445Z" fill="#3E5C2E"/>
        <path d="M43.889 92.4276C44.0878 92.6805 44.3708 92.8793 44.5395 93.1624C44.7082 93.4997 44.7082 93.8731 44.7383 94.2707C44.7684 94.6381 44.8828 95.0658 45.166 95.2645C45.3647 95.4091 45.6177 95.4091 45.8466 95.4091C45.9309 95.4091 46.0153 95.4091 46.0755 95.3549C46.1598 95.3006 46.2201 95.2103 46.2743 95.126C46.8405 94.0478 46.0755 92.289 45.3647 91.4698C45.0816 91.1265 44.3407 90.2773 43.889 90.5604C43.2927 90.9037 43.6059 92.0662 43.889 92.4336V92.4276Z" fill="#AED888"/>
        <path d="M72.079 99.2942C71.2297 99.2942 70.4045 99.4086 69.5853 99.6074C68.736 99.8061 67.8566 100.143 67.3446 100.884C67.2843 100.969 67.2301 101.083 67.2 101.198C67.1458 101.511 67.3988 101.824 67.6819 101.908C67.965 101.993 68.2782 101.908 68.5613 101.794C69.6395 101.366 70.5189 100.487 71.6513 100.348C72.1031 100.294 72.585 100.378 73.0428 100.402C73.4945 100.433 74.0065 100.433 74.4041 100.204C74.633 100.089 75.0546 99.7519 75.0546 99.4688C75.0245 99.1556 74.6029 99.3002 74.4282 99.3002C73.6331 99.3544 72.838 99.3002 72.073 99.3002L72.079 99.2942Z" fill="#568040"/>
        <path opacity="0.34" d="M51.5676 119.426C51.1626 117.874 50.4876 116.366 49.0926 115.669C47 114.634 41.7574 115.984 43.1749 124.084C43.805 127.684 45.155 131.127 47.135 134.187C47.315 134.457 47.5175 134.727 47.8325 134.794C48.5526 134.929 53.3677 132.049 53.9752 131.667C56.0002 130.407 57.9803 128.967 59.3528 127.009C60.7253 125.051 61.4228 122.509 60.6803 120.236C59.3753 116.299 54.8527 117.356 51.5676 119.426Z" fill="#21212B"/>
        <path opacity="0.34" d="M45.7042 103.546C46.3977 102.648 46.8828 101.553 47.0066 100.424C41.814 102.177 36.9785 103.829 34.8151 104.502C34.6815 104.551 34.5472 104.577 34.4361 104.626C34.9057 106.03 35.5314 107.384 36.29 108.667C36.4085 108.866 36.5726 109.086 36.7995 109.147C37.3433 109.266 41.0409 107.197 41.5283 106.935C43.0765 106.011 44.6213 104.974 45.7042 103.546Z" fill="#21212B"/>
        <path d="M123.587 48.7199C123.132 47.3036 122.46 45.9287 121.137 45.3498C119.152 44.4814 114.365 45.9494 116.019 53.3823C116.753 56.68 118.159 59.8227 120.124 62.5622C120.289 62.8 120.496 63.0481 120.785 63.0895C121.457 63.1825 125.778 60.3086 126.337 59.9261C128.156 58.6752 129.924 57.259 131.113 55.3981C132.302 53.5373 132.829 51.139 132.043 49.0714C130.668 45.5049 126.533 46.6627 123.587 48.7199Z" fill="#DE5153"/>
        <path d="M128.394 48.9782C127.04 49.464 124.972 49.5054 124.125 48.3579C123.938 48.4716 123.763 48.5957 123.587 48.7094C123.266 47.7066 122.832 46.7142 122.129 46.0215C121.406 47.8203 120.113 49.3813 118.439 49.9913C117.87 50.198 116.774 50.5185 115.689 50.6322C115.699 51.4386 115.803 52.3483 116.03 53.3821C116.764 56.6798 118.17 59.8225 120.134 62.562C120.3 62.7998 120.506 63.0479 120.796 63.0893C121.468 63.1823 125.789 60.3084 126.347 59.9259C128.167 58.675 129.934 57.2587 131.123 55.3979C132.312 53.5371 132.839 51.1388 132.054 49.0712C131.723 48.2028 131.227 47.6136 130.627 47.2517C130.038 48.0374 129.273 48.668 128.394 48.9782Z" fill="#D7283A"/>
        <path opacity="0.32" d="M122.76 54.0749C120.651 54.7158 118.129 54.8812 116.195 53.6614C116.154 53.6303 116.113 53.6097 116.061 53.5787C116.805 56.804 118.191 59.8744 120.124 62.5725C120.289 62.8103 120.496 63.0584 120.785 63.0998C121.457 63.1928 125.779 60.3189 126.337 59.9364C128.156 58.6855 129.924 57.2692 131.113 55.4084C132.302 53.5476 132.829 51.1493 132.043 49.0817C131.743 48.3064 131.32 47.7585 130.803 47.3966C129.169 50.5187 125.892 53.1238 122.76 54.0749Z" fill="#982431"/>
        <path d="M122.76 46.8384C122.708 47.0658 122.625 47.2932 122.543 47.5207C122.388 47.9238 121.199 49.9811 121.881 50.2499C122.305 50.4153 123.111 49.3711 123.318 49.092C123.421 48.9473 123.504 48.7922 123.566 48.6372C123.349 47.9962 123.091 47.3759 122.76 46.8384Z" fill="#982431"/>
        <path d="M131.702 50.8806C130.73 52.8861 129.19 54.5298 127.557 56.0081C125.406 57.9517 122.036 60.257 118.8 60.4947C119.214 61.2081 119.648 61.8904 120.124 62.5623C120.289 62.8001 120.496 63.0482 120.785 63.0895C121.457 63.1826 125.778 60.3087 126.337 59.9262C128.156 58.6753 129.924 57.259 131.113 55.3982C132.188 53.7028 132.725 51.5732 132.219 49.6504C132.074 50.0639 131.898 50.4774 131.702 50.8806Z" fill="#982431"/>
        <path d="M20.2348 61.9751C19.262 59.5161 17.9109 57.1381 15.5059 56.2463C11.8848 54.9222 3.53481 58.0839 7.31799 71.1088C8.99339 76.8916 11.8578 82.3231 15.641 86.971C15.9652 87.3763 16.3706 87.8087 16.884 87.8357C18.073 87.9168 25.4502 82.3231 26.396 81.5935C29.4766 79.1615 32.4761 76.4592 34.3677 73.0003C36.2593 69.5685 36.9348 65.2449 35.3135 61.6509C32.4761 55.4627 25.234 58.0028 20.2348 61.9751Z" fill="#DE5153"/>
        <path d="M28.8282 61.8938C26.4772 62.8936 22.8021 63.2179 21.1538 61.2722C20.8295 61.4884 20.5322 61.7316 20.235 61.9748C19.5594 60.2184 18.6677 58.5159 17.3436 57.354C16.2627 60.6237 14.1279 63.5421 11.2364 64.8122C10.2636 65.2446 8.31798 65.9472 6.42639 66.2714C6.53448 67.7036 6.80472 69.325 7.34517 71.1085C9.02058 76.8913 11.885 82.3228 15.6682 86.9707C15.9924 87.376 16.3978 87.8084 16.9112 87.8354C18.1002 87.9165 25.4774 82.3228 26.4232 81.5932C29.5038 79.1612 32.5033 76.4589 34.3949 73C36.2865 69.5682 36.962 65.2446 35.3407 61.6506C34.6651 60.1373 33.6923 59.1645 32.5844 58.57C31.6386 60.0562 30.3415 61.2452 28.8282 61.8938Z" fill="#D7283A"/>
        <path opacity="0.32" d="M19.3704 71.595C15.6953 72.9731 11.2366 73.5406 7.6696 71.595C7.58853 71.5409 7.50746 71.5139 7.42639 71.4598C9.1018 77.1076 11.9122 82.404 15.6413 86.9708C15.9656 87.3761 16.3709 87.8085 16.8843 87.8355C18.0733 87.9166 25.4505 82.3229 26.3963 81.5933C29.4769 79.1613 32.4764 76.459 34.368 73.0001C36.2596 69.5683 36.9352 65.2447 35.3138 61.6507C34.6923 60.2995 33.8816 59.3808 32.9088 58.7863C30.3686 64.5421 24.829 69.5412 19.3704 71.595Z" fill="#982431"/>
        <path d="M18.5592 58.7323C18.4782 59.1376 18.3701 59.543 18.235 59.9753C17.9918 60.7049 16.1272 64.4881 17.3702 64.8935C18.1539 65.1367 19.451 63.191 19.7753 62.6776C19.9374 62.4074 20.0725 62.1101 20.1806 61.8399C19.7482 60.732 19.2078 59.6511 18.5592 58.7323Z" fill="#982431"/>
        <path d="M34.9083 64.9206C33.395 68.5956 30.8549 71.7032 28.1256 74.5136C24.5316 78.2157 18.8028 82.7014 13.074 83.458C13.8847 84.674 14.7494 85.863 15.6681 86.971C15.9924 87.3763 16.3978 87.8087 16.9112 87.8357C18.1002 87.9168 25.4774 82.3231 26.4232 81.5935C29.5038 79.1614 32.5033 76.4592 34.3949 73.0003C36.1243 69.8657 36.8269 66.0285 35.719 62.6777C35.4758 63.4343 35.2056 64.1639 34.9083 64.9206Z" fill="#982431"/>
        <path d="M34.6382 115.241C33.4682 113.621 32.0057 112.159 30.0931 111.979C27.1906 111.709 21.723 115.601 26.9881 124.376C29.3281 128.269 32.4332 131.666 36.1008 134.344C36.4158 134.569 36.7758 134.817 37.1583 134.727C38.0583 134.547 42.3334 129.056 42.8959 128.336C44.6735 125.974 46.3385 123.431 47.0585 120.551C47.7785 117.671 47.441 114.409 45.5735 112.114C42.3109 108.154 37.5408 111.371 34.6382 115.241Z" fill="#DE5153"/>
        <path d="M40.8933 113.554C39.3857 114.746 36.7532 115.669 35.1781 114.566C34.9981 114.791 34.8181 115.016 34.6381 115.241C33.8056 114.094 32.8381 113.014 31.6456 112.429C31.4881 115.016 30.498 117.559 28.608 119.044C27.978 119.539 26.6954 120.416 25.3679 121.024C25.7279 122.059 26.2454 123.161 26.9655 124.376C29.3055 128.269 32.4106 131.666 36.0782 134.344C36.3932 134.569 36.7532 134.816 37.1357 134.726C38.0357 134.546 42.3108 129.056 42.8733 128.336C44.6509 125.974 46.3159 123.431 47.0359 120.551C47.7559 117.671 47.4184 114.409 45.5509 112.114C44.7634 111.146 43.8858 110.606 42.9633 110.404C42.5808 111.664 41.8608 112.766 40.8933 113.554Z" fill="#D7283A"/>
        <path opacity="0.32" d="M35.8533 122.419C33.4457 124.129 30.2956 125.411 27.3031 124.669C27.2356 124.646 27.1681 124.624 27.1006 124.624C29.4181 128.427 32.4782 131.757 36.0783 134.367C36.3933 134.592 36.7533 134.839 37.1358 134.749C38.0358 134.569 42.3109 129.079 42.8734 128.359C44.651 125.996 46.316 123.454 47.036 120.574C47.756 117.694 47.4185 114.431 45.551 112.136C44.8535 111.281 44.066 110.764 43.2559 110.516C42.5134 115.174 39.4534 119.876 35.8533 122.419Z" fill="#982431"/>
        <path d="M32.7935 113.194C32.816 113.509 32.816 113.824 32.7935 114.161C32.771 114.746 32.1185 117.851 33.1085 117.919C33.716 117.964 34.301 116.276 34.436 115.826C34.5035 115.601 34.5485 115.376 34.571 115.129C34.031 114.431 33.446 113.756 32.7935 113.194Z" fill="#982431"/>
        <path d="M45.9107 114.566C45.5057 117.536 44.2457 120.281 42.8057 122.869C40.8931 126.244 37.5856 130.609 33.558 132.297C34.368 133.017 35.223 133.714 36.123 134.367C36.438 134.592 36.798 134.839 37.1806 134.749C38.0806 134.569 42.3557 129.079 42.9182 128.359C44.6957 125.996 46.3608 123.454 47.0808 120.574C47.7333 117.964 47.5083 115.016 46.0683 112.789C46.0233 113.374 45.9783 113.981 45.9107 114.566Z" fill="#982431"/>
    </g>
</svg>
