<svg width="150" height="150" fill="none" xmlns="http://www.w3.org/2000/svg"><mask id="a" style="mask-type:alpha" maskUnits="userSpaceOnUse" x="0" y="0" width="150" height="150"><circle cx="75" cy="75" r="75" fill="#C4C4C4"/></mask><g mask="url(#a)"><path d="M75.567 153.814c42.863 0 77.611-35.286 77.611-78.814 0-43.528-34.748-78.814-77.61-78.814C32.703-3.814-2.044 31.472-2.044 75c0 43.528 34.747 78.814 77.61 78.814Z" fill="#E3F7FF"/><path d="M59.224 62.18c1.53-1.559 2.445-3.792 1.633-5.815-.458-1.195-1.378-2.079-2.445-2.753-3.365-2.234-7.852-2.234-11.675-.985-3.823 1.3-7.188 3.688-10.504 6.126 3.415-3.063 6.883-6.285 8.718-10.542 1.786-4.257 1.324-9.867-2.243-12.67-3.262-2.543-7.852-2.079-11.828-1.04-8.053 2.079-15.6 6.026-22.02 11.372C4.676 49.35-3.53 56.105-4.45 62.18h63.674ZM121.002 34.047c1.097-1.12 1.761-2.723 1.171-4.182-.33-.86-.989-1.494-1.762-1.978-2.42-1.604-5.643-1.604-8.393-.71-2.75.935-5.166 2.648-7.547 4.402 2.455-2.203 4.945-4.517 6.268-7.574 1.284-3.063.954-7.09-1.614-9.108-2.346-1.829-5.643-1.494-8.501-.745-5.79 1.494-11.212 4.332-15.827 8.174-3.006 2.503-8.905 7.354-9.564 11.721H121.002ZM143.845 69.354c.728-.74 1.161-1.798.777-2.763-.216-.569-.654-.989-1.161-1.308-1.599-1.06-3.729-1.06-5.545-.47-1.815.614-3.414 1.754-4.988 2.913 1.623-1.454 3.271-2.988 4.142-5.007.846-2.023.63-4.686-1.067-6.02-1.55-1.209-3.73-.989-5.619-.494-3.827.989-7.414 2.862-10.464 5.4-1.988 1.654-5.884 4.862-6.322 7.75h30.252-.005Z" fill="#FCFCFC"/><path d="M47.363 111.261c-8.111-9.756-31.394-2.013-38.74 3.375-8.422 6.182-13.64 14.265-17.044 23.312-.68 1.446-1.304 2.921-1.957 4.367-2.495 5.672-4.764 11.429-6.466 17.413-1.701 6.012-2.665 12.081-3.062 18.32-.199 3.148-.34 6.324-.908 9.416-.567 3.062-1.645 5.757-3.12 8.507-.623 1.192-1.276 2.411-1.588 3.744-.368 1.56-.255 3.148-.34 4.736-.142 2.808-.993 5.502-2.212 7.997-18.888 38.796-17.895 52.267-26.601 87.915-.284 1.106-.54 2.354.113 3.347.539.822 1.56 1.304 2.524 1.73a64.99 64.99 0 0 0 12.138 3.8c.936.198 1.928.368 2.864.17 1.305-.255 2.269-1.191 3.148-2.07 14.152-14.237 24.106-28.473 30.77-45.404a168.16 168.16 0 0 0 3.602-6.211c1.957-3.63 3.63-7.373 5.247-11.145 1.645-3.885 3.601-7.345 6.097-10.72 2.382-3.233 3.8-6.466 4.48-10.436.71-3.999 1.305-7.884 2.667-11.713 2.836-7.856 7.487-14.832 11.429-22.149 2.92-5.417 5.53-11.202 6.693-17.271 10.464-23.822 18.972-50.565 10.266-61.03Z" fill="#464558"/><path opacity=".29" d="M15.09 120.421c-.54 2.638-1.135 5.332-2.014 7.941-1.588 4.736-4.112 9.217-5.445 14.01-1.163 4.225-1.22 8.508 1.815 12.194 2.354 2.865 5.757 4.963 8.678 7.374 3.205 2.609 5.218 5.502 6.523 9.103 1.673 4.623 2.212 9.472 2.666 14.265.198 2.07.425 4.141.652 6.211 13.272-26.346 30.6-66.815 19.37-80.286-6.24-7.487-21.412-4.651-31.452-.511.34 3.262-.17 6.551-.794 9.699Z" fill="#2B2B37"/><path opacity=".29" d="M-33.888 307.311c14.152-14.236 24.106-28.473 30.77-45.403a168.988 168.988 0 0 0 3.602-6.211c1.957-3.63 3.63-7.374 5.247-11.145 1.645-3.886 3.601-7.346 6.097-10.72 2.382-3.233 3.8-6.466 4.48-10.437.71-3.998 1.305-7.884 2.667-11.712 2.836-7.856 7.487-14.832 11.429-22.149 2.92-5.417 5.53-11.202 6.693-17.271 10.266-23.368 18.66-49.573 10.663-60.406 0-.029-.029-.029-.029-.057a6.215 6.215 0 0 0-.397-.51c-.141-.171-.283-.312-.425-.482l-.142-.142a91.777 91.777 0 0 0-.312-.312l-.17-.17c-.085-.085-.198-.171-.283-.256-.057-.056-.142-.113-.199-.17-.113-.085-.198-.17-.312-.227a.868.868 0 0 0-.198-.141c-.114-.086-.227-.142-.34-.227-.058-.057-.143-.085-.2-.142-.141-.085-.255-.17-.396-.227-.057-.028-.085-.057-.142-.085-.199-.114-.369-.199-.567-.312-.029-.028-.085-.028-.114-.057-.17-.085-.312-.142-.482-.227-.056-.028-.142-.056-.198-.085-.142-.056-.256-.113-.397-.17a1.96 1.96 0 0 1-.227-.085c-.142-.057-.255-.085-.397-.142l-.256-.085a2.309 2.309 0 0 0-.425-.113.852.852 0 0 0-.227-.057c-.142-.028-.312-.085-.454-.113-.056-.029-.141-.029-.198-.057-.199-.057-.397-.085-.624-.142h-.057c-.227-.057-.482-.085-.709-.113-.056 0-.085 0-.142-.029-.198-.028-.368-.056-.567-.085-.085 0-.142-.028-.227-.028-.17-.029-.34-.029-.51-.057-.085 0-.17-.028-.255-.028-.17-.029-.34-.029-.51-.029-.086 0-.17 0-.256-.028-.17 0-.34-.028-.539-.028h-.992c-.51 0-1.05 0-1.56.028h-.114c-.227 0-.453.028-.68.028h-.17c-.199 0-.397.029-.624.057-.057 0-.142 0-.199.028-.198.029-.397.029-.624.057-.056 0-.113 0-.17.029l-.68.085c-.029 0-.086 0-.114.028a72.3 72.3 0 0 0-2.467.369h-.057c-.255.056-.51.085-.766.141-.028 0-.085.029-.113.029-.227.057-.454.085-.68.142-.058 0-.086.028-.143.028-.227.057-.482.113-.709.17-.028 0-.056.028-.113.028-.255.057-.539.114-.794.199a36.618 36.618 0 0 1 2.666 5.785c6.012 16.534-6.41 34.741-17.413 48.552-4.878 6.097-17.356 12.45-29.58 18.292-.141 2.297-.34 4.566-.737 6.835-.567 3.063-1.645 5.757-3.12 8.508-.623 1.191-1.276 2.41-1.587 3.743-.37 1.56-.256 3.148-.34 4.736-.143 2.808-.993 5.502-2.213 7.998a2.808 2.808 0 0 0-.198.425c6.352 1.078 12.365 2.325 13.783 3.233 6.38 3.999 9.698 10.777 8.904 17.356-2.098 17.555-23.992 23.397-39.902 25.325-3.034 12.252-4.963 24.304-9.188 41.575-.029.057-.029.142-.057.199-.028.085-.028.17-.057.255-.227.993-.34 2.014.227 2.893.199.312.454.567.766.794.312.227.652.425 1.02.595.256.114.483.227.738.341l1.447.595c.964.397 1.956.766 2.977 1.106a52.68 52.68 0 0 0 3.035.936 97.37 97.37 0 0 0 2.722.709c.256.057.482.114.738.17.397.085.822.199 1.22.256.084.028.198.028.283.056.028 0 .085.029.113.029.823.141 1.645.255 2.44.085.17-.029.311-.085.481-.142.624-.199 1.135-.567 1.645-.964.255-.199.482-.426.71-.624a4.42 4.42 0 0 0 .481-.426Z" fill="#2B2B37"/><path opacity=".29" d="M46.257 144.754c-3.63 8.564-8.792 16.732-15.03 24.191-2.865 3.403-5.985 6.692-9.473 9.67-5.53 4.736-11.883 8.338-18.83 11.429-2.27 1.021-4.709 1.787-7.006 2.751-2.183.908-5.445 2.127-5.927 4.367C-11 201.615-3.4 203.969.286 205.5c.227.114.312.34.17.539-1.05 1.134-2.099 2.496-2.014 3.999.057 1.021.653 1.9 1.333 2.722 1.645 1.957 3.602 3.687 4.481 6.012 2.382 6.325-1.05 13.415-3.999 19.2-3.658 7.118-7.061 14.18-9.16 21.723a83.7 83.7 0 0 0-2.325 11.458c-.397 3.006-.568 6.012-.908 9.018a117.635 117.635 0 0 0 9.047-18.264 168.118 168.118 0 0 0 3.602-6.21c1.956-3.63 3.63-7.374 5.246-11.146 1.645-3.885 3.602-7.345 6.098-10.72 2.382-3.233 3.8-6.466 4.48-10.436.71-3.999 1.305-7.884 2.666-11.712 2.836-7.856 7.487-14.833 11.43-22.149 2.92-5.417 5.53-11.202 6.692-17.271 5.842-13.301 11.089-27.538 13.045-39.307.029-.085.029-.17.057-.283-.936 4.112-2.297 8.167-3.97 12.081Z" fill="#2B2B37"/><path d="M205.298 301.327c-2.637-10.833-5.303-21.666-7.94-32.5-2.383-9.755-4.481-17.214-6.41-23.141a51.229 51.229 0 0 0-2.382-7.516c-9.103-23.169-4.481-15.229-7.912-26.998-.624-2.184-1.503-4.311-2.694-6.239-1.163-1.9-2.61-3.63-3.886-5.473-1.276-1.844-2.297-3.772-2.807-5.984-.539-2.383-.511-4.85-.482-7.289.17-12.932-1.929-15.342-7.743-32.982-3.006-14.747-8.394-28.303-21.043-37.577-7.373-5.388-30.656-13.102-38.739-3.374-10.919 13.102 5.19 51.756 18.292 78.13a82.4 82.4 0 0 0 3.403 8.764c1.503 3.318 3.318 6.437 5.077 9.614 1.673 2.977 3.374 6.21 3.63 9.699.141 1.815-.369 3.601-.227 5.416.142 1.73.794 3.29 1.616 4.793.738 1.333 1.617 2.609 2.269 3.999.851 1.758 1.361 3.658 1.929 5.501 1.02 3.319 2.268 6.438 4.31 9.302 19.965 27.935 12.904 32.699 40.923 60.889.851.879 1.815 1.786 3.148 2.07.936.198 1.929.028 2.865-.17a64.922 64.922 0 0 0 12.138-3.801c.992-.425 2.013-.907 2.524-1.729.68-1.05.425-2.298.141-3.404Z" fill="#464558"/><path opacity=".25" d="M121.58 190.356a82.308 82.308 0 0 0 3.404 8.763c1.503 3.319 3.318 6.438 5.076 9.614 1.673 2.978 3.375 6.211 3.63 9.699.142 1.815-.369 3.602-.227 5.417.142 1.73.794 3.29 1.617 4.793.737 1.333 1.616 2.609 2.268 3.999.851 1.758 1.362 3.658 1.929 5.501 1.021 3.318 2.269 6.438 4.311 9.302 12.081 16.903 14.265 25.325 20.305 35.592.142.17.255.34.369.538a79.99 79.99 0 0 1-.057-2.637c-.057-3.205-.34-6.324-1.446-9.415-.993-2.78-2.496-5.389-3.517-8.168-.567-1.503-1.106-3.119-2.127-4.481-.766-.992-1.957-1.673-2.779-2.637-1.9-2.156-1.9-5.218-2.014-7.771-.17-3.063-.538-5.899-2.495-8.564-.312-.426-1.305-.936-2.694-1.475-4.226-1.645-7.062-5.672-7.232-10.21-.284-7.089-.539-12.875-.738-14.718-1.247-10.777-1.871-21.582-1.815-32.415.057-10.408.511-20.873 2.978-31.082 1.957-8.111 5.105-16.307 9.813-23.596.368-.538.737-1.134 1.134-1.701a44.468 44.468 0 0 0-3.063-3.574l-.142-.141c-.312-.312-.595-.624-.907-.936l-.284-.284c-.255-.255-.538-.51-.822-.765-.114-.114-.227-.227-.369-.341l-.794-.709c-.142-.113-.255-.227-.397-.34-.283-.227-.567-.482-.851-.709-.113-.085-.255-.199-.368-.284-.426-.312-.823-.652-1.277-.964-2.183-1.588-5.785-3.403-9.954-4.906-.652-.227-1.333-.454-2.013-.681-.227-.085-.454-.142-.681-.227a26.835 26.835 0 0 0-1.39-.397c-.935-.255-1.9-.51-2.864-.709-2.893-.652-5.842-1.049-8.65-1.106h-1.389c-.454 0-.908.029-1.362.085-.68.057-1.332.142-1.985.227-1.73.284-3.318.766-4.736 1.475-.539.255-1.049.567-1.531.907-.312.227-.624.454-.936.709-.454.369-.851.795-1.248 1.248-1.304 1.588-2.325 3.886-3.063 6.807-3.431 16.703 10.068 48.551 21.383 71.267Z" fill="#2B2B37"/><path opacity=".29" d="M130.259 198.268c.624-4.055 1.588-8.054 2.183-12.109.511-3.46.511-6.92.397-10.408-.113-3.347-.539-6.75.085-10.096.596-3.29 1.957-6.409 3.148-9.557 1.277-3.318 2.042-6.665 2.95-10.068 1.815-6.75 3.687-13.641 2.467-20.589-.822-4.765-2.921-9.217-5.814-13.329-10.011-4.368-26.006-7.629-32.443.085-13.273 15.966 13.499 69.85 26.147 93.218.227-2.354.511-4.764.88-7.147Z" fill="#2B2B37"/><path opacity=".25" d="M205.298 301.327c-2.637-10.833-5.303-21.666-7.94-32.5-2.383-9.756-4.481-17.214-6.41-23.141a51.229 51.229 0 0 0-2.382-7.516c-9.103-23.169-4.481-15.229-7.912-26.998-.624-2.184-1.503-4.311-2.695-6.239-1.162-1.9-2.609-3.63-3.885-5.473-1.276-1.844-2.297-3.772-2.807-5.984-.539-2.383-.511-4.85-.483-7.289.171-12.932-1.928-15.342-7.742-32.982-3.006-14.747-8.394-28.303-21.043-37.577l-.34-.255c-.028-.028-.085-.057-.113-.085l-.256-.17c-.056-.028-.085-.057-.141-.085-.086-.057-.142-.114-.227-.142a.585.585 0 0 1-.17-.113c-.086-.057-.142-.085-.227-.142-.057-.029-.114-.085-.171-.114-.085-.056-.17-.085-.226-.141-.057-.029-.114-.085-.199-.114-.085-.057-.17-.085-.255-.142-.057-.028-.142-.085-.199-.113-.085-.057-.17-.085-.255-.142-.057-.028-.142-.085-.198-.113-.086-.057-.199-.114-.284-.17l-.17-.086c-.17-.085-.312-.17-.482-.255l-.17-.085c-.114-.057-.227-.113-.312-.17-.086-.028-.171-.085-.256-.113-.085-.057-.17-.086-.283-.142-.085-.029-.17-.085-.284-.114-.085-.028-.17-.085-.255-.113-.085-.057-.199-.085-.284-.142-.085-.028-.17-.085-.255-.113-.113-.057-.198-.085-.312-.142-.085-.029-.17-.085-.255-.114-.114-.056-.199-.085-.312-.141-.085-.029-.17-.057-.227-.114-.113-.057-.227-.085-.34-.142-.057-.028-.142-.056-.227-.085a2.072 2.072 0 0 0-.369-.142c-.057-.028-.085-.028-.142-.056a92.859 92.859 0 0 0-1.559-.596c-.029 0-.057-.028-.057-.028-.17-.057-.312-.114-.482-.17-.057-.029-.085-.029-.142-.057-.17-.057-.312-.113-.482-.17-.057-.029-.114-.029-.142-.057-.17-.057-.312-.113-.482-.17-.057-.028-.114-.028-.142-.057-.17-.056-.312-.113-.482-.142-.057-.028-.085-.028-.142-.056l-.51-.17c-.029 0-.057-.029-.085-.029a59.039 59.039 0 0 0-4.396-1.134c-.199-.057-.426-.085-.624-.142h-.028c-6.495-1.305-13.216-1.361-17.782 1.305h.085c6.721.737 13.698 2.921 18.944 6.551 3.801 2.609 7.034 6.04 9.87 9.387a64.034 64.034 0 0 1 7.912 11.797c4.538 8.763 6.438 18.094 7.26 27.566.936 10.606.227 21.241-1.872 31.706-.595 2.893-1.021 6.211 1.957 8.309 3.46 2.411 8.168 2.468 11.996 4.198 4.623 2.07 4.623 6.154 5.02 10.01.482 4.595 4.169 7.601 7.941 10.635 3.545 2.865 6.267 5.871 7.742 9.869 1.531 4.169 1.843 8.622 1.9 12.961.113 8.706-4.169 16.76-10.635 23.453-2.836 2.95-5.757 5.814-9.132 8.338-.056.057-.113.085-.17.142 5.36 8.167 11.798 15.881 19.483 23.595.227.227.426.425.681.652.567.539 1.219 1.021 1.985 1.276.142.057.312.086.482.142.823.17 1.673.057 2.496-.113l.34-.085c.539-.114 1.05-.227 1.56-.341 1.049-.255 2.07-.51 3.091-.794.511-.141 1.021-.312 1.532-.453a61.948 61.948 0 0 0 5.927-2.184c.368-.17.737-.312 1.106-.511.369-.198.68-.397.964-.652.199-.17.34-.34.482-.539a2.64 2.64 0 0 0 .369-.992c.085-.653-.085-1.475-.284-2.241Z" fill="#2B2B37"/><path d="M132.442 131.453a20.45 20.45 0 0 0-1.56-3.205c-3.97-6.749-3.346-18.547-3.346-18.547s-1.248-.822-8.423-2.836c-6.438-1.787-32.585-10.181-36.187-10.408L63.669 95.21c-3.601.255-29.862 9.869-36.328 11.656-5.7 1.588-7.657 2.439-8.225 2.723.88 5.672.284 11.514-.879 17.271-1.106 5.558-2.807 11.003-3.913 16.59-1.447 7.402-.624 11.486.17 14.86.85 3.631 2.892 11.259 2.977 11.628 3.063 11.996 6.155 38.938 3.574 48.608-.993 3.772-1.787 7.431-1.22 11.373.34 2.297 1.078 4.452 2.354 6.267 0 .936.029 1.872.029 2.836.056 4.254.255 8.536.368 12.847 2.836.369 7.345.369 7.856.992 1.56 1.872 9.87 9.756 39.987 10.238.936-.028 1.844-.028 2.751-.056.907.028 1.815.056 2.75.056 30.119-.482 38.457-8.366 39.988-10.238.738-.907 9.813-.51 10.125-1.758.368-1.446.709-2.864 1.021-4.282a145.268 145.268 0 0 1-.568-9.245c2.978-2.609 3.772-6.637 3.602-10.805a161.575 161.575 0 0 0-1.446-15.74c-1.957-13.386-1.362-11.174-.908-26.545.227-8.054.369-16.221 2.751-23.85 1.106-3.573 2.524-7.005 4.027-10.408.029-.227.085-.482.114-.737 1.021-6.863.113-12.847-2.184-18.037Z" fill="#575770"/><path opacity=".11" d="M132.442 131.453a20.45 20.45 0 0 0-1.56-3.205c-3.97-6.749-3.346-18.547-3.346-18.547s-1.248-.822-8.423-2.836a4.719 4.719 0 0 0-.312-.085c-.028 0-.085-.028-.113-.028-.086-.029-.142-.029-.227-.057-.057 0-.085-.028-.142-.057-.057-.028-.142-.028-.199-.057-.056-.028-.113-.028-.17-.056-.057-.029-.142-.029-.198-.057-.057-.028-.114-.028-.171-.057-.085-.028-.141-.056-.226-.056-.057-.029-.114-.029-.199-.057l-.255-.085c-.057-.029-.114-.029-.17-.057a4.719 4.719 0 0 0-.312-.085c-.057-.028-.114-.028-.142-.057-.113-.028-.227-.056-.369-.113-.028 0-.085-.029-.113-.029-.142-.028-.284-.085-.426-.113-.028 0-.056-.028-.085-.028-.34-.114-.709-.199-1.077-.312h-.029a3.349 3.349 0 0 0-.51-.142c-.057-.028-.142-.028-.199-.057-.141-.028-.255-.085-.397-.113-.056-.029-.113-.029-.17-.057-.113-.028-.255-.085-.369-.113-.085-.029-.141-.057-.226-.057a45.412 45.412 0 0 0-1.078-.34c-.028 0-.057-.029-.114-.029-2.013-.624-4.197-1.276-6.466-1.985h-.056l-.596-.17c-.057 0-.085-.029-.142-.029-.198-.056-.368-.113-.567-.17-.028 0-.028 0-.057-.028-.198-.057-.397-.113-.623-.199-.029 0-.086-.028-.114-.028-.198-.057-.369-.113-.567-.17.028.17.057.369.057.539.794 6.437.624 13.017-.227 19.483-1.673 12.563-6.693 25.325-17.158 33.096-9.812 7.288-22.716 8.848-34.542 7.884-8.735-.738-17.413-2.666-25.552-5.843-3.885-1.503-7.77-3.318-11.117-5.842v1.191c0 .114 0 .256.028.369v.142c0 .142.028.255.028.369v.113l.086.936v.085c.028.113.028.255.056.369 0 .028 0 .085.029.113.028.114.028.199.056.312 0 .028 0 .085.029.114.028.113.028.198.057.311 0 .029 0 .086.028.114.028.113.028.227.057.34v.057c.028.142.056.284.085.397v.057c.028.113.056.227.056.34 0 .028.029.085.029.113.028.086.028.171.056.256 0 .056.029.085.029.141.028.086.028.171.056.256 0 .028.029.085.029.113.028.085.028.17.057.255 0 .029.028.085.028.114l.085.34c.85 3.63 2.893 11.259 2.978 11.628 3.063 11.996 6.154 38.937 3.573 48.608-.992 3.772-1.787 7.43-1.22 11.372.341 2.297 1.078 4.453 2.355 6.268 0 .936.028 1.871.028 2.836.057 4.254.255 8.536.369 12.847 2.835.368 7.345.368 7.855.992 1.56 1.872 9.87 9.756 39.988 10.238.935-.028 1.843-.028 2.75-.057.908.029 1.815.057 2.751.057 30.118-.482 38.456-8.366 39.987-10.238.738-.907 9.813-.51 10.125-1.758.369-1.446.709-2.864 1.021-4.282a145.34 145.34 0 0 1-.567-9.246c2.977-2.609 3.771-6.636 3.601-10.805a161.584 161.584 0 0 0-1.446-15.739c-1.957-13.386-1.361-11.174-.908-26.545.227-8.054.369-16.222 2.751-23.85 1.106-3.574 2.524-7.005 4.027-10.408.029-.227.086-.482.114-.738 1.163-6.919.255-12.903-2.042-18.093Z" fill="#2B2B37"/><path opacity=".25" d="M71.894 263.07c.425 0 .85-.028 1.276-.028h.511c.907.028 1.815.056 2.75.056 29.693-.538 37.946-8.366 39.477-10.237l.085-.086s.029 0 .029-.028c.028-.028.056-.028.085-.057 0 0 .028 0 .028-.028.057-.028.085-.028.142-.057.056-.028.142-.028.198-.056.029 0 .057 0 .057-.029.057 0 .113-.028.17-.028.029 0 .057 0 .085-.028.085 0 .142-.029.227-.029h.028c.086-.028.199-.028.284-.028h.085c.085 0 .142-.029.227-.029h.113c.086 0 .171-.028.284-.028h.057c.113 0 .227-.028.34-.028h.114c.085 0 .17 0 .255-.029h.142c.085 0 .17 0 .255-.028h.113c2.553-1.645 5.048-3.375 7.516-5.105.028-.028.085-.056.113-.085 0-.028.028-.057.028-.113 0-.029.029-.057.029-.085a145.34 145.34 0 0 1-.567-9.246c2.977-2.609 3.771-6.636 3.601-10.805a161.584 161.584 0 0 0-1.446-15.739c-1.957-13.386-1.361-11.174-.908-26.545.085-3.034.171-6.069.341-9.103.312-5.02.907-9.983 2.382-14.747 1.021-3.347 2.354-6.551 3.715-9.728.085-.226.199-.453.284-.68.028-.227.085-.482.113-.738.255-1.729.397-3.374.425-4.991.086-4.821-.879-9.16-2.58-13.045-.085-.227-.199-.482-.284-.738a26.742 26.742 0 0 0-.766-1.588c-.141-.283-.312-.567-.482-.851-3.97-6.749-3.346-18.547-3.346-18.547h-.028s-.029 0-.029-.028c0 0-.028 0-.028-.028-.341-.171-1.503-.709-4.68-1.702h-.028c-.142-.028-.255-.085-.397-.113-.028 0-.028 0-.057-.029-.141-.028-.255-.085-.397-.113-.028 0-.028 0-.056-.029-.142-.028-.284-.085-.426-.113.454.142-.028 8.168.029 9.16.198 3.63.085 7.26-.398 10.862-.935 7.118-3.147 14.066-6.607 20.39-3.971 7.26-9.472 13.585-15.116 19.654-5.388 5.785-11.316 12.251-11.514 20.362-.028 1.248.085 2.524-.227 3.743-.227.965-.709 1.815-1.163 2.666-1.957 3.659-3.942 7.317-5.927 11.004-2.212 4.083-6.608 6.154-10.408 8.564a87.535 87.535 0 0 1-13.3 7.033c-9.927 4.226-20.505 6.608-31.196 7.232-.426.028-2.893.142-5.9.284.03.482.086.936.143 1.418.34 2.297 1.077 4.452 2.353 6.267 0 .936.029 1.872.029 2.836.028 1.078.028 2.127.056 3.205.086 3.204.227 6.409.313 9.642 2.835.369 7.345.369 7.855.993.142.17.34.397.624.68.284.284.624.596 1.05.936.226.17.453.34.708.539.51.369 1.135.766 1.844 1.163a33.762 33.762 0 0 0 4.48 2.127c.37.141.738.283 1.135.425 3.715 1.333 8.706 2.609 15.4 3.432.708.085 1.417.17 2.155.255 1.106.113 2.268.227 3.46.312 2.779.198 5.813.34 9.131.397.568-.142 1.05-.142 1.532-.142Z" fill="#2B2B37"/><path opacity=".25" d="M71.894 263.07c.425 0 .85-.028 1.276-.028h.511c.907.028 1.815.057 2.75.057 29.693-.539 37.946-8.367 39.477-10.238l.085-.085s.029 0 .029-.029c.028-.028.056-.028.085-.056 0 0 .028 0 .028-.029.057-.028.085-.028.142-.057.057-.028.142-.028.198-.056.029 0 .057 0 .057-.029.057 0 .114-.028.17-.028.029 0 .057 0 .085-.028.085 0 .142-.029.227-.029h.029c.085-.028.198-.028.283-.028h.085c.085 0 .142-.028.227-.028h.114c.085 0 .17-.029.283-.029h.057c.113 0 .227-.028.34-.028h.114c.085 0 .17 0 .255-.028h.142c.085 0 .17 0 .255-.029h.113c2.553-1.645 5.048-3.375 7.516-5.105.028-.028.085-.056.113-.085 0-.028.029-.056.029-.113 0-.028.028-.057.028-.085a145.308 145.308 0 0 1-.567-9.245c2.977-2.609 3.772-6.637 3.601-10.805a161.575 161.575 0 0 0-1.446-15.74c-1.957-13.386-1.361-11.174-.908-26.545.086-3.034.171-6.069.341-9.103.312-5.02.907-9.983 2.382-14.747 1.021-3.347 2.354-6.551 3.715-9.727.085-.227.199-.454.284-.681.028-.227.085-.482.113-.737.255-1.73.397-3.375.426-4.992.085-4.821-.88-9.16-2.581-13.045-.085-.227-.199-.482-.284-.738a27.346 27.346 0 0 0-.765-1.588 12.64 12.64 0 0 0-.483-.85c-3.97-6.75-3.346-18.548-3.346-18.548s-.028-.028-.085-.028c-.255-.142-1.22-.596-3.857-1.446.482.141.766 5.927.822 6.636.227 2.184.397 4.367.624 6.579.539 4.935.936 9.926.426 14.889-1.503 14.804-10.635 27.509-19.597 39.477-3.828 5.104-7.799 10.606-8.394 17.101-.284 3.006.198 6.068-.057 9.075-.88 9.869-9.444 14.917-17.13 19.001-7.968 4.254-16.561 7.146-25.353 8.933-8.14 1.673-22.716 3.318-34.088 3.857.368.851.794 1.673 1.304 2.439 0 .936.029 1.871.029 2.836.028 1.077.028 2.127.056 3.204.085 3.205.227 6.41.312 9.643 2.836.368 7.345.368 7.856.992.142.17.34.397.624.681.283.283.624.595 1.05.936.226.17.453.34.708.538.51.369 1.135.766 1.843 1.163a33.641 33.641 0 0 0 4.481 2.127c.369.142.738.284 1.135.426 3.715 1.333 8.706 2.609 15.4 3.431.708.085 1.417.17 2.154.255 1.106.114 2.27.227 3.46.312 2.78.199 5.814.341 9.132.397.596-.17 1.078-.17 1.56-.17Z" fill="#2B2B37"/><path d="M77.594 129.751c-.879-1.077-2.098-1.928-3.148-2.836a205.972 205.972 0 0 0-3.8-3.176c-2.495-2.099-4.991-4.225-7.317-6.523-3.516-3.431-6.778-7.288-8.904-11.712-1.589.397-3.262.936-4.992 1.56 2.666 5.331 5.7 10.549 8.962 15.541 1.56 2.382 3.176 4.764 4.991 7.005 1.758 2.183 3.687 4.339 6.04 5.87a9.272 9.272 0 0 0 3.149 1.305c.056-.312.141-.596.198-.908.057-.227.369-.113.34.085-.056.284-.141.567-.198.851 1.276.17 2.58 0 3.829-.681 2.552-1.333 2.495-4.339.85-6.381Z" fill="#575770"/><path opacity=".25" d="M101.501 101.675c-1.049 2.071-4.112 10.011-5.416 11.968-1.588 2.439-3.403 4.651-5.077 7.033-1.474 2.071-2.892 4.169-4.48 6.183-1.617 2.07-3.375 4.112-5.474 5.7-.624.454-1.276.879-1.985 1.219-.425 1.844-2.184 3.007-4.056 3.347a6.734 6.734 0 0 1-2.127.057c-2.24 9.358-7.09 17.923-12.364 25.977-4.963 7.572-10.408 14.86-15.485 22.461-5.105 7.685-9.444 15.881-12.223 24.871-1.56 4.992-2.666 10.125-3.772 15.258a1011.705 1011.705 0 0 0-3.431 16.618c-.624 3.205-1.248 6.381-1.617 9.643 2.723.227 6.04.312 6.495.851.397.51 1.304 1.418 2.95 2.524.113-3.375.51-6.722 1.219-10.011 5.104-24.021 23.425-51.416 38.739-77.309 19.795-33.549 36.244-63.213 28.104-66.39Z" fill="#2B2B37"/><path opacity=".25" d="M128.103 118.748c-.766-5.048-.539-9.047-.539-9.047s-1.247-.822-8.422-2.836c-4.992-1.389-21.78-6.721-30.77-9.16-4.283 6.324-10.92 3.29-15.287 4.254-7.628-1.701-12.705 2.524-12.705 2.524-3.687.255-7.77-6.55-12.677-4.594 3.545 7.232 10.153 14.463 21.866 12.507 13.017-2.184 51.104 1.616 58.534 6.352Z" fill="#2B2B37"/><path opacity=".25" d="M75.58 109.758c2.241-.425 4.425-1.078 6.665-.284 1.135.426 2.212.965 3.375 1.277 1.447.34 2.921.51 4.396.567 6.636.255 15.172-1.503 17.98-7.771-6.636-2.042-14.463-4.424-19.682-5.842-4.282 6.324-10.918 3.29-15.285 4.254-7.63-1.701-12.706 2.524-12.706 2.524-3.686.255-7.77-6.55-12.676-4.594 5.615 3.942 12.903 7.26 20.787 10.011 2.44.312 4.821.312 7.147-.142ZM70.135 139.904c-8.337 4.112-15.087 17.044-21.184 26.091-15.201 22.631-24.078 49.885-26.8 66.503 0 2.156.028 4.339.057 6.523.028 2.382.113 4.765.198 7.147.823 1.645 2.099 2.864 3.829 2.864 2.467.028 4.254-2.439 5.473-4.708 8.196-15.314 10.068-33.152 16.222-49.033 3.205-8.253 7.544-15.91 12.166-23.284 3.148-5.019 7.26-9.585 8.82-15.371.596-2.24 6.41-19.284 1.22-16.732ZM50.369 104.682s5.303 11.911 10.635 18.49c5.36 6.608 11.826 12.705 11.826 12.705l8.224-3.318s-9.614-3.346-16.278-9.614c-6.665-6.239-14.407-18.263-14.407-18.263Z" fill="#2B2B37"/><path d="M71.27 146.626c.993-1.05 2.042-2.042 3.063-3.063a162.514 162.514 0 0 0 7.118-7.516c-21.043-13.244-23-18.83-35.648-39.306-.17-.255.992 28.019 25.467 49.885Z" fill="#2B2B37"/><path d="M72.886 130.347a25.228 25.228 0 0 1-1.644 3.659c-1.447 2.609-3.29 5.104-5.502 7.146a72.641 72.641 0 0 0 5.558 5.474c.993-1.05 2.042-2.042 3.063-3.063a163 163 0 0 0 7.118-7.515 150.581 150.581 0 0 1-8.593-5.701Z" fill="#21212B"/><path d="M99.857 99.548c-2.95 11.571-71.297 73.707-77.65 136.665 0 .936.029 1.872.029 2.808.057 4.481.284 8.99.397 13.528h7.97c0-5.105.907-10.21 2.693-14.946 7.317-19.37 34.457-71.211 42.483-82.526 26.431-37.492 28.246-55.529 24.078-55.529Z" fill="#2B2B37"/><path d="M66.165 146.824c-6.948 7.827-12.762 16.817-17.129 26.573-.34.737-.652 1.503-.624 2.297.029.794.567 1.645 1.333 1.73.51.057 1.021-.198 1.446-.51 3.403-2.241 5.53-6.041 7.232-9.813 1.134-2.467 2.155-4.991 3.545-7.317 1.361-2.325 3.318-3.998 4.878-6.125 1.02-1.418 1.333-2.638 1.56-4.368.227-1.758.113-5.133-2.24-2.467Z" fill="#2B2B37"/><path opacity=".25" d="M56.75 124.42c1.957 2.807 3.006-.567 2.212-2.524-.68-1.645-1.843-3.46-3.233-4.623-.993-.822-1.928-1.276-2.326.227-.623 2.326 2.184 5.218 3.347 6.92ZM89.023 120.024c1.503-1.843-.964-1.928-2.098-1.021-.965.766-1.957 1.9-2.44 3.063-.368.823-.481 1.56.596 1.532 1.645 0 3.063-2.468 3.942-3.574ZM77.31 129.241a656.544 656.544 0 0 0-9.358 11.854c.227.539.794.823 1.928.681 3.687-.454 6.268-6.324 7.998-9.075 1.531-2.326.794-3.347-.568-3.46Z" fill="#464557"/><path opacity=".14" d="M22.605 116.054c-.142 2.098 1.503 4.367 3.601 4.14 3.262-.34 12.082-7.997 9.558-10.805-3.177-3.516-12.933 3.432-13.16 6.665ZM98.212 128.674c-.624-.369-4.424 2.098-2.439 3.686 1.163.908 3.091 0 3.148-2.07 0-.624-.199-1.304-.709-1.616Z" fill="#D8D8D8"/><path d="M105.844 121.335c-.318 5.741 2.157 11.279 5.245 16.187 3.775 5.98 20.196 24.434 8.166 33.725-1.656 1.283-3.737 2.056-5.165 3.566-2.294 2.43-2.306 6.131-1.29 9.216 1.01 3.031 12.402 18.972-1.921 31.476l-8.249-6.839c10.738-2.779 11.043-10.564 9.296-17.099-1.799-6.671-6.651-12.35-2.745-16.326 1.842-1.87 7.008-2.359 8.245-4.669 8.963-16.656-20.607-8.918-21.845-31.102-.3-5.538 1.17-11.018 2.689-16.379 5.032-17.729-.613-19.257-6.359-24.865-3.982-3.879-6.49-9.183-6.593-14.633-.103-5.45 2.243-10.981 6.515-14.656-3.755 26.356 15.63 23.583 14.011 52.398Z" fill="#74A352"/><path d="M99.058 95.746c-.49-.414-.98-.811-1.488-1.206-4.03-3.233-7.914-6.499-10.276-11.07-.692-1.32-1.182-2.676-1.561-4.062.83-3.96 2.939-7.706 6.104-10.435-2.038 14.216 2.707 19.958 7.22 26.773Z" fill="#568040"/><path d="M91.743 81.789c-1.43-2.35-2.918-5.086-3.911-7.941a18.683 18.683 0 0 1 4.001-4.91c-.797 5.645-.544 9.943.332 13.52-.134-.217-.286-.433-.422-.67Z" fill="#3E5C2E"/><path opacity=".49" d="M111.528 138.173c2.788 4.138 9.757 12.651 11.607 20.616-4.551-9.301-33.633-11.305-17.195-41.644a53.172 53.172 0 0 1-.096 4.19c-.318 5.741 2.157 11.279 5.246 16.187.11.168.222.352.352.535.022.033.064.083.086.116Z" fill="#AED888"/><path d="M103.808 115.682c-1.406 4.211-4.28 7.802-6.662 11.628.368-1.405.755-2.813 1.143-4.221 3.19-11.269 2.069-15.998-.644-19.378a13.656 13.656 0 0 1 3.113 1.722c1.945 1.464 3.39 3.581 3.639 5.923.162 1.46-.126 2.929-.589 4.326Z" fill="#3E5C2E"/><path opacity=".49" d="M110.817 141.818c-3.081-2.721-4.664-5.857-3.86-9.902a9.62 9.62 0 0 1 .468-1.54c.956 2.485 2.242 4.885 3.664 7.147 1.287 2.026 4.029 5.51 6.623 9.578-2.278-1.805-4.739-3.377-6.895-5.283Z" fill="#AED888"/><path d="M141.003 216.59c-5.167 1.424-13.253-4.433-10.328-15.661 6.064-23.323 5.948-31.903 1.805-46.174-2.515-8.668-.842 5.399-.842 5.399s.646 15.001-.042 19.919c-.67 4.919-3.143 18.432-3.53 22.929-.388 4.498.449 9.995 3.136 12.076 2.67 2.062 9.801 1.512 9.801 1.512Z" fill="#74A352"/><path d="M95.725 113.284c-5.171 31.758 21.912 25.252 29.51 30.252 1.812 1.201 3.268 2.881 4.445 4.75a23.151 23.151 0 0 1 2.87 6.72c.88 3.47.947 7.103.865 10.696-.184 9.02-1.144 18.05-3.245 26.796-3.717 15.566-2.397 16.316 8.51 28.41-9.608-3.692-11.111-10.55-10.997-18.297.111-7.572 13.679-63.243-15.1-58.399-1.129.276-2.202.475-2.609.567-15.396 3.249-28.227-7.013-17.906-34.303 2.461-6.538 8.622-21.263-.07-30.354 10.243 4.59 5.245 23.791 3.727 33.162Z" fill="#3E5C2E"/><path d="M112.583 144.231c-1.129.276-2.202.475-2.609.567-1.647.347-3.255.54-4.824.559.762-.493 1.525-1.005 2.325-1.478 1.934-1.155 4.292-2.324 6.757-3.163 4.512.809 8.678 1.266 11.003 2.801 1.812 1.201 3.268 2.881 4.445 4.75a23.142 23.142 0 0 1 2.871 6.72c.88 3.47.946 7.103.865 10.695-.185 9.021-1.145 18.051-3.246 26.797-3.717 15.566-2.397 16.316 8.51 28.41-9.608-3.693-11.111-10.551-10.997-18.297.13-7.533 13.679-63.204-15.1-58.361ZM95.724 113.284c-3.394 20.864 7.11 25.205 16.887 27.161-7.876 2.53-15.86 1.988-22.457-3.484-2.68-5.713-2.646-14.426 1.913-26.465 2.462-6.539 8.623-21.263-.07-30.354 10.243 4.57 5.245 23.771 3.727 33.142Z" fill="#568040"/><path d="M96.27 105.002a58.78 58.78 0 0 1-1.289 5.684c-1.06 3.658-2.835 6.901-5.013 9.927-.356.479-.733 1.093-1.165 1.706.541-3.51 1.605-7.458 3.246-11.823 1.144-3.02 3.049-7.769 3.942-12.897.541 2.518.753 4.859.278 7.403Z" fill="#3E5C2E"/><path d="M103.067 137.584c-3.274-.91-6.709-2.266-8.851-5.171-2.56-3.471-2.666-8.341-.902-12.222.494-1.095 1.17-2.072 1.92-3.01-1.076 12.468 3.562 18.032 9.618 20.869a31.401 31.401 0 0 1-1.785-.466Z" fill="#74A352"/><path d="M130.792 153.865c1.536 5.66.886 15.023.076 20.848.75-15.989-2.963-32.206-18.211-30.5 5.833-4.585 15.734.812 18.135 9.652Z" fill="#3E5C2E"/><path d="M47.165 72.011s-3.035 2.78-3.659 5.417c-.595 2.637 2.78 6.75 2.78 6.75l4.594-2.695-3.715-9.472Z" fill="#75A152"/><path d="M100.594 72.89s3.035 4.48 1.929 10.238c-1.106 5.757-5.984 7.147-5.984 7.147l-1.645-2.44 5.7-14.945Z" fill="#568040"/><path d="M89.364 88.488c.056 5.162-6.948 9.415-15.627 9.529-8.678.113-15.767-3.97-15.796-9.132-.028-5.161 6.948-9.415 15.626-9.529 8.65-.113 15.74 3.97 15.797 9.132Z" fill="#21212B"/><path d="M47.108 50.685a81.138 81.138 0 0 0-.284 4.537c-.085 2.354-.113 4.708.086 7.062.794 8.961 5.133 17.1 10.521 23.793a95.013 95.013 0 0 1-2.467-15.512c-.227-3.12-.312-6.296.113-9.387.624-4.566 2.354-8.877 3.12-13.414.397-2.354.538-4.736.68-7.119.142-2.439.284-4.878.454-7.317.17-2.92-1.276-5.445-3.573-2.864-1.617 1.787-3.006 3.857-4.198 6.013a37.358 37.358 0 0 0-4.452 14.208ZM97.9 50.06c.199 1.503.284 3.007.369 4.538.113 2.354.198 4.708.057 7.062-.624 8.99-4.793 17.242-10.04 24.049a95.586 95.586 0 0 0 2.156-15.598c.17-3.12.198-6.296-.284-9.387-.709-4.538-2.524-8.792-3.375-13.33-.454-2.325-.652-4.707-.822-7.09l-.596-7.316c-.227-2.921 1.163-5.473 3.517-2.95 1.645 1.759 3.091 3.772 4.31 5.9A37.981 37.981 0 0 1 97.9 50.06Z" fill="#2B2B37"/><path d="M100.906 46.97c-.198-1.078-.709-2.128-1.531-2.666-1.191-.795-2.212-.766-3.063-.17-2.354-15.315-12.025-26.744-23.51-26.602-11.486.142-20.93 11.826-22.972 27.197-.879-.567-1.9-.567-3.063.255-.822.567-1.304 1.645-1.503 2.723-.17 1.077-.056 2.183.057 3.261a77.078 77.078 0 0 0 2.326 11.656c.198.709.397 1.39.765 2.013.71 1.135 1.986 1.787 3.205 1.645.114-.028.227-.028.34-.056 3.97 11.088 12.138 18.632 21.469 18.518 9.33-.113 17.356-7.884 21.1-19.057.113.028.226.056.34.056 1.22.114 2.495-.567 3.176-1.73.369-.624.567-1.332.737-2.013a77.323 77.323 0 0 0 2.099-11.713c.113-1.134.198-2.24.028-3.318Z" fill="#D58500"/><path d="M87.463 30.096a80.549 80.549 0 0 1 4.992 1.786c-4.368-8.763-11.571-14.435-19.682-14.35-11.485.142-20.93 11.826-22.971 27.197-.88-.567-1.9-.567-3.063.255-.822.568-1.305 1.645-1.503 2.723-.17 1.078-.057 2.184.057 3.261.283 2.41.68 4.793 1.19 7.147.54-.34 1.107-.624 1.646-.88a25.208 25.208 0 0 1 2.864-1.162c1.05-20.844 13.386-33.606 36.47-25.977ZM71.809 51.478s10.805-1.049 18.888 1.106c8.054 2.156 8.961 2.468 8.961 2.468l-1.843 5.7-26.006-9.274Z" fill="#B45F00"/><path opacity=".36" d="M100.906 46.97c-.198-1.078-.709-2.128-1.531-2.667-1.191-.794-2.212-.765-3.063-.17A42.857 42.857 0 0 0 94.1 35.54c-.057-.113-.085-.227-.142-.34a31.073 31.073 0 0 0-.936-2.24c-.056-.142-.113-.256-.17-.398a3.232 3.232 0 0 0-.283-.538c-.085-.142-.142-.284-.227-.426-.085-.17-.17-.34-.284-.51-.085-.142-.142-.284-.227-.426-.085-.17-.198-.34-.283-.51l-.255-.425c-.086-.17-.2-.312-.284-.483l-.255-.425c-.086-.142-.199-.312-.284-.454-.085-.141-.198-.283-.284-.425-.085-.142-.198-.284-.283-.425-.114-.142-.199-.284-.312-.426-.085-.142-.199-.255-.284-.397a2.865 2.865 0 0 0-.368-.454l-.256-.34c-.198-.255-.425-.51-.624-.737-.056-.057-.113-.142-.17-.199a9.434 9.434 0 0 0-.51-.539l-.255-.255c-.142-.142-.284-.284-.426-.454-.085-.085-.198-.17-.283-.283a5.436 5.436 0 0 0-.426-.397c-.085-.085-.198-.17-.283-.255a4.923 4.923 0 0 0-.426-.37c-.113-.084-.198-.17-.312-.255-.142-.113-.312-.255-.454-.368-.085-.085-.198-.142-.283-.227-.17-.113-.312-.227-.482-.34-.085-.057-.199-.142-.284-.199l-.51-.34-.256-.17c-.198-.114-.397-.256-.623-.369-.057-.028-.114-.085-.17-.113a22.646 22.646 0 0 0-1.646-.851c-.028-.029-.085-.029-.113-.057-.227-.113-.482-.198-.709-.284-.085-.028-.142-.056-.227-.085-.198-.085-.425-.141-.624-.227a3.578 3.578 0 0 0-.283-.085l-.596-.17c-.085-.028-.198-.056-.284-.085-.198-.056-.397-.085-.595-.142-.057 0-.113-.028-.142-.028h.029a18.785 18.785 0 0 0-3.8-.397c-11.486.142-20.93 11.826-22.972 27.197-.88-.567-1.9-.567-3.063.255-.822.567-1.304 1.645-1.503 2.723-.17 1.077-.057 2.183.057 3.261.283 2.41.68 4.793 1.19 7.147.54-.34 1.107-.624 1.646-.88a28.865 28.865 0 0 1 4.282-1.616c.964-.284 1.957-.567 2.95-.766v-.255c-1.447-45.63 64.121-19.625 26.913 12.932-2.552 2.24-5.729 3.545-8.763 4.793-3.659 1.531-7.63 2.92-11.571 3.063-1.9.056-3.772-.227-5.644-.653 4.368 6.268 10.465 10.125 17.158 10.04 9.33-.114 17.356-7.884 21.1-19.058.113.028.227.057.34.057 1.22.113 2.496-.567 3.176-1.73.369-.624.567-1.333.738-2.014a77.324 77.324 0 0 0 2.098-11.712c-.056-1.248.029-2.354-.142-3.432Z" fill="#B45F00"/><path d="M100.906 46.97c-.198-1.078-.709-2.128-1.531-2.666-1.191-.795-.425-2.468-1.305-1.9-.51-3.234-2.353-5.985-4.594-8.282l-3.034-.652c6.58 8.083 7.714 20.958 1.985 29.069-1.957 2.75-2.468 1.418-5.389 2.58-1.049.426-2.155.681-3.26.936-.483.51-.965.965-1.504 1.418-2.58 2.184-5.729 3.545-8.763 4.793-3.658 1.531-7.629 2.921-11.57 3.063-1.901.057-3.773-.227-5.645-.652 4.368 6.267 10.465 10.124 17.158 10.039 9.33-.113 17.356-7.884 21.1-19.058.113.029.227.057.34.057 1.22.113 2.496-.567 3.176-1.73.37-.624.568-1.333.738-2.014a77.32 77.32 0 0 0 2.098-11.712c.085-1.106.171-2.212 0-3.29Z" fill="#B45F00"/><path opacity=".36" d="M81.508 51.507c-1.361-.964-.992-10.493-.907-10.777l-1.872-.709c-3.091 6.523-3.176 10.181-3.176 16.052 0 .453 2.07.539 2.24.964.142.397.369.737.596 1.05.652.822 1.56 1.502 2.524 1.56.992.056 2.042-.596 2.325-1.674.085-.397.085-.794.057-1.191-.17-1.73-1.588-5.133-1.787-5.275Z" fill="#B45F00"/><g opacity=".36" fill="#E2A040"><path opacity=".36" d="M66.903 33.754c0 .283.085.567.227.822.368.71 1.02 1.191 1.701 1.503.17.085.369.142.567.114 1.787-.227-.425-2.666-1.049-2.978-.567-.284-1.418-.454-1.446.539ZM59.047 44.389c.199-.397.964-.425 1.276-.34.37.085.823.113.908.623.057.511-.397.795-.794.795-.312 0-1.134-.142-1.305-.483-.142-.255-.17-.453-.085-.595ZM81.706 45.325c0-.426.653-.88.993-.993.369-.114.766-.34 1.05.057.283.425 0 .907-.341 1.106-.255.17-1.05.482-1.361.283-.256-.113-.34-.283-.34-.453ZM57.6 50.798c.341.029.681-.198.88-.482.085-.142.17-.284.17-.454a.536.536 0 0 0-.057-.227c-.227-.595-1.106-.709-1.531-.34-.624.482-.114 1.475.539 1.503ZM89.789 50.26c.34.028.68-.2.88-.483.084-.142.17-.284.17-.454a.535.535 0 0 0-.057-.227c-.227-.595-1.106-.709-1.532-.34-.595.454-.085 1.475.539 1.503Z"/></g><path opacity=".36" d="M71.327 44.502c-1.674-5.417-11.032-5.729-16.08-5.445-.227 0-.454.028-.624.17-.057.028-.085.085-.114.142-.056.198.142.34.284.425 10.295 4.481 14.038 4.651 14.038 8.281 0 4.453-3.602.766-22.12 7.8l2.807 9.443a205.308 205.308 0 0 0 8.933-3.772C69.37 56.64 74.56 55.052 71.327 44.502ZM87.634 41.921l-.256.17c-1.446 1.078-2.92 2.156-4.736 1.844-2.098-.34-4.537-2.893-3.885-3.574.198-.198 1.588-.113 1.843-.17a32.293 32.293 0 0 1 3.233-.595c1.05-.142 2.099-.312 3.148-.284 1.759.029 3.545.057 5.275.312.227.029.426.085.596.227.028.028.085.085.085.142.057.198-.17.34-.312.397-1.05.368-2.184.17-3.233.51-.624.227-1.191.624-1.758 1.021Z" fill="#B45F00"/><path d="M60.267 46.118c-.029.199-.057.397-.057.624 0 1.248.567 2.27 1.248 2.27.68 0 1.248-1.022 1.248-2.27 0-.227-.029-.425-.057-.624h-2.382Z" fill="#323147"/><path fill-rule="evenodd" clip-rule="evenodd" d="M54.626 44.55a.425.425 0 0 1 .602-.016c.85.803 1.613 1.135 2.359 1.267.66.116 1.313.08 2.058.038l.384-.02c.893-.046 1.884-.059 3.005.244 1.124.303 2.351.916 3.745 2.084a.425.425 0 0 1-.546.652c-1.315-1.101-2.434-1.648-3.42-1.914-.99-.268-1.872-.26-2.741-.217l-.365.02c-.74.042-1.502.085-2.268-.05-.918-.161-1.831-.574-2.796-1.486a.425.425 0 0 1-.017-.602Z" fill="#323147"/><path d="M85.904 46.118c.028.199.057.397.057.624 0 1.248-.568 2.27-1.248 2.27s-1.248-1.022-1.248-2.27c0-.227.028-.425.057-.624h2.382Z" fill="#323147"/><path fill-rule="evenodd" clip-rule="evenodd" d="M91.573 44.55c.162.17.154.44-.017.601-.965.912-1.878 1.325-2.796 1.487-.765.135-1.528.091-2.268.05a54.099 54.099 0 0 0-.365-.02c-.868-.044-1.751-.051-2.74.216-.987.267-2.106.813-3.42 1.914a.425.425 0 1 1-.547-.652c1.394-1.168 2.622-1.78 3.745-2.083 1.121-.303 2.112-.29 3.005-.245l.385.02c.744.042 1.397.078 2.058-.038.745-.131 1.509-.463 2.359-1.267a.425.425 0 0 1 .601.017Z" fill="#323147"/><path opacity=".36" d="M66.79 47.792c-1.05-3.319-6.977-2.865-4.652-3.829.255-.085 3.999-.199 4.651 3.829Z" fill="#B45F00"/><path d="M56.75 78.733c-.199-.142-3.659-1.05-3.659-.823 0 .227 2.723 7.827 2.921 8.14.199.311 5.304 4.338 5.304 4.338s3.26-2.92 3.26-3.148c0-.227-.396-2.609-.396-2.609l-7.43-5.898Z" fill="#21212B"/><path d="M97.531 73.826c1.674-4.254 2.836-17.64 2.836-17.64-27.565-6.976-27.055-6.976-54.45.681 0 0 .425 3.886 1.077 8.111.54 1.05 1.191 2.099 1.673 3.091.936 1.872 1.9 3.687 2.808 5.559.794 1.645 1.617 3.261 2.553 4.821.085.113.198.227.283.34 2.723 3.318 6.665 5.389 10.266 7.232 1.248.624 2.496 1.106 3.744 1.418 3.913.057 7.997-.028 11.883-.198 4.055-.738 8.11-1.787 11.826-3.8 1.503-.823 2.807 1.474 1.673 2.495 1.9-.34 3.516-.71 4.68-1.163l-.058-4.65c-1.19-1.589-1.928-3.376-.794-6.297Z" fill="#464558"/><path d="M97.531 73.826c1.673-4.254 2.836-17.64 2.836-17.64-12.904-3.261-19.653-5.02-25.977-5.161a35.408 35.408 0 0 1-.908 2.95c-.88 2.382-2.155 4.707-4.055 6.38-2.184 1.957-5.247 3.063-8.14 3.035-4.31-.057-6.154-4.283-6.21-9.075-1.617.453-7.317 2.041-9.189 2.552 0 0 .425 3.885 1.078 8.11.538 1.05 1.19 2.1 1.673 3.092.936 1.872 1.9 3.687 2.808 5.559.794 1.644 1.616 3.26 2.552 4.82.085.114.198.228.283.341 2.723 3.318 6.665 5.388 10.267 7.232 1.248.624 2.495 1.106 3.743 1.418 3.914.056 7.998-.029 11.883-.199 4.055-.737 8.11-1.786 11.826-3.8 1.503-.822 2.808 1.475 1.673 2.496 1.9-.34 3.517-.71 4.68-1.163l-.057-4.651c-1.163-1.588-1.9-3.375-.766-6.296Z" fill="#323147"/><path d="M48.696 68.07c.935 1.871 1.9 3.686 2.807 5.558.794 1.645 1.617 3.261 2.553 4.82.085.114.198.228.283.341 2.723 3.318 6.665 5.388 10.266 7.232 1.248.624 2.496 1.106 3.744 1.418 1.701.028 3.403.028 5.133 0-.142-.057 4.254-2.467 4.112-2.524-3.687-1.532-16.42 2.524-23.595-18.349a55.062 55.062 0 0 1-2.468-10.465l-.084-.765a382.864 382.864 0 0 1-5.53 1.531s.425 3.885 1.077 8.111c.567 1.078 1.22 2.099 1.702 3.091Z" fill="#2B2B37"/><path d="M74.531 87.41a.618.618 0 0 0 .142-.226c.823-1.22 1.447-2.581 1.702-4.056.284-1.645.113-3.318-.227-4.906-.312-1.475-.794-2.921-.907-4.424-.114-1.333.226-2.61.737-3.857.51-1.22 1.163-2.354 1.503-3.63.255-.993.397-2.042.312-3.063-.057-1.05-.34-2.184-1.106-2.95-.652-.68-2.07-1.275-2.95-.651-.737.51-.822 1.701-.907 2.523-.114 1.106-.312 2.156-.794 3.177-.539 1.19-1.333 2.24-2.042 3.318-.823 1.248-1.531 2.58-1.843 4.055-.653 2.893.17 5.644 1.644 8.111 1.135 1.872 2.44 3.772 2.978 5.927.057.227.085.426.142.653.567.028 1.106.028 1.616 0Z" fill="#2B2B37"/><path d="M97.531 73.826c1.673-4.254 2.836-17.64 2.836-17.64.029-.368-11.94-2.977-13.244-3.26-3.063-.681-6.438-1.589-9.585-1.702.028 2.665-.766 6.466 1.786 8.366.51.368 1.106.624 1.617.964 2.95 1.957 2.552 6.324.312 7.742-.908.567-2.383.88-1.362 2.382.54.766 1.362 1.333 2.042 1.929.567.482 1.248 1.05 1.447 1.815a2.359 2.359 0 0 1-.256 1.701c1.929 4.623-8.99 11.174-24.56 6.41 1.958 1.332 4.056 2.439 6.042 3.46 1.247.623 2.495 1.106 3.743 1.418 3.914.056 7.997-.029 11.883-.199 4.055-.737 8.11-1.787 11.826-3.8 1.503-.823 2.807 1.474 1.673 2.495 1.9-.34 3.517-.709 4.68-1.162l-.057-4.651c-1.22-1.56-1.957-3.347-.823-6.268Z" fill="#2B2B37"/><path d="M97.531 73.826c1.673-4.254 2.836-17.64 2.836-17.64.028-.453-5.502-1.53-5.955-1.616-.766-.17-1.532-.368-2.326-.539-.284-.056-.794-.283-1.078-.255-.397.057-.425.397-.623.737-.851 1.532-1.56 2.666-1.475 4.538v.198c.113 1.73.709 3.375 1.106 5.048.255 1.05.454 2.127.34 3.177-.369 3.403-3.545 5.7-4.85 8.848-.396.964-.595 2.013-1.134 2.921-1.02 1.702-3.006 2.524-4.31 3.999-.653.737-1.135 1.645-1.929 2.212-.907.652-2.07.766-3.176.709-.88-.029-1.872-.312-2.723-.17-.312.056-5.501 1.333-11.94-2.297 3.83 7.572 14.521 4.395 18.35 3.771 4.594-.765 9.216-1.786 13.414-4.084 1.588-.879 2.977 1.816 1.39 2.695-.029.028-.086.028-.114.056 2.07-.453 3.8-.935 5.076-1.39l-.056-4.65c-1.22-1.56-1.957-3.347-.823-6.268Z" fill="#21212B"/><path d="M90.442 75.5c-.993 2.722-2.099 5.388-3.574 7.826a33.27 33.27 0 0 1-4.906 6.268c-.88.88-1.872 1.588-2.637 2.61-.398.51-.766 1.048-1.163 1.502l.028 1.702a158.147 158.147 0 0 0 17.158-1.276c.766-1.475 1.616-2.922 2.269-4.453.709-1.645 1.39-3.403 1.815-5.161.028-.114.056-.199.085-.312-3.12-9.87 16.647-51.842-7.6-71.297C78.36 2.048 68.008 3.097 55.87 12.342c-25.978 19.795-5.133 62.76-8.31 72.63a7.218 7.218 0 0 1-.453 1.077c.624 1.758 1.446 3.403 2.297 5.02.652 1.19 1.276 2.41 1.957 3.573.028.057.085.142.113.199 5.757 1.36 14.52 4.82 19.2 4.906 2.269.028 2.92-.482 2.155-3.432l-1.19.029-.03-1.872-.34-.34a9.602 9.602 0 0 0-2.835-2.07c-8.452-4.113-12.677-14.52-15.542-23.029-3.885-11.542-3.687-26.885 1.929-33.52 9.557-11.26 26.601-11.628 36.47-.398 6.637 7.544 9.416 20.277.057 37.86-.312.851-.595 1.673-.907 2.524Z" fill="#464558"/><path d="M47.817 80.717c.113 1.759.056 3.205-.284 4.254a7.219 7.219 0 0 1-.453 1.078c.623 1.758 1.446 3.403 2.297 5.02.652 1.19 1.276 2.41 1.956 3.573.029.057.086.142.114.198 5.757 1.362 14.52 4.822 19.2 4.907 1.673.028 2.467-.256 2.467-1.617-15.003-8.366-22.49-6.55-25.297-17.413Z" fill="#323147"/><path opacity=".32" d="M96.737 90.615a63.92 63.92 0 0 0 1.985-4.51c.284-.708.454-1.474.681-2.211-2.24-8.763 11.089-39.704.737-60.69.341 3.63.057 7.26-1.049 10.72-.88 2.78-2.184 5.417-3.687 7.827 3.12 7.572 2.921 18.037-4.084 31.224-.311.851-.595 1.674-.907 2.524-.993 2.723-2.099 5.389-3.573 7.828a33.27 33.27 0 0 1-4.907 6.267c-.879.88-1.871 1.588-2.637 2.61-.624.85-1.22 1.729-2.07 2.325v.879c5.955-.085 11.91-.482 17.81-1.276.595-1.163 1.134-2.326 1.701-3.517ZM89.562 29.67c-.198-2.127-1.474-4.169-3.006-5.388-1.333-1.078-2.978-1.503-4.594-1.588-3.375-.17-6.665.936-10.011 1.19-1.9.142-3.744-.283-5.644-.453-2.24-.227-4.254.312-5.984 2.014-1.616 1.616-2.807 3.686-4.197 5.53-1.361 1.786-3.006 3.233-4.509 4.85-1.39 1.502-2.723 3.119-3.687 5.019-.482.964-.879 1.985-1.163 3.063-.312 1.22-.482 2.495-.765 3.715-.596 2.552-1.475 5.02-1.844 7.6-.17 1.248-.17 2.467-.17 3.715 1.021 6.438 2.382 12.365 3.176 17.101.398.737.823 1.446 1.248 2.155 1.163 1.929 2.44 3.829 3.12 6.041.652 2.042.737 4.367.085 6.41a9.536 9.536 0 0 1-1.276 2.58h.709l.028 1.531c5.417 1.22 12.365 4.878 17.441 4.935 1.588.028 3.262-.227 4.198-1.418.227-.284.312-1.078.141-1.843l-1.333.028-.028-2.013c-.085-.086-.17-.199-.284-.284a9.602 9.602 0 0 0-2.835-2.07c-8.452-4.112-16.08-13.585-18.945-22.093-3.885-11.542-.283-27.82 5.332-34.456 8.848-10.465 24.19-11.514 34.23-2.61a6.14 6.14 0 0 0 .567-3.26Z" fill="#323147"/><path d="M49.377 44.757c-.34 1.191-.312 2.41-.369 3.63 0 .199-.028.426-.028.652.709-3.26 1.73-6.324 2.95-8.876-.993 1.475-2.071 2.864-2.553 4.594Z" fill="#464558"/><path d="M97.446 90.7c.71-1.815 1.503-3.602 2.07-5.473.057-.17.114-.34.17-.54-.056-.113-.085-.254-.141-.368-1.645-4.793 2.439-17.583 4.027-31.678-1.22 6.466-6.835 24.843-6.948 25.099-.51 1.304-1.135 2.637-1.929 3.743-.709 1.021-1.673 1.617-2.637 2.297-.624.426-1.22.908-1.588 1.617-.255.482-.369 1.02-.482 1.56-.227 1.077-.454 2.155-1.106 3.006-.624.794-1.475 1.276-2.326 1.701-1.191.596-2.382 1.135-3.658 1.447-1.532.368-3.035.397-4.566.397-.397.453-.794.879-1.333 1.162-.426.256-4.027 3.375-4.453 3.63 6.835 0 16.25-2.864 23.539-4.254.454-1.049.907-2.212 1.361-3.346Z" fill="#323147"/><path d="M54.822 35.484c7.26-8.565 18.887-10.834 28.36-6.466-.766-.51-1.532-1.021-2.213-1.645-.482-.454-.822-.539-1.446-.652-.283-.057-.51-.114-.766-.256-.85-.425-1.673-.907-2.58-1.19-.397-.114-.794-.227-1.22-.313-.056 0-.113 0-.17-.028-1.191-.113-2.382-.312-3.573-.34-1.22-.057-2.41.283-3.63.312-1.333.056-2.468.056-3.602.907-.908.68-1.73 1.418-2.666 2.014-1.957 1.248-3.97 2.354-5.502 4.31a12.035 12.035 0 0 0-1.73 3.063c-.113.255-1.049 2.553-1.758 3.375-13.953 15.711-2.893 59.64 20.901 58.903.199-1.39-1.475-2.893-1.843-3.318-.908-.964-1.985-1.702-3.12-2.269-8.394-4.14-12.733-14.265-15.598-22.716-3.374-9.982-4.31-22.83 0-30.6.653-.88 1.73-2.552 2.156-3.091Z" fill="#323147"/><path d="M43.931 40.56c3.29-2.269 6.495-4.85 9.104-8.083 2.808-3.488 5.048-7.657 6.523-12.052 1.049-3.092 1.673-6.325 1.701-9.643 0-.68 0-1.333-.056-2.013a50.663 50.663 0 0 0-5.36 3.601c-9.728 7.43-12.904 18.122-13.216 29.07.454-.313.88-.596 1.304-.88Z" fill="#575770"/><path opacity=".25" d="M72.716 23.998a.486.486 0 0 1-.453-.312c-.68-1.73-.426-3.602-.199-5.388.17-1.248.312-2.524.17-3.715-.056-.426-.141-.88-.255-1.333-.085-.34-.17-.71-.227-1.078-.34-1.957-.085-3.999.142-5.814.028-.312.284-.51.539-.453.255.028.454.312.425.624-.227 1.815-.453 3.658-.142 5.445.057.34.142.652.199.992.113.454.227.936.284 1.447.17 1.332 0 2.694-.17 4.027-.227 1.73-.426 3.346.141 4.82.114.284 0 .596-.255.71-.057.028-.142.028-.199.028Z" fill="#2B2B37"/><path d="M90.895 34.264a19.298 19.298 0 0 0-3.204-2.524 23.663 23.663 0 0 1 3.601 3.375c6.636 7.544 9.387 20.249.057 37.832l-.936 2.552c-.992 2.723-2.099 5.389-3.573 7.828a26.093 26.093 0 0 1-1.872 2.75c5.899-5.53 10.89-12.166 13.358-20.475 3.743-12.365.085-24.02-7.43-31.338Z" fill="#575770"/><path d="M102.267 65.829c-.227-1.844-.17-3.687.029-5.53h-.085l-1.135 6.012a112.035 112.035 0 0 0-3.346 11.797c-.255 1.106-.482 2.212-.851 3.29-1.22 3.715-3.687 6.693-6.126 9.586.397.482 1.106.368 1.674.17a15.027 15.027 0 0 0 5.842-3.687c.567-.567 1.134-1.22 1.418-2.013.652-1.73.056-3.744.482-5.559.312-1.361 1.162-2.467 1.758-3.715.766-1.56 1.134-3.347 1.078-5.133-.057-1.787-.511-3.489-.738-5.218Z" fill="#323147"/><path d="M47.845 70.11c-.454-3.97-1.078-7.94-1.702-11.882-.283-1.928-.595-3.857-.879-5.757-.198-1.276-.397-2.552-.709-3.8h-1.673c.227 1.985.567 3.97.737 5.87.284 3.319.37 6.693-.141 10.011-.284 1.759-.71 3.602-.114 5.247.227.652.596 1.191.936 1.786 1.588 2.78 2.382 6.126 2.184 9.416-.057.992-.199 2.013.028 2.978.794 3.63 7.544 9.926 9.642 9.784-3.771-5.389-7.799-19.285-8.309-23.652Z" fill="#464558"/><path d="M46.512 80.235c0 .255 0 .482-.028.737-.057.993-.199 2.014.028 2.978.794 3.63 7.544 9.926 9.642 9.784-.879-1.247 5.814.936 4.623-.992-4.48-2.723-8.31-2.326-14.265-12.507Z" fill="#323147"/><path d="M48.412 75.13c-.198-1.673-.368-3.346-.567-5.02-.454-3.97-1.078-7.94-1.702-11.882-.283-1.928-.595-3.857-.879-5.757-.198-1.276-.397-2.552-.709-3.8h-1.673c.227 1.985.567 3.97.737 5.87.284 3.319.37 6.693-.141 10.011-.284 1.759-.71 3.602-.114 5.247.227.652.596 1.191.936 1.786.482.823.88 1.702 1.191 2.61.936-.766 2.467-.624 2.921.936Z" fill="#464558"/><path d="M42.91 93.053c.51 1.674 1.475 3.12 2.44 4.566 1.02 1.504 2.041 3.063 3.46 4.169 1.417 1.135 3.147 1.759 4.877 2.297a54.206 54.206 0 0 0 12.564 2.326c3.856.255 7.713.085 11.542.652 2.893.426 5.814 1.248 8.735.964 1.985-.198 3.913-.907 5.757-1.701 3.006-1.333 5.984-3.006 8.111-5.615 2.098-2.61 3.204-6.296 2.098-9.5-.255-.767-.822-1.617-1.616-1.56-.482.028-.88.425-1.248.765-5.814 5.785-13.159 10.266-21.185 10.975-2.013.17-4.027.114-6.012.029-1.503-.057-3.006-.114-4.48-.454-2.043-.482-3.915-1.503-5.9-2.127-2.042-.624-4.225-.823-6.239-1.588-3.857-1.475-6.664-4.907-9.302-8.168-1.05-1.304-1.333-2.722-2.07-4.055-1.872 1.957-2.297 5.473-1.532 8.025Z" fill="#75A152"/><path opacity=".37" d="M102.466 91.182c-.255-.766-.822-1.617-1.617-1.56-.482.028-.879.425-1.247.766-5.814 5.785-13.16 10.266-21.185 10.975-2.014.17-4.027.113-6.012.028-1.503-.056-3.007-.113-4.481-.453-1.447-.341-2.808-.965-4.197-1.503 1.162 2.155 1.588 4.736.141 6.721.794.085 1.56.17 2.354.198 3.857.256 7.714.085 11.543.653 2.892.425 5.813 1.247 8.734.964 1.986-.199 3.914-.908 5.758-1.702 3.006-1.333 5.983-3.006 8.11-5.615 2.099-2.552 3.205-6.267 2.099-9.472Z" fill="#568040"/><path d="M102.466 91.182c-.255-.766-.823-1.617-1.617-1.56-.482.028-.879.425-1.248.766-5.813 5.785-13.158 10.266-21.184 10.975-2.014.17-4.027.113-6.013.028-1.502-.056-3.006-.113-4.48-.453-2.042-.483-3.914-1.504-5.9-2.127-2.041-.624-4.225-.823-6.238-1.589-3.857-1.474-6.665-4.906-9.302-8.167-1.05-1.305-1.333-2.723-2.07-4.056a7.698 7.698 0 0 0-.71.908c.34 2.212 1.816 4.197 2.723 6.154 1.106 2.467 1.787 5.133 3.602 7.175 1.673 1.872 3.8 2.864 6.182 3.233 1.191.17 2.41.198 3.602.369 1.163.17 2.297.482 3.46.68 1.276.199 2.552.227 3.828.426 1.276.17 2.524.397 3.8.539 1.192.141 2.354.283 3.517.567 1.333.312 2.637.68 3.999.794 2.354.198 4.906.312 7.231-.142 1.277-.255 2.525-.709 3.8-1.021.568-.142 1.164-.227 1.73-.397.483-.142.937-.369 1.419-.454.907-.142 1.673.341 2.268 1.106 2.07-1.106 3.97-2.495 5.445-4.31 2.156-2.524 3.262-6.24 2.156-9.444Z" fill="#568040"/><path d="M49.405 95.039c.425 1.248.879 2.552 1.758 3.545.993 1.077 2.439 1.673 3.8 2.013 2.78.709 5.757.766 8.565 1.078 2.467.255 4.821.142 7.175-.312a18.158 18.158 0 0 1-2.78-.369c-2.041-.482-3.913-1.503-5.898-2.127-2.042-.624-4.226-.822-6.24-1.588-3.147-1.19-5.586-3.715-7.827-6.38.596 1.332.993 2.75 1.447 4.14ZM75.864 103.235c1.674.68 3.46.765 5.247.652 1.787-.113 3.63-.227 5.388-.567 1.617-.312 3.177-.709 4.793-.936 1.645-.255 3.261-.454 4.764-1.191 1.22-.596 2.525-1.276 3.489-2.297 1.106-1.163 1.446-2.751 1.673-4.311.227-1.588-.057-3.29.142-4.85-.17-.085-.341-.113-.511-.085-.482.029-.879.426-1.248.766-5.813 5.786-13.158 10.266-21.184 10.975-1.844.171-3.687.114-5.559.057.993.652 1.929 1.361 3.006 1.787Z" fill="#3E5C2E"/><path d="M62.706 96.287c2.807.454 33.01 6.239 38.569-16.647.283-1.134.283.057 1.418.085 1.928 18.803-17.895 26.913-36.13 23.17C36.7 96.798 42.825 71.728 45.264 77.4c.965 2.297-.425 15.994 17.442 18.887Z" fill="#75A152"/><path d="M62.706 96.287c2.807.454 33.01 6.239 38.569-16.647.283-1.134.283.057 1.418.085 1.928 18.803-17.895 26.913-36.13 23.17C36.7 96.798 42.825 71.728 45.264 77.4c.965 2.297-.425 15.994 17.442 18.887Z" fill="#75A152"/><path d="M45.69 85.482a20.125 20.125 0 0 1-.312-3.46c-.085-.822-.17-1.9-.68-2.58a.505.505 0 0 0-.228-.2c-.17-.056-.34.03-.454.143-.113.141-.141.312-.17.482-.113.964.369 1.871.568 2.807.17.766.113 1.588.141 2.382.029.795.114 1.617.51 2.298.114.198.256.368.483.397.227 0 .425-.199.454-.426.056-.227 0-.482-.057-.709a9.18 9.18 0 0 1-.255-1.134ZM49.206 93.252c0 .086 0 .17.029.227.056.17.255.255.425.312.114.029.227.085.312.085.114 0 .227-.028.284-.142.056-.056.056-.141.056-.226 0-.199-.028-.426-.141-.596-.37-.454-.88-.198-.965.34Z" fill="#AED888"/><path d="M76.772 98.81c-.426 0-.88.03-1.305.143-1.957.453-4.537.907-5.445 2.183-.369.511-.51 1.418.369 1.674.907.255 1.843-.369 2.467-1.106.652-.766.71-1.503 6.07-1.192l-2.156-1.701Z" fill="#568040"/><path opacity=".37" d="M102.693 79.725c-1.135-.028-1.135-1.22-1.418-.085-4.85 19.937-28.36 18.122-36.216 17.016 2.099.709 4.226 1.22 6.268 2.127 1.786.822 3.686 1.758 4.963 3.346.397.482.68 1.021.879 1.588 14.463-.624 27.083-8.848 25.524-23.992Z" fill="#568040"/><path d="M54.51 96.372c4.112 2.553 9.103 2.723 13.754 3.063 10.607.822 26.063 4.538 29.693-7.288.227-.794 5.813-1.872 4.736-12.45-1.135-.029-1.135-1.22-1.418-.085-5.559 22.886-35.762 17.1-38.57 16.647-7.855-1.276-11.996-4.623-14.236-8.196 1.05 3.431 3.204 6.522 6.04 8.31Z" fill="#568040"/><path d="M60.465 96.429c2.014.368 4.056.397 6.07.425-1.958-.227-3.347-.482-3.858-.567-4.85-.794-8.252-2.354-10.72-4.282 2.27 2.353 5.474 3.857 8.508 4.424ZM76.063 97.45c4.878.481 9.84.595 14.435-1.504 1.078-.482 2.184-1.134 3.063-1.956.794-.766 1.304-1.759 2.184-2.468 1.616-1.304 3.601-1.815 4.736-3.715 1.276-2.155.142-4.594-.454-7.061-.766 10.72-16.052 16.42-25.92 16.533.68.057 1.304.114 1.956.17Z" fill="#3E5C2E"/><path d="M43.903 92.43c.199.255.482.454.652.737.17.34.17.71.199 1.106.028.37.142.794.425.993.199.142.454.142.68.142.086 0 .171 0 .228-.057.085-.057.141-.142.198-.227.568-1.078-.198-2.836-.907-3.658-.284-.34-1.021-1.191-1.475-.908-.596.34-.283 1.503 0 1.872Z" fill="#AED888"/><path d="M72.093 99.293c-.851 0-1.674.113-2.496.312-.85.198-1.73.539-2.24 1.276a1.054 1.054 0 0 0-.142.312c-.057.312.198.624.482.709.284.085.596 0 .88-.113 1.077-.426 1.956-1.305 3.09-1.447.454-.056.936.029 1.39.057.454.028.964.028 1.361-.198.227-.114.652-.454.652-.738-.028-.312-.453-.17-.623-.17-.794.057-1.589 0-2.354 0Z" fill="#568040"/><path d="M67.325 38.551c-.806-.166-6.697-.25-12.365 3.946-.056.028-.084.056-.14.084-.027.027-.055.027-.055.055 0 0-.027.028-.055.028-.111.083 0 .333.139.25.083-.056.166-.111.222-.167 5.64-3.056 9.03.39 12.42-1.334 1.168-.583 1.418-2.5-.166-2.861ZM79.301 41.22c3.335 1.833 6.78-1.53 12.31 1.722.083.056.139.111.222.194.195.167.334-.166-.083-.416-5.558-4.418-11.42-4.502-12.226-4.363-1.556.306-1.334 2.25-.223 2.862Z" fill="#323147"/></g></svg>