<svg width="150" height="150" fill="none" xmlns="http://www.w3.org/2000/svg"><mask id="a" style="mask-type:alpha" maskUnits="userSpaceOnUse" x="0" y="0" width="150" height="150"><circle cx="75" cy="75" r="75" fill="#C4C4C4"/></mask><g mask="url(#a)"><path d="M75.567 153.814c42.863 0 77.611-35.286 77.611-78.814 0-43.528-34.748-78.814-77.61-78.814C32.703-3.814-2.044 31.472-2.044 75c0 43.528 34.747 78.814 77.61 78.814Z" fill="#E3F7FF"/><path d="M59.224 62.18c1.53-1.559 2.445-3.792 1.633-5.815-.458-1.195-1.378-2.079-2.445-2.753-3.365-2.234-7.852-2.234-11.675-.985-3.823 1.3-7.188 3.688-10.504 6.126 3.415-3.063 6.883-6.285 8.718-10.542 1.786-4.257 1.324-9.867-2.243-12.67-3.262-2.543-7.852-2.079-11.828-1.04-8.053 2.079-15.6 6.026-22.02 11.372C4.676 49.35-3.53 56.105-4.45 62.18h63.674ZM121.002 34.047c1.097-1.12 1.761-2.723 1.171-4.182-.33-.86-.989-1.494-1.762-1.978-2.42-1.604-5.643-1.604-8.393-.71-2.75.935-5.166 2.648-7.547 4.402 2.455-2.203 4.945-4.517 6.268-7.574 1.284-3.063.954-7.09-1.614-9.108-2.346-1.829-5.643-1.494-8.501-.745-5.79 1.494-11.212 4.332-15.827 8.174-3.006 2.503-8.905 7.354-9.564 11.721H121.002ZM143.845 69.354c.728-.74 1.161-1.798.777-2.763-.216-.569-.654-.989-1.161-1.308-1.599-1.06-3.729-1.06-5.545-.47-1.815.614-3.414 1.754-4.988 2.913 1.623-1.454 3.271-2.988 4.142-5.007.846-2.023.63-4.686-1.067-6.02-1.55-1.209-3.73-.989-5.619-.494-3.827.989-7.414 2.862-10.464 5.4-1.988 1.654-5.884 4.862-6.322 7.75h30.252-.005Z" fill="#FCFCFC"/><path d="M47.377 111.261c-8.111-9.756-31.394-2.014-38.74 3.375-8.422 6.182-13.64 14.265-17.043 23.311-.681 1.447-1.305 2.921-1.957 4.368-2.496 5.672-4.765 11.429-6.466 17.412-1.702 6.013-2.666 12.082-3.063 18.321-.199 3.148-.34 6.324-.908 9.415-.567 3.063-1.645 5.757-3.12 8.508-.623 1.191-1.275 2.41-1.587 3.743-.369 1.56-.255 3.148-.34 4.736-.142 2.808-.993 5.502-2.213 7.998-18.887 38.796-17.895 52.266-26.6 87.914-.285 1.106-.54 2.354.112 3.347.54.822 1.56 1.304 2.525 1.73a64.912 64.912 0 0 0 12.137 3.8c.936.198 1.929.369 2.865.17 1.304-.255 2.269-1.191 3.148-2.07 14.151-14.237 24.105-28.473 30.77-45.404a168.16 168.16 0 0 0 3.601-6.211c1.957-3.63 3.63-7.373 5.247-11.145 1.645-3.885 3.602-7.345 6.097-10.72 2.382-3.233 3.8-6.466 4.481-10.436.709-3.999 1.305-7.884 2.666-11.713 2.836-7.855 7.487-14.832 11.429-22.148 2.92-5.417 5.53-11.202 6.693-17.271 10.464-23.822 18.972-50.565 10.266-61.03Z" fill="#464558"/><path opacity=".29" d="M15.104 120.421c-.54 2.637-1.135 5.332-2.014 7.941-1.588 4.736-4.112 9.217-5.445 14.009-1.163 4.226-1.22 8.508 1.815 12.195 2.354 2.864 5.757 4.963 8.678 7.373 3.205 2.609 5.218 5.502 6.523 9.104 1.673 4.622 2.212 9.472 2.666 14.265.198 2.07.425 4.14.652 6.21 13.272-26.346 30.6-66.815 19.37-80.285-6.24-7.487-21.412-4.651-31.451-.511.34 3.261-.17 6.551-.794 9.699Z" fill="#2B2B37"/><path opacity=".29" d="M-33.873 307.311c14.151-14.237 24.105-28.473 30.77-45.404a168.142 168.142 0 0 0 3.601-6.211c1.957-3.63 3.63-7.373 5.247-11.145 1.645-3.885 3.602-7.345 6.097-10.72 2.382-3.233 3.8-6.466 4.481-10.436.709-3.999 1.305-7.884 2.666-11.713 2.836-7.855 7.487-14.832 11.429-22.149 2.92-5.416 5.53-11.202 6.693-17.271 10.266-23.368 18.66-49.572 10.663-60.405 0-.029-.029-.029-.029-.057-.113-.17-.255-.34-.397-.511-.142-.17-.283-.312-.425-.482l-.142-.142-.312-.311-.17-.171c-.085-.085-.199-.17-.284-.255-.056-.057-.141-.113-.198-.17-.114-.085-.199-.17-.312-.227a.874.874 0 0 0-.199-.142c-.113-.085-.226-.141-.34-.227-.057-.056-.142-.085-.198-.141-.142-.085-.256-.171-.397-.227-.057-.029-.086-.057-.142-.085-.199-.114-.369-.199-.567-.312-.029-.029-.085-.029-.114-.057-.17-.085-.312-.142-.482-.227-.057-.028-.142-.057-.199-.085-.141-.057-.255-.113-.396-.17a1.953 1.953 0 0 1-.227-.085c-.142-.057-.256-.085-.397-.142l-.256-.085a2.309 2.309 0 0 0-.425-.113.852.852 0 0 0-.227-.057c-.142-.029-.312-.085-.454-.114-.056-.028-.142-.028-.198-.056-.199-.057-.397-.085-.624-.142h-.057c-.227-.057-.482-.085-.709-.114-.056 0-.085 0-.142-.028-.198-.028-.368-.057-.567-.085-.085 0-.142-.028-.227-.028-.17-.029-.34-.029-.51-.057-.085 0-.17-.028-.255-.028-.17-.029-.34-.029-.51-.029-.086 0-.171 0-.256-.028-.17 0-.34-.029-.539-.029h-.993c-.51 0-1.049 0-1.56.029h-.113c-.227 0-.453.028-.68.028h-.17c-.199 0-.398.029-.624.057-.057 0-.142 0-.199.028-.198.029-.397.029-.624.057-.057 0-.113 0-.17.028l-.68.085c-.029 0-.086 0-.114.029-.822.113-1.645.227-2.467.368h-.057c-.255.057-.51.085-.766.142-.028 0-.085.029-.113.029-.227.056-.454.085-.68.141-.058 0-.086.029-.143.029-.226.056-.482.113-.709.17-.028 0-.056.028-.113.028-.255.057-.539.114-.794.199a36.585 36.585 0 0 1 2.666 5.785c6.012 16.534-6.41 34.741-17.413 48.552-4.878 6.097-17.356 12.45-29.58 18.292-.14 2.297-.34 4.565-.736 6.834-.568 3.063-1.645 5.757-3.12 8.508-.624 1.191-1.276 2.411-1.588 3.744-.369 1.559-.255 3.147-.34 4.736-.142 2.807-.993 5.501-2.212 7.997-.086.142-.142.284-.199.425 6.353 1.078 12.365 2.326 13.783 3.233 6.38 3.999 9.699 10.777 8.905 17.356-2.099 17.555-23.992 23.397-39.902 25.325-3.035 12.252-4.963 24.305-9.189 41.576-.028.056-.028.141-.056.198-.029.085-.029.17-.057.255-.227.993-.34 2.014.227 2.893.198.312.453.567.765.794.312.227.653.425 1.021.596.256.113.483.226.738.34l1.446.595c.964.398 1.957.766 2.978 1.106.992.341 2.013.653 3.034.936.908.256 1.815.482 2.723.709.255.057.482.114.737.171.397.085.823.198 1.22.255.085.028.198.028.283.056.029 0 .085.029.114.029.822.142 1.645.255 2.439.085.17-.028.312-.085.482-.142.624-.198 1.134-.567 1.645-.964.255-.199.482-.426.709-.624.255-.199.368-.312.482-.425Z" fill="#2B2B37"/><path opacity=".29" d="M46.27 144.753c-3.63 8.565-8.79 16.733-15.03 24.191-2.864 3.403-5.984 6.693-9.472 9.671-5.53 4.736-11.883 8.337-18.83 11.429-2.27 1.021-4.708 1.786-7.005 2.751-2.184.907-5.445 2.127-5.928 4.367-.992 4.452 6.608 6.806 10.295 8.338.227.113.312.34.17.538-1.05 1.135-2.099 2.496-2.013 3.999.056 1.021.652 1.9 1.332 2.723 1.645 1.956 3.602 3.686 4.481 6.012 2.382 6.324-1.049 13.414-3.998 19.199-3.659 7.119-7.062 14.18-9.16 21.724a83.702 83.702 0 0 0-2.326 11.457c-.397 3.006-.567 6.012-.908 9.018a117.67 117.67 0 0 0 9.047-18.263 168.161 168.161 0 0 0 3.602-6.211c1.957-3.63 3.63-7.373 5.246-11.145 1.645-3.886 3.602-7.345 6.098-10.72 2.382-3.233 3.8-6.466 4.48-10.436.71-3.999 1.305-7.884 2.666-11.713 2.836-7.856 7.487-14.832 11.43-22.149 2.92-5.416 5.53-11.202 6.692-17.271 5.842-13.3 11.088-27.537 13.045-39.306.029-.085.029-.17.057-.284-.936 4.112-2.297 8.168-3.97 12.081Z" fill="#2B2B37"/><path d="M205.311 301.327c-2.637-10.834-5.303-21.667-7.941-32.5-2.382-9.756-4.48-17.215-6.409-23.142a51.217 51.217 0 0 0-2.382-7.515c-9.103-23.17-4.481-15.229-7.912-26.998-.624-2.184-1.503-4.311-2.694-6.24-1.163-1.9-2.61-3.63-3.886-5.473-1.276-1.843-2.297-3.772-2.807-5.984-.539-2.382-.511-4.849-.482-7.288.17-12.932-1.929-15.343-7.743-32.982-3.006-14.747-8.394-28.303-21.042-37.577-7.374-5.388-30.657-13.102-38.739-3.374-10.919 13.102 5.189 51.756 18.291 78.13a82.308 82.308 0 0 0 3.404 8.763c1.503 3.318 3.318 6.438 5.076 9.614 1.673 2.978 3.375 6.211 3.63 9.699.142 1.815-.369 3.602-.227 5.417.142 1.73.794 3.289 1.617 4.792.737 1.333 1.616 2.609 2.268 3.999.851 1.758 1.362 3.658 1.929 5.502 1.021 3.318 2.269 6.437 4.31 9.302 19.966 27.934 12.904 32.698 40.923 60.888.851.879 1.815 1.786 3.148 2.07.936.198 1.929.028 2.864-.17a64.97 64.97 0 0 0 12.138-3.8c.993-.426 2.014-.908 2.524-1.73.681-1.05.426-2.297.142-3.403Z" fill="#464558"/><path opacity=".25" d="M121.594 190.356a82.3 82.3 0 0 0 3.403 8.763c1.503 3.318 3.318 6.438 5.076 9.614 1.674 2.978 3.375 6.211 3.63 9.699.142 1.815-.368 3.602-.226 5.417.141 1.729.794 3.289 1.616 4.792.737 1.333 1.617 2.609 2.269 3.999.851 1.758 1.361 3.658 1.928 5.502 1.021 3.318 2.269 6.437 4.311 9.302 12.081 16.902 14.265 25.325 20.305 35.591.142.17.256.34.369.539-.028-.879-.057-1.759-.057-2.638-.056-3.204-.34-6.324-1.446-9.415-.993-2.779-2.496-5.388-3.517-8.168-.567-1.503-1.106-3.119-2.127-4.48-.765-.993-1.956-1.674-2.779-2.638-1.9-2.155-1.9-5.218-2.013-7.77-.17-3.063-.539-5.899-2.496-8.565-.312-.425-1.304-.936-2.694-1.475-4.226-1.644-7.062-5.672-7.232-10.209-.283-7.09-.539-12.875-.737-14.719-1.248-10.776-1.872-21.581-1.815-32.415.057-10.408.51-20.872 2.978-31.082 1.956-8.111 5.104-16.306 9.812-23.595.369-.539.737-1.134 1.134-1.701a44.251 44.251 0 0 0-3.062-3.574l-.142-.141c-.312-.312-.596-.624-.908-.936l-.283-.284c-.256-.255-.539-.51-.823-.766a4.403 4.403 0 0 0-.368-.34l-.795-.709c-.141-.113-.255-.227-.397-.34-.283-.227-.567-.482-.85-.709-.114-.085-.256-.199-.369-.284-.425-.312-.822-.652-1.276-.964-2.184-1.588-5.786-3.403-9.954-4.906-.653-.227-1.333-.454-2.014-.681-.227-.085-.454-.142-.681-.227a25.583 25.583 0 0 0-1.389-.397c-.936-.255-1.9-.51-2.864-.709-2.893-.652-5.843-1.049-8.65-1.106h-1.39a11.1 11.1 0 0 0-1.361.085c-.681.057-1.333.142-1.985.227-1.73.284-3.318.766-4.736 1.475a10.36 10.36 0 0 0-1.532.907c-.312.227-.624.454-.936.709-.453.369-.85.794-1.247 1.248-1.305 1.588-2.326 3.885-3.063 6.806-3.432 16.704 10.067 48.552 21.383 71.268Z" fill="#2B2B37"/><path opacity=".29" d="M130.272 198.268c.624-4.055 1.588-8.054 2.184-12.109.51-3.46.51-6.92.397-10.408-.114-3.347-.539-6.75.085-10.096.595-3.29 1.957-6.41 3.148-9.558 1.276-3.318 2.042-6.664 2.949-10.067 1.815-6.75 3.687-13.641 2.467-20.589-.822-4.765-2.921-9.217-5.813-13.329-10.011-4.368-26.006-7.629-32.444.085-13.272 15.966 13.499 69.849 26.148 93.218.227-2.354.51-4.765.879-7.147Z" fill="#2B2B37"/><path opacity=".25" d="M205.311 301.327c-2.637-10.834-5.303-21.667-7.94-32.5-2.383-9.756-4.481-17.215-6.41-23.142a51.217 51.217 0 0 0-2.382-7.515c-9.103-23.17-4.481-15.229-7.912-26.998-.624-2.184-1.503-4.311-2.694-6.239-1.163-1.901-2.609-3.63-3.886-5.474-1.276-1.843-2.297-3.772-2.807-5.984-.539-2.382-.511-4.849-.482-7.288.17-12.932-1.929-15.343-7.743-32.982-3.006-14.747-8.394-28.303-21.042-37.577l-.341-.255c-.028-.028-.085-.057-.113-.085l-.255-.17c-.057-.028-.085-.057-.142-.085-.085-.057-.142-.114-.227-.142a.598.598 0 0 1-.17-.113c-.085-.057-.142-.086-.227-.142-.057-.029-.113-.085-.17-.114-.085-.056-.17-.085-.227-.141-.057-.029-.113-.086-.199-.114-.085-.057-.17-.085-.255-.142-.056-.028-.142-.085-.198-.113-.085-.057-.17-.085-.256-.142-.056-.028-.141-.085-.198-.113-.085-.057-.199-.114-.284-.171l-.17-.085c-.17-.085-.312-.17-.482-.255l-.17-.085c-.113-.057-.227-.113-.312-.17-.085-.028-.17-.085-.255-.114-.085-.056-.17-.085-.284-.141-.085-.029-.17-.085-.283-.114-.086-.028-.171-.085-.256-.113-.085-.057-.198-.085-.283-.142-.085-.028-.17-.085-.256-.113-.113-.057-.198-.086-.311-.142-.086-.029-.171-.085-.256-.114-.113-.056-.198-.085-.312-.141-.085-.029-.17-.057-.227-.114-.113-.057-.226-.085-.34-.142-.057-.028-.142-.056-.227-.085a1.99 1.99 0 0 0-.368-.142c-.057-.028-.085-.028-.142-.056a93.015 93.015 0 0 0-1.56-.596c-.028 0-.057-.028-.057-.028-.17-.057-.312-.114-.482-.17-.057-.029-.085-.029-.142-.057-.17-.057-.312-.114-.482-.17-.056-.029-.113-.029-.142-.057-.17-.057-.311-.113-.482-.17-.056-.028-.113-.028-.141-.057-.171-.057-.312-.113-.483-.142-.056-.028-.085-.028-.141-.056l-.511-.171c-.028 0-.057-.028-.085-.028a58.912 58.912 0 0 0-4.396-1.134c-.198-.057-.425-.085-.624-.142h-.028c-6.494-1.305-13.215-1.361-17.781 1.304h.085c6.721.738 13.697 2.922 18.944 6.552 3.8 2.609 7.033 6.04 9.869 9.387a63.984 63.984 0 0 1 7.912 11.797c4.538 8.763 6.438 18.094 7.26 27.566.936 10.606.227 21.241-1.871 31.706-.596 2.892-1.021 6.21 1.956 8.309 3.46 2.41 8.168 2.467 11.997 4.197 4.622 2.07 4.622 6.154 5.019 10.011.482 4.594 4.169 7.6 7.941 10.635 3.545 2.864 6.267 5.87 7.742 9.869 1.531 4.169 1.843 8.621 1.9 12.96.114 8.707-4.169 16.761-10.635 23.454-2.836 2.949-5.757 5.813-9.131 8.337-.057.057-.114.085-.171.142 5.36 8.168 11.798 15.881 19.483 23.595.227.227.426.426.681.653.567.538 1.219 1.02 1.985 1.276.142.056.312.085.482.142.823.17 1.673.056 2.496-.114l.34-.085c.539-.113 1.05-.227 1.56-.34 1.049-.256 2.07-.511 3.091-.794.511-.142 1.021-.312 1.532-.454a61.679 61.679 0 0 0 5.927-2.184c.368-.17.737-.312 1.106-.51.368-.199.68-.397.964-.653.199-.17.34-.34.482-.538.199-.312.312-.653.369-.993.085-.652-.085-1.475-.284-2.24Z" fill="#2B2B37"/><path d="M132.455 131.453a20.318 20.318 0 0 0-1.56-3.205c-3.97-6.75-3.346-18.547-3.346-18.547s-1.248-.823-8.423-2.836c-6.437-1.787-32.585-10.181-36.187-10.408l-19.256-1.248c-3.601.255-29.862 9.869-36.328 11.656-5.7 1.588-7.657 2.439-8.224 2.722.879 5.672.283 11.514-.88 17.271-1.106 5.559-2.807 11.004-3.913 16.591-1.447 7.402-.624 11.485.17 14.86.85 3.63 2.893 11.259 2.978 11.628 3.063 11.996 6.154 38.937 3.573 48.608-.993 3.772-1.787 7.43-1.22 11.372.34 2.297 1.078 4.452 2.354 6.267 0 .936.029 1.872.029 2.836.056 4.254.255 8.537.368 12.847 2.836.369 7.346.369 7.856.993 1.56 1.872 9.87 9.756 39.987 10.238.936-.029 1.843-.029 2.75-.057.908.028 1.816.057 2.752.057 30.117-.482 38.455-8.366 39.987-10.238.737-.908 9.812-.511 10.124-1.758.369-1.447.709-2.865 1.021-4.283a145.263 145.263 0 0 1-.567-9.245c2.977-2.609 3.772-6.636 3.601-10.805a161.584 161.584 0 0 0-1.446-15.739c-1.957-13.386-1.361-11.174-.907-26.545.226-8.054.368-16.222 2.75-23.85 1.106-3.574 2.524-7.005 4.027-10.408.029-.227.086-.482.114-.738 1.021-6.863.113-12.847-2.184-18.036Z" fill="#575770"/><path opacity=".11" d="M132.455 131.453a20.305 20.305 0 0 0-1.559-3.205c-3.971-6.75-3.347-18.547-3.347-18.547s-1.248-.823-8.423-2.836a4.044 4.044 0 0 0-.312-.085c-.028 0-.085-.029-.113-.029-.085-.028-.142-.028-.227-.056-.057 0-.085-.029-.142-.057-.056-.028-.141-.028-.198-.057-.057-.028-.114-.028-.17-.056-.057-.029-.142-.029-.199-.057-.057-.029-.113-.029-.17-.057-.085-.028-.142-.057-.227-.057-.057-.028-.113-.028-.198-.056l-.256-.085c-.056-.029-.113-.029-.17-.057a4.044 4.044 0 0 0-.312-.085c-.056-.029-.113-.029-.142-.057a2.696 2.696 0 0 1-.368-.113c-.029 0-.085-.029-.114-.029-.141-.028-.283-.085-.425-.113-.028 0-.057-.029-.085-.029-.34-.113-.709-.198-1.078-.312h-.028c-.17-.056-.34-.113-.511-.141-.056-.029-.141-.029-.198-.057-.142-.028-.255-.085-.397-.113-.057-.029-.114-.029-.17-.057-.114-.029-.256-.085-.369-.114-.085-.028-.142-.056-.227-.056-.34-.114-.709-.227-1.078-.341-.028 0-.056-.028-.113-.028-2.013-.624-4.197-1.276-6.466-1.985h-.057a132.75 132.75 0 0 0-.595-.17c-.057 0-.085-.029-.142-.029-.199-.056-.369-.113-.567-.17-.029 0-.029 0-.057-.028-.198-.057-.397-.114-.624-.199-.028 0-.085-.028-.113-.028-.199-.057-.369-.114-.567-.17.028.17.056.368.056.539.794 6.437.624 13.017-.227 19.483-1.673 12.563-6.692 25.325-17.157 33.095-9.813 7.289-22.716 8.848-34.542 7.884-8.735-.737-17.413-2.666-25.552-5.842-3.885-1.503-7.77-3.318-11.117-5.842V152.24c0 .114 0 .255.028.369v.142c0 .141.029.255.029.368v.114l.085.936v.085c.028.113.028.255.057.368 0 .029 0 .085.028.114.028.113.028.198.057.312 0 .028 0 .085.028.113.028.114.028.199.057.312 0 .028 0 .085.028.114.028.113.029.226.057.34v.057c.028.141.056.283.085.397v.056c.028.114.057.227.057.341 0 .028.028.085.028.113.028.085.028.17.057.255 0 .057.028.085.028.142.028.085.028.17.057.255 0 .029.028.085.028.114.029.085.029.17.057.255 0 .028.028.085.028.113l.085.341c.851 3.63 2.893 11.258 2.978 11.627 3.063 11.996 6.154 38.938 3.573 48.608-.992 3.772-1.786 7.431-1.22 11.373.341 2.297 1.079 4.452 2.355 6.267 0 .936.028 1.872.028 2.836.057 4.254.255 8.536.369 12.847 2.836.369 7.345.369 7.855.992 1.56 1.872 9.87 9.756 39.987 10.238.936-.028 1.844-.028 2.751-.056.908.028 1.815.056 2.751.056 30.118-.482 38.456-8.366 39.987-10.238.737-.907 9.812-.51 10.124-1.758.369-1.446.709-2.864 1.021-4.282a146.003 146.003 0 0 1-.567-9.245c2.978-2.609 3.772-6.636 3.602-10.805a161.265 161.265 0 0 0-1.447-15.74c-1.956-13.386-1.361-11.174-.907-26.544.227-8.054.369-16.222 2.751-23.851 1.106-3.573 2.524-7.005 4.027-10.408.028-.227.085-.482.113-.737 1.163-6.92.256-12.904-2.042-18.093Z" fill="#2B2B37"/><path opacity=".25" d="M71.908 263.069c.425 0 .85-.028 1.276-.028h.51c.908.028 1.815.057 2.751.057 29.693-.539 37.945-8.366 39.477-10.238l.085-.085s.028 0 .028-.029c.028-.028.057-.028.085-.056 0 0 .029 0 .029-.029.056-.028.085-.028.141-.056.057-.029.142-.029.199-.057.028 0 .057 0 .057-.028.056 0 .113-.029.17-.029.028 0 .057 0 .085-.028.085 0 .142-.029.227-.029h.028c.085-.028.199-.028.284-.028h.085c.085 0 .142-.028.227-.028h.113c.085 0 .17-.029.284-.029h.056c.114 0 .227-.028.341-.028h.113c.085 0 .17 0 .255-.028h.142c.085 0 .17 0 .255-.029h.114c2.552-1.645 5.048-3.374 7.515-5.104.028-.029.085-.057.114-.085 0-.029.028-.057.028-.114 0-.028.028-.057.028-.085a146.003 146.003 0 0 1-.567-9.245c2.978-2.609 3.772-6.636 3.602-10.805a161.294 161.294 0 0 0-1.447-15.74c-1.956-13.385-1.361-11.173-.907-26.544.085-3.035.17-6.069.34-9.104.312-5.019.908-9.982 2.382-14.747 1.021-3.346 2.354-6.551 3.716-9.727.085-.227.198-.454.283-.681.028-.226.085-.482.114-.737.255-1.73.397-3.375.425-4.991.085-4.821-.879-9.16-2.581-13.046-.085-.226-.198-.482-.283-.737a26.742 26.742 0 0 0-.766-1.588c-.142-.284-.312-.567-.482-.851-3.97-6.749-3.347-18.547-3.347-18.547h-.028s-.028 0-.028-.028c0 0-.029 0-.029-.029-.34-.17-1.503-.709-4.679-1.701h-.028c-.142-.029-.256-.085-.397-.114-.029 0-.029 0-.057-.028-.142-.028-.255-.085-.397-.114-.029 0-.028 0-.057-.028-.142-.028-.283-.085-.425-.113.454.141-.029 8.167.028 9.16.199 3.63.085 7.26-.397 10.861-.936 7.119-3.148 14.067-6.608 20.391-3.97 7.26-9.472 13.584-15.115 19.653-5.389 5.786-11.316 12.251-11.514 20.362-.029 1.248.085 2.524-.227 3.744-.227.964-.71 1.815-1.163 2.666-1.957 3.658-3.942 7.316-5.927 11.003-2.212 4.084-6.608 6.154-10.408 8.565a87.71 87.71 0 0 1-13.3 7.033c-9.926 4.225-20.505 6.608-31.196 7.231-.425.029-2.893.142-5.899.284.028.482.085.936.142 1.418.34 2.297 1.077 4.453 2.354 6.268 0 .935.028 1.871.028 2.835.028 1.078.028 2.127.057 3.205.085 3.205.227 6.409.312 9.642 2.836.369 7.345.369 7.855.993.142.17.34.397.624.681.284.283.624.595 1.05.935.226.171.453.341.709.539.51.369 1.134.766 1.843 1.163a33.641 33.641 0 0 0 4.48 2.127c.37.142.738.284 1.135.425 3.715 1.333 8.707 2.609 15.4 3.432.708.085 1.417.17 2.155.255 1.106.114 2.268.227 3.46.312 2.779.199 5.813.34 9.131.397.567-.142 1.05-.142 1.532-.142Z" fill="#2B2B37"/><path opacity=".25" d="M71.908 263.069c.425 0 .85-.028 1.276-.028h.51c.908.028 1.815.057 2.751.057 29.693-.539 37.945-8.366 39.477-10.238l.085-.085s.028 0 .028-.028c.029-.029.057-.029.085-.057 0 0 .029 0 .029-.028.056-.029.085-.029.141-.057.057-.029.142-.029.199-.057.028 0 .057 0 .057-.028.056 0 .113-.029.17-.029.028 0 .057 0 .085-.028.085 0 .142-.028.227-.028h.028c.085-.029.199-.029.284-.029h.085c.085 0 .142-.028.227-.028h.113c.085 0 .17-.028.284-.028h.056c.114 0 .227-.029.341-.029h.113c.085 0 .17 0 .255-.028h.142c.085 0 .17 0 .255-.029h.114c2.552-1.644 5.048-3.374 7.515-5.104.028-.029.085-.057.114-.085 0-.029.028-.057.028-.114 0-.028.028-.056.028-.085a146.003 146.003 0 0 1-.567-9.245c2.978-2.609 3.772-6.636 3.602-10.805a161.323 161.323 0 0 0-1.447-15.74c-1.956-13.385-1.361-11.173-.907-26.544.085-3.035.17-6.069.34-9.104.312-5.019.908-9.982 2.382-14.746 1.021-3.347 2.354-6.552 3.716-9.728.085-.227.198-.454.283-.68.029-.227.085-.483.114-.738.255-1.73.397-3.375.425-4.991.085-4.821-.879-9.16-2.581-13.045-.085-.227-.198-.483-.283-.738a26.742 26.742 0 0 0-.766-1.588c-.142-.284-.312-.567-.482-.851-3.97-6.749-3.347-18.547-3.347-18.547s-.028-.028-.085-.028c-.255-.142-1.219-.596-3.857-1.447.483.142.766 5.928.823 6.637.227 2.183.397 4.367.624 6.579.539 4.935.936 9.926.425 14.889-1.503 14.803-10.635 27.509-19.596 39.476-3.829 5.105-7.8 10.607-8.395 17.101-.283 3.006.199 6.069-.056 9.075-.88 9.869-9.444 14.917-17.13 19.001-7.969 4.254-16.562 7.147-25.353 8.933-8.14 1.673-22.716 3.318-34.088 3.857.369.851.794 1.673 1.304 2.439 0 .936.029 1.872.029 2.836.028 1.078.028 2.127.056 3.205.085 3.204.227 6.409.312 9.642 2.836.369 7.346.369 7.856.992.142.171.34.398.624.681.284.284.624.596 1.05.936.226.17.453.34.708.539.51.368 1.135.766 1.844 1.163a33.76 33.76 0 0 0 4.48 2.127c.369.141.738.283 1.135.425 3.715 1.333 8.706 2.609 15.399 3.431.709.086 1.418.171 2.155.256 1.106.113 2.27.227 3.46.312 2.78.198 5.814.34 9.132.397.596-.171 1.078-.171 1.56-.171Z" fill="#2B2B37"/><path d="M77.608 129.751c-.88-1.078-2.099-1.928-3.148-2.836a202.067 202.067 0 0 0-3.8-3.176c-2.496-2.099-4.991-4.226-7.317-6.523-3.516-3.431-6.778-7.288-8.905-11.712-1.588.397-3.261.936-4.99 1.559 2.665 5.332 5.7 10.55 8.96 15.541 1.56 2.383 3.177 4.765 4.992 7.005 1.758 2.184 3.687 4.339 6.04 5.871a9.27 9.27 0 0 0 3.148 1.304c.057-.312.142-.595.199-.907.057-.227.369-.114.34.085-.056.283-.141.567-.198.851 1.276.17 2.58 0 3.828-.681 2.553-1.333 2.496-4.339.851-6.381Z" fill="#575770"/><path opacity=".25" d="M101.515 101.675c-1.049 2.07-4.112 10.011-5.417 11.968-1.588 2.439-3.403 4.651-5.076 7.033-1.475 2.07-2.893 4.169-4.48 6.182-1.617 2.071-3.376 4.113-5.474 5.701-.624.453-1.276.879-1.985 1.219-.426 1.844-2.184 3.006-4.056 3.347a6.763 6.763 0 0 1-2.127.056c-2.24 9.359-7.09 17.924-12.364 25.978-4.963 7.572-10.408 14.86-15.485 22.46-5.104 7.686-9.444 15.882-12.223 24.872-1.56 4.991-2.666 10.124-3.772 15.257a1011.827 1011.827 0 0 0-3.431 16.619c-.624 3.204-1.248 6.381-1.616 9.642 2.722.227 6.04.312 6.494.851.397.51 1.304 1.418 2.95 2.524.113-3.375.51-6.721 1.219-10.011 5.104-24.021 23.425-51.416 38.739-77.308 19.795-33.55 36.243-63.214 28.104-66.39Z" fill="#2B2B37"/><path opacity=".25" d="M128.117 118.748c-.766-5.048-.539-9.047-.539-9.047s-1.248-.822-8.423-2.836c-4.991-1.389-21.78-6.721-30.77-9.16-4.282 6.324-10.919 3.29-15.286 4.254-7.629-1.702-12.705 2.524-12.705 2.524-3.687.255-7.77-6.551-12.677-4.594 3.545 7.231 10.153 14.463 21.865 12.506 13.018-2.183 51.104 1.617 58.535 6.353Z" fill="#2B2B37"/><path opacity=".25" d="M75.595 109.758c2.24-.425 4.424-1.078 6.664-.284 1.135.426 2.212.965 3.375 1.276 1.446.341 2.92.511 4.396.568 6.636.255 15.172-1.503 17.98-7.771-6.637-2.042-14.464-4.424-19.682-5.842-4.282 6.324-10.918 3.29-15.286 4.254-7.629-1.702-12.705 2.524-12.705 2.524-3.687.255-7.77-6.551-12.677-4.594 5.616 3.942 12.904 7.26 20.788 10.011 2.439.312 4.821.312 7.147-.142ZM70.15 139.904c-8.338 4.112-15.088 17.044-21.185 26.091-15.2 22.631-24.077 49.884-26.8 66.503 0 2.155.028 4.339.057 6.523.028 2.382.113 4.764.198 7.146.823 1.645 2.099 2.864 3.829 2.864 2.467.029 4.254-2.438 5.473-4.707 8.196-15.314 10.068-33.153 16.222-49.034 3.204-8.252 7.543-15.91 12.166-23.283 3.148-5.02 7.26-9.586 8.82-15.371.595-2.24 6.41-19.284 1.22-16.732ZM50.383 104.681s5.303 11.911 10.635 18.491c5.36 6.607 11.826 12.705 11.826 12.705l8.224-3.318s-9.614-3.347-16.278-9.614c-6.665-6.239-14.407-18.264-14.407-18.264Z" fill="#2B2B37"/><path d="M71.284 146.625c.993-1.049 2.042-2.042 3.063-3.063a161.983 161.983 0 0 0 7.118-7.515c-21.043-13.244-23-18.831-35.648-39.306-.17-.255.993 28.019 25.467 49.884Z" fill="#2B2B37"/><path d="M72.9 130.347a25.168 25.168 0 0 1-1.645 3.658c-1.446 2.609-3.29 5.105-5.501 7.147a72.446 72.446 0 0 0 5.558 5.473c.993-1.049 2.042-2.042 3.063-3.062a162.512 162.512 0 0 0 7.118-7.516 151.177 151.177 0 0 1-8.593-5.7Z" fill="#21212B"/><path d="M99.87 99.548c-2.95 11.571-71.296 73.707-77.648 136.665 0 .936.028 1.872.028 2.807.057 4.481.284 8.99.397 13.528h7.97c0-5.105.907-10.21 2.693-14.946 7.317-19.369 34.457-71.21 42.483-82.526 26.431-37.491 28.246-55.528 24.077-55.528Z" fill="#2B2B37"/><path d="M66.18 146.824c-6.949 7.827-12.763 16.817-17.13 26.573-.34.737-.652 1.503-.624 2.297.028.794.567 1.645 1.333 1.73.51.056 1.02-.199 1.446-.511 3.403-2.24 5.53-6.04 7.232-9.812 1.134-2.468 2.155-4.992 3.545-7.317 1.361-2.325 3.318-3.999 4.878-6.126 1.02-1.418 1.333-2.637 1.56-4.367.226-1.758.113-5.133-2.24-2.467Z" fill="#2B2B37"/><path opacity=".25" d="M56.764 124.42c1.957 2.807 3.006-.568 2.212-2.524-.68-1.645-1.843-3.46-3.233-4.623-.993-.822-1.929-1.276-2.326.227-.623 2.325 2.184 5.218 3.347 6.92ZM89.037 120.024c1.503-1.843-.964-1.929-2.099-1.021-.964.766-1.957 1.9-2.439 3.063-.368.822-.482 1.56.596 1.531 1.645 0 3.063-2.467 3.942-3.573ZM77.324 129.241a653.497 653.497 0 0 0-9.358 11.854c.227.539.794.822 1.928.681 3.687-.454 6.268-6.325 7.997-9.075 1.532-2.326.795-3.347-.567-3.46Z" fill="#464557"/><path opacity=".14" d="M22.619 116.053c-.142 2.099 1.503 4.368 3.602 4.141 3.261-.34 12.08-7.997 9.557-10.805-3.176-3.517-12.932 3.431-13.16 6.664ZM98.225 128.673c-.623-.368-4.424 2.099-2.438 3.687 1.162.908 3.09 0 3.147-2.07 0-.624-.198-1.305-.709-1.617Z" fill="#D8D8D8"/><path d="M105.844 121.335c-.318 5.741 2.157 11.279 5.245 16.187 3.775 5.98 20.197 24.434 8.166 33.725-1.656 1.283-3.737 2.056-5.165 3.566-2.294 2.43-2.306 6.131-1.29 9.216 1.01 3.031 12.402 18.972-1.921 31.476l-8.249-6.839c10.738-2.779 11.043-10.564 9.296-17.099-1.799-6.671-6.651-12.35-2.745-16.326 1.842-1.87 7.008-2.359 8.245-4.669 8.963-16.656-20.607-8.918-21.845-31.102-.3-5.538 1.17-11.018 2.689-16.379 5.032-17.729-.613-19.257-6.359-24.865-3.982-3.879-6.49-9.183-6.593-14.633-.103-5.45 2.243-10.981 6.515-14.656-3.755 26.356 15.63 23.583 14.011 52.398Z" fill="#74A352"/><path d="M99.058 95.746c-.49-.414-.98-.811-1.488-1.206-4.03-3.233-7.914-6.499-10.276-11.07-.692-1.32-1.182-2.676-1.561-4.062.83-3.96 2.939-7.706 6.104-10.435-2.038 14.216 2.707 19.958 7.22 26.773Z" fill="#568040"/><path d="M91.743 81.789c-1.43-2.35-2.918-5.086-3.911-7.941a18.685 18.685 0 0 1 4.001-4.91c-.797 5.645-.544 9.943.332 13.52-.134-.217-.286-.433-.422-.67Z" fill="#3E5C2E"/><path opacity=".49" d="M111.528 138.173c2.788 4.138 9.757 12.651 11.607 20.616-4.551-9.301-33.632-11.305-17.195-41.644a53.172 53.172 0 0 1-.096 4.19c-.318 5.741 2.157 11.279 5.246 16.187.11.168.222.352.352.535.022.033.064.083.086.116Z" fill="#AED888"/><path d="M103.808 115.682c-1.406 4.211-4.28 7.802-6.662 11.628.368-1.405.755-2.813 1.143-4.221 3.19-11.269 2.069-15.998-.644-19.378a13.656 13.656 0 0 1 3.113 1.722c1.945 1.464 3.39 3.581 3.639 5.923.162 1.46-.126 2.929-.589 4.326Z" fill="#3E5C2E"/><path opacity=".49" d="M110.817 141.818c-3.081-2.721-4.664-5.857-3.86-9.902a9.62 9.62 0 0 1 .468-1.54c.956 2.485 2.242 4.885 3.664 7.147 1.287 2.026 4.029 5.51 6.623 9.578-2.278-1.805-4.739-3.377-6.895-5.283Z" fill="#AED888"/><path d="M141.003 216.59c-5.167 1.424-13.253-4.433-10.328-15.661 6.064-23.323 5.948-31.903 1.805-46.174-2.515-8.668-.842 5.399-.842 5.399s.646 15.001-.042 19.919c-.67 4.919-3.143 18.432-3.53 22.929-.388 4.498.449 9.995 3.136 12.076 2.67 2.062 9.801 1.512 9.801 1.512Z" fill="#74A352"/><path d="M95.725 113.284c-5.171 31.758 21.912 25.252 29.51 30.252 1.812 1.201 3.268 2.881 4.445 4.75a23.151 23.151 0 0 1 2.87 6.72c.88 3.47.947 7.103.865 10.696-.184 9.02-1.144 18.05-3.245 26.796-3.717 15.566-2.397 16.316 8.51 28.41-9.608-3.692-11.111-10.55-10.997-18.297.111-7.572 13.679-63.243-15.1-58.399-1.129.276-2.202.475-2.609.567-15.396 3.249-28.227-7.013-17.906-34.303 2.461-6.538 8.622-21.263-.07-30.354 10.243 4.59 5.245 23.791 3.727 33.162Z" fill="#3E5C2E"/><path d="M112.583 144.231c-1.129.276-2.202.475-2.609.567-1.647.347-3.255.54-4.824.559.762-.493 1.525-1.005 2.325-1.478 1.934-1.155 4.292-2.324 6.757-3.163 4.512.809 8.678 1.266 11.003 2.801 1.812 1.201 3.268 2.881 4.445 4.75a23.142 23.142 0 0 1 2.871 6.72c.88 3.47.946 7.103.865 10.695-.185 9.021-1.145 18.051-3.246 26.797-3.717 15.566-2.397 16.316 8.51 28.41-9.608-3.693-11.111-10.551-10.997-18.297.13-7.533 13.679-63.204-15.1-58.361ZM95.724 113.284c-3.394 20.864 7.11 25.205 16.887 27.161-7.876 2.53-15.86 1.988-22.457-3.484-2.68-5.713-2.646-14.426 1.913-26.465 2.462-6.539 8.623-21.263-.07-30.354 10.243 4.57 5.245 23.771 3.727 33.142Z" fill="#568040"/><path d="M96.27 105.002a58.781 58.781 0 0 1-1.289 5.684c-1.06 3.658-2.835 6.901-5.013 9.927-.356.479-.733 1.093-1.165 1.706.541-3.51 1.605-7.458 3.246-11.823 1.144-3.02 3.049-7.769 3.942-12.897.541 2.518.753 4.859.278 7.403Z" fill="#3E5C2E"/><path d="M103.067 137.584c-3.274-.91-6.709-2.266-8.851-5.171-2.56-3.471-2.666-8.341-.902-12.222.494-1.095 1.17-2.072 1.92-3.01-1.076 12.468 3.562 18.032 9.618 20.869a31.401 31.401 0 0 1-1.785-.466Z" fill="#74A352"/><path d="M130.792 153.865c1.536 5.66.886 15.023.076 20.848.75-15.989-2.963-32.206-18.211-30.5 5.833-4.585 15.734.812 18.135 9.652Z" fill="#3E5C2E"/><path d="M47.168 72.009s-3.036 2.776-3.657 5.415c-.596 2.638 2.777 6.752 2.777 6.752l4.596-2.693-3.716-9.474Z" fill="#75A152"/><path d="M100.596 72.888s3.035 4.481 1.927 10.24c-1.108 5.758-5.981 7.15-5.981 7.15l-1.645-2.44 5.699-14.944v-.006Z" fill="#568040"/><path d="M89.368 88.488c.054 5.162-6.951 9.415-15.625 9.529-8.68.114-15.77-3.97-15.8-9.131-.03-5.162 6.952-9.415 15.626-9.529 8.65-.114 15.739 3.97 15.799 9.131Z" fill="#21212B"/><path d="M47.107 50.686a76.714 76.714 0 0 0-.283 4.536c-.084 2.355-.114 4.71.085 7.059.795 8.963 5.132 17.1 10.523 23.792a95.173 95.173 0 0 1-2.47-15.51c-.229-3.12-.313-6.294.114-9.384.627-4.566 2.356-8.879 3.12-13.414.398-2.355.543-4.734.681-7.12.145-2.439.283-4.878.452-7.318.169-2.921-1.277-5.445-3.572-2.867-1.614 1.79-3.006 3.855-4.198 6.011a37.357 37.357 0 0 0-4.452 14.21v.005ZM97.903 50.06c.199 1.506.283 3.005.367 4.535.115 2.355.2 4.71.055 7.06-.627 8.992-4.795 17.244-10.041 24.05a95.713 95.713 0 0 0 2.156-15.6c.169-3.12.199-6.294-.283-9.384-.71-4.536-2.524-8.794-3.373-13.33-.452-2.325-.65-4.71-.826-7.089l-.596-7.318c-.229-2.921 1.163-5.475 3.518-2.952 1.644 1.76 3.09 3.771 4.313 5.897a37.877 37.877 0 0 1 4.704 14.125l.006.006Z" fill="#2B2B37"/><path d="M100.909 46.97c-.199-1.078-.711-2.126-1.53-2.668-1.193-.795-2.21-.765-3.066-.169-2.355-15.317-12.023-26.743-23.51-26.599-11.486.145-20.931 11.824-22.973 27.195-.88-.566-1.897-.566-3.066.253-.82.566-1.307 1.645-1.5 2.723-.168 1.078-.06 2.186.054 3.258.482 3.94 1.247 7.855 2.326 11.655.198.711.397 1.392.764 2.012.711 1.133 1.988 1.789 3.205 1.645.114-.03.229-.03.343-.055 3.97 11.089 12.138 18.63 21.468 18.522 9.33-.115 17.36-7.885 21.1-19.058.114.03.229.054.337.054 1.223.115 2.5-.566 3.18-1.728.368-.627.567-1.331.736-2.012a77.28 77.28 0 0 0 2.102-11.715c.114-1.133.198-2.24.03-3.32v.007Z" fill="#D58500"/><path d="M87.465 30.093a75.901 75.901 0 0 1 4.993 1.789c-4.367-8.764-11.571-14.438-19.685-14.348C61.287 17.68 51.842 29.358 49.8 44.73c-.88-.566-1.903-.566-3.066.253-.825.566-1.307 1.645-1.506 2.723-.168 1.078-.054 2.186.06 3.258.284 2.41.681 4.795 1.193 7.144a16.198 16.198 0 0 1 1.645-.88 24.81 24.81 0 0 1 2.867-1.162c1.048-20.846 13.384-33.604 36.472-25.978v.006ZM71.81 51.475s10.806-1.048 18.89 1.108c8.052 2.157 8.962 2.47 8.962 2.47l-1.843 5.698-26.01-9.276Z" fill="#B45F00"/><path opacity=".36" d="M100.909 46.97c-.199-1.078-.711-2.126-1.53-2.668-1.193-.795-2.21-.765-3.066-.169a42.692 42.692 0 0 0-2.21-8.595c-.055-.115-.085-.23-.145-.343a31.892 31.892 0 0 0-.934-2.241c-.054-.145-.114-.253-.168-.398a3.015 3.015 0 0 0-.283-.536c-.085-.144-.145-.283-.23-.427-.084-.17-.168-.344-.282-.512-.085-.145-.145-.284-.23-.428-.084-.169-.198-.337-.282-.512-.085-.145-.17-.283-.254-.428-.084-.168-.198-.313-.282-.482-.085-.144-.17-.283-.254-.427-.084-.145-.198-.313-.283-.452-.084-.145-.198-.283-.283-.428-.084-.144-.198-.283-.283-.427-.114-.145-.199-.283-.313-.428-.084-.144-.199-.253-.283-.397a3.005 3.005 0 0 0-.368-.452c-.084-.115-.168-.229-.259-.343a15.874 15.874 0 0 0-.62-.735c-.06-.055-.114-.145-.169-.2-.168-.198-.343-.366-.512-.535a10.082 10.082 0 0 0-.259-.253c-.138-.145-.283-.283-.427-.452-.085-.084-.2-.169-.283-.283a4.375 4.375 0 0 0-.428-.398c-.084-.084-.199-.168-.283-.253-.145-.144-.283-.252-.428-.367-.114-.084-.199-.168-.313-.253a29.26 29.26 0 0 1-.452-.367c-.084-.085-.199-.145-.283-.23-.169-.114-.313-.228-.482-.336-.084-.055-.199-.145-.283-.2a24.868 24.868 0 0 0-.512-.337c-.084-.054-.169-.114-.259-.168-.199-.115-.398-.253-.62-.368-.06-.03-.115-.084-.169-.114a22.472 22.472 0 0 0-1.644-.85c-.03-.03-.085-.03-.115-.053-.229-.115-.482-.2-.71-.284l-.23-.084c-.198-.084-.427-.145-.626-.229a3.407 3.407 0 0 0-.283-.084c-.199-.054-.398-.115-.596-.169-.085-.03-.2-.054-.283-.084-.2-.054-.398-.084-.597-.145-.06 0-.114-.03-.144-.03h.03a18.924 18.924 0 0 0-3.801-.397c-11.487.144-20.932 11.823-22.973 27.195-.88-.567-1.904-.567-3.066.253-.826.566-1.307 1.644-1.506 2.722-.169 1.078-.054 2.186.054 3.259.283 2.409.68 4.794 1.193 7.143a15.584 15.584 0 0 1 1.644-.88 28.67 28.67 0 0 1 4.283-1.613c.964-.284 1.957-.567 2.951-.765v-.253C54.041 9.048 119.612 35.056 82.4 67.612c-2.554 2.24-5.728 3.547-8.764 4.794-3.656 1.53-7.626 2.921-11.571 3.066-1.904.054-3.77-.229-5.644-.65 4.367 6.27 10.469 10.124 17.16 10.04 9.33-.114 17.36-7.884 21.1-19.057.115.03.23.054.338.054 1.223.114 2.5-.566 3.18-1.729.368-.626.567-1.331.735-2.012a77.143 77.143 0 0 0 2.102-11.715c-.06-1.247.031-2.355-.144-3.433h.018Z" fill="#B45F00"/><path d="M100.909 46.97c-.199-1.078-.711-2.126-1.53-2.668-1.193-.795-.428-2.47-1.307-1.898-.512-3.234-2.356-5.98-4.596-8.282l-3.036-.65c6.578 8.083 7.716 20.955 1.988 29.068-1.958 2.753-2.47 1.416-5.385 2.578-1.048.428-2.157.68-3.265.934-.482.512-.964.963-1.506 1.415-2.578 2.187-5.728 3.548-8.764 4.795-3.662 1.53-7.632 2.92-11.571 3.066-1.897.054-3.77-.23-5.644-.651 4.367 6.27 10.463 10.125 17.155 10.04 9.33-.114 17.36-7.884 21.1-19.057.114.03.229.054.343.054 1.217.115 2.494-.566 3.175-1.728.367-.627.566-1.331.734-2.012a77.278 77.278 0 0 0 2.103-11.715c.084-1.109.168-2.21 0-3.289h.006Z" fill="#B45F00"/><path opacity=".36" d="M81.513 51.505c-1.361-.963-.994-10.492-.91-10.775l-1.872-.711c-3.09 6.523-3.175 10.18-3.175 16.052 0 .452 2.072.536 2.24.964.145.397.368.735.597 1.048.65.825 1.56 1.506 2.524 1.56.994.054 2.042-.596 2.325-1.675.084-.397.084-.795.054-1.192-.168-1.729-1.59-5.132-1.789-5.277l.006.006Z" fill="#B45F00"/><g opacity=".36" fill="#E2A040"><path opacity=".36" d="M66.906 33.755c0 .283.085.566.23.825.367.711 1.017 1.193 1.698 1.506.169.084.367.145.566.114 1.79-.228-.428-2.668-1.048-2.975-.566-.283-1.415-.452-1.446.536v-.006ZM59.052 44.386c.199-.398.964-.428 1.277-.343.367.084.825.114.91.626.054.512-.398.795-.796.795-.313 0-1.132-.144-1.307-.482-.138-.253-.168-.451-.084-.596ZM81.712 45.326c0-.428.65-.88.994-.994.367-.115.765-.337 1.048.054.283.428 0 .91-.337 1.108-.26.169-1.048.482-1.361.283-.253-.114-.338-.283-.338-.451h-.006ZM57.6 50.795c.344.03.68-.199.88-.482.084-.145.168-.283.168-.452a.639.639 0 0 0-.054-.229c-.229-.596-1.108-.71-1.53-.337-.626.482-.114 1.476.536 1.506v-.006ZM89.79 50.259c.343.03.68-.2.879-.482.084-.145.169-.283.169-.452a.64.64 0 0 0-.055-.229c-.228-.596-1.108-.71-1.53-.337-.596.452-.084 1.476.537 1.506v-.006Z"/></g><path opacity=".36" d="M71.328 44.5c-.253-2.047-.055-3.692-1.247-4.48-3.572-2.362-10.06-1.64-13.782-.416-1.494.662-1.59 1.397-1.446 1.481 10.951.844 13.98 3.361 13.98 6.987 0 4.451-3.601.765-22.117 7.8l2.807 9.445a210.674 210.674 0 0 0 8.932-3.77c10.921-4.91 13.83-5.77 12.879-17.046h-.006Z" fill="#B45F00"/><path d="M70.755 37.899c-.258-.127-2.65.958-4.216 1.084-2.765.229-5.83-.126-10.637 1.747-.048.012-.103.018-.15.06-.025 0-.049.036-.067.072l-.048.012c-.127.055-.036.356.078.271.072-.042.169-.09.241-.132 5.758-1.94 8.186 1.144 11.625.096 1.187-.38 4.108-1.584 3.174-3.204v-.006Z" fill="#323147"/><path opacity=".36" d="M87.543 42.29c-.097.036-.193.078-.283.114-1.639.76-3.301 1.512-5.012.837-1.981-.764-3.849-3.758-3.072-4.294.235-.157 1.578.217 1.843.21 1.109-.03 2.205 0 3.283.08 1.054.077 2.12.126 3.138.366 1.717.386 3.458.783 5.102 1.386.217.072.398.169.537.343.024.036.066.103.054.157.012.205-.235.3-.386.325-1.102.145-2.174-.283-3.27-.163-.657.097-1.296.368-1.928.639h-.006Z" fill="#B45F00"/><path d="M60.004 46.12a2.919 2.919 0 0 0-.079.627c0 1.247.765 2.27 1.68 2.27.916 0 1.681-1.017 1.681-2.27 0-.229-.036-.428-.078-.626h-3.204ZM76.598 37.899c.26-.127 2.65.957 4.216 1.084 2.765.229 5.831-.127 10.638 1.747.048.012.102.018.15.06.025 0 .049.036.067.072l.048.012c.127.054.036.356-.078.271-.073-.042-.169-.09-.241-.132-5.759-1.94-8.186 1.144-11.626.096-1.186-.38-4.108-1.584-3.174-3.204v-.006Z" fill="#323147"/><path fill-rule="evenodd" clip-rule="evenodd" d="M54.625 44.548a.428.428 0 0 1 .602-.018c.85.801 1.614 1.139 2.361 1.265.663.115 1.313.079 2.06.036l.386-.018c.891-.042 1.885-.06 3.005.247 1.12.301 2.35.916 3.747 2.084.18.151.205.422.054.597a.429.429 0 0 1-.602.054c-1.313-1.102-2.434-1.65-3.421-1.916-.988-.264-1.874-.258-2.741-.216l-.367.018c-.741.042-1.506.084-2.271-.048-.916-.163-1.831-.573-2.795-1.488a.427.427 0 0 1-.018-.603v.006Z" fill="#323147"/><path d="M86.555 46.12c.036.2.072.398.072.627 0 1.247-.753 2.27-1.662 2.27-.91 0-1.657-1.017-1.657-2.27 0-.229.036-.428.073-.626h3.174Z" fill="#323147"/><path fill-rule="evenodd" clip-rule="evenodd" d="M91.579 44.548a.422.422 0 0 1-.019.603c-.963.91-1.879 1.325-2.794 1.488-.765.132-1.53.09-2.271.048l-.368-.018c-.867-.042-1.752-.048-2.74.217-.988.265-2.109.813-3.422 1.915a.422.422 0 0 1-.596-.054.422.422 0 0 1 .054-.597c1.398-1.168 2.62-1.782 3.747-2.084 1.12-.3 2.108-.289 3.005-.247l.386.018c.747.043 1.397.079 2.06-.036.747-.132 1.512-.463 2.361-1.265a.422.422 0 0 1 .603.019l-.006-.007Z" fill="#323147"/><path opacity=".36" d="M66.792 47.79c-1.048-3.32-6.975-2.868-4.65-3.832.253-.084 4-.198 4.65 3.831Z" fill="#B45F00"/><path d="M56.751 78.73c-.199-.144-3.662-1.047-3.662-.825 0 .223 2.722 7.825 2.921 8.138.199.313 5.3 4.336 5.3 4.336s3.266-2.92 3.266-3.15c0-.228-.398-2.608-.398-2.608l-7.427-5.896v.006Z" fill="#21212B"/><path d="M97.536 73.828c1.674-4.253 2.837-17.643 2.837-17.643-27.564-6.974-27.058-6.974-54.452.681 0 0 .421 3.885 1.078 8.113.542 1.048 1.193 2.096 1.674 3.09.934 1.873 1.904 3.686 2.807 5.56.796 1.644 1.615 3.258 2.554 4.818.085.115.2.23.284.338 2.722 3.318 6.661 5.39 10.263 7.234 1.247.626 2.494 1.108 3.747 1.415 3.915.054 8-.03 11.884-.199 4.054-.735 8.114-1.789 11.824-3.8 1.5-.826 2.807 1.475 1.675 2.493 1.903-.343 3.517-.71 4.68-1.162l-.054-4.65c-1.193-1.59-1.928-3.373-.795-6.295l-.006.007Z" fill="#464558"/><path d="M97.536 73.828c1.674-4.253 2.837-17.643 2.837-17.643-12.903-3.258-19.655-5.017-25.98-5.161a35.567 35.567 0 0 1-.909 2.95c-.88 2.38-2.156 4.711-4.054 6.38-2.186 1.957-5.246 3.065-8.137 3.035-4.307-.054-6.156-4.282-6.21-9.077a2675.8 2675.8 0 0 1-9.192 2.554s.427 3.885 1.078 8.113c.542 1.049 1.192 2.097 1.674 3.09.934 1.874 1.898 3.686 2.807 5.56.795 1.644 1.614 3.258 2.554 4.818.085.115.199.23.283.338 2.723 3.319 6.668 5.39 10.27 7.234 1.247.626 2.494 1.108 3.747 1.415 3.915.054 7.999-.03 11.884-.199 4.054-.734 8.114-1.789 11.824-3.8 1.5-.826 2.807 1.475 1.675 2.493 1.903-.337 3.517-.71 4.68-1.162l-.054-4.65c-1.163-1.59-1.904-3.373-.765-6.294l-.012.006Z" fill="#323147"/><path d="M48.698 68.07c.933 1.873 1.903 3.686 2.806 5.559.796 1.644 1.615 3.258 2.554 4.819.085.114.2.228.284.337 2.722 3.319 6.662 5.39 10.264 7.234 1.246.626 2.5 1.108 3.746 1.415 1.705.03 3.403.03 5.132 0-.144-.054 4.253-2.47 4.114-2.524-3.686-1.53-16.42 2.524-23.594-18.346a55.07 55.07 0 0 1-2.47-10.463l-.084-.765a373.542 373.542 0 0 1-5.53 1.53s.422 3.885 1.079 8.114c.566 1.078 1.223 2.096 1.705 3.09h-.006Z" fill="#2B2B37"/><path d="M74.532 87.41a.596.596 0 0 0 .145-.229c.825-1.216 1.445-2.578 1.704-4.053.283-1.645.115-3.32-.229-4.91-.313-1.475-.795-2.92-.91-4.426-.114-1.332.23-2.609.742-3.855.512-1.217 1.162-2.355 1.506-3.632.253-.994.397-2.042.313-3.066-.054-1.048-.338-2.187-1.109-2.952-.65-.68-2.072-1.276-2.951-.65-.74.512-.825 1.705-.91 2.524-.114 1.108-.313 2.156-.795 3.174-.542 1.193-1.33 2.24-2.042 3.319-.825 1.246-1.53 2.578-1.843 4.053-.65 2.892.169 5.644 1.645 8.114 1.132 1.873 2.44 3.77 2.975 5.927.06.228.085.427.145.65.566.03 1.108.03 1.614 0v.012Z" fill="#2B2B37"/><path d="M97.536 73.828c1.674-4.253 2.837-17.642 2.837-17.642.03-.368-11.939-2.976-13.246-3.259-3.066-.68-6.439-1.59-9.583-1.699.03 2.669-.765 6.463 1.789 8.367.512.367 1.108.626 1.614.964 2.952 1.957 2.554 6.324.313 7.74-.91.566-2.385.879-1.361 2.379.536.764 1.361 1.33 2.042 1.927.566.482 1.247 1.048 1.446 1.813.144.596.03 1.193-.253 1.698 1.927 4.62-8.993 11.174-24.558 6.41 1.958 1.33 4.054 2.439 6.042 3.457 1.246.626 2.5 1.108 3.746 1.415 3.915.054 8-.03 11.884-.199 4.054-.734 8.114-1.789 11.824-3.8 1.506-.826 2.807 1.475 1.675 2.493 1.903-.343 3.518-.71 4.68-1.162l-.06-4.65c-1.217-1.56-1.958-3.35-.82-6.27l-.011.018Z" fill="#2B2B37"/><path d="M97.536 73.828c1.674-4.253 2.837-17.642 2.837-17.642.03-.452-5.5-1.53-5.957-1.615-.765-.168-1.53-.367-2.325-.536-.284-.054-.795-.283-1.079-.253-.397.055-.427.398-.626.735-.85 1.53-1.56 2.668-1.476 4.536v.198c.115 1.73.71 3.373 1.109 5.048.258 1.048.457 2.126.343 3.174-.368 3.403-3.548 5.698-4.85 8.848-.397.964-.595 2.012-1.132 2.922-1.023 1.698-3.005 2.523-4.312 3.999-.65.735-1.133 1.644-1.928 2.21-.91.651-2.072.766-3.18.711-.88-.03-1.873-.313-2.723-.168-.313.054-5.5 1.33-11.938-2.295 3.83 7.571 14.522 4.397 18.347 3.77 4.596-.765 9.216-1.789 13.414-4.083 1.59-.88 2.976 1.813 1.392 2.692-.03.03-.084.03-.115.054 2.072-.452 3.801-.933 5.078-1.391l-.06-4.65c-1.217-1.56-1.958-3.35-.82-6.27v.006Z" fill="#21212B"/><path d="M90.446 75.496c-.994 2.723-2.096 5.39-3.572 7.824a33.87 33.87 0 0 1-4.903 6.27c-.88.88-1.873 1.59-2.638 2.608-.398.513-.765 1.049-1.163 1.506l.03 1.705a157.681 157.681 0 0 0 17.161-1.277c.765-1.476 1.614-2.921 2.27-4.451.712-1.644 1.392-3.403 1.814-5.162l.084-.313c-3.12-9.872 16.649-51.842-7.601-71.297-13.553-10.86-23.907-9.812-36.044-.567-25.98 19.793-5.133 62.763-8.313 72.629a7.697 7.697 0 0 1-.452 1.078c.627 1.759 1.446 3.403 2.295 5.017.65 1.193 1.277 2.41 1.958 3.572.03.054.084.144.114.199 5.759 1.361 14.523 4.818 19.203 4.909 2.27.03 2.921-.482 2.157-3.434l-1.193.03-.03-1.873a18.04 18.04 0 0 0-.344-.337 9.61 9.61 0 0 0-2.837-2.072c-8.45-4.114-12.679-14.522-15.54-23.027-3.885-11.54-3.687-26.888 1.927-33.52 9.56-11.257 26.606-11.624 36.472-.397 6.638 7.541 9.415 20.275.06 37.862-.313.85-.596 1.675-.909 2.524l-.006-.006Z" fill="#464558"/><path d="M47.818 80.718c.115 1.759.054 3.204-.283 4.253a7.691 7.691 0 0 1-.452 1.078c.627 1.758 1.446 3.403 2.295 5.017.65 1.193 1.277 2.41 1.958 3.572.03.054.084.144.114.199 5.759 1.36 14.517 4.818 19.203 4.909 1.674.03 2.47-.253 2.47-1.615-15.005-8.366-22.492-6.553-25.299-17.413h-.006Z" fill="#323147"/><path opacity=".32" d="M96.74 90.614c.711-1.475 1.392-2.975 1.988-4.511.283-.71.452-1.476.68-2.21-2.24-8.764 11.09-39.706.736-60.69.343 3.631.06 7.257-1.048 10.72-.88 2.777-2.187 5.416-3.687 7.825 3.12 7.571 2.922 18.033-4.084 31.224-.313.85-.596 1.675-.91 2.524-.993 2.723-2.095 5.39-3.571 7.824a33.863 33.863 0 0 1-4.903 6.27c-.88.88-1.874 1.59-2.638 2.608-.627.85-1.223 1.73-2.072 2.326v.879c5.957-.085 11.914-.482 17.81-1.277.597-1.163 1.133-2.325 1.705-3.518l-.006.006ZM89.567 29.671c-.199-2.126-1.476-4.168-3.006-5.39-1.331-1.079-2.982-1.506-4.596-1.59-3.373-.17-6.662.933-10.01 1.192-1.904.144-3.747-.283-5.645-.452-2.24-.229-4.252.313-5.981 2.012-1.62 1.614-2.807 3.686-4.198 5.53-1.362 1.788-3.006 3.234-4.512 4.848-1.391 1.506-2.722 3.12-3.686 5.017-.482.964-.88 1.988-1.163 3.066-.313 1.217-.482 2.494-.765 3.716-.596 2.554-1.475 5.018-1.843 7.602-.169 1.247-.169 2.47-.169 3.716 1.018 6.439 2.386 12.366 3.175 17.1.397.735.825 1.446 1.247 2.157 1.162 1.927 2.44 3.83 3.12 6.04.65 2.043.735 4.368.084 6.41a9.457 9.457 0 0 1-1.277 2.578h.71l.031 1.53c5.415 1.216 12.366 4.878 17.444 4.932 1.59.03 3.265-.228 4.198-1.415.23-.283.314-1.078.145-1.843l-1.331.03-.03-2.012c-.085-.084-.17-.199-.284-.283a9.688 9.688 0 0 0-2.837-2.072c-8.45-4.114-16.082-13.582-18.943-22.093-3.885-11.54-.283-27.822 5.33-34.46 8.849-10.461 24.19-11.516 34.232-2.607a6.12 6.12 0 0 0 .566-3.259h-.006Z" fill="#323147"/><path d="M49.378 44.76c-.337 1.192-.313 2.409-.367 3.632 0 .198-.03.427-.03.65.71-3.259 1.728-6.324 2.951-8.878-.994 1.475-2.072 2.867-2.554 4.596Z" fill="#464558"/><path d="M97.451 90.699c.711-1.813 1.506-3.602 2.072-5.475.055-.17.115-.344.169-.537-.054-.114-.084-.252-.139-.367-1.644-4.794 2.44-17.582 4.024-31.676-1.223 6.463-6.837 24.846-6.951 25.099-.512 1.307-1.132 2.638-1.927 3.746-.711 1.018-1.675 1.614-2.639 2.295-.626.428-1.222.91-1.59 1.614-.259.482-.367 1.018-.482 1.56-.229 1.078-.451 2.157-1.108 3.006-.62.795-1.476 1.277-2.325 1.698-1.193.597-2.385 1.133-3.662 1.446-1.53.367-3.036.397-4.566.397-.398.452-.795.88-1.337 1.163-.422.253-4.03 3.373-4.452 3.632 6.837 0 16.252-2.867 23.54-4.252.452-1.048.91-2.21 1.361-3.35h.012Z" fill="#323147"/><path d="M54.823 35.484c7.259-8.565 18.89-10.836 28.359-6.463-.765-.512-1.53-1.018-2.21-1.645-.483-.451-.82-.536-1.446-.65-.283-.054-.512-.115-.765-.253-.85-.428-1.675-.91-2.578-1.193a14.493 14.493 0 0 0-1.223-.313c-.054 0-.115 0-.169-.03-1.192-.114-2.38-.313-3.572-.343-1.216-.055-2.41.283-3.632.313-1.331.054-2.47.054-3.602.91-.91.68-1.729 1.415-2.668 2.011-1.958 1.247-3.97 2.355-5.5 4.313a11.88 11.88 0 0 0-1.728 3.066c-.115.252-1.048 2.553-1.76 3.373-13.956 15.708-2.897 59.642 20.902 58.9.199-1.39-1.476-2.89-1.843-3.318-.91-.964-1.988-1.699-3.12-2.27-8.397-4.139-12.734-14.264-15.601-22.714-3.373-9.98-4.307-22.828 0-30.598.65-.88 1.729-2.554 2.156-3.09v-.006Z" fill="#323147"/><path d="M43.933 40.561c3.289-2.27 6.493-4.849 9.108-8.083 2.806-3.488 5.047-7.655 6.523-12.053 1.048-3.09 1.675-6.324 1.705-9.643 0-.68 0-1.33-.055-2.011a49.718 49.718 0 0 0-5.36 3.601c-9.728 7.433-12.903 18.124-13.216 29.069.452-.314.88-.597 1.301-.88h-.006Z" fill="#575770"/><path opacity=".25" d="M72.719 23.997a.483.483 0 0 1-.452-.313c-.68-1.729-.427-3.602-.199-5.39.17-1.248.314-2.524.17-3.717a12.56 12.56 0 0 0-.254-1.331 14.17 14.17 0 0 1-.229-1.078c-.343-1.958-.084-4 .139-5.813.03-.313.283-.512.542-.452.253.03.452.314.427.627-.228 1.813-.451 3.656-.144 5.445.054.337.145.65.199.994.114.451.229.933.283 1.445.169 1.331 0 2.693-.169 4.03-.229 1.729-.421 3.349.145 4.818.114.284 0 .597-.253.711-.055.03-.145.03-.199.03l-.006-.006Z" fill="#2B2B37"/><path d="M90.898 34.26a19.549 19.549 0 0 0-3.204-2.523 23.662 23.662 0 0 1 3.602 3.373c6.637 7.541 9.39 20.25.06 37.832-.313.85-.627 1.699-.94 2.554-.994 2.723-2.096 5.39-3.572 7.824a26.05 26.05 0 0 1-1.873 2.753c5.897-5.53 10.89-12.167 13.354-20.473 3.746-12.366.084-24.02-7.427-31.34Z" fill="#575770"/><path d="M102.27 65.829c-.229-1.843-.169-3.686.03-5.53h-.084l-1.133 6.012c-1.33 3.855-2.44 7.8-3.349 11.8-.259 1.108-.481 2.21-.849 3.288-1.223 3.716-3.686 6.692-6.126 9.583.398.482 1.109.367 1.675.169a15.037 15.037 0 0 0 5.843-3.687c.566-.566 1.132-1.216 1.415-2.011.651-1.73.06-3.747.482-5.56.313-1.361 1.162-2.47 1.759-3.716.765-1.56 1.132-3.35 1.078-5.132-.054-1.789-.512-3.487-.735-5.216h-.006Z" fill="#323147"/><path d="M47.848 70.111c-.452-3.97-1.078-7.938-1.698-11.884-.283-1.927-.597-3.854-.88-5.758-.199-1.277-.397-2.554-.71-3.8h-1.675c.229 1.987.566 3.969.735 5.872.283 3.319.367 6.692-.145 10.01-.283 1.76-.71 3.603-.114 5.247.229.65.596 1.193.933 1.789 1.59 2.777 2.386 6.126 2.187 9.414-.054.994-.199 2.012.03 2.976.795 3.632 7.541 9.926 9.643 9.781-3.77-5.39-7.8-19.286-8.312-23.653l.006.006Z" fill="#464558"/><path d="M46.511 80.236c0 .253 0 .482-.03.735-.054.994-.199 2.012.03 2.976.795 3.632 7.541 9.926 9.644 9.781-.88-1.246 5.812.934 4.62-.993-4.482-2.723-8.313-2.325-14.264-12.505v.006Z" fill="#323147"/><path d="M48.414 75.129c-.198-1.675-.367-3.35-.566-5.018-.452-3.97-1.078-7.938-1.698-11.884-.283-1.927-.597-3.854-.88-5.758-.199-1.277-.397-2.554-.71-3.8h-1.675c.229 1.987.566 3.969.735 5.872.283 3.319.367 6.692-.145 10.01-.283 1.76-.71 3.603-.114 5.247.229.65.596 1.193.933 1.789.482.825.88 1.698 1.193 2.608.934-.765 2.47-.626 2.921.934h.006Z" fill="#464558"/><path d="M42.915 93.054c.512 1.674 1.476 3.12 2.44 4.565 1.024 1.506 2.042 3.066 3.463 4.168 1.416 1.133 3.15 1.759 4.879 2.301a54.12 54.12 0 0 0 12.565 2.325c3.855.253 7.716.085 11.54.651 2.892.428 5.813 1.247 8.735.964 1.987-.199 3.915-.91 5.758-1.699 3.006-1.331 5.981-3.006 8.114-5.614 2.096-2.608 3.204-6.294 2.096-9.498-.253-.765-.825-1.615-1.614-1.56-.482.03-.88.427-1.247.765-5.813 5.788-13.161 10.263-21.185 10.974-2.011.169-4.03.114-6.011.03-1.506-.054-3.006-.114-4.481-.452-2.042-.482-3.916-1.5-5.897-2.126-2.042-.626-4.223-.825-6.24-1.59-3.856-1.476-6.663-4.909-9.3-8.167-1.049-1.307-1.332-2.723-2.073-4.054-1.873 1.957-2.3 5.475-1.53 8.023l-.012-.006Z" fill="#75A152"/><path opacity=".37" d="M102.469 91.18c-.253-.764-.825-1.614-1.614-1.56-.482.03-.88.428-1.247.766-5.813 5.788-13.161 10.263-21.185 10.974-2.011.169-4.023.114-6.011.03-1.506-.054-3.006-.114-4.481-.452-1.446-.337-2.807-.963-4.199-1.505 1.163 2.156 1.59 4.734.145 6.722.795.084 1.56.168 2.355.198 3.855.253 7.716.085 11.54.651 2.892.427 5.813 1.247 8.735.964 1.988-.199 3.915-.91 5.758-1.705 3.006-1.331 5.981-3.006 8.108-5.614 2.102-2.554 3.204-6.27 2.102-9.474l-.006.006Z" fill="#568040"/><path d="M102.469 91.18c-.253-.765-.826-1.614-1.615-1.56-.481.03-.879.428-1.246.765-5.813 5.783-13.162 10.264-21.185 10.975-2.012.168-4.023.114-6.011.03-1.506-.054-3.006-.115-4.482-.452-2.042-.482-3.915-1.5-5.897-2.126-2.042-.626-4.228-.825-6.24-1.59-3.855-1.476-6.662-4.91-9.3-8.168-1.048-1.307-1.331-2.722-2.072-4.053a7.309 7.309 0 0 0-.71.91c.342 2.21 1.818 4.197 2.722 6.155 1.108 2.47 1.789 5.132 3.602 7.174 1.674 1.873 3.8 2.867 6.18 3.234 1.192.169 2.41.199 3.602.367 1.162.169 2.3.482 3.463.681 1.277.199 2.554.229 3.831.428 1.277.168 2.524.397 3.8.536 1.194.144 2.356.283 3.519.566 1.33.313 2.638.681 4 .795 2.354.199 4.902.313 7.233-.144 1.277-.253 2.524-.711 3.801-1.024.566-.139 1.163-.229 1.729-.398.482-.138.933-.367 1.415-.452.91-.138 1.675.344 2.271 1.109 2.072-1.109 3.97-2.494 5.445-4.313 2.157-2.524 3.265-6.24 2.157-9.445h-.012Z" fill="#568040"/><path d="M49.408 95.042c.428 1.246.88 2.553 1.76 3.547.993 1.079 2.439 1.675 3.8 2.012 2.783.711 5.758.765 8.565 1.078 2.47.253 4.82.139 7.174-.313a18.027 18.027 0 0 1-2.783-.367c-2.042-.482-3.915-1.5-5.897-2.127-2.041-.626-4.222-.825-6.24-1.59-3.15-1.192-5.584-3.716-7.824-6.378.596 1.33.994 2.752 1.445 4.138ZM75.87 103.233c1.674.681 3.463.765 5.246.651 1.789-.115 3.632-.229 5.39-.567 1.615-.313 3.175-.71 4.79-.933 1.644-.253 3.264-.452 4.764-1.193 1.217-.596 2.524-1.277 3.487-2.295 1.109-1.162 1.446-2.752 1.675-4.312.229-1.59-.054-3.289.145-4.849a.818.818 0 0 0-.513-.084c-.481.03-.879.427-1.246.765-5.813 5.782-13.162 10.263-21.185 10.974-1.843.169-3.686.114-5.56.054.995.651 1.928 1.361 3.006 1.789Z" fill="#3E5C2E"/><path d="M62.708 96.288c2.807.452 33.008 6.24 38.568-16.648.283-1.132.283.054 1.416.084 1.927 18.805-17.896 26.912-36.129 23.172C36.699 96.8 42.825 71.731 45.264 77.399c.964 2.295-.422 15.992 17.444 18.89Z" fill="#75A152"/><path d="M62.708 96.288c2.807.452 33.008 6.24 38.568-16.648.283-1.132.283.054 1.416.084 1.927 18.805-17.896 26.912-36.129 23.172C36.699 96.8 42.825 71.731 45.264 77.399c.964 2.295-.422 15.992 17.444 18.89Z" fill="#75A152"/><path d="M45.692 85.483a20.062 20.062 0 0 1-.313-3.458c-.085-.825-.169-1.897-.68-2.578a.516.516 0 0 0-.23-.198c-.169-.055-.343.03-.452.144-.114.145-.144.313-.168.482-.115.964.367 1.873.566 2.807.169.765.114 1.59.139 2.385.024.795.114 1.614.511 2.295.115.199.254.367.482.397.23 0 .428-.198.452-.427.054-.23 0-.482-.054-.711a9.749 9.749 0 0 1-.26-1.132l.007-.007ZM49.21 93.253c0 .084 0 .168.03.228.06.17.259.253.427.314.115.03.23.084.313.084.115 0 .23-.03.284-.145.054-.054.054-.144.054-.228 0-.2-.03-.428-.139-.597-.367-.452-.88-.199-.964.337l-.006.007Z" fill="#AED888"/><path d="M76.773 98.812c-.428 0-.88.03-1.307.145-1.958.451-4.536.909-5.446 2.186-.367.512-.511 1.415.368 1.674.91.253 1.843-.367 2.47-1.108.65-.765.71-1.506 6.065-1.192l-2.156-1.699.006-.006Z" fill="#568040"/><path opacity=".37" d="M102.698 79.724c-1.133-.03-1.133-1.216-1.416-.084-4.849 19.937-28.358 18.124-36.219 17.016 2.102.71 4.223 1.216 6.27 2.126 1.79.825 3.687 1.759 4.964 3.349.398.482.68 1.018.88 1.59 14.462-.626 27.087-8.848 25.527-23.99l-.006-.007Z" fill="#568040"/><path d="M54.51 96.373c4.114 2.553 9.108 2.722 13.758 3.06 10.607.825 26.063 4.535 29.69-7.289.228-.795 5.812-1.873 4.734-12.45-1.133-.03-1.133-1.216-1.416-.084-5.56 22.888-35.761 17.1-38.568 16.648-7.855-1.277-11.999-4.62-14.24-8.197 1.049 3.433 3.205 6.523 6.042 8.311Z" fill="#568040"/><path d="M60.467 96.427c2.018.367 4.054.397 6.072.427-1.958-.228-3.349-.481-3.855-.566-4.849-.795-8.252-2.355-10.722-4.282 2.271 2.355 5.476 3.855 8.505 4.427v-.006ZM76.068 97.45c4.88.483 9.843.597 14.438-1.505 1.079-.482 2.187-1.132 3.066-1.958.795-.765 1.301-1.758 2.18-2.47 1.621-1.306 3.603-1.812 4.735-3.715 1.277-2.157.145-4.596-.452-7.06-.764 10.722-16.052 16.42-25.924 16.534.68.054 1.307.115 1.957.169v.006Z" fill="#3E5C2E"/><path d="M43.903 92.427c.199.253.482.452.65.735.17.337.17.71.2 1.108.03.368.144.796.427.994.199.145.452.145.68.145.085 0 .17 0 .23-.054a.728.728 0 0 0 .198-.23c.566-1.077-.198-2.836-.91-3.655-.282-.344-1.023-1.193-1.475-.91-.596.343-.283 1.506 0 1.873v-.006Z" fill="#AED888"/><path d="M72.093 99.294c-.85 0-1.675.114-2.494.313-.85.199-1.729.536-2.24 1.277a.997.997 0 0 0-.145.313c-.055.313.198.627.481.711.284.084.597 0 .88-.114 1.078-.428 1.957-1.307 3.09-1.446.452-.054.934.03 1.391.054.452.03.964.03 1.362-.199.228-.114.65-.451.65-.734-.03-.314-.452-.17-.626-.17-.795.055-1.59 0-2.355 0l.006-.005Z" fill="#568040"/><path d="M112.141 33.045a14.138 14.138 0 0 1-1.616 3.829c-1.282 2.106-3.029 3.633-4.817 4.261-.596.212-1.2.327-1.796.327-3.894 0-8.466-4.899-8.768-11.168-.008-.172-.008-.343-.008-.507a12.71 12.71 0 0 1 .18-2.4c.04-.294.098-.58.163-.865a24.08 24.08 0 0 1 .481-1.796 26.29 26.29 0 0 1 .727-2.123c.098-.245.188-.49.294-.726a50.194 50.194 0 0 1 .596-1.355c.376-.792.767-1.535 1.176-2.23.073-.13.147-.26.22-.383.229-.384.449-.743.678-1.094 2.171-3.363 4.261-5.241 4.261-5.241s.588.449 1.47 1.347c1.739 1.78 4.604 5.323 6.229 10.605.294.939.547 1.943.743 2.996a14.997 14.997 0 0 1-.213 6.523Z" fill="#B8E6FE"/><path opacity=".6" d="M112.141 33.045a14.139 14.139 0 0 1-1.616 3.829c-1.282 2.106-3.029 3.633-4.817 4.261-.596.212-1.2.327-1.796.327-3.894 0-8.466-4.899-8.768-11.168-.008-.172-.008-.343-.008-.507 0-.824.057-1.624.18-2.4.04-.294.098-.58.163-.865a24.08 24.08 0 0 1 .482-1.796 26.29 26.29 0 0 1 .727-2.123c.097-.245.187-.49.293-.726a51.433 51.433 0 0 1 .596-1.355c.376-.792.767-1.535 1.176-2.23.073-.13.147-.26.22-.383.229-.384.45-.743.678-1.094-.074 2.008-.212 15.56 12.49 16.23Z" fill="#8ABFD6"/><path opacity=".6" d="M111.611 23.526c-9.764-2.008-6.229-10.605-6.229-10.605 1.739 1.78 4.604 5.323 6.229 10.605Z" fill="#EBF8FC"/><path d="M105.708 41.135c-.596.213-1.2.327-1.796.327-4.653 0-10.262-6.98-8.433-14.94a29.478 29.478 0 0 1 2.114-6.025s-3.053 16.622 8.115 20.638Z" fill="#8ABFD6"/><path d="M125.555 44.058a8.971 8.971 0 0 1-.996 2.367c-.792 1.299-1.87 2.245-2.98 2.637-.368.131-.743.205-1.11.205-2.409 0-5.233-3.03-5.421-6.899v-.31a7.74 7.74 0 0 1 .114-1.486c.025-.18.057-.36.098-.539.09-.375.188-.751.294-1.11.033-.123.073-.237.114-.36.106-.326.221-.644.335-.955.057-.155.114-.302.18-.449.057-.146.122-.294.187-.432.057-.14.123-.27.18-.4.229-.49.473-.947.727-1.38.049-.082.089-.163.138-.237.139-.236.278-.457.417-.677 1.339-2.082 2.637-3.241 2.637-3.241s.359.277.906.832c1.077 1.102 2.849 3.29 3.853 6.556.18.58.335 1.2.457 1.853.27 1.437.188 2.8-.13 4.033v-.008Z" fill="#B8E6FE"/><path opacity=".6" d="M125.555 44.058a8.971 8.971 0 0 1-.996 2.367c-.792 1.299-1.87 2.245-2.98 2.637-.368.131-.743.205-1.11.205-2.409 0-5.233-3.03-5.421-6.899v-.31c0-.506.032-1.004.114-1.486.025-.18.057-.36.098-.539.09-.375.188-.751.294-1.11.033-.123.073-.237.114-.36.106-.326.221-.644.335-.955.057-.155.114-.302.18-.449.057-.146.122-.294.187-.432.057-.14.123-.27.18-.4.229-.49.473-.947.727-1.38.049-.082.089-.163.138-.237.139-.236.278-.457.417-.677-.049 1.24-.131 9.617 7.723 10.033v-.008Z" fill="#8ABFD6"/><path opacity=".6" d="M125.22 38.172c-6.033-1.241-3.853-6.556-3.853-6.556 1.077 1.102 2.849 3.29 3.853 6.556Z" fill="#EBF8FC"/><path d="M121.579 49.054a3.33 3.33 0 0 1-1.11.204c-2.874 0-6.344-4.31-5.209-9.233.318-1.372.784-2.62 1.306-3.723 0 0-1.886 10.27 5.013 12.752Z" fill="#8ABFD6"/></g></svg>