<svg width="150" height="150" fill="none" xmlns="http://www.w3.org/2000/svg"><mask id="a" style="mask-type:alpha" maskUnits="userSpaceOnUse" x="0" y="0" width="150" height="150"><circle cx="75" cy="75" r="75" fill="#C4C4C4"/></mask><g mask="url(#a)"><path d="M75.567 153.814c42.863 0 77.611-35.286 77.611-78.814 0-43.528-34.748-78.814-77.61-78.814C32.703-3.814-2.044 31.472-2.044 75c0 43.528 34.747 78.814 77.61 78.814Z" fill="#E3F7FF"/><path d="M59.224 62.18c1.53-1.559 2.445-3.792 1.633-5.815-.458-1.195-1.378-2.079-2.445-2.753-3.365-2.234-7.852-2.234-11.675-.985-3.823 1.3-7.188 3.688-10.504 6.126 3.415-3.063 6.883-6.285 8.718-10.542 1.786-4.257 1.324-9.867-2.243-12.67-3.262-2.543-7.852-2.079-11.828-1.04-8.053 2.079-15.6 6.026-22.02 11.372C4.676 49.35-3.53 56.105-4.45 62.18h63.674ZM121.002 34.047c1.097-1.12 1.761-2.723 1.171-4.182-.33-.86-.989-1.494-1.762-1.978-2.42-1.604-5.643-1.604-8.393-.71-2.75.935-5.166 2.648-7.547 4.402 2.455-2.203 4.945-4.517 6.268-7.574 1.284-3.063.954-7.09-1.614-9.108-2.346-1.829-5.643-1.494-8.501-.745-5.79 1.494-11.212 4.332-15.827 8.174-3.006 2.503-8.905 7.354-9.564 11.721H121.002ZM143.845 69.354c.728-.74 1.161-1.798.777-2.763-.216-.569-.654-.989-1.161-1.308-1.599-1.06-3.729-1.06-5.545-.47-1.815.614-3.414 1.754-4.988 2.913 1.623-1.454 3.271-2.988 4.142-5.007.846-2.023.63-4.686-1.067-6.02-1.55-1.209-3.73-.989-5.619-.494-3.827.989-7.414 2.862-10.464 5.4-1.988 1.654-5.884 4.862-6.322 7.75h30.252-.005Z" fill="#FCFCFC"/><path d="M47.363 111.261c-8.111-9.756-31.394-2.013-38.74 3.375-8.422 6.182-13.64 14.265-17.044 23.312-.68 1.446-1.304 2.921-1.957 4.367-2.495 5.672-4.764 11.429-6.466 17.413-1.701 6.012-2.665 12.081-3.063 18.32-.198 3.148-.34 6.324-.907 9.415-.567 3.063-1.645 5.757-3.12 8.508-.623 1.191-1.276 2.411-1.588 3.744-.368 1.56-.255 3.148-.34 4.736-.142 2.807-.993 5.502-2.212 7.997-18.888 38.796-17.895 52.267-26.601 87.915-.284 1.106-.54 2.354.113 3.347.539.822 1.56 1.304 2.524 1.729A64.913 64.913 0 0 0-39.9 309.24c.936.198 1.928.368 2.864.17 1.305-.255 2.269-1.191 3.148-2.07 14.152-14.237 24.106-28.473 30.77-45.404a168.167 168.167 0 0 0 3.602-6.211c1.957-3.63 3.63-7.373 5.247-11.145 1.645-3.886 3.601-7.345 6.097-10.72 2.382-3.233 3.8-6.466 4.48-10.437.71-3.998 1.305-7.884 2.667-11.712 2.836-7.856 7.487-14.832 11.429-22.149 2.92-5.417 5.53-11.202 6.693-17.271 10.464-23.822 18.972-50.565 10.266-61.03Z" fill="#464558"/><path opacity=".29" d="M15.09 120.421c-.54 2.638-1.135 5.332-2.014 7.941-1.588 4.736-4.112 9.217-5.445 14.01-1.163 4.225-1.22 8.508 1.815 12.194 2.354 2.865 5.757 4.963 8.678 7.374 3.204 2.609 5.218 5.502 6.523 9.103 1.673 4.623 2.212 9.472 2.665 14.265.199 2.07.426 4.141.653 6.211 13.272-26.346 30.6-66.815 19.37-80.286-6.24-7.487-21.412-4.651-31.452-.511.34 3.262-.17 6.551-.794 9.699Z" fill="#2B2B37"/><path opacity=".29" d="M-33.888 307.311c14.152-14.236 24.106-28.473 30.77-45.403a168.988 168.988 0 0 0 3.602-6.211c1.957-3.63 3.63-7.374 5.247-11.146 1.644-3.885 3.601-7.345 6.097-10.719 2.382-3.233 3.8-6.466 4.48-10.437.71-3.999 1.305-7.884 2.667-11.712 2.836-7.856 7.487-14.832 11.429-22.149 2.92-5.417 5.53-11.202 6.692-17.271 10.267-23.369 18.661-49.573 10.664-60.406 0-.029-.029-.029-.029-.057a6.215 6.215 0 0 0-.397-.51c-.141-.171-.283-.312-.425-.483l-.142-.141a101.974 101.974 0 0 0-.482-.482c-.085-.086-.198-.171-.284-.256-.056-.056-.141-.113-.198-.17-.113-.085-.199-.17-.312-.227a.907.907 0 0 0-.199-.142c-.113-.085-.226-.141-.34-.226-.057-.057-.142-.085-.198-.142-.142-.085-.256-.17-.397-.227-.057-.028-.085-.057-.142-.085-.199-.114-.369-.199-.567-.312-.029-.028-.086-.028-.114-.057-.17-.085-.312-.142-.482-.227-.057-.028-.142-.056-.199-.085-.141-.056-.255-.113-.397-.17a1.953 1.953 0 0 1-.226-.085c-.142-.057-.256-.085-.397-.142l-.256-.085a2.309 2.309 0 0 0-.425-.113.853.853 0 0 0-.227-.057c-.142-.028-.312-.085-.454-.113-.056-.029-.141-.029-.198-.057-.199-.057-.397-.085-.624-.142h-.057c-.227-.057-.482-.085-.709-.113-.057 0-.085 0-.142-.029-.198-.028-.368-.057-.567-.085-.085 0-.142-.028-.227-.028-.17-.029-.34-.029-.51-.057-.085 0-.17-.028-.255-.028-.17-.029-.34-.029-.51-.029-.086 0-.171 0-.256-.028-.17 0-.34-.028-.539-.028h-.993c-.51 0-1.049 0-1.56.028h-.113c-.227 0-.454.028-.68.028h-.17c-.2 0-.398.029-.624.057-.057 0-.142 0-.199.028-.199.029-.397.029-.624.057-.057 0-.113 0-.17.029l-.68.085c-.03 0-.086 0-.114.028-.823.113-1.645.227-2.467.369h-.057c-.255.056-.51.085-.766.141-.028 0-.085.029-.113.029-.227.056-.454.085-.681.142-.057 0-.085.028-.142.028-.227.057-.482.113-.709.17-.028 0-.056.028-.113.028-.255.057-.539.114-.794.199a36.617 36.617 0 0 1 2.665 5.785c6.013 16.534-6.409 34.741-17.412 48.552-4.878 6.097-17.357 12.45-29.58 18.292-.141 2.297-.34 4.566-.737 6.835-.567 3.062-1.645 5.757-3.12 8.508-.623 1.191-1.276 2.41-1.588 3.743-.368 1.56-.255 3.148-.34 4.736-.142 2.808-.992 5.502-2.212 7.997-.085.142-.142.284-.198.426 6.352 1.078 12.364 2.325 13.782 3.233 6.381 3.999 9.7 10.776 8.905 17.356-2.098 17.555-23.992 23.397-39.902 25.325-3.034 12.251-4.963 24.304-9.188 41.575-.029.057-.029.142-.057.199-.029.085-.029.17-.057.255-.227.993-.34 2.014.227 2.893.199.312.454.567.766.794.312.227.652.425 1.02.595.256.114.483.227.738.341l1.446.595c.965.397 1.957.766 2.978 1.106a53.53 53.53 0 0 0 3.035.936c.907.255 1.815.482 2.722.709.255.057.482.114.738.17.397.085.822.199 1.219.255.085.029.199.029.284.057.028 0 .085.029.113.029.823.141 1.645.255 2.439.085.17-.029.312-.085.482-.142.624-.199 1.134-.567 1.645-.964.255-.199.482-.426.709-.624a4.42 4.42 0 0 0 .482-.426Z" fill="#2B2B37"/><path opacity=".29" d="M46.257 144.754c-3.63 8.564-8.792 16.732-15.03 24.191-2.865 3.403-5.985 6.692-9.473 9.67-5.53 4.736-11.883 8.338-18.83 11.429-2.27 1.021-4.709 1.787-7.006 2.751-2.183.908-5.445 2.127-5.927 4.367C-11 201.615-3.4 203.969.286 205.5c.227.114.312.34.17.539-1.05 1.134-2.099 2.496-2.014 3.999.057 1.021.653 1.9 1.333 2.722 1.645 1.957 3.602 3.687 4.481 6.012 2.382 6.325-1.05 13.415-3.999 19.2-3.658 7.118-7.061 14.18-9.16 21.723a83.714 83.714 0 0 0-2.325 11.458c-.397 3.006-.568 6.012-.908 9.018a117.64 117.64 0 0 0 9.047-18.264 168.118 168.118 0 0 0 3.602-6.21c1.956-3.63 3.63-7.374 5.246-11.146 1.645-3.885 3.602-7.345 6.097-10.72 2.383-3.233 3.8-6.466 4.481-10.436.71-3.999 1.305-7.884 2.666-11.712 2.836-7.856 7.487-14.833 11.43-22.149 2.92-5.417 5.53-11.202 6.692-17.271 5.842-13.301 11.089-27.538 13.045-39.307.029-.085.029-.17.057-.283-.936 4.112-2.297 8.167-3.97 12.081Z" fill="#2B2B37"/><path d="M205.298 301.327c-2.637-10.833-5.303-21.666-7.94-32.5-2.383-9.755-4.481-17.214-6.41-23.141a51.179 51.179 0 0 0-2.382-7.515c-9.103-23.17-4.481-15.23-7.912-26.999-.624-2.184-1.503-4.311-2.695-6.239-1.162-1.9-2.609-3.63-3.885-5.473-1.276-1.844-2.297-3.772-2.807-5.984-.539-2.382-.511-4.85-.483-7.289.171-12.932-1.928-15.342-7.742-32.982-3.006-14.747-8.394-28.303-21.043-37.576-7.373-5.389-30.657-13.103-38.739-3.375-10.919 13.102 5.19 51.756 18.292 78.131a82.467 82.467 0 0 0 3.403 8.763c1.503 3.318 3.318 6.437 5.077 9.614 1.673 2.977 3.374 6.21 3.63 9.699.141 1.815-.369 3.601-.227 5.416.142 1.73.794 3.29 1.616 4.793.738 1.333 1.617 2.609 2.269 3.999.851 1.758 1.361 3.658 1.928 5.502 1.021 3.318 2.269 6.437 4.311 9.301 19.965 27.935 12.904 32.699 40.923 60.889.851.879 1.815 1.786 3.148 2.07.936.198 1.929.028 2.864-.17a64.876 64.876 0 0 0 12.138-3.801c.993-.425 2.014-.907 2.524-1.729.681-1.05.426-2.298.142-3.404Z" fill="#464558"/><path opacity=".25" d="M121.58 190.356a82.308 82.308 0 0 0 3.404 8.763c1.503 3.319 3.318 6.438 5.076 9.614 1.673 2.978 3.375 6.211 3.63 9.699.142 1.815-.369 3.602-.227 5.417.142 1.73.794 3.29 1.617 4.793.737 1.333 1.616 2.609 2.268 3.999.851 1.758 1.362 3.658 1.929 5.501 1.021 3.318 2.269 6.438 4.311 9.302 12.081 16.903 14.265 25.325 20.305 35.592.142.17.255.34.369.538a79.99 79.99 0 0 1-.057-2.637c-.057-3.205-.34-6.324-1.446-9.415-.993-2.78-2.496-5.389-3.517-8.168-.567-1.503-1.106-3.12-2.127-4.481-.766-.992-1.957-1.673-2.779-2.637-1.9-2.156-1.9-5.218-2.014-7.771-.17-3.063-.538-5.899-2.495-8.564-.312-.426-1.305-.936-2.694-1.475-4.226-1.645-7.062-5.672-7.232-10.21-.284-7.089-.539-12.875-.738-14.718-1.247-10.777-1.871-21.582-1.815-32.415.057-10.408.511-20.873 2.978-31.082 1.957-8.111 5.105-16.307 9.813-23.596.368-.538.737-1.134 1.134-1.701a44.284 44.284 0 0 0-3.063-3.573 9.506 9.506 0 0 0-.142-.142c-.312-.312-.595-.624-.907-.936l-.284-.284c-.255-.255-.539-.51-.822-.765-.114-.114-.227-.227-.369-.341l-.794-.709c-.142-.113-.255-.227-.397-.34-.283-.227-.567-.482-.851-.709-.113-.085-.255-.199-.368-.284-.426-.312-.823-.652-1.277-.964-2.183-1.588-5.785-3.403-9.954-4.906-.652-.227-1.333-.454-2.013-.681-.227-.085-.454-.141-.681-.227a26.835 26.835 0 0 0-1.39-.397c-.936-.255-1.9-.51-2.864-.709-2.893-.652-5.842-1.049-8.65-1.106h-1.389c-.454 0-.908.029-1.362.085-.68.057-1.332.142-1.985.227-1.73.284-3.318.766-4.736 1.475-.539.255-1.049.567-1.531.908a19.22 19.22 0 0 0-.936.709c-.454.368-.851.794-1.248 1.247-1.305 1.589-2.325 3.886-3.063 6.807-3.431 16.703 10.068 48.551 21.383 71.267Z" fill="#2B2B37"/><path opacity=".29" d="M130.259 198.269c.624-4.056 1.588-8.055 2.183-12.11.511-3.46.511-6.92.397-10.408-.113-3.346-.539-6.75.085-10.096.596-3.29 1.957-6.409 3.148-9.557 1.277-3.318 2.042-6.665 2.95-10.068 1.815-6.749 3.687-13.641 2.467-20.589-.822-4.764-2.921-9.217-5.814-13.329-10.011-4.367-26.006-7.629-32.443.085-13.273 15.967 13.499 69.85 26.147 93.218.227-2.354.511-4.764.88-7.146Z" fill="#2B2B37"/><path opacity=".25" d="M205.298 301.327c-2.637-10.833-5.303-21.666-7.94-32.5-2.383-9.755-4.481-17.214-6.41-23.141a51.229 51.229 0 0 0-2.382-7.516c-9.103-23.169-4.481-15.229-7.912-26.998-.624-2.184-1.503-4.311-2.695-6.239-1.162-1.9-2.609-3.63-3.885-5.473-1.276-1.844-2.297-3.772-2.807-5.984-.539-2.382-.511-4.85-.483-7.289.171-12.932-1.928-15.342-7.742-32.982-3.006-14.747-8.394-28.303-21.043-37.576l-.34-.256c-.028-.028-.085-.056-.113-.085a22.708 22.708 0 0 1-.256-.17c-.056-.028-.085-.057-.141-.085-.086-.057-.142-.113-.227-.142-.057-.028-.114-.056-.17-.113-.086-.057-.142-.085-.227-.142-.057-.028-.114-.085-.171-.113-.085-.057-.17-.086-.226-.142-.057-.029-.114-.085-.199-.114-.085-.056-.17-.085-.255-.141-.057-.029-.142-.086-.199-.114-.085-.057-.17-.085-.255-.142-.057-.028-.142-.085-.198-.113-.086-.057-.199-.114-.284-.17a13.463 13.463 0 0 0-.17-.085c-.17-.085-.312-.171-.482-.256a8.976 8.976 0 0 1-.17-.085 2.847 2.847 0 0 1-.312-.17c-.086-.028-.171-.085-.256-.113-.085-.057-.17-.085-.283-.142-.085-.028-.17-.085-.284-.114-.085-.028-.17-.085-.255-.113-.085-.057-.199-.085-.284-.142-.085-.028-.17-.085-.255-.113-.113-.057-.198-.085-.312-.142-.085-.028-.17-.085-.255-.113-.114-.057-.199-.086-.312-.142-.085-.029-.17-.057-.227-.114-.113-.056-.227-.085-.34-.141-.057-.029-.142-.057-.227-.086a1.993 1.993 0 0 0-.369-.141c-.057-.029-.085-.029-.142-.057a92.859 92.859 0 0 0-1.559-.596c-.029 0-.057-.028-.057-.028-.17-.057-.312-.113-.482-.17-.057-.029-.085-.029-.142-.057-.17-.057-.312-.113-.482-.17-.057-.028-.114-.028-.142-.057-.17-.056-.312-.113-.482-.17-.057-.028-.114-.028-.142-.057-.17-.056-.312-.113-.482-.141-.057-.029-.085-.029-.142-.057l-.51-.17c-.029 0-.057-.029-.085-.029a59.039 59.039 0 0 0-4.396-1.134c-.199-.057-.426-.085-.624-.142h-.028c-6.495-1.304-13.216-1.361-17.782 1.305h.085c6.721.737 13.698 2.921 18.944 6.551 3.801 2.609 7.034 6.04 9.87 9.387a64.068 64.068 0 0 1 7.912 11.797c4.538 8.764 6.438 18.094 7.26 27.566.936 10.606.227 21.241-1.872 31.706-.595 2.893-1.021 6.211 1.957 8.309 3.46 2.411 8.168 2.468 11.996 4.198 4.623 2.07 4.623 6.154 5.02 10.011.482 4.594 4.169 7.6 7.941 10.634 3.545 2.865 6.267 5.871 7.742 9.87 1.531 4.168 1.843 8.621 1.9 12.96.114 8.706-4.169 16.76-10.635 23.453-2.836 2.95-5.757 5.814-9.132 8.338-.056.057-.113.085-.17.142 5.36 8.167 11.798 15.881 19.483 23.595.227.227.426.425.681.652.567.539 1.219 1.021 1.985 1.276.142.057.312.086.482.142.823.17 1.673.057 2.496-.113l.34-.085c.539-.114 1.05-.227 1.56-.341 1.049-.255 2.07-.51 3.091-.794.511-.141 1.021-.312 1.532-.453a61.948 61.948 0 0 0 5.927-2.184c.368-.17.737-.312 1.106-.511.369-.198.68-.397.964-.652.199-.17.34-.34.482-.539a2.64 2.64 0 0 0 .369-.992c.085-.653-.085-1.475-.284-2.241Z" fill="#2B2B37"/><path d="M132.442 131.453a20.45 20.45 0 0 0-1.56-3.205c-3.97-6.749-3.346-18.547-3.346-18.547s-1.248-.822-8.423-2.836c-6.438-1.786-32.586-10.18-36.187-10.408L63.669 95.21c-3.601.256-29.862 9.87-36.328 11.656-5.7 1.588-7.658 2.439-8.225 2.723.88 5.672.284 11.514-.879 17.271-1.106 5.558-2.807 11.003-3.913 16.59-1.447 7.402-.624 11.486.17 14.861.85 3.63 2.892 11.258 2.977 11.627 3.063 11.996 6.154 38.938 3.574 48.608-.993 3.772-1.787 7.431-1.22 11.373.34 2.297 1.078 4.452 2.354 6.267 0 .936.029 1.872.029 2.836.056 4.254.255 8.536.368 12.847 2.836.369 7.345.369 7.856.993 1.56 1.871 9.87 9.755 39.987 10.237.936-.028 1.844-.028 2.751-.056.907.028 1.815.056 2.75.056 30.119-.482 38.457-8.366 39.988-10.237.737-.908 9.813-.511 10.125-1.759.368-1.446.709-2.864 1.02-4.282a146.003 146.003 0 0 1-.567-9.245c2.978-2.609 3.772-6.636 3.602-10.805a161.575 161.575 0 0 0-1.446-15.74c-1.957-13.386-1.362-11.174-.908-26.545.227-8.054.369-16.221 2.751-23.85 1.106-3.573 2.524-7.005 4.027-10.408.028-.227.085-.482.114-.737 1.02-6.863.113-12.847-2.184-18.037Z" fill="#575770"/><path opacity=".11" d="M132.442 131.453a20.45 20.45 0 0 0-1.56-3.205c-3.97-6.749-3.346-18.547-3.346-18.547s-1.248-.822-8.423-2.836a4.719 4.719 0 0 0-.312-.085c-.028 0-.085-.028-.114-.028-.085-.029-.141-.029-.226-.057-.057 0-.085-.028-.142-.057-.057-.028-.142-.028-.199-.056-.056-.029-.113-.029-.17-.057-.057-.029-.142-.029-.198-.057-.057-.028-.114-.028-.171-.057-.085-.028-.141-.056-.226-.056-.057-.029-.114-.029-.199-.057l-.255-.085c-.057-.029-.114-.029-.17-.057a4.719 4.719 0 0 0-.312-.085c-.057-.028-.114-.028-.142-.057a2.534 2.534 0 0 1-.369-.113c-.028 0-.085-.028-.113-.028-.142-.029-.284-.086-.426-.114-.028 0-.056-.028-.085-.028-.34-.114-.709-.199-1.077-.312h-.029a3.349 3.349 0 0 0-.51-.142c-.057-.028-.142-.028-.199-.057-.142-.028-.255-.085-.397-.113-.056-.029-.113-.029-.17-.057-.113-.028-.255-.085-.369-.113-.085-.029-.141-.057-.226-.057a45.412 45.412 0 0 0-1.078-.34c-.029 0-.057-.029-.114-.029-2.013-.624-4.197-1.276-6.466-1.985h-.056l-.596-.17c-.057 0-.085-.028-.142-.028-.198-.057-.368-.114-.567-.171-.028 0-.028 0-.057-.028-.198-.057-.397-.113-.623-.198-.029 0-.086-.029-.114-.029-.198-.057-.369-.113-.567-.17.028.17.057.369.057.539.794 6.437.624 13.017-.227 19.483-1.673 12.563-6.693 25.325-17.158 33.096-9.812 7.288-22.716 8.848-34.542 7.884-8.735-.738-17.413-2.666-25.552-5.843-3.886-1.503-7.77-3.318-11.117-5.842v1.191c0 .114 0 .256.028.369v.142c0 .142.028.255.028.369v.113l.086.936v.085c.028.113.028.255.056.369 0 .028 0 .085.029.113.028.114.028.199.056.312 0 .028 0 .085.029.114.028.113.028.198.056.311 0 .029 0 .086.029.114.028.113.028.227.056.34v.057c.029.142.057.284.086.397v.057c.028.113.056.227.056.34 0 .028.029.085.029.113.028.086.028.171.056.256 0 .056.029.085.029.142.028.085.028.17.056.255 0 .028.029.085.029.113.028.085.028.17.056.255 0 .029.029.085.029.114l.085.34c.85 3.63 2.893 11.259 2.978 11.628 3.063 11.996 6.154 38.937 3.573 48.608-.992 3.772-1.787 7.43-1.22 11.372.341 2.297 1.078 4.453 2.355 6.268 0 .936.028 1.871.028 2.836.057 4.254.255 8.536.369 12.847 2.835.368 7.345.368 7.855.992 1.56 1.872 9.87 9.756 39.987 10.238.936-.028 1.844-.028 2.751-.057.908.029 1.815.057 2.751.057 30.118-.482 38.456-8.366 39.987-10.238.738-.907 9.813-.51 10.125-1.758.369-1.447.709-2.864 1.021-4.282a145.34 145.34 0 0 1-.567-9.246c2.977-2.609 3.771-6.636 3.601-10.805a161.584 161.584 0 0 0-1.446-15.739c-1.957-13.386-1.361-11.174-.908-26.545.227-8.054.369-16.222 2.751-23.85 1.106-3.574 2.524-7.005 4.027-10.408.029-.227.085-.482.114-.738 1.163-6.919.255-12.903-2.042-18.093Z" fill="#2B2B37"/><path opacity=".25" d="M71.894 263.07c.425 0 .85-.028 1.276-.028h.51c.908.028 1.815.056 2.751.056 29.693-.538 37.946-8.366 39.477-10.237l.085-.086s.028 0 .028-.028c.029-.028.057-.028.086-.057 0 0 .028 0 .028-.028.057-.028.085-.028.142-.057.056-.028.142-.028.198-.056.029 0 .057 0 .057-.029.057 0 .113-.028.17-.028.028 0 .057 0 .085-.028.085 0 .142-.029.227-.029h.028c.085-.028.199-.028.284-.028h.085c.085 0 .142-.029.227-.029h.113c.085 0 .171-.028.284-.028h.057c.113 0 .227-.028.34-.028h.114c.085 0 .17 0 .255-.029h.142c.085 0 .17 0 .255-.028h.113c2.553-1.645 5.048-3.375 7.516-5.105.028-.028.085-.056.113-.085 0-.028.028-.057.028-.113 0-.029.029-.057.029-.085a145.34 145.34 0 0 1-.567-9.246c2.977-2.609 3.771-6.636 3.601-10.805a161.584 161.584 0 0 0-1.446-15.739c-1.957-13.386-1.361-11.174-.908-26.545.085-3.034.171-6.069.341-9.103.312-5.02.907-9.983 2.382-14.747 1.021-3.347 2.354-6.551 3.715-9.728.085-.226.199-.453.284-.68.028-.227.085-.482.113-.738.255-1.729.397-3.374.425-4.991.086-4.821-.879-9.16-2.58-13.045-.085-.227-.199-.482-.284-.738a26.742 26.742 0 0 0-.766-1.588c-.141-.283-.312-.567-.482-.851-3.97-6.749-3.346-18.547-3.346-18.547h-.029s-.028 0-.028-.028c0 0-.028 0-.028-.028-.341-.171-1.503-.709-4.68-1.702h-.028c-.142-.028-.255-.085-.397-.113-.028 0-.028 0-.057-.029-.142-.028-.255-.085-.397-.113-.028 0-.028 0-.056-.029-.142-.028-.284-.085-.426-.113.454.142-.028 8.168.028 9.16.199 3.63.086 7.26-.397 10.862-.935 7.118-3.147 14.066-6.607 20.39-3.971 7.26-9.473 13.585-15.116 19.654-5.388 5.785-11.316 12.251-11.514 20.362-.028 1.248.085 2.524-.227 3.743-.227.965-.709 1.815-1.163 2.666-1.957 3.658-3.942 7.317-5.927 11.004-2.212 4.083-6.608 6.154-10.408 8.564a87.535 87.535 0 0 1-13.3 7.033c-9.927 4.226-20.505 6.608-31.197 7.232-.425.028-2.892.142-5.898.284.028.482.085.936.142 1.418.34 2.297 1.077 4.452 2.353 6.267 0 .936.029 1.872.029 2.836.028 1.078.028 2.127.056 3.205.086 3.204.227 6.409.312 9.642 2.836.369 7.346.369 7.856.993.142.17.34.397.624.68.284.284.624.596 1.05.936.226.17.453.34.708.539.51.369 1.135.766 1.844 1.163a33.766 33.766 0 0 0 4.48 2.127c.37.141.738.283 1.135.425 3.715 1.333 8.706 2.609 15.4 3.432.708.085 1.417.17 2.155.255 1.106.113 2.268.227 3.46.312 2.779.198 5.813.34 9.131.397.568-.142 1.05-.142 1.532-.142Z" fill="#2B2B37"/><path opacity=".25" d="M71.894 263.07c.425 0 .85-.028 1.276-.028h.511c.907.028 1.815.057 2.75.057 29.693-.539 37.946-8.367 39.477-10.238l.085-.085s.029 0 .029-.029c.028-.028.056-.028.085-.056 0 0 .028 0 .028-.029.057-.028.085-.028.142-.057.057-.028.142-.028.198-.056.029 0 .057 0 .057-.029.057 0 .114-.028.17-.028.029 0 .057 0 .085-.028.085 0 .142-.029.227-.029h.029c.085-.028.198-.028.283-.028h.085c.085 0 .142-.028.227-.028h.114c.085 0 .17-.029.283-.029h.057c.113 0 .227-.028.34-.028h.114c.085 0 .17 0 .255-.029h.142c.085 0 .17 0 .255-.028h.113c2.553-1.645 5.048-3.375 7.516-5.105.028-.028.085-.056.113-.085 0-.028.028-.056.028-.113 0-.028.029-.057.029-.085a145.308 145.308 0 0 1-.567-9.245c2.977-2.61 3.771-6.637 3.601-10.805a161.575 161.575 0 0 0-1.446-15.74c-1.957-13.386-1.361-11.174-.908-26.545.086-3.034.171-6.069.341-9.103.312-5.02.907-9.983 2.382-14.747 1.021-3.347 2.354-6.551 3.715-9.727.085-.227.199-.454.284-.681.028-.227.085-.482.113-.737.255-1.73.397-3.375.426-4.992.085-4.821-.88-9.16-2.581-13.045-.085-.227-.199-.482-.284-.737a26.464 26.464 0 0 0-.766-1.589 12.2 12.2 0 0 0-.482-.85c-3.97-6.75-3.346-18.548-3.346-18.548s-.028-.028-.085-.028c-.255-.142-1.22-.596-3.857-1.446.482.142.766 5.927.822 6.636.227 2.184.397 4.367.624 6.579.539 4.935.936 9.926.426 14.889-1.503 14.804-10.635 27.509-19.597 39.477-3.828 5.104-7.799 10.606-8.394 17.101-.284 3.006.198 6.068-.057 9.075-.88 9.869-9.444 14.917-17.13 19.001-7.968 4.253-16.561 7.146-25.353 8.933-8.14 1.673-22.716 3.318-34.088 3.857.368.851.794 1.673 1.304 2.439 0 .936.028 1.871.028 2.836.029 1.077.029 2.127.057 3.204.085 3.205.227 6.41.312 9.643 2.836.368 7.345.368 7.856.992.142.17.34.397.624.681.283.283.624.595 1.05.936.226.17.453.34.708.538.51.369 1.134.766 1.843 1.163a33.637 33.637 0 0 0 4.481 2.127 49 49 0 0 0 1.135.426c3.715 1.332 8.706 2.609 15.399 3.431.709.085 1.418.17 2.155.255 1.106.114 2.27.227 3.46.312 2.78.199 5.814.341 9.132.397.596-.17 1.078-.17 1.56-.17Z" fill="#2B2B37"/><path d="M77.594 129.751c-.879-1.077-2.098-1.928-3.148-2.836a205.972 205.972 0 0 0-3.8-3.176c-2.495-2.098-4.991-4.225-7.317-6.523-3.516-3.431-6.778-7.288-8.904-11.712-1.589.397-3.262.936-4.992 1.56 2.666 5.331 5.7 10.549 8.962 15.541 1.56 2.382 3.176 4.764 4.991 7.005 1.758 2.183 3.687 4.339 6.04 5.87a9.272 9.272 0 0 0 3.149 1.305c.056-.312.141-.596.198-.908.057-.227.369-.113.34.085-.056.284-.141.567-.198.851 1.276.17 2.58 0 3.829-.681 2.552-1.333 2.495-4.339.85-6.381Z" fill="#575770"/><path opacity=".25" d="M101.501 101.675c-1.049 2.071-4.112 10.011-5.416 11.968-1.588 2.439-3.403 4.651-5.077 7.033-1.474 2.071-2.892 4.169-4.48 6.183-1.617 2.07-3.375 4.112-5.474 5.7-.624.454-1.276.879-1.985 1.219-.426 1.844-2.184 3.007-4.056 3.347a6.734 6.734 0 0 1-2.127.057c-2.24 9.358-7.09 17.923-12.364 25.977-4.963 7.572-10.408 14.86-15.485 22.461-5.105 7.685-9.444 15.881-12.223 24.871-1.56 4.992-2.666 10.125-3.772 15.258a1012.75 1012.75 0 0 0-3.431 16.618c-.624 3.205-1.248 6.381-1.617 9.643 2.723.227 6.04.312 6.495.85.397.511 1.304 1.418 2.949 2.525.113-3.375.51-6.722 1.22-10.011 5.104-24.021 23.425-51.416 38.739-77.309 19.795-33.549 36.244-63.213 28.104-66.39Z" fill="#2B2B37"/><path opacity=".25" d="M128.103 118.748c-.766-5.048-.539-9.047-.539-9.047s-1.248-.822-8.423-2.836c-4.991-1.389-21.78-6.721-30.77-9.16-4.282 6.324-10.918 3.29-15.286 4.254-7.629-1.701-12.705 2.524-12.705 2.524-3.687.255-7.77-6.55-12.677-4.594 3.545 7.232 10.153 14.463 21.866 12.507 13.017-2.184 51.104 1.616 58.534 6.352Z" fill="#2B2B37"/><path opacity=".25" d="M75.58 109.758c2.241-.425 4.425-1.078 6.665-.283 1.135.425 2.212.964 3.375 1.276 1.447.34 2.921.51 4.396.567 6.636.255 15.172-1.503 17.98-7.771-6.636-2.042-14.463-4.424-19.682-5.842-4.282 6.324-10.918 3.29-15.285 4.254-7.63-1.701-12.706 2.524-12.706 2.524-3.687.255-7.77-6.55-12.676-4.594 5.615 3.942 12.903 7.26 20.787 10.011 2.44.312 4.821.312 7.147-.142ZM70.135 139.904c-8.337 4.112-15.087 17.044-21.184 26.091-15.201 22.631-24.078 49.885-26.8 66.503 0 2.156.028 4.34.056 6.523.029 2.382.114 4.765.199 7.147.822 1.645 2.099 2.864 3.829 2.864 2.467.028 4.253-2.439 5.473-4.708 8.196-15.314 10.068-33.152 16.222-49.033 3.204-8.253 7.544-15.91 12.166-23.284 3.148-5.019 7.26-9.585 8.82-15.37.596-2.241 6.41-19.285 1.22-16.733ZM50.369 104.682s5.303 11.911 10.635 18.49c5.36 6.608 11.826 12.705 11.826 12.705l8.224-3.318s-9.614-3.346-16.278-9.614c-6.665-6.239-14.407-18.263-14.407-18.263Z" fill="#2B2B37"/><path d="M71.27 146.626c.993-1.05 2.042-2.042 3.063-3.063a162.46 162.46 0 0 0 7.118-7.516c-21.043-13.244-23-18.83-35.648-39.306-.17-.255.992 28.019 25.467 49.885Z" fill="#2B2B37"/><path d="M72.886 130.347a25.18 25.18 0 0 1-1.644 3.659c-1.447 2.609-3.29 5.104-5.502 7.146a72.641 72.641 0 0 0 5.558 5.474c.993-1.05 2.042-2.042 3.063-3.063a163.001 163.001 0 0 0 7.118-7.515 150.546 150.546 0 0 1-8.593-5.701Z" fill="#21212B"/><path d="M99.856 99.548c-2.949 11.571-71.296 73.707-77.648 136.665 0 .936.028 1.872.028 2.808.057 4.481.284 8.99.397 13.528h7.969c0-5.105.907-10.21 2.694-14.946 7.317-19.37 34.457-71.211 42.483-82.526 26.431-37.492 28.246-55.529 24.078-55.529Z" fill="#2B2B37"/><path d="M66.165 146.824c-6.948 7.827-12.762 16.817-17.129 26.573-.34.737-.652 1.503-.624 2.297.028.794.567 1.645 1.333 1.73.51.057 1.02-.198 1.446-.51 3.403-2.241 5.53-6.041 7.232-9.813 1.134-2.467 2.155-4.991 3.545-7.317 1.361-2.325 3.318-3.998 4.878-6.125 1.02-1.418 1.333-2.638 1.56-4.368.227-1.758.113-5.133-2.24-2.467Z" fill="#2B2B37"/><path opacity=".25" d="M56.75 124.42c1.957 2.808 3.006-.567 2.212-2.524-.68-1.645-1.844-3.46-3.233-4.623-.993-.822-1.929-1.276-2.326.227-.623 2.326 2.184 5.218 3.347 6.92ZM89.023 120.024c1.503-1.843-.964-1.928-2.099-1.021-.964.766-1.956 1.9-2.438 3.063-.37.823-.483 1.56.595 1.532 1.645 0 3.063-2.468 3.942-3.574ZM77.31 129.241a656.544 656.544 0 0 0-9.358 11.854c.227.539.794.823 1.928.681 3.687-.454 6.268-6.324 7.998-9.075 1.531-2.326.794-3.347-.567-3.46Z" fill="#464557"/><path opacity=".14" d="M22.605 116.054c-.142 2.098 1.503 4.367 3.601 4.14 3.262-.34 12.082-7.997 9.558-10.805-3.177-3.516-12.933 3.432-13.16 6.665ZM98.212 128.674c-.624-.369-4.424 2.098-2.44 3.686 1.164.908 3.092 0 3.149-2.07 0-.624-.199-1.304-.71-1.616Z" fill="#D8D8D8"/><path d="M105.844 121.335c-.318 5.741 2.157 11.279 5.245 16.187 3.775 5.98 20.196 24.434 8.166 33.725-1.656 1.283-3.737 2.056-5.165 3.566-2.294 2.43-2.306 6.131-1.29 9.216 1.01 3.031 12.401 18.972-1.921 31.476l-8.249-6.839c10.738-2.779 11.043-10.564 9.296-17.099-1.799-6.671-6.651-12.35-2.746-16.326 1.843-1.87 7.009-2.359 8.246-4.669 8.963-16.656-20.607-8.918-21.845-31.102-.3-5.538 1.17-11.018 2.689-16.379 5.032-17.729-.613-19.257-6.359-24.865-3.982-3.879-6.49-9.183-6.593-14.633-.103-5.45 2.243-10.981 6.515-14.656-3.755 26.356 15.63 23.583 14.011 52.398Z" fill="#74A352"/><path d="M99.058 95.746c-.491-.414-.98-.811-1.488-1.206-4.03-3.233-7.915-6.499-10.276-11.07-.692-1.32-1.182-2.676-1.561-4.062.83-3.96 2.939-7.706 6.104-10.435-2.038 14.216 2.707 19.958 7.22 26.773Z" fill="#568040"/><path d="M91.743 81.789c-1.43-2.35-2.918-5.086-3.911-7.941a18.685 18.685 0 0 1 4.001-4.91c-.797 5.645-.544 9.943.332 13.52-.134-.217-.286-.433-.422-.67Z" fill="#3E5C2E"/><path opacity=".49" d="M111.528 138.173c2.788 4.138 9.757 12.651 11.607 20.616-4.551-9.301-33.633-11.305-17.195-41.644a53.172 53.172 0 0 1-.096 4.19c-.318 5.741 2.157 11.279 5.245 16.187.111.168.223.352.353.535.022.033.064.083.086.116Z" fill="#AED888"/><path d="M103.808 115.682c-1.406 4.211-4.28 7.802-6.662 11.628.368-1.405.755-2.813 1.143-4.221 3.189-11.269 2.069-15.998-.644-19.378a13.658 13.658 0 0 1 3.113 1.722c1.944 1.464 3.39 3.581 3.638 5.923.162 1.46-.125 2.929-.588 4.326Z" fill="#3E5C2E"/><path opacity=".49" d="M110.817 141.818c-3.081-2.721-4.664-5.857-3.86-9.902a9.62 9.62 0 0 1 .468-1.54c.956 2.485 2.242 4.885 3.664 7.147 1.287 2.026 4.029 5.51 6.623 9.578-2.278-1.805-4.739-3.377-6.895-5.283Z" fill="#AED888"/><path d="M141.003 216.59c-5.167 1.424-13.253-4.433-10.328-15.661 6.064-23.323 5.948-31.903 1.804-46.174-2.514-8.668-.841 5.399-.841 5.399s.646 15.001-.042 19.919c-.67 4.919-3.143 18.432-3.531 22.929-.387 4.497.45 9.995 3.137 12.076 2.669 2.061 9.801 1.512 9.801 1.512Z" fill="#74A352"/><path d="M95.724 113.284c-5.17 31.758 21.912 25.252 29.51 30.252 1.813 1.201 3.269 2.881 4.445 4.75a23.126 23.126 0 0 1 2.871 6.72c.88 3.47.946 7.103.865 10.696-.185 9.02-1.145 18.05-3.246 26.796-3.716 15.566-2.397 16.316 8.51 28.41-9.607-3.692-11.11-10.55-10.996-18.297.111-7.572 13.679-63.243-15.1-58.399-1.129.276-2.202.475-2.609.567-15.397 3.249-28.227-7.013-17.906-34.303 2.46-6.538 8.622-21.263-.07-30.354 10.242 4.59 5.244 23.791 3.726 33.162Z" fill="#3E5C2E"/><path d="M112.583 144.231c-1.13.276-2.202.475-2.61.567-1.647.347-3.255.54-4.824.559.763-.493 1.526-1.005 2.325-1.478 1.934-1.155 4.293-2.324 6.758-3.163 4.512.809 8.677 1.266 11.003 2.801 1.812 1.201 3.268 2.881 4.445 4.75a23.14 23.14 0 0 1 2.87 6.72c.88 3.47.946 7.103.865 10.695-.184 9.021-1.145 18.051-3.245 26.797-3.717 15.566-2.397 16.316 8.51 28.41-9.608-3.693-11.111-10.551-10.997-18.297.129-7.533 13.678-63.204-15.1-58.361ZM95.724 113.284c-3.394 20.864 7.11 25.205 16.886 27.161-7.875 2.53-15.86 1.988-22.456-3.484-2.68-5.713-2.646-14.426 1.913-26.465 2.461-6.539 8.622-21.263-.07-30.354 10.243 4.57 5.245 23.771 3.727 33.142Z" fill="#568040"/><path d="M96.269 105.002a58.781 58.781 0 0 1-1.288 5.684c-1.06 3.658-2.835 6.901-5.013 9.927-.357.479-.734 1.093-1.166 1.706.542-3.51 1.606-7.458 3.247-11.823 1.144-3.02 3.048-7.769 3.942-12.897.541 2.518.752 4.859.278 7.403Z" fill="#3E5C2E"/><path d="M103.067 137.584c-3.274-.91-6.71-2.266-8.851-5.171-2.56-3.471-2.666-8.341-.902-12.222.493-1.095 1.17-2.072 1.92-3.01-1.077 12.468 3.562 18.032 9.617 20.869a31.582 31.582 0 0 1-1.784-.466Z" fill="#74A352"/><path d="M130.792 153.864c1.536 5.661.886 15.024.076 20.849.75-15.989-2.963-32.206-18.211-30.5 5.833-4.585 15.733.812 18.135 9.651Z" fill="#3E5C2E"/><path d="M47.162 72.012s-3.036 2.78-3.657 5.415c-.596 2.637 2.78 6.752 2.78 6.752l4.593-2.696-3.716-9.47Z" fill="#75A152"/><path d="M100.596 72.889s3.037 4.479 1.927 10.24c-1.103 5.755-5.983 7.145-5.983 7.145l-1.646-2.44 5.702-14.945Z" fill="#568040"/><path d="M89.37 88.49c.054 5.16-6.949 9.418-15.628 9.531-8.68.114-15.771-3.972-15.801-9.13-.03-5.16 6.949-9.418 15.628-9.531 8.65-.113 15.742 3.972 15.801 9.13Z" fill="#21212B"/><path d="M47.102 50.685a77.26 77.26 0 0 0-.28 4.538c-.084 2.356-.113 4.706.084 7.062.793 8.964 5.135 17.099 10.522 23.796a95.39 95.39 0 0 1-2.47-15.512c-.226-3.12-.31-6.298.114-9.388.626-4.568 2.356-8.874 3.12-13.413.399-2.355.542-4.735.68-7.12.142-2.44.286-4.88.453-7.319.173-2.922-1.277-5.445-3.573-2.862-1.617 1.789-3.007 3.858-4.2 6.011a37.354 37.354 0 0 0-4.45 14.207ZM97.906 50.065c.197 1.502.287 3.005.37 4.538.114 2.356.197 4.706.054 7.062-.626 8.987-4.796 17.242-10.04 24.047a95.369 95.369 0 0 0 2.154-15.596c.173-3.12.197-6.298-.28-9.388-.71-4.538-2.523-8.79-3.376-13.33-.454-2.325-.65-4.705-.824-7.09-.196-2.44-.4-4.88-.596-7.319-.227-2.922 1.163-5.475 3.52-2.952 1.646 1.76 3.09 3.77 4.312 5.899a37.878 37.878 0 0 1 4.706 14.123v.006Z" fill="#2B2B37"/><path d="M100.913 46.97c-.197-1.08-.71-2.13-1.534-2.667-1.193-.793-2.213-.763-3.066-.173-2.356-15.316-12.025-26.743-23.513-26.6-11.489.144-20.931 11.827-22.977 27.197-.877-.567-1.897-.567-3.066.256-.824.567-1.307 1.646-1.504 2.726-.173 1.08-.06 2.182.054 3.262.483 3.942 1.247 7.855 2.326 11.654.197.71.4 1.39.77 2.016.71 1.133 1.986 1.789 3.203 1.646.113-.03.227-.03.34-.054 3.973 11.087 12.139 18.632 21.468 18.518 9.335-.113 17.358-7.884 21.104-19.055.113.03.227.06.34.06 1.223.113 2.5-.567 3.18-1.73.37-.626.566-1.33.74-2.016a77.244 77.244 0 0 0 2.099-11.713c.113-1.133.197-2.242.03-3.316l.006-.012Z" fill="#D58500"/><path d="M87.468 30.097a76.73 76.73 0 0 1 4.992 1.789c-4.366-8.761-11.572-14.433-19.684-14.35-11.489.144-20.931 11.827-22.977 27.197-.877-.567-1.903-.567-3.066.256-.823.567-1.307 1.646-1.503 2.72-.167 1.08-.054 2.182.06 3.262.28 2.41.68 4.795 1.192 7.145.543-.34 1.104-.626 1.647-.877a25.436 25.436 0 0 1 2.863-1.163c1.05-20.844 13.385-33.607 36.476-25.98ZM71.81 51.478s10.808-1.05 18.89 1.103c8.053 2.153 8.96 2.47 8.96 2.47l-1.843 5.701-26.008-9.274Z" fill="#B45F00"/><path opacity=".36" d="M100.912 46.969c-.197-1.08-.71-2.13-1.533-2.666-1.193-.793-2.213-.763-3.066-.173a42.585 42.585 0 0 0-2.213-8.594c-.053-.113-.083-.227-.143-.34a30.648 30.648 0 0 0-.936-2.242c-.054-.144-.114-.257-.173-.4a3.05 3.05 0 0 0-.28-.537c-.084-.143-.144-.286-.227-.423a5.468 5.468 0 0 0-.28-.513c-.084-.143-.144-.287-.227-.424-.084-.173-.197-.34-.287-.512a9.918 9.918 0 0 0-.256-.424c-.084-.173-.197-.31-.28-.483-.084-.143-.173-.286-.257-.424-.084-.143-.197-.31-.28-.453-.084-.143-.197-.286-.287-.423-.083-.143-.197-.287-.28-.424-.113-.143-.197-.286-.31-.423-.084-.143-.197-.257-.287-.4a2.72 2.72 0 0 0-.37-.453c-.083-.113-.172-.227-.256-.34-.197-.256-.423-.513-.62-.74-.06-.06-.114-.143-.173-.196-.173-.197-.34-.37-.507-.537l-.257-.256a7.93 7.93 0 0 1-.423-.454c-.084-.083-.197-.173-.28-.286-.144-.143-.281-.286-.424-.4-.084-.083-.197-.173-.28-.256a4.666 4.666 0 0 0-.424-.37c-.113-.083-.197-.173-.31-.256-.143-.114-.31-.257-.454-.37-.083-.084-.196-.143-.286-.227-.167-.113-.31-.226-.483-.34-.084-.06-.197-.143-.28-.197-.173-.113-.34-.226-.507-.34-.084-.06-.173-.113-.257-.172-.197-.114-.394-.257-.62-.37-.06-.03-.114-.084-.173-.114a24.063 24.063 0 0 0-1.647-.852c-.03-.03-.083-.03-.113-.054-.227-.113-.483-.197-.71-.286-.083-.03-.143-.06-.226-.084-.197-.083-.424-.143-.627-.226a2.094 2.094 0 0 0-.286-.084c-.197-.06-.394-.113-.596-.173-.084-.03-.197-.054-.287-.083-.197-.054-.394-.084-.596-.143-.06 0-.114-.03-.143-.03h.03a18.674 18.674 0 0 0-3.8-.4c-11.489.143-20.931 11.827-22.977 27.196-.877-.567-1.903-.567-3.066.257-.824.566-1.307 1.646-1.504 2.72-.173 1.079-.053 2.182.054 3.261.286 2.41.68 4.796 1.193 7.145.537-.34 1.103-.626 1.646-.876 1.39-.65 2.81-1.193 4.283-1.617.966-.286 1.957-.566 2.947-.763v-.256C54.05 9.038 119.63 35.04 82.42 67.599c-2.553 2.242-5.733 3.542-8.763 4.795-3.656 1.533-7.629 2.922-11.572 3.065-1.903.054-3.77-.226-5.643-.65 4.367 6.269 10.469 10.127 17.162 10.038 9.329-.114 17.358-7.885 21.104-19.055.113.03.226.053.34.053 1.223.114 2.5-.566 3.18-1.73.369-.625.566-1.33.739-2.015a77.107 77.107 0 0 0 2.099-11.714c-.059-1.246.03-2.355-.143-3.429l-.012.012Z" fill="#B45F00"/><path d="M100.913 46.97c-.197-1.08-.71-2.13-1.533-2.667-1.193-.793-.424-2.469-1.307-1.902-.507-3.233-2.356-5.982-4.593-8.279l-3.036-.65c6.58 8.082 7.713 20.958 1.986 29.07-1.956 2.749-2.47 1.419-5.386 2.582-1.05.423-2.153.68-3.263.936-.483.513-.966.966-1.503 1.42-2.577 2.182-5.732 3.542-8.763 4.794-3.662 1.533-7.629 2.923-11.572 3.066-1.896.06-3.77-.227-5.642-.65 4.366 6.268 10.462 10.127 17.16 10.038 9.336-.114 17.359-7.885 21.105-19.056.113.03.227.06.34.06 1.217.113 2.493-.567 3.173-1.73.37-.626.567-1.336.74-2.015a77.233 77.233 0 0 0 2.1-11.714c.083-1.103.173-2.213 0-3.292l-.006-.012Z" fill="#B45F00"/><path opacity=".36" d="M81.508 51.508c-1.36-.966-.996-10.491-.906-10.777l-1.873-.71c-3.09 6.525-3.174 10.18-3.174 16.05 0 .453 2.07.536 2.243.965.144.4.37.74.597 1.05.65.823 1.563 1.503 2.523 1.563.996.053 2.04-.597 2.326-1.676.084-.4.084-.793.054-1.193-.173-1.73-1.587-5.135-1.79-5.272Z" fill="#B45F00"/><g opacity=".36" fill="#E2A040"><path opacity=".36" d="M66.906 33.753c0 .286.084.566.227.823.37.71 1.02 1.193 1.7 1.503.173.083.37.143.566.113 1.79-.227-.423-2.666-1.05-2.976-.566-.286-1.42-.453-1.443.537ZM59.044 44.393c.197-.4.967-.424 1.277-.34.37.083.823.113.906.626.054.513-.4.793-.793.793-.31 0-1.133-.143-1.306-.483-.143-.256-.167-.453-.084-.596ZM81.711 45.33c0-.424.65-.878.99-.991.37-.113.77-.34 1.05.06.28.423 0 .906-.34 1.103-.257.173-1.05.483-1.366.286-.257-.113-.34-.286-.34-.453l.006-.006ZM57.6 50.798c.34.03.68-.197.877-.483.084-.143.174-.286.174-.453a.602.602 0 0 0-.054-.227c-.227-.596-1.104-.71-1.533-.34-.627.483-.114 1.473.537 1.503ZM89.794 50.261c.34.03.68-.197.877-.483.083-.143.172-.286.172-.453a.604.604 0 0 0-.053-.227c-.227-.596-1.104-.71-1.533-.34-.597.454-.084 1.473.537 1.503Z"/></g><path opacity=".36" d="M71.326 44.506c-1.676-5.415-11.035-5.731-16.081-5.445-.227 0-.454.03-.627.173-.053.03-.083.083-.113.143-.054.197.143.34.286.423 10.296 4.48 14.042 4.652 14.042 8.278 0 4.456-3.603.764-22.124 7.801l2.81 9.441a212.887 212.887 0 0 0 8.935-3.769c10.922-4.908 16.111-6.495 12.878-17.045h-.006Z" fill="#B45F00"/><path d="M67.998 40.033c-.746-.382-6.604-1.855-13.207 1.026a.324.324 0 0 0-.16.053c-.03 0-.054.036-.078.066h-.054c-.137.054-.066.364.066.286.077-.041.19-.083.268-.125 6.317-1.718 8.882 2.523 12.646 1.604 1.3-.334 2.004-2.182.525-2.91h-.006Z" fill="#323147"/><path opacity=".36" d="M87.64 41.924c-.083.06-.173.113-.256.173-1.45 1.08-2.923 2.153-4.736 1.843-2.1-.34-4.54-2.893-3.89-3.573.197-.197 1.593-.113 1.844-.173a32.378 32.378 0 0 1 3.233-.596c1.05-.143 2.1-.31 3.15-.287 1.759.03 3.542.054 5.272.31.227.03.424.084.597.227.03.03.083.084.083.143.054.197-.173.34-.31.4-1.05.37-2.183.173-3.233.513-.626.226-1.193.626-1.76 1.02h.006Z" fill="#B45F00"/><path d="M79.975 42.967c3.788.9 6.246-3.375 12.58-1.7.084.03.197.066.275.126.137.065.209-.215.071-.28l-.053-.03c-.024-.03-.024-.06-.054-.06-.054 0-.113-.036-.167-.036-6.675-2.803-12.46-1.306-13.218-.918-1.456.721-.698 2.576.566 2.898Z" fill="#323147"/><path opacity=".36" d="M66.787 47.792c-1.05-3.316-6.98-2.863-4.653-3.829.257-.083 3.996-.197 4.653 3.83Z" fill="#B45F00"/><path d="M56.748 78.734c-.197-.144-3.663-1.05-3.663-.823 0 .226 2.72 7.824 2.923 8.14.197.31 5.303 4.342 5.303 4.342s3.263-2.922 3.263-3.149c0-.226-.4-2.606-.4-2.606l-7.432-5.898.006-.006Z" fill="#21212B"/><path d="M97.536 73.825c1.67-4.252 2.834-17.641 2.834-17.641-27.57-6.978-27.058-6.978-54.455.68 0 0 .424 3.882 1.074 8.11.543 1.05 1.193 2.1 1.676 3.09.937 1.873 1.903 3.686 2.81 5.559.793 1.645 1.616 3.262 2.553 4.818.083.114.197.227.286.34 2.72 3.316 6.663 5.386 10.266 7.235a18.36 18.36 0 0 0 3.746 1.42c3.913.053 7.999-.03 11.882-.198 4.056-.74 8.112-1.789 11.829-3.799 1.503-.823 2.81 1.473 1.67 2.493 1.903-.34 3.52-.71 4.682-1.163l-.053-4.652c-1.193-1.586-1.927-3.375-.794-6.298l-.006.006Z" fill="#464558"/><path d="M97.536 73.825c1.67-4.252 2.834-17.642 2.834-17.642-12.903-3.262-19.655-5.021-25.978-5.158-.256.99-.566 1.986-.906 2.952-.877 2.38-2.154 4.706-4.057 6.381-2.183 1.957-5.249 3.066-8.142 3.036-4.313-.06-6.156-4.282-6.21-9.077-1.616.453-7.318 2.04-9.191 2.552 0 0 .423 3.883 1.08 8.112.542 1.05 1.192 2.099 1.675 3.089.937 1.873 1.897 3.686 2.81 5.558.793 1.647 1.616 3.263 2.553 4.82.083.113.197.226.28.34 2.726 3.315 6.67 5.385 10.266 7.234a18.36 18.36 0 0 0 3.746 1.42c3.913.053 7.999-.03 11.882-.198 4.056-.74 8.113-1.789 11.829-3.799 1.503-.823 2.81 1.473 1.67 2.493 1.903-.34 3.52-.71 4.682-1.163l-.053-4.652c-1.163-1.586-1.903-3.375-.764-6.298h-.006Z" fill="#323147"/><path d="M48.695 68.07c.937 1.873 1.903 3.686 2.81 5.558.793 1.646 1.616 3.263 2.552 4.82.084.113.197.226.287.34 2.72 3.315 6.663 5.385 10.265 7.234 1.247.626 2.5 1.103 3.747 1.42 1.7.029 3.406.029 5.135 0-.143-.06 4.253-2.47 4.11-2.524-3.686-1.532-16.421 2.523-23.597-18.351a55.085 55.085 0 0 1-2.47-10.467l-.083-.763c-2.1.596-4.456 1.246-5.53 1.532 0 0 .424 3.883 1.074 8.112.567 1.079 1.223 2.099 1.7 3.089Z" fill="#2B2B37"/><path d="M74.535 87.411a.638.638 0 0 0 .144-.226c.823-1.217 1.443-2.583 1.7-4.056.28-1.646.113-3.316-.227-4.908-.31-1.473-.793-2.923-.907-4.426-.113-1.33.227-2.606.74-3.858.507-1.217 1.163-2.356 1.503-3.632.257-.99.394-2.04.31-3.066-.053-1.05-.34-2.183-1.103-2.952-.65-.68-2.07-1.276-2.947-.65-.74.513-.823 1.7-.907 2.523-.113 1.103-.31 2.153-.793 3.178-.543 1.193-1.33 2.243-2.04 3.316-.823 1.247-1.533 2.583-1.843 4.056-.65 2.893.173 5.642 1.646 8.111 1.133 1.873 2.44 3.77 2.977 5.928.06.227.083.424.143.65.567.03 1.103.03 1.616 0l-.012.012Z" fill="#2B2B37"/><path d="M97.536 73.825c1.67-4.252 2.834-17.641 2.834-17.641.03-.37-11.942-2.976-13.249-3.263-3.066-.68-6.436-1.586-9.585-1.7.03 2.667-.77 6.466 1.79 8.368.506.37 1.103.626 1.616.966 2.953 1.956 2.553 6.322.31 7.742-.907.566-2.38.876-1.36 2.38.537.763 1.36 1.33 2.04 1.926.567.483 1.247 1.05 1.444 1.813a2.33 2.33 0 0 1-.257 1.7c1.927 4.622-8.99 11.176-24.564 6.41 1.957 1.33 4.056 2.44 6.043 3.46 1.246.626 2.5 1.103 3.746 1.42 3.913.053 7.999-.03 11.882-.197 4.056-.74 8.112-1.79 11.829-3.8 1.503-.823 2.81 1.474 1.67 2.493 1.903-.34 3.52-.71 4.682-1.162l-.06-4.652c-1.216-1.563-1.956-3.346-.823-6.269l.012.006Z" fill="#2B2B37"/><path d="M97.536 73.825c1.67-4.252 2.834-17.642 2.834-17.642.03-.453-5.506-1.532-5.96-1.616-.763-.173-1.532-.37-2.326-.536-.28-.06-.793-.287-1.08-.257-.399.06-.423.4-.626.74-.853 1.532-1.563 2.665-1.473 4.538v.197c.113 1.73.71 3.376 1.103 5.046.257 1.05.454 2.129.34 3.178-.37 3.406-3.543 5.702-4.849 8.851-.4.966-.596 2.016-1.133 2.922-1.02 1.7-3.007 2.523-4.313 3.996-.65.74-1.133 1.646-1.927 2.213-.906.65-2.07.764-3.18.71-.876-.03-1.872-.31-2.72-.173-.31.06-5.499 1.336-11.941-2.296 3.83 7.574 14.525 4.395 18.348 3.769 4.593-.763 9.216-1.79 13.416-4.085 1.586-.877 2.976 1.813 1.39 2.695-.03.03-.084.03-.114.06 2.07-.453 3.8-.936 5.076-1.39l-.06-4.652c-1.216-1.562-1.956-3.345-.823-6.268h.018Z" fill="#21212B"/><path d="M90.444 75.501c-.99 2.72-2.1 5.386-3.573 7.825a33.32 33.32 0 0 1-4.91 6.268c-.876.877-1.872 1.587-2.636 2.607-.4.512-.763 1.05-1.163 1.502l.03 1.7a157.632 157.632 0 0 0 17.161-1.276c.764-1.473 1.617-2.922 2.267-4.455.71-1.646 1.39-3.406 1.813-5.16l.084-.31c-3.12-9.87 16.648-51.839-7.606-71.294-13.558-10.86-23.907-9.81-36.052-.566-25.984 19.794-5.136 62.76-8.31 72.63-.113.37-.28.74-.453 1.08.627 1.759 1.444 3.405 2.297 5.021.65 1.193 1.276 2.41 1.956 3.573.03.053.084.143.114.197 5.756 1.36 14.524 4.819 19.201 4.908 2.267.03 2.923-.483 2.153-3.43l-1.193.03-.03-1.872-.34-.34a9.65 9.65 0 0 0-2.833-2.07C59.97 87.954 55.74 77.547 52.876 69.042c-3.889-11.54-3.686-26.886 1.927-33.524 9.556-11.26 26.604-11.63 36.476-.4 6.639 7.545 9.419 20.278.06 37.86-.31.853-.597 1.676-.907 2.523h.012Z" fill="#464558"/><path d="M47.812 80.72c.114 1.76.054 3.202-.28 4.252-.113.37-.28.74-.453 1.08.626 1.759 1.443 3.405 2.296 5.021.65 1.193 1.277 2.41 1.957 3.573.03.06.083.143.113.197 5.756 1.36 14.519 4.819 19.201 4.908 1.67.03 2.47-.257 2.47-1.616-15.002-8.368-22.494-6.549-25.304-17.415Z" fill="#323147"/><path opacity=".32" d="M96.743 90.614a63.337 63.337 0 0 0 1.986-4.509c.28-.71.454-1.473.68-2.212-2.243-8.762 11.089-39.703.74-60.69.34 3.631.059 7.258-1.05 10.717-.877 2.779-2.183 5.415-3.686 7.825 3.12 7.574 2.922 18.035-4.086 31.221-.31.853-.597 1.676-.907 2.523-.99 2.72-2.1 5.386-3.573 7.825a33.32 33.32 0 0 1-4.91 6.268c-.876.877-1.872 1.587-2.636 2.607-.626.853-1.223 1.73-2.07 2.326v.876c5.96-.083 11.912-.483 17.812-1.276.596-1.163 1.133-2.326 1.7-3.519v.018ZM89.567 29.673c-.197-2.129-1.473-4.168-3.006-5.385-1.33-1.08-2.977-1.503-4.593-1.587-3.377-.172-6.663.937-10.01 1.193-1.903.143-3.746-.286-5.642-.453-2.243-.227-4.254.31-5.983 2.016-1.617 1.616-2.81 3.686-4.2 5.528-1.36 1.79-3.006 3.233-4.51 4.85-1.39 1.502-2.72 3.118-3.686 5.021a16.018 16.018 0 0 0-1.163 3.066c-.31 1.216-.483 2.492-.763 3.715-.597 2.553-1.474 5.022-1.844 7.598-.166 1.247-.166 2.47-.166 3.716 1.02 6.435 2.38 12.363 3.173 17.099.4.74.823 1.45 1.246 2.153 1.164 1.926 2.44 3.829 3.12 6.041.65 2.04.74 4.366.084 6.412a9.572 9.572 0 0 1-1.277 2.582h.71l.03 1.533c5.416 1.217 12.365 4.879 17.441 4.932 1.587.03 3.263-.226 4.2-1.42.227-.285.31-1.079.143-1.842l-1.33.03-.03-2.016c-.084-.084-.167-.197-.28-.286a9.596 9.596 0 0 0-2.84-2.07C59.94 87.99 52.31 78.513 49.446 70.01c-3.883-11.541-.28-27.823 5.333-34.455 8.852-10.467 24.194-11.517 34.233-2.606.483-1.02.68-2.13.567-3.263l-.012-.012Z" fill="#323147"/><path d="M49.375 44.757c-.34 1.192-.31 2.409-.37 3.632 0 .196-.03.423-.03.65.71-3.263 1.73-6.322 2.953-8.875-.996 1.473-2.07 2.863-2.553 4.593Z" fill="#464558"/><path d="M97.453 90.704c.71-1.814 1.503-3.603 2.07-5.475.053-.173.113-.34.167-.537-.054-.114-.084-.257-.143-.37-1.647-4.795 2.439-17.582 4.026-31.675-1.223 6.465-6.836 24.84-6.95 25.097-.506 1.306-1.133 2.636-1.926 3.745-.71 1.02-1.676 1.616-2.636 2.296-.627.424-1.223.907-1.587 1.617-.257.483-.37 1.02-.483 1.562-.227 1.08-.454 2.153-1.104 3.006-.62.793-1.473 1.276-2.326 1.7-1.193.596-2.38 1.133-3.663 1.449-1.533.37-3.036.4-4.563.4-.4.453-.793.876-1.336 1.163-.423.256-4.026 3.375-4.45 3.632 6.836 0 16.255-2.863 23.544-4.253.453-1.05.907-2.212 1.36-3.346v-.011Z" fill="#323147"/><path d="M54.821 35.488c7.26-8.564 18.891-10.83 28.364-6.465-.764-.513-1.527-1.02-2.213-1.646-.483-.453-.823-.537-1.444-.65-.28-.06-.507-.113-.77-.256-.846-.424-1.67-.907-2.576-1.193-.4-.113-.794-.227-1.223-.31-.054 0-.113 0-.173-.03-1.193-.113-2.38-.31-3.573-.34-1.217-.054-2.41.286-3.633.31-1.33.06-2.47.06-3.602.907-.907.68-1.73 1.42-2.667 2.015-1.956 1.247-3.972 2.356-5.505 4.313a11.895 11.895 0 0 0-1.73 3.065c-.114.257-1.05 2.553-1.76 3.376-13.958 15.709-2.893 59.64 20.901 58.9.197-1.389-1.473-2.892-1.843-3.315-.907-.967-1.986-1.7-3.12-2.267-8.392-4.139-12.735-14.266-15.598-22.717-3.376-9.984-4.313-22.83 0-30.601.65-.877 1.73-2.553 2.153-3.09l.012-.006Z" fill="#323147"/><path d="M43.929 40.564c3.292-2.267 6.496-4.849 9.108-8.081 2.81-3.49 5.047-7.658 6.52-12.054 1.05-3.09 1.676-6.322 1.7-9.644 0-.68 0-1.336-.053-2.016a50.845 50.845 0 0 0-5.363 3.603c-9.729 7.43-12.908 18.119-13.218 29.069.453-.31.876-.597 1.3-.877h.006Z" fill="#575770"/><path opacity=".25" d="M72.716 24.002a.486.486 0 0 1-.453-.31c-.68-1.73-.424-3.603-.197-5.386.173-1.247.31-2.523.173-3.716a11.57 11.57 0 0 0-.257-1.33c-.083-.34-.173-.71-.226-1.08-.34-1.955-.084-3.995.143-5.814.03-.31.286-.513.543-.453.256.03.453.31.423.626-.227 1.813-.453 3.656-.143 5.445.054.34.143.65.197.99.113.453.227.936.28 1.443.173 1.336 0 2.696-.173 4.026-.226 1.73-.423 3.346.143 4.819.114.286 0 .596-.256.71-.054.03-.143.03-.197.03Z" fill="#2B2B37"/><path d="M90.897 34.266a19.406 19.406 0 0 0-3.203-2.523c1.277.966 2.494 2.1 3.603 3.375 6.64 7.545 9.389 20.248.06 37.83-.31.853-.627 1.7-.937 2.553-.99 2.72-2.1 5.386-3.573 7.825a25.613 25.613 0 0 1-1.873 2.75c5.9-5.53 10.892-12.167 13.356-20.475 3.746-12.364.083-24.023-7.433-31.335Z" fill="#575770"/><path d="M102.273 65.828c-.227-1.843-.173-3.686.029-5.53h-.083l-1.134 6.013a112.87 112.87 0 0 0-3.346 11.796c-.256 1.104-.483 2.213-.853 3.293-1.223 3.715-3.686 6.691-6.126 9.584.4.483 1.104.37 1.67.173a15.12 15.12 0 0 0 5.846-3.686c.567-.567 1.133-1.217 1.42-2.016.65-1.73.06-3.745.483-5.558.31-1.36 1.163-2.47 1.759-3.716.764-1.563 1.134-3.346 1.074-5.135-.054-1.79-.507-3.489-.739-5.219Z" fill="#323147"/><path d="M47.842 70.11c-.453-3.972-1.08-7.938-1.7-11.88-.286-1.927-.597-3.86-.877-5.756-.197-1.276-.4-2.553-.71-3.8h-1.67c.227 1.987.567 3.973.74 5.87.28 3.316.37 6.691-.143 10.013-.28 1.76-.71 3.602-.114 5.249.227.65.597 1.192.937 1.789 1.587 2.779 2.38 6.125 2.183 9.417-.054.99-.197 2.016.03 2.976.793 3.632 7.545 9.924 9.645 9.787-3.77-5.385-7.802-19.282-8.309-23.653l-.012-.012Z" fill="#464558"/><path d="M46.512 80.237c0 .256 0 .483-.03.74-.054.99-.197 2.015.03 2.975.793 3.632 7.546 9.924 9.645 9.781-.876-1.246 5.816.937 4.623-.99-4.48-2.72-8.309-2.326-14.268-12.506Z" fill="#323147"/><path d="M48.409 75.132c-.197-1.676-.37-3.346-.567-5.022-.453-3.972-1.08-7.938-1.7-11.88-.286-1.927-.597-3.86-.877-5.756-.197-1.276-.4-2.553-.71-3.8h-1.67c.227 1.987.567 3.973.74 5.87.28 3.316.37 6.691-.143 10.013-.28 1.76-.71 3.602-.114 5.249.227.65.597 1.192.937 1.789.483.823.877 1.7 1.193 2.606.936-.763 2.47-.626 2.923.936l-.012-.005Z" fill="#464558"/><path d="M42.909 93.053c.507 1.676 1.473 3.12 2.44 4.569 1.02 1.503 2.04 3.065 3.46 4.169 1.42 1.133 3.149 1.759 4.879 2.296a54.377 54.377 0 0 0 12.568 2.326c3.86.256 7.713.083 11.542.65 2.893.423 5.816 1.246 8.739.966 1.986-.197 3.913-.906 5.756-1.7 3.006-1.33 5.983-3.006 8.112-5.618 2.1-2.606 3.204-6.298 2.1-9.5-.256-.764-.823-1.617-1.616-1.563-.484.03-.877.423-1.247.763-5.816 5.785-13.159 10.264-21.188 10.974-2.016.173-4.026.113-6.012.03-1.503-.054-3.007-.113-4.486-.453-2.04-.483-3.913-1.503-5.9-2.13-2.045-.626-4.223-.822-6.239-1.586-3.86-1.473-6.663-4.908-9.305-8.165-1.05-1.306-1.33-2.725-2.07-4.055-1.873 1.956-2.297 5.475-1.533 8.027Z" fill="#75A152"/><path opacity=".37" d="M102.469 91.18c-.256-.763-.823-1.616-1.616-1.562-.483.03-.877.424-1.247.764-5.816 5.785-13.158 10.264-21.187 10.973-2.016.173-4.027.114-6.013.03-1.503-.054-3.006-.113-4.486-.453-1.443-.34-2.81-.966-4.2-1.503 1.164 2.153 1.588 4.735.144 6.721.793.084 1.563.173 2.356.197 3.86.257 7.713.084 11.543.65 2.892.424 5.815 1.247 8.732.966 1.987-.196 3.913-.906 5.762-1.699 3.007-1.33 5.983-3.006 8.113-5.612 2.099-2.553 3.203-6.269 2.099-9.471Z" fill="#568040"/><path d="M102.469 91.187c-.256-.764-.823-1.617-1.616-1.563-.483.03-.877.423-1.247.763-5.816 5.785-13.159 10.265-21.188 10.974-2.016.173-4.026.114-6.012.03-1.503-.054-3.007-.113-4.486-.453-2.04-.483-3.913-1.503-5.9-2.13-2.045-.626-4.228-.822-6.239-1.586-3.859-1.473-6.663-4.908-9.305-8.165-1.05-1.306-1.33-2.725-2.07-4.055a7.809 7.809 0 0 0-.71.906c.34 2.213 1.82 4.2 2.726 6.155 1.104 2.47 1.79 5.135 3.603 7.175 1.676 1.873 3.8 2.863 6.186 3.233 1.193.173 2.41.196 3.603.369 1.163.173 2.296.483 3.46.68 1.276.197 2.552.227 3.829.424 1.276.173 2.523.399 3.8.536 1.193.144 2.35.287 3.519.567 1.33.31 2.636.68 3.996.793 2.357.197 4.91.31 7.236-.143 1.276-.256 2.523-.71 3.8-1.02.566-.143 1.163-.226 1.73-.399.483-.143.936-.37 1.42-.454.906-.143 1.675.34 2.266 1.104 2.07-1.104 3.973-2.493 5.446-4.312 2.153-2.523 3.263-6.239 2.153-9.441v.012Z" fill="#568040"/><path d="M49.405 95.04c.423 1.246.877 2.552 1.76 3.542.995 1.08 2.439 1.676 3.8 2.016 2.779.71 5.761.763 8.565 1.079 2.47.257 4.82.143 7.176-.31a18.02 18.02 0 0 1-2.78-.37c-2.04-.483-3.913-1.502-5.9-2.123-2.04-.626-4.223-.823-6.239-1.586-3.15-1.193-5.589-3.716-7.826-6.382.597 1.33.99 2.75 1.444 4.14v-.007ZM75.865 103.24c1.677.68 3.46.763 5.25.65 1.79-.113 3.632-.227 5.392-.567 1.617-.31 3.173-.709 4.79-.936 1.646-.256 3.263-.453 4.766-1.193 1.217-.596 2.523-1.276 3.49-2.296 1.103-1.163 1.443-2.75 1.67-4.312.226-1.586-.054-3.292.143-4.849a.813.813 0 0 0-.507-.083c-.483.03-.877.423-1.247.763-5.816 5.785-13.159 10.264-21.188 10.974-1.843.173-3.686.113-5.559.054.99.65 1.927 1.366 3.006 1.789l-.006.006Z" fill="#3E5C2E"/><path d="M62.707 96.286c2.81.453 33.016 6.238 38.576-16.646.28-1.133.28.054 1.419.084 1.927 18.804-17.895 26.915-36.136 23.17-29.866-6.095-23.74-31.168-21.3-25.496.966 2.296-.424 15.995 17.447 18.888h-.006Z" fill="#75A152"/><path d="M62.707 96.286c2.81.453 33.016 6.238 38.576-16.646.28-1.133.28.054 1.419.084 1.927 18.804-17.895 26.915-36.136 23.17-29.866-6.095-23.74-31.168-21.3-25.496.966 2.296-.424 15.995 17.447 18.888h-.006Z" fill="#75A152"/><path d="M45.689 85.485a20.273 20.273 0 0 1-.31-3.46c-.084-.822-.173-1.902-.68-2.582-.054-.083-.144-.173-.227-.197-.173-.06-.34.03-.453.144-.114.143-.144.31-.173.483-.114.966.37 1.873.566 2.809.167.763.114 1.586.143 2.38.03.793.114 1.616.513 2.296.114.197.257.37.483.4.227 0 .424-.198.454-.424.054-.227 0-.483-.054-.71a9.848 9.848 0 0 1-.256-1.133l-.006-.006ZM49.202 93.256c0 .084 0 .173.03.227.06.173.256.256.423.31.114.03.227.083.31.083.114 0 .227-.03.28-.143.055-.06.055-.143.055-.226 0-.197-.03-.424-.144-.597-.37-.453-.876-.197-.966.34l.012.006Z" fill="#AED888"/><path d="M76.772 98.815c-.423 0-.877.03-1.306.143-1.956.453-4.54.906-5.446 2.183-.37.507-.513 1.419.37 1.676.906.256 1.843-.37 2.47-1.104.65-.769.71-1.503 6.066-1.193l-2.154-1.7v-.005Z" fill="#568040"/><path opacity=".37" d="M102.696 79.73c-1.133-.03-1.133-1.217-1.42-.084-4.85 19.938-28.363 18.119-36.219 17.016 2.1.71 4.223 1.216 6.27 2.129 1.789.823 3.686 1.759 4.962 3.346.4.483.68 1.019.877 1.586 14.465-.626 27.087-8.85 25.53-23.993Z" fill="#568040"/><path d="M54.505 96.375c4.116 2.553 9.108 2.72 13.755 3.066 10.606.823 26.067 4.538 29.694-7.288.227-.794 5.816-1.873 4.736-12.447-1.133-.03-1.133-1.217-1.42-.084-5.559 22.884-35.766 17.1-38.575 16.646-7.856-1.276-12.002-4.622-14.239-8.195 1.05 3.43 3.204 6.525 6.043 8.308l.006-.006Z" fill="#568040"/><path d="M60.464 96.429c2.016.37 4.056.4 6.072.423-1.956-.226-3.346-.483-3.86-.566-4.849-.793-8.255-2.356-10.718-4.282 2.267 2.355 5.476 3.858 8.506 4.425ZM76.062 97.449c4.88.483 9.843.596 14.442-1.503 1.08-.483 2.183-1.133 3.066-1.956.793-.764 1.3-1.76 2.183-2.47 1.616-1.305 3.603-1.812 4.736-3.715 1.276-2.153.143-4.592-.453-7.061-.77 10.717-16.052 16.419-25.924 16.532.68.054 1.306.113 1.956.173h-.006Z" fill="#3E5C2E"/><path d="M43.9 92.433c.196.257.482.453.65.74.172.34.172.71.196 1.103.03.37.143.793.424.99.197.143.453.143.68.143.083 0 .173 0 .226-.053a.792.792 0 0 0 .197-.227c.567-1.08-.197-2.839-.907-3.656-.28-.34-1.02-1.193-1.473-.907-.596.34-.28 1.503 0 1.873l.006-.006Z" fill="#AED888"/><path d="M72.096 99.292c-.853 0-1.67.113-2.494.31-.853.197-1.73.537-2.243 1.276a.997.997 0 0 0-.143.31c-.053.31.197.627.483.71.28.084.597 0 .877-.113 1.08-.424 1.957-1.306 3.09-1.444.454-.053.937.03 1.39.06.453.03.966.03 1.36-.197.227-.113.65-.453.65-.74-.03-.31-.453-.172-.626-.172-.793.053-1.587 0-2.356 0h.012Z" fill="#568040"/><path d="M62.707 48.562c-3.442 0-6.186-1.599-6.347-1.694a.446.446 0 0 1-.155-.615c.125-.214.4-.28.614-.155.048.03 5.088 2.959 9.825.704a.449.449 0 0 1 .596.209.449.449 0 0 1-.209.596 10.012 10.012 0 0 1-4.318.955h-.006ZM84.497 48.83a8.7 8.7 0 0 1-4.51-1.24.446.446 0 0 1-.155-.615c.126-.215.4-.28.615-.155 4.629 2.755 9.323-.43 9.37-.465a.443.443 0 0 1 .621.113.442.442 0 0 1-.113.62c-.036.024-2.565 1.742-5.828 1.742Z" fill="#323147"/></g></svg>