<svg width="150" height="150" viewBox="0 0 150 150" fill="none" xmlns="http://www.w3.org/2000/svg">
    <mask id="mask0_4782_30946" style="mask-type:alpha" maskUnits="userSpaceOnUse" x="0" y="0" width="150" height="150">
        <circle cx="75" cy="75" r="75" fill="#C4C4C4"/>
    </mask>
    <g mask="url(#mask0_4782_30946)">
        <path d="M75.5673 153.814C118.43 153.814 153.178 118.528 153.178 75C153.178 31.4725 118.43 -3.81354 75.5673 -3.81354C32.7042 -3.81354 -2.0433 31.4725 -2.0433 75C-2.0433 118.528 32.7042 153.814 75.5673 153.814Z" fill="#E3F7FF"/>
        <path d="M59.2236 62.18C60.7536 60.6212 61.6687 58.388 60.8569 56.3646C60.3994 55.1705 59.4794 54.2862 58.4118 53.6117C55.0466 51.3784 50.5597 51.3784 46.737 52.6275C42.9142 53.9265 39.5491 56.3146 36.2331 58.7527C39.6475 55.6901 43.116 52.4676 44.9511 48.2109C46.737 43.9542 46.2745 38.3436 42.7076 35.5408C39.4458 32.9978 34.8555 33.4624 30.8803 34.5016C22.8265 36.58 15.2795 40.5269 8.85906 45.8727C4.67719 49.35 -3.52915 56.1048 -4.44916 62.18H59.2236Z" fill="#FCFCFC"/>
        <path d="M121.002 34.047C122.099 32.9279 122.763 31.3241 122.173 29.8653C121.843 29.0059 121.184 28.3714 120.411 27.8868C117.991 26.2831 114.768 26.2831 112.018 27.1774C109.268 28.1116 106.852 29.8253 104.471 31.5789C106.926 29.3756 109.416 27.0625 110.739 24.0048C112.023 20.9422 111.693 16.9154 109.125 14.8969C106.779 13.0684 103.482 13.4031 100.624 14.1525C94.8332 15.6463 89.4115 18.4841 84.7967 22.3261C81.7907 24.8292 75.8918 29.6804 75.2325 34.047H120.997H121.002Z" fill="#FCFCFC"/>
        <path d="M143.845 69.3544C144.573 68.6149 145.006 67.5558 144.622 66.5915C144.406 66.022 143.968 65.6023 143.461 65.2825C141.862 64.2234 139.732 64.2234 137.916 64.8129C136.101 65.4274 134.502 66.5665 132.928 67.7256C134.551 66.2718 136.199 64.738 137.07 62.7195C137.916 60.6961 137.7 58.0332 136.003 56.6992C134.453 55.4902 132.273 55.71 130.384 56.2046C126.557 57.1938 122.97 59.0674 119.92 61.6054C117.932 63.2591 114.036 66.4666 113.598 69.3544H143.85H143.845Z" fill="#FCFCFC"/>
        <path d="M47.3628 111.261C39.252 101.505 15.9686 109.248 8.62345 114.636C0.200607 120.818 -5.01757 128.901 -8.42075 137.948C-9.10138 139.394 -9.7253 140.869 -10.3776 142.315C-12.8732 147.987 -15.142 153.744 -16.8436 159.728C-18.5452 165.74 -19.5094 171.809 -19.9064 178.048C-20.105 181.196 -20.2468 184.372 -20.814 187.464C-21.3812 190.526 -22.4588 193.221 -23.9335 195.971C-24.5575 197.162 -25.2097 198.382 -25.5217 199.715C-25.8904 201.275 -25.7769 202.863 -25.862 204.451C-26.0038 207.259 -26.8546 209.953 -28.0741 212.448C-46.9616 251.244 -45.969 264.715 -54.6755 300.363C-54.9591 301.469 -55.2143 302.717 -54.5621 303.71C-54.0232 304.532 -53.0023 305.014 -52.038 305.44C-48.1811 307.084 -44.0973 308.361 -39.9001 309.24C-38.9642 309.438 -37.9716 309.608 -37.0357 309.41C-35.7312 309.155 -34.767 308.219 -33.8878 307.34C-19.7363 293.103 -9.78202 278.867 -3.11749 261.936C-1.86966 259.894 -0.678562 257.824 0.484184 255.725C2.44101 252.095 4.11423 248.352 5.73074 244.58C7.3756 240.695 9.33242 237.235 11.8281 233.86C14.2103 230.627 15.6283 227.394 16.3089 223.424C17.0179 219.425 17.6135 215.54 18.9748 211.711C21.8107 203.855 26.4617 196.879 30.4037 189.562C33.3248 184.145 35.9339 178.36 37.0966 172.291C47.5614 148.469 56.0693 121.726 47.3628 111.261Z" fill="#464558"/>
        <path opacity="0.29" d="M15.0894 120.421C14.5506 123.059 13.955 125.753 13.0759 128.362C11.4877 133.098 8.96372 137.579 7.63081 142.372C6.46806 146.597 6.41135 150.88 9.44584 154.566C11.7997 157.431 15.2029 159.529 18.1239 161.94C21.3286 164.549 23.3421 167.442 24.6467 171.043C26.3199 175.666 26.8587 180.515 27.3125 185.308C27.511 187.378 27.7379 189.449 27.9647 191.519C41.2371 165.173 58.5649 124.704 47.3344 111.233C41.0953 103.746 25.9228 106.582 15.8835 110.722C16.2238 113.984 15.7133 117.273 15.0894 120.421Z" fill="#2B2B37"/>
        <path opacity="0.29" d="M-33.8878 307.311C-19.7363 293.075 -9.78202 278.838 -3.11749 261.908C-1.86966 259.866 -0.678562 257.795 0.484188 255.697C2.44101 252.067 4.11423 248.323 5.73074 244.551C7.3756 240.666 9.33243 237.206 11.8281 233.832C14.2103 230.599 15.6283 227.366 16.3089 223.395C17.0179 219.396 17.6135 215.511 18.9748 211.683C21.8107 203.827 26.4617 196.851 30.4037 189.534C33.3248 184.117 35.9339 178.332 37.0966 172.263C47.3629 148.894 55.7573 122.69 47.7599 111.857C47.7599 111.828 47.7315 111.828 47.7315 111.8C47.6181 111.63 47.4763 111.46 47.3345 111.29C47.1927 111.119 47.0509 110.978 46.9091 110.807C46.8524 110.751 46.824 110.722 46.7673 110.666C46.6539 110.552 46.5688 110.467 46.4554 110.354C46.3986 110.297 46.3419 110.24 46.2852 110.184C46.2001 110.098 46.0866 110.013 46.0016 109.928C45.9449 109.872 45.8598 109.815 45.8031 109.758C45.6896 109.673 45.6046 109.588 45.4911 109.531C45.4344 109.475 45.3493 109.418 45.2926 109.389C45.1791 109.304 45.0657 109.248 44.9523 109.163C44.8956 109.106 44.8105 109.078 44.7538 109.021C44.612 108.936 44.4985 108.851 44.3567 108.794C44.3 108.766 44.2716 108.737 44.2149 108.709C44.0164 108.595 43.8463 108.51 43.6477 108.397C43.6194 108.369 43.5626 108.369 43.5343 108.34C43.3641 108.255 43.2223 108.198 43.0522 108.113C42.9955 108.085 42.9104 108.057 42.8536 108.028C42.7118 107.972 42.5984 107.915 42.4566 107.858C42.3715 107.83 42.2865 107.801 42.2297 107.773C42.0879 107.716 41.9745 107.688 41.8327 107.631C41.7476 107.603 41.6625 107.574 41.5775 107.546C41.4357 107.489 41.2939 107.461 41.1521 107.433C41.067 107.404 40.9819 107.376 40.9252 107.376C40.7834 107.348 40.6132 107.291 40.4714 107.263C40.4147 107.234 40.3296 107.234 40.2729 107.206C40.0744 107.149 39.8759 107.121 39.649 107.064C39.6207 107.064 39.5923 107.064 39.5923 107.064C39.3654 107.007 39.1102 106.979 38.8833 106.951C38.8266 106.951 38.7982 106.951 38.7415 106.922C38.543 106.894 38.3728 106.865 38.1743 106.837C38.0892 106.837 38.0325 106.809 37.9474 106.809C37.7773 106.78 37.6071 106.78 37.4369 106.752C37.3519 106.752 37.2668 106.724 37.1817 106.724C37.0115 106.695 36.8414 106.695 36.6712 106.695C36.5862 106.695 36.5011 106.695 36.416 106.667C36.2458 106.667 36.0757 106.639 35.8772 106.639C35.7921 106.639 35.7353 106.639 35.6503 106.639C35.4517 106.639 35.2532 106.639 35.0264 106.639C34.9696 106.639 34.9413 106.639 34.8846 106.639C34.3741 106.639 33.8353 106.639 33.3248 106.667C33.2964 106.667 33.2681 106.667 33.2113 106.667C32.9845 106.667 32.7576 106.695 32.5307 106.695C32.474 106.695 32.4173 106.695 32.3605 106.695C32.162 106.695 31.9635 106.724 31.7366 106.752C31.6799 106.752 31.5948 106.752 31.5381 106.78C31.3396 106.809 31.1411 106.809 30.9142 106.837C30.8575 106.837 30.8008 106.837 30.744 106.866C30.5172 106.894 30.2903 106.922 30.0634 106.951C30.035 106.951 29.9783 106.951 29.95 106.979C29.1275 107.092 28.3051 107.206 27.4827 107.348C27.4543 107.348 27.4543 107.348 27.4259 107.348C27.1707 107.404 26.9155 107.433 26.6602 107.489C26.6319 107.489 26.5752 107.518 26.5468 107.518C26.3199 107.574 26.093 107.603 25.8662 107.66C25.8094 107.66 25.7811 107.688 25.7244 107.688C25.4975 107.745 25.2422 107.801 25.0154 107.858C24.987 107.858 24.9587 107.886 24.902 107.886C24.6467 107.943 24.3631 108 24.1079 108.085C25.1855 109.957 26.0647 111.914 26.7737 113.87C32.7859 130.404 20.3644 148.611 9.3608 162.422C4.48292 168.519 -7.99538 174.872 -20.2184 180.714C-20.3602 183.011 -20.5587 185.28 -20.9558 187.549C-21.523 190.611 -22.6006 193.306 -24.0753 196.057C-24.6993 197.248 -25.3515 198.467 -25.6635 199.8C-26.0322 201.36 -25.9187 202.948 -26.0038 204.536C-26.1456 207.344 -26.9964 210.038 -28.2159 212.533C-28.3009 212.675 -28.3576 212.817 -28.4144 212.959C-22.0618 214.037 -16.0495 215.284 -14.6315 216.192C-8.25059 220.191 -4.9325 226.968 -5.72657 233.548C-7.82519 251.103 -29.7189 256.945 -45.6287 258.873C-48.6632 271.124 -50.5917 283.177 -54.8173 300.448C-54.8457 300.505 -54.8457 300.59 -54.874 300.647C-54.9024 300.732 -54.9024 300.817 -54.9307 300.902C-55.1576 301.895 -55.2711 302.916 -54.7039 303.795C-54.5053 304.107 -54.2501 304.362 -53.9381 304.589C-53.6262 304.816 -53.2859 305.014 -52.9172 305.184C-52.6619 305.298 -52.4351 305.411 -52.1798 305.525C-51.6977 305.723 -51.2156 305.922 -50.7335 306.12C-49.7693 306.517 -48.7767 306.886 -47.7557 307.226C-46.7631 307.567 -45.7422 307.878 -44.7212 308.162C-43.8137 308.417 -42.9062 308.644 -41.9987 308.871C-41.7434 308.928 -41.5166 308.985 -41.2613 309.041C-40.8643 309.126 -40.4389 309.24 -40.0419 309.296C-39.9568 309.325 -39.8434 309.325 -39.7583 309.353C-39.7299 309.353 -39.6732 309.382 -39.6448 309.382C-38.8224 309.523 -38 309.637 -37.2059 309.467C-37.0357 309.438 -36.8939 309.382 -36.7238 309.325C-36.0999 309.126 -35.5894 308.758 -35.0789 308.361C-34.8237 308.162 -34.5968 307.935 -34.3699 307.737C-34.1147 307.538 -34.0012 307.425 -33.8878 307.311Z" fill="#2B2B37"/>
        <path opacity="0.29" d="M46.2568 144.754C42.6268 153.318 37.4653 161.486 31.2262 168.945C28.3618 172.348 25.2423 175.637 21.754 178.615C16.2239 183.351 9.87131 186.953 2.92317 190.044C0.654391 191.065 -1.78457 191.831 -4.08171 192.795C-6.26541 193.703 -9.52678 194.922 -10.0089 197.162C-11.0015 201.615 -3.40107 203.969 0.285701 205.5C0.512579 205.614 0.597651 205.84 0.455853 206.039C-0.593458 207.173 -1.64276 208.535 -1.55768 210.038C-1.50096 211.059 -0.905422 211.938 -0.224789 212.76C1.42008 214.717 3.37691 216.447 4.25607 218.772C6.63828 225.097 3.20676 232.187 0.257348 237.972C-3.40106 245.09 -6.80424 252.152 -8.90286 259.695C-9.95217 263.467 -10.7179 267.296 -11.2283 271.153C-11.6254 274.159 -11.7956 277.165 -12.1359 280.171C-8.61927 274.386 -5.61313 268.345 -3.08912 261.907C-1.84129 259.866 -0.650157 257.795 0.512592 255.697C2.46941 252.067 4.14264 248.323 5.75914 244.551C7.40401 240.666 9.36083 237.206 11.8565 233.831C14.2387 230.598 15.6567 227.365 16.3373 223.395C17.0463 219.396 17.6419 215.511 19.0031 211.683C21.8391 203.827 26.4901 196.85 30.4321 189.534C33.3532 184.117 35.9623 178.332 37.125 172.263C42.9671 158.962 48.2137 144.725 50.1705 132.956C50.1989 132.871 50.1988 132.786 50.2272 132.673C49.2913 136.785 47.9301 140.84 46.2568 144.754Z" fill="#2B2B37"/>
        <path d="M205.298 301.327C202.661 290.494 199.995 279.661 197.358 268.827C194.975 259.071 192.877 251.613 190.948 245.686C190.353 243.133 189.559 240.638 188.566 238.17C179.463 215.001 184.085 222.941 180.654 211.172C180.03 208.988 179.151 206.861 177.96 204.933C176.797 203.033 175.35 201.303 174.074 199.46C172.798 197.616 171.777 195.688 171.267 193.476C170.728 191.093 170.756 188.626 170.785 186.187C170.955 173.255 168.856 170.845 163.042 153.205C160.036 138.458 154.648 124.902 141.999 115.628C134.626 110.24 111.343 102.526 103.26 112.254C92.3415 125.356 108.45 164.01 121.552 190.384C122.516 193.362 123.651 196.283 124.955 199.148C126.458 202.466 128.273 205.585 130.032 208.761C131.705 211.739 133.406 214.972 133.662 218.46C133.803 220.275 133.293 222.062 133.435 223.877C133.577 225.607 134.229 227.167 135.051 228.67C135.789 230.003 136.668 231.279 137.32 232.669C138.171 234.427 138.681 236.327 139.248 238.17C140.269 241.488 141.517 244.608 143.559 247.472C163.524 275.407 156.463 280.171 184.482 308.361C185.333 309.24 186.297 310.147 187.63 310.431C188.566 310.629 189.559 310.459 190.495 310.261C194.692 309.381 198.776 308.105 202.633 306.46C203.625 306.035 204.646 305.553 205.157 304.73C205.837 303.681 205.582 302.433 205.298 301.327Z" fill="#464558"/>
        <path opacity="0.25" d="M121.58 190.356C122.545 193.334 123.679 196.255 124.984 199.119C126.487 202.437 128.302 205.557 130.06 208.733C131.733 211.711 133.435 214.944 133.69 218.432C133.832 220.247 133.321 222.034 133.463 223.849C133.605 225.579 134.257 227.139 135.08 228.642C135.817 229.975 136.696 231.251 137.348 232.641C138.199 234.399 138.71 236.299 139.277 238.142C140.298 241.46 141.546 244.58 143.588 247.444C155.669 264.347 157.853 272.769 163.893 283.036C164.035 283.206 164.148 283.376 164.262 283.574C164.233 282.695 164.205 281.816 164.205 280.937C164.148 277.732 163.865 274.613 162.759 271.522C161.766 268.742 160.263 266.133 159.242 263.354C158.675 261.851 158.136 260.234 157.115 258.873C156.349 257.881 155.158 257.2 154.336 256.236C152.436 254.08 152.436 251.018 152.322 248.465C152.152 245.402 151.784 242.566 149.827 239.901C149.515 239.475 148.522 238.965 147.133 238.426C142.907 236.781 140.071 232.754 139.901 228.216C139.617 221.127 139.362 215.341 139.163 213.498C137.916 202.721 137.292 191.916 137.348 181.083C137.405 170.675 137.859 160.21 140.326 150.001C142.283 141.89 145.431 133.694 150.139 126.405C150.507 125.866 150.876 125.271 151.273 124.704C150.337 123.484 149.316 122.293 148.21 121.13C148.154 121.074 148.125 121.045 148.068 120.989C147.756 120.677 147.473 120.365 147.161 120.053C147.076 119.968 146.962 119.854 146.877 119.769C146.622 119.514 146.338 119.259 146.055 119.003C145.941 118.89 145.828 118.777 145.686 118.663C145.431 118.436 145.147 118.181 144.892 117.954C144.75 117.841 144.637 117.727 144.495 117.614C144.212 117.387 143.928 117.132 143.644 116.905C143.531 116.82 143.389 116.706 143.276 116.621C142.85 116.309 142.453 115.969 141.999 115.657C139.816 114.069 136.214 112.254 132.045 110.751C131.393 110.524 130.712 110.297 130.032 110.07C129.805 109.985 129.578 109.928 129.351 109.843C128.897 109.701 128.415 109.56 127.961 109.446C127.025 109.191 126.061 108.936 125.097 108.737C122.204 108.085 119.255 107.688 116.447 107.631C115.965 107.631 115.511 107.631 115.058 107.631C114.604 107.631 114.15 107.66 113.696 107.716C113.016 107.773 112.364 107.858 111.711 107.943C109.981 108.227 108.393 108.709 106.975 109.418C106.436 109.673 105.926 109.985 105.444 110.325C105.132 110.552 104.82 110.779 104.508 111.034C104.054 111.403 103.657 111.828 103.26 112.282C101.955 113.87 100.935 116.167 100.197 119.089C96.7657 135.792 110.265 167.64 121.58 190.356Z" fill="#2B2B37"/>
        <g opacity="0.29">
            <path opacity="0.29" d="M130.259 198.268C130.883 194.213 131.847 190.214 132.442 186.159C132.953 182.699 132.953 179.239 132.839 175.751C132.726 172.404 132.3 169.001 132.924 165.655C133.52 162.365 134.881 159.246 136.072 156.098C137.349 152.78 138.114 149.433 139.022 146.03C140.837 139.28 142.709 132.389 141.489 125.441C140.667 120.676 138.568 116.224 135.675 112.112C125.664 107.744 109.669 104.483 103.232 112.197C89.9594 128.163 116.731 182.047 129.379 205.415C129.606 203.061 129.89 200.651 130.259 198.268Z" fill="#2B2B37"/>
        </g>
        <path opacity="0.25" d="M205.298 301.327C202.661 290.494 199.995 279.661 197.358 268.827C194.975 259.071 192.877 251.613 190.948 245.686C190.353 243.133 189.559 240.638 188.566 238.17C179.463 215.001 184.085 222.941 180.654 211.172C180.03 208.988 179.151 206.861 177.959 204.933C176.797 203.033 175.35 201.303 174.074 199.46C172.798 197.616 171.777 195.688 171.267 193.476C170.728 191.093 170.756 188.626 170.784 186.187C170.955 173.255 168.856 170.845 163.042 153.205C160.036 138.458 154.648 124.902 141.999 115.628C141.886 115.543 141.772 115.458 141.659 115.373C141.631 115.345 141.574 115.316 141.546 115.288C141.46 115.231 141.375 115.175 141.29 115.118C141.234 115.09 141.205 115.061 141.148 115.033C141.063 114.976 141.007 114.919 140.922 114.891C140.865 114.863 140.808 114.834 140.751 114.778C140.666 114.721 140.61 114.693 140.525 114.636C140.468 114.607 140.411 114.551 140.354 114.522C140.269 114.466 140.184 114.437 140.128 114.381C140.071 114.352 140.014 114.296 139.929 114.267C139.844 114.21 139.759 114.182 139.674 114.125C139.617 114.097 139.532 114.04 139.475 114.012C139.39 113.955 139.305 113.927 139.22 113.87C139.163 113.842 139.078 113.785 139.022 113.757C138.936 113.7 138.823 113.643 138.738 113.587C138.681 113.558 138.624 113.53 138.568 113.501C138.398 113.416 138.256 113.331 138.086 113.246C138.029 113.218 137.972 113.189 137.916 113.161C137.802 113.104 137.689 113.048 137.604 112.991C137.518 112.963 137.433 112.906 137.348 112.878C137.263 112.821 137.178 112.792 137.065 112.736C136.98 112.707 136.895 112.651 136.781 112.622C136.696 112.594 136.611 112.537 136.526 112.509C136.441 112.452 136.327 112.424 136.242 112.367C136.157 112.339 136.072 112.282 135.987 112.254C135.874 112.197 135.789 112.169 135.675 112.112C135.59 112.083 135.505 112.027 135.42 111.998C135.306 111.942 135.221 111.913 135.108 111.857C135.023 111.828 134.938 111.8 134.881 111.743C134.768 111.686 134.654 111.658 134.541 111.601C134.484 111.573 134.399 111.545 134.314 111.516C134.2 111.46 134.059 111.403 133.945 111.374C133.888 111.346 133.86 111.346 133.803 111.318C133.293 111.119 132.782 110.921 132.244 110.722C132.215 110.722 132.187 110.694 132.187 110.694C132.017 110.637 131.875 110.58 131.705 110.524C131.648 110.495 131.62 110.495 131.563 110.467C131.393 110.41 131.251 110.354 131.081 110.297C131.024 110.268 130.967 110.268 130.939 110.24C130.769 110.183 130.627 110.127 130.457 110.07C130.4 110.042 130.343 110.042 130.315 110.013C130.145 109.957 130.003 109.9 129.833 109.871C129.776 109.843 129.748 109.843 129.691 109.815C129.521 109.758 129.351 109.701 129.181 109.645C129.152 109.645 129.124 109.616 129.096 109.616C127.649 109.191 126.175 108.794 124.7 108.482C124.501 108.425 124.274 108.397 124.076 108.34C124.076 108.34 124.076 108.34 124.048 108.34C117.553 107.035 110.832 106.979 106.266 109.645C106.294 109.645 106.323 109.645 106.351 109.645C113.072 110.382 120.049 112.566 125.295 116.196C129.096 118.805 132.329 122.236 135.165 125.583C138.284 129.269 140.922 133.24 143.077 137.38C147.615 146.143 149.515 155.474 150.337 164.946C151.273 175.552 150.564 186.187 148.465 196.652C147.87 199.545 147.444 202.863 150.422 204.961C153.882 207.372 158.59 207.429 162.418 209.158C167.041 211.229 167.041 215.313 167.438 219.169C167.92 223.764 171.607 226.77 175.379 229.804C178.924 232.669 181.646 235.675 183.121 239.673C184.652 243.842 184.964 248.295 185.021 252.634C185.134 261.34 180.852 269.394 174.386 276.087C171.55 279.037 168.629 281.901 165.254 284.425C165.198 284.482 165.141 284.51 165.084 284.567C170.444 292.734 176.882 300.448 184.567 308.162C184.794 308.389 184.993 308.587 185.248 308.814C185.815 309.353 186.467 309.835 187.233 310.09C187.375 310.147 187.545 310.175 187.715 310.232C188.538 310.402 189.388 310.289 190.211 310.119C190.324 310.09 190.438 310.062 190.551 310.034C191.09 309.92 191.6 309.807 192.111 309.693C193.16 309.438 194.181 309.183 195.202 308.899C195.713 308.758 196.223 308.587 196.734 308.446C198.747 307.822 200.732 307.084 202.661 306.262C203.029 306.092 203.398 305.95 203.767 305.751C204.135 305.553 204.447 305.354 204.731 305.099C204.93 304.929 205.071 304.759 205.213 304.56C205.412 304.248 205.525 303.908 205.582 303.568C205.667 302.915 205.497 302.093 205.298 301.327Z" fill="#2B2B37"/>
        <path d="M132.442 131.453C132.073 130.489 131.591 129.439 130.882 128.248C126.912 121.499 127.536 109.701 127.536 109.701C127.536 109.701 126.288 108.879 119.113 106.865C112.675 105.078 86.5275 96.684 82.9258 96.4571L63.6695 95.2093C60.0678 95.4645 33.8067 105.078 27.3407 106.865C21.6404 108.453 19.6836 109.304 19.1164 109.588C19.9955 115.26 19.4 121.102 18.2372 126.859C17.1312 132.417 15.4296 137.862 14.3236 143.449C12.8772 150.851 13.6997 154.935 14.4937 158.309C15.3445 161.94 17.3864 169.568 17.4715 169.937C20.5344 181.933 23.6256 208.875 21.0448 218.545C20.0522 222.317 19.2582 225.976 19.8254 229.918C20.1657 232.215 20.903 234.37 22.1792 236.185C22.1792 237.121 22.2076 238.057 22.2076 239.021C22.2643 243.275 22.4628 247.557 22.5763 251.868C25.4122 252.237 29.9214 252.237 30.4319 252.86C31.9917 254.732 40.3011 262.616 70.4192 263.098C71.355 263.07 72.2625 263.07 73.17 263.042C74.0775 263.07 74.985 263.098 75.9209 263.098C106.039 262.616 114.377 254.732 115.908 252.86C116.645 251.953 125.721 252.35 126.033 251.102C126.401 249.656 126.742 248.238 127.054 246.82C126.77 243.729 126.571 240.638 126.486 237.575C129.464 234.966 130.258 230.938 130.088 226.77C129.861 221.466 129.379 216.248 128.642 211.03C126.685 197.644 127.28 199.856 127.734 184.485C127.961 176.431 128.103 168.264 130.485 160.635C131.591 157.062 133.009 153.63 134.512 150.227C134.541 150 134.597 149.745 134.626 149.49C135.647 142.627 134.739 136.643 132.442 131.453Z" fill="#575770"/>
        <path opacity="0.11" d="M132.442 131.453C132.073 130.489 131.591 129.439 130.882 128.248C126.912 121.499 127.536 109.701 127.536 109.701C127.536 109.701 126.288 108.879 119.113 106.865C119.028 106.837 118.914 106.808 118.801 106.78C118.773 106.78 118.716 106.752 118.688 106.752C118.602 106.723 118.546 106.723 118.461 106.695C118.404 106.695 118.376 106.666 118.319 106.638C118.262 106.61 118.177 106.61 118.12 106.581C118.064 106.553 118.007 106.553 117.95 106.525C117.893 106.496 117.808 106.496 117.752 106.468C117.695 106.44 117.638 106.44 117.581 106.411C117.496 106.383 117.44 106.355 117.355 106.355C117.298 106.326 117.241 106.326 117.156 106.298C117.071 106.269 116.986 106.241 116.901 106.213C116.844 106.184 116.787 106.184 116.731 106.156C116.646 106.128 116.532 106.099 116.419 106.071C116.362 106.043 116.305 106.043 116.277 106.014C116.164 105.986 116.05 105.957 115.908 105.901C115.88 105.901 115.823 105.872 115.795 105.872C115.653 105.844 115.511 105.787 115.369 105.759C115.341 105.759 115.313 105.731 115.284 105.731C114.944 105.617 114.575 105.532 114.207 105.419C114.207 105.419 114.207 105.419 114.178 105.419C114.008 105.362 113.838 105.305 113.668 105.277C113.611 105.248 113.526 105.248 113.469 105.22C113.328 105.192 113.214 105.135 113.072 105.107C113.016 105.078 112.959 105.078 112.902 105.05C112.789 105.022 112.647 104.965 112.533 104.937C112.448 104.908 112.392 104.88 112.307 104.88C111.966 104.766 111.598 104.653 111.229 104.54C111.201 104.54 111.172 104.511 111.115 104.511C109.102 103.887 106.918 103.235 104.649 102.526C104.621 102.526 104.621 102.526 104.593 102.526C104.394 102.469 104.196 102.413 103.997 102.356C103.94 102.356 103.912 102.327 103.855 102.327C103.657 102.271 103.487 102.214 103.288 102.157C103.26 102.157 103.26 102.157 103.231 102.129C103.033 102.072 102.834 102.016 102.608 101.93C102.579 101.93 102.522 101.902 102.494 101.902C102.296 101.845 102.125 101.789 101.927 101.732C101.955 101.902 101.984 102.101 101.984 102.271C102.778 108.708 102.608 115.288 101.757 121.754C100.084 134.317 95.0639 147.079 84.5991 154.85C74.7867 162.138 61.883 163.698 50.0569 162.733C41.3221 161.996 32.6441 160.068 24.5048 156.891C20.6195 155.388 16.7342 153.573 13.3878 151.049C13.3878 151.219 13.3878 151.39 13.3878 151.588C13.3878 151.617 13.3878 151.673 13.3878 151.702C13.3878 151.843 13.3878 151.957 13.3878 152.099C13.3878 152.155 13.3878 152.184 13.3878 152.24C13.3878 152.354 13.3878 152.496 13.4162 152.609C13.4162 152.666 13.4162 152.694 13.4162 152.751C13.4162 152.893 13.4445 153.006 13.4445 153.12C13.4445 153.148 13.4445 153.176 13.4445 153.233C13.4729 153.545 13.5012 153.857 13.5296 154.169C13.5296 154.197 13.5296 154.226 13.5296 154.254C13.5579 154.367 13.558 154.509 13.5863 154.623C13.5863 154.651 13.5863 154.708 13.6147 154.736C13.643 154.85 13.643 154.935 13.6714 155.048C13.6714 155.076 13.6714 155.133 13.6998 155.161C13.7281 155.275 13.7281 155.36 13.7565 155.473C13.7565 155.502 13.7565 155.559 13.7848 155.587C13.8132 155.7 13.8132 155.814 13.8416 155.927C13.8416 155.956 13.8416 155.956 13.8416 155.984C13.8699 156.126 13.8983 156.267 13.9266 156.381C13.9266 156.409 13.9266 156.409 13.9266 156.438C13.955 156.551 13.9834 156.665 13.9834 156.778C13.9834 156.806 14.0117 156.863 14.0117 156.891C14.0401 156.976 14.0401 157.062 14.0684 157.147C14.0684 157.203 14.0968 157.232 14.0968 157.288C14.1251 157.374 14.1252 157.459 14.1535 157.544C14.1535 157.572 14.1819 157.629 14.1819 157.657C14.2102 157.742 14.2102 157.827 14.2386 157.912C14.2386 157.941 14.267 157.997 14.267 158.026C14.2953 158.139 14.3237 158.253 14.352 158.366C15.2028 161.996 17.2447 169.625 17.3298 169.994C20.3926 181.99 23.4839 208.931 20.9031 218.602C19.9105 222.374 19.1165 226.032 19.6837 229.974C20.024 232.271 20.7613 234.427 22.0375 236.242C22.0375 237.178 22.0659 238.113 22.0659 239.078C22.1226 243.332 22.3211 247.614 22.4346 251.925C25.2705 252.293 29.7797 252.293 30.2902 252.917C31.85 254.789 40.1594 262.673 70.2775 263.155C71.2133 263.127 72.1208 263.127 73.0283 263.098C73.9358 263.127 74.8433 263.155 75.7792 263.155C105.897 262.673 114.235 254.789 115.766 252.917C116.504 252.01 125.579 252.407 125.891 251.159C126.26 249.712 126.6 248.295 126.912 246.877C126.628 243.785 126.43 240.694 126.345 237.631C129.322 235.022 130.116 230.995 129.946 226.826C129.719 221.523 129.237 216.305 128.5 211.087C126.543 197.701 127.139 199.913 127.592 184.542C127.819 176.488 127.961 168.32 130.343 160.692C131.449 157.118 132.867 153.687 134.37 150.284C134.399 150.057 134.456 149.802 134.484 149.546C135.647 142.627 134.739 136.643 132.442 131.453Z" fill="#2B2B37"/>
        <path opacity="0.25" d="M71.8938 263.07C72.3192 263.07 72.7445 263.042 73.1699 263.042H73.1983C73.3685 263.042 73.5386 263.042 73.6804 263.042C74.5879 263.07 75.4954 263.098 76.4313 263.098C106.124 262.56 114.377 254.732 115.908 252.86C115.936 252.832 115.965 252.804 115.993 252.775C115.993 252.775 116.022 252.775 116.022 252.747C116.05 252.719 116.078 252.719 116.107 252.69C116.107 252.69 116.135 252.69 116.135 252.662C116.192 252.634 116.22 252.634 116.277 252.605C116.333 252.577 116.419 252.577 116.475 252.549C116.504 252.549 116.532 252.549 116.532 252.52C116.589 252.52 116.645 252.492 116.702 252.492C116.731 252.492 116.759 252.492 116.787 252.463C116.872 252.463 116.929 252.435 117.014 252.435H117.042C117.128 252.407 117.241 252.407 117.326 252.407C117.354 252.407 117.383 252.407 117.411 252.407C117.496 252.407 117.553 252.378 117.638 252.378C117.666 252.378 117.723 252.378 117.751 252.378C117.837 252.378 117.922 252.35 118.035 252.35C118.063 252.35 118.063 252.35 118.092 252.35C118.205 252.35 118.319 252.322 118.432 252.322C118.46 252.322 118.517 252.322 118.546 252.322C118.631 252.322 118.716 252.322 118.801 252.293C118.857 252.293 118.886 252.293 118.943 252.293C119.028 252.293 119.113 252.293 119.198 252.265C119.226 252.265 119.283 252.265 119.311 252.265C121.864 250.62 124.359 248.89 126.827 247.16C126.855 247.132 126.912 247.104 126.94 247.075C126.94 247.047 126.968 247.018 126.968 246.962C126.968 246.933 126.997 246.905 126.997 246.877C126.713 243.785 126.515 240.694 126.43 237.631C129.407 235.022 130.201 230.995 130.031 226.826C129.804 221.523 129.322 216.305 128.585 211.087C126.628 197.701 127.224 199.913 127.677 184.542C127.762 181.508 127.848 178.473 128.018 175.439C128.33 170.419 128.925 165.456 130.4 160.692C131.421 157.345 132.754 154.141 134.115 150.964C134.2 150.737 134.314 150.511 134.399 150.284C134.427 150.057 134.484 149.802 134.512 149.546C134.767 147.816 134.909 146.172 134.937 144.555C135.023 139.734 134.058 135.395 132.357 131.51C132.272 131.283 132.158 131.028 132.073 130.772C131.846 130.262 131.591 129.723 131.307 129.184C131.166 128.901 130.995 128.617 130.825 128.333C126.855 121.584 127.479 109.786 127.479 109.786C127.479 109.786 127.479 109.786 127.45 109.786C127.45 109.786 127.422 109.786 127.422 109.758C127.422 109.758 127.394 109.758 127.394 109.729C127.053 109.559 125.891 109.02 122.714 108.028C122.714 108.028 122.714 108.028 122.686 108.028C122.544 108 122.431 107.943 122.289 107.914C122.261 107.914 122.261 107.914 122.232 107.886C122.09 107.858 121.977 107.801 121.835 107.773C121.807 107.773 121.807 107.773 121.779 107.744C121.637 107.716 121.495 107.659 121.353 107.631C121.807 107.773 121.325 115.798 121.382 116.791C121.58 120.421 121.467 124.051 120.984 127.653C120.049 134.771 117.837 141.719 114.377 148.043C110.406 155.303 104.904 161.628 99.2609 167.697C93.8726 173.482 87.9454 179.948 87.7469 188.059C87.7185 189.307 87.8319 190.583 87.52 191.802C87.2931 192.766 86.811 193.617 86.3572 194.468C84.4004 198.126 82.4152 201.785 80.43 205.472C78.218 209.555 73.8222 211.626 70.022 214.036C65.7964 216.759 61.3439 219.113 56.7213 221.069C46.7954 225.295 36.2172 227.677 25.5256 228.301C25.1002 228.329 22.6329 228.443 19.6267 228.585C19.6551 229.067 19.7118 229.521 19.7685 230.003C20.1089 232.3 20.8462 234.455 22.1224 236.27C22.1224 237.206 22.1508 238.142 22.1508 239.106C22.1791 240.184 22.1791 241.233 22.2075 242.311C22.2926 245.515 22.4344 248.72 22.5195 251.953C25.3554 252.322 29.8646 252.322 30.3751 252.946C30.5169 253.116 30.7154 253.343 30.999 253.626C31.2826 253.91 31.6229 254.222 32.0483 254.562C32.2752 254.732 32.5021 254.902 32.7573 255.101C33.2678 255.47 33.8917 255.867 34.6007 256.264C35.7918 256.944 37.2665 257.682 39.0815 258.391C39.4502 258.532 39.8189 258.674 40.2159 258.816C43.9311 260.149 48.9224 261.425 55.6153 262.248C56.3243 262.333 57.0332 262.418 57.7706 262.503C58.8766 262.616 60.0394 262.73 61.2305 262.815C64.0098 263.013 67.0442 263.155 70.3623 263.212C70.9295 263.07 71.4116 263.07 71.8938 263.07Z" fill="#2B2B37"/>
        <path opacity="0.25" d="M71.8939 263.07C72.3193 263.07 72.7447 263.042 73.1701 263.042H73.1984C73.3686 263.042 73.5388 263.042 73.6806 263.042C74.5881 263.07 75.4956 263.099 76.4315 263.099C106.124 262.56 114.377 254.732 115.908 252.861C115.937 252.832 115.965 252.804 115.993 252.776C115.993 252.776 116.022 252.776 116.022 252.747C116.05 252.719 116.078 252.719 116.107 252.691C116.107 252.691 116.135 252.691 116.135 252.662C116.192 252.634 116.22 252.634 116.277 252.605C116.334 252.577 116.419 252.577 116.475 252.549C116.504 252.549 116.532 252.549 116.532 252.52C116.589 252.52 116.646 252.492 116.702 252.492C116.731 252.492 116.759 252.492 116.787 252.464C116.872 252.464 116.929 252.435 117.014 252.435H117.043C117.128 252.407 117.241 252.407 117.326 252.407C117.355 252.407 117.383 252.407 117.411 252.407C117.496 252.407 117.553 252.379 117.638 252.379C117.667 252.379 117.723 252.379 117.752 252.379C117.837 252.379 117.922 252.35 118.035 252.35C118.064 252.35 118.064 252.35 118.092 252.35C118.205 252.35 118.319 252.322 118.432 252.322C118.461 252.322 118.517 252.322 118.546 252.322C118.631 252.322 118.716 252.322 118.801 252.293C118.858 252.293 118.886 252.293 118.943 252.293C119.028 252.293 119.113 252.293 119.198 252.265C119.226 252.265 119.283 252.265 119.311 252.265C121.864 250.62 124.359 248.89 126.827 247.16C126.855 247.132 126.912 247.104 126.94 247.075C126.94 247.047 126.968 247.019 126.968 246.962C126.968 246.934 126.997 246.905 126.997 246.877C126.713 243.786 126.515 240.694 126.43 237.632C129.407 235.022 130.202 230.995 130.031 226.827C129.804 221.523 129.322 216.305 128.585 211.087C126.628 197.701 127.224 199.913 127.677 184.542C127.763 181.508 127.848 178.473 128.018 175.439C128.33 170.419 128.925 165.456 130.4 160.692C131.421 157.345 132.754 154.141 134.115 150.965C134.2 150.738 134.314 150.511 134.399 150.284C134.427 150.057 134.484 149.802 134.512 149.547C134.767 147.817 134.909 146.172 134.938 144.555C135.023 139.734 134.058 135.395 132.357 131.51C132.272 131.283 132.158 131.028 132.073 130.772C131.846 130.262 131.591 129.723 131.308 129.184C131.166 128.901 130.996 128.617 130.825 128.334C126.855 121.584 127.479 109.786 127.479 109.786C127.479 109.786 127.451 109.758 127.394 109.758C127.139 109.616 126.174 109.162 123.537 108.312C124.019 108.453 124.303 114.239 124.359 114.948C124.586 117.131 124.756 119.315 124.983 121.527C125.522 126.462 125.919 131.453 125.409 136.416C123.906 151.22 114.774 163.925 105.812 175.893C101.984 180.997 98.0132 186.499 97.4177 192.993C97.1341 196 97.6162 199.062 97.361 202.069C96.4818 211.938 87.9172 216.986 80.2317 221.07C72.2626 225.323 63.6696 228.216 54.8781 230.003C46.7388 231.676 32.1619 233.321 20.7897 233.86C21.1583 234.711 21.5837 235.533 22.0942 236.299C22.0942 237.235 22.1226 238.17 22.1226 239.135C22.1509 240.212 22.1509 241.262 22.1793 242.339C22.2643 245.544 22.4062 248.749 22.4912 251.982C25.3272 252.35 29.8364 252.35 30.3469 252.974C30.4887 253.144 30.6872 253.371 30.9708 253.655C31.2544 253.938 31.5947 254.25 32.0201 254.591C32.247 254.761 32.4739 254.931 32.7291 255.129C33.2396 255.498 33.8635 255.895 34.5725 256.292C35.7636 256.973 37.2383 257.71 39.0533 258.419C39.422 258.561 39.7907 258.703 40.1877 258.845C43.9028 260.177 48.8941 261.454 55.587 262.276C56.296 262.361 57.005 262.446 57.7424 262.531C58.8484 262.645 60.0112 262.758 61.2023 262.843C63.9815 263.042 67.016 263.184 70.3341 263.24C70.9297 263.07 71.4118 263.07 71.8939 263.07Z" fill="#2B2B37"/>
        <path d="M77.5943 129.751C76.7152 128.674 75.4957 127.823 74.4464 126.915C73.1986 125.838 71.9224 124.788 70.6462 123.739C68.1505 121.64 65.6549 119.514 63.3294 117.216C59.8128 113.785 56.5514 109.928 54.4244 105.504C52.8363 105.901 51.1631 106.44 49.4331 107.064C52.099 112.395 55.1334 117.613 58.3948 122.605C59.9546 124.987 61.5711 127.369 63.3861 129.61C65.1444 131.793 67.0729 133.949 69.4268 135.48C70.391 136.104 71.4686 136.558 72.5747 136.785C72.6314 136.473 72.7165 136.189 72.7732 135.877C72.8299 135.65 73.1419 135.764 73.1135 135.962C73.0568 136.246 72.9717 136.529 72.915 136.813C74.1912 136.983 75.4957 136.813 76.7435 136.132C79.2959 134.799 79.2392 131.793 77.5943 129.751Z" fill="#575770"/>
        <path opacity="0.25" d="M101.501 101.675C100.452 103.746 97.3893 111.686 96.0848 113.643C94.4966 116.082 92.6816 118.294 91.0084 120.676C89.5337 122.746 88.1157 124.845 86.5275 126.859C84.911 128.929 83.1527 130.971 81.0541 132.559C80.4302 133.013 79.7779 133.438 79.0689 133.778C78.6435 135.622 76.8852 136.785 75.0135 137.125C74.2761 137.267 73.5671 137.267 72.8865 137.182C70.6461 146.54 65.7966 155.105 60.5216 163.159C55.5587 170.731 50.1136 178.019 45.0372 185.62C39.9325 193.305 35.5934 201.501 32.8142 210.491C31.2544 215.482 30.1484 220.616 29.0423 225.749C27.8512 231.25 26.7168 236.809 25.6108 242.367C24.9869 245.572 24.363 248.748 23.9943 252.01C26.7168 252.237 30.0349 252.322 30.4887 252.86C30.8857 253.371 31.7932 254.278 33.4381 255.384C33.5515 252.01 33.9486 248.663 34.6575 245.374C39.7623 221.353 58.0827 193.958 73.397 168.065C93.1921 134.516 109.641 104.852 101.501 101.675Z" fill="#2B2B37"/>
        <path opacity="0.25" d="M128.103 118.748C127.337 113.7 127.564 109.701 127.564 109.701C127.564 109.701 126.317 108.879 119.142 106.865C114.15 105.476 97.3612 100.144 88.3712 97.7052C84.0889 104.029 77.4527 100.995 73.0853 101.959C65.4565 100.258 60.3801 104.483 60.3801 104.483C56.6934 104.738 52.6096 97.9321 47.7033 99.8889C51.2483 107.121 57.8561 114.352 69.5687 112.396C82.5858 110.212 120.673 114.012 128.103 118.748Z" fill="#2B2B37"/>
        <path opacity="0.25" d="M75.5809 109.758C77.8213 109.333 80.005 108.68 82.2454 109.474C83.3798 109.9 84.4575 110.439 85.6202 110.751C87.0666 111.091 88.5413 111.261 90.016 111.318C96.6522 111.573 105.188 109.815 107.996 103.547C101.36 101.505 93.5326 99.1232 88.3144 97.7052C84.0321 104.029 77.3959 100.995 73.0285 101.959C65.3997 100.258 60.3233 104.483 60.3233 104.483C56.6365 104.738 52.5527 97.9321 47.6465 99.8889C53.2617 103.831 60.5502 107.149 68.4342 109.9C70.8732 110.212 73.2554 110.212 75.5809 109.758Z" fill="#2B2B37"/>
        <path opacity="0.25" d="M70.1355 139.904C61.7977 144.016 55.0481 156.948 48.9507 165.995C33.7499 188.626 24.8733 215.88 22.1508 232.498C22.1508 234.654 22.1792 236.837 22.2075 239.021C22.2359 241.403 22.321 243.786 22.406 246.168C23.2285 247.813 24.5047 249.032 26.2346 249.032C28.7019 249.06 30.4886 246.593 31.708 244.324C39.904 229.01 41.7757 211.172 47.9298 195.291C51.1344 187.038 55.4735 179.381 60.0961 172.007C63.2441 166.988 67.3562 162.422 68.916 156.636C69.5116 154.396 75.3253 137.352 70.1355 139.904Z" fill="#2B2B37"/>
        <path opacity="0.25" d="M50.3689 104.682C50.3689 104.682 55.6722 116.593 61.0038 123.172C66.3638 129.78 72.8298 135.877 72.8298 135.877L81.0542 132.559C81.0542 132.559 71.4402 129.213 64.7757 122.945C58.1111 116.706 50.3689 104.682 50.3689 104.682Z" fill="#2B2B37"/>
        <path d="M71.27 146.626C72.2626 145.576 73.3118 144.584 74.3328 143.563C76.7717 141.152 79.1539 138.628 81.4511 136.047C60.4082 122.803 58.4513 117.217 45.8029 96.7409C45.6327 96.4857 46.7955 124.76 71.27 146.626Z" fill="#2B2B37"/>
        <path d="M72.8865 130.347C72.4327 131.623 71.8655 132.871 71.2416 134.006C69.7953 136.615 67.9519 139.11 65.7398 141.152C67.4414 143.024 69.2848 144.839 71.2983 146.626C72.2909 145.576 73.3402 144.584 74.3612 143.563C76.8001 141.152 79.1824 138.628 81.4795 136.048C78.1614 134.006 75.3538 132.106 72.8865 130.347Z" fill="#21212B"/>
        <path d="M99.8566 99.5483C96.9071 111.119 28.5602 173.255 22.2076 236.213C22.2076 237.149 22.236 238.085 22.236 239.021C22.2927 243.502 22.5196 248.011 22.633 252.548H30.6021C30.6021 247.444 31.5096 242.339 33.2963 237.603C40.6131 218.233 67.7533 166.392 75.7791 155.076C102.21 117.585 104.025 99.5483 99.8566 99.5483Z" fill="#2B2B37"/>
        <path d="M66.1653 146.824C59.2172 154.651 53.4034 163.641 49.036 173.397C48.6957 174.134 48.3837 174.9 48.4121 175.694C48.4404 176.488 48.9793 177.339 49.745 177.424C50.2555 177.481 50.766 177.226 51.1914 176.914C54.5945 174.673 56.7215 170.873 58.4231 167.101C59.5575 164.634 60.5784 162.11 61.9681 159.784C63.3293 157.459 65.2861 155.786 66.8459 153.659C67.8669 152.241 68.1788 151.021 68.4057 149.291C68.6326 147.533 68.5192 144.158 66.1653 146.824Z" fill="#2B2B37"/>
        <path opacity="0.25" d="M56.7499 124.42C58.7067 127.227 59.756 123.853 58.9619 121.896C58.2813 120.251 57.1185 118.436 55.7289 117.273C54.7363 116.451 53.8005 115.997 53.4034 117.5C52.7795 119.826 55.5871 122.718 56.7499 124.42Z" fill="#464557"/>
        <path opacity="0.25" d="M89.0232 120.024C90.5263 118.181 88.059 118.096 86.9246 119.003C85.9604 119.769 84.9678 120.903 84.4857 122.066C84.117 122.889 84.0035 123.626 85.0812 123.598C86.7261 123.598 88.1441 121.13 89.0232 120.024Z" fill="#464557"/>
        <path opacity="0.25" d="M77.3104 129.241C74.3326 132.928 71.1847 136.898 67.9517 141.095C68.1786 141.634 68.7458 141.918 69.8802 141.776C73.5669 141.322 76.1477 135.452 77.8776 132.701C79.409 130.375 78.6717 129.354 77.3104 129.241Z" fill="#464557"/>
        <path opacity="0.14" d="M22.6046 116.054C22.4628 118.152 24.1077 120.421 26.2063 120.194C29.4677 119.854 38.2876 112.197 35.7635 109.389C32.5873 105.873 22.8315 112.821 22.6046 116.054Z" fill="#D8D8D8"/>
        <path opacity="0.14" d="M98.212 128.674C97.5881 128.305 93.7878 130.772 95.773 132.36C96.9358 133.268 98.8642 132.36 98.921 130.29C98.921 129.666 98.7224 128.986 98.212 128.674Z" fill="#D8D8D8"/>
        <path d="M105.844 121.335C105.526 127.076 108.001 132.614 111.089 137.522C114.864 143.502 131.285 161.956 119.255 171.247C117.599 172.53 115.518 173.303 114.09 174.813C111.796 177.243 111.784 180.944 112.8 184.029C113.81 187.06 125.201 203.001 110.879 215.505L102.63 208.666C113.368 205.887 113.673 198.102 111.926 191.567C110.127 184.896 105.275 179.217 109.18 175.241C111.023 173.371 116.189 172.882 117.426 170.572C126.389 153.916 96.8191 161.654 95.5811 139.47C95.2818 133.932 96.7512 128.452 98.2699 123.091C103.302 105.362 97.6566 103.834 91.911 98.2256C87.9294 94.3472 85.421 89.0435 85.3178 83.5929C85.2146 78.1423 87.5606 72.6116 91.8331 68.9374C88.0784 95.2931 107.463 92.5202 105.844 121.335Z" fill="#74A352"/>
        <path d="M99.0578 95.746C98.5671 95.3317 98.078 94.935 97.5703 94.5401C93.5395 91.3068 89.6555 88.0413 87.294 83.4703C86.6019 82.1508 86.1124 80.7936 85.7326 79.4078C86.5635 75.4487 88.6719 71.7022 91.8366 68.9728C89.7985 83.1891 94.5444 88.9314 99.0578 95.746Z" fill="#568040"/>
        <path d="M91.7431 81.7888C90.3122 79.4389 88.8248 76.7032 87.832 73.8479C88.8719 72.0205 90.2078 70.342 91.8331 68.9375C91.0364 74.5831 91.2891 78.8806 92.1652 82.4589C92.0313 82.2408 91.8788 82.0245 91.7431 81.7888Z" fill="#3E5C2E"/>
        <path opacity="0.49" d="M111.528 138.173C114.316 142.311 121.285 150.824 123.135 158.789C118.584 149.488 89.5025 147.484 105.94 117.145C105.956 118.46 105.942 119.849 105.844 121.335C105.526 127.076 108.001 132.614 111.089 137.522C111.2 137.69 111.312 137.874 111.442 138.057C111.464 138.09 111.506 138.14 111.528 138.173Z" fill="#AED888"/>
        <path d="M103.808 115.682C102.402 119.893 99.5277 123.484 97.1458 127.31C97.5144 125.905 97.9015 124.497 98.2886 123.089C101.478 111.82 100.358 107.091 97.6447 103.711C98.7572 104.153 99.8074 104.726 100.758 105.433C102.703 106.897 104.148 109.014 104.396 111.356C104.558 112.816 104.271 114.285 103.808 115.682Z" fill="#3E5C2E"/>
        <path opacity="0.49" d="M110.817 141.818C107.736 139.097 106.153 135.961 106.957 131.916C107.072 131.371 107.23 130.875 107.425 130.376C108.381 132.861 109.667 135.261 111.089 137.523C112.376 139.549 115.118 143.033 117.712 147.101C115.434 145.296 112.973 143.724 110.817 141.818Z" fill="#AED888"/>
        <path d="M141.003 216.59C135.836 218.014 127.75 212.157 130.675 200.929C136.739 177.606 136.623 169.026 132.48 154.755C129.965 146.087 131.638 160.154 131.638 160.154C131.638 160.154 132.284 175.155 131.596 180.073C130.926 184.992 128.453 198.505 128.066 203.002C127.678 207.5 128.515 212.997 131.202 215.078C133.872 217.14 141.003 216.59 141.003 216.59Z" fill="#74A352"/>
        <path d="M95.7248 113.284C90.5539 145.042 117.637 138.536 125.235 143.536C127.047 144.737 128.503 146.417 129.68 148.286C130.983 150.35 131.952 152.623 132.55 155.006C133.43 158.476 133.497 162.109 133.415 165.702C133.231 174.722 132.271 183.752 130.17 192.498C126.453 208.064 127.773 208.814 138.68 220.908C129.072 217.216 127.569 210.358 127.683 202.611C127.794 195.039 141.362 139.368 112.583 144.212C111.454 144.488 110.381 144.687 109.974 144.779C94.5777 148.028 81.7471 137.766 92.0679 110.476C94.5293 103.938 100.69 89.2135 91.9982 80.1224C102.241 84.7115 97.2428 103.913 95.7248 113.284Z" fill="#3E5C2E"/>
        <path d="M112.583 144.231C111.454 144.507 110.381 144.706 109.974 144.798C108.327 145.145 106.719 145.338 105.15 145.357C105.912 144.864 106.675 144.352 107.475 143.879C109.409 142.724 111.767 141.555 114.232 140.716C118.744 141.525 122.91 141.982 125.235 143.517C127.047 144.718 128.503 146.398 129.68 148.267C130.984 150.331 131.952 152.603 132.551 154.987C133.431 158.457 133.497 162.09 133.416 165.682C133.231 174.703 132.271 183.733 130.17 192.479C126.453 208.045 127.773 208.795 138.68 220.889C129.072 217.196 127.569 210.338 127.683 202.592C127.813 195.059 141.362 139.388 112.583 144.231Z" fill="#568040"/>
        <path d="M95.7243 113.284C92.3301 134.148 102.834 138.489 112.611 140.445C104.735 142.975 96.7502 142.433 90.1545 136.961C87.4746 131.248 87.5079 122.535 92.0672 110.496C94.5286 103.957 100.69 89.233 91.9975 80.1419C102.24 84.7117 97.2423 103.913 95.7243 113.284Z" fill="#568040"/>
        <path d="M96.2693 105.002C95.9321 106.911 95.5023 108.838 94.9813 110.686C93.9211 114.344 92.1463 117.587 89.9681 120.613C89.6115 121.092 89.2348 121.706 88.8028 122.319C89.3443 118.809 90.408 114.861 92.0489 110.496C93.1935 107.476 95.0976 102.727 95.9912 97.599C96.5324 100.117 96.7436 102.458 96.2693 105.002Z" fill="#3E5C2E"/>
        <path d="M103.067 137.584C99.793 136.674 96.3582 135.318 94.216 132.413C91.6562 128.942 91.55 124.072 93.3142 120.191C93.8076 119.096 94.484 118.119 95.2338 117.181C94.1577 129.649 98.7958 135.213 104.852 138.05C104.226 137.907 103.619 137.745 103.067 137.584Z" fill="#74A352"/>
        <path d="M130.792 153.865C132.328 159.525 131.678 168.888 130.868 174.713C131.618 158.724 127.905 142.507 112.657 144.213C118.49 139.628 128.391 145.025 130.792 153.865Z" fill="#3E5C2E"/>
        <path d="M47.1646 72.011C47.1646 72.011 44.1301 74.7902 43.5062 77.4277C42.9107 80.0651 46.2854 84.1773 46.2854 84.1773L50.8797 81.4831L47.1646 72.011Z" fill="#75A152"/>
        <path d="M100.594 72.89C100.594 72.89 103.629 77.3708 102.523 83.1279C101.417 88.8849 96.5388 90.2745 96.5388 90.2745L94.8939 87.8355L100.594 72.89Z" fill="#568040"/>
        <path d="M89.3637 88.4881C89.4204 93.6496 82.4156 97.9035 73.7375 98.017C65.0594 98.1304 57.9695 94.0466 57.9411 88.8851C57.9128 83.7237 64.8893 79.4697 73.5674 79.3563C82.2171 79.2429 89.307 83.3266 89.3637 88.4881Z" fill="#21212B"/>
        <path d="M47.1079 50.6846C46.9661 52.1877 46.8811 53.7191 46.8243 55.2222C46.7393 57.576 46.7109 59.9299 46.9094 62.2837C47.7035 71.2454 52.0425 79.3846 57.4309 86.0774C56.1831 81.0011 55.3606 75.8113 54.9636 70.5647C54.7367 67.4452 54.6516 64.2689 55.077 61.1777C55.7009 56.6118 57.4309 52.3011 58.1966 47.7636C58.5936 45.4097 58.7354 43.0275 58.8772 40.6453C59.019 38.2064 59.1608 35.7674 59.331 33.3285C59.5011 30.4075 58.0548 27.8835 55.7577 30.4642C54.1412 32.2509 52.7516 34.3211 51.5604 36.4765C49.1782 40.7871 47.6184 45.665 47.1079 50.6846Z" fill="#2B2B37"/>
        <path d="M97.9001 50.0604C98.0987 51.5635 98.1838 53.0665 98.2688 54.598C98.3823 56.9518 98.4673 59.3057 98.3255 61.6595C97.7016 70.6495 93.5328 78.9022 88.2862 85.7085C89.4206 80.6037 90.158 75.3856 90.4416 70.1107C90.6117 66.9911 90.6401 63.8149 90.158 60.7237C89.449 56.1861 87.6339 51.9322 86.7831 47.3946C86.3294 45.0691 86.1309 42.6869 85.9607 40.3047C85.7622 37.8658 85.5637 35.4269 85.3651 32.9879C85.1383 30.0669 86.5279 27.5145 88.8818 30.0385C90.5266 31.7968 91.973 33.8104 93.1924 35.9373C95.6314 40.1913 97.2762 45.0408 97.9001 50.0604Z" fill="#2B2B37"/>
        <path d="M100.906 46.9693C100.708 45.8916 100.197 44.8423 99.3748 44.3035C98.1837 43.5094 97.1628 43.5378 96.312 44.1333C93.9581 28.8191 84.2874 17.3902 72.8017 17.532C61.316 17.6738 51.8722 29.358 49.8303 44.7289C48.9512 44.1617 47.9303 44.1617 46.7675 44.9841C45.9451 45.5513 45.463 46.629 45.2644 47.7066C45.0943 48.7843 45.2077 49.8903 45.3212 50.968C45.8033 54.91 46.569 58.8236 47.6467 62.6238C47.8452 63.3328 48.0437 64.0134 48.4124 64.6374C49.1214 65.7717 50.3976 66.424 51.617 66.2822C51.7305 66.2539 51.8439 66.2538 51.9573 66.2255C55.9277 77.3141 64.0953 84.8578 73.4257 84.7443C82.756 84.6309 90.7818 76.8604 94.5253 65.6867C94.6388 65.715 94.7522 65.7434 94.8656 65.7434C96.0851 65.8568 97.3613 65.1762 98.0419 64.0134C98.4106 63.3895 98.6091 62.6805 98.7793 61.9999C99.7719 58.1714 100.481 54.2577 100.878 50.2874C100.991 49.153 101.076 48.047 100.906 46.9693Z" fill="#D58500"/>
        <path d="M87.4635 30.0956C89.1367 30.6344 90.81 31.23 92.4548 31.8822C88.0874 23.1191 80.884 17.4472 72.7732 17.5323C61.2875 17.6741 51.8437 29.3582 49.8018 44.7291C48.9226 44.1619 47.9017 44.162 46.7389 44.9844C45.9165 45.5516 45.4344 46.6292 45.2359 47.7069C45.0657 48.7846 45.1791 49.8906 45.2926 50.9683C45.5762 53.3788 45.9732 55.761 46.4837 58.1149C47.0225 57.7746 47.5897 57.491 48.1285 57.2358C49.0644 56.782 50.0003 56.4133 50.9929 56.073C52.0422 35.2287 64.3787 22.4668 87.4635 30.0956Z" fill="#B45F00"/>
        <path d="M71.809 51.4785C71.809 51.4785 82.614 50.4292 90.6966 52.5845C98.7507 54.7399 99.6582 55.0518 99.6582 55.0518L97.8149 60.7521L71.809 51.4785Z" fill="#B45F00"/>
        <path opacity="0.36" d="M100.906 46.9692C100.708 45.8916 100.197 44.8422 99.375 44.3034C98.1839 43.5093 97.1629 43.5377 96.3121 44.1333C95.8584 41.0988 95.0927 38.2061 94.1001 35.5403C94.0434 35.4269 94.015 35.3134 93.9583 35.2C93.6747 34.4343 93.3627 33.6969 93.0224 32.9596C92.9657 32.8178 92.909 32.7043 92.8522 32.5625C92.7672 32.364 92.6821 32.1939 92.5687 32.0237C92.4836 31.8819 92.4268 31.7401 92.3418 31.5983C92.2567 31.4281 92.1716 31.258 92.0582 31.0878C91.9731 30.946 91.9164 30.8042 91.8313 30.6624C91.7462 30.4923 91.6328 30.3221 91.5477 30.152C91.4626 30.0102 91.3775 29.8684 91.2925 29.7266C91.2074 29.5564 91.0939 29.4146 91.0089 29.2445C90.9238 29.1027 90.8387 28.9609 90.7536 28.8191C90.6685 28.6773 90.5551 28.5071 90.47 28.3653C90.3849 28.2235 90.2715 28.0817 90.1864 27.9399C90.1013 27.7981 89.9879 27.6563 89.9028 27.5145C89.7894 27.3727 89.7043 27.2309 89.5909 27.0891C89.5058 26.9473 89.3924 26.8339 89.3073 26.6921C89.1938 26.5219 89.0804 26.3801 88.9386 26.2383C88.8535 26.1249 88.7684 26.0115 88.6833 25.898C88.4848 25.6428 88.258 25.3875 88.0594 25.1607C88.0027 25.1039 87.946 25.0189 87.8893 24.9621C87.7191 24.7636 87.549 24.5935 87.3788 24.4233C87.2937 24.3382 87.2086 24.2532 87.1236 24.1681C86.9818 24.0263 86.84 23.8845 86.6982 23.7143C86.6131 23.6292 86.4996 23.5442 86.4146 23.4307C86.2728 23.2889 86.131 23.1471 85.9892 23.0337C85.9041 22.9486 85.7907 22.8635 85.7056 22.7785C85.5638 22.6367 85.422 22.5232 85.2802 22.4098C85.1667 22.3247 85.0817 22.2396 84.9682 22.1545C84.8264 22.0411 84.6563 21.8993 84.5145 21.7859C84.4294 21.7008 84.316 21.6441 84.2309 21.559C84.0607 21.4456 83.9189 21.3321 83.7488 21.2187C83.6637 21.162 83.5503 21.0769 83.4652 21.0202C83.295 20.9067 83.1249 20.7933 82.9547 20.6798C82.8696 20.6231 82.7845 20.5664 82.6994 20.5097C82.5009 20.3962 82.3024 20.2544 82.0755 20.141C82.0188 20.1127 81.9621 20.0559 81.9054 20.0276C81.3666 19.7156 80.7994 19.432 80.2605 19.1768C80.2322 19.1484 80.1754 19.1484 80.1471 19.1201C79.9202 19.0066 79.665 18.9215 79.4381 18.8365C79.353 18.8081 79.2963 18.7797 79.2112 18.7514C79.0127 18.6663 78.7858 18.6096 78.5873 18.5245C78.5022 18.4961 78.4171 18.4678 78.3037 18.4394C78.1052 18.3827 77.9067 18.326 77.7081 18.2693C77.6231 18.2409 77.5096 18.2126 77.4245 18.1842C77.226 18.1275 77.0275 18.0991 76.829 18.0424C76.7723 18.0424 76.7156 18.014 76.6872 18.014C76.6872 18.014 76.6872 18.014 76.7155 18.014C75.4677 17.7588 74.2199 17.617 72.9153 17.617C61.4296 17.7588 51.9858 29.443 49.9439 44.8139C49.0648 44.2467 48.0439 44.2467 46.8811 45.0691C46.0587 45.6363 45.5766 46.714 45.378 47.7916C45.2079 48.8693 45.3213 49.9753 45.4347 51.053C45.7183 53.4636 46.1154 55.8458 46.6259 58.1996C47.1647 57.8593 47.7319 57.5757 48.2707 57.3205C49.6603 56.6682 51.0784 56.1294 52.5531 55.704C53.5173 55.4204 54.5099 55.1368 55.5024 54.9383V54.683C54.0561 9.0524 119.624 35.0582 82.4159 67.615C79.8635 69.8554 76.6872 71.16 73.6527 72.4078C69.9943 73.9392 66.0239 75.3289 62.0819 75.4707C60.1818 75.5274 58.3101 75.2438 56.4383 74.8184C60.8057 81.0859 66.9031 84.9428 73.596 84.8577C82.9263 84.7442 90.9521 76.9737 94.6956 65.8C94.8091 65.8284 94.9225 65.8567 95.0359 65.8567C96.2554 65.9702 97.5316 65.2895 98.2122 64.1268C98.5809 63.5029 98.7794 62.7939 98.9496 62.1133C99.9422 58.2847 100.651 54.3711 101.048 50.4007C100.992 49.1529 101.077 48.0469 100.906 46.9692Z" fill="#B45F00"/>
        <path d="M100.906 46.9693C100.708 45.8916 100.197 44.8423 99.375 44.3035C98.1839 43.5094 98.9496 41.8362 98.0704 42.4034C97.56 39.1704 95.7165 36.4195 93.4761 34.1224L90.4417 33.4701C97.0211 41.5526 98.1555 54.4279 92.4268 62.5387C90.47 65.2896 89.9595 63.9567 87.0385 65.1195C85.9892 65.5449 84.8831 65.8001 83.7771 66.0553C83.295 66.5658 82.8129 67.0196 82.274 67.4733C79.6933 69.657 76.5454 71.0183 73.5109 72.2661C69.8525 73.7975 65.8821 75.1871 61.9401 75.3289C60.04 75.3856 58.1683 75.1021 56.2965 74.6767C60.6639 80.9441 66.7613 84.801 73.4542 84.716C82.7845 84.6025 90.8103 76.832 94.5538 65.6583C94.6673 65.6866 94.7807 65.715 94.8941 65.715C96.1136 65.8284 97.3898 65.1478 98.0704 63.9851C98.4391 63.3612 98.6376 62.6522 98.8078 61.9715C99.8004 58.143 100.509 54.2294 100.906 50.259C100.991 49.153 101.077 48.047 100.906 46.9693Z" fill="#B45F00"/>
        <path opacity="0.36" d="M81.5082 51.5068C80.147 50.5426 80.5156 41.0138 80.6007 40.7302L78.729 40.0212C75.6378 46.5439 75.5527 50.2023 75.5527 56.0727C75.5527 56.5265 77.623 56.6116 77.7931 57.037C77.9349 57.434 78.1618 57.7743 78.3887 58.0863C79.0409 58.9087 79.9485 59.5893 80.9127 59.646C81.9053 59.7028 82.9546 59.0505 83.2382 57.9728C83.3233 57.5758 83.3232 57.1787 83.2949 56.7817C83.1247 55.0518 81.7068 51.6486 81.5082 51.5068Z" fill="#B45F00"/>
        <g opacity="0.36">
            <path opacity="0.36" d="M66.9027 33.7538C66.9027 34.0374 66.9878 34.321 67.1296 34.5762C67.4982 35.2852 68.1505 35.7673 68.8312 36.0793C69.0013 36.1643 69.1998 36.2211 69.3984 36.1927C71.185 35.9658 68.973 33.5269 68.3491 33.2149C67.7819 32.9313 66.9311 32.7612 66.9027 33.7538Z" fill="#E2A040"/>
            <path opacity="0.36" d="M59.0472 44.3889C59.2457 43.9919 60.0114 43.9635 60.3234 44.0486C60.692 44.1337 61.1458 44.162 61.2309 44.6725C61.2876 45.183 60.8339 45.4666 60.4368 45.4666C60.1249 45.4666 59.3024 45.3248 59.1323 44.9845C58.9905 44.7292 58.9621 44.5307 59.0472 44.3889Z" fill="#E2A040"/>
            <path opacity="0.36" d="M81.7063 45.3245C81.7063 44.8991 82.3585 44.4453 82.6989 44.3319C83.0675 44.2185 83.4646 43.9916 83.7482 44.3886C84.0318 44.814 83.7482 45.2961 83.4079 45.4946C83.1526 45.6648 82.3586 45.9768 82.0466 45.7782C81.7914 45.6648 81.7063 45.4947 81.7063 45.3245Z" fill="#E2A040"/>
            <path opacity="0.36" d="M57.6007 50.7981C57.941 50.8264 58.2813 50.5995 58.4798 50.3159C58.5649 50.1741 58.65 50.0324 58.65 49.8622C58.65 49.7771 58.6216 49.692 58.5933 49.6353C58.3664 49.0398 57.4872 48.9263 57.0618 49.295C56.4379 49.7771 56.9484 50.7697 57.6007 50.7981Z" fill="#E2A040"/>
            <path opacity="0.36" d="M89.7889 50.2592C90.1293 50.2875 90.4696 50.0606 90.6681 49.777C90.7532 49.6352 90.8383 49.4934 90.8383 49.3233C90.8383 49.2382 90.8099 49.1531 90.7815 49.0964C90.5547 48.5009 89.6755 48.3874 89.2501 48.7561C88.6545 49.2098 89.165 50.2308 89.7889 50.2592Z" fill="#E2A040"/>
        </g>
        <path opacity="0.36" d="M71.3267 44.5019C69.6535 39.0852 60.2948 38.7732 55.2468 39.0568C55.0199 39.0568 54.793 39.0852 54.6229 39.227C54.5661 39.2554 54.5378 39.3121 54.5094 39.3688C54.4527 39.5673 54.6512 39.7091 54.793 39.7942C65.0876 44.275 68.8311 44.4452 68.8311 48.0752C68.8311 52.5276 65.2294 48.8409 46.7105 55.8741L49.5181 65.3179C52.5242 64.1267 55.502 62.8789 58.4514 61.546C69.3699 56.6398 74.5598 55.0517 71.3267 44.5019Z" fill="#B45F00"/>
        <path d="M68.1506 40.9567C67.4699 40.4746 61.883 38.1775 54.9349 40.0776C54.8782 40.0776 54.8215 40.0775 54.7647 40.1059C54.7364 40.1059 54.708 40.1343 54.6797 40.1626C54.6513 40.1626 54.6513 40.1626 54.6229 40.1626C54.4811 40.191 54.5095 40.5029 54.6513 40.4462C54.7364 40.4179 54.8498 40.3895 54.9349 40.3612C61.4293 39.5671 63.3577 44.133 67.2147 43.7643C68.5476 43.6225 69.5118 41.8926 68.1506 40.9567Z" fill="#323147"/>
        <path opacity="0.36" d="M87.6337 41.9211C87.5486 41.9778 87.4635 42.0345 87.3784 42.0913C85.9321 43.1689 84.4574 44.2466 82.6423 43.9346C80.5437 43.5943 78.1048 41.042 78.757 40.3613C78.9556 40.1628 80.3452 40.2479 80.6004 40.1912C81.6781 39.9359 82.7558 39.7374 83.8334 39.5956C84.8828 39.4538 85.9321 39.2837 86.9814 39.312C88.7397 39.3404 90.5264 39.3687 92.2563 39.624C92.4832 39.6523 92.6817 39.7091 92.8519 39.8508C92.8802 39.8792 92.9369 39.9359 92.9369 39.9926C92.9936 40.1912 92.7668 40.333 92.625 40.3897C91.5757 40.7584 90.4413 40.5598 89.3919 40.9002C88.768 41.127 88.2008 41.5241 87.6337 41.9211Z" fill="#B45F00"/>
        <path d="M80.0617 43.254C83.8902 43.963 86.1307 39.5673 92.54 40.9286C92.625 40.9569 92.7385 40.9853 92.8236 41.042C92.9654 41.0987 93.0221 40.8151 92.8803 40.7584C92.8519 40.7584 92.8519 40.7584 92.8236 40.73C92.7952 40.7017 92.7952 40.6733 92.7668 40.6733C92.7101 40.6733 92.6534 40.645 92.5967 40.645C85.7903 38.1777 80.09 39.9643 79.3527 40.3897C77.9347 41.1838 78.7855 42.9988 80.0617 43.254Z" fill="#323147"/>
        <path d="M60.2667 46.1184C60.2384 46.3169 60.21 46.5154 60.21 46.7423C60.21 47.9901 60.7772 49.0111 61.4578 49.0111C62.1385 49.0111 62.7057 47.9901 62.7057 46.7423C62.7057 46.5154 62.6773 46.3169 62.649 46.1184H60.2667Z" fill="#323147"/>
        <path fill-rule="evenodd" clip-rule="evenodd" d="M54.6261 44.5505C54.7875 44.3797 55.0568 44.3722 55.2275 44.5336C56.0777 45.3373 56.8412 45.6691 57.5868 45.8005C58.2471 45.917 58.9001 45.8805 59.6447 45.8389C59.7701 45.8318 59.8982 45.8247 60.0293 45.8181C60.9225 45.7732 61.9133 45.7604 63.0343 46.0631C64.1578 46.3665 65.3852 46.9789 66.7792 48.1466C66.9593 48.2975 66.983 48.5658 66.8322 48.7459C66.6813 48.926 66.413 48.9497 66.2329 48.7988C64.9185 47.6978 63.7992 47.151 62.8125 46.8845C61.8234 46.6174 60.9407 46.6241 60.072 46.6678C59.9512 46.6739 59.8296 46.6808 59.7074 46.6878C58.9676 46.7299 58.2045 46.7734 57.439 46.6384C56.5211 46.4765 55.6079 46.0639 54.643 45.1518C54.4723 44.9904 54.4647 44.7212 54.6261 44.5505Z" fill="#323147"/>
        <path d="M85.9039 46.1184C85.9322 46.3169 85.9606 46.5154 85.9606 46.7423C85.9606 47.9902 85.3934 49.0111 84.7128 49.0111C84.0321 49.0111 83.465 47.9902 83.465 46.7423C83.465 46.5154 83.4933 46.3169 83.5217 46.1184H85.9039Z" fill="#323147"/>
        <path fill-rule="evenodd" clip-rule="evenodd" d="M91.5732 44.55C91.7346 44.7207 91.727 44.9899 91.5563 45.1513C90.5915 46.0634 89.6782 46.476 88.7603 46.6379C87.9948 46.7729 87.2318 46.7294 86.4919 46.6873C86.3697 46.6803 86.2481 46.6734 86.1273 46.6673C85.2587 46.6236 84.3759 46.6169 83.3868 46.884C82.4001 47.1505 81.2808 47.6973 79.9664 48.7983C79.7863 48.9492 79.518 48.9255 79.3672 48.7454C79.2163 48.5653 79.24 48.297 79.4201 48.1461C80.8141 46.9784 82.0416 46.366 83.165 46.0626C84.286 45.7599 85.2768 45.7727 86.17 45.8176C86.3012 45.8242 86.4292 45.8314 86.5547 45.8384C87.2993 45.88 87.9522 45.9165 88.6125 45.8C89.3581 45.6686 90.1216 45.3368 90.9718 44.5331C91.1426 44.3717 91.4118 44.3792 91.5732 44.55Z" fill="#323147"/>
        <path opacity="0.36" d="M66.7892 47.7916C65.7399 44.4735 59.8127 44.9272 62.1382 43.963C62.3934 43.8779 66.1369 43.7645 66.7892 47.7916Z" fill="#B45F00"/>
        <path d="M56.75 78.7325C56.5514 78.5907 53.0916 77.6832 53.0916 77.9101C53.0916 78.137 55.8141 85.7374 56.0126 86.0493C56.2111 86.3613 61.3159 90.3883 61.3159 90.3883C61.3159 90.3883 64.5773 87.4673 64.5773 87.2404C64.5773 87.0135 64.1802 84.6313 64.1802 84.6313L56.75 78.7325Z" fill="#21212B"/>
        <path d="M97.5317 73.8263C99.2049 69.5724 100.368 56.1867 100.368 56.1867C72.802 49.2102 73.3124 49.2102 45.9169 56.8673C45.9169 56.8673 46.3423 60.7526 46.9946 64.9781C47.5334 66.0274 48.1857 67.0767 48.6678 68.0693C49.6037 69.9411 50.5679 71.7561 51.4754 73.6278C52.2695 75.2727 53.0919 76.8892 54.0278 78.449C54.1129 78.5624 54.2263 78.6758 54.3114 78.7893C57.0339 82.1074 60.9759 84.1776 64.5776 86.021C65.8254 86.6449 67.0733 87.127 68.3211 87.439C72.2348 87.4957 76.3186 87.4106 80.2039 87.2405C84.2593 86.5031 88.3147 85.4538 92.0299 83.4403C93.5329 82.6178 94.8375 84.915 93.7031 85.9359C95.6032 85.5956 97.2197 85.2269 98.3824 84.7732L98.3257 80.1222C97.1346 78.534 96.3973 76.7474 97.5317 73.8263Z" fill="#464558"/>
        <path d="M97.5314 73.8261C99.2047 69.5721 100.367 56.1864 100.367 56.1864C87.4637 52.925 80.7141 51.1667 74.3899 51.0249C74.1347 52.0175 73.8227 53.0101 73.4824 53.9743C72.6032 56.3566 71.3271 58.682 69.427 60.3553C67.2433 62.3121 64.1804 63.4181 61.2877 63.3897C56.977 63.333 55.1336 59.1074 55.0769 54.3146C53.4604 54.7684 47.7601 56.3565 45.8884 56.867C45.8884 56.867 46.3137 60.7523 46.966 64.9779C47.5049 66.0272 48.1571 67.0765 48.6392 68.0691C49.5751 69.9408 50.5394 71.7558 51.4469 73.6276C52.2409 75.2724 53.0634 76.8889 53.9992 78.4487C54.0843 78.5621 54.1978 78.6756 54.2828 78.789C57.0054 82.1071 60.9474 84.1774 64.5491 86.0207C65.7969 86.6446 67.0447 87.1268 68.2926 87.4387C72.2062 87.4954 76.29 87.4103 80.1753 87.2402C84.2307 86.5028 88.2862 85.4535 92.0013 83.44C93.5044 82.6176 94.8089 84.9147 93.6745 85.9356C95.5746 85.5953 97.1911 85.2267 98.3539 84.7729L98.2971 80.1219C97.1344 78.5338 96.3971 76.7471 97.5314 73.8261Z" fill="#323147"/>
        <path d="M48.6958 68.0692C49.6317 69.941 50.596 71.756 51.5035 73.6277C52.2975 75.2726 53.12 76.8891 54.0558 78.4489C54.1409 78.5623 54.2544 78.6757 54.3394 78.7892C57.062 82.1072 61.004 84.1775 64.6057 86.0209C65.8535 86.6448 67.1013 87.1269 68.3492 87.4389C70.0507 87.4672 71.7523 87.4672 73.4823 87.4389C73.3405 87.3821 77.7362 84.9716 77.5944 84.9148C73.9077 83.3834 61.1741 87.4389 53.9991 66.5662C52.8364 63.163 52.0139 59.6748 51.5318 56.1015C51.5035 55.8462 51.4751 55.591 51.4468 55.3358C49.3481 55.9313 46.9943 56.5836 45.9166 56.8672C45.9166 56.8672 46.342 60.7524 46.9943 64.978C47.5615 66.0557 48.2137 67.0766 48.6958 68.0692Z" fill="#2B2B37"/>
        <path d="M74.5318 87.4105C74.5885 87.3538 74.6452 87.2687 74.6736 87.1837C75.496 85.9642 76.12 84.6029 76.3752 83.1282C76.6588 81.4834 76.4886 79.8102 76.1483 78.222C75.8363 76.7473 75.3542 75.301 75.2408 73.7979C75.1274 72.465 75.4677 71.1888 75.9781 69.941C76.4886 68.7215 77.1409 67.5872 77.4812 66.311C77.7364 65.3184 77.8783 64.2691 77.7932 63.2481C77.7365 62.1988 77.4529 61.0644 76.6871 60.2987C76.0349 59.6181 74.6169 59.0226 73.7377 59.6465C73.0004 60.1569 72.9153 61.348 72.8302 62.1705C72.7168 63.2765 72.5182 64.3258 72.0361 65.3467C71.4973 66.5378 70.7032 67.5872 69.9942 68.6648C69.1718 69.9126 68.4628 71.2455 68.1509 72.7202C67.4986 75.6129 68.321 78.3638 69.7957 80.8311C70.9301 82.7028 72.2346 84.6029 72.7735 86.7583C72.8302 86.9851 72.8586 87.1837 72.9153 87.4105C73.4825 87.4389 74.0213 87.4389 74.5318 87.4105Z" fill="#2B2B37"/>
        <path d="M97.5315 73.8262C99.2047 69.5723 100.367 56.1865 100.367 56.1865C100.396 55.8179 88.428 53.2088 87.1234 52.9252C84.0606 52.2445 80.6858 51.337 77.5379 51.2236C77.5662 53.8894 76.7721 57.6896 79.3245 59.5897C79.835 59.9584 80.4306 60.2136 80.941 60.5539C83.8905 62.5107 83.4934 66.8781 81.253 68.2961C80.3455 68.8633 78.8708 69.1752 79.8917 70.6783C80.4305 71.444 81.253 72.0112 81.9336 72.6068C82.5008 73.0889 83.1815 73.6561 83.38 74.4218C83.5218 75.0173 83.4083 75.6129 83.1247 76.1234C85.0532 80.746 74.1347 87.2971 58.5652 82.5326C60.522 83.8655 62.6207 84.9716 64.6058 85.9925C65.8537 86.6164 67.1015 87.0985 68.3493 87.4105C72.263 87.4672 76.3468 87.3821 80.232 87.212C84.2875 86.4746 88.3429 85.4253 92.058 83.4118C93.5611 82.5894 94.8657 84.8865 93.7313 85.9074C95.6314 85.5671 97.2479 85.1985 98.4106 84.7447L98.3539 80.0937C97.1345 78.5339 96.3971 76.7473 97.5315 73.8262Z" fill="#2B2B37"/>
        <path d="M97.5315 73.8264C99.2047 69.5724 100.367 56.1867 100.367 56.1867C100.396 55.7329 94.8656 54.6552 94.4119 54.5702C93.6462 54.4 92.8804 54.2015 92.0864 54.0313C91.8028 53.9746 91.2923 53.7477 91.0087 53.7761C90.6117 53.8328 90.5833 54.1731 90.3848 54.5134C89.534 56.0449 88.825 57.1792 88.9101 59.051C88.9101 59.1077 88.9101 59.1928 88.9101 59.2495C89.0235 60.9794 89.6191 62.6243 90.0161 64.2975C90.2714 65.3468 90.4699 66.4245 90.3564 67.4738C89.9878 70.8769 86.8115 73.1741 85.5069 76.322C85.1099 77.2862 84.9114 78.3355 84.3725 79.243C83.3516 80.9446 81.3664 81.767 80.0619 83.2417C79.4096 83.9791 78.9275 84.8866 78.1334 85.4538C77.2259 86.1061 76.0631 86.2195 74.9571 86.1628C74.078 86.1344 73.0853 85.8508 72.2345 85.9926C71.9226 86.0494 66.7328 87.3255 60.2951 83.6955C64.1237 91.2675 74.8153 88.0912 78.6439 87.4673C83.2382 86.7016 87.8608 85.6807 92.058 83.3835C93.6462 82.5044 95.0358 85.1986 93.4476 86.0777C93.4193 86.1061 93.3626 86.1061 93.3342 86.1344C95.4045 85.6807 97.1344 85.1986 98.4106 84.7448L98.3539 80.0938C97.1344 78.534 96.3971 76.7474 97.5315 73.8264Z" fill="#21212B"/>
        <path d="M90.4416 75.4992C89.449 78.2217 88.343 80.8876 86.8683 83.3265C85.4787 85.6236 83.8054 87.7506 81.962 89.5939C81.0829 90.4731 80.0903 91.1821 79.3246 92.203C78.9275 92.7135 78.5589 93.2523 78.1618 93.7061L78.1902 95.4077C83.9188 95.2942 89.6475 94.8688 95.3478 94.1315C96.1135 92.6568 96.9643 91.2104 97.6166 89.679C98.3256 88.0342 99.0062 86.2759 99.4316 84.5176C99.46 84.4041 99.4884 84.3191 99.5167 84.2056C96.3971 74.3365 116.164 32.3642 91.9163 12.9095C78.3603 2.04777 68.009 3.09708 55.8711 12.3423C29.8935 32.1373 50.7379 75.1022 47.5617 84.9713C47.4482 85.34 47.2781 85.7087 47.1079 86.049C47.7318 87.8073 48.5542 89.4522 49.405 91.0687C50.0573 92.2598 50.6812 93.4792 51.3619 94.642C51.3902 94.6987 51.447 94.7838 51.4753 94.8405C57.2323 96.2017 65.9955 99.6616 70.6748 99.7467C72.9436 99.7751 73.5959 99.2646 72.8302 96.3152L71.6391 96.3435L71.6107 94.4718C71.4973 94.3584 71.3839 94.2449 71.2704 94.1315C70.448 93.2523 69.4838 92.5717 68.4345 92.0612C59.9832 87.9491 55.7576 77.5411 52.8933 69.0332C49.008 57.4909 49.2065 42.1483 54.8218 35.5121C64.379 24.2534 81.4232 23.8847 91.2924 35.1151C97.9286 42.6588 100.708 55.3922 91.3491 72.9752C91.0371 73.826 90.7536 74.6484 90.4416 75.4992Z" fill="#464558"/>
        <path d="M47.8168 80.7173C47.9303 82.4756 47.8735 83.922 47.5332 84.9713C47.4198 85.3399 47.2496 85.7086 47.0795 86.0489C47.7034 87.8072 48.5258 89.4521 49.3766 91.0686C50.0289 92.2597 50.6528 93.4791 51.3334 94.6419C51.3618 94.6986 51.4185 94.7837 51.4469 94.8404C57.2039 96.2017 65.967 99.6615 70.6464 99.7466C72.3196 99.775 73.1137 99.4914 73.1137 98.1301C58.1114 89.764 50.6244 91.5791 47.8168 80.7173Z" fill="#323147"/>
        <path opacity="0.32" d="M96.7372 90.6149C97.4462 89.1402 98.1268 87.6372 98.7224 86.1058C99.006 85.3968 99.1762 84.6311 99.403 83.8937C97.1626 75.1306 110.492 44.1902 100.14 23.2041C100.481 26.8341 100.197 30.4642 99.0911 33.924C98.2119 36.7033 96.9074 39.3407 95.4043 41.7513C98.5239 49.3233 98.3254 59.788 91.3205 72.9753C91.0086 73.826 90.725 74.6485 90.413 75.4992C89.4204 78.2218 88.3144 80.8876 86.8397 83.3265C85.45 85.6236 83.7768 87.7506 81.9334 89.594C81.0543 90.4731 80.0617 91.1821 79.296 92.2031C78.6721 93.0539 78.0765 93.933 77.2257 94.5286V95.4077C83.1813 95.3226 89.1368 94.9256 95.0356 94.1315C95.6312 92.9688 96.17 91.806 96.7372 90.6149Z" fill="#323147"/>
        <path opacity="0.32" d="M89.5622 29.6701C89.3637 27.5432 88.0875 25.5013 86.5561 24.2818C85.2232 23.2041 83.5783 22.7787 81.9618 22.6937C78.587 22.5235 75.2973 23.6295 71.9508 23.8848C70.0507 24.0266 68.2074 23.6012 66.3073 23.431C64.0668 23.2041 62.0533 23.743 60.3233 25.4445C58.7068 27.061 57.5157 29.1313 56.1261 30.9747C54.7648 32.7613 53.12 34.2077 51.6169 35.8242C50.2273 37.3272 48.8944 38.9437 47.9301 40.8438C47.448 41.8081 47.051 42.829 46.7674 43.9067C46.4554 45.1261 46.2852 46.4023 46.0016 47.6218C45.4061 50.1742 44.5269 52.6414 44.1583 55.2222C43.9881 56.47 43.9881 57.6895 43.9881 58.9373C45.0091 65.3749 46.3704 71.3021 47.1644 76.0381C47.5615 76.7755 47.9868 77.4845 48.4122 78.1935C49.575 80.1219 50.8512 82.022 51.5318 84.2341C52.1841 86.276 52.2692 88.6015 51.6169 90.6433C51.3049 91.6076 50.8795 92.4584 50.3407 93.2241H51.0497L51.078 94.7555C56.4948 95.975 63.4429 99.6333 68.5193 99.6901C70.1074 99.7184 71.7807 99.4632 72.7165 98.2721C72.9434 97.9885 73.0285 97.1944 72.8583 96.4287L71.5254 96.4571L71.4971 94.4435C71.412 94.3585 71.3269 94.245 71.2135 94.1599C70.391 93.2808 69.4268 92.6002 68.3775 92.0897C59.9263 87.9775 52.2975 78.5054 49.4332 69.9975C45.5479 58.4552 49.1496 42.1767 54.7648 35.5406C63.6131 25.0759 78.9557 24.0266 88.995 32.9315C89.4772 31.9106 89.6757 30.8045 89.5622 29.6701Z" fill="#323147"/>
        <path d="M49.3768 44.7572C49.0365 45.9483 49.0649 47.1678 49.0081 48.3873C49.0081 48.5858 48.9798 48.8127 48.9798 49.0395C49.6887 45.7782 50.7097 42.7153 51.9292 40.163C50.9366 41.6377 49.8589 43.0273 49.3768 44.7572Z" fill="#464558"/>
        <path d="M97.4462 90.7C98.1552 88.885 98.9493 87.0983 99.5165 85.2266C99.5732 85.0564 99.6299 84.8863 99.6866 84.6878C99.6299 84.5743 99.6015 84.4325 99.5448 84.3191C97.9 79.5263 101.984 66.7361 103.572 52.6414C102.352 59.1074 96.7372 77.4844 96.6238 77.7397C96.1133 79.0442 95.4894 80.3771 94.6953 81.4831C93.9863 82.5041 93.0221 83.0996 92.0578 83.7803C91.4339 84.2057 90.8384 84.6878 90.4697 85.3968C90.2145 85.8789 90.101 86.4177 89.9876 86.9565C89.7607 88.0342 89.5338 89.1119 88.8816 89.9627C88.2577 90.7567 87.4068 91.2388 86.556 91.6642C85.3649 92.2598 84.1739 92.7986 82.8977 93.1106C81.3662 93.4793 79.8631 93.5076 78.3317 93.5076C77.9347 93.9614 77.5377 94.3868 76.9988 94.6704C76.5734 94.9256 72.9718 98.0452 72.5464 98.3004C79.3811 98.3004 88.7965 95.4361 96.085 94.0464C96.5387 92.9971 96.9924 91.8344 97.4462 90.7Z" fill="#323147"/>
        <path d="M54.8218 35.4839C62.0819 26.9193 73.7093 24.6505 83.1815 29.0179C82.4158 28.5074 81.6501 27.9969 80.9694 27.373C80.4873 26.9193 80.147 26.8342 79.5231 26.7207C79.2395 26.664 79.0126 26.6073 78.7574 26.4655C77.9066 26.0401 77.0841 25.558 76.1766 25.2744C75.7796 25.161 75.3826 25.0475 74.9572 24.9624C74.9005 24.9624 74.8437 24.9624 74.787 24.9341C73.5959 24.8206 72.4048 24.6221 71.2137 24.5938C69.9942 24.537 68.8031 24.8774 67.5836 24.9057C66.2507 24.9625 65.1163 24.9624 63.9819 25.8132C63.0744 26.4939 62.252 27.2312 61.3161 27.8268C59.3593 29.0746 57.3458 30.1806 55.8144 32.1374C55.1054 33.0449 54.5098 34.0942 54.0844 35.2003C53.9709 35.4555 53.0351 37.7526 52.3261 38.5751C38.3731 54.2863 49.4334 98.2154 73.2272 97.478C73.4257 96.0884 71.7525 94.5853 71.3838 94.1599C70.4763 93.1957 69.3986 92.4584 68.2642 91.8912C59.8698 87.7507 55.5307 77.6263 52.6664 69.1751C49.2916 59.1925 48.3557 46.3456 52.6664 38.5751C53.3187 37.6959 54.3964 36.0227 54.8218 35.4839Z" fill="#323147"/>
        <path d="M43.9314 40.5599C47.2212 38.2912 50.4258 35.7104 53.0349 32.4774C55.8425 28.9892 58.083 24.8204 59.5577 20.4246C60.607 17.3334 61.2309 14.1004 61.2592 10.7823C61.2592 10.1017 61.2593 9.44943 61.2025 8.7688C59.4442 9.78975 57.6576 10.9809 55.8425 12.3705C46.1151 19.8007 42.9389 30.4923 42.6269 41.4391C43.0807 41.1271 43.5061 40.8435 43.9314 40.5599Z" fill="#575770"/>
        <g opacity="0.25">
            <path opacity="0.25" d="M72.7165 23.9981C72.518 23.9981 72.3479 23.8847 72.2628 23.6862C71.5821 21.9562 71.8374 20.0845 72.0642 18.2978C72.2344 17.05 72.3762 15.7738 72.2344 14.5827C72.1777 14.1573 72.0926 13.7036 71.9792 13.2498C71.8941 12.9095 71.809 12.5408 71.7523 12.1722C71.412 10.2153 71.6672 8.17345 71.8941 6.35843C71.9224 6.04648 72.1777 5.84796 72.4329 5.90468C72.6882 5.93304 72.8867 6.21664 72.8583 6.52859C72.6314 8.34361 72.4046 10.187 72.7165 11.9736C72.7732 12.314 72.8583 12.6259 72.915 12.9662C73.0285 13.42 73.1419 13.9021 73.1986 14.4126C73.3688 15.7455 73.1986 17.1067 73.0285 18.4396C72.8016 20.1696 72.6031 21.7861 73.1703 23.2608C73.2837 23.5444 73.1703 23.8563 72.915 23.9698C72.8583 23.9981 72.7732 23.9981 72.7165 23.9981Z" fill="#2B2B37"/>
        </g>
        <path d="M90.8953 34.2643C89.9027 33.3001 88.825 32.4493 87.6906 31.7403C88.9668 32.7045 90.1863 33.8389 91.2923 35.1151C97.9285 42.6588 100.679 55.3639 91.349 72.9468C91.0371 73.7976 90.7251 74.6484 90.4132 75.4992C89.4206 78.2217 88.3145 80.8875 86.8398 83.3265C86.2726 84.2907 85.6487 85.1982 84.9681 86.0773C90.8669 80.5472 95.8582 73.9111 98.3255 65.6017C102.069 53.2369 98.4106 41.5811 90.8953 34.2643Z" fill="#575770"/>
        <path d="M102.267 65.8286C102.04 63.9852 102.097 62.1418 102.296 60.2985H102.211L101.076 66.3107C99.7433 70.1676 98.6373 74.1096 97.7298 78.1083C97.4745 79.2143 97.2477 80.3204 96.879 81.398C95.6595 85.1131 93.1922 88.0909 90.7533 90.9836C91.1503 91.4657 91.8593 91.3523 92.4265 91.1537C94.5819 90.4164 96.5954 89.1686 98.2686 87.467C98.8358 86.8998 99.403 86.2475 99.6866 85.4535C100.339 83.7235 99.7433 81.71 100.169 79.895C100.481 78.5337 101.331 77.4277 101.927 76.1799C102.693 74.6201 103.061 72.8334 103.005 71.0468C102.948 69.2601 102.494 67.5585 102.267 65.8286Z" fill="#323147"/>
        <path d="M47.845 70.1108C47.3912 66.1405 46.7673 62.1701 46.1434 58.2282C45.8598 56.2997 45.5479 54.3712 45.2643 52.4711C45.0657 51.195 44.8672 49.9188 44.5553 48.671H42.882C43.1089 50.6561 43.4493 52.6413 43.6194 54.5414C43.903 57.8595 43.9881 61.2343 43.4776 64.5523C43.194 66.3106 42.7686 68.154 43.3642 69.7989C43.591 70.4512 43.9597 70.99 44.3 71.5855C45.8882 74.3648 46.6823 77.7112 46.4837 81.0009C46.427 81.9935 46.2852 83.0145 46.5121 83.9787C47.3062 87.6087 54.0558 93.9046 56.1544 93.7628C52.3826 88.3744 48.3555 74.4782 47.845 70.1108Z" fill="#464558"/>
        <path d="M46.5121 80.2351C46.5121 80.4903 46.5121 80.7172 46.4838 80.9724C46.4271 81.965 46.2853 82.986 46.5121 83.9502C47.3062 87.5802 54.0558 93.876 56.1545 93.7342C55.2753 92.4864 61.9682 94.6701 60.7771 92.7417C56.2963 90.0191 52.4677 90.4162 46.5121 80.2351Z" fill="#323147"/>
        <path d="M48.4122 75.1305C48.2137 73.4573 48.0435 71.7841 47.845 70.1108C47.3912 66.1405 46.7673 62.1701 46.1434 58.2282C45.8598 56.2997 45.5479 54.3712 45.2643 52.4711C45.0657 51.195 44.8672 49.9188 44.5553 48.671H42.882C43.1089 50.6561 43.4493 52.6413 43.6194 54.5414C43.903 57.8595 43.9881 61.2343 43.4776 64.5524C43.194 66.3107 42.7686 68.154 43.3642 69.7989C43.591 70.4512 43.9597 70.99 44.3 71.5855C44.7821 72.408 45.1792 73.2871 45.4911 74.1946C46.427 73.4289 47.9584 73.5707 48.4122 75.1305Z" fill="#464558"/>
        <path d="M42.9105 93.0536C43.4209 94.7268 44.3852 96.1731 45.3494 97.6195C46.3704 99.1225 47.3913 100.682 48.8093 101.788C50.2273 102.923 51.9572 103.547 53.6872 104.085C57.771 105.362 61.9966 106.127 66.2505 106.411C70.1074 106.666 73.9644 106.496 77.7929 107.063C80.6856 107.489 83.6067 108.311 86.5277 108.027C88.5129 107.829 90.4414 107.12 92.2848 106.326C95.2909 104.993 98.2687 103.32 100.396 100.711C102.494 98.1016 103.6 94.4148 102.494 91.2102C102.239 90.4445 101.672 89.5937 100.878 89.6504C100.396 89.6788 99.9986 90.0758 99.6299 90.4161C93.8162 96.2015 86.471 100.682 78.4452 101.391C76.4317 101.561 74.4181 101.505 72.4329 101.42C70.9299 101.363 69.4268 101.306 67.9521 100.966C65.9102 100.484 64.0385 99.4628 62.0533 98.8389C60.0114 98.215 57.8277 98.0165 55.8141 97.2508C51.9572 95.7761 49.1496 92.3446 46.5121 89.0832C45.4628 87.7787 45.1792 86.3607 44.4419 85.0278C42.5701 86.9846 42.1448 90.5012 42.9105 93.0536Z" fill="#75A152"/>
        <path opacity="0.37" d="M102.466 91.182C102.211 90.4163 101.644 89.5655 100.849 89.6222C100.367 89.6506 99.9703 90.0476 99.6016 90.3879C93.7879 96.1733 86.4427 100.654 78.4169 101.363C76.4034 101.533 74.3899 101.477 72.4047 101.391C70.9016 101.335 69.3985 101.278 67.9238 100.938C66.4775 100.597 65.1162 99.9735 63.7266 99.4346C64.8893 101.59 65.3147 104.171 63.8684 106.156C64.6624 106.241 65.4282 106.326 66.2222 106.354C70.0792 106.61 73.9361 106.439 77.7646 107.007C80.6573 107.432 83.5784 108.254 86.4995 107.971C88.4846 107.772 90.4131 107.063 92.2565 106.269C95.2626 104.936 98.2404 103.263 100.367 100.654C102.466 98.1017 103.572 94.3866 102.466 91.182Z" fill="#568040"/>
        <path d="M102.466 91.1818C102.211 90.4161 101.643 89.5653 100.849 89.622C100.367 89.6504 99.9702 90.0474 99.6015 90.3878C93.7878 96.1731 86.4426 100.654 78.4168 101.363C76.4032 101.533 74.3897 101.476 72.4045 101.391C70.9015 101.335 69.3984 101.278 67.9237 100.938C65.8818 100.455 64.01 99.4345 62.0248 98.8106C59.9829 98.1867 57.7992 97.9882 55.7857 97.2224C51.9288 95.7477 49.1212 92.3162 46.4837 89.0548C45.4344 87.7503 45.1508 86.3323 44.4135 84.9994C44.1582 85.283 43.9313 85.5666 43.7045 85.9069C44.0448 88.119 45.5195 90.1042 46.427 92.061C47.533 94.5283 48.2137 97.1941 50.0287 99.236C51.7019 101.108 53.8289 102.1 56.2111 102.469C57.4022 102.639 58.6217 102.667 59.8128 102.838C60.9756 103.008 62.1099 103.32 63.2727 103.518C64.5489 103.717 65.8251 103.745 67.1012 103.944C68.3774 104.114 69.6253 104.341 70.9015 104.483C72.0926 104.624 73.2553 104.766 74.4181 105.05C75.751 105.362 77.0555 105.73 78.4168 105.844C80.7706 106.042 83.323 106.156 85.6485 105.702C86.9247 105.447 88.1725 104.993 89.4487 104.681C90.0159 104.539 90.6115 104.454 91.1787 104.284C91.6608 104.142 92.1145 103.915 92.5967 103.83C93.5042 103.688 94.2699 104.171 94.8654 104.936C96.9357 103.83 98.8358 102.441 100.31 100.626C102.466 98.1016 103.572 94.3865 102.466 91.1818Z" fill="#568040"/>
        <path d="M49.4047 95.0388C49.8301 96.2866 50.2839 97.5912 51.1631 98.5838C52.1556 99.6614 53.602 100.257 54.9633 100.597C57.7425 101.306 60.7203 101.363 63.5279 101.675C65.9952 101.93 68.3491 101.817 70.7029 101.363C69.767 101.306 68.8312 101.193 67.9237 100.994C65.8818 100.512 64.01 99.4913 62.0248 98.8674C59.9829 98.2434 57.7992 98.0449 55.7857 97.2792C52.6377 96.0881 50.1988 93.5641 47.9584 90.8983C48.5539 92.2312 48.951 93.6492 49.4047 95.0388Z" fill="#3E5C2E"/>
        <path d="M75.8644 103.235C77.5376 103.915 79.3243 104 81.1109 103.887C82.8976 103.774 84.741 103.66 86.4993 103.32C88.1158 103.008 89.6756 102.611 91.2921 102.384C92.9369 102.129 94.5534 101.93 96.0565 101.193C97.276 100.597 98.5805 99.9166 99.5448 98.8957C100.651 97.7329 100.991 96.1448 101.218 94.585C101.445 92.9969 101.161 91.2953 101.36 89.7355C101.19 89.6505 101.019 89.6221 100.849 89.6505C100.367 89.6788 99.9701 90.0759 99.6015 90.4162C93.7877 96.2015 86.4426 100.682 78.4168 101.391C76.5734 101.561 74.73 101.505 72.8583 101.448C73.8509 102.1 74.7867 102.809 75.8644 103.235Z" fill="#3E5C2E"/>
        <path d="M62.7056 96.2871C65.5132 96.7408 95.7163 102.526 101.275 79.64C101.558 78.5056 101.558 79.6967 102.693 79.725C104.621 98.5275 84.7978 106.638 66.5625 102.895C36.6997 96.7975 42.8254 71.7276 45.2643 77.3995C46.2286 79.6967 44.8389 93.3944 62.7056 96.2871Z" fill="#75A152"/>
        <path d="M62.7056 96.2871C65.5132 96.7408 95.7163 102.526 101.275 79.64C101.558 78.5056 101.558 79.6967 102.693 79.725C104.621 98.5275 84.7978 106.638 66.5625 102.895C36.6997 96.7975 42.8254 71.7276 45.2643 77.3995C46.2286 79.6967 44.8389 93.3944 62.7056 96.2871Z" fill="#75A152"/>
        <path d="M45.6897 85.4819C45.4912 84.3475 45.3777 83.1848 45.3777 82.022C45.2927 81.1996 45.2076 80.1219 44.6971 79.4413C44.6404 79.3562 44.5553 79.2711 44.4702 79.2428C44.3001 79.1861 44.1299 79.2711 44.0164 79.3846C43.903 79.5264 43.8747 79.6965 43.8463 79.8667C43.7329 80.8309 44.215 81.7384 44.4135 82.6743C44.5837 83.44 44.5269 84.2624 44.5553 85.0565C44.5837 85.8506 44.6687 86.673 45.0658 87.3536C45.1792 87.5521 45.321 87.7223 45.5479 87.7507C45.7748 87.7507 45.9733 87.5522 46.0016 87.3253C46.0584 87.0984 46.0016 86.8432 45.9449 86.6163C45.8315 86.2193 45.7464 85.8506 45.6897 85.4819Z" fill="#AED888"/>
        <path d="M49.2063 93.2524C49.2063 93.3374 49.2063 93.4225 49.2347 93.4792C49.2914 93.6494 49.4899 93.7345 49.6601 93.7912C49.7735 93.8195 49.8869 93.8763 49.972 93.8763C50.0855 93.8763 50.1989 93.8479 50.2556 93.7345C50.3123 93.6777 50.3124 93.5927 50.3124 93.5076C50.3124 93.3091 50.284 93.0822 50.1706 92.912C49.8019 92.4583 49.2914 92.7135 49.2063 93.2524Z" fill="#AED888"/>
        <path d="M76.7718 98.8109C76.3464 98.8109 75.8926 98.8393 75.4672 98.9527C73.5104 99.4065 70.9297 99.8602 70.0222 101.136C69.6535 101.647 69.5117 102.554 70.3908 102.81C71.2983 103.065 72.2342 102.441 72.8581 101.704C73.5104 100.938 73.5671 100.201 78.9271 100.512L76.7718 98.8109Z" fill="#568040"/>
        <path opacity="0.37" d="M102.693 79.725C101.558 79.6966 101.558 78.5055 101.275 79.6399C96.4251 99.5767 72.9149 97.7617 65.0592 96.6557C67.1579 97.3647 69.2848 97.8751 71.3267 98.7827C73.1134 99.6051 75.0135 100.541 76.2897 102.129C76.6867 102.611 76.9703 103.15 77.1688 103.717C91.6323 103.093 104.252 94.869 102.693 79.725Z" fill="#568040"/>
        <path d="M54.5095 96.3722C58.6217 98.9246 63.613 99.0947 68.264 99.435C78.8705 100.257 94.3266 103.973 97.9566 92.1466C98.1835 91.3525 103.77 90.2749 102.693 79.6967C101.558 79.6684 101.558 78.4773 101.275 79.6116C95.7162 102.498 65.5131 96.7125 62.7055 96.2587C54.8498 94.9826 50.7093 91.6361 48.4689 88.0628C49.5182 91.4943 51.6735 94.5855 54.5095 96.3722Z" fill="#568040"/>
        <path d="M60.4652 96.4286C62.4788 96.7973 64.5207 96.8257 66.5342 96.854C64.5774 96.6272 63.1878 96.3719 62.6773 96.2868C57.8278 95.4928 54.4246 93.933 51.9573 92.0045C54.2261 94.3584 57.4307 95.8615 60.4652 96.4286Z" fill="#3E5C2E"/>
        <path d="M76.063 97.4494C80.9409 97.9315 85.9039 98.045 90.4981 95.9464C91.5758 95.4643 92.6818 94.812 93.561 93.9896C94.3551 93.2238 94.8655 92.2313 95.7447 91.5223C97.3612 90.2177 99.3464 89.7073 100.481 87.8072C101.757 85.6518 100.623 83.2129 100.027 80.7456C99.2613 91.4655 83.9754 97.1658 74.1062 97.2793C74.7869 97.336 75.4108 97.3927 76.063 97.4494Z" fill="#3E5C2E"/>
        <path d="M43.9031 92.43C44.1016 92.6852 44.3852 92.8837 44.5553 93.1673C44.7255 93.5077 44.7255 93.8763 44.7539 94.2734C44.7822 94.6421 44.8957 95.0675 45.1793 95.266C45.3778 95.4078 45.633 95.4078 45.8599 95.4078C45.9449 95.4078 46.03 95.4078 46.0868 95.351C46.1718 95.2943 46.2285 95.2093 46.2853 95.1242C46.8525 94.0465 46.0868 92.2882 45.3778 91.4658C45.0942 91.1254 44.3568 90.2747 43.9031 90.5583C43.3075 90.8986 43.6195 92.0613 43.9031 92.43Z" fill="#AED888"/>
        <path d="M72.0927 99.293C71.2419 99.293 70.4195 99.4064 69.597 99.6049C68.7462 99.8035 67.8671 100.144 67.3566 100.881C67.2999 100.966 67.2432 101.08 67.2148 101.193C67.1581 101.505 67.4133 101.817 67.6969 101.902C67.9805 101.987 68.2925 101.902 68.5761 101.789C69.6538 101.363 70.5329 100.484 71.6673 100.342C72.121 100.286 72.6032 100.371 73.0569 100.399C73.5107 100.427 74.0212 100.427 74.4182 100.201C74.6451 100.087 75.0704 99.7467 75.0704 99.4631C75.0421 99.1512 74.6167 99.293 74.4465 99.293C73.6525 99.3497 72.8584 99.293 72.0927 99.293Z" fill="#568040"/>
    </g>
</svg>
