<svg xmlns="http://www.w3.org/2000/svg" width="320" height="240" fill="none" viewBox="0 0 320 240"><g opacity=".96"><path fill="#5b98c3" d="M110.01 50.336c1.574 12.897-7.382 23.116-20.002 22.825-12.62-.29-24.127-10.982-25.702-23.878-1.574-12.897 7.382-23.116 20.002-22.825 12.62.29 24.127 10.981 25.702 23.878"/><path fill="#e7f7ff" d="M111.503 48.866c1.574 12.897-7.382 23.116-20.001 22.825-12.62-.29-24.128-10.981-25.702-23.878s7.381-23.116 20-22.825c12.62.29 24.129 10.981 25.703 23.878"/><path fill="#fff" d="M108.948 48.984c1.515 11.848-6.519 21.235-17.936 20.94-11.407-.296-21.816-10.15-23.264-21.972-1.438-11.787 6.577-21.091 17.911-20.816 11.348.275 21.778 10.043 23.286 21.853v-.005z" opacity=".7"/><path fill="#deeeff" d="M100.91 47.047c1.271 7.204-3.05 13.447-9.651 13.95s-12.983-4.932-14.253-12.136c-1.271-7.204 3.05-13.447 9.651-13.95s12.983 4.932 14.253 12.136"/><path fill="#96ccf3" d="M76.07 48.997c-1.38-7.817 3.325-14.592 10.46-15.136 7.094-.54 13.948 5.285 15.318 13.05 1.378 7.817-3.326 14.592-10.462 15.136-7.093.54-13.947-5.285-15.316-13.05M86.785 35.96c-6.067.462-10.005 6.174-8.842 12.766 1.172 6.643 7.08 11.687 13.19 11.221 6.066-.462 10.004-6.174 8.841-12.765-1.172-6.643-7.08-11.687-13.19-11.222"/><path fill="#96ccf3" d="M84.098 35.414c.596-.863 1.407-1.475 2.431-1.553 1.013-.078 1.981.387 2.827 1.108.846.72 1.634 1.749 2.34 2.965 1.413 2.435 2.592 5.791 3.246 9.5.654 3.707.676 7.163.143 9.765-.266 1.299-.682 2.44-1.272 3.294-.596.862-1.408 1.475-2.432 1.553-1.012.077-1.98-.388-2.825-1.108s-1.634-1.75-2.34-2.966c-1.413-2.434-2.593-5.79-3.247-9.5-.654-3.707-.676-7.162-.143-9.764.266-1.3.682-2.441 1.272-3.294m2.685.547c-.371.028-.76.247-1.14.795-.386.559-.721 1.41-.953 2.54-.462 2.256-.465 5.407.152 8.904s1.718 6.575 2.964 8.722c.624 1.075 1.26 1.873 1.856 2.381.595.507 1.083.672 1.466.642.37-.028.76-.246 1.14-.795.386-.559.721-1.409.953-2.54.462-2.255.464-5.406-.153-8.904-.616-3.495-1.716-6.575-2.962-8.722-.624-1.075-1.26-1.873-1.856-2.381-.595-.507-1.084-.671-1.467-.642"/><path fill="#96ccf3" d="M78.316 39.977c2.221 1.098 5.698 1.704 9.54 1.414 3.845-.29 7.005-1.406 8.762-2.785l1.173 1.74c-2.117 1.663-5.643 2.84-9.683 3.146-4.043.305-7.865-.314-10.477-1.605zM80.088 55.528c2.116-1.675 5.653-2.855 9.705-3.164 4.058-.31 7.895.317 10.509 1.616l-.689 1.91c-2.223-1.105-5.713-1.72-9.566-1.426-3.86.294-7.028 1.413-8.78 2.8zM100.782 45.998l.253 2.099-23.902 1.814-.253-2.1z"/></g><path fill="#74a352" d="M219.121 145.936c5.459 32.161 45.534 16.818 60.48 36.378-1.706 1.964-3.974 3.921-6.621 5.841-.08-.182-.899-.982-.899-.982-19.849-17.807-37.795-3.324-57.581-41.159l4.629-.078h-.008"/><path fill="#568040" d="M272.683 187.681s.268.225.348.408q3.972-2.887 6.621-5.842c-2.505-3.604-8.944-7.798-14.632-9.119-1.716 2.592-3.096 4.657-5.924 5.967 0 0 9.602 3.856 13.583 8.582z" opacity=".5"/><path fill="#568040" d="M268.554 184.096a33 33 0 0 1 4.196 3.58c.134.117.268.225.347.407q3.972-2.887 6.622-5.841c-1.357-1.884-3.234-3.353-5.115-4.754 0 0-3.301 5.176-6.118 6.613l.068-.001zM219.254 146.303c.916 4.884 2.846 9.5 6.204 13.132a22.7 22.7 0 0 0 3.458 3.016c-.225.332-.441.664-.665.996-.22.337-.371.787-.526 1.177-2.203-2.312-4.351-4.694-6.263-7.216-2.537-3.441-4.954-7.136-6.927-11.022l4.723-.079z" opacity=".5"/><path fill="#aed888" d="M229.866 164.747c-3.177-1.976 1.501-1.449 1.584.238-.535.363-1.124.036-1.584-.238M260.631 173.704l-1.178.101q.412.431.469 1.088c-1.156.411-2.569-.021-3.568-.691-1.886-2.215 6.956-2.048 4.277-.502z"/><path fill="#74a352" d="M212.411 147.527c1.291 4.639 3.161 8.949 5.77 12.419 5.32 7.117 12.658 11.607 20.322 16.195 8.455 5.022 17.542 10.174 22.974 18.658-3.724 1.764-7.591 3.36-11.537 4.833-.245-.67.727.435-2.972-6.069-3.7-6.505-9.907-11.658-10.451-12.114-12.212-10.66-25.271-19.929-30.967-33.807z"/><path fill="#568040" d="M215.715 155.817c6.663 13.094 23.197 20.044 33.363 26.795-3.874 2.222-3.303 7.304-2.046 10.954-7.379-12.071-22.264-20.806-32.279-31.52.048-.189-.537-5.407.957-6.229z" opacity=".5"/><path fill="#568040" d="M225.594 172.453c21.175 15.247 24.165 26.513 24.351 27.184a249 249 0 0 0 7.14-2.819c-7.874-10.587-21.075-16.946-31.491-24.365"/><path fill="#3e5c2e" d="M230.634 176.398a76 76 0 0 1 3.313 2.78c6.1 5.304 13.218 12.741 16.06 20.458.847-.325 1.634-.646 2.486-.907-3.955-10.116-13.197-16.319-21.79-22.269l-.069-.054z"/><path fill="#75a152" d="M175.059 93.432c3.096-2.268 6.18-4.519 9.268-6.723.771-.593 1.597-1.139 2.492-1.544 3.565-1.48 7.795.653 10.107 3.752 2.326 3.1 3.216 7.031 4.396 10.719 1.193 3.692 2.913 7.5 6.18 9.585-4.336.362-8.744.707-12.897-.593-1.316-.422-2.611-1.015-3.867-1.599-3.276-1.484-6.602-3.099-9.03-5.773-2.266-2.494-3.625-6.122-6.662-7.802l.017-.022z"/><path fill="#568040" d="M184.33 86.709c.771-.593 1.602-1.138 2.492-1.544.183-.06.362-.123.486-.183.123 1.139.651 2.209 1.435 3.1 1.014 1.194 2.428 2.208 3.987 2.494 1.358.243 2.734.243 4.106.303.485 0 .89.06 1.375.123 1.423 2.678 2.207 5.773 3.157 8.694 1.192 3.692 2.913 7.5 6.18 9.585-4.336.362-8.744.707-12.897-.593-1.312-.422-2.616-1.01-3.868-1.603-3.275-1.48-6.602-3.1-9.03-5.773-2.325-2.614-3.688-6.187-6.717-7.862 3.161-2.269 6.24-4.52 9.333-6.724l-.03-.021h-.004z"/><path fill="#aed888" d="M193.892 89.203c-1.478-.124-3.156-.831-3.803-2.328a4.03 4.03 0 0 1-.243-2.208c2.615.243 5.166 1.786 6.84 3.93-.83.47-1.844.653-2.798.593v.017h.004z"/><path fill="#3e5c2e" d="M184.331 86.709c.771-.593 1.602-1.138 2.492-1.544.124-.06.243-.123.422-.123-.124 1.786.83 3.326 2.083 4.46.651.592 1.435 1.138 2.206 1.603.89.528 1.844 1.07 2.854 1.415 1.661.653 3.382 1.01 5.119 1.377.708 1.847 1.253 3.808 1.845 5.714 1.192 3.692 2.913 7.499 6.18 9.584-4.336.363-8.744.708-12.897-.592-1.312-.422-2.611-1.015-3.868-1.603-3.275-1.484-6.602-3.1-9.029-5.773-2.326-2.614-3.689-6.187-6.717-7.862 3.156-2.21 6.239-4.46 9.332-6.669h-.017z"/><path fill="#464558" d="M87.192 154.922c6.42 7.098 26.306 16.355 32.631 8.105 2.395-1.678 18.83-17.315 22.328-24.317 1.39-2.878-4.648-13.814-3.641-16.26v-.048c.383-.911.718-1.727 1.006-2.542.671-1.823 1.485-3.789 2.204-5.708 1.246-3.645 2.156-7.291 2.013-10.84-.048-2.926-.863-5.66-2.636-8.25-.144-.191-.335-.431-.479-.671-.958-.72-1.917-1.2-3.019-1.343-.431-.096-.814-.096-1.293-.096-1.246 0-2.588.432-3.834 1.199-.191.144-.479.192-.718.384-.767.48-1.486.863-2.252 1.439-5.846 4.125-9.68 10.12-12.363 16.595a76 76 0 0 0-1.725 4.605c-.287.959-.623 1.918-.862 2.83-.384 1.103-.815 2.11-1.342 3.021-3.21 6.38-7.571 8.682-12.746 9.018-.622-.096-1.293-.096-1.916-.192-3.019-.48-6.038-1.199-9.056-1.823-3.45-.719-6.9-1.295-10.398-1.055l-1.246.096H77.8v.192c-1.485 6.907 7.044 21.152 9.248 25.756z"/><path fill="#2b2b37" d="M142.151 138.709c-3.545 7.003-19.933 22.64-22.328 24.318-6.325 8.25-26.162-1.007-32.631-8.106-2.204-4.604-10.733-18.85-9.248-25.756v-.192h.048c.431 0 .815-.048 1.246-.096 3.498-.24 6.948.384 10.398 1.055 2.54.48 5.127 1.103 7.666 1.583.623.144 1.102.288 1.39.336 11.931 13.142 25.491 2.925 31.96-13.43 3.21-8.154 7.091-16.644 7.043-25.373 0-.096 1.198-.048 2.54 1.007.191.192.383.336.575.575.958.96 1.868 2.495 2.396 4.893.239 1.055.431 2.254.479 3.645.191 3.549-.815 7.147-2.013 10.792v.336c-.719 1.87-1.437 3.693-2.108 5.468-.336.863-.671 1.678-1.006 2.542-1.054 2.446 5.031 13.43 3.641 16.26z" opacity=".2"/><path fill="#575770" d="M113.496 122.929c2.492 1.343 4.792-.335 6.038-2.446 3.546-5.708 15.093-17.986 10.206-24.653-5.846 4.125-9.679 10.12-12.362 16.595a76 76 0 0 0-1.725 4.605c-.288.959-.623 1.918-.863 2.83-.383 1.151-.862 2.158-1.342 3.069z"/><path fill="#2b2b37" d="M113.496 122.929c2.492 1.343 4.792-.335 6.038-2.446 3.546-5.708 15.093-17.986 10.206-24.653-5.846 4.125-9.679 10.12-12.362 16.595a76 76 0 0 0-1.725 4.605c-.288.959-.623 1.918-.863 2.83-.383 1.151-.862 2.158-1.342 3.069z" opacity=".2"/><path fill="#272734" d="M80.865 143.171c-.048 0-.336-.096-.336-.096s.192 0 .192.144q.095-.048.144 0 .046.048 0 0z" opacity=".2"/><path fill="#575770" d="M131.416 129.837c.288-4.509 1.869-36.837 3.115-36.55 11.739-4.268 29.276-4.364 40.728-7.002 4.6.672 26.977 7.387 32.679 8.921-1.581 9.401-8.146 79.813-5.463 92.619l-67.465-4.269c.91-11.079-4.6-39.474-3.594-53.672z"/><path fill="#2b2b37" d="M167.593 106.238c-10.254-.144-21.706-4.269-20.46-15.876 12.554-1.679 17.729-2.302 28.175-4.077 2.252 0 17.297 4.7 24.197 6.571-2.06 1.008-8.241 13.67-31.912 13.43z" opacity=".3"/><path fill="#2b2b37" d="M172.722 102.497c-13.464.288-25.874-12.71-39.099-6.62.239-.862.671-1.726.958-2.541 4.456-2.686 24.054-4.125 27.216-4.797 14.423-2.446 13.081-3.07 29.517 2.063-.192 2.35-4.552 11.607-18.592 11.943z" opacity=".2"/><path fill="#2b2b37" d="m202.475 187.777-67.465-4.269c.91-11.08-4.6-39.474-3.594-53.672.144-1.822.432-8.154.863-15.012 6.085 23.358 22.233 33.478 30.139 33.718 8.193.624 19.981-10.456 22.76-18.946 8.529-26.236 11.356-33.19 18.16-35.685l1.725.48 2.875.815c-1.581 9.449-8.146 79.812-5.463 92.571" opacity=".1"/><path fill="#2b2b37" d="m202.475 187.777-67.465-4.269c.862-10.312-3.882-35.541-3.69-50.458 4.265 5.516 20.46 37.844 49.162 17.795s10.925-21.92 11.5-28.731c1.102-12.902 10.158-27.82 15.381-27.052.191 0 .383.096.575.144-1.582 9.401-8.146 79.812-5.463 92.619z" opacity=".2"/><path fill="#2b2b37" d="M184.414 181.878c3.546-25.997 1.581-60.627 25.204-83.17-.096 3.981-1.054 7.434-3.354 16.404-2.588 13.717-5.75 58.324-4.025 69.356z" opacity=".1"/><path fill="#2b2b37" d="m201.709 179.911-14.327 2.11c2.636-12.422 1.102-25.804 5.271-38.515 3.977-8.441 5.367-13.813 6.421-22.495 1.246-8.49 4.312-10.312 11.835-16.164-.383 2.83-11.212 65.951-9.152 75.016z" opacity=".2"/><path fill="#2b2b37" d="M193.757 164.898c6.469-8.106 4.217-18.754 4.552-28.059.288-4.652 3.354-12.95 6.9-16.691-.91 18.85-3.546 59.763-3.546 59.763l-6.995 2.59c1.389-5.804 0-11.847-.911-17.603M135.01 183.508c.91-11.08-4.6-39.474-3.594-53.672.288-4.125 1.581-31.512 2.779-35.925v-.096c.096-.24.144-.431.24-.48a6.2 6.2 0 0 1 1.006-.575V93c-3.833 23.502-4.073 36.405 10.494 56.262 2.491 3.741 5.079 7.722 5.462 12.47-1.006 9.066 4.408 17.843 11.26 23.599l-27.647-1.775z" opacity=".2"/><path fill="#d8d8d8" d="M142.582 107.102c.575-2.447 4.073-4.653 4.648-1.487.575 3.309 1.485 6.331 2.156 9.593 1.534 7.434-12.554 7.818-6.804-8.106M172.288 120.675c.431-1.918 9.2-15.013 12.889-14.197 1.342.336 2.396 1.295 2.396 2.638.048 2.254-2.108 4.077-3.066 6.091-6.852 14.485-13.657 11.752-12.171 5.468z" opacity=".1"/><path fill="#565673" d="M215.174 211.615c-13.225 2.446-28.366 3.885-44.514 3.885-16.147 0-30.666-1.343-43.651-3.693 3.114-13.574 4.121-17.411 8.002-28.299 1.198.048 59.895-3.118 65.165-5.372 3.738 11.368 6.277 18.898 12.89 29.258a15.8 15.8 0 0 1 2.108 4.221"/><path fill="#2b2b37" d="M215.174 211.615c-13.225 2.446-28.366 3.885-44.514 3.885-16.147 0-30.091-1.247-43.651-3.693 3.114-13.574 4.121-17.507 8.002-28.299 1.198.048 59.895-3.118 65.165-5.372 3.738 11.368 6.277 18.898 12.89 29.258a15.8 15.8 0 0 1 2.108 4.221" opacity=".2"/><path fill="#2b2b37" d="M215.173 211.615c-9.631 1.823-20.316 3.07-31.672 3.549-9.487-9.496-25.06-10.024-34.356-.575-5.223-.432-10.302-.959-15.189-1.727 0-2.11-.144-4.173-.288-6.283-.335-3.501-.814-8.154-2.3-12.183 1.198-4.029 2.157-6.811 3.546-10.792 0 0 59.943-3.357 65.262-5.564 3.737 11.368 6.277 18.898 12.889 29.258.91 1.583 1.629 2.83 2.108 4.317" opacity=".2"/><path fill="#272734" d="M215.175 211.615c-7.523 1.391-15.668 2.446-24.245 3.118-1.246-10.744-5.031-20.721-10.302-29.978a132.4 132.4 0 0 0 19.55-6.715c3.737 11.368 6.277 18.898 12.889 29.258 1.006 1.583 1.629 2.926 2.108 4.317" opacity=".2"/><path fill="#2b2b37" d="M215.077 211.615c-1.055.192-2.013.336-3.067.575-13.848-22.159-45.281-13.813-61.716-8.01-2.779.96-6.133.96-8.145-1.247-.048-.048-2.348-6.954-8.146-13.334-1.198-1.343 2.108-8.585 2.108-8.585 11.213 1.726 58.793-.72 64.016-2.926 3.833 11.559 6.277 18.802 12.889 29.258.959 1.535 1.677 2.926 2.061 4.269" opacity=".2"/><path fill="#272734" d="M134.867 184.899c2.875 1.679 5.271 5.084 7.235 7.051 7.523 7.866 19.31 2.734 27.6-1.247 4.312-2.111 9.2-4.653 14.327-6.955-5.127 1.487-49.018.48-49.162 1.151" opacity=".2"/><path fill="#272734" d="M204.394 190.319c-9.631-2.494-19.838-2.974-29.756-2.11-5.99.575-11.931 1.487-17.921 1.87-6.756.48-16.722.72-22.76-3.885.336-.767.719-2.014.911-2.782-.336 1.199 51.653.048 65.165-5.372 1.486 4.269 2.923 8.73 4.361 12.279" opacity=".2"/><path fill="#2b2b37" d="M181.729 88.827c-4.744-2.926-17.537 18.034-30.139 42.688-6.613 12.95-9.392 30.217-16.819 41.921l3.259 2.638c1.533-1.631 3.018-3.31 4.312-4.941 4.312-5.324 7.523-11.031 10.254-16.931 2.683-5.852 4.983-11.799 7.666-17.651 2.157-4.652 20.652-46.237 21.419-47.724z" opacity=".2"/><path fill="#2b2b37" d="M164.958 117.414c-.48-.815-4.504-7.77-5.175-8.49-.671-.863-1.342-1.774-2.013-2.59-1.341-1.774-2.587-3.453-3.785-5.276-1.773-2.734-3.354-5.804-4.169-9.209-1.102.144-2.156.384-3.306.671 3.45 13.814 9.823 26.812 13.033 29.834 4.552 4.365 5.367-4.892 5.367-4.892z" opacity=".2"/><path fill="#2b2b37" d="M148.234 92.28s3.833 8.346 7.523 12.855c3.642 4.509 8.002 8.538 8.002 8.538l5.031-2.83s-6.229-1.871-10.685-6.092c-4.456-4.268-9.823-12.47-9.823-12.47z" opacity=".2"/><path fill="#2b2b37" d="M163.233 121.49c.575-.863 1.15-1.582 1.821-2.398 1.485-1.87 2.827-3.885 4.217-5.803-13.848-8.49-13.177-12.951-22.042-27.148-.143-.144-.431 20.864 16.004 35.349"/><path fill="#21212b" d="M153.698 104.128c1.102-.336 2.396-.672 3.641-.816-3.21-4.269-5.222-9.161-10.158-17.075 0-.048-.239 8.777 4.217 18.946.719-.528 1.629-.864 2.3-1.055"/><path fill="#575770" d="M158.011 106.813c-2.684-.911-.527 2.063.239 2.974.527.816.384 1.871.911 2.734 2.635 1.631 3.018-4.125-1.15-5.708" opacity=".3"/><path fill="#21212b" d="M163.568 109.596c-.239.911-.527 1.918-.91 2.782-.815 1.918-1.869 3.837-3.162 5.467 1.198 1.247 2.347 2.447 3.737 3.694.575-.864 1.15-1.583 1.821-2.399 1.485-1.87 2.827-3.885 4.216-5.803-2.252-1.391-4.12-2.59-5.749-3.741z"/><path fill="#2b2b37" d="M179.333 85.95c-1.198 7.578-33.493 46.908-41.687 87.822l1.39.144-.288 2.254 8.05.959c5.989-17.603 16.004-42.928 19.598-49.739 15.237-28.538 15.62-41.68 12.889-41.44z"/><path fill="#575770" d="M171.618 109.068c-1.485-.336-2.204 4.029-3.593 2.782.095-.767-.815-.863-1.294-.48-4.504 2.878-1.246 8.922 2.827 4.989 1.246-2.015 3.258-4.989 2.06-7.291" opacity=".3"/><path fill="#21212b" d="M173.006 105.615a22 22 0 0 1 2.684 2.014c5.845-14.917 5.606-21.872 3.689-21.68-.479 2.59-4.648 9.161-10.254 18.227 1.39.096 2.731.623 3.881 1.439M165.485 121.203c-2.156.336-4.36.24-6.516-.144-8.625 15.253-17.538 33.767-21.323 52.713l1.39.143-.288 2.255 8.05.959c5.989-17.603 16.004-42.928 19.598-49.739a223 223 0 0 0 3.785-7.434c-1.581.575-3.163 1.103-4.744 1.247z"/><path fill="#464557" d="M158.491 129.597c-1.342 1.199-13.081 22.351-7.188 20.432 4.505-3.741 3.546-10.024 9.105-15.06 5.702-5.132.335-7.77-1.917-5.372" opacity=".2"/><path fill="#75a152" d="M186.953 95.302c-.479 1.104-1.246 2.015-2.013 2.878-.814.96-1.677 1.871-2.731 2.59-1.054.624-2.3.96-3.498 1.199-2.875.576-5.798.72-8.72.576-2.636-.144-5.223-.576-7.859-.48-2.012 0-4.025.432-5.989-.048-1.342-.287-2.588-.911-3.738-1.582-1.964-1.104-3.833-2.495-5.031-4.461-1.246-1.967-1.677-4.509-.623-6.62.288-.479.719-1.054 1.246-.91.336.047.575.335.767.623 3.498 4.413 8.098 8.01 13.512 9.21 1.342.287 2.731.43 4.121.575 1.054.048 2.012.192 3.066.048 1.39-.144 2.78-.72 4.169-.96 1.486-.287 2.923-.191 4.408-.575 2.732-.72 4.936-2.782 6.948-4.797.815-.767 1.102-1.726 1.725-2.59 1.006 1.248 1.006 3.646.24 5.324"/><path fill="#568040" d="M170.852 101.01c.479-.624.048-1.343-.335-1.967-.048-.191-.144-.431-.192-.623 1.102-.192 2.156-.624 3.21-.767 1.486-.288 2.923-.192 4.409-.576 2.731-.72 4.935-2.782 6.948-4.796.814-.768 1.102-1.727 1.724-2.59 1.103 1.486 1.103 3.885.432 5.563-.479 1.103-1.246 2.015-2.013 2.878-.814.96-1.677 1.871-2.731 2.59-1.054.624-2.3.959-3.498 1.199-3.594.768-6.66.768-9.487.624.814-.24 1.341-1.247 1.533-1.535" opacity=".3"/><path fill="#568040" d="M164.624 100.962c-4.025.528-8.002-1.679-11.548-3.405-2.348-1.2-3.785-4.989-6.756-4.461-.575-1.487.479-6.38 2.443-4.125 3.498 4.413 8.098 8.01 13.513 9.21 3.785.863 7.618.91 11.356-.337 5.462 0 10.493-3.117 13.081-7.962q.216.288.431.72c-1.581 2.974-3.21 5.995-5.319 8.585-4.791 3.358-11.691 1.008-17.201 1.775"/><path fill="#3e5c2e" d="M182.446 96.166c-.431.815-.766 1.678-1.485 2.302-.767.623-1.821.911-2.731 1.055-1.965.288-3.977 0-5.942 0s-3.258-.288-4.887-.767h1.964c1.39-.144 2.779-.72 4.169-.96 1.485-.287 2.923-.191 4.408-.575 2.252-.576 4.121-2.015 5.846-3.693-.575.72-.958 1.678-1.342 2.59zM163.761 99.571c-1.246.336-2.78.288-4.025-.144-1.246-.48-2.588-.767-3.834-1.247-.958-.336-1.964-.767-2.779-1.247a12.4 12.4 0 0 1-3.402-2.878c-.766-.815-1.485-1.87-1.246-2.974.048-.431.432-.911.815-.911.623 0 .958.623 1.342 1.055.431.48.814.912 1.245 1.343.959.912 2.013 1.823 3.115 2.59 2.156 1.487 4.6 2.638 7.187 3.118 1.246.288 2.492.336 3.738.48-.623.191-1.294.623-2.156.815"/><path fill="#75a152" d="M173.298 95.878c-1.965.048-22.904 1.535-24.773-14.437-.048-.768-.192 0-.958-.048-2.875 12.614 9.966 19.713 22.616 18.706 20.748-1.727 18.591-19.234 16.483-15.54-.815 1.438-1.006 10.84-13.368 11.319"/><path fill="#aed888" d="M160.551 102.161c-1.486.096-2.971.24-4.408-.144-1.342-.287-2.588-.911-3.738-1.582-1.869-1.056-3.641-2.35-4.839-4.173.335-.432.958-.72 1.964-.384 2.444.816 2.588 3.693 4.456 3.741 1.821.096 5.367.336 6.613 2.494zM168.265 100.195c-5.271.096-10.494-1.247-14.375-3.79.383-.143 1.006-.191 1.965 0 3.881.576 3.737 2.399 7.043 2.111 3.115-.336 5.223-1.295 5.367 1.727z" opacity=".5"/><path fill="#568040" d="M171.428 97.605c-.048-.432-.623-1.535-.623-1.68 1.246 0 2.156-.047 2.444-.047 12.314-.48 12.554-9.88 13.368-11.416 2.109-3.645 4.313 14.725-17.633 15.733 0-.048 3.019-.672 2.444-2.59" opacity=".3"/><path fill="#75a152" d="M186.424 88.395c-.575.432-1.054.816-1.581 1.247 1.246-2.302 1.533-4.604 1.868-5.228.767-1.343 1.534.192 1.198 2.734-.479.576-1.102.912-1.485 1.247"/><path fill="#568040" d="M178.806 96.645c-2.971 1.391-6.42 1.103-9.631.96-7.235-.288-19.837-1.583-21.37-9.881-.048-.576-1.965.767-.432-6.283.767 0 .911-.768.959 0 1.964 16.02 22.856 14.485 24.772 14.437 5.415-.192 8.481-2.159 10.302-4.413-.766 2.206-2.491 4.173-4.6 5.132z"/><path fill="#3e5c2e" d="M174.782 96.166c-1.39 0-2.779-.048-4.169-.192h2.636c3.354-.144 5.797-.912 7.57-2.015-1.677 1.343-3.881 2.11-6.037 2.255zM153.123 91.657h-1.868c.287.432.527.911.862 1.343a8.9 8.9 0 0 0 1.965 1.583c2.923 1.727 6.325 2.11 9.679 2.158h.862c-3.689-.575-8.241-2.398-11.5-5.084"/><path fill="#75a152" d="M186.33 94.823c-.143.143-.335.287-.479.431-.143.192-.191.48-.191.768-.048.287-.144.575-.336.623h-.623l-.143-.144c-.288-.767.335-1.87.91-2.446.192-.192.767-.72 1.102-.48.335.192.048.96-.24 1.248"/><path fill="#464558" d="M205.402 94.487c2.731.72 5.749 1.967 8.193 3.262 3.163 1.726 5.558 4.748 7.331 7.914 1.821 3.165 3.163 6.571 4.936 9.784 1.293 2.351 2.827 4.653 3.306 7.387.192 1.487.144 2.926.048 4.413-.431 21.392 9.487 28.202 6.42 35.829-1.245 3.309-2.635 6.619-4.743 9.449-1.294 1.774-2.971 3.501-5.079 3.933-2.156.479-4.409-.336-6.565 0-2.348.383-4.839 2.014-6.948.863-.335-4.892-.622-9.881-2.06-14.581-1.342-4.7-3.929-7.674-7.762-10.792-.288-2.446-1.054-6.475-1.534-8.921.192-.144-6.947-34.822 4.504-48.54z"/><path fill="#2b2b37" d="M205.161 148.447c3.498-2.591 8.338-.384 12.123-.192 2.636.192 5.415-.672 5.99-3.55.575-2.59-.719-5.276-1.725-7.626-2.204-5.132-.24-10.552.575-15.732.623-4.077.191-8.298-1.294-12.087-2.156-5.756-6.277-10.792-11.787-13.526 1.629.672 3.21 1.343 4.647 2.11 3.163 1.727 5.559 4.749 7.332 7.915 1.82 3.165 3.162 6.571 4.935 9.784 1.294 2.35 2.827 4.653 3.306 7.387.192 1.487.144 2.925.048 4.412-.431 21.392 9.487 28.251 6.421 35.83-1.246 3.309-2.636 6.619-4.744 9.448-1.294 1.775-2.971 3.502-5.079 3.934-2.156.479-4.408-.336-6.564 0-2.348.383-4.84 2.014-6.948.863-.336-4.892-.623-9.881-2.061-14.581-1.341-4.605-3.737-9.065-7.379-12.087.767-.864 1.438-1.727 2.204-2.302" opacity=".3"/><path fill="#2b2b37" d="M226.724 142.883c-.815-1.727-1.534-3.741-1.294-5.612.287-2.782 1.725-5.18 3.114-7.53.288-.48.527-.912.863-1.487 0 12.326 3.306 19.713 5.366 25.229-2.539-3.645-6.085-6.619-8.002-10.552zM205.16 148.447c.191-.192.479-.336.718-.432 2.013.24 4.073 1.247 5.702 2.446 2.636 1.967 5.08 4.413 6.613 7.387 3.114 5.947 4.648 12.422 6.181 18.945-1.581 0-3.258-.431-4.887-.191-2.348.383-4.84 2.014-6.948.863-.336-4.892-.623-9.881-2.061-14.581-1.341-4.605-3.737-9.065-7.379-12.087.623-.863 1.294-1.727 2.061-2.302z" opacity=".3"/><path fill="#2b2b37" d="M205.161 148.447c.192-.192.479-.336.719-.432.479.048 1.054.192 1.533.288 1.486.911 2.875 2.158 4.025 3.309 2.492 2.638 4.983 5.804 5.99 9.401 1.15 4.077.67 8.49.335 12.663-.096 1.103-.144 2.302-.335 3.405-1.725.528-3.307 1.103-4.792.336-.335-4.892-.623-9.881-2.06-14.581-1.342-4.605-3.738-9.065-7.379-12.087.575-.815 1.245-1.679 2.012-2.254z" opacity=".3"/><path fill="#575770" d="M209.043 131.132c.479 5.276-1.725 12.854-7.331 14.437-.671-3.454-5.127-21.488-1.39-40.05 7.092-3.837 15.717 2.35 11.692 10.264-2.109 4.796-4.361 10.025-2.971 15.349"/><path fill="#272734" d="M200.943 181.254c-15.764 8.585-52.132 12.758-66.747 4.365-.047 0-.718-.384-.862-.864.192-1.343.623-3.117 1.006-5.036.479-2.254.815-4.461 1.15-5.996 2.156.624 4.361 1.104 6.517 1.583 16.579 3.262 33.876 1.103 50.695-2.35 1.198-.288 7.091-1.487 8.768-1.823.671 2.207-.67 9.785-.527 10.121"/><path fill="#454357" d="M141.864 175.259a23 23 0 0 1-2.444 2.11c-1.293.911-2.875 1.727-4.456 2.158h-.048c-.191 0-.479.144-.671.144.48-2.254.815-4.46 1.15-5.995 2.109.719 4.313 1.199 6.469 1.583" opacity=".2"/><path fill="#21212b" d="M204.97 179.767c-7.475 4.46-26.258 8.585-37.087 9.545-.288-.48-2.54-2.255-3.306-2.494-3.69-1.679-2.348-4.317-4.217-6.619-1.437-1.2-5.031-1.535-5.798-3.262 5.319.288 11.835 0 17.921-.815 5.702-.72 29.276-5.708 30.953-6.044.719 2.158 1.342 9.161 1.486 9.689z"/><path fill="#d58500" d="M169.419 88.387c-1.103 1.247-2.492 2.302-4.121 2.781-1.725.576-3.69.48-5.415.048-4.935-1.055-9.391-4.124-12.554-8.01-1.389-1.726-2.348-3.501-3.114-5.564-.479-1.246-1.246-2.446-1.39-3.837-.191-1.39.144-2.782.192-4.173 0-1.822-.575-3.645-.958-5.371-.767-3.646-.623-7.53.91-10.936 2.204-4.845 6.229-6.811 11.308-7.099 5.079-.336 10.254 1.343 14.231 4.509 3.977 3.213 6.612 7.962 7.379 12.95.431 3.118.192 6.283-.287 9.353-.815 5.612-2.348 11.32-6.181 15.349"/><path fill="#b45f00" d="M149.894 51.748c-.766.336-6.756 7.818-2.012 9.497 8.289.288 5.414 14.006 4.12 15.972-1.15.144-5.954-3.77-5.954-5.304.931.666 2.802 1.113 3.857 1.065 1.533-.432 3.3-4.45.665-5.458.91-1.103.895-1.603-1.596-2.13 1.773-3.598-5.405-2.994-6.363.124-2.252 0-.719-5.612-.575-7.339 0-4.652 3.546-6.81 7.858-6.763v.384z" opacity=".4"/><path fill="#b45f00" d="M150.057 51.271c-3.882 2.303-5.547 6.245-5.738 10.657 0-.287 7.702-2.934 8.9 4.356-7.523-2.158-10.35-.432-9.056 4.94-.623.192-2.013-4.46-2.444-4.94s-.623-1.103-.766-1.679c-1.055-4.508.575-12.135 6.324-11.99zM157.219 62.994c-2.3 3.213-.694 10.533-1.269 14.322 1.533 1.487 5.941-1.247 7.091-2.734 2.348-3.741-5.759-4.056-4.226-7.461 3.307-2.686.992-6.334-1.596-4.127" opacity=".4"/><path fill="#b45f00" d="M156.861 72.088c-1.102.959-2.731 1.247-3.738.144-.479-.576-.036-3.323-1.091-2.316-2.731 2.926-3.461.397-6.575 1.308-.911 4.94 5.366 5.516 8.912 6.14 4.792.575 13.225-1.679 14.854-6.811-6.229 2.542-7.043-2.446-12.362 1.535" opacity=".4"/><path fill="#b45f00" d="M143.587 67.771c1.389 3.118 8.721 5.708 11.356 5.804 5.989.192 14.423-4.03 13.704-9.401-.288-2.11-2.348-2.398-4.408-2.302-2.109 0-5.556 1.787-6.754 1.787s-1.44-1.212.62-4.33c.575-.91 2.636-5.084.336-6.81-.623-.48-.815-.432-8.002-1.247-.048-1.104 1.341-1.535 2.444-1.583 3.737-.288 7.666 0 11.212 1.487 3.546 1.39 6.708 3.885 8.481 7.242.623 1.2 1.102 2.494 1.581 3.741.336.912.623 1.727.958 2.638.911 2.35 1.725 5.228.288 7.339-.575.815-1.485 1.39-2.348 1.87-2.492 1.344-29.133.768-29.133.768l-1.821-7.099c-.143-.192 0-3.022 1.486.096" opacity=".4"/><path fill="#b45f00" d="M169.271 71.56c-.623-3.261 2.635-7.338-.479-9.88-3.69-2.926-7.284-2.59-9.344 1.15-.815 1.2-2.492-.575-1.917-1.678 4.313-6.619 7.523-8.825-2.635-11.751 6.804-.144 14.231 2.59 17.633 8.777 2.779 5.996 7.092 14.87-2.348 16.788-.479-1.055-.766-2.255-.91-3.406" opacity=".4"/><path fill="#b45f00" d="M166.81 64.724c.671 0-.781 2.44-1.294 2.782-.575.288-1.102-.192-.958-.48 0-.466 1.814-2.302 2.252-2.302" opacity=".4"/><path fill="#e2a040" d="m161.937 62.949.071-.134c.127-.173.387-.275.584-.29.67-.227 1.458-.287 2.23-.253.244-.007.52.088.527.333.28.923-1.648.546-2.05.624-.197.015-.41.125-.655.132-.244.007-.519-.088-.676-.31-.094-.016-.031-.102-.031-.102M147.042 64.501c.575.48-1.677 1.2-2.156.912-.383-.72 1.438-1.44 2.156-.912M155.501 61.538c1.198 0-.128 2.23-1.294 2.063-1.136-.19-.252-1.283.144-1.679.383-.288.718-.432 1.15-.384M161.113 69.094c-.192.624-1.198.432-1.533.048-.575-1.007 1.533-.815 1.533-.048" opacity=".4"/><path fill="#b45f00" d="M155.184 56.404c-3.355.335-7.188.959-10.015 2.925-1.533 1.056-2.587 2.447-3.354 3.981-.575-3.357-.335-6.907 1.054-9.976 2.252-4.893 6.277-6.811 11.356-7.099 5.079-.336 10.254 1.343 14.231 4.509 3.498 2.878 5.99 6.81 7.044 11.223-5.271-4.844-13.417-6.187-20.316-5.563" opacity=".4"/><path fill="#323147" d="M156.953 62.328c1.057-1.32 5.453-3.062 9.975-2.396.1.02.646.266-.133.266-5.586 1.597-7.714 3.062-8.911 3.461-1.197.4-1.988-.01-.931-1.331M151.501 62.594c-.937-.871-4.058-1.868-8.641-.428-.299.159-.057.246.009.244 3.312-.244 7.036 1.25 8.566 1.649 1.529.399 1.002-.593.066-1.465M158.829 67.729s.12-.027.169-.104c1.599-2.23 2.203-2.012 3.541-2.235 1.218-.197 3.154-.829 4.173-2.486a.32.32 0 0 0-.095-.443.296.296 0 0 0-.428.093c-.844 1.355-1.817 1.5-2.958 1.746-1.385.231-2.967.506-4.722 2.903a.41.41 0 0 0 .034.456c.089.113.149.1.273.075z"/><path fill="#323147" d="M160.293 65.461c.029.13.092.526.134.716.199.944.853 1.588 1.44 1.463.584-.126.918-.983.704-1.993-.042-.193-.029-.489-.139-.65z"/><path fill="#fff" d="M162.9 66.114c.046.337-.573.574-.859.511-.578-.263.667-.852.859-.511"/><path fill="#323147" d="M151.361 68.525s-.112-.007-.167-.069c-1.751-1.76-3.022-1.767-4.25-1.773-1.117 0-2.175.005-3.325-1.328a.29.29 0 0 1 .021-.41.266.266 0 0 1 .395.02c.951 1.09 1.841 1.078 2.896 1.132 1.271.007 2.725.023 4.639 1.911a.37.37 0 0 1 .036.413c-.063.114-.119.11-.233.106z"/><path fill="#323147" d="M149.203 66.485c.005.12.042.482.049.658.045.872-.377 1.588-.92 1.615-.54.026-1.031-.646-1.079-1.58-.007-.178-.088-.434-.029-.6z"/><path fill="#fff" d="M149.688 67.701c-.033.34-.69.428-.954.3-.502-.388.845-.675.954-.3"/><path fill="#323147" d="M141.144 67.963c2.396 2.926 6.325 4.317 10.111 5.18.431.096 3.066.815 3.881.671 6.564-.959 7.666-2.446 9.871-3.261 7.954-2.782 6.708-5.036 10.876-6.955 2.78 8.538 2.157 20.96-4.695 26.716-1.054.863-1.677 2.542-2.875 2.974-2.204.815-4.936.863-7.236.384-3.45-.624-7.139-2.878-9.918-5.085-1.486-1.15-2.683-2.59-3.881-4.029-1.39-1.726-2.732-3.453-4.073-5.132l-.192-2.302c.24.528-1.198-6.14-1.964-9.21z"/><path fill="#2b2b37" d="M160.215 92.808c-1.916-.24-3.641-1.295-5.414-1.87 2.779.191 5.702-1.535 6.948-3.55 5.27-8.394-7.811-9.113-7.14-11.415.144-.624.479-1.391.288-2.063 6.325-.767 8.145-2.542 10.158-3.261 4.839-1.2 7.044-4.557 10.829-6.907 4.312 11.799.096 32.52-15.669 29.018zM143.828 71.033c2.013 1.487 4.552 1.822 6.708 3.021.767.48.527 1.583-.383 1.631-2.492-.72-4.552-2.878-6.277-4.652z" opacity=".6"/><path fill="#21212b" d="M141.142 67.963c.863 1.15 1.965 1.966 3.21 2.686.048.527 1.486 4.269 1.582 4.892 1.629 7.483 6.564 14.965 14.758 16.02-3.69 1.87-6.565.432-8.913-2.638-3.545-2.494-5.797-6.331-8.577-9.545l-.191-2.302c.287.672-1.15-5.995-1.869-9.065z"/><path fill="#2b2b37" d="M158.156 91.801c7.092-3.933 11.164-14.245 8.481-21.872 4.025-1.15 5.846-4.508 9.2-6.33 4.935 12.758-1.39 34.725-18.016 28.634h-.24c.335-.24.479-.288.575-.384z" opacity=".6"/><path fill="#21212b" d="M155.087 90.314c13.944 5.612 18.639-12.327 15.908-22.687 1.917-1.487 2.396-2.83 5.079-4.077 6.038 17.315-5.175 40.002-24.197 26.668.91.528 2.156-.288 3.21.048z"/><path fill="#464558" d="M155.04 79.186c.575.24-.096.768-.431.528-2.252-.096-2.684-3.501-1.486-4.94.959-.24-.623 2.11 1.15 4.173.288.144.575.096.767.24M156.668 88.683c-.287-1.535 1.917-1.439 2.923-1.439 1.246 1.487-2.108 2.782-2.923 1.44" opacity=".3"/><path fill="#464558" d="M139.468 48.873c.91-3.837 3.258-7.05 5.654-10.12 1.677-2.254 3.402-4.46 5.654-6.044 3.21-2.302 7.331-3.213 11.212-2.926 2.923.192 5.846.96 8.481 2.35 4.025 2.015 7.475 5.277 9.535 9.354 3.642 6.619 3.69 14.773 7.332 21.488.91 1.726 2.108 3.357 2.875 5.228.622 1.487.958 3.117 1.102 4.748.766 7.675-2.588 15.685-8.577 20.577-2.013 1.583-4.265 2.926-6.756 3.55-2.109.575-4.265.575-6.421.43-7.571-.43-15.094-2.637-21.706-6.474-2.492-1.487-5.031-3.262-6.469-5.804-1.964-3.214-2.108-7.195-2.156-10.936a837 837 0 0 1-.192-18.946c0-6.235 0-4.46.432-6.475m3.066 15.3c1.965 9.018 1.677 7.675 2.156 11.416.815 6.284 6.709 15.685 16.004 17.651 4.169.911 6.9 0 9.536-2.878 5.941-6.331 5.414-33.67-9.679-38.275-11.884-3.598-19.55 4.604-18.017 12.087"/><path fill="#323147" d="M157.195 92.089c1.102.48 2.252.911 3.498 1.103 4.169.912 6.9-.048 9.535-2.878 1.725-1.822 2.923-5.42 3.355-9.736a25.3 25.3 0 0 0 6.564-4.27c3.354-2.973 6.133-6.762 7.667-10.935.143-.336.191-.624.335-.96.719 1.248 1.485 2.351 2.012 3.694.623 1.487.959 3.118 1.103 4.748.766 7.675-2.588 15.685-8.577 20.577-2.013 1.583-4.265 2.926-6.757 3.55-2.108.575-4.264.575-6.42.431-4.792-.288-9.631-1.247-14.135-2.926.575-.911 1.149-1.727 1.82-2.398M139.466 48.873c.911-3.837 3.258-7.05 5.654-10.12 1.677-2.254 3.402-4.46 5.654-6.044 3.211-2.302 7.331-3.213 11.213-2.926 2.922.192 5.845.96 8.481 2.35 1.964.96 3.737 2.303 5.366 3.838-2.156 1.583-4.168 3.501-5.798 5.564a30.14 30.14 0 0 0-5.27 11.799c-.048.288-.144.48-.144.767-1.198-.815-2.588-1.535-4.025-1.966-11.931-3.645-19.55 4.604-17.968 12.039 1.964 9.017 1.677 7.674 2.156 11.415.719 5.372 5.175 13.046 12.266 16.404-.718.72-1.246 1.487-1.725 2.302-2.491-.96-4.935-2.11-7.235-3.501-2.492-1.487-5.031-3.262-6.469-5.804-1.964-3.213-2.108-7.194-2.156-10.936a837 837 0 0 1-.192-18.946c-.239-2.11-.239-4.22.192-6.235" opacity=".3"/><path fill="#323147" d="M188.677 81.393c.335-3.645-.192-7.338-2.013-10.456-2.012-3.501-4.935-6.283-6.612-9.977-2.3-5.036-2.444-10.792-4.792-15.732-1.725-3.645-4.504-6.715-8.098-8.633-3.833-2.11-8.289-2.974-12.554-2.447-2.587.288-5.079 1.2-7.474 2.159 1.102-1.343 2.3-2.59 3.689-3.55 3.21-2.302 7.331-3.213 11.212-2.925 2.923.191 5.846.959 8.482 2.35 4.024 2.014 7.474 5.276 9.535 9.353 3.641 6.619 3.689 14.773 7.331 21.488.91 1.726 2.108 3.357 2.875 5.228.623 1.487.958 3.117 1.102 4.748.575 5.852-1.198 11.943-4.744 16.596 1.054-2.782 1.821-5.516 2.061-8.202" opacity=".3"/><path fill="#575770" d="M141.432 85.086c-.767-1.343-1.246-2.734-1.581-4.269-.048-1.535 0-3.07-.048-4.604-.048-5.852.575-23.215 3.114-28.155 1.965-3.741 6.277-5.372 10.254-5.708 6.709-.623 11.404.767 18.256 10.6 2.731 3.885 4.648 8.25 6.181 12.71.815 2.35 1.534 4.893 2.252 7.34.767 2.637 1.486 5.275 1.678 8.01.287 2.637-.048 5.18-1.342 7.53-1.198 2.302-2.875 4.268-4.744 5.947-1.246 1.103-2.635 2.158-4.025 2.974-.575 0-1.198 0-1.725-.048-7.57-.432-15.093-2.638-21.706-6.475-2.635-1.631-5.127-3.358-6.564-5.852m19.262 8.154c4.169.911 6.9 0 9.535-2.878 5.942-6.331 5.415-33.67-9.679-38.275-11.931-3.646-19.549 4.604-17.968 12.039 1.964 9.017 1.677 7.674 2.156 11.415.767 6.331 6.613 15.732 15.956 17.699" opacity=".4"/><path fill="#323147" d="M151.494 46.235c.191-.911.431-1.679.479-2.494.048-.768.191-1.583.335-2.35.192-1.487.719-2.303 1.821-3.214 1.246-.96 2.012-2.302 2.779-3.741.288-.576.623-.96.958-1.391.432-.432.623-.768.623-1.391 0-.624 0-.624.048-.96.048-.479.815-.287.767.193-.144.623 0 1.246-.192 1.822-.335.624-.91 1.055-1.341 1.583-.432.527-.623 1.247-.959 1.823a8.7 8.7 0 0 1-1.246 1.726c-.431.48-.958.912-1.533 1.343-.719.624-.91 1.487-1.054 2.35-.144.816-.287 1.68-.335 2.495 0 .815-.336 1.582-.575 2.446.143.48-.623.24-.575-.24" opacity=".3"/><path fill="#575770" d="M145.361 54.197c.144-.192.336-.431.479-.623 1.582-1.343 2.636-3.406 4.505-4.461.191-.144.431-.192.718-.288.575-.048 1.054.144 1.534.336 2.156.815 4.6 1.199 6.947.911.288-.048.623-.048.911 0 .287 0 .575.288.766.576.959.96 1.965 2.014 2.78 3.07a11.3 11.3 0 0 0-3.546-1.583c-8.002-2.447-14.087.48-16.723 4.94.479-1.055.958-2.062 1.629-2.878M147.95 85.997c-.048.288-.431.432-.719.432-.287 0-.575-.144-.814-.336-.288-.192-.575-.431-.767-.72-.623-.815-.287-1.87.91-1.678.815.144 1.246 1.2 1.39 1.87zM175.595 85.757c.192-.144.479-.144.767-.144 1.485.192.431 2.35 0 2.974-.288.336-.719.72-1.054.576-.192 0-.288-.288-.432-.432-.383-.815-.239-2.494.719-2.974" opacity=".2"/><path fill="#d58500" d="M70.66 108.972c-.575-1.247-1.63-2.206-2.587-3.118-2.923-2.83-5.798-5.9-7.188-9.736-.335-1.008-1.15-3.646-2.156-3.358-1.246.432-1.917 1.919-2.06 2.59-.432 3.741.623 7.77 2.923 10.696 1.006 1.247 1.58 7.866 1.868 8.394.767 1.439 1.869 2.59 3.259 3.501 1.293.864 3.114 1.391 4.456.528 1.006-.72 2.156-.336 2.395-1.535.48-2.015 0-5.996-.958-7.962z"/><path fill="#9b4300" d="M60.98 97.94c-.19 0-.335.144-.526 0-.288 0-.527-.192-.671-.431-.144-.192-.192-.528-.288-.768v-1.439c0 .528 0 1.055.288 1.487 0 .192.144.336.191.432.336.383.623.623 1.007.671z" opacity=".4"/><path fill="#2b2b37" d="M69.465 124.538c2.767-3.209 4.247-6.469 3.305-7.283-.941-.813-3.947 1.128-6.714 4.337s-4.246 6.469-3.305 7.282c.942.814 3.948-1.128 6.714-4.336"/><path fill="#d58500" d="M61.121 108.205s8.865 2.494 10.494 8.729c1.63 6.235 7.906 3.454 6.804 5.708s-7.858 7.674-9.583 7.866c-3.067.384-8.53-5.132-8.53-5.132l-7.57-7.866 8.385-9.401z"/><path fill="#b45f00" d="m54.128 117.414 6.18 8.01 3.595 3.07c3.641-.912 8.672-6.763 10.445-9.353 0 0-1.629-1.055-2.204-1.535s-.527-.672-.527-.672c.719-5.947-1.485-8.873-1.485-8.873s1.39 11.224-2.732 13.19c-4.12 1.967-8.816-4.988-8.816-4.988z" opacity=".4"/><path fill="#575771" d="M97.396 161.541c-4.887 3.405-15.86-7.003-20.22-12.663-5.031-6.235-9.104-13.19-14.279-20.001l.288-.144c3.21-.767 9.583-9.161 9.439-11.703 5.51 1.919 12.841 5.132 18.352 7.051 0 0 .862 1.439 5.366 9.641 9.296 17.027.959 27.771.959 27.771z"/><path fill="#2b2b37" d="M80.29 119.956c-.335 6.715-1.725 13.094-5.989 16.26-1.198.863-2.588 1.535-4.265 1.822-.095 0-.287.144-.479.288-2.108-3.117-4.264-6.283-6.66-9.449l.288-.144c3.21-.767 9.583-9.161 9.439-11.655 2.3.816 4.935 1.823 7.619 2.878z" opacity=".2"/><path fill="#2b2b37" d="M97.396 161.541c-4.887 3.405-15.86-7.003-20.22-12.663-5.08-6.235-9.104-13.19-14.279-20.001l.288-.144c.958-.239 2.156-1.103 3.401-2.302 4.265 4.844 16.963 20.241 21.946 14.054 3.594-4.701 2.012-12.183-.096-17.268.863.336 1.725.624 2.54.912 0 0 .862 1.439 5.366 9.641 9.296 17.027.959 27.771.959 27.771z" opacity=".2"/><path fill="#2b2b37" d="M97.396 161.541c-4.887 3.405-15.86-7.003-20.22-12.663-5.08-6.235-9.104-13.19-14.279-20.001l.288-.144c.047 0 .143 0 .191-.048 7.38 8.202 19.646 22.879 27.216 23.311 5.367.335 8.242-3.454 9.775-7.243 1.821 10.552-3.019 16.788-3.019 16.788z" opacity=".2"/><path fill="#d58500" d="M155.951 160.533c-2.539.288-5.414-.527-7.283-2.254-.91-.911-1.725-2.206-1.342-3.453 0-.192 0-.288.24-.24l.479.096c.335.048.719.144.958.144a9.7 9.7 0 0 0 2.348 0c1.438-.144 2.971-.624 4.361-1.2l.287 6.859z"/><path fill="#b45f00" d="M151.638 156.264c-.862.576-1.725.576-2.587.192 1.245.192 2.395-.431 2.683-1.63.287 0 .575 0 .814-.144-.095.527-.335 1.103-.91 1.535z" opacity=".4"/><path fill="#b45f00" d="M147.326 154.826c0-.144 0-.192.096-.288-.144 0 .192.815.288.815.143.24.479.528.623.72.622.575 1.437.911 2.108 1.343.671.336 1.294.719 1.964.911.719.192 1.438.288 2.157.096 1.293-.336 2.156-1.343 3.354-2.014a8 8 0 0 1 1.581-.768c.767-.288 1.294-.192 1.964.192.336.096 1.103.528.911 1.007-.288 1.055-2.061 1.631-2.971 2.111-1.006.431-3.737 1.582-3.785 1.63a8.62 8.62 0 0 1-6.756-2.302c-1.055-.911-1.869-2.206-1.486-3.501z" opacity=".4"/><path fill="#30384a" d="m81.633 166.913-3.114-.24c-1.678-.24-3.594-2.206-4.121-4.269L58.68 101.538c-.24-.96-.191-1.823.192-2.302.048-.097.288-.336.863-.336l4.36.192L64 98.66c-.383-1.391-.431-2.734-.192-3.981l-3.833-.192c-1.82-.096-3.402.624-4.456 1.919-1.246 1.534-1.63 3.789-1.054 6.187l15.716 60.866c1.054 4.029 4.552 7.243 8.146 7.531l1.006.096 4.744.383a12.3 12.3 0 0 1-2.444-4.556M158.729 175.163c-1.054 1.247-2.587 1.918-4.264 1.918h-.527l-8.146-.671a11 11 0 0 0-.287-2.494l-.48-1.919 9.296.719c.767.048 1.054-.239 1.15-.383.383-.432.479-1.295.24-2.255l-15.956-63.216c-.575-2.255-2.684-4.317-4.552-4.413l-6.613-.288s-.431-2.494-.862-3.357c0 .048 1.102-.96 1.102-.96l6.612.24c3.786.192 7.523 3.55 8.577 7.722l15.956 63.217c.575 2.35.192 4.605-1.102 6.14z"/><path fill="url(#a)" d="M148.296 183.441c29.32-13.645 39.598-53.749 22.958-89.574-16.643-35.819-53.9-53.796-83.218-40.146s-39.597 53.749-22.958 89.574c16.638 35.82 53.9 53.795 83.22 40.15z" opacity=".36"/><path fill="#9ab9ed" d="M153.889 176.601h-.431l-74.94-5.995-1.007-.096c-3.066-.24-6.181-3.166-7.043-6.667L54.75 102.976c-.527-1.966-.24-3.837.815-5.132.814-1.007 2.06-1.535 3.497-1.487l75.708 3.646c3.258.143 6.564 3.165 7.474 6.81l15.956 63.169c.48 1.967.192 3.837-.862 5.084-.815.96-2.013 1.487-3.354 1.487zm-76.426-8.106 76.091 6.092c.91.096 1.677-.192 2.156-.768.623-.767.814-1.966.479-3.309l-15.956-63.169c-.719-2.782-3.306-5.18-5.654-5.324l-75.707-3.645c-.767 0-1.438.24-1.869.767-.623.768-.767 2.015-.431 3.358l15.716 60.866c.671 2.542 2.971 4.892 5.127 5.18z"/><path fill="#7b93bd" d="M153.362 176.889h-.431l-74.94-5.995-1.007-.096c-3.066-.24-6.18-3.166-7.043-6.667l-15.717-60.866c-.527-1.967-.24-3.838.815-5.133.814-1.007 2.06-1.535 3.498-1.487l75.707 3.646c3.258.144 6.564 3.165 7.475 6.811l15.956 63.168c.479 1.967.191 3.837-.863 5.085-.814.959-2.012 1.486-3.354 1.486zm-76.426-8.058 76.091 6.092c.91.096 1.677-.192 2.156-.768.623-.767.815-1.966.479-3.309l-15.956-63.169c-.719-2.782-3.306-5.18-5.654-5.324l-75.707-3.645c-.767 0-1.437.24-1.869.767-.623.768-.766 2.015-.431 3.358l15.716 60.866c.671 2.542 2.971 4.893 5.127 5.18z"/><path fill="url(#b)" d="M81.152 165.426c-2.3-.192-4.743-2.494-5.414-5.18l-13.8-53.288c-.719-2.686.575-4.797 2.875-4.701l66.315 3.214c2.444.096 5.032 2.494 5.75 5.324l13.944 55.351c.719 2.781-.719 4.892-3.21 4.652l-66.508-5.324z" opacity=".6"/><path fill="#fff" d="M133.527 136.552c5.174 15.924-3.498 28.394-19.311 27.819-15.812-.576-32.726-13.958-37.757-29.834-5.032-15.828 3.641-28.203 19.31-27.675 15.716.527 32.631 13.813 37.758 29.69" opacity=".8"/><path fill="#67b279" d="M127.825 136.36c4.12 12.71-2.827 22.639-15.477 22.207s-26.21-11.127-30.283-23.79c-4.025-12.615 2.923-22.495 15.477-22.063 12.602.431 26.162 10.983 30.283 23.646"/><path fill="#fff" d="M125.333 136.312c3.69 11.271-2.491 20.097-13.847 19.665-11.308-.384-23.383-9.881-27.025-21.104-3.593-11.224 2.588-19.953 13.848-19.569 11.26.383 23.335 9.784 27.024 21.008" opacity=".7"/><path fill="#67b279" d="M97.663 126.425c-.662-.324-1.285.083-1.123.733l4.227 16.969c.162.65.987 1.057 1.487.733l13.089-8.484c.501-.325.298-1.142-.366-1.467z"/><path fill="#525e75" d="m158.779 170.03-15.956-63.217c-1.054-4.125-4.792-7.53-8.577-7.722l-6.612-.336s.575 1.679.67 2.303c.288 1.343.24 2.11.24 2.11l5.414.24c1.869.096 3.977 2.158 4.552 4.413l15.956 63.216c.24.96.144 1.823-.239 2.255-.096.096-.383.431-1.15.383l-9.296-.719.479 1.918c.24.864.336 1.727.288 2.495l8.146.671h.527c1.725 0 3.258-.671 4.264-1.919 1.294-1.534 1.725-3.789 1.102-6.139z"/><path fill="#4c5a75" d="m80.194 167.872-3.114-.24c-1.677-.24-3.594-2.206-4.121-4.269l-15.717-60.866c-.24-.959-.191-1.823.192-2.302.048-.096.288-.336.863-.336l4.36.192-.096-.432c-.383-1.391-.431-2.734-.192-3.981l-3.833-.192c-1.82-.096-3.402.624-4.456 1.919-1.246 1.535-1.63 3.789-1.054 6.187l15.716 60.866c1.054 4.029 4.552 7.243 8.146 7.531l1.006.096 4.744.383a12.3 12.3 0 0 1-2.444-4.556"/><path fill="#3c465c" d="m64.097 99.091-1.438.96s-.862-2.686-.287-4.413l1.437-.96s-.24 1.248-.143 1.92c0 0-.623-.049-.91.287s-.145 1.727.239 1.966H64v.24z"/><path fill="#424d63" d="m65.628 134.825-3.593 3.597-6.373-24.654 3.594-3.549zM80.194 167.872a12.3 12.3 0 0 0 2.444 4.556l-4.744-.383-1.006-.096c-2.97-.24-5.846-2.446-7.331-5.468l3.402-3.406v.24c.575 2.063 2.492 4.029 4.169 4.269l3.114.24zM150.967 139.189l-3.594 3.598-8.816-34.87c-.575-2.254-2.684-4.317-4.552-4.413h-1.486c0-.048 3.834-3.933 3.834-3.933 2.97 1.055 5.606 3.933 6.42 7.243l8.146 32.327zM157.627 176.17c-1.055 1.247-2.588 1.918-4.265 1.918h-.527l-8.146-.671c0-.816-.096-1.679-.287-2.495l-.479-1.918 9.295.719c.767.048 1.054-.239 1.15-.383.384-.48.479-1.295.24-2.255l-4.6-18.178 3.594-3.597 5.222 20.72c.575 2.35.192 4.605-1.102 6.14z"/><path fill="#3c465c" d="m81.635 166.912-1.438.96s.48 2.302 2.444 4.556l1.437-.959-.096-.144-1.677-.144c-.191 0-.383-.144-.479-.335l-.527-1.056c-.192-.383 0-.863.48-.911.478-.048.383 0 .622 0 0 0-.431-1.055-.766-2.015z"/><path fill="#d58500" d="M155.951 153.483c1.055-.432 1.821-.672 2.971-.72 1.006-.096 2.109.288 3.019.576 5.079 1.391 10.206 2.925 15.285 4.46.719.192 1.485.432 2.204.624.767.192 1.629.384 2.396.671 1.39.624 1.054 2.255.815 3.454-.575 3.501-1.39 6.955-2.54 10.36-.192.719-.431 1.535-.815 2.254s-.91.72-1.677.72c-1.245-.096-2.395.288-3.45.911-1.964 1.151-3.497 2.878-5.606 3.741-2.012.864-4.12 1.487-6.277 1.919-1.773.432-3.833 1.007-5.702.863-.958-.048-1.964-.431-2.779-1.007a5.8 5.8 0 0 1-1.15-1.007c-.144-.192-.287-.336-.383-.528-.192-.096-.431-.144-.575-.336-.719-.479-1.342-1.247-1.917-2.014-.575-1.055-.527-1.535-.575-1.727 0-.144 0 .144 0 0-1.485-.479-2.731-1.295-3.593-2.638-.096-.192-.24-.336-.336-.527-.096-.192-.096-.336-.383-.384-.479.096-.863.24-1.342.384-.91.287-1.869.719-2.827.863-.958.24-3.066.336-3.402-1.007-.287-1.056.719-2.207 1.533-2.734.432-.336 1.055-.576 1.438-.912 1.246-.719 2.444-1.487 3.642-2.206 2.874-1.775 5.845-3.501 8.768-5.324.958-.576 3.642-2.446 4.696-3.022l-1.438-5.755z"/><path fill="#b45f00" d="M157.388 169.215s16.626-11.703 17.058-12.279c.191 0 6.564 1.823 7.331 2.111 1.389.623 1.054 2.254.814 3.453-.575 3.501-1.389 6.955-2.539 10.36-.192.72-.432 1.535-.815 2.255-.335.719-.91.719-1.677.719-1.246-.096-18.927-3.789-20.22-6.667zM139.133 170.846c.431-.336 1.054-.576 1.437-.912 1.246-.719 2.444-1.487 3.642-2.206 1.821-1.151 3.738-2.254 5.654-3.406-.239 1.871.671 4.077 2.061 5.181.143.191.431.383.67.431.192.096.432.096.384.384-.048.48 0 .911.143 1.391.288 1.055.863 2.014 1.678 2.686.143.096 1.245.863 1.293.719-.048.288.192.816.384 1.056.431.911 1.054 1.822 1.82 2.542.384.383.815.671 1.246.863.192.096.431.144.575.144.336.048.431.144.671.432.623.863 1.342 1.391 2.3 1.678.287.096.623.192.91.24-.479.096-.958.24-1.437.336-1.773.432-3.833 1.007-5.702.863-.958-.048-1.965-.431-2.779-1.007a5.8 5.8 0 0 1-1.15-1.007c-.144-.192-.288-.336-.384-.528-.191-.096-.431-.144-.575-.336-.718-.479-1.341-1.247-1.916-2.014-.575-1.055-.527-1.535-.575-1.727-1.486-.479-2.731-1.295-3.594-2.638-.096-.192-.239-.336-.335-.527-.096-.24-.096-.336-.384-.384-.479.096-.862.24-1.341.384-.911.287-1.869.719-2.827.863-.959.24-3.067.336-3.402-1.007-.336-.864.671-1.919 1.485-2.542z" opacity=".4"/><path fill="#e2a040" d="M166.157 156.265c-1.102-.24-2.156-.576-3.019-1.343-.479-.432-.862-.96-1.198-1.631 3.115.815 6.229 1.775 9.344 2.686-.671.336-1.438.432-2.109.479-1.006 0-2.012 0-3.018-.239zM153.794 167.296c-.431.528-1.437 1.055-2.204.672-1.006-.528-.863-1.871-.24-2.686 1.869-2.351 3.642.623 2.444 2.014M163.714 158.135c-.287-.192-.67-.624-.431-1.007.24-.528.911-.576 1.294-.24 1.198.671-.144 1.727-.863 1.247M155.615 170.51c.719-.288 1.39-.144 1.486.72 0 .959-1.486 2.158-2.108 1.343-.48-.72-.192-1.679.67-2.063zM161.269 177.513c-.527.815-1.725 1.007-2.396.288-.719-.624-.863-1.775-.144-2.543 1.39-1.582 3.354.96 2.54 2.207zM166.443 179.911c-.383.432-1.102.096-1.486-.096-.239-.192-.814-.767-.431-1.055.575-.336 2.444.575 1.917 1.151" opacity=".4"/><path fill="#b45f00" d="M173.919 176.985c-.288-.911-.575-1.727-.815-2.686-.719-2.686-1.198-5.612-1.102-8.49 0-1.582.383-2.973.911-4.412.383-1.055.622-2.063.67-3.214a8.7 8.7 0 0 0 0-1.583c1.198.384 2.396.672 3.69 1.104.719.191 1.485.431 2.204.623.767.192 1.629.384 2.396.672 1.389.623 1.054 2.254.814 3.453-.575 3.501-1.389 6.955-2.539 10.36-.192.72-.431 1.535-.815 2.255-.383.719-.91.719-1.677.719-1.246-.096-2.396.288-3.45.911 0 .144-.191.192-.287.24z" opacity=".4"/><path fill="#b45f00" d="M170.23 179.719c-.192-.096-.48-.144-.671-.288-10.542-4.365-10.829-5.852-12.458-7.866.239-.096 16.099-12.135 19.166-13.862 1.773.48 2.827.528 5.079 1.055.431.144.719.192 1.006.48.671.576.575 1.679.479 2.494-.67 4.365-1.82 8.682-3.21 12.807-.144.431-.287.767-.623 1.007-.335.24-.862.144-1.389.144-2.78 0-4.936 2.398-7.284 3.933zM158.298 167.392c.24.192.144.672-.143.911-.24.24-.623.192-1.007.288-2.252.336-4.025 1.967-5.989 3.022-1.102.623-2.396 1.055-3.642 1.487-.239.096-.527.192-.814.192-.575 0-1.198-.24-1.63 0 .096-.288.384-.384.575-.48 1.821-.576 3.69-1.007 5.319-2.063 1.198-.671 2.252-1.582 3.45-2.158.863-.336 1.869-.48 2.588-1.055.479-.144.91-.384 1.197-.192z" opacity=".4"/><path fill="#b45f00" d="M159.641 172.62c.288-.096.623-.096.911 0 .287.096.479.528.287.768-.191.287-.671.192-1.006.239-.958-.047-2.204.96-3.115 1.535a11.86 11.86 0 0 1-7.235 1.823c-.096-.192.096-.336.384-.432 1.533-.479 3.018-.815 4.552-1.103.335-.096.766-.144 1.006-.24.527-.24.91-.623 1.437-1.007.767-.767 1.869-1.535 2.731-1.679zM161.987 179.575c-.623.096-1.15.384-1.677.623-1.485.624-3.066.672-4.648.672-.766 0-2.395.432-3.306 0 1.581.144 3.881-.576 5.319-.767 1.294-.24 2.827 0 3.977-.816.527-.336.958-.767 1.533-.671.24.239 0 .623-.191.767-.384.192-.719.144-1.007.192M142.295 173.004c-.048 0-.144-.096-.096-.24.096-.479-.383-.911-.862-1.007s-1.006.096-1.486.288c-.383.144-.766.288-1.197.384.191-.288.479-.624.766-.816a2.44 2.44 0 0 1 1.486-.527c.575.048 1.054.287 1.341.767.192.336.144.767.048 1.151M154.321 161.253s7.667-.336 6.9-3.358c-.431-.815-3.977.672-3.977.672l.192.671-3.115 1.967z" opacity=".4"/><path fill="#b45f00" d="M155.281 160.581s7.523-1.679 6.948-3.069c-.527-1.391-4.792 1.678-4.792 1.678l-2.156 1.343z" opacity=".4"/><path fill="#b45f00" d="M161.893 157.464c-1.772 1.774-6.42 2.974-6.372 2.926l1.868-1.2s-.431-1.678-.431-1.87c1.533-1.151 3.546-3.022 5.031-1.151 1.486 1.87.24.911-.096 1.247z" opacity=".4"/><path fill="#575771" d="M207.892 150.988c10.398 5.9 8.529 16.74 7.523 25.805-1.054 9.689-9.919 2.878-40.202.144 2.444-6.475 4.217-13.862.192-20.001 25.395-2.35 28.079-8.538 32.487-5.948"/><path fill="#a4a4a4" d="M207.892 150.988c10.398 5.9 8.529 16.74 7.523 25.805-1.054 9.689-9.919 2.878-40.202.144 2.444-6.475 4.217-13.862.192-20.001 25.395-2.35 28.079-8.538 32.487-5.948" opacity=".1"/><path fill="#575771" d="M175.548 156.888c5.27-.48 9.583-1.103 13.129-1.823 1.772 1.631 3.593 2.974 5.749 4.125a30.9 30.9 0 0 0 7.907 2.974 29.8 29.8 0 0 0 13.656-.192c.91 4.796.143 10.025-.384 14.725-1.054 9.689-9.918 2.878-40.201.144 2.3-6.427 4.121-13.91.144-20.001z"/><path fill="#2b2b37" d="M175.549 156.888c1.006-.144 2.012-.192 3.019-.336.383 1.007.766 2.015 1.389 3.022.863 1.535 2.3 2.974 3.69 4.125 1.916 1.631 4.073 3.07 6.42 4.317 4.504 2.494 9.392 4.46 14.375 6.283 2.923 1.055 5.846 1.918 8.913 2.398l2.299.336c-1.293 9.161-10.254 2.446-40.153-.24 2.3-6.331 4.121-13.814.096-19.905z" opacity=".2"/><path fill="#2b2b37" d="M181.779 173.531c2.587.48 8.049 2.495 9.822 4.269 1.007 1.008 4.648 3.502 5.75 4.365-4.456-1.055-16.147-4.029-23.191-4.988.096-.288.287-.576.335-.912 2.348-1.343 4.456-3.261 7.284-2.734" opacity=".2"/><path fill="#575771" d="m175.645 156.84-18.208 13.814s7.235 10.024 16.675 6.571c3.785-1.535 4.504-5.228 4.839-8.778.479-5.707-3.306-11.559-3.306-11.559z"/><path fill="#a4a4a4" d="M170.086 166.817c-3.162 1.582-5.75 1.007-7.57 0l11.212-8.538c.335 2.782.623 6.331-3.642 8.49z" opacity=".1"/><path fill="#2b2b37" d="M178.951 168.4c-.288 3.597-1.054 7.29-4.84 8.777-7.57 2.734-13.704-3.118-15.86-5.564 4.696.48 13.177.432 18.112-4.796a24 24 0 0 0 2.205-2.734c.287 1.391.479 2.83.335 4.317z" opacity=".2"/><path fill="#323147" d="M185.275 172.284h.192c14.087-3.981 19.262-13.526 19.406-13.573.095-.144 0-.288-.192-.384a.39.39 0 0 0-.431.144c-.048 0-5.175 9.353-19.023 13.286-.192 0-.287.24-.239.383 0 .096.191.192.239.192z"/><path fill="#323147" d="M207.795 179.575h.192c.192 0 .287-.24.096-.432-.192-.192-.048-.048-1.438-1.007-12.937-8.538-20.508-14.917-22.52-19.09 0-.144-.288-.24-.479-.144-.192 0-.288.24-.096.432 3.114 6.379 17.872 16.068 22.808 19.33.623.383 1.15.767 1.198.815.191 0 .191.096.335.096z"/><path fill="#d58500" d="M46.99 96.645s9.296 1.343 9.919 2.446-.384 3.118-1.965 3.789-6.804-.192-6.804-.192l.383 1.967h-2.3c0 .048-1.533-1.823-1.677-3.262-.143-1.439-.718-4.892 2.396-4.796z"/><path fill="#b45f00" d="M44.546 101.442c.096 1.438 1.677 3.357 1.677 3.357h.336l1.772-1.007 1.486-.864.144-.095s-4.313-.72-5.175-2.974c-.432-1.151.047-2.159.67-2.926-1.437.863-1.006 3.309-.91 4.461z" opacity=".4"/><path fill="#b45f00" d="M56.717 101.202s-4.887.719-7.235.527-3.786-1.439-3.834-1.007 2.636 5.372 2.636 5.372 7.14-2.302 8.433-4.892" opacity=".4"/><path fill="#b45f00" d="M51.924 100.338c1.341 1.343 3.593.336 3.977.096-.91 1.247-2.875 1.295-3.977-.096" opacity=".4"/><path fill="#e2a040" d="M53.535 99.672c.311-.361.385-.808.165-.999s-.652-.052-.963.31c-.311.36-.385.807-.164.998.22.19.65.052.962-.31" opacity=".4"/><path fill="#d58500" d="M46.222 110.411s-2.54-1.391-2.683-3.31c-.144-1.918 3.594-4.748 4.504-4.844s6.325-.192 10.446 1.295 4.312 1.727 3.977 3.981c-.384 2.254-11.931.336-11.931.336z"/><path fill="#b45f00" d="M43.538 107.101c.143 1.919 2.683 3.31 2.683 3.31l4.312-2.542 7.236-.144s-6.325-.24-7.619-3.885c-.287-.768-.192-1.295.096-1.631h-2.252c-.958.048-4.696 2.926-4.504 4.844z" opacity=".4"/><path fill="#b45f00" d="M62.513 106.813s-.958 1.247-3.306.768-8.146-2.255-9.056-1.679-3.546 2.014-4.648 2.206-.767 2.686 2.348 1.967c3.067-.72 13.464-.816 13.464-.816s1.294-.959 1.246-2.494z" opacity=".4"/><path fill="#b45f00" d="M58.107 106.142c1.39 1.391 3.546.384 3.93.192-.91 1.247-2.828 1.247-3.93-.192" opacity=".4"/><path fill="#e2a040" d="M59.965 105.473c.16-.56.02-1.091-.31-1.185-.331-.095-.729.283-.888.844s-.021 1.091.31 1.185c.33.095.728-.283.888-.844" opacity=".4"/><path fill="#d58500" d="M47.324 114.536s-2.3-.959-2.588-1.631c-.287-.671.192-3.453.192-3.453s3.69-2.207 7.14-2.063 10.062.192 11.643.624c1.581.479 2.348 1.391 2.348 2.446s-1.725 2.302-3.69 2.062c-1.964-.239-11.308.576-11.308.576l-3.69 1.439z"/><path fill="#b45f00" d="M44.737 112.905c.336.672 2.588 1.631 2.588 1.631l3.69-1.439s2.539-.24 5.222-.384l1.677-.527s-7.714-1.008-7.81-3.118.527-1.391 1.15-1.679c-3.21.192-6.373 2.063-6.373 2.063s-.479 2.782-.191 3.453z" opacity=".4"/><path fill="#b45f00" d="M65.725 111.178s-2.875 1.104-4.84.48-4.791-1.103-6.468-.48c-1.677.624-6.9.816-7.954 1.151-1.055.336 0 2.063.814 2.255.815.192 14.998-2.015 14.998-2.015s2.444.336 3.45-1.343z" opacity=".4"/><path fill="#b45f00" d="M61.123 109.979c1.341 1.343 3.546.384 3.929.192-.91 1.247-2.78 1.247-3.93-.192" opacity=".4"/><path fill="#e2a040" d="M62.461 110.147c.343-.028.582-.522.535-1.103-.048-.581-.365-1.029-.708-1s-.582.522-.534 1.102.364 1.029.707 1.001" opacity=".4"/><path fill="#d58500" d="M62.897 113.817c0 .479-.287.959-.67 1.295-1.39 1.199-3.834 1.247-5.559 1.87.096 0 .192 0 .288-.048-.528.144-1.63.336-2.06.432.67.144 1.245.432 1.772.767.336 1.199 1.438 5.516 1.773 6.811-5.51-2.254-12.314-4.748-11.644-10.552 1.103-.575 3.02-1.966 4.313-2.014 3.162.048 11.404-1.919 11.74 1.486z"/><path fill="#b45f00" d="m58.345 124.225.192.671c-1.15-.384-2.492-.863-3.067-1.199 1.15-2.638-2.875-3.166-5.222-2.782-2.252-1.631-3.69-3.693-3.355-6.523 1.102-.576 3.02-1.967 4.313-2.015 1.054 0 2.683-.191 4.408-.335h.192c-1.677 2.062 1.773 3.885 3.498 4.316-.24.048-.528.144-.767.192-.527.144-1.054.288-1.63.432-.335.096-.622.144-.957.24h-.144c-.24.048-.48.096-.623.144h-.192c.671.144 1.246.431 1.773.767l.48 1.823.67 2.59.096.479.096.48.143.48.096.288zM58.582 114.104c1.198 1.199 3.163.336 3.45.144-.767 1.103-2.492 1.103-3.45-.144" opacity=".4"/><path fill="#e2a040" d="M59.785 114.238c.316-.026.54-.453.498-.955-.041-.502-.331-.887-.648-.861-.316.026-.54.454-.498.955.041.502.331.887.648.861" opacity=".4"/><path fill="#b45f00" d="M62.896 113.817a1.9 1.9 0 0 1-.67 1.295c-1.294 1.151-3.882 1.295-5.559 1.87.096 0 .192 0 .288-.048-.192 0-.336.096-.527.144.191.624.575 2.206.766 2.878-.527-.336-.862-.624-.862-.624s-4.12-.191-4.12-.719c0-.48 2.347-.576 2.587-.576-3.546-.767-2.06-2.59 2.73-2.158 3.45.336 5.607-1.871 5.367-2.015z" opacity=".4"/><path fill="#323b4d" d="M57.003 116.934a.9.9 0 0 0-.383.096h.048c.096 0 .191 0 .287-.048z"/><g opacity=".9"><path fill="#96ccf3" d="M218.733 71.304c-2.591 14.684 7.053 26.949 21.538 27.386s28.323-11.112 30.907-25.803c2.591-14.684-7.053-26.949-21.538-27.386s-28.323 11.112-30.907 25.803"/><path fill="#e7f7ff" d="M217.107 69.532c-2.592 14.684 7.053 26.949 21.537 27.386 14.485.437 28.323-11.112 30.908-25.803 2.591-14.684-7.053-26.949-21.538-27.386s-28.323 11.112-30.907 25.803"/><path fill="#fff" d="M219.597 69.607c-2.343 13.29 6.387 24.384 19.488 24.78 13.107.395 25.634-10.057 27.976-23.347s-6.387-24.384-19.488-24.78c-13.107-.395-25.634 10.057-27.976 23.347" opacity=".7"/><path fill="#96ccf3" d="M253.107 67.202c1.678-4.975-1.438-10.873-7.674-11.062-6.237-.188-11.651 5.495-12.035 10.466-.353 2.699 2.135 9.057 2.907 10.918 3.688 9.204 2.127 9.35 9.956-.185.504-.614 6.033-7.31 6.846-10.137"/><path fill="#e7f7ff" d="M242.539 70.414c2.334.07 4.583-1.8 5.044-4.101.462-2.302-1.049-4.285-3.333-4.354-2.283-.07-4.582 1.798-5.044 4.1-.462 2.303 1 4.284 3.333 4.355"/><path fill="#96ccf3" d="M265.374 69.395c.839-2.484-.715-5.426-3.827-5.52s-5.817 2.747-6.013 5.222c-.176 1.346 1.071 4.522 1.45 5.448 1.841 4.595 1.06 4.664 4.967-.093.252-.307 3.01-3.647 3.416-5.065z"/><path fill="#e7f7ff" d="M260.097 71c1.163.035 2.284-.896 2.518-2.047.235-1.15-.521-2.139-1.663-2.173s-2.284.896-2.518 2.047c-.235 1.15.5 2.138 1.663 2.173"/><path fill="#96ccf3" d="M231.048 68.36c.839-2.484-.715-5.426-3.827-5.52-3.111-.095-5.818 2.747-6.013 5.222-.176 1.346 1.071 4.522 1.45 5.448 1.841 4.595 1.06 4.664 4.967-.093.252-.307 3.009-3.648 3.416-5.065z"/><path fill="#e7f7ff" d="M225.771 69.965c1.163.035 2.284-.896 2.518-2.047.235-1.15-.521-2.139-1.663-2.173s-2.284.896-2.518 2.047c-.235 1.15.5 2.138 1.663 2.173"/></g><defs><radialGradient id="a" cx="0" cy="0" r="1" gradientTransform="matrix(30.1412 64.8742 53.1008 -24.7209 119.314 120.092)" gradientUnits="userSpaceOnUse"><stop offset=".26" stop-color="#75ddfe" stop-opacity=".69"/><stop offset="1" stop-color="#fff" stop-opacity="0"/></radialGradient><linearGradient id="b" x1="110.237" x2="103.179" y1="78.371" y2="185.378" gradientUnits="userSpaceOnUse"><stop stop-color="#f8faff" stop-opacity=".1"/><stop offset=".3" stop-color="#eaf1fc" stop-opacity=".4"/><stop offset=".6" stop-color="#3c81f6" stop-opacity=".6"/><stop offset=".9" stop-color="#1d3a5c"/></linearGradient></defs></svg>
