<svg xmlns="http://www.w3.org/2000/svg" width="26" height="25" viewBox="0 0 26 25">
  <path fill="#eb9300" stroke="#eb9300" d="M148.616401,0.383200907 L151.792142,6.81788281 C151.892143,7.02081662 152.085743,7.16135029 152.309477,7.1938837 L159.410827,8.22561947 C159.974562,8.30748633 160.199629,9.00028797 159.791628,9.39788892 L154.652949,14.4067008 C154.491082,14.5645678 154.416949,14.792035 154.455349,15.0149689 L155.668418,22.087519 C155.764685,22.6488536 155.17535,23.0771213 154.671349,22.812054 L148.319867,19.4731128 C148.1196,19.3677792 147.8804,19.3677792 147.680133,19.4731128 L141.328651,22.8123207 C140.824383,23.077388 140.235048,22.6491203 140.331582,22.0877856 L141.544651,15.0152355 C141.582785,14.7923017 141.508918,14.5648345 141.347051,14.4069674 L136.208372,9.39815558 C135.800371,9.00055464 136.025438,8.307753 136.589173,8.22588614 L143.690523,7.19415036 C143.914257,7.16161695 144.107857,7.02108329 144.208124,6.81814947 L147.383865,0.383200907 C147.635866,-0.127733636 148.364401,-0.127733636 148.616401,0.383200907 Z" transform="translate(-135 1)"/>
</svg>
