<svg version="1.1" id="Layer_1" xmlns="http://www.w3.org/2000/svg" xmlns:xlink="http://www.w3.org/1999/xlink" x="0px" y="0px"
	 viewBox="0 0 20.3 20.3" enable-background="new 0 0 20.3 20.3" xml:space="preserve">
<g>
	<ellipse cx="10.1" cy="10.2" rx="8.8" ry="8.9"/>
	<path fill="#FFFFFF" d="M10.1,1.3c4.9,0,8.8,4,8.8,8.9S15,19,10.1,19s-8.8-4-8.8-8.9S5.3,1.3,10.1,1.3 M10.1,0C4.6,0,0,4.6,0,10.2
		s4.6,10.2,10.1,10.2s10.1-4.6,10.1-10.2S15.7,0,10.1,0L10.1,0z"/>
</g>
<path fill-rule="evenodd" clip-rule="evenodd" fill="#FFFFFF" d="M9.9,6.6C11.7,6.7,13.6,7,15.3,8c1,0.6,1.6,1.5,1.6,2.7
	c0,1.9-1.3,2.8-3.1,2.6c-0.7-0.1-1.5-0.3-2.2-0.5c-1.3-0.3-2.5-0.2-3.8,0.1c-0.6,0.1-1.2,0.4-1.8,0.4c-1.2,0.1-2.4-0.3-2.8-1.4
	c-0.6-1.4,0-3.1,1.3-3.9C6.2,7,8,6.7,9.9,6.6z"/>
<path fill-rule="evenodd" clip-rule="evenodd" d="M14.7,10.3c0,0.7-0.5,1.3-1,1.3c-0.5,0-1-0.6-1-1.2c0-0.7,0.4-1.2,1-1.2
	C14.2,9.1,14.7,9.6,14.7,10.3z"/>
<path fill-rule="evenodd" clip-rule="evenodd" d="M7.2,10.3c0,0.7-0.5,1.3-1,1.3c-0.5,0-1-0.6-1-1.2c0-0.7,0.4-1.2,1-1.2
	C6.8,9.1,7.2,9.6,7.2,10.3z"/>
</svg>
