<?xml version="1.0" encoding="UTF-8"?>
<svg width="320px" height="75px" viewBox="0 0 320 75" version="1.1" xmlns="http://www.w3.org/2000/svg" xmlns:xlink="http://www.w3.org/1999/xlink">
    <title>F9084B53-1737-4FE7-87A2-44FC8CBB448C@1x</title>
    <defs>
        <linearGradient x1="50%" y1="0%" x2="50%" y2="100%" id="linearGradient-1">
            <stop stop-color="#F70EF3" offset="0%"></stop>
            <stop stop-color="#EC0606" offset="100%"></stop>
        </linearGradient>
        <linearGradient x1="50%" y1="0%" x2="50%" y2="100%" id="linearGradient-2">
            <stop stop-color="#00D2FF" offset="0%"></stop>
            <stop stop-color="#00FE7F" offset="100%"></stop>
        </linearGradient>
    </defs>
    <g id="Black-Friday" stroke="none" stroke-width="1" fill="none" fill-rule="evenodd">
        <g id="Group-24-Copy">
            <g id="Group-19">
                <rect id="Rectangle" fill="#131415" x="0" y="5" width="320" height="70"></rect>
                <g id="Group-18" transform="translate(8.000000, 0.000000)">
                    <rect id="Rectangle" fill="#FFFFFF" x="0" y="31" width="6" height="44"></rect>
                    <rect id="Rectangle-Copy" fill="#F614F1" x="0" y="0" width="6" height="18"></rect>
                    <rect id="Rectangle-Copy-7" fill="#F614F1" x="309" y="42" width="3" height="18"></rect>
                    <rect id="Rectangle-Copy-3" fill="#13FD82" x="89" y="4" width="22" height="2"></rect>
                    <rect id="Rectangle-Copy-4" fill="#F714E9" x="123" y="10" width="22" height="2"></rect>
                    <rect id="Rectangle-Copy-5" fill="#F714E9" x="230" y="68" width="5" height="7"></rect>
                    <rect id="Rectangle-Copy-6" fill="#13FC85" x="239" y="73" width="5" height="2"></rect>
                </g>
            </g>
            <g id="Group-22" transform="translate(128.000000, 21.000000)">
                <g id="Group-7">
                    <rect id="Rectangle" fill="#FEFB89" x="1" y="2.05405405" width="157" height="33.8918919"></rect>
                    <rect id="Rectangle-Copy-22" fill="url(#linearGradient-1)" style="mix-blend-mode: lighten;" x="0" y="0" width="157" height="33.8918919"></rect>
                    <rect id="Rectangle-Copy-27" fill="url(#linearGradient-2)" style="mix-blend-mode: lighten;" x="3" y="4.10810811" width="157" height="33.8918919"></rect>
                    <polygon id="Rectangle" fill="#FEFB89" transform="translate(79.463087, 17.523649) rotate(-1.000000) translate(-79.463087, -17.523649) " points="3.54321971 2.58754287 155.337009 2.80354704 155.382955 32.4597544 3.58916535 32.2437503"></polygon>
                </g>
                <g id="Group-21" transform="translate(36.000000, 13.000000)"></g>
            </g>
        </g>
    </g>
</svg>