<?xml version="1.0" encoding="UTF-8"?>
<svg width="11px" height="10px" viewBox="0 0 11 10" version="1.1" xmlns="http://www.w3.org/2000/svg" xmlns:xlink="http://www.w3.org/1999/xlink">
    <title>Path</title>
    <g id="Halloween-2020" stroke="none" stroke-width="1" fill="none" fill-rule="evenodd">
        <g id="Artboard-Copy-3" transform="translate(-92.000000, -37.000000)" fill="#47744F">
            <g id="Group" transform="translate(73.000000, 37.000000)">
                <path d="M28.5090439,1.77563465 L27.9147287,3.51982069 C26.7260982,2.72366116 25.9336779,2.71317829 25.5374677,3.48837209 C25.2815618,3.98905748 25.4388698,4.65143524 26.0093917,5.47550538 C27.3333658,5.87368986 28.5626387,6.76172333 29.6976744,8.13953488 C28.1011704,8.91472868 26.3182247,9.30232558 24.3488372,9.30232558 C22.3794497,9.30232558 20.596504,8.91472868 19,8.13953488 C20.3001291,6.56131775 21.723903,5.6257191 23.2713218,5.33273894 C22.8011636,4.76464282 22.5658915,4.14952321 22.5658915,3.48837209 L22.5679178,3.21329395 C22.5873003,2.22156958 22.7916975,0.54360746 24.9431525,0.0314486008 C25.6930046,-0.147055453 26.8816351,0.434339896 28.5090439,1.77563465 Z" id="Path"></path>
            </g>
        </g>
    </g>
</svg>