<?xml version="1.0" encoding="UTF-8"?>
<svg width="33px" height="22px" viewBox="0 0 33 22" version="1.1" xmlns="http://www.w3.org/2000/svg" xmlns:xlink="http://www.w3.org/1999/xlink">
    <title>Group 21</title>
    <g id="Halloween-2020" stroke="none" stroke-width="1" fill="none" fill-rule="evenodd">
        <g id="Artboard-Copy-3" transform="translate(-81.000000, -54.000000)" fill="#FFFC57">
            <g id="Group" transform="translate(73.000000, 37.000000)">
                <g id="Group-21" transform="translate(8.000000, 17.000000)">
                    <path d="M16.4158607,6.04651163 C15.9736153,6.04651163 13.3201435,10.4425931 14.0940728,10.6623972 C14.6468794,10.8822013 16.4158607,10.002985 16.4158607,10.002985 C16.4158607,10.002985 17.9637192,10.8822013 18.5165259,10.6623972 C19.0693325,10.4425931 16.858106,6.04651163 16.4158607,6.04651163 Z" id="Fill-29"></path>
                    <path d="M5.48139038,0.0396887081 C7.41253622,-0.203616615 9.41064663,0.689750624 10.6725478,2.22486165 C11.9352509,3.75997267 12.2536333,5.90313905 12.0242697,7.90697674 C9.46357671,4.7735369 5.32099621,3.11656526 1.39534884,3.65474832 C1.9771787,1.72951696 3.55024455,0.282578125 5.48139038,0.0396887081" id="Fill-30"></path>
                    <path d="M30.6976744,3.65474832 C26.7720135,3.11656526 22.6294187,4.7735369 20.0687168,7.90697674 C19.8393524,5.90313905 20.1581369,3.75997267 21.4204434,2.22486165 C22.6827499,0.689750624 24.6804662,-0.203616615 26.6116187,0.0396887081 C28.5427713,0.282578125 30.1162435,1.72951696 30.6976744,3.65474832" id="Fill-31"></path>
                    <path d="M32.0898991,7.44186047 C30.8474909,9.1519433 28.676712,10.4541939 26.0209332,11.3514248 L26.6700247,13.83217 L21.9445087,15.0375855 L21.5419587,12.4218338 C17.9945883,12.9747177 14.0984221,12.9747177 10.5514559,12.4218338 L10.148906,15.0375855 L5.42338988,13.83217 L6.07248146,11.3514248 C3.41710679,10.4541939 1.2463279,9.1519433 0.00311138336,7.44186047 C0.00311138336,7.44186047 -0.55787188,19.978182 13.3854722,21.3953488 L13.7108264,19.8218798 L18.3825883,19.8218798 L18.7083466,21.3953488 C32.6516907,19.978182 32.0898991,7.44186047 32.0898991,7.44186047" id="Fill-32"></path>
                </g>
            </g>
        </g>
    </g>
</svg>