<svg height="20" viewBox="0 0 28 20" width="28" xmlns="http://www.w3.org/2000/svg" xmlns:xlink="http://www.w3.org/1999/xlink"><defs><rect id="a" height="20" rx="2" width="28"/><mask id="b" fill="#fff"><use fill="#fff" fill-rule="evenodd" xlink:href="#a"/></mask></defs><g fill="none" fill-rule="evenodd"><use fill="#fff" xlink:href="#a"/><path d="m0 0h28v20h-28z" fill="#1537d1" mask="url(#b)"/><path d="m13.333333 0h14.666667v20h-14.666667z" fill="#ea3058" mask="url(#b)"/><path d="m9.333333 0h9.333333v20h-9.333333z" fill="#ffcf3c" mask="url(#b)"/><path d="m12.6666667 8.66666667h1.3333333v.66666666h-1.3333333z" fill="#ffedb1" mask="url(#b)"/><path d="m15.0822696 11.3651924c-.201202.1851288-.4671.3014743-.7521906.3014743h-.660158c-.2850264 0-.5516842-.1157205-.7533535-.3012794-.2007871-.1847471-.3382872-.4398889-.3620474-.7250112l-.1426345-1.71161334 2.6546518-.53386513.3750522 2.28367307c-.0323228.2683783-.1668519.509529-.35932.6866217z" mask="url(#b)" stroke="#d32e28" stroke-width=".666667"/><path d="m12.6666667 9.33333333h2.6666666v.66666667h-.6666666-1.3333334-.6666666z" fill="#d32e28" mask="url(#b)"/></g></svg>