<svg height="20" viewBox="0 0 28 20" width="28" xmlns="http://www.w3.org/2000/svg" xmlns:xlink="http://www.w3.org/1999/xlink"><defs><rect id="a" height="20" rx="2" width="28"/><path id="b" d="m0 0h28l-14 20z"/><path id="c" d="m14 11-2.2961006 2.5432772.1747803-3.4219569-3.4219569.1747803 2.5432772-2.2961006-3.00000001-2.66666676 3.87867951.66666667-.5453462-3.99999992 2.6666667 3.33333325 2.6666667-3.33333325-.5453461 3.99999992 3.8786794-.66666658-3 2.66666667 2.5432772 2.2961006-3.4219569-.1747803.1747803 3.4219569z"/><filter id="d" height="162.4%" width="163%" x="-31.5%" y="-34.2%"><feMorphology in="SourceAlpha" operator="dilate" radius="0.5" result="shadowSpreadOuter1"/><feOffset dx="0" dy="0" in="shadowSpreadOuter1" result="shadowOffsetOuter1"/><feColorMatrix in="shadowOffsetOuter1" type="matrix" values="0 0 0 0 0   0 0 0 0 0   0 0 0 0 0  0 0 0 0.06 0"/></filter><path id="e" d="m0 8h28v5.333333h-28z"/><filter id="f" height="156.2%" width="110.7%" x="-5.4%" y="-28.1%"><feMorphology in="SourceAlpha" operator="dilate" radius="0.5" result="shadowSpreadOuter1"/><feOffset dx="0" dy="0" in="shadowSpreadOuter1" result="shadowOffsetOuter1"/><feColorMatrix in="shadowOffsetOuter1" type="matrix" values="0 0 0 0 0   0 0 0 0 0   0 0 0 0 0  0 0 0 0.06 0"/></filter><mask id="g" fill="#fff"><use fill="#fff" fill-rule="evenodd" xlink:href="#a"/></mask><mask id="h" fill="#fff"><use fill="#fff" fill-rule="evenodd" xlink:href="#b"/></mask></defs><g fill="none" fill-rule="evenodd"><use fill="#fff" xlink:href="#a"/><path d="m0 0h28v20h-28z" fill="#e2243b" mask="url(#g)"/><g mask="url(#g)"><use fill="#262626" xlink:href="#b"/><g mask="url(#h)"><use fill="#000" filter="url(#d)" xlink:href="#c"/><use fill="#ffcf3c" fill-rule="evenodd" xlink:href="#c"/></g><g mask="url(#h)"><use fill="#000" filter="url(#f)" xlink:href="#e"/><use fill="#1984d8" fill-rule="evenodd" xlink:href="#e"/></g><path d="m0 13.333333h28v6.666667h-28z" fill="#fff" mask="url(#h)"/></g></g></svg>