<svg height="20" viewBox="0 0 28 20" width="28" xmlns="http://www.w3.org/2000/svg" xmlns:xlink="http://www.w3.org/1999/xlink"><mask id="a" fill="#fff"><rect fill="#fff" fill-rule="evenodd" height="20" rx="2" width="28"/></mask><g fill="none" fill-rule="evenodd"><rect height="19.5" rx="2" stroke="#f5f5f5" stroke-width=".5" width="27.5" x=".25" y=".25"/><path d="m10.666667 0h6.666667v20h-6.666667z" fill="#d6182d" mask="url(#a)"/><path d="m0 6.666667h28v6.666667h-28z" fill="#1425a2" mask="url(#a)"/><g fill="#fff"><path d="m11.3333333 11.6666667-.4714045.1380712.1380712-.4714046-.1380712-.4714045.4714045.1380712.4714046-.1380712-.1380712.4714045.1380712.4714046z" mask="url(#a)"/><path d="m16.6666667 11.6666667-.4714046.1380712.1380712-.4714046-.1380712-.4714045.4714046.1380712.4714045-.1380712-.1380712.4714045.1380712.4714046z" mask="url(#a)"/><path d="m8.66666667 10.3333333-.47140452.1380712.13807118-.4714045-.13807118-.47140452.47140452.13807119.47140452-.13807119-.13807119.47140452.13807119.4714045z" mask="url(#a)"/><path d="m19.3333333 10.3333333-.4714045.1380712.1380712-.4714045-.1380712-.47140452.4714045.13807119.4714046-.13807119-.1380712.47140452.1380712.4714045z" mask="url(#a)"/><path d="m14 9-.4714045.13807119.1380712-.47140452-.1380712-.47140452.4714045.13807118.4714045-.13807118-.1380712.47140452.1380712.47140452z" mask="url(#a)"/></g></g></svg>