<svg height="20" viewBox="0 0 28 20" width="28" xmlns="http://www.w3.org/2000/svg" xmlns:xlink="http://www.w3.org/1999/xlink"><defs><rect id="a" height="20" rx="2" width="28"/><linearGradient id="b" x1="50%" x2="50%" y1="0%" y2="100%"><stop offset="0" stop-color="#ff323e"/><stop offset="1" stop-color="#fd0d1b"/></linearGradient><path id="c" d="m0 10.666667h28v9.333333h-28z"/><filter id="d" height="132.1%" width="110.7%" x="-5.4%" y="-16.1%"><feMorphology in="SourceAlpha" operator="dilate" radius="0.5" result="shadowSpreadOuter1"/><feOffset dx="0" dy="0" in="shadowSpreadOuter1" result="shadowOffsetOuter1"/><feColorMatrix in="shadowOffsetOuter1" type="matrix" values="0 0 0 0 0   0 0 0 0 0   0 0 0 0 0  0 0 0 0.06 0"/></filter><path id="e" d="m0 0h28v10.666667h-28z"/><filter id="f" height="128.1%" width="110.7%" x="-5.4%" y="-14.1%"><feMorphology in="SourceAlpha" operator="dilate" radius="0.5" result="shadowSpreadOuter1"/><feOffset dx="0" dy="0" in="shadowSpreadOuter1" result="shadowOffsetOuter1"/><feColorMatrix in="shadowOffsetOuter1" type="matrix" values="0 0 0 0 0   0 0 0 0 0   0 0 0 0 0  0 0 0 0.06 0"/></filter><path id="g" d="m12.9422366 6.17633614c.0952945-.35564407.4608525-.56669906.8164965-.47140452 2.1338644.57176725 3.4001944 2.76511507 2.8284272 4.89897948-.0910203.3396924-.2231345.6573999-.3895607.949207l.8388672.5588484c.3063525.2042349.389135.6181478.1849001.9245003-.204235.3063525-.6181479.389135-.9245004.1849001l-.9493818-.6331785c-.9696545.8410958-2.3260892 1.2013836-3.6593039.8441498-.3556441-.0952945-.5666991-.4608525-.4714045-.8164966.0952945-.355644.4608525-.566699.8164965-.4714045.7590613.2033899 1.5294128.0578968 2.140801-.3381831l-1.8772073-1.2515538c-.3063524-.204235-.389135-.61814787-.1849-.92450033.2042349-.30635246.6181478-.38913504.9245003-.18490007l2.047575 1.3650441c.0901811-.1718249.1628868-.3562246.2152174-.5515249.3811781-1.42257623-.4630418-2.88480811-1.8856181-3.26598628-.3556441-.09529454-.5666991-.46085251-.4714045-.81649658zm-.2755699 1.15699719c.3681898 0 .6666666.29847684.6666666.66666667s-.2984768.66666667-.6666666.66666667c-.3681899 0-.6666667-.29847684-.6666667-.66666667s.2984768-.66666667.6666667-.66666667z"/><filter id="h" height="125.4%" width="116.3%" x="-8.1%" y="-6.3%"><feOffset dx="0" dy="1" in="SourceAlpha" result="shadowOffsetOuter1"/><feColorMatrix in="shadowOffsetOuter1" type="matrix" values="0 0 0 0 0   0 0 0 0 0   0 0 0 0 0  0 0 0 0.06 0"/></filter><mask id="i" fill="#fff"><use fill="#fff" fill-rule="evenodd" xlink:href="#a"/></mask></defs><g fill="none" fill-rule="evenodd"><use fill="#fff" xlink:href="#a"/><path d="m0 0h28v20h-28z" fill="url(#b)" mask="url(#i)"/><g mask="url(#i)"><use fill="#000" filter="url(#d)" xlink:href="#c"/><use fill="#262626" fill-rule="evenodd" xlink:href="#c"/></g><g mask="url(#i)"><use fill="#000" filter="url(#f)" xlink:href="#e"/><use fill="#dd2137" fill-rule="evenodd" xlink:href="#e"/></g><g fill-rule="nonzero" mask="url(#i)"><use fill="#000" filter="url(#h)" xlink:href="#g"/><use fill="#f8d84b" xlink:href="#g"/></g></g></svg>