<svg width="28" height="20" viewBox="0 0 28 20" xmlns="http://www.w3.org/2000/svg" xmlns:xlink="http://www.w3.org/1999/xlink"><defs><linearGradient x1="50%" y1="0%" x2="50%" y2="100%" id="linearGradient-5"><stop stop-color="#FFF" offset="0%"/><stop stop-color="#F0F0F0" offset="100%"/></linearGradient><linearGradient x1="50%" y1="0%" x2="50%" y2="100%" id="linearGradient-6"><stop stop-color="#FF2E3B" offset="0%"/><stop stop-color="#FC0D1B" offset="100%"/></linearGradient><rect id="path-1" x="0" y="0" width="28" height="20" rx="2"/><rect id="path-3" x="0" y="0" width="28" height="20" rx="2"/></defs><g id="Page-1" stroke="none" stroke-width="1" fill="none" fill-rule="evenodd"><g id="AU-2"><g id="AU"><g id="Mask" fill="#FFF" fill-rule="nonzero"><rect id="path-1" x="0" y="0" width="28" height="20" rx="2"/></g><g id="Mask-Copy-Clipped"><mask id="mask-2" fill="#fff"><use xlink:href="#path-1"/></mask><path id="Mask-Copy" fill="#0A17A7" fill-rule="nonzero" mask="url(#mask-2)" d="M0 0h28v20H0z"/></g><g id="Rectangle-36-Clipped"><mask id="mask-4" fill="#fff"><use xlink:href="#path-3"/></mask><path d="M6.573 6.333H5.429L-.333 9.935v-1.44l4.666-3.333V4.153L-.9-.333H.773L5.44 3h1.131l5.726-3.579c.132 1.153-.117 1.527-.381 1.715l-4.25 3.036V5.18l4.77 4.088-.325.463-5.538-3.398z" id="Rectangle-36" stroke="#FFF" stroke-width=".667" fill="#FF2E3B" fill-rule="nonzero" mask="url(#mask-4)"/></g><g id="Rectangle-2-Clipped" fill="url(#linearGradient-5)" fill-rule="nonzero"><path d="M0 3.333V6h4.667v3.34c0 .364.306.66.673.66h1.32a.67.67 0 00.673-.66V6h4.658a.677.677 0 00.676-.673v-1.32a.674.674 0 00-.676-.674H7.333V0H4.667v3.333H0z" id="Rectangle-2"/></g><g id="Rectangle-36-Clipped" fill="url(#linearGradient-6)" fill-rule="nonzero"><path id="Rectangle-36" d="M0 4h5.333V0h1.334v4H12v1.333H6.667v4H5.333v-4H0z"/></g><g id="Star-2-Clipped" transform="translate(4 13)" fill="#FFF" fill-rule="nonzero"><path id="Star-2" d="M2 3.333l-1.176.618.225-1.309-.951-.927 1.314-.19L2 .332l.588 1.191 1.314.191-.95.927.224 1.31z"/></g><g id="Star-2-Clipped" transform="translate(19 15)" fill="#FFF" fill-rule="nonzero"><path id="Star-2" d="M1 2.333l-.943.276.276-.942L.057.724 1 1l.943-.276-.276.943.276.942z"/></g><g id="Star-2-Clipped" transform="translate(19 3)" fill="#FFF" fill-rule="nonzero"><path id="Star-2" d="M1 1.667l-.943.276L.333 1 .057.057 1 .333l.943-.276L1.667 1l.276.943z"/></g><g id="Star-2-Clipped" transform="translate(23 7)" fill="#FFF" fill-rule="nonzero"><path id="Star-2" d="M1 1.667l-.943.276L.333 1 .057.057 1 .333l.943-.276L1.667 1l.276.943z"/></g><g id="Star-2-Clipped" transform="translate(15 8)" fill="#FFF" fill-rule="nonzero"><path id="Star-2" d="M1 2l-.943.276.276-.943L.057.391 1 .667 1.943.39l-.276.942.276.943z"/></g><g id="Star-2-Clipped" transform="translate(21 10)" fill="#FFF" fill-rule="nonzero"><path id="Star-2" d="M1 1.667l-.471.138.138-.472L.529.862 1 1l.471-.138-.138.471.138.472z"/></g></g></g></g></svg>