<svg height="20" viewBox="0 0 28 20" width="28" xmlns="http://www.w3.org/2000/svg" xmlns:xlink="http://www.w3.org/1999/xlink"><defs><rect id="a" height="20" rx="2" width="28"/><path id="b" d="m22.6666667 20v-20h-14.00000003z"/><filter id="c" height="125.9%" width="128%" x="-17.3%" y="-7.5%"><feMorphology in="SourceAlpha" operator="dilate" radius="0.5" result="shadowSpreadOuter1"/><feOffset dx="0" dy="0" in="shadowSpreadOuter1" result="shadowOffsetOuter1"/><feColorMatrix in="shadowOffsetOuter1" type="matrix" values="0 0 0 0 0   0 0 0 0 0   0 0 0 0 0  0 0 0 0.06 0"/></filter><mask id="d" fill="#fff"><use fill="#fff" fill-rule="evenodd" xlink:href="#a"/></mask></defs><g fill="none" fill-rule="evenodd"><use fill="#fff" xlink:href="#a"/><path d="m0 0h28v20h-28z" fill="#0b36b2" mask="url(#d)"/><g mask="url(#d)"><use fill="#000" filter="url(#c)" xlink:href="#b"/><use fill="#ffd045" fill-rule="evenodd" xlink:href="#b"/></g><g fill="#fff"><path d="m17.3333333 18.6666667-.942809.2761423.2761424-.942809-.2761424-.942809.942809.2761423.9428091-.2761423-.2761424.942809.2761424.942809z" mask="url(#d)"/><path d="m14.6666667 14.6666667-.9428091.2761423.2761424-.942809-.2761424-.942809.9428091.2761423.942809-.2761423-.2761424.942809.2761424.942809z" mask="url(#d)"/><path d="m12 10.6666667-.942809.2761423.2761423-.942809-.2761423-.94280904.942809.27614237.942809-.27614237-.2761423.94280904.2761423.942809z" mask="url(#d)"/><path d="m9.33333333 6.66666667-.94280904.27614237.27614238-.94280904-.27614238-.94280904.94280904.27614237.94280907-.27614237-.2761424.94280904.2761424.94280904z" mask="url(#d)"/><path d="m6.66666667 2.66666667-.94280904.27614237.27614237-.94280904-.27614237-.94280904.94280904.27614237.94280904-.27614237-.27614238.94280904.27614238.94280904z" mask="url(#d)"/></g></g></svg>