<svg height="20" viewBox="0 0 28 20" width="28" xmlns="http://www.w3.org/2000/svg" xmlns:xlink="http://www.w3.org/1999/xlink"><defs><rect id="a" height="20" rx="2" width="28"/><mask id="b" fill="#fff"><use fill="#fff" fill-rule="evenodd" xlink:href="#a"/></mask></defs><g fill="none" fill-rule="evenodd"><use fill="#fff" xlink:href="#a"/><path d="m0 0h28v20h-28z" fill="#e4233b" mask="url(#b)"/><path d="m0 0 12 10-12 10z" fill="#34cd4e" mask="url(#b)"/><path d="m16 0 12 10-12 10z" fill="#34cd4e" mask="url(#b)" transform="matrix(-1 0 0 1 44 0)"/><path d="m29.2824692-1.91644623 1.4911811 2.21076686-12.3195153 8.30921648c.1380986.4409244.2125317.91000125.2125317 1.39646289 0 .4864616-.0744331.9555385-.2125317 1.3964629l12.3195153 8.3092165-1.4911811 2.2107668-12.320236-8.3103114c-.8057709.6626646-1.8375386 1.0605319-2.9622332 1.0605319-1.1242327 0-2.1556148-.3975406-2.9612404-1.0597157l-12.3212288 8.3094952-1.49118107-2.2107668 12.31951528-8.3092165c-.13809856-.4409244-.21253168-.9100013-.21253168-1.3964629 0-.48646164.07443312-.95553849.21253168-1.39646289l-12.31951528-8.30921648 1.49118107-2.21076686 12.3212288 8.30949519c.8056256-.66217509 1.8370077-1.05971563 2.9612404-1.05971563 1.1246946 0 2.1564623.39786726 2.9622332 1.06053192z" fill="#fff" mask="url(#b)"/><path d="m12.942809 10.3905243-.2761423.942809.2761423.9428091-.942809-.2761424-.942809.2761424.2761423-.9428091-.2761423-.942809.942809.2761424zm4 0-.2761423.942809.2761423.9428091-.942809-.2761424-.942809.2761424.2761423-.9428091-.2761423-.942809.942809.2761424zm-2-3.33333334-.2761423.94280904.2761423.94280904-.942809-.27614237-.942809.27614237.2761423-.94280904-.2761423-.94280904.942809.27614237z" fill="#df2239" mask="url(#b)"/></g></svg>