<svg height="20" viewBox="0 0 28 20" width="28" xmlns="http://www.w3.org/2000/svg" xmlns:xlink="http://www.w3.org/1999/xlink"><defs><rect id="a" height="20" rx="2" width="28"/><circle id="b" cx="4.666667" cy="4.666667" r="4.666667"/><mask id="c" fill="#fff"><use fill="#fff" fill-rule="evenodd" xlink:href="#a"/></mask><mask id="d" fill="#fff"><use fill="#fff" fill-rule="evenodd" xlink:href="#b"/></mask></defs><g fill="none" fill-rule="evenodd"><use fill="#fff" xlink:href="#a"/><path d="m0 0h28v20h-28z" fill="#05ab41" mask="url(#c)"/><path d="m3.22868843 10.3636611c-.31039605-.2008445-.30401527-.53060648 0-.72732224l10.20928977-6.60601105c.3103961-.2008445.8200283-.19671577 1.1240436 0l10.2092898 6.60601105c.310396.2008445.3040152.53060654 0 .72732224l-10.2092898 6.6060111c-.3103961.2008445-.8200283.1967158-1.1240436 0z" fill="#fdd216" mask="url(#c)"/><g mask="url(#c)"><g transform="translate(9.333333 5.333333)"><use fill="#053087" fill-rule="evenodd" xlink:href="#b"/><path d="m-.66666667 4c.66666667-.66666664 3.07682292-.35481765 5.33333334.00000001 2.25651041.35481766 4.67478888 1.34145564 5.33333333 1.99999999" fill="none" mask="url(#d)" stroke="#fff" stroke-linecap="square" stroke-width="1.333333" transform="matrix(.9945219 .10452846 -.10452846 .9945219 .52774 -.461482)"/></g></g></g></svg>