<svg height="20" viewBox="0 0 28 20" width="28" xmlns="http://www.w3.org/2000/svg" xmlns:xlink="http://www.w3.org/1999/xlink"><defs><rect id="a" height="20" rx="2" width="28"/><mask id="b" fill="#fff"><use fill="#fff" fill-rule="evenodd" xlink:href="#a"/></mask></defs><g fill="none" fill-rule="evenodd"><use fill="#fff" xlink:href="#a"/><path d="m0 0h28v13.333333h-28z" fill="#e54252" mask="url(#b)"/><path d="m0 13.333333h28v6.666667h-28z" fill="#5cbe6b" mask="url(#b)"/><path d="m4 0v2.999l-.66666667 1.001.66666667 1.001v1.998l-.66666667 1.001.66666667 1.001v1.998l-.66666667 1.001.66666667 1.001v1.998l-.66666667 1.001.66666667 1.001v2.999h-4v-20z" fill="#fff" mask="url(#b)"/><g fill="#e54252"><path d="m-.66666667 14 1.33333334 2-1.33333334 2-1.33333333-2zm0-4 1.33333334 2-1.33333334 2-1.33333333-2zm0-4 1.33333334 2-1.33333334 2-1.33333333-2zm0-4 1.33333334 2-1.33333334 2-1.33333333-2z" mask="url(#b)"/><path d="m2 16 1.33333333 2-1.33333333 2-1.33333333-2zm0-4 1.33333333 2-1.33333333 2-1.33333333-2zm0-4 1.33333333 2-1.33333333 2-1.33333333-2zm0-4 1.33333333 2-1.33333333 2-1.33333333-2zm0-4 1.33333333 2-1.33333333 2-1.33333333-2z" mask="url(#b)"/></g></g></svg>