<svg height="20" viewBox="0 0 28 20" width="28" xmlns="http://www.w3.org/2000/svg" xmlns:xlink="http://www.w3.org/1999/xlink"><mask id="a" fill="#fff"><rect fill="#fff" fill-rule="evenodd" height="20" rx="2" width="28"/></mask><g fill="none" fill-rule="evenodd"><rect height="19.5" rx="2" stroke="#f5f5f5" stroke-width=".5" width="27.5" x=".25" y=".25"/><g fill="#ff3131"><path d="m20 0h8v20h-8z" mask="url(#a)"/><path d="m0 0h8v20h-8z" mask="url(#a)"/><path d="m15.5655823 9.76775106c-.1282676.12826755-.2036031.08901977-.1658891-.09955025l.6003068-3.00153414-1.3333333.66666666-.6666667-2-.6666667 2-1.3333333-.66666666.6003068 3.00153414c.0366496.18324763-.0382646.22717476-.1658891.09955025l-.8688354-.86883545c-.1282676-.12826755-.3364156-.12808228-.4729309.00843302l-.4259847.4259847-1.33333337-.66666666.66666667 1.33333333-.4259847.4259847c-.13292498.132925-.13315328.3482107-.01125654.4701074l1.77057454 1.7705746h2l.3333334 2h.6666666l.3333334-2h2l1.7705745-1.7705746c.1267082-.1267082.1252588-.3335921-.0112565-.4701074l-.4259847-.4259847.6666667-1.33333333-1.3333334.66666666-.4259847-.4259847c-.1329249-.13292498-.3453064-.13605753-.4729309-.00843302z" mask="url(#a)"/></g></g></svg>