<svg height="20" viewBox="0 0 28 20" width="28" xmlns="http://www.w3.org/2000/svg" xmlns:xlink="http://www.w3.org/1999/xlink"><defs><rect id="a" height="20" rx="2" width="28"/><mask id="b" fill="#fff"><use fill="#fff" fill-rule="evenodd" xlink:href="#a"/></mask></defs><g fill="none" fill-rule="evenodd"><use fill="#fff" xlink:href="#a"/><path d="m0 0h28v20h-28z" fill="#f00" mask="url(#b)"/><path d="m12 12h-3.65896225c-.18834995 0-.34103775-.1519203-.34103775-.3410378v-3.31792445c0-.18834995.15192032-.34103775.34103775-.34103775h3.65896225v-3.65896225c0-.18834995.1519203-.34103775.3410378-.34103775h3.3179244c.18835 0 .3410378.15192032.3410378.34103775v3.65896225h3.6589622c.18835 0 .3410378.15192032.3410378.34103775v3.31792445c0 .18835-.1519203.3410378-.3410378.3410378h-3.6589622v3.6589622c0 .18835-.1519203.3410378-.3410378.3410378h-3.3179244c-.18835 0-.3410378-.1519203-.3410378-.3410378z" fill="#fff" mask="url(#b)"/></g></svg>