<svg height="20" viewBox="0 0 28 20" width="28" xmlns="http://www.w3.org/2000/svg" xmlns:xlink="http://www.w3.org/1999/xlink"><defs><rect id="a" height="20" rx="2" width="28"/><mask id="b" fill="#fff"><use fill="#fff" fill-rule="evenodd" xlink:href="#a"/></mask></defs><g fill="none" fill-rule="evenodd"><use fill="#fff" xlink:href="#a"/><path d="m0 0h28v20h-28z" fill="#f1361d" mask="url(#b)"/><g fill="#ffdc42"><path d="m11.9592954 10.1560699.0115744.982349.539727.8208765-.982349.0115744-.8208766.539727-.0115744-.982349-.5397269-.8208766.982349-.0115744zm.6092694-2.58160596.880534.43566422.9764373-.10823008-.4356643.88053404.1082301.97643727-.880534-.43566422-.9764373.10823008.4356642-.88053404zm1.4314352-3.39583115-.0227161.98215451.51075.8392127-.9821545-.02271612-.8392127.51074999.0227161-.98215451-.51075-.83921269.9821545.02271611zm-3.1007575-2.77265756.7263383.66149541.968444.16510515-.6614954.72633831-.1651052.968444-.7263383-.6614954-.968444-.16510516.6614954-.7263383z" mask="url(#b)"/><path d="m6.66666667 8.22666673-2.35114101 1.67606791.86749278-2.75400144-2.32057784-1.71813451 2.88728104-.02599858.91694503-2.73793344.91694503 2.73793344 2.887281.02599858-2.32057781 1.71813451.86749279 2.75400144z" mask="url(#b)"/></g></g></svg>