<svg height="20" viewBox="0 0 28 20" width="28" xmlns="http://www.w3.org/2000/svg" xmlns:xlink="http://www.w3.org/1999/xlink"><mask id="a" fill="#fff"><rect fill="#fff" fill-rule="evenodd" height="20" rx="2" width="28"/></mask><g fill="none" fill-rule="evenodd"><rect height="19.5" rx="2" stroke="#f5f5f5" stroke-width=".5" width="27.5" x=".25" y=".25"/><path d="m20.7290853 2.96879069c.333717-.16685849.4407552-.05688477.2399088.24438477l-.6046549.90698242c-.201219.30182847-.6095785.71000163-.910848.91084798l-.9069824.60465495c-.3018285.20121898-.7574463.57527669-1.0167592.83458964l.2738342-.27383423c-.2597122.25971215-.2619171.67858378-.0039152.93658574l.4006628.40066274c.2575498.25754988.2580019.67466863 0 .9326706l-.4006628.40066274c-.2575498.25754987-.7361552.33142535-1.0705833.16421127l-.1248373-.06241862c-.3337169-.16685849-.7391579-.03230413-.906372.30212402l-.0624186.12483724c-.1668585.33371698-.5802155.69694515-.9349366.81518555l-.734375.2447917c-.3494927.1164975-.9287223.2109375-1.2994791.2109375-.3681899 0-.8015766.2698199-.9687907.604248l-.0624186.1248373c-.1668585.3337169-.5675634.4715283-.8939438.3083381l-1.48302717-.7415136c-.32685303-.1634265-.8001531-.5042432-1.05815506-.7622451l-.40066274-.40066277c-.25754987-.25754987-.4663353-.76224518-.4663353-1.13300196 0-.36818984.30212403-.66666667.66666667-.66666667h-.66666667c.36818984 0 .875-.20833333 1.13300197-.4663353l.40066274-.40066274c.25754987-.25754987.76224517-.46633529 1.13300196-.46633529.3681898 0 .7593638-.27809143.8776042-.6328125l.2447916-.734375c.1164976-.3494927.4951357-.57597288.8694969-.50110062l2.0162146.4032429c.3637123.07274247.9439394.06036687 1.304085-.02966952l1.3756154-.34390386c.356514-.08912849.9153455-.29629135 1.2497737-.46350543l.1248372-.06241862c.333717-.16685849.874068-.43703397 1.2084961-.60424804l.1248373-.06241862c.3337169-.16685849.8740679-.43703397 1.208496-.60424805z" fill="#e7832c" mask="url(#a)"/><circle cx="14" cy="15.333333" fill="#445128" mask="url(#a)" r="1"/><g stroke="#445128" stroke-linecap="round" stroke-width="1.333333"><path d="m16 14.6666667s2-.6666667 2.6666667-2" mask="url(#a)" opacity=".75"/><path d="m9.33333333 14.6666667s1.99999997-.6666667 2.66666667-2" mask="url(#a)" opacity=".75" transform="matrix(-1 0 0 1 21.333334 0)"/></g></g></svg>