<svg height="20" viewBox="0 0 28 20" width="28" xmlns="http://www.w3.org/2000/svg" xmlns:xlink="http://www.w3.org/1999/xlink"><defs><rect id="a" height="20" rx="2" width="28"/><linearGradient id="b" x1="50%" x2="50%" y1="0%" y2="100%"><stop offset="0" stop-color="#e02c42"/><stop offset="1" stop-color="#d22036"/></linearGradient><mask id="c" fill="#fff"><use fill="#fff" fill-rule="evenodd" xlink:href="#a"/></mask></defs><g fill="none" fill-rule="evenodd"><use fill="#fff" xlink:href="#a"/><path d="m0 0h28v8h-28z" fill="#108753" mask="url(#c)"/><path d="m0 12h28v8h-28z" fill="#108753" mask="url(#c)"/><path d="m16 0v8h12v4h-12v8h-4v-8h-12v-4h12v-8z" fill="#fff" mask="url(#c)"/><path d="m14.6666667 0-.0006667 9.333 13.334.00033333v1.33333337l-13.334-.0006667.0006667 9.334h-1.3333334l-.0003333-9.334-13.333.0006667v-1.33333337l13.333-.00033333.0003333-9.333z" fill="#262626" mask="url(#c)"/><path d="m13.3333333 0-.0003333 7.999 14.667.001v1.33333333l-14.667-.00033333.0003333 10.667h-1.3333333v-10.667l-12 .00033333v-1.33333333l12-.001v-7.999z" fill="#fcd449" mask="url(#c)"/><circle cx="14" cy="10" fill="url(#b)" mask="url(#c)" r="4.666667"/><path d="m14 13.3333333c1.8409492 0 3.3333333-1.4923841 3.3333333-3.3333333 0-1.84094917-1.4923841-3.33333333-3.3333333-3.33333333s-3.3333333 1.49238416-3.3333333 3.33333333c0 1.8409492 1.4923841 3.3333333 3.3333333 3.3333333z" mask="url(#c)" stroke="#0e673f" stroke-dasharray=".666667 2.666667" stroke-linecap="round" stroke-width="1.333333"/><path d="m14 11.3333333c.7363797 0 .6666667-.5969536.6666667-1.3333333 0-.73637967.069713-1.33333333-.6666667-1.33333333s-.6666667.59695366-.6666667 1.33333333c0 .7363797-.069713 1.3333333.6666667 1.3333333z" fill="#0e673f" mask="url(#c)"/></g></svg>