<svg height="20" viewBox="0 0 28 20" width="28" xmlns="http://www.w3.org/2000/svg" xmlns:xlink="http://www.w3.org/1999/xlink"><mask id="a" fill="#fff"><rect fill="#fff" fill-rule="evenodd" height="20" rx="2" width="28"/></mask><g fill="none" fill-rule="evenodd"><rect height="19.5" rx="2" stroke="#f5f5f5" stroke-width=".5" width="27.5" x=".25" y=".25"/><path d="m0 0h12v8h-12z" fill="#083d7a" mask="url(#a)"/><path d="m16 12h12v8h-12z" fill="#083d7a" mask="url(#a)"/><path d="m0 12h12v8h-12z" fill="#df1e35" mask="url(#a)"/><path d="m16 0h12v8h-12z" fill="#df1e35" mask="url(#a)"/><path d="m15.6614489 10.1328534c-.0321193.4072662-.2106351.7733554-.4829376 1.0456579-.3016073.3016073-.718274.4881554-1.1785113.4881554s-.876904-.1865481-1.1785113-.4881554-.4881554-.718274-.4881554-1.1785113c0-.46023729.1865481-.87690396.4881554-1.1785113.2723025-.27230251.6383917-.45081832 1.0456579-.48293762z" mask="url(#a)" stroke="#0f6d1a" stroke-width=".666667" transform="matrix(.70710678 -.70710678 .70710678 .70710678 -2.970563 12.828427)"/><circle cx="14" cy="10" fill="#042f60" mask="url(#a)" r="1"/></g></svg>