<svg height="20" viewBox="0 0 28 20" width="28" xmlns="http://www.w3.org/2000/svg" xmlns:xlink="http://www.w3.org/1999/xlink"><mask id="a" fill="#fff"><rect fill="#fff" fill-rule="evenodd" height="20" rx="2" width="28"/></mask><g fill="none" fill-rule="evenodd"><rect height="19.5" rx="2" stroke="#f5f5f5" stroke-width=".5" width="27.5" x=".25" y=".25"/><path d="m0 0h14.666667v20h-14.666667z" fill="#048345" mask="url(#a)"/><g fill="#e81b42"><path d="m17.3333333 11.04-1.5674273 1.1173787.5783285-1.836001-1.5470519-1.14542302 1.924854-.01733239.6112967-1.82528896.6112967 1.82528896 1.924854.01733239-1.5470519 1.14542302.5783286 1.836001z" mask="url(#a)"/><path d="m13.7509001 4c1.5203321 0 2.9028734.61550603 3.9311862 1.62070525-.7088146-.33901148-1.5120589-.52979616-2.3627589-.52979616-2.8873949 0-5.228091 2.19787487-5.228091 4.90909091 0 2.711216 2.3406961 4.9090909 5.228091 4.9090909.8507 0 1.6539443-.1907847 2.3638519-.5292725-1.0294058 1.0046756-2.4119471 1.6201816-3.9322792 1.6201816-3.1761344 0-5.7509001-2.6862915-5.7509001-6s2.5747657-6 5.7509001-6z" mask="url(#a)"/></g></g></svg>