<svg height="20" viewBox="0 0 28 20" width="28" xmlns="http://www.w3.org/2000/svg" xmlns:xlink="http://www.w3.org/1999/xlink"><defs><rect id="a" height="20" rx="2" width="28"/><mask id="b" fill="#fff"><use fill="#fff" fill-rule="evenodd" xlink:href="#a"/></mask></defs><g fill="none" fill-rule="evenodd"><use fill="#fff" xlink:href="#a"/><path d="m0 9.333333h28v5.333333h-28z" fill="#0748ae" mask="url(#b)"/><path d="m0 14.666667h28v5.333333h-28z" fill="#de2035" mask="url(#b)"/><path d="m0 0h28v9.333333h-28z" fill="#ffd935" mask="url(#b)"/><path d="m15.6006443 8.000445c.6473384.48653968 1.0660224 1.26089767 1.0660224 2.1330445 0 1.4727594-1.1939074 2.6666667-2.6666667 2.6666667s-2.6666667-1.1939073-2.6666667-2.6666667c0-.87196984.418514-1.64619052 1.0656283-2.13274825l.9343717 2.79941495h1.3333334z" fill="#ffd935" mask="url(#b)"/><path d="m14 7.33333333.6666667 3.33333337h-1.3333334z" fill="#5fc0dc" mask="url(#b)"/><path d="m17.3333333 6-2-.66666667-1.3333333 1.33333334-1.3333333-1.33333334-2 .66666667" style="stroke:#3f2821;stroke-width:.666667;opacity:.66;stroke-linecap:round;stroke-linejoin:round;mask:url(#b)"/></g></svg>