<svg height="20" viewBox="0 0 28 20" width="28" xmlns="http://www.w3.org/2000/svg" xmlns:xlink="http://www.w3.org/1999/xlink"><mask id="a" fill="#fff"><rect fill="#fff" fill-rule="evenodd" height="20" rx="2" width="28"/></mask><g fill="none" fill-rule="evenodd"><rect height="19.5" rx="2" stroke="#f5f5f5" stroke-width=".5" width="27.5" x=".25" y=".25"/><path d="m0 0h28v6.666667h-28z" fill="#e41d33" mask="url(#a)"/><path d="m0 13.333333h28v6.666667h-28z" fill="#262626" mask="url(#a)"/><path d="m13.6666667 10.3333333h-1.1009252l-1.1161922.7441281-.4485931-2.44209872 1.7111792 1.39376962c.1191937-.30208719.2466858-.53530955.2466858-.53530955s.2994095-.54771227.6641387-.91244148c.9325957-.24804794 1.412231.90102326 1.412231.90102326s.1538424.36856304.2163003.75996907l.8388624-1.67772473c.4879681-.17111475.6753338-.19006084.7912948-.11322649l.1183516 2.42423362-1.6121012-.5423227h-1.0545655v1z" fill="#f4b32e" fill-opacity=".25" mask="url(#a)" stroke="#c6a846" stroke-width=".666667"/></g></svg>