<svg height="20" viewBox="0 0 28 20" width="28" xmlns="http://www.w3.org/2000/svg" xmlns:xlink="http://www.w3.org/1999/xlink"><defs><rect id="a" height="20" rx="2" width="28"/><mask id="b" fill="#fff"><use fill="#fff" fill-rule="evenodd" xlink:href="#a"/></mask></defs><g fill="none" fill-rule="evenodd"><use fill="#fff" xlink:href="#a"/><path d="m0 0h28v5.333333h-28z" fill="#dd172c" mask="url(#b)"/><path d="m0 14.666667h28v5.333333h-28z" fill="#dd172c" mask="url(#b)"/><path d="m0 5.333333h28v9.333333h-28z" fill="#ffd133" mask="url(#b)"/><path d="m7.33333333 9.33333333h1.33333334v.66666667h-1.33333334z" fill="#ffedb1" mask="url(#b)"/><path d="m8.08324228 12.0327619c-.20023408.1846535-.46505066.3005714-.74990895.3005714-.28404661 0-.54977367-.1156662-.75077375-.3010261-.20040409-.1848102-.337606-.4400624-.36137283-.7252644l-.14384848-1.72618178 2.28320396-.57920475.08385028 2.31757963c-.02652904.2791434-.16278211.5305934-.36115023.713526z" mask="url(#b)" stroke="#a41517" stroke-width=".666667"/><g fill="#a41517"><path d="m6 10h2.66666667v.6666667h-.66666667l-.66666667 1.3333333-.66666666-1.3333333h-.66666667z" mask="url(#b)"/><path d="m4 8h1.333333v4.666667h-1.333333z" mask="url(#b)"/><path d="m9.333333 8h1.333333v4.666667h-1.333333z" mask="url(#b)"/><path d="m6 7.33333333c0-.36818983.30590057-.66666666.6729126-.66666666h1.32084147c.37163936 0 .6729126.29590988.6729126.66666666v.33021037c0 .18581968-.14337159.3364563-.32698568.3364563h-2.01269531c-.18058921 0-.32698568-.14269002-.32698568-.3364563z" mask="url(#b)"/></g></g></svg>