<svg height="20" viewBox="0 0 28 20" width="28" xmlns="http://www.w3.org/2000/svg" xmlns:xlink="http://www.w3.org/1999/xlink"><defs><rect id="a" height="20" rx="2" width="28"/><linearGradient id="b" x1="50%" x2="50%" y1="0%" y2="100%"><stop offset="0" stop-color="#042c90"/><stop offset="1" stop-color="#00247e"/></linearGradient><path id="c" d="m0 4.66666667v-4.66666667h6.66666667v4.66666667c0 3.33333333-3.33333334 4.66666666-3.33333334 4.66666666s-3.33333333-1.33333333-3.33333333-4.66666666z"/><linearGradient id="d" x1="50%" x2="50%" y1="0%" y2="100%"><stop offset="0" stop-color="#fff"/><stop offset="1" stop-color="#f0f0f0"/></linearGradient><mask id="e" fill="#fff"><use fill="#fff" fill-rule="evenodd" xlink:href="#a"/></mask><mask id="f" fill="#fff"><use fill="#fff" fill-rule="evenodd" xlink:href="#c"/></mask></defs><g fill="none" fill-rule="evenodd"><use fill="#fff" xlink:href="#a"/><path d="m0 0h28v20h-28z" fill="#79cff6" mask="url(#e)"/><path d="m0 0h12v9.333333h-12z" fill="url(#b)" mask="url(#e)"/><g mask="url(#e)"><g fill-rule="evenodd" transform="translate(17.333333 5.333333)"><use fill="#fff" xlink:href="#c"/><path d="m1.33333333 2c.36818984 0 .66666667.29847683.66666667.66666667 0 .36818983-.29847683.66666666-.66666667.66666666-.36818983 0-.66666666-.29847683-.66666666-.66666666 0-.36818984.29847683-.66666667.66666666-.66666667zm4 0c.36818984 0 .66666667.29847683.66666667.66666667 0 .36818983-.29847683.66666666-.66666667.66666666-.36818983 0-.66666666-.29847683-.66666666-.66666666 0-.36818984.29847683-.66666667.66666666-.66666667z" fill="#2a915c" mask="url(#f)"/><path d="m0 0h6.66666667v1.33333333h-2.66666667v2.66666667h2.66666667v1.33333333h-2.66666667v4h-1.33333333v-4h-2.66666667v-1.33333333h2.66666667v-2.66666667h-2.66666667z" fill="#eb1d43" mask="url(#f)"/></g></g><path d="m6.57256028 6.33333333h-1.1436282l-5.76226541 3.60141588v-1.43962184l4.66666666-3.33333334v-1.00848239l-5.23441913-4.48664497h1.67457415l4.66666667 3.33333333h1.1309129l5.72574658-3.57859164c.1321116 1.15267481-.1171297 1.52654654-.3810143 1.71503554l-4.24913353 3.0350954v1.00848239l7.49001743 6.42001491z" fill="#db1e36" mask="url(#e)" stroke="#fff" stroke-width=".666667"/><path d="m0 3.33333333v2.66666667h4.66666667v3.33948135c0 .36479438.30590057.66051865.67291259.66051865h1.32084148c.37163936 0 .67291259-.30065012.67291259-.66051865v-3.33948135h4.65786297c.373052 0 .6754704-.30590057.6754704-.6729126v-1.32084147c0-.37163936-.3020242-.6729126-.6754704-.6729126h-4.65786297v-3.33333333h-2.66666666v3.33333333z" fill="url(#d)" mask="url(#e)"/><path d="m0 4h5.33333333v-.66666667-3.33333333h1.33333334v3.33333333.66666667h5.33333333v1.33333333h-5.33333333v.66666667 3.33333333h-1.33333334v-3.33333333-.66666667h-5.33333333z" fill="#db1e36" mask="url(#e)"/></g></svg>