<svg height="20" viewBox="0 0 28 20" width="28" xmlns="http://www.w3.org/2000/svg" xmlns:xlink="http://www.w3.org/1999/xlink"><defs><rect id="a" height="20" rx="2" width="28"/><mask id="b" fill="#fff"><use fill="#fff" fill-rule="evenodd" xlink:href="#a"/></mask></defs><g fill="none" fill-rule="evenodd"><use fill="#fff" xlink:href="#a"/><path d="m0 0h28v20h-28z" fill="#95cef5" mask="url(#b)"/><path d="m14 12.6666667.6426452 1.7821414 1.8935055.0604799-1.4963289 1.1619039.5276055 1.8195201-1.5674273-1.0640453-1.5674273 1.0640453.5276055-1.8195201-1.4963289-1.1619039 1.8935055-.0604799zm5.3333333-5.33333337.6426452 1.78214143 1.8935055.06047992-1.4963289 1.16190392.5276056 1.8195201-1.5674274-1.0640454-1.5674273 1.0640454.5276056-1.8195201-1.496329-1.16190392 1.8935055-.06047992zm-10.66666663 0 .6426452 1.78214143 1.89350553.06047992-1.49632895 1.16190392.52760555 1.8195201-1.56742733-1.0640454-1.56742734 1.0640454.52760555-1.8195201-1.49632892-1.16190392 1.8935055-.06047992zm5.33333333-5.33333333.6426452 1.78214143 1.8935055.06047992-1.4963289 1.16190389.5276055 1.81952008-1.5674273-1.06404533-1.5674273 1.06404533.5276055-1.81952008-1.4963289-1.16190389 1.8935055-.06047992z" fill="#fff" mask="url(#b)"/></g></svg>