<svg height="20" viewBox="0 0 28 20" width="28" xmlns="http://www.w3.org/2000/svg" xmlns:xlink="http://www.w3.org/1999/xlink"><defs><rect id="a" height="20" rx="2" width="28"/><path id="b" d="m0 0h22.666667v14.666667h-22.666667z"/><linearGradient id="c" x1="50%" x2="50%" y1="0%" y2="100%"><stop offset="0" stop-color="#e21c30"/><stop offset="1" stop-color="#ce1225"/></linearGradient><mask id="d" fill="#fff"><use fill="#fff" fill-rule="evenodd" xlink:href="#a"/></mask><mask id="e" fill="#fff"><use fill="#fff" fill-rule="evenodd" xlink:href="#b"/></mask></defs><g fill="none" fill-rule="evenodd"><use fill="#fff" xlink:href="#a"/><path d="m0 0h28v20h-28z" fill="#e42235" mask="url(#d)"/><g mask="url(#d)"><g fill-rule="evenodd" transform="translate(2.666667 2.666667)"><use fill="#079b77" xlink:href="#b"/><path d="m1.7265052 7.46513824c.37750295.60413102.91947805 1.0029115 1.42427983 1.10525293.27791253.05634285-.23091455-1.21817831-.00918318-1.35673145.18919127-.11821983 1.0994518.94166096 1.17915983.72053583.18339341-.50876799.07520802-1.2292342-.3327949-1.88217534-.58533265-.93672806-.60818354-.31847057-2.19056932-.98953718.16544824.95968111-.65622492 1.46592715-.07089226 2.40265521z" fill="#ffd938" mask="url(#e)"/><path d="m11.3333333 7.33333333 11.3333334 7.33333337h-22.6666667zm11.3333334-7.33333333-11.3333334 7.33333333-11.3333333-7.33333333z" fill="#ffd93b" mask="url(#e)"/><circle cx="11.333333" cy="7.333333" fill="url(#c)" mask="url(#e)" r="3.333333"/><path d="m11.3333333 8.36172945-1.56742731 1.12898253.58936451-1.83958677-1.55808788-1.14183719 1.93167468-.00794462.604476-1.83467673.6044761 1.83467673 1.9316746.00794462-1.5580878 1.14183719.5893645 1.83958677z" fill="#ffd938" mask="url(#e)"/></g></g></g></svg>