<svg height="20" viewBox="0 0 28 20" width="28" xmlns="http://www.w3.org/2000/svg" xmlns:xlink="http://www.w3.org/1999/xlink"><mask id="a" fill="#fff"><rect fill="#fff" fill-rule="evenodd" height="20" rx="2" width="28"/></mask><g fill="none" fill-rule="evenodd"><rect height="19.5" rx="2" stroke="#f5f5f5" stroke-width=".5" width="27.5" x=".25" y=".25"/><path d="m16-1.33333333-.0003333 9.333 13.3336666.00033333v4l-13.3336666-.0003333.0003333 9.3336666h-4l-.0003333-9.3336666-13.33300003.0003333v-4l13.33300003-.00033333.0003333-9.333z" fill="#ff2b37" mask="url(#a)"/><g fill="#fd0d1b"><path d="m22.6666667 2-.2666667 1.599 1.6-.26566667v1.33333334l-1.6-.26666667.2666667 1.6h-1.3333334l.2656667-1.6-1.599.26666667v-1.33333334l1.599.26566667-.2656667-1.599z" mask="url(#a)"/><path d="m6.66666667 2-.26666667 1.599 1.6-.26566667v1.33333334l-1.6-.26666667.26666667 1.6h-1.33333334l.26566667-1.6-1.599.26666667v-1.33333334l1.599.26566667-.26566667-1.599z" mask="url(#a)"/><path d="m6.66666667 14-.26666667 1.599 1.6-.2656667v1.3333334l-1.6-.2666667.26666667 1.6h-1.33333334l.26566667-1.6-1.599.2666667v-1.3333334l1.599.2656667-.26566667-1.599z" mask="url(#a)"/><path d="m22.6666667 14-.2666667 1.599 1.6-.2656667v1.3333334l-1.6-.2666667.2666667 1.6h-1.3333334l.2656667-1.6-1.599.2666667v-1.3333334l1.599.2656667-.2656667-1.599z" mask="url(#a)"/></g></g></svg>