<svg height="20" viewBox="0 0 28 20" width="28" xmlns="http://www.w3.org/2000/svg" xmlns:xlink="http://www.w3.org/1999/xlink"><mask id="a" fill="#fff"><rect fill="#fff" fill-rule="evenodd" height="20" rx="2" width="28"/></mask><g fill="none" fill-rule="evenodd"><rect height="19.5" rx="2" stroke="#f5f5f5" stroke-width=".5" width="27.5" x=".25" y=".25"/><path d="m10.666667 0h6.666667v20h-6.666667z" fill="#e8112d" mask="url(#a)"/><path d="m0 6.666667h28v6.666667h-28z" fill="#e8112d" mask="url(#a)"/><g fill="#f9dd16" mask="url(#a)"><g transform="translate(6.666667 2.666667)"><path d="m6.666667 0h1.333333v14.666667h-1.333333z"/><path d="m7.33333333 13.3333333 1.33333334 1.3333334h-2.66666667z"/><path d="m0 6.666667h14.666667v1.333333h-14.666667z"/><path d="m7.33333333 0 1.33333334 1.33333333h-2.66666667z" transform="matrix(1 0 0 -1 0 1.333334)"/><path d="m.66666667 6.66666667 1.33333333 1.33333333h-2.66666667z" transform="matrix(0 -1 -1 0 8 8)"/><path d="m14 6.66666667 1.3333333 1.33333333h-2.6666666z" transform="matrix(0 -1 1 0 6.666667 21.333333)"/></g></g></g></svg>