<svg height="20" viewBox="0 0 28 20" width="28" xmlns="http://www.w3.org/2000/svg" xmlns:xlink="http://www.w3.org/1999/xlink"><mask id="a" fill="#fff"><rect fill="#fff" fill-rule="evenodd" height="20" rx="2" width="28"/></mask><g fill="none" fill-rule="evenodd"><rect height="19.5" rx="2" stroke="#f5f5f5" stroke-width=".5" width="27.5" x=".25" y=".25"/><path d="m0 13.333333h28v6.666667h-28z" fill="#e34f4f" mask="url(#a)"/><path d="m9.333333 8h8v5.333333h-8z" fill="#e34f4f" mask="url(#a)"/><g fill="#181a1a"><path d="m10.666667 12h1.333333v1.333333h-1.333333z" mask="url(#a)"/><path d="m14.666667 12h1.333333v1.333333h-1.333333z" mask="url(#a)"/><path d="m9.333333 6.666667h1.333333v1.333333h-1.333333z" mask="url(#a)"/><path d="m13.333333 6.666667h1.333333v1.333333h-1.333333z" mask="url(#a)"/><path d="m12 6.666667h1.333333v1.333333h-1.333333z" mask="url(#a)"/><path d="m16 6.666667h1.333333v1.333333h-1.333333z" mask="url(#a)"/></g><path d="m9.333333 5.333333h1.333333v1.333333h-1.333333z" fill="#e34f4f" mask="url(#a)"/><path d="m13.333333 5.333333h1.333333v1.333333h-1.333333z" fill="#e34f4f" mask="url(#a)"/><path d="m12 5.333333h1.333333v1.333333h-1.333333z" fill="#e34f4f" mask="url(#a)"/><path d="m16 5.333333h1.333333v1.333333h-1.333333z" fill="#e34f4f" mask="url(#a)"/></g></svg>