<svg height="20" viewBox="0 0 28 20" width="28" xmlns="http://www.w3.org/2000/svg" xmlns:xlink="http://www.w3.org/1999/xlink"><mask id="a" fill="#fff"><rect fill="#fff" fill-rule="evenodd" height="20" rx="2" width="28"/></mask><g fill="none" fill-rule="evenodd"><rect height="19.5" rx="2" stroke="#f5f5f5" stroke-width=".5" width="27.5" x=".25" y=".25"/><path d="m0 13.333333h28v6.666667h-28z" fill="#ec3938" mask="url(#a)"/><path d="m0 0h28v6.666667h-28z" fill="#51b422" mask="url(#a)"/><path d="m13.420774 11.9089152c.1284374-.1337902.2334315-.3953451.2344108-.5666885l.0096275-1.68445336c.0010242-.17918327-.1543956-.32444001-.3367-.32444001h-.3228913c-.1869784 0-.2339299-.10462443-.1063054-.23224894l.8688355-.86883545c.1282675-.12826755.3368733-.12762451.4644978 0l.8688355.86883545c.1282675.12826755.0759989.23224894-.1063054.23224894h-.3228913c-.1869784 0-.3385544.15309652-.3385544.32444001v1.68445336c0 .1791832.1054688.4299087.2422486.5666885l-.1511638-.1511637c.1337902.1337901.0995585.2422485-.0942077.2422485h-.6604208c-.1858197 0-.2352072-.1054687-.1038997-.2422485z" fill="#159940" mask="url(#a)"/><path d="m0 0 9.33333333 10-9.33333333 10z" fill="#258de7" mask="url(#a)"/></g></svg>