<svg height="20" viewBox="0 0 28 20" width="28" xmlns="http://www.w3.org/2000/svg" xmlns:xlink="http://www.w3.org/1999/xlink"><mask id="a" fill="#fff"><rect fill="#fff" fill-rule="evenodd" height="20" rx="2" width="28"/></mask><g fill="none" fill-rule="evenodd"><rect height="19.5" rx="2" stroke="#f5f5f5" stroke-width=".5" width="27.5" x=".25" y=".25"/><path d="m0 0h28v6.666667h-28z" fill="#0884e6" mask="url(#a)"/><path d="m0 13.333333h28v6.666667h-28z" fill="#0884e6" mask="url(#a)"/><g fill="#0e88e9"><path d="m14 10.6666667-.942809.2761423.2761423-.942809-.2761423-.94280904.942809.27614237.942809-.27614237-.2761423.94280904.2761423.942809z" mask="url(#a)"/><path d="m19.3333333 9.33333333-.942809.27614238.2761424-.94280904-.2761424-.94280904.942809.27614237.9428091-.27614237-.2761424.94280904.2761424.94280904z" mask="url(#a)"/><path d="m19.3333333 12-.942809.2761424.2761424-.9428091-.2761424-.942809.942809.2761424.9428091-.2761424-.2761424.942809.2761424.9428091z" mask="url(#a)"/><path d="m8.66666667 12-.94280904.2761424.27614237-.9428091-.27614237-.942809.94280904.2761424.94280904-.2761424-.27614238.942809.27614238.9428091z" mask="url(#a)"/><path d="m8.66666667 9.33333333-.94280904.27614238.27614237-.94280904-.27614237-.94280904.94280904.27614237.94280904-.27614237-.27614238.94280904.27614238.94280904z" mask="url(#a)"/></g></g></svg>