<svg height="20" viewBox="0 0 28 20" width="28" xmlns="http://www.w3.org/2000/svg" xmlns:xlink="http://www.w3.org/1999/xlink"><linearGradient id="a" x1="50%" x2="50%" y1="0%" y2="100%"><stop offset="0" stop-color="#ff212e"/><stop offset="1" stop-color="#fd0d1b"/></linearGradient><mask id="b" fill="#fff"><rect fill="#fff" fill-rule="evenodd" height="20" rx="2" width="28"/></mask><g fill="none" fill-rule="evenodd"><rect height="19.5" rx="2" stroke="#f5f5f5" stroke-width=".5" width="27.5" x=".25" y=".25"/><path d="m0 0h28v6.666667h-28z" fill="#ff202d" mask="url(#b)"/><path d="m11.3333333 4.66666667.6666667.66666666v1.33333334h-1.3333333v-1.33333334zm2.6666667 0 .6666667.66666666v1.33333334h-1.3333334v-1.33333334zm2.6666667 0 .6666666.66666666v1.33333334h-1.3333333v-1.33333334z" fill="#1895db" mask="url(#b)" opacity=".5"/><path d="m12.6666667 4.66666667.6666666.66666666v1.33333334h-1.3333333v-1.33333334zm2.6666666 0 .6666667.66666666v1.33333334h-1.3333333v-1.33333334z" fill="#191f94" mask="url(#b)" opacity=".5"/><path d="m0 13.333333h28v6.666667h-28z" fill="#2027ac" mask="url(#b)"/><path d="m16 13.3333333v1.3333334h-1.3333333v-1.3333334zm-2.6666667 0v1.3333334h-1.3333333v-1.3333334zm-1.3333333-1.3333333v1.3333333h-1.3333333v-1.3333333zm2.6666667 0v1.3333333h-1.3333334v-1.3333333zm2.6666666 0v1.3333333h-1.3333333v-1.3333333zm-1.3333333-1.3333333v1.3333333h-1.3333333v-1.3333333zm-2.6666667 0v1.3333333h-1.3333333v-1.3333333zm1.3333334-1.33333337v1.33333337h-1.3333334v-1.33333337zm2.6666666 0v1.33333337h-1.3333333v-1.33333337zm-5.3333333 0v1.33333337h-1.3333333v-1.33333337zm1.3333333-1.33333333v1.33333333h-1.3333333v-1.33333333zm2.6666667 0v1.33333333h-1.3333333v-1.33333333zm-1.3333333-1.33333333v1.33333333h-1.3333334v-1.33333333zm2 0 .6666666 1.33333333h-1.3333333v-1.33333333zm-4.6666667 0v1.33333333h-1.3333333l.6666666-1.33333333z" fill="url(#a)" mask="url(#b)"/></g></svg>