<svg height="20" viewBox="0 0 28 20" width="28" xmlns="http://www.w3.org/2000/svg" xmlns:xlink="http://www.w3.org/1999/xlink"><defs><rect id="a" height="20" rx="2" width="28"/><linearGradient id="b" x1="50%" x2="50%" y1="0%" y2="100%"><stop offset="0" stop-color="#fff"/><stop offset="1" stop-color="#f0f0f0"/></linearGradient><rect id="c" height="8" rx=".666667" width="9.333333"/><mask id="d" fill="#fff"><use fill="#fff" fill-rule="evenodd" xlink:href="#a"/></mask><mask id="e" fill="#fff"><use fill="#fff" fill-rule="evenodd" xlink:href="#c"/></mask></defs><g fill="none" fill-rule="evenodd"><use fill="#fff" xlink:href="#a"/><path d="m0 0h28v9.333333h-28z" fill="#112ebc" mask="url(#d)"/><path d="m0 9.333333h28v10.666667h-28z" fill="#e3264a" mask="url(#d)"/><g mask="url(#d)"><g fill-rule="evenodd" transform="translate(9.333333 6.666667)"><use fill="url(#b)" xlink:href="#c"/><path d="m9 7.66666667h-8.66666667v-.79398867l1.28946446-.64473223c.61994398-.30997199 1.67787162-.5612791 2.37581096-.5612791h1.33611584c.69218345 0 1.76108208.25391466 2.37581095.5612791l1.28946446.64473223z" fill="#aabcae" mask="url(#e)" stroke="#366c14" stroke-width=".666667"/><circle cx="4.666667" cy="3.333333" fill="#d4b872" mask="url(#e)" r="2"/><path d="m7.6651905 6.02396947-5.66825879.30936386-.33026504-1.75666285 2.29477865 1.28544343c.19706396.14813267.45008665.22518535.70440863.22518535.26757111 0 .53208638-.08544324.72987773-.24367632l1.87847614-1.50278092z" fill="#c28321" mask="url(#e)" stroke="#0d3488" stroke-width=".666667"/><path d="m2.8960921 1.56275876c-.12670817-.12670816-.07750511-.22942543.11161232-.22942543h3.3179245c.18834994 0 .23350906.10752869.11161232.22942543l-1.54114914 1.54114914c-.12670817.12670817-.33695412.12189675-.45885086 0z" fill="#216c30" mask="url(#e)"/></g></g></g></svg>