<svg height="20" viewBox="0 0 28 20" width="28" xmlns="http://www.w3.org/2000/svg" xmlns:xlink="http://www.w3.org/1999/xlink"><mask id="a" fill="#fff"><rect fill="#fff" fill-rule="evenodd" height="20" rx="2" width="28"/></mask><g fill="none" fill-rule="evenodd"><rect height="19.5" rx="2" stroke="#f5f5f5" stroke-width=".5" width="27.5" x=".25" y=".25"/><path d="m0 0h28v6.666667h-28z" fill="#df1e35" mask="url(#a)"/><path d="m0 13.333333h28v6.666667h-28z" fill="#262626" mask="url(#a)"/><g fill="#0f7a40"><path d="m18.6666667 8.34103775c0-.18834995.1327196-.27467791.2959098-.19308281l.7415136.37075679c.1634265.08171325.2959099.2911841.2959099.47975413v2.66973494c0 .1832476-.14269.3317992-.3364563.3317992h-.6604207c-.1858197 0-.3364563-.1519203-.3364563-.3410378z" mask="url(#a)"/><path d="m10.6666667 8.34103775c0-.18834995.1327196-.27467791.2959098-.19308281l.7415136.37075679c.1634265.08171325.2959099.2911841.2959099.47975413v2.66973494c0 .1832476-.14269.3317992-.3364563.3317992h-.6604207c-.1858197 0-.3364563-.1519203-.3364563-.3410378z" mask="url(#a)"/><path d="m16 8.99846586c0-.18324764.1327197-.39815903.2959099-.47975413l.7415136-.37075679c.1634265-.08171326.2959098.00396538.2959098.19308281v3.31792445c0 .18835-.14269.3410378-.3364563.3410378h-.6604207c-.1858197 0-.3364563-.1432292-.3364563-.3317992z" mask="url(#a)"/><path d="m13.3333333 10.3302593c0-.1823972.1327197-.39661914.2959099-.47821424l.7415136-.37075679c.1634265-.08171325.2959099.00112537.2959099.18926261v1.05582832h2v1.2736208h-1.6697407c-.1823972 0-.4729494 0-.6667156 0h-.6604208c-.1858197 0-.3364563-.1569366-.3364563-.3302593z" mask="url(#a)"/><path d="m8 10.3302593c0-.1823972.13271968-.39661914.29590988-.47821424l.74151357-.37075679c.16342652-.08171325.29590988.00112537.29590988.18926261v1.05582832h1.99999997v1.2736208h-1.66974064c-.18239719 0-.47294935 0-.66671563 0h-.66042073c-.18581968 0-.3364563-.1569366-.3364563-.3302593z" mask="url(#a)"/></g></g></svg>