<svg height="20" viewBox="0 0 28 20" width="28" xmlns="http://www.w3.org/2000/svg" xmlns:xlink="http://www.w3.org/1999/xlink"><mask id="a" fill="#fff"><rect fill="#fff" fill-rule="evenodd" height="20" rx="2" width="28"/></mask><g fill="none" fill-rule="evenodd"><rect height="19.5" rx="2" stroke="#f5f5f5" stroke-width=".5" width="27.5" x=".25" y=".25"/><path d="m0 0h28v6.666667h-28z" fill="#38bb56" mask="url(#a)"/><path d="m0 13.333333h28v6.666667h-28z" fill="#de1b27" mask="url(#a)"/><path d="m2.33021037 13.3333333c.18581968 0 .3364563.1426901.3364563.3364563v.6604208c0 .1858197-.14269003.3364563-.3364563.3364563h-.66042074c-.18581968 0-.3364563-.1426901-.3364563-.3364563v-.6604208c0-.1858197.14269003-.3364563.3364563-.3364563zm2.66666666 0c.18581969 0 .3364563.1426901.3364563.3364563v.6604208c0 .1858197-.14269002.3364563-.3364563.3364563h-.66042073c-.18581968 0-.3364563-.1426901-.3364563-.3364563v-.6604208c0-.1858197.14269002-.3364563.3364563-.3364563zm2.66666667 0c.18581968 0 .3364563.1426901.3364563.3364563v.6604208c0 .1858197-.14269002.3364563-.3364563.3364563h-.66042073c-.18581969 0-.3364563-.1426901-.3364563-.3364563v-.6604208c0-.1858197.14269002-.3364563.3364563-.3364563zm2.6666667 0c.1858197 0 .3364563.1426901.3364563.3364563v.6604208c0 .1858197-.1426901.3364563-.3364563.3364563h-.66042077c-.18581968 0-.3364563-.1426901-.3364563-.3364563v-.6604208c0-.1858197.14269003-.3364563.3364563-.3364563zm2.6666666 0c.1858197 0 .3364563.1426901.3364563.3364563v.6604208c0 .1858197-.14269.3364563-.3364563.3364563h-.6604207c-.1858197 0-.3364563-.1426901-.3364563-.3364563v-.6604208c0-.1858197.14269-.3364563.3364563-.3364563zm2.6666667 0c.1858197 0 .3364563.1426901.3364563.3364563v.6604208c0 .1858197-.14269.3364563-.3364563.3364563h-.6604207c-.1858197 0-.3364563-.1426901-.3364563-.3364563v-.6604208c0-.1858197.14269-.3364563.3364563-.3364563zm2.6666667 0c.1858197 0 .3364563.1426901.3364563.3364563v.6604208c0 .1858197-.1426901.3364563-.3364563.3364563h-.6604208c-.1858197 0-.3364563-.1426901-.3364563-.3364563v-.6604208c0-.1858197.1426901-.3364563.3364563-.3364563zm2.6666666 0c.1858197 0 .3364563.1426901.3364563.3364563v.6604208c0 .1858197-.14269.3364563-.3364563.3364563h-.6604207c-.1858197 0-.3364563-.1426901-.3364563-.3364563v-.6604208c0-.1858197.14269-.3364563.3364563-.3364563zm2.6666667 0c.1858197 0 .3364563.1426901.3364563.3364563v.6604208c0 .1858197-.14269.3364563-.3364563.3364563h-.6604207c-.1858197 0-.3364563-.1426901-.3364563-.3364563v-.6604208c0-.1858197.14269-.3364563.3364563-.3364563zm2.6666667 0c.1858197 0 .3364563.1426901.3364563.3364563v.6604208c0 .1858197-.1426901.3364563-.3364563.3364563h-.6604208c-.1858197 0-.3364563-.1426901-.3364563-.3364563v-.6604208c0-.1858197.1426901-.3364563.3364563-.3364563zm-24.00000003-7.99999997c.18581968 0 .3364563.14269003.3364563.3364563v.66042074c0 .18581968-.14269003.3364563-.3364563.3364563h-.66042074c-.18581968 0-.3364563-.14269003-.3364563-.3364563v-.66042074c0-.18581968.14269003-.3364563.3364563-.3364563zm2.66666666 0c.18581969 0 .3364563.14269003.3364563.3364563v.66042074c0 .18581968-.14269002.3364563-.3364563.3364563h-.66042073c-.18581968 0-.3364563-.14269003-.3364563-.3364563v-.66042074c0-.18581968.14269002-.3364563.3364563-.3364563zm2.66666667 0c.18581968 0 .3364563.14269003.3364563.3364563v.66042074c0 .18581968-.14269002.3364563-.3364563.3364563h-.66042073c-.18581969 0-.3364563-.14269003-.3364563-.3364563v-.66042074c0-.18581968.14269002-.3364563.3364563-.3364563zm2.6666667 0c.1858197 0 .3364563.14269003.3364563.3364563v.66042074c0 .18581968-.1426901.3364563-.3364563.3364563h-.66042077c-.18581968 0-.3364563-.14269003-.3364563-.3364563v-.66042074c0-.18581968.14269003-.3364563.3364563-.3364563zm2.6666666 0c.1858197 0 .3364563.14269003.3364563.3364563v.66042074c0 .18581968-.14269.3364563-.3364563.3364563h-.6604207c-.1858197 0-.3364563-.14269003-.3364563-.3364563v-.66042074c0-.18581968.14269-.3364563.3364563-.3364563zm2.6666667 0c.1858197 0 .3364563.14269003.3364563.3364563v.66042074c0 .18581968-.14269.3364563-.3364563.3364563h-.6604207c-.1858197 0-.3364563-.14269003-.3364563-.3364563v-.66042074c0-.18581968.14269-.3364563.3364563-.3364563zm2.6666667 0c.1858197 0 .3364563.14269003.3364563.3364563v.66042074c0 .18581968-.1426901.3364563-.3364563.3364563h-.6604208c-.1858197 0-.3364563-.14269003-.3364563-.3364563v-.66042074c0-.18581968.1426901-.3364563.3364563-.3364563zm2.6666666 0c.1858197 0 .3364563.14269003.3364563.3364563v.66042074c0 .18581968-.14269.3364563-.3364563.3364563h-.6604207c-.1858197 0-.3364563-.14269003-.3364563-.3364563v-.66042074c0-.18581968.14269-.3364563.3364563-.3364563zm2.6666667 0c.1858197 0 .3364563.14269003.3364563.3364563v.66042074c0 .18581968-.14269.3364563-.3364563.3364563h-.6604207c-.1858197 0-.3364563-.14269003-.3364563-.3364563v-.66042074c0-.18581968.14269-.3364563.3364563-.3364563zm2.6666667 0c.1858197 0 .3364563.14269003.3364563.3364563v.66042074c0 .18581968-.1426901.3364563-.3364563.3364563h-.6604208c-.1858197 0-.3364563-.14269003-.3364563-.3364563v-.66042074c0-.18581968.1426901-.3364563.3364563-.3364563z" fill="#fff" fill-opacity=".5" mask="url(#a)"/><path d="m15.1785113 11.1785113c-.3016073.3016073-.718274.4881554-1.1785113.4881554s-.876904-.1865481-1.1785113-.4881554-.4881554-.718274-.4881554-1.1785113c0-.44316959.1729839-.84592499.4550766-1.14447741l2.440646.01876771c.2717546.29655779.4376108.69176106.4376108 1.1257097 0 .4602373-.1865481.876904-.4881554 1.1785113z" mask="url(#a)" stroke="#d80915" stroke-width=".666667"/><rect fill="#d80915" height="2.666667" mask="url(#a)" rx=".666667" width="1.333333" x="13.333333" y="9.333333"/></g></svg>