<svg height="20" viewBox="0 0 28 20" width="28" xmlns="http://www.w3.org/2000/svg" xmlns:xlink="http://www.w3.org/1999/xlink"><defs><path id="a" d="m.66666667 3.83333333v-1.15898132c0-.74062416.59021377-1.34101868 1.33194208-1.34101868h1.33611584c.73561129 0 1.33194208.58758327 1.33194208 1.34101868v1.15898132c0 1.78571429-2 2.5-2 2.5s-2-.71428571-2-2.5z"/><mask id="b" fill="#fff"><rect fill="#fff" fill-rule="evenodd" height="20" rx="2" width="28"/></mask><mask id="c" fill="#fff"><use fill="#fff" fill-rule="evenodd" xlink:href="#a"/></mask></defs><g fill="none" fill-rule="evenodd"><rect height="19.5" rx="2" stroke="#f5f5f5" stroke-width=".5" width="27.5" x=".25" y=".25"/><path d="m13.325694-14.193465h2.666667v49.333333h-2.666667z" fill="#e3243b" mask="url(#b)" transform="matrix(.57357644 -.81915204 .81915204 .57357644 -2.32819 16.473992)"/><path d="m13.325694-14.193465h2.666667v49.333333h-2.666667z" fill="#e3243b" mask="url(#b)" transform="matrix(-.57357644 -.81915204 -.81915204 .57357644 31.646244 16.473992)"/><g mask="url(#b)"><g fill-rule="evenodd" transform="translate(12 1.333333)"><path d="m3.54383226 0-.17938454.85475437 1.27584153-.14245905-.98681129.56983626.08656613.05086842h-2.148l.08781129-.05086842-.98681129-.56983628 1.27584157.14245907-.17938459-.85475437.87716559.7122953z" fill="#faef32"/><use fill="#e3243b" xlink:href="#a"/><g fill="#faef32"><rect height="1" mask="url(#c)" rx=".5" width="1" x="2.333333" y="5.333333"/><rect height="1" mask="url(#c)" rx=".5" width="2.666667" x="1.333333" y="4"/><rect height="1" mask="url(#c)" rx=".5" width="2.666667" x="1.333333" y="2.666667"/></g></g></g></g></svg>