<svg height="20" viewBox="0 0 28 20" width="28" xmlns="http://www.w3.org/2000/svg" xmlns:xlink="http://www.w3.org/1999/xlink"><defs><rect id="a" height="20" rx="2" width="28"/><path id="b" d="m3.33333333 14c1.33333334 0 3.33333334-2.6165785 3.33333334-6.66666667 0-4.05008816-2-6.66666666-3.33333334-6.66666666-1.33333333 0-3.33333333 2.6165785-3.33333333 6.66666666 0 4.05008817 2 6.66666667 3.33333333 6.66666667z"/><linearGradient id="c" x1="50%" x2="50%" y1="0%" y2="100%"><stop offset="0" stop-color="#fff"/><stop offset="1" stop-color="#f0f0f0"/></linearGradient><path id="d" d="m3.33333333 9.33333333c.36818984 0 .66666667 1.19390737.66666667 2.66666667s-.29847683 2.6666667-.66666667 2.6666667c-.36818983 0-.66666666-1.1939074-.66666666-2.6666667s.29847683-2.66666667.66666666-2.66666667zm0-4c.36818984 0 .66666667.8954305.66666667 2s-.29847683 2-.66666667 2c-.36818983 0-.66666666-.8954305-.66666666-2s.29847683-2 .66666666-2zm0-5.33333333c.36818984 0 .66666667 1.19390733.66666667 2.66666667 0 1.47275933-.29847683 2.66666666-.66666667 2.66666666-.36818983 0-.66666666-1.19390733-.66666666-2.66666666 0-1.47275934.29847683-2.66666667.66666666-2.66666667z"/><filter id="e" height="113.6%" width="175%" x="-37.5%" y="-3.4%"><feOffset dx="0" dy="1" in="SourceAlpha" result="shadowOffsetOuter1"/><feColorMatrix in="shadowOffsetOuter1" type="matrix" values="0 0 0 0 0   0 0 0 0 0   0 0 0 0 0  0 0 0 0.06 0"/></filter><mask id="f" fill="#fff"><use fill="#fff" fill-rule="evenodd" xlink:href="#a"/></mask><mask id="g" fill="#fff"><use fill="#fff" fill-rule="evenodd" xlink:href="#b"/></mask></defs><g fill="none" fill-rule="evenodd"><use fill="#fff" xlink:href="#a"/><path d="m0 0h28v5.333333h-28z" fill="#262626" mask="url(#f)"/><path d="m0 14.666667h28v5.333333h-28z" fill="#018301" mask="url(#f)"/><path d="m0 5.333333h28v9.333333h-28z" fill="#fff" mask="url(#f)"/><path d="m0 6.666667h28v6.666667h-28z" fill="#dc0808" mask="url(#f)"/><g mask="url(#f)"><g transform="translate(10.666667 2.666667)"><g fill-rule="evenodd"><use fill="#bc0000" xlink:href="#b"/><ellipse cx="-2" cy="7.333333" fill="#262626" mask="url(#g)" rx="3.333333" ry="7.333333"/><ellipse cx="8.666667" cy="7.333333" fill="#262626" mask="url(#g)" rx="3.333333" ry="7.333333"/></g><g fill="none" mask="url(#g)"><use fill="#000" filter="url(#e)" xlink:href="#d"/><use fill="url(#c)" fill-rule="evenodd" xlink:href="#d"/></g></g></g></g></svg>