<svg height="20" viewBox="0 0 28 20" width="28" xmlns="http://www.w3.org/2000/svg" xmlns:xlink="http://www.w3.org/1999/xlink"><defs><rect id="a" height="20" rx="2" width="28"/><mask id="b" fill="#fff"><use fill="#fff" fill-rule="evenodd" xlink:href="#a"/></mask></defs><g fill="none" fill-rule="evenodd"><use fill="#fff" xlink:href="#a"/><path d="m0 0h28v20h-28z" fill="#f22a46" mask="url(#b)"/><g fill="#fff04d"><circle cx="14" cy="10" mask="url(#b)" r="3.333333"/><path d="m15.6318202 2.85052864.4133398 2.90265278 2.5270985-1.48661229-.8870074 2.79454123 2.9218539-.24292445-2.0116721 2.13293652 2.7379004 1.04887757-2.7379004 1.0488776 2.0116721 2.1329365-2.9218539-.2429245.8870074 2.7945413-2.5270985-1.4866123-.4133398 2.9026528-1.6318202-2.4358584-1.6318202 2.4358584-.4133398-2.9026528-2.52709855 1.4866123.88700745-2.7945413-2.92185393.2429245 2.01167214-2.1329365-2.73790044-1.0488776 2.73790044-1.04887757-2.01167214-2.13293652 2.92185393.24292445-.88700745-2.79454123 2.52709855 1.48661229.4133398-2.90265278 1.6318202 2.43585835zm-1.6318202 2.48280469c-2.5773288 0-4.66666667 2.08933784-4.66666667 4.66666667 0 2.5773288 2.08933787 4.6666667 4.66666667 4.6666667s4.6666667-2.0893379 4.6666667-4.6666667c0-2.57732883-2.0893379-4.66666667-4.6666667-4.66666667z" mask="url(#b)"/></g></g></svg>