<svg height="20" viewBox="0 0 28 20" width="28" xmlns="http://www.w3.org/2000/svg" xmlns:xlink="http://www.w3.org/1999/xlink"><defs><rect id="a" height="20" rx="2" width="28"/><mask id="b" fill="#fff"><use fill="#fff" fill-rule="evenodd" xlink:href="#a"/></mask></defs><g fill="none" fill-rule="evenodd"><use fill="#fff" xlink:href="#a"/><path d="m0 0h28v5.333333h-28z" fill="#0f3eb6" mask="url(#b)"/><path d="m0 14.666667h28v5.333333h-28z" fill="#0f3eb6" mask="url(#b)"/><path d="m0 5.333333h28v9.333333h-28z" fill="#ed1a3c" mask="url(#b)"/><path d="m11.3333333 10.6666667v2.6666666h-2.66666663l1.33333333-2.6666666zm4.6666667 0v2.6666666h-4v-2.6666666zm2 0 1.3333333 2.6666666h-2.6666666v-2.6666666zm-.6666667-2.6666667c.3681899 0 .6666667.29510689.6666667.66597104v1.33402896h-1.3333333v-1.33402896c0-.33436877.2445536-.61118361.5675729-.6587502zm-3.3333333-.66666667c.3681898 0 .6666667.29560614.6666667.66428167v.72959854h1.3333333v1.27278646h-4v-1.27278646h1.3333333v-.72959854c0-.33352057.2445537-.60963322.567573-.65707915zm-3.3333333.66666667c.3681898 0 .6666666.29510689.6666666.66597104v1.33402896h-1.3333333v-1.33402896c0-.33436877.2445536-.61118361.567573-.6587502z" fill="#fff" mask="url(#b)"/></g></svg>