<svg height="20" viewBox="0 0 28 20" width="28" xmlns="http://www.w3.org/2000/svg" xmlns:xlink="http://www.w3.org/1999/xlink"><mask id="a" fill="#fff"><rect fill="#fff" fill-rule="evenodd" height="20" rx="2" width="28"/></mask><g fill="none" fill-rule="evenodd"><rect height="19.5" rx="2" stroke="#f5f5f5" stroke-width=".5" width="27.5" x=".25" y=".25"/><path d="m0 0h28v5.333333h-28z" fill="#ffcb49" mask="url(#a)"/><path d="m0 9.333333h28v5.333333h-28z" fill="#dc1d34" mask="url(#a)"/><path d="m0 14.666667h28v5.333333h-28z" fill="#4985d4" mask="url(#a)"/><path d="m0 20 13.3333333-10-13.3333333-10z" fill="#4ba343" mask="url(#a)"/><path d="m5.33333333 6c.34557375 0 .68091221.04382251 1.00076134.12621352-1.72586861.44369942-3.00076134 2.00985937-3.00076134 3.87378648 0 1.8639271 1.27489273 3.4300871 3.00024348 3.8740452-.31933127.0821323-.65466973.1259548-1.00024348.1259548-2.209139 0-4-1.790861-4-4s1.790861-4 4-4zm2 6c.36818984 0 .66666667.2984768.66666667.6666667 0 .3681898-.29847683.6666666-.66666667.6666666-.36818983 0-.66666666-.2984768-.66666666-.6666666 0-.3681899.29847683-.6666667.66666666-.6666667zm0-2.66666667c.36818984 0 .66666667.29847684.66666667.66666667 0 .3681898-.29847683.6666667-.66666667.6666667-.36818983 0-.66666666-.2984769-.66666666-.6666667 0-.36818983.29847683-.66666667.66666666-.66666667zm0-2.66666666c.36818984 0 .66666667.29847683.66666667.66666666 0 .36818984-.29847683.66666667-.66666667.66666667-.36818983 0-.66666666-.29847683-.66666666-.66666667 0-.36818983.29847683-.66666666.66666666-.66666666z" fill="#fff" mask="url(#a)"/></g></svg>