<svg height="20" viewBox="0 0 28 20" width="28" xmlns="http://www.w3.org/2000/svg" xmlns:xlink="http://www.w3.org/1999/xlink"><defs><rect id="a" height="20" rx="2" width="28"/><mask id="b" fill="#fff"><use fill="#fff" fill-rule="evenodd" xlink:href="#a"/></mask></defs><g fill="none" fill-rule="evenodd"><use fill="#fff" xlink:href="#a"/><path d="m0 13.3333333 28-13.3333333h-28z" fill="#1ec160" mask="url(#b)"/><path d="m0 20h28v-13.33333333z" fill="#df2a40" mask="url(#b)"/><path d="m.78391906 25.3333944 32.79119304-20.4902116-6.3590312-10.17657715-32.79119301 20.49021155z" fill="#ffd956" mask="url(#b)"/><path d="m-.62919898 23.0719328 32.79119308-20.49021159-3.5327951-5.65365397-32.79119307 20.49021156z" fill="#262626" mask="url(#b)"/><g fill="#fff"><path d="m20.3094011 7.79743495-.9454093 1.49735785-.6134315-1.66119862-1.7162195-.43642859 1.390333-1.0967467-.1152727-1.76708556 1.4727046.98337189 1.644977-.65569034-.4801515 1.70450394 1.1319244 1.36184664z" mask="url(#b)"/><path d="m9.64273441 14.2641098-.94540924 1.4973578-.61343157-1.6611986-1.71621946-.4364286 1.39033299-1.0967467-.11527272-1.7670856 1.47270462.9833719 1.64497697-.6556903-.4801515 1.7045039 1.1319245 1.3618467z" mask="url(#b)"/></g></g></svg>