<svg height="20" viewBox="0 0 28 20" width="28" xmlns="http://www.w3.org/2000/svg" xmlns:xlink="http://www.w3.org/1999/xlink"><defs><rect id="a" height="20" rx="2" width="28"/><mask id="b" fill="#fff"><use fill="#fff" fill-rule="evenodd" xlink:href="#a"/></mask></defs><g fill="none" fill-rule="evenodd"><use fill="#fff" xlink:href="#a"/><path d="m0 0h28v4h-28z" fill="#1461b6" mask="url(#b)"/><path d="m0 16h28v4h-28z" fill="#1461b6" mask="url(#b)"/><path d="m0 4h28v12h-28z" fill="#fff" mask="url(#b)"/><path d="m0 5.333333h28v9.333333h-28z" fill="#f53846" mask="url(#b)"/><path d="m10 6.66666667-.78620891 2.25120961-2.38397948.05206707 1.89807566 1.44339115-.68717144 2.2833888 1.95928417-1.3591448 1.9587591 1.3598179c-.5498746.3999896-1.2267626.6359369-1.9587591.6359369-1.84094917 0-3.33333333-1.4923841-3.33333333-3.3333333 0-1.84094917 1.49238416-3.33333333 3.33333333-3.33333333zm0 0c1.8409492 0 3.3333333 1.49238416 3.3333333 3.33333333 0 1.1085144-.5411027 2.0906475-1.3735866 2.6966777l-.687634-2.2833432 1.8980757-1.44339115-2.3839795-.05206707z" fill="#fff" mask="url(#b)"/></g></svg>