<svg height="20" viewBox="0 0 28 20" width="28" xmlns="http://www.w3.org/2000/svg" xmlns:xlink="http://www.w3.org/1999/xlink"><defs><rect id="a" height="20" rx="2" width="28"/><linearGradient id="b" x1="50%" x2="50%" y1="0%" y2="100%"><stop offset="0" stop-color="#fff"/><stop offset="1" stop-color="#f0f0f0"/></linearGradient><path id="c" d="m0 4.66666667v-4.66666667h6.66666667v4.66666667c0 3.33333333-3.33333334 4.66666666-3.33333334 4.66666666s-3.33333333-1.33333333-3.33333333-4.66666666z"/><mask id="d" fill="#fff"><use fill="#fff" fill-rule="evenodd" xlink:href="#a"/></mask><mask id="e" fill="#fff"><use fill="#fff" fill-rule="evenodd" xlink:href="#c"/></mask></defs><g fill="none" fill-rule="evenodd"><use fill="#fff" xlink:href="#a"/><path d="m0 0h28v20h-28z" fill="#07319c" mask="url(#d)"/><ellipse cx="20.666667" cy="5.333333" fill="#fad051" mask="url(#d)" rx="2" ry="1.333333"/><g mask="url(#d)"><g fill-rule="evenodd" transform="translate(17.333333 5.333333)"><use fill="url(#b)" xlink:href="#c"/><path d="m0 0h6.66666667v1.33333333h-2.66666667-1.33333333-2.66666667z" fill="#cf142c" mask="url(#e)"/><path d="m6.66666667 8v1.33333333h-6.66666667v-1.33333333zm0-2.66666667v1.33333334h-6.66666667v-1.33333334zm0-2.66666666v1.33333333h-6.66666667v-1.33333333z" fill="#125fba" mask="url(#e)"/></g></g><path d="m6.57256028 6.33333333h-1.1436282l-5.76226541 3.60141588v-1.43962184l4.66666666-3.33333334v-1.00848239l-5.23441913-4.48664497h1.67457415l4.66666667 3.33333333h1.1309129l5.72574658-3.57859164c.1321116 1.15267481-.1171297 1.52654654-.3810143 1.71503554l-4.24913353 3.0350954v1.00848239l7.49001743 6.42001491z" fill="#db1e36" mask="url(#d)" stroke="#fff" stroke-width=".666667"/><path d="m0 3.33333333v2.66666667h4.66666667v3.33948135c0 .36479438.30590057.66051865.67291259.66051865h1.32084148c.37163936 0 .67291259-.30065012.67291259-.66051865v-3.33948135h4.65786297c.373052 0 .6754704-.30590057.6754704-.6729126v-1.32084147c0-.37163936-.3020242-.6729126-.6754704-.6729126h-4.65786297v-3.33333333h-2.66666666v3.33333333z" fill="#fff" mask="url(#d)"/><path d="m0 4h5.33333333v-.66666667-3.33333333h1.33333334v3.33333333.66666667h5.33333333v1.33333333h-5.33333333v.66666667 3.33333333h-1.33333334v-3.33333333-.66666667h-5.33333333z" fill="#db1e36" mask="url(#d)"/></g></svg>