<svg height="20" viewBox="0 0 28 20" width="28" xmlns="http://www.w3.org/2000/svg" xmlns:xlink="http://www.w3.org/1999/xlink"><mask id="a" fill="#fff"><rect fill="#fff" fill-rule="evenodd" height="20" rx="2" width="28"/></mask><g fill="none" fill-rule="evenodd"><rect height="19.5" rx="2" stroke="#f5f5f5" stroke-width=".5" width="27.5" x=".25" y=".25"/><path d="m0 0h28v5.333333h-28z" fill="#f03340" mask="url(#a)"/><path d="m0 14.666667h28v5.333333h-28z" fill="#f03340" mask="url(#a)"/><path d="m12.866998 12.4663353c.2575499-.2575499.2553978-.6772729-.0039151-.9365858l.2738342.2738342c-.2597121-.2597121-.7556305-.3989054-1.115776-.308869l-1.3756155.3439038c-.3565139.0891285-.3994318-.0231889-.1058858-.2433484l1.5873871-1.1905403c.2980348-.2235261.2445329-.40472986-.1263313-.40472986h-.6680579c-.3678056 0-.4005317-.13271968-.0741513-.29590988l1.4830272-.74151357c.326853-.16342652.2967128-.29590988-.0741513-.29590988h-.6680579c-.3678057 0-.4198773-.18457032-.1263313-.40472985l1.5873871-1.19054031c.2980348-.22352612.7857336-.22015953 1.0792796 0l1.5873871 1.19054031c.2980348.22352612.2445329.40472985-.1263313.40472985h-.6680579c-.3678056 0-.4005317.13271967-.0741513.29590988l1.4830272.74151357c.326853.16342651.2967128.29590988-.0741513.29590988h-.6680579c-.3678057 0-.4198773.18457036-.1263313.40472986l1.5873871 1.1905403c.2980348.2235261.2542598.3333848-.1058858.2433484l-1.3756155-.3439038c-.3565139-.0891285-.8564631.0495561-1.115776.308869l.2738342-.2738342c-.2597121.2597121-.2619171.6785838-.0039151.9365857l.4006627.4006628c.2575499.2575498.1656852.4663353-.1941833.4663353h-2.6789628c-.3647943 0-.4521853-.2083333-.1941833-.4663353z" fill="#1fc065" mask="url(#a)"/></g></svg>