<svg height="20" viewBox="0 0 28 20" width="28" xmlns="http://www.w3.org/2000/svg" xmlns:xlink="http://www.w3.org/1999/xlink"><defs><rect id="a" height="20" rx="2" width="28"/><mask id="b" fill="#fff"><use fill="#fff" fill-rule="evenodd" xlink:href="#a"/></mask></defs><g fill="none" fill-rule="evenodd"><use fill="#fff" xlink:href="#a"/><path d="m0 0h28v20h-28z" fill="#ffbf19" mask="url(#b)"/><path d="m10.6666667 1.33333333h14.6633689c.738201 0 1.3366311.59665257 1.3366311 1.33133644v14.67066043c0 .7352768-.588424 1.3313365-1.3366311 1.3313365h-14.6633689z" fill="#a52531" mask="url(#b)"/><path d="m1.33333333 2.66466977c0-.73527681.59021378-1.33133644 1.33194208-1.33133644h2.66805792v17.33333337h-2.66805792c-.73561129 0-1.33194208-.5966526-1.33194208-1.3313365z" fill="#03664f" mask="url(#b)"/><rect fill="#ff6816" height="17.333333" mask="url(#b)" rx=".666667" width="4" x="5.333333" y="1.333333"/><g fill="#ffbf18"><path d="m24.6666667 16c.3681898 0 .6666666.2984768.6666666.6666667v.6666666h-.6666666c-.3681899 0-.6666667-.2984768-.6666667-.6666666 0-.3681899.2984768-.6666667.6666667-.6666667zm-12 0c.3681898 0 .6666666.2984768.6666666.6666667 0 .3681898-.2984768.6666666-.6666666.6666666h-.6666667v-.6666666c0-.3681899.2984768-.6666667.6666667-.6666667zm0-13.33333333c.3681898 0 .6666666.29847683.6666666.66666666 0 .36818984-.2984768.66666667-.6666666.66666667-.3681899 0-.6666667-.29847683-.6666667-.66666667v-.66666666zm12.6666666 0v.66666666c0 .36818984-.2984768.66666667-.6666666.66666667-.3681899 0-.6666667-.29847683-.6666667-.66666667 0-.36818983.2984768-.66666666.6666667-.66666666z" mask="url(#b)"/><path d="m15.9999999 12.6666667c0-.3681899-.302124-.6666667-.6666666-.6666667h.6666666c-.3681898 0-.944758-.1012802-1.2885159-.2413522 0 0-1.3781507-.4253146-1.3781507-1.0919811 0-.6666666.2634844-.80648579.2634844-.80648579.2226714-.29096988.2936717-.79675515.1612756-1.14823817 0 0-.5580195-1.24571901-.42476-2.04527607s.7610326-.99865859.7610326-.99865859c.316073-.18483576.5723008-.03402463.5723008.3258439v2.67896271c0 .36479437.2698199.79542859.604248.96264267l.1248373.06241862c.3337169.16685849.8151855.09118652 1.0744984-.16812643l-.2738342.27383423c.2597122-.25971215.2004306-.60516039-.1339976-.77237447l-.7290853-.36454264v-.66666667h.6666667c.3681898 0 .3968468-.13490995.0624186-.30212402l-.7290853-.36454265v-.66666666h.6666667c.3681898 0 .8776042-.2109375 1.1369171-.47025045l-.2738342.27383423c.2597121-.25971215.7661603-.47025045 1.1369171-.47025045.3681898 0 .8015766.2698199.9687907.60424805l.0624186.12483724c.1668585.33371698.2094269.88233947.0911865 1.23706054l-.2447916.734375c-.1164976.3494927.0966797.6328125.4636122.6328125h1.9842339c.3725435 0 .8854872-.2109375 1.1448001-.47025044l-.2738342.27383422c.2597122-.25971215.2004306-.60516039-.1339976-.77237447l-.1248372-.06241862c-.333717-.16685849-.9001579-.30212402-1.2709147-.30212402-.3681899 0-.6666667-.29590988-.6666667-.66666667 0-.36818983.2109375-.87760416.4702504-1.13691711l.1964163-.19641622v.66666667c0 .36818983.302124.66666666.6666666.66666666h-.6666666 1.3333333c.3681898 0 .8015766.2698199.9687907.60424805l.0624186.12483724c.1668585.33371698.3283864.89708461.3515934 1.26327342 0 0 .0917952.63465162-.0494694 1.34097466-.1412646.706323-.3013773.7848405-.3013773.7848405-.2017437.3029242-.3652893.8543934-.3652893 1.2214054v1.3208415c0 .3716393-.2959099.6729126-.6666667.6729126-.3681898 0-.5317567-.2698199-.3645426-.6042481l.0624186-.1248372c.1668585-.333717.1672141-.874068 0-1.2084961l-.0624186-.1248373c-.1668585-.3337169-.3021241-.3083381-.3021241.0624187 0 .3681898-.1349099.9364865-.302124 1.2709147l-.0624186.1248372c-.1668585.333717-.5980339.6042481-.9687907.6042481-.3681898 0-.5317567-.2698199-.3645426-.6042481l.0624186-.1248372c.1668585-.333717.3021241-.9001579.3021241-1.2709147.0000001-.3681899-.3059005-.6666667-.6729125-.6666667h-1.3208417c-.3716394 0-.6729126.2959099-.6729126.6666667 0 .3681898-.13491.9364865-.3021241 1.2709147l-.0624186.1248372c-.1668585.333717-.5980339.6042481-.9687907.6042481-.3681898 0-.5317567-.2698199-.3645426-.6042481l.0624186-.1248372c.1668585-.333717.302124-.9001579.302124-1.2709147z" mask="url(#b)"/></g></g></svg>