<svg height="20" viewBox="0 0 28 20" width="28" xmlns="http://www.w3.org/2000/svg" xmlns:xlink="http://www.w3.org/1999/xlink"><defs><rect id="a" height="20" rx="2" width="28"/><path id="b" d="m0 6.666667h28v6.666667h-28z"/><filter id="c" height="145%" width="110.7%" x="-5.4%" y="-22.5%"><feMorphology in="SourceAlpha" operator="dilate" radius="0.5" result="shadowSpreadOuter1"/><feOffset dx="0" dy="0" in="shadowSpreadOuter1" result="shadowOffsetOuter1"/><feColorMatrix in="shadowOffsetOuter1" type="matrix" values="0 0 0 0 0   0 0 0 0 0   0 0 0 0 0  0 0 0 0.06 0"/></filter><path id="d" d="m0 13.333333h28v6.666667h-28z"/><filter id="e" height="145%" width="110.7%" x="-5.4%" y="-22.5%"><feMorphology in="SourceAlpha" operator="dilate" radius="0.5" result="shadowSpreadOuter1"/><feOffset dx="0" dy="0" in="shadowSpreadOuter1" result="shadowOffsetOuter1"/><feColorMatrix in="shadowOffsetOuter1" type="matrix" values="0 0 0 0 0   0 0 0 0 0   0 0 0 0 0  0 0 0 0.06 0"/></filter><mask id="f" fill="#fff"><use fill="#fff" fill-rule="evenodd" xlink:href="#a"/></mask></defs><g fill="none" fill-rule="evenodd"><use fill="#fff" xlink:href="#a"/><g mask="url(#f)"><use fill="#000" filter="url(#c)" xlink:href="#b"/><use fill="#262626" fill-rule="evenodd" xlink:href="#b"/></g><g mask="url(#f)"><use fill="#000" filter="url(#e)" xlink:href="#d"/><use fill="#34b857" fill-rule="evenodd" xlink:href="#d"/></g><path d="m0 0h28v6.666667h-28z" fill="#f41f34" mask="url(#f)"/><path d="m14 8c.4113508 0 .7936966.12418541 1.1115914.33711027-.0366724-.00253151-.0739864-.00377694-.1115914-.00377694-.9204746 0-1.6666667.74619209-1.6666667 1.66666667 0 .9204746.7461921 1.6666667 1.6666667 1.6666667l.1115914-.003777c-.3178948.2129249-.7002406.3371103-1.1115914.3371103-1.1045695 0-2-.8954305-2-2s.8954305-2 2-2zm1.3333333 1.33333333c.3681899 0 .6666667.29847684.6666667.66666667 0 .3681898-.2984768.6666667-.6666667.6666667-.3681898 0-.6666666-.2984769-.6666666-.6666667 0-.36818983.2984768-.66666667.6666666-.66666667z" fill="#fff" mask="url(#f)"/></g></svg>