<svg height="20" viewBox="0 0 28 20" width="28" xmlns="http://www.w3.org/2000/svg" xmlns:xlink="http://www.w3.org/1999/xlink"><defs><rect id="a" height="20" rx="2" width="28"/><mask id="b" fill="#fff"><use fill="#fff" fill-rule="evenodd" xlink:href="#a"/></mask></defs><g fill="none" fill-rule="evenodd"><use fill="#fff" xlink:href="#a"/><path d="m0 0h28v20h-28z" fill="#e6be53" mask="url(#b)"/><rect fill="#e01826" height="17.333333" mask="url(#b)" rx="1" width="25.333333" x="1.333333" y="1.333333"/><path d="m9.49471474 4.64552561.34390386 1.37561544c.08912848.35651395.2962913.91534551.4635054 1.24977366l.0624186.12483724c.1430216.28604313.4178065.68063844.6566968.95084146l.1090939.11764949-.2672504-.26782668c.2597121.25971215.2593129.68118795 0 .94050089l.2738342-.27383422c-.2597121.25971215-.2004305.60516039.1339976.77237447l.1248373.06241862c.3337169.16685849.604248 0 .604248-.35705567v.65169271c0-.36405489.1349099-.92899958.302124-1.26342773l.0624186-.12483724c.1668585-.33371698.0937907-.81258138-.1642112-1.07058335l-.4006628-.40066274c-.1030199-.10301995-.2319876-.23198758-.3662576-.36625759l-.3030777-.30350147-.0563708-.0657504c-.1837051-.24828997-.1070734-.54760373.1969522-.69961652l.1248373-.06241862c.3337169-.16685849.8125813-.09379069 1.0705833.16421127l.4006627.40066274c.2060399.2060399.5158706.51587055.7643295.76432944l.0930058.09258209-.1945837-.19416001c.2597121.25971215.6811879.25931294.9405008 0l-.1639171.16316001 1.2273314-1.22657427c.2575499-.25754987.7361552-.33142535 1.0705833-.16421127l.1248373.06241862c.333717.16685849.3933105.51306152.1339976.77237447l-.4912062.49120621c-.0619098.06190973-.1199449.11994491-.1715453.1715453l-.4006628.40066274c-.2575498.25754988-.3314253.7361552-.1642112 1.07058335l.0624186.12483724c.1668585.33371698.302124.90637207.302124 1.26342773v-.65169271c0 .36405489.2698199.52426974.604248.35705567l.1248373-.06241862c.333717-.16685849.3933105-.51306153.1339976-.77237447l.2738342.27383422c-.2597121-.25971215-.2593129-.68118794 0-.94050089l-.2685838.26782668.1105343-.11773787c.2389895-.27023377.5132634-.66410038.6565898-.95075308l.0624186-.12483724c.1668585-.33371698.373469-.88962809.4635054-1.24977366l.3439039-1.37561544c.0891285-.35651395.3459517-.39943186.5661112-.10588582l1.1905403 1.58738709c.2235261.29803482.4047299.84554036.4047299 1.21255238v1.32084148c0 .37163936-.13491.94273249-.3021241 1.27716064l-.0624186.12483722c-.1668585.333717-.5104573.8125814-.7684593 1.0705834l-.4006627.4006627c-.2575499.2575499-.7361552.6012452-1.0705834.7684593l-.1248372.0624186c-.2860431.1430216-.7430671.262832-1.1012873.2941448l-.1696274.0079793c-.3681899 0-.3968468.1349099-.0624187.302124l.1248373.0624186c.333717.1668585.8151855.5130615 1.0744985.7723745l-.2738342-.2738342c.2597121.2597121.6811879.2593129.9405008 0l-.2738342.2738342c.2077697-.2077697.5190682-.2490682.768045-.1245086l.0178721.0101677.0259745.0423136c.1361076.2641913.1529569.6125808.0229015.8726915l-.0624186.1248373c-.1501727.3003453-.514442.54951-.8560758.5963394l-.1127149.0079086c-.3681898 0-.9364866-.1349099-1.2709147-.302124l-.1248373-.0624186c-.3337169-.1668585-.7391579-.5719439-.906372-.9063721l-.0624186-.1248372c-.1213517-.2427033-.3375632-.3404156-.5462214-.2759102l-.0729027.0295717-.0206649.0368476c-.127131.256309-.1208764.5840975.0353375.8184183l.6046549.9069824c.201219.3018285.1190999.7100016-.1821696.910848l-.9069824.6046549c-.3018285.201219-.7917481.2008464-1.0930176 0l-.9069824-.6046549c-.3018285-.201219-.383016-.6095785-.1821696-.910848l.6046549-.9069824c.1565037-.2347555.1623558-.562544.0352194-.8186437l-.0228802-.0376222-.0706844-.0288599c-.2086132-.0647105-.424496.0329779-.5461063.2761984l-.0624186.1248372c-.1668585.333717-.5719439.739158-.906372.9063721l-.1248373.0624186c-.2860431.1430216-.7430671.262832-1.1012873.2941447l-.1696274.0079793c-.36818983 0-.80157661-.2698199-.96879069-.604248l-.06241862-.1248373c-.12977883-.2595576-.1128417-.6084958.02310345-.8727705l.02443919-.0422346.01939707-.0102826c.24916844-.1245724.56040302-.0828269.76785338.1246235l-.27383423-.2738342c.25971215.2597121.68118795.2593129.94050085 0l-.2738342.2738342c.2597122-.2597122.7400704-.6051604 1.0744985-.7723745l.1248373-.0624186c.3059072-.1529536.3100742-.2793604.0230672-.299366l-.0854859-.002758c-.3681898 0-.9364865-.13491-1.2709147-.3021241l-.12483722-.0624186c-.33371698-.1668585-.81258138-.5104573-1.07058334-.7684593l-.40066274-.4006627c-.25754988-.2575499-.60124525-.7361552-.76845932-1.0705834l-.06241862-.12483722c-.16685849-.33371698-.30212403-.91014862-.30212403-1.27716064v-1.32084148c0-.37163936.18457032-.91900634.40472985-1.21255238l1.19054031-1.58738709c.22352612-.29803483.47607485-.25425974.56611125.10588582zm5.13809776-1.10125478.734375.24479167c.3494927.11649756.4244792.41927083.1664772.6772728l-.4006627.40066274c-.2289333.22893322-.6531419.4193365-1.0049785.45882201l-.1280235.00751328c-.3681898 0-.875-.20833333-1.133002-.46633529l-.4006627-.40066274c-.2575499-.25754988-.1882439-.55903244.1664772-.6772728l.734375-.24479167c.3494927-.11649756.9109039-.11824035 1.265625 0z" fill="#e6be53" mask="url(#b)"/><path d="m12.6666667 12.0076569c0 .3639611.1012802.3809183.2413521.0371605 0 0 .4253145-1.3781507 1.0919812-1.3781507s1.0966845 1.3890667 1.0966845 1.3890667c.1306975.3374091.2366488.3151636.2366488-.0628711v-.659529c0-1.1045695-.5969536-1.99999997-1.3333333-1.99999997s-1.3333333.89543047-1.3333333 1.99999997z" fill="#215f90" mask="url(#b)"/></g></svg>