<svg height="20" viewBox="0 0 28 20" width="28" xmlns="http://www.w3.org/2000/svg" xmlns:xlink="http://www.w3.org/1999/xlink"><defs><rect id="a" height="20" rx="2" width="28"/><mask id="b" fill="#fff"><use fill="#fff" fill-rule="evenodd" xlink:href="#a"/></mask></defs><g fill="none" fill-rule="evenodd"><use fill="#fff" xlink:href="#a"/><path d="m0 0h28v20h-28z" fill="#e81b26" mask="url(#b)"/><g fill="#ffe94f"><circle cx="14" cy="10" mask="url(#b)" r="3.333333"/><path d="m10.8980108 13.4865309-8.93635645 10.0441097-2.67652242-2.9725793 10.92282817-7.8374911c.2013383.2801376.4329515.537054.6900507.7659607zm6.8940291-.7659607 10.9228282 7.8374911-2.6765225 2.9725793-8.9363564-10.0441097c.2570992-.2289067.4887124-.4858231.6900507-.7659607zm-2.8770093 1.8564232 1.0849694 5.4230066h-4l1.0839698-5.4232055c.2962003.0589539.6025046.0898722.9160302.0898722.313173 0 .6191408-.0308488.9150306-.0896733zm-14.9150306-6.5769934 9.37969414 1.33964512c-.03055602.21572452-.04636081.436194-.04636081.66035488 0 .2241609.01580479.4446304.04636081.6603549l-9.37969414 1.3396451zm28 0v4l-9.3796941-1.3396451c.030556-.2157245.0463608-.436194.0463608-.6603549 0-.22416088-.0158048-.44463036-.0463608-.66035488zm-26.03834565-11.53064057 8.93635645 10.04410969c-.2570992.22890665-.4887124.48582307-.6900507.76596064l-10.92282817-7.83749102zm24.07669125 0 2.6765225 2.97257931-10.9228282 7.83749102c-.2013383-.28013757-.4329515-.53705399-.6900507-.76596064zm-10.0383456 3.53064057-1.0849694 5.42300662c-.2958898-.05882454-.6018576-.08967329-.9150306-.08967329-.3135256 0-.6198299.03091827-.9160302.08987213l-1.0839698-5.42320546z" mask="url(#b)"/></g></g></svg>