<svg height="20" viewBox="0 0 28 20" width="28" xmlns="http://www.w3.org/2000/svg" xmlns:xlink="http://www.w3.org/1999/xlink"><defs><rect id="a" height="20" rx="2" width="28"/><linearGradient id="b" x1="50%" x2="50%" y1="0%" y2="100%"><stop offset="0" stop-color="#f8d246"/><stop offset="1" stop-color="#f9ce2f"/></linearGradient><mask id="c" fill="#fff"><use fill="#fff" fill-rule="evenodd" xlink:href="#a"/></mask></defs><g fill="none" fill-rule="evenodd"><use fill="#fff" xlink:href="#a"/><path d="m9.333333 0h9.333333v20h-9.333333z" fill="#146bbc" mask="url(#c)"/><path d="m0 0h9.333333v20h-9.333333z" fill="#e43642" mask="url(#c)"/><path d="m18.666667 0h9.333333v20h-9.333333z" fill="#e43642" mask="url(#c)"/><path d="m6.66666667 12v4h-1.33333334v-4zm-2.66666667 0v4h-1.33333333v-4zm1.33333333 2.6666667-.66666666 1.3333333-.66666667-1.3333333zm-.66666666-1.3333334c.36818983 0 .66666666.2984769.66666666.6666667s-.29847683.6666667-.66666666.6666667c-.36818984 0-.66666667-.2984769-.66666667-.6666667s.29847683-.6666667.66666667-.6666667zm.66666666-1.3333333-.66666666 1.3333333-.66666667-1.3333333zm-.66666666-1.3333333c.36818983 0 .66666666.2984768.66666666.6666666 0 .3681899-.29847683.6666667-.66666666.6666667-.36818984 0-.66666667-.2984768-.66666667-.6666667 0-.3681898.29847683-.6666666.66666667-.6666666zm0-.6666667.66666666.6666667h-1.33333333z" fill="url(#b)" mask="url(#c)"/></g></svg>