<svg height="20" viewBox="0 0 28 20" width="28" xmlns="http://www.w3.org/2000/svg" xmlns:xlink="http://www.w3.org/1999/xlink"><defs><rect id="a" height="20" rx="2" width="28"/><mask id="b" fill="#fff"><use fill="#fff" fill-rule="evenodd" xlink:href="#a"/></mask></defs><g fill="none" fill-rule="evenodd"><use fill="#fff" xlink:href="#a"/><path d="m0 0h28v20h-28z" fill="#079d7b" mask="url(#b)"/><g mask="url(#b)"><g transform="translate(8 2.666667)"><path d="m9.55476746 12c-.97125194.8338666-2.20803406 1.3333333-3.55476746 1.3333333s-2.58351552-.4994667-3.55476746-1.3333333zm-3.55476746-2.66666667c1.11409165 0 2.10052707-.10931226 2.70579646-.12947848-.19777221.05116319-.39255367.09424133-.58305308.12964714l3.21058992-.00016866c-.15814.47470535-.3709868.92199227-.6305031 1.33333337h-9.40566039c-.25951632-.4113411-.4723631-.85862802-.63050314-1.33333337l3.16949308.00058855c-.19183059-.03753701-.38772259-.08278478-.58598986-.13591033l.01941658.00506648c.6029309.01793286 1.60108644.1302553 2.73041353.1302553zm0-6.66666666c1.04107893 0 1.88504015 1.49238416 1.88504015 3.33333333 0 .29231778-.02127891.57584713-.06124709.84600879l.10148505-.03174851.21100778-.05930673c1.77822035-.47647271 3.36537491-.31926086 3.54500891.35114249.1623678.60596458-.8807844 1.4237964-2.39598222 1.92727801-.26786408-.79404917-1.63684503-1.03337405-3.28531258-1.03337405-1.64984242 0-3.01973185.23972425-3.28636589 1.03436807-1.49454673-.50283263-2.51897007-1.31206445-2.35796078-1.91295932.17963404-.67040334 1.7667886-.82761519 3.54500895-.35114249.09391765.02516516.18648992.05159467.27757045.07918353-.04174914-.27008526-.06329288-.55531863-.06329288-.84944979 0-1.84094917.84396122-3.33333333 1.88504015-3.33333333z" fill="#fff"/><path d="m.66666667 3.33333333c.36818983 0 .66666666.29847684.66666666.66666667s-.29847683.66666667-.66666666.66666667c-.36818984 0-.66666667-.29847684-.66666667-.66666667s.29847683-.66666667.66666667-.66666667zm10.66666663 0c.3681899 0 .6666667.29847684.6666667.66666667s-.2984768.66666667-.6666667.66666667c-.3681898 0-.6666666-.29847684-.6666666-.66666667s.2984768-.66666667.6666666-.66666667zm-1.99999997-2c.36818984 0 .66666667.29847684.66666667.66666667s-.29847683.66666667-.66666667.66666667c-.36818983 0-.66666666-.29847684-.66666666-.66666667s.29847683-.66666667.66666666-.66666667zm-6.66666666 0c.36818983 0 .66666666.29847684.66666666.66666667s-.29847683.66666667-.66666666.66666667c-.36818984 0-.66666667-.29847684-.66666667-.66666667s.29847683-.66666667.66666667-.66666667zm3.33333333-1.33333333c.36818983 0 .66666667.29847683.66666667.66666667 0 .36818983-.29847684.66666666-.66666667.66666666s-.66666667-.29847683-.66666667-.66666666c0-.36818984.29847684-.66666667.66666667-.66666667z" fill="#fcd117"/></g></g></g></svg>