<svg height="20" viewBox="0 0 28 20" width="28" xmlns="http://www.w3.org/2000/svg" xmlns:xlink="http://www.w3.org/1999/xlink"><defs><rect id="a" height="20" rx="2" width="28"/><mask id="b" fill="#fff"><use fill="#fff" fill-rule="evenodd" xlink:href="#a"/></mask></defs><g fill="none" fill-rule="evenodd"><use fill="#fff" xlink:href="#a"/><path d="m0 0h28v20h-28z" fill="#108b4d" mask="url(#b)"/><path d="m19.8136496 7.73333359c.0485704.30743403.0737921.62263202.0737921.94372087 0 3.31370854-2.6862915 6.00000004-6 6.00000004s-5.99999996-2.6862915-5.99999996-6.00000004c0-.32108885.02522173-.63628684.07379209-.94372087.45268663 2.86535381 2.93358827 5.05627911 5.92620787 5.05627911 2.9926197 0 5.4735213-2.1909253 5.9262079-5.05627911zm-5.8136496.8307531-1.6480906 1.1748814.6080906-1.93048566-1.6266667-1.20436902 2.0239113-.01822435.6427554-1.91922239.6427554 1.91922239 2.0239113.01822435-1.6266667 1.20436902.6080906 1.93048566z" fill="#ffc941" mask="url(#b)"/></g></svg>