<svg height="20" viewBox="0 0 28 20" width="28" xmlns="http://www.w3.org/2000/svg" xmlns:xlink="http://www.w3.org/1999/xlink"><defs><rect id="a" height="20" rx="2" width="28"/><mask id="b" fill="#fff"><use fill="#fff" fill-rule="evenodd" xlink:href="#a"/></mask></defs><g fill="none" fill-rule="evenodd"><use fill="#fff" xlink:href="#a"/><path d="m28 18.6666667v1.3333333h-28v-1.3333333zm0-2.6666667v1.3333333h-28v-1.3333333zm0-2.6666667v1.3333334h-28v-1.3333334zm0-2.6666666v1.3333333h-28v-1.3333333zm0-2.6666667v1.33333333h-14.6666667v-1.33333333zm0-2.66666667v1.33333334h-14.6666667v-1.33333334zm0-2.66666666v1.33333333h-14.6666667v-1.33333333zm0-2.66666667v1.33333333h-14.6666667v-1.33333333z" fill="#e1244a" mask="url(#b)"/><path d="m0 0h16v10.666667h-16z" fill="#0c3f8e" mask="url(#b)"/><path d="m6.66666667 1.33333333c.94511355 0 1.81366974.327781 2.49819012.87586453-.36267551-.13527502-.75513335-.20919786-1.16485679-.20919786-1.84094917 0-3.33333333 1.49238417-3.33333333 3.33333333 0 1.84094917 1.49238416 3.33333334 3.33333333 3.33333334.40972344 0 .80218128-.07392285 1.16476382-.20915884-.68442741.54804451-1.5529836.8758255-2.49809715.8758255-2.209139 0-4-1.790861-4-4s1.790861-4 4-4zm4.00000003 1.33333334.4743795 1.68160738 1.6105044-.67758019-1.0189628 1.41934992 1.5338866.83667871-1.7450053.08829302.3022209 1.72090147-1.1570233-1.30925032-1.15702334 1.30925032.30222089-1.72090147-1.74500535-.08829302 1.53388659-.83667871-1.01896278-1.41934992 1.61050439.67758019z" fill="#ffd34f" mask="url(#b)"/></g></svg>