<svg height="20" viewBox="0 0 28 20" width="28" xmlns="http://www.w3.org/2000/svg" xmlns:xlink="http://www.w3.org/1999/xlink"><defs><rect id="a" height="20" rx="2" width="28"/><mask id="b" fill="#fff"><use fill="#fff" fill-rule="evenodd" xlink:href="#a"/></mask></defs><g fill="none" fill-rule="evenodd"><use fill="#fff" xlink:href="#a"/><path d="m0 13.3333333 28-13.3333333h-28z" fill="#0c4799" mask="url(#b)"/><path d="m4.66666667 6-1.02048916 1.13034542.07768012-1.52086971-1.52086972.07768011 1.13034542-1.02048915-1.13034542-1.02048916 1.52086972.07768012-.07768012-1.52086972 1.02048916 1.13034542 1.02048915-1.13034542-.07768011 1.52086972 1.52086971-.07768012-1.13034542 1.02048916 1.13034542 1.02048915-1.52086971-.07768011.07768011 1.52086971z" fill="#ffd243" mask="url(#b)"/><path d="m0 20h28v-13.33333333z" fill="#1bac55" mask="url(#b)"/><path d="m3.08238507 22.6666972 27.08833433-16.92666993-5.2531045-8.40672445-27.08833429 16.92666988z" fill="#fff" mask="url(#b)"/><path d="m-.62919898 23.0719328 32.79119308-20.49021159-3.5327951-5.65365397-32.79119307 20.49021156z" fill="#e52347" mask="url(#b)"/></g></svg>