<svg height="20" viewBox="0 0 28 20" width="28" xmlns="http://www.w3.org/2000/svg" xmlns:xlink="http://www.w3.org/1999/xlink"><defs><path id="a" d="m0 1.99079514c0-1.0994858.90281169-1.99079514 1.99375407-1.99079514.37163936 0 .92423439.16754786 1.22366881.36717081l14.33685792 9.5579053c.6143538.40956919.5083375.74159059-.2169877.74159059h-9.3372931l9.6631726 8.455276c.5542145.4849376.4035624.8780573-.3389666.8780573h-15.32654568c-1.10327733 0-1.99766032-.8982124-1.99766032-1.9907951z"/><mask id="b" fill="#fff"><use fill="#fff" fill-rule="evenodd" xlink:href="#a"/></mask></defs><g fill="none" fill-rule="evenodd"><rect height="19.5" rx="2" stroke="#f5f5f5" stroke-width=".5" width="27.5" x=".25" y=".25"/><use fill="#fff" xlink:href="#a"/><path d="m15.9833666 18.5379579-15.31669993.7614114v-18.63270263h1.3270874c.25915809 0 .64492516.11590865.85386868.25520434l12.73173605 8.48782404-9.21119471.71496065z" fill="#ee1b44" mask="url(#b)" stroke="#0543a8" stroke-width="1.333333"/><path d="m6.35382249 12.2029879-.07768012 1.5208697 1.52086972-.0776801-1.13034542 1.0204892 1.13034542 1.0204891-1.52086972-.0776801.07768012 1.5208697-1.02048916-1.1303454-1.02048915 1.1303454.07768011-1.5208697-1.52086971.0776801 1.13034542-1.0204891-1.13034542-1.0204892 1.52086971.0776801-.07768011-1.5208697 1.02048915 1.1303454zm-.25512229-6.71741363-.05826009 1.14065228 1.14065229-.05826008-.84775907.76536686.51791897.46738875c.38399132-.1052468.73800287-.24917382 1.05112203-.42450599-.31078014 1.12850545-1.34418382 1.95711724-2.57112016 1.95711724s-2.26034002-.82861179-2.57113501-1.95675934c.31522839.17598025.67001973.31999101 1.05485747.42516638l.5183567-.46840704-.84775906-.76536686 1.14065228.05826008-.05826008-1.14065228.76536686.84775906z" fill="#fff" mask="url(#b)"/></g></svg>