<svg height="20" viewBox="0 0 28 20" width="28" xmlns="http://www.w3.org/2000/svg" xmlns:xlink="http://www.w3.org/1999/xlink"><defs><rect id="a" height="20" rx="2" width="28"/><mask id="b" fill="#fff"><use fill="#fff" fill-rule="evenodd" xlink:href="#a"/></mask></defs><g fill="none" fill-rule="evenodd"><use fill="#fff" xlink:href="#a"/><path d="m0 0h28v20h-28z" fill="#0a17a7" mask="url(#b)"/><path d="m6.57256028 6.33333333h-1.1436282l-5.76226541 3.60141588v-1.43962184l4.66666666-3.33333334v-1.00848239l-5.23441913-4.48664497h1.67457415l4.66666667 3.33333333h1.1309129l5.72574658-3.57859164c.1321116 1.15267481-.1171297 1.52654654-.3810143 1.71503554l-4.24913353 3.0350954v1.00848239l7.49001743 6.42001491z" fill="#ff2e3b" mask="url(#b)" stroke="#fff" stroke-width=".666667"/><path d="m0 3.33333333v2.66666667h4.66666667v3.33948135c0 .36479438.30590057.66051865.67291259.66051865h1.32084148c.37163936 0 .67291259-.30065012.67291259-.66051865v-3.33948135h4.65786297c.373052 0 .6754704-.30590057.6754704-.6729126v-1.32084147c0-.37163936-.3020242-.6729126-.6754704-.6729126h-4.65786297v-3.33333333h-2.66666666v3.33333333z" fill="#fff" mask="url(#b)"/><path d="m0 4h5.33333333v-.66666667-3.33333333h1.33333334v3.33333333.66666667h5.33333333v1.33333333h-5.33333333v.66666667 3.33333333h-1.33333334v-3.33333333-.66666667h-5.33333333z" fill="#ff2e3b" mask="url(#b)"/><g fill="#ca1931"><path d="m20 17.3333333-.942809.2761424.2761423-.942809-.2761423-.9428091.942809.2761424.942809-.2761424-.2761423.9428091.2761423.942809z" mask="url(#b)"/><path d="m20 4.66666667-.942809.27614237.2761423-.94280904-.2761423-.94280904.942809.27614237.942809-.27614237-.2761423.94280904.2761423.94280904z" mask="url(#b)"/><path d="m24 8.66666667-.942809.27614237.2761423-.94280904-.2761423-.94280904.942809.27614237.942809-.27614237-.2761423.94280904.2761423.94280904z" mask="url(#b)"/><path d="m16 10-.942809.2761424.2761423-.94280907-.2761423-.94280904.942809.27614238.942809-.27614238-.2761423.94280904.2761423.94280907z" mask="url(#b)"/></g></g></svg>