<svg height="20" viewBox="0 0 28 20" width="28" xmlns="http://www.w3.org/2000/svg" xmlns:xlink="http://www.w3.org/1999/xlink"><mask id="a" fill="#fff"><rect fill="#fff" fill-rule="evenodd" height="20" rx="2" width="28"/></mask><g fill="none" fill-rule="evenodd"><rect height="19.5" rx="2" stroke="#f5f5f5" stroke-width=".5" width="27.5" x=".25" y=".25"/><path d="m28 0v9.33333333h-14.6666667v-9.33333333z" fill="#e52448" mask="url(#a)"/><path d="m13.3333333 20h-13.3333333v-10.66666667h13.3333333z" fill="#1367ae" mask="url(#a)"/><path d="m6.66666667 5.75999999-1.56742734 1.06404533.52760555-1.81952008-1.49632892-1.16190389 1.8935055-.06047992.64264521-1.78214143.6426452 1.78214143 1.89350551.06047992-1.49632893 1.16190389.52760556 1.81952008z" fill="#1367ae" mask="url(#a)"/><path d="m20.6666667 15.76-1.5674274 1.0640453.5276056-1.8195201-1.4963289-1.1619039 1.8935055-.0604799.6426452-1.7821414.6426452 1.7821414 1.8935055.0604799-1.496329 1.1619039.5276056 1.8195201z" fill="#e52448" mask="url(#a)"/></g></svg>