<svg height="20" viewBox="0 0 28 20" width="28" xmlns="http://www.w3.org/2000/svg" xmlns:xlink="http://www.w3.org/1999/xlink"><defs><rect id="a" height="20" rx="2" width="28"/><mask id="b" fill="#fff"><use fill="#fff" fill-rule="evenodd" xlink:href="#a"/></mask></defs><g fill="none" fill-rule="evenodd"><use fill="#fff" xlink:href="#a"/><path d="m0 0h28v20h-28z" fill="#262626" mask="url(#b)"/><path d="m0 0h28v20z" fill="#e8283f" mask="url(#b)"/><g fill="#fff"><path d="m6.66666667 16.6666667-.94280904.2761423.27614237-.942809-.27614237-.942809.94280904.2761423.94280904-.2761423-.27614238.942809.27614238.942809z" mask="url(#b)"/><path d="m6.66666667 8.66666667-.94280904.27614237.27614237-.94280904-.27614237-.94280904.94280904.27614237.94280904-.27614237-.27614238.94280904.27614238.94280904z" mask="url(#b)"/><path d="m3.33333333 12-.94280904.2761424.27614238-.9428091-.27614238-.942809.94280904.2761424.94280904-.2761424-.27614237.942809.27614237.9428091z" mask="url(#b)"/><path d="m9.33333333 11.3333333-.94280904.2761424.27614238-.942809-.27614238-.94280907.94280904.27614237.94280907-.27614237-.2761424.94280907.2761424.942809z" mask="url(#b)"/></g><path d="m18.8612427 9.26556993c-.1596199-.0957719-.2890173-.32137165-.2890173-.50185996l.0000001-1.22871882c0-.1813977-.1305109-.28494595-.3280037-.21911504l-.7582063.25273543c-.1811514.0603838-.4585145.06583091-.6560072 0l-.7582063-.25273543c-.1811514-.0603838-.2012799-.18536881-.0389864-.28274489l1.7789881-1.06739288c.1596198-.09577188.2455136-.30392126.1796827-.50141397l-.2527354-.7582063c-.0603838-.1811514.0211764-.28449999.2186691-.21866909l.7582063.25273544c.1811514.0603838.4040379-.01738923.5014139-.1796827l1.0673929-1.77898813c.0957719-.15961981.216914-.15850631.2827449.0389864l.2527354.7582063c.0603838.1811514.0658309.45851455 0 .65600726l-.2527354.7582063c-.0603838.1811514.0386267.32800362.219115.32800362l1.2287189-.00000006c.1813977-.00000001.4044838.12672376.5018599.28901723l1.067393 1.7789882c.0957718.15961982.0187595.31994741-.1543236.35456402l-1.7015548.34031097c-.1810024.03620048-.3586641.22019762-.3932807.39328069l-.3403108 1.70155488c-.0362005.1810025-.1922706.2516997-.354564.1543236z" fill="#ffd84e" mask="url(#b)"/></g></svg>