<svg height="20" viewBox="0 0 28 20" width="28" xmlns="http://www.w3.org/2000/svg" xmlns:xlink="http://www.w3.org/1999/xlink"><mask id="a" fill="#fff"><rect fill="#fff" fill-rule="evenodd" height="20" rx="2" width="28"/></mask><g fill="none" fill-rule="evenodd"><rect height="19.5" rx="2" stroke="#f5f5f5" stroke-width=".5" width="27.5" x=".25" y=".25"/><path d="m13.3333333 10-.8883333-.66666667h15.555v10.66666667h-28z" fill="#dd1c34" mask="url(#a)"/><path d="m28 0v9.33333333l-15.556-.00033333-12.444-9.333z" fill="#0d4bc3" mask="url(#a)"/><path d="m2 16c.36818983 0 .66666667.2984768.66666667.6666667 0 .3681898-.29847684.6666666-.66666667.6666666s-.66666667-.2984768-.66666667-.6666666c0-.3681899.29847684-.6666667.66666667-.6666667zm3.94227811-9.07959844-.43178977 2.04719817c.06895441.05642622.13215238.11962419.18857859.1885786l2.04719818-.43178977-1.75286276 1.1421343c.00436351.04390073.00659765.08842803.00659765.13347714 0 .0453956-.00226864.0902614-.00669873.1344901l1.75296384 1.1411213-2.04719818-.4317897c-.05642621.0689544-.11962418.1321524-.18857859.1885786l.43178977 2.0471981-1.14112132-1.7529638c-.04422871.0044301-.08909448.0066987-.13449012.0066987-.04504911 0-.08957641-.0022341-.13347715-.0065976l-1.14213429 1.7528627.43178977-2.0471981c-.06895442-.0564262-.13215238-.1196242-.1885786-.1885786l-2.04719818.4317897 1.75296384-1.1411213c-.00443009-.0442287-.00669873-.0890945-.00669873-.1344901 0-.04504911.00223414-.08957641.00659766-.13347714l-1.75286277-1.1421343 2.04719818.43178977c.05642622-.06895441.11962418-.13215238.1885786-.1885786l-.43178977-2.04719817 1.14213429 1.75286276c.04390074-.00436352.08842804-.00659765.13347715-.00659765.04539564 0 .09026141.00226864.13449012.00669872zm4.05772189 2.41293177c.3681898 0 .6666667.29847684.6666667.66666667 0 .3681898-.2984769.6666667-.6666667.6666667-.36818983 0-.66666667-.2984769-.66666667-.6666667 0-.36818983.29847684-.66666667.66666667-.66666667zm-8-6.66666666c.36818983 0 .66666667.29847683.66666667.66666666 0 .36818984-.29847684.66666667-.66666667.66666667s-.66666667-.29847683-.66666667-.66666667c0-.36818983.29847684-.66666666.66666667-.66666666z" fill="#fdd64d" mask="url(#a)"/></g></svg>