<svg height="20" viewBox="0 0 28 20" width="28" xmlns="http://www.w3.org/2000/svg" xmlns:xlink="http://www.w3.org/1999/xlink"><mask id="a" fill="#fff"><rect fill="#fff" fill-rule="evenodd" height="20" rx="2" width="28"/></mask><g fill="none" fill-rule="evenodd"><rect height="19.5" rx="2" stroke="#f5f5f5" stroke-width=".5" width="27.5" x=".25" y=".25"/><path d="m28 0v20h-20v-20z" fill="#0a632f" mask="url(#a)"/><g fill="#fff" mask="url(#a)"><path d="m9.4786562 10.8734084c-.97508634.7935948-2.20173948 1.2664082-3.53423935 1.2664082-3.17613442 0-5.7509001-2.68629152-5.7509001-6.00000002 0-3.31370849 2.57476568-5.99999999 5.7509001-5.99999999 1.33249987 0 2.55915301.47281335 3.53423935 1.26640815-.44271808-.11439657-.90895062-.17549906-1.39038178-.17549906-2.88739493 0-5.228091 2.19787486-5.228091 4.9090909 0 2.71121605 2.34069607 4.90909092 5.228091 4.90909092.48143116 0 .9476637-.0611025 1.39038178-.1754991zm.04819388-3.69359177-1.56742734 1.11737861.57832853-1.83600097-1.5470519-1.145423 1.92485403-.01733239.61129668-1.82528896.61129672 1.82528896 1.924854.01733239-1.5470519 1.145423.5783285 1.83600097z" transform="matrix(.70710678 -.70710678 .70710678 .70710678 9.279017 9.764298)"/></g></g></svg>