<svg height="20" viewBox="0 0 28 20" width="28" xmlns="http://www.w3.org/2000/svg" xmlns:xlink="http://www.w3.org/1999/xlink"><defs><rect id="a" height="20" rx="2" width="28"/><mask id="b" fill="#fff"><use fill="#fff" fill-rule="evenodd" xlink:href="#a"/></mask></defs><g fill="none" fill-rule="evenodd"><use fill="#fff" xlink:href="#a"/><path d="m0 0h28v20h-28z" fill="#ff2936" mask="url(#b)"/><path d="m0 0h10.666667v20h-10.666667z" fill="#128415" mask="url(#b)"/><circle cx="10.666667" cy="10" mask="url(#b)" r="3.333333" stroke="#faf94f" stroke-width="1.333333"/><path d="m9.33333333 8.34103775c0-.18834995.14337159-.34103775.32698568-.34103775h2.01269529c.1805892 0 .3269857.15192032.3269857.34103775v2.32702015c0 .7356113-.5918198 1.3319421-1.3333333 1.3319421-.7363797 0-1.33333337-.5902138-1.33333337-1.3319421z" fill="#fff" mask="url(#b)"/><path d="m10.6666667 10.6666667c.3681898 0 .6666666-.96514353.6666666-1.33333337 0-.36818983-.2984768-.66666666-.6666666-.66666666-.3681899 0-.6666667.29847683-.6666667.66666666 0 .36818984.2984768 1.33333337.6666667 1.33333337z" fill="#1d50b5" mask="url(#b)"/></g></svg>