<svg height="20" viewBox="0 0 28 20" width="28" xmlns="http://www.w3.org/2000/svg" xmlns:xlink="http://www.w3.org/1999/xlink"><defs><path id="a" d="m.66666667 3.33333333c0-.89842944.49843851-2.68716463.49843851-2.68716463.09290985-.35686912.46887827-.6461687.8287468-.6461687h2.67896271c.36479437 0 .73699379.28548955.82874679.64151806 0 0 .49843852 1.77195571.49843852 2.69181527 0 .85996374-.50187262 2.69262989-.50187262 2.69262989-.09101324.35385074-.35772236.87295239-.60814722 1.13718757 0 0-.55664683.83684921-1.55664683.83684921s-1.55664682-.83684921-1.55664682-.83684921c-.2448572-.27420061-.51982832-.78602516-.61158133-1.14634979 0 0-.49843851-1.80207381-.49843851-2.68346767z"/><mask id="b" fill="#fff"><rect fill="#fff" fill-rule="evenodd" height="20" rx="2" width="28"/></mask><mask id="c" fill="#fff"><use fill="#fff" fill-rule="evenodd" xlink:href="#a"/></mask></defs><g fill="none" fill-rule="evenodd"><rect height="19.5" rx="2" stroke="#f5f5f5" stroke-width=".5" width="27.5" x=".25" y=".25"/><path d="m0 6.666667h28v6.666667h-28z" fill="#17508f" mask="url(#b)"/><path d="m0 0h28v6.666667h-28z" fill="#e1444d" mask="url(#b)"/><g mask="url(#b)"><g transform="translate(5.333333 6.666667)"><use fill="#fff" fill-rule="evenodd" xlink:href="#a"/><g fill="none" stroke="#e1444d" stroke-linecap="square" stroke-width="1.333333"><path d="m6 .666667-5.333333 6.666666" mask="url(#c)"/><path d="m6 .666667-5.333333 6.666666" mask="url(#c)" transform="matrix(-1 0 0 1 6.666666 0)"/></g></g></g></g></svg>