<svg height="20" viewBox="0 0 28 20" width="28" xmlns="http://www.w3.org/2000/svg" xmlns:xlink="http://www.w3.org/1999/xlink"><defs><rect id="a" height="20" rx="2" width="28"/><mask id="b" fill="#fff"><use fill="#fff" fill-rule="evenodd" xlink:href="#a"/></mask></defs><g fill="none" fill-rule="evenodd"><use fill="#fff" xlink:href="#a"/><path d="m0 0h28v20h-28z" fill="#128c4b" mask="url(#b)"/><g fill="#fff"><path d="m6.66666667 12h10.66666663v-1.334029c0-.3678056.2698199-.5310611.6042481-.363847l.7290853.3645427v1.3333333h1.993754c.3716394 0 .6729126.3059006.6729126.6729126v.6604207c0 .7363797-.5902137 1.3333334-1.331942 1.3333334h-2.0075393c-.3647944 0-.6605187-.2959099-.6605187-.6666667v-.6666667h-8.66210298c-.37071027 0-.87956365-.2083333-1.13756562-.4663353z" mask="url(#b)"/><path d="m6.66666667 8.3364563c0-.18581968.10416666-.44062297.24068196-.57713827l.18530274-.18530273c.13292498-.13292498.1365153-.34484863 0-.48136393l-.18530274-.18530274c-.13292498-.13292498-.24068196-.38337199-.24068196-.57713826v-.66042074c0-.18581968.14269002-.3364563.3364563-.3364563h.66042073c.18581968 0 .3364563.14269003.3364563.3364563v.66042074c0 .18581968.06635984.20373662.14795494.04054642l.37075679-.74151358c.08171325-.16342651.30489158-.29590988.47821426-.29590988h1.33948131c.1823972 0 .3302594.1546224.3302594.33333334 0 .18409491-.1426901.33333333-.3364563.33333333h-.66042077c-.18581968 0-.3364563.1546224-.3364563.33333333 0 .18409492.14269003.33333334.3364563.33333334h.66042077c.1858197 0 .3364563.14337158.3364563.32698567v2.01269532c0 .1805892-.1426901.32698567-.3364563.32698567h-.66042077c-.18581968 0-.3364563-.14269002-.3364563-.3364563v-.66042073c0-.18581968.1546224-.3364563.33333334-.3364563.18409491 0 .33333333-.1546224.33333333-.33333333 0-.18409492-.14269002-.33333334-.3364563-.33333334h-.66042073c-.18581969 0-.3364563.15693665-.3364563.33025933v1.33948135c0 .18239719-.1546224.33025932-.33333334.33025932-.18409491 0-.33333333-.14269002-.33333333-.3364563v-.66042073c0-.18581968-.1546224-.3364563-.33333333-.3364563-.18409492 0-.33333334.14269002-.33333334.3364563v.66042073c0 .18581969-.15462239.3364563-.33333333.3364563-.18409492 0-.33333333-.14269002-.33333333-.3364563z" mask="url(#b)"/><path d="m17.3333333 8.3364563c0-.18581968.1041667-.44062297.240682-.57713827l.1853027-.18530273c.132925-.13292498.1365153-.34484863 0-.48136393l-.1853027-.18530274c-.132925-.13292498-.240682-.38337199-.240682-.57713826v-.66042074c0-.18581968.1426901-.3364563.3364563-.3364563h.6604208c.1858197 0 .3364563.14269003.3364563.3364563v.66042074c0 .18581968.0663598.20373662.1479549.04054642l.3707568-.74151358c.0817132-.16342651.3048916-.29590988.4782143-.29590988h1.3394813c.1823972 0 .3302593.1546224.3302593.33333334 0 .18409491-.14269.33333333-.3364563.33333333h-.6604207c-.1858197 0-.3364563.1546224-.3364563.33333333 0 .18409492.14269.33333334.3364563.33333334h.6604207c.1858197 0 .3364563.14337158.3364563.32698567v2.01269532c0 .1805892-.14269.32698567-.3364563.32698567h-.6604207c-.1858197 0-.3364563-.14269002-.3364563-.3364563v-.66042073c0-.18581968.1546224-.3364563.3333333-.3364563.1840949 0 .3333334-.1546224.3333334-.33333333 0-.18409492-.1426901-.33333334-.3364563-.33333334h-.6604208c-.1858197 0-.3364563.15693665-.3364563.33025933v1.33948135c0 .18239719-.1546224.33025932-.3333333.33025932-.1840949 0-.3333333-.14269002-.3333333-.3364563v-.66042073c0-.18581968-.1546224-.3364563-.3333334-.3364563-.1840949 0-.3333333.14269002-.3333333.3364563v.66042073c0 .18581969-.1546224.3364563-.3333333.3364563-.1840949 0-.3333334-.14269002-.3333334-.3364563z" mask="url(#b)"/><path d="m16 6.33021037c0 .18581968-.1041667.44062296-.240682.57713826l-.1853027.18530274c-.132925.13292498-.1365153.34484863 0 .48136393l.1853027.18530273c.132925.13292498.240682.38337199.240682.57713827v.66042073c0 .18581969-.14269.3364563-.3364563.3364563h-.6604207c-.1858197 0-.3364563-.14269002-.3364563-.3364563v-.66042073c0-.18581968-.0615235-.21340943-.1546224-.02721151l-.3574219.71484375c-.0853956.17079118-.311559.30924479-.4848817.30924479h-1.3394814c-.1823972 0-.3302593-.15462239-.3302593-.33333333 0-.18409492.14269-.33333333.3364563-.33333333h.6604207c.1858197 0 .3364563-.1546224.3364563-.33333334 0-.18409491-.14269-.33333333-.3364563-.33333333h-.6604207c-.1858197 0-.3364563-.14337158-.3364563-.32698568v-2.01269531c0-.1805892.14269-.32698568.3364563-.32698568h.6604207c.1858197 0 .3364563.14269003.3364563.3364563v.66042074c0 .18581968-.1546224.3364563-.3333333.3364563-.1840949 0-.3333333.15462239-.3333333.33333333 0 .18409492.14269.33333333.3364563.33333333h.6604207c.1858197 0 .3364563-.15693664.3364563-.33025932v-1.33948135c0-.18239719.1546224-.33025933.3333333-.33025933.1840949 0 .3333334.14269003.3333334.3364563v.66042074c0 .18581968.1546224.3364563.3333333.3364563.1840949 0 .3333333-.14269003.3333333-.3364563v-.66042074c0-.18581968.1546224-.3364563.3333334-.3364563.1840949 0 .3333333.14269003.3333333.3364563z" mask="url(#b)"/></g></g></svg>