<svg height="20" viewBox="0 0 28 20" width="28" xmlns="http://www.w3.org/2000/svg" xmlns:xlink="http://www.w3.org/1999/xlink"><defs><rect id="a" height="20" rx="2" width="28"/><linearGradient id="b" x1="50%" x2="50%" y1="0%" y2="100%"><stop offset="0" stop-color="#1dbe4f"/><stop offset="1" stop-color="#159b3f"/></linearGradient><linearGradient id="c" x1="50%" x2="50%" y1="0%" y2="100%"><stop offset="0" stop-color="#0660d4"/><stop offset="1" stop-color="#0051bb"/></linearGradient><path id="d" d="m0 0h28l-28 20z"/><filter id="e" height="119.7%" width="118.3%" x="-5.4%" y="-7.5%"><feMorphology in="SourceAlpha" operator="dilate" radius="0.5" result="shadowSpreadOuter1"/><feOffset dx="0" dy="0" in="shadowSpreadOuter1" result="shadowOffsetOuter1"/><feColorMatrix in="shadowOffsetOuter1" type="matrix" values="0 0 0 0 0   0 0 0 0 0   0 0 0 0 0  0 0 0 0.06 0"/></filter><mask id="f" fill="#fff"><use fill="#fff" fill-rule="evenodd" xlink:href="#a"/></mask></defs><g fill="none" fill-rule="evenodd"><use fill="#fff" xlink:href="#a"/><path d="m0 0h28v20h-28z" fill="url(#b)" mask="url(#f)"/><g mask="url(#f)"><use fill="#000" filter="url(#e)" xlink:href="#d"/><use fill="url(#c)" fill-rule="evenodd" xlink:href="#d"/></g><path d="m0 0 28 20h-28z" fill="#2c7442" mask="url(#f)" transform="matrix(-1 0 0 1 28 0)"/><path d="m-5.333333 8.666667h38.666667v2.666667h-38.666667z" fill="#ffd646" mask="url(#f)"/><path d="m9.66666667 5.33333333.48982103.99248584 1.0952732.15915251-.7925471.77254248.187095 1.0908475-.97964213-.51502833-.97964209.51502833.18709499-1.0908475-.7925471-.77254248 1.09527315-.15915251zm-6.66666667 0 .48982104.99248584 1.09527315.15915251-.79254709.77254248.18709499 1.0908475-.97964209-.51502833-.97964209.51502833.18709499-1.0908475-.79254709-.77254248 1.09527315-.15915251zm3.33333333-2 .48982105.99248584 1.09527315.15915251-.7925471.77254248.18709499 1.0908475-.97964209-.51502833-.97964208.51502833.18709499-1.0908475-.7925471-.77254248 1.09527315-.15915251zm-3.33333333-2 .48982104.99248584 1.09527315.15915251-.79254709.77254248.18709499 1.0908475-.97964209-.51502833-.97964209.51502833.18709499-1.0908475-.79254709-.77254248 1.09527315-.15915251zm6.66666667 0 .48982103.99248584 1.0952732.15915251-.7925471.77254248.187095 1.0908475-.97964213-.51502833-.97964209.51502833.18709499-1.0908475-.7925471-.77254248 1.09527315-.15915251z" fill="#fff" mask="url(#f)"/></g></svg>