<svg height="20" viewBox="0 0 28 20" width="28" xmlns="http://www.w3.org/2000/svg" xmlns:xlink="http://www.w3.org/1999/xlink"><mask id="a" fill="#fff"><rect fill="#fff" fill-rule="evenodd" height="20" rx="2" width="28"/></mask><g fill="none" fill-rule="evenodd"><rect height="19.5" rx="2" stroke="#f5f5f5" stroke-width=".5" width="27.5" x=".25" y=".25"/><path d="m0 0h28v10.666667h-28z" fill="#e12237" mask="url(#a)"/><path d="m6.66666667 1.33333333c.94511355 0 1.81366974.327781 2.49819012.87586453-.36267551-.13527502-.75513335-.20919786-1.16485679-.20919786-1.84094917 0-3.33333333 1.49238417-3.33333333 3.33333333 0 1.84094917 1.49238416 3.33333334 3.33333333 3.33333334.40972344 0 .80218128-.07392285 1.16476382-.20915884-.68442741.54804451-1.5529836.8758255-2.49809715.8758255-2.209139 0-4-1.790861-4-4s1.790861-4 4-4zm2 5.33333334c.36818983 0 .66666666.29847683.66666666.66666666 0 .36818984-.29847683.66666667-.66666666.66666667-.36818984 0-.66666667-.29847683-.66666667-.66666667 0-.36818983.29847683-.66666666.66666667-.66666666zm2.66666663 0c.3681899 0 .6666667.29847683.6666667.66666666 0 .36818984-.2984768.66666667-.6666667.66666667-.3681898 0-.6666666-.29847683-.6666666-.66666667 0-.36818983.2984768-.66666666.6666666-.66666666zm-3.99999997-2.66666667c.36818984 0 .66666667.29847683.66666667.66666667 0 .36818983-.29847683.66666666-.66666667.66666666-.36818983 0-.66666666-.29847683-.66666666-.66666666 0-.36818984.29847683-.66666667.66666666-.66666667zm5.33333337 0c.3681898 0 .6666666.29847683.6666666.66666667 0 .36818983-.2984768.66666666-.6666666.66666666-.3681899 0-.6666667-.29847683-.6666667-.66666666 0-.36818984.2984768-.66666667.6666667-.66666667zm-2.6666667-2c.3681898 0 .6666667.29847683.6666667.66666667 0 .36818983-.2984769.66666666-.6666667.66666666-.36818983 0-.66666667-.29847683-.66666667-.66666666 0-.36818984.29847684-.66666667.66666667-.66666667z" fill="#fff" mask="url(#a)"/></g></svg>