<svg height="20" viewBox="0 0 28 20" width="28" xmlns="http://www.w3.org/2000/svg" xmlns:xlink="http://www.w3.org/1999/xlink"><defs><rect id="a" height="20" rx="2" width="28"/><linearGradient id="b" x1="50%" x2="50%" y1="0%" y2="100%"><stop offset="0" stop-color="#07319c"/><stop offset="1" stop-color="#00247e"/></linearGradient><path id="c" d="m0 4.66666667v-3.33421072c0-.7358951.59162219-1.33245595 1.33307666-1.33245595h4.00051335c.73623791 0 1.33307666.58794626 1.33307666 1.33245595v3.33421072c0 3.33333333-3.33333334 4.66666666-3.33333334 4.66666666s-3.33333333-1.33333333-3.33333333-4.66666666z"/><mask id="d" fill="#fff"><use fill="#fff" fill-rule="evenodd" xlink:href="#a"/></mask><mask id="e" fill="#fff"><use fill="#fff" fill-rule="evenodd" xlink:href="#c"/></mask></defs><g fill="none" fill-rule="evenodd"><use fill="#fff" xlink:href="#a"/><path d="m0 0h28v20h-28z" fill="url(#b)" mask="url(#d)"/><g mask="url(#d)"><g transform="translate(17.333333 5.333333)"><g fill="none" fill-rule="evenodd"><use fill="#8fc5ff" xlink:href="#c"/><path d="m2.75653334 6.5502279s.66731294-.86409923 1.059817-.86409923.46459929.57377176 1.06815974.57377176c.60356045-.00000001.9218715-.91442408 1.50323709-.91442408.58136558-.00000001-.0000002 3.00004144-.0000002 3.00004144l-.78779177.8125513-4.61133853.53261421z" fill="#366cc9" mask="url(#e)"/><path d="m.79285826 5.2178679.58851228-.55120123.57826392 1.41569709.77629344-1.41569709.66760317 4.03538227-1.11023076-.22588031-3.62663364-1.65814632z" fill="#cf6200" mask="url(#e)"/><path d="m0 0h6.666667v4h-6.666667z" fill="#ff0" mask="url(#e)"/></g><path d="m6.33333333 4.66666667c0 2.74474315-2.41808856 4.032546-2.99937082 4.30241908-.36045659-.16907717-1.43581623-.73702117-2.19852049-1.80480712-.45827742-.6415884-.80210869-1.46645821-.80210869-2.49761196v-3.33421072c0-.2764104.11104919-.52675917.29208178-.70770747.1804127-.1803287.43014811-.29141515.70766155-.29141515h4.00051335c.27695973 0 .52789387.11045303.70908347.29155827.18002097.17993714.29065985.42933226.29065985.70756435z" stroke="#fff" stroke-width=".666667"/></g></g><path d="m6.57256028 6.33333333h-1.1436282l-5.76226541 3.60141588v-1.43962184l4.66666666-3.33333334v-1.00848239l-5.23441913-4.48664497h1.67457415l4.66666667 3.33333333h1.1309129l5.72574658-3.57859164c.1321116 1.15267481-.1171297 1.52654654-.3810143 1.71503554l-4.24913353 3.0350954v1.00848239l7.49001743 6.42001491z" fill="#db1e36" mask="url(#d)" stroke="#fff" stroke-width=".666667"/><path d="m0 3.33333333v2.66666667h4.66666667v3.33948135c0 .36479438.30590057.66051865.67291259.66051865h1.32084148c.37163936 0 .67291259-.30065012.67291259-.66051865v-3.33948135h4.65786297c.373052 0 .6754704-.30590057.6754704-.6729126v-1.32084147c0-.37163936-.3020242-.6729126-.6754704-.6729126h-4.65786297v-3.33333333h-2.66666666v3.33333333z" fill="#fff" mask="url(#d)"/><path d="m0 4h5.33333333v-.66666667-3.33333333h1.33333334v3.33333333.66666667h5.33333333v1.33333333h-5.33333333v.66666667 3.33333333h-1.33333334v-3.33333333-.66666667h-5.33333333z" fill="#db1e36" mask="url(#d)"/></g></svg>