<svg height="20" viewBox="0 0 28 20" width="28" xmlns="http://www.w3.org/2000/svg" xmlns:xlink="http://www.w3.org/1999/xlink"><defs><path id="a" d="m0 13.333333h28v6.666667h-28z"/><filter id="b" height="145%" width="110.7%" x="-5.4%" y="-22.5%"><feMorphology in="SourceAlpha" operator="dilate" radius="0.5" result="shadowSpreadOuter1"/><feOffset dx="0" dy="0" in="shadowSpreadOuter1" result="shadowOffsetOuter1"/><feColorMatrix in="shadowOffsetOuter1" type="matrix" values="0 0 0 0 0   0 0 0 0 0   0 0 0 0 0  0 0 0 0.06 0"/></filter><mask id="c" fill="#fff"><rect fill="#fff" fill-rule="evenodd" height="20" rx="2" width="28"/></mask></defs><g fill="none" fill-rule="evenodd"><rect height="19.5" rx="2" stroke="#f5f5f5" stroke-width=".5" width="27.5" x=".25" y=".25"/><path d="m7.33333333 4.66666667c.97033918 0 1.91064453.66666666 1.91064453.66666666v1.33333334h18.75602214v6.66666663h-28v-6.66666663h5.33333333v-1.33333334s1.02966082-.66666666 2-.66666666zm0 2c-.73637966 0-1.33333333.59695366-1.33333333 1.33333333s.59695367 1.33333333 1.33333333 1.33333333c.73637967 0 1.33333334-.59695366 1.33333334-1.33333333s-.59695367-1.33333333-1.33333334-1.33333333z" fill="#0c47b7" mask="url(#c)"/><g mask="url(#c)"><use fill="#000" filter="url(#b)" xlink:href="#a"/><use fill="#e53b35" fill-rule="evenodd" xlink:href="#a"/></g></g></svg>