<svg height="20" viewBox="0 0 28 20" width="28" xmlns="http://www.w3.org/2000/svg" xmlns:xlink="http://www.w3.org/1999/xlink"><mask id="a" fill="#fff"><rect fill="#fff" fill-rule="evenodd" height="20" rx="2" width="28"/></mask><mask id="b" fill="#fff"><path d="m.94864718 1.33517342c.02836138-.73739592.64704792-1.33517342 1.38652624-1.33517342h5.99631983c.73739592 0 1.35808477.5956951 1.38652624 1.33517342l.23062769 5.99631983c.02836138.73739592-.3961068 1.71871023-.96124434 2.20311384l-2.13893657 1.83337421c-.83678482.7172441-2.19370634.717051-3.03026587 0l-2.13893657-1.83337421c-.55924197-.47935026-.98968581-1.46363552-.96124434-2.20311384z" fill="#fff" fill-rule="evenodd"/></mask><g fill="none" fill-rule="evenodd"><rect height="19.5" rx="2" stroke="#f5f5f5" stroke-width=".5" width="27.5" x=".25" y=".25"/><path d="m0 6.666667h28v6.666667h-28z" fill="#0c47b7" mask="url(#a)"/><path d="m0 13.333333h28v6.666667h-28z" fill="#e53b35" mask="url(#a)"/><g mask="url(#a)"><g transform="translate(4.666667 4)"><path d="m9.42126375 10.0407782-2.13893657 1.8333742c-.53816564.4612848-1.24203886.6983562-1.94896758.6983562-.70701969 0-1.41093108-.2371371-1.94902012-.6983562l-2.13893657-1.8333742c-.69423036-.59505464-1.22886713-1.81685746-1.19355754-2.73490703l.23062769-5.99631983c.02100069-.54601804.25916579-1.04127426.63087086-1.39921246.37138835-.35763323.87474113-.57700555 1.4218295-.57700555h5.99631983c.54625359 0 1.05019846.21913862 1.42207935.57724615.3712127.3574641.6095882.85211949.630621 1.39897186l.2306277 5.99631983c.0352102.9154643-.4920085 2.13357928-1.19355755 2.73490703z" stroke="#fff" stroke-width="1.333333"/><g fill-rule="evenodd"><path d="m4.66666667 6.99365234c0-.1805892-.15693665-.32698567-.33025933-.32698567h-1.33948135c-.18239719 0-.33025932-.14269003-.33025932-.3364563v-.66042074c0-.18581968.15693664-.3364563.33025932-.3364563h1.33948135c.18239719 0 .33025933-.14269002.33025933-.3364563v-.66042073c0-.18581968-.14269003-.3364563-.3364563-.3364563h-.66042074c-.18581968 0-.3364563-.14269002-.3364563-.3364563v-.66042073c0-.18581969.14269003-.3364563.3364563-.3364563h.66042074c.18581968 0 .3364563-.14269003.3364563-.3364563v-.66042074c0-.18581968.14269002-.3364563.3364563-.3364563h.66042073c.18581968 0 .3364563.14269003.3364563.3364563v.66042074c0 .18581968.14269002.3364563.3364563.3364563h.66042073c.18581969 0 .3364563.14269002.3364563.3364563v.66042073c0 .18581968-.14269002.3364563-.3364563.3364563h-.66042073c-.18581968 0-.3364563.14269002-.3364563.3364563v.66042073c0 .18581969.15693665.3364563.33025932.3364563h1.33948136c.18239718 0 .33025932.14269003.33025932.3364563v.66042074c0 .18581968-.15693665.3364563-.33025932.3364563h-1.33948136c-.18239718 0-.33025932.14337158-.33025932.32698567v2.01269532c0 .1805892-.14269002.32698567-.3364563.32698567h-.66042073c-.18581969 0-.3364563-.14337158-.3364563-.32698567z" fill="#fff" mask="url(#b)"/><path d="m5.33333333 8.66666667c.53072409 0 .98902496.31008063 1.20361799.75895727 1.62112262.25534531 2.79638201 1.01290326 2.79638201 1.90770936 0 1.1045695-1.790861 2-4 2s-4-.8954305-4-2c0-.8948061 1.1752594-1.65236405 2.79607474-1.90782197.21490031-.44876403.67320118-.75884466 1.20392526-.75884466z" fill="#1251a1" mask="url(#b)"/></g></g></g></g></svg>