<svg height="20" viewBox="0 0 28 20" width="28" xmlns="http://www.w3.org/2000/svg" xmlns:xlink="http://www.w3.org/1999/xlink"><defs><rect id="a" height="20" rx="2" width="28"/><mask id="b" fill="#fff"><use fill="#fff" fill-rule="evenodd" xlink:href="#a"/></mask></defs><g fill="none" fill-rule="evenodd"><use fill="#fff" xlink:href="#a"/><path d="m0 13.333333h28v6.666667h-28z" fill="#2acb41" mask="url(#b)"/><path d="m0 0h28v6.666667h-28z" fill="#2acb41" mask="url(#b)"/><path d="m0 6.666667h28v6.666667h-28z" fill="#fdd043" mask="url(#b)"/><path d="m0 0 10.6666667 10-10.6666667 10z" fill="#e71e43" mask="url(#b)"/><g fill="#262626"><path d="m14.6666667 11.0933333-1.5674274 1.0640454.5276056-1.8195201-1.4963289-1.16190392 1.8935055-.06047992.6426452-1.78214143.6426452 1.78214143 1.8935055.06047992-1.496329 1.16190392.5276056 1.8195201z" mask="url(#b)"/><path d="m21.3333333 11.0933333-1.5674273 1.0640454.5276056-1.8195201-1.496329-1.16190392 1.8935055-.06047992.6426452-1.78214143.6426452 1.78214143 1.8935055.06047992-1.4963289 1.16190392.5276056 1.8195201z" mask="url(#b)"/></g></g></svg>