<svg height="20" viewBox="0 0 28 20" width="28" xmlns="http://www.w3.org/2000/svg" xmlns:xlink="http://www.w3.org/1999/xlink"><mask id="a" fill="#fff"><rect fill="#fff" fill-rule="evenodd" height="20" rx="2" width="28"/></mask><g fill="none" fill-rule="evenodd"><rect height="19.5" rx="2" stroke="#f5f5f5" stroke-width=".5" width="27.5" x=".25" y=".25"/><path d="m0 13.333333h28v6.666667h-28z" fill="#262626" mask="url(#a)"/><path d="m0 0h28v6.666667h-28z" fill="#e32139" mask="url(#a)"/><g fill="#128a49"><path d="m9.33333333 11.0933333-1.56742734 1.0640454.52760556-1.8195201-1.49632893-1.16190392 1.89350551-.06047992.6426452-1.78214143.64264521 1.78214143 1.89350546.06047992-1.4963289 1.16190392.5276056 1.8195201z" mask="url(#a)"/><path d="m18.6666667 11.0933333-1.5674274 1.0640454.5276056-1.8195201-1.4963289-1.16190392 1.8935055-.06047992.6426452-1.78214143.6426452 1.78214143 1.8935055.06047992-1.496329 1.16190392.5276056 1.8195201z" mask="url(#a)"/></g></g></svg>