<svg height="20" viewBox="0 0 28 20" width="28" xmlns="http://www.w3.org/2000/svg" xmlns:xlink="http://www.w3.org/1999/xlink"><defs><rect id="a" height="20" rx="2" width="28"/><mask id="b" fill="#fff"><use fill="#fff" fill-rule="evenodd" xlink:href="#a"/></mask><mask id="c" fill="#fff"><path d="m0 4.66666667v-3.33421072c0-.7358951.59162219-1.33245595 1.33307666-1.33245595h4.00051335c.73623791 0 1.33307666.58794626 1.33307666 1.33245595v3.33421072c0 3.33333333-3.33333334 4.66666666-3.33333334 4.66666666s-3.33333333-1.33333333-3.33333333-4.66666666z" fill="#fff" fill-rule="evenodd"/></mask></defs><g fill="none" fill-rule="evenodd"><use fill="#fff" xlink:href="#a"/><path d="m0 0h28v20h-28z" fill="#07319c" mask="url(#b)"/><g mask="url(#b)"><g transform="translate(17.333333 5.333333)"><path d="m6.33333333 4.66666667c0 2.74474315-2.41808856 4.032546-2.99937082 4.30241908-.36045659-.16907717-1.43581623-.73702117-2.19852049-1.80480712-.45827742-.6415884-.80210869-1.46645821-.80210869-2.49761196v-3.33421072c0-.2764104.11104919-.52675917.29208178-.70770747.1804127-.1803287.43014811-.29141515.70766155-.29141515h4.00051335c.27695973 0 .52789387.11045303.70908347.29155827.18002097.17993714.29065985.42933226.29065985.70756435z" stroke="#fff" stroke-width=".666667"/><g fill-rule="evenodd"><ellipse cx="4.666667" cy="2.666667" fill="#ba5b1f" mask="url(#c)" rx="1" ry="1.333333"/><ellipse cx="1.749155" cy="2.706872" fill="#ff9f3e" mask="url(#c)" rx="1" ry="1.333333" transform="matrix(.93969262 -.34202014 .34202014 .93969262 -.820318 .761491)"/><ellipse cx="2.281746" cy="2.729128" fill="#ff937f" mask="url(#c)" rx="1" ry="1.333333" transform="matrix(.90630779 .42261826 -.42261826 .90630779 1.367161 -.708609)"/><path d="m2.66666667 5.33333333.66666666-1.33333333.66666667 1.33333333v1.33333334h-1.33333333z" fill="#01a827" mask="url(#c)"/></g></g></g><path d="m6.57256028 6.33333333h-1.1436282l-5.76226541 3.60141588v-1.43962184l4.66666666-3.33333334v-1.00848239l-5.23441913-4.48664497h1.67457415l4.66666667 3.33333333h1.1309129l5.72574658-3.57859164c.1321116 1.15267481-.1171297 1.52654654-.3810143 1.71503554l-4.24913353 3.0350954v1.00848239l7.49001743 6.42001491z" fill="#db1e36" mask="url(#b)" stroke="#fff" stroke-width=".666667"/><path d="m0 3.33333333v2.66666667h4.66666667v3.33948135c0 .36479438.30590057.66051865.67291259.66051865h1.32084148c.37163936 0 .67291259-.30065012.67291259-.66051865v-3.33948135h4.65786297c.373052 0 .6754704-.30590057.6754704-.6729126v-1.32084147c0-.37163936-.3020242-.6729126-.6754704-.6729126h-4.65786297v-3.33333333h-2.66666666v3.33333333z" fill="#fff" mask="url(#b)"/><path d="m0 4h5.33333333v-.66666667-3.33333333h1.33333334v3.33333333.66666667h5.33333333v1.33333333h-5.33333333v.66666667 3.33333333h-1.33333334v-3.33333333-.66666667h-5.33333333z" fill="#db1e36" mask="url(#b)"/></g></svg>