<svg height="20" viewBox="0 0 28 20" width="28" xmlns="http://www.w3.org/2000/svg" xmlns:xlink="http://www.w3.org/1999/xlink"><mask id="a" fill="#fff"><rect fill="#fff" fill-rule="evenodd" height="20" rx="2" width="28"/></mask><g fill="none" fill-rule="evenodd"><rect height="19.5" rx="2" stroke="#f5f5f5" stroke-width=".5" width="27.5" x=".25" y=".25"/><path d="m0 0h28v6.666667h-28z" fill="#d9101c" mask="url(#a)"/><path d="m0 13.333333h28v6.666667h-28z" fill="#0f7811" mask="url(#a)"/><path d="m14 9.33333333c.3681898 0 .6666667.29847684.6666667.66666667 0 .1204477-.0319422.3761244-.0878176.6656639l.7606323.0010028c.3316312 0 .6061797.2445536.6533569.5675729l.0071617.0990937c0 .3681899-.3006501.6666667-.6605186.6666667h-2.6789628c-.3647943 0-.6605186-.2959099-.6605186-.6666667 0-.3681898.3006501-.6666666.6605186-.6666666l.7606323-.0010028c-.0558754-.2895395-.0878176-.5452162-.0878176-.6656639 0-.36818983.2984769-.66666667.6666667-.66666667zm4 0c.3681898 0 .6666667.29847684.6666667.66666667 0 .3681898-.2984769.6666667-.6666667.6666667s-.6666667-.2984769-.6666667-.6666667c0-.36818983.2984769-.66666667.6666667-.66666667zm-8 0c.3681898 0 .6666667.29847684.6666667.66666667 0 .3681898-.2984769.6666667-.6666667.6666667-.36818983 0-.66666667-.2984769-.66666667-.6666667 0-.36818983.29847684-.66666667.66666667-.66666667zm2.6666667-1.33333333c.3681898 0 .6666666.29847683.6666666.66666667 0 .36818983-.2984768.66666666-.6666666.66666666-.3681899 0-.6666667-.29847683-.6666667-.66666666 0-.36818984.2984768-.66666667.6666667-.66666667zm2.6666666 0c.3681899 0 .6666667.29847683.6666667.66666667 0 .36818983-.2984768.66666666-.6666667.66666666-.3681898 0-.6666666-.29847683-.6666666-.66666666 0-.36818984.2984768-.66666667.6666666-.66666667z" fill="#fad14e" mask="url(#a)"/></g></svg>