<svg height="20" viewBox="0 0 28 20" width="28" xmlns="http://www.w3.org/2000/svg" xmlns:xlink="http://www.w3.org/1999/xlink"><defs><rect id="a" height="20" rx="2" width="28"/><ellipse id="b" cx="2" cy="1.333333" rx="2" ry="1.333333"/><ellipse id="c" cx="2" cy="1.333333" rx="2" ry="1.333333"/><ellipse id="d" cx="2" cy="1.333333" rx="2" ry="1.333333"/><ellipse id="e" cx="2" cy="1.333333" rx="2" ry="1.333333"/><mask id="f" fill="#fff"><use fill="#fff" fill-rule="evenodd" xlink:href="#a"/></mask><mask id="g" fill="#fff"><use fill="#fff" fill-rule="evenodd" xlink:href="#b"/></mask><mask id="h" fill="#fff"><use fill="#fff" fill-rule="evenodd" xlink:href="#c"/></mask><mask id="i" fill="#fff"><use fill="#fff" fill-rule="evenodd" xlink:href="#d"/></mask><mask id="j" fill="#fff"><use fill="#fff" fill-rule="evenodd" xlink:href="#e"/></mask></defs><g fill="none" fill-rule="evenodd"><use fill="#fff" xlink:href="#a"/><path d="m0 0h28v20h-28z" fill="#30c375" mask="url(#f)"/><path d="m4 0h4v20h-4z" fill="#de414f" mask="url(#f)"/><g mask="url(#f)"><g fill-rule="evenodd" transform="translate(4 1.333333)"><use fill="#fff" xlink:href="#b"/><circle cx="2" cy="1.333333" fill="#dd404f" mask="url(#g)" r="1"/><g fill="#fbaf29"><path d="m0 0h2v1.333333h-2z" mask="url(#g)"/><path d="m2 1.333333h2v1.333333h-2z" mask="url(#g)"/></g></g></g><g mask="url(#f)"><g fill-rule="evenodd" transform="translate(4 16)"><use fill="#fff" xlink:href="#c"/><circle cx="2" cy="1.333333" fill="#dd404f" mask="url(#h)" r="1"/><g fill="#fbaf29"><path d="m0 0h2v1.333333h-2z" mask="url(#h)"/><path d="m2 1.333333h2v1.333333h-2z" mask="url(#h)"/></g></g></g><g mask="url(#f)"><g fill-rule="evenodd" transform="translate(4 9.333333)"><use fill="#28ae67" xlink:href="#d"/><ellipse cx="2" cy="1.333333" fill="#dd404f" mask="url(#i)" rx="1.333333" ry="1"/></g></g><g mask="url(#f)"><ellipse cx="2" cy=".666667" fill="#28ae67" fill-rule="evenodd" rx="2" ry="1" transform="translate(4 13.333333)"/></g><g mask="url(#f)"><g fill-rule="evenodd" transform="translate(4 5.333333)"><use fill="#fbaf29" xlink:href="#e"/><circle cx="2" cy="1.333333" fill="#dd404f" mask="url(#j)" r="1"/><g fill="#28ae67"><path d="m0 0h1.333333v2.666667h-1.333333z" mask="url(#j)"/><path d="m2.666667 0h1.333333v2.666667h-1.333333z" mask="url(#j)"/></g></g></g><g fill="#fff"><path d="m14.8226526 4.23815712c-.2366679.28204977-.1998786.7025535.0821712.93922136.2820498.23666787.7025535.19987856.9392214-.08217122.2366678-.28204977.1998785-.7025535-.0821713-.93922137-.2820497-.23666786-.7025535-.19987855-.9392213.08217123zm-1.7274453 2.58449544c-.2820498-.23666786-.7025535-.19987855-.9392214.08217122-.2366679.28204978-.1998786.70255351.0821712.93922137s.7025535.19987855.9392214-.08217122c.2366678-.28204978.1998785-.70255351-.0821712-.93922137zm-1.3333334-1.33333333c-.2820497-.23666787-.7025535-.19987856-.9392213.08217122-.2366679.28204977-.1998786.7025535.0821712.93922137.2820498.23666786.7025535.19987855.9392214-.08217123.2366678-.28204977.1998785-.7025535-.0821713-.93922136zm2.6666667-2.66666667c-.2820498-.23666786-.7025535-.19987855-.9392214.08217122-.2366678.28204978-.1998785.70255351.0821712.93922137.2820498.23666786.7025536.19987855.9392214-.08217122.2366679-.28204978.1998786-.70255351-.0821712-.93922137zm-.6666667 2c-.2820497-.23666786-.7025535-.19987855-.9392213.08217122-.2366679.28204978-.1998786.70255351.0821712.93922137s.7025535.19987855.9392214-.08217122c.2366678-.28204978.1998785-.70255351-.0821713-.93922137z" mask="url(#f)"/><path d="m17.4760968 9.45052054c-1.5880496 1.58804956-4.1627868 1.58804956-5.7508364 0-.1538774-.15387745-.2928446-.31701896-.4169015-.48762921 1.5901256 1.15623777 3.829035 1.01727065 5.2632071-.4169015 1.4341722-1.43417216 1.5731394-3.67308152.4169015-5.26320713.1706103.12405688.3337518.26302405.4876293.4169015 1.5880496 1.5880496 1.5880496 4.16278673 0 5.75083634z" mask="url(#f)"/></g></g></svg>