<svg height="20" viewBox="0 0 28 20" width="28" xmlns="http://www.w3.org/2000/svg" xmlns:xlink="http://www.w3.org/1999/xlink"><defs><rect id="a" height="20" rx="2" width="28"/><mask id="b" fill="#fff"><use fill="#fff" fill-rule="evenodd" xlink:href="#a"/></mask></defs><g fill="none" fill-rule="evenodd"><use fill="#fff" xlink:href="#a"/><path d="m0 0h28v20h-28z" fill="#e92434" mask="url(#b)"/><path d="m14 4c3.3137085 0 6 2.6862915 6 6s-2.6862915 6-6 6-6-2.6862915-6-6 2.6862915-6 6-6zm0 1.33333333c-2.5773288 0-4.66666667 2.08933784-4.66666667 4.66666667 0 2.5773288 2.08933787 4.6666667 4.66666667 4.6666667.642809 0 1.2552625-.129967 1.8125167-.3650568-2.1480103-.2568846-3.8125167-2.0848641-3.8125167-4.3016099 0-2.21674579 1.6645064-4.04472528 3.8118581-4.30227732-.5565956-.23442242-1.1690491-.36438935-1.8118581-.36438935zm1.3948362 2.25640385-.1180477 1.92130897-1.8547803.51493065 1.7907947.7059872-.0834304 1.9231232 1.2248197-1.4849849 1.8032174.6736248-1.0338145-1.6237583 1.1978801-1.50680017-1.8637522.48144708z" fill="#fff" mask="url(#b)"/></g></svg>