<svg height="20" viewBox="0 0 28 20" width="28" xmlns="http://www.w3.org/2000/svg" xmlns:xlink="http://www.w3.org/1999/xlink"><linearGradient id="a" x1="50%" x2="50%" y1="0%" y2="100%"><stop offset="0" stop-color="#df101b"/><stop offset="1" stop-color="#c00711"/></linearGradient><mask id="b" fill="#fff"><rect fill="#fff" fill-rule="evenodd" height="20" rx="2" width="28"/></mask><g fill="none" fill-rule="evenodd"><rect height="19.5" rx="2" stroke="#f5f5f5" stroke-width=".5" width="27.5" x=".25" y=".25"/><path d="m16 10.6666667v-10.6666667h12v20h-28v-9.3333333z" fill="#e20f1b" mask="url(#b)"/><path d="m9.00634766 1.33333333c.1805892 0 .32698567.15266705.32698567.3235178l-.00033333 2.3424822 2.3434822.00066667c.1786739 0 .3235178.14337158.3235178.32698568v2.01269531c0 .1805892-.152667.32698568-.3235178.32698568l-2.3434822-.00033334.00033333 2.3434822c0 .17867395-.14337158.3235178-.32698567.3235178h-2.01269532c-.1805892 0-.32698567-.15266704-.32698567-.3235178l-.00066667-2.3434822-2.3424822.00033334c-.17867395 0-.3235178-.14337159-.3235178-.32698568v-2.01269531c0-.18058921.15266705-.32698568.3235178-.32698568l2.3424822-.00066667.00066667-2.3424822c0-.17867394.14337158-.3235178.32698567-.3235178z" fill="url(#a)" mask="url(#b)"/></g></svg>