<svg height="20" viewBox="0 0 28 20" width="28" xmlns="http://www.w3.org/2000/svg" xmlns:xlink="http://www.w3.org/1999/xlink"><defs><rect id="a" height="20" rx="2" width="28"/><mask id="b" fill="#fff"><use fill="#fff" fill-rule="evenodd" xlink:href="#a"/></mask></defs><g fill="none" fill-rule="evenodd"><use fill="#fff" xlink:href="#a"/><path d="m0 0h28v20h-28z" fill="#e92434" mask="url(#b)"/><g fill="#fff"><path d="m18.6857803 10.8124704-1.5674274 1.1173786.5783286-1.836001-1.5470519-1.14542297 1.924854-.01733239.6112967-1.82528896.6112967 1.82528896 1.924854.01733239-1.5470519 1.14542297.5783285 1.836001z" mask="url(#b)"/><path d="m12.6666667 4c1.9249815 0 3.6382338.90652059 4.7361425 2.31594735-.8471851-.61580458-1.9124343-.98261402-3.0694759-.98261402-2.7614237 0-4.99999997 2.08933784-4.99999997 4.66666667 0 2.5773288 2.23857627 4.6666667 4.99999997 4.6666667 1.1570416 0 2.2222908-.3668095 3.0695368-.9826316-1.0979696 1.4094443-2.8112219 2.3159649-4.7362034 2.3159649-3.31370853 0-6.00000003-2.6862915-6.00000003-6s2.6862915-6 6.00000003-6z" mask="url(#b)"/></g></g></svg>