<svg height="20" viewBox="0 0 28 20" width="28" xmlns="http://www.w3.org/2000/svg" xmlns:xlink="http://www.w3.org/1999/xlink"><defs><rect id="a" height="20" rx="2" width="28"/><mask id="b" fill="#fff"><use fill="#fff" fill-rule="evenodd" xlink:href="#a"/></mask></defs><g fill="none" fill-rule="evenodd"><use fill="#fff" xlink:href="#a"/><path d="m0 0h28v2.666667h-28z" fill="#262626" mask="url(#b)"/><path d="m0 10.666667h28v2.666667h-28z" fill="#262626" mask="url(#b)"/><path d="m0 6.666667h28v4h-28z" fill="#ed1623" mask="url(#b)"/><path d="m0 2.666667h28v4h-28z" fill="#fee044" mask="url(#b)"/><path d="m0 17.333333h28v2.666667h-28z" fill="#ed1623" mask="url(#b)"/><path d="m0 13.333333h28v4h-28z" fill="#fee044" mask="url(#b)"/><circle cx="14" cy="10" fill="#fff" mask="url(#b)" r="4.666667"/><path d="m12.9073486 7.5740153c-.1329249-.13292498-.1365153-.34484863 0-.48136393l.1853028-.18530274c.1329249-.13292498.3373062-.36180623.4642449-.49626541l.1499356-.11876551c.1619123.0226523.4091843-.04491806.5896211-.01594035l.1582018.12249756c.1170909.1478973.145652.40051143.0640569.56370164l-.3707568.74151361c-.0817132.16342653-.1479549.4505323-.1479549.62924323 0 .18409492.1327197.39969316.2959099.48128824l.7415136.3707567c.1634265.08171324.4005343.25257933.5281588.38020385l.8688354.86883541c.1282676.1282676.1658891.3649687.084294.5281589l-.3707568.7415138c-.0817132.1634265-.2521216.1917432-.3886369.0552278l-.1853027-.1853028c-.132925-.132925-.3448486-.1365153-.4813639 0l-.1853028.1853028c-.1329249.1329251-.2406819.3953045-.2406819.5740155 0 .1840949.1041666.4374999.2406819.5740152l.1853028.1853026c.1329249.132925.0837453.2406819-.0895774.2406819h-1.3394813c-.1823972 0-.2260927-.1041666-.0895774-.2406819l.1853027-.1853028c.132925-.1329249.240682-.3953043.240682-.5740153 0-.1840949-.1546224-.3333333-.3333333-.3333333-.1840949 0-.4375.1041667-.5740153.240682l-.1853028.1853027c-.1329249.132925-.3448486.1365153-.4813639 0l-.1853027-.1853027c-.132925-.132925-.1365153-.3448487 0-.481364l.1853027-.1853027c.132925-.132925.383372-.240682.5771383-.240682h.6604207c.1858197 0 .2289276-.1075287.1070309-.2294254l-1.5411492-1.54114914c-.1267081-.12670816-.124801-.33404986.0028235-.46167437l.8688355-.86883545c.1282675-.12826755.1280823-.33641561-.008433-.47293091z" fill="#262626" mask="url(#b)"/></g></svg>