<svg height="20" viewBox="0 0 28 20" width="28" xmlns="http://www.w3.org/2000/svg" xmlns:xlink="http://www.w3.org/1999/xlink"><mask id="a" fill="#fff"><rect fill="#fff" fill-rule="evenodd" height="20" rx="2" width="28"/></mask><g fill="none" fill-rule="evenodd"><rect height="19.5" rx="2" stroke="#f5f5f5" stroke-width=".5" width="27.5" x=".25" y=".25"/><path d="m28 18.6666667v1.3333333h-28v-1.3333333zm0-5.3333334v2.6666667h-28v-2.6666667zm-14.6666667-5.3333333h14.6666667v2.6666667h-14.6666667zm0-5.33333333h14.6666667v2.66666666h-14.6666667z" fill="#0e4dc5" mask="url(#a)"/><path d="m7.5567504 2.85052864.22545811 1.58326515 1.37841736-.81087943-.48382227 1.52429522 1.5937385-.13250424-1.09727567 1.16341991 1.49340027.57211504-1.49340027.57211504 1.09727567 1.16341992-1.5937385-.13250424.48382227 1.52429521-1.37841736-.81087943-.22545811 1.58326511-.89008373-1.32864996-.89008374 1.32864996-.2254581-1.58326511-1.37841737.81087943.48382227-1.52429521-1.59373853.13250424 1.09727571-1.16341992-1.49340024-.57211504 1.49340024-.57211504-1.09727571-1.16341991 1.59373853.13250424-.48382227-1.52429522 1.37841737.81087943.2254581-1.58326515.89008374 1.32865001zm-.89008373 1.35425711c-1.40581573 0-2.54545455 1.13963882-2.54545455 2.54545454 0 1.40581573 1.13963882 2.54545455 2.54545455 2.54545455 1.40581572 0 2.54545454-1.13963882 2.54545454-2.54545455 0-1.40581572-1.13963882-2.54545454-2.54545454-2.54545454zm0 .46188092c1.1045695 0 2 .8954305 2 2s-.8954305 2-2 2-2-.8954305-2-2 .8954305-2 2-2z" fill="#fed443" mask="url(#a)"/></g></svg>