<svg height="20" viewBox="0 0 28 20" width="28" xmlns="http://www.w3.org/2000/svg" xmlns:xlink="http://www.w3.org/1999/xlink"><mask id="a" fill="#fff"><rect fill="#fff" fill-rule="evenodd" height="20" rx="2" width="28"/></mask><g fill="none" fill-rule="evenodd"><rect height="19.5" rx="2" stroke="#f5f5f5" stroke-width=".5" width="27.5" x=".25" y=".25"/><path d="m0 0h28v6.666667h-28z" fill="#04aac8" mask="url(#a)"/><path d="m0 13.333333h28v6.666667h-28z" fill="#23c840" mask="url(#a)"/><path d="m4.66666667 1.33333333c.41135084 0 .79369663.12418541 1.1115914.33711028-.03667237-.00253152-.07398644-.00377694-.1115914-.00377694-.92047459 0-1.66666667.74619208-1.66666667 1.66666666 0 .92047459.74619208 1.66666667 1.66666667 1.66666667l.1115914-.00377694c-.31789477.21292486-.70024056.33711027-1.1115914.33711027-1.1045695 0-2-.8954305-2-2s.8954305-2 2-2zm2.66666666 2.66666667c.36818984 0 .66666667.29847683.66666667.66666667 0 .36818983-.29847683.66666666-.66666667.66666666-.36818983 0-.66666666-.29847683-.66666666-.66666666 0-.36818984.29847683-.66666667.66666666-.66666667zm5.33333337 0c.3681898 0 .6666666.29847683.6666666.66666667 0 .36818983-.2984768.66666666-.6666666.66666666-.3681899 0-.6666667-.29847683-.6666667-.66666666 0-.36818984.2984768-.66666667.6666667-.66666667zm-2.6666667 0c.3681898 0 .6666667.29847683.6666667.66666667 0 .36818983-.2984769.66666666-.6666667.66666666-.36818983 0-.66666667-.29847683-.66666667-.66666666 0-.36818984.29847684-.66666667.66666667-.66666667zm0-2.66666667c.3681898 0 .6666667.29847684.6666667.66666667s-.2984769.66666667-.6666667.66666667c-.36818983 0-.66666667-.29847684-.66666667-.66666667s.29847684-.66666667.66666667-.66666667zm2.6666667 0c.3681898 0 .6666666.29847684.6666666.66666667s-.2984768.66666667-.6666666.66666667c-.3681899 0-.6666667-.29847684-.6666667-.66666667s.2984768-.66666667.6666667-.66666667z" fill="#fff" mask="url(#a)"/></g></svg>