<svg height="20" viewBox="0 0 28 20" width="28" xmlns="http://www.w3.org/2000/svg" xmlns:xlink="http://www.w3.org/1999/xlink"><defs><rect id="a" height="20" rx="2" width="28"/><mask id="b" fill="#fff"><use fill="#fff" fill-rule="evenodd" xlink:href="#a"/></mask></defs><g fill="none" fill-rule="evenodd"><use fill="#fff" xlink:href="#a"/><path d="m0 6.666667h28v6.666667h-28z" fill="#063191" mask="url(#b)"/><path d="m0 13.333333h28v6.666667h-28z" fill="#e2213b" mask="url(#b)"/><path d="m10 10.6666667c.3681898 0 .6666667.2984768.6666667.6666666 0 .3681899-.2984769.6666667-.6666667.6666667-.36818983 0-.66666667-.2984768-.66666667-.6666667 0-.3681898.29847684-.6666666.66666667-.6666666zm8 0c.3681898 0 .6666667.2984768.6666667.6666666 0 .3681899-.2984769.6666667-.6666667.6666667s-.6666667-.2984768-.6666667-.6666667c0-.3681898.2984769-.6666666.6666667-.6666666zm-6.6666667-2.00000003c.3681899 0 .6666667.29847683.6666667.66666666 0 .36818984-.2984768.66666667-.6666667.66666667-.3681898 0-.6666666-.29847683-.6666666-.66666667 0-.36818983.2984768-.66666666.6666666-.66666666zm5.3333334 0c.3681898 0 .6666666.29847683.6666666.66666666 0 .36818984-.2984768.66666667-.6666666.66666667-.3681899 0-.6666667-.29847683-.6666667-.66666667 0-.36818983.2984768-.66666666.6666667-.66666666zm-2.6666667-.66666667c.3681898 0 .6666667.29847683.6666667.66666667 0 .36818983-.2984769.66666666-.6666667.66666666s-.6666667-.29847683-.6666667-.66666666c0-.36818984.2984769-.66666667.6666667-.66666667z" fill="#fff" mask="url(#b)"/><path d="m0 0h28v6.666667h-28z" fill="#ffd044" mask="url(#b)"/></g></svg>