<svg height="20" viewBox="0 0 28 20" width="28" xmlns="http://www.w3.org/2000/svg" xmlns:xlink="http://www.w3.org/1999/xlink"><defs><rect id="a" height="20" rx="2" width="28"/><path id="b" d="m0 4.66666667v-3.33421072c0-.7358951.59162219-1.33245595 1.33307666-1.33245595h4.00051335c.73623791 0 1.33307666.58794626 1.33307666 1.33245595v3.33421072c0 3.33333333-3.33333334 4.66666666-3.33333334 4.66666666s-3.33333333-1.33333333-3.33333333-4.66666666z"/><mask id="c" fill="#fff"><use fill="#fff" fill-rule="evenodd" xlink:href="#a"/></mask><mask id="d" fill="#fff"><use fill="#fff" fill-rule="evenodd" xlink:href="#b"/></mask></defs><g fill="none" fill-rule="evenodd"><use fill="#fff" xlink:href="#a"/><path d="m0 0h28v20h-28z" fill="#07319c" mask="url(#c)"/><g mask="url(#c)"><g fill-rule="evenodd" transform="translate(17.333333 5.333333)"><use fill="#008339" xlink:href="#b"/><path d="m2 5.33333333c.36818983 0 .66666667.29847684.66666667.66666667s-.29847684.66666667-.66666667.66666667-.66666667-.29847684-.66666667-.66666667.29847684-.66666667.66666667-.66666667zm2.66666667 0c.36818983 0 .66666666.29847684.66666666.66666667s-.29847683.66666667-.66666666.66666667c-.36818984 0-.66666667-.29847684-.66666667-.66666667s.29847683-.66666667.66666667-.66666667zm-2.66666667-1.33333333c.36818983 0 .66666667.29847683.66666667.66666667 0 .36818983-.29847684.66666666-.66666667.66666666s-.66666667-.29847683-.66666667-.66666666c0-.36818984.29847684-.66666667.66666667-.66666667zm2.66666667 0c.36818983 0 .66666666.29847683.66666666.66666667 0 .36818983-.29847683.66666666-.66666666.66666666-.36818984 0-.66666667-.29847683-.66666667-.66666666 0-.36818984.29847683-.66666667.66666667-.66666667zm-2.66666667-1.33333333c.36818983 0 .66666667.29847683.66666667.66666666 0 .36818984-.29847684.66666667-.66666667.66666667s-.66666667-.29847683-.66666667-.66666667c0-.36818983.29847684-.66666666.66666667-.66666666zm2.66666667 0 .09851511.00722838c.32147648.04761627.56815155.32472025.56815155.65943828 0 .36818984-.29847683.66666667-.66666666.66666667-.36818984 0-.66666667-.29847683-.66666667-.66666667 0-.36818983.29847683-.66666666.66666667-.66666666zm-2.66666667-1.33333334c.36818983 0 .66666667.29847684.66666667.66666667s-.29847684.66666667-.66666667.66666667-.66666667-.29847684-.66666667-.66666667.29847684-.66666667.66666667-.66666667zm2.66666667 0c.36818983 0 .66666666.29847684.66666666.66666667s-.29847683.66666667-.66666666.66666667c-.36818984 0-.66666667-.29847684-.66666667-.66666667s.29847683-.66666667.66666667-.66666667z" fill="#ffd033" mask="url(#d)"/><ellipse cx="3.333333" cy="4" fill="#fff" mask="url(#d)" rx="1" ry="2"/></g></g><path d="m16.6666667 13.3333333c0 1.2715201 1.8211998 2 4 2s4-.7284799 4-2c0-.3681898-.2984769-.6666666-.6666667-.6666666s-.6666667.2984768-.6666667.6666666c0 .0127465-.1615943.1655672-.5572378.3238246-.5370787.2148315-1.2937064.3428421-2.1094288.3428421-.8157225 0-1.5723502-.1280106-2.1094289-.3428421-.3956435-.1582574-.5572378-.3110781-.5572378-.3238246 0-.3681898-.2984768-.6666666-.6666667-.6666666-.3681898 0-.6666666.2984768-.6666666.6666666z" fill="#ffd033" fill-rule="nonzero" mask="url(#c)"/><path d="m6.57256028 6.33333333h-1.1436282l-5.76226541 3.60141588v-1.43962184l4.66666666-3.33333334v-1.00848239l-5.23441913-4.48664497h1.67457415l4.66666667 3.33333333h1.1309129l5.72574658-3.57859164c.1321116 1.15267481-.1171297 1.52654654-.3810143 1.71503554l-4.24913353 3.0350954v1.00848239l7.49001743 6.42001491z" fill="#db1e36" mask="url(#c)" stroke="#fff" stroke-width=".666667"/><path d="m0 3.33333333v2.66666667h4.66666667v3.33948135c0 .36479438.30590057.66051865.67291259.66051865h1.32084148c.37163936 0 .67291259-.30065012.67291259-.66051865v-3.33948135h4.65786297c.373052 0 .6754704-.30590057.6754704-.6729126v-1.32084147c0-.37163936-.3020242-.6729126-.6754704-.6729126h-4.65786297v-3.33333333h-2.66666666v3.33333333z" fill="#fff" mask="url(#c)"/><path d="m0 4h5.33333333v-.66666667-3.33333333h1.33333334v3.33333333.66666667h5.33333333v1.33333333h-5.33333333v.66666667 3.33333333h-1.33333334v-3.33333333-.66666667h-5.33333333z" fill="#db1e36" mask="url(#c)"/></g></svg>