<svg height="20" viewBox="0 0 28 20" width="28" xmlns="http://www.w3.org/2000/svg" xmlns:xlink="http://www.w3.org/1999/xlink"><defs><rect id="a" height="20" rx="2" width="28"/><mask id="b" fill="#fff"><use fill="#fff" fill-rule="evenodd" xlink:href="#a"/></mask></defs><g fill="none" fill-rule="evenodd"><use fill="#fff" xlink:href="#a"/><path d="m0 0h28v20h-28z" fill="#e31f37" mask="url(#b)"/><path d="m-1.333333-1.333333h16v12h-16z" fill="#083b9a" mask="url(#b)"/><path d="m7.60947571 7.72385763-.27614238.94280904.27614238.94280904-.94280904-.27614238-.94280904.27614238.27614237-.94280904-.27614237-.94280904.94280904.27614237zm.72385762-1.05719096c.18409492 0 .33333334.14923841.33333334.33333333s-.14923842.33333333-.33333334.33333333c-.18409491 0-.33333333-.14923841-.33333333-.33333333s.14923842-.33333333.33333333-.33333333zm-3.39052429-2.27614238-.27614237.94280904.27614237.94280904-.94280904-.27614237-.94280904.27614237.27614237-.94280904-.27614237-.94280904.94280904.27614238zm5.99999996-.66666666-.2761423.94280904.2761423.94280904-.942809-.27614238-.94280904.27614238.27614237-.94280904-.27614237-.94280904.94280904.27614237zm-3.33333329-2.66666667-.27614238.94280904.27614238.94280904-.94280904-.27614237-.94280904.27614237.27614237-.94280904-.27614237-.94280904.94280904.27614237z" fill="#fff" mask="url(#b)"/></g></svg>