<svg height="20" viewBox="0 0 28 20" width="28" xmlns="http://www.w3.org/2000/svg" xmlns:xlink="http://www.w3.org/1999/xlink"><defs><rect id="a" height="20" rx="2" width="28"/><linearGradient id="b" x1="50%" x2="50%" y1="0%" y2="100%"><stop offset="0" stop-color="#f12f1f"/><stop offset="1" stop-color="#de2010"/></linearGradient><mask id="c" fill="#fff"><use fill="#fff" fill-rule="evenodd" xlink:href="#a"/></mask></defs><g fill="none" fill-rule="evenodd"><use fill="#fff" xlink:href="#a"/><g fill="#369d0c"><path d="m0 0h28v2.666667h-28z" mask="url(#c)"/><path d="m0 17.333333h28v2.666667h-28z" mask="url(#c)"/><path d="m0 5.333333h28v2.666667h-28z" mask="url(#c)"/><path d="m0 12h28v2.666667h-28z" mask="url(#c)"/></g><path d="m0 8h28v4h-28z" fill="#262626" mask="url(#c)"/><path d="m0 2.666667h28v2.666667h-28z" fill="#ffd40e" mask="url(#c)"/><path d="m0 14.666667h28v2.666667h-28z" fill="#ffd40e" mask="url(#c)"/><path d="m-.22222222 19.3333333-.44444445-18.66666663h.44444445l12.44444442 9.33333333z" fill="#fff" mask="url(#c)" stroke="#262626" stroke-width="1.333333"/><path d="m4 11.3000001-1.95928417 1.3967232.72291065-2.2950012-1.93381487-1.43177875 2.40606753-.02166548.76412086-2.2816112.76412086 2.2816112 2.40606753.02166548-1.93381487 1.43177875.72291065 2.2950012z" fill="url(#b)" mask="url(#c)"/></g></svg>